<?xml version="1.0" encoding="UTF-8" standalone="no"?>
<!-- Created with Inkscape (http://www.inkscape.org/) -->
<svg
   xmlns:svg="http://www.w3.org/2000/svg"
   xmlns="http://www.w3.org/2000/svg"
   xmlns:xlink="http://www.w3.org/1999/xlink"
   version="1.0"
   width="32"
   height="32"
   id="svg44406">
  <defs
     id="defs44408">
    <linearGradient
       id="linearGradient2776">
      <stop
         id="stop2778"
         style="stop-color:#aaaaaa;stop-opacity:1"
         offset="0" />
      <stop
         id="stop2780"
         style="stop-color:#c5c5c5;stop-opacity:1"
         offset="1" />
    </linearGradient>
    <linearGradient
       x1="-51.786404"
       y1="50.786446"
       x2="-51.786404"
       y2="2.9062471"
       id="linearGradient2494"
       xlink:href="#linearGradient2776"
       gradientUnits="userSpaceOnUse"
       gradientTransform="matrix(0.2537858,0,0,0.3050189,34.128981,14.31452)" />
    <linearGradient
       id="linearGradient3600">
      <stop
         id="stop3602"
         style="stop-color:#f4f4f4;stop-opacity:1"
         offset="0" />
      <stop
         id="stop3604"
         style="stop-color:#dbdbdb;stop-opacity:1"
         offset="1" />
    </linearGradient>
    <linearGradient
       x1="25.132275"
       y1="0.98520643"
       x2="25.132275"
       y2="47.013336"
       id="linearGradient2492"
       xlink:href="#linearGradient3600"
       gradientUnits="userSpaceOnUse"
       gradientTransform="matrix(0.3142872,0,0,0.3259268,15.457106,14.677759)" />
    <linearGradient
       id="linearGradient3211">
      <stop
         id="stop3213"
         style="stop-color:#ffffff;stop-opacity:1"
         offset="0" />
      <stop
         id="stop3215"
         style="stop-color:#ffffff;stop-opacity:0"
         offset="1" />
    </linearGradient>
    <linearGradient
       x1="24"
       y1="1.9999999"
       x2="24"
       y2="46.01725"
       id="linearGradient2489"
       xlink:href="#linearGradient3211"
       gradientUnits="userSpaceOnUse"
       gradientTransform="matrix(0.2727267,0,0,0.302325,16.45456,15.744204)" />
    <linearGradient
       id="linearGradient8589">
      <stop
         id="stop8591"
         style="stop-color:#fefefe;stop-opacity:1"
         offset="0" />
      <stop
         id="stop8593"
         style="stop-color:#cbcbcb;stop-opacity:1"
         offset="1" />
    </linearGradient>
    <linearGradient
       x1="32.892288"
       y1="8.0590115"
       x2="36.358372"
       y2="5.4565363"
       id="linearGradient2485"
       xlink:href="#linearGradient8589"
       gradientUnits="userSpaceOnUse"
       gradientTransform="matrix(0.3091956,0,0,0.3766935,15.476145,14.154848)" />
    <linearGradient
       id="linearGradient3484">
      <stop
         id="stop3486"
         style="stop-color:#bdbdbd;stop-opacity:1"
         offset="0" />
      <stop
         id="stop3488"
         style="stop-color:#d0d0d0;stop-opacity:1"
         offset="1" />
    </linearGradient>
    <linearGradient
       id="linearGradient6404">
      <stop
         id="stop6406"
         style="stop-color:#f9f9f9;stop-opacity:1"
         offset="0" />
      <stop
         id="stop6408"
         style="stop-color:#c9c9c9;stop-opacity:1"
         offset="1" />
    </linearGradient>
    <linearGradient
       id="linearGradient5048-585">
      <stop
         id="stop2667"
         style="stop-color:#000000;stop-opacity:0"
         offset="0" />
      <stop
         id="stop2669"
         style="stop-color:#000000;stop-opacity:1"
         offset="0.5" />
      <stop
         id="stop2671"
         style="stop-color:#000000;stop-opacity:0"
         offset="1" />
    </linearGradient>
    <linearGradient
       id="linearGradient5060-179">
      <stop
         id="stop2675"
         style="stop-color:#000000;stop-opacity:1"
         offset="0" />
      <stop
         id="stop2677"
         style="stop-color:#000000;stop-opacity:0"
         offset="1" />
    </linearGradient>
    <linearGradient
       id="linearGradient5060-820">
      <stop
         id="stop2681"
         style="stop-color:#000000;stop-opacity:1"
         offset="0" />
      <stop
         id="stop2683"
         style="stop-color:#000000;stop-opacity:0"
         offset="1" />
    </linearGradient>
    <linearGradient
       id="linearGradient3390">
      <stop
         id="stop3392"
         style="stop-color:#425e7b;stop-opacity:1"
         offset="0" />
      <stop
         id="stop3394"
         style="stop-color:#7a91a7;stop-opacity:1"
         offset="1" />
    </linearGradient>
    <linearGradient
       id="linearGradient7012-661-145-733-759-865-745">
      <stop
         id="stop2699"
         style="stop-color:#9cbbd9;stop-opacity:1"
         offset="0" />
      <stop
         id="stop2701"
         style="stop-color:#5c82ab;stop-opacity:1"
         offset="1" />
    </linearGradient>
    <linearGradient
       id="linearGradient6129-963-697-142-998-580-273">
      <stop
         id="stop2661"
         style="stop-color:#0a0a0a;stop-opacity:0.498"
         offset="0" />
      <stop
         id="stop2663"
         style="stop-color:#0a0a0a;stop-opacity:0"
         offset="1" />
    </linearGradient>
    <linearGradient
       id="linearGradient6087-437-184-795-110-662-495">
      <stop
         id="stop2693"
         style="stop-color:#ffffff;stop-opacity:0.40000001"
         offset="0" />
      <stop
         id="stop2695"
         style="stop-color:#ffffff;stop-opacity:0"
         offset="1" />
    </linearGradient>
    <linearGradient
       id="linearGradient8265-821-176-38-919-66-249">
      <stop
         id="stop2687"
         style="stop-color:#ffffff;stop-opacity:0.2"
         offset="0" />
      <stop
         id="stop2689"
         style="stop-color:#ffffff;stop-opacity:0"
         offset="1" />
    </linearGradient>
    <linearGradient
       x1="11.566265"
       y1="22.292103"
       x2="15.214532"
       y2="33.95525"
       id="linearGradient2431"
       xlink:href="#linearGradient8265-821-176-38-919-66-249"
       gradientUnits="userSpaceOnUse"
       gradientTransform="matrix(0.6515346,0,0,0.6760494,0.3603499,0.1849652)" />
    <radialGradient
       cx="7.2646537"
       cy="8.3021259"
       r="20.979567"
       fx="7.2646537"
       fy="8.3021259"
       id="radialGradient2434"
       xlink:href="#linearGradient6087-437-184-795-110-662-495"
       gradientUnits="userSpaceOnUse"
       gradientTransform="matrix(0,0.7386341,-0.9984871,0,17.148572,6.8540185)" />
    <linearGradient
       x1="22.934725"
       y1="49.629246"
       x2="22.809399"
       y2="36.657963"
       id="linearGradient2437"
       xlink:href="#linearGradient6129-963-697-142-998-580-273"
       gradientUnits="userSpaceOnUse"
       gradientTransform="matrix(0.7467531,0,0,0.6554922,-1.9220764,1.1676179)" />
    <radialGradient
       cx="63.969177"
       cy="14.113381"
       r="23.097054"
       fx="63.969177"
       fy="14.113381"
       id="radialGradient2440"
       xlink:href="#linearGradient7012-661-145-733-759-865-745"
       gradientUnits="userSpaceOnUse"
       gradientTransform="matrix(1.007989,-6.1246211e-8,3.9794263e-8,0.6539555,-55.005411,6.1061543)" />
    <linearGradient
       x1="82.453476"
       y1="45.114193"
       x2="82.453476"
       y2="10.82615"
       id="linearGradient2442"
       xlink:href="#linearGradient3390"
       gradientUnits="userSpaceOnUse"
       gradientTransform="matrix(0.644209,0,0,0.643728,-34.102646,0.7887616)" />
    <linearGradient
       x1="62.988873"
       y1="13.182598"
       x2="62.988873"
       y2="16.19013"
       id="linearGradient2454"
       xlink:href="#linearGradient6404"
       gradientUnits="userSpaceOnUse"
       gradientTransform="matrix(0.627907,0,0,0.6348983,-31.055913,1.1034431)" />
    <radialGradient
       cx="3"
       cy="5.01718"
       r="21"
       fx="3"
       fy="5.01718"
       id="radialGradient2456"
       xlink:href="#linearGradient3484"
       gradientUnits="userSpaceOnUse"
       gradientTransform="matrix(0,1.0884009,-1.355859,0,8.9733195,2.9173483)" />
    <linearGradient
       x1="302.85715"
       y1="366.64789"
       x2="302.85715"
       y2="609.50507"
       id="linearGradient2463"
       xlink:href="#linearGradient5048-585"
       gradientUnits="userSpaceOnUse"
       gradientTransform="matrix(5.1142824e-2,0,0,1.5915752e-2,-2.4899573,22.29927)" />
    <radialGradient
       cx="605.71429"
       cy="486.64789"
       r="117.14286"
       fx="605.71429"
       fy="486.64789"
       id="radialGradient2465"
       xlink:href="#linearGradient5060-179"
       gradientUnits="userSpaceOnUse"
       gradientTransform="matrix(1.9835731e-2,0,0,1.5915752e-2,16.38765,22.29927)" />
    <radialGradient
       cx="605.71429"
       cy="486.64789"
       r="117.14286"
       fx="605.71429"
       fy="486.64789"
       id="radialGradient2467"
       xlink:href="#linearGradient5060-820"
       gradientUnits="userSpaceOnUse"
       gradientTransform="matrix(-1.9835727e-2,0,0,1.5915752e-2,15.60139,22.29927)" />
  </defs>
  <path
     d="M 4,6.5000785 C 3.566574,6.5049492 3.5,6.7173065 3.5,7.1349768 L 3.5,8.5 C 2.2543195,8.5 2.5,8.4981971 2.5,9.0438922 C 2.5216068,15.577024 2.5,15.945324 2.5,16.5 C 3.4013419,16.5 29.499999,14.151046 29.499999,13.13995 L 29.499999,9.0438922 C 29.499999,8.6262224 29.152009,8.4951297 28.718581,8.5 L 14.5,8.5 L 14.5,7.1349768 C 14.5,6.7173065 14.235751,6.4952078 13.802324,6.5000785 L 4,6.5000785 z"
     id="path3468"
     style="fill:url(#linearGradient2454);fill-opacity:1;stroke:url(#radialGradient2456);stroke-width:1.00000012;stroke-linecap:round;stroke-linejoin:round;stroke-miterlimit:4;stroke-dasharray:none;stroke-opacity:1;display:inline" />
  <g
     transform="translate(0,-1.000001)"
     id="g2458">
    <rect
       width="24.694677"
       height="3.8652544"
       x="3.6471815"
       y="28.134747"
       id="rect4173"
       style="opacity:0.3;fill:url(#linearGradient2463);fill-opacity:1;fill-rule:nonzero;stroke:none;stroke-width:1;stroke-linecap:round;stroke-linejoin:miter;marker:none;marker-start:none;marker-mid:none;marker-end:none;stroke-miterlimit:4;stroke-dasharray:none;stroke-dashoffset:0;stroke-opacity:1;visibility:visible;display:inline;overflow:visible" />
    <path
       d="M 28.341859,28.13488 C 28.341859,28.13488 28.341859,31.999921 28.341859,31.999921 C 29.36335,32.007197 30.811327,31.133961 30.811327,30.067152 C 30.811327,29.000342 29.671419,28.13488 28.341859,28.13488 z"
       id="path5058"
       style="opacity:0.3;fill:url(#radialGradient2465);fill-opacity:1;fill-rule:nonzero;stroke:none;stroke-width:1;stroke-linecap:round;stroke-linejoin:miter;marker:none;marker-start:none;marker-mid:none;marker-end:none;stroke-miterlimit:4;stroke-dasharray:none;stroke-dashoffset:0;stroke-opacity:1;visibility:visible;display:inline;overflow:visible" />
    <path
       d="M 3.6471816,28.13488 C 3.6471816,28.13488 3.6471816,31.999921 3.6471816,31.999921 C 2.6256904,32.007197 1.1777138,31.133961 1.1777138,30.067152 C 1.1777138,29.000342 2.3176206,28.13488 3.6471816,28.13488 z"
       id="path5018"
       style="opacity:0.3;fill:url(#radialGradient2467);fill-opacity:1;fill-rule:nonzero;stroke:none;stroke-width:1;stroke-linecap:round;stroke-linejoin:miter;marker:none;marker-start:none;marker-mid:none;marker-end:none;stroke-miterlimit:4;stroke-dasharray:none;stroke-dashoffset:0;stroke-opacity:1;visibility:visible;display:inline;overflow:visible" />
  </g>
  <path
     d="M 1.9268353,11.499999 C 1.2357878,11.579625 1.604879,12.402582 1.5497817,12.865354 C 1.6299747,13.164415 2.1474964,28.583337 2.1474964,29.112792 C 2.1474964,29.572969 2.3741638,29.495006 2.9485023,29.495006 C 11.447903,29.495006 20.846581,29.495006 29.345982,29.495006 C 29.964708,29.509351 29.833949,29.502483 29.833949,29.105535 C 29.879172,28.902853 30.473875,12.127064 30.496766,11.862096 C 30.496766,11.583102 30.554865,11.499999 30.191836,11.499999 C 21.115334,11.499999 11.00334,11.499999 1.9268353,11.499999 z"
     id="path3388"
     style="fill:url(#radialGradient2440);fill-opacity:1;stroke:url(#linearGradient2442);stroke-width:1;stroke-linecap:round;stroke-linejoin:round;stroke-miterlimit:4;stroke-dashoffset:0;stroke-opacity:1" />
  <path
     d="M 1.6818182,11 L 30.318182,11.000266 C 30.731883,11.000266 31,11.29236 31,11.655504 L 30.326494,29.367605 C 30.336061,29.82709 30.190093,30.009274 29.709425,29.999639 L 2.4532999,29.988097 C 2.0395984,29.988097 1.6224334,29.716924 1.6224334,29.353782 L 1,11.655493 C 1,11.292349 1.2681168,11 1.6818182,11 z"
     id="path6127"
     style="opacity:0.4;fill:url(#linearGradient2437);fill-opacity:1;stroke:none;stroke-width:1;stroke-linecap:round;stroke-linejoin:round;stroke-miterlimit:4;stroke-dashoffset:0;stroke-opacity:1" />
  <path
     d="M 29.5,12.5 C 21.196732,12.5 10.803266,12.5 2.4999998,12.5 C 2.7365055,17.5 2.9730111,22.500001 3.2095168,27.500001"
     id="path2435"
     style="fill:none;fill-rule:evenodd;stroke:url(#radialGradient2434);stroke-width:0.99999952;stroke-linecap:round;stroke-linejoin:round;stroke-miterlimit:4;stroke-dasharray:none;stroke-opacity:1" />
  <path
     d="M 30.405737,11.017168 C 20.926175,11.066755 11.205415,10.987455 1.7245005,11.001754 C 0.54733374,11.279689 1.1808557,12.669304 1.0909311,13.551491 C 1.235591,16.366119 1.3014202,19.193082 1.4951832,22 C 11.268537,20.402631 20.993365,18.885268 30.595629,17.234084 C 31.104472,15.48543 30.967512,12.329225 30.994211,11.689651 C 31.045461,11.232938 30.748835,11.009517 30.405737,11.017168 z"
     id="path3455"
     style="fill:url(#linearGradient2431);fill-opacity:1;stroke:none;stroke-width:1;stroke-linecap:round;stroke-linejoin:round;stroke-miterlimit:4;stroke-dashoffset:0;stroke-opacity:1" />
  <path
     d="M 16.5,14.5 C 19.020675,14.5 22.479322,14.5 25,14.5 C 25.442179,14.661794 27.938512,16.723725 28.558831,18 C 28.558831,21.906246 28.500038,26.59379 28.500038,30.500039 C 24.833345,30.500039 20.166692,30.500039 16.5,30.500039 C 16.5,25.500016 16.5,19.500021 16.5,14.5 z"
     id="path4160"
     style="fill:url(#linearGradient2492);fill-opacity:1;stroke:url(#linearGradient2494);stroke-width:0.99992162;stroke-linecap:butt;stroke-linejoin:round;stroke-miterlimit:4;stroke-dasharray:none;stroke-dashoffset:0;stroke-opacity:1;display:inline" />
  <path
     d="M 27.499999,18 C 27.499999,21.385398 27.499999,26.114607 27.499999,29.500006 C 24.5,29.500006 20.500001,29.500006 17.5,29.500006 C 17.5,25.166669 17.5,19.833333 17.5,15.5 C 19.562357,15.5 22.673899,15.5 24.736257,15.5"
     id="path2480"
     style="opacity:0.6;fill:none;fill-opacity:1;stroke:url(#linearGradient2489);stroke-width:0.99999994;stroke-linecap:butt;stroke-linejoin:miter;stroke-miterlimit:4;stroke-dasharray:none;stroke-dashoffset:0;stroke-opacity:1;display:inline" />
  <path
     d="M 24.29412,14.888572 C 25.142027,17.692475 23.999999,19.081789 23.999999,19.081789 C 23.999999,19.081789 25.892806,17.830383 28.171353,18.979484 C 30.114209,19.959293 28.207428,17.971461 28.129894,17.850439 C 27.586943,17.002934 25.707453,15.217332 25.025255,14.920257 C 24.969622,14.89603 24.581437,14.888572 24.29412,14.888572 z"
     id="path3330"
     style="fill:#c1c1c1;fill-opacity:1;fill-rule:evenodd;stroke:none;stroke-width:1px;stroke-linecap:butt;stroke-linejoin:miter;stroke-opacity:1;display:inline" />
  <path
     d="M 24.29412,14.888572 C 25.28164,14.888572 24.999999,18.069591 24.999999,18.069591 C 24.999999,18.069591 27.272471,17.56886 28.171353,18.979484 C 28.334235,19.235097 28.207428,17.971461 28.129894,17.850439 C 27.586943,17.002934 25.707453,15.217332 25.025255,14.920257 C 24.969622,14.89603 24.581437,14.888572 24.29412,14.888572 z"
     id="path4474"
     style="fill:url(#linearGradient2485);fill-opacity:1;fill-rule:evenodd;stroke:none;stroke-width:1px;stroke-linecap:butt;stroke-linejoin:miter;stroke-opacity:1;display:inline" />
</svg>
