<?xml version="1.0" encoding="UTF-8" standalone="no"?>
<svg
   xmlns:dc="http://purl.org/dc/elements/1.1/"
   xmlns:cc="http://creativecommons.org/ns#"
   xmlns:rdf="http://www.w3.org/1999/02/22-rdf-syntax-ns#"
   xmlns:svg="http://www.w3.org/2000/svg"
   xmlns="http://www.w3.org/2000/svg"
   xmlns:xlink="http://www.w3.org/1999/xlink"
   id="svg3901"
   height="48"
   width="48"
   version="1.1">
  <defs
     id="defs3903">
    <linearGradient
       id="linearGradient3403">
      <stop
         id="stop3405"
         style="stop-color:#ffffff;stop-opacity:1"
         offset="0" />
      <stop
         id="stop3407"
         style="stop-color:#ffffff;stop-opacity:0.23529412"
         offset="0" />
      <stop
         id="stop3409"
         style="stop-color:#ffffff;stop-opacity:0.15686275"
         offset="1" />
      <stop
         id="stop3411"
         style="stop-color:#ffffff;stop-opacity:0.39215687"
         offset="1" />
    </linearGradient>
    <linearGradient
       id="linearGradient3600">
      <stop
         offset="0"
         style="stop-color:#f4f4f4;stop-opacity:1"
         id="stop3602" />
      <stop
         offset="1"
         style="stop-color:#dbdbdb;stop-opacity:1"
         id="stop3604" />
    </linearGradient>
    <linearGradient
       id="linearGradient5060">
      <stop
         offset="0"
         style="stop-color:#000000;stop-opacity:1"
         id="stop5062" />
      <stop
         offset="1"
         style="stop-color:#000000;stop-opacity:0"
         id="stop5064" />
    </linearGradient>
    <linearGradient
       id="linearGradient5048">
      <stop
         offset="0"
         style="stop-color:#000000;stop-opacity:0"
         id="stop5050" />
      <stop
         offset="0.5"
         style="stop-color:#000000;stop-opacity:1"
         id="stop5056" />
      <stop
         offset="1"
         style="stop-color:#000000;stop-opacity:0"
         id="stop5052" />
    </linearGradient>
    <linearGradient
       id="linearGradient3104-6">
      <stop
         id="stop3106-3"
         style="stop-color:#000000;stop-opacity:0.31782946"
         offset="0" />
      <stop
         id="stop3108-9"
         style="stop-color:#000000;stop-opacity:0.24031007"
         offset="1" />
    </linearGradient>
    <linearGradient
       y2="42.110645"
       x2="23.99999"
       y1="5.9404659"
       x1="23.99999"
       gradientTransform="matrix(0.89189189,0,0,1.1351351,2.5945999,-4.7432314)"
       gradientUnits="userSpaceOnUse"
       id="linearGradient3106"
       xlink:href="#linearGradient3403" />
    <linearGradient
       y2="47.013336"
       x2="25.132275"
       y1="0.98520643"
       x1="25.132275"
       gradientTransform="matrix(0.97142632,0,0,0.93431938,0.68576678,-1.3569996)"
       gradientUnits="userSpaceOnUse"
       id="linearGradient3109"
       xlink:href="#linearGradient3600" />
    <radialGradient
       r="117.14286"
       fy="486.64789"
       fx="605.71429"
       cy="486.64789"
       cx="605.71429"
       gradientTransform="matrix(0.02303995,0,0,0.01470022,26.360882,37.040176)"
       gradientUnits="userSpaceOnUse"
       id="radialGradient3112"
       xlink:href="#linearGradient5060" />
    <radialGradient
       r="117.14286"
       fy="486.64789"
       fx="605.71429"
       cy="486.64789"
       cx="605.71429"
       gradientTransform="matrix(-0.02303994,0,0,0.01470022,21.62311,37.040176)"
       gradientUnits="userSpaceOnUse"
       id="radialGradient3115"
       xlink:href="#linearGradient5060" />
    <linearGradient
       y2="609.50507"
       x2="302.85715"
       y1="366.64789"
       x1="302.85715"
       gradientTransform="matrix(0.06732488,0,0,0.01470022,-0.3411391,37.040146)"
       gradientUnits="userSpaceOnUse"
       id="linearGradient3118"
       xlink:href="#linearGradient5048" />
    <linearGradient
       y2="2.9062471"
       x2="-51.786404"
       y1="50.786446"
       x1="-51.786404"
       gradientTransform="matrix(0.80749686,0,0,0.89471714,59.410232,-2.9773433)"
       gradientUnits="userSpaceOnUse"
       id="linearGradient3170"
       xlink:href="#linearGradient3104-6" />
    <radialGradient
       gradientTransform="matrix(0,0.95936489,-1.0436697,0,87.757589,-35.865792)"
       gradientUnits="userSpaceOnUse"
       xlink:href="#linearGradient3242-7-3-8-0-4-58-06"
       id="radialGradient3343"
       fy="48.744953"
       fx="65.59787"
       r="31.000002"
       cy="48.744953"
       cx="65.59787" />
    <linearGradient
       id="linearGradient3242-7-3-8-0-4-58-06">
      <stop
         id="stop3244-5-8-5-6-4-3-8"
         style="stop-color:#cdf87e;stop-opacity:1"
         offset="0" />
      <stop
         id="stop3246-9-5-1-5-3-0-7"
         style="stop-color:#a2e34f;stop-opacity:1"
         offset="0.26238" />
      <stop
         id="stop3248-7-2-0-7-5-35-9"
         style="stop-color:#68b723;stop-opacity:1"
         offset="0.66093999" />
      <stop
         id="stop3250-8-2-8-5-6-40-4"
         style="stop-color:#1d7e0d;stop-opacity:1"
         offset="1" />
    </linearGradient>
    <linearGradient
       gradientTransform="matrix(0.70448868,0,0,0.59520312,21.241407,23.219131)"
       gradientUnits="userSpaceOnUse"
       xlink:href="#linearGradient4154"
       id="linearGradient3030"
       y2="36.594009"
       x2="24.138529"
       y1="9.712431"
       x1="24.138529" />
    <linearGradient
       id="linearGradient4154">
      <stop
         offset="0"
         style="stop-color:#ffffff;stop-opacity:1"
         id="stop4156" />
      <stop
         offset="0"
         style="stop-color:#ffffff;stop-opacity:0.23529412"
         id="stop4158" />
      <stop
         offset="1"
         style="stop-color:#ffffff;stop-opacity:0.15686275"
         id="stop4160" />
      <stop
         offset="1"
         style="stop-color:#ffffff;stop-opacity:0.39215687"
         id="stop4162" />
    </linearGradient>
    <linearGradient
       gradientTransform="matrix(0.60015241,0,0,0.69748032,23.556108,20.861165)"
       gradientUnits="userSpaceOnUse"
       xlink:href="#linearGradient4154"
       id="linearGradient3030-1"
       y2="26.006231"
       x2="24.138529"
       y1="20.271303"
       x1="24.138529" />
    <linearGradient
       gradientTransform="matrix(0.89189189,0,0,1.0540541,0.594596,-1.297285)"
       gradientUnits="userSpaceOnUse"
       xlink:href="#linearGradient3195"
       id="linearGradient3275"
       y2="32.595779"
       x2="23.99999"
       y1="14.915504"
       x1="23.99999" />
    <linearGradient
       id="linearGradient3195">
      <stop
         offset="0"
         style="stop-color:#ffffff;stop-opacity:1"
         id="stop3197" />
      <stop
         offset="0.12291458"
         style="stop-color:#ffffff;stop-opacity:0.23529412"
         id="stop3199" />
      <stop
         offset="0.93706012"
         style="stop-color:#ffffff;stop-opacity:0.15686275"
         id="stop3201" />
      <stop
         offset="1"
         style="stop-color:#ffffff;stop-opacity:0.39215687"
         id="stop3203" />
    </linearGradient>
    <radialGradient
       gradientTransform="matrix(0,1.4781634,-1.2641963,0,34.682274,-3.631552)"
       gradientUnits="userSpaceOnUse"
       xlink:href="#linearGradient2867-449-88-871-390-598-476-591-434-148-57-177-641-289-620-227-114-444-680-744-8-7"
       id="radialGradient3278"
       fy="8.4497671"
       fx="10.90426"
       r="19.99999"
       cy="8.4497671"
       cx="10.90426" />
    <linearGradient
       id="linearGradient2867-449-88-871-390-598-476-591-434-148-57-177-641-289-620-227-114-444-680-744-8-7">
      <stop
         offset="0"
         style="stop-color:#5f5f5f;stop-opacity:1"
         id="stop5430-8-6" />
      <stop
         offset="0.26238"
         style="stop-color:#4f4f4f;stop-opacity:1"
         id="stop5432-3-5" />
      <stop
         offset="0.704952"
         style="stop-color:#3b3b3b;stop-opacity:1"
         id="stop5434-1-6" />
      <stop
         offset="1"
         style="stop-color:#2b2b2b;stop-opacity:1"
         id="stop5436-8-9" />
    </linearGradient>
    <linearGradient
       gradientTransform="matrix(1,0,0,1.0512821,10e-7,-1.230769)"
       gradientUnits="userSpaceOnUse"
       xlink:href="#linearGradient3707-319-631-407-324-616-674-812-821-107-178-392-400-6-7"
       id="linearGradient3280"
       y2="3.8990016"
       x2="24"
       y1="44"
       x1="24" />
    <linearGradient
       id="linearGradient3707-319-631-407-324-616-674-812-821-107-178-392-400-6-7">
      <stop
         offset="0"
         style="stop-color:#272727;stop-opacity:1"
         id="stop5440-4-4" />
      <stop
         offset="1"
         style="stop-color:#454545;stop-opacity:1"
         id="stop5442-3-5" />
    </linearGradient>
  </defs>
  <metadata
     id="metadata3906">
    <rdf:RDF>
      <cc:Work
         rdf:about="">
        <dc:format>image/svg+xml</dc:format>
        <dc:type
           rdf:resource="http://purl.org/dc/dcmitype/StillImage" />
        <dc:title></dc:title>
      </cc:Work>
    </rdf:RDF>
  </metadata>
  <rect
     width="32.508301"
     height="3.5700529"
     x="7.7378473"
     y="42.429947"
     id="rect2879"
     style="opacity:0.3;fill:url(#linearGradient3118);fill-opacity:1;fill-rule:nonzero;stroke:none;stroke-width:1;marker:none;visibility:visible;display:inline;overflow:visible" />
  <path
     d="m 7.7378475,42.430102 c 0,0 0,3.569856 0,3.569856 -1.1865002,0.0067 -2.8683795,-0.799823 -2.8683795,-1.785158 0,-0.985333 1.3240446,-1.784697 2.8683795,-1.784698 z"
     id="path2881"
     style="opacity:0.3;fill:url(#radialGradient3115);fill-opacity:1;fill-rule:nonzero;stroke:none;stroke-width:1;marker:none;visibility:visible;display:inline;overflow:visible" />
  <path
     d="m 40.246148,42.430102 c 0,0 0,3.569856 0,3.569856 1.1865,0.0067 2.86838,-0.799823 2.86838,-1.785158 0,-0.985333 -1.324045,-1.784697 -2.86838,-1.784698 z"
     id="path2883"
     style="opacity:0.3;fill:url(#radialGradient3112);fill-opacity:1;fill-rule:nonzero;stroke:none;stroke-width:1;marker:none;visibility:visible;display:inline;overflow:visible" />
  <path
     d="m 7,1.0000001 c 7.791126,0 33.999959,0.00274 33.999959,0.00274 L 41,44 C 41,44 18.333334,44 7,44 7,29.666666 7,15.333333 7,1 z"
     id="path4160"
     style="fill:url(#linearGradient3109);fill-opacity:1;stroke:none;display:inline" />
  <path
     d="m 40.5,43.5 -33,0 0,-41.9999998 33,0 z"
     id="rect6741-1"
     style="fill:none;stroke:url(#linearGradient3106);stroke-width:1;stroke-linecap:round;stroke-linejoin:miter;stroke-miterlimit:4;stroke-opacity:1;stroke-dasharray:none;stroke-dashoffset:0" />
  <path
     d="m 6.4999605,0.4999623 c 8.0202885,0 35.0000415,0.00298 35.0000415,0.00298 l 3.7e-5,43.9970957 c 0,0 -23.333385,0 -35.0000785,0 0,-14.666738 0,-29.333326 0,-43.9998923 z"
     id="path4160-6-1"
     style="fill:none;stroke:url(#linearGradient3170);stroke-width:0.99992192;stroke-linecap:butt;stroke-linejoin:round;stroke-miterlimit:4;stroke-opacity:1;stroke-dasharray:none;stroke-dashoffset:0;display:inline" />
  <path
     d="m 23.914062,14.000088 c -0.647961,-0.0039 -1.216909,0.120311 -1.604166,0.377592 -0.499613,0.331928 -0.719895,0.374059 -0.859375,0.145228 -0.133451,-0.218931 -0.25482,-0.194472 -0.372396,0.116182 -0.09943,0.262723 -0.307283,0.382663 -0.544271,0.290455 -0.225954,-0.08792 -0.31861,-0.0596 -0.229167,0.08714 0.08595,0.141026 0.04393,0.261409 -0.08594,0.261409 -0.129868,0 -0.545787,0.444902 -0.916666,0.987548 -0.591216,0.865023 -0.687651,1.260372 -0.6875,3.078825 8.2e-5,1.140936 0.112754,2.251864 -0.229167,2.323642 -0.200537,0.0421 -0.181445,0.835112 -0.08594,1.655595 0.124891,1.072927 0.31144,1.598545 0.830729,2.091277 0.808824,0.767455 1.546875,2.095938 1.546875,2.817416 0,0.988315 -2.274593,2.717987 -5.677078,4.297195 L 15,35 l 18,0 0.0017,-2.727709 c -2.825056,-1.30284 -5.163127,-3.105564 -5.163127,-4.039897 0,-0.719735 0.710216,-2.050732 1.518229,-2.817416 0.519282,-0.492732 0.734484,-1.01835 0.859375,-2.091277 0.0955,-0.820483 0.108411,-1.590118 -0.08594,-1.655595 -0.267794,-0.09022 -0.25781,-1.192062 -0.25781,-2.323642 -10e-7,-1.622027 -0.101819,-2.225651 -0.515625,-2.904552 -0.823416,-1.350905 -3.498823,-2.428172 -5.442709,-2.439824 z"
     id="rect2382-1"
     style="display:inline;overflow:visible;visibility:visible;opacity:0.4;fill:#ffffff;fill-opacity:1;fill-rule:evenodd;stroke:none;stroke-width:1.00213277;marker:none;enable-background:accumulate" />
  <path
     d="m 23.90625,13.625 c -0.953111,-0.222982 -2.094888,0.462841 -2.094888,0.462841 l -1.025341,0.512955 c 0,0 -1.11109,0.971116 -1.122977,1.301022 -0.625407,1.108477 -0.34035,2.451743 -0.403761,3.664356 0.06095,1.0411 -0.662103,1.812948 -0.299426,2.868623 -0.05291,1.019156 0.785613,1.616868 1.324707,2.354009 0.606697,0.932573 1.430638,2.149386 0.781768,3.265449 -1.199485,1.741178 -3.193647,2.663944 -5.01427,3.612558 -0.618483,0.0634 -0.385641,0.658043 -0.427062,1.081985 -9.85e-4,0.337148 -0.111745,0.784071 0.382287,0.626202 5.455904,0 10.911809,0 16.367713,0 0,-0.583333 0,-1.166667 0,-1.75 -1.762512,-0.893922 -3.602022,-1.851487 -4.837462,-3.441087 -0.74221,-1.0647 0.0017,-2.344044 0.587457,-3.290663 0.456055,-0.788526 1.409297,-1.292368 1.422918,-2.297801 0.350517,-1.02007 -0.178426,-1.86447 -0.27715,-2.837386 -0.129076,-1.289869 0.220232,-2.700355 -0.39486,-3.900461 C 28.041919,14.629565 26.514318,14.091786 25.128057,13.762434 24.725953,13.681214 24.316901,13.628162 23.90625,13.625 Z"
     id="path3107"
     style="color:#000000;display:inline;overflow:visible;visibility:visible;fill:url(#radialGradient3278);fill-opacity:1;fill-rule:nonzero;stroke:url(#linearGradient3280);stroke-width:1;stroke-linecap:round;stroke-linejoin:round;stroke-miterlimit:4;stroke-dasharray:none;stroke-dashoffset:0;stroke-opacity:1;marker:none;enable-background:accumulate" />
  <path
     d="m 23.8125,14.53125 c -0.189087,-0.01802 -0.482551,0.06141 -0.90625,0.25 -0.313626,0.139593 -0.776807,0.260842 -1.25,0.34375 l 0.03125,0.03125 c -0.006,0.0031 -0.325939,0.180735 -0.53125,0.3125 -0.03948,0.02534 -0.06033,0.0092 -0.09375,0.03125 -0.01045,0.01354 -0.02568,0.02521 -0.03125,0.03125 -0.135466,0.146444 -0.399844,0.451063 -0.59375,0.78125 -0.202566,0.344933 -0.295128,0.718244 -0.28125,0.8125 a 0.93181003,0.93181003 0 0 1 0.03125,0.21875 c -0.08941,0.954462 0.20892,2.245355 -0.25,3.6875 a 0.93181003,0.93181003 0 0 1 -0.0625,0.1875 c -0.174437,0.295831 -0.04319,1.288201 0.25,2.03125 0.960164,1.010058 2.124605,2.35572 2.09375,4.1875 a 0.93181003,0.93181003 0 0 1 -0.03125,0.21875 c -0.507299,1.738772 -2.071037,2.576359 -3.0625,3.28125 a 0.93181003,0.93181003 0 0 1 -0.03125,0.03125 c -0.931428,0.616891 -1.925301,1.016747 -2.90625,1.5 l 15.96875,0 C 30.334078,31.61261 28.529845,30.601233 27.09375,29.03125 27.08358,29.02013 27.07264,29.01117 27.0625,29 c -0.669413,-0.696027 -0.804502,-1.649757 -0.65625,-2.40625 0.145636,-0.743143 0.48779,-1.365746 0.8125,-1.875 0.01109,-0.01739 0.02022,-0.04539 0.03125,-0.0625 0.327031,-0.588521 0.730031,-0.990747 1,-1.3125 0.281218,-0.335159 0.398116,-0.518548 0.40625,-0.78125 a 0.93181003,0.93181003 0 0 1 0.0625,-0.25 c 0.100406,-0.303081 0.0579,-0.545402 -0.03125,-0.9375 -0.08743,-0.384558 -0.262194,-0.900438 -0.3125,-1.53125 -9.86e-4,-0.01237 8.89e-4,-0.01878 0,-0.03125 -0.08317,-0.818466 0.01533,-1.55537 0,-2.1875 -0.01524,-0.628715 -0.131682,-1.086626 -0.40625,-1.46875 -0.0037,-0.0039 0.0037,-0.02737 0,-0.03125 -0.974345,-1.009474 -2.576861,-1.5274 -4.09375,-1.59375 a 0.93181003,0.93181003 0 0 1 -0.0625,0 z"
     id="path3151"
     style="color:#000000;display:inline;overflow:visible;visibility:visible;opacity:0.5;fill:none;stroke:url(#linearGradient3275);stroke-width:1;stroke-linecap:round;stroke-linejoin:round;stroke-miterlimit:4;stroke-dasharray:none;stroke-dashoffset:0;stroke-opacity:1;marker:none;enable-background:accumulate" />
  <g
     id="g4429">
    <path
       d="m 33.500001,33.5 0,-6.02737 7,0 0,6.02737 6.007286,0 0,7 -6.007286,0 0,6.007286 -7,0 0,-6.007286 -6.007287,0 0,-7 6.007287,0 z"
       id="path2262"
       style="color:#000000;display:inline;overflow:visible;visibility:visible;fill:url(#radialGradient3343);fill-opacity:1;fill-rule:nonzero;stroke:none;stroke-width:0.98542732;stroke-linecap:round;stroke-linejoin:round;stroke-miterlimit:4;stroke-dasharray:none;stroke-dashoffset:0;stroke-opacity:1;marker:none;enable-background:accumulate" />
    <path
       style="display:inline;opacity:0.5;fill:none;stroke:url(#linearGradient3030);stroke-width:1;stroke-linecap:butt;stroke-linejoin:miter;stroke-miterlimit:4;stroke-dasharray:none;stroke-opacity:1"
       id="path2272-4"
       d="m 34.500001,35.459225 0,-6.959225 5,0 0,6.949866 m 0,3.095588 0,6.954546 -5,0 0,-6.954546" />
    <path
       style="display:inline;opacity:0.5;fill:none;stroke:url(#linearGradient3030-1);stroke-width:1;stroke-linecap:butt;stroke-linejoin:miter;stroke-miterlimit:4;stroke-dasharray:none;stroke-opacity:1"
       id="path2272-2"
       d="m 40,34.519929 5.499798,-0.01811 0,4.980302 L 40,39.500231 m -6,0 -5.500203,-0.01811 0,-4.980302 L 34,34.519929" />
    <path
       d="m 33.500001,33.5 0,-6.02737 7,0 0,6.02737 6.007286,0 0,7 -6.007286,0 0,6.007286 -7,0 0,-6.007286 -6.007287,0 0,-7 6.007287,0 z"
       id="path2262-2"
       style="color:#000000;clip-rule:nonzero;display:inline;overflow:visible;visibility:visible;opacity:0.5;isolation:auto;mix-blend-mode:normal;color-interpolation:sRGB;color-interpolation-filters:linearRGB;solid-color:#000000;solid-opacity:1;fill:none;fill-opacity:1;fill-rule:nonzero;stroke:#0f5a00;stroke-width:1;stroke-linecap:round;stroke-linejoin:round;stroke-miterlimit:4;stroke-dasharray:none;stroke-dashoffset:0;stroke-opacity:1;marker:none;color-rendering:auto;image-rendering:auto;shape-rendering:auto;text-rendering:auto;enable-background:accumulate" />
  </g>
</svg>
