<?xml version="1.0" encoding="UTF-8" standalone="no"?>
<!-- Created with Inkscape (http://www.inkscape.org/) -->

<svg
   xmlns:svg="http://www.w3.org/2000/svg"
   xmlns="http://www.w3.org/2000/svg"
   xmlns:xlink="http://www.w3.org/1999/xlink"
   version="1.0"
   width="48"
   height="48"
   id="svg3786">
  <defs
     id="defs3788">
    <linearGradient
       id="linearGradient5060">
      <stop
         id="stop5062"
         style="stop-color:black;stop-opacity:1"
         offset="0" />
      <stop
         id="stop5064"
         style="stop-color:black;stop-opacity:0"
         offset="1" />
    </linearGradient>
    <linearGradient
       id="linearGradient5048">
      <stop
         id="stop5050"
         style="stop-color:black;stop-opacity:0"
         offset="0" />
      <stop
         id="stop5056"
         style="stop-color:black;stop-opacity:1"
         offset="0.5" />
      <stop
         id="stop5052"
         style="stop-color:black;stop-opacity:0"
         offset="1" />
    </linearGradient>
    <linearGradient
       id="linearGradient2215">
      <stop
         id="stop2223"
         style="stop-color:#555556;stop-opacity:1"
         offset="0" />
      <stop
         id="stop2219"
         style="stop-color:#0c0c0d;stop-opacity:1"
         offset="1" />
    </linearGradient>
    <linearGradient
       id="linearGradient3484">
      <stop
         id="stop3486"
         style="stop-color:#9b9b9b;stop-opacity:1"
         offset="0" />
      <stop
         id="stop3488"
         style="stop-color:#b6b6b6;stop-opacity:1"
         offset="1" />
    </linearGradient>
    <linearGradient
       id="linearGradient7056">
      <stop
         id="stop7064"
         style="stop-color:#e1e1e2;stop-opacity:1"
         offset="0" />
      <stop
         id="stop7060"
         style="stop-color:#d2d2d3;stop-opacity:1"
         offset="1" />
    </linearGradient>
    <linearGradient
       id="linearGradient7056-300">
      <stop
         id="stop3597"
         style="stop-color:#cbcbcb;stop-opacity:1"
         offset="0" />
      <stop
         id="stop3599"
         style="stop-color:#bdbdbe;stop-opacity:1"
         offset="1" />
    </linearGradient>
    <linearGradient
       id="linearGradient3776">
      <stop
         id="stop3778"
         style="stop-color:#a0a0a1;stop-opacity:1"
         offset="0" />
      <stop
         id="stop3780"
         style="stop-color:#e0e0e1;stop-opacity:1"
         offset="1" />
    </linearGradient>
    <linearGradient
       x1="44.261497"
       y1="53.951618"
       x2="44.261497"
       y2="28.299864"
       id="linearGradient2423"
       xlink:href="#linearGradient3776"
       gradientUnits="userSpaceOnUse"
       gradientTransform="matrix(0.2071759,0,0,0.2071759,16.750001,19.333188)" />
    <linearGradient
       x1="35.341114"
       y1="37.03133"
       x2="35.341114"
       y2="13.899854"
       id="linearGradient2426"
       xlink:href="#linearGradient7056-300"
       gradientUnits="userSpaceOnUse"
       gradientTransform="matrix(1.0393985,0,0,0.995671,-6.0986206,-0.8710774)" />
    <linearGradient
       x1="28.097086"
       y1="11.999853"
       x2="28.046757"
       y2="40.000149"
       id="linearGradient2431"
       xlink:href="#linearGradient7056"
       gradientUnits="userSpaceOnUse"
       gradientTransform="matrix(0.9999605,0,0,1.003626,-4.9989982,-1.0444232)" />
    <linearGradient
       x1="34.659508"
       y1="38.099998"
       x2="34.659508"
       y2="9.9298477"
       id="linearGradient2433"
       xlink:href="#linearGradient3484"
       gradientUnits="userSpaceOnUse"
       gradientTransform="translate(0,0.9998535)" />
    <linearGradient
       x1="29.9375"
       y1="41"
       x2="30"
       y2="49.999996"
       id="linearGradient2437"
       xlink:href="#linearGradient2215"
       gradientUnits="userSpaceOnUse"
       gradientTransform="matrix(1.0017502,0,0,0.7596403,-5.0508975,6.9363745)" />
    <linearGradient
       x1="302.85715"
       y1="366.64789"
       x2="302.85715"
       y2="609.50507"
       id="linearGradient2443"
       xlink:href="#linearGradient5048"
       gradientUnits="userSpaceOnUse"
       gradientTransform="matrix(0.07635654,0,0,0.02184879,1.4025717,30.138555)" />
    <radialGradient
       cx="605.71429"
       cy="486.64789"
       r="117.14286"
       fx="605.71429"
       fy="486.64789"
       id="radialGradient2445"
       xlink:href="#linearGradient5060"
       gradientUnits="userSpaceOnUse"
       gradientTransform="matrix(0.04484747,0,0,0.02184879,20.38888,30.138555)" />
    <radialGradient
       cx="605.71429"
       cy="486.64789"
       r="117.14286"
       fx="605.71429"
       fy="486.64789"
       id="radialGradient2447"
       xlink:href="#linearGradient5060"
       gradientUnits="userSpaceOnUse"
       gradientTransform="matrix(-0.04484747,0,0,0.02184879,37.61113,30.138555)" />
    <linearGradient
       x1="8.5273199"
       y1="33.332287"
       x2="57.411129"
       y2="33.332287"
       id="linearGradient2901"
       xlink:href="#linearGradient4222"
       gradientUnits="userSpaceOnUse"
       gradientTransform="matrix(0,0.798445,-0.7913078,0,44.889795,-5.6111935)" />
    <linearGradient
       id="linearGradient4222">
      <stop
         id="stop4224"
         style="stop-color:white;stop-opacity:1"
         offset="0" />
      <stop
         id="stop4226"
         style="stop-color:white;stop-opacity:0"
         offset="1" />
    </linearGradient>
    <linearGradient
       id="linearGradient2264">
      <stop
         id="stop2266"
         style="stop-color:#d7e866;stop-opacity:1"
         offset="0" />
      <stop
         id="stop2268"
         style="stop-color:#8cab2a;stop-opacity:1"
         offset="1" />
    </linearGradient>
    <linearGradient
       x1="28.670898"
       y1="23.890965"
       x2="1.3099612"
       y2="23.890965"
       id="linearGradient3390"
       xlink:href="#linearGradient2264"
       gradientUnits="userSpaceOnUse"
       gradientTransform="matrix(0,-0.6884294,-0.6854408,0,40.375844,29.770525)" />
    <linearGradient
       x1="21.478369"
       y1="1.6845057"
       x2="21.478369"
       y2="6.5747066"
       id="linearGradient4307"
       xlink:href="#linearGradient6451"
       gradientUnits="userSpaceOnUse"
       gradientTransform="translate(55.030111,1.3948202)" />
    <linearGradient
       id="linearGradient6451">
      <stop
         id="stop6453"
         style="stop-color:#eeeeec;stop-opacity:1"
         offset="0" />
      <stop
         id="stop6455"
         style="stop-color:white;stop-opacity:1"
         offset="1" />
    </linearGradient>
  </defs>
  <g
     transform="matrix(1,0,0,0.9423057,-5,6.0516399)"
     id="g6029"
     style="display:inline;enable-background:new">
    <rect
       width="36.869301"
       height="5.3061337"
       x="10.565332"
       y="38.149361"
       id="rect2723"
       style="opacity:0.40206185;fill:url(#linearGradient2443);fill-opacity:1;fill-rule:nonzero;stroke:none;stroke-width:0.5;marker:none;visibility:visible;display:inline;overflow:visible" />
    <path
       d="m 47.41667,38.149545 c 0,0 0,5.30584 0,5.30584 2.30953,0.01 5.58333,-1.18877 5.58333,-2.65326 0,-1.46449 -2.57726,-2.65258 -5.58333,-2.65258 z"
       id="path2725"
       style="opacity:0.40206185;fill:url(#radialGradient2445);fill-opacity:1;fill-rule:nonzero;stroke:none;stroke-width:0.5;marker:none;visibility:visible;display:inline;overflow:visible" />
    <path
       d="m 10.58333,38.149545 c 0,0 0,5.30584 0,5.30584 C 8.2737899,43.465375 5,42.266615 5,40.802125 c 0,-1.46449 2.5772699,-2.65258 5.58333,-2.65258 z"
       id="path2727"
       style="opacity:0.40206185;fill:url(#radialGradient2447);fill-opacity:1;fill-rule:nonzero;stroke:none;stroke-width:1;marker:none;visibility:visible;display:inline;overflow:visible" />
  </g>
  <path
     d="m 1.4638537,38.464001 45.0720003,0 -0.901202,6.072 -43.1694186,0 -1.0013797,-6.072 z"
     id="rect6431"
     style="fill:url(#linearGradient2437);fill-opacity:1;fill-rule:evenodd;stroke:#212122;stroke-width:0.9279989;stroke-linecap:round;stroke-linejoin:round;stroke-miterlimit:4;stroke-opacity:1;stroke-dasharray:none;stroke-dashoffset:0;display:inline;enable-background:new" />
  <rect
     width="45"
     height="1"
     x="1.5"
     y="37.999855"
     id="rect6381"
     style="fill:#d2d2d3;fill-opacity:1;fill-rule:evenodd;stroke:none;display:inline;enable-background:new" />
  <path
     d="M 46.55,38.601962 39.740367,12.827625 c -0.192553,-0.733973 -1.2012,-1.329879 -2.049166,-1.329879 l -27.617218,0 c -1.30274,0 -2.049257,0.198573 -2.323959,1.329879 L 1.45,38.576866"
     id="path6345"
     style="fill:url(#linearGradient2431);fill-opacity:1;fill-rule:nonzero;stroke:url(#linearGradient2433);stroke-width:0.99578345;stroke-linecap:round;stroke-linejoin:round;stroke-miterlimit:4;stroke-opacity:1;stroke-dasharray:none;stroke-dashoffset:0;marker:none;visibility:visible;display:inline;overflow:visible;enable-background:accumulate" />
  <path
     d="M 45.500002,38.499854 2.5000001,38.475803"
     id="path7046"
     style="opacity:0.4;fill:none;stroke:white;stroke-width:1;stroke-linecap:round;stroke-linejoin:miter;stroke-miterlimit:4;stroke-opacity:1;stroke-dasharray:none;stroke-dashoffset:0;marker:none;visibility:visible;display:inline;overflow:visible;enable-background:accumulate" />
  <path
     d="m 13.09375,13.968604 -2.84375,1.59375 -1.15625,5.15625 c -0.1743427,0.354406 -0.28125,0.709947 -0.28125,1.09375 0,0.02131 -5.822e-4,0.04127 0,0.0625 l -0.03125,0.15625 c 0.020963,7.55e-4 0.041649,-9.34e-4 0.0625,0 0.083436,0.857887 0.6202718,1.650727 1.5,2.3125 -1.8860097,1.325068 -3.03125,2.964818 -3.03125,4.75 0,4.372263 6.703236,7.906249 14.96875,7.90625 0.516595,0 1.027887,-0.0043 1.53125,-0.03125 l 14.375,0 3.8125,-2.78125 -4.65625,-18.625 -2.90625,-1.59375 -21.34375,0 z"
     id="path6886"
     style="opacity:0.4;fill:white;fill-opacity:1;fill-rule:nonzero;stroke:none;stroke-width:0.8855623;marker:none;visibility:visible;display:inline;overflow:visible;enable-background:accumulate" />
  <path
     d="m 13.09375,12.968604 -2.84375,1.59375 -1.15625,5.15625 c -0.1743427,0.354406 -0.28125,0.709947 -0.28125,1.09375 0,0.02131 -5.822e-4,0.04127 0,0.0625 l -0.03125,0.15625 c 0.020963,7.55e-4 0.041649,-9.34e-4 0.0625,0 0.083436,0.857887 0.6202718,1.650727 1.5,2.3125 -1.8860097,1.325068 -3.03125,2.964818 -3.03125,4.75 0,4.372263 6.703236,7.906249 14.96875,7.90625 0.516595,0 1.027887,-0.0043 1.53125,-0.03125 l 14.375,0 3.8125,-2.78125 -4.65625,-18.625 -2.90625,-1.59375 -21.34375,0 z"
     id="path3783"
     style="fill:url(#linearGradient2426);fill-opacity:1;fill-rule:nonzero;stroke:none;stroke-width:0.8855623;marker:none;visibility:visible;display:inline;overflow:visible;enable-background:accumulate" />
  <path
     d="m 28.499999,27.749854 c 5.33e-4,1.242829 -2.014341,2.250482 -4.499999,2.250482 -2.485659,0 -4.500533,-1.007653 -4.5,-2.250482 -5.33e-4,-1.242829 2.014341,-2.250483 4.5,-2.250483 2.485658,0 4.500532,1.007654 4.499999,2.250483 z"
     id="path3492"
     style="fill:#d4d4d5;fill-opacity:1;fill-rule:nonzero;stroke:url(#linearGradient2423);stroke-width:1.00000012;stroke-linecap:round;stroke-linejoin:round;stroke-miterlimit:4;stroke-opacity:1;stroke-dasharray:none;stroke-dashoffset:0;marker:none;visibility:visible;display:inline;overflow:visible;enable-background:accumulate" />
  <path
     d="M 37.509771,13.5 23.966059,28.509772 10.490228,13.5 16.5,13.5 l 0,-13.009772 15,0 0,13.009772 6.009771,0 z"
     id="path4348"
     style="fill:url(#linearGradient3390);fill-opacity:1;fill-rule:nonzero;stroke:#548820;stroke-width:0.98045683;stroke-linecap:round;stroke-linejoin:round;stroke-miterlimit:4;stroke-opacity:1;stroke-dasharray:none;stroke-dashoffset:0;marker:none;visibility:visible;display:inline;overflow:visible" />
  <path
     d="M 35.205341,14.5 24,27 12.632926,14.5 17.5,14.5 l 0,-13.0000004 13,0 0,13.0000004 4.705341,0 z"
     id="path4360"
     style="opacity:0.35400008;fill:none;stroke:url(#linearGradient2901);stroke-width:0.98045683;stroke-linecap:butt;stroke-linejoin:miter;stroke-miterlimit:4;stroke-opacity:1;stroke-dasharray:none;stroke-dashoffset:0;marker:none;visibility:visible;display:inline;overflow:visible" />
  <g
     transform="matrix(0.9756098,0,0,0.9101061,-53.590354,-1.2966929)"
     id="g4301"
     style="display:inline">
    <rect
       width="40"
       height="10"
       rx="2.1286025"
       ry="2.1286025"
       x="59.530113"
       y="1.8948202"
       id="rect5480"
       style="fill:url(#linearGradient4307);fill-opacity:1;stroke:#548820;stroke-width:1;stroke-linecap:butt;stroke-linejoin:miter;stroke-miterlimit:4;stroke-opacity:1;stroke-dasharray:none;stroke-dashoffset:0;display:inline" />
    <path
       d="m 7.03125,1.53125 c -0.8685059,0 -1.5,0.6314941 -1.5,1.5 l 0,4.9375 c 0,0.8685059 0.6314941,1.5 1.5,1.5 l 34.9375,0 c 0.868506,0 1.5,-0.631494 1.5,-1.5 l 0,-4.9375 c 0,-0.8685066 -0.631492,-1.5 -1.5,-1.5 l -34.9375,0 z"
       transform="translate(55.030111,1.3948202)"
       id="path6463"
       style="fill:none;stroke:white;stroke-width:1;stroke-linecap:butt;stroke-linejoin:miter;stroke-miterlimit:4;stroke-opacity:1;stroke-dasharray:none;stroke-dashoffset:0;display:inline" />
    <rect
       width="14"
       height="5"
       x="62.030109"
       y="4.3948202"
       id="rect6467"
       style="fill:#d3d7cf;fill-opacity:1;stroke:none;display:inline" />
    <rect
       width="1"
       height="7"
       x="77.030113"
       y="3.3948202"
       id="rect6469"
       style="fill:#555753;fill-opacity:1;stroke:none;display:inline" />
  </g>
</svg>
