<?xml version="1.0" encoding="UTF-8" standalone="no"?>
<svg
   version="1.0"
   width="48"
   height="48"
   id="svg11300"
   sodipodi:docname="document-print-preview.svg"
   inkscape:version="1.2.2 (b0a8486541, 2022-12-01)"
   xmlns:inkscape="http://www.inkscape.org/namespaces/inkscape"
   xmlns:sodipodi="http://sodipodi.sourceforge.net/DTD/sodipodi-0.dtd"
   xmlns:xlink="http://www.w3.org/1999/xlink"
   xmlns="http://www.w3.org/2000/svg"
   xmlns:svg="http://www.w3.org/2000/svg"
   xmlns:rdf="http://www.w3.org/1999/02/22-rdf-syntax-ns#"
   xmlns:cc="http://creativecommons.org/ns#"
   xmlns:dc="http://purl.org/dc/elements/1.1/">
  <sodipodi:namedview
     pagecolor="#ffffff"
     bordercolor="#666666"
     borderopacity="1"
     objecttolerance="10"
     gridtolerance="10"
     guidetolerance="10"
     inkscape:pageopacity="0"
     inkscape:pageshadow="2"
     inkscape:window-width="1278"
     inkscape:window-height="1005"
     id="namedview78"
     showgrid="true"
     inkscape:zoom="15.999999"
     inkscape:cx="18.437501"
     inkscape:cy="19.937501"
     inkscape:window-x="0"
     inkscape:window-y="14"
     inkscape:window-maximized="0"
     inkscape:current-layer="svg11300"
     inkscape:showpageshadow="2"
     inkscape:pagecheckerboard="0"
     inkscape:deskcolor="#d1d1d1">
    <inkscape:grid
       type="xygrid"
       id="grid885" />
  </sodipodi:namedview>
  <metadata
     id="metadata99">
    <rdf:RDF>
      <cc:Work
         rdf:about="">
        <dc:format>image/svg+xml</dc:format>
        <dc:type
           rdf:resource="http://purl.org/dc/dcmitype/StillImage" />
      </cc:Work>
    </rdf:RDF>
  </metadata>
  <defs
     id="defs3">
    <linearGradient
       id="linearGradient3512">
      <stop
         id="stop3514"
         style="stop-color:#ffffff;stop-opacity:1"
         offset="0" />
      <stop
         id="stop3516"
         style="stop-color:#ffffff;stop-opacity:0.23529412"
         offset="0.03402857" />
      <stop
         id="stop3518"
         style="stop-color:#ffffff;stop-opacity:0.15686275"
         offset="1" />
      <stop
         id="stop3520"
         style="stop-color:#ffffff;stop-opacity:0.39215687"
         offset="1" />
    </linearGradient>
    <linearGradient
       id="linearGradient3688-166-749-6">
      <stop
         id="stop2883-8"
         style="stop-color:#181818;stop-opacity:1"
         offset="0" />
      <stop
         id="stop2885-3"
         style="stop-color:#181818;stop-opacity:0"
         offset="1" />
    </linearGradient>
    <linearGradient
       id="linearGradient3688-464-309-7">
      <stop
         id="stop2889-0"
         style="stop-color:#181818;stop-opacity:1"
         offset="0" />
      <stop
         id="stop2891-66"
         style="stop-color:#181818;stop-opacity:0"
         offset="1" />
    </linearGradient>
    <linearGradient
       id="linearGradient3702-501-757-3">
      <stop
         id="stop2895-3"
         style="stop-color:#181818;stop-opacity:0"
         offset="0" />
      <stop
         id="stop2897-28"
         style="stop-color:#181818;stop-opacity:1"
         offset="0.5" />
      <stop
         id="stop2899-8"
         style="stop-color:#181818;stop-opacity:0"
         offset="1" />
    </linearGradient>
    <linearGradient
       id="linearGradient2867-449-88-871-390-598-476-591-434-148-57-177-8-3-3-6-4-8-8-8-5-9-4-5">
      <stop
         offset="0"
         style="stop-color:#505050;stop-opacity:1"
         id="stop3750-1-0-7-6-6-1-3-9-3-3-3-6" />
      <stop
         offset="0.26238"
         style="stop-color:#2b2b2b;stop-opacity:1"
         id="stop3752-3-7-4-0-32-8-923-0-7-1-1-4" />
      <stop
         offset="0.704952"
         style="stop-color:#0a0a0a;stop-opacity:1"
         id="stop3754-1-8-5-2-7-6-7-1-9-8-6-2" />
      <stop
         offset="1"
         style="stop-color:#000000;stop-opacity:1"
         id="stop3756-1-6-2-6-6-1-96-6-0-0-6-2" />
    </linearGradient>
    <linearGradient
       id="linearGradient3924-0-9-4">
      <stop
         offset="0"
         style="stop-color:#ffffff;stop-opacity:1"
         id="stop3926-6-0-8" />
      <stop
         offset="0.06316455"
         style="stop-color:#ffffff;stop-opacity:0.23529412"
         id="stop3928-3-5-9" />
      <stop
         offset="0.95056331"
         style="stop-color:#ffffff;stop-opacity:0.15686275"
         id="stop3930-2-1-9" />
      <stop
         offset="1"
         style="stop-color:#ffffff;stop-opacity:0.39215687"
         id="stop3932-62-5-8" />
    </linearGradient>
    <linearGradient
       id="linearGradient3600-4-3">
      <stop
         offset="0"
         style="stop-color:#f4f4f4;stop-opacity:1"
         id="stop3602-7-9" />
      <stop
         offset="1"
         style="stop-color:#dbdbdb;stop-opacity:1"
         id="stop3604-6-6" />
    </linearGradient>
    <linearGradient
       id="linearGradient3977-6">
      <stop
         offset="0"
         style="stop-color:#ffffff;stop-opacity:1"
         id="stop3979-5" />
      <stop
         offset="0.03626217"
         style="stop-color:#ffffff;stop-opacity:0.23529412"
         id="stop3981-9" />
      <stop
         offset="0.95056331"
         style="stop-color:#ffffff;stop-opacity:0.15686275"
         id="stop3983-2" />
      <stop
         offset="1"
         style="stop-color:#ffffff;stop-opacity:0.39215687"
         id="stop3985-4" />
    </linearGradient>
    <linearGradient
       id="linearGradient3977">
      <stop
         offset="0"
         style="stop-color:#ffffff;stop-opacity:1"
         id="stop3979" />
      <stop
         offset="0.03626217"
         style="stop-color:#ffffff;stop-opacity:0.23529412"
         id="stop3981" />
      <stop
         offset="0.95056331"
         style="stop-color:#ffffff;stop-opacity:0.15686275"
         id="stop3983" />
      <stop
         offset="1"
         style="stop-color:#ffffff;stop-opacity:0.39215687"
         id="stop3985" />
    </linearGradient>
    <linearGradient
       id="linearGradient3600-4">
      <stop
         offset="0"
         style="stop-color:#f4f4f4;stop-opacity:1"
         id="stop3602-7" />
      <stop
         offset="1"
         style="stop-color:#dbdbdb;stop-opacity:1"
         id="stop3604-6" />
    </linearGradient>
    <linearGradient
       id="linearGradient4251-1">
      <stop
         offset="0"
         style="stop-color:#000000;stop-opacity:1"
         id="stop4253-8" />
      <stop
         offset="1"
         style="stop-color:#000000;stop-opacity:0"
         id="stop4255-2" />
    </linearGradient>
    <linearGradient
       xlink:href="#linearGradient3702-501-757-3"
       id="linearGradient3471"
       gradientUnits="userSpaceOnUse"
       gradientTransform="matrix(0.84210526,0,0,0.42857134,-1.1257809,20.857146)"
       x1="25.058096"
       y1="47.027729"
       x2="25.058096"
       y2="39.999443" />
    <radialGradient
       xlink:href="#linearGradient3688-464-309-7"
       id="radialGradient3473"
       gradientUnits="userSpaceOnUse"
       gradientTransform="matrix(-1.687397,0,0,-0.59999988,15.72632,65.599994)"
       cx="4.9929786"
       cy="43.5"
       fx="4.9929786"
       fy="43.5"
       r="2.5" />
    <radialGradient
       xlink:href="#linearGradient3688-166-749-6"
       id="radialGradient3475"
       gradientUnits="userSpaceOnUse"
       gradientTransform="matrix(1.899529,0,0,0.59999988,36.206774,13.329547)"
       cx="3.0032907"
       cy="43.787853"
       fx="3.0032907"
       fy="43.787853"
       r="2.5" />
    <linearGradient
       xlink:href="#linearGradient4251-1"
       id="linearGradient3739"
       gradientUnits="userSpaceOnUse"
       gradientTransform="matrix(1.3,0,0,1.6666666,3.199998,-2.6666663)"
       x1="17"
       y1="14"
       x2="17"
       y2="10" />
    <linearGradient
       xlink:href="#linearGradient3977-6"
       id="linearGradient3743"
       gradientUnits="userSpaceOnUse"
       gradientTransform="matrix(0.62162161,0,0,1.042471,9.081084,1.7664208)"
       x1="23.99999"
       y1="5.5641499"
       x2="23.99999"
       y2="43" />
    <linearGradient
       xlink:href="#linearGradient3600-4-3"
       id="linearGradient3746"
       gradientUnits="userSpaceOnUse"
       gradientTransform="matrix(0.68571268,0,0,0.19108172,7.542894,6.5179604)"
       x1="25.132275"
       y1="0.98520643"
       x2="25.132275"
       y2="62.706093" />
    <linearGradient
       xlink:href="#linearGradient3924-0-9-4"
       id="linearGradient3749"
       gradientUnits="userSpaceOnUse"
       gradientTransform="matrix(0.99277432,0,0,0.10810811,0.173416,15.905407)"
       x1="23.99999"
       y1="10.124985"
       x2="23.99999"
       y2="37.874985" />
    <linearGradient
       xlink:href="#linearGradient3977"
       id="linearGradient3755"
       gradientUnits="userSpaceOnUse"
       gradientTransform="matrix(0.62162161,0,0,1.042471,9.081085,-0.80500837)"
       x1="23.99999"
       y1="5.5641499"
       x2="23.99999"
       y2="43" />
    <linearGradient
       xlink:href="#linearGradient3600-4"
       id="linearGradient3758"
       gradientUnits="userSpaceOnUse"
       gradientTransform="matrix(0.68571268,0,0,0.30867042,7.542894,29.015438)"
       x1="33.210621"
       y1="46.353771"
       x2="33.210621"
       y2="11.28877" />
    <linearGradient
       xlink:href="#linearGradient3512"
       id="linearGradient3764"
       gradientUnits="userSpaceOnUse"
       gradientTransform="matrix(0.99999999,0,0,0.43243241,0,20.12163)"
       x1="23.99999"
       y1="6.6562309"
       x2="23.99999"
       y2="41.343731" />
    <radialGradient
       xlink:href="#linearGradient2867-449-88-871-390-598-476-591-434-148-57-177-8-3-3-6-4-8-8-8-5-9-4-5"
       id="radialGradient3767"
       gradientUnits="userSpaceOnUse"
       gradientTransform="matrix(0,7.8046631,-11.214713,0,136.04426,-56.530174)"
       cx="7.1183534"
       cy="9.9571075"
       fx="7.1183534"
       fy="9.9571075"
       r="12.671875" />
    <radialGradient
       r="7.228416"
       fy="75.92881"
       fx="11.969189"
       cy="73.615715"
       cx="6.702713"
       gradientTransform="matrix(1.6601149,0,0,0.29397866,16.361504,18.108814)"
       gradientUnits="userSpaceOnUse"
       id="radialGradient4643"
       xlink:href="#linearGradient4251-1" />
    <linearGradient
       inkscape:collect="always"
       xlink:href="#linearGradient2366"
       id="linearGradient2368"
       x1="14.409911"
       y1="6.9256477"
       x2="14.465328"
       y2="5.4368081"
       gradientUnits="userSpaceOnUse"
       gradientTransform="matrix(0.94444444,0,0,1,36.920751,-5.9252259)" />
    <linearGradient
       inkscape:collect="always"
       id="linearGradient2366">
      <stop
         style="stop-color:#a3907c;stop-opacity:1"
         offset="0"
         id="stop2362" />
      <stop
         style="stop-color:#f9c440;stop-opacity:1"
         offset="1"
         id="stop2364" />
    </linearGradient>
    <linearGradient
       xlink:href="#linearGradient1864"
       id="linearGradient1866"
       x1="19.577271"
       y1="14.756647"
       x2="19.577271"
       y2="21.284676"
       gradientUnits="userSpaceOnUse"
       gradientTransform="rotate(3,-317.3991,323.55118)" />
    <linearGradient
       id="linearGradient1864">
      <stop
         style="stop-color:#f3f3f3;stop-opacity:1;"
         offset="0"
         id="stop1860" />
      <stop
         style="stop-color:#f3f3f3;stop-opacity:0;"
         offset="1"
         id="stop1862" />
    </linearGradient>
    <radialGradient
       cx="22.099527"
       cy="24.537743"
       r="8.3085051"
       fx="22.099527"
       fy="24.537743"
       id="radialGradient2514-5"
       xlink:href="#linearGradient4454-600-5"
       gradientUnits="userSpaceOnUse"
       gradientTransform="matrix(0.6014145,-0.02099128,0.02100185,0.60111186,13.52225,15.137142)" />
    <linearGradient
       id="linearGradient4454-600-5">
      <stop
         id="stop3408-3"
         style="stop-color:#ffffff;stop-opacity:0.57999998;"
         offset="0" />
      <stop
         id="stop3410-5"
         style="stop-color:#ffffff;stop-opacity:0.46000001;"
         offset="1" />
    </linearGradient>
    <radialGradient
       xlink:href="#linearGradient1785"
       id="radialGradient1787-3"
       cx="8.0722656"
       cy="5.9627013"
       fx="6"
       fy="3.3713689"
       r="4.5722656"
       gradientTransform="matrix(0.8743069,-0.03053147,0.02312484,0.66220882,16.423647,20.259485)"
       gradientUnits="userSpaceOnUse" />
    <linearGradient
       id="linearGradient1785">
      <stop
         style="stop-color:#ffffff;stop-opacity:1;"
         offset="0"
         id="stop1781" />
      <stop
         style="stop-color:#ffffff;stop-opacity:0.5264706"
         offset="1"
         id="stop1783" />
    </linearGradient>
    <linearGradient
       inkscape:collect="always"
       xlink:href="#linearGradient4011"
       id="linearGradient1014"
       gradientUnits="userSpaceOnUse"
       gradientTransform="matrix(0.35087001,0.0183883,-0.0183883,0.35087001,-0.226912,15.650606)"
       x1="67.908051"
       y1="6.6632748"
       x2="71.214508"
       y2="44.456295" />
    <linearGradient
       id="linearGradient4011">
      <stop
         offset="0"
         style="stop-color:#ffffff;stop-opacity:1"
         id="stop4013" />
      <stop
         offset="0.507761"
         style="stop-color:#ffffff;stop-opacity:0.23529412"
         id="stop4015-3" />
      <stop
         offset="0.83456558"
         style="stop-color:#ffffff;stop-opacity:0.15686275"
         id="stop4017-2" />
      <stop
         offset="1"
         style="stop-color:#ffffff;stop-opacity:0.39215687"
         id="stop4019" />
    </linearGradient>
  </defs>
  <path
     style="opacity:0.4;fill:url(#radialGradient3475);fill-opacity:1;stroke:none"
     d="m 41.874219,38 4.210526,0 0,2.999999 -4.210526,0 z"
     id="rect2801-0" />
  <path
     style="opacity:0.4;fill:url(#radialGradient3473);fill-opacity:1;stroke:none"
     d="m 7.2952717,40.999999 -4.2105263,0 0,-2.999999 4.2105263,0 z"
     id="rect3696-2" />
  <path
     style="opacity:0.4;fill:url(#linearGradient3471);fill-opacity:1;stroke:none"
     d="m 7.2952717,38 34.5721453,0 0,2.999999 -34.5721453,0 z"
     id="rect3700-1" />
  <path
     d="m 7.210907,15.5 c 12.096344,0 21.504609,0 33.600952,0 1.743341,0 2.688076,4.428543 2.688076,6.660257 0,5.565649 0,10.419455 0,15.985104 0.01388,1.284323 -1.389269,1.423756 -2.369187,1.332051 -11.754627,0 -23.509253,0 -35.263879,0 -1.295881,0.01376 -1.43657,-1.376878 -1.344038,-2.348055 l 0,-14.9691 c 0,0 0.637953,-6.660257 2.688076,-6.660257 z"
     id="rect5505-21-9"
     style="opacity:0.9;color:#000000;fill:url(#radialGradient3767);fill-opacity:1;fill-rule:nonzero;stroke:none;stroke-width:0.99999994;marker:none;visibility:visible;display:inline;overflow:visible;enable-background:accumulate" />
  <rect
     width="37"
     height="16"
     x="5.4999981"
     y="22.500004"
     id="rect6741-7-4-4"
     style="opacity:0.25;fill:none;stroke:url(#linearGradient3764);stroke-width:1;stroke-linecap:round;stroke-linejoin:round;stroke-miterlimit:4;stroke-opacity:1;stroke-dasharray:none;stroke-dashoffset:0" />
  <path
     d="m 7.210906,15.499999 c 0,0 21.504609,0 33.600952,0 1.947903,0 2.688075,6.660527 2.688075,6.660527 0,0 0,10.259812 0,15.984746 0.01102,1.306008 -1.42111,1.419954 -2.410157,1.332105 -11.74097,0 -23.48194,0 -35.22291,0 -1.317707,0.01092 -1.432675,-1.408495 -1.344038,-2.38876 l 0,-14.928091 c 0,0 0.708193,-6.660527 2.688078,-6.660527 z"
     id="rect5505-6-9"
     style="opacity:0.7;color:#000000;fill:none;stroke:#000000;stroke-width:1;stroke-linecap:round;stroke-linejoin:round;stroke-miterlimit:4;stroke-opacity:1;stroke-dasharray:none;stroke-dashoffset:0;marker:none;visibility:visible;display:inline;overflow:visible;enable-background:accumulate" />
  <rect
     width="38"
     height="1"
     rx="0"
     ry="0"
     x="4.9999981"
     y="-22"
     transform="scale(1,-1)"
     id="rect3957-0"
     style="opacity:0.4;color:#000000;fill:#000000;fill-opacity:1;fill-rule:nonzero;stroke:none;stroke-width:1;marker:none;visibility:visible;display:inline;overflow:visible;enable-background:accumulate" />
  <path
     d="m 12,32.5 c 5.499618,0 23.99997,9.06e-4 23.99997,9.06e-4 L 36,44 c 0,0 -16.000001,0 -24,0 0,-4.735294 0,-6.764705 0,-11.5 z"
     id="path4160-3"
     style="fill:url(#linearGradient3758);fill-opacity:1;stroke:none;display:inline" />
  <path
     d="m 35.5,43.5 -23,0 0,-10 23,0 z"
     id="rect6741-1"
     style="fill:none;stroke:url(#linearGradient3755);stroke-width:0.99999994;stroke-linecap:round;stroke-linejoin:round;stroke-miterlimit:4;stroke-opacity:1;stroke-dasharray:none;stroke-dashoffset:0" />
  <path
     d="m 11.499961,32.499961 c 5.728787,0 25.000048,7.63e-4 25.000048,7.63e-4 l 3e-5,11.999315 c 0,0 -16.666717,0 -25.000078,0 0,-4.000026 0,-8.000052 0,-12.000077 z"
     id="path4160-3-4"
     style="opacity:0.3;fill:none;stroke:#000000;stroke-width:0.99992174;stroke-linecap:butt;stroke-linejoin:round;stroke-miterlimit:4;stroke-opacity:1;stroke-dasharray:none;stroke-dashoffset:0;display:inline" />
  <rect
     width="26"
     height="1"
     x="10.999998"
     y="32"
     id="rect4124-5-6"
     style="opacity:0.15;color:#000000;fill:#000000;fill-opacity:1;fill-rule:nonzero;stroke:none;stroke-width:1;marker:none;visibility:visible;display:inline;overflow:visible;enable-background:accumulate" />
  <path
     d="m 7.674381,16.5 32.651243,0 c 1.137104,0 2.040702,4 2.040702,4 -12.244217,0 -36.73265,0 -36.73265,0 0,0 0.788956,-4 2.040705,-4 z"
     id="rect6741-7-4-2-7"
     style="opacity:0.1;fill:none;stroke:url(#linearGradient3749);stroke-width:1;stroke-linecap:round;stroke-linejoin:round;stroke-miterlimit:4;stroke-opacity:1;stroke-dasharray:none;stroke-dashoffset:0" />
  <path
     d="m 12,7.0000001 c 5.499618,0 23.99997,5.61e-4 23.99997,5.61e-4 L 36,18.5 c 0,0 -16.000001,0 -24,0 0,-2.931373 0,-8.5686269 0,-11.4999999 z"
     id="path4160-3-8"
     style="fill:url(#linearGradient3746);fill-opacity:1;stroke:none;display:inline" />
  <path
     d="m 35.499999,17.5 -23,0 0,-9.9999999 23,0 z"
     id="rect6741-1-8"
     style="fill:none;stroke:url(#linearGradient3743);stroke-width:0.99999994;stroke-linecap:round;stroke-linejoin:round;stroke-miterlimit:4;stroke-opacity:1;stroke-dasharray:none;stroke-dashoffset:0" />
  <path
     d="m 11.499961,6.4999402 25.000048,0.0026 3e-5,11.9974988 -25.000078,0 z"
     id="path4160-3-4-7"
     style="opacity:0.3;fill:none;stroke:#000000;stroke-width:0.99992174;stroke-linecap:butt;stroke-linejoin:round;stroke-miterlimit:4;stroke-opacity:1;stroke-dasharray:none;stroke-dashoffset:0;display:inline" />
  <rect
     width="26"
     height="5"
     x="10.999998"
     y="14"
     id="rect4249-5"
     style="opacity:0.3;color:#000000;fill:url(#linearGradient3739);fill-opacity:1;fill-rule:nonzero;stroke:none;stroke-width:1;marker:none;visibility:visible;display:inline;overflow:visible;enable-background:accumulate" />
  <path
     style="opacity:0.1;fill:#000000;fill-opacity:1;stroke:none"
     d="m 16,36 0,1 16,0 0,-1 -16,0 z m 0,2 0,1 9,0 0,-1 -9,0 z m 11,0 0,1 3,0 0,-1 -3,0 z m -11,2 0,1 4,0 0,-1 -4,0 z m 5,0 0,1 10,0 0,-1 -10,0 z"
     id="rect4731" />
  <path
     style="color:#000000;fill:#0cceff;fill-opacity:1;fill-rule:nonzero;stroke:none;stroke-width:1;marker:none;visibility:visible;display:inline;overflow:visible;enable-background:accumulate"
     d="m 39,25 2,0 0,2 -2,0 z"
     id="rect3991" />
  <g
     id="g872"
     transform="translate(4.511223,4.1247371)">
    <path
       d="m 39.488777,39.750263 c 0,1.173606 -5.372583,2.125 -12,2.125 -6.627418,0 -12,-0.951394 -12,-2.125 0,-1.173606 5.372582,-2.125 12,-2.125 6.627417,0 12,0.951394 12,2.125 z"
       id="path10689"
       style="display:inline;overflow:visible;visibility:visible;opacity:0.15;fill:url(#radialGradient4643);fill-opacity:1;fill-rule:nonzero;stroke:none;stroke-width:0.799999;marker:none" />
    <path
       id="rect1068"
       style="fill:#8cd5ff;fill-opacity:1;stroke:none;stroke-width:0;stroke-linecap:round;stroke-linejoin:round;stroke-dasharray:none;stroke-opacity:0.5;paint-order:fill markers stroke;stop-color:#000000"
       d="m 19.461937,20.293317 c -3.069398,2.763698 -3.318805,7.522667 -0.555106,10.592065 2.536711,2.817304 6.753953,3.25705 9.803181,1.173438 l 3.056831,3.394952 1.486288,-1.33826 -3.056828,-3.394953 c 2.390928,-2.814725 2.394414,-7.054832 -0.142296,-9.872135 -2.7637,-3.069399 -7.52267,-3.318806 -10.59207,-0.555107 z m 1.33826,1.48629 c 2.26615,-2.04045 5.727067,-1.859071 7.767517,0.407078 2.040452,2.26615 1.859072,5.727064 -0.407073,7.767514 -2.266154,2.04045 -5.727069,1.859073 -7.76752,-0.40708 -2.040451,-2.266146 -1.859072,-5.727063 0.407078,-7.767513 z" />
    <path
       id="path1286"
       style="fill:none;fill-opacity:1;stroke:#002e99;stroke-width:1;stroke-linecap:round;stroke-linejoin:round;stroke-dasharray:none;stroke-opacity:0.5;paint-order:fill markers stroke;stop-color:#000000"
       d="m 19.461937,20.293317 c -3.069398,2.763698 -3.318805,7.522667 -0.555106,10.592065 2.536711,2.817304 6.753953,3.25705 9.803181,1.173438 l 3.056831,3.394952 1.486288,-1.33826 -3.056828,-3.394953 c 2.390928,-2.814725 2.394414,-7.054832 -0.142296,-9.872135 -2.7637,-3.069399 -7.52267,-3.318806 -10.59207,-0.555107 z m 1.33826,1.48629 c 2.26615,-2.04045 5.727067,-1.859071 7.767517,0.407078 2.040452,2.26615 1.859072,5.727064 -0.407073,7.767514 -2.266154,2.04045 -5.727069,1.859073 -7.76752,-0.40708 -2.040451,-2.266146 -1.859072,-5.727063 0.407078,-7.767513 z" />
    <rect
       style="font-variation-settings:normal;vector-effect:none;fill:url(#linearGradient2368);fill-opacity:1;stroke:none;stroke-width:1;stroke-linecap:butt;stroke-linejoin:round;stroke-miterlimit:4;stroke-dasharray:none;stroke-dashoffset:0;stroke-opacity:1;-inkscape-stroke:none;marker:none;paint-order:fill markers stroke;stop-color:#000000"
       id="rect1789"
       width="8.5"
       height="3"
       x="45.353451"
       y="-2.3841586"
       rx="0.5"
       ry="0.49999997"
       transform="rotate(48)" />
    <path
       style="opacity:0.5;fill:none;stroke:url(#linearGradient1866);stroke-width:1px;stroke-linecap:butt;stroke-linejoin:miter;stroke-opacity:1"
       d="m 30.930409,34.524817 1.114736,-1.003672 4.683912,5.202013"
       id="path1852"
       sodipodi:nodetypes="ccc" />
    <rect
       transform="rotate(48)"
       ry="0.49999997"
       rx="0.5"
       y="-2.3841586"
       x="45.353451"
       height="3"
       width="8.5"
       id="rect874"
       style="font-variation-settings:normal;vector-effect:none;fill:none;fill-opacity:1;stroke:#a76900;stroke-width:1px;stroke-linecap:butt;stroke-linejoin:round;stroke-miterlimit:4;stroke-dasharray:none;stroke-dashoffset:0;stroke-opacity:0.5;-inkscape-stroke:none;marker:none;stop-color:#000000" />
    <path
       style="display:inline;visibility:visible;opacity:0.8;fill:url(#radialGradient2514-5);fill-opacity:1;fill-rule:evenodd;stroke:none;stroke-width:0.61258;marker:none"
       id="path4452-62"
       d="m 29.485633,25.701033 a 4.999902,4.997386 0 1 1 -9.993711,0.348813 4.999902,4.997386 0 1 1 9.993711,-0.348813 z" />
    <path
       style="display:inline;visibility:visible;opacity:0.15;fill:url(#radialGradient1787-3);fill-opacity:1;fill-rule:evenodd;stroke:none;stroke-width:0.61258;marker:none"
       d="m 24.464659,20.90261 a 4.810543,4.8116191 88 0 0 -4.78085,4.979793 4.810543,4.8116191 88 0 0 0.212586,1.240667 10.49573,10.498078 88 0 0 7.656837,-5.119549 4.810543,4.8116191 88 0 0 -3.088573,-1.100911 z"
       id="path4452-6" />
    <path
       d="m 30.967061,26.206707 c -0.187882,3.585055 -3.246572,6.339011 -6.83121,6.15115 -3.584964,-0.187882 -6.338859,-3.246499 -6.150976,-6.831517 0.187876,-3.584882 3.246379,-6.338555 6.831344,-6.150676 3.584635,0.187864 6.338716,3.246162 6.150842,6.831043 z"
       id="path1012"
       style="color:#000000;display:inline;overflow:visible;visibility:visible;opacity:0.5;fill:none;stroke:url(#linearGradient1014);stroke-width:1;stroke-linecap:round;stroke-linejoin:round;stroke-miterlimit:4;stroke-dasharray:none;stroke-dashoffset:0;stroke-opacity:1;marker:none;enable-background:accumulate" />
  </g>
</svg>
