<svg xmlns="http://www.w3.org/2000/svg" xmlns:xlink="http://www.w3.org/1999/xlink" viewBox="0 0 48 48"><defs><linearGradient x1="38.941" y1="15.991" x2="20.576" y2="15.991" id="f" xlink:href="#a" gradientUnits="userSpaceOnUse" gradientTransform="matrix(0 -1.1363 -1.22082 0 47.815 53.704)"/><linearGradient id="a"><stop offset="0" stop-color="#fff"/><stop offset=".512" stop-color="#fff" stop-opacity=".235"/><stop offset=".585" stop-color="#fff" stop-opacity=".157"/><stop offset="1" stop-color="#fff" stop-opacity=".392"/></linearGradient><linearGradient x1="23.732" y1="4.418" x2="23.732" y2="39.454" id="e" xlink:href="#b" gradientUnits="userSpaceOnUse" gradientTransform="matrix(-1.04172 0 0 .9696 49.672 1.247)"/><radialGradient cx="24.837" cy="36.421" r="15.645" fx="24.837" fy="36.421" id="d" xlink:href="#c" gradientUnits="userSpaceOnUse" gradientTransform="matrix(1 0 0 .53672 0 16.873)"/><linearGradient id="c"><stop offset="0"/><stop offset="1" stop-opacity="0"/></linearGradient><linearGradient id="b"><stop offset="0" stop-color="#cdf87e"/><stop offset=".262" stop-color="#a2e34f"/><stop offset=".661" stop-color="#68b723"/><stop offset="1" stop-color="#1d7e0d"/></linearGradient></defs><path transform="matrix(1.0599 0 0 -1.31568 1.975 81.87)" d="M40.482 36.42a15.645 8.397 0 1 1-31.29 0 15.645 8.397 0 1 1 31.29 0z" overflow="visible" opacity=".141" fill="url(#d)" fill-rule="evenodd"/><path d="M33.725 38.76c13.227-8.928 5.518-25.327-9.225-25.192v-8.36l-18 13.685 18 13.687v-8.343c9.51-.37 14.695 8.294 7.897 14.524z" display="block" overflow="visible" fill="url(#e)"/><path d="M35.246 36.573c9.686-8.518 2.008-22.93-11.664-22L23.5 7.176 8.05 18.87 23.5 30.605v-7.267c14.184-.324 14.003 10.793 11.746 13.235z" display="block" overflow="visible" opacity=".7" fill="none" stroke="url(#f)" stroke-width=".964" stroke-miterlimit="7"/><path style="isolation:auto;mix-blend-mode:normal" d="M33.725 38.76c13.227-8.928 5.518-25.327-9.225-25.192v-8.36l-18 13.685 18 13.687v-8.343c9.51-.37 14.695 8.294 7.897 14.524z" color="#000" overflow="visible" opacity=".5" fill="none" stroke="#0f5a00" stroke-linecap="round"/></svg>