<?xml version="1.0" encoding="UTF-8" standalone="no"?>
<svg
   xmlns:dc="http://purl.org/dc/elements/1.1/"
   xmlns:cc="http://creativecommons.org/ns#"
   xmlns:rdf="http://www.w3.org/1999/02/22-rdf-syntax-ns#"
   xmlns:svg="http://www.w3.org/2000/svg"
   xmlns="http://www.w3.org/2000/svg"
   xmlns:xlink="http://www.w3.org/1999/xlink"
   id="svg18157"
   height="48"
   width="48"
   version="1.1">
  <defs
     id="defs18159">
    <linearGradient
       gradientTransform="matrix(0.89189031,0,0,1.0986542,3.142773,3.887208)"
       gradientUnits="userSpaceOnUse"
       xlink:href="#linearGradient3454-2-5-0-3"
       id="linearGradient12489"
       y2="35.581654"
       x2="42.470848"
       y1="11.952797"
       x1="42.470848" />
    <linearGradient
       id="linearGradient3454-2-5-0-3">
      <stop
         offset="0"
         style="stop-color:#ffffff;stop-opacity:1"
         id="stop3456-4-9-38-1" />
      <stop
         offset="0.0097359"
         style="stop-color:#ffffff;stop-opacity:0.23529412"
         id="stop3458-39-80-3-5" />
      <stop
         offset="0.99001008"
         style="stop-color:#ffffff;stop-opacity:0.15686275"
         id="stop3460-7-0-2-4" />
      <stop
         offset="1"
         style="stop-color:#ffffff;stop-opacity:0.39215687"
         id="stop3462-0-9-8-7" />
    </linearGradient>
    <linearGradient
       gradientTransform="matrix(1.1446925,0,0,0.9977536,-3.4661379,1.0988397)"
       gradientUnits="userSpaceOnUse"
       xlink:href="#linearGradient6129-963-697-142-998-580-273-44-2-2"
       id="linearGradient12487"
       y2="36.657963"
       x2="22.809399"
       y1="49.629246"
       x1="22.934725" />
    <linearGradient
       id="linearGradient6129-963-697-142-998-580-273-44-2-2">
      <stop
         offset="0"
         style="stop-color:#0a0a0a;stop-opacity:0.498"
         id="stop2661-01-6-2" />
      <stop
         offset="1"
         style="stop-color:#0a0a0a;stop-opacity:0"
         id="stop2663-64-5-5" />
    </linearGradient>
    <linearGradient
       gradientTransform="matrix(1,0,0,1.0357143,2.0849371e-6,-1.5890903)"
       gradientUnits="userSpaceOnUse"
       xlink:href="#linearGradient4632-0-6-4"
       id="linearGradient12481"
       y2="43.761127"
       x2="35.792694"
       y1="17.118193"
       x1="35.792694" />
    <linearGradient
       id="linearGradient4632-0-6-4">
      <stop
         offset="0"
         style="stop-color:#b4cee1;stop-opacity:1"
         id="stop4634-4-4-7" />
      <stop
         offset="1"
         style="stop-color:#5d9fcd;stop-opacity:1"
         id="stop4636-3-1-5" />
    </linearGradient>
    <radialGradient
       gradientTransform="matrix(-0.03079083,0,0,0.02470588,23.389752,31.94164)"
       gradientUnits="userSpaceOnUse"
       xlink:href="#linearGradient5060-820-91-9-0"
       id="radialGradient12475"
       fy="486.64789"
       fx="605.71429"
       r="117.14286"
       cy="486.64789"
       cx="605.71429" />
    <linearGradient
       id="linearGradient5060-820-91-9-0">
      <stop
         offset="0"
         style="stop-color:#000000;stop-opacity:1"
         id="stop2681-778-5-1" />
      <stop
         offset="1"
         style="stop-color:#000000;stop-opacity:0"
         id="stop2683-2-86-2" />
    </linearGradient>
    <radialGradient
       gradientTransform="matrix(0.03079083,0,0,0.02470588,24.610252,31.94164)"
       gradientUnits="userSpaceOnUse"
       xlink:href="#linearGradient5060-179-37-4-0"
       id="radialGradient12471"
       fy="486.64789"
       fx="605.71429"
       r="117.14286"
       cy="486.64789"
       cx="605.71429" />
    <linearGradient
       id="linearGradient5060-179-37-4-0">
      <stop
         offset="0"
         style="stop-color:#000000;stop-opacity:1"
         id="stop2675-91-9-2" />
      <stop
         offset="1"
         style="stop-color:#000000;stop-opacity:0"
         id="stop2677-09-0-9" />
    </linearGradient>
    <linearGradient
       gradientTransform="matrix(0.07938856,0,0,0.02470588,-4.6932879,31.94164)"
       gradientUnits="userSpaceOnUse"
       xlink:href="#linearGradient5048-585-73-1-5"
       id="linearGradient12467"
       y2="609.50507"
       x2="302.85715"
       y1="366.64789"
       x1="302.85715" />
    <linearGradient
       id="linearGradient5048-585-73-1-5">
      <stop
         offset="0"
         style="stop-color:#000000;stop-opacity:0"
         id="stop2667-99-4-6" />
      <stop
         offset="0.5"
         style="stop-color:#000000;stop-opacity:1"
         id="stop2669-5-9-4" />
      <stop
         offset="1"
         style="stop-color:#000000;stop-opacity:0"
         id="stop2671-56-4-2" />
    </linearGradient>
    <linearGradient
       gradientTransform="matrix(0.89189031,0,0,1.0580283,3.1206621,5.3535997)"
       gradientUnits="userSpaceOnUse"
       xlink:href="#linearGradient4507-0-4-7"
       id="linearGradient12463"
       y2="34.143417"
       x2="21.37039"
       y1="4.2476678"
       x1="21.37039" />
    <linearGradient
       id="linearGradient4507-0-4-7">
      <stop
         offset="0"
         style="stop-color:#ffffff;stop-opacity:1"
         id="stop4509-35-6-1" />
      <stop
         offset="0.07395859"
         style="stop-color:#ffffff;stop-opacity:0.23529412"
         id="stop4511-46-3-8" />
      <stop
         offset="0.99001008"
         style="stop-color:#ffffff;stop-opacity:0.15686275"
         id="stop4513-15-5-9" />
      <stop
         offset="1"
         style="stop-color:#ffffff;stop-opacity:0.39215687"
         id="stop4515-1-1-8" />
    </linearGradient>
    <linearGradient
       gradientTransform="translate(-50.940897,-3.1315613e-7)"
       gradientUnits="userSpaceOnUse"
       xlink:href="#linearGradient4646-7-4-3"
       id="linearGradient12459"
       y2="16"
       x2="62.988873"
       y1="13"
       x1="62.988873" />
    <linearGradient
       id="linearGradient4646-7-4-3">
      <stop
         offset="0"
         style="stop-color:#f9f9f9;stop-opacity:1"
         id="stop4648-8-0-3" />
      <stop
         offset="1"
         style="stop-color:#d8d8d8;stop-opacity:1"
         id="stop4650-1-7-3" />
    </linearGradient>
    <linearGradient
       id="linearGradient3104-8-8-97-4-6-11-5-5">
      <stop
         offset="0"
         style="stop-color:#000000;stop-opacity:0.32173914"
         id="stop3106-5-4-3-5-0-2-1-0" />
      <stop
         offset="1"
         style="stop-color:#000000;stop-opacity:0.27826086"
         id="stop3108-4-3-7-8-2-0-7-9" />
    </linearGradient>
    <linearGradient
       gradientTransform="matrix(0.80749834,0,0,0.83374395,106.87672,-0.06984031)"
       gradientUnits="userSpaceOnUse"
       xlink:href="#linearGradient3104-8-8-97-4-6-11-5-5"
       id="linearGradient18155"
       y2="3.6336823"
       x2="-51.786404"
       y1="53.514328"
       x1="-51.786404" />
    <radialGradient
       gradientTransform="matrix(0,0.95936489,-1.0436697,0,87.757589,-35.865792)"
       gradientUnits="userSpaceOnUse"
       xlink:href="#linearGradient3242-7-3-8-0-4-58-06"
       id="radialGradient3343"
       fy="48.744953"
       fx="65.59787"
       r="31.000002"
       cy="48.744953"
       cx="65.59787" />
    <linearGradient
       id="linearGradient3242-7-3-8-0-4-58-06">
      <stop
         id="stop3244-5-8-5-6-4-3-8"
         style="stop-color:#cdf87e;stop-opacity:1"
         offset="0" />
      <stop
         id="stop3246-9-5-1-5-3-0-7"
         style="stop-color:#a2e34f;stop-opacity:1"
         offset="0.26238" />
      <stop
         id="stop3248-7-2-0-7-5-35-9"
         style="stop-color:#68b723;stop-opacity:1"
         offset="0.66093999" />
      <stop
         id="stop3250-8-2-8-5-6-40-4"
         style="stop-color:#1d7e0d;stop-opacity:1"
         offset="1" />
    </linearGradient>
    <linearGradient
       gradientTransform="matrix(0.70448868,0,0,0.59520312,21.241407,23.219131)"
       gradientUnits="userSpaceOnUse"
       xlink:href="#linearGradient4154"
       id="linearGradient3030-10"
       y2="36.594009"
       x2="24.138529"
       y1="9.712431"
       x1="24.138529" />
    <linearGradient
       id="linearGradient4154">
      <stop
         offset="0"
         style="stop-color:#ffffff;stop-opacity:1"
         id="stop4156" />
      <stop
         offset="0"
         style="stop-color:#ffffff;stop-opacity:0.23529412"
         id="stop4158" />
      <stop
         offset="1"
         style="stop-color:#ffffff;stop-opacity:0.15686275"
         id="stop4160" />
      <stop
         offset="1"
         style="stop-color:#ffffff;stop-opacity:0.39215687"
         id="stop4162" />
    </linearGradient>
    <linearGradient
       gradientTransform="matrix(0.60015241,0,0,0.69748032,23.556108,20.861165)"
       gradientUnits="userSpaceOnUse"
       xlink:href="#linearGradient4154"
       id="linearGradient3030-1"
       y2="26.006231"
       x2="24.138529"
       y1="20.271303"
       x1="24.138529" />
  </defs>
  <metadata
     id="metadata18162">
    <rdf:RDF>
      <cc:Work
         rdf:about="">
        <dc:format>image/svg+xml</dc:format>
        <dc:type
           rdf:resource="http://purl.org/dc/dcmitype/StillImage" />
        <dc:title></dc:title>
      </cc:Work>
    </rdf:RDF>
  </metadata>
  <path
     d="m 5.5000021,8.4999997 c -0.554,0 -1,0.446 -1,1 l 0,2.0000003 -1,0 c -0.554,0 -1,0.446 -1,1 l 0,6 c 0,0.554 0.446,1 1,1 l 40.9999999,0 c 0.554,0 1,-0.446 1,-1 l 0,-6 c 0,-0.554 -0.446,-1 -1,-1 l -23,0 0,-2.0000003 c 0,-0.554 -0.446,-1 -1,-1 l -14.9999999,0 z"
     id="rect4251-0-0-61"
     style="color:#000000;display:inline;overflow:visible;visibility:visible;opacity:0.8;fill:none;stroke:url(#linearGradient18155);stroke-width:1;stroke-linecap:butt;stroke-linejoin:miter;stroke-miterlimit:4;stroke-dasharray:none;stroke-dashoffset:0;stroke-opacity:1;marker:none;enable-background:accumulate" />
  <path
     d="m 5.5000021,8.9999997 c -0.277,0 -0.5,0.223 -0.5,0.5 l 0,2.5000003 -1.5,0 c -0.277,0 -0.5,0.223 -0.5,0.5 l 0,6 c 0,0.277 0.223,0.5 0.5,0.5 l 40.9999999,0 c 0.277,0 0.5,-0.223 0.5,-0.5 l 0,-6 c 0,-0.277 -0.223,-0.5 -0.5,-0.5 l -23.5,0 0,-2.5000003 c 0,-0.277 -0.223,-0.5 -0.5,-0.5 l -14.9999999,0 z"
     id="rect4251-3-2"
     style="color:#000000;display:inline;overflow:visible;visibility:visible;fill:url(#linearGradient12459);fill-opacity:1;fill-rule:nonzero;stroke:none;stroke-width:0.99992168;marker:none;enable-background:accumulate" />
  <path
     d="m 5.5000021,9.4999997 0,3.0000003 -2,0 0,7 40.9999999,0 0,-7 -24,0 0,-3.0000003 -14.9999999,0 z"
     id="rect4251-9-21-7"
     style="color:#000000;display:inline;overflow:visible;visibility:visible;fill:none;stroke:url(#linearGradient12463);stroke-width:1;stroke-linecap:round;stroke-linejoin:round;stroke-miterlimit:4;stroke-dasharray:none;stroke-dashoffset:0;stroke-opacity:1;marker:none;enable-background:accumulate" />
  <rect
     width="38.333332"
     height="6.0000005"
     x="4.8333426"
     y="41"
     id="rect4173-8-8"
     style="display:inline;overflow:visible;visibility:visible;opacity:0.3;fill:url(#linearGradient12467);fill-opacity:1;fill-rule:nonzero;stroke:none;stroke-width:1;marker:none" />
  <path
     d="m 43.166672,41.00021 c 0,0 0,5.99967 0,5.99967 1.58565,0.0113 3.83333,-1.34422 3.83333,-3.00022 0,-1.656 -1.76947,-2.99945 -3.83333,-2.99945 z"
     id="path5058-9-0"
     style="display:inline;overflow:visible;visibility:visible;opacity:0.3;fill:url(#radialGradient12471);fill-opacity:1;fill-rule:nonzero;stroke:none;stroke-width:1;marker:none" />
  <path
     d="m 4.8333321,41.00021 c 0,0 0,5.99967 0,5.99967 -1.58565,0.0113 -3.83333,-1.34422 -3.83333,-3.00022 0,-1.656 1.76947,-2.99945 3.83333,-2.99945 z"
     id="path5018-6-6"
     style="display:inline;overflow:visible;visibility:visible;opacity:0.3;fill:url(#radialGradient12475);fill-opacity:1;fill-rule:nonzero;stroke:none;stroke-width:1;marker:none" />
  <path
     d="m 2.1626121,15.50019 c -1.07231,0.12829 -0.49959,1.45416 -0.58508,2.19974 0.12444,0.48182 0.92748,26.17643 0.92748,26.17643 0,0.7414 0.35172,0.61579 1.24292,0.61579 13.1885599,0 27.7725299,0 40.9610899,0 0.96008,0.0231 0.75718,0.0121 0.75718,-0.62748 0,0 0.99298,-27.35421 1.0285,-27.7811 0,-0.44949 0.0902,-0.58338 -0.47316,-0.58338 -14.08405,0 -29.77488,0 -43.8589299,0 z"
     id="path3388-7-1"
     style="fill:url(#linearGradient12481);fill-opacity:1;stroke:none" />
  <path
     d="m 2.0582421,16.06515 43.8964799,4e-4 c 0.63416,0 1.04515,0.44461 1.04515,0.99737 l -1.03241,26.96037 c 0.0147,0.6994 -0.20909,0.97671 -0.9459,0.96204 L 3.2408421,44.96773 c -0.63416,0 -1.27363,-0.41277 -1.27363,-0.96552 L 1.0130921,17.0629 c 0,-0.55276 0.41099,-0.99775 1.04515,-0.99775 z"
     id="path6127-1-4"
     style="opacity:0.4;fill:url(#linearGradient12487);fill-opacity:1;stroke:none" />
  <path
     d="m 2.5221121,16.499999 c 0.016793,0.183202 0.022163,0.537823 0.03125,0.908598 0.023112,0.08973 0.025524,0.06151 0.03125,0.09735 0.011058,0.06921 0.027034,0.143566 0.03125,0.1947 0.0064,0.07761 -0.00668,0.179686 0,0.292049 0.013352,0.224726 0.045306,0.530459 0.0625,0.908598 0.034388,0.756279 0.078083,1.7745 0.125,3.017843 0.093834,2.486687 0.2030642,5.769016 0.3125,9.02108 0.2122959,6.308724 0.3945663,12.188203 0.40625,12.558123 0.1225025,0.0037 0.071108,0 0.25,0 l 40.7187499,0 c 0.0124,-0.341463 0.253182,-6.673493 0.5,-13.401821 0.126691,-3.453636 0.245386,-6.941969 0.34375,-9.572728 0.04918,-1.31538 0.09434,-2.421026 0.125,-3.212543 0.01322,-0.341237 0.02246,-0.594976 0.03125,-0.811249 l -42.9687499,0 z"
     id="path4587-3-5"
     style="color:#000000;display:inline;overflow:visible;visibility:visible;opacity:0.5;fill:none;stroke:url(#linearGradient12489);stroke-width:1.00000012;stroke-linecap:round;stroke-linejoin:miter;stroke-miterlimit:4;stroke-dasharray:none;stroke-dashoffset:0;stroke-opacity:1;marker:none;enable-background:accumulate" />
  <path
     d="m 2.1626121,15.50019 c -1.07231,0.12829 -0.49959,1.45416 -0.58508,2.19974 0.12444,0.48182 0.92748,26.17643 0.92748,26.17643 0,0.7414 0.35172,0.61579 1.24292,0.61579 13.1885599,0 27.7725299,0 40.9610899,0 0.96008,0.0231 0.75718,0.0121 0.75718,-0.62748 0,0 0.99298,-27.35421 1.0285,-27.7811 0,-0.44949 0.0902,-0.58338 -0.47316,-0.58338 -14.08405,0 -29.77488,0 -43.8589299,0 z"
     id="path3388-7-1-7"
     style="opacity:0.3;fill:none;stroke:#000000;stroke-width:1;stroke-linecap:round;stroke-linejoin:round;stroke-miterlimit:4;stroke-dashoffset:0;stroke-opacity:1" />
  <g
     id="g4429">
    <path
       d="m 33.500001,33.5 0,-6.02737 7,0 0,6.02737 6.007286,0 0,7 -6.007286,0 0,6.007286 -7,0 0,-6.007286 -6.007287,0 0,-7 6.007287,0 z"
       id="path2262"
       style="color:#000000;display:inline;overflow:visible;visibility:visible;fill:url(#radialGradient3343);fill-opacity:1;fill-rule:nonzero;stroke:none;stroke-width:0.98542732;stroke-linecap:round;stroke-linejoin:round;stroke-miterlimit:4;stroke-dasharray:none;stroke-dashoffset:0;stroke-opacity:1;marker:none;enable-background:accumulate" />
    <path
       style="display:inline;opacity:0.5;fill:none;stroke:url(#linearGradient3030-10);stroke-width:1;stroke-linecap:butt;stroke-linejoin:miter;stroke-miterlimit:4;stroke-dasharray:none;stroke-opacity:1"
       id="path2272-4"
       d="m 34.500001,35.459225 0,-6.959225 5,0 0,6.949866 m 0,3.095588 0,6.954546 -5,0 0,-6.954546" />
    <path
       style="display:inline;opacity:0.5;fill:none;stroke:url(#linearGradient3030-1);stroke-width:1;stroke-linecap:butt;stroke-linejoin:miter;stroke-miterlimit:4;stroke-dasharray:none;stroke-opacity:1"
       id="path2272-2"
       d="m 40,34.519929 5.499798,-0.01811 0,4.980302 L 40,39.500231 m -6,0 -5.500203,-0.01811 0,-4.980302 L 34,34.519929" />
    <path
       d="m 33.500001,33.5 0,-6.02737 7,0 0,6.02737 6.007286,0 0,7 -6.007286,0 0,6.007286 -7,0 0,-6.007286 -6.007287,0 0,-7 6.007287,0 z"
       id="path2262-2"
       style="color:#000000;clip-rule:nonzero;display:inline;overflow:visible;visibility:visible;opacity:0.5;isolation:auto;mix-blend-mode:normal;color-interpolation:sRGB;color-interpolation-filters:linearRGB;solid-color:#000000;solid-opacity:1;fill:none;fill-opacity:1;fill-rule:nonzero;stroke:#0f5a00;stroke-width:1;stroke-linecap:round;stroke-linejoin:round;stroke-miterlimit:4;stroke-dasharray:none;stroke-dashoffset:0;stroke-opacity:1;marker:none;color-rendering:auto;image-rendering:auto;shape-rendering:auto;text-rendering:auto;enable-background:accumulate" />
  </g>
</svg>
