<svg xmlns="http://www.w3.org/2000/svg" xmlns:xlink="http://www.w3.org/1999/xlink" viewBox="0 0 48 48"><defs><linearGradient id="a"><stop offset="0"/><stop offset="1" stop-opacity="0"/></linearGradient><radialGradient cx="11.25" cy="19.031" r="8.063" fx="11.25" fy="19.031" id="d" xlink:href="#a" gradientUnits="userSpaceOnUse" gradientTransform="matrix(1 0 0 .28295 0 13.646)"/><linearGradient id="b"><stop offset="0" stop-color="#729fcf"/><stop offset="1" stop-color="#3465a4"/></linearGradient><linearGradient x1="25" y1="9" x2="25" y2="37" id="e" xlink:href="#b" gradientUnits="userSpaceOnUse"/><linearGradient id="c"><stop offset="0" stop-color="#fff"/><stop offset="1" stop-color="#fff" stop-opacity="0"/></linearGradient><linearGradient x1="58.749" y1="2.048" x2="105.324" y2="58.048" id="f" xlink:href="#c" gradientUnits="userSpaceOnUse" gradientTransform="matrix(1.00464 0 0 1 -55.02 -3.048)"/></defs><g color="#000"><path d="M19.313 19.03a8.063 2.28 0 1 1-16.125 0 8.063 2.28 0 1 1 16.125 0z" transform="matrix(2.51212 0 0 2.41096 -4.515 -13.872)" opacity=".163" fill="url(#d)" overflow="visible"/><path d="M42.5 25.525L30.465 39.5 18.49 25.525h6.092c2.047-5.485-2.157-8.977-7.03-8.977-3.465 0-8.165 1.905-9.752 6.64-.826 2.465-2.28 1.385-2.224-.756.218-8.26 6.343-14.87 15.487-14.87S37 14.662 36.487 25.526H42.5z" fill="url(#e)" stroke="#204a87" overflow="visible"/><path d="M40.382 26.525l-9.917 11.543-9.857-11.543h4.7C27.783 21 24.208 15.63 18 15.53c-3.9-.064-5.947 1.232-8.662 3.47-1.488 1.227-2.248 3.64-2.6 4.513-.48.025-.197-2.68.262-4.363C8.672 13.017 13.847 8.5 21.184 8.486c7.337-.014 15.3 5.024 14.303 18.04h4.895z" opacity=".354" fill="none" stroke="url(#f)" overflow="visible"/></g></svg>