<svg xmlns="http://www.w3.org/2000/svg" xmlns:xlink="http://www.w3.org/1999/xlink" viewBox="0 0 48 48"><defs><linearGradient id="a"><stop offset="0" stop-color="#fff"/><stop offset="1" stop-color="#fff" stop-opacity="0"/></linearGradient><linearGradient x1="28.622" y1="18.219" x2="28.622" y2="49.563" id="f" xlink:href="#a" gradientUnits="userSpaceOnUse" gradientTransform="matrix(-1.31065 0 0 1.28845 57.825 -9.944)"/><linearGradient id="b"><stop offset="0" stop-color="#d7e866"/><stop offset="1" stop-color="#8cab2a"/></linearGradient><linearGradient x1="22.182" y1="14.5" x2="22.182" y2="44.051" id="e" xlink:href="#b" gradientUnits="userSpaceOnUse" gradientTransform="matrix(1.13006 0 0 1.11607 -.567 -3.164)"/><linearGradient id="c"><stop offset="0" stop-color="#0d0d0d"/><stop offset="1" stop-color="#0d0d0d" stop-opacity="0"/></linearGradient><radialGradient cx="11.25" cy="19.031" r="8.063" fx="11.25" fy="19.031" id="d" xlink:href="#c" gradientUnits="userSpaceOnUse" gradientTransform="matrix(1 0 0 .28295 0 13.646)"/></defs><path d="M19.313 19.03a8.063 2.28 0 1 1-16.125 0 8.063 2.28 0 1 1 16.125 0z" transform="matrix(2.96952 0 0 2.88613 -9.436 -14.01)" opacity=".163" fill="url(#d)" overflow="visible"/><g stroke-width="1.005" stroke-linejoin="round"><path d="M27.5 1.503L1.503 23.555 27.5 45.497V34.5h19.997v-22H27.5V1.503z" fill="url(#e)" stroke="#548820" stroke-linecap="round" overflow="visible" transform="matrix(-1 0 0 1 48.97 .054)"/><path d="M26.5 3.5L3 23.58 26.5 43.5v-10h20v-20h-20v-10z" opacity=".354" fill="none" stroke="url(#f)" overflow="visible" transform="matrix(-1 0 0 1 48.97 .054)"/></g></svg>