<?xml version="1.0" encoding="UTF-8" standalone="no"?>
<svg
   xmlns:osb="http://www.openswatchbook.org/uri/2009/osb"
   xmlns:dc="http://purl.org/dc/elements/1.1/"
   xmlns:cc="http://creativecommons.org/ns#"
   xmlns:rdf="http://www.w3.org/1999/02/22-rdf-syntax-ns#"
   xmlns:svg="http://www.w3.org/2000/svg"
   xmlns="http://www.w3.org/2000/svg"
   xmlns:xlink="http://www.w3.org/1999/xlink"
   width="48px"
   height="48px"
   id="svg2510"
   version="1.1">
  <defs
     id="defs2512">
    <linearGradient
       id="linearGradient1221">
      <stop
         id="stop1217"
         offset="0"
         style="stop-color:#ffffff;stop-opacity:1;" />
      <stop
         id="stop1219"
         offset="1"
         style="stop-color:#ffffff;stop-opacity:0;" />
    </linearGradient>
    <linearGradient
       id="linearGradient5105">
      <stop
         id="stop5107"
         offset="0"
         style="stop-color:black;stop-opacity:1;" />
      <stop
         id="stop5109"
         offset="1"
         style="stop-color:black;stop-opacity:0;" />
    </linearGradient>
    <linearGradient
       id="linearGradient919">
      <stop
         style="stop-color:#9bdb4d;stop-opacity:1"
         offset="0"
         id="stop915" />
      <stop
         style="stop-color:#68b723;stop-opacity:1"
         offset="1"
         id="stop917" />
    </linearGradient>
    <radialGradient
       xlink:href="#linearGradient5105"
       id="radialGradient2604-4"
       gradientUnits="userSpaceOnUse"
       gradientTransform="matrix(2.0038759,0,0,0.31244976,1.050146,39.616195)"
       cx="11.25"
       cy="19.03125"
       fx="11.25"
       fy="19.03125"
       r="8.0625" />
    <linearGradient
       osb:paint="solid"
       id="linearGradient4526">
      <stop
         id="stop4528"
         offset="0"
         style="stop-color:#ffffff;stop-opacity:1;" />
    </linearGradient>
    <linearGradient
       gradientTransform="matrix(0,1.9957308,-2.1465597,0,48.565135,4.5545756)"
       xlink:href="#linearGradient919"
       id="linearGradient843"
       x1="4.2317452"
       y1="10.360846"
       x2="19.764902"
       y2="10.360846"
       gradientUnits="userSpaceOnUse" />
    <linearGradient
       gradientTransform="matrix(0,0.99047604,-0.98333365,0,50.567425,4.9193787)"
       gradientUnits="userSpaceOnUse"
       y2="23.636395"
       x2="39.456402"
       y1="23.636395"
       x1="8.1583204"
       id="linearGradient1223"
       xlink:href="#linearGradient1221" />
  </defs>
  <metadata
     id="metadata2515">
    <rdf:RDF>
      <cc:Work
         rdf:about="">
        <dc:format>image/svg+xml</dc:format>
        <dc:type
           rdf:resource="http://purl.org/dc/dcmitype/StillImage" />
        <dc:title />
      </cc:Work>
    </rdf:RDF>
  </metadata>
  <path
     d="m 39.75,45.562499 a 16.15625,2.519124 0 1 1 -32.3124995,0 16.15625,2.519124 0 1 1 32.3124995,0 z"
     id="path4346-4"
     style="display:inline;overflow:visible;visibility:visible;opacity:0.16292138;fill:url(#radialGradient2604-4);fill-opacity:1;fill-rule:nonzero;stroke:none;stroke-width:2.44554234;stroke-linecap:butt;stroke-linejoin:miter;stroke-miterlimit:4;stroke-dasharray:none;stroke-dashoffset:0;stroke-opacity:1;marker:none;marker-start:none;marker-mid:none;marker-end:none" />
  <g
     transform="matrix(-1,0,0,1,52.049883,0)"
     id="g1515">
    <path
       d="m 27.401556,12.501186 c -0.527602,-0.01955 -1.020578,0.200471 -1.40868,0.561301 L 10.698634,26.970233 c -0.315333,0.293179 -0.51233,0.632523 -0.603715,0.997867 -0.04695,0.187638 -0.08005,0.373923 -0.06709,0.561299 -0.0036,0.06046 -0.0025,0.126209 0,0.187099 0.02039,0.109725 0.02525,0.207546 0.06709,0.311837 0.08726,0.376737 0.279139,0.758458 0.603721,1.060238 l 15.294241,13.907743 c 0.776205,0.721664 2.043551,0.657071 2.884438,-0.124729 l 3.0186,-2.806498 c 0.840887,-0.781802 0.91036,-2.022463 0.13416,-2.744128 l -6.238433,-5.800096 14.086792,4e-6 c 1.189194,-3e-6 2.146562,-0.890099 2.146562,-1.995733 l -4e-6,-3.991458 c -1e-6,-1.105636 -0.957364,-1.995731 -2.146556,-1.995731 H 25.724563 l 6.305516,-5.862459 c 0.776202,-0.721663 0.706729,-1.899961 -0.13416,-2.681762 l -3.018602,-2.868871 c -0.420441,-0.390901 -0.948159,-0.60404 -1.47576,-0.623666 z"
       id="rect3811-1"
       style="color:#000000;display:inline;overflow:visible;visibility:visible;fill:url(#linearGradient843);fill-opacity:1;fill-rule:nonzero;stroke:none;stroke-width:0.99999994;marker:none;enable-background:accumulate" />
    <path
       d="m 27.401556,12.501186 c -0.527602,-0.01955 -1.020578,0.200471 -1.40868,0.561301 L 10.698634,26.970233 c -0.315333,0.293179 -0.51233,0.632523 -0.603715,0.997867 -0.04695,0.187638 -0.08005,0.373923 -0.06709,0.561299 -0.0036,0.06046 -0.0025,0.126209 0,0.187099 0.02039,0.109725 0.02525,0.207546 0.06709,0.311837 0.08726,0.376737 0.279139,0.758458 0.603721,1.060238 l 15.294241,13.907743 c 0.776205,0.721664 2.043551,0.657071 2.884438,-0.124729 l 3.0186,-2.806498 c 0.840887,-0.781802 0.91036,-2.022463 0.13416,-2.744128 l -6.238433,-5.800096 14.086792,4e-6 c 1.189194,-3e-6 2.146562,-0.890099 2.146562,-1.995733 l -4e-6,-3.991458 c -1e-6,-1.105636 -0.957364,-1.995731 -2.146556,-1.995731 H 25.724563 l 6.305516,-5.862459 c 0.776202,-0.721663 0.706729,-1.899961 -0.13416,-2.681762 l -3.018602,-2.868871 c -0.420441,-0.390901 -0.948159,-0.60404 -1.47576,-0.623666 z"
       id="rect3811-1-5"
       style="color:#000000;display:inline;overflow:visible;visibility:visible;fill:none;fill-opacity:1;fill-rule:nonzero;stroke:#206b00;stroke-width:0.99999994;stroke-opacity:0.47317074;marker:none;enable-background:accumulate" />
    <path
       d="m 26.958972,13.613852 c -5.258534,4.657659 -10.033238,8.851487 -14.942513,13.348126 -0.292658,0.274073 -0.475488,0.591302 -0.560302,0.932837 -0.04357,0.175409 -0.07429,0.349553 -0.06226,0.524718 -0.0034,0.05652 -0.0023,0.117984 0,0.174906 0.01891,0.102574 0.02343,0.19402 0.06226,0.291513 0.08098,0.352186 0.259067,0.709029 0.560308,0.991143 l 14.194449,13.001369 c 0.720389,0.674633 1.667788,0.614248 2.448207,-0.116601 l 3.004925,-3.157495 c 0.213122,-0.223943 -6.695045,-6.216454 -8.601372,-8.173646 l 15.963392,0.144885 c 1.103681,-3e-6 2.064115,-0.256818 2.064115,-1.290397 l -4e-6,-3.731334 c 0,-1.03358 -0.744721,-1.152797 -1.848382,-1.146575 l -16.04764,0.09047 c 1.779209,-1.600585 9.079742,-7.549894 8.342773,-8.288481 -1.043667,-1.204448 -3.667908,-4.401498 -4.577956,-3.595438 z"
       id="rect3811-1-2"
       style="color:#000000;display:inline;overflow:visible;visibility:visible;fill:none;fill-opacity:1;fill-rule:nonzero;stroke:url(#linearGradient1223);stroke-width:0.99999988;stroke-opacity:0.50243901;marker:none;enable-background:accumulate" />
  </g>
</svg>
