<?xml version="1.0" encoding="UTF-8" standalone="no"?>
<!-- Created with Inkscape (http://www.inkscape.org/) -->
<svg
   xmlns:dc="http://purl.org/dc/elements/1.1/"
   xmlns:cc="http://creativecommons.org/ns#"
   xmlns:rdf="http://www.w3.org/1999/02/22-rdf-syntax-ns#"
   xmlns:svg="http://www.w3.org/2000/svg"
   xmlns="http://www.w3.org/2000/svg"
   xmlns:xlink="http://www.w3.org/1999/xlink"
   xmlns:sodipodi="http://sodipodi.sourceforge.net/DTD/sodipodi-0.dtd"
   xmlns:inkscape="http://www.inkscape.org/namespaces/inkscape"
   width="48px"
   height="48px"
   id="svg3277"
   sodipodi:version="0.32"
   inkscape:version="0.46"
   sodipodi:docname="gtk-edit.svg"
   inkscape:output_extension="org.inkscape.output.svg.inkscape">
  <defs
     id="defs3279">
    <linearGradient
       id="linearGradient3155">
      <stop
         style="stop-color:#000000;stop-opacity:1;"
         offset="0"
         id="stop3157" />
      <stop
         id="stop3171"
         offset="0.13482948"
         style="stop-color:#c3c3c3;stop-opacity:1;" />
      <stop
         style="stop-color:#8c8c8c;stop-opacity:1;"
         offset="0.20224422"
         id="stop3173" />
      <stop
         id="stop3163"
         offset="0.26965895"
         style="stop-color:#ffffff;stop-opacity:1;" />
      <stop
         style="stop-color:#757575;stop-opacity:1;"
         offset="0.44650277"
         id="stop3165" />
      <stop
         id="stop3167"
         offset="0.57114136"
         style="stop-color:#7d7d7d;stop-opacity:1;" />
      <stop
         style="stop-color:#b6b6b6;stop-opacity:1;"
         offset="0.72038066"
         id="stop3169" />
      <stop
         style="stop-color:#000000;stop-opacity:1;"
         offset="1"
         id="stop3159" />
    </linearGradient>
    <linearGradient
       inkscape:collect="always"
       xlink:href="#linearGradient3155"
       id="linearGradient3265"
       gradientUnits="userSpaceOnUse"
       gradientTransform="matrix(1.1992782,-1.2061574,1.2306697,1.2255073,-36.004294,13.88486)"
       spreadMethod="pad"
       x1="23.575972"
       y1="25.356892"
       x2="23.575972"
       y2="31.210939" />
    <linearGradient
       inkscape:collect="always"
       xlink:href="#linearGradient3240"
       id="linearGradient3260"
       gradientUnits="userSpaceOnUse"
       gradientTransform="matrix(1.1653763,-1.172061,1.4402748,1.4342331,-39.961363,8.1492416)"
       x1="30.037716"
       y1="24.989594"
       x2="30.037716"
       y2="30.000141" />
    <linearGradient
       inkscape:collect="always"
       xlink:href="#linearGradient3223"
       id="linearGradient3257"
       gradientUnits="userSpaceOnUse"
       gradientTransform="matrix(1.1653763,-1.172061,1.4402748,1.4342331,-40.295111,8.4849048)"
       x1="30.037716"
       y1="24.989594"
       x2="30.037716"
       y2="30.000141" />
    <linearGradient
       inkscape:collect="always"
       xlink:href="#linearGradient3240"
       id="linearGradient3254"
       gradientUnits="userSpaceOnUse"
       gradientTransform="matrix(1.1653763,-1.172061,1.4402748,1.4342331,-38.801593,6.9828175)"
       x1="30.037716"
       y1="24.989594"
       x2="30.037716"
       y2="30.000141" />
    <linearGradient
       inkscape:collect="always"
       xlink:href="#linearGradient3223"
       id="linearGradient3251"
       gradientUnits="userSpaceOnUse"
       gradientTransform="matrix(1.1653763,-1.172061,1.4402748,1.4342331,-39.135341,7.3184803)"
       x1="30.037716"
       y1="24.989594"
       x2="30.037716"
       y2="30.000141" />
    <linearGradient
       id="linearGradient3240">
      <stop
         id="stop3242"
         offset="0"
         style="stop-color:#3e3e3e;stop-opacity:1;" />
      <stop
         style="stop-color:#828282;stop-opacity:1;"
         offset="0.5"
         id="stop3244" />
      <stop
         id="stop3246"
         offset="1"
         style="stop-color:#3c3c3c;stop-opacity:1;" />
    </linearGradient>
    <linearGradient
       inkscape:collect="always"
       xlink:href="#linearGradient3240"
       id="linearGradient3248"
       gradientUnits="userSpaceOnUse"
       gradientTransform="matrix(1.1653763,-1.172061,1.4402748,1.4342331,-37.636216,5.810757)"
       x1="30.037716"
       y1="24.989594"
       x2="30.037716"
       y2="30.000141" />
    <linearGradient
       id="linearGradient3223">
      <stop
         style="stop-color:#999999;stop-opacity:1;"
         offset="0"
         id="stop3225" />
      <stop
         id="stop3231"
         offset="0.5"
         style="stop-color:#ffffff;stop-opacity:1;" />
      <stop
         style="stop-color:#777777;stop-opacity:1;"
         offset="1"
         id="stop3227" />
    </linearGradient>
    <linearGradient
       inkscape:collect="always"
       xlink:href="#linearGradient3223"
       id="linearGradient3245"
       gradientUnits="userSpaceOnUse"
       gradientTransform="matrix(1.1653763,-1.172061,1.4402748,1.4342331,-37.969965,6.1464195)"
       x1="30.037716"
       y1="24.989594"
       x2="30.037716"
       y2="30.000141" />
    <linearGradient
       id="linearGradient3191">
      <stop
         style="stop-color:#cbbd27;stop-opacity:1;"
         offset="0"
         id="stop3193" />
      <stop
         style="stop-color:#9b901d;stop-opacity:1;"
         offset="1"
         id="stop3195" />
    </linearGradient>
    <linearGradient
       inkscape:collect="always"
       xlink:href="#linearGradient3191"
       id="linearGradient3270"
       gradientUnits="userSpaceOnUse"
       x1="5.5178981"
       y1="37.371799"
       x2="9.5220556"
       y2="41.391716"
       gradientTransform="matrix(1.0800487,0,0,1.0787164,-1.8780291,-0.9799908)" />
    <linearGradient
       id="linearGradient3290">
      <stop
         style="stop-color:#e4db7b;stop-opacity:1;"
         offset="0"
         id="stop3292" />
      <stop
         style="stop-color:#f4f0c8;stop-opacity:1;"
         offset="1"
         id="stop3294" />
    </linearGradient>
    <linearGradient
       inkscape:collect="always"
       xlink:href="#linearGradient3290"
       id="linearGradient3268"
       gradientUnits="userSpaceOnUse"
       gradientTransform="matrix(1.2854316,-1.2912103,1.5886497,1.5800342,-46.994731,7.9570591)"
       x1="9"
       y1="29.056757"
       x2="9"
       y2="26.02973" />
  </defs>
  <sodipodi:namedview
     id="base"
     pagecolor="#ffffff"
     bordercolor="#666666"
     borderopacity="1.0"
     inkscape:pageopacity="0.0"
     inkscape:pageshadow="2"
     inkscape:zoom="7"
     inkscape:cx="24"
     inkscape:cy="24"
     inkscape:current-layer="layer1"
     showgrid="true"
     inkscape:grid-bbox="true"
     inkscape:document-units="px"
     inkscape:window-width="640"
     inkscape:window-height="678"
     inkscape:window-x="0"
     inkscape:window-y="24" />
  <metadata
     id="metadata3282">
    <rdf:RDF>
      <cc:Work
         rdf:about="">
        <dc:format>image/svg+xml</dc:format>
        <dc:type
           rdf:resource="http://purl.org/dc/dcmitype/StillImage" />
      </cc:Work>
    </rdf:RDF>
  </metadata>
  <g
     id="layer1"
     inkscape:label="Layer 1"
     inkscape:groupmode="layer">
    <path
       style="opacity:0.14999999999999999;fill:#000000;fill-opacity:1;fill-rule:evenodd;stroke:none;stroke-width:1px;stroke-linecap:butt;stroke-linejoin:miter;stroke-opacity:1"
       d="M 40.5358,38.000347 C 40.14891,37.995789 39.838569,38.036846 39.629449,38.080558 L 11.782573,43.882495 L 6.6569976,44.951977 L 6.50073,44.978715 L 0,48 L 14.595387,46.663148 L 14.720403,46.636411 L 19.877233,45.566929 L 47.724109,39.738254 C 48.560583,39.563411 47.431788,39.051998 45.192574,38.588563 C 43.513165,38.240986 41.696474,38.014021 40.5358,38.000347 z"
       id="path2422" />
    <path
       transform="matrix(1.1030185,0,0,1.1016579,-2.428387,-1.5110325)"
       id="rect2383"
       d="M 8.5762863,31.492497 C 9.3822237,30.872241 11.525181,31.877796 13.451604,33.796138 C 15.37342,35.70989 16.33921,37.804836 15.732652,38.618844 C 15.730345,38.621939 15.780014,38.660606 15.777661,38.663663 L 45.021323,9.252256 C 45.763796,8.5055243 44.755681,6.2907181 42.768101,4.3114771 C 40.780523,2.3322353 38.562424,1.3343541 37.819947,2.0810901 L 8.5762863,31.492497 z"
       style="fill:url(#linearGradient3265);fill-opacity:1;stroke:#000000;stroke-width:0.90716284999999997;stroke-linecap:butt;stroke-linejoin:round;stroke-miterlimit:4;stroke-dasharray:none;stroke-dashoffset:0;stroke-opacity:1" />
    <path
       transform="matrix(1.1030185,0,0,1.1016579,-2.428387,-1.5110325)"
       id="rect3175"
       d="M 34.250984,5.6705274 C 35.05692,5.0502709 37.199879,6.0558261 39.126301,7.974168 C 41.048116,9.8879195 42.013908,11.982864 41.407348,12.796873 C 41.405042,12.799968 41.454712,12.838636 41.452357,12.841693 L 45.021323,9.252256 L 45.094159,9.1790024 C 45.096512,9.1759455 45.046843,9.1372785 45.049149,9.1341814 C 45.655708,8.3201745 44.689917,6.2252293 42.768101,4.3114771 C 40.841679,2.3931359 38.698721,1.3875792 37.892784,2.0078357 L 37.819947,2.0810901 L 34.250984,5.6705274 z"
       style="opacity:0.80000000000000004;fill:#ff9de8;fill-opacity:1;stroke:#dd78c5;stroke-width:0.90716284999999997;stroke-linecap:butt;stroke-linejoin:round;stroke-miterlimit:4;stroke-dasharray:none;stroke-dashoffset:0;stroke-opacity:1" />
    <path
       transform="matrix(1.1030185,0,0,1.1016579,-2.428387,-1.5110325)"
       id="path3208"
       d="M 8.5762863,31.492497 C 9.3822237,30.872241 11.525181,31.877796 13.451604,33.796138 C 15.37342,35.70989 16.33921,37.804836 15.732652,38.618844 C 15.730345,38.621939 15.780014,38.660606 15.777661,38.663663 L 35.916819,18.408984 L 35.989655,18.335729 C 35.99201,18.332673 35.94234,18.294005 35.944647,18.29091 C 36.551205,17.4769 35.585415,15.381956 33.663599,13.468204 C 31.737177,11.549863 29.594218,10.544307 28.788281,11.164564 L 28.715445,11.237817 L 8.5762863,31.492497 z"
       style="opacity:0.59999999999999998;fill:#000000;fill-opacity:1;stroke:none;stroke-width:2;stroke-linecap:butt;stroke-linejoin:round;stroke-miterlimit:4;stroke-dasharray:2, 8;stroke-dashoffset:0;stroke-opacity:0.23529412000000000" />
    <path
       transform="matrix(1.1030185,0,0,1.1016579,-2.428387,-1.5110325)"
       id="path3233"
       d="M 30.250607,9.6938497 C 31.056544,9.0735925 33.199504,10.079148 35.125925,11.99749 C 37.047741,13.911242 38.013532,16.006187 37.406972,16.820196 C 37.404665,16.82329 37.454335,16.861958 37.451982,16.865016 L 37.816162,16.498745 C 37.818517,16.495689 37.768847,16.457021 37.771153,16.453926 C 38.377712,15.639917 37.411922,13.544971 35.490105,11.631222 C 33.563683,9.712879 31.420725,8.7073223 30.614787,9.3275796 L 30.250607,9.6938497 z"
       style="fill:url(#linearGradient3260);fill-opacity:1;stroke:none;stroke-width:2;stroke-linecap:butt;stroke-linejoin:round;stroke-miterlimit:4;stroke-dasharray:2, 8;stroke-dashoffset:0;stroke-opacity:0.23529412000000000" />
    <path
       transform="matrix(1.1030185,0,0,1.1016579,-2.428387,-1.5110325)"
       id="path3216"
       d="M 29.91686,10.029512 C 30.722797,9.409255 32.865756,10.41481 34.792177,12.333153 C 36.713994,14.246904 37.679785,16.341848 37.073225,17.155856 C 37.070919,17.158953 37.120588,17.19762 37.118235,17.200678 L 37.482415,16.834408 C 37.48477,16.831351 37.4351,16.792683 37.437407,16.789588 C 38.043965,15.975579 37.078175,13.880634 35.156358,11.966883 C 33.229937,10.048541 31.086978,9.0429841 30.281039,9.6632414 L 29.91686,10.029512 z"
       style="fill:url(#linearGradient3257);fill-opacity:1;stroke:none;stroke-width:2;stroke-linecap:butt;stroke-linejoin:round;stroke-miterlimit:4;stroke-dasharray:2, 8;stroke-dashoffset:0;stroke-opacity:0.23529412000000000" />
    <path
       transform="matrix(1.1030185,0,0,1.1016579,-2.428387,-1.5110325)"
       id="path3248"
       d="M 31.410379,8.5274259 C 32.216315,7.9071686 34.359275,8.9127239 36.285696,10.831067 C 38.207511,12.744818 39.173302,14.839762 38.566744,15.653772 C 38.564437,15.656867 38.614108,15.695534 38.611753,15.698591 L 38.975933,15.332322 C 38.978288,15.329265 38.928619,15.290597 38.930924,15.287502 C 39.537484,14.473494 38.571693,12.378549 36.649875,10.464798 C 34.723455,8.5464552 32.580498,7.5408992 31.774558,8.1611565 L 31.410379,8.5274259 z"
       style="fill:url(#linearGradient3254);fill-opacity:1;stroke:none;stroke-width:2;stroke-linecap:butt;stroke-linejoin:round;stroke-miterlimit:4;stroke-dasharray:2, 8;stroke-dashoffset:0;stroke-opacity:0.23529412000000000" />
    <path
       transform="matrix(1.1030185,0,0,1.1016579,-2.428387,-1.5110325)"
       id="path3250"
       d="M 31.076631,8.8630883 C 31.882568,8.2428305 34.025527,9.2483863 35.951948,11.166728 C 37.873765,13.080481 38.839556,15.175424 38.232997,15.989433 C 38.23069,15.992529 38.28036,16.031196 38.278005,16.034254 L 38.642185,15.667982 C 38.644539,15.664926 38.594871,15.62626 38.597176,15.623164 C 39.203736,14.809155 38.237946,12.714209 36.316129,10.80046 C 34.389709,8.8821176 32.246749,7.876561 31.440811,8.4968189 L 31.076631,8.8630883 z"
       style="fill:url(#linearGradient3251);fill-opacity:1;stroke:none;stroke-width:2;stroke-linecap:butt;stroke-linejoin:round;stroke-miterlimit:4;stroke-dasharray:2, 8;stroke-dashoffset:0;stroke-opacity:0.23529412000000000" />
    <path
       transform="matrix(1.1030185,0,0,1.1016579,-2.428387,-1.5110325)"
       id="path3256"
       d="M 32.575756,7.3553646 C 33.381691,6.7351081 35.52465,7.7406634 37.451071,9.6590052 C 39.372888,11.572758 40.33868,13.667702 39.73212,14.48171 C 39.729814,14.484806 39.779483,14.523473 39.777128,14.526531 L 40.141308,14.160262 C 40.143663,14.157204 40.093995,14.118536 40.0963,14.115442 C 40.702859,13.301433 39.737069,11.206488 37.815252,9.2927365 C 35.888832,7.3743946 33.745873,6.3688387 32.939935,6.9890958 L 32.575756,7.3553646 z"
       style="fill:url(#linearGradient3248);fill-opacity:1;stroke:none;stroke-width:2;stroke-linecap:butt;stroke-linejoin:round;stroke-miterlimit:4;stroke-dasharray:2, 8;stroke-dashoffset:0;stroke-opacity:0.23529412000000000" />
    <path
       transform="matrix(1.1030185,0,0,1.1016579,-2.428387,-1.5110325)"
       id="path3258"
       d="M 32.242007,7.6910264 C 33.047943,7.0707691 35.190903,8.0763251 37.117324,9.9946678 C 39.03914,11.908419 40.004932,14.003364 39.398372,14.817372 C 39.396066,14.820469 39.445736,14.859135 39.443382,14.862193 L 39.807562,14.495924 C 39.809916,14.492867 39.760246,14.454197 39.762553,14.451104 C 40.369112,13.637094 39.403321,11.542149 37.481505,9.6283983 C 35.555084,7.7100564 33.412125,6.7044997 32.606188,7.3247584 L 32.242007,7.6910264 z"
       style="fill:url(#linearGradient3245);fill-opacity:1;stroke:none;stroke-width:2;stroke-linecap:butt;stroke-linejoin:round;stroke-miterlimit:4;stroke-dasharray:2, 8;stroke-dashoffset:0;stroke-opacity:0.23529412000000000" />
    <path
       style="fill:url(#linearGradient3268);fill-opacity:1;fill-rule:evenodd;stroke:url(#linearGradient3270);stroke-width:1.00000011999999994;stroke-linecap:butt;stroke-linejoin:miter;stroke-miterlimit:4;stroke-dasharray:none;stroke-opacity:1"
       d="M 0.5,47.5 L 14.8125,41.15625 L 14.9375,41.03125 C 15.606545,40.134492 14.526048,37.827051 12.40625,35.71875 C 10.28137,33.605393 7.9202138,32.50419 7.03125,33.1875 L 0.5,47.5 z"
       id="path3270"
       sodipodi:nodetypes="cccscc" />
    <path
       transform="matrix(1.1030185,0,0,1.1016579,-2.428387,-1.5110325)"
       id="path3281"
       d="M 4.2587724,40.969711 L 2.6546917,44.47481 L 6.1941417,42.896961 C 5.9298048,42.574706 5.6871091,42.246272 5.3668065,41.927313 C 4.9980523,41.560105 4.6324975,41.265024 4.2587724,40.969711 z"
       style="fill:#000000;fill-opacity:1;fill-rule:evenodd;stroke:#000000;stroke-width:0.90716284999999997;stroke-linecap:butt;stroke-linejoin:miter;stroke-miterlimit:4;stroke-dasharray:none;stroke-opacity:1" />
  </g>
</svg>
