<?xml version="1.0" encoding="UTF-8" standalone="no"?>
<!-- Created with Inkscape (http://www.inkscape.org/) -->

<svg
   xmlns:svg="http://www.w3.org/2000/svg"
   xmlns="http://www.w3.org/2000/svg"
   xmlns:xlink="http://www.w3.org/1999/xlink"
   version="1.1"
   width="48"
   height="48"
   id="svg2418">
  <defs
     id="defs2420">
    <linearGradient
       id="linearGradient8838">
      <stop
         id="stop8840"
         style="stop-color:black;stop-opacity:1"
         offset="0" />
      <stop
         id="stop8842"
         style="stop-color:black;stop-opacity:0"
         offset="1" />
    </linearGradient>
    <radialGradient
       cx="62.625"
       cy="4.625"
       r="10.625"
       fx="62.625"
       fy="4.625"
       id="radialGradient2499"
       xlink:href="#linearGradient8838"
       gradientUnits="userSpaceOnUse"
       gradientTransform="matrix(1,0,0,0.341176,0,3.047059)" />
    <linearGradient
       id="linearGradient3215">
      <stop
         id="stop3217"
         style="stop-color:#8c7200;stop-opacity:1"
         offset="0" />
      <stop
         id="stop3219"
         style="stop-color:#c4a000;stop-opacity:1"
         offset="1" />
    </linearGradient>
    <linearGradient
       x1="21.483376"
       y1="36.345936"
       x2="21.483376"
       y2="9.5799999"
       id="linearGradient2467"
       xlink:href="#linearGradient3215"
       gradientUnits="userSpaceOnUse" />
    <linearGradient
       id="linearGradient2250">
      <stop
         id="stop2252"
         style="stop-color:#ffc349;stop-opacity:1"
         offset="0" />
      <stop
         id="stop2256"
         style="stop-color:#ff921a;stop-opacity:1"
         offset="1" />
    </linearGradient>
    <linearGradient
       x1="21.483376"
       y1="21.671062"
       x2="21.483376"
       y2="33.409534"
       id="linearGradient2465"
       xlink:href="#linearGradient2250"
       gradientUnits="userSpaceOnUse" />
    <linearGradient
       id="linearGradient5178">
      <stop
         id="stop5180"
         style="stop-color:white;stop-opacity:1"
         offset="0" />
      <stop
         id="stop6155"
         style="stop-color:#ffdea1;stop-opacity:1"
         offset="0.8918919" />
      <stop
         id="stop5182"
         style="stop-color:#ffbd43;stop-opacity:0"
         offset="1" />
    </linearGradient>
    <linearGradient
       x1="21.483376"
       y1="9.463129"
       x2="21.483376"
       y2="26.294357"
       id="linearGradient5541"
       xlink:href="#linearGradient5178"
       gradientUnits="userSpaceOnUse"
       gradientTransform="matrix(1.5575239,0,0,1.5420736,-9.4936458,-12.492178)" />
    <linearGradient
       id="linearGradient3230">
      <stop
         id="stop3232"
         style="stop-color:#ffefa7;stop-opacity:1"
         offset="0" />
      <stop
         id="stop3234"
         style="stop-color:#ffc64c;stop-opacity:1"
         offset="1" />
    </linearGradient>
    <linearGradient
       x1="24.097157"
       y1="9.5958176"
       x2="23.673159"
       y2="22.839001"
       id="linearGradient2476"
       xlink:href="#linearGradient3230"
       gradientUnits="userSpaceOnUse"
       gradientTransform="matrix(1.3469077,0,0,1.3469077,-8.3257881,-6.6326722)" />
  </defs>
  <g
     id="layer1">
    <path
       d="m 73.25,4.625 a 10.625,3.625 0 1 1 -21.25,0 10.625,3.625 0 1 1 21.25,0 z"
       transform="matrix(2.149872,0,0,2.5636643,-110.63573,26.84977)"
       id="path8836"
       style="opacity:0.3;fill:url(#radialGradient2499);fill-opacity:1;fill-rule:evenodd;stroke:none;stroke-width:0.99999988;marker:none;visibility:visible;display:inline;overflow:visible" />
    <path
       d="m 21.483376,9.9840555 c 0.919992,0 3.886028,7.4090065 4.630318,7.9497645 0.744289,0.540758 8.707228,1.072117 8.991522,1.947082 0.284293,0.874965 -5.845536,5.985341 -6.129829,6.860306 -0.284293,0.874965 1.671038,8.612369 0.926748,9.153127 -0.744289,0.540758 -7.498767,-3.709862 -8.41876,-3.709862 -0.919992,0 -7.67447,4.25062 -8.41876,3.709862 -0.744289,-0.540758 1.211042,-8.278163 0.926749,-9.153127 -0.284293,-0.874965 -6.4141217,-5.985342 -6.1298284,-6.860307 0.2842933,-0.874964 8.2472324,-1.406323 8.9915224,-1.947081 0.744289,-0.540758 3.710326,-7.9497645 4.630318,-7.9497645 z"
       transform="matrix(1.6508808,0,0,1.6568311,-11.466494,-15.045759)"
       id="path1307"
       style="fill:url(#linearGradient2465);fill-opacity:1;fill-rule:nonzero;stroke:url(#linearGradient2467);stroke-width:0.59997541;stroke-linecap:butt;stroke-linejoin:round;stroke-miterlimit:4;stroke-opacity:1;stroke-dasharray:none;stroke-dashoffset:0;marker:none;visibility:visible;display:inline;overflow:visible" />
    <path
       d="m 24,2.5 c 2.255601,4.3171106 4.478429,8.952433 6.73403,13.269542 4.843973,0.789864 9.951199,1.930733 14.795172,2.720597 -3.449934,3.457984 -6.89987,6.91597 -10.349804,10.373955 0.738138,4.805274 1.213021,9.259541 1.95116,14.064815 C 32.742781,40.748952 28.355003,38.568994 23.967226,36.389035 19.579447,38.568994 15.19167,40.748952 10.803892,42.928909 11.542029,38.123635 11.929163,33.581617 12.6673,28.776343 9.2173666,25.318358 5.7674325,21.860372 2.3174996,18.402388 7.1614709,17.612524 12.356449,16.559406 17.20042,15.769542 19.456021,11.452433 21.744398,6.8171106 24,2.5 z"
       id="path1309"
       style="fill:none;stroke:url(#linearGradient5541);stroke-width:0.99999994;stroke-linecap:butt;stroke-linejoin:round;stroke-miterlimit:4;stroke-opacity:1;stroke-dasharray:none;stroke-dashoffset:0;marker:none;visibility:visible;display:inline;overflow:visible" />
    <path
       d="M 24,3.5016193 17.482712,16.179705 3.4573308,18.606589 10.777151,26.144614 C 14.936585,22.073555 18.959155,22.096885 24,22.182123 c 5.040847,0.08524 8.896646,0.454789 12.898383,4.004952 L 44.627479,18.797249 30.344521,16.091954 24,3.5016193 z"
       id="path1322"
       style="fill:url(#linearGradient2476);fill-opacity:1;fill-rule:nonzero;stroke:none;stroke-width:1;marker:none;visibility:visible;display:inline;overflow:visible" />
    <path
       d="m 36.457966,42.854576 c 0,0 -4.318414,-3.742625 -10.076299,-4.894202"
       id="path11014"
       style="fill:none;stroke:#ffa849;stroke-width:1;stroke-linecap:butt;stroke-linejoin:miter;stroke-miterlimit:4;stroke-opacity:1;stroke-dasharray:none;display:inline" />
    <path
       d="m 11.175618,42.854576 c 0,0 4.318413,-3.742625 10.076298,-4.894202"
       id="path11985"
       style="fill:none;stroke:#ffa849;stroke-width:1;stroke-linecap:butt;stroke-linejoin:miter;stroke-miterlimit:4;stroke-opacity:1;stroke-dasharray:none;display:inline" />
  </g>
</svg>
