<svg xmlns="http://www.w3.org/2000/svg" xmlns:xlink="http://www.w3.org/1999/xlink" viewBox="0 0 48 48"><defs><linearGradient x1="71.204" y1="6.238" x2="71.204" y2="44.341" id="b" gradientUnits="userSpaceOnUse" gradientTransform="translate(-47.734 -.357)"><stop offset="0" stop-color="#fff"/><stop offset=".508" stop-color="#fff" stop-opacity=".235"/><stop offset=".835" stop-color="#fff" stop-opacity=".157"/><stop offset="1" stop-color="#fff" stop-opacity=".392"/></linearGradient><radialGradient cx="62.625" cy="4.625" r="10.625" id="i" gradientUnits="userSpaceOnUse" gradientTransform="matrix(2.1647 0 0 .75294 -111.565 36.518)"><stop offset="0"/><stop offset="1" stop-opacity="0"/></radialGradient><linearGradient x1="71.204" y1="6.238" x2="71.204" y2="44.341" id="d" gradientUnits="userSpaceOnUse" gradientTransform="matrix(.45946 0 0 -.45946 -8.96 36.65)"><stop offset="0" stop-color="#fff"/><stop offset=".508" stop-color="#fff" stop-opacity=".235"/><stop offset=".835" stop-color="#fff" stop-opacity=".157"/><stop offset="1" stop-color="#fff" stop-opacity=".392"/></linearGradient><radialGradient cx="23.896" cy="3.99" r="20.397" id="e" gradientUnits="userSpaceOnUse" gradientTransform="matrix(0 .87965 -1.16113 0 28.633 -4.084)"><stop offset="0" stop-color="#f8b17e"/><stop offset=".262" stop-color="#e35d4f"/><stop offset=".661" stop-color="#c6262e"/><stop offset="1" stop-color="#690b54"/></radialGradient><linearGradient x1="7.078" y1="3.082" x2="7.078" y2="45.369" id="f" gradientUnits="userSpaceOnUse" gradientTransform="translate(15.154 16.154) scale(.36857)"><stop offset="0" stop-color="#791235"/><stop offset="1" stop-color="#c7321f"/></linearGradient><linearGradient x1="71.204" y1="6.238" x2="71.204" y2="44.341" id="c" gradientUnits="userSpaceOnUse" gradientTransform="translate(-1.204 16.09) scale(.35135)"><stop offset="0" stop-color="#fff"/><stop offset=".508" stop-color="#fff" stop-opacity=".235"/><stop offset=".835" stop-color="#fff" stop-opacity=".157"/><stop offset="1" stop-color="#fff" stop-opacity=".392"/></linearGradient><radialGradient cx="23.896" cy="3.99" r="20.397" id="g" gradientUnits="userSpaceOnUse" gradientTransform="matrix(0 2.28744 -3.01938 0 36.047 -50.63)"><stop offset="0" stop-color="#fff"/><stop offset=".262" stop-color="#ddd"/><stop offset=".661" stop-color="#abacae"/><stop offset="1" stop-color="#89898b"/></radialGradient><linearGradient x1="18.379" y1="44.98" x2="18.379" y2="3.082" id="h" gradientUnits="userSpaceOnUse" gradientTransform="translate(.997 1.998) scale(.95843)"><stop offset="0" stop-color="#505050"/><stop offset="1" stop-color="#aaa"/></linearGradient><linearGradient id="a"><stop offset="0" stop-color="#fff"/><stop offset="1" stop-color="#fff" stop-opacity="0"/></linearGradient><linearGradient x1="68.313" y1="52.925" x2="68.313" y2="65.922" id="r" xlink:href="#a" gradientUnits="userSpaceOnUse"/><linearGradient x1="71.204" y1="6.238" x2="71.204" y2="44.341" id="q" xlink:href="#b" gradientUnits="userSpaceOnUse" gradientTransform="translate(-47.734 -.357)"/><linearGradient x1="71.204" y1="6.238" x2="71.204" y2="44.341" id="p" xlink:href="#c" gradientUnits="userSpaceOnUse" gradientTransform="translate(-1.204 16.09) scale(.35135)"/><linearGradient x1="71.204" y1="6.238" x2="71.204" y2="44.341" id="o" xlink:href="#d" gradientUnits="userSpaceOnUse" gradientTransform="matrix(.45946 0 0 -.45946 -8.96 36.65)"/><radialGradient cx="23.896" cy="3.99" r="20.397" id="m" xlink:href="#e" gradientUnits="userSpaceOnUse" gradientTransform="matrix(0 .87965 -1.16113 0 28.633 -4.084)"/><linearGradient x1="7.078" y1="3.082" x2="7.078" y2="45.369" id="n" xlink:href="#f" gradientUnits="userSpaceOnUse" gradientTransform="translate(15.154 16.154) scale(.36857)"/><radialGradient cx="23.896" cy="3.99" r="20.397" id="k" xlink:href="#g" gradientUnits="userSpaceOnUse" gradientTransform="matrix(0 2.28744 -3.01938 0 36.047 -50.63)"/><linearGradient x1="18.379" y1="44.98" x2="18.379" y2="3.082" id="l" xlink:href="#h" gradientUnits="userSpaceOnUse" gradientTransform="translate(.997 1.998) scale(.95843)"/><radialGradient cx="62.625" cy="4.625" r="10.625" id="j" xlink:href="#i" gradientUnits="userSpaceOnUse" gradientTransform="matrix(2.1647 0 0 .75294 -111.565 36.518)"/></defs><path d="M47 40c0 4.418-10.297 8-23 8S1 44.418 1 40s10.297-8 23-8 23 3.582 23 8z" opacity=".3" fill="url(#j)" fill-rule="evenodd"/><path d="M24 5.503C13.242 5.503 4.502 14.243 4.502 25c0 10.76 8.74 19.5 19.498 19.5 10.758 0 19.498-8.74 19.498-19.5 0-10.758-8.74-19.497-19.498-19.497z" fill="url(#k)" stroke="url(#l)" stroke-width="1.004" stroke-linecap="round" stroke-linejoin="round"/><path d="M24 17.502A7.503 7.503 0 0 0 16.502 25 7.503 7.503 0 0 0 24 32.498 7.503 7.503 0 0 0 31.498 25 7.503 7.503 0 0 0 24 17.502z" fill="url(#m)" stroke="url(#n)" stroke-width="1.004" stroke-linecap="round" stroke-linejoin="round"/><path d="M32.5 25a8.5 8.5 0 1 0-17 0 8.5 8.5 0 0 0 17 0z" opacity=".5" color="#000" fill="none" stroke="url(#o)" stroke-linecap="round" stroke-linejoin="round"/><path d="M30.5 25a6.5 6.5 0 1 1-13 0 6.5 6.5 0 0 1 13 0z" opacity=".5" color="#000" fill="none" stroke="url(#p)" stroke-linecap="round" stroke-linejoin="round"/><path d="M42.5 25c0 10.217-8.283 18.5-18.5 18.5S5.5 35.217 5.5 25C5.5 14.78 13.783 6.5 24 6.5c10.216 0 18.5 8.282 18.5 18.5z" opacity=".8" color="#000" fill="none" stroke="url(#q)" stroke-linecap="round" stroke-linejoin="round"/><path d="M78.34 64.35a11.424 11.424 0 1 1-22.85 0 11.424 11.424 0 1 1 22.85 0z" transform="translate(.57 .47) scale(.35013)" opacity=".4" color="#000" fill="url(#r)" overflow="visible"/></svg>