<?xml version="1.0" encoding="UTF-8" standalone="no"?>
<!-- Created with Inkscape (http://www.inkscape.org/) -->
<svg
   xmlns:dc="http://purl.org/dc/elements/1.1/"
   xmlns:cc="http://creativecommons.org/ns#"
   xmlns:rdf="http://www.w3.org/1999/02/22-rdf-syntax-ns#"
   xmlns:svg="http://www.w3.org/2000/svg"
   xmlns="http://www.w3.org/2000/svg"
   xmlns:xlink="http://www.w3.org/1999/xlink"
   xmlns:sodipodi="http://sodipodi.sourceforge.net/DTD/sodipodi-0.dtd"
   xmlns:inkscape="http://www.inkscape.org/namespaces/inkscape"
   width="48px"
   height="48px"
   id="svg2532"
   sodipodi:version="0.32"
   inkscape:version="0.46"
   sodipodi:docname="system-lock-screen.svg"
   inkscape:output_extension="org.inkscape.output.svg.inkscape">
  <defs
     id="defs2534">
    <linearGradient
       id="linearGradient10691"
       inkscape:collect="always">
      <stop
         id="stop10693"
         offset="0"
         style="stop-color:#000000;stop-opacity:1;" />
      <stop
         id="stop10695"
         offset="1"
         style="stop-color:#000000;stop-opacity:0;" />
    </linearGradient>
    <radialGradient
       inkscape:collect="always"
       xlink:href="#linearGradient10691"
       id="radialGradient3759"
       gradientUnits="userSpaceOnUse"
       gradientTransform="scale(1.902215,0.525703)"
       cx="6.702713"
       cy="73.615715"
       fx="6.702713"
       fy="73.615715"
       r="7.228416" />
    <linearGradient
       inkscape:collect="always"
       id="linearGradient3269">
      <stop
         style="stop-color:#ffffff;stop-opacity:1;"
         offset="0"
         id="stop3271" />
      <stop
         style="stop-color:#ffffff;stop-opacity:0;"
         offset="1"
         id="stop3273" />
    </linearGradient>
    <linearGradient
       inkscape:collect="always"
       xlink:href="#linearGradient3269"
       id="linearGradient3275"
       x1="19.283365"
       y1="42.361061"
       x2="19.283365"
       y2="38.499752"
       gradientUnits="userSpaceOnUse" />
    <linearGradient
       id="linearGradient2190">
      <stop
         id="stop2192"
         offset="0"
         style="stop-color:#dadada;stop-opacity:1;" />
      <stop
         id="stop2196"
         offset="1"
         style="stop-color:#707070;stop-opacity:1;" />
    </linearGradient>
    <linearGradient
       inkscape:collect="always"
       xlink:href="#linearGradient2190"
       id="linearGradient2494"
       gradientUnits="userSpaceOnUse"
       gradientTransform="matrix(0.1946618,0,0,0.1905709,9.8521826,2.9227374)"
       x1="72.67894"
       y1="204.05263"
       x2="72.67894"
       y2="180.04262" />
    <linearGradient
       id="linearGradient2327">
      <stop
         style="stop-color:#ffffff;stop-opacity:1"
         offset="0"
         id="stop2329" />
      <stop
         style="stop-color:#cccccc;stop-opacity:1"
         offset="1"
         id="stop2331" />
    </linearGradient>
    <linearGradient
       inkscape:collect="always"
       xlink:href="#linearGradient2327"
       id="linearGradient2488"
       gradientUnits="userSpaceOnUse"
       gradientTransform="matrix(0.9924391,0,0,0.9926283,8.2404794e-2,1.036414)"
       x1="32.733955"
       y1="3.1467361"
       x2="32.733955"
       y2="33.843147" />
  </defs>
  <sodipodi:namedview
     id="base"
     pagecolor="#ffffff"
     bordercolor="#666666"
     borderopacity="1.0"
     inkscape:pageopacity="0.0"
     inkscape:pageshadow="2"
     inkscape:zoom="7"
     inkscape:cx="24"
     inkscape:cy="24"
     inkscape:current-layer="layer1"
     showgrid="true"
     inkscape:grid-bbox="true"
     inkscape:document-units="px"
     inkscape:window-width="640"
     inkscape:window-height="720"
     inkscape:window-x="0"
     inkscape:window-y="88" />
  <metadata
     id="metadata2537">
    <rdf:RDF>
      <cc:Work
         rdf:about="">
        <dc:format>image/svg+xml</dc:format>
        <dc:type
           rdf:resource="http://purl.org/dc/dcmitype/StillImage" />
      </cc:Work>
    </rdf:RDF>
  </metadata>
  <g
     id="layer1"
     inkscape:label="Layer 1"
     inkscape:groupmode="layer">
    <path
       transform="matrix(1.6473388,0,0,1.8303764,2.9964303,-29.790998)"
       d="M 26.5,38.700001 A 13.75,3.8 0 1 1 -1,38.700001 A 13.75,3.8 0 1 1 26.5,38.700001 z"
       sodipodi:ry="3.8"
       sodipodi:rx="13.75"
       sodipodi:cy="38.700001"
       sodipodi:cx="12.75"
       id="path2883"
       style="opacity:0.50000000000000000;fill:url(#radialGradient3759);fill-opacity:1;fill-rule:nonzero;stroke:none;stroke-width:0.80000000999999998;stroke-linecap:butt;stroke-linejoin:miter;marker:none;marker-start:none;marker-mid:none;marker-end:none;stroke-miterlimit:4;stroke-dashoffset:0;stroke-opacity:1;visibility:visible;display:inline;overflow:visible"
       sodipodi:type="arc" />
    <path
       style="fill:#b3b3b3;fill-opacity:1;fill-rule:evenodd;stroke:#808080;stroke-width:1.03948295000000002;stroke-linecap:round;stroke-linejoin:round;stroke-miterlimit:4;stroke-dasharray:none;stroke-opacity:1"
       d="M 14,35.526545 C 14,35.526545 12.555042,41.497508 12.555042,41.896366 C 12.555042,42.273128 12.229906,44.480258 13.55316,44.480258 C 14.853258,44.480258 33.691711,44.480258 34.701414,44.480258 C 35.713017,44.480258 35.389473,41.833382 35.477129,41.623147 C 35.561909,41.419815 34,35.519741 34,35.519741 L 14,35.526545 z"
       id="path2170"
       sodipodi:nodetypes="czzzzcc" />
    <path
       style="fill:url(#linearGradient2494);fill-opacity:1;fill-rule:evenodd;stroke:url(#linearGradient3275);stroke-width:1.03868925999999995;stroke-linecap:round;stroke-linejoin:round;stroke-miterlimit:4;stroke-dasharray:none;stroke-opacity:1;opacity:0.59999999999999998"
       d="M 14,34.525812 C 14,34.525812 12.89472,40.473209 12.64145,41.398564 C 12.389904,42.317616 12.44575,42.480655 13.598327,42.480655 C 14.727635,42.480655 33.626309,42.480655 34.539502,42.480655 C 35.475667,42.480655 35.57785,42.155085 35.419707,41.388161 C 35.265067,40.63824 34,34.519344 34,34.519344 L 14,34.525812 z"
       id="path2186"
       sodipodi:nodetypes="czzzzcc" />
    <path
       style="fill:#333333;fill-opacity:1;fill-rule:evenodd;stroke:#1a1a1a;stroke-width:1.00396310999999994;stroke-linecap:round;stroke-linejoin:round;marker:none;marker-start:none;marker-mid:none;marker-end:none;stroke-miterlimit:4;stroke-dasharray:none;stroke-dashoffset:0;stroke-opacity:1;visibility:visible;display:inline;overflow:visible;enable-background:accumulate"
       d="M 2.1816804,1.5024065 C 16.727227,1.5024065 31.272774,1.5024065 45.81832,1.5024065 C 47.439906,1.489223 47.578463,3.2479462 47.469969,4.4614053 C 47.469969,14.915051 47.469965,25.368697 47.469965,35.822342 C 47.483186,37.440046 45.720238,37.57827 44.503866,37.470036 C 30.396469,37.470036 16.289075,37.470036 2.1816804,37.470036 C 0.56009286,37.48322 0.4215363,35.724497 0.53003116,34.511038 C 0.53003116,24.057391 0.53003116,13.603745 0.53003116,3.1500993 C 0.50859237,2.2644218 1.2935751,1.4810917 2.1816804,1.5024065 z"
       id="rect3170" />
    <path
       style="fill:url(#linearGradient2488);fill-opacity:1;fill-rule:evenodd;stroke:#000000;stroke-width:1.00280881000000011;stroke-linecap:round;stroke-linejoin:round;marker:none;marker-start:none;marker-mid:none;marker-end:none;stroke-miterlimit:4;stroke-dasharray:none;stroke-dashoffset:0;stroke-opacity:1;visibility:visible;display:inline;overflow:visible;enable-background:accumulate"
       d="M 2.5014045,3.5014045 C 16.833803,3.5014045 31.166199,3.5014045 45.498596,3.5014045 C 45.498596,14.167134 45.498596,24.832864 45.498596,35.498596 C 31.166199,35.498596 16.833803,35.498596 2.5014045,35.498596 C 2.5014045,24.832864 2.5014045,14.167134 2.5014045,3.5014045 z"
       id="rect4151" />
    <path
       style="opacity:0.69886360999999997;fill:#888a85;fill-opacity:1;fill-rule:nonzero;stroke:none;stroke-width:1;stroke-linecap:butt;stroke-linejoin:miter;marker:none;marker-start:none;marker-mid:none;marker-end:none;stroke-miterlimit:4;stroke-dasharray:none;stroke-dashoffset:0;stroke-opacity:1;visibility:visible;display:block;overflow:visible"
       d="M 23.562503,10.002513 C 20.563245,10.096113 18.575007,11.532667 18.575007,14.495675 L 18.575007,17.51992 L 17.900001,17.51992 C 17.404733,17.51992 17,17.859709 17,18.285239 L 17,26.23468 C 17,26.660212 17.404733,27.000001 17.900001,27 L 30.112494,27 C 30.607769,27 31,26.660212 31,26.23468 L 31,18.285239 C 31,17.85971 30.607769,17.51992 30.112494,17.51992 L 29.424994,17.51992 L 29.437497,14.545052 C 29.437497,11.399751 27.279146,10.041335 24.012503,10.002513 C 23.860204,10.000693 23.710008,9.99791 23.562503,10.002513 z M 23.862499,11.989873 C 23.917651,11.988635 23.980474,11.989873 24.0375,11.989873 C 27.661911,11.989873 27.383977,14.557585 27.437497,15.322714 L 27.437497,17.51992 L 20.612497,17.51992 L 20.612497,15.335058 C 20.599632,14.576004 20.387994,12.067947 23.862499,11.989873 z"
       id="path2086"
       inkscape:r_cx="true"
       inkscape:r_cy="true" />
  </g>
</svg>
