<svg xmlns="http://www.w3.org/2000/svg" xmlns:xlink="http://www.w3.org/1999/xlink" viewBox="0 0 48 48"><defs><linearGradient id="a"><stop offset="0"/><stop offset="1" stop-opacity="0"/></linearGradient><radialGradient cx="62.625" cy="4.625" r="10.625" fx="62.625" fy="4.625" id="g" xlink:href="#a" gradientUnits="userSpaceOnUse" gradientTransform="matrix(1 0 0 .34118 0 3.047)"/><linearGradient id="b"><stop offset="0" stop-color="#b0cce6"/><stop offset="1" stop-color="#83acd5"/></linearGradient><linearGradient x1="15.373" y1="5.047" x2="15.373" y2="22.6" id="h" xlink:href="#b" gradientUnits="userSpaceOnUse" gradientTransform="translate(.493 2.895) scale(.95437)"/><linearGradient id="c"><stop offset="0" stop-color="#387ab8"/><stop offset="1" stop-color="#387ab8" stop-opacity="0"/></linearGradient><linearGradient x1="33.687" y1="35.774" x2="37.04" y2="29.857" id="j" xlink:href="#c" gradientUnits="userSpaceOnUse"/><linearGradient id="d"><stop offset="0" stop-color="#83acd5"/><stop offset="1" stop-color="#83acd5" stop-opacity="0"/></linearGradient><linearGradient x1="31.226" y1="34.601" x2="34.966" y2="26.843" id="i" xlink:href="#d" gradientUnits="userSpaceOnUse"/><linearGradient id="e"><stop offset="0" stop-color="#fff"/><stop offset="1" stop-color="#fff" stop-opacity="0"/></linearGradient><linearGradient x1="21.629" y1="2.11" x2="22.245" y2="43.366" id="k" xlink:href="#e" gradientUnits="userSpaceOnUse" gradientTransform="translate(.493 2.895) scale(.95437)"/><linearGradient id="f"><stop offset="0" stop-color="#fff" stop-opacity="0"/><stop offset=".574" stop-color="#fff" stop-opacity=".144"/><stop offset="1" stop-color="#fff" stop-opacity="0"/></linearGradient><linearGradient x1="33.387" y1="41.887" x2="39.686" y2="28.505" id="l" xlink:href="#f" gradientUnits="userSpaceOnUse" gradientTransform="translate(.493 2.895) scale(.95437)"/></defs><path d="M73.25 4.625a10.625 3.625 0 1 1-21.25 0 10.625 3.625 0 1 1 21.25 0z" transform="matrix(2.14987 0 0 2.56366 -110.636 26.85)" opacity=".3" fill="url(#g)" fill-rule="evenodd" overflow="visible"/><path d="M23.828 33.832c-4.895-.054-8.935-4.723-8.88-9.597.053-4.873 4.442-9.064 9.337-9.01 2.364.025 4.654.785 6.352 2.423l-4.405 4.06h16.02V5.904L38.03 10.11c-3.71-3.643-7.997-5.553-13.47-5.613-11.13-.124-20.01 8.946-20.134 20.03-.123 11.084 8.736 19.754 19.87 19.877" fill="url(#h)" stroke="#387ab8" stroke-linejoin="round"/><path d="M23.864 44.402c9.31.102 19.73-7.09 19.712-19.526l-9.86-.077c-.18 5.07-5.498 9.214-9.92 9.025" fill="url(#i)" stroke="url(#j)"/><path d="M23.798 34.846c-5.423-.08-9.987-4.24-9.992-10.52-.005-5.397 5.11-10.344 10.534-10.264 2.673.04 5.968 1.188 7.982 3.465l-3.236 3.08 12.07.02V8.555l-3.154 3.236c-3.542-3.95-8.066-5.97-13.607-6.025-10.598-.106-18.72 8.273-18.803 18.87.26 11.857 9.393 18.62 18.703 18.822" opacity=".4" fill="none" stroke="url(#k)" stroke-width="1.193"/><path d="M23.932 43.168c7.953 0 18.586-5.406 18.686-18.26L34.56 24.7c.008 5.217-5.558 10.102-11.12 10.267" fill="none" stroke="url(#l)" stroke-width="1.193" stroke-linejoin="round"/></svg>