<svg xmlns="http://www.w3.org/2000/svg" xmlns:xlink="http://www.w3.org/1999/xlink" viewBox="0 0 48 48"><defs><linearGradient id="c"><stop offset="0"/><stop offset="1" stop-opacity="0"/></linearGradient><linearGradient id="b"><stop offset="0" stop-color="#797a78"/><stop offset="1" stop-color="#555754"/></linearGradient><linearGradient id="a"><stop offset="0" stop-color="#fff"/><stop offset="1" stop-color="#fff" stop-opacity=".34"/></linearGradient><linearGradient x1="31.865" y1="17.13" x2="16.145" y2="32.85" id="f" xlink:href="#a" gradientUnits="userSpaceOnUse" gradientTransform="matrix(1.0318 -1.02874 1.0318 1.02874 -26.553 26.473)"/><linearGradient x1="23.946" y1="7.509" x2="23.946" y2="42.576" id="e" xlink:href="#b" gradientUnits="userSpaceOnUse" gradientTransform="translate(0 2.51)"/><radialGradient cx="23.071" cy="35.127" r="10.319" fx="23.071" fy="35.127" id="d" xlink:href="#c" gradientUnits="userSpaceOnUse" gradientTransform="matrix(2.10517 .02428 -.0189 .40984 -23.646 28.67)"/></defs><path d="M47.747 43.547C47.747 46.007 37.115 48 24 48S.253 46.007.253 43.547 10.885 39.095 24 39.095s23.747 1.993 23.747 4.452z" opacity=".256" fill="url(#d)"/><path d="M41.892 37.52L31.5 27.503l10-10.494-7.21-6.5-10.29 10-10.5-10L6 17.246 16.5 27.46 6 37.51l7.5 7 10.488-10.5L34.5 44.51l7.392-6.99z" style="text-align:start;line-height:125%" font-size="59.901" font-weight="700" fill="url(#e)" stroke="#4d4d4d" stroke-width=".982" stroke-linejoin="round" font-family="Bitstream Vera Sans"/><path d="M40 17.01l-5.65-5.132L24 22.008 13.442 11.895 7.5 17.28M18 27.453L7.5 37.51m32.942 0L30 27.51" style="text-align:start;line-height:125%" font-size="59.901" font-weight="700" opacity=".4" fill="none" stroke="url(#f)" stroke-width=".982" font-family="Bitstream Vera Sans"/></svg>