<svg xmlns="http://www.w3.org/2000/svg" xmlns:xlink="http://www.w3.org/1999/xlink" viewBox="0 0 128 128"><defs><linearGradient x1="-64.288" y1="2.93" x2="-64.288" y2="53.717" id="j" xlink:href="#a" gradientUnits="userSpaceOnUse" gradientTransform="matrix(2.12708 0 0 2.12918 203.344 3.695)"/><linearGradient id="a"><stop offset="0" stop-color="#fff"/><stop offset="1" stop-color="#fff" stop-opacity="0"/></linearGradient><linearGradient x1="14" y1="2" x2="32" y2="40" id="i" xlink:href="#b" gradientUnits="userSpaceOnUse" gradientTransform="matrix(6.27595 0 0 2.97022 -74.04 -79.125)"/><linearGradient id="b"><stop offset="0" stop-color="#fff"/><stop offset="1" stop-color="#fff" stop-opacity="0"/></linearGradient><linearGradient x1="18.601" y1=".854" x2="18.601" y2="49.956" id="g" xlink:href="#c" gradientUnits="userSpaceOnUse" gradientTransform="matrix(2.63417 0 0 2.27513 46.847 -57.77)"/><linearGradient id="c"><stop offset="0" stop-color="#f4f4f4"/><stop offset="1" stop-color="#dbdbdb"/></linearGradient><linearGradient x1="-74.785" y1="54.703" x2="-74.785" y2="2.104" id="h" xlink:href="#d" gradientUnits="userSpaceOnUse" gradientTransform="matrix(2.12708 0 0 2.12918 203.344 -60.305)"/><linearGradient id="d"><stop offset="0" stop-color="#aaa"/><stop offset="1" stop-color="#c8c8c8"/></linearGradient><linearGradient id="e"><stop offset="0"/><stop offset="1" stop-opacity="0"/></linearGradient><radialGradient cx="23.335" cy="41.636" r="22.627" fx="23.335" fy="41.636" id="f" xlink:href="#e" gradientUnits="userSpaceOnUse" gradientTransform="matrix(1.59603 0 0 .46185 26.643 29.262)"/></defs><path d="M100 48.49c-1.357 5.306-7.59 6.33-12.025 7.746-16.018 3.807-32.955 3.614-48.957-.165-4.004-1.11-8.6-2.56-10.914-6.29-1.04-5.46 5.96-7.26 9.938-8.53 15.352-4.24 31.68-3.99 47.255-1.17 5.062 1.15 10.764 2.5 14.218 6.7l.355.826.13.894z" opacity=".3" fill="url(#f)" fill-rule="evenodd" overflow="visible" transform="translate(0 64)"/><path d="M61.313-54.495c-6.932.077-14.385.708-19.464 5.47-7.78 7.292-6.8 12.337-7.57 22.318-1.56 20.375-.957 48.3 3.186 68.36 1.215 5.885 6.765 10.026 12.653 11.16 4.52.87 9.192 1.528 13.872 1.687 4.68-.16 9.352-.818 13.87-1.688 5.89-1.133 11.44-5.274 12.654-11.16 4.143-20.06 4.747-47.984 3.187-68.36-.764-9.98.22-15.025-7.56-22.317-5.08-4.762-12.533-5.393-19.465-5.47-.908-.01-1.807 0-2.69 0-.882 0-1.78-.01-2.687 0z" color="#000" fill="url(#g)" stroke="url(#h)" stroke-linejoin="round" overflow="visible" transform="translate(0 64)"/><path d="M61.125-53.563c-6.91.086-14.137.746-18.938 5.22-3.697 3.445-5.22 8.064-5.906 13.156-.68 5.09-.51 10.59-.9 15.656-1.11 14.4-1.36 29.01.067 43.4l56.03-57.97a254.888 254.888 0 0 0-.624-4.66C89.896-45.337 84.636-50.69 78.19-52c-4.67-.95-9.41-1.557-14.127-1.564-.965 0-1.95-.012-2.937 0z" opacity=".4" fill="url(#i)" overflow="visible" transform="translate(0 64)"/><path d="M61.313 10.438c-6.883.076-14.042.745-18.813 5.218-3.795 3.558-5.373 6.432-6.156 9.688-.784 3.256-.74 6.966-1.125 12-1.56 20.29-.93 48.216 3.18 68.125 1.12 5.41 6.33 9.33 11.904 10.4 4.466.86 9.064 1.523 13.656 1.69h.06c4.594-.16 9.19-.83 13.658-1.69 5.576-1.076 10.79-5 11.907-10.41 4.11-19.91 4.74-47.835 3.19-68.125-.386-5.033-.34-8.743-1.126-12-.784-3.255-2.36-6.13-6.157-9.687-4.77-4.473-11.93-5.14-18.814-5.22-.89-.008-1.8 0-2.687.002-.89-.002-1.796-.01-2.69 0z" transform="matrix(.998 0 0 .9988 .13 .08)" color="#000" fill="none" stroke="url(#j)" stroke-width="1.002" stroke-linejoin="round" overflow="visible"/></svg>