<?xml version="1.0" encoding="UTF-8" standalone="no"?>
<!-- Created with Inkscape (http://www.inkscape.org/) -->
<svg
   xmlns:svg="http://www.w3.org/2000/svg"
   xmlns="http://www.w3.org/2000/svg"
   xmlns:xlink="http://www.w3.org/1999/xlink"
   version="1.0"
   width="22"
   height="22"
   id="svg3366">
  <defs
     id="defs3368">
    <linearGradient
       id="linearGradient4711-257">
      <stop
         id="stop4963"
         style="stop-color:#643340;stop-opacity:1"
         offset="0" />
      <stop
         id="stop4965"
         style="stop-color:#a77a86;stop-opacity:1"
         offset="1" />
    </linearGradient>
    <linearGradient
       x1="-51.786404"
       y1="53.623615"
       x2="-51.786404"
       y2="2.9062471"
       id="linearGradient2571"
       xlink:href="#linearGradient4711-257"
       gradientUnits="userSpaceOnUse"
       gradientTransform="matrix(0.3922137,0,0,0.4473607,28.199292,-1.7387182)" />
    <linearGradient
       id="linearGradient4145-42">
      <stop
         id="stop4953"
         style="stop-color:#e694bb;stop-opacity:1"
         offset="0" />
      <stop
         id="stop4955"
         style="stop-color:#d3819a;stop-opacity:1"
         offset="0.26238" />
      <stop
         id="stop4957"
         style="stop-color:#b25a64;stop-opacity:1"
         offset="0.704952" />
      <stop
         id="stop4959"
         style="stop-color:#98313d;stop-opacity:1"
         offset="1" />
    </linearGradient>
    <radialGradient
       cx="14.239056"
       cy="11.49049"
       r="18.000002"
       fx="14.239056"
       fy="11.49049"
       id="radialGradient2569"
       xlink:href="#linearGradient4145-42"
       gradientUnits="userSpaceOnUse"
       gradientTransform="matrix(0,1.5890979,-2.5735756,0,35.378535,-19.997893)" />
    <linearGradient
       id="linearGradient3211">
      <stop
         id="stop3213"
         style="stop-color:#ffffff;stop-opacity:1"
         offset="0" />
      <stop
         id="stop3215"
         style="stop-color:#ffffff;stop-opacity:0"
         offset="1" />
    </linearGradient>
    <linearGradient
       x1="24"
       y1="1.9999999"
       x2="24"
       y2="46.01725"
       id="linearGradient2429"
       xlink:href="#linearGradient3211"
       gradientUnits="userSpaceOnUse"
       gradientTransform="matrix(0.4545444,0,0,0.4418595,9.093361e-2,0.3953678)" />
    <linearGradient
       id="linearGradient8265-821-176-38-919-66-249">
      <stop
         id="stop2687"
         style="stop-color:#ffffff;stop-opacity:1"
         offset="0" />
      <stop
         id="stop2689"
         style="stop-color:#ffffff;stop-opacity:0"
         offset="1" />
    </linearGradient>
    <linearGradient
       x1="16.626165"
       y1="15.298182"
       x2="20.054544"
       y2="24.627615"
       id="linearGradient2559"
       xlink:href="#linearGradient8265-821-176-38-919-66-249"
       gradientUnits="userSpaceOnUse"
       gradientTransform="matrix(0.3482993,0,0,0.6967199,2.640816,-3.1585471)" />
    <linearGradient
       id="linearGradient8589">
      <stop
         id="stop8591"
         style="stop-color:#fefefe;stop-opacity:1"
         offset="0" />
      <stop
         id="stop8593"
         style="stop-color:#cbcbcb;stop-opacity:1"
         offset="1" />
    </linearGradient>
    <linearGradient
       x1="32.892288"
       y1="8.0590115"
       x2="36.358372"
       y2="5.4565363"
       id="linearGradient2425"
       xlink:href="#linearGradient8589"
       gradientUnits="userSpaceOnUse"
       gradientTransform="matrix(0.4778466,0,0,0.5524833,-0.6277461,-7.61283e-2)" />
    <linearGradient
       id="linearGradient4106">
      <stop
         id="stop4108"
         style="stop-color:#51293c;stop-opacity:1"
         offset="0" />
      <stop
         id="stop4110"
         style="stop-color:#876374;stop-opacity:1"
         offset="1" />
    </linearGradient>
    <linearGradient
       x1="24.239185"
       y1="44.110138"
       x2="24.239185"
       y2="0.19081046"
       id="linearGradient2592"
       xlink:href="#linearGradient4106"
       gradientUnits="userSpaceOnUse"
       gradientTransform="matrix(0.5042588,0,0,0.5029191,-21.667139,-1.2959437)" />
    <linearGradient
       id="linearGradient5293">
      <stop
         id="stop5295"
         style="stop-color:#ffffff;stop-opacity:1"
         offset="0" />
      <stop
         id="stop5297"
         style="stop-color:#ffffff;stop-opacity:0"
         offset="1" />
    </linearGradient>
    <linearGradient
       x1="75.854454"
       y1="28"
       x2="91"
       y2="12"
       id="linearGradient2590"
       xlink:href="#linearGradient5293"
       gradientUnits="userSpaceOnUse"
       gradientTransform="matrix(0.5606869,0,0,0.4468189,-52.857911,1.6762608)"
       spreadMethod="reflect" />
    <linearGradient
       id="linearGradient4000">
      <stop
         id="stop4002"
         style="stop-color:#000000;stop-opacity:1"
         offset="0" />
      <stop
         id="stop4004"
         style="stop-color:#000000;stop-opacity:0"
         offset="1" />
    </linearGradient>
    <linearGradient
       x1="75.854454"
       y1="28"
       x2="91"
       y2="12"
       id="linearGradient2588"
       xlink:href="#linearGradient4000"
       gradientUnits="userSpaceOnUse"
       gradientTransform="matrix(0.5606869,0,0,0.4468189,-52.857911,2.2163939)"
       spreadMethod="reflect" />
  </defs>
  <g
     id="layer1">
    <path
       d="M 2.4999608,0.499961 C 6.3955407,0.499961 10.104416,0.499961 13.999999,0.499961 C 14.683367,0.7372579 18.541324,3.628131 19.499999,5.5 C 19.499999,11.229157 19.500038,15.770842 19.500038,21.5 L 2.4999608,21.5 C 2.4999608,14.16664 2.4999608,7.8333189 2.4999608,0.499961 L 2.4999608,0.499961 z"
       id="path4160"
       style="opacity:1;fill:url(#radialGradient2569);fill-opacity:1;fill-rule:nonzero;stroke:url(#linearGradient2571);stroke-width:0.9999218;stroke-linecap:butt;stroke-linejoin:round;marker:none;marker-start:none;marker-mid:none;marker-end:none;stroke-miterlimit:4;stroke-dasharray:none;stroke-dashoffset:0;stroke-opacity:1;visibility:visible;display:inline;overflow:visible;enable-background:accumulate" />
    <path
       d="M 18.5,5.4681839 C 18.5,10.416074 18.5,15.552108 18.5,20.5 C 13.5,20.5 8.5000003,20.5 3.4999991,20.5 C 3.4999991,14.166663 3.4999991,7.8333324 3.4999991,1.4999999 C 6.9372605,1.4999999 10.456498,1.4999999 13.89376,1.4999999"
       id="path2435"
       style="opacity:0.4;fill:none;stroke:url(#linearGradient2429);stroke-width:0.99999988;stroke-linecap:butt;stroke-linejoin:miter;stroke-miterlimit:4;stroke-dasharray:none;stroke-dashoffset:0;stroke-opacity:1;display:inline" />
    <path
       d="M 13.075473,1 C 14.231776,1.3287671 13.414532,5.6143789 13.414532,5.6143789 C 13.414532,5.6143789 17.92992,5.1866427 19.022242,6.809375 C 20.511395,9.0216317 18.954022,6.1742029 18.848795,5.9876778 C 18.092867,4.6476323 14.982455,1.4405918 13.803386,1.0464703 C 13.715154,1.0169778 13.51951,1 13.075473,1 z"
       id="path3370"
       style="opacity:0.2;fill:#000000;fill-opacity:1;fill-rule:evenodd;stroke:none;display:inline" />
    <path
       d="M 3.761904,0.99999974 C 3.341062,0.99999974 3,1.6822432 3,2.5240731 L 3,13.671593 C 3.000965,13.765372 3.021524,13.854055 3.056685,13.916116 C 3.091847,13.978178 3.138396,14.007941 3.185033,13.998178 L 18.858503,9.0340487 C 18.939128,9.0086152 18.998873,8.8707152 19,8.7074612 L 19,5.7073195 C 19,5.7073195 13.901785,0.99999974 13.901785,0.99999974 L 3.761904,0.99999974 z"
       id="path3879"
       style="opacity:0.2;fill:url(#linearGradient2559);fill-opacity:1;fill-rule:evenodd;stroke:none;stroke-width:1.00213289;stroke-linecap:round;stroke-linejoin:round;stroke-miterlimit:4;stroke-dasharray:none;stroke-dashoffset:0;stroke-opacity:1" />
    <path
       d="M 12.999999,1 C 14.526165,1 13.999999,5 13.999999,5 C 13.999999,5 18.992073,4.54674 18.992073,7 C 18.992073,6.4022581 19.047823,5.5215662 18.928003,5.3440674 C 18.088896,4.1010616 15.184238,1.4821803 14.129934,1.0464703 C 14.043956,1.0109384 13.444036,1 12.999999,1 z"
       id="path4474"
       style="fill:url(#linearGradient2425);fill-opacity:1;fill-rule:evenodd;stroke:none;display:inline" />
    <g
       transform="translate(22.574296,-0.13253)"
       id="g2582">
      <path
         d="M -7.229179,7.5782217 C -7.43511,7.5700262 -7.640309,7.5793281 -7.84101,7.5954071 C -9.607174,7.7369068 -11.134148,8.8037538 -11.721303,10.499731 C -12.083102,11.54478 -12.010801,12.651777 -11.624699,13.679019 L -19.574296,20.64641 L -19.574296,21.13253 L -14.87168,21.13253 L -14.973666,19.797002 L -12.381436,20.312563 L -12.075521,17.9238 L -9.6443,18.439361 L -8.05032,17.081718 C -6.422548,17.609712 -4.770771,17.33998 -3.574297,16.463045 C -3.574297,14.551386 -3.574297,12.657535 -3.574297,10.740326 C -3.771804,10.790005 -4.000998,10.777716 -4.218329,10.68877 C -4.7489,10.471624 -5.048591,9.8912817 -4.878462,9.3998677 C -4.750866,9.0313111 -4.384671,8.7924128 -3.992918,8.7983809 C -3.862334,8.8003713 -3.723041,8.8300216 -3.590397,8.8843077 C -3.583216,8.8872472 -3.581386,8.8984215 -3.574297,8.9014932 C -3.574297,8.602759 -3.574297,8.3061108 -3.574297,8.0078554 C -4.092648,7.8684091 -4.614488,7.925144 -5.023369,8.1625232 C -5.134368,8.1086285 -5.229792,8.0379792 -5.345385,7.9906701 C -5.969632,7.7351864 -6.611386,7.6028082 -7.229179,7.5782217 z"
         id="path5316"
         style="opacity:0.1;fill:url(#linearGradient2588);fill-opacity:1;fill-rule:nonzero;stroke:none;stroke-width:0.91176528;stroke-linecap:butt;stroke-linejoin:miter;marker:none;marker-start:none;marker-mid:none;marker-end:none;stroke-miterlimit:4;stroke-dasharray:none;stroke-dashoffset:0;stroke-opacity:1;visibility:visible;display:inline;overflow:visible;enable-background:accumulate" />
      <path
         d="M -7.229179,7.0380886 C -7.43511,7.0298926 -7.640309,7.0391946 -7.84101,7.0552739 C -9.607174,7.1967738 -11.134148,8.2636201 -11.721303,9.9595967 C -12.083102,11.004646 -12.010801,12.111643 -11.624699,13.138886 L -19.574296,20.16029 C -19.574296,20.16029 -19.552539,21.13253 -19.552539,21.13253 C -17.977944,21.13253 -16.403356,21.13253 -14.828759,21.13253 L -14.973666,19.25687 L -12.381436,19.772431 L -12.075521,17.383667 L -9.6443,17.899228 L -8.05032,16.541585 C -6.422548,17.069579 -4.770771,16.799846 -3.574297,15.922914 C -3.574297,14.011253 -3.574297,12.117402 -3.574297,10.200192 C -3.771804,10.249871 -4.000998,10.237582 -4.218329,10.148637 C -4.7489,9.9314897 -5.048591,9.3511487 -4.878462,8.8597358 C -4.750866,8.4911786 -4.384671,8.2522798 -3.992918,8.2582479 C -3.862334,8.2602376 -3.723041,8.2898886 -3.590397,8.3441749 C -3.583216,8.347114 -3.581386,8.3582885 -3.574297,8.3613597 C -3.574297,8.0626255 -3.574297,7.7659776 -3.574297,7.4677217 C -4.092648,7.3282754 -4.614488,7.3850109 -5.023369,7.62239 C -5.134368,7.5684954 -5.229792,7.4978456 -5.345385,7.4505364 C -5.969632,7.1950534 -6.611386,7.0626752 -7.229179,7.0380886 z"
         id="path5283"
         style="opacity:0.4;fill:url(#linearGradient2590);fill-opacity:1;fill-rule:nonzero;stroke:none;stroke-width:0.91176528;stroke-linecap:butt;stroke-linejoin:miter;marker:none;marker-start:none;marker-mid:none;marker-end:none;stroke-miterlimit:4;stroke-dasharray:none;stroke-dashoffset:0;stroke-opacity:1;visibility:visible;display:inline;overflow:visible;enable-background:accumulate" />
      <path
         d="M -8.925912,17.132531 C -9.176349,16.263322 -9.323859,15.001741 -9.574297,14.132531 C -10.836505,14.132531 -12.098714,14.132531 -13.360924,14.132531 C -13.613867,15.001741 -13.969739,16.263322 -14.222681,17.132531 C -15.006552,17.132531 -15.790425,17.132531 -16.574297,17.132531 C -15.384715,13.465865 -14.195132,9.7991967 -13.005551,6.1325307 C -12.05639,6.1325307 -11.107229,6.1325307 -10.158069,6.1325307 C -8.963478,9.7991967 -7.768887,13.465865 -6.574297,17.132531 C -7.358169,17.132531 -8.14204,17.132531 -8.925912,17.132531 z M -10.218172,12.576674 C -10.630888,11.12399 -11.106294,9.6884897 -11.464536,8.2211427 C -11.533742,8.0001157 -11.564342,7.4123289 -11.628301,7.9571272 C -11.978133,9.5163377 -12.460505,11.041295 -12.900366,12.576674 C -12.006304,12.576674 -11.112237,12.576674 -10.218172,12.576674 z"
         id="path3467"
         style="font-size:30.51395607px;font-style:normal;font-variant:normal;font-weight:bold;font-stretch:normal;opacity:0.4;fill:#ffffff;fill-opacity:1;fill-rule:nonzero;stroke:none;stroke-width:1px;stroke-linecap:butt;stroke-linejoin:miter;marker:none;marker-start:none;marker-mid:none;marker-end:none;stroke-miterlimit:4;stroke-dasharray:none;stroke-dashoffset:0;stroke-opacity:1;visibility:visible;display:inline;overflow:visible;enable-background:accumulate;font-family:Droid Sans;-inkscape-font-specification:Droid Sans Bold" />
      <path
         d="M -8.925912,16.132531 C -9.176349,15.263322 -9.323859,14.001741 -9.574297,13.132531 C -10.836505,13.132531 -12.098714,13.132531 -13.360924,13.132531 C -13.613867,14.001741 -13.969739,15.263322 -14.222681,16.132531 C -15.006552,16.132531 -15.790425,16.132531 -16.574297,16.132531 C -15.384715,12.465865 -14.195132,8.7991967 -13.005551,5.1325307 C -12.05639,5.1325307 -11.107229,5.1325307 -10.158069,5.1325307 C -8.963478,8.7991967 -7.768887,12.465865 -6.574297,16.132531 C -7.358169,16.132531 -8.14204,16.132531 -8.925912,16.132531 z M -10.218172,11.132531 C -10.498789,9.9926277 -11.457073,7.4743173 -11.574297,7.1325307 C -11.924129,8.6917412 -12.460505,9.5971517 -12.900366,11.132531 C -12.006304,11.132531 -11.112237,11.132531 -10.218172,11.132531 z"
         id="text3893"
         style="font-size:30.51395607px;font-style:normal;font-variant:normal;font-weight:bold;font-stretch:normal;fill:url(#linearGradient2592);fill-opacity:1;stroke:none;stroke-width:1px;stroke-linecap:butt;stroke-linejoin:miter;stroke-opacity:1;font-family:Droid Sans;-inkscape-font-specification:Droid Sans Bold" />
    </g>
  </g>
</svg>
