<svg xmlns="http://www.w3.org/2000/svg" xmlns:xlink="http://www.w3.org/1999/xlink" viewBox="0 0 128 128"><defs><linearGradient x1="38.941" y1="15.991" x2="20.576" y2="15.991" id="t" xlink:href="#a" gradientUnits="userSpaceOnUse" gradientTransform="matrix(0 -2.38727 -2.5658 0 88.878 55.25)"/><linearGradient id="a"><stop offset="0" stop-color="#fff"/><stop offset=".512" stop-color="#fff" stop-opacity=".235"/><stop offset=".585" stop-color="#fff" stop-opacity=".157"/><stop offset="1" stop-color="#fff" stop-opacity=".392"/></linearGradient><linearGradient x1="23.732" y1="4.418" x2="23.732" y2="42.04" id="r" xlink:href="#b" gradientUnits="userSpaceOnUse" gradientTransform="matrix(-2.1894 0 0 2.03705 92.78 -54.956)"/><linearGradient id="b"><stop offset="0" stop-color="#fff3cb"/><stop offset=".262" stop-color="#fdde76"/><stop offset=".661" stop-color="#f9c440"/><stop offset="1" stop-color="#e48b20"/></linearGradient><linearGradient x1="35.998" y1="37.039" x2="35.998" y2="4.004" id="s" xlink:href="#c" gradientUnits="userSpaceOnUse" gradientTransform="matrix(-2.1894 0 0 2.03705 92.78 -54.956)"/><linearGradient id="c"><stop offset="0" stop-color="#b67926"/><stop offset="1" stop-color="#eab41a"/></linearGradient><radialGradient cx="24.837" cy="36.421" r="15.645" fx="24.837" fy="36.421" id="q" xlink:href="#d" gradientUnits="userSpaceOnUse" gradientTransform="matrix(1 0 0 .53672 0 16.873)"/><linearGradient id="d"><stop offset="0"/><stop offset="1" stop-opacity="0"/></linearGradient><linearGradient x1="24" y1="5.564" x2="24" y2="43" id="p" xlink:href="#e" gradientUnits="userSpaceOnUse" gradientTransform="matrix(2.45946 0 0 3.1081 4.973 -78.595)"/><linearGradient id="e"><stop offset="0" stop-color="#fff"/><stop offset=".036" stop-color="#fff" stop-opacity=".235"/><stop offset=".951" stop-color="#fff" stop-opacity=".157"/><stop offset="1" stop-color="#fff" stop-opacity=".392"/></linearGradient><linearGradient x1="25.132" y1=".985" x2="25.132" y2="47.013" id="n" xlink:href="#f" gradientUnits="userSpaceOnUse" gradientTransform="matrix(2.65714 0 0 2.54222 .23 -68.913)"/><linearGradient id="f"><stop offset="0" stop-color="#f4f4f4"/><stop offset="1" stop-color="#dbdbdb"/></linearGradient><linearGradient x1="-51.786" y1="50.786" x2="-51.786" y2="2.906" id="o" xlink:href="#g" gradientUnits="userSpaceOnUse" gradientTransform="matrix(2.14563 0 0 2.37914 158.09 -71.746)"/><linearGradient id="g"><stop offset="0" stop-color="#a0a0a0"/><stop offset="1" stop-color="#bebebe"/></linearGradient><linearGradient x1="25.058" y1="47.028" x2="25.058" y2="39.999" id="m" xlink:href="#h" gradientUnits="userSpaceOnUse" gradientTransform="matrix(3.14286 0 0 1.2857 -11.43 -2.43)"/><linearGradient id="h"><stop offset="0" stop-color="#181818" stop-opacity="0"/><stop offset=".5" stop-color="#181818"/><stop offset="1" stop-color="#181818" stop-opacity="0"/></linearGradient><radialGradient cx="4.993" cy="43.5" r="2.5" fx="4.993" fy="43.5" id="l" xlink:href="#i" gradientUnits="userSpaceOnUse" gradientTransform="matrix(2.40454 0 0 1.8 -32.014 -131.8)"/><linearGradient id="i"><stop offset="0" stop-color="#181818"/><stop offset="1" stop-color="#181818" stop-opacity="0"/></linearGradient><linearGradient id="j"><stop offset="0" stop-color="#181818"/><stop offset="1" stop-color="#181818" stop-opacity="0"/></linearGradient><radialGradient cx="4.993" cy="43.5" r="2.5" fx="4.993" fy="43.5" id="k" xlink:href="#j" gradientUnits="userSpaceOnUse" gradientTransform="matrix(2.40454 0 0 1.8 95.986 -24.8)"/></defs><path opacity=".4" fill="url(#k)" d="M108 49h6v9h-6z" transform="translate(0 64)"/><path transform="rotate(180 0 32)" opacity=".4" fill="url(#l)" d="M-20-58h6v9h-6z"/><path opacity=".4" fill="url(#m)" d="M20 49h88v9H20z" transform="translate(0 64)"/><path d="M17.5-62.5c21.31 0 93 .007 93 .007V54.5h-93v-117z" fill="url(#n)" stroke="url(#o)" stroke-linejoin="round" transform="translate(0 64)"/><path d="M109.5 53.5h-91v-115h91z" fill="none" stroke="url(#p)" stroke-linecap="round" stroke-linejoin="round" transform="translate(0 64)"/><path d="M40.482 36.42a15.645 8.397 0 1 1-31.29 0 15.645 8.397 0 1 1 31.29 0z" transform="matrix(2.01346 0 0 -2.67956 .473 174.092)" opacity=".141" fill="url(#q)" fill-rule="evenodd" overflow="visible"/><path d="M58.482 23.5c27.8-18.76 11.986-53.283-19-53v-16l-37 27.57 37 27.43v-16c19.985-.775 32.287 16.91 18 30z" fill="url(#r)" stroke="url(#s)" stroke-width=".964" stroke-linejoin="round" stroke-miterlimit="7" display="block" overflow="visible" transform="translate(0 64)"/><path d="M61.49 20.54c21.185-19.264 8.263-49.047-23.01-49.047V-43.48L4.19-17.93 38.48 7.553v-14.9c29.11-.668 28.534 22.88 23.007 27.887z" opacity=".8" fill="none" stroke="url(#t)" stroke-width=".964" stroke-miterlimit="7" display="block" overflow="visible" transform="translate(0 64)"/></svg>