<svg xmlns="http://www.w3.org/2000/svg" xmlns:xlink="http://www.w3.org/1999/xlink" viewBox="0 0 128 128"><defs><linearGradient gradientTransform="matrix(0 1.6605 1.78396 0 23.1 23.393)" gradientUnits="userSpaceOnUse" xlink:href="#a" id="B" y2="20.924" x2="41.827" y1="20.924" x1="20.286"/><linearGradient id="a"><stop offset="0" stop-color="#fff"/><stop offset=".496" stop-color="#fff" stop-opacity=".235"/><stop offset=".692" stop-color="#fff" stop-opacity=".157"/><stop offset="1" stop-color="#fff" stop-opacity=".392"/></linearGradient><linearGradient gradientTransform="matrix(1.53194 0 0 -1.41593 20.01 100.283)" gradientUnits="userSpaceOnUse" xlink:href="#b" id="A" y2="3.158" x2="26.738" y1="32.49" x1="26.738"/><radialGradient gradientTransform="matrix(-1.28283 0 0 -.77808 84.92 112.638)" gradientUnits="userSpaceOnUse" xlink:href="#c" id="z" fy="36.421" fx="24.837" r="15.645" cy="36.421" cx="24.837"/><linearGradient id="c"><stop offset="0"/><stop offset="1" stop-opacity="0"/></linearGradient><linearGradient gradientTransform="matrix(.13275 0 0 .0206 -138.253 60.587)" gradientUnits="userSpaceOnUse" xlink:href="#d" id="t" y2="609.505" x2="302.857" y1="366.648" x1="302.857"/><linearGradient id="d"><stop offset="0" stop-opacity="0"/><stop offset=".5"/><stop offset="1" stop-opacity="0"/></linearGradient><radialGradient gradientTransform="matrix(-.03133 0 0 .0206 -103.444 60.587)" gradientUnits="userSpaceOnUse" xlink:href="#e" id="u" fy="486.648" fx="605.714" r="117.143" cy="486.648" cx="605.714"/><linearGradient id="e"><stop offset="0"/><stop offset="1" stop-opacity="0"/></linearGradient><radialGradient gradientTransform="matrix(.03133 0 0 .0206 -77.102 60.587)" gradientUnits="userSpaceOnUse" xlink:href="#e" id="v" fy="486.648" fx="605.714" r="117.143" cy="486.648" cx="605.714"/><linearGradient gradientTransform="matrix(1.91428 0 0 1.82517 -136.165 -17.97)" gradientUnits="userSpaceOnUse" xlink:href="#f" id="w" y2="47.013" x2="25.132" y1=".985" x1="25.132"/><linearGradient id="f"><stop offset="0" stop-color="#f4f4f4"/><stop offset="1" stop-color="#dbdbdb"/></linearGradient><linearGradient gradientTransform="matrix(1.54578 0 0 1.7081 -22.437 -20.003)" gradientUnits="userSpaceOnUse" xlink:href="#g" id="x" y2="2.906" x2="-51.786" y1="50.786" x1="-51.786"/><linearGradient id="g"><stop offset="0" stop-color="#a0a0a0"/><stop offset="1" stop-color="#bebebe"/></linearGradient><linearGradient gradientTransform="matrix(1.75676 0 0 2.2162 -132.385 -24.554)" gradientUnits="userSpaceOnUse" xlink:href="#h" id="y" y2="43" x2="24" y1="5.564" x1="24"/><linearGradient id="h"><stop offset="0" stop-color="#fff"/><stop offset=".036" stop-color="#fff" stop-opacity=".235"/><stop offset=".951" stop-color="#fff" stop-opacity=".157"/><stop offset="1" stop-color="#fff" stop-opacity=".392"/></linearGradient><linearGradient gradientTransform="matrix(.13275 0 0 .0206 -138.253 60.587)" gradientUnits="userSpaceOnUse" xlink:href="#i" id="n" y2="609.505" x2="302.857" y1="366.648" x1="302.857"/><linearGradient id="i"><stop offset="0" stop-opacity="0"/><stop offset=".5"/><stop offset="1" stop-opacity="0"/></linearGradient><radialGradient gradientTransform="matrix(-.03133 0 0 .0206 -103.444 60.587)" gradientUnits="userSpaceOnUse" xlink:href="#j" id="o" fy="486.648" fx="605.714" r="117.143" cy="486.648" cx="605.714"/><linearGradient id="j"><stop offset="0"/><stop offset="1" stop-opacity="0"/></linearGradient><radialGradient gradientTransform="matrix(.03133 0 0 .0206 -77.102 60.587)" gradientUnits="userSpaceOnUse" xlink:href="#j" id="p" fy="486.648" fx="605.714" r="117.143" cy="486.648" cx="605.714"/><linearGradient gradientTransform="matrix(1.91428 0 0 1.82517 -136.165 -17.97)" gradientUnits="userSpaceOnUse" xlink:href="#k" id="q" y2="47.013" x2="25.132" y1=".985" x1="25.132"/><linearGradient id="k"><stop offset="0" stop-color="#f4f4f4"/><stop offset="1" stop-color="#dbdbdb"/></linearGradient><linearGradient gradientTransform="matrix(1.54578 0 0 1.7081 -22.437 -20.003)" gradientUnits="userSpaceOnUse" xlink:href="#l" id="r" y2="2.906" x2="-51.786" y1="50.786" x1="-51.786"/><linearGradient id="l"><stop offset="0" stop-color="#a0a0a0"/><stop offset="1" stop-color="#bebebe"/></linearGradient><linearGradient id="m"><stop offset="0" stop-color="#fff"/><stop offset=".036" stop-color="#fff" stop-opacity=".235"/><stop offset=".951" stop-color="#fff" stop-opacity=".157"/><stop offset="1" stop-color="#fff" stop-opacity=".392"/></linearGradient><linearGradient gradientTransform="matrix(1.75676 0 0 2.2162 -132.385 -24.554)" gradientUnits="userSpaceOnUse" xlink:href="#m" id="s" y2="43" x2="24" y1="5.564" x1="24"/><linearGradient id="b"><stop offset="0" stop-color="#cdf87e"/><stop offset=".262" stop-color="#a2e34f"/><stop offset=".746" stop-color="#68b723"/><stop offset="1" stop-color="#1d7e0d"/></linearGradient></defs><path overflow="visible" opacity=".3" fill="url(#n)" d="M-122.323 68.135h64.1v5h-64.1z" transform="translate(138.223 23.865)"/><path d="M-122.323 68.136v5c-1.613.01-3.9-1.12-3.9-2.5s1.8-2.5 3.9-2.5z" overflow="visible" opacity=".3" fill="url(#o)" transform="translate(138.223 23.865)"/><path d="M-58.223 68.136v5c1.614.01 3.9-1.12 3.9-2.5s-1.8-2.5-3.9-2.5z" overflow="visible" opacity=".3" fill="url(#p)" transform="translate(138.223 23.865)"/><path d="M-123.723-13.365c15.353 0 67 .006 67 .006v83.996h-67v-84z" fill="url(#q)" stroke="url(#r)" stroke-linejoin="round" transform="translate(138.223 23.865)"/><path d="M-57.723 69.635h-65v-82h65z" fill="none" stroke="url(#s)" stroke-linecap="round" transform="translate(138.223 23.865)"/><path d="M45 29l37 .004V95H45V29z" opacity=".05"/><path overflow="visible" opacity=".3" fill="url(#t)" d="M-122.323 68.135h64.1v5h-64.1z" transform="translate(170.223 43.865)"/><path d="M-122.323 68.136v5c-1.613.01-3.9-1.12-3.9-2.5s1.8-2.5 3.9-2.5z" overflow="visible" opacity=".3" fill="url(#u)" transform="translate(170.223 43.865)"/><path d="M-58.223 68.136v5c1.614.01 3.9-1.12 3.9-2.5s-1.8-2.5-3.9-2.5z" overflow="visible" opacity=".3" fill="url(#v)" transform="translate(170.223 43.865)"/><path d="M-123.723-13.365c15.353 0 67 .006 67 .006v83.996h-67v-84z" fill="url(#w)" stroke="url(#x)" stroke-linejoin="round" transform="translate(170.223 43.865)"/><path d="M-57.723 69.635h-65v-82h65z" fill="none" stroke="url(#y)" stroke-linecap="round" transform="translate(170.223 43.865)"/><path d="M32.99 84.3a20.07 12.173 0 1 1 40.14 0 20.07 12.173 0 0 1-40.14 0z" overflow="visible" opacity=".141" fill="url(#z)" fill-rule="evenodd"/><path d="M43.463 45.5C24.01 58.54 34.818 82.487 56.5 82.29V94.5l26-19.987-26-19.987V66.71c-13.984.538-21.08-12.11-11.084-21.21z" display="block" overflow="visible" fill="url(#A)"/><path d="M42.194 47.7C25.276 61.255 38.154 82.008 57.5 81.36v11.03l23.317-17.815L57.5 56.59v11.177C37.442 68.225 37.835 51.27 42.194 47.7z" display="block" overflow="visible" opacity=".7" fill="none" stroke="url(#B)" stroke-width=".964" stroke-miterlimit="7"/><path d="M43.463 45.5C24.01 58.54 34.818 82.487 56.5 82.29V94.5l26-19.987-26-19.987V66.71c-13.984.538-21.08-12.11-11.084-21.21z" style="isolation:auto;mix-blend-mode:normal;filter-blend-mode:normal;filter-gaussianBlur-deviation:0" overflow="visible" fill="none" stroke="#0f5a00" stroke-linecap="round" color="#000" opacity=".5"/></svg>