<svg xmlns="http://www.w3.org/2000/svg" xmlns:xlink="http://www.w3.org/1999/xlink" viewBox="0 0 128 128"><defs><linearGradient x1="69.312" y1="21.319" x2="69.312" y2="27.727" id="p" xlink:href="#a" gradientUnits="userSpaceOnUse" gradientTransform="translate(0 3)"/><linearGradient id="a"><stop offset="0"/><stop offset="1" stop-opacity="0"/></linearGradient><linearGradient x1="72.459" y1="-37.889" x2="72.459" y2="-24.792" id="o" xlink:href="#b" gradientUnits="userSpaceOnUse" gradientTransform="translate(0 3)"/><linearGradient id="b"><stop offset="0"/><stop offset="1" stop-opacity="0"/></linearGradient><linearGradient x1="69.312" y1="-15.79" x2="69.312" y2="33.987" id="n" xlink:href="#c" gradientUnits="userSpaceOnUse" gradientTransform="translate(0 3)"/><linearGradient id="c"><stop offset="0"/><stop offset="1" stop-opacity="0"/></linearGradient><linearGradient x1="60.949" y1="-5.801" x2="60.949" y2="34.548" id="m" xlink:href="#c" gradientUnits="userSpaceOnUse" gradientTransform="translate(0 3)"/><linearGradient x1="63.946" y1="51.638" x2="63.946" y2="-53.386" id="l" xlink:href="#d" gradientUnits="userSpaceOnUse" gradientTransform="translate(0 3)"/><linearGradient id="d"><stop offset="0" stop-color="#185f9a"/><stop offset="1" stop-color="#599ec9"/></linearGradient><linearGradient x1="71.204" y1="6.238" x2="71.204" y2="44.341" id="k" xlink:href="#e" gradientUnits="userSpaceOnUse" gradientTransform="translate(-133.252 -67.404) scale(2.75676)"/><linearGradient id="e"><stop offset="0" stop-color="#fff"/><stop offset=".508" stop-color="#fff" stop-opacity=".235"/><stop offset=".835" stop-color="#fff" stop-opacity=".157"/><stop offset="1" stop-color="#fff" stop-opacity=".392"/></linearGradient><radialGradient cx="5.763" cy="8.45" r="20" fx="5.763" fy="8.45" id="i" xlink:href="#f" gradientUnits="userSpaceOnUse" gradientTransform="matrix(0 5.773 -6.10716 0 116.104 -92.02)"/><linearGradient id="f"><stop offset="0" stop-color="#90dbec"/><stop offset=".262" stop-color="#42baea"/><stop offset=".705" stop-color="#3689e6"/><stop offset="1" stop-color="#2b63a0"/></linearGradient><linearGradient x1="24" y1="44" x2="24" y2="3.899" id="j" xlink:href="#d" gradientUnits="userSpaceOnUse" gradientTransform="translate(.494 -61.506) scale(2.667)"/><linearGradient id="g"><stop offset="0"/><stop offset="1" stop-opacity="0"/></linearGradient><radialGradient cx="62.625" cy="4.625" r="10.625" fx="62.625" fy="4.625" id="h" xlink:href="#g" gradientUnits="userSpaceOnUse" gradientTransform="matrix(5.77506 0 0 2.00858 -297.144 30.223)"/></defs><path d="M125.88 39.513c0 11.786-27.473 21.34-61.36 21.34-33.89 0-61.36-9.554-61.36-21.34 0-11.787 27.47-21.342 61.36-21.342 33.887 0 61.36 9.56 61.36 21.35z" opacity=".5" fill="url(#h)" fill-rule="evenodd" overflow="visible" transform="translate(0 64)"/><path d="M64.5-49.5c-28.692 0-52 23.308-52 52s23.308 52 52 52 52-23.308 52-52-23.308-52-52-52z" color="#000" fill="url(#i)" stroke="url(#j)" stroke-linecap="round" stroke-linejoin="round" overflow="visible" transform="translate(0 64)"/><path d="M115.5 2.498c0 28.168-22.835 51.002-51 51.002-28.166 0-51-22.835-51-51.002 0-28.166 22.834-50.998 51-50.998 28.165 0 51 22.832 51 50.998z" opacity=".5" color="#000" fill="none" stroke="url(#k)" stroke-linecap="round" stroke-linejoin="round" overflow="visible" transform="translate(0 64)"/><path d="M48.944-.85c.69 1.875 1.465 3.394 3.118 1.317 2.048-1.22 8.913-6.562 8.226-1.328-2.198 9.68-4.873 19.26-6.92 28.98-1.236 5.2 2.832 9.88 7.79 6.87 5.28-2.68 10.03-6.04 14.77-9.37-.647-1.586-.965-3.5-2.864-1.99-2.234 1.516-7.47 6.285-8.422 2.144 1.97-10.486 5.622-20.585 7.955-30.99 1.47-5.57.107-11.05-6.497-7.77C60.035-9.79 54.436-4.86 48.944-.85zM72.29-36c-6.418-.34-9.774 9.886-3.675 12.717 4.948 2.03 10.336-3.046 9.127-8.117-.375-2.64-2.746-4.69-5.452-4.6z" style="text-align:start;line-height:100%;-inkscape-font-specification:URW Palladio L Bold" font-size="40" font-weight="700" fill="url(#l)" font-family="URW Palladio L" transform="translate(0 64)"/><path d="M48.944 64.15c.69 1.875 1.465 3.394 3.118 1.317 2.048-1.22 8.913-6.562 8.226-1.328-2.198 9.68-4.873 19.26-6.92 28.98-1.236 5.2 2.832 9.88 7.79 6.87 5.28-2.68 10.03-6.04 14.77-9.37-.647-1.586-.965-3.5-2.864-1.99-2.234 1.516-7.47 6.285-8.422 2.145 1.97-10.487 5.622-20.586 7.955-30.99 1.47-5.573.107-11.053-6.497-7.773-6.065 3.19-11.664 8.12-17.156 12.13zM72.29 29c-6.418-.34-9.774 9.886-3.675 12.717 4.948 2.03 10.336-3.046 9.127-8.117-.375-2.64-2.746-4.69-5.452-4.6z" style="text-align:start;line-height:100%;-inkscape-font-specification:URW Palladio L Bold" font-size="40" font-weight="700" fill="#fff" font-family="URW Palladio L"/><path d="M59.09-2.59c2.245.16 1.732 2.907 1.264 4.4-2.175 9.454-4.807 18.807-6.703 28.324-.45 2.79 1.28 6.352 4.42 6.378" style="text-align:start;line-height:100%;-inkscape-font-specification:URW Palladio L Bold" font-size="40" font-weight="700" opacity=".1" fill="none" stroke="url(#m)" font-family="URW Palladio L" transform="translate(0 64)"/><path d="M75.375 26.47c-.188-1.445-1.35-2.61-2.5-1.16-2.037 1.402-4.002 3.383-6.59 3.566-1.66-.032-2.5-2.032-1.827-3.42 2.12-10.704 5.937-20.99 8.08-31.685.225-2.03.355-4.74-1.602-5.99a2.738 2.738 0 0 0-.905-.27c-2.95-.084-5.4 1.934-7.82 3.364-4.413 2.9-8.46 6.315-12.71 9.44" style="text-align:start;line-height:100%;-inkscape-font-specification:URW Palladio L Bold" font-size="40" font-weight="700" opacity=".1" fill="none" stroke="url(#n)" font-family="URW Palladio L" transform="translate(0 64)"/><path d="M72.24-34.496c-5.924-.315-9.022 9.13-3.39 11.744 4.567 1.874 9.54-2.813 8.425-7.496-.346-2.44-2.535-4.33-5.034-4.248z" style="text-align:start;line-height:100%;-inkscape-font-specification:URW Palladio L Bold" font-size="40" font-weight="700" opacity=".1" fill="none" stroke="url(#o)" font-family="URW Palladio L" transform="translate(0 64)"/><path d="M75.375 26.47c-.188-1.445-1.35-2.61-2.5-1.16-2.037 1.402-4.002 3.383-6.59 3.566" style="text-align:start;line-height:100%;-inkscape-font-specification:URW Palladio L Bold" font-size="40" font-weight="700" opacity=".1" fill="none" stroke="url(#p)" font-family="URW Palladio L" transform="translate(0 64)"/></svg>