<?xml version="1.0" encoding="UTF-8" standalone="no"?>
<svg
   xmlns:dc="http://purl.org/dc/elements/1.1/"
   xmlns:cc="http://creativecommons.org/ns#"
   xmlns:rdf="http://www.w3.org/1999/02/22-rdf-syntax-ns#"
   xmlns:svg="http://www.w3.org/2000/svg"
   xmlns="http://www.w3.org/2000/svg"
   xmlns:xlink="http://www.w3.org/1999/xlink"
   version="1.1"
   width="128"
   height="128"
   id="svg3767">
  <defs
     id="defs3769">
    <linearGradient
       id="linearGradient4011">
      <stop
         id="stop4013"
         style="stop-color:#ffffff;stop-opacity:1"
         offset="0" />
      <stop
         id="stop4015"
         style="stop-color:#ffffff;stop-opacity:0.23529412"
         offset="0.507761" />
      <stop
         id="stop4017"
         style="stop-color:#ffffff;stop-opacity:0.15686275"
         offset="0.83456558" />
      <stop
         id="stop4019"
         style="stop-color:#ffffff;stop-opacity:0.39215687"
         offset="1" />
    </linearGradient>
    <radialGradient
       xlink:href="#linearGradient3820-7-2-8-6"
       id="radialGradient3163"
       gradientUnits="userSpaceOnUse"
       gradientTransform="matrix(0.6869404,0,0,0.21461693,-4.02174,68.573331)"
       cx="99.157013"
       cy="186.17059"
       fx="99.157013"
       fy="186.17059"
       r="62.769119" />
    <linearGradient
       id="linearGradient3820-7-2-8-6">
      <stop
         id="stop3822-2-6-5-0"
         style="stop-color:#3d3d3d;stop-opacity:1"
         offset="0" />
      <stop
         id="stop3864-8-7-4-1"
         style="stop-color:#686868;stop-opacity:0.49803922"
         offset="0.5" />
      <stop
         id="stop3824-1-2-6-7"
         style="stop-color:#686868;stop-opacity:0"
         offset="1" />
    </linearGradient>
    <linearGradient
       gradientTransform="matrix(2.756758,0,0,2.7567581,-133.25196,-3.4037532)"
       gradientUnits="userSpaceOnUse"
       xlink:href="#linearGradient4011"
       id="linearGradient12398-3"
       y2="44.340794"
       x2="71.204407"
       y1="6.2375584"
       x1="71.204407" />
    <linearGradient
       gradientTransform="matrix(3.9856242,0,0,2.9796372,-8061.4657,-9541.5191)"
       gradientUnits="userSpaceOnUse"
       xlink:href="#linearGradient947-2"
       id="linearGradient11527-6-5"
       y2="3241.9966"
       x2="2035.1652"
       y1="3208.0737"
       x1="2035.1652" />
    <linearGradient
       id="linearGradient947-2">
      <stop
         id="stop943-7"
         style="stop-color:#64baff;stop-opacity:1"
         offset="0" />
      <stop
         id="stop945-0"
         style="stop-color:#3689e6;stop-opacity:1"
         offset="1" />
    </linearGradient>
    <radialGradient
       cx="66.127159"
       cy="48.76759"
       r="31.000002"
       fx="66.127159"
       fy="48.76759"
       id="radialGradient3381"
       xlink:href="#linearGradient3242-7-3-8-0-4-58-06"
       gradientUnits="userSpaceOnUse"
       gradientTransform="matrix(0,2.4235253,-2.6392787,0,226.36903,-84.88818)" />
    <linearGradient
       id="linearGradient3242-7-3-8-0-4-58-06">
      <stop
         id="stop3244-5-8-5-6-4-3-8"
         style="stop-color:#cdf87e;stop-opacity:1"
         offset="0" />
      <stop
         id="stop3246-9-5-1-5-3-0-7"
         style="stop-color:#a2e34f;stop-opacity:1"
         offset="0.26238" />
      <stop
         id="stop3248-7-2-0-7-5-35-9"
         style="stop-color:#68b723;stop-opacity:1"
         offset="0.66093999" />
      <stop
         id="stop3250-8-2-8-5-6-40-4"
         style="stop-color:#1d7e0d;stop-opacity:1"
         offset="1" />
    </linearGradient>
    <linearGradient
       x1="24.138529"
       y1="9.1762295"
       x2="24.138529"
       y2="37.130203"
       id="linearGradient3030"
       xlink:href="#linearGradient4361"
       gradientUnits="userSpaceOnUse"
       gradientTransform="matrix(2.1134672,0,0,1.645562,50.724212,61.899946)" />
    <linearGradient
       id="linearGradient4361">
      <stop
         id="stop4363"
         style="stop-color:#ffffff;stop-opacity:1"
         offset="0" />
      <stop
         id="stop4365"
         style="stop-color:#ffffff;stop-opacity:0.23529412"
         offset="0" />
      <stop
         id="stop4367"
         style="stop-color:#ffffff;stop-opacity:0.15686275"
         offset="1" />
      <stop
         id="stop4369"
         style="stop-color:#ffffff;stop-opacity:0.39215687"
         offset="1" />
    </linearGradient>
    <linearGradient
       x1="24.138529"
       y1="19.795095"
       x2="24.138529"
       y2="26.484531"
       id="linearGradient3030-1"
       xlink:href="#linearGradient4351"
       gradientUnits="userSpaceOnUse"
       gradientTransform="matrix(1.6592445,0,0,2.0928522,60.832154,51.571789)" />
    <linearGradient
       id="linearGradient4351">
      <stop
         id="stop4353"
         style="stop-color:#ffffff;stop-opacity:1"
         offset="0" />
      <stop
         id="stop4355"
         style="stop-color:#ffffff;stop-opacity:0.23529412"
         offset="0.00000015" />
      <stop
         id="stop4357"
         style="stop-color:#ffffff;stop-opacity:0.15686275"
         offset="1" />
      <stop
         id="stop4359"
         style="stop-color:#ffffff;stop-opacity:0.39215687"
         offset="1" />
    </linearGradient>
  </defs>
  <metadata
     id="metadata3772">
    <rdf:RDF>
      <cc:Work
         rdf:about="">
        <dc:format>image/svg+xml</dc:format>
        <dc:type
           rdf:resource="http://purl.org/dc/dcmitype/StillImage" />
        <dc:title />
      </cc:Work>
    </rdf:RDF>
  </metadata>
  <path
     style="fill:url(#radialGradient3163);fill-opacity:1;stroke:none"
     id="path3818-0-5-0"
     d="m 107.21186,108.52868 a 43.118644,13.471312 0 1 1 -86.237286,0 43.118644,13.471312 0 1 1 86.237286,0 z" />
  <path
     d="M 64.500014,14.499989 C 35.808182,14.499989 12.5,37.808174 12.5,66.499995 12.5,95.191818 35.808182,118.5 64.500014,118.5 93.191803,118.5 116.50004,95.191818 116.5,66.499996 116.5,37.808175 93.191803,14.499989 64.500014,14.499989 Z"
     id="path2555-7-8-5-0-9"
     style="color:#000000;display:inline;overflow:visible;visibility:visible;opacity:0.98999999;fill:url(#linearGradient11527-6-5);fill-opacity:1.0;fill-rule:nonzero;stroke:none;stroke-width:0.99999982;marker:none;enable-background:accumulate" />
  <path
     d="m 115.5,66.498172 c 0,28.167477 -22.835193,51.001848 -50.99938,51.001848 -28.166783,0 -51.000617,-22.834639 -51.000617,-51.001848 0,-28.166134 22.833834,-50.998201 51.000617,-50.998201 28.164187,0 50.99938,22.832067 50.99938,50.998201 z"
     id="path8655-6-0-9-5-0"
     style="color:#000000;display:inline;overflow:visible;visibility:visible;opacity:0.5;fill:none;stroke:url(#linearGradient12398-3);stroke-width:0.99999988;stroke-linecap:round;stroke-linejoin:round;stroke-miterlimit:4;stroke-dasharray:none;stroke-dashoffset:0;stroke-opacity:1;marker:none;enable-background:accumulate" />
  <path
     d="M 64.50001,14.499989 C 35.808202,14.499989 12.5,37.808184 12.5,66.499992 12.5,95.191799 35.808202,118.5 64.50001,118.5 93.191814,118.5 116.50003,95.191799 116.5,66.499992 116.5,37.808184 93.191814,14.499988 64.50001,14.499989 Z"
     id="path2555-4"
     style="color:#000000;display:inline;overflow:visible;visibility:visible;opacity:0.5;vector-effect:none;fill:none;fill-opacity:1;stroke:#002e99;stroke-width:0.99999988;stroke-linecap:round;stroke-linejoin:round;stroke-miterlimit:4;stroke-dasharray:none;stroke-dashoffset:0;stroke-opacity:1;marker:none;enable-background:accumulate;clip-rule:nonzero;isolation:auto;mix-blend-mode:normal;color-interpolation:sRGB;color-interpolation-filters:linearRGB;solid-color:#000000;solid-opacity:1;fill-rule:nonzero;filter-blend-mode:normal;filter-gaussianBlur-deviation:0;color-rendering:auto;image-rendering:auto;shape-rendering:auto;text-rendering:auto" />
  <path
     id="path4583"
     d="m 36.477751,78.489516 c -4.674238,4.674244 -4.686809,12.283758 -0.01934,16.951228 l 0.03867,0.03867 c 4.667471,4.667466 12.27699,4.654906 16.951228,-0.01933 l 7.071067,-7.071068 c 3.687348,-3.687349 4.461819,-9.196495 2.338149,-13.651856 l -3.078401,3.0784 c 0.730198,2.663949 0.03891,5.617945 -2.088175,7.745029 l -7.071068,7.071068 c -3.160502,3.160502 -8.149221,3.164481 -11.294373,0.01933 l -0.03867,-0.03867 c -3.145147,-3.145148 -3.141169,-8.133874 0.01933,-11.294373 l 7.071068,-7.071068 c 2.127083,-2.127083 5.08108,-2.818373 7.745029,-2.088175 l 3.0784,-3.078401 c -4.45536,-2.12367 -9.96451,-1.349202 -13.651856,2.338149 z M 68.442163,46.650105 c -3.683517,3.683518 -4.452009,9.187869 -2.332624,13.646332 l 3.078401,-3.078401 c -0.729085,-2.66649 -0.03916,-5.617695 2.08265,-7.739504 l 7.071068,-7.071068 c 3.158356,-3.158356 8.155349,-3.158359 11.313708,0 3.158359,3.158359 3.158356,8.155352 0,11.313708 l -7.071068,7.071068 c -2.121808,2.121808 -5.073014,2.811735 -7.739504,2.08265 l -3.078401,3.078401 c 4.458463,2.119385 9.962814,1.350893 13.646332,-2.332624 L 92.483793,56.5496 c 4.676389,-4.676388 4.676389,-12.294179 0,-16.970563 -4.676384,-4.676384 -12.294176,-4.676388 -16.970563,0 z M 51.7216,77.450303 c -1.939532,1.885426 0.943001,4.767959 2.828427,2.828427 L 77.177444,57.651313 c 1.939532,-1.885426 -0.943001,-4.767959 -2.828427,-2.828427 z"
     style="color:#000000;font-style:normal;font-variant:normal;font-weight:normal;font-stretch:normal;font-size:medium;line-height:normal;font-family:sans-serif;text-indent:0;text-align:start;text-decoration:none;text-decoration-line:none;text-decoration-style:solid;text-decoration-color:#000000;letter-spacing:normal;word-spacing:normal;text-transform:none;direction:ltr;writing-mode:lr-tb;baseline-shift:baseline;text-anchor:start;white-space:normal;clip-rule:nonzero;display:inline;overflow:visible;visibility:visible;opacity:0.05;isolation:auto;mix-blend-mode:normal;color-interpolation:sRGB;color-interpolation-filters:linearRGB;solid-color:#000000;solid-opacity:1;fill:#002e99;fill-opacity:1;fill-rule:nonzero;stroke:#000000;stroke-width:2;stroke-linecap:square;stroke-linejoin:round;stroke-miterlimit:4;stroke-dasharray:none;stroke-dashoffset:0;stroke-opacity:1;color-rendering:auto;image-rendering:auto;shape-rendering:auto;text-rendering:auto;enable-background:accumulate" />
  <g
     id="g4390"
     transform="translate(0.007286,-0.00729)">
    <path
       d="m 89.5,91.499992 0,-16.007287 17,0 0,16.007287 16.00729,0 0,17.000008 -16.00729,0 0,16.00729 -17,0 0,-16.00729 -16.007286,0 0,-17.000008 16.007286,0 z"
       id="path2262"
       style="color:#000000;display:inline;overflow:visible;visibility:visible;fill:url(#radialGradient3381);fill-opacity:1;fill-rule:nonzero;stroke:none;stroke-width:0.98542738;stroke-linecap:round;stroke-linejoin:round;stroke-miterlimit:4;stroke-dasharray:none;stroke-dashoffset:0;stroke-opacity:1;marker:none;enable-background:accumulate" />
    <path
       style="display:inline;opacity:0.5;fill:none;stroke:url(#linearGradient3030);stroke-width:1;stroke-linecap:butt;stroke-linejoin:miter;stroke-miterlimit:4;stroke-dasharray:none;stroke-opacity:1"
       id="path2272-4"
       d="m 90.500004,93.012938 0,-16.512937 14.999996,0 0,16.487061 m 0,14.012938 0,16.5 -14.999996,0 0,-16.5" />
    <path
       style="display:inline;opacity:0.5;fill:none;stroke:url(#linearGradient3030-1);stroke-width:1;stroke-linecap:butt;stroke-linejoin:miter;stroke-miterlimit:4;stroke-dasharray:none;stroke-opacity:1"
       id="path2272-2"
       d="m 106,92.556134 15.5,-0.05434 0,14.943816 -15.5,0.0544 m -16,0 -15.5,-0.0544 0,-14.943816 15.5,0.05434" />
    <path
       d="m 89.5,91.499992 0,-16.007287 17,0 0,16.007287 16.00729,0 0,17.000008 -16.00729,0 0,16.00729 -17,0 0,-16.00729 -16.007286,0 0,-17.000008 16.007286,0 z"
       id="path2262-8"
       style="color:#000000;clip-rule:nonzero;display:inline;overflow:visible;visibility:visible;opacity:0.5;isolation:auto;mix-blend-mode:normal;color-interpolation:sRGB;color-interpolation-filters:linearRGB;solid-color:#000000;solid-opacity:1;fill:none;fill-opacity:1;fill-rule:nonzero;stroke:#0f5a00;stroke-width:1;stroke-linecap:round;stroke-linejoin:round;stroke-miterlimit:4;stroke-dasharray:none;stroke-dashoffset:0;stroke-opacity:1;marker:none;color-rendering:auto;image-rendering:auto;shape-rendering:auto;text-rendering:auto;enable-background:accumulate" />
  </g>
  <path
     style="color:#000000;font-style:normal;font-variant:normal;font-weight:normal;font-stretch:normal;font-size:medium;line-height:normal;font-family:sans-serif;text-indent:0;text-align:start;text-decoration:none;text-decoration-line:none;text-decoration-style:solid;text-decoration-color:#000000;letter-spacing:normal;word-spacing:normal;text-transform:none;direction:ltr;writing-mode:lr-tb;baseline-shift:baseline;text-anchor:start;white-space:normal;clip-rule:nonzero;display:inline;overflow:visible;visibility:visible;opacity:0.15;isolation:auto;mix-blend-mode:normal;color-interpolation:sRGB;color-interpolation-filters:linearRGB;solid-color:#000000;solid-opacity:1;fill:#002e99;fill-opacity:1;fill-rule:nonzero;stroke:none;stroke-width:1;stroke-linecap:butt;stroke-linejoin:miter;stroke-miterlimit:4;stroke-dasharray:none;stroke-dashoffset:0;stroke-opacity:1;marker:none;color-rendering:auto;image-rendering:auto;shape-rendering:auto;text-rendering:auto;enable-background:accumulate"
     d="m 36.477751,78.489516 c -4.674238,4.674244 -4.686809,12.283758 -0.01934,16.951228 l 0.03867,0.03867 c 4.667471,4.667466 12.27699,4.654906 16.951228,-0.01933 l 7.071067,-7.071068 c 3.687348,-3.687349 4.461819,-9.196495 2.338149,-13.651856 l -3.078401,3.0784 c 0.730198,2.663949 0.03891,5.617945 -2.088175,7.745029 l -7.071068,7.071068 c -3.160502,3.160502 -8.149221,3.164481 -11.294373,0.01933 l -0.03867,-0.03867 c -3.145147,-3.145148 -3.141169,-8.133874 0.01933,-11.294373 l 7.071068,-7.071068 c 2.127083,-2.127083 5.08108,-2.818373 7.745029,-2.088175 l 3.0784,-3.078401 c -4.45536,-2.12367 -9.96451,-1.349202 -13.651856,2.338149 z M 68.442163,46.650105 c -3.683517,3.683518 -4.452009,9.187869 -2.332624,13.646332 l 3.078401,-3.078401 c -0.729085,-2.66649 -0.03916,-5.617695 2.08265,-7.739504 l 7.071068,-7.071068 c 3.158356,-3.158356 8.155349,-3.158359 11.313708,0 3.158359,3.158359 3.158356,8.155352 0,11.313708 l -7.071068,7.071068 c -2.121808,2.121808 -5.073014,2.811735 -7.739504,2.08265 l -3.078401,3.078401 c 4.458463,2.119385 9.962814,1.350893 13.646332,-2.332624 L 92.483793,56.5496 c 4.676389,-4.676388 4.676389,-12.294179 0,-16.970563 -4.676384,-4.676384 -12.294176,-4.676388 -16.970563,0 z M 51.7216,77.450303 c -1.939532,1.885426 0.943001,4.767959 2.828427,2.828427 L 77.177444,57.651313 c 1.939532,-1.885426 -0.943001,-4.767959 -2.828427,-2.828427 z"
     id="path4581" />
  <path
     id="rect4536"
     d="m 36.477751,77.489516 c -4.674238,4.674244 -4.686809,12.283758 -0.01934,16.951228 l 0.03867,0.03867 c 4.667471,4.66747 12.27699,4.654909 16.951228,-0.01933 l 7.071067,-7.071068 c 3.687348,-3.687349 4.461819,-9.196495 2.338149,-13.651856 l -3.078401,3.0784 c 0.730198,2.663949 0.03891,5.617945 -2.088175,7.745029 l -7.071068,7.071068 c -3.160502,3.160502 -8.149221,3.164481 -11.294373,0.01933 l -0.03867,-0.03867 c -3.145147,-3.145148 -3.141169,-8.133874 0.01933,-11.294373 l 7.071068,-7.071068 c 2.127083,-2.127083 5.08108,-2.818373 7.745029,-2.088175 l 3.0784,-3.078401 c -4.45536,-2.12367 -9.96451,-1.349202 -13.651856,2.338149 z M 68.442163,45.650105 c -3.683517,3.683518 -4.452009,9.187869 -2.332624,13.646332 l 3.078401,-3.078401 c -0.729085,-2.66649 -0.03916,-5.617695 2.08265,-7.739504 l 7.071068,-7.071068 c 3.158356,-3.158356 8.155349,-3.158359 11.313708,0 3.158359,3.158359 3.158356,8.155352 0,11.313708 l -7.071068,7.071068 c -2.121808,2.121808 -5.073014,2.811735 -7.739504,2.08265 l -3.078401,3.078401 c 4.458463,2.119385 9.962814,1.350893 13.646332,-2.332624 L 92.483793,55.5496 c 4.676389,-4.676388 4.676389,-12.294179 0,-16.970563 -4.676384,-4.676384 -12.294176,-4.676388 -16.970563,0 z M 51.7216,76.450303 c -1.939532,1.885426 0.943001,4.767959 2.828427,2.828427 L 77.177444,56.651313 c 1.939532,-1.885426 -0.943001,-4.767959 -2.828427,-2.828427 z"
     style="color:#000000;font-style:normal;font-variant:normal;font-weight:normal;font-stretch:normal;font-size:medium;line-height:normal;font-family:sans-serif;text-indent:0;text-align:start;text-decoration:none;text-decoration-line:none;text-decoration-style:solid;text-decoration-color:#000000;letter-spacing:normal;word-spacing:normal;text-transform:none;direction:ltr;writing-mode:lr-tb;baseline-shift:baseline;text-anchor:start;white-space:normal;clip-rule:nonzero;display:inline;overflow:visible;visibility:visible;opacity:1;isolation:auto;mix-blend-mode:normal;color-interpolation:sRGB;color-interpolation-filters:linearRGB;solid-color:#000000;solid-opacity:1;fill:#ffffff;fill-opacity:1;fill-rule:nonzero;stroke:none;stroke-width:4;stroke-linecap:square;stroke-linejoin:round;stroke-miterlimit:4;stroke-dasharray:none;stroke-dashoffset:0;stroke-opacity:1;color-rendering:auto;image-rendering:auto;shape-rendering:auto;text-rendering:auto;enable-background:accumulate" />
</svg>
