<?xml version="1.0" encoding="UTF-8" standalone="no"?>
<svg
   xmlns:dc="http://purl.org/dc/elements/1.1/"
   xmlns:cc="http://creativecommons.org/ns#"
   xmlns:rdf="http://www.w3.org/1999/02/22-rdf-syntax-ns#"
   xmlns:svg="http://www.w3.org/2000/svg"
   xmlns="http://www.w3.org/2000/svg"
   xmlns:xlink="http://www.w3.org/1999/xlink"
   version="1.1"
   width="128"
   height="128"
   id="svg3049">
  <defs
     id="defs3051">
    <linearGradient
       id="linearGradient861">
      <stop
         style="stop-color:#d4d4d4;stop-opacity:1"
         offset="0"
         id="stop857" />
      <stop
         style="stop-color:#abacae;stop-opacity:1"
         offset="1"
         id="stop859" />
    </linearGradient>
    <linearGradient
       id="linearGradient897">
      <stop
         id="stop893"
         style="stop-color:#fafafa;stop-opacity:1"
         offset="0" />
      <stop
         id="stop895"
         style="stop-color:#d4d4d4;stop-opacity:1"
         offset="1" />
    </linearGradient>
    <linearGradient
       id="linearGradient3924">
      <stop
         id="stop3926"
         style="stop-color:#ffffff;stop-opacity:1"
         offset="0" />
      <stop
         id="stop3928"
         style="stop-color:#ffffff;stop-opacity:0.23529412"
         offset="0.06316455" />
      <stop
         id="stop3930"
         style="stop-color:#ffffff;stop-opacity:0.15686275"
         offset="0.95056331" />
      <stop
         id="stop3932"
         style="stop-color:#ffffff;stop-opacity:0.39215687"
         offset="1" />
    </linearGradient>
    <linearGradient
       id="linearGradient3688-166-749-5">
      <stop
         id="stop2883-0"
         style="stop-color:#181818;stop-opacity:1"
         offset="0" />
      <stop
         id="stop2885-5"
         style="stop-color:#181818;stop-opacity:0"
         offset="1" />
    </linearGradient>
    <linearGradient
       id="linearGradient3688-464-309-8">
      <stop
         id="stop2889-9"
         style="stop-color:#181818;stop-opacity:1"
         offset="0" />
      <stop
         id="stop2891-4"
         style="stop-color:#181818;stop-opacity:0"
         offset="1" />
    </linearGradient>
    <linearGradient
       id="linearGradient3702-501-757-0">
      <stop
         id="stop2895-0"
         style="stop-color:#181818;stop-opacity:0"
         offset="0" />
      <stop
         id="stop2897-2"
         style="stop-color:#181818;stop-opacity:1"
         offset="0.5" />
      <stop
         id="stop2899-6"
         style="stop-color:#181818;stop-opacity:0"
         offset="1" />
    </linearGradient>
    <linearGradient
       id="linearGradient3811">
      <stop
         id="stop3813"
         style="stop-color:#000000;stop-opacity:1"
         offset="0" />
      <stop
         id="stop3815"
         style="stop-color:#000000;stop-opacity:0"
         offset="1" />
    </linearGradient>
    <radialGradient
       xlink:href="#linearGradient3688-166-749-5"
       id="radialGradient3946"
       gradientUnits="userSpaceOnUse"
       gradientTransform="matrix(1.9740983,0,0,1.4,28.210531,-17.402531)"
       cx="4.9929786"
       cy="43.5"
       fx="4.9929786"
       fy="43.5"
       r="2.5" />
    <radialGradient
       xlink:href="#linearGradient3688-464-309-8"
       id="radialGradient3948"
       gradientUnits="userSpaceOnUse"
       gradientTransform="matrix(1.9740983,0,0,1.4,-19.789474,-104.39747)"
       cx="4.9929786"
       cy="43.5"
       fx="4.9929786"
       fy="43.5"
       r="2.5" />
    <linearGradient
       xlink:href="#linearGradient3702-501-757-0"
       id="linearGradient3950"
       gradientUnits="userSpaceOnUse"
       x1="25.058096"
       y1="47.027729"
       x2="25.058096"
       y2="39.999443"
       gradientTransform="matrix(1.005291,0,0,1,-0.12698188,-0.00253193)" />
    <radialGradient
       xlink:href="#linearGradient3811"
       id="radialGradient3976"
       gradientUnits="userSpaceOnUse"
       gradientTransform="matrix(1.5563924,0,0,0.16978827,70.270355,102.13157)"
       cx="-4.0287771"
       cy="93.467628"
       fx="-4.0287771"
       fy="93.467628"
       r="35.338131" />
    <linearGradient
       xlink:href="#linearGradient861"
       id="linearGradient863"
       x1="104"
       y1="34"
       x2="104"
       y2="118"
       gradientUnits="userSpaceOnUse" />
    <linearGradient
       xlink:href="#linearGradient3924"
       id="linearGradient882"
       gradientUnits="userSpaceOnUse"
       gradientTransform="matrix(2.7297298,0,0,2.7297298,-1.5135175,1.488319)"
       x1="23.99999"
       y1="4.2171502"
       x2="23.99999"
       y2="42.316158" />
    <linearGradient
       xlink:href="#linearGradient897"
       id="linearGradient889"
       gradientUnits="userSpaceOnUse"
       x1="66.996674"
       y1="12"
       x2="66.996674"
       y2="117.80992" />
  </defs>
  <metadata
     id="metadata3054">
    <rdf:RDF>
      <cc:Work
         rdf:about="">
        <dc:format>image/svg+xml</dc:format>
        <dc:type
           rdf:resource="http://purl.org/dc/dcmitype/StillImage" />
        <dc:title />
      </cc:Work>
    </rdf:RDF>
  </metadata>
  <path
     style="color:#000000;display:inline;overflow:visible;visibility:visible;opacity:0.2;fill:url(#radialGradient3976);fill-opacity:1;fill-rule:nonzero;stroke:none;stroke-width:1;marker:none;enable-background:accumulate"
     id="path3041"
     d="m 119,118.00128 a 55,6 0 0 1 -109.9999975,0 55,6 0 1 1 109.9999975,0 z" />
  <g
     style="display:inline"
     id="g2036"
     transform="matrix(2.6999989,0,0,0.55555607,-0.8000075,94.890689)">
    <g
       style="opacity:0.4"
       id="g3712"
       transform="matrix(1.052632,0,0,1.285713,-1.263158,-13.42854)">
      <rect
         style="fill:url(#radialGradient3946);fill-opacity:1;stroke:none;stroke-width:1"
         id="rect2801"
         y="39.997467"
         x="38.074078"
         height="7"
         width="4.9259257" />
      <rect
         style="fill:url(#radialGradient3948);fill-opacity:1;stroke:none;stroke-width:1"
         id="rect3696"
         transform="scale(-1)"
         y="-46.997467"
         x="-9.9259281"
         height="7"
         width="4.9259257" />
      <rect
         style="fill:url(#linearGradient3950);fill-opacity:1;stroke:none;stroke-width:1"
         id="rect3700"
         y="39.997467"
         x="9.9259281"
         height="7.0000005"
         width="28.148148" />
    </g>
  </g>
  <path
     style="color:#000000;display:inline;overflow:visible;visibility:visible;fill:url(#linearGradient863);fill-opacity:1;fill-rule:nonzero;stroke:none;stroke-width:0.99999994;marker:none;enable-background:accumulate"
     d="m 25,118 h 78.5 c 5.263,0 9.5,-4.237 9.5,-9.5 v -6 -1 -62 C 113,36.453 110.547,34 107.5,34 H 25 c 0,42 0,46 0,84 z"
     id="rect855" />
  <path
     id="path873"
     d="m 107.5,33.5 c 3.324,0 6,2.676 6,6 v 42.99805 9 V 108.5 c 0,5.54 -4.46,10 -10,10 h -79 C 24.5,76 24,64 24,33.5 Z"
     style="color:#000000;display:inline;overflow:visible;visibility:visible;opacity:0.5;fill:none;stroke:#555761;stroke-width:1;stroke-linecap:round;stroke-linejoin:round;stroke-miterlimit:4;stroke-dasharray:none;stroke-dashoffset:0;stroke-opacity:1;marker:none;enable-background:accumulate" />
  <path
     style="color:#000000;display:inline;overflow:visible;visibility:visible;fill:url(#linearGradient889);fill-opacity:1;fill-rule:nonzero;stroke:none;stroke-width:0.99999994;marker:none;enable-background:accumulate"
     d="M 20.5,12 C 17.453,12 15,14.453 15,17.5 v 60 17 14 c 0,5.263 4.237,9.5 9.5,9.5 h 64 15.5 c 4,0 9.00595,-4 9.00595,-9.0026 C 113.00595,114.2292 98,117 98,109 c 0,-3.5 0,-14.5 0,-14.5 v -17 -4 -56 C 98,14.453 95.547,12 92.5,12 Z"
     id="rect5505-21-3" />
  <path
     style="opacity:1;fill:none;stroke:url(#linearGradient882);stroke-width:0.99999994;stroke-linecap:round;stroke-linejoin:round;stroke-miterlimit:4;stroke-dasharray:none;stroke-dashoffset:0;stroke-opacity:1"
     d="m 20.5,12.5 c -2.77,0 -5,2.23 -5,5 v 60 17 14.00195 c 0,4.986 4.014,9 9,9 h 64 15.5 c 4,0 8,-4.50195 8,-5.50195 -1.5,2 -14.5,6 -14.5,-3.49805 C 97.5,106 97.5,94.5 97.5,94.5 v -17 -4 -56 c 0,-2.77 -2.23,-5 -5,-5 z"
     id="rect6741-7" />
  <path
     style="color:#000000;display:inline;overflow:visible;visibility:visible;opacity:0.5;fill:none;stroke:#555761;stroke-width:1;stroke-linecap:round;stroke-linejoin:round;stroke-miterlimit:4;stroke-dasharray:none;stroke-dashoffset:0;stroke-opacity:1;marker:none;enable-background:accumulate"
     d="m 20.5,11.5 c -3.324,0 -6,2.676 -6,6 v 65 9 17.00195 c 0,5.54 4.46,10 10,10 H 67.527344 88.5 L 104,118.5 c 5,-6.3e-4 9.5,-4.5 9.5,-10 0,4 -15,9 -15,0.002 0,-8.667317 0,-26.00195 0,-26.00195 v -65 c 0,-3.324 -2.676,-6 -6,-6 z"
     id="rect5505-21-3-1" />
  <rect
     style="opacity:0.6;vector-effect:none;fill:none;fill-opacity:1;stroke:#555761;stroke-width:1;stroke-linecap:round;stroke-linejoin:miter;stroke-miterlimit:4;stroke-dasharray:none;stroke-dashoffset:0;stroke-opacity:1"
     id="rect904"
     width="28"
     height="25"
     x="64.5"
     y="31.5" />
  <path
     style="opacity:0.6;fill:none;stroke:#555761;stroke-width:1px;stroke-linecap:butt;stroke-linejoin:miter;stroke-opacity:1"
     d="m 18,31.5 h 14 z m 16,0 h 16 z m 18,0 h 8 z m -34,4 h 8 z m 10,0 h 10 z m 12,0 h 14 z m 16,0 h 6 z m -38,4 h 14 z m 16,0 h 8 z m 10,0 h 6 z m 8,0 h 8 z m -34,4 h 12 z m 14,0 h 12 z m 14,0 h 12 z m -28,4 h 10 z m 12,0 h 16 z m 18,0 h 6 z m 8,0 h 4 z m -38,4 h 8 z m 10,0 h 6 z m 8,0 h 6 z m 8,0 h 12 z m 14,0 h 4 z m -40,4 h 12 z m 14,0 h 6 z m 8,0 h 14 z m 16,0 h 6 z m -38,4 h 8 z m 10,0 h 4 z m 6,0 h 14 z m 16,0 h 12 z m 14,0 h 6 z m 8,0 h 10 z m 12,0 h 6 z m -66,4 h 8 z m 10,0 h 14 z m 16,0 h 4 z m 6,0 h 10 z m 12,0 h 10 z m 12,0 h 14 z m 16,0 h 4 z m -72,4 h 6 z m 8,0 h 6 z m 8,0 h 12 z m 14,0 h 8 z m 10,0 h 10 z m 12,0 h 8 z m 10,0 h 12 z m -62,17 h 6 z m 8,0 h 4 z m 6,0 h 10 z m 12,0 h 6 z m 16,0 h 4 z m 6,0 h 6 z m 8,0 h 2 z m 4,0 h 16 z m -60,4 h 10 z m 12,0 h 2 z m 4,0 h 6 z m 8,0 h 10 z m 18,0 h 6 z m 8,0 h 2 z m 4,0 h 6 z m 8,0 h 4 z m 6,0 h 6 z m -68,4 h 6 z m 8,0 h 6 z m 8,0 h 4 z m 6,0 h 10 z m 20,0 h 8 z m 10,0 h 2 z m 4,0 h 8 z m 10,0 h 10 z m -66,4 h 8 z m 10,0 h 8 z m 10,0 h 2 z m 4,0 h 10 z m 18,0 h 10 z m 12,0 h 6 z m 8,0 h 4 z m 6,0 h 8 z m -68,4 h 2 z m 4,0 h 4 z m 6,0 h 10 z m 12,0 h 4 z m 6,0 h 6 z m 14,0 h 6 z m 8,0 h 4 z m 6,0 h 2 z m 4,0 h 8 z m 10,0 h 6 z m -70,4 h 8 z m 10,0 h 2 z m 4,0 h 6 z m 8,0 h 2 z m 4,0 h 6 z m 16,0 h 8 z m 10,0 h 2 z m 4,0 h 6 z m 8,0 h 6 z m 8,0 h 2 z m -72,4 h 10 z m 12,0 h 4 z m 6,0 h 4 z m 6,0 h 10 z m 18,0 h 4 z m 6,5e-4 h 6 z m 8,0 h 8 z m 10,0 h 10 z"
     id="path906" />
  <path
     style="fill:none;stroke:#7e8087;stroke-width:1px;stroke-linecap:butt;stroke-linejoin:miter;stroke-opacity:1"
     d="m 18,25.5 h 8 z m 10,0 h 12 z m 14,0 h 8 z m 10,0 h 18 z"
     id="path929" />
  <g
     transform="matrix(2,0,0,2.0222222,0,1.0222227)"
     id="g926"
     style="stroke-width:0.49724516">
    <path
       id="path918"
       d="m 32.25,27.434066 v -4.945055 l 4,-3.956044 10,8.901099 z"
       style="opacity:0.6;fill:#abacae;fill-opacity:1;stroke:#555761;stroke-width:0.49724516px;stroke-linecap:butt;stroke-linejoin:round;stroke-opacity:1" />
    <path
       id="path916"
       d="m 40.25,22.5 4,-2.978022 2,1.978022 v 5.934066 h -2 z"
       style="opacity:0.6;fill:#abacae;fill-opacity:1;stroke:#555761;stroke-width:0.49724516px;stroke-linecap:butt;stroke-linejoin:round;stroke-opacity:1" />
  </g>
  <path
     style="opacity:1;fill:#d4d4d4;fill-opacity:1;stroke:#7e8087;stroke-width:1;stroke-opacity:1"
     d="m 82.5,40.5 c -2.761424,0 -5,2.207894 -5,5 0,2.792106 2.238576,5 5,5 2.761424,0 5,-2.207894 5,-5 0,-2.792106 -2.238576,-5 -5,-5 z m 0,10 h -4 c -1.662,0 -3,1.319533 -3,3 v 3 h 3 8 3 v -3 c 0,-1.680467 -1.338,-3 -3,-3 z"
     id="path910" />
  <path
     id="path874"
     d="M 21.0625 18 C 20.865109 17.9974 20.688398 18.064237 20.53125 18.203125 C 20.46481 18.260105 20.395013 18.324146 20.318359 18.390625 C 20.251919 18.447605 20.172066 18.510803 20.080078 18.582031 C 19.993188 18.653261 19.896381 18.72787 19.789062 18.808594 C 19.431331 19.074509 19.14703 19.263832 18.9375 19.373047 C 18.733084 19.482261 18.58883 19.551588 18.501953 19.580078 C 18.404853 19.613318 18.319593 19.662038 18.248047 19.728516 C 18.171377 19.794996 18.111196 19.871558 18.070312 19.957031 C 18.029422 20.037761 18.009016 20.123781 18.003906 20.21875 C 17.993736 20.31372 18.007938 20.407825 18.048828 20.498047 C 18.084608 20.588267 18.137426 20.669007 18.208984 20.740234 C 18.280524 20.806714 18.360388 20.858496 18.447266 20.896484 C 18.534156 20.934474 18.628262 20.956198 18.730469 20.960938 C 18.832679 20.965637 18.9322 20.951189 19.029297 20.917969 C 19.259268 20.837239 19.515803 20.7192 19.796875 20.5625 C 19.791775 20.572 19.789063 20.577271 19.789062 20.582031 C 19.789062 20.586731 19.78635 20.595969 19.78125 20.605469 C 19.77615 20.614969 19.773438 20.622193 19.773438 20.626953 C 19.732547 20.76466 19.73525 20.901356 19.78125 21.039062 C 19.82725 21.176768 19.910552 21.290639 20.033203 21.380859 C 20.166073 21.485326 20.326538 21.537109 20.515625 21.537109 C 20.638275 21.537109 20.762116 21.507042 20.884766 21.445312 C 20.889866 21.445312 20.923075 21.430834 20.984375 21.402344 C 21.045695 21.369104 21.128262 21.327624 21.230469 21.275391 C 21.337789 21.223151 21.459674 21.165246 21.597656 21.103516 C 21.724744 21.044476 21.864477 20.980758 22.011719 20.917969 C 22.030259 20.910069 22.045603 20.904454 22.064453 20.896484 C 22.068853 20.894784 22.071932 20.890372 22.076172 20.888672 C 22.290927 20.808872 22.519623 20.706181 22.777344 20.5625 C 22.772244 20.572 22.769531 20.577271 22.769531 20.582031 C 22.769531 20.586731 22.766819 20.595969 22.761719 20.605469 C 22.756619 20.614969 22.753906 20.622193 22.753906 20.626953 C 22.713016 20.764659 22.715719 20.901357 22.761719 21.039062 C 22.807719 21.176768 22.892973 21.290638 23.015625 21.380859 C 23.148494 21.485326 23.308962 21.537109 23.498047 21.537109 C 23.620698 21.537109 23.744537 21.507043 23.867188 21.445312 C 23.872287 21.445312 23.903534 21.430834 23.964844 21.402344 C 24.026164 21.369104 24.108731 21.327624 24.210938 21.275391 C 24.318258 21.223151 24.442097 21.165245 24.580078 21.103516 C 24.723171 21.037036 24.878231 20.967711 25.046875 20.896484 C 25.069245 20.887784 25.082786 20.869635 25.103516 20.859375 C 25.245871 20.799215 25.391891 20.735081 25.552734 20.654297 C 25.746933 20.554577 25.948675 20.446838 26.158203 20.328125 C 26.275741 20.271155 26.391475 20.210168 26.503906 20.148438 C 26.616335 20.081958 26.730115 20.019874 26.847656 19.962891 L 26.802734 20.035156 L 26.771484 20.091797 C 26.710164 20.201011 26.665429 20.294275 26.634766 20.375 C 26.547876 20.602927 26.545203 20.809791 26.626953 20.990234 C 26.672953 21.099449 26.740044 21.194668 26.832031 21.275391 C 26.924011 21.351361 27.034347 21.403151 27.162109 21.431641 C 27.248999 21.455391 27.328845 21.466797 27.400391 21.466797 C 27.507709 21.466797 27.628849 21.455381 27.761719 21.431641 C 27.89459 21.403151 28.066613 21.359716 28.28125 21.302734 L 28.810547 21.138672 L 28.8125 21.138672 C 28.812438 21.143472 28.810547 21.147534 28.810547 21.152344 C 28.810547 21.209324 28.815992 21.267238 28.826172 21.324219 C 28.836342 21.376459 28.858761 21.435474 28.894531 21.501953 C 28.950751 21.620664 29.036007 21.722011 29.148438 21.802734 C 29.260866 21.888204 29.388158 21.948339 29.53125 21.986328 C 29.5568 21.991028 29.592685 21.992188 29.638672 21.992188 C 29.689772 21.996887 29.742613 22 29.798828 22 C 29.885718 22 29.979073 21.992686 30.076172 21.978516 C 30.173272 21.964266 30.264685 21.941443 30.351562 21.908203 C 30.448673 21.870213 30.550884 21.823721 30.658203 21.771484 C 30.765522 21.719244 30.8766 21.656054 30.994141 21.580078 L 30.988281 21.580078 C 31.059821 21.537338 31.123472 21.49697 31.179688 21.458984 C 31.235907 21.416244 31.294145 21.371707 31.355469 21.324219 C 31.411689 21.390699 31.47803 21.448609 31.554688 21.496094 C 31.636447 21.538834 31.724418 21.568901 31.816406 21.587891 C 31.939057 21.621131 32.060943 21.636719 32.183594 21.636719 C 32.474888 21.636719 32.770753 21.55487 33.072266 21.388672 C 33.205138 21.312702 33.331678 21.231956 33.449219 21.146484 C 33.571869 21.061014 33.685649 20.974144 33.792969 20.888672 L 33.832031 20.853516 C 33.863641 20.828436 33.875504 20.798184 33.902344 20.771484 C 34.049616 20.705714 34.186709 20.654407 34.351562 20.5625 C 34.346463 20.572 34.345703 20.577271 34.345703 20.582031 C 34.345703 20.586731 34.342991 20.595969 34.337891 20.605469 C 34.332791 20.614969 34.330078 20.622193 34.330078 20.626953 C 34.289188 20.76466 34.291891 20.901356 34.337891 21.039062 C 34.383891 21.176768 34.467192 21.290639 34.589844 21.380859 C 34.722714 21.485326 34.883178 21.537109 35.072266 21.537109 C 35.194916 21.537109 35.318757 21.507043 35.441406 21.445312 C 35.446506 21.445312 35.479716 21.430834 35.541016 21.402344 C 35.602336 21.369104 35.682946 21.327614 35.785156 21.275391 C 35.892475 21.223151 36.016316 21.165245 36.154297 21.103516 C 36.29739 21.037036 36.454402 20.967712 36.623047 20.896484 C 36.720157 20.858494 36.800752 20.80671 36.867188 20.740234 C 36.938718 20.669004 36.99082 20.589378 37.021484 20.503906 C 37.057264 20.418436 37.074219 20.33241 37.074219 20.242188 C 37.074219 20.147218 37.054572 20.053112 37.013672 19.962891 C 36.942132 19.820437 36.837202 19.712694 36.699219 19.636719 C 36.561238 19.560749 36.409627 19.525659 36.246094 19.535156 C 36.261424 19.482916 36.274936 19.435313 36.285156 19.392578 C 36.300476 19.345098 36.312036 19.297482 36.322266 19.25 C 36.368266 19.069556 36.397973 18.911144 36.408203 18.773438 C 36.418373 18.635731 36.382537 18.500144 36.300781 18.367188 C 36.249681 18.286458 36.181375 18.216028 36.099609 18.154297 C 36.017849 18.092567 35.928383 18.051086 35.826172 18.027344 C 35.545099 17.960864 35.299371 18.017952 35.089844 18.203125 C 35.023404 18.260105 34.951657 18.324147 34.875 18.390625 C 34.80856 18.447595 34.728708 18.510804 34.636719 18.582031 C 34.549829 18.653261 34.453021 18.727871 34.345703 18.808594 C 33.987973 19.07451 33.705621 19.263832 33.496094 19.373047 C 33.456054 19.394447 33.443743 19.393809 33.408203 19.412109 L 33.441406 19.322266 L 33.455078 19.265625 C 33.465248 19.241875 33.473386 19.219062 33.478516 19.195312 C 33.488686 19.157322 33.496823 19.084935 33.501953 18.980469 C 33.512123 18.871253 33.481696 18.739844 33.410156 18.587891 C 33.348836 18.488171 33.270926 18.402147 33.173828 18.326172 C 33.081848 18.250202 32.979616 18.198414 32.867188 18.169922 C 32.703651 18.131932 32.540489 18.140276 32.376953 18.197266 C 32.218531 18.249506 32.078478 18.340541 31.960938 18.46875 C 31.955838 18.47825 31.950382 18.483521 31.945312 18.488281 C 31.940213 18.497781 31.934068 18.508078 31.923828 18.517578 L 31.816406 18.630859 C 31.770406 18.683099 31.720274 18.742117 31.664062 18.808594 C 31.607843 18.870324 31.542249 18.938539 31.470703 19.009766 C 31.465603 18.967026 31.454783 18.924706 31.439453 18.886719 C 31.429283 18.843979 31.414971 18.802488 31.394531 18.759766 C 31.296121 18.527713 31.104947 18.374963 30.8125 18.304688 C 30.526316 18.247718 30.250117 18.293369 29.984375 18.445312 C 29.938375 18.473803 29.885547 18.513057 29.824219 18.560547 C 29.762889 18.608027 29.689188 18.663991 29.607422 18.730469 C 29.535882 18.796949 29.461423 18.869338 29.384766 18.945312 L 29.169922 19.158203 L 29.019531 19.314453 C 28.999031 19.338693 28.973012 19.364432 28.951172 19.388672 C 28.989802 19.300902 29.036533 19.216483 29.064453 19.123047 C 29.120673 18.952102 29.109863 18.776146 29.033203 18.595703 C 28.930993 18.348782 28.740059 18.187305 28.458984 18.111328 C 28.326114 18.078088 28.186062 18.063609 28.042969 18.068359 C 27.904989 18.073059 27.755331 18.094822 27.591797 18.132812 C 27.356719 18.175552 27.102884 18.259351 26.832031 18.382812 C 26.591841 18.477782 26.348067 18.591651 26.097656 18.724609 C 25.852355 18.852818 25.617436 18.978103 25.392578 19.101562 C 25.198382 19.206031 25.013598 19.302358 24.839844 19.392578 C 24.781104 19.422358 24.741983 19.439104 24.689453 19.464844 C 24.695853 19.441024 24.705818 19.414008 24.710938 19.392578 C 24.726267 19.345098 24.737827 19.297482 24.748047 19.25 C 24.794047 19.069556 24.821801 18.911144 24.832031 18.773438 C 24.842201 18.635731 24.806364 18.500145 24.724609 18.367188 C 24.673509 18.286458 24.607158 18.216028 24.525391 18.154297 C 24.443631 18.092567 24.352209 18.051087 24.25 18.027344 C 23.968927 17.960864 23.723201 18.017952 23.513672 18.203125 C 23.447232 18.260105 23.375484 18.324147 23.298828 18.390625 C 23.232388 18.447595 23.154489 18.510804 23.0625 18.582031 C 22.97561 18.653261 22.87685 18.727871 22.769531 18.808594 C 22.411801 19.07451 22.129449 19.263832 21.919922 19.373047 C 21.820332 19.426267 21.778726 19.438607 21.707031 19.472656 C 21.714431 19.445726 21.720853 19.416518 21.726562 19.392578 C 21.741882 19.345098 21.757348 19.297484 21.767578 19.25 C 21.813578 19.069557 21.841332 18.911145 21.851562 18.773438 C 21.861732 18.635731 21.823944 18.500144 21.742188 18.367188 C 21.691087 18.286458 21.624737 18.216029 21.542969 18.154297 C 21.461209 18.092567 21.369786 18.051087 21.267578 18.027344 C 21.197318 18.010724 21.128296 18.0009 21.0625 18 z M 56.457031 18 C 56.259641 17.9974 56.080975 18.064237 55.923828 18.203125 C 55.857398 18.260105 55.787595 18.324146 55.710938 18.390625 C 55.644497 18.447605 55.564646 18.510803 55.472656 18.582031 C 55.385766 18.653261 55.287006 18.72787 55.179688 18.808594 C 54.821959 19.074509 54.539606 19.263832 54.330078 19.373047 C 54.12566 19.482261 53.979455 19.551588 53.892578 19.580078 C 53.876258 19.585778 53.865219 19.596996 53.849609 19.603516 C 53.807769 19.619456 53.764298 19.626521 53.724609 19.650391 C 53.714439 19.659891 53.705542 19.667115 53.695312 19.671875 L 53.662109 19.685547 C 53.692769 19.619067 53.719794 19.555871 53.740234 19.494141 C 53.765784 19.432411 53.788154 19.374499 53.808594 19.322266 C 53.829034 19.270026 53.847931 19.223536 53.863281 19.185547 C 53.883731 19.147557 53.897983 19.113313 53.908203 19.080078 C 53.913303 19.070578 53.916016 19.059172 53.916016 19.044922 C 53.921116 19.030672 53.926521 19.019276 53.931641 19.009766 C 53.931641 19.000266 53.934353 18.994141 53.939453 18.994141 C 53.944553 18.989441 53.947266 18.984109 53.947266 18.974609 C 53.988156 18.851148 53.99429 18.741453 53.96875 18.646484 C 53.9483 18.551514 53.923238 18.47606 53.892578 18.423828 C 53.795468 18.238636 53.637717 18.120592 53.417969 18.068359 C 53.285097 18.030369 53.152402 18.027237 53.019531 18.060547 C 52.891772 18.093787 52.778739 18.15783 52.681641 18.248047 C 52.676541 18.248047 52.654161 18.266708 52.613281 18.304688 C 52.577501 18.337927 52.52543 18.382474 52.458984 18.439453 C 52.392554 18.496433 52.312692 18.562697 52.220703 18.638672 C 52.133813 18.714642 52.041663 18.795386 51.939453 18.880859 C 51.760589 19.023315 51.608979 19.140247 51.486328 19.230469 C 51.363678 19.320689 51.261455 19.391125 51.179688 19.443359 C 51.097927 19.490829 51.036976 19.523979 50.996094 19.542969 C 50.955874 19.559579 50.932786 19.568499 50.916016 19.574219 C 50.904166 19.577619 50.890766 19.575978 50.878906 19.580078 C 50.863586 19.589578 50.848565 19.594849 50.828125 19.599609 C 50.812795 19.599609 50.79658 19.602822 50.78125 19.607422 C 50.86814 19.455469 50.937177 19.293992 50.988281 19.123047 C 51.044501 18.952102 51.033691 18.776146 50.957031 18.595703 C 50.854821 18.348783 50.663887 18.187304 50.382812 18.111328 C 50.249943 18.078088 50.111843 18.063609 49.96875 18.068359 C 49.830769 18.073059 49.679158 18.094822 49.515625 18.132812 C 49.280545 18.175552 49.028664 18.259351 48.757812 18.382812 C 48.51762 18.477782 48.271894 18.591652 48.021484 18.724609 C 47.776184 18.852818 47.541264 18.978103 47.316406 19.101562 C 47.122211 19.206031 46.937427 19.302357 46.763672 19.392578 C 46.613379 19.468738 46.490565 19.528352 46.380859 19.578125 C 46.375959 19.579725 46.370214 19.578303 46.365234 19.580078 C 46.349914 19.589578 46.330987 19.594849 46.310547 19.599609 C 46.295217 19.599609 46.280945 19.602822 46.265625 19.607422 C 46.352515 19.455469 46.421551 19.293991 46.472656 19.123047 C 46.528876 18.9521 46.520019 18.776145 46.443359 18.595703 C 46.341149 18.348781 46.148263 18.187305 45.867188 18.111328 C 45.734316 18.078088 45.596218 18.063609 45.453125 18.068359 C 45.315142 18.073059 45.165488 18.094822 45.001953 18.132812 C 44.766873 18.175552 44.513042 18.259351 44.242188 18.382812 C 44.001999 18.477782 43.756271 18.591652 43.505859 18.724609 C 43.260559 18.852819 43.025641 18.978102 42.800781 19.101562 C 42.725731 19.141952 42.659906 19.176593 42.587891 19.214844 C 42.599771 19.091168 42.592618 18.970044 42.548828 18.853516 C 42.492608 18.725307 42.410053 18.615613 42.302734 18.525391 C 42.200524 18.435171 42.079386 18.37002 41.941406 18.332031 C 41.685884 18.279791 41.425898 18.312921 41.160156 18.431641 C 41.088606 18.464881 41.013408 18.505247 40.931641 18.552734 C 40.854981 18.600214 40.772425 18.655067 40.685547 18.716797 C 40.557787 18.811767 40.425092 18.918395 40.287109 19.037109 C 40.154238 19.151073 40.026947 19.264942 39.904297 19.378906 L 39.703125 19.566406 C 39.636695 19.623376 39.575745 19.672107 39.519531 19.714844 C 39.442871 19.781324 39.384633 19.857886 39.34375 19.943359 C 39.29775 20.024089 39.272678 20.110107 39.267578 20.205078 C 39.257408 20.295298 39.266205 20.386342 39.296875 20.476562 C 39.327535 20.566782 39.37961 20.647522 39.451172 20.71875 C 39.563602 20.837462 39.698998 20.914026 39.857422 20.947266 C 40.010733 20.975756 40.159643 20.964329 40.302734 20.912109 C 40.358954 21.007079 40.433402 21.088929 40.525391 21.160156 C 40.617371 21.226636 40.722304 21.274245 40.839844 21.302734 C 40.916504 21.316974 40.983596 21.324219 41.044922 21.324219 C 41.111352 21.324219 41.172301 21.316904 41.228516 21.302734 C 41.284736 21.288484 41.337567 21.275115 41.388672 21.265625 C 41.414222 21.256125 41.449344 21.246672 41.490234 21.232422 C 41.531124 21.218182 41.580504 21.200631 41.636719 21.181641 C 41.728699 21.153151 41.839037 21.116956 41.966797 21.074219 C 42.099669 21.026739 42.246621 20.974954 42.410156 20.917969 C 42.462116 20.901059 42.498923 20.869963 42.542969 20.845703 C 42.676957 20.788273 42.810849 20.729679 42.960938 20.654297 C 43.155135 20.554577 43.358832 20.446837 43.568359 20.328125 C 43.685899 20.271155 43.799679 20.210168 43.912109 20.148438 C 44.02454 20.081958 44.138319 20.019873 44.255859 19.962891 L 44.210938 20.035156 L 44.179688 20.091797 C 44.118358 20.201012 44.073632 20.294277 44.042969 20.375 C 43.956079 20.602927 43.953396 20.809791 44.035156 20.990234 C 44.081156 21.099449 44.1502 21.194667 44.242188 21.275391 C 44.334167 21.351361 44.44255 21.403151 44.570312 21.431641 C 44.657202 21.455391 44.737049 21.466797 44.808594 21.466797 C 44.915913 21.466797 45.037052 21.455381 45.169922 21.431641 C 45.302794 21.403151 45.474814 21.359716 45.689453 21.302734 L 46.220703 21.138672 C 46.420012 21.072192 46.638715 20.998694 46.878906 20.917969 C 46.887706 20.915169 46.891811 20.90932 46.900391 20.90625 C 46.915711 20.90055 46.932046 20.903224 46.947266 20.896484 C 47.1108 20.830004 47.287477 20.749267 47.476562 20.654297 C 47.670758 20.554577 47.872503 20.446838 48.082031 20.328125 C 48.199572 20.271145 48.315306 20.210167 48.427734 20.148438 C 48.540164 20.081958 48.655898 20.019873 48.773438 19.962891 L 48.726562 20.035156 L 48.695312 20.091797 C 48.633992 20.201012 48.587303 20.294276 48.556641 20.375 C 48.469751 20.602928 48.469021 20.809791 48.550781 20.990234 C 48.596781 21.099449 48.665826 21.194667 48.757812 21.275391 C 48.849792 21.351361 48.96013 21.40315 49.087891 21.431641 C 49.174781 21.455391 49.252673 21.466797 49.324219 21.466797 C 49.431538 21.466797 49.550723 21.455381 49.683594 21.431641 C 49.816466 21.403151 49.992394 21.359718 50.207031 21.302734 L 50.734375 21.138672 C 50.925283 21.074992 51.138769 21.004481 51.367188 20.927734 C 51.386517 20.922834 51.404498 20.924369 51.423828 20.917969 C 51.459608 20.908469 51.492788 20.898162 51.523438 20.888672 C 51.554097 20.874432 51.58922 20.858844 51.625 20.839844 C 51.61483 20.868334 51.604729 20.897301 51.599609 20.925781 L 51.585938 20.996094 C 51.580838 21.019844 51.575402 21.049911 51.570312 21.087891 C 51.565213 21.125881 51.5625 21.172371 51.5625 21.224609 C 51.5625 21.272079 51.567945 21.323875 51.578125 21.380859 C 51.593455 21.437829 51.618527 21.496864 51.654297 21.558594 C 51.700297 21.648814 51.768592 21.725379 51.855469 21.787109 C 51.942359 21.853589 52.037211 21.898132 52.144531 21.921875 C 52.246741 21.945625 52.345512 21.958984 52.4375 21.958984 C 52.52948 21.958984 52.631712 21.945615 52.744141 21.921875 C 52.815681 21.902885 52.885486 21.878099 52.957031 21.849609 C 53.028581 21.825859 53.105734 21.794683 53.1875 21.751953 C 53.29993 21.694983 53.410258 21.626758 53.517578 21.550781 C 53.630008 21.474811 53.751145 21.392956 53.878906 21.302734 C 53.991336 21.222004 54.099711 21.145447 54.207031 21.074219 C 54.305711 21.007539 54.409067 20.941686 54.515625 20.875 C 54.722975 20.796 54.940768 20.700054 55.1875 20.5625 C 55.1824 20.572 55.179688 20.577271 55.179688 20.582031 C 55.179688 20.586731 55.178928 20.595969 55.173828 20.605469 C 55.168728 20.614969 55.166016 20.622203 55.166016 20.626953 C 55.125126 20.76466 55.127828 20.901356 55.173828 21.039062 C 55.219828 21.176769 55.303133 21.290639 55.425781 21.380859 C 55.558654 21.485326 55.719116 21.537109 55.908203 21.537109 C 56.030852 21.537109 56.154693 21.507042 56.277344 21.445312 C 56.282444 21.445312 56.315643 21.430834 56.376953 21.402344 C 56.438283 21.369104 56.518885 21.327625 56.621094 21.275391 C 56.728413 21.223151 56.852252 21.165245 56.990234 21.103516 C 57.133327 21.037036 57.290339 20.967711 57.458984 20.896484 C 57.556094 20.858494 57.636689 20.806709 57.703125 20.740234 C 57.774675 20.669004 57.82676 20.589379 57.857422 20.503906 C 57.893202 20.418436 57.908203 20.332408 57.908203 20.242188 C 57.908203 20.147218 57.890499 20.053113 57.849609 19.962891 C 57.778069 19.820437 57.673136 19.712695 57.535156 19.636719 C 57.397174 19.560749 57.245564 19.525659 57.082031 19.535156 C 57.097351 19.482916 57.108931 19.435313 57.119141 19.392578 C 57.134471 19.345098 57.147983 19.297483 57.158203 19.25 C 57.204203 19.069557 57.231958 18.911144 57.242188 18.773438 C 57.252358 18.635731 57.218484 18.500146 57.136719 18.367188 C 57.085629 18.286458 57.017314 18.21603 56.935547 18.154297 C 56.853787 18.092567 56.762365 18.051087 56.660156 18.027344 C 56.589896 18.010724 56.522827 18.00088 56.457031 18 z M 67.242188 18 C 67.044798 17.9974 66.868082 18.064237 66.710938 18.203125 C 66.644508 18.260105 66.57275 18.324146 66.496094 18.390625 C 66.429654 18.447605 66.349801 18.510803 66.257812 18.582031 C 66.170923 18.653261 66.074115 18.72787 65.966797 18.808594 C 65.609067 19.074509 65.324762 19.263832 65.115234 19.373047 C 65.075194 19.394447 65.064827 19.393809 65.029297 19.412109 L 65.0625 19.322266 L 65.076172 19.265625 C 65.086342 19.241875 65.094479 19.219062 65.099609 19.195312 C 65.109779 19.157322 65.117927 19.084934 65.123047 18.980469 C 65.133317 18.871253 65.10279 18.739844 65.03125 18.587891 C 64.96993 18.488171 64.892019 18.402149 64.794922 18.326172 C 64.702942 18.250202 64.60071 18.198413 64.488281 18.169922 C 64.324748 18.131932 64.16158 18.140276 63.998047 18.197266 C 63.839624 18.249506 63.699572 18.34054 63.582031 18.46875 C 63.576931 18.47825 63.571486 18.483531 63.566406 18.488281 C 63.561306 18.497781 63.555162 18.508078 63.544922 18.517578 L 63.4375 18.630859 C 63.3915 18.683099 63.339425 18.742115 63.283203 18.808594 C 63.226983 18.870324 63.163344 18.93854 63.091797 19.009766 C 63.086697 18.967026 63.075887 18.924705 63.060547 18.886719 C 63.050277 18.843979 63.034132 18.802489 63.013672 18.759766 L 63.021484 18.767578 C 62.924374 18.530155 62.728046 18.375915 62.431641 18.304688 C 62.145457 18.247718 61.871211 18.293368 61.605469 18.445312 C 61.559469 18.473803 61.506642 18.513056 61.445312 18.560547 C 61.383983 18.608027 61.310283 18.663989 61.228516 18.730469 C 61.156976 18.796949 61.082516 18.869337 61.005859 18.945312 L 60.791016 19.158203 L 60.638672 19.314453 C 60.582452 19.380933 60.521513 19.449147 60.455078 19.515625 L 60.308594 19.650391 C 60.216614 19.731121 60.146808 19.823266 60.095703 19.927734 C 60.039483 20.027454 60.011719 20.134084 60.011719 20.248047 C 60.011719 20.418993 60.070712 20.580469 60.193359 20.732422 C 60.218909 20.770412 60.257493 20.80661 60.308594 20.839844 C 60.359694 20.873084 60.409091 20.903161 60.455078 20.931641 C 60.439748 21.002871 60.431641 21.076368 60.431641 21.152344 C 60.431641 21.209314 60.437086 21.267237 60.447266 21.324219 C 60.457436 21.376459 60.479855 21.435474 60.515625 21.501953 C 60.571845 21.620665 60.657102 21.720057 60.769531 21.800781 C 60.881961 21.886251 61.009252 21.948339 61.152344 21.986328 C 61.177894 21.991028 61.213779 21.992188 61.259766 21.992188 C 61.310866 21.996887 61.363707 22 61.419922 22 C 61.506812 22 61.600168 21.992686 61.697266 21.978516 C 61.794366 21.964276 61.885779 21.941443 61.972656 21.908203 C 62.069766 21.870213 62.171978 21.823711 62.279297 21.771484 C 62.386615 21.719244 62.497695 21.656054 62.615234 21.580078 L 62.607422 21.580078 C 62.678962 21.537338 62.744566 21.49697 62.800781 21.458984 C 62.857001 21.416244 62.915236 21.371707 62.976562 21.324219 C 63.032783 21.390699 63.099124 21.44861 63.175781 21.496094 C 63.257541 21.538834 63.345511 21.568901 63.4375 21.587891 C 63.560151 21.621131 63.682037 21.636719 63.804688 21.636719 C 64.095981 21.636719 64.391845 21.55487 64.693359 21.388672 C 64.826231 21.312702 64.952772 21.231956 65.070312 21.146484 C 65.192961 21.061014 65.306745 20.974144 65.414062 20.888672 L 65.453125 20.853516 C 65.484735 20.828426 65.496577 20.796231 65.523438 20.769531 C 65.67071 20.703761 65.807802 20.654405 65.972656 20.5625 C 65.967556 20.572 65.964844 20.577271 65.964844 20.582031 C 65.964844 20.586731 65.964084 20.595969 65.958984 20.605469 C 65.953884 20.614969 65.951172 20.622193 65.951172 20.626953 C 65.910282 20.764659 65.912984 20.901356 65.958984 21.039062 C 66.004984 21.176768 66.088286 21.290639 66.210938 21.380859 C 66.34381 21.485325 66.504273 21.537109 66.693359 21.537109 C 66.816009 21.537109 66.93985 21.507042 67.0625 21.445312 C 67.0676 21.445312 67.100799 21.430834 67.162109 21.402344 C 67.223429 21.369104 67.30404 21.327616 67.40625 21.275391 C 67.513569 21.223151 67.637409 21.165246 67.775391 21.103516 C 67.918483 21.037036 68.075496 20.967711 68.244141 20.896484 C 68.250241 20.894084 68.251853 20.887306 68.257812 20.884766 C 68.471132 20.805106 68.701461 20.704981 68.957031 20.5625 C 68.951931 20.572 68.949219 20.577281 68.949219 20.582031 C 68.949219 20.586731 68.944653 20.595969 68.939453 20.605469 C 68.934353 20.614969 68.931641 20.622193 68.931641 20.626953 C 68.890751 20.764659 68.893453 20.901356 68.939453 21.039062 C 68.985453 21.176769 69.070709 21.290639 69.193359 21.380859 C 69.326231 21.485325 69.488649 21.537109 69.677734 21.537109 C 69.800385 21.537109 69.920318 21.507042 70.042969 21.445312 C 70.048069 21.445312 70.083202 21.430834 70.144531 21.402344 C 70.205861 21.369104 70.288417 21.327625 70.390625 21.275391 C 70.497945 21.223151 70.617878 21.165246 70.755859 21.103516 C 70.898952 21.037036 71.055964 20.967711 71.224609 20.896484 C 71.230709 20.894084 71.234344 20.887306 71.240234 20.884766 C 71.453553 20.805106 71.681929 20.704983 71.9375 20.5625 C 71.9324 20.572 71.929688 20.577271 71.929688 20.582031 C 71.929688 20.586731 71.926975 20.595969 71.921875 20.605469 C 71.916775 20.614969 71.916016 20.622203 71.916016 20.626953 C 71.875126 20.764659 71.875875 20.901357 71.921875 21.039062 C 71.967875 21.176769 72.053131 21.290638 72.175781 21.380859 C 72.308653 21.485326 72.469118 21.537109 72.658203 21.537109 C 72.780854 21.537109 72.904693 21.507043 73.027344 21.445312 C 73.032444 21.445312 73.065643 21.430844 73.126953 21.402344 C 73.188273 21.369104 73.268885 21.327624 73.371094 21.275391 C 73.478413 21.223151 73.602254 21.165246 73.740234 21.103516 C 73.883325 21.037036 74.036433 20.967712 74.205078 20.896484 C 74.227448 20.887784 74.240989 20.869635 74.261719 20.859375 C 74.404137 20.799195 74.551965 20.735124 74.712891 20.654297 C 74.907086 20.554577 75.108831 20.444884 75.318359 20.326172 C 75.4359 20.269192 75.551633 20.210166 75.664062 20.148438 C 75.776492 20.081947 75.890271 20.019872 76.007812 19.962891 L 75.960938 20.035156 L 75.931641 20.091797 C 75.870321 20.201012 75.823631 20.294275 75.792969 20.375 C 75.706079 20.602927 75.703396 20.809791 75.785156 20.990234 C 75.831156 21.099449 75.900201 21.194667 75.992188 21.275391 C 76.084168 21.351361 76.194505 21.40315 76.322266 21.431641 C 76.409156 21.455391 76.489001 21.466797 76.560547 21.466797 C 76.667867 21.466797 76.78705 21.455381 76.919922 21.431641 C 77.052793 21.403151 77.226769 21.359716 77.441406 21.302734 L 77.970703 21.138672 C 78.17001 21.072192 78.390669 20.998693 78.630859 20.917969 C 78.733068 20.884729 78.819079 20.837125 78.890625 20.775391 C 78.967295 20.708911 79.025522 20.635411 79.066406 20.554688 C 79.107296 20.469217 79.129676 20.381237 79.134766 20.291016 C 79.139866 20.196046 79.125544 20.100828 79.089844 20.005859 C 79.054064 19.915639 79.001247 19.837963 78.929688 19.771484 C 78.863247 19.700254 78.783394 19.64541 78.691406 19.607422 C 78.604516 19.569432 78.510412 19.547709 78.408203 19.542969 C 78.311103 19.533469 78.212333 19.546848 78.115234 19.580078 C 78.099904 19.589578 78.08294 19.594849 78.0625 19.599609 C 78.04717 19.599609 78.030945 19.602822 78.015625 19.607422 C 78.102515 19.45547 78.173504 19.293993 78.224609 19.123047 C 78.280829 18.952102 78.268056 18.776146 78.191406 18.595703 C 78.089196 18.348782 77.898258 18.187304 77.617188 18.111328 C 77.484317 18.078088 77.346216 18.063609 77.203125 18.068359 C 77.065142 18.073059 76.915487 18.094822 76.751953 18.132812 C 76.516872 18.175552 76.264995 18.259352 75.994141 18.382812 C 75.753952 18.477782 75.508225 18.591652 75.257812 18.724609 C 75.012512 18.852818 74.777594 18.978102 74.552734 19.101562 C 74.358538 19.206031 74.173755 19.302357 74 19.392578 C 73.94146 19.422248 73.901988 19.439174 73.849609 19.464844 C 73.856009 19.441094 73.864041 19.413948 73.869141 19.392578 C 73.884471 19.345098 73.897973 19.297484 73.908203 19.25 C 73.954203 19.069557 73.981957 18.911144 73.992188 18.773438 C 74.002358 18.635731 73.966534 18.500144 73.884766 18.367188 C 73.833656 18.286458 73.767312 18.216029 73.685547 18.154297 C 73.603787 18.092567 73.51041 18.049134 73.408203 18.025391 C 73.127129 17.958911 72.883356 18.017952 72.673828 18.203125 C 72.607388 18.260105 72.535639 18.324147 72.458984 18.390625 C 72.392554 18.447595 72.314645 18.510803 72.222656 18.582031 C 72.135766 18.653261 72.037007 18.72787 71.929688 18.808594 C 71.571956 19.07451 71.287651 19.263832 71.078125 19.373047 C 70.978185 19.426437 70.937077 19.438547 70.865234 19.472656 C 70.872634 19.445656 70.882922 19.416568 70.888672 19.392578 C 70.904002 19.345098 70.915561 19.297483 70.925781 19.25 C 70.971781 19.069557 70.999546 18.911144 71.009766 18.773438 C 71.020036 18.635731 70.984108 18.500145 70.902344 18.367188 C 70.851234 18.286458 70.786845 18.216028 70.705078 18.154297 C 70.623318 18.092567 70.529943 18.049133 70.427734 18.025391 C 70.146661 17.958911 69.900935 18.017952 69.691406 18.203125 C 69.624966 18.260105 69.553221 18.324146 69.476562 18.390625 C 69.410122 18.447595 69.330267 18.510804 69.238281 18.582031 C 69.151391 18.653261 69.056539 18.72787 68.949219 18.808594 C 68.591489 19.07451 68.307183 19.263832 68.097656 19.373047 C 67.998056 19.426267 67.956459 19.438607 67.884766 19.472656 C 67.892166 19.445666 67.9005 19.416568 67.90625 19.392578 C 67.92158 19.345098 67.933129 19.297484 67.943359 19.25 C 67.989359 19.069557 68.017114 18.911144 68.027344 18.773438 C 68.037514 18.635731 68.003639 18.500144 67.921875 18.367188 C 67.870775 18.286458 67.802469 18.216027 67.720703 18.154297 C 67.638953 18.092567 67.547522 18.049134 67.445312 18.025391 C 67.375052 18.008771 67.307983 18.00089 67.242188 18 z M 85.445312 18.068359 C 85.307329 18.073059 85.155722 18.094822 84.992188 18.132812 C 84.757109 18.175552 84.505226 18.25935 84.234375 18.382812 C 83.994185 18.477782 83.748459 18.591651 83.498047 18.724609 C 83.252746 18.852818 83.01783 18.978102 82.792969 19.101562 C 82.598773 19.206029 82.41399 19.302358 82.240234 19.392578 C 82.07159 19.478048 81.93004 19.547375 81.8125 19.599609 C 81.71539 19.637599 81.632842 19.692451 81.566406 19.763672 C 81.494876 19.830162 81.442022 19.906714 81.40625 19.992188 C 81.37047 20.077658 81.351562 20.168701 81.351562 20.263672 C 81.351562 20.353892 81.373942 20.442982 81.419922 20.533203 C 81.460812 20.623423 81.519034 20.703051 81.595703 20.769531 C 81.667233 20.831261 81.749809 20.878869 81.841797 20.912109 C 81.933777 20.945349 82.029854 20.960938 82.126953 20.960938 C 82.229163 20.960938 82.326729 20.939214 82.423828 20.896484 C 82.58736 20.830004 82.764042 20.749267 82.953125 20.654297 C 83.147324 20.554577 83.35102 20.446837 83.560547 20.328125 C 83.678088 20.271145 83.791867 20.210167 83.904297 20.148438 C 84.016726 20.081958 84.130509 20.019872 84.248047 19.962891 L 84.203125 20.035156 L 84.171875 20.091797 C 84.110555 20.201011 84.063865 20.294275 84.033203 20.375 C 83.946313 20.602926 83.943631 20.809791 84.025391 20.990234 C 84.071391 21.099449 84.142386 21.194667 84.234375 21.275391 C 84.326355 21.351361 84.434738 21.40315 84.5625 21.431641 C 84.64939 21.455391 84.729236 21.466797 84.800781 21.466797 C 84.9081 21.466797 85.029237 21.455381 85.162109 21.431641 C 85.294979 21.403151 85.467004 21.359717 85.681641 21.302734 L 86.210938 21.138672 C 86.402327 21.074842 86.614662 21.004707 86.84375 20.927734 C 86.8679 20.921134 86.894109 20.920859 86.917969 20.912109 C 86.974179 21.007079 87.046682 21.088928 87.138672 21.160156 C 87.230652 21.226636 87.335585 21.274244 87.453125 21.302734 C 87.529795 21.316974 87.598831 21.324219 87.660156 21.324219 C 87.726596 21.324219 87.787534 21.316904 87.84375 21.302734 C 87.89997 21.288484 87.952801 21.275115 88.003906 21.265625 C 88.029456 21.256125 88.062636 21.244719 88.103516 21.230469 C 88.144396 21.216219 88.193783 21.200631 88.25 21.181641 C 88.34198 21.153151 88.452317 21.116965 88.580078 21.074219 C 88.712948 21.026739 88.861857 20.974953 89.025391 20.917969 C 89.078171 20.900809 89.11554 20.870473 89.160156 20.845703 C 89.293386 20.788533 89.427051 20.729194 89.576172 20.654297 C 89.77037 20.554577 89.972112 20.446837 90.181641 20.328125 C 90.299179 20.271145 90.414915 20.210168 90.527344 20.148438 C 90.639774 20.081958 90.753554 20.019873 90.871094 19.962891 L 90.826172 20.035156 L 90.794922 20.091797 C 90.733592 20.201012 90.686912 20.294276 90.65625 20.375 C 90.56936 20.602927 90.566677 20.809791 90.648438 20.990234 C 90.694438 21.099449 90.765435 21.194667 90.857422 21.275391 C 90.949402 21.351361 91.057787 21.40315 91.185547 21.431641 C 91.272437 21.455391 91.35228 21.466797 91.423828 21.466797 C 91.531147 21.466797 91.652285 21.455381 91.785156 21.431641 C 91.918027 21.403151 92.090048 21.359716 92.304688 21.302734 L 92.833984 21.138672 C 93.033289 21.072192 93.25395 20.998692 93.494141 20.917969 C 93.59635 20.884729 93.682361 20.837115 93.753906 20.775391 C 93.830576 20.708911 93.888802 20.63541 93.929688 20.554688 C 93.970578 20.469217 93.992957 20.381238 93.998047 20.291016 C 94.003147 20.196046 93.988825 20.100829 93.953125 20.005859 C 93.917345 19.915639 93.864528 19.837963 93.792969 19.771484 C 93.726539 19.700254 93.646676 19.645408 93.554688 19.607422 C 93.467798 19.569432 93.373693 19.547709 93.271484 19.542969 C 93.174384 19.533469 93.077569 19.546858 92.980469 19.580078 C 92.965139 19.589578 92.946231 19.594849 92.925781 19.599609 C 92.910451 19.599609 92.894226 19.602822 92.878906 19.607422 C 92.965796 19.455469 93.036789 19.293992 93.087891 19.123047 C 93.144101 18.952102 93.133311 18.776145 93.056641 18.595703 C 92.954431 18.348783 92.761543 18.187304 92.480469 18.111328 C 92.347599 18.078088 92.211452 18.063609 92.068359 18.068359 C 91.930378 18.073059 91.77877 18.094822 91.615234 18.132812 C 91.380154 18.175552 91.128277 18.25935 90.857422 18.382812 C 90.617234 18.477782 90.371506 18.591651 90.121094 18.724609 C 89.875793 18.852817 89.640874 18.978102 89.416016 19.101562 C 89.340166 19.142373 89.273902 19.178167 89.201172 19.216797 C 89.213382 19.092509 89.206349 18.968636 89.162109 18.851562 C 89.105889 18.723353 89.02529 18.615612 88.917969 18.525391 C 88.81576 18.435171 88.694623 18.370021 88.556641 18.332031 C 88.30112 18.279791 88.039179 18.312921 87.773438 18.431641 C 87.701887 18.464881 87.626688 18.505257 87.544922 18.552734 C 87.468262 18.600214 87.385707 18.655067 87.298828 18.716797 C 87.171068 18.811767 87.038373 18.918397 86.900391 19.037109 C 86.76752 19.151073 86.642183 19.264942 86.519531 19.378906 L 86.318359 19.564453 C 86.300669 19.579633 86.286481 19.591309 86.269531 19.605469 C 86.265231 19.606445 86.260149 19.606036 86.255859 19.607422 C 86.342749 19.45547 86.413739 19.293992 86.464844 19.123047 C 86.521054 18.9521 86.510254 18.776145 86.433594 18.595703 C 86.331384 18.34878 86.138497 18.187303 85.857422 18.111328 C 85.724551 18.078088 85.588406 18.063619 85.445312 18.068359 z M 61.986328 77.015625 C 61.901578 77.037875 61.822396 77.082937 61.75 77.152344 C 61.70409 77.195054 61.656489 77.241173 61.603516 77.291016 C 61.557606 77.333736 61.501067 77.382159 61.4375 77.435547 C 61.37747 77.488937 61.31049 77.548859 61.236328 77.609375 C 60.989122 77.808718 60.793229 77.947424 60.648438 78.029297 C 60.507179 78.111177 60.405741 78.162236 60.345703 78.183594 C 60.278613 78.208514 60.221319 78.247033 60.171875 78.296875 C 60.118905 78.346715 60.077083 78.402723 60.048828 78.466797 C 60.020548 78.527317 60.005453 78.59287 60.001953 78.664062 C 59.994853 78.735253 60.004963 78.805414 60.033203 78.873047 C 60.057923 78.940687 60.097039 79.001293 60.146484 79.054688 C 60.195914 79.104518 60.248557 79.143392 60.308594 79.171875 C 60.368634 79.200375 60.433276 79.21522 60.503906 79.21875 C 60.574536 79.22235 60.645792 79.21239 60.712891 79.1875 C 60.87181 79.12699 61.047953 79.037391 61.242188 78.919922 C 61.238687 78.927022 61.236328 78.93396 61.236328 78.9375 C 61.236328 78.9411 61.234069 78.945975 61.230469 78.953125 C 61.226969 78.960225 61.226563 78.9652 61.226562 78.96875 C 61.198282 79.071981 61.198669 79.176067 61.230469 79.279297 C 61.262249 79.382528 61.321497 79.467522 61.40625 79.535156 C 61.49806 79.613466 61.609567 79.652344 61.740234 79.652344 C 61.824984 79.652344 61.909385 79.630254 61.994141 79.583984 C 61.997741 79.583984 62.02012 79.574124 62.0625 79.552734 C 62.10488 79.527814 62.159837 79.494238 62.230469 79.455078 C 62.304639 79.415918 62.390977 79.374405 62.486328 79.328125 C 62.585218 79.278285 62.692053 79.225271 62.808594 79.171875 C 62.815494 79.168975 62.819582 79.163286 62.826172 79.160156 C 62.97205 79.100606 63.128408 79.025352 63.302734 78.919922 C 63.299234 78.927022 63.296875 78.93396 63.296875 78.9375 C 63.296875 78.9411 63.296498 78.945975 63.292969 78.953125 C 63.289469 78.960225 63.287109 78.9652 63.287109 78.96875 C 63.258829 79.071981 63.261109 79.176067 63.292969 79.279297 C 63.324749 79.382528 63.382045 79.467522 63.466797 79.535156 C 63.558617 79.613466 63.670114 79.652344 63.800781 79.652344 C 63.885531 79.652344 63.969931 79.630254 64.054688 79.583984 C 64.058288 79.583984 64.080667 79.574124 64.123047 79.552734 C 64.165427 79.527814 64.22234 79.494238 64.292969 79.455078 C 64.367129 79.415918 64.451524 79.374405 64.546875 79.328125 C 64.645765 79.278285 64.752602 79.225271 64.869141 79.171875 C 64.876041 79.168975 64.880129 79.163286 64.886719 79.160156 C 65.032597 79.100606 65.187002 79.025352 65.361328 78.919922 C 65.357828 78.927022 65.357422 78.93396 65.357422 78.9375 C 65.357422 78.9411 65.355163 78.945975 65.351562 78.953125 C 65.348062 78.960225 65.345703 78.9652 65.345703 78.96875 C 65.317423 79.071981 65.319703 79.176067 65.351562 79.279297 C 65.383342 79.382528 65.442592 79.467522 65.527344 79.535156 C 65.619154 79.613466 65.730662 79.652344 65.861328 79.652344 C 65.946078 79.652344 66.030478 79.630254 66.115234 79.583984 C 66.118834 79.583984 66.141224 79.574124 66.183594 79.552734 C 66.225974 79.527814 66.282883 79.494238 66.353516 79.455078 C 66.427676 79.415918 66.512071 79.374405 66.607422 79.328125 C 66.706312 79.278285 66.815102 79.225271 66.931641 79.171875 C 66.948551 79.164675 66.959049 79.151108 66.974609 79.142578 C 67.071559 79.097968 67.171946 79.049783 67.28125 78.990234 C 67.415447 78.915474 67.554427 78.833133 67.699219 78.744141 C 67.780449 78.701421 67.857854 78.657605 67.935547 78.611328 C 68.013237 78.561488 68.092604 78.515367 68.173828 78.472656 C 68.163228 78.490446 68.155131 78.507591 68.144531 78.525391 C 68.137431 78.539641 68.130107 78.554119 68.123047 78.568359 C 68.080667 78.650229 68.048524 78.720734 68.027344 78.78125 C 67.967334 78.952114 67.965054 79.104967 68.021484 79.240234 C 68.053264 79.322104 68.10049 79.394562 68.164062 79.455078 C 68.227632 79.512038 68.304291 79.550903 68.392578 79.572266 C 68.452608 79.590066 68.507197 79.599609 68.556641 79.599609 C 68.630811 79.599609 68.712867 79.590036 68.804688 79.572266 C 68.896497 79.550916 69.017693 79.519272 69.166016 79.476562 C 69.271962 79.440962 69.393521 79.401744 69.53125 79.355469 C 69.668979 79.305639 69.820347 79.248017 69.986328 79.1875 C 70.056958 79.16258 70.116573 79.126354 70.166016 79.080078 C 70.218986 79.030248 70.260808 78.976533 70.289062 78.916016 C 70.317342 78.851946 70.332437 78.786385 70.335938 78.71875 C 70.339538 78.64756 70.329328 78.575099 70.304688 78.503906 C 70.279967 78.436276 70.242805 78.377963 70.193359 78.328125 C 70.147449 78.274735 70.092864 78.233557 70.029297 78.205078 C 69.969257 78.176578 69.904614 78.161743 69.833984 78.158203 C 69.766884 78.151103 69.697958 78.160677 69.630859 78.185547 C 69.620259 78.192647 69.60787 78.197622 69.59375 78.201172 C 69.58315 78.201172 69.575053 78.201552 69.564453 78.205078 C 69.624493 78.091168 69.669765 77.971899 69.705078 77.84375 C 69.743918 77.715602 69.738517 77.582533 69.685547 77.447266 C 69.614917 77.262161 69.483296 77.140936 69.289062 77.083984 C 69.197243 77.059084 69.100836 77.049204 69.001953 77.052734 C 68.906603 77.056334 68.802462 77.071139 68.689453 77.099609 C 68.527003 77.131649 68.351232 77.194562 68.164062 77.287109 C 67.998081 77.358299 67.829294 77.443299 67.65625 77.542969 C 67.486737 77.639079 67.323356 77.735574 67.167969 77.828125 C 67.033772 77.906435 66.90718 77.977288 66.787109 78.044922 C 66.746049 78.067502 66.72027 78.080129 66.683594 78.099609 C 66.688194 78.081389 66.693686 78.061272 66.697266 78.044922 C 66.707866 78.009322 66.715586 77.975054 66.722656 77.939453 C 66.754436 77.804186 66.77419 77.685262 66.78125 77.582031 C 66.78835 77.478801 66.765494 77.375061 66.708984 77.275391 C 66.673664 77.214871 66.626816 77.161508 66.570312 77.115234 C 66.513802 77.068964 66.45149 77.037331 66.380859 77.019531 C 66.186626 76.969691 66.013933 77.013478 65.869141 77.152344 C 65.823231 77.195054 65.77563 77.241173 65.722656 77.291016 C 65.676746 77.333736 65.622162 77.382149 65.558594 77.435547 C 65.498564 77.488937 65.431584 77.548859 65.357422 77.609375 C 65.110216 77.808718 64.912369 77.947425 64.767578 78.029297 C 64.699318 78.068867 64.672352 78.078086 64.623047 78.103516 C 64.627947 78.083936 64.632839 78.062382 64.636719 78.044922 C 64.647319 78.009322 64.656993 77.975054 64.664062 77.939453 C 64.695842 77.804186 64.713643 77.685262 64.720703 77.582031 C 64.727803 77.478801 64.704947 77.375061 64.648438 77.275391 C 64.613118 77.214871 64.566271 77.161508 64.509766 77.115234 C 64.453256 77.068964 64.388989 77.037331 64.318359 77.019531 C 64.124126 76.969691 63.95534 77.013478 63.810547 77.152344 C 63.764637 77.195054 63.715082 77.241173 63.662109 77.291016 C 63.616199 77.333736 63.561614 77.382159 63.498047 77.435547 C 63.438017 77.488937 63.369084 77.548859 63.294922 77.609375 C 63.047716 77.808718 62.851822 77.947425 62.707031 78.029297 C 62.637671 78.069497 62.61032 78.079859 62.560547 78.105469 C 62.565647 78.085139 62.572182 78.062992 62.576172 78.044922 C 62.586772 78.009322 62.596446 77.975054 62.603516 77.939453 C 62.635296 77.804186 62.655049 77.685262 62.662109 77.582031 C 62.669209 77.478801 62.642428 77.375061 62.585938 77.275391 C 62.550618 77.214871 62.50376 77.161508 62.447266 77.115234 C 62.390756 77.068964 62.328442 77.037331 62.257812 77.019531 C 62.160693 76.994611 62.071084 76.993365 61.986328 77.015625 z M 86.951172 77.015625 C 86.866422 77.037875 86.789193 77.082937 86.716797 77.152344 C 86.670887 77.195054 86.621333 77.241173 86.568359 77.291016 C 86.522449 77.333736 86.465911 77.382159 86.402344 77.435547 C 86.342304 77.488937 86.277287 77.548859 86.203125 77.609375 C 85.955919 77.808718 85.760026 77.947424 85.615234 78.029297 C 85.588134 78.045007 85.580741 78.045114 85.556641 78.058594 L 85.578125 77.992188 C 85.581725 77.977937 85.584391 77.963459 85.587891 77.949219 C 85.594991 77.931429 85.600006 77.914284 85.603516 77.896484 C 85.610616 77.868014 85.615631 77.81465 85.619141 77.736328 C 85.626241 77.654458 85.606091 77.555316 85.556641 77.441406 C 85.514261 77.366646 85.45968 77.301094 85.392578 77.244141 C 85.329008 77.187181 85.257381 77.148315 85.179688 77.126953 C 85.06668 77.098473 84.954805 77.105728 84.841797 77.148438 C 84.73232 77.187597 84.637866 77.255451 84.556641 77.351562 C 84.553041 77.358662 84.548462 77.363638 84.544922 77.367188 C 84.541322 77.374287 84.536417 77.381552 84.529297 77.388672 L 84.455078 77.472656 C 84.423298 77.511816 84.386501 77.559544 84.347656 77.609375 C 84.308816 77.655645 84.266242 77.704413 84.216797 77.757812 C 84.213197 77.725773 84.205893 77.696439 84.195312 77.667969 C 84.188213 77.635929 84.176239 77.604306 84.162109 77.572266 L 84.167969 77.574219 C 84.100879 77.396236 83.964593 77.281911 83.759766 77.228516 C 83.562001 77.185796 83.371139 77.220093 83.1875 77.333984 C 83.15572 77.355334 83.1205 77.384322 83.078125 77.419922 C 83.035745 77.455512 82.984238 77.498993 82.927734 77.548828 C 82.878294 77.598668 82.828364 77.652031 82.775391 77.708984 C 82.725961 77.762374 82.676396 77.815746 82.626953 77.869141 L 82.521484 77.986328 C 82.482644 78.036168 82.438482 78.086881 82.392578 78.136719 L 82.292969 78.238281 C 82.229399 78.298791 82.179843 78.366999 82.144531 78.445312 C 82.105681 78.520072 82.085937 78.600115 82.085938 78.685547 C 82.085938 78.813695 82.13008 78.934919 82.214844 79.048828 C 82.232504 79.077308 82.257659 79.103986 82.292969 79.128906 C 82.328289 79.153826 82.360788 79.175916 82.392578 79.197266 C 82.381978 79.250666 82.376953 79.308282 82.376953 79.365234 C 82.376953 79.407954 82.381632 79.451425 82.388672 79.494141 C 82.395772 79.533301 82.410837 79.577117 82.435547 79.626953 C 82.474397 79.715943 82.531682 79.789092 82.609375 79.849609 C 82.687065 79.913689 82.776117 79.959802 82.875 79.988281 C 82.89266 79.991781 82.917429 79.994141 82.949219 79.994141 C 82.984529 79.997641 83.021692 80 83.060547 80 C 83.120587 80 83.184855 79.995025 83.251953 79.984375 C 83.319043 79.973695 83.381368 79.954598 83.441406 79.929688 C 83.508506 79.901218 83.580135 79.869238 83.654297 79.830078 C 83.728457 79.790928 83.805494 79.742505 83.886719 79.685547 L 83.882812 79.685547 C 83.932243 79.653507 83.974828 79.62224 84.013672 79.59375 C 84.052512 79.56171 84.094344 79.529731 84.136719 79.494141 C 84.175559 79.543981 84.222417 79.585504 84.275391 79.621094 C 84.331901 79.653134 84.39151 79.677166 84.455078 79.691406 C 84.539828 79.716326 84.624227 79.728516 84.708984 79.728516 C 84.91028 79.728516 85.113906 79.665603 85.322266 79.541016 C 85.414076 79.484056 85.500806 79.423449 85.582031 79.359375 C 85.666781 79.295305 85.74615 79.23009 85.820312 79.166016 L 85.847656 79.138672 C 85.869856 79.119572 85.879637 79.096522 85.898438 79.076172 C 85.99963 79.027062 86.093847 78.988373 86.207031 78.919922 C 86.203531 78.927022 86.203125 78.93396 86.203125 78.9375 C 86.203125 78.9411 86.200866 78.945975 86.197266 78.953125 C 86.193766 78.960225 86.191406 78.9652 86.191406 78.96875 C 86.163126 79.071981 86.165406 79.176067 86.197266 79.279297 C 86.229046 79.382528 86.286342 79.467522 86.371094 79.535156 C 86.462904 79.613466 86.574413 79.652344 86.705078 79.652344 C 86.789828 79.652344 86.874227 79.630254 86.958984 79.583984 C 86.962584 79.583984 86.986927 79.574124 87.029297 79.552734 C 87.071677 79.527814 87.126633 79.494238 87.197266 79.455078 C 87.215856 79.445278 87.241799 79.434108 87.261719 79.423828 C 87.263519 79.447118 87.263678 79.470861 87.267578 79.494141 C 87.274678 79.533291 87.289743 79.577117 87.314453 79.626953 C 87.353293 79.715943 87.410589 79.789092 87.488281 79.849609 C 87.565971 79.913679 87.655024 79.959802 87.753906 79.988281 C 87.771566 79.991781 87.796335 79.994141 87.828125 79.994141 C 87.863435 79.997641 87.900598 80 87.939453 80 C 87.999493 80 88.06376 79.995025 88.130859 79.984375 C 88.197949 79.973695 88.260274 79.954608 88.320312 79.929688 C 88.387402 79.901218 88.45904 79.869228 88.533203 79.830078 C 88.607373 79.790918 88.6844 79.742505 88.765625 79.685547 L 88.761719 79.685547 C 88.811149 79.653507 88.853734 79.62224 88.892578 79.59375 C 88.931418 79.56171 88.97325 79.529741 89.015625 79.494141 C 89.054465 79.543981 89.101323 79.585504 89.154297 79.621094 C 89.210807 79.653134 89.270417 79.677176 89.333984 79.691406 C 89.418734 79.716326 89.503135 79.728516 89.587891 79.728516 C 89.789187 79.728516 89.992813 79.665603 90.201172 79.541016 C 90.292982 79.484056 90.379712 79.423449 90.460938 79.359375 C 90.545687 79.295305 90.625057 79.230091 90.699219 79.166016 L 90.726562 79.138672 C 90.750272 79.118272 90.76141 79.094106 90.78125 79.072266 C 90.836 79.044776 90.885103 79.021964 90.943359 78.990234 C 91.077557 78.915474 91.216536 78.833133 91.361328 78.744141 C 91.442558 78.701421 91.521915 78.657605 91.599609 78.611328 C 91.677299 78.561488 91.756666 78.515367 91.837891 78.472656 C 91.827291 78.490446 91.817241 78.507591 91.806641 78.525391 C 91.799541 78.539641 91.792216 78.554119 91.785156 78.568359 C 91.742776 78.650239 91.712586 78.720734 91.691406 78.78125 C 91.631396 78.952115 91.629117 79.10692 91.685547 79.242188 C 91.717327 79.324057 91.764561 79.394562 91.828125 79.455078 C 91.891695 79.512038 91.966399 79.550902 92.054688 79.572266 C 92.114717 79.590066 92.17126 79.599609 92.220703 79.599609 C 92.294873 79.599609 92.37693 79.590036 92.46875 79.572266 C 92.56056 79.550916 92.681755 79.519272 92.830078 79.476562 C 92.936024 79.440962 93.05563 79.401743 93.193359 79.355469 C 93.331088 79.305639 93.484411 79.24997 93.650391 79.189453 C 93.721021 79.164533 93.780636 79.126354 93.830078 79.080078 C 93.883048 79.030248 93.92487 78.976533 93.953125 78.916016 C 93.981405 78.851946 93.9965 78.786384 94 78.71875 C 94.0036 78.64756 93.99339 78.575099 93.96875 78.503906 C 93.94403 78.436276 93.906867 78.377963 93.857422 78.328125 C 93.811512 78.274735 93.756926 78.233557 93.693359 78.205078 C 93.633319 78.176578 93.566724 78.161733 93.496094 78.158203 C 93.429004 78.151103 93.362021 78.160677 93.294922 78.185547 C 93.284322 78.192647 93.271943 78.197622 93.257812 78.201172 C 93.247213 78.201172 93.237162 78.201552 93.226562 78.205078 C 93.286603 78.091168 93.333827 77.971898 93.369141 77.84375 C 93.407991 77.715601 93.400616 77.582533 93.347656 77.447266 C 93.277026 77.262161 93.145405 77.140936 92.951172 77.083984 C 92.859352 77.059084 92.762945 77.049204 92.664062 77.052734 C 92.568713 77.056334 92.464571 77.071139 92.351562 77.099609 C 92.189114 77.131649 92.015295 77.194562 91.828125 77.287109 C 91.662144 77.358299 91.493356 77.445251 91.320312 77.544922 C 91.1508 77.641032 90.987418 77.735574 90.832031 77.828125 C 90.697835 77.906435 90.571243 77.977288 90.451172 78.044922 C 90.445672 78.047922 90.44288 78.049834 90.4375 78.052734 L 90.457031 77.992188 C 90.460631 77.977937 90.463297 77.963459 90.466797 77.949219 C 90.473897 77.931429 90.478912 77.914284 90.482422 77.896484 C 90.489522 77.868014 90.494537 77.814641 90.498047 77.736328 C 90.505147 77.654458 90.484997 77.555316 90.435547 77.441406 C 90.393167 77.366646 90.338587 77.301093 90.271484 77.244141 C 90.207914 77.187181 90.136286 77.148316 90.058594 77.126953 C 89.945585 77.098473 89.833712 77.105728 89.720703 77.148438 C 89.611227 77.187597 89.514819 77.255451 89.433594 77.351562 C 89.429994 77.358662 89.427328 77.363638 89.423828 77.367188 C 89.420228 77.374287 89.415313 77.381552 89.408203 77.388672 L 89.333984 77.472656 C 89.302204 77.511816 89.265408 77.559544 89.226562 77.609375 C 89.187723 77.655645 89.145148 77.704413 89.095703 77.757812 C 89.092103 77.725773 89.084799 77.696439 89.074219 77.667969 C 89.067119 77.635929 89.055146 77.604306 89.041016 77.572266 L 89.046875 77.576172 C 88.979775 77.398189 88.843499 77.281911 88.638672 77.228516 C 88.440907 77.185796 88.250045 77.220092 88.066406 77.333984 C 88.034626 77.355334 87.999406 77.384322 87.957031 77.419922 C 87.914651 77.455512 87.863145 77.500946 87.806641 77.550781 C 87.757201 77.600621 87.707271 77.652032 87.654297 77.708984 C 87.634897 77.729924 87.615083 77.750544 87.595703 77.771484 C 87.606403 77.707754 87.623203 77.636759 87.626953 77.582031 C 87.634053 77.478801 87.609244 77.375061 87.552734 77.275391 C 87.517414 77.214871 87.47252 77.161508 87.416016 77.115234 C 87.359506 77.068964 87.295239 77.037331 87.224609 77.019531 C 87.127489 76.994611 87.035929 76.993365 86.951172 77.015625 z M 22.169922 77.019531 C 22.082695 77.042241 22.000349 77.086327 21.925781 77.152344 C 21.878501 77.192054 21.827993 77.242375 21.773438 77.291016 C 21.726157 77.330726 21.670943 77.379989 21.605469 77.433594 C 21.543639 77.483234 21.472871 77.545904 21.396484 77.605469 C 21.141862 77.804017 20.940151 77.942032 20.791016 78.023438 C 20.719936 78.063147 20.68978 78.071782 20.638672 78.101562 C 20.643872 78.081712 20.650207 78.062819 20.654297 78.042969 C 20.665217 78.003259 20.674371 77.972248 20.681641 77.9375 C 20.714381 77.80348 20.734967 77.684284 20.742188 77.582031 C 20.749488 77.479779 20.724216 77.378571 20.666016 77.279297 C 20.629636 77.219737 20.581634 77.16676 20.523438 77.121094 C 20.465238 77.071454 20.400874 77.041344 20.328125 77.021484 C 20.228093 77.001634 20.134174 76.991704 20.046875 77.021484 L 20.046875 77.046875 C 19.959575 77.066725 19.877302 77.115125 19.802734 77.181641 C 19.755454 77.221351 19.704957 77.271671 19.650391 77.320312 C 19.603111 77.360022 19.545944 77.409287 19.480469 77.462891 C 19.418639 77.512531 19.351778 77.575202 19.275391 77.634766 C 19.020769 77.833314 18.819058 77.97133 18.669922 78.052734 C 18.524426 78.132154 18.419261 78.18423 18.357422 78.205078 C 18.288312 78.234858 18.22866 78.264747 18.177734 78.318359 C 18.123174 78.367999 18.081835 78.422793 18.052734 78.486328 C 18.023604 78.545898 18.005563 78.61311 18.001953 78.683594 C 17.994653 78.753084 18.006096 78.823119 18.035156 78.890625 C 18.060616 78.960115 18.099469 79.017697 18.150391 79.070312 C 18.201321 79.119952 18.258474 79.159706 18.320312 79.1875 C 18.382143 79.21728 18.448734 79.228351 18.521484 79.238281 C 18.594234 79.238281 18.66331 79.236811 18.732422 79.207031 C 18.896107 79.147471 19.079237 79.059509 19.279297 78.943359 C 19.275697 78.943359 19.275391 78.952931 19.275391 78.962891 C 19.275391 78.962891 19.273131 78.962572 19.269531 78.982422 C 19.265931 78.982422 19.263672 78.992187 19.263672 78.992188 C 19.234542 79.095433 19.236791 79.196576 19.269531 79.298828 C 19.302271 79.402073 19.361918 79.487181 19.449219 79.554688 C 19.543789 79.634107 19.658384 79.669922 19.792969 79.669922 C 19.880269 79.669922 19.967388 79.651203 20.054688 79.601562 C 20.058387 79.601562 20.083313 79.590192 20.126953 79.570312 C 20.170603 79.540532 20.228031 79.512366 20.300781 79.472656 C 20.377171 79.432946 20.464288 79.392361 20.5625 79.345703 C 20.664343 79.296063 20.774494 79.245974 20.894531 79.193359 C 20.903031 79.193359 20.909789 79.183594 20.917969 79.183594 C 21.066884 79.124034 21.224773 79.050511 21.402344 78.947266 C 21.398744 78.947266 21.396484 78.956847 21.396484 78.966797 C 21.396484 78.966797 21.394225 78.966468 21.390625 78.986328 C 21.387025 78.986328 21.384766 78.996094 21.384766 78.996094 C 21.355636 79.099339 21.357885 79.200482 21.390625 79.302734 C 21.423365 79.405979 21.483012 79.491087 21.570312 79.558594 C 21.664883 79.638014 21.779476 79.673828 21.914062 79.673828 C 22.001362 79.673828 22.088481 79.655109 22.175781 79.605469 C 22.179481 79.605469 22.204397 79.603999 22.248047 79.574219 C 22.291697 79.544439 22.349124 79.516273 22.421875 79.476562 C 22.498265 79.436853 22.585383 79.396267 22.683594 79.349609 C 22.785448 79.299969 22.897542 79.249881 23.017578 79.197266 C 23.033548 79.197266 23.041851 79.177899 23.056641 79.167969 C 23.157972 79.128259 23.262454 79.077204 23.376953 79.013672 C 23.515177 78.934252 23.659458 78.857885 23.808594 78.769531 C 23.892254 78.729821 23.974663 78.681357 24.054688 78.638672 C 24.134708 78.589032 24.21712 78.538721 24.300781 78.5 C 24.289861 78.51986 24.276535 78.538898 24.265625 78.548828 C 24.258325 78.558728 24.251411 78.579914 24.244141 78.589844 C 24.200491 78.669264 24.168314 78.740223 24.146484 78.800781 C 24.084674 78.970539 24.082425 79.121839 24.140625 79.255859 C 24.173365 79.335279 24.223591 79.409186 24.289062 79.46875 C 24.354533 79.52832 24.432502 79.568064 24.523438 79.585938 C 24.585268 79.605788 24.640479 79.615234 24.691406 79.615234 C 24.767796 79.615234 24.854645 79.605818 24.949219 79.585938 C 25.043799 79.566087 25.165586 79.535958 25.318359 79.486328 C 25.427483 79.446618 25.555405 79.405935 25.697266 79.365234 C 25.697266 79.404944 25.699801 79.455428 25.707031 79.494141 C 25.714331 79.533851 25.730389 79.572385 25.755859 79.625 C 25.795869 79.71435 25.85748 79.788092 25.9375 79.847656 C 26.01752 79.907226 26.107136 79.956578 26.208984 79.984375 L 26.287109 79.984375 L 26.400391 79.984375 C 26.462221 79.984375 26.526591 79.984694 26.595703 79.964844 C 26.664813 79.954944 26.731131 79.935876 26.792969 79.916016 C 26.862089 79.886236 26.935332 79.856116 27.011719 79.816406 C 27.088109 79.776696 27.168291 79.726472 27.251953 79.671875 L 27.246094 79.671875 C 27.297024 79.642095 27.340847 79.613774 27.380859 79.583984 C 27.420869 79.554204 27.464162 79.524085 27.507812 79.484375 C 27.547822 79.534015 27.59388 79.572647 27.648438 79.609375 C 27.706637 79.639155 27.76851 79.669758 27.833984 79.679688 C 27.921274 79.709468 28.008404 79.71875 28.095703 79.71875 C 28.303038 79.71875 28.515859 79.660269 28.730469 79.533203 C 28.825039 79.473643 28.914386 79.417052 28.998047 79.353516 C 29.085337 79.293956 29.167754 79.225644 29.244141 79.162109 L 29.269531 79.132812 C 29.291621 79.112962 29.301492 79.092116 29.320312 79.072266 C 29.425694 79.022626 29.52258 78.982559 29.640625 78.914062 C 29.637025 78.914062 29.634766 78.925597 29.634766 78.935547 C 29.634766 78.935547 29.632506 78.935218 29.628906 78.955078 C 29.625306 78.955078 29.625 78.964844 29.625 78.964844 C 29.59587 79.068089 29.596166 79.169232 29.628906 79.271484 C 29.661646 79.374729 29.723249 79.458877 29.810547 79.525391 C 29.905127 79.604811 30.01971 79.642578 30.154297 79.642578 C 30.241597 79.642578 30.328717 79.621906 30.416016 79.572266 C 30.419716 79.572266 30.442678 79.562849 30.486328 79.542969 C 30.529978 79.513189 30.589361 79.483069 30.662109 79.443359 C 30.738499 79.403649 30.825617 79.365017 30.923828 79.318359 C 31.025682 79.268719 31.135822 79.218631 31.255859 79.166016 C 31.324979 79.136236 31.384356 79.096482 31.431641 79.048828 C 31.482571 78.999188 31.517245 78.935623 31.539062 78.871094 C 31.564522 78.811534 31.578125 78.743288 31.578125 78.675781 C 31.578125 78.606291 31.562313 78.537216 31.533203 78.470703 C 31.482273 78.364479 31.406805 78.281196 31.308594 78.224609 C 31.210384 78.165049 31.10468 78.14632 30.988281 78.15625 C 30.999201 78.11654 31.008355 78.076624 31.015625 78.048828 C 31.026545 78.009118 31.035699 77.978107 31.042969 77.943359 C 31.075709 77.809339 31.096236 77.690143 31.103516 77.587891 C 31.110816 77.485639 31.083591 77.38443 31.025391 77.285156 C 30.989011 77.225596 30.942963 77.172619 30.884766 77.126953 C 30.826566 77.077313 30.760249 77.047194 30.6875 77.027344 C 30.48744 76.977704 30.313198 77.028122 30.164062 77.160156 C 30.116782 77.199866 30.068238 77.248233 30.013672 77.296875 C 29.966392 77.336585 29.909224 77.387802 29.84375 77.441406 C 29.78192 77.491046 29.711153 77.551763 29.634766 77.611328 C 29.380143 77.809876 29.178433 77.947892 29.029297 78.029297 C 29.002137 78.039197 28.996896 78.048664 28.972656 78.058594 L 28.992188 77.990234 C 28.995887 77.980334 28.998233 77.959149 29.001953 77.949219 C 29.009253 77.929359 29.015911 77.910321 29.019531 77.900391 C 29.026831 77.870611 29.031536 77.821607 29.035156 77.742188 C 29.042456 77.662768 29.021623 77.562392 28.970703 77.449219 C 28.927053 77.369799 28.869894 77.310492 28.800781 77.253906 C 28.735311 77.194346 28.662055 77.154593 28.582031 77.136719 C 28.465632 77.106939 28.348821 77.11655 28.232422 77.15625 C 28.119661 77.19596 28.023114 77.262119 27.939453 77.357422 C 27.935753 77.357422 27.929371 77.368946 27.925781 77.378906 C 27.922081 77.378906 27.917446 77.388478 27.910156 77.398438 L 27.833984 77.476562 C 27.801244 77.516272 27.764625 77.566658 27.724609 77.611328 C 27.684599 77.660968 27.640776 77.711117 27.589844 77.759766 C 27.586144 77.729986 27.577306 77.699702 27.566406 77.669922 C 27.559106 77.640142 27.549706 77.610022 27.535156 77.570312 L 27.541016 77.570312 C 27.471906 77.393604 27.330113 77.279178 27.119141 77.226562 C 26.915443 77.186853 26.718445 77.2268 26.529297 77.332031 C 26.496557 77.351881 26.459668 77.382165 26.416016 77.421875 C 26.372366 77.451655 26.32187 77.502137 26.263672 77.550781 C 26.212742 77.600421 26.158079 77.650445 26.103516 77.707031 C 26.052586 77.756671 26.004048 77.812619 25.953125 77.865234 L 25.841797 77.982422 C 25.827707 78.002272 25.811855 78.023273 25.796875 78.033203 C 25.823975 77.963713 25.857293 77.90639 25.876953 77.837891 C 25.916963 77.71082 25.910029 77.579332 25.855469 77.445312 C 25.782719 77.261656 25.645373 77.14057 25.445312 77.083984 C 25.350742 77.054204 25.252239 77.054688 25.150391 77.054688 C 25.052181 77.054688 24.94455 77.073726 24.828125 77.103516 C 24.660801 77.133296 24.481848 77.203651 24.289062 77.291016 C 24.118102 77.360506 23.94386 77.445648 23.765625 77.544922 C 23.591026 77.644192 23.42372 77.73484 23.263672 77.826172 C 23.125448 77.905592 22.992814 77.974502 22.869141 78.041016 C 22.827471 78.060876 22.800963 78.081702 22.763672 78.101562 C 22.768272 78.081703 22.773644 78.060876 22.777344 78.041016 C 22.788264 78.001306 22.795464 77.972248 22.802734 77.9375 C 22.835474 77.80348 22.856011 77.684283 22.863281 77.582031 C 22.870581 77.479778 22.845309 77.378571 22.787109 77.279297 C 22.750729 77.219727 22.704681 77.164807 22.646484 77.119141 C 22.588284 77.069501 22.521968 77.041334 22.449219 77.021484 C 22.349189 76.996664 22.257149 76.996822 22.169922 77.019531 z M 45.236328 77.019531 L 45.236328 77.046875 C 45.149028 77.066725 45.068709 77.115125 44.994141 77.181641 C 44.946851 77.221351 44.894398 77.271671 44.839844 77.320312 C 44.792554 77.360022 44.739302 77.409287 44.673828 77.462891 C 44.611988 77.512531 44.541231 77.575202 44.464844 77.634766 C 44.210221 77.833314 44.008511 77.97133 43.859375 78.052734 C 43.713879 78.132154 43.610666 78.18423 43.548828 78.205078 C 43.534318 78.205078 43.523466 78.224609 43.509766 78.224609 C 43.482846 78.234509 43.453394 78.234026 43.427734 78.253906 C 43.420434 78.253906 43.41352 78.265441 43.40625 78.275391 C 43.39895 78.275391 43.392046 78.275256 43.384766 78.285156 C 43.406586 78.235516 43.424903 78.18527 43.439453 78.142578 C 43.457643 78.092938 43.473731 78.052386 43.488281 78.013672 C 43.502831 77.973962 43.514481 77.945833 43.525391 77.914062 C 43.539941 77.884282 43.553267 77.853844 43.560547 77.833984 C 43.564147 77.833984 43.566406 77.824568 43.566406 77.804688 C 43.570106 77.794787 43.572442 77.783358 43.576172 77.773438 C 43.576172 77.773438 43.578431 77.763672 43.582031 77.763672 C 43.585631 77.763672 43.585938 77.754101 43.585938 77.744141 C 43.615048 77.654791 43.621696 77.572437 43.603516 77.501953 C 43.588966 77.432463 43.570658 77.374653 43.548828 77.335938 C 43.479708 77.197946 43.367347 77.110983 43.210938 77.072266 C 43.116368 77.042486 43.020354 77.042486 42.925781 77.072266 C 42.834841 77.102046 42.756611 77.142437 42.6875 77.210938 C 42.6838 77.210938 42.665829 77.22019 42.636719 77.25 C 42.611259 77.27978 42.576585 77.309863 42.529297 77.351562 C 42.482017 77.391272 42.42485 77.440472 42.359375 77.498047 C 42.297545 77.557617 42.230952 77.616152 42.158203 77.679688 C 42.030893 77.785911 41.923236 77.872939 41.835938 77.939453 C 41.748627 78.008943 41.675385 78.0599 41.617188 78.099609 C 41.558988 78.129389 41.515429 78.158039 41.486328 78.167969 C 41.453588 78.177869 41.430822 78.1875 41.419922 78.1875 L 41.404297 78.1875 C 41.393377 78.1875 41.379774 78.199034 41.365234 78.208984 L 41.333984 78.208984 C 41.395824 78.095811 41.444097 77.97668 41.480469 77.849609 C 41.520479 77.722538 41.513534 77.591051 41.458984 77.457031 C 41.386234 77.273374 41.250842 77.15229 41.050781 77.095703 C 40.956211 77.075853 40.855755 77.066406 40.753906 77.066406 C 40.655696 77.066406 40.549993 77.085454 40.433594 77.115234 C 40.26627 77.145014 40.085364 77.213415 39.892578 77.300781 C 39.721618 77.370271 39.547378 77.457367 39.369141 77.556641 C 39.194544 77.655921 39.027234 77.744605 38.867188 77.835938 C 38.728963 77.915357 38.598283 77.985228 38.474609 78.052734 C 38.367947 78.112294 38.281067 78.152722 38.203125 78.189453 L 38.191406 78.189453 C 38.180486 78.189453 38.166884 78.200978 38.152344 78.210938 L 38.119141 78.210938 C 38.180981 78.097765 38.231206 77.978633 38.267578 77.851562 C 38.307588 77.724491 38.298691 77.593004 38.244141 77.458984 C 38.171391 77.275327 38.035999 77.154242 37.835938 77.097656 C 37.741368 77.077806 37.642865 77.068359 37.541016 77.068359 C 37.442806 77.068359 37.337101 77.087398 37.220703 77.117188 C 37.053379 77.146968 36.870519 77.217322 36.677734 77.304688 C 36.506774 77.374178 36.332532 77.45932 36.154297 77.558594 C 35.979698 77.657864 35.814345 77.747519 35.654297 77.839844 C 35.600387 77.869624 35.551695 77.900062 35.5 77.919922 C 35.5086 77.830572 35.505889 77.734807 35.474609 77.648438 C 35.434599 77.549167 35.377167 77.471803 35.300781 77.404297 C 35.228031 77.334807 35.141181 77.291468 35.042969 77.263672 C 34.861095 77.223962 34.675475 77.252641 34.486328 77.332031 C 34.435398 77.361811 34.380462 77.382165 34.322266 77.421875 C 34.267706 77.461585 34.208323 77.502234 34.146484 77.544922 C 34.055544 77.614412 33.961492 77.694849 33.863281 77.783203 C 33.768711 77.862623 33.679096 77.951733 33.591797 78.037109 L 33.449219 78.175781 C 33.401939 78.215491 33.358375 78.254381 33.318359 78.285156 C 33.263799 78.334796 33.222462 78.393496 33.193359 78.457031 C 33.160599 78.516591 33.142292 78.580867 33.138672 78.652344 C 33.131372 78.721834 33.13834 78.786009 33.160156 78.853516 C 33.181976 78.923006 33.218605 78.980588 33.269531 79.033203 C 33.349551 79.122553 33.445833 79.178306 33.558594 79.203125 C 33.667717 79.222975 33.773149 79.213508 33.875 79.173828 C 33.91501 79.243318 33.967733 79.30676 34.033203 79.359375 C 34.098673 79.409015 34.17415 79.439033 34.257812 79.464844 C 34.312373 79.474744 34.360647 79.484375 34.404297 79.484375 C 34.451587 79.484375 34.495138 79.484704 34.535156 79.464844 C 34.575166 79.454944 34.614021 79.445477 34.650391 79.435547 C 34.668571 79.435547 34.691593 79.41617 34.720703 79.40625 C 34.749793 79.39635 34.784207 79.385094 34.824219 79.365234 C 34.889689 79.345374 34.967658 79.316889 35.058594 79.287109 C 35.153164 79.247399 35.258602 79.217575 35.375 79.169922 C 35.40791 79.160022 35.430544 79.139001 35.458984 79.119141 C 35.556994 79.079431 35.657383 79.029272 35.767578 78.970703 C 35.905802 78.891283 36.050084 78.814916 36.199219 78.726562 C 36.282879 78.686853 36.365289 78.638388 36.445312 78.595703 C 36.525332 78.546063 36.607744 78.495752 36.691406 78.457031 C 36.680486 78.476891 36.669123 78.497883 36.658203 78.507812 C 36.650903 78.517713 36.643989 78.536945 36.636719 78.546875 C 36.593069 78.626295 36.558939 78.697254 36.537109 78.757812 C 36.475299 78.927571 36.475013 79.078871 36.533203 79.212891 C 36.565943 79.292311 36.612262 79.366217 36.677734 79.425781 C 36.743204 79.485351 36.823126 79.525095 36.914062 79.542969 C 36.975893 79.562829 37.033057 79.572266 37.083984 79.572266 C 37.160374 79.572266 37.245271 79.562849 37.339844 79.542969 C 37.434414 79.523119 37.558164 79.492989 37.710938 79.443359 C 37.82006 79.403649 37.94603 79.362968 38.087891 79.322266 C 38.229752 79.272626 38.385682 79.216807 38.556641 79.15625 L 38.570312 79.15625 L 38.605469 79.15625 C 38.721868 79.10661 38.847836 79.047047 38.982422 78.976562 C 39.120646 78.897143 39.262973 78.820776 39.412109 78.732422 C 39.495769 78.692712 39.578179 78.642293 39.658203 78.599609 C 39.738223 78.549969 39.820635 78.501612 39.904297 78.462891 C 39.893377 78.482741 39.882014 78.501789 39.871094 78.511719 C 39.863794 78.521619 39.856879 78.540851 39.849609 78.550781 C 39.805959 78.630201 39.773773 78.703115 39.751953 78.763672 C 39.690143 78.933431 39.687894 79.08473 39.746094 79.21875 C 39.778834 79.29817 39.827108 79.370123 39.892578 79.429688 C 39.958048 79.489248 40.036016 79.529002 40.126953 79.546875 C 40.188783 79.566735 40.245948 79.576172 40.296875 79.576172 C 40.373265 79.576172 40.458161 79.576655 40.552734 79.546875 C 40.647304 79.527025 40.771055 79.496896 40.923828 79.447266 C 41.032952 79.407556 41.15892 79.368827 41.300781 79.328125 C 41.436532 79.278485 41.587603 79.227501 41.75 79.169922 L 41.791016 79.169922 C 41.816476 79.169922 41.841461 79.160351 41.863281 79.150391 C 41.885101 79.140491 41.908134 79.131188 41.933594 79.111328 C 41.926294 79.131188 41.921589 79.150062 41.917969 79.169922 C 41.914269 79.189772 41.90984 79.200843 41.90625 79.220703 C 41.90255 79.240553 41.900204 79.259283 41.896484 79.289062 C 41.892884 79.318843 41.888672 79.347966 41.888672 79.388672 C 41.888672 79.428382 41.895054 79.458205 41.902344 79.505859 C 41.913264 79.545569 41.929628 79.595955 41.955078 79.640625 C 41.987818 79.710115 42.035819 79.761935 42.097656 79.808594 C 42.159486 79.858234 42.2283 79.889309 42.304688 79.910156 C 42.377437 79.930006 42.448198 79.939453 42.513672 79.939453 C 42.579142 79.939453 42.650444 79.930036 42.730469 79.910156 C 42.781399 79.900256 42.831889 79.879235 42.882812 79.859375 C 42.933743 79.839525 42.988678 79.81103 43.046875 79.78125 C 43.126895 79.74154 43.206816 79.690388 43.283203 79.632812 C 43.363223 79.573243 43.446173 79.514772 43.537109 79.447266 C 43.617129 79.387706 43.695097 79.32996 43.771484 79.277344 C 43.843244 79.227704 43.920437 79.177583 43.998047 79.126953 C 44.144325 79.067393 44.297005 78.997743 44.470703 78.896484 C 44.467103 78.896484 44.464844 78.906066 44.464844 78.916016 C 44.464844 78.916016 44.462584 78.915687 44.458984 78.935547 C 44.455384 78.935547 44.455078 78.945128 44.455078 78.955078 C 44.425948 79.057331 44.426244 79.158473 44.458984 79.261719 C 44.491724 79.363971 44.551372 79.448119 44.638672 79.515625 C 44.732762 79.595045 44.850694 79.632812 44.984375 79.632812 C 45.071055 79.632812 45.159413 79.61214 45.246094 79.5625 C 45.249794 79.5625 45.272746 79.553083 45.316406 79.533203 C 45.360056 79.503423 45.417484 79.473304 45.490234 79.433594 C 45.566624 79.393884 45.655694 79.355252 45.753906 79.308594 C 45.855759 79.258954 45.965902 79.206913 46.085938 79.154297 C 46.155057 79.124517 46.212481 79.085723 46.259766 79.039062 C 46.310696 78.989423 46.347315 78.926816 46.369141 78.863281 C 46.394601 78.803711 46.408203 78.733522 46.408203 78.666016 C 46.408202 78.596526 46.392391 78.528445 46.363281 78.460938 C 46.312351 78.354715 46.236884 78.27239 46.138672 78.216797 C 46.040462 78.157237 45.934757 78.136554 45.818359 78.146484 C 45.829269 78.106774 45.838433 78.06782 45.845703 78.041016 C 45.856623 78.001306 45.865777 77.971287 45.873047 77.935547 C 45.905787 77.801527 45.926324 77.682331 45.933594 77.580078 C 45.940894 77.477826 45.913679 77.376618 45.855469 77.277344 C 45.819089 77.217784 45.77305 77.162853 45.714844 77.117188 C 45.656644 77.067548 45.590327 77.039381 45.517578 77.019531 C 45.417545 76.999681 45.323628 76.989751 45.236328 77.019531 z M 74.697266 77.052734 C 74.601916 77.056334 74.497774 77.071139 74.384766 77.099609 C 74.222316 77.131649 74.046545 77.194562 73.859375 77.287109 C 73.693393 77.358299 73.524606 77.443299 73.351562 77.542969 C 73.18205 77.639079 73.018667 77.735574 72.863281 77.828125 C 72.729083 77.906435 72.602493 77.977288 72.482422 78.044922 C 72.365882 78.108992 72.266771 78.162014 72.185547 78.201172 C 72.118447 78.229652 72.061533 78.268872 72.015625 78.322266 C 71.966185 78.372106 71.930965 78.430067 71.90625 78.494141 C 71.88153 78.558211 71.869141 78.626072 71.869141 78.697266 C 71.869141 78.764906 71.884246 78.830803 71.916016 78.898438 C 71.944266 78.966067 71.984134 79.026335 72.037109 79.076172 C 72.086549 79.122442 72.143464 79.15672 72.207031 79.181641 C 72.270601 79.206561 72.335245 79.21875 72.402344 79.21875 C 72.472974 79.21875 72.542277 79.203895 72.609375 79.171875 C 72.722384 79.122035 72.843943 79.061426 72.974609 78.990234 C 73.108806 78.915474 73.247786 78.833133 73.392578 78.744141 C 73.473808 78.701421 73.555118 78.657605 73.632812 78.611328 C 73.710503 78.561488 73.789869 78.515368 73.871094 78.472656 C 73.860494 78.490446 73.848471 78.507591 73.837891 78.525391 C 73.830791 78.539641 73.823476 78.554119 73.816406 78.568359 C 73.774026 78.650229 73.741883 78.720734 73.720703 78.78125 C 73.660693 78.952114 73.660317 79.104967 73.716797 79.240234 C 73.748577 79.322104 73.79581 79.394562 73.859375 79.455078 C 73.922945 79.512038 73.999604 79.550903 74.087891 79.572266 C 74.147921 79.590066 74.200557 79.599609 74.25 79.599609 C 74.32417 79.599609 74.410133 79.590036 74.501953 79.572266 C 74.593763 79.550916 74.711052 79.519273 74.859375 79.476562 C 74.965321 79.440962 75.088833 79.401744 75.226562 79.355469 C 75.36429 79.305639 75.51566 79.248017 75.681641 79.1875 C 75.684041 79.186663 75.6851 79.184494 75.6875 79.183594 C 75.6956 79.180794 75.704761 79.184941 75.712891 79.181641 C 75.751741 79.252831 75.803625 79.3177 75.867188 79.371094 C 75.930757 79.420934 76.002759 79.45521 76.083984 79.476562 C 76.136954 79.487242 76.186138 79.494141 76.228516 79.494141 C 76.274426 79.494141 76.314672 79.487263 76.353516 79.476562 C 76.392366 79.465883 76.431481 79.458292 76.466797 79.451172 C 76.484447 79.444072 76.506896 79.434498 76.535156 79.423828 C 76.563406 79.413148 76.595921 79.400949 76.634766 79.386719 C 76.698336 79.365369 76.774993 79.338671 76.863281 79.306641 C 76.955091 79.271041 77.056913 79.230214 77.169922 79.1875 C 77.200982 79.17655 77.22304 79.155695 77.25 79.140625 C 77.34587 79.096395 77.444817 79.049028 77.552734 78.990234 C 77.68693 78.915474 77.825912 78.833133 77.970703 78.744141 C 78.051933 78.701421 78.131291 78.657605 78.208984 78.611328 C 78.286674 78.561488 78.366041 78.515368 78.447266 78.472656 C 78.436666 78.490446 78.426616 78.507591 78.416016 78.525391 C 78.408916 78.539641 78.401591 78.554119 78.394531 78.568359 C 78.352151 78.650229 78.320008 78.720734 78.298828 78.78125 C 78.238818 78.952114 78.236539 79.104967 78.292969 79.240234 C 78.324749 79.322104 78.373935 79.394562 78.4375 79.455078 C 78.50107 79.512038 78.575775 79.550903 78.664062 79.572266 C 78.724092 79.590066 78.780634 79.599609 78.830078 79.599609 C 78.904238 79.599609 78.986305 79.590036 79.078125 79.572266 C 79.169935 79.550916 79.289176 79.519272 79.4375 79.476562 C 79.543445 79.440962 79.665004 79.401744 79.802734 79.355469 C 79.940462 79.305639 80.093785 79.248017 80.259766 79.1875 C 80.330396 79.16258 80.39001 79.126354 80.439453 79.080078 C 80.492423 79.030248 80.532292 78.976533 80.560547 78.916016 C 80.588827 78.851946 80.603922 78.786385 80.607422 78.71875 C 80.611022 78.64756 80.600812 78.575099 80.576172 78.503906 C 80.551452 78.436276 80.514289 78.377963 80.464844 78.328125 C 80.418934 78.274735 80.364344 78.233557 80.300781 78.205078 C 80.240741 78.176578 80.176099 78.161743 80.105469 78.158203 C 80.038379 78.151103 79.971395 78.160677 79.904297 78.185547 C 79.893697 78.192647 79.881318 78.197622 79.867188 78.201172 C 79.856588 78.201172 79.844574 78.201552 79.833984 78.205078 C 79.894024 78.091168 79.94125 77.971899 79.976562 77.84375 C 80.015412 77.715602 80.010001 77.582533 79.957031 77.447266 C 79.886401 77.26216 79.752826 77.140936 79.558594 77.083984 C 79.466784 77.059084 79.372321 77.049204 79.273438 77.052734 C 79.178088 77.056334 79.073945 77.071139 78.960938 77.099609 C 78.798489 77.131649 78.624669 77.194562 78.4375 77.287109 C 78.271519 77.358299 78.100778 77.443299 77.927734 77.542969 C 77.758221 77.639079 77.594839 77.735574 77.439453 77.828125 C 77.387423 77.858485 77.342862 77.883349 77.292969 77.912109 C 77.301269 77.819099 77.296085 77.728239 77.265625 77.640625 C 77.226775 77.544515 77.171819 77.460212 77.097656 77.392578 C 77.027026 77.324948 76.941053 77.27848 76.845703 77.25 C 76.669127 77.21084 76.49028 77.235219 76.306641 77.324219 C 76.257201 77.349139 76.204941 77.378473 76.148438 77.414062 C 76.095467 77.449663 76.038555 77.490839 75.978516 77.537109 C 75.890226 77.608299 75.798477 77.690305 75.703125 77.779297 C 75.611315 77.864727 75.522257 77.949723 75.4375 78.035156 L 75.300781 78.173828 C 75.288351 78.185398 75.277545 78.192335 75.265625 78.203125 C 75.263125 78.203769 75.260212 78.204178 75.257812 78.205078 C 75.317853 78.091168 75.365079 77.971899 75.400391 77.84375 C 75.439241 77.715602 75.433829 77.582533 75.380859 77.447266 C 75.310229 77.26216 75.176655 77.140936 74.982422 77.083984 C 74.890612 77.059084 74.796148 77.049204 74.697266 77.052734 z M 50.916016 77.142578 L 50.914062 77.146484 C 50.855863 77.146484 50.79648 77.165697 50.738281 77.185547 C 50.62552 77.225257 50.528973 77.291416 50.445312 77.386719 C 50.441612 77.386719 50.437184 77.39629 50.433594 77.40625 C 50.429894 77.40625 50.425259 77.417784 50.417969 77.427734 L 50.341797 77.505859 C 50.309057 77.545569 50.272439 77.585064 50.232422 77.638672 C 50.192412 77.688312 50.146635 77.738461 50.095703 77.787109 C 50.092003 77.757329 50.085119 77.727056 50.074219 77.697266 C 50.066919 77.667486 50.055566 77.637366 50.041016 77.597656 L 50.048828 77.597656 C 49.979718 77.420948 49.837925 77.308474 49.626953 77.255859 C 49.423255 77.216149 49.226257 77.254145 49.037109 77.359375 C 49.004369 77.379235 48.96748 77.409509 48.923828 77.449219 C 48.880178 77.478999 48.829682 77.529481 48.771484 77.578125 C 48.720554 77.627765 48.665891 77.677789 48.611328 77.734375 C 48.560408 77.784015 48.509907 77.840923 48.458984 77.894531 L 48.349609 78.009766 C 48.309599 78.059406 48.266037 78.111512 48.21875 78.160156 L 48.115234 78.259766 C 48.049764 78.319326 47.997309 78.389363 47.960938 78.466797 C 47.920927 78.536287 47.902344 78.619703 47.902344 78.705078 C 47.902344 78.832149 47.945897 78.953234 48.033203 79.066406 C 48.051393 79.096186 48.078874 79.126624 48.115234 79.146484 C 48.151614 79.176264 48.186007 79.194994 48.21875 79.214844 C 48.20783 79.264484 48.203125 79.324273 48.203125 79.380859 C 48.203125 79.420569 48.205661 79.469099 48.212891 79.507812 C 48.220191 79.547522 48.238202 79.58801 48.263672 79.640625 C 48.303682 79.729975 48.363339 79.801763 48.443359 79.861328 C 48.523379 79.920888 48.612994 79.972203 48.714844 80 L 48.792969 80 L 48.90625 80 C 48.96809 80 49.034405 80.000329 49.103516 79.980469 C 49.172626 79.970569 49.23699 79.949547 49.298828 79.929688 C 49.367948 79.899907 49.441191 79.871731 49.517578 79.832031 C 49.593968 79.792321 49.674151 79.742098 49.757812 79.6875 L 49.751953 79.6875 C 49.802883 79.65772 49.848661 79.627446 49.888672 79.597656 C 49.928682 79.567876 49.97002 79.537757 50.013672 79.498047 C 50.053682 79.547687 50.101694 79.587279 50.15625 79.625 C 50.21445 79.65478 50.276323 79.685383 50.341797 79.695312 C 50.429097 79.725093 50.516218 79.734375 50.603516 79.734375 C 50.810852 79.734375 51.021718 79.675894 51.236328 79.548828 C 51.330898 79.489268 51.420245 79.432676 51.503906 79.369141 C 51.591206 79.309571 51.673613 79.24127 51.75 79.177734 L 51.775391 79.148438 C 51.924527 79.025338 52 78.875927 52 78.699219 C 52 78.639659 51.988351 78.56946 51.962891 78.501953 C 51.941061 78.432463 51.904715 78.374945 51.857422 78.318359 C 51.806492 78.258799 51.744624 78.215362 51.671875 78.183594 C 51.602755 78.153814 51.533686 78.13493 51.460938 78.125 L 51.466797 78.105469 L 51.498047 78.003906 C 51.501747 77.994006 51.504093 77.974774 51.507812 77.964844 C 51.515113 77.944994 51.523724 77.925946 51.527344 77.916016 C 51.534644 77.886236 51.539349 77.835278 51.542969 77.755859 C 51.550269 77.676439 51.527483 77.578017 51.476562 77.464844 C 51.432913 77.385424 51.375754 77.326117 51.306641 77.269531 C 51.241171 77.209971 51.169868 77.170217 51.089844 77.152344 C 51.031644 77.142444 50.974215 77.132618 50.916016 77.142578 z "
     style="font-style:normal;font-variant:normal;font-weight:bold;font-stretch:normal;font-size:8px;line-height:1.25;font-family:'Redacted Script';-inkscape-font-specification:'Redacted Script, Bold';font-variant-ligatures:normal;font-variant-caps:normal;font-variant-numeric:normal;font-feature-settings:normal;text-align:start;letter-spacing:0px;word-spacing:0px;writing-mode:lr-tb;text-anchor:start;fill:#555761;fill-opacity:1;stroke:none;stroke-width:0.99999994" />
</svg>
