<?xml version="1.0" encoding="UTF-8" standalone="no"?>
<!-- Created with Inkscape (http://www.inkscape.org/) -->

<svg
   xmlns:dc="http://purl.org/dc/elements/1.1/"
   xmlns:cc="http://creativecommons.org/ns#"
   xmlns:rdf="http://www.w3.org/1999/02/22-rdf-syntax-ns#"
   xmlns:svg="http://www.w3.org/2000/svg"
   xmlns="http://www.w3.org/2000/svg"
   xmlns:xlink="http://www.w3.org/1999/xlink"
   xmlns:sodipodi="http://sodipodi.sourceforge.net/DTD/sodipodi-0.dtd"
   xmlns:inkscape="http://www.inkscape.org/namespaces/inkscape"
   width="64px"
   height="64px"
   id="svg3821"
   version="1.1"
   inkscape:version="0.47 r22583"
   sodipodi:docname="postscript-viewer.svg">
  <defs
     id="defs3823">
    <linearGradient
       inkscape:collect="always"
       xlink:href="#linearGradient4246"
       id="linearGradient3762"
       gradientUnits="userSpaceOnUse"
       gradientTransform="translate(7.4545363,8.0039815)"
       x1="23.969797"
       y1="3.9810441"
       x2="23.969797"
       y2="44.024017" />
    <linearGradient
       id="linearGradient4246">
      <stop
         id="stop4248"
         style="stop-color:#ffffff;stop-opacity:1"
         offset="0" />
      <stop
         id="stop4250"
         style="stop-color:#dcdcdc;stop-opacity:1"
         offset="1" />
    </linearGradient>
    <radialGradient
       inkscape:collect="always"
       xlink:href="#linearGradient3242"
       id="radialGradient3067-8"
       gradientUnits="userSpaceOnUse"
       gradientTransform="matrix(0,3.2432598,-4.3410584,-1.3685269e-7,68.681088,-18.988922)"
       cx="7.4956832"
       cy="8.4497671"
       fx="7.4956832"
       fy="8.4497671"
       r="19.99999" />
    <linearGradient
       id="linearGradient3242">
      <stop
         id="stop3244"
         style="stop-color:#f89b7e;stop-opacity:1"
         offset="0" />
      <stop
         id="stop3246"
         style="stop-color:#e35d4f;stop-opacity:1"
         offset="0.26238" />
      <stop
         id="stop3248"
         style="stop-color:#c6262e;stop-opacity:1"
         offset="0.66093999" />
      <stop
         id="stop3250"
         style="stop-color:#690b2c;stop-opacity:1"
         offset="1" />
    </linearGradient>
    <linearGradient
       inkscape:collect="always"
       xlink:href="#linearGradient2490"
       id="linearGradient3069-2"
       gradientUnits="userSpaceOnUse"
       gradientTransform="matrix(1.4102564,0,0,1.4102564,-1.846152,-1.8461545)"
       x1="24"
       y1="44"
       x2="24"
       y2="3.8990016" />
    <linearGradient
       id="linearGradient2490">
      <stop
         id="stop2492"
         style="stop-color:#791235;stop-opacity:1"
         offset="0" />
      <stop
         id="stop2494"
         style="stop-color:#dd3b27;stop-opacity:1"
         offset="1" />
    </linearGradient>
    <radialGradient
       cx="4.9929786"
       cy="43.5"
       r="2.5"
       fx="4.9929786"
       fy="43.5"
       id="radialGradient2873-966-168"
       xlink:href="#linearGradient3688-166-749"
       gradientUnits="userSpaceOnUse"
       gradientTransform="matrix(2.003784,0,0,1.4,27.98813,-17.4)" />
    <linearGradient
       id="linearGradient3688-166-749">
      <stop
         id="stop2883"
         style="stop-color:#181818;stop-opacity:1"
         offset="0" />
      <stop
         id="stop2885"
         style="stop-color:#181818;stop-opacity:0"
         offset="1" />
    </linearGradient>
    <radialGradient
       cx="4.9929786"
       cy="43.5"
       r="2.5"
       fx="4.9929786"
       fy="43.5"
       id="radialGradient2875-742-326"
       xlink:href="#linearGradient3688-464-309"
       gradientUnits="userSpaceOnUse"
       gradientTransform="matrix(2.003784,0,0,1.4,-20.01187,-104.4)" />
    <linearGradient
       id="linearGradient3688-464-309">
      <stop
         id="stop2889"
         style="stop-color:#181818;stop-opacity:1"
         offset="0" />
      <stop
         id="stop2891"
         style="stop-color:#181818;stop-opacity:0"
         offset="1" />
    </linearGradient>
    <linearGradient
       x1="25.058096"
       y1="47.027729"
       x2="25.058096"
       y2="39.999443"
       id="linearGradient2877-634-617"
       xlink:href="#linearGradient3702-501-757"
       gradientUnits="userSpaceOnUse" />
    <linearGradient
       id="linearGradient3702-501-757">
      <stop
         id="stop2895"
         style="stop-color:#181818;stop-opacity:0"
         offset="0" />
      <stop
         id="stop2897"
         style="stop-color:#181818;stop-opacity:1"
         offset="0.5" />
      <stop
         id="stop2899"
         style="stop-color:#181818;stop-opacity:0"
         offset="1" />
    </linearGradient>
    <linearGradient
       id="linearGradient3924">
      <stop
         id="stop3926"
         style="stop-color:#ffffff;stop-opacity:1"
         offset="0" />
      <stop
         id="stop3928"
         style="stop-color:#ffffff;stop-opacity:0.23529412"
         offset="0.06316455" />
      <stop
         id="stop3930"
         style="stop-color:#ffffff;stop-opacity:0.15686275"
         offset="0.95056331" />
      <stop
         id="stop3932"
         style="stop-color:#ffffff;stop-opacity:0.39215687"
         offset="1" />
    </linearGradient>
    <linearGradient
       y2="43"
       x2="23.99999"
       y1="4.999989"
       x1="23.99999"
       gradientTransform="matrix(1.4324324,0,0,1.4362832,-2.3783747,-2.4707827)"
       gradientUnits="userSpaceOnUse"
       id="linearGradient3107"
       xlink:href="#linearGradient3924"
       inkscape:collect="always" />
  </defs>
  <sodipodi:namedview
     id="base"
     pagecolor="#ffffff"
     bordercolor="#666666"
     borderopacity="1.0"
     inkscape:pageopacity="0.0"
     inkscape:pageshadow="2"
     inkscape:zoom="5.5"
     inkscape:cx="32"
     inkscape:cy="32"
     inkscape:current-layer="layer1"
     showgrid="true"
     inkscape:document-units="px"
     inkscape:grid-bbox="true"
     inkscape:window-width="1280"
     inkscape:window-height="753"
     inkscape:window-x="0"
     inkscape:window-y="24"
     inkscape:window-maximized="1" />
  <metadata
     id="metadata3826">
    <rdf:RDF>
      <cc:Work
         rdf:about="">
        <dc:format>image/svg+xml</dc:format>
        <dc:type
           rdf:resource="http://purl.org/dc/dcmitype/StillImage" />
        <dc:title />
      </cc:Work>
    </rdf:RDF>
  </metadata>
  <g
     id="layer1"
     inkscape:label="Layer 1"
     inkscape:groupmode="layer">
    <g
       style="display:inline"
       id="g2036"
       transform="matrix(1.5000021,0,0,0.5555561,-4.0000114,35.888881)">
      <g
         style="opacity:0.4"
         id="g3712"
         transform="matrix(1.052632,0,0,1.285713,-1.263158,-13.42854)">
        <rect
           style="fill:url(#radialGradient2873-966-168);fill-opacity:1;stroke:none"
           id="rect2801"
           y="40"
           x="38"
           height="7"
           width="5" />
        <rect
           style="fill:url(#radialGradient2875-742-326);fill-opacity:1;stroke:none"
           id="rect3696"
           transform="scale(-1,-1)"
           y="-47"
           x="-10"
           height="7"
           width="5" />
        <rect
           style="fill:url(#linearGradient2877-634-617);fill-opacity:1;stroke:none"
           id="rect3700"
           y="40"
           x="10"
           height="7.0000005"
           width="28" />
      </g>
    </g>
    <rect
       style="color:#000000;fill:url(#radialGradient3067-8);fill-opacity:1;fill-rule:nonzero;stroke:url(#linearGradient3069-2);stroke-width:1;stroke-linecap:round;stroke-linejoin:round;stroke-miterlimit:4;stroke-opacity:1;stroke-dasharray:none;stroke-dashoffset:0;marker:none;visibility:visible;display:inline;overflow:visible;enable-background:accumulate"
       id="rect5505"
       y="4.5"
       x="4.5"
       ry="3"
       rx="3"
       height="55"
       width="55" />
    <g
       id="g3754"
       transform="matrix(1.4210526,0,0,1.4188955,-12.69855,-13.451289)">
      <path
         id="path6711-0-7-1"
         d="m 35.267036,16.061751 c -12.95224,11.13062 -20.35138,12.701754 -22.8125,12.875 l 0,4 c 1.85765,-0.259772 6.52708,-1.161793 11.5,-4.28125 6.37665,-4 14,-11.59375 14,-11.59375 -1.97567,3.881288 -2.61882,16.792518 -2.71875,34 l 13.21875,0 c 0.505286,0 0.961168,-0.193098 1.3125,-0.5 -2.080549,-4.989636 -3.530618,-11.550928 -4.625,-17.5 -1.037505,-7.88504 0.494501,-14.778864 1.0625,-17 l -10.9375,0 z m -22.8125,19.40625 0,4.40625 c 4.66001,0 11.50191,4.8721 15.84375,11.1875 l 3.75,0 c -4.2885,-6.889092 -16.03624,-15.59375 -19.59375,-15.59375 z"
         style="opacity:0.05;fill:#000000;fill-opacity:1;fill-rule:evenodd;stroke:none" />
      <path
         id="path6711-0-7"
         d="m 35.267036,15.061751 c -12.95224,11.13062 -20.35138,12.701754 -22.8125,12.875 l 0,4 c 1.85765,-0.259772 6.52708,-1.161793 11.5,-4.28125 6.37665,-4 14,-11.59375 14,-11.59375 -2.01403,3.956646 -2.63846,17.288131 -2.71875,35 l 13.21875,0 c 0.660024,0 1.229911,-0.322346 1.59375,-0.8125 -2.242627,-5.060964 -3.760844,-11.96106 -4.90625,-18.1875 -1.037505,-7.88504 0.494501,-14.778864 1.0625,-17 l -10.9375,0 z m -22.8125,19.40625 0,4.40625 c 4.90519,0 12.2189,5.387795 16.5,12.1875 l 3.65625,0 c -3.68111,-7.013164 -16.42208,-16.59375 -20.15625,-16.59375 z"
         style="opacity:0.1;fill:#000000;fill-opacity:1;fill-rule:evenodd;stroke:none" />
      <path
         id="path6711-0"
         d="m 35.267036,14.061751 c -12.95224,11.13062 -20.35138,12.701754 -22.8125,12.875 l 0,4 c 1.85765,-0.259772 6.52708,-1.161793 11.5,-4.28125 6.37665,-4 14,-11.59375 14,-11.59375 -2.0524,4.032026 -2.68957,17.780741 -2.75,36 l 13.25,0 c 0.831,0 1.540937,-0.500438 1.84375,-1.21875 -2.389184,-5.102615 -3.966585,-12.314215 -5.15625,-18.78125 -1.037505,-7.88504 0.494501,-14.778864 1.0625,-17 l -10.9375,0 z m -22.8125,19.40625 0,4.40625 c 5.14365,0 12.92677,5.922035 17.09375,13.1875 l 3.5625,0 c -2.89852,-7.059472 -16.74284,-17.59375 -20.65625,-17.59375 z"
         style="opacity:0.25;fill:#000000;fill-opacity:1;fill-rule:evenodd;stroke:none" />
      <path
         d="m 35.267036,13.003981 c -12.95224,11.13062 -20.35138,12.701754 -22.8125,12.875 l 0,4 c 1.85765,-0.259772 6.52708,-1.161793 11.5,-4.28125 6.37665,-4 14,-11.593751 14,-11.593751 -2.09076,4.107385 -2.6996,18.270841 -2.74,37.000001 l 13.365,0 c 1.046411,0 1.875,-0.828589 1.875,-1.875 -2.4777,-5.117916 -4.096898,-12.516972 -5.3125,-19.125 -1.037505,-7.88504 0.494501,-14.778864 1.0625,-17 l -10.9375,0 z m -22.8125,19.393636 0,4.430228 c 5.37717,0 13.64373,6.462294 17.64273,14.176136 l 3.35898,0 C 31.577216,43.991345 16.556886,32.397617 12.454536,32.397617 z"
         id="path6711"
         style="fill:url(#linearGradient3762);fill-opacity:1;fill-rule:evenodd;stroke:none" />
      <path
         id="path6713"
         d="m 46.798286,13.061751 c -5.090908,3.106168 -21.75925,12.573524 -34.34375,11.375 l 0,8.5625 c 0,0 27.983052,4.183698 38,-4.09375 l 0,-13.84375 c 0,-1.108 -0.892,-2 -2,-2 l -1.65625,0 z"
         style="opacity:0.1;fill:#000000;fill-opacity:1;fill-rule:evenodd;stroke:none" />
      <path
         id="path6715"
         d="m 50.454536,32.499251 c -5.036041,5.02345 -10.211886,11.690934 -13.65625,18.5625 l 4.03125,0 c 2.788056,-4.717144 6.422797,-9.898253 9.625,-13.09375 l 0,-5.46875 z"
         style="opacity:0.1;fill:#000000;fill-opacity:1;fill-rule:evenodd;stroke:none" />
    </g>
    <rect
       style="opacity:0.5;fill:none;stroke:url(#linearGradient3107);stroke-width:1;stroke-linecap:round;stroke-linejoin:round;stroke-miterlimit:4;stroke-opacity:1;stroke-dasharray:none;stroke-dashoffset:0"
       id="rect6741"
       y="5.428761"
       x="5.5"
       ry="2"
       rx="2"
       height="53.142479"
       width="53" />
  </g>
</svg>
