<svg xmlns="http://www.w3.org/2000/svg" xmlns:xlink="http://www.w3.org/1999/xlink" viewBox="0 0 128 128"><defs><linearGradient x1="30.271" y1="10.029" x2="30.271" y2="55.053" id="b" xlink:href="#a" gradientUnits="userSpaceOnUse" gradientTransform="matrix(2.0808 0 0 2.341 131.764 -72.734)"/><linearGradient id="a"><stop offset="0" stop-color="#55c1ec"/><stop offset="1" stop-color="#3689e6"/></linearGradient></defs><g color="#000"><path d="M83.51 63.093a62.948 38.904 0 1 1-125.897 0 62.948 38.904 0 1 1 125.896 0z" transform="matrix(1.0167 0 0 1.64508 43.096 -39.793)" fill="url(#b)" overflow="visible"/><path d="M64 27c-14.88 0-27 11.63-27 26s12.12 26 27 26 27-11.63 27-26-12.12-26-27-26zm-9.53 54.188c-12.098 0-22.578 7.136-27.845 17.562a1 1 0 0 0 .188 1.125C36.115 109.798 49.328 116 64 116c14.672 0 27.884-6.202 37.188-16.125a1 1 0 0 0 .187-1.125C96.108 88.324 85.628 81.187 73.53 81.187H54.47z" opacity=".07" overflow="visible"/><path d="M64 28c-14.36 0-26 11.193-26 25s11.64 25 26 25 26-11.193 26-25-11.64-25-26-25zm-9.53 54.188c-11.706 0-21.83 6.885-26.94 17C36.655 108.918 49.61 115 64 115s27.346-6.082 36.47-15.813c-5.11-10.114-15.234-17-26.94-17H54.47z" opacity=".15" overflow="visible"/><path d="M64 27c-14.36 0-26 11.193-26 25s11.64 25 26 25 26-11.193 26-25-11.64-25-26-25zm-9.53 54.188c-11.706 0-21.83 6.885-26.94 17C36.655 107.918 49.61 114 64 114s27.346-6.082 36.47-15.813c-5.11-10.114-15.234-17-26.94-17H54.47z" fill="#fff" overflow="visible"/></g></svg>