<?xml version="1.0" encoding="UTF-8" standalone="no"?>
<!-- Created with Inkscape (http://www.inkscape.org/) -->

<svg
   xmlns:dc="http://purl.org/dc/elements/1.1/"
   xmlns:cc="http://creativecommons.org/ns#"
   xmlns:rdf="http://www.w3.org/1999/02/22-rdf-syntax-ns#"
   xmlns:svg="http://www.w3.org/2000/svg"
   xmlns="http://www.w3.org/2000/svg"
   xmlns:xlink="http://www.w3.org/1999/xlink"
   xmlns:inkscape="http://www.inkscape.org/namespaces/inkscape"
   version="1.0"
   width="48"
   height="48"
   id="svg3572">
  <metadata
     id="metadata84">
    <rdf:RDF>
      <cc:Work
         rdf:about="">
        <dc:format>image/svg+xml</dc:format>
        <dc:type
           rdf:resource="http://purl.org/dc/dcmitype/StillImage" />
      </cc:Work>
    </rdf:RDF>
  </metadata>
  <defs
     id="defs3574">
    <linearGradient
       id="linearGradient3707-319-631">
      <stop
         id="stop4637"
         style="stop-color:#254b6d;stop-opacity:1"
         offset="0" />
      <stop
         id="stop4639"
         style="stop-color:#415b73;stop-opacity:1"
         offset="0.5" />
      <stop
         id="stop4641"
         style="stop-color:#6195b5;stop-opacity:1"
         offset="1" />
    </linearGradient>
    <linearGradient
       x1="20"
       y1="43"
       x2="30.463955"
       y2="3.9470947"
       id="linearGradient3380"
       xlink:href="#linearGradient3707-319-631"
       gradientUnits="userSpaceOnUse"
       gradientTransform="matrix(0.8252592,-0.2211275,0.2211225,0.8252403,-0.8489652,7.4136333)" />
    <linearGradient
       id="linearGradient2867-449-88-871-390-598-476-591-434-148">
      <stop
         id="stop4627"
         style="stop-color:#51cfee;stop-opacity:1"
         offset="0" />
      <stop
         id="stop4629"
         style="stop-color:#49a3d2;stop-opacity:1"
         offset="0.26238" />
      <stop
         id="stop4631"
         style="stop-color:#3470b4;stop-opacity:1"
         offset="0.704952" />
      <stop
         id="stop4633"
         style="stop-color:#273567;stop-opacity:1"
         offset="1" />
    </linearGradient>
    <radialGradient
       cx="61.240059"
       cy="-8.7256308"
       r="9.7552834"
       fx="61.240059"
       fy="-8.7256308"
       id="radialGradient3378"
       xlink:href="#linearGradient2867-449-88-871-390-598-476-591-434-148"
       gradientUnits="userSpaceOnUse"
       gradientTransform="matrix(-3.418926e-8,3.089053,-3.102456,1.422282e-8,-5.731082,-179.48809)" />
    <linearGradient
       id="linearGradient3536">
      <stop
         id="stop3538"
         style="stop-color:#cee14b;stop-opacity:1"
         offset="0" />
      <stop
         id="stop3540"
         style="stop-color:#679823;stop-opacity:1"
         offset="1" />
    </linearGradient>
    <radialGradient
       cx="21.996496"
       cy="12.490084"
       r="15.679975"
       fx="21.996496"
       fy="12.490084"
       id="radialGradient3534"
       xlink:href="#linearGradient3536"
       gradientUnits="userSpaceOnUse"
       gradientTransform="matrix(0,1.6515029,-1.1215224,0,36.004406,-23.905844)" />
    <linearGradient
       id="linearGradient4873">
      <stop
         id="stop4875"
         style="stop-color:#ffffff;stop-opacity:1"
         offset="0" />
      <stop
         id="stop4877"
         style="stop-color:#ffffff;stop-opacity:0"
         offset="1" />
    </linearGradient>
    <linearGradient
       x1="65.053574"
       y1="-12.109919"
       x2="61.667141"
       y2="0.52871126"
       id="linearGradient3374"
       xlink:href="#linearGradient4873"
       gradientUnits="userSpaceOnUse"
       gradientTransform="matrix(1.767173,-0.4735125,0.4735018,1.7671329,-83.752151,57.152636)" />
    <linearGradient
       id="linearGradient8838">
      <stop
         id="stop8840"
         style="stop-color:#000000;stop-opacity:1"
         offset="0" />
      <stop
         id="stop8842"
         style="stop-color:#000000;stop-opacity:0"
         offset="1" />
    </linearGradient>
    <radialGradient
       cx="62.625"
       cy="4.625"
       r="10.625"
       fx="62.625"
       fy="4.625"
       id="radialGradient2531"
       xlink:href="#linearGradient8838"
       gradientUnits="userSpaceOnUse"
       gradientTransform="matrix(2.1647059,0,0,0.4705876,-111.56471,40.82353)" />
    <linearGradient
       id="linearGradient3203">
      <stop
         id="stop3205"
         style="stop-color:#777976;stop-opacity:1"
         offset="0" />
      <stop
         id="stop3207"
         style="stop-color:#565755;stop-opacity:1"
         offset="1" />
    </linearGradient>
    <radialGradient
       cx="30.268881"
       cy="29.685795"
       r="3.5"
       fx="30.268881"
       fy="29.685795"
       id="radialGradient3550"
       xlink:href="#linearGradient3203"
       gradientUnits="userSpaceOnUse"
       gradientTransform="matrix(-3.7087924,2.2466464e-6,-7.4355236e-7,-1.3276267,136.26102,81.764895)" />
    <linearGradient
       id="linearGradient3494">
      <stop
         id="stop3496"
         style="stop-color:#ffffff;stop-opacity:1"
         offset="0" />
      <stop
         id="stop3498"
         style="stop-color:#ffffff;stop-opacity:0"
         offset="1" />
    </linearGradient>
    <linearGradient
       x1="24.676094"
       y1="46.00465"
       x2="24.676094"
       y2="39.962029"
       id="linearGradient3570"
       xlink:href="#linearGradient3494"
       gradientUnits="userSpaceOnUse" />
    <linearGradient
       id="linearGradient3343">
      <stop
         id="stop3345"
         style="stop-color:#ffffff;stop-opacity:1"
         offset="0" />
      <stop
         id="stop3347"
         style="stop-color:#ffffff;stop-opacity:0"
         offset="1" />
    </linearGradient>
    <radialGradient
       cx="21.935795"
       cy="26.446878"
       r="20.38254"
       fx="21.935795"
       fy="26.446878"
       id="radialGradient3351"
       xlink:href="#linearGradient3343"
       gradientUnits="userSpaceOnUse"
       gradientTransform="matrix(1.0723287,0.00344486,-0.0129991,1.4239908,-1.2428038,-12.474278)" />
    <linearGradient
       x1="4.6589103"
       y1="4.6900573"
       x2="21.390003"
       y2="53.7505"
       id="linearGradient2515"
       xlink:href="#linearGradient3832"
       gradientUnits="userSpaceOnUse"
       gradientTransform="matrix(0.9493458,0,0,0.9161976,3.7753876,-0.7634835)" />
    <linearGradient
       id="linearGradient3785">
      <stop
         id="stop3787"
         style="stop-color:#dddddd;stop-opacity:1"
         offset="0" />
      <stop
         id="stop3789"
         style="stop-color:#b1b1b1;stop-opacity:1"
         offset="1" />
    </linearGradient>
    <linearGradient
       x1="7.6421294"
       y1="5.4139762"
       x2="30.120697"
       y2="50.013474"
       id="linearGradient2513"
       xlink:href="#linearGradient3785"
       gradientUnits="userSpaceOnUse"
       gradientTransform="matrix(0.9493458,0,0,0.9161976,3.7753876,-0.7634835)" />
    <linearGradient
       x1="1.3952062"
       y1="0.45261979"
       x2="1.6148272"
       y2="7.2530656"
       id="linearGradient2505"
       xlink:href="#linearGradient3832"
       gradientUnits="userSpaceOnUse"
       gradientTransform="matrix(0.948234,0,0,0.9365589,16.491284,3.7998582)" />
    <linearGradient
       x1="1.3952062"
       y1="0.45261979"
       x2="1.6148272"
       y2="7.2530656"
       id="linearGradient2503"
       xlink:href="#linearGradient6954"
       gradientUnits="userSpaceOnUse"
       gradientTransform="matrix(0.948234,0,0,0.9365589,16.491284,3.7998582)" />
    <radialGradient
       cx="21.935795"
       cy="26.446878"
       r="20.38254"
       fx="21.935795"
       fy="26.446878"
       id="radialGradient3371"
       xlink:href="#linearGradient2467"
       gradientUnits="userSpaceOnUse"
       gradientTransform="matrix(1.0723287,0.00344486,-0.0129991,1.4239908,-1.2428038,-12.474278)" />
    <radialGradient
       cx="21.935795"
       cy="26.446878"
       r="20.38254"
       fx="21.935795"
       fy="26.446878"
       id="radialGradient3369"
       xlink:href="#linearGradient2467"
       gradientUnits="userSpaceOnUse"
       gradientTransform="matrix(1.0723287,0.00344486,-0.0129991,1.4239908,-1.2428038,-12.474278)" />
    <radialGradient
       cx="21.935795"
       cy="26.446878"
       r="20.38254"
       fx="21.935795"
       fy="26.446878"
       id="radialGradient3367"
       xlink:href="#linearGradient2467"
       gradientUnits="userSpaceOnUse"
       gradientTransform="matrix(1.0723287,0.00344486,-0.0129991,1.4239908,-1.2428038,-12.474278)" />
    <radialGradient
       cx="21.935795"
       cy="26.446878"
       r="20.38254"
       fx="21.935795"
       fy="26.446878"
       id="radialGradient3365"
       xlink:href="#linearGradient2467"
       gradientUnits="userSpaceOnUse"
       gradientTransform="matrix(1.0723287,0.00344486,-0.0129991,1.4239908,-1.2428038,-12.474278)" />
    <linearGradient
       id="linearGradient2467">
      <stop
         id="stop2469"
         style="stop-color:#000000;stop-opacity:1"
         offset="0" />
      <stop
         id="stop2471"
         style="stop-color:#000000;stop-opacity:0"
         offset="1" />
    </linearGradient>
    <radialGradient
       cx="21.935795"
       cy="26.446878"
       r="20.38254"
       fx="21.935795"
       fy="26.446878"
       id="radialGradient3363"
       xlink:href="#linearGradient2467"
       gradientUnits="userSpaceOnUse"
       gradientTransform="matrix(1.0723287,0.00344486,-0.0129991,1.4239908,-1.2428038,-12.474278)" />
    <linearGradient
       id="linearGradient3832">
      <stop
         id="stop3834"
         style="stop-color:#8f8f8f;stop-opacity:1"
         offset="0" />
      <stop
         id="stop3836"
         style="stop-color:#828282;stop-opacity:1"
         offset="1" />
    </linearGradient>
    <linearGradient
       x1="1.3952062"
       y1="0.45261979"
       x2="1.6148272"
       y2="7.2530656"
       id="linearGradient3546"
       xlink:href="#linearGradient3832"
       gradientUnits="userSpaceOnUse"
       gradientTransform="matrix(0.948234,0,0,0.9365589,16.783643,43.090592)" />
    <linearGradient
       id="linearGradient6954">
      <stop
         id="stop6960"
         style="stop-color:#f5f5f5;stop-opacity:1"
         offset="0" />
      <stop
         id="stop6962"
         style="stop-color:#d2d2d2;stop-opacity:1"
         offset="1" />
    </linearGradient>
    <linearGradient
       x1="1.3952062"
       y1="0.45261979"
       x2="1.6148272"
       y2="7.2530656"
       id="linearGradient3544"
       xlink:href="#linearGradient6954"
       gradientUnits="userSpaceOnUse"
       gradientTransform="matrix(0.948234,0,0,0.9365589,16.783643,43.090592)" />
  </defs>
  <g
     id="layer1">
    <path
       d="M 40.924926,17.095349 C 43.355014,26.164564 37.97265,35.486726 28.904474,37.916536 19.835468,40.346568 10.513515,34.964328 8.0834487,25.895195 5.6534717,16.826396 11.035622,7.5050922 20.104628,5.0750597 29.172804,2.6452496 38.494949,8.02655 40.924926,17.095349 l 0,0 z"
       inkscape:connector-curvature="0"
       id="path2496"
       style="fill:url(#radialGradient3378);fill-opacity:1;fill-rule:nonzero;stroke:url(#linearGradient3380);stroke-width:0.99999994;stroke-miterlimit:4;stroke-dasharray:none" />
    <path
       d="M 20.609597,5.5044729 18.709733,6.254043 16.711577,7.4207681 c 0.166396,-0.1136048 0.333611,-0.2337493 0.507386,-0.3463939 l -0.372249,-0.3812616 -0.802417,0.3653212 -0.314777,0.5052247 -0.621452,0.2567052 -0.512837,0.4380439 -0.242419,0.2152701 -0.05394,0.1347049 -0.397449,0.1966841 -0.1092,0.6004545 -0.516376,-0.583146 -0.03684,0.3104994 0.258927,0.74232 -0.411745,0.5913324 -0.09004,0.89595 0.643996,-0.172558 0.109199,-0.600454 0.03139,-0.218851 c 0.229411,-0.276468 0.437987,-0.571794 0.674649,-0.8421559 l 0.732123,0.044332 c 0.517305,0.1805391 1.038949,0.3649606 1.556495,0.5449504 L 17.230161,9.3561535 16.419492,9.2426802 15.903118,8.6595321 14.633546,8.8493987 14.567966,8.7166569 15.130024,8.686305 15.355352,8.2952373 15.989769,7.9749317 c 0.138267,-0.1200911 0.279748,-0.2178116 0.423386,-0.3238864 l -0.314778,0.5052237 1.790073,0.6326788 0.165346,0.6170797 -0.430164,0.7465825 1.204874,1.360679 0.449324,-0.45109 0.393914,-1.2178755 c 0.866372,-0.5457629 1.62663,-1.1144124 2.409906,-1.7580599 l 0.04922,0.4076933 0.530667,0.1884992 0.641197,-0.7430031 -0.51225,-0.3437489 -0.449323,0.4510878 -0.18303,-0.011082 c 0.03385,-0.028003 0.06302,-0.057769 0.09697,-0.086107 l 0.24287,-2.229607 -1.888368,-0.2155234 z m -6.860258,5.0849941 0.764248,0.276225 0.531998,-0.142549 -0.142799,-0.532932 -0.719154,-0.107931 -0.434293,0.507187 0,0 z m 14.770209,-4.3484832 -1.072836,0.5880932 -0.600226,0.6719002 0.112736,0.4207351 -0.952586,1.0368792 0.517113,1.0338952 0.544228,-0.6568967 0.547764,0.3642984 0.551156,0.152948 0.09004,-0.8959523 -0.295766,-0.431818 0.07781,-0.3816065 0.506652,-0.7971377 0.307998,-0.082528 -0.127621,0.7557056 0.165346,0.6170778 c 0.25674,-0.1497415 0.52843,-0.2540669 0.802417,-0.3653219 l -0.633681,0.7710536 0.03418,0.3515929 -0.693069,0.9974079 -0.984123,0.02319 -0.142799,-0.532933 -0.344839,0.393029 0.323767,0.424318 -0.671997,0.180061 -0.198651,0.714611 -0.312716,0.624924 -0.7669,0.385868 0.603764,0.349291 0.239767,0.446824 -0.587997,0.157553 -0.671258,0.630807 0.330691,1.234156 0.363996,-0.09753 0.433703,0.274609 0.658291,-0.567208 0.07708,-0.832349 0.469807,-0.486639 0.03684,-0.310502 0.835869,-0.464473 0.654312,0.425937 0.607155,0.137941 -0.142652,0.699608 0.438419,-0.267789 0.08665,-0.684602 -0.803889,-0.536171 0.251999,-0.06752 0.751277,0.339829 0.292379,0.643168 0.697342,0.474531 -0.100504,-0.935083 0.242419,-0.215272 c 0.381093,0.230086 0.717587,0.546181 1.062078,0.827746 l 0.93903,-0.191482 0.622184,0.194042 -0.154293,0.432161 -0.40423,0.619381 -0.783999,0.210072 -1.126181,-0.059 -0.516963,0.198652 -0.271747,0.553821 -1.420624,-0.821861 -0.84412,-0.01432 -1.110413,0.447849 -0.932837,0.55058 c -0.40004,0.807118 -0.811849,1.625098 -1.174376,2.449142 l -0.223116,1.743302 0.398188,0.254063 -0.342041,0.963473 0.999299,1.265445 c 0.668213,0.443506 1.338387,0.882284 2.005965,1.326401 l 0.583133,-0.847695 0.413219,0.31016 0.669199,-0.750506 0.362671,0.233516 0.811995,-0.217574 0.618795,0.405389 -0.02446,1.028693 0.732858,0.495078 0.272628,1.129464 0.637953,0.700885 -0.120105,0.783754 c 0.104732,0.510971 0.20755,0.998598 0.342331,1.501606 0.429635,0.615256 0.859461,1.22867 1.276642,1.852516 l 0.461112,1.048897 0.150315,0.560982 0.447996,-0.12004 0.531261,-0.593295 0.783996,-0.210071 0.822756,-1.633412 -0.260253,-0.411273 0.596104,-0.911298 -0.760859,-0.487574 0.549681,-0.748544 0.559262,-0.600799 0.217808,-0.419115 -0.398921,-0.704807 C 37.896485,24.660309 37.727122,24.028231 37.556257,23.39056 l 0.216335,-1.320608 0.476587,-0.909335 0.24699,-1.990208 -0.127767,-0.476835 c -0.350025,0.142789 -0.686221,0.277051 -1.03393,0.397296 l 0.532586,-0.924344 0.827617,-0.943268 0.36665,-0.759629 -0.180376,-0.673174 c -0.181742,-0.19562 -0.369326,-0.408294 -0.551894,-0.603693 l -0.325682,0.688524 -0.476733,-0.323203 -0.644735,-0.278187 -0.232987,-0.86952 0.80389,0.536169 0.677451,-0.27171 c 0.392737,0.202569 0.764388,0.37668 1.128979,0.629441 l 0.312723,-0.624942 C 39.426318,14.129785 38.096199,11.610196 36.16689,9.6933941 34.237783,7.7773398 31.361974,6.3211195 31.361976,6.321119 l -0.08533,0.3535545 -0.435617,0.8382332 -1.001954,-0.6033511 0.783998,-0.2100714 0.258777,-0.4902203 -1.53115,0.1096407 -0.831154,-0.077921 z m -16.730199,4.8736602 -0.08459,0.8043 c 0,0 -0.468484,0.212425 -0.585932,0.277253 -1.2090812,1.913363 -3.5866721,5.997895 -2.7214461,12.243294 0.067401,0.132117 0.7875305,0.81112 0.7875305,0.81112 l 1.4274016,0.399164 1.322182,0.0065 0.70486,0.502582 0.977341,0.399506 0.453449,-0.21169 0.381093,0.07826 0.03006,0.112195 -0.109789,1.382248 -0.221198,0.630468 0.179639,0.222429 -0.0094,1.084792 1.547063,1.629743 1.312014,0.640522 0.656373,0.545633 0.319784,1.417461 0.546438,0.695342 0.06985,1.604681 c 0,0 -0.04817,-4.38e-4 0.03758,0.140246 0.08617,0.140652 2.188012,0.678978 2.281099,0.561234 0.09226,-0.119254 0.178906,-0.228317 0.178906,-0.228317 l -0.202187,-0.306579 0.355744,-0.576327 0.04023,-0.521849 0.688354,-0.455011 0.197179,-1.616102 -0.273219,-0.347673 0.22665,-0.722116 0.843387,-0.436423 0.162401,-1.185904 -0.465241,-1.288297 0.436946,-1.169279 -0.158566,-1.039776 c -1.08827,-0.219764 -2.161914,-0.457503 -3.2468,-0.693294 l -0.724018,-0.798075 -0.920605,0.03623 -0.814204,-1.134665 -1.110415,0.447848 -1.203403,-0.459183 -0.815976,1.210714 0.03758,0.140248 c -0.343379,-0.0068 -0.724544,0.08084 -1.055144,-0.01791 l -0.404376,-0.613156 -0.195408,-0.729275 -0.705449,0.279211 c -0.06589,-0.48023 -0.114331,-0.974712 -0.17979,-1.45497 l -0.419998,0.112538 -0.277197,0.645471 -0.339389,0.301378 -0.678185,-0.179034 -0.2514083,-0.714271 -0.098442,-0.815384 0.6876185,-0.905757 0.699995,-0.187563 0.03478,-0.430199 0.920605,-0.03624 0.861952,0.640864 -0.248755,-1.376365 0.871975,-1.225718 0.128947,-1.086751 0.749807,-0.561665 0.26762,-0.79322 1.011384,-0.481439 0.321557,-0.927922 c -0.52657,0.141094 -1.069421,0.28655 -1.595991,0.427645 l 0.880227,-0.746927 0.699996,-0.187563 0.813323,-0.54862 0.400986,0.824506 0.226651,-0.722116 -0.530672,-0.188498 0.0143,-0.394647 -0.454188,-0.239057 -0.422061,-0.0072 -7.34e-4,-0.450745 -0.46583,-0.506502 -0.624838,0.468053 -0.0308,-0.562941 -0.939764,-0.259261 -0.343364,1.29452 0.161222,0.377681 -0.568838,0.453048 -0.15901,0.974557 -0.413955,-0.760907 -1.212247,-0.156185 -0.361343,-0.564561 1.25852,-1.239106 0.478648,-0.789637 -0.139404,-0.744282 -0.416608,-0.09881 -0.49103,0.07145 -9e-6,1e-6 z m 12.372687,-1.872231 0.120251,0.4487827 0.327157,0.2129683 0.180377,0.673178 0.100503,0.935082 0.690418,-0.335312 0.389198,-0.675478 -0.596249,-0.321245 C 25.108994,9.8099755 24.853059,9.4805576 24.554035,9.1373773 L 24.162036,9.242413 z m -0.375495,1.062624 -0.410416,0.260287 0.329954,0.783412 0.505323,-0.466096 -0.424861,-0.577603 0,0 z m 10.180589,5.178661 0.882437,0.605311 1.277969,1.521469 0.654311,0.425935 -0.09417,0.656554 0.590796,0.412892 c -0.201936,0.06872 -0.39717,0.136488 -0.608481,0.193108 -0.600387,-0.705197 -1.122545,-1.438701 -1.641377,-2.205728 l -0.654312,-0.425935 -0.550564,-0.934742 0.143388,-0.248861 -1e-6,-3e-6 z"
       inkscape:connector-curvature="0"
       id="path2498"
       style="fill:url(#radialGradient3534);fill-opacity:1;fill-rule:nonzero;stroke:none" />
    <path
       d="M 39.959009,17.354202 C 42.246152,25.889935 37.180396,34.663733 28.645642,36.950613 20.110107,39.237703 11.336505,34.172063 9.0493836,25.63641 6.7623468,17.101071 11.8279,8.3280779 20.363434,6.0409886 28.898188,3.7541084 37.671972,8.8188634 39.959009,17.354202 l 0,0 z"
       inkscape:connector-curvature="0"
       id="path2500"
       style="opacity:0.4;fill:none;stroke:url(#linearGradient3374);stroke-width:0.99999994;stroke-miterlimit:4;stroke-opacity:1;stroke-dasharray:none" />
    <path
       d="m 47,43 c 0,2.761424 -10.297451,5 -23,5 -12.702549,0 -23,-2.238576 -23,-5 0,-2.761424 10.297451,-5 23,-5 12.702549,0 23,2.238576 23,5 z"
       inkscape:connector-curvature="0"
       id="path8836"
       style="opacity:0.4;fill:url(#radialGradient2531);fill-opacity:1;fill-rule:evenodd;stroke:none;stroke-width:0.99999988;marker:none;visibility:visible;display:inline;overflow:visible" />
    <path
       d="m 36.500001,43.498188 c 0,1.570796 -7.72242,2.948936 -12.5,2.999999 C 18.288021,46.559237 11.5,45.068984 11.5,43.498188 c 0,-1.570796 9.496423,-3.040079 12.500001,-2.999999 3.471799,0.04781 12.5,1.429203 12.5,2.999999 z"
       inkscape:connector-curvature="0"
       id="path3773"
       style="fill:url(#radialGradient3550);fill-opacity:1;stroke:#606060;stroke-width:1;stroke-linecap:round;stroke-linejoin:round;stroke-miterlimit:10;stroke-opacity:1;stroke-dasharray:none;stroke-dashoffset:0" />
    <path
       d="m 35.500001,42.99958 c 0,1.308427 -7.104626,2.456377 -11.5,2.498911 -5.255021,0.05085 -11.5,-1.190484 -11.5,-2.498911 0,-1.308427 8.736709,-2.532296 11.5,-2.498911 3.194056,0.03982 11.5,1.190484 11.5,2.498911 z"
       inkscape:connector-curvature="0"
       id="path3560"
       style="opacity:0.4;fill:none;stroke:url(#linearGradient3570);stroke-width:1.00000012;stroke-linecap:round;stroke-linejoin:round;stroke-miterlimit:10;stroke-opacity:1;stroke-dasharray:none;stroke-dashoffset:0" />
    <g
       transform="matrix(0.8186028,-0.2221948,0.2195137,0.8286012,-0.1493636,6.5375767)"
       id="g3682"
       style="opacity:0.4;stroke:url(#radialGradient3351);stroke-width:1.17276728;stroke-miterlimit:4;stroke-dasharray:none">
      <path
         d="m 43.399068,19.60859 0,0 c 0,5.225064 -8.821191,9.460848 -19.700983,9.460848 -10.880788,0 -19.701479,-4.235832 -19.701479,-9.460848"
         inkscape:connector-curvature="0"
         id="path3670"
         style="opacity:0.6;fill:none;stroke:url(#radialGradient3351);stroke-width:1.17276728;stroke-miterlimit:4;stroke-opacity:1;stroke-dasharray:none" />
      <path
         d="m 43.588916,26.900618 0,0 c 0,5.225065 -8.821191,9.460847 -19.700983,9.460847 -10.880788,0 -19.7014794,-4.23583 -19.7014794,-9.460847"
         inkscape:connector-curvature="0"
         id="path3672"
         style="opacity:0.6;fill:none;stroke:url(#radialGradient3351);stroke-width:1.17276728;stroke-miterlimit:4;stroke-opacity:1;stroke-dasharray:none" />
      <path
         d="m 41.660913,15.999145 c -0.996984,1.131878 -2.439625,2.151201 -4.222261,3.00724 -1.782637,0.85604 -3.905265,1.548795 -6.262223,2.027542 -2.356958,0.478746 -4.948242,0.743483 -7.668191,0.743483 -5.440393,0 -10.365765,-1.058957 -13.9310351,-2.771043 C 7.7945671,18.150325 6.3519561,17.131001 5.3550041,15.999124"
         inkscape:connector-curvature="0"
         id="path3674"
         style="opacity:0.6;fill:none;stroke:url(#radialGradient3351);stroke-width:1.17276728;stroke-miterlimit:4;stroke-opacity:1;stroke-dasharray:none" />
      <path
         d="m 31.209241,5.8892934 c 1.843071,0.6575574 2.992167,1.541052 3.010295,2.4946375 l 0,0 C 34.255794,10.291189 29.754453,11.756524 24.166383,11.65685 18.5778,11.557167 14.01793,9.9301899 13.981672,8.0229493 13.963544,7.0693639 15.079751,6.2262753 16.899064,5.6340437"
         inkscape:connector-curvature="0"
         id="path3678"
         style="opacity:0.6;fill:none;stroke:url(#radialGradient3351);stroke-width:1.13270497;stroke-miterlimit:4;stroke-opacity:1;stroke-dasharray:none" />
    </g>
    <path
       d="M 34.639637,40.400086 C 37.012813,39.203792 37.602519,36.794073 33.801192,38.749219 24.011758,43.379949 12.186087,39.475088 7.3878164,30.027468 2.5895464,20.57985 6.635685,9.1670922 16.425119,4.5363627 20.398979,3.2889633 22.260519,1.6889007 15.586674,2.8854952 4.8525041,7.9631167 0.41589014,20.477269 5.6772204,30.836637 10.938551,41.196006 23.905466,45.477707 34.639637,40.400086 z"
       inkscape:connector-curvature="0"
       id="path3787"
       style="fill:url(#linearGradient2513);fill-opacity:1;stroke:url(#linearGradient2515);stroke-width:0.92641085;stroke-linecap:round;stroke-linejoin:round;stroke-miterlimit:4;stroke-opacity:1;stroke-dashoffset:0" />
    <rect
       width="1.8962822"
       height="4.6889415"
       x="15.7513"
       y="4.9024205"
       transform="matrix(0.970566,-0.2408351,0.247291,0.9689413,0,0)"
       id="rect3826"
       style="fill:url(#linearGradient2503);fill-opacity:1;stroke:url(#linearGradient2505);stroke-width:1.00001109;stroke-linecap:round;stroke-linejoin:round;stroke-miterlimit:4;stroke-opacity:1;stroke-dasharray:none;stroke-dashoffset:0" />
    <g
       transform="matrix(0.8186028,-0.2221948,0.2195137,0.8286012,-0.1493636,5.5323411)"
       id="g3353"
       style="opacity:0.3;stroke:url(#radialGradient3363);stroke-width:1.17276728;stroke-miterlimit:4;stroke-dasharray:none">
      <path
         d="m 43.399068,19.60859 0,0 c 0,5.225064 -8.821191,9.460848 -19.700983,9.460848 -10.880788,0 -19.701479,-4.235832 -19.701479,-9.460848"
         inkscape:connector-curvature="0"
         id="path3355"
         style="opacity:0.6;fill:none;stroke:url(#radialGradient3365);stroke-width:1.17276728;stroke-miterlimit:4;stroke-opacity:1;stroke-dasharray:none" />
      <path
         d="m 43.588916,26.900618 0,0 c 0,5.225065 -8.821191,9.460847 -19.700983,9.460847 -10.880788,0 -19.7014794,-4.23583 -19.7014794,-9.460847"
         inkscape:connector-curvature="0"
         id="path3357"
         style="opacity:0.6;fill:none;stroke:url(#radialGradient3367);stroke-width:1.17276728;stroke-miterlimit:4;stroke-opacity:1;stroke-dasharray:none" />
      <path
         d="m 41.660913,15.999145 c -0.996984,1.131878 -2.439625,2.151201 -4.222261,3.00724 -1.782637,0.85604 -3.905265,1.548795 -6.262223,2.027542 -2.356958,0.478746 -4.948242,0.743483 -7.668191,0.743483 -5.440393,0 -10.365765,-1.058957 -13.9310351,-2.771043 C 7.7945671,18.150325 6.3519561,17.131001 5.3550041,15.999124"
         inkscape:connector-curvature="0"
         id="path3359"
         style="opacity:0.6;fill:none;stroke:url(#radialGradient3369);stroke-width:1.17276728;stroke-miterlimit:4;stroke-opacity:1;stroke-dasharray:none" />
      <path
         d="m 31.209241,5.8892934 c 1.843071,0.6575574 2.992167,1.541052 3.010295,2.4946375 l 0,0 C 34.255794,10.291189 29.754453,11.756524 24.166383,11.65685 18.5778,11.557167 14.01793,9.9301899 13.981672,8.0229493 13.963544,7.0693639 15.079751,6.2262753 16.899064,5.6340437"
         inkscape:connector-curvature="0"
         id="path3361"
         style="opacity:0.6;fill:none;stroke:url(#radialGradient3371);stroke-width:1.13270497;stroke-miterlimit:4;stroke-opacity:1;stroke-dasharray:none" />
    </g>
    <rect
       width="1.8962815"
       height="4.6889415"
       x="16.043659"
       y="44.19315"
       transform="matrix(0.970566,-0.2408351,0.247291,0.9689413,0,0)"
       id="rect3542"
       style="fill:url(#linearGradient3544);fill-opacity:1;stroke:url(#linearGradient3546);stroke-width:1.00001109;stroke-linecap:round;stroke-linejoin:round;stroke-miterlimit:4;stroke-opacity:1;stroke-dasharray:none;stroke-dashoffset:0" />
  </g>
</svg>
