<?xml version="1.0" encoding="UTF-8" standalone="no"?>
<svg
   xmlns:dc="http://purl.org/dc/elements/1.1/"
   xmlns:cc="http://creativecommons.org/ns#"
   xmlns:rdf="http://www.w3.org/1999/02/22-rdf-syntax-ns#"
   xmlns:svg="http://www.w3.org/2000/svg"
   xmlns="http://www.w3.org/2000/svg"
   xmlns:xlink="http://www.w3.org/1999/xlink"
   xmlns:sodipodi="http://sodipodi.sourceforge.net/DTD/sodipodi-0.dtd"
   xmlns:inkscape="http://www.inkscape.org/namespaces/inkscape"
   inkscape:version="1.0 (4035a4fb49, 2020-05-01)"
   sodipodi:docname="applications-accessories.svg"
   id="svg2974"
   height="48"
   width="48"
   version="1.0">
  <sodipodi:namedview
     inkscape:current-layer="svg2974"
     inkscape:window-maximized="1"
     inkscape:window-y="30"
     inkscape:window-x="0"
     inkscape:cy="74.709034"
     inkscape:cx="60.406976"
     inkscape:zoom="1"
     showgrid="false"
     id="namedview61"
     inkscape:window-height="1373"
     inkscape:window-width="2560"
     inkscape:pageshadow="2"
     inkscape:pageopacity="0"
     guidetolerance="10"
     gridtolerance="10"
     objecttolerance="10"
     borderopacity="1"
     bordercolor="#666666"
     pagecolor="#ffffff" />
  <metadata
     id="metadata62">
    <rdf:RDF>
      <cc:Work
         rdf:about="">
        <dc:format>image/svg+xml</dc:format>
        <dc:type
           rdf:resource="http://purl.org/dc/dcmitype/StillImage" />
      </cc:Work>
    </rdf:RDF>
  </metadata>
  <defs
     id="defs2976">
    <linearGradient
       gradientTransform="matrix(0.065587,0,0,0.036985,3.3658,83.447)"
       gradientUnits="userSpaceOnUse"
       id="linearGradient5593"
       y2="609.51001"
       x2="302.85999"
       y1="366.64999"
       x1="302.85999">
      <stop
         offset="0"
         style="stop-color:#000000;stop-opacity:0"
         id="stop5050" />
      <stop
         offset="0.5"
         style="stop-color:#000000;stop-opacity:1"
         id="stop5056" />
      <stop
         offset="1"
         style="stop-color:#000000;stop-opacity:0"
         id="stop5052" />
    </linearGradient>
    <radialGradient
       gradientTransform="matrix(0.065587,0,0,0.036985,3.3787,83.447)"
       gradientUnits="userSpaceOnUse"
       xlink:href="#linearGradient5060"
       id="radialGradient5595"
       r="117.14"
       cy="486.64999"
       cx="605.71002" />
    <linearGradient
       id="linearGradient5060">
      <stop
         offset="0"
         style="stop-color:#000000;stop-opacity:1"
         id="stop5062" />
      <stop
         offset="1"
         style="stop-color:#000000;stop-opacity:0"
         id="stop5064" />
    </linearGradient>
    <radialGradient
       gradientTransform="matrix(-0.065587,0,0,0.036985,50.763,83.447)"
       gradientUnits="userSpaceOnUse"
       xlink:href="#linearGradient5060"
       id="radialGradient5597"
       r="117.14"
       cy="486.64999"
       cx="605.71002" />
    <linearGradient
       gradientTransform="translate(-5,-5)"
       gradientUnits="userSpaceOnUse"
       id="linearGradient5585"
       y2="60.894001"
       x2="24.978001"
       y1="12"
       x1="24.493">
      <stop
         offset="0"
         style="stop-color:#e7c591;stop-opacity:1"
         id="stop4105" />
      <stop
         offset="1"
         style="stop-color:#cfa25e;stop-opacity:1"
         id="stop4107" />
    </linearGradient>
    <linearGradient
       gradientTransform="translate(-5,-5)"
       gradientUnits="userSpaceOnUse"
       xlink:href="#linearGradient6402"
       id="linearGradient5587"
       y2="50"
       x2="19.66"
       y1="12"
       x1="19.49" />
    <linearGradient
       id="linearGradient6402">
      <stop
         offset="0"
         style="stop-color:#cd8033;stop-opacity:1"
         id="stop6404" />
      <stop
         offset="1"
         style="stop-color:#bb5e12;stop-opacity:1"
         id="stop6406" />
    </linearGradient>
    <radialGradient
       gradientTransform="matrix(0.39205,-0.026334,0.086746,1.2914,-0.32075,-9.473)"
       gradientUnits="userSpaceOnUse"
       id="radialGradient5582"
       r="17.993"
       cy="14.746"
       cx="10.083">
      <stop
         offset="0"
         style="stop-color:#ffffff;stop-opacity:1"
         id="stop3101" />
      <stop
         offset="1"
         style="stop-color:#ffffff;stop-opacity:0"
         id="stop3103" />
    </radialGradient>
    <linearGradient
       gradientTransform="translate(-5,-5)"
       gradientUnits="userSpaceOnUse"
       xlink:href="#linearGradient6402"
       id="linearGradient5578"
       y2="49.835999"
       x2="15.206"
       y1="12.094"
       x1="15.206" />
    <linearGradient
       gradientTransform="translate(-5,-5)"
       gradientUnits="userSpaceOnUse"
       xlink:href="#linearGradient6402"
       id="linearGradient5574"
       y2="50.124001"
       x2="25.048"
       y1="11.852"
       x1="24.806" />
    <linearGradient
       gradientTransform="matrix(-2.266,1.0606,1.3034,2.8055,691.56,-311.63)"
       gradientUnits="userSpaceOnUse"
       xlink:href="#XMLID_897_"
       id="linearGradient8576"
       y2="9.8282003"
       x2="296.39999"
       y1="6.3850999"
       x1="294.20999" />
    <linearGradient
       gradientUnits="userSpaceOnUse"
       id="XMLID_897_"
       y2="10.711"
       x2="296.94"
       y1="4.7593002"
       x1="292.97">
      <stop
         offset="0"
         style="stop-color:#e8e8e5;stop-opacity:1"
         id="stop45093" />
      <stop
         offset="1"
         style="stop-color:#f0f0f0;stop-opacity:1"
         id="stop45095" />
    </linearGradient>
    <linearGradient
       gradientTransform="matrix(0.54896,-0.25693,0.31509,0.67822,12.147,16.191)"
       gradientUnits="userSpaceOnUse"
       xlink:href="#linearGradient2229"
       id="linearGradient8573"
       y2="23.943001"
       x2="24.326"
       y1="6.4604001"
       x1="20.288" />
    <linearGradient
       id="linearGradient2229">
      <stop
         offset="0"
         style="stop-color:#e2e2e2;stop-opacity:1"
         id="stop2231" />
      <stop
         offset="1"
         style="stop-color:#d8d8d8;stop-opacity:1"
         id="stop2233" />
    </linearGradient>
    <linearGradient
       gradientTransform="matrix(2.2252,-1.0415,1.3034,2.8055,-636.93,310.15)"
       gradientUnits="userSpaceOnUse"
       xlink:href="#XMLID_897_"
       id="linearGradient8569"
       y2="10.289"
       x2="296.64001"
       y1="3.0185001"
       x1="293.01001" />
    <linearGradient
       gradientTransform="matrix(0.54896,-0.25693,0.31509,0.67822,12.147,16.191)"
       gradientUnits="userSpaceOnUse"
       xlink:href="#linearGradient2229"
       id="linearGradient8566"
       y2="23.943001"
       x2="24.326"
       y1="18.035999"
       x1="19.222" />
    <linearGradient
       gradientUnits="userSpaceOnUse"
       id="linearGradient8582"
       y2="22.861"
       x2="24.190001"
       y1="23.843"
       x1="22.225">
      <stop
         offset="0"
         style="stop-color:#babdb6;stop-opacity:1"
         id="stop695" />
      <stop
         offset="1"
         style="stop-color:#eeeeec;stop-opacity:1"
         id="stop697" />
    </linearGradient>
  </defs>
  <g
     id="layer1">
    <g
       style="enable-background:new"
       id="g5599"
       transform="translate(0,-1)">
      <g
         id="g9421"
         transform="matrix(0.92708,0,0,0.66799,-3.347,-23.8)">
        <rect
           style="opacity:0.40206;fill:url(#linearGradient5593)"
           id="rect4173"
           y="97.008003"
           x="11.236"
           height="8.9821997"
           width="31.669001" />
        <path
           style="opacity:0.40206;fill:url(#radialGradient5595)"
           id="path5058"
           d="m 42.906,97.008 v 8.9817 c 3.3776,0.0169 8.1654,-2.0123 8.1654,-4.4914 0,-2.4791 -3.7691,-4.4903 -8.1654,-4.4903 z" />
        <path
           style="opacity:0.40206;fill:url(#radialGradient5597)"
           id="path5018"
           d="m 11.236,97.008 v 8.9817 c -3.3776,0.0169 -8.1654,-2.0123 -8.1654,-4.4914 0,-2.4791 3.7691,-4.4903 8.1654,-4.4903 z" />
      </g>
      <path
         style="fill:url(#linearGradient5585);fill-rule:evenodd;stroke:none;stroke-linecap:square;stroke-linejoin:round"
         id="rect5490"
         d="m 3.5,7.5 v 37 h 37 v -9 h -28 v -28 h -9 z" />
      <path
         style="opacity:0.6;fill:none;stroke:url(#radialGradient5582);stroke-width:0.986;stroke-linecap:square"
         id="rect8492"
         d="m 4.5,8.5 v 28 7 h 7 28 v -7 h -28 v -28 h -7 z" />
      <path
         style="fill:none;fill-rule:evenodd;stroke:#e7c591;stroke-width:0.82560998;stroke-linecap:square;enable-background:new"
         id="path8551"
         d="m 8.4128,14.9 v 0.1875 h 3.25 V 14.9 h -3.25 z m 1.9375,1.9375 V 17.15 h 1.3125 v -0.3125 h -1.3125 z m 0,2 V 19.15 h 1.3125 v -0.3125 h -1.3125 z m 0,2 V 21.15 h 1.3125 v -0.3125 h -1.3125 z m 0,2 V 23.15 h 1.3125 V 22.8375 H 10.3503 z M 8.4128,24.9 v 0.1875 h 3.25 V 24.9 h -3.25 z m 1.9375,1.9375 V 27.15 h 1.3125 v -0.3125 h -1.3125 z m 0,2 V 29.15 h 1.3125 v -0.3125 h -1.3125 z m 0,2 V 31.15 h 1.3125 v -0.3125 h -1.3125 z m 0,2 V 33.15 h 1.3125 V 32.8375 H 10.3503 z M 8.4128,34.9 v 0.1875 h 3.25 V 34.9 h -3.25 z" />
      <path
         style="fill:none;stroke:#804b00;stroke-width:0.82560998;stroke-linecap:square;opacity:0.5"
         id="rect8505"
         d="m 8.4128,14.413 v 0.1875 H 12 V 14.413 H 8.4128 z m 1.9375,1.9375 V 16.663 H 12 v -0.3125 h -1.6497 z m 0,2 V 18.663 H 12 v -0.3125 h -1.6497 z m 0,2 V 20.663 H 12 v -0.3125 h -1.6497 z m 0,2 V 22.663 H 12 V 22.3505 H 10.3503 z M 8.4128,24.413 v 0.1875 H 12 V 24.413 H 8.4128 z m 1.9375,1.9375 V 26.663 H 12 v -0.3125 h -1.6497 z m 0,2 V 28.663 H 12 v -0.3125 h -1.6497 z m 0,2 V 30.663 H 12 v -0.3125 h -1.6497 z m 0,2 V 32.663 H 12 V 32.3505 H 10.3503 z M 8.4128,34.413 v 0.1875 H 12 V 34.413 H 8.4128 z" />
      <path
         style="fill:none;fill-rule:evenodd;stroke:#e7c591;stroke-width:0.82560998;stroke-linecap:square;enable-background:new"
         id="path8555"
         d="m 12.913,39.587 h 0.1875 v -3.25 H 12.913 v 3.25 z m 1.9375,-1.9375 H 15.163 V 36.337 h -0.3125 v 1.3125 z m 2,0 H 17.163 V 36.337 h -0.3125 v 1.3125 z m 2,0 H 19.163 V 36.337 h -0.3125 v 1.3125 z m 2,0 H 21.163 V 36.337 h -0.3125 v 1.3125 z m 2.0625,1.9375 h 0.1875 v -3.25 H 22.913 v 3.25 z m 1.9375,-1.9375 H 25.163 V 36.337 h -0.3125 v 1.3125 z m 2,0 H 27.163 V 36.337 h -0.3125 v 1.3125 z m 2,0 H 29.163 V 36.337 h -0.3125 v 1.3125 z m 2,0 H 31.163 V 36.337 h -0.3125 v 1.3125 z m 2.0625,1.9375 h 0.1875 v -3.25 H 32.913 v 3.25 z" />
      <path
         style="fill:none;stroke:#804b00;stroke-width:0.82560998;stroke-linecap:square;enable-background:new;opacity:0.5"
         id="rect8527"
         d="m 13.413,39.663 h 0.1875 V 35.9132 H 13.413 v 3.7498 z m 1.9375,-1.9375 h 0.3125 v -1.8123 h -0.3125 v 1.8123 z m 2,0 h 0.3125 v -1.8123 h -0.3125 v 1.8123 z m 2,0 h 0.3125 v -1.8123 h -0.3125 v 1.8123 z m 2,0 h 0.3125 v -1.8123 h -0.3125 v 1.8123 z m 2.0625,1.9375 h 0.1875 V 35.9132 H 23.413 v 3.7498 z m 1.9375,-1.9375 h 0.3125 v -1.8123 h -0.3125 v 1.8123 z m 2,0 h 0.3125 v -1.8123 h -0.3125 v 1.8123 z m 2,0 h 0.3125 v -1.8123 h -0.3125 v 1.8123 z m 2,0 h 0.3125 v -1.8123 h -0.3125 v 1.8123 z m 2.0625,1.9375 h 0.1875 V 35.9132 H 33.413 v 3.7498 z" />
      <path
         d="m 3.5,7.5 v 37 h 37 v -9 h -28 v -28 h -9 z"
         id="path886"
         style="fill:none;fill-rule:evenodd;stroke:#804b00;stroke-linecap:square;stroke-linejoin:round;opacity:0.5" />
      <g
         id="g8586"
         transform="translate(-5,-5)">
        <path
           style="fill:url(#linearGradient8576);stroke:#888a85;stroke-width:0.99952;stroke-linecap:round;stroke-linejoin:round"
           id="path16717"
           d="m 31.419,8.5126 c 0.13795,-0.00798 0.27464,-0.0091 0.41107,-0.012809 1.0499,1.3227 3.4078,2.0535 3.4668,3.8325 -0.08982,5.3103 -0.13796,10.671 -0.19624,16.008 -0.3631,0.29124 -0.75086,0.53879 -1.159,0.74451 -0.8582,0.43487 -1.8262,0.69411 -2.8227,0.71501 0.07829,-7.0974 0.15181,-14.208 0.30015,-21.287 v 4e-7 z" />
        <path
           style="fill:url(#linearGradient8573)"
           id="path16719"
           d="m 32.309,10.263 c -0.03,0.2679 0.02761,0.70621 -0.01228,0.96046 -0.09383,5.6196 -0.22875,11.249 -0.33962,16.854 0.04652,0.18723 -0.12785,0.89568 0.2905,0.64264 0.67256,-0.15139 1.3576,-0.3459 1.8734,-0.82971 0.10454,-5.1825 0.15438,-10.379 0.25353,-15.561 0.06598,-0.35066 -0.06696,-0.73265 -0.3863,-0.90249 -0.54827,-0.41767 -1.1134,-0.86171 -1.6574,-1.2513 l -0.01645,0.06608 -0.0054,0.02154 3.7e-5,10e-7 z" />
        <polygon
           style="fill:#c6262e;stroke:#a10705;stroke-width:0.41782999;stroke-linecap:round;stroke-linejoin:round"
           id="polygon45129"
           transform="matrix(1.9971,-0.9347,1.0935,2.3537,-572.66,276.69)"
           points="297.04,12.3 297.04,12.3 296.4,13.385 295.13,14.719 294.73,13.673 295.75,11.96 " />
        <path
           style="fill:url(#linearGradient8569);stroke:#888a85;stroke-width:0.99952;stroke-linecap:round;stroke-linejoin:round"
           id="polygon45097"
           d="m 19.773,13.963 c -0.09266,0.09996 -0.17936,0.20338 -0.26784,0.30495 0.3411,1.6544 -0.5869,3.9232 0.72158,5.1173 4.0728,3.362 8.1576,6.7884 12.231,10.192 0.4483,-0.08853 0.87905,-0.22406 1.291,-0.40218 0.86786,-0.37299 1.6718,-0.94306 2.3134,-1.6889 -5.417,-4.525 -10.841,-9.063 -16.289,-13.523 z" />
        <path
           style="fill:url(#linearGradient8566)"
           id="path16635"
           d="m 20.468,15.805 c 0.14474,0.86256 -0.1795,1.699 0.05314,2.5812 4.0506,3.3838 8.1247,6.7408 12.172,10.12 0.73924,-0.13272 1.3625,-0.56077 1.9344,-1.0344 -0.33694,-0.45368 -0.82461,-0.713 -1.2049,-1.1118 -4.2083,-3.4556 -8.4333,-6.8975 -12.625,-10.374 -0.05581,-0.09906 -0.27151,-0.27266 -0.32972,-0.18111 h -1e-6 z" />
        <path
           style="fill:url(#linearGradient8582)"
           id="path16731"
           transform="matrix(0.53792,-0.25177,0.31509,0.67822,12.372,16.229)"
           d="m 24.19,23.843 c 3.71e-4,0.5429 -0.43963,0.9832 -0.98252,0.9832 -0.5429,0 -0.9829,-0.4403 -0.98252,-0.9832 -3.71e-4,-0.5429 0.43963,-0.9832 0.98252,-0.9832 0.5429,0 0.9829,0.4403 0.98252,0.9832 z" />
        <polygon
           style="fill:#c6262e;stroke:#a10705;stroke-width:0.40961;stroke-linecap:round;stroke-linejoin:round"
           id="polygon45101"
           transform="matrix(1.9897,-0.93124,1.142,2.4582,-571.32,275.36)"
           points="296.96,12.3 296.96,12.3 297.6,13.385 298.87,14.719 299.27,13.673 298.25,11.96 " />
        <path
           style="fill:#c6262e;stroke:#a10705;stroke-width:0.98720998"
           id="path11967"
           d="m 38.919,28.973 c -1.1687,2.0587 0.15618,5.535 2.9619,7.7637 2.8064,2.2305 6.0289,2.3714 7.2007,0.31767 1.1695,-2.0591 -0.15542,-5.5332 -2.9611,-7.762 -2.8049,-2.2291 -6.0281,-2.3697 -7.2014,-0.31945 z m 1.786,1.4221 c 0.51992,-0.91201 2.5093,-0.81384 4.3946,0.68644 1.8874,1.4992 2.7173,3.6422 2.1974,4.5522 -0.51783,0.91485 -2.51,0.8142 -4.3953,-0.68608 -1.8881,-1.4989 -2.7166,-3.6406 -2.1967,-4.5526 z" />
        <path
           style="fill:#c6262e;stroke:#a10705;stroke-width:1.01680005"
           id="path45138"
           d="m 31.471,32.535 c 2.4675,0.3307 4.2574,3.49 3.9952,7.0581 -0.26128,3.5697 -2.472,6.1964 -4.9378,5.8711 -2.4684,-0.33033 -4.2565,-3.4884 -3.9944,-7.0565 0.26125,-3.5677 2.4729,-6.1948 4.937,-5.8728 z m -0.16417,2.2734 c -1.0947,-0.1448 -2.4507,1.4836 -2.6247,3.8828 -0.17639,2.4002 0.91747,4.3582 2.0106,4.5018 1.0954,0.14818 2.4514,-1.4839 2.6255,-3.8831 0.17718,-2.4005 -0.9167,-4.3567 -2.0114,-4.5015 z" />
      </g>
    </g>
  </g>
</svg>
