<svg xmlns="http://www.w3.org/2000/svg" xmlns:xlink="http://www.w3.org/1999/xlink" viewBox="0 0 48 48"><defs><linearGradient x1="24" y1="5" x2="24" y2="43" id="n" xlink:href="#a" gradientUnits="userSpaceOnUse" gradientTransform="translate(0 1)"/><linearGradient id="a"><stop offset="0" stop-color="#fff"/><stop offset=".063" stop-color="#fff" stop-opacity=".235"/><stop offset=".951" stop-color="#fff" stop-opacity=".157"/><stop offset="1" stop-color="#fff" stop-opacity=".392"/></linearGradient><linearGradient x1="12.455" y1="5.911" x2="14.841" y2="21.719" id="m" xlink:href="#b" gradientUnits="userSpaceOnUse" gradientTransform="matrix(.82498 0 0 1.30123 4.162 -1.433)"/><linearGradient id="b"><stop offset="0" stop-color="#999" stop-opacity=".911"/><stop offset="1" stop-color="#515151" stop-opacity=".645"/></linearGradient><radialGradient cx="23.918" cy="10.764" r="20" fx="23.918" fy="10.764" id="k" xlink:href="#c" gradientUnits="userSpaceOnUse" gradientTransform="matrix(3.94168 0 0 1.75232 -70.277 29.216)"/><linearGradient id="c"><stop offset="0" stop-color="#6a6a6a"/><stop offset=".705" stop-color="#303030"/><stop offset="1" stop-color="#212121"/></linearGradient><linearGradient x1="7.797" y1="44.293" x2="7.797" y2="4.241" id="l" xlink:href="#d" gradientUnits="userSpaceOnUse" gradientTransform="translate(0 1)"/><linearGradient id="d"><stop offset="0" stop-color="#252525"/><stop offset="1" stop-color="#464646"/></linearGradient><radialGradient cx="4.993" cy="43.5" r="2.5" fx="4.993" fy="43.5" id="h" xlink:href="#e" gradientUnits="userSpaceOnUse" gradientTransform="matrix(2.00378 0 0 1.4 27.988 -17.4)"/><linearGradient id="e"><stop offset="0" stop-color="#181818"/><stop offset="1" stop-color="#181818" stop-opacity="0"/></linearGradient><radialGradient cx="4.993" cy="43.5" r="2.5" fx="4.993" fy="43.5" id="i" xlink:href="#f" gradientUnits="userSpaceOnUse" gradientTransform="matrix(2.00378 0 0 1.4 -20.012 -104.4)"/><linearGradient id="f"><stop offset="0" stop-color="#181818"/><stop offset="1" stop-color="#181818" stop-opacity="0"/></linearGradient><linearGradient id="g"><stop offset="0" stop-color="#181818" stop-opacity="0"/><stop offset=".5" stop-color="#181818"/><stop offset="1" stop-color="#181818" stop-opacity="0"/></linearGradient><linearGradient x1="25.058" y1="47.028" x2="25.058" y2="39.999" id="j" xlink:href="#g" gradientUnits="userSpaceOnUse"/></defs><g opacity=".4"><path fill="url(#h)" d="M38 40h5v7h-5z" transform="matrix(1.1579 0 0 .57143 -3.79 19.143)"/><path transform="matrix(-1.1579 0 0 -.57143 -3.79 19.143)" fill="url(#i)" d="M-10-47h5v7h-5z"/><path fill="url(#j)" d="M10 40h28v7H10z" transform="matrix(1.1579 0 0 .57143 -3.79 19.143)"/></g><rect width="39" height="39" rx="2" ry="2" x="4.5" y="5.5" color="#000" fill="url(#k)" stroke="url(#l)" stroke-linecap="round" stroke-linejoin="round" overflow="visible"/><path d="M6.217 6C5.537 6 5 6.912 5 7.8L5.013 30C6.106 29.976 42.17 21.153 43 20.73V7.8c0-.678-.53-1.8-1.12-1.8H6.218z" fill="url(#m)" fill-rule="evenodd"/><rect width="37" height="37" rx="1" ry="1" x="5.5" y="6.5" opacity=".5" fill="none" stroke="url(#n)" stroke-linecap="round" stroke-linejoin="round"/><path d="M24 10v4h1v-4h-1zm-12 1v1h2v-1h-2zm2 1v4h1v-4h-1zm0 4h-2v1h2v-1zm-2 0v-4h-1v4h1zm22-5v1h1v4h-1v1h3v-1h-1v-5h-2zm-10 6v4h1v-4h-1zM8 23v8h2v-8H8zm16 1v4h1v-4h-1zm-8 6v2h2v-2h-2zm8 1v4h1v-4h-1zm14 0v8h2v-8h-2zm-14 7v4h1v-4h-1z" color="#000" fill="#333" overflow="visible"/><path d="M24 9v4h1V9h-1zm-12 1v1h2v-1h-2zm2 1v4h1v-4h-1zm0 4h-2v1h2v-1zm-2 0v-4h-1v4h1zm22-5v1h1v4h-1v1h3v-1h-1v-5h-2zm-10 6v4h1v-4h-1zM8 22v8h2v-8H8zm16 1v4h1v-4h-1zm-8 6v2h2v-2h-2zm8 1v4h1v-4h-1zm14 0v8h2v-8h-2zm-14 7v4h1v-4h-1z" color="#000" fill="#fff" overflow="visible"/></svg>