<svg xmlns="http://www.w3.org/2000/svg" xmlns:xlink="http://www.w3.org/1999/xlink" viewBox="0 0 48 48"><defs><linearGradient id="a"><stop offset="0"/><stop offset="1" stop-opacity="0"/></linearGradient><linearGradient id="c"><stop offset="0" stop-color="#f2f2f2"/><stop offset="1" stop-color="#c3c3c3"/></linearGradient><linearGradient id="b"><stop offset="0" stop-color="#edd563"/><stop offset="1" stop-color="#e08223"/></linearGradient><radialGradient cx="26.782" cy="42.343" r="14.407" id="d" xlink:href="#a" gradientUnits="userSpaceOnUse" gradientTransform="matrix(1 0 0 .2822 0 30.394)"/><linearGradient x1="52.718" y1="2.316" x2="67.466" y2="2.316" id="i" xlink:href="#b" gradientUnits="userSpaceOnUse" gradientTransform="matrix(.86248 0 0 .58072 -16.257 11.013)"/><linearGradient x1="53.169" y1="24.245" x2="69.691" y2="24.245" id="k" xlink:href="#c" gradientUnits="userSpaceOnUse" gradientTransform="matrix(.71944 0 0 .7189 -7.696 9.472)"/><linearGradient x1="61.872" y1="29.615" x2="61.872" y2="41.459" id="l" gradientUnits="userSpaceOnUse" gradientTransform="matrix(.88862 0 0 .7189 -18.298 9.472)"><stop offset="0" stop-color="#aeaeae"/><stop offset="1" stop-color="#c4c4c4" stop-opacity="0"/></linearGradient><linearGradient x1="42.816" y1="64.564" x2="54.065" y2="64.52" id="m" xlink:href="#b" gradientUnits="userSpaceOnUse" gradientTransform="matrix(.70375 0 0 .7189 -1.045 -22.425)"/><linearGradient x1="60.169" y1="40.12" x2="60.441" y2="43.87" id="o" xlink:href="#c" gradientUnits="userSpaceOnUse" gradientTransform="matrix(.7373 0 0 .77085 -8.532 7.122)"/><linearGradient x1="48.25" y1="52" x2="48.25" y2="74.5" id="p" gradientUnits="userSpaceOnUse" gradientTransform="translate(-1.897 -20.686) scale(.7189)"><stop offset="0" stop-color="#fff"/><stop offset="1" stop-color="#fff" stop-opacity="0"/></linearGradient><linearGradient x1="29.143" y1="11.359" x2="42" y2="11.359" id="j" gradientUnits="userSpaceOnUse"><stop offset="0" stop-color="#cd8033"/><stop offset="1" stop-color="#bb5e12"/></linearGradient><linearGradient x1="13.236" y1="37.752" x2="7.752" y2="42.282" id="h" gradientUnits="userSpaceOnUse" gradientTransform="matrix(.8523 0 0 .85278 -.433 5.36)"><stop offset="0" stop-color="#fff"/><stop offset="1" stop-color="#fff" stop-opacity="0"/></linearGradient><radialGradient cx="15.415" cy="35.357" r="7.579" id="g" gradientUnits="userSpaceOnUse" gradientTransform="matrix(.99466 0 0 .96987 -3.34 1.77)"><stop offset="0" stop-color="#696969"/><stop offset="1"/></radialGradient><linearGradient x1="19.395" y1="30.001" x2="23.109" y2="33.439" id="f" gradientUnits="userSpaceOnUse" gradientTransform="matrix(1 0 0 1.0006 -2.665 -.2)"><stop offset="0" stop-color="#bdbdbd"/><stop offset=".333" stop-color="#e2e2e2"/><stop offset=".667" stop-color="#a3a3a3"/><stop offset="1" stop-color="#ddd"/></linearGradient><linearGradient x1="28.059" y1="18.868" x2="33.437" y2="23.743" id="e" gradientUnits="userSpaceOnUse" gradientTransform="matrix(1 0 0 1.0006 -2.665 -.2)"><stop offset="0" stop-color="#6e3d09"/><stop offset=".242" stop-color="#ea8113"/><stop offset=".621" stop-color="#5c3307"/><stop offset="1" stop-color="#e07c12"/></linearGradient><radialGradient cx="31.411" cy="20.34" r="7.989" id="n" gradientUnits="userSpaceOnUse" gradientTransform="matrix(1 0 0 1.5787 0 -15.43)"><stop offset="0" stop-color="#fff"/><stop offset="1" stop-color="#fff" stop-opacity="0"/></radialGradient></defs><path d="M41.19 42.343c0 2.245-6.45 4.066-14.408 4.066-7.957 0-14.407-1.82-14.407-4.07s6.45-4.07 14.407-4.07 14.407 1.82 14.407 4.064z" transform="matrix(.93702 0 0 .98435 9.405 .317)" opacity=".3" fill="url(#d)"/><path d="M20.894 24.203l4.066 3.803c7.187-7.067 17.783-23.99 17.783-23.99.43-1.226-1.087-1.998-1.847-1.172 0 0-13.69 14.105-20.003 21.36z" fill="url(#e)" stroke="#673907" stroke-linecap="round"/><path d="M13.293 34.436l2.246 1.935L24.03 29l.275-.707 1.095-.017c-.438-1.564-2.942-4.386-4.817-4.386l.082 1.09-.67.38-6.704 9.076z" fill="url(#f)" stroke="#787a75" stroke-linecap="round"/><path d="M41.19 42.343c0 2.245-6.45 4.066-14.408 4.066-7.957 0-14.407-1.82-14.407-4.07s6.45-4.07 14.407-4.07 14.407 1.82 14.407 4.064z" transform="matrix(1.2282 0 0 .98436 -15.198 -.684)" opacity=".2" fill="url(#d)"/><path d="M3 42.35c6.605 0 11.618.787 12.567-4.02.765-3.876-4.56-5.733-7.2-2.274C5.827 39.39 3 42.35 3 42.35z" fill="url(#g)"/><path d="M12.54 36.373a1.066 1.066 0 1 1-1.065-1.067c.588 0 1.065.478 1.065 1.067z" opacity=".528" fill="#fff"/><path d="M22.5 26.636a.985.985 0 1 1-.984-.986c.544 0 .985.442.984.986z" opacity=".6" fill="#fff"/><path d="M20.184 28.016l-5.303 6.146" opacity=".6" fill="none" stroke="#fff" stroke-linecap="round" stroke-linejoin="round"/><path d="M4.313 41.695s3.34-1.643 4.765-4.09c.504-.865 1.644-.126.942.736-1.518 1.87-5.707 3.36-5.707 3.36z" opacity=".428" fill="url(#h)"/><path d="M41.787 3.483a.297.297 0 1 1-.297-.298c.164 0 .297.133.297.298z" opacity=".533" fill="#fff"/><g transform="matrix(1 0 0 1.0006 -1.987 2.01)"><path d="M35.127 7.35c-3.058.087-5.484 1.056-5.484 2.224v3.57c0 1.226 2.67 2.225 5.94 2.225 3.272 0 5.917-1 5.917-2.23V9.57c0-1.225-2.646-2.224-5.916-2.224-.153 0-.307-.005-.457 0z" fill="url(#i)" stroke="url(#j)" stroke-linecap="round"/><path d="M40.406 13.61c0 .388-2.133.703-4.763.703s-4.764-.315-4.764-.704c0-.39 2.13-.71 4.76-.71s4.76.312 4.76.7z" fill="#cd8033"/><path d="M27.926 39.155l1.047-21.35 2.487-3.662c1.97-.636 6.726-.636 8.506 0l2.487 3.03L45.07 39.66l-17.144-.505z" fill="url(#k)" stroke="#787878" stroke-linecap="round"/><path d="M28.828 38.896s2.59-9.53 7.54-9.53c5.107 0 8.17 9.91 8.17 9.91l-15.71-.38z" fill="url(#l)"/><path d="M29.377 20.5l-.29 6.474c1.628-1.08 11.74-1.265 14.04.387l-.686-6.59c-1.36-.95-10.35-1.48-13.06-.263z" fill="url(#m)"/><path d="M29.05 38.222l.876-20.194 1.84-3.033c1.82-.592 6.206-.592 7.848 0l1.96 2.533 2.453 21.248-14.978-.554z" opacity=".6" fill="none" stroke="url(#n)" stroke-linecap="round"/><rect width="19.974" height="3.928" rx=".884" ry=".884" x="26.513" y="37.536" fill="url(#o)" stroke="#787878" stroke-linecap="round"/><path d="M29.395 17.996c1.875-1.366 9.098-1.655 12.72-.607l-2.337-2.89c-2.48-.67-5.925-.38-8.276.07l-2.107 3.42z" fill="#f0f0f0"/><path d="M31.173 17.416v15.457l3.235-3.595-.36-12.58-2.875.718z" opacity=".6" fill="url(#p)"/><g opacity=".578" fill="#e6e7e6"><path d="M31.01 9.38v3.24s.61-.347.99-.36V9c-.482.07-.99.38-.99.38z" opacity=".411"/><path d="M33.01 8.76V12s.61-.083.99-.096V8.59c-.512.025-.99.17-.99.17z"/><path d="M35.01 8.56v3.296s.555-.005.99.015V8.54a4.31 4.31 0 0 0-.99.027z" opacity=".444"/></g></g></svg>