<svg xmlns="http://www.w3.org/2000/svg" xmlns:xlink="http://www.w3.org/1999/xlink" viewBox="0 0 48 48"><defs><linearGradient gradientTransform="matrix(.40394 0 0 .42567 4.55 -4.793)" gradientUnits="userSpaceOnUse" id="c" y2="57.61" x2="83.24" y1="42.457" x1="83.24"><stop offset="0" stop-color="#e5e5e5"/><stop offset="1" stop-color="#d4d4d4"/></linearGradient><linearGradient id="a"><stop offset="0"/><stop offset="1" stop-opacity="0"/></linearGradient><linearGradient x1="302.86" y1="366.65" x2="302.86" y2="609.51" id="e" gradientUnits="userSpaceOnUse" gradientTransform="matrix(.06285 0 0 .0247 1.282 31.44)"><stop offset="0" stop-opacity="0"/><stop offset=".5"/><stop offset="1" stop-opacity="0"/></linearGradient><radialGradient cx="605.71" cy="486.65" r="117.14" id="f" xlink:href="#a" gradientUnits="userSpaceOnUse" gradientTransform="matrix(.06285 0 0 .0247 1.296 31.44)"/><radialGradient cx="605.71" cy="486.65" r="117.14" id="g" xlink:href="#a" gradientUnits="userSpaceOnUse" gradientTransform="matrix(-.06285 0 0 .0247 46.705 31.44)"/><linearGradient x1="24" y1="13" x2="24" y2="40" id="i" gradientUnits="userSpaceOnUse" gradientTransform="matrix(1.0526 0 0 1.074 -1.263 -.963)"><stop offset="0" stop-color="#fff" stop-opacity=".941"/><stop offset="1" stop-color="#fff" stop-opacity=".706"/></linearGradient><linearGradient x1="15.927" y1="9.903" x2="15.927" y2="38.097" id="m" gradientUnits="userSpaceOnUse" gradientTransform="matrix(1.3226 0 0 1.2414 -9.065 -5.293)"><stop offset="0" stop-color="#fff"/><stop offset=".022" stop-color="#fff" stop-opacity="0"/><stop offset="1" stop-color="#fff" stop-opacity="0"/><stop offset="1" stop-color="#fff" stop-opacity=".715"/></linearGradient><linearGradient x1="83.24" y1="42.457" x2="83.24" y2="57.61" id="d" gradientUnits="userSpaceOnUse" gradientTransform="matrix(.40394 0 0 .42567 4.55 -4.793)"><stop offset="0" stop-color="#fff"/><stop offset="1" stop-color="#e1e1e1"/></linearGradient><linearGradient x1="25.498" y1="44.638" x2="25.498" y2=".276" id="l" xlink:href="#b" gradientUnits="userSpaceOnUse" gradientTransform="translate(5.993 2)"/><linearGradient id="b"><stop offset="0" stop-color="#aaa"/><stop offset="1" stop-color="#c8c8c8"/></linearGradient><linearGradient x1="18.386" y1="44.961" x2="18.386" y2=".259" id="j" xlink:href="#b" gradientUnits="userSpaceOnUse" gradientTransform="translate(5.993 2)"/><linearGradient xlink:href="#c" id="h" x1="24.669" y1="6.219" x2="24.712" y2="12.637" gradientUnits="userSpaceOnUse"/><linearGradient xlink:href="#d" id="k" gradientUnits="userSpaceOnUse" gradientTransform="matrix(.40394 0 0 .42567 4.55 -2.793)" x1="83.24" y1="42.457" x2="83.24" y2="57.61"/></defs><path opacity=".236" fill="url(#e)" d="M8.824 40.5h30.35v6H8.824z"/><path d="M39.175 40.5v6c3.236.01 7.825-1.345 7.825-3 0-1.657-3.613-3-7.825-3z" opacity=".236" fill="url(#f)"/><path d="M8.824 40.5v6C5.587 46.51 1 45.155 1 43.5c0-1.657 3.61-3 7.824-3z" opacity=".236" fill="url(#g)"/><rect width="43" height="38" rx="2" ry="2" x="2.5" y="5.5" fill="url(#h)" stroke="#000" stroke-opacity=".291" stroke-linejoin="round" stroke-linecap="round"/><path d="M3 14v27c0 2 2 2 2 2h38c2 0 2-2 2-2V14z" fill="url(#i)"/><path d="M8.537 25.5l3.956.043s1.093 0 1.05.908v4.057c.043 1.037-.92.994-.92.994h-4.28s-.93.087-.843-.95V26.3s.043-.843 1.037-.8z" fill="#4aadea" fill-rule="evenodd" stroke="#4e80a9" stroke-linecap="round" stroke-linejoin="round" stroke-opacity=".696"/><path d="M32.515 28.5a3.017 3.017 0 0 1-6.03 0 3.017 3.017 0 0 1 6.03 0z" fill="#4aadea" fill-rule="evenodd" stroke="#276ba4" stroke-width=".969" stroke-linecap="round" stroke-linejoin="round" stroke-opacity=".696"/><path d="M18.862 16.502h22.276c.754 0 1.362.663 1.362 1.486v3.026c0 .824-.608 1.486-1.362 1.486H18.862c-.755 0-1.362-.663-1.362-1.486v-3.026c0-.823.607-1.486 1.362-1.486z" fill="#fff" fill-rule="evenodd" stroke="url(#j)" stroke-linecap="round" stroke-linejoin="round"/><path d="M34.5 16.5v5.995h6.24c.976 0 1.754-.82 1.754-1.85v-2.283c0-1.028-.778-1.862-1.754-1.862z" fill="url(#k)" fill-rule="evenodd" stroke="url(#l)" stroke-linecap="round" stroke-linejoin="round"/><path d="M8.54 33.47l3.953.03s1.08.002 1.036.978l.012 4.028c.043 1.037-.92.994-.92.994h-4.28s-.9-.044-.858-1.04L7.5 34.3s-.027-.872 1.04-.83z" fill="#fff" fill-rule="evenodd" stroke="#b5b5b5" stroke-linecap="round" stroke-linejoin="round"/><path d="M32.515 36.5a3.017 3.017 0 0 1-6.03 0 3.017 3.017 0 0 1 6.03 0z" fill="#fff" fill-rule="evenodd" stroke="#b5b5b5" stroke-width=".969" stroke-linecap="round" stroke-linejoin="round"/><path d="M37 19l1 2h1l1-2z" fill="#777" fill-rule="evenodd"/><path d="M8.278 28.222l1.568 2 3.05-3.79" fill="none" stroke="#fff" stroke-linecap="round" stroke-linejoin="round"/><path d="M3 13h42v1H3z" opacity=".15"/><rect width="41" height="36" rx="1" ry="1" x="3.5" y="6.5" opacity=".7" fill="none" stroke="url(#m)" stroke-linejoin="round" stroke-linecap="round"/><path d="M27.52 28.26l1.566 2 3.05-3.79" fill="none" stroke="#fff" stroke-linecap="round" stroke-linejoin="round"/><path d="M5 8l3 3m0-3l-3 3m38-3l-3 3" fill="none" stroke="#8a8a8a"/><path d="M15 9h3v1h-3z" opacity=".7" fill="#858585"/><path d="M15 10h3v1h-3z" opacity=".25" fill="#fff"/><path d="M19 9h9v1h-9z" opacity=".7" fill="#858585"/><path d="M19 10h9v1h-9z" opacity=".25" fill="#fff"/><path d="M29 9h5v1h-5z" opacity=".7" fill="#858585"/><path d="M29 10h5v1h-5z" opacity=".25" fill="#fff"/></svg>