<svg xmlns="http://www.w3.org/2000/svg" xmlns:xlink="http://www.w3.org/1999/xlink" viewBox="0 0 48 48"><defs><linearGradient x1="24" y1="5" x2="24" y2="43" id="v" xlink:href="#a" gradientUnits="userSpaceOnUse" gradientTransform="translate(0 .967)"/><linearGradient id="a"><stop offset="0" stop-color="#fff"/><stop offset=".063" stop-color="#fff" stop-opacity=".235"/><stop offset=".951" stop-color="#fff" stop-opacity=".157"/><stop offset="1" stop-color="#fff" stop-opacity=".392"/></linearGradient><radialGradient cx="7.806" cy="9.957" r="12.672" fx="7.276" fy="9.957" id="t" xlink:href="#b" gradientUnits="userSpaceOnUse" gradientTransform="matrix(0 4.3522 -8.0922 0 102.56 -28.435)"/><linearGradient id="b"><stop offset="0" stop-color="#f9c590"/><stop offset=".397" stop-color="#f19860"/><stop offset="1" stop-color="#ce5d36"/></linearGradient><linearGradient x1="10.72" y1="49.805" x2="10.72" y2="-7.172" id="u" xlink:href="#c" gradientUnits="userSpaceOnUse" gradientTransform="matrix(1 0 0 .65924 -2.005 11.167)"/><linearGradient id="c"><stop offset="0" stop-color="#b95b20"/><stop offset="1" stop-color="#ed8137"/></linearGradient><linearGradient x1="22.004" y1="63.218" x2="22.004" y2="25.647" id="s" xlink:href="#d" gradientUnits="userSpaceOnUse" gradientTransform="matrix(1.33942 0 0 -1.98263 -5.354 103.863)"/><linearGradient id="d"><stop offset="0" stop-color="#aaa"/><stop offset="1" stop-color="#c8c8c8"/></linearGradient><linearGradient x1="24" y1="5" x2="24" y2="43" id="r" xlink:href="#e" gradientUnits="userSpaceOnUse" gradientTransform="translate(0 .967)"/><linearGradient id="e"><stop offset="0" stop-color="#fff"/><stop offset=".063" stop-color="#fff" stop-opacity=".235"/><stop offset=".951" stop-color="#fff" stop-opacity=".157"/><stop offset="1" stop-color="#fff" stop-opacity=".392"/></linearGradient><radialGradient cx="7.496" cy="8.45" r="20" fx="7.496" fy="8.45" id="p" xlink:href="#f" gradientUnits="userSpaceOnUse" gradientTransform="matrix(0 1.93928 -2.05153 0 41.335 -8.486)"/><linearGradient id="f"><stop offset="0" stop-color="#f4f4f4"/><stop offset="1" stop-color="#dbdbdb"/></linearGradient><linearGradient x1="24" y1="44" x2="24" y2="3.899" id="q" xlink:href="#g" gradientUnits="userSpaceOnUse" gradientTransform="translate(0 .967)"/><linearGradient id="g"><stop offset="0" stop-color="#aaa"/><stop offset="1" stop-color="#c8c8c8"/></linearGradient><linearGradient x1="20" y1="43" x2="20" y2="3" id="o" xlink:href="#h" gradientUnits="userSpaceOnUse"/><linearGradient id="h"><stop offset="0" stop-color="#aaa"/><stop offset="1" stop-color="#c8c8c8"/></linearGradient><radialGradient cx="4.993" cy="43.5" r="2.5" fx="4.993" fy="43.5" id="l" xlink:href="#i" gradientUnits="userSpaceOnUse" gradientTransform="matrix(2.00378 0 0 1.4 27.988 -17.4)"/><linearGradient id="i"><stop offset="0" stop-color="#181818"/><stop offset="1" stop-color="#181818" stop-opacity="0"/></linearGradient><radialGradient cx="4.993" cy="43.5" r="2.5" fx="4.993" fy="43.5" id="m" xlink:href="#j" gradientUnits="userSpaceOnUse" gradientTransform="matrix(2.00378 0 0 1.4 -20.012 -104.4)"/><linearGradient id="j"><stop offset="0" stop-color="#181818"/><stop offset="1" stop-color="#181818" stop-opacity="0"/></linearGradient><linearGradient x1="25.058" y1="47.028" x2="25.058" y2="39.999" id="n" xlink:href="#k" gradientUnits="userSpaceOnUse"/><linearGradient id="k"><stop offset="0" stop-color="#181818" stop-opacity="0"/><stop offset=".5" stop-color="#181818"/><stop offset="1" stop-color="#181818" stop-opacity="0"/></linearGradient></defs><g opacity=".4"><path fill="url(#l)" d="M38 40h5v7h-5z" transform="matrix(1.1579 0 0 .57143 -3.79 19.143)"/><path transform="matrix(-1.1579 0 0 -.57143 -3.79 19.143)" fill="url(#m)" d="M-10-47h5v7h-5z"/><path fill="url(#n)" d="M10 40h28v7H10z" transform="matrix(1.1579 0 0 .57143 -3.79 19.143)"/></g><path d="M22.97 8.187a2.936 2.936 0 0 0-1.407.407L10.53 14.97A2.936 2.936 0 0 0 9.126 17a2.936 2.936 0 0 0-.03 0 2.936 2.936 0 0 0-.97 2.188l-.063 12.718a2.936 2.936 0 0 0 1 2.188 2.936 2.936 0 0 0 0 .03A2.936 2.936 0 0 0 10.5 36.22l11 6.31a2.936 2.936 0 0 0 2.406.22 2.936 2.936 0 0 0 .032 0 2.936 2.936 0 0 0 2.5-.188l11-6.343a2.936 2.936 0 0 0 1.406-2 2.936 2.936 0 0 0 1.093-2.25V19.25a2.936 2.936 0 0 0-1-2.188A2.936 2.936 0 0 0 37.5 14.97L26.47 8.624a2.936 2.936 0 0 0-2.407-.25 2.936 2.936 0 0 0-1.094-.188z" opacity=".05" color="#000" fill="url(#o)" overflow="visible"/><rect width="39" height="39" rx="2" ry="2" x="4.5" y="5.467" color="#000" fill="url(#p)" stroke="url(#q)" stroke-linecap="round" stroke-linejoin="round" overflow="visible"/><rect width="37" height="37" rx="1" ry="1" x="5.5" y="6.467" fill="none" stroke="url(#r)" stroke-linecap="round" stroke-linejoin="round"/><g color="#000"><path d="M39.945 28.926a6.953 6.953 0 1 1-3.68-6.134l-3.274 6.134z" opacity=".4" fill="#fff" overflow="visible"/><path d="M39.945 28.07a6.953 6.953 0 1 1-3.68-6.133L32.99 28.07z" opacity=".15" overflow="visible"/></g><path d="M13 34v-1h2.22v1zm2.656 0v-1H22v1zM13 30v-1h2.97v1zm3.72 0v-1h2.343v1zm2.936 0v-1h1.188v1zm1.813 0v-1h2.153v1zM13 26v-1h3.28v1zm3.875 0v-1h1.656v1zm2.22 0v-1h3.718v1zM13 22v-1h3.28v1zm3.906 0v-1h2.344v1zm2.938 0v-1h3.687v1z" style="text-indent:0;text-align:start;line-height:normal;text-transform:none;block-progression:tb;-inkscape-font-specification:Sans" font-weight="400" color="#000" fill="url(#s)" overflow="visible" font-family="Sans"/><path d="M18.25 16v1h5.734v-1zm6.39 0v1h2.64v-1zM28 16v1h3.75v-1z" style="text-indent:0;text-align:start;line-height:normal;text-transform:none;block-progression:tb;-inkscape-font-specification:Sans" font-weight="400" opacity=".28" color="#000" overflow="visible" font-family="Sans"/><path d="M10 5.5s-3.1-.03-3.5-.03c-1.108 0-2 .89-2 2v35c0 1.107.892 2 2 2H10" color="#000" fill="url(#t)" stroke="url(#u)" stroke-linejoin="round" overflow="visible"/><rect width="37" height="37" rx="1" ry="1" x="5.5" y="6.467" opacity=".4" fill="none" stroke="url(#v)" stroke-linecap="round" stroke-linejoin="round"/></svg>