<?xml version="1.0" encoding="UTF-8" standalone="no"?>
<svg
   xmlns:dc="http://purl.org/dc/elements/1.1/"
   xmlns:cc="http://creativecommons.org/ns#"
   xmlns:rdf="http://www.w3.org/1999/02/22-rdf-syntax-ns#"
   xmlns:svg="http://www.w3.org/2000/svg"
   xmlns="http://www.w3.org/2000/svg"
   xmlns:xlink="http://www.w3.org/1999/xlink"
   version="1.1"
   width="48"
   height="48"
   id="svg4279">
  <defs
     id="defs4281">
    <linearGradient
       id="linearGradient4119">
      <stop
         id="stop4121"
         style="stop-color:#ffffff;stop-opacity:1"
         offset="0" />
      <stop
         id="stop4148"
         style="stop-color:#afaba5;stop-opacity:1"
         offset="0.53996283" />
      <stop
         id="stop4146"
         style="stop-color:#837874;stop-opacity:1"
         offset="0.61988848" />
      <stop
         id="stop4123"
         style="stop-color:#b4b2aa;stop-opacity:1"
         offset="1" />
    </linearGradient>
    <linearGradient
       x1="71.204407"
       y1="15.369057"
       x2="71.204407"
       y2="40.495617"
       id="linearGradient3221"
       xlink:href="#linearGradient4806-9"
       gradientUnits="userSpaceOnUse"
       gradientTransform="matrix(1.5920714,0,0,1.5920721,-90.909525,-20.366112)" />
    <linearGradient
       id="linearGradient4806-9">
      <stop
         id="stop4808-49"
         style="stop-color:#ffffff;stop-opacity:1"
         offset="0" />
      <stop
         id="stop4810-05"
         style="stop-color:#ffffff;stop-opacity:0.23529412"
         offset="0.42447853" />
      <stop
         id="stop4812-6"
         style="stop-color:#ffffff;stop-opacity:0.15686275"
         offset="0.82089913" />
      <stop
         id="stop4814-7"
         style="stop-color:#ffffff;stop-opacity:0.39215687"
         offset="1" />
    </linearGradient>
    <radialGradient
       cx="2.6180596"
       cy="7.493156"
       r="19.99999"
       fx="2.6180596"
       fy="7.493156"
       id="radialGradient3228"
       xlink:href="#radialGradient3093-0-3-6-6"
       gradientUnits="userSpaceOnUse"
       gradientTransform="matrix(0.02179243,2.7391193,-3.3986844,0.02703961,50.409819,0.62621056)" />
    <linearGradient
       id="linearGradient2867-449-88-871-390-598-476-591-434-148-57-177-641-289-620-227-114-444-680-744-4-8-69-5-4-8-426-2-9-1-4-965">
      <stop
         id="stop4036"
         style="stop-color:#f4f4f4;stop-opacity:1"
         offset="0" />
      <stop
         id="stop4040"
         style="stop-color:#dadada;stop-opacity:1"
         offset="1" />
    </linearGradient>
    <linearGradient
       id="linearGradient3820-7-2-2">
      <stop
         id="stop3822-2-6-36"
         style="stop-color:#3d3d3d;stop-opacity:1"
         offset="0" />
      <stop
         id="stop3864-8-7-6"
         style="stop-color:#686868;stop-opacity:0.49803922"
         offset="0.5" />
      <stop
         id="stop3824-1-2-4"
         style="stop-color:#686868;stop-opacity:0"
         offset="1" />
    </linearGradient>
    <radialGradient
       cx="99.157013"
       cy="186.17059"
       r="62.769119"
       fx="99.157013"
       fy="186.17059"
       id="radialGradient4277"
       xlink:href="#linearGradient3820-7-2-2"
       gradientUnits="userSpaceOnUse"
       gradientTransform="matrix(0.23897101,0,0,0.07603625,0.30434835,28.071012)" />
    <radialGradient
       cx="15.026252"
       cy="8.6257601"
       r="19.99999"
       fx="0.3035326"
       fy="8.625761"
       id="radialGradient3228-8"
       xlink:href="#linearGradient2867-449-88-871-390-598-476-591-434-148-57-177-641-289-620-227-114-444-680-744-4-8-69-5-4-8-426-2-9-1-4-965-2"
       gradientUnits="userSpaceOnUse"
       gradientTransform="matrix(-4.7487238e-8,0.78037803,-0.73522917,-5.3751304e-8,22.212601,1.684189)" />
    <linearGradient
       id="linearGradient2867-449-88-871-390-598-476-591-434-148-57-177-641-289-620-227-114-444-680-744-4-8-69-5-4-8-426-2-9-1-4-965-2">
      <stop
         id="stop4036-1"
         style="stop-color:#f4f4f4;stop-opacity:1"
         offset="0" />
      <stop
         id="stop4040-2"
         style="stop-color:#d0d0d0;stop-opacity:1"
         offset="1" />
    </linearGradient>
    <radialGradient
       cx="15.026252"
       cy="8.6257601"
       r="19.99999"
       fx="0.3035326"
       fy="8.625761"
       id="radialGradient4949"
       xlink:href="#linearGradient2867-449-88-871-390-598-476-591-434-148-57-177-641-289-620-227-114-444-680-744-4-8-69-5-4-8-426-2-9-1-4-965-2"
       gradientUnits="userSpaceOnUse"
       gradientTransform="matrix(-4.7487238e-8,0.78037803,-0.73522917,-5.3751304e-8,20.712408,0.1839955)" />
    <radialGradient
       cx="16"
       cy="15.377224"
       r="0.62612247"
       fx="16"
       fy="15.377224"
       id="radialGradient4125-6"
       xlink:href="#linearGradient4119-0"
       gradientUnits="userSpaceOnUse"
       gradientTransform="matrix(0,1.9131623,-1.9131652,0,45.41917,-15.233372)" />
    <linearGradient
       id="linearGradient4119-0">
      <stop
         id="stop4121-2"
         style="stop-color:#ffffff;stop-opacity:1"
         offset="0" />
      <stop
         id="stop4148-9"
         style="stop-color:#afaba5;stop-opacity:1"
         offset="0.53996283" />
      <stop
         id="stop4146-7"
         style="stop-color:#837874;stop-opacity:1"
         offset="0.61988848" />
      <stop
         id="stop4123-5"
         style="stop-color:#b4b2aa;stop-opacity:1"
         offset="1" />
    </linearGradient>
    <linearGradient
       x1="71.204407"
       y1="15.369057"
       x2="71.204407"
       y2="40.495617"
       id="linearGradient3221-8"
       xlink:href="#linearGradient4806-9-3"
       gradientUnits="userSpaceOnUse"
       gradientTransform="matrix(1.1022033,0,0,1.1022038,-7.5861158,-10.16348)" />
    <linearGradient
       id="linearGradient4806-9-3">
      <stop
         id="stop4808-49-1"
         style="stop-color:#ffffff;stop-opacity:1"
         offset="0" />
      <stop
         id="stop4810-05-0"
         style="stop-color:#ffffff;stop-opacity:0.23529412"
         offset="0.42447853" />
      <stop
         id="stop4812-6-2"
         style="stop-color:#ffffff;stop-opacity:0.15686275"
         offset="0.82089913" />
      <stop
         id="stop4814-7-9"
         style="stop-color:#ffffff;stop-opacity:0.39215687"
         offset="1" />
    </linearGradient>
    <radialGradient
       cx="15.026252"
       cy="8.6257601"
       r="19.99999"
       fx="0.3035326"
       fy="8.625761"
       id="radialGradient3228-1"
       xlink:href="#linearGradient2867-449-88-871-390-598-476-591-434-148-57-177-641-289-620-227-114-444-680-744-4-8-69-5-4-8-426-2-9-1-4-965-4"
       gradientUnits="userSpaceOnUse"
       gradientTransform="matrix(-4.7487238e-8,0.78037803,-0.73522917,-5.3751304e-8,78.179235,6.2357099)" />
    <linearGradient
       id="linearGradient2867-449-88-871-390-598-476-591-434-148-57-177-641-289-620-227-114-444-680-744-4-8-69-5-4-8-426-2-9-1-4-965-4">
      <stop
         id="stop4036-8"
         style="stop-color:#f4f4f4;stop-opacity:1"
         offset="0" />
      <stop
         id="stop4040-4"
         style="stop-color:#dadada;stop-opacity:1"
         offset="1" />
    </linearGradient>
    <radialGradient
       cx="99.157013"
       cy="186.17059"
       r="62.769119"
       fx="99.157013"
       fy="186.17059"
       id="radialGradient4277-5"
       xlink:href="#linearGradient3820-7-2-2-0"
       gradientUnits="userSpaceOnUse"
       gradientTransform="matrix(0.17524541,0,0,0.05575992,-1.37681,18.119145)" />
    <linearGradient
       id="linearGradient3820-7-2-2-0">
      <stop
         id="stop3822-2-6-36-5"
         style="stop-color:#3d3d3d;stop-opacity:1"
         offset="0" />
      <stop
         id="stop3864-8-7-6-2"
         style="stop-color:#686868;stop-opacity:0.49803922"
         offset="0.5" />
      <stop
         id="stop3824-1-2-4-7"
         style="stop-color:#686868;stop-opacity:0"
         offset="1" />
    </linearGradient>
    <radialGradient
       cx="99.157013"
       cy="186.17059"
       r="62.769119"
       fx="99.157013"
       fy="186.17059"
       id="radialGradient3070"
       xlink:href="#linearGradient3820-7-2-2-0"
       gradientUnits="userSpaceOnUse"
       gradientTransform="matrix(0.17524541,0,0,0.05575992,54.589824,22.670666)" />
    <radialGradient
       cx="16"
       cy="15.377224"
       r="0.62612247"
       fx="16"
       fy="15.377224"
       id="radialGradient3139"
       xlink:href="#linearGradient4119"
       gradientUnits="userSpaceOnUse"
       gradientTransform="matrix(0,2.2803337,-2.2865228,0,59.160374,-13.099942)" />
    <linearGradient
       x1="71.204407"
       y1="15.369057"
       x2="71.204407"
       y2="40.495617"
       id="linearGradient3024"
       xlink:href="#linearGradient4806-9"
       gradientUnits="userSpaceOnUse"
       gradientTransform="matrix(1.1022033,0,0,1.1022038,65.44725,-84.215334)" />
    <radialGradient
       cx="23.896"
       cy="3.99"
       r="20.396999"
       fx="23.896"
       fy="3.99"
       id="radialGradient3412"
       xlink:href="#radialGradient3093-0-3-6-6"
       gradientUnits="userSpaceOnUse"
       gradientTransform="matrix(0,2.0431009,-2.6968569,0,155.76073,-117.12315)" />
    <radialGradient
       cx="23.896"
       cy="3.99"
       r="20.396999"
       id="radialGradient3093-0-3-6-6"
       gradientUnits="userSpaceOnUse"
       gradientTransform="matrix(0,1.2316483,-1.625754,0,18.486966,-28.721977)">
      <stop
         id="stop3244-9-33-7-0-9"
         style="stop-color:#ffffff;stop-opacity:1"
         offset="0" />
      <stop
         id="stop3246-3-5-0-8-5"
         style="stop-color:#dddddd;stop-opacity:1"
         offset="0.26238" />
      <stop
         id="stop3248-1-7-8-8-1"
         style="stop-color:#abacae;stop-opacity:1"
         offset="0.66093999" />
      <stop
         id="stop3250-9-3-0-5-1"
         style="stop-color:#89898b;stop-opacity:1"
         offset="1" />
    </radialGradient>
    <radialGradient
       cx="99.157013"
       cy="186.17059"
       r="62.769119"
       fx="99.157013"
       fy="186.17059"
       id="radialGradient3034"
       xlink:href="#linearGradient3820-7-2-2"
       gradientUnits="userSpaceOnUse"
       gradientTransform="matrix(0.17524541,0,0,0.05575992,127.62319,-51.381188)" />
  </defs>
  <metadata
     id="metadata4284">
    <rdf:RDF>
      <cc:Work
         rdf:about="">
        <dc:format>image/svg+xml</dc:format>
        <dc:type
           rdf:resource="http://purl.org/dc/dcmitype/StillImage" />
        <dc:title />
      </cc:Work>
    </rdf:RDF>
  </metadata>
  <path
     style="fill:url(#radialGradient4277);fill-opacity:1;stroke:none"
     id="path3818-0-2"
     d="m 39,42.226722 a 15,4.7727271 0 1 1 -29.9999998,0 15,4.7727271 0 1 1 29.9999998,0 z" />
  <path
     style="color:#000000;display:inline;overflow:visible;visibility:visible;fill:url(#radialGradient3228);fill-opacity:1;fill-rule:nonzero;stroke:none;stroke-width:1;marker:none;enable-background:accumulate"
     id="path2555-7-65"
     d="M 24,3.5 C 12.688808,3.5 3.5,12.688807 3.5,24 3.5,35.311192 12.688808,44.500003 24,44.5 35.311191,44.5 44.500007,35.311192 44.5,24 44.5,12.688807 35.311191,3.5 24,3.5 Z" />
  <path
     style="color:#000000;display:inline;overflow:visible;visibility:visible;opacity:0.3;fill:none;stroke:#000000;stroke-width:0.99999994;stroke-linecap:round;stroke-linejoin:round;stroke-miterlimit:4;stroke-dasharray:none;stroke-dashoffset:0;stroke-opacity:1;marker:none;enable-background:accumulate"
     id="path2555-7-1-7"
     d="M 24,3.5 C 12.688807,3.5 3.5,12.688805 3.5,23.999998 3.5,35.311193 12.688807,44.500004 24,44.5 35.311193,44.5 44.500014,35.311193 44.5,23.999998 44.5,12.688805 35.311193,3.5 24,3.5 Z" />
  <g
     id="g3476"
     transform="matrix(1.5714286,0,0,1.5714286,11.428571,12.428571)"
     style="fill:#ffffff;fill-opacity:1;opacity:0.35">
    <g
       transform="translate(-293.0002,-170)"
       style="display:inline;fill:#ffffff;fill-opacity:1"
       label="status"
       id="layer9" />
    <g
       transform="translate(-293.0002,-170)"
       style="display:inline;fill:#ffffff;fill-opacity:1"
       id="layer10" />
    <g
       transform="translate(-293.0002,-170)"
       style="display:inline;fill:#ffffff;fill-opacity:1"
       id="layer13" />
    <g
       transform="translate(-293.0002,-170)"
       id="layer14"
       style="fill:#ffffff;fill-opacity:1" />
    <g
       transform="translate(-293.0002,-170)"
       style="display:inline;fill:#ffffff;fill-opacity:1"
       id="layer15-4" />
    <g
       transform="translate(-293.0002,-170)"
       style="display:inline;fill:#ffffff;fill-opacity:1"
       id="g71291" />
    <g
       transform="translate(-293.0002,-170)"
       style="display:inline;fill:#ffffff;fill-opacity:1"
       id="layer12">
      <path
         style="color:#000000;font-style:normal;font-variant:normal;font-weight:normal;font-stretch:normal;font-size:medium;line-height:normal;font-family:Sans;-inkscape-font-specification:Sans;text-indent:0;text-align:start;text-decoration:none;text-decoration-line:none;letter-spacing:normal;word-spacing:normal;text-transform:none;direction:ltr;block-progression:tb;writing-mode:lr-tb;baseline-shift:baseline;text-anchor:start;display:block;overflow:visible;visibility:visible;fill:#ffffff;fill-opacity:1;fill-rule:nonzero;stroke:none;stroke-width:0.99999994;marker:none;enable-background:accumulate"
         id="path14681"
         d="m 300.09112,171.63637 c 0,0.48295 0,0.96591 0,1.44886 -0.67196,0.19366 -1.3256,0.44423 -1.93182,0.79546 -0.34987,-0.32221 -0.68857,-0.65593 -1.02273,-0.99432 -0.41666,0.41666 -0.83334,0.83333 -1.25,1.25 0.33841,0.33414 0.67213,0.67284 0.99432,1.02272 -0.3514,0.60615 -0.60162,1.2599 -0.79546,1.93182 -0.48295,0 -0.96591,0 -1.44886,0 0,0.60607 0,1.21212 0,1.81818 0.48295,0 0.96591,0 1.44886,0 0.19367,0.67196 0.44423,1.3256 0.79546,1.93182 -0.32221,0.34987 -0.65593,0.68857 -0.99432,1.02273 0.41666,0.41666 0.83334,0.83334 1.25,1.25 0.33415,-0.33841 0.67285,-0.67213 1.02273,-0.99432 0.60614,0.3514 1.2599,0.60162 1.93182,0.79546 0,0.48295 0,0.96591 0,1.44886 0.60606,0 1.21211,0 1.81818,0 0,-0.48295 0,-0.96591 0,-1.44886 0.67195,-0.19367 1.3256,-0.44423 1.93182,-0.79546 0.34986,0.32221 0.68856,0.65593 1.02272,0.99432 0.41667,-0.41666 0.83334,-0.83334 1.25,-1.25 -0.33841,-0.33415 -0.67212,-0.67285 -0.99432,-1.02273 0.3514,-0.60614 0.60162,-1.2599 0.79546,-1.93182 0.48295,0 0.96591,0 1.44886,0 0,-0.60606 0,-1.21211 0,-1.81818 -0.48295,0 -0.96591,0 -1.44886,0 -0.19366,-0.67195 -0.44423,-1.3256 -0.79546,-1.93182 0.32221,-0.34986 0.65593,-0.68856 0.99432,-1.02272 -0.41666,-0.41667 -0.83333,-0.83334 -1.25,-1.25 -0.33414,0.33841 -0.67284,0.67212 -1.02272,0.99432 -0.60615,-0.3514 -1.2599,-0.60162 -1.93182,-0.79546 0,-0.48295 0,-0.96591 0,-1.44886 -0.60607,0 -1.21212,0 -1.81818,0 z m 0.90909,4.14772 c 1.31114,-0.0434 2.43194,1.26459 2.19041,2.55373 -0.15737,1.29917 -1.61365,2.20628 -2.84994,1.7786 -1.25888,-0.34899 -1.94002,-1.91898 -1.33814,-3.07778 0.35533,-0.75607 1.16147,-1.26446 1.99767,-1.25455 z" />
    </g>
  </g>
  <path
     style="color:#000000;display:inline;overflow:visible;visibility:visible;fill:none;stroke:url(#linearGradient3221);stroke-width:0.99999994;stroke-linecap:round;stroke-linejoin:round;stroke-miterlimit:4;stroke-dasharray:none;stroke-dashoffset:0;stroke-opacity:1;marker:none;enable-background:accumulate;opacity:0.6"
     id="path3421"
     d="m 43.499999,23.999999 c 0,10.769554 -8.730468,19.5 -19.5,19.5 -10.769532,0 -19.4999991,-8.730446 -19.4999991,-19.5 C 4.4999999,13.230449 13.230467,4.5 23.999999,4.5 c 10.769532,0 19.5,8.730449 19.5,19.499999 z" />
  <g
     style="fill:#323232;fill-opacity:0.58431373"
     transform="matrix(1.5714286,0,0,1.5714286,11.428571,11.428571)"
     id="g4334">
    <g
       id="g4336"
       label="status"
       style="display:inline;fill:#323232;fill-opacity:0.58431373"
       transform="translate(-293.0002,-170)" />
    <g
       id="g4338"
       style="display:inline;fill:#323232;fill-opacity:0.58431373"
       transform="translate(-293.0002,-170)" />
    <g
       id="g4340"
       style="display:inline;fill:#323232;fill-opacity:0.58431373"
       transform="translate(-293.0002,-170)" />
    <g
       style="fill:#323232;fill-opacity:0.58431373"
       id="g4342"
       transform="translate(-293.0002,-170)" />
    <g
       id="g4344"
       style="display:inline;fill:#323232;fill-opacity:0.58431373"
       transform="translate(-293.0002,-170)" />
    <g
       id="g4346"
       style="display:inline;fill:#323232;fill-opacity:0.58431373"
       transform="translate(-293.0002,-170)" />
    <g
       id="g4348"
       style="display:inline;fill:#323232;fill-opacity:0.58431373"
       transform="translate(-293.0002,-170)">
      <path
         d="m 300.09112,171.63637 c 0,0.48295 0,0.96591 0,1.44886 -0.67196,0.19366 -1.3256,0.44423 -1.93182,0.79546 -0.34987,-0.32221 -0.68857,-0.65593 -1.02273,-0.99432 -0.41666,0.41666 -0.83334,0.83333 -1.25,1.25 0.33841,0.33414 0.67213,0.67284 0.99432,1.02272 -0.3514,0.60615 -0.60162,1.2599 -0.79546,1.93182 -0.48295,0 -0.96591,0 -1.44886,0 0,0.60607 0,1.21212 0,1.81818 0.48295,0 0.96591,0 1.44886,0 0.19367,0.67196 0.44423,1.3256 0.79546,1.93182 -0.32221,0.34987 -0.65593,0.68857 -0.99432,1.02273 0.41666,0.41666 0.83334,0.83334 1.25,1.25 0.33415,-0.33841 0.67285,-0.67213 1.02273,-0.99432 0.60614,0.3514 1.2599,0.60162 1.93182,0.79546 0,0.48295 0,0.96591 0,1.44886 0.60606,0 1.21211,0 1.81818,0 0,-0.48295 0,-0.96591 0,-1.44886 0.67195,-0.19367 1.3256,-0.44423 1.93182,-0.79546 0.34986,0.32221 0.68856,0.65593 1.02272,0.99432 0.41667,-0.41666 0.83334,-0.83334 1.25,-1.25 -0.33841,-0.33415 -0.67212,-0.67285 -0.99432,-1.02273 0.3514,-0.60614 0.60162,-1.2599 0.79546,-1.93182 0.48295,0 0.96591,0 1.44886,0 0,-0.60606 0,-1.21211 0,-1.81818 -0.48295,0 -0.96591,0 -1.44886,0 -0.19366,-0.67195 -0.44423,-1.3256 -0.79546,-1.93182 0.32221,-0.34986 0.65593,-0.68856 0.99432,-1.02272 -0.41666,-0.41667 -0.83333,-0.83334 -1.25,-1.25 -0.33414,0.33841 -0.67284,0.67212 -1.02272,0.99432 -0.60615,-0.3514 -1.2599,-0.60162 -1.93182,-0.79546 0,-0.48295 0,-0.96591 0,-1.44886 -0.60607,0 -1.21212,0 -1.81818,0 z m 0.90909,4.14772 c 1.31114,-0.0434 2.43194,1.26459 2.19041,2.55373 -0.15737,1.29917 -1.61365,2.20628 -2.84994,1.7786 -1.25888,-0.34899 -1.94002,-1.91898 -1.33814,-3.07778 0.35533,-0.75607 1.16147,-1.26446 1.99767,-1.25455 z"
         id="path4350"
         style="color:#000000;font-style:normal;font-variant:normal;font-weight:normal;font-stretch:normal;font-size:medium;line-height:normal;font-family:Sans;-inkscape-font-specification:Sans;text-indent:0;text-align:start;text-decoration:none;text-decoration-line:none;letter-spacing:normal;word-spacing:normal;text-transform:none;direction:ltr;block-progression:tb;writing-mode:lr-tb;baseline-shift:baseline;text-anchor:start;display:block;overflow:visible;visibility:visible;fill:#323232;fill-opacity:0.58431373;fill-rule:nonzero;stroke:none;stroke-width:0.99999994;marker:none;enable-background:accumulate" />
    </g>
  </g>
</svg>
