<?xml version="1.0" encoding="UTF-8" standalone="no"?>
<!-- Created with Inkscape (http://www.inkscape.org/) -->

<svg
   xmlns:dc="http://purl.org/dc/elements/1.1/"
   xmlns:cc="http://creativecommons.org/ns#"
   xmlns:rdf="http://www.w3.org/1999/02/22-rdf-syntax-ns#"
   xmlns:svg="http://www.w3.org/2000/svg"
   xmlns="http://www.w3.org/2000/svg"
   xmlns:xlink="http://www.w3.org/1999/xlink"
   xmlns:sodipodi="http://sodipodi.sourceforge.net/DTD/sodipodi-0.dtd"
   xmlns:inkscape="http://www.inkscape.org/namespaces/inkscape"
   version="1.1"
   width="48"
   height="48"
   id="svg4061"
   inkscape:version="0.91+devel+osxmenu r12898"
   sodipodi:docname="preferences-system-parental-controls.svg">
  <sodipodi:namedview
     pagecolor="#ffffff"
     bordercolor="#666666"
     borderopacity="1"
     objecttolerance="10"
     gridtolerance="10"
     guidetolerance="10"
     inkscape:pageopacity="0"
     inkscape:pageshadow="2"
     inkscape:window-width="1920"
     inkscape:window-height="970"
     id="namedview22862"
     showgrid="false"
     inkscape:zoom="1"
     inkscape:cx="-0.045241779"
     inkscape:cy="17.772773"
     inkscape:window-x="0"
     inkscape:window-y="23"
     inkscape:window-maximized="0"
     inkscape:current-layer="svg4061"
     inkscape:object-paths="true"
     inkscape:snap-intersection-paths="true"
     inkscape:object-nodes="true"
     inkscape:snap-smooth-nodes="true"
     inkscape:snap-bbox="true"
     inkscape:snap-midpoints="true">
    <inkscape:grid
       type="xygrid"
       id="grid23436" />
  </sodipodi:namedview>
  <defs
     id="defs4063">
    <linearGradient
       x1="71.204407"
       y1="15.369057"
       x2="71.204407"
       y2="40.495617"
       id="linearGradient3177"
       xlink:href="#linearGradient4806-2"
       gradientUnits="userSpaceOnUse"
       gradientTransform="matrix(1.6169806,0,0,1.6169806,-92.707374,-21.060237)" />
    <linearGradient
       id="linearGradient4806-2">
      <stop
         id="stop4808-4"
         style="stop-color:#ffffff;stop-opacity:1"
         offset="0" />
      <stop
         id="stop4810-0"
         style="stop-color:#ffffff;stop-opacity:0.23529412"
         offset="0.42447853" />
      <stop
         id="stop4812-8"
         style="stop-color:#ffffff;stop-opacity:0.15686275"
         offset="0.82089913" />
      <stop
         id="stop4814-0"
         style="stop-color:#ffffff;stop-opacity:0.39215687"
         offset="1" />
    </linearGradient>
    <radialGradient
       cx="15.026252"
       cy="8.6257601"
       r="19.99999"
       fx="4.4589653"
       fy="8.5088921"
       id="radialGradient4013"
       xlink:href="#linearGradient3846"
       gradientUnits="userSpaceOnUse"
       gradientTransform="matrix(-3.4973212e-8,1.8854921,-1.7764068,-5.4722636e-8,39.140041,-7.993163)" />
    <linearGradient
       id="linearGradient3846">
      <stop
         id="stop3848"
         style="stop-color:#fff3cb;stop-opacity:1"
         offset="0" />
      <stop
         id="stop3850"
         style="stop-color:#fdde76;stop-opacity:1"
         offset="0.26238" />
      <stop
         id="stop3852"
         style="stop-color:#f9c440;stop-opacity:1"
         offset="0.66093999" />
      <stop
         id="stop3854"
         style="stop-color:#e48b20;stop-opacity:1"
         offset="1" />
    </linearGradient>
    <radialGradient
       cx="23.896"
       cy="3.99"
       r="20.396999"
       fx="23.896"
       fy="3.99"
       id="radialGradient4201"
       xlink:href="#radialGradient3093-0-3-6-6"
       gradientUnits="userSpaceOnUse"
       gradientTransform="matrix(0,2.8885219,-3.8127977,0,39.21344,-65.949504)" />
    <radialGradient
       cx="23.896"
       cy="3.99"
       r="20.396999"
       id="radialGradient3093-0-3-6-6"
       gradientUnits="userSpaceOnUse"
       gradientTransform="matrix(0,1.2316483,-1.625754,0,18.486966,-28.721977)">
      <stop
         id="stop3244-9-33-7-0-9"
         style="stop-color:#ffffff;stop-opacity:1"
         offset="0" />
      <stop
         id="stop3246-3-5-0-8-5"
         style="stop-color:#dddddd;stop-opacity:1"
         offset="0.26238" />
      <stop
         id="stop3248-1-7-8-8-1"
         style="stop-color:#abacae;stop-opacity:1"
         offset="0.66093999" />
      <stop
         id="stop3250-9-3-0-5-1"
         style="stop-color:#89898b;stop-opacity:1"
         offset="1" />
    </radialGradient>
    <linearGradient
       id="linearGradient3820-7-2-1">
      <stop
         id="stop3822-2-6-3"
         style="stop-color:#3d3d3d;stop-opacity:1"
         offset="0" />
      <stop
         id="stop3864-8-7-7"
         style="stop-color:#686868;stop-opacity:0.49803922"
         offset="0.5" />
      <stop
         id="stop3824-1-2-5"
         style="stop-color:#686868;stop-opacity:0"
         offset="1" />
    </linearGradient>
    <radialGradient
       cx="99.157013"
       cy="186.17059"
       r="62.769119"
       fx="99.157013"
       fy="186.17059"
       id="radialGradient4059"
       xlink:href="#linearGradient3820-7-2-1"
       gradientUnits="userSpaceOnUse"
       gradientTransform="matrix(0.27083381,0,0,0.08762273,-2.85507,25.187228)" />
  </defs>
  <metadata
     id="metadata4066">
    <rdf:RDF>
      <cc:Work
         rdf:about="">
        <dc:format>image/svg+xml</dc:format>
        <dc:type
           rdf:resource="http://purl.org/dc/dcmitype/StillImage" />
        <dc:title />
      </cc:Work>
    </rdf:RDF>
  </metadata>
  <path
     style="fill:url(#radialGradient4059);fill-opacity:1;stroke:none"
     id="path3818-0-5"
     inkscape:connector-curvature="0"
     d="m 41,41.5 a 17,5.4999999 0 0 1 -34,0 17,5.4999999 0 1 1 34,0 z" />
  <path
     style="color:#000000;display:inline;overflow:visible;visibility:visible;fill:url(#radialGradient4201);fill-opacity:1;fill-rule:nonzero;stroke:none;stroke-width:0.99999994;marker:none;enable-background:accumulate"
     id="path2555-7-2"
     inkscape:connector-curvature="0"
     d="M 24,3.5000009 C 12.68881,3.5000009 3.5,12.688807 3.5,24 3.5,35.311193 12.68881,44.500003 24,44.5 35.31119,44.5 44.50001,35.311193 44.5,24 44.5,12.688807 35.31119,3.5000009 24,3.5000009 Z" />
  <path
     style="color:#000000;display:inline;overflow:visible;visibility:visible;fill:url(#radialGradient4013);fill-opacity:1;fill-rule:nonzero;stroke:none;stroke-width:1;marker:none;enable-background:accumulate"
     id="path2555-7-65"
     inkscape:connector-curvature="0"
     d="M 24,3.5000003 C 12.688809,3.5000003 3.5000005,12.688809 3.5000005,24 3.5000005,35.311193 12.688809,44.500004 24,44.500001 35.311191,44.500001 44.500008,35.311193 44.500001,24 44.500001,12.688809 35.311191,3.5000004 24,3.5000004 Z" />
  <path
     style="color:#000000;display:inline;overflow:visible;visibility:visible;opacity:0.8;fill:none;stroke:url(#linearGradient3177);stroke-width:1;stroke-linecap:round;stroke-linejoin:round;stroke-miterlimit:4;stroke-dasharray:none;stroke-dashoffset:0;stroke-opacity:1;marker:none;enable-background:accumulate"
     id="path4176"
     inkscape:connector-curvature="0"
     d="M 43.5,24.000001 C 43.5,34.76955 34.76954,43.5 23.99999,43.5 13.23045,43.5 4.5,34.76955 4.5,24.000001 4.5,13.23045 13.23045,4.5000019 23.99999,4.5000019 34.76954,4.5000019 43.5,13.23045 43.5,24.000001 Z" />
  <path
     style="color:#000000;display:inline;overflow:visible;visibility:visible;opacity:0.5;fill:none;stroke:#985800;stroke-width:0.99999988;stroke-linecap:round;stroke-linejoin:round;stroke-miterlimit:4;stroke-dasharray:none;stroke-dashoffset:0;stroke-opacity:1;marker:none;enable-background:accumulate"
     id="path2555-7-1-7"
     inkscape:connector-curvature="0"
     d="m 24,3.500115 c -11.31113,0 -20.499885,9.188754 -20.499885,20.499884 0,11.311131 9.188755,20.499891 20.499885,20.499887 11.31113,0 20.4999,-9.188756 20.499886,-20.499887 C 44.499886,12.688869 35.31113,3.5001149 24,3.5001149 Z" />
  <path
     sodipodi:nodetypes="sssssssccccccsssccsssccccccsssccsssccccscccccccsssssss"
     inkscape:connector-curvature="0"
     id="path24877"
     d="M 20.5,14 C 19.115,14 18,15.115 18,16.5 18,17.885 19.115,19 20.5,19 21.885,19 23,17.885 23,16.5 23,15.115 21.885,14 20.5,14 Z M 20,20.029297 c -1.125,0 -1.854473,0.291973 -2.28125,0.71875 -0.213388,0.213388 -0.335565,0.4481 -0.398438,0.636719 -0.01929,0.05788 -0.01132,0.06655 -0.02148,0.121093 l -2.974609,6.167969 c -0.434896,0.901041 0.916666,1.553385 1.351562,0.652344 L 18,23.505859 18,29 18,35.951172 C 18,36.532434 18.446,37 19,37 c 0.554,0 1,-0.467566 1,-1.048828 L 20,29 l 1,0 0,7 c 0,0.554 0.446,1 1,1 0.554,0 1,-0.446 1,-1 l 0,-9 0,-3.494141 2.324219,4.820313 c 0.18088,0.373605 0.630713,0.529383 1.003906,0.347656 L 28,29.359375 28,33 l 0,3.5 c 0,0.277 0.223,0.5 0.5,0.5 0.277,0 0.5,-0.223 0.5,-0.5 l 0,-3.5 1,0 0,3.5 c 0,0.277 0.223,0.5 0.5,0.5 0.277,0 0.5,-0.223 0.5,-0.5 l 0,-5 0,-1.238281 1.607422,2.046875 c 0.404581,0.574978 1.248321,-0.08826 0.785156,-0.617188 l -2.353516,-3 C 30.944454,28.570808 30.799763,28.500262 30.646484,28.5 l -2.105468,0 -1.835938,-0.751953 c -0.0084,-0.02524 -0.01822,-0.05002 -0.0293,-0.07422 l -2.974609,-6.167969 c -0.01017,-0.05455 -0.0022,-0.06321 -0.02148,-0.121093 -0.06287,-0.188619 -0.18505,-0.423331 -0.398438,-0.636719 C 22.854468,20.321225 22.125,20.029297 21,20.029297 Z M 29.5,23.75 c -0.965176,0 -1.75,0.784824 -1.75,1.75 0,0.965176 0.784824,1.75 1.75,1.75 0.965176,0 1.75,-0.784824 1.75,-1.75 0,-0.965176 -0.784824,-1.75 -1.75,-1.75 z"
     style="opacity:0.1;fill:#ffffff;fill-opacity:1;stroke:none;stroke-width:0.5;stroke-linecap:round;stroke-linejoin:miter;stroke-miterlimit:4;stroke-dasharray:none;stroke-dashoffset:0;stroke-opacity:1" />
  <path
     style="opacity:1;fill:#333333;fill-opacity:1;stroke:none;stroke-width:0.5;stroke-linecap:round;stroke-linejoin:miter;stroke-miterlimit:4;stroke-dasharray:none;stroke-dashoffset:0;stroke-opacity:1"
     d="M 20.5,13 C 19.115,13 18,14.115 18,15.5 18,16.885 19.115,18 20.5,18 21.885,18 23,16.885 23,15.5 23,14.115 21.885,13 20.5,13 Z M 20,19.029297 c -1.125,0 -1.854473,0.291973 -2.28125,0.71875 -0.213388,0.213388 -0.335565,0.4481 -0.398438,0.636719 -0.01929,0.05788 -0.01132,0.06655 -0.02148,0.121093 l -2.974609,6.167969 c -0.434896,0.901041 0.916666,1.553385 1.351562,0.652344 L 18,22.505859 18,28 18,34.951172 C 18,35.532434 18.446,36 19,36 c 0.554,0 1,-0.467566 1,-1.048828 L 20,28 l 1,0 0,7 c 0,0.554 0.446,1 1,1 0.554,0 1,-0.446 1,-1 l 0,-9 0,-3.494141 2.324219,4.820313 c 0.18088,0.373605 0.630713,0.529383 1.003906,0.347656 L 28,28.359375 28,32 l 0,3.5 c 0,0.277 0.223,0.5 0.5,0.5 0.277,0 0.5,-0.223 0.5,-0.5 l 0,-3.5 1,0 0,3.5 c 0,0.277 0.223,0.5 0.5,0.5 0.277,0 0.5,-0.223 0.5,-0.5 l 0,-5 0,-1.238281 1.607422,2.046875 c 0.404581,0.574978 1.248321,-0.08826 0.785156,-0.617188 l -2.353516,-3 C 30.944454,27.570808 30.799763,27.500262 30.646484,27.5 l -2.105468,0 -1.835938,-0.751953 c -0.0084,-0.02524 -0.01822,-0.05002 -0.0293,-0.07422 l -2.974609,-6.167969 c -0.01017,-0.05455 -0.0022,-0.06321 -0.02148,-0.121093 -0.06287,-0.188619 -0.18505,-0.423331 -0.398438,-0.636719 C 22.854468,19.321225 22.125,19.029297 21,19.029297 Z M 29.5,22.75 c -0.965176,0 -1.75,0.784824 -1.75,1.75 0,0.965176 0.784824,1.75 1.75,1.75 0.965176,0 1.75,-0.784824 1.75,-1.75 0,-0.965176 -0.784824,-1.75 -1.75,-1.75 z"
     id="rect24843"
     inkscape:connector-curvature="0"
     sodipodi:nodetypes="sssssssccccccsssccsssccccccsssccsssccccscccccccsssssss" />
</svg>
