<?xml version="1.0" encoding="UTF-8" standalone="no"?>
<svg
   id="svg4279"
   height="48"
   width="48"
   version="1.1"
   xmlns:xlink="http://www.w3.org/1999/xlink"
   xmlns="http://www.w3.org/2000/svg"
   xmlns:svg="http://www.w3.org/2000/svg"
   xmlns:rdf="http://www.w3.org/1999/02/22-rdf-syntax-ns#"
   xmlns:cc="http://creativecommons.org/ns#"
   xmlns:dc="http://purl.org/dc/elements/1.1/">
  <defs
     id="defs4281">
    <linearGradient
       gradientTransform="matrix(1.5920714,0,0,1.5920721,-90.909525,-20.366112)"
       gradientUnits="userSpaceOnUse"
       xlink:href="#linearGradient4806-9"
       id="linearGradient3221"
       y2="40.495617"
       x2="71.204407"
       y1="15.369057"
       x1="71.204407" />
    <linearGradient
       id="linearGradient4806-9">
      <stop
         offset="0"
         style="stop-color:#ffffff;stop-opacity:1"
         id="stop4808-49" />
      <stop
         offset="0.42447853"
         style="stop-color:#ffffff;stop-opacity:0.23529412"
         id="stop4810-05" />
      <stop
         offset="0.82089913"
         style="stop-color:#ffffff;stop-opacity:0.15686275"
         id="stop4812-6" />
      <stop
         offset="1"
         style="stop-color:#ffffff;stop-opacity:0.39215687"
         id="stop4814-7" />
    </linearGradient>
    <linearGradient
       id="linearGradient3820-7-2-2">
      <stop
         offset="0"
         style="stop-color:#3d3d3d;stop-opacity:1"
         id="stop3822-2-6-36" />
      <stop
         offset="0.5"
         style="stop-color:#686868;stop-opacity:0.49803922"
         id="stop3864-8-7-6" />
      <stop
         offset="1"
         style="stop-color:#686868;stop-opacity:0"
         id="stop3824-1-2-4" />
    </linearGradient>
    <radialGradient
       gradientTransform="matrix(0.23897101,0,0,0.07603625,0.30434835,28.071012)"
       gradientUnits="userSpaceOnUse"
       xlink:href="#linearGradient3820-7-2-2"
       id="radialGradient4277"
       fy="186.17059"
       fx="99.157013"
       r="62.769119"
       cy="186.17059"
       cx="99.157013" />
    <linearGradient
       id="linearGradient149777">
      <stop
         style="stop-color:#fafafa;stop-opacity:1"
         offset="0"
         id="stop149769" />
      <stop
         style="stop-color:#abacae;stop-opacity:1"
         offset="0.42301154"
         id="stop149771" />
      <stop
         style="stop-color:#d4d4d4;stop-opacity:1"
         offset="0.7009123"
         id="stop149773" />
      <stop
         style="stop-color:#7e8087;stop-opacity:1"
         offset="1"
         id="stop149775" />
    </linearGradient>
    <linearGradient
       xlink:href="#linearGradient149777"
       id="linearGradient2763-7-1"
       gradientUnits="userSpaceOnUse"
       gradientTransform="matrix(0.70000045,0,0,0.70000045,-36.200037,-109.00019)"
       x1="74.881271"
       y1="172.83885"
       x2="97.295143"
       y2="207.14944"
       spreadMethod="reflect" />
    <linearGradient
       xlink:href="#linearGradient55160-3"
       id="linearGradient3"
       gradientUnits="userSpaceOnUse"
       x1="23.528315"
       y1="6.08318"
       x2="23.528315"
       y2="44.23307" />
    <linearGradient
       id="linearGradient55160-3">
      <stop
         style="stop-color:#4d4d4d;stop-opacity:1"
         offset="0"
         id="stop55156-5" />
      <stop
         style="stop-color:#1a1a1a;stop-opacity:1"
         offset="1"
         id="stop55158-6" />
    </linearGradient>
  </defs>
  <metadata
     id="metadata4284">
    <rdf:RDF>
      <cc:Work
         rdf:about="">
        <dc:format>image/svg+xml</dc:format>
        <dc:type
           rdf:resource="http://purl.org/dc/dcmitype/StillImage" />
      </cc:Work>
    </rdf:RDF>
  </metadata>
  <path
     d="m 39,42.226722 a 15,4.7727271 0 1 1 -29.9999998,0 15,4.7727271 0 1 1 29.9999998,0 z"
     id="path3818-0-2"
     style="fill:url(#radialGradient4277);fill-opacity:1;stroke:none" />
  <path
     d="M 24,3.5 C 12.688807,3.5 3.5,12.688805 3.5,23.999998 3.5,35.311193 12.688807,44.500004 24,44.5 35.311193,44.5 44.500014,35.311193 44.5,23.999998 44.5,12.688805 35.311193,3.5 24,3.5 Z"
     id="path2555-7-1-7"
     style="color:#000000;display:inline;overflow:visible;visibility:visible;opacity:1;fill:url(#linearGradient3);stroke:#000000;stroke-width:1;stroke-linecap:butt;stroke-linejoin:miter;stroke-miterlimit:4;stroke-dasharray:none;stroke-dashoffset:0;stroke-opacity:0.5;marker:none;enable-background:accumulate;clip-rule:nonzero;isolation:auto;mix-blend-mode:normal;color-interpolation:sRGB;color-interpolation-filters:linearRGB;solid-color:#000000;solid-opacity:1;fill-opacity:1;fill-rule:nonzero;filter-blend-mode:normal;filter-gaussianBlur-deviation:0;color-rendering:auto;image-rendering:auto;shape-rendering:auto;text-rendering:auto;font-variation-settings:normal;vector-effect:none;-inkscape-stroke:none;stop-color:#000000;stop-opacity:1" />
  <path
     id="rect48996-8-9-6-9-9-3-10-4"
     style="font-variation-settings:normal;fill:#000000;fill-opacity:1;stroke:none;stroke-width:0.999997;stroke-linecap:round;stroke-linejoin:round;stroke-miterlimit:4;stroke-dasharray:none;stroke-dashoffset:0;stroke-opacity:0.5;stop-color:#000000;opacity:0.3;vector-effect:none;-inkscape-stroke:none;stop-opacity:1"
     d="m 23.3,11 c -0.3878,0 -0.7,1.2488 -0.7,2.80001 v 0.0998 a 11.200007,11.200007 0 0 0 -1.55449,0.31035 l -0.0383,-0.093 C 20.41359,12.68404 19.64693,11.65001 19.28865,11.7984 l -1.29336,0.53458 c -0.35828,0.1484 -0.16842,1.42157 0.42519,2.85469 l 0.0438,0.10664 a 11.200007,11.200007 0 0 0 -1.31249,0.87773 l -0.082,-0.082 c -1.09688,-1.09687 -2.2004,-1.75899 -2.47462,-1.48477 l -0.98985,0.98984 c -0.27421,0.27422 0.3879,1.37775 1.48477,2.47461 l 0.082,0.082 a 11.200007,11.200007 0 0 0 -0.87774,1.3125 l -0.10664,-0.0438 c -1.43313,-0.59362 -2.70629,-0.78348 -2.8547,-0.42519 l -0.53457,1.29336 c -0.1484,0.35828 0.88564,1.12493 2.31876,1.71855 l 0.093,0.0383 a 11.200007,11.200007 0 0 0 -0.3104,1.55458 H 12.8 c -1.5512,0 -2.8,0.3122 -2.8,0.7 v 1.4 c 0,0.3878 1.2488,0.7 2.8,0.7 h 0.0998 a 11.200007,11.200007 0 0 0 0.31035,1.55449 l -0.093,0.0383 C 11.68404,28.58643 10.65,29.35309 10.7984,29.71137 l 0.53458,1.29335 c 0.1484,0.35829 1.42157,0.16843 2.85468,-0.42519 l 0.10665,-0.0438 a 11.200007,11.200007 0 0 0 0.87773,1.3125 l -0.082,0.082 c -1.09686,1.09687 -1.75898,2.2004 -1.48477,2.47461 l 0.98985,0.98985 c 0.27422,0.27422 1.37774,-0.38791 2.47461,-1.48477 l 0.082,-0.082 a 11.200007,11.200007 0 0 0 1.3125,0.87773 l -0.0438,0.10665 c -0.59362,1.43312 -0.78347,2.70628 -0.4252,2.85469 l 1.29336,0.53457 c 0.35829,0.1484 1.12494,-0.88564 1.71856,-2.31875 l 0.0383,-0.093 a 11.200007,11.200007 0 0 0 1.55449,0.31034 v 0.09987 c 0,1.55121 0.3122,2.80001 0.7,2.80001 h 1.4 c 0.3878,0 0.7,-1.2488 0.7,-2.80001 v -0.0998 a 11.200007,11.200007 0 0 0 1.55449,-0.31035 l 0.0383,0.093 c 0.59362,1.43312 1.36027,2.46715 1.71856,2.31876 l 1.29336,-0.53458 c 0.35828,-0.1484 0.16842,-1.42157 -0.4252,-2.85469 l -0.0438,-0.10664 a 11.200007,11.200007 0 0 0 1.3125,-0.87773 l 0.082,0.082 c 1.09685,1.09686 2.20039,1.75898 2.4746,1.48476 l 0.98985,-0.98984 c 0.27422,-0.27422 -0.3879,-1.37775 -1.48476,-2.47462 l -0.082,-0.082 a 11.200007,11.200007 0 0 0 0.87773,-1.3125 l 0.10665,0.0438 c 1.43311,0.59363 2.70628,0.78349 2.85468,0.4252 l 0.53457,-1.29336 c 0.1484,-0.35828 -0.88565,-1.12493 -2.31875,-1.71856 l -0.093,-0.0383 A 11.200007,11.200007 0 0 0 35.1002,26.40002 H 35.2 c 1.5512,0 2.8,-0.3122 2.8,-0.7 v -1.4 c 0,-0.3878 -1.2488,-0.7 -2.8,-0.7 h -0.0916 a 11.200007,11.200007 0 0 0 -0.31035,-1.55723 l 0.0848,-0.0356 c 1.43311,-0.59362 2.46715,-1.36028 2.31876,-1.71856 l -0.53458,-1.29331 c -0.1484,-0.35828 -1.42157,-0.16843 -2.85468,0.42519 l -0.0834,0.0342 a 11.200007,11.200007 0 0 0 -0.88322,-1.3207 l 0.0643,-0.0643 c 1.09686,-1.09686 1.75898,-2.20039 1.48476,-2.47461 l -0.98986,-0.98984 c -0.27422,-0.27422 -1.37774,0.3879 -2.47461,1.48476 l -0.0643,0.0643 a 11.200007,11.200007 0 0 0 -1.3207,-0.8832 l 0.0342,-0.0834 c 0.59362,-1.43312 0.78348,-2.70629 0.4252,-2.85469 l -1.29336,-0.53458 c -0.35828,-0.1484 -1.12493,0.88564 -1.71855,2.31875 l -0.0356,0.0848 a 11.200007,11.200007 0 0 0 -1.5572,-0.31033 v -0.0916 c 0,-1.5512 -0.3122,-2.8 -0.7,-2.8 z m 1.4,4.92462 a 9.1049394,9.1049394 0 0 1 8.40547,9.07539 9.1049394,9.1049394 0 0 1 -0.90918,3.95664 L 26.70156,25.78341 A 2.8134146,2.8134146 0 0 0 26.81367,25.00001 2.8134146,2.8134146 0 0 0 24.7,22.2752 Z m -1.4,0.0314 v 6.32461 a 2.8134146,2.8134146 0 0 0 -2.11367,2.71935 2.8134146,2.8134146 0 0 0 0.1121,0.7834 l -5.46875,3.15821 A 9.1049394,9.1049394 0 0 1 14.89453,25.00001 9.1049394,9.1049394 0 0 1 23.3,15.95606 Z m 0.7,7.64396 a 1.4000009,1.4000009 0 0 1 1.4,1.4 1.4000009,1.4000009 0 0 1 -1.4,1.4 1.4000009,1.4000009 0 0 1 -1.4,-1.4 1.4000009,1.4000009 0 0 1 1.4,-1.4 z m -1.98379,3.38516 A 2.8134146,2.8134146 0 0 0 24,27.81365 2.8134146,2.8134146 0 0 0 25.98379,26.98514 l 5.5125,3.18281 A 9.1049394,9.1049394 0 0 1 24,34.10545 9.1049394,9.1049394 0 0 1 16.53378,30.15155 Z" />
  <path
     id="rect48996-8-9-6-9-9-3-10-4-4"
     style="font-variation-settings:normal;opacity:0.15;vector-effect:none;fill:#000000;fill-opacity:1;stroke:none;stroke-width:0.999997;stroke-linecap:round;stroke-linejoin:round;stroke-miterlimit:4;stroke-dasharray:none;stroke-dashoffset:0;stroke-opacity:0.5;-inkscape-stroke:none;stop-color:#000000;stop-opacity:1"
     d="m 23.115234,10.017578 c -1.302349,0.330015 -1.380161,1.939432 -1.490234,3.041016 -0.518625,-0.957271 -1.161503,-2.34532 -2.449219,-2.25586 -0.855229,0.352246 -2.134901,0.522929 -2.324219,1.615235 -0.119857,0.836345 0.127901,1.670478 0.382813,2.458984 -0.845668,-0.691028 -1.982733,-1.731805 -3.138672,-1.140625 -0.646736,0.660891 -1.779511,1.307483 -1.509765,2.396484 0.216498,0.807991 0.75499,1.478869 1.291015,2.101563 -1.051715,-0.313164 -2.519977,-0.848502 -3.351562,0.169922 -0.353162,0.873465 -1.1661601,1.958155 -0.405323,2.846451 0.512101,0.618647 1.231793,1.017318 1.938526,1.374252 -1.087651,0.11186 -2.6315592,0.17702 -3.027344,1.417969 -2.837e-4,0.946276 -0.3323924,2.268484 0.7078468,2.803644 0.7096862,0.378667 1.5293222,0.467928 2.3194972,0.528387 -0.957271,0.518625 -2.3453198,1.161503 -2.2558596,2.449219 0.3522456,0.855229 0.5229286,2.134901 1.6152346,2.324219 0.836345,0.119857 1.670478,-0.127901 2.458984,-0.382813 -0.691028,0.845668 -1.731805,1.982733 -1.140625,3.138672 0.658677,0.642504 1.296568,1.766717 2.378906,1.513672 0.815729,-0.212395 1.492128,-0.75508 2.119141,-1.294922 -0.313164,1.051715 -0.848502,2.519977 0.169922,3.351562 0.873465,0.353162 1.958155,1.16616 2.846451,0.405323 0.618647,-0.512101 1.017318,-1.231793 1.374252,-1.938526 0.11186,1.087651 0.17702,2.631559 1.417969,3.027344 0.946276,2.84e-4 2.268484,0.332392 2.803644,-0.707847 0.378667,-0.709686 0.467928,-1.529322 0.528387,-2.319497 0.518625,0.957271 1.161503,2.34532 2.449219,2.25586 0.85917,-0.352954 2.151901,-0.527501 2.326172,-1.632813 0.115742,-0.831174 -0.134847,-1.657494 -0.384766,-2.441406 0.845668,0.691028 1.982733,1.731805 3.138672,1.140625 0.646736,-0.660891 1.779511,-1.307483 1.509765,-2.396484 -0.216794,-0.807724 -0.754556,-1.479274 -1.291015,-2.101563 1.051715,0.313164 2.519977,0.848502 3.351562,-0.169922 0.353162,-0.873465 1.16616,-1.958155 0.405323,-2.846451 -0.512101,-0.618647 -1.231793,-1.017318 -1.938526,-1.374252 1.087651,-0.11186 2.631559,-0.17702 3.027344,-1.417969 2.84e-4,-0.946276 0.332392,-2.268484 -0.707847,-2.803644 -0.709686,-0.378667 -1.529322,-0.467928 -2.319497,-0.528387 0.957271,-0.518625 2.34532,-1.161503 2.25586,-2.449219 -0.352246,-0.855229 -0.522929,-2.134901 -1.615235,-2.324219 -0.836345,-0.119857 -1.670478,0.127901 -2.458984,0.382813 0.691028,-0.845668 1.731805,-1.982733 1.140625,-3.138672 -0.658677,-0.642504 -1.296568,-1.766717 -2.378906,-1.513672 -0.815729,0.212395 -1.492128,0.75508 -2.119141,1.294922 0.31325,-1.051589 0.848202,-2.520192 -0.169922,-3.351562 -0.873465,-0.353162 -1.958155,-1.16616 -2.846451,-0.405323 -0.618647,0.512101 -1.017318,1.231793 -1.374252,1.938526 -0.11186,-1.087651 -0.17702,-2.631559 -1.417969,-3.027344 -0.608297,-0.057973 -1.231188,-0.035347 -1.841797,-0.01367 z m 2.699219,7.087891 c 2.725886,0.634522 5.036838,2.734912 5.886211,5.406789 0.51582,1.614819 0.514515,3.38705 -0.0093,4.999461 -1.300781,-0.751302 -2.601562,-1.502604 -3.902344,-2.253907 0.127478,-1.49419 -0.747957,-2.999098 -2.089843,-3.658203 0,-1.503906 0,-3.007812 0,-4.511718 l 0.09886,0.01508 z m -3.513672,4.5 c -1.343334,0.656312 -2.211603,2.160344 -2.089843,3.652343 -1.294271,0.747396 -2.588542,1.494792 -3.882813,2.242188 -1.071145,-3.041403 -0.003,-6.629714 2.475098,-8.668606 1.00598,-0.842741 2.220486,-1.419328 3.497558,-1.712253 0,1.495442 0,2.990885 0,4.486328 z m 1.845703,3.042969 c 0.612398,0.266205 -0.141324,1.11576 -0.471485,0.537888 -0.192867,-0.296003 0.152554,-0.678901 0.471485,-0.537888 z m -2.160156,3.576171 c 1.2227,0.768377 2.874116,0.763615 4.078125,-0.03906 1.305339,0.753906 2.610677,1.507812 3.916016,2.261719 -2.039344,2.274807 -5.419034,3.217241 -8.334639,2.277747 -1.37252,-0.430392 -2.630221,-1.229091 -3.598955,-2.293372 1.296224,-0.748698 2.592448,-1.497396 3.888672,-2.246094 z" />
  <path
     id="rect48996-8-9-6-9-9-3-10"
     style="font-variation-settings:normal;fill:url(#linearGradient2763-7-1);fill-opacity:1;stroke:none;stroke-width:0.999994;stroke-linecap:round;stroke-linejoin:round;stroke-miterlimit:4;stroke-dasharray:none;stroke-dashoffset:0;stroke-opacity:0.5;stop-color:#000000"
     d="m 23.3,9.9998854 c -0.3878,0 -0.7,1.2487996 -0.7,2.8000096 v 0.0998 a 11.200007,11.200007 0 0 0 -1.55449,0.31035 l -0.0383,-0.093 c -0.59362,-1.43312 -1.36028,-2.46715 -1.71856,-2.31876 l -1.29336,0.53458 c -0.35828,0.1484 -0.16842,1.42157 0.42519,2.85469 l 0.0438,0.10664 a 11.200007,11.200007 0 0 0 -1.31249,0.87773 l -0.082,-0.082 c -1.09688,-1.09687 -2.2004,-1.75899 -2.47462,-1.48477 l -0.98985,0.98984 c -0.27421,0.27422 0.3879,1.37775 1.48477,2.47461 l 0.082,0.082 a 11.200007,11.200007 0 0 0 -0.87774,1.3125 l -0.10664,-0.0438 c -1.43313,-0.59362 -2.70629,-0.78348 -2.8547,-0.42519 l -0.53457,1.29336 c -0.1484,0.35828 0.88564,1.12493 2.31876,1.71855 l 0.093,0.0383 a 11.200007,11.200007 0 0 0 -0.3104,1.55458 H 12.8 c -1.5512,0 -2.8,0.3122 -2.8,0.7 v 1.4 c 0,0.3878 1.2488,0.7 2.8,0.7 h 0.0998 a 11.200007,11.200007 0 0 0 0.31035,1.55449 l -0.093,0.0383 c -1.43311,0.59362 -2.46715,1.36028 -2.31875,1.71856 l 0.53458,1.29335 c 0.1484,0.35829 1.42157,0.16843 2.85468,-0.42519 l 0.10665,-0.0438 a 11.200007,11.200007 0 0 0 0.87773,1.3125 l -0.082,0.082 c -1.09686,1.09687 -1.75898,2.2004 -1.48477,2.47461 l 0.98985,0.98985 c 0.27422,0.27422 1.37774,-0.38791 2.47461,-1.48477 l 0.082,-0.082 a 11.200007,11.200007 0 0 0 1.3125,0.87773 l -0.0438,0.10665 c -0.59362,1.43312 -0.78347,2.70628 -0.4252,2.85469 l 1.29336,0.53457 c 0.35829,0.1484 1.12494,-0.88564 1.71856,-2.31875 l 0.0383,-0.093 a 11.200007,11.200007 0 0 0 1.55449,0.31034 v 0.09987 c 0,1.55121 0.3122,2.80001 0.7,2.80001 h 1.4 c 0.3878,0 0.7,-1.2488 0.7,-2.80001 v -0.0998 a 11.200007,11.200007 0 0 0 1.55449,-0.31035 l 0.0383,0.093 c 0.59362,1.43312 1.36027,2.46715 1.71856,2.31876 l 1.29336,-0.53458 c 0.35828,-0.1484 0.16842,-1.42157 -0.4252,-2.85469 l -0.0438,-0.10664 a 11.200007,11.200007 0 0 0 1.3125,-0.87773 l 0.082,0.082 c 1.09685,1.09686 2.20039,1.75898 2.4746,1.48476 l 0.98985,-0.98984 c 0.27422,-0.27422 -0.3879,-1.37775 -1.48476,-2.47462 l -0.082,-0.082 a 11.200007,11.200007 0 0 0 0.87773,-1.3125 l 0.10665,0.0438 c 1.43311,0.59363 2.70628,0.78349 2.85468,0.4252 l 0.53457,-1.29336 c 0.1484,-0.35828 -0.88565,-1.12493 -2.31875,-1.71856 l -0.093,-0.0383 a 11.200007,11.200007 0 0 0 0.31048,-1.55455 H 35.2 c 1.5512,0 2.8,-0.3122 2.8,-0.7 v -1.4 c 0,-0.3878 -1.2488,-0.7 -2.8,-0.7 h -0.0916 a 11.200007,11.200007 0 0 0 -0.31035,-1.55723 l 0.0848,-0.0356 c 1.43311,-0.59362 2.46715,-1.36028 2.31876,-1.71856 l -0.53458,-1.29331 c -0.1484,-0.35828 -1.42157,-0.16843 -2.85468,0.42519 l -0.0834,0.0342 a 11.200007,11.200007 0 0 0 -0.88322,-1.3207 l 0.0643,-0.0643 c 1.09686,-1.09686 1.75898,-2.20039 1.48476,-2.47461 l -0.98986,-0.98984 c -0.27422,-0.27422 -1.37774,0.3879 -2.47461,1.48476 l -0.0643,0.0643 a 11.200007,11.200007 0 0 0 -1.3207,-0.8832 l 0.0342,-0.0834 c 0.59362,-1.43312 0.78348,-2.70629 0.4252,-2.85469 l -1.29336,-0.53458 c -0.35828,-0.1484 -1.12493,0.88564 -1.71855,2.31875 l -0.0356,0.0848 a 11.200007,11.200007 0 0 0 -1.5572,-0.31033 v -0.0916 c 0,-1.5512 -0.3122,-2.7999996 -0.7,-2.7999996 z m 1.4,4.9246196 a 9.1049394,9.1049394 0 0 1 8.40547,9.07539 9.1049394,9.1049394 0 0 1 -0.90918,3.95664 l -5.49473,-3.17324 a 2.8134146,2.8134146 0 0 0 0.11211,-0.7834 A 2.8134146,2.8134146 0 0 0 24.7,21.275085 Z m -1.4,0.0314 v 6.32461 a 2.8134146,2.8134146 0 0 0 -2.11367,2.71935 2.8134146,2.8134146 0 0 0 0.1121,0.7834 l -5.46875,3.15821 A 9.1049394,9.1049394 0 0 1 14.89453,23.999895 9.1049394,9.1049394 0 0 1 23.3,14.955945 Z m 0.7,7.64396 a 1.4000009,1.4000009 0 0 1 1.4,1.4 1.4000009,1.4000009 0 0 1 -1.4,1.4 1.4000009,1.4000009 0 0 1 -1.4,-1.4 1.4000009,1.4000009 0 0 1 1.4,-1.4 z m -1.98379,3.38516 A 2.8134146,2.8134146 0 0 0 24,26.813535 a 2.8134146,2.8134146 0 0 0 1.98379,-0.82851 l 5.5125,3.18281 A 9.1049394,9.1049394 0 0 1 24,33.105335 a 9.1049394,9.1049394 0 0 1 -7.46622,-3.9539 z" />
  <path
     id="rect48996-8-9-6-9-9-3-10-65"
     style="font-variation-settings:normal;fill:#000000;fill-opacity:1;stroke:none;stroke-width:0.999997;stroke-linecap:round;stroke-linejoin:round;stroke-miterlimit:4;stroke-dasharray:none;stroke-dashoffset:0;stroke-opacity:0.5;stop-color:#000000;opacity:0.05;vector-effect:none;-inkscape-stroke:none;stop-opacity:1"
     d="M 17.882812 11.449219 C 17.730339 11.749388 17.843671 12.544572 18.164062 13.496094 A 11.200007 11.200007 0 0 1 18.464844 13.294922 L 18.419922 13.1875 C 18.153541 12.544392 17.973536 11.94072 17.882812 11.449219 z M 30.117188 11.449219 C 30.026463 11.94072 29.846463 12.544392 29.580078 13.1875 L 29.544922 13.271484 A 11.200007 11.200007 0 0 1 29.84375 13.472656 C 30.157991 12.531681 30.268393 11.746891 30.117188 11.449219 z M 24.699219 13.923828 L 24.699219 14.923828 A 9.1049394 9.1049394 0 0 1 33.066406 23.521484 A 9.1049394 9.1049394 0 0 0 33.105469 23 A 9.1049394 9.1049394 0 0 0 24.699219 13.923828 z M 23.300781 13.957031 A 9.1049394 9.1049394 0 0 0 14.894531 23 A 9.1049394 9.1049394 0 0 0 14.939453 23.537109 A 9.1049394 9.1049394 0 0 1 23.300781 14.955078 L 23.300781 13.957031 z M 13.779297 14.421875 L 13.605469 14.595703 C 13.35868 14.842501 13.872932 15.761338 14.777344 16.742188 A 11.200007 11.200007 0 0 1 15.171875 16.152344 L 15.089844 16.070312 C 14.497047 15.477521 14.038951 14.886601 13.779297 14.421875 z M 34.220703 14.421875 C 33.961049 14.886601 33.502948 15.477521 32.910156 16.070312 L 32.845703 16.134766 A 11.200007 11.200007 0 0 1 33.240234 16.724609 C 34.134357 15.750514 34.639825 14.840997 34.394531 14.595703 L 34.220703 14.421875 z M 36.982422 18.755859 C 36.617328 19.134541 35.845465 19.609064 34.882812 20.007812 L 34.798828 20.042969 A 11.200007 11.200007 0 0 1 34.982422 20.962891 C 36.36176 20.37577 37.345984 19.638705 37.201172 19.289062 L 36.982422 18.755859 z M 11.019531 18.757812 L 10.798828 19.289062 C 10.653662 19.639536 11.642827 20.379006 13.027344 20.966797 A 11.200007 11.200007 0 0 1 13.210938 20.044922 L 13.117188 20.007812 C 12.156265 19.609784 11.385467 19.13616 11.019531 18.757812 z M 24 21.599609 A 1.4000009 1.4000009 0 0 0 22.599609 23 A 1.4000009 1.4000009 0 0 0 22.699219 23.5 A 1.4000009 1.4000009 0 0 1 24 22.599609 A 1.4000009 1.4000009 0 0 1 25.300781 23.5 A 1.4000009 1.4000009 0 0 0 25.400391 23 A 1.4000009 1.4000009 0 0 0 24 21.599609 z M 26.736328 23.535156 A 2.8134146 2.8134146 0 0 1 26.701172 23.783203 L 26.787109 23.832031 A 2.8134146 2.8134146 0 0 0 26.736328 23.535156 z M 21.263672 23.539062 A 2.8134146 2.8134146 0 0 0 21.214844 23.832031 L 21.298828 23.783203 A 2.8134146 2.8134146 0 0 1 21.263672 23.539062 z M 10 23.699219 L 10 24.699219 C 10 25.087018 11.249583 25.400391 12.800781 25.400391 L 12.900391 25.400391 A 11.200007 11.200007 0 0 0 13.027344 26.033203 C 13.058182 26.020111 13.085962 26.005122 13.117188 25.992188 L 13.210938 25.955078 A 11.200007 11.200007 0 0 1 12.900391 24.400391 L 12.800781 24.400391 C 11.249583 24.400391 10 24.087018 10 23.699219 z M 38 23.699219 C 38 24.087018 36.750417 24.400391 35.199219 24.400391 L 35.099609 24.400391 A 11.200007 11.200007 0 0 1 34.789062 25.955078 L 34.882812 25.992188 C 34.914038 26.005122 34.941818 26.02011 34.972656 26.033203 A 11.200007 11.200007 0 0 0 35.099609 25.400391 L 35.199219 25.400391 C 36.750417 25.400391 38 25.087018 38 24.699219 L 38 23.699219 z M 22.015625 24.984375 L 16.533203 28.152344 A 9.1049394 9.1049394 0 0 0 17.085938 28.832031 L 22.015625 25.984375 A 2.8134146 2.8134146 0 0 0 24 26.814453 A 2.8134146 2.8134146 0 0 0 25.984375 25.984375 L 30.941406 28.847656 A 9.1049394 9.1049394 0 0 0 31.496094 28.167969 L 25.984375 24.984375 A 2.8134146 2.8134146 0 0 1 24 25.814453 A 2.8134146 2.8134146 0 0 1 22.015625 24.984375 z M 36.980469 28.242188 L 36.666016 29.003906 C 36.517616 29.362196 35.245609 29.173708 33.8125 28.580078 L 33.705078 28.535156 A 11.200007 11.200007 0 0 1 32.828125 29.847656 L 32.910156 29.929688 C 33.020103 30.039635 33.121951 30.148573 33.222656 30.257812 A 11.200007 11.200007 0 0 0 33.705078 29.535156 L 33.8125 29.580078 C 35.245609 30.173708 36.517616 30.362196 36.666016 30.003906 L 37.201172 28.710938 C 37.250068 28.592889 37.16029 28.428107 36.980469 28.242188 z M 11.017578 28.244141 C 10.839155 28.429205 10.750112 28.593323 10.798828 28.710938 L 11.332031 30.003906 C 11.480431 30.362196 12.754391 30.173698 14.1875 29.580078 L 14.294922 29.535156 A 11.200007 11.200007 0 0 0 14.777344 30.257812 C 14.877833 30.148828 14.980158 30.039374 15.089844 29.929688 L 15.171875 29.847656 A 11.200007 11.200007 0 0 1 14.294922 28.535156 L 14.1875 28.580078 C 12.754391 29.173698 11.480431 29.362196 11.332031 29.003906 L 11.017578 28.244141 z M 17.152344 31.828125 L 17.070312 31.910156 C 15.973444 33.007015 14.869923 33.668751 14.595703 33.394531 L 13.779297 32.578125 C 13.558504 32.973294 13.479454 33.278282 13.605469 33.404297 L 14.595703 34.394531 C 14.869923 34.668751 15.973444 34.007015 17.070312 32.910156 L 17.152344 32.828125 A 11.200007 11.200007 0 0 0 18.164062 33.503906 C 18.239625 33.279499 18.321505 33.050098 18.419922 32.8125 L 18.464844 32.705078 A 11.200007 11.200007 0 0 1 17.152344 31.828125 z M 30.847656 31.828125 A 11.200007 11.200007 0 0 1 29.535156 32.705078 L 29.580078 32.8125 C 29.678495 33.050098 29.760375 33.279498 29.835938 33.503906 A 11.200007 11.200007 0 0 0 30.847656 32.828125 L 30.929688 32.910156 C 32.026536 34.007015 33.130087 34.668751 33.404297 34.394531 L 34.394531 33.404297 C 34.52055 33.278278 34.441495 32.973295 34.220703 32.578125 L 33.404297 33.394531 C 33.130087 33.668751 32.026536 33.007015 30.929688 31.910156 L 30.847656 31.828125 z M 21.044922 33.789062 L 21.007812 33.882812 C 20.414193 35.315921 19.647352 36.349572 19.289062 36.201172 L 17.996094 35.666016 C 17.949077 35.646539 17.911276 35.606819 17.882812 35.550781 C 17.771366 36.154553 17.798597 36.584204 17.996094 36.666016 L 19.289062 37.201172 C 19.647352 37.349572 20.414193 36.315921 21.007812 34.882812 L 21.044922 34.789062 A 11.200007 11.200007 0 0 0 22.599609 35.099609 L 22.599609 35.199219 C 22.599609 36.750427 22.912982 38 23.300781 38 L 24.699219 38 C 25.087018 38 25.400391 36.750427 25.400391 35.199219 L 25.400391 35.099609 A 11.200007 11.200007 0 0 0 26.955078 34.789062 L 26.992188 34.882812 C 27.585807 36.315931 28.352648 37.349562 28.710938 37.201172 L 30.003906 36.666016 C 30.201228 36.584285 30.22632 36.155625 30.115234 35.552734 C 30.086884 35.607787 30.050411 35.648706 30.003906 35.667969 L 28.710938 36.201172 C 28.352648 36.349562 27.585807 35.315931 26.992188 33.882812 L 26.955078 33.789062 A 11.200007 11.200007 0 0 1 25.400391 34.099609 L 25.400391 34.199219 C 25.400391 35.750427 25.087018 37 24.699219 37 L 23.300781 37 C 22.912982 37 22.599609 35.750427 22.599609 34.199219 L 22.599609 34.099609 A 11.200007 11.200007 0 0 1 21.044922 33.789062 z " />
  <path
     id="rect48996-8-9-6-9-9-3-10-6"
     style="font-variation-settings:normal;fill:#ffffff;fill-opacity:1;stroke:none;stroke-width:0.999997;stroke-linecap:round;stroke-linejoin:round;stroke-miterlimit:4;stroke-dasharray:none;stroke-dashoffset:0;stroke-opacity:0.5;stop-color:#000000;opacity:0.3;vector-effect:none;-inkscape-stroke:none;stop-opacity:1"
     d="M 23.300781 10 C 22.912982 10 22.599609 11.249573 22.599609 12.800781 L 22.599609 12.900391 A 11.200007 11.200007 0 0 0 21.044922 13.210938 L 21.007812 13.117188 C 20.414193 11.684069 19.647342 10.650438 19.289062 10.798828 L 17.996094 11.332031 C 17.798591 11.413837 17.771366 11.845446 17.882812 12.449219 C 17.911277 12.393182 17.949075 12.351506 17.996094 12.332031 L 19.289062 11.798828 C 19.647342 11.650438 20.414193 12.684069 21.007812 14.117188 L 21.044922 14.210938 A 11.200007 11.200007 0 0 1 22.599609 13.900391 L 22.599609 13.800781 C 22.599609 12.249573 22.912982 11 23.300781 11 L 24.699219 11 C 25.087018 11 25.400391 12.249583 25.400391 13.800781 L 25.400391 13.892578 A 11.200007 11.200007 0 0 1 26.957031 14.201172 L 26.992188 14.117188 C 27.585807 12.684079 28.352658 11.650428 28.710938 11.798828 L 30.003906 12.333984 C 30.050925 12.353459 30.088723 12.393182 30.117188 12.449219 C 30.228636 11.845446 30.201409 11.413837 30.003906 11.332031 L 28.710938 10.798828 C 28.352658 10.650428 27.585807 11.684079 26.992188 13.117188 L 26.957031 13.201172 A 11.200007 11.200007 0 0 0 25.400391 12.890625 L 25.400391 12.800781 C 25.400391 11.249583 25.087018 10 24.699219 10 L 23.300781 10 z M 14.734375 13.544922 C 14.675815 13.550918 14.629981 13.571191 14.595703 13.605469 L 13.605469 14.595703 C 13.479454 14.721722 13.558505 15.026706 13.779297 15.421875 L 14.595703 14.605469 C 14.869923 14.331249 15.973434 14.992975 17.070312 16.089844 L 17.152344 16.171875 A 11.200007 11.200007 0 0 1 18.464844 15.294922 L 18.419922 15.1875 C 18.321507 14.949902 18.239624 14.720502 18.164062 14.496094 A 11.200007 11.200007 0 0 0 17.152344 15.171875 L 17.070312 15.089844 C 16.110543 14.130083 15.144298 13.502946 14.734375 13.544922 z M 33.265625 13.544922 C 32.855703 13.502946 31.889448 14.130092 30.929688 15.089844 L 30.865234 15.154297 A 11.200007 11.200007 0 0 0 29.84375 14.472656 C 29.766381 14.704332 29.681966 14.941522 29.580078 15.1875 L 29.544922 15.271484 A 11.200007 11.200007 0 0 1 30.865234 16.154297 L 30.929688 16.089844 C 32.026556 14.992985 33.130077 14.331249 33.404297 14.605469 L 34.220703 15.421875 C 34.441495 15.026706 34.52055 14.721722 34.394531 14.595703 L 33.404297 13.605469 C 33.370019 13.571191 33.324185 13.550918 33.265625 13.544922 z M 33.240234 17.724609 C 33.134796 17.839478 33.025858 17.954611 32.910156 18.070312 L 32.845703 18.134766 A 11.200007 11.200007 0 0 1 33.728516 19.455078 L 33.8125 19.419922 C 35.245609 18.826302 36.519569 18.637814 36.667969 18.996094 L 36.982422 19.755859 C 37.160846 19.570795 37.249885 19.406677 37.201172 19.289062 L 36.667969 17.996094 C 36.519569 17.637814 35.245609 17.826302 33.8125 18.419922 L 33.728516 18.455078 A 11.200007 11.200007 0 0 0 33.240234 17.724609 z M 14.777344 17.742188 A 11.200007 11.200007 0 0 0 14.294922 18.464844 L 14.1875 18.419922 C 12.754371 17.826302 11.482394 17.635851 11.333984 17.994141 L 10.798828 19.289062 C 10.749932 19.407111 10.839711 19.571893 11.019531 19.757812 L 11.333984 18.996094 C 11.482394 18.637804 12.754371 18.826302 14.1875 19.419922 L 14.294922 19.464844 A 11.200007 11.200007 0 0 1 15.171875 18.152344 L 15.089844 18.070312 C 14.980157 17.960627 14.877834 17.851171 14.777344 17.742188 z M 24.699219 21.275391 L 24.699219 22.275391 A 2.8134146 2.8134146 0 0 1 26.736328 24.535156 A 2.8134146 2.8134146 0 0 0 26.814453 24 A 2.8134146 2.8134146 0 0 0 24.699219 21.275391 z M 23.300781 21.28125 A 2.8134146 2.8134146 0 0 0 21.185547 24 A 2.8134146 2.8134146 0 0 0 21.263672 24.539062 A 2.8134146 2.8134146 0 0 1 23.300781 22.28125 L 23.300781 21.28125 z M 34.982422 21.962891 C 34.948348 21.977394 34.917361 21.993502 34.882812 22.007812 L 34.798828 22.042969 A 11.200007 11.200007 0 0 1 35.109375 23.599609 L 35.199219 23.599609 C 36.750417 23.599609 38 23.912982 38 24.300781 L 38 23.300781 C 38 22.912982 36.750417 22.599609 35.199219 22.599609 L 35.109375 22.599609 A 11.200007 11.200007 0 0 0 34.982422 21.962891 z M 13.027344 21.966797 A 11.200007 11.200007 0 0 0 12.900391 22.599609 L 12.800781 22.599609 C 11.249583 22.599609 10 22.912982 10 23.300781 L 10 24.300781 C 10 23.912982 11.249583 23.599609 12.800781 23.599609 L 12.900391 23.599609 A 11.200007 11.200007 0 0 1 13.210938 22.044922 L 13.117188 22.007812 C 13.085962 21.994878 13.058183 21.979889 13.027344 21.966797 z M 22.699219 24.5 A 1.4000009 1.4000009 0 0 0 22.599609 25 A 1.4000009 1.4000009 0 0 0 24 26.400391 A 1.4000009 1.4000009 0 0 0 25.400391 25 A 1.4000009 1.4000009 0 0 0 25.300781 24.5 A 1.4000009 1.4000009 0 0 1 24 25.400391 A 1.4000009 1.4000009 0 0 1 22.699219 24.5 z M 33.066406 24.521484 A 9.1049394 9.1049394 0 0 1 32.197266 27.957031 L 26.787109 24.832031 A 2.8134146 2.8134146 0 0 1 26.814453 25 A 2.8134146 2.8134146 0 0 1 26.701172 25.783203 L 32.197266 28.957031 A 9.1049394 9.1049394 0 0 0 33.105469 25 A 9.1049394 9.1049394 0 0 0 33.066406 24.521484 z M 14.939453 24.537109 A 9.1049394 9.1049394 0 0 0 14.894531 25 A 9.1049394 9.1049394 0 0 0 15.830078 28.941406 L 21.298828 25.783203 A 2.8134146 2.8134146 0 0 1 21.185547 25 A 2.8134146 2.8134146 0 0 1 21.214844 24.832031 L 15.830078 27.941406 A 9.1049394 9.1049394 0 0 1 14.939453 24.537109 z M 13.027344 27.033203 C 11.642836 27.620995 10.653662 28.360464 10.798828 28.710938 L 11.017578 29.244141 C 11.382669 28.865459 12.154535 28.390936 13.117188 27.992188 L 13.210938 27.955078 A 11.200007 11.200007 0 0 1 13.027344 27.033203 z M 34.972656 27.033203 A 11.200007 11.200007 0 0 1 34.789062 27.955078 L 34.882812 27.992188 C 35.843722 28.390223 36.614531 28.863839 36.980469 29.242188 L 37.201172 28.710938 C 37.346338 28.360464 36.357155 27.621004 34.972656 27.033203 z M 17.085938 29.832031 L 16.533203 30.152344 A 9.1049394 9.1049394 0 0 0 24 34.105469 A 9.1049394 9.1049394 0 0 0 31.496094 30.167969 L 30.941406 29.847656 A 9.1049394 9.1049394 0 0 1 24 33.105469 A 9.1049394 9.1049394 0 0 1 17.085938 29.832031 z M 14.777344 31.257812 C 13.872938 32.238669 13.35868 33.157508 13.605469 33.404297 L 13.779297 33.578125 C 14.038953 33.1134 14.497052 32.522485 15.089844 31.929688 L 15.171875 31.847656 A 11.200007 11.200007 0 0 1 14.777344 31.257812 z M 33.222656 31.257812 A 11.200007 11.200007 0 0 1 32.828125 31.847656 L 32.910156 31.929688 C 33.502948 32.522485 33.961049 33.113398 34.220703 33.578125 L 34.394531 33.404297 C 34.641264 33.157564 34.126615 32.238378 33.222656 31.257812 z M 18.164062 34.503906 C 17.843668 35.455426 17.730343 36.250608 17.882812 36.550781 C 17.973536 36.059281 18.153537 35.455608 18.419922 34.8125 L 18.464844 34.705078 A 11.200007 11.200007 0 0 1 18.164062 34.503906 z M 29.835938 34.503906 A 11.200007 11.200007 0 0 1 29.535156 34.705078 L 29.580078 34.8125 C 29.846763 35.456331 30.02462 36.060949 30.115234 36.552734 C 30.269087 36.253969 30.156987 35.457368 29.835938 34.503906 z " />
  <path
     d="m 43.499999,23.999999 c 0,10.769554 -8.730468,19.5 -19.5,19.5 -10.769532,0 -19.4999991,-8.730446 -19.4999991,-19.5 C 4.4999999,13.230449 13.230467,4.5 23.999999,4.5 c 10.769532,0 19.5,8.730449 19.5,19.499999 z"
     id="path3421"
     style="color:#000000;display:inline;overflow:visible;visibility:visible;fill:none;stroke:url(#linearGradient3221);stroke-width:0.99999994;stroke-linecap:round;stroke-linejoin:round;stroke-miterlimit:4;stroke-dasharray:none;stroke-dashoffset:0;stroke-opacity:1;marker:none;enable-background:accumulate;opacity:0.2" />
</svg>
