<svg xmlns="http://www.w3.org/2000/svg" viewBox="0 0 16 16"><title>elementary Symbolic Icon Theme</title><path d="M3.78 2.02c-.242 0-.52.066-.806.22C1.937 2.784.982 4.574.464 6.894.02 8.864-.142 11.56.12 12.644c.23.933.628 1.345 1.333 1.345 1.046-.02 2.36-1.186 3.193-2.75.603-.87 2-1.267 3.347-1.22 1.347-.05 2.745.35 3.348 1.22.836 1.564 2.15 2.73 3.196 2.75.705 0 1.103-.416 1.332-1.348.264-1.084.102-3.78-.34-5.75-.52-2.32-1.474-4.11-2.51-4.656-.57-.306-1.04-.297-1.458 0-.528.375-1.627.778-3.565.78-1.94.002-3.038-.405-3.565-.78a1.062 1.062 0 0 0-.65-.22zm.248 3h.992v1h.992v1H5.02v1h-.992v-1h-.992v-1h.992v-1zm7.44 0c.273 0 .495.224.495.5s-.222.5-.496.5a.498.498 0 0 1-.496-.5.5.5 0 0 1 .5-.5zm-.993 1c.274 0 .496.224.496.5s-.22.5-.492.5a.498.498 0 0 1-.496-.5c0-.276.22-.5.496-.5zm1.984 0c.27 0 .492.224.492.5s-.222.5-.496.5a.498.498 0 0 1-.497-.5.5.5 0 0 1 .496-.5zm-.996 1c.274 0 .496.224.496.5s-.22.5-.495.5a.498.498 0 0 1-.496-.5.5.5 0 0 1 .495-.5z" fill="#bebebe"/></svg>