<?xml version="1.0" encoding="UTF-8" standalone="no"?>
<svg
   id="svg6"
   version="1.1"
   width="16"
   height="16"
   xmlns="http://www.w3.org/2000/svg"
   xmlns:svg="http://www.w3.org/2000/svg"
   xmlns:rdf="http://www.w3.org/1999/02/22-rdf-syntax-ns#"
   xmlns:cc="http://creativecommons.org/ns#"
   xmlns:dc="http://purl.org/dc/elements/1.1/">
  <metadata
     id="metadata12">
    <rdf:RDF>
      <cc:Work
         rdf:about="">
        <dc:format>image/svg+xml</dc:format>
        <dc:type
           rdf:resource="http://purl.org/dc/dcmitype/StillImage" />
      </cc:Work>
    </rdf:RDF>
  </metadata>
  <defs
     id="defs10" />
  <path
     id="path2-3"
     style="fill:#555761;fill-opacity:1;marker:none"
     d="M 3,1 C 1.8920022,1 1,1.8920022 1,3 v 10 c 0,1.107998 0.8920022,2 2,2 h 10 c 1.107998,0 2,-0.892002 2,-2 V 3 C 15,1.8920022 14.107998,1 13,1 Z m 0,1 h 10 c 0.553998,0 1,0.4460012 1,1 v 9 c 0,0.553998 -0.446002,1 -1,1 H 3 C 2.4460012,13 2,12.553998 2,12 V 3 C 2,2.4460012 2.4460012,2 3,2 Z m 3.347656,1.2421875 c -1.9649608,0 -3.1089605,1.2092813 -3.1113279,3.0937505 C 3.2386981,8.265387 4.3633415,9.375 6.349609,9.375 6.958037,9.375 7.604463,9.222242 7.900391,9.068359 L 7.699219,8.466797 c -0.224905,0.08523 -0.768822,0.240234 -1.308594,0.240234 -1.567234,0 -2.4160156,-0.846769 -2.4160156,-2.380859 0,-1.4299236 0.8095415,-2.4257814 2.3554686,-2.4257814 1.261837,0 2.203539,0.7138975 2.201172,2.0585938 C 8.53365,6.93673 8.380741,7.376953 8.001953,7.376953 7.800722,7.376953 7.682055,7.216797 7.679688,6.982422 V 4.7285156 H 7.019531 v 0.265625 h -0.0332 C 6.910571,4.7858074 6.45709,4.5930398 5.9433594,4.6640625 5.2828484,4.7516572 4.6484375,5.2933836 4.6484375,6.306641 4.6484375,7.350674 5.2165014,7.964489 5.9882812,8 6.525686,8.02604 6.941465,7.787583 7.052734,7.505859 h 0.0293 C 7.138854,7.860973 7.451471,8.055339 7.929691,8.029297 8.947679,7.991418 9.238696,7.081912 9.236328,6 9.238696,4.4446031 8.191879,3.2421875 6.347656,3.2421875 Z M 6.189453,5.34375 c 0.589488,0 0.806226,0.2896547 0.808594,0.933594 0.0071,0.691287 -0.215495,1.042968 -0.814453,1.042968 -0.6178977,0 -0.8257578,-0.501243 -0.8281252,-1.041015 C 5.3578362,5.7395244 5.6591504,5.34375 6.189453,5.34375 Z" />
</svg>
