<svg xmlns="http://www.w3.org/2000/svg" viewBox="0 0 16 16"><title>elementary Symbolic Icon Theme</title><path d="M8 0a8 8 0 1 0 0 16A8 8 0 0 0 8 0zm0 2a6 6 0 1 1 0 12A6 6 0 0 1 8 2z" color="#bebebe" fill="#bebebe" overflow="visible"/><path d="M8.063 2.5c-.714 0-1.282.555-1.282 1.25s.57 1.28 1.288 1.28c.714 0 1.282-.585 1.282-1.28 0-.695-.57-1.25-1.28-1.25zM3.406 5.094a.317.317 0 0 0-.187.03.36.36 0 0 0-.22.314c-.008.134.09.25.22.312l3.43 1.063-.03 2.468-1.22 3.66c-.118.17-.08.36.093.47.174.11.445.075.562-.092L8 9.378l1.938 3.94a.367.367 0 0 0 .5.12c.18-.098.26-.296.156-.468L9.406 9.28 9.344 7l3.5-1.25a.368.368 0 0 0 .125-.438c-.068-.152-.24-.237-.41-.218a.347.347 0 0 0-.16.062L8 5.844l-4.375-.688a.515.515 0 0 0-.22-.062z" color="#bebebe" fill="#bebebe" overflow="visible"/></svg>