<?xml version="1.0" encoding="UTF-8" standalone="no"?>
<svg
   height="16"
   width="16"
   version="1.1"
   id="svg1"
   xmlns="http://www.w3.org/2000/svg"
   xmlns:svg="http://www.w3.org/2000/svg">
  <defs
     id="defs1" />
  <g
     transform="translate(-972 -460)"
     id="g1"
     style="fill:#555761">
    <path
       color="#000"
       d="M974 461c-1.108 0-2 .892-2 2v10c0 1.108.892 2 2 2h12c1.108 0 2-.892 2-2v-10c0-1.108-.892-2-2-2zm4.5 1l2 3H979v3h5v-1.5l3 2-3 2V469h-5v2h1.5l-2 3-2-3h1.5v-2h-2v1.5l-3-2 3-2v1.5h2v-3h-1.5z"
       fill="#666"
       overflow="visible"
       style="marker:none;fill:#555761"
       id="path1" />
  </g>
</svg>
