<?xml version="1.0" encoding="UTF-8" standalone="no"?>
<svg
   xmlns:dc="http://purl.org/dc/elements/1.1/"
   xmlns:cc="http://creativecommons.org/ns#"
   xmlns:rdf="http://www.w3.org/1999/02/22-rdf-syntax-ns#"
   xmlns:svg="http://www.w3.org/2000/svg"
   xmlns="http://www.w3.org/2000/svg"
   xmlns:sodipodi="http://sodipodi.sourceforge.net/DTD/sodipodi-0.dtd"
   xmlns:inkscape="http://www.inkscape.org/namespaces/inkscape"
   id="svg4082"
   height="16"
   width="16"
   version="1.1"
   inkscape:version="0.91 r13725"
   sodipodi:docname="slow-symbolic.svg">
  <sodipodi:namedview
     pagecolor="#ffffff"
     bordercolor="#666666"
     borderopacity="1"
     objecttolerance="10"
     gridtolerance="10"
     guidetolerance="10"
     inkscape:pageopacity="0"
     inkscape:pageshadow="2"
     inkscape:window-width="3200"
     inkscape:window-height="1674"
     id="namedview6"
     showgrid="false"
     inkscape:zoom="30.847533"
     inkscape:cx="9.145722"
     inkscape:cy="4.3323782"
     inkscape:window-x="0"
     inkscape:window-y="60"
     inkscape:window-maximized="1"
     inkscape:current-layer="svg4082" />
  <defs
     id="defs4084" />
  <metadata
     id="metadata4087">
    <rdf:RDF>
      <cc:Work
         rdf:about="">
        <dc:format>image/svg+xml</dc:format>
        <dc:type
           rdf:resource="http://purl.org/dc/dcmitype/StillImage" />
        <dc:title />
      </cc:Work>
    </rdf:RDF>
  </metadata>
  <path
     inkscape:connector-curvature="0"
     id="path3349"
     d="m 1.1079677,12.324509 c -0.17957999,-0.07979 -0.30909999,-0.186618 -0.30909999,-0.254936 0,-0.06468 0.26139999,-0.45058 0.58088999,-0.85756 0.31949,-0.40698 0.58132,-0.790462 0.58184,-0.852183 6.6e-4,-0.07875 -0.22788,-0.185593 -0.76628,-0.358239 C 0.77333771,9.8662797 0.37241771,9.7122987 0.30436771,9.6594107 c -0.11397,-0.08859 -0.10787,-0.11029 0.0775,-0.275658 0.23699,-0.211461 0.69240999,-0.348689 1.05384999,-0.317549 0.31173,0.02686 0.32692,0.0011 0.47938,-0.81242 0.37554,-2.004018 2.01764,-3.520112 4.10223,-3.787449 1.91897,-0.246099 3.88112,0.773622 4.7799703,2.484125 0.24296,0.462361 0.38811,0.614387 0.41109,0.430564 0.005,-0.04 0.0145,-0.293648 0.0212,-0.563658 0.0235,-0.955032 0.43612,-1.664869 1.21388,-2.088175 0.30272,-0.164762 0.50579,-0.217113 0.93497,-0.241039 0.98378,-0.05484 1.7538,0.380772 2.17972,1.233111 0.26242,0.525149 0.27826,0.730003 0.0713,0.922773 -0.2439,0.227231 -1.02147,0.579936 -1.56441,0.709615 -0.80034,0.191156 -0.79281,0.185843 -0.89213,0.629627 -0.0898,0.401161 -0.46518,1.10412 -0.76053,1.424105 -0.0872,0.09446 -0.34754,0.300795 -0.57856,0.458525 -0.2646,0.1806563 -0.40111,0.3189573 -0.36889,0.3737313 0.0281,0.04782 0.34295,0.469676 0.69959,0.937453 0.37864,0.496631 0.62674,0.88561 0.59629,0.93488 -0.10503,0.16995 -0.65601,0.356972 -1.05633,0.358555 -0.29258,0.0012 -0.50955,-0.05105 -0.78719,-0.189397 -0.38953,-0.194111 -0.55926,-0.400434 -1.0619903,-1.290922 l -0.20019,-0.354601 -0.37341,0.04505 c -1.41219,0.170378 -2.15526,0.207056 -3.28262,0.162031 -0.68002,-0.02716 -1.40974,-0.07508 -1.62159,-0.106489 -0.25026,-0.0371 -0.41906,-0.02968 -0.48192,0.02119 -0.0532,0.04307 -0.22885,0.307403 -0.39029,0.587413 -0.33918,0.588267 -0.59655,0.855557 -0.97672,1.014362 -0.36422,0.152146 -1.03709,0.135727 -1.42057,-0.03466 z M 13.776268,5.9066707 c 0.0584,-0.167184 0.0434,-0.228617 -0.088,-0.36006 -0.21831,-0.218314 -0.55063,-0.11293 -0.58507,0.185542 -0.0321,0.277707 0.10808,0.424642 0.37957,0.397993 0.16866,-0.01656 0.24026,-0.07107 0.29353,-0.223475 z M 8.5082477,12.317884 c -0.36607,-0.145542 -0.85249,-0.74293 -0.74017,-0.909034 0.0579,-0.08557 1.29482,-0.309781 1.38024,-0.250179 0.0996,0.06947 0.52361,0.868687 0.52361,0.986867 0,0.225932 -0.74965,0.336958 -1.16368,0.172346 z"
     style="color:#000000;clip-rule:nonzero;display:inline;overflow:visible;visibility:visible;opacity:1;isolation:auto;mix-blend-mode:normal;color-interpolation:sRGB;color-interpolation-filters:linearRGB;solid-color:#000000;solid-opacity:1;fill:#bebebe;fill-opacity:1;fill-rule:nonzero;stroke:none;stroke-width:1;stroke-linecap:butt;stroke-linejoin:miter;stroke-miterlimit:4;stroke-dasharray:none;stroke-dashoffset:0;stroke-opacity:1;marker:none;color-rendering:auto;image-rendering:auto;shape-rendering:auto;text-rendering:auto;enable-background:accumulate"
     sodipodi:nodetypes="ssscssssssscssssssssssssssscsssssssssssssssss" />
</svg>
