<?xml version="1.0" encoding="UTF-8" standalone="no"?>
<!-- Created with Inkscape (http://www.inkscape.org/) -->
<svg id="svg2" xmlns="http://www.w3.org/2000/svg" height="22" width="22" version="1.0" xmlns:xlink="http://www.w3.org/1999/xlink">
 <defs id="defs4">
  <linearGradient id="linearGradient3598-8" y2="10" gradientUnits="userSpaceOnUse" x2="8" gradientTransform="translate(6,3)" y1="7" x1="8">
   <stop id="stop3594-1" style="stop-color:#3b7caf" offset="0"/>
   <stop id="stop3596-7" style="stop-color:#194c70" offset="1"/>
  </linearGradient>
  <radialGradient id="radialGradient5631" gradientUnits="userSpaceOnUse" cy="19.437" cx="7.955" gradientTransform="matrix(1 0 0 .28767 0 13.845)" r="6.4523">
   <stop id="stop5627" offset="0"/>
   <stop id="stop5629" style="stop-opacity:0" offset="1"/>
  </radialGradient>
  <linearGradient id="linearGradient9150" y2="28.91" gradientUnits="userSpaceOnUse" x2="11.418" gradientTransform="matrix(.48020 0 0 .57495 304.7 175.06)" y1="19.608" x1="15.332">
   <stop id="stop2866" style="stop-color:#888a85" offset="0"/>
   <stop id="stop2868" style="stop-color:#9e9e92" offset=".42991"/>
   <stop id="stop2870" style="stop-color:#555753" offset="1"/>
  </linearGradient>
  <linearGradient id="linearGradient3608-2">
   <stop id="stop3610-7" style="stop-color:#1b1b1b" offset="0"/>
   <stop id="stop3612-2" style="stop-color:#6f6f6f" offset="1"/>
  </linearGradient>
  <linearGradient id="linearGradient9147" y2="25.947" gradientUnits="userSpaceOnUse" x2="3.8891" gradientTransform="matrix(.49477 0 0 .49029 305.31 177.44)" y1="18.937" x1="3.8891">
   <stop id="stop10874" style="stop-color:#888a85" offset="0"/>
   <stop id="stop10876" style="stop-color:#9e9e92" offset=".25301"/>
   <stop id="stop10878" style="stop-color:#555753" offset="1"/>
  </linearGradient>
  <linearGradient id="linearGradient9143" y2="33.125" gradientUnits="userSpaceOnUse" x2="10.875" gradientTransform="matrix(.37727 0 0 .47270 306.34 177.76)" y1="19.75" x1="12.25">
   <stop id="stop21600" style="stop-color:#fff" offset="0"/>
   <stop id="stop21602" style="stop-color:#fff;stop-opacity:0" offset="1"/>
  </linearGradient>
  <linearGradient id="linearGradient10047" y2="34.165" gradientUnits="userSpaceOnUse" x2="-.17606" gradientTransform="matrix(.86311 0 0 .80103 305.96 164.7)" y1="24.093" x1=".032229">
   <stop id="stop3639" style="stop-color:#888a85" offset="0"/>
   <stop id="stop3641" style="stop-color:#d4d4d0" offset=".50939"/>
   <stop id="stop3643" style="stop-color:#555753" offset="1"/>
  </linearGradient>
  <linearGradient id="linearGradient9130" y2="32.599" gradientUnits="userSpaceOnUse" x2="20.46" gradientTransform="matrix(.99809 0 0 .58845 294.08 174.76)" y1="13.925" x1="20.46">
   <stop id="stop3761" style="stop-color:#888a85" offset="0"/>
   <stop id="stop3763" style="stop-color:#d4d4d0" offset=".46441"/>
   <stop id="stop3765" style="stop-color:#555753" offset="1"/>
  </linearGradient>
  <linearGradient id="linearGradient4248" y2="187" gradientUnits="userSpaceOnUse" x2="311.98" gradientTransform="translate(.99999)" y1="187" x1="313.98">
   <stop id="stop4244" style="stop-color:#1b1b1b" offset="0"/>
   <stop id="stop4246" style="stop-opacity:0" offset="1"/>
  </linearGradient>
  <linearGradient id="linearGradient3635" y2="184" xlink:href="#linearGradient3608-2" gradientUnits="userSpaceOnUse" x2="309.98" y1="193" x1="309.98"/>
  <linearGradient id="linearGradient3651" y2="184.19" xlink:href="#linearGradient3608-2" gradientUnits="userSpaceOnUse" x2="310.18" y1="192.99" x1="310.18"/>
  <linearGradient id="linearGradient3659" y2="184" xlink:href="#linearGradient3608-2" gradientUnits="userSpaceOnUse" x2="307.48" y1="193" x1="307.48"/>
 </defs>
 <g id="g2855" transform="translate(-2.5226e-7 .000476)">
  <rect id="rect2384-5-2" style="opacity:.4;fill:#606060" rx="0" ry="0" height="15" width="2" y="4" x="19"/>
  <rect id="rect3158-0-6" style="opacity:.4;fill:#606060" rx="0" ry="0" height="9" width="2" y="7" x="16"/>
  <rect id="rect3162-9-1" style="fill:url(#linearGradient3598-8)" rx="0" ry="0" height="3" width="2" y="10" x="13"/>
  <g id="g4019" style="enable-background:new" transform="translate(-303.99 -177)">
   <path id="path5623" style="opacity:.16860;enable-background:new;fill:url(#radialGradient5631)" d="m14.407 19.437a6.4523 1.8562 0 1 1 -12.905 0 6.4523 1.8562 0 1 1 12.905 0z" transform="matrix(1.0205 0 0 1.0205 302.38 176.53)"/>
   <path id="path1887" style="fill-rule:evenodd;stroke:url(#linearGradient3651);enable-background:new;fill:url(#linearGradient9150)" d="m314.06 181c-0.72031 3.1622-5.6013 2.613-7.7622 7.5 2.1609 4.887 7.0421 4.3378 7.7624 7.5l-0.00019-15z"/>
   <rect id="rect1898" style="stroke-width:1.0083;stroke-dashoffset:1.2;stroke:url(#linearGradient3659);stroke-linecap:round;enable-background:new;fill:url(#linearGradient9147)" rx="1.1751" ry="1.4383" height="7.9917" width="3.9916" y="184.5" x="305.49"/>
   <path id="path21595" style="opacity:0.42;stroke:url(#linearGradient9143);enable-background:new;fill:none" d="m314.39 182.72c-1.5478 2.0873-5.2405 2.5347-6.789 5.6764 1.3847 3.6 6.3847 4.6 6.6407 5.998l-0.16058-11.434 0.30887-0.24043z"/>
   <rect id="rect1881" style="stroke-width:.99899;stroke-dashoffset:1.2;stroke:url(#linearGradient3635);stroke-linecap:round;enable-background:new;fill:url(#linearGradient10047)" rx=".39151" ry=".52908" height="8.001" width="2.001" y="184.5" x="307.48"/>
   <path id="path4732" style="opacity:0.42;fill-rule:evenodd;enable-background:new;fill:#fff" d="m309.98 188 3.5505 0.79775 0.44943-4.7978-4 3v1z"/>
   <rect id="rect1889" style="stroke-dashoffset:1.2;stroke:url(#linearGradient4248);stroke-linecap:round;enable-background:new;fill:url(#linearGradient9130)" rx=".87767" ry=".58845" height="16.047" width="1.9159" y="180.46" x="313.54"/>
   <path id="path5619" style="opacity:.6;enable-background:new;fill:#fff" d="m4 10.5a0.5 0.5 0 1 1 -1 0 0.5 0.5 0 1 1 1 0z" transform="translate(304.98 176)"/>
  </g>
 </g>
</svg>
