<?xml version="1.0" encoding="UTF-8" standalone="no"?>
<!-- Created with Inkscape (http://www.inkscape.org/) -->
<svg
   xmlns:dc="http://purl.org/dc/elements/1.1/"
   xmlns:cc="http://creativecommons.org/ns#"
   xmlns:rdf="http://www.w3.org/1999/02/22-rdf-syntax-ns#"
   xmlns:svg="http://www.w3.org/2000/svg"
   xmlns="http://www.w3.org/2000/svg"
   xmlns:xlink="http://www.w3.org/1999/xlink"
   xmlns:sodipodi="http://sodipodi.sourceforge.net/DTD/sodipodi-0.dtd"
   xmlns:inkscape="http://www.inkscape.org/namespaces/inkscape"
   width="48px"
   height="48px"
   id="svg2922"
   sodipodi:version="0.32"
   inkscape:version="0.46"
   sodipodi:docname="media-cdr.svg"
   inkscape:output_extension="org.inkscape.output.svg.inkscape">
  <defs
     id="defs2924">
    <linearGradient
       inkscape:collect="always"
       id="linearGradient6028">
      <stop
         style="stop-color:#ffffff;stop-opacity:1;"
         offset="0"
         id="stop6030" />
      <stop
         style="stop-color:#ffffff;stop-opacity:0;"
         offset="1"
         id="stop6032" />
    </linearGradient>
    <linearGradient
       inkscape:collect="always"
       xlink:href="#linearGradient6028"
       id="linearGradient3602"
       gradientUnits="userSpaceOnUse"
       x1="28.702885"
       y1="31.494707"
       x2="17.742729"
       y2="18.366575" />
    <linearGradient
       inkscape:collect="always"
       id="linearGradient6036">
      <stop
         style="stop-color:#ffffff;stop-opacity:1;"
         offset="0"
         id="stop6038" />
      <stop
         style="stop-color:#ffffff;stop-opacity:0;"
         offset="1"
         id="stop6040" />
    </linearGradient>
    <linearGradient
       inkscape:collect="always"
       xlink:href="#linearGradient6036"
       id="linearGradient3600"
       gradientUnits="userSpaceOnUse"
       gradientTransform="translate(-8.452e-2,-1.333323)"
       x1="10.501720"
       y1="3.6100161"
       x2="48.798885"
       y2="54.698483" />
    <linearGradient
       inkscape:collect="always"
       id="linearGradient4409">
      <stop
         style="stop-color:#ffffff;stop-opacity:1;"
         offset="0"
         id="stop4411" />
      <stop
         style="stop-color:#ffffff;stop-opacity:0;"
         offset="1"
         id="stop4413" />
    </linearGradient>
    <linearGradient
       inkscape:collect="always"
       xlink:href="#linearGradient4409"
       id="linearGradient3598"
       gradientUnits="userSpaceOnUse"
       gradientTransform="translate(0.5,-0.353553)"
       x1="25.985928"
       y1="24.919628"
       x2="15.889072"
       y2="11.669628" />
    <linearGradient
       id="aigrd2"
       gradientUnits="userSpaceOnUse"
       x1="12.2744"
       y1="32.4165"
       x2="35.3912"
       y2="14.2033">
      <stop
         offset="0"
         style="stop-color:#FBFBFB"
         id="stop3043" />
      <stop
         offset="0.5"
         style="stop-color:#B6B6B6"
         id="stop3045" />
      <stop
         offset="1"
         style="stop-color:#E4E4E4"
         id="stop3047" />
    </linearGradient>
    <linearGradient
       inkscape:collect="always"
       xlink:href="#aigrd2"
       id="linearGradient3596"
       gradientUnits="userSpaceOnUse"
       gradientTransform="matrix(1.190476,0,0,1.190476,-4.308944,-3.833324)"
       x1="12.2744"
       y1="32.4165"
       x2="35.3912"
       y2="14.2033" />
    <linearGradient
       id="aigrd1"
       gradientUnits="userSpaceOnUse"
       x1="14.9966"
       y1="11.1885"
       x2="32.511"
       y2="34.3075">
      <stop
         offset="0"
         style="stop-color:#EBEBEB"
         id="stop3034" />
      <stop
         offset="0.5"
         style="stop-color:#FFFFFF"
         id="stop3036" />
      <stop
         offset="1"
         style="stop-color:#EBEBEB"
         id="stop3038" />
    </linearGradient>
    <linearGradient
       inkscape:collect="always"
       xlink:href="#aigrd1"
       id="linearGradient3594"
       gradientUnits="userSpaceOnUse"
       gradientTransform="matrix(1.190476,0,0,1.190476,-4.308944,-3.833323)"
       x1="14.9966"
       y1="11.1885"
       x2="32.511"
       y2="34.3075" />
    <radialGradient
       inkscape:collect="always"
       xlink:href="#linearGradient23419"
       id="radialGradient3592"
       gradientUnits="userSpaceOnUse"
       gradientTransform="matrix(1,0,0,0.25,0,31.22703)"
       cx="23.334524"
       cy="41.63604"
       fx="23.334524"
       fy="41.63604"
       r="22.627417" />
    <linearGradient
       inkscape:collect="always"
       id="linearGradient23419">
      <stop
         style="stop-color:#000000;stop-opacity:1;"
         offset="0"
         id="stop23421" />
      <stop
         style="stop-color:#000000;stop-opacity:0;"
         offset="1"
         id="stop23423" />
    </linearGradient>
    <radialGradient
       inkscape:collect="always"
       xlink:href="#linearGradient23419"
       id="radialGradient3610"
       gradientUnits="userSpaceOnUse"
       gradientTransform="matrix(1,0,0,0.25,0,31.22703)"
       cx="23.334524"
       cy="41.63604"
       fx="23.334524"
       fy="41.63604"
       r="22.627417" />
  </defs>
  <sodipodi:namedview
     id="base"
     pagecolor="#ffffff"
     bordercolor="#666666"
     borderopacity="1.0"
     inkscape:pageopacity="0.0"
     inkscape:pageshadow="2"
     inkscape:zoom="7"
     inkscape:cx="24"
     inkscape:cy="24"
     inkscape:current-layer="layer1"
     showgrid="true"
     inkscape:grid-bbox="true"
     inkscape:document-units="px"
     inkscape:window-width="640"
     inkscape:window-height="679"
     inkscape:window-x="798"
     inkscape:window-y="24" />
  <metadata
     id="metadata2927">
    <rdf:RDF>
      <cc:Work
         rdf:about="">
        <dc:format>image/svg+xml</dc:format>
        <dc:type
           rdf:resource="http://purl.org/dc/dcmitype/StillImage" />
      </cc:Work>
    </rdf:RDF>
  </metadata>
  <g
     id="layer1"
     inkscape:label="Layer 1"
     inkscape:groupmode="layer">
    <g
       inkscape:label="Layer 1"
       id="g3582"
       transform="translate(-0.2500042,1.7904419)">
      <path
         transform="matrix(1,0,0,1.066291,0.91548,-4.218429)"
         inkscape:r_cy="true"
         inkscape:r_cx="true"
         d="M 45.961941,41.63604 A 22.627417,5.6568542 0 1 1 0.70710754,41.63604 A 22.627417,5.6568542 0 1 1 45.961941,41.63604 z"
         sodipodi:ry="5.6568542"
         sodipodi:rx="22.627417"
         sodipodi:cy="41.63604"
         sodipodi:cx="23.334524"
         id="path3584"
         style="opacity:0.55;fill:url(#radialGradient3592);fill-opacity:1;fill-rule:evenodd;stroke:none;stroke-width:2;stroke-linecap:butt;stroke-linejoin:miter;marker:none;marker-start:none;marker-mid:none;marker-end:none;stroke-miterlimit:4;stroke-dasharray:none;stroke-dashoffset:0;stroke-opacity:1;visibility:visible;display:inline;overflow:visible"
         sodipodi:type="arc" />
      <path
         style="fill:url(#linearGradient3594);fill-rule:nonzero;stroke:none;stroke-miterlimit:4"
         d="M 24.262486,2.8333435 C 12.714866,2.8333435 3.4291519,12.119058 3.4291519,23.666677 C 3.4291519,35.214297 12.714866,44.500012 24.262486,44.500012 C 35.810106,44.500012 45.095821,35.214297 45.095821,23.666677 C 45.095821,12.119058 35.810106,2.8333435 24.262486,2.8333435 L 24.262486,2.8333435 z M 24.262486,28.666678 C 21.524391,28.666678 19.262486,26.404773 19.262486,23.666677 C 19.262486,20.928582 21.524391,18.666677 24.262486,18.666677 C 27.000581,18.666677 29.262486,20.928582 29.262486,23.666677 C 29.262486,26.404773 27.000581,28.666678 24.262486,28.666678 z"
         id="path3040"
         inkscape:r_cx="true"
         inkscape:r_cy="true" />
      <path
         style="fill:url(#linearGradient3596);fill-rule:nonzero;stroke:#808080;stroke-miterlimit:4;stroke-opacity:1"
         d="M 24.262486,2.8333431 C 12.714866,2.8333431 3.429152,12.119058 3.429152,23.666677 C 3.429152,35.214297 12.714866,44.500012 24.262486,44.500012 C 35.810106,44.500012 45.095821,35.214297 45.095821,23.666677 C 45.095821,12.119058 35.810106,2.8333431 24.262486,2.8333431 L 24.262486,2.8333431 z M 24.262486,28.666678 C 21.524391,28.666678 19.262486,26.404773 19.262486,23.666677 C 19.262486,20.928582 21.524391,18.666677 24.262486,18.666677 C 27.000581,18.666677 29.262486,20.928582 29.262486,23.666677 C 29.262486,26.404773 27.000581,28.666678 24.262486,28.666678 z"
         id="path3049"
         inkscape:r_cx="true"
         inkscape:r_cy="true" />
      <path
         sodipodi:nodetypes="csccssccsc"
         id="path3531"
         d="M 23.410538,3.4587825 C 12.648847,3.864693 4.1109275,12.676135 4.1109275,23.541217 C 4.1109275,28.466722 5.858051,32.943607 8.7777601,36.427697 L 19.895113,27.017403 C 19.173772,26.174062 18.845878,24.974235 18.845878,23.791217 C 18.845878,20.400827 21.150167,18.223842 24.413253,18.223842 C 25.897178,18.223842 27.38434,18.897269 28.271719,19.97014 L 39.639072,10.684846 C 35.963901,6.2606919 30.394797,3.4587825 24.163253,3.4587825 C 23.902492,3.4587825 23.668819,3.4490406 23.410538,3.4587825 z"
         style="fill:url(#linearGradient3598);fill-opacity:1;fill-rule:nonzero;stroke:none;stroke-miterlimit:4;stroke-opacity:1" />
      <path
         style="opacity:0.51098902;fill:#eeeeec;fill-rule:nonzero;stroke:none;stroke-miterlimit:4"
         d="M 24.262486,13.562512 C 18.6199,13.562512 14.15832,18.155315 14.15832,23.666677 C 14.15832,29.309265 18.751124,33.770843 24.262486,33.770843 C 29.905072,33.770843 34.366652,29.178041 34.366652,23.666677 C 34.366652,18.024091 29.773848,13.562512 24.262486,13.562512 L 24.262486,13.562512 z M 24.262486,29.178041 C 21.244359,29.178041 18.751124,26.684806 18.751124,23.666677 C 18.751124,20.64855 21.244359,18.155315 24.262486,18.155315 C 27.280613,18.155315 29.773848,20.64855 29.773848,23.666677 C 29.773848,26.684806 27.280613,29.178041 24.262486,29.178041 z"
         id="path3051"
         inkscape:r_cx="true"
         inkscape:r_cy="true" />
      <path
         sodipodi:nodetypes="cccccc"
         id="path5264"
         d="M 24.262482,3.8690421 C 13.288938,3.8690421 4.4648511,12.693131 4.4648511,23.666674 C 4.4648511,34.640218 13.288938,43.464305 24.262482,43.464305 C 35.236026,43.464305 44.060113,34.640218 44.060113,23.666674 C 44.060113,12.693131 35.236026,3.8690421 24.262482,3.8690421 L 24.262482,3.8690421 z"
         style="opacity:0.54644811;fill:none;fill-rule:nonzero;stroke:url(#linearGradient3600);stroke-miterlimit:4;stroke-opacity:1"
         inkscape:r_cx="true"
         inkscape:r_cy="true" />
      <path
         transform="translate(3.868e-3,-1.244934)"
         d="M 30.405591,24.930641 A 6.0987959,6.0987959 0 1 1 18.207999,24.930641 A 6.0987959,6.0987959 0 1 1 30.405591,24.930641 z"
         sodipodi:ry="6.0987959"
         sodipodi:rx="6.0987959"
         sodipodi:cy="24.930641"
         sodipodi:cx="24.306795"
         id="path6026"
         style="opacity:0.67213111;fill:none;fill-opacity:0.31638417;fill-rule:nonzero;stroke:url(#linearGradient3602);stroke-width:0.93053865;stroke-linecap:butt;stroke-linejoin:miter;marker:none;marker-start:none;marker-mid:none;marker-end:none;stroke-miterlimit:4;stroke-dashoffset:0;stroke-opacity:1;visibility:visible;display:inline;overflow:visible"
         sodipodi:type="arc"
         inkscape:r_cx="true"
         inkscape:r_cy="true" />
    </g>
    <path
       sodipodi:type="arc"
       style="opacity:0.55000000000000004;fill:url(#radialGradient3610);fill-opacity:1;fill-rule:evenodd;stroke:none;stroke-width:2;stroke-linecap:butt;stroke-linejoin:miter;marker:none;marker-start:none;marker-mid:none;marker-end:none;stroke-miterlimit:4;stroke-dasharray:none;stroke-dashoffset:0;stroke-opacity:1;visibility:visible;display:inline;overflow:visible"
       id="path23417"
       sodipodi:cx="23.334524"
       sodipodi:cy="41.63604"
       sodipodi:rx="22.627417"
       sodipodi:ry="5.6568542"
       d="M 45.961941,41.63604 A 22.627417,5.6568542 0 1 1 0.70710754,41.63604 A 22.627417,5.6568542 0 1 1 45.961941,41.63604 z"
       inkscape:r_cx="true"
       inkscape:r_cy="true"
       transform="matrix(0.8695652,0,0,0.940845,3.926504,-1.0750822)" />
    <path
       style="font-size:13.29750061000000017px;font-style:italic;font-variant:normal;font-weight:bold;font-stretch:normal;opacity:0.29999999999999999;fill:#000000;fill-opacity:1;stroke:#666666;stroke-width:2.49999976000000013;stroke-linecap:butt;stroke-linejoin:miter;stroke-miterlimit:4;stroke-dasharray:none;stroke-opacity:1;font-family:Arial;-inkscape-font-specification:Arial Bold Italic"
       d="M 13.657555,38.277106 C 14.337702,38.372938 15.017848,38.468769 15.697997,38.564601 C 15.046666,40.473351 12.993185,41.910276 10.819519,41.735615 C 9.0763055,41.780715 7.5056545,40.519543 7.3412344,38.903614 C 6.8919125,36.42105 8.1078604,33.395448 10.864803,32.526976 C 12.694822,31.890515 15.199089,32.320308 15.981794,34.135282 C 16.438834,34.874687 16.305,35.452024 15.331718,35.311662 C 14.445501,35.57626 14.1683,35.214676 13.928471,34.451758 C 12.796396,33.28209 10.617613,34.058346 9.9737534,35.373232 C 9.2674739,36.670057 8.7805427,38.528651 9.9392351,39.698967 C 11.242989,40.832785 13.295581,39.722031 13.657555,38.277105 L 13.657555,38.277106 z M 16.447857,41.577072 C 17.18781,38.522937 17.927762,35.468801 18.667715,32.414666 C 20.306203,32.465966 21.977744,32.275427 23.584424,32.59709 C 25.603437,33.146554 26.184005,35.371206 25.848805,37.108053 C 25.550619,39.335893 23.607772,41.496854 21.068828,41.542697 C 19.529283,41.607578 17.987918,41.564664 16.447857,41.577072 z M 18.834209,40.102086 C 20.228872,40.080933 21.928267,40.318904 22.840008,39.068701 C 23.835913,37.859049 24.245144,36.09164 23.567564,34.695892 C 22.893653,33.631323 21.442485,33.992762 20.324208,33.92715 C 19.827541,35.985461 19.330875,38.043774 18.834209,40.102086 z M 26.798354,37.408366 C 28.047501,37.408366 29.296651,37.408366 30.545801,37.408366 C 30.406004,37.985443 30.266208,38.56252 30.12641,39.139598 C 28.877261,39.139598 27.628112,39.139598 26.378963,39.139598 C 26.518759,38.56252 26.658556,37.985443 26.798354,37.408366 z M 33.045621,41.577072 C 32.368344,41.577072 31.691067,41.577072 31.013791,41.577072 C 31.753743,38.522937 32.493696,35.468801 33.233649,32.414666 C 35.097882,32.447863 36.973562,32.335177 38.82783,32.50012 C 40.626395,32.671137 41.177564,34.79507 40.418904,36.116877 C 40.195323,37.291579 37.97054,37.440207 37.841779,37.858752 C 38.792989,38.938527 39.26705,40.300691 39.834086,41.577072 C 39.107472,41.577072 38.380857,41.577072 37.654243,41.577072 C 37.185172,40.41385 36.835819,39.156583 36.026574,38.154061 C 35.568576,37.734881 34.366805,37.617419 33.929376,37.926347 C 33.634791,39.143255 33.340207,40.360164 33.045621,41.577072 z M 34.296645,36.408375 C 35.540443,36.353064 36.897077,36.60168 38.025834,35.994321 C 39.455292,35.1436 38.354238,33.49992 36.887609,33.945899 C 36.221682,33.945899 35.555752,33.945899 34.889825,33.945898 C 34.692098,34.766724 34.494372,35.587549 34.296645,36.408375 z"
       id="text3476" />
    <path
       id="text3482"
       d="M 13.657367,37.280307 C 14.337383,37.37628 15.017401,37.472254 15.697418,37.568228 C 15.062883,39.403407 13.145272,40.833507 11.042917,40.74788 C 9.3171304,40.856308 7.6285959,39.731116 7.3825066,38.109451 C 6.8486866,35.626352 7.974207,32.546718 10.703602,31.578171 C 12.558771,30.863691 15.171149,31.260685 15.981159,33.132373 C 16.406905,33.839777 16.342709,34.451872 15.378396,34.30624 C 14.733927,34.385245 14.070897,34.573431 14.099139,33.711027 C 13.388469,32.414768 11.263167,32.774887 10.406923,33.788288 C 9.3769011,35.058656 8.8176641,36.958865 9.6651063,38.405391 C 10.54067,39.687505 12.722888,39.196381 13.35722,37.915515 C 13.479731,37.713498 13.577776,37.499442 13.657367,37.280307 z M 16.447134,40.585142 C 17.186945,37.5265 17.926756,34.467858 18.666567,31.409216 C 20.216634,31.44847 21.785734,31.30973 23.31941,31.526583 C 25.27334,31.876947 26.114946,33.897008 25.905396,35.580457 C 25.810991,37.916302 23.961081,40.363151 21.299927,40.531352 C 19.684371,40.629389 18.064199,40.567866 16.447134,40.585142 z M 18.833028,39.107981 C 20.227926,39.087485 21.926099,39.32477 22.838058,38.07307 C 23.835282,36.861277 24.237524,35.092845 23.565476,33.693809 C 22.892609,32.630299 21.440893,32.988146 20.322742,32.923932 C 19.82617,34.985282 19.3296,37.046631 18.833028,39.107981 z M 26.795647,36.410283 C 28.044556,36.410283 29.293466,36.410283 30.542376,36.410283 C 30.402605,36.988212 30.262836,37.566141 30.123065,38.14407 C 28.874156,38.14407 27.625246,38.14407 26.376336,38.14407 C 26.516106,37.566141 26.655876,36.988212 26.795647,36.410283 z M 33.041716,40.585142 C 32.364569,40.585142 31.687422,40.585142 31.010275,40.585142 C 31.750086,37.5265 32.489897,34.467858 33.229709,31.409216 C 35.093611,31.442205 36.968866,31.329987 38.822815,31.494797 C 40.405609,31.635085 41.053461,33.359746 40.610064,34.633371 C 40.59055,36.087176 38.146129,36.459924 37.836954,36.861336 C 38.790369,37.940677 39.260126,39.308363 39.828878,40.585142 C 39.102403,40.585142 38.375928,40.585142 37.649453,40.585142 C 37.153203,39.382763 36.826695,38.041754 35.908653,37.05312 C 35.396111,36.71918 34.46823,36.716548 33.943475,36.85384 C 33.642888,38.097607 33.342302,39.341375 33.041716,40.585142 z M 34.292499,35.408818 C 35.536456,35.354175 36.892158,35.601872 38.020972,34.994153 C 39.443244,34.149621 38.360122,32.49811 36.894801,32.94271 C 36.225056,32.94271 35.555312,32.94271 34.885568,32.94271 C 34.687878,33.764747 34.490189,34.586782 34.292499,35.408818 z"
       style="font-size:14px;font-style:italic;font-variant:normal;font-weight:bold;font-stretch:normal;fill:#000000;fill-opacity:1;stroke:#666666;stroke-width:2.49999976000000013;stroke-linecap:butt;stroke-linejoin:miter;stroke-miterlimit:4;stroke-dasharray:none;stroke-opacity:1;font-family:Arial;-inkscape-font-specification:Arial Bold Italic" />
    <path
       id="text3486"
       d="M 13.657367,37.280307 C 14.337383,37.37628 15.017401,37.472254 15.697418,37.568228 C 15.062883,39.403407 13.145272,40.833507 11.042917,40.74788 C 9.3171304,40.856308 7.6285959,39.731116 7.3825066,38.109451 C 6.8486866,35.626352 7.974207,32.546718 10.703602,31.578171 C 12.558771,30.863691 15.171149,31.260685 15.981159,33.132373 C 16.406905,33.839777 16.342709,34.451872 15.378396,34.30624 C 14.733927,34.385245 14.070897,34.573431 14.099139,33.711027 C 13.388469,32.414768 11.263167,32.774887 10.406923,33.788288 C 9.3769011,35.058656 8.8176641,36.958865 9.6651063,38.405391 C 10.54067,39.687505 12.722888,39.196381 13.35722,37.915515 C 13.479731,37.713498 13.577776,37.499442 13.657367,37.280307 z M 16.447134,40.585142 C 17.186945,37.5265 17.926756,34.467858 18.666567,31.409216 C 20.216634,31.44847 21.785734,31.30973 23.31941,31.526583 C 25.27334,31.876947 26.114946,33.897008 25.905396,35.580457 C 25.810991,37.916302 23.961081,40.363151 21.299927,40.531352 C 19.684371,40.629389 18.064199,40.567866 16.447134,40.585142 z M 18.833028,39.107981 C 20.227926,39.087485 21.926099,39.32477 22.838058,38.07307 C 23.835282,36.861277 24.237524,35.092845 23.565476,33.693809 C 22.892609,32.630299 21.440893,32.988146 20.322742,32.923932 C 19.82617,34.985282 19.3296,37.046631 18.833028,39.107981 z M 26.795647,36.410283 C 28.044556,36.410283 29.293466,36.410283 30.542376,36.410283 C 30.402605,36.988212 30.262836,37.566141 30.123065,38.14407 C 28.874156,38.14407 27.625246,38.14407 26.376336,38.14407 C 26.516106,37.566141 26.655876,36.988212 26.795647,36.410283 z M 33.041716,40.585142 C 32.364569,40.585142 31.687422,40.585142 31.010275,40.585142 C 31.750086,37.5265 32.489897,34.467858 33.229709,31.409216 C 35.093611,31.442205 36.968866,31.329987 38.822815,31.494797 C 40.405609,31.635085 41.053461,33.359746 40.610064,34.633371 C 40.59055,36.087176 38.146129,36.459924 37.836954,36.861336 C 38.790369,37.940677 39.260126,39.308363 39.828878,40.585142 C 39.102403,40.585142 38.375928,40.585142 37.649453,40.585142 C 37.153203,39.382763 36.826695,38.041754 35.908653,37.05312 C 35.396111,36.71918 34.46823,36.716548 33.943475,36.85384 C 33.642888,38.097607 33.342302,39.341375 33.041716,40.585142 z M 34.292499,35.408818 C 35.536456,35.354175 36.892158,35.601872 38.020972,34.994153 C 39.443244,34.149621 38.360122,32.49811 36.894801,32.94271 C 36.225056,32.94271 35.555312,32.94271 34.885568,32.94271 C 34.687878,33.764747 34.490189,34.586782 34.292499,35.408818 z"
       style="font-size:14px;font-style:italic;font-variant:normal;font-weight:bold;font-stretch:normal;fill:#ffffff;fill-opacity:1;stroke:none;stroke-width:1px;stroke-linecap:butt;stroke-linejoin:miter;stroke-opacity:1;font-family:Arial;-inkscape-font-specification:Arial Bold Italic" />
  </g>
</svg>
