<?xml version="1.0" encoding="UTF-8" standalone="no"?>
<!-- Created with Inkscape (http://www.inkscape.org/) -->
<svg id="svg2679" xmlns="http://www.w3.org/2000/svg" height="48" width="48" version="1.1" xmlns:xlink="http://www.w3.org/1999/xlink">
 <defs id="defs2681">
  <linearGradient id="linearGradient3165">
   <stop id="stop3167" style="stop-color:#1e1e1e" offset="0"/>
   <stop id="stop3173" style="stop-color:#8d8d8d" offset=".26636"/>
   <stop id="stop3169" style="stop-color:#eee" offset="1"/>
  </linearGradient>
  <radialGradient id="radialGradient4192" gradientUnits="userSpaceOnUse" cy="45" cx="25" gradientTransform="matrix(1 0 0 .15 0 38.25)" r="20">
   <stop id="stop6674" offset="0"/>
   <stop id="stop6676" style="stop-opacity:0" offset="1"/>
  </radialGradient>
  <linearGradient id="linearGradient4195" y2="23.377" xlink:href="#linearGradient3165" gradientUnits="userSpaceOnUse" x2="28.415" gradientTransform="matrix(1.0726 0 0 1.0995 -1.2539 -7.6196)" y1="25.605" x1="26.546"/>
  <linearGradient id="linearGradient4285" y2="25.907" gradientUnits="userSpaceOnUse" x2="14.221" gradientTransform="matrix(1.0726 0 0 1.0995 -3.4604 -.66657)" y1="28.648" x1="17.676">
   <stop id="stop3830" style="stop-color:#fff;stop-opacity:.74902" offset="0"/>
   <stop id="stop3328" style="stop-color:#fff;stop-opacity:0" offset="1"/>
  </linearGradient>
  <radialGradient id="radialGradient4288" gradientUnits="userSpaceOnUse" cy="15.931" cx="22.68" gradientTransform="matrix(-.62443 1.494 -.56278 -.25924 46.027 -12.424)" r="17.407">
   <stop id="stop3789" style="stop-color:#3c3c3c" offset="0"/>
   <stop id="stop3791" style="stop-color:#1e1e1e" offset="1"/>
  </radialGradient>
  <radialGradient id="radialGradient4463" gradientUnits="userSpaceOnUse" cy="11.218" cx="37.972" gradientTransform="matrix(1.0812 .020604 -.019475 1.1083 -2.6578 -6.7467)" r="10.024">
   <stop id="stop3451" style="stop-color:#fff" offset="0"/>
   <stop id="stop3453" style="stop-color:#9b9b9b;stop-opacity:0" offset="1"/>
  </radialGradient>
  <linearGradient id="linearGradient4466" y2="23.119" spreadMethod="reflect" gradientUnits="userSpaceOnUse" x2="39" gradientTransform="matrix(.97777 .018633 -.017612 1.0023 1.3377 -5.444)" y1="17.334" x1="34.204">
   <stop id="stop3181" style="stop-color:#fff" offset="0"/>
   <stop id="stop3183" style="stop-color:#fff;stop-opacity:0" offset="1"/>
  </linearGradient>
  <linearGradient id="linearGradient4469" y2="16.081" xlink:href="#linearGradient3165" gradientUnits="userSpaceOnUse" x2="34.59" gradientTransform="matrix(.97777 .018633 -.017612 1.0023 1.3377 -5.444)" y1="18.646" x1="32.303"/>
  <radialGradient id="radialGradient4472" gradientUnits="userSpaceOnUse" cy="20.938" cx="31.002" gradientTransform="matrix(17.957 .34220 -.32860 18.7 -508.5 -395.59)" r=".91429">
   <stop id="stop3687" style="stop-color:#fff;stop-opacity:0" offset="0"/>
   <stop id="stop3689" style="stop-opacity:.49804" offset=".77083"/>
   <stop id="stop3691" offset="1"/>
  </radialGradient>
  <radialGradient id="radialGradient4718" gradientUnits="userSpaceOnUse" cy="11.218" cx="37.972" gradientTransform="matrix(1.0812 .020604 -.019475 1.1083 -2.6578 -6.7467)" r="10.024">
   <stop id="stop3157" style="stop-color:#fff" offset="0"/>
   <stop id="stop3159" style="stop-color:#9b9b9b" offset="1"/>
  </radialGradient>
 </defs>
 <path id="path3412" style="opacity:.4;fill:url(#radialGradient4192)" d="m45 45a20 3 0 1 1 -40 0 20 3 0 1 1 40 0z" transform="matrix(.5 0 0 .83333 -.5 6)"/>
 <path id="path3320" style="fill:url(#radialGradient4288);fill-rule:evenodd" d="m23.205 15.429-19.205 23.707c0.9807 5.613 6.538 5.864 6.538 5.864l22.474-20.859-9.807-8.712z"/>
 <path id="path3322" style="opacity:0.24;fill:url(#linearGradient4285);fill-rule:evenodd" d="m25.026 19.16c-18.881 22.042-19.706 22.487-19.706 22.487s-1.1214-1.1786-1.2031-2.4351l18.632-22.954s0.64651 1.359 2.2763 2.9025z"/>
 <path id="path2383" style="fill:url(#radialGradient4718)" d="m43.998 13.247a10.049 9.8028 89.331 1 1 -19.602 -0.374 10.049 9.8028 89.331 1 1 19.602 0.374z"/>
 <path id="path2561" style="opacity:.1" d="m33.156 3.1875c-1.49 0.2056-0.076 2.6909 0.775 1.3206 0.34-0.5379-0.077-1.4517-0.775-1.3206zm1.6875 0.03125c-1.49 0.2055-0.077 2.6908 0.775 1.3206 0.339-0.538-0.077-1.4518-0.775-1.3206zm-3.313 0.7187c-1.437 0.2294-0.067 2.6111 0.779 1.3669 0.402-0.5395-0.052-1.5314-0.779-1.3669zm5.031 0.0937c-1.489 0.2056-0.076 2.6909 0.775 1.3207 0.34-0.538-0.077-1.4518-0.775-1.3207zm1.688 0.0313c-1.49 0.2056-0.076 2.6909 0.775 1.3206 0.34-0.5379-0.077-1.4517-0.775-1.3206zm-8.4688 0.625c-1.49 0.2056-0.076 2.6909 0.775 1.3206 0.34-0.5379-0.077-1.4517-0.775-1.3206zm4.9375 0.1875c-1.436 0.2294-0.067 2.6111 0.78 1.3669 0.401-0.5395-0.052-1.5314-0.779-1.3669zm-1.593 0.0625c-1.49 0.2056-0.076 2.6909 0.775 1.3206 0.34-0.5379-0.077-1.4517-0.775-1.3206zm-5.094 0.6875c-1.49 0.2056-0.076 2.6909 0.775 1.3206 0.34-0.5379-0.077-1.4517-0.775-1.3206zm3.469 0.0625c-1.437 0.2294-0.067 2.6111 0.779 1.3669 0.402-0.5395-0.052-1.5314-0.779-1.3669zm6.5625 0.125c-1.489 0.2056-0.076 2.6909 0.775 1.3206 0.34-0.5379-0.077-1.4517-0.775-1.3206zm1.688 0.0313c-1.49 0.2055-0.076 2.6908 0.775 1.3206 0.34-0.538-0.077-1.4518-0.775-1.3206zm-3.281 0.0312c-1.49 0.2056-0.077 2.6909 0.775 1.3206 0.339-0.5379-0.077-1.4517-0.775-1.3206zm-3.3125 0.71875c-1.437 0.2293-0.067 2.6111 0.779 1.3669 0.402-0.5396-0.052-1.5314-0.779-1.3669zm-3.5 0.03125c-1.38 0.323 0.066 2.5795 0.852 1.335 0.404-0.5637-0.116-1.5662-0.852-1.335zm5.1875 0c-1.49 0.2056-0.077 2.6909 0.775 1.3206 0.339-0.5379-0.077-1.4517-0.775-1.3206zm-8.469 0.7188c-1.428 0.344 0.142 2.6366 0.882 1.3004 0.353-0.5698-0.166-1.5259-0.882-1.3004zm1.687 0.0312c-1.4278 0.34402 0.14228 2.6366 0.88197 1.3005 0.354-0.5699-0.165-1.5259-0.882-1.3005zm3.188 0.0625c-1.4278 0.34402 0.14228 2.6366 0.88197 1.3005 0.353-0.5699-0.166-1.5259-0.882-1.3005zm5.25 0.0937c-1.49 0.2056-0.076 2.6908 0.775 1.3207 0.34-0.538-0.077-1.4518-0.775-1.3207zm1.688 0.0313c-1.49 0.2056-0.077 2.6905 0.774 1.3206 0.34-0.5379-0.077-1.4517-0.774-1.3206zm1.5 0.125c-1.4278 0.34402 0.14228 2.6366 0.88197 1.3005 0.353-0.5699-0.166-1.5259-0.882-1.3005zm1.6875 0.03125c-1.4278 0.34402 0.14228 2.6366 0.88197 1.3005 0.352-0.5699-0.167-1.526-0.883-1.3005zm-8.4688 0.625c-1.3799 0.32304 0.06548 2.5795 0.85203 1.335 0.403-0.5637-0.117-1.5663-0.853-1.335zm1.905 0.0937c-1.454 0.0605-0.341 2.5815 0.627 1.4356 0.457-0.4934 0.105-1.5097-0.627-1.4356zm-8.4688 0.71875c-1.4369 0.22935-0.06732 2.6111 0.77921 1.3669 0.402-0.5394-0.051-1.5312-0.778-1.3668zm1.6875 0.03125c-1.4899 0.2056-0.07627 2.6909 0.7748 1.3206 0.341-0.5378-0.076-1.4516-0.774-1.3205zm9.22 0.1876c-1.4899 0.2056-0.07627 2.6909 0.7748 1.3206 0.34-0.538-0.077-1.4521-0.775-1.321zm4.9375 0c-1.4899 0.2056-0.07627 2.6909 0.7748 1.3206 0.339-0.538-0.078-1.4521-0.775-1.321zm-3.2812 0.03125c-1.4899 0.2056-0.07627 2.6909 0.7748 1.3206 0.339-0.538-0.078-1.4519-0.776-1.3208zm1.6875 0.03125c-1.4899 0.2056-0.07627 2.6909 0.7748 1.3206 0.339-0.538-0.077-1.4516-0.775-1.3205zm-10.812 0.46875c-1.4658 0.018898-0.42649 2.6093 0.59614 1.4326 0.43871-0.49402 0.1273-1.4701-0.59614-1.4326zm2.5 0.15625c-1.3981 0.18681-0.06571 2.4 0.75784 1.1909 0.57192 0.19953 1.4437 0.67882 1.6373-0.32697 0.04-0.859-1.128-1.0299-1.558-0.429-0.336-0.049-0.415-0.7356-0.838-0.435zm3.1875 0.0625c-1.4464 0.22296-0.12529 2.677 0.7608 1.4228 0.38472-0.54341-0.02192-1.5486-0.7608-1.4228zm-10 0.6875c-1.4278 0.34402 0.14228 2.6366 0.88197 1.3005 0.35339-0.56989-0.16578-1.5259-0.88197-1.3005zm1.625 0.125c-1.4329 0.30286 0.05863 2.6321 0.84644 1.2776 0.339-0.556-0.149-1.471-0.847-1.277zm10.03 0.094c-1.4369 0.22935-0.06732 2.6111 0.77921 1.3669 0.402-0.539-0.052-1.531-0.779-1.367zm1.6875 0.03125c-1.4658 0.19324-0.12122 2.6639 0.75597 1.3496 0.36003-0.53868-0.03533-1.4847-0.75597-1.3496zm3.5 0.0625c-1.4899 0.2056-0.07627 2.6909 0.7748 1.3206 0.34-0.537-0.077-1.451-0.775-1.32zm-1.8438 0.0625c-1.4278 0.34402 0.14228 2.6366 0.88197 1.3005 0.35339-0.56989-0.16578-1.5259-0.88197-1.3005zm-9.968 0.595c-1.4085 0.37124 0.01269 2.7095 0.85279 1.3648 0.346-0.58-0.104-1.544-0.853-1.365zm-1.5938 0.03125c-1.361 0.02116-0.5344 2.5118 0.52848 1.5744 0.56432-0.45811 0.24548-1.604-0.52848-1.5744zm6.5312 0.15625c-1.4165 0.34733 0.14699 2.6336 0.8833 1.2572 0.33009-0.57983-0.17267-1.4705-0.8833-1.2572zm-9.906 0.657c-1.4544 0.06052-0.34132 2.5811 0.62668 1.4356 0.45634-0.49344 0.10434-1.5098-0.62668-1.4356zm1.6875 0.03125c-1.361 0.02116-0.5344 2.5118 0.52848 1.5744 0.56432-0.45811 0.24548-1.604-0.52848-1.5744zm10.032 0.188c-1.4544 0.06052-0.34132 2.5811 0.62668 1.4356 0.456-0.494 0.104-1.51-0.627-1.436zm1.6875 0.03125c-1.4658 0.0189-0.42649 2.6093 0.59614 1.4326 0.43871-0.49402 0.1273-1.4701-0.59614-1.4326zm3.25 0c-1.4278 0.34402 0.14228 2.6366 0.88197 1.3005 0.353-0.57-0.166-1.526-0.882-1.301zm-1.5938 0.03125c-1.5123 0.08912-0.24506 2.6836 0.68474 1.3634 0.35812-0.51474 0.01417-1.4389-0.68474-1.3634zm-8.4375 0.625c-1.4669 0.01856-0.42467 2.611 0.59578 1.4314 0.43914-0.49678 0.12968-1.4662-0.59578-1.4314zm-3.375 0.03125c-1.4369 0.22935-0.06732 2.6111 0.77921 1.3669 0.40146-0.53953-0.05237-1.5314-0.77921-1.3669zm5.0312 0c-1.4544 0.06052-0.34132 2.5811 0.62668 1.4356 0.45634-0.49344 0.10434-1.5098-0.62668-1.4356zm-3.3438 0.03125c-1.4658 0.19324-0.12122 2.6639 0.75597 1.3496 0.36003-0.53868-0.03533-1.4847-0.75597-1.3496zm-4.125 0.71875c-1.4658 0.19324-0.12122 2.6639 0.75597 1.3496 0.36003-0.53868-0.03533-1.4847-0.75597-1.3496zm9.125 0.25c-1.4658 0.19324-0.12122 2.6639 0.75597 1.3496 0.36003-0.53868-0.03533-1.4847-0.75597-1.3496zm6.8438 0.03125c-1.4544 0.06052-0.34132 2.5811 0.62668 1.4356 0.45747-0.49267 0.10267-1.5106-0.62668-1.4356zm-3.5 0.03125c-1.4464 0.22296-0.12529 2.677 0.7608 1.4228 0.38472-0.54341-0.02192-1.5486-0.7608-1.4228zm1.75 0.03125c-1.4544 0.06052-0.34132 2.5811 0.62668 1.4356 0.45747-0.49267 0.10267-1.5106-0.62668-1.4356zm-12.781 0.5625c-1.4104 0.37076 0.01627 2.7123 0.85162 1.3624 0.34837-0.58332-0.10048-1.5399-0.85162-1.3624zm1.75 0.125c-1.4329 0.30286 0.05863 2.6321 0.84644 1.2776 0.34-0.556-0.148-1.47-0.846-1.277zm1.657 0.032c-1.3799 0.32304 0.06548 2.5795 0.85203 1.335 0.403-0.564-0.117-1.566-0.852-1.335zm1.6875 0.03125c-1.3849 0.34329-0.000896 2.6747 0.85203 1.3791 0.352-0.571-0.106-1.571-0.853-1.379zm4.312 0.844c-1.4899 0.2056-0.07627 2.6909 0.7748 1.3206 0.339-0.538-0.078-1.452-0.775-1.321zm-2.5 0.03125c-1.4544 0.06052-0.34132 2.5811 0.62668 1.4356 0.45634-0.49344 0.10434-1.5098-0.62668-1.4356zm5.6875 0.03125c-1.4369 0.22935-0.06732 2.6111 0.77921 1.3669 0.401-0.539-0.053-1.531-0.78-1.367zm1.9062 0.03125c-1.4544 0.06052-0.34132 2.5811 0.62668 1.4356 0.45634-0.49344 0.10434-1.5098-0.62668-1.4356zm-11.032 0.657c-1.4544 0.06052-0.34132 2.5811 0.62668 1.4356 0.456-0.494 0.104-1.51-0.627-1.436zm-1.5938 0.0625c-1.4658 0.0189-0.42649 2.6093 0.59614 1.4326 0.43871-0.49402 0.1273-1.4701-0.59614-1.4326zm3.344 0.063c-1.361 0.02116-0.5344 2.5118 0.52848 1.5744 0.565-0.458 0.246-1.604-0.528-1.574zm4.0938 0.78125c-1.4658 0.19324-0.12122 2.6639 0.75597 1.3496 0.36003-0.53868-0.03533-1.4847-0.75597-1.3496zm1.75 0.125c-1.4658 0.19324-0.12122 2.6639 0.75597 1.3496 0.36003-0.53868-0.03533-1.4847-0.75597-1.3496zm1.656 0.031c-1.4899 0.2056-0.07627 2.6909 0.7748 1.3206 0.34-0.538-0.077-1.452-0.775-1.321zm-8.5938 0.71875c-1.4104 0.37076 0.01627 2.7123 0.85162 1.3624 0.34837-0.58332-0.10048-1.5399-0.85162-1.3624zm3.4062 0.0625c-1.4369 0.22935-0.06732 2.6111 0.77921 1.3669 0.40146-0.53953-0.05237-1.5314-0.77921-1.3669zm-1.6562 0.0625c-1.405 0.27244-0.01727 2.601 0.8077 1.3623 0.41515-0.55106-0.06742-1.5609-0.8077-1.3623zm6 0.78125c-1.4658 0.0189-0.42649 2.6093 0.59614 1.4326 0.43871-0.49402 0.1273-1.4701-0.59614-1.4326zm-1.844 0.063c-1.4464 0.22296-0.12529 2.677 0.7608 1.4228 0.385-0.544-0.022-1.549-0.761-1.423zm-3.2188 0.71875c-1.5123 0.08912-0.24506 2.6836 0.68474 1.3634 0.35812-0.51474 0.01417-1.4389-0.68474-1.3634zm-1.6562 0.0625c-1.4658 0.19324-0.12122 2.6639 0.75597 1.3496 0.36003-0.53868-0.03533-1.4847-0.75597-1.3496zm3.25 0.15625c-1.4369 0.22935-0.06732 2.6111 0.77921 1.3669 0.402-0.54-0.052-1.532-0.778-1.367z"/>
 <path id="path3681" style="opacity:.19070;fill:url(#radialGradient4472)" d="m43.58 13.216a9.6275 10.026 0 1 1 -19.252 -0.366 9.6275 10.026 0 1 1 19.252 0.366z"/>
 <path id="path3163" style="fill:url(#linearGradient4469);fill-rule:evenodd" d="m27.926 5.1131s3.8803 5.3923 14.469 13.515c0.43266 0.33189-0.81959 1.7189-1.2489 1.3291 0 0-6.5563-3.2938-14.569-13.227-0.39694-0.49211 0.29801-0.86406 1.3483-1.6171z"/>
 <path id="path3177" style="opacity:.67442;fill:url(#linearGradient4466);fill-rule:evenodd" d="m27.926 5.1131s3.8803 5.3923 14.469 13.515c0.43266 0.33189-0.81959 1.7189-1.2489 1.3291 0 0-6.5563-3.2938-14.569-13.227-0.39694-0.49211 0.29801-0.86406 1.3483-1.6171z"/>
 <path id="path2677" style="opacity:.47907;fill:url(#radialGradient4463)" d="m43.998 13.247a10.049 9.8028 89.331 1 1 -19.602 -0.374 10.049 9.8028 89.331 1 1 19.602 0.374z"/>
 <path id="path3302" style="fill:url(#linearGradient4195);fill-rule:evenodd" d="m32.644 24.358c0.78039-0.09999 2.6338-1.2499 2.6338-1.2499-2.6826-1.3999-10.828-9.7994-10.828-9.7994s-1.4145 1.8999-1.2681 2.4499c0 0 4.6823 5.6997 9.4622 8.5995z"/>
</svg>
