<?xml version="1.0" encoding="UTF-8" standalone="no"?>
<!-- Created with Inkscape (http://www.inkscape.org/) -->

<svg
   xmlns:svg="http://www.w3.org/2000/svg"
   xmlns="http://www.w3.org/2000/svg"
   version="1.0"
   width="16"
   height="16"
   id="svg3196">
  <defs
     id="defs3198" />
  <rect
     width="13.922545"
     height="6.9859257"
     rx="0"
     ry="0"
     x="-15.422251"
     y="8.5140848"
     transform="matrix(0,-1,1,0,0,0)"
     id="rect2388"
     style="fill:none;stroke:#969696;stroke-width:1;stroke-linecap:square;stroke-linejoin:miter;stroke-miterlimit:4;stroke-opacity:1;stroke-dasharray:none;stroke-dashoffset:0;marker:none;visibility:visible;display:inline;overflow:visible;enable-background:accumulate" />
  <rect
     width="11"
     height="3.9295778"
     x="-13.999716"
     y="10.070422"
     transform="matrix(0,-1,1,0,0,0)"
     id="rect3162"
     style="fill:#878787;fill-opacity:1;fill-rule:nonzero;stroke:none;stroke-width:1;marker:none;visibility:visible;display:inline;overflow:visible;enable-background:accumulate" />
  <rect
     width="4"
     height="3"
     ry="1.0278254"
     x="-10"
     y="2"
     transform="matrix(0,-1,1,0,0,0)"
     id="rect2819"
     style="fill:#878787;fill-opacity:1;fill-rule:nonzero;stroke:none;stroke-width:1;marker:none;visibility:visible;display:inline;overflow:visible;enable-background:accumulate" />
  <path
     d="m 10.5,0.49999988 3,0"
     id="rect3160"
     style="fill:none;stroke:#969696;stroke-width:1.00000024;stroke-linecap:square;stroke-linejoin:miter;stroke-miterlimit:4;stroke-opacity:1;stroke-dasharray:none;stroke-dashoffset:0;marker:none;visibility:visible;display:inline;overflow:visible;enable-background:accumulate" />
  <rect
     width="1"
     height="1"
     x="-12.063112"
     y="2.0000005"
     transform="matrix(0,-1,1,0,0,0)"
     id="rect3647"
     style="fill:#878787;fill-opacity:1;fill-rule:nonzero;stroke:none;stroke-width:1;marker:none;visibility:visible;display:inline;overflow:visible;enable-background:accumulate" />
  <rect
     width="1"
     height="1"
     x="-12.063112"
     y="4"
     transform="matrix(0,-1,1,0,0,0)"
     id="rect3649"
     style="fill:#878787;fill-opacity:1;fill-rule:nonzero;stroke:none;stroke-width:1;marker:none;visibility:visible;display:inline;overflow:visible;enable-background:accumulate" />
  <rect
     width="1"
     height="1"
     x="-14.063112"
     y="2.0000005"
     transform="matrix(0,-1,1,0,0,0)"
     id="rect3653"
     style="fill:#878787;fill-opacity:1;fill-rule:nonzero;stroke:none;stroke-width:1;marker:none;visibility:visible;display:inline;overflow:visible;enable-background:accumulate" />
  <rect
     width="1"
     height="1"
     x="-14.063112"
     y="4"
     transform="matrix(0,-1,1,0,0,0)"
     id="rect3655"
     style="fill:#878787;fill-opacity:1;fill-rule:nonzero;stroke:none;stroke-width:1;marker:none;visibility:visible;display:inline;overflow:visible;enable-background:accumulate" />
  <path
     d="m 0.5000001,6 0,7.999716 c 0.044601,1.988263 6.0347419,1.910775 5.9999999,0 L 6.5,6 C 6.4941,3.998827 0.5417841,3.93662 0.5000001,6 z"
     id="path2900"
     style="fill:none;stroke:#969696;stroke-width:1.00000024;stroke-linecap:square;stroke-linejoin:miter;stroke-miterlimit:4;stroke-opacity:1;stroke-dasharray:none;stroke-dashoffset:0;marker:none;visibility:visible;display:inline;overflow:visible;enable-background:accumulate" />
</svg>
