<?xml version="1.0" encoding="UTF-8" standalone="no"?>
<!-- Created with Inkscape (http://www.inkscape.org/) -->
<svg
   xmlns:dc="http://purl.org/dc/elements/1.1/"
   xmlns:cc="http://creativecommons.org/ns#"
   xmlns:rdf="http://www.w3.org/1999/02/22-rdf-syntax-ns#"
   xmlns:svg="http://www.w3.org/2000/svg"
   xmlns="http://www.w3.org/2000/svg"
   xmlns:xlink="http://www.w3.org/1999/xlink"
   xmlns:sodipodi="http://sodipodi.sourceforge.net/DTD/sodipodi-0.dtd"
   xmlns:inkscape="http://www.inkscape.org/namespaces/inkscape"
   version="1.0"
   width="48"
   height="48"
   id="svg3783"
   sodipodi:version="0.32"
   inkscape:version="0.46"
   sodipodi:docname="extension.svg"
   inkscape:output_extension="org.inkscape.output.svg.inkscape">
  <metadata
     id="metadata43">
    <rdf:RDF>
      <cc:Work
         rdf:about="">
        <dc:format>image/svg+xml</dc:format>
        <dc:type
           rdf:resource="http://purl.org/dc/dcmitype/StillImage" />
      </cc:Work>
    </rdf:RDF>
  </metadata>
  <sodipodi:namedview
     inkscape:window-height="789"
     inkscape:window-width="1440"
     inkscape:pageshadow="2"
     inkscape:pageopacity="0.0"
     guidetolerance="10.0"
     gridtolerance="10.0"
     objecttolerance="10.0"
     borderopacity="1.0"
     bordercolor="#666666"
     pagecolor="#ffffff"
     id="base"
     showgrid="false"
     inkscape:zoom="5.1875"
     inkscape:cx="9.3012048"
     inkscape:cy="22.273637"
     inkscape:window-x="0"
     inkscape:window-y="24"
     inkscape:current-layer="svg3783" />
  <defs
     id="defs3785">
    <linearGradient
       x1="25.058096"
       y1="47.027729"
       x2="25.058096"
       y2="39.999443"
       id="linearGradient3773"
       xlink:href="#linearGradient3702"
       gradientUnits="userSpaceOnUse" />
    <radialGradient
       cx="4.9929786"
       cy="43.5"
       r="2.5"
       fx="4.9929786"
       fy="43.5"
       id="radialGradient3771"
       xlink:href="#linearGradient3688"
       gradientUnits="userSpaceOnUse"
       gradientTransform="matrix(2.003784,0,0,1.4,-20.01187,-104.4)" />
    <radialGradient
       cx="4.9929786"
       cy="43.5"
       r="2.5"
       fx="4.9929786"
       fy="43.5"
       id="radialGradient3769"
       xlink:href="#linearGradient3688"
       gradientUnits="userSpaceOnUse"
       gradientTransform="matrix(2.003784,0,0,1.4,27.98813,-17.4)" />
    <linearGradient
       id="linearGradient3702">
      <stop
         id="stop3704"
         style="stop-color:#000000;stop-opacity:0"
         offset="0" />
      <stop
         id="stop3710"
         style="stop-color:#000000;stop-opacity:1"
         offset="0.5" />
      <stop
         id="stop3706"
         style="stop-color:#000000;stop-opacity:0"
         offset="1" />
    </linearGradient>
    <linearGradient
       x1="25.058096"
       y1="47.027729"
       x2="25.058096"
       y2="39.999443"
       id="linearGradient3627"
       xlink:href="#linearGradient3702"
       gradientUnits="userSpaceOnUse" />
    <radialGradient
       cx="4.9929786"
       cy="43.5"
       r="2.5"
       fx="4.9929786"
       fy="43.5"
       id="radialGradient3625"
       xlink:href="#linearGradient3688"
       gradientUnits="userSpaceOnUse"
       gradientTransform="matrix(2.003784,0,0,1.4,-20.01187,-104.4)" />
    <linearGradient
       id="linearGradient3688">
      <stop
         id="stop3690"
         style="stop-color:#000000;stop-opacity:1"
         offset="0" />
      <stop
         id="stop3692"
         style="stop-color:#000000;stop-opacity:0"
         offset="1" />
    </linearGradient>
    <radialGradient
       cx="4.9929786"
       cy="43.5"
       r="2.5"
       fx="4.9929786"
       fy="43.5"
       id="radialGradient3623"
       xlink:href="#linearGradient3688"
       gradientUnits="userSpaceOnUse"
       gradientTransform="matrix(2.003784,0,0,1.4,27.98813,-17.4)" />
    <linearGradient
       id="linearGradient2490">
      <stop
         id="stop2492"
         style="stop-color:#455f0e;stop-opacity:1"
         offset="0" />
      <stop
         id="stop2494"
         style="stop-color:#84a718;stop-opacity:1"
         offset="1" />
    </linearGradient>
    <linearGradient
       x1="24"
       y1="44"
       x2="24"
       y2="3.8990016"
       id="linearGradient3757"
       xlink:href="#linearGradient2490"
       gradientUnits="userSpaceOnUse"
       gradientTransform="matrix(0.7435898,0,0,0.7435898,6.1538498,12.153846)" />
    <linearGradient
       id="linearGradient3242">
      <stop
         id="stop3244"
         style="stop-color:#eef87e;stop-opacity:1"
         offset="0" />
      <stop
         id="stop3246"
         style="stop-color:#cde34f;stop-opacity:1"
         offset="0.26238" />
      <stop
         id="stop3248"
         style="stop-color:#93b723;stop-opacity:1"
         offset="0.66093999" />
      <stop
         id="stop3250"
         style="stop-color:#5a7e0d;stop-opacity:1"
         offset="1" />
    </linearGradient>
    <radialGradient
       cx="7.4404225"
       cy="15.377086"
       r="19.99999"
       fx="7.4404225"
       fy="15.377086"
       id="radialGradient3753"
       xlink:href="#linearGradient3242"
       gradientUnits="userSpaceOnUse"
       gradientTransform="matrix(0,1.7159025,-2.4752027,-5.6670653e-8,54.345979,0.8390795)" />
    <linearGradient
       id="linearGradient4222">
      <stop
         id="stop4224"
         style="stop-color:#ffffff;stop-opacity:1"
         offset="0" />
      <stop
         id="stop4226"
         style="stop-color:#ffffff;stop-opacity:0"
         offset="1" />
    </linearGradient>
    <linearGradient
       x1="26.95891"
       y1="-0.00034927591"
       x2="26.95891"
       y2="39.089828"
       id="linearGradient3743"
       xlink:href="#linearGradient4222"
       gradientUnits="userSpaceOnUse" />
    <linearGradient
       inkscape:collect="always"
       xlink:href="#linearGradient4222"
       id="linearGradient2419"
       gradientUnits="userSpaceOnUse"
       x1="26.95891"
       y1="-0.00034927591"
       x2="26.95891"
       y2="39.089828"
       gradientTransform="translate(-2.9999999,5.9999999)" />
    <radialGradient
       inkscape:collect="always"
       xlink:href="#linearGradient3242"
       id="radialGradient2422"
       gradientUnits="userSpaceOnUse"
       gradientTransform="matrix(0,1.7159025,-2.4752027,-5.6670653e-8,51.345979,0.8390795)"
       cx="7.4404225"
       cy="15.377086"
       fx="7.4404225"
       fy="15.377086"
       r="19.99999" />
    <linearGradient
       inkscape:collect="always"
       xlink:href="#linearGradient2490"
       id="linearGradient2424"
       gradientUnits="userSpaceOnUse"
       gradientTransform="matrix(0.7435898,0,0,0.7435898,3.1538499,12.153846)"
       x1="24"
       y1="44"
       x2="24"
       y2="3.8990016" />
    <radialGradient
       inkscape:collect="always"
       xlink:href="#linearGradient3688"
       id="radialGradient2446"
       gradientUnits="userSpaceOnUse"
       gradientTransform="matrix(2.003784,0,0,1.4,27.98813,-17.4)"
       cx="4.9929786"
       cy="43.5"
       fx="4.9929786"
       fy="43.5"
       r="2.5" />
    <radialGradient
       inkscape:collect="always"
       xlink:href="#linearGradient3688"
       id="radialGradient2448"
       gradientUnits="userSpaceOnUse"
       gradientTransform="matrix(2.003784,0,0,1.4,-20.01187,-104.4)"
       cx="4.9929786"
       cy="43.5"
       fx="4.9929786"
       fy="43.5"
       r="2.5" />
    <linearGradient
       inkscape:collect="always"
       xlink:href="#linearGradient3702"
       id="linearGradient2450"
       gradientUnits="userSpaceOnUse"
       x1="25.058096"
       y1="47.027729"
       x2="25.058096"
       y2="39.999443" />
    <radialGradient
       inkscape:collect="always"
       xlink:href="#linearGradient3688"
       id="radialGradient2452"
       gradientUnits="userSpaceOnUse"
       gradientTransform="matrix(2.003784,0,0,1.4,27.98813,-17.4)"
       cx="4.9929786"
       cy="43.5"
       fx="4.9929786"
       fy="43.5"
       r="2.5" />
    <radialGradient
       inkscape:collect="always"
       xlink:href="#linearGradient3688"
       id="radialGradient2454"
       gradientUnits="userSpaceOnUse"
       gradientTransform="matrix(2.003784,0,0,1.4,-20.01187,-104.4)"
       cx="4.9929786"
       cy="43.5"
       fx="4.9929786"
       fy="43.5"
       r="2.5" />
    <linearGradient
       inkscape:collect="always"
       xlink:href="#linearGradient3702"
       id="linearGradient2456"
       gradientUnits="userSpaceOnUse"
       x1="25.058096"
       y1="47.027729"
       x2="25.058096"
       y2="39.999443" />
    <radialGradient
       inkscape:collect="always"
       xlink:href="#linearGradient3688"
       id="radialGradient2470"
       gradientUnits="userSpaceOnUse"
       gradientTransform="matrix(2.003784,0,0,1.4,27.98813,-17.4)"
       cx="4.9929786"
       cy="43.5"
       fx="4.9929786"
       fy="43.5"
       r="2.5" />
    <radialGradient
       inkscape:collect="always"
       xlink:href="#linearGradient3688"
       id="radialGradient2472"
       gradientUnits="userSpaceOnUse"
       gradientTransform="matrix(2.003784,0,0,1.4,-20.01187,-104.4)"
       cx="4.9929786"
       cy="43.5"
       fx="4.9929786"
       fy="43.5"
       r="2.5" />
    <linearGradient
       inkscape:collect="always"
       xlink:href="#linearGradient3702"
       id="linearGradient2474"
       gradientUnits="userSpaceOnUse"
       x1="25.058096"
       y1="47.027729"
       x2="25.058096"
       y2="39.999443" />
    <radialGradient
       inkscape:collect="always"
       xlink:href="#linearGradient3688"
       id="radialGradient2476"
       gradientUnits="userSpaceOnUse"
       gradientTransform="matrix(2.003784,0,0,1.4,27.98813,-17.4)"
       cx="4.9929786"
       cy="43.5"
       fx="4.9929786"
       fy="43.5"
       r="2.5" />
    <radialGradient
       inkscape:collect="always"
       xlink:href="#linearGradient3688"
       id="radialGradient2478"
       gradientUnits="userSpaceOnUse"
       gradientTransform="matrix(2.003784,0,0,1.4,-20.01187,-104.4)"
       cx="4.9929786"
       cy="43.5"
       fx="4.9929786"
       fy="43.5"
       r="2.5" />
    <linearGradient
       inkscape:collect="always"
       xlink:href="#linearGradient3702"
       id="linearGradient2480"
       gradientUnits="userSpaceOnUse"
       x1="25.058096"
       y1="47.027729"
       x2="25.058096"
       y2="39.999443" />
    <radialGradient
       inkscape:collect="always"
       xlink:href="#linearGradient3242"
       id="radialGradient2482"
       gradientUnits="userSpaceOnUse"
       gradientTransform="matrix(0,1.7159025,-2.4752027,-5.6670653e-8,51.345979,0.8390795)"
       cx="7.4404225"
       cy="15.377086"
       fx="7.4404225"
       fy="15.377086"
       r="19.99999" />
    <linearGradient
       inkscape:collect="always"
       xlink:href="#linearGradient2490"
       id="linearGradient2484"
       gradientUnits="userSpaceOnUse"
       gradientTransform="matrix(0.7435898,0,0,0.7435898,3.1538499,12.153846)"
       x1="24"
       y1="44"
       x2="24"
       y2="3.8990016" />
    <linearGradient
       inkscape:collect="always"
       xlink:href="#linearGradient4222"
       id="linearGradient2486"
       gradientUnits="userSpaceOnUse"
       gradientTransform="translate(-2.9999999,5.9999999)"
       x1="26.95891"
       y1="-0.00034927591"
       x2="26.95891"
       y2="39.089828" />
    <linearGradient
       inkscape:collect="always"
       xlink:href="#linearGradient4222"
       id="linearGradient2489"
       gradientUnits="userSpaceOnUse"
       gradientTransform="translate(-2.9999999,5.9999999)"
       x1="26.95891"
       y1="-0.00034927591"
       x2="26.95891"
       y2="39.089828" />
    <radialGradient
       inkscape:collect="always"
       xlink:href="#linearGradient3242"
       id="radialGradient2492"
       gradientUnits="userSpaceOnUse"
       gradientTransform="matrix(0,2.0245429,-2.9204189,-6.6864037e-8,58.192106,-1.4573352)"
       cx="7.4404225"
       cy="15.377086"
       fx="7.4404225"
       fy="15.377086"
       r="19.99999" />
    <linearGradient
       inkscape:collect="always"
       xlink:href="#linearGradient2490"
       id="linearGradient2494"
       gradientUnits="userSpaceOnUse"
       gradientTransform="matrix(0.7435898,0,0,0.7435898,3.1538499,12.153846)"
       x1="24"
       y1="44"
       x2="24"
       y2="3.8990016" />
  </defs>
  <g
     style="opacity:0.3"
     id="g3761"
     transform="matrix(0.4210526,0,0,0.5714286,18.894737,19.14286)">
    <rect
       style="fill:url(#radialGradient2470);fill-opacity:1;stroke:none"
       id="rect3763"
       y="40"
       x="38"
       height="7"
       width="5" />
    <rect
       style="fill:url(#radialGradient2472);fill-opacity:1;stroke:none"
       id="rect3765"
       transform="scale(-1,-1)"
       y="-47"
       x="-10"
       height="7"
       width="5" />
    <rect
       style="fill:url(#linearGradient2474);fill-opacity:1;stroke:none"
       id="rect3767"
       y="40"
       x="10"
       height="7.0000005"
       width="28" />
  </g>
  <g
     style="opacity:0.3"
     id="g3550"
     transform="matrix(0.4210526,0,0,0.5714286,1.894737,19.14286)">
    <rect
       style="fill:url(#radialGradient2476);fill-opacity:1;stroke:none"
       id="rect3552"
       y="40"
       x="38"
       height="7"
       width="5" />
    <rect
       style="fill:url(#radialGradient2478);fill-opacity:1;stroke:none"
       id="rect3554"
       transform="scale(-1,-1)"
       y="-47"
       x="-10"
       height="7"
       width="5" />
    <rect
       style="fill:url(#linearGradient2480);fill-opacity:1;stroke:none"
       id="rect3556"
       y="40"
       x="10"
       height="7.0000005"
       width="28" />
  </g>
  <path
     style="fill:url(#radialGradient2492);fill-opacity:1;stroke:url(#linearGradient2494);stroke-width:1.00000011999999994;stroke-linecap:round;stroke-linejoin:round;stroke-miterlimit:4;stroke-dasharray:none;stroke-dashoffset:0;stroke-opacity:1"
     id="rect3558"
     d="M 21,6.4999999 C 18.516,6.4999999 16.5,8.5160001 16.5,11 C 16.5,12.5525 17.30293,13.909805 18.5,14.71875 L 18.5,15.5 L 8.5000001,15.5 C 7.3920001,15.5 6.5000001,16.392 6.5000001,17.5 L 6.5000001,27.21875 C 7.3247011,26.183869 8.5748331,25.5 10,25.5 C 12.484,25.5 14.5,27.516 14.5,30 C 14.5,32.484 12.484,34.5 10,34.5 C 8.5748331,34.5 7.3247011,33.816131 6.5000001,32.78125 L 6.5000001,42.5 C 6.5000001,43.608 7.3920001,44.5 8.5000001,44.5 L 18.21875,44.5 C 17.183869,43.675299 16.5,42.425167 16.5,41 C 16.5,38.516 18.516,36.5 21,36.5 C 23.484,36.5 25.5,38.516 25.5,41 C 25.5,42.425167 24.816131,43.675299 23.78125,44.5 L 33.5,44.5 C 34.608,44.5 35.5,43.608 35.5,42.5 L 35.5,32.5 L 36.28125,32.5 C 37.090195,33.69707 38.4475,34.5 40,34.5 C 42.484,34.5 44.5,32.484 44.5,30 C 44.5,27.516 42.484,25.5 40,25.5 C 38.4475,25.5 37.090195,26.30293 36.28125,27.5 L 35.5,27.5 L 35.5,17.5 C 35.5,16.392 34.608,15.5 33.5,15.5 L 23.5,15.5 L 23.5,14.71875 C 24.69707,13.909805 25.5,12.5525 25.5,11 C 25.5,8.5159999 23.484,6.4999999 21,6.4999999 z" />
  <path
     style="opacity:0.4;fill:none;fill-opacity:1;stroke:url(#linearGradient2489);stroke-width:1.00000012;stroke-linecap:round;stroke-linejoin:round;stroke-miterlimit:4;stroke-dasharray:none;stroke-dashoffset:0;stroke-opacity:1"
     id="path3741"
     d="M 21,7.5937499 C 19.112841,7.5937499 17.59375,9.1128415 17.59375,11 C 17.59375,12.172165 18.212613,13.195935 19.125,13.8125 C 19.419947,14.01984 19.594971,14.35822 19.59375,14.71875 L 19.59375,15.5 C 19.588615,16.101922 19.101922,16.588615 18.5,16.59375 L 8.5000001,16.59375 C 7.9840321,16.59375 7.5937501,16.984032 7.5937501,17.5 L 7.5937501,25 C 8.3218831,24.642157 9.132253,24.40625 10,24.40625 C 13.080841,24.40625 15.59375,26.919159 15.59375,30 C 15.59375,33.080841 13.080841,35.59375 10,35.59375 C 9.132253,35.59375 8.3218831,35.357843 7.5937501,35 L 7.5937501,42.5 C 7.5937501,43.015968 7.9840321,43.40625 8.5000001,43.40625 L 16,43.40625 C 15.642157,42.678117 15.40625,41.867747 15.40625,41 C 15.40625,37.919159 17.919159,35.40625 21,35.40625 C 24.080841,35.40625 26.59375,37.919159 26.59375,41 C 26.59375,41.867747 26.357843,42.678117 26,43.40625 L 33.5,43.40625 C 34.015968,43.40625 34.40625,43.015968 34.40625,42.5 L 34.40625,32.5 C 34.411385,31.898078 34.898078,31.411385 35.5,31.40625 L 36.28125,31.40625 C 36.64178,31.405029 36.98016,31.580053 37.1875,31.875 C 37.804064,32.787386 38.827835,33.40625 40,33.40625 C 41.887159,33.40625 43.40625,31.887159 43.40625,30 C 43.40625,28.112841 41.887159,26.59375 40,26.59375 C 38.827835,26.59375 37.804064,27.212614 37.1875,28.125 C 36.98016,28.419947 36.64178,28.594971 36.28125,28.59375 L 35.5,28.59375 C 34.898078,28.588615 34.411385,28.101922 34.40625,27.5 L 34.40625,17.5 C 34.40625,16.984032 34.015968,16.59375 33.5,16.59375 L 23.5,16.59375 C 22.898078,16.588615 22.411385,16.101922 22.40625,15.5 L 22.40625,14.71875 C 22.405029,14.35822 22.580053,14.01984 22.875,13.8125 C 23.787387,13.195935 24.40625,12.172165 24.40625,11 C 24.40625,9.1128412 22.887159,7.5937499 21,7.5937499 z" />
</svg>
