<?xml version="1.0" encoding="UTF-8" standalone="no"?>
<svg
   height="16"
   width="16"
   version="1.1"
   id="svg1"
   xmlns="http://www.w3.org/2000/svg"
   xmlns:svg="http://www.w3.org/2000/svg">
  <defs
     id="defs1" />
  <g
     color="#bebebe"
     transform="translate(-1128 -94)"
     id="g1"
     style="fill:#555761">
    <path
       d="M1136 94c-4.412 0-8 3.588-8 8s3.588 8 8 8 8-3.588 8-8-3.588-8-8-8zm0 1c3.872 0 7 3.128 7 7s-3.128 7-7 7-7-3.128-7-7 3.128-7 7-7zm-2.022 3.496c-.406.031-.729.919-.728 2.002 0 2.67 1.5 2.67 1.5 0 0-1.128-.349-2.034-.771-2.002zm4 0c-.406.031-.729.919-.728 2.002 0 2.67 1.5 2.67 1.5 0 0-1.128-.349-2.034-.771-2.002zm-4.804 5.334l-.707.707a4.999 4.999 0 0 0 3.533 1.467 4.999 4.999 0 0 0 3.533-1.467l-.707-.707a4 4 0 0 1-2.826 1.174 4 4 0 0 1-2.826-1.174z"
       fill="#666"
       overflow="visible"
       style="marker:none;fill:#555761"
       id="path1" />
  </g>
</svg>
