<?xml version="1.0" encoding="UTF-8" standalone="no"?>
<svg
   height="16"
   width="16"
   version="1.1"
   id="svg1"
   sodipodi:docname="face-laugh-symbolic.svg"
   inkscape:version="1.2.2 (b0a8486541, 2022-12-01)"
   xmlns:inkscape="http://www.inkscape.org/namespaces/inkscape"
   xmlns:sodipodi="http://sodipodi.sourceforge.net/DTD/sodipodi-0.dtd"
   xmlns="http://www.w3.org/2000/svg"
   xmlns:svg="http://www.w3.org/2000/svg">
  <sodipodi:namedview
     id="namedview5261"
     pagecolor="#ffffff"
     bordercolor="#000000"
     borderopacity="0.25"
     inkscape:showpageshadow="2"
     inkscape:pageopacity="0.0"
     inkscape:pagecheckerboard="0"
     inkscape:deskcolor="#d1d1d1"
     showgrid="false"
     inkscape:zoom="54.644127"
     inkscape:cx="4.3829047"
     inkscape:cy="9.3331165"
     inkscape:window-width="1390"
     inkscape:window-height="1053"
     inkscape:window-x="-28"
     inkscape:window-y="592"
     inkscape:window-maximized="0"
     inkscape:current-layer="g1" />
  <defs
     id="defs1" />
  <g
     color="#bebebe"
     transform="translate(-1048,-74)"
     id="g1"
     style="fill:#555761">
    <path
       d="m 1056,74 c -4.412,0 -8,3.588 -8,8 0,4.412 3.588,8 8,8 4.412,0 8,-3.588 8,-8 0,-4.412 -3.588,-8 -8,-8 z m 0,1 c 3.872,0 7,3.128 7,7 0,3.872 -3.128,7 -7,7 -3.872,0 -7,-3.128 -7,-7 0,-2.083 0.912,-3.945 2.352,-5.227 1.2783,-1.143012 2.9332,-1.774312 4.648,-1.773 z m -4.648,1.773 c -0.592,0.546 -0.891,1.163 -0.891,1.163 l 0.896,0.441 c 0,0 0.231,-0.462 0.672,-0.87 0.441,-0.406 1.007,-0.727 1.823,-0.523 l 0.242,-0.968 c -0.2762,-0.07027 -0.5614,-0.09859 -0.846,-0.084 -0.8,0.043 -1.453,0.432 -1.896,0.841 z m 7.28,-0.841 c -0.266,-0.015 -0.549,0.01 -0.845,0.084 l 0.242,0.968 c 0.816,-0.204 1.382,0.117 1.823,0.524 0.44,0.407 0.673,0.869 0.673,0.869 l 0.897,-0.441 c 0,0 -0.302,-0.617 -0.893,-1.163 -0.443,-0.41 -1.097,-0.798 -1.896,-0.841 z m -5.71,3.068 c -0.73,0 -1.254,0.339 -1.543,0.674 -0.1745,0.202809 -0.3067,0.438413 -0.389,0.693 -0.177,0.643 0.788,0.91 0.965,0.266 0,0 0.037,-0.142 0.18,-0.307 0.142,-0.165 0.341,-0.326 0.787,-0.326 0.891,0 1.082,0.676 1.082,0.676 0.234,0.626 1.173,0.274 0.937,-0.352 0,0 -0.56,-1.324 -2.02,-1.324 z m 6,0 c -0.73,0 -1.254,0.339 -1.543,0.674 -0.1745,0.202809 -0.3067,0.438413 -0.389,0.693 -0.177,0.643 0.788,0.91 0.965,0.266 0,0 0.037,-0.142 0.18,-0.307 0.142,-0.165 0.341,-0.326 0.787,-0.326 0.891,0 1.082,0.676 1.082,0.676 0.234,0.626 1.173,0.274 0.937,-0.352 0,0 -0.56,-1.324 -2.02,-1.324 z m -7.885,3 c 0,0 -0.043,0.596 -0.064,0.857 0,2.827 2.236,5.143 5,5.143 2.764,0 5,-2.316 5,-5.143 0,-0.174 -0.062,-0.857 -0.062,-0.857 z m 0.963,1 h 7.945 c -0.017,0.365275 -0.081,0.726846 -0.19,1.076 -1.1101,0.667622 -2.3848,1.011249 -3.68,0.992 -2.212,-0.018 -3.886,-0.996 -3.886,-0.996 -0.085,-0.17 -0.176,-0.696 -0.189,-1.072 z m 0.729,2.36 c 1.33,0.508 3.714,1.084 6.26,0.07 -0.013,0.015 -0.028,0.026 -0.04,0.04 0.04,-0.015 0.085,-0.025 0.125,-0.04 -0.726,0.952 -1.809,1.533 -3.133,1.533 -1.323,0 -2.488,-0.61 -3.212,-1.604 z"
       fill="#666"
       overflow="visible"
       style="fill:#555761;marker:none"
       id="path1"
       sodipodi:nodetypes="ssssscsssccccccccccccccccccccccccscccccccccsccccccssccccccccccccscc" />
  </g>
</svg>
