<?xml version="1.0" encoding="UTF-8" standalone="no"?>
<!-- Created with Inkscape (http://www.inkscape.org/) -->

<svg
   xmlns:svg="http://www.w3.org/2000/svg"
   xmlns="http://www.w3.org/2000/svg"
   xmlns:xlink="http://www.w3.org/1999/xlink"
   version="1.1"
   width="16"
   height="16"
   id="svg2816"
   style="display:inline">
  <defs
     id="defs2818">
    <linearGradient
       id="linearGradient3772">
      <stop
         id="stop3774"
         style="stop-color:#f8b17e;stop-opacity:1"
         offset="0" />
      <stop
         id="stop3776"
         style="stop-color:#e35d4f;stop-opacity:1"
         offset="0.38589892" />
      <stop
         id="stop3778"
         style="stop-color:#c6262e;stop-opacity:1"
         offset="0.73825145" />
      <stop
         id="stop3780"
         style="stop-color:#690b54;stop-opacity:1"
         offset="1" />
    </linearGradient>
    <linearGradient
       id="linearGradient3681">
      <stop
         id="stop3683"
         style="stop-color:#ffffff;stop-opacity:1"
         offset="0" />
      <stop
         id="stop3685"
         style="stop-color:#ffffff;stop-opacity:0"
         offset="1" />
    </linearGradient>
    <radialGradient
       cx="5"
       cy="4"
       r="8"
       fx="5"
       fy="4"
       id="radialGradient3618"
       xlink:href="#linearGradient3772"
       gradientUnits="userSpaceOnUse"
       gradientTransform="matrix(1.625,0,0,1.375,-3.125,-1.5)" />
    <linearGradient
       x1="5"
       y1="-2"
       x2="8"
       y2="16"
       id="linearGradient3687"
       xlink:href="#linearGradient3681"
       gradientUnits="userSpaceOnUse" />
    <linearGradient
       id="linearGradient2490">
      <stop
         id="stop2492"
         style="stop-color:#791235;stop-opacity:1"
         offset="0" />
      <stop
         id="stop2494"
         style="stop-color:#dd3b27;stop-opacity:1"
         offset="1" />
    </linearGradient>
    <linearGradient
       x1="6"
       y1="18"
       x2="4"
       y2="0"
       id="linearGradient3770"
       xlink:href="#linearGradient2490"
       gradientUnits="userSpaceOnUse" />
  </defs>
  <path
     d="m 4.5,11.5 c -1.5277778,-0.03125 -4,-1 -4,-4 l 0,-3 c 0,-3 2.5,-3.9166667 4,-4 l 7,0 c 1.5,0.1145829 4,1 4,4 l 0,3 c 0,3 -1.513889,4 -3,4 -2.396168,-0.01417 -0.516156,2.724315 0,4 l -0.666667,0 -4.333333,-4 -3,0 z"
     id="path2819"
     style="fill:url(#radialGradient3618);fill-opacity:1;stroke:url(#linearGradient3770);stroke-opacity:1" />
  <path
     d="M 4.5625,1.46875 C 3.9779722,1.5012238 3.1410127,1.7262692 2.53125,2.1875 1.9214873,2.6487308 1.46875,3.2671695 1.46875,4.5 l 0,3 c 0,1.235799 0.4269982,1.8798635 1.03125,2.34375 0.5959111,0.457483 1.4295699,0.670499 2,0.6875 l 0.03125,0 2.96875,0 a 0.96190641,0.96190641 0 0 1 0.65625,0.25 l 2.25,2.0625 c -0.07837,-0.430007 -0.112978,-0.890546 0.15625,-1.375 0.35897,-0.645939 1.156009,-0.942121 1.9375,-0.9375 0.527322,0 0.978108,-0.157481 1.34375,-0.5625 0.365642,-0.4050192 0.6875,-1.130536 0.6875,-2.46875 l 0,-3 C 14.53125,3.2671695 14.11029,2.6461958 13.5,2.1875 12.88971,1.7288042 12.040362,1.5148018 11.4375,1.46875 l -6.875,0 z"
     id="path3616"
     style="opacity:0.41999996;fill:none;stroke:url(#linearGradient3687);stroke-opacity:1" />
  <rect
     width="9"
     height="3"
     rx="1.7763568e-15"
     ry="0"
     x="3.5"
     y="4.5"
     id="rect2831"
     style="fill:#c6272f;fill-opacity:1;stroke:none;display:inline" />
  <rect
     width="8"
     height="2"
     rx="1.5789839e-15"
     ry="0"
     x="4"
     y="5"
     id="rect2832"
     style="fill:#ffffff;fill-opacity:1;stroke:none;display:inline" />
</svg>
