<?xml version="1.0" encoding="UTF-8" standalone="no"?>
<!-- Created with Inkscape (http://www.inkscape.org/) -->

<svg
   xmlns:svg="http://www.w3.org/2000/svg"
   xmlns="http://www.w3.org/2000/svg"
   version="1.1"
   width="16"
   height="16"
   id="svg2816"
   style="display:inline">
  <defs
     id="defs2818" />
  <path
     d="M 5,12 C 3.4722222,11.968749 1,11 1,8 L 1,5 C 1,2 3.5,1.0833333 5,1 l 7,0 c 1.5,0.1145829 4,1 4,4 l 0,3 c 0,3 -1.513889,4 -3,4 -2.396168,-0.01417 -0.516156,2.724315 0,4 L 12.333333,16 8,12 l 0,-1 5,0 c 1,0 2,-1 2,-3 L 15,5 C 15,3 13,2 12,2 L 5,2 C 4,2 2,3 2,5 l 0,3 c 0,2 2,3 3,3 l 3,0 0,1 -3,0 z"
     id="path2819"
     style="fill:#606060;fill-opacity:1;stroke:none" />
</svg>
