<?xml version="1.0" encoding="UTF-8" standalone="no"?>
<!-- Created with Inkscape (http://www.inkscape.org/) -->

<svg
   xmlns:dc="http://purl.org/dc/elements/1.1/"
   xmlns:cc="http://creativecommons.org/ns#"
   xmlns:rdf="http://www.w3.org/1999/02/22-rdf-syntax-ns#"
   xmlns:svg="http://www.w3.org/2000/svg"
   xmlns="http://www.w3.org/2000/svg"
   xmlns:xlink="http://www.w3.org/1999/xlink"
   xmlns:sodipodi="http://sodipodi.sourceforge.net/DTD/sodipodi-0.dtd"
   xmlns:inkscape="http://www.inkscape.org/namespaces/inkscape"
   version="1.0"
   width="48"
   height="48"
   id="svg3258"
   inkscape:version="0.48.0 r9654"
   sodipodi:docname="gtk-stop.svg">
  <metadata
     id="metadata30">
    <rdf:RDF>
      <cc:Work
         rdf:about="">
        <dc:format>image/svg+xml</dc:format>
        <dc:type
           rdf:resource="http://purl.org/dc/dcmitype/StillImage" />
      </cc:Work>
    </rdf:RDF>
  </metadata>
  <sodipodi:namedview
     pagecolor="#ffffff"
     bordercolor="#666666"
     borderopacity="1"
     objecttolerance="10"
     gridtolerance="10"
     guidetolerance="10"
     inkscape:pageopacity="0"
     inkscape:pageshadow="2"
     inkscape:window-width="1280"
     inkscape:window-height="753"
     id="namedview28"
     showgrid="false"
     inkscape:zoom="11.3125"
     inkscape:cx="23.911602"
     inkscape:cy="16.928177"
     inkscape:window-x="0"
     inkscape:window-y="24"
     inkscape:window-maximized="1"
     inkscape:current-layer="svg3258" />
  <defs
     id="defs3260">
    <linearGradient
       inkscape:collect="always"
       id="linearGradient3806">
      <stop
         style="stop-color:#000000;stop-opacity:1;"
         offset="0"
         id="stop3808" />
      <stop
         style="stop-color:#000000;stop-opacity:0;"
         offset="1"
         id="stop3810" />
    </linearGradient>
    <linearGradient
       id="linearGradient8838">
      <stop
         id="stop8840"
         style="stop-color:#000000;stop-opacity:1"
         offset="0" />
      <stop
         id="stop8842"
         style="stop-color:#000000;stop-opacity:0"
         offset="1" />
    </linearGradient>
    <radialGradient
       cx="62.625"
       cy="4.625"
       r="10.625"
       fx="62.625"
       fy="4.625"
       id="radialGradient3254"
       xlink:href="#linearGradient8838"
       gradientUnits="userSpaceOnUse"
       gradientTransform="matrix(2.1647059,0,0,0.7529402,-111.56471,36.517647)" />
    <linearGradient
       id="linearGradient2490">
      <stop
         id="stop2492"
         style="stop-color:#791235;stop-opacity:1"
         offset="0" />
      <stop
         id="stop2494"
         style="stop-color:#dd3b27;stop-opacity:1"
         offset="1" />
    </linearGradient>
    <linearGradient
       x1="18.379412"
       y1="44.980297"
       x2="18.379412"
       y2="3.0816143"
       id="linearGradient3251"
       xlink:href="#linearGradient2490"
       gradientUnits="userSpaceOnUse"
       gradientTransform="matrix(0.9584364,0,0,0.9584366,0.9975246,1.9975253)" />
    <linearGradient
       id="linearGradient3242">
      <stop
         id="stop3244"
         style="stop-color:#f8b17e;stop-opacity:1"
         offset="0" />
      <stop
         id="stop3246"
         style="stop-color:#e35d4f;stop-opacity:1"
         offset="0.26238" />
      <stop
         id="stop3248"
         style="stop-color:#c6262e;stop-opacity:1"
         offset="0.66093999" />
      <stop
         id="stop3250"
         style="stop-color:#690b54;stop-opacity:1"
         offset="1" />
    </linearGradient>
    <radialGradient
       cx="23.895569"
       cy="3.9900031"
       r="20.397499"
       fx="23.895569"
       fy="3.9900031"
       id="radialGradient3249"
       xlink:href="#linearGradient3242"
       gradientUnits="userSpaceOnUse"
       gradientTransform="matrix(0,2.2874593,-3.0194057,0,36.047437,-50.630156)" />
    <linearGradient
       id="linearGradient4873">
      <stop
         id="stop4875"
         style="stop-color:#ffffff;stop-opacity:1"
         offset="0" />
      <stop
         id="stop4877"
         style="stop-color:#ffffff;stop-opacity:0"
         offset="1" />
    </linearGradient>
    <linearGradient
       x1="63.397362"
       y1="-12.489107"
       x2="63.397362"
       y2="5.4675598"
       id="linearGradient3246"
       xlink:href="#linearGradient4873"
       gradientUnits="userSpaceOnUse"
       gradientTransform="matrix(2.1153735,0,0,2.1153253,-107.57709,32.426559)" />
    <linearGradient
       inkscape:collect="always"
       xlink:href="#linearGradient4873"
       id="linearGradient3010"
       gradientUnits="userSpaceOnUse"
       gradientTransform="matrix(2.1153735,0,0,2.1153253,-107.57709,32.426559)"
       x1="63.397362"
       y1="-12.489107"
       x2="63.397362"
       y2="5.4675598" />
    <radialGradient
       inkscape:collect="always"
       xlink:href="#linearGradient3242"
       id="radialGradient3013"
       gradientUnits="userSpaceOnUse"
       gradientTransform="matrix(0,2.2874593,-3.0194057,0,36.047437,-50.630156)"
       cx="23.895569"
       cy="3.9900031"
       fx="23.895569"
       fy="3.9900031"
       r="20.397499" />
    <linearGradient
       inkscape:collect="always"
       xlink:href="#linearGradient2490"
       id="linearGradient3015"
       gradientUnits="userSpaceOnUse"
       gradientTransform="matrix(0.9584364,0,0,0.9584366,0.9975246,1.9975253)"
       x1="18.379412"
       y1="44.980297"
       x2="18.379412"
       y2="3.0816143" />
    <radialGradient
       inkscape:collect="always"
       xlink:href="#linearGradient8838"
       id="radialGradient3018"
       gradientUnits="userSpaceOnUse"
       gradientTransform="matrix(2.1647059,0,0,0.7529402,-111.56471,36.517647)"
       cx="62.625"
       cy="4.625"
       fx="62.625"
       fy="4.625"
       r="10.625" />
    <linearGradient
       inkscape:collect="always"
       xlink:href="#linearGradient3806"
       id="linearGradient3812"
       x1="14.09375"
       y1="24.59375"
       x2="33.90625"
       y2="24.59375"
       gradientUnits="userSpaceOnUse" />
    <linearGradient
       inkscape:collect="always"
       xlink:href="#linearGradient3806"
       id="linearGradient3816"
       gradientUnits="userSpaceOnUse"
       x1="24.701485"
       y1="15.223584"
       x2="24.701485"
       y2="33.792114" />
    <linearGradient
       inkscape:collect="always"
       xlink:href="#linearGradient3806"
       id="linearGradient3819"
       gradientUnits="userSpaceOnUse"
       x1="24.701485"
       y1="15.223584"
       x2="24.701485"
       y2="33.792114" />
  </defs>
  <path
     inkscape:connector-curvature="0"
     style="opacity:0.3;fill:url(#radialGradient3018);fill-opacity:1;fill-rule:evenodd;stroke:none;stroke-width:0.99999988;marker:none;visibility:visible;display:inline;overflow:visible"
     id="path8836"
     d="m 46.999997,40 c 0,4.418278 -10.297452,8 -23,8 -12.702548,0 -23.0000002,-3.581722 -23.0000002,-8 0,-4.418278 10.2974522,-8 23.0000002,-8 12.702548,0 23,3.581722 23,8 l 0,0 z" />
  <path
     inkscape:connector-curvature="0"
     style="fill:url(#radialGradient3013);fill-opacity:1;stroke:url(#linearGradient3015);stroke-width:1.003654;stroke-linecap:round;stroke-linejoin:round;stroke-miterlimit:4;stroke-opacity:1;stroke-dasharray:none;stroke-dashoffset:0"
     id="path2555"
     d="M 24.000002,5.5018088 C 13.241573,5.5018088 4.5018088,14.24157 4.5018088,25 c 0,10.75843 8.7397642,19.498195 19.4981932,19.498192 10.758425,0 19.498199,-8.739762 19.498189,-19.498192 0,-10.75843 -8.739764,-19.4981912 -19.498189,-19.4981912 z" />
  <path
     inkscape:connector-curvature="0"
     style="opacity:0.4;fill:none;stroke:url(#linearGradient3010);stroke-width:1;stroke-miterlimit:4;stroke-opacity:1;stroke-dasharray:none"
     id="path8655"
     d="M 42.500002,24.999344 C 42.500002,35.216942 34.21666,43.5 24.000235,43.5 13.782875,43.5 5.5000003,35.216848 5.5000003,24.999344 c 0,-10.217125 8.2828747,-18.4993439 18.5002347,-18.4993439 10.216425,0 18.499767,8.2822189 18.499767,18.4993439 l 0,0 z" />
  <path
     inkscape:connector-curvature="0"
     style="opacity:0.2;fill:#000000;fill-opacity:1;fill-rule:evenodd;stroke:none"
     id="path3243"
     d="m 17.5625,14.1875 -2.96875,2.96875 6.125,6.09375 c 0.188168,0.19054 0.188168,0.49696 0,0.6875 l -6.125,6.09375 L 17.5625,33 23.65625,26.90625 c 0.19054,-0.188168 0.49696,-0.188168 0.6875,0 L 30.4375,33 33.40625,30.03125 27.3125,23.9375 c -0.188168,-0.19054 -0.188168,-0.49696 0,-0.6875 l 6.09375,-6.09375 -2.96875,-2.96875 -6.09375,6.09375 c -0.19054,0.188168 -0.49696,0.188168 -0.6875,0 L 17.5625,14.1875 z" />
  <path
     inkscape:connector-curvature="0"
     style="fill:#ffffff;fill-opacity:1;fill-rule:evenodd;stroke:none"
     id="path3256"
     d="m 17.5625,15.1875 -2.96875,2.96875 6.125,6.09375 c 0.188168,0.19054 0.188168,0.49696 0,0.6875 l -6.125,6.09375 L 17.5625,34 23.65625,27.90625 c 0.19054,-0.188168 0.49696,-0.188168 0.6875,0 L 30.4375,34 33.40625,31.03125 27.3125,24.9375 c -0.188168,-0.19054 -0.188168,-0.49696 0,-0.6875 l 6.09375,-6.09375 -2.96875,-2.96875 -6.09375,6.09375 c -0.19054,0.188168 -0.49696,0.188168 -0.6875,0 L 17.5625,15.1875 z" />
  <path
     style="opacity:0.1;fill:none;stroke:url(#linearGradient3819);stroke-opacity:1"
     d="M 30.4375,33.375 C 31.21875,32.59375 32,31.8125 32.78125,31.03125 30.854167,29.104167 28.927083,27.177083 27,25.25 26.421716,24.67812 26.897406,23.932896 27.408375,23.529125 29.199333,21.738167 30.990292,19.947208 32.78125,18.15625 32,17.375 31.21875,16.59375 30.4375,15.8125 c -1.927083,1.927083 -3.854167,3.854167 -5.78125,5.78125 -0.57188,0.578284 -1.317104,0.102594 -1.720875,-0.408375 C 21.144417,19.394417 19.353458,17.603458 17.5625,15.8125 16.78125,16.59375 16,17.375 15.21875,18.15625 c 1.9375,1.927083 3.875,3.854167 5.8125,5.78125 0.578097,0.571693 0.103269,1.317782 -0.409474,1.719773 -1.801009,1.791326 -3.602017,3.582651 -5.403026,5.373977 0.78125,0.78125 1.5625,1.5625 2.34375,2.34375"
     id="path3814"
     inkscape:connector-curvature="0"
     sodipodi:nodetypes="cccccccccccccc" />
</svg>
