<?xml version="1.0" encoding="UTF-8" standalone="no"?>
<!-- Created with Inkscape (http://www.inkscape.org/) -->
<svg
   xmlns:dc="http://purl.org/dc/elements/1.1/"
   xmlns:cc="http://web.resource.org/cc/"
   xmlns:rdf="http://www.w3.org/1999/02/22-rdf-syntax-ns#"
   xmlns:svg="http://www.w3.org/2000/svg"
   xmlns="http://www.w3.org/2000/svg"
   xmlns:xlink="http://www.w3.org/1999/xlink"
   xmlns:sodipodi="http://sodipodi.sourceforge.net/DTD/sodipodi-0.dtd"
   xmlns:inkscape="http://www.inkscape.org/namespaces/inkscape"
   width="16"
   height="16"
   id="svg10572"
   sodipodi:version="0.32"
   inkscape:version="0.45"
   version="1.0"
   sodipodi:docbase="/home/lapo/Icone/art-libre/16x16"
   sodipodi:docname="node-insert.svg"
   inkscape:output_extension="org.inkscape.output.svg.inkscape"
   sodipodi:modified="true">
  <defs
     id="defs10574">
    <linearGradient
       inkscape:collect="always"
       id="linearGradient9682">
      <stop
         style="stop-color:#ffffff;stop-opacity:1;"
         offset="0"
         id="stop9684" />
      <stop
         style="stop-color:#ffffff;stop-opacity:0;"
         offset="1"
         id="stop9686" />
    </linearGradient>
    <linearGradient
       id="linearGradient8633">
      <stop
         id="stop8635"
         offset="0"
         style="stop-color:#d3d7cf;stop-opacity:1" />
      <stop
         id="stop8637"
         offset="1"
         style="stop-color:#eeeeec;stop-opacity:1" />
    </linearGradient>
    <linearGradient
       id="linearGradient2378">
      <stop
         style="stop-color:#ffffff;stop-opacity:1;"
         offset="0"
         id="stop2380" />
      <stop
         id="stop4146"
         offset="0.25"
         style="stop-color:#fefede;stop-opacity:0.91836733;" />
      <stop
         id="stop2386"
         offset="0.5"
         style="stop-color:#f5f328;stop-opacity:1;" />
      <stop
         style="stop-color:#f5f32d;stop-opacity:0.12234043;"
         offset="1"
         id="stop10317" />
    </linearGradient>
    <linearGradient
       inkscape:collect="always"
       id="linearGradient7713">
      <stop
         style="stop-color:#babdb6;stop-opacity:1;"
         offset="0"
         id="stop7715" />
      <stop
         style="stop-color:#babdb6;stop-opacity:0;"
         offset="1"
         id="stop7717" />
    </linearGradient>
    <linearGradient
       inkscape:collect="always"
       id="linearGradient7705">
      <stop
         style="stop-color:#555753;stop-opacity:1;"
         offset="0"
         id="stop7707" />
      <stop
         style="stop-color:#555753;stop-opacity:0;"
         offset="1"
         id="stop7709" />
    </linearGradient>
    <linearGradient
       inkscape:collect="always"
       xlink:href="#linearGradient7705"
       id="linearGradient5567"
       gradientUnits="userSpaceOnUse"
       gradientTransform="translate(10,-1)"
       x1="6.000061"
       y1="437.48438"
       x2="3.9999187"
       y2="437.48438" />
    <linearGradient
       inkscape:collect="always"
       xlink:href="#linearGradient7713"
       id="linearGradient5569"
       gradientUnits="userSpaceOnUse"
       gradientTransform="translate(10,-1)"
       x1="6"
       y1="438.51562"
       x2="3.999939"
       y2="438.51562" />
    <linearGradient
       inkscape:collect="always"
       xlink:href="#linearGradient7705"
       id="linearGradient5571"
       gradientUnits="userSpaceOnUse"
       gradientTransform="translate(10,1)"
       x1="6.000061"
       y1="437.48438"
       x2="3.9999187"
       y2="437.48438" />
    <linearGradient
       inkscape:collect="always"
       xlink:href="#linearGradient7705"
       id="linearGradient5573"
       gradientUnits="userSpaceOnUse"
       gradientTransform="translate(-39,-876)"
       x1="6.000061"
       y1="437.48438"
       x2="3.9999187"
       y2="437.48438" />
    <linearGradient
       inkscape:collect="always"
       xlink:href="#linearGradient7713"
       id="linearGradient5575"
       gradientUnits="userSpaceOnUse"
       gradientTransform="translate(-39,-876)"
       x1="6"
       y1="438.51562"
       x2="3.999939"
       y2="438.51562" />
    <linearGradient
       inkscape:collect="always"
       xlink:href="#linearGradient7705"
       id="linearGradient5577"
       gradientUnits="userSpaceOnUse"
       gradientTransform="translate(-39,-874)"
       x1="6.000061"
       y1="437.48438"
       x2="3.9999187"
       y2="437.48438" />
    <linearGradient
       inkscape:collect="always"
       xlink:href="#linearGradient8633"
       id="linearGradient5579"
       gradientUnits="userSpaceOnUse"
       gradientTransform="translate(-47,-415)"
       x1="23.4375"
       y1="423.9375"
       x2="26.251186"
       y2="434.43832" />
    <linearGradient
       inkscape:collect="always"
       xlink:href="#linearGradient9682"
       id="linearGradient5581"
       gradientUnits="userSpaceOnUse"
       gradientTransform="translate(-47,-422)"
       x1="22.910416"
       y1="431.60751"
       x2="27.329832"
       y2="440.2254" />
    <radialGradient
       inkscape:collect="always"
       xlink:href="#linearGradient2378"
       id="radialGradient5583"
       gradientUnits="userSpaceOnUse"
       cx="38.658855"
       cy="9.3411446"
       fx="38.658855"
       fy="9.3411446"
       r="8.341651" />
  </defs>
  <sodipodi:namedview
     id="base"
     pagecolor="#ffffff"
     bordercolor="#666666"
     borderopacity="1.0"
     inkscape:pageopacity="0.0"
     inkscape:pageshadow="2"
     inkscape:zoom="1"
     inkscape:cx="10.579401"
     inkscape:cy="3.964816"
     inkscape:current-layer="layer1"
     showgrid="false"
     inkscape:grid-bbox="true"
     inkscape:document-units="px"
     width="16px"
     height="16px"
     inkscape:showpageshadow="false"
     showborder="true"
     inkscape:window-width="872"
     inkscape:window-height="626"
     inkscape:window-x="207"
     inkscape:window-y="207" />
  <metadata
     id="metadata10577">
    <rdf:RDF>
      <cc:Work
         rdf:about="">
        <dc:format>image/svg+xml</dc:format>
        <dc:type
           rdf:resource="http://purl.org/dc/dcmitype/StillImage" />
        <dc:title>Node Add</dc:title>
        <dc:date>2006-05-01</dc:date>
        <dc:creator>
          <cc:Agent>
            <dc:title>Lapo Calamandrei</dc:title>
          </cc:Agent>
        </dc:creator>
        <dc:subject>
          <rdf:Bag>
            <rdf:li>node</rdf:li>
            <rdf:li>vertex</rdf:li>
            <rdf:li>add</rdf:li>
            <rdf:li>create</rdf:li>
            <rdf:li>new</rdf:li>
          </rdf:Bag>
        </dc:subject>
        <cc:license
           rdf:resource="http://creativecommons.org/licenses/GPL/2.0/" />
      </cc:Work>
      <cc:License
         rdf:about="http://creativecommons.org/licenses/GPL/2.0/">
        <cc:permits
           rdf:resource="http://web.resource.org/cc/Reproduction" />
        <cc:permits
           rdf:resource="http://web.resource.org/cc/Distribution" />
        <cc:requires
           rdf:resource="http://web.resource.org/cc/Notice" />
        <cc:permits
           rdf:resource="http://web.resource.org/cc/DerivativeWorks" />
        <cc:requires
           rdf:resource="http://web.resource.org/cc/ShareAlike" />
        <cc:requires
           rdf:resource="http://web.resource.org/cc/SourceCode" />
      </cc:License>
    </rdf:RDF>
  </metadata>
  <g
     id="layer1"
     inkscape:label="Layer 1"
     inkscape:groupmode="layer">
    <g
       id="g5510"
       transform="translate(30,0)">
      <g
         transform="translate(-45,-426)"
         id="g11253">
        <rect
           style="fill:url(#linearGradient5567);fill-opacity:1;stroke:none;stroke-width:1;stroke-linecap:round;stroke-linejoin:miter;stroke-miterlimit:4;stroke-dasharray:none;stroke-opacity:1"
           id="rect11255"
           width="8"
           height="1"
           x="14"
           y="436" />
        <rect
           style="fill:url(#linearGradient5569);fill-opacity:1;stroke:none;stroke-width:1;stroke-linecap:round;stroke-linejoin:miter;stroke-miterlimit:4;stroke-dasharray:none;stroke-opacity:1"
           id="rect11257"
           width="8"
           height="1"
           x="14"
           y="437" />
        <rect
           style="fill:url(#linearGradient5571);fill-opacity:1;stroke:none;stroke-width:1;stroke-linecap:round;stroke-linejoin:miter;stroke-miterlimit:4;stroke-dasharray:none;stroke-opacity:1"
           id="rect11259"
           width="8"
           height="1"
           x="14"
           y="438" />
      </g>
      <g
         transform="translate(-48,-426)"
         id="g11261">
        <rect
           transform="scale(-1,-1)"
           style="fill:url(#linearGradient5573);fill-opacity:1;stroke:none;stroke-width:1;stroke-linecap:round;stroke-linejoin:miter;stroke-miterlimit:4;stroke-dasharray:none;stroke-opacity:1"
           id="rect11263"
           width="8"
           height="1"
           x="-35"
           y="-439" />
        <rect
           transform="scale(-1,-1)"
           style="fill:url(#linearGradient5575);fill-opacity:1;stroke:none;stroke-width:1;stroke-linecap:round;stroke-linejoin:miter;stroke-miterlimit:4;stroke-dasharray:none;stroke-opacity:1"
           id="rect11265"
           width="8"
           height="1"
           x="-35"
           y="-438" />
        <rect
           transform="scale(-1,-1)"
           style="fill:url(#linearGradient5577);fill-opacity:1;stroke:none;stroke-width:1;stroke-linecap:round;stroke-linejoin:miter;stroke-miterlimit:4;stroke-dasharray:none;stroke-opacity:1"
           id="rect11267"
           width="8"
           height="1"
           x="-35"
           y="-437" />
      </g>
      <rect
         ry="0.64931798"
         rx="0.64931798"
         y="8.5"
         x="-25.5"
         height="6"
         width="6"
         id="rect11281"
         style="fill:url(#linearGradient5579);fill-opacity:1;stroke:#888a85;stroke-width:1;stroke-linecap:round;stroke-linejoin:round;stroke-miterlimit:4;stroke-dasharray:none;stroke-dashoffset:0;stroke-opacity:1" />
      <path
         style="opacity:1;fill:none;fill-opacity:1;stroke:url(#linearGradient5581);stroke-width:1.00000048;stroke-linecap:round;stroke-linejoin:miter;stroke-miterlimit:4;stroke-opacity:1"
         d="M -24.499993,9.50001 L -20.500007,9.50001 L -20.500007,13.50013 L -24.499993,13.50013 L -24.499993,9.50001 z "
         id="path11283" />
      <g
         transform="translate(-48,-421)"
         id="g11289">
        <g
           id="g11291"
           transform="translate(1,-2)">
          <path
             sodipodi:type="arc"
             style="fill:url(#radialGradient5583);fill-opacity:1;fill-rule:evenodd;stroke:none;stroke-width:1px;stroke-linecap:butt;stroke-linejoin:miter;stroke-opacity:1"
             id="path11293"
             sodipodi:cx="38.658855"
             sodipodi:cy="9.3411446"
             sodipodi:rx="8.341651"
             sodipodi:ry="8.341651"
             d="M 47.000506 9.3411446 A 8.341651 8.341651 0 1 1  30.317204,9.3411446 A 8.341651 8.341651 0 1 1  47.000506 9.3411446 z"
             transform="matrix(0.6381964,0,0,0.6527009,1.8280575,423.27802)" />
          <path
             transform="matrix(0.3735602,0.1529503,-0.1660098,0.3441734,14.555208,419.81907)"
             d="M 33.71875,0.03125 C 33.25038,0.006971748 32.710238,0.04529767 32.15625,0.28125 C 31.026273,0.76252465 30.455525,1.7295993 30.21875,2.34375 C 29.981975,2.9579007 29.937732,3.3987102 29.90625,3.8125 C 29.843286,4.6400796 29.916332,5.3342193 29.96875,6 C 30.001789,6.4196326 30.037976,6.7273675 30.0625,7.0625 C 29.742659,7.2230167 29.443042,7.3911599 29.03125,7.59375 C 28.421024,7.8939644 27.778032,8.2106444 27.09375,8.6875 C 26.751609,8.9259278 26.373692,9.1874648 25.96875,9.6875 C 25.563808,10.187535 25.049144,11.105242 25.15625,12.3125 C 25.264926,13.537457 25.99097,14.366522 26.5,14.78125 C 27.00903,15.195978 27.429157,15.37237 27.8125,15.53125 C 28.579186,15.84901 29.255806,15.997849 29.90625,16.15625 C 30.330069,16.259462 30.63502,16.32268 30.96875,16.40625 C 31.02466,16.761827 31.087892,17.103002 31.15625,17.5625 C 31.256088,18.233609 31.348122,18.954149 31.59375,19.75 C 31.716564,20.147926 31.867011,20.557176 32.21875,21.09375 C 32.570489,21.630324 33.261652,22.417544 34.4375,22.6875 C 35.626982,22.960585 36.634043,22.543205 37.1875,22.1875 C 37.740957,21.831795 38.043382,21.471419 38.3125,21.15625 C 38.850736,20.525912 39.214465,19.940915 39.5625,19.375 C 39.786635,19.01055 39.94611,18.755634 40.125,18.46875 C 40.482545,18.524434 40.821337,18.580842 41.28125,18.65625 C 41.952965,18.766385 42.667129,18.865434 43.5,18.875 C 43.916435,18.879783 44.35184,18.888044 44.96875,18.71875 C 45.58566,18.549456 46.566358,18.130367 47.1875,17.09375 C 47.817324,16.042643 47.698812,14.916627 47.53125,14.28125 C 47.363688,13.645873 47.154086,13.2599 46.9375,12.90625 C 46.504329,12.19895 46.02563,11.664697 45.59375,11.15625 C 45.317603,10.831145 45.123948,10.603108 44.90625,10.34375 C 45.067657,10.027269 45.227233,9.7171578 45.4375,9.3125 C 45.749091,8.7128455 46.07661,8.1003462 46.34375,7.3125 C 46.47732,6.9185769 46.595828,6.484287 46.625,5.84375 C 46.654172,5.203213 46.538668,4.1550279 45.75,3.25 C 44.950066,2.3320462 43.904222,2.1026594 43.25,2.0625 C 42.595778,2.0223406 42.153111,2.0930099 41.75,2.1875 C 40.943778,2.3764801 40.271857,2.6564271 39.65625,2.90625 C 39.25449,3.0692905 38.973109,3.1862504 38.65625,3.3125 C 38.401264,3.0584702 38.169883,2.830184 37.84375,2.5 C 37.367094,2.0174234 36.855154,1.4970295 36.1875,1 C 35.853673,0.75148523 35.505496,0.47536814 34.90625,0.25 C 34.606627,0.13731593 34.18712,0.055528252 33.71875,0.03125 z "
             id="path11295"
             style="color:#000000;fill:#edd400;fill-opacity:1;fill-rule:evenodd;stroke:none;stroke-width:0.5;stroke-linecap:butt;stroke-linejoin:miter;marker:none;marker-start:none;marker-mid:none;marker-end:none;stroke-miterlimit:4;stroke-dasharray:none;stroke-dashoffset:0;stroke-opacity:1;visibility:visible;display:inline;overflow:visible"
             inkscape:original="M 33.375 3.125 C 32.419183 3.5320974 33.550701 7.8815357 33.03125 8.78125 C 32.499568 9.7021517 28.124779 10.972045 28.21875 12.03125 C 28.310559 13.066086 32.804838 13.352947 33.5 14.125 C 34.211531 14.915234 34.088599 19.449559 35.125 19.6875 C 36.137558 19.919966 37.769669 15.766309 38.71875 15.34375 C 39.690182 14.91124 43.984689 16.41215 44.53125 15.5 C 45.065236 14.608836 41.608596 11.751959 41.5 10.71875 C 41.388847 9.6612101 44.136108 6.08293 43.4375 5.28125 C 42.754964 4.4980144 38.984949 6.8722486 37.96875 6.65625 C 36.928622 6.4351647 34.353325 2.7083158 33.375 3.125 z "
             inkscape:radius="3.080488"
             sodipodi:type="inkscape:offset" />
          <path
             sodipodi:type="star"
             style="color:#000000;fill:#ffffff;fill-opacity:1;fill-rule:evenodd;stroke:none;stroke-width:0.5;stroke-linecap:butt;stroke-linejoin:miter;marker:none;marker-start:none;marker-mid:none;marker-end:none;stroke-miterlimit:4;stroke-dasharray:none;stroke-dashoffset:0;stroke-opacity:1;visibility:visible;display:inline;overflow:visible"
             id="path11297"
             sodipodi:sides="5"
             sodipodi:cx="36.9375"
             sodipodi:cy="11.125"
             sodipodi:r1="8.7220669"
             sodipodi:r2="4.6539545"
             sodipodi:arg1="0.52080031"
             sodipodi:arg2="1.1731293"
             inkscape:flatsided="false"
             inkscape:rounded="0.39900269"
             inkscape:randomized="0"
             d="M 44.503206,15.464878 C 43.311375,17.431625 40.838071,14.474548 38.73983,15.415792 C 36.715245,16.323996 37.308156,20.168795 35.147962,19.66151 C 32.909179,19.13577 34.957233,15.86973 33.413664,14.165045 C 31.924281,12.520201 28.450879,14.272202 28.265799,12.060975 C 28.073985,9.7693027 31.813057,10.707857 32.95732,8.7130589 C 34.061415,6.7882861 31.321823,4.0262827 33.367632,3.1669544 C 35.487868,2.2763629 35.750687,6.1224608 38.001449,6.5942931 C 40.173201,7.0495623 41.953442,3.5905499 43.402901,5.270682 C 44.905093,7.0119388 41.328452,8.4504041 41.575237,10.73681 C 41.813358,12.942955 45.653199,13.567171 44.503206,15.464878 z "
             transform="matrix(0.3831859,0.1529503,-0.1702874,0.3441734,14.241265,419.81907)" />
        </g>
        <rect
           y="424"
           x="27"
           height="1"
           width="1"
           id="rect11299"
           style="opacity:1;fill:#ffffff;fill-opacity:1;stroke:none;stroke-width:1;stroke-linecap:round;stroke-linejoin:round;stroke-miterlimit:4;stroke-dasharray:none;stroke-dashoffset:0;stroke-opacity:1" />
        <rect
           y="426"
           x="24"
           height="1"
           width="1"
           id="rect11301"
           style="opacity:1;fill:#ffffff;fill-opacity:1;stroke:none;stroke-width:1;stroke-linecap:round;stroke-linejoin:round;stroke-miterlimit:4;stroke-dasharray:none;stroke-dashoffset:0;stroke-opacity:1" />
        <rect
           y="426"
           x="30"
           height="1"
           width="1"
           id="rect11303"
           style="opacity:1;fill:#ffffff;fill-opacity:1;stroke:none;stroke-width:1;stroke-linecap:round;stroke-linejoin:round;stroke-miterlimit:4;stroke-dasharray:none;stroke-dashoffset:0;stroke-opacity:1" />
        <rect
           y="429"
           x="29"
           height="1"
           width="1"
           id="rect11305"
           style="opacity:1;fill:#ffffff;fill-opacity:1;stroke:none;stroke-width:1;stroke-linecap:round;stroke-linejoin:round;stroke-miterlimit:4;stroke-dasharray:none;stroke-dashoffset:0;stroke-opacity:1" />
        <rect
           y="429"
           x="25"
           height="1"
           width="1"
           id="rect11307"
           style="opacity:1;fill:#ffffff;fill-opacity:1;stroke:none;stroke-width:1;stroke-linecap:round;stroke-linejoin:round;stroke-miterlimit:4;stroke-dasharray:none;stroke-dashoffset:0;stroke-opacity:1" />
      </g>
    </g>
  </g>
</svg>
