<?xml version="1.0" encoding="UTF-8" standalone="no"?>
<!-- Created with Inkscape (http://www.inkscape.org/) -->

<svg
   xmlns:svg="http://www.w3.org/2000/svg"
   xmlns="http://www.w3.org/2000/svg"
   xmlns:xlink="http://www.w3.org/1999/xlink"
   version="1.1"
   width="48"
   height="48"
   id="svg2963">
  <defs
     id="defs3">
    <linearGradient
       id="linearGradient2394">
      <stop
         id="stop2396"
         style="stop-color:#5c3566;stop-opacity:1"
         offset="0" />
      <stop
         id="stop2398"
         style="stop-color:#45284d;stop-opacity:1"
         offset="1" />
    </linearGradient>
    <linearGradient
       id="linearGradient2384">
      <stop
         id="stop2386"
         style="stop-color:#5c3566;stop-opacity:1"
         offset="0" />
      <stop
         id="stop2388"
         style="stop-color:#43274b;stop-opacity:1"
         offset="1" />
    </linearGradient>
    <linearGradient
       id="linearGradient3919">
      <stop
         id="stop3921"
         style="stop-color:white;stop-opacity:1"
         offset="0" />
      <stop
         id="stop3923"
         style="stop-color:white;stop-opacity:0"
         offset="1" />
    </linearGradient>
    <linearGradient
       id="linearGradient3887">
      <stop
         id="stop3889"
         style="stop-color:#edd400;stop-opacity:1"
         offset="0" />
      <stop
         id="stop3891"
         style="stop-color:#fce94f;stop-opacity:1"
         offset="1" />
    </linearGradient>
    <linearGradient
       id="linearGradient3800">
      <stop
         id="stop3802"
         style="stop-color:#babdb6;stop-opacity:1"
         offset="0" />
      <stop
         id="stop3804"
         style="stop-color:#eeeeec;stop-opacity:1"
         offset="0.5" />
      <stop
         id="stop3806"
         style="stop-color:#babdb6;stop-opacity:1"
         offset="1" />
    </linearGradient>
    <linearGradient
       id="linearGradient3792">
      <stop
         id="stop3794"
         style="stop-color:white;stop-opacity:1"
         offset="0" />
      <stop
         id="stop3796"
         style="stop-color:white;stop-opacity:1"
         offset="0.5" />
      <stop
         id="stop3798"
         style="stop-color:#888a85;stop-opacity:1"
         offset="1" />
    </linearGradient>
    <linearGradient
       id="linearGradient3786">
      <stop
         id="stop3788"
         style="stop-color:#888a85;stop-opacity:1"
         offset="0" />
      <stop
         id="stop3790"
         style="stop-color:#2e3436;stop-opacity:1"
         offset="1" />
    </linearGradient>
    <linearGradient
       id="linearGradient3551">
      <stop
         id="stop3553"
         style="stop-color:white;stop-opacity:1"
         offset="0" />
      <stop
         id="stop3555"
         style="stop-color:#888a85;stop-opacity:1"
         offset="1" />
    </linearGradient>
    <linearGradient
       id="linearGradient3539">
      <stop
         id="stop3541"
         style="stop-color:white;stop-opacity:1"
         offset="0" />
      <stop
         id="stop3543"
         style="stop-color:#888a85;stop-opacity:1"
         offset="1" />
    </linearGradient>
    <linearGradient
       id="linearGradient3517">
      <stop
         id="stop3519"
         style="stop-color:white;stop-opacity:1"
         offset="0" />
      <stop
         id="stop3521"
         style="stop-color:#eeeeec;stop-opacity:1"
         offset="1" />
    </linearGradient>
    <linearGradient
       id="linearGradient3470">
      <stop
         id="stop3472"
         style="stop-color:#f5e0be;stop-opacity:1"
         offset="0" />
      <stop
         id="stop3474"
         style="stop-color:#8ae234;stop-opacity:1"
         offset="1" />
    </linearGradient>
    <linearGradient
       id="linearGradient3251">
      <stop
         id="stop3253"
         style="stop-color:#695337;stop-opacity:1"
         offset="0" />
      <stop
         id="stop3255"
         style="stop-color:#695337;stop-opacity:0"
         offset="1" />
    </linearGradient>
    <linearGradient
       id="linearGradient3243">
      <stop
         id="stop3245"
         style="stop-color:black;stop-opacity:1"
         offset="0" />
      <stop
         id="stop3247"
         style="stop-color:black;stop-opacity:0"
         offset="1" />
    </linearGradient>
    <linearGradient
       x1="30.5"
       y1="18.665291"
       x2="30.5"
       y2="26"
       id="linearGradient3746"
       xlink:href="#linearGradient3919"
       gradientUnits="userSpaceOnUse" />
    <linearGradient
       x1="13.89607"
       y1="4.6658931"
       x2="12.919692"
       y2="13.139417"
       id="linearGradient3893"
       xlink:href="#linearGradient3887"
       gradientUnits="userSpaceOnUse" />
    <linearGradient
       x1="13.89607"
       y1="4.6658931"
       x2="12.919692"
       y2="13.139417"
       id="linearGradient3917"
       xlink:href="#linearGradient3887"
       gradientUnits="userSpaceOnUse" />
    <linearGradient
       x1="14"
       y1="3"
       x2="14"
       y2="16.361229"
       id="linearGradient3925"
       xlink:href="#linearGradient3919"
       gradientUnits="userSpaceOnUse" />
    <linearGradient
       x1="27.616999"
       y1="15.720971"
       x2="35.25803"
       y2="15.5"
       id="linearGradient3934"
       xlink:href="#linearGradient3800"
       gradientUnits="userSpaceOnUse"
       gradientTransform="matrix(1,0,0,-1,0,48)" />
    <radialGradient
       cx="31.264236"
       cy="12.943277"
       r="4.5557737"
       fx="31.264236"
       fy="12.943277"
       id="radialGradient3936"
       xlink:href="#linearGradient3792"
       gradientUnits="userSpaceOnUse"
       gradientTransform="matrix(1.3566902,0,0,0.7525334,-11.151648,1.0040626)" />
    <linearGradient
       x1="30.368853"
       y1="6.7115865"
       x2="30.512587"
       y2="24.090698"
       id="linearGradient3944"
       xlink:href="#linearGradient3919"
       gradientUnits="userSpaceOnUse" />
    <linearGradient
       x1="2.0517766"
       y1="23.775574"
       x2="2.0517766"
       y2="20.549225"
       id="linearGradient2379"
       xlink:href="#linearGradient3517"
       gradientUnits="userSpaceOnUse"
       gradientTransform="matrix(0.9659258,0.258819,0.258819,-0.9659258,12.365949,46.030428)" />
    <linearGradient
       x1="12.5"
       y1="16.248047"
       x2="12.5"
       y2="13.748305"
       id="linearGradient2381"
       xlink:href="#linearGradient3551"
       gradientUnits="userSpaceOnUse"
       gradientTransform="translate(3,0)" />
    <linearGradient
       x1="2.0517766"
       y1="23.775574"
       x2="2.0517766"
       y2="20.549225"
       id="linearGradient2403"
       xlink:href="#linearGradient3517"
       gradientUnits="userSpaceOnUse"
       gradientTransform="translate(13,0)" />
    <linearGradient
       x1="12.8125"
       y1="16.279297"
       x2="12.8125"
       y2="13.742194"
       id="linearGradient2405"
       xlink:href="#linearGradient3539"
       gradientUnits="userSpaceOnUse"
       gradientTransform="translate(3,0)" />
    <radialGradient
       cx="27.23303"
       cy="22.5"
       r="7"
       fx="27.23303"
       fy="22.5"
       id="radialGradient2439"
       xlink:href="#linearGradient3470"
       gradientUnits="userSpaceOnUse"
       gradientTransform="matrix(1.4456279,0,0,1.2531601,-10.145615,-5.696102)" />
    <linearGradient
       x1="20.8125"
       y1="15.28125"
       x2="22.718748"
       y2="24.59375"
       id="linearGradient2390"
       xlink:href="#linearGradient2384"
       gradientUnits="userSpaceOnUse" />
    <linearGradient
       x1="13.5625"
       y1="19.84375"
       x2="13.5625"
       y2="21.3125"
       id="linearGradient2400"
       xlink:href="#linearGradient2394"
       gradientUnits="userSpaceOnUse" />
    <linearGradient
       id="linearGradient3275">
      <stop
         id="stop3277"
         style="stop-color:white;stop-opacity:0"
         offset="0" />
      <stop
         id="stop3283"
         style="stop-color:white;stop-opacity:1"
         offset="0.245" />
      <stop
         id="stop3285"
         style="stop-color:white;stop-opacity:1"
         offset="0.77350003" />
      <stop
         id="stop3279"
         style="stop-color:white;stop-opacity:0"
         offset="1" />
    </linearGradient>
    <linearGradient
       id="linearGradient3199">
      <stop
         id="stop3201"
         style="stop-color:#dac197;stop-opacity:1"
         offset="0" />
      <stop
         id="stop3203"
         style="stop-color:#c1a581;stop-opacity:1"
         offset="0.23942046" />
      <stop
         id="stop3205"
         style="stop-color:#dbc298;stop-opacity:1"
         offset="0.27582464" />
      <stop
         id="stop3207"
         style="stop-color:#a68b60;stop-opacity:1"
         offset="1" />
    </linearGradient>
    <linearGradient
       id="linearGradient3295">
      <stop
         id="stop3297"
         style="stop-color:#c3a67d;stop-opacity:1"
         offset="0" />
      <stop
         id="stop3299"
         style="stop-color:#a17d4f;stop-opacity:1"
         offset="0.23942046" />
      <stop
         id="stop3301"
         style="stop-color:#bb9b71;stop-opacity:1"
         offset="0.27582464" />
      <stop
         id="stop3303"
         style="stop-color:#836945;stop-opacity:1"
         offset="1" />
    </linearGradient>
    <linearGradient
       id="linearGradient3681-3">
      <stop
         id="stop3683-8"
         style="stop-color:black;stop-opacity:1"
         offset="0" />
      <stop
         id="stop3685-0"
         style="stop-color:black;stop-opacity:0"
         offset="1" />
    </linearGradient>
    <linearGradient
       id="linearGradient3703-9">
      <stop
         id="stop3705-0"
         style="stop-color:black;stop-opacity:0"
         offset="0" />
      <stop
         id="stop3711-2"
         style="stop-color:black;stop-opacity:1"
         offset="0.5" />
      <stop
         id="stop3707-8"
         style="stop-color:black;stop-opacity:0"
         offset="1" />
    </linearGradient>
    <linearGradient
       x1="24.822832"
       y1="15.377745"
       x2="24.996943"
       y2="37.27668"
       id="linearGradient3250"
       xlink:href="#linearGradient3199"
       gradientUnits="userSpaceOnUse"
       gradientTransform="matrix(1.0633391,0,0,1.1239996,-1.4369723,1.3450636)" />
    <linearGradient
       x1="15.464298"
       y1="7.9756851"
       x2="15.464298"
       y2="45.04248"
       id="linearGradient3252"
       xlink:href="#linearGradient3295"
       gradientUnits="userSpaceOnUse"
       gradientTransform="matrix(0.8292921,0,0,0.72177945,3.5969899,12.381617)" />
    <linearGradient
       x1="12.8125"
       y1="16.279297"
       x2="12.8125"
       y2="13.742194"
       id="linearGradient3278"
       xlink:href="#linearGradient3539"
       gradientUnits="userSpaceOnUse" />
    <linearGradient
       x1="2.0517766"
       y1="23.775574"
       x2="2.0517766"
       y2="20.549225"
       id="linearGradient3288"
       xlink:href="#linearGradient3517"
       gradientUnits="userSpaceOnUse"
       gradientTransform="translate(10,-6e-7)" />
    <linearGradient
       x1="10.5"
       y1="19.836557"
       x2="10.5"
       y2="21.077166"
       id="linearGradient3291"
       xlink:href="#linearGradient2384"
       gradientUnits="userSpaceOnUse" />
    <radialGradient
       cx="19.21875"
       cy="22.255209"
       r="4.46875"
       fx="19.21875"
       fy="22.255209"
       id="radialGradient3300"
       xlink:href="#linearGradient3786"
       gradientUnits="userSpaceOnUse"
       gradientTransform="matrix(1.22665,0,0,0.6587882,-4.355929,8.4385298)" />
    <linearGradient
       x1="11.12416"
       y1="21.5625"
       x2="13.168094"
       y2="21.5625"
       id="linearGradient3313"
       xlink:href="#linearGradient3251"
       gradientUnits="userSpaceOnUse"
       gradientTransform="matrix(-1.2459229,0,0,-1,50.369051,47.999999)" />
    <linearGradient
       x1="10.74916"
       y1="21.5"
       x2="12.109532"
       y2="21.5"
       id="linearGradient3325"
       xlink:href="#linearGradient3251"
       gradientUnits="userSpaceOnUse"
       gradientTransform="matrix(1.2307692,0,0,-1,-3.2307692,47.999999)" />
    <linearGradient
       x1="22.1875"
       y1="20"
       x2="22.1875"
       y2="24.079771"
       id="linearGradient3328"
       xlink:href="#linearGradient3251"
       gradientUnits="userSpaceOnUse"
       gradientTransform="matrix(1.0413943,0,0,1,-0.37772331,0)" />
    <radialGradient
       cx="5"
       cy="41.5"
       r="5"
       fx="5"
       fy="41.5"
       id="radialGradient3351"
       xlink:href="#linearGradient3681-3"
       gradientUnits="userSpaceOnUse"
       gradientTransform="matrix(0.5938225,0,0,1.5366531,-6.6594735,-103.93618)" />
    <linearGradient
       x1="17.554192"
       y1="46.000275"
       x2="17.554192"
       y2="34.999718"
       id="linearGradient3353"
       xlink:href="#linearGradient3703-9"
       gradientUnits="userSpaceOnUse"
       gradientTransform="matrix(1.7570316,0,0,1.3969574,-17.394014,-16.411698)" />
    <radialGradient
       cx="5"
       cy="41.5"
       r="5"
       fx="5"
       fy="41.5"
       id="radialGradient3355"
       xlink:href="#linearGradient3681-3"
       gradientUnits="userSpaceOnUse"
       gradientTransform="matrix(0.5938225,0,0,1.5366531,41.140892,-103.93618)" />
    <linearGradient
       x1="44.994774"
       y1="17.5"
       x2="3.0052247"
       y2="17.5"
       id="linearGradient3359"
       xlink:href="#linearGradient3275"
       gradientUnits="userSpaceOnUse"
       gradientTransform="matrix(0.78532395,0,0,1,4.5571878,8)"
       spreadMethod="reflect" />
    <linearGradient
       x1="20.78125"
       y1="24.59375"
       x2="20.8125"
       y2="23.53125"
       id="linearGradient4137"
       xlink:href="#linearGradient3243"
       gradientUnits="userSpaceOnUse"
       gradientTransform="matrix(1.0837529,0,0,1,-1.9343243,0)" />
    <linearGradient
       x1="14.176758"
       y1="2.1586757"
       x2="13.837088"
       y2="13.282174"
       id="linearGradient4293"
       xlink:href="#linearGradient3919"
       gradientUnits="userSpaceOnUse" />
    <linearGradient
       x1="23"
       y1="19"
       x2="23"
       y2="44"
       id="linearGradient3777"
       xlink:href="#linearGradient3919"
       gradientUnits="userSpaceOnUse" />
  </defs>
  <g
     transform="matrix(0.79844578,0,0,0.78091796,4.4170008,10.63437)"
     id="g3305"
     style="opacity:0.4;display:inline">
    <rect
       width="2.9601951"
       height="15.366531"
       x="-3.6903627"
       y="-47.848343"
       transform="scale(-1,-1)"
       id="rect2484"
       style="fill:url(#radialGradient3351);fill-opacity:1;stroke:none" />
    <rect
       width="40.41172"
       height="15.366531"
       x="3.6903627"
       y="32.481812"
       id="rect2486"
       style="fill:url(#linearGradient3353);fill-opacity:1;stroke:none" />
    <rect
       width="2.9601951"
       height="15.366531"
       x="44.110001"
       y="-47.848343"
       transform="scale(1,-1)"
       id="rect3444"
       style="fill:url(#radialGradient3355);fill-opacity:1;stroke:none;display:inline" />
  </g>
  <path
     d="m 11.069513,18.516743 24.462228,0 c 1.428029,0 2.070678,-0.206827 2.480871,0.721779 l 2.489314,5.774236 0,18.5309 c 0,1.121148 0.08536,0.949848 -1.342676,0.949848 l -31.3184999,0 c -1.4280347,0 -1.3426765,0.1713 -1.3426765,-0.949848 l 0,-18.5309 2.4893148,-5.774236 c 0.3987499,-0.909848 0.6540897,-0.721779 2.0821246,-0.721779 z"
     id="path2488"
     style="fill:url(#linearGradient3250);fill-opacity:1;fill-rule:nonzero;stroke:url(#linearGradient3252);stroke-width:0.99420077;stroke-linecap:round;stroke-linejoin:miter;stroke-miterlimit:4;stroke-opacity:1;stroke-dasharray:none;stroke-dashoffset:0;marker:none;visibility:visible;display:block;overflow:visible" />
  <path
     d="m 10,19.5 c -0.8853118,1.895257 -1.6807783,3.836796 -2.53125,5.75 0,6.09375 0,12.1875 0,18.28125 10.687494,0 21.375006,0 32.0625,0 0,-6.09375 0,-12.1875 0,-18.28125 -0.821523,-1.911124 -1.681797,-3.807848 -2.47911,-5.727968 -0.651414,-0.07631 -1.581796,-1.55e-4 -2.350266,-0.02203 -8.233949,-1.5e-5 -16.467968,2e-5 -24.701874,0 z"
     id="path3772"
     style="opacity:0.5;fill:none;stroke:url(#linearGradient3777);stroke-width:0.99420077;stroke-linecap:round;stroke-linejoin:miter;stroke-miterlimit:4;stroke-opacity:1;stroke-dasharray:none;stroke-dashoffset:0;marker:none;visibility:visible;display:block;overflow:visible" />
  <path
     d="m 11.891204,18.999999 c -0.431398,0 -0.569587,0.07041 -0.683415,0.15625 -0.113829,0.08584 -0.261523,0.267025 -0.390523,0.625 l -1.692266,5.21875 29.875,0 -1.724809,-5.03125 c -0.217295,-0.518685 -0.372796,-0.685871 -0.520698,-0.78125 -0.147901,-0.09538 -0.373685,-0.1875 -0.878676,-0.1875 l -23.984613,0 z"
     id="path3692"
     style="opacity:0.6;color:black;fill:url(#linearGradient3328);fill-opacity:1;fill-rule:nonzero;stroke:none;stroke-width:1.00000083;marker:none;visibility:visible;display:block;overflow:visible" />
  <path
     d="m 11.269231,18.999999 c -0.509846,0 -0.673165,0.07041 -0.807693,0.15625 -0.134528,0.08584 -0.309079,0.267025 -0.461538,0.625 l -2,5.21875 6,0 0,-6 -2.730769,0 z"
     id="path3694"
     style="opacity:0.6;color:black;fill:url(#linearGradient3325);fill-opacity:1;fill-rule:nonzero;stroke:none;stroke-width:1.00000083;marker:none;visibility:visible;display:block;overflow:visible" />
  <g
     transform="translate(5,-1.0000006)"
     id="g3899"
     style="opacity:0.84000005">
    <path
       d="m 11.5,2.5 5,0 L 16.391747,23.437502 11.5,23.500002 11.5,2.5 z"
       id="path3901"
       style="color:black;fill:url(#linearGradient3917);fill-opacity:1;fill-rule:nonzero;stroke:#c4a000;stroke-width:1;stroke-linecap:round;stroke-linejoin:round;stroke-miterlimit:4;stroke-opacity:1;stroke-dashoffset:0;marker:none;visibility:visible;display:inline;overflow:visible;enable-background:accumulate" />
    <rect
       width="3"
       height="19.000002"
       x="12.5"
       y="3.5"
       id="rect3903"
       style="opacity:0.5;color:black;fill:none;stroke:url(#linearGradient3925);stroke-width:1;stroke-linecap:round;stroke-linejoin:miter;stroke-miterlimit:4;stroke-opacity:1;stroke-dasharray:none;stroke-dashoffset:0;marker:none;visibility:visible;display:inline;overflow:visible;enable-background:accumulate" />
    <g
       id="g3905">
      <rect
         width="2"
         height="1.0312499"
         x="14"
         y="6"
         id="rect3907"
         style="opacity:0.62068936;color:black;fill:#c4a000;fill-opacity:1;fill-rule:nonzero;stroke:none;stroke-width:1;marker:none;visibility:visible;display:inline;overflow:visible;enable-background:accumulate" />
      <rect
         width="2"
         height="1.0312499"
         x="14"
         y="9"
         id="rect3909"
         style="opacity:0.62068936;color:black;fill:#c4a000;fill-opacity:1;fill-rule:nonzero;stroke:none;stroke-width:1;marker:none;visibility:visible;display:inline;overflow:visible;enable-background:accumulate" />
      <rect
         width="2"
         height="1.0312499"
         x="14"
         y="12"
         id="rect3911"
         style="opacity:0.62068936;color:black;fill:#c4a000;fill-opacity:1;fill-rule:nonzero;stroke:none;stroke-width:1;marker:none;visibility:visible;display:inline;overflow:visible;enable-background:accumulate" />
      <rect
         width="2"
         height="1.0312499"
         x="14"
         y="15"
         id="rect3913"
         style="opacity:0.62068936;color:black;fill:#c4a000;fill-opacity:1;fill-rule:nonzero;stroke:none;stroke-width:1;marker:none;visibility:visible;display:inline;overflow:visible;enable-background:accumulate" />
      <rect
         width="2"
         height="1.0312499"
         x="14"
         y="18"
         id="rect3915"
         style="opacity:0.62068936;color:black;fill:#c4a000;fill-opacity:1;fill-rule:nonzero;stroke:none;stroke-width:1;marker:none;visibility:visible;display:inline;overflow:visible;enable-background:accumulate" />
    </g>
  </g>
  <path
     d="m 35.690517,18.999999 c 0.516124,0 0.681453,0.07041 0.817637,0.15625 0.136185,0.08584 0.312885,0.267025 0.467221,0.625 L 39,24.999999 l -6.073874,0 0,-6 2.764391,0 z"
     id="path3696"
     style="opacity:0.67049806;color:black;fill:url(#linearGradient3313);fill-opacity:1;fill-rule:nonzero;stroke:none;stroke-width:1.00000083;marker:none;visibility:visible;display:block;overflow:visible" />
  <g
     transform="matrix(0.8660254,-0.4999999,0.4999999,0.8660254,-5.991941,13.452398)"
     id="g3877">
    <path
       d="m 11.5,2.5 5,0 L 16.391747,23.437502 11.586278,20.663063 11.5,2.5 z"
       id="rect3846"
       style="color:black;fill:url(#linearGradient3893);fill-opacity:1;fill-rule:nonzero;stroke:#b89600;stroke-width:1;stroke-linecap:round;stroke-linejoin:round;stroke-miterlimit:4;stroke-opacity:1;stroke-dashoffset:0;marker:none;visibility:visible;display:inline;overflow:visible;enable-background:accumulate" />
    <path
       d="m 12.5,3.5 3,0 0,19.000002 L 12.587921,21.035219 12.5,3.5 z"
       id="rect3858"
       style="opacity:0.5;color:black;fill:none;stroke:url(#linearGradient4293);stroke-width:1;stroke-linecap:round;stroke-linejoin:miter;stroke-miterlimit:4;stroke-opacity:1;stroke-dashoffset:0;marker:none;visibility:visible;display:inline;overflow:visible;enable-background:accumulate" />
    <g
       id="g3870">
      <rect
         width="2"
         height="1.0312499"
         x="14"
         y="6"
         id="rect3860"
         style="opacity:0.62068936;color:black;fill:#c4a000;fill-opacity:1;fill-rule:nonzero;stroke:none;stroke-width:1;marker:none;visibility:visible;display:inline;overflow:visible;enable-background:accumulate" />
      <rect
         width="2"
         height="1.0312499"
         x="14"
         y="9"
         id="rect3862"
         style="opacity:0.62068936;color:black;fill:#c4a000;fill-opacity:1;fill-rule:nonzero;stroke:none;stroke-width:1;marker:none;visibility:visible;display:inline;overflow:visible;enable-background:accumulate" />
      <rect
         width="2"
         height="1.0312499"
         x="14"
         y="12"
         id="rect3864"
         style="opacity:0.62068936;color:black;fill:#c4a000;fill-opacity:1;fill-rule:nonzero;stroke:none;stroke-width:1;marker:none;visibility:visible;display:inline;overflow:visible;enable-background:accumulate" />
      <rect
         width="2"
         height="1.0312499"
         x="14"
         y="15"
         id="rect3866"
         style="opacity:0.62068936;color:black;fill:#c4a000;fill-opacity:1;fill-rule:nonzero;stroke:none;stroke-width:1;marker:none;visibility:visible;display:inline;overflow:visible;enable-background:accumulate" />
      <rect
         width="2"
         height="1.0312499"
         x="14"
         y="18"
         id="rect3868"
         style="opacity:0.62068936;color:black;fill:#c4a000;fill-opacity:1;fill-rule:nonzero;stroke:none;stroke-width:1;marker:none;visibility:visible;display:inline;overflow:visible;enable-background:accumulate" />
    </g>
  </g>
  <path
     d="m 20.96875,21.499999 c -2.19075,0 -3.96875,1.344 -3.96875,3 0,0.351327 0.102984,0.686614 0.25,1 l 7.4375,0 c 0.147016,-0.313386 0.25,-0.648673 0.25,-1 0,-1.656 -1.778001,-3 -3.96875,-3 z"
     id="path3698"
     style="color:black;fill:url(#radialGradient3300);fill-opacity:1;fill-rule:nonzero;stroke:#2e3436;stroke-width:1;stroke-linecap:round;stroke-linejoin:round;stroke-miterlimit:4;stroke-opacity:1;stroke-dasharray:none;stroke-dashoffset:0;marker:none;visibility:visible;display:inline;overflow:visible;enable-background:accumulate" />
  <g
     transform="matrix(0.9659258,0.258819,-0.258819,0.9659258,9.180442,-12.349363)"
     id="g3927">
    <g
       transform="translate(-2,20)"
       id="g3700">
      <path
         d="m 32.5,6.5 c -2.207764,0 -4,0.672 -4,1.5 L 28.47473,26.250876 36.5,25.5 c -2.14e-4,-6.54711 0,-14.060322 0,-17.5 0,-0.828 -1.792236,-1.5 -4,-1.5 z"
         transform="translate(0,-20)"
         id="path3702"
         style="color:black;fill:url(#linearGradient3934);fill-opacity:1;fill-rule:nonzero;stroke:#888a85;stroke-width:1;stroke-linecap:round;stroke-linejoin:miter;stroke-miterlimit:4;stroke-opacity:1;stroke-dasharray:none;stroke-dashoffset:0;marker:none;visibility:visible;display:inline;overflow:visible;enable-background:accumulate" />
      <path
         d="m 36.504387,8.2694378 a 3.999573,1.8561554 0 1 1 -7.999146,0 3.999573,1.8561554 0 1 1 7.999146,0 z"
         transform="matrix(1,0,0,0.808122,0,-18.682714)"
         id="path3704"
         style="color:black;fill:white;fill-opacity:1;fill-rule:nonzero;stroke:url(#radialGradient3936);stroke-width:1.11240149;stroke-linecap:round;stroke-linejoin:miter;stroke-miterlimit:4;stroke-opacity:1;stroke-dasharray:none;stroke-dashoffset:0;marker:none;visibility:visible;display:inline;overflow:visible;enable-background:accumulate" />
      <path
         d="m 36.504387,-4.999999 c 0,0.828 -1.791809,1.499999 -3.999573,1.499999 -2.207764,0 -3.999573,-0.671999 -3.999573,-1.499999"
         id="path3706"
         style="opacity:0.52873565;color:black;fill:none;stroke:#888a85;stroke-width:1;stroke-linecap:round;stroke-linejoin:miter;stroke-miterlimit:4;stroke-opacity:1;stroke-dashoffset:0;marker:none;visibility:visible;display:inline;overflow:visible;enable-background:accumulate" />
    </g>
    <path
       d="M 30.5,7.5 C 29.496989,7.5 28.599735,7.661827 28.03125,7.875 27.765957,7.974481 27.579146,8.061242 27.5,8.125 l 0,17.375 6,0 c -4.58e-4,-6.397466 -5.1e-5,-13.894689 0,-17.375 C 33.420854,8.061242 33.234043,7.974481 32.96875,7.875 32.400265,7.661827 31.503011,7.5 30.5,7.5 z"
       id="path3708"
       style="opacity:0.5;color:black;fill:none;stroke:url(#linearGradient3944);stroke-width:1;stroke-linecap:round;stroke-linejoin:miter;stroke-miterlimit:4;stroke-opacity:1;stroke-dasharray:none;stroke-dashoffset:0;marker:none;visibility:visible;display:inline;overflow:visible;enable-background:accumulate" />
  </g>
  <path
     d="m 11.5,14.671874 -1,5.828125 0,5 4,0 0,-10.828125 -0.75,-0.171875 -0.75,0 -0.75,0 -0.75,0.171875 z"
     id="path3718"
     style="color:black;fill:#75507b;fill-opacity:1;fill-rule:nonzero;stroke:url(#linearGradient3291);stroke-width:1;stroke-linecap:round;stroke-linejoin:round;stroke-miterlimit:4;stroke-opacity:1;stroke-dasharray:none;stroke-dashoffset:0;marker:none;visibility:visible;display:inline;overflow:visible;enable-background:accumulate" />
  <path
     d="m 12.25,14.999999 -0.3125,0.0625 -0.9375,5.4375 0.01563,-0.15625 0,5.4375 2,-0.0078 L 13,20.498672 l 1,-5.436173 -0.25,-0.0625 -0.75,0 -0.75,0 z"
     id="path3720"
     style="color:black;fill:url(#linearGradient3288);fill-opacity:1;fill-rule:nonzero;stroke:none;stroke-width:1;marker:none;visibility:visible;display:inline;overflow:visible;enable-background:accumulate" />
  <g
     id="g2417">
    <path
       d="m 14.5,14.671875 -1,5.828125 0,5 4,0 0,-10.828125 L 16.75,14.5 l -0.75,0 -0.75,0 -0.75,0.171875 z"
       id="path2387"
       style="color:black;fill:#5c3566;fill-opacity:1;fill-rule:nonzero;stroke:url(#linearGradient2400);stroke-width:1;stroke-linecap:round;stroke-linejoin:round;stroke-miterlimit:4;stroke-opacity:1;stroke-dasharray:none;stroke-dashoffset:0;marker:none;visibility:visible;display:inline;overflow:visible;enable-background:accumulate" />
    <path
       d="M 15.25,15 14.9375,15.0625 14,20.5 l 0.01563,-0.15625 0,5.4375 2,-0.0078 L 16,20.498673 17,15.0625 16.75,15 16,15 15.25,15 z"
       id="path2391"
       style="color:black;fill:url(#linearGradient2403);fill-opacity:1;fill-rule:nonzero;stroke:none;stroke-width:1;marker:none;visibility:visible;display:inline;overflow:visible;enable-background:accumulate" />
    <path
       d="M 15.25,15 14.9375,15.0625 14,20.5 16,20.498673 17,15.0625 16.75,15 16,15 15.25,15 z"
       id="path2393"
       style="color:black;fill:url(#linearGradient2405);fill-opacity:1;fill-rule:nonzero;stroke:none;stroke-width:1;marker:none;visibility:visible;display:inline;overflow:visible;enable-background:accumulate" />
    <path
       d="m 15.6875,17.5 -0.375,3 0.09375,5.28125 0.0625,-5.28125 0.21875,-3 z"
       id="path2395"
       style="opacity:0.31800764;fill:black;fill-opacity:1;fill-rule:evenodd;stroke:none" />
    <path
       d="m 15.3125,15.03125 -1,5.46875 0.09375,5.28125 0.0625,-5.28125 0.84375,-5.46875 z"
       id="path2397"
       style="opacity:0.26819925;fill:black;fill-opacity:1;fill-rule:evenodd;stroke:none" />
    <path
       d="M 15.15625,18.4375 14.875,20.5 14.984375,24.609375 15.03125,20.5 l 0.125,-2.0625 z"
       id="path2399"
       style="opacity:0.51340996;fill:black;fill-opacity:1;fill-rule:evenodd;stroke:none" />
  </g>
  <path
     d="m 12.25,14.999999 -0.3125,0.0625 -0.9375,5.4375 2,-0.0013 1,-5.436173 -0.25,-0.0625 -0.75,0 -0.75,0 z"
     id="path3722"
     style="color:black;fill:url(#linearGradient3278);fill-opacity:1;fill-rule:nonzero;stroke:none;stroke-width:1;marker:none;visibility:visible;display:inline;overflow:visible;enable-background:accumulate" />
  <path
     d="m 12.6875,17.499999 -0.375,3 0.09375,5.28125 0.0625,-5.28125 0.21875,-3 z"
     id="path3951"
     style="opacity:0.31800764;fill:black;fill-opacity:1;fill-rule:evenodd;stroke:none" />
  <path
     d="m 12.3125,15.031249 -1,5.46875 0.09375,5.28125 0.0625,-5.28125 0.84375,-5.46875 z"
     id="path3948"
     style="opacity:0.26819925;fill:black;fill-opacity:1;fill-rule:evenodd;stroke:none" />
  <g
     transform="matrix(0.9659258,-0.258819,0.258819,0.9659258,-0.3160868,5.8029682)"
     id="g2371">
    <path
       d="m 19.75,15 -0.71875,0.1875 -0.75,0.21875 -0.65625,0.34375 0.53125,5.90625 0.953125,3.4375 4.125,0 L 20.6875,15.6875 C 20.446816,14.967169 20.013567,14.985925 19.75,15 z"
       transform="matrix(0.9659259,0.258819,-0.258819,0.9659259,1.5651722,-5.1030033)"
       id="path3724"
       style="color:black;fill:#75507b;fill-opacity:1;fill-rule:nonzero;stroke:url(#linearGradient2390);stroke-width:0.99999994;stroke-linecap:round;stroke-linejoin:round;stroke-miterlimit:4;stroke-opacity:1;stroke-dasharray:none;stroke-dashoffset:0;marker:none;visibility:visible;display:inline;overflow:visible;enable-background:accumulate" />
    <path
       d="m 20.125,15.46875 -0.25,0.03125 -0.71875,0.1875 -0.75,0.1875 -0.28125,0.15625 0.5,5.3125 1.09375,4.15625 2.0625,0 -1.0625,-4.53125 -0.59375,-5.5 z"
       transform="matrix(0.9659259,0.258819,-0.258819,0.9659259,1.5651722,-5.1030033)"
       id="path3726"
       style="color:black;fill:url(#linearGradient2379);fill-opacity:1;fill-rule:nonzero;stroke:none;stroke-width:1;marker:none;visibility:visible;display:inline;overflow:visible;enable-background:accumulate" />
    <path
       d="M 15.25,15 14.9375,15.0625 14,20.5 16.163058,20.493836 17,15.0625 16.75,15 16,15 15.25,15 z"
       id="path3732"
       style="color:black;fill:url(#linearGradient2381);fill-opacity:1;fill-rule:nonzero;stroke:none;stroke-width:1;marker:none;visibility:visible;display:inline;overflow:visible;enable-background:accumulate" />
    <path
       d="M 15.8125,17.78125 15.46875,20.5 15.549362,24.985096 15.625,20.5 15.8125,17.78125 z"
       id="path3955"
       style="opacity:0.31800764;fill:black;fill-opacity:1;fill-rule:evenodd;stroke:none" />
    <path
       d="M 14.573995,19.358831 14.3125,20.5 14.428658,22.196139 14.46875,20.5 14.573995,19.358831 z"
       id="path3957"
       style="opacity:0.49425288;fill:black;fill-opacity:1;fill-rule:evenodd;stroke:none" />
    <path
       d="M 15.802067,15.219871 14.875,20.5 14.984375,24.609375 15.03125,20.5 15.802067,15.219871 z"
       id="path3959"
       style="opacity:0.31800764;fill:black;fill-opacity:1;fill-rule:evenodd;stroke:none" />
  </g>
  <path
     d="m 12.15625,18.437499 -0.28125,2.0625 0.109375,4.109375 0.04687,-4.109375 0.125,-2.0625 z"
     id="path3953"
     style="opacity:0.51340996;fill:black;fill-opacity:1;fill-rule:evenodd;stroke:none" />
  <g
     id="g2433">
    <path
       d="M 26.1875,19.5 C 25.248424,19.5 24.5,20.248425 24.5,21.1875 l 0,4.3125 12,0 0,-4.3125 C 36.5,20.248424 35.751576,19.5 34.8125,19.5 l -8.625,0 z"
       id="path3710"
       style="color:black;fill:#aacd37;fill-opacity:1;fill-rule:nonzero;stroke:#699536;stroke-width:1;stroke-linecap:round;stroke-linejoin:miter;stroke-miterlimit:4;stroke-opacity:1;stroke-dasharray:none;stroke-dashoffset:0;marker:none;visibility:visible;display:inline;overflow:visible;enable-background:accumulate" />
    <rect
       width="11"
       height="4"
       x="25"
       y="22"
       id="rect3712"
       style="opacity:0.62452105;color:black;fill:#c17d11;fill-opacity:1;fill-rule:nonzero;stroke:none;stroke-width:1;marker:none;visibility:visible;display:inline;overflow:visible;enable-background:accumulate" />
    <path
       d="M 26.1875,20.5 C 25.786622,20.5 25.5,20.786623 25.5,21.1875 l 0,4.3125 10,0 0,-4.3125 C 35.5,20.786621 35.213379,20.5 34.8125,20.5 l -8.625,0 z"
       id="path3714"
       style="opacity:0.29501917;color:black;fill:none;stroke:url(#linearGradient3746);stroke-width:1;stroke-linecap:round;stroke-linejoin:miter;stroke-miterlimit:4;stroke-opacity:1;stroke-dashoffset:0;marker:none;visibility:visible;display:inline;overflow:visible;enable-background:accumulate" />
    <rect
       width="11"
       height="1"
       rx="0"
       ry="0"
       x="25"
       y="22"
       id="rect3716"
       style="color:black;fill:url(#radialGradient2439);fill-opacity:1;fill-rule:nonzero;stroke:none;stroke-width:1;marker:none;visibility:visible;display:inline;overflow:visible;enable-background:accumulate" />
  </g>
  <path
     d="m 10.833639,19.5 c -0.193773,0 -0.302308,0.02161 -0.338673,0.03125 -0.03637,0.0096 -0.0019,0.008 -0.03388,0.03125 -0.0063,0.0045 -0.126141,0.07921 -0.237071,0.375 L 8.7000004,24.5 38.3,24.5 l -1.557894,-4.34375 0,-0.03125 C 36.553599,19.703318 36.457583,19.627305 36.403433,19.59375 36.327346,19.546601 36.250727,19.5 35.793822,19.5 l -24.960183,0 z"
     id="path3730"
     style="opacity:0.15;color:black;fill:none;stroke:url(#linearGradient4137);stroke-width:1.00000083;stroke-linecap:butt;stroke-linejoin:miter;stroke-miterlimit:4;stroke-opacity:1;stroke-dashoffset:0;marker:none;visibility:visible;display:block;overflow:visible" />
  <rect
     width="33"
     height="1.2"
     x="7"
     y="25.000004"
     id="rect4133"
     style="fill:#dac197;fill-opacity:1;stroke:none" />
  <path
     d="M 7.3099247,25.5 39.5,25.5"
     id="path3357"
     style="opacity:0.4;fill:none;stroke:url(#linearGradient3359);stroke-width:0.99999994px;stroke-linecap:square;stroke-linejoin:miter;stroke-opacity:1;display:inline" />
</svg>
