<?xml version="1.0" encoding="UTF-8" standalone="no"?>
<!-- Created with Inkscape (http://www.inkscape.org/) -->

<svg
   xmlns:svg="http://www.w3.org/2000/svg"
   xmlns="http://www.w3.org/2000/svg"
   xmlns:xlink="http://www.w3.org/1999/xlink"
   version="1.0"
   width="32"
   height="32"
   id="svg11300">
  <defs
     id="defs3">
    <linearGradient
       id="linearGradient6402">
      <stop
         id="stop6404"
         style="stop-color:#cd8033;stop-opacity:1"
         offset="0" />
      <stop
         id="stop6406"
         style="stop-color:#bb5e12;stop-opacity:1"
         offset="1" />
    </linearGradient>
    <linearGradient
       id="linearGradient2229">
      <stop
         id="stop2231"
         style="stop-color:#e2e2e2;stop-opacity:1"
         offset="0" />
      <stop
         id="stop2233"
         style="stop-color:#d8d8d8;stop-opacity:1"
         offset="1" />
    </linearGradient>
    <linearGradient
       x1="292.97168"
       y1="4.7592773"
       x2="296.93979"
       y2="10.711433"
       id="XMLID_897_"
       gradientUnits="userSpaceOnUse">
      <stop
         id="stop45093"
         style="stop-color:#e8e8e5;stop-opacity:1"
         offset="0" />
      <stop
         id="stop45095"
         style="stop-color:#f0f0f0;stop-opacity:1"
         offset="1" />
    </linearGradient>
    <linearGradient
       x1="68.175293"
       y1="21.424805"
       x2="74.587158"
       y2="27.836672"
       id="XMLID_45_"
       gradientUnits="userSpaceOnUse">
      <stop
         id="stop695"
         style="stop-color:#babdb6;stop-opacity:1"
         offset="0" />
      <stop
         id="stop697"
         style="stop-color:#eeeeec;stop-opacity:1"
         offset="1" />
    </linearGradient>
    <linearGradient
       id="linearGradient3099">
      <stop
         id="stop3101"
         style="stop-color:white;stop-opacity:1"
         offset="0" />
      <stop
         id="stop3103"
         style="stop-color:white;stop-opacity:0"
         offset="1" />
    </linearGradient>
    <linearGradient
       id="linearGradient4103">
      <stop
         id="stop4105"
         style="stop-color:#edd563;stop-opacity:1"
         offset="0" />
      <stop
         id="stop4107"
         style="stop-color:#e08223;stop-opacity:1"
         offset="1" />
    </linearGradient>
    <linearGradient
       id="linearGradient5048">
      <stop
         id="stop5050"
         style="stop-color:black;stop-opacity:0"
         offset="0" />
      <stop
         id="stop5056"
         style="stop-color:black;stop-opacity:1"
         offset="0.5" />
      <stop
         id="stop5052"
         style="stop-color:black;stop-opacity:0"
         offset="1" />
    </linearGradient>
    <linearGradient
       id="linearGradient5060">
      <stop
         id="stop5062"
         style="stop-color:black;stop-opacity:1"
         offset="0" />
      <stop
         id="stop5064"
         style="stop-color:black;stop-opacity:0"
         offset="1" />
    </linearGradient>
    <linearGradient
       x1="21.054403"
       y1="21.144136"
       x2="24.947838"
       y2="27.087946"
       id="linearGradient6531"
       xlink:href="#linearGradient2229"
       gradientUnits="userSpaceOnUse"
       gradientTransform="matrix(0.3398689,-0.1602233,0.1950777,0.4229372,64.271803,28.944045)" />
    <linearGradient
       x1="292.97168"
       y1="4.7592773"
       x2="296.93979"
       y2="10.711433"
       id="linearGradient6534"
       xlink:href="#XMLID_897_"
       gradientUnits="userSpaceOnUse"
       gradientTransform="matrix(1.4086596,-0.6737391,0.8251322,1.814947,-347.04116,218.72574)" />
    <linearGradient
       x1="20.288025"
       y1="6.4603648"
       x2="24.32597"
       y2="23.942537"
       id="linearGradient6538"
       xlink:href="#linearGradient2229"
       gradientUnits="userSpaceOnUse"
       gradientTransform="matrix(0.2960125,-0.1662147,0.169905,0.438753,66.043918,28.854649)" />
    <linearGradient
       x1="294.8241"
       y1="7.4534159"
       x2="296.44699"
       y2="9.9224663"
       id="linearGradient6541"
       xlink:href="#XMLID_897_"
       gradientUnits="userSpaceOnUse"
       gradientTransform="matrix(-1.6035273,0.6833758,0.9223625,1.8077556,542.88372,-182.7621)" />
    <linearGradient
       x1="22.225399"
       y1="23.843431"
       x2="24.190449"
       y2="22.860907"
       id="linearGradient6543"
       xlink:href="#XMLID_45_"
       gradientUnits="userSpaceOnUse" />
    <linearGradient
       x1="65.5"
       y1="25.125"
       x2="65.5"
       y2="50.875"
       id="linearGradient5574"
       xlink:href="#linearGradient6402"
       gradientUnits="userSpaceOnUse"
       gradientTransform="translate(-58,-21)" />
    <linearGradient
       x1="69"
       y1="25.0625"
       x2="69"
       y2="50.9375"
       id="linearGradient5578"
       xlink:href="#linearGradient6402"
       gradientUnits="userSpaceOnUse"
       gradientTransform="translate(-58,-21)" />
    <radialGradient
       cx="61.625004"
       cy="26.625"
       r="11.999948"
       fx="61.625004"
       fy="26.625"
       id="radialGradient5582"
       xlink:href="#linearGradient3099"
       gradientUnits="userSpaceOnUse"
       gradientTransform="matrix(0.4635392,0.00520836,-0.01123535,0.9999369,-24.641464,-21.319284)" />
    <linearGradient
       x1="24.971182"
       y1="11.760083"
       x2="25.236343"
       y2="60.77248"
       id="linearGradient5585"
       xlink:href="#linearGradient4103"
       gradientUnits="userSpaceOnUse"
       gradientTransform="matrix(0.6756785,0,0,0.6756784,-3.243319,-3.946035)" />
    <linearGradient
       x1="68.5"
       y1="25"
       x2="68.3125"
       y2="51.014076"
       id="linearGradient5587"
       xlink:href="#linearGradient6402"
       gradientUnits="userSpaceOnUse"
       gradientTransform="translate(-58,-21)" />
    <linearGradient
       x1="302.85715"
       y1="366.64789"
       x2="302.85715"
       y2="609.50507"
       id="linearGradient5593"
       xlink:href="#linearGradient5048"
       gradientUnits="userSpaceOnUse"
       gradientTransform="matrix(0.0655873,0,0,0.03698535,3.3658062,83.446904)" />
    <radialGradient
       cx="605.71429"
       cy="486.64789"
       r="117.14286"
       fx="605.71429"
       fy="486.64789"
       id="radialGradient5595"
       xlink:href="#linearGradient5060"
       gradientUnits="userSpaceOnUse"
       gradientTransform="matrix(0.0655873,0,0,0.03698535,3.3787138,83.446904)" />
    <radialGradient
       cx="605.71429"
       cy="486.64789"
       r="117.14286"
       fx="605.71429"
       fy="486.64789"
       id="radialGradient5597"
       xlink:href="#linearGradient5060"
       gradientUnits="userSpaceOnUse"
       gradientTransform="matrix(-0.0655873,0,0,0.03698535,50.763154,83.446904)" />
  </defs>
  <g
     id="g5599">
    <g
       transform="matrix(0.625,0,0,0.5566594,-1.9193311,-27.000138)"
       id="g5580">
      <rect
         width="31.669294"
         height="8.9821568"
         x="11.236281"
         y="97.007507"
         id="rect5582"
         style="opacity:0.40206185;fill:url(#linearGradient5593);fill-opacity:1;fill-rule:nonzero;stroke:none;stroke-width:44.18577957;marker:none;visibility:visible;display:inline;overflow:visible" />
      <path
         d="m 42.905577,97.007814 c 0,0 0,8.981666 0,8.981666 3.377583,0.0169 8.165353,-2.01234 8.165351,-4.49141 0,-2.479077 -3.769128,-4.490255 -8.165351,-4.490256 z"
         id="path5584"
         style="opacity:0.40206185;fill:url(#radialGradient5595);fill-opacity:1;fill-rule:nonzero;stroke:none;stroke-width:44.18577957;marker:none;visibility:visible;display:inline;overflow:visible" />
      <path
         d="m 11.236282,97.007814 c 0,0 0,8.981666 0,8.981666 -3.3775839,0.0169 -8.1653526,-2.01234 -8.1653526,-4.49141 0,-2.479077 3.7691285,-4.490255 8.1653526,-4.490256 z"
         id="path5586"
         style="opacity:0.40206185;fill:url(#radialGradient5597);fill-opacity:1;fill-rule:nonzero;stroke:none;stroke-width:44.18577957;marker:none;visibility:visible;display:inline;overflow:visible" />
    </g>
    <path
       d="m 2.499947,4.499947 0,25.000105 25.000105,0 0,-6.000052 -18.918998,0 0,-19.000053 -6.081107,0 z"
       id="path5588"
       style="fill:url(#linearGradient5585);fill-opacity:1;fill-rule:evenodd;stroke:url(#linearGradient5587);stroke-width:0.99989545;stroke-linecap:square;stroke-linejoin:round;stroke-miterlimit:4;stroke-opacity:1;stroke-dasharray:none;stroke-dashoffset:0" />
    <path
       d="m 3.5,5.5 0,19 0,4 4,0 19,0 0,-4 -19,0 0,-19 -4,0 z"
       id="path5590"
       style="opacity:0.6;fill:none;stroke:url(#radialGradient5582);stroke-width:0.99989545;stroke-linecap:square;stroke-linejoin:miter;stroke-miterlimit:4;stroke-opacity:1;stroke-dasharray:none;stroke-dashoffset:0" />
    <path
       d="m 8.5,26 1,0 0,-2 -1,0 0,2 z m 2,-1 1,0 0,-1 -1,0 0,1 z m 2,0 1,0 0,-1 -1,0 0,1 z m 2,1 1,0 0,-2 -1,0 0,2 z m 2,-1 1,0 0,-1 -1,0 0,1 z m 2,0 1,0 0,-1 -1,0 0,1 z m 2,1 1,0 0,-2 -1,0 0,2 z"
       id="path6512"
       style="fill:#eabe5c;fill-opacity:1;fill-rule:evenodd;stroke:none;display:inline;enable-background:new" />
    <path
       d="m 9,26 1,0 0,-3 -1,0 0,3 z m 2,-1 1,0 0,-2 -1,0 0,2 z m 2,0 1,0 0,-2 -1,0 0,2 z m 2,1 1,0 0,-3 -1,0 0,3 z m 2,-1 1,0 0,-2 -1,0 0,2 z m 2,0 1,0 0,-2 -1,0 0,2 z m 2,1 1,0 0,-3 -1,0 0,3 z"
       id="path6508"
       style="fill:url(#linearGradient5578);fill-opacity:1;fill-rule:evenodd;stroke:none;display:inline;enable-background:new" />
    <path
       d="m 6,10.5 0,1 2,0 0,-1 -2,0 z m 1,2 0,1 1,0 0,-1 -1,0 z m 0,2 0,1 1,0 0,-1 -1,0 z m -1,2 0,1 2,0 0,-1 -2,0 z m 1,2 0,1 1,0 0,-1 -1,0 z m 0,2 0,1 1,0 0,-1 -1,0 z m -1,2 0,1 2,0 0,-1 -2,0 z"
       id="path6510"
       style="fill:#eabe5c;fill-opacity:1;fill-rule:evenodd;stroke:none;display:inline;enable-background:new" />
    <path
       d="m 6,10 0,1 3,0 0,-1 -3,0 z m 1,2 0,1 2,0 0,-1 -2,0 z m 0,2 0,1 2,0 0,-1 -2,0 z m -1,2 0,1 3,0 0,-1 -3,0 z m 1,2 0,1 2,0 0,-1 -2,0 z m 0,2 0,1 2,0 0,-1 -2,0 z m -1,2 0,1 3,0 0,-1 -3,0 z"
       id="rect6493"
       style="fill:url(#linearGradient5574);fill-opacity:1;fill-rule:evenodd;stroke:none" />
    <g
       transform="translate(-58,-21)"
       id="g6545">
      <path
         d="m 75.734123,23.521734 c 0.09762,-0.0051 2.702444,1.314952 2.744159,2.461227 -0.06356,3.421721 -0.09763,6.875907 -0.138874,10.314871 -0.256951,0.187661 -0.531349,0.347173 -0.820194,0.479729 -0.607304,0.28021 -1.292282,0.447254 -1.997497,0.460715 0.05541,-4.573231 0.107431,-9.155062 0.212406,-13.716542 z"
         id="path5602"
         style="fill:url(#linearGradient6541);stroke:#888a85;stroke-width:1.04343462;stroke-linecap:round;stroke-linejoin:round;stroke-miterlimit:4;stroke-opacity:1;stroke-dasharray:none" />
      <path
         d="m 76.593596,36.013869 c 0.02508,0.121119 0.579326,0.722296 0.857449,0.409308 0.05637,-3.352619 -0.0051,-6.758512 0.04832,-10.110662 0.03557,-0.226845 -0.543512,-0.743541 -0.836839,-0.995601 0,0 -0.0091,7.07135 -0.06893,10.696955 z"
         id="path5604"
         style="fill:url(#linearGradient6538);fill-opacity:1;stroke:none" />
      <polygon
         points="295.74658,11.960449 297.04443,12.300293 297.04443,12.300293 296.39941,13.384766 295.13281,14.71875 294.73242,13.672852 "
         transform="matrix(1.3838457,-0.5995106,0.7577226,1.5096437,-342.70934,195.72431)"
         id="polygon5606"
         style="fill:#464646;fill-opacity:1;stroke:#333;stroke-width:0.64594996;stroke-linecap:round;stroke-linejoin:round;stroke-miterlimit:4;stroke-opacity:1;stroke-dasharray:none" />
      <path
         d="m 68.687216,27.116744 c -0.05866,0.06466 -0.5411,2.735267 0.287241,3.50777 2.57833,2.174959 5.16421,4.391528 7.742818,6.593219 0.283802,-0.05727 0.556488,-0.144952 0.817258,-0.260174 0.549402,-0.241295 1.058348,-0.610084 1.464537,-1.092576 -3.429415,-2.927485 -6.863323,-5.862905 -10.311854,-8.748239 z"
         id="path5608"
         style="fill:url(#linearGradient6534);stroke:#888a85;stroke-width:0.98886794;stroke-linecap:round;stroke-linejoin:round;stroke-miterlimit:4;stroke-opacity:1;stroke-dasharray:none" />
      <path
         d="m 69.766163,30.003835 c 2.507761,2.110115 4.985924,4.291911 7.49145,6.399485 0.457673,-0.08276 0.95222,-0.07319 0.716772,-0.321906 -2.60542,-2.15492 -5.751483,-4.831584 -8.346342,-6.999764 -0.03456,-0.06177 -0.0059,0.372054 0.13812,0.922185 z"
         id="path5610"
         style="fill:url(#linearGradient6531);fill-opacity:1;stroke:none" />
      <path
         d="m 24.190449,23.843431 c 3.71e-4,0.542896 -0.439629,0.983198 -0.982525,0.983198 -0.542896,0 -0.982896,-0.440302 -0.982525,-0.983198 -3.71e-4,-0.542896 0.439629,-0.983198 0.982525,-0.983198 0.542896,0 0.982896,0.440302 0.982525,0.983198 z"
         transform="matrix(0.3405355,-0.1628725,0.1994708,0.438753,64.002066,28.582513)"
         id="path5612"
         style="fill:url(#linearGradient6543);fill-opacity:1;fill-rule:nonzero;stroke:none;stroke-width:2.31858397;marker:none;visibility:visible;display:inline;overflow:visible" />
      <path
         d="m 75.815751,39.504671 c 1.654585,0.204375 2.854763,2.156865 2.67899,4.361955 -0.175197,2.20611 -1.657604,3.829424 -3.311053,3.628373 -1.65517,-0.204144 -2.854192,-2.15583 -2.678415,-4.360915 0.175178,-2.204853 1.658166,-3.828397 3.310478,-3.629413 z m -0.110085,1.404962 c -0.73404,-0.08949 -1.643287,0.91685 -1.759986,2.399572 -0.118279,1.48334 0.615205,2.693369 1.348186,2.782132 0.734528,0.09157 1.643808,-0.917054 1.760508,-2.399781 0.118807,-1.483546 -0.614693,-2.692427 -1.348708,-2.781923 z"
         id="path5614"
         style="fill:#464646;fill-opacity:1;stroke:#333;stroke-width:0.97633934;stroke-miterlimit:4;stroke-opacity:1;stroke-dasharray:none" />
      <polygon
         points="298.25391,11.960449 296.95605,12.300293 296.95605,12.300293 297.6001,13.384766 298.86719,14.71875 299.26807,13.672852 "
         transform="matrix(1.259576,-0.6024347,0.7229705,1.5902337,-305.50547,196.21996)"
         id="polygon5616"
         style="fill:#464646;fill-opacity:1;stroke:#333;stroke-width:0.6332444;stroke-linecap:round;stroke-linejoin:round;stroke-miterlimit:4;stroke-opacity:1;stroke-dasharray:none" />
      <path
         d="m 80.759006,36.415083 c -0.745428,1.316542 0.09961,3.539665 1.889099,4.964958 1.789955,1.426419 3.845241,1.516555 4.592605,0.203153 0.745927,-1.316793 -0.09913,-3.538536 -1.888611,-4.96382 -1.78898,-1.425546 -3.844757,-1.515432 -4.593093,-0.204291 z m 1.139127,0.909467 c 0.331606,-0.583234 1.600428,-0.520458 2.802878,0.43898 1.203788,0.958752 1.733112,2.329193 1.401523,2.911177 -0.330275,0.585051 -1.600869,0.520683 -2.80332,-0.438753 -1.204236,-0.958525 -1.732676,-2.328169 -1.401081,-2.911404 z"
         id="path5618"
         style="fill:#464646;fill-opacity:1;stroke:#333;stroke-width:0.97601515;stroke-miterlimit:4;stroke-opacity:1;stroke-dasharray:none" />
    </g>
  </g>
</svg>
