<svg xmlns="http://www.w3.org/2000/svg" xmlns:xlink="http://www.w3.org/1999/xlink" viewBox="0 0 32 32"><defs><linearGradient id="d"><stop offset="0" stop-color="#fff"/><stop offset="1" stop-color="#fff" stop-opacity="0"/></linearGradient><filter height="3.047" id="f" width="1.252" x="-.126" y="-1.024"><feGaussianBlur stdDeviation="1.173"/></filter><linearGradient gradientTransform="matrix(1 0 0 .3954 -.736 15.154)" gradientUnits="userSpaceOnUse" id="g" x1="43.692" x2="43.683" xlink:href="#a" y1="8.85" y2="18.042"/><linearGradient id="a"><stop offset="0" stop-color="#fff"/><stop offset=".137" stop-color="#d4d6d2"/><stop offset=".793" stop-color="#d4d6d2"/><stop offset="1" stop-color="#7e8478"/></linearGradient><linearGradient gradientTransform="matrix(1 0 0 .3954 -.736 22.104)" gradientUnits="userSpaceOnUse" id="h" x1="43.692" x2="43.683" xlink:href="#a" y1="8.85" y2="18.042"/><linearGradient gradientTransform="translate(2.076 -2.042)" gradientUnits="userSpaceOnUse" id="i" x1="20.047" x2="39.003" xlink:href="#b" y1="22.747" y2="49.794"/><linearGradient id="b"><stop offset="0" stop-color="#788600"/><stop offset="1" stop-color="#505900"/></linearGradient><linearGradient gradientTransform="matrix(1.98438 0 0 1 8.17 -2.056)" gradientUnits="userSpaceOnUse" id="j" x1="6.221" x2="6.238" xlink:href="#c" y1="42.891" y2="39.267"/><linearGradient id="c"><stop offset="0" stop-color="#ebff39"/><stop offset="1" stop-color="#ebff39" stop-opacity="0"/></linearGradient><linearGradient gradientTransform="matrix(.93474 0 0 1.14936 2.213 -6.045)" gradientUnits="userSpaceOnUse" id="k" x1="8.084" x2="9.004" xlink:href="#d" y1="13.354" y2="16.021"/><linearGradient gradientTransform="matrix(1.94602 0 0 .9391 .454 -14.246)" gradientUnits="userSpaceOnUse" id="l" x1="6.221" x2="6.238" xlink:href="#c" y1="42.891" y2="39.267"/><linearGradient gradientTransform="matrix(1.94602 0 0 .9391 3.454 -14.246)" gradientUnits="userSpaceOnUse" id="m" x1="6.221" x2="6.238" xlink:href="#c" y1="42.891" y2="39.267"/><linearGradient gradientTransform="matrix(1.94602 0 0 .9391 6.4 -14.202)" gradientUnits="userSpaceOnUse" id="n" x1="6.221" x2="6.238" xlink:href="#c" y1="42.891" y2="39.267"/><linearGradient id="e"><stop offset="0" stop-color="#90dbec"/><stop offset=".262" stop-color="#42baea"/><stop offset=".705" stop-color="#3689e6"/><stop offset="1" stop-color="#2b63a0"/></linearGradient><radialGradient xlink:href="#e" id="o" cx="-11" cy="10.7" fx="-11" fy="10.7" r="5.905" gradientTransform="matrix(4.40324 0 0 4.6236 64.78 -49.31)" gradientUnits="userSpaceOnUse"/></defs><g color="#000"><rect height="2.75" rx="1.989" ry="1.992" transform="matrix(.69115 0 0 .69017 -.337 1.078)" width="22.375" x="10.75" y="36.75" overflow="visible" opacity=".464" filter="url(#f)" enable-background="accumulate"/><path display="block" overflow="visible" fill="url(#g)" stroke="#555753" stroke-linecap="round" stroke-linejoin="round" d="M26.303 10.554h3.273v2.96h-3.273z"/><path display="block" overflow="visible" fill="url(#h)" stroke="#555753" stroke-linecap="round" stroke-linejoin="round" d="M26.35 15.44h3.272v3.047H26.35z"/><path d="M.435 5.605L.438 24.43c0 .057.062.108.13.108l7.02.01-.003 3.838c0 .052.016.09.087.09l13.804-.004c.065-.003.087-.046.087-.09l.003-3.85 4.63.006c.065 0 .08-.093.078-.153V5.605c.002-.06-.032-.088-.09-.09H.522c-.055.002-.092.036-.087.09z" display="block" overflow="visible" fill="url(#i)" stroke="#3a3e00" stroke-opacity=".677"/><path d="M16.942 12.79l.044.356 1.676 1.263v3.07l-12.134-.03.062 2.53" display="block" overflow="visible" fill="none" stroke="#98a332"/><path d="M10.38 26.242l.037-3.896 1.313-1.927h9.683l1.413-1.4.03-2.1-6.027-4.46 5.82.002-.16-2.91-6.21-.095" display="block" overflow="visible" fill="none" stroke="#98a332"/><path d="M18.797 42.96l.054-5.78 1.91-2.666m2.32 8.446l.057-5.78 1.9-2.666m2.336 8.446l.055-5.78 1.9-2.666" display="block" overflow="visible" transform="matrix(.69115 0 0 .69017 -.337 -3.408)" fill="none" stroke="#98a332" stroke-width="1.448"/><path d="M10.07 22.936c.786 0 .974.59.974.85v4.152H9.098v-4.15c0-.26.204-.852.973-.852z" display="block" overflow="visible" fill="url(#j)"/><path d="M4.868 9.958l-1.296.863v8.68l3.338-.05" display="block" overflow="visible" fill="none" stroke="#98a332"/><path d="M9.458 27.582l1.06 2.917h1.945l-1.06-2.97m2.055.044l1.06 2.917h1.945l-1.06-2.962m2.055.045l1.06 2.916h1.945l-1.06-2.963" display="block" overflow="visible" transform="matrix(.94734 0 0 .946 -3.496 -11.475)" fill="none" stroke="#98a332" stroke-width="1.056"/><rect height="4.948" rx=".942" ry=".942" width="11.288" x="4.445" y="8.529" display="block" overflow="visible" fill="#555753" stroke="#2e3436"/><rect height="2.942" rx="0" ry="0" width="8.889" x="5.54" y="9.533" display="block" overflow="visible" opacity=".17" fill="none" stroke="url(#k)"/><path d="M1.392 23.412h7.115l.007 3.882 12.06-.002-.002-3.884 5.008.002c.002 0 .002-16.81.002-16.81H1.394c.003 5.755-.002 16.812-.002 16.812z" display="block" overflow="visible" opacity=".239" fill="none" stroke="#fff"/><path d="M26.576 29.427V2.457h3.968" display="block" overflow="visible" fill="none" stroke="#555753" stroke-width="3" stroke-linecap="round" stroke-linejoin="round"/><path d="M26.654 29.383V2.413h3.8" display="block" overflow="visible" fill="none" stroke="#d4d6d2" stroke-linecap="round" stroke-linejoin="round"/><ellipse ry="1.025" rx="1.027" cy="9.705" cx="23.162" display="block" overflow="visible" fill="#3465a4" stroke="#204a87" stroke-linecap="round" stroke-linejoin="round"/><ellipse ry="1.025" rx="1.027" cy="13.146" cx="23.162" display="block" overflow="visible" fill="#3465a4" stroke="#204a87" stroke-linecap="round" stroke-linejoin="round"/><ellipse ry="1.025" rx="1.027" cy="16.616" cx="23.162" display="block" overflow="visible" fill="#3465a4" stroke="#204a87" stroke-linecap="round" stroke-linejoin="round"/><path d="M13.103 22.936c.785 0 .973.59.973.85v4.152H12.13v-4.15c0-.26.204-.852.973-.852z" display="block" overflow="visible" fill="url(#l)"/><path d="M16.103 22.936c.785 0 .973.59.973.85v4.152H15.13v-4.15c0-.26.204-.852.973-.852z" display="block" overflow="visible" fill="url(#m)"/><path d="M19.05 22.98c.784 0 .972.59.972.852v4.15h-1.946v-4.15c0-.26.205-.85.973-.85z" display="block" overflow="visible" fill="url(#n)"/></g><g color="#000"><path d="M16.45.813l.023.008c-.202-.02-.42-.01-.608.11a.833.833 0 0 0-.35.48c-.088.317-.038.557-.035.697l-.002-.013c-.005 4.046.01 7.9-.007 11.94-.1-.033-.17-.08-.39-.035-1.942-.008-3.96 1.345-4.24 3.434-.154.86.173 1.67.71 2.24.54.57 1.295.94 2.093.953 2.26.06 4.124-2.122 3.84-4.377l.005.064c.005-3.123-.01-6.06.008-9.175 1.37.863 2.517 2.213 2.598 3.826l.003.014c.074.997-.137 1.83-.44 2.835-.18.567.6 1.107.904.6.025-.036.03-.08.05-.117h.004v-.01c1.434-2.473 1.35-5.805-.5-8.057a.504.504 0 0 0-.026-.026c-1.3-1.358-2.466-2.934-2.7-4.75a.506.506 0 0 0-.01-.062c-.08-.3-.37-.472-.547-.52-.137-.035-.22-.032-.292-.034h-.003a.5.5 0 0 0-.03-.01H16.5L16.46.82z" style="line-height:normal;text-indent:0;text-align:start;text-decoration-line:none;text-decoration-style:solid;text-decoration-color:#000;text-transform:none;block-progression:tb;isolation:auto;mix-blend-mode:normal" font-weight="400" font-family="sans-serif" white-space="normal" overflow="visible" fill="url(#o)" stroke="#00537d" stroke-linecap="round" stroke-linejoin="round" enable-background="accumulate"/><path d="M16.22 1.206c-.344.048-.276.47-.27.777-.005 4.17.012 8.15-.01 12.317-.144.325-.55.01-.8.072-1.734-.054-3.602 1.196-3.847 3.032-.253 1.378 1.033 2.59 2.322 2.613 1.918.052 3.578-1.88 3.334-3.815 0-3.328-.02-6.468.01-9.795.13-.316.48-.017.65.096 1.52.92 2.85 2.446 2.94 4.328.08 1.09-.15 2.18-.46 3.21 1.393-2.3 1.32-5.5-.41-7.6-1.33-1.39-2.58-3.044-2.835-5.03-.05-.19-.307-.184-.46-.19a.62.62 0 0 0-.174-.004zm.73 3.295c.183.32.404.57.614.86a1.298 1.298 0 0 0-.615-.04V4.5zm1.177 1.15l.047.03a.212.212 0 0 1-.04-.02c-.003 0-.005-.002-.007-.004zm-3.017 9.73l.11.006c-.07.01-.03 0 .16.04.114.023.323.03.564-.01v.86l.007.06c.167 1.297-1.08 2.727-2.31 2.693l-.006-.003h-.005c-.34-.005-.758-.194-1.03-.484-.27-.29-.39-.606-.327-.95l.004-.022.004-.024c.166-1.235 1.593-2.2 2.825-2.163z" overflow="visible" opacity=".3" fill="#fff" enable-background="accumulate"/></g></svg>