<svg xmlns="http://www.w3.org/2000/svg" xmlns:xlink="http://www.w3.org/1999/xlink" viewBox="0 0 32 32"><defs><linearGradient id="g"><stop offset="0" stop-color="#f5f5f5"/><stop offset=".278" stop-color="#e7e7e7"/><stop offset=".524" stop-color="#8c8c8c"/><stop offset="1" stop-color="#ddd"/><stop offset="1" stop-color="#a8a8a8"/></linearGradient><linearGradient id="d"><stop offset="0"/><stop offset="1" stop-opacity="0"/></linearGradient><linearGradient id="c"><stop offset="0" stop-opacity="0"/><stop offset=".5"/><stop offset="1" stop-opacity="0"/></linearGradient><linearGradient x1="19.636" y1="23.297" x2="13.817" y2="9.748" id="q" xlink:href="#a" gradientUnits="userSpaceOnUse" gradientTransform="matrix(.68745 0 0 .66426 -.5 .525)"/><linearGradient x1="29.938" y1="41" x2="30" y2="50" id="o" xlink:href="#b" gradientUnits="userSpaceOnUse" gradientTransform="matrix(.68865 0 0 .50672 -3.97 4.455)"/><linearGradient x1="302.857" y1="366.648" x2="302.857" y2="609.505" id="l" xlink:href="#c" gradientUnits="userSpaceOnUse" gradientTransform="matrix(.07636 0 0 .02185 1.403 30.14)"/><radialGradient cx="605.714" cy="486.648" r="117.143" fx="605.714" fy="486.648" id="m" xlink:href="#d" gradientUnits="userSpaceOnUse" gradientTransform="matrix(.04485 0 0 .02185 20.39 30.14)"/><radialGradient cx="605.714" cy="486.648" r="117.143" fx="605.714" fy="486.648" id="n" xlink:href="#d" gradientUnits="userSpaceOnUse" gradientTransform="matrix(-.04485 0 0 .02185 37.61 30.14)"/><radialGradient cx="113.065" cy="97.588" r="2.563" fx="113.667" fy="98" id="e" gradientUnits="userSpaceOnUse"><stop offset="0" stop-color="#eee"/><stop offset=".16" stop-color="#cecece"/><stop offset=".468" stop-color="#888"/><stop offset="1" stop-color="#555"/></radialGradient><radialGradient cx="113.065" cy="97.588" r="2.563" fx="113.667" fy="98" id="r" xlink:href="#e" gradientUnits="userSpaceOnUse" gradientTransform="translate(-223.976 -53.226) scale(2.49565)"/><radialGradient cx="113.065" cy="97.588" r="2.563" fx="113.667" fy="98" id="s" xlink:href="#e" gradientUnits="userSpaceOnUse" gradientTransform="translate(-223.976 -53.226) scale(2.49565)"/><radialGradient cx="113.065" cy="97.588" r="2.563" fx="113.667" fy="98" id="w" xlink:href="#e" gradientUnits="userSpaceOnUse" gradientTransform="translate(-223.976 -53.226) scale(2.49565)"/><radialGradient cx="113.065" cy="97.588" r="2.563" fx="113.667" fy="98" id="x" xlink:href="#e" gradientUnits="userSpaceOnUse" gradientTransform="translate(-223.976 -53.226) scale(2.49565)"/><radialGradient cx="142.622" cy="191.854" r="78.728" fx="142.622" fy="191.854" id="u" xlink:href="#f" gradientUnits="userSpaceOnUse" gradientTransform="matrix(.1233 0 0 -.08626 -2.074 31.248)"/><radialGradient cx="127.317" cy="143.828" r="78.728" fx="127.317" fy="143.828" id="v" xlink:href="#g" gradientUnits="userSpaceOnUse" gradientTransform="matrix(.12648 -.0172 .00572 .0512 -5.117 6.526)"/><radialGradient cx="141.747" cy="206.426" r="78.728" fx="141.747" fy="206.426" id="t" xlink:href="#f" gradientUnits="userSpaceOnUse" gradientTransform="matrix(.2482 -.00314 .00184 .18067 -20.017 -13.634)"/><linearGradient id="i"><stop offset="0" stop-color="#eee"/><stop offset="1" stop-color="#eee" stop-opacity="0"/></linearGradient><linearGradient id="j"><stop offset="0"/><stop offset="1" stop-color="#bbb" stop-opacity="0"/></linearGradient><linearGradient id="f"><stop offset="0" stop-color="#f5f5f5"/><stop offset=".47" stop-color="#e7e7e7"/><stop offset=".693" stop-color="#8c8c8c"/><stop offset=".835" stop-color="#ddd"/><stop offset="1" stop-color="#a8a8a8"/></linearGradient><linearGradient id="b"><stop offset="0" stop-color="#7a7a7a"/><stop offset="1" stop-color="#474747"/></linearGradient><linearGradient id="k"><stop offset="0" stop-color="#e6e6e6"/><stop offset="1" stop-color="#c8c8c8"/></linearGradient><linearGradient id="a"><stop offset="0" stop-color="#969696"/><stop offset="1" stop-color="#b4b4b4"/></linearGradient><linearGradient id="h"><stop offset="0" stop-color="#fff"/><stop offset="1" stop-color="#fff" stop-opacity="0"/></linearGradient><radialGradient cx="24" cy="42" r="21" fx="24" fy="42" id="A" xlink:href="#h" gradientUnits="userSpaceOnUse" gradientTransform="matrix(.7143 0 0 .2143 -1.143 18.5)"/><linearGradient x1="12.277" y1="37.206" x2="12.222" y2="33.759" id="z" xlink:href="#i" gradientUnits="userSpaceOnUse" gradientTransform="matrix(.79305 0 0 .53933 -1.21 9.187)"/><linearGradient x1="7.063" y1="35.281" x2="24.688" y2="35.281" id="y" xlink:href="#j" gradientUnits="userSpaceOnUse" gradientTransform="matrix(.79305 0 0 .53933 -.578 8.472)"/><radialGradient cx="10" cy="7.237" r="16" fx="10" fy="7.237" id="p" xlink:href="#k" gradientUnits="userSpaceOnUse" gradientTransform="matrix(1.4045 0 0 .9375 -4.045 4.215)"/></defs><path opacity=".402" fill="url(#l)" overflow="visible" d="M10.565 38.15h36.87v5.305h-36.87z" transform="matrix(.66666 0 0 .626 -3.333 3.797)"/><path d="M47.417 38.15v5.305c2.31.01 5.583-1.188 5.583-2.653 0-1.464-2.577-2.652-5.583-2.652z" opacity=".402" fill="url(#m)" overflow="visible" transform="matrix(.66666 0 0 .626 -3.333 3.797)"/><path d="M10.583 38.15v5.305C8.273 43.465 5 42.267 5 40.802c0-1.464 2.577-2.652 5.583-2.652z" opacity=".402" fill="url(#n)" overflow="visible" transform="matrix(.66666 0 0 .626 -3.333 3.797)"/><path d="M.508 25.486h30.984l-.62 4.05H1.197l-.688-4.05z" fill="url(#o)" fill-rule="evenodd" stroke="#353537" stroke-width=".928" stroke-linecap="round" stroke-linejoin="round"/><path fill="#d2d2d3" fill-rule="evenodd" d="M.5 25h31v1H.5z"/><path d="M31.502 25.502l-4.68-17.12c-.133-.488-.827-.884-1.41-.884H6.427c-.896 0-1.41.132-1.598.883L.49 25.49" fill="url(#p)" stroke="url(#q)" stroke-width=".996" stroke-linecap="round" stroke-linejoin="round" overflow="visible"/><path d="M30.5 25.508l-29-.016" opacity=".35" fill="none" stroke="#fff" stroke-linecap="round" overflow="visible"/><path d="M5.7 8.64c.022.2.338.36.706.36.37 0 .647-.16.623-.36-.03-.195-.35-.354-.71-.354-.37 0-.65.16-.628.355z" fill="#f0f0f0"/><path d="M51.85 187.292c-.5.54-1.074 1.403-1.074 2.55 0 .083.005.166.01.253.217 2.927 3.893 5.4 8.026 5.4 2.353 0 4.504-.81 5.752-2.173.537-.582 1.148-1.545 1.038-2.828-.252-2.902-3.923-5.355-8.02-5.355-2.337 0-4.48.8-5.73 2.15z" fill="url(#r)" transform="matrix(.06708 0 0 .04653 2.46 -.213)"/><path d="M24.6 8.64c.022.2.338.36.706.36.37 0 .647-.16.623-.36-.03-.195-.35-.354-.71-.354-.37 0-.65.16-.628.355z" fill="#e6e6e6"/><path d="M51.85 187.292c-.5.54-1.074 1.403-1.074 2.55 0 .083.005.166.01.253.217 2.927 3.893 5.4 8.026 5.4 2.353 0 4.504-.81 5.752-2.173.537-.582 1.148-1.545 1.038-2.828-.252-2.902-3.923-5.355-8.02-5.355-2.337 0-4.48.8-5.73 2.15z" fill="url(#s)" transform="matrix(.06708 0 0 .04653 21.36 -.213)"/><path d="M19.375 8.75c-.36 0-.683.08-.938.22-.254.136-.455.364-.468.655-.04.7-.54 1.226-1.5 1.72-.96.49-2.34.898-4 1.28-.02.003-.03-.003-.04 0-.62.097-1.657.344-2.658.625-1 .28-1.92.593-2.343.813-.006.002-.027-.003-.03 0-2.11 1.002-3.44 2.354-3.626 3.874-.17 1.39.65 2.772 2.22 3.844 2.3 1.57 6.02 2.47 10 2.47s7.733-.9 10.03-2.47c1.438-.97 2.22-2.2 2.22-3.46 0-.14-.02-.27-.03-.374-.164-1.33-1.197-2.547-2.875-3.5L24.87 9.6c-.025-.29-.24-.49-.5-.626a1.99 1.99 0 0 0-.935-.22H19.37zm0 .656h4.063c.082 0 .142.02.187.03l.47 5.095a.252.252 0 0 0 0 .04.252.252 0 0 0 .03.06.252.252 0 0 0 .094.097c1.64.844 2.61 2.117 2.75 3.187.08.666-.14 1.278-.63 1.844-.49.567-1.26 1.07-2.25 1.5-1.98.86-4.84 1.376-8.1 1.376-3.257 0-6.112-.518-8.094-1.378-.99-.43-1.763-.933-2.25-1.5-.486-.565-.707-1.177-.625-1.843.144-1.147 1.21-2.47 3.065-3.343a.252.252 0 0 0 .03 0 2.3 2.3 0 0 1 .22-.095c.12-.05.287-.128.47-.19.362-.12.82-.264 1.31-.406.986-.286 2.082-.55 2.626-.627a.252.252 0 0 0 .03 0c1.613-.37 3.16-.81 4.346-1.407 1.14-.576 1.955-1.35 2.064-2.406a.54.54 0 0 1 .188-.034z" transform="matrix(.99 0 0 .9836 .153 .27)" fill="url(#t)"/><path d="M16 20c-2.243 0-3.963-.836-4-1.945v-.035c0-.402.225-.783.654-1.106.724-.547 1.975-.873 3.346-.873 1.37 0 2.622.33 3.346.88.44.33.667.73.653 1.14-.04 1.11-1.76 1.947-4 1.947zm.067-2.718c-2.108 0-3.25.208-3.224.965.025.744 1.438 1.34 3.157 1.34 1.72 0 3.132-.596 3.156-1.34.025-.757-.98-.965-3.09-.965z" fill="url(#u)" overflow="visible"/><path d="M7.25 8.906a.09.09 0 0 0-.03.03.09.09 0 0 0-.032.033l-.094.21-1 3.25-.188.53a.09.09 0 0 0 0 .03.09.09 0 0 0 0 .03.09.09 0 0 0 .032.033.09.09 0 0 0 .03.03.09.09 0 0 0 .032 0 .09.09 0 0 0 .03 0l.5-.124 8.657-2.033h.032a.09.09 0 0 0 .03 0c.49-.215.78-.687.84-1.093a.96.96 0 0 0-.068-.56c-.088-.2-.32-.38-.56-.375h-8.19a.09.09 0 0 0-.03 0zm.375.375h7.844c-.02.08-.04.24-.1.41-.06.18-.16.33-.25.38L6.87 12l.75-2.72z" transform="matrix(.95607 0 0 .89997 .475 1.1)" fill="url(#v)" overflow="visible"/><path d="M4.438 23.67c-.03.457-.49.83-1.028.83-.537 0-.944-.373-.908-.83.036-.455.496-.823 1.028-.823s.938.368.908.823z" fill="#e6e6e6"/><path d="M51.85 187.292c-.5.54-1.074 1.403-1.074 2.55 0 .083.005.166.01.253.217 2.927 3.893 5.4 8.026 5.4 2.353 0 4.504-.81 5.752-2.173.537-.582 1.148-1.545 1.038-2.828-.252-2.902-3.923-5.355-8.02-5.355-2.337 0-4.48.8-5.73 2.15z" fill="url(#w)" transform="matrix(-.0978 0 0 .10767 9.162 3.182)"/><path d="M27.502 23.67c.03.457.49.83 1.028.83.537 0 .943-.373.907-.83-.035-.455-.496-.823-1.027-.823-.532 0-.94.368-.908.823z" fill="#e6e6e6"/><path d="M51.85 187.292c-.5.54-1.074 1.403-1.074 2.55 0 .083.005.166.01.253.217 2.927 3.893 5.4 8.026 5.4 2.353 0 4.504-.81 5.752-2.173.537-.582 1.148-1.545 1.038-2.828-.252-2.902-3.923-5.355-8.02-5.355-2.337 0-4.48.8-5.73 2.15z" fill="url(#x)" transform="matrix(.0978 0 0 .10767 22.777 3.182)"/><path d="M4.7 26H19v3H5.023L4.7 26z" fill="url(#y)" fill-rule="evenodd" overflow="visible"/><path d="M5.023 29l-.215-2.163C6.263 28.55 11.602 29 15.283 29H5.023z" opacity=".811" fill="url(#z)" fill-rule="evenodd"/><path opacity=".2" fill="url(#A)" d="M1 26h30v3H1z"/></svg>