<svg xmlns="http://www.w3.org/2000/svg" xmlns:xlink="http://www.w3.org/1999/xlink" viewBox="0 0 32 32"><defs><linearGradient id="l"><stop offset="0" stop-color="#dcc383" stop-opacity="0"/><stop offset=".172" stop-color="#dcc383"/><stop offset=".279" stop-color="#856101"/><stop offset=".657" stop-color="#fef3b1"/><stop offset=".833" stop-color="#fff4b0"/><stop offset="1" stop-color="#7d5a00"/></linearGradient><linearGradient id="d"><stop offset="0" stop-opacity=".272"/><stop offset="1" stop-opacity=".368"/></linearGradient><linearGradient id="e"><stop offset="0" stop-color="#fff"/><stop offset=".063" stop-color="#fff" stop-opacity=".235"/><stop offset=".951" stop-color="#fff" stop-opacity=".157"/><stop offset="1" stop-color="#fff" stop-opacity=".392"/></linearGradient><linearGradient id="f"><stop offset="0" stop-color="#f4f4f4"/><stop offset="1" stop-color="#d0d0d0"/></linearGradient><radialGradient gradientTransform="matrix(2.00378 0 0 1.4 27.988 -17.4)" gradientUnits="userSpaceOnUse" xlink:href="#a" id="n" fy="43.5" fx="4.993" r="2.5" cy="43.5" cx="4.993"/><linearGradient id="a"><stop offset="0" stop-color="#181818"/><stop offset="1" stop-color="#181818" stop-opacity="0"/></linearGradient><radialGradient gradientTransform="matrix(2.00378 0 0 1.4 -20.012 -104.4)" gradientUnits="userSpaceOnUse" xlink:href="#b" id="o" fy="43.5" fx="4.993" r="2.5" cy="43.5" cx="4.993"/><linearGradient id="b"><stop offset="0" stop-color="#181818"/><stop offset="1" stop-color="#181818" stop-opacity="0"/></linearGradient><linearGradient gradientUnits="userSpaceOnUse" xlink:href="#c" id="p" y2="39.999" x2="25.058" y1="47.028" x1="25.058"/><linearGradient id="c"><stop offset="0" stop-color="#181818" stop-opacity="0"/><stop offset=".5" stop-color="#181818"/><stop offset="1" stop-color="#181818" stop-opacity="0"/></linearGradient><linearGradient gradientTransform="matrix(1.08 0 0 1.08 -30.782 -2.36)" gradientUnits="userSpaceOnUse" xlink:href="#d" id="r" y2="30.093" x2="30.643" y1="3.916" x1="30.643"/><linearGradient gradientTransform="translate(-.216 -.216) scale(.67568)" gradientUnits="userSpaceOnUse" xlink:href="#e" id="s" y2="43" x2="24" y1="5" x1="24"/><radialGradient gradientTransform="matrix(0 1.558 -1.60697 0 29.58 -40.29)" gradientUnits="userSpaceOnUse" xlink:href="#f" id="q" fy="8.45" fx="20.931" r="20" cy="8.45" cx="20.931"/><linearGradient id="m"><stop offset="0" stop-color="#2d2d2d"/><stop offset="1" stop-color="#3f3f3f"/></linearGradient><linearGradient id="k"><stop offset="0" stop-color="#dcc383" stop-opacity="0"/><stop offset=".172" stop-color="#dcc383"/><stop offset=".279" stop-color="#856101"/><stop offset=".657" stop-color="#fef3b1"/><stop offset=".833" stop-color="#fff4b0"/><stop offset="1" stop-color="#7d5a00"/></linearGradient><linearGradient id="j"><stop offset="0" stop-color="#dcc383" stop-opacity="0"/><stop offset=".172" stop-color="#dcc383"/><stop offset=".279" stop-color="#856101"/><stop offset=".657" stop-color="#fef3b1"/><stop offset=".833" stop-color="#fff4b0"/><stop offset="1" stop-color="#7d5a00"/></linearGradient><linearGradient id="i"><stop offset="0" stop-color="#dcc383" stop-opacity="0"/><stop offset=".172" stop-color="#dcc383"/><stop offset=".279" stop-color="#856101"/><stop offset=".657" stop-color="#fef3b1"/><stop offset=".833" stop-color="#fff4b0"/><stop offset="1" stop-color="#7d5a00"/></linearGradient><linearGradient id="h"><stop offset="0" stop-color="#dcc383" stop-opacity="0"/><stop offset=".172" stop-color="#dcc383"/><stop offset=".279" stop-color="#856101"/><stop offset=".657" stop-color="#fef3b1"/><stop offset=".833" stop-color="#fff4b0"/><stop offset="1" stop-color="#7d5a00"/></linearGradient><linearGradient id="g"><stop offset="0" stop-color="#dcc383" stop-opacity="0"/><stop offset=".172" stop-color="#dcc383"/><stop offset=".279" stop-color="#856101"/><stop offset=".657" stop-color="#fef3b1"/><stop offset=".833" stop-color="#fff4b0"/><stop offset="1" stop-color="#7d5a00"/></linearGradient><linearGradient y2="16.699" x2="44.45" y1="13.714" x1="44.45" gradientTransform="matrix(.7 0 0 .66667 -12.226 1.858)" gradientUnits="userSpaceOnUse" id="z" xlink:href="#g"/><linearGradient y2="16.699" x2="44.45" y1="13.714" x1="44.45" gradientTransform="matrix(.7 0 0 .66667 -14.076 1.858)" gradientUnits="userSpaceOnUse" id="y" xlink:href="#h"/><linearGradient y2="16.699" x2="44.45" y1="13.714" x1="44.45" gradientTransform="matrix(.7 0 0 .66667 -15.926 1.858)" gradientUnits="userSpaceOnUse" id="x" xlink:href="#i"/><linearGradient y2="16.699" x2="44.45" y1="13.714" x1="44.45" gradientTransform="matrix(.7 0 0 .66667 -17.776 1.858)" gradientUnits="userSpaceOnUse" id="w" xlink:href="#j"/><linearGradient y2="16.699" x2="44.45" y1="13.714" x1="44.45" gradientTransform="matrix(.7 0 0 .66667 -19.626 1.858)" gradientUnits="userSpaceOnUse" id="v" xlink:href="#k"/><linearGradient y2="16.699" x2="44.45" y1="13.714" x1="44.45" gradientTransform="matrix(.7 0 0 .66667 -10.376 1.858)" gradientUnits="userSpaceOnUse" id="u" xlink:href="#l"/><linearGradient y2="28.975" x2="24" y1="19.114" x1="24" gradientTransform="matrix(1 0 0 1.1 -7.502 -9.85)" gradientUnits="userSpaceOnUse" id="t" xlink:href="#m"/></defs><g opacity=".4"><path fill="url(#n)" d="M38 40h5v7h-5z" transform="matrix(.73684 0 0 .57143 -1.684 4.143)"/><path transform="matrix(-.73684 0 0 -.57143 -1.684 4.143)" fill="url(#o)" d="M-10-47h5v7h-5z"/><path fill="url(#p)" d="M10 40h28v7H10z" transform="matrix(.73684 0 0 .57143 -1.684 4.143)"/></g><rect transform="scale(1 -1)" y="-29" x="3" ry="1.615" rx="1.615" height="26" width="26" color="#000" overflow="visible" fill="url(#q)"/><rect y="2.5" x="2.5" ry="2.16" rx="2.16" height="27" width="27" color="#000" overflow="visible" fill="none" stroke="url(#r)" stroke-linecap="round" stroke-linejoin="round"/><rect y="3.5" x="3.5" ry="1.087" rx="1.087" height="25" width="25" fill="none" stroke="url(#s)" stroke-linecap="round" stroke-linejoin="round"/><path d="M8 11v11h4v1h1v1h6v-1h1v-1h4V11z" color="#000" overflow="visible" opacity=".5" fill="#fff"/><path d="M8 10v11h4v1h1v1h6v-1h1v-1h4V10z" color="#000" overflow="visible" fill="url(#t)"/><path d="M8.5 10.5v10h4v1h1v1h5v-1h1v-1h4v-10z" color="#000" overflow="visible" opacity=".3" fill="none" stroke="#000"/><path color="#000" overflow="visible" fill="url(#u)" d="M20.25 11h.7v2h-.7z"/><path color="#000" overflow="visible" fill="url(#v)" d="M11 11h.7v2H11z"/><path color="#000" overflow="visible" fill="url(#w)" d="M12.85 11h.7v2h-.7z"/><path color="#000" overflow="visible" fill="url(#x)" d="M14.7 11h.7v2h-.7z"/><path color="#000" overflow="visible" fill="url(#y)" d="M16.55 11h.7v2h-.7z"/><path color="#000" overflow="visible" fill="url(#z)" d="M18.4 11h.7v2h-.7z"/></svg>