<?xml version="1.0" encoding="UTF-8" standalone="no"?>
<svg
   xmlns:osb="http://www.openswatchbook.org/uri/2009/osb"
   xmlns:dc="http://purl.org/dc/elements/1.1/"
   xmlns:cc="http://creativecommons.org/ns#"
   xmlns:rdf="http://www.w3.org/1999/02/22-rdf-syntax-ns#"
   xmlns:svg="http://www.w3.org/2000/svg"
   xmlns="http://www.w3.org/2000/svg"
   xmlns:xlink="http://www.w3.org/1999/xlink"
   xmlns:sodipodi="http://sodipodi.sourceforge.net/DTD/sodipodi-0.dtd"
   xmlns:inkscape="http://www.inkscape.org/namespaces/inkscape"
   version="1.1"
   width="32"
   height="32"
   id="svg4715"
   inkscape:version="0.91 r13725"
   sodipodi:docname="network-firewall.svg">
  <sodipodi:namedview
     pagecolor="#ffffff"
     bordercolor="#666666"
     borderopacity="1"
     objecttolerance="10"
     gridtolerance="10"
     guidetolerance="10"
     inkscape:pageopacity="0"
     inkscape:pageshadow="2"
     inkscape:window-width="3200"
     inkscape:window-height="1674"
     id="namedview123"
     showgrid="false"
     inkscape:zoom="2"
     inkscape:cx="16"
     inkscape:cy="16"
     inkscape:window-x="0"
     inkscape:window-y="60"
     inkscape:window-maximized="1"
     inkscape:current-layer="svg4715">
    <inkscape:grid
       type="xygrid"
       id="grid4262" />
  </sodipodi:namedview>
  <defs
     id="defs4717">
    <linearGradient
       id="linearGradient3924">
      <stop
         id="stop3926"
         style="stop-color:#ffffff;stop-opacity:1"
         offset="0" />
      <stop
         id="stop3928"
         style="stop-color:#ffffff;stop-opacity:0.23529412"
         offset="0.06316455" />
      <stop
         id="stop3930"
         style="stop-color:#ffffff;stop-opacity:0.15686275"
         offset="0.95056331" />
      <stop
         id="stop3932"
         style="stop-color:#ffffff;stop-opacity:0.39215687"
         offset="1" />
    </linearGradient>
    <linearGradient
       id="linearGradient2867-449-88-871-390-598-476-591-434-148-57-177-641-289-620-227-114-444-680-744-4-8-69-5-4-8-426-2-9-1-4-965">
      <stop
         id="stop4036"
         style="stop-color:#ce4f47;stop-opacity:1"
         offset="0" />
      <stop
         id="stop4040"
         style="stop-color:#b93b36;stop-opacity:1"
         offset="1" />
    </linearGradient>
    <radialGradient
       cx="4.9929786"
       cy="43.5"
       r="2.5"
       fx="4.9929786"
       fy="43.5"
       id="radialGradient3163"
       xlink:href="#linearGradient3688-166-749"
       gradientUnits="userSpaceOnUse"
       gradientTransform="matrix(2.003784,0,0,1.4,27.98813,-17.4)" />
    <linearGradient
       id="linearGradient3688-166-749">
      <stop
         id="stop2883"
         style="stop-color:#181818;stop-opacity:1"
         offset="0" />
      <stop
         id="stop2885"
         style="stop-color:#181818;stop-opacity:0"
         offset="1" />
    </linearGradient>
    <radialGradient
       cx="4.9929786"
       cy="43.5"
       r="2.5"
       fx="4.9929786"
       fy="43.5"
       id="radialGradient3165"
       xlink:href="#linearGradient3688-464-309"
       gradientUnits="userSpaceOnUse"
       gradientTransform="matrix(2.003784,0,0,1.4,-20.01187,-104.4)" />
    <linearGradient
       id="linearGradient3688-464-309">
      <stop
         id="stop2889"
         style="stop-color:#181818;stop-opacity:1"
         offset="0" />
      <stop
         id="stop2891"
         style="stop-color:#181818;stop-opacity:0"
         offset="1" />
    </linearGradient>
    <linearGradient
       x1="25.058096"
       y1="47.027729"
       x2="25.058096"
       y2="39.999443"
       id="linearGradient3167"
       xlink:href="#linearGradient3702-501-757"
       gradientUnits="userSpaceOnUse" />
    <linearGradient
       id="linearGradient3702-501-757">
      <stop
         id="stop2895"
         style="stop-color:#181818;stop-opacity:0"
         offset="0" />
      <stop
         id="stop2897"
         style="stop-color:#181818;stop-opacity:1"
         offset="0.5" />
      <stop
         id="stop2899"
         style="stop-color:#181818;stop-opacity:0"
         offset="1" />
    </linearGradient>
    <linearGradient
       x1="23.99999"
       y1="4.999989"
       x2="23.99999"
       y2="43"
       id="linearGradient3027-9"
       xlink:href="#linearGradient3924"
       gradientUnits="userSpaceOnUse"
       gradientTransform="matrix(0.67567568,0,0,0.67567565,-0.216213,-0.2162086)" />
    <radialGradient
       cx="5.7590528"
       cy="8.4497662"
       r="19.99999"
       fx="5.7590528"
       fy="8.4497662"
       id="radialGradient3035-2-7-2-0-6-6"
       xlink:href="#linearGradient2867-449-88-871-390-598-476-591-434-148-57-177-641-289-620-227-114-444-680-744-4-8-69-5-4-8-426-2-9-1-4-965"
       gradientUnits="userSpaceOnUse"
       gradientTransform="matrix(-0.70464575,0,0,-0.2978453,20.73142,11.102583)" />
    <radialGradient
       cx="5.7590528"
       cy="8.4497662"
       r="19.99999"
       fx="5.7590528"
       fy="8.4497662"
       id="radialGradient3035-2-7-2-0-6-6-9"
       xlink:href="#linearGradient2867-449-88-871-390-598-476-591-434-148-57-177-641-289-620-227-114-444-680-744-4-8-69-5-4-8-426-2-9-1-4-965"
       gradientUnits="userSpaceOnUse"
       gradientTransform="matrix(-0.70464575,0,0,-0.2978453,20.73142,23.102583)" />
    <radialGradient
       cx="5.7590528"
       cy="8.4497662"
       r="19.99999"
       fx="5.7590528"
       fy="8.4497662"
       id="radialGradient3035-2-7-2-0-6-6-5"
       xlink:href="#linearGradient2867-449-88-871-390-598-476-591-434-148-57-177-641-289-620-227-114-444-680-744-4-8-69-5-4-8-426-2-9-1-4-965"
       gradientUnits="userSpaceOnUse"
       gradientTransform="matrix(-0.70464575,0,0,-0.2978453,20.73142,17.102583)" />
    <radialGradient
       cx="5.7590528"
       cy="8.4497662"
       r="19.99999"
       fx="5.7590528"
       fy="8.4497662"
       id="radialGradient3035-2-7-2-0-6-6-5-4"
       xlink:href="#linearGradient2867-449-88-871-390-598-476-591-434-148-57-177-641-289-620-227-114-444-680-744-4-8-69-5-4-8-426-2-9-1-4-965"
       gradientUnits="userSpaceOnUse"
       gradientTransform="matrix(-0.70464575,0,0,-0.2978453,20.73142,5.102583)" />
    <radialGradient
       cx="5.7590528"
       cy="8.4497662"
       r="19.99999"
       fx="5.7590528"
       fy="8.4497662"
       id="radialGradient3035-2-7-2-0-6-6-5-3"
       xlink:href="#linearGradient2867-449-88-871-390-598-476-591-434-148-57-177-641-289-620-227-114-444-680-744-4-8-69-5-4-8-426-2-9-1-4-965"
       gradientUnits="userSpaceOnUse"
       gradientTransform="matrix(-0.70464575,0,0,-0.2978453,20.73142,26.102583)" />
    <linearGradient
       osb:paint="solid"
       id="linearGradient4526">
      <stop
         id="stop4528"
         offset="0"
         style="stop-color:#ffffff;stop-opacity:1;" />
    </linearGradient>
  </defs>
  <metadata
     id="metadata4720">
    <rdf:RDF>
      <cc:Work
         rdf:about="">
        <dc:format>image/svg+xml</dc:format>
        <dc:type
           rdf:resource="http://purl.org/dc/dcmitype/StillImage" />
        <dc:title></dc:title>
      </cc:Work>
    </rdf:RDF>
  </metadata>
  <path
     inkscape:connector-curvature="0"
     style="color:#000000;clip-rule:nonzero;display:inline;overflow:visible;visibility:visible;opacity:1;isolation:auto;mix-blend-mode:normal;color-interpolation:sRGB;color-interpolation-filters:linearRGB;solid-color:#000000;solid-opacity:1;fill:url(#radialGradient3035-2-7-2-0-6-6-5-4);fill-opacity:1;fill-rule:nonzero;stroke:none;stroke-width:1;stroke-linecap:butt;stroke-linejoin:miter;stroke-miterlimit:4;stroke-dasharray:none;stroke-dashoffset:0;stroke-opacity:1;marker:none;color-rendering:auto;image-rendering:auto;shape-rendering:auto;text-rendering:auto;enable-background:accumulate"
     d="m 3.5,2.5 c -0.554,0 -1,0.446 -1,1 l 0,4 c 0,0.554 0.446,1 1,1 l 4,0 c 0.554,0 1,-0.446 1,-1 0,0.554 0.446,1 1,1 l 10,0 c 0.554,0 1,-0.446 1,-1 0,0.554 0.446,1 1,1 l 7,0 c 0.554,0 1,-0.446 1,-1 l 0,-4 c 0,-0.554 -0.446,-1 -1,-1 l -7,0 c -0.554,0 -1,0.446 -1,1 0,-0.554 -0.446,-1 -1,-1 l -10,0 c -0.554,0 -1,0.446 -1,1 0,-0.554 -0.446,-1 -1,-1 l -4,0 z"
     id="rect5505-9-1-1-6-5-4-0" />
  <path
     style="color:#000000;display:inline;overflow:visible;visibility:visible;fill:url(#radialGradient3035-2-7-2-0-6-6-5);fill-opacity:1;fill-rule:nonzero;stroke:none;stroke-width:1;marker:none;enable-background:accumulate;clip-rule:nonzero;opacity:1;isolation:auto;mix-blend-mode:normal;color-interpolation:sRGB;color-interpolation-filters:linearRGB;solid-color:#000000;solid-opacity:1;stroke-linecap:butt;stroke-linejoin:miter;stroke-miterlimit:4;stroke-dasharray:none;stroke-dashoffset:0;stroke-opacity:1;filter-blend-mode:normal;filter-gaussianBlur-deviation:0;color-rendering:auto;image-rendering:auto;shape-rendering:auto;text-rendering:auto"
     d="M 3.5 14.5 C 2.946 14.5 2.5 14.946 2.5 15.5 L 2.5 19.5 C 2.5 20.054 2.946 20.5 3.5 20.5 L 7.5 20.5 C 8.054 20.5 8.5 20.054 8.5 19.5 C 8.5 20.054 8.946 20.5 9.5 20.5 L 19.5 20.5 C 20.054 20.5 20.5 20.054 20.5 19.5 C 20.5 20.054 20.946 20.5 21.5 20.5 L 28.5 20.5 C 29.054 20.5 29.5 20.054 29.5 19.5 L 29.5 15.5 C 29.5 14.946 29.054 14.5 28.5 14.5 L 21.5 14.5 C 20.946 14.5 20.5 14.946 20.5 15.5 C 20.5 14.946 20.054 14.5 19.5 14.5 L 9.5 14.5 C 8.946 14.5 8.5 14.946 8.5 15.5 C 8.5 14.946 8.054 14.5 7.5 14.5 L 3.5 14.5 z "
     id="rect5505-9-1-1-6-5-4" />
  <path
     inkscape:connector-curvature="0"
     style="color:#000000;display:inline;overflow:visible;visibility:visible;fill:url(#radialGradient3035-2-7-2-0-6-6-9);fill-opacity:1;fill-rule:nonzero;stroke:none;stroke-width:1;marker:none;enable-background:accumulate"
     d="m 3.5,20.5 c -0.554,0 -1,0.446 -1,1 l 0,4 c 0,0.554 0.446,1 1,1 l 7,0 c 0.554,0 1,-0.446 1,-1 0,0.554 0.446,1 1,1 l 10,0 c 0.554,0 1,-0.446 1,-1 0,0.554 0.446,1 1,1 l 4,0 c 0.554,0 1,-0.446 1,-1 l 0,-4 c 0,-0.554 -0.446,-1 -1,-1 l -4,0 c -0.554,0 -1,0.446 -1,1 0,-0.554 -0.446,-1 -1,-1 l -10,0 c -0.554,0 -1,0.446 -1,1 0,-0.554 -0.446,-1 -1,-1 l -7,0 z"
     id="rect5505-9-1-1-6-5-49-8" />
  <path
     style="color:#000000;display:inline;overflow:visible;visibility:visible;fill:url(#radialGradient3035-2-7-2-0-6-6);fill-opacity:1;fill-rule:nonzero;stroke:none;stroke-width:1;marker:none;enable-background:accumulate"
     d="M 3.5 8.5 C 2.946 8.5 2.5 8.946 2.5 9.5 L 2.5 13.5 C 2.5 14.054 2.946 14.5 3.5 14.5 L 10.5 14.5 C 11.054 14.5 11.5 14.054 11.5 13.5 C 11.5 14.054 11.946 14.5 12.5 14.5 L 22.5 14.5 C 23.054 14.5 23.5 14.054 23.5 13.5 C 23.5 14.054 23.946 14.5 24.5 14.5 L 28.5 14.5 C 29.054 14.5 29.5 14.054 29.5 13.5 L 29.5 9.5 C 29.5 8.946 29.054 8.5 28.5 8.5 L 24.5 8.5 C 23.946 8.5 23.5 8.946 23.5 9.5 C 23.5 8.946 23.054 8.5 22.5 8.5 L 12.5 8.5 C 11.946 8.5 11.5 8.946 11.5 9.5 C 11.5 8.946 11.054 8.5 10.5 8.5 L 3.5 8.5 z "
     id="rect5505-9-1-1-6-5-49" />
  <rect
     width="6"
     height="6"
     rx="0.99999994"
     ry="1.0000001"
     x="-29.5"
     y="20.5"
     id="rect5505-6-6-3-0-3-4-0"
     style="color:#000000;display:inline;overflow:visible;visibility:visible;opacity:0.5;fill:none;stroke:#681d22;stroke-width:0.99999988;stroke-linecap:round;stroke-linejoin:round;stroke-miterlimit:4;stroke-dasharray:none;stroke-dashoffset:0;stroke-opacity:1;marker:none;enable-background:accumulate"
     transform="scale(-1,1)" />
  <rect
     width="12"
     height="6"
     rx="1"
     ry="1.0000001"
     x="-23.5"
     y="20.5"
     id="rect5505-6-6-3-7-6-7-8-6"
     style="color:#000000;display:inline;overflow:visible;visibility:visible;opacity:0.5;fill:none;stroke:#681d22;stroke-width:0.99999988;stroke-linecap:round;stroke-linejoin:round;stroke-miterlimit:4;stroke-dasharray:none;stroke-dashoffset:0;stroke-opacity:1;marker:none;enable-background:accumulate"
     transform="scale(-1,1)" />
  <rect
     width="9"
     height="6"
     rx="1"
     ry="1.0000001"
     x="-11.5"
     y="20.5"
     id="rect5505-6-6-3-7-5-9-1-4-7-1"
     style="color:#000000;display:inline;overflow:visible;visibility:visible;opacity:0.5;fill:none;stroke:#681d22;stroke-width:0.99999994;stroke-linecap:round;stroke-linejoin:round;stroke-miterlimit:4;stroke-dasharray:none;stroke-dashoffset:0;stroke-opacity:1;marker:none;enable-background:accumulate"
     transform="scale(-1,1)" />
  <rect
     width="6"
     height="6"
     rx="0.99999994"
     ry="1.0000001"
     x="-29.5"
     y="8.5"
     id="rect5505-6-6-3-0-3-4"
     style="color:#000000;display:inline;overflow:visible;visibility:visible;opacity:0.5;fill:none;stroke:#681d22;stroke-width:0.99999988;stroke-linecap:round;stroke-linejoin:round;stroke-miterlimit:4;stroke-dasharray:none;stroke-dashoffset:0;stroke-opacity:1;marker:none;enable-background:accumulate"
     transform="scale(-1,1)" />
  <rect
     width="12"
     height="6"
     rx="1"
     ry="1.0000001"
     x="-23.5"
     y="8.5"
     id="rect5505-6-6-3-7-6-7-8"
     style="color:#000000;display:inline;overflow:visible;visibility:visible;opacity:0.5;fill:none;stroke:#681d22;stroke-width:0.99999988;stroke-linecap:round;stroke-linejoin:round;stroke-miterlimit:4;stroke-dasharray:none;stroke-dashoffset:0;stroke-opacity:1;marker:none;enable-background:accumulate"
     transform="scale(-1,1)" />
  <rect
     width="9"
     height="6"
     rx="1"
     ry="1.0000001"
     x="-11.5"
     y="8.5"
     id="rect5505-6-6-3-7-5-9-1-4-7"
     style="color:#000000;display:inline;overflow:visible;visibility:visible;opacity:0.5;fill:none;stroke:#681d22;stroke-width:0.99999994;stroke-linecap:round;stroke-linejoin:round;stroke-miterlimit:4;stroke-dasharray:none;stroke-dashoffset:0;stroke-opacity:1;marker:none;enable-background:accumulate"
     transform="scale(-1,1)" />
  <rect
     width="6"
     height="6"
     rx="0.99999994"
     ry="1.0000001"
     x="2.5"
     y="14.5"
     id="rect5505-6-6-3-0-3-0"
     style="color:#000000;display:inline;overflow:visible;visibility:visible;opacity:0.5;fill:none;stroke:#681d22;stroke-width:0.99999988;stroke-linecap:round;stroke-linejoin:round;stroke-miterlimit:4;stroke-dasharray:none;stroke-dashoffset:0;stroke-opacity:1;marker:none;enable-background:accumulate" />
  <rect
     width="12"
     height="6"
     rx="1"
     ry="1.0000001"
     x="8.5"
     y="14.5"
     id="rect5505-6-6-3-7-6-7-7"
     style="color:#000000;display:inline;overflow:visible;visibility:visible;opacity:0.5;fill:none;stroke:#681d22;stroke-width:0.99999988;stroke-linecap:round;stroke-linejoin:round;stroke-miterlimit:4;stroke-dasharray:none;stroke-dashoffset:0;stroke-opacity:1;marker:none;enable-background:accumulate" />
  <rect
     width="9"
     height="6"
     rx="1"
     ry="1.0000001"
     x="20.5"
     y="14.5"
     id="rect5505-6-6-3-7-5-9-1-4-8"
     style="color:#000000;display:inline;overflow:visible;visibility:visible;opacity:0.5;fill:none;stroke:#681d22;stroke-width:0.99999994;stroke-linecap:round;stroke-linejoin:round;stroke-miterlimit:4;stroke-dasharray:none;stroke-dashoffset:0;stroke-opacity:1;marker:none;enable-background:accumulate" />
  <rect
     width="6"
     height="6"
     rx="0.99999994"
     ry="1.0000001"
     x="2.5"
     y="2.5"
     id="rect5505-6-6-3-0-3"
     style="color:#000000;display:inline;overflow:visible;visibility:visible;opacity:0.5;fill:none;stroke:#681d22;stroke-width:0.99999988;stroke-linecap:round;stroke-linejoin:round;stroke-miterlimit:4;stroke-dasharray:none;stroke-dashoffset:0;stroke-opacity:1;marker:none;enable-background:accumulate" />
  <rect
     width="12"
     height="6"
     rx="1"
     ry="1.0000001"
     x="8.5"
     y="2.5"
     id="rect5505-6-6-3-7-6-7"
     style="color:#000000;display:inline;overflow:visible;visibility:visible;opacity:0.5;fill:none;stroke:#681d22;stroke-width:0.99999988;stroke-linecap:round;stroke-linejoin:round;stroke-miterlimit:4;stroke-dasharray:none;stroke-dashoffset:0;stroke-opacity:1;marker:none;enable-background:accumulate" />
  <rect
     width="9"
     height="6"
     rx="1"
     ry="1.0000001"
     x="20.5"
     y="2.5"
     id="rect5505-6-6-3-7-5-9-1-4"
     style="color:#000000;display:inline;overflow:visible;visibility:visible;opacity:0.5;fill:none;stroke:#681d22;stroke-width:0.99999994;stroke-linecap:round;stroke-linejoin:round;stroke-miterlimit:4;stroke-dasharray:none;stroke-dashoffset:0;stroke-opacity:1;marker:none;enable-background:accumulate" />
  <g
     transform="matrix(0.6999997,0,0,0.44444486,-0.8000003,10.111104)"
     id="g2036"
     style="display:inline">
    <g
       transform="matrix(1.052632,0,0,1.285713,-1.263158,-13.42854)"
       id="g3712"
       style="opacity:0.4">
      <rect
         width="5"
         height="7"
         x="38"
         y="40"
         id="rect2801"
         style="fill:url(#radialGradient3163);fill-opacity:1;stroke:none" />
      <rect
         width="5"
         height="7"
         x="-10"
         y="-47"
         transform="scale(-1,-1)"
         id="rect3696"
         style="fill:url(#radialGradient3165);fill-opacity:1;stroke:none" />
      <rect
         width="28"
         height="7.0000005"
         x="10"
         y="40"
         id="rect3700"
         style="fill:url(#linearGradient3167);fill-opacity:1;stroke:none" />
    </g>
  </g>
  <path
     style="color:#000000;display:inline;overflow:visible;visibility:visible;fill:url(#radialGradient3035-2-7-2-0-6-6-5-3);fill-opacity:1;fill-rule:nonzero;stroke:none;stroke-width:1;marker:none;enable-background:accumulate;clip-rule:nonzero;opacity:1;isolation:auto;mix-blend-mode:normal;color-interpolation:sRGB;color-interpolation-filters:linearRGB;solid-color:#000000;solid-opacity:1;stroke-linecap:butt;stroke-linejoin:miter;stroke-miterlimit:4;stroke-dasharray:none;stroke-dashoffset:0;stroke-opacity:1;filter-blend-mode:normal;filter-gaussianBlur-deviation:0;color-rendering:auto;image-rendering:auto;shape-rendering:auto;text-rendering:auto"
     d="M 3.5 26.5 C 2.946 26.5 2.5 26.946 2.5 27.5 L 2.5 28.5 C 2.5 29.054 2.946 29.5 3.5 29.5 L 7.5 29.5 C 8.054 29.5 8.5 29.054 8.5 28.5 C 8.5 29.054 8.946 29.5 9.5 29.5 L 19.5 29.5 C 20.054 29.5 20.5 29.054 20.5 28.5 C 20.5 29.054 20.946 29.5 21.5 29.5 L 28.5 29.5 C 29.054 29.5 29.5 29.054 29.5 28.5 L 29.5 27.5 C 29.5 26.946 29.054 26.5 28.5 26.5 L 21.5 26.5 C 20.946 26.5 20.5 26.946 20.5 27.5 C 20.5 26.946 20.054 26.5 19.5 26.5 L 9.5 26.5 C 8.946 26.5 8.5 26.946 8.5 27.5 C 8.5 26.946 8.054 26.5 7.5 26.5 L 3.5 26.5 z "
     id="rect5505-9-1-1-6-5-4-1" />
  <rect
     width="6"
     height="3.0000007"
     rx="0.99999994"
     ry="1.0000001"
     x="2.5"
     y="26.5"
     id="rect5505-6-6-3-0-3-0-2"
     style="color:#000000;display:inline;overflow:visible;visibility:visible;opacity:0.5;fill:none;stroke:#681d22;stroke-width:0.99999994;stroke-linecap:round;stroke-linejoin:round;stroke-miterlimit:4;stroke-dasharray:none;stroke-dashoffset:0;stroke-opacity:1;marker:none;enable-background:accumulate" />
  <rect
     width="12"
     height="3.0000007"
     rx="1"
     ry="1.0000001"
     x="8.5"
     y="26.5"
     id="rect5505-6-6-3-7-6-7-7-0"
     style="color:#000000;display:inline;overflow:visible;visibility:visible;opacity:0.5;fill:none;stroke:#681d22;stroke-width:0.99999994;stroke-linecap:round;stroke-linejoin:round;stroke-miterlimit:4;stroke-dasharray:none;stroke-dashoffset:0;stroke-opacity:1;marker:none;enable-background:accumulate" />
  <rect
     width="9"
     height="3.0000007"
     rx="1"
     ry="1.0000001"
     x="20.5"
     y="26.5"
     id="rect5505-6-6-3-7-5-9-1-4-8-6"
     style="color:#000000;display:inline;overflow:visible;visibility:visible;opacity:0.5;fill:none;stroke:#681d22;stroke-width:0.99999994;stroke-linecap:round;stroke-linejoin:round;stroke-miterlimit:4;stroke-dasharray:none;stroke-dashoffset:0;stroke-opacity:1;marker:none;enable-background:accumulate" />
  <path
     id="rect6741-7-5"
     style="opacity:0.3;fill:none;stroke:url(#linearGradient3027-9);stroke-width:0.99999994;stroke-linecap:round;stroke-linejoin:round;stroke-miterlimit:4;stroke-dasharray:none;stroke-dashoffset:0;stroke-opacity:1"
     d="m 3.5,3.5 25,0 0,25 -25,0 z m 4,12 -3.5,0 m 15.5,0 -10,0 m 18.5,0 -6.5,0 m 3,6 3.5,0 m -15.5,0 10,0 m -18.5,0 6.5,0 m 14,-12 3.5,0 m -15.5,0 10,0 m -18.5,0 6.5,0"
     inkscape:connector-curvature="0"
     sodipodi:nodetypes="ccccccccccccccccccccccc" />
</svg>
