<svg xmlns="http://www.w3.org/2000/svg" xmlns:xlink="http://www.w3.org/1999/xlink" viewBox="0 0 32 32"><defs><linearGradient id="d"><stop offset="0" stop-color="#fff"/><stop offset=".063" stop-color="#fff" stop-opacity=".235"/><stop offset=".951" stop-color="#fff" stop-opacity=".157"/><stop offset="1" stop-color="#fff" stop-opacity=".392"/></linearGradient><radialGradient cx="4.993" cy="43.5" r="2.5" fx="4.993" fy="43.5" id="q" xlink:href="#a" gradientUnits="userSpaceOnUse" gradientTransform="matrix(2.00378 0 0 1.4 27.988 -17.4)"/><linearGradient id="a"><stop offset="0" stop-color="#181818"/><stop offset="1" stop-color="#181818" stop-opacity="0"/></linearGradient><radialGradient cx="4.993" cy="43.5" r="2.5" fx="4.993" fy="43.5" id="r" xlink:href="#b" gradientUnits="userSpaceOnUse" gradientTransform="matrix(2.00378 0 0 1.4 -20.012 -104.4)"/><linearGradient id="b"><stop offset="0" stop-color="#181818"/><stop offset="1" stop-color="#181818" stop-opacity="0"/></linearGradient><linearGradient x1="25.058" y1="47.028" x2="25.058" y2="39.999" id="s" xlink:href="#c" gradientUnits="userSpaceOnUse"/><linearGradient id="c"><stop offset="0" stop-color="#181818" stop-opacity="0"/><stop offset=".5" stop-color="#181818"/><stop offset="1" stop-color="#181818" stop-opacity="0"/></linearGradient><linearGradient id="f"><stop offset="0" stop-color="#918e88"/><stop offset="1" stop-color="#605c58"/></linearGradient><linearGradient id="e"><stop offset="0" stop-color="#fff"/><stop offset=".011" stop-color="#fff" stop-opacity=".235"/><stop offset=".994" stop-color="#fff" stop-opacity=".157"/><stop offset="1" stop-color="#fff" stop-opacity=".392"/></linearGradient><radialGradient gradientTransform="matrix(0 1.23165 -1.62575 0 18.487 -28.722)" gradientUnits="userSpaceOnUse" id="l" r="20.397" cy="3.99" cx="23.896"><stop offset="0" stop-color="#fff"/><stop offset=".262" stop-color="#ddd"/><stop offset=".661" stop-color="#abacae"/><stop offset="1" stop-color="#89898b"/></radialGradient><linearGradient id="i"><stop offset="0" stop-color="#fff"/><stop offset=".107" stop-color="#fff" stop-opacity=".235"/><stop offset=".994" stop-color="#fff" stop-opacity=".157"/><stop offset="1" stop-color="#fff" stop-opacity=".392"/></linearGradient><linearGradient id="g"><stop offset="0" stop-color="#5e5750"/><stop offset="1" stop-color="#756d65"/></linearGradient><linearGradient id="h"><stop offset="0" stop-color="#dad7bd"/><stop offset="1" stop-color="#e8e5d4"/></linearGradient><linearGradient id="k"><stop offset="0" stop-color="#ffcd7d"/><stop offset=".262" stop-color="#fc8f36"/><stop offset=".705" stop-color="#e23a0e"/><stop offset="1" stop-color="#ac441f"/></linearGradient><linearGradient id="j"><stop offset="0" stop-color="#fff"/><stop offset=".011" stop-color="#fff" stop-opacity=".235"/><stop offset=".994" stop-color="#fff" stop-opacity=".157"/><stop offset="1" stop-color="#fff" stop-opacity=".392"/></linearGradient><linearGradient xlink:href="#d" id="A" gradientUnits="userSpaceOnUse" gradientTransform="matrix(.62162 0 0 .67568 1.08 -.216)" x1="24" y1="5" x2="24" y2="43"/><linearGradient xlink:href="#e" id="z" gradientUnits="userSpaceOnUse" gradientTransform="matrix(.16216 0 0 .1081 17.608 12.905)" x1="24" y1="9.853" x2="24" y2="37.871"/><linearGradient xlink:href="#f" id="y" gradientUnits="userSpaceOnUse" gradientTransform="matrix(.56842 0 0 .60902 25.704 -5.962)" x1="-6.392" y1="30.306" x2="-6.392" y2="39.935"/><linearGradient xlink:href="#g" id="x" gradientUnits="userSpaceOnUse" gradientTransform="matrix(.59375 0 0 .54545 1.75 1.773)" x1="15" y1="5" x2="15" y2="16"/><linearGradient xlink:href="#h" id="w" gradientUnits="userSpaceOnUse" gradientTransform="matrix(.60597 0 0 .6219 1.618 1.42)" x1="16" y1="4" x2="16" y2="15"/><linearGradient xlink:href="#i" id="v" gradientUnits="userSpaceOnUse" gradientTransform="matrix(.2064 0 0 .15135 5.587 12.767)" x1="43.816" y1="-10.328" x2="43.816" y2="-57.312"/><linearGradient xlink:href="#j" id="B" gradientUnits="userSpaceOnUse" gradientTransform="matrix(.16216 0 0 .1081 17.608 20.905)" x1="24" y1="9.898" x2="24" y2="37.94"/><radialGradient xlink:href="#k" id="u" gradientUnits="userSpaceOnUse" gradientTransform="matrix(0 1.46116 -2.3918 0 45.486 7.475)" cx="6.73" cy="9.957" fx="6.2" fy="9.957" r="12.672"/><radialGradient xlink:href="#l" id="t" gradientUnits="userSpaceOnUse" gradientTransform="matrix(0 6.3317 -7.17537 0 87.957 -53.44)" cx="6.73" cy="9.957" fx="6.2" fy="9.957" r="12.672"/><linearGradient xlink:href="#m" id="D" gradientUnits="userSpaceOnUse" gradientTransform="matrix(.16216 0 0 .1081 6.608 12.905)" x1="24" y1="9.853" x2="24" y2="37.871"/><linearGradient id="m"><stop offset="0" stop-color="#fff"/><stop offset=".011" stop-color="#fff" stop-opacity=".235"/><stop offset=".994" stop-color="#fff" stop-opacity=".157"/><stop offset="1" stop-color="#fff" stop-opacity=".392"/></linearGradient><linearGradient id="n"><stop offset="0" stop-color="#918e88"/><stop offset="1" stop-color="#605c58"/></linearGradient><linearGradient y2="39.935" x2="-6.392" y1="30.306" x1="-6.392" gradientTransform="matrix(.56842 0 0 .60902 14.704 -5.962)" gradientUnits="userSpaceOnUse" id="C" xlink:href="#n"/><linearGradient id="p"><stop offset="0" stop-color="#918e88"/><stop offset="1" stop-color="#605c58"/></linearGradient><linearGradient xlink:href="#o" id="F" gradientUnits="userSpaceOnUse" gradientTransform="matrix(.16216 0 0 .1081 6.608 20.905)" x1="24" y1="9.853" x2="24" y2="37.871"/><linearGradient id="o"><stop offset="0" stop-color="#fff"/><stop offset=".011" stop-color="#fff" stop-opacity=".235"/><stop offset=".994" stop-color="#fff" stop-opacity=".157"/><stop offset="1" stop-color="#fff" stop-opacity=".392"/></linearGradient><linearGradient y2="39.935" x2="-6.392" y1="30.306" x1="-6.392" gradientTransform="matrix(.56842 0 0 .60902 14.704 2.038)" gradientUnits="userSpaceOnUse" id="E" xlink:href="#p"/></defs><g opacity=".3"><path fill="url(#q)" d="M38 40h5v7h-5z" transform="matrix(.73684 0 0 .42857 -1.684 10.857)"/><path transform="matrix(-.73684 0 0 -.42857 -1.684 10.857)" fill="url(#r)" d="M-10-47h5v7h-5z"/><path fill="url(#s)" d="M10 40h28v7H10z" transform="matrix(.73684 0 0 .42857 -1.684 10.857)"/></g><rect y="2.5" x="3.5" ry="2" rx="2" height="27" width="25" opacity=".4" color="#000" fill="none" stroke="#000" stroke-linecap="round" stroke-linejoin="round" overflow="visible"/><rect width="24" height="26" rx="1.5" ry="1.5" x="4" y="3" color="#000" fill="url(#t)" overflow="visible"/><rect width="8" height="6" rx="1" ry="1" x="17.5" y="20.5" color="#000" fill="url(#u)" overflow="visible"/><rect width="8" height="6" rx="1" ry="1" x="17.5" y="20.5" opacity=".4" color="#000" fill="none" stroke="#640000" stroke-linecap="round" stroke-linejoin="round" overflow="visible"/><rect width="21" height="7" rx="2" ry="2" x="5.5" y="4.5" opacity=".5" color="#000" fill="none" stroke="url(#v)" stroke-linecap="round" stroke-linejoin="round" overflow="visible"/><rect width="20" height="7" rx="2" ry="2" x="6" y="4" color="#000" fill="url(#w)" overflow="visible"/><rect width="19" height="6" rx="1" ry="1" x="6.5" y="4.5" opacity=".7" color="#000" fill="none" stroke="url(#x)" overflow="visible"/><path d="M16.69 5.89c-.392 0-.722.11-1.006.315l.296.455c.13-.084.25-.144.356-.178.106-.034.213-.06.315-.06.3 0 .44.12.44.356 0 .154-.04.253-.16.317-.11.062-.29.1-.53.1h-.234v.513h.236c.26 0 .453.018.57.08.12.06.18.17.18.315 0 .163-.055.282-.16.356-.102.07-.274.11-.492.11-.142 0-.27-.02-.414-.06a2.2 2.2 0 0 1-.418-.16v.573c.262.112.57.157.908.157.405 0 .71-.07.93-.235a.863.863 0 0 0 .335-.71.65.65 0 0 0-.2-.496c-.13-.12-.32-.187-.57-.218v-.02a.902.902 0 0 0 .492-.276.728.728 0 0 0 .177-.494.638.638 0 0 0-.277-.552c-.184-.13-.446-.197-.77-.197zm3.81.038l-1.007.81.316.396.35-.296a3.14 3.14 0 0 0 .232-.218l-.02.336v2.097h.65V5.927zm2.664 0l-1.36 2.017V8.4h1.32v.652h.652V8.4h.375v-.514h-.37V5.928zm-.02.752c-.003.027.008.128 0 .296-.006.168-.02.307-.02.396v.514h-.75l.573-.85c.074-.11.145-.24.198-.356zm-4.52 1.7a.436.436 0 0 0-.295.1c-.07.06-.08.156-.08.275 0 .116.03.193.1.257a.38.38 0 0 0 .27.1.338.338 0 0 0 .35-.356c0-.117-.033-.215-.1-.277a.337.337 0 0 0-.255-.1z" style="text-align:end;line-height:125%;-inkscape-font-specification:Open Sans Bold" font-size="6.905" font-weight="700" letter-spacing="0" word-spacing="0" text-anchor="end" fill="#6d6a59" font-family="Open Sans"/><path opacity=".05" color="#000" fill="none" stroke="#000" overflow="visible" d="M7.5 5.5h17v4h-17z"/><rect width="8" height="6" rx="1" ry="1" x="17.5" y="12.5" color="#000" fill="url(#y)" overflow="visible"/><path opacity=".3" fill="none" stroke="url(#z)" stroke-linecap="round" stroke-linejoin="round" d="M18.5 13.5h6v4h-6z"/><rect width="8" height="6" rx="1" ry="1" x="17.5" y="12.5" opacity=".4" color="#000" fill="none" stroke="#000" stroke-linecap="round" stroke-linejoin="round" overflow="visible"/><path style="line-height:125%;-inkscape-font-specification:Helvetica" d="M19.944 15.606v.446h3.113v-.446h-3.11z" font-size="9.881" font-weight="400" letter-spacing="0" word-spacing="0" opacity=".2" color="#000" overflow="visible" font-family="Helvetica"/><path style="line-height:125%;-inkscape-font-specification:Helvetica" d="M19.944 15.16v.446h3.113v-.445h-3.11z" font-size="9.881" font-weight="400" letter-spacing="0" word-spacing="0" fill="#fff" font-family="Helvetica"/><g font-size="9.881" font-weight="400" letter-spacing="0" word-spacing="0" font-family="Helvetica"><path d="M19.944 23.414v.446h3.113v-.446h-3.11zm0 .89v.446h3.113v-.445h-3.11z" style="line-height:125%;-inkscape-font-specification:Helvetica" opacity=".2" color="#000" overflow="visible"/><path d="M19.944 22.97v.444h3.113v-.445h-3.11zm0 .89v.445h3.113v-.445h-3.11z" style="line-height:125%;-inkscape-font-specification:Helvetica" fill="#fff"/></g><rect y="3.5" x="4.5" ry="1" rx="1" height="25" width="23" opacity=".5" fill="none" stroke="url(#A)" stroke-linecap="round" stroke-linejoin="round"/><path opacity=".3" fill="none" stroke="url(#B)" stroke-linecap="round" stroke-linejoin="round" d="M18.5 21.5h6v4h-6z"/><rect width="8" height="6" rx="1" ry="1" x="6.5" y="12.5" color="#000" fill="url(#C)" overflow="visible"/><path opacity=".3" fill="none" stroke="url(#D)" stroke-linecap="round" stroke-linejoin="round" d="M7.5 13.5h6v4h-6z"/><rect width="8" height="6" rx="1" ry="1" x="6.5" y="12.5" opacity=".4" color="#000" fill="none" stroke="#000" stroke-linecap="round" stroke-linejoin="round" overflow="visible"/><rect width="8" height="6" rx="1" ry="1" x="6.5" y="20.5" color="#000" fill="url(#E)" overflow="visible"/><path opacity=".3" fill="none" stroke="url(#F)" stroke-linecap="round" stroke-linejoin="round" d="M7.5 21.5h6v4h-6z"/><rect width="8" height="6" rx="1" ry="1" x="6.5" y="20.5" opacity=".4" color="#000" fill="none" stroke="#000" stroke-linecap="round" stroke-linejoin="round" overflow="visible"/><g font-size="9.881" font-weight="400" letter-spacing="0" word-spacing="0" font-family="Helvetica"><path d="M10.278 14.384v1.336H8.945v.444h1.335V17.5h.444v-1.336h1.33v-.445H10.72v-1.34h-.442z" style="line-height:125%;-inkscape-font-specification:Helvetica" opacity=".2" color="#000" overflow="visible"/><path d="M10.278 13.94v1.334H8.945v.445h1.335v1.33h.444v-1.34h1.33v-.447H10.72v-1.33h-.442z" style="line-height:125%;-inkscape-font-specification:Helvetica" fill="#fff"/></g><g font-size="9.881" font-weight="400" letter-spacing="0" word-spacing="0" font-family="Helvetica"><path d="M8.944 22.384v.445l1.112 1.11-1.112 1.11v.44h.445l1.11-1.113 1.11 1.113h.44v-.445l-1.11-1.113 1.11-1.112v-.446h-.447l-1.11 1.112-1.11-1.115H8.94z" style="line-height:125%;-inkscape-font-specification:Helvetica" opacity=".2" color="#000" overflow="visible"/><path d="M8.944 21.94v.444l1.112 1.113-1.112 1.113v.445h.445l1.11-1.113 1.11 1.113h.44v-.445l-1.11-1.113 1.11-1.113v-.445h-.447l-1.11 1.11-1.11-1.11H8.94z" style="line-height:125%;-inkscape-font-specification:Helvetica" fill="#fff"/></g></svg>