<svg xmlns="http://www.w3.org/2000/svg" xmlns:xlink="http://www.w3.org/1999/xlink" viewBox="0 0 32 32"><defs><linearGradient id="b"><stop offset="0"/><stop offset="1" stop-opacity="0"/></linearGradient><linearGradient id="a"><stop offset="0" stop-opacity="0"/><stop offset=".5"/><stop offset="1" stop-opacity="0"/></linearGradient><linearGradient id="s"><stop offset="0" stop-color="#fff"/><stop offset="1" stop-color="#fff" stop-opacity="0"/></linearGradient><linearGradient x1="302.857" y1="366.648" x2="302.857" y2="609.505" id="C" xlink:href="#a" gradientUnits="userSpaceOnUse" gradientTransform="matrix(.0845 0 0 .01235 -6.54 38.47)"/><radialGradient cx="605.714" cy="486.648" r="117.143" fx="605.714" fy="486.648" id="D" xlink:href="#b" gradientUnits="userSpaceOnUse" gradientTransform="matrix(-.02892 0 0 .01235 21.027 38.47)"/><radialGradient cx="605.714" cy="486.648" r="117.143" fx="605.714" fy="486.648" id="E" xlink:href="#b" gradientUnits="userSpaceOnUse" gradientTransform="matrix(.02892 0 0 .01235 23.973 38.47)"/><linearGradient id="c"><stop offset="0" stop-opacity=".318"/><stop offset="1" stop-opacity=".24"/></linearGradient><linearGradient id="d"><stop offset="0" stop-color="#fff"/><stop offset=".036" stop-color="#fff" stop-opacity=".235"/><stop offset=".951" stop-color="#fff" stop-opacity=".157"/><stop offset="1" stop-color="#fff" stop-opacity=".392"/></linearGradient><linearGradient id="e"><stop offset="0" stop-color="#f4f4f4"/><stop offset="1" stop-color="#dbdbdb"/></linearGradient><linearGradient xlink:href="#c" id="L" gradientUnits="userSpaceOnUse" gradientTransform="matrix(.7152 0 0 .50836 47.363 .524)" x1="-51.786" y1="50.786" x2="-51.786" y2="2.906"/><linearGradient xlink:href="#d" id="G" gradientUnits="userSpaceOnUse" gradientTransform="matrix(.78378 0 0 .62162 -2.81 .08)" x1="24" y1="5.564" x2="24" y2="43"/><linearGradient xlink:href="#e" id="F" gradientUnits="userSpaceOnUse" gradientTransform="matrix(.85714 0 0 .52148 -4.57 1.684)" x1="25.132" y1=".985" x2="25.132" y2="47.013"/><linearGradient id="u"><stop offset="0" stop-color="#ff54d2" stop-opacity="0"/><stop offset=".324" stop-color="#ff54d2" stop-opacity="0"/><stop offset=".561" stop-color="#ff54d2" stop-opacity=".252"/><stop offset="1" stop-color="#ff54d2" stop-opacity=".478"/></linearGradient><linearGradient id="t"><stop offset="0" stop-color="#fff" stop-opacity="0"/><stop offset=".405" stop-color="#fff" stop-opacity="0"/><stop offset="1" stop-color="#fff" stop-opacity=".478"/></linearGradient><linearGradient id="l"><stop offset="0" stop-color="#fff"/><stop offset=".338" stop-color="#fff" stop-opacity=".235"/><stop offset=".62" stop-color="#fff" stop-opacity=".157"/><stop offset="1" stop-color="#fff" stop-opacity=".392"/></linearGradient><linearGradient id="r"><stop offset="0" stop-color="#ff54d2" stop-opacity="0"/><stop offset=".324" stop-color="#f62b68"/><stop offset=".561" stop-color="#ff0105"/><stop offset="1" stop-color="#ff54d2" stop-opacity=".478"/></linearGradient><linearGradient id="p"><stop offset="0" stop-color="#612f91"/><stop offset="1" stop-color="#1a4aa2"/></linearGradient><linearGradient gradientTransform="matrix(.22 0 0 .22 6.693 6.693)" gradientUnits="userSpaceOnUse" id="q" y2="45.369" x2="7.078" y1="3.082" x1="7.078"><stop offset="0" stop-color="#170418"/><stop offset="1" stop-color="#50386b"/></linearGradient><linearGradient id="o"><stop offset="0" stop-color="#07132d"/><stop offset="1" stop-color="#425479"/></linearGradient><linearGradient id="n"><stop offset="0" stop-color="#2d3955"/><stop offset=".725" stop-color="#2b3853"/><stop offset=".75" stop-color="#192640"/><stop offset="1" stop-color="#08142e"/></linearGradient><linearGradient id="m"><stop offset="0" stop-color="#7a8498"/><stop offset="1" stop-color="#34405c"/></linearGradient><linearGradient id="k"><stop offset="0" stop-color="#fff"/><stop offset=".424" stop-color="#fff" stop-opacity=".235"/><stop offset=".821" stop-color="#fff" stop-opacity=".157"/><stop offset="1" stop-color="#fff" stop-opacity=".392"/></linearGradient><linearGradient gradientTransform="matrix(.10884 0 0 .10845 26.793 11.848)" gradientUnits="userSpaceOnUse" xlink:href="#f" id="K" y2="88.801" x2="-175.253" y1="113.979" x1="-184.924"/><linearGradient id="f"><stop offset="0" stop-color="#7a0f01"/><stop offset="1" stop-color="#d31807"/></linearGradient><linearGradient gradientTransform="matrix(.11022 .00852 -.0091 .10377 31.66 14.157)" gradientUnits="userSpaceOnUse" xlink:href="#g" id="J" y2="75.191" x2="-208.497" y1="88.75" x1="-211.289"/><linearGradient id="g"><stop offset="0" stop-color="#ec4502"/><stop offset="1" stop-color="#fe7617"/></linearGradient><linearGradient gradientTransform="matrix(.17104 0 0 .1707 37.255 9.744)" gradientUnits="userSpaceOnUse" xlink:href="#h" id="I" y2="38.561" x2="-107.456" y1="-37.385" x1="-107.456"/><linearGradient id="h"><stop offset="0" stop-color="#0b85e9"/><stop offset="1" stop-color="#69d1ef"/></linearGradient><linearGradient gradientTransform="matrix(.17104 0 0 .1707 37.255 9.744)" gradientUnits="userSpaceOnUse" xlink:href="#i" id="H" y2="39.992" x2="-96.557" y1="110.925" x1="-96.557"/><linearGradient id="i"><stop offset="0" stop-color="#e89c42"/><stop offset="1" stop-color="#faca67"/></linearGradient><linearGradient xlink:href="#e" id="v" gradientUnits="userSpaceOnUse" gradientTransform="matrix(.85714 0 0 .52148 -4.57 1.684)" x1="25.132" y1=".985" x2="25.132" y2="47.013"/><linearGradient xlink:href="#d" id="w" gradientUnits="userSpaceOnUse" gradientTransform="matrix(.78378 0 0 .62162 -2.81 .08)" x1="24" y1="5.564" x2="24" y2="43"/><linearGradient xlink:href="#i" id="x" gradientUnits="userSpaceOnUse" gradientTransform="matrix(.17104 0 0 .1707 37.255 9.744)" x1="-96.557" y1="110.925" x2="-96.557" y2="39.992"/><linearGradient xlink:href="#h" id="y" gradientUnits="userSpaceOnUse" gradientTransform="matrix(.17104 0 0 .1707 37.255 9.744)" x1="-107.456" y1="-37.385" x2="-107.456" y2="38.561"/><linearGradient xlink:href="#g" id="z" gradientUnits="userSpaceOnUse" gradientTransform="matrix(.11022 .00852 -.0091 .10377 31.66 14.157)" x1="-211.289" y1="88.75" x2="-208.497" y2="75.191"/><linearGradient xlink:href="#f" id="A" gradientUnits="userSpaceOnUse" gradientTransform="matrix(.10884 0 0 .10845 26.793 11.848)" x1="-184.924" y1="113.979" x2="-175.253" y2="88.801"/><linearGradient xlink:href="#c" id="B" gradientUnits="userSpaceOnUse" gradientTransform="matrix(.7152 0 0 .50836 47.363 .524)" x1="-51.786" y1="50.786" x2="-51.786" y2="2.906"/><radialGradient xlink:href="#j" id="M" gradientUnits="userSpaceOnUse" gradientTransform="matrix(0 .98633 -1.30193 0 13.195 -22.714)" cx="23.896" cy="3.99" fx="23.896" fy="3.99" r="20.397"/><radialGradient cx="23.896" cy="3.99" r="20.397" id="j" gradientUnits="userSpaceOnUse" gradientTransform="matrix(0 1.23165 -1.62575 0 18.487 -28.722)"><stop offset="0" stop-color="#fff"/><stop offset=".262" stop-color="#ddd"/><stop offset=".661" stop-color="#abacae"/><stop offset="1" stop-color="#89898b"/></radialGradient><linearGradient xlink:href="#k" id="N" gradientUnits="userSpaceOnUse" gradientTransform="matrix(.54 0 0 .54 -30.902 -7.02)" x1="71.204" y1="15.369" x2="71.204" y2="40.496"/><linearGradient y2="48.984" x2="92.696" y1="16.555" x1="92.696" gradientTransform="translate(-20.725 -2.16) scale(.31194)" gradientUnits="userSpaceOnUse" id="O" xlink:href="#l"/><linearGradient xlink:href="#m" id="P" gradientUnits="userSpaceOnUse" x1="91.566" y1="16.543" x2="91.566" y2="48.631" gradientTransform="translate(-20.725 -2.16) scale(.31194)"/><radialGradient xlink:href="#n" id="Q" gradientUnits="userSpaceOnUse" gradientTransform="rotate(90 32.905 -15.533) scale(.56983)" cx="91.35" cy="16.448" fx="91.35" fy="16.448" r="15.639"/><radialGradient xlink:href="#o" id="R" gradientUnits="userSpaceOnUse" gradientTransform="matrix(0 .48097 -1.10793 0 31.53 -9.964)" cx="32" cy="21.239" fx="32" fy="21.239" r="10.498"/><radialGradient xlink:href="#p" id="S" gradientUnits="userSpaceOnUse" gradientTransform="matrix(0 .16744 -.22102 0 8.882 2.464)" cx="23.896" cy="3.99" r="20.397"/><linearGradient xlink:href="#q" id="T" gradientUnits="userSpaceOnUse" gradientTransform="translate(6.316 6.316) scale(.07016)" x1="7.078" y1="3.082" x2="7.078" y2="45.369"/><radialGradient xlink:href="#a" id="U" gradientUnits="userSpaceOnUse" gradientTransform="matrix(.13967 0 0 .13123 -5.408 -4.57)" cx="95.838" cy="95.388" fx="95.838" fy="95.388" r="9.498"/><linearGradient xlink:href="#l" id="V" gradientUnits="userSpaceOnUse" x1="92.696" y1="16.555" x2="92.696" y2="48.984" gradientTransform="matrix(.18717 0 0 -.18716 -9.235 14.097)"/><radialGradient xlink:href="#r" id="W" gradientUnits="userSpaceOnUse" gradientTransform="translate(24.153 23.67) scale(.4989)" cx="32.373" cy="31.405" fx="32.373" fy="31.405" r="3.857"/><linearGradient xlink:href="#l" id="X" gradientUnits="userSpaceOnUse" x1="92.696" y1="16.555" x2="92.696" y2="48.984" gradientTransform="translate(.57 5.372) scale(.08067)"/><linearGradient xlink:href="#s" id="Y" gradientUnits="userSpaceOnUse" gradientTransform="matrix(.0386 0 0 .02895 5.417 5.806)" x1="68.313" y1="52.925" x2="68.313" y2="65.922"/><radialGradient xlink:href="#t" id="Z" gradientUnits="userSpaceOnUse" gradientTransform="matrix(.4992 .13376 -.12913 .4819 -4.107 -11.467)" cx="32.373" cy="31.405" fx="32.373" fy="31.405" r="3.857"/><radialGradient xlink:href="#t" id="aa" gradientUnits="userSpaceOnUse" gradientTransform="matrix(0 .5168 -.499 0 23.67 -8.733)" cx="32.373" cy="31.405" fx="32.373" fy="31.405" r="3.857"/><radialGradient xlink:href="#t" id="ab" gradientUnits="userSpaceOnUse" gradientTransform="matrix(.302 .41937 -.40486 .29155 10.937 -14.735)" cx="32.373" cy="31.405" fx="32.373" fy="31.405" r="3.857"/><radialGradient xlink:href="#u" id="ac" gradientUnits="userSpaceOnUse" gradientTransform="matrix(-.3528 -.35278 .3528 -.35278 8.34 30.038)" cx="32.373" cy="31.405" fx="32.373" fy="31.405" r="3.857"/><radialGradient xlink:href="#s" id="ad" gradientUnits="userSpaceOnUse" cx="36.491" cy="39.709" fx="36.491" fy="39.709" r="3.159" gradientTransform="matrix(.55165 -.3185 .1812 .31387 -18.13 8.738)"/><radialGradient xlink:href="#s" id="ae" gradientUnits="userSpaceOnUse" cx="36.491" cy="39.709" fx="36.491" fy="39.709" r="3.159" gradientTransform="matrix(.4439 -.2563 .14582 .25257 -15.53 5.606)"/><radialGradient xlink:href="#s" id="af" gradientUnits="userSpaceOnUse" cx="36.491" cy="39.709" fx="36.491" fy="39.709" r="3.159" gradientTransform="matrix(.12663 0 0 .13247 3.235 2.53)"/></defs><path d="M1 5l28 .002V27H1z" fill="url(#v)" transform="matrix(.93783 .16532 -.16536 .93758 4.58 -1.48)"/><path d="M28.5 26.5h-27v-21h27z" fill="none" stroke="url(#w)" stroke-width="1.05" stroke-linecap="round" stroke-linejoin="round" transform="matrix(.93783 .16532 -.16536 .93758 4.58 -1.48)"/><path d="M2 6v20h26V6z" color="#000" overflow="visible" fill="url(#x)" transform="matrix(.93783 .16532 -.16536 .93758 4.58 -1.48)"/><path d="M7.938 16.913a.86.86 0 0 0-.34-.02c-.476.07-.58.358-.645.493a1.596 1.596 0 0 0-.12.36c-.055.23-.088.477-.12.724-.026.203-.05.383-.073.54-.162.01-.34.017-.545.024-.256.01-.515.018-.76.05a1.72 1.72 0 0 0-.386.085.887.887 0 0 0-.28.14.783.783 0 0 0-.29.49c-.07.45.19.64.31.74.112.1.21.16.32.22a8.6 8.6 0 0 0 .7.345c.2.09.37.174.523.247l-.137.495c-.065.233-.13.466-.17.695-.02.113-.036.222-.026.376a.846.846 0 0 0 .47.715c.437.21.7.04.837-.03a1.75 1.75 0 0 0 .324-.22 8.2 8.2 0 0 0 .55-.516c.15-.147.28-.278.4-.39.14.082.29.177.46.284.22.136.436.274.655.384.11.056.212.106.37.147a.97.97 0 0 0 .316.038.86.86 0 0 0 .54-.225c.34-.322.247-.617.215-.764a1.632 1.632 0 0 0-.128-.36c-.1-.22-.235-.44-.36-.66a28.64 28.64 0 0 1-.28-.485c.125-.097.263-.2.42-.32.2-.15.4-.3.574-.46.088-.08.17-.16.258-.288a.773.773 0 0 0 .057-.835c-.227-.406-.55-.416-.706-.436a1.89 1.89 0 0 0-.4-.004 8.77 8.77 0 0 0-.77.104c-.216.036-.4.067-.57.09l-.2-.482a7.36 7.36 0 0 0-.3-.667c-.057-.103-.107-.2-.21-.32a.924.924 0 0 0-.487-.31zm.896 1.8l.028.012-.038.003c-.012 0-.02-.015.01-.014zm.406.215c.03.034.026.046.02.037a1.956 1.956 0 0 1-.02-.037zm-2.31.05c.032-.008.032.01.022.01-.005.002-.034.004-.045.005.004 0 .02-.015.024-.016zm-.335.287l-.006.037c-.01.013-.02 0 0-.037zm3.542 1.31c-.005-.01.01-.007.018.034-.004-.01-.017-.03-.018-.04zm-.065.432c-.024.037-.04.038-.032.03l.032-.03zm-3.766.06l-.008.042c-.003-.05.01-.06.008-.05zm.18.413l.032.018c.01.007 0 .012-.033-.018zm2.225.806c.02-.008.01.008-.03.027l.03-.027zm-.49.048l.04.024c-.042-.012-.05-.028-.04-.024z" color="#000" overflow="visible" opacity=".05"/><path d="M5.32 5.293l-1.835 10.4a8.3 8.3 0 0 0 2.046.63c2.15.378 1.97-.395 3.82-.07 1.85.326 2.73 1.693 5.226 2.133 3.09.545 4.136-1.223 6.58-.792 1.91.337 1.87 1.4 3.975 1.77 1.42.25 1.988-.212 2.93-.41l1.65-9.363z" color="#000" overflow="visible" opacity=".07"/><path d="M2 6v10.206c.386.178.875.34 1.403.34 1.207 0 2.388-.974 4.403-.974 2.015 0 3.53 1.224 6.07 1.224 2.542 0 3.114-1.77 6.354-1.77s2.935 1.12 4.963 1.12c1.398 0 1.994-.486 2.807-.795V6z" fill="url(#y)" transform="matrix(.93783 .16532 -.16536 .93758 4.58 -1.48)"/><path d="M21.316 14.543c-1.596-.28-2.68-.008-3.576.267-.896.275-1.58.534-2.674.34-1.124-.197-1.964-.62-2.798-1.062-.834-.44-1.663-.906-2.694-1.088-1.013-.178-1.87-.084-2.577.03-.707.115-1.26.235-1.712.155-.41-.072-.784-.282-1.085-.49a.428.427 8.932 0 0-.173-.074l-.32 1.82a8.8 8.8 0 0 0 2.05.618c1.118.198 1.724.094 2.187-.013.463-.107.755-.21 1.624-.056.833.147 1.456.535 2.227.977.77.444 1.682.926 2.996 1.157 1.64.288 2.79-.04 3.75-.365.97-.323 1.72-.623 2.84-.427.88.156 1.25.45 1.746.807.496.357 1.11.766 2.23.964 1.427.25 2.146-.165 2.92-.37l.28-1.586a.428.427 8.932 0 0-.156 0c-.893.17-1.395.497-2.607.283-.873-.153-1.11-.41-1.632-.786-.52-.376-1.27-.81-2.835-1.085z" color="#000" overflow="visible" opacity=".1" fill="#fff"/><path d="M21.183 15.297c-3.04-.535-3.867 1.03-6.25.61-2.383-.42-3.602-1.82-5.492-2.152-1.89-.333-3.15.384-4.28.184-.495-.09-.93-.32-1.26-.55l-.17.95a8.3 8.3 0 0 0 2.048.63c2.144.38 1.965-.4 3.81-.07 1.85.322 2.73 1.69 5.226 2.13 3.09.544 4.135-1.225 6.58-.794 1.91.337 1.87 1.4 3.975 1.77 1.42.25 1.99-.21 2.93-.41l.126-.72c-.81.156-1.45.514-2.762.283-1.902-.335-1.43-1.335-4.47-1.87z" color="#000" overflow="visible" opacity=".3" fill="#fff"/><path d="M21.067 15.953c-3.038-.535-3.867 1.03-6.25.61-2.383-.42-3.602-1.82-5.492-2.152-1.89-.33-3.157.39-4.29.19-.495-.083-.927-.32-1.26-.55L3.61 15a8.3 8.3 0 0 0 2.045.63c2.145.38 1.966-.394 3.812-.07 1.847.327 2.727 1.694 5.224 2.134 3.09.545 4.14-1.224 6.58-.793 1.92.34 1.88 1.4 3.98 1.77 1.42.25 1.99-.21 2.93-.41l.13-.71c-.813.156-1.453.514-2.763.28-1.903-.333-1.432-1.333-4.47-1.87z" color="#000" overflow="visible" fill="#fff"/><path d="M7.732 17.603c-.262.04-.286 1.87-.478 2.04-.186.165-2.084.03-2.12.27-.037.25 1.803.87 1.92 1.1.112.22-.573 1.884-.342 1.994.24.115 1.4-1.33 1.663-1.36.255-.03 1.73 1.128 1.91.957.184-.178-.938-1.69-.89-1.938.044-.238 1.64-1.184 1.52-1.4-.127-.226-1.98.283-2.214.16-.22-.12-.71-1.86-.96-1.823z" color="#000" overflow="visible" opacity=".15"/><path d="M6.74 18.45c.255-.085 1.08 1.63 1.336 1.71.266.085 2.086-.78 2.257-.57.165.2-1.313 1.47-1.316 1.726-.003.264 1.433 1.626 1.274 1.844-.15.21-1.89-.72-2.15-.645-.26.08-1.2 1.787-1.46 1.712-.26-.072.145-1.917-.012-2.125-.162-.215-2.175-.522-2.183-.786-.007-.255 1.98-.464 2.143-.67.165-.21-.146-2.108.12-2.196z" color="#000" overflow="visible" fill="url(#z)" transform="matrix(.93783 .16532 -.16536 .93758 4.58 -1.48)"/><path d="M7.866 16.932l-.082.054c0 .002-.003.002-.003.003-.2.31-.23 1.82-.4 1.98a.128.128 0 0 1-.03.02l.05.05c1.09.54.508-2.03.49-2.11l-.014-.007z" opacity=".5" fill="#9d0f06"/><path d="M4.866 21.273c-.242.002-.38.013-.38.013v.058c.14.257 2.015.552 2.172.76.157.207-.246 2.052.014 2.124.268.075 1.2-1.633 1.47-1.71.256-.077 1.973.84 2.145.646l-.003-.003c-1.448-1.75-4.373-1.89-5.418-1.88z" opacity=".75" fill="url(#A)" transform="matrix(.93783 .16532 -.16536 .93758 4.58 -1.48)"/><path d="M27.5 25.5h-25v-19h25z" opacity=".2" fill="none" stroke="#000" stroke-width="1.05" stroke-linecap="round" transform="matrix(.93783 .16532 -.16536 .93758 4.58 -1.48)"/><path d="M.5 4.5l29 .002V27.5H.5v-23z" fill="none" stroke="url(#B)" stroke-width="1.05" stroke-linejoin="round" transform="matrix(.93783 .16532 -.16536 .93758 4.58 -1.48)"/><g opacity=".4"><path overflow="visible" fill="url(#C)" d="M3.6 43h37.74v3H3.6z" transform="matrix(.66666 0 0 1.33333 0 -30.333)"/><path d="M3.6 43v3c-1.49.006-3.6-.672-3.6-1.5S1.662 43 3.6 43z" overflow="visible" fill="url(#D)" transform="matrix(.66666 0 0 1.33333 0 -30.333)"/><path d="M41.4 43v3c1.49.006 3.6-.672 3.6-1.5S43.338 43 41.4 43z" overflow="visible" fill="url(#E)" transform="matrix(.66666 0 0 1.33333 0 -30.333)"/></g><path d="M1 5l28 .002V27H1z" fill="url(#F)" transform="translate(1 2)"/><path d="M28.5 26.5h-27v-21h27z" fill="none" stroke="url(#G)" stroke-linecap="round" stroke-linejoin="round" transform="translate(1 2)"/><path d="M2 6v20h26V6z" color="#000" overflow="visible" fill="url(#H)" transform="translate(1 2)"/><path d="M7.827 20.414a.904.904 0 0 0-.354.04c-.48.16-.535.477-.578.63a1.71 1.71 0 0 0-.06.393 7.96 7.96 0 0 0 .01.77c.01.215.018.406.022.574-.165.04-.348.08-.558.13a8.643 8.643 0 0 0-.78.19 1.807 1.807 0 0 0-.39.16.93.93 0 0 0-.258.2.822.822 0 0 0-.21.558c.01.48.312.626.453.71.14.086.253.13.376.174.247.09.52.16.788.23.22.058.414.11.586.16-.014.16-.03.337-.05.538a7.33 7.33 0 0 0-.05.75c0 .124.003.24.042.397a.888.888 0 0 0 .62.655c.485.135.726-.087.855-.186.13-.1.21-.19.29-.287.17-.196.324-.417.477-.635.13-.18.24-.34.34-.477.16.06.334.13.53.21.25.1.5.203.747.277.123.036.24.07.41.083a.965.965 0 0 0 .333-.02.902.902 0 0 0 .52-.33c.29-.396.14-.684.08-.83a1.715 1.715 0 0 0-.2-.35c-.142-.207-.32-.413-.492-.62a30.085 30.085 0 0 1-.373-.45l.377-.406c.176-.19.355-.383.506-.58a1.7 1.7 0 0 0 .213-.344.812.812 0 0 0-.095-.872c-.31-.38-.644-.33-.81-.323a2.01 2.01 0 0 0-.415.07 9.63 9.63 0 0 0-.78.25c-.215.072-.404.14-.57.194-.09-.134-.187-.29-.297-.46a7.733 7.733 0 0 0-.43-.635 1.64 1.64 0 0 0-.278-.297.97.97 0 0 0-.56-.23zm1.256 1.7c.003 0 .025.006.03.005a.195.195 0 0 0-.04.01c-.01 0-.02-.02.01-.02zm.458.146c.04.03.04.044.03.035a2.054 2.054 0 0 1-.03-.035zm-2.37.473c.03-.014.035.004.025.008-.005.01-.034.01-.046.02.005 0 .02-.02.023-.02zm-.293.36v.038c-.002.02-.014.01 0-.03zm3.9.708c-.006-.01.01 0 .026.04l-.025-.03zm.013.46c-.018.05-.034.05-.028.04l.028-.032zm-3.883.75v.05c-.012-.042 0-.054 0-.043zm.26.4a.33.33 0 0 1 .038.016c.014.005.003.01-.036-.013zm2.45.43c.01-.01.01.008-.03.035l.03-.034zm-.505.14l.047.02c-.05-.005-.06-.02-.048-.02z" color="#000" overflow="visible" opacity=".05"/><path d="M3 8.87v11.092c.58.154 1.334.28 2.23.28 2.287 0 1.96-.766 3.93-.766 1.97 0 3.13 1.253 5.79 1.253 3.298 0 4.055-2.02 6.664-2.02 2.037 0 2.19 1.1 4.43 1.1 1.516 0 2.02-.58 2.956-.96V8.87z" color="#000" overflow="visible" opacity=".07"/><path d="M2 6v10.206c.386.178.875.34 1.403.34 1.207 0 2.388-.974 4.403-.974 2.015 0 3.53 1.224 6.07 1.224 2.542 0 3.114-1.77 6.354-1.77s2.935 1.12 4.963 1.12c1.398 0 1.994-.486 2.807-.795V6z" fill="url(#I)" transform="translate(1 2)"/><path d="M21.23 15.523c-1.702 0-2.773.48-3.65.928-.876.45-1.537.85-2.703.85-1.198 0-2.145-.285-3.087-.59-.943-.303-1.886-.633-2.984-.633-1.08 0-1.95.254-2.66.5-.71.25-1.26.473-1.743.473-.436 0-.862-.15-1.21-.31A.45.45 0 0 0 3 16.69v1.93a9.18 9.18 0 0 0 2.23.267c1.194 0 1.802-.218 2.26-.413.46-.194.744-.353 1.67-.353.89 0 1.604.284 2.482.6.878.317 1.907.65 3.31.65 1.74 0 2.873-.55 3.81-1.06.938-.51 1.664-.96 2.852-.96.937 0 1.372.24 1.95.517.577.277 1.286.59 2.48.59 1.523 0 2.19-.565 2.956-.916v-1.69a.45.45 0 0 0-.163.03c-.89.336-1.35.764-2.644.764-.93 0-1.222-.223-1.832-.516-.6-.298-1.46-.61-3.13-.61z" color="#000" overflow="visible" opacity=".1" fill="#fff"/><path d="M21.23 16.327c-3.24 0-3.812 1.77-6.353 1.77-2.54 0-4.056-1.224-6.07-1.224-2.016 0-3.197.973-4.404.973-.528 0-1.017-.162-1.403-.34v1.018c.58.154 1.334.28 2.23.28 2.287 0 1.96-.767 3.93-.767 1.97 0 3.13 1.253 5.79 1.253 3.298 0 4.055-2.02 6.664-2.02 2.037 0 2.19 1.106 4.43 1.106 1.516 0 2.02-.58 2.956-.958v-.766c-.813.31-1.41.796-2.807.796-2.028 0-1.724-1.12-4.963-1.12z" color="#000" overflow="visible" opacity=".3" fill="#fff"/><path d="M21.23 17.027c-3.24 0-3.812 1.77-6.353 1.77-2.54 0-4.056-1.225-6.07-1.225-2.016 0-3.197.973-4.404.973-.528 0-1.017-.16-1.403-.34v1.02a8.76 8.76 0 0 0 2.23.28c2.287 0 1.96-.768 3.93-.768 1.97 0 3.13 1.253 5.79 1.253 3.298 0 4.055-2.02 6.664-2.02 2.037 0 2.19 1.106 4.43 1.106 1.516 0 2.02-.58 2.956-.958v-.767c-.813.31-1.41.8-2.807.8-2.028 0-1.724-1.12-4.963-1.12z" color="#000" overflow="visible" fill="#fff"/><path d="M7.74 21.165c-.264.088.045 1.985-.123 2.197-.16.205-2.15.412-2.142.667.007.26 2.023.57 2.185.78.157.21-.248 2.05.01 2.122.27.075 1.205-1.63 1.472-1.71.26-.077 1.996.852 2.15.642.158-.22-1.278-1.58-1.275-1.843.003-.252 1.48-1.522 1.317-1.724-.17-.21-1.993.653-2.26.57-.256-.08-1.078-1.796-1.334-1.71z" color="#000" overflow="visible" opacity=".15"/><path d="M6.74 18.45c.255-.085 1.08 1.63 1.336 1.71.266.085 2.086-.78 2.257-.57.165.2-1.313 1.47-1.316 1.726-.003.264 1.433 1.626 1.274 1.844-.15.21-1.89-.72-2.15-.645-.26.08-1.2 1.787-1.46 1.712-.26-.072.145-1.917-.012-2.125-.162-.215-2.175-.522-2.183-.786-.007-.255 1.98-.464 2.143-.67.165-.21-.146-2.108.12-2.196z" color="#000" overflow="visible" fill="url(#J)" transform="translate(1 2)"/><path d="M7.757 20.447l-.075.07c0 .002-.003.003-.003.004-.15.36.09 1.94-.07 2.13a.135.135 0 0 1-.03.03l.06.04c1.228.366.155-2.19.124-2.26-.006 0-.01-.004-.017-.003z" opacity=".5" fill="#9d0f06"/><path d="M4.866 21.273c-.242.002-.38.013-.38.013v.058c.14.257 2.015.552 2.172.76.157.207-.246 2.052.014 2.124.268.075 1.2-1.633 1.47-1.71.256-.077 1.973.84 2.145.646l-.003-.003c-1.448-1.75-4.373-1.89-5.418-1.88z" opacity=".75" fill="url(#K)" transform="translate(1 2)"/><path d="M28.5 27.5h-25v-19h25z" opacity=".2" fill="none" stroke="#000" stroke-linecap="round"/><path d="M.5 4.5l29 .002V27.5H.5v-23z" fill="none" stroke="url(#L)" stroke-linejoin="round" transform="translate(1 2)"/><path d="M8 1C4.138 1 1 4.138 1 8s3.138 7 7 7 7-3.138 7-7-3.138-7-7-7z" color="#000" overflow="visible" fill="url(#M)" transform="translate(16 16)"/><path d="M14.5 8a6.5 6.5 0 1 1-13 0 6.5 6.5 0 0 1 13 0z" color="#000" overflow="visible" opacity=".8" fill="none" stroke="url(#N)" stroke-linecap="round" stroke-linejoin="round" transform="translate(16 16)"/><path d="M24 16.5a7.505 7.505 0 0 0-7.5 7.5c0 4.138 3.362 7.5 7.5 7.5s7.5-3.362 7.5-7.5-3.362-7.5-7.5-7.5z" color="#000" overflow="visible" opacity=".7" fill="none" stroke="#636363"/><path d="M29.5 24a5.5 5.5 0 0 1-11 0 5.5 5.5 0 1 1 11 0z" color="#000" overflow="visible" opacity=".3" fill="none" stroke="#000"/><path d="M13 8A5 5 0 0 1 3 8a5 5 0 1 1 10 0z" color="#000" overflow="visible" opacity=".3" fill="none" stroke="url(#O)" transform="translate(16 16)"/><path d="M13 8A5 5 0 0 1 3 8a5 5 0 1 1 10 0z" color="#000" overflow="visible" fill="url(#P)" transform="translate(16 16)"/><path d="M12.5 8a4.5 4.5 0 0 1-9 0 4.5 4.5 0 1 1 9 0z" color="#000" overflow="visible" fill="url(#Q)" transform="translate(16 16)"/><path d="M8 5.49A2.512 2.512 0 0 0 5.49 8 2.512 2.512 0 0 0 8 10.51 2.512 2.512 0 0 0 10.51 8 2.512 2.512 0 0 0 8 5.49z" fill="url(#R)" transform="translate(16 16)"/><path d="M24 21.5a2.5 2.5 0 0 0-2.5 2.5 2.5 2.5 0 0 0 2.5 2.5 2.5 2.5 0 0 0 2.5-2.5 2.5 2.5 0 0 0-2.5-2.5z" opacity=".3" fill="none" stroke="#000" stroke-width="1.004" stroke-linecap="round" stroke-linejoin="round"/><path d="M24 22.022A1.98 1.98 0 0 0 22.02 24 1.98 1.98 0 0 0 24 25.98 1.98 1.98 0 0 0 25.978 24 1.98 1.98 0 0 0 24 22.022z" fill="#2f3b55"/><path d="M8 6.573a1.428 1.428 0 0 0 0 2.854 1.428 1.428 0 0 0 0-2.854z" fill="url(#S)" stroke="url(#T)" stroke-width="1.004" stroke-linecap="round" stroke-linejoin="round" transform="translate(16 16)"/><path d="M8 6.966a1.035 1.035 0 1 0 0 2.07 1.035 1.035 0 0 0 0-2.07z" opacity=".5" fill="url(#U)" transform="translate(16 16)"/><path d="M11 8a3 3 0 1 0-6 0 3 3 0 0 0 6 0z" color="#000" overflow="visible" opacity=".3" fill="none" stroke="url(#V)" transform="translate(16 16)"/><path d="M24 22.19a1.81 1.81 0 0 0 0 3.62 1.81 1.81 0 0 0 0-3.62z" opacity=".3" fill="none" stroke="#000" stroke-width="1.004" stroke-linecap="round" stroke-linejoin="round"/><path d="M6.17 7.645A1.863 1.863 0 0 1 7.52 6.2L8 8z" color="#000" overflow="visible" opacity=".4" fill="url(#W)" transform="translate(16 16)"/><path d="M9.293 8a1.293 1.293 0 0 1-2.586 0 1.293 1.293 0 1 1 2.586 0z" color="#000" overflow="visible" opacity=".3" fill="none" stroke="url(#X)" transform="translate(16 16)"/><path d="M8.44 7.67a.44.33 0 0 1-.88 0 .44.33 0 1 1 .88 0z" color="#000" overflow="visible" opacity=".5" fill="url(#Y)" transform="translate(16 16)"/><path d="M9.862 8a1.863 1.863 0 0 1-.117.652L8 8z" color="#000" overflow="visible" opacity=".4" fill="url(#Z)" transform="translate(16 16)"/><path d="M8.167 9.855a1.863 1.863 0 0 1-.595-.042L8 8z" color="#000" overflow="visible" opacity=".4" fill="url(#aa)" transform="translate(16 16)"/><path d="M9.582 8.983a1.863 1.863 0 0 1-.87.738L8 8z" color="#000" overflow="visible" opacity=".4" fill="url(#ab)" transform="translate(16 16)"/><path d="M6.683 6.218a1.863 1.863 0 0 1 2.634 0L8 7.535z" color="#000" overflow="visible" opacity=".5" fill="url(#ac)" transform="translate(16 16)"/><path d="M10.94 8.573a1.145 2.012 60 1 1-3.485 2.013 1.145 2.012 60 0 1 3.485-2.013z" color="#000" overflow="visible" opacity=".2" fill="url(#ad)" transform="translate(16 16)"/><path d="M7.86 5.473a.92 1.62 60 0 1-2.804 1.62.92 1.62 60 0 1 2.805-1.62z" color="#000" overflow="visible" opacity=".4" fill="url(#ae)" transform="translate(16 16)"/><path d="M8.256 7.79a.4.418 0 1 1-.8 0 .4.418 0 1 1 .8 0z" color="#000" overflow="visible" opacity=".8" fill="url(#af)" transform="translate(16 16)"/></svg>