<?xml version="1.0" encoding="UTF-8" standalone="no"?>
<svg
   id="svg6860"
   height="32"
   width="32"
   version="1.1"
   xmlns:xlink="http://www.w3.org/1999/xlink"
   xmlns="http://www.w3.org/2000/svg"
   xmlns:svg="http://www.w3.org/2000/svg"
   xmlns:rdf="http://www.w3.org/1999/02/22-rdf-syntax-ns#"
   xmlns:cc="http://creativecommons.org/ns#"
   xmlns:dc="http://purl.org/dc/elements/1.1/">
  <defs
     id="defs6862">
    <linearGradient
       id="linearGradient857">
      <stop
         id="stop853"
         offset="0"
         style="stop-color:#ffa154;stop-opacity:1" />
      <stop
         id="stop855"
         offset="1"
         style="stop-color:#f37329;stop-opacity:1" />
    </linearGradient>
    <linearGradient
       xlink:href="#linearGradient4806-6-2"
       id="linearGradient3293-3-6"
       gradientUnits="userSpaceOnUse"
       gradientTransform="matrix(2.3268746,0,0,2.3268746,-135.94475,-32.842783)"
       x1="61.237995"
       y1="15.479465"
       x2="61.237995"
       y2="19.661413" />
    <linearGradient
       id="linearGradient4806-6-2">
      <stop
         id="stop4808-7-9"
         style="stop-color:#ffffff;stop-opacity:1"
         offset="0" />
      <stop
         id="stop4810-5-1"
         style="stop-color:#ffffff;stop-opacity:0.23529412"
         offset="0.10363879" />
      <stop
         id="stop4812-3-2"
         style="stop-color:#ffffff;stop-opacity:0.15686275"
         offset="0.89999992" />
      <stop
         id="stop4814-5-7"
         style="stop-color:#ffffff;stop-opacity:0.39215687"
         offset="1" />
    </linearGradient>
    <linearGradient
       gradientTransform="matrix(1.6945834,0,0,1.2599085,-3482.4487,-4056.9272)"
       gradientUnits="userSpaceOnUse"
       xlink:href="#linearGradient857"
       id="linearGradient11527-6-5-3-6"
       y2="3244.8506"
       x2="2065.6956"
       y1="3220.5276"
       x1="2065.6956" />
  </defs>
  <metadata
     id="metadata6865">
    <rdf:RDF>
      <cc:Work
         rdf:about="">
        <dc:format>image/svg+xml</dc:format>
        <dc:type
           rdf:resource="http://purl.org/dc/dcmitype/StillImage" />
      </cc:Work>
    </rdf:RDF>
  </metadata>
  <path
     style="opacity:0.98999999;vector-effect:none;fill:url(#linearGradient11527-6-5-3-6);fill-opacity:1;stroke:none;stroke-width:0.99999994;stroke-linecap:butt;stroke-linejoin:miter;stroke-miterlimit:4;stroke-dasharray:none;stroke-dashoffset:0;stroke-opacity:1;marker:none;paint-order:normal"
     d="M 16,0.4999254 11.848746,5.945582 5.0409919,5.0160199 5.9756859,11.786396 0.49996692,15.914858 5.9756859,20.043319 5.0409919,26.813696 11.848746,25.884134 16,31.329791 l 4.151255,-5.445657 6.807752,0.929562 -0.934695,-6.770377 5.47572,-4.128461 -5.47572,-4.128462 0.934695,-6.7703761 -6.807752,0.9295621 z"
     id="path888" />
  <path
     style="opacity:0.5;vector-effect:none;fill:none;fill-opacity:1;stroke:#a62100;stroke-width:0.99999994;stroke-linecap:round;stroke-linejoin:round;stroke-miterlimit:4;stroke-dasharray:none;stroke-dashoffset:0;stroke-opacity:1;marker:none;paint-order:normal"
     d="M 16,0.4999254 11.848746,5.945582 5.0409919,5.0160199 5.9756859,11.786396 0.49996692,15.914858 5.9756859,20.043319 5.0409919,26.813696 11.848746,25.884134 16,31.329791 l 4.151255,-5.445657 6.807752,0.929562 -0.934695,-6.770377 5.47572,-4.128461 -5.47572,-4.128462 0.934695,-6.7703761 -6.807752,0.9295621 z"
     id="path841-6" />
  <path
     style="opacity:0.3;vector-effect:none;fill:none;fill-opacity:1;stroke:url(#linearGradient3293-3-6);stroke-width:0.4852058;stroke-linecap:round;stroke-linejoin:miter;stroke-miterlimit:4;stroke-dasharray:none;stroke-dashoffset:0;stroke-opacity:1;marker:none;paint-order:normal"
     id="path841-5-0"
     d="M 8,1.2988281 6.3769531,3.4414062 a 0.48324625,0.48324625 0 0 1 -0.4511719,0.1875 L 3.2617188,3.2617188 3.6289062,5.9257812 a 0.48324625,0.48324625 0 0 1 -0.1875,0.4511719 L 1.2988281,8 3.4414062,9.6230469 a 0.48324625,0.48324625 0 0 1 0.1875,0.4511721 l -0.3671874,2.664062 2.6640624,-0.367187 a 0.48324625,0.48324625 0 0 1 0.4511719,0.1875 L 8,14.701172 9.6230469,12.558594 a 0.48324625,0.48324625 0 0 1 0.4511721,-0.1875 l 2.664062,0.367187 -0.367187,-2.664062 a 0.48324625,0.48324625 0 0 1 0.1875,-0.4511721 L 14.701172,8 12.558594,6.3769531 a 0.48324625,0.48324625 0 0 1 -0.1875,-0.4511719 l 0.367187,-2.6640624 -2.664062,0.3671874 a 0.48324625,0.48324625 0 0 1 -0.4511721,-0.1875 z"
     transform="matrix(2.0666621,0,0,2.0553153,-0.53329808,-0.5276648)" />
  <path
     style="opacity:0.05;vector-effect:none;fill:#a62100;fill-opacity:1;stroke:none;stroke-width:1px;stroke-linecap:butt;stroke-linejoin:miter;stroke-miterlimit:4;stroke-dasharray:none;stroke-dashoffset:0;stroke-opacity:1;marker:none;paint-order:normal"
     id="path818-7-62-9"
     d="m 16,9.0058594 c -0.55329,0 -1.104913,0.222801 -1.511719,0.640625 a 0.99952523,-0.99952523 0 0 0 -0.04297,0.046875 l -4.236328,4.9433596 a 0.99952523,-0.99952523 0 0 0 -0.01953,0.02344 c -0.5301556,0.659629 -0.4967795,1.501122 -0.2070311,2.125 0.2897481,0.623879 0.9075561,1.187862 1.7519531,1.212891 a 0.99952523,-0.99952523 0 0 0 0.0293,0.002 H 13 v 4.945312 a 0.99952523,-0.99952523 0 0 0 0,0.0098 c 0.0056,0.57588 0.250113,1.033211 0.583984,1.390625 C 13.917855,24.703118 14.385353,25 15,25 h 2 a 0.99952523,-0.99952523 0 0 0 0.03711,-0.002 c 1.089772,-0.04096 1.922298,-0.99611 1.960938,-2.015625 A 0.99952523,-0.99952523 0 0 0 19,22.945312 V 18 h 1.236328 a 0.99952523,-0.99952523 0 0 0 0.0293,-0.002 c 0.844391,-0.02504 1.462205,-0.589012 1.751953,-1.212891 0.289748,-0.623878 0.323122,-1.465373 -0.207031,-2.125 a 0.99952523,-0.99952523 0 0 0 -0.01953,-0.02344 L 17.554688,9.6933594 a 0.99952523,-0.99952523 0 0 0 -0.04297,-0.04687 C 17.104927,9.2286964 16.55329,9.0058594 16,9.0058594 Z" />
  <path
     style="opacity:0.15;vector-effect:none;fill:#a62100;fill-opacity:1;stroke:none;stroke-width:1px;stroke-linecap:butt;stroke-linejoin:miter;stroke-miterlimit:4;stroke-dasharray:none;stroke-dashoffset:0;stroke-opacity:1;marker:none;paint-order:normal"
     d="m 16.000002,10.006434 c 0.288694,0 0.577384,0.114321 0.794752,0.337565 l 4.23603,4.943492 C 21.520351,15.896619 21.018074,16.976812 20.236034,17 H 18 v 5.946149 C 17.97829,23.518971 17.575986,23.978352 17,24 h -2 c -0.498983,0 -0.995103,-0.546097 -1,-1.053851 V 17 H 11.763966 C 10.98193,16.97682 10.479647,15.896619 10.969214,15.287491 l 4.236038,-4.943492 c 0.217357,-0.223244 0.506059,-0.337565 0.79475,-0.337565 z"
     id="path818-7-62" />
  <path
     style="opacity:0.99;vector-effect:none;fill:#fafafa;fill-opacity:1;stroke:none;stroke-width:1;stroke-linecap:butt;stroke-linejoin:miter;stroke-miterlimit:4;stroke-dasharray:none;stroke-dashoffset:0;stroke-opacity:1;marker:none;paint-order:normal"
     d="m 16.000002,9.0064341 c 0.288694,0 0.577384,0.114321 0.794752,0.337565 l 4.23603,4.9434919 C 21.520351,14.896619 21.018074,15.976812 20.236034,16 H 18 v 5.946149 C 17.97829,22.518971 17.575986,22.978352 17,23 h -2 c -0.498983,0 -0.995103,-0.546097 -1,-1.053851 V 16 H 11.763966 C 10.98193,15.97682 10.479647,14.896619 10.969214,14.287491 l 4.236038,-4.9434919 c 0.217357,-0.223244 0.506059,-0.337565 0.79475,-0.337565 z"
     id="path818-7" />
</svg>
