<svg xmlns="http://www.w3.org/2000/svg" xmlns:xlink="http://www.w3.org/1999/xlink" viewBox="0 0 32 32"><defs><linearGradient x1="20" y1="26" x2="20" y2="13" id="l" xlink:href="#a" gradientUnits="userSpaceOnUse" gradientTransform="translate(-.448 -.623) scale(.66257)"/><linearGradient id="a"><stop offset="0" stop-color="#dcdcdc"/><stop offset="1" stop-color="#fff"/></linearGradient><linearGradient x1="24" y1="5" x2="24" y2="43" id="k" xlink:href="#b" gradientUnits="userSpaceOnUse" gradientTransform="translate(-.216 -.216) scale(.67568)"/><linearGradient id="b"><stop offset="0" stop-color="#fff"/><stop offset=".063" stop-color="#fff" stop-opacity=".235"/><stop offset=".951" stop-color="#fff" stop-opacity=".157"/><stop offset="1" stop-color="#fff" stop-opacity=".392"/></linearGradient><radialGradient cx="7.118" cy="9.957" r="12.672" fx="7.118" fy="9.957" id="j" xlink:href="#c" gradientUnits="userSpaceOnUse" gradientTransform="matrix(0 6.32786 -7.7686 0 93.928 -55.23)"/><linearGradient id="c"><stop offset="0" stop-color="#505050"/><stop offset=".262" stop-color="#2b2b2b"/><stop offset=".705" stop-color="#0a0a0a"/><stop offset="1"/></linearGradient><radialGradient cx="4.993" cy="43.5" r="2.5" fx="4.993" fy="43.5" id="g" xlink:href="#d" gradientUnits="userSpaceOnUse" gradientTransform="matrix(2.00378 0 0 1.4 27.988 -17.4)"/><linearGradient id="d"><stop offset="0" stop-color="#181818"/><stop offset="1" stop-color="#181818" stop-opacity="0"/></linearGradient><radialGradient cx="4.993" cy="43.5" r="2.5" fx="4.993" fy="43.5" id="h" xlink:href="#e" gradientUnits="userSpaceOnUse" gradientTransform="matrix(2.00378 0 0 1.4 -20.012 -104.4)"/><linearGradient id="e"><stop offset="0" stop-color="#181818"/><stop offset="1" stop-color="#181818" stop-opacity="0"/></linearGradient><linearGradient x1="25.058" y1="47.028" x2="25.058" y2="39.999" id="i" xlink:href="#f" gradientUnits="userSpaceOnUse"/><linearGradient id="f"><stop offset="0" stop-color="#181818" stop-opacity="0"/><stop offset=".5" stop-color="#181818"/><stop offset="1" stop-color="#181818" stop-opacity="0"/></linearGradient></defs><g opacity=".4"><path fill="url(#g)" d="M38 40h5v7h-5z" transform="matrix(.73684 0 0 .42857 -1.684 10.857)"/><path transform="matrix(-.73684 0 0 -.42857 -1.684 10.857)" fill="url(#h)" d="M-10-47h5v7h-5z"/><path fill="url(#i)" d="M10 40h28v7H10z" transform="matrix(.73684 0 0 .42857 -1.684 10.857)"/></g><rect y="2.5" x="2.5" ry="2.16" rx="2.16" height="27" width="27" color="#000" overflow="visible" opacity=".9" fill="url(#j)"/><rect y="3.5" x="3.5" ry="1.087" rx="1.087" height="25" width="25" opacity=".3" fill="none" stroke="url(#k)" stroke-linecap="round" stroke-linejoin="round"/><rect y="2.5" x="2.5" ry="2.16" rx="2.16" height="27" width="27" color="#000" overflow="visible" opacity=".7" fill="none" stroke="#000" stroke-linecap="round" stroke-linejoin="round"/><path style="line-height:125%;-inkscape-font-specification:'Open Sans Bold'" d="M7.813 7.03A.984.984 0 0 0 7.03 8v.406c-.325.13-.693.153-.968.375-.008.01.008.03 0 .04-.004.005-.026-.002-.03 0-1.05.847-1.095 2.33-.345 3.31a.984.984 0 0 0 .032.03c.13.17.31.186.46.317a.984.984 0 0 0-.97.968v1.16a.984.984 0 0 0 .594.906c.395.17.812.17 1.22.25V16a.984.984 0 0 0 .97.97h1a.984.984 0 0 0 .97-.97v-.313c.17-.065.374-.074.53-.156.01 0 .016-.02.03-.03.8-.41 1.4-1.19 1.374-2.18v-.03a2.2 2.2 0 0 0-.406-1.312.984.984 0 0 0-.03-.032c-.21-.273-.45-.416-.69-.592a.984.984 0 0 0 .47-.47l.47-1.06a.984.984 0 0 0-.535-1.313c-.384-.164-.81-.19-1.218-.28V8A.984.984 0 0 0 9 7.03H8a.984.984 0 0 0-.188 0zm.593 3.282c-.027-.012.03.034.094.126.054.077.058.132.063.156-.004.033-.024.218-.188.375-.175.16-.29.16-.25.15l-.03-.16.31-.658zm.47 2.594V13l-.282.625a.628.628 0 0 1-.094-.22.71.71 0 0 1 .188-.374c.145-.13.232-.13.187-.12zm2.937 2.125a.984.984 0 0 0-.782.97v1a.984.984 0 0 0 .97.97h5a.984.984 0 0 0 .97-.97v-1a.984.984 0 0 0-.97-.97h-5a.984.984 0 0 0-.18 0z" color="#000" font-weight="700" font-size="14.312" font-family="Open Sans" letter-spacing="0" word-spacing="0" overflow="visible" opacity=".15"/><path style="line-height:125%;-inkscape-font-specification:'Open Sans Bold'" d="M8 8v1c-.544.052-.92.212-1.344.563-.606.468-.633 1.385-.187 1.968.43.53.9.77 1.53 1v1.41c-.7-.05-1.18-.21-1.82-.5v1.16c.632.27 1.122.397 1.81.41v1h1v-1c.42-.037.69-.144 1.063-.343.517-.254.897-.78.873-1.344a1.347 1.347 0 0 0-.25-.78c-.433-.58-1.034-.8-1.687-1.063V10.1c.517.042.862.184 1.343.375l.47-1.063C10.19 9.145 9.66 9 8.993 8.97V8H8zm0 2.156v1.063c-.264-.12-.418-.3-.406-.63-.013-.318.14-.41.406-.44zm1 2.625c.262.13.463.27.47.6.014.34-.174.46-.47.5v-1.1zM12 16v1h5v-1h-5z" color="#000" font-weight="700" font-size="14.312" font-family="Open Sans" letter-spacing="0" word-spacing="0" overflow="visible" opacity=".3"/><path style="line-height:125%;-inkscape-font-specification:'Open Sans Bold'" d="M8 7v1c-.544.052-.92.212-1.344.563-.606.468-.633 1.385-.187 1.968.43.53.9.77 1.53 1v1.41c-.7-.05-1.18-.21-1.82-.5v1.16c.632.27 1.122.397 1.81.41v1h1v-1c.42-.037.69-.144 1.063-.343.517-.254.897-.78.873-1.344a1.347 1.347 0 0 0-.25-.78c-.433-.58-1.034-.8-1.687-1.063V9.1c.517.042.862.184 1.343.375l.47-1.065c-.616-.263-1.146-.41-1.815-.437V7H8zm0 2.156v1.063c-.264-.12-.418-.3-.406-.63-.013-.318.14-.41.406-.44zm1 2.625c.262.13.463.27.47.6.014.34-.174.46-.47.5v-1.1zM12 15v1h5v-1h-5z" color="#000" font-weight="700" font-size="14.312" font-family="Open Sans" letter-spacing="0" word-spacing="0" overflow="visible" fill="url(#l)"/></svg>