<?xml version="1.0" encoding="UTF-8" standalone="no"?>
<!-- Created with Inkscape (http://www.inkscape.org/) -->

<svg
   xmlns:dc="http://purl.org/dc/elements/1.1/"
   xmlns:cc="http://creativecommons.org/ns#"
   xmlns:rdf="http://www.w3.org/1999/02/22-rdf-syntax-ns#"
   xmlns:svg="http://www.w3.org/2000/svg"
   xmlns="http://www.w3.org/2000/svg"
   xmlns:xlink="http://www.w3.org/1999/xlink"
   xmlns:sodipodi="http://sodipodi.sourceforge.net/DTD/sodipodi-0.dtd"
   xmlns:inkscape="http://www.inkscape.org/namespaces/inkscape"
   width="128"
   height="128"
   id="svg3373"
   version="1.1"
   inkscape:version="0.47 r22583"
   sodipodi:docname="folder-publicshare.svg">
  <defs
     id="defs3375">
    <linearGradient
       inkscape:collect="always"
       xlink:href="#linearGradient3341-1"
       id="linearGradient3255"
       gradientUnits="userSpaceOnUse"
       gradientTransform="matrix(1.4686816,0,0,1.6310829,44.939565,44.550264)"
       x1="29.999992"
       y1="5.7028165"
       x2="29.999992"
       y2="27.956825" />
    <linearGradient
       id="linearGradient3341-1">
      <stop
         offset="0"
         style="stop-color:#ffffff;stop-opacity:1"
         id="stop3343-01" />
      <stop
         offset="1"
         style="stop-color:#ffffff;stop-opacity:0"
         id="stop3345-37" />
    </linearGradient>
    <radialGradient
       inkscape:collect="always"
       xlink:href="#linearGradient5060"
       id="radialGradient3027"
       gradientUnits="userSpaceOnUse"
       gradientTransform="matrix(3.5390736,-1.2733948e-6,4.9354815e-7,0.83069486,-17.172232,8.24621)"
       cx="30"
       cy="33.1875"
       fx="30"
       fy="33.1875"
       r="4.6875" />
    <linearGradient
       id="linearGradient5060">
      <stop
         offset="0"
         style="stop-color:#000000;stop-opacity:1"
         id="stop5062" />
      <stop
         offset="1"
         style="stop-color:#000000;stop-opacity:0"
         id="stop5064" />
    </linearGradient>
    <linearGradient
       inkscape:collect="always"
       xlink:href="#linearGradient5060"
       id="linearGradient3030"
       gradientUnits="userSpaceOnUse"
       gradientTransform="matrix(2.0357125,0,0,1.7632799,25.892925,-17.647783)"
       x1="38"
       y1="39"
       x2="43"
       y2="38.599998" />
    <linearGradient
       inkscape:collect="always"
       xlink:href="#linearGradient5060"
       id="linearGradient3033"
       gradientUnits="userSpaceOnUse"
       gradientTransform="matrix(2.0357125,0,0,1.7632799,29.964349,-17.647783)"
       x1="22"
       y1="39"
       x2="17"
       y2="37.4375" />
    <radialGradient
       inkscape:collect="always"
       xlink:href="#linearGradient6954"
       id="radialGradient3036"
       gradientUnits="userSpaceOnUse"
       gradientTransform="matrix(2.7336322,-0.23070537,0.21352492,2.7578424,8.3387072,-30.166807)"
       cx="26.375898"
       cy="12.31301"
       fx="26.375898"
       fy="12.31301"
       r="8" />
    <linearGradient
       id="linearGradient6954">
      <stop
         offset="0"
         style="stop-color:#f5f5f5;stop-opacity:1"
         id="stop6960" />
      <stop
         offset="1"
         style="stop-color:#d2d2d2;stop-opacity:1"
         id="stop6962" />
    </linearGradient>
    <linearGradient
       inkscape:collect="always"
       xlink:href="#linearGradient3341-9"
       id="linearGradient3157"
       gradientUnits="userSpaceOnUse"
       gradientTransform="matrix(1.7783292,0,0,1.8434406,42.985775,-30.209167)"
       x1="24.348665"
       y1="57.333424"
       x2="24.348665"
       y2="83.733253" />
    <linearGradient
       id="linearGradient3341-9">
      <stop
         offset="0"
         style="stop-color:#ffffff;stop-opacity:1"
         id="stop3343-0" />
      <stop
         offset="1"
         style="stop-color:#ffffff;stop-opacity:0"
         id="stop3345-3" />
    </linearGradient>
    <radialGradient
       inkscape:collect="always"
       xlink:href="#linearGradient6954"
       id="radialGradient3042"
       gradientUnits="userSpaceOnUse"
       gradientTransform="matrix(2.413307,0,0,0.71485147,19.473773,15.158232)"
       cx="24.999998"
       cy="28.659998"
       fx="24.999998"
       fy="28.659998"
       r="16" />
    <radialGradient
       inkscape:collect="always"
       xlink:href="#linearGradient5060"
       id="radialGradient3045"
       gradientUnits="userSpaceOnUse"
       gradientTransform="matrix(1.5278161,0,0,0.44561311,40.109879,36.923955)"
       cx="32"
       cy="41.5"
       fx="32"
       fy="41.5"
       r="21" />
    <linearGradient
       inkscape:collect="always"
       xlink:href="#linearGradient8265-821-176-38-919-66-249"
       id="linearGradient2432"
       gradientUnits="userSpaceOnUse"
       gradientTransform="matrix(2.6482074,0,0,2.640269,0.43155844,-62.206239)"
       x1="11.566265"
       y1="22.292103"
       x2="15.214532"
       y2="33.95525" />
    <linearGradient
       id="linearGradient8265-821-176-38-919-66-249">
      <stop
         id="stop2687"
         style="stop-color:#ffffff;stop-opacity:0.2"
         offset="0" />
      <stop
         id="stop2689"
         style="stop-color:#ffffff;stop-opacity:0"
         offset="1" />
    </linearGradient>
    <radialGradient
       inkscape:collect="always"
       xlink:href="#linearGradient6087-437-184-795-110-662-495"
       id="radialGradient2435"
       gradientUnits="userSpaceOnUse"
       gradientTransform="matrix(0,1.1019148,-1.5096234,0,53.85015,-54.743061)"
       cx="32.264069"
       cy="14.298984"
       fx="32.264069"
       fy="14.298984"
       r="61" />
    <linearGradient
       id="linearGradient6087-437-184-795-110-662-495">
      <stop
         id="stop2693"
         style="stop-color:#ffffff;stop-opacity:0.40000001"
         offset="0" />
      <stop
         id="stop2695"
         style="stop-color:#ffffff;stop-opacity:0"
         offset="1" />
    </linearGradient>
    <linearGradient
       inkscape:collect="always"
       xlink:href="#linearGradient6129-963-697-142-998-580-273"
       id="linearGradient2438"
       gradientUnits="userSpaceOnUse"
       gradientTransform="matrix(3.036796,0,0,2.6219687,-8.883109,-59.329533)"
       x1="22.934725"
       y1="49.629246"
       x2="22.934725"
       y2="36.599415" />
    <linearGradient
       id="linearGradient6129-963-697-142-998-580-273">
      <stop
         id="stop2661"
         style="stop-color:#0a0a0a;stop-opacity:0.498"
         offset="0" />
      <stop
         id="stop2663"
         style="stop-color:#0a0a0a;stop-opacity:0"
         offset="1" />
    </linearGradient>
    <radialGradient
       inkscape:collect="always"
       xlink:href="#linearGradient7012-661-145-733-759-865-745"
       id="radialGradient2441"
       gradientUnits="userSpaceOnUse"
       gradientTransform="matrix(4.1712212,-2.5183476e-7,1.6467508e-7,2.688962,-229.83186,-41.185231)"
       cx="63.969177"
       cy="14.113381"
       fx="63.969177"
       fy="14.113381"
       r="23.097054" />
    <linearGradient
       id="linearGradient7012-661-145-733-759-865-745">
      <stop
         id="stop2699"
         style="stop-color:#9cbbd9;stop-opacity:1"
         offset="0" />
      <stop
         id="stop2701"
         style="stop-color:#5c82ab;stop-opacity:1"
         offset="1" />
    </linearGradient>
    <linearGradient
       inkscape:collect="always"
       xlink:href="#linearGradient3390"
       id="linearGradient2443"
       gradientUnits="userSpaceOnUse"
       gradientTransform="matrix(2.6658408,0,0,2.6469079,-143.33284,-63.049513)"
       x1="82.453476"
       y1="45.114193"
       x2="82.453476"
       y2="7.6327758" />
    <linearGradient
       id="linearGradient3390">
      <stop
         id="stop3392"
         style="stop-color:#425e7b;stop-opacity:1"
         offset="0" />
      <stop
         id="stop3394"
         style="stop-color:#7a91a7;stop-opacity:1"
         offset="1" />
    </linearGradient>
    <linearGradient
       inkscape:collect="always"
       xlink:href="#linearGradient6404"
       id="linearGradient2446"
       gradientUnits="userSpaceOnUse"
       gradientTransform="matrix(2.7209303,0,0,2.6722576,-139.90895,-63.213879)"
       x1="62.988873"
       y1="12.724592"
       x2="62.988873"
       y2="17.324797" />
    <linearGradient
       id="linearGradient6404">
      <stop
         id="stop6406"
         style="stop-color:#f9f9f9;stop-opacity:1"
         offset="0" />
      <stop
         id="stop6408"
         style="stop-color:#c9c9c9;stop-opacity:1"
         offset="1" />
    </linearGradient>
    <radialGradient
       inkscape:collect="always"
       xlink:href="#linearGradient3484"
       id="radialGradient2448"
       gradientUnits="userSpaceOnUse"
       gradientTransform="matrix(0,4.5810288,-7.2733208,0,40.564727,-55.579236)"
       cx="3"
       cy="5.01718"
       fx="3"
       fy="5.01718"
       r="21" />
    <linearGradient
       id="linearGradient3484">
      <stop
         id="stop3486"
         style="stop-color:#bdbdbd;stop-opacity:1"
         offset="0" />
      <stop
         id="stop3488"
         style="stop-color:#d0d0d0;stop-opacity:1"
         offset="1" />
    </linearGradient>
    <linearGradient
       x1="302.85715"
       y1="366.64789"
       x2="302.85715"
       y2="609.50507"
       id="linearGradient2484"
       xlink:href="#linearGradient5048-585"
       gradientUnits="userSpaceOnUse"
       gradientTransform="matrix(0.2134205,0,0,0.06641689,-13.147881,75.518568)" />
    <linearGradient
       id="linearGradient5048-585">
      <stop
         id="stop2667"
         style="stop-color:#000000;stop-opacity:0"
         offset="0" />
      <stop
         id="stop2669"
         style="stop-color:#000000;stop-opacity:1"
         offset="0.5" />
      <stop
         id="stop2671"
         style="stop-color:#000000;stop-opacity:0"
         offset="1" />
    </linearGradient>
    <radialGradient
       cx="605.71429"
       cy="486.64789"
       r="117.14286"
       fx="605.71429"
       fy="486.64789"
       id="radialGradient2486"
       xlink:href="#linearGradient5060-179"
       gradientUnits="userSpaceOnUse"
       gradientTransform="matrix(0.08277507,0,0,0.06641689,65.628912,75.518568)" />
    <linearGradient
       id="linearGradient5060-179">
      <stop
         id="stop2675"
         style="stop-color:#000000;stop-opacity:1"
         offset="0" />
      <stop
         id="stop2677"
         style="stop-color:#000000;stop-opacity:0"
         offset="1" />
    </linearGradient>
    <linearGradient
       id="linearGradient5060-820">
      <stop
         id="stop2681"
         style="stop-color:#000000;stop-opacity:1"
         offset="0" />
      <stop
         id="stop2683"
         style="stop-color:#000000;stop-opacity:0"
         offset="1" />
    </linearGradient>
    <radialGradient
       r="117.14286"
       fy="486.64789"
       fx="605.71429"
       cy="486.64789"
       cx="605.71429"
       gradientTransform="matrix(-0.08277505,0,0,0.06641689,62.347829,75.518568)"
       gradientUnits="userSpaceOnUse"
       id="radialGradient3371"
       xlink:href="#linearGradient5060-820"
       inkscape:collect="always" />
  </defs>
  <sodipodi:namedview
     id="base"
     pagecolor="#ffffff"
     bordercolor="#666666"
     borderopacity="1.0"
     inkscape:pageopacity="0.0"
     inkscape:pageshadow="2"
     inkscape:zoom="5.5"
     inkscape:cx="32"
     inkscape:cy="32"
     inkscape:current-layer="layer1"
     showgrid="true"
     inkscape:document-units="px"
     inkscape:grid-bbox="true"
     inkscape:window-width="603"
     inkscape:window-height="478"
     inkscape:window-x="417"
     inkscape:window-y="165"
     inkscape:window-maximized="0" />
  <metadata
     id="metadata3378">
    <rdf:RDF>
      <cc:Work
         rdf:about="">
        <dc:format>image/svg+xml</dc:format>
        <dc:type
           rdf:resource="http://purl.org/dc/dcmitype/StillImage" />
        <dc:title></dc:title>
      </cc:Work>
    </rdf:RDF>
  </metadata>
  <g
     id="layer1"
     inkscape:label="Layer 1"
     inkscape:groupmode="layer"
     transform="translate(0,64)">
    <g
       id="g2479"
       transform="matrix(1.0027339,0,0,0.9919518,-0.16331036,-54.066408)">
      <rect
         style="opacity:0.3;fill:url(#linearGradient2484);fill-opacity:1;fill-rule:nonzero;stroke:none;stroke-width:1;marker:none;visibility:visible;display:inline;overflow:visible"
         id="rect4173"
         y="99.870178"
         x="12.462574"
         height="16.129816"
         width="103.05159" />
      <path
         style="opacity:0.3;fill:url(#radialGradient2486);fill-opacity:1;fill-rule:nonzero;stroke:none;stroke-width:1;marker:none;visibility:visible;display:inline;overflow:visible"
         id="path5058"
         d="m 115.51417,99.870734 c 0,0 0,16.128926 0,16.128926 4.26271,0.0304 10.30516,-3.61367 10.30516,-8.0655 0,-4.45183 -4.75687,-8.063426 -10.30516,-8.063426 z" />
      <path
         style="opacity:0.3;fill:url(#radialGradient3371);fill-opacity:1;fill-rule:nonzero;stroke:none;stroke-width:1;marker:none;visibility:visible;display:inline;overflow:visible"
         id="path5018"
         d="m 12.462574,99.870734 c 0,0 0,16.128926 0,16.128926 -4.2627113,0.0304 -10.3051588,-3.61367 -10.3051588,-8.0655 0,-4.45183 4.7568636,-8.063426 10.3051588,-8.063426 z" />
    </g>
    <path
       style="fill:url(#linearGradient2446);fill-opacity:1;stroke:url(#radialGradient2448);stroke-width:1.00000012;stroke-linecap:round;stroke-linejoin:round;stroke-miterlimit:4;stroke-opacity:1;stroke-dasharray:none;display:inline"
       id="path3468"
       d="m 13.662787,-40.49969 c -1.878179,0.0205 -3.162786,0.914302 -3.162786,2.672257 l 0,5.327428 c -0.9606038,0 -1.4771007,-0.0031 -2.1044011,0 -1.6785577,0.0084 -2.8776189,0.944908 -2.8776189,2.832981 C 5.611611,-2.169373 5.499999,-0.745086 5.499999,1.589518 9.4058145,1.589518 122.5,-8.297119 122.5,-12.552775 l 0,-17.142097 c 0,-1.757952 -1.15786,-2.825632 -3.03605,-2.805133 l -61.963949,0 0,-5.19887 c 0,-1.757955 -1.187435,-2.800815 -2.948267,-2.800815 l -40.888947,0 z" />
    <path
       style="fill:url(#radialGradient2441);fill-opacity:1;fill-rule:nonzero;stroke:url(#linearGradient2443);stroke-width:0.99999982;stroke-linecap:round;stroke-linejoin:round;stroke-miterlimit:4;stroke-opacity:1;stroke-dasharray:none;stroke-dashoffset:0;marker:none;visibility:visible;display:inline;overflow:visible;enable-background:accumulate"
       id="path3369"
       d="m 6.2500001,-19.500009 115.4999899,10e-4 c 1.66861,0 2.75001,1.153006 2.75001,2.586466 l -2.71648,69.916198 c 0.0386,1.81374 -0.55015,2.53289 -2.48884,2.49486 L 9.3616428,55.452995 c -1.6685956,0 -3.3511615,-1.0704 -3.3511615,-2.50387 L 3.5,-16.912539 c 0,-1.433462 1.0814044,-2.58747 2.7500001,-2.58747 z" />
    <path
       style="opacity:0.4;fill:url(#linearGradient2438);fill-opacity:1;stroke:none"
       id="path6127"
       d="m 5.7727205,-20.000004 116.4545395,0.0011 c 1.6824,0 2.77274,1.16838 2.77274,2.620952 l -2.73893,70.848417 c 0.0389,1.83792 -0.5547,2.56666 -2.50941,2.52812 L 8.9100805,55.952375 c -1.68238,0 -3.37885,-1.08468 -3.37885,-2.53726 L 3.0000006,-17.378034 c 0,-1.452575 1.0903399,-2.62197 2.7727199,-2.62197 z" />
    <path
       style="fill:none;stroke:url(#radialGradient2435);stroke-width:0.99999982;stroke-linecap:round;stroke-linejoin:round;stroke-miterlimit:4;stroke-opacity:1;stroke-dasharray:none;stroke-dashoffset:0;marker:none;visibility:visible;display:inline;overflow:visible;enable-background:accumulate"
       id="path3405"
       d="M 6.2683292,-18.438391 C 3.7990813,-18.549636 4.6063039,-15.169047 4.7006757,-12.651622 5.4832994,9.221836 6.2689057,31.09524 7.0496654,52.968735 74.055045,83.22182 142.28903,-18.438391 117.55369,-18.438391 c -37.095116,0 -74.190239,0 -111.2853608,0 z" />
    <path
       style="fill:url(#linearGradient2432);fill-opacity:1;fill-rule:nonzero;stroke:none;stroke-width:1;marker:none;visibility:visible;display:inline;overflow:visible;enable-background:accumulate"
       id="path3445"
       d="m 6.2797886,-20.000004 c -1.9125577,0 -3.2795576,1.42446 -3.2795576,3.12208 -3.078e-4,0.0104 -3.078e-4,0.02082 0,0.03122 l 1.4055247,39.338208 c 0.00566,0.153467 0.077896,0.296864 0.1978652,0.392799 0.1199693,0.09593 0.2757829,0.1349 0.4268124,0.106734 L 123.75042,4.320999 c 0.24534,-0.04265 0.42755,-0.250802 0.43727,-0.499533 l 0.81208,-20.66817 c 3.1e-4,-0.0104 3.1e-4,-0.02082 0,-0.03122 0,-1.697614 -1.36698,-3.122079 -3.27956,-3.12208 l -115.4404214,0 z" />
    <path
       d="m 121.08413,55.416885 c 0,5.168225 -14.36455,9.357885 -32.08413,9.357885 -17.71958,0 -32.084137,-4.18966 -32.084137,-9.357885 0,-5.16821 14.364557,-9.35787 32.084137,-9.35787 17.71958,0 32.08413,4.18966 32.08413,9.35787 l 0,0 z"
       id="path3823"
       style="opacity:0.8;fill:url(#radialGradient3045);fill-opacity:1;stroke:none" />
    <path
       d="m 80.998291,15.537099 c 0.846197,4.168698 1.587609,7.322027 0.901142,11.490723 -5.351925,4.624785 -19.581254,6.702924 -19.560729,11.490723 l -1.838718,14.3634 c 0,4.75962 12.759894,8.618065 28.500009,8.618065 15.740125,0 28.500015,-3.858445 28.500015,-8.618065 l -1.83871,-14.3634 c -0.022,-4.097708 -14.33417,-6.702919 -19.620451,-11.490723 -0.451543,-3.869189 0.179224,-7.621532 0.960856,-11.490723 l -16.003414,0 0,0 z"
       id="path3766"
       style="fill:url(#radialGradient3042);fill-opacity:1;stroke:#808080;stroke-width:0.99997264;stroke-miterlimit:4;stroke-opacity:1;stroke-dasharray:none" />
    <path
       transform="translate(4.2584719e-8,-64.000005)"
       sodipodi:type="inkscape:offset"
       inkscape:radius="-1.0256431"
       inkscape:original="M 81 79.53125 C 81.846197 83.699948 82.592717 86.862554 81.90625 91.03125 C 76.554325 95.656035 62.323225 97.743451 62.34375 102.53125 L 60.5 116.875 C 60.5 121.63462 73.259885 125.5 89 125.5 C 104.74013 125.5 117.5 121.63462 117.5 116.875 L 115.65625 102.53125 C 115.63425 98.433542 101.31753 95.819054 96.03125 91.03125 C 95.579707 87.162061 96.218368 83.400441 97 79.53125 L 81 79.53125 z "
       style="color:#000000;fill:none;stroke:url(#linearGradient3157);stroke-width:0.99990523;stroke-linecap:butt;stroke-linejoin:miter;stroke-miterlimit:4;stroke-opacity:1;stroke-dasharray:none;stroke-dashoffset:0;marker:none;visibility:visible;display:inline;overflow:visible;enable-background:accumulate"
       id="path3155"
       d="m 82.21875,80.5625 c 0.72851,3.577131 1.330402,6.720859 0.6875,10.625 a 1.0257457,1.0257457 0 0 1 -0.34375,0.625 c -2.958489,2.556534 -7.875842,4.160418 -12.0625,5.84375 -2.093329,0.841666 -3.988808,1.702724 -5.28125,2.5625 -1.292442,0.85978 -1.846702,1.62395 -1.84375,2.3125 a 1.0257457,1.0257457 0 0 1 0,0.125 L 61.53125,116.875 c 0,0.009 -1.43e-4,0.0226 0,0.0312 0.01196,0.72602 0.52935,1.58206 1.8125,2.5 1.298445,0.92888 3.302952,1.83405 5.8125,2.59375 5.019097,1.5194 12.05765,2.46875 19.84375,2.46875 7.786108,0 14.82466,-0.94935 19.84375,-2.46875 2.50955,-0.7597 4.51406,-1.66487 5.8125,-2.59375 1.28315,-0.91794 1.80053,-1.77398 1.8125,-2.5 l 0,-0.0312 -1.84375,-14.21875 a 1.0257457,1.0257457 0 0 1 0,-0.125 c -0.001,-0.2139 -0.0751,-0.46123 -0.375,-0.8125 -0.29995,-0.35127 -0.80828,-0.74173 -1.46875,-1.15625 C 111.46032,99.733466 109.54697,98.877213 107.4375,98 103.21856,96.245575 98.259501,94.422057 95.34375,91.78125 A 1.0257457,1.0257457 0 0 1 95,91.15625 c -0.42406,-3.633688 0.140158,-7.10966 0.8125,-10.59375 l -13.59375,0 z" />
    <path
       d="m 88.999998,-11.500113 c -6.903621,0 -12.500107,5.45346 -12.500107,12.180637 0.0541,2.489594 0.257634,5.447143 1.666681,12.180639 0.83334,2.610133 8.266339,10.116368 8.333405,10.986414 1.61613,0.870043 4.166703,0.870043 5.833382,0 0,-0.870046 6.666726,-8.376281 7.500065,-10.986414 1.585646,-6.998108 1.581646,-9.570501 1.666686,-12.180639 0,-6.727177 -5.596491,-12.180637 -12.500112,-12.180637 l 0,0 z"
       id="path3764"
       style="fill:url(#radialGradient3036);fill-opacity:1;stroke:#999999;stroke-width:0.99977899;stroke-miterlimit:4;stroke-opacity:1;stroke-dasharray:none" />
    <path
       d="m 72.7143,58.525895 c -4.809063,-3.49517 -2.515874,-11.25477 -2.035712,-16.22217 -2.035709,3.52656 -2.035709,14.10624 -6.107137,14.10624 2.773884,0.80855 5.597314,1.70295 8.142849,2.11593 z"
       id="path3848"
       style="opacity:0.3;fill:url(#linearGradient3033);fill-opacity:1;stroke:none" />
    <path
       d="m 105.28571,58.525895 c 4.78402,-3.07471 2.35474,-11.43648 2.0357,-16.22217 2.03572,3.52656 2.03572,14.10624 6.10714,14.10624 -2.77388,0.80855 -5.59731,1.70295 -8.14284,2.11593 z"
       id="path3850"
       style="opacity:0.3;fill:url(#linearGradient3030);fill-opacity:1;stroke:none" />
    <path
       d="m 78.142868,30.407466 c 1.589606,3.144864 5.834267,5.407389 10.857133,5.407389 5.022865,0 9.267521,-2.262525 10.857133,-5.407389 l -21.714266,0 z"
       id="path3833"
       style="opacity:0.2;fill:url(#radialGradient3027);fill-opacity:1;stroke:none" />
    <path
       transform="translate(4.2584719e-8,-64.000005)"
       sodipodi:type="inkscape:offset"
       inkscape:radius="-1.0486207"
       inkscape:original="M 89 52.5 C 82.09638 52.5 76.5 57.960324 76.5 64.6875 C 76.5541 67.177094 76.747202 70.141504 78.15625 76.875 C 78.98959 79.485133 86.432934 86.973704 86.5 87.84375 C 88.11613 88.713793 90.677071 88.713793 92.34375 87.84375 C 92.34375 86.973704 99.010411 79.485133 99.84375 76.875 C 101.4294 69.876892 101.41496 67.297638 101.5 64.6875 C 101.5 57.960324 95.903621 52.5 89 52.5 z "
       style="opacity:0.7;color:#000000;fill:none;stroke:url(#linearGradient3255);stroke-width:0.99956053;stroke-linecap:butt;stroke-linejoin:miter;stroke-miterlimit:4;stroke-opacity:1;stroke-dasharray:none;stroke-dashoffset:0;marker:none;visibility:visible;display:inline;overflow:visible;enable-background:accumulate"
       id="path3253"
       d="m 89,53.5625 c -6.339715,0 -11.41991,4.962754 -11.4375,11.09375 1.88e-4,0.0087 -1.91e-4,0.02258 0,0.03125 0.05369,2.432089 0.222492,5.297219 1.59375,11.875 0.0018,0.0055 0.02926,0.02542 0.03125,0.03125 0.127179,0.372917 0.658466,1.310163 1.4375,2.34375 0.791222,1.049757 1.79969,2.258669 2.78125,3.40625 0.98156,1.147581 1.952681,2.242331 2.6875,3.125 0.36741,0.441335 0.667601,0.82561 0.90625,1.15625 0.08077,0.111909 0.152452,0.207279 0.21875,0.3125 1.182726,0.535901 3.124857,0.569998 4.375,0.03125 0.05173,-0.09351 0.09441,-0.182691 0.15625,-0.28125 0.210254,-0.335102 0.485913,-0.744632 0.8125,-1.1875 0.653173,-0.885735 1.493228,-1.976165 2.375,-3.125 0.881772,-1.148835 1.809777,-2.35377 2.53125,-3.40625 0.696247,-1.01568 1.191603,-1.88465 1.34375,-2.3125 0.0099,-0.04382 0.02145,-0.05029 0.03125,-0.09375 1.5376,-6.817623 1.50948,-9.266087 1.59375,-11.875 0,-0.01062 3e-5,-0.02063 0,-0.03125 C 100.41991,58.525254 95.339716,53.5625 89,53.5625 z" />
  </g>
</svg>
