<?xml version="1.0" encoding="UTF-8" standalone="no"?>
<svg
   xmlns:dc="http://purl.org/dc/elements/1.1/"
   xmlns:cc="http://creativecommons.org/ns#"
   xmlns:rdf="http://www.w3.org/1999/02/22-rdf-syntax-ns#"
   xmlns:svg="http://www.w3.org/2000/svg"
   xmlns="http://www.w3.org/2000/svg"
   version="1.1"
   width="16"
   height="16"
   id="svg2">
  <defs
     id="defs4" />
  <metadata
     id="metadata7">
    <rdf:RDF>
      <cc:Work
         rdf:about="">
        <dc:format>image/svg+xml</dc:format>
        <dc:type
           rdf:resource="http://purl.org/dc/dcmitype/StillImage" />
        <dc:title />
      </cc:Work>
    </rdf:RDF>
  </metadata>
  <path
     style="fill:#bebebe;fill-opacity:1;stroke:none;color:#bebebe;fill-rule:nonzero;stroke-width:1;stroke-linecap:butt;stroke-linejoin:miter;stroke-miterlimit:4;stroke-opacity:1;stroke-dasharray:none;stroke-dashoffset:0;marker:none;visibility:visible;display:inline;overflow:visible;enable-background:accumulate"
     id="path2993"
     d="m 8.1577554,1.3826068 c -3.5898508,0 -6.5000002,2.9101496 -6.5000002,6.4999987 0,3.5898575 2.9101494,6.5000015 6.5000002,6.5000015 3.5898506,0 6.5000006,-2.910144 6.5000006,-6.5000015 0,-3.5898491 -2.91015,-6.4999987 -6.5000006,-6.4999987 z m 0,0.5416666 c 2.7292946,0 5.0300006,1.8351338 5.7355726,4.3387491 C 13.285619,7.516489 12.420891,8.6450527 11.367807,9.557035 10.861918,9.9951349 10.309589,10.38569 9.6994739,10.660681 9.0893588,10.935671 8.4182771,11.091698 7.7501512,11.053389 7.2481749,11.024599 6.752303,10.884768 6.3127033,10.641045 7.4777224,10.00976 8.5288975,9.1680683 9.3893703,8.1602096 9.9541665,7.4986709 10.448321,6.746854 10.638589,5.8980747 10.733723,5.4736857 10.749845,5.029228 10.660932,4.6034916 10.57202,4.1777552 10.375178,3.772047 10.077287,3.4551585 9.7862654,3.1455784 9.4042214,2.9262847 8.9946304,2.8132836 8.5850394,2.7002838 8.1491632,2.6915346 7.7311929,2.767919 6.8952521,2.920688 6.1489095,3.4065222 5.5503074,4.0096896 4.495184,5.0728592 3.8428953,6.5730115 3.9625469,8.0660951 4.0223725,8.8126362 4.2725493,9.5462152 4.7012449,10.160316 4.796936,10.297385 4.9021356,10.427954 5.0147345,10.55167 4.3902161,10.770233 3.7435789,10.925813 3.0877553,11.013441 2.524686,10.103604 2.1994219,9.0312122 2.1994219,7.8826055 c 0,-3.2906961 2.6676366,-5.9583321 5.9583335,-5.9583321 z M 8.195672,3.1281273 C 8.6145191,3.128669 9.0362123,3.2554961 9.3704119,3.507971 9.6715093,3.7354398 9.8946135,4.0590503 10.021089,4.4145854 10.147564,4.7701204 10.180022,5.1562108 10.13687,5.5310956 10.050567,6.2808664 9.6723291,6.9684647 9.21536,7.569116 8.4062382,8.6326444 7.3307536,9.4838694 6.1346303,10.079743 6.0121977,10.140735 5.8878246,10.198707 5.7629116,10.254431 5.5026444,10.026673 5.279567,9.7565308 5.1095261,9.4554698 4.7542202,8.8263837 4.6370498,8.0790924 4.7059845,7.3598973 4.7749191,6.6407036 5.0217285,5.9475532 5.3532761,5.3056269 5.7376909,4.5613432 6.261681,3.8563452 6.9952033,3.4517731 7.3619644,3.2494877 7.7768246,3.1275599 8.195672,3.1281273 z m 5.866927,3.9568742 c 0.03491,0.2609208 0.05349,0.5271296 0.05349,0.797604 0,3.2906945 -2.667637,5.9583345 -5.9583336,5.9583345 -1.8480889,0 -3.4997678,-0.841316 -4.5926564,-2.161926 0.6745619,-0.153211 1.333864,-0.373276 1.9662501,-0.653386 0.2765471,0.210614 0.581961,0.383351 0.9066146,0.507813 0.9349387,0.358434 1.9964065,0.30657 2.9426046,-0.02099 0.9461977,-0.327559 1.7852617,-0.915497 2.5167187,-1.5992703 0.871354,-0.8145608 1.606021,-1.7746553 2.165312,-2.8281792 z" />
  <g
     id="layer9"
     style="display:inline"
     transform="translate(-712.66121,602.44068)" />
  <g
     id="layer10"
     style="display:inline"
     transform="translate(-712.66121,602.44068)" />
  <g
     id="layer11"
     transform="translate(-712.66121,602.44068)" />
  <g
     id="layer14"
     transform="translate(-712.66121,602.44068)" />
  <g
     id="layer15"
     style="display:inline"
     transform="translate(-712.66121,602.44068)" />
  <g
     id="g71291"
     style="display:inline"
     transform="translate(-712.66121,602.44068)" />
  <g
     id="g4953"
     style="display:inline"
     transform="translate(-712.66121,602.44068)" />
  <g
     id="layer12"
     style="display:inline"
     transform="translate(-712.66121,602.44068)" />
</svg>
