<?xml version="1.0" encoding="UTF-8" standalone="no"?>
<svg
   height="16"
   width="16"
   version="1.1"
   id="svg1158"
   xml:space="preserve"
   xmlns="http://www.w3.org/2000/svg"
   xmlns:svg="http://www.w3.org/2000/svg"><defs
     id="defs1162" /><path
     id="path1047-9-3"
     style="font-variation-settings:normal;vector-effect:none;fill:#555761;fill-opacity:1;stroke:none;stroke-width:1;stroke-linecap:butt;stroke-linejoin:miter;stroke-miterlimit:4;stroke-dasharray:none;stroke-dashoffset:0;stroke-opacity:1;marker:none;stop-color:#000000"
     d="M 7.9589844 1 C 7.5714601 1.016107 7.2273575 1.2489665 7.0722656 1.5996094 L 5.5625 5 L 1.6660156 5 C 0.7343129 5.00098 0.29618593 6.1371288 0.9921875 6.7480469 L 4.0273438 9.3984375 L 2.484375 13.662109 C 2.1653516 14.549105 3.1514888 15.33861 3.9667969 14.849609 L 8 12.419922 L 12.033203 14.849609 C 12.848512 15.338608 13.834649 14.549105 13.515625 13.662109 L 11.972656 9.3984375 L 15.007812 6.7480469 C 15.703814 6.1371288 15.265687 5.0010375 14.333984 5 L 10.4375 5 L 8.9277344 1.5996094 C 8.7605447 1.2217142 8.3766825 0.98353667 7.9589844 1 z M 7.9980469 2 L 8 2 C 8.0097616 2.0002558 8.0128419 2.0020304 8.0136719 2.0039062 A 1.0001796 1.0001796 0 0 1 8.0136719 2.0058594 L 9.5234375 5.40625 A 1.0001796 1.0001796 0 0 0 10.4375 6 L 14.333984 6 C 14.34797 5.9996499 14.342458 6.0021026 14.339844 6.0019531 L 11.314453 8.6445312 A 1.0001796 1.0001796 0 0 0 11.033203 9.7382812 L 12.572266 13.992188 C 12.56534 14.003243 12.582473 14.012765 12.548828 13.992188 L 8.515625 11.5625 A 1.0001796 1.0001796 0 0 0 7.484375 11.5625 L 3.453125 13.992188 C 3.4052704 14.020888 3.4352367 14.004164 3.4277344 13.992188 L 4.9667969 9.7382812 A 1.0001796 1.0001796 0 0 0 4.6855469 8.6445312 L 1.6601562 6.0019531 C 1.6575329 6.0021083 1.6520421 5.9996465 1.6660156 6 L 1.6679688 6 L 5.5625 6 A 1.0001796 1.0001796 0 0 0 6.4765625 5.40625 L 7.9863281 2.0058594 C 7.9876005 2.0113746 7.9974787 2.0025432 7.9980469 2 z " /></svg>
