<?xml version="1.0" encoding="UTF-8" standalone="no"?>
<!-- Created with Inkscape (http://www.inkscape.org/) -->
<svg id="svg2526" xmlns="http://www.w3.org/2000/svg" height="32" width="32" version="1.0" xmlns:xlink="http://www.w3.org/1999/xlink">
 <defs id="defs2528">
  <radialGradient id="radialGradient2517" gradientUnits="userSpaceOnUse" cy="4.625" cx="62.625" gradientTransform="matrix(1.5059 0 0 .37647 -78.306 26.259)" r="10.625">
   <stop id="stop8840" offset="0"/>
   <stop id="stop8842" style="stop-opacity:0" offset="1"/>
  </radialGradient>
  <linearGradient id="linearGradient2503" y2="3.0816" gradientUnits="userSpaceOnUse" x2="18.379" gradientTransform="matrix(.71267 0 0 .71267 -1.1039 -1.1043)" y1="44.98" x1="18.379">
   <stop id="stop2492" style="stop-color:#791235" offset="0"/>
   <stop id="stop2494" style="stop-color:#dd3b27" offset="1"/>
  </linearGradient>
  <radialGradient id="radialGradient2501" gradientUnits="userSpaceOnUse" cy="3.99" cx="23.896" gradientTransform="matrix(0 1.7009 -2.2452 0 24.958 -40.237)" r="20.397">
   <stop id="stop3244" style="stop-color:#f8b17e" offset="0"/>
   <stop id="stop3246" style="stop-color:#e35d4f" offset=".26238"/>
   <stop id="stop3248" style="stop-color:#c6262e" offset=".66094"/>
   <stop id="stop3250" style="stop-color:#690b54" offset="1"/>
  </radialGradient>
  <linearGradient id="linearGradient2509" y2="5.4676" gradientUnits="userSpaceOnUse" x2="63.397" gradientTransform="matrix(1.5437 0 0 1.5436 -80.016 21.419)" y1="-12.489" x1="63.397">
   <stop id="stop4875" style="stop-color:#fff" offset="0"/>
   <stop id="stop4877" style="stop-color:#fff;stop-opacity:0" offset="1"/>
  </linearGradient>
 </defs>
 <g id="layer1">
  <path id="path8836" style="opacity:.3;fill-rule:evenodd;fill:url(#radialGradient2517)" d="m32 28c0 2.2091-7.1634 4-16 4s-16-1.791-16-4c0-2.2091 7.1634-4 16-4s16 1.7909 16 4z"/>
  <path id="path2473" style="stroke-linejoin:round;stroke:url(#linearGradient2503);stroke-linecap:round;stroke-width:1.0037;fill:url(#radialGradient2501)" d="m16 1.5014c-7.9997 0-14.498 6.4987-14.498 14.498 0 7.9997 6.4987 14.498 14.498 14.498 7.9997 0 14.498-6.4987 14.498-14.498 0-7.9997-6.4987-14.498-14.498-14.498z"/>
  <path id="path3295" style="opacity:.2" d="m14.132 6.5023c0.44259 4.0892 0.94956 8.1502 1.3263 12.255h1.2024c0.31251-3.9423 0.81658-7.8607 1.1802-11.798 0.18535-0.93232-0.32074-2.0393-1.3616-2.2658-1.0285-0.28443-2.1777 0.41991-2.3145 1.426-0.02268 0.1263-0.0328 0.25448-0.0328 0.38254h-0.000001zm-0.13117 16.625c-0.0468 1.2172 1.3692 2.1713 2.5782 1.7855 1.171-0.28267 1.7878-1.6748 1.1876-2.6643-0.53722-1.0229-2.1126-1.3599-3.0188-0.57706-0.45809 0.35597-0.76171 0.88738-0.74697 1.4559v-0.000001z"/>
  <path id="text2315" style="fill:#fff" d="m14.132 7.5023c0.44259 4.0892 0.94956 8.1502 1.3263 12.255h1.2024c0.31251-3.9423 0.81658-7.8607 1.1802-11.798 0.18535-0.93232-0.32074-2.0393-1.3616-2.2658-1.0285-0.28443-2.1777 0.41991-2.3145 1.426-0.02268 0.1263-0.0328 0.25448-0.0328 0.38254h-0.000001zm-0.131 16.626c-0.0468 1.2172 1.3692 2.1713 2.5782 1.7855 1.171-0.28267 1.7878-1.6748 1.1876-2.6643-0.53722-1.0229-2.1126-1.3599-3.0188-0.57706-0.45809 0.35597-0.76171 0.88738-0.74697 1.4559v-0.000001z"/>
  <path id="path8655" style="opacity:.4;stroke:url(#linearGradient2509);fill:none" d="m29.5 16c0 7.456-6.045 13.5-13.5 13.5-7.4557 0-13.5-6.044-13.5-13.5 0-7.4562 6.0443-13.5 13.5-13.5 7.455 0 13.5 6.0438 13.5 13.5z"/>
 </g>
</svg>
