<svg xmlns="http://www.w3.org/2000/svg" viewBox="0 0 24 24"><g color="#bebebe" fill="#bebebe"><path d="M18.594 4.188l-1.407 1.03a12.25 12.25 0 0 1 2.407 7.282c0 2.713-.89 5.214-2.375 7.25l1.402 1.03a14.025 14.025 0 0 0 2.688-8.28c0-3.11-1.01-5.98-2.72-8.313z" opacity=".4" overflow="visible"/><path d="M3 10v5h2l4 4V6l-4 4H3zm9.47-1.344l-1.345.97c.597.808.97 1.795.97 2.874a4.83 4.83 0 0 1-.94 2.844l1.345 1a6.527 6.527 0 0 0 1.25-3.844c0-1.438-.49-2.763-1.28-3.844z" overflow="visible"/><path d="M15.47 6.47l-1.376 1a8.422 8.422 0 0 1 0 10.03l1.406 1c1.227-1.69 1.97-3.752 1.97-6 0-2.263-.76-4.335-2-6.03z" opacity=".4" overflow="visible"/></g></svg>