<?xml version="1.0" encoding="UTF-8" standalone="no"?>
<svg
   xmlns:dc="http://purl.org/dc/elements/1.1/"
   xmlns:cc="http://creativecommons.org/ns#"
   xmlns:rdf="http://www.w3.org/1999/02/22-rdf-syntax-ns#"
   xmlns:svg="http://www.w3.org/2000/svg"
   xmlns="http://www.w3.org/2000/svg"
   width="24"
   version="1.1"
   id="svg7384"
   height="24">
  <metadata
     id="metadata90">
    <rdf:RDF>
      <cc:Work
         rdf:about="">
        <dc:format>image/svg+xml</dc:format>
        <dc:type
           rdf:resource="http://purl.org/dc/dcmitype/StillImage" />
        <dc:title>elementary Symbolic Icon Theme</dc:title>
      </cc:Work>
    </rdf:RDF>
  </metadata>
  <title
     id="title9167">elementary Symbolic Icon Theme</title>
  <defs
     id="defs7386">
    <filter
       style="color-interpolation-filters:sRGB"
       id="filter7554">
      <feBlend
         mode="darken"
         in2="BackgroundImage"
         id="feBlend7556" />
    </filter>
    <filter
       style="color-interpolation-filters:sRGB"
       id="filter7554-7">
      <feBlend
         mode="darken"
         in2="BackgroundImage"
         id="feBlend7556-6" />
    </filter>
  </defs>
  <g
     transform="translate(-269.00015,426)"
     style="display:inline"
     label="status"
     id="layer9">
    <path
       style="color:#000000;display:inline;overflow:visible;visibility:visible;fill:#bebebe;fill-opacity:1;fill-rule:nonzero;stroke:none;stroke-width:1.54645538;marker:none;enable-background:accumulate"
       id="path3029"
       d="m 281.00015,-422 c -4.41828,0 -8,3.58172 -8,8 0,4.41828 3.58172,8 8,8 4.41828,0 8,-3.58172 8,-8 0,-4.41828 -3.58172,-8 -8,-8 z m 0,1 c 3.86599,0 7,3.13401 7,7 0,1.97218 -0.84396,3.72769 -2.15625,5 -0.44328,-1.7269 -1.97478,-3 -3.84375,-3 l -2,0 c -1.86897,0 -3.40046,1.2731 -3.84375,3 -1.31229,-1.27231 -2.15625,-3.02782 -2.15625,-5 0,-3.86599 3.13401,-7 7,-7 z" />
    <path
       style="color:#000000;display:inline;overflow:visible;visibility:visible;fill:#bebebe;fill-opacity:1;fill-rule:nonzero;stroke:none;stroke-width:2;marker:none;enable-background:accumulate"
       id="rect3049"
       d="m 281.00015,-418.75 c -1.79493,0 -3.25,1.39911 -3.25,3.125 0,1.72589 1.45507,3.125 3.25,3.125 1.79492,0 3.25,-1.39911 3.25,-3.125 0,-1.72589 -1.45508,-3.125 -3.25,-3.125 z" />
  </g>
  <g
     transform="translate(-273.00015,430)"
     style="display:inline"
     id="layer10" />
  <g
     transform="translate(-273.00015,430)"
     style="display:inline"
     id="layer13" />
  <g
     transform="translate(-273.00015,430)"
     id="layer14" />
  <g
     transform="translate(-273.00015,430)"
     style="display:inline"
     id="layer15" />
  <g
     transform="translate(-273.00015,430)"
     style="display:inline"
     id="g71291" />
  <g
     transform="translate(-273.00015,430)"
     style="display:inline"
     id="g4953" />
  <g
     transform="translate(-273.00015,430)"
     style="display:inline"
     id="layer12" />
</svg>
