<?xml version="1.0" encoding="UTF-8" standalone="no"?>
<svg
   xmlns:dc="http://purl.org/dc/elements/1.1/"
   xmlns:cc="http://creativecommons.org/ns#"
   xmlns:rdf="http://www.w3.org/1999/02/22-rdf-syntax-ns#"
   xmlns:svg="http://www.w3.org/2000/svg"
   xmlns="http://www.w3.org/2000/svg"
   height="24"
   width="24"
   version="1.1"
   id="svg8">
  <metadata
     id="metadata14">
    <rdf:RDF>
      <cc:Work
         rdf:about="">
        <dc:format>image/svg+xml</dc:format>
        <dc:type
           rdf:resource="http://purl.org/dc/dcmitype/StillImage" />
        <dc:title></dc:title>
      </cc:Work>
    </rdf:RDF>
  </metadata>
  <defs
     id="defs12" />
  <path
     id="rect851"
     style="opacity:1;fill:#555761;stroke-width:0.999999;stroke-opacity:0.5;stop-color:#000000"
     d="M 2 6 C 1.446 6 1 8.453 1 11.5 C 1 14.547 1.446 17 2 17 L 21 17 C 21.387343 17 21.712678 15.76289 21.878906 14 L 23.498047 14 C 23.776155 14 24 12.885 24 11.5 C 24 10.115 23.776155 9 23.498047 9 L 21.878906 9 C 21.712678 7.2371104 21.387343 6 21 6 L 2 6 z M 2.6328125 7 L 20.367188 7 C 20.718016 7 21 9.007 21 11.5 C 21 13.993 20.718016 16 20.367188 16 L 2.6328125 16 C 2.2819845 16 2 13.993 2 11.5 C 2 9.007 2.2819845 7 2.6328125 7 z M 21.945312 10 L 22.849609 10 C 22.932709 10 23 10.669 23 11.5 C 23 12.331 22.932709 13 22.849609 13 L 21.945312 13 C 21.970781 12.513456 22 12.032809 22 11.5 C 22 10.967191 21.970781 10.486544 21.945312 10 z " />
  <rect
     class="success"
     style="fill:#73d216;stroke:none;stroke-width:0.999999;stroke-miterlimit:4;stroke-dasharray:none;stroke-opacity:1;stop-color:#000000;font-variation-settings:normal;opacity:1;vector-effect:none;fill-opacity:1;stroke-linecap:butt;stroke-linejoin:miter;stroke-dashoffset:0;marker:none;stop-opacity:1"
     id="rect851-7-2"
     width="17"
     height="7"
     x="3"
     y="8"
     rx="0.33540657"
     ry="3.5" />
</svg>
