<?xml version="1.0" encoding="UTF-8" standalone="no"?>
<svg
   xmlns:dc="http://purl.org/dc/elements/1.1/"
   xmlns:cc="http://creativecommons.org/ns#"
   xmlns:rdf="http://www.w3.org/1999/02/22-rdf-syntax-ns#"
   xmlns:svg="http://www.w3.org/2000/svg"
   xmlns="http://www.w3.org/2000/svg"
   height="24"
   width="24"
   version="1.1"
   id="svg8">
  <metadata
     id="metadata14">
    <rdf:RDF>
      <cc:Work
         rdf:about="">
        <dc:format>image/svg+xml</dc:format>
        <dc:type
           rdf:resource="http://purl.org/dc/dcmitype/StillImage" />
        <dc:title></dc:title>
      </cc:Work>
    </rdf:RDF>
  </metadata>
  <defs
     id="defs12" />
  <path
     class="error"
     id="rect851"
     style="font-variation-settings:normal;opacity:1;vector-effect:none;fill:#c6262e;fill-opacity:1;stroke-width:0.999999;stroke-linecap:butt;stroke-linejoin:miter;stroke-miterlimit:4;stroke-dasharray:none;stroke-dashoffset:0;stroke-opacity:0.5;stop-color:#000000;stop-opacity:1"
     d="M 5.0351562 4.2109375 L 4.0976562 5.1445312 L 17.642578 18.689453 L 18.578125 17.753906 L 17.824219 17 L 21 17 C 21.387343 17 21.712678 15.76289 21.878906 14 L 23.498047 14 C 23.776155 14 24 12.885 24 11.5 C 24 10.115 23.776155 9 23.498047 9 L 21.878906 9 C 21.712678 7.2371104 21.387343 6 21 6 L 6.8242188 6 L 5.0351562 4.2109375 z M 3 6 C 2.446 6 2 8.453 2 11.5 C 2 14.547 2.446 17 3 17 L 14.638672 17 L 13.638672 16 L 3.6328125 16 C 3.2819845 16 3 13.993 3 11.5 C 3 9.007 3.2819845 7 3.6328125 7 L 4.6386719 7 L 3.6386719 6 L 3 6 z M 7.8242188 7 L 20.367188 7 C 20.718015 7 21 9.007 21 11.5 C 21 13.993 20.718015 16 20.367188 16 L 16.824219 16 L 7.8242188 7 z M 21.945312 10 L 22.849609 10 C 22.932709 10 23 10.669 23 11.5 C 23 12.331 22.932709 13 22.849609 13 L 21.945312 13 C 21.970781 12.513456 22 12.032809 22 11.5 C 22 10.967191 21.970781 10.486544 21.945312 10 z " />
  <path
     class="error"
     id="rect851-3"
     style="font-variation-settings:normal;vector-effect:none;fill:#c6262e;fill-opacity:1;stroke-width:0.999999;stroke-linecap:butt;stroke-linejoin:miter;stroke-miterlimit:4;stroke-dasharray:none;stroke-dashoffset:0;stroke-opacity:0.5;stop-color:#000000;opacity:0.25"
     d="M 4.3359375 8 C 4.1501224 8 4 9.561 4 11.5 C 4 13.439 4.1501224 15 4.3359375 15 L 12.638672 15 L 5.6386719 8 L 4.3359375 8 z M 7.5078125 8 L 14.507812 15 L 19.664062 15 C 19.849878 15 20 13.439 20 11.5 C 20 9.561 19.849878 8 19.664062 8 L 7.5078125 8 z " />
</svg>
