<svg xmlns="http://www.w3.org/2000/svg" viewBox="0 0 24 24"><path d="M5 7c-.554 0-1 .446-1 1v8c0 .554.446 1 1 1h12c.554 0 1-.446 1-1v-2h1c.554 0 1-.446 1-1v-2c0-.554-.446-1-1-1h-1V8c0-.554-.446-1-1-1zm.5 1h11a.5.5 0 0 1 .5.5v7a.5.5 0 0 1-.5.5h-11a.5.5 0 0 1-.5-.5v-7a.5.5 0 0 1 .5-.5zM18 11h.5a.5.5 0 0 1 .5.5v1a.5.5 0 0 1-.5.5H18z" overflow="visible" color="#bebebe" fill="#bebebe"/><path d="M16 14l-5.953-5L10 12l-4-2 6 5v-3z" color="#bebebe" fill="#bebebe" overflow="visible"/><path d="M6.25 9a.25.25 0 0 0-.25.25V10l2 1.61V9.25A.25.25 0 0 0 7.75 9zM6 11v3.75c0 .14.112.25.25.25h1.5a.25.25 0 0 0 .25-.25v-2.094z" opacity=".3" color="#bebebe" fill="#bebebe" overflow="visible"/></svg>