<?xml version="1.0" encoding="UTF-8" standalone="no"?>
<svg
   xmlns:dc="http://purl.org/dc/elements/1.1/"
   xmlns:cc="http://creativecommons.org/ns#"
   xmlns:rdf="http://www.w3.org/1999/02/22-rdf-syntax-ns#"
   xmlns:svg="http://www.w3.org/2000/svg"
   xmlns="http://www.w3.org/2000/svg"
   height="24"
   width="24"
   version="1.1"
   id="svg8">
  <metadata
     id="metadata14">
    <rdf:RDF>
      <cc:Work
         rdf:about="">
        <dc:format>image/svg+xml</dc:format>
        <dc:type
           rdf:resource="http://purl.org/dc/dcmitype/StillImage" />
        <dc:title></dc:title>
      </cc:Work>
    </rdf:RDF>
  </metadata>
  <defs
     id="defs12" />
  <path
     color="#bebebe"
     d="M 21.914,10 C 21.76,8.235 21.161,6 20.75,6 H 1.25 C 0.696,6 0,9.23 0,12 c 0,2.77 0.696,6 1.25,6 h 19.5 c 0.411,0 1.01,-2.235 1.164,-4 h 1.584 C 23.776,14 24,13.108 24,12 24,10.892 23.776,10 23.498,10 M 1.75,7 h 18.5 c 0.283,0 0.75,2.784 0.75,5 0,2.216 -0.467,5 -0.75,5 H 1.75 C 1.467,17 1,14.216 1,12 1,9.784 1.467,7 1.75,7 Z m 21.141,4 c 0.06,0 0.11,0.446 0.11,1 0,0.554 -0.05,1 -0.11,1 H 21.959 C 21.973,12.666 22,12.355 22,12 22,11.645 21.973,11.334 21.96,11"
     fill="#666666"
     overflow="visible"
     style="isolation:auto;mix-blend-mode:normal;marker:none"
     id="path2" />
  <path
     class="success"
     color="#000000"
     d="M 19.5,16 C 19.64,16 20,14.216 20,12 20,9.7839997 19.64,7.9999997 19.5,7.9999997 h -17 c -0.14,0 -0.5,1.784 -0.5,4.0000003 0,2.216 0.36,4 0.5,4 z"
     fill="#73d216"
     overflow="visible"
     style="isolation:auto;mix-blend-mode:normal;stroke-width:0.999999;marker:none"
     id="path4" />
</svg>
