<?xml version="1.0" encoding="UTF-8" standalone="no"?>
<svg
   xmlns:dc="http://purl.org/dc/elements/1.1/"
   xmlns:cc="http://creativecommons.org/ns#"
   xmlns:rdf="http://www.w3.org/1999/02/22-rdf-syntax-ns#"
   xmlns:svg="http://www.w3.org/2000/svg"
   xmlns="http://www.w3.org/2000/svg"
   width="24"
   version="1.1"
   id="svg7384"
   height="24">
  <metadata
     id="metadata90">
    <rdf:RDF>
      <cc:Work
         rdf:about="">
        <dc:format>image/svg+xml</dc:format>
        <dc:type
           rdf:resource="http://purl.org/dc/dcmitype/StillImage" />
        <dc:title>elementary Symbolic Icon Theme</dc:title>
      </cc:Work>
    </rdf:RDF>
  </metadata>
  <title
     id="title9167">elementary Symbolic Icon Theme</title>
  <defs
     id="defs7386">
    <filter
       style="color-interpolation-filters:sRGB"
       id="filter7554">
      <feBlend
         mode="darken"
         in2="BackgroundImage"
         id="feBlend7556" />
    </filter>
    <filter
       style="color-interpolation-filters:sRGB"
       id="filter7554-7">
      <feBlend
         mode="darken"
         in2="BackgroundImage"
         id="feBlend7556-6" />
    </filter>
  </defs>
  <g
     transform="translate(-553.00012,-40)"
     style="display:inline"
     label="status"
     id="layer9" />
  <g
     transform="translate(-553.00012,-40)"
     style="display:inline"
     id="layer10" />
  <g
     transform="translate(-553.00012,-40)"
     style="display:inline"
     id="layer13" />
  <g
     transform="translate(-553.00012,-40)"
     id="layer14" />
  <g
     transform="translate(-553.00012,-40)"
     style="display:inline"
     id="layer15" />
  <g
     transform="translate(-553.00012,-40)"
     style="display:inline"
     id="g71291" />
  <g
     transform="translate(-553.00012,-40)"
     style="display:inline"
     id="layer12">
    <path
       style="color:#bebebe;text-indent:0;text-transform:none;block-progression:tb;display:inline;overflow:visible;visibility:visible;opacity:0.9;fill:#bebebe;fill-opacity:1;fill-rule:nonzero;stroke:none;stroke-width:1;marker:none;enable-background:accumulate"
       id="path29603"
       d="m 565.00012,44 c -4.42352,0 -8,3.57648 -8,8 0,4.42352 3.57648,8 8,8 4.42352,0 8,-3.57648 8,-8 0,-4.42352 -3.57648,-8 -8,-8 z m 0,1 c 3.87058,0 7,3.12942 7,7 0,3.87058 -3.12942,7 -7,7 -3.87058,0 -7,-3.12942 -7,-7 0,-3.87058 3.12942,-7 7,-7 z m 0.875,2.0625 c -0.98888,-0.0131 -1.34699,1.571 -0.40625,1.96875 0.74902,0.2769 1.49651,-0.49475 1.3125,-1.25 -0.002,-0.009 0.002,-0.0222 0,-0.0312 -0.0881,-0.41059 -0.48041,-0.71901 -0.90625,-0.6875 z m -0.1875,2.84375 c -0.17371,-0.007 -0.35599,0.0522 -0.53125,0.1875 l -2.09375,1.5 c -0.0571,0.0495 -0.0933,0.12314 -0.0625,0.21875 0.0515,0.12622 0.13609,0.25471 0.28125,0.34375 0.0726,0.0445 0.16086,0.0677 0.25,0.0312 l 0.875,-0.59375 -0.71875,3.71875 c -0.081,0.46046 -0.01,0.75048 0.25,0.96875 0.25877,0.21743 0.68098,0.27527 1.03125,0.0312 l 1.8125,-1.25 c 0.0651,-0.0521 0.10036,-0.13035 0.0625,-0.21875 -0.0397,-0.0886 -0.10849,-0.23035 -0.21875,-0.34375 -0.0551,-0.0567 -0.14359,-0.11624 -0.25,-0.0937 l -0.75,0.53125 c -0.16426,0.0948 -0.21547,0.13562 -0.1875,0.0312 l 0.84375,-3.84375 c 0.077,-0.34697 0.094,-0.55018 0,-0.78125 -0.0974,-0.23945 -0.31906,-0.42578 -0.59375,-0.4375 z" />
  </g>
</svg>
