<?xml version="1.0" encoding="UTF-8" standalone="no"?>
<svg
   xmlns:dc="http://purl.org/dc/elements/1.1/"
   xmlns:cc="http://creativecommons.org/ns#"
   xmlns:rdf="http://www.w3.org/1999/02/22-rdf-syntax-ns#"
   xmlns:svg="http://www.w3.org/2000/svg"
   xmlns="http://www.w3.org/2000/svg"
   xmlns:xlink="http://www.w3.org/1999/xlink"
   id="svg2"
   height="24"
   width="24"
   version="1.0">
  <metadata
     id="metadata29">
    <rdf:RDF>
      <cc:Work
         rdf:about="">
        <dc:format>image/svg+xml</dc:format>
        <dc:type
           rdf:resource="http://purl.org/dc/dcmitype/StillImage" />
        <dc:title />
      </cc:Work>
    </rdf:RDF>
  </metadata>
  <defs
     id="defs4">
    <linearGradient
       id="linearGradient8838">
      <stop
         offset="0"
         style="stop-color:#000000;stop-opacity:1"
         id="stop8840" />
      <stop
         offset="1"
         style="stop-color:#000000;stop-opacity:0"
         id="stop8842" />
    </linearGradient>
    <radialGradient
       gradientTransform="matrix(1.1294118,0,0,0.12941156,-58.729414,22.026471)"
       gradientUnits="userSpaceOnUse"
       xlink:href="#linearGradient8838"
       id="radialGradient2415"
       fy="4.625"
       fx="62.625"
       r="10.625"
       cy="4.625"
       cx="62.625" />
    <linearGradient
       id="linearGradient3846-7">
      <stop
         offset="0"
         style="stop-color:#fff3cb;stop-opacity:1"
         id="stop3848-7" />
      <stop
         offset="0.26238"
         style="stop-color:#fdde76;stop-opacity:1"
         id="stop3850-5" />
      <stop
         offset="0.66093999"
         style="stop-color:#f9c440;stop-opacity:1"
         id="stop3852-9" />
      <stop
         offset="1"
         style="stop-color:#e48b20;stop-opacity:1"
         id="stop3854-2" />
    </linearGradient>
    <linearGradient
       id="linearGradient3117-8">
      <stop
         offset="0"
         style="stop-color:#ffffff;stop-opacity:1"
         id="stop3119-9" />
      <stop
         offset="0.56911701"
         style="stop-color:#ffffff;stop-opacity:0.23529412"
         id="stop3121-9" />
      <stop
         offset="0.93297637"
         style="stop-color:#ffffff;stop-opacity:0.15686275"
         id="stop3123-6" />
      <stop
         offset="1"
         style="stop-color:#ffffff;stop-opacity:0.39215687"
         id="stop3125-3" />
    </linearGradient>
    <linearGradient
       id="linearGradient3856-1-6">
      <stop
         offset="0"
         style="stop-color:#634215;stop-opacity:1"
         id="stop3858-0-6" />
      <stop
         offset="1"
         style="stop-color:#93700d;stop-opacity:1"
         id="stop3860-2-8" />
    </linearGradient>
    <linearGradient
       gradientTransform="matrix(0.49373581,0,-0.00214922,0.51518426,-2.3383831,-7.425973)"
       gradientUnits="userSpaceOnUse"
       xlink:href="#linearGradient3117-8"
       id="linearGradient3091"
       y2="57.567127"
       x2="29.291178"
       y1="19.787613"
       x1="29.126724" />
    <linearGradient
       gradientTransform="matrix(0.48890916,0,0,0.48839827,0.26618161,0.74232159)"
       gradientUnits="userSpaceOnUse"
       xlink:href="#linearGradient3846-7"
       id="linearGradient3094"
       y2="54.669891"
       x2="24"
       y1="-14.603537"
       x1="24" />
    <linearGradient
       gradientUnits="userSpaceOnUse"
       y2="6"
       x2="12"
       y1="21"
       x1="12"
       id="linearGradient4204"
       xlink:href="#linearGradient3856-1-6" />
  </defs>
  <g
     id="g4168">
    <path
       d="M 24,22.625 C 24,23.384391 18.627417,24 12,24 5.3725828,24 -2.5e-7,23.384391 -2.5e-7,22.625 -2.5e-7,21.865609 5.3725828,21.25 12,21.25 c 6.627417,0 12,0.615609 12,1.375 z"
       id="path8836"
       style="display:inline;overflow:visible;visibility:visible;opacity:0.3;fill:url(#radialGradient2415);fill-opacity:1;fill-rule:evenodd;stroke:none;stroke-width:0.99999988;marker:none" />
    <path
       d="M 22.843441,20.277765 13.294944,2.2776819 C 13.020489,1.7776818 12.523879,1.4999018 11.970799,1.4999018 c -0.553075,0 -1.052235,0.33333 -1.330855,0.8333351 L 1.1625466,20.333325 c -0.22308499,0.444445 -0.22563499,1.05556 0.04905,1.500005 0.27468,0.44445 0.716215,0.66667 1.269296,0.66667 l 19.0258884,0 c 0.55308,0 1.052005,-0.27778 1.275095,-0.722225 0.278385,-0.444445 0.280705,-1.000005 0.06156,-1.50001 z"
       id="path11155-5"
       style="fill:url(#linearGradient3094);fill-opacity:1;fill-rule:nonzero;stroke:none" />
    <path
       d="M 21.554469,19.506436 13.009293,3.9158521 c -0.363933,-0.6933859 -0.494462,-1.415852 -1.047538,-1.415852 -0.475681,0 -0.724576,0.8239925 -1.068333,1.4784949 l -8.4503241,15.57762 c -0.490695,0.902951 -0.543267,1.138323 -0.307081,1.535746 0.236181,0.397428 0.539433,0.375782 1.659914,0.401703 l 16.6086101,0 c 1.043148,0.01297 1.278124,-0.06692 1.470057,-0.464346 0.2395,-0.397427 0.137629,-0.712731 -0.320129,-1.522782 z"
       id="path11159-4"
       style="opacity:0.6;fill:none;stroke:url(#linearGradient3091);stroke-width:1;stroke-miterlimit:4;stroke-dasharray:none;stroke-opacity:1" />
    <path
       d="M 22.843441,20.277775 13.294944,2.2777769 C 13.020489,1.7777792 12.523879,1.5000004 11.970799,1.5000004 c -0.553075,0 -1.052235,0.3333285 -1.330855,0.8333312 L 1.1625466,20.333335 C 0.93946161,20.777778 0.93691161,21.38889 1.2115966,21.833333 1.4862766,22.277781 1.9278116,22.5 2.4808916,22.5 l 19.0258894,0 c 0.55308,0 1.052005,-0.277779 1.275095,-0.722222 0.278385,-0.444443 0.280705,-1 0.06156,-1.500003 z"
       id="path11155-8"
       style="opacity:0.4;fill:none;stroke:#311d00;stroke-width:0.99999982;stroke-miterlimit:4;stroke-dasharray:none;stroke-opacity:1" />
    <path
       id="path4164"
       d="m 11,8 c 0,0 -0.01983,3.675205 0.110485,5.505859 C 11.194029,14.679467 11.5,17 11.5,17 l 1,0 c 0,0 0.339116,-2.320533 0.42266,-3.494141 C 13.052977,11.675205 13,8 13,8 Z m 1,11 c -0.552285,0 -1,0.447715 -1,1 0,0.552285 0.447715,1 1,1 0.552285,0 1,-0.447715 1,-1 0,-0.552285 -0.447715,-1 -1,-1 z"
       style="opacity:0.3;fill:#ffffff;fill-opacity:1;stroke:none;stroke-width:1;stroke-linejoin:round;stroke-miterlimit:4;stroke-dasharray:none;stroke-opacity:0.49803922" />
    <path
       style="opacity:1;fill:url(#linearGradient4204);fill-opacity:1;stroke:none;stroke-width:1;stroke-linejoin:round;stroke-miterlimit:4;stroke-dasharray:none;stroke-opacity:0.49803922"
       d="m 11,7 c 0,0 -0.01983,3.675205 0.110485,5.505859 C 11.194029,13.679467 11.5,16 11.5,16 l 1,0 c 0,0 0.339116,-2.320533 0.42266,-3.494141 C 13.052977,10.675205 13,7 13,7 Z m 1,11 c -0.552285,0 -1,0.447715 -1,1 0,0.552285 0.447715,1 1,1 0.552285,0 1,-0.447715 1,-1 0,-0.552285 -0.447715,-1 -1,-1 z"
       id="path4159" />
  </g>
</svg>
