<?xml version="1.0" encoding="UTF-8" standalone="no"?>
<!-- Created with Inkscape (http://www.inkscape.org/) -->

<svg
   xmlns:svg="http://www.w3.org/2000/svg"
   xmlns="http://www.w3.org/2000/svg"
   xmlns:xlink="http://www.w3.org/1999/xlink"
   version="1.0"
   width="24"
   height="24"
   id="svg2">
  <defs
     id="defs4">
    <linearGradient
       id="linearGradient3564-531">
      <stop
         id="stop4452"
         style="stop-color:white;stop-opacity:0.37288135"
         offset="0" />
      <stop
         id="stop4454"
         style="stop-color:#a9a9a9;stop-opacity:0"
         offset="1" />
    </linearGradient>
    <linearGradient
       x1="24"
       y1="16.525082"
       x2="24"
       y2="13.284962"
       id="linearGradient2640"
       xlink:href="#linearGradient3564-531"
       gradientUnits="userSpaceOnUse"
       gradientTransform="matrix(0.1938623,0,0,0.11461,-14.098479,-20.764044)" />
    <linearGradient
       x1="15.036061"
       y1="11.205624"
       x2="19.776941"
       y2="18.184662"
       id="linearGradient2638"
       xlink:href="#linearGradient10033-588-987"
       gradientUnits="userSpaceOnUse"
       gradientTransform="matrix(0.1938623,0,0,0.11461,-14.098479,-20.764044)" />
    <linearGradient
       id="linearGradient4173-908-339">
      <stop
         id="stop4476"
         style="stop-color:#b2b2b2;stop-opacity:1"
         offset="0" />
      <stop
         id="stop4478"
         style="stop-color:#e6e6e6;stop-opacity:1"
         offset="1" />
    </linearGradient>
    <linearGradient
       x1="21.714285"
       y1="10.285714"
       x2="27.038286"
       y2="10.285714"
       id="linearGradient2636"
       xlink:href="#linearGradient4173-908-339"
       gradientUnits="userSpaceOnUse"
       gradientTransform="matrix(0.5513378,0,0,0.6057331,-22.55605,-24.235253)" />
    <linearGradient
       id="linearGradient3539-33">
      <stop
         id="stop4440"
         style="stop-color:white;stop-opacity:1"
         offset="0" />
      <stop
         id="stop4442"
         style="stop-color:white;stop-opacity:0"
         offset="1" />
    </linearGradient>
    <linearGradient
       x1="24"
       y1="16.525082"
       x2="24"
       y2="13.284962"
       id="linearGradient2634"
       xlink:href="#linearGradient3539-33"
       gradientUnits="userSpaceOnUse"
       gradientTransform="matrix(0.5064111,0,0,0.3656364,-21.599651,-21.934183)" />
    <linearGradient
       id="linearGradient10033-588-987">
      <stop
         id="stop4446"
         style="stop-color:#e5e5e5;stop-opacity:1"
         offset="0" />
      <stop
         id="stop4448"
         style="stop-color:#b2b2b2;stop-opacity:1"
         offset="1" />
    </linearGradient>
    <linearGradient
       x1="15.036061"
       y1="11.205624"
       x2="19.776941"
       y2="18.184662"
       id="linearGradient2632"
       xlink:href="#linearGradient10033-588-987"
       gradientUnits="userSpaceOnUse"
       gradientTransform="matrix(0.5064111,0,0,0.3656364,-21.599651,-21.934183)" />
    <linearGradient
       id="linearGradient3598-871-484-814-161-889-287-317-39-832-450">
      <stop
         id="stop2517"
         style="stop-color:#e8f240;stop-opacity:1"
         offset="0" />
      <stop
         id="stop2519"
         style="stop-color:#899110;stop-opacity:1"
         offset="1" />
    </linearGradient>
    <linearGradient
       x1="24"
       y1="16.525082"
       x2="24"
       y2="13.284962"
       id="linearGradient2630"
       xlink:href="#linearGradient3598-871-484-814-161-889-287-317-39-832-450"
       gradientUnits="userSpaceOnUse"
       gradientTransform="matrix(0.5064111,0,0,0.3656364,-21.600045,-11.934183)" />
    <linearGradient
       id="linearGradient3592-990-183-196-279-371-272-744-724-968-795">
      <stop
         id="stop2511"
         style="stop-color:#cbd255;stop-opacity:1"
         offset="0" />
      <stop
         id="stop2513"
         style="stop-color:#b0ba09;stop-opacity:1"
         offset="1" />
    </linearGradient>
    <linearGradient
       x1="15.036061"
       y1="11.205624"
       x2="19.776941"
       y2="18.184662"
       id="linearGradient2628"
       xlink:href="#linearGradient3592-990-183-196-279-371-272-744-724-968-795"
       gradientUnits="userSpaceOnUse"
       gradientTransform="matrix(0.5064111,0,0,0.3656364,-21.600045,-11.934183)" />
    <linearGradient
       id="linearGradient3578-995-735-4-566-885-385-488-812-692-807">
      <stop
         id="stop2523"
         style="stop-color:#777e01;stop-opacity:1"
         offset="0" />
      <stop
         id="stop2525"
         style="stop-color:#d4df24;stop-opacity:1"
         offset="1" />
    </linearGradient>
    <linearGradient
       x1="4"
       y1="13.500015"
       x2="10.142856"
       y2="13.500015"
       id="linearGradient2626"
       xlink:href="#linearGradient3578-995-735-4-566-885-385-488-812-692-807"
       gradientUnits="userSpaceOnUse"
       gradientTransform="matrix(0.8666667,0,0,1,-19.846178,-21.289172)"
       spreadMethod="reflect" />
    <linearGradient
       id="linearGradient4151-767-958">
      <stop
         id="stop4470"
         style="stop-color:#979797;stop-opacity:1"
         offset="0" />
      <stop
         id="stop4472"
         style="stop-color:#d5d5d5;stop-opacity:1"
         offset="1" />
    </linearGradient>
    <linearGradient
       x1="4"
       y1="13.500015"
       x2="10.142856"
       y2="13.500015"
       id="linearGradient2624"
       xlink:href="#linearGradient4151-767-958"
       gradientUnits="userSpaceOnUse"
       gradientTransform="matrix(0.8666667,0,0,1,-19.846179,-21.289172)"
       spreadMethod="reflect" />
  </defs>
  <g
     id="layer1">
    <g
       id="g2563">
      <g
         transform="translate(21.445783,20.289157)"
         id="g2616">
        <path
           d="m -9.4461776,-18.789156 c -3.5959274,0 -6.5000004,0.889355 -6.5000004,2 0,6.666667 0,11.1458317 0,17.8124995 0.0014,0.00869 0.02755,0.021488 0.03125,0.03125 -0.01161,0.049043 -0.03125,0.106297 -0.03125,0.15625 0,1.110072 2.905928,2 6.5000004,2 3.594072,0 6.5,-0.889929 6.5,-2 0,-0.019426 0.00177,-0.043206 0,-0.0625 0,-6.6666668 0,-11.2708325 0,-17.9374995 0,-1.110645 -2.904074,-2 -6.5,-2 z"
           id="rect2432"
           style="opacity:0.4;fill:url(#linearGradient2624);fill-opacity:1;fill-rule:nonzero;stroke:#575757;stroke-width:0.99999994;stroke-linecap:round;stroke-linejoin:round;stroke-miterlimit:10;stroke-opacity:1;stroke-dasharray:none;stroke-dashoffset:0;marker:none;visibility:visible;display:inline;overflow:visible;enable-background:accumulate" />
        <path
           d="m -15.946178,-6.7891565 c 0,6.66666696 0,1.1458322 0,7.8125 0.0014,0.00869 0.02755,0.021488 0.03125,0.03125 -0.01161,0.049043 -0.03125,0.106297 -0.03125,0.15625 0,1.110072 2.905928,2 6.5000004,2 3.594072,0 6.5,-0.889929 6.5,-2 0,-0.019426 0.00177,-0.043206 0,-0.0625 0,-6.6666668 0,-1.27083304 0,-7.9375 -4.333333,0 -8.6666664,0 -13.0000004,0 z"
           id="path2481"
           style="fill:url(#linearGradient2626);fill-opacity:1;fill-rule:nonzero;stroke:#899110;stroke-width:0.99999994;stroke-linecap:round;stroke-linejoin:round;stroke-miterlimit:10;stroke-opacity:1;stroke-dasharray:none;stroke-dashoffset:0;marker:none;visibility:visible;display:inline;overflow:visible;enable-background:accumulate" />
        <path
           d="m -2.9351786,-6.7891565 c 0,1.110645 -2.915074,2.011 -6.511,2.011 -3.5959264,0 -6.5109994,-0.900355 -6.5109994,-2.011 0,-1.110645 2.915073,-2.0110005 6.5109994,-2.0110005 3.595926,0 6.511,0.9003555 6.511,2.0110005 l 0,0 z"
           id="path2483"
           style="fill:url(#linearGradient2628);fill-opacity:1;fill-rule:nonzero;stroke:url(#linearGradient2630);stroke-width:0.97799999;stroke-linecap:butt;stroke-linejoin:round;stroke-miterlimit:10;stroke-opacity:1;stroke-dasharray:none;stroke-dashoffset:0;marker:none;visibility:visible;display:block;overflow:visible" />
        <path
           d="m -2.9347846,-16.789157 c 0,1.110645 -2.915073,2.011001 -6.510999,2.011001 -3.5959264,0 -6.5110004,-0.900356 -6.5110004,-2.011001 0,-1.110644 2.915074,-2.011 6.5110004,-2.011 3.595926,0 6.510999,0.900356 6.510999,2.011 l 0,0 z"
           id="path3243"
           style="opacity:0.4;fill:url(#linearGradient2632);fill-opacity:1;fill-rule:nonzero;stroke:url(#linearGradient2634);stroke-width:0.97799999;stroke-linecap:butt;stroke-linejoin:round;stroke-miterlimit:10;stroke-opacity:1;stroke-dasharray:none;stroke-dashoffset:0;marker:none;visibility:visible;display:block;overflow:visible" />
        <path
           d="m -9.3848956,-19.618125 c -1.3001004,-0.01827 -2.5534034,0.26074 -2.5534034,0.645757 0,0.03819 0,1.292732 0,1.332501 0,0.532146 1.449186,0.843226 2.5534034,0.843226 1.104215,0 2.431627,-0.31108 2.431627,-0.843226 0,-0.0315 0,-1.050678 0,-1.332501 0,-0.281822 -1.11929,-0.62731 -2.431627,-0.645757 z"
           id="path3251"
           style="opacity:0.3;fill:url(#linearGradient2636);fill-opacity:1;fill-rule:nonzero;stroke:#919191;stroke-width:1.01496899;stroke-linecap:butt;stroke-linejoin:round;stroke-miterlimit:10;stroke-opacity:1;stroke-dasharray:none;stroke-dashoffset:0;marker:none;visibility:visible;display:block;overflow:visible" />
        <path
           d="m -6.9532686,-19.151317 c 0,0.348135 -1.115937,0.630355 -2.492515,0.630355 -1.3765784,0 -2.4925154,-0.28222 -2.4925154,-0.630355 0,-0.348136 1.115937,-0.630355 2.4925154,-0.630355 1.376578,0 2.492515,0.282219 2.492515,0.630355 l 0,0 z"
           id="path3253"
           style="opacity:0.4;fill:url(#linearGradient2638);fill-opacity:1;fill-rule:nonzero;stroke:url(#linearGradient2640);stroke-width:1.01496887;stroke-linecap:butt;stroke-linejoin:round;stroke-miterlimit:10;stroke-opacity:1;stroke-dasharray:none;stroke-dashoffset:0;marker:none;visibility:visible;display:block;overflow:visible" />
      </g>
    </g>
    <g
       transform="translate(15.399536,0.1029982)"
       id="g2501">
      <path
         d="M 10,6 C 9.3341626,6 8.7657796,6.1717204 8.40625,6.53125 8.2264852,6.7110148 8.1200789,6.9210132 8.0625,7.09375 8.0049211,7.2664868 8,7.5 8,7.5 l 0,2.875 c -0.5510374,0.31611 -1,0.783823 -1,1.46875 l 0,5.3125 C 7,18.209 7.9282149,19 8.9375,19 L 10,19 l 0,4 c -0.0013,0.265614 0.103633,0.520727 0.291453,0.708547 C 10.479273,23.896367 10.734386,24.001305 11,24 l 2,0 c 0.265614,0.0013 0.520727,-0.103633 0.708547,-0.291453 C 13.896367,23.520727 14.001305,23.265614 14,23 l 0,-4 1.0625,0 C 16.071785,19 17,18.208999 17,17.15625 l 0,-5.3125 C 17,11.158822 16.551037,10.69111 16,10.375 L 16,7.5 C 16,7.5 15.9951,7.2664868 15.9375,7.09375 15.879921,6.9210132 15.773515,6.7110148 15.59375,6.53125 15.23422,6.1717204 14.665837,6 14,6 13.334163,6 12.76578,6.1717204 12.40625,6.53125 12.226485,6.7110148 12.120079,6.9210132 12.0625,7.09375 12.004921,7.2664868 12,7.5 12,7.5 12,7.5 11.995079,7.2664868 11.9375,7.09375 11.879921,6.9210132 11.773515,6.7110148 11.59375,6.53125 11.23422,6.1717204 10.665837,6 10,6 z"
         transform="translate(-15.399536,-0.1030102)"
         id="path3518"
         style="opacity:0.2;fill:white;fill-opacity:1;fill-rule:nonzero;stroke:none;stroke-width:0.97799999;marker:none;visibility:visible;display:block;overflow:visible;enable-background:accumulate" />
      <path
         d="m -5.399536,6.8969898 c -1,0 -1,0.5 -1,0.5 l 0,3.5000002 -0.0625,0 c -0.5263477,0 -0.9375,0.383196 -0.9375,0.84375 l 0,5.3125 c 0,0.460554 0.4111527,0.84375 0.9375,0.84375 l 2.0625,0 0,5 2,0 0,-5 2.0625,0 c 0.526348,0 0.9375,-0.383196 0.9375,-0.84375 l 0,-5.3125 c 0,-0.460554 -0.411153,-0.84375 -0.9375,-0.84375 l -0.0625,0 0,-3.5000002 c 0,0 0,-0.5 -1,-0.5 -1,0 -1,0.5 -1,0.5 l 0,3.5000002 -2,0 0,-3.5000002 c 0,0 0,-0.5 -1,-0.5 z"
         id="rect2736"
         style="fill:black;fill-opacity:1;fill-rule:nonzero;stroke:none;stroke-width:0.97799999;marker:none;visibility:visible;display:block;overflow:visible;enable-background:accumulate" />
    </g>
  </g>
</svg>
