<?xml version="1.0" encoding="UTF-8" standalone="no"?>
<!-- Created with Inkscape (http://www.inkscape.org/) -->

<svg
   xmlns:svg="http://www.w3.org/2000/svg"
   xmlns="http://www.w3.org/2000/svg"
   xmlns:xlink="http://www.w3.org/1999/xlink"
   version="1.0"
   width="24"
   height="24"
   id="svg2">
  <defs
     id="defs4">
    <linearGradient
       id="linearGradient4151-767-958">
      <stop
         id="stop4470"
         style="stop-color:#979797;stop-opacity:1"
         offset="0" />
      <stop
         id="stop4472"
         style="stop-color:#d5d5d5;stop-opacity:1"
         offset="1" />
    </linearGradient>
    <linearGradient
       x1="4"
       y1="13.500015"
       x2="10.142856"
       y2="13.500015"
       id="linearGradient2600"
       xlink:href="#linearGradient4151-767-958"
       gradientUnits="userSpaceOnUse"
       gradientTransform="matrix(0.8666667,0,0,1,1.599604,-1.000015)"
       spreadMethod="reflect" />
    <linearGradient
       id="linearGradient3578-995-735-4-566-885-385-488-812-692-152-891-595-75-723-117">
      <stop
         id="stop3885"
         style="stop-color:#980000;stop-opacity:1"
         offset="0" />
      <stop
         id="stop3887"
         style="stop-color:#e23b3b;stop-opacity:1"
         offset="1" />
    </linearGradient>
    <linearGradient
       x1="4"
       y1="13.500015"
       x2="10.142856"
       y2="13.500015"
       id="linearGradient2597"
       xlink:href="#linearGradient3578-995-735-4-566-885-385-488-812-692-152-891-595-75-723-117"
       gradientUnits="userSpaceOnUse"
       gradientTransform="matrix(0.8666667,0,0,1,1.599605,-1.000015)"
       spreadMethod="reflect" />
    <linearGradient
       id="linearGradient3598-871-484-814-161-889-287-317-39-832-137-228-881-69-232-738">
      <stop
         id="stop3873"
         style="stop-color:#f48d58;stop-opacity:1"
         offset="0" />
      <stop
         id="stop3875"
         style="stop-color:#a82810;stop-opacity:1"
         offset="1" />
    </linearGradient>
    <linearGradient
       x1="24"
       y1="16.525082"
       x2="24"
       y2="13.284962"
       id="linearGradient2593"
       xlink:href="#linearGradient3598-871-484-814-161-889-287-317-39-832-137-228-881-69-232-738"
       gradientUnits="userSpaceOnUse"
       gradientTransform="matrix(0.5064111,0,0,0.3656364,-0.154262,12.354974)" />
    <linearGradient
       id="linearGradient3592-990-183-196-279-371-272-744-724-968-107-975-174-587-712-765">
      <stop
         id="stop3867"
         style="stop-color:#d76565;stop-opacity:1"
         offset="0" />
      <stop
         id="stop3869"
         style="stop-color:#d30808;stop-opacity:1"
         offset="1" />
    </linearGradient>
    <linearGradient
       x1="15.036061"
       y1="11.205624"
       x2="19.776941"
       y2="18.184662"
       id="linearGradient2591"
       xlink:href="#linearGradient3592-990-183-196-279-371-272-744-724-968-107-975-174-587-712-765"
       gradientUnits="userSpaceOnUse"
       gradientTransform="matrix(0.5064111,0,0,0.3656364,-0.154262,12.354974)" />
    <linearGradient
       id="linearGradient3539-33">
      <stop
         id="stop4440"
         style="stop-color:white;stop-opacity:1"
         offset="0" />
      <stop
         id="stop4442"
         style="stop-color:white;stop-opacity:0"
         offset="1" />
    </linearGradient>
    <linearGradient
       x1="24"
       y1="16.525082"
       x2="24"
       y2="13.284962"
       id="linearGradient2588"
       xlink:href="#linearGradient3539-33"
       gradientUnits="userSpaceOnUse"
       gradientTransform="matrix(0.5064111,0,0,0.3656364,-0.153868,-1.645026)" />
    <linearGradient
       x1="15.036061"
       y1="11.205624"
       x2="19.776941"
       y2="18.184662"
       id="linearGradient2586"
       xlink:href="#linearGradient10033-588-987"
       gradientUnits="userSpaceOnUse"
       gradientTransform="matrix(0.5064111,0,0,0.3656364,-0.153868,-1.645026)" />
    <linearGradient
       id="linearGradient4173-908-339">
      <stop
         id="stop4476"
         style="stop-color:#b2b2b2;stop-opacity:1"
         offset="0" />
      <stop
         id="stop4478"
         style="stop-color:#e6e6e6;stop-opacity:1"
         offset="1" />
    </linearGradient>
    <linearGradient
       x1="21.714285"
       y1="10.285714"
       x2="27.038286"
       y2="10.285714"
       id="linearGradient2582"
       xlink:href="#linearGradient4173-908-339"
       gradientUnits="userSpaceOnUse"
       gradientTransform="matrix(0.5513378,0,0,0.6057331,-1.110267,-3.946096)" />
    <linearGradient
       id="linearGradient3564-531">
      <stop
         id="stop4452"
         style="stop-color:white;stop-opacity:0.37288135"
         offset="0" />
      <stop
         id="stop4454"
         style="stop-color:#a9a9a9;stop-opacity:0"
         offset="1" />
    </linearGradient>
    <linearGradient
       x1="24"
       y1="16.525082"
       x2="24"
       y2="13.284962"
       id="linearGradient2579"
       xlink:href="#linearGradient3564-531"
       gradientUnits="userSpaceOnUse"
       gradientTransform="matrix(0.1938623,0,0,0.11461,7.347304,-0.474887)" />
    <linearGradient
       id="linearGradient10033-588-987">
      <stop
         id="stop4446"
         style="stop-color:#e5e5e5;stop-opacity:1"
         offset="0" />
      <stop
         id="stop4448"
         style="stop-color:#b2b2b2;stop-opacity:1"
         offset="1" />
    </linearGradient>
    <linearGradient
       x1="15.036061"
       y1="11.205624"
       x2="19.776941"
       y2="18.184662"
       id="linearGradient2577"
       xlink:href="#linearGradient10033-588-987"
       gradientUnits="userSpaceOnUse"
       gradientTransform="matrix(0.1938623,0,0,0.11461,7.347304,-0.474887)" />
  </defs>
  <g
     id="layer1">
    <path
       d="m 11.999605,1.500001 c -3.595927,0 -6.5,0.889355 -6.5,2 0,6.666667 0,11.145832 0,17.812499 0.00145,0.0087 0.027551,0.02149 0.03125,0.03125 -0.01161,0.04904 -0.03125,0.106298 -0.03125,0.15625 0,1.110073 2.905928,2 6.5,2 3.594072,0 6.5,-0.889928 6.5,-2 0,-0.01943 0.0018,-0.04321 0,-0.0625 0,-6.666666 0,-11.270832 0,-17.937499 0,-1.110645 -2.904074,-2 -6.5,-2 z"
       id="rect2432"
       style="opacity:0.4;fill:url(#linearGradient2600);fill-opacity:1;fill-rule:nonzero;stroke:#575757;stroke-width:0.99999994;stroke-linecap:round;stroke-linejoin:round;stroke-miterlimit:10;stroke-opacity:1;stroke-dasharray:none;stroke-dashoffset:0;marker:none;visibility:visible;display:inline;overflow:visible;enable-background:accumulate" />
    <path
       d="m 5.499605,17.578762 c 0,6.666667 0,-2.932929 0,3.733738 0.00145,0.0087 0.027551,0.02149 0.03125,0.03125 -0.011609,0.04904 -0.03125,0.106298 -0.03125,0.15625 0,1.110073 2.905928,2 6.5,2 3.594072,0 6.5,-0.889928 6.5,-2 0,-0.01943 0.0018,-0.04321 0,-0.0625 0,-6.666666 0,2.807929 0,-3.858738 -4.333333,0 -8.666666,0 -13,0 z"
       id="path2481"
       style="fill:url(#linearGradient2597);fill-opacity:1;fill-rule:nonzero;stroke:#a82810;stroke-width:0.99999994;stroke-linecap:round;stroke-linejoin:round;stroke-miterlimit:10;stroke-opacity:1;stroke-dasharray:none;stroke-dashoffset:0;marker:none;visibility:visible;display:inline;overflow:visible;enable-background:accumulate" />
    <path
       d="m 18.510604,17.5 c 0,1.110646 -2.915074,2.011 -6.511,2.011 -3.595926,0 -6.510999,-0.900354 -6.510999,-2.011 0,-1.110644 2.915073,-2.011 6.510999,-2.011 3.595926,0 6.511,0.900356 6.511,2.011 l 0,0 z"
       id="path2483"
       style="fill:url(#linearGradient2591);fill-opacity:1;fill-rule:nonzero;stroke:url(#linearGradient2593);stroke-width:0.97799999;stroke-linecap:butt;stroke-linejoin:round;stroke-miterlimit:10;stroke-opacity:1;stroke-dasharray:none;stroke-dashoffset:0;marker:none;visibility:visible;display:block;overflow:visible" />
    <path
       d="m 18.510998,3.5 c 0,1.110645 -2.915073,2.011001 -6.510999,2.011001 -3.595926,0 -6.511,-0.900356 -6.511,-2.011001 0,-1.110644 2.915074,-2.011 6.511,-2.011 3.595926,0 6.510999,0.900356 6.510999,2.011 l 0,0 z"
       id="path3243"
       style="opacity:0.4;fill:url(#linearGradient2586);fill-opacity:1;fill-rule:nonzero;stroke:url(#linearGradient2588);stroke-width:0.97799999;stroke-linecap:butt;stroke-linejoin:round;stroke-miterlimit:10;stroke-opacity:1;stroke-dasharray:none;stroke-dashoffset:0;marker:none;visibility:visible;display:block;overflow:visible" />
    <path
       d="m 12.060887,0.671032 c -1.3001,-0.018274 -2.553403,0.26074 -2.553403,0.645757 0,0.038186 0,1.292732 0,1.332501 0,0.532146 1.449186,0.843226 2.553403,0.843226 1.104215,0 2.431627,-0.31108 2.431627,-0.843226 0,-0.031498 0,-1.050678 0,-1.332501 0,-0.281822 -1.11929,-0.62731 -2.431627,-0.645757 z"
       id="path3251"
       style="opacity:0.3;fill:url(#linearGradient2582);fill-opacity:1;fill-rule:nonzero;stroke:#919191;stroke-width:1.01496899;stroke-linecap:butt;stroke-linejoin:round;stroke-miterlimit:10;stroke-opacity:1;stroke-dasharray:none;stroke-dashoffset:0;marker:none;visibility:visible;display:block;overflow:visible" />
    <path
       d="m 14.492514,1.13784 c 0,0.348135 -1.115937,0.630355 -2.492515,0.630355 -1.376578,0 -2.492515,-0.28222 -2.492515,-0.630355 0,-0.348136 1.115937,-0.630355 2.492515,-0.630355 1.376578,0 2.492515,0.282219 2.492515,0.630355 l 0,0 z"
       id="path3253"
       style="opacity:0.4;fill:url(#linearGradient2577);fill-opacity:1;fill-rule:nonzero;stroke:url(#linearGradient2579);stroke-width:1.01496887;stroke-linecap:butt;stroke-linejoin:round;stroke-miterlimit:10;stroke-opacity:1;stroke-dasharray:none;stroke-dashoffset:0;marker:none;visibility:visible;display:block;overflow:visible" />
  </g>
</svg>
