<?xml version="1.0" encoding="UTF-8" standalone="no"?>
<svg
   version="1.1"
   width="24"
   height="24"
   id="svg7384"
   sodipodi:docname="media-playlist-repeat-n1.svg"
   inkscape:version="1.1.1 (3bf5ae0d25, 2021-09-20)"
   xmlns:inkscape="http://www.inkscape.org/namespaces/inkscape"
   xmlns:sodipodi="http://sodipodi.sourceforge.net/DTD/sodipodi-0.dtd"
   xmlns:xlink="http://www.w3.org/1999/xlink"
   xmlns="http://www.w3.org/2000/svg"
   xmlns:svg="http://www.w3.org/2000/svg"
   xmlns:rdf="http://www.w3.org/1999/02/22-rdf-syntax-ns#"
   xmlns:cc="http://creativecommons.org/ns#"
   xmlns:dc="http://purl.org/dc/elements/1.1/">
  <sodipodi:namedview
     id="namedview72"
     pagecolor="#ffffff"
     bordercolor="#666666"
     borderopacity="1.0"
     inkscape:pageshadow="2"
     inkscape:pageopacity="0.0"
     inkscape:pagecheckerboard="0"
     showgrid="false"
     inkscape:zoom="16"
     inkscape:cx="10.6875"
     inkscape:cy="25"
     inkscape:window-width="1396"
     inkscape:window-height="992"
     inkscape:window-x="371"
     inkscape:window-y="431"
     inkscape:window-maximized="0"
     inkscape:current-layer="svg7384" />
  <title
     id="title9167">elementary Symbolic Icon Theme</title>
  <defs
     id="defs11">
    <linearGradient
       id="linearGradient7809">
      <stop
         id="stop7801"
         style="stop-color:#ffffff;stop-opacity:1"
         offset="0" />
      <stop
         id="stop7803"
         style="stop-color:#ffffff;stop-opacity:0.23529412"
         offset="0.23286714" />
      <stop
         id="stop7805"
         style="stop-color:#ffffff;stop-opacity:0.15686275"
         offset="1" />
      <stop
         id="stop7807"
         style="stop-color:#ffffff;stop-opacity:0.39215687"
         offset="1" />
    </linearGradient>
    <linearGradient
       id="linearGradient17232">
      <stop
         id="stop17224"
         style="stop-color:#ffffff;stop-opacity:1"
         offset="0" />
      <stop
         id="stop17226"
         style="stop-color:#ffffff;stop-opacity:0.23529412"
         offset="0.25905123" />
      <stop
         id="stop17228"
         style="stop-color:#ffffff;stop-opacity:0.15686275"
         offset="0.85347778" />
      <stop
         id="stop17230"
         style="stop-color:#ffffff;stop-opacity:0.39215687"
         offset="1" />
    </linearGradient>
    <linearGradient
       id="linearGradient12052">
      <stop
         id="stop12044"
         style="stop-color:#ffffff;stop-opacity:1"
         offset="0" />
      <stop
         id="stop12046"
         style="stop-color:#ffffff;stop-opacity:0.23529412"
         offset="0" />
      <stop
         id="stop12048"
         style="stop-color:#ffffff;stop-opacity:0.15686275"
         offset="0.57142854" />
      <stop
         id="stop12050"
         style="stop-color:#ffffff;stop-opacity:0.39215687"
         offset="1" />
    </linearGradient>
    <linearGradient
       id="linearGradient8043">
      <stop
         id="stop8035"
         style="stop-color:#ffffff;stop-opacity:1"
         offset="0" />
      <stop
         id="stop8039"
         style="stop-color:#ffffff;stop-opacity:0.15686275"
         offset="1" />
      <stop
         id="stop8041"
         style="stop-color:#ffffff;stop-opacity:0.39215687"
         offset="1" />
    </linearGradient>
    <linearGradient
       id="linearGradient6414">
      <stop
         id="stop6406"
         style="stop-color:#ffffff;stop-opacity:1"
         offset="0" />
      <stop
         id="stop6408"
         style="stop-color:#ffffff;stop-opacity:0.23529412"
         offset="0.00339437" />
      <stop
         id="stop6410"
         style="stop-color:#ffffff;stop-opacity:0.15686275"
         offset="0.85347778" />
      <stop
         id="stop6412"
         style="stop-color:#ffffff;stop-opacity:0.39215687"
         offset="1" />
    </linearGradient>
    <linearGradient
       id="linearGradient895">
      <stop
         style="stop-color:#64baff;stop-opacity:1"
         offset="0"
         id="stop891" />
      <stop
         style="stop-color:#3689e6;stop-opacity:1"
         offset="1"
         id="stop893" />
    </linearGradient>
    <linearGradient
       id="linearGradient3778">
      <stop
         offset="0"
         style="stop-color:#499119;stop-opacity:1"
         id="stop3780" />
      <stop
         offset="1"
         style="stop-color:#8fd625;stop-opacity:1"
         id="stop3782" />
    </linearGradient>
    <linearGradient
       id="linearGradient5010">
      <stop
         offset="0"
         style="stop-color:#000000;stop-opacity:1"
         id="stop5012" />
      <stop
         offset="1"
         style="stop-color:#000000;stop-opacity:0"
         id="stop5014" />
    </linearGradient>
    <linearGradient
       gradientTransform="scale(1.0058652,0.994169)"
       gradientUnits="userSpaceOnUse"
       id="ButtonShadow"
       y2="7.0165396"
       x2="45.447727"
       y1="92.539597"
       x1="45.447727">
      <stop
         offset="0"
         style="stop-color:#000000;stop-opacity:1"
         id="stop3750" />
      <stop
         offset="1"
         style="stop-color:#000000;stop-opacity:0.58823532"
         id="stop3752" />
    </linearGradient>
    <linearGradient
       id="linearGradient3737">
      <stop
         offset="0"
         style="stop-color:#ffffff;stop-opacity:1"
         id="stop3739" />
      <stop
         offset="1"
         style="stop-color:#ffffff;stop-opacity:0"
         id="stop3741" />
    </linearGradient>
    <filter
       id="filter3174"
       color-interpolation-filters="sRGB"
       x="-0.047720931"
       y="-0.047172415"
       width="1.0954419"
       height="1.0943448">
      <feGaussianBlur
         id="feGaussianBlur3176"
         stdDeviation="1.71" />
    </filter>
    <linearGradient
       gradientTransform="matrix(0.625,0,0,0.625,28.5,31.25)"
       gradientUnits="userSpaceOnUse"
       xlink:href="#linearGradient3737"
       id="linearGradient3832"
       y2="50.068527"
       x2="65.262688"
       y1="64.205269"
       x1="65.262688" />
    <linearGradient
       gradientTransform="matrix(0.9375,0,0,0.9375,-140.5,3.5)"
       gradientUnits="userSpaceOnUse"
       xlink:href="#linearGradient3778"
       id="linearGradient3773"
       y2="72"
       x2="88"
       y1="72"
       x1="56" />
    <linearGradient
       gradientTransform="translate(0,4)"
       gradientUnits="userSpaceOnUse"
       xlink:href="#linearGradient3737"
       id="linearGradient3788"
       y2="75.095024"
       x2="70"
       y1="54"
       x1="70" />
    <filter
       id="filter3806"
       color-interpolation-filters="sRGB"
       x="-0.096000004"
       y="-0.096000004"
       width="1.192"
       height="1.192">
      <feGaussianBlur
         id="feGaussianBlur3808"
         stdDeviation="1.2" />
    </filter>
    <linearGradient
       gradientTransform="matrix(0.625,0,0,0.625,78.5,32.25)"
       gradientUnits="userSpaceOnUse"
       xlink:href="#linearGradient5010"
       id="linearGradient3812"
       y2="50.068527"
       x2="65.262688"
       y1="64.205269"
       x1="65.262688" />
    <clipPath
       id="clipPath3823">
      <path
         style="fill:#ffffff;fill-opacity:1;stroke:none"
         id="path3825"
         d="M 108.8125,58 C 107.25437,58 106,59.254375 106,60.8125 v 24.375 C 106,86.745625 107.25437,88 108.8125,88 h 24.375 C 134.74562,88 136,86.745625 136,85.1875 V 60.8125 C 136,59.254375 134.74562,58 133.1875,58 Z M 116,62.5 h 10 v 8.75 h 5 L 121,85 111,71.25 h 5 z" />
    </clipPath>
    <filter
       id="filter3831"
       color-interpolation-filters="sRGB"
       x="-0.076499999"
       y="-0.067999999"
       width="1.153"
       height="1.136">
      <feGaussianBlur
         id="feGaussianBlur3833"
         stdDeviation="0.6375" />
    </filter>
    <linearGradient
       id="linearGradient8838">
      <stop
         offset="0"
         style="stop-color:#000000;stop-opacity:1"
         id="stop8840" />
      <stop
         offset="1"
         style="stop-color:#000000;stop-opacity:0"
         id="stop8842" />
    </linearGradient>
    <radialGradient
       xlink:href="#linearGradient8838"
       id="radialGradient3389"
       gradientUnits="userSpaceOnUse"
       gradientTransform="matrix(-1.0350892,0,0,0.41825868,79.9814,12.121546)"
       cx="62.625"
       cy="4.625"
       fx="62.625"
       fy="4.625"
       r="10.625" />
    <linearGradient
       xlink:href="#linearGradient895"
       id="linearGradient5790"
       gradientUnits="userSpaceOnUse"
       gradientTransform="matrix(0.66660073,0,0,0.65857076,-22.581025,-4.4274025)"
       x1="42.826694"
       y1="8.2224846"
       x2="53.138168"
       y2="30.230047" />
    <linearGradient
       xlink:href="#linearGradient8043"
       id="linearGradient7785"
       gradientUnits="userSpaceOnUse"
       gradientTransform="matrix(0.6825355,0,0,0.59929373,-31.033791,-13.724157)"
       x1="52.230347"
       y1="32.684853"
       x2="63.877369"
       y2="48.741604" />
    <linearGradient
       xlink:href="#linearGradient17232"
       id="linearGradient8829"
       gradientUnits="userSpaceOnUse"
       gradientTransform="matrix(0.6825355,0,0,0.59929373,-31.033791,-13.724157)"
       x1="69.359962"
       y1="32.758953"
       x2="54.624588"
       y2="48.105118" />
    <linearGradient
       xlink:href="#linearGradient6414"
       id="linearGradient10833"
       gradientUnits="userSpaceOnUse"
       gradientTransform="matrix(-0.6825355,0,0,0.59929373,54.523847,-3.8599595)"
       x1="69.622124"
       y1="32.543869"
       x2="54.624588"
       y2="48.105118" />
    <linearGradient
       xlink:href="#linearGradient12052"
       id="linearGradient11927"
       gradientUnits="userSpaceOnUse"
       gradientTransform="matrix(-0.6825355,0,0,0.59929373,54.523847,-3.8599595)"
       x1="55.345631"
       y1="22.560646"
       x2="55.345631"
       y2="34.096859" />
    <linearGradient
       xlink:href="#linearGradient895"
       id="linearGradient14268"
       gradientUnits="userSpaceOnUse"
       gradientTransform="matrix(0.66660073,0,0,0.65857076,-21.581025,-5.4274025)"
       x1="55.249962"
       y1="22.357559"
       x2="55.249962"
       y2="39.954052" />
    <linearGradient
       inkscape:collect="always"
       xlink:href="#linearGradient3737"
       id="linearGradient18208"
       gradientUnits="userSpaceOnUse"
       gradientTransform="matrix(-0.6825355,0,0,-0.59929373,54.532649,38.72411)"
       x1="53.66935"
       y1="34.563251"
       x2="63.936485"
       y2="55.144562" />
    <linearGradient
       inkscape:collect="always"
       xlink:href="#linearGradient895"
       id="linearGradient18212"
       gradientUnits="userSpaceOnUse"
       gradientTransform="matrix(-0.66660073,0,0,-0.65857076,46.079883,29.427355)"
       x1="57.126194"
       y1="30.831554"
       x2="48.568024"
       y2="13.130678" />
    <linearGradient
       inkscape:collect="always"
       xlink:href="#linearGradient7809"
       id="linearGradient10416"
       gradientUnits="userSpaceOnUse"
       gradientTransform="matrix(-0.6825355,0,0,-0.59929373,54.532649,38.72411)"
       x1="67.941483"
       y1="35.956684"
       x2="52.816444"
       y2="19.685804" />
    <linearGradient
       xlink:href="#linearGradient895"
       id="linearGradient72-6"
       gradientUnits="userSpaceOnUse"
       gradientTransform="matrix(0.61253331,0,0,0.6008607,6.9512274,-0.6112304)"
       x1="12"
       y1="4"
       x2="12"
       y2="19.998161" />
  </defs>
  <metadata
     id="metadata90">
    <rdf:RDF>
      <cc:Work
         rdf:about="">
        <dc:format>image/svg+xml</dc:format>
        <dc:type
           rdf:resource="http://purl.org/dc/dcmitype/StillImage" />
        <dc:title>elementary Symbolic Icon Theme</dc:title>
      </cc:Work>
    </rdf:RDF>
  </metadata>
  <g
     transform="translate(-192.20351,-21.686655)"
     id="layer2"
     style="display:none">
    <path
       d="M 11,7 48,5 85,7 c 3.324,0 6,2.676 6,6 v 73 c 0,3.324 -2.676,6 -6,6 H 11 C 7.676,92 5,89.324 5,86 V 13 C 5,9.676 7.676,7 11,7 Z"
       id="rect3745"
       style="opacity:0.9;fill:url(#ButtonShadow);fill-opacity:1;fill-rule:nonzero;stroke:none;filter:url(#filter3174)" />
  </g>
  <g
     transform="translate(-192.20351,-21.686655)"
     id="layer4"
     style="display:none">
    <rect
       width="30"
       height="30"
       rx="2.8125"
       ry="2.8125"
       x="-86"
       y="56"
       transform="rotate(-90,2,2)"
       id="rect3790"
       style="opacity:0.6;fill:#000000;fill-opacity:1;stroke:none;filter:url(#filter3806)" />
    <rect
       width="30"
       height="30"
       rx="2.8125"
       ry="2.8125"
       x="-88"
       y="56"
       transform="rotate(-90)"
       id="rect2993"
       style="fill:url(#linearGradient3773);fill-opacity:1;stroke:none" />
    <path
       d="M 58.8125,58 C 57.254375,58 56,59.254375 56,60.8125 v 24.375 c 0,0.873066 0.410816,1.641163 1.03125,2.15625 C 57.02841,87.289908 57,87.242129 57,87.1875 V 62.8125 C 57,61.254375 58.17075,60 59.625,60 h 22.75 C 83.82925,60 85,61.254375 85,62.8125 v 24.375 c 0,0.05463 -0.02841,0.102408 -0.03125,0.15625 C 85.589184,86.828663 86,86.060566 86,85.1875 V 60.8125 C 86,59.254375 84.745625,58 83.1875,58 Z"
       id="rect3775"
       style="opacity:0.5;fill:url(#linearGradient3788);fill-opacity:1;stroke:none" />
    <path
       d="m 116,63.5 v 8.75 h -5 L 121,86 131,72.25 h -5 V 63.5 Z"
       transform="translate(-50)"
       clip-path="url(#clipPath3823)"
       id="path3810"
       style="display:inline;opacity:0.6;fill:url(#linearGradient3812);fill-opacity:1;fill-rule:nonzero;stroke:none;filter:url(#filter3831)" />
    <path
       d="m 66,62.5 v 8.75 H 61 L 71,85 81,71.25 H 76 V 62.5 Z"
       id="path4278"
       style="display:inline;fill:url(#linearGradient3832);fill-opacity:1;fill-rule:nonzero;stroke:none" />
  </g>
  <path
     id="rect955-6-6"
     style="font-variation-settings:normal;opacity:1;vector-effect:none;fill:url(#linearGradient5790);fill-opacity:1;stroke:#002e99;stroke-width:1;stroke-linecap:round;stroke-linejoin:round;stroke-miterlimit:4;stroke-dasharray:none;stroke-dashoffset:0;stroke-opacity:0.5;-inkscape-stroke:none;marker:none;stop-color:#000000;stop-opacity:1"
     d="M 14.822266,2.5 C 14.637454,2.5 14.5,2.626312 14.5,2.8007812 V 5.5 H 7.25 C 3.5108698,5.5 0.5,8.306667 0.5,12 v 2.818359 C 0.5,15.173261 0.89140092,15.5 1.1972656,15.5 H 2.8027344 C 3.1085991,15.5 3.500301,15.222091 3.5,14.867188 V 12 C 3.5,9.674568 4.895831,8.5215307 7.25,8.5 h 7.25 v 2.695312 c 0,0.174471 0.137454,0.304688 0.322266,0.304688 0.09947,0 0.182657,-0.03934 0.242187,-0.101562 L 19.412109,7.2109375 C 19.467779,7.1527809 19.5,7.0827911 19.5,7.0019531 19.5,6.9205351 19.46779,6.8456826 19.41211,6.7910156 l -4.347656,-4.1875 C 15.000722,2.576283 15.007131,2.5 14.822266,2.5 Z"
     sodipodi:nodetypes="sccssssscscccsccsccs" />
  <path
     id="rect955-6-6-4-6-1"
     style="font-variation-settings:normal;opacity:0.5;vector-effect:none;fill:none;fill-opacity:1;stroke:url(#linearGradient7785);stroke-width:1;stroke-linecap:butt;stroke-linejoin:round;stroke-miterlimit:4;stroke-dasharray:none;stroke-dashoffset:0;stroke-opacity:1;-inkscape-stroke:none;marker:none;stop-color:#000000"
     d="M 14.5,6.5 H 7.249332 C 3.7769691,6.5 1.5,9.147355 1.5,11.908731 V 15"
     sodipodi:nodetypes="cssc" />
  <path
     id="rect955-6-6-4-6-6"
     style="font-variation-settings:normal;opacity:0.5;vector-effect:none;fill:none;fill-opacity:1;stroke:url(#linearGradient8829);stroke-width:1;stroke-linecap:butt;stroke-linejoin:round;stroke-miterlimit:4;stroke-dasharray:none;stroke-dashoffset:0;stroke-opacity:1;-inkscape-stroke:none;marker:none;stop-color:#000000"
     d="M 2.5,15 V 12 C 2.5,8.9977773 4.6282974,7.5 7.249332,7.5 h 7.349572 m 0.0013,0 C 14.874683,7.5000419 15.499887,7.7240281 15.5,8.438272 V 9.6331671 C 16.604,8.5960642 17.426573,7.7338817 18.185603,7.0069802 17.197776,6.0191528 16.420049,5.3096497 15.5,4.3896011 15.507,4.929999 15.5,5.5020825 15.5,6 c -4.3e-5,0.271118 -0.725521,0.499958 -1,0.5"
     sodipodi:nodetypes="csscccccccc" />
  <path
     id="path18202"
     style="font-variation-settings:normal;opacity:1;vector-effect:none;fill:url(#linearGradient18212);fill-opacity:1;stroke:#002e99;stroke-width:1;stroke-linecap:round;stroke-linejoin:round;stroke-miterlimit:4;stroke-dasharray:none;stroke-dashoffset:0;stroke-opacity:0.5;-inkscape-stroke:none;marker:none;stop-color:#000000;stop-opacity:1"
     d="M 21.197266,9.5 C 20.891401,9.5 20.499699,9.645096 20.5,10 v 3 c 0,2.325432 -1.395733,3.5 -3.75,3.5 H 9.5 V 13.800781 C 9.5,13.626312 9.3625463,13.5 9.1777344,13.5 c -0.1848649,0 -0.1784569,0.07628 -0.2421875,0.103516 l -4.3476563,4.1875 C 4.5322136,17.845686 4.5,17.920535 4.5,18.001953 c 0,0.08084 0.032224,0.150828 0.087891,0.208985 l 4.3476563,4.1875 C 8.9950799,22.460657 9.078268,22.5 9.1777344,22.5 9.3625463,22.5 9.5,22.369784 9.5,22.195312 V 19.5 h 7.25 c 3.73913,0 6.746405,-2.806667 6.748047,-6.5 L 23.5,10 C 23.500158,9.6450983 23.305865,9.5 23,9.5 Z"
     sodipodi:nodetypes="scssccsccsccsccsccss" />
  <path
     id="path18204"
     style="font-variation-settings:normal;opacity:0.2;vector-effect:none;fill:none;fill-opacity:1;stroke:#ffffff;stroke-width:1;stroke-linecap:butt;stroke-linejoin:round;stroke-miterlimit:4;stroke-dasharray:none;stroke-dashoffset:0;stroke-opacity:1;-inkscape-stroke:none;marker:none;stop-color:#000000"
     d="m 9.5,18.539883 7.249334,-0.03993 c 3.417424,-0.01882 5.749332,-2.647355 5.749332,-5.408731 V 9.999953"
     sodipodi:nodetypes="cssc" />
  <path
     style="color:#000000;opacity:0.5;fill:url(#linearGradient10416);stroke-linejoin:round;-inkscape-stroke:none"
     d="m 8.6912993,14.908203 c -0.182364,-0.07855 -0.393925,-0.04175 -0.5390626,0.09375 -1.1010187,1.034336 -1.9050802,1.884385 -2.6711484,2.618027 -0.2020661,0.194478 -0.1266115,0.543015 0.072239,0.74078 1.0112722,1.011272 1.6845027,1.709209 2.5793774,2.604084 0.317664,0.317549 0.8604096,0.08778 0.8535156,-0.361328 -0.00617,-0.469606 0.00652,-0.946962 0.00977,-1.410157 0.028546,-0.01644 0.044196,-0.0281 0.089844,-0.04687 0.1574332,-0.06475 0.4102008,-0.107426 0.4140586,-0.107427 v -1 c -0.2706209,4.2e-5 -0.5183677,0.06871 -0.7929687,0.181641 -0.1373006,0.05646 -0.2740074,0.123244 -0.4062501,0.230469 -0.1322426,0.107224 -0.3026881,0.288909 -0.3027343,0.580078 0,0.134235 -0.00181,0.297006 -0.00391,0.439453 C 7.4716439,18.994937 6.946538,18.508629 6.4120024,18 6.8669454,17.570211 7.4276267,17.04616 7.9979399,16.515625 7.7790591,16.694732 8.3433063,17.338427 8.6170805,17.712886 8.9318435,17.924919 9.2247607,17.999958 9.4979399,18 V 17 C 9.4966399,17 9.2922628,16.9633 9.1756743,16.884766 9.0590857,16.80623 8.9979696,16.750358 8.9979399,16.5625 c 0,-0.447362 -0.00391,-0.926141 -0.00391,-1.195312 -1.948e-4,-0.199722 -0.1192148,-0.380175 -0.3027306,-0.458985 z"
     id="path10315"
     sodipodi:nodetypes="cccccccccccscccccccsccc" />
  <path
     style="color:#000000;opacity:0.5;fill:url(#linearGradient18208);fill-opacity:1;stroke-linejoin:round;-inkscape-stroke:none"
     d="m 20.998047,10 v 3 c 0,1.382958 -0.460691,2.387725 -1.210677,3.041766 C 19.037383,16.695807 17.965275,17 16.75,17 H 9.5 v 1 h 7.25 c 1.405757,0 2.619553,-0.398985 3.588972,-1.244387 C 21.308391,15.910211 21.998047,14.619261 21.998047,13 v -3 z"
     id="path18206"
     sodipodi:nodetypes="csssccssscc" />
</svg>
