<?xml version="1.0" encoding="UTF-8" standalone="no"?>
<svg xmlns:dc="http://purl.org/dc/elements/1.1/" xmlns:cc="http://creativecommons.org/ns#" xmlns:rdf="http://www.w3.org/1999/02/22-rdf-syntax-ns#" xmlns:svg="http://www.w3.org/2000/svg" xmlns="http://www.w3.org/2000/svg" id="svg8" version="1.1" width="24" height="24">
  <metadata id="metadata14">
    <rdf:RDF>
      <cc:Work rdf:about="">
        <dc:format>image/svg+xml</dc:format>
        <dc:type rdf:resource="http://purl.org/dc/dcmitype/StillImage" />
        <dc:title />
      </cc:Work>
    </rdf:RDF>
  </metadata>
  <defs id="defs12" />
  <path id="rect824" d="m 5,6 v 9 h 1 v 1 h 1 v 1 h 9 v -1 h 1 v -1 h 1 V 6 Z m 1,1 h 1 v 3 H 7.6035156 A 1.5,1.5 0 0 1 8,9.787109 V 7 H 9 V 9.787109 A 1.5,1.5 0 0 1 9.3964844,10 H 10 V 7 h 0.5 0.5 v 2.787109 a 1.5,1.5 0 0 1 0.5,-0.08789 1.5,1.5 0 0 1 0.5,0.08789 V 7 h 0.5 0.5 v 3 h 0.59375 A 1.5,1.5 0 0 1 14,9.785156 V 7 h 1 V 9.791016 A 1.5,1.5 0 0 1 15.386719,10 H 16 V 7 h 1 v 7 h -1 v 1 h -1 v 1 H 8 V 15 H 7 V 14 H 6 Z" style="opacity:1;vector-effect:none;fill:#666666;fill-opacity:0.34901961;stroke:none;stroke-width:1;stroke-linecap:butt;stroke-linejoin:bevel;stroke-miterlimit:4;stroke-dasharray:none;stroke-dashoffset:0;stroke-opacity:1;paint-order:normal" />
  <path d="m 8.5,10 a 1,1 0 1 0 0,2 1,1 0 0 0 0,-2 z m 3,0 a 1,1 0 1 0 0,2 1,1 0 0 0 0,-2 z m 2.999999,0 a 1,1 0 1 0 0,2 1,1 0 0 0 0,-2 z" id="path4" style="fill:#666666;stroke:none;stroke-width:2;stroke-miterlimit:4;stroke-dasharray:none;stroke-opacity:1" />
</svg>
