<?xml version="1.0" encoding="UTF-8" standalone="no"?>
<svg
   xmlns:dc="http://purl.org/dc/elements/1.1/"
   xmlns:cc="http://creativecommons.org/ns#"
   xmlns:rdf="http://www.w3.org/1999/02/22-rdf-syntax-ns#"
   xmlns:svg="http://www.w3.org/2000/svg"
   xmlns="http://www.w3.org/2000/svg"
   height="24"
   width="24"
   version="1.1"
   id="svg6">
  <metadata
     id="metadata12">
    <rdf:RDF>
      <cc:Work
         rdf:about="">
        <dc:format>image/svg+xml</dc:format>
        <dc:type
           rdf:resource="http://purl.org/dc/dcmitype/StillImage" />
        <dc:title />
      </cc:Work>
    </rdf:RDF>
  </metadata>
  <defs
     id="defs10" />
  <path
     id="path2"
     style="color:#000000;overflow:visible;opacity:0.4;isolation:auto;mix-blend-mode:normal;fill:#666666;marker:none"
     overflow="visible"
     d="M 20.5,8 C 20.223,8 20,8.223 20,8.5 v 11 c 0,0.277 0.223,0.5 0.5,0.5 h 1 C 21.777,20 22,19.777 22,19.5 V 8.5 C 22,8.223 21.777,8 21.5,8 Z m -4,3 C 16.223,11 16,11.223 16,11.5 v 8 c 0,0.277 0.223,0.5 0.5,0.5 h 1 c 0.277,0 0.5,-0.223 0.5,-0.5 v -8 C 18,11.223 17.777,11 17.5,11 Z m -4,3 C 12.223,14 12,14.223 12,14.5 v 5 c 0,0.277 0.223,0.5 0.5,0.5 h 1 c 0.277,0 0.5,-0.223 0.5,-0.5 v -5 C 14,14.223 13.777,14 13.5,14 Z m -4,3 C 8.223,17 8,17.223 8,17.5 v 2 C 8,19.777 8.223,20 8.5,20 h 1 C 9.777,20 10,19.777 10,19.5 v -2 C 10,17.223 9.777,17 9.5,17 Z" />
  <path
     id="path4"
     d="M 1.46875,12 1,13 4,16 v 4 H 5 V 16 L 8,13 7.625,12 Z M 2.375,13 H 4 v 1.625 z M 5,13 H 6.625 L 5,14.625 Z"
     style="opacity:1;vector-effect:none;fill:#666666;fill-opacity:1;stroke-width:1;stroke-linecap:butt;stroke-linejoin:miter;stroke-miterlimit:4;stroke-dasharray:none;stroke-dashoffset:0;stroke-opacity:1" />
</svg>
