<?xml version="1.0" encoding="UTF-8" standalone="no"?>
<svg
   xmlns:dc="http://purl.org/dc/elements/1.1/"
   xmlns:cc="http://creativecommons.org/ns#"
   xmlns:rdf="http://www.w3.org/1999/02/22-rdf-syntax-ns#"
   xmlns:svg="http://www.w3.org/2000/svg"
   xmlns="http://www.w3.org/2000/svg"
   version="1.0"
   width="24"
   height="24"
   id="svg4073">
  <metadata
     id="metadata18">
    <rdf:RDF>
      <cc:Work
         rdf:about="">
        <dc:format>image/svg+xml</dc:format>
        <dc:type
           rdf:resource="http://purl.org/dc/dcmitype/StillImage" />
        <dc:title />
      </cc:Work>
    </rdf:RDF>
  </metadata>
  <defs
     id="defs4075" />
  <path
     style="color:#000000;fill:#ffffff;fill-opacity:1;fill-rule:nonzero;stroke:none;stroke-width:1;marker:none;visibility:visible;display:inline;overflow:visible;enable-background:accumulate"
     d="M 9 6 L 9 11 L 11 11 L 11 12 L 4 12 L 4 13 L 7 13 L 7 14 L 5 14 L 5 19 L 11 19 L 11 14 L 9 14 L 9 13 L 15 13 L 15 14 L 13 14 L 13 19 L 16.96875 19 C 16.96875 18.614028 17.101181 18.281311 17.3125 18 L 14 18 L 14 15 L 18 15 L 18 16.75 C 18.076175 15.965077 18.437285 15.253892 19 14.75 L 19 14 L 17 14 L 17 13 L 20 13 L 20 12 L 13 12 L 13 11 L 15 11 L 15 6 L 9 6 z M 10 7 L 14 7 L 14 10 L 10 10 L 10 7 z M 6 15 L 10 15 L 10 18 L 6 18 L 6 15 z "
     id="rect2986" />
  <path
     d="m 21,15 c -1.108,0 -2,0.91076 -2,2.0312 v 0.969 c -0.554,0 -1,0.446 -1,1 v 3 c 0,0.554 0.446,1 1,1 h 4 c 0.554,0 1,-0.446 1,-1 v -3 c 0,-0.554 -0.446,-1 -1,-1 v -0.96875 c 0,-1.12 -0.892,-2.031 -2,-2.031 z m 0,1 c 0.554,0 1,0.44236 1,1 v 1 h -2 v -1 c 0,-0.55764 0.446,-1 1,-1 z"
     id="rect2822"
     style="fill:#ffffff" />
</svg>
