<?xml version="1.0" encoding="UTF-8" standalone="no"?>
<!-- Created with Inkscape (http://www.inkscape.org/) -->
<svg
   xmlns:svg="http://www.w3.org/2000/svg"
   xmlns="http://www.w3.org/2000/svg"
   version="1.0"
   width="24"
   height="24"
   id="svg2">
  <defs
     id="defs4" />
  <g
     id="g3188"
     style="opacity:0.4">
    <path
       d="M 2.3750001,10.619662 C 2.3750001,10.619662 5.4231836,7.4749997 11.98102,7.4749997 C 18.50662,7.4749997 21.625001,10.625 21.625001,10.625"
       id="path3214"
       style="opacity:0.5;fill:none;fill-rule:evenodd;stroke:#ffffff;stroke-width:1.75;stroke-linecap:butt;stroke-linejoin:miter;stroke-miterlimit:4;stroke-dasharray:none;stroke-opacity:1;overflow:visible" />
    <path
       d="M 2.1991235,8.9137962 C 2.1991235,8.9137962 5.3030062,5.483016 11.980674,5.483016 C 18.625515,5.483016 21.800877,8.9196184 21.800877,8.9196184"
       id="path2513"
       style="opacity:0.6;fill:none;fill-rule:evenodd;stroke:#000000;stroke-width:1.75;stroke-linecap:butt;stroke-linejoin:miter;stroke-miterlimit:4;stroke-dasharray:none;stroke-opacity:1;overflow:visible" />
  </g>
  <g
     id="g3238"
     style="opacity:0.4">
    <path
       d="M 5.375,13.589814 C 5.375,13.589814 7.5138218,11.399089 12,11.477032 C 16.52339,11.555621 18.625,13.625 18.625,13.625"
       id="path3216"
       style="opacity:0.5;fill:none;fill-rule:evenodd;stroke:#ffffff;stroke-width:1.74999988;stroke-linecap:butt;stroke-linejoin:miter;stroke-miterlimit:4;stroke-dasharray:none;stroke-opacity:1;overflow:visible" />
    <path
       d="M 5.0566111,11.952688 C 5.0566111,11.952688 7.2919827,9.5303032 11.980674,9.6164882 C 16.708257,9.7033879 18.904736,11.991594 18.904736,11.991594"
       id="path2511"
       style="opacity:0.6;fill:none;fill-rule:evenodd;stroke:#000000;stroke-width:1.75;stroke-linecap:butt;stroke-linejoin:miter;stroke-miterlimit:4;stroke-dasharray:none;stroke-opacity:1;overflow:visible" />
  </g>
  <g
     id="g3277"
     style="opacity:0.4">
    <path
       d="M 8.0999993,16.65 C 8.0999993,16.65 9.0457928,15.480333 11.943496,15.450521 C 14.805074,15.421078 15.899999,16.65 15.899999,16.65"
       id="path3218"
       style="opacity:0.5;fill:none;fill-rule:evenodd;stroke:#ffffff;stroke-width:1.69999981;stroke-linecap:butt;stroke-linejoin:miter;stroke-miterlimit:4;stroke-dasharray:none;stroke-opacity:1;overflow:visible" />
    <path
       d="M 7.7707898,14.949448 C 7.7707898,14.949448 8.789294,13.658446 11.909767,13.62554 C 14.991338,13.593044 16.170438,14.949448 16.170438,14.949448"
       id="path3209"
       style="opacity:0.6;fill:none;fill-rule:evenodd;stroke:#000000;stroke-width:1.70000005;stroke-linecap:butt;stroke-linejoin:miter;stroke-miterlimit:4;stroke-dasharray:none;stroke-opacity:1;overflow:visible" />
  </g>
  <g
     id="g3315"
     style="opacity:0.4">
    <path
       d="M 14.14692,17.209046 C 14.05267,17.290337 11.972401,19.5 11.972401,19.5 C 11.972401,19.5 9.9119415,17.271664 9.8346343,17.209046 C 9.972789,17.105252 10.536662,16.697079 11.976893,16.7029 C 13.39405,16.708629 14.038981,17.108437 14.14692,17.209046 z"
       id="path3375"
       style="opacity:0.6;fill:#000000;fill-opacity:1;fill-rule:evenodd;stroke:none;stroke-width:5.33333349;stroke-linecap:round;stroke-linejoin:miter;stroke-miterlimit:4;stroke-dasharray:none;stroke-opacity:1;overflow:visible" />
    <path
       d="M 14.14692,18.709046 C 14.05267,18.790337 11.972401,21 11.972401,21 C 11.972401,21 9.9119415,18.771664 9.8346343,18.709046 C 9.972789,18.605252 10.536662,18.197079 11.976893,18.2029 C 13.39405,18.208629 14.038981,18.608437 14.14692,18.709046 z"
       id="path3212"
       style="opacity:0.5;fill:#ffffff;fill-opacity:1;fill-rule:evenodd;stroke:none;stroke-width:5.33333349;stroke-linecap:round;stroke-linejoin:miter;stroke-miterlimit:4;stroke-dasharray:none;stroke-opacity:1;overflow:visible" />
  </g>
</svg>
