<?xml version="1.0" encoding="UTF-8" standalone="no"?>
<svg
   xmlns:dc="http://purl.org/dc/elements/1.1/"
   xmlns:cc="http://creativecommons.org/ns#"
   xmlns:rdf="http://www.w3.org/1999/02/22-rdf-syntax-ns#"
   xmlns:svg="http://www.w3.org/2000/svg"
   xmlns="http://www.w3.org/2000/svg"
   height="24"
   width="24"
   version="1.1"
   id="svg8">
  <metadata
     id="metadata14">
    <rdf:RDF>
      <cc:Work
         rdf:about="">
        <dc:format>image/svg+xml</dc:format>
        <dc:type
           rdf:resource="http://purl.org/dc/dcmitype/StillImage" />
        <dc:title />
      </cc:Work>
    </rdf:RDF>
  </metadata>
  <defs
     id="defs12" />
  <rect
     style="opacity:1;vector-effect:none;fill:#f9f9f9;fill-opacity:1;stroke:none;stroke-width:1;stroke-linecap:butt;stroke-linejoin:miter;stroke-miterlimit:4;stroke-dasharray:none;stroke-dashoffset:0;stroke-opacity:1;marker:none"
     id="rect843"
     width="24"
     height="24"
     x="-78"
     y="0"
     rx="1.3287197"
     ry="1.0032299" />
  <rect
     style="opacity:1;vector-effect:none;fill:#f9f9f9;fill-opacity:1;stroke:none;stroke-width:1;stroke-linecap:butt;stroke-linejoin:miter;stroke-miterlimit:4;stroke-dasharray:none;stroke-dashoffset:0;stroke-opacity:1;marker:none"
     id="rect843-6"
     width="24"
     height="24"
     x="-52"
     y="0"
     rx="1.3287197"
     ry="1.0032299" />
  <rect
     style="opacity:1;vector-effect:none;fill:#f9f9f9;fill-opacity:1;stroke:none;stroke-width:1;stroke-linecap:butt;stroke-linejoin:miter;stroke-miterlimit:4;stroke-dasharray:none;stroke-dashoffset:0;stroke-opacity:1;marker:none"
     id="rect843-3"
     width="24"
     height="24"
     x="-26"
     y="0"
     rx="1.3287197"
     ry="1.0032299" />
  <g
     id="g985"
     transform="translate(-671,-25)">
    <path
       id="path983"
       style="color:#bebebe;overflow:visible;isolation:auto;mix-blend-mode:normal;fill:#666666;marker:none"
       overflow="visible"
       d="m 605,30 a 1,1 0 0 0 -1,1 v 0.01 c -1.764,0.456 -2.998,2.168 -3,3.99 0,0 0,5 -1.66,5.621 -0.016,0.011 -0.023,0.031 -0.04,0.043 a 0.726,0.726 0 0 0 -0.161,0.176 c -0.018,0.027 -0.039,0.048 -0.053,0.076 A 0.738,0.738 0 0 0 599,41.25 c 0,0.416 0.335,0.75 0.75,0.75 h 10.5 c 0.416,0 0.75,-0.334 0.75,-0.75 a 0.738,0.738 0 0 0 -0.086,-0.334 c -0.014,-0.028 -0.035,-0.05 -0.052,-0.076 A 0.725,0.725 0 0 0 610.7,40.664 c -0.016,-0.012 -0.023,-0.032 -0.04,-0.043 C 609,40.001 609,35 609,35 c -0.002,-1.823 -1.235,-3.535 -3,-3.99 V 31 a 1,1 0 0 0 -1,-1 z m -1.933,13 A 2,2 0 0 0 605,44.5 2,2 0 0 0 606.936,43 Z" />
  </g>
  <path
     style="color:#bebebe;overflow:visible;isolation:auto;mix-blend-mode:normal;fill:#666666;marker:none"
     d="M 13.490234 5.0097656 C 13.100544 5.0126677 12.730778 5.2442701 12.572266 5.6269531 L 12.568359 5.6347656 C 10.764109 5.3809999 8.9686313 6.491285 8.2695312 8.1738281 C 8.2695312 8.1738281 6.3572175 12.793948 4.5859375 12.732422 C 4.5669375 12.736422 4.55155 12.751279 4.53125 12.755859 C 4.45415 12.777379 4.3823863 12.812071 4.3164062 12.857422 C 4.2894062 12.875482 4.2618812 12.88574 4.2382812 12.90625 C 4.1484812 12.9805 4.07761 13.076631 4.03125 13.183594 C 3.87206 13.567928 4.0541 14.003296 4.4375 14.162109 L 14.136719 18.181641 C 14.521059 18.340838 14.957987 18.159728 15.117188 17.775391 C 15.159987 17.666936 15.177016 17.549628 15.166016 17.433594 C 15.164016 17.402364 15.152284 17.37427 15.146484 17.34375 C 15.131684 17.26484 15.104153 17.188943 15.064453 17.119141 C 15.054253 17.101931 15.054469 17.081113 15.042969 17.064453 C 13.746589 15.856393 15.662109 11.236328 15.662109 11.236328 C 16.357889 9.5513308 15.872536 7.4961921 14.416016 6.4003906 L 14.419922 6.3925781 C 14.631272 5.8823335 14.389106 5.2972859 13.878906 5.0859375 C 13.751346 5.0331004 13.620131 5.0087983 13.490234 5.0097656 z M 7.1191406 16.355469 C 6.9907506 17.257599 7.4887781 18.132367 8.3300781 18.482422 C 9.1729481 18.830196 10.144346 18.563442 10.691406 17.833984 L 7.1191406 16.355469 z "
     id="path2-3-5-2-2-5-19" />
  <path
     id="path2-3-5-2-2-5-8"
     style="color:#bebebe;overflow:visible;isolation:auto;mix-blend-mode:normal;fill:#666666;marker:none"
     overflow="visible"
     d="m -12.74331,5.0337295 c -0.53346,-0.1429406 -1.0818,0.1736407 -1.22474,0.7071068 l -0.003,0.00966 c -1.82191,-0.016095 -3.45696,1.3181869 -3.93046,3.0775861 0,0 -1.29409,4.8296296 -3.05826,4.9998296 -0.0183,0.0065 -0.0302,0.02399 -0.0498,0.03118 -0.0736,0.0314 -0.14157,0.07476 -0.20106,0.128333 -0.0244,0.02142 -0.0501,0.03627 -0.0709,0.05969 -0.0794,0.08534 -0.13751,0.188261 -0.16952,0.300361 -0.10767,0.401825 0.12947,0.811149 0.53034,0.918558 l 10.14222,2.7176 c 0.40182,0.107669 0.81089,-0.128505 0.91856,-0.53033 0.0282,-0.113109 0.0295,-0.231277 0.003,-0.344877 -0.006,-0.03067 -0.0209,-0.05736 -0.0306,-0.08687 -0.025,-0.0763 -0.0624,-0.14791 -0.11093,-0.211932 -0.0123,-0.01573 -0.0139,-0.03686 -0.0275,-0.05189 -1.44299,-1.028505 -0.14864,-5.8591 -0.14864,-5.8591 0.4699,-1.7614006 -0.27799,-3.7341895 -1.86509,-4.6305014 l 0.003,-0.00966 c 0.14293,-0.5334653 -0.17365,-1.0818035 -0.70712,-1.2247441 z" />
  <path
     style="opacity:1;vector-effect:none;fill:#666666;fill-opacity:1;stroke:none;stroke-width:1;stroke-linecap:butt;stroke-linejoin:miter;stroke-miterlimit:4;stroke-dasharray:none;stroke-dashoffset:0;stroke-opacity:1;marker:none"
     d="m -17.13477,17.318359 c 0.0104,0.959019 0.70063,1.775426 1.64454,1.945313 0.82116,0.147062 1.64729,-0.231355 2.07226,-0.949219 z"
     id="path832-6-6-0-9-45" />
  <path
     id="path2-3-5-2-2-5-3"
     style="color:#bebebe;overflow:visible;isolation:auto;mix-blend-mode:normal;fill:#666666;marker:none"
     overflow="visible"
     d="m -39.36859,5.008617 c -0.54756,-0.072087 -1.04988,0.3133588 -1.12197,0.8609186 l -10e-4,0.00991 C -42.3,6.1013007 -43.7469,7.637585 -43.9867,9.4437365 c 0,0 -0.65263,4.9572245 -2.37949,5.3562385 -0.0173,0.0088 -0.0269,0.02773 -0.0453,0.03741 -0.0689,0.04074 -0.1306,0.0926 -0.18259,0.153479 -0.0214,0.02442 -0.0449,0.0425 -0.0625,0.06843 -0.0676,0.09497 -0.11176,0.2046 -0.12886,0.319917 -0.0543,0.412442 0.23424,0.78731 0.64569,0.841479 l 10.41017,1.370525 c 0.41244,0.0543 0.78718,-0.233248 0.84148,-0.645689 0.0132,-0.115827 -9.8e-4,-0.233144 -0.0417,-0.342368 -0.0102,-0.02959 -0.0282,-0.05414 -0.0416,-0.08214 -0.0348,-0.07239 -0.0812,-0.138494 -0.13765,-0.19564 -0.0143,-0.01399 -0.0186,-0.03473 -0.034,-0.04785 -1.56487,-0.831369 -0.91211,-5.789585 -0.91211,-5.789585 0.23597,-1.807665 -0.76302,-3.6659574 -2.45353,-4.3474435 l 0.001,-0.00991 c 0.0721,-0.5475613 -0.31337,-1.0498855 -0.86092,-1.1219725 z" />
  <path
     style="opacity:1;vector-effect:none;fill:#666666;fill-opacity:1;stroke:none;stroke-width:1;stroke-linecap:butt;stroke-linejoin:miter;stroke-miterlimit:4;stroke-dasharray:none;stroke-dashoffset:0;stroke-opacity:1;marker:none"
     d="m -41.63867,17.802734 c 0.15467,0.968804 0.98963,1.682119 1.9707,1.683594 0.78756,-0.0011 1.50109,-0.464498 1.82227,-1.183594 z"
     id="path832-6-6-0-9-6" />
</svg>
