<?xml version="1.0" encoding="UTF-8" standalone="no"?>
<svg
   xmlns:dc="http://purl.org/dc/elements/1.1/"
   xmlns:cc="http://creativecommons.org/ns#"
   xmlns:rdf="http://www.w3.org/1999/02/22-rdf-syntax-ns#"
   xmlns:svg="http://www.w3.org/2000/svg"
   xmlns="http://www.w3.org/2000/svg"
   height="24"
   width="24"
   version="1.1"
   id="svg8">
  <metadata
     id="metadata14">
    <rdf:RDF>
      <cc:Work
         rdf:about="">
        <dc:format>image/svg+xml</dc:format>
        <dc:type
           rdf:resource="http://purl.org/dc/dcmitype/StillImage" />
        <dc:title />
      </cc:Work>
    </rdf:RDF>
  </metadata>
  <defs
     id="defs12" />
  <rect
     style="opacity:1;vector-effect:none;fill:#f9f9f9;fill-opacity:1;stroke:none;stroke-width:1;stroke-linecap:butt;stroke-linejoin:miter;stroke-miterlimit:4;stroke-dasharray:none;stroke-dashoffset:0;stroke-opacity:1;marker:none"
     id="rect843"
     width="24"
     height="24"
     x="-104"
     y="0"
     rx="1.3287197"
     ry="1.0032299" />
  <rect
     style="opacity:1;vector-effect:none;fill:#f9f9f9;fill-opacity:1;stroke:none;stroke-width:1;stroke-linecap:butt;stroke-linejoin:miter;stroke-miterlimit:4;stroke-dasharray:none;stroke-dashoffset:0;stroke-opacity:1;marker:none"
     id="rect843-6"
     width="24"
     height="24"
     x="-78"
     y="0"
     rx="1.3287197"
     ry="1.0032299" />
  <rect
     style="opacity:1;vector-effect:none;fill:#f9f9f9;fill-opacity:1;stroke:none;stroke-width:1;stroke-linecap:butt;stroke-linejoin:miter;stroke-miterlimit:4;stroke-dasharray:none;stroke-dashoffset:0;stroke-opacity:1;marker:none"
     id="rect843-3"
     width="24"
     height="24"
     x="-52"
     y="0"
     rx="1.3287197"
     ry="1.0032299" />
  <rect
     style="opacity:1;vector-effect:none;fill:#f9f9f9;fill-opacity:1;stroke:none;stroke-width:1;stroke-linecap:butt;stroke-linejoin:miter;stroke-miterlimit:4;stroke-dasharray:none;stroke-dashoffset:0;stroke-opacity:1;marker:none"
     id="rect843-6-2"
     width="24"
     height="24"
     x="-26"
     y="0"
     rx="1.3287197"
     ry="1.0032299" />
  <g
     id="g985"
     transform="translate(-697,-25)">
    <path
       id="path983"
       style="color:#bebebe;overflow:visible;isolation:auto;mix-blend-mode:normal;fill:#666666;marker:none"
       overflow="visible"
       d="m 605,30 a 1,1 0 0 0 -1,1 v 0.01 c -1.764,0.456 -2.998,2.168 -3,3.99 0,0 0,5 -1.66,5.621 -0.016,0.011 -0.023,0.031 -0.04,0.043 a 0.726,0.726 0 0 0 -0.161,0.176 c -0.018,0.027 -0.039,0.048 -0.053,0.076 A 0.738,0.738 0 0 0 599,41.25 c 0,0.416 0.335,0.75 0.75,0.75 h 10.5 c 0.416,0 0.75,-0.334 0.75,-0.75 a 0.738,0.738 0 0 0 -0.086,-0.334 c -0.014,-0.028 -0.035,-0.05 -0.052,-0.076 A 0.725,0.725 0 0 0 610.7,40.664 c -0.016,-0.012 -0.023,-0.032 -0.04,-0.043 C 609,40.001 609,35 609,35 c -0.002,-1.823 -1.235,-3.535 -3,-3.99 V 31 a 1,1 0 0 0 -1,-1 z m -1.933,13 A 2,2 0 0 0 605,44.5 2,2 0 0 0 606.936,43 Z" />
  </g>
  <path
     style="color:#bebebe;overflow:visible;isolation:auto;mix-blend-mode:normal;fill:#666666;marker:none"
     d="M 14.123047 5.0078125 C 13.736314 4.9598251 13.339925 5.1412805 13.132812 5.5 L 13.126953 5.5078125 C 11.371283 5.0207203 9.4478862 5.8859923 8.5351562 7.4628906 C 8.5351562 7.4628906 6.0352194 11.794151 4.2871094 11.501953 C 4.2677094 11.503453 4.2511688 11.517641 4.2304688 11.519531 C 4.1511688 11.530801 4.0732831 11.553494 4.0019531 11.589844 C 3.9728531 11.604224 3.9440688 11.613609 3.9179688 11.630859 C 3.8191688 11.692739 3.7376544 11.776957 3.6777344 11.876953 C 3.4697344 12.23722 3.5917519 12.692891 3.9511719 12.900391 L 13.044922 18.150391 C 13.405182 18.358391 13.862312 18.237222 14.070312 17.876953 C 14.126912 17.775007 14.157909 17.661403 14.162109 17.544922 C 14.164109 17.513672 14.156297 17.484145 14.154297 17.453125 C 14.150297 17.372955 14.133816 17.293138 14.103516 17.21875 C 14.095516 17.20036 14.098944 17.180139 14.089844 17.162109 C 12.962234 15.795173 15.462891 11.462891 15.462891 11.462891 C 16.372661 9.8831267 16.160405 7.7843541 14.859375 6.5078125 L 14.865234 6.5 C 15.141344 6.0217082 14.976337 5.4089525 14.498047 5.1328125 C 14.378474 5.0637775 14.251958 5.0238083 14.123047 5.0078125 z M 5.9296875 15.205078 C 5.7032275 16.047006 6.0486431 16.938584 6.7832031 17.408203 C 7.5745231 17.911556 8.6093944 17.797023 9.2714844 17.132812 L 5.9296875 15.205078 z "
     id="path2-3-5-2-2-5-1" />
  <path
     id="path2-3-5-2-2-5-19"
     style="color:#bebebe;overflow:visible;isolation:auto;mix-blend-mode:normal;fill:#666666;marker:none"
     overflow="visible"
     d="m -12.12072,5.0852311 c -0.51024,-0.2113484 -1.09522,0.030952 -1.30657,0.5411961 l -0.004,0.00924 c -1.80425,-0.2537657 -3.59947,0.8556847 -4.29857,2.5382278 0,0 -1.91342,4.619398 -3.6847,4.557872 -0.019,0.004 -0.0331,0.01984 -0.0534,0.02442 -0.0771,0.02152 -0.15012,0.05564 -0.2161,0.100991 -0.027,0.01806 -0.0544,0.02942 -0.078,0.04993 -0.0898,0.07425 -0.16091,0.168702 -0.20727,0.275665 -0.15919,0.384334 0.0225,0.821109 0.4059,0.979922 l 9.70073,4.018176 c 0.38434,0.159197 0.82073,-0.02156 0.97993,-0.405897 0.0428,-0.108455 0.0594,-0.225452 0.0484,-0.341486 -0.002,-0.03123 -0.0132,-0.05959 -0.019,-0.09011 -0.0148,-0.07891 -0.0426,-0.154795 -0.0823,-0.224597 -0.0102,-0.01721 -0.009,-0.03837 -0.0205,-0.05503 -1.29638,-1.20806 0.61742,-5.828382 0.61742,-5.828382 0.69578,-1.6849973 0.21179,-3.7385277 -1.24473,-4.8343292 l 0.004,-0.00924 c 0.21135,-0.5102446 -0.031,-1.0952146 -0.5412,-1.306563 z" />
  <path
     style="opacity:1;vector-effect:none;fill:#666666;fill-opacity:1;stroke:none;stroke-width:1;stroke-linecap:butt;stroke-linejoin:miter;stroke-miterlimit:4;stroke-dasharray:none;stroke-dashoffset:0;stroke-opacity:1;marker:none"
     d="m -18.88086,16.355469 c -0.12839,0.90213 0.36964,1.776898 1.21094,2.126953 0.84287,0.347774 1.81427,0.08102 2.36133,-0.648438 z"
     id="path832-6-6-0-9-4" />
  <path
     id="path2-3-5-2-2-5-8"
     style="color:#bebebe;overflow:visible;isolation:auto;mix-blend-mode:normal;fill:#666666;marker:none"
     overflow="visible"
     d="m -38.74331,5.0337295 c -0.53346,-0.1429406 -1.0818,0.1736407 -1.22474,0.7071068 l -0.003,0.00966 c -1.82191,-0.016095 -3.45696,1.3181869 -3.93046,3.0775861 0,0 -1.29409,4.8296296 -3.05826,4.9998296 -0.0183,0.0065 -0.0302,0.02399 -0.0498,0.03118 -0.0736,0.0314 -0.14157,0.07476 -0.20106,0.128333 -0.0244,0.02142 -0.0501,0.03627 -0.0709,0.05969 -0.0794,0.08534 -0.13751,0.188261 -0.16952,0.300361 -0.10767,0.401825 0.12947,0.811149 0.53034,0.918558 l 10.14222,2.7176 c 0.40182,0.107669 0.81089,-0.128505 0.91856,-0.53033 0.0282,-0.113109 0.0295,-0.231277 0.003,-0.344877 -0.006,-0.03067 -0.0209,-0.05736 -0.0306,-0.08687 -0.025,-0.0763 -0.0624,-0.14791 -0.11093,-0.211932 -0.0123,-0.01573 -0.0139,-0.03686 -0.0275,-0.05189 -1.44299,-1.028505 -0.14864,-5.8591 -0.14864,-5.8591 0.4699,-1.7614006 -0.27799,-3.7341895 -1.86509,-4.6305014 l 0.003,-0.00966 c 0.14293,-0.5334653 -0.17365,-1.0818035 -0.70712,-1.2247441 z" />
  <path
     style="opacity:1;vector-effect:none;fill:#666666;fill-opacity:1;stroke:none;stroke-width:1;stroke-linecap:butt;stroke-linejoin:miter;stroke-miterlimit:4;stroke-dasharray:none;stroke-dashoffset:0;stroke-opacity:1;marker:none"
     d="m -43.13477,17.318359 c 0.0104,0.959019 0.70063,1.775426 1.64454,1.945313 0.82116,0.147062 1.64729,-0.231355 2.07226,-0.949219 z"
     id="path832-6-6-0-9-45" />
  <path
     id="path2-3-5-2-2-5-3"
     style="color:#bebebe;overflow:visible;isolation:auto;mix-blend-mode:normal;fill:#666666;marker:none"
     overflow="visible"
     d="m -65.36859,5.008617 c -0.54756,-0.072087 -1.04988,0.3133588 -1.12197,0.8609186 l -0.001,0.00991 C -68.3,6.1013007 -69.7469,7.637585 -69.9867,9.4437365 c 0,0 -0.65263,4.9572245 -2.37949,5.3562385 -0.0173,0.0088 -0.0269,0.02773 -0.0453,0.03741 -0.0689,0.04074 -0.1306,0.0926 -0.18259,0.153479 -0.0214,0.02442 -0.0449,0.0425 -0.0625,0.06843 -0.0676,0.09497 -0.11176,0.2046 -0.12886,0.319917 -0.0543,0.412442 0.23424,0.78731 0.64569,0.841479 l 10.41017,1.370525 c 0.41244,0.0543 0.78718,-0.233248 0.84148,-0.645689 0.0132,-0.115827 -9.8e-4,-0.233144 -0.0417,-0.342368 -0.0102,-0.02959 -0.0282,-0.05414 -0.0416,-0.08214 -0.0348,-0.07239 -0.0812,-0.138494 -0.13765,-0.19564 -0.0143,-0.01399 -0.0186,-0.03473 -0.034,-0.04785 -1.56487,-0.831369 -0.91211,-5.789585 -0.91211,-5.789585 0.23597,-1.807665 -0.76302,-3.6659574 -2.45353,-4.3474435 l 0.001,-0.00991 c 0.0721,-0.5475613 -0.31337,-1.0498855 -0.86092,-1.1219725 z" />
  <path
     style="opacity:1;vector-effect:none;fill:#666666;fill-opacity:1;stroke:none;stroke-width:1;stroke-linecap:butt;stroke-linejoin:miter;stroke-miterlimit:4;stroke-dasharray:none;stroke-dashoffset:0;stroke-opacity:1;marker:none"
     d="m -67.63867,17.802734 c 0.15467,0.968804 0.98963,1.682119 1.9707,1.683594 0.78756,-0.0011 1.50109,-0.464498 1.82227,-1.183594 z"
     id="path832-6-6-0-9-6" />
</svg>
