<svg xmlns="http://www.w3.org/2000/svg" width="24" height="24"><path d="M6.28 4A2.273 2.273 0 0 0 4 6.28v11.44A2.273 2.273 0 0 0 6.28 20h11.44A2.273 2.273 0 0 0 20 17.72V6.28A2.273 2.273 0 0 0 17.72 4H6.28zm.22 1h11c.83 0 1.5.67 1.5 1.5v10c0 .83-.67 1.5-1.5 1.5h-11c-.83 0-1.5-.67-1.5-1.5v-10C5 5.67 5.67 5 6.5 5zm3 1.97c-.778 0-1.4.21-1.844.655C7.214 8.07 7 8.715 7 9.5c0 .784.214 1.398.656 1.844C8.1 11.79 8.722 12 9.5 12c.78 0 1.402-.21 1.844-.656.442-.446.656-1.06.656-1.844 0-.786-.214-1.43-.656-1.875-.442-.446-1.064-.656-1.844-.656zm0 .905c.383 0 .665.125.875.406.21.29.312.71.313 1.22 0 .51-.103.88-.313 1.16a1.03 1.03 0 0 1-.875.44 1.09 1.09 0 0 1-.906-.44c-.21-.28-.313-.644-.313-1.153 0-.51.11-.936.32-1.22.21-.28.527-.404.908-.404zm3.563 3.28V16h2.093c.646 0 1.12-.114 1.438-.344.316-.23.468-.594.468-1.062 0-.306-.07-.54-.218-.75a1.124 1.124 0 0 0-.625-.438.96.96 0 0 0 .46-.375 1.03 1.03 0 0 0 .187-.59c0-.45-.165-.76-.47-.97-.3-.2-.794-.31-1.468-.31h-1.87zm1.25.845H15c.197 0 .367.036.47.125.1.087.124.208.124.375 0 .17-.023.32-.125.406-.11.087-.28.125-.47.125h-.69V12zm0 1.875h.75c.253 0 .436.05.562.156.126.11.187.26.188.47 0 .22-.06.4-.188.5-.126.11-.31.16-.563.16h-.75v-1.28z" color="#000" fill="#fff" overflow="visible"/></svg>