<?xml version="1.0" encoding="UTF-8" standalone="no"?>
<svg
   xmlns:dc="http://purl.org/dc/elements/1.1/"
   xmlns:cc="http://creativecommons.org/ns#"
   xmlns:rdf="http://www.w3.org/1999/02/22-rdf-syntax-ns#"
   xmlns:svg="http://www.w3.org/2000/svg"
   xmlns="http://www.w3.org/2000/svg"
   id="svg2"
   height="24"
   width="24"
   version="1.2">
  <defs
     id="defs4" />
  <metadata
     id="metadata7">
    <rdf:RDF>
      <cc:Work
         rdf:about="">
        <dc:format>image/svg+xml</dc:format>
        <dc:type
           rdf:resource="http://purl.org/dc/dcmitype/StillImage" />
        <dc:title></dc:title>
      </cc:Work>
    </rdf:RDF>
  </metadata>
  <path
     d="M 12,6 C 9.207344,6 6.87218,7.916531 6.203125,10.5 H 7.6875 C 8.307257,8.715684 10.005331,7.4375 12,7.4375 c 1.387271,0 2.631388,0.616947 3.46875,1.59375 L 13.5,11 H 18 V 6.5 L 16.484375,8.015625 C 15.388811,6.776248 13.784754,6 12,6 Z m -6,7 v 4.5 L 7.765625,15.734375 C 8.848209,16.824114 10.34186,17.5 12,17.5 c 2.792657,0 5.12782,-1.916531 5.796875,-4.5 H 16.3125 c -0.619756,1.784316 -2.317832,3.0625 -4.3125,3.0625 -1.25885,0 -2.392665,-0.519628 -3.21875,-1.34375 L 10.5,13 Z"
     id="path4285"
     style="color:#000000;display:inline;overflow:visible;visibility:visible;opacity:1;vector-effect:none;fill:#555761;fill-opacity:1;fill-rule:nonzero;stroke:none;stroke-width:1;stroke-linecap:butt;stroke-linejoin:miter;stroke-miterlimit:4;stroke-dasharray:none;stroke-dashoffset:0;stroke-opacity:1;marker:none;enable-background:accumulate;font-variant-east_asian:normal" />
</svg>
