<?xml version="1.0" encoding="UTF-8" standalone="no"?>
<svg
   id="svg4379"
   height="128"
   width="128"
   version="1.1"
   xml:space="preserve"
   xmlns:xlink="http://www.w3.org/1999/xlink"
   xmlns="http://www.w3.org/2000/svg"
   xmlns:svg="http://www.w3.org/2000/svg"
   xmlns:rdf="http://www.w3.org/1999/02/22-rdf-syntax-ns#"
   xmlns:cc="http://creativecommons.org/ns#"
   xmlns:dc="http://purl.org/dc/elements/1.1/"><defs
     id="defs4381"><linearGradient
       gradientTransform="matrix(2.7297298,0,0,2.7297298,-1.5135124,1.486514)"
       gradientUnits="userSpaceOnUse"
       xlink:href="#linearGradient3924-776"
       id="linearGradient3159"
       y2="43"
       x2="23.99999"
       y1="4.999989"
       x1="23.99999" /><linearGradient
       id="linearGradient3924-776"><stop
         offset="0"
         style="stop-color:#ffffff;stop-opacity:1"
         id="stop3124" /><stop
         offset="0.06316455"
         style="stop-color:#ffffff;stop-opacity:0.23529412"
         id="stop3126" /><stop
         offset="0.95056331"
         style="stop-color:#ffffff;stop-opacity:0.15686275"
         id="stop3128" /><stop
         offset="1"
         style="stop-color:#ffffff;stop-opacity:0.39215687"
         id="stop3130" /></linearGradient><radialGradient
       gradientTransform="matrix(2.003784,0,0,1.4,27.98813,-17.4)"
       gradientUnits="userSpaceOnUse"
       xlink:href="#linearGradient3688-166-749-5"
       id="radialGradient2455-1"
       fy="43.5"
       fx="4.9929786"
       r="2.5"
       cy="43.5"
       cx="4.9929786" /><linearGradient
       id="linearGradient3688-166-749-5"><stop
         offset="0"
         style="stop-color:#181818;stop-opacity:1"
         id="stop2883-0" /><stop
         offset="1"
         style="stop-color:#181818;stop-opacity:0"
         id="stop2885-5" /></linearGradient><radialGradient
       gradientTransform="matrix(2.003784,0,0,1.4,-20.01187,-104.4)"
       gradientUnits="userSpaceOnUse"
       xlink:href="#linearGradient3688-464-309-8"
       id="radialGradient2457-5"
       fy="43.5"
       fx="4.9929786"
       r="2.5"
       cy="43.5"
       cx="4.9929786" /><linearGradient
       id="linearGradient3688-464-309-8"><stop
         offset="0"
         style="stop-color:#181818;stop-opacity:1"
         id="stop2889-9" /><stop
         offset="1"
         style="stop-color:#181818;stop-opacity:0"
         id="stop2891-4" /></linearGradient><linearGradient
       gradientUnits="userSpaceOnUse"
       xlink:href="#linearGradient3702-501-757-0"
       id="linearGradient2459-7"
       y2="39.999443"
       x2="25.058096"
       y1="47.027729"
       x1="25.058096" /><linearGradient
       id="linearGradient3702-501-757-0"><stop
         offset="0"
         style="stop-color:#181818;stop-opacity:0"
         id="stop2895-0" /><stop
         offset="0.5"
         style="stop-color:#181818;stop-opacity:1"
         id="stop2897-2" /><stop
         offset="1"
         style="stop-color:#181818;stop-opacity:0"
         id="stop2899-6" /></linearGradient><linearGradient
       id="linearGradient3811"><stop
         offset="0"
         style="stop-color:#000000;stop-opacity:1"
         id="stop3813" /><stop
         offset="1"
         style="stop-color:#000000;stop-opacity:0"
         id="stop3815" /></linearGradient><radialGradient
       gradientTransform="matrix(1.5563924,0,0,0.16978827,70.270358,102.13029)"
       gradientUnits="userSpaceOnUse"
       xlink:href="#linearGradient3811"
       id="radialGradient4377"
       fy="93.467628"
       fx="-4.0287771"
       r="35.338131"
       cy="93.467628"
       cx="-4.0287771" /><linearGradient
       id="linearGradient3104-6"><stop
         offset="0"
         style="stop-color:#000000;stop-opacity:0.31782946"
         id="stop3106-3" /><stop
         offset="1"
         style="stop-color:#000000;stop-opacity:0.24031007"
         id="stop3108-9" /></linearGradient><linearGradient
       xlink:href="#linearGradient3600-9-51"
       id="linearGradient1512"
       gradientUnits="userSpaceOnUse"
       gradientTransform="matrix(2.6075127,0,0,2.5079099,-128.96559,3.8893066)"
       x1="74.838791"
       y1="4.535933"
       x2="74.838791"
       y2="49.779099" /><linearGradient
       id="linearGradient3600-9-51"><stop
         offset="0"
         style="stop-color:#f4f4f4;stop-opacity:1"
         id="stop3602-0-0" /><stop
         offset="1"
         style="stop-color:#dbdbdb;stop-opacity:1"
         id="stop3604-9-04" /></linearGradient><linearGradient
       xlink:href="#linearGradient3104-6"
       id="linearGradient567"
       gradientUnits="userSpaceOnUse"
       gradientTransform="matrix(0.80749686,0,0,0.89471714,-120.87499,26.352158)"
       x1="225.28664"
       y1="103.37166"
       x2="225.28664"
       y2="-12.009387" /><radialGradient
       r="12.671875"
       fy="9.9571075"
       fx="6.2001843"
       cy="9.9571075"
       cx="6.7304144"
       gradientTransform="matrix(0,26.787968,-32.887066,0,393.8041,-225.78742)"
       gradientUnits="userSpaceOnUse"
       id="radialGradient4147-1"
       xlink:href="#linearGradient2867-449-88-871-390-598-476-591-434-148-57-177-8-3-3-6-4-8-8-8-5" /><linearGradient
       id="linearGradient2867-449-88-871-390-598-476-591-434-148-57-177-8-3-3-6-4-8-8-8-5"><stop
         id="stop3750-1-0-7-6-6-1-3-9-3"
         style="stop-color:#919caf;stop-opacity:1;"
         offset="0" /><stop
         id="stop3752-3-7-4-0-32-8-923-0-7"
         style="stop-color:#68758e;stop-opacity:1;"
         offset="0.26238" /><stop
         id="stop3754-1-8-5-2-7-6-7-1-9"
         style="stop-color:#485a6c;stop-opacity:1;"
         offset="0.704952" /><stop
         id="stop3756-1-6-2-6-6-1-96-6-0"
         style="stop-color:#444c5c;stop-opacity:1;"
         offset="1" /></linearGradient></defs><metadata
     id="metadata4384"><rdf:RDF><cc:Work
         rdf:about=""><dc:format>image/svg+xml</dc:format><dc:type
           rdf:resource="http://purl.org/dc/dcmitype/StillImage" /></cc:Work></rdf:RDF></metadata><path
     d="M 119,118 A 55,6 0 0 1 9.0000016,118 55,6 0 1 1 119,118 Z"
     id="path3041"
     style="color:#000000;display:inline;overflow:visible;visibility:visible;opacity:0.2;fill:url(#radialGradient4377);fill-opacity:1;fill-rule:nonzero;stroke:none;stroke-width:1;marker:none;enable-background:accumulate" /><g
     transform="matrix(2.6999989,0,0,0.55555607,-0.8000019,94.888882)"
     id="g2036"
     style="display:inline;opacity:0.4"><g
       transform="matrix(1.052632,0,0,1.285713,-1.263158,-13.42854)"
       id="g3712"
       style="opacity:0.4"><rect
         width="5"
         height="7"
         x="38"
         y="40"
         id="rect2801"
         style="fill:url(#radialGradient2455-1);fill-opacity:1;stroke:none" /><rect
         width="5"
         height="7"
         x="-10"
         y="-47"
         transform="scale(-1,-1)"
         id="rect3696"
         style="fill:url(#radialGradient2457-5);fill-opacity:1;stroke:none" /><rect
         width="28"
         height="7.0000005"
         x="10"
         y="40"
         id="rect3700"
         style="fill:url(#linearGradient2459-7);fill-opacity:1;stroke:none" /></g></g><rect
     style="color:#000000;font-variation-settings:normal;display:inline;overflow:visible;visibility:visible;fill:url(#linearGradient1512);fill-opacity:1;fill-rule:nonzero;stroke:none;stroke-width:1;stroke-linecap:butt;stroke-linejoin:miter;stroke-miterlimit:4;stroke-dasharray:none;stroke-dashoffset:0;stroke-opacity:1;marker:none;enable-background:accumulate;stop-color:#000000"
     id="rect5505-21-1-7-2-9"
     y="16"
     x="12.999996"
     ry="9.5"
     rx="9.5"
     height="102.00001"
     width="102.00001" /><rect
     width="101"
     height="101"
     rx="9"
     ry="9"
     x="13.5"
     y="16.5"
     id="rect6741-7"
     style="opacity:1;fill:none;stroke:url(#linearGradient3159);stroke-width:1;stroke-linecap:round;stroke-linejoin:round;stroke-miterlimit:4;stroke-dasharray:none;stroke-dashoffset:0;stroke-opacity:1" /><rect
     width="103"
     height="103"
     rx="10"
     ry="10"
     x="12.5"
     y="15.5"
     id="rect5505-21-6"
     style="color:#000000;display:inline;overflow:visible;visibility:visible;opacity:1;fill:none;stroke:url(#linearGradient567);stroke-width:0.999922;stroke-linecap:butt;stroke-linejoin:round;stroke-miterlimit:4;stroke-dasharray:none;stroke-dashoffset:0;stroke-opacity:1;marker:none;enable-background:accumulate;font-variation-settings:normal;vector-effect:none;fill-opacity:1;-inkscape-stroke:none;stop-color:#000000;stop-opacity:1" /><g
     id="layer4-0"
     transform="matrix(0.9047486,0,0,0.9047486,-702.22529,-649.07614)" /><g
     id="layer4-0-7"
     transform="matrix(0.9047486,0,0,0.9047486,-702.22529,-641.83815)" /><g
     id="layer1-3"
     transform="matrix(0.9047486,0,0,0.9047486,-205.51831,26.980992)" /><path
     id="path4690-5-4"
     style="color:#000000;clip-rule:nonzero;display:inline;overflow:visible;visibility:visible;opacity:0.03;isolation:auto;mix-blend-mode:normal;color-interpolation:sRGB;color-interpolation-filters:linearRGB;solid-color:#000000;solid-opacity:1;fill:#ffffff;fill-opacity:1;fill-rule:nonzero;stroke:none;stroke-width:1.7;stroke-linecap:butt;stroke-linejoin:miter;stroke-miterlimit:4;stroke-dasharray:none;stroke-dashoffset:0;stroke-opacity:1;marker:none;color-rendering:auto;image-rendering:auto;shape-rendering:auto;text-rendering:auto;enable-background:accumulate"
     d="m 60,38.996094 c -0.413147,0 -0.757565,0.210127 -0.964844,0.412109 -0.207279,0.201982 -0.334226,0.412858 -0.447265,0.636719 -0.226079,0.447722 -0.386957,0.971008 -0.539063,1.609375 -0.267336,1.121974 -0.462961,2.697836 -0.632812,4.404297 -1.475662,0.451976 -2.90212,1.049574 -4.257813,1.787109 -1.329677,-1.090121 -2.586067,-2.070364 -3.570312,-2.677734 -0.56074,-0.346028 -1.045995,-0.603662 -1.523438,-0.761719 -0.238721,-0.07903 -0.477587,-0.139936 -0.767578,-0.136719 -0.289991,0.0032 -0.683674,0.09774 -0.976563,0.390625 l -5.660156,5.660156 c -0.292888,0.29289 -0.387408,0.686572 -0.390625,0.976563 -0.0032,0.289991 0.05769,0.528857 0.136719,0.767578 0.158057,0.477443 0.415691,0.962697 0.761719,1.523438 0.607742,0.984849 1.588647,2.241604 2.679687,3.572265 -0.732259,1.356206 -1.324383,2.780869 -1.771484,4.25586 -1.710936,0.169652 -3.291165,0.365675 -4.416016,0.632812 -0.640046,0.152002 -1.164599,0.313057 -1.613281,0.539063 -0.224341,0.113002 -0.434296,0.237983 -0.636719,0.445312 C 35.207734,63.240532 34.996094,63.586269 34.996094,64 v 8 c 0,0.413146 0.210127,0.757564 0.412109,0.964844 0.201982,0.207279 0.412858,0.334226 0.636719,0.447265 0.447722,0.22608 0.971007,0.386957 1.609375,0.539063 1.121487,0.26722 2.696835,0.462995 4.402344,0.632812 0.449541,1.479134 1.046899,2.908248 1.783203,4.267578 -1.088124,1.327687 -2.065467,2.581824 -2.671875,3.564454 -0.345372,0.559643 -0.603889,1.044663 -0.761719,1.521484 -0.07892,0.238411 -0.138041,0.475796 -0.134766,0.765625 0.0033,0.289829 0.09607,0.681994 0.388672,0.974609 a 1.0041404,1.0041404 0 0 0 0,0.002 l 5.660156,5.660156 c 0.292374,0.292379 0.686924,0.387189 0.976563,0.390625 0.289639,0.0034 0.52739,-0.05606 0.765625,-0.134766 0.476471,-0.157416 0.960516,-0.415105 1.519531,-0.759765 0.982284,-0.605628 2.235342,-1.582561 3.5625,-2.669922 1.361522,0.72888 2.791781,1.319582 4.271485,1.761718 0.169586,1.709034 0.365907,3.288235 0.632812,4.41211 0.152002,0.640045 0.313056,1.1646 0.539063,1.613281 0.113003,0.224341 0.237983,0.434297 0.445312,0.636719 0.20733,0.202422 0.553067,0.414062 0.966797,0.414062 h 8 c 0.413147,0 0.757565,-0.210127 0.964844,-0.412109 0.207279,-0.201982 0.334226,-0.412858 0.447265,-0.636719 0.226079,-0.447722 0.386957,-0.971008 0.539063,-1.609375 0.267336,-1.121974 0.462961,-2.697835 0.632812,-4.404297 1.475662,-0.451976 2.90212,-1.049574 4.257813,-1.787109 1.329678,1.090124 2.586066,2.070365 3.570312,2.677734 0.560741,0.346028 1.045995,0.603663 1.523438,0.761719 0.238721,0.07903 0.477587,0.139936 0.767578,0.136719 0.289991,-0.0032 0.683674,-0.09774 0.976563,-0.390625 l 5.660156,-5.660156 a 1.0041404,1.0041404 0 0 0 0,-0.002 c 0.292878,-0.292889 0.387408,-0.684619 0.390625,-0.974609 0.0032,-0.28999 -0.05769,-0.528856 -0.136719,-0.767578 -0.158057,-0.477444 -0.41569,-0.962699 -0.761719,-1.523438 -0.607742,-0.984846 -1.588648,-2.241604 -2.679687,-3.572265 0.732259,-1.356206 1.324383,-2.780869 1.771484,-4.25586 1.710935,-0.169652 3.291165,-0.365675 4.416016,-0.632812 0.640046,-0.152002 1.164599,-0.313057 1.613281,-0.539063 0.224341,-0.113002 0.434296,-0.237983 0.636719,-0.445312 C 92.792266,72.759468 93.003906,72.413732 93.003906,72 v -8 c 0,-0.413146 -0.210127,-0.757564 -0.412109,-0.964844 -0.201982,-0.207279 -0.412858,-0.334226 -0.636719,-0.447265 -0.447722,-0.22608 -0.971008,-0.386957 -1.609375,-0.539063 -1.121487,-0.26722 -2.696835,-0.462995 -4.402344,-0.632812 -0.449541,-1.479134 -1.046899,-2.908248 -1.783203,-4.267578 1.088125,-1.327686 2.065467,-2.581822 2.671875,-3.564454 0.345372,-0.559645 0.603889,-1.044664 0.761719,-1.521484 0.07891,-0.23841 0.138041,-0.475796 0.134766,-0.765625 -0.0033,-0.289829 -0.09606,-0.681993 -0.388672,-0.974609 l -5.660156,-5.66211 c -0.29238,-0.292377 -0.686928,-0.385239 -0.976563,-0.388672 -0.289635,-0.0034 -0.527391,0.0541 -0.765625,0.132813 -0.476468,0.157417 -0.960517,0.415106 -1.519531,0.759765 -0.982283,0.605626 -2.235342,1.582565 -3.5625,2.669922 -1.361522,-0.72888 -2.791781,-1.319582 -4.271485,-1.761718 -0.169586,-1.70903 -0.365907,-3.288234 -0.632812,-4.41211 C 69.79917,41.02011 69.638115,40.495557 69.412109,40.046875 69.299106,39.822534 69.174126,39.612579 68.966797,39.410156 68.759468,39.207734 68.413731,38.996094 68,38.996094 Z m 4,18 c -0.883176,0 1.957049,0.139301 1.078125,0.05273 -0.878924,-0.08657 1.934566,0.330502 1.068359,0.158203 -0.866206,-0.172299 1.892022,0.520045 1.046875,0.263672 -0.845147,-0.256372 1.833527,0.701258 1.017579,0.363281 -0.815949,-0.337977 1.755454,0.877264 0.976562,0.460938 -0.778892,-0.416327 1.660116,1.045354 0.925781,0.554687 -0.734334,-0.490666 1.549892,1.204813 0.867188,0.644532 -0.682705,-0.560281 1.425281,1.349109 0.800781,0.724609 -0.6245,-0.6245 1.28489,1.483486 0.724609,0.800781 -0.560281,-0.682704 1.135198,1.601522 0.644532,0.867188 -0.490667,-0.734335 0.971014,1.704673 0.554687,0.925781 -0.416326,-0.778892 0.798915,1.792511 0.460938,0.976562 -0.337977,-0.815948 0.619653,1.862726 0.363281,1.017579 -0.256373,-0.845147 0.435971,1.913081 0.263672,1.046875 -0.172299,-0.866207 0.244769,1.947283 0.158203,1.068359 -0.08657,-0.878924 0.05273,1.961301 0.05273,1.078125 0,-0.883176 -0.139301,1.957049 -0.05273,1.078125 0.08657,-0.878924 -0.330502,1.934566 -0.158203,1.068359 0.172299,-0.866206 -0.520045,1.892022 -0.263672,1.046875 0.256372,-0.845147 -0.701258,1.833527 -0.363281,1.017579 0.337977,-0.815949 -0.877264,1.755454 -0.460938,0.976562 0.416327,-0.778892 -1.045354,1.660116 -0.554687,0.925781 0.490666,-0.734334 -1.204813,1.549892 -0.644532,0.867188 0.560281,-0.682705 -1.349109,1.425281 -0.724609,0.800781 0.6245,-0.6245 -1.483486,1.28489 -0.800781,0.724609 0.682704,-0.560281 -1.601522,1.135198 -0.867188,0.644532 0.734335,-0.490667 -1.704673,0.971014 -0.925781,0.554687 0.778892,-0.416326 -1.792511,0.798915 -0.976562,0.460938 0.815948,-0.337977 -1.862726,0.619653 -1.017579,0.363281 0.845147,-0.256373 -1.913081,0.435971 -1.046875,0.263672 0.866207,-0.172299 -1.947283,0.244769 -1.068359,0.158203 0.878924,-0.08657 -1.961301,0.05273 -1.078125,0.05273 0.883176,0 -1.957049,-0.139301 -1.078125,-0.05273 0.878924,0.08657 -1.934566,-0.330502 -1.068359,-0.158203 0.866206,0.172299 -1.892022,-0.520045 -1.046875,-0.263672 0.845147,0.256372 -1.833527,-0.701258 -1.017579,-0.363281 0.815949,0.337977 -1.755454,-0.877264 -0.976562,-0.460938 0.778892,0.416327 -1.660116,-1.045354 -0.925781,-0.554687 0.734334,0.490666 -1.549892,-1.204813 -0.867188,-0.644532 0.682705,0.560281 -1.425281,-1.349109 -0.800781,-0.724609 0.6245,0.6245 -1.28489,-1.483486 -0.724609,-0.800781 0.560281,0.682704 -1.135198,-1.601522 -0.644532,-0.867188 0.490667,0.734335 -0.971014,-1.704673 -0.554687,-0.925781 0.416326,0.778892 -0.798915,-1.792511 -0.460938,-0.976562 0.337977,0.815948 -0.619653,-1.862726 -0.363281,-1.017579 0.256373,0.845147 -0.435971,-1.913081 -0.263672,-1.046875 0.172299,0.866207 -0.244769,-1.947283 -0.158203,-1.068359 0.08657,0.878924 -0.05273,-1.961301 -0.05273,-1.078125 0,0.883176 0.139301,-1.957049 0.05273,-1.078125 -0.08657,0.878924 0.330502,-1.934566 0.158203,-1.068359 -0.172299,0.866206 0.520045,-1.892022 0.263672,-1.046875 -0.256372,0.845147 0.701258,-1.833527 0.363281,-1.017579 -0.337977,0.815949 0.877264,-1.755454 0.460938,-0.976562 -0.416327,0.778892 1.045354,-1.660116 0.554687,-0.925781 -0.490666,0.734334 1.204813,-1.549892 0.644532,-0.867188 -0.560281,0.682705 1.349109,-1.425281 0.724609,-0.800781 -0.6245,0.6245 1.483486,-1.28489 0.800781,-0.724609 -0.682704,0.560281 1.601522,-1.135198 0.867188,-0.644532 -0.734335,0.490667 1.704673,-0.971014 0.925781,-0.554687 -0.778892,0.416326 1.792511,-0.798915 0.976562,-0.460938 -0.815948,0.337977 1.862726,-0.619653 1.017579,-0.363281 -0.845147,0.256373 1.913081,-0.435971 1.046875,-0.263672 -0.866207,0.172299 1.947283,-0.244769 1.068359,-0.158203 -0.878924,0.08657 1.961301,-0.05273 1.078125,-0.05273 z" /><path
     style="color:#000000;clip-rule:nonzero;display:inline;overflow:visible;visibility:visible;opacity:0.07;isolation:auto;mix-blend-mode:normal;color-interpolation:sRGB;color-interpolation-filters:linearRGB;solid-color:#000000;solid-opacity:1;fill:#ffffff;fill-opacity:1;fill-rule:nonzero;stroke:none;stroke-width:1.7;stroke-linecap:butt;stroke-linejoin:miter;stroke-miterlimit:4;stroke-dasharray:none;stroke-dashoffset:0;stroke-opacity:1;marker:none;color-rendering:auto;image-rendering:auto;shape-rendering:auto;text-rendering:auto;enable-background:accumulate"
     d="m 60,40 c -0.71986,0 -1.31975,2.780369 -1.67188,6.753906 a 22,22 0 0 0 -5.3164,2.234376 c -3.0711,-2.573892 -5.47007,-4.12759 -5.98047,-3.617188 l -5.66016,5.660156 c -0.5104,0.510402 1.0433,2.909374 3.61719,5.980468 a 22,22 0 0 0 -2.21484,5.316407 C 38.78877,62.679914 36,63.278932 36,64 v 8 c 0,0.719863 2.78037,1.319749 6.75391,1.671876 A 22,22 0 0 0 44.98047,79 c -2.56804,3.065601 -4.11916,5.458961 -3.60938,5.968761 l 5.66016,5.660139 c 0.50931,0.509321 2.89966,-1.0381 5.96094,-3.60156 a 22,22 0 0 0 5.33593,2.19922 C 58.67991,93.211241 59.27893,96 60,96 h 8 c 0.71986,0 1.31975,-2.78036 1.67188,-6.7539 a 22,22 0 0 0 5.3164,-2.23438 c 3.0711,2.5739 5.47007,4.12758 5.98047,3.61718 l 5.66016,-5.660139 c 0.5104,-0.51042 -1.0433,-2.90938 -3.61719,-5.980479 a 22,22 0 0 0 2.21484,-5.316406 C 89.21123,73.320087 92,72.721068 92,72 v -8 c 0,-0.719862 -2.78037,-1.319748 -6.75391,-1.671875 A 22,22 0 0 0 83.01953,57 c 2.56804,-3.065594 4.11916,-5.458962 3.60938,-5.96875 l -5.66016,-5.660156 c -0.50931,-0.509306 -2.89966,1.038111 -5.96094,3.601562 A 22,22 0 0 0 69.67188,46.773438 C 69.32009,42.788768 68.72107,40 68,40 Z m 4,18 A 10,10 0 0 1 74,68 10,10 0 0 1 64,78 10,10 0 0 1 54,68 10,10 0 0 1 64,58 Z"
     id="path4690-5" /><path
     style="color:#000000;font-variation-settings:normal;clip-rule:nonzero;display:inline;overflow:visible;visibility:visible;isolation:auto;mix-blend-mode:normal;color-interpolation:sRGB;color-interpolation-filters:linearRGB;solid-color:#000000;solid-opacity:1;vector-effect:none;fill:url(#radialGradient4147-1);fill-opacity:1;fill-rule:nonzero;stroke:none;stroke-width:1;stroke-linecap:butt;stroke-linejoin:miter;stroke-miterlimit:4;stroke-dasharray:none;stroke-dashoffset:0;stroke-opacity:1;-inkscape-stroke:none;marker:none;color-rendering:auto;image-rendering:auto;shape-rendering:auto;text-rendering:auto;enable-background:accumulate;stop-color:#000000;opacity:1;stop-opacity:1"
     d="m 60,95 c -0.71986,0 -1.31975,-2.780369 -1.67188,-6.753906 a 22,22 0 0 1 -5.3164,-2.234376 c -3.0711,2.573892 -5.47007,4.12759 -5.98047,3.617188 L 41.37109,83.96875 c -0.5104,-0.510402 1.0433,-2.909374 3.61719,-5.980468 A 22,22 0 0 1 42.77344,72.671875 C 38.78877,72.320086 36,71.721068 36,71 v -8 c 0,-0.719863 2.78037,-1.319749 6.75391,-1.671876 A 22,22 0 0 1 44.98047,56 C 42.41243,52.934399 40.86131,50.541039 41.37109,50.031239 L 47.03125,44.3711 c 0.50931,-0.509321 2.89966,1.0381 5.96094,3.60156 a 22,22 0 0 1 5.33593,-2.19922 C 58.67991,41.788759 59.27893,39 60,39 h 8 c 0.71986,0 1.31975,2.78036 1.67188,6.7539 a 22,22 0 0 1 5.3164,2.23438 c 3.0711,-2.5739 5.47007,-4.12758 5.98047,-3.61718 l 5.66016,5.660139 c 0.5104,0.51042 -1.0433,2.90938 -3.61719,5.980479 a 22,22 0 0 1 2.21484,5.316406 C 89.21123,61.679913 92,62.278932 92,63 v 8 c 0,0.719862 -2.78037,1.319748 -6.75391,1.671875 A 22,22 0 0 1 83.01953,78 c 2.56804,3.065594 4.11916,5.458962 3.60938,5.96875 l -5.66016,5.660156 c -0.50931,0.509306 -2.89966,-1.038111 -5.96094,-3.601562 a 22,22 0 0 1 -5.33593,2.199218 C 69.32009,92.211232 68.72107,95 68,95 Z M 64,77 A 10,10 0 0 0 74,67 10,10 0 0 0 64,57 10,10 0 0 0 54,67 10,10 0 0 0 64,77 Z"
     id="path4690" /><path
     id="path4690-7"
     style="color:#000000;font-variation-settings:normal;clip-rule:nonzero;display:inline;overflow:visible;visibility:visible;opacity:0.15;isolation:auto;mix-blend-mode:normal;color-interpolation:sRGB;color-interpolation-filters:linearRGB;solid-color:#000000;solid-opacity:1;fill:#0e141f;fill-opacity:1;fill-rule:nonzero;stroke:none;stroke-width:2.5;stroke-linecap:butt;stroke-linejoin:miter;stroke-miterlimit:4;stroke-dasharray:none;stroke-dashoffset:0;stroke-opacity:1;marker:none;color-rendering:auto;image-rendering:auto;shape-rendering:auto;text-rendering:auto;enable-background:accumulate;stop-color:#000000"
     d="m 41.447266,84.044922 -0.07617,-0.07617 c -0.487735,-0.487737 0.9395,-2.72227 3.310547,-5.597656 a 22,22 0 0 0 0.30664,0.617187 c -1.818318,2.169567 -3.109034,3.986822 -3.541015,5.056641 z m 45.105468,0 C 86.120893,82.977036 84.83268,81.164444 83.019531,79 a 22,22 0 0 0 0.306641,-0.615234 c 2.364711,2.869134 3.789761,5.096949 3.302734,5.583984 z M 64,78 A 10,10 0 0 1 54,68 10,10 0 0 1 54.056641,67.5 10,10 0 0 0 64,77 10,10 0 0 0 73.970703,67.736328 10,10 0 0 1 74,68 10,10 0 0 1 64,78 Z M 36,64 v -1 c 0,-0.719862 2.78037,-1.319748 6.753906,-1.671875 a 22,22 0 0 1 1.919922,-4.712891 C 44.784301,56.749272 44.865852,56.863176 44.980469,57 a 22,22 0 0 0 -2.226563,5.328125 C 38.78037,62.680252 36,63.280138 36,64 Z m 56,0 c 0,-0.721067 -2.788771,-1.320086 -6.773438,-1.671875 a 22,22 0 0 0 -2.214843,-5.316406 c 0.114293,-0.136373 0.196461,-0.249198 0.30664,-0.382813 a 22,22 0 0 1 1.908203,4.699219 C 89.211229,61.679914 92,62.278933 92,63 Z M 41.447266,50.955078 c -0.179794,-0.444606 -0.226025,-0.77397 -0.07617,-0.923828 l 5.660156,-5.660156 c 0.509309,-0.509321 2.899661,1.038105 5.960938,3.601562 a 22,22 0 0 1 5.335937,-2.199218 C 58.679915,41.78876 59.278931,39 60,39 h 8 c 0.719859,0 1.319745,2.78037 1.671875,6.753906 a 22,22 0 0 1 5.316406,2.234375 c 3.071097,-2.573897 5.47007,-4.127587 5.980469,-3.617187 l 5.660156,5.660156 c 0.149829,0.149835 0.103331,0.479283 -0.07617,0.923828 L 80.96875,45.371094 c -0.510399,-0.5104 -2.909372,1.04329 -5.980469,3.617187 A 22,22 0 0 0 69.671875,46.753906 C 69.319745,42.78037 68.719859,40 68,40 h -8 c -0.721069,0 -1.320085,2.78876 -1.671875,6.773438 a 22,22 0 0 0 -5.335937,2.199218 C 49.930911,46.409199 47.540559,44.861773 47.03125,45.371094 Z" /><path
     id="path4690-69"
     style="color:#000000;font-variation-settings:normal;clip-rule:nonzero;display:inline;overflow:visible;visibility:visible;opacity:0.07;isolation:auto;mix-blend-mode:normal;color-interpolation:sRGB;color-interpolation-filters:linearRGB;solid-color:#000000;solid-opacity:1;fill:#0e141f;fill-opacity:1;fill-rule:nonzero;stroke:none;stroke-width:2.5;stroke-linecap:butt;stroke-linejoin:miter;stroke-miterlimit:4;stroke-dasharray:none;stroke-dashoffset:0;stroke-opacity:1;marker:none;color-rendering:auto;image-rendering:auto;shape-rendering:auto;text-rendering:auto;enable-background:accumulate;stop-color:#000000"
     d="m 86.572266,84.025391 c -0.608236,-0.916754 -1.459531,-2.01153 -2.41211,-3.173829 0.154807,-0.285796 0.298967,-0.577358 0.441406,-0.86914 1.574364,2.072739 2.419835,3.593831 2.027344,3.986328 z m -45.146485,-0.002 -0.05469,-0.05469 c -0.393202,-0.393203 0.455619,-1.91934 2.035156,-3.998047 0.142009,0.292145 0.286868,0.582923 0.441406,0.869141 -0.956302,1.166331 -1.811917,2.264151 -2.421875,3.183594 z M 64,80.978516 c -0.272147,-0.02153 -0.800351,-0.0475 -1.074219,-0.05273 -0.268253,-0.04804 -0.791753,-0.12409 -1.064453,-0.15625 -0.263433,-0.07478 -0.784468,-0.207228 -1.050781,-0.265625 -0.254672,-0.09959 -0.747036,-0.274796 -1.007813,-0.359375 -0.243915,-0.124441 -0.734633,-0.35618 -0.984375,-0.464843 -0.233325,-0.149256 -0.68632,-0.423205 -0.921875,-0.554688 -0.216928,-0.171205 -0.64094,-0.485739 -0.863281,-0.640625 -0.197581,-0.189853 -0.588951,-0.54347 -0.796875,-0.720703 -0.177233,-0.207924 -0.53085,-0.599294 -0.720703,-0.796875 -0.154886,-0.222341 -0.46942,-0.646353 -0.640625,-0.863281 -0.131483,-0.235555 -0.405432,-0.68855 -0.554688,-0.921875 -0.108663,-0.249742 -0.340402,-0.74046 -0.464843,-0.984375 -0.08458,-0.260777 -0.25979,-0.753141 -0.359375,-1.007813 -0.0584,-0.266313 -0.190849,-0.787348 -0.265625,-1.050781 -0.03216,-0.2727 -0.108207,-0.7962 -0.15625,-1.064453 -0.0052,-0.273868 -0.0312,-0.802072 -0.05273,-1.074219 0.02153,-0.272147 0.0475,-0.800351 0.05273,-1.074219 0.04804,-0.268253 0.12409,-0.791753 0.15625,-1.064453 0.07478,-0.263433 0.207228,-0.784468 0.265625,-1.050781 0.09958,-0.254672 0.274796,-0.747036 0.359375,-1.007813 0.09696,-0.19004 0.241563,-0.495266 0.365234,-0.765625 A 10,10 0 0 0 54,67 10,10 0 0 0 64,77 10,10 0 0 0 74,67 10,10 0 0 0 73.779297,65.037109 c 0.123671,0.270359 0.268279,0.575585 0.365234,0.765625 0.08458,0.260777 0.25979,0.753141 0.359375,1.007813 0.0584,0.266313 0.190849,0.787348 0.265625,1.050781 0.03216,0.2727 0.108207,0.7962 0.15625,1.064453 0.0052,0.273868 0.0312,0.802072 0.05273,1.074219 -0.02153,0.272147 -0.0475,0.800351 -0.05273,1.074219 -0.04804,0.268253 -0.12409,0.791753 -0.15625,1.064453 -0.07478,0.263433 -0.207228,0.784468 -0.265625,1.050781 -0.09959,0.254672 -0.274796,0.747036 -0.359375,1.007813 -0.124441,0.243915 -0.35618,0.734633 -0.464843,0.984375 -0.149256,0.233325 -0.423205,0.68632 -0.554688,0.921875 -0.171205,0.216928 -0.485739,0.64094 -0.640625,0.863281 -0.189853,0.197581 -0.54347,0.588951 -0.720703,0.796875 -0.207924,0.177233 -0.599294,0.53085 -0.796875,0.720703 -0.222341,0.154886 -0.646353,0.46942 -0.863281,0.640625 -0.235555,0.131483 -0.68855,0.405432 -0.921875,0.554688 -0.249742,0.108663 -0.74046,0.340402 -0.984375,0.464843 -0.260777,0.08458 -0.753141,0.25979 -1.007813,0.359375 -0.266313,0.0584 -0.787348,0.190849 -1.050781,0.265625 -0.2727,0.03216 -0.7962,0.108207 -1.064453,0.15625 -0.273868,0.0052 -0.802072,0.0312 -1.074219,0.05273 z M 92,64.615234 c -0.01603,-0.0083 -0.0307,-0.01919 -0.04687,-0.02734 -0.448682,-0.226006 -0.973236,-0.387061 -1.613281,-0.539063 -1.12485,-0.267137 -2.705083,-0.463161 -4.416016,-0.632812 -0.4471,-1.47499 -1.039226,-2.899655 -1.771484,-4.25586 0.08338,-0.101695 0.150444,-0.192225 0.232422,-0.292968 a 22,22 0 0 1 0.841796,2.460937 C 89.211229,61.679914 92,62.278933 92,63 Z m -56,-0.002 V 63 c 0,-0.719862 2.78037,-1.319748 6.753906,-1.671875 a 22,22 0 0 1 0.84961,-2.478516 c 0.08348,0.102665 0.151375,0.195173 0.236328,0.298829 -0.736304,1.359328 -1.333663,2.788445 -1.783203,4.267578 -1.705508,0.169816 -3.280858,0.365592 -4.402344,0.632812 -0.638367,0.152106 -1.161654,0.312983 -1.609375,0.539063 -0.01535,0.0078 -0.02969,0.01749 -0.04492,0.02539 z M 41.623047,51.357422 C 41.281703,50.689925 41.178046,50.224305 41.371094,50.03125 l 5.660156,-5.660156 c 0.509309,-0.509321 2.899661,1.038105 5.960938,3.601562 A 22,22 0 0 1 57.654297,46 c -0.08561,0.657237 -0.165847,1.342293 -0.238281,2.072266 -1.479703,0.442135 -2.909964,1.032839 -4.271485,1.761718 -1.327156,-1.08736 -2.580217,-2.064294 -3.5625,-2.669922 -0.559014,-0.344659 -1.04306,-0.602349 -1.519531,-0.759765 -0.238235,-0.07871 -0.475986,-0.138202 -0.765625,-0.134766 -0.289639,0.0034 -0.684189,0.09825 -0.976563,0.390625 z m 44.753906,0 -4.697265,-4.697266 c -0.292889,-0.292887 -0.686572,-0.387408 -0.976563,-0.390625 -0.289991,-0.0032 -0.528857,0.05769 -0.767578,0.136719 -0.477443,0.158056 -0.962697,0.415691 -1.523438,0.761719 -0.984245,0.607368 -2.240635,1.587611 -3.570312,2.677734 -1.355692,-0.737534 -2.782152,-1.335134 -4.257813,-1.787109 -0.07266,-0.730035 -0.152587,-1.415348 -0.238281,-2.072266 a 22,22 0 0 1 4.642578,2.001953 c 3.071097,-2.573897 5.47007,-4.127587 5.980469,-3.617187 l 5.660156,5.660156 c 0.193074,0.193082 0.08919,0.65845 -0.251953,1.326172 z M 58.880859,41.59375 C 59.195266,39.984933 59.575388,39 60,39 h 8 c 0.424571,0 0.806207,0.985036 1.121094,2.59375 -0.04946,-0.06221 -0.09416,-0.125039 -0.15625,-0.185547 C 68.757565,41.206221 68.413147,40.996094 68,40.996094 h -8 c -0.41373,0 -0.759467,0.21164 -0.966797,0.414062 -0.06127,0.05982 -0.103639,0.122277 -0.152344,0.183594 z" /></svg>
