<svg xmlns="http://www.w3.org/2000/svg" xmlns:xlink="http://www.w3.org/1999/xlink" viewBox="0 0 64 64"><defs><linearGradient x1="97.539" y1="16.962" x2="97.539" y2="44.261" id="q" xlink:href="#a" gradientUnits="userSpaceOnUse" gradientTransform="matrix(1.32103 0 0 1.26798 -70.73 .174)"/><linearGradient id="a"><stop offset="0" stop-color="#fff"/><stop offset=".022" stop-color="#fff" stop-opacity=".235"/><stop offset=".979" stop-color="#fff" stop-opacity=".157"/><stop offset="1" stop-color="#fff" stop-opacity=".392"/></linearGradient><linearGradient x1="22.935" y1="49.629" x2="22.809" y2="36.658" id="p" xlink:href="#b" gradientUnits="userSpaceOnUse" gradientTransform="matrix(1.5433 0 0 1.31034 -5.04 .345)"/><linearGradient id="b"><stop offset="0" stop-color="#0a0a0a" stop-opacity=".498"/><stop offset="1" stop-color="#0a0a0a" stop-opacity="0"/></linearGradient><linearGradient x1="-91" y1="44" x2="-91" y2="119.06" id="o" xlink:href="#c" gradientUnits="userSpaceOnUse" gradientTransform="matrix(.50413 0 0 .49333 73.843 -1.453)"/><linearGradient id="c"><stop offset="0" stop-color="#b4cee1"/><stop offset="1" stop-color="#5d9fcd"/></linearGradient><radialGradient cx="605.714" cy="486.648" r="117.143" fx="605.714" fy="486.648" id="n" xlink:href="#d" gradientUnits="userSpaceOnUse" gradientTransform="matrix(-.04016 0 0 .03294 30.204 40.92)"/><linearGradient id="d"><stop offset="0"/><stop offset="1" stop-opacity="0"/></linearGradient><linearGradient x1="302.857" y1="366.648" x2="302.857" y2="609.505" id="m" xlink:href="#e" gradientUnits="userSpaceOnUse" gradientTransform="matrix(.1077 0 0 .03294 -6.923 40.922)"/><linearGradient id="e"><stop offset="0" stop-opacity="0"/><stop offset=".5"/><stop offset="1" stop-opacity="0"/></linearGradient><radialGradient cx="605.714" cy="486.648" r="117.143" fx="605.714" fy="486.648" id="l" xlink:href="#d" gradientUnits="userSpaceOnUse" gradientTransform="matrix(.04016 0 0 .03294 33.796 40.92)"/><linearGradient x1="97.539" y1="8.81" x2="97.539" y2="44.261" id="k" xlink:href="#f" gradientUnits="userSpaceOnUse" gradientTransform="matrix(1.27497 0 0 1.2183 -67.16 -.34)"/><linearGradient id="f"><stop offset="0" stop-color="#fff"/><stop offset=".109" stop-color="#fff" stop-opacity=".235"/><stop offset=".979" stop-color="#fff" stop-opacity=".157"/><stop offset="1" stop-color="#fff" stop-opacity=".392"/></linearGradient><linearGradient x1="-51.786" y1="53.514" x2="-51.786" y2="3.634" id="j" xlink:href="#g" gradientUnits="userSpaceOnUse" gradientTransform="matrix(1.05638 0 0 1.07706 69.975 -2.53)"/><linearGradient id="g"><stop offset="0" stop-opacity=".322"/><stop offset="1" stop-opacity=".278"/></linearGradient><linearGradient id="h"><stop offset="0" stop-color="#f9f9f9"/><stop offset="1" stop-color="#c9c9c9"/></linearGradient><linearGradient x1="62.989" y1="14.091" x2="62.989" y2="16.998" id="i" xlink:href="#h" gradientUnits="userSpaceOnUse" gradientTransform="matrix(1.31355 0 0 1.29006 -55.486 -1.222)"/></defs><path d="M7.5 10a.5.5 0 0 0-.5.5V14H4.5a.5.5 0 0 0-.5.5V24a.5.5 0 0 0 .5.5h55a.5.5 0 0 0 .5-.5v-9.5a.5.5 0 0 0-.5-.5H28v-3.5a.5.5 0 0 0-.5-.5h-20z" color="#000" fill="url(#i)" overflow="visible"/><path d="M8 9.5c-.915.01-1.5.456-1.5 1.333V13.5H4.994C4 13.5 3.5 13.974 3.5 14.842c.045 13.72 0 14.493 0 15.658 1.903 0 57-4.933 57-7.056V15c0-1-.5-1.5-1.5-1.5H28.5v-2.667c0-.877-.225-1.343-1.14-1.333z" opacity=".8" color="#000" fill="none" stroke="url(#j)" overflow="visible"/><path d="M7.5 10.5v4h-3v10h55v-10h-32v-4h-20z" color="#000" fill="none" stroke="url(#k)" stroke-linecap="round" stroke-linejoin="round" overflow="visible"/><path d="M58 53v8c2.068.015 5-1.793 5-4 0-2.21-2.308-4-5-4z" opacity=".3" fill="url(#l)" overflow="visible"/><path opacity=".3" fill="url(#m)" overflow="visible" d="M6 53h52v8H6z"/><path d="M6 53v8c-2.068.015-5-1.793-5-4 0-2.21 2.308-4 5-4z" opacity=".3" fill="url(#n)" overflow="visible"/><path d="M2.503 20.532c-1.44.164-.87 1.853-.986 2.803.527 11.193 1.26 21.81 1.784 33.002 0 1.19 1.197 1.137 1.868 1.137h54.49c1.463-.14.855-1.86 1.06-2.845.528-11.196 1.26-21.57 1.784-32.765.02-.752-.5-1.335-1.214-1.335H2.503z" color="#000" fill="url(#o)" overflow="visible"/><path d="M2.41 20h59.18c.856 0 1.41.584 1.41 1.31l-1.678 35.38c0 .726-.688 1.31-1.543 1.31H4.22c-.854 0-1.543-.584-1.543-1.31L1 21.31c0-.726.554-1.31 1.41-1.31z" opacity=".4" fill="url(#p)"/><path d="M61.068 21.5l-57.118.03c-1.71 0-1.434.035-1.434 1.077l1.62 32.914c.018.946-.064.98 1.074.98h54.44c.54-11.58 1.258-22.68 1.814-34.32.052-.555.014-.68-.396-.68z" opacity=".5" color="#000" fill="none" stroke="url(#q)" stroke-linecap="round" stroke-linejoin="round" overflow="visible"/><path d="M32.812 28.094a.987.987 0 0 0-.375.125L25.874 32h3.97l2.718-1.562.906 1.562h2.28l-1.968-3.437a.95.95 0 0 0-.968-.47zM25 34c-.555 0-1 .446-1 1v16c0 .554.445 1 1 1h16c.553 0 1-.446 1-1V35c0-.554-.447-1-1-1zm-3 .25l-3.438 1.97c-.48.276-.62.863-.344 1.343l3.78 6.562v-3.97l-1.56-2.717 1.56-.907zM26 36h14v12H26z" opacity=".3" color="#000" fill="#fff" fill-opacity=".552" overflow="visible"/><path d="M32.812 27.094a.987.987 0 0 0-.375.125L25.874 31h3.97l2.718-1.562.906 1.562h2.28l-1.968-3.437a.95.95 0 0 0-.968-.47zM25 33c-.555 0-1 .446-1 1v16c0 .554.445 1 1 1h16c.553 0 1-.446 1-1V34c0-.554-.447-1-1-1zm-3 .25l-3.438 1.97c-.48.276-.62.863-.344 1.343l3.78 6.562v-3.97l-1.56-2.717 1.56-.907zM26 35h14v12H26z" color="#000" fill="#175785" fill-opacity=".552" overflow="visible"/><path d="M2.503 20.532c-1.44.164-.87 1.853-.986 2.803.527 11.193 1.26 21.81 1.784 33.002 0 1.19 1.197 1.137 1.868 1.137h54.49c1.463-.14.855-1.86 1.06-2.845.528-11.196 1.26-21.57 1.784-32.765.02-.752-.5-1.335-1.214-1.335H2.503z" opacity=".3" color="#000" fill="none" stroke="#000" stroke-linecap="round" stroke-linejoin="round" overflow="visible"/></svg>