<?xml version="1.0" encoding="UTF-8" standalone="no"?>
<!-- Created with Inkscape (http://www.inkscape.org/) -->

<svg
   xmlns:svg="http://www.w3.org/2000/svg"
   xmlns="http://www.w3.org/2000/svg"
   xmlns:xlink="http://www.w3.org/1999/xlink"
   version="1.0"
   width="16"
   height="16"
   id="svg3298">
  <defs
     id="defs3300">
    <linearGradient
       id="linearGradient3945">
      <stop
         id="stop3947"
         style="stop-color:#ecf5b6;stop-opacity:1"
         offset="0" />
      <stop
         id="stop3949"
         style="stop-color:#9fba48;stop-opacity:1"
         offset="1" />
    </linearGradient>
    <linearGradient
       id="linearGradient5060">
      <stop
         id="stop5062"
         style="stop-color:black;stop-opacity:1"
         offset="0" />
      <stop
         id="stop5064"
         style="stop-color:black;stop-opacity:0"
         offset="1" />
    </linearGradient>
    <linearGradient
       id="linearGradient5048">
      <stop
         id="stop5050"
         style="stop-color:black;stop-opacity:0"
         offset="0" />
      <stop
         id="stop5056"
         style="stop-color:black;stop-opacity:1"
         offset="0.5" />
      <stop
         id="stop5052"
         style="stop-color:black;stop-opacity:0"
         offset="1" />
    </linearGradient>
    <linearGradient
       id="linearGradient3390-178-986-453">
      <stop
         id="stop3624"
         style="stop-color:#bb5e12;stop-opacity:1"
         offset="0" />
      <stop
         id="stop3626"
         style="stop-color:#cd8033;stop-opacity:1"
         offset="1" />
    </linearGradient>
    <linearGradient
       id="linearGradient7012-661-145-733-759-865-745-661-970-94">
      <stop
         id="stop3618"
         style="stop-color:#edb663;stop-opacity:1"
         offset="0" />
      <stop
         id="stop3620"
         style="stop-color:#e08223;stop-opacity:1"
         offset="1" />
    </linearGradient>
    <linearGradient
       id="linearGradient8265-821-176-38-919-66-249">
      <stop
         id="stop2687"
         style="stop-color:white;stop-opacity:0.2"
         offset="0" />
      <stop
         id="stop2689"
         style="stop-color:white;stop-opacity:0"
         offset="1" />
    </linearGradient>
    <linearGradient
       x1="302.85715"
       y1="366.64789"
       x2="302.85715"
       y2="609.50507"
       id="linearGradient3350"
       xlink:href="#linearGradient5048"
       gradientUnits="userSpaceOnUse"
       gradientTransform="matrix(2.774389,0,0,1.969706,-1892.179,-872.8854)" />
    <radialGradient
       cx="605.71429"
       cy="486.64789"
       r="117.14286"
       fx="605.71429"
       fy="486.64789"
       id="radialGradient3352"
       xlink:href="#linearGradient5060"
       gradientUnits="userSpaceOnUse"
       gradientTransform="matrix(2.774389,0,0,1.969706,-1891.633,-872.8854)" />
    <radialGradient
       cx="605.71429"
       cy="486.64789"
       r="117.14286"
       fx="605.71429"
       fy="486.64789"
       id="radialGradient3354"
       xlink:href="#linearGradient5060"
       gradientUnits="userSpaceOnUse"
       gradientTransform="matrix(-2.774389,0,0,1.969706,112.7623,-872.8854)" />
    <linearGradient
       x1="126.69791"
       y1="58.583481"
       x2="169.22964"
       y2="238.3999"
       id="linearGradient3356"
       xlink:href="#linearGradient7012-661-145-733-759-865-745-661-970-94"
       gradientUnits="userSpaceOnUse"
       gradientTransform="matrix(0.05489342,0.01385132,0.00257263,0.05248166,-0.7128009,-0.7696177)" />
    <linearGradient
       x1="10.318256"
       y1="14.992862"
       x2="4.1760364"
       y2="4.0514131"
       id="linearGradient3358"
       xlink:href="#linearGradient3390-178-986-453"
       gradientUnits="userSpaceOnUse"
       gradientTransform="matrix(1.0083043,0,0,1.0006232,-8.2394213e-4,-0.5088277)" />
    <linearGradient
       x1="18.03083"
       y1="16.407909"
       x2="20.054544"
       y2="24.627615"
       id="linearGradient3360"
       xlink:href="#linearGradient8265-821-176-38-919-66-249"
       gradientUnits="userSpaceOnUse" />
    <linearGradient
       x1="24.103895"
       y1="15.168831"
       x2="24.103895"
       y2="32.485161"
       id="linearGradient2536"
       xlink:href="#linearGradient3945"
       gradientUnits="userSpaceOnUse"
       gradientTransform="matrix(0.3280315,0,0,0.3257096,4.4449582,4.5320254)" />
  </defs>
  <g
     id="layer1">
    <g
       transform="translate(-4.2128644e-8,0.5022072)"
       id="g3339">
      <g
         transform="matrix(0.3639508,0,0,0.3445682,-0.6448509,-0.8876588)"
         id="layer6">
        <g
           transform="matrix(0.02165152,0,0,0.01485743,43.0076,42.68539)"
           id="g2488"
           style="display:inline">
          <rect
             width="1339.6335"
             height="478.35718"
             x="-1559.2523"
             y="-150.69685"
             id="rect2490"
             style="opacity:0.40206185;fill:url(#linearGradient3350);fill-opacity:1;fill-rule:nonzero;stroke:none;stroke-width:1;marker:none;visibility:visible;display:inline;overflow:visible" />
          <path
             d="m -219.61876,-150.68038 c 0,0 0,478.33079 0,478.33079 142.874166,0.90045 345.40022,-107.16966 345.40014,-239.196175 0,-132.026537 -159.436816,-239.134595 -345.40014,-239.134615 z"
             id="path2492"
             style="opacity:0.40206185;fill:url(#radialGradient3352);fill-opacity:1;fill-rule:nonzero;stroke:none;stroke-width:1;marker:none;visibility:visible;display:inline;overflow:visible" />
          <path
             d="m -1559.2523,-150.68038 c 0,0 0,478.33079 0,478.33079 -142.8742,0.90045 -345.4002,-107.16966 -345.4002,-239.196175 0,-132.026537 159.4368,-239.134595 345.4002,-239.134615 z"
             id="path2494"
             style="opacity:0.40206185;fill:url(#radialGradient3354);fill-opacity:1;fill-rule:nonzero;stroke:none;stroke-width:1;marker:none;visibility:visible;display:inline;overflow:visible" />
        </g>
      </g>
      <path
         d="m 1.6608021,0.99170725 c -0.056258,0 -0.104488,0.060345 -0.104488,0.12267305 l 0,1.063161 -0.516622,0 -0.39705504,0 c -0.070206,0 -0.125385,0.06172 -0.125385,0.122673 l 0,0.245345 0,2.841912 c -0.007087,2.57297 -0.020898,6.2422497 -0.020898,8.6117017 4.70632604,-0.02397 9.41510874,-0.04826 14.12251594,-0.06552 -0.417129,0 -1.112329,-0.07009 -1.102384,-0.940487 0.0035,-3.5970297 0.02296,-7.2431207 0.01078,-10.8156237 l -6.0307969,0 0,-1.063161 c 0,-0.062328 -0.048228,-0.12267305 -0.104487,-0.12267305 l -5.731177,0 z"
         id="rect2196"
         style="fill:white;fill-opacity:1;stroke:#a8a8a8;stroke-width:0.97899997;stroke-linecap:round;stroke-linejoin:round;stroke-miterlimit:4;stroke-opacity:1;stroke-dasharray:none;display:inline" />
      <path
         d="m 2.5253881,4.0218063 c 0.656364,0 12.4800419,0.031393 12.9890009,0.031393 0,0.615413 -0.02468,9.9580747 -0.05407,9.9580747 -4.558843,0.01775 -11.6593999,-0.01389 -12.9868139,-0.01389 0,-1.161471 0.05188,-7.5853287 0.05188,-9.9755727 z"
         id="rect3086"
         style="fill:url(#linearGradient3356);fill-opacity:1;stroke:url(#linearGradient3358);stroke-width:0.95339239;stroke-linecap:round;stroke-linejoin:round;stroke-miterlimit:4;stroke-opacity:1;stroke-dasharray:none;display:inline" />
      <path
         d="m 3.21875,5.34375 c -1.5389481,0 -2.8125,1.273552 -2.8125,2.8125 l 0,16 c 0.005894,0.286233 0.14841957,0.612577 0.375,0.8125 0.2265775,0.199921 0.5161946,0.284272 0.84375,0.25 0.010415,2.66e-4 0.020835,2.66e-4 0.03125,0 l 45,-7.125 c 0.521773,-0.08229 0.930206,-0.53433 0.9375,-1.0625 l 0,-8.875 c 0,-1.538948 -1.273552,-2.8125 -2.8125,-2.8125 l -41.5625,0 z"
         transform="matrix(0.2966887,0,0,0.3520695,1.8805021,1.6164222)"
         id="path2509"
         style="fill:url(#linearGradient3360);fill-opacity:1;fill-rule:evenodd;stroke:none" />
      <path
         d="m 3.4989691,13.497792 0,-8.4999992 11.4999999,0"
         id="path2406"
         style="opacity:0.35;fill:none;stroke:white;stroke-width:1px;stroke-linecap:butt;stroke-linejoin:miter;stroke-opacity:1" />
    </g>
  </g>
  <path
     d="m 10.499998,10.500002 0,-1.9924686 3,0 0,1.9924686 1.99247,0 0,2.999999 -1.99247,0 0,1.992467 -3,0 0,-1.992467 -1.9924696,0 0,-2.999999 1.9924696,0 z"
     id="path2262"
     style="fill:url(#linearGradient2536);fill-opacity:1;fill-rule:evenodd;stroke:#699536;stroke-width:1.01506352;stroke-linecap:butt;stroke-linejoin:round;stroke-miterlimit:4;stroke-opacity:1;stroke-dasharray:none;display:inline" />
</svg>
