<?xml version="1.0" encoding="UTF-8" standalone="no"?>
<svg
   xmlns:dc="http://purl.org/dc/elements/1.1/"
   xmlns:cc="http://creativecommons.org/ns#"
   xmlns:rdf="http://www.w3.org/1999/02/22-rdf-syntax-ns#"
   xmlns:svg="http://www.w3.org/2000/svg"
   xmlns="http://www.w3.org/2000/svg"
   xmlns:xlink="http://www.w3.org/1999/xlink"
   version="1.1"
   width="24"
   height="24"
   id="svg4157">
  <defs
     id="defs4159">
    <linearGradient
       id="linearGradient5428">
      <stop
         id="stop5424"
         offset="0"
         style="stop-color:#5c5c5c;stop-opacity:1;" />
      <stop
         id="stop5426"
         offset="1"
         style="stop-color:#2f2f2f;stop-opacity:1" />
    </linearGradient>
    <linearGradient
       id="linearGradient4718">
      <stop
         offset="0"
         style="stop-color:#fdecc4;stop-opacity:1"
         id="stop4720" />
      <stop
         id="stop1140-5"
         style="stop-color:#e89843;stop-opacity:1"
         offset="0.603131" />
      <stop
         offset="1"
         style="stop-color:#b45c15;stop-opacity:1"
         id="stop4722" />
    </linearGradient>
    <radialGradient
       r="16"
       fy="13"
       fx="24"
       cy="13"
       cx="24"
       gradientTransform="matrix(1.5877009,0,0,1.1113911,-26.104828,-10.06864)"
       gradientUnits="userSpaceOnUse"
       id="radialGradient5517"
       xlink:href="#radialGradient3093-0-3-6-6-0-3" />
    <radialGradient
       cx="23.896"
       cy="3.99"
       r="20.396999"
       id="radialGradient3093-0-3-6-6-0-3"
       gradientUnits="userSpaceOnUse"
       gradientTransform="matrix(0,1.2316483,-1.625754,0,18.486966,-28.721977)">
      <stop
         id="stop3244-9-33-7-0-9-5-6"
         style="stop-color:#ffffff;stop-opacity:1"
         offset="0" />
      <stop
         id="stop3246-3-5-0-8-5-0-7"
         style="stop-color:#dddddd;stop-opacity:1"
         offset="0.26238" />
      <stop
         id="stop3248-1-7-8-8-1-0-5"
         style="stop-color:#abacae;stop-opacity:1"
         offset="0.66093999" />
      <stop
         id="stop3250-9-3-0-5-1-2-3"
         style="stop-color:#89898b;stop-opacity:1"
         offset="1" />
    </radialGradient>
    <radialGradient
       r="16"
       fy="25"
       fx="24"
       cy="25"
       cx="24"
       gradientTransform="matrix(0.7812502,0,0,0.7812502,-6.750028,-7.53115)"
       gradientUnits="userSpaceOnUse"
       id="radialGradient5513"
       xlink:href="#linearGradient4763-2" />
    <linearGradient
       id="linearGradient4763-2">
      <stop
         id="stop4761-8"
         offset="0"
         style="stop-color:#000000;stop-opacity:0" />
      <stop
         style="stop-color:#000000;stop-opacity:0;"
         offset="0.80000001"
         id="stop1272" />
      <stop
         style="stop-color:#000000;stop-opacity:0.5"
         offset="0.80000001"
         id="stop4769-9" />
      <stop
         id="stop4759-7"
         offset="1"
         style="stop-color:#000000;stop-opacity:1" />
    </linearGradient>
    <linearGradient
       xlink:href="#linearGradient5428"
       id="linearGradient5430-3-3"
       x1="7"
       y1="16"
       x2="25"
       y2="16"
       gradientUnits="userSpaceOnUse"
       gradientTransform="matrix(0,-0.76470597,-0.76470597,0,24.235288,24.2353)" />
    <radialGradient
       xlink:href="#linearGradient4718"
       id="radialGradient4652-6-5"
       cx="15.999896"
       cy="20.381687"
       fx="15.999896"
       fy="20.381687"
       r="12.000061"
       gradientTransform="matrix(0.70832617,-4.002184e-8,4.0021633e-8,0.7083297,0.666847,-0.1667)"
       gradientUnits="userSpaceOnUse" />
    <radialGradient
       r="3"
       fy="12.5"
       fx="48.000004"
       cy="12.5"
       cx="48.000004"
       gradientTransform="matrix(1.4218751,-9.2867671e-7,7.9591915e-7,1.218887,-56.250032,-4.45521)"
       gradientUnits="userSpaceOnUse"
       id="radialGradient5467"
       xlink:href="#6589-3" />
    <linearGradient
       id="6589-3">
      <stop
         id="stop5849-8"
         style="stop-color:#b5b7b4;stop-opacity:1"
         offset="0" />
      <stop
         offset="0.43733779"
         style="stop-color:#676965;stop-opacity:1;"
         id="stop4598" />
      <stop
         id="stop5851-7"
         style="stop-color:#282927;stop-opacity:1"
         offset="1" />
    </linearGradient>
    <linearGradient
       y2="24.999998"
       x2="40.000004"
       y1="24.999998"
       x1="8.0000057"
       gradientTransform="matrix(0,0.48387118,-0.48387102,0,24.096776,0.38709)"
       gradientUnits="userSpaceOnUse"
       id="linearGradient5497"
       xlink:href="#linearGradient3688-464-309-604" />
    <linearGradient
       id="linearGradient3688-464-309-604">
      <stop
         offset="0"
         style="stop-color:#181818;stop-opacity:1"
         id="stop3094" />
      <stop
         offset="1"
         style="stop-color:#181818;stop-opacity:0"
         id="stop3096" />
    </linearGradient>
    <linearGradient
       y2="24.999998"
       x2="40.000004"
       y1="24.999998"
       x1="8.0000057"
       gradientTransform="matrix(0,0.61290344,-0.61290343,0,27.32259,-2.7097)"
       gradientUnits="userSpaceOnUse"
       id="linearGradient5505"
       xlink:href="#linearGradient4781" />
    <linearGradient
       id="linearGradient4781">
      <stop
         style="stop-color:#ffffff;stop-opacity:1;"
         offset="0"
         id="stop4777" />
      <stop
         style="stop-color:#ffffff;stop-opacity:0.17083333"
         offset="1"
         id="stop4779" />
    </linearGradient>
    <linearGradient
       y2="24.999998"
       x2="40.000004"
       y1="24.999998"
       x1="8.0000057"
       gradientTransform="matrix(0,-0.5483874,-0.54838739,0,25.709691,25.16131)"
       gradientUnits="userSpaceOnUse"
       id="linearGradient5509"
       xlink:href="#linearGradient4781" />
  </defs>
  <metadata
     id="metadata4162">
    <rdf:RDF>
      <cc:Work
         rdf:about="">
        <dc:format>image/svg+xml</dc:format>
        <dc:type
           rdf:resource="http://purl.org/dc/dcmitype/StillImage" />
        <dc:title />
      </cc:Work>
    </rdf:RDF>
  </metadata>
  <path
     style="opacity:1;fill:url(#radialGradient5517);fill-opacity:1;stroke:#000000;stroke-width:1;stroke-linecap:butt;stroke-linejoin:round;stroke-miterlimit:4;stroke-dasharray:none;stroke-dashoffset:0;stroke-opacity:0.49803922"
     d="m 11.999994,1.50041 c -1.890207,0.004 -3.73822,0.51711 -5.351875,1.47789 a 0.33874341,0.33874355 0 0 0 -0.0093,0.005 C 6.540219,3.0465 6.303024,3.0528 6.006385,2.9489 5.709745,2.84499 5.384456,2.65291 5.166226,2.48582 A 0.33874341,0.33874355 0 0 0 5.152996,2.47522 C 4.836681,2.25759 4.456833,2.13539 4.061452,2.13519 c -1.059917,0 -1.926411,0.86649 -1.926411,1.92641 4e-4,0.38309 0.114205,0.75171 0.320186,1.06244 a 0.33874341,0.33874355 0 0 0 0.01059,0.0146 C 2.656346,5.39551 2.850095,5.72004 2.96065,6.00261 3.071207,6.28519 3.065394,6.50266 3.04004,6.54772 2.039729,8.18496 1.503958,10.06903 1.49997,11.99884 a 0.33874341,0.33874355 0 0 0 0,0.003 c 0.004,1.9298 0.539759,3.81387 1.54007,5.45111 0.02536,0.045 0.03117,0.26253 -0.07939,0.54512 -0.110555,0.28256 -0.304304,0.6071 -0.494833,0.86396 a 0.33874341,0.33874355 0 0 0 -0.01059,0.0145 c -0.205981,0.31074 -0.319786,0.67934 -0.320186,1.06245 0,1.0599 0.866494,1.9264 1.926411,1.9264 0.395381,-2e-4 0.775229,-0.1224 1.091544,-0.34003 a 0.33874341,0.33874355 0 0 0 0.01323,-0.0106 c 0.21823,-0.16709 0.543519,-0.35917 0.840159,-0.46308 0.296639,-0.10392 0.533836,-0.0976 0.632434,-0.0344 a 0.33874341,0.33874355 0 0 0 0.0093,0.005 c 1.613655,0.96082 3.461667,1.47432 5.351875,1.47791 1.890197,-0.004 3.738217,-0.5171 5.351886,-1.47788 a 0.33874341,0.33874355 0 0 0 0.0093,-0.005 c 0.0986,-0.0632 0.335789,-0.0695 0.632425,0.0344 0.296644,0.10391 0.621926,0.296 0.840162,0.46308 a 0.33874341,0.33874355 0 0 0 0.01322,0.0106 c 0.316303,0.21763 0.696163,0.33982 1.091543,0.34003 1.05992,0 1.92641,-0.8665 1.92641,-1.92641 -4e-4,-0.38309 -0.1142,-0.75171 -0.32018,-1.06244 a 0.33874341,0.33874355 0 0 0 -0.0106,-0.0145 c -0.19052,-0.2569 -0.38428,-0.58142 -0.49484,-0.86399 -0.11055,-0.28257 -0.10474,-0.50004 -0.0794,-0.54511 1.00032,-1.63724 1.53608,-3.52131 1.54007,-5.45111 a 0.33874341,0.33874355 0 0 0 0,-0.003 c -0.005,-1.92981 -0.53975,-3.81388 -1.54007,-5.45111 -0.0254,-0.045 -0.0311,-0.26253 0.0794,-0.54512 0.11056,-0.28257 0.30432,-0.6071 0.49484,-0.86397 a 0.33874341,0.33874355 0 0 0 0.0106,-0.0145 c 0.20598,-0.31074 0.31978,-0.67935 0.32018,-1.06244 0,-1.05992 -0.86649,-1.92642 -1.92641,-1.92642 -0.39537,2e-4 -0.77523,0.1224 -1.091536,0.34004 a 0.33874341,0.33874355 0 0 0 -0.01314,0.0106 c -0.218236,0.16709 -0.543526,0.35917 -0.84017,0.46308 -0.296636,0.10391 -0.533827,0.0976 -0.632426,0.0344 a 0.33874341,0.33874355 0 0 0 -0.0093,-0.005 C 15.738289,2.01763 13.890281,1.50411 12.000072,1.50052 Z"
     id="path5515" />
  <path
     style="opacity:0.2;fill:url(#radialGradient5513);fill-opacity:1;stroke:none;stroke-width:2;stroke-linecap:butt;stroke-linejoin:round;stroke-miterlimit:4;stroke-dasharray:none;stroke-dashoffset:0;stroke-opacity:1"
     d="M 11.999977,2.00011 C 10.199723,2.00411 8.440352,2.49255 6.903541,3.40758 6.429307,3.71141 5.554711,3.27021 5.072485,2.90098 4.815697,2.72431 4.508034,2.62527 4.187475,2.62511 c -0.862946,0 -1.562501,0.69955 -1.562501,1.5625 3.25e-4,0.31102 0.09299,0.60985 0.26001,0.86181 0.40385,0.54447 0.813872,1.34516 0.587159,1.74804 -0.956462,1.56149 -1.468363,3.36086 -1.472169,5.20265 0.0038,1.84178 0.515707,3.64115 1.472169,5.20264 0.226713,0.40288 -0.183309,1.20357 -0.587159,1.74804 -0.167022,0.25197 -0.259685,0.55078 -0.26001,0.86182 0,0.86295 0.699555,1.5625 1.562501,1.5625 0.320559,-1.6e-4 0.628222,-0.0992 0.88501,-0.27588 0.482226,-0.36922 1.356822,-0.81042 1.831056,-0.50659 1.536811,0.91502 3.296182,1.40405 5.096436,1.40747 1.800254,-0.004 3.559627,-0.49245 5.096442,-1.40747 0.474231,-0.30383 1.348824,0.13737 1.831047,0.50659 0.256794,0.17667 0.564464,0.27572 0.885004,0.27588 0.86296,0 1.5625,-0.69955 1.5625,-1.5625 -3.1e-4,-0.31104 -0.093,-0.60985 -0.26,-0.86182 -0.40385,-0.54447 -0.81387,-1.34516 -0.58716,-1.74804 0.95646,-1.56149 1.46836,-3.36086 1.47216,-5.20264 -0.005,-1.84179 -0.5157,-3.64116 -1.47216,-5.20265 -0.22671,-0.40288 0.18331,-1.20357 0.58716,-1.74804 0.16702,-0.25196 0.25969,-0.55079 0.26,-0.86181 0,-0.86295 -0.69954,-1.5625 -1.5625,-1.5625 -0.32054,1.6e-4 -0.62821,0.0992 -0.885004,0.27587 C 18.445243,3.27021 17.57065,3.71141 17.096419,3.40758 15.559604,2.49255 13.800231,2.00352 11.999977,2.00011 Z"
     id="path5511" />
  <path
     id="path2555-36-4-2-1-2"
     d="m 12,4 c -4.398699,0 -8,3.601 -8,8 0,4.39869 3.601003,8 8,8 4.398688,0 8,-3.601 8,-8 0,-4.39869 -3.600994,-8 -8,-8 z"
     style="color:#000000;font-style:normal;font-variant:normal;font-weight:normal;font-stretch:normal;font-size:medium;line-height:normal;font-family:sans-serif;font-variant-ligatures:normal;font-variant-position:normal;font-variant-caps:normal;font-variant-numeric:normal;font-variant-alternates:normal;font-feature-settings:normal;text-indent:0;text-align:start;text-decoration:none;text-decoration-line:none;text-decoration-style:solid;text-decoration-color:#000000;letter-spacing:normal;word-spacing:normal;text-transform:none;writing-mode:lr-tb;direction:ltr;text-orientation:mixed;dominant-baseline:auto;baseline-shift:baseline;text-anchor:start;white-space:normal;shape-padding:0;clip-rule:nonzero;display:inline;overflow:visible;visibility:visible;opacity:1;isolation:auto;mix-blend-mode:normal;color-interpolation:sRGB;color-interpolation-filters:linearRGB;solid-color:#000000;solid-opacity:1;vector-effect:none;fill:url(#linearGradient5430-3-3);fill-opacity:1;fill-rule:nonzero;stroke:none;stroke-width:3;stroke-linecap:butt;stroke-linejoin:miter;stroke-miterlimit:4;stroke-dasharray:none;stroke-dashoffset:0;stroke-opacity:1;marker:none;color-rendering:auto;image-rendering:auto;shape-rendering:auto;text-rendering:auto;enable-background:accumulate" />
  <path
     d="m 11.999999,5.99999 c -3.310753,0 -6.000006,2.68954 -6.000006,6 0,3.31074 2.689546,6 6.000006,6 3.310732,0 5.999994,-2.68954 5.999994,-6 0,-3.31074 -2.689546,-6 -5.999994,-6 z"
     id="path2555-36-4-4-7"
     style="color:#000000;display:inline;overflow:visible;visibility:visible;fill:url(#radialGradient4652-6-5);fill-opacity:1;fill-rule:nonzero;stroke:none;stroke-width:0.99999976;marker:none;enable-background:accumulate" />
  <ellipse
     cy="11.999725"
     cx="12"
     id="ellipse5465"
     style="opacity:1;fill:url(#radialGradient5467);fill-opacity:1;stroke:#404040;stroke-width:1.12499976;stroke-linecap:round;stroke-linejoin:round;stroke-miterlimit:4;stroke-dasharray:none;stroke-dashoffset:0;stroke-opacity:1"
     rx="2.4375"
     ry="2.4377742" />
  <ellipse
     cy="4.3206434"
     cx="4.3232245"
     id="ellipse5469"
     style="opacity:1;fill:#000000;fill-opacity:0.11666667;stroke:none;stroke-width:2;stroke-linecap:butt;stroke-linejoin:round;stroke-miterlimit:4;stroke-dasharray:none;stroke-dashoffset:0;stroke-opacity:1"
     rx="0.6464504"
     ry="0.64127964" />
  <path
     id="path5471"
     d="M 4.0000001,4.0000037 4.6464505,4.6412836"
     style="opacity:0.2;fill:none;fill-rule:evenodd;stroke:#000000;stroke-width:0.5;stroke-linecap:square;stroke-linejoin:miter;stroke-miterlimit:4;stroke-dasharray:none;stroke-opacity:1" />
  <ellipse
     transform="scale(-1,1)"
     ry="0.64127964"
     rx="0.6464504"
     style="opacity:1;fill:#000000;fill-opacity:0.11666667;stroke:none;stroke-width:2;stroke-linecap:butt;stroke-linejoin:round;stroke-miterlimit:4;stroke-dasharray:none;stroke-dashoffset:0;stroke-opacity:1"
     id="ellipse5475"
     cx="-19.676779"
     cy="4.3206434" />
  <path
     style="opacity:0.2;fill:none;fill-rule:evenodd;stroke:#000000;stroke-width:0.5;stroke-linecap:square;stroke-linejoin:miter;stroke-miterlimit:4;stroke-dasharray:none;stroke-opacity:1"
     d="m 20.000004,4.0000037 -0.64645,0.6412799"
     id="path5477" />
  <ellipse
     transform="scale(-1)"
     cy="-19.674406"
     cx="-19.676559"
     id="ellipse5481"
     style="opacity:1;fill:#000000;fill-opacity:0.11666667;stroke:none;stroke-width:2;stroke-linecap:butt;stroke-linejoin:round;stroke-miterlimit:4;stroke-dasharray:none;stroke-dashoffset:0;stroke-opacity:1"
     rx="0.6464504"
     ry="0.64127964" />
  <path
     id="path5483"
     d="m 19.999784,19.995046 -0.64645,-0.64128"
     style="opacity:0.2;fill:none;fill-rule:evenodd;stroke:#000000;stroke-width:0.5;stroke-linecap:square;stroke-linejoin:miter;stroke-miterlimit:4;stroke-dasharray:none;stroke-opacity:1" />
  <ellipse
     transform="scale(1,-1)"
     ry="0.64127964"
     rx="0.6464504"
     style="opacity:1;fill:#000000;fill-opacity:0.11666667;stroke:none;stroke-width:2;stroke-linecap:butt;stroke-linejoin:round;stroke-miterlimit:4;stroke-dasharray:none;stroke-dashoffset:0;stroke-opacity:1"
     id="ellipse5487"
     cx="4.3232245"
     cy="-19.679356" />
  <path
     style="opacity:0.2;fill:none;fill-rule:evenodd;stroke:#000000;stroke-width:0.5;stroke-linecap:square;stroke-linejoin:miter;stroke-miterlimit:4;stroke-dasharray:none;stroke-opacity:1"
     d="m 4.0000001,19.999996 0.6464504,-0.64128"
     id="path5489" />
  <path
     style="color:#000000;display:inline;overflow:visible;visibility:visible;opacity:0.2;fill:none;stroke:url(#linearGradient5497);stroke-width:0.99999994;stroke-miterlimit:4;stroke-dasharray:none;stroke-opacity:1;marker:none;enable-background:accumulate"
     id="path5495"
     d="M 12.000003,19.5 C 7.861566,19.5 4.5,16.13809 4.5,12.00001 4.5,7.86158 7.861926,4.5 12.000003,4.5 c 4.138425,0 7.499993,3.36191 7.499993,7.50001 0,4.13843 -3.361911,7.49999 -7.499993,7.49999 z" />
  <path
     style="color:#000000;display:inline;overflow:visible;visibility:visible;opacity:0.2;fill:none;stroke:url(#linearGradient5505);stroke-width:1;stroke-miterlimit:4;stroke-dasharray:none;stroke-opacity:1;marker:none;enable-background:accumulate"
     id="path5503"
     d="M 12.000009,21.5 C 6.75799,21.5 2.500004,17.24157 2.500004,12.00001 2.500004,6.758 6.758444,2.5 12.000009,2.5 17.242005,2.5 21.5,6.75841 21.5,12.00001 21.5,17.24202 17.241587,21.5 12.000009,21.5 Z" />
  <path
     d="m 12.00001,3.5 c -4.690228,0 -8.500006,3.81017 -8.500006,8.49999 0,4.69022 3.810184,8.50001 8.500006,8.50001 4.690208,0 8.499994,-3.81016 8.499994,-8.50001 C 20.500004,7.30977 16.689844,3.5 12.00001,3.5 Z"
     id="path5507"
     style="color:#000000;display:inline;overflow:visible;visibility:visible;opacity:0.2;fill:none;stroke:url(#linearGradient5509);stroke-width:1;stroke-miterlimit:4;stroke-dasharray:none;stroke-opacity:1;marker:none;enable-background:accumulate" />
</svg>
