<svg xmlns="http://www.w3.org/2000/svg" xmlns:xlink="http://www.w3.org/1999/xlink" viewBox="0 0 24 24"><defs><linearGradient id="n"><stop offset="0"/><stop offset="1" stop-opacity="0"/></linearGradient><linearGradient id="a"><stop offset="0" stop-color="#fff"/><stop offset="1" stop-color="#fff" stop-opacity="0"/></linearGradient><linearGradient id="b"><stop offset="0"/><stop offset="1" stop-opacity="0"/></linearGradient><linearGradient id="c"><stop offset="0" stop-color="#e8e8e8"/><stop offset="1" stop-color="#a5a6a8"/></linearGradient><linearGradient id="p"><stop offset="0" stop-color="#878a85"/><stop offset="1" stop-color="#3e3f3d"/></linearGradient><linearGradient id="e"><stop offset="0" stop-color="#4c4c4c"/><stop offset="1" stop-color="#d3d7cf"/></linearGradient><linearGradient id="d"><stop offset="0" stop-color="#767973"/><stop offset="1" stop-color="#202120"/></linearGradient><linearGradient id="f"><stop offset="0" stop-color="#fff"/><stop offset="1" stop-color="#fff" stop-opacity="0"/></linearGradient><linearGradient id="g"><stop offset="0" stop-color="#fff" stop-opacity="0"/><stop offset=".5" stop-color="#fff"/><stop offset="1" stop-color="#fff" stop-opacity="0"/></linearGradient><linearGradient id="h"><stop offset="0" stop-color="#fff"/><stop offset="1" stop-color="#fff" stop-opacity="0"/></linearGradient><linearGradient id="j"><stop offset="0" stop-color="#4b4b4b"/><stop offset="1" stop-color="#babdb6"/></linearGradient><linearGradient id="i"><stop offset="0" stop-color="#eeeeec"/><stop offset="1" stop-color="#61635f"/></linearGradient><linearGradient id="k"><stop offset="0" stop-color="#383937"/><stop offset="1" stop-color="#595b57"/></linearGradient><linearGradient id="o"><stop offset="0" stop-color="#fff"/><stop offset="1" stop-color="#fff" stop-opacity="0"/></linearGradient><linearGradient id="m"><stop offset="0" stop-color="#a0a0a0"/><stop offset="1" stop-color="#4a4a4a"/></linearGradient><linearGradient id="l"><stop offset="0" stop-color="#babdb6"/><stop offset=".437" stop-color="#eeeeec"/><stop offset="1" stop-color="#555753"/></linearGradient><linearGradient x1="16.79" y1="21.27" x2="29.694" y2="46.259" id="F" xlink:href="#a" gradientUnits="userSpaceOnUse" gradientTransform="matrix(.5192 -.14195 .14168 .53953 -2.7 .51)"/><linearGradient x1="23.238" y1="12.159" x2="29.893" y2="26.354" id="E" xlink:href="#b" gradientUnits="userSpaceOnUse" gradientTransform="matrix(.4064 -.11145 .1201 .45877 .986 1.933)"/><radialGradient cx="30.685" cy="42.261" r="8.228" fx="30.685" fy="42.261" id="D" xlink:href="#c" gradientUnits="userSpaceOnUse" gradientTransform="matrix(1.90202 -.45946 -.3209 -1.22207 -34.32 71.254)"/><radialGradient cx="23.165" cy="30.233" r="8.189" fx="23.165" fy="30.233" id="A" xlink:href="#d" gradientUnits="userSpaceOnUse" gradientTransform="matrix(1.00397 -.2211 .38084 1.7987 -21.34 -34.688)"/><linearGradient x1="33.431" y1="45.052" x2="33.431" y2=".31" id="B" xlink:href="#e" gradientUnits="userSpaceOnUse" gradientTransform="matrix(.58027 -.15865 .14934 .5687 -4.457 .118)"/><linearGradient x1="19.24" y1="4.811" x2="11.324" y2="35.458" id="z" xlink:href="#f" gradientUnits="userSpaceOnUse" gradientTransform="matrix(.384 -.10525 .0992 .37868 3.94 5.887)"/><linearGradient x1="20.226" y1="20.334" x2="11.438" y2="21.75" id="y" xlink:href="#g" gradientUnits="userSpaceOnUse" gradientTransform="matrix(.31558 -.08628 .12684 .48303 1.728 2.513)"/><radialGradient cx="23.987" cy="27.053" r="7.75" fx="23.987" fy="27.053" id="x" xlink:href="#h" gradientUnits="userSpaceOnUse" gradientTransform="matrix(-.15232 .04165 -.1633 -.62187 18.412 28.926)"/><radialGradient cx="9.32" cy="18.817" r="12.5" fx="9.32" fy="18.817" id="v" xlink:href="#i" gradientUnits="userSpaceOnUse" gradientTransform="matrix(.40386 .1599 -.28985 .68936 10.716 -2.9)"/><linearGradient x1="7.75" y1="33.047" x2="4.643" y2="12.064" id="w" xlink:href="#j" gradientUnits="userSpaceOnUse" gradientTransform="matrix(.43146 -.11797 .11147 .42448 2.778 5.16)"/><linearGradient x1="80.693" y1="31.561" x2="77.125" y2="14" id="u" xlink:href="#k" gradientUnits="userSpaceOnUse" gradientTransform="matrix(.47338 -.12943 .12684 .48303 -31.974 13.28)"/><linearGradient x1="102.357" y1="-41.092" x2="82.681" y2="-41.092" id="r" xlink:href="#l" gradientUnits="userSpaceOnUse" gradientTransform="matrix(.05807 .22115 -.20463 .05595 -7.78 -6.205)" spreadMethod="reflect"/><linearGradient x1="84.426" y1="8.293" x2="102.426" y2="8.293" id="s" xlink:href="#m" gradientUnits="userSpaceOnUse" gradientTransform="matrix(.12684 .48303 -.47338 .12943 -.215 -32.38)"/><radialGradient cx="11.402" cy="36.863" r="10.695" fx="11.402" fy="36.863" id="q" xlink:href="#n" gradientUnits="userSpaceOnUse" gradientTransform="matrix(.84152 0 0 .42076 2.405 2.99)"/><linearGradient x1="9.883" y1="14.051" x2="5.101" y2="30.001" id="t" xlink:href="#o" gradientUnits="userSpaceOnUse" gradientTransform="matrix(.42308 -.11568 .12684 .48303 1.76 4.057)"/><radialGradient cx="20.884" cy="20.434" r="4" fx="20.884" fy="20.434" id="C" xlink:href="#p" gradientUnits="userSpaceOnUse" gradientTransform="matrix(.69966 -.15322 .22342 .6815 -6.444 .783)"/></defs><path d="M21 18.5c0 2.485-4.03 4.5-9 4.5s-9-2.015-9-4.5S7.03 14 12 14s9 2.015 9 4.5z" opacity=".3" fill="url(#q)"/><path d="M7.503 13.877c.385 1.467.062 2.83-.723 3.045-.784.214-1.732-.802-2.118-2.27-.385-1.466-.06-2.83.723-3.044.784-.214 1.732.8 2.118 2.27z" fill="#2e3436" stroke="#555753" stroke-linecap="round"/><path d="M5.03 13.21a.376.376 0 0 1-.26.46.367.367 0 0 1-.45-.266.376.376 0 0 1 .26-.46.367.367 0 0 1 .45.266z" fill="#babdb6"/><path d="M5.774 9.95c-.948.258-1.233 2.307-.638 4.574.595 2.266 1.847 3.895 2.794 3.636l1.716-.47c.947-.258 1.233-2.307.638-4.574C9.69 10.85 8.437 9.22 7.49 9.48l-1.716.47z" fill="url(#r)" stroke="url(#s)" overflow="visible"/><path d="M7.75 10.47c-.563.155-1.125.31-1.688.467.04.062-.194.428-.178.63-.15 1.233.066 2.497.518 3.65.263.62.562 1.254 1.053 1.73.214.13.235.265.44.164l1.51-.39c-.094.03.15-.3.138-.45.184-.91.043-1.85-.163-2.75-.246-.95-.617-1.9-1.237-2.68-.06-.12-.436-.37-.393-.37z" opacity=".4" fill="none" stroke="url(#t)" stroke-linecap="round"/><path d="M7.528 9.728c-.966.264-1.296 2.206-.737 4.335.56 2.13 1.8 3.643 2.77 3.378l.3-.08c.97-.26 1.3-2.2.74-4.33S8.805 9.39 7.84 9.65l-.3.08z" fill="url(#u)"/><path d="M8.035 13.73c1.17 4.458 6.188 5.816 8.88 5.08 1.865-.51 2.49-4.044 1.475-7.91-1.015-3.866-3.29-6.608-5.152-6.098-2.693.736-6.373 4.472-5.203 8.93z" fill="url(#v)" stroke="url(#w)" stroke-linecap="round"/><path d="M18.864 10.77c1.19 4.536-.016 8.806-2.696 9.54-2.68.73-5.818-2.35-7.008-6.886-1.19-4.535.016-8.806 2.695-9.538 2.68-.733 5.818 2.35 7.01 6.884z" fill="url(#x)"/><path d="M10.054 7.12c-1.046 1.01-1.927 3.258-2.632 5.484 1.135-.893 2.35-1.657 3.565-1.88l-.933-3.603z" opacity=".734" fill="url(#y)" fill-rule="evenodd"/><path d="M9.97 8.534c-.934 1.336-1.457 3.03-.968 4.895.488 1.86 1.77 3.06 3.23 3.74 9.528 2.17 4.144-15.65-2.262-8.64z" opacity=".4" fill="none" stroke="url(#z)" stroke-linecap="round"/><path d="M18.864 10.77c1.366 5.202.46 9.97-2.024 10.65-2.484.678-5.604-2.988-6.97-8.19-1.366-5.202-.46-9.97 2.023-10.65 2.484-.678 5.605 2.988 6.97 8.19z" fill="url(#A)" stroke="url(#B)" stroke-linecap="round"/><path d="M14.425 12.026c.356 1.085-.63 2.245-1.528 2.442-.9.197-1.918-.524-2.274-1.61-.356-1.084.086-2.124.985-2.32.9-.198 2.462.404 2.817 1.488z" fill="url(#C)" stroke="#3e3f3d" stroke-linecap="round"/><path d="M11.957 2.822c-1.246.34-2.015 1.716-2.326 3.58-.31 1.866-.16 4.262.49 6.76.66 2.496 1.71 4.645 2.89 6.1 1.19 1.458 2.52 2.256 3.77 1.916 1.25-.34 2.02-1.716 2.33-3.58.196-1.166.21-2.55.04-4.023-.005-.047-.015-.094-.02-.14a19.02 19.02 0 0 0-.13-.855 19.61 19.61 0 0 0-.15-.816c-.004-.015-.01-.03-.013-.045a18.156 18.156 0 0 0-.214-.88 20.03 20.03 0 0 0-.256-.92c-.084-.27-.18-.53-.27-.79a18.9 18.9 0 0 0-.307-.807c-.02-.045-.03-.088-.05-.13-.57-1.366-1.265-2.555-2.005-3.465-1.184-1.457-2.523-2.255-3.77-1.915zm.49.902c.91-.25 2.014.363 3.07 1.668.66.816 1.296 1.89 1.824 3.142.11.25.21.51.3.775.09.24.18.49.26.75.1.29.19.59.27.9.08.28.13.57.2.85l.017.06c.055.26.1.53.143.782.044.277.09.553.12.824.156 1.352.132 2.61-.04 3.65-.276 1.67-.93 2.763-1.84 3.012-.91.25-2.015-.365-3.07-1.67-1.058-1.304-2.048-3.266-2.653-5.568-.603-2.303-.707-4.507-.43-6.176.274-1.67.93-2.76 1.84-3.01z" fill="url(#D)"/><path d="M17.753 11.072c1.1 4.196.58 7.985-1.16 8.462-1.74.477-4.04-2.538-5.14-6.735-1.098-4.2-.578-7.99 1.16-8.47 1.74-.48 4.04 2.54 5.14 6.733z" opacity=".3" fill="none" stroke="url(#E)" stroke-linecap="round"/><path d="M5.898 11.63a.5.5 0 0 1-.347.612.49.49 0 0 1-.6-.353.5.5 0 0 1 .35-.62.49.49 0 0 1 .6.35z" fill="#fff"/><path d="M18.39 10.9c1.296 4.935.545 9.428-1.677 10.036-2.222.608-5.074-2.9-6.37-7.836-1.296-4.935-.545-9.428 1.677-10.036 2.222-.608 5.074 2.9 6.37 7.836z" opacity=".4" fill="none" stroke="url(#F)" stroke-linecap="round"/><path d="M10.193 6.734a.5.5 0 0 1-.346.613.49.49 0 0 1-.6-.354.5.5 0 0 1 .346-.612.49.49 0 0 1 .6.36z" opacity=".6" fill="#fff"/></svg>