<svg xmlns="http://www.w3.org/2000/svg" xmlns:xlink="http://www.w3.org/1999/xlink" viewBox="0 0 24 24"><defs><linearGradient id="d"><stop offset="0" stop-opacity="0"/><stop offset=".5"/><stop offset="1" stop-opacity="0"/></linearGradient><linearGradient id="c"><stop offset="0"/><stop offset="1" stop-opacity="0"/></linearGradient><linearGradient x1="9.599" y1="13.499" x2="4.459" y2="8.35" id="s" xlink:href="#a" gradientUnits="userSpaceOnUse" gradientTransform="matrix(.98925 0 0 1.46964 .13 -10.34)"/><linearGradient x1="53.991" y1="87.896" x2="53.991" y2="104.281" id="o" xlink:href="#b" gradientUnits="userSpaceOnUse" gradientTransform="matrix(.19046 0 0 .24853 .09 -3.485)"/><radialGradient cx="605.714" cy="486.648" r="117.143" fx="605.714" fy="486.648" id="n" xlink:href="#c" gradientUnits="userSpaceOnUse" gradientTransform="matrix(-.02218 0 0 .01086 16.26 17.38)"/><radialGradient cx="605.714" cy="486.648" r="117.143" fx="605.714" fy="486.648" id="m" xlink:href="#c" gradientUnits="userSpaceOnUse" gradientTransform="matrix(.02218 0 0 .01086 7.74 17.38)"/><linearGradient x1="302.857" y1="366.648" x2="302.857" y2="609.505" id="l" xlink:href="#d" gradientUnits="userSpaceOnUse" gradientTransform="matrix(.03777 0 0 .01086 -1.65 17.38)"/><linearGradient id="e"><stop offset="0" stop-color="#fff"/><stop offset="1" stop-color="#fff" stop-opacity="0"/></linearGradient><linearGradient id="a"><stop offset="0" stop-color="#969696"/><stop offset="1" stop-color="#b4b4b4"/></linearGradient><linearGradient id="f"><stop offset="0" stop-color="#e6e6e6"/><stop offset="1" stop-color="#c8c8c8"/></linearGradient><linearGradient id="b"><stop offset="0" stop-color="#7a7a7a"/><stop offset="1" stop-color="#474747"/></linearGradient><linearGradient id="i"><stop offset="0" stop-color="#f5f5f5"/><stop offset=".47" stop-color="#e7e7e7"/><stop offset=".693" stop-color="#8c8c8c"/><stop offset=".835" stop-color="#ddd"/><stop offset="1" stop-color="#a8a8a8"/></linearGradient><radialGradient cx="113.065" cy="97.588" r="2.563" fx="113.667" fy="98" id="g" gradientUnits="userSpaceOnUse"><stop offset="0" stop-color="#eee"/><stop offset=".16" stop-color="#cecece"/><stop offset=".468" stop-color="#888"/><stop offset="1" stop-color="#555"/></radialGradient><radialGradient cx="24" cy="42" r="21" fx="24" fy="42" id="t" xlink:href="#e" gradientUnits="userSpaceOnUse" gradientTransform="matrix(.5238 0 0 .2143 -.57 11.5)"/><radialGradient cx="7.22" cy="4.233" r="12" fx="7.22" fy="4.233" id="r" xlink:href="#f" gradientUnits="userSpaceOnUse" gradientTransform="matrix(1.51938 .00372 -.00302 1.23683 -3.737 .068)"/><linearGradient id="k"><stop offset="0"/><stop offset="1" stop-color="#bbb" stop-opacity="0"/></linearGradient><linearGradient id="j"><stop offset="0" stop-color="#eee"/><stop offset="1" stop-color="#eee" stop-opacity="0"/></linearGradient><linearGradient id="h"><stop offset="0" stop-color="#fff"/><stop offset=".47" stop-color="#e7e7e7"/><stop offset=".672" stop-color="#8c8c8c"/><stop offset=".835" stop-color="#ddd"/><stop offset="1" stop-color="#a8a8a8"/></linearGradient><radialGradient cx="113.065" cy="97.588" r="2.563" fx="113.667" fy="98" id="v" xlink:href="#g" gradientUnits="userSpaceOnUse" gradientTransform="translate(-223.976 -53.226) scale(2.49565)"/><radialGradient cx="113.065" cy="97.588" r="2.563" fx="113.667" fy="98" id="u" xlink:href="#g" gradientUnits="userSpaceOnUse" gradientTransform="translate(-223.976 -53.226) scale(2.49565)"/><radialGradient cx="142.622" cy="191.854" r="78.728" fx="142.622" fy="191.854" id="x" xlink:href="#h" gradientUnits="userSpaceOnUse" gradientTransform="matrix(.09248 0 0 -.08716 -1.556 24.366)"/><radialGradient cx="141.747" cy="206.426" r="78.728" fx="141.747" fy="206.426" id="w" xlink:href="#i" gradientUnits="userSpaceOnUse" gradientTransform="matrix(.18615 -.00314 .00138 .18068 -15.013 -20.636)"/><radialGradient cx="127.317" cy="143.828" r="78.728" fx="127.317" fy="143.828" id="y" xlink:href="#i" gradientUnits="userSpaceOnUse" gradientTransform="matrix(.10006 -.02338 .00822 .05972 -5.274 -.91)"/><linearGradient x1="12.277" y1="37.206" x2="12.222" y2="33.759" id="q" xlink:href="#j" gradientUnits="userSpaceOnUse" gradientTransform="matrix(.7376 0 0 .53933 -2.796 2.187)"/><linearGradient x1="7.063" y1="35.281" x2="24.688" y2="35.281" id="p" xlink:href="#k" gradientUnits="userSpaceOnUse" gradientTransform="matrix(.7376 0 0 .53933 -2.21 1.472)"/><radialGradient cx="113.065" cy="97.588" r="2.563" fx="113.667" fy="98" id="A" xlink:href="#g" gradientUnits="userSpaceOnUse" gradientTransform="translate(-223.976 -53.226) scale(2.49565)"/><radialGradient cx="113.065" cy="97.588" r="2.563" fx="113.667" fy="98" id="z" xlink:href="#g" gradientUnits="userSpaceOnUse" gradientTransform="translate(-223.976 -53.226) scale(2.49565)"/></defs><path opacity=".402" fill="url(#l)" overflow="visible" d="M2.882 21.363h18.236V24H2.882z"/><path d="M21.11 21.363V24c1.142.005 2.76-.59 2.76-1.32 0-.727-1.274-1.317-2.76-1.317z" opacity=".402" fill="url(#m)" overflow="visible"/><path d="M2.89 21.363V24c-1.142.005-2.76-.59-2.76-1.32 0-.727 1.274-1.317 2.76-1.317z" opacity=".402" fill="url(#n)" overflow="visible"/><path d="M23.5 18.5c-.466 3.38-.35 3.982-1.196 3.982-.33.048-13.337 0-20.654 0-.917 0-.686.065-1.15-3.98l23-.002z" fill="url(#o)" stroke="#353537" stroke-linejoin="round" overflow="visible"/><path d="M2.7 19H16v3H3l-.3-3z" fill="url(#p)" fill-rule="evenodd" overflow="visible"/><path d="M3 22l-.2-2.163C4.154 21.55 9.12 22 12.543 22H3z" opacity=".811" fill="url(#q)" fill-rule="evenodd"/><path d="M2.5 2L.523 18.483c-.015 0-.023.005-.023.017h23c0-.012-.008-.017-.023-.017L21.5 2c-.1-.827-1.167-1.5-2-1.5h-15c-.833 0-1.9.673-2 1.5z" fill="url(#r)" stroke="url(#s)" stroke-linecap="round" stroke-linejoin="round" overflow="visible"/><path d="M1.5 18.5h21" opacity=".6" fill="none" stroke="#fff" stroke-linecap="round" stroke-linejoin="round"/><path opacity=".2" fill="url(#t)" d="M1 19h22v3H1z"/><path d="M3.807 1.748c.055.19.394.297.756.234.363-.063.61-.27.553-.46-.058-.19-.396-.292-.755-.23-.36.062-.6.266-.55.456z" fill="#e6e6e6"/><path d="M51.85 187.292c-.5.54-1.074 1.403-1.074 2.55 0 .083.005.166.01.253.217 2.927 3.893 5.4 8.026 5.4 2.353 0 4.504-.81 5.752-2.173.537-.582 1.148-1.545 1.038-2.828-.252-2.902-3.923-5.355-8.02-5.355-2.337 0-4.48.8-5.73 2.15z" fill="url(#u)" transform="matrix(.0661 -.01142 .00792 .04585 -.892 -6.425)"/><path d="M18.89 1.64c.022.2.338.36.707.36.368 0 .647-.16.622-.36-.03-.195-.34-.354-.71-.354-.37 0-.648.16-.628.355z" fill="#e6e6e6"/><path d="M51.85 187.292c-.5.54-1.074 1.403-1.074 2.55 0 .083.005.166.01.253.217 2.927 3.893 5.4 8.026 5.4 2.353 0 4.504-.81 5.752-2.173.537-.582 1.148-1.545 1.038-2.828-.252-2.902-3.923-5.355-8.02-5.355-2.337 0-4.48.8-5.73 2.15z" fill="url(#v)" transform="matrix(.06708 0 0 .04653 15.65 -7.213)"/><path d="M14.53 1.813c-.276 0-.523.08-.717.218a.775.775 0 0 0-.344.6c-.03.75-.41 1.29-1.13 1.78-.71.49-1.76.9-3 1.28-.01.01-.02 0-.03 0-.47.1-1.25.38-2 .66-.77.286-1.47.56-1.78.78-1.6 1.008-2.59 2.345-2.72 3.816-.13 1.34.48 2.68 1.65 3.75 1.72 1.566 4.535 2.5 7.53 2.5 2.997 0 5.81-.934 7.53-2.5 1.077-.98 1.658-2.156 1.658-3.376 0-.1.012-.243 0-.375-.12-1.295-.915-2.487-2.187-3.44l-.34-4.875c-.017-.245-.176-.458-.375-.595a1.258 1.258 0 0 0-.72-.216h-3.03zm0 .53h3.033a.42.42 0 0 1 .156.032l.37 5.125a.188.188 0 0 0 0 .063.188.188 0 0 0 .03.03.188.188 0 0 0 .06.063c1.23.843 1.96 2.127 2.06 3.25.13 1.395-.7 2.55-2.19 3.406-1.487.858-3.624 1.376-6.06 1.376-2.438 0-4.575-.518-6.064-1.376-1.488-.857-2.316-2.01-2.187-3.406.11-1.2.955-2.536 2.343-3.406a.188.188 0 0 0 .03-.03c.006-.005.07-.05.157-.095.09-.046.21-.095.347-.156.27-.13.6-.27.97-.41.732-.29 1.565-.55 1.966-.63a.188.188 0 0 0 .03 0c1.21-.37 2.36-.808 3.25-1.408.875-.587 1.504-1.37 1.563-2.406a.26.26 0 0 1 .125-.03z" fill="url(#w)"/><path d="M12 13c-1.683 0-2.972-.845-3-1.965V11c0-.407.17-.792.49-1.12C10.034 9.33 10.972 9 12 9c1.028 0 1.966.33 2.51.88.33.337.5.736.49 1.155-.028 1.12-1.318 1.965-3 1.965zm.05-2.746c-1.58 0-2.436.21-2.417.974.018.753 1.078 1.354 2.367 1.354 1.29 0 2.35-.6 2.367-1.354.02-.764-.736-.974-2.317-.974z" fill="url(#x)" overflow="visible"/><path d="M4.97 1.75a.25.25 0 0 0-.157.125.25.25 0 0 0-.032.063l-.06.218-.84 3.25-.12.532a.25.25 0 0 0 0 .093.25.25 0 0 0 .03.1.25.25 0 0 0 .16.13.25.25 0 0 0 .122 0l.407-.125L11.35 4.1h.03a.25.25 0 0 0 .03 0 .25.25 0 0 0 .03 0 .25.25 0 0 0 .064-.032c.46-.254.695-.743.75-1.188a1.45 1.45 0 0 0-.063-.658.882.882 0 0 0-.22-.314.495.495 0 0 0-.37-.157H5.03a.25.25 0 0 0-.06 0zm.5.688h5.905c-.015.077-.035.13-.063.218-.05.162-.145.294-.124.28L4.938 4.75l.53-2.313z" fill="url(#y)" overflow="visible"/><path d="M3.438 16.67c-.03.457-.49.83-1.028.83-.537 0-.944-.373-.908-.83.036-.455.496-.823 1.028-.823s.938.368.908.823z" fill="#e6e6e6"/><path d="M51.85 187.292c-.5.54-1.074 1.403-1.074 2.55 0 .083.005.166.01.253.217 2.927 3.893 5.4 8.026 5.4 2.353 0 4.504-.81 5.752-2.173.537-.582 1.148-1.545 1.038-2.828-.252-2.902-3.923-5.355-8.02-5.355-2.337 0-4.48.8-5.73 2.15z" fill="url(#z)" transform="matrix(-.0978 0 0 .10767 8.162 -3.818)"/><path d="M20.502 16.67c.03.457.49.83 1.028.83.537 0 .943-.373.907-.83-.035-.455-.496-.823-1.027-.823-.532 0-.94.368-.908.823z" fill="#e6e6e6"/><path d="M51.85 187.292c-.5.54-1.074 1.403-1.074 2.55 0 .083.005.166.01.253.217 2.927 3.893 5.4 8.026 5.4 2.353 0 4.504-.81 5.752-2.173.537-.582 1.148-1.545 1.038-2.828-.252-2.902-3.923-5.355-8.02-5.355-2.337 0-4.48.8-5.73 2.15z" fill="url(#A)" transform="matrix(.0978 0 0 .10767 15.777 -3.818)"/></svg>