<?xml version="1.0" encoding="UTF-8" standalone="no"?>
<!-- Created with Inkscape (http://www.inkscape.org/) -->

<svg
   xmlns:dc="http://purl.org/dc/elements/1.1/"
   xmlns:cc="http://creativecommons.org/ns#"
   xmlns:rdf="http://www.w3.org/1999/02/22-rdf-syntax-ns#"
   xmlns:svg="http://www.w3.org/2000/svg"
   xmlns="http://www.w3.org/2000/svg"
   xmlns:xlink="http://www.w3.org/1999/xlink"
   xmlns:inkscape="http://www.inkscape.org/namespaces/inkscape"
   version="1.0"
   width="24"
   height="24"
   id="svg5069">
  <defs
     id="defs5071">
    <linearGradient
       id="linearGradient3967">
      <stop
         id="stop3969"
         style="stop-color:#ffffff;stop-opacity:1"
         offset="0" />
      <stop
         id="stop3971"
         style="stop-color:#ffffff;stop-opacity:0"
         offset="1" />
    </linearGradient>
    <linearGradient
       x1="-282.75"
       y1="4.7030401"
       x2="-362.78125"
       y2="11.71875"
       id="linearGradient3792"
       xlink:href="#linearGradient3967"
       gradientUnits="userSpaceOnUse"
       gradientTransform="matrix(0.05864357,0,0,0.06179026,164.12666,96.141836)" />
    <linearGradient
       id="linearGradient3731-3">
      <stop
         id="stop3733-3"
         style="stop-color:#cdcdcd;stop-opacity:1"
         offset="0" />
      <stop
         id="stop3735-2"
         style="stop-color:#303030;stop-opacity:1"
         offset="1" />
    </linearGradient>
    <linearGradient
       x1="-396.39911"
       y1="65.211342"
       x2="-134.39995"
       y2="65.211319"
       id="linearGradient3806"
       xlink:href="#linearGradient3731-3"
       gradientUnits="userSpaceOnUse"
       gradientTransform="matrix(0.0653535,0,0,0.05866381,165.90608,96.174449)" />
    <linearGradient
       id="linearGradient3898">
      <stop
         id="stop3900"
         style="stop-color:#030303;stop-opacity:1"
         offset="0" />
      <stop
         id="stop3902"
         style="stop-color:#383838;stop-opacity:0"
         offset="1" />
    </linearGradient>
    <linearGradient
       x1="-307.51242"
       y1="224.49969"
       x2="-307.32642"
       y2="-102.18364"
       id="linearGradient3809"
       xlink:href="#linearGradient3898"
       gradientUnits="userSpaceOnUse"
       gradientTransform="matrix(0.06599043,0,0,0.06084056,166.11573,96.045299)" />
    <linearGradient
       id="linearGradient3771">
      <stop
         id="stop3773"
         style="stop-color:#ffffff;stop-opacity:1"
         offset="0" />
      <stop
         id="stop3775"
         style="stop-color:#0d0d0d;stop-opacity:1"
         offset="1" />
    </linearGradient>
    <linearGradient
       x1="-396.625"
       y1="260.44583"
       x2="-399.5625"
       y2="258.25833"
       id="linearGradient3814"
       xlink:href="#linearGradient3771"
       gradientUnits="userSpaceOnUse"
       gradientTransform="matrix(0.0318092,0,0,0.0524633,158.20977,96.722919)" />
    <linearGradient
       id="linearGradient3779">
      <stop
         id="stop3781"
         style="stop-color:#5b5b5b;stop-opacity:1"
         offset="0" />
      <stop
         id="stop3783"
         style="stop-color:#000000;stop-opacity:1"
         offset="1" />
    </linearGradient>
    <radialGradient
       cx="-398"
       cy="257.92444"
       r="2.3125"
       fx="-398"
       fy="257.92444"
       id="radialGradient3812"
       xlink:href="#linearGradient3779"
       gradientUnits="userSpaceOnUse"
       gradientTransform="matrix(0.02235241,0,0,0.07418123,154.44596,91.129016)" />
    <linearGradient
       id="linearGradient3977">
      <stop
         id="stop3979"
         style="stop-color:#000000;stop-opacity:1"
         offset="0" />
      <stop
         id="stop3981"
         style="stop-color:#000000;stop-opacity:0"
         offset="1" />
    </linearGradient>
    <linearGradient
       x1="-388.42892"
       y1="-101.91422"
       x2="-391.54074"
       y2="-95.196701"
       id="linearGradient3817"
       xlink:href="#linearGradient3977"
       gradientUnits="userSpaceOnUse"
       gradientTransform="matrix(0.06124896,0,0,0.06179026,164.92711,96.141836)" />
    <linearGradient
       id="linearGradient3987">
      <stop
         id="stop3989"
         style="stop-color:#131313;stop-opacity:1"
         offset="0" />
      <stop
         id="stop3991"
         style="stop-color:#131313;stop-opacity:0"
         offset="1" />
    </linearGradient>
    <linearGradient
       x1="-221.71753"
       y1="-101.35355"
       x2="-316.99265"
       y2="-101.85355"
       id="linearGradient3820"
       xlink:href="#linearGradient3987"
       gradientUnits="userSpaceOnUse"
       gradientTransform="matrix(0.06124896,0,0,0.06179026,164.92711,96.141836)" />
    <linearGradient
       id="linearGradient3709">
      <stop
         id="stop3711"
         style="stop-color:#adadad;stop-opacity:1"
         offset="0" />
      <stop
         id="stop3713"
         style="stop-color:#434343;stop-opacity:1"
         offset="1" />
    </linearGradient>
    <linearGradient
       x1="-397.0625"
       y1="72.4375"
       x2="-212.125"
       y2="72.4375"
       id="linearGradient3744"
       xlink:href="#linearGradient3709"
       gradientUnits="userSpaceOnUse" />
    <linearGradient
       id="linearGradient3793">
      <stop
         id="stop3795"
         style="stop-color:#3f3f3f;stop-opacity:1"
         offset="0" />
      <stop
         id="stop5268"
         style="stop-color:#3c3c3c;stop-opacity:1"
         offset="0.36093229" />
      <stop
         id="stop5266"
         style="stop-color:#2e2e2e;stop-opacity:1"
         offset="0.66032284" />
      <stop
         id="stop3797"
         style="stop-color:#202020;stop-opacity:1"
         offset="1" />
    </linearGradient>
    <linearGradient
       x1="-393.4332"
       y1="67.439331"
       x2="-221.40564"
       y2="68.025116"
       id="linearGradient3742"
       xlink:href="#linearGradient3793"
       gradientUnits="userSpaceOnUse" />
    <linearGradient
       id="linearGradient5258">
      <stop
         id="stop5260"
         style="stop-color:#5f5f5f;stop-opacity:1"
         offset="0" />
      <stop
         id="stop5262"
         style="stop-color:#252525;stop-opacity:1"
         offset="1" />
    </linearGradient>
    <linearGradient
       x1="-301.94336"
       y1="152.96133"
       x2="-245.23868"
       y2="134.96133"
       id="linearGradient3826"
       xlink:href="#linearGradient5258"
       gradientUnits="userSpaceOnUse"
       gradientTransform="matrix(0.06124896,0,0,0.06119322,164.92711,96.078994)" />
    <radialGradient
       cx="605.71429"
       cy="486.64789"
       r="117.14286"
       fx="605.71429"
       fy="486.64789"
       id="radialGradient3738"
       xlink:href="#linearGradient5060"
       gradientUnits="userSpaceOnUse"
       gradientTransform="matrix(-3.2949134,0,0,2.5953268,259.21603,-1254.2044)" />
    <linearGradient
       id="linearGradient5060">
      <stop
         id="stop5062"
         style="stop-color:#000000;stop-opacity:1"
         offset="0" />
      <stop
         id="stop5064"
         style="stop-color:#000000;stop-opacity:0"
         offset="1" />
    </linearGradient>
    <radialGradient
       cx="605.71429"
       cy="486.64789"
       r="117.14286"
       fx="605.71429"
       fy="486.64789"
       id="radialGradient3736"
       xlink:href="#linearGradient5060"
       gradientUnits="userSpaceOnUse"
       gradientTransform="matrix(3.2949134,0,0,2.5953268,-2121.2392,-1254.2044)" />
    <linearGradient
       id="linearGradient5048">
      <stop
         id="stop5050"
         style="stop-color:#000000;stop-opacity:0"
         offset="0" />
      <stop
         id="stop5056"
         style="stop-color:#000000;stop-opacity:1"
         offset="0.5" />
      <stop
         id="stop5052"
         style="stop-color:#000000;stop-opacity:0"
         offset="1" />
    </linearGradient>
    <linearGradient
       x1="302.85715"
       y1="366.64789"
       x2="302.85715"
       y2="609.50507"
       id="linearGradient3734"
       xlink:href="#linearGradient5048"
       gradientUnits="userSpaceOnUse"
       gradientTransform="matrix(3.2949134,0,0,2.5953268,-2121.8877,-1254.2044)" />
    <linearGradient
       x1="302.85715"
       y1="366.64789"
       x2="302.85715"
       y2="609.50507"
       id="linearGradient5198"
       xlink:href="#linearGradient5048"
       gradientUnits="userSpaceOnUse"
       gradientTransform="matrix(3.2949134,0,0,2.5953268,-2121.8877,-1254.2044)" />
    <radialGradient
       cx="605.71429"
       cy="486.64789"
       r="117.14286"
       fx="605.71429"
       fy="486.64789"
       id="radialGradient5200"
       xlink:href="#linearGradient5060"
       gradientUnits="userSpaceOnUse"
       gradientTransform="matrix(3.2949134,0,0,2.5953268,-2121.2392,-1254.2044)" />
    <radialGradient
       cx="605.71429"
       cy="486.64789"
       r="117.14286"
       fx="605.71429"
       fy="486.64789"
       id="radialGradient5202"
       xlink:href="#linearGradient5060"
       gradientUnits="userSpaceOnUse"
       gradientTransform="matrix(-3.2949134,0,0,2.5953268,259.21603,-1254.2044)" />
    <linearGradient
       x1="-301.94336"
       y1="152.96133"
       x2="-245.23868"
       y2="134.96133"
       id="linearGradient5204"
       xlink:href="#linearGradient5258"
       gradientUnits="userSpaceOnUse"
       gradientTransform="matrix(0.06124896,0,0,0.06119322,164.92711,96.078994)" />
    <linearGradient
       x1="-393.4332"
       y1="67.439331"
       x2="-221.40564"
       y2="68.025116"
       id="linearGradient5206"
       xlink:href="#linearGradient3793"
       gradientUnits="userSpaceOnUse" />
    <linearGradient
       x1="-397.0625"
       y1="72.4375"
       x2="-212.125"
       y2="72.4375"
       id="linearGradient5208"
       xlink:href="#linearGradient3709"
       gradientUnits="userSpaceOnUse" />
    <linearGradient
       x1="-221.71753"
       y1="-101.35355"
       x2="-316.99265"
       y2="-101.85355"
       id="linearGradient5210"
       xlink:href="#linearGradient3987"
       gradientUnits="userSpaceOnUse"
       gradientTransform="matrix(0.06124896,0,0,0.06179026,164.92711,96.141836)" />
    <linearGradient
       x1="-388.42892"
       y1="-101.91422"
       x2="-391.54074"
       y2="-95.196701"
       id="linearGradient5212"
       xlink:href="#linearGradient3977"
       gradientUnits="userSpaceOnUse"
       gradientTransform="matrix(0.06124896,0,0,0.06179026,164.92711,96.141836)" />
    <radialGradient
       cx="-398"
       cy="257.92444"
       r="2.3125"
       fx="-398"
       fy="257.92444"
       id="radialGradient5214"
       xlink:href="#linearGradient3779"
       gradientUnits="userSpaceOnUse"
       gradientTransform="matrix(0.02235241,0,0,0.07418123,154.44596,91.129016)" />
    <linearGradient
       x1="-396.625"
       y1="260.44583"
       x2="-399.5625"
       y2="258.25833"
       id="linearGradient5216"
       xlink:href="#linearGradient3771"
       gradientUnits="userSpaceOnUse"
       gradientTransform="matrix(0.0318092,0,0,0.0524633,158.20977,96.722919)" />
    <linearGradient
       x1="-307.51242"
       y1="224.49969"
       x2="-307.32642"
       y2="-102.18364"
       id="linearGradient5218"
       xlink:href="#linearGradient3898"
       gradientUnits="userSpaceOnUse"
       gradientTransform="matrix(0.06599043,0,0,0.06084056,166.11573,96.045299)" />
    <linearGradient
       x1="-396.39911"
       y1="65.211342"
       x2="-134.39995"
       y2="65.211319"
       id="linearGradient5220"
       xlink:href="#linearGradient3731-3"
       gradientUnits="userSpaceOnUse"
       gradientTransform="matrix(0.0653535,0,0,0.05866381,165.90608,96.174449)" />
    <linearGradient
       x1="-282.75"
       y1="4.7030401"
       x2="-362.78125"
       y2="11.71875"
       id="linearGradient5222"
       xlink:href="#linearGradient3967"
       gradientUnits="userSpaceOnUse"
       gradientTransform="matrix(0.05864357,0,0,0.06179026,164.12666,96.141836)" />
    <linearGradient
       x1="-282.75"
       y1="4.7030401"
       x2="-362.78125"
       y2="11.71875"
       id="linearGradient5229"
       xlink:href="#linearGradient3967"
       gradientUnits="userSpaceOnUse"
       gradientTransform="matrix(0.05864357,0,0,0.06179026,30.11104,7.143116)" />
    <linearGradient
       x1="-396.39911"
       y1="65.211342"
       x2="-134.39995"
       y2="65.211319"
       id="linearGradient5235"
       xlink:href="#linearGradient3731-3"
       gradientUnits="userSpaceOnUse"
       gradientTransform="matrix(0.0653535,0,0,0.05866381,31.89046,7.175729)" />
    <linearGradient
       x1="-307.51242"
       y1="224.49969"
       x2="-307.32642"
       y2="-102.18364"
       id="linearGradient5238"
       xlink:href="#linearGradient3898"
       gradientUnits="userSpaceOnUse"
       gradientTransform="matrix(0.06599043,0,0,0.06084056,32.10011,7.046579)" />
    <radialGradient
       cx="-400.22314"
       cy="258.05701"
       r="2.3125"
       fx="-400.22314"
       fy="258.05701"
       id="radialGradient5241"
       xlink:href="#linearGradient3779"
       gradientUnits="userSpaceOnUse"
       gradientTransform="matrix(0.02235241,0,0,0.07418123,20.43034,2.130296)" />
    <linearGradient
       x1="-381.89111"
       y1="273.08405"
       x2="-399.5625"
       y2="258.25833"
       id="linearGradient5243"
       xlink:href="#linearGradient3771"
       gradientUnits="userSpaceOnUse"
       gradientTransform="matrix(0.0318092,0,0,0.0524633,24.19415,7.724199)" />
    <linearGradient
       x1="-388.42892"
       y1="-101.91422"
       x2="-391.54074"
       y2="-95.196701"
       id="linearGradient5246"
       xlink:href="#linearGradient3977"
       gradientUnits="userSpaceOnUse"
       gradientTransform="matrix(0.06124896,0,0,0.06179026,30.91149,7.143116)" />
    <linearGradient
       x1="-221.71753"
       y1="-101.35355"
       x2="-316.99265"
       y2="-101.85355"
       id="linearGradient5249"
       xlink:href="#linearGradient3987"
       gradientUnits="userSpaceOnUse"
       gradientTransform="matrix(0.06124896,0,0,0.06179026,30.91149,7.143116)" />
    <linearGradient
       x1="-301.94336"
       y1="152.96133"
       x2="-245.23868"
       y2="134.96133"
       id="linearGradient5255"
       xlink:href="#linearGradient5258"
       gradientUnits="userSpaceOnUse"
       gradientTransform="matrix(0.06124896,0,0,0.06119322,30.91149,7.080274)" />
  </defs>
  <metadata
     id="metadata5074">
    <rdf:RDF>
      <cc:Work
         rdf:about="">
        <dc:format>image/svg+xml</dc:format>
        <dc:type
           rdf:resource="http://purl.org/dc/dcmitype/StillImage" />
      </cc:Work>
    </rdf:RDF>
  </metadata>
  <g
     id="layer1">
    <g
       transform="matrix(0.00615076,0,0,0.00355126,17.72643,22.83767)"
       id="g3661">
      <rect
         width="1590.9725"
         height="630.29364"
         x="-1726.4982"
         y="-302.63333"
         id="rect3663"
         style="opacity:0.40206185;fill:url(#linearGradient5198);fill-opacity:1;fill-rule:nonzero;stroke:none;stroke-width:1;marker:none;visibility:visible;display:inline;overflow:visible" />
      <path
         d="m -135.52559,-302.61162 c 0,0 0,630.25888 0,630.25888 169.679883,1.18645 410.2034,-141.20904 410.2033,-315.169998 0,-173.960992 -189.349979,-315.088862 -410.2033,-315.088882 l 0,0 z"
         inkscape:connector-curvature="0"
         id="path3665"
         style="opacity:0.40206185;fill:url(#radialGradient5200);fill-opacity:1;fill-rule:nonzero;stroke:none;stroke-width:1;marker:none;visibility:visible;display:inline;overflow:visible" />
      <path
         d="m -1726.4981,-302.61162 c 0,0 0,630.25888 0,630.25888 -169.6798,1.18645 -410.2033,-141.20904 -410.2033,-315.169998 0,-173.960992 189.3499,-315.088862 410.2033,-315.088882 l 0,0 z"
         inkscape:connector-curvature="0"
         id="path3667"
         style="opacity:0.40206185;fill:url(#radialGradient5202);fill-opacity:1;fill-rule:nonzero;stroke:none;stroke-width:1;marker:none;visibility:visible;display:inline;overflow:visible" />
    </g>
    <g
       transform="matrix(0.06973192,0,0,0.06030544,33.08179,6.949206)"
       id="g3672"
       style="stroke-width:0.10075657;stroke-miterlimit:4;stroke-dasharray:none">
      <rect
         width="187.69344"
         height="364.92563"
         ry="12.768984"
         x="-398.43771"
         y="-110.02348"
         id="rect3674"
         style="fill:url(#linearGradient5206);fill-opacity:1;stroke:#000000;stroke-width:7.86264896;stroke-miterlimit:4;stroke-opacity:1;stroke-dasharray:none;marker:none;visibility:visible;display:inline;overflow:visible;enable-background:accumulate" />
      <path
         d="m -385.65625,-108.3125 c -6.15386,0 -11.0625,4.90864 -11.0625,11.0625 l 0,339.375 c 0,6.15386 4.90864,11.0625 11.0625,11.0625 l 162.15625,0 c 6.15386,0 11.03125,-4.9036 11.03125,-11.0625 l 0,-339.375 c 0,-6.1589 -4.87739,-11.0625 -11.03125,-11.0625 l -162.15625,0 z"
         id="path3676"
         style="fill:none;stroke:url(#linearGradient5208);stroke-width:0.1923233;stroke-miterlimit:4;stroke-opacity:1;stroke-dasharray:none;marker:none;visibility:visible;display:inline;overflow:visible;enable-background:accumulate" />
    </g>
    <path
       d="m 6.7974,1.501279 10.37398,0 c 0.17339,0 0.31301,0.167593 0.31301,0.375771 l 0,18.24845 c 0,0.20817 -0.13962,0.37577 -0.31301,0.37577 l -10.37398,0 c -0.17343,0 -0.31301,-0.1676 -0.31301,-0.37577 l 0,-0.13173 0,-18.11672 c 0,-0.208178 0.13958,-0.375771 0.31301,-0.375771 l 0,0 z"
       inkscape:connector-curvature="0"
       id="path3686"
       style="fill:#030303;fill-opacity:1;stroke:url(#linearGradient5235);stroke-width:1.00000012;stroke-linecap:square;stroke-linejoin:miter;stroke-miterlimit:4;stroke-opacity:1;stroke-dasharray:none;stroke-dashoffset:0;marker:none;visibility:visible;display:inline;overflow:visible;enable-background:accumulate" />
    <path
       d="m 13.27731,2.524856 c -0.19254,-0.00142 -0.3862,0.086217 -0.42968,0.217403 -0.04142,0.125056 0.04967,0.224768 0.23039,0.252479 0.12582,0.01929 0.28918,-0.00943 0.38462,-0.067922 0.18507,-0.113415 0.18569,-0.299728 0.0013,-0.369113 C 13.40562,2.535771 13.34149,2.52533 13.27731,2.524856 z m -2.9817,8.35e-4 C 10.17071,2.525893 10.04227,2.561352 9.96083,2.625903 9.78326,2.766621 9.85607,2.95767 10.1014,2.994738 10.17421,3.00574 10.2937,2.997821 10.37082,2.976922 10.63692,2.904827 10.71843,2.655683 10.5057,2.564384 10.44434,2.538051 10.37056,2.52557 10.29561,2.525691 z m 1.42231,0 c -0.02563,1.29e-4 -0.05202,0.00156 -0.07901,0.00473 -0.20058,0.023541 -0.3494,0.135781 -0.3494,0.263613 0,0.105535 0.09194,0.181002 0.24594,0.201815 C 11.702,3.01836 11.88007,2.969518 11.97909,2.874484 12.03529,2.820536 12.05628,2.768641 12.04891,2.70134 12.03731,2.595606 11.89737,2.52479 11.71792,2.525691 z m 3.03089,0.015032 -0.12155,0.00251 -0.12154,0.0025 -0.16565,0.213785 C 14.24892,2.8771 14.17403,2.97631 14.17379,2.979984 c -2.4e-4,0.00367 0.03816,0.00668 0.08537,0.00668 l 0.086,0 0.03141,-0.040085 0.03142,-0.040084 0.11487,0 0.11488,0 0.0092,0.037858 0.0089,0.037858 0.10535,0.0025 0.10536,0.00251 -0.006,-0.020321 C 14.85716,2.9557 14.8305,2.855254 14.80149,2.743652 L 14.74881,2.540723 z M 9.21699,2.54128 c -0.11477,0 -0.13029,0.00179 -0.13487,0.015588 C 9.07927,2.565442 9.05615,2.63492 9.03071,2.711361 8.99363,2.82274 8.98438,2.863877 8.98438,2.918465 l 0,0.0682 0.0606,0 0.06031,0 0.03173,-0.091304 C 9.15435,2.845144 9.17191,2.79441 9.17605,2.782623 9.18196,2.76582 9.19059,2.785544 9.21699,2.873927 l 0.03395,0.112738 0.05205,0 0.05204,0 L 9.45562,2.88868 C 9.51102,2.834809 9.55821,2.792157 9.56034,2.794036 9.56365,2.796933 9.51931,2.941813 9.50481,2.97553 9.49944,2.988039 9.60847,2.99047 9.67934,2.979428 l 0.03968,-0.00612 0.0441,-0.13807 C 9.78734,2.759319 9.81816,2.66209 9.83167,2.619222 l 0.02475,-0.077942 -0.13931,0 -0.13899,0 L 9.49243,2.631192 9.40676,2.720826 9.3766,2.631192 9.34678,2.54128 l -0.12979,0 z m 1.48418,0 -0.01079,0.037857 c -0.0061,0.020822 -0.01563,0.049542 -0.02094,0.063746 -0.01854,0.04958 -0.01788,0.049828 0.09266,0.049828 0.09269,0 0.10175,0.00146 0.09679,0.015588 -0.003,0.00857 -0.01941,0.067699 -0.0365,0.131389 -0.01708,0.06369 -0.03342,0.122918 -0.03649,0.131667 -0.0052,0.014668 0.0023,0.01571 0.0987,0.013362 l 0.10471,-0.0025 0.03269,-0.111347 c 0.01808,-0.061241 0.03804,-0.126378 0.04411,-0.144751 l 0.01111,-0.033403 0.10409,0 0.1044,0 0.01745,-0.064582 C 11.31264,2.59261 11.32005,2.558538 11.31998,2.552414 11.31988,2.543753 11.25119,2.54128 11.01058,2.54128 l -0.30941,0 z m 1.48577,0 -0.06791,0.212671 c -0.03732,0.116933 -0.0679,0.217145 -0.0679,0.222693 0,0.00679 0.03094,0.010021 0.09488,0.010021 l 0.09488,0 0.01999,-0.06458 0.02,-0.064582 0.08219,-0.0025 c 0.10088,-0.00316 0.12014,0.00788 0.11011,0.062911 -0.01,0.054758 7.6e-4,0.059945 0.12503,0.059848 l 0.10789,-2.78e-4 0.0026,-0.059849 c 0.0032,-0.076073 -0.0026,-0.097611 -0.02793,-0.104665 -0.02243,-0.00624 -0.02766,-0.022269 -0.0073,-0.022269 0.02269,0 0.09057,-0.055654 0.10503,-0.086015 C 12.79697,2.665828 12.79613,2.617029 12.77655,2.590829 12.74423,2.547546 12.70152,2.54128 12.43351,2.54128 l -0.24657,0 z m 1.68221,0.00139 c -0.01183,4.2e-5 -0.02479,2.07e-4 -0.03839,5.58e-4 l -0.09902,0.0025 -0.06284,0.209332 c -0.03449,0.115132 -0.06305,0.214342 -0.06346,0.220465 -5.8e-4,0.00863 0.0565,0.011135 0.25292,0.011135 l 0.25355,0 0.0111,-0.037858 C 14.12917,2.927986 14.13792,2.897922 14.14269,2.882 l 0.0089,-0.02895 -0.15168,0 c -0.09858,0 -0.15137,-0.00313 -0.15137,-0.00919 0,-0.00512 0.01828,-0.073206 0.04062,-0.151153 0.02234,-0.077947 0.04062,-0.14413 0.04062,-0.146978 0,-0.00213 -0.02511,-0.00319 -0.06061,-0.00306 z m -1.51243,0.105501 0.08854,0 c 0.04861,6.7e-5 0.09849,0.00261 0.11107,0.00557 0.03017,0.00709 0.03036,0.042217 3.1e-4,0.060684 -0.01668,0.010255 -0.04843,0.013918 -0.12186,0.013918 -0.0546,0 -0.09935,-0.00301 -0.09932,-0.00668 3e-5,-0.00368 0.005,-0.021713 0.01078,-0.040085 l 0.01048,-0.033404 z m -2.07062,5.57e-4 c 0.03653,0.00108 0.07128,0.010984 0.09583,0.029506 0.05819,0.043908 0.01969,0.14504 -0.06918,0.181774 C 10.25653,2.883247 10.21702,2.889002 10.17281,2.879773 10.07398,2.859145 10.06464,2.756449 10.15536,2.686587 10.18943,2.660343 10.23913,2.647344 10.2861,2.648729 z m 2.95187,2.78e-4 c 0.01389,-5.12e-4 0.0285,1.13e-4 0.04411,0.00195 0.06552,0.00771 0.09368,0.031212 0.09742,0.081561 0.0041,0.055082 -0.02973,0.10217 -0.0914,0.127492 -0.08311,0.034133 -0.1495,0.031385 -0.19738,-0.00807 -0.04479,-0.036901 -0.02579,-0.114717 0.0403,-0.165628 0.03076,-0.02369 0.06524,-0.035765 0.10695,-0.037301 z m -1.52672,5.57e-4 c 0.02573,1.95e-4 0.05044,0.00406 0.07077,0.012526 0.08832,0.036761 0.06267,0.151834 -0.04442,0.199033 -0.09945,0.043829 -0.20554,0.02081 -0.22024,-0.04788 -0.0066,-0.030738 0.0144,-0.085341 0.04412,-0.114686 0.03155,-0.03118 0.09318,-0.049422 0.14977,-0.048993 z m 2.86335,0.040363 0.01173,0.034796 c 0.0066,0.019132 0.01258,0.043815 0.013,0.054838 7.2e-4,0.018203 -0.004,0.020042 -0.05013,0.020042 -0.02792,0 -0.05077,-0.00193 -0.05077,-0.00445 0,-0.00253 0.01717,-0.027208 0.03808,-0.054839 L 14.5746,2.689927 z"
       inkscape:connector-curvature="0"
       id="path3688"
       style="fill:#ffffff;fill-opacity:1;display:inline;enable-background:new" />
    <path
       d="m -385.65625,-108.3125 c -6.15386,0 -11.0625,4.90864 -11.0625,11.0625 l 0,339.375 c 0,6.15386 4.90864,11.0625 11.0625,11.0625 l 162.15625,0 c 6.15386,0 11.03125,-4.9036 11.03125,-11.0625 l 0,-339.375 c 0,-6.1589 -4.87739,-11.0625 -11.03125,-11.0625 l -162.15625,0 z"
       transform="matrix(0.07083629,0,0,0.06084704,33.5763,7.089217)"
       id="path3690"
       style="fill:none;stroke:#000000;stroke-width:15.23183727;stroke-miterlimit:4;stroke-opacity:1;stroke-dasharray:none;marker:none;visibility:visible;display:inline;overflow:visible;enable-background:accumulate" />
    <rect
       width="8"
       height="13"
       ry="0"
       x="7.9843798"
       y="4.0012798"
       id="rect3694"
       style="fill:#2d2d2d;fill-opacity:1;stroke:none;stroke-width:2.01121116;marker:none;visibility:visible;display:inline;overflow:visible;enable-background:accumulate" />
    <path
       d="m 7.59374,1.166843 c -0.15561,0 -0.28039,0.172226 -0.28039,0.38812 l 0,18.788087 0,0.1371 c 0,0.21589 0.12478,0.39005 0.28039,0.39005 l 2.4722,0 c 0.93489,-6.56775 1.5932,-13.135609 1.99571,-19.703357 l -4.46791,0 z"
       inkscape:connector-curvature="0"
       id="path3698"
       style="opacity:0.1;fill:url(#linearGradient5229);fill-opacity:1;stroke:none;stroke-width:1.4642123;marker:none;visibility:visible;display:inline;overflow:visible;enable-background:accumulate" />
    <rect
       width="1.46875"
       height="1"
       x="9.9843798"
       y="18.00128"
       id="rect3766"
       style="fill:#c7c7c9;fill-opacity:1;fill-rule:nonzero;stroke:none;stroke-width:0.5;marker:none;visibility:visible;display:inline;overflow:visible;enable-background:accumulate" />
    <rect
       width="1.46875"
       height="1"
       x="7.9843798"
       y="18.00128"
       id="rect3768"
       style="fill:#c7c7c9;fill-opacity:1;fill-rule:nonzero;stroke:none;stroke-width:0.5;marker:none;visibility:visible;display:inline;overflow:visible;enable-background:accumulate" />
    <rect
       width="1.46875"
       height="1"
       x="12.51563"
       y="18.00128"
       id="rect3770"
       style="fill:#c7c7c9;fill-opacity:1;fill-rule:nonzero;stroke:none;stroke-width:0.5;marker:none;visibility:visible;display:inline;overflow:visible;enable-background:accumulate" />
    <rect
       width="1.46875"
       height="1"
       x="14.51563"
       y="18.00128"
       id="rect3772"
       style="fill:#c7c7c9;fill-opacity:1;fill-rule:nonzero;stroke:none;stroke-width:0.5;marker:none;visibility:visible;display:inline;overflow:visible;enable-background:accumulate" />
  </g>
</svg>
