<svg xmlns="http://www.w3.org/2000/svg" xmlns:xlink="http://www.w3.org/1999/xlink" viewBox="0 0 24 24"><defs><linearGradient id="a"><stop offset="0" stop-color="#787878"/><stop offset=".35" stop-color="#bebebe"/><stop offset=".494" stop-color="#c8c8c8"/><stop offset=".589" stop-color="#e6e6e6"/><stop offset="1" stop-color="#8c8c8c"/></linearGradient><linearGradient id="b"><stop offset="0"/><stop offset="1" stop-opacity="0"/></linearGradient><linearGradient id="c"><stop offset="0" stop-color="#fff"/><stop offset=".034" stop-color="#fff" stop-opacity=".235"/><stop offset=".969" stop-color="#fff" stop-opacity=".157"/><stop offset="1" stop-color="#fff" stop-opacity=".392"/></linearGradient><linearGradient xlink:href="#a" id="h" gradientUnits="userSpaceOnUse" gradientTransform="matrix(.57697 0 0 .60634 -194.65 -34.798)" x1="361.106" y1="87.05" x2="361.106" y2="94.396"/><radialGradient xlink:href="#b" id="g" gradientUnits="userSpaceOnUse" gradientTransform="matrix(.9684 0 0 .2075 5.51 7.224)" cx="6.703" cy="73.616" fx="6.703" fy="73.616" r="7.228"/><linearGradient xlink:href="#c" id="i" gradientUnits="userSpaceOnUse" gradientTransform="matrix(.58933 0 0 .38996 -2.144 1.218)" x1="24.81" y1="51.15" x2="24.81" y2="42.989"/><linearGradient id="d"><stop offset="0" stop-color="#fff"/><stop offset=".015" stop-color="#fff" stop-opacity=".235"/><stop offset=".996" stop-color="#fff" stop-opacity=".157"/><stop offset="1" stop-color="#fff" stop-opacity=".392"/></linearGradient><linearGradient y2="41.423" x2="24" y1="6.392" x1="24" gradientTransform="matrix(.56757 0 0 .37838 -1.622 .42)" gradientUnits="userSpaceOnUse" id="j" xlink:href="#d"/><linearGradient id="e"><stop offset="0" stop-color="#261e2b"/><stop offset="1" stop-color="#352f39"/></linearGradient><linearGradient y2="2" x2="15" y1="24.619" x1="15" gradientTransform="matrix(.5 0 0 .56522 1.5 7.522)" gradientUnits="userSpaceOnUse" id="k" xlink:href="#e"/><linearGradient id="f"><stop offset="0" stop-color="#fff"/><stop offset="1" stop-color="#fff" stop-opacity="0"/></linearGradient><linearGradient y2="12" x2="20" y1="-3" x1="10" gradientTransform="matrix(.55 0 0 .55556 .45 6.444)" gradientUnits="userSpaceOnUse" id="l" xlink:href="#f"/></defs><path d="M19 22.5c0 .828-3.134 1.5-7 1.5s-7-.672-7-1.5S8.134 21 12 21s7 .672 7 1.5z" opacity=".3" fill="url(#g)" overflow="visible"/><path d="M8.5 17.5s.227 2.145 0 2.5c-.393.613-1.607.5-1.607.5-.523.063-.527 2 0 2h10.214c.527 0 .523-1.938 0-2 0 0-1.17.083-1.607-.5-.246-.33 0-2.5 0-2.5h-7z" color="#000" fill="url(#h)" overflow="visible"/><path d="M9.532 16.758s.066 2.144.05 2.458c-.015.288-.027.593-.075.873s-.233.49-.42.743c-.415.56-1.32.652-1.57.666H16.5c-.25-.015-1.145-.16-1.56-.72-.188-.253-.383-.41-.43-.69-.05-.28-.11-.587-.124-.875-.017-.314.082-2.458.082-2.458z" color="#000" fill="none" stroke="url(#i)" stroke-linecap="round" stroke-linejoin="round" overflow="visible"/><path d="M8.5 17.5s.227 2.145 0 2.5c-.393.613-1.607.5-1.607.5-.523.063-.527 2 0 2h10.214c.527 0 .523-1.938 0-2 0 0-1.17.083-1.607-.5-.246-.33 0-2.5 0-2.5h-7z" color="#000" fill="none" stroke="#000" stroke-width=".998" stroke-linecap="round" stroke-linejoin="round" stroke-dashoffset=".5" overflow="visible" opacity=".4"/><rect y="1.5" x=".5" ry=".485" rx=".511" height="16" width="23" fill="#1a1a1a" stroke="#000" stroke-linecap="round" stroke-linejoin="round" stroke-dashoffset=".5"/><rect width="21" height="14" rx="0" ry="0" x="1.5" y="2.5" opacity=".2" fill="none" stroke="url(#j)" stroke-linecap="round" stroke-linejoin="round"/><path d="M2 3h20v13H2z" fill="url(#k)"/><path d="M2 3v13h20V3H2zm1 1h18v11H3V4z" opacity=".3" color="#000" overflow="visible"/><path d="M1 2v10l22-7.292V2z" opacity=".2" fill="url(#l)"/></svg>