<?xml version="1.0" encoding="UTF-8" standalone="no"?>
<!-- Created with Inkscape (http://www.inkscape.org/) -->
<svg
   xmlns:svg="http://www.w3.org/2000/svg"
   xmlns="http://www.w3.org/2000/svg"
   xmlns:xlink="http://www.w3.org/1999/xlink"
   version="1.0"
   width="24"
   height="24"
   id="svg2">
  <defs
     id="defs4">
    <linearGradient
       id="linearGradient10691">
      <stop
         id="stop10693"
         style="stop-color:#000000;stop-opacity:1"
         offset="0" />
      <stop
         id="stop10695"
         style="stop-color:#000000;stop-opacity:0"
         offset="1" />
    </linearGradient>
    <radialGradient
       cx="6.702713"
       cy="73.615715"
       r="7.228416"
       fx="6.702713"
       fy="73.615715"
       id="radialGradient2432"
       xlink:href="#linearGradient10691"
       gradientUnits="userSpaceOnUse"
       gradientTransform="matrix(1.1067432,0,0,0.3458572,4.5818182,-3.9605224)" />
    <linearGradient
       id="linearGradient3406">
      <stop
         id="stop3408"
         style="stop-color:#808080;stop-opacity:1"
         offset="0" />
      <stop
         id="stop3414"
         style="stop-color:#808080;stop-opacity:1"
         offset="0.30009115" />
      <stop
         id="stop3416"
         style="stop-color:#969696;stop-opacity:1"
         offset="0.4148587" />
      <stop
         id="stop3410"
         style="stop-color:#969696;stop-opacity:1"
         offset="1" />
    </linearGradient>
    <linearGradient
       x1="24.000002"
       y1="45"
       x2="24.000002"
       y2="37.974422"
       id="linearGradient2429"
       xlink:href="#linearGradient3406"
       gradientUnits="userSpaceOnUse"
       gradientTransform="matrix(0.4782609,0,0,0.4444444,0.5217382,2.7222232)" />
    <linearGradient
       id="linearGradient3418">
      <stop
         id="stop3420"
         style="stop-color:#aaaaaa;stop-opacity:1"
         offset="0" />
      <stop
         id="stop3426"
         style="stop-color:#b3b3b3;stop-opacity:1"
         offset="0.26436639" />
      <stop
         id="stop3428"
         style="stop-color:#bebebe;stop-opacity:1"
         offset="0.39481503" />
      <stop
         id="stop3422"
         style="stop-color:#b3b3b3;stop-opacity:1"
         offset="1" />
    </linearGradient>
    <linearGradient
       x1="26.870913"
       y1="45"
       x2="26.746988"
       y2="36.943203"
       id="linearGradient2427"
       xlink:href="#linearGradient3418"
       gradientUnits="userSpaceOnUse"
       gradientTransform="matrix(0.4782609,0,0,0.4444444,0.5217382,2.7222232)" />
    <linearGradient
       id="linearGradient3269">
      <stop
         id="stop3271"
         style="stop-color:#ffffff;stop-opacity:1"
         offset="0" />
      <stop
         id="stop3273"
         style="stop-color:#ffffff;stop-opacity:0"
         offset="1" />
    </linearGradient>
    <linearGradient
       x1="19.283365"
       y1="42.361061"
       x2="19.283365"
       y2="34.020142"
       id="linearGradient2424"
       xlink:href="#linearGradient3269"
       gradientUnits="userSpaceOnUse"
       gradientTransform="matrix(0.3919637,0,0,0.3768224,2.5928705,5.4923376)" />
    <linearGradient
       id="linearGradient9936">
      <stop
         id="stop9938"
         style="stop-color:#333333;stop-opacity:1"
         offset="0" />
      <stop
         id="stop9940"
         style="stop-color:#575757;stop-opacity:1"
         offset="1" />
    </linearGradient>
    <linearGradient
       x1="32.733955"
       y1="16.655838"
       x2="32.733955"
       y2="32.616764"
       id="linearGradient3293"
       xlink:href="#linearGradient9936"
       gradientUnits="userSpaceOnUse"
       gradientTransform="matrix(0.4847112,0,0,0.4963577,0.318551,0.2673967)" />
    <linearGradient
       id="linearGradient3738">
      <stop
         id="stop3742"
         style="stop-color:#ffffff;stop-opacity:1"
         offset="0" />
      <stop
         id="stop3750"
         style="stop-color:#ffffff;stop-opacity:0"
         offset="0.85612506" />
      <stop
         id="stop3744"
         style="stop-color:#ffffff;stop-opacity:0"
         offset="1" />
    </linearGradient>
    <linearGradient
       x1="17.355219"
       y1="8.000001"
       x2="24.007845"
       y2="26.039217"
       id="linearGradient3291"
       xlink:href="#linearGradient3738"
       gradientUnits="userSpaceOnUse"
       gradientTransform="matrix(0.5838421,0,0,0.6097826,-2.0167895,-3.3782612)" />
  </defs>
  <g
     id="layer1">
    <path
       d="M 20,21.5 C 20,22.880712 16.418278,24 12.000001,24 C 7.5817219,24 4,22.880712 4,21.5 C 4,20.119288 7.5817219,19 12.000001,19 C 16.418278,19 20,20.119288 20,21.5 z"
       id="path2883"
       style="opacity:0.4;fill:url(#radialGradient2432);fill-opacity:1;fill-rule:nonzero;stroke:none;stroke-width:0.80000001;stroke-linecap:butt;stroke-linejoin:miter;marker:none;marker-start:none;marker-mid:none;marker-end:none;stroke-miterlimit:4;stroke-dashoffset:0;stroke-opacity:1;visibility:visible;display:inline;overflow:visible" />
    <path
       d="M 7.2091601,18.503036 C 7.2091601,18.503036 6.516911,21.168491 6.516911,21.346542 C 6.516911,21.514729 6.3611448,22.499999 6.9950882,22.499999 C 7.6179383,22.499999 16.643047,22.499999 17.126776,22.499999 C 17.611414,22.499999 17.45641,21.318426 17.498404,21.224577 C 17.53902,21.133808 16.790742,18.499999 16.790742,18.499999 L 7.2091601,18.503036 z"
       id="path2170"
       style="fill:url(#linearGradient2427);fill-opacity:1;fill-rule:evenodd;stroke:url(#linearGradient2429);stroke-width:0.9999997;stroke-linecap:round;stroke-linejoin:round;stroke-miterlimit:4;stroke-dasharray:none;stroke-opacity:1" />
    <path
       d="M 8.0803627,18.502437 C 8.0803627,18.502437 7.6471327,20.74355 7.5478605,21.092244 C 7.4492634,21.438563 7.4711531,21.5 7.9229214,21.5 C 8.3655693,21.5 15.773163,21.5 16.131102,21.5 C 16.498045,21.5 16.538096,21.377318 16.476111,21.088324 C 16.415497,20.805737 15.919636,18.5 15.919636,18.5 L 8.0803627,18.502437 z"
       id="path2186"
       style="opacity:0.4;fill:none;fill-opacity:1;fill-rule:evenodd;stroke:url(#linearGradient2424);stroke-width:0.99999976;stroke-linecap:round;stroke-linejoin:round;stroke-miterlimit:4;stroke-dasharray:none;stroke-opacity:1" />
    <path
       d="M 0.85779087,0.00022402039 C 8.2859306,0.00022402039 15.714071,0.00022402039 23.142209,0.00022402039 C 23.970324,-0.006734719 24.041081,0.92158257 23.985676,1.5620899 C 23.985676,7.0798991 23.985674,12.597707 23.985674,18.115517 C 23.992426,18.969401 23.092121,19.042359 22.470943,18.98523 C 15.266557,18.98523 8.0621746,18.98523 0.85779087,18.98523 C 0.029676361,18.992188 -0.04108189,18.063871 0.014324414,17.423364 C 0.014324414,11.905554 0.014324414,6.3877447 0.014324414,0.8699355 C 0.0033760192,0.40244293 0.40425208,-0.011026713 0.85779087,0.00022402039 z"
       id="rect3170"
       style="fill:#1a1a1a;fill-opacity:1;fill-rule:evenodd;stroke:none;stroke-width:1.00396311;stroke-linecap:round;stroke-linejoin:round;marker:none;marker-start:none;marker-mid:none;marker-end:none;stroke-miterlimit:4;stroke-dasharray:none;stroke-dashoffset:0;stroke-opacity:1;visibility:visible;display:inline;overflow:visible;enable-background:accumulate" />
    <path
       d="M 1.5,1.5 C 8.5000007,1.5 15.5,1.5 22.5,1.5 C 22.5,6.8333329 22.5,12.166666 22.5,17.5 C 15.5,17.5 8.5000007,17.5 1.5,17.5 C 1.5,12.166666 1.5,6.8333329 1.5,1.5 z"
       id="rect4151"
       style="fill:url(#linearGradient3293);fill-opacity:1;fill-rule:evenodd;stroke:none;stroke-width:1.00280869;stroke-linecap:round;stroke-linejoin:round;marker:none;marker-start:none;marker-mid:none;marker-end:none;stroke-miterlimit:4;stroke-dasharray:none;stroke-dashoffset:0;stroke-opacity:1;visibility:visible;display:inline;overflow:visible;enable-background:accumulate" />
    <path
       d="M 1.5,1.5191299 L 1.5,12.5 C 2.5,12.237571 22.171632,6.0999482 22.499995,5.7756512 L 22.5,1.5 L 1.5,1.5191299 z"
       id="path4073"
       style="opacity:0.3;fill:url(#linearGradient3291);fill-opacity:1;fill-rule:evenodd;stroke:none;stroke-width:1px;stroke-linecap:butt;stroke-linejoin:miter;stroke-opacity:1" />
  </g>
</svg>
