<svg xmlns="http://www.w3.org/2000/svg" xmlns:xlink="http://www.w3.org/1999/xlink" viewBox="0 0 64 64"><defs><linearGradient gradientTransform="matrix(.38038 0 0 .39792 13.914 13.556)" gradientUnits="userSpaceOnUse" xlink:href="#a" id="W" y2="37.81" x2="34.131" y1="41.608" x1="38.851"/><linearGradient id="a"><stop offset="0" stop-color="#fbac9b"/><stop offset="1" stop-color="#fcfafc"/></linearGradient><linearGradient gradientTransform="matrix(.54388 0 0 .56897 6.972 5.744)" gradientUnits="userSpaceOnUse" xlink:href="#b" id="V" y2="37.81" x2="34.131" y1="41.608" x1="38.851"/><linearGradient id="b"><stop offset="0" stop-color="#feffff"/><stop offset="1" stop-color="#fe70ca"/></linearGradient><radialGradient gradientTransform="matrix(.54388 0 0 .56897 11.534 8.506)" gradientUnits="userSpaceOnUse" xlink:href="#c" id="U" fy="39.709" fx="36.491" r="3.159" cy="39.709" cx="36.491"/><linearGradient id="c"><stop offset="0" stop-color="#fff"/><stop offset="1" stop-color="#fff" stop-opacity="0"/></linearGradient><radialGradient gradientTransform="matrix(1.90662 -1.1008 .6263 1.0848 -69.064 21.715)" gradientUnits="userSpaceOnUse" xlink:href="#d" id="T" fy="39.709" fx="36.491" r="3.159" cy="39.709" cx="36.491"/><linearGradient id="d"><stop offset="0" stop-color="#fff"/><stop offset="1" stop-color="#fff" stop-opacity="0"/></linearGradient><radialGradient gradientTransform="matrix(2.36938 -1.36796 .77832 1.3481 -80.223 35.17)" gradientUnits="userSpaceOnUse" xlink:href="#e" id="S" fy="39.709" fx="36.491" r="3.159" cy="39.709" cx="36.491"/><linearGradient id="e"><stop offset="0" stop-color="#fff"/><stop offset="1" stop-color="#fff" stop-opacity="0"/></linearGradient><radialGradient gradientTransform="rotate(-135 42.964 56.396) scale(2.14286)" gradientUnits="userSpaceOnUse" xlink:href="#f" id="R" fy="31.405" fx="32.373" r="3.857" cy="31.405" cx="32.373"/><linearGradient id="f"><stop offset="0" stop-color="#ff54d2" stop-opacity="0"/><stop offset=".324" stop-color="#ff54d2" stop-opacity="0"/><stop offset=".561" stop-color="#ff54d2" stop-opacity=".252"/><stop offset="1" stop-color="#ff54d2" stop-opacity=".478"/></linearGradient><radialGradient gradientTransform="matrix(1.29715 1.80124 -1.7389 1.25225 44.617 -65.652)" gradientUnits="userSpaceOnUse" xlink:href="#g" id="Q" fy="31.405" fx="32.373" r="3.857" cy="31.405" cx="32.373"/><linearGradient id="g"><stop offset="0" stop-color="#fff" stop-opacity="0"/><stop offset=".405" stop-color="#fff" stop-opacity="0"/><stop offset="1" stop-color="#fff" stop-opacity=".478"/></linearGradient><radialGradient gradientTransform="matrix(0 2.2197 -2.14286 0 99.304 -39.87)" gradientUnits="userSpaceOnUse" xlink:href="#h" id="P" fy="31.405" fx="32.373" r="3.857" cy="31.405" cx="32.373"/><linearGradient id="h"><stop offset="0" stop-color="#fff" stop-opacity="0"/><stop offset=".405" stop-color="#fff" stop-opacity="0"/><stop offset="1" stop-color="#fff" stop-opacity=".478"/></linearGradient><radialGradient gradientTransform="matrix(2.14406 .5745 -.5546 2.06985 -20 -51.612)" gradientUnits="userSpaceOnUse" xlink:href="#i" id="O" fy="31.405" fx="32.373" r="3.857" cy="31.405" cx="32.373"/><linearGradient id="i"><stop offset="0" stop-color="#fff" stop-opacity="0"/><stop offset=".405" stop-color="#fff" stop-opacity="0"/><stop offset="1" stop-color="#fff" stop-opacity=".478"/></linearGradient><linearGradient gradientTransform="matrix(.1658 0 0 .12436 20.905 22.577)" gradientUnits="userSpaceOnUse" xlink:href="#j" id="N" y2="65.922" x2="68.313" y1="52.925" x1="68.313"/><linearGradient id="j"><stop offset="0" stop-color="#fff"/><stop offset="1" stop-color="#fff" stop-opacity="0"/></linearGradient><linearGradient gradientTransform="matrix(.468 0 0 .468 -11.088 16.76)" gradientUnits="userSpaceOnUse" xlink:href="#k" id="M" y2="48.984" x2="92.696" y1="16.555" x1="92.696"/><linearGradient id="k"><stop offset="0" stop-color="#fff"/><stop offset=".338" stop-color="#fff" stop-opacity=".235"/><stop offset=".62" stop-color="#fff" stop-opacity=".157"/><stop offset="1" stop-color="#fff" stop-opacity=".392"/></linearGradient><radialGradient gradientTransform="rotate(180 50.69 49.654) scale(2.14286)" gradientUnits="userSpaceOnUse" xlink:href="#l" id="L" fy="31.405" fx="32.373" r="3.857" cy="31.405" cx="32.373"/><linearGradient id="l"><stop offset="0" stop-color="#ff54d2" stop-opacity="0"/><stop offset=".324" stop-color="#f62b68"/><stop offset=".561" stop-color="#ff0105"/><stop offset="1" stop-color="#ff54d2" stop-opacity=".478"/></linearGradient><linearGradient gradientTransform="matrix(.84225 0 0 -.84225 -45.56 59.433)" gradientUnits="userSpaceOnUse" xlink:href="#m" id="K" y2="48.984" x2="92.696" y1="16.555" x1="92.696"/><linearGradient id="m"><stop offset="0" stop-color="#fff"/><stop offset=".338" stop-color="#fff" stop-opacity=".235"/><stop offset=".62" stop-color="#fff" stop-opacity=".157"/><stop offset="1" stop-color="#fff" stop-opacity=".392"/></linearGradient><radialGradient gradientTransform="matrix(.57547 0 0 .5407 -23.24 -19.788)" gradientUnits="userSpaceOnUse" xlink:href="#n" id="J" fy="95.388" fx="95.838" r="9.498" cy="95.388" cx="95.838"/><linearGradient id="n"><stop offset="0"/><stop offset=".5" stop-opacity=".314"/><stop offset="1" stop-opacity="0"/></linearGradient><radialGradient gradientTransform="matrix(0 .5277 -.69656 0 34.78 14.552)" gradientUnits="userSpaceOnUse" xlink:href="#o" id="H" r="20.397" cy="3.99" cx="23.896"/><linearGradient id="o"><stop offset="0" stop-color="#612f91"/><stop offset="1" stop-color="#1a4aa2"/></linearGradient><linearGradient gradientTransform="matrix(.22 0 0 .22 26.693 26.693)" gradientUnits="userSpaceOnUse" xlink:href="#p" id="I" y2="45.369" x2="7.078" y1="3.082" x1="7.078"/><linearGradient gradientTransform="matrix(.22 0 0 .22 6.693 6.693)" gradientUnits="userSpaceOnUse" id="p" y2="45.369" x2="7.078" y1="3.082" x1="7.078"><stop offset="0" stop-color="#170418"/><stop offset="1" stop-color="#50386b"/></linearGradient><radialGradient gradientTransform="matrix(0 2.01152 -4.63364 0 130.415 -43.13)" gradientUnits="userSpaceOnUse" xlink:href="#q" id="G" fy="21.239" fx="32" r="10.498" cy="21.239" cx="32"/><linearGradient id="q"><stop offset="0" stop-color="#07132d"/><stop offset="1" stop-color="#425479"/></linearGradient><radialGradient gradientTransform="rotate(90 106.03 -43.83) scale(1.83613)" gradientUnits="userSpaceOnUse" xlink:href="#r" id="F" fy="16.448" fx="91.35" r="15.639" cy="16.448" cx="91.35"/><linearGradient id="r"><stop offset="0" stop-color="#2d3955"/><stop offset=".725" stop-color="#2b3853"/><stop offset=".75" stop-color="#192640"/><stop offset="1" stop-color="#08142e"/></linearGradient><linearGradient gradientTransform="translate(-68.54 -3.56) scale(1.0918)" gradientUnits="userSpaceOnUse" xlink:href="#s" id="E" y2="48.984" x2="92.696" y1="16.555" x1="92.696"/><linearGradient id="s"><stop offset="0" stop-color="#fff"/><stop offset=".338" stop-color="#fff" stop-opacity=".235"/><stop offset=".62" stop-color="#fff" stop-opacity=".157"/><stop offset="1" stop-color="#fff" stop-opacity=".392"/></linearGradient><linearGradient gradientTransform="translate(-74.284 -5.594) scale(1.1542)" gradientUnits="userSpaceOnUse" xlink:href="#t" id="D" y2="48.631" x2="91.566" y1="16.543" x1="91.566"/><linearGradient id="t"><stop offset="0" stop-color="#7a8498"/><stop offset="1" stop-color="#34405c"/></linearGradient><linearGradient gradientTransform="translate(-17.176 1.333) scale(.95833)" gradientUnits="userSpaceOnUse" xlink:href="#u" id="C" y2="56.115" x2="51.2" y1="8.114" x1="51.2"/><linearGradient id="u"><stop offset="0" stop-color="#b6b6b6"/><stop offset=".331" stop-color="#a4a4a4"/><stop offset="1" stop-color="#c5c5c5"/></linearGradient><linearGradient gradientTransform="translate(-135.945 -32.843) scale(2.32687)" gradientUnits="userSpaceOnUse" xlink:href="#v" id="B" y2="40.496" x2="71.204" y1="15.369" x1="71.204"/><linearGradient id="v"><stop offset="0" stop-color="#fff"/><stop offset=".424" stop-color="#fff" stop-opacity=".235"/><stop offset=".821" stop-color="#fff" stop-opacity=".157"/><stop offset="1" stop-color="#fff" stop-opacity=".392"/></linearGradient><radialGradient gradientTransform="matrix(0 4.15665 -5.4867 0 53.893 -97.44)" gradientUnits="userSpaceOnUse" xlink:href="#w" id="A" fy="3.99" fx="23.896" r="20.397" cy="3.99" cx="23.896"/><radialGradient gradientTransform="matrix(0 1.23165 -1.62575 0 18.487 -28.722)" gradientUnits="userSpaceOnUse" id="w" r="20.397" cy="3.99" cx="23.896"><stop offset="0" stop-color="#fff"/><stop offset=".262" stop-color="#ddd"/><stop offset=".661" stop-color="#abacae"/><stop offset="1" stop-color="#89898b"/></radialGradient><radialGradient r="62.769" fy="185.297" fx="99.189" cy="185.297" cx="99.189" gradientTransform="matrix(.38235 0 0 .11152 -5.925 36.336)" gradientUnits="userSpaceOnUse" id="y" xlink:href="#x"/><linearGradient id="x"><stop offset="0"/><stop offset="1" stop-opacity="0"/></linearGradient><radialGradient r="62.769" fy="185.297" fx="99.189" cy="185.297" cx="99.189" gradientTransform="matrix(.2549 0 0 .07966 6.716 44.24)" gradientUnits="userSpaceOnUse" id="z" xlink:href="#x"/></defs><path d="M56 57.002a24 7 0 1 1-48 0 24 7 0 1 1 48 0z" opacity=".2" fill="url(#y)" transform="translate(0 -.002)"/><path d="M48 59.002a16 5 0 1 1-32 0 16 5 0 1 1 32 0z" opacity=".4" fill="url(#z)" transform="translate(0 -.002)"/><path d="M32 2.5C15.723 2.5 2.5 15.723 2.5 32S15.723 61.5 32 61.5 61.5 48.277 61.5 32 48.277 2.5 32 2.5z" color="#000" overflow="visible" fill="url(#A)"/><path d="M32 2.5C15.723 2.5 2.5 15.723 2.5 32S15.723 61.5 32 61.5 61.5 48.277 61.5 32 48.277 2.5 32 2.5z" color="#000" overflow="visible" opacity=".3" fill="none" stroke="#000" stroke-linecap="round" stroke-linejoin="round"/><path d="M60.5 32c0 15.74-12.76 28.5-28.5 28.5S3.5 47.74 3.5 32 16.26 3.5 32 3.5 60.5 16.26 60.5 32z" color="#000" overflow="visible" opacity=".8" fill="none" stroke="url(#B)" stroke-linecap="round" stroke-linejoin="round"/><path d="M32 9C19.31 9 9 19.31 9 32s10.31 23 23 23 23-10.31 23-23S44.69 9 32 9z" color="#000" overflow="visible" fill="url(#C)"/><path d="M32 9.5c-12.415 0-22.5 10.31-22.5 23s10.086 23 22.5 23c12.415 0 22.5-10.31 22.5-23S44.414 9.5 32 9.5z" color="#000" overflow="visible" opacity=".05" fill="none" stroke="#000"/><path d="M50.5 32a18.5 18.5 0 0 1-37 0 18.5 18.5 0 1 1 37 0z" color="#000" overflow="visible" fill="url(#D)"/><path d="M50.5 32a18.5 18.5 0 0 1-37 0 18.5 18.5 0 1 1 37 0z" color="#000" overflow="visible" opacity=".3" fill="none" stroke="#000"/><path d="M49.5 32a17.5 17.5 0 0 1-35 0 17.5 17.5 0 1 1 35 0z" color="#000" overflow="visible" opacity=".3" fill="none" stroke="url(#E)"/><path d="M46.5 32a14.5 14.5 0 1 1-29 0 14.5 14.5 0 1 1 29 0z" color="#000" overflow="visible" fill="url(#F)"/><path d="M32 21.502c-5.792 0-10.498 4.705-10.498 10.498 0 5.792 4.706 10.498 10.498 10.498 5.792 0 10.498-4.705 10.498-10.498 0-5.792-4.705-10.498-10.498-10.498z" fill="url(#G)"/><path d="M32 21.502c-5.792 0-10.498 4.705-10.498 10.498 0 5.792 4.706 10.498 10.498 10.498 5.792 0 10.498-4.705 10.498-10.498 0-5.792-4.705-10.498-10.498-10.498z" opacity=".3" fill="none" stroke="#000" stroke-width="1.004" stroke-linecap="round" stroke-linejoin="round"/><path d="M32 23.502c-4.69 0-8.498 3.81-8.498 8.498 0 4.69 3.81 8.498 8.498 8.498 4.69 0 8.498-3.81 8.498-8.498 0-4.69-3.81-8.498-8.498-8.498z" fill="#2f3b55"/><path d="M32 27.502A4.5 4.5 0 0 0 27.502 32 4.5 4.5 0 0 0 32 36.498 4.5 4.5 0 0 0 36.498 32 4.5 4.5 0 0 0 32 27.502z" fill="url(#H)" stroke="url(#I)" stroke-width="1.004" stroke-linecap="round" stroke-linejoin="round"/><path d="M32 27.738A4.265 4.265 0 0 0 27.738 32 4.265 4.265 0 0 0 32 36.262 4.265 4.265 0 0 0 36.262 32 4.265 4.265 0 0 0 32 27.738z" opacity=".5" fill="url(#J)"/><path d="M45.5 32a13.5 13.5 0 1 0-27 0 13.5 13.5 0 0 0 27 0z" color="#000" overflow="visible" opacity=".3" fill="none" stroke="url(#K)"/><path d="M46.5 32.5a14.5 14.5 0 1 1-29 0 14.5 14.5 0 1 1 29 0z" color="#000" overflow="visible" opacity=".3" fill="none" stroke="#000"/><path d="M32 23.502c-4.69 0-8.498 3.81-8.498 8.498 0 4.69 3.81 8.498 8.498 8.498 4.69 0 8.498-3.81 8.498-8.498 0-4.69-3.81-8.498-8.498-8.498z" opacity=".3" fill="none" stroke="#000" stroke-width="1.004" stroke-linecap="round" stroke-linejoin="round"/><path d="M24.147 30.475a8 8 0 0 1 5.782-6.202L32 32z" color="#000" overflow="visible" opacity=".4" fill="url(#L)"/><path d="M39.5 32a7.5 7.5 0 0 1-15 0 7.5 7.5 0 1 1 15 0z" color="#000" overflow="visible" opacity=".3" fill="none" stroke="url(#M)"/><path d="M33.894 30.58a1.894 1.42 0 0 1-3.788 0 1.894 1.42 0 1 1 3.788 0z" color="#000" overflow="visible" opacity=".5" fill="url(#N)"/><path d="M40 32a8 8 0 0 1-.505 2.798L32 32z" color="#000" overflow="visible" opacity=".4" fill="url(#O)"/><path d="M32.72 39.968a8 8 0 0 1-2.558-.182L32 32z" color="#000" overflow="visible" opacity=".4" fill="url(#P)"/><path d="M38.795 36.223a8 8 0 0 1-3.737 3.17L32 32z" color="#000" overflow="visible" opacity=".4" fill="url(#Q)"/><path d="M26.343 24.343a8 8 0 0 1 11.314 0L32 30z" color="#000" overflow="visible" opacity=".5" fill="url(#R)"/><path d="M44.63 34.462a4.917 8.643 60 1 1-14.97 8.642 4.917 8.643 60 1 1 14.97-8.642z" color="#000" overflow="visible" opacity=".2" fill="url(#S)"/><path d="M31.403 21.145A3.957 6.955 60 1 1 19.357 28.1a3.957 6.955 60 1 1 12.046-6.955z" color="#000" overflow="visible" opacity=".4" fill="url(#T)"/><path d="M33.1 31.1a1.718 1.797 0 1 1-3.437 0 1.718 1.797 0 1 1 3.436 0z" color="#000" overflow="visible" opacity=".8" fill="url(#U)"/><path d="M28.537 28.337a1.718 1.797 0 1 1-3.436 0 1.718 1.797 0 1 1 3.44 0z" color="#000" overflow="visible" opacity=".4" fill="url(#V)"/><path d="M28.996 29.358a1.202 1.257 0 1 1-2.403 0 1.202 1.257 0 1 1 2.403 0z" color="#000" overflow="visible" opacity=".4" fill="url(#W)"/></svg>