<?xml version="1.0" encoding="UTF-8" standalone="no"?>
<!-- Created with Inkscape (http://www.inkscape.org/) -->
<svg
   xmlns:dc="http://purl.org/dc/elements/1.1/"
   xmlns:cc="http://creativecommons.org/ns#"
   xmlns:rdf="http://www.w3.org/1999/02/22-rdf-syntax-ns#"
   xmlns:svg="http://www.w3.org/2000/svg"
   xmlns="http://www.w3.org/2000/svg"
   xmlns:sodipodi="http://sodipodi.sourceforge.net/DTD/sodipodi-0.dtd"
   xmlns:inkscape="http://www.inkscape.org/namespaces/inkscape"
   version="1.0"
   width="24"
   height="24"
   id="svg3249"
   sodipodi:version="0.32"
   inkscape:version="0.46"
   sodipodi:docname="ubuntuone-client-idle.svg"
   inkscape:output_extension="org.inkscape.output.svg.inkscape">
  <metadata
     id="metadata7">
    <rdf:RDF>
      <cc:Work
         rdf:about="">
        <dc:format>image/svg+xml</dc:format>
        <dc:type
           rdf:resource="http://purl.org/dc/dcmitype/StillImage" />
      </cc:Work>
    </rdf:RDF>
  </metadata>
  <sodipodi:namedview
     inkscape:window-height="707"
     inkscape:window-width="640"
     inkscape:pageshadow="2"
     inkscape:pageopacity="0.0"
     guidetolerance="10.0"
     gridtolerance="10.0"
     objecttolerance="10.0"
     borderopacity="1.0"
     bordercolor="#666666"
     pagecolor="#ffffff"
     id="base"
     showgrid="false"
     inkscape:zoom="20.75"
     inkscape:cx="12"
     inkscape:cy="12"
     inkscape:window-x="798"
     inkscape:window-y="24"
     inkscape:current-layer="svg3249" />
  <defs
     id="defs3251" />
  <g
     id="layer1"
     style="fill:#969696;fill-opacity:1;stroke:#969696;stroke-opacity:1">
    <path
       d="M 12,3.5 C 9.794719,3.5 7.978098,5.092762 7.59375,7.1875 C 7.397412,7.161298 7.203469,7.125 7,7.125 C 4.516,7.125 2.5,9.141 2.5,11.625 C 2.5,11.849656 2.530665,12.065395 2.5625,12.28125 C 1.322611,13.072478 0.5,14.445234 0.5,16.03125 C 0.5,18.503823 2.496176,20.5 4.96875,20.5 L 19.03125,20.5 C 21.503823,20.5 23.5,18.503822 23.5,16.03125 C 23.5,14.394622 22.619257,12.995526 21.3125,12.21875 C 21.423086,11.828401 21.5,11.425616 21.5,11 C 21.5,8.516 19.484,6.499999 17,6.5 C 16.743564,6.5 16.494758,6.521232 16.25,6.5625 C 15.647216,4.787314 13.978116,3.499999 12,3.5 z"
       id="rect3758"
       style="fill:#969696;fill-opacity:1;stroke:#969696;stroke-width:0.99999987999999995;stroke-linecap:square;stroke-linejoin:round;stroke-miterlimit:4;stroke-dasharray:none;stroke-opacity:1" />
  </g>
</svg>
