<?xml version="1.0" encoding="UTF-8" standalone="no"?>
<!-- Created with Inkscape (http://www.inkscape.org/) -->

<svg
   xmlns:svg="http://www.w3.org/2000/svg"
   xmlns="http://www.w3.org/2000/svg"
   xmlns:xlink="http://www.w3.org/1999/xlink"
   version="1.0"
   width="16"
   height="16"
   id="svg3303">
  <defs
     id="defs3305">
    <linearGradient
       id="linearGradient6028">
      <stop
         id="stop6030"
         style="stop-color:white;stop-opacity:1"
         offset="0" />
      <stop
         id="stop6032"
         style="stop-color:white;stop-opacity:0"
         offset="1" />
    </linearGradient>
    <linearGradient
       x1="28.702885"
       y1="31.494707"
       x2="17.742729"
       y2="18.366575"
       id="linearGradient3341"
       xlink:href="#linearGradient6028"
       gradientUnits="userSpaceOnUse" />
    <linearGradient
       id="linearGradient6036">
      <stop
         id="stop6038"
         style="stop-color:white;stop-opacity:1"
         offset="0" />
      <stop
         id="stop6040"
         style="stop-color:white;stop-opacity:0"
         offset="1" />
    </linearGradient>
    <linearGradient
       x1="10.50172"
       y1="3.6100161"
       x2="48.798885"
       y2="54.698483"
       id="linearGradient3339"
       xlink:href="#linearGradient6036"
       gradientUnits="userSpaceOnUse"
       gradientTransform="matrix(0.328322,0,0,0.3283219,4.0067991,4.7914954)" />
    <linearGradient
       id="linearGradient10997">
      <stop
         id="stop10999"
         style="stop-color:white;stop-opacity:1"
         offset="0" />
      <stop
         id="stop11001"
         style="stop-color:white;stop-opacity:0"
         offset="1" />
    </linearGradient>
    <linearGradient
       x1="25.985928"
       y1="24.919628"
       x2="15.889072"
       y2="11.669628"
       id="linearGradient3337"
       xlink:href="#linearGradient10997"
       gradientUnits="userSpaceOnUse"
       gradientTransform="matrix(0.3383777,0,0,0.3383777,3.9445106,4.847368)" />
    <linearGradient
       x1="12.2744"
       y1="32.4165"
       x2="35.391201"
       y2="14.2033"
       id="aigrd2"
       gradientUnits="userSpaceOnUse">
      <stop
         id="stop3043"
         style="stop-color:#fbfbfb;stop-opacity:1"
         offset="0" />
      <stop
         id="stop3045"
         style="stop-color:#b6b6b6;stop-opacity:1"
         offset="0.5" />
      <stop
         id="stop3047"
         style="stop-color:#e4e4e4;stop-opacity:1"
         offset="1" />
    </linearGradient>
    <linearGradient
       x1="12.2744"
       y1="32.4165"
       x2="35.391201"
       y2="14.2033"
       id="linearGradient3335"
       xlink:href="#aigrd2"
       gradientUnits="userSpaceOnUse"
       gradientTransform="matrix(0.4285714,0,0,0.4285712,1.7147125,3.0995762)" />
    <linearGradient
       x1="14.9966"
       y1="11.1885"
       x2="32.511002"
       y2="34.307499"
       id="aigrd1"
       gradientUnits="userSpaceOnUse">
      <stop
         id="stop3034"
         style="stop-color:#ebebeb;stop-opacity:1"
         offset="0" />
      <stop
         id="stop3036"
         style="stop-color:white;stop-opacity:1"
         offset="0.5" />
      <stop
         id="stop3038"
         style="stop-color:#ebebeb;stop-opacity:1"
         offset="1" />
    </linearGradient>
    <linearGradient
       x1="14.9966"
       y1="11.1885"
       x2="32.511002"
       y2="34.307499"
       id="linearGradient3333"
       xlink:href="#aigrd1"
       gradientUnits="userSpaceOnUse"
       gradientTransform="matrix(0.3999892,0,0,0.3999891,2.397699,3.7628089)" />
  </defs>
  <g
     id="layer1">
    <g
       transform="translate(-4.0004258,-4.9995745)"
       id="g3325"
       style="display:inline">
      <path
         d="m 11.997441,6.0027482 c -3.8798961,0 -6.9998116,3.1199161 -6.9998116,6.9998118 0,3.879895 3.1199155,6.99981 6.9998116,6.99981 3.879895,0 6.999809,-3.119915 6.999809,-6.99981 0,-3.8798957 -3.119914,-6.9998118 -6.999809,-6.9998118 l 0,0 z m 0,8.6797658 c -0.919976,0 -1.679956,-0.759979 -1.679956,-1.679954 0,-0.919976 0.75998,-1.679956 1.679956,-1.679956 0.919976,0 1.679955,0.75998 1.679955,1.679956 0,0.919975 -0.759979,1.679954 -1.679955,1.679954 z"
         id="path3040"
         style="fill:url(#linearGradient3333);fill-rule:nonzero;stroke:none" />
      <path
         d="m 12.000426,5.4995761 c -4.1571429,0 -7.4999993,3.342857 -7.4999993,7.4999989 0,4.157142 3.3428564,7.499998 7.4999993,7.499998 4.157142,0 7.499999,-3.342856 7.499999,-7.499998 0,-4.1571419 -3.342857,-7.4999989 -7.499999,-7.4999989 l 0,0 z m 0,9.2999999 c -0.985715,0 -1.8,-0.814286 -1.8,-1.800001 0,-0.985714 0.814285,-1.8 1.8,-1.8 0.985714,0 1.799998,0.814286 1.799998,1.8 0,0.985715 -0.814284,1.800001 -1.799998,1.800001 z"
         id="path3049"
         style="fill:url(#linearGradient3335);fill-rule:nonzero;stroke:gray;stroke-width:1.00000024;stroke-miterlimit:4;stroke-opacity:1" />
      <path
         d="M 11.696924,6.1373771 C 8.0554094,6.274728 5.1663681,9.2563239 5.1663681,12.932825 c 0,1.666681 0.5911872,3.181558 1.5791522,4.360497 L 10.363842,14.22392 c -0.244085,-0.285366 -0.3837449,-0.806194 -0.3837449,-1.206501 0,-1.147232 0.9232589,-2.084832 2.0274149,-2.084832 0.502128,0 1.235014,0.285291 1.535283,0.648324 L 17.188301,8.5825157 C 15.944702,7.0854804 14.060243,6.1373771 11.951627,6.1373771 c -0.08824,0 -0.167306,-0.0033 -0.254703,0 z"
         id="path3531"
         style="fill:url(#linearGradient3337);fill-opacity:1;fill-rule:nonzero;stroke:none" />
      <path
         d="m 12.00064,9.084399 c -2.1862784,0 -3.9149638,1.779529 -3.9149638,3.914962 0,2.186278 1.7795295,3.914964 3.9149638,3.914964 2.186274,0 3.914962,-1.779529 3.914962,-3.914964 0,-2.186277 -1.779531,-3.914962 -3.914962,-3.914962 l 0,0 z m 0,6.050397 c -1.169405,0 -2.1354343,-0.966031 -2.1354343,-2.135435 0,-1.169403 0.9660293,-2.135433 2.1354343,-2.135433 1.169401,0 2.135431,0.96603 2.135431,2.135433 0,1.169404 -0.96603,2.135435 -2.135431,2.135435 z"
         id="path3051"
         style="opacity:0.51098902;fill:#eeeeec;fill-rule:nonzero;stroke:none" />
      <path
         d="m 12.000453,6.4995459 c -3.6028529,0 -6.4999954,2.8971428 -6.4999954,6.5000001 0,3.602856 2.8971425,6.499997 6.4999954,6.499997 3.602859,0 6.500002,-2.897141 6.500002,-6.499997 0,-3.6028573 -2.897143,-6.5000001 -6.500002,-6.5000001 l 0,0 z"
         id="path5264"
         style="opacity:0.54644811;fill:none;stroke:url(#linearGradient3339);stroke-width:1.00000024;stroke-miterlimit:4;stroke-opacity:1" />
      <path
         d="m 30.405591,24.930641 c 0,3.368272 -2.730524,6.098796 -6.098796,6.098796 -3.368272,0 -6.098796,-2.730524 -6.098796,-6.098796 0,-3.368272 2.730524,-6.098796 6.098796,-6.098796 3.368272,0 6.098796,2.730524 6.098796,6.098796 z"
         transform="matrix(0.4060353,0,0,0.4060353,2.1478352,2.8832018)"
         id="path6026"
         style="opacity:0.67213111;fill:none;stroke:url(#linearGradient3341);stroke-width:2.29176831;stroke-linecap:butt;stroke-linejoin:miter;stroke-miterlimit:4;stroke-opacity:1;stroke-dashoffset:0;marker:none;visibility:visible;display:inline;overflow:visible" />
    </g>
  </g>
</svg>
