<svg xmlns="http://www.w3.org/2000/svg" width="48" height="48"><path d="M10 14c-1.108 0-2 .892-2 2v16c0 1.108.892 2 2 2h24c1.108 0 2-.892 2-2v-4h2c1.108 0 2-.892 2-2v-4c0-1.108-.892-2-2-2h-2v-4c0-1.108-.892-2-2-2H10zm1 2h22c.554 0 1 .446 1 1v14c0 .554-.446 1-1 1H11c-.554 0-1-.446-1-1V17c0-.554.446-1 1-1zm1.5 2a.5.5 0 0 0-.5.5v11a.5.5 0 0 0 .5.5h9a.5.5 0 0 0 .5-.5v-11a.5.5 0 0 0-.5-.5h-9zM36 22h1c.554 0 1 .446 1 1v2c0 .554-.446 1-1 1h-1v-4z" style="isolation:auto;mix-blend-mode:normal;filter-blend-mode:normal;filter-gaussianBlur-deviation:0" color="#bebebe" fill="#bebebe" overflow="visible"/></svg>