<svg xmlns="http://www.w3.org/2000/svg" xmlns:xlink="http://www.w3.org/1999/xlink" version="1" width="48" height="48"><defs><linearGradient id="i"><stop offset="0"/><stop offset="1" stop-opacity="0"/></linearGradient><linearGradient id="h"><stop offset="0" stop-color="#fff"/><stop offset=".256" stop-color="#fff" stop-opacity=".235"/><stop offset=".909" stop-color="#fff" stop-opacity=".157"/><stop offset="1" stop-color="#fff" stop-opacity=".392"/></linearGradient><linearGradient id="e"><stop offset="0" stop-color="#fff"/><stop offset="1" stop-color="#fff" stop-opacity="0"/></linearGradient><linearGradient id="d"><stop offset="0" stop-color="#9d9d9d"/><stop offset="1" stop-color="#fff"/></linearGradient><linearGradient id="b"><stop offset="0" stop-color="#fff"/><stop offset=".028" stop-color="#fff" stop-opacity=".235"/><stop offset=".972" stop-color="#fff" stop-opacity=".157"/><stop offset="1" stop-color="#fff" stop-opacity=".392"/></linearGradient><linearGradient x1="-5.001" y1="35" x2="46.68" y2="35" id="l" xlink:href="#a" gradientUnits="userSpaceOnUse" gradientTransform="matrix(.92593 0 0 .63158 1.778 16.395)"/><linearGradient id="g"><stop offset="0" stop-color="#fff"/><stop offset="1" stop-color="#fff" stop-opacity="0"/></linearGradient><linearGradient x1="30" y1="7" x2="30" y2="43" id="o" xlink:href="#b" gradientUnits="userSpaceOnUse"/><linearGradient x1="-20.447" y1="-93.092" x2="-48.479" y2="-93.092" id="n" xlink:href="#c" gradientUnits="userSpaceOnUse" gradientTransform="matrix(.17836 0 0 .15586 28.647 19.51)" spreadMethod="reflect"/><linearGradient id="c"><stop offset="0" stop-color="#b4b4b4"/><stop offset="1" stop-color="#fff"/></linearGradient><linearGradient x1="-17.121" y1="-93.092" x2="-45.762" y2="-93.092" id="m" xlink:href="#d" gradientUnits="userSpaceOnUse" gradientTransform="matrix(.61425 0 0 .15586 40.072 19.732)" spreadMethod="reflect"/><radialGradient cx="16.5" cy="7.5" r="3.5" fx="16.5" fy="7.5" id="r" xlink:href="#e" gradientUnits="userSpaceOnUse" gradientTransform="matrix(1 0 0 .42857 0 4.286)"/><linearGradient id="f"><stop offset="0" stop-color="#3d3d3d"/><stop offset=".5" stop-color="#686868" stop-opacity=".498"/><stop offset="1" stop-color="#686868" stop-opacity="0"/></linearGradient><radialGradient cx="99.157" cy="186.171" r="62.769" fx="99.157" fy="186.171" id="k" xlink:href="#f" gradientUnits="userSpaceOnUse" gradientTransform="matrix(.255 0 0 .0717 -1.275 29.153)"/><linearGradient x1="13.682" y1="17.458" x2="17.773" y2="35.717" id="p" xlink:href="#g" gradientUnits="userSpaceOnUse" gradientTransform="matrix(1.46667 0 0 2.08116 -6.067 -30.334)"/><linearGradient x1="25.273" y1="17.458" x2="27.318" y2="35.717" id="q" xlink:href="#g" gradientUnits="userSpaceOnUse" gradientTransform="matrix(1.46667 0 0 2.08116 -6.067 -30.334)"/><linearGradient id="a"><stop offset="0" stop-color="#fff3cb"/><stop offset=".262" stop-color="#fdde76"/><stop offset=".661" stop-color="#f9c440"/><stop offset="1" stop-color="#e48b20"/></linearGradient><linearGradient x1="30" y1="32.586" x2="30" y2="43" id="s" xlink:href="#h" gradientUnits="userSpaceOnUse" gradientTransform="matrix(1 0 0 .83333 0 7.25)"/><linearGradient x1="12.029" y1="25" x2="36.609" y2="25" id="j" xlink:href="#i" gradientUnits="userSpaceOnUse" gradientTransform="translate(-48)"/></defs><rect width="25" height="39" rx="13.5" ry="1.5" x="-36.5" y="5.5" transform="scale(-1 1)" opacity=".1" color="#000" fill="url(#j)" display="block" overflow="visible"/><path d="M40 42.5a16 4.5 0 0 1-32 0 16 4.5 0 1 1 32 0z" fill="url(#k)"/><rect width="25" height="12" rx="13.5" ry="1.5" x="11.5" y="32.5" color="#000" fill="url(#l)" overflow="visible"/><path d="M36.5 34c0-.83-5.575-1.5-12.5-1.5s-12.5.67-12.5 1.5" opacity=".5" color="#000" fill="none" stroke="#7d3400" stroke-linejoin="round" overflow="visible"/><path d="M24 5.5c-6.925 0-12.5.67-12.5 1.5v2c0-.83 5.575-1.5 12.5-1.5s12.5.67 12.5 1.5V7c0-.83-5.575-1.5-12.5-1.5z" color="#000" fill="url(#m)" overflow="visible"/><path d="M11.5 9c0-.83 5.575-1.5 12.5-1.5s12.5.67 12.5 1.5" opacity=".3" color="#000" fill="none" stroke="#000" stroke-miterlimit="7" display="block" overflow="visible"/><path d="M27.5 5.563v-1.22c0-.468-1.56-.843-3.5-.843s-3.5.375-3.5.844v1.218" color="#000" fill="url(#n)" overflow="visible"/><path d="M27.5 5.563v-1.22c0-.468-1.56-.843-3.5-.843s-3.5.375-3.5.844v1.218" opacity=".3" color="#000" fill="none" stroke="#000" stroke-miterlimit="7" display="block" overflow="visible"/><path d="M24 6.5c-3.71 0-7.053.173-9.438.438-1.192.132-2.155.28-2.75.437a2.78 2.78 0 0 0-.312.094v35.06c.1.033.15.05.313.09.594.157 1.557.305 2.75.44 2.384.263 5.727.436 9.437.436 3.71 0 7.053-.174 9.438-.44 1.192-.13 2.155-.28 2.75-.436.163-.042.213-.056.312-.093V7.47a2.78 2.78 0 0 0-.313-.095c-.594-.157-1.557-.305-2.75-.438C31.053 6.673 27.71 6.5 24 6.5z" transform="matrix(.92 0 0 1 1.92 0)" opacity=".8" color="#000" fill="none" stroke="url(#o)" stroke-width="1.043" stroke-miterlimit="7" display="block" overflow="visible"/><rect width="25" height="39" rx="13.5" ry="1.5" x="11.5" y="5.5" opacity=".3" color="#000" fill="none" stroke="#000" stroke-miterlimit="7" display="block" overflow="visible"/><path d="M20 5.594c-3.213.12-4.507.36-6 .718v37.376c1.493.358 2.787.597 6 .718z" opacity=".3" fill="url(#p)" overflow="visible"/><path d="M31 5.875v38.25c1.137-.124 2.304-.27 3-.438V6.313c-.696-.168-1.863-.314-3-.438z" opacity=".1" fill="url(#q)" overflow="visible"/><path d="M20 7.5a3.5 1.5 0 1 1-7 0 3.5 1.5 0 1 1 7 0z" transform="matrix(.90866 0 0 2.06566 1.507 -8.738)" opacity=".2" color="#000" fill="url(#r)" overflow="visible"/><path d="M24 33.5c-3.43 0-6.52.145-8.72.365-1.098.11-1.993.237-2.53.364-.142.03-.164.05-.25.072v8.386c.086.03.108.044.25.08.537.126 1.432.253 2.53.363 2.2.22 5.29.366 8.72.366 3.43 0 6.52-.147 8.72-.367 1.098-.11 1.993-.237 2.53-.364.142-.033.164-.05.25-.077v-8.387c-.086-.028-.108-.044-.25-.078-.537-.13-1.432-.256-2.53-.366-2.2-.22-5.29-.366-8.72-.366z" opacity=".5" color="#000" fill="none" stroke="url(#s)" stroke-miterlimit="7" display="block" overflow="visible"/><path d="M35.97 35.936C34.42 36.553 29.66 37 24 37c-5.643 0-10.39-.444-11.953-1.058" opacity=".4" color="#000" fill="none" stroke="#fff" stroke-miterlimit="7" display="block" overflow="visible"/><path d="M36.5 34.5c0 .83-5.575 1.5-12.5 1.5s-12.5-.67-12.5-1.5" opacity=".15" color="#000" fill="none" stroke="#7d3400" stroke-linejoin="round" overflow="visible"/><path d="M35.97 33.936C34.42 34.553 29.66 35 24 35c-5.643 0-10.39-.444-11.953-1.058" opacity=".2" color="#000" fill="none" stroke="#fff" stroke-miterlimit="7" display="block" overflow="visible"/><g opacity=".4"><path d="M28.77 16l-4.527 8H31l-9.788 14 2.714-11H17l3.706-11h8.063z" fill="#fff"/><path d="M28.77 15l-4.527 8H31l-9.788 14 2.714-11H17l3.706-11h8.063z" color="#000" overflow="visible"/></g></svg>