<?xml version="1.0" encoding="UTF-8" standalone="no"?>
<svg
   xmlns:dc="http://purl.org/dc/elements/1.1/"
   xmlns:cc="http://creativecommons.org/ns#"
   xmlns:rdf="http://www.w3.org/1999/02/22-rdf-syntax-ns#"
   xmlns:svg="http://www.w3.org/2000/svg"
   xmlns="http://www.w3.org/2000/svg"
   xmlns:xlink="http://www.w3.org/1999/xlink"
   id="svg2485"
   height="48"
   width="48"
   version="1.0">
  <metadata
     id="metadata71">
    <rdf:RDF>
      <cc:Work
         rdf:about="">
        <dc:format>image/svg+xml</dc:format>
        <dc:type
           rdf:resource="http://purl.org/dc/dcmitype/StillImage" />
        <dc:title />
      </cc:Work>
    </rdf:RDF>
  </metadata>
  <defs
     id="defs2487">
    <linearGradient
       id="linearGradient5126">
      <stop
         offset="0"
         style="stop-color:#ffffff;stop-opacity:1"
         id="stop5128" />
      <stop
         offset="1"
         style="stop-color:#ffffff;stop-opacity:0"
         id="stop5130" />
    </linearGradient>
    <linearGradient
       id="linearGradient5118">
      <stop
         offset="0"
         style="stop-color:#9d9d9d;stop-opacity:1"
         id="stop5120" />
      <stop
         offset="1"
         style="stop-color:#ffffff;stop-opacity:1"
         id="stop5122" />
    </linearGradient>
    <linearGradient
       id="linearGradient4762">
      <stop
         offset="0"
         style="stop-color:#ffffff;stop-opacity:1"
         id="stop4764" />
      <stop
         offset="0.02777778"
         style="stop-color:#ffffff;stop-opacity:0.23529412"
         id="stop4766" />
      <stop
         offset="0.97222221"
         style="stop-color:#ffffff;stop-opacity:0.15686275"
         id="stop4768" />
      <stop
         offset="1"
         style="stop-color:#ffffff;stop-opacity:0.39215687"
         id="stop4770" />
    </linearGradient>
    <linearGradient
       id="linearGradient3254-3-182-8-5">
      <stop
         offset="0"
         style="stop-color:#ffffff;stop-opacity:1"
         id="stop4663-8-7" />
      <stop
         offset="1"
         style="stop-color:#ffffff;stop-opacity:0"
         id="stop4665-7-6" />
    </linearGradient>
    <linearGradient
       gradientUnits="userSpaceOnUse"
       xlink:href="#linearGradient4762"
       id="linearGradient4760"
       y2="43"
       x2="30"
       y1="7"
       x1="30" />
    <linearGradient
       spreadMethod="reflect"
       gradientTransform="matrix(0.1783638,0,0,0.1558618,28.646957,19.509417)"
       gradientUnits="userSpaceOnUse"
       xlink:href="#linearGradient2793-2-0-669-94-2"
       id="linearGradient3457-7-6"
       y2="-93.091553"
       x2="-48.479328"
       y1="-93.091553"
       x1="-20.446733" />
    <linearGradient
       id="linearGradient2793-2-0-669-94-2">
      <stop
         offset="0"
         style="stop-color:#b4b4b4;stop-opacity:1"
         id="stop4681-3-1" />
      <stop
         offset="1"
         style="stop-color:#ffffff;stop-opacity:1"
         id="stop4683-67-4" />
    </linearGradient>
    <linearGradient
       spreadMethod="reflect"
       gradientTransform="matrix(0.61425314,0,0,0.1558618,40.07214,19.732487)"
       gradientUnits="userSpaceOnUse"
       xlink:href="#linearGradient5118"
       id="linearGradient5066-8"
       y2="-93.091553"
       x2="-45.761551"
       y1="-93.091553"
       x1="-17.12093" />
    <radialGradient
       gradientTransform="matrix(1,0,0,0.42857143,0,4.2857143)"
       gradientUnits="userSpaceOnUse"
       xlink:href="#linearGradient5126"
       id="radialGradient5132"
       fy="7.5"
       fx="16.5"
       r="3.5"
       cy="7.5"
       cx="16.5" />
    <linearGradient
       id="linearGradient3820-7-2-1-2-6">
      <stop
         offset="0"
         style="stop-color:#3d3d3d;stop-opacity:1"
         id="stop3822-2-6-3-3-7" />
      <stop
         offset="0.5"
         style="stop-color:#686868;stop-opacity:0.49803922"
         id="stop3864-8-7-7-9-1" />
      <stop
         offset="1"
         style="stop-color:#686868;stop-opacity:0"
         id="stop3824-1-2-5-0-3" />
    </linearGradient>
    <radialGradient
       gradientTransform="matrix(0.2549024,0,0,0.07169133,-1.275361,29.153187)"
       gradientUnits="userSpaceOnUse"
       xlink:href="#linearGradient3820-7-2-1-2-6"
       id="radialGradient5362"
       fy="186.17059"
       fx="99.157013"
       r="62.769119"
       cy="186.17059"
       cx="99.157013" />
    <linearGradient
       gradientTransform="matrix(1.4666658,0,0,2.0811612,-6.0666553,-30.333874)"
       gradientUnits="userSpaceOnUse"
       xlink:href="#linearGradient3254-3-182-8-5"
       id="linearGradient5508"
       y2="35.717499"
       x2="17.77273"
       y1="17.458462"
       x1="13.681819" />
    <linearGradient
       gradientTransform="matrix(1.4666658,0,0,2.0811612,-6.0666553,-30.333874)"
       gradientUnits="userSpaceOnUse"
       xlink:href="#linearGradient3254-3-182-8-5"
       id="linearGradient5510"
       y2="35.717499"
       x2="27.31819"
       y1="17.458462"
       x1="25.272734" />
    <linearGradient
       id="linearGradient8838">
      <stop
         offset="0"
         style="stop-color:#000000;stop-opacity:1"
         id="stop8840" />
      <stop
         offset="1"
         style="stop-color:#000000;stop-opacity:0"
         id="stop8842" />
    </linearGradient>
    <linearGradient
       id="linearGradient3846-7">
      <stop
         offset="0"
         style="stop-color:#fff3cb;stop-opacity:1"
         id="stop3848-7" />
      <stop
         offset="0.26238"
         style="stop-color:#fdde76;stop-opacity:1"
         id="stop3850-5" />
      <stop
         offset="0.66093999"
         style="stop-color:#f9c440;stop-opacity:1"
         id="stop3852-9" />
      <stop
         offset="1"
         style="stop-color:#e48b20;stop-opacity:1"
         id="stop3854-2" />
    </linearGradient>
    <linearGradient
       id="linearGradient3117-8">
      <stop
         offset="0"
         style="stop-color:#ffffff;stop-opacity:1"
         id="stop3119-9" />
      <stop
         offset="0.56911701"
         style="stop-color:#ffffff;stop-opacity:0.23529412"
         id="stop3121-9" />
      <stop
         offset="0.93297637"
         style="stop-color:#ffffff;stop-opacity:0.15686275"
         id="stop3123-6" />
      <stop
         offset="1"
         style="stop-color:#ffffff;stop-opacity:0.39215687"
         id="stop3125-3" />
    </linearGradient>
    <linearGradient
       id="linearGradient3856-1-6">
      <stop
         offset="0"
         style="stop-color:#634215;stop-opacity:1"
         id="stop3858-0-6" />
      <stop
         offset="1"
         style="stop-color:#93700d;stop-opacity:1"
         id="stop3860-2-8" />
    </linearGradient>
    <linearGradient
       gradientTransform="matrix(0.48890916,0,0,0.48839827,0.26618161,0.74232159)"
       gradientUnits="userSpaceOnUse"
       xlink:href="#linearGradient3846-7"
       id="linearGradient3291"
       y2="54.669891"
       x2="24"
       y1="-14.603537"
       x1="24" />
    <linearGradient
       gradientTransform="matrix(0.49373581,0,-0.00214922,0.51518426,-2.3383831,-7.425973)"
       gradientUnits="userSpaceOnUse"
       xlink:href="#linearGradient3117-8"
       id="linearGradient3293"
       y2="57.567127"
       x2="29.291178"
       y1="19.787613"
       x1="29.126724" />
    <linearGradient
       spreadMethod="reflect"
       gradientTransform="matrix(0.1783638,0,0,0.1558618,28.646957,19.509417)"
       gradientUnits="userSpaceOnUse"
       xlink:href="#linearGradient2793-2-0-669-94-2-3"
       id="linearGradient3457-7-6-1"
       y2="127.33473"
       x2="-19.598513"
       y1="161.18126"
       x1="-19.598513" />
    <linearGradient
       id="linearGradient2793-2-0-669-94-2-3">
      <stop
         offset="0"
         style="stop-color:#a4a4a4;stop-opacity:1"
         id="stop4681-3-1-7" />
      <stop
         offset="1"
         style="stop-color:#e2e2e2;stop-opacity:1"
         id="stop4683-67-4-6" />
    </linearGradient>
    <linearGradient
       id="linearGradient3821">
      <stop
         id="stop3823"
         offset="0"
         style="stop-color:#000000;stop-opacity:1;" />
      <stop
         id="stop3825"
         offset="1"
         style="stop-color:#000000;stop-opacity:0;" />
    </linearGradient>
    <linearGradient
       xlink:href="#linearGradient3821"
       id="linearGradient3975"
       gradientUnits="userSpaceOnUse"
       gradientTransform="translate(-48,0)"
       x1="12.029413"
       y1="25"
       x2="36.608757"
       y2="25" />
    <linearGradient
       gradientUnits="userSpaceOnUse"
       y2="6"
       x2="12"
       y1="21"
       x1="12"
       id="linearGradient4204"
       xlink:href="#linearGradient3856-1-6" />
    <radialGradient
       gradientTransform="matrix(1.1294118,0,0,0.12941156,-58.729414,22.026471)"
       gradientUnits="userSpaceOnUse"
       xlink:href="#linearGradient8838"
       id="radialGradient2415-0"
       fy="4.625"
       fx="62.625"
       r="10.625"
       cy="4.625"
       cx="62.625" />
  </defs>
  <rect
     transform="scale(-1,1)"
     style="opacity:0.1;color:#000000;fill:url(#linearGradient3975);fill-opacity:1;stroke:none;stroke-width:1;marker:none;visibility:visible;display:block;overflow:visible;enable-background:accumulate"
     id="rect3268-4"
     y="5.5"
     x="-36.5"
     ry="1.5"
     rx="13.5"
     height="39"
     width="25" />
  <path
     style="fill:url(#radialGradient5362);fill-opacity:1;stroke:none"
     id="path3818-0-5"
     d="M 40,42.5 A 16,4.5 0 0 1 7.9999998,42.5 16,4.5 0 1 1 40,42.5 z" />
  <rect
     style="color:#000000;fill:url(#linearGradient3457-7-6-1);fill-opacity:1;fill-rule:nonzero;stroke:none;stroke-width:1;marker:none;visibility:visible;display:inline;overflow:visible;enable-background:accumulate"
     id="rect3268-0-1"
     y="39.5"
     x="11.5"
     ry="1.5000002"
     rx="13.5"
     height="5"
     width="25" />
  <path
     style="color:#000000;fill:url(#linearGradient5066-8);fill-opacity:1;fill-rule:nonzero;stroke:none;stroke-width:1;marker:none;visibility:visible;display:inline;overflow:visible;enable-background:accumulate"
     id="rect3268-6-4"
     d="M 24,5.5 C 17.075,5.5 11.5,6.169 11.5,7 l 0,2 c 0,-0.831 5.575,-1.5 12.5,-1.5 6.925,0 12.5,0.669 12.5,1.5 l 0,-2 C 36.5,6.169 30.925,5.5 24,5.5 z" />
  <path
     style="opacity:0.3;color:#000000;fill:none;stroke:#000000;stroke-width:1;stroke-linecap:butt;stroke-linejoin:miter;stroke-miterlimit:7;stroke-opacity:1;stroke-dasharray:none;stroke-dashoffset:0;marker:none;visibility:visible;display:block;overflow:visible;enable-background:accumulate"
     id="rect3268-6"
     d="M 11.5,9 C 11.5,8.169 17.075,7.5 24,7.5 30.925,7.5 36.5,8.169 36.5,9" />
  <path
     style="color:#000000;fill:url(#linearGradient3457-7-6);fill-opacity:1;fill-rule:nonzero;stroke:none;stroke-width:1;marker:none;visibility:visible;display:inline;overflow:visible;enable-background:accumulate"
     id="rect3268-3-9"
     d="m 27.5,5.5625 0,-1.21875 C 27.5,3.8749017 25.939,3.5 24,3.5 c -1.939,0 -3.5,0.3749017 -3.5,0.84375 l 0,1.21875" />
  <path
     style="opacity:0.3;color:#000000;fill:none;stroke:#000000;stroke-width:0.99999994;stroke-linecap:butt;stroke-linejoin:miter;stroke-miterlimit:7;stroke-opacity:1;stroke-dasharray:none;stroke-dashoffset:0;marker:none;visibility:visible;display:block;overflow:visible;enable-background:accumulate"
     id="rect3268-3"
     d="m 27.5,5.5625 0,-1.21875 C 27.5,3.8749017 25.939,3.5 24,3.5 c -1.939,0 -3.5,0.3749017 -3.5,0.84375 l 0,1.21875" />
  <path
     style="opacity:0.8;color:#000000;fill:none;stroke:url(#linearGradient4760);stroke-width:1.04257202;stroke-linecap:butt;stroke-linejoin:miter;stroke-miterlimit:7;stroke-opacity:1;stroke-dasharray:none;stroke-dashoffset:0;marker:none;visibility:visible;display:block;overflow:visible;enable-background:accumulate"
     id="path4752"
     transform="matrix(0.92,0,0,1,1.92,0)"
     d="m 24,6.5 c -3.709888,0 -7.052717,0.1725241 -9.4375,0.4375 -1.192392,0.132488 -2.155165,0.2807189 -2.75,0.4375 C 11.64892,7.418115 11.599316,7.431865 11.5,7.46875 l 0,35.0625 c 0.09932,0.03688 0.14892,0.05063 0.3125,0.09375 0.594835,0.156781 1.557608,0.305012 2.75,0.4375 C 16.947283,43.327476 20.290112,43.5 24,43.5 c 3.709888,0 7.052717,-0.172524 9.4375,-0.4375 1.192392,-0.132488 2.155165,-0.280719 2.75,-0.4375 0.16358,-0.04312 0.213184,-0.05687 0.3125,-0.09375 l 0,-35.0625 C 36.400684,7.4318648 36.35108,7.4181148 36.1875,7.375 35.592665,7.2182189 34.629892,7.069988 33.4375,6.9375 31.052717,6.6725241 27.709888,6.5 24,6.5 z" />
  <path
     style="opacity:0.3;color:#000000;fill:none;stroke:#000000;stroke-width:1;stroke-linecap:butt;stroke-linejoin:miter;stroke-miterlimit:7;stroke-opacity:1;stroke-dashoffset:0;marker:none;visibility:visible;display:block;overflow:visible;enable-background:accumulate"
     id="rect3268"
     d="m 24,5.5 c 6.925,0 12.5,0.669 12.5,1.5 l 0,36 c 0,0.831 -5.575,1.5 -12.5,1.5 -6.925,0 -12.5,-0.669 -12.5,-1.5 l 0,-36 C 11.5,6.169 17.075,5.5 24,5.5 z M 36.5,41 c 0,-0.831 -5.575,-1.5 -12.5,-1.5 -6.925,0 -12.5,0.669 -12.5,1.5" />
  <path
     style="opacity:0.3;fill:url(#linearGradient5508);fill-opacity:1;fill-rule:nonzero;stroke:none;stroke-width:1;marker:none;visibility:visible;display:inline;overflow:visible"
     id="path5194"
     d="M 20,5.59375 C 16.787316,5.7149057 15.492733,5.9541603 14,6.3125 l 0,37.375 c 1.492733,0.35834 2.787316,0.597594 6,0.71875 z" />
  <path
     style="opacity:0.1;fill:url(#linearGradient5510);fill-opacity:1;fill-rule:nonzero;stroke:none;stroke-width:1;marker:none;visibility:visible;display:inline;overflow:visible"
     id="rect3244"
     d="m 31,5.875 0,38.25 c 1.136673,-0.123654 2.304289,-0.27049 3,-0.4375 L 34,6.3125 C 33.304289,6.1454904 32.136673,5.9986542 31,5.875 z" />
  <path
     style="opacity:0.2;color:#000000;fill:url(#radialGradient5132);fill-opacity:1;fill-rule:nonzero;stroke:none;stroke-width:1;marker:none;visibility:visible;display:inline;overflow:visible;enable-background:accumulate"
     id="path5124"
     transform="matrix(0.90865815,0,0,2.0656555,1.5071413,-8.7383745)"
     d="m 20,7.5 a 3.5,1.5 0 1 1 -7,0 3.5,1.5 0 1 1 7,0 z" />
  <path
     style="opacity:0.2;color:#000000;fill:none;stroke:#ffffff;stroke-width:0.99999994;stroke-linecap:butt;stroke-linejoin:miter;stroke-miterlimit:7;stroke-opacity:1;stroke-dasharray:none;stroke-dashoffset:0;marker:none;visibility:visible;display:block;overflow:visible;enable-background:accumulate"
     id="rect3268-0-7"
     d="M 35.969003,41.564 C 34.420917,40.946725 29.661637,40.499557 24,40.499557 c -5.64267,0 -10.38902,0.444177 -11.953337,1.058245" />
  <g
     id="g4168"
     transform="translate(24,24)">
    <path
       d="M 24,22.625 C 24,23.384391 18.627417,24 12,24 5.3725828,24 -2.5e-7,23.384391 -2.5e-7,22.625 -2.5e-7,21.865609 5.3725828,21.25 12,21.25 c 6.627417,0 12,0.615609 12,1.375 z"
       id="path8836"
       style="display:inline;overflow:visible;visibility:visible;opacity:0.3;fill:url(#radialGradient2415-0);fill-opacity:1;fill-rule:evenodd;stroke:none;stroke-width:0.99999988;marker:none" />
    <path
       d="M 22.843441,20.277765 13.294944,2.2776819 C 13.020489,1.7776818 12.523879,1.4999018 11.970799,1.4999018 c -0.553075,0 -1.052235,0.33333 -1.330855,0.8333351 L 1.1625466,20.333325 c -0.22308499,0.444445 -0.22563499,1.05556 0.04905,1.500005 0.27468,0.44445 0.716215,0.66667 1.269296,0.66667 l 19.0258884,0 c 0.55308,0 1.052005,-0.27778 1.275095,-0.722225 0.278385,-0.444445 0.280705,-1.000005 0.06156,-1.50001 z"
       id="path11155-5"
       style="fill:url(#linearGradient3291);fill-opacity:1;fill-rule:nonzero;stroke:none" />
    <path
       d="M 21.554469,19.506436 13.009293,3.9158521 c -0.363933,-0.6933859 -0.494462,-1.415852 -1.047538,-1.415852 -0.475681,0 -0.724576,0.8239925 -1.068333,1.4784949 l -8.4503241,15.57762 c -0.490695,0.902951 -0.543267,1.138323 -0.307081,1.535746 0.236181,0.397428 0.539433,0.375782 1.659914,0.401703 l 16.6086101,0 c 1.043148,0.01297 1.278124,-0.06692 1.470057,-0.464346 0.2395,-0.397427 0.137629,-0.712731 -0.320129,-1.522782 z"
       id="path11159-4"
       style="opacity:0.6;fill:none;stroke:url(#linearGradient3293);stroke-width:1;stroke-miterlimit:4;stroke-dasharray:none;stroke-opacity:1" />
    <path
       d="M 22.843441,20.277775 13.294944,2.2777769 C 13.020489,1.7777792 12.523879,1.5000004 11.970799,1.5000004 c -0.553075,0 -1.052235,0.3333285 -1.330855,0.8333312 L 1.1625466,20.333335 C 0.93946161,20.777778 0.93691161,21.38889 1.2115966,21.833333 1.4862766,22.277781 1.9278116,22.5 2.4808916,22.5 l 19.0258894,0 c 0.55308,0 1.052005,-0.277779 1.275095,-0.722222 0.278385,-0.444443 0.280705,-1 0.06156,-1.500003 z"
       id="path11155-8"
       style="opacity:0.4;fill:none;stroke:#311d00;stroke-width:0.99999982;stroke-miterlimit:4;stroke-dasharray:none;stroke-opacity:1" />
    <path
       id="path4164"
       d="m 11,8 c 0,0 -0.01983,3.675205 0.110485,5.505859 C 11.194029,14.679467 11.5,17 11.5,17 l 1,0 c 0,0 0.339116,-2.320533 0.42266,-3.494141 C 13.052977,11.675205 13,8 13,8 Z m 1,11 c -0.552285,0 -1,0.447715 -1,1 0,0.552285 0.447715,1 1,1 0.552285,0 1,-0.447715 1,-1 0,-0.552285 -0.447715,-1 -1,-1 z"
       style="opacity:0.3;fill:#ffffff;fill-opacity:1;stroke:none;stroke-width:1;stroke-linejoin:round;stroke-miterlimit:4;stroke-dasharray:none;stroke-opacity:0.49803922" />
    <path
       style="opacity:1;fill:url(#linearGradient4204);fill-opacity:1;stroke:none;stroke-width:1;stroke-linejoin:round;stroke-miterlimit:4;stroke-dasharray:none;stroke-opacity:0.49803922"
       d="m 11,7 c 0,0 -0.01983,3.675205 0.110485,5.505859 C 11.194029,13.679467 11.5,16 11.5,16 l 1,0 c 0,0 0.339116,-2.320533 0.42266,-3.494141 C 13.052977,10.675205 13,7 13,7 Z m 1,11 c -0.552285,0 -1,0.447715 -1,1 0,0.552285 0.447715,1 1,1 0.552285,0 1,-0.447715 1,-1 0,-0.552285 -0.447715,-1 -1,-1 z"
       id="path4159" />
  </g>
</svg>
