<?xml version="1.0" encoding="UTF-8" standalone="no"?>
<svg
   version="1.1"
   width="48"
   height="48"
   id="svg6649"
   xml:space="preserve"
   xmlns:xlink="http://www.w3.org/1999/xlink"
   xmlns="http://www.w3.org/2000/svg"
   xmlns:svg="http://www.w3.org/2000/svg"
   xmlns:rdf="http://www.w3.org/1999/02/22-rdf-syntax-ns#"
   xmlns:cc="http://creativecommons.org/ns#"
   xmlns:dc="http://purl.org/dc/elements/1.1/"><defs
     id="defs6651"><linearGradient
       id="linearGradient1201"><stop
         id="stop1193"
         style="stop-color:#ffffff;stop-opacity:1"
         offset="0" /><stop
         id="stop1195"
         style="stop-color:#ffffff;stop-opacity:0.23529412"
         offset="0.06781636" /><stop
         id="stop1197"
         style="stop-color:#ffffff;stop-opacity:0.15686275"
         offset="0.94694352" /><stop
         id="stop1199"
         style="stop-color:#ffffff;stop-opacity:0.39215687"
         offset="1" /></linearGradient><linearGradient
       id="linearGradient854"><stop
         style="stop-color:#64baff;stop-opacity:1"
         offset="0"
         id="stop850" /><stop
         style="stop-color:#3689e6;stop-opacity:1"
         offset="1"
         id="stop852" /></linearGradient><linearGradient
       id="linearGradient3688-166-749"><stop
         id="stop2883"
         style="stop-color:#181818;stop-opacity:1"
         offset="0" /><stop
         id="stop2885"
         style="stop-color:#181818;stop-opacity:0"
         offset="1" /></linearGradient><linearGradient
       id="linearGradient3702-501-757"><stop
         id="stop2895"
         style="stop-color:#181818;stop-opacity:0"
         offset="0" /><stop
         id="stop2897"
         style="stop-color:#181818;stop-opacity:1"
         offset="0.5" /><stop
         id="stop2899"
         style="stop-color:#181818;stop-opacity:0"
         offset="1" /></linearGradient><radialGradient
       cx="4.9929786"
       cy="43.5"
       r="2.5"
       fx="4.9929786"
       fy="43.5"
       id="radialGradient3013-6"
       xlink:href="#linearGradient3688-166-749"
       gradientUnits="userSpaceOnUse"
       gradientTransform="matrix(2.003784,0,0,0.89999994,29.98813,4.8500025)" /><radialGradient
       cx="4.9929786"
       cy="43.5"
       r="2.5"
       fx="4.9929786"
       fy="43.5"
       id="radialGradient3015-1"
       xlink:href="#linearGradient3688-166-749"
       gradientUnits="userSpaceOnUse"
       gradientTransform="matrix(2.003784,0,0,0.89999994,-18.01187,-83.149997)" /><linearGradient
       xlink:href="#linearGradient854"
       id="linearGradient856-2"
       x1="23.528315"
       y1="6.08318"
       x2="23.528315"
       y2="44.23307"
       gradientUnits="userSpaceOnUse" /><linearGradient
       x1="38.999996"
       y1="5.9999938"
       x2="38.999996"
       y2="41.945408"
       id="linearGradient3058-5"
       xlink:href="#linearGradient1201"
       gradientUnits="userSpaceOnUse"
       gradientTransform="translate(4e-6,1.0000062)" /><linearGradient
       xlink:href="#linearGradient3702-501-757"
       id="linearGradient1191"
       gradientUnits="userSpaceOnUse"
       x1="25.058096"
       y1="47.027729"
       x2="25.058096"
       y2="39.999443"
       gradientTransform="matrix(1.1428571,0,0,0.6428571,-3.428569,16.035716)" /></defs><metadata
     id="metadata6654"><rdf:RDF><cc:Work
         rdf:about=""><dc:format>image/svg+xml</dc:format><dc:type
           rdf:resource="http://purl.org/dc/dcmitype/StillImage" /></cc:Work></rdf:RDF></metadata><rect
     style="opacity:0.6;fill:url(#radialGradient3013-6);fill-opacity:1;stroke:none;stroke-width:0.862764"
     id="rect2801-3-7"
     y="41.75"
     x="40"
     height="4.4999995"
     width="5" /><rect
     style="opacity:0.6;fill:url(#radialGradient3015-1);fill-opacity:1;stroke:none;stroke-width:0.862764"
     id="rect3696-6-3"
     transform="scale(-1)"
     y="-46.25"
     x="-8"
     height="4.4999995"
     width="5" /><rect
     style="opacity:0.6;fill:url(#linearGradient1191);fill-opacity:1;stroke:none;stroke-width:0.862764"
     id="rect3700-4-6"
     y="41.75"
     x="8"
     height="4.5"
     width="32" /><rect
     style="color:#000000;display:inline;overflow:visible;visibility:visible;opacity:1;fill:url(#linearGradient856-2);fill-opacity:1;fill-rule:nonzero;stroke:#002e99;stroke-width:1;stroke-opacity:0.5;marker:none;enable-background:accumulate"
     id="rect5505-21-1"
     y="5.4999952"
     x="4.5000153"
     ry="4"
     rx="4"
     height="39"
     width="39" /><rect
     style="opacity:0.35;fill:none;stroke:url(#linearGradient3058-5);stroke-width:1;stroke-linecap:round;stroke-linejoin:round;stroke-miterlimit:4;stroke-dasharray:none;stroke-dashoffset:0;stroke-opacity:1"
     id="rect6741-2"
     y="6.4999952"
     x="5.5000153"
     ry="3"
     rx="3"
     height="37"
     width="37" /><path
     id="path608-9-7"
     style="opacity:0.05;fill:#002e99;fill-opacity:1;stroke-width:1"
     d="M 12,15.972656 C 11.432761,15.973012 10.973012,16.432761 10.972656,17 v 3 c 3.56e-4,0.567239 0.460105,1.026988 1.027344,1.027344 h 1.972656 v 0.945312 H 12 C 11.432761,21.973012 10.973012,22.432761 10.972656,23 v 3 c 3.56e-4,0.567239 0.460105,1.026988 1.027344,1.027344 h 3 C 15.567239,27.026988 16.026988,26.567239 16.027344,26 v -1.972656 h 0.945312 V 26 c 3.56e-4,0.567239 0.460105,1.026988 1.027344,1.027344 h 3 C 21.567239,27.026988 22.026988,26.567239 22.027344,26 V 23 C 22.026988,22.432761 21.567239,21.973012 21,21.972656 H 19.027344 V 21.027344 H 21 C 21.567239,21.026988 22.026988,20.567239 22.027344,20 V 17 C 22.026988,16.432761 21.567239,15.973012 21,15.972656 H 18 C 17.432761,15.973012 16.973012,16.432761 16.972656,17 v 1.972656 H 16.027344 V 17 C 16.026988,16.432761 15.567239,15.973012 15,15.972656 Z m 15,0 C 26.432761,15.973012 25.973012,16.432761 25.972656,17 v 3 c 3.56e-4,0.567239 0.460105,1.026988 1.027344,1.027344 h 1.972656 v 0.945312 H 27 C 26.432761,21.973012 25.973012,22.432761 25.972656,23 v 3 c 3.56e-4,0.567239 0.460105,1.026988 1.027344,1.027344 h 3 C 30.567239,27.026988 31.026988,26.567239 31.027344,26 v -1.972656 h 0.945312 V 26 c 3.56e-4,0.567239 0.460105,1.026988 1.027344,1.027344 h 3 C 36.567239,27.026988 37.026988,26.567239 37.027344,26 V 23 C 37.026988,22.432761 36.567239,21.973012 36,21.972656 H 34.027344 V 21.027344 H 36 C 36.567239,21.026988 37.026988,20.567239 37.027344,20 V 17 C 37.026988,16.432761 36.567239,15.973012 36,15.972656 H 33 C 32.432761,15.973012 31.973012,16.432761 31.972656,17 v 1.972656 H 31.027344 V 17 C 31.026988,16.432761 30.567239,15.973012 30,15.972656 Z m -12,13 C 14.432761,28.973012 13.973012,29.432761 13.972656,30 v 1.972656 H 12 C 11.432761,31.973012 10.973012,32.432761 10.972656,33 v 3 c 3.56e-4,0.567239 0.460105,1.026988 1.027344,1.027344 h 3 C 15.567239,37.026988 16.026988,36.567239 16.027344,36 V 34.027344 H 31.972656 V 36 c 3.56e-4,0.567239 0.460105,1.026988 1.027344,1.027344 h 3 C 36.567239,37.026988 37.026988,36.567239 37.027344,36 V 33 C 37.026988,32.432761 36.567239,31.973012 36,31.972656 H 34.027344 V 30 C 34.026988,29.432761 33.567239,28.973012 33,28.972656 Z" /><path
     id="path608-9"
     style="font-variation-settings:normal;opacity:0.15;vector-effect:none;fill:#002e99;fill-opacity:1;stroke-width:1;stroke-linecap:butt;stroke-linejoin:miter;stroke-miterlimit:4;stroke-dasharray:none;stroke-dashoffset:0;stroke-opacity:1;-inkscape-stroke:none;stop-color:#000000;stop-opacity:1"
     d="m 12,17 v 3 h 3 v -3 z m 3,3 v 3 h 3 v -3 z m 3,0 h 3 v -3 h -3 z m 0,3 v 3 h 3 v -3 z m -3,0 h -3 v 3 h 3 z m 12,-6 v 3 h 3 v -3 z m 3,3 v 3 h 3 v -3 z m 3,0 h 3 v -3 h -3 z m 0,3 v 3 h 3 v -3 z m -3,0 h -3 v 3 h 3 z m -15,7 v 3 h 18 v -3 z m 18,3 v 3 h 3 v -3 z m -18,0 h -3 v 3 h 3 z" /><g
     id="g2378"><path
       id="path608-3"
       style="fill:#ffffff;fill-opacity:1;stroke-width:1"
       d="m 12,16 v 3 h 3 v -3 z m 3,3 v 3 h 3 v -3 z m 3,0 h 3 v -3 h -3 z m 0,3 v 3 h 3 v -3 z m -3,0 h -3 v 3 h 3 z m 12,-6 v 3 h 3 v -3 z m 3,3 v 3 h 3 v -3 z m 3,0 h 3 v -3 h -3 z m 0,3 v 3 h 3 v -3 z m -3,0 h -3 v 3 h 3 z m -15,7 v 3 h 18 v -3 z m 18,3 v 3 h 3 v -3 z m -18,0 h -3 v 3 h 3 z" /></g></svg>
