<?xml version="1.0" encoding="UTF-8" standalone="no"?>
<!-- Created with Inkscape (http://www.inkscape.org/) -->
<svg
   xmlns:svg="http://www.w3.org/2000/svg"
   xmlns="http://www.w3.org/2000/svg"
   xmlns:xlink="http://www.w3.org/1999/xlink"
   version="1.0"
   width="48"
   height="48"
   id="svg4113">
  <defs
     id="defs4115">
    <linearGradient
       x1="12.9375"
       y1="8.4375"
       x2="15.25"
       y2="19.8125"
       id="linearGradient4111"
       xlink:href="#linearGradient6592-2-7"
       gradientUnits="userSpaceOnUse"
       gradientTransform="matrix(0.7142858,0,0,0.866666,14.856822,-1.5999986)" />
    <linearGradient
       x1="-52.54295"
       y1="35.654442"
       x2="-52.54295"
       y2="2.1922007"
       id="linearGradient4109"
       xlink:href="#linearGradient3921"
       gradientUnits="userSpaceOnUse"
       gradientTransform="matrix(0.5317657,0,0,0.5615098,53.343318,0.9313382)" />
    <linearGradient
       x1="31.84656"
       y1="31.999964"
       x2="31.84656"
       y2="0.99868447"
       id="linearGradient4107"
       xlink:href="#linearGradient3298-628-126"
       gradientUnits="userSpaceOnUse"
       gradientTransform="matrix(0.658536,0,0,0.5999992,14.219544,1.6000256)" />
    <linearGradient
       x1="24.687456"
       y1="40.812702"
       x2="24.739107"
       y2="33.999802"
       id="linearGradient4105"
       xlink:href="#linearGradient4518"
       gradientUnits="userSpaceOnUse"
       gradientTransform="matrix(0.7638902,0,0,0.6060464,13.666288,1.7430308)" />
    <linearGradient
       x1="318.42093"
       y1="93.29171"
       x2="318.42093"
       y2="78.342476"
       id="linearGradient4103"
       xlink:href="#linearGradient3636"
       gradientUnits="userSpaceOnUse"
       gradientTransform="matrix(1.0008871,0,0,0.4293034,-288.21832,-12.917541)" />
    <radialGradient
       cx="6.702713"
       cy="73.615715"
       r="7.228416"
       fx="6.702713"
       fy="73.615715"
       id="radialGradient4101"
       xlink:href="#linearGradient10691-1"
       gradientUnits="userSpaceOnUse"
       gradientTransform="matrix(1.2774741,0,0,0.2737444,23.265272,6.8693682)" />
    <linearGradient
       id="linearGradient6592-2-7">
      <stop
         id="stop6594-0-2"
         style="stop-color:#ffffff;stop-opacity:0.27450982"
         offset="0" />
      <stop
         id="stop6596-2-5"
         style="stop-color:#ffffff;stop-opacity:0"
         offset="1" />
    </linearGradient>
    <linearGradient
       x1="12.9375"
       y1="8.4375"
       x2="15.25"
       y2="19.8125"
       id="linearGradient3995"
       xlink:href="#linearGradient6592-2-7"
       gradientUnits="userSpaceOnUse"
       gradientTransform="matrix(0.7142858,0,0,0.866666,14.856822,-1.5999986)" />
    <linearGradient
       id="linearGradient3921">
      <stop
         id="stop3923"
         style="stop-color:#1d528f;stop-opacity:1"
         offset="0" />
      <stop
         id="stop3925"
         style="stop-color:#54a6ff;stop-opacity:1"
         offset="1" />
    </linearGradient>
    <linearGradient
       x1="-52.54295"
       y1="35.654442"
       x2="-52.54295"
       y2="2.1922007"
       id="linearGradient3993"
       xlink:href="#linearGradient3921"
       gradientUnits="userSpaceOnUse"
       gradientTransform="matrix(0.5317657,0,0,0.5615098,53.343318,0.9313382)" />
    <linearGradient
       id="linearGradient3298-628-126">
      <stop
         id="stop2579"
         style="stop-color:#2f537b;stop-opacity:1"
         offset="0" />
      <stop
         id="stop2581"
         style="stop-color:#76a7dd;stop-opacity:1"
         offset="1" />
    </linearGradient>
    <linearGradient
       x1="31.84656"
       y1="31.999964"
       x2="31.84656"
       y2="0.99868447"
       id="linearGradient3991"
       xlink:href="#linearGradient3298-628-126"
       gradientUnits="userSpaceOnUse"
       gradientTransform="matrix(0.658536,0,0,0.5999992,14.219544,1.6000256)" />
    <linearGradient
       id="linearGradient4518">
      <stop
         id="stop4520"
         style="stop-color:#7e7e7e;stop-opacity:0.94901961"
         offset="0" />
      <stop
         id="stop4522"
         style="stop-color:#969696;stop-opacity:1"
         offset="1" />
    </linearGradient>
    <linearGradient
       x1="24.687456"
       y1="40.812702"
       x2="24.739107"
       y2="33.999802"
       id="linearGradient3989"
       xlink:href="#linearGradient4518"
       gradientUnits="userSpaceOnUse"
       gradientTransform="matrix(0.7638902,0,0,0.6060464,13.666288,1.7430308)" />
    <linearGradient
       id="linearGradient3636">
      <stop
         id="stop3638"
         style="stop-color:#a5a6aa;stop-opacity:1"
         offset="0" />
      <stop
         id="stop3640"
         style="stop-color:#e2e2e4;stop-opacity:1"
         offset="0.34675631" />
      <stop
         id="stop3642"
         style="stop-color:#595959;stop-opacity:1"
         offset="1" />
    </linearGradient>
    <linearGradient
       x1="318.42093"
       y1="93.29171"
       x2="318.42093"
       y2="78.342476"
       id="linearGradient3987"
       xlink:href="#linearGradient3636"
       gradientUnits="userSpaceOnUse"
       gradientTransform="matrix(1.0008871,0,0,0.4293034,-288.21832,-12.917541)" />
    <linearGradient
       id="linearGradient10691-1">
      <stop
         id="stop10693-3"
         style="stop-color:#000000;stop-opacity:1"
         offset="0" />
      <stop
         id="stop10695-1"
         style="stop-color:#000000;stop-opacity:0"
         offset="1" />
    </linearGradient>
    <radialGradient
       cx="6.702713"
       cy="73.615715"
       r="7.228416"
       fx="6.702713"
       fy="73.615715"
       id="radialGradient3985"
       xlink:href="#linearGradient10691-1"
       gradientUnits="userSpaceOnUse"
       gradientTransform="matrix(1.2774741,0,0,0.2737444,23.265272,6.8693682)" />
  </defs>
  <g
     id="layer1">
    <g
       id="g4087">
      <path
         d="M 41.061927,27.021262 C 41.061927,28.114089 36.927674,29 31.827813,29 C 26.727953,29 22.5937,28.114089 22.5937,27.021262 C 22.5937,25.928435 26.727953,25.042523 31.827813,25.042523 C 36.927674,25.042523 41.061927,25.928435 41.061927,27.021262 L 41.061927,27.021262 z"
         id="path4089"
         style="opacity:0.4;fill:url(#radialGradient4101);fill-opacity:1;fill-rule:nonzero;stroke:none;stroke-width:0.80000001;marker:none;visibility:visible;display:inline;overflow:visible" />
      <path
         d="M 27.798257,22.5 C 27.798257,22.5 27.895257,24.398544 27.411444,25 C 26.927628,25.601454 25.964921,25.5 25.964921,25.5 C 25.347156,25.56319 25.342046,27.5 25.964921,27.5 L 38.034388,27.5 C 38.657264,27.5 38.652282,25.562381 38.034388,25.5 C 38.034388,25.5 37.071724,25.60147 36.587914,25 C 36.104104,24.398546 36.201051,22.5 36.201051,22.5 L 27.798257,22.5 z"
         id="path4091"
         style="fill:url(#linearGradient4103);fill-opacity:1;stroke:url(#linearGradient4105);stroke-width:0.99999994;stroke-linecap:round;stroke-linejoin:round;stroke-miterlimit:4;stroke-dasharray:none;stroke-dashoffset:0.50000001;stroke-opacity:1;display:inline;enable-background:new" />
      <path
         d="M 26.480565,26.5 L 37.518793,26.5"
         id="path4093"
         style="opacity:0.6;fill:none;stroke:#ffffff;stroke-width:0.99999994px;stroke-linecap:square;stroke-linejoin:miter;stroke-opacity:1" />
      <rect
         width="31.000082"
         height="21.999762"
         rx="0.50631088"
         ry="0.50631088"
         x="16.499798"
         y="0.50011975"
         id="rect4095"
         style="fill:#1a1a1a;fill-opacity:1;stroke:#000000;stroke-width:1.00023937;stroke-linecap:round;stroke-linejoin:round;stroke-miterlimit:4;stroke-dasharray:none;stroke-dashoffset:0.50000001;stroke-opacity:1" />
      <path
         d="M 18.5,2.5000009 C 23.78165,2.5000009 40.218351,2.500027 45.500001,2.500027 C 45.500001,8.9509591 45.500001,14.42555 45.500001,20.5 C 37.817064,20.5 26.182936,20.5 18.5,20.5 C 18.5,11.499996 18.5,11.500004 18.5,2.5000009 L 18.5,2.5000009 z"
         id="path4097"
         style="fill:url(#linearGradient4107);fill-opacity:1;stroke:url(#linearGradient4109);stroke-width:1;stroke-linecap:butt;stroke-linejoin:miter;stroke-miterlimit:4;stroke-dasharray:none;stroke-dashoffset:0;stroke-opacity:1;display:inline" />
      <path
         d="M 16.999679,0.9999998 L 46.999679,0.9999998 L 46.999679,7.9333357 L 16.999679,14 L 16.999679,0.9999998 z"
         id="path4099"
         style="fill:url(#linearGradient4111);fill-opacity:1;stroke:none" />
    </g>
    <g
       transform="translate(-15.999678,19)"
       id="g3977">
      <path
         d="M 41.061927,27.021262 C 41.061927,28.114089 36.927674,29 31.827813,29 C 26.727953,29 22.5937,28.114089 22.5937,27.021262 C 22.5937,25.928435 26.727953,25.042523 31.827813,25.042523 C 36.927674,25.042523 41.061927,25.928435 41.061927,27.021262 L 41.061927,27.021262 z"
         id="path2427"
         style="opacity:0.4;fill:url(#radialGradient3985);fill-opacity:1;fill-rule:nonzero;stroke:none;stroke-width:0.80000001;marker:none;visibility:visible;display:inline;overflow:visible" />
      <path
         d="M 27.798257,22.5 C 27.798257,22.5 27.895257,24.398544 27.411444,25 C 26.927628,25.601454 25.964921,25.5 25.964921,25.5 C 25.347156,25.56319 25.342046,27.5 25.964921,27.5 L 38.034388,27.5 C 38.657264,27.5 38.652282,25.562381 38.034388,25.5 C 38.034388,25.5 37.071724,25.60147 36.587914,25 C 36.104104,24.398546 36.201051,22.5 36.201051,22.5 L 27.798257,22.5 z"
         id="path2429"
         style="fill:url(#linearGradient3987);fill-opacity:1;stroke:url(#linearGradient3989);stroke-width:0.99999994;stroke-linecap:round;stroke-linejoin:round;stroke-miterlimit:4;stroke-dasharray:none;stroke-dashoffset:0.50000001;stroke-opacity:1;display:inline;enable-background:new" />
      <path
         d="M 26.480565,26.5 L 37.518793,26.5"
         id="path2431"
         style="opacity:0.6;fill:none;stroke:#ffffff;stroke-width:0.99999994px;stroke-linecap:square;stroke-linejoin:miter;stroke-opacity:1" />
      <rect
         width="31.000082"
         height="21.999762"
         rx="0.50631088"
         ry="0.50631088"
         x="16.499798"
         y="0.50011975"
         id="rect2433"
         style="fill:#1a1a1a;fill-opacity:1;stroke:#000000;stroke-width:1.00023937;stroke-linecap:round;stroke-linejoin:round;stroke-miterlimit:4;stroke-dasharray:none;stroke-dashoffset:0.50000001;stroke-opacity:1" />
      <path
         d="M 18.5,2.5000009 C 23.78165,2.5000009 40.218351,2.500027 45.500001,2.500027 C 45.500001,8.9509591 45.500001,14.42555 45.500001,20.5 C 37.817064,20.5 26.182936,20.5 18.5,20.5 C 18.5,11.499996 18.5,11.500004 18.5,2.5000009 L 18.5,2.5000009 z"
         id="path4322"
         style="fill:url(#linearGradient3991);fill-opacity:1;stroke:url(#linearGradient3993);stroke-width:1;stroke-linecap:butt;stroke-linejoin:miter;stroke-miterlimit:4;stroke-dasharray:none;stroke-dashoffset:0;stroke-opacity:1;display:inline" />
      <path
         d="M 16.999679,0.9999998 L 46.999679,0.9999998 L 46.999679,7.9333357 L 16.999679,14 L 16.999679,0.9999998 z"
         id="path2437"
         style="fill:url(#linearGradient3995);fill-opacity:1;stroke:none" />
    </g>
  </g>
</svg>
