<?xml version="1.0" encoding="UTF-8" standalone="no"?>
<svg
   xmlns:dc="http://purl.org/dc/elements/1.1/"
   xmlns:cc="http://creativecommons.org/ns#"
   xmlns:rdf="http://www.w3.org/1999/02/22-rdf-syntax-ns#"
   xmlns:svg="http://www.w3.org/2000/svg"
   xmlns="http://www.w3.org/2000/svg"
   xmlns:sodipodi="http://sodipodi.sourceforge.net/DTD/sodipodi-0.dtd"
   xmlns:inkscape="http://www.inkscape.org/namespaces/inkscape"
   version="1.0"
   width="48"
   height="48"
   id="svg4073"
   sodipodi:docname="notification-network-ethernet-disconnected.svg"
   inkscape:version="0.92.3 (2405546, 2018-03-11)">
  <sodipodi:namedview
     pagecolor="#ffffff"
     bordercolor="#666666"
     borderopacity="1"
     objecttolerance="10"
     gridtolerance="10"
     guidetolerance="10"
     inkscape:pageopacity="0"
     inkscape:pageshadow="2"
     inkscape:window-width="1366"
     inkscape:window-height="705"
     id="namedview6"
     showgrid="false"
     inkscape:zoom="9.8333333"
     inkscape:cx="6.6417155"
     inkscape:cy="22.521574"
     inkscape:window-x="0"
     inkscape:window-y="30"
     inkscape:window-maximized="1"
     inkscape:current-layer="g20">
    <inkscape:grid
       type="xygrid"
       id="grid816" />
  </sodipodi:namedview>
  <metadata
     id="metadata18">
    <rdf:RDF>
      <cc:Work
         rdf:about="">
        <dc:format>image/svg+xml</dc:format>
        <dc:type
           rdf:resource="http://purl.org/dc/dcmitype/StillImage" />
        <dc:title />
      </cc:Work>
    </rdf:RDF>
  </metadata>
  <defs
     id="defs4075" />
  <g
     transform="matrix(1.9871798,0,0,1.9940003,-1416.6797,190.53202)"
     id="g20">
    <path
       inkscape:connector-curvature="0"
       id="path2"
       style="color:#000000;overflow:visible;opacity:1;isolation:auto;mix-blend-mode:normal;fill:#bebebe;marker:none;fill-opacity:1"
       overflow="visible"
       d="m 722,-90 v 5 h 2 v 1 h -7 v 1 h 3 v 1 h -2 v 5 h 6 v -5 h -2 v -1 h 6 v 1 h -2 v 5 h 3.147 a 1.004,1.004 0 0 1 -0.15,-0.531 V -78 H 727 v -3 h 4 v 0.996 h 0.375 A 1.004,1.004 0 0 1 732,-79.785 V -82 h -2 v -1 h 3 v -1 h -7 v -1 h 2 v -5 z m 1,1 h 4 v 3 h -4 z m -4,8 h 4 v 3 h -4 z" />
    <path
       inkscape:connector-curvature="0"
       id="path4"
       style="color:#bebebe;overflow:visible;fill:#d33636;marker:none;fill-opacity:1"
       overflow="visible"
       d="m 730,-79 h 1.375 l 1.125,1.094 1.094,-1.094 H 735 v 1.469 l -1.094,1.062 1.094,1.063 V -74 h -1.437 L 732.5,-75.062 731.438,-74 H 730 v -1.406 l 1.063,-1.063 L 730,-77.53 Z" />
  </g>
</svg>
