<?xml version="1.0" encoding="UTF-8" standalone="no"?>
<!-- Created with Inkscape (http://www.inkscape.org/) -->

<svg
   xmlns:dc="http://purl.org/dc/elements/1.1/"
   xmlns:cc="http://creativecommons.org/ns#"
   xmlns:rdf="http://www.w3.org/1999/02/22-rdf-syntax-ns#"
   xmlns:svg="http://www.w3.org/2000/svg"
   xmlns="http://www.w3.org/2000/svg"
   xmlns:xlink="http://www.w3.org/1999/xlink"
   xmlns:sodipodi="http://sodipodi.sourceforge.net/DTD/sodipodi-0.dtd"
   xmlns:inkscape="http://www.inkscape.org/namespaces/inkscape"
   version="1.0"
   width="20"
   height="22"
   id="svg3294"
   inkscape:version="0.48.0 r9654"
   sodipodi:docname="gsd-xrandr.svg">
  <metadata
     id="metadata15">
    <rdf:RDF>
      <cc:Work
         rdf:about="">
        <dc:format>image/svg+xml</dc:format>
        <dc:type
           rdf:resource="http://purl.org/dc/dcmitype/StillImage" />
      </cc:Work>
    </rdf:RDF>
  </metadata>
  <sodipodi:namedview
     pagecolor="#ffffff"
     bordercolor="#666666"
     borderopacity="1"
     objecttolerance="10"
     gridtolerance="10"
     guidetolerance="10"
     inkscape:pageopacity="0"
     inkscape:pageshadow="2"
     inkscape:window-width="856"
     inkscape:window-height="627"
     id="namedview13"
     showgrid="false"
     inkscape:zoom="13.227273"
     inkscape:cx="11"
     inkscape:cy="12.587628"
     inkscape:window-x="0"
     inkscape:window-y="24"
     inkscape:window-maximized="0"
     inkscape:current-layer="svg3294" />
  <defs
     id="defs3296">
    <linearGradient
       id="linearGradient3587-6-5">
      <stop
         id="stop3589-9-2"
         style="stop-color:#000000;stop-opacity:1"
         offset="0" />
      <stop
         id="stop3591-7-4"
         style="stop-color:#363636;stop-opacity:1"
         offset="1" />
    </linearGradient>
    <linearGradient
       inkscape:collect="always"
       xlink:href="#linearGradient3587-6-5"
       id="linearGradient2993"
       gradientUnits="userSpaceOnUse"
       gradientTransform="translate(43.805604,0)"
       x1="-33.805603"
       y1="16"
       x2="-33.805603"
       y2="19" />
    <linearGradient
       inkscape:collect="always"
       xlink:href="#linearGradient3587-6-5"
       id="linearGradient2996"
       gradientUnits="userSpaceOnUse"
       gradientTransform="translate(43.805604,0)"
       x1="-33.805603"
       y1="3"
       x2="-33.805603"
       y2="15.041595" />
  </defs>
  <path
     inkscape:connector-curvature="0"
     style="opacity:0.6;fill:#ffffff;fill-opacity:1;fill-rule:nonzero;stroke:none;stroke-width:1;marker:none;visibility:visible;display:inline;overflow:visible;enable-background:accumulate"
     id="path3287"
     d="M 3,4 C 2.446,4 2,4.4893865 2,5.09375 l 0,9.8125 C 2,15.510614 2.446,16 3,16 l 14,0 c 0.554,0 1,-0.489386 1,-1.09375 l 0,-9.8125 C 18,4.4893863 17.554,4 17,4 L 3,4 z m 1,2 12,0 0,8 -12,0 0,-8 z m 3,11 6,0 0,1 2,0 0,2 -10,0 0,-2 2,0 0,-1 z" />
  <path
     inkscape:connector-curvature="0"
     style="opacity:0.7;fill:url(#linearGradient2996);fill-opacity:1;fill-rule:nonzero;stroke:none;stroke-width:1;marker:none;visibility:visible;display:inline;overflow:visible;enable-background:accumulate"
     id="rect2722"
     d="M 3,3 C 2.446,3 2,3.4893865 2,4.09375 l 0,9.8125 C 2,14.510614 2.446,15 3,15 l 14,0 c 0.554,0 1,-0.489386 1,-1.09375 l 0,-9.8125 C 18,3.4893863 17.554,3 17,3 L 3,3 z m 1,2 12,0 0,8 -12,0 0,-8 z" />
  <path
     inkscape:connector-curvature="0"
     style="opacity:0.7;fill:url(#linearGradient2993);fill-opacity:1;fill-rule:nonzero;stroke:none;stroke-width:1;marker:none;visibility:visible;display:inline;overflow:visible;enable-background:accumulate"
     id="path3271"
     d="m 7,16 6,0 0,1 2,0 0,2 -10,0 0,-2 2,0 0,-1 z" />
</svg>
