<?xml version="1.0" encoding="UTF-8" standalone="no"?>
<!-- Created with Inkscape (http://www.inkscape.org/) -->

<svg
   xmlns:dc="http://purl.org/dc/elements/1.1/"
   xmlns:cc="http://creativecommons.org/ns#"
   xmlns:rdf="http://www.w3.org/1999/02/22-rdf-syntax-ns#"
   xmlns:svg="http://www.w3.org/2000/svg"
   xmlns="http://www.w3.org/2000/svg"
   xmlns:xlink="http://www.w3.org/1999/xlink"
   xmlns:sodipodi="http://sodipodi.sourceforge.net/DTD/sodipodi-0.dtd"
   xmlns:inkscape="http://www.inkscape.org/namespaces/inkscape"
   version="1.0"
   width="23"
   height="22"
   id="svg3226"
   inkscape:version="0.48.0 r9654"
   sodipodi:docname="gsm-3g-none.svg">
  <metadata
     id="metadata16">
    <rdf:RDF>
      <cc:Work
         rdf:about="">
        <dc:format>image/svg+xml</dc:format>
        <dc:type
           rdf:resource="http://purl.org/dc/dcmitype/StillImage" />
        <dc:title />
      </cc:Work>
    </rdf:RDF>
  </metadata>
  <sodipodi:namedview
     pagecolor="#ffffff"
     bordercolor="#666666"
     borderopacity="1"
     objecttolerance="10"
     gridtolerance="10"
     guidetolerance="10"
     inkscape:pageopacity="0"
     inkscape:pageshadow="2"
     inkscape:window-width="1092"
     inkscape:window-height="669"
     id="namedview14"
     showgrid="false"
     inkscape:zoom="13.227273"
     inkscape:cx="-0.49140893"
     inkscape:cy="12.587628"
     inkscape:window-x="0"
     inkscape:window-y="24"
     inkscape:window-maximized="0"
     inkscape:current-layer="svg3226" />
  <defs
     id="defs3228">
    <linearGradient
       id="linearGradient3587-6-5">
      <stop
         id="stop3589-9-2"
         style="stop-color:#000000;stop-opacity:1"
         offset="0" />
      <stop
         id="stop3591-7-4"
         style="stop-color:#363636;stop-opacity:1"
         offset="1" />
    </linearGradient>
    <linearGradient
       inkscape:collect="always"
       xlink:href="#linearGradient3587-6-5"
       id="linearGradient3878"
       gradientUnits="userSpaceOnUse"
       x1="4.5859532"
       y1="11.951736"
       x2="4.5859532"
       y2="20.535381"
       gradientTransform="translate(-0.9591669,-1)" />
    <linearGradient
       inkscape:collect="always"
       xlink:href="#linearGradient3587-6-5"
       id="linearGradient3881"
       gradientUnits="userSpaceOnUse"
       gradientTransform="matrix(0.4101105,0,0,-0.4101105,-12.920728,22.852985)"
       x1="65.775291"
       y1="48.41246"
       x2="65.775291"
       y2="9.1825657" />
  </defs>
  <path
     inkscape:connector-curvature="0"
     style="opacity:0.6;fill:none;stroke:#ffffff;stroke-width:1px;stroke-linecap:butt;stroke-linejoin:bevel;stroke-opacity:1"
     id="path3220"
     d="m 3.5434052,12.452023 0.041691,3.376929 m -5e-7,4.169048 0,-3.960596 L 0.5,12.493714 l 6.2535723,0 -3.1267862,3.585381" />
  <g
     id="g3885"
     style="opacity:0.4">
    <path
       d="m 7.0504203,17.010548 2.0428338,0 0,3.001714 -2.0428338,0 0,-3.001714 0,0 z m 4.0308067,-4.002286 2.014309,0 0,7.004 -2.042833,0 0.02852,-7.004 4e-6,0 z m 3.973762,-4.002287 2.016321,0 -0.01517,11.006288 -2.001143,0 -8e-6,-11.006288 z m 6.00341,-5.0071616 0,16.0134486 -2.012613,0 0.02601,-16.0129257 1.986603,-5.229e-4 0,0 z"
       id="path3218"
       style="opacity:0.6;fill:#ffffff;fill-opacity:1;fill-rule:nonzero;stroke:none;stroke-width:1;marker:none;visibility:visible;display:inline;overflow:visible;enable-background:accumulate"
       inkscape:connector-curvature="0" />
    <path
       d="m 7.0504203,16.010261 2.0428338,0 0,3.001714 -2.0428338,0 0,-3.001714 0,0 z m 4.0308067,-4.002286 2.014309,0 0,7.004 -2.042833,0 0.02852,-7.004 4e-6,0 z m 3.973762,-4.0022869 2.016321,0 -0.01517,11.0062879 -2.001143,0 -8e-6,-11.0062879 z m 6.00341,-5.0071617 0,16.0134486 -2.012613,0 0.02601,-16.0129257 1.986603,-5.229e-4 0,0 z"
       id="path3694"
       style="opacity:0.7;fill:url(#linearGradient3881);fill-opacity:1;fill-rule:nonzero;stroke:none;stroke-width:1;marker:none;visibility:visible;display:inline;overflow:visible;enable-background:accumulate"
       inkscape:connector-curvature="0" />
  </g>
  <path
     inkscape:connector-curvature="0"
     style="opacity:0.7;fill:none;stroke:url(#linearGradient3878);stroke-width:1px;stroke-linecap:butt;stroke-linejoin:bevel;stroke-opacity:1"
     id="path3657"
     d="m 3.5434052,11.451736 0.041691,3.376929 m -5e-7,4.169048 0,-3.960596 L 0.5,11.493427 l 6.2535723,0 -3.1267862,3.585381" />
</svg>
