<?xml version="1.0" encoding="UTF-8" standalone="no"?>
<!-- Created with Inkscape (http://www.inkscape.org/) -->
<svg
   xmlns:svg="http://www.w3.org/2000/svg"
   xmlns="http://www.w3.org/2000/svg"
   xmlns:xlink="http://www.w3.org/1999/xlink"
   version="1.0"
   width="22"
   height="22"
   id="svg3204">
  <defs
     id="defs3206">
    <linearGradient
       id="linearGradient3187">
      <stop
         id="stop3189"
         style="stop-color:#a60000;stop-opacity:1"
         offset="0" />
      <stop
         id="stop3191"
         style="stop-color:#ff1313;stop-opacity:1"
         offset="1" />
    </linearGradient>
    <linearGradient
       x1="99.624245"
       y1="8.4432774"
       x2="99.624245"
       y2="34.187016"
       id="linearGradient2388"
       xlink:href="#linearGradient3187"
       gradientUnits="userSpaceOnUse"
       gradientTransform="matrix(0.4100229,0,0,0.5447147,-32.84949,-0.599101)" />
  </defs>
  <g
     id="layer1">
    <path
       d="M 12.500016,2.9998148 C 10.741348,2.9786177 9.3091476,4.0436171 8.3437656,5.3748148 C 7.4066793,5.0266526 6.3703644,4.962186 5.4062656,5.4060648 C 5.3869329,5.4149656 5.3630163,5.3967959 5.3437656,5.4060648 C 3.8238547,6.0618258 2.9170072,7.6370287 3.0625156,9.2810648 C 1.1111029,10.837759 0.39006883,13.609659 1.5312656,15.874815 C 2.4776882,17.924057 4.6284197,19.111245 6.8437656,18.968565 L 6.8437656,18.999815 C 9.8346966,18.991358 12.841676,18.998802 15.843766,18.968565 C 15.864969,18.95889 15.885802,18.948467 15.906266,18.937315 C 18.64865,18.790589 20.923227,16.496744 21.000016,13.749815 C 21.151223,11.550575 19.827069,9.5548628 17.875016,8.6248148 C 17.788523,5.974323 15.965862,3.4370713 13.187516,3.0623148 C 12.926562,3.0254451 12.706953,2.9998029 12.500016,2.9998148 z M 11.000016,6.9998148 C 11.554016,6.9998148 12.000016,7.4458148 12.000016,7.9998148 L 12.000016,12.999815 C 12.000016,13.553815 11.554016,13.999815 11.000016,13.999815 C 10.446016,13.999815 10.000016,13.553815 10.000016,12.999815 L 10.000016,7.9998148 C 10.000016,7.4458148 10.446016,6.9998148 11.000016,6.9998148 z M 10.750016,14.999815 L 11.250016,14.999815 C 11.665516,14.999815 12.000016,15.334315 12.000016,15.749815 L 12.000016,16.249815 C 12.000016,16.665315 11.665516,16.999815 11.250016,16.999815 L 10.750016,16.999815 C 10.334516,16.999815 10.000016,16.665315 10.000016,16.249815 L 10.000016,15.749815 C 10.000016,15.334315 10.334516,14.999815 10.750016,14.999815 z"
       id="path3186"
       style="opacity:0.1;fill:#f50000;fill-opacity:1;fill-rule:nonzero;stroke:none;stroke-width:1;stroke-linecap:butt;stroke-linejoin:miter;marker:none;marker-start:none;marker-mid:none;marker-end:none;stroke-miterlimit:4;stroke-dasharray:none;stroke-dashoffset:0;stroke-opacity:1;visibility:visible;display:inline;overflow:visible;enable-background:accumulate" />
    <path
       d="M 12.500016,4.9998148 C 10.864072,4.9800901 9.3823896,6.0786827 8.6562656,7.4998148 C 7.8136826,6.9691001 6.7258529,6.8411561 5.8125156,7.2810648 C 4.5197223,7.8111526 3.7073398,9.3244938 4.0937656,10.687315 C 2.1905933,11.834644 1.4409826,14.458627 2.4375156,16.437315 C 3.2040143,18.097543 5.0633141,19.137489 6.8750156,18.999815 C 9.8683966,18.991348 12.850916,18.998719 15.843766,18.968565 C 18.037393,18.851159 19.938694,16.912953 20.000016,14.718565 C 20.13389,12.770761 18.823794,10.857875 16.968766,10.249815 C 17.194331,7.8919198 15.483966,5.357793 13.062516,5.0310648 C 12.872856,5.0042589 12.691561,4.9998038 12.500016,4.9998148 z M 11.000016,6.9998148 C 11.554016,6.9998148 12.000016,7.4458148 12.000016,7.9998148 L 12.000016,12.999815 C 12.000016,13.553815 11.554016,13.999815 11.000016,13.999815 C 10.446016,13.999815 10.000016,13.553815 10.000016,12.999815 L 10.000016,7.9998148 C 10.000016,7.4458148 10.446016,6.9998148 11.000016,6.9998148 z M 10.750016,14.999815 L 11.250016,14.999815 C 11.665516,14.999815 12.000016,15.334315 12.000016,15.749815 L 12.000016,16.249815 C 12.000016,16.665315 11.665516,16.999815 11.250016,16.999815 L 10.750016,16.999815 C 10.334516,16.999815 10.000016,16.665315 10.000016,16.249815 L 10.000016,15.749815 C 10.000016,15.334315 10.334516,14.999815 10.750016,14.999815 z"
       id="path2419"
       style="opacity:0.7;fill:#ffffff;fill-opacity:1;fill-rule:nonzero;stroke:none;stroke-width:1;stroke-linecap:butt;stroke-linejoin:miter;marker:none;marker-start:none;marker-mid:none;marker-end:none;stroke-miterlimit:4;stroke-dasharray:none;stroke-dashoffset:0;stroke-opacity:1;visibility:visible;display:inline;overflow:visible;enable-background:accumulate" />
    <path
       d="M 12.500016,3.9998148 C 10.864072,3.9800902 9.3823896,5.0786827 8.6562656,6.4998148 C 7.8136826,5.9690997 6.7258529,5.8411561 5.8125156,6.2810648 C 4.5197223,6.8111522 3.7073398,8.3244935 4.0937656,9.6873148 C 2.1905933,10.834644 1.4409826,13.458627 2.4375156,15.437315 C 3.2040143,17.097543 5.0633141,18.137489 6.8750156,17.999815 C 9.8683966,17.991348 12.850916,17.998719 15.843766,17.968565 C 18.037393,17.851159 19.938694,15.912953 20.000016,13.718565 C 20.13389,11.770761 18.823794,9.8578748 16.968766,9.2498148 C 17.194331,6.8919194 15.483966,4.357793 13.062516,4.0310648 C 12.872856,4.004259 12.691561,3.9998038 12.500016,3.9998148 z M 11.000016,6.9998148 C 11.554016,6.9998148 12.000016,7.4458148 12.000016,7.9998148 L 12.000016,12.999815 C 12.000016,13.553815 11.554016,13.999815 11.000016,13.999815 C 10.446016,13.999815 10.000016,13.553815 10.000016,12.999815 L 10.000016,7.9998148 C 10.000016,7.4458148 10.446016,6.9998148 11.000016,6.9998148 z M 10.750016,14.999815 L 11.250016,14.999815 C 11.665516,14.999815 12.000016,15.334315 12.000016,15.749815 L 12.000016,16.249815 C 12.000016,16.665315 11.665516,16.999815 11.250016,16.999815 L 10.750016,16.999815 C 10.334516,16.999815 10.000016,16.665315 10.000016,16.249815 L 10.000016,15.749815 C 10.000016,15.334315 10.334516,14.999815 10.750016,14.999815 z"
       id="rect3193"
       style="opacity:0.8;fill:url(#linearGradient2388);fill-opacity:1;fill-rule:nonzero;stroke:none;stroke-width:1;stroke-linecap:butt;stroke-linejoin:miter;marker:none;marker-start:none;marker-mid:none;marker-end:none;stroke-miterlimit:4;stroke-dasharray:none;stroke-dashoffset:0;stroke-opacity:1;visibility:visible;display:inline;overflow:visible;enable-background:accumulate" />
  </g>
</svg>
