<?xml version="1.0" encoding="UTF-8" standalone="no"?>
<!-- Created with Inkscape (http://www.inkscape.org/) -->

<svg
   xmlns:dc="http://purl.org/dc/elements/1.1/"
   xmlns:cc="http://creativecommons.org/ns#"
   xmlns:rdf="http://www.w3.org/1999/02/22-rdf-syntax-ns#"
   xmlns:svg="http://www.w3.org/2000/svg"
   xmlns="http://www.w3.org/2000/svg"
   xmlns:xlink="http://www.w3.org/1999/xlink"
   xmlns:inkscape="http://www.inkscape.org/namespaces/inkscape"
   version="1.0"
   width="64"
   height="64"
   id="svg3486">
  <metadata
     id="metadata77">
    <rdf:RDF>
      <cc:Work
         rdf:about="">
        <dc:format>image/svg+xml</dc:format>
        <dc:type
           rdf:resource="http://purl.org/dc/dcmitype/StillImage" />
      </cc:Work>
    </rdf:RDF>
  </metadata>
  <defs
     id="defs3488">
    <linearGradient
       id="linearGradient9936">
      <stop
         id="stop9938"
         style="stop-color:#575757;stop-opacity:1"
         offset="0" />
      <stop
         id="stop9940"
         style="stop-color:#333333;stop-opacity:1"
         offset="1" />
    </linearGradient>
    <linearGradient
       id="linearGradient2490">
      <stop
         id="stop2492"
         style="stop-color:#791235;stop-opacity:1"
         offset="0" />
      <stop
         id="stop2494"
         style="stop-color:#dd3b27;stop-opacity:1"
         offset="1" />
    </linearGradient>
    <linearGradient
       id="linearGradient3242">
      <stop
         id="stop3244"
         style="stop-color:#f8b17e;stop-opacity:1"
         offset="0" />
      <stop
         id="stop3246"
         style="stop-color:#e35d4f;stop-opacity:1"
         offset="0.31209752" />
      <stop
         id="stop3248"
         style="stop-color:#c6262e;stop-opacity:1"
         offset="0.57054454" />
      <stop
         id="stop3250"
         style="stop-color:#690b54;stop-opacity:1"
         offset="1" />
    </linearGradient>
    <linearGradient
       id="linearGradient3342">
      <stop
         id="stop3344"
         style="stop-color:#ffffff;stop-opacity:0"
         offset="0" />
      <stop
         id="stop3346"
         style="stop-color:#ffffff;stop-opacity:1"
         offset="1" />
    </linearGradient>
    <linearGradient
       id="linearGradient3434">
      <stop
         id="stop3436"
         style="stop-color:#ffffff;stop-opacity:0"
         offset="0" />
      <stop
         id="stop3438"
         style="stop-color:#ffffff;stop-opacity:1"
         offset="1" />
    </linearGradient>
    <linearGradient
       id="linearGradient3463">
      <stop
         id="stop3465"
         style="stop-color:#000000;stop-opacity:1"
         offset="0" />
      <stop
         id="stop3467"
         style="stop-color:#000000;stop-opacity:0"
         offset="1" />
    </linearGradient>
    <linearGradient
       x1="15"
       y1="17"
       x2="15"
       y2="33.434338"
       id="linearGradient3683"
       xlink:href="#linearGradient3434"
       gradientUnits="userSpaceOnUse"
       gradientTransform="matrix(1.3333333,0,0,1.310345,0.4999999,-13.810346)" />
    <linearGradient
       x1="14.498855"
       y1="44.178928"
       x2="14.498855"
       y2="15.875"
       id="linearGradient3686"
       xlink:href="#linearGradient3434"
       gradientUnits="userSpaceOnUse"
       gradientTransform="matrix(1.4222224,0,0,1.3174689,-0.6333333,-13.851066)" />
    <linearGradient
       x1="22.05551"
       y1="15.833781"
       x2="22.05551"
       y2="45.49704"
       id="linearGradient3689"
       xlink:href="#linearGradient9936"
       gradientUnits="userSpaceOnUse"
       gradientTransform="matrix(1.3159837,0,0,1.3253406,0.01216882,-15.140326)" />
    <radialGradient
       cx="-6.1603441"
       cy="36.686291"
       r="14.09771"
       fx="-6.1603441"
       fy="36.686291"
       id="radialGradient3693"
       xlink:href="#linearGradient3463"
       gradientUnits="userSpaceOnUse"
       gradientTransform="matrix(1,0,0,0.3739496,0,22.967467)" />
    <radialGradient
       cx="-6.1603441"
       cy="36.686291"
       r="14.09771"
       fx="-6.1603441"
       fy="36.686291"
       id="radialGradient3695"
       xlink:href="#linearGradient3463"
       gradientUnits="userSpaceOnUse"
       gradientTransform="matrix(1,0,0,0.3739496,0,22.967467)" />
    <radialGradient
       cx="-6.1603441"
       cy="36.686291"
       r="14.09771"
       fx="-6.1603441"
       fy="36.686291"
       id="radialGradient3697"
       xlink:href="#linearGradient3463"
       gradientUnits="userSpaceOnUse"
       gradientTransform="matrix(1,0,0,0.3739496,0,22.967467)" />
    <linearGradient
       x1="143.91531"
       y1="75.220741"
       x2="143.91531"
       y2="103.12598"
       id="linearGradient3714"
       xlink:href="#linearGradient3242"
       gradientUnits="userSpaceOnUse"
       gradientTransform="matrix(1.5009986,0,0,1.4604107,-184.01667,-95.083372)" />
    <linearGradient
       x1="153.40933"
       y1="98.784538"
       x2="153.40933"
       y2="75.220741"
       id="linearGradient3716"
       xlink:href="#linearGradient2490"
       gradientUnits="userSpaceOnUse"
       gradientTransform="matrix(1.5009986,0,0,1.4604107,-184.01667,-95.083372)" />
    <radialGradient
       cx="-6.1603441"
       cy="36.686291"
       r="14.09771"
       fx="-6.1603441"
       fy="36.686291"
       id="radialGradient3718"
       xlink:href="#linearGradient3463"
       gradientUnits="userSpaceOnUse"
       gradientTransform="matrix(1,0,0,0.3739496,0,22.967467)" />
    <linearGradient
       x1="153.40933"
       y1="98.784538"
       x2="153.40933"
       y2="75.220741"
       id="linearGradient4235"
       xlink:href="#linearGradient3342"
       gradientUnits="userSpaceOnUse"
       gradientTransform="matrix(1.5009986,0,0,1.4604107,-184.01667,-95.083372)" />
    <radialGradient
       cx="-6.1603441"
       cy="36.686291"
       r="14.09771"
       fx="-6.1603441"
       fy="36.686291"
       id="radialGradient3206"
       xlink:href="#linearGradient3463"
       gradientUnits="userSpaceOnUse"
       gradientTransform="matrix(1,0,0,0.3739496,0,22.967467)" />
    <linearGradient
       x1="143.91531"
       y1="75.220741"
       x2="143.91531"
       y2="103.12598"
       id="linearGradient3208"
       xlink:href="#linearGradient3242"
       gradientUnits="userSpaceOnUse"
       gradientTransform="matrix(1.5009986,0,0,1.4604107,-184.01667,-95.083372)" />
    <linearGradient
       x1="153.40933"
       y1="98.784538"
       x2="153.40933"
       y2="75.220741"
       id="linearGradient3210"
       xlink:href="#linearGradient2490"
       gradientUnits="userSpaceOnUse"
       gradientTransform="matrix(1.5009986,0,0,1.4604107,-184.01667,-95.083372)" />
    <radialGradient
       cx="-6.1603441"
       cy="36.686291"
       r="14.09771"
       fx="-6.1603441"
       fy="36.686291"
       id="radialGradient3212"
       xlink:href="#linearGradient3463"
       gradientUnits="userSpaceOnUse"
       gradientTransform="matrix(1,0,0,0.3739496,0,22.967467)" />
    <radialGradient
       cx="-6.1603441"
       cy="36.686291"
       r="14.09771"
       fx="-6.1603441"
       fy="36.686291"
       id="radialGradient3214"
       xlink:href="#linearGradient3463"
       gradientUnits="userSpaceOnUse"
       gradientTransform="matrix(1,0,0,0.3739496,0,22.967467)" />
    <radialGradient
       cx="-6.1603441"
       cy="36.686291"
       r="14.09771"
       fx="-6.1603441"
       fy="36.686291"
       id="radialGradient3216"
       xlink:href="#linearGradient3463"
       gradientUnits="userSpaceOnUse"
       gradientTransform="matrix(1,0,0,0.3739496,0,22.967467)" />
    <linearGradient
       x1="153.40933"
       y1="98.784538"
       x2="153.40933"
       y2="75.220741"
       id="linearGradient3218"
       xlink:href="#linearGradient3342"
       gradientUnits="userSpaceOnUse"
       gradientTransform="matrix(1.5009986,0,0,1.4604107,-184.01667,-95.083372)" />
    <linearGradient
       x1="22.05551"
       y1="15.833781"
       x2="22.05551"
       y2="45.49704"
       id="linearGradient3220"
       xlink:href="#linearGradient9936"
       gradientUnits="userSpaceOnUse"
       gradientTransform="matrix(1.3159837,0,0,1.3253406,0.01216882,-15.140326)" />
    <linearGradient
       x1="14.498855"
       y1="44.178928"
       x2="14.498855"
       y2="15.875"
       id="linearGradient3222"
       xlink:href="#linearGradient3434"
       gradientUnits="userSpaceOnUse"
       gradientTransform="matrix(1.4222224,0,0,1.3174689,-0.6333333,-13.851066)" />
    <linearGradient
       x1="15"
       y1="17"
       x2="15"
       y2="33.434338"
       id="linearGradient3224"
       xlink:href="#linearGradient3434"
       gradientUnits="userSpaceOnUse"
       gradientTransform="matrix(1.3333333,0,0,1.310345,0.4999999,-13.810346)" />
    <radialGradient
       cx="-6.1603441"
       cy="36.686291"
       r="14.09771"
       fx="-6.1603441"
       fy="36.686291"
       id="radialGradient3239"
       xlink:href="#linearGradient3463"
       gradientUnits="userSpaceOnUse"
       gradientTransform="matrix(1,0,0,0.3739496,0,22.967467)" />
    <linearGradient
       x1="143.91531"
       y1="75.220741"
       x2="143.91531"
       y2="103.12598"
       id="linearGradient3241"
       xlink:href="#linearGradient3242"
       gradientUnits="userSpaceOnUse"
       gradientTransform="matrix(1.5009986,0,0,1.4604107,-184.01667,-95.083372)" />
    <linearGradient
       x1="153.40933"
       y1="98.784538"
       x2="153.40933"
       y2="75.220741"
       id="linearGradient3243"
       xlink:href="#linearGradient2490"
       gradientUnits="userSpaceOnUse"
       gradientTransform="matrix(1.5009986,0,0,1.4604107,-184.01667,-95.083372)" />
    <radialGradient
       cx="-6.1603441"
       cy="36.686291"
       r="14.09771"
       fx="-6.1603441"
       fy="36.686291"
       id="radialGradient3245"
       xlink:href="#linearGradient3463"
       gradientUnits="userSpaceOnUse"
       gradientTransform="matrix(1,0,0,0.3739496,0,22.967467)" />
    <radialGradient
       cx="-6.1603441"
       cy="36.686291"
       r="14.09771"
       fx="-6.1603441"
       fy="36.686291"
       id="radialGradient3247"
       xlink:href="#linearGradient3463"
       gradientUnits="userSpaceOnUse"
       gradientTransform="matrix(1,0,0,0.3739496,0,22.967467)" />
    <radialGradient
       cx="-6.1603441"
       cy="36.686291"
       r="14.09771"
       fx="-6.1603441"
       fy="36.686291"
       id="radialGradient3249"
       xlink:href="#linearGradient3463"
       gradientUnits="userSpaceOnUse"
       gradientTransform="matrix(1,0,0,0.3739496,0,22.967467)" />
    <linearGradient
       x1="153.40933"
       y1="98.784538"
       x2="153.40933"
       y2="75.220741"
       id="linearGradient3251"
       xlink:href="#linearGradient3342"
       gradientUnits="userSpaceOnUse"
       gradientTransform="matrix(1.5009986,0,0,1.4604107,-184.01667,-95.083372)" />
    <linearGradient
       x1="22.05551"
       y1="15.833781"
       x2="22.05551"
       y2="45.49704"
       id="linearGradient3253"
       xlink:href="#linearGradient9936"
       gradientUnits="userSpaceOnUse"
       gradientTransform="matrix(1.3159837,0,0,1.3253406,0.01216882,-15.140326)" />
    <linearGradient
       x1="14.498855"
       y1="44.178928"
       x2="14.498855"
       y2="15.875"
       id="linearGradient3255"
       xlink:href="#linearGradient3434"
       gradientUnits="userSpaceOnUse"
       gradientTransform="matrix(1.4222224,0,0,1.3174689,-0.6333333,-13.851066)" />
    <linearGradient
       x1="15"
       y1="17"
       x2="15"
       y2="33.434338"
       id="linearGradient3257"
       xlink:href="#linearGradient3434"
       gradientUnits="userSpaceOnUse"
       gradientTransform="matrix(1.3333333,0,0,1.310345,0.4999999,-13.810346)" />
    <linearGradient
       x1="15"
       y1="17"
       x2="15"
       y2="33.434338"
       id="linearGradient3260"
       xlink:href="#linearGradient3434"
       gradientUnits="userSpaceOnUse"
       gradientTransform="matrix(1.7500001,0,0,1.7586208,0.8749999,-18.758621)" />
    <linearGradient
       x1="14.498855"
       y1="44.178928"
       x2="14.498855"
       y2="15.875"
       id="linearGradient3263"
       xlink:href="#linearGradient3434"
       gradientUnits="userSpaceOnUse"
       gradientTransform="matrix(1.866667,0,0,1.7681819,-0.6125,-18.813272)" />
    <linearGradient
       x1="22.05551"
       y1="15.833781"
       x2="22.05551"
       y2="45.49704"
       id="linearGradient3266"
       xlink:href="#linearGradient9936"
       gradientUnits="userSpaceOnUse"
       gradientTransform="matrix(1.7272287,0,0,1.7787465,0.2347216,-20.543594)" />
    <linearGradient
       x1="153.40933"
       y1="98.784538"
       x2="153.40933"
       y2="75.220741"
       id="linearGradient3269"
       xlink:href="#linearGradient3342"
       gradientUnits="userSpaceOnUse"
       gradientTransform="matrix(2.0013313,0,0,1.9640004,-245.52219,-128.21556)" />
    <radialGradient
       cx="-6.1603441"
       cy="36.686291"
       r="14.09771"
       fx="-6.1603441"
       fy="36.686291"
       id="radialGradient3272"
       xlink:href="#linearGradient3463"
       gradientUnits="userSpaceOnUse"
       gradientTransform="matrix(0.517352,0,0,0.3900607,11.480545,43.190118)" />
    <radialGradient
       cx="-6.1603441"
       cy="36.686291"
       r="14.09771"
       fx="-6.1603441"
       fy="36.686291"
       id="radialGradient3275"
       xlink:href="#linearGradient3463"
       gradientUnits="userSpaceOnUse"
       gradientTransform="matrix(1.6931519,0,0,0.3854196,35.299964,43.425814)" />
    <radialGradient
       cx="-6.1603441"
       cy="36.686291"
       r="14.09771"
       fx="-6.1603441"
       fy="36.686291"
       id="radialGradient3278"
       xlink:href="#linearGradient3463"
       gradientUnits="userSpaceOnUse"
       gradientTransform="matrix(1.41096,0,0,0.3900607,50.800695,43.190118)" />
    <linearGradient
       x1="143.91531"
       y1="75.220741"
       x2="143.91531"
       y2="103.12598"
       id="linearGradient3281"
       xlink:href="#linearGradient3242"
       gradientUnits="userSpaceOnUse"
       gradientTransform="matrix(2.0013313,0,0,1.9640004,-245.52219,-128.21556)" />
    <linearGradient
       x1="153.40933"
       y1="98.784538"
       x2="153.40933"
       y2="75.220741"
       id="linearGradient3283"
       xlink:href="#linearGradient2490"
       gradientUnits="userSpaceOnUse"
       gradientTransform="matrix(2.0013313,0,0,1.9640004,-245.52219,-128.21556)" />
    <radialGradient
       cx="-6.1603441"
       cy="36.686291"
       r="14.09771"
       fx="-6.1603441"
       fy="36.686291"
       id="radialGradient3286"
       xlink:href="#linearGradient3463"
       gradientUnits="userSpaceOnUse"
       gradientTransform="matrix(0.517352,0,0,0.3900607,44.632721,43.190117)" />
    <linearGradient
       x1="153.40933"
       y1="98.784538"
       x2="153.40933"
       y2="75.220741"
       id="linearGradient3290"
       xlink:href="#linearGradient3434"
       gradientUnits="userSpaceOnUse"
       gradientTransform="matrix(2.0013313,0,0,1.9640004,-245.52219,-128.21556)" />
    <linearGradient
       x1="153.40933"
       y1="98.784538"
       x2="153.40933"
       y2="75.220741"
       id="linearGradient3294"
       xlink:href="#linearGradient3434"
       gradientUnits="userSpaceOnUse"
       gradientTransform="matrix(2.0013313,0,0,1.9640004,-245.52219,-128.21556)" />
  </defs>
  <path
     d="m 48.739133,57.499999 c 7.58e-4,3.037399 -3.264865,5.5 -7.293479,5.5 -4.028614,0 -7.294238,-2.462601 -7.293479,-5.5 C 34.151416,54.462601 37.41704,52 41.445654,52 c 4.028614,0 7.294237,2.462601 7.293479,5.499999 l 0,0 z"
     inkscape:connector-curvature="0"
     id="path3478"
     style="opacity:0.2;fill:url(#radialGradient3286);fill-opacity:1;fill-rule:evenodd;stroke:none;stroke-width:0.99999988;marker:none;visibility:visible;display:inline;overflow:visible;enable-background:accumulate" />
  <path
     d="m 58.626883,23.028531 c -0.975718,-2.229574 -3.356808,-1.996036 -4.990404,-2.350177 -5.408321,-0.627598 -10.807376,0.373321 -15.340201,3.444203 -4.375006,2.989469 -8.33382,7.034222 -11.114693,12.253768 -2.41714,4.649495 -3.502522,10.860943 -1.977527,16.777835 1.200268,3.983141 4.813505,6.443386 7.860821,5.779982 4.665099,-0.784712 7.989439,-5.151959 10.731804,-9.412538 1.240118,-1.75704 2.001871,-4.084006 3.465662,-5.560643 -0.208323,3.786496 -0.301611,7.719363 0.551614,11.564447 0.484941,2.267192 2.258926,4.054454 4.056789,3.971834 1.829104,-0.211697 3.221416,-1.812926 4.737695,-2.857939 1.363757,-1.218425 2.925918,-2.26606 3.891555,-4.027649 -0.166346,-2.918059 -2.752804,-1.085764 -3.655614,-0.08421 -1.262075,2.003315 -3.869536,0.41149 -3.311754,-2.314701 0.292011,-6.227068 1.731594,-12.074852 2.949131,-17.945721 0.68447,-3.095033 1.404972,-6.17202 2.145125,-9.238489 l -3e-6,0 z m -7.555167,3.885659 c -2.316893,7.381547 -4.81969,14.894374 -9.101634,20.61749 -2.020225,2.611037 -4.982251,4.978685 -8.248186,3.722737 -2.256945,-1.00941 -2.779838,-4.328171 -2.828678,-6.824755 -0.291273,-7.372274 3.237965,-13.478138 7.650118,-17.161325 3.075515,-2.469398 7.050753,-3.587092 10.933466,-2.381168 0.73302,0.275281 1.528136,0.987855 1.594914,2.027024 l 0,-3e-6 z"
     inkscape:connector-curvature="0"
     id="text2400"
     style="font-size:55.90206146px;font-style:normal;font-variant:normal;font-weight:normal;font-stretch:normal;text-align:start;line-height:100%;writing-mode:lr-tb;text-anchor:start;fill:url(#linearGradient3281);fill-opacity:1;fill-rule:evenodd;stroke:url(#linearGradient3283);stroke-width:0.99999994;stroke-linecap:butt;stroke-linejoin:miter;stroke-miterlimit:4;stroke-opacity:1;stroke-dasharray:none;stroke-dashoffset:0;marker:none;visibility:visible;display:inline;overflow:visible;enable-background:accumulate;font-family:Gabrielle;-inkscape-font-specification:Gabrielle" />
  <path
     d="M 62,57.500001 C 62.002069,60.537399 53.095823,63 42.108696,63 31.12157,63 22.215324,60.537399 22.217392,57.500001 c -0.0021,-3.037399 8.904178,-5.5 19.891304,-5.5 10.987127,0 19.893373,2.462601 19.891304,5.5 l 0,0 z"
     inkscape:connector-curvature="0"
     id="path3461"
     style="opacity:0.2;fill:url(#radialGradient3278);fill-opacity:1;fill-rule:evenodd;stroke:none;stroke-width:0.99999988;marker:none;visibility:visible;display:inline;overflow:visible;enable-background:accumulate" />
  <path
     d="m 48.73913,57.56543 c 0.0025,3.001258 -10.685013,5.434558 -23.869564,5.434558 -13.184552,0 -23.87204691,-2.4333 -23.8695648,-5.434558 -0.002482,-3.001257 10.6850128,-5.434557 23.8695648,-5.434557 13.184551,0 23.872047,2.4333 23.869564,5.434557 l 0,0 z"
     inkscape:connector-curvature="0"
     id="path3482"
     style="opacity:0.05;fill:url(#radialGradient3275);fill-opacity:1;fill-rule:evenodd;stroke:none;stroke-width:0.99999988;marker:none;visibility:visible;display:inline;overflow:visible;enable-background:accumulate" />
  <path
     d="M 15.586958,57.500001 C 15.587716,60.537399 12.322093,63 8.2934791,63 4.2648656,63 0.99924167,60.537399 1.0000001,57.500001 c -7.5843e-4,-3.037399 3.2648655,-5.5 7.2934789,-5.5 4.028614,0 7.294237,2.462601 7.293479,5.5 l 0,0 z"
     inkscape:connector-curvature="0"
     id="path3474"
     style="opacity:0.2;fill:url(#radialGradient3272);fill-opacity:1;fill-rule:evenodd;stroke:none;stroke-width:0.99999988;marker:none;visibility:visible;display:inline;overflow:visible;enable-background:accumulate" />
  <path
     d="m 49.625,21.5625 c -3.848516,0.154117 -7.55274,1.219011 -10.78125,3.40625 -4.25727,2.909018 -8.054016,6.814786 -10.75,11.875 -2.303101,4.430136 -3.32819,10.424206 -1.875,16.0625 1.071793,3.556791 4.250888,5.548097 6.625,5.03125 0.02083,-6.4e-4 0.04167,-6.4e-4 0.0625,0 4.135075,-0.695558 7.319587,-4.75587 10.03125,-8.96875 -1.6e-4,-0.01042 -1.6e-4,-0.02083 0,-0.03125 1.109629,-1.572159 1.878355,-3.957051 3.59375,-5.6875 0.300316,-0.287426 0.74535,-0.363095 1.123786,-0.191079 0.378436,0.172016 0.614049,0.557071 0.594964,0.972329 -0.20701,3.762643 -0.25598,7.592744 0.5625,11.28125 0.397116,1.856584 1.906199,3.177216 3,3.15625 1.242707,-0.180893 2.502989,-1.472022 4.09375,-2.59375 0.04096,-0.03659 0.08408,-0.0577 0.125,-0.09375 1.319558,-1.162744 2.562726,-2.122582 3.375,-3.4375 -0.03168,-0.08181 -0.08228,-0.328311 -0.0625,-0.3125 0.0419,0.03349 0.08468,0.0044 -0.125,0.0625 -0.419362,0.116136 -1.291593,0.755128 -1.625,1.125 L 57.5625,53.1875 c -0.425802,0.589771 -0.985362,1.079315 -1.625,1.21875 -0.702623,0.153166 -1.432406,-0.03217 -2,-0.40625 -1.098007,-0.723656 -1.682679,-2.205509 -1.40625,-3.84375 9.95e-4,-0.02122 -0.001,-0.04129 0,-0.0625 0.0061,-0.03338 -0.0069,-0.06022 0,-0.09375 l 0.03125,0 c 0.314724,-6.290241 1.703962,-12.140159 2.90625,-17.9375 0.654421,-2.959163 1.35722,-5.916325 2.0625,-8.84375 C 57.186559,22.609988 56.756461,22.313643 56.09375,22.125 55.363892,21.917243 54.430707,21.877889 53.5,21.6875 c -0.03146,-0.0037 -0.06231,0.0035 -0.09375,0 -1.269498,-0.142654 -2.528651,-0.175162 -3.78125,-0.125 z m -3.03125,1.8125 c 1.047126,0.02839 2.119603,0.199574 3.1875,0.53125 0.01064,0.01019 0.02106,0.02061 0.03125,0.03125 1.05061,0.39455 2.152068,1.382282 2.25,2.90625 0.01301,0.125856 0.0024,0.253033 -0.03125,0.375 -2.320259,7.39227 -4.825609,14.992744 -9.25,20.90625 1.6e-4,0.01042 1.6e-4,0.02083 0,0.03125 -1.066503,1.378401 -2.411783,2.732298 -4,3.59375 -1.588217,0.861452 -3.508934,1.17915 -5.4375,0.4375 -0.01042,1.6e-4 -0.02083,1.6e-4 -0.03125,0 -1.480268,-0.662044 -2.315533,-2.04896 -2.78125,-3.46875 -0.465717,-1.41979 -0.630657,-2.94174 -0.65625,-4.25 -0.304844,-7.715789 3.367147,-14.101327 8,-17.96875 0.01042,-1.6e-4 0.02083,-1.6e-4 0.03125,0 2.4691,-1.982494 5.512239,-3.211103 8.6875,-3.125 z"
     inkscape:connector-curvature="0"
     id="path3292"
     style="font-size:55.90206146px;font-style:normal;font-variant:normal;font-weight:normal;font-stretch:normal;text-align:start;line-height:100%;writing-mode:lr-tb;text-anchor:start;opacity:0.4;fill:none;stroke:url(#linearGradient3294);stroke-width:0.99999994;stroke-linecap:butt;stroke-linejoin:miter;stroke-miterlimit:4;stroke-opacity:1;stroke-dasharray:none;stroke-dashoffset:0;marker:none;visibility:visible;display:inline;overflow:visible;enable-background:accumulate;font-family:Gabrielle;-inkscape-font-specification:Gabrielle" />
  <path
     d="m 39.090361,59.499999 c 0,0 -4.77853,-14.999999 -4.77853,-14.999999 0,0 -19.572183,0 -19.572183,0 0,0 -4.8974795,14.999999 -4.8974795,14.999999 0,0 -4.2281129,0 -6.3421686,0 6.0385546,-17 12.0771081,-33.999999 18.1156651,-50.9999994 1.911645,0 3.823291,0 5.734939,0 C 33.400402,25.5 39.450202,42.499999 45.500002,59.499999 c -2.136545,0 -6.409641,0 -6.409641,0 z M 32.374999,38.5 c 0,0 -7.874999,-22.086209 -7.874999,-22.086209 0,0 -7.875,22.086209 -7.875,22.086209 0,0 15.749999,0 15.749999,0 z"
     inkscape:connector-curvature="0"
     id="text2396"
     style="font-size:40px;font-style:normal;font-variant:normal;font-weight:normal;font-stretch:normal;fill:url(#linearGradient3266);fill-opacity:1;stroke:#333333;stroke-width:0.99999982px;stroke-linecap:butt;stroke-linejoin:miter;stroke-opacity:1;font-family:Droid Sans;-inkscape-font-specification:Sans" />
  <path
     d="m 44.099466,58.553529 c 0,0 -17.447924,-49.053529 -17.447924,-49.053529 0,0 -4.328477,0 -4.328477,0 0,0 -17.465426,49.216681 -17.465426,49.216681"
     inkscape:connector-curvature="0"
     id="path3422"
     style="font-size:40px;font-style:normal;font-variant:normal;font-weight:normal;font-stretch:normal;opacity:0.3;fill:none;stroke:url(#linearGradient3263);stroke-width:0.99999982px;stroke-linecap:butt;stroke-linejoin:miter;stroke-opacity:1;font-family:Droid Sans;-inkscape-font-specification:Sans" />
  <path
     d="m 24.5,13.5 9.312805,26 -18.62561,0 L 24.5,13.5 z"
     inkscape:connector-curvature="0"
     id="path3447"
     style="opacity:0.2;fill:none;stroke:url(#linearGradient3260);stroke-width:0.99999982px;stroke-linecap:butt;stroke-linejoin:round;stroke-opacity:1" />
</svg>
