<svg xmlns="http://www.w3.org/2000/svg" xmlns:xlink="http://www.w3.org/1999/xlink" viewBox="0 0 64 64"><defs><linearGradient id="a"><stop offset="0"/><stop offset="1" stop-opacity="0"/></linearGradient><linearGradient id="b"><stop offset="0" stop-color="#fff"/><stop offset="1" stop-color="#fff" stop-opacity="0"/></linearGradient><linearGradient id="c"><stop offset="0"/><stop offset="1" stop-opacity="0"/></linearGradient><linearGradient id="d"><stop offset="0" stop-color="#e8e8e8"/><stop offset="1" stop-color="#a5a6a8"/></linearGradient><linearGradient id="e"><stop offset="0" stop-color="#878a85"/><stop offset="1" stop-color="#3e3f3d"/></linearGradient><linearGradient id="g"><stop offset="0" stop-color="#4c4c4c"/><stop offset="1" stop-color="#d3d7cf"/></linearGradient><linearGradient id="f"><stop offset="0" stop-color="#767973"/><stop offset="1" stop-color="#202120"/></linearGradient><linearGradient id="h"><stop offset="0" stop-color="#fff"/><stop offset="1" stop-color="#fff" stop-opacity="0"/></linearGradient><linearGradient id="i"><stop offset="0" stop-color="#fff" stop-opacity="0"/><stop offset=".5" stop-color="#fff"/><stop offset="1" stop-color="#fff" stop-opacity="0"/></linearGradient><linearGradient id="j"><stop offset="0" stop-color="#fff"/><stop offset="1" stop-color="#fff" stop-opacity="0"/></linearGradient><linearGradient id="l"><stop offset="0" stop-color="#4b4b4b"/><stop offset="1" stop-color="#babdb6"/></linearGradient><linearGradient id="k"><stop offset="0" stop-color="#eeeeec"/><stop offset="1" stop-color="#61635f"/></linearGradient><linearGradient id="m"><stop offset="0" stop-color="#383937"/><stop offset="1" stop-color="#595b57"/></linearGradient><linearGradient id="n"><stop offset="0" stop-color="#fff"/><stop offset="1" stop-color="#fff" stop-opacity="0"/></linearGradient><linearGradient id="p"><stop offset="0" stop-color="#a0a0a0"/><stop offset="1" stop-color="#4a4a4a"/></linearGradient><linearGradient id="o"><stop offset="0" stop-color="#babdb6"/><stop offset=".437" stop-color="#eeeeec"/><stop offset="1" stop-color="#555753"/></linearGradient><radialGradient cx="11.402" cy="36.863" r="10.695" fx="11.402" fy="36.863" id="q" xlink:href="#a" gradientUnits="userSpaceOnUse" gradientTransform="matrix(2.25005 0 0 1.16938 5.177 6.618)"/><linearGradient x1="16.79" y1="21.27" x2="29.694" y2="46.259" id="F" xlink:href="#b" gradientUnits="userSpaceOnUse" gradientTransform="matrix(1.5513 -.42565 .42333 1.6178 -12.365 -2.95)"/><linearGradient x1="23.238" y1="12.159" x2="29.893" y2="26.354" id="D" xlink:href="#c" gradientUnits="userSpaceOnUse" gradientTransform="matrix(1.27754 -.3417 .37756 1.4066 -3.265 1.412)"/><radialGradient cx="30.685" cy="42.261" r="8.228" fx="30.685" fy="42.261" id="E" xlink:href="#d" gradientUnits="userSpaceOnUse" gradientTransform="matrix(5.6831 -1.34305 -.95886 -3.57223 -106.636 205.475)"/><radialGradient cx="20.884" cy="20.434" r="4" fx="20.884" fy="20.434" id="C" xlink:href="#e" gradientUnits="userSpaceOnUse" gradientTransform="matrix(1.85203 -.49538 .59142 2.2033 -17.352 -3.847)"/><radialGradient cx="23.165" cy="30.233" r="8.189" fx="23.165" fy="30.233" id="A" xlink:href="#f" gradientUnits="userSpaceOnUse" gradientTransform="matrix(3.03148 -.66326 1.14994 5.39612 -68.81 -108.063)"/><linearGradient x1="33.431" y1="45.052" x2="33.431" y2=".31" id="B" xlink:href="#g" gradientUnits="userSpaceOnUse" gradientTransform="matrix(1.7521 -.47596 .45092 1.7061 -17.838 -3.646)"/><linearGradient x1="19.24" y1="4.811" x2="11.324" y2="35.458" id="z" xlink:href="#h" gradientUnits="userSpaceOnUse" gradientTransform="matrix(1.2778 -.34178 .3301 1.22974 4.72 12.503)"/><linearGradient x1="20.226" y1="20.334" x2="11.438" y2="21.75" id="y" xlink:href="#i" gradientUnits="userSpaceOnUse" gradientTransform="matrix(.94295 -.25222 .379 1.41193 1.43 4.034)"/><radialGradient cx="23.987" cy="27.053" r="7.75" fx="23.987" fy="27.053" id="x" xlink:href="#j" gradientUnits="userSpaceOnUse" gradientTransform="matrix(-.45513 .12174 -.48793 -1.81778 50.92 81.744)"/><radialGradient cx="9.32" cy="18.817" r="12.5" fx="9.32" fy="18.817" id="v" xlink:href="#k" gradientUnits="userSpaceOnUse" gradientTransform="matrix(1.20672 .4674 -.86605 2.01506 28.18 -11.51)"/><linearGradient x1="7.75" y1="33.047" x2="4.643" y2="12.064" id="w" xlink:href="#l" gradientUnits="userSpaceOnUse" gradientTransform="matrix(1.28918 -.34483 .33305 1.2408 4.46 12.046)"/><linearGradient x1="80.693" y1="31.561" x2="77.125" y2="14" id="u" xlink:href="#m" gradientUnits="userSpaceOnUse" gradientTransform="matrix(1.41605 -.37894 .37943 1.4142 -99.647 36.23)"/><linearGradient x1="9.883" y1="14.051" x2="5.101" y2="30.001" id="t" xlink:href="#n" gradientUnits="userSpaceOnUse" gradientTransform="matrix(1.31913 -.35163 .39548 1.46832 .606 8.084)"/><linearGradient x1="102.357" y1="-41.092" x2="82.681" y2="-41.092" id="r" xlink:href="#o" gradientUnits="userSpaceOnUse" gradientTransform="matrix(.17352 .64643 -.61143 .16354 -27.162 -20.8)" spreadMethod="reflect"/><linearGradient x1="84.426" y1="8.293" x2="102.426" y2="8.293" id="s" xlink:href="#p" gradientUnits="userSpaceOnUse" gradientTransform="matrix(.379 1.41193 -1.41442 .37832 -4.558 -97.315)"/></defs><path d="M54.896 49.724c0 6.908-10.774 12.507-24.064 12.507-13.29 0-24.064-5.59-24.064-12.5 0-6.904 10.774-12.503 24.064-12.503 13.29 0 24.064 5.6 24.064 12.506z" opacity=".3" fill="url(#q)"/><path d="M18.472 38.016c1.15 4.29.185 8.274-2.16 8.9-2.342.627-5.175-2.34-6.327-6.63-1.15-4.29-.184-8.274 2.16-8.9 2.343-.628 5.176 2.34 6.327 6.63z" fill="#2e3436" stroke="#555753" stroke-linecap="round"/><path d="M10.933 35.807a1.098 1.098 0 1 1-2.122.567 1.098 1.098 0 0 1 2.13-.567z" fill="#babdb6"/><path d="M13.334 26.418c-2.83.757-3.684 6.748-1.906 13.373 1.778 6.63 5.52 11.39 8.35 10.63l5.126-1.37c2.83-.75 3.684-6.75 1.906-13.37-1.778-6.62-5.52-11.38-8.35-10.63l-5.126 1.37z" fill="url(#r)" stroke="url(#s)" overflow="visible"/><path d="M13.52 27.415c-.694.187-1.582 1.374-1.888 3.597-.307 2.222-.16 5.138.718 8.394.877 3.257 2.527 6.16 3.91 7.93 1.382 1.773 2.574 2.315 3.268 2.13l5.276-1.407c.694-.19 1.455-1.25 1.76-3.47.308-2.23.11-5.34-.768-8.6s-2.273-6.06-3.655-7.83c-1.38-1.77-2.7-2.34-3.39-2.16z" opacity=".4" fill="none" stroke="url(#t)" stroke-linecap="round"/><path d="M18.52 25.83c-2.89.772-3.88 6.46-2.206 12.692 1.672 6.233 5.374 10.664 8.264 9.89l.903-.24c2.89-.774 3.88-6.46 2.21-12.694-1.67-6.233-5.37-10.664-8.26-9.89l-.902.24z" fill="url(#u)"/><path d="M20.167 37.102C23.664 50.13 38.657 54.1 46.702 51.948c5.57-1.49 7.44-11.82 4.406-23.122-3.034-11.3-9.827-19.314-15.396-17.824-8.046 2.152-19.042 13.072-15.545 26.1z" fill="url(#v)" stroke="url(#w)" stroke-linecap="round"/><path d="M52.27 28.675c3.56 13.257-.047 25.74-8.054 27.88-8.007 2.142-17.382-6.868-20.94-20.124-3.56-13.25.047-25.73 8.054-27.88 8.007-2.14 17.383 6.87 20.94 20.13z" fill="url(#x)"/><path d="M25.984 17.432c-2.73 3.054-5.578 9.34-7.684 15.85 3.392-2.612 7.168-4.595 10.796-5.247z" opacity=".734" fill="url(#y)" fill-rule="evenodd"/><path d="M36.015 12.7c-3.573.955-8.623 4.31-11.73 8.65-3.11 4.337-4.778 9.514-3.152 15.572 1.626 6.058 6.428 10.635 11.293 12.84 4.864 2.206 10.25 2.015 13.82 1.06 2.023-.542 3.656-2.88 4.388-6.776.733-3.895.504-9.125-.958-14.572-1.462-5.446-3.883-10.09-6.47-13.097-2.584-3.007-5.17-4.22-7.19-3.678z" opacity=".4" fill="none" stroke="url(#z)" stroke-linecap="round"/><path d="M52.58 28.31c4.123 15.607 1.388 29.91-6.112 31.947-7.5 2.037-16.922-8.962-21.047-24.568-4.12-15.61-1.38-29.91 6.12-31.95C39.04 1.7 48.465 12.7 52.59 28.3z" fill="url(#A)" stroke="url(#B)" stroke-linecap="round"/><path d="M37.89 32.503c.942 3.507-1.664 7.255-4.045 7.892-2.38.637-5.078-1.693-6.02-5.2-.94-3.507.228-6.87 2.61-7.507 2.38-.637 6.515 1.308 7.456 4.815z" fill="url(#C)" stroke="#3e3f3d" stroke-linecap="round"/><path d="M49.24 29.89c2.232 13.02 2.023 24.024-3.445 25.487-5.47 1.463-12.845-7.638-16.3-20.505C26.045 22.006 27.77 9.9 33.29 8.64c5.83-1.332 12.58 9.94 15.476 19.45z" opacity=".3" fill="none" stroke="url(#D)" stroke-linecap="round"/><path d="M13.53 31.187a1.465 1.465 0 0 1-2.83.757 1.465 1.465 0 0 1 2.83-.757z" fill="#fff"/><path d="M31.705 4.148c-4.012.747-6.45 6.165-7.38 11.617-.932 5.45-.64 12.598 1.32 19.897 1.96 7.3 5.52 13.8 9.057 18.055 3.537 4.256 7.753 6.95 11.477 5.954 3.72-.99 6.37-5.37 7.3-10.82.58-3.402.633-8.452.112-12.76-.017-.135-.045-.272-.063-.41a54.49 54.49 0 0 0-.386-2.5 54.31 54.31 0 0 0-.45-2.383c-.01-.045-.027-.09-.036-.133a57.64 57.64 0 0 0-.644-2.57 57.566 57.566 0 0 0-.767-2.68c-.246-.776-.53-1.544-.803-2.29a54.51 54.51 0 0 0-.917-2.356c-.053-.13-.093-.26-.15-.387-1.705-3.99-3.56-7.18-5.77-9.84-3.535-4.256-7.32-7.24-11.906-6.386zm1.393 3.93c2.72-.728 5.77 1.27 8.926 5.084 1.973 2.384 3.404 5.034 4.98 8.692 1.906 4.606 3.523 9.654 4.19 14.218.467 3.955.45 8.567-.064 11.616-.824 4.88-2.427 7.668-5.146 8.395-2.72.727-6.016-1.063-9.173-4.877-3.15-3.813-6.11-9.547-7.92-16.277s-2.11-13.18-1.29-18.05c.83-4.88 2.788-8.08 5.5-8.81z" fill="url(#E)"/><path d="M52.093 30.502c3.225 15.158.694 26.834-5.946 28.656-6.64 1.822-16.24-9.273-20.113-24.072-3.872-14.798-.62-28.63 6.018-30.453 6.64-1.822 16.6 10.496 19.682 24.863z" opacity=".4" fill="none" stroke="url(#F)" stroke-linecap="round"/><path d="M26.365 16.877a1.465 1.465 0 1 1-2.83.757 1.465 1.465 0 1 1 2.83-.757z" opacity=".6" fill="#fff"/></svg>