<svg xmlns="http://www.w3.org/2000/svg" xmlns:xlink="http://www.w3.org/1999/xlink" viewBox="0 0 64 64"><defs><linearGradient x1="24" y1="5" x2="24" y2="43" id="j" xlink:href="#a" gradientUnits="userSpaceOnUse" gradientTransform="matrix(1.43243 0 0 1.43628 -2.378 -2.47)"/><linearGradient id="a"><stop offset="0" stop-color="#fff"/><stop offset=".063" stop-color="#fff" stop-opacity=".235"/><stop offset=".951" stop-color="#fff" stop-opacity=".157"/><stop offset="1" stop-color="#fff" stop-opacity=".392"/></linearGradient><radialGradient cx="6.614" cy="10.008" r="12.672" fx="6.084" fy="10.008" id="i" xlink:href="#b" gradientUnits="userSpaceOnUse" gradientTransform="matrix(0 10.25894 -12.2318 0 155.42 -93.853)"/><radialGradient cx="4.993" cy="43.5" r="2.5" fx="4.993" fy="43.5" id="f" xlink:href="#c" gradientUnits="userSpaceOnUse" gradientTransform="matrix(2.00378 0 0 1.4 27.988 -17.4)"/><linearGradient id="c"><stop offset="0" stop-color="#181818"/><stop offset="1" stop-color="#181818" stop-opacity="0"/></linearGradient><radialGradient cx="4.993" cy="43.5" r="2.5" fx="4.993" fy="43.5" id="g" xlink:href="#d" gradientUnits="userSpaceOnUse" gradientTransform="matrix(2.00378 0 0 1.4 -20.012 -104.4)"/><linearGradient id="d"><stop offset="0" stop-color="#181818"/><stop offset="1" stop-color="#181818" stop-opacity="0"/></linearGradient><linearGradient id="e"><stop offset="0" stop-color="#181818" stop-opacity="0"/><stop offset=".5" stop-color="#181818"/><stop offset="1" stop-color="#181818" stop-opacity="0"/></linearGradient><linearGradient x1="25.058" y1="47.028" x2="25.058" y2="39.999" id="h" xlink:href="#e" gradientUnits="userSpaceOnUse"/><linearGradient id="b"><stop offset="0" stop-color="#fff3cb"/><stop offset=".262" stop-color="#fdde76"/><stop offset=".661" stop-color="#f9c440"/><stop offset="1" stop-color="#e48b20"/></linearGradient></defs><g opacity=".6"><path fill="url(#f)" d="M38 40h5v7h-5z" transform="matrix(1.57895 0 0 .7143 -5.895 27.93)"/><path transform="matrix(-1.57895 0 0 -.7143 -5.895 27.93)" fill="url(#g)" d="M-10-47h5v7h-5z"/><path fill="url(#h)" d="M10 40h28v7H10z" transform="matrix(1.57895 0 0 .7143 -5.895 27.93)"/></g><rect y="4.5" x="4.5" ry="3" rx="3" height="55" width="55" color="#000" overflow="visible" fill="url(#i)"/><rect y="5.429" x="5.5" ry="2" rx="2" height="53.142" width="53" opacity=".5" fill="none" stroke="url(#j)" stroke-linecap="round" stroke-linejoin="round"/><rect y="4.5" x="4.5" ry="3" rx="3" height="55" width="55" color="#000" overflow="visible" opacity=".5" fill="none" stroke="#915f00" stroke-linecap="round" stroke-linejoin="round"/><path d="M26.024 15a4 4 0 1 0 0 8 4 4 0 0 0 0-8zm-2 10c-1.334 0-2.275.814-2.645 1.553a3.05 3.05 0 0 0-.34 1.244l-3.974 11.916c-.457 1.315 1.572 1.924 1.914.574l3.044-8.81V50.5c0 .83.67 1.5 1.5 1.5s1.5-.67 1.5-1.5V40h2v10.5c0 .83.67 1.5 1.5 1.5s1.5-.67 1.5-1.5V30.463l3.086 6.943a1 1 0 0 0 .418.463l3.498 1.996V51c0 .554.446 1 1 1s1-.446 1-1v-5h2.008v5c0 .554.446 1 1 1s1-.446 1-1h-.01V40.535l3.445 2.297c1.113.77 2.246-.93 1.107-1.664l-4.5-3a1 1 0 0 0-.554-.168H37.79l-2.985-1.705L31 27.735a3.05 3.05 0 0 0-.332-1.182c-.37-.74-1.31-1.553-2.644-1.553zm16 5a3 3 0 1 0 0 6 3 3 0 0 0 0-6z" opacity=".2" fill="#fff"/><path d="M26.024 14a4 4 0 1 0 0 8 4 4 0 0 0 0-8zm-2 10c-1.334 0-2.275.814-2.645 1.553a3.05 3.05 0 0 0-.34 1.244l-3.974 11.916c-.457 1.315 1.572 1.924 1.914.574l3.044-8.81V49.5c0 .83.67 1.5 1.5 1.5s1.5-.67 1.5-1.5V39h2v10.5c0 .83.67 1.5 1.5 1.5s1.5-.67 1.5-1.5V29.463l3.086 6.943a1 1 0 0 0 .418.463l3.498 1.996V50c0 .554.446 1 1 1s1-.446 1-1v-5h2.008v5c0 .554.446 1 1 1s1-.446 1-1h-.01V39.535l3.445 2.297c1.113.77 2.246-.93 1.107-1.664l-4.5-3a1 1 0 0 0-.554-.168H37.79l-2.985-1.705L31 26.735a3.05 3.05 0 0 0-.332-1.182c-.37-.74-1.31-1.553-2.644-1.553zm16 5a3 3 0 1 0 0 6 3 3 0 0 0 0-6z" fill="#333"/></svg>