<?xml version="1.0" encoding="UTF-8" standalone="no"?>
<!-- Created with Inkscape (http://www.inkscape.org/) -->

<svg
   xmlns:svg="http://www.w3.org/2000/svg"
   xmlns="http://www.w3.org/2000/svg"
   xmlns:xlink="http://www.w3.org/1999/xlink"
   version="1.0"
   width="32"
   height="32"
   id="svg11300">
  <defs
     id="defs3">
    <linearGradient
       id="linearGradient6482">
      <stop
         id="stop6484"
         style="stop-color:#cd8033;stop-opacity:1"
         offset="0" />
      <stop
         id="stop6486"
         style="stop-color:#bb5e12;stop-opacity:1"
         offset="1" />
    </linearGradient>
    <linearGradient
       id="linearGradient7962">
      <stop
         id="stop7964"
         style="stop-color:white;stop-opacity:1"
         offset="0" />
      <stop
         id="stop7966"
         style="stop-color:white;stop-opacity:0"
         offset="1" />
    </linearGradient>
    <linearGradient
       id="linearGradient6288">
      <stop
         id="stop6290"
         style="stop-color:#969696;stop-opacity:1"
         offset="0" />
      <stop
         id="stop6292"
         style="stop-color:#bebebe;stop-opacity:1"
         offset="1" />
    </linearGradient>
    <linearGradient
       id="linearGradient6280">
      <stop
         id="stop6282"
         style="stop-color:white;stop-opacity:1"
         offset="0" />
      <stop
         id="stop6284"
         style="stop-color:#dcdcdc;stop-opacity:1"
         offset="1" />
    </linearGradient>
    <linearGradient
       id="linearGradient4103">
      <stop
         id="stop4105"
         style="stop-color:#edd563;stop-opacity:1"
         offset="0" />
      <stop
         id="stop4107"
         style="stop-color:#e08223;stop-opacity:1"
         offset="1" />
    </linearGradient>
    <linearGradient
       id="linearGradient5113">
      <stop
         id="stop5115"
         style="stop-color:white;stop-opacity:1"
         offset="0" />
      <stop
         id="stop5117"
         style="stop-color:white;stop-opacity:0"
         offset="1" />
    </linearGradient>
    <linearGradient
       id="linearGradient2264">
      <stop
         id="stop2266"
         style="stop-color:#d7e866;stop-opacity:1"
         offset="0" />
      <stop
         id="stop2268"
         style="stop-color:#8cab2a;stop-opacity:1"
         offset="1" />
    </linearGradient>
    <linearGradient
       id="linearGradient4103-772-865-112-606">
      <stop
         id="stop139214"
         style="stop-color:#a7bce2;stop-opacity:1"
         offset="0" />
      <stop
         id="stop139216"
         style="stop-color:#5077b1;stop-opacity:1"
         offset="1" />
    </linearGradient>
    <linearGradient
       id="linearGradient3688">
      <stop
         id="stop3690"
         style="stop-color:black;stop-opacity:1"
         offset="0" />
      <stop
         id="stop3692"
         style="stop-color:black;stop-opacity:0"
         offset="1" />
    </linearGradient>
    <linearGradient
       id="linearGradient3702">
      <stop
         id="stop3704"
         style="stop-color:black;stop-opacity:0"
         offset="0" />
      <stop
         id="stop3710"
         style="stop-color:black;stop-opacity:1"
         offset="0.5" />
      <stop
         id="stop3706"
         style="stop-color:black;stop-opacity:0"
         offset="1" />
    </linearGradient>
    <linearGradient
       x1="45"
       y1="24.999998"
       x2="45"
       y2="48"
       id="linearGradient6599"
       xlink:href="#linearGradient4103-772-865-112-606"
       gradientUnits="userSpaceOnUse"
       gradientTransform="matrix(0.6026372,0,0,0.638305,-1.118676,-1.783483)" />
    <linearGradient
       x1="37"
       y1="35.000004"
       x2="37"
       y2="48"
       id="linearGradient6602"
       xlink:href="#linearGradient2264"
       gradientUnits="userSpaceOnUse"
       gradientTransform="matrix(0.5985903,0,0,0.665953,-1.14785,-3.137063)" />
    <linearGradient
       x1="28.999998"
       y1="30"
       x2="28.999998"
       y2="48"
       id="linearGradient6605"
       xlink:href="#linearGradient4103"
       gradientUnits="userSpaceOnUse"
       gradientTransform="matrix(0.5996325,0,0,0.6469351,-1.389355,-2.230462)" />
    <linearGradient
       x1="72.795502"
       y1="37.000004"
       x2="72.90641"
       y2="49"
       id="linearGradient6607"
       xlink:href="#linearGradient6482"
       gradientUnits="userSpaceOnUse"
       gradientTransform="translate(-58,-20)" />
    <linearGradient
       x1="29"
       y1="7.9375"
       x2="29"
       y2="40.9375"
       id="linearGradient6626"
       xlink:href="#linearGradient7962"
       gradientUnits="userSpaceOnUse"
       gradientTransform="matrix(0.6470588,0,0,0.9999966,-2.764707,-6.999959)" />
    <linearGradient
       x1="9.4142141"
       y1="9.4142122"
       x2="48.850956"
       y2="34.939339"
       id="linearGradient6637"
       xlink:href="#linearGradient6280"
       gradientUnits="userSpaceOnUse"
       gradientTransform="matrix(0.658776,0,0,0.7781366,-3.104501,-4.118996)" />
    <linearGradient
       x1="48.850956"
       y1="34.939339"
       x2="9.4142141"
       y2="9.4142122"
       id="linearGradient6639"
       xlink:href="#linearGradient6288"
       gradientUnits="userSpaceOnUse"
       gradientTransform="matrix(0.658776,0,0,0.7781366,-3.104501,-4.118996)" />
    <radialGradient
       cx="4.9929786"
       cy="43.5"
       r="2.5"
       fx="4.9929786"
       fy="43.5"
       id="radialGradient6726"
       xlink:href="#linearGradient3688"
       gradientUnits="userSpaceOnUse"
       gradientTransform="matrix(2.2071755,0,0,1.5999984,42.315319,-13.885907)" />
    <radialGradient
       cx="4.9929786"
       cy="43.5"
       r="2.5"
       fx="4.9929786"
       fy="43.5"
       id="radialGradient6728"
       xlink:href="#linearGradient3688"
       gradientUnits="userSpaceOnUse"
       gradientTransform="matrix(2.2071755,0,0,1.5999984,-33.529439,-125.31396)" />
    <linearGradient
       x1="25.058096"
       y1="47.027729"
       x2="25.058096"
       y2="39.999443"
       id="linearGradient6730"
       xlink:href="#linearGradient3702"
       gradientUnits="userSpaceOnUse"
       gradientTransform="matrix(1.1015037,0,0,1.142856,11.48629,5.9997877)" />
    <radialGradient
       cx="4.9929786"
       cy="43.5"
       r="2.5"
       fx="4.9929786"
       fy="43.5"
       id="radialGradient6732"
       xlink:href="#linearGradient3688"
       gradientUnits="userSpaceOnUse"
       gradientTransform="matrix(2.0140075,0,0,1.0000001,41.93085,12.214021)" />
    <radialGradient
       cx="4.9929786"
       cy="43.5"
       r="2.5"
       fx="4.9929786"
       fy="43.5"
       id="radialGradient6734"
       xlink:href="#linearGradient3688"
       gradientUnits="userSpaceOnUse"
       gradientTransform="matrix(2.0140075,0,0,1.0000001,-33.913894,-99.21403)" />
    <linearGradient
       x1="25.058096"
       y1="47.027729"
       x2="25.058096"
       y2="39.999443"
       id="linearGradient6736"
       xlink:href="#linearGradient3702"
       gradientUnits="userSpaceOnUse"
       gradientTransform="matrix(1.0051021,0,0,0.7142858,13.799922,24.642594)" />
    <radialGradient
       cx="3.6256292"
       cy="-3.1657266e-06"
       r="13.000002"
       fx="3.6256292"
       fy="-3.1657266e-06"
       id="radialGradient6370"
       xlink:href="#linearGradient5113"
       gradientUnits="userSpaceOnUse"
       gradientTransform="matrix(0.7613086,0,0,0.4705125,0.8654061,2.9999993)" />
  </defs>
  <g
     id="g5590">
    <g
       id="g5561">
      <g
         transform="matrix(0.7645051,0,0,0.8750008,-12.991853,-26.249815)"
         id="g5723"
         style="stroke-width:1.40491486;stroke-miterlimit:4;stroke-dasharray:none">
        <rect
           width="5.5075183"
           height="7.9999919"
           x="53.343433"
           y="51.714027"
           id="rect5725"
           style="opacity:0.26234819;fill:url(#radialGradient6726);fill-opacity:1;stroke:none" />
        <rect
           width="5.5075183"
           height="7.9999919"
           x="-22.501328"
           y="-59.71402"
           transform="scale(-1,-1)"
           id="rect5727"
           style="opacity:0.26234819;fill:url(#radialGradient6728);fill-opacity:1;stroke:none" />
        <rect
           width="30.842104"
           height="7.9999924"
           x="22.501328"
           y="51.714027"
           id="rect5729"
           style="opacity:0.26234819;fill:url(#linearGradient6730);fill-opacity:1;stroke:none" />
        <rect
           width="5.0255103"
           height="5.0000005"
           x="51.993801"
           y="53.214027"
           id="rect5731"
           style="opacity:0.4;fill:url(#radialGradient6732);fill-opacity:1;stroke:none" />
        <rect
           width="5.0255103"
           height="5.0000005"
           x="-23.850945"
           y="-58.214027"
           transform="scale(-1,-1)"
           id="rect5733"
           style="opacity:0.4;fill:url(#radialGradient6734);fill-opacity:1;stroke:none" />
        <rect
           width="28.142859"
           height="5.000001"
           x="23.850945"
           y="53.214027"
           id="rect5735"
           style="opacity:0.4;fill:url(#linearGradient6736);fill-opacity:1;stroke:none" />
      </g>
      <rect
         width="27.010468"
         height="21.010452"
         x="2.4947624"
         y="2.4947827"
         id="rect5737"
         style="fill:url(#linearGradient6637);fill-opacity:1;fill-rule:evenodd;stroke:url(#linearGradient6639);stroke-width:0.98953366;stroke-linecap:round;stroke-linejoin:round;stroke-miterlimit:4;stroke-opacity:1;stroke-dasharray:none;stroke-dashoffset:0" />
      <rect
         width="10.001715"
         height="17.001717"
         x="17.499146"
         y="4.4991422"
         id="rect5739"
         style="fill:none;stroke:#bebebe;stroke-width:0.99828279;stroke-linecap:round;stroke-linejoin:miter;stroke-miterlimit:4;stroke-opacity:1;stroke-dasharray:none;stroke-dashoffset:0;display:inline;enable-background:new" />
      <rect
         width="7.0012941"
         height="17.001291"
         x="10.499352"
         y="4.4993539"
         id="rect5741"
         style="fill:none;stroke:#bebebe;stroke-width:0.99870843;stroke-linecap:round;stroke-linejoin:miter;stroke-miterlimit:4;stroke-opacity:1;stroke-dasharray:none;stroke-dashoffset:0;display:inline;enable-background:new" />
      <rect
         width="2.9905629"
         height="16.961533"
         x="4.5047188"
         y="4.5337496"
         id="rect5743"
         style="fill:none;stroke:#bebebe;stroke-width:1.00943732;stroke-linecap:round;stroke-linejoin:miter;stroke-miterlimit:4;stroke-opacity:1;stroke-dasharray:none;stroke-dashoffset:0" />
      <rect
         width="22.993063"
         height="1.9930649"
         x="4.5034676"
         y="14.503469"
         id="rect6693"
         style="fill:#fed995;fill-opacity:1;fill-rule:evenodd;stroke:#c7af64;stroke-width:1.00693583;stroke-linecap:round;stroke-linejoin:miter;stroke-miterlimit:4;stroke-opacity:1;stroke-dasharray:none;stroke-dashoffset:0;display:inline;enable-background:new" />
      <rect
         width="2.9903696"
         height="16.990372"
         x="7.5048141"
         y="4.5048132"
         id="rect5745"
         style="fill:none;stroke:#bebebe;stroke-width:1.00962877;stroke-linecap:round;stroke-linejoin:miter;stroke-miterlimit:4;stroke-opacity:1;stroke-dasharray:none;stroke-dashoffset:0;display:inline;enable-background:new" />
      <rect
         width="1"
         height="3"
         x="7.0000076"
         y="14.000002"
         id="rect6695"
         style="fill:#c7af64;fill-opacity:1;fill-rule:evenodd;stroke:none;display:inline;enable-background:new" />
      <rect
         width="22.992579"
         height="1.992983"
         x="4.5037117"
         y="4.5035105"
         id="rect5747"
         style="fill:#deaa76;fill-opacity:1;fill-rule:evenodd;stroke:#cd8033;stroke-width:1.00701606;stroke-linecap:round;stroke-linejoin:miter;stroke-miterlimit:4;stroke-opacity:1;stroke-dasharray:none;stroke-dashoffset:0" />
      <rect
         width="22.993063"
         height="1.9930649"
         x="4.5034637"
         y="9.5034695"
         id="rect5749"
         style="fill:#fed995;fill-opacity:1;fill-rule:evenodd;stroke:#c7af64;stroke-width:1.00693583;stroke-linecap:round;stroke-linejoin:miter;stroke-miterlimit:4;stroke-opacity:1;stroke-dasharray:none;stroke-dashoffset:0" />
      <path
         d="m 5,5.000001 0,1 22,0 0,-1 -22,0 z"
         id="path5757"
         style="opacity:0.1;fill:url(#linearGradient6626);fill-opacity:1;fill-rule:evenodd;stroke:none" />
      <rect
         width="1"
         height="3"
         x="7"
         y="3.9999998"
         id="rect5759"
         style="fill:#cd8033;fill-opacity:1;fill-rule:evenodd;stroke:none" />
      <rect
         width="1"
         height="3"
         x="-11"
         y="3.9999998"
         transform="scale(-1,1)"
         id="rect5761"
         style="fill:#cd8033;fill-opacity:1;fill-rule:evenodd;stroke:none;display:inline;enable-background:new" />
      <rect
         width="1"
         height="3"
         x="17"
         y="3.9999998"
         id="rect5763"
         style="fill:#cd8033;fill-opacity:1;fill-rule:evenodd;stroke:none;display:inline;enable-background:new" />
      <rect
         width="1"
         height="3"
         x="7"
         y="9.0000019"
         id="rect5765"
         style="fill:#c7af64;fill-opacity:1;fill-rule:evenodd;stroke:none;display:inline;enable-background:new" />
      <rect
         width="1"
         height="3"
         x="10"
         y="9.0000019"
         id="rect5767"
         style="fill:#c7af64;fill-opacity:1;fill-rule:evenodd;stroke:none;display:inline;enable-background:new" />
      <rect
         width="1"
         height="3"
         x="17"
         y="9.0000019"
         id="rect5769"
         style="fill:#c7af64;fill-opacity:1;fill-rule:evenodd;stroke:none;display:inline;enable-background:new" />
      <rect
         width="25.039623"
         height="19.039621"
         x="3.4801865"
         y="3.4801881"
         id="rect5789"
         style="opacity:0.8;fill:none;stroke:url(#radialGradient6370);stroke-width:0.96038073;stroke-linecap:round;stroke-linejoin:miter;stroke-miterlimit:4;stroke-opacity:1;stroke-dasharray:none;stroke-dashoffset:0" />
      <rect
         width="1"
         height="3"
         x="10.000008"
         y="14.000002"
         id="rect6697"
         style="fill:#c7af64;fill-opacity:1;fill-rule:evenodd;stroke:none;display:inline;enable-background:new" />
      <rect
         width="1"
         height="3"
         x="17.000008"
         y="14.000002"
         id="rect6699"
         style="fill:#c7af64;fill-opacity:1;fill-rule:evenodd;stroke:none;display:inline;enable-background:new" />
      <rect
         width="22.993063"
         height="1.9930649"
         x="4.5034676"
         y="19.503469"
         id="rect6701"
         style="fill:#fed995;fill-opacity:1;fill-rule:evenodd;stroke:#c7af64;stroke-width:1.00693583;stroke-linecap:round;stroke-linejoin:miter;stroke-miterlimit:4;stroke-opacity:1;stroke-dasharray:none;stroke-dashoffset:0;display:inline;enable-background:new" />
      <rect
         width="1"
         height="3"
         x="7.0000076"
         y="19.000002"
         id="rect6703"
         style="fill:#c7af64;fill-opacity:1;fill-rule:evenodd;stroke:none;display:inline;enable-background:new" />
      <rect
         width="1"
         height="3"
         x="10.000008"
         y="19.000002"
         id="rect6705"
         style="fill:#c7af64;fill-opacity:1;fill-rule:evenodd;stroke:none;display:inline;enable-background:new" />
      <rect
         width="1"
         height="3"
         x="17.000008"
         y="19.000002"
         id="rect6707"
         style="fill:#beaf6d;fill-opacity:1;fill-rule:evenodd;stroke:none;display:inline;enable-background:new" />
      <path
         d="m 9,11 0,2 3,0 0,1 -2,0 0,1 2,0 0,0.976016 -3,0 L 9,17 l 3,0 0,1 -2,0 0,1 2,0 0,0.952027 -3,0 L 9,21 l 3,0 0,1 -2,0 0,1 2,0 0,1 -3,0 0,1 3,0 0,1 -2,0 0,1 2,0 0,1 -1.6e-5,0 L 30,28 30,27 13,27 13,11 9,11 z"
         id="path6719"
         style="opacity:0.2;fill:#464646;fill-opacity:1;fill-rule:evenodd;stroke:none;display:inline;enable-background:new" />
      <rect
         width="3.0015948"
         height="11.001594"
         x="14.499207"
         y="17.49921"
         id="rect5797"
         style="fill:url(#linearGradient6605);fill-opacity:1;fill-rule:evenodd;stroke:url(#linearGradient6607);stroke-width:0.99840283;stroke-linecap:round;stroke-linejoin:miter;stroke-miterlimit:4;stroke-opacity:1;stroke-dasharray:none;stroke-dashoffset:0" />
      <rect
         width="3.0064516"
         height="8.0064554"
         x="19.496773"
         y="20.496777"
         id="rect5799"
         style="fill:url(#linearGradient6602);fill-opacity:1;fill-rule:evenodd;stroke:#42770c;stroke-width:0.99354714;stroke-linecap:round;stroke-linejoin:miter;stroke-miterlimit:4;stroke-opacity:1;stroke-dasharray:none;stroke-dashoffset:0;display:inline;enable-background:new" />
      <rect
         width="3.0088754"
         height="14.038147"
         x="24.49556"
         y="14.495569"
         id="rect5801"
         style="fill:url(#linearGradient6599);fill-opacity:1;fill-rule:evenodd;stroke:#0854a9;stroke-width:0.99112654;stroke-linecap:round;stroke-linejoin:miter;stroke-miterlimit:4;stroke-opacity:1;stroke-dasharray:none;stroke-dashoffset:0;display:inline;enable-background:new" />
      <path
         d="m 9,11 0,1 2,0 0,1 -1,0 0,1 1,0 0,0.976016 -2,0 L 9,16 l 2,0 0,1 -1,0 0,1 1,0 0,0.952027 -2,0 L 9,20 l 2,0 0,1 -1,0 0,1 1,0 0,1 -2,0 0,1 2,0 0,1 -1,0 0,1 1,0 0,3 0.999984,0 L 30,29 l 0,-1 -18.000016,0 0,-17 L 9,11 z"
         id="path5803"
         style="fill:#464646;fill-opacity:1;fill-rule:evenodd;stroke:none" />
      <path
         d="m 13,30 0,1 1,0 0,-1 -1,0 z m 2,0 0,1 1,0 0,-1 -1,0 z m 2,0 0,1 1,0 0,-1 -1,0 z m 2,0 0,1 1,0 0,-1 -1,0 z m 2,0 0,1 1,0 0,-1 -1,0 z m 2,0 0,1 1,0 0,-1 -1,0 z m 2,0 0,1 1,0 0,-1 -1,0 z m 2,0 0,1 1,0 0,-1 -1,0 z m 2,0 0,1 1,0 0,-1 -1,0 z"
         id="path6689"
         style="fill:#cd8033;fill-opacity:1;fill-rule:evenodd;stroke:none;display:inline;enable-background:new" />
      <path
         d="m 12,30 0,1 1,0 0,-1 -1,0 z m 2,0 0,1 1,0 0,-1 -1,0 z m 2,0 0,1 1,0 0,-1 -1,0 z m 2,0 0,1 1,0 0,-1 -1,0 z m 2,0 0,1 1,0 0,-1 -1,0 z m 2,0 0,1 1,0 0,-1 -1,0 z m 2,0 0,1 1,0 0,-1 -1,0 z m 2,0 0,1 1,0 0,-1 -1,0 z m 2,0 0,1 1,0 0,-1 -1,0 z"
         id="path6691"
         style="opacity:0.2;fill:#464646;fill-opacity:1;fill-rule:evenodd;stroke:none;display:inline;enable-background:new" />
    </g>
  </g>
</svg>
