<?xml version="1.0" encoding="UTF-8" standalone="no"?>
<!-- Created with Inkscape (http://www.inkscape.org/) -->

<svg
   xmlns:svg="http://www.w3.org/2000/svg"
   xmlns="http://www.w3.org/2000/svg"
   xmlns:xlink="http://www.w3.org/1999/xlink"
   version="1.0"
   width="32"
   height="32"
   id="svg2517">
  <defs
     id="defs2519">
    <linearGradient
       id="linearGradient8838">
      <stop
         id="stop8840"
         style="stop-color:black;stop-opacity:1"
         offset="0" />
      <stop
         id="stop8842"
         style="stop-color:black;stop-opacity:0"
         offset="1" />
    </linearGradient>
    <radialGradient
       cx="62.625"
       cy="4.625"
       r="10.625"
       fx="62.625"
       fy="4.625"
       id="radialGradient2495"
       xlink:href="#linearGradient8838"
       gradientUnits="userSpaceOnUse"
       gradientTransform="matrix(1.5058824,0,0,0.37647,-78.305888,26.258824)" />
    <linearGradient
       id="linearGradient2490-182-124">
      <stop
         id="stop2788"
         style="stop-color:#1f4b6a;stop-opacity:1"
         offset="0" />
      <stop
         id="stop2790"
         style="stop-color:#4083c2;stop-opacity:1"
         offset="1" />
    </linearGradient>
    <linearGradient
       x1="18.379412"
       y1="44.980297"
       x2="18.379412"
       y2="3.0816143"
       id="linearGradient2492"
       xlink:href="#linearGradient2490-182-124"
       gradientUnits="userSpaceOnUse"
       gradientTransform="matrix(0.7126612,0,0,0.7126613,-1.1038706,-1.1038704)" />
    <linearGradient
       id="linearGradient3242-187-536">
      <stop
         id="stop2778"
         style="stop-color:#8badea;stop-opacity:1"
         offset="0" />
      <stop
         id="stop2780"
         style="stop-color:#6396cd;stop-opacity:1"
         offset="0.26238" />
      <stop
         id="stop2782"
         style="stop-color:#3b7caf;stop-opacity:1"
         offset="0.66093999" />
      <stop
         id="stop2784"
         style="stop-color:#194c70;stop-opacity:1"
         offset="1" />
    </linearGradient>
    <radialGradient
       cx="23.895569"
       cy="3.9900031"
       r="20.397499"
       fx="23.895569"
       fy="3.9900031"
       id="radialGradient2488"
       xlink:href="#linearGradient3242-187-536"
       gradientUnits="userSpaceOnUse"
       gradientTransform="matrix(0,1.7008781,-2.245129,0,24.958071,-40.236051)" />
    <linearGradient
       id="linearGradient4873">
      <stop
         id="stop4875"
         style="stop-color:white;stop-opacity:1"
         offset="0" />
      <stop
         id="stop4877"
         style="stop-color:white;stop-opacity:0"
         offset="1" />
    </linearGradient>
    <linearGradient
       x1="63.397362"
       y1="-12.489107"
       x2="63.397362"
       y2="5.4675598"
       id="linearGradient2485"
       xlink:href="#linearGradient4873"
       gradientUnits="userSpaceOnUse"
       gradientTransform="matrix(1.5436509,0,0,1.5436158,-80.015712,21.419381)" />
  </defs>
  <g
     id="layer1">
    <path
       d="m 31.999998,28 c 0,2.209139 -7.163445,4 -16.000001,4 C 7.1634417,32 -3.2e-6,30.209139 -3.2e-6,28 c 0,-2.209139 7.1634449,-4 16.0000002,-4 8.836556,0 16.000001,1.790861 16.000001,4 l 0,0 z"
       id="path8836"
       style="opacity:0.3;fill:url(#radialGradient2495);fill-opacity:1;fill-rule:evenodd;stroke:none;stroke-width:0.99999988;marker:none;visibility:visible;display:inline;overflow:visible" />
    <path
       d="m 16.000001,1.5017975 c -7.9996072,0 -14.4982032,6.4985937 -14.4982032,14.4982015 0,7.999609 6.498596,14.498206 14.4982032,14.498203 7.999605,0 14.498209,-6.498594 14.498201,-14.498203 0,-7.9996078 -6.498596,-14.4982015 -14.498201,-14.4982015 z"
       id="path2555"
       style="fill:url(#radialGradient2488);fill-opacity:1;stroke:url(#linearGradient2492);stroke-width:1.00365412;stroke-linecap:round;stroke-linejoin:round;stroke-miterlimit:4;stroke-opacity:1;stroke-dasharray:none;stroke-dashoffset:0" />
    <path
       d="M 29.5,15.999522 C 29.5,23.455607 23.455399,29.5 16.000172,29.5 8.5442598,29.5 2.5,23.455539 2.5,15.999522 2.5,8.5437822 8.5442598,2.5000011 16.000172,2.5000011 23.455399,2.5000011 29.5,8.5437822 29.5,15.999522 l 0,0 z"
       id="path8655"
       style="opacity:0.4;fill:none;stroke:url(#linearGradient2485);stroke-width:1;stroke-miterlimit:4;stroke-opacity:1;stroke-dasharray:none" />
    <path
       d="m 14.13207,6.5024862 c 0.442593,4.0891718 0.949561,8.1502018 1.326321,12.2553898 0.378948,0 0.82341,0 1.202357,0 0.312512,-3.942284 0.816576,-7.860746 1.180191,-11.7981408 0.185353,-0.93232 -0.320739,-2.039275 -1.361617,-2.265787 -1.028546,-0.2844302 -2.177687,0.419908 -2.314454,1.425998 -0.02268,0.126298 -0.0328,0.25448 -0.0328,0.38254 l -1e-6,0 z M 14.000896,23.127906 c -0.0468,1.217192 1.36919,2.171347 2.578173,1.785452 1.170986,-0.282669 1.787762,-1.674751 1.187629,-2.664281 -0.537222,-1.022896 -2.112596,-1.359921 -3.018835,-0.577057 -0.458087,0.355967 -0.761713,0.887377 -0.746967,1.455888 l 0,-2e-6 z"
       id="path3295"
       style="font-size:62.4582634px;font-style:normal;font-variant:normal;font-weight:normal;font-stretch:normal;text-align:start;line-height:125%;writing-mode:lr-tb;text-anchor:start;opacity:0.2;fill:black;fill-opacity:1;stroke:none;font-family:Georgia" />
    <path
       d="m 14.13207,7.5024863 c 0.442593,4.0891717 0.949561,8.1502017 1.326321,12.2553897 0.378948,0 0.82341,0 1.202357,0 0.312512,-3.942284 0.816576,-7.860744 1.180191,-11.7981417 0.185353,-0.93232 -0.320739,-2.039275 -1.361617,-2.265787 -1.028546,-0.284429 -2.177687,0.419909 -2.314454,1.425999 -0.02268,0.126298 -0.0328,0.25448 -0.0328,0.38254 l -1e-6,0 z M 14.000896,24.127908 c -0.0468,1.21719 1.36919,2.171347 2.578173,1.78545 1.170986,-0.282668 1.787762,-1.674751 1.187629,-2.664279 -0.537222,-1.022897 -2.112596,-1.359921 -3.018835,-0.577057 -0.458087,0.355967 -0.761713,0.887377 -0.746967,1.455887 l 0,-10e-7 z"
       id="text2315"
       style="font-size:62.4582634px;font-style:normal;font-variant:normal;font-weight:normal;font-stretch:normal;text-align:start;line-height:125%;writing-mode:lr-tb;text-anchor:start;fill:white;fill-opacity:1;stroke:none;font-family:Georgia" />
  </g>
</svg>
