<svg xmlns="http://www.w3.org/2000/svg" xmlns:xlink="http://www.w3.org/1999/xlink" viewBox="0 0 32 32"><defs><linearGradient x1="71.204" y1="6.238" x2="71.204" y2="44.341" id="a" gradientUnits="userSpaceOnUse" gradientTransform="matrix(.35135 0 0 -.35135 -9.204 24.91)"><stop offset="0" stop-color="#fff"/><stop offset=".508" stop-color="#fff" stop-opacity=".235"/><stop offset=".835" stop-color="#fff" stop-opacity=".157"/><stop offset="1" stop-color="#fff" stop-opacity=".392"/></linearGradient><radialGradient cx="23.896" cy="3.99" r="20.397" id="b" gradientUnits="userSpaceOnUse" gradientTransform="matrix(0 .64503 -.85142 0 19.397 -5.326)"><stop offset="0" stop-color="#f8b17e"/><stop offset=".262" stop-color="#e35d4f"/><stop offset=".661" stop-color="#c6262e"/><stop offset="1" stop-color="#690b54"/></radialGradient><linearGradient x1="7.078" y1="3.082" x2="7.078" y2="45.369" id="c" gradientUnits="userSpaceOnUse" gradientTransform="translate(9.514 9.514) scale(.27026)"><stop offset="0" stop-color="#791235"/><stop offset="1" stop-color="#c7321f"/></linearGradient><linearGradient x1="71.204" y1="6.238" x2="71.204" y2="44.341" id="d" gradientUnits="userSpaceOnUse" gradientTransform="translate(-32.47 -1.133) scale(.67568)"><stop offset="0" stop-color="#fff"/><stop offset=".508" stop-color="#fff" stop-opacity=".235"/><stop offset=".835" stop-color="#fff" stop-opacity=".157"/><stop offset="1" stop-color="#fff" stop-opacity=".392"/></linearGradient><radialGradient cx="23.896" cy="3.99" r="20.397" id="e" gradientUnits="userSpaceOnUse" gradientTransform="matrix(0 1.58356 -2.09027 0 24.34 -36.357)"><stop offset="0" stop-color="#fff"/><stop offset=".262" stop-color="#ddd"/><stop offset=".661" stop-color="#abacae"/><stop offset="1" stop-color="#89898b"/></radialGradient><linearGradient x1="18.379" y1="44.98" x2="18.379" y2="3.082" id="f" gradientUnits="userSpaceOnUse" gradientTransform="translate(.076 .076) scale(.6635)"><stop offset="0" stop-color="#505050"/><stop offset="1" stop-color="#aaa"/></linearGradient><radialGradient cx="62.625" cy="4.625" r="10.625" id="g" gradientUnits="userSpaceOnUse" gradientTransform="matrix(1.50588 0 0 .37647 -78.306 26.26)"><stop offset="0"/><stop offset="1" stop-opacity="0"/></radialGradient><linearGradient x1="71.204" y1="6.238" x2="71.204" y2="44.341" id="p" xlink:href="#a" gradientUnits="userSpaceOnUse" gradientTransform="matrix(.35135 0 0 -.35135 -9.204 24.91)"/><radialGradient cx="23.896" cy="3.99" r="20.397" id="n" xlink:href="#b" gradientUnits="userSpaceOnUse" gradientTransform="matrix(0 .64503 -.85142 0 19.397 -5.326)"/><linearGradient x1="7.078" y1="3.082" x2="7.078" y2="45.369" id="o" xlink:href="#c" gradientUnits="userSpaceOnUse" gradientTransform="translate(9.514 9.514) scale(.27026)"/><linearGradient x1="71.204" y1="6.238" x2="71.204" y2="44.341" id="m" xlink:href="#d" gradientUnits="userSpaceOnUse" gradientTransform="translate(-32.47 -1.133) scale(.67568)"/><radialGradient cx="23.896" cy="3.99" r="20.397" id="k" xlink:href="#e" gradientUnits="userSpaceOnUse" gradientTransform="matrix(0 1.58356 -2.09027 0 24.34 -36.357)"/><linearGradient x1="18.379" y1="44.98" x2="18.379" y2="3.082" id="l" xlink:href="#f" gradientUnits="userSpaceOnUse" gradientTransform="translate(.076 .076) scale(.6635)"/><radialGradient cx="62.625" cy="4.625" r="10.625" id="j" xlink:href="#g" gradientUnits="userSpaceOnUse" gradientTransform="matrix(1.50588 0 0 .37647 -78.306 26.26)"/><linearGradient x1="71.204" y1="6.238" x2="71.204" y2="44.341" id="h" gradientUnits="userSpaceOnUse" gradientTransform="translate(-32.47 -1.133) scale(.67568)"><stop offset="0" stop-color="#fff"/><stop offset=".508" stop-color="#fff" stop-opacity=".235"/><stop offset=".835" stop-color="#fff" stop-opacity=".157"/><stop offset="1" stop-color="#fff" stop-opacity=".392"/></linearGradient><linearGradient x1="71.204" y1="6.238" x2="71.204" y2="44.341" id="q" xlink:href="#h" gradientUnits="userSpaceOnUse" gradientTransform="translate(-1.45 9.832) scale(.24324)"/><linearGradient id="i"><stop offset="0" stop-color="#fff"/><stop offset="1" stop-color="#fff" stop-opacity="0"/></linearGradient><linearGradient x1="68.313" y1="52.925" x2="68.313" y2="65.922" id="r" xlink:href="#i" gradientUnits="userSpaceOnUse"/></defs><path d="M32 28c0 2.21-7.163 4-16 4S0 30.21 0 28s7.163-4 16-4 16 1.79 16 4z" opacity=".3" fill="url(#j)" fill-rule="evenodd"/><path d="M16 2.502C8.552 2.502 2.502 8.552 2.502 16c0 7.448 6.05 13.498 13.498 13.498 7.448 0 13.498-6.05 13.498-13.498 0-7.448-6.05-13.498-13.498-13.498z" fill="url(#k)" stroke="url(#l)" stroke-width="1.004" stroke-linecap="round" stroke-linejoin="round"/><path d="M28.5 16c0 6.903-5.597 12.5-12.5 12.5S3.5 22.903 3.5 16C3.5 9.096 9.097 3.5 16 3.5S28.5 9.096 28.5 16z" opacity=".8" color="#000" fill="none" stroke="url(#m)" stroke-linecap="round" stroke-linejoin="round"/><path d="M16 10.502A5.502 5.502 0 0 0 10.502 16 5.502 5.502 0 0 0 16 21.498 5.502 5.502 0 0 0 21.498 16 5.502 5.502 0 0 0 16 10.502z" fill="url(#n)" stroke="url(#o)" stroke-width="1.004" stroke-linecap="round" stroke-linejoin="round"/><path d="M22.5 16a6.5 6.5 0 1 0-13 0 6.5 6.5 0 0 0 13 0z" opacity=".5" color="#000" fill="none" stroke="url(#p)" stroke-linecap="round" stroke-linejoin="round"/><path d="M20.5 16a4.5 4.5 0 1 1-9 0 4.5 4.5 0 0 1 9 0z" opacity=".5" color="#000" fill="none" stroke="url(#q)" stroke-linecap="round" stroke-linejoin="round"/><path d="M78.34 64.35a11.424 11.424 0 1 1-22.85 0 11.424 11.424 0 1 1 22.85 0z" transform="translate(-1.57 -1.898) scale(.2626)" opacity=".4" color="#000" fill="url(#r)" overflow="visible"/></svg>