<svg xmlns="http://www.w3.org/2000/svg" xmlns:xlink="http://www.w3.org/1999/xlink" viewBox="0 0 32 32"><defs><linearGradient id="a"><stop offset="0" stop-color="#fff"/><stop offset=".508" stop-color="#fff" stop-opacity=".235"/><stop offset=".835" stop-color="#fff" stop-opacity=".157"/><stop offset="1" stop-color="#fff" stop-opacity=".392"/></linearGradient><linearGradient id="b"><stop offset="0" stop-color="#f8b17e"/><stop offset=".262" stop-color="#e35d4f"/><stop offset=".661" stop-color="#c6262e"/><stop offset="1" stop-color="#690b54"/></linearGradient><linearGradient xlink:href="#a" id="h" gradientUnits="userSpaceOnUse" gradientTransform="translate(-36.346 -2.504) scale(.72973)" x1="71.204" y1="6.238" x2="71.204" y2="44.341"/><radialGradient xlink:href="#b" id="f" gradientUnits="userSpaceOnUse" gradientTransform="matrix(0 2.05908 -2.71794 0 26.845 -48.288)" cx="21.995" cy="4.038" fx="21.995" fy="4.038" r="20.397"/><linearGradient xlink:href="#c" id="g" gradientUnits="userSpaceOnUse" gradientTransform="translate(-24 1.796) scale(.44444)" x1="90.944" y1="10.3" x2="90.944" y2="56.572"/><linearGradient id="c"><stop offset="0" stop-color="#fffdf3"/><stop offset="1" stop-color="#fbebeb"/></linearGradient><linearGradient id="d"><stop offset="0" stop-color="#3d3d3d"/><stop offset=".5" stop-color="#686868" stop-opacity=".498"/><stop offset="1" stop-color="#686868" stop-opacity="0"/></linearGradient><radialGradient xlink:href="#d" id="e" gradientUnits="userSpaceOnUse" gradientTransform="matrix(.17525 0 0 .05576 -1.377 18.12)" cx="99.157" cy="186.171" fx="99.157" fy="186.171" r="62.769"/></defs><path d="M27 28.5a11 3.5 0 1 1-22 0 11 3.5 0 1 1 22 0z" fill="url(#e)"/><path d="M16 1.502C8 1.502 1.502 8 1.502 16 1.502 24 8 30.498 16 30.498 24 30.498 30.498 24 30.498 16 30.498 8 24 1.502 16 1.502z" fill="url(#f)"/><path d="M11.21 9.75L9 11.96l4.558 4.534c.14.142.14.37 0 .512L9 21.54l2.21 2.21 4.534-4.535c.142-.14.37-.14.512 0l4.535 4.535L23 21.54l-4.535-4.534a.364.364 0 0 1 0-.512L23 11.96l-2.21-2.21-4.534 4.535a.364.364 0 0 1-.512 0L11.21 9.75z" opacity=".3" fill="#661215" fill-rule="evenodd" color="#000" overflow="visible"/><path d="M11.094 8.75a.997.997 0 0 0-.594.28l-2.22 2.22a.997.997 0 0 0 .033 1.438l4.093 4.062-4.094 4.063a.997.997 0 0 0-.03 1.437l2.218 2.22a.997.997 0 0 0 1.438 0L16 20.405l4.063 4.063a.997.997 0 0 0 1.437 0l2.22-2.22a.997.997 0 0 0 0-1.438l-4.064-4.062 4.063-4.063a.997.997 0 0 0 0-1.437L21.5 9.03a.997.997 0 0 0-1.438 0L16 13.095 11.937 9.03a.997.997 0 0 0-.843-.28z" opacity=".15" color="#000" fill="#661215" fill-rule="evenodd" overflow="visible"/><path d="M11.21 9L9 11.21l4.558 4.534c.14.142.14.37 0 .512L9 20.79 11.21 23l4.534-4.535c.142-.14.37-.14.512 0L20.79 23 23 20.79l-4.535-4.534a.364.364 0 0 1 0-.512L23 11.21 20.79 9l-4.534 4.535a.364.364 0 0 1-.512 0L11.21 9z" fill="url(#g)" color="#000" overflow="visible"/><path d="M29.5 16c0 7.456-6.045 13.5-13.5 13.5-7.456 0-13.5-6.044-13.5-13.5S8.544 2.5 16 2.5c7.455 0 13.5 6.044 13.5 13.5z" opacity=".5" color="#000" fill="none" stroke="url(#h)" stroke-linecap="round" stroke-linejoin="round" overflow="visible"/><path d="M16 1.502C8 1.502 1.502 8 1.502 16 1.502 24 8 30.498 16 30.498 24 30.498 30.498 24 30.498 16 30.498 8 24 1.502 16 1.502z" fill="none" stroke="#6f0000" stroke-linecap="round" stroke-linejoin="round" opacity=".5" color="#000" overflow="visible"/></svg>