<?xml version="1.0" encoding="UTF-8" standalone="no"?>
<svg
   version="1.0"
   width="32"
   height="32"
   id="svg2457"
   sodipodi:docname="system-run.svg"
   inkscape:version="1.2.2 (b0a8486541, 2022-12-01)"
   xmlns:inkscape="http://www.inkscape.org/namespaces/inkscape"
   xmlns:sodipodi="http://sodipodi.sourceforge.net/DTD/sodipodi-0.dtd"
   xmlns:xlink="http://www.w3.org/1999/xlink"
   xmlns="http://www.w3.org/2000/svg"
   xmlns:svg="http://www.w3.org/2000/svg"
   xmlns:rdf="http://www.w3.org/1999/02/22-rdf-syntax-ns#"
   xmlns:cc="http://creativecommons.org/ns#"
   xmlns:dc="http://purl.org/dc/elements/1.1/">
  <sodipodi:namedview
     id="namedview58878"
     pagecolor="#ffffff"
     bordercolor="#666666"
     borderopacity="1.0"
     inkscape:showpageshadow="2"
     inkscape:pageopacity="0.0"
     inkscape:pagecheckerboard="0"
     inkscape:deskcolor="#d1d1d1"
     showgrid="false"
     inkscape:zoom="14.75"
     inkscape:cx="1.5254237"
     inkscape:cy="13.627119"
     inkscape:window-width="1565"
     inkscape:window-height="873"
     inkscape:window-x="-142"
     inkscape:window-y="102"
     inkscape:window-maximized="0"
     inkscape:current-layer="svg2457" />
  <metadata
     id="metadata40218">
    <rdf:RDF>
      <cc:Work
         rdf:about="">
        <dc:format>image/svg+xml</dc:format>
        <dc:type
           rdf:resource="http://purl.org/dc/dcmitype/StillImage" />
      </cc:Work>
    </rdf:RDF>
  </metadata>
  <defs
     id="defs2459">
    <linearGradient
       id="linearGradient5128">
      <stop
         id="stop5130"
         style="stop-color:#e5e5e5;stop-opacity:1"
         offset="0" />
      <stop
         id="stop5132"
         style="stop-color:#ababab;stop-opacity:1"
         offset="1" />
    </linearGradient>
    <linearGradient
       x1="86.132919"
       y1="105.105"
       x2="84.63858"
       y2="20.895"
       id="linearGradient3260"
       xlink:href="#linearGradient5128"
       gradientUnits="userSpaceOnUse"
       gradientTransform="matrix(0.09614231,0,0,0.09614231,1.8468935,1.9430362)" />
    <linearGradient
       x1="63.9995"
       y1="3.1001"
       x2="63.9995"
       y2="122.8994"
       id="linearGradient3309"
       gradientUnits="userSpaceOnUse">
      <stop
         id="stop3311"
         style="stop-color:#f6f6f6;stop-opacity:1"
         offset="0" />
      <stop
         id="stop3313"
         style="stop-color:#cccccc;stop-opacity:1"
         offset="1" />
    </linearGradient>
    <linearGradient
       x1="25"
       y1="0.62704211"
       x2="25"
       y2="16.807262"
       id="linearGradient3262"
       xlink:href="#linearGradient3309-1"
       gradientUnits="userSpaceOnUse"
       gradientTransform="translate(-17.058189)" />
    <linearGradient
       xlink:href="#linearGradient3309-1"
       id="linearGradient3614-2"
       gradientUnits="userSpaceOnUse"
       gradientTransform="matrix(0.77777782,0,0,0.77777782,-13.111112,-4.666669)"
       x1="32.036148"
       y1="19"
       x2="32.036148"
       y2="46.218231" />
    <linearGradient
       x1="63.9995"
       y1="3.1001"
       x2="63.9995"
       y2="122.8994"
       id="linearGradient3309-1"
       gradientUnits="userSpaceOnUse">
      <stop
         id="stop3311-5"
         style="stop-color:#f6f6f6;stop-opacity:1"
         offset="0" />
      <stop
         id="stop3313-0"
         style="stop-color:#d2d2d2;stop-opacity:1"
         offset="1" />
    </linearGradient>
    <linearGradient
       xlink:href="#linearGradient5128-1"
       id="linearGradient3610"
       gradientUnits="userSpaceOnUse"
       gradientTransform="matrix(0.15623116,0,0,0.15623125,1.0012002,11.157431)"
       x1="86.132919"
       y1="105.105"
       x2="84.63858"
       y2="20.895" />
    <linearGradient
       id="linearGradient5128-1">
      <stop
         id="stop5130-8"
         style="stop-color:#ffffff;stop-opacity:1"
         offset="0" />
      <stop
         id="stop5132-3"
         style="stop-color:#959595;stop-opacity:1"
         offset="1" />
    </linearGradient>
    <linearGradient
       gradientTransform="translate(-1,9)"
       xlink:href="#linearGradient3805"
       id="linearGradient3814"
       gradientUnits="userSpaceOnUse"
       x1="12.47939"
       y1="2"
       x2="12.47939"
       y2="22.006775" />
    <linearGradient
       id="linearGradient3805">
      <stop
         style="stop-color:#ffffff;stop-opacity:1;"
         offset="0"
         id="stop3807" />
      <stop
         style="stop-color:#ffffff;stop-opacity:0;"
         offset="1"
         id="stop3809" />
    </linearGradient>
    <linearGradient
       y2="8"
       x2="12"
       y1="16"
       x1="12"
       gradientUnits="userSpaceOnUse"
       id="linearGradient3050"
       xlink:href="#linearGradient3805" />
    <linearGradient
       inkscape:collect="always"
       xlink:href="#linearGradient3309"
       id="linearGradient51062"
       gradientUnits="userSpaceOnUse"
       gradientTransform="matrix(0.64818166,-0.64818166,0.64818166,0.64818166,-14.261049,19.890143)"
       x1="25"
       y1="0"
       x2="25"
       y2="16.905626" />
  </defs>
  <g
     id="g51060"
     transform="matrix(0.81685871,0,0,0.81685866,0.14585196,18.784414)"
     style="stroke-width:1.2242;stroke-dasharray:none">
    <path
       id="path51054"
       style="display:block;overflow:visible;visibility:visible;fill:url(#linearGradient51062);fill-opacity:1;fill-rule:nonzero;stroke:#000000;stroke-width:0.918148;stroke-linecap:butt;stroke-linejoin:round;stroke-miterlimit:4;stroke-dasharray:none;stroke-dashoffset:0;stroke-opacity:0.34;marker:none;enable-background:accumulate"
       d="M 1.6169219,4.6603505 C 1.4559028,4.8213695 1.4535285,5.0666481 1.6145482,5.2276678 L 3.0340283,6.6471479 2.7183245,7.4565839 H 0.68642657 c -0.22771561,0 -0.40590483,0.1781883 -0.40590483,0.4059049 v 1.9416968 c 5.2e-7,0.2277154 0.17818929,0.4059044 0.40590483,0.4059044 H 2.7183246 l 0.3157037,0.809437 -1.4194801,1.419479 c -0.1610192,0.16102 -0.158646,0.406299 0.00237,0.567318 l 1.3767533,1.376753 c 0.1610199,0.16102 0.406298,0.163394 0.5673173,0.0024 l 1.4194801,-1.419481 0.8094357,0.315705 6e-7,2.031898 c -1.1e-6,0.227715 0.1781882,0.405903 0.4059044,0.405904 h 1.9416967 c 0.2277155,-10e-7 0.4059052,-0.178189 0.4059048,-0.405904 l 2e-7,-2.031898 0.8094363,-0.315703 1.4194794,1.419479 c 0.16102,0.16102 0.406298,0.158645 0.567317,-0.0024 l 1.376753,-1.376753 c 0.16102,-0.161021 0.163394,-0.406297 0.0024,-0.567316 L 11.29929,11.019527 11.614993,10.21009 h 2.031899 c 0.227715,0 0.405903,-0.17819 0.405905,-0.405905 V 7.8624884 c -2e-6,-0.227716 -0.178191,-0.4059051 -0.405904,-0.4059044 l -2.031899,-7e-7 L 11.29929,6.647148 12.71877,5.2276676 C 12.879791,5.0666475 12.877417,4.8213704 12.71637,4.6603503 L 11.339648,3.283597 C 11.178629,3.1225769 10.933351,3.1202041 10.772332,3.2812251 L 9.352851,4.7007038 8.5434155,4.3849996 l -2e-7,-2.0318979 c 5e-7,-0.2277156 -0.1781895,-0.4059041 -0.4059048,-0.4059049 l -1.9416967,-1e-7 c -0.2277161,-10e-8 -0.4059051,0.1781891 -0.4059051,0.4059051 l -10e-8,2.031898 L 4.9804726,4.7007036 3.5609925,3.2812235 C 3.3999729,3.1202039 3.1546951,3.1225773 2.9936752,3.2835972 Z m 4.0305639,2.6538106 a 2.1484395,2.1484395 0 0 1 3.0383522,1e-7 2.1484395,2.1484395 0 0 1 0,3.0383528 2.1484395,2.1484395 0 0 1 -3.0383521,0 2.1484395,2.1484395 0 0 1 -1e-7,-3.0383529 z" />
  </g>
  <ellipse
     style="fill:none;fill-rule:evenodd;stroke:#fefefe;stroke-width:1;stroke-linecap:round;stroke-dasharray:none;stroke-opacity:0.34;stop-color:#000000"
     id="circle56695"
     cx="6"
     cy="26"
     rx="3.5"
     ry="3.4999998" />
  <g
     id="layer1">
    <g
       id="g2479">
      <path
         d="M 6.9375,0.5 C 6.6890831,0.5 6.5,0.68908218 6.5,0.9375 l 0,1.25 C 5.9460971,2.3297005 5.448836,2.5593783 4.96875,2.84375 L 4.0625,1.9375 c -0.1756569,-0.1756579 -0.449342,-0.1756579 -0.625,0 l -1.5,1.5 c -0.175657,0.1756579 -0.175657,0.4493421 0,0.625 L 2.84375,4.96875 C 2.5593789,5.4488356 2.329701,5.9460968 2.1875,6.5 l -1.25,0 C 0.68908301,6.5 0.5,6.6890821 0.5,6.9375 l 0,2.125 c 1e-8,0.2484178 0.189083,0.4375 0.4375,0.4375 l 1.25,0 c 0.1422009,0.553903 0.371879,1.051164 0.65625,1.53125 L 1.9375,11.9375 c -0.175657,0.175658 -0.175657,0.449342 0,0.625 l 1.5,1.5 c 0.1756579,0.175658 0.449342,0.175658 0.625,0 L 4.96875,13.15625 C 5.4488361,13.440622 5.946097,13.6703 6.5,13.8125 l 0,1.25 c 1e-7,0.248418 0.189083,0.4375 0.4375,0.4375 l 2.125,0 C 9.3109176,15.5 9.5,15.310918 9.5,15.0625 l 0,-1.25 c 0.553903,-0.1422 1.051164,-0.371878 1.53125,-0.65625 l 0.90625,0.90625 c 0.175658,0.175658 0.449342,0.175658 0.625,0 l 1.5,-1.5 c 0.175658,-0.175658 0.175658,-0.449342 0,-0.625 L 13.15625,11.03125 C 13.440622,10.551164 13.6703,10.053903 13.8125,9.5 l 1.25,0 C 15.310918,9.5 15.5,9.3109174 15.5,9.0625 l 0,-2.125 C 15.5,6.6890822 15.310917,6.5 15.0625,6.5 l -1.25,0 C 13.6703,5.9460968 13.440622,5.4488356 13.15625,4.96875 L 14.0625,4.0625 c 0.175658,-0.1756579 0.175658,-0.449342 0,-0.625 l -1.5,-1.5 c -0.175658,-0.1756579 -0.449342,-0.1756579 -0.625,0 L 11.03125,2.84375 C 10.551164,2.5593783 10.053903,2.3297005 9.5,2.1875 l 0,-1.25 C 9.4999996,0.68908218 9.310918,0.5 9.0625,0.5 l -2.125,0 z M 8,6 c 1.104,0 2,0.896 2,2 0,1.104 -0.896,2 -2,2 C 6.896,10 6,9.104 6,8 6,6.896 6.896,6 8,6 z"
         id="path2426"
         style="fill:url(#linearGradient3262);fill-opacity:1.0;fill-rule:nonzero;stroke:#000000;stroke-width:0.99999994;stroke-linecap:butt;stroke-linejoin:round;stroke-miterlimit:4;stroke-opacity:0.30000001;stroke-dasharray:none;stroke-dashoffset:0;marker:none;visibility:visible;display:block;overflow:visible;enable-background:accumulate" />
      <path
         d="M 8,3.465116 C 5.4994229,3.465116 3.4651163,5.499423 3.4651163,8 3.4651163,10.500577 5.4994229,12.534884 8,12.534884 10.500576,12.534883 12.534884,10.500577 12.534884,8 12.534884,5.499423 10.500576,3.465116 8,3.465116 z M 8,5.55814 c 1.347907,0 2.44186,1.093953 2.44186,2.44186 0,1.347907 -1.093953,2.44186 -2.44186,2.44186 C 6.652093,10.44186 5.5581395,9.347907 5.5581395,8 5.5581395,6.652093 6.652093,5.55814 8,5.55814 z"
         id="path3315"
         style="opacity:0.05;fill:#000000;fill-opacity:1;stroke:none" />
      <path
         d="M 8.0000001,4 C 5.7943997,4 3.9999999,5.7944001 3.9999999,8.0000008 3.9999999,10.2056 5.7943997,12 8.0000001,12 10.2056,12 12,10.2056 12,8.0000008 12,5.7944001 10.2056,4 8.0000001,4 z"
         id="path28"
         style="fill:none;stroke:url(#linearGradient3260);stroke-width:1;stroke-miterlimit:4;stroke-dasharray:none" />
    </g>
  </g>
  <g
     transform="translate(10,0)"
     id="g3004">
    <path
       id="rect3623"
       d="m 9.5,10.5 c -0.554,0 -1,0.446 -1,1 l 0,1.375 C 7.9926705,13.030783 7.4932312,13.225474 7.03125,13.46875 L 6.0625,12.5 C 5.6707628,12.108263 5.0167372,12.108263 4.625,12.5 L 2.5,14.625 c -0.3917372,0.391737 -0.3917372,1.045763 0,1.4375 l 0.96875,0.96875 C 3.2254741,17.493231 3.0307828,17.99267 2.875,18.5 l -1.375,0 c -0.554,0 -1,0.446 -1,1 l 0,3 c 0,0.554 0.446,1 1,1 l 1.375,0 c 0.1557828,0.507329 0.3504741,1.006769 0.59375,1.46875 L 2.5,25.9375 c -0.3917372,0.391737 -0.3917372,1.045763 0,1.4375 L 4.625,29.5 c 0.3917372,0.391737 1.0457628,0.391737 1.4375,0 L 7.03125,28.53125 C 7.4932312,28.774526 7.9926705,28.969217 8.5,29.125 l 0,1.375 c 0,0.554 0.446,1 1,1 l 3,0 c 0.554,0 1,-0.446 1,-1 l 0,-1.375 c 0.507329,-0.155783 1.006769,-0.350474 1.46875,-0.59375 L 15.9375,29.5 c 0.391737,0.391737 1.045763,0.391737 1.4375,0 L 19.5,27.375 c 0.391737,-0.391737 0.391737,-1.045763 0,-1.4375 L 18.53125,24.96875 C 18.774526,24.506769 18.969217,24.007329 19.125,23.5 l 1.375,0 c 0.554,0 1,-0.446 1,-1 l 0,-3 c 0,-0.554 -0.446,-1 -1,-1 l -1.375,0 C 18.969217,17.99267 18.774526,17.493231 18.53125,17.03125 L 19.5,16.0625 c 0.391737,-0.391737 0.391737,-1.045763 0,-1.4375 L 17.375,12.5 c -0.391737,-0.391737 -1.045763,-0.391737 -1.4375,0 l -0.96875,0.96875 C 14.506769,13.225474 14.007329,13.030783 13.5,12.875 l 0,-1.375 c 0,-0.554 -0.446,-1 -1,-1 l -3,0 z m 1.5,8 c 1.380712,0 2.5,1.119288 2.5,2.5 0,1.380712 -1.119288,2.5 -2.5,2.5 -1.380712,0 -2.5,-1.119288 -2.5,-2.5 0,-1.380712 1.119288,-2.5 2.5,-2.5 z"
       style="color:#000000;fill:url(#linearGradient3614-2);fill-opacity:1;fill-rule:nonzero;stroke:#000000;stroke-width:1;stroke-linecap:butt;stroke-linejoin:round;stroke-miterlimit:4;stroke-opacity:0.30000001;stroke-dasharray:none;stroke-dashoffset:0;marker:none;visibility:visible;display:block;overflow:visible;enable-background:accumulate" />
    <path
       id="path3315-9"
       d="m 11,15 c -3.310303,0 -6,2.689698 -6,6 0,3.310302 2.689697,6 6,6 3.310301,0 6,-2.689698 6,-6 0,-3.310302 -2.689699,-6 -6,-6 z m 0,3 c 1.656854,0 3,1.343146 3,3 0,1.656854 -1.343146,3 -3,3 -1.656854,0 -3,-1.343146 -3,-3 0,-1.656854 1.343146,-3 3,-3 z"
       style="opacity:0.05;fill:#000000;fill-opacity:1;stroke:none" />
    <path
       d="m 11,14.499999 c -3.5841018,0 -6.5,2.9159 -6.5,6.499999 C 4.5,24.5841 7.4158982,27.5 11,27.5 c 3.584101,0 6.5,-2.9159 6.5,-6.500002 0,-3.584099 -2.915899,-6.499999 -6.5,-6.499999 z"
       id="path28-5"
       style="fill:none;stroke:url(#linearGradient3610);stroke-width:1;stroke-miterlimit:4;stroke-dasharray:none" />
    <path
       id="path3799"
       d="m 9.5,11.46875 c -0.07417,0.388719 -0.0095,0.901108 -0.03125,1.336433 0.06469,0.778079 -0.7702767,1.052854 -1.3682852,1.21661 -0.5470235,0.311236 -1.3489947,0.671898 -1.8369673,0.0542 C 5.9673317,13.779832 5.6711658,13.483666 5.375,13.1875 4.9432707,13.474172 4.5902425,13.950845 4.1889654,14.311035 3.8695012,14.671637 3.4334278,14.983938 3.1875,15.375 c 0.4070204,0.490131 1.0485159,0.837591 1.225798,1.476969 -0.024664,0.798464 -0.5401599,1.529218 -0.8123879,2.267025 -0.5018209,0.56435 -1.3150413,0.280668 -1.9743456,0.349756 -0.3445673,-0.01288 -0.070329,0.586347 -0.1578145,0.825709 0.00121,0.744981 -0.0024,1.490108 0.00179,2.234998 0.6455598,0.06419 1.3569859,-0.150581 1.9454937,0.179668 0.5556121,0.579212 0.6756354,1.474124 1.0067725,2.188766 0.04177,0.75274 -0.7323134,1.126431 -1.1493366,1.641136 -0.2173877,0.272406 0.385277,0.504146 0.5159207,0.750367 0.5077022,0.507702 1.0154043,1.015404 1.5231065,1.523106 0.5224633,-0.304869 0.8397278,-0.98896 1.4454346,-1.204942 0.8151392,-0.106648 1.5136871,0.546448 2.2838276,0.733976 0.650694,0.452082 0.363529,1.310427 0.426988,1.975154 -0.08851,0.418476 0.527859,0.12987 0.768962,0.214562 0.763896,-0.0012 1.527939,0.0024 2.291745,-0.0018 0.06419,-0.64556 -0.150581,-1.356986 0.179668,-1.945494 0.579212,-0.555612 1.474124,-0.675635 2.188766,-1.006772 0.75274,-0.04177 1.126431,0.732313 1.641136,1.149336 0.272406,0.217388 0.504146,-0.385277 0.750367,-0.515921 0.507702,-0.507702 1.015404,-1.015404 1.523106,-1.523106 -0.304869,-0.522463 -0.98896,-0.839728 -1.204942,-1.445435 -0.106648,-0.815139 0.546448,-1.513687 0.733976,-2.283827 0.452082,-0.650694 1.310427,-0.363529 1.975154,-0.426988 0.418476,0.08851 0.12987,-0.527859 0.214562,-0.768962 -0.0012,-0.763896 0.0024,-1.527939 -0.0018,-2.291745 -0.64556,-0.06419 -1.356986,0.150581 -1.945494,-0.179668 -0.555602,-0.579205 -0.675625,-1.474117 -1.006762,-2.188759 -0.04177,-0.75274 0.732313,-1.126431 1.149336,-1.641136 0.217388,-0.272406 -0.385277,-0.504146 -0.515921,-0.750366 -0.507702,-0.507703 -1.015404,-1.015405 -1.523106,-1.523107 -0.522463,0.304869 -0.839728,0.98896 -1.445435,1.204942 -0.815139,0.106648 -1.513687,-0.546448 -2.283827,-0.733976 -0.650694,-0.452082 -0.363529,-1.310427 -0.426988,-1.975154 0.08851,-0.418476 -0.527859,-0.12987 -0.768962,-0.214562 -0.754096,0 -1.508192,0 -2.262288,0 z"
       style="opacity:0.8;color:#000000;fill:none;stroke:url(#linearGradient3814);stroke-width:1;stroke-linecap:butt;stroke-linejoin:round;stroke-miterlimit:4;stroke-opacity:1;stroke-dasharray:none;stroke-dashoffset:0;marker:none;visibility:visible;display:block;overflow:visible;enable-background:accumulate" />
    <path
       transform="matrix(1.0116033,0,0,1.0116033,-1.1392398,8.8607606)"
       d="m 15.459854,12 c 0,1.910825 -1.549029,3.459854 -3.459854,3.459854 -1.910825,0 -3.4598541,-1.549029 -3.4598541,-3.459854 0,-1.910825 1.5490291,-3.4598541 3.4598541,-3.4598541 1.910825,0 3.459854,1.5490291 3.459854,3.4598541 z"
       id="path3822"
       style="opacity:0.4;color:#000000;fill:none;stroke:url(#linearGradient3050);stroke-width:0.98852974;stroke-opacity:1;marker:none;visibility:visible;display:block;overflow:visible;enable-background:accumulate" />
  </g>
</svg>
