<?xml version="1.0" encoding="UTF-8" standalone="no"?>
<!-- Created with Inkscape (http://www.inkscape.org/) -->

<svg
   xmlns:svg="http://www.w3.org/2000/svg"
   xmlns="http://www.w3.org/2000/svg"
   xmlns:xlink="http://www.w3.org/1999/xlink"
   version="1.1"
   width="24"
   height="24"
   id="svg3309">
  <defs
     id="defs3311">
    <linearGradient
       id="linearGradient4202">
      <stop
         id="stop4204"
         style="stop-color:black;stop-opacity:1"
         offset="0" />
      <stop
         id="stop4206"
         style="stop-color:black;stop-opacity:0"
         offset="1" />
    </linearGradient>
    <linearGradient
       x1="66"
       y1="61.888699"
       x2="66"
       y2="75.497299"
       id="linearGradient3764"
       gradientUnits="userSpaceOnUse">
      <stop
         id="stop3766"
         style="stop-color:#ef3b3b;stop-opacity:1"
         offset="0" />
      <stop
         id="stop3768"
         style="stop-color:#f14646;stop-opacity:1"
         offset="0.3827" />
      <stop
         id="stop3770"
         style="stop-color:#f76060;stop-opacity:1"
         offset="1" />
    </linearGradient>
    <linearGradient
       x1="66"
       y1="61.888699"
       x2="66"
       y2="75.497299"
       id="linearGradient3658"
       xlink:href="#linearGradient3764"
       gradientUnits="userSpaceOnUse"
       spreadMethod="pad">
      <stop
         id="stop3660"
         style="stop-color:#ef3b3b;stop-opacity:1"
         offset="0" />
      <stop
         id="stop3662"
         style="stop-color:#f14646;stop-opacity:1"
         offset="0.3827" />
      <stop
         id="stop3664"
         style="stop-color:#f76060;stop-opacity:1"
         offset="1" />
    </linearGradient>
    <linearGradient
       x1="50"
       y1="73.065399"
       x2="82"
       y2="73.065399"
       id="linearGradient3667"
       gradientUnits="userSpaceOnUse"
       gradientTransform="translate(-50,-61.999997)">
      <stop
         id="stop3669"
         style="stop-color:#bb2f2f;stop-opacity:1"
         offset="0" />
      <stop
         id="stop3671"
         style="stop-color:#d53c3c;stop-opacity:1"
         offset="0.3087" />
      <stop
         id="stop3673"
         style="stop-color:#e04242;stop-opacity:1"
         offset="0.5" />
      <stop
         id="stop3675"
         style="stop-color:#bb2f2f;stop-opacity:1"
         offset="1" />
    </linearGradient>
    <linearGradient
       x1="57.159698"
       y1="73.961899"
       x2="73.0868"
       y2="73.961899"
       id="linearGradient3677"
       gradientUnits="userSpaceOnUse"
       gradientTransform="translate(-50,-61.999997)">
      <stop
         id="stop3679"
         style="stop-color:#e1da1a;stop-opacity:1"
         offset="0" />
      <stop
         id="stop3681"
         style="stop-color:#d6cf14;stop-opacity:1"
         offset="0.31279999" />
      <stop
         id="stop3683"
         style="stop-color:#bab305;stop-opacity:1"
         offset="0.85680002" />
      <stop
         id="stop3685"
         style="stop-color:#b2aa00;stop-opacity:1"
         offset="1" />
    </linearGradient>
    <linearGradient
       x1="72.137703"
       y1="74.042"
       x2="80.393097"
       y2="74.042"
       id="linearGradient3687"
       gradientUnits="userSpaceOnUse"
       gradientTransform="translate(-50,-61.999997)">
      <stop
         id="stop3689"
         style="stop-color:#1773a6;stop-opacity:1"
         offset="0" />
      <stop
         id="stop3691"
         style="stop-color:#1773a6;stop-opacity:1"
         offset="1" />
    </linearGradient>
    <linearGradient
       x1="65.277298"
       y1="74.939499"
       x2="65.277298"
       y2="67.131599"
       id="linearGradient3693"
       gradientUnits="userSpaceOnUse"
       gradientTransform="translate(-50,-61.999997)">
      <stop
         id="stop3695"
         style="stop-color:#f5f2b0;stop-opacity:1"
         offset="0" />
      <stop
         id="stop3697"
         style="stop-color:#f5efa5;stop-opacity:1"
         offset="0.1374" />
      <stop
         id="stop3699"
         style="stop-color:#f4e988;stop-opacity:1"
         offset="0.377" />
      <stop
         id="stop3701"
         style="stop-color:#f3de5a;stop-opacity:1"
         offset="0.6886" />
      <stop
         id="stop3703"
         style="stop-color:#f2d125;stop-opacity:1"
         offset="1" />
    </linearGradient>
    <linearGradient
       x1="79.236298"
       y1="72.834"
       x2="61.3381"
       y2="59.876999"
       id="linearGradient3705"
       gradientUnits="userSpaceOnUse"
       gradientTransform="translate(-50,-61.999997)">
      <stop
         id="stop3707"
         style="stop-color:#85b6d1;stop-opacity:1"
         offset="0" />
      <stop
         id="stop3709"
         style="stop-color:#7ab1d0;stop-opacity:1"
         offset="0.1707" />
      <stop
         id="stop3711"
         style="stop-color:#5ea5cd;stop-opacity:1"
         offset="0.4684" />
      <stop
         id="stop3713"
         style="stop-color:#2f92c9;stop-opacity:1"
         offset="0.85530001" />
      <stop
         id="stop3715"
         style="stop-color:#1c8ac7;stop-opacity:1"
         offset="1" />
    </linearGradient>
    <linearGradient
       x1="66"
       y1="61.888699"
       x2="66"
       y2="75.497299"
       id="linearGradient4786"
       xlink:href="#linearGradient3658"
       gradientUnits="userSpaceOnUse" />
    <linearGradient
       x1="79.236298"
       y1="72.834"
       x2="61.3381"
       y2="59.876999"
       id="linearGradient4797"
       xlink:href="#linearGradient3705"
       gradientUnits="userSpaceOnUse"
       gradientTransform="matrix(0.56249954,0,0,0.47058815,-25.124967,-15.176464)" />
    <linearGradient
       x1="72.137703"
       y1="74.042"
       x2="80.393097"
       y2="74.042"
       id="linearGradient4800"
       xlink:href="#linearGradient3687"
       gradientUnits="userSpaceOnUse"
       gradientTransform="matrix(0.56249954,0,0,0.47058815,-25.124967,-15.176464)" />
    <linearGradient
       x1="65.277298"
       y1="74.939499"
       x2="65.277298"
       y2="67.131599"
       id="linearGradient4803"
       xlink:href="#linearGradient3693"
       gradientUnits="userSpaceOnUse"
       gradientTransform="matrix(0.56249954,0,0,0.47058815,-25.124967,-15.176464)" />
    <linearGradient
       x1="57.159698"
       y1="73.961899"
       x2="73.0868"
       y2="73.961899"
       id="linearGradient4806"
       xlink:href="#linearGradient3677"
       gradientUnits="userSpaceOnUse"
       gradientTransform="matrix(0.56249954,0,0,0.47058815,-25.124967,-15.176464)" />
    <linearGradient
       x1="50"
       y1="73.065399"
       x2="82"
       y2="73.065399"
       id="linearGradient4810"
       xlink:href="#linearGradient3667"
       gradientUnits="userSpaceOnUse"
       gradientTransform="matrix(0.56249954,0,0,0.47058815,-25.124967,-15.176464)" />
    <linearGradient
       x1="10.148324"
       y1="43.124264"
       x2="10.550242"
       y2="-1.086264"
       id="linearGradient3496"
       xlink:href="#linearGradient3763-8"
       gradientUnits="userSpaceOnUse" />
    <radialGradient
       cx="16.960728"
       cy="5.8834233"
       r="22.105263"
       fx="16.960728"
       fy="5.8834233"
       id="radialGradient3494"
       xlink:href="#linearGradient3720-9"
       gradientUnits="userSpaceOnUse"
       gradientTransform="matrix(0,2,-1.3459458,0,28.918769,-35.007719)" />
    <linearGradient
       id="linearGradient3931">
      <stop
         id="stop3933"
         style="stop-color:#797b75;stop-opacity:1"
         offset="0" />
      <stop
         id="stop3935"
         style="stop-color:#bebebe;stop-opacity:1"
         offset="1" />
    </linearGradient>
    <linearGradient
       id="linearGradient3600-4">
      <stop
         id="stop3602-9"
         style="stop-color:#f4f4f4;stop-opacity:1"
         offset="0" />
      <stop
         id="stop3604-1"
         style="stop-color:#e6e6e6;stop-opacity:1"
         offset="1" />
    </linearGradient>
    <linearGradient
       id="linearGradient3763-8">
      <stop
         id="stop3765-0"
         style="stop-color:#1f4b6a;stop-opacity:1"
         offset="0" />
      <stop
         id="stop3767-4"
         style="stop-color:#4083c2;stop-opacity:1"
         offset="1" />
    </linearGradient>
    <linearGradient
       id="linearGradient3720-9">
      <stop
         id="stop3722-0"
         style="stop-color:#8badea;stop-opacity:1"
         offset="0" />
      <stop
         id="stop3728-2"
         style="stop-color:#6396cd;stop-opacity:1"
         offset="0.5" />
      <stop
         id="stop3730-8"
         style="stop-color:#3b7caf;stop-opacity:1"
         offset="0.84090906" />
      <stop
         id="stop3724-3"
         style="stop-color:#194c70;stop-opacity:1"
         offset="1" />
    </linearGradient>
    <linearGradient
       x1="25.132275"
       y1="6.7287393"
       x2="25.132275"
       y2="47.013336"
       id="linearGradient3246"
       xlink:href="#linearGradient3600-4"
       gradientUnits="userSpaceOnUse"
       gradientTransform="matrix(0.5428805,0,0,0.4656364,-1.0291327,0.84832149)" />
    <linearGradient
       x1="-51.786404"
       y1="50.786446"
       x2="-51.786404"
       y2="2.9062471"
       id="linearGradient3248"
       xlink:href="#linearGradient3931"
       gradientUnits="userSpaceOnUse"
       gradientTransform="matrix(0.4383743,0,0,0.43576639,31.223522,0.32937855)" />
    <linearGradient
       id="linearGradient2264">
      <stop
         id="stop2266"
         style="stop-color:#d7e866;stop-opacity:1"
         offset="0" />
      <stop
         id="stop2268"
         style="stop-color:#8cab2a;stop-opacity:1"
         offset="1" />
    </linearGradient>
    <linearGradient
       x1="12"
       y1="2"
       x2="12"
       y2="7"
       id="linearGradient4174"
       xlink:href="#linearGradient2264"
       gradientUnits="userSpaceOnUse"
       gradientTransform="matrix(0.94444445,0,0,0.80000001,0.66666662,0.89999993)" />
    <linearGradient
       x1="12"
       y1="2"
       x2="12"
       y2="7"
       id="linearGradient4198"
       xlink:href="#linearGradient2264"
       gradientUnits="userSpaceOnUse"
       gradientTransform="matrix(0.66666667,0,0,0.60000001,5.5000001,-7.6999999)" />
    <radialGradient
       cx="12"
       cy="25.748699"
       r="11"
       fx="12"
       fy="25.748699"
       id="radialGradient4208"
       xlink:href="#linearGradient4202"
       gradientUnits="userSpaceOnUse"
       gradientTransform="matrix(1,0,0,0.29557282,0,18.138083)" />
  </defs>
  <path
     d="m 23,25.748699 a 11,3.2513011 0 1 1 -22,0 11,3.2513011 0 1 1 22,0 z"
     transform="matrix(1.0909091,0,0,0.61513836,-1.0909091,6.1609875)"
     id="path4200"
     style="opacity:0.5;fill:url(#radialGradient4208);fill-opacity:1;stroke:none" />
  <path
     d="m 3.5,2.5 17,0 c 0,5.456654 0,11.543344 0,17 -6.333619,0 -10.6663826,0 -17,0 0,-6.984559 0,-10.015441 0,-17 z"
     id="rect2594"
     style="fill:url(#linearGradient3246);fill-opacity:1;stroke:url(#linearGradient3248);stroke-width:0.99913895;stroke-linecap:butt;stroke-linejoin:round;stroke-miterlimit:4;stroke-opacity:1;stroke-dasharray:none;stroke-dashoffset:0;display:inline" />
  <rect
     width="17"
     height="4"
     x="3.5"
     y="2.5"
     id="rect2875"
     style="fill:url(#linearGradient4174);fill-opacity:1;stroke:#699536;stroke-width:1;stroke-linejoin:round;stroke-miterlimit:4;stroke-opacity:1;stroke-dasharray:none" />
  <rect
     width="16"
     height="1"
     x="4"
     y="9"
     id="rect4194"
     style="fill:#bebebe;fill-opacity:1;stroke:none" />
  <rect
     width="16"
     height="1"
     x="4"
     y="12"
     id="rect4192"
     style="fill:#bebebe;fill-opacity:1;stroke:none" />
  <rect
     width="12"
     height="3"
     x="7.5"
     y="-6.5"
     transform="matrix(0,1,-1,0,0,0)"
     id="rect4196"
     style="fill:url(#linearGradient4198);fill-opacity:1;stroke:#699536;stroke-width:1;stroke-linejoin:round;stroke-miterlimit:4;stroke-opacity:1;stroke-dasharray:none" />
  <circle
     cx="21"
     cy="21.018999"
     r="21"
     transform="matrix(0.23809524,0,0,0.23809524,0.49999986,0.49547629)"
     id="circle51"
     style="fill:url(#radialGradient3494);fill-opacity:1;stroke:url(#linearGradient3496);stroke-width:4.20000029;stroke-miterlimit:4;stroke-opacity:1;stroke-dasharray:none" />
  <path
     d="M 0.7656693,6.070629 C 0.7191325,6.076399 4.2479373,5.4790648 5.5487288,9.411 6.3601114,5.7623339 10.267546,5.7285066 10.234918,5.7301563 c 0.09308,0 -3.2179609,-0.9232356 -4.7086997,1.4270699 C 4.0132231,5.0822132 0.65842931,6.070629 0.7656693,6.070629 z"
     id="path4552"
     style="fill:#173561;fill-opacity:1" />
  <path
     d="M 0.71731562,5.635975 C 0.67077878,5.6417479 4.1995837,5.0444107 5.5003756,8.976346 6.3117582,5.32768 10.219193,5.2938526 10.186565,5.2955023 c 0.09308,0 -3.2179611,-1.1564689 -4.7086998,1.1938365 C 3.9648695,4.4143258 0.61007563,5.635975 0.71731562,5.635975 z"
     id="path53"
     style="fill:white" />
  <path
     d="m 3.5720002,3.0366746 c 0,0 2.100685,-0.4543863 2.9244045,1.8303254 0.5160715,-2.1305759 2.8650685,-1.9491228 2.8650685,-1.9491228 0,0 -1.9107103,-0.7451125 -2.8790297,0.6558898 C 5.4924342,2.3271507 3.5712523,3.0366746 3.5720002,3.0366746 z"
     id="path4554"
     style="fill:#173561;fill-opacity:1" />
  <path
     d="m 3.5720002,2.5103588 c 0,0 2.100685,-0.454386 2.9244045,1.8303255 0.5160715,-2.1305762 2.8650685,-1.9491227 2.8650685,-1.9491227 0,0 -1.9107103,-0.7451126 -2.8790297,0.6558898 C 5.4924342,1.800835 3.5712523,2.5103588 3.5720002,2.5103588 z"
     id="path55"
     style="fill:white" />
  <path
     d="m 3.0000161,18 0,2.841072 0.00168,0 C 3.0438717,22.035147 7.055625,23 12.000001,23 c 4.944936,0 8.956125,-0.964853 8.997749,-2.158928 l 0.0023,0 L 21,18 3,18 z"
     id="path4812"
     style="fill:#646464;fill-opacity:1" />
  <path
     d="m 3.0000113,16.435766 0,3.149646 0.00168,0 c 0.042184,1.323764 4.0539342,2.393412 8.9983057,2.393412 4.944933,0 8.956118,-1.069648 8.997742,-2.393412 l 0.0023,0 0,-3.149646 -17.9999852,0 z"
     id="path3652"
     style="fill:url(#linearGradient4810);fill-opacity:1" />
  <ellipse
     cx="66"
     cy="67.130997"
     rx="16"
     ry="5.131"
     transform="matrix(0.56249954,0,0,0.47058815,-25.124967,-15.176464)"
     id="ellipse3654"
     style="fill:url(#linearGradient4786);fill-opacity:1" />
  <path
     d="m 7.2024455,18.478589 0,3.149646 C 8.5912569,21.86353 10.235443,22 12.000003,22 c 1.430438,0 2.781561,-0.08988 3.982497,-0.248941 l 0.0028,-3.149647 -4.395933,-1.343058 -4.3869335,1.220235 z"
     id="path3656"
     style="fill:url(#linearGradient4806);fill-opacity:1" />
  <path
     d="m 12.000005,18.829177 c 1.431561,0 2.783809,-0.08941 3.985307,-0.248941 l -3.985307,-2.165647 -4.7975595,2.043294 c 1.3888114,0.235295 3.0329975,0.371294 4.7975595,0.371294 z"
     id="path3658"
     style="fill:url(#linearGradient4803);fill-opacity:1" />
  <path
     d="m 15.985312,18.600942 -0.0028,3.149647 c 1.674561,-0.222589 3.05381,-0.579766 3.939185,-1.020236 l 0,-3.147764 -2.867061,0.235294 -1.069312,0.783059 z"
     id="path3660"
     style="fill:url(#linearGradient4800);fill-opacity:1" />
  <path
     d="m 15.985312,18.579765 c 1.672313,-0.222588 3.050998,-0.578823 3.936374,-1.018352 l 0,0 -7.921681,-1.146824 3.985309,2.165176 z"
     id="path3662"
     style="fill:url(#linearGradient4797);fill-opacity:1" />
</svg>
