<?xml version="1.0" encoding="UTF-8" standalone="no"?>
<!-- Created with Inkscape (http://www.inkscape.org/) -->
<svg
   xmlns:svg="http://www.w3.org/2000/svg"
   xmlns="http://www.w3.org/2000/svg"
   xmlns:xlink="http://www.w3.org/1999/xlink"
   version="1.0"
   width="24"
   height="24"
   id="svg2">
  <defs
     id="defs4">
    <linearGradient
       id="linearGradient5105-262-943-861">
      <stop
         id="stop2487"
         style="stop-color:#0d0d0d;stop-opacity:1"
         offset="0" />
      <stop
         id="stop2489"
         style="stop-color:#0d0d0d;stop-opacity:0"
         offset="1" />
    </linearGradient>
    <radialGradient
       cx="11.25"
       cy="19.03125"
       r="8.0625"
       fx="11.25"
       fy="19.03125"
       id="radialGradient3418"
       xlink:href="#linearGradient5105-262-943-861"
       gradientUnits="userSpaceOnUse"
       gradientTransform="matrix(1.1045126,0,0,0.2147665,-0.2991696,9.2761503)" />
    <linearGradient
       id="linearGradient6332-24-473-272">
      <stop
         id="stop6164"
         style="stop-color:#f9650d;stop-opacity:1"
         offset="0" />
      <stop
         id="stop6166"
         style="stop-color:#c15619;stop-opacity:1"
         offset="1" />
    </linearGradient>
    <radialGradient
       cx="96.124382"
       cy="-26.100422"
       r="38.212933"
       fx="96.124382"
       fy="-26.100426"
       id="radialGradient3415"
       xlink:href="#linearGradient6332-24-473-272"
       gradientUnits="userSpaceOnUse"
       gradientTransform="matrix(-1.3187426e-4,0.2359747,-0.3712803,-2.4366553e-4,-6.7164769,-21.774603)" />
    <linearGradient
       id="linearGradient6316-673-936-474">
      <stop
         id="stop6158"
         style="stop-color:#ffc391;stop-opacity:1"
         offset="0" />
      <stop
         id="stop6160"
         style="stop-color:#fa650b;stop-opacity:1"
         offset="1" />
    </linearGradient>
    <radialGradient
       cx="103.93583"
       cy="-34.003952"
       r="38.212933"
       fx="103.93583"
       fy="-34.003952"
       id="radialGradient3413"
       xlink:href="#linearGradient6316-673-936-474"
       gradientUnits="userSpaceOnUse"
       gradientTransform="matrix(-1.3189631e-4,0.2359747,-0.3747302,0,-9.7671805,-23.611544)" />
    <radialGradient
       cx="100.62272"
       cy="-22.827475"
       r="116.21894"
       fx="100.62272"
       fy="-22.827475"
       id="radialGradient3410"
       xlink:href="#linearGradient6280"
       gradientUnits="userSpaceOnUse"
       gradientTransform="matrix(9.2348152e-3,6.0765668e-3,-3.5937626e-2,5.3570558e-2,2.5941598,4.7625528)" />
    <radialGradient
       cx="26.685698"
       cy="30.945623"
       r="26.269466"
       fx="26.685698"
       fy="30.945623"
       id="radialGradient3407"
       xlink:href="#linearGradient6280"
       gradientUnits="userSpaceOnUse"
       gradientTransform="matrix(3.9712894e-2,-1.4145934e-3,2.0070991e-3,5.5268321e-2,8.7719819e-2,5.3740731)" />
    <radialGradient
       cx="26.685698"
       cy="30.945623"
       r="26.269466"
       fx="26.685698"
       fy="30.945623"
       id="radialGradient3404"
       xlink:href="#linearGradient6280"
       gradientUnits="userSpaceOnUse"
       gradientTransform="matrix(3.6499988e-2,-1.300148e-3,1.8447181e-3,5.0796906e-2,10.490669,-0.3374619)" />
    <linearGradient
       id="linearGradient6280">
      <stop
         id="stop6282"
         style="stop-color:#ffffff;stop-opacity:1"
         offset="0" />
      <stop
         id="stop6284"
         style="stop-color:#ffffff;stop-opacity:0"
         offset="1" />
    </linearGradient>
    <radialGradient
       cx="100.62272"
       cy="-22.827475"
       r="116.21894"
       fx="100.62272"
       fy="-22.827475"
       id="radialGradient3401"
       xlink:href="#linearGradient6280"
       gradientUnits="userSpaceOnUse"
       gradientTransform="matrix(5.7344528e-4,1.0717875e-2,6.3085247e-2,-3.5250337e-3,9.1891381,1.0170353)" />
    <linearGradient
       id="linearGradient2264">
      <stop
         id="stop2266"
         style="stop-color:#d7e866;stop-opacity:1"
         offset="0" />
      <stop
         id="stop2268"
         style="stop-color:#8cab2a;stop-opacity:1"
         offset="1" />
    </linearGradient>
    <linearGradient
       x1="25"
       y1="11.923377"
       x2="25"
       y2="40.32198"
       id="linearGradient3398"
       xlink:href="#linearGradient2264"
       gradientUnits="userSpaceOnUse"
       gradientTransform="matrix(0.3034793,0,0,0.3015622,7.800162,1.698254)" />
    <linearGradient
       id="linearGradient5113">
      <stop
         id="stop5115"
         style="stop-color:#ffffff;stop-opacity:1"
         offset="0" />
      <stop
         id="stop5117"
         style="stop-color:#ffffff;stop-opacity:0"
         offset="1" />
    </linearGradient>
    <linearGradient
       x1="58.748795"
       y1="2.047786"
       x2="105.32369"
       y2="58.047787"
       id="linearGradient3395"
       xlink:href="#linearGradient5113"
       gradientUnits="userSpaceOnUse"
       gradientTransform="matrix(0.3048871,0,0,0.3015622,-8.8976714,0.7791554)" />
    <linearGradient
       id="linearGradient5048">
      <stop
         id="stop5050"
         style="stop-color:#000000;stop-opacity:0"
         offset="0" />
      <stop
         id="stop5056"
         style="stop-color:#000000;stop-opacity:1"
         offset="0.5" />
      <stop
         id="stop5052"
         style="stop-color:#000000;stop-opacity:0"
         offset="1" />
    </linearGradient>
    <linearGradient
       id="linearGradient5060">
      <stop
         id="stop5062"
         style="stop-color:#000000;stop-opacity:1"
         offset="0" />
      <stop
         id="stop5064"
         style="stop-color:#000000;stop-opacity:0"
         offset="1" />
    </linearGradient>
    <linearGradient
       x1="9.5990496"
       y1="13.498952"
       x2="4.4590349"
       y2="8.3495274"
       id="linearGradient2869"
       xlink:href="#linearGradient3484-2"
       gradientUnits="userSpaceOnUse"
       gradientTransform="matrix(0.9892473,0,0,1.4696392,0.129032,-10.33859)" />
    <linearGradient
       x1="53.99139"
       y1="87.89592"
       x2="53.99139"
       y2="104.28131"
       id="linearGradient2872"
       xlink:href="#linearGradient2215-9"
       gradientUnits="userSpaceOnUse"
       gradientTransform="matrix(0.1904597,0,0,0.2485308,9.0799e-2,-3.484712)" />
    <radialGradient
       cx="605.71429"
       cy="486.64789"
       r="117.14286"
       fx="605.71429"
       fy="486.64789"
       id="radialGradient2877"
       xlink:href="#linearGradient5060"
       gradientUnits="userSpaceOnUse"
       gradientTransform="matrix(-2.218262e-2,0,0,1.085997e-2,16.259269,17.380799)" />
    <radialGradient
       cx="605.71429"
       cy="486.64789"
       r="117.14286"
       fx="605.71429"
       fy="486.64789"
       id="radialGradient2880"
       xlink:href="#linearGradient5060"
       gradientUnits="userSpaceOnUse"
       gradientTransform="matrix(2.218262e-2,0,0,1.085997e-2,7.7407365,17.380799)" />
    <linearGradient
       x1="302.85715"
       y1="366.64789"
       x2="302.85715"
       y2="609.50507"
       id="linearGradient2883"
       xlink:href="#linearGradient5048"
       gradientUnits="userSpaceOnUse"
       gradientTransform="matrix(3.776775e-2,0,0,1.085997e-2,-1.650341,17.380799)" />
    <linearGradient
       id="linearGradient6310-8">
      <stop
         id="stop6312-6"
         style="stop-color:#ffffff;stop-opacity:1"
         offset="0" />
      <stop
         id="stop6314-6"
         style="stop-color:#ffffff;stop-opacity:0"
         offset="1" />
    </linearGradient>
    <linearGradient
       id="linearGradient3484-2">
      <stop
         id="stop3486-2"
         style="stop-color:#969696;stop-opacity:1"
         offset="0" />
      <stop
         id="stop3488-0"
         style="stop-color:#b4b4b4;stop-opacity:1"
         offset="1" />
    </linearGradient>
    <linearGradient
       id="linearGradient7056-0">
      <stop
         id="stop7064-4"
         style="stop-color:#e6e6e6;stop-opacity:1"
         offset="0" />
      <stop
         id="stop7060-2"
         style="stop-color:#c8c8c8;stop-opacity:1"
         offset="1" />
    </linearGradient>
    <linearGradient
       id="linearGradient2215-9">
      <stop
         id="stop2223-6"
         style="stop-color:#7a7a7a;stop-opacity:1"
         offset="0" />
      <stop
         id="stop2219-1"
         style="stop-color:#474747;stop-opacity:1"
         offset="1" />
    </linearGradient>
    <linearGradient
       id="linearGradient4035">
      <stop
         id="stop4037"
         style="stop-color:#f5f5f5;stop-opacity:1"
         offset="0" />
      <stop
         id="stop4039"
         style="stop-color:#e7e7e7;stop-opacity:1"
         offset="0.47025558" />
      <stop
         id="stop4041"
         style="stop-color:#8c8c8c;stop-opacity:1"
         offset="0.69348532" />
      <stop
         id="stop4043"
         style="stop-color:#dddddd;stop-opacity:1"
         offset="0.83542866" />
      <stop
         id="stop4045"
         style="stop-color:#a8a8a8;stop-opacity:1"
         offset="1" />
    </linearGradient>
    <radialGradient
       cx="113.0654"
       cy="97.587898"
       r="2.5631001"
       fx="113.667"
       fy="98"
       id="radialGradient4241"
       gradientUnits="userSpaceOnUse">
      <stop
         id="stop4243"
         style="stop-color:#eeeeee;stop-opacity:1"
         offset="0" />
      <stop
         id="stop4245"
         style="stop-color:#cecece;stop-opacity:1"
         offset="0.16" />
      <stop
         id="stop4247"
         style="stop-color:#888888;stop-opacity:1"
         offset="0.4675" />
      <stop
         id="stop4249"
         style="stop-color:#555555;stop-opacity:1"
         offset="1" />
    </radialGradient>
    <radialGradient
       cx="24"
       cy="42"
       r="21"
       fx="24"
       fy="42"
       id="radialGradient3248"
       xlink:href="#linearGradient6310-8"
       gradientUnits="userSpaceOnUse"
       gradientTransform="matrix(0.5238095,0,1.4568516e-8,0.2142857,-0.5714276,11.500002)" />
    <radialGradient
       cx="7.2203388"
       cy="4.2332726"
       r="12"
       fx="7.2203388"
       fy="4.2332726"
       id="radialGradient4072"
       xlink:href="#linearGradient7056-0"
       gradientUnits="userSpaceOnUse"
       gradientTransform="matrix(1.5193809,3.71571e-3,-3.02474e-3,1.2368318,-3.737301,6.783288e-2)" />
    <linearGradient
       id="linearGradient6309">
      <stop
         id="stop6311"
         style="stop-color:#000000;stop-opacity:1"
         offset="0" />
      <stop
         id="stop6313"
         style="stop-color:#bbbbbb;stop-opacity:0"
         offset="1" />
    </linearGradient>
    <linearGradient
       id="linearGradient4236-0">
      <stop
         id="stop4238-4"
         style="stop-color:#eeeeee;stop-opacity:1"
         offset="0" />
      <stop
         id="stop4240-3"
         style="stop-color:#eeeeee;stop-opacity:0"
         offset="1" />
    </linearGradient>
    <linearGradient
       id="linearGradient7609-6">
      <stop
         id="stop7611-3"
         style="stop-color:#ffffff;stop-opacity:1"
         offset="0" />
      <stop
         id="stop7677-2"
         style="stop-color:#e7e7e7;stop-opacity:1"
         offset="0.47025558" />
      <stop
         id="stop7613-4"
         style="stop-color:#8c8c8c;stop-opacity:1"
         offset="0.67183787" />
      <stop
         id="stop7617-3"
         style="stop-color:#dddddd;stop-opacity:1"
         offset="0.83542866" />
      <stop
         id="stop7615-6"
         style="stop-color:#a8a8a8;stop-opacity:1"
         offset="1" />
    </linearGradient>
    <radialGradient
       cx="113.0654"
       cy="97.587898"
       r="2.5631001"
       fx="113.667"
       fy="98"
       id="radialGradient8443"
       xlink:href="#radialGradient4241"
       gradientUnits="userSpaceOnUse"
       gradientTransform="matrix(2.4956521,0,0,2.4956521,-223.97574,-53.226089)" />
    <radialGradient
       cx="113.0654"
       cy="97.587898"
       r="2.5631001"
       fx="113.667"
       fy="98"
       id="radialGradient8447"
       xlink:href="#radialGradient4241"
       gradientUnits="userSpaceOnUse"
       gradientTransform="matrix(2.4956521,0,0,2.4956521,-223.97574,-53.226089)" />
    <radialGradient
       cx="142.62215"
       cy="191.85428"
       r="78.728165"
       fx="142.62215"
       fy="191.85428"
       id="radialGradient8464"
       xlink:href="#linearGradient7609-6"
       gradientUnits="userSpaceOnUse"
       gradientTransform="matrix(9.247618e-2,0,0,-8.716215e-2,-1.5555849,24.365579)" />
    <radialGradient
       cx="141.74666"
       cy="206.42612"
       r="78.728165"
       fx="141.74666"
       fy="206.42612"
       id="radialGradient8471"
       xlink:href="#linearGradient4035"
       gradientUnits="userSpaceOnUse"
       gradientTransform="matrix(0.1861457,-3.14024e-3,1.37767e-3,0.180683,-15.012876,-20.635958)" />
    <radialGradient
       cx="127.31733"
       cy="143.82751"
       r="78.728165"
       fx="127.31733"
       fy="143.82751"
       id="radialGradient8475"
       xlink:href="#linearGradient4035"
       gradientUnits="userSpaceOnUse"
       gradientTransform="matrix(0.1000586,-2.337636e-2,8.21684e-3,5.971738e-2,-5.2741109,-0.9113468)" />
    <linearGradient
       x1="12.277412"
       y1="37.205811"
       x2="12.221823"
       y2="33.758667"
       id="linearGradient8487"
       xlink:href="#linearGradient4236-0"
       gradientUnits="userSpaceOnUse"
       gradientTransform="matrix(0.7375886,0,0,0.5393258,-2.7959675,2.1869584)" />
    <linearGradient
       x1="7.0625"
       y1="35.28125"
       x2="24.6875"
       y2="35.28125"
       id="linearGradient8490"
       xlink:href="#linearGradient6309"
       gradientUnits="userSpaceOnUse"
       gradientTransform="matrix(0.7375886,0,0,0.5393258,-2.2092209,1.4719089)" />
    <radialGradient
       cx="113.0654"
       cy="97.587898"
       r="2.5631001"
       fx="113.667"
       fy="98"
       id="radialGradient8494"
       xlink:href="#radialGradient4241"
       gradientUnits="userSpaceOnUse"
       gradientTransform="matrix(2.4956521,0,0,2.4956521,-223.97574,-53.226089)" />
    <radialGradient
       cx="113.0654"
       cy="97.587898"
       r="2.5631001"
       fx="113.667"
       fy="98"
       id="radialGradient8498"
       xlink:href="#radialGradient4241"
       gradientUnits="userSpaceOnUse"
       gradientTransform="matrix(2.4956521,0,0,2.4956521,-223.97574,-53.226089)" />
  </defs>
  <rect
     width="18.236429"
     height="2.6374204"
     x="2.8817775"
     y="21.362579"
     id="rect2723"
     style="opacity:0.40206185;fill:url(#linearGradient2883);fill-opacity:1;fill-rule:nonzero;stroke:none;stroke-width:1;marker:none;visibility:visible;display:inline;overflow:visible" />
  <path
     d="M 21.109321,21.362672 C 21.109321,21.362672 21.109321,23.999946 21.109321,23.999946 C 22.251669,24.004946 23.870968,23.409066 23.870968,22.68114 C 23.870968,21.953213 22.596194,21.362672 21.109321,21.362672 L 21.109321,21.362672 z"
     id="path2725"
     style="opacity:0.40206185;fill:url(#radialGradient2880);fill-opacity:1;fill-rule:nonzero;stroke:none;stroke-width:1;marker:none;visibility:visible;display:inline;overflow:visible" />
  <path
     d="M 2.890679,21.362672 C 2.890679,21.362672 2.890679,23.999946 2.890679,23.999946 C 1.748326,24.004946 0.129032,23.409066 0.129032,22.68114 C 0.129032,21.953213 1.403811,21.362672 2.890679,21.362672 L 2.890679,21.362672 z"
     id="path2727"
     style="opacity:0.40206185;fill:url(#radialGradient2877);fill-opacity:1;fill-rule:nonzero;stroke:none;stroke-width:1;marker:none;visibility:visible;display:inline;overflow:visible" />
  <path
     d="M 23.5,18.5 C 23.033613,21.88005 23.148621,22.481514 22.304097,22.481514 C 21.973311,22.529744 8.966677,22.481514 1.649843,22.481514 C 0.732704,22.481514 0.964437,22.547274 0.5,18.502949 L 23.5,18.500049 L 23.5,18.5 L 23.5,18.5 z"
     id="rect2992"
     style="fill:url(#linearGradient2872);fill-opacity:1;fill-rule:nonzero;stroke:#353537;stroke-width:1;stroke-linecap:butt;stroke-linejoin:round;marker:none;stroke-miterlimit:4;stroke-dasharray:none;stroke-dashoffset:0;stroke-opacity:1;visibility:visible;display:inline;overflow:visible;enable-background:accumulate" />
  <path
     d="M 2.7,19 L 16,19 L 16,22 L 3.0000009,22 L 2.7,19 z"
     id="rect9146"
     style="fill:url(#linearGradient8490);fill-opacity:1;fill-rule:evenodd;stroke:none;stroke-width:2.40899992;marker:none;visibility:visible;display:inline;overflow:visible" />
  <path
     d="M 2.9999999,21.999998 C 2.9999999,21.999998 2.8,19.836501 2.8,19.836501 C 4.153864,21.55114 9.1193967,21.999998 12.542551,21.999998 C 12.542551,21.999998 2.9999999,21.999998 2.9999999,21.999998 L 2.9999999,21.999998 z"
     id="path9148"
     style="opacity:0.81142853;fill:url(#linearGradient8487);fill-opacity:1;fill-rule:evenodd;stroke:none" />
  <path
     d="M 2.5,2 L 0.522616,18.483328 C 0.507667,18.483328 0.5,18.487728 0.5,18.499998 L 23.5,18.499998 C 23.5,18.487678 23.4923,18.483328 23.47739,18.483328 L 21.5,2 C 21.40074,1.172599 20.333333,0.50000001 19.5,0.50000001 L 4.5,0.50000001 C 3.6666667,0.50000001 2.5992572,1.172599 2.5,2 z"
     id="rect2990"
     style="fill:url(#radialGradient4072);fill-opacity:1;fill-rule:nonzero;stroke:url(#linearGradient2869);stroke-width:0.99999994;stroke-linecap:round;stroke-linejoin:round;marker:none;stroke-miterlimit:4;stroke-dasharray:none;stroke-dashoffset:0;stroke-opacity:1;visibility:visible;display:inline;overflow:visible;enable-background:accumulate" />
  <path
     d="M 1.499053,18.5 L 22.500948,18.5"
     id="path2215"
     style="opacity:0.6;fill:none;stroke:#ffffff;stroke-width:0.99999994;stroke-linecap:round;stroke-linejoin:round;stroke-miterlimit:4;stroke-dasharray:none;stroke-opacity:1;display:inline" />
  <rect
     width="22"
     height="3"
     x="1"
     y="19"
     id="rect6300-3"
     style="opacity:0.2;fill:url(#radialGradient3248);fill-opacity:1;stroke:none" />
  <g
     transform="matrix(6.610079e-2,-1.141585e-2,7.91914e-3,4.585394e-2,-0.8921424,-6.4254018)"
     id="g9164">
    <path
       d="M 48.2999,190.27968 C 48.61436,194.52728 53.32365,197.99124 58.81409,197.99124 C 64.30203,197.99124 68.45729,194.52728 68.09043,190.27968 C 67.72606,186.05454 63.01926,182.64298 57.58373,182.64298 C 52.1457,182.64498 47.99044,186.05454 48.2999,190.27968 z"
       id="path9166"
       style="fill:#e6e6e6;fill-opacity:1" />
    <path
       d="M 51.85122,187.29238 C 51.34959,187.83144 50.77559,188.69494 50.77559,189.84294 C 50.77559,189.92534 50.78059,190.00765 50.78559,190.095 C 51.00272,193.0224 54.67881,195.49559 58.81161,195.49559 C 61.16501,195.49559 63.31626,194.6845 64.56409,193.32188 C 65.10065,192.74039 65.71209,191.77707 65.60228,190.4943 C 65.35022,187.59186 61.67912,185.13863 57.58125,185.13863 C 55.24532,185.14063 53.10156,185.94473 51.85124,187.29238 L 51.85122,187.29238 L 51.85122,187.29238 z"
       id="path9168"
       style="fill:url(#radialGradient8447);fill-opacity:1" />
  </g>
  <g
     transform="matrix(6.707933e-2,0,0,4.653275e-2,15.651438,-7.2130769)"
     id="g9170">
    <path
       d="M 48.2999,190.27968 C 48.61436,194.52728 53.32365,197.99124 58.81409,197.99124 C 64.30203,197.99124 68.45729,194.52728 68.09043,190.27968 C 67.72606,186.05454 63.01926,182.64298 57.58373,182.64298 C 52.1457,182.64498 47.99044,186.05454 48.2999,190.27968 z"
       id="path9172"
       style="fill:#e6e6e6;fill-opacity:1" />
    <path
       d="M 51.85122,187.29238 C 51.34959,187.83144 50.77559,188.69494 50.77559,189.84294 C 50.77559,189.92534 50.78059,190.00765 50.78559,190.095 C 51.00272,193.0224 54.67881,195.49559 58.81161,195.49559 C 61.16501,195.49559 63.31626,194.6845 64.56409,193.32188 C 65.10065,192.74039 65.71209,191.77707 65.60228,190.4943 C 65.35022,187.59186 61.67912,185.13863 57.58125,185.13863 C 55.24532,185.14063 53.10156,185.94473 51.85124,187.29238 L 51.85122,187.29238 L 51.85122,187.29238 z"
       id="path9174"
       style="fill:url(#radialGradient8443);fill-opacity:1" />
  </g>
  <path
     d="M 14.53125,1.8125 C 14.253763,1.8125 14.006571,1.893169 13.8125,2.03125 C 13.618429,2.1693309 13.477057,2.3814136 13.46875,2.625 C 13.44311,3.3746949 13.060592,3.9142802 12.34375,4.40625 C 11.63273,4.8942242 10.589068,5.3061082 9.34375,5.6875 C 9.333553,5.69062 9.322726,5.68438 9.3125,5.6875 C 8.8415038,5.786404 8.0675485,6.063582 7.3125,6.34375 C 6.5467846,6.627876 5.8477349,6.901852 5.53125,7.125 C 3.9333833,8.1304054 2.9482809,9.4666744 2.8125,10.9375 C 2.6888629,12.276628 3.291889,13.616948 4.46875,14.6875 C 6.1904068,16.253691 9.004066,17.1875 12,17.1875 C 14.995943,17.1875 17.809394,16.253673 19.53125,14.6875 C 20.606209,13.709836 21.1875,12.532443 21.1875,11.3125 C 21.1875,11.21302 21.1989,11.070226 21.1875,10.9375 C 21.06834,9.6463531 20.271626,8.4541408 19,7.5 C 18.96439,6.9956324 18.65625,2.625 18.65625,2.625 C 18.638973,2.3813174 18.480216,2.1678021 18.28125,2.03125 C 18.082284,1.8946979 17.839128,1.8125 17.5625,1.8125 L 14.53125,1.8125 L 14.53125,1.8125 z M 14.53125,2.34375 L 17.5625,2.34375 C 17.62974,2.34375 17.68847,2.362162 17.71875,2.375 L 18.09375,7.5 C 18.090254,7.5206866 18.090254,7.5418134 18.09375,7.5625 C 18.102898,7.574112 18.113388,7.5846015 18.125,7.59375 C 18.140556,7.6192658 18.161984,7.6406944 18.1875,7.65625 C 19.419505,8.4990773 20.146503,9.7834978 20.25,10.90625 C 20.378872,12.301371 19.550744,13.454835 18.0625,14.3125 C 16.574256,15.170165 14.436759,15.6875 12,15.6875 C 9.563246,15.6875 7.4257204,15.170165 5.9375,14.3125 C 4.4492796,13.454835 3.6212244,12.301377 3.75,10.90625 C 3.8608671,9.705693 4.7056237,8.3698014 6.09375,7.5 C 6.105362,7.4908515 6.1158515,7.480362 6.125,7.46875 C 6.1295861,7.4646691 6.1936848,7.4211298 6.28125,7.375 C 6.3688152,7.3288702 6.4894037,7.2799235 6.625,7.21875 C 6.8961926,7.096403 7.2259767,6.9543687 7.59375,6.8125 C 8.3292966,6.5287625 9.1621264,6.262651 9.5625,6.1875 C 9.5728985,6.1883695 9.5833515,6.1883695 9.59375,6.1875 C 10.803066,5.8192939 11.95182,5.3809018 12.84375,4.78125 C 13.717601,4.1937533 14.347077,3.4122714 14.40625,2.375 C 14.42653,2.36524 14.46733,2.34375 14.53125,2.34375 L 14.53125,2.34375 z"
     id="path8469"
     style="fill:url(#radialGradient8471);fill-opacity:1" />
  <path
     d="M 11.999882,12.99994 C 10.317403,12.99994 9.0276132,12.155195 9.0004212,11.034725 C 9.0002102,11.022185 9,11.010645 9,10.998855 C 9,10.5934 9.1690522,10.2078 9.4902852,9.8813062 C 10.033682,9.3294152 10.971891,9 12.000093,9 C 13.028093,9 13.966293,9.3294152 14.50969,9.8813042 C 14.840411,10.216978 15.009884,10.61596 14.999554,11.034571 C 14.971932,12.155054 13.682152,13 11.999882,13 L 11.999882,12.999937 L 11.999882,12.99994 z M 12.050142,10.253891 C 10.469255,10.253891 9.6136308,10.464036 9.6326058,11.228365 C 9.6509358,11.980781 10.710764,12.581957 11.999923,12.581957 C 13.289082,12.581957 14.348904,11.980567 14.367238,11.228365 C 14.385998,10.463835 13.631026,10.253891 12.050142,10.253891 L 12.050142,10.253891 L 12.050142,10.253891 z"
     id="path9156"
     style="fill:url(#radialGradient8464);fill-opacity:1;fill-rule:nonzero;stroke-width:1;stroke-linecap:butt;stroke-linejoin:miter;marker:none;stroke-miterlimit:4;stroke-dasharray:none;stroke-dashoffset:0;stroke-opacity:1;visibility:visible;display:inline;overflow:visible;enable-background:accumulate" />
  <path
     d="M 4.96875,1.75 C 4.9015373,1.7681 4.8449126,1.8133998 4.8125,1.875 C 4.7992091,1.8942678 4.7886897,1.9153066 4.78125,1.9375 L 4.71875,2.15625 L 3.875,5.40625 L 3.75,5.9375 C 3.7440888,5.9684705 3.7440888,6.0002795 3.75,6.03125 C 3.7540757,6.0642678 3.7646999,6.0961403 3.78125,6.125 C 3.8136626,6.1866002 3.8702873,6.2319 3.9375,6.25 C 3.9784946,6.2605836 4.0215054,6.2605836 4.0625,6.25 L 4.46875,6.125 L 11.34375,4.09375 L 11.375,4.09375 C 11.385406,4.0944016 11.395844,4.0944016 11.40625,4.09375 C 11.416656,4.0944016 11.427094,4.0944016 11.4375,4.09375 C 11.459693,4.0863103 11.480732,4.0757909 11.5,4.0625 C 11.960044,3.8087359 12.195214,3.3198993 12.25,2.875 C 12.278063,2.646761 12.258372,2.4184991 12.1875,2.21875 C 12.147248,2.1052472 12.061307,1.9975015 11.96875,1.90625 C 11.876193,1.8149985 11.757431,1.7451773 11.59375,1.75 L 11.5625,1.75 L 5.1875,1.75 L 5.03125,1.75 C 5.0104987,1.7473858 4.9895013,1.7473858 4.96875,1.75 z M 5.46875,2.4375 L 11.375,2.4375 C 11.35969,2.51528 11.33974,2.5680551 11.3125,2.65625 C 11.26252,2.8180921 11.166855,2.9496143 11.1875,2.9375 L 4.9375,4.75 L 5.46875,2.4375 z"
     id="path8473"
     style="fill:url(#radialGradient8475);fill-opacity:1;fill-rule:nonzero;stroke:none;stroke-width:1;marker:none;visibility:visible;display:inline;overflow:visible;enable-background:accumulate" />
  <g
     transform="matrix(-9.781119e-2,0,0,0.1076727,8.1622105,-3.8182514)"
     id="g9158">
    <path
       d="M 48.2999,190.27968 C 48.61436,194.52728 53.32365,197.99124 58.81409,197.99124 C 64.30203,197.99124 68.45729,194.52728 68.09043,190.27968 C 67.72606,186.05454 63.01926,182.64298 57.58373,182.64298 C 52.1457,182.64498 47.99044,186.05454 48.2999,190.27968 z"
       id="path9160"
       style="fill:#e6e6e6;fill-opacity:1" />
    <path
       d="M 51.85122,187.29238 C 51.34959,187.83144 50.77559,188.69494 50.77559,189.84294 C 50.77559,189.92534 50.78059,190.00765 50.78559,190.095 C 51.00272,193.0224 54.67881,195.49559 58.81161,195.49559 C 61.16501,195.49559 63.31626,194.6845 64.56409,193.32188 C 65.10065,192.74039 65.71209,191.77707 65.60228,190.4943 C 65.35022,187.59186 61.67912,185.13863 57.58125,185.13863 C 55.24532,185.14063 53.10156,185.94473 51.85124,187.29238 L 51.85122,187.29238 L 51.85122,187.29238 z"
       id="path9162"
       style="fill:url(#radialGradient8498);fill-opacity:1" />
  </g>
  <g
     transform="matrix(9.781119e-2,0,0,0.1076727,15.777316,-3.8182514)"
     id="g9190">
    <path
       d="M 48.2999,190.27968 C 48.61436,194.52728 53.32365,197.99124 58.81409,197.99124 C 64.30203,197.99124 68.45729,194.52728 68.09043,190.27968 C 67.72606,186.05454 63.01926,182.64298 57.58373,182.64298 C 52.1457,182.64498 47.99044,186.05454 48.2999,190.27968 z"
       id="path9192"
       style="fill:#e6e6e6;fill-opacity:1" />
    <path
       d="M 51.85122,187.29238 C 51.34959,187.83144 50.77559,188.69494 50.77559,189.84294 C 50.77559,189.92534 50.78059,190.00765 50.78559,190.095 C 51.00272,193.0224 54.67881,195.49559 58.81161,195.49559 C 61.16501,195.49559 63.31626,194.6845 64.56409,193.32188 C 65.10065,192.74039 65.71209,191.77707 65.60228,190.4943 C 65.35022,187.59186 61.67912,185.13863 57.58125,185.13863 C 55.24532,185.14063 53.10156,185.94473 51.85124,187.29238 L 51.85122,187.29238 L 51.85122,187.29238 z"
       id="path9194"
       style="fill:url(#radialGradient8494);fill-opacity:1" />
  </g>
  <path
     d="M 21.03173,13.363421 C 21.03173,14.319732 17.044766,15.094975 12.126597,15.094975 C 7.208428,15.094975 3.2214642,14.319732 3.2214643,13.363421 C 3.2214642,12.40711 7.208428,11.631868 12.126597,11.631868 C 17.044766,11.631868 21.03173,12.40711 21.03173,13.363421 L 21.03173,13.363421 z"
     id="path2638"
     style="opacity:0.16292138;fill:url(#radialGradient3418);fill-opacity:1;fill-rule:nonzero;stroke:none;stroke-width:1;stroke-linecap:butt;stroke-linejoin:miter;marker:none;marker-start:none;marker-mid:none;marker-end:none;stroke-miterlimit:4;stroke-dasharray:none;stroke-dashoffset:0;stroke-opacity:1;visibility:visible;display:inline;overflow:visible" />
  <path
     d="M 12.09107,0.50089367 C 11.37977,0.50089367 10.807606,1.0716564 10.807729,1.776118 C 10.807606,2.4805796 11.37977,3.0513424 12.09107,3.0513424 C 12.802371,3.0513424 13.384558,2.4805795 13.384437,1.776118 C 13.384559,1.0716564 12.802371,0.50089367 12.09107,0.50089367 z M 8.2711243,1.776118 C 7.6300784,1.823057 7.0153086,1.9818761 6.4463731,2.2144764 L 7.5993755,4.1671637 C 7.8936605,4.0747166 8.1995523,4.0239547 8.5217771,4.0077607 C 8.5848511,4.0046045 8.6484076,4.0077607 8.7122727,4.0077607 C 10.479194,4.0077607 11.953716,5.2363586 12.32167,6.8770151 L 14.617648,6.8770151 C 14.454717,5.6843556 13.925783,4.6050579 13.153837,3.7487307 C 12.836799,3.917403 12.475928,4.0077607 12.09107,4.0077607 C 10.882722,4.0077607 9.8907646,3.0689059 9.8351966,1.8857076 C 9.4715327,1.8168928 9.0959415,1.776118 8.7122727,1.776118 C 8.6352186,1.776118 8.5580205,1.7732392 8.4816728,1.776118 C 8.4568206,1.7770553 8.4362641,1.774881 8.4114895,1.776118 C 8.3881491,1.7772848 8.3645886,1.7746834 8.3413071,1.776118 C 8.3187554,1.777508 8.2936172,1.7744698 8.2711243,1.776118 z M 5.0627711,3.0114916 C 4.1382249,3.724422 3.433084,4.7060257 3.0575501,5.8309326 C 3.6507394,6.2330963 4.0401083,6.9088297 4.0401083,7.6740304 C 4.0401083,8.4392302 3.6507394,9.114965 3.0575501,9.5171282 C 3.4329593,10.642309 4.1379028,11.624345 5.0627711,12.33657 L 6.205747,10.37392 C 5.4705719,9.7037852 5.0126404,8.7406031 5.0126404,7.6740304 C 5.0126404,6.6078431 5.4714653,5.6459433 6.205747,4.9741416 L 5.0627711,3.0114916 z M 1.794261,6.3988065 C 1.0829608,6.3988065 0.50077174,6.9695686 0.50089366,7.6740304 C 0.50077174,8.3784917 1.0829605,8.9492543 1.794261,8.9492548 C 2.5055617,8.9492548 3.0777246,8.3784917 3.0776023,7.6740304 C 3.0777243,6.9695691 2.5055613,6.3988065 1.794261,6.3988065 z M 12.32167,8.4710457 C 11.953717,10.111702 10.479194,11.3403 8.7122727,11.3403 C 8.3210984,11.3403 7.952465,11.281803 7.5993755,11.170935 L 6.4463731,13.123622 C 7.1450361,13.40928 7.9096397,13.571943 8.7122727,13.571943 C 9.0959415,13.571944 9.4715332,13.531169 9.8351966,13.462354 C 9.8912163,12.328813 10.810817,11.41193 11.950704,11.3403 C 11.998537,11.337303 12.042477,11.340301 12.09107,11.3403 C 12.475928,11.3403 12.836799,11.430659 13.153837,11.59933 C 13.925784,10.743004 14.454717,9.6637052 14.617648,8.4710457 L 12.32167,8.4710457 z M 12.09107,12.296718 C 11.37977,12.296718 10.807606,12.867481 10.807729,13.571943 C 10.807606,14.276405 11.37977,14.847168 12.09107,14.847167 C 12.802371,14.847167 13.384558,14.276405 13.384437,13.571943 C 13.384559,12.867481 12.802371,12.296719 12.09107,12.296718 z"
     id="path2317"
     style="fill:url(#radialGradient3413);fill-opacity:1;fill-rule:nonzero;stroke:url(#radialGradient3415);stroke-width:1.0017873;stroke-linecap:butt;stroke-linejoin:miter;marker:none;marker-start:none;marker-mid:none;marker-end:none;stroke-miterlimit:4;stroke-dasharray:none;stroke-dashoffset:0;stroke-opacity:1;visibility:visible;display:inline;overflow:visible;enable-background:accumulate" />
  <path
     d="M 5.0072614,3.3922191 C 4.2314637,4.0315832 3.631719,4.8750209 3.2898203,5.8372988 C 3.8492465,6.2612093 4.2168478,6.9231254 4.2168478,7.6735243 C 4.2168478,8.4239222 3.8492465,9.0858388 3.2898203,9.5097493 C 3.6315553,10.472292 4.2313666,11.315993 5.0072614,11.95483 L 5.963563,10.311891 C 5.2734983,9.6386081 4.8413718,8.7068754 4.8413718,7.6735243 C 4.8413718,6.6401079 5.274092,5.7096308 5.963563,5.0351575 L 5.0072614,3.3922191 L 5.0072614,3.3922191 z M 4.9291957,3.8657716 L 5.5732362,4.9868362 C 4.9561917,5.667003 4.5644655,6.5531844 4.5291104,7.5285581 C 4.490229,6.8192999 4.1584263,6.1818013 3.6606315,5.7309903 C 3.9459054,5.0210432 4.3827345,4.3851531 4.9291957,3.8657716 L 4.9291957,3.8657716 z M 4.5291104,7.818489 C 4.5643821,8.7938019 4.9552338,9.6804686 5.5732362,10.360212 L 4.9291957,11.481277 C 4.3830585,10.962159 3.9455889,10.326168 3.6606315,9.6160583 C 4.1587975,9.1652241 4.4901285,8.5278392 4.5291104,7.818489 L 4.5291104,7.818489 z"
     id="path2272"
     style="opacity:0.6;fill:url(#radialGradient3410);fill-opacity:1;stroke:none;display:inline" />
  <path
     d="M 1.6684088,6.6396319 C 1.1477999,6.6977948 0.74566613,7.1405773 0.74566613,7.6735045 C 0.74566613,8.2458201 1.2117042,8.7073766 1.7895766,8.7073766 C 2.3674496,8.7073766 2.8334874,8.2458201 2.8334877,7.6735045 C 2.8334874,7.1011879 2.367449,6.6396319 1.7895766,6.6396319 C 1.7512788,6.6396319 1.7205212,6.6385099 1.7056913,6.6396319 C 1.6930663,6.6405774 1.6809031,6.6382437 1.6684088,6.6396319 L 1.6684088,6.6396319 z M 1.6963706,6.9350241 C 1.708224,6.9335765 1.7216379,6.9359394 1.7336531,6.9350241 C 1.7429993,6.9348722 1.7629996,6.9350241 1.7895769,6.9350241 C 2.2060734,6.9350241 2.5352274,7.2610128 2.5352274,7.6735045 C 2.5352274,8.0859952 2.2060734,8.4119849 1.7895769,8.4119849 C 1.3730804,8.4119849 1.0439265,8.0859952 1.0439265,7.6735045 C 1.0439265,7.2919705 1.3289099,6.980279 1.6963706,6.9350241 L 1.6963706,6.9350241 z"
     id="path2284"
     style="opacity:0.6;fill:url(#radialGradient3407);fill-opacity:1;stroke:none;display:inline" />
  <path
     d="M 11.943474,0.8257092 C 11.464984,0.87916607 11.095385,1.2861265 11.095385,1.7759378 C 11.095385,2.3019512 11.523719,2.7261662 12.054839,2.7261662 C 12.58596,2.7261662 13.014294,2.3019512 13.014294,1.7759378 C 13.014294,1.2499239 12.58596,0.8257092 12.054839,0.8257092 C 12.01964,0.8257092 11.991371,0.82467759 11.977741,0.8257092 C 11.966137,0.82657785 11.954958,0.82443329 11.943474,0.8257092 L 11.943474,0.8257092 z M 11.969174,1.0972028 C 11.980069,1.0958727 11.992397,1.0980443 12.00344,1.0972028 C 12.01203,1.0970635 12.030412,1.0972028 12.05484,1.0972028 C 12.43764,1.0972028 12.740165,1.3968177 12.740165,1.7759378 C 12.740165,2.155057 12.43764,2.4546726 12.05484,2.4546726 C 11.672039,2.4546726 11.369514,2.155057 11.369514,1.7759378 C 11.369514,1.4252713 11.631442,1.1387967 11.969174,1.0972028 L 11.969174,1.0972028 z"
     id="path4951"
     style="opacity:0.6;fill:url(#radialGradient3404);fill-opacity:1;stroke:none;display:inline" />
  <path
     d="M 6.8367295,2.3548604 C 7.7611842,2.0230686 8.7712019,1.9392322 9.7542395,2.129518 C 9.8361821,2.8063803 10.214304,3.440721 10.849051,3.8117911 C 11.483796,4.1828612 12.225476,4.203152 12.860687,3.9455353 C 13.505894,4.7069308 13.922958,5.6251083 14.079657,6.5890483 L 12.217042,6.5753334 C 11.988763,5.6660471 11.414316,4.8443907 10.540225,4.3334012 C 9.6660807,3.8223794 8.665032,3.7236747 7.7535674,3.9660038 L 6.8367295,2.3548604 L 6.8367295,2.3548604 z M 7.2759015,2.5238295 L 7.9057091,3.6161028 C 8.7861739,3.437081 9.7294838,3.5481205 10.572015,4.0009113 C 9.9912952,3.617711 9.6161239,3.0253439 9.4809509,2.3866549 C 8.7393552,2.2738522 7.985458,2.3242512 7.2759015,2.5238295 L 7.2759015,2.5238295 z M 10.817261,4.1442816 C 11.624815,4.6560304 12.181552,5.4209284 12.450931,6.2732223 L 13.717693,6.2896756 C 13.548646,5.576834 13.227002,4.896958 12.767246,4.3078104 C 12.139554,4.5009484 11.436562,4.4624952 10.817261,4.1442816 L 10.817261,4.1442816 z"
     id="path4955"
     style="opacity:0.6;fill:url(#radialGradient3401);fill-opacity:1;stroke:none;display:inline" />
  <path
     d="M 21.5,9.5 L 17.045581,14.5 L 12.5,9.5 L 15.26017,9.5 C 15.881483,7.8456391 14.605657,6.6884093 13.126387,6.6884093 C 12.075208,6.6884093 10.649016,7.2628725 10.167257,8.6912044 C 9.916687,9.4341086 9.4753432,9.1086626 9.4923985,8.4629999 C 9.5584142,5.9715506 11.417331,3.9790685 14.192388,3.9790685 C 16.967445,3.9790685 19.028894,6.223961 18.873182,9.5 L 21.5,9.5 z"
     id="path4972"
     style="fill:url(#linearGradient3398);fill-opacity:1;fill-rule:nonzero;stroke:#699536;stroke-width:0.99999946;stroke-linecap:butt;stroke-linejoin:miter;marker:none;marker-start:none;marker-mid:none;marker-end:none;stroke-miterlimit:4;stroke-dasharray:none;stroke-dashoffset:0;stroke-opacity:1;visibility:visible;display:inline;overflow:visible" />
  <path
     d="M 19.265241,10.555957 L 17.003696,12.98542 L 14.800023,10.472188 L 16.009943,10.472188 C 16.960763,8.3677815 15.398069,5.7514709 13.514097,5.7213057 C 12.157214,5.6156542 10.688837,7.1057677 9.9484422,7.9995847 C 10.420273,5.8833606 11.929338,5.0157859 14.249943,5.0114223 C 16.594474,5.0070138 18.226891,6.9540017 17.708583,10.472188 L 19.265241,10.555957 z"
     id="path4980"
     style="opacity:0.35400002;fill:none;fill-opacity:1;fill-rule:nonzero;stroke:url(#linearGradient3395);stroke-width:0.99999934;stroke-linecap:butt;stroke-linejoin:miter;marker:none;marker-start:none;marker-mid:none;marker-end:none;stroke-miterlimit:4;stroke-dasharray:none;stroke-dashoffset:0;stroke-opacity:1;visibility:visible;display:inline;overflow:visible;enable-background:accumulate" />
</svg>
