<?xml version="1.0" encoding="UTF-8" standalone="no"?>
<!-- Created with Inkscape (http://www.inkscape.org/) -->

<svg
   xmlns:dc="http://purl.org/dc/elements/1.1/"
   xmlns:cc="http://creativecommons.org/ns#"
   xmlns:rdf="http://www.w3.org/1999/02/22-rdf-syntax-ns#"
   xmlns:svg="http://www.w3.org/2000/svg"
   xmlns="http://www.w3.org/2000/svg"
   xmlns:xlink="http://www.w3.org/1999/xlink"
   xmlns:sodipodi="http://sodipodi.sourceforge.net/DTD/sodipodi-0.dtd"
   xmlns:inkscape="http://www.inkscape.org/namespaces/inkscape"
   width="48px"
   height="48px"
   id="svg4185"
   version="1.1"
   inkscape:version="0.48.0 r9654"
   sodipodi:docname="folder-video-alt2.svg">
  <defs
     id="defs4187">
    <linearGradient
       y2="33.95525"
       x2="15.214532"
       y1="22.292103"
       x1="11.566265"
       gradientUnits="userSpaceOnUse"
       id="linearGradient4016"
       xlink:href="#linearGradient8265-821-176-38-919-66-249-6"
       inkscape:collect="always"
       gradientTransform="matrix(0.47675801,0,0,0.98330994,21.531938,4.2701546)" />
    <linearGradient
       id="linearGradient8265-821-176-38-919-66-249-6">
      <stop
         id="stop2687-3"
         style="stop-color:#ffffff;stop-opacity:0.2"
         offset="0" />
      <stop
         id="stop2689-3"
         style="stop-color:#ffffff;stop-opacity:0"
         offset="1" />
    </linearGradient>
    <radialGradient
       r="8"
       fy="33.905411"
       fx="33.000004"
       cy="33.905411"
       cx="33.000004"
       gradientTransform="matrix(2.0607735,-1.1264655e-7,6.831622e-8,1.4667645,-35.005531,-4.212946)"
       gradientUnits="userSpaceOnUse"
       id="radialGradient3924"
       xlink:href="#linearGradient3903"
       inkscape:collect="always" />
    <linearGradient
       id="linearGradient3903">
      <stop
         offset="0"
         style="stop-color:#666666;stop-opacity:1"
         id="stop3905" />
      <stop
         offset="1"
         style="stop-color:#3c3c3c;stop-opacity:1;"
         id="stop3907" />
    </linearGradient>
    <radialGradient
       inkscape:collect="always"
       xlink:href="#linearGradient3969"
       id="radialGradient3901"
       cx="33.000004"
       cy="33.905411"
       fx="33.000004"
       fy="33.905411"
       r="8"
       gradientTransform="matrix(2.4308354,0,0,1.5970686,-47.217572,-21.632372)"
       gradientUnits="userSpaceOnUse" />
    <linearGradient
       id="linearGradient3969">
      <stop
         id="stop3971"
         style="stop-color:#666666;stop-opacity:1"
         offset="0" />
      <stop
         id="stop3973"
         style="stop-color:#3c3c3c;stop-opacity:1;"
         offset="1" />
    </linearGradient>
    <linearGradient
       x1="3.0525408"
       y1="2.189693"
       x2="3.0525408"
       y2="9.8754826"
       id="linearGradient3658"
       xlink:href="#linearGradient3576"
       gradientUnits="userSpaceOnUse"
       gradientTransform="matrix(2.5447729,0,0,2.8624253,35.231977,15.732168)" />
    <linearGradient
       id="linearGradient3576">
      <stop
         id="stop3578"
         style="stop-color:#9fbad6;stop-opacity:1"
         offset="0" />
      <stop
         id="stop3580"
         style="stop-color:#587b9f;stop-opacity:1"
         offset="1" />
    </linearGradient>
    <linearGradient
       x1="3.0525408"
       y1="2.189693"
       x2="3.0525408"
       y2="9.8754826"
       id="linearGradient3642"
       xlink:href="#linearGradient3576"
       gradientUnits="userSpaceOnUse"
       gradientTransform="matrix(2.5447729,0,0,2.8624253,17.231977,15.732168)" />
    <linearGradient
       x1="302.85715"
       y1="366.64789"
       x2="302.85715"
       y2="609.50507"
       id="linearGradient2868"
       xlink:href="#linearGradient5048"
       gradientUnits="userSpaceOnUse"
       gradientTransform="matrix(0.03816858,0,0,0.01509651,20.237967,38.732952)" />
    <linearGradient
       id="linearGradient5048">
      <stop
         id="stop5050"
         style="stop-color:#000000;stop-opacity:0"
         offset="0" />
      <stop
         id="stop5056"
         style="stop-color:#000000;stop-opacity:1"
         offset="0.5" />
      <stop
         id="stop5052"
         style="stop-color:#000000;stop-opacity:0"
         offset="1" />
    </linearGradient>
    <radialGradient
       cx="605.71429"
       cy="486.64789"
       r="117.14286"
       fx="605.71429"
       fy="486.64789"
       id="radialGradient2865"
       xlink:href="#linearGradient5060"
       gradientUnits="userSpaceOnUse"
       gradientTransform="matrix(0.03816858,0,0,0.01509651,20.245478,38.732952)" />
    <linearGradient
       id="linearGradient5060">
      <stop
         id="stop5062"
         style="stop-color:#000000;stop-opacity:1"
         offset="0" />
      <stop
         id="stop5064"
         style="stop-color:#000000;stop-opacity:0"
         offset="1" />
    </linearGradient>
    <radialGradient
       cx="605.71429"
       cy="486.64789"
       r="117.14286"
       fx="605.71429"
       fy="486.64789"
       id="radialGradient2862"
       xlink:href="#linearGradient5060"
       gradientUnits="userSpaceOnUse"
       gradientTransform="matrix(-0.03816858,0,0,0.01509651,47.820891,38.732952)" />
    <linearGradient
       x1="11.566265"
       y1="22.292103"
       x2="15.214532"
       y2="33.95525"
       id="linearGradient2432"
       xlink:href="#linearGradient8265-821-176-38-919-66-249"
       gradientUnits="userSpaceOnUse" />
    <linearGradient
       id="linearGradient8265-821-176-38-919-66-249">
      <stop
         id="stop2687"
         style="stop-color:#ffffff;stop-opacity:0.2"
         offset="0" />
      <stop
         id="stop2689"
         style="stop-color:#ffffff;stop-opacity:0"
         offset="1" />
    </linearGradient>
    <radialGradient
       cx="7.2646537"
       cy="8.3021259"
       r="20.979567"
       fx="7.2646537"
       fy="8.3021259"
       id="radialGradient2435"
       xlink:href="#linearGradient6087-437-184-795-110-662-495"
       gradientUnits="userSpaceOnUse"
       gradientTransform="matrix(0,1.2079744,-1.6271642,0,26.371748,8.2664686)" />
    <linearGradient
       id="linearGradient6087-437-184-795-110-662-495">
      <stop
         id="stop2693"
         style="stop-color:#ffffff;stop-opacity:0.40000001"
         offset="0" />
      <stop
         id="stop2695"
         style="stop-color:#ffffff;stop-opacity:0"
         offset="1" />
    </linearGradient>
    <linearGradient
       x1="22.934725"
       y1="49.629246"
       x2="22.809399"
       y2="36.657963"
       id="linearGradient2438"
       xlink:href="#linearGradient6129-963-697-142-998-580-273"
       gradientUnits="userSpaceOnUse"
       gradientTransform="matrix(1.1446925,0,0,0.9977536,-3.4661413,1.0988426)" />
    <linearGradient
       id="linearGradient6129-963-697-142-998-580-273">
      <stop
         id="stop2661"
         style="stop-color:#0a0a0a;stop-opacity:0.498"
         offset="0" />
      <stop
         id="stop2663"
         style="stop-color:#0a0a0a;stop-opacity:0"
         offset="1" />
    </linearGradient>
    <radialGradient
       cx="63.969177"
       cy="14.113381"
       r="23.097054"
       fx="63.969177"
       fy="14.113381"
       id="radialGradient2441"
       xlink:href="#linearGradient7012-661-145-733-759-865-745"
       gradientUnits="userSpaceOnUse"
       gradientTransform="matrix(1.5646925,-9.5143002e-8,6.1772287e-8,1.015888,-86.212573,8.1461174)" />
    <linearGradient
       id="linearGradient7012-661-145-733-759-865-745">
      <stop
         id="stop2699"
         style="stop-color:#9cbbd9;stop-opacity:1"
         offset="0" />
      <stop
         id="stop2701"
         style="stop-color:#5c82ab;stop-opacity:1"
         offset="1" />
    </linearGradient>
    <linearGradient
       x1="82.453476"
       y1="45.114193"
       x2="82.453476"
       y2="16.047026"
       id="linearGradient2443"
       xlink:href="#linearGradient3390"
       gradientUnits="userSpaceOnUse"
       gradientTransform="translate(-53.765393,-0.1141928)" />
    <linearGradient
       id="linearGradient3390">
      <stop
         id="stop3392"
         style="stop-color:#425e7b;stop-opacity:1"
         offset="0" />
      <stop
         id="stop3394"
         style="stop-color:#7a91a7;stop-opacity:1"
         offset="1" />
    </linearGradient>
    <radialGradient
       cx="605.71429"
       cy="486.64789"
       r="117.14286"
       fx="605.71429"
       fy="486.64789"
       id="radialGradient2461"
       xlink:href="#linearGradient5060-820"
       gradientUnits="userSpaceOnUse"
       gradientTransform="matrix(-0.03079083,0,0,0.02470588,23.389748,31.941642)" />
    <linearGradient
       id="linearGradient5060-820">
      <stop
         id="stop2681"
         style="stop-color:#000000;stop-opacity:1"
         offset="0" />
      <stop
         id="stop2683"
         style="stop-color:#000000;stop-opacity:0"
         offset="1" />
    </linearGradient>
    <radialGradient
       cx="605.71429"
       cy="486.64789"
       r="117.14286"
       fx="605.71429"
       fy="486.64789"
       id="radialGradient2464"
       xlink:href="#linearGradient5060-179"
       gradientUnits="userSpaceOnUse"
       gradientTransform="matrix(0.03079083,0,0,0.02470588,24.610252,31.941642)" />
    <linearGradient
       id="linearGradient5060-179">
      <stop
         id="stop2675"
         style="stop-color:#000000;stop-opacity:1"
         offset="0" />
      <stop
         id="stop2677"
         style="stop-color:#000000;stop-opacity:0"
         offset="1" />
    </linearGradient>
    <linearGradient
       x1="302.85715"
       y1="366.64789"
       x2="302.85715"
       y2="609.50507"
       id="linearGradient2467"
       xlink:href="#linearGradient5048-585"
       gradientUnits="userSpaceOnUse"
       gradientTransform="matrix(0.07938856,0,0,0.02470588,-4.693293,31.941642)" />
    <linearGradient
       id="linearGradient5048-585">
      <stop
         id="stop2667"
         style="stop-color:#000000;stop-opacity:0"
         offset="0" />
      <stop
         id="stop2669"
         style="stop-color:#000000;stop-opacity:1"
         offset="0.5" />
      <stop
         id="stop2671"
         style="stop-color:#000000;stop-opacity:0"
         offset="1" />
    </linearGradient>
    <linearGradient
       id="linearGradient6404">
      <stop
         id="stop6406"
         style="stop-color:#f9f9f9;stop-opacity:1"
         offset="0" />
      <stop
         id="stop6408"
         style="stop-color:#c9c9c9;stop-opacity:1"
         offset="1" />
    </linearGradient>
    <linearGradient
       id="linearGradient3484">
      <stop
         id="stop3486"
         style="stop-color:#bdbdbd;stop-opacity:1"
         offset="0" />
      <stop
         id="stop3488"
         style="stop-color:#d0d0d0;stop-opacity:1"
         offset="1" />
    </linearGradient>
    <linearGradient
       y2="16.19013"
       x2="62.988873"
       y1="13.182598"
       x1="62.988873"
       gradientTransform="translate(-50.940898,1.0007508e-7)"
       gradientUnits="userSpaceOnUse"
       id="linearGradient4181"
       xlink:href="#linearGradient6404"
       inkscape:collect="always" />
    <radialGradient
       r="21"
       fy="5.01718"
       fx="3"
       cy="5.01718"
       cx="3"
       gradientTransform="matrix(-1.274898e-8,1.7142916,-2.159331,-1.4599595e-8,12.809361,2.8570012)"
       gradientUnits="userSpaceOnUse"
       id="radialGradient4183"
       xlink:href="#linearGradient3484"
       inkscape:collect="always" />
  </defs>
  <sodipodi:namedview
     id="base"
     pagecolor="#ffffff"
     bordercolor="#666666"
     borderopacity="1.0"
     inkscape:pageopacity="0.0"
     inkscape:pageshadow="2"
     inkscape:zoom="7"
     inkscape:cx="24"
     inkscape:cy="24"
     inkscape:current-layer="layer1"
     showgrid="true"
     inkscape:grid-bbox="true"
     inkscape:document-units="px"
     inkscape:window-width="447"
     inkscape:window-height="446"
     inkscape:window-x="1"
     inkscape:window-y="82"
     inkscape:window-maximized="0" />
  <metadata
     id="metadata4190">
    <rdf:RDF>
      <cc:Work
         rdf:about="">
        <dc:format>image/svg+xml</dc:format>
        <dc:type
           rdf:resource="http://purl.org/dc/dcmitype/StillImage" />
        <dc:title></dc:title>
      </cc:Work>
    </rdf:RDF>
  </metadata>
  <g
     id="layer1"
     inkscape:label="Layer 1"
     inkscape:groupmode="layer">
    <path
       inkscape:connector-curvature="0"
       d="m 5.4999991,8.4999996 c -0.690271,0.00767 -1,0.3421461 -1,1 l 0,2.0066474 c -1.9838616,0 -1.999999,0.1405 -1.999999,1 0.034411,10.290045 0,10.870138 0,11.743783 1.4354706,0 42.9999979,-3.699732 42.9999979,-5.292264 l 0,-6.451519 c 0,-0.657853 -0.554204,-1.007671 -1.244479,-1 l -22.75552,0 0,-2.0066474 c 0,-0.6578539 -0.309729,-1.0076715 -1,-1 l -14.9999999,0 z"
       id="path3468"
       style="fill:url(#linearGradient4181);fill-opacity:1;stroke:url(#radialGradient4183);stroke-width:1.00000012;stroke-linecap:round;stroke-linejoin:round;stroke-miterlimit:4;stroke-opacity:1;stroke-dasharray:none;display:inline" />
    <rect
       width="38.333332"
       height="6.0000005"
       x="4.833334"
       y="41"
       id="rect4173"
       style="opacity:0.3;fill:url(#linearGradient2467);fill-opacity:1;fill-rule:nonzero;stroke:none;stroke-width:1;marker:none;visibility:visible;display:inline;overflow:visible" />
    <path
       inkscape:connector-curvature="0"
       d="m 43.166666,41.000208 c 0,0 0,5.99967 0,5.99967 1.585652,0.01129 3.833334,-1.344222 3.833333,-3.000221 0,-1.656 -1.769468,-2.999449 -3.833333,-2.999449 z"
       id="path5058"
       style="opacity:0.3;fill:url(#radialGradient2464);fill-opacity:1;fill-rule:nonzero;stroke:none;stroke-width:1;marker:none;visibility:visible;display:inline;overflow:visible" />
    <path
       inkscape:connector-curvature="0"
       d="m 4.833334,41.000208 c 0,0 0,5.99967 0,5.99967 -1.5856518,0.01129 -3.8333332,-1.344222 -3.8333332,-3.000221 0,-1.656 1.7694674,-2.999449 3.8333332,-2.999449 z"
       id="path5018"
       style="opacity:0.3;fill:url(#radialGradient2461);fill-opacity:1;fill-rule:nonzero;stroke:none;stroke-width:1;marker:none;visibility:visible;display:inline;overflow:visible" />
    <path
       inkscape:connector-curvature="0"
       d="m 2.1628556,16.525193 c -1.072707,0.123694 -0.49977,1.402118 -0.585297,2.121012 0.392532,8.47009 0.788932,16.769455 1.179047,25.239602 0.341836,0.965693 1.594435,0.47116 2.388117,0.59375 13.1935444,0 26.3870894,0 39.5806354,0 1.08938,-0.106651 0.63646,-1.407681 0.7897,-2.152262 0.39254,-8.47009 0.78894,-16.769455 1.17905,-25.239602 -0.25117,-0.954289 -1.51951,-0.424014 -2.263123,-0.5625 -14.089374,0 -28.178751,0 -42.2681294,0 z"
       id="path3388"
       style="fill:url(#radialGradient2441);fill-opacity:1;stroke:url(#linearGradient2443);stroke-width:1;stroke-linecap:round;stroke-linejoin:round;stroke-miterlimit:4;stroke-opacity:1;stroke-dashoffset:0" />
    <path
       inkscape:connector-curvature="0"
       d="m 2.0582428,16.065146 43.8964752,4.03e-4 c 0.63416,0 1.045155,0.444611 1.045155,0.997367 L 45.755637,44.002247 C 45.755637,44.555002 45.245105,45 44.610947,45 L 3.4020122,45 C 2.7678523,45 2.2573195,44.555002 2.2573195,44.002247 L 1.0130886,17.0629 c 0,-0.552757 0.4109943,-0.997754 1.0451542,-0.997754 z"
       id="path6127"
       style="opacity:0.4;fill:url(#linearGradient2438);fill-opacity:1;stroke:none" />
    <path
       inkscape:connector-curvature="0"
       d="m 46.5,17.5 c -13.53125,0 -30.46875,0 -44,0 0.3854167,8.177083 0.7708333,16.354167 1.15625,24.53125"
       id="path2435"
       style="fill:none;stroke:url(#radialGradient2435);stroke-width:0.99999976;stroke-linecap:round;stroke-linejoin:round;stroke-miterlimit:4;stroke-opacity:1;stroke-dasharray:none" />
    <path
       inkscape:connector-curvature="0"
       d="M 45.75,16 C 31.20041,16.073348 16.645416,15.978851 2.09375,16 0.28698984,16.411117 1.2593433,18.46661 1.1213236,19.771525 1.3433531,23.934872 1.4443903,28.116464 1.7417851,32.268407 16.742298,29.905609 31.66833,27.661153 46.40625,25.21875 47.187241,22.632172 47.193628,19.548156 47.063607,16.789526 46.834471,16.284964 46.276599,15.988682 45.75,16 z"
       id="path3455"
       style="fill:url(#linearGradient2432);fill-opacity:1;stroke:none" />
    <g
       transform="matrix(0.9307775,0,0,0.979386,1.3226808,1.0537665)"
       id="g2872"
       style="opacity:0.4">
      <rect
         width="18.429968"
         height="3.6662951"
         x="24.818197"
         y="44.268055"
         id="rect2768"
         style="opacity:0.40206185;fill:url(#linearGradient2868);fill-opacity:1;fill-rule:nonzero;stroke:none;stroke-width:1;marker:none;visibility:visible;display:inline;overflow:visible" />
      <path
         inkscape:connector-curvature="0"
         d="m 43.248167,44.268181 c 0,0 0,3.666092 0,3.666092 1.965587,0.0069 4.751834,-0.821384 4.751833,-1.833282 0,-1.011896 -2.193448,-1.83281 -4.751833,-1.83281 z"
         id="path2770"
         style="opacity:0.40206185;fill:url(#radialGradient2865);fill-opacity:1;fill-rule:nonzero;stroke:none;stroke-width:1;marker:none;visibility:visible;display:inline;overflow:visible" />
      <path
         inkscape:connector-curvature="0"
         d="m 24.818197,44.268181 c 0,0 0,3.666092 0,3.666092 -1.965588,0.0069 -4.751834,-0.821384 -4.751834,-1.833282 0,-1.011896 2.193447,-1.83281 4.751834,-1.83281 z"
         id="path2772"
         style="opacity:0.40206185;fill:url(#radialGradient2862);fill-opacity:1;fill-rule:nonzero;stroke:none;stroke-width:1;marker:none;visibility:visible;display:inline;overflow:visible" />
      <rect
         width="1.1348009"
         height="1.1327641"
         x="24.272263"
         y="43.850159"
         id="rect3482"
         style="fill:#ffffff;fill-opacity:1;stroke:none" />
      <rect
         width="1.1348009"
         height="1.1327641"
         x="42.65604"
         y="43.850159"
         id="rect2579"
         style="fill:#ffffff;fill-opacity:1;stroke:none" />
    </g>
    <rect
       style="color:#000000;fill:#4d4d4d;fill-opacity:1;fill-rule:nonzero;stroke:#333333;stroke-width:1;stroke-linecap:butt;stroke-linejoin:round;stroke-miterlimit:4;stroke-opacity:1;stroke-dasharray:none;stroke-dashoffset:0;marker:none;visibility:visible;display:block;overflow:visible;enable-background:accumulate"
       id="rect3065"
       width="21"
       height="25"
       x="22.5"
       y="20.5" />
    <path
       inkscape:connector-curvature="0"
       d="m 23,22 2,0 0,2 -2,0 0,-2 z m 0,4 2,0 0,2 -2,0 0,-2 z m 0,4 2,0 0,2 -2,0 0,-2 z m 0,4 2,0 0,2 -2,0 0,-2 z m 0,4 2,0 0,2 -2,0 0,-2 z m 0,4 2,0 0,2 -2,0 0,-2 z"
       id="rect3464"
       style="fill:url(#linearGradient3642);fill-opacity:1;stroke:none" />
    <path
       inkscape:connector-curvature="0"
       d="m 41,22 2,0 0,2 -2,0 0,-2 z m 0,4 2,0 0,2 -2,0 0,-2 z m 0,4 2,0 0,2 -2,0 0,-2 z m 0,4 2,0 0,2 -2,0 0,-2 z m 0,4 2,0 0,2 -2,0 0,-2 z m 0,4 2,0 0,2 -2,0 0,-2 z"
       id="path3656"
       style="fill:url(#linearGradient3658);fill-opacity:1;stroke:none" />
    <rect
       width="15"
       height="12"
       rx="1"
       ry="0"
       x="25.500002"
       y="20.5"
       id="rect2704"
       style="fill:url(#radialGradient3901);fill-opacity:1;stroke:#333333;stroke-width:1;stroke-linecap:butt;stroke-linejoin:miter;stroke-miterlimit:4;stroke-opacity:1;stroke-dasharray:none;stroke-dashoffset:0;display:inline" />
    <rect
       width="15"
       height="13"
       rx="1"
       ry="0"
       x="25.500002"
       y="32.5"
       id="rect2704-6"
       style="fill:url(#radialGradient3924);fill-opacity:1;stroke:#333333;stroke-width:1;stroke-linecap:butt;stroke-linejoin:miter;stroke-miterlimit:4;stroke-opacity:1;stroke-dasharray:none;stroke-dashoffset:0;display:inline" />
    <path
       inkscape:connector-curvature="0"
       d="m 26.500002,33.499999 c 4.333206,0 8.666413,0 12.999621,0"
       id="path4318"
       style="opacity:0.3;fill:none;stroke:#ffffff;stroke-width:1;stroke-linecap:square;stroke-linejoin:round;stroke-miterlimit:4;stroke-opacity:1;stroke-dasharray:none;stroke-dashoffset:0;marker:none;visibility:visible;display:block;overflow:visible" />
    <path
       inkscape:connector-curvature="0"
       d="m 26.500002,21.499999 c 4.333206,0 8.666413,0 12.999621,0"
       id="path4318-4"
       style="opacity:0.3;fill:none;stroke:#ffffff;stroke-width:1;stroke-linecap:square;stroke-linejoin:round;stroke-miterlimit:4;stroke-opacity:1;stroke-dasharray:none;stroke-dashoffset:0;marker:none;visibility:visible;display:block;overflow:visible" />
    <path
       inkscape:connector-curvature="0"
       d="m 43.343617,20.003113 c -6.936633,0.07213 -13.875844,-0.0208 -20.813467,0 -0.861387,0.404256 -0.397809,2.425443 -0.463612,3.708579 0.105855,4.093861 0.154025,8.205661 0.29581,12.288308 7.151615,-2.323363 14.267721,-4.530359 21.294142,-6.931998 0.372344,-2.543407 0.375389,-5.575951 0.3134,-8.28854 -0.109243,-0.496141 -0.375213,-0.787478 -0.626273,-0.776349 z"
       id="path3455-8"
       style="fill:url(#linearGradient4016);fill-opacity:1;stroke:none" />
  </g>
</svg>
