<?xml version="1.0" encoding="UTF-8" standalone="no"?>
<!-- Created with Inkscape (http://www.inkscape.org/) -->
<svg id="svg2803" xmlns="http://www.w3.org/2000/svg" height="48" width="48" version="1.1" xmlns:xlink="http://www.w3.org/1999/xlink">
 <defs id="defs2805">
  <radialGradient id="radialGradient3588" xlink:href="#linearGradient5060" gradientUnits="userSpaceOnUse" cy="486.65" cx="605.71" gradientTransform="matrix(.024097 0 0 .015375 26.478 38.629)" r="117.14"/>
  <linearGradient id="linearGradient5060">
   <stop id="stop5062" offset="0"/>
   <stop id="stop5064" style="stop-opacity:0" offset="1"/>
  </linearGradient>
  <radialGradient id="radialGradient3586" xlink:href="#linearGradient5060" gradientUnits="userSpaceOnUse" cy="486.65" cx="605.71" gradientTransform="matrix(-.024097 0 0 .015375 21.522 38.629)" r="117.14"/>
  <linearGradient id="linearGradient3584" y2="609.51" gradientUnits="userSpaceOnUse" x2="302.86" gradientTransform="matrix(.070414 0 0 .015375 -1.4497 38.629)" y1="366.65" x1="302.86">
   <stop id="stop5050" style="stop-opacity:0" offset="0"/>
   <stop id="stop5056" offset=".5"/>
   <stop id="stop5052" style="stop-opacity:0" offset="1"/>
  </linearGradient>
  <linearGradient id="linearGradient3603" y2="2.9062" gradientUnits="userSpaceOnUse" x2="-51.786" gradientTransform="matrix(.80750 0 0 .93585 59.402 -1.1145)" y1="50.786" x1="-51.786">
   <stop id="stop3106" style="stop-color:#aaa" offset="0"/>
   <stop id="stop3108" style="stop-color:#d2d2d2" offset="1"/>
  </linearGradient>
  <linearGradient id="linearGradient3601" y2="47.013" gradientUnits="userSpaceOnUse" x2="25.132" gradientTransform="translate(-.008002)" y1="6.7287" x1="25.132">
   <stop id="stop3602" style="stop-color:#f4f4f4" offset="0"/>
   <stop id="stop3604" style="stop-color:#dbdbdb" offset="1"/>
  </linearGradient>
  <linearGradient id="linearGradient3691" y2="5.4565" gradientUnits="userSpaceOnUse" x2="36.358" gradientTransform="matrix(.99770 0 0 1.0642 .15580 -.13926)" y1="8.059" x1="32.892">
   <stop id="stop8591" style="stop-color:#fefefe" offset="0"/>
   <stop id="stop8593" style="stop-color:#cbcbcb" offset="1"/>
  </linearGradient>
  <linearGradient id="linearGradient3747" y2="44.786" gradientUnits="userSpaceOnUse" x2="15.656" gradientTransform="matrix(.72889 0 0 .72888 14.793 11.225)" y1="13.36" x1="15.656">
   <stop id="stop37937" style="stop-color:#7c7c7c" offset="0"/>
   <stop id="stop37939" style="stop-color:#242424" offset="1"/>
  </linearGradient>
  <linearGradient id="linearGradient3744" y2="7.4435" gradientUnits="userSpaceOnUse" x2="63.397" gradientTransform="matrix(1.5597 0 0 1.5597 -65.016 34.476)" y1="-9.3833" x1="63.397">
   <stop id="stop4258" style="stop-color:#fff" offset="0"/>
   <stop id="stop4260" style="stop-color:#fff;stop-opacity:0" offset="1"/>
  </linearGradient>
  <linearGradient id="linearGradient3732" y2="25.884" gradientUnits="userSpaceOnUse" x2="22.218" y1="7.7893" x1="6.3422">
   <stop id="stop42176" style="stop-color:#a0a0a0" offset="0"/>
   <stop id="stop42178" style="stop-color:#fff" offset="1"/>
  </linearGradient>
  <radialGradient id="radialGradient3730" gradientUnits="userSpaceOnUse" cy="10.045" cx="11.902" r="29.293">
   <stop id="stop2147" style="stop-color:#fffffd" offset="0"/>
   <stop id="stop2149" style="stop-color:#cbcbc9" offset="1"/>
  </radialGradient>
 </defs>
 <g id="layer1">
  <g id="g2877" style="opacity:0.24" transform="matrix(.95613 0 0 .95613 1.045 2.1059)">
   <rect id="rect2879" style="opacity:.40206;fill:url(#linearGradient3584)" height="3.7339" width="34" y="44.266" x="7"/>
   <path id="path2881" style="opacity:.40206;fill:url(#radialGradient3586)" d="m7 44.266v3.7337c-1.2409 0.007-3-0.83652-3-1.8671 0-1.0305 1.3848-1.8666 3-1.8666z"/>
   <path id="path2883" style="opacity:.40206;fill:url(#radialGradient3588)" d="m41 44.266v3.7337c1.2409 0.007 3-0.83652 3-1.8671 0-1.0305-1.3848-1.8666-3-1.8666z"/>
  </g>
  <path id="rect2594" style="opacity:.4;stroke-linejoin:round;stroke:url(#linearGradient3603);stroke-width:.99992;fill:url(#linearGradient3601)" d="m6.492 1.5h24.061c1.4069 0.48538 8.9655 6.0151 10.939 9.844v35.156h-35v-45z"/>
  <g id="g2837" style="opacity:.4" transform="matrix(.47807 0 0 .52534 -25.701 6.7358)">
   <rect id="rect4691" style="opacity:.12571;fill-rule:evenodd" transform="scale(-1,1)" height="8.7778" width="8.7778" y="46.833" x="-95.308"/>
   <rect id="rect4693" style="opacity:.12571;fill-rule:evenodd" transform="scale(-1,1)" height="8.7778" width="8.7778" y="3.1237" x="-104.03"/>
   <rect id="rect4695" style="opacity:.12571;fill-rule:evenodd" transform="scale(-1,1)" height="8.7778" width="8.7778" y="2.9222" x="-121.59"/>
   <rect id="rect4697" style="opacity:.12571;fill-rule:evenodd" transform="scale(-1,1)" height="8.7778" width="8.7778" y="11.722" x="-112.81"/>
   <rect id="rect4699" style="opacity:.12571;fill-rule:evenodd" transform="scale(-1,1)" height="8.7778" width="8.7778" y="2.9222" x="-86.366"/>
   <rect id="rect4701" style="opacity:.12571;fill-rule:evenodd" transform="scale(-1,1)" height="8.7778" width="8.7778" y="11.722" x="-130.37"/>
   <rect id="rect4703" style="opacity:.12571;fill-rule:evenodd" transform="scale(-1,1)" height="8.7778" width="8.7778" y="20.5" x="-121.59"/>
   <rect id="rect4705" style="opacity:.12571;fill-rule:evenodd" transform="scale(-1,1)" height="8.7778" width="8.7778" y="29.278" x="-112.81"/>
   <rect id="rect4707" style="opacity:.12571;fill-rule:evenodd" transform="scale(-1,1)" height="8.7778" width="8.7778" y="20.5" x="-104.03"/>
   <rect id="rect4709" style="opacity:.12571;fill-rule:evenodd" transform="scale(-1,1)" height="8.7778" width="8.7778" y="11.722" x="-95.255"/>
   <rect id="rect4711" style="opacity:.12571;fill-rule:evenodd" transform="scale(-1,1)" height="8.7778" width="8.7778" y="20.5" x="-86.477"/>
   <rect id="rect4713" style="opacity:.12571;fill-rule:evenodd" transform="scale(-1,1)" height="8.7778" width="8.7778" y="29.278" x="-95.255"/>
   <rect id="rect4715" style="opacity:.12571;fill-rule:evenodd" transform="scale(-1,1)" height="8.7778" width="8.7778" y="38.055" x="-86.477"/>
   <rect id="rect4719" style="opacity:.12571;fill-rule:evenodd" transform="scale(-1,1)" height="8.7778" width="8.7778" y="29.278" x="-130.37"/>
   <rect id="rect4721" style="opacity:.12571;fill-rule:evenodd" transform="scale(-1,1)" height="8.7778" width="8.7778" y="38.055" x="-121.59"/>
   <rect id="rect4723" style="opacity:.12571;fill-rule:evenodd" transform="scale(-1,1)" height="8.7778" width="8.7778" y="46.833" x="-130.37"/>
   <rect id="rect4725" style="opacity:.12571;fill-rule:evenodd" transform="scale(-1,1)" height="8.7778" width="8.7778" y="55.611" x="-121.59"/>
   <rect id="rect4727" style="opacity:.12571;fill-rule:evenodd" transform="scale(-1,1)" height="8.7778" width="8.7778" y="46.833" x="-112.81"/>
   <rect id="rect4729" style="opacity:.12571;fill-rule:evenodd" transform="scale(-1,1)" height="8.7778" width="8.7778" y="38.055" x="-104.03"/>
   <rect id="rect4731" style="opacity:.12571;fill-rule:evenodd" transform="scale(-1,1)" height="8.7778" width="8.7778" y="55.611" x="-103.92"/>
   <rect id="rect2835" style="opacity:.12571;fill-rule:evenodd" transform="scale(-1,1)" height="8.7778" width="8.7778" y="55.611" x="-86.477"/>
  </g>
  <path id="path8596" style="opacity:.4;stroke-linejoin:round;stroke-opacity:.16583;fill-opacity:.32663;fill-rule:evenodd;stroke:#000;stroke-width:.5" d="m29.76 1.8146c0.6375 4.1251 0.60946 9.0345 0.60946 9.0345s4.8697-0.1115 10.885 0.59393c-4.897-4.7878-8.328-6.7842-11.494-9.6284z"/>
  <path id="path12038" style="opacity:.4;fill:url(#linearGradient3691);fill-rule:evenodd" d="m29.65 1.5079c1.4122 4.1225 1.2951 8.2607 1.2951 8.2607s7.833 0.54731 10.175 1.5939c0-1.7111-9.2975-9.8254-11.47-9.8546z"/>
  <path id="path6495" style="stroke:#333;stroke-width:.99346;fill:url(#linearGradient3747)" d="m46.503 28.999c0 8.0102-6.4938 14.504-14.503 14.504-8.01 0-14.503-6.4937-14.503-14.504 0-8.0098 6.4934-14.503 14.503-14.503 8.0093 0 14.503 6.4929 14.503 14.503z"/>
  <path id="path8655" style="opacity:.4;stroke:url(#linearGradient3744);stroke-width:.75725;fill:none" d="m45.641 29c0 7.5338-6.1076 13.641-13.641 13.641-7.5336 0-13.641-6.1075-13.641-13.641s6.1073-13.64 13.641-13.64c7.5329 0 13.641 6.1068 13.641 13.64z"/>
  <path id="path35549" style="stroke-linejoin:bevel;fill-rule:evenodd;stroke:url(#linearGradient3732);stroke-linecap:round;stroke-width:1.2402;fill:url(#radialGradient3730)" d="m31.161 16.911a14.911 14.911 0 1 1 -29.821 0 14.911 14.911 0 1 1 29.821 0z" transform="matrix(.77266 0 0 .77266 19.444 15.934)"/>
  <path id="path2291" style="fill-rule:evenodd;stroke:#5f5f5f;stroke-linecap:round;stroke-width:.99346;fill:#616161" d="m21.797 29.503c2.0164 0 2.2717-0.05801 2.2717-0.05801"/>
  <path id="path2296" style="fill-rule:evenodd;stroke:#1f1f1f;stroke-linecap:round;stroke-width:.99346;fill:#1f1f1f" d="m40.136 29.503c2.0164 0 2.2717-0.05801 2.2717-0.05801"/>
  <path id="path2306" style="fill-rule:evenodd;stroke:#121212;stroke-linecap:round;stroke-width:.99346;fill:#131313" d="m32.555 38.93c0-2.0163-0.05801-2.2716-0.05801-2.2716"/>
  <path id="path2308" style="fill-rule:evenodd;stroke:#727272;stroke-linecap:round;stroke-width:.99346;fill:#1f1f1f" d="m32.555 20.744c0-2.0163-0.05801-2.2716-0.05801-2.2716"/>
  <g id="g2318" style="stroke-width:2.3773;stroke-linecap:round" transform="matrix(.41790 0 0 .41789 22.742 19.355)">
   <path id="path2312" style="stroke:#000;stroke-linecap:round;stroke-width:2.3773;fill:none" d="m21.168 23.653 19.031-19.031"/>
   <path id="path2314" style="stroke:#000;stroke-linecap:round;stroke-width:2.3773;fill:none" d="m24.258 23.793-12.71-12.71"/>
   <path id="path2316" style="fill-rule:evenodd;stroke:#f00;stroke-linecap:round;stroke-width:2.3773;fill:#f00" d="m21.59 22.67 21.671-5.807"/>
  </g>
 </g>
</svg>
