<?xml version="1.0" encoding="UTF-8" standalone="no"?>
<!-- Created with Inkscape (http://www.inkscape.org/) -->
<svg
   xmlns:svg="http://www.w3.org/2000/svg"
   xmlns="http://www.w3.org/2000/svg"
   xmlns:xlink="http://www.w3.org/1999/xlink"
   version="1.0"
   width="48"
   height="48"
   id="svg2439">
  <defs
     id="defs2441">
    <linearGradient
       id="linearGradient5670-725-6">
      <stop
         id="stop3197-4"
         style="stop-color:#000000;stop-opacity:1"
         offset="0" />
      <stop
         id="stop3199-8"
         style="stop-color:#000000;stop-opacity:0"
         offset="1" />
    </linearGradient>
    <radialGradient
       cx="22.90196"
       cy="45.866665"
       r="7.9058824"
       fx="22.90196"
       fy="45.866665"
       id="radialGradient3344"
       xlink:href="#linearGradient5670-725-6"
       gradientUnits="userSpaceOnUse"
       gradientTransform="matrix(0.6976533,0,0,0.2996088,21.419308,28.889924)" />
    <linearGradient
       id="linearGradient5670-612-8">
      <stop
         id="stop3203-1"
         style="stop-color:#000000;stop-opacity:1"
         offset="0" />
      <stop
         id="stop3205-0"
         style="stop-color:#000000;stop-opacity:0"
         offset="1" />
    </linearGradient>
    <radialGradient
       cx="22.90196"
       cy="45.866665"
       r="7.9058824"
       fx="22.90196"
       fy="45.866665"
       id="radialGradient3254"
       xlink:href="#linearGradient5670-612-8"
       gradientUnits="userSpaceOnUse"
       gradientTransform="matrix(0.7587453,0,0,0.3258449,8.1065241,29.479142)" />
    <linearGradient
       id="linearGradient7067-814-120-245-2">
      <stop
         id="stop3877-9"
         style="stop-color:#aaaaaa;stop-opacity:1"
         offset="0" />
      <stop
         id="stop3879-7"
         style="stop-color:#4d4d4d;stop-opacity:1"
         offset="1" />
    </linearGradient>
    <radialGradient
       cx="17.058823"
       cy="41.058823"
       r="5.7384715"
       fx="14.638257"
       fy="38.175381"
       id="radialGradient3250"
       xlink:href="#linearGradient7067-814-120-245-2"
       gradientUnits="userSpaceOnUse"
       gradientTransform="matrix(0.6649828,0,-0.1088639,0.6373854,18.850664,15.262641)" />
    <linearGradient
       id="linearGradient7067-561-456-275-6">
      <stop
         id="stop3871-4"
         style="stop-color:#aaaaaa;stop-opacity:1"
         offset="0" />
      <stop
         id="stop3873-6"
         style="stop-color:#4d4d4d;stop-opacity:1"
         offset="1" />
    </linearGradient>
    <radialGradient
       cx="17.058823"
       cy="41.058823"
       r="5.7384715"
       fx="14.109128"
       fy="38.980988"
       id="radialGradient3247"
       xlink:href="#linearGradient7067-561-456-275-6"
       gradientUnits="userSpaceOnUse"
       gradientTransform="matrix(0.6633252,0,-0.1085925,0.6357966,30.909671,13.497457)" />
    <linearGradient
       id="linearGradient2372-270-7">
      <stop
         id="stop3239-9"
         style="stop-color:#ffffff;stop-opacity:1"
         offset="0" />
      <stop
         id="stop3241-7"
         style="stop-color:#ffffff;stop-opacity:0.37931034"
         offset="1" />
    </linearGradient>
    <linearGradient
       x1="28.739122"
       y1="144.11652"
       x2="25.400293"
       y2="119.86452"
       id="linearGradient3244"
       xlink:href="#linearGradient2372-270-7"
       gradientUnits="userSpaceOnUse"
       gradientTransform="matrix(0.2214737,0,0,0.2231125,22.944537,-6.078824)" />
    <linearGradient
       id="linearGradient2372-378-9">
      <stop
         id="stop3245-1"
         style="stop-color:#ffffff;stop-opacity:1"
         offset="0" />
      <stop
         id="stop3247-7"
         style="stop-color:#ffffff;stop-opacity:0.37931034"
         offset="1" />
    </linearGradient>
    <linearGradient
       x1="28.739122"
       y1="144.11652"
       x2="26.256771"
       y2="125.39074"
       id="linearGradient3241"
       xlink:href="#linearGradient2372-378-9"
       gradientUnits="userSpaceOnUse"
       gradientTransform="matrix(0.4456319,0,0,0.2231125,29.628469,-7.657261)" />
    <linearGradient
       id="linearGradient3484">
      <stop
         id="stop3486"
         style="stop-color:#bdbdbd;stop-opacity:1"
         offset="0" />
      <stop
         id="stop3488"
         style="stop-color:#d0d0d0;stop-opacity:1"
         offset="1" />
    </linearGradient>
    <radialGradient
       cx="3"
       cy="5.01718"
       r="21"
       fx="3"
       fy="5.01718"
       id="radialGradient3973"
       xlink:href="#linearGradient3484"
       gradientUnits="userSpaceOnUse"
       gradientTransform="matrix(-1.274898e-8,1.7142916,-2.159331,-1.4599595e-8,12.809361,2.8570011)" />
    <linearGradient
       id="linearGradient6404">
      <stop
         id="stop6406"
         style="stop-color:#f9f9f9;stop-opacity:1"
         offset="0" />
      <stop
         id="stop6408"
         style="stop-color:#c9c9c9;stop-opacity:1"
         offset="1" />
    </linearGradient>
    <linearGradient
       x1="62.988873"
       y1="13.182598"
       x2="62.988873"
       y2="16.19013"
       id="linearGradient3971"
       xlink:href="#linearGradient6404"
       gradientUnits="userSpaceOnUse"
       gradientTransform="translate(-50.940898,0)" />
    <linearGradient
       id="linearGradient5048-585">
      <stop
         id="stop2667"
         style="stop-color:#000000;stop-opacity:0"
         offset="0" />
      <stop
         id="stop2669"
         style="stop-color:#000000;stop-opacity:1"
         offset="0.5" />
      <stop
         id="stop2671"
         style="stop-color:#000000;stop-opacity:0"
         offset="1" />
    </linearGradient>
    <linearGradient
       x1="302.85715"
       y1="366.64789"
       x2="302.85715"
       y2="609.50507"
       id="linearGradient3686"
       xlink:href="#linearGradient5048-585"
       gradientUnits="userSpaceOnUse"
       gradientTransform="matrix(7.9388558e-2,0,0,2.4705883e-2,-4.693293,31.941642)" />
    <linearGradient
       id="linearGradient5060-179">
      <stop
         id="stop2675"
         style="stop-color:#000000;stop-opacity:1"
         offset="0" />
      <stop
         id="stop2677"
         style="stop-color:#000000;stop-opacity:0"
         offset="1" />
    </linearGradient>
    <radialGradient
       cx="605.71429"
       cy="486.64789"
       r="117.14286"
       fx="605.71429"
       fy="486.64789"
       id="radialGradient3683"
       xlink:href="#linearGradient5060-179"
       gradientUnits="userSpaceOnUse"
       gradientTransform="matrix(3.0790832e-2,0,0,2.4705883e-2,24.610252,31.941642)" />
    <linearGradient
       id="linearGradient5060-820">
      <stop
         id="stop2681"
         style="stop-color:#000000;stop-opacity:1"
         offset="0" />
      <stop
         id="stop2683"
         style="stop-color:#000000;stop-opacity:0"
         offset="1" />
    </linearGradient>
    <radialGradient
       cx="605.71429"
       cy="486.64789"
       r="117.14286"
       fx="605.71429"
       fy="486.64789"
       id="radialGradient3680"
       xlink:href="#linearGradient5060-820"
       gradientUnits="userSpaceOnUse"
       gradientTransform="matrix(-3.0790825e-2,0,0,2.4705883e-2,23.389748,31.941642)" />
    <linearGradient
       id="linearGradient2490">
      <stop
         id="stop2492"
         style="stop-color:#4c680f;stop-opacity:1"
         offset="0" />
      <stop
         id="stop2494"
         style="stop-color:#84a718;stop-opacity:1"
         offset="1" />
    </linearGradient>
    <linearGradient
       x1="82.453476"
       y1="45.114193"
       x2="82.453476"
       y2="16.047026"
       id="linearGradient3677"
       xlink:href="#linearGradient2490"
       gradientUnits="userSpaceOnUse"
       gradientTransform="translate(-53.765393,-0.1141929)" />
    <linearGradient
       id="linearGradient3242">
      <stop
         id="stop3246"
         style="stop-color:#cde34f;stop-opacity:1"
         offset="0" />
      <stop
         id="stop3248"
         style="stop-color:#93b723;stop-opacity:1"
         offset="0.66093999" />
      <stop
         id="stop3250"
         style="stop-color:#68910f;stop-opacity:1"
         offset="1" />
    </linearGradient>
    <radialGradient
       cx="63.969177"
       cy="14.113381"
       r="23.097054"
       fx="63.969177"
       fy="14.113381"
       id="radialGradient3675"
       xlink:href="#linearGradient3242"
       gradientUnits="userSpaceOnUse"
       gradientTransform="matrix(1.5646925,-9.5143002e-8,6.1772287e-8,1.015888,-86.212573,8.1461173)" />
    <linearGradient
       id="linearGradient6129-963-697-142-998-580-273">
      <stop
         id="stop2661"
         style="stop-color:#0a0a0a;stop-opacity:0.498"
         offset="0" />
      <stop
         id="stop2663"
         style="stop-color:#0a0a0a;stop-opacity:0"
         offset="1" />
    </linearGradient>
    <linearGradient
       x1="22.934725"
       y1="49.629246"
       x2="22.809399"
       y2="36.657963"
       id="linearGradient3672"
       xlink:href="#linearGradient6129-963-697-142-998-580-273"
       gradientUnits="userSpaceOnUse"
       gradientTransform="matrix(1.1446925,0,0,0.9977536,-3.7387608,1.1129576)" />
    <linearGradient
       id="linearGradient6087-437-184-795-110-662-495">
      <stop
         id="stop2693"
         style="stop-color:#ffffff;stop-opacity:0.40000001"
         offset="0" />
      <stop
         id="stop2695"
         style="stop-color:#ffffff;stop-opacity:0"
         offset="1" />
    </linearGradient>
    <radialGradient
       cx="7.2646537"
       cy="8.3021259"
       r="20.979567"
       fx="7.2646537"
       fy="8.3021259"
       id="radialGradient3669"
       xlink:href="#linearGradient6087-437-184-795-110-662-495"
       gradientUnits="userSpaceOnUse"
       gradientTransform="matrix(0,1.2079744,-1.6271642,0,26.371748,8.2664685)" />
    <linearGradient
       id="linearGradient8265-821-176-38-919-66-249">
      <stop
         id="stop2687"
         style="stop-color:#ffffff;stop-opacity:0.2"
         offset="0" />
      <stop
         id="stop2689"
         style="stop-color:#ffffff;stop-opacity:0"
         offset="1" />
    </linearGradient>
    <linearGradient
       x1="11.566265"
       y1="22.292103"
       x2="15.214532"
       y2="33.95525"
       id="linearGradient3666"
       xlink:href="#linearGradient8265-821-176-38-919-66-249"
       gradientUnits="userSpaceOnUse" />
  </defs>
  <g
     id="layer1">
    <path
       d="M 3.5062498,8.4999995 C 2.8159788,8.5076695 2.505808,8.8421456 2.505808,9.4999995 C 2.505808,15.014454 2.532086,19.239576 2.499998,24.25043 C 3.9354686,24.25043 45.499996,20.550698 45.499996,18.958166 L 45.499996,12.506647 C 45.499996,11.848794 44.945792,11.498976 44.255517,11.506647 L 23.999998,11.506647 C 21.952515,11.506647 20.501107,8.4999995 18.999998,8.4999995 L 3.5062477,8.4999995 L 3.5062498,8.4999995 z"
       id="path3468"
       style="fill:url(#linearGradient3971);fill-opacity:1;stroke:url(#radialGradient3973);stroke-width:1.00000012;stroke-linecap:round;stroke-linejoin:round;stroke-miterlimit:4;stroke-dasharray:none;stroke-opacity:1;display:inline" />
    <rect
       width="38.333332"
       height="6.0000005"
       x="4.833334"
       y="41"
       id="rect4173"
       style="opacity:0.3;fill:url(#linearGradient3686);fill-opacity:1;fill-rule:nonzero;stroke:none;stroke-width:1;stroke-linecap:round;stroke-linejoin:miter;marker:none;marker-start:none;marker-mid:none;marker-end:none;stroke-miterlimit:4;stroke-dasharray:none;stroke-dashoffset:0;stroke-opacity:1;visibility:visible;display:inline;overflow:visible" />
    <path
       d="M 43.166666,41.000208 C 43.166666,41.000208 43.166666,46.999878 43.166666,46.999878 C 44.752318,47.011172 47,45.655656 46.999999,43.999657 C 46.999999,42.343657 45.230531,41.000208 43.166666,41.000208 z"
       id="path5058"
       style="opacity:0.3;fill:url(#radialGradient3683);fill-opacity:1;fill-rule:nonzero;stroke:none;stroke-width:1;stroke-linecap:round;stroke-linejoin:miter;marker:none;marker-start:none;marker-mid:none;marker-end:none;stroke-miterlimit:4;stroke-dasharray:none;stroke-dashoffset:0;stroke-opacity:1;visibility:visible;display:inline;overflow:visible" />
    <path
       d="M 4.833334,41.000208 C 4.833334,41.000208 4.833334,46.999878 4.833334,46.999878 C 3.2476822,47.011172 1.0000008,45.655656 1.0000008,43.999657 C 1.0000008,42.343657 2.7694682,41.000208 4.833334,41.000208 z"
       id="path5018"
       style="opacity:0.3;fill:url(#radialGradient3680);fill-opacity:1;fill-rule:nonzero;stroke:none;stroke-width:1;stroke-linecap:round;stroke-linejoin:miter;marker:none;marker-start:none;marker-mid:none;marker-end:none;stroke-miterlimit:4;stroke-dasharray:none;stroke-dashoffset:0;stroke-opacity:1;visibility:visible;display:inline;overflow:visible" />
    <path
       d="M 2.1628556,16.525193 C 1.0901486,16.648887 1.6630856,17.927311 1.5775586,18.646205 C 1.7020414,19.110781 2.5053859,43.063325 2.5053859,43.885807 C 2.5053859,44.600671 2.8572396,44.479557 3.7487803,44.479557 C 16.942325,44.479557 31.531812,44.479557 44.725358,44.479557 C 45.685801,44.501843 45.482824,44.491174 45.482824,43.874533 C 45.553023,43.559678 46.476175,17.499307 46.51171,17.087693 C 46.51171,16.654289 46.601896,16.525193 46.038369,16.525193 C 31.948995,16.525193 16.252234,16.525193 2.1628556,16.525193 z"
       id="path3388"
       style="fill:url(#radialGradient3675);fill-opacity:1;stroke:url(#linearGradient3677);stroke-width:1;stroke-linecap:round;stroke-linejoin:round;stroke-miterlimit:4;stroke-dashoffset:0;stroke-opacity:1" />
    <path
       d="M 1.7856233,16.079261 L 45.682099,16.079664 C 46.316259,16.079664 46.727254,16.524275 46.727254,17.077031 L 45.694841,44.037403 C 45.709506,44.736805 45.485752,45.014115 44.748941,44.99945 L 2.968222,44.981881 C 2.3340621,44.981881 1.6945928,44.569117 1.6945928,44.016362 L 0.74046912,17.077015 C 0.74046912,16.524258 1.1514634,16.079261 1.7856233,16.079261 z"
       id="path6127"
       style="opacity:0.4;fill:url(#linearGradient3672);fill-opacity:1;stroke:none;stroke-width:1;stroke-linecap:round;stroke-linejoin:round;stroke-miterlimit:4;stroke-dashoffset:0;stroke-opacity:1" />
    <path
       d="M 46.5,17.5 C 32.96875,17.5 16.03125,17.5 2.5,17.5 C 2.8854167,25.677083 3.2708333,33.854167 3.65625,42.03125"
       id="path2435"
       style="fill:none;fill-rule:evenodd;stroke:url(#radialGradient3669);stroke-width:0.99999976;stroke-linecap:round;stroke-linejoin:round;stroke-miterlimit:4;stroke-dasharray:none;stroke-opacity:1" />
    <path
       d="M 46.114796,16.0228 C 31.565206,16.096148 16.645416,15.978851 2.09375,16 C 0.28698984,16.411117 1.2593433,18.46661 1.1213236,19.771525 C 1.3433531,23.934872 1.4443903,28.116464 1.7417851,32.268407 C 16.742298,29.905609 31.66833,27.661153 46.40625,25.21875 C 47.187241,22.632172 46.97703,17.963572 47.018007,17.017524 C 47.096668,16.341963 46.641395,16.011482 46.114796,16.0228 z"
       id="path3455"
       style="fill:url(#linearGradient3666);fill-opacity:1;stroke:none;stroke-width:1;stroke-linecap:round;stroke-linejoin:round;stroke-miterlimit:4;stroke-dashoffset:0;stroke-opacity:1" />
  </g>
  <path
     d="M 42.912501,42.631991 C 42.912501,43.940174 40.443098,45.000665 37.396936,45.000665 C 34.350774,45.000665 31.881371,43.940174 31.881371,42.631991 C 31.881371,41.323808 34.350774,40.263317 37.396936,40.263317 C 40.443098,40.263317 42.912501,41.323808 42.912501,42.631991 z"
     id="path2704"
     style="opacity:0.3;fill:url(#radialGradient3344);fill-opacity:1;stroke:none" />
  <path
     d="M 31.481829,44.424571 C 31.480974,45.847049 28.795581,47 25.483278,47 C 22.170975,47 19.485582,45.847049 19.484727,44.424571 C 19.483871,43.001574 22.169765,41.847812 25.483278,41.847812 C 28.796791,41.847812 31.482685,43.001574 31.481829,44.424571 L 31.481829,44.424571 z"
     id="path4121"
     style="opacity:0.3;fill:url(#radialGradient3254);fill-opacity:1;stroke:none" />
  <path
     d="M 41.378146,19.504217 C 37.251223,20.162407 32.50594,20.839963 28.39049,21.534913 C 27.300697,22.061159 27.545698,23.416252 27.497484,24.399497 C 27.497484,28.786929 27.497484,33.174361 27.497484,37.561793 C 24.696637,36.920593 21.622346,39.012647 21.500876,41.98645 C 21.302589,43.837874 22.961443,45.449433 24.765295,45.492769 C 27.995016,45.570359 30.449694,43.449627 30.484727,40.767582 C 30.449457,36.263244 30.494627,31.757133 30.484727,27.252104 C 30.984727,27.215454 38.803701,25.785255 39.484727,25.69003 C 39.484727,29.06411 39.484727,32.43819 39.484727,35.81227 C 36.901333,35.051211 34.319045,36.641814 33.682836,39.307834 C 33.212098,40.852234 33.921821,42.6779 35.453897,43.310648 C 38.444756,44.670811 42.651648,41.915655 42.484727,38.68214 C 42.438407,32.675843 42.522697,26.667089 42.484727,20.660151 C 42.406177,20.095666 42.01969,19.46347 41.378146,19.504217 L 41.378146,19.504217 z"
     id="path4031"
     style="fill:#4d4d4d;fill-opacity:1;stroke:#333333;stroke-width:1;stroke-linecap:round;stroke-linejoin:round;stroke-miterlimit:4;stroke-dasharray:none;stroke-opacity:1" />
  <path
     d="M 29.620561,40.767546 C 29.620561,42.755374 27.876308,44.664741 25.724664,45.032236 C 23.573019,45.399732 21.828767,44.086193 21.828767,42.098365 C 21.828767,40.110537 23.57302,38.20117 25.724664,37.833675 C 27.876309,37.466179 29.620561,38.779718 29.620561,40.767546 z"
     id="path2937"
     style="fill:url(#radialGradient3250);fill-opacity:1;stroke:none" />
  <path
     d="M 41.662433,38.937127 C 41.662924,40.925192 39.918528,42.835084 37.766536,43.202639 C 35.614544,43.570194 33.870148,42.256179 33.87064,40.267946 C 33.871131,38.280355 35.61524,36.371514 37.766537,36.004078 C 39.917834,35.636642 41.661942,36.949704 41.662433,38.937127 z"
     id="path2941"
     style="fill:url(#radialGradient3247);fill-opacity:1;stroke:none" />
  <path
     d="M 28.09147,38.16611 L 27.99747,23.120903 C 27.99747,23.120903 28.100367,21.97071 28.863641,21.967204 C 29.134344,21.920334 41,19.963101 41,19.963101 C 41,19.963101 42.532086,20.691014 29.984725,22.730818 C 28.697626,22.978258 28.984713,23.461759 28.984713,24.310857 C 28.984713,26.601047 28.984715,30.332326 28.984715,38.67124 C 28.984715,38.7309 28.414923,38.248536 28.091468,38.16611 L 28.09147,38.16611 z"
     id="path2945"
     style="opacity:0.3;fill:url(#linearGradient3244);fill-opacity:1;fill-rule:evenodd;stroke:none" />
  <path
     d="M 39.98473,36.434456 L 40.04413,25.068771 C 40.670045,25.012801 40.14023,25.059771 40.984247,24.975931 C 40.995857,27.098925 40.984727,28.861108 40.984727,36.879093 C 40.984727,36.938753 40.635564,36.516882 39.98473,36.434456 z"
     id="path2947"
     style="opacity:0.3;fill:url(#linearGradient3241);fill-opacity:1;fill-rule:evenodd;stroke:none" />
</svg>
