<?xml version="1.0" encoding="UTF-8" standalone="no"?>
<!-- Created with Inkscape (http://www.inkscape.org/) -->

<svg
   xmlns:dc="http://purl.org/dc/elements/1.1/"
   xmlns:cc="http://creativecommons.org/ns#"
   xmlns:rdf="http://www.w3.org/1999/02/22-rdf-syntax-ns#"
   xmlns:svg="http://www.w3.org/2000/svg"
   xmlns="http://www.w3.org/2000/svg"
   xmlns:xlink="http://www.w3.org/1999/xlink"
   version="1.0"
   width="48"
   height="48"
   id="svg2">
  <metadata
     id="metadata47">
    <rdf:RDF>
      <cc:Work
         rdf:about="">
        <dc:format>image/svg+xml</dc:format>
        <dc:type
           rdf:resource="http://purl.org/dc/dcmitype/StillImage" />
        <dc:title></dc:title>
      </cc:Work>
    </rdf:RDF>
  </metadata>
  <defs
     id="defs4">
    <linearGradient
       id="linearGradient3156">
      <stop
         id="stop3158"
         style="stop-color:#ffffff;stop-opacity:1"
         offset="0" />
      <stop
         id="stop3160"
         style="stop-color:#ffffff;stop-opacity:0"
         offset="1" />
    </linearGradient>
    <linearGradient
       id="linearGradient6493">
      <stop
         id="stop6495"
         style="stop-color:#4580d4;stop-opacity:1"
         offset="0" />
      <stop
         id="stop6497"
         style="stop-color:#114796;stop-opacity:1"
         offset="1" />
    </linearGradient>
    <linearGradient
       id="linearGradient4103">
      <stop
         id="stop4105"
         style="stop-color:#70adfb;stop-opacity:1"
         offset="0" />
      <stop
         id="stop4107"
         style="stop-color:#3465a4;stop-opacity:1"
         offset="1" />
    </linearGradient>
    <linearGradient
       id="linearGradient8838">
      <stop
         id="stop8840"
         style="stop-color:#000000;stop-opacity:1"
         offset="0" />
      <stop
         id="stop8842"
         style="stop-color:#000000;stop-opacity:0"
         offset="1" />
    </linearGradient>
    <radialGradient
       cx="62.625"
       cy="4.625"
       r="10.625"
       fx="62.625"
       fy="4.625"
       id="radialGradient5729"
       xlink:href="#linearGradient8838"
       gradientUnits="userSpaceOnUse"
       gradientTransform="matrix(1,0,0,0.341176,0,3.047059)" />
    <radialGradient
       cx="22.125"
       cy="10.874998"
       r="20"
       fx="22.125"
       fy="10.874998"
       id="radialGradient5540"
       xlink:href="#linearGradient3156"
       gradientUnits="userSpaceOnUse"
       gradientTransform="matrix(1.0099925,-0.1119962,0.05668752,0.5112133,-5.8375646,1.7934718)" />
    <radialGradient
       cx="20.038782"
       cy="12.610249"
       r="22.463524"
       fx="20.038782"
       fy="12.610249"
       id="radialGradient5551"
       xlink:href="#linearGradient4103"
       gradientUnits="userSpaceOnUse"
       gradientTransform="matrix(1.9530852,-0.01020764,0.00788488,1.5140441,-20.059757,-7.877158)" />
    <linearGradient
       x1="34"
       y1="9"
       x2="34"
       y2="49"
       id="linearGradient5553"
       xlink:href="#linearGradient6493"
       gradientUnits="userSpaceOnUse"
       gradientTransform="translate(-5.0000016,-6)" />
  </defs>
  <g
     id="layer1">
    <g
       id="g6334">
      <path
         d="m 73.25,4.625 c 0,2.0020323 -4.756974,3.6250001 -10.625,3.6250001 C 56.756974,8.2500001 52,6.6270323 52,4.625 52,2.6229677 56.756974,0.99999989 62.625,0.99999989 c 5.868026,0 10.625,1.62296781 10.625,3.62500011 l 0,0 z"
         transform="matrix(1.9262213,0,0,2.1088276,-97.163508,29.602172)"
         id="path8836"
         style="opacity:0.4;fill:url(#radialGradient5729);fill-opacity:1;fill-rule:evenodd;stroke:none;stroke-width:0.49589729;marker:none;visibility:visible;display:inline;overflow:visible" />
      <path
         d="m 44.500921,23 c 0,11.316512 -9.178384,20.500922 -20.487463,20.500922 -11.30908,0 -20.4874629,-9.18441 -20.4874629,-20.500922 0,-11.316509 9.1783829,-20.5009224 20.4874629,-20.5009224 11.309079,0 20.487463,9.1844134 20.487463,20.5009224 z"
         id="path1307"
         style="fill:url(#radialGradient5551);fill-opacity:1;stroke:url(#linearGradient5553);stroke-width:0.99815506;stroke-linecap:round;stroke-linejoin:round;stroke-miterlimit:4;stroke-opacity:1;stroke-dasharray:none;stroke-dashoffset:0" />
      <path
         d="m 43.501763,23 c 0,10.764976 -8.736791,19.501764 -19.501765,19.501764 C 13.235024,42.501764 4.4982338,33.764976 4.4982338,23 c 0,-10.764974 8.7367902,-19.5017646 19.5017642,-19.5017646 10.764974,0 19.501765,8.7367906 19.501765,19.5017646 z"
         id="path3164"
         style="opacity:0.4;fill:none;stroke:url(#radialGradient5540);stroke-width:0.99647081;stroke-linecap:round;stroke-linejoin:round;stroke-miterlimit:4;stroke-opacity:1;stroke-dasharray:none;stroke-dashoffset:0" />
      <path
         d="m 10.121951,14.397811 c 0.547014,0.950886 1.723499,1.019646 2.53574,0.874838 -0.89602,3.355997 -0.276133,6.439229 1.373703,8.382541 0.963899,1.257235 1.747487,2.791366 4.165445,2.633863 1.26365,1.346131 0.113551,5.136182 0.100341,7.995349 0.057,1.536304 -0.645911,2.96592 -2.311976,4.502224 L 18.448431,39 c 0.918546,-3.31539 1.989954,-4.149071 2.406097,-10.961267 0.108674,-0.928894 0.299313,-1.806407 1.328236,-1.585532 0.150976,3.095781 -0.684129,4.855647 0.219791,6.316236 l 4.429486,5.249036 0.929111,-0.896176 -3.631487,-4.846581 -0.0095,-1.704046 0.24062,-4.291962 3.019136,-0.365854 c 0.313168,3.022548 -0.375152,4.914692 -0.913727,6.255016 -1.057253,1.930461 -1.96695,2.094397 -3.27955,3.520537 l 1.231615,1.109553 c 1.508137,-1.718432 2.822297,-2.172614 3.819728,-4.395377 0.950626,-1.358673 1.312296,-5.087892 1.719418,-7.520005 l 1.339649,-0.277388 c 0.517525,1.148462 1.014486,3.905463 1.261929,5.238617 0.439305,5.828752 -0.491754,6.68073 -0.757269,8.173666 0.877631,0.697837 1.294955,1.015436 2.11751,0 l 0,-14.872269 c 1.282975,-0.102493 0.987424,1.43563 0.885897,4.374197 1.020769,0.116374 1.358377,-2.341641 1.123577,-5.633113 C 32.82022,18.355402 31.84567,10.850722 28.085268,11.00514 l -0.864288,0 c -1.838095,-0.111642 -2.716289,1.620466 -3.68807,2.742263 -1.325168,0.849394 -2.919843,2.101728 -3.933905,3.716597 -0.460115,1.833133 -2.272568,2.363139 -2.131358,0.469139 0.746044,-1.822912 0.744205,-3.257241 0.397395,-4.410168 -0.572775,-1.602971 -1.267143,-2.2855 -2.20394,-2.517831 -1.009563,0.338982 -1.89298,0.60111 -2.361412,2.008846 l -2.535741,0 z"
         id="path3037"
         style="opacity:0.5;fill:#000000;fill-opacity:1;stroke:none" />
    </g>
  </g>
</svg>
