<svg xmlns="http://www.w3.org/2000/svg" xmlns:xlink="http://www.w3.org/1999/xlink" viewBox="0 0 48 48"><defs><linearGradient x1="23.971" y1="9.245" x2="23.971" y2="17.595" id="ab" xlink:href="#a" gradientUnits="userSpaceOnUse" gradientTransform="matrix(.50804 0 0 .2223 11.832 7.402)"/><linearGradient id="a"><stop offset="0" stop-color="#fff"/><stop offset=".43" stop-color="#fff" stop-opacity=".235"/><stop offset=".816" stop-color="#fff" stop-opacity=".157"/><stop offset="1" stop-color="#fff" stop-opacity=".392"/></linearGradient><radialGradient cx="1.279" cy="24.345" r="20" fx="1.279" fy="24.345" id="Z" xlink:href="#b" gradientUnits="userSpaceOnUse" gradientTransform="matrix(0 .26747 -.33402 0 32.006 8.567)"/><linearGradient id="b"><stop offset="0" stop-color="#959595"/><stop offset=".262" stop-color="#5d5d5d"/><stop offset=".705" stop-color="#242424"/><stop offset="1" stop-color="#181818"/></linearGradient><linearGradient x1="-3.812" y1="14.568" x2="-5.438" y2="8.804" id="aa" xlink:href="#c" gradientUnits="userSpaceOnUse" gradientTransform="matrix(1.08978 0 0 .70734 37.62 2.376)"/><linearGradient id="c"><stop offset="0"/><stop offset="1" stop-color="#161616"/></linearGradient><linearGradient x1="23.971" y1="9.245" x2="23.971" y2="17.595" id="Y" xlink:href="#d" gradientUnits="userSpaceOnUse" gradientTransform="matrix(1 0 0 .88925 0 2.042)"/><linearGradient id="d"><stop offset="0" stop-color="#fff"/><stop offset=".43" stop-color="#fff" stop-opacity=".235"/><stop offset=".816" stop-color="#fff" stop-opacity=".157"/><stop offset="1" stop-color="#fff" stop-opacity=".392"/></linearGradient><radialGradient cx="8.704" cy="24.345" r="20" fx="8.704" fy="24.345" id="W" xlink:href="#e" gradientUnits="userSpaceOnUse" gradientTransform="matrix(0 .2613 -.613 0 38.694 11.607)"/><linearGradient id="e"><stop offset="0" stop-color="#959595"/><stop offset=".262" stop-color="#5d5d5d"/><stop offset=".705" stop-color="#242424"/><stop offset="1" stop-color="#181818"/></linearGradient><linearGradient x1="-3.812" y1="14.568" x2="-5.438" y2="8.804" id="X" xlink:href="#f" gradientUnits="userSpaceOnUse" gradientTransform="matrix(2 0 0 1.76835 48.996 -5.936)"/><linearGradient id="f"><stop offset="0"/><stop offset="1" stop-color="#161616"/></linearGradient><linearGradient x1="19.835" y1="18.121" x2="19.835" y2="40.325" id="V" xlink:href="#g" gradientUnits="userSpaceOnUse" gradientTransform="matrix(-1 0 0 1 47.987 0)"/><linearGradient id="g"><stop offset="0" stop-color="#fff"/><stop offset=".11" stop-color="#fff" stop-opacity=".235"/><stop offset=".675" stop-color="#fff" stop-opacity=".157"/><stop offset="1" stop-color="#fff" stop-opacity=".392"/></linearGradient><radialGradient cx="23.438" cy="22.842" r="9.033" fx="23.438" fy="22.842" id="T" xlink:href="#h" gradientUnits="userSpaceOnUse" gradientTransform="matrix(2.35323 0 0 -3.23268 -30.608 93.946)"/><linearGradient id="h"><stop offset="0" stop-color="#f8b17e"/><stop offset=".312" stop-color="#e35d4f"/><stop offset=".571" stop-color="#c6262e"/><stop offset="1" stop-color="#690b54"/></linearGradient><linearGradient x1="17.551" y1="41.766" x2="17.551" y2="8.964" id="U" xlink:href="#i" gradientUnits="userSpaceOnUse" gradientTransform="matrix(-1 0 0 1 47.987 0)"/><linearGradient id="i"><stop offset="0" stop-color="#791235"/><stop offset="1" stop-color="#dd3b27"/></linearGradient><linearGradient x1="19.835" y1="18.121" x2="19.835" y2="40.325" id="S" xlink:href="#j" gradientUnits="userSpaceOnUse"/><linearGradient id="j"><stop offset="0" stop-color="#fff"/><stop offset=".11" stop-color="#fff" stop-opacity=".235"/><stop offset=".675" stop-color="#fff" stop-opacity=".157"/><stop offset="1" stop-color="#fff" stop-opacity=".392"/></linearGradient><radialGradient cx="23.438" cy="22.842" r="9.033" fx="23.438" fy="22.842" id="Q" xlink:href="#k" gradientUnits="userSpaceOnUse" gradientTransform="matrix(-2.35323 0 0 -3.23268 78.595 93.946)"/><linearGradient id="k"><stop offset="0" stop-color="#f8b17e"/><stop offset=".312" stop-color="#e35d4f"/><stop offset=".571" stop-color="#c6262e"/><stop offset="1" stop-color="#690b54"/></linearGradient><linearGradient x1="17.551" y1="41.766" x2="17.551" y2="8.964" id="R" xlink:href="#l" gradientUnits="userSpaceOnUse"/><linearGradient id="l"><stop offset="0" stop-color="#791235"/><stop offset="1" stop-color="#dd3b27"/></linearGradient><linearGradient x1="23.713" y1="31.306" x2="23.971" y2="39.311" id="P" xlink:href="#m" gradientUnits="userSpaceOnUse" gradientTransform="matrix(1.36364 0 0 1 -8.727 -2)"/><linearGradient id="m"><stop offset="0" stop-color="#fff"/><stop offset=".354" stop-color="#fff" stop-opacity=".235"/><stop offset=".687" stop-color="#fff" stop-opacity=".157"/><stop offset="1" stop-color="#fff" stop-opacity=".392"/></linearGradient><linearGradient x1="23.713" y1="31.306" x2="23.971" y2="39.311" id="O" xlink:href="#n" gradientUnits="userSpaceOnUse" gradientTransform="matrix(1.36364 0 0 .64706 -8.727 5.94)"/><linearGradient id="n"><stop offset="0" stop-color="#fff"/><stop offset=".354" stop-color="#fff" stop-opacity=".235"/><stop offset=".687" stop-color="#fff" stop-opacity=".157"/><stop offset="1" stop-color="#fff" stop-opacity=".392"/></linearGradient><linearGradient x1="-9.301" y1="26.605" x2="-9.301" y2="14.112" id="N" xlink:href="#o" gradientUnits="userSpaceOnUse" gradientTransform="matrix(2.61538 0 0 1.59993 56.688 -11.513)"/><linearGradient id="o"><stop offset="0"/><stop offset="1" stop-color="#161616"/></linearGradient><radialGradient cx="60.112" cy="23.612" r="20" fx="60.112" fy="23.612" id="L" xlink:href="#p" gradientUnits="userSpaceOnUse" gradientTransform="matrix(0 .89364 -1.07437 0 49.655 -32.99)"/><linearGradient id="p"><stop offset="0" stop-color="#959595"/><stop offset=".262" stop-color="#5d5d5d"/><stop offset=".705" stop-color="#242424"/><stop offset="1" stop-color="#181818"/></linearGradient><linearGradient x1="-9.301" y1="26.605" x2="-9.301" y2="14.112" id="M" xlink:href="#q" gradientUnits="userSpaceOnUse" gradientTransform="matrix(2.61538 0 0 1.59993 56.688 -3.513)"/><linearGradient id="q"><stop offset="0"/><stop offset="1" stop-color="#161616"/></linearGradient><linearGradient x1="24" y1="5" x2="24" y2="43" id="K" xlink:href="#r" gradientUnits="userSpaceOnUse" gradientTransform="translate(0 1)"/><linearGradient id="r"><stop offset="0" stop-color="#fff"/><stop offset=".063" stop-color="#fff" stop-opacity=".235"/><stop offset=".951" stop-color="#fff" stop-opacity=".157"/><stop offset="1" stop-color="#fff" stop-opacity=".392"/></linearGradient><radialGradient cx="7.496" cy="8.45" r="20" fx="7.496" fy="8.45" id="I" xlink:href="#s" gradientUnits="userSpaceOnUse" gradientTransform="matrix(0 2.337 -2.47226 0 44.89 -11.435)"/><linearGradient id="s"><stop offset="0" stop-color="#eef87e"/><stop offset=".262" stop-color="#cde34f"/><stop offset=".661" stop-color="#93b723"/><stop offset="1" stop-color="#5a7e0d"/></linearGradient><linearGradient x1="24" y1="44" x2="24" y2="3.899" id="J" xlink:href="#t" gradientUnits="userSpaceOnUse" gradientTransform="translate(0 1)"/><linearGradient id="t"><stop offset="0" stop-color="#3f7010"/><stop offset="1" stop-color="#84a718"/></linearGradient><radialGradient cx="62.625" cy="4.625" r="10.625" fx="62.625" fy="4.625" id="H" xlink:href="#u" gradientUnits="userSpaceOnUse" gradientTransform="matrix(1.41176 0 0 .5647 -64.412 32.388)"/><linearGradient id="u"><stop offset="0"/><stop offset="1" stop-opacity="0"/></linearGradient><linearGradient x1="24" y1="5" x2="24" y2="43" id="G" xlink:href="#v" gradientUnits="userSpaceOnUse" gradientTransform="translate(0 1)"/><linearGradient id="v"><stop offset="0" stop-color="#fff"/><stop offset=".063" stop-color="#fff" stop-opacity=".235"/><stop offset=".951" stop-color="#fff" stop-opacity=".157"/><stop offset="1" stop-color="#fff" stop-opacity=".392"/></linearGradient><radialGradient cx="7.496" cy="8.45" r="20" fx="7.496" fy="8.45" id="E" xlink:href="#w" gradientUnits="userSpaceOnUse" gradientTransform="matrix(0 2.337 -2.47226 0 44.89 -11.435)"/><linearGradient id="w"><stop offset="0" stop-color="#eef87e"/><stop offset=".262" stop-color="#cde34f"/><stop offset=".661" stop-color="#93b723"/><stop offset="1" stop-color="#5a7e0d"/></linearGradient><linearGradient x1="24" y1="44" x2="24" y2="3.899" id="F" xlink:href="#x" gradientUnits="userSpaceOnUse" gradientTransform="translate(0 1)"/><linearGradient id="x"><stop offset="0" stop-color="#3f7010"/><stop offset="1" stop-color="#84a718"/></linearGradient><radialGradient cx="4.993" cy="43.5" r="2.5" fx="4.993" fy="43.5" id="B" xlink:href="#y" gradientUnits="userSpaceOnUse" gradientTransform="matrix(2.00378 0 0 1.4 27.988 -17.4)"/><linearGradient id="y"><stop offset="0" stop-color="#181818"/><stop offset="1" stop-color="#181818" stop-opacity="0"/></linearGradient><radialGradient cx="4.993" cy="43.5" r="2.5" fx="4.993" fy="43.5" id="C" xlink:href="#z" gradientUnits="userSpaceOnUse" gradientTransform="matrix(2.00378 0 0 1.4 -20.012 -104.4)"/><linearGradient id="z"><stop offset="0" stop-color="#181818"/><stop offset="1" stop-color="#181818" stop-opacity="0"/></linearGradient><linearGradient id="A"><stop offset="0" stop-color="#181818" stop-opacity="0"/><stop offset=".5" stop-color="#181818"/><stop offset="1" stop-color="#181818" stop-opacity="0"/></linearGradient><linearGradient x1="25.058" y1="47.028" x2="25.058" y2="39.999" id="D" xlink:href="#A" gradientUnits="userSpaceOnUse"/></defs><g opacity=".4"><path fill="url(#B)" d="M38 40h5v7h-5z" transform="matrix(1.1579 0 0 .57143 -3.79 19.143)"/><path transform="matrix(-1.1579 0 0 -.57143 -3.79 19.143)" fill="url(#C)" d="M-10-47h5v7h-5z"/><path fill="url(#D)" d="M10 40h28v7H10z" transform="matrix(1.1579 0 0 .57143 -3.79 19.143)"/></g><rect width="39" height="39" rx="2" ry="2" x="4.5" y="5.5" color="#000" fill="url(#E)" stroke="url(#F)" stroke-linecap="round" stroke-linejoin="round" overflow="visible"/><path d="M43.12 44.352s-9.198-7.12-9.396-9.296M4.45 29.22s2.967 3.165 7.32 5.044M4.45 18.837s1.385.494 5.143-.693m-5.242-4.55s6.63 6.133 11.87 8.704m17.9-15.923s3.07 5.242 9.3 6.824" opacity=".8" color="#000" fill="none" stroke="url(#G)" stroke-linecap="round" stroke-linejoin="round" overflow="visible"/><path d="M39 35c0 3.314-6.716 6-15 6-8.284 0-16-2.686-16-6s7.716-6 16-6c8.284 0 15 2.686 15 6z" opacity=".5" fill="url(#H)" fill-rule="evenodd" overflow="visible"/><path d="M43.12 43.352s-9.198-7.12-9.396-9.297M4.45 28.22s2.967 3.165 7.32 5.044M4.45 17.836s1.385.495 5.143-.692m-5.242-4.55s6.63 6.132 11.87 8.704m17.9-15.923s3.07 5.242 9.3 6.824" opacity=".3" color="#000" fill="url(#I)" stroke="url(#J)" stroke-linecap="round" stroke-linejoin="round" overflow="visible"/><rect width="37" height="37" rx="1" ry="1" x="5.5" y="6.5" opacity=".8" fill="none" stroke="url(#K)" stroke-linecap="round" stroke-linejoin="round"/><rect width="17" height="19" rx="8.5" ry="8.5" x="15.5" y="19.5" color="#000" fill="url(#L)" stroke="url(#M)" stroke-linecap="round" stroke-linejoin="round" overflow="visible"/><rect width="17" height="19" rx="8.5" ry="8.5" x="15.5" y="11.5" opacity=".5" color="#000" fill="none" stroke="url(#N)" stroke-linecap="round" stroke-linejoin="round" overflow="visible"/><rect width="15" height="11" rx="7.5" ry="7.5" x="16.5" y="20.5" opacity=".3" color="#000" fill="none" stroke="url(#O)" overflow="visible"/><rect width="15" height="17" rx="7.5" ry="7.5" x="16.5" y="20.5" opacity=".5" color="#000" fill="none" stroke="url(#P)" overflow="visible"/><path d="M13.78 16.156C10.164 18.42 6.814 22.04 6.814 27.72c0 12.132 7.937 13.718 7.937 13.718s3.53-13.354 9.13-21.282l-.124-.78c-4.4-.05-8.162-1.353-9.97-3.22z" fill="url(#Q)" stroke="url(#R)"/><path d="M13.78 17.344c-2.86 1.852-5.24 4.71-5.805 8.15-.403 2.63-.158 5.356.542 7.918.822 2.893 2.75 5.65 5.608 6.807 1.78-6.29 4.11-12.47 7.42-18.12.224-.59 1.188-1.526 1-1.866-3.08-.21-6.307-.92-8.764-2.897z" opacity=".5" fill="none" stroke="url(#S)"/><path d="M14 28.5a1.5 1.5 0 1 1 3 0 1.5 1.5 0 1 1-3 0zM12 23a1 1 0 1 1 2 0 1 1 0 1 1-2 0zm-1 11a1 1 0 1 1 2 0 1 1 0 1 1-2 0z" opacity=".3" fill="#fff"/><path d="M15.51 37.622l-1.1 3.31s-5.94-1.46-6.985-10.876c2.885 7.386 8.086 7.566 8.086 7.566z" opacity=".3" fill="#ff932e"/><path d="M14 27.5a1.5 1.5 0 1 1 3 0 1.5 1.5 0 1 1-3 0zM12 22a1 1 0 1 1 2 0 1 1 0 1 1-2 0zm-1 11a1 1 0 1 1 2 0 1 1 0 1 1-2 0z" fill="#1a1a1a"/><path d="M34.206 16.156c3.618 2.265 6.968 5.885 6.968 11.563 0 12.13-7.937 13.712-7.937 13.712S29.713 28.08 24.112 20.15l.125-.78c4.4-.05 8.163-1.352 9.97-3.22z" fill="url(#T)" stroke="url(#U)"/><path d="M34.206 17.344c2.86 1.852 5.242 4.71 5.806 8.15.403 2.63.158 5.356-.542 7.918-.822 2.893-2.75 5.65-5.608 6.807-1.78-6.29-4.11-12.47-7.42-18.12-.224-.59-1.188-1.526-1-1.866 3.08-.21 6.307-.92 8.764-2.897z" opacity=".5" fill="none" stroke="url(#V)"/><path d="M33.987 28.5a1.5 1.5 0 1 1-3 0 1.5 1.5 0 1 1 3 0zm2-5.5a1 1 0 1 1-2 0 1 1 0 1 1 2 0zm1 11a1 1 0 1 1-2 0 1 1 0 1 1 2 0z" opacity=".3" fill="#fff"/><path d="M32.476 37.622l1.1 3.31s5.94-1.46 6.986-10.876c-2.885 7.386-8.086 7.566-8.086 7.566z" opacity=".3" fill="#ff932e"/><path d="M33.987 27.5a1.5 1.5 0 1 1-3 0 1.5 1.5 0 1 1 3 0zm2-5.5a1 1 0 1 1-2 0 1 1 0 1 1 2 0zm1 11a1 1 0 1 1-2 0 1 1 0 1 1 2 0z" fill="#1a1a1a"/><path d="M24 9.375c-4.516 0-8.4 2.954-10.094 7.184 1.894 1.67 5.7 2.81 10.094 2.81 4.395 0 8.2-1.14 10.094-2.818C32.4 12.33 28.516 9.372 24 9.372z" color="#000" fill="url(#W)" stroke="url(#X)" stroke-linecap="round" stroke-linejoin="round" overflow="visible"/><path d="M24 10.434c-2.936-.025-5.688 1.45-7.4 3.517a11.01 11.01 0 0 0-1.506 2.32c2.184 1.41 4.924 1.95 7.574 2.13 3.214.17 6.56-.23 9.405-1.632.726-.233.987-.66.452-1.212-1.386-2.444-3.92-4.502-7.017-4.994A9.41 9.41 0 0 0 24 10.44z" opacity=".5" color="#000" fill="none" stroke="url(#Y)" overflow="visible"/><path d="M24 8.5c-2.46 0-4.577 1.182-5.5 2.874 1.032.67 3.105 1.126 5.5 1.126s4.468-.455 5.5-1.126C28.577 9.682 26.46 8.5 24 8.5z" color="#000" fill="url(#Z)" stroke="url(#aa)" stroke-linecap="round" stroke-linejoin="round" overflow="visible"/><path d="M24.025 9.5c-1.492-.006-2.89.363-3.76.88a3.62 3.62 0 0 0-.765.58c1.11.352 2.502.486 3.848.53 1.633.043 3.333-.057 4.778-.408.37-.058.502-.165.23-.303-.705-.618-1.992-1.13-3.565-1.25a9.63 9.63 0 0 0-.76-.03z" opacity=".3" color="#000" fill="none" stroke="url(#ab)" overflow="visible"/><path d="M21 8a1 1 0 1 1-2 0 1 1 0 1 1 2 0zm8 0a1 1 0 1 1-2 0 1 1 0 1 1 2 0z" color="#000" fill="#0b0b0b" overflow="visible"/></svg>