<?xml version="1.0" encoding="UTF-8" standalone="no"?>
<!-- Created with Inkscape (http://www.inkscape.org/) -->
<svg
   xmlns:dc="http://purl.org/dc/elements/1.1/"
   xmlns:cc="http://creativecommons.org/ns#"
   xmlns:rdf="http://www.w3.org/1999/02/22-rdf-syntax-ns#"
   xmlns:svg="http://www.w3.org/2000/svg"
   xmlns="http://www.w3.org/2000/svg"
   xmlns:xlink="http://www.w3.org/1999/xlink"
   xmlns:sodipodi="http://sodipodi.sourceforge.net/DTD/sodipodi-0.dtd"
   xmlns:inkscape="http://www.inkscape.org/namespaces/inkscape"
   width="48px"
   height="48px"
   id="svg2429"
   sodipodi:version="0.32"
   inkscape:version="0.46"
   sodipodi:docname="gnome-desktop-config.svg"
   inkscape:output_extension="org.inkscape.output.svg.inkscape">
  <defs
     id="defs2431">
    <radialGradient
       inkscape:collect="always"
       xlink:href="#linearGradient5060"
       id="radialGradient17422"
       gradientUnits="userSpaceOnUse"
       gradientTransform="matrix(-2.774389,0,0,1.969706,112.7623,-872.8854)"
       cx="605.71429"
       cy="486.64789"
       fx="605.71429"
       fy="486.64789"
       r="117.14286" />
    <linearGradient
       id="linearGradient5060"
       inkscape:collect="always">
      <stop
         style="stop-color:black;stop-opacity:1;"
         id="stop5062"
         offset="0" />
      <stop
         style="stop-color:black;stop-opacity:0;"
         id="stop5064"
         offset="1" />
    </linearGradient>
    <radialGradient
       inkscape:collect="always"
       xlink:href="#linearGradient5060"
       id="radialGradient17420"
       gradientUnits="userSpaceOnUse"
       gradientTransform="matrix(2.774389,0,0,1.969706,-1891.633,-872.8854)"
       cx="605.71429"
       cy="486.64789"
       fx="605.71429"
       fy="486.64789"
       r="117.14286" />
    <linearGradient
       id="linearGradient5048">
      <stop
         style="stop-color:black;stop-opacity:0;"
         id="stop5050"
         offset="0" />
      <stop
         style="stop-color:black;stop-opacity:1;"
         id="stop5056"
         offset="0.5" />
      <stop
         style="stop-color:black;stop-opacity:0;"
         id="stop5052"
         offset="1" />
    </linearGradient>
    <linearGradient
       inkscape:collect="always"
       xlink:href="#linearGradient5048"
       id="linearGradient17418"
       gradientUnits="userSpaceOnUse"
       gradientTransform="matrix(2.774389,0,0,1.969706,-1892.179,-872.8854)"
       x1="302.85715"
       y1="366.64789"
       x2="302.85715"
       y2="609.50507" />
    <linearGradient
       inkscape:collect="always"
       id="linearGradient48779">
      <stop
         style="stop-color:#949692;stop-opacity:1"
         offset="0"
         id="stop48781" />
      <stop
         style="stop-color:#696b66;stop-opacity:1"
         offset="1"
         id="stop48783" />
    </linearGradient>
    <linearGradient
       inkscape:collect="always"
       xlink:href="#linearGradient48779"
       id="linearGradient48785"
       x1="12.639143"
       y1="5.8977838"
       x2="12.639143"
       y2="42.458321"
       gradientUnits="userSpaceOnUse"
       gradientTransform="matrix(1.0065024,0,0,1.0158295,-0.1560612,1.6200962)" />
    <linearGradient
       inkscape:collect="always"
       id="linearGradient3299">
      <stop
         style="stop-color:#cdcdcd;stop-opacity:1"
         offset="0"
         id="stop3301" />
      <stop
         style="stop-color:#f1f1f1;stop-opacity:1"
         offset="1"
         id="stop3303" />
    </linearGradient>
    <linearGradient
       inkscape:collect="always"
       xlink:href="#linearGradient3299"
       id="linearGradient19408"
       gradientUnits="userSpaceOnUse"
       x1="41.450779"
       y1="41.638439"
       x2="41.450779"
       y2="6.5499659"
       gradientTransform="matrix(1.0065024,0,0,1.0158295,-0.1560612,1.6200962)" />
    <linearGradient
       inkscape:collect="always"
       xlink:href="#linearGradient2237"
       id="linearGradient19412"
       gradientUnits="userSpaceOnUse"
       gradientTransform="matrix(1.0252077,0,0,1.048016,-0.9278975,2.3621846)"
       x1="29.492077"
       y1="5.1445737"
       x2="29.492077"
       y2="42.505676" />
    <linearGradient
       id="linearGradient24230">
      <stop
         style="stop-color:#707070;stop-opacity:1;"
         offset="0"
         id="stop24232" />
      <stop
         style="stop-color:#333333;stop-opacity:1;"
         offset="1"
         id="stop24234" />
    </linearGradient>
    <linearGradient
       inkscape:collect="always"
       xlink:href="#linearGradient24230"
       id="linearGradient10960"
       gradientUnits="userSpaceOnUse"
       gradientTransform="matrix(1.5917169,0,0,0.8667536,-9.9171672,6.4196739)"
       x1="12.51301"
       y1="30.585787"
       x2="12.51301"
       y2="16.885592" />
    <linearGradient
       inkscape:collect="always"
       id="linearGradient3373">
      <stop
         style="stop-color:#8e8e8e;stop-opacity:1;"
         offset="0"
         id="stop3375" />
      <stop
         style="stop-color:#cfcfcf;stop-opacity:1"
         offset="1"
         id="stop3377" />
    </linearGradient>
    <linearGradient
       inkscape:collect="always"
       xlink:href="#linearGradient3373"
       id="linearGradient10963"
       gradientUnits="userSpaceOnUse"
       gradientTransform="matrix(0.5491246,0,0,0.5177872,-29.604556,14.297568)"
       x1="101.24215"
       y1="41.692078"
       x2="101.88018"
       y2="-6.7863059" />
    <linearGradient
       inkscape:collect="always"
       id="linearGradient48787">
      <stop
         style="stop-color:#696b66;stop-opacity:1"
         offset="0"
         id="stop48789" />
      <stop
         style="stop-color:#949692;stop-opacity:1"
         offset="1"
         id="stop48791" />
    </linearGradient>
    <linearGradient
       inkscape:collect="always"
       xlink:href="#linearGradient48787"
       id="linearGradient48793"
       x1="18.189613"
       y1="41.648155"
       x2="18.189613"
       y2="5.9008427"
       gradientUnits="userSpaceOnUse"
       gradientTransform="matrix(1.0113552,0,0,0.9899965,0.1189957,2.3341653)" />
  </defs>
  <sodipodi:namedview
     id="base"
     pagecolor="#ffffff"
     bordercolor="#666666"
     borderopacity="1.0"
     inkscape:pageopacity="0.0"
     inkscape:pageshadow="2"
     inkscape:zoom="7"
     inkscape:cx="24"
     inkscape:cy="24"
     inkscape:current-layer="layer1"
     showgrid="true"
     inkscape:grid-bbox="true"
     inkscape:document-units="px"
     inkscape:window-width="640"
     inkscape:window-height="720"
     inkscape:window-x="0"
     inkscape:window-y="93" />
  <metadata
     id="metadata2434">
    <rdf:RDF>
      <cc:Work
         rdf:about="">
        <dc:format>image/svg+xml</dc:format>
        <dc:type
           rdf:resource="http://purl.org/dc/dcmitype/StillImage" />
      </cc:Work>
    </rdf:RDF>
  </metadata>
  <g
     id="layer1"
     inkscape:label="Layer 1"
     inkscape:groupmode="layer">
    <g
       id="g5022"
       transform="matrix(2.454499e-2,0,0,2.086758e-2,45.831187,40.162522)"
       style="stroke-width:44.18577957;stroke-miterlimit:6.4000001;stroke-dasharray:none">
      <rect
         style="opacity:0.40206185;fill:url(#linearGradient17418);fill-opacity:1;fill-rule:nonzero;stroke:none;stroke-width:44.18577957;stroke-linecap:round;stroke-linejoin:miter;marker:none;marker-start:none;marker-mid:none;marker-end:none;stroke-miterlimit:6.4000001;stroke-dasharray:none;stroke-dashoffset:0;stroke-opacity:1;visibility:visible;display:inline;overflow:visible"
         height="478.35718"
         width="1339.6335"
         y="-150.69685"
         x="-1559.2523"
         id="rect4173" />
      <path
         sodipodi:nodetypes="cccc"
         style="opacity:0.40206185;fill:url(#radialGradient17420);fill-opacity:1;fill-rule:nonzero;stroke:none;stroke-width:44.18577957;stroke-linecap:round;stroke-linejoin:miter;marker:none;marker-start:none;marker-mid:none;marker-end:none;stroke-miterlimit:6.4000001;stroke-dasharray:none;stroke-dashoffset:0;stroke-opacity:1;visibility:visible;display:inline;overflow:visible"
         id="path5058"
         d="M -219.61876,-150.68038 C -219.61876,-150.68038 -219.61876,327.65041 -219.61876,327.65041 C -76.744594,328.55086 125.78146,220.48075 125.78138,88.454235 C 125.78138,-43.572302 -33.655436,-150.68036 -219.61876,-150.68038 z" />
      <path
         sodipodi:nodetypes="cccc"
         style="opacity:0.40206185;fill:url(#radialGradient17422);fill-opacity:1;fill-rule:nonzero;stroke:none;stroke-width:44.18577957;stroke-linecap:round;stroke-linejoin:miter;marker:none;marker-start:none;marker-mid:none;marker-end:none;stroke-miterlimit:6.4000001;stroke-dasharray:none;stroke-dashoffset:0;stroke-opacity:1;visibility:visible;display:inline;overflow:visible"
         d="M -1559.2523,-150.68038 C -1559.2523,-150.68038 -1559.2523,327.65041 -1559.2523,327.65041 C -1702.1265,328.55086 -1904.6525,220.48075 -1904.6525,88.454235 C -1904.6525,-43.572302 -1745.2157,-150.68036 -1559.2523,-150.68038 z"
         id="path5018" />
    </g>
    <rect
       ry="0.87222719"
       rx="0.86421919"
       y="7.5055819"
       x="1.5055774"
       height="36.988846"
       width="44.988846"
       id="rect11518"
       style="fill:url(#linearGradient19408);fill-opacity:1;fill-rule:evenodd;stroke:url(#linearGradient48785);stroke-width:1.01115537;stroke-linecap:butt;stroke-linejoin:bevel;marker:none;marker-start:none;marker-mid:none;marker-end:none;stroke-miterlimit:6.4000001;stroke-dasharray:none;stroke-dashoffset:0;stroke-opacity:1;visibility:visible;display:inline;overflow:visible"
       inkscape:r_cx="true"
       inkscape:r_cy="true" />
    <rect
       style="fill:none;fill-opacity:1;fill-rule:evenodd;stroke:url(#linearGradient19412);stroke-width:1.0368048;stroke-linecap:butt;stroke-linejoin:miter;marker:none;marker-start:none;marker-mid:none;marker-end:none;stroke-miterlimit:6.4000001;stroke-dasharray:none;stroke-dashoffset:0;stroke-opacity:1;visibility:visible;display:inline;overflow:visible"
       id="rect11528"
       width="42.963196"
       height="34.963196"
       x="2.5184023"
       y="8.5184021"
       rx="0"
       ry="0"
       inkscape:r_cx="true"
       inkscape:r_cy="true" />
    <rect
       style="fill:url(#linearGradient10960);fill-opacity:1;fill-rule:nonzero;stroke:none;stroke-width:1;stroke-linecap:butt;stroke-linejoin:miter;marker:none;marker-start:none;marker-mid:none;marker-end:none;stroke-miterlimit:6.4000001;stroke-dasharray:none;stroke-dashoffset:0;stroke-opacity:1;visibility:visible;display:inline;overflow:visible"
       id="rect23355"
       width="7.9999995"
       height="14.712261"
       x="5.9999995"
       y="20.287739"
       inkscape:r_cx="true"
       inkscape:r_cy="true" />
    <rect
       style="fill:#eeeeec;fill-opacity:1;fill-rule:nonzero;stroke:#9b9b9b;stroke-width:1.04699731;stroke-linecap:round;stroke-linejoin:round;marker:none;marker-start:none;marker-mid:none;marker-end:none;stroke-miterlimit:6.4000001;stroke-dasharray:none;stroke-dashoffset:0;stroke-opacity:1;visibility:visible;display:inline;overflow:visible"
       id="rect24246"
       width="6.9530029"
       height="5.9530029"
       x="6.523499"
       y="20.523499"
       inkscape:r_cx="true"
       inkscape:r_cy="true" />
    <rect
       style="fill:none;fill-opacity:1;fill-rule:nonzero;stroke:#ffffff;stroke-width:1.05394411;stroke-linecap:butt;stroke-linejoin:miter;marker:none;marker-start:none;marker-mid:none;marker-end:none;stroke-miterlimit:6.4000001;stroke-dasharray:none;stroke-dashoffset:0;stroke-opacity:1;visibility:visible;display:inline;overflow:visible"
       id="rect24252"
       width="4.8794618"
       height="3.3239787"
       x="7.5602689"
       y="21.564636"
       inkscape:r_cx="true"
       inkscape:r_cy="true" />
    <path
       style="opacity:0.4;fill:#000000;fill-opacity:1;fill-rule:nonzero;stroke:none;stroke-width:1;stroke-linecap:butt;stroke-linejoin:miter;marker:none;marker-start:none;marker-mid:none;marker-end:none;stroke-miterlimit:6.4000001;stroke-dasharray:none;stroke-dashoffset:0;stroke-opacity:1;visibility:visible;display:inline;overflow:visible"
       d="M 27.830438,15.444686 C 27.635208,15.455986 27.448626,15.473002 27.246992,15.509408 L 26.543426,16.108086 L 28.722764,18.049745 L 28.842886,19.748695 L 27.212672,21.140215 L 25.273577,20.946049 L 23.283,19.182377 C 23.283,19.182377 22.596594,19.829595 22.596594,19.829595 C 22.27219,22.750532 25.513818,25.36332 28.842886,23.615829 L 31.365425,26.059081 L 31.245304,26.172344 L 31.159502,26.091442 C 30.956041,25.878279 30.610056,25.778715 30.232857,25.784014 C 29.604192,25.792842 28.869233,26.079589 28.482522,26.576857 C 26.638145,28.956653 23.636464,30.862384 22.956957,31.09121 C 21.656675,31.529086 21.804984,33.322 22.665235,34.181683 L 23.660523,35.217232 C 24.383493,35.975892 26.390765,36.314568 27.281313,34.845083 C 27.669599,34.204367 28.431218,32.404918 31.828748,29.521704 C 32.399371,29.038014 32.993254,27.934193 32.480833,27.337338 L 32.395033,27.256437 C 32.424949,27.2283 32.46565,27.189868 32.497994,27.159353 L 39.25909,33.680086 C 39.681086,34.134834 41.025497,34.486296 41.918911,33.680086 C 42.781652,32.901553 42.574138,31.806114 41.73015,31.010308 L 35.295096,24.489574 C 36.962678,22.892028 38.658485,21.269659 38.658485,21.269659 L 40.340178,21.156396 L 43,17.677593 L 40.786342,15.833018 L 37.354314,18.616061 L 37.354314,20.201747 L 34.145367,23.340761 L 31.725788,20.881327 C 32.884099,17.847488 30.758874,15.275194 27.830438,15.444686 z"
       id="path2140" />
    <path
       style="opacity:0.6;fill:#ffffff;fill-opacity:1;fill-rule:nonzero;stroke:none;stroke-width:1;stroke-linecap:butt;stroke-linejoin:miter;marker:none;marker-start:none;marker-mid:none;marker-end:none;stroke-miterlimit:6.4000001;stroke-dasharray:none;stroke-dashoffset:0;stroke-opacity:1;visibility:visible;display:inline;overflow:visible"
       d="M 27.830438,16.892645 C 27.635208,16.903944 27.448626,16.920962 27.246992,16.957369 L 26.543426,17.55606 L 28.722764,19.497762 L 28.842886,21.196754 L 27.212672,22.588306 L 25.273577,22.394135 L 23.283,20.630423 C 23.283,20.630423 22.596594,21.277656 22.596594,21.277656 C 22.27219,24.198658 25.513818,26.811506 28.842886,25.063976 L 31.365425,27.507284 L 31.245304,27.620549 L 31.159502,27.539645 C 30.956041,27.326477 30.610056,27.226911 30.232857,27.23221 C 29.604192,27.241039 28.869233,27.527792 28.482522,28.025071 C 26.638145,30.404921 23.636464,32.310696 22.956957,32.539527 C 21.656675,32.977413 21.804984,34.770368 22.665235,35.63007 L 23.660523,36.665643 C 24.383493,37.42432 26.390765,37.763004 27.281313,36.293485 C 27.669599,35.652754 28.431218,33.853265 31.828748,30.969985 C 32.399371,30.486283 32.993254,29.382438 32.480833,28.78557 L 32.395033,28.704666 C 32.424949,28.676529 32.46565,28.638096 32.497994,28.607581 L 39.25909,35.128462 C 39.681086,35.58322 41.025497,35.93469 41.918911,35.128462 C 42.781652,34.349911 42.574138,33.254447 41.73015,32.458623 L 35.295096,25.937741 C 36.962678,24.340158 38.658485,22.717753 38.658485,22.717753 L 40.340178,22.604487 L 43,19.125603 L 40.786342,17.280986 L 37.354314,20.064093 L 37.354314,21.649816 L 34.145367,24.788902 L 31.725788,22.329412 C 32.884099,19.295501 30.758874,16.723148 27.830438,16.892645 z"
       id="path3391" />
    <path
       style="fill:url(#linearGradient10963);fill-opacity:1;fill-rule:nonzero;stroke:none;stroke-width:1;stroke-linecap:butt;stroke-linejoin:miter;marker:none;marker-start:none;marker-mid:none;marker-end:none;stroke-miterlimit:6.4000001;stroke-dasharray:none;stroke-dashoffset:0;stroke-opacity:1;visibility:visible;display:inline;overflow:visible"
       d="M 27.830438,16.077462 C 27.635208,16.088761 27.448626,16.105779 27.246992,16.142185 L 26.543426,16.740876 L 28.722764,18.682579 L 28.842886,20.381568 L 27.212672,21.773121 L 25.273577,21.57895 L 23.283,19.815239 C 23.283,19.815239 22.596594,20.462472 22.596594,20.462472 C 22.27219,23.383474 25.513818,25.996322 28.842886,24.248791 L 31.365425,26.692099 L 31.245304,26.805365 L 31.159502,26.72446 C 30.956041,26.511293 30.610056,26.411727 30.232857,26.417024 C 29.604192,26.425854 28.869233,26.712607 28.482522,27.209886 C 26.638145,29.589736 23.636464,31.49551 22.956957,31.724342 C 21.656675,32.162228 21.804984,33.955183 22.665235,34.814884 L 23.660523,35.850459 C 24.383493,36.609136 26.390765,36.947819 27.281313,35.478299 C 27.669599,34.83757 28.431218,33.03808 31.828748,30.1548 C 32.399371,29.671098 32.993254,28.567253 32.480833,27.970385 L 32.395033,27.889481 C 32.424949,27.861344 32.46565,27.822911 32.497994,27.792396 L 39.25909,34.313277 C 39.681086,34.768034 41.025497,35.119504 41.918911,34.313277 C 42.781652,33.534726 42.574138,32.439262 41.73015,31.643439 L 35.295096,25.122557 C 36.962678,23.524974 38.658485,21.902568 38.658485,21.902568 L 40.340178,21.789302 L 43,18.310419 L 40.786342,16.465802 L 37.354314,19.248908 L 37.354314,20.834631 L 34.145367,23.973717 L 31.725788,21.514228 C 32.884099,18.480318 30.758874,15.907965 27.830438,16.077462 z"
       id="path3381" />
    <path
       style="fill:#ffffff;fill-rule:evenodd;stroke:url(#linearGradient48793);stroke-width:1.00075316;stroke-linecap:butt;stroke-linejoin:round;stroke-miterlimit:6.4000001;stroke-dasharray:none;stroke-opacity:1"
       d="M 18.529938,7.5003762 L 18.500377,44.499623"
       id="path3398" />
  </g>
</svg>
