<svg xmlns="http://www.w3.org/2000/svg" xmlns:xlink="http://www.w3.org/1999/xlink" viewBox="0 0 48 48"><defs><linearGradient id="d"><stop offset="0" stop-color="#f8b17e"/><stop offset=".232" stop-color="#e35d4f"/><stop offset=".591" stop-color="#c6262e"/><stop offset="1" stop-color="#690b54"/></linearGradient><linearGradient id="e"><stop offset="0" stop-color="#fff"/><stop offset="1" stop-color="#c1c1c1"/></linearGradient><linearGradient id="a"><stop offset="0" stop-color="#fff"/><stop offset=".508" stop-color="#fff" stop-opacity=".235"/><stop offset=".835" stop-color="#fff" stop-opacity=".157"/><stop offset="1" stop-color="#fff" stop-opacity=".392"/></linearGradient><linearGradient id="b"><stop offset="0" stop-color="#90dbec"/><stop offset=".262" stop-color="#42baea"/><stop offset=".705" stop-color="#3689e6"/><stop offset="1" stop-color="#2b63a0"/></linearGradient><linearGradient id="c"><stop offset="0" stop-color="#3d3d3d"/><stop offset=".5" stop-color="#686868" stop-opacity=".498"/><stop offset="1" stop-color="#686868" stop-opacity="0"/></linearGradient><linearGradient x1="71.204" y1="6.238" x2="71.204" y2="44.341" id="i" xlink:href="#a" gradientUnits="userSpaceOnUse" gradientTransform="translate(-51.61 -2.728) scale(1.05405)"/><radialGradient cx="3.972" cy="8.45" r="20" fx="3.972" fy="8.45" id="h" xlink:href="#b" gradientUnits="userSpaceOnUse" gradientTransform="matrix(0 2.49883 -2.64347 0 46.337 -12.18)"/><radialGradient cx="99.157" cy="186.171" r="62.769" fx="99.157" fy="186.171" id="g" xlink:href="#c" gradientUnits="userSpaceOnUse" gradientTransform="matrix(.27083 0 0 .08762 -2.855 25.187)"/><linearGradient x1="27.925" y1="15.149" x2="33.448" y2="22.986" id="j" xlink:href="#d" gradientUnits="userSpaceOnUse"/><linearGradient x1="24" y1="22" x2="24" y2="26" id="l" xlink:href="#e" gradientUnits="userSpaceOnUse"/><linearGradient x1="21.014" y1="25.434" x2="22.806" y2="27.344" id="k" xlink:href="#f" gradientUnits="userSpaceOnUse"/><linearGradient id="f"><stop offset="0" stop-color="#fff"/><stop offset="1" stop-color="#c1c1c1"/></linearGradient></defs><path d="M41 41.5a17 5.5 0 1 1-34 0 17 5.5 0 1 1 34 0z" fill="url(#g)"/><path d="M24 3.5C12.69 3.5 3.5 12.69 3.5 24S12.69 44.5 24 44.5 44.5 35.31 44.5 24 35.31 3.5 24 3.5z" color="#000" fill="url(#h)" overflow="visible"/><path d="M43.5 24c0 10.77-8.73 19.5-19.5 19.5S4.5 34.77 4.5 24 13.23 4.5 24 4.5 43.5 13.23 43.5 24z" opacity=".5" color="#000" fill="none" stroke="url(#i)" stroke-linecap="round" stroke-linejoin="round" overflow="visible"/><path d="M24 3.5C12.69 3.5 3.5 12.69 3.5 24S12.69 44.5 24 44.5 44.5 35.31 44.5 24 35.31 3.5 24 3.5z" opacity=".5" color="#000" stroke="#00537d" stroke-linecap="round" stroke-linejoin="round" overflow="visible" fill="none"/><path d="M36.594 11.47a.808.808 0 0 0-.375.186L22.09 22.97a.808.808 0 0 0-.125.124L10.655 37.22a.808.808 0 0 0 1.125 1.124L25.907 27.03a.808.808 0 0 0 .125-.124L37.345 12.78a.808.808 0 0 0-.75-1.31z" opacity=".05" color="#000" overflow="visible"/><path d="M36.72 12.28L22.593 23.597 11.28 37.72l14.126-11.313L36.72 12.282z" opacity=".15" color="#000" overflow="visible"/><path d="M22.586 22.586l2.828 2.828 11.314-14.142z" fill="url(#j)"/><path d="M22.586 22.586l2.828 2.828-14.142 11.314z" color="#000" fill="url(#k)" overflow="visible"/><path d="M26 24.5a2 2 0 1 1-4 0 2 2 0 1 1 4 0z" opacity=".2" color="#000" overflow="visible"/><path d="M23.32 24.732A1 1 0 0 1 23.996 23L24 24z" opacity=".05" color="#000" fill="#fff" overflow="visible"/><path d="M25.5 24.5a1.5 1.5 0 1 1-3 0 1.5 1.5 0 1 1 3 0z" opacity=".2" color="#000" overflow="visible"/><path d="M26 24a2 2 0 1 1-4 0 2 2 0 1 1 4 0z" transform="matrix(.75 0 0 .75 6 6)" color="#000" fill="url(#l)" overflow="visible"/></svg>