<?xml version="1.0" encoding="UTF-8" standalone="no"?>
<!-- Created with Inkscape (http://www.inkscape.org/) -->

<svg
   xmlns:svg="http://www.w3.org/2000/svg"
   xmlns="http://www.w3.org/2000/svg"
   xmlns:xlink="http://www.w3.org/1999/xlink"
   version="1.0"
   width="48"
   height="48"
   id="svg3359">
  <defs
     id="defs3361">
    <linearGradient
       id="linearGradient8838">
      <stop
         id="stop8840"
         style="stop-color:black;stop-opacity:1"
         offset="0" />
      <stop
         id="stop8842"
         style="stop-color:black;stop-opacity:0"
         offset="1" />
    </linearGradient>
    <radialGradient
       cx="62.625"
       cy="4.625"
       r="10.625"
       fx="62.625"
       fy="4.625"
       id="radialGradient2489"
       xlink:href="#linearGradient8838"
       gradientUnits="userSpaceOnUse"
       gradientTransform="matrix(2.1647059,0,0,0.7529402,-111.56471,36.517647)" />
    <linearGradient
       id="linearGradient3271">
      <stop
         id="stop3273"
         style="stop-color:#b3b3b3;stop-opacity:1"
         offset="0" />
      <stop
         id="stop3275"
         style="stop-color:gray;stop-opacity:1"
         offset="1" />
    </linearGradient>
    <linearGradient
       x1="7.5542169"
       y1="2.9999976"
       x2="7.5542169"
       y2="45.184376"
       id="linearGradient2486"
       xlink:href="#linearGradient3271"
       gradientUnits="userSpaceOnUse" />
    <linearGradient
       id="linearGradient8647-277-296-475-339-157-820-173">
      <stop
         id="stop6735"
         style="stop-color:white;stop-opacity:1"
         offset="0" />
      <stop
         id="stop3623"
         style="stop-color:#d7d8da;stop-opacity:1"
         offset="0.90215749" />
      <stop
         id="stop6737"
         style="stop-color:#929396;stop-opacity:1"
         offset="1" />
    </linearGradient>
    <radialGradient
       cx="24.011986"
       cy="24.003313"
       r="21"
       fx="24.011986"
       fy="24.003313"
       id="radialGradient2484"
       xlink:href="#linearGradient8647-277-296-475-339-157-820-173"
       gradientUnits="userSpaceOnUse"
       gradientTransform="matrix(0.9532054,0,0,0.9532054,1.1236313,1.1232247)" />
    <linearGradient
       id="linearGradient2480">
      <stop
         id="stop2482"
         style="stop-color:#636467;stop-opacity:1"
         offset="0" />
      <stop
         id="stop2484"
         style="stop-color:#fcfcfc;stop-opacity:1"
         offset="1" />
    </linearGradient>
    <linearGradient
       x1="29.050154"
       y1="7.0280032"
       x2="29.050154"
       y2="40.320171"
       id="linearGradient2481"
       xlink:href="#linearGradient2480"
       gradientUnits="userSpaceOnUse"
       gradientTransform="matrix(1.0606061,0,0,1.060606,-1.4545467,-1.4545435)" />
    <linearGradient
       id="linearGradient3268">
      <stop
         id="stop3270"
         style="stop-color:#66e87a;stop-opacity:1"
         offset="0" />
      <stop
         id="stop3272"
         style="stop-color:#12604d;stop-opacity:1"
         offset="1" />
    </linearGradient>
    <radialGradient
       cx="27.411848"
       cy="12.080106"
       r="18.000002"
       fx="27.411848"
       fy="12.080106"
       id="radialGradient3315"
       xlink:href="#linearGradient3268"
       gradientUnits="userSpaceOnUse"
       gradientTransform="matrix(1.7637903e-8,1.7731075,-2.6591116,2.6451386e-8,59.480381,-17.99927)" />
    <linearGradient
       id="linearGradient3996">
      <stop
         id="stop3998"
         style="stop-color:white;stop-opacity:1"
         offset="0" />
      <stop
         id="stop4000"
         style="stop-color:white;stop-opacity:0"
         offset="1" />
    </linearGradient>
    <linearGradient
       x1="24.397675"
       y1="3.6018722"
       x2="24.397675"
       y2="26.091318"
       id="linearGradient2475"
       xlink:href="#linearGradient3996"
       gradientUnits="userSpaceOnUse"
       gradientTransform="translate(-0.3976755,0.3981273)" />
    <filter
       color-interpolation-filters="sRGB"
       id="filter3293">
      <feGaussianBlur
         id="feGaussianBlur3295"
         stdDeviation="0.9338511" />
    </filter>
    <linearGradient
       id="linearGradient3708">
      <stop
         id="stop3710"
         style="stop-color:black;stop-opacity:1"
         offset="0" />
      <stop
         id="stop3712"
         style="stop-color:black;stop-opacity:1"
         offset="1" />
    </linearGradient>
    <linearGradient
       x1="29.050154"
       y1="7.0280032"
       x2="29.050154"
       y2="26.493914"
       id="linearGradient2464"
       xlink:href="#linearGradient3708"
       gradientUnits="userSpaceOnUse"
       gradientTransform="matrix(1,0,0,-1,1e-6,47.999998)" />
    <linearGradient
       id="linearGradient3301">
      <stop
         id="stop3303"
         style="stop-color:white;stop-opacity:0"
         offset="0" />
      <stop
         id="stop3309"
         style="stop-color:white;stop-opacity:0"
         offset="0.69999999" />
      <stop
         id="stop3305"
         style="stop-color:black;stop-opacity:1"
         offset="1" />
    </linearGradient>
    <radialGradient
       cx="24"
       cy="24"
       r="17"
       fx="24"
       fy="24"
       id="radialGradient3307"
       xlink:href="#linearGradient3301"
       gradientUnits="userSpaceOnUse" />
    <linearGradient
       id="linearGradient3323">
      <stop
         id="stop3325"
         style="stop-color:#d4d2d4;stop-opacity:1"
         offset="0" />
      <stop
         id="stop3327"
         style="stop-color:#7b797a;stop-opacity:1"
         offset="1" />
    </linearGradient>
    <linearGradient
       x1="24.097839"
       y1="21.355795"
       x2="24.097839"
       y2="26.945391"
       id="linearGradient3351"
       xlink:href="#linearGradient3323"
       gradientUnits="userSpaceOnUse" />
  </defs>
  <g
     id="layer1">
    <path
       d="m 46.999997,40 c 0,4.418278 -10.297452,8 -23,8 -12.702548,0 -23.0000002,-3.581722 -23.0000002,-8 0,-4.418278 10.2974522,-8 23.0000002,-8 12.702548,0 23,3.581722 23,8 l 0,0 z"
       id="path8836"
       style="opacity:0.3;fill:url(#radialGradient2489);fill-opacity:1;fill-rule:evenodd;stroke:none;stroke-width:0.99999988;marker:none;visibility:visible;display:inline;overflow:visible" />
    <path
       d="M 44.5,23.999273 C 44.5,35.321475 35.32116,44.5 24.000257,44.5 12.678317,44.5 3.5,35.321371 3.5,23.999273 3.5,12.67759 12.678317,3.499998 24.000257,3.499998 35.32116,3.499998 44.5,12.67759 44.5,23.999273 l 0,0 z"
       id="path6495"
       style="fill:url(#radialGradient2484);fill-opacity:1;fill-rule:nonzero;stroke:url(#linearGradient2486);stroke-width:1;stroke-miterlimit:4;stroke-opacity:1;stroke-dasharray:none" />
    <path
       d="m 41.500001,23.999379 c 0,9.665293 -7.835596,17.500619 -17.49978,17.500619 -9.665072,0 -17.5002223,-7.835415 -17.5002223,-17.500619 0,-9.664851 7.8351503,-17.4993792 17.5002223,-17.4993792 9.664184,0 17.49978,7.8345282 17.49978,17.4993792 l 0,0 0,0 z"
       id="path3215"
       style="fill:url(#radialGradient3315);fill-opacity:1;fill-rule:nonzero;stroke:url(#linearGradient2481);stroke-width:0.99999994;stroke-miterlimit:4;stroke-dasharray:none" />
    <path
       d="m 43.5,23.999308 c 0,10.769898 -8.731091,19.50069 -19.499755,19.50069 -10.769651,0 -19.5002455,-8.730891 -19.5002455,-19.50069 0,-10.769404 8.7305945,-19.4993084 19.5002455,-19.4993084 C 34.768909,4.4999996 43.5,13.229904 43.5,23.999308 l 0,0 z"
       id="path3222"
       style="opacity:0.8;fill:none;stroke:url(#linearGradient2475);stroke-width:1;stroke-miterlimit:4;stroke-opacity:1;stroke-dasharray:none" />
    <path
       d="m 17.300501,13.443254 2.447897,7.427382 c -0.42882,0.429858 -0.772482,0.910331 -1.047916,1.434956 l -3.785276,0.38121 3.08754,2.222776 c -0.01956,0.576208 0.05044,1.153136 0.201482,1.723978 l -5.87632,5.196914 7.454445,-2.463522 c 0.41884,0.416232 0.883478,0.765311 1.392268,1.036478 l 0.38121,3.785276 2.222776,-3.08754 c 0.582116,0.02338 1.162361,-0.02367 1.739603,-0.174419 L 30.699499,36.776 28.251602,29.348618 c 0.42882,-0.429858 0.772482,-0.910331 1.047916,-1.434956 l 3.785276,-0.38121 -3.08754,-2.222776 c 0.01956,-0.576208 -0.05044,-1.153136 -0.201482,-1.723978 l 5.891945,-5.169851 -7.454445,2.463522 c -0.42392,-0.425432 -0.890723,-0.787907 -1.407893,-1.063541 l -0.38121,-3.785276 -2.222776,3.08754 c -0.582116,-0.02338 -1.162361,0.02367 -1.739603,0.174419 l -5.181289,-5.849257 0,0 z m 3.774299,7.599778 c 0.136968,-0.0988 0.283623,-0.16375 0.433012,-0.25 2.390231,-1.38 5.450128,-0.560103 6.830128,1.830127 1.38,2.39023 0.544478,5.423063 -1.845753,6.803063 -2.39023,1.38 -5.450127,0.560103 -6.830127,-1.830127 -1.29375,-2.24084 -0.641772,-5.071055 1.41274,-6.553063 z"
       transform="matrix(0.8660254,0.5,-0.5,0.8660254,15.520314,-8.7035982)"
       id="path3287"
       style="opacity:0.3;fill:black;fill-opacity:1;fill-rule:evenodd;stroke:none;filter:url(#filter3293)" />
    <path
       d="m 24.03125,10.546875 -1.59375,7.65625 c -0.586298,0.157858 -1.124154,0.402129 -1.625,0.71875 l -3.46875,-1.5625 1.5625,3.46875 c -0.305041,0.489233 -0.53289,1.023863 -0.6875,1.59375 l -7.6875,1.5625 7.6875,1.59375 c 0.15461,0.569887 0.382459,1.104517 0.687501,1.59375 l -1.562501,3.46875 3.468751,-1.5625 c 0.492437,0.311306 1.018467,0.560684 1.59375,0.71875 l 1.562499,7.65625 1.59375,-7.65625 c 0.586298,-0.157858 1.124155,-0.402129 1.625,-0.71875 l 3.46875,1.5625 -1.5625,-3.468751 c 0.305041,-0.489232 0.53289,-1.023862 0.6875,-1.593749 l 7.6875,-1.53125 -7.6875,-1.59375 c -0.154409,-0.580395 -0.377435,-1.127709 -0.6875,-1.625 l 1.5625,-3.46875 -3.46875,1.5625 c -0.492438,-0.311306 -1.018468,-0.560684 -1.59375,-0.71875 l -1.5625,-7.65625 0,0 z M 23.5,19.015625 c 0.168018,-0.01708 0.3275,0 0.5,0 2.76,0 5,2.240001 5,5.000001 0,2.759999 -2.239999,4.968749 -5,4.968748 -2.76,0 -5,-2.24 -5,-5 0,-2.587499 1.979737,-4.712548 4.5,-4.968749 z"
       id="path1118"
       style="fill:white;fill-opacity:1;fill-rule:evenodd;stroke:none" />
    <g
       transform="matrix(-0.09789623,0.09684682,0.04361776,0.04351875,-14.400253,19.888594)"
       id="g2337"
       style="stroke:black;stroke-width:0.37355149;stroke-miterlimit:4;stroke-opacity:0.45652197">
      <path
         d="m -176.982,231.438 0,235.5222 17.6982,0 -17.6982,-235.5222"
         id="path2335"
         style="fill:#d50000;fill-opacity:1;fill-rule:evenodd;stroke-width:0.37355149;stroke-linecap:butt;stroke-linejoin:miter" />
      <path
         d="m -176.982,231.438 0,235.5222 -17.6982,0 17.6982,-235.5222"
         id="path2336"
         style="fill:#ff8700;fill-opacity:1;fill-rule:evenodd;stroke-width:0.37355149;stroke-linecap:butt;stroke-linejoin:miter" />
    </g>
    <g
       transform="matrix(-0.9141859,0.00863144,-0.00863148,0.9141859,47.362307,3.2552364)"
       id="g3995">
      <path
         d="m 12.547442,34.981337 11.473958,-11.44869 1.877805,1.85706 -13.351763,9.59163"
         id="path2341"
         style="fill:#ccc;fill-opacity:1;fill-rule:evenodd;stroke:black;stroke-width:0.03722801;stroke-linecap:butt;stroke-linejoin:miter;stroke-miterlimit:4;stroke-opacity:0.45490202" />
      <path
         d="M 12.547442,34.981337 24.0214,23.532647 22.143594,21.675586 12.547442,34.981337"
         id="path2342"
         style="fill:white;fill-opacity:1;fill-rule:evenodd;stroke:black;stroke-width:0.01489122;stroke-linecap:butt;stroke-linejoin:miter;stroke-miterlimit:4;stroke-opacity:0.45490202" />
    </g>
    <path
       d="M 40.5,24.000585 C 40.5,14.887594 33.112152,7.4999999 24.000208,7.4999999 14.887427,7.4999999 7.5,14.887677 7.5,24.000585 7.5,33.113159 14.887427,40.5 24.000208,40.5 33.112152,40.5 40.5,33.113159 40.5,24.000585 l 0,0 z"
       id="path3215-4"
       style="opacity:0.2;fill:url(#radialGradient3307);fill-opacity:1;stroke:url(#linearGradient2464);stroke-width:0.99999988;stroke-miterlimit:4;stroke-dasharray:none" />
    <path
       d="m 26.333721,24.150593 a 2.235882,2.235882 0 1 1 -4.471764,0 2.235882,2.235882 0 1 1 4.471764,0 z"
       transform="matrix(1.1181445,0,0,1.1181445,-2.9448665,-3.0038525)"
       id="path3321"
       style="fill:#f9f8f8;fill-opacity:1;fill-rule:nonzero;stroke:url(#linearGradient3351);stroke-width:0.89426887;stroke-linecap:butt;stroke-linejoin:round;stroke-miterlimit:4;stroke-opacity:1;stroke-dasharray:none;stroke-dashoffset:0;marker:none;visibility:visible;display:inline;overflow:visible;enable-background:accumulate" />
  </g>
</svg>
