<?xml version="1.0" encoding="UTF-8" standalone="no"?>
<!-- Created with Inkscape (http://www.inkscape.org/) -->

<svg
   xmlns:dc="http://purl.org/dc/elements/1.1/"
   xmlns:cc="http://creativecommons.org/ns#"
   xmlns:rdf="http://www.w3.org/1999/02/22-rdf-syntax-ns#"
   xmlns:svg="http://www.w3.org/2000/svg"
   xmlns="http://www.w3.org/2000/svg"
   xmlns:xlink="http://www.w3.org/1999/xlink"
   xmlns:inkscape="http://www.inkscape.org/namespaces/inkscape"
   version="1.1"
   width="48"
   height="48"
   id="svg4062">
  <defs
     id="defs4064">
    <linearGradient
       id="linearGradient4263">
      <stop
         id="stop4265"
         style="stop-color:#ffffff;stop-opacity:1"
         offset="0" />
      <stop
         id="stop4267"
         style="stop-color:#ffffff;stop-opacity:0.23529412"
         offset="0.54088849" />
      <stop
         id="stop4269"
         style="stop-color:#ffffff;stop-opacity:0.15686275"
         offset="0.87818205" />
      <stop
         id="stop4271"
         style="stop-color:#ffffff;stop-opacity:0.39215687"
         offset="1" />
    </linearGradient>
    <linearGradient
       x1="71.204407"
       y1="6.2375584"
       x2="71.204407"
       y2="44.340794"
       id="linearGradient3906-0"
       xlink:href="#linearGradient4011"
       gradientUnits="userSpaceOnUse"
       gradientTransform="translate(-47.733515,-0.3572397)" />
    <linearGradient
       id="linearGradient4011">
      <stop
         id="stop4013"
         style="stop-color:#ffffff;stop-opacity:1"
         offset="0" />
      <stop
         id="stop4015"
         style="stop-color:#ffffff;stop-opacity:0.23529412"
         offset="0.507761" />
      <stop
         id="stop4017"
         style="stop-color:#ffffff;stop-opacity:0.15686275"
         offset="0.83456558" />
      <stop
         id="stop4019"
         style="stop-color:#ffffff;stop-opacity:0.39215687"
         offset="1" />
    </linearGradient>
    <radialGradient
       cx="6.2973423"
       cy="8.4497671"
       r="19.99999"
       fx="6.2973423"
       fy="8.4497671"
       id="radialGradient3909-0"
       xlink:href="#linearGradient2867-449-88-871-390-598-476-591-434-148-57-177-3-8"
       gradientUnits="userSpaceOnUse"
       gradientTransform="matrix(0,1.3402009,-1.4177726,-3.6478207e-8,35.97996,-2.8850589)" />
    <linearGradient
       id="linearGradient2867-449-88-871-390-598-476-591-434-148-57-177-3-8">
      <stop
         id="stop3750-8-9"
         style="stop-color:#90dbec;stop-opacity:1"
         offset="0" />
      <stop
         id="stop3752-3-2"
         style="stop-color:#42baea;stop-opacity:1"
         offset="0.26238" />
      <stop
         id="stop3754-7-2"
         style="stop-color:#3689e6;stop-opacity:1"
         offset="0.704952" />
      <stop
         id="stop3756-9-3"
         style="stop-color:#2b63a0;stop-opacity:1"
         offset="1" />
    </linearGradient>
    <linearGradient
       x1="24"
       y1="44"
       x2="24"
       y2="3.8990016"
       id="linearGradient3911-1"
       xlink:href="#linearGradient3707-319-631-407-324-3-8"
       gradientUnits="userSpaceOnUse"
       gradientTransform="translate(2.39e-6,1.0000002)" />
    <linearGradient
       id="linearGradient3707-319-631-407-324-3-8">
      <stop
         id="stop3760-7-3"
         style="stop-color:#185f9a;stop-opacity:1"
         offset="0" />
      <stop
         id="stop3762-8-4"
         style="stop-color:#599ec9;stop-opacity:1"
         offset="1" />
    </linearGradient>
    <linearGradient
       id="linearGradient8838">
      <stop
         id="stop8840"
         style="stop-color:#000000;stop-opacity:1"
         offset="0" />
      <stop
         id="stop8842"
         style="stop-color:#000000;stop-opacity:0"
         offset="1" />
    </linearGradient>
    <radialGradient
       cx="62.625"
       cy="4.625"
       r="10.625"
       fx="62.625"
       fy="4.625"
       id="radialGradient4060"
       xlink:href="#linearGradient8838"
       gradientUnits="userSpaceOnUse"
       gradientTransform="matrix(2.1647059,0,0,0.7529402,-111.56471,36.517647)" />
    <radialGradient
       cx="37.90189"
       cy="-1.9014981"
       r="20.397499"
       fx="37.90189"
       fy="-1.9014981"
       id="radialGradient3026-3"
       xlink:href="#linearGradient3242-7-3-8"
       gradientUnits="userSpaceOnUse"
       gradientTransform="matrix(0,1.4427669,-1.4756353,0,19.068859,-35.426862)" />
    <linearGradient
       id="linearGradient3242-7-3-8">
      <stop
         id="stop3244-5-8-5"
         style="stop-color:#eef87e;stop-opacity:1"
         offset="0" />
      <stop
         id="stop3246-9-5-1"
         style="stop-color:#cde34f;stop-opacity:1"
         offset="0.26238" />
      <stop
         id="stop3248-7-2-0"
         style="stop-color:#93b723;stop-opacity:1"
         offset="0.66093999" />
      <stop
         id="stop3250-8-2-8"
         style="stop-color:#5a7e0d;stop-opacity:1"
         offset="1" />
    </linearGradient>
    <linearGradient
       x1="59.645817"
       y1="88.031578"
       x2="59.645817"
       y2="10.56947"
       id="linearGradient3028-7"
       xlink:href="#linearGradient2490-3-4-6"
       gradientUnits="userSpaceOnUse"
       gradientTransform="matrix(0.5160413,0,0,0.5160413,-0.384991,-0.3849911)" />
    <linearGradient
       id="linearGradient2490-3-4-6">
      <stop
         id="stop2492-3-9-3"
         style="stop-color:#3f7010;stop-opacity:1"
         offset="0" />
      <stop
         id="stop2494-8-8-5"
         style="stop-color:#84a718;stop-opacity:1"
         offset="1" />
    </linearGradient>
    <linearGradient
       x1="105.31645"
       y1="17.911827"
       x2="105.31645"
       y2="86.950722"
       id="linearGradient4261"
       xlink:href="#linearGradient4263"
       gradientUnits="userSpaceOnUse"
       gradientTransform="matrix(0.5135135,0,0,0.5135135,-24.836132,-1.0212841)" />
  </defs>
  <metadata
     id="metadata4067">
    <rdf:RDF>
      <cc:Work
         rdf:about="">
        <dc:format>image/svg+xml</dc:format>
        <dc:type
           rdf:resource="http://purl.org/dc/dcmitype/StillImage" />
        <dc:title />
      </cc:Work>
    </rdf:RDF>
  </metadata>
  <g
     id="layer1">
    <path
       d="m 46.999997,40 c 0,4.418278 -10.297452,8 -23,8 -12.702548,0 -23.0000002,-3.581722 -23.0000002,-8 0,-4.418278 10.2974522,-8 23.0000002,-8 12.702548,0 23,3.581722 23,8 l 0,0 z"
       inkscape:connector-curvature="0"
       id="path8836"
       style="opacity:0.3;fill:url(#radialGradient4060);fill-opacity:1;fill-rule:evenodd;stroke:none;stroke-width:0.99999988;marker:none;visibility:visible;display:inline;overflow:visible" />
    <path
       d="M 24.000002,5.501809 C 13.241573,5.501809 4.5018088,14.24157 4.5018088,25 c 0,10.75843 8.7397642,19.498195 19.4981932,19.498192 10.758425,0 19.498199,-8.739762 19.498189,-19.498192 0,-10.75843 -8.739764,-19.498191 -19.498189,-19.498191 z"
       inkscape:connector-curvature="0"
       id="path2555"
       style="color:#000000;fill:url(#radialGradient3909-0);fill-opacity:1;fill-rule:nonzero;stroke:url(#linearGradient3911-1);stroke-width:1;stroke-linecap:round;stroke-linejoin:round;stroke-miterlimit:4;stroke-opacity:1;stroke-dasharray:none;stroke-dashoffset:0;marker:none;visibility:visible;display:inline;overflow:visible;enable-background:accumulate" />
    <path
       d="m 24.329633,6.2182728 -2.362344,0.2704567 -2.59858,0.7099494 C 19.590062,7.1210639 19.814304,7.0363415 20.043665,6.962029 L 19.739934,6.4211154 18.727501,6.5901509 18.221284,7.0634504 17.445085,7.1648717 16.736382,7.5029428 16.398905,7.6719784 16.29766,7.8072068 15.791444,7.9086281 15.487716,8.5509631 15.08274,7.7395925 l -0.134989,0.3380711 0.0675,0.9127919 -0.641208,0.5409137 -0.371225,0.9804058 0.7762,0 0.303728,-0.6423347 0.101245,-0.2366498 c 0.341288,-0.241775 0.66483,-0.5110331 1.012433,-0.7437563 L 17.00637,9.159491 c 0.527335,0.3588995 1.058376,0.7234732 1.586147,1.081827 L 19.368709,9.5313692 18.491266,9.159491 18.086294,8.3481205 16.601391,8.1790849 16.567641,8.0100494 17.208847,8.1452778 17.580075,7.7733995 18.390021,7.6043642 c 0.191673,-0.093384 0.380222,-0.1606434 0.573711,-0.2366498 l -0.506216,0.4732995 1.82238,1.250863 0,0.7437562 -0.708703,0.7099489 0.944937,1.8932 0.641208,-0.371881 0.809948,-1.250862 c 1.138725,-0.352679 2.165016,-0.763069 3.239789,-1.2508628 l -0.0675,0.4732998 0.539963,0.371878 0.944939,-0.642335 -0.47247,-0.5409137 -0.641209,0.3718781 -0.202486,-0.067613 c 0.04651,-0.02129 0.08828,-0.045973 0.13499,-0.067613 L 26.388247,7.0296433 24.329633,6.2182728 z m -9.246893,3.6511675 0.776199,0.5409137 0.641209,0 0,-0.642335 -0.776198,-0.3380712 -0.64121,0.4394925 z m 17.920071,-0.4394925 -1.383658,0.3380712 -0.877441,0.574721 0,0.507106 -1.383659,0.878984 0.269983,1.31848 0.809946,-0.574723 0.506216,0.574723 0.573714,0.338071 0.371224,-0.980408 -0.202486,-0.57472 0.202486,-0.405687 0.809948,-0.743755 0.371225,0 -0.371225,0.811373 0,0.743754 c 0.333836,-0.09103 0.6708,-0.126483 1.012433,-0.169037 l -0.944938,0.676145 -0.0675,0.405683 -1.079929,0.912794 -1.113678,-0.270459 0,-0.642335 -0.506216,0.338072 0.236235,0.574722 -0.809947,0 -0.438721,0.743756 -0.539965,0.608528 -0.978685,0.202842 0.573712,0.574721 0.134991,0.57472 -0.708703,0 -0.944938,0.507108 0,1.48751 0.438721,0 0.404973,0.439494 0.91119,-0.439494 0.337478,-0.912791 0.674956,-0.405685 0.134991,-0.338071 1.079928,-0.270457 0.60746,0.676142 0.641209,0.338071 -0.371227,0.743758 0.573715,-0.169037 0.303728,-0.743757 -0.74245,-0.845177 0.303729,0 0.742451,0.608528 0.134992,0.811371 0.641207,0.743757 0.168739,-1.081827 0.337478,-0.169037 c 0.359225,0.373574 0.642383,0.83043 0.944938,1.250864 l 1.113677,0.06762 0.641207,0.405686 -0.303729,0.439492 -0.641208,0.574721 -0.944939,0 -1.248667,-0.405684 -0.641208,0.06762 -0.472469,0.540915 -1.349912,-1.352286 -0.944937,-0.270456 -1.383659,0.169036 -1.21492,0.33807 c -0.693063,0.7871 -1.402636,1.582869 -2.058616,2.400307 l -0.776198,1.893195 0.371226,0.405687 -0.674956,0.980406 0.742451,1.724162 c 0.617799,0.700089 1.239228,1.395452 1.856128,2.09604 l 0.91119,-0.777564 0.371226,0.473301 0.978687,-0.642335 0.337477,0.371878 0.978685,0 0.573713,0.642335 -0.337478,1.149442 0.674955,0.777564 -0.03375,1.352283 0.506216,0.980406 -0.371225,0.845178 c -0.03619,0.60617 -0.0675,1.18551 -0.0675,1.791777 0.297757,0.821342 0.59628,1.640668 0.877443,2.467918 l 0.202487,1.318476 0,0.676143 0.539963,0 0.7762,-0.507106 0.944939,0 1.417406,-1.588934 -0.168739,-0.540915 0.944939,-0.845177 -0.708705,-0.777563 0.843694,-0.676141 0.809948,-0.507109 0.371225,-0.405685 -0.236234,-0.912791 c 0,-0.768475 2e-6,-1.530306 0,-2.298884 l 0.641209,-1.419897 0.809945,-0.878985 0.877443,-2.163655 0,-0.574721 c -0.436643,0.0551 -0.855168,0.10478 -1.282416,0.13523 l 0.877442,-0.878986 1.21492,-0.81137 0.641209,-0.743758 0,-0.811369 c -0.145433,-0.274746 -0.292298,-0.57043 -0.438725,-0.845176 l -0.573712,0.676141 -0.438721,-0.507105 -0.641209,-0.507107 0,-1.048021 0.742452,0.845178 0.843696,-0.101421 c 0.380615,0.346139 0.746089,0.65392 1.079927,1.04802 l 0.539978,-0.608545 c 0,-0.655131 -0.736573,-3.889319 -2.328596,-6.626192 -1.592024,-2.735972 -4.387213,-5.240102 -4.387211,-5.240102 l -0.202488,0.371878 -0.742451,0.811371 -0.944937,-0.980406 0.944937,0 0.438722,-0.4733 L 33.914003,9.768019 33.002811,9.4299478 z M 12.720395,9.8694403 12.382918,10.748425 c 0,0 -0.590841,0.09772 -0.74245,0.135229 -1.9362043,1.787344 -5.8406714,5.664168 -6.7495557,12.948122 0.035987,0.168879 0.6412078,1.14944 0.6412078,1.14944 l 1.4849023,0.878986 1.4849024,0.405684 0.6412079,0.777564 0.9786853,0.743756 0.573712,-0.101421 0.404974,0.202844 0,0.135226 -0.539965,1.521321 -0.438721,0.642336 0.134991,0.304263 -0.3374777,1.217057 1.2486677,2.298882 1.282416,1.115635 0.573711,0.81137 -0.0675,1.690355 0.404974,0.946598 -0.404974,1.825586 c 0,0 -0.05404,-0.01501 0,0.169036 0.05452,0.184134 2.25593,1.422835 2.396091,1.318476 0.139681,-0.106305 0.269983,-0.202843 0.269983,-0.202843 l -0.13499,-0.405685 0.573712,-0.540913 0.202486,-0.574722 0.911191,-0.304265 0.708702,-1.757968 -0.202486,-0.4733 0.472468,-0.743756 1.07993,-0.236649 0.539965,-1.28467 -0.134992,-1.588935 0.843695,-1.183247 0.13499,-1.217056 c -1.15759,-0.575052 -2.293316,-1.165913 -3.442272,-1.75797 l -0.573713,-1.115634 -1.046181,-0.23665 -0.573712,-1.521321 -1.383659,0.169035 -1.214921,-0.878983 -1.282415,1.115634 0,0.169036 C 10.716387,27.202843 10.261353,27.1865 9.9193333,26.975837 l -0.2699819,-0.811371 0,-0.878985 -0.8774423,0.101421 c 0.070612,-0.559892 0.1651315,-1.13056 0.2362324,-1.690355 l -0.5062167,0 -0.5062167,0.642335 -0.4724689,0.23665 -0.7087034,-0.405685 -0.067496,-0.878985 0.1349912,-0.946599 1.0461812,-0.811371 0.8436945,0 0.1687389,-0.473299 1.0461817,0.236648 0.7761987,0.980407 0.134991,-1.622742 1.349911,-1.115633 0.472468,-1.183248 1.012435,-0.405685 0.539964,-0.811372 1.282416,-0.23665 0.641208,-0.946599 c -0.634667,0 -1.288957,0 -1.923624,0 l 1.214921,-0.574721 0.843693,0 1.07993,-0.371877 0.202487,1.04802 0.472469,-0.743757 -0.539966,-0.371878 0.134992,-0.439491 -0.438721,-0.405687 -0.47247,-0.135228 0.134992,-0.507106 -0.371226,-0.709948 -0.843695,0.33807 0.134992,-0.642334 -0.978686,-0.574722 -0.776198,1.352284 0.0675,0.4733 -0.776198,0.338071 -0.472469,1.04802 -0.236234,-0.980407 -1.316164,-0.540913 -0.236234,-0.743756 1.788632,-1.014213 0.776198,-0.743757 0.0675,-0.878985 -0.438721,-0.2366496 -0.573713,-0.067613 z m 14.477799,1.6227437 0,0.54091 0.30373,0.338072 0,0.811371 -0.168739,1.081827 0.877442,-0.169036 0.641209,-0.642334 -0.573713,-0.540915 c -0.186049,-0.496308 -0.3746,-0.943871 -0.607459,-1.419895 l -0.47247,0 z m -0.742452,1.081824 -0.539963,0.169038 0.13499,0.980405 0.708703,-0.371881 -0.30373,-0.777562 z m 9.888101,8.89127 0.809946,0.946598 0.978686,2.096042 0.607459,0.67614 -0.303728,0.709952 0.539964,0.642335 c -0.247792,0.01643 -0.487764,0.03381 -0.742451,0.03381 -0.462673,-0.973935 -0.828843,-1.956133 -1.181173,-2.975025 l -0.60746,-0.676142 -0.337478,-1.217056 0.236235,-0.23665 z"
       inkscape:connector-curvature="0"
       id="path6534"
       style="opacity:0.4;fill:#000000;fill-opacity:1;fill-rule:nonzero;stroke:none" />
    <path
       d="m 24,6 c -0.665902,0 -1.3204,0.026707 -1.96875,0.09375 A 1.4598956,1.4598956 0 0 0 23.5625,7.5 C 23.81013,7.4870185 23.960443,7.46875 24,7.46875 c 4.451204,0 8.03125,3.580045 8.03125,8.03125 4e-6,4.451207 -3.580045,8.03125 -8.03125,8.03125 -0.03956,0 -0.18987,-0.01827 -0.4375,-0.03125 A 1.4598956,1.4598956 0 0 0 22.75,23.71875 1.4598956,1.4598956 0 0 0 22.71875,23.75 c -5.547255,0.662239 -9.9375,5.281507 -9.9375,11 0,2.786549 1.040841,5.311185 2.75,7.25 C 18.081386,43.27337 20.958963,44.000001 24,44 34.483541,44 43.000009,35.483546 43,25 43,14.516455 34.483541,6 24,6 z"
       inkscape:connector-curvature="0"
       id="path4331"
       style="opacity:0.5;color:#000000;fill:#1a3b60;fill-opacity:1;fill-rule:nonzero;stroke:none;stroke-width:1.00365424;marker:none;visibility:visible;display:inline;overflow:visible;enable-background:accumulate" />
    <path
       d="m 23.5,5.5 0,0.53125 C 23.666911,6.0225001 23.830932,6 24,6 c 5.24177,0 9.5,4.258229 9.5,9.5 5e-6,5.241774 -4.25823,9.5 -9.5,9.5 -0.169068,0 -0.333089,-0.0225 -0.5,-0.03125 l 0,0.0625 c -5.1473,0.261428 -9.25,4.507154 -9.25,9.71875 0,5.211599 4.1027,9.457325 9.25,9.71875 l 0,0.03125 c 0.166927,0.0042 0.332064,0 0.5,0 C 34.758425,44.5 43.50001,35.75843 43.5,25 43.5,14.24157 34.758425,5.5 24,5.5 c -0.167936,0 -0.333073,-0.00423 -0.5,0 z"
       inkscape:connector-curvature="0"
       id="path2555-1"
       style="color:#000000;fill:url(#radialGradient3026-3);fill-opacity:1;fill-rule:nonzero;stroke:url(#linearGradient3028-7);stroke-width:1.00365424;stroke-linecap:round;stroke-linejoin:round;stroke-miterlimit:4;stroke-opacity:1;stroke-dasharray:none;stroke-dashoffset:0;marker:none;visibility:visible;display:inline;overflow:visible;enable-background:accumulate" />
    <path
       d="m 31.90625,8.53125 c 1.657543,1.881017 2.75,4.275491 2.75,6.96875 6e-6,5.873912 -4.782344,10.65625 -10.65625,10.65625 -0.0755,0 -0.09396,0.0032 -0.15625,0 -0.01246,-6.32e-4 -0.01932,7.08e-4 -0.03125,0 a 1.167333,1.167333 0 0 1 -0.25,0.03125 c -4.539306,0.230548 -8.15625,3.963479 -8.15625,8.5625 0,4.599025 3.616944,8.331954 8.15625,8.5625 a 1.167333,1.167333 0 0 1 0.21875,0.03125 c 0.07394,-5.07e-4 0.131298,0 0.21875,0 10.126158,0 18.343759,-8.217589 18.34375,-18.34375 0,-7.276843 -4.29466,-13.507608 -10.4375,-16.46875 z"
       id="path4259"
       style="opacity:0.5;color:#000000;fill:none;stroke:url(#linearGradient4261);stroke-width:0.99999988;stroke-linecap:round;stroke-linejoin:round;stroke-miterlimit:4;stroke-opacity:1;stroke-dasharray:none;stroke-dashoffset:0;marker:none;visibility:visible;display:inline;overflow:visible;enable-background:accumulate" />
    <path
       d="M 42.500002,24.999344 C 42.500002,35.216942 34.21666,43.5 24.000235,43.5 13.782875,43.5 5.5000003,35.216848 5.5000003,24.999344 c 0,-10.217125 8.2828747,-18.4993437 18.5002347,-18.4993437 10.216425,0 18.499767,8.2822187 18.499767,18.4993437 l 0,0 z"
       inkscape:connector-curvature="0"
       id="path8655"
       style="opacity:0.5;color:#000000;fill:none;stroke:url(#linearGradient3906-0);stroke-width:1;stroke-linecap:round;stroke-linejoin:round;stroke-miterlimit:4;stroke-opacity:1;stroke-dasharray:none;stroke-dashoffset:0;marker:none;visibility:visible;display:inline;overflow:visible;enable-background:accumulate" />
  </g>
</svg>
