<svg xmlns="http://www.w3.org/2000/svg" xmlns:xlink="http://www.w3.org/1999/xlink" viewBox="0 0 48 48"><defs><linearGradient id="c"><stop offset="0" stop-color="#fff"/><stop offset=".011" stop-color="#fff" stop-opacity=".235"/><stop offset=".985" stop-color="#fff" stop-opacity=".157"/><stop offset="1" stop-color="#fff" stop-opacity=".392"/></linearGradient><linearGradient gradientTransform="matrix(.0845 0 0 .01235 -6.54 38.47)" gradientUnits="userSpaceOnUse" xlink:href="#a" id="g" y2="609.505" x2="302.857" y1="366.648" x1="302.857"/><linearGradient id="a"><stop offset="0" stop-opacity="0"/><stop offset=".5"/><stop offset="1" stop-opacity="0"/></linearGradient><radialGradient gradientTransform="matrix(-.02892 0 0 .01235 21.027 38.47)" gradientUnits="userSpaceOnUse" xlink:href="#b" id="h" fy="486.648" fx="605.714" r="117.143" cy="486.648" cx="605.714"/><linearGradient id="b"><stop offset="0"/><stop offset="1" stop-opacity="0"/></linearGradient><radialGradient gradientTransform="matrix(.02892 0 0 .01235 26.973 38.47)" gradientUnits="userSpaceOnUse" xlink:href="#b" id="i" fy="486.648" fx="605.714" r="117.143" cy="486.648" cx="605.714"/><linearGradient xlink:href="#c" id="l" gradientUnits="userSpaceOnUse" gradientTransform="matrix(1.16216 0 0 .91892 -3.892 4.446)" x1="40.29" y1="6.019" x2="40.29" y2="41.956"/><radialGradient xlink:href="#d" id="j" gradientUnits="userSpaceOnUse" gradientTransform="scale(12.94766 8.43715) rotate(90 10 1.885)" cx="7.118" cy="9.957" fx="7.118" fy="9.957" r="12.672"/><linearGradient y2="44.341" x2="71.204" y1="6.238" x1="71.204" gradientTransform="matrix(-.05405 0 0 .05405 20.44 39.223)" gradientUnits="userSpaceOnUse" id="n" xlink:href="#e"/><linearGradient id="e"><stop offset="0" stop-color="#fff"/><stop offset=".508" stop-color="#fff" stop-opacity=".235"/><stop offset=".835" stop-color="#fff" stop-opacity=".157"/><stop offset="1" stop-color="#fff" stop-opacity=".392"/></linearGradient><linearGradient y2="8.093" x2="38.977" y1="59.968" x1="38.977" gradientTransform="matrix(-.07843 0 0 .07843 19.01 37.833)" gradientUnits="userSpaceOnUse" id="m" xlink:href="#f"/><linearGradient id="f"><stop offset="0" stop-color="#2b3235"/><stop offset="1" stop-color="#374044"/></linearGradient><radialGradient cx="7.496" cy="8.45" r="20" id="d" gradientUnits="userSpaceOnUse" gradientTransform="matrix(0 3.29576 -5.38092 0 77.468 -19.382)"><stop offset="0" stop-color="#f8b17e"/><stop offset=".262" stop-color="#e35d4f"/><stop offset=".661" stop-color="#c6262e"/><stop offset="1" stop-color="#690b54"/></radialGradient><linearGradient xlink:href="#f" id="k" x1="25" y1="44.875" x2="25" y2="41" gradientUnits="userSpaceOnUse"/></defs><path overflow="visible" fill="url(#g)" d="M3.6 43h40.8v3H3.6z"/><path d="M3.6 43v3c-1.49.006-3.6-.672-3.6-1.5S1.662 43 3.6 43z" overflow="visible" fill="url(#h)"/><path d="M44.4 43v3c1.49.006 3.6-.672 3.6-1.5S46.338 43 44.4 43z" overflow="visible" fill="url(#i)"/><path d="M3 8.5c-.83 0-1.5.67-1.5 1.5v27h45V10c0-.83-.67-1.5-1.5-1.5z" color="#000" overflow="visible" fill="url(#j)"/><path style="line-height:normal;text-indent:0;text-align:start;text-decoration-line:none;text-decoration-style:solid;text-decoration-color:#000;text-transform:none;block-progression:tb;isolation:auto;mix-blend-mode:normal" d="M3 8c-1.1 0-2 .9-2 2v27h1V10c0-.563.437-1 1-1h42c.563 0 1 .437 1 1v27h1V10c0-1.1-.9-2-2-2z" color="#000" font-weight="400" font-family="sans-serif" white-space="normal" overflow="visible" opacity=".5" fill="#6f0000"/><path d="M46.5 37v6c0 .83-.67 1.5-1.5 1.5H3c-.83 0-1.5-.67-1.5-1.5v-6z" color="#000" overflow="visible" fill="url(#k)"/><path style="line-height:normal;text-indent:0;text-align:start;text-decoration-line:none;text-decoration-style:solid;text-decoration-color:#000;text-transform:none;block-progression:tb;isolation:auto;mix-blend-mode:normal" d="M1 37v6c0 1.1.9 2 2 2h42c1.1 0 2-.9 2-2v-6h-1v6c0 .563-.437 1-1 1H3c-.563 0-1-.437-1-1v-6z" color="#000" font-weight="400" font-family="sans-serif" white-space="normal" overflow="visible" opacity=".5"/><rect width="43" height="34" rx=".512" ry=".512" x="2.5" y="9.5" opacity=".3" fill="none" stroke="url(#l)" stroke-linecap="round" stroke-linejoin="round"/><path style="line-height:normal;text-indent:0;text-align:start;text-decoration-line:none;text-decoration-style:solid;text-decoration-color:#000;text-transform:none;block-progression:tb;isolation:auto;mix-blend-mode:normal" d="M3 36v1h42v-1z" color="#000" font-weight="400" font-family="sans-serif" white-space="normal" overflow="visible" opacity=".1" fill="#fff" fill-rule="evenodd"/><path style="line-height:normal;text-indent:0;text-align:start;text-decoration-line:none;text-decoration-style:solid;text-decoration-color:#000;text-transform:none;block-progression:tb;isolation:auto;mix-blend-mode:normal" d="M2 37v1h44v-1z" color="#000" font-weight="400" font-family="sans-serif" white-space="normal" overflow="visible" opacity=".2" fill-rule="evenodd"/><rect ry=".25" y="41" x="4" height="1" width="40" opacity=".05" fill="#fff"/><rect width="40" height="1" x="4" y="40" ry=".463" opacity=".4"/><path d="M16.5 38.5a2 2 0 0 1 2 2 2 2 0 0 1-2 2 2 2 0 0 1-2-2 2 2 0 0 1 2-2z" color="#000" overflow="visible" fill="url(#m)"/><path d="M15.563 40.594a1 1 0 1 0 2 0 1 1 0 0 0-2 0z" color="#000" overflow="visible" opacity=".15" fill="none" stroke="url(#n)" stroke-linecap="round" stroke-linejoin="round"/><path d="M16.5 38.5a2 2 0 0 1 2 2 2 2 0 0 1-2 2 2 2 0 0 1-2-2 2 2 0 0 1 2-2z" color="#000" overflow="visible" fill="none" stroke="#242424" stroke-linecap="round" stroke-linejoin="round"/><path d="M18.28 17.01a.993.993 0 0 0-.06.03.993.993 0 0 0-.19.03 3.015 3.015 0 0 1-.092.032l-.125.063c.012-.006-.105.07-.094.062.01-.007-.14.07-.13.063.01-.008-.11.07-.1.062.01-.01-.07.103-.062.094.01-.01-.1.104-.094.093.01-.01-.07.1-.06.09a1.4 1.4 0 0 1-.064.09 5.98 5.98 0 0 1-.063.123c.006-.013-.067.106-.063.093a1.75 1.75 0 0 1-.03.125 4.848 4.848 0 0 1-.03.124l-.03.124c0-.016-.002.136 0 .123 0-.007-.002.028 0 .06v13.08c-.002-.01.03.107.03.097v.092l.03.092c0-.012.036.103.03.093l.034.094a.868.868 0 0 1 .03.094c-.003-.01.038.102.033.093-.004-.01.07.07.064.06-.008-.01.07.102.06.094-.007-.01.07.07.062.063-.01-.01.07.1.06.093l.062.062.093.062c-.01-.01.074.07.065.06-.01-.006.103.037.093.03-.01-.004.103.07.093.064a.837.837 0 0 0 .094.03c-.01 0 .07.038.06.034-.01-.003.135.034.125.03-.01 0 .1.035.09.033-.01-.002.104.03.093.03a4.056 4.056 0 0 1 .185 0h.19a.868.868 0 0 1 .094-.03c-.01 0 .105-.034.094-.032a4.7 4.7 0 0 1 .094-.03l.094-.032c-.01.005.104-.035.094-.03l.063-.03a.112.112 0 0 0 .03-.033l11.96-6.46c-.01.004.103-.07.093-.063-.01.004.103-.04.094-.033l.06-.06c-.01.007.07-.1.063-.094-.007.007.102-.07.094-.063l.066-.064c-.007.01.07-.104.062-.095-.008.01.035-.102.03-.092-.006.01.067-.073.062-.063-.006.01.035-.103.03-.093l.03-.094a4.62 4.62 0 0 1 .033-.092l.03-.092c0 .01.033-.135.03-.124v-.37c0 .01-.033-.135-.03-.124a2.06 2.06 0 0 1-.03-.095c0 .01-.037-.103-.034-.093a1.25 1.25 0 0 1-.03-.093c.004.01-.037-.105-.032-.095.007.01-.066-.07-.06-.063.006.01-.037-.1-.03-.092.006.01-.07-.1-.063-.093.006.01-.07-.07-.064-.06.008.007-.1-.07-.093-.064.01.006-.07-.1-.062-.095.01.008-.07-.07-.06-.062.01.006-.103-.04-.094-.03.01.004-.106-.07-.097-.064l-11.96-6.465c.004.004-.01-.02-.03-.03l-.065-.03c.014.005-.138-.07-.125-.064.014.006-.14-.034-.124-.03l-.156-.03c.013 0-.14-.034-.126-.03h-.12s-.02-.003-.033 0a.825.825 0 0 1-.092 0h-.094z" opacity=".07" fill-rule="evenodd"/><path d="M18.406 18.008a.498.498 0 0 0-.406.5v12.987a.498.498 0 0 0 .75.437l11.99-6.494a.498.498 0 0 0 0-.874L18.75 18.07a.498.498 0 0 0-.344-.062z" fill-rule="evenodd" opacity=".15"/><path d="M18.406 17.008a.498.498 0 0 0-.406.5v12.987a.498.498 0 0 0 .75.437l11.99-6.494a.498.498 0 0 0 0-.874L18.75 17.07a.498.498 0 0 0-.344-.062z" fill="#fafafa" fill-rule="evenodd"/></svg>