<?xml version="1.0" encoding="UTF-8" standalone="no"?>
<svg
   version="1.1"
   width="48"
   height="48"
   id="svg6649"
   xmlns:xlink="http://www.w3.org/1999/xlink"
   xmlns="http://www.w3.org/2000/svg"
   xmlns:svg="http://www.w3.org/2000/svg"
   xmlns:rdf="http://www.w3.org/1999/02/22-rdf-syntax-ns#"
   xmlns:cc="http://creativecommons.org/ns#"
   xmlns:dc="http://purl.org/dc/elements/1.1/">
  <defs
     id="defs6651">
    <linearGradient
       id="linearGradient1201">
      <stop
         id="stop1193"
         style="stop-color:#ffffff;stop-opacity:1"
         offset="0" />
      <stop
         id="stop1195"
         style="stop-color:#ffffff;stop-opacity:0.23529412"
         offset="0.06781636" />
      <stop
         id="stop1197"
         style="stop-color:#ffffff;stop-opacity:0.15686275"
         offset="0.94694352" />
      <stop
         id="stop1199"
         style="stop-color:#ffffff;stop-opacity:0.39215687"
         offset="1" />
    </linearGradient>
    <linearGradient
       id="linearGradient3688-166-749">
      <stop
         id="stop2883"
         style="stop-color:#181818;stop-opacity:1"
         offset="0" />
      <stop
         id="stop2885"
         style="stop-color:#181818;stop-opacity:0"
         offset="1" />
    </linearGradient>
    <linearGradient
       id="linearGradient3702-501-757">
      <stop
         id="stop2895"
         style="stop-color:#181818;stop-opacity:0"
         offset="0" />
      <stop
         id="stop2897"
         style="stop-color:#181818;stop-opacity:1"
         offset="0.5" />
      <stop
         id="stop2899"
         style="stop-color:#181818;stop-opacity:0"
         offset="1" />
    </linearGradient>
    <linearGradient
       x1="38.999996"
       y1="5.9999938"
       x2="38.999996"
       y2="41.945408"
       id="linearGradient3058-5"
       xlink:href="#linearGradient1201"
       gradientUnits="userSpaceOnUse"
       gradientTransform="translate(4e-6)" />
    <linearGradient
       xlink:href="#linearGradient3702-501-757"
       id="linearGradient1191"
       gradientUnits="userSpaceOnUse"
       x1="25.058096"
       y1="47.027729"
       x2="25.058096"
       y2="39.999443"
       gradientTransform="matrix(1.1428571,0,0,0.6428571,-3.428569,15.035716)" />
    <linearGradient
       id="linearGradient3600-9-51">
      <stop
         offset="0"
         style="stop-color:#f4f4f4;stop-opacity:1"
         id="stop3602-0-0" />
      <stop
         offset="1"
         style="stop-color:#dbdbdb;stop-opacity:1"
         id="stop3604-9-04" />
    </linearGradient>
    <linearGradient
       id="linearGradient3104-6">
      <stop
         offset="0"
         style="stop-color:#000000;stop-opacity:0.31782946"
         id="stop3106-3" />
      <stop
         offset="1"
         style="stop-color:#000000;stop-opacity:0.24031007"
         id="stop3108-9" />
    </linearGradient>
    <linearGradient
       xlink:href="#linearGradient3104-6"
       id="linearGradient3170"
       gradientUnits="userSpaceOnUse"
       gradientTransform="matrix(0.80749686,0,0,0.89471714,10.835333,-1.132171)"
       x1="-51.786404"
       y1="50.786446"
       x2="-51.786404"
       y2="2.9062471" />
    <linearGradient
       xlink:href="#linearGradient3600-9-51"
       id="linearGradient1512"
       gradientUnits="userSpaceOnUse"
       gradientTransform="matrix(0.97142632,0,0,0.93431938,-47.889132,0.4881727)"
       x1="74.838791"
       y1="4.535933"
       x2="74.838791"
       y2="49.779099" />
    <linearGradient
       id="linearGradient4632-92-3-0-8-1">
      <stop
         id="stop4634-68-8-0-2-9"
         style="stop-color:#fafafa;stop-opacity:1"
         offset="0" />
      <stop
         id="stop4636-8-21-7-1-4"
         style="stop-color:#e1e1e1;stop-opacity:1"
         offset="1" />
    </linearGradient>
    <radialGradient
       cx="4.9929786"
       cy="43.5"
       r="2.5"
       fx="4.9929786"
       fy="43.5"
       id="radialGradient3013-6-5-76"
       xlink:href="#linearGradient3688-166-749"
       gradientUnits="userSpaceOnUse"
       gradientTransform="matrix(2.003784,0,0,0.89999994,29.98813,3.8500025)" />
    <radialGradient
       cx="4.9929786"
       cy="43.5"
       r="2.5"
       fx="4.9929786"
       fy="43.5"
       id="radialGradient3015-1-6-9"
       xlink:href="#linearGradient3688-166-749"
       gradientUnits="userSpaceOnUse"
       gradientTransform="matrix(2.003784,0,0,0.89999994,-18.01187,-82.149997)" />
    <linearGradient
       gradientTransform="matrix(0,-0.93703138,0.9372054,0,17.561749,76.185131)"
       gradientUnits="userSpaceOnUse"
       xlink:href="#linearGradient3688-166-749"
       id="linearGradient3358"
       y2="29.5"
       x2="65.260002"
       y1="29.5"
       x1="32.139999" />
    <linearGradient
       gradientTransform="matrix(0.87690624,0,0,0.87690624,-35.677741,2.031925)"
       gradientUnits="userSpaceOnUse"
       xlink:href="#linearGradient4220-7"
       id="linearGradient3355"
       y2="50.057175"
       x2="79.457138"
       y1="22.857172"
       x1="79.457138" />
    <linearGradient
       id="linearGradient4220-7">
      <stop
         offset="0"
         style="stop-color:#7a8498;stop-opacity:1"
         id="stop4222-7" />
      <stop
         offset="1"
         style="stop-color:#34405c;stop-opacity:1"
         id="stop4224-0" />
    </linearGradient>
    <linearGradient
       gradientTransform="matrix(0,0.65217386,-0.65197269,0,61.631401,1.399113)"
       gradientUnits="userSpaceOnUse"
       xlink:href="#linearGradient3878"
       id="linearGradient3351"
       y2="42.379356"
       x2="66.731972"
       y1="42.379356"
       x1="33.243969" />
    <linearGradient
       id="linearGradient3878">
      <stop
         offset="0"
         style="stop-color:#ffffff;stop-opacity:1"
         id="stop3880" />
      <stop
         offset="0.50000179"
         style="stop-color:#ffffff;stop-opacity:0.23529412"
         id="stop3882" />
      <stop
         offset="0.72893953"
         style="stop-color:#ffffff;stop-opacity:0.15686275"
         id="stop3884" />
      <stop
         offset="1"
         style="stop-color:#ffffff;stop-opacity:0.39215687"
         id="stop3886" />
    </linearGradient>
    <linearGradient
       gradientTransform="matrix(0.89473686,0,0,0.89473686,-1.7903547,7.1579944)"
       gradientUnits="userSpaceOnUse"
       xlink:href="#linearGradient4632-92-3-0-8-1"
       id="linearGradient3348"
       y2="29.999983"
       x2="49.5"
       y1="29.999983"
       x1="30.5" />
    <radialGradient
       spreadMethod="pad"
       gradientTransform="matrix(0,0.32535882,-0.3253589,1.3972489e-8,46.423933,17.110699)"
       gradientUnits="userSpaceOnUse"
       xlink:href="#linearGradient3942"
       id="radialGradient3343"
       fy="38.188026"
       fx="51.91"
       r="27.5"
       cy="38.188026"
       cx="51.91" />
    <linearGradient
       id="linearGradient3942">
      <stop
         id="stop3944"
         style="stop-color:#181818;stop-opacity:0"
         offset="0" />
      <stop
         id="stop3946"
         style="stop-color:#181818;stop-opacity:0"
         offset="0.60000002" />
      <stop
         id="stop3948"
         style="stop-color:#181818;stop-opacity:1"
         offset="1" />
    </linearGradient>
    <linearGradient
       gradientTransform="matrix(0.72916668,0,0,0.7777778,-5.229252,-840.94789)"
       gradientUnits="userSpaceOnUse"
       xlink:href="#linearGradient3737"
       id="linearGradient3333"
       y2="1037.505"
       x2="53.800014"
       y1="1037.505"
       x1="44.200016" />
    <linearGradient
       id="linearGradient3737">
      <stop
         id="stop3739"
         style="stop-color:#ffffff;stop-opacity:1"
         offset="0" />
      <stop
         id="stop3741"
         style="stop-color:#ffffff;stop-opacity:0"
         offset="1" />
    </linearGradient>
    <linearGradient
       gradientTransform="matrix(0.73913043,0,0,0.73913043,0.80112621,1.2608701)"
       gradientUnits="userSpaceOnUse"
       y2="44.5"
       x2="44"
       y1="0"
       x1="44"
       id="linearGradient1071"
       xlink:href="#linearGradient1069" />
    <linearGradient
       id="linearGradient1069">
      <stop
         id="stop1065"
         offset="0"
         style="stop-color:#ed5353;stop-opacity:1" />
      <stop
         id="stop1067"
         offset="1"
         style="stop-color:#c6262e;stop-opacity:1" />
    </linearGradient>
    <linearGradient
       gradientTransform="matrix(0.73913045,0,0,0.74477236,34.279982,5.8839498)"
       gradientUnits="userSpaceOnUse"
       y2="37.724575"
       x2="-17.375"
       y1="-6.125"
       x1="-17.375"
       id="linearGradient1063"
       xlink:href="#linearGradient1061" />
    <linearGradient
       id="linearGradient1061">
      <stop
         id="stop1057"
         offset="0"
         style="stop-color:#4d4d4d;stop-opacity:1" />
      <stop
         id="stop1059"
         offset="1"
         style="stop-color:#333333;stop-opacity:1" />
    </linearGradient>
    <linearGradient
       xlink:href="#linearGradient1069"
       id="linearGradient677"
       gradientUnits="userSpaceOnUse"
       gradientTransform="matrix(1.1086956,0,0,1.1086956,-14.02046,-13.311565)"
       x1="44"
       y1="0"
       x2="44"
       y2="44.5" />
  </defs>
  <metadata
     id="metadata6654">
    <rdf:RDF>
      <cc:Work
         rdf:about="">
        <dc:format>image/svg+xml</dc:format>
        <dc:type
           rdf:resource="http://purl.org/dc/dcmitype/StillImage" />
      </cc:Work>
    </rdf:RDF>
  </metadata>
  <rect
     style="opacity:0.4;fill:url(#radialGradient3015-1-6-9);fill-opacity:1;stroke:none;stroke-width:0.862764"
     id="rect3696-6-3-5-0"
     transform="scale(-1)"
     y="-45.25"
     x="-8"
     height="4.4999995"
     width="5" />
  <rect
     style="opacity:0.4;fill:url(#linearGradient1191);fill-opacity:1;stroke:none;stroke-width:0.862764"
     id="rect3700-4-6-9-6"
     y="40.75"
     x="8"
     height="4.5"
     width="32" />
  <rect
     style="color:#000000;font-variation-settings:normal;display:inline;overflow:visible;visibility:visible;vector-effect:none;fill:none;fill-opacity:1;fill-rule:nonzero;stroke:url(#linearGradient3170);stroke-width:0.999922;stroke-linecap:butt;stroke-linejoin:round;stroke-miterlimit:4;stroke-dasharray:none;stroke-dashoffset:0;stroke-opacity:1;-inkscape-stroke:none;marker:none;enable-background:accumulate;stop-color:#000000"
     id="rect5505-21-1-2-8"
     y="4.4999952"
     x="4.5000153"
     ry="4"
     rx="4"
     height="39"
     width="39" />
  <rect
     style="color:#000000;font-variation-settings:normal;display:inline;overflow:visible;visibility:visible;vector-effect:none;fill:url(#linearGradient1512);fill-opacity:1;fill-rule:nonzero;stroke:none;stroke-width:1;stroke-linecap:butt;stroke-linejoin:miter;stroke-miterlimit:4;stroke-dasharray:none;stroke-dashoffset:0;stroke-opacity:1;-inkscape-stroke:none;marker:none;enable-background:accumulate;stop-color:#000000"
     id="rect5505-21-1-7-2-9"
     y="5"
     x="5"
     ry="3.5"
     rx="3.5"
     height="38"
     width="38" />
  <rect
     style="fill:none;stroke:url(#linearGradient3058-5);stroke-width:1;stroke-linecap:round;stroke-linejoin:round;stroke-miterlimit:4;stroke-dasharray:none;stroke-dashoffset:0;stroke-opacity:1"
     id="rect6741-2-8-4"
     y="5.4999952"
     x="5.5000153"
     ry="3"
     rx="3"
     height="37"
     width="37" />
  <path
     id="text942"
     d="m 30.761893,18.855639 c -1.616847,0 -2.997905,0.553385 -4.143172,1.660156 -1.145267,1.106771 -2.025872,2.507077 -2.641814,4.200917 -0.279098,0.769928 -0.486016,1.544668 -0.620754,2.324219 -0.134737,0.769928 -0.202106,1.544667 -0.202106,2.324219 0,0.769927 0.110677,1.45805 0.332031,2.064368 0.615943,1.684216 1.799706,2.526325 3.551291,2.526325 1.751585,0 3.238508,-0.914289 4.460768,-2.742867 0.115489,0.875792 0.42346,1.554291 0.923913,2.035496 0.500452,0.471581 1.140455,0.707371 1.920006,0.707371 0.789177,0 1.438803,-0.279099 1.94888,-0.837297 0.288722,-0.327219 0.640002,-1.044214 1.053838,-2.150985 -0.173234,0.08662 -0.389776,0.129926 -0.649626,0.129926 -0.808424,0 -1.212636,-0.336844 -1.212636,-1.01053 0,-0.356092 0.04331,-0.702559 0.129925,-1.039402 L 37.73455,19 h -4.258662 l -0.317595,1.57354 v -0.216542 c 0,-0.433085 -0.187669,-0.789176 -0.56301,-1.068275 C 32.219943,19 31.608814,18.855639 30.761893,18.855639 Z m 0.793988,1.83339 c 0.548573,0 0.904665,0.144362 1.068275,0.433084 0.173233,0.279099 0.25985,0.510077 0.25985,0.692935 l -1.414741,6.669497 c -0.182858,0.808424 -0.51489,1.448427 -0.996094,1.920007 -0.481205,0.461957 -1.015342,0.692935 -1.602412,0.692935 -0.317595,0 -0.582258,-0.105866 -0.793988,-0.317595 -0.365715,-0.346468 -0.548573,-0.957598 -0.548573,-1.83339 0,-0.452333 0.02406,-0.880605 0.07218,-1.284817 0.317596,-2.646626 1.101959,-4.67731 2.353091,-6.092052 0.519701,-0.587069 1.053839,-0.880604 1.602412,-0.880604 z"
     style="font-style:normal;font-weight:normal;font-size:40px;line-height:1.25;font-family:sans-serif;letter-spacing:0px;word-spacing:0px;fill:url(#linearGradient1071);fill-opacity:1;stroke:none;stroke-width:1" />
  <path
     id="text80"
     d="m 17.859375,14 -7.054687,20 h 4.566406 l 1.449218,-5 h 7.28711 l 1.449219,5 h 4.566406 L 23.041016,14 Z m 2.611328,3.091797 2.625,8.908203 h -5.208984 c 1.421875,-4.586739 2.583984,-8.908203 2.583984,-8.908203 z"
     style="font-style:normal;font-variant:normal;font-weight:bold;font-stretch:normal;font-size:27.9509px;line-height:1.25;font-family:'Open Sans';-inkscape-font-specification:'Open Sans Bold';letter-spacing:0px;word-spacing:0px;vector-effect:none;fill:url(#linearGradient1063);fill-opacity:1;stroke:none;stroke-width:1;stroke-linecap:butt;stroke-linejoin:miter;stroke-miterlimit:4;stroke-dasharray:none;stroke-dashoffset:0;stroke-opacity:1" />
  <rect
     style="opacity:0.4;fill:url(#radialGradient3013-6-5-76);fill-opacity:1;stroke:none;stroke-width:0.862764"
     id="rect2801-3-7-7-2"
     y="40.75"
     x="40"
     height="4.4999995"
     width="5" />
  <path
     style="opacity:0.15;fill:none;stroke:url(#linearGradient3358);stroke-width:1;stroke-miterlimit:4;stroke-dasharray:none;stroke-opacity:1"
     id="path8105"
     d="m 34.002654,21.5 a 12.5,12.5 0 0 1 0,24.999999 12.500001,12.5 0 1 1 0,-24.999999 z" />
  <path
     style="color:#000000;display:inline;overflow:visible;visibility:visible;fill:url(#linearGradient3355);fill-opacity:1;fill-rule:nonzero;stroke:none;stroke-width:0.790698;marker:none;enable-background:accumulate"
     id="path4218"
     d="m 45.498724,34.001469 a 11.5,11.5 0 0 1 -23,0 11.5,11.5 0 1 1 23,0 z" />
  <path
     style="opacity:0.3;fill:none;stroke:#000000;stroke-width:1;stroke-miterlimit:4;stroke-dasharray:none;stroke-opacity:1"
     id="path7624"
     d="m 45.498724,34.002227 a 11.499999,11.497725 0 0 1 -22.999998,0 11.5,11.497726 0 1 1 22.999998,0 z" />
  <path
     style="opacity:0.3;fill:none;stroke:url(#linearGradient3351);stroke-width:1;stroke-miterlimit:4;stroke-dasharray:none;stroke-opacity:1"
     id="path7681"
     d="m 33.999117,44.500002 a 10.49676,10.5 0 1 1 0,-20.999999 10.496761,10.5 0 1 1 0,20.999999 z" />
  <rect
     style="color:#000000;display:inline;overflow:visible;visibility:visible;fill:url(#linearGradient3348);fill-opacity:1;fill-rule:nonzero;stroke:none;stroke-width:1;marker:none;enable-background:accumulate"
     id="rect8115"
     y="25.500084"
     x="25.499123"
     ry="25"
     rx="25"
     height="17"
     width="17" />
  <path
     id="text942-7"
     style="font-style:normal;font-weight:normal;font-size:40px;line-height:1.25;font-family:sans-serif;letter-spacing:0px;word-spacing:0px;fill:url(#linearGradient677);fill-opacity:1;stroke:none;stroke-width:1"
     d="m 34,25.5 c -0.554383,0 -1.096846,0.0539 -1.621094,0.154297 l -0.396484,1.869141 c -0.274287,1.212633 -0.772335,2.17349 -1.494141,2.880859 -0.721806,0.692935 -1.523694,1.039062 -2.404297,1.039062 -0.476392,0 -0.873811,-0.158969 -1.191406,-0.476562 C 26.684769,30.769925 26.515806,30.51589 26.386719,30.205078 25.818939,31.346372 25.5,32.63413 25.5,34 c 0,0.589288 0.05877,1.163845 0.171875,1.71875 2.480874,-0.113508 4.599428,-1.477337 6.353516,-4.101562 0.173233,1.313686 0.634086,2.330928 1.384765,3.052734 0.750677,0.70737 1.711534,1.060547 2.88086,1.060547 1.183763,0 2.158713,-0.418563 2.923828,-1.25586 0.433082,-0.490827 0.959324,-1.566408 1.580078,-3.226562 -0.259851,0.12993 -0.584835,0.195312 -0.97461,0.195312 -1.212634,0 -1.818359,-0.505097 -1.818359,-1.515625 0,-0.534137 0.0654,-1.05333 0.195313,-1.558593 l 0.332031,-1.56836 C 37.219296,25.977078 35.668093,25.5 34,25.5 Z" />
  <rect
     style="color:#000000;display:inline;overflow:visible;visibility:visible;opacity:0.4;fill:url(#radialGradient3343);fill-opacity:1;fill-rule:nonzero;stroke:none;stroke-width:1;marker:none;enable-background:accumulate"
     id="rect12723"
     y="25.500084"
     x="25.499123"
     ry="25"
     rx="25"
     height="17"
     width="17" />
  <path
     style="opacity:0.3;fill:none;stroke:#000000;stroke-width:1;stroke-miterlimit:4;stroke-dasharray:none;stroke-opacity:1"
     id="path8113"
     d="m 42.499116,34.003786 a 8.4999993,8.4992237 0 0 1 -16.999998,0 8.5,8.4992243 0 1 1 16.999998,0 z" />
  <rect
     style="color:#000000;display:inline;overflow:visible;visibility:visible;opacity:0.5;fill:url(#linearGradient3333);fill-opacity:1;fill-rule:nonzero;stroke:none;stroke-width:1;marker:none;enable-background:accumulate"
     id="rect12733"
     transform="rotate(90)"
     y="-37.999512"
     x="26.999952"
     ry="25"
     rx="25"
     height="8"
     width="7" />
</svg>
