<?xml version="1.0" encoding="UTF-8" standalone="no"?>
<svg
   xmlns:dc="http://purl.org/dc/elements/1.1/"
   xmlns:cc="http://creativecommons.org/ns#"
   xmlns:rdf="http://www.w3.org/1999/02/22-rdf-syntax-ns#"
   xmlns:svg="http://www.w3.org/2000/svg"
   xmlns="http://www.w3.org/2000/svg"
   xmlns:xlink="http://www.w3.org/1999/xlink"
   version="1.1"
   width="48"
   height="48"
   id="svg6649">
  <defs
     id="defs6651">
    <linearGradient
       id="linearGradient1201">
      <stop
         id="stop1193"
         style="stop-color:#ffffff;stop-opacity:1"
         offset="0" />
      <stop
         id="stop1195"
         style="stop-color:#ffffff;stop-opacity:0.23529412"
         offset="0.06781636" />
      <stop
         id="stop1197"
         style="stop-color:#ffffff;stop-opacity:0.15686275"
         offset="0.94694352" />
      <stop
         id="stop1199"
         style="stop-color:#ffffff;stop-opacity:0.39215687"
         offset="1" />
    </linearGradient>
    <linearGradient
       id="linearGradient3688-166-749">
      <stop
         id="stop2883"
         style="stop-color:#181818;stop-opacity:1"
         offset="0" />
      <stop
         id="stop2885"
         style="stop-color:#181818;stop-opacity:0"
         offset="1" />
    </linearGradient>
    <linearGradient
       id="linearGradient3702-501-757">
      <stop
         id="stop2895"
         style="stop-color:#181818;stop-opacity:0"
         offset="0" />
      <stop
         id="stop2897"
         style="stop-color:#181818;stop-opacity:1"
         offset="0.5" />
      <stop
         id="stop2899"
         style="stop-color:#181818;stop-opacity:0"
         offset="1" />
    </linearGradient>
    <radialGradient
       cx="4.9929786"
       cy="43.5"
       r="2.5"
       fx="4.9929786"
       fy="43.5"
       id="radialGradient3013-6"
       xlink:href="#linearGradient3688-166-749"
       gradientUnits="userSpaceOnUse"
       gradientTransform="matrix(2.003784,0,0,0.89999994,29.98813,4.8500025)" />
    <radialGradient
       cx="4.9929786"
       cy="43.5"
       r="2.5"
       fx="4.9929786"
       fy="43.5"
       id="radialGradient3015-1"
       xlink:href="#linearGradient3688-166-749"
       gradientUnits="userSpaceOnUse"
       gradientTransform="matrix(2.003784,0,0,0.89999994,-18.01187,-83.149997)" />
    <linearGradient
       xlink:href="#linearGradient883"
       id="linearGradient856-2"
       x1="23.528315"
       y1="6.08318"
       x2="23.528315"
       y2="44.23307"
       gradientUnits="userSpaceOnUse" />
    <linearGradient
       x1="38.999996"
       y1="5.9999938"
       x2="38.999996"
       y2="41.945408"
       id="linearGradient3058-5"
       xlink:href="#linearGradient1201"
       gradientUnits="userSpaceOnUse"
       gradientTransform="translate(4e-6,1.0000062)" />
    <linearGradient
       xlink:href="#linearGradient3702-501-757"
       id="linearGradient1191"
       gradientUnits="userSpaceOnUse"
       x1="25.058096"
       y1="47.027729"
       x2="25.058096"
       y2="39.999443"
       gradientTransform="matrix(1.1428571,0,0,0.6428571,-3.428569,16.035716)" />
    <linearGradient
       id="linearGradient883">
      <stop
         id="stop879"
         offset="0"
         style="stop-color:#ed5353;stop-opacity:1" />
      <stop
         id="stop881"
         offset="1"
         style="stop-color:#c6262e;stop-opacity:1" />
    </linearGradient>
  </defs>
  <metadata
     id="metadata6654">
    <rdf:RDF>
      <cc:Work
         rdf:about="">
        <dc:format>image/svg+xml</dc:format>
        <dc:type
           rdf:resource="http://purl.org/dc/dcmitype/StillImage" />
        <dc:title></dc:title>
      </cc:Work>
    </rdf:RDF>
  </metadata>
  <rect
     style="opacity:0.6;fill:url(#radialGradient3013-6);fill-opacity:1;stroke:none;stroke-width:0.862764"
     id="rect2801-3-7"
     y="41.75"
     x="40"
     height="4.4999995"
     width="5" />
  <rect
     style="opacity:0.6;fill:url(#radialGradient3015-1);fill-opacity:1;stroke:none;stroke-width:0.862764"
     id="rect3696-6-3"
     transform="scale(-1)"
     y="-46.25"
     x="-8"
     height="4.4999995"
     width="5" />
  <rect
     style="opacity:0.6;fill:url(#linearGradient1191);fill-opacity:1;stroke:none;stroke-width:0.862764"
     id="rect3700-4-6"
     y="41.75"
     x="8"
     height="4.5"
     width="32" />
  <rect
     style="color:#000000;display:inline;overflow:visible;visibility:visible;opacity:1;fill:url(#linearGradient856-2);fill-opacity:1;fill-rule:nonzero;stroke:#7a0000;stroke-width:1;stroke-opacity:0.5;marker:none;enable-background:accumulate"
     id="rect5505-21-1"
     y="5.4999952"
     x="4.5000153"
     ry="4"
     rx="4"
     height="39"
     width="39" />
  <path
     id="path1014-5-2"
     style="font-variation-settings:normal;opacity:0.15;vector-effect:none;fill:#7a0000;fill-opacity:0.50196081;stroke:none;stroke-width:0.999118;stroke-linecap:butt;stroke-linejoin:miter;stroke-miterlimit:4;stroke-dasharray:none;stroke-dashoffset:0;stroke-opacity:1;marker:none;stop-color:#000000;stop-opacity:1"
     d="m 22.302734,12.236328 c -0.55053,0.156421 -1.060346,0.462999 -1.484375,0.894531 -0.895092,0.910933 -1.148786,2.266142 -1.142578,4.013672 0.0059,1.671265 0.40502,3.655715 1.06836,5.425781 l 0.154297,0.41211 -0.06055,0.1875 c -0.381986,1.185365 -1.578696,3.731085 -2.699219,5.669922 -0.532145,0.920768 -0.789284,1.333352 -0.869141,1.419922 -0.07986,0.08657 -0.081,0.07055 -0.601562,0.28125 -2.964098,1.199712 -5.310338,2.685395 -6.41211,4.421875 -0.6058752,0.954989 -0.8527211,2.097494 -0.552734,3.177734 0.1062496,0.382608 0.2869298,0.648231 0.498047,0.898437 0.211117,0.250207 0.435134,0.474493 0.816406,0.640626 0.446248,0.194451 0.663995,0.179145 1.013672,0.18164 1.182978,0.0083 2.320699,-0.566357 3.460938,-1.513672 1.140238,-0.947315 2.316269,-2.301091 3.570312,-4.068359 0.181018,-0.2551 0.357933,-0.502548 0.496094,-0.691406 0.08677,-0.118617 0.09698,-0.131573 0.136718,-0.183594 0.06924,-0.0293 0.155722,-0.06596 0.28125,-0.111328 0.301334,-0.108911 0.725676,-0.246863 1.197266,-0.388672 0.943181,-0.283619 2.085698,-0.585589 2.869141,-0.746094 0.568679,-0.116507 2.15384,-0.386152 2.955078,-0.505859 l 0.6875,0.693359 c 1.727271,1.74401 3.193303,2.890153 4.681641,3.585938 0.926147,0.432968 1.675239,0.596615 2.535156,0.542968 1.845837,-0.115156 3.36825,-1.449624 3.496094,-3.236328 0.102295,-1.429694 -0.649374,-2.786443 -1.875,-3.689453 -0.638592,-0.470495 -1.222025,-0.760941 -2.080079,-1.039062 -1.508333,-0.488898 -3.165816,-0.718816 -5.076171,-0.72461 h -0.002 l -0.857422,-0.002 -0.164062,-0.189453 a 0.98086962,0.98086962 0 0 0 -0.002,0 c -0.982526,-1.118734 -1.668671,-2.011319 -2.4375,-3.164062 -0.336046,-0.503853 -0.625738,-0.968796 -0.820313,-1.3125 -0.0802,-0.141662 -0.131664,-0.24392 -0.173828,-0.330079 0.01365,-0.05994 0.02371,-0.109921 0.04297,-0.189453 0.06276,-0.259153 0.152539,-0.605168 0.25,-0.966797 0.448517,-1.664224 0.767218,-3.281345 0.984375,-4.988281 0.100167,-0.787359 0.153408,-1.337287 0.128906,-1.830078 -0.0245,-0.492791 -0.172384,-0.977224 -0.421875,-1.332031 -0.486072,-0.691254 -1.109596,-1.02676 -1.863281,-1.240235 -0.586792,-0.166204 -1.177985,-0.160327 -1.728516,-0.0039 z m 0.931641,14.830078 c 0.299902,0.426065 0.603271,0.840705 0.945313,1.285156 -0.529451,0.10125 -1.17459,0.250457 -1.785157,0.392579 0.268665,-0.516136 0.538338,-1.019611 0.839844,-1.677735 z m 10.298828,5.150391 c 0.09726,0.03346 0.329044,0.05108 0.386719,0.08008 0.28152,0.141542 0.328965,0.263963 0.457031,0.408203 -0.09022,-0.0092 -0.110402,0.011 -0.195312,-0.01953 -0.10309,-0.03706 -0.466497,-0.364419 -0.648438,-0.46875 z" />
  <rect
     style="opacity:0.35;fill:none;stroke:url(#linearGradient3058-5);stroke-width:1;stroke-linecap:round;stroke-linejoin:round;stroke-miterlimit:4;stroke-dasharray:none;stroke-dashoffset:0;stroke-opacity:1"
     id="rect6741-2"
     y="6.4999952"
     x="5.5000153"
     ry="3"
     rx="3"
     height="37"
     width="37" />
  <path
     style="font-variation-settings:normal;opacity:0.3;vector-effect:none;fill:#7a0000;fill-opacity:0.50196081;stroke:none;stroke-width:0.999118;stroke-linecap:butt;stroke-linejoin:miter;stroke-miterlimit:4;stroke-dasharray:none;stroke-dashoffset:0;stroke-opacity:1;marker:none;stop-color:#000000;stop-opacity:1"
     d="m 11.41101,38.78078 c -0.301144,-0.131218 -0.669807,-0.567371 -0.762886,-0.902551 -0.190702,-0.686709 -0.0076,-1.690486 0.435742,-2.389288 0.871029,-1.372811 3.098909,-2.884947 5.951636,-4.039582 1.002061,-0.405581 0.893192,-0.287365 1.952226,-2.119809 1.152784,-1.994658 2.349502,-4.514949 2.783084,-5.861171 l 0.164798,-0.511682 -0.273585,-0.73004 c -0.622208,-1.660311 -1.001225,-3.575275 -1.006589,-5.085734 -0.0058,-1.632489 0.278741,-2.728603 0.862529,-3.322722 0.539648,-0.549198 1.545136,-0.833452 2.24598,-0.634943 0.486539,0.137808 1.097162,0.534002 1.327182,0.861118 0.292542,0.416031 0.318496,0.937974 0.123045,2.474305 -0.211777,1.664646 -0.521293,3.232046 -0.958794,4.855396 -0.198858,0.737857 -0.361561,1.409936 -0.361561,1.493509 0,0.184108 0.499838,1.066202 1.193513,2.106269 0.78962,1.183917 1.513859,2.123577 2.517758,3.266647 l 0.457974,0.521463 1.301107,0.0038 c 1.834456,0.0054 3.380667,0.22444 4.775996,0.67671 0.808447,0.262042 1.220874,0.466859 1.801506,0.894652 1.009593,0.743842 1.553247,1.785037 1.478381,2.831375 -0.09439,1.319163 -1.110468,2.236873 -2.578025,2.32843 -0.75322,0.04699 -1.194046,-0.05031 -2.058243,-0.454317 -1.336532,-0.624817 -2.718678,-1.688585 -4.401034,-3.387246 l -1.038041,-1.048102 -0.316251,0.04528 c -0.779903,0.111664 -2.526017,0.410913 -3.182806,0.545471 -1.670471,0.342231 -4.604839,1.2238 -4.800641,1.442252 -0.06405,0.07145 -0.416779,0.553161 -0.783856,1.070463 -2.445463,3.446284 -4.533407,5.181065 -6.221526,5.1692 -0.224203,-0.0016 -0.507081,-0.04619 -0.628619,-0.09915 z m 1.519471,-1.966896 c 0.60831,-0.343298 1.348073,-0.98876 2.078509,-1.813556 0.951387,-1.074293 0.961923,-1.175898 0.06775,-0.653376 -1.501899,0.87766 -2.676104,1.990846 -2.676104,2.53704 0,0.216882 0.02783,0.2132 0.529842,-0.07011 z m 22.266285,-3.157509 c 0.912605,-0.38131 0.463924,-1.58359 -0.834639,-2.23648 C 33.45572,30.964172 31.138926,30.486783 30.151,30.552168 l -0.364182,0.0241 0.512432,0.502026 c 1.134352,1.111309 2.692477,2.221641 3.550548,2.530149 0.475649,0.171013 1.007127,0.189924 1.346968,0.04793 z M 21.931558,29.850098 c 0.696746,-0.176718 1.843303,-0.428999 2.547901,-0.560621 0.704595,-0.131623 1.307264,-0.261927 1.339262,-0.289565 0.03199,-0.02764 -0.151721,-0.310669 -0.408259,-0.628959 -0.650167,-0.806668 -1.42663,-1.862995 -1.878252,-2.555241 -0.210141,-0.322102 -0.415038,-0.58564 -0.455331,-0.58564 -0.04029,0 -0.295539,0.494133 -0.567214,1.098075 -0.585249,1.301025 -1.026825,2.182917 -1.536607,3.06884 -0.347432,0.60378 -0.422546,0.77442 -0.340889,0.77442 0.01791,0 0.60264,-0.144589 1.299389,-0.321309 z m 1.16719,-11.177242 c 0.108661,-0.540593 0.269559,-1.552991 0.357552,-2.249775 0.152824,-1.21021 0.154219,-1.273244 0.0312,-1.409195 -0.170823,-0.188753 -0.4202,-0.179961 -0.656317,0.02314 -0.478736,0.41179 -0.562968,2.550181 -0.170238,4.321743 0.04385,0.1978 0.113295,0.339299 0.159041,0.324051 0.04466,-0.01489 0.170109,-0.469371 0.278773,-1.009964 z"
     id="path1014-5" />
  <path
     style="font-variation-settings:normal;opacity:1;vector-effect:none;fill:#ffffff;fill-opacity:1;stroke:none;stroke-width:0.999999;stroke-linecap:butt;stroke-linejoin:miter;stroke-miterlimit:4;stroke-dasharray:none;stroke-dashoffset:0;stroke-opacity:1;marker:none;stop-color:#000000;stop-opacity:1"
     d="m 11.41101,37.780778 c -0.301144,-0.131218 -0.669807,-0.567371 -0.762886,-0.902551 -0.190702,-0.686709 -0.0076,-1.690486 0.435742,-2.389288 0.871029,-1.372811 3.098909,-2.884947 5.951636,-4.039582 1.002061,-0.405581 0.893192,-0.287365 1.952226,-2.119809 1.152784,-1.994658 2.349502,-4.514949 2.783084,-5.861171 l 0.164798,-0.511681 -0.273585,-0.73004 c -0.622208,-1.660311 -1.001225,-3.575275 -1.006589,-5.085734 -0.0058,-1.632489 0.278741,-2.728603 0.862529,-3.322722 0.539648,-0.549198 1.545136,-0.833452 2.24598,-0.634943 0.486539,0.137808 1.097162,0.534002 1.327182,0.861118 0.292542,0.416031 0.318496,0.937974 0.123045,2.474305 -0.211777,1.664646 -0.521293,3.232046 -0.958794,4.855396 -0.198858,0.737857 -0.361561,1.409936 -0.361561,1.493509 0,0.184108 0.499838,1.066201 1.193513,2.106268 0.78962,1.183917 1.513859,2.123577 2.517758,3.266647 l 0.457974,0.521463 1.301107,0.0038 c 1.834456,0.0054 3.380667,0.22444 4.775996,0.67671 0.808447,0.262042 1.220874,0.466859 1.801506,0.894652 1.009593,0.743842 1.553247,1.785037 1.478381,2.831375 -0.09439,1.319163 -1.110468,2.236873 -2.578025,2.32843 -0.75322,0.04699 -1.194046,-0.05031 -2.058243,-0.454317 -1.336532,-0.624817 -2.718678,-1.688585 -4.401034,-3.387246 l -1.038041,-1.048102 -0.316251,0.04528 c -0.779903,0.111664 -2.526017,0.410913 -3.182806,0.545471 -1.670471,0.342231 -4.604839,1.2238 -4.800641,1.442252 -0.06405,0.07145 -0.416779,0.553161 -0.783856,1.070463 -2.445463,3.446284 -4.533407,5.181065 -6.221526,5.1692 -0.224203,-0.0016 -0.507081,-0.04619 -0.628619,-0.09915 z m 1.519471,-1.966896 c 0.60831,-0.343298 1.348073,-0.98876 2.078509,-1.813556 0.951387,-1.074293 0.961923,-1.175898 0.06775,-0.653376 -1.501899,0.87766 -2.676104,1.990846 -2.676104,2.53704 0,0.216882 0.02783,0.2132 0.529842,-0.07011 z m 22.266285,-3.157509 c 0.912605,-0.38131 0.463924,-1.58359 -0.834639,-2.23648 C 33.45572,29.96417 31.138926,29.486781 30.151,29.552166 l -0.364182,0.0241 0.512432,0.502026 c 1.134352,1.111309 2.692477,2.221641 3.550548,2.530149 0.475649,0.171013 1.007127,0.189924 1.346968,0.04793 z M 21.931558,28.850096 c 0.696746,-0.176718 1.843303,-0.428999 2.547901,-0.560621 0.704595,-0.131623 1.307264,-0.261927 1.339262,-0.289565 0.03199,-0.02764 -0.151721,-0.310669 -0.408259,-0.628959 -0.650167,-0.806668 -1.42663,-1.862995 -1.878252,-2.555241 -0.210141,-0.322102 -0.415038,-0.58564 -0.455331,-0.58564 -0.04029,0 -0.295539,0.494133 -0.567214,1.098075 -0.585249,1.301025 -1.026825,2.182917 -1.536607,3.06884 -0.347432,0.60378 -0.422546,0.77442 -0.340889,0.77442 0.01791,0 0.60264,-0.144589 1.299389,-0.321309 z m 1.16719,-11.177241 c 0.108661,-0.540593 0.269559,-1.552991 0.357552,-2.249775 0.152824,-1.21021 0.154219,-1.273244 0.0312,-1.409195 -0.170823,-0.188753 -0.4202,-0.179961 -0.656317,0.02314 -0.478736,0.41179 -0.562968,2.550181 -0.170238,4.321743 0.04385,0.1978 0.113295,0.339299 0.159041,0.324051 0.04466,-0.01489 0.170109,-0.469371 0.278773,-1.009964 z"
     id="path1014" />
  <path
     id="path1014-8"
     style="font-variation-settings:normal;opacity:0.07;vector-effect:none;fill:#7a0000;fill-opacity:0.501961;stroke:none;stroke-width:0.999118;stroke-linecap:butt;stroke-linejoin:miter;stroke-miterlimit:4;stroke-dasharray:none;stroke-dashoffset:0;stroke-opacity:1;marker:none;stop-color:#000000;stop-opacity:1"
     d="m 23.234375,23.066406 c -0.301506,0.658124 -0.571179,1.161599 -0.839844,1.677735 0.151014,-0.03515 -1.93031,4.375029 -1.777339,4.339843 0.122675,-0.242775 2.436399,-4.853515 2.45898,-4.853515 0.02139,0 2.651699,3.624809 2.742013,3.742667 0.292447,-0.065 -1.893957,-3.57272 -1.638497,-3.621574 -0.342042,-0.444451 -0.645411,-0.859091 -0.945313,-1.285156 z m 3.763672,4.585938 c -0.336817,0.05032 -0.762056,0.132091 -1.242188,0.21289 0.03092,0.05631 0.073,0.125694 0.0625,0.134766 -0.032,0.02764 -0.635248,0.157439 -1.339843,0.289062 -0.704598,0.131622 -1.850129,0.383829 -2.546875,0.560547 -0.696749,0.17672 -1.280918,0.322266 -1.298829,0.322266 -0.02866,0 -0.03058,-0.03451 -0.01562,-0.08789 -0.22019,0.07108 -0.479315,0.150682 -0.640626,0.208985 -0.125528,0.04537 -0.212009,0.08203 -0.28125,0.111328 -0.03974,0.05202 -0.04995,0.06498 -0.136718,0.183594 -0.138161,0.188858 -0.315076,0.436306 -0.496094,0.691406 -1.254043,1.767268 -2.430074,3.121044 -3.570312,4.068359 -0.78531,0.652438 -1.570613,1.111595 -2.369141,1.341797 -0.06379,0.04058 -0.132093,0.09042 -0.193359,0.125 -0.502012,0.28331 -0.529297,0.287195 -0.529297,0.07031 0,-0.01272 0.0085,-0.02964 0.0098,-0.04297 -0.125941,0.01227 -0.251982,0.02042 -0.378906,0.01953 -0.349677,-0.0025 -0.567424,0.01281 -1.013672,-0.18164 -0.133005,-0.05795 -0.229218,-0.130432 -0.330078,-0.201172 -0.120647,0.492943 -0.150318,0.999764 -0.03906,1.40039 0.09308,0.33518 0.460574,0.771126 0.761718,0.902344 0.121538,0.05296 0.404704,0.09801 0.628906,0.09961 1.68812,0.01187 3.777194,-1.723638 6.222657,-5.169921 0.367077,-0.517303 0.719153,-0.998863 0.783203,-1.070313 0.195802,-0.218452 3.13031,-1.101128 4.800781,-1.443359 0.656789,-0.134558 2.403691,-0.433258 3.183594,-0.544922 l 0.314453,-0.04492 1.039062,1.048828 c 1.682357,1.698661 3.063859,2.761902 4.400391,3.386719 0.864197,0.404007 1.305374,0.500115 2.058594,0.453125 1.467557,-0.09156 2.483735,-1.008962 2.578125,-2.328125 0.0183,-0.255699 -0.0013,-0.510899 -0.05469,-0.761719 -0.490484,0.473475 -1.118237,0.816666 -1.824218,0.974609 -0.07907,0.110374 -0.183271,0.208339 -0.34375,0.275391 -0.339841,0.141994 -0.872008,0.124138 -1.347657,-0.04687 -0.223687,-0.08042 -0.497949,-0.221269 -0.796875,-0.396484 -0.220176,-0.07672 -0.446766,-0.169622 -0.685546,-0.28125 -1.488338,-0.695785 -2.95437,-1.841928 -4.681641,-3.585938 z m 6.667969,0.660156 c 0.189069,0.138484 0.433626,0.343569 0.515625,0.373047 0.08491,0.03053 0.105092,0.01033 0.195312,0.01953 -0.08405,-0.09466 -0.158162,-0.180137 -0.261719,-0.267578 -0.145638,-0.04686 -0.300128,-0.08318 -0.449218,-0.125 z" />
  <path
     id="path1014-9"
     style="font-variation-settings:normal;opacity:0.15;vector-effect:none;fill:#7a0000;fill-opacity:0.501961;stroke:none;stroke-width:0.999118;stroke-linecap:butt;stroke-linejoin:miter;stroke-miterlimit:4;stroke-dasharray:none;stroke-dashoffset:0;stroke-opacity:1;marker:none;stop-color:#000000;stop-opacity:1"
     d="m 23.183594,12.878906 c -0.113212,0.004 -0.233504,0.05665 -0.351563,0.158203 -0.306991,0.264062 -0.431775,1.256643 -0.392578,2.388672 0.05022,-0.676866 0.180764,-1.206478 0.392578,-1.388672 0.236117,-0.203101 0.485427,-0.21219 0.65625,-0.02344 0.0051,0.0056 0.007,0.0121 0.01172,0.01758 0.08226,-0.692567 0.08949,-0.905729 -0.01172,-1.017578 -0.08541,-0.09438 -0.191476,-0.138757 -0.304687,-0.134766 z m 2.121094,0.78711 c -0.02109,0.248293 -0.04714,0.517853 -0.08984,0.853515 -0.211777,1.664646 -0.521484,3.232119 -0.958985,4.855469 -0.198858,0.737857 -0.361328,1.408614 -0.361328,1.492188 0,0.05752 0.06216,0.201613 0.150391,0.378906 0.06627,-0.281914 0.09485,-0.440355 0.210937,-0.871094 0.437501,-1.62335 0.747208,-3.190823 0.958985,-4.855469 0.118007,-0.927593 0.143202,-1.465538 0.08984,-1.853515 z m -4.623047,1.90039 c -0.0087,0.190923 -0.02613,0.365899 -0.02539,0.574219 0.0054,1.510459 0.383651,3.425627 1.005859,5.085937 l 0.09961,0.267579 c 0.0023,-0.0072 0.0075,-0.01828 0.0098,-0.02539 l 0.164063,-0.511719 -0.273438,-0.730469 c -0.566976,-1.512929 -0.916069,-3.22307 -0.980468,-4.660156 z m 2.394531,7.664063 c -0.04029,0 -0.294731,0.493714 -0.566406,1.097656 -0.585249,1.301025 -1.027328,2.182436 -1.53711,3.068359 -0.347432,0.60378 -0.4215,0.775391 -0.339844,0.775391 0.0073,0 -0.181362,0.952762 -0.01562,0.912109 0.431774,-0.776881 1.382816,-2.622644 1.892578,-3.755859 0.271675,-0.603942 0.526116,-1.097656 0.566406,-1.097656 0.04029,0 0.244937,0.263835 0.455078,0.585937 0.410234,0.628806 1.678763,2.387105 2.286931,3.15673 0.19762,-0.04377 -0.01401,-0.960885 1.8e-4,-0.973136 0.03199,-0.02764 -0.151665,-0.310616 -0.408203,-0.628906 -0.650167,-0.806668 -1.427284,-1.862442 -1.878906,-2.554688 -0.210141,-0.322102 -0.414785,-0.585937 -0.455078,-0.585937 z m 7.074219,5.322265 -0.363282,0.02344 0.511719,0.501953 c 0.175523,0.171957 0.372802,0.338869 0.564453,0.507813 1.12929,0.09652 2.762185,0.464007 3.498047,0.833984 0.548877,0.275964 0.934045,0.650744 1.140625,1.019531 0.45127,-0.505061 -0.03067,-1.46147 -1.140625,-2.019531 -0.906407,-0.455723 -3.223011,-0.932573 -4.210937,-0.867188 z m -2.806641,0.05469 -0.314453,0.04492 c -0.779903,0.111664 -2.526805,0.410364 -3.183594,0.544922 -1.670471,0.342231 -4.604979,1.224907 -4.800781,1.443359 -0.06405,0.07145 -0.416126,0.553011 -0.783203,1.070313 -2.445463,3.446283 -4.534538,5.181786 -6.222657,5.169921 -0.224202,-0.0016 -0.507368,-0.04665 -0.628906,-0.09961 -0.301144,-0.131218 -0.668639,-0.567164 -0.761718,-0.902344 -0.01397,-0.05031 -0.01148,-0.112548 -0.02149,-0.166015 -0.07263,0.415434 -0.07193,0.829629 0.02149,1.166015 0.09308,0.33518 0.460574,0.771126 0.761718,0.902344 0.121538,0.05296 0.404704,0.09801 0.628906,0.09961 1.68812,0.01187 3.777194,-1.723638 6.222657,-5.169921 0.367077,-0.517303 0.719153,-0.998863 0.783203,-1.070313 0.195802,-0.218452 3.13031,-1.101128 4.800781,-1.443359 0.656789,-0.134558 2.403691,-0.433258 3.183594,-0.544922 l 0.314453,-0.04492 1.039062,1.048828 c 1.682357,1.698661 3.063859,2.761902 4.400391,3.386719 0.864197,0.404007 1.305374,0.500115 2.058594,0.453125 1.467557,-0.09156 2.483735,-1.008962 2.578125,-2.328125 0.01712,-0.239234 -0.0011,-0.477687 -0.04687,-0.712891 -0.213595,1.161078 -1.174642,1.956381 -2.53125,2.041016 -0.75322,0.04699 -1.194397,-0.04912 -2.058594,-0.453125 -1.336532,-0.624817 -2.718034,-1.688058 -4.400391,-3.386719 z m -11.644531,3.433594 c -0.07896,0.002 -0.287732,0.110695 -0.623047,0.30664 -1.501899,0.87766 -2.675781,1.990916 -2.675781,2.53711 0,0.216882 0.02728,0.212997 0.529297,-0.07031 C 13.537997,34.471155 14.27933,33.824796 15.009766,33 c 0.594616,-0.671433 0.821052,-0.962366 0.689453,-0.958984 z" />
</svg>
