<?xml version="1.0" encoding="UTF-8" standalone="no"?>
<!-- Created with Inkscape (http://www.inkscape.org/) -->

<svg
   xmlns:svg="http://www.w3.org/2000/svg"
   xmlns="http://www.w3.org/2000/svg"
   xmlns:xlink="http://www.w3.org/1999/xlink"
   version="1.1"
   width="48"
   height="48"
   id="svg2579">
  <defs
     id="defs2581">
    <linearGradient
       id="linearGradient6117">
      <stop
         id="stop6119"
         style="stop-color:black;stop-opacity:1"
         offset="0" />
      <stop
         id="stop6121"
         style="stop-color:black;stop-opacity:0"
         offset="1" />
    </linearGradient>
    <radialGradient
       cx="26.927441"
       cy="25.766438"
       r="19.161766"
       fx="26.927441"
       fy="25.766438"
       id="radialGradient3451"
       xlink:href="#linearGradient6117"
       gradientUnits="userSpaceOnUse" />
    <linearGradient
       id="linearGradient6091">
      <stop
         id="stop6093"
         style="stop-color:#888a85;stop-opacity:1"
         offset="0" />
      <stop
         id="stop6095"
         style="stop-color:#81837e;stop-opacity:0.98648649"
         offset="1" />
    </linearGradient>
    <linearGradient
       x1="10.602306"
       y1="35.894798"
       x2="47.001671"
       y2="35.690231"
       id="linearGradient3453"
       xlink:href="#linearGradient6091"
       gradientUnits="userSpaceOnUse" />
    <linearGradient
       id="linearGradient6105">
      <stop
         id="stop6107"
         style="stop-color:white;stop-opacity:0"
         offset="0" />
      <stop
         id="stop6113"
         style="stop-color:white;stop-opacity:1"
         offset="0.45209709" />
      <stop
         id="stop6109"
         style="stop-color:white;stop-opacity:0"
         offset="1" />
    </linearGradient>
    <linearGradient
       x1="15.551565"
       y1="41"
       x2="23.73423"
       y2="41"
       id="linearGradient2621"
       xlink:href="#linearGradient6105"
       gradientUnits="userSpaceOnUse"
       gradientTransform="translate(-2.7545076,-0.1836338)" />
    <linearGradient
       id="linearGradient6041">
      <stop
         id="stop6043"
         style="stop-color:#888a85;stop-opacity:1"
         offset="0" />
      <stop
         id="stop6045"
         style="stop-color:#2e3436;stop-opacity:1"
         offset="1" />
    </linearGradient>
    <radialGradient
       cx="29.922518"
       cy="32.704834"
       r="19.736389"
       fx="29.922518"
       fy="32.704834"
       id="radialGradient3457"
       xlink:href="#linearGradient6041"
       gradientUnits="userSpaceOnUse"
       gradientTransform="matrix(1.0244195,0,0,1.014266,-0.5092741,0.685707)" />
    <linearGradient
       id="linearGradient6296">
      <stop
         id="stop6298"
         style="stop-color:white;stop-opacity:1"
         offset="0" />
      <stop
         id="stop6300"
         style="stop-color:white;stop-opacity:0"
         offset="1" />
    </linearGradient>
    <linearGradient
       x1="34.825703"
       y1="42.345951"
       x2="28.763092"
       y2="32.737347"
       id="linearGradient2613"
       xlink:href="#linearGradient6296"
       gradientUnits="userSpaceOnUse"
       gradientTransform="translate(-2.7545076,-0.1836338)" />
    <linearGradient
       id="linearGradient6304">
      <stop
         id="stop6306"
         style="stop-color:#eeeeec;stop-opacity:1"
         offset="0" />
      <stop
         id="stop6308"
         style="stop-color:#80827d;stop-opacity:1"
         offset="1" />
    </linearGradient>
    <radialGradient
       cx="17.831682"
       cy="18.914896"
       r="19.736389"
       fx="17.831682"
       fy="18.914896"
       id="radialGradient2609"
       xlink:href="#linearGradient6304"
       gradientUnits="userSpaceOnUse"
       gradientTransform="matrix(0.4228001,0,0,0.3113668,9.6432324,19.361684)" />
    <linearGradient
       id="linearGradient7067">
      <stop
         id="stop7069"
         style="stop-color:#bbd4ea;stop-opacity:1"
         offset="0" />
      <stop
         id="stop7071"
         style="stop-color:#6a9ab8;stop-opacity:1"
         offset="1" />
    </linearGradient>
    <radialGradient
       cx="17.058823"
       cy="41.058823"
       r="5.7384715"
       fx="17.843975"
       fy="44.178165"
       id="radialGradient3420"
       xlink:href="#linearGradient7067"
       gradientUnits="userSpaceOnUse"
       gradientTransform="matrix(1,0,0,0.569469,0,17.67708)" />
    <linearGradient
       x1="16.574366"
       y1="37.638168"
       x2="18.514551"
       y2="46.079796"
       id="linearGradient2607"
       xlink:href="#linearGradient3686"
       gradientUnits="userSpaceOnUse" />
    <linearGradient
       id="linearGradient3668">
      <stop
         id="stop3670"
         style="stop-color:#bbd4ea;stop-opacity:1"
         offset="0" />
      <stop
         id="stop3672"
         style="stop-color:#6a92b8;stop-opacity:1"
         offset="1" />
    </linearGradient>
    <radialGradient
       cx="17.058823"
       cy="41.058823"
       r="5.7384715"
       fx="17.843975"
       fy="44.178165"
       id="radialGradient3425"
       xlink:href="#linearGradient3668"
       gradientUnits="userSpaceOnUse"
       gradientTransform="matrix(1,0,0,0.569469,0,17.67708)" />
    <linearGradient
       id="linearGradient3686">
      <stop
         id="stop3688"
         style="stop-color:white;stop-opacity:1"
         offset="0" />
      <stop
         id="stop3690"
         style="stop-color:white;stop-opacity:0"
         offset="1" />
    </linearGradient>
    <linearGradient
       x1="11.128633"
       y1="51.807358"
       x2="12.458002"
       y2="61.909195"
       id="linearGradient2605"
       xlink:href="#linearGradient3686"
       gradientUnits="userSpaceOnUse"
       gradientTransform="scale(1.3693064,0.7302968)" />
    <linearGradient
       id="linearGradient2372">
      <stop
         id="stop2374"
         style="stop-color:white;stop-opacity:1"
         offset="0" />
      <stop
         id="stop2376"
         style="stop-color:white;stop-opacity:0"
         offset="1" />
    </linearGradient>
    <linearGradient
       x1="28.739122"
       y1="144.11652"
       x2="26.256771"
       y2="125.39074"
       id="linearGradient2603"
       xlink:href="#linearGradient2372"
       gradientUnits="userSpaceOnUse"
       gradientTransform="matrix(0.3228678,0,0,0.3243297,18.664992,-36.317097)" />
  </defs>
  <g
     id="layer1">
    <path
       d="m 46.089207,25.766438 a 19.161766,19.161766 0 1 1 -38.3235324,0 19.161766,19.161766 0 1 1 38.3235324,0 z"
       transform="matrix(1.0959323,0,0,0.8089025,-8.2651612,11.473831)"
       id="path6115"
       style="opacity:0.78165935;fill:url(#radialGradient3451);fill-opacity:1;fill-rule:evenodd;stroke:none;stroke-width:1.06208694;marker:none;visibility:visible;display:inline;overflow:visible;enable-background:accumulate" />
    <path
       d="m 46.089207,25.766438 a 19.161766,19.161766 0 1 1 -38.3235324,0 19.161766,19.161766 0 1 1 38.3235324,0 z"
       transform="matrix(0.5479662,0,0,0.3392172,6.4901656,29.075948)"
       id="path6051"
       style="fill:url(#linearGradient3453);fill-opacity:1;fill-rule:evenodd;stroke:#2e3436;stroke-width:2.31944561;stroke-linecap:round;stroke-linejoin:miter;stroke-miterlimit:4;stroke-opacity:1;stroke-dasharray:none;stroke-dashoffset:0;marker:none;visibility:visible;display:inline;overflow:visible;enable-background:accumulate" />
    <path
       d="m 46.089207,25.766438 a 19.161766,19.161766 0 1 1 -38.3235324,0 19.161766,19.161766 0 1 1 38.3235324,0 z"
       transform="matrix(0.4957789,0,0,0.2870299,7.8954354,30.420627)"
       id="path6099"
       style="fill:none;stroke:white;stroke-width:2.6508944;stroke-linecap:round;stroke-linejoin:miter;stroke-miterlimit:4;stroke-opacity:0.35585584;stroke-dasharray:none;stroke-dashoffset:0;marker:none;visibility:visible;display:inline;overflow:visible;enable-background:accumulate" />
    <path
       d="m 11.813706,39.816366 c 0,0 2.431786,4 9.431786,4 l 0,-6 -9.409006,0 -0.02278,2 z"
       id="path6103"
       style="opacity:0.56768559;fill:url(#linearGradient2621);fill-opacity:1;fill-rule:evenodd;stroke:none;display:inline" />
    <path
       d="m 46.089207,25.766438 a 19.161766,19.161766 0 1 1 -38.3235324,0 19.161766,19.161766 0 1 1 38.3235324,0 z"
       transform="matrix(1.0176515,0,0,0.8871834,-6.1572584,1.4568108)"
       id="path6216"
       style="fill:#555753;fill-opacity:1;fill-rule:evenodd;stroke:#2e3436;stroke-width:1.05243134;stroke-linecap:round;stroke-linejoin:miter;stroke-miterlimit:4;stroke-opacity:1;stroke-dasharray:none;stroke-dashoffset:0;marker:none;visibility:visible;display:inline;overflow:visible;enable-background:accumulate" />
    <path
       d="m 46.089207,25.766438 a 19.161766,19.161766 0 1 1 -38.3235324,0 19.161766,19.161766 0 1 1 38.3235324,0 z"
       transform="matrix(1.0176515,0,0,0.8871834,-6.1572584,0.4568121)"
       id="path6011"
       style="fill:#555753;fill-opacity:1;fill-rule:evenodd;stroke:#2e3436;stroke-width:1.05243134;stroke-linecap:round;stroke-linejoin:miter;stroke-miterlimit:4;stroke-opacity:1;stroke-dasharray:none;stroke-dashoffset:0;marker:none;visibility:visible;display:inline;overflow:visible;enable-background:accumulate" />
    <path
       d="m 46.089207,25.766438 a 19.161766,19.161766 0 1 1 -38.3235324,0 19.161766,19.161766 0 1 1 38.3235324,0 z"
       transform="matrix(0.9230621,0,0,0.8089025,-3.4227077,2.9738306)"
       id="path6013"
       style="fill:url(#radialGradient3457);fill-opacity:1;fill-rule:evenodd;stroke:#2e3436;stroke-width:1.15727472;stroke-linecap:round;stroke-linejoin:miter;stroke-miterlimit:4;stroke-opacity:1;stroke-dasharray:none;stroke-dashoffset:0;marker:none;visibility:visible;display:inline;overflow:visible;enable-background:accumulate" />
    <path
       d="m 19.828288,17.854717 a 0.449912,0.72862085 0 1 1 -0.899824,0 0.449912,0.72862085 0 1 1 0.899824,0 z"
       transform="matrix(2.2226587,0,0,1.3724571,-21.332175,10.311533)"
       id="path6089"
       style="fill:white;fill-opacity:0.37387384;fill-rule:evenodd;stroke:none;stroke-width:0.57255107;marker:none;visibility:visible;display:inline;overflow:visible;enable-background:accumulate" />
    <path
       d="m 46.089207,25.766438 a 19.161766,19.161766 0 1 1 -38.3235324,0 19.161766,19.161766 0 1 1 38.3235324,0 z"
       transform="matrix(0.9632898,0,0,0.8349961,-4.735103,1.8014912)"
       id="path6015"
       style="fill:none;stroke:white;stroke-width:1.11501133;stroke-linecap:round;stroke-linejoin:miter;stroke-miterlimit:4;stroke-opacity:0.27477477;stroke-dasharray:none;stroke-dashoffset:0;marker:none;visibility:visible;display:inline;overflow:visible;enable-background:accumulate" />
    <path
       d="m 14.279663,38.815551 c 4.370294,2.255137 21.03988,1.981742 24.965829,-10.999185 0,0 -5.636347,14.203426 -24.965829,10.999185 z"
       id="path6039"
       style="fill:url(#linearGradient2613);fill-opacity:1;fill-rule:evenodd;stroke:none;display:inline" />
    <path
       d="m 28.469316,28.468733 c 0,2.484 -3.29488,4.847635 -6.882881,4.847635 -3.588,0 -5.840945,-2.016001 -5.840945,-4.500001 0,-2.484001 2.912001,-5.500001 6.500001,-5.500001 3.588001,0 6.223825,2.668366 6.223825,5.152367 z"
       id="path6055"
       style="fill:none;stroke:white;stroke-width:1;stroke-linecap:round;stroke-linejoin:miter;stroke-miterlimit:4;stroke-opacity:0.26576574;stroke-dasharray:none;stroke-dashoffset:0;marker:none;visibility:visible;display:inline;overflow:visible;enable-background:accumulate" />
    <path
       d="m 19.828288,17.854717 a 0.449912,0.72862085 0 1 1 -0.899824,0 0.449912,0.72862085 0 1 1 0.899824,0 z"
       transform="matrix(2.2226587,0,0,1.3724571,-24.332175,10.311533)"
       id="path6087"
       style="fill:white;fill-opacity:0.37387384;fill-rule:evenodd;stroke:none;stroke-width:0.57255107;marker:none;visibility:visible;display:inline;overflow:visible;enable-background:accumulate" />
    <path
       d="m 19.828288,17.854717 a 0.449912,0.72862085 0 1 1 -0.899824,0 0.449912,0.72862085 0 1 1 0.899824,0 z"
       transform="matrix(1.1113294,0,0,1.3724571,-2.296417,11.311533)"
       id="path6083"
       style="fill:#2e3436;fill-opacity:1;fill-rule:evenodd;stroke:none;stroke-width:0.80970943;marker:none;visibility:visible;display:inline;overflow:visible;enable-background:accumulate" />
    <path
       d="m 19.828288,17.854717 a 0.449912,0.72862085 0 1 1 -0.899824,0 0.449912,0.72862085 0 1 1 0.899824,0 z"
       transform="matrix(1.1113294,0,0,1.3724571,0.703583,11.311533)"
       id="path6085"
       style="fill:#2e3436;fill-opacity:1;fill-rule:evenodd;stroke:none;stroke-width:0.80970943;marker:none;visibility:visible;display:inline;overflow:visible;enable-background:accumulate" />
    <g
       id="g2589"
       style="display:inline">
      <path
         d="m 27.745492,27.816367 c 0,2.484 -2.912,4.500001 -6.500001,4.500001 -3.588,0 -6.500001,-2.016001 -6.500001,-4.500001 0,-2.484001 2.912001,-5.500001 6.500001,-5.500001 3.588001,0 6.500001,3.016 6.500001,5.500001 z"
         id="path6047"
         style="fill:url(#radialGradient2609);fill-opacity:1;fill-rule:evenodd;stroke:#2e3436;stroke-width:1;stroke-linecap:round;stroke-linejoin:miter;stroke-miterlimit:4;stroke-opacity:1;stroke-dasharray:none;stroke-dashoffset:0;marker:none;visibility:visible;display:inline;overflow:visible;enable-background:accumulate" />
      <path
         d="m 46.089207,25.766438 a 19.161766,19.161766 0 1 1 -38.3235324,0 19.161766,19.161766 0 1 1 38.3235324,0 z"
         transform="matrix(0.1043744,0,0,0.07828089,16.434954,25.299346)"
         id="path6208"
         style="fill:#eee;fill-opacity:1;fill-rule:evenodd;stroke:none;stroke-width:11.06305599;marker:none;visibility:visible;display:inline;overflow:visible;enable-background:accumulate" />
    </g>
    <path
       d="m 45.03607,1.3520958 c -6.23825,0.9724708 -11.98269,1.936536 -18.22015,2.9142607 -1.10932,0.4650859 -0.82631,1.912039 -0.85698,2.9083893 0,6.8335642 0,13.6671252 0,20.5006892 -4.71532,-1.396887 -9.765187,2.480299 -9.160867,6.890429 0.40565,2.768324 3.48249,4.136591 5.90391,3.46288 3.03761,-0.623134 5.486064,-3.353384 5.486064,-6.923641 0,-6.484418 -0.100964,-12.968833 -0.100964,-19.45325 4.8209,-0.675596 11.029433,-1.7041753 15.850343,-2.3797713 0,5.1200903 0,10.7696543 0,15.8897423 -5.15305,-1.767455 -9.506836,2.149063 -9.147806,6.474426 0.21825,2.648987 2.98907,4.230678 5.35579,3.802682 3.29151,-0.365086 6.31486,-3.496741 5.96933,-7.059105 C 46.10156,19.789371 46.13882,11.192044 46.10055,2.6050131 46.00328,2.0080146 45.68925,1.3831634 45.03607,1.3520958 z"
       id="path2706"
       style="fill:#6a9ab8;fill-opacity:1;stroke:#2f5371;stroke-width:1.79999995;stroke-linecap:round;stroke-linejoin:round;stroke-miterlimit:4;stroke-opacity:1;stroke-dasharray:none;display:inline" />
    <path
       d="m 45.02816,1.2306592 -17.861699,2.899685 c -0.60218,0 -1.07198,0.607185 -1.07198,1.363069 L 26.027172,29.551487 C 17.914965,30.582789 25.224654,35.219489 28,32.189712 l 0,-20.697137 16.07177,-2.5322453 0,17.7198173 c -0.76155,-0.254491 -2.65986,-0.0832 -3.61401,0.05731 -2.78888,0.410721 -5.04959,2.519492 -5.04959,4.741088 0,2.221606 2.26071,3.699853 5.04959,3.289129 2.72695,-0.401601 4.95214,-2.454781 5.0496,-4.622559 l 0.31031,0 c 0.18758,0 0.33851,-0.158546 0.33851,-0.355582 l 0,-20.9496823 0,-1.274166 0,-4.7213933 c 0,-0.7558826 -0.52584,-1.6136372 -1.12802,-1.6136372 z"
       id="path2708"
       style="fill:#6a9ab8;fill-opacity:1;stroke:none;display:inline" />
    <path
       d="m 22.35294,41.058823 a 5.2941175,2.8235295 0 1 1 -10.588235,0 5.2941175,2.8235295 0 1 1 10.588235,0 z"
       transform="matrix(1.0727934,-0.1827082,0,1.8530462,4.0394252,-40.226049)"
       id="path2712"
       style="fill:url(#radialGradient3420);fill-opacity:1;stroke:none;display:inline" />
    <path
       d="m 22.35294,41.058823 a 5.2941175,2.8235295 0 1 1 -10.588235,0 5.2941175,2.8235295 0 1 1 10.588235,0 z"
       transform="matrix(0.7802126,-0.1389205,0,0.8945915,8.5141742,-2.9798572)"
       id="path2714"
       style="fill:url(#linearGradient2607);fill-opacity:1;stroke:none;display:inline" />
    <path
       d="m 22.35294,41.058823 a 5.2941175,2.8235295 0 1 1 -10.588235,0 5.2941175,2.8235295 0 1 1 10.588235,0 z"
       transform="matrix(1.0727934,-0.1827082,0,1.8530462,22.16637,-42.886856)"
       id="path2716"
       style="fill:url(#radialGradient3425);fill-opacity:1;stroke:none;display:inline" />
    <path
       d="m 22.35294,41.058823 a 5.2941175,2.8235295 0 1 1 -10.588235,0 5.2941175,2.8235295 0 1 1 10.588235,0 z"
       transform="matrix(0.7802126,-0.1389205,0,0.8945915,26.64112,-5.6406597)"
       id="path2718"
       style="fill:url(#linearGradient2605);fill-opacity:1;stroke:none;display:inline" />
    <path
       d="m 26.025945,28.15656 0.0053,-22.3195873 c 0,0 0.30854,-1.4166206 1.2871,-1.6284454 0.39464,-0.068128 17.66817,-2.9619261 17.66817,-2.9619261 0,0 -1.61002,4.2157775 -9.29278,5.3150933 -5.49333,0.7890592 -8.609804,1.0094347 -8.591244,4.3045505 0.01843,3.329104 -0.151999,5.9111 -0.151999,18.033047 0,0.08673 -0.467247,-0.537524 -0.924554,-0.742732 z"
       id="path2720"
       style="opacity:0.4;fill:url(#linearGradient2603);fill-opacity:1;fill-rule:evenodd;stroke:none;display:inline" />
    <path
       d="M 44.04318,25.47493 44.08621,8.9530927 c 0.45348,-0.081361 0.238347,-0.181835 0.849847,-0.303681 C 44.944437,11.735524 45,14.404641 45,26.060065 c 0,0.08673 -0.48528,-0.465322 -0.95682,-0.585135 z"
       id="path3996"
       style="opacity:0.4;fill:white;fill-opacity:1;fill-rule:evenodd;stroke:none;display:inline" />
  </g>
</svg>
