<?xml version="1.0" encoding="UTF-8" standalone="no"?>
<!-- Created with Inkscape (http://www.inkscape.org/) -->
<svg
   xmlns:dc="http://purl.org/dc/elements/1.1/"
   xmlns:cc="http://creativecommons.org/ns#"
   xmlns:rdf="http://www.w3.org/1999/02/22-rdf-syntax-ns#"
   xmlns:svg="http://www.w3.org/2000/svg"
   xmlns="http://www.w3.org/2000/svg"
   xmlns:xlink="http://www.w3.org/1999/xlink"
   xmlns:sodipodi="http://sodipodi.sourceforge.net/DTD/sodipodi-0.dtd"
   xmlns:inkscape="http://www.inkscape.org/namespaces/inkscape"
   width="48px"
   height="48px"
   id="svg4211"
   sodipodi:version="0.32"
   inkscape:version="0.46"
   sodipodi:docname="preferences-desktop-theme.svg"
   inkscape:output_extension="org.inkscape.output.svg.inkscape">
  <defs
     id="defs4213">
    <linearGradient
       id="linearGradient3191">
      <stop
         id="stop3193"
         offset="0"
         style="stop-color:#b0a647;stop-opacity:1;" />
      <stop
         id="stop3195"
         offset="1"
         style="stop-color:#a29836;stop-opacity:1;" />
    </linearGradient>
    <linearGradient
       inkscape:collect="always"
       xlink:href="#linearGradient3191"
       id="linearGradient4209"
       gradientUnits="userSpaceOnUse"
       gradientTransform="matrix(0.8962025,0,0,0.895097,6.3838665,7.2725018)"
       x1="5.5178981"
       y1="37.371799"
       x2="9.5220556"
       y2="41.391716" />
    <linearGradient
       id="linearGradient3290">
      <stop
         id="stop3292"
         offset="0"
         style="stop-color:#e4db7b;stop-opacity:1;" />
      <stop
         id="stop3294"
         offset="1"
         style="stop-color:#f4f0c8;stop-opacity:1;" />
    </linearGradient>
    <linearGradient
       inkscape:collect="always"
       xlink:href="#linearGradient3290"
       id="linearGradient4207"
       gradientUnits="userSpaceOnUse"
       gradientTransform="matrix(1.0666251,-1.0714202,1.3182293,1.3110804,-31.053059,14.688284)"
       x1="9"
       y1="29.056757"
       x2="9"
       y2="26.02973" />
    <linearGradient
       inkscape:collect="always"
       xlink:href="#linearGradient3223"
       id="linearGradient4205"
       gradientUnits="userSpaceOnUse"
       gradientTransform="matrix(1.0666251,-1.07142,1.3182293,1.3110802,-28.825289,12.450501)"
       x1="30.037716"
       y1="24.989594"
       x2="30.037716"
       y2="30.000141" />
    <linearGradient
       inkscape:collect="always"
       xlink:href="#linearGradient3240"
       id="linearGradient4203"
       gradientUnits="userSpaceOnUse"
       gradientTransform="matrix(1.0666251,-1.07142,1.3182293,1.3110802,-28.519821,12.143661)"
       x1="30.037716"
       y1="24.989594"
       x2="30.037716"
       y2="30.000141" />
    <linearGradient
       inkscape:collect="always"
       xlink:href="#linearGradient3223"
       id="linearGradient4201"
       gradientUnits="userSpaceOnUse"
       gradientTransform="matrix(1.0666251,-1.07142,1.3182293,1.3110802,-29.891913,13.521921)"
       x1="30.037716"
       y1="24.989594"
       x2="30.037716"
       y2="30.000141" />
    <linearGradient
       inkscape:collect="always"
       xlink:href="#linearGradient3240"
       id="linearGradient4199"
       gradientUnits="userSpaceOnUse"
       gradientTransform="matrix(1.0666251,-1.07142,1.3182293,1.3110802,-29.586446,13.215081)"
       x1="30.037716"
       y1="24.989594"
       x2="30.037716"
       y2="30.000141" />
    <linearGradient
       id="linearGradient3223">
      <stop
         id="stop3225"
         offset="0"
         style="stop-color:#999999;stop-opacity:1;" />
      <stop
         style="stop-color:#ffffff;stop-opacity:1;"
         offset="0.5"
         id="stop3231" />
      <stop
         id="stop3227"
         offset="1"
         style="stop-color:#777777;stop-opacity:1;" />
    </linearGradient>
    <linearGradient
       inkscape:collect="always"
       xlink:href="#linearGradient3223"
       id="linearGradient4197"
       gradientUnits="userSpaceOnUse"
       gradientTransform="matrix(1.0666251,-1.07142,1.3182293,1.3110802,-30.953407,14.588189)"
       x1="30.037716"
       y1="24.989594"
       x2="30.037716"
       y2="30.000141" />
    <linearGradient
       id="linearGradient3240">
      <stop
         style="stop-color:#3e3e3e;stop-opacity:1;"
         offset="0"
         id="stop3242" />
      <stop
         id="stop3244"
         offset="0.5"
         style="stop-color:#828282;stop-opacity:1;" />
      <stop
         style="stop-color:#3c3c3c;stop-opacity:1;"
         offset="1"
         id="stop3246" />
    </linearGradient>
    <linearGradient
       inkscape:collect="always"
       xlink:href="#linearGradient3240"
       id="linearGradient4195"
       gradientUnits="userSpaceOnUse"
       gradientTransform="matrix(1.0666251,-1.07142,1.3182293,1.3110802,-30.64794,14.281347)"
       x1="30.037716"
       y1="24.989594"
       x2="30.037716"
       y2="30.000141" />
    <linearGradient
       id="linearGradient3155">
      <stop
         id="stop3157"
         offset="0"
         style="stop-color:#000000;stop-opacity:1;" />
      <stop
         style="stop-color:#c3c3c3;stop-opacity:1;"
         offset="0.13482948"
         id="stop3171" />
      <stop
         id="stop3173"
         offset="0.20224422"
         style="stop-color:#8c8c8c;stop-opacity:1;" />
      <stop
         style="stop-color:#ffffff;stop-opacity:1;"
         offset="0.26965895"
         id="stop3163" />
      <stop
         id="stop3165"
         offset="0.44650277"
         style="stop-color:#757575;stop-opacity:1;" />
      <stop
         style="stop-color:#7d7d7d;stop-opacity:1;"
         offset="0.57114136"
         id="stop3167" />
      <stop
         id="stop3169"
         offset="0.72038066"
         style="stop-color:#b6b6b6;stop-opacity:1;" />
      <stop
         id="stop3159"
         offset="1"
         style="stop-color:#000000;stop-opacity:1;" />
    </linearGradient>
    <linearGradient
       inkscape:collect="always"
       xlink:href="#linearGradient3155"
       id="linearGradient4193"
       gradientUnits="userSpaceOnUse"
       gradientTransform="matrix(1.0976542,-1.1025887,1.1263856,1.1202772,-27.026185,19.524468)"
       spreadMethod="pad"
       x1="23.575972"
       y1="25.356892"
       x2="23.575972"
       y2="31.210939" />
    <inkscape:perspective
       sodipodi:type="inkscape:persp3d"
       inkscape:vp_x="0 : 24 : 1"
       inkscape:vp_y="0 : 1000 : 0"
       inkscape:vp_z="48 : 24 : 1"
       inkscape:persp3d-origin="24 : 16 : 1"
       id="perspective4219" />
  </defs>
  <sodipodi:namedview
     id="base"
     pagecolor="#ffffff"
     bordercolor="#666666"
     borderopacity="1.0"
     inkscape:pageopacity="0.0"
     inkscape:pageshadow="2"
     inkscape:zoom="7"
     inkscape:cx="24"
     inkscape:cy="24"
     inkscape:current-layer="layer1"
     showgrid="true"
     inkscape:grid-bbox="true"
     inkscape:document-units="px"
     inkscape:window-width="640"
     inkscape:window-height="679"
     inkscape:window-x="530"
     inkscape:window-y="88" />
  <metadata
     id="metadata4216">
    <rdf:RDF>
      <cc:Work
         rdf:about="">
        <dc:format>image/svg+xml</dc:format>
        <dc:type
           rdf:resource="http://purl.org/dc/dcmitype/StillImage" />
      </cc:Work>
    </rdf:RDF>
  </metadata>
  <g
     id="layer1"
     inkscape:label="Layer 1"
     inkscape:groupmode="layer">
    <g
       id="g4169"
       transform="translate(3.2919802e-8,-3)">
      <g
         transform="translate(48.285714,0)"
         id="g4127">
        <path
           sodipodi:type="arc"
           style="opacity:1;fill:#ff0000;fill-opacity:0.70196078;fill-rule:nonzero;stroke:none;stroke-width:1;stroke-linecap:square;stroke-linejoin:miter;marker:none;marker-start:none;marker-mid:none;marker-end:none;stroke-miterlimit:4;stroke-dasharray:none;stroke-dashoffset:0;stroke-opacity:1;visibility:visible;display:inline;overflow:visible;enable-background:accumulate"
           id="path2964"
           sodipodi:cx="-5.7142859"
           sodipodi:cy="34"
           sodipodi:rx="3.7142856"
           sodipodi:ry="3.7142856"
           d="M -2.0000002,34 A 3.7142856,3.7142856 0 1 1 -9.4285715,34 A 3.7142856,3.7142856 0 1 1 -2.0000002,34 z"
           transform="matrix(1.0384615,0,0,1.0384615,0.2197802,-1.3076923)" />
        <path
           sodipodi:type="arc"
           style="opacity:1;fill:#cc0099;fill-opacity:0.70196078;fill-rule:nonzero;stroke:none;stroke-width:1;stroke-linecap:square;stroke-linejoin:miter;marker:none;marker-start:none;marker-mid:none;marker-end:none;stroke-miterlimit:4;stroke-dasharray:none;stroke-dashoffset:0;stroke-opacity:1;visibility:visible;display:inline;overflow:visible;enable-background:accumulate"
           id="path4113"
           sodipodi:cx="-5.7142859"
           sodipodi:cy="34"
           sodipodi:rx="3.7142856"
           sodipodi:ry="3.7142856"
           d="M -2.0000002,34 A 3.7142856,3.7142856 0 1 1 -9.4285715,34 A 3.7142856,3.7142856 0 1 1 -2.0000002,34 z"
           transform="matrix(1.0384615,0,0,1.0384615,0.2197802,-11.307692)" />
        <path
           sodipodi:type="arc"
           style="opacity:1;fill:#924ab4;fill-opacity:1;fill-rule:nonzero;stroke:none;stroke-width:1;stroke-linecap:square;stroke-linejoin:miter;marker:none;marker-start:none;marker-mid:none;marker-end:none;stroke-miterlimit:4;stroke-dasharray:none;stroke-dashoffset:0;stroke-opacity:1;visibility:visible;display:inline;overflow:visible;enable-background:accumulate"
           id="path4115"
           sodipodi:cx="-5.7142859"
           sodipodi:cy="34"
           sodipodi:rx="3.7142856"
           sodipodi:ry="3.7142856"
           d="M -2.0000002,34 A 3.7142856,3.7142856 0 1 1 -9.4285715,34 A 3.7142856,3.7142856 0 1 1 -2.0000002,34 z"
           transform="matrix(1.0384615,0,0,1.0384615,-4.78022,-20.021977)" />
        <path
           sodipodi:type="arc"
           style="opacity:1;fill:#6c48b3;fill-opacity:1;fill-rule:nonzero;stroke:none;stroke-width:1;stroke-linecap:square;stroke-linejoin:miter;marker:none;marker-start:none;marker-mid:none;marker-end:none;stroke-miterlimit:4;stroke-dasharray:none;stroke-dashoffset:0;stroke-opacity:1;visibility:visible;display:inline;overflow:visible;enable-background:accumulate"
           id="path4117"
           sodipodi:cx="-5.7142859"
           sodipodi:cy="34"
           sodipodi:rx="3.7142856"
           sodipodi:ry="3.7142856"
           d="M -2.0000002,34 A 3.7142856,3.7142856 0 1 1 -9.4285715,34 A 3.7142856,3.7142856 0 1 1 -2.0000002,34 z"
           transform="matrix(1.0384615,0,0,1.0384615,-13.208791,-25.021976)" />
        <path
           sodipodi:type="arc"
           style="opacity:1;fill:#476bd7;fill-opacity:1;fill-rule:nonzero;stroke:none;stroke-width:1;stroke-linecap:square;stroke-linejoin:miter;marker:none;marker-start:none;marker-mid:none;marker-end:none;stroke-miterlimit:4;stroke-dasharray:none;stroke-dashoffset:0;stroke-opacity:1;visibility:visible;display:inline;overflow:visible;enable-background:accumulate"
           id="path4119"
           sodipodi:cx="-5.7142859"
           sodipodi:cy="34"
           sodipodi:rx="3.7142856"
           sodipodi:ry="3.7142856"
           d="M -2.0000002,34 A 3.7142856,3.7142856 0 1 1 -9.4285715,34 A 3.7142856,3.7142856 0 1 1 -2.0000002,34 z"
           transform="matrix(1.0384615,0,0,1.0384615,-23.208791,-25.021976)" />
        <path
           sodipodi:type="arc"
           style="opacity:1;fill:#47b1b1;fill-opacity:1;fill-rule:nonzero;stroke:none;stroke-width:1;stroke-linecap:square;stroke-linejoin:miter;marker:none;marker-start:none;marker-mid:none;marker-end:none;stroke-miterlimit:4;stroke-dasharray:none;stroke-dashoffset:0;stroke-opacity:1;visibility:visible;display:inline;overflow:visible;enable-background:accumulate"
           id="path4121"
           sodipodi:cx="-5.7142859"
           sodipodi:cy="34"
           sodipodi:rx="3.7142856"
           sodipodi:ry="3.7142856"
           d="M -2.0000002,34 A 3.7142856,3.7142856 0 1 1 -9.4285715,34 A 3.7142856,3.7142856 0 1 1 -2.0000002,34 z"
           transform="matrix(1.0384615,0,0,1.0384615,-31.637363,-20.164834)" />
        <path
           sodipodi:type="arc"
           style="opacity:1;fill:#00cc00;fill-opacity:0.70196078;fill-rule:nonzero;stroke:none;stroke-width:1;stroke-linecap:square;stroke-linejoin:miter;marker:none;marker-start:none;marker-mid:none;marker-end:none;stroke-miterlimit:4;stroke-dasharray:none;stroke-dashoffset:0;stroke-opacity:1;visibility:visible;display:inline;overflow:visible;enable-background:accumulate"
           id="path4123"
           sodipodi:cx="-5.7142859"
           sodipodi:cy="34"
           sodipodi:rx="3.7142856"
           sodipodi:ry="3.7142856"
           d="M -2.0000002,34 A 3.7142856,3.7142856 0 1 1 -9.4285715,34 A 3.7142856,3.7142856 0 1 1 -2.0000002,34 z"
           transform="matrix(1.0384615,0,0,1.0384615,-36.637363,-11.593405)" />
        <path
           sodipodi:type="arc"
           style="opacity:1;fill:#99ff00;fill-opacity:0.70196078;fill-rule:nonzero;stroke:none;stroke-width:1;stroke-linecap:square;stroke-linejoin:miter;marker:none;marker-start:none;marker-mid:none;marker-end:none;stroke-miterlimit:4;stroke-dasharray:none;stroke-dashoffset:0;stroke-opacity:1;visibility:visible;display:inline;overflow:visible;enable-background:accumulate"
           id="path4125"
           sodipodi:cx="-5.7142859"
           sodipodi:cy="34"
           sodipodi:rx="3.7142856"
           sodipodi:ry="3.7142856"
           d="M -2.0000002,34 A 3.7142856,3.7142856 0 1 1 -9.4285715,34 A 3.7142856,3.7142856 0 1 1 -2.0000002,34 z"
           transform="matrix(1.0384615,0,0,1.0384615,-36.923077,-1.7362627)" />
      </g>
      <g
         transform="translate(0.1430693,-2.1611921e-4)"
         id="g4137">
        <path
           style="opacity:0.15;fill:#000000;fill-opacity:1;fill-rule:evenodd;stroke:none;stroke-width:1px;stroke-linecap:butt;stroke-linejoin:miter;stroke-opacity:1"
           d="M 41.578,39.617594 C 41.256966,39.613811 40.999451,39.64788 40.825928,39.684151 L 17.719156,44.498481 L 13.466058,45.385915 L 13.336391,45.408102 L 7.9422168,47.915103 L 20.053172,46.80581 L 20.156908,46.783625 L 24.435941,45.89619 L 47.542713,41.059674 C 48.236802,40.914592 47.300151,40.490232 45.442096,40.105683 C 44.048557,39.817271 42.541103,39.628941 41.578,39.617594 z"
           id="path2422" />
        <path
           id="rect2383"
           d="M 13.776743,35.620198 C 14.514387,35.053201 16.475756,35.972413 18.238938,37.726033 C 19.997904,39.475458 20.881855,41.390517 20.326695,42.13463 C 20.324585,42.137458 20.370044,42.172805 20.367891,42.175599 L 47.133514,15.28965 C 47.813072,14.607038 46.890382,12.582409 45.071226,10.773119 C 43.252069,8.9638283 41.221927,8.0516318 40.542366,8.7342481 L 13.776743,35.620198 z"
           style="fill:url(#linearGradient4193);fill-opacity:1;stroke:#000000;stroke-width:1.00000024;stroke-linecap:butt;stroke-linejoin:round;stroke-miterlimit:4;stroke-dasharray:none;stroke-dashoffset:0;stroke-opacity:1" />
        <path
           id="rect3175"
           d="M 37.275829,12.015473 C 38.013471,11.448475 39.974842,12.367687 41.738023,14.121307 C 43.496987,15.870732 44.380941,17.78579 43.825779,18.529902 C 43.823668,18.532732 43.869129,18.56808 43.866974,18.570875 L 47.133514,15.28965 L 47.200179,15.222687 C 47.202332,15.219892 47.156872,15.184545 47.158982,15.181714 C 47.714144,14.437603 46.830191,12.522544 45.071226,10.773119 C 43.308044,9.0194996 41.346675,8.1002867 40.609032,8.6672839 L 40.542366,8.7342481 L 37.275829,12.015473 z"
           style="opacity:0.8;fill:#ff9de8;fill-opacity:1;stroke:#dd78c5;stroke-width:1.00000024;stroke-linecap:butt;stroke-linejoin:round;stroke-miterlimit:4;stroke-dasharray:none;stroke-dashoffset:0;stroke-opacity:1" />
        <path
           id="path3208"
           d="M 13.776743,35.620195 C 14.514387,35.053198 16.475755,35.97241 18.238937,37.726031 C 19.997903,39.475456 20.881854,41.390515 20.326694,42.134627 C 20.324583,42.137456 20.370043,42.172803 20.367889,42.175597 L 38.800502,23.66012 L 38.867166,23.593155 C 38.869321,23.590361 38.82386,23.555014 38.825973,23.552185 C 39.381132,22.808071 38.497181,20.893013 36.738214,19.143588 C 34.975033,17.389969 33.013664,16.470756 32.27602,17.037754 L 32.209356,17.104717 L 13.776743,35.620195 z"
           style="opacity:0.6;fill:#000000;fill-opacity:1;stroke:none;stroke-width:2;stroke-linecap:butt;stroke-linejoin:round;stroke-miterlimit:4;stroke-dasharray:2, 8;stroke-dashoffset:0;stroke-opacity:0.23529412" />
        <path
           id="path3233"
           d="M 33.614432,15.693326 C 34.352076,15.126328 36.313446,16.045539 38.076627,17.79916 C 39.835592,19.548584 40.719545,21.463644 40.164383,22.207756 C 40.162271,22.210584 40.207732,22.245931 40.205579,22.248727 L 40.538899,21.913907 C 40.541055,21.911113 40.495594,21.875765 40.497705,21.872937 C 41.052865,21.128824 40.168914,19.213764 38.409947,17.464342 C 36.646765,15.710721 34.685397,14.791508 33.947752,15.358506 L 33.614432,15.693326 z"
           style="fill:url(#linearGradient4195);fill-opacity:1;stroke:none;stroke-width:2;stroke-linecap:butt;stroke-linejoin:round;stroke-miterlimit:4;stroke-dasharray:2, 8;stroke-dashoffset:0;stroke-opacity:0.23529412" />
        <path
           id="path3216"
           d="M 33.308966,16.000165 C 34.046609,15.433167 36.007979,16.352379 37.77116,18.106 C 39.530127,19.855424 40.414079,21.770482 39.858917,22.514593 C 39.856806,22.517425 39.902266,22.552772 39.900113,22.555567 L 40.233433,22.220748 C 40.235589,22.217953 40.190128,22.182605 40.19224,22.179775 C 40.747398,21.435663 39.863448,19.520604 38.10448,17.771181 C 36.3413,16.01756 34.379931,15.098347 33.642285,15.665345 L 33.308966,16.000165 z"
           style="fill:url(#linearGradient4197);fill-opacity:1;stroke:none;stroke-width:2;stroke-linecap:butt;stroke-linejoin:round;stroke-miterlimit:4;stroke-dasharray:2, 8;stroke-dashoffset:0;stroke-opacity:0.23529412" />
        <path
           id="path3248"
           d="M 34.675928,14.627058 C 35.41357,14.06006 37.374941,14.979272 39.138122,16.732893 C 40.897085,18.482317 41.781039,20.397375 41.225879,21.141489 C 41.223767,21.144318 41.269229,21.179665 41.267074,21.18246 L 41.600394,20.847641 C 41.60255,20.844846 41.55709,20.809498 41.559199,20.806669 C 42.11436,20.062557 41.230409,18.147498 39.47144,16.398075 C 37.708261,14.644454 35.746893,13.725241 35.009246,14.292239 L 34.675928,14.627058 z"
           style="fill:url(#linearGradient4199);fill-opacity:1;stroke:none;stroke-width:2;stroke-linecap:butt;stroke-linejoin:round;stroke-miterlimit:4;stroke-dasharray:2, 8;stroke-dashoffset:0;stroke-opacity:0.23529412" />
        <path
           id="path3250"
           d="M 34.37046,14.933899 C 35.108104,14.3669 37.069474,15.286113 38.832655,17.039732 C 40.591621,18.789158 41.475573,20.704215 40.920413,21.448328 C 40.918301,21.451157 40.963763,21.486505 40.961607,21.4893 L 41.294927,21.154478 C 41.297081,21.151686 41.251623,21.11634 41.253732,21.113509 C 41.808894,20.369397 40.924942,18.454337 39.165976,16.704914 C 37.402795,14.951294 35.441425,14.032081 34.703781,14.59908 L 34.37046,14.933899 z"
           style="fill:url(#linearGradient4201);fill-opacity:1;stroke:none;stroke-width:2;stroke-linecap:butt;stroke-linejoin:round;stroke-miterlimit:4;stroke-dasharray:2, 8;stroke-dashoffset:0;stroke-opacity:0.23529412" />
        <path
           id="path3256"
           d="M 35.742553,13.555638 C 36.480195,12.98864 38.441565,13.907852 40.204745,15.661473 C 41.963712,17.410897 42.847665,19.325956 42.292503,20.070067 C 42.290394,20.072898 42.335854,20.108245 42.333697,20.11104 L 42.667018,19.776222 C 42.669174,19.773426 42.623714,19.738078 42.625824,19.73525 C 43.180984,18.991137 42.297033,17.076078 40.538067,15.326655 C 38.774887,13.573034 36.813517,12.653822 36.075872,13.220819 L 35.742553,13.555638 z"
           style="fill:url(#linearGradient4203);fill-opacity:1;stroke:none;stroke-width:2;stroke-linecap:butt;stroke-linejoin:round;stroke-miterlimit:4;stroke-dasharray:2, 8;stroke-dashoffset:0;stroke-opacity:0.23529412" />
        <path
           id="path3258"
           d="M 35.437085,13.862478 C 36.174728,13.29548 38.136098,14.214692 39.899279,15.968313 C 41.658245,17.717737 42.542198,19.632796 41.987036,20.376907 C 41.984927,20.379739 42.030388,20.415085 42.028233,20.417881 L 42.361552,20.083061 C 42.363707,20.080267 42.318246,20.044918 42.320358,20.04209 C 42.875518,19.297977 41.991566,17.382917 40.2326,15.633494 C 38.46942,13.879873 36.508051,12.960661 35.770407,13.52766 L 35.437085,13.862478 z"
           style="fill:url(#linearGradient4205);fill-opacity:1;stroke:none;stroke-width:2;stroke-linecap:butt;stroke-linejoin:round;stroke-miterlimit:4;stroke-dasharray:2, 8;stroke-dashoffset:0;stroke-opacity:0.23529412" />
        <path
           style="fill:url(#linearGradient4207);fill-opacity:1;fill-rule:evenodd;stroke:url(#linearGradient4209);stroke-width:1.00000024;stroke-linecap:butt;stroke-linejoin:miter;stroke-miterlimit:4;stroke-dasharray:none;stroke-opacity:1"
           d="M 8.3571068,47.500216 L 20.233329,42.2363 L 20.337052,42.132578 C 20.892212,41.388466 19.995637,39.473799 18.236672,37.724373 C 16.473489,35.970753 14.514249,35.056997 13.776606,35.623994 L 8.3571068,47.500216 z"
           id="path3270"
           sodipodi:nodetypes="cccscc" />
        <path
           id="path3281"
           d="M 9.8250848,44.283636 L 8.3569302,47.487764 L 11.596455,46.045399 C 11.354518,45.750814 11.132387,45.450582 10.839227,45.159011 C 10.50172,44.823334 10.167142,44.553591 9.8250848,44.283636 z"
           style="fill:#000000;fill-opacity:1;fill-rule:evenodd;stroke:#000000;stroke-width:1.00000024;stroke-linecap:butt;stroke-linejoin:miter;stroke-miterlimit:4;stroke-dasharray:none;stroke-opacity:1" />
      </g>
    </g>
  </g>
</svg>
