<svg xmlns="http://www.w3.org/2000/svg" xmlns:xlink="http://www.w3.org/1999/xlink" viewBox="0 0 48 48"><defs><linearGradient id="a"><stop offset="0" stop-color="#fff"/><stop offset=".053" stop-color="#fff" stop-opacity=".235"/><stop offset=".951" stop-color="#fff" stop-opacity=".157"/><stop offset="1" stop-color="#fff" stop-opacity=".392"/></linearGradient><linearGradient id="b"><stop offset="0" stop-color="#181818"/><stop offset="1" stop-color="#181818" stop-opacity="0"/></linearGradient><linearGradient id="c"><stop offset="0" stop-color="#181818"/><stop offset="1" stop-color="#181818" stop-opacity="0"/></linearGradient><linearGradient id="d"><stop offset="0" stop-color="#181818" stop-opacity="0"/><stop offset=".5" stop-color="#181818"/><stop offset="1" stop-color="#181818" stop-opacity="0"/></linearGradient><linearGradient x1="24" y1="5" x2="24" y2="43" id="k" xlink:href="#a" gradientUnits="userSpaceOnUse" gradientTransform="translate(0 1)"/><radialGradient cx="4.993" cy="43.5" r="2.5" fx="4.993" fy="43.5" id="g" xlink:href="#b" gradientUnits="userSpaceOnUse" gradientTransform="matrix(2.00378 0 0 1.4 27.988 -17.4)"/><radialGradient cx="4.993" cy="43.5" r="2.5" fx="4.993" fy="43.5" id="h" xlink:href="#c" gradientUnits="userSpaceOnUse" gradientTransform="matrix(2.00378 0 0 1.4 -20.012 -104.4)"/><linearGradient x1="25.058" y1="47.028" x2="25.058" y2="39.999" id="i" xlink:href="#d" gradientUnits="userSpaceOnUse"/><radialGradient cx="7.118" cy="9.957" r="12.672" fx="7.118" fy="9.957" id="j" xlink:href="#e" gradientUnits="userSpaceOnUse" gradientTransform="matrix(0 9.14024 -11.2213 0 136.563 -77.888)"/><linearGradient id="e"><stop offset="0" stop-color="#505050"/><stop offset=".262" stop-color="#2b2b2b"/><stop offset=".705" stop-color="#0a0a0a"/><stop offset="1"/></linearGradient><linearGradient x1="20" y1="26" x2="20" y2="13" id="l" xlink:href="#f" gradientUnits="userSpaceOnUse" gradientTransform="translate(0 1)"/><linearGradient id="f"><stop offset="0" stop-color="#dcdcdc"/><stop offset="1" stop-color="#fff"/></linearGradient></defs><g opacity=".6"><path fill="url(#g)" d="M38 40h5v7h-5z" transform="matrix(1.1579 0 0 .64286 -3.79 16.036)"/><path transform="matrix(-1.1579 0 0 -.64286 -3.79 16.036)" fill="url(#h)" d="M-10-47h5v7h-5z"/><path fill="url(#i)" d="M10 40h28v7H10z" transform="matrix(1.1579 0 0 .64286 -3.79 16.036)"/></g><rect width="39" height="39" rx="2" ry="2" x="4.5" y="5.5" opacity=".9" color="#000" fill="url(#j)" overflow="visible"/><rect width="39" height="39" rx="2" ry="2" x="4.5" y="5.5" opacity=".7" color="#000" fill="none" stroke="#000" stroke-linecap="round" stroke-linejoin="round" overflow="visible"/><rect width="37" height="37" rx="1" ry="1" x="5.5" y="6.5" opacity=".3" fill="none" stroke="url(#k)" stroke-linecap="round" stroke-linejoin="round"/><path d="M13 12.97A1.016 1.016 0 0 0 11.97 14v.22c-.635.146-1.277.35-1.845.81-.012.01-.02.023-.03.033-1.38 1.098-1.472 3.093-.47 4.406a1.016 1.016 0 0 0 .03.03c.676.82 1.524 1.185 2.314 1.5v.154c-.52-.12-1.068-.182-1.566-.406a1.016 1.016 0 0 0-1.437.937v1.78a1.016 1.016 0 0 0 .624.938c.773.328 1.578.378 2.376.47v.56A1.016 1.016 0 0 0 13 26.47h1a1.016 1.016 0 0 0 1.03-1.032v-.625c.435-.084.842-.114 1.283-.344.013-.01.017-.028.03-.034 1.106-.56 1.852-1.665 1.813-2.938v-.03a2.99 2.99 0 0 0-.562-1.72 1.016 1.016 0 0 0 0-.03c-.732-.978-1.707-1.366-2.563-1.69v-.094c.307.075.63.11.91.22a1.016 1.016 0 0 0 1.31-.563l.657-1.59a1.016 1.016 0 0 0-.53-1.313c-.75-.32-1.56-.364-2.345-.468V14A1.016 1.016 0 0 0 14 12.97h-1zm7 12A1.016 1.016 0 0 0 18.97 26v2A1.016 1.016 0 0 0 20 29.03h8A1.016 1.016 0 0 0 29.03 28v-2A1.016 1.016 0 0 0 28 24.97h-8z" opacity=".15"/><path d="M13 14v1.03c-.82.08-1.613.284-2.25.814-.915.707-.985 2.12-.313 3 .65.788 1.62 1.143 2.563 1.5v2.125a9.006 9.006 0 0 1-3-.784v1.78c.957.407 1.96.574 3 .595v1.376h1V24.03c.637-.056 1.31-.167 1.875-.468.783-.384 1.316-1.21 1.28-2.062a1.96 1.96 0 0 0-.374-1.156c-.65-.873-1.792-1.228-2.78-1.625v-2.034a8.167 8.167 0 0 1 2.315.53l.656-1.593c-.927-.397-1.96-.584-2.97-.625v-1h-1zm0 2.72v1.624c-.398-.175-.862-.406-.844-.907-.018-.472.44-.673.844-.718zm1 4c.395.19.99.372 1 .874.023.512-.553.753-1 .812V20.72zM20 26v2h8v-2h-8z" opacity=".3"/><path d="M13 13v1.03c-.82.08-1.613.284-2.25.814-.915.707-.985 2.12-.313 3 .65.788 1.62 1.143 2.563 1.5v2.125a9.006 9.006 0 0 1-3-.784v1.78c.957.407 1.96.574 3 .595v1.376h1V23.03c.637-.056 1.31-.167 1.875-.468.783-.384 1.316-1.21 1.28-2.062a1.96 1.96 0 0 0-.374-1.156c-.65-.873-1.792-1.228-2.78-1.625v-2.034a8.167 8.167 0 0 1 2.315.53l.656-1.593c-.927-.397-1.96-.584-2.97-.625v-1h-1zm0 2.72v1.624c-.398-.175-.862-.406-.844-.907-.018-.472.44-.673.844-.718zm1 4c.395.19.99.372 1 .874.023.512-.553.753-1 .812V19.72zM20 25v2h8v-2h-8z" style="line-height:125%;-inkscape-font-specification:Open Sans Bold" font-size="14.312" font-weight="700" letter-spacing="0" word-spacing="0" color="#000" fill="url(#l)" overflow="visible" font-family="Open Sans"/></svg>