<?xml version="1.0" encoding="UTF-8" standalone="no"?>
<!-- Created with Inkscape (http://www.inkscape.org/) -->

<svg
   xmlns:dc="http://purl.org/dc/elements/1.1/"
   xmlns:cc="http://creativecommons.org/ns#"
   xmlns:rdf="http://www.w3.org/1999/02/22-rdf-syntax-ns#"
   xmlns:svg="http://www.w3.org/2000/svg"
   xmlns="http://www.w3.org/2000/svg"
   xmlns:sodipodi="http://sodipodi.sourceforge.net/DTD/sodipodi-0.dtd"
   xmlns:inkscape="http://www.inkscape.org/namespaces/inkscape"
   version="1.1"
   width="16"
   height="16"
   id="svg2987"
   inkscape:version="0.48.0 r9654"
   sodipodi:docname="zoom-in.svg">
  <sodipodi:namedview
     pagecolor="#ffffff"
     bordercolor="#666666"
     borderopacity="1"
     objecttolerance="10"
     gridtolerance="10"
     guidetolerance="10"
     inkscape:pageopacity="0"
     inkscape:pageshadow="2"
     inkscape:window-width="1255"
     inkscape:window-height="776"
     id="namedview8"
     showgrid="true"
     inkscape:zoom="18.5"
     inkscape:cx="8"
     inkscape:cy="8"
     inkscape:window-x="0"
     inkscape:window-y="0"
     inkscape:window-maximized="1"
     inkscape:current-layer="svg2987">
    <inkscape:grid
       type="xygrid"
       id="grid2985" />
  </sodipodi:namedview>
  <defs
     id="defs2989" />
  <metadata
     id="metadata2992">
    <rdf:RDF>
      <cc:Work
         rdf:about="">
        <dc:format>image/svg+xml</dc:format>
        <dc:type
           rdf:resource="http://purl.org/dc/dcmitype/StillImage" />
        <dc:title />
      </cc:Work>
    </rdf:RDF>
  </metadata>
  <g
     id="layer1">
    <path
       d="M 7,1 C 3.145851,1 0,4.145851 0,8 c 0,3.854149 3.145851,7 7,7 3.854149,0 7,-3.145851 7,-7 C 14,4.145851 10.854149,1 7,1 z m 0,2 c 2.773268,0 5,2.226732 5,5 0,2.773268 -2.226732,5 -5,5 C 4.226732,13 2,10.773268 2,8 2,5.226732 4.226732,3 7,3 z"
       id="path2999"
       style="font-size:medium;font-style:normal;font-variant:normal;font-weight:normal;font-stretch:normal;text-indent:0;text-align:start;text-decoration:none;line-height:normal;letter-spacing:normal;word-spacing:normal;text-transform:none;direction:ltr;block-progression:tb;writing-mode:lr-tb;text-anchor:start;baseline-shift:baseline;color:#000000;fill:#b4b4b4;fill-opacity:1;stroke:none;stroke-width:2;marker:none;visibility:visible;display:inline;overflow:visible;enable-background:accumulate;font-family:Sans;-inkscape-font-specification:Sans" />
    <rect
       width="4.7500925"
       height="1.9999535"
       rx="1.8800991"
       ry="0.99997675"
       x="-22.305504"
       y="-0.92880696"
       transform="matrix(-0.70709247,-0.70712109,0.70708856,-0.707125,0,0)"
       id="rect4338"
       style="fill:#b4b4b4;fill-opacity:1;stroke:none" />
  </g>
  <g
     id="layer1-9"
     transform="translate(-1,0)">
    <path
       inkscape:connector-curvature="0"
       d="M 8,5 C 8.5,5 9,5.5 9,6.5 L 9,7 9.5,7 c 2,0 2,2 0,2 L 9,9 9,9.5 c 0,2 -2,2 -2,0 L 7,9 6.5,9 c -2,0 -2,-2 0,-2 L 7,7 7,6.5 C 7,5.5 7.5,5 8,5 z"
       id="path3909-5"
       style="fill:#bebebe;fill-opacity:1;stroke:none"
       sodipodi:nodetypes="sscsscsscsscss" />
  </g>
</svg>
