<?xml version="1.0" encoding="UTF-8" standalone="no"?>
<!-- Created with Inkscape (http://www.inkscape.org/) -->

<svg
   xmlns:dc="http://purl.org/dc/elements/1.1/"
   xmlns:cc="http://creativecommons.org/ns#"
   xmlns:rdf="http://www.w3.org/1999/02/22-rdf-syntax-ns#"
   xmlns:svg="http://www.w3.org/2000/svg"
   xmlns="http://www.w3.org/2000/svg"
   version="1.1"
   width="22"
   height="22"
   id="svg3745">
  <metadata
     id="metadata9">
    <rdf:RDF>
      <cc:Work
         rdf:about="">
        <dc:format>image/svg+xml</dc:format>
        <dc:type
           rdf:resource="http://purl.org/dc/dcmitype/StillImage" />
        <dc:title></dc:title>
      </cc:Work>
    </rdf:RDF>
  </metadata>
  <defs
     id="defs3747" />
  <g
     transform="translate(0,6)"
     id="layer1">
    <path
       d="M 12.31691,15.839897 C 10.748478,17.395634 8.2158392,17.385342 6.6601026,15.81691 5.1043661,14.248478 5.1146578,11.715839 6.6830898,10.160103 6.7425382,10.101135 6.8038234,10.04405 6.866855,9.9889292 L 9.5,13 12.31691,15.839897 z M 7.5,16 l -1,-1 -5,5 1,1 5,-5 z"
       transform="translate(0.5,-7)"
       id="path3765"
       style="fill:#606060;fill-opacity:1;stroke:none" />
    <path
       d="M 12.31691,15.839897 C 10.748478,17.395634 8.2158392,17.385342 6.6601026,15.81691 5.1043661,14.248478 5.1146578,11.715839 6.6830898,10.160103 6.7425382,10.101135 6.8038234,10.04405 6.866855,9.9889292 L 9.5,13 12.31691,15.839897 z M 1.5,20 l 1,1 5,-5 -1,-1 -5,5 z"
       transform="matrix(-1,0,0,-1,20.5,18)"
       id="path3767"
       style="fill:#606060;fill-opacity:1;stroke:none" />
  </g>
  <rect
     width="6"
     height="5"
     x="16"
     y="15"
     id="rect2822"
     style="fill:#606060;fill-opacity:1;stroke:none" />
  <path
     d="m 17.529412,15.000001 0,-0.941176 c 0,-2.000001 3,-2.000001 3,0 l 0,0.941176"
     id="path3596"
     style="fill:none;stroke:#606060;stroke-width:1px;stroke-linecap:butt;stroke-linejoin:miter;stroke-opacity:1" />
</svg>
