<?xml version="1.0" encoding="UTF-8" standalone="no"?>
<!-- Created with Inkscape (http://www.inkscape.org/) -->

<svg
   xmlns:svg="http://www.w3.org/2000/svg"
   xmlns="http://www.w3.org/2000/svg"
   xmlns:xlink="http://www.w3.org/1999/xlink"
   version="1.1"
   width="22"
   height="22"
   id="svg2816"
   style="display:inline">
  <defs
     id="defs2818">
    <linearGradient
       id="linearGradient3681">
      <stop
         id="stop3683"
         style="stop-color:#ffffff;stop-opacity:1"
         offset="0" />
      <stop
         id="stop3685"
         style="stop-color:#ffffff;stop-opacity:0"
         offset="1" />
    </linearGradient>
    <radialGradient
       cx="7.1587596"
       cy="6.2412133"
       r="9.5"
       fx="7.1587596"
       fy="6.2412133"
       id="radialGradient3671"
       xlink:href="#linearGradient3698"
       gradientUnits="userSpaceOnUse"
       gradientTransform="matrix(1.8017671,6.2429144e-8,-4.6695406e-8,1.3476758,-6.9296673,-2.3798827)" />
    <linearGradient
       x1="9.051095"
       y1="5.8686132"
       x2="11.284672"
       y2="22.992701"
       id="linearGradient3687"
       xlink:href="#linearGradient3681"
       gradientUnits="userSpaceOnUse"
       gradientTransform="translate(-1.03125,-0.96875)" />
    <linearGradient
       id="linearGradient3698">
      <stop
         id="stop3700"
         style="stop-color:#eeeeec;stop-opacity:1"
         offset="0" />
      <stop
         id="stop3702"
         style="stop-color:#babdb6;stop-opacity:1"
         offset="0.79219842" />
      <stop
         id="stop3704"
         style="stop-color:#a1a59b;stop-opacity:1"
         offset="1" />
    </linearGradient>
  </defs>
  <path
     d="m 1.5,10.900001 c 0,-3.6 0,-10e-7 0,-3.6000009 0,-3.6 3.0000001,-4.7 4.8000001,-4.8000001 l 8.3999989,0 C 16.499999,2.6374996 19.5,3.7000001 19.5,7.3000001 l 0,3.6000009 c 0,3.6 -1.816667,4.599999 -3.6,4.599999 -2.875403,-0.01699 -0.619386,3.469177 0,5 l -0.799999,0 -5.2,-5 -3.6000009,0 C 4.4666666,15.4625 1.5,14.500001 1.5,10.900001 z m 2,-3.6059773 0,3.7007303 C 3.428068,11.940259 4.679598,13.71083 6.4578009,13.5 l 8.0729931,0 C 16.073355,13.40128 17.509529,12.479198 17.5,11.11884 l 0,-4.1386849 C 17.575236,5.8830212 15.725613,4.5971514 14.881159,4.5 l -9.0000002,0 C 4.5231748,4.6044631 3.4759846,6.498561 3.5,7.2940237 z"
     id="path2819"
     style="fill:url(#radialGradient3671);fill-opacity:1;stroke:#888a86;stroke-opacity:1" />
  <path
     d="M 6.375,3.53125 C 5.6549837,3.5712509 4.6049894,3.8298483 3.84375,4.40625 3.0825106,4.9826517 2.53125,5.8006657 2.53125,7.3125 l 0,3.59375 c 0,1.515023 0.5398179,2.253128 1.28125,2.78125 0.7330747,0.522169 1.7537358,0.761401 2.5,0.78125 l 0.03125,0 3.5625,0 A 1.0331952,1.0331952 0 0 1 10.625,14.75 l 2.96875,2.84375 c -0.158501,-0.621487 -0.277761,-1.324714 0.09375,-2.03125 0.388787,-0.73939 1.291953,-1.099226 2.21875,-1.09375 0.699772,0 1.276351,-0.167593 1.71875,-0.625 0.442399,-0.457407 0.84375,-1.310678 0.84375,-2.9375 l 0,-3.59375 c 0,-1.5118343 -0.550694,-2.3018198 -1.3125,-2.875 -0.761806,-0.5731802 -1.822732,-0.8497401 -2.5625,-0.90625 l -8.21875,0 z"
     id="path3669"
     style="opacity:0.6;fill:none;stroke:url(#linearGradient3687);stroke-opacity:1" />
</svg>
