<?xml version="1.0" encoding="UTF-8" standalone="no"?>
<!-- Created with Inkscape (http://www.inkscape.org/) -->

<svg
   xmlns:svg="http://www.w3.org/2000/svg"
   xmlns="http://www.w3.org/2000/svg"
   version="1.1"
   width="22"
   height="22"
   id="svg2816"
   style="display:inline">
  <defs
     id="defs2818" />
  <path
     d="m 13.542254,14.042254 c 2,0 3.5,-1.624088 3.5,-3.500001 0,-1.9999995 -1.761045,-3.4999995 -3.5,-3.4999995 -2.000001,0 -3.500001,1.5 -3.500001,3.4999995 0,1.937829 1.5,3.500001 3.500001,3.500001 M 8,16 C 6.4722222,15.968749 4,15 4,12 L 4,9 C 4,6 6.5,5.0833333 8,5 l 7,0 c 1.5,0.1145829 4,1 4,4 l 0,3 c 0,3 -1.513889,4 -3,4 -2.396168,-0.01417 -0.516156,2.724315 0,4 L 15.333333,20 11,16 8,16 z"
     id="path3928"
     style="fill:#606060;fill-opacity:1;stroke:none;display:inline" />
  <path
     d="m 15.25,10.5 -1.75,0 0,-2.6"
     id="path2817"
     style="fill:none;stroke:#606060;stroke-width:1px;stroke-linecap:round;stroke-linejoin:round;stroke-opacity:1;display:inline" />
</svg>
