<?xml version="1.0" encoding="UTF-8" standalone="no"?>
<!-- Created with Inkscape (http://www.inkscape.org/) -->
<svg
   xmlns:svg="http://www.w3.org/2000/svg"
   xmlns="http://www.w3.org/2000/svg"
   xmlns:xlink="http://www.w3.org/1999/xlink"
   version="1.0"
   width="22"
   height="22"
   id="svg3197">
  <defs
     id="defs3199">
    <linearGradient
       id="linearGradient3587-6-5-3">
      <stop
         id="stop3589-9-2-2"
         style="stop-color:#000000;stop-opacity:1"
         offset="0" />
      <stop
         id="stop3591-7-4-73"
         style="stop-color:#363636;stop-opacity:1"
         offset="1" />
    </linearGradient>
    <linearGradient
       x1="45.52272"
       y1="0.94087785"
       x2="45.52272"
       y2="34.003155"
       id="linearGradient2388"
       xlink:href="#linearGradient3587-6-5-3"
       gradientUnits="userSpaceOnUse"
       gradientTransform="matrix(0.4342346,0,0,0.5947449,-35.164623,-2.6039091)" />
  </defs>
  <path
     d="M 3,6 C 2.446,6 2,6.446 2,7 L 2,17 C 2,17.554 2.446,18 3,18 L 19,18 C 19.554,18 20,17.554 20,17 L 20,7 C 20,6.446 19.554,6 19,6 L 3,6 z M 3.84375,7.15625 L 10.6875,14 L 11.28125,14 L 18.15625,7.15625 L 18.84375,7.84375 L 14.75,12 L 17.84375,15.15625 L 17.15625,15.84375 L 14,12.6875 L 11.71875,15 L 10.28125,15 L 8,12.6875 L 4.84375,15.875 L 4.15625,15.15625 L 7.28125,12 L 3.15625,7.84375 L 3.84375,7.15625 z"
     id="path3193"
     style="opacity:0.6;fill:#ffffff;fill-opacity:1;fill-rule:nonzero;stroke:none;stroke-width:1;stroke-linecap:butt;stroke-linejoin:miter;marker:none;marker-start:none;marker-mid:none;marker-end:none;stroke-miterlimit:4;stroke-dasharray:none;stroke-dashoffset:0;stroke-opacity:1;visibility:visible;display:inline;overflow:visible;enable-background:accumulate" />
  <path
     d="M 3,5 C 2.446,5 2,5.446 2,6 L 2,16 C 2,16.554 2.446,17 3,17 L 19,17 C 19.554,17 20,16.554 20,16 L 20,6 C 20,5.446 19.554,5 19,5 L 3,5 z M 3.84375,6.15625 L 10.6875,13 L 11.28125,13 L 18.15625,6.15625 L 18.84375,6.84375 L 14.75,11 L 17.84375,14.15625 L 17.15625,14.84375 L 14,11.6875 L 11.71875,14 L 10.28125,14 L 8,11.6875 L 4.84375,14.875 L 4.15625,14.15625 L 7.28125,11 L 3.15625,6.84375 L 3.84375,6.15625 z"
     id="rect3170"
     style="opacity:0.7;fill:url(#linearGradient2388);fill-opacity:1;fill-rule:nonzero;stroke:none;stroke-width:1;stroke-linecap:butt;stroke-linejoin:miter;marker:none;marker-start:none;marker-mid:none;marker-end:none;stroke-miterlimit:4;stroke-dasharray:none;stroke-dashoffset:0;stroke-opacity:1;visibility:visible;display:inline;overflow:visible;enable-background:accumulate" />
</svg>
