<?xml version="1.0" encoding="UTF-8" standalone="no"?>
<!-- Created with Inkscape (http://www.inkscape.org/) -->

<svg
   xmlns:svg="http://www.w3.org/2000/svg"
   xmlns="http://www.w3.org/2000/svg"
   xmlns:xlink="http://www.w3.org/1999/xlink"
   version="1.0"
   width="22"
   height="22"
   id="svg2950">
  <defs
     id="defs2952">
    <linearGradient
       x1="3"
       y1="8.5"
       x2="45"
       y2="8.5"
       id="linearGradient2529"
       xlink:href="#linearGradient9472"
       gradientUnits="userSpaceOnUse"
       gradientTransform="matrix(0.4146342,0,0,0.5000001,1.0487805,-0.2500015)" />
    <linearGradient
       id="linearGradient9472">
      <stop
         id="stop9474"
         style="stop-color:#4f524d;stop-opacity:1"
         offset="0" />
      <stop
         id="stop9486"
         style="stop-color:#787977;stop-opacity:1"
         offset="0.78686917" />
      <stop
         id="stop9476"
         style="stop-color:#979894;stop-opacity:1"
         offset="1" />
    </linearGradient>
    <linearGradient
       x1="3"
       y1="8.5"
       x2="45"
       y2="8.5"
       id="linearGradient2527"
       xlink:href="#linearGradient9472"
       gradientUnits="userSpaceOnUse"
       gradientTransform="matrix(0.4146342,0,0,0.5000001,1.0487805,-0.2500015)" />
    <linearGradient
       id="linearGradient161-689-862">
      <stop
         id="stop3698"
         style="stop-color:#81857e;stop-opacity:1"
         offset="0" />
      <stop
         id="stop3700"
         style="stop-color:#b3b4b1;stop-opacity:1"
         offset="1" />
    </linearGradient>
    <linearGradient
       x1="5.3863635"
       y1="38.746311"
       x2="19.737663"
       y2="21.169638"
       id="linearGradient2516"
       xlink:href="#linearGradient161-689-862"
       gradientUnits="userSpaceOnUse"
       gradientTransform="matrix(0.9905791,0,0,0.1186378,-0.02397413,1.485349)" />
    <linearGradient
       id="linearGradient157">
      <stop
         id="stop158"
         style="stop-color:#cacbc5;stop-opacity:1"
         offset="0" />
      <stop
         id="stop159"
         style="stop-color:#f0f0f0;stop-opacity:1"
         offset="1" />
    </linearGradient>
    <linearGradient
       x1="40.702"
       y1="8.5"
       x2="43.699654"
       y2="8.5"
       id="linearGradient2506"
       xlink:href="#linearGradient157"
       gradientUnits="userSpaceOnUse"
       gradientTransform="matrix(0.5003912,0,0,0.3999998,-2.966919,0.600002)" />
    <linearGradient
       id="linearGradient157-8">
      <stop
         id="stop158-5"
         style="stop-color:#cacbc5;stop-opacity:1"
         offset="0" />
      <stop
         id="stop159-9"
         style="stop-color:#f0f0f0;stop-opacity:1"
         offset="1" />
    </linearGradient>
    <linearGradient
       x1="40.702"
       y1="8.5"
       x2="43.699654"
       y2="8.5"
       id="linearGradient2939"
       xlink:href="#linearGradient157-8"
       gradientUnits="userSpaceOnUse"
       gradientTransform="matrix(0.4858186,0,0,0.5191859,-2.23011,0.5961951)" />
    <linearGradient
       x1="25.632622"
       y1="10.611729"
       x2="38.714096"
       y2="18.389904"
       id="linearGradient2903"
       xlink:href="#linearGradient5176"
       gradientUnits="userSpaceOnUse"
       gradientTransform="matrix(-1,0,0,1,-164.71303,28.239477)" />
    <linearGradient
       x1="24.365993"
       y1="20.246058"
       x2="32.600704"
       y2="28.554564"
       id="linearGradient2901"
       xlink:href="#linearGradient5162"
       gradientUnits="userSpaceOnUse"
       gradientTransform="matrix(-1,0,0,1,-164.71303,28.239477)" />
    <linearGradient
       x1="22.008699"
       y1="36.509514"
       x2="23.585091"
       y2="14.412428"
       id="linearGradient2899"
       xlink:href="#linearGradient5162"
       gradientUnits="userSpaceOnUse"
       gradientTransform="matrix(-1,0,0,1,-164.71303,28.239477)" />
    <radialGradient
       cx="20.089987"
       cy="10.853651"
       r="22.597088"
       fx="20.089987"
       fy="10.853651"
       id="radialGradient2897"
       xlink:href="#linearGradient5196"
       gradientUnits="userSpaceOnUse"
       gradientTransform="matrix(-1.790269,0,0,1.769263,-148.89909,16.289507)" />
    <radialGradient
       cx="23.688078"
       cy="14.210698"
       r="22.597088"
       fx="23.688078"
       fy="14.210698"
       id="radialGradient2895"
       xlink:href="#linearGradient5188"
       gradientUnits="userSpaceOnUse"
       gradientTransform="matrix(-2.135667,0,0,2.110607,-137.81127,12.570337)" />
    <linearGradient
       x1="25.632622"
       y1="10.611729"
       x2="38.714096"
       y2="18.389904"
       id="linearGradient2913"
       xlink:href="#linearGradient5176"
       gradientUnits="userSpaceOnUse"
       gradientTransform="matrix(-1,0,0,1,-164.71303,28.239477)" />
    <linearGradient
       x1="24.365993"
       y1="20.246058"
       x2="32.600704"
       y2="28.554564"
       id="linearGradient2911"
       xlink:href="#linearGradient5162"
       gradientUnits="userSpaceOnUse"
       gradientTransform="matrix(-1,0,0,1,-164.71303,28.239477)" />
    <linearGradient
       x1="22.008699"
       y1="36.509514"
       x2="23.585091"
       y2="14.412428"
       id="linearGradient2909"
       xlink:href="#linearGradient5162"
       gradientUnits="userSpaceOnUse"
       gradientTransform="matrix(-1,0,0,1,-164.71303,28.239477)" />
    <radialGradient
       cx="20.089987"
       cy="10.853651"
       r="22.597088"
       fx="20.089987"
       fy="10.853651"
       id="radialGradient2907"
       xlink:href="#linearGradient5196"
       gradientUnits="userSpaceOnUse"
       gradientTransform="matrix(-1.790269,0,0,1.769263,-148.89909,16.289507)" />
    <radialGradient
       cx="23.688078"
       cy="14.210698"
       r="22.597088"
       fx="23.688078"
       fy="14.210698"
       id="radialGradient2905"
       xlink:href="#linearGradient5188"
       gradientUnits="userSpaceOnUse"
       gradientTransform="matrix(-2.135667,0,0,2.110607,-137.81127,12.570337)" />
    <linearGradient
       id="linearGradient5176">
      <stop
         id="stop5178"
         style="stop-color:black;stop-opacity:1"
         offset="0" />
      <stop
         id="stop5180"
         style="stop-color:black;stop-opacity:0"
         offset="1" />
    </linearGradient>
    <linearGradient
       x1="25.632622"
       y1="10.611729"
       x2="38.714096"
       y2="18.389904"
       id="linearGradient2933"
       xlink:href="#linearGradient5176"
       gradientUnits="userSpaceOnUse"
       gradientTransform="matrix(-1,0,0,1,-164.71303,28.239477)" />
    <linearGradient
       x1="24.365993"
       y1="20.246058"
       x2="32.600704"
       y2="28.554564"
       id="linearGradient2931"
       xlink:href="#linearGradient5162"
       gradientUnits="userSpaceOnUse"
       gradientTransform="matrix(-1,0,0,1,-164.71303,28.239477)" />
    <linearGradient
       id="linearGradient5162">
      <stop
         id="stop5164"
         style="stop-color:#babdb6;stop-opacity:1"
         offset="0" />
      <stop
         id="stop5166"
         style="stop-color:white;stop-opacity:1"
         offset="1" />
    </linearGradient>
    <linearGradient
       x1="22.008699"
       y1="36.509514"
       x2="23.585091"
       y2="14.412428"
       id="linearGradient2929"
       xlink:href="#linearGradient5162"
       gradientUnits="userSpaceOnUse"
       gradientTransform="matrix(-1,0,0,1,-164.71303,28.239477)" />
    <linearGradient
       id="linearGradient5196">
      <stop
         id="stop5198"
         style="stop-color:#dfe2dc;stop-opacity:1"
         offset="0" />
      <stop
         id="stop5200"
         style="stop-color:#86917a;stop-opacity:1"
         offset="1" />
    </linearGradient>
    <radialGradient
       cx="20.089987"
       cy="10.853651"
       r="22.597088"
       fx="20.089987"
       fy="10.853651"
       id="radialGradient2927"
       xlink:href="#linearGradient5196"
       gradientUnits="userSpaceOnUse"
       gradientTransform="matrix(-1.790269,0,0,1.769263,-148.89909,16.289507)" />
    <linearGradient
       id="linearGradient5188">
      <stop
         id="stop5190"
         style="stop-color:white;stop-opacity:1"
         offset="0" />
      <stop
         id="stop5192"
         style="stop-color:#aeaea3;stop-opacity:1"
         offset="1" />
    </linearGradient>
    <radialGradient
       cx="23.688078"
       cy="14.210698"
       r="22.597088"
       fx="23.688078"
       fy="14.210698"
       id="radialGradient2925"
       xlink:href="#linearGradient5188"
       gradientUnits="userSpaceOnUse"
       gradientTransform="matrix(-2.135667,0,0,2.110607,-137.81127,12.570337)" />
    <linearGradient
       id="linearGradient3390-178-986-453">
      <stop
         id="stop3624"
         style="stop-color:#bb5e12;stop-opacity:1"
         offset="0" />
      <stop
         id="stop3626"
         style="stop-color:#cd8033;stop-opacity:1"
         offset="1" />
    </linearGradient>
    <linearGradient
       x1="16.258741"
       y1="45"
       x2="16.258741"
       y2="10.995625"
       id="linearGradient2524"
       xlink:href="#linearGradient3390-178-986-453"
       gradientUnits="userSpaceOnUse"
       gradientTransform="matrix(0.4146342,0,0,0.4242424,1.0487805,0.6212126)" />
    <linearGradient
       id="linearGradient7012-661-145-733-759-865-745-661-970-94">
      <stop
         id="stop3618"
         style="stop-color:#edd563;stop-opacity:1"
         offset="0" />
      <stop
         id="stop3620"
         style="stop-color:#e08223;stop-opacity:1"
         offset="1" />
    </linearGradient>
    <radialGradient
       cx="19.972029"
       cy="13.30493"
       r="21"
       fx="19.972029"
       fy="13.30493"
       id="radialGradient2522"
       xlink:href="#linearGradient7012-661-145-733-759-865-745-661-970-94"
       gradientUnits="userSpaceOnUse"
       gradientTransform="matrix(0,0.6747301,-0.8705968,0,18.268715,-8.1878479)" />
    <linearGradient
       id="linearGradient6265">
      <stop
         id="stop6267"
         style="stop-color:white;stop-opacity:1"
         offset="0" />
      <stop
         id="stop6269"
         style="stop-color:white;stop-opacity:0"
         offset="1" />
    </linearGradient>
    <linearGradient
       x1="25"
       y1="13.25"
       x2="25"
       y2="46.625"
       id="linearGradient2519"
       xlink:href="#linearGradient6265"
       gradientUnits="userSpaceOnUse"
       gradientTransform="matrix(0.3846154,0,0,0.3870968,1.7692308,0.8870961)" />
    <linearGradient
       id="linearGradient8265-821-176-38-919-66-249">
      <stop
         id="stop2687"
         style="stop-color:white;stop-opacity:0.27450982"
         offset="0" />
      <stop
         id="stop2689"
         style="stop-color:white;stop-opacity:0.07843138"
         offset="1" />
    </linearGradient>
    <linearGradient
       x1="11.566265"
       y1="22.292103"
       x2="15.214532"
       y2="33.95525"
       id="linearGradient2503"
       xlink:href="#linearGradient8265-821-176-38-919-66-249"
       gradientUnits="userSpaceOnUse"
       gradientTransform="matrix(0.3475432,0,0,0.3687412,2.6267147,0.1013076)" />
  </defs>
  <g
     id="layer1">
    <path
       d="m 3.7439028,2.4999999 -1.2439028,3 17.000001,0 -1.243902,-3 -14.5121962,0 0,0 z"
       id="path8410"
       style="fill:url(#linearGradient2527);fill-opacity:1;fill-rule:evenodd;stroke:url(#linearGradient2529);stroke-width:0.99999982px;stroke-linecap:square;stroke-linejoin:round;stroke-opacity:1;display:inline;enable-background:new" />
    <path
       d="M 4.3621008,3.0062787 C 3.951293,3.0033207 4.0489535,3.0085973 3.9564791,3.1717877 3.9351323,3.2094511 3.0337127,4.9424481 3,5 L 19,5 C 18.97076,4.9435093 18.075313,3.1555665 18.043161,3.1273665 17.992281,3.0320483 17.937418,3.0005177 17.86359,3.0000115 17.81483,2.9996791 4.4103258,3.0066449 4.3621008,3.0063249 l 0,-4.62e-5 z"
       id="path1864"
       style="fill:url(#linearGradient2516);fill-opacity:1;fill-rule:evenodd;stroke:none;stroke-width:0;marker:none;visibility:visible;display:block;enable-background:new" />
    <path
       d="M 4.0856314,3.2051275 C 3.9363363,3.2111735 3.944779,3.2343849 3.8822901,3.3376946 3.8616872,3.3717526 3.0325372,4.9479636 3,5 l 1.2000001,0 -0.1143687,-1.7948725 0,0 z"
       id="path1880"
       style="fill:#727272;fill-opacity:1;fill-rule:evenodd;stroke:none;stroke-width:0;marker:none;visibility:visible;display:block;enable-background:new" />
    <path
       d="m 17.542961,3.0000001 c 0.18662,0.00674 0.176066,0.032601 0.254176,0.1477176 C 17.822888,3.1856677 18.859327,4.9420166 18.9,5 l -1.5,0 0.142961,-1.9999999 0,0 z"
       id="path9454"
       style="fill:url(#linearGradient2506);fill-opacity:1;fill-rule:evenodd;stroke:none;stroke-width:0;marker:none;visibility:visible;display:block;enable-background:new" />
    <path
       d="m 17.682481,3.7113098 c 0.181184,0.00867 0.170938,0.042314 0.246775,0.1917302 0.025,0.049262 1.031256,2.3289395 1.070744,2.4042002 l -1.456317,0 0.138798,-2.5959304 0,0 z"
       id="path2658"
       style="fill:url(#linearGradient2939);fill-opacity:1;fill-rule:evenodd;stroke:none;stroke-width:0;marker:none;visibility:visible;display:block" />
    <g
       transform="matrix(0,0.1937786,0.1813248,0,1.6318302,42.275027)"
       id="g2586">
      <path
         d="m -173.72864,65.809652 1.76777,2.828427 -3.71232,1.59099 -2.65165,-2.12132 -11.84403,0.883883 -3.71231,4.949748 -3.35876,-5.480078 -4.24264,2.298097 -5.65685,-0.707106 1.41421,-3.005204 -3.88909,-3.889088 5.48008,-6.187184 -5.3033,0.707107 -2.2981,-2.12132 3.00521,0.53033 3.18198,-5.480078 4.59619,-1.06066 -3.71231,-1.237437 -0.17678,-3.18198 7.24785,-6.363961 2.65165,-8.485282 12.02081,3.535534 3.0052,7.071068 1.06066,-2.298097 3.00521,0.176777 0,2.828427 3.53553,-4.065864 4.77297,5.126524 0,7.247844 -8.3085,7.247845 5.3033,3.005204 -0.17678,3.005203 -3.0052,2.651651 z"
         id="path2588"
         style="fill:url(#radialGradient2895);fill-opacity:1;fill-rule:evenodd;stroke:url(#radialGradient2897);stroke-width:2.66740155;stroke-linecap:butt;stroke-linejoin:miter;stroke-miterlimit:4;stroke-opacity:1;stroke-dasharray:none;stroke-dashoffset:0;marker:none;visibility:visible;display:inline;overflow:visible" />
      <path
         d="m -184.15847,50.96041 0.88389,6.540737 -2.12132,3.358757 4.59619,1.414214 2.65165,5.303301 -12.02081,0.883883 -2.82843,4.065864 -2.2981,-6.187184 4.41942,-2.828427 6.71751,1.944544 -2.65165,-3.535534 1.41422,-6.187185 1.23743,-4.77297 0,0 z"
         id="path2590"
         style="opacity:0.76966289;fill:url(#linearGradient2899);fill-opacity:1;fill-rule:evenodd;stroke:none;stroke-width:1;marker:none;visibility:visible;display:inline;overflow:visible" />
      <path
         d="m -185.21913,52.02107 -4.41941,6.894291 -7.24785,-4.949748 -4.41941,2.474874 -3.53554,-3.005204 -3.18198,2.828427 3.00521,-4.949747 6.89429,-1.59099 8.66205,-4.242641 c 0,0 12.37437,3.712311 11.66726,3.712311 -0.7071,0 -10.25304,0.176776 -10.25304,0.176776 l -1.59099,-2.298097 -4.24264,1.944544 8.66205,3.005204 z"
         id="path2592"
         style="opacity:0.61797755;fill:url(#linearGradient2901);fill-opacity:1;fill-rule:evenodd;stroke:none;stroke-width:1;marker:none;visibility:visible;display:inline;overflow:visible" />
      <path
         d="m -194.23474,31.69175 10.42983,3.535534 1.41421,3.889087 -6.01041,4.242641 -5.65685,-5.480078 -0.17678,-6.187184 z"
         id="path2594"
         style="fill:white;fill-opacity:1;fill-rule:evenodd;stroke:none;stroke-width:1;marker:none;visibility:visible;display:inline;overflow:visible" />
      <path
         d="m -194.41151,32.045303 -2.2981,7.424621 -4.24264,3.712311 8.66206,-1.944544 c 0,0 2.47487,2.828427 1.41421,2.828427 -1.06066,0 -12.55114,1.414214 -12.55114,1.414214 l 0.17677,2.298097 16.26346,-3.005204 -7.07107,-6.540738 -0.35355,-6.187184 z"
         id="path2596"
         style="opacity:0.13483145;fill:url(#linearGradient2903);fill-opacity:1;fill-rule:evenodd;stroke:none;stroke-width:1;marker:none;visibility:visible;display:inline;overflow:visible" />
      <path
         d="m -172.13765,42.475128 0.88388,8.838835 -1.94454,-6.010408 -5.12653,1.590991 -1.23743,-2.651651 -6.18719,0.883884 -1.41421,-1.237437 9.01561,-0.353554 0.88388,2.474874 3.88909,-1.944544 1.23744,-1.59099 0,0 z"
         id="path2598"
         style="fill:white;fill-opacity:1;fill-rule:evenodd;stroke:none;stroke-width:1;marker:none;visibility:visible;display:inline;overflow:visible" />
      <path
         d="m -187.16367,55.556604 -3.0052,3.535534 -6.89429,-4.596195 -4.24264,2.298097 -6.89429,6.540738 7.60139,-5.833631 3.71231,-1.06066 7.24785,4.949748 2.47487,-5.833631 z"
         id="path2600"
         style="fill:white;fill-opacity:1;fill-rule:evenodd;stroke:none;stroke-width:1;marker:none;visibility:visible;display:inline;overflow:visible" />
    </g>
    <g
       transform="matrix(0.1813248,0,0,0.1937786,48.915556,-3.5835914)"
       id="g2552">
      <path
         d="m -173.72864,65.809652 1.76777,2.828427 -3.71232,1.59099 -2.65165,-2.12132 -11.84403,0.883883 -3.71231,4.949748 -3.35876,-5.480078 -4.24264,2.298097 -5.65685,-0.707106 1.41421,-3.005204 -3.88909,-3.889088 5.48008,-6.187184 -5.3033,0.707107 -2.2981,-2.12132 3.00521,0.53033 3.18198,-5.480078 4.59619,-1.06066 -3.71231,-1.237437 -0.17678,-3.18198 7.24785,-6.363961 2.65165,-8.485282 12.02081,3.535534 3.0052,7.071068 1.06066,-2.298097 3.00521,0.176777 0,2.828427 3.53553,-4.065864 4.77297,5.126524 0,7.247844 -8.3085,7.247845 5.3033,3.005204 -0.17678,3.005203 -3.0052,2.651651 z"
         id="path2554"
         style="fill:url(#radialGradient2905);fill-opacity:1;fill-rule:evenodd;stroke:url(#radialGradient2907);stroke-width:2.66740155;stroke-linecap:butt;stroke-linejoin:miter;stroke-miterlimit:4;stroke-opacity:1;stroke-dasharray:none;stroke-dashoffset:0;marker:none;visibility:visible;display:inline;overflow:visible" />
      <path
         d="m -184.15847,50.96041 0.88389,6.540737 -2.12132,3.358757 4.59619,1.414214 2.65165,5.303301 -12.02081,0.883883 -2.82843,4.065864 -2.2981,-6.187184 4.41942,-2.828427 6.71751,1.944544 -2.65165,-3.535534 1.41422,-6.187185 1.23743,-4.77297 0,0 z"
         id="path2556"
         style="opacity:0.76966289;fill:url(#linearGradient2909);fill-opacity:1;fill-rule:evenodd;stroke:none;stroke-width:1;marker:none;visibility:visible;display:inline;overflow:visible" />
      <path
         d="m -185.21913,52.02107 -4.41941,6.894291 -7.24785,-4.949748 -4.41941,2.474874 -3.53554,-3.005204 -3.18198,2.828427 3.00521,-4.949747 6.89429,-1.59099 8.66205,-4.242641 c 0,0 12.37437,3.712311 11.66726,3.712311 -0.7071,0 -10.25304,0.176776 -10.25304,0.176776 l -1.59099,-2.298097 -4.24264,1.944544 8.66205,3.005204 z"
         id="path2558"
         style="opacity:0.61797755;fill:url(#linearGradient2911);fill-opacity:1;fill-rule:evenodd;stroke:none;stroke-width:1;marker:none;visibility:visible;display:inline;overflow:visible" />
      <path
         d="m -194.23474,31.69175 10.42983,3.535534 1.41421,3.889087 -6.01041,4.242641 -5.65685,-5.480078 -0.17678,-6.187184 z"
         id="path2560"
         style="fill:white;fill-opacity:1;fill-rule:evenodd;stroke:none;stroke-width:1;marker:none;visibility:visible;display:inline;overflow:visible" />
      <path
         d="m -194.41151,32.045303 -2.2981,7.424621 -4.24264,3.712311 8.66206,-1.944544 c 0,0 2.47487,2.828427 1.41421,2.828427 -1.06066,0 -12.55114,1.414214 -12.55114,1.414214 l 0.17677,2.298097 16.26346,-3.005204 -7.07107,-6.540738 -0.35355,-6.187184 z"
         id="path2562"
         style="opacity:0.13483145;fill:url(#linearGradient2913);fill-opacity:1;fill-rule:evenodd;stroke:none;stroke-width:1;marker:none;visibility:visible;display:inline;overflow:visible" />
      <path
         d="m -172.13765,42.475128 0.88388,8.838835 -1.94454,-6.010408 -5.12653,1.590991 -1.23743,-2.651651 -6.18719,0.883884 -1.41421,-1.237437 9.01561,-0.353554 0.88388,2.474874 3.88909,-1.944544 1.23744,-1.59099 0,0 z"
         id="path2564"
         style="fill:white;fill-opacity:1;fill-rule:evenodd;stroke:none;stroke-width:1;marker:none;visibility:visible;display:inline;overflow:visible" />
      <path
         d="m -187.16367,55.556604 -3.0052,3.535534 -6.89429,-4.596195 -4.24264,2.298097 -6.89429,6.540738 7.60139,-5.833631 3.71231,-1.06066 7.24785,4.949748 2.47487,-5.833631 z"
         id="path2566"
         style="fill:white;fill-opacity:1;fill-rule:evenodd;stroke:none;stroke-width:1;marker:none;visibility:visible;display:inline;overflow:visible" />
    </g>
    <g
       transform="matrix(-0.1813248,0,0,0.1937786,-27.144075,-4.6219636)"
       id="g2507">
      <path
         d="m -173.72864,65.809652 1.76777,2.828427 -3.71232,1.59099 -2.65165,-2.12132 -11.84403,0.883883 -3.71231,4.949748 -3.35876,-5.480078 -4.24264,2.298097 -5.65685,-0.707106 1.41421,-3.005204 -3.88909,-3.889088 5.48008,-6.187184 -5.3033,0.707107 -2.2981,-2.12132 3.00521,0.53033 3.18198,-5.480078 4.59619,-1.06066 -3.71231,-1.237437 -0.17678,-3.18198 7.24785,-6.363961 2.65165,-8.485282 12.02081,3.535534 3.0052,7.071068 1.06066,-2.298097 3.00521,0.176777 0,2.828427 3.53553,-4.065864 4.77297,5.126524 0,7.247844 -8.3085,7.247845 5.3033,3.005204 -0.17678,3.005203 -3.0052,2.651651 z"
         id="path2425"
         style="fill:url(#radialGradient2925);fill-opacity:1;fill-rule:evenodd;stroke:url(#radialGradient2927);stroke-width:2.66740155;stroke-linecap:butt;stroke-linejoin:miter;stroke-miterlimit:4;stroke-opacity:1;stroke-dasharray:none;stroke-dashoffset:0;marker:none;visibility:visible;display:inline;overflow:visible" />
      <path
         d="m -184.15847,50.96041 0.88389,6.540737 -2.12132,3.358757 4.59619,1.414214 2.65165,5.303301 -12.02081,0.883883 -2.82843,4.065864 -2.2981,-6.187184 4.41942,-2.828427 6.71751,1.944544 -2.65165,-3.535534 1.41422,-6.187185 1.23743,-4.77297 0,0 z"
         id="path2427"
         style="opacity:0.76966289;fill:url(#linearGradient2929);fill-opacity:1;fill-rule:evenodd;stroke:none;stroke-width:1;marker:none;visibility:visible;display:inline;overflow:visible" />
      <path
         d="m -185.21913,52.02107 -4.41941,6.894291 -7.24785,-4.949748 -4.41941,2.474874 -3.53554,-3.005204 -3.18198,2.828427 3.00521,-4.949747 6.89429,-1.59099 8.66205,-4.242641 c 0,0 12.37437,3.712311 11.66726,3.712311 -0.7071,0 -10.25304,0.176776 -10.25304,0.176776 l -1.59099,-2.298097 -4.24264,1.944544 8.66205,3.005204 z"
         id="path2429"
         style="opacity:0.61797755;fill:url(#linearGradient2931);fill-opacity:1;fill-rule:evenodd;stroke:none;stroke-width:1;marker:none;visibility:visible;display:inline;overflow:visible" />
      <path
         d="m -194.23474,31.69175 10.42983,3.535534 1.41421,3.889087 -6.01041,4.242641 -5.65685,-5.480078 -0.17678,-6.187184 z"
         id="path2431"
         style="fill:white;fill-opacity:1;fill-rule:evenodd;stroke:none;stroke-width:1;marker:none;visibility:visible;display:inline;overflow:visible" />
      <path
         d="m -194.41151,32.045303 -2.2981,7.424621 -4.24264,3.712311 8.66206,-1.944544 c 0,0 2.47487,2.828427 1.41421,2.828427 -1.06066,0 -12.55114,1.414214 -12.55114,1.414214 l 0.17677,2.298097 16.26346,-3.005204 -7.07107,-6.540738 -0.35355,-6.187184 z"
         id="path2433"
         style="opacity:0.13483145;fill:url(#linearGradient2933);fill-opacity:1;fill-rule:evenodd;stroke:none;stroke-width:1;marker:none;visibility:visible;display:inline;overflow:visible" />
      <path
         d="m -172.13765,42.475128 0.88388,8.838835 -1.94454,-6.010408 -5.12653,1.590991 -1.23743,-2.651651 -6.18719,0.883884 -1.41421,-1.237437 9.01561,-0.353554 0.88388,2.474874 3.88909,-1.944544 1.23744,-1.59099 0,0 z"
         id="path2435"
         style="fill:white;fill-opacity:1;fill-rule:evenodd;stroke:none;stroke-width:1;marker:none;visibility:visible;display:inline;overflow:visible" />
      <path
         d="m -187.16367,55.556604 -3.0052,3.535534 -6.89429,-4.596195 -4.24264,2.298097 -6.89429,6.540738 7.60139,-5.833631 3.71231,-1.06066 7.24785,4.949748 2.47487,-5.833631 z"
         id="path2437"
         style="fill:white;fill-opacity:1;fill-rule:evenodd;stroke:none;stroke-width:1;marker:none;visibility:visible;display:inline;overflow:visible" />
    </g>
    <path
       d="m 2.5,5.5 17.000001,0 -0.829269,13.151516 C 18.645571,19.050667 18.232385,19.5 17.841464,19.5 l -13.6829273,0 C 3.767616,19.5 3.3544368,19.050667 3.3292685,18.651516 L 2.5,5.5 z"
       id="rect3228"
       style="fill:url(#radialGradient2522);fill-opacity:1;stroke:url(#linearGradient2524);stroke-width:0.99999994;stroke-linejoin:round;stroke-miterlimit:4;stroke-opacity:1;display:inline;enable-background:new" />
    <path
       d="M 3.5000001,6.5 18.500001,6.5 17.73077,17.919354 C 17.706238,18.283477 17.516466,18.5 17.153847,18.5 l -12.3076929,0 C 4.4835352,18.5 4.2937591,18.283477 4.269231,17.919354 L 3.5000001,6.5 z"
       id="path8398"
       style="opacity:0.4;fill:none;stroke:url(#linearGradient2519);stroke-width:0.99999994;stroke-linejoin:miter;stroke-miterlimit:4;stroke-opacity:1;display:inline;enable-background:new" />
    <path
       d="m 10.939649,11.060792 2.802136,0.2194 1.083561,-2.7071547 -1.28208,0.9247029 c 0,0 -0.549734,-1.3158051 -0.944855,-1.4215827 -0.395122,-0.1057779 -2.080903,-0.070515 -2.080903,-0.070515 0.536197,0.1360851 0.952917,1.0815768 0.959325,1.0923025 0.167279,0.2801056 0.635535,1.222634 0.635535,1.222634 l -1.172719,0.740218 0,-5e-6 z"
       id="path41"
       style="opacity:0.8;fill:white;fill-opacity:1;fill-rule:evenodd;stroke:none;display:inline;enable-background:new" />
    <path
       d="M 11.286317,9.1881332 10.358759,11.003983 8.4518699,9.7699096 c 0,0 0.8647007,-1.6748148 1.5461265,-1.6748148 0.6871916,0 0.9942776,0.607867 1.2883206,1.0930384 l 0,0 z"
       id="path130"
       style="opacity:0.6;fill:white;fill-opacity:1;fill-rule:evenodd;stroke:none;stroke-width:1px;marker:none;visibility:visible;display:inline;overflow:visible;enable-background:new" />
    <path
       d="M 12.651658,13.499498 10.845039,15.715276 12.569076,18 l 0.03189,-1.439036 c 0,0 1.269901,0.122985 1.561362,-0.170515 0.29146,-0.293499 1.503984,-1.773325 1.503984,-1.773325 -0.389289,0.402125 -1.393815,0.283151 -1.406072,0.283281 -0.320115,0.0034 -1.587088,-0.02699 -1.587088,-0.02699 l -0.02149,-1.373902 -2e-6,-1.2e-5 z"
       id="path139"
       style="opacity:0.8;fill:white;fill-opacity:1;fill-rule:evenodd;stroke:none;display:inline;enable-background:new" />
    <path
       d="m 14.347139,14.647483 -1.041349,-1.749674 2.011494,-1.044641 c 0,0 0.955749,1.621864 0.605595,2.221773 -0.353115,0.604986 -1.019067,0.562981 -1.57574,0.572542 l 0,0 z"
       id="path140"
       style="opacity:0.6;fill:white;fill-opacity:1;fill-rule:evenodd;stroke:none;stroke-width:1px;marker:none;visibility:visible;display:inline;overflow:visible;enable-background:new" />
    <path
       d="M 9.4924869,13.370832 8.60063,10.960434 6,11.149041 l 1.0675878,0.79809 c 0,0 -0.7372788,1.068176 -0.6347707,1.473808 0.1025086,0.405633 0.680827,2.086163 0.680827,2.086163 -0.1454565,-0.546824 0.4560691,-1.380961 0.4620748,-1.39193 0.1568515,-0.286389 0.8144225,-1.398167 0.8144225,-1.398167 l 1.1023455,0.653827 0,0 z"
       id="path142"
       style="opacity:0.8;fill:white;fill-opacity:1;fill-rule:evenodd;stroke:none;display:inline;enable-background:new" />
    <path
       d="m 7.7084571,14.344391 1.9971524,-0.05351 -0.12102,2.310179 c 0,0 -1.8465086,0.04113 -2.1785297,-0.569539 -0.3348296,-0.615837 0.03281,-1.187217 0.3023972,-1.687123 l 1e-7,-4e-6 z"
       id="path143"
       style="opacity:0.6;fill:white;fill-opacity:1;fill-rule:evenodd;stroke:none;stroke-width:1px;marker:none;visibility:visible;display:inline;overflow:visible;enable-background:new" />
    <path
       d="m 18.526818,6.0011687 c -5.056612,0.027044 -10.0830197,-0.0078 -15.1403531,0 C 2.7585377,6.1527643 3.0964725,6.910709 3.0485048,7.3918853 3.1256695,8.9270832 3.2891103,10.469009 3.3924681,12 8.605795,11.128739 13.600746,10.33206 18.722811,9.4314446 18.994239,8.4776669 19.028541,7.3095203 18.983353,6.2922991 18.903719,6.1062462 18.709834,5.9969939 18.526818,6.0011687 z"
       id="path3455"
       style="fill:url(#linearGradient2503);fill-opacity:1;stroke:none;display:inline;enable-background:new" />
  </g>
</svg>
