<?xml version="1.0" encoding="UTF-8" standalone="no"?>
<!-- Created with Inkscape (http://www.inkscape.org/) -->

<svg
   xmlns:svg="http://www.w3.org/2000/svg"
   xmlns="http://www.w3.org/2000/svg"
   xmlns:xlink="http://www.w3.org/1999/xlink"
   version="1.1"
   width="22"
   height="22"
   id="svg2931">
  <defs
     id="defs2933">
    <linearGradient
       x1="97.717728"
       y1="17.833755"
       x2="62.373119"
       y2="17.833755"
       id="linearGradient3471"
       xlink:href="#linearGradient2793"
       gradientUnits="userSpaceOnUse"
       gradientTransform="matrix(0.2208277,0,0,0.2160808,-2.1086239,-1.7480921)"
       spreadMethod="reflect" />
    <linearGradient
       id="linearGradient2793">
      <stop
         id="stop2795"
         style="stop-color:#555753;stop-opacity:1"
         offset="0" />
      <stop
         id="stop2797"
         style="stop-color:#d3d7cf;stop-opacity:0"
         offset="1" />
    </linearGradient>
    <linearGradient
       x1="32.626884"
       y1="37.21664"
       x2="63.999931"
       y2="37.21664"
       id="linearGradient3473"
       xlink:href="#linearGradient2793"
       gradientUnits="userSpaceOnUse"
       gradientTransform="matrix(0.214231,0,0,0.19643,-1.686422,-1.3151856)"
       spreadMethod="reflect" />
    <linearGradient
       x1="63.999081"
       y1="6.4738212"
       x2="63.999081"
       y2="31.225994"
       id="linearGradient3475"
       xlink:href="#linearGradient4302"
       gradientUnits="userSpaceOnUse"
       gradientTransform="matrix(0.2057158,0,0,0.2088959,-1.1414726,-2.1579663)" />
    <linearGradient
       id="linearGradient4302">
      <stop
         id="stop4304"
         style="stop-color:#c0c0c0;stop-opacity:1"
         offset="0" />
      <stop
         id="stop4306"
         style="stop-color:#abacb0;stop-opacity:1"
         offset="1" />
    </linearGradient>
    <linearGradient
       x1="92.004761"
       y1="47.258526"
       x2="55.992207"
       y2="10.900407"
       id="linearGradient3477"
       xlink:href="#linearGradient2793"
       gradientUnits="userSpaceOnUse"
       gradientTransform="matrix(0.1795663,0,0,0.1823422,0.5319063,0.3934159)"
       spreadMethod="reflect" />
    <linearGradient
       x1="4.8849959"
       y1="38.13002"
       x2="31.710253"
       y2="39.751118"
       id="linearGradient3446"
       xlink:href="#linearGradient2338"
       gradientUnits="userSpaceOnUse"
       gradientTransform="matrix(0.4683195,0,0,0.5325303,2.5006174,2.2058077)" />
    <linearGradient
       id="linearGradient2338">
      <stop
         id="stop3317"
         style="stop-color:#f8f8f8;stop-opacity:0.15463917"
         offset="0" />
      <stop
         id="stop3322"
         style="stop-color:#b0b2b6;stop-opacity:0.17525773"
         offset="0.49817383" />
      <stop
         id="stop3319"
         style="stop-color:#5b5e62;stop-opacity:0.3298969"
         offset="0.83783782" />
      <stop
         id="stop2342"
         style="stop-color:#ffffff;stop-opacity:0.15463917"
         offset="1" />
    </linearGradient>
    <linearGradient
       x1="29.232979"
       y1="2.8665369"
       x2="29.232977"
       y2="57.745785"
       id="linearGradient3448"
       xlink:href="#linearGradient4294"
       gradientUnits="userSpaceOnUse"
       gradientTransform="matrix(0.3871275,0,0,0.3761882,0.68347822,8.9216428)" />
    <linearGradient
       id="linearGradient4294">
      <stop
         id="stop4296"
         style="stop-color:#bfc2c2;stop-opacity:1"
         offset="0" />
      <stop
         id="stop4298"
         style="stop-color:#676b73;stop-opacity:1"
         offset="1" />
    </linearGradient>
    <linearGradient
       x1="23.373713"
       y1="53.131126"
       x2="13.483184"
       y2="53.131126"
       id="linearGradient3488"
       xlink:href="#linearGradient157"
       gradientUnits="userSpaceOnUse" />
    <linearGradient
       id="linearGradient157">
      <stop
         id="stop158"
         style="stop-color:#babdb6;stop-opacity:1"
         offset="0" />
      <stop
         id="stop159"
         style="stop-color:#f1f5ec;stop-opacity:1"
         offset="1" />
    </linearGradient>
    <linearGradient
       x1="27.405413"
       y1="52.355087"
       x2="37.462498"
       y2="68.298302"
       id="linearGradient3490"
       xlink:href="#linearGradient2793"
       gradientUnits="userSpaceOnUse"
       gradientTransform="matrix(0.3397845,0,0,0.366125,0.76225221,0.930811)"
       spreadMethod="reflect" />
    <linearGradient
       id="linearGradient5060">
      <stop
         id="stop5062"
         style="stop-color:#000000;stop-opacity:1"
         offset="0" />
      <stop
         id="stop5064"
         style="stop-color:#000000;stop-opacity:0"
         offset="1" />
    </linearGradient>
    <radialGradient
       cx="62.71241"
       cy="108.02493"
       r="47.38271"
       fx="62.71241"
       fy="108.02493"
       id="radialGradient2929"
       xlink:href="#linearGradient5060"
       gradientUnits="userSpaceOnUse"
       gradientTransform="matrix(0.16865857,0,0,0.05591461,0.65787775,23.310713)" />
    <linearGradient
       x1="25.632622"
       y1="10.611729"
       x2="38.714096"
       y2="18.389904"
       id="linearGradient4134-869"
       xlink:href="#linearGradient5176-464"
       gradientUnits="userSpaceOnUse"
       gradientTransform="matrix(0,-0.1654066,0.15562199,0,7.3794882,29.959153)" />
    <linearGradient
       id="linearGradient5176-464">
      <stop
         id="stop4367"
         style="stop-color:#000000;stop-opacity:1"
         offset="0" />
      <stop
         id="stop4369"
         style="stop-color:#000000;stop-opacity:0"
         offset="1" />
    </linearGradient>
    <linearGradient
       x1="24.365993"
       y1="20.246058"
       x2="32.600704"
       y2="28.554564"
       id="linearGradient4138-530"
       xlink:href="#linearGradient5162-161"
       gradientUnits="userSpaceOnUse"
       gradientTransform="matrix(0,-0.1654066,0.15562199,0,7.3794882,29.959153)" />
    <linearGradient
       id="linearGradient5162-161">
      <stop
         id="stop4493"
         style="stop-color:#b9b9b9;stop-opacity:1"
         offset="0" />
      <stop
         id="stop4495"
         style="stop-color:#ffffff;stop-opacity:1"
         offset="1" />
    </linearGradient>
    <linearGradient
       x1="22.008699"
       y1="36.509514"
       x2="23.585091"
       y2="14.412428"
       id="linearGradient4141-797"
       xlink:href="#linearGradient5162-23"
       gradientUnits="userSpaceOnUse"
       gradientTransform="matrix(0,-0.1654066,0.15562199,0,7.3794882,29.959153)" />
    <linearGradient
       id="linearGradient5162-23">
      <stop
         id="stop4511"
         style="stop-color:#b9b9b9;stop-opacity:1"
         offset="0" />
      <stop
         id="stop4513"
         style="stop-color:#ffffff;stop-opacity:1"
         offset="1" />
    </linearGradient>
    <radialGradient
       cx="23.688078"
       cy="14.210698"
       r="22.597088"
       fx="23.688078"
       fy="14.210698"
       id="radialGradient4144-581"
       xlink:href="#linearGradient5188-570"
       gradientUnits="userSpaceOnUse"
       gradientTransform="matrix(0,-0.35325343,0.32845688,0,4.9410256,34.408883)" />
    <linearGradient
       id="linearGradient5188-570">
      <stop
         id="stop4481"
         style="stop-color:#ffffff;stop-opacity:1"
         offset="0" />
      <stop
         id="stop4483"
         style="stop-color:#a9a9a7;stop-opacity:1"
         offset="1" />
    </linearGradient>
    <radialGradient
       cx="20.089987"
       cy="10.853651"
       r="22.597088"
       fx="20.089987"
       fy="10.853651"
       id="radialGradient4146-436"
       xlink:href="#linearGradient5196-66"
       gradientUnits="userSpaceOnUse"
       gradientTransform="matrix(0,-0.29612232,0.27533626,0,5.5198102,32.574884)" />
    <linearGradient
       id="linearGradient5196-66">
      <stop
         id="stop4487"
         style="stop-color:#dfe0dd;stop-opacity:1"
         offset="0" />
      <stop
         id="stop4489"
         style="stop-color:#858a80;stop-opacity:1"
         offset="1" />
    </linearGradient>
    <linearGradient
       x1="25.632622"
       y1="10.611729"
       x2="38.714096"
       y2="18.389904"
       id="linearGradient4151-108"
       xlink:href="#linearGradient5176-348"
       gradientUnits="userSpaceOnUse"
       gradientTransform="matrix(-0.15562199,0,0,0.1654066,17.327943,16.678232)" />
    <linearGradient
       id="linearGradient5176-348">
      <stop
         id="stop4337"
         style="stop-color:#000000;stop-opacity:1"
         offset="0" />
      <stop
         id="stop4339"
         style="stop-color:#000000;stop-opacity:0"
         offset="1" />
    </linearGradient>
    <linearGradient
       x1="24.365993"
       y1="20.246058"
       x2="32.600704"
       y2="28.554564"
       id="linearGradient4155-389"
       xlink:href="#linearGradient5162-63"
       gradientUnits="userSpaceOnUse"
       gradientTransform="matrix(-0.15562199,0,0,0.1654066,17.327943,16.678232)" />
    <linearGradient
       id="linearGradient5162-63">
      <stop
         id="stop4379"
         style="stop-color:#b9b9b9;stop-opacity:1"
         offset="0" />
      <stop
         id="stop4381"
         style="stop-color:#ffffff;stop-opacity:1"
         offset="1" />
    </linearGradient>
    <linearGradient
       x1="22.008699"
       y1="36.509514"
       x2="23.585091"
       y2="14.412428"
       id="linearGradient4158-163"
       xlink:href="#linearGradient5162-224"
       gradientUnits="userSpaceOnUse"
       gradientTransform="matrix(-0.15562199,0,0,0.1654066,17.327943,16.678232)" />
    <linearGradient
       id="linearGradient5162-224">
      <stop
         id="stop4421"
         style="stop-color:#b9b9b9;stop-opacity:1"
         offset="0" />
      <stop
         id="stop4423"
         style="stop-color:#ffffff;stop-opacity:1"
         offset="1" />
    </linearGradient>
    <radialGradient
       cx="23.688078"
       cy="14.210698"
       r="22.597088"
       fx="23.688078"
       fy="14.210698"
       id="radialGradient4161-18"
       xlink:href="#linearGradient5188-172"
       gradientUnits="userSpaceOnUse"
       gradientTransform="matrix(-0.33235673,0,0,0.34910835,21.514449,14.086453)" />
    <linearGradient
       id="linearGradient5188-172">
      <stop
         id="stop4409"
         style="stop-color:#ffffff;stop-opacity:1"
         offset="0" />
      <stop
         id="stop4411"
         style="stop-color:#a9a9a7;stop-opacity:1"
         offset="1" />
    </linearGradient>
    <radialGradient
       cx="20.089987"
       cy="10.853651"
       r="22.597088"
       fx="20.089987"
       fy="10.853651"
       id="radialGradient4163-846"
       xlink:href="#linearGradient5196-715"
       gradientUnits="userSpaceOnUse"
       gradientTransform="matrix(-0.27860527,0,0,0.29264781,19.788939,14.701629)" />
    <linearGradient
       id="linearGradient5196-715">
      <stop
         id="stop4415"
         style="stop-color:#dfe0dd;stop-opacity:1"
         offset="0" />
      <stop
         id="stop4417"
         style="stop-color:#858a80;stop-opacity:1"
         offset="1" />
    </linearGradient>
    <linearGradient
       x1="25.632622"
       y1="10.611729"
       x2="38.714096"
       y2="18.389904"
       id="linearGradient4168-644"
       xlink:href="#linearGradient5176-319"
       gradientUnits="userSpaceOnUse"
       gradientTransform="matrix(0,0.1654066,-0.15562199,0,12.877075,17.362775)" />
    <linearGradient
       id="linearGradient5176-319">
      <stop
         id="stop4457"
         style="stop-color:#000000;stop-opacity:1"
         offset="0" />
      <stop
         id="stop4459"
         style="stop-color:#000000;stop-opacity:0"
         offset="1" />
    </linearGradient>
    <linearGradient
       x1="24.365993"
       y1="20.246058"
       x2="32.600704"
       y2="28.554564"
       id="linearGradient4172-991"
       xlink:href="#linearGradient5162-529"
       gradientUnits="userSpaceOnUse"
       gradientTransform="matrix(0,0.1654066,-0.15562199,0,12.877075,17.362775)" />
    <linearGradient
       id="linearGradient5162-529">
      <stop
         id="stop4469"
         style="stop-color:#b9b9b9;stop-opacity:1"
         offset="0" />
      <stop
         id="stop4471"
         style="stop-color:#ffffff;stop-opacity:1"
         offset="1" />
    </linearGradient>
    <linearGradient
       x1="22.008699"
       y1="36.509514"
       x2="23.585091"
       y2="14.412428"
       id="linearGradient4175-5"
       xlink:href="#linearGradient5162-57"
       gradientUnits="userSpaceOnUse"
       gradientTransform="matrix(0,0.1654066,-0.15562199,0,12.877075,17.362775)" />
    <linearGradient
       id="linearGradient5162-57">
      <stop
         id="stop4463"
         style="stop-color:#b9b9b9;stop-opacity:1"
         offset="0" />
      <stop
         id="stop4465"
         style="stop-color:#ffffff;stop-opacity:1"
         offset="1" />
    </linearGradient>
    <radialGradient
       cx="23.688078"
       cy="14.210698"
       r="22.597088"
       fx="23.688078"
       fy="14.210698"
       id="radialGradient4178-896"
       xlink:href="#linearGradient5188-641"
       gradientUnits="userSpaceOnUse"
       gradientTransform="matrix(0,0.35325343,-0.32845688,0,15.315538,12.913047)" />
    <linearGradient
       id="linearGradient5188-641">
      <stop
         id="stop4499"
         style="stop-color:#ffffff;stop-opacity:1"
         offset="0" />
      <stop
         id="stop4501"
         style="stop-color:#a9a9a7;stop-opacity:1"
         offset="1" />
    </linearGradient>
    <radialGradient
       cx="20.089987"
       cy="10.853651"
       r="22.597088"
       fx="20.089987"
       fy="10.853651"
       id="radialGradient4180-624"
       xlink:href="#linearGradient5196-48"
       gradientUnits="userSpaceOnUse"
       gradientTransform="matrix(0,0.29612232,-0.27533626,0,14.736754,14.747045)" />
    <linearGradient
       id="linearGradient5196-48">
      <stop
         id="stop4505"
         style="stop-color:#dfe0dd;stop-opacity:1"
         offset="0" />
      <stop
         id="stop4507"
         style="stop-color:#858a80;stop-opacity:1"
         offset="1" />
    </linearGradient>
    <linearGradient
       x1="25.632622"
       y1="10.611729"
       x2="38.714096"
       y2="18.389904"
       id="linearGradient4089-15"
       xlink:href="#linearGradient5176-565"
       gradientUnits="userSpaceOnUse"
       gradientTransform="matrix(-0.15562199,0,0,0.1654066,12.374891,21.357768)" />
    <linearGradient
       id="linearGradient5176-565">
      <stop
         id="stop4403"
         style="stop-color:#000000;stop-opacity:1"
         offset="0" />
      <stop
         id="stop4405"
         style="stop-color:#000000;stop-opacity:0"
         offset="1" />
    </linearGradient>
    <linearGradient
       x1="24.365993"
       y1="20.246058"
       x2="32.600704"
       y2="28.554564"
       id="linearGradient4093-450"
       xlink:href="#linearGradient5162-364"
       gradientUnits="userSpaceOnUse"
       gradientTransform="matrix(-0.15562199,0,0,0.1654066,12.374891,21.357768)" />
    <linearGradient
       id="linearGradient5162-364">
      <stop
         id="stop4397"
         style="stop-color:#b9b9b9;stop-opacity:1"
         offset="0" />
      <stop
         id="stop4399"
         style="stop-color:#ffffff;stop-opacity:1"
         offset="1" />
    </linearGradient>
    <linearGradient
       x1="22.008699"
       y1="36.509514"
       x2="23.585091"
       y2="14.412428"
       id="linearGradient4096-343"
       xlink:href="#linearGradient5162-792"
       gradientUnits="userSpaceOnUse"
       gradientTransform="matrix(-0.15562199,0,0,0.1654066,12.374891,21.357768)" />
    <linearGradient
       id="linearGradient5162-792">
      <stop
         id="stop4373"
         style="stop-color:#b9b9b9;stop-opacity:1"
         offset="0" />
      <stop
         id="stop4375"
         style="stop-color:#ffffff;stop-opacity:1"
         offset="1" />
    </linearGradient>
    <radialGradient
       cx="23.688078"
       cy="14.210698"
       r="22.597088"
       fx="23.688078"
       fy="14.210698"
       id="radialGradient4099-801"
       xlink:href="#linearGradient5188-162"
       gradientUnits="userSpaceOnUse"
       gradientTransform="matrix(-0.33235673,0,0,0.34910843,16.561399,18.765989)" />
    <linearGradient
       id="linearGradient5188-162">
      <stop
         id="stop4385"
         style="stop-color:#ffffff;stop-opacity:1"
         offset="0" />
      <stop
         id="stop4387"
         style="stop-color:#a9a9a7;stop-opacity:1"
         offset="1" />
    </linearGradient>
    <radialGradient
       cx="20.089987"
       cy="10.853651"
       r="22.597088"
       fx="20.089987"
       fy="10.853651"
       id="radialGradient4101-683"
       xlink:href="#linearGradient5196-510"
       gradientUnits="userSpaceOnUse"
       gradientTransform="matrix(-0.27860518,0,0,0.29264781,14.835889,19.381164)" />
    <linearGradient
       id="linearGradient5196-510">
      <stop
         id="stop4391"
         style="stop-color:#dfe0dd;stop-opacity:1"
         offset="0" />
      <stop
         id="stop4393"
         style="stop-color:#858a80;stop-opacity:1"
         offset="1" />
    </linearGradient>
    <radialGradient
       cx="24.837126"
       cy="40.663769"
       r="21.478369"
       fx="24.837126"
       fy="40.663769"
       id="radialGradient3241-611"
       xlink:href="#linearGradient5150-442"
       gradientUnits="userSpaceOnUse"
       gradientTransform="matrix(-0.17227289,0,0,0.05952782,12.898493,25.487761)" />
    <linearGradient
       id="linearGradient5150-442">
      <stop
         id="stop4343"
         style="stop-color:#000000;stop-opacity:1"
         offset="0" />
      <stop
         id="stop4345"
         style="stop-color:#000000;stop-opacity:0"
         offset="1" />
    </linearGradient>
    <linearGradient
       x1="25.632622"
       y1="10.611729"
       x2="38.714096"
       y2="18.389904"
       id="linearGradient4185-882"
       xlink:href="#linearGradient5176-720"
       gradientUnits="userSpaceOnUse"
       gradientTransform="matrix(0.15562199,0,0,0.1654066,4.0666419,16.736726)" />
    <linearGradient
       id="linearGradient5176-720">
      <stop
         id="stop4349"
         style="stop-color:#000000;stop-opacity:1"
         offset="0" />
      <stop
         id="stop4351"
         style="stop-color:#000000;stop-opacity:0"
         offset="1" />
    </linearGradient>
    <linearGradient
       x1="24.365993"
       y1="20.246058"
       x2="32.600704"
       y2="28.554564"
       id="linearGradient4189-826"
       xlink:href="#linearGradient5162-384"
       gradientUnits="userSpaceOnUse"
       gradientTransform="matrix(0.15562199,0,0,0.1654066,4.0666419,16.736726)" />
    <linearGradient
       id="linearGradient5162-384">
      <stop
         id="stop4451"
         style="stop-color:#b9b9b9;stop-opacity:1"
         offset="0" />
      <stop
         id="stop4453"
         style="stop-color:#ffffff;stop-opacity:1"
         offset="1" />
    </linearGradient>
    <linearGradient
       x1="22.008699"
       y1="36.509514"
       x2="23.585091"
       y2="14.412428"
       id="linearGradient4192-942"
       xlink:href="#linearGradient5162-268"
       gradientUnits="userSpaceOnUse"
       gradientTransform="matrix(0.15562199,0,0,0.1654066,4.0666419,16.736726)" />
    <linearGradient
       id="linearGradient5162-268">
      <stop
         id="stop4445"
         style="stop-color:#b9b9b9;stop-opacity:1"
         offset="0" />
      <stop
         id="stop4447"
         style="stop-color:#ffffff;stop-opacity:1"
         offset="1" />
    </linearGradient>
    <radialGradient
       cx="23.688078"
       cy="14.210698"
       r="22.597088"
       fx="23.688078"
       fy="14.210698"
       id="radialGradient4195-78"
       xlink:href="#linearGradient5188-478"
       gradientUnits="userSpaceOnUse"
       gradientTransform="matrix(0.33235673,0,0,0.34910835,-0.1198635,14.144948)" />
    <linearGradient
       id="linearGradient5188-478">
      <stop
         id="stop4433"
         style="stop-color:#ffffff;stop-opacity:1"
         offset="0" />
      <stop
         id="stop4435"
         style="stop-color:#a9a9a7;stop-opacity:1"
         offset="1" />
    </linearGradient>
    <radialGradient
       cx="20.089987"
       cy="10.853651"
       r="22.597088"
       fx="20.089987"
       fy="10.853651"
       id="radialGradient4197-173"
       xlink:href="#linearGradient5196-218"
       gradientUnits="userSpaceOnUse"
       gradientTransform="matrix(0.27860527,0,0,0.29264781,1.6056452,14.760123)" />
    <linearGradient
       id="linearGradient5196-218">
      <stop
         id="stop4439"
         style="stop-color:#dfe0dd;stop-opacity:1"
         offset="0" />
      <stop
         id="stop4441"
         style="stop-color:#858a80;stop-opacity:1"
         offset="1" />
    </linearGradient>
    <radialGradient
       cx="24.837126"
       cy="40.663769"
       r="21.478369"
       fx="24.837126"
       fy="40.663769"
       id="radialGradient3229-319"
       xlink:href="#linearGradient5150-184"
       gradientUnits="userSpaceOnUse"
       gradientTransform="matrix(-0.17227289,0,0,0.05952782,14.439447,25.780231)" />
    <linearGradient
       id="linearGradient5150-184">
      <stop
         id="stop4427"
         style="stop-color:#000000;stop-opacity:1"
         offset="0" />
      <stop
         id="stop4429"
         style="stop-color:#000000;stop-opacity:0"
         offset="1" />
    </linearGradient>
    <linearGradient
       x1="73.373505"
       y1="82.788712"
       x2="89.456299"
       y2="82.788712"
       id="linearGradient4116-12"
       xlink:href="#linearGradient2793-725"
       gradientUnits="userSpaceOnUse"
       gradientTransform="matrix(0.15908068,0,0,0.1618104,0.80491063,9.9599403)" />
    <linearGradient
       id="linearGradient2793-725">
      <stop
         id="stop4361"
         style="stop-color:#555555;stop-opacity:1"
         offset="0" />
      <stop
         id="stop4363"
         style="stop-color:#d3d4d1;stop-opacity:0"
         offset="1" />
    </linearGradient>
    <linearGradient
       x1="24.365993"
       y1="20.246058"
       x2="32.600704"
       y2="28.554564"
       id="linearGradient4120-403"
       xlink:href="#linearGradient5162-579"
       gradientUnits="userSpaceOnUse"
       gradientTransform="matrix(0.15562199,0,0,0.1654066,9.010914,21.425324)" />
    <linearGradient
       id="linearGradient5162-579">
      <stop
         id="stop4475"
         style="stop-color:#b9b9b9;stop-opacity:1"
         offset="0" />
      <stop
         id="stop4477"
         style="stop-color:#ffffff;stop-opacity:1"
         offset="1" />
    </linearGradient>
    <linearGradient
       x1="22.008699"
       y1="36.509514"
       x2="23.585091"
       y2="14.412428"
       id="linearGradient4123-739"
       xlink:href="#linearGradient5162-958"
       gradientUnits="userSpaceOnUse"
       gradientTransform="matrix(0.15562199,0,0,0.1654066,9.010914,21.425324)" />
    <linearGradient
       id="linearGradient5162-958">
      <stop
         id="stop4355"
         style="stop-color:#b9b9b9;stop-opacity:1"
         offset="0" />
      <stop
         id="stop4357"
         style="stop-color:#ffffff;stop-opacity:1"
         offset="1" />
    </linearGradient>
    <radialGradient
       cx="23.688078"
       cy="14.210698"
       r="22.597088"
       fx="23.688078"
       fy="14.210698"
       id="radialGradient4126-544"
       xlink:href="#linearGradient5188-93"
       gradientUnits="userSpaceOnUse"
       gradientTransform="matrix(0.33235673,0,0,0.34910843,4.8244096,18.833545)" />
    <linearGradient
       id="linearGradient5188-93">
      <stop
         id="stop4319"
         style="stop-color:#ffffff;stop-opacity:1"
         offset="0" />
      <stop
         id="stop4321"
         style="stop-color:#a9a9a7;stop-opacity:1"
         offset="1" />
    </linearGradient>
    <radialGradient
       cx="20.089987"
       cy="10.853651"
       r="22.597088"
       fx="20.089987"
       fy="10.853651"
       id="radialGradient4128-350"
       xlink:href="#linearGradient5196-986"
       gradientUnits="userSpaceOnUse"
       gradientTransform="matrix(0.27860518,0,0,0.29264781,6.5499197,19.44872)" />
    <linearGradient
       id="linearGradient5196-986">
      <stop
         id="stop4325"
         style="stop-color:#dfe0dd;stop-opacity:1"
         offset="0" />
      <stop
         id="stop4327"
         style="stop-color:#858a80;stop-opacity:1"
         offset="1" />
    </linearGradient>
    <linearGradient
       id="linearGradient5150-745">
      <stop
         id="stop4331"
         style="stop-color:#000000;stop-opacity:1"
         offset="0" />
      <stop
         id="stop4333"
         style="stop-color:#000000;stop-opacity:0"
         offset="1" />
    </linearGradient>
    <radialGradient
       cx="24.837126"
       cy="40.663769"
       r="21.478369"
       fx="24.837126"
       fy="40.663769"
       id="radialGradient3224"
       xlink:href="#linearGradient5150-745"
       gradientUnits="userSpaceOnUse"
       gradientTransform="matrix(0.17227289,0,0,0.05952782,8.4873143,25.555317)" />
    <linearGradient
       id="linearGradient5176-464-7">
      <stop
         id="stop4367-7"
         style="stop-color:#000000;stop-opacity:1"
         offset="0" />
      <stop
         id="stop4369-1"
         style="stop-color:#000000;stop-opacity:0"
         offset="1" />
    </linearGradient>
    <linearGradient
       id="linearGradient5162-161-1">
      <stop
         id="stop4493-5"
         style="stop-color:#b9b9b9;stop-opacity:1"
         offset="0" />
      <stop
         id="stop4495-9"
         style="stop-color:#ffffff;stop-opacity:1"
         offset="1" />
    </linearGradient>
    <linearGradient
       id="linearGradient5188-570-7">
      <stop
         id="stop4481-7"
         style="stop-color:#ffffff;stop-opacity:1"
         offset="0" />
      <stop
         id="stop4483-6"
         style="stop-color:#a9a9a7;stop-opacity:1"
         offset="1" />
    </linearGradient>
    <linearGradient
       id="linearGradient3827">
      <stop
         id="stop3829"
         style="stop-color:#555753;stop-opacity:1"
         offset="0" />
      <stop
         id="stop3831"
         style="stop-color:#888a85;stop-opacity:1"
         offset="1" />
    </linearGradient>
    <radialGradient
       cx="23.688078"
       cy="14.210698"
       r="22.597088"
       fx="23.688078"
       fy="14.210698"
       id="radialGradient3143"
       xlink:href="#linearGradient5188-570-7"
       gradientUnits="userSpaceOnUse"
       gradientTransform="matrix(0,-0.4337136,0.3773185,0,10.520504,31.144526)" />
    <radialGradient
       cx="16.998659"
       cy="29.456635"
       r="3.6444795"
       fx="16.998659"
       fy="29.456635"
       id="radialGradient3145"
       xlink:href="#linearGradient3827"
       gradientUnits="userSpaceOnUse"
       gradientTransform="matrix(1.0226772,-0.00400602,0.00723163,1.8461281,-1.59716,-37.312623)" />
    <linearGradient
       x1="24.365993"
       y1="20.246058"
       x2="32.600704"
       y2="28.554564"
       id="linearGradient3147"
       xlink:href="#linearGradient5162-161-1"
       gradientUnits="userSpaceOnUse"
       gradientTransform="matrix(0,-0.2030811,0.20095862,0,12.90391,25.681287)" />
    <linearGradient
       x1="25.632622"
       y1="10.611729"
       x2="38.714096"
       y2="18.389904"
       id="linearGradient3149"
       xlink:href="#linearGradient5176-464-7"
       gradientUnits="userSpaceOnUse"
       gradientTransform="matrix(0,-0.2030811,0.1787725,0,14.197627,24.980557)" />
  </defs>
  <g
     transform="translate(0,-10.000279)"
     id="layer1">
    <g
       transform="matrix(0.9528218,0,0,1.0788674,0.57723257,6.1874873)"
       id="g3483">
      <path
         d="m 41.359416,53.131126 c 0,1.117935 -1.754141,2.228987 -4.767202,3.019486 -3.01306,0.790499 -4.761488,1.250711 -9.022598,1.250711 -4.26111,0 -6.009968,-0.460212 -9.023028,-1.250711 -3.01306,-0.790499 -4.767201,-1.901551 -4.767201,-3.019486 0,-1.117935 1.754141,-2.228987 4.767201,-3.019486 3.01306,-0.790499 4.761918,-1.250711 9.023028,-1.250711 4.26111,0 6.009538,0.460212 9.022598,1.250711 3.013061,0.790499 4.767202,1.901551 4.767202,3.019486 z"
         transform="matrix(0.422131,0,0,0.4304658,-0.6630769,-2.1932058)"
         id="path2512"
         style="fill:url(#linearGradient3488);fill-opacity:1;fill-rule:evenodd;stroke:#838383;stroke-width:2.25523639;stroke-linecap:round;stroke-linejoin:round;stroke-miterlimit:4;stroke-opacity:1;stroke-dasharray:none;stroke-dashoffset:0;marker:none;visibility:visible;display:inline;overflow:visible" />
      <path
         d="m 41.139781,53.131126 c 0,1.117935 -1.754141,2.228987 -4.767201,3.019486 -3.013061,0.790499 -4.651666,1.250711 -8.912776,1.250711 -4.26111,0 -5.900156,-0.460212 -8.913216,-1.250711 -3.01306,-0.790499 -4.767201,-1.901551 -4.767201,-3.019486 0,-1.117935 1.754141,-2.228987 4.767201,-3.019486 3.01306,-0.790499 4.652106,-1.250711 8.913216,-1.250711 4.26111,0 5.899715,0.460212 8.912776,1.250711 3.01306,0.790499 4.767201,1.901551 4.767201,3.019486 z"
         transform="matrix(0.4042741,0,0,0.366125,-0.126375,0.930811)"
         id="path2514"
         style="fill:#d9dcd5;fill-opacity:1;fill-rule:evenodd;stroke:#838383;stroke-width:2.49880481;stroke-linecap:round;stroke-linejoin:round;stroke-miterlimit:4;stroke-opacity:1;stroke-dasharray:none;stroke-dashoffset:0;marker:none;visibility:visible;display:inline;overflow:visible" />
      <path
         d="m 16.505104,20.383445 a 5.530415,1.5634265 0 0 1 -11.0608297,0 5.530415,1.5634265 0 1 1 11.0608297,0 z"
         id="path2518"
         style="opacity:0.5;fill:url(#linearGradient3490);fill-opacity:1;fill-rule:evenodd;stroke:none;stroke-width:2.49880481;marker:none;visibility:visible;display:inline;overflow:visible" />
    </g>
    <path
       d="m 16.466218,27.975942 a 3.7001407,1.2785599 0 0 1 -7.4002809,0 3.7001407,1.2785599 0 1 1 7.4002809,0 z"
       id="path4275"
       style="opacity:0.3258427;fill:url(#radialGradient3224);fill-opacity:1;fill-rule:evenodd;stroke:none;stroke-width:4.74098778;marker:none;visibility:visible;display:inline;overflow:visible" />
    <path
       d="m 10.413942,27.63968 -0.275104,0.467841 0.57772,0.263159 0.412654,-0.35088 1.843193,0.1462 0.577717,0.818722 0.522695,-0.906442 0.660249,0.380121 0.880329,-0.116961 -0.220083,-0.497081 0.605228,-0.643281 -0.85282,-1.0234 0.825312,0.11696 0.357633,-0.35088 -0.467675,0.08772 -0.495187,-0.906441 -0.715269,-0.17544 0.57772,-0.20468 0.02751,-0.526321 -1.127924,-1.052641 -0.412654,-1.403522 -1.870703,0.584801 -0.467675,1.169601 -0.165062,-0.38012 -0.467677,0.02924 0,0.467841 -0.550205,-0.672522 -0.7427814,0.847962 0,1.198841 1.2929864,1.198842 -0.8253122,0.497081 0.027508,0.497079 0.4676752,0.438602 z"
       id="path4273"
       style="fill:url(#radialGradient4126-544);fill-opacity:1;fill-rule:evenodd;stroke:url(#radialGradient4128-350);stroke-width:0.8420285;stroke-linecap:butt;stroke-linejoin:miter;stroke-miterlimit:4;stroke-opacity:1;stroke-dasharray:none;stroke-dashoffset:0;marker:none;visibility:visible;display:inline;overflow:visible" />
    <path
       d="m 12.037053,25.183516 -0.137554,1.081881 0.330124,0.555561 -0.715266,0.233921 -0.412654,0.8772 1.870702,0.146201 0.440163,0.672521 0.357636,-1.023401 -0.687757,-0.46784 -1.045394,0.321639 0.412653,-0.584799 -0.220083,-1.023403 -0.19257,-0.789481 z"
       id="path5158"
       style="opacity:0.76966289;fill:url(#linearGradient4123-739);fill-opacity:1;fill-rule:evenodd;stroke:none;stroke-width:1;marker:none;visibility:visible;display:inline;overflow:visible" />
    <path
       d="m 12.202114,25.358956 0.687759,1.140362 1.127924,-0.818722 0.687757,0.409361 0.550208,-0.497081 0.495186,0.467841 -0.467675,-0.818721 -1.072906,-0.26316 -1.348003,-0.701761 c 0,0 -1.925724,0.614041 -1.815682,0.614041 0.110038,0 1.595599,0.02924 1.595599,0.02924 l 0.247592,-0.38012 0.660249,0.32164 -1.348008,0.49708 z"
       id="path5160"
       style="opacity:0.61797755;fill:url(#linearGradient4120-403);fill-opacity:1;fill-rule:evenodd;stroke:none;stroke-width:1;marker:none;visibility:visible;display:inline;overflow:visible" />
    <path
       d="m 13.605142,21.996352 -1.623111,0.584801 -0.220082,0.643281 0.935352,0.701761 0.880329,-0.906442 0.02752,-1.023401 z"
       id="path5172"
       style="fill:#ffffff;fill-opacity:1;fill-rule:evenodd;stroke:none;stroke-width:1;marker:none;visibility:visible;display:inline;overflow:visible" />
    <path
       d="m 13.632651,22.054832 0.357636,1.228082 0.660247,0.614041 -1.348008,-0.321641 c 0,0 -0.385142,0.467841 -0.220079,0.467841 0.165059,0 1.953232,0.23392 1.953232,0.23392 l -0.02751,0.380121 -2.530952,-0.497081 1.100412,-1.081882 0.05503,-1.023401 z"
       id="path5174"
       style="opacity:0.13483145;fill:url(#linearGradient4116-12);fill-opacity:1;fill-rule:evenodd;stroke:none;stroke-width:1;marker:none;visibility:visible;display:inline;overflow:visible" />
    <path
       d="m 10.16635,23.779994 -0.13755,1.462002 0.302612,-0.994161 0.7978,0.263161 0.192571,-0.438601 0.962865,0.1462 0.22008,-0.20468 -1.403025,-0.05848 -0.137553,0.409361 -0.605229,-0.32164 -0.192571,-0.263161 z"
       id="path5184"
       style="fill:#ffffff;fill-opacity:1;fill-rule:evenodd;stroke:none;stroke-width:1;marker:none;visibility:visible;display:inline;overflow:visible" />
    <path
       d="m 12.504728,25.943758 0.467677,0.5848 1.072904,-0.760241 0.660245,0.380121 1.072904,1.081881 -1.182946,-0.964922 -0.577715,-0.17544 -1.127924,0.818722 -0.385145,-0.964921 z"
       id="path5186"
       style="fill:#ffffff;fill-opacity:1;fill-rule:evenodd;stroke:none;stroke-width:1;marker:none;visibility:visible;display:inline;overflow:visible" />
    <path
       d="m 6.4605432,28.200856 a 3.7001409,1.27856 0 0 0 7.4002818,0 3.7001409,1.27856 0 1 0 -7.4002818,0 z"
       id="path2423"
       style="opacity:0.3258427;fill:url(#radialGradient3229-319);fill-opacity:1;fill-rule:evenodd;stroke:none;stroke-width:4.74098778;marker:none;visibility:visible;display:inline;overflow:visible" />
    <path
       d="m 5.4696691,22.951081 -0.275104,0.467841 0.5777188,0.263159 0.412655,-0.35088 1.8431915,0.1462 0.5777171,0.818721 0.5226967,-0.90644 0.6602488,0.38012 0.88033,-0.116961 -0.220082,-0.49708 0.605227,-0.64328 -0.85282,-1.023401 0.82531,0.11696 0.357635,-0.350881 -0.467677,0.08772 -0.495187,-0.906441 -0.7152676,-0.17544 0.5777176,-0.20468 0.02751,-0.52632 -1.1279226,-1.052642 -0.412655,-1.403521 -1.8707024,0.5848 -0.4676751,1.169601 -0.165062,-0.38012 -0.4676767,0.02924 0,0.46784 -0.5502063,-0.67252 -0.742779,0.84796 0,1.198842 1.2929853,1.198842 -0.8253101,0.49708 0.02751,0.497081 0.4676753,0.4386 z"
       id="path2425"
       style="fill:url(#radialGradient4195-78);fill-opacity:1;fill-rule:evenodd;stroke:url(#radialGradient4197-173);stroke-width:0.84202844;stroke-linecap:butt;stroke-linejoin:miter;stroke-miterlimit:4;stroke-opacity:1;stroke-dasharray:none;stroke-dashoffset:0;marker:none;visibility:visible;display:inline;overflow:visible" />
    <path
       d="M 7.09278,20.494919 6.9552273,21.5768 7.2853513,22.13236 6.5700831,22.36628 6.157428,23.243481 8.0281304,23.389682 8.4682963,24.062202 8.8259312,23.038801 8.1381723,22.57096 7.09278,22.892601 7.5054351,22.3078 7.2853513,21.284399 7.09278,20.494919 z"
       id="path2427"
       style="opacity:0.76966289;fill:url(#linearGradient4192-942);fill-opacity:1;fill-rule:evenodd;stroke:none;stroke-width:5.2482543;marker:none;visibility:visible;display:inline;overflow:visible" />
    <path
       d="m 7.257842,20.670359 0.6877574,1.140361 1.1279248,-0.818721 0.6877574,0.40936 0.5502074,-0.49708 0.495186,0.46784 -0.467676,-0.81872 -1.072903,-0.263161 -1.3480059,-0.70176 c 0,0 -1.9257241,0.614041 -1.8156822,0.614041 0.1100403,0 1.5955984,0.02924 1.5955984,0.02924 L 7.9455994,19.85164 8.6058475,20.17328 7.257842,20.67036 z"
       id="path2429"
       style="opacity:0.61797755;fill:url(#linearGradient4189-826);fill-opacity:1;fill-rule:evenodd;stroke:none;stroke-width:5.2482543;marker:none;visibility:visible;display:inline;overflow:visible" />
    <path
       d="m 8.6608692,17.307755 -1.6231109,0.5848 -0.2200823,0.64328 0.935352,0.701763 0.8803304,-0.906442 0.02751,-1.023401 z"
       id="path2431"
       style="fill:#ffffff;fill-opacity:1;fill-rule:evenodd;stroke:none;stroke-width:5.2482543;marker:none;visibility:visible;display:inline;overflow:visible" />
    <path
       d="m 8.6883785,17.366235 0.3576349,1.228081 0.660248,0.614042 -1.348007,-0.321641 c 0,0 -0.3851441,0.46784 -0.2200821,0.46784 0.165062,0 1.9532337,0.233921 1.9532337,0.233921 l -0.02751,0.38012 -2.530952,-0.497081 1.1004141,-1.081881 0.05502,-1.023401 z"
       id="path2433"
       style="opacity:0.13483145;fill:url(#linearGradient4185-882);fill-opacity:1;fill-rule:evenodd;stroke:none;stroke-width:5.2482543;marker:none;visibility:visible;display:inline;overflow:visible" />
    <path
       d="M 5.222076,19.091396 5.0845249,20.553399 5.3871381,19.559238 6.1849389,19.822398 6.3775102,19.383797 7.340373,19.529998 7.5604552,19.325317 6.157428,19.266838 6.0198769,19.676199 5.4146489,19.354557 5.222076,19.091397 z"
       id="path2435"
       style="fill:#ffffff;fill-opacity:1;fill-rule:evenodd;stroke:none;stroke-width:5.2482543;marker:none;visibility:visible;display:inline;overflow:visible" />
    <path
       d="m 19.226363,29.350891 a 7.9915,2.6493885 0 0 1 -15.983,0 7.9915,2.6493885 0 1 1 15.983,0 z"
       id="path2510"
       style="opacity:0.4;fill:url(#radialGradient2929);fill-opacity:1;fill-rule:evenodd;stroke:none;stroke-width:1.05496335;marker:none;visibility:visible;display:inline;overflow:visible" />
    <path
       d="M 7.5604552,21.255159 8.0281304,21.83996 9.1010338,21.079719 9.7612816,21.45984 10.834185,22.541721 9.6512413,21.5768 9.0735242,21.401359 7.9455994,22.22008 7.5604552,21.255159 z"
       id="path2437"
       style="fill:#ffffff;fill-opacity:1;fill-rule:evenodd;stroke:none;stroke-width:5.2482543;marker:none;visibility:visible;display:inline;overflow:visible" />
    <path
       d="m 4.9195893,27.908386 a 3.7001408,1.27856 0 0 0 7.4002817,0 3.7001409,1.27856 0 1 0 -7.4002817,0 z"
       id="path2479"
       style="opacity:0.3258427;fill:url(#radialGradient3241-611);fill-opacity:1;fill-rule:evenodd;stroke:none;stroke-width:4.74098778;marker:none;visibility:visible;display:inline;overflow:visible" />
    <path
       d="m 10.971863,27.572124 0.275107,0.467841 -0.57772,0.26316 -0.412654,-0.35088 L 8.4134023,28.098444 7.835686,28.917166 7.3129905,28.010724 6.6527414,28.390845 5.7724124,28.273884 5.9924923,27.776804 5.3872671,27.133523 6.2400873,26.110121 5.4147759,26.227082 5.5248175,25.963921 6.0200043,25.05748 6.735274,24.88204 6.1575545,24.67736 l -0.027509,-0.526321 1.1279239,-1.052641 0.4126541,-1.403522 1.8707026,0.584801 0.4676749,1.169601 0.165063,-0.38012 0.467678,0.02924 0,0.467841 0.550204,-0.672522 0.742779,0.847962 0,1.198841 -1.292983,1.198841 0.825308,0.497081 -0.02751,0.497081 -0.467678,0.438601 z"
       id="path2481"
       style="fill:url(#radialGradient4099-801);fill-opacity:1;fill-rule:evenodd;stroke:url(#radialGradient4101-683);stroke-width:0.8420285;stroke-linecap:butt;stroke-linejoin:miter;stroke-miterlimit:4;stroke-opacity:1;stroke-dasharray:none;stroke-dashoffset:0;marker:none;visibility:visible;display:inline;overflow:visible" />
    <path
       d="m 9.348752,25.11596 0.1375533,1.081882 -0.3301244,0.555561 0.7152698,0.233919 0.4126543,0.877203 -1.8707027,0.146199 -0.4401659,0.67252 L 7.615603,27.659844 8.3033609,27.192003 9.348752,27.513644 8.936098,26.928843 9.1561809,25.905441 9.348752,25.11596 z"
       id="path2483"
       style="opacity:0.76966289;fill:url(#linearGradient4096-343);fill-opacity:1;fill-rule:evenodd;stroke:none;stroke-width:1;marker:none;visibility:visible;display:inline;overflow:visible" />
    <path
       d="M 9.1836932,25.291401 8.4959351,26.431762 7.3680111,25.613041 6.6802533,26.022402 6.1300458,25.525321 5.6348589,25.993161 6.1025369,25.17444 7.175437,24.91128 8.5234439,24.209519 c 0,0 1.9257231,0.614041 1.8156821,0.614041 -0.110042,0 -1.5955991,0.02924 -1.5955991,0.02924 L 8.4959351,24.47268 7.835686,24.79432 9.1836932,25.291401 z"
       id="path2485"
       style="opacity:0.61797755;fill:url(#linearGradient4093-450);fill-opacity:1;fill-rule:evenodd;stroke:none;stroke-width:1;marker:none;visibility:visible;display:inline;overflow:visible" />
    <path
       d="m 7.7806652,21.928796 1.6231113,0.584801 0.2200822,0.643281 -0.9353525,0.70176 -0.880332,-0.906441 -0.027509,-1.023401 z"
       id="path2487"
       style="fill:#ffffff;fill-opacity:1;fill-rule:evenodd;stroke:none;stroke-width:1;marker:none;visibility:visible;display:inline;overflow:visible" />
    <path
       d="m 7.7531564,21.987276 -0.3576364,1.228082 -0.660246,0.61404 1.3480039,-0.32164 c 0,0 0.3851452,0.467841 0.220083,0.467841 -0.1650623,0 -1.9532321,0.23392 -1.9532321,0.23392 l 0.027509,0.380121 2.5309516,-0.49708 -1.100415,-1.081883 -0.055018,-1.023401 z"
       id="path2489"
       style="opacity:0.13483145;fill:url(#linearGradient4089-15);fill-opacity:1;fill-rule:evenodd;stroke:none;stroke-width:1;marker:none;visibility:visible;display:inline;overflow:visible" />
    <path
       d="m 11.219458,23.712439 0.137551,1.462001 -0.302614,-0.994161 -0.797799,0.263161 -0.192574,-0.4386 -0.962862,0.146199 -0.2200828,-0.20468 1.4030278,-0.05848 0.137551,0.40936 0.605228,-0.32164 0.192574,-0.26316 z"
       id="path2491"
       style="fill:#ffffff;fill-opacity:1;fill-rule:evenodd;stroke:none;stroke-width:1;marker:none;visibility:visible;display:inline;overflow:visible" />
    <path
       d="m 8.8810772,25.876202 -0.4676749,0.5848 -1.0729031,-0.760241 -0.6602459,0.38012 -1.0729032,1.081881 1.1829416,-0.96492 0.5777194,-0.17544 1.127924,0.81872 0.3851421,-0.96492 z"
       id="path2493"
       style="fill:#ffffff;fill-opacity:1;fill-rule:evenodd;stroke:none;stroke-width:1;marker:none;visibility:visible;display:inline;overflow:visible" />
    <path
       d="m 7.03033,18.854017 -0.4401654,-0.292401 -0.247593,0.614043 0.330124,0.4386 -0.1375516,1.95908 -0.7702898,0.61404 0.8528208,0.555562 -0.3576345,0.701761 0.1100412,0.93568 0.467676,-0.23392 0.6052275,0.643281 0.9628619,-0.906441 -0.1100414,0.877201 0.3301241,0.380121 -0.082531,-0.497082 0.8528205,-0.526321 0.1650621,-0.760239 0.1925719,0.61404 0.4951867,0.02924 0.990372,-1.198842 1.320496,-0.438601 -0.550206,-1.988321 -1.100414,-0.49708 0.357634,-0.17544 -0.02751,-0.497082 -0.440166,0 0.632739,-0.5848 -0.797801,-0.789481 -1.1279239,0 -1.1279237,1.374281 -0.4676759,-0.877201 -0.4676786,0.02924 -0.4126552,0.497081 z"
       id="path2588"
       style="fill:url(#radialGradient4178-896);fill-opacity:1;fill-rule:evenodd;stroke:url(#radialGradient4180-624);stroke-width:0.84202844;stroke-linecap:butt;stroke-linejoin:miter;stroke-miterlimit:4;stroke-opacity:1;stroke-dasharray:none;stroke-dashoffset:0;marker:none;visibility:visible;display:inline;overflow:visible" />
    <path
       d="M 9.3411987,20.57918 8.3233161,20.432977 7.8006197,20.783858 7.5805368,20.023618 6.7552267,19.585018 6.617675,21.573339 5.9849371,22.04118 6.947799,22.421302 7.3879645,21.690299 7.0853506,20.57918 l 0.5502069,0.4386 0.962862,-0.233922 0.7427792,-0.204678 z"
       id="path2590"
       style="opacity:0.76966289;fill:url(#linearGradient4175-5);fill-opacity:1;fill-rule:evenodd;stroke:none;stroke-width:5.2482543;marker:none;visibility:visible;display:inline;overflow:visible" />
    <path
       d="m 9.1761364,20.754619 -1.0729031,0.731 0.7702896,1.198842 -0.3851448,0.731 0.4676759,0.584802 -0.4401655,0.52632 0.77029,-0.497082 0.2475928,-1.140361 0.6602477,-1.432759 c 0,0 -0.5777171,-2.046804 -0.5777171,-1.929842 0,0.116958 -0.027508,1.69592 -0.027508,1.69592 l 0.357634,0.26316 -0.3026139,0.70176 -0.467676,-1.43276 z"
       id="path2592"
       style="opacity:0.61797755;fill:url(#linearGradient4172-991);fill-opacity:1;fill-rule:evenodd;stroke:none;stroke-width:5.2482543;marker:none;visibility:visible;display:inline;overflow:visible" />
    <path
       d="m 12.339826,22.245861 -0.550207,-1.725163 -0.605227,-0.23392 -0.660249,0.994162 0.852821,0.93568 0.962862,0.02924 z"
       id="path2594"
       style="fill:#ffffff;fill-opacity:1;fill-rule:evenodd;stroke:none;stroke-width:5.2482543;marker:none;visibility:visible;display:inline;overflow:visible" />
    <path
       d="m 12.284805,22.275099 -1.155434,0.380121 -0.577717,0.701762 0.302614,-1.432763 c 0,0 -0.440166,-0.409359 -0.440166,-0.23392 0,0.175441 -0.220083,2.076042 -0.220083,2.076042 l -0.3576339,-0.02924 0.4676759,-2.690085 1.017883,1.169603 0.962861,0.05848 z"
       id="path2596"
       style="opacity:0.13483145;fill:url(#linearGradient4168-644);fill-opacity:1;fill-rule:evenodd;stroke:none;stroke-width:5.2482543;marker:none;visibility:visible;display:inline;overflow:visible" />
    <path
       d="m 10.661695,18.590856 -1.3755165,-0.1462 0.9353505,0.32164 -0.2475923,0.847963 0.4126553,0.204679 -0.137552,1.023402 0.192572,0.233919 0.05502,-1.491241 -0.38514,-0.1462 0.302613,-0.643281 0.247593,-0.204681 z"
       id="path2598"
       style="fill:#ffffff;fill-opacity:1;fill-rule:evenodd;stroke:none;stroke-width:5.2482543;marker:none;visibility:visible;display:inline;overflow:visible" />
    <path
       d="m 8.6259298,21.076259 -0.5502068,0.49708 0.7152689,1.140361 -0.3576344,0.701761 -1.0178826,1.14036 0.9078412,-1.257319 0.165062,-0.614041 -0.7702896,-1.198842 0.9078413,-0.40936 z"
       id="path2600"
       style="fill:#ffffff;fill-opacity:1;fill-rule:evenodd;stroke:none;stroke-width:5.2482543;marker:none;visibility:visible;display:inline;overflow:visible" />
    <path
       d="m 15.924916,22.892587 0.275104,0.46784 -0.577718,0.26316 -0.412656,-0.35088 -1.843192,0.146201 -0.577716,0.81872 -0.522697,-0.906441 -0.660249,0.38012 -0.88033,-0.116959 0.220082,-0.497081 -0.605227,-0.64328 0.85282,-1.023402 -0.82531,0.116961 -0.357635,-0.35088 0.467677,0.08772 0.495187,-0.906441 0.715267,-0.17544 -0.577717,-0.204681 -0.02751,-0.52632 1.127926,-1.052641 0.412654,-1.403521 1.870702,0.5848 0.467675,1.169601 0.165062,-0.38012 0.467677,0.02924 0,0.46784 0.550207,-0.672521 0.742778,0.847961 0,1.198842 -1.292985,1.198841 0.82531,0.497081 -0.02751,0.497081 -0.467675,0.4386 z"
       id="path2554"
       style="fill:url(#radialGradient4161-18);fill-opacity:1;fill-rule:evenodd;stroke:url(#radialGradient4163-846);stroke-width:0.84202844;stroke-linecap:butt;stroke-linejoin:miter;stroke-miterlimit:4;stroke-opacity:1;stroke-dasharray:none;stroke-dashoffset:0;marker:none;visibility:visible;display:inline;overflow:visible" />
    <path
       d="m 14.301805,20.436424 0.137553,1.081882 -0.330125,0.55556 0.715269,0.23392 0.412655,0.877201 -1.870703,0.1462 -0.440165,0.672521 -0.357635,-1.023401 0.687759,-0.46784 1.045392,0.32164 -0.412655,-0.584801 0.220083,-1.023401 0.192572,-0.789481 z"
       id="path2556"
       style="opacity:0.76966289;fill:url(#linearGradient4158-163);fill-opacity:1;fill-rule:evenodd;stroke:none;stroke-width:5.2482543;marker:none;visibility:visible;display:inline;overflow:visible" />
    <path
       d="m 14.136743,20.611864 -0.687758,1.140362 -1.127924,-0.818722 -0.687757,0.409361 -0.550208,-0.49708 -0.495186,0.46784 0.467676,-0.818722 1.072903,-0.263159 1.348006,-0.701761 c 0,0 1.925724,0.61404 1.815682,0.61404 -0.11004,0 -1.595599,0.02924 -1.595599,0.02924 l -0.247593,-0.38012 -0.660247,0.321641 1.348005,0.49708 z"
       id="path2558"
       style="opacity:0.61797755;fill:url(#linearGradient4155-389);fill-opacity:1;fill-rule:evenodd;stroke:none;stroke-width:5.2482543;marker:none;visibility:visible;display:inline;overflow:visible" />
    <path
       d="m 12.733716,17.24926 1.623111,0.584801 0.220082,0.643281 -0.935352,0.70176 -0.880331,-0.90644 -0.02751,-1.023402 z"
       id="path2560"
       style="fill:#ffffff;fill-opacity:1;fill-rule:evenodd;stroke:none;stroke-width:5.2482543;marker:none;visibility:visible;display:inline;overflow:visible" />
    <path
       d="m 12.706206,17.307741 -0.357634,1.228081 -0.660249,0.61404 1.348008,-0.32164 c 0,0 0.385144,0.467841 0.220082,0.467841 -0.165063,0 -1.953234,0.23392 -1.953234,0.23392 l 0.02751,0.380121 2.530952,-0.497081 -1.100415,-1.081881 -0.05502,-1.023401 z"
       id="path2562"
       style="opacity:0.13483145;fill:url(#linearGradient4151-108);fill-opacity:1;fill-rule:evenodd;stroke:none;stroke-width:5.2482543;marker:none;visibility:visible;display:inline;overflow:visible" />
    <path
       d="m 16.172509,19.032903 0.13755,1.462 -0.302612,-0.99416 -0.797801,0.263161 -0.192572,-0.438601 -0.962862,0.1462 -0.220083,-0.20468 1.403028,-0.05848 0.137551,0.409361 0.605229,-0.32164 0.192572,-0.263161 z"
       id="path2564"
       style="fill:#ffffff;fill-opacity:1;fill-rule:evenodd;stroke:none;stroke-width:5.2482543;marker:none;visibility:visible;display:inline;overflow:visible" />
    <path
       d="m 13.834129,21.196666 -0.467675,0.5848 -1.072903,-0.760242 -0.660247,0.38012 -1.072904,1.081883 1.182944,-0.964921 0.577717,-0.175441 1.127924,0.818722 0.385144,-0.964921 z"
       id="path2566"
       style="fill:#ffffff;fill-opacity:1;fill-rule:evenodd;stroke:none;stroke-width:5.2482543;marker:none;visibility:visible;display:inline;overflow:visible" />
    <path
       d="m 13.226231,28.467913 0.440168,0.292399 0.247594,-0.614042 -0.330125,-0.4386 0.137552,-1.959081 0.77029,-0.61404 -0.852821,-0.555562 0.357635,-0.70176 -0.110042,-0.935681 -0.467676,0.23392 -0.605228,-0.643281 -0.962862,0.906442 0.110042,-0.877202 -0.330125,-0.380121 0.08253,0.497082 -0.85282,0.526321 -0.165063,0.76024 -0.192572,-0.614041 -0.495186,-0.02924 -0.9903729,1.198843 -1.3204965,0.4386 0.5502069,1.988321 1.1004139,0.49708 -0.3576347,0.17544 0.02751,0.497082 0.4401654,0 -0.6327378,0.5848 3.0536487,-0.5848 0.467675,0.877201 0.467676,-0.02924 0.412655,-0.49708 z"
       id="path2793"
       style="fill:url(#radialGradient4144-581);fill-opacity:1;fill-rule:evenodd;stroke:url(#radialGradient4146-436);stroke-width:0.84202844;stroke-linecap:butt;stroke-linejoin:miter;stroke-miterlimit:4;stroke-opacity:1;stroke-dasharray:none;stroke-dashoffset:0;marker:none;visibility:visible;display:inline;overflow:visible" />
    <path
       d="m 10.915365,26.742749 1.017882,0.146201 0.522697,-0.35088 0.220082,0.76024 0.825311,0.4386 0.137552,-1.988321 0.632738,-0.467841 -0.962862,-0.380121 -0.440166,0.731001 0.302614,1.111121 -0.550206,-0.438601 -0.962863,0.233922 -0.742779,0.204679 z"
       id="path2795"
       style="opacity:0.76966289;fill:url(#linearGradient4141-797);fill-opacity:1;fill-rule:evenodd;stroke:none;stroke-width:5.2482543;marker:none;visibility:visible;display:inline;overflow:visible" />
    <path
       d="m 11.080427,26.567308 1.072904,-0.730999 -0.770291,-1.198843 0.385146,-0.730999 -0.467675,-0.584802 0.440163,-0.52632 -0.770288,0.497082 -0.247593,1.140361 -0.660249,1.43276 c 0,0 0.577718,2.046802 0.577718,1.929841 0,-0.116958 0.02751,-1.695919 0.02751,-1.695919 l -0.357635,-0.263161 0.302615,-0.70176 0.467676,1.432759 z"
       id="path2797"
       style="opacity:0.61797755;fill:url(#linearGradient4138-530);fill-opacity:1;fill-rule:evenodd;stroke:none;stroke-width:5.2482543;marker:none;visibility:visible;display:inline;overflow:visible" />
    <path
       d="M 7.9167378,25.076067 8.4669446,26.80123 9.072172,27.03515 9.73242,26.040988 8.8795996,25.105308 7.9167378,25.076068 z"
       id="path2534"
       style="fill:#ffffff;fill-opacity:1;fill-rule:evenodd;stroke:none;stroke-width:5.2482543;marker:none;visibility:visible;display:inline;overflow:visible" />
    <path
       d="m 7.9717584,25.046829 1.1554339,-0.380122 0.5777181,-0.70176 -0.3026138,1.432762 c 0,0 0.4401646,0.409359 0.4401646,0.233919 0,-0.17544 0.2200828,-2.076041 0.2200828,-2.076041 l 0.357635,0.02924 L 9.9525032,26.274911 8.9346203,25.10531 7.9717584,25.04683 z"
       id="path2536"
       style="opacity:0.13483145;fill:url(#linearGradient4134-869);fill-opacity:1;fill-rule:evenodd;stroke:none;stroke-width:5.2482543;marker:none;visibility:visible;display:inline;overflow:visible" />
    <path
       d="m 9.5948684,28.731072 1.3755176,0.146199 -0.935352,-0.32164 0.247594,-0.847961 -0.4126563,-0.204679 0.1375523,-1.023403 -0.1925725,-0.233919 -0.055024,1.491241 0.3851445,0.146199 -0.3026138,0.643282 -0.2475929,0.204681 z"
       id="path2538"
       style="fill:#ffffff;fill-opacity:1;fill-rule:evenodd;stroke:none;stroke-width:5.2482543;marker:none;visibility:visible;display:inline;overflow:visible" />
    <path
       d="m 11.630633,26.245669 0.550208,-0.49708 -0.71527,-1.140361 0.357635,-0.701761 1.017883,-1.140361 -0.907842,1.25732 -0.165061,0.61404 0.770289,1.198843 -0.907842,0.40936 z"
       id="path2540"
       style="fill:#ffffff;fill-opacity:1;fill-rule:evenodd;stroke:none;stroke-width:5.2482543;marker:none;visibility:visible;display:inline;overflow:visible" />
    <path
       d="M 3.603583,14.730041 C 3.58602,14.708091 4.8447983,28.144209 4.845,28.149 c 0.066372,1.57927 2.2562138,2.240935 6.246369,2.365 4.875657,-0.04885 6.005546,-1.266819 6.074631,-2.365 0.0055,-0.02165 1.263186,-13.397307 1.268727,-13.418959 0.920837,-3.496359 -4.41362,-3.239357 -6.98233,-3.239357 -2.7580706,0 -8.8863877,-0.08218 -7.848814,3.239357 z"
       id="path2520"
       style="fill:url(#linearGradient3446);fill-opacity:1;fill-rule:evenodd;stroke:url(#linearGradient3448);stroke-width:0.97236609;stroke-linecap:round;stroke-linejoin:round;stroke-miterlimit:4;stroke-opacity:1;stroke-dasharray:none" />
    <g
       transform="matrix(0.88635317,0,0,0.9370138,0.34294705,10.96058)"
       id="g3454">
      <path
         d="m 98.723392,24.095787 a 32.811855,6.9077592 0 1 1 -65.62371,0 32.811855,6.9077592 0 1 1 65.62371,0 z"
         transform="matrix(0.2208277,0,0,0.2160808,-2.1086239,-1.7480921)"
         id="path2516"
         style="opacity:0.77272728;fill:#585858;fill-opacity:0.51308899;fill-rule:evenodd;stroke:#636363;stroke-width:4.40098763;stroke-linecap:round;stroke-linejoin:round;stroke-miterlimit:4;stroke-opacity:1;stroke-dasharray:none;stroke-dashoffset:0;marker:none;visibility:visible;display:inline;overflow:visible" />
      <path
         d="m 4.4590384,3.613216 c 0,0 6.0170886,-1.8960796 14.8518386,-0.2790603 3.368647,-2.54991505 -7.944918,-2.73649441 -7.944918,-2.73649441 0,0 -9.7035323,0.52783261 -6.9069206,3.01555471 z"
         id="path2522"
         style="fill:#d9dcd5;fill-opacity:1;fill-rule:evenodd;stroke:none" />
      <path
         d="m 4.4590384,3.613216 c 0,0 6.0170886,-1.8960796 14.8518386,-0.2790603 3.368647,-2.54991505 -7.944918,-2.73649441 -7.944918,-2.73649441 0,0 -9.7035323,0.52783261 -6.9069206,3.01555471 z"
         id="path2524"
         style="fill:url(#linearGradient3471);fill-opacity:1;fill-rule:evenodd;stroke:#636363;stroke-width:0.96135771;stroke-linecap:round;stroke-linejoin:round;stroke-miterlimit:4;stroke-opacity:1;stroke-dasharray:none" />
      <path
         d="m 18.214424,1.4255928 c 0.0088,0.00234 0.01877,0.00439 0.0276,0.00675 0.03947,0.010556 0.07786,0.022763 0.117315,0.033762 0.0095,0.00263 0.01813,0.00409 0.0276,0.00675 0.02296,0.00647 0.04612,0.013616 0.06901,0.020258 0.0067,0.00194 0.01399,0.0048 0.0207,0.00675 0.0044,0.00129 0.0094,-0.00129 0.0138,0 0.01208,0.00355 0.02246,0.00991 0.0345,0.013505 0.01413,0.00424 0.02733,0.00919 0.04141,0.013505 0.0098,0.00297 0.01787,0.00374 0.0276,0.00675 0.02261,0.00703 0.04659,0.013016 0.06901,0.020257 0.0059,0.00191 0.01478,0.00483 0.0207,0.00675 0.01882,0.00616 0.03656,0.013938 0.05521,0.020258 0.0067,0.00225 0.01406,0.00448 0.0207,0.00675 0.04408,0.015171 0.08833,0.031086 0.131116,0.047268 0.01133,0.00426 0.02328,0.00917 0.0345,0.013505 0.01316,0.00511 0.0215,0.00829 0.03451,0.013505 0.02682,0.010742 0.05671,0.022547 0.08281,0.033763 0.0088,0.00375 0.01889,0.0097 0.0276,0.013505 0.002,8.918e-4 0.0049,-8.947e-4 0.0069,0 0.01308,0.00582 0.02854,0.01431 0.0414,0.020258 0.0069,0.0032 0.01384,0.00351 0.0207,0.00675 0.0025,0.00119 0.0044,0.00556 0.0069,0.00675 0.02468,0.011764 0.05212,0.021473 0.07591,0.033762 0.0063,0.00327 0.01444,0.010198 0.0207,0.013505 0.008,0.00422 0.01971,0.00922 0.0276,0.013505 0.0046,0.0025 0.0093,0.00423 0.0138,0.00675 0.0048,0.00266 0.009,0.00407 0.0138,0.00675 0.0045,0.00255 0.0024,0.00418 0.0069,0.00675 0.0045,0.00257 0.0093,0.00416 0.0138,0.00675 0.0044,0.00259 0.0094,0.00414 0.0138,0.00675 0.0023,0.00134 0.0046,0.00541 0.0069,0.00675 0.01089,0.00656 0.02388,0.013548 0.0345,0.020257 0.0045,0.00283 0.0093,0.0039 0.0138,0.00675 0.0059,0.00379 0.008,0.00967 0.0138,0.013505 0.0066,0.00439 0.0142,0.00906 0.0207,0.013505 0.02242,0.015244 0.04806,0.031267 0.06901,0.047268 0.0019,0.00146 0.005,0.00528 0.0069,0.00675 0.02113,0.016325 0.04261,0.030123 0.06211,0.047268 0.0014,0.00123 -0.0014,0.00551 0,0.00675 0.006,0.0053 0.01491,0.00813 0.0207,0.013505 0.0034,0.00314 0.0036,0.010339 0.0069,0.013505 0.0045,0.00435 0.0094,0.00911 0.0138,0.013505 0.0016,0.0016 0.0053,-0.00161 0.0069,0 0.0017,0.00165 0.0053,0.00509 0.0069,0.00675 0.0044,0.00453 0.0095,0.00892 0.0138,0.013505 0.0011,0.00112 -0.0011,0.00563 0,0.00675 0.0018,0.00197 0.0051,0.00477 0.0069,0.00675 0.02079,0.022659 0.03735,0.043478 0.05521,0.067525 0.0036,0.0049 0.01028,0.00855 0.0138,0.013505 0.0011,0.00152 -0.0011,0.00523 0,0.00675 0.0015,0.00213 0.0054,0.00461 0.0069,0.00675 0.0042,0.00615 0.0098,0.01402 0.0138,0.020258 0.0016,0.00321 0.0054,0.00353 0.0069,0.00675 0.0031,0.0064 0.0042,0.013871 0.0069,0.020258 0.0067,0.016284 0.0096,0.030684 0.0138,0.047267 0.0027,0.00964 0.0052,0.024013 0.0069,0.033762 5.33e-4,0.00334 -4.26e-4,0.00341 0,0.00675 7.74e-4,0.00489 0.0064,0.00858 0.0069,0.013505 6.64e-4,0.00838 1.1e-5,0.018619 0,0.02701 -5.22e-4,0.00539 7.2e-4,0.014922 0,0.020258 -5.24e-4,0.00354 -0.0063,0.00998 -0.0069,0.013505 -9.16e-4,0.00528 0.0011,0.00828 0,0.013505 -0.0049,0.024471 -0.01177,0.044225 -0.0207,0.067525 -0.0013,0.00333 0.0014,0.00345 0,0.00675 -0.0021,0.00531 -0.0046,0.00825 -0.0069,0.013505 -0.0022,0.00492 -0.0046,0.00864 -0.0069,0.013505 -0.003,0.00652 -0.0036,0.00708 -0.0069,0.013505 -0.0017,0.00321 -0.0052,0.010316 -0.0069,0.013505 -0.0044,0.00798 -0.009,0.019177 -0.0138,0.02701 -9.79e-4,0.00156 -0.0059,-0.00156 -0.0069,0 -0.002,0.00312 0.002,0.00365 0,0.00675 -0.01015,0.015496 -0.02262,0.032321 -0.0345,0.047268 -0.0024,0.00299 -0.0045,0.00378 -0.0069,0.00675 -0.0024,0.00297 -0.0044,0.010559 -0.0069,0.013505 -0.02007,0.023579 -0.04498,0.045284 -0.06901,0.067525 -0.003,0.00278 -0.0038,0.00399 -0.0069,0.00675 -0.0049,0.00442 -0.01566,0.00914 -0.0207,0.013505 -0.0032,0.00272 -0.0037,0.010807 -0.0069,0.013505 -0.01163,0.00972 -0.02909,0.017547 -0.0414,0.02701 -0.0021,0.00157 -0.0048,0.00519 -0.0069,0.00675 -0.02147,0.016201 -0.04567,0.031798 -0.06901,0.047268 -0.0053,0.00349 -0.0084,0.010048 -0.0138,0.013505 -0.0096,0.00615 -0.02461,0.014226 -0.03451,0.020258 -0.08075,0.049252 -0.174457,0.092809 -0.269135,0.13505 -0.01862,0.00824 -0.03623,0.019015 -0.05521,0.02701 -0.02117,0.00897 -0.04055,0.018333 -0.06211,0.02701 -0.01929,0.00776 -0.03567,0.012723 -0.05521,0.020258 -0.0098,0.00377 -0.02468,0.00979 -0.0345,0.013505 -0.0019,7.113e-4 -0.005,-7.09e-4 -0.0069,0 -0.0177,0.00666 -0.03047,0.013772 -0.0483,0.020257 -0.02972,0.010802 -0.05977,0.023426 -0.08971,0.033763 -0.04992,0.017237 -0.101956,0.03123 -0.15182,0.047268 -0.02992,0.00962 -0.06006,0.017784 -0.08971,0.02701 -0.02275,0.00708 -0.04651,0.020153 -0.06901,0.02701 -0.03616,0.011022 -0.06829,0.016516 -0.103513,0.02701 -0.01665,0.00441 -0.03853,0.00915 -0.05521,0.013505 -0.02683,0.00701 -0.04899,0.013403 -0.07591,0.020257 -0.01673,0.00426 -0.03844,0.0093 -0.05521,0.013505 -0.02697,0.00676 -0.04886,0.013643 -0.07591,0.020257 -0.02924,0.00715 -0.06038,0.013278 -0.08971,0.020258 -0.088,0.02094 -0.173433,0.041332 -0.262234,0.060773 -0.0296,0.00648 -0.06003,0.01394 -0.08971,0.020258 -0.04675,0.00995 -0.09796,0.017456 -0.144918,0.02701 -0.0234,0.00476 -0.04556,0.015593 -0.06901,0.020258 -0.0022,4.463e-4 -0.0047,-4.447e-4 -0.0069,0 -0.09174,0.018211 -0.183582,0.030501 -0.276034,0.047268 -0.03012,0.00546 -0.05953,0.014945 -0.08971,0.020257 -0.06038,0.010626 -0.118773,0.016968 -0.179423,0.02701 -0.04549,0.00753 -0.09238,0.019799 -0.138017,0.02701 -0.09127,0.014423 -0.184213,0.027331 -0.276035,0.040515 -0.03061,0.00442 -0.05904,0.00922 -0.08971,0.013505 -0.06133,0.00852 -0.124776,0.012256 -0.186323,0.020258 -0.03078,0.00402 -0.05888,0.00961 -0.08971,0.013505 -0.03314,0.00416 -0.07032,0.00949 -0.103514,0.013505 -0.05505,0.00667 -0.110424,0.013979 -0.165621,0.020258 -0.0023,2.657e-4 -0.0046,-2.654e-4 -0.0069,0 -0.249921,0.028354 -0.499861,0.0532 -0.752195,0.074277 -0.06253,0.00527 -0.12368,0.00864 -0.186323,0.013505 -0.219229,0.016863 -0.442347,0.03491 -0.662483,0.047268 -0.06067,0.00343 -0.12562,0.00363 -0.186323,0.00675 -0.03147,0.0016 -0.06514,0.00523 -0.09661,0.00675 -0.06072,0.00296 -0.125591,0.00408 -0.186323,0.00675 -0.251859,0.010942 -0.500703,0.020293 -0.752194,0.02701 -0.06287,0.0017 -0.123511,0.00528 -0.186323,0.00675 -0.127858,0.00298 -0.252042,0.00459 -0.379548,0.00675 -0.06553,2.689e-4 -0.134504,-4.88e-5 -0.200125,0 -0.0023,1.4e-6 -0.0046,-8e-7 -0.0069,0 -0.03168,1.97e-5 -0.06491,3.38e-5 -0.09661,0 -0.0023,-2.9e-6 -0.0046,3.2e-6 -0.0069,0 -0.133596,-1.588e-4 -0.266393,0.00119 -0.40025,0 -0.0023,-2.11e-5 -0.0046,2.14e-5 -0.0069,0 -0.06581,-6.211e-4 -0.134266,-0.00586 -0.200125,-0.00675 -0.06811,-9.033e-4 -0.138885,0.00121 -0.207026,0 -0.06817,-0.00124 -0.131942,-0.00519 -0.200126,-0.00675 -0.0023,-5.24e-5 -0.0046,5.23e-5 -0.0069,0 -0.03408,-7.649e-4 -0.06253,8.476e-4 -0.09661,0 -0.06819,-0.00173 -0.13884,-0.00468 -0.207025,-0.00675 -0.06818,-0.00208 -0.131957,-0.00431 -0.200125,-0.00675 -0.0023,-8.12e-5 -0.0046,8.2e-5 -0.0069,0 -0.0659,-0.00237 -0.134261,-0.00403 -0.200126,-0.00675 -0.09989,-0.00407 -0.203858,-0.00859 -0.303637,-0.013505 -0.0023,-1.131e-4 -0.0046,1.136e-4 -0.0069,0 -0.2698301,-0.013356 -0.5390236,-0.033785 -0.8074016,-0.05402 -0.00225,-1.717e-4 -0.00465,1.719e-4 -0.0069,0 -0.2007398,-0.015183 -0.4008964,-0.03451 -0.6003756,-0.05402 -0.00223,-2.207e-4 -0.00467,2.204e-4 -0.0069,0 -0.1344428,-0.013184 -0.2665261,-0.025208 -0.4002501,-0.040515 -0.033449,-0.00385 -0.063212,-0.00952 -0.096612,-0.013505 -0.050073,-0.00595 -0.1018631,-0.00724 -0.1518191,-0.013505 -0.1498675,-0.018784 -0.2998468,-0.039037 -0.448556,-0.060773 -0.04957,-0.00725 -0.1023909,-0.019424 -0.1518197,-0.02701 -0.065905,-0.010115 -0.127582,-0.016275 -0.1932237,-0.02701 -0.032821,-0.00537 -0.06386,-0.014732 -0.096612,-0.020258 -0.018392,-0.0031 -0.036837,-0.0036 -0.055207,-0.00675 -0.016364,-0.00281 -0.03196,-0.0039 -0.048306,-0.00675 -0.032682,-0.00569 -0.064002,-0.01441 -0.096612,-0.020257 -0.016305,-0.00292 -0.032019,-0.00379 -0.048306,-0.00675 -0.032573,-0.00593 -0.064114,-0.014164 -0.096612,-0.020257 -0.016249,-0.00305 -0.032076,-0.00366 -0.048306,-0.00675 -0.03246,-0.00618 -0.06423,-0.013913 -0.096612,-0.020258 C 6.4914113,3.4326618 6.3627064,3.4051448 6.234492,3.3770088 6.202438,3.3699788 6.169847,3.3639628 6.13788,3.3567518 6.105913,3.3495418 6.073147,3.3438848 6.041268,3.3364938 6.025329,3.3327938 6.008879,3.3267338 5.992962,3.3229888 5.950688,3.3115578 5.905213,3.3010818 5.8618462,3.2892258 c -0.021684,-0.00593 -0.040227,-0.014205 -0.062108,-0.020257 -0.043762,-0.012106 -0.086867,-0.021086 -0.1311164,-0.033763 -0.022125,-0.00634 -0.046837,-0.013758 -0.069009,-0.020257 -0.022171,-0.0065 -0.039941,-0.013585 -0.062108,-0.020258 -0.022167,-0.00667 -0.046896,-0.013399 -0.069009,-0.020257 -0.022112,-0.00686 -0.047001,-0.013202 -0.069008,-0.020258 -0.03301,-0.010585 -0.063981,-0.022699 -0.096612,-0.033763 -0.021754,-0.00738 -0.040585,-0.012653 -0.062108,-0.020257 -0.010761,-0.0038 -0.02381,-0.00964 -0.034504,-0.013505 -0.021388,-0.00772 -0.041027,-0.012288 -0.062108,-0.020257 C 5.1020236,3.050517 5.0605995,3.0294327 5.0199698,3.0124351 4.9488676,2.9826896 4.8776538,2.9512994 4.8129439,2.9179 4.7870599,2.90454 4.7616529,2.891388 4.7370339,2.877385 c -0.00175,-10e-4 -0.00516,0.001 -0.0069,0 -0.014232,-0.00815 -0.020739,-0.01863 -0.034505,-0.02701 -0.00424,-0.00257 -0.00961,-0.00416 -0.013801,-0.00675 C 4.6356119,2.81508 4.5908329,2.787161 4.5507114,2.755842 c -0.00364,-0.00284 -0.00331,-0.00389 -0.0069,-0.00675 -0.00503,-0.00402 -0.00888,-0.00944 -0.013802,-0.013505 -0.00353,-0.00289 -0.00343,-0.00384 -0.0069,-0.00675 -0.029231,-0.024528 -0.05784,-0.047961 -0.082811,-0.074278 -0.00299,-0.00312 -0.00397,-0.00361 -0.0069,-0.00675 -0.00514,-0.00551 -0.00887,-0.014666 -0.013802,-0.020257 -0.00112,-0.00128 -0.00579,0.00128 -0.0069,0 -0.012339,-0.014087 -0.016571,-0.025905 -0.027603,-0.040515 -0.00253,-0.00331 -0.00444,-0.00342 -0.0069,-0.00675 -0.00838,-0.011346 -0.01314,-0.022093 -0.020703,-0.033763 -0.00225,-0.00342 -0.00472,-0.00331 -0.0069,-0.00675 -0.00872,-0.013796 -0.020071,-0.026259 -0.027603,-0.040515 -0.00188,-0.00356 -0.00509,-0.00991 -0.0069,-0.013505 -0.00632,-0.012576 -0.00844,-0.027576 -0.013802,-0.040515 -0.0023,-0.00555 -0.00478,-0.00789 -0.0069,-0.013505 -9.799e-4,-0.0052 7.601e-4,-0.015098 0,-0.020258 -7.595e-4,-0.00516 -0.00636,-0.00839 -0.0069,-0.013505 -7.232e-4,-0.00682 3.437e-4,-0.013507 0,-0.020258 -1.73e-4,-0.00338 7.98e-5,-0.00339 0,-0.00675 -7.79e-5,-0.00336 -1.44e-5,-0.010166 0,-0.013505 1.29e-5,-0.00334 -1.037e-4,-0.00343 0,-0.00675 2.122e-4,-0.00664 -5.736e-4,-0.01369 0,-0.020258 2.844e-4,-0.00329 -3.729e-4,-0.00348 0,-0.00675 5.636e-4,-0.0049 0.00614,-0.00865 0.0069,-0.013505 7.615e-4,-0.00486 -9.555e-4,-0.015441 0,-0.020258 6.338e-4,-0.00321 -7.184e-4,-0.00356 0,-0.00675 7.228e-4,-0.00319 0.00609,-0.01033 0.0069,-0.013505 8.03e-4,-0.00318 -8.861e-4,-0.00359 0,-0.00675 8.905e-4,-0.00316 -9.727e-4,-0.00361 0,-0.00675 0.00387,-0.012573 0.00865,-0.028224 0.013802,-0.040515 0.00129,-0.00307 0.00553,-0.0037 0.0069,-0.00675 0.00206,-0.00458 0.00467,-0.00897 0.0069,-0.013505 0.00223,-0.00454 0.0045,-0.00901 0.0069,-0.013505 0.0024,-0.0045 0.00433,-0.00905 0.0069,-0.013505 8.562e-4,-0.00149 -8.738e-4,-0.00527 0,-0.00675 0.00348,-0.00594 0.010031,-0.014391 0.013802,-0.020257 0.00568,-0.00878 0.0075,-0.011631 0.013802,-0.020258 0.0021,-0.00288 0.00473,-0.010647 0.0069,-0.013505 0.00216,-0.00286 0.00467,-0.00391 0.0069,-0.00675 0.00224,-0.00284 0.0046,-0.00393 0.0069,-0.00675 0.00459,-0.00566 0.00895,-0.014665 0.013802,-0.020257 0.0034,-0.00391 0.010275,-0.00288 0.013801,-0.00675 0.00497,-0.00556 0.00858,-0.00801 0.013802,-0.013505 0.00262,-0.00274 0.00422,-0.010783 0.0069,-0.013505 0.00534,-0.00546 0.00822,-0.00812 0.013802,-0.013505 0.0028,-0.00269 0.00405,-0.00408 0.0069,-0.00675 0.00569,-0.00536 0.014785,-0.014968 0.020703,-0.020258 0.00297,-0.00264 0.00388,-0.00413 0.0069,-0.00675 0.00904,-0.00788 0.018083,-0.012522 0.027603,-0.020258 0.00318,-0.00257 0.010569,-0.0042 0.013802,-0.00675 0.012898,-0.010248 0.020822,-0.023777 0.034504,-0.033763 0.010288,-0.00747 0.023804,-0.012938 0.034504,-0.020258 0.010674,-0.00734 0.023443,-0.013061 0.034504,-0.020257 0.00739,-0.00478 0.013148,-0.00879 0.020703,-0.013505 C 4.6930274,1.853548 4.7289464,1.826601 4.771536,1.803783 4.804509,1.786118 4.840344,1.773187 4.8750493,1.756515 4.9010773,1.744012 4.9241863,1.727953 4.9509583,1.716 c 0.017849,-0.00797 0.037101,-0.01253 0.055206,-0.020257 0.00905,-0.00386 0.018498,-0.0097 0.027604,-0.013505 0.018213,-0.00761 0.036824,-0.012889 0.055206,-0.020258 0.00919,-0.00368 0.018381,-0.00988 0.027604,-0.013505 0.018446,-0.00725 0.036679,-0.013242 0.055206,-0.020258 0.018528,-0.00702 0.036656,-0.013474 0.055208,-0.020258 0.018551,-0.00678 0.03669,-0.013704 0.055207,-0.020257 0.018516,-0.00655 0.036784,-0.013932 0.055206,-0.020258 0.00922,-0.00316 0.018421,-0.00365 0.027604,-0.00675 0.018354,-0.00621 0.037033,-0.014269 0.055207,-0.020258 0.02726,-0.00898 0.056122,-0.018526 0.08281,-0.02701 0.010052,-0.00294 0.017568,-0.00386 0.027604,-0.00675 0.030108,-0.00869 0.059591,-0.018613 0.089711,-0.02701 0.00201,-5.599e-4 0.00489,5.588e-4 0.0069,0 0.038165,-0.010619 0.07867,-0.023333 0.117315,-0.033763 -1.4040862,0.1655945 -2.2634796,0.441499 -2.2634796,0.931795 0,0.09548 0,1.5994026 0,1.6948831 0,1.0357191 3.8263951,1.8772007 8.5432713,1.8772007 4.716875,0 8.543271,-0.8414816 8.543271,-1.8772007 0,-0.09548 0,-1.5994027 0,-1.6948831 0,-0.5008973 -0.89556,-0.7836548 -2.353195,-0.9521052 z"
         id="path2526"
         style="fill:#ffffff;fill-opacity:1;fill-rule:evenodd;stroke:#808389;stroke-width:0.96135771;stroke-linecap:round;stroke-linejoin:round;stroke-miterlimit:4;stroke-opacity:1;stroke-dasharray:none;stroke-dashoffset:0;marker:none;visibility:visible;display:inline;overflow:visible" />
      <path
         d="m 18.214424,1.4255928 c 0.0088,0.00234 0.01877,0.00439 0.0276,0.00675 0.03947,0.010556 0.07786,0.022763 0.117315,0.033762 0.0095,0.00263 0.01813,0.00409 0.0276,0.00675 0.02296,0.00647 0.04612,0.013616 0.06901,0.020258 0.0067,0.00194 0.01399,0.0048 0.0207,0.00675 0.0044,0.00129 0.0094,-0.00129 0.0138,0 0.01208,0.00355 0.02246,0.00991 0.0345,0.013505 0.01413,0.00424 0.02733,0.00919 0.04141,0.013505 0.0098,0.00297 0.01787,0.00374 0.0276,0.00675 0.02261,0.00703 0.04659,0.013016 0.06901,0.020257 0.0059,0.00191 0.01478,0.00483 0.0207,0.00675 0.01882,0.00616 0.03656,0.013938 0.05521,0.020258 0.0067,0.00225 0.01406,0.00448 0.0207,0.00675 0.04408,0.015171 0.08833,0.031086 0.131116,0.047268 0.01133,0.00426 0.02328,0.00917 0.0345,0.013505 0.01316,0.00511 0.0215,0.00829 0.03451,0.013505 0.02682,0.010742 0.05671,0.022547 0.08281,0.033763 0.0088,0.00375 0.01889,0.0097 0.0276,0.013505 0.002,8.918e-4 0.0049,-8.947e-4 0.0069,0 0.01308,0.00582 0.02854,0.01431 0.0414,0.020258 0.0069,0.0032 0.01384,0.00351 0.0207,0.00675 0.0025,0.00119 0.0044,0.00556 0.0069,0.00675 0.02468,0.011764 0.05212,0.021473 0.07591,0.033762 0.0063,0.00327 0.01444,0.010198 0.0207,0.013505 0.008,0.00422 0.01971,0.00922 0.0276,0.013505 0.0046,0.0025 0.0093,0.00423 0.0138,0.00675 0.0048,0.00266 0.009,0.00407 0.0138,0.00675 0.0045,0.00255 0.0024,0.00418 0.0069,0.00675 0.0045,0.00257 0.0093,0.00416 0.0138,0.00675 0.0044,0.00259 0.0094,0.00414 0.0138,0.00675 0.0023,0.00134 0.0046,0.00541 0.0069,0.00675 0.01089,0.00656 0.02388,0.013548 0.0345,0.020257 0.0045,0.00283 0.0093,0.0039 0.0138,0.00675 0.0059,0.00379 0.008,0.00967 0.0138,0.013505 0.0066,0.00439 0.0142,0.00906 0.0207,0.013505 0.02242,0.015244 0.04806,0.031267 0.06901,0.047268 0.0019,0.00146 0.005,0.00528 0.0069,0.00675 0.02113,0.016325 0.04261,0.030123 0.06211,0.047268 0.0014,0.00123 -0.0014,0.00551 0,0.00675 0.006,0.0053 0.01491,0.00813 0.0207,0.013505 0.0034,0.00314 0.0036,0.010339 0.0069,0.013505 0.0045,0.00435 0.0094,0.00911 0.0138,0.013505 0.0016,0.0016 0.0053,-0.00161 0.0069,0 0.0017,0.00165 0.0053,0.00509 0.0069,0.00675 0.0044,0.00453 0.0095,0.00892 0.0138,0.013505 0.0011,0.00112 -0.0011,0.00563 0,0.00675 0.0018,0.00197 0.0051,0.00477 0.0069,0.00675 0.02079,0.022659 0.03735,0.043478 0.05521,0.067525 0.0036,0.0049 0.01028,0.00855 0.0138,0.013505 0.0011,0.00152 -0.0011,0.00523 0,0.00675 0.0015,0.00213 0.0054,0.00461 0.0069,0.00675 0.0042,0.00615 0.0098,0.01402 0.0138,0.020258 0.0016,0.00321 0.0054,0.00353 0.0069,0.00675 0.0031,0.0064 0.0042,0.013871 0.0069,0.020258 0.0067,0.016284 0.0096,0.030684 0.0138,0.047267 0.0027,0.00964 0.0052,0.024013 0.0069,0.033762 5.33e-4,0.00334 -4.26e-4,0.00341 0,0.00675 7.74e-4,0.00489 0.0064,0.00858 0.0069,0.013505 6.64e-4,0.00838 1.1e-5,0.018619 0,0.02701 -5.22e-4,0.00539 7.2e-4,0.014922 0,0.020258 -5.24e-4,0.00354 -0.0063,0.00998 -0.0069,0.013505 -9.16e-4,0.00528 0.0011,0.00828 0,0.013505 -0.0049,0.024471 -0.01177,0.044225 -0.0207,0.067525 -0.0013,0.00333 0.0014,0.00345 0,0.00675 -0.0021,0.00531 -0.0046,0.00825 -0.0069,0.013505 -0.0022,0.00492 -0.0046,0.00864 -0.0069,0.013505 -0.003,0.00652 -0.0036,0.00708 -0.0069,0.013505 -0.0017,0.00321 -0.0052,0.010316 -0.0069,0.013505 -0.0044,0.00798 -0.009,0.019177 -0.0138,0.02701 -9.79e-4,0.00156 -0.0059,-0.00156 -0.0069,0 -0.002,0.00312 0.002,0.00365 0,0.00675 -0.01015,0.015496 -0.02262,0.032321 -0.0345,0.047268 -0.0024,0.00299 -0.0045,0.00378 -0.0069,0.00675 -0.0024,0.00297 -0.0044,0.010559 -0.0069,0.013505 -0.02007,0.023579 -0.04498,0.045284 -0.06901,0.067525 -0.003,0.00278 -0.0038,0.00399 -0.0069,0.00675 -0.0049,0.00442 -0.01566,0.00914 -0.0207,0.013505 -0.0032,0.00272 -0.0037,0.010807 -0.0069,0.013505 -0.01163,0.00972 -0.02909,0.017547 -0.0414,0.02701 -0.0021,0.00157 -0.0048,0.00519 -0.0069,0.00675 -0.02147,0.016201 -0.04567,0.031798 -0.06901,0.047268 -0.0053,0.00349 -0.0084,0.010048 -0.0138,0.013505 -0.0096,0.00615 -0.02461,0.014226 -0.03451,0.020258 -0.08075,0.049253 -0.174457,0.09281 -0.269135,0.1350501 -0.01862,0.00824 -0.03623,0.019015 -0.05521,0.02701 -0.02117,0.00897 -0.04055,0.018333 -0.06211,0.02701 -0.01929,0.00776 -0.03567,0.012723 -0.05521,0.020257 -0.0098,0.00377 -0.02468,0.00979 -0.0345,0.013505 -0.0019,7.113e-4 -0.005,-7.091e-4 -0.0069,0 -0.0177,0.00666 -0.03047,0.013772 -0.0483,0.020258 -0.02972,0.010802 -0.05977,0.023426 -0.08971,0.033762 -0.04992,0.017237 -0.101956,0.03123 -0.15182,0.047268 -0.02992,0.00962 -0.06006,0.017784 -0.08971,0.02701 -0.02275,0.00708 -0.04651,0.020153 -0.06901,0.02701 -0.03616,0.011021 -0.06829,0.016516 -0.103513,0.02701 -0.01665,0.00441 -0.03853,0.00915 -0.05521,0.013505 -0.02683,0.00701 -0.04899,0.013403 -0.07591,0.020257 -0.01673,0.00426 -0.03844,0.0093 -0.05521,0.013505 -0.02697,0.00676 -0.04886,0.013643 -0.07591,0.020258 -0.02924,0.00715 -0.06038,0.013277 -0.08971,0.020258 -0.088,0.02094 -0.173433,0.041332 -0.262234,0.060773 -0.0296,0.00648 -0.06003,0.01394 -0.08971,0.020258 -0.04675,0.00995 -0.09796,0.017456 -0.144918,0.02701 -0.0234,0.00476 -0.04556,0.015593 -0.06901,0.020258 -0.0022,4.463e-4 -0.0047,-4.447e-4 -0.0069,0 -0.09174,0.018211 -0.183582,0.030501 -0.276034,0.047268 -0.03012,0.00546 -0.05953,0.014945 -0.08971,0.020257 -0.06038,0.010626 -0.118773,0.016968 -0.179423,0.02701 -0.04549,0.00753 -0.09238,0.019799 -0.138017,0.02701 -0.09127,0.014423 -0.184213,0.027331 -0.276035,0.040515 -0.03061,0.00442 -0.05904,0.00922 -0.08971,0.013505 -0.06133,0.00852 -0.124776,0.012256 -0.186323,0.020258 -0.03078,0.00402 -0.05888,0.00961 -0.08971,0.013505 -0.03314,0.00416 -0.07032,0.00949 -0.103514,0.013505 -0.05505,0.00667 -0.110424,0.013979 -0.165621,0.020258 -0.0023,2.657e-4 -0.0046,-2.654e-4 -0.0069,0 -0.249921,0.028354 -0.499861,0.0532 -0.752195,0.074277 -0.06253,0.00527 -0.12368,0.00864 -0.186323,0.013505 -0.219229,0.016863 -0.442347,0.03491 -0.662483,0.047268 -0.06067,0.00343 -0.12562,0.00363 -0.186323,0.00675 -0.03147,0.0016 -0.06514,0.00523 -0.09661,0.00675 -0.06072,0.00296 -0.125591,0.00408 -0.186323,0.00675 -0.251859,0.010942 -0.500703,0.020293 -0.752194,0.02701 -0.06287,0.0017 -0.123511,0.00528 -0.186323,0.00675 -0.127858,0.00298 -0.252042,0.00459 -0.379548,0.00675 -0.06553,2.689e-4 -0.134504,-4.88e-5 -0.200125,0 -0.0023,1.4e-6 -0.0046,-8e-7 -0.0069,0 -0.03168,1.97e-5 -0.06491,3.38e-5 -0.09661,0 -0.0023,-2.9e-6 -0.0046,3.2e-6 -0.0069,0 -0.133596,-1.588e-4 -0.266393,0.00119 -0.40025,0 -0.0023,-2.11e-5 -0.0046,2.14e-5 -0.0069,0 -0.06581,-6.211e-4 -0.134266,-0.00586 -0.200125,-0.00675 -0.06811,-9.033e-4 -0.138885,0.00121 -0.207026,0 -0.06817,-0.00124 -0.131942,-0.00519 -0.200126,-0.00675 -0.0023,-5.24e-5 -0.0046,5.23e-5 -0.0069,0 -0.03408,-7.649e-4 -0.06253,8.476e-4 -0.09661,0 -0.06819,-0.00173 -0.13884,-0.00468 -0.207025,-0.00675 -0.06818,-0.00208 -0.131957,-0.00431 -0.200125,-0.00675 -0.0023,-8.12e-5 -0.0046,8.2e-5 -0.0069,0 -0.0659,-0.00237 -0.134261,-0.00403 -0.200126,-0.00675 -0.09989,-0.00407 -0.203858,-0.00859 -0.303637,-0.013505 -0.0023,-1.131e-4 -0.0046,1.136e-4 -0.0069,0 -0.2698301,-0.013356 -0.5390236,-0.033785 -0.8074016,-0.05402 -0.00225,-1.717e-4 -0.00465,1.719e-4 -0.0069,0 -0.2007398,-0.015183 -0.4008964,-0.03451 -0.6003756,-0.05402 -0.00223,-2.207e-4 -0.00467,2.204e-4 -0.0069,0 -0.1344428,-0.013184 -0.2665261,-0.025208 -0.4002501,-0.040515 -0.033449,-0.00385 -0.063212,-0.00952 -0.096612,-0.013505 -0.050073,-0.00595 -0.1018631,-0.00724 -0.1518191,-0.013505 -0.1498675,-0.018784 -0.2998468,-0.039037 -0.448556,-0.060773 -0.04957,-0.00725 -0.1023909,-0.019424 -0.1518197,-0.02701 -0.065905,-0.010115 -0.127582,-0.016275 -0.1932237,-0.02701 -0.032821,-0.00537 -0.06386,-0.014732 -0.096612,-0.020258 -0.018392,-0.0031 -0.036837,-0.0036 -0.055207,-0.00675 -0.016364,-0.00281 -0.03196,-0.0039 -0.048306,-0.00675 -0.032682,-0.00569 -0.064002,-0.01441 -0.096612,-0.020257 -0.016305,-0.00292 -0.032019,-0.00379 -0.048306,-0.00675 -0.032573,-0.00593 -0.064114,-0.014164 -0.096612,-0.020257 -0.016249,-0.00305 -0.032076,-0.00366 -0.048306,-0.00675 -0.03246,-0.00618 -0.06423,-0.013913 -0.096612,-0.020258 C 6.4914113,3.4326619 6.3627064,3.4051449 6.234492,3.3770089 6.202438,3.3699789 6.169847,3.3639629 6.13788,3.3567519 6.105913,3.3495419 6.073147,3.3438849 6.041268,3.3364939 6.025329,3.3327939 6.008879,3.3267339 5.992962,3.3229889 5.950688,3.3115579 5.905213,3.3010819 5.8618462,3.2892259 c -0.021684,-0.00593 -0.040227,-0.014205 -0.062108,-0.020257 -0.043762,-0.012106 -0.086867,-0.021086 -0.1311164,-0.033763 -0.022125,-0.00634 -0.046837,-0.013758 -0.069009,-0.020258 -0.022171,-0.0065 -0.039941,-0.013585 -0.062108,-0.020258 -0.022167,-0.00667 -0.046896,-0.013399 -0.069009,-0.020257 -0.022112,-0.00686 -0.047001,-0.013201 -0.069008,-0.020258 -0.03301,-0.010585 -0.063981,-0.022699 -0.096612,-0.033763 -0.021754,-0.00738 -0.040585,-0.012653 -0.062108,-0.020257 -0.010761,-0.0038 -0.02381,-0.00964 -0.034504,-0.013505 -0.021388,-0.00772 -0.041027,-0.012288 -0.062108,-0.020258 -0.042162,-0.015938 -0.083586,-0.037023 -0.1242155,-0.05402 -0.071102,-0.029745 -0.142316,-0.061136 -0.2070259,-0.094535 -0.025884,-0.01336 -0.051291,-0.026512 -0.07591,-0.040515 -0.00175,-10e-4 -0.00516,10e-4 -0.0069,0 -0.014232,-0.00815 -0.020739,-0.01863 -0.034505,-0.02701 -0.00424,-0.00257 -0.00961,-0.00416 -0.013801,-0.00675 -0.046216,-0.028545 -0.090995,-0.056464 -0.1311165,-0.087783 -0.00364,-0.00284 -0.00331,-0.00389 -0.0069,-0.00675 -0.00503,-0.00402 -0.00888,-0.00944 -0.013802,-0.013505 -0.00353,-0.00289 -0.00343,-0.00384 -0.0069,-0.00675 -0.029231,-0.024528 -0.05784,-0.047961 -0.082811,-0.074278 -0.00299,-0.00312 -0.00397,-0.00361 -0.0069,-0.00675 -0.00514,-0.00551 -0.00887,-0.014667 -0.013802,-0.020257 -0.00112,-0.00128 -0.00579,0.00128 -0.0069,0 -0.012339,-0.014087 -0.016571,-0.025904 -0.027603,-0.040515 -0.00253,-0.00331 -0.00444,-0.00342 -0.0069,-0.00675 -0.00838,-0.011346 -0.01314,-0.022093 -0.020703,-0.033763 -0.00225,-0.00342 -0.00472,-0.00331 -0.0069,-0.00675 -0.00872,-0.013796 -0.020071,-0.026259 -0.027603,-0.040515 -0.00188,-0.00356 -0.00509,-0.00991 -0.0069,-0.013505 -0.00632,-0.012576 -0.00844,-0.027576 -0.013802,-0.040515 -0.0023,-0.00555 -0.00478,-0.00789 -0.0069,-0.013505 -9.799e-4,-0.0052 7.601e-4,-0.015098 0,-0.020258 -7.595e-4,-0.00516 -0.00636,-0.00839 -0.0069,-0.013505 -7.232e-4,-0.00682 3.437e-4,-0.013507 0,-0.020258 -1.73e-4,-0.00338 7.98e-5,-0.00339 0,-0.00675 -7.79e-5,-0.00336 -1.44e-5,-0.010166 0,-0.013505 1.29e-5,-0.00334 -1.037e-4,-0.00343 0,-0.00675 2.122e-4,-0.00664 -5.736e-4,-0.01369 0,-0.020258 2.844e-4,-0.00329 -3.729e-4,-0.00348 0,-0.00675 5.636e-4,-0.0049 0.00614,-0.00865 0.0069,-0.013505 7.615e-4,-0.00486 -9.555e-4,-0.015441 0,-0.020258 6.338e-4,-0.00321 -7.184e-4,-0.00356 0,-0.00675 7.228e-4,-0.00319 0.00609,-0.01033 0.0069,-0.013505 8.03e-4,-0.00318 -8.861e-4,-0.00359 0,-0.00675 8.905e-4,-0.00316 -9.727e-4,-0.00361 0,-0.00675 0.00387,-0.012573 0.00865,-0.028224 0.013802,-0.040515 0.00129,-0.00307 0.00553,-0.0037 0.0069,-0.00675 0.00206,-0.00458 0.00467,-0.00897 0.0069,-0.013505 0.00223,-0.00454 0.0045,-0.00901 0.0069,-0.013505 0.0024,-0.0045 0.00433,-0.00905 0.0069,-0.013505 8.562e-4,-0.00149 -8.738e-4,-0.00527 0,-0.00675 0.00348,-0.00594 0.010031,-0.014391 0.013802,-0.020257 0.00568,-0.00878 0.0075,-0.011631 0.013802,-0.020258 0.0021,-0.00288 0.00473,-0.010647 0.0069,-0.013505 0.00216,-0.00286 0.00467,-0.00391 0.0069,-0.00675 0.00224,-0.00284 0.0046,-0.00393 0.0069,-0.00675 0.00459,-0.00566 0.00895,-0.014665 0.013802,-0.020257 0.0034,-0.00391 0.010275,-0.00288 0.013801,-0.00675 0.00497,-0.00556 0.00858,-0.00801 0.013802,-0.013505 0.00262,-0.00274 0.00422,-0.010783 0.0069,-0.013505 0.00534,-0.00546 0.00822,-0.00812 0.013802,-0.013505 0.0028,-0.00269 0.00405,-0.00408 0.0069,-0.00675 0.00569,-0.00536 0.014785,-0.014968 0.020703,-0.020258 0.00297,-0.00264 0.00388,-0.00413 0.0069,-0.00675 0.00904,-0.00788 0.018083,-0.012522 0.027603,-0.020258 0.00318,-0.00257 0.010569,-0.0042 0.013802,-0.00675 0.012898,-0.010248 0.020822,-0.023777 0.034504,-0.033763 0.010288,-0.00747 0.023804,-0.012938 0.034504,-0.020258 0.010674,-0.00734 0.023443,-0.013061 0.034504,-0.020257 0.00739,-0.00478 0.013148,-0.00879 0.020703,-0.013505 0.038806,-0.024513 0.074725,-0.05146 0.1173146,-0.074278 0.032973,-0.017665 0.068808,-0.030596 0.1035133,-0.047268 0.026028,-0.012503 0.049137,-0.028562 0.075909,-0.040515 0.017849,-0.00797 0.037101,-0.01253 0.055206,-0.020257 0.00905,-0.00386 0.018498,-0.0097 0.027604,-0.013505 0.018213,-0.00761 0.036824,-0.012889 0.055206,-0.020258 0.00919,-0.00368 0.018381,-0.00988 0.027604,-0.013505 0.018446,-0.00725 0.036679,-0.013242 0.055206,-0.020258 0.018528,-0.00702 0.036656,-0.013474 0.055208,-0.020258 0.018551,-0.00678 0.03669,-0.013704 0.055207,-0.020257 0.018516,-0.00655 0.036784,-0.013932 0.055206,-0.020258 0.00922,-0.00316 0.018421,-0.00365 0.027604,-0.00675 0.018354,-0.00621 0.037033,-0.014269 0.055207,-0.020258 0.02726,-0.00898 0.056122,-0.018526 0.08281,-0.02701 0.010052,-0.00294 0.017568,-0.00386 0.027604,-0.00675 0.030108,-0.00869 0.059591,-0.018613 0.089711,-0.02701 0.00201,-5.599e-4 0.00489,5.588e-4 0.0069,0 0.038165,-0.010619 0.07867,-0.023333 0.117315,-0.033763 C 4.3404701,1.6114975 3.4810767,1.887402 3.4810767,2.377698 c 0,0.09548 0,1.5994026 0,1.6948831 0,1.0357191 3.8263951,1.8772007 8.5432713,1.8772007 4.716875,0 8.543271,-0.8414816 8.543271,-1.8772007 0,-0.09548 0,-1.5994027 0,-1.6948831 0,-0.5008973 -0.89556,-0.7836548 -2.353195,-0.9521052 z"
         id="path2528"
         style="fill:url(#linearGradient3473);fill-opacity:1;fill-rule:evenodd;stroke:#808389;stroke-width:0.96135771;stroke-linecap:round;stroke-linejoin:round;stroke-miterlimit:4;stroke-opacity:1;stroke-dasharray:none;stroke-dashoffset:0;marker:none;visibility:visible;display:inline;overflow:visible" />
      <path
         d="m 11.769015,0.50724987 c -0.278916,0.001536 -0.557281,0.007619 -0.835004,0.0135051 C 8.8548365,0.59584932 6.720681,0.7651173 4.8267453,1.3715724 4.19821,1.5903296 3.3956463,1.9424901 3.4879776,2.4789859 3.6876357,3.0579227 4.6183178,3.3383298 5.3650131,3.5593893 7.6141478,4.1380963 10.071174,4.2656544 12.466003,4.2548987 14.67887,4.213857 16.948552,4.0653334 18.99422,3.4716065 19.667112,3.2521297 20.518481,2.9404809 20.567618,2.3844508 20.567704,2.3195428 20.555021,2.2506649 20.526212,2.1886276 20.198988,1.6269062 19.268375,1.3717391 18.483556,1.1554918 16.34089,0.64279326 14.040192,0.49474746 11.769015,0.50724987 z m -0.407151,0.29711078 c 2.19696,-0.0296813 4.437314,0.0794952 6.514417,0.53344925 0.710913,0.1789144 1.553022,0.3928242 1.849431,0.8575702 0.02609,0.051328 0.04148,0.101606 0.04141,0.1553081 -0.04451,0.4600373 -0.818951,0.7164986 -1.428479,0.8980852 C 16.485607,3.7399994 14.42909,3.8698112 12.424602,3.9037677 10.255283,3.9126665 8.0303325,3.8018505 5.9929914,3.3230512 5.3166097,3.1401552 4.4762355,2.9107079 4.2953787,2.4317183 4.2117418,1.9878429 4.9336824,1.6943663 5.50303,1.5133754 7.2186193,1.0116182 9.1541389,0.8732435 11.037524,0.81111346 c 0.107816,-0.002087 0.216293,-0.005293 0.32434,-0.006753 z"
         id="path2530"
         style="fill:#d9dcd5;fill-opacity:1;fill-rule:evenodd;stroke:url(#linearGradient3475);stroke-width:0.96135771;stroke-linecap:round;stroke-linejoin:round;stroke-miterlimit:4;stroke-opacity:1;stroke-dasharray:none;stroke-dashoffset:0;marker:none;visibility:visible;display:inline;overflow:visible" />
      <path
         d="m 11.769016,0.50724987 c -0.278917,0.001536 -0.557282,0.007619 -0.835005,0.0135051 C 8.854837,0.59584932 6.720681,0.7651173 4.8267457,1.3715725 4.1982105,1.5903296 3.3956463,1.9424901 3.4879776,2.478986 3.6876357,3.057923 4.6183178,3.33833 5.3650131,3.5593893 7.6141482,4.1380965 10.071174,4.2656544 12.466004,4.2548989 14.67887,4.213857 16.948553,4.0653335 18.994221,3.4716067 19.667113,3.2521296 20.518482,2.940481 20.567619,2.3844508 20.567705,2.3195428 20.555022,2.250665 20.526212,2.1886276 20.198988,1.6269063 19.268375,1.3717391 18.483557,1.1554918 16.340891,0.64279326 14.040192,0.49474746 11.769016,0.50724987 z M 11.361864,0.8043607 c 2.19696,-0.0296814 4.437315,0.0794951 6.514417,0.5334492 0.710914,0.1789144 1.553023,0.3928242 1.849432,0.8575703 0.0261,0.051328 0.04148,0.101606 0.04141,0.155308 -0.04451,0.4600375 -0.818951,0.7164988 -1.42848,0.8980854 C 16.485608,3.7399996 14.42909,3.8698113 12.424602,3.9037677 10.255284,3.9126667 8.030333,3.8018505 5.9929914,3.3230512 5.3166102,3.1401553 4.4762355,2.9107081 4.2953787,2.4317184 4.2117418,1.9878429 4.9336828,1.6943663 5.50303,1.5133754 7.2186193,1.0116182 9.1541389,0.8732435 11.037524,0.81111346 c 0.107816,-0.002087 0.216294,-0.005293 0.32434,-0.006753 z"
         id="path2532"
         style="fill:url(#linearGradient3477);fill-opacity:1;fill-rule:evenodd;stroke:none;stroke-width:1;marker:none;visibility:visible;display:inline;overflow:visible" />
    </g>
  </g>
  <path
     d="m 18.607077,20.012 1.905191,0.464 0.410836,-2.261914 -0.126411,-1.148799 -0.537248,0.287199 -0.695262,-0.789801 -1.106098,1.112901 0.126411,-1.077 -0.234133,-0.510995 -0.05029,0.654596 -0.979687,0.6462 -0.189617,0.933399 -0.22122,-0.7539 -0.568851,-0.0359 -1.137701,1.471902 0.483065,1.496112 2.921015,-0.488 z"
     id="path3035"
     style="fill:url(#radialGradient3143);fill-opacity:1;fill-rule:evenodd;stroke:url(#radialGradient3145);stroke-width:0.99999994;stroke-linecap:butt;stroke-linejoin:miter;stroke-miterlimit:4;stroke-opacity:1;stroke-dasharray:none;stroke-dashoffset:0;marker:none;visibility:visible;display:inline;overflow:visible" />
  <path
     d="m 19.594041,20.006248 -1.520242,-0.858763 0.497347,-0.897498 -0.603921,-0.718002 0.568396,-0.6462 -0.994694,0.610302 -0.319723,1.4001 -0.532876,1.7232 0.390773,-0.8616 2.51494,0.248461 z"
     id="path3037"
     style="opacity:0.61797755;fill:url(#linearGradient3147);fill-opacity:1;fill-rule:evenodd;stroke:none;stroke-width:5.2482543;marker:none;visibility:visible;display:inline;overflow:visible" />
  <path
     d="m 14.878004,18.949357 1.327318,-0.466701 0.66366,-0.8616 -0.347631,1.759101 c 0,0 0.505644,0.502599 0.505644,0.287199 0,-0.2154 0.252823,-2.548899 0.252823,-2.548899 l 0.410837,0.0359 -0.537248,3.302802 -1.169304,-1.436001 -1.106099,-0.0718 z"
     id="path3039"
     style="opacity:0.13483145;fill:url(#linearGradient3149);fill-opacity:1;fill-rule:evenodd;stroke:none;stroke-width:5.2482543;marker:none;visibility:visible;display:inline;overflow:visible" />
  <path
     d="m 19.268118,19.224582 1.580141,0.179499 -1.074496,-0.394899 0.284426,-1.041102 -0.474043,-0.251298 0.158014,-1.256502 -0.221219,-0.287199 -0.06321,1.8309 0.442439,0.179499 -0.347631,0.789801 -0.284425,0.251301 z"
     id="path3041"
     style="fill:#ffffff;fill-opacity:1;fill-rule:evenodd;stroke:none;stroke-width:5.2482543;marker:none;visibility:visible;display:inline;overflow:visible" />
  <path
     d="m 20.515312,20.400343 -0.301878,-0.825125 -1.612945,0.183945 -0.621259,-0.724692 -0.806278,-1.636297 0.988779,1.578906 0.612424,0.478808 1.704198,-0.212639 0.03696,1.157094 z"
     id="path3043"
     style="fill:#ffffff;fill-opacity:1;fill-rule:evenodd;stroke:none;stroke-width:5.2482543;marker:none;visibility:visible;display:inline;overflow:visible" />
</svg>
