<?xml version="1.0" encoding="UTF-8" standalone="no"?>
<svg
   id="svg13986"
   height="64"
   width="64"
   version="1.1"
   xmlns:xlink="http://www.w3.org/1999/xlink"
   xmlns="http://www.w3.org/2000/svg"
   xmlns:svg="http://www.w3.org/2000/svg"
   xmlns:rdf="http://www.w3.org/1999/02/22-rdf-syntax-ns#"
   xmlns:cc="http://creativecommons.org/ns#"
   xmlns:dc="http://purl.org/dc/elements/1.1/">
  <defs
     id="defs13988">
    <linearGradient
       id="linearGradient3924-2-2-5-8">
      <stop
         offset="0"
         style="stop-color:#ffffff;stop-opacity:1"
         id="stop3926-9-4-9-6" />
      <stop
         offset="0.08788455"
         style="stop-color:#ffffff;stop-opacity:0.23529412"
         id="stop3928-9-8-6-5" />
      <stop
         offset="0.91637498"
         style="stop-color:#ffffff;stop-opacity:0.15686275"
         id="stop3930-3-5-1-7" />
      <stop
         offset="1"
         style="stop-color:#ffffff;stop-opacity:0.39215687"
         id="stop3932-8-0-4-8" />
    </linearGradient>
    <linearGradient
       id="linearGradient3688-166-749-4-0-3-8">
      <stop
         offset="0"
         style="stop-color:#181818;stop-opacity:1"
         id="stop2883-4-0-1-8" />
      <stop
         offset="1"
         style="stop-color:#181818;stop-opacity:0"
         id="stop2885-9-2-9-6" />
    </linearGradient>
    <linearGradient
       id="linearGradient3702-501-757-8-4-1-1">
      <stop
         offset="0"
         style="stop-color:#181818;stop-opacity:0"
         id="stop2895-8-9-9-1" />
      <stop
         offset="0.5"
         style="stop-color:#181818;stop-opacity:1"
         id="stop2897-7-8-7-7" />
      <stop
         offset="1"
         style="stop-color:#181818;stop-opacity:0"
         id="stop2899-4-5-1-5" />
    </linearGradient>
    <linearGradient
       y2="42.186646"
       x2="23.99999"
       y1="5.9147639"
       x1="23.99999"
       gradientTransform="matrix(1.4324324,0,0,1.4324325,-2.378381,-2.3783731)"
       gradientUnits="userSpaceOnUse"
       id="linearGradient3647"
       xlink:href="#linearGradient3924-2-2-5-8" />
    <radialGradient
       cx="4.9929786"
       cy="43.5"
       r="2.5"
       fx="4.9929786"
       fy="43.5"
       id="radialGradient3337-2-2-3"
       xlink:href="#linearGradient3688-166-749-4-0-3-8"
       gradientUnits="userSpaceOnUse"
       gradientTransform="matrix(2.4045407,0,0,0.99999998,41.985755,15.500001)" />
    <radialGradient
       cx="4.9929786"
       cy="43.5"
       r="2.5"
       fx="4.9929786"
       fy="43.5"
       id="radialGradient3339-1-4-5"
       xlink:href="#linearGradient3688-166-749-4-0-3-8"
       gradientUnits="userSpaceOnUse"
       gradientTransform="matrix(2.4045407,0,0,0.99999998,-22.014244,-102.5)" />
    <linearGradient
       x1="25.058096"
       y1="47.027729"
       x2="25.058096"
       y2="39.999443"
       id="linearGradient6394"
       xlink:href="#linearGradient3702-501-757-8-4-1-1"
       gradientUnits="userSpaceOnUse"
       gradientTransform="matrix(1.5714286,0,0,0.7142857,-5.7142853,27.928572)" />
    <linearGradient
       xlink:href="#linearGradient3104-6"
       id="linearGradient3170"
       gradientUnits="userSpaceOnUse"
       gradientTransform="matrix(0.80749686,0,0,0.89471714,10.835333,-0.132171)"
       x1="12.879265"
       y1="66.950981"
       x2="12.879265"
       y2="4.7802162" />
    <linearGradient
       id="linearGradient3104-6">
      <stop
         offset="0"
         style="stop-color:#000000;stop-opacity:0.31782946"
         id="stop3106-3" />
      <stop
         offset="1"
         style="stop-color:#000000;stop-opacity:0.24031007"
         id="stop3108-9" />
    </linearGradient>
    <linearGradient
       xlink:href="#linearGradient3600-9-51"
       id="linearGradient1512"
       gradientUnits="userSpaceOnUse"
       gradientTransform="matrix(1.3804479,0,0,1.327717,-70.158247,-1.469213)"
       x1="74.838791"
       y1="4.535933"
       x2="74.838791"
       y2="49.779099" />
    <linearGradient
       id="linearGradient3600-9-51">
      <stop
         offset="0"
         style="stop-color:#f4f4f4;stop-opacity:1"
         id="stop3602-0-0" />
      <stop
         offset="1"
         style="stop-color:#dbdbdb;stop-opacity:1"
         id="stop3604-9-04" />
    </linearGradient>
    <linearGradient
       spreadMethod="pad"
       gradientTransform="matrix(0.87539065,-0.87968181,0.97932539,0.97445279,1.5935427,26.579504)"
       gradientUnits="userSpaceOnUse"
       xlink:href="#linearGradient1039"
       id="linearGradient3176"
       y2="31.210939"
       x2="23.575972"
       y1="25.356892"
       x1="23.575972" />
    <linearGradient
       id="linearGradient1039">
      <stop
         id="stop1023"
         style="stop-color:#ad5f00;stop-opacity:1"
         offset="0" />
      <stop
         id="stop1025"
         style="stop-color:#ffe16b;stop-opacity:1"
         offset="0.13482948" />
      <stop
         id="stop1027"
         style="stop-color:#f9c440;stop-opacity:1"
         offset="0.20224422" />
      <stop
         id="stop1029"
         style="stop-color:#fff394;stop-opacity:1"
         offset="0.26965895" />
      <stop
         id="stop1031"
         style="stop-color:#f9c440;stop-opacity:1"
         offset="0.44650277" />
      <stop
         id="stop1033"
         style="stop-color:#f9c440;stop-opacity:1"
         offset="0.57114136" />
      <stop
         id="stop1035"
         style="stop-color:#ffe16b;stop-opacity:1"
         offset="0.72038066" />
      <stop
         id="stop1037"
         style="stop-color:#ad5f00;stop-opacity:1"
         offset="1" />
    </linearGradient>
    <linearGradient
       spreadMethod="pad"
       y2="31.210939"
       x2="23.575972"
       y1="25.356892"
       x1="23.575972"
       gradientTransform="matrix(0.87539065,-0.87968181,0.97932539,0.97445279,1.5935427,26.579504)"
       gradientUnits="userSpaceOnUse"
       id="linearGradient1018"
       xlink:href="#linearGradient3155-40" />
    <linearGradient
       id="linearGradient3155-40">
      <stop
         offset="0"
         style="stop-color:#555761;stop-opacity:1"
         id="stop2541" />
      <stop
         offset="0.13482948"
         style="stop-color:#d4d4d4;stop-opacity:1"
         id="stop2543" />
      <stop
         offset="0.20224422"
         style="stop-color:#abacae;stop-opacity:1"
         id="stop2545" />
      <stop
         offset="0.26965895"
         style="stop-color:#fafafa;stop-opacity:1"
         id="stop2547" />
      <stop
         offset="0.44650277"
         style="stop-color:#abacae;stop-opacity:1"
         id="stop2549" />
      <stop
         offset="0.57114136"
         style="stop-color:#7e8087;stop-opacity:1"
         id="stop2551" />
      <stop
         offset="0.72038066"
         style="stop-color:#d4d4d4;stop-opacity:1"
         id="stop2553" />
      <stop
         offset="1"
         style="stop-color:#555761;stop-opacity:1"
         id="stop2555" />
    </linearGradient>
    <linearGradient
       gradientTransform="matrix(0.85064445,-0.85481442,1.146122,1.1404196,-1.6144037,22.078238)"
       gradientUnits="userSpaceOnUse"
       xlink:href="#linearGradient3240-279"
       id="linearGradient3171"
       y2="30.000141"
       x2="30.037716"
       y1="24.989594"
       x1="30.037716" />
    <linearGradient
       id="linearGradient3240-279">
      <stop
         offset="0"
         style="stop-color:#555761;stop-opacity:1"
         id="stop2559" />
      <stop
         offset="0.5"
         style="stop-color:#abacae;stop-opacity:1"
         id="stop2561" />
      <stop
         offset="1"
         style="stop-color:#555761;stop-opacity:1"
         id="stop2563" />
    </linearGradient>
    <linearGradient
       gradientTransform="matrix(0.85064445,-0.85481442,1.146122,1.1404196,-1.8580167,22.323046)"
       gradientUnits="userSpaceOnUse"
       xlink:href="#linearGradient3223-789"
       id="linearGradient3168"
       y2="30.000141"
       x2="30.037716"
       y1="24.989594"
       x1="30.037716" />
    <linearGradient
       id="linearGradient3223-789">
      <stop
         offset="0"
         style="stop-color:#abacae;stop-opacity:1"
         id="stop2567" />
      <stop
         offset="0.5"
         style="stop-color:#fafafa;stop-opacity:1"
         id="stop2569" />
      <stop
         offset="1"
         style="stop-color:#abacae;stop-opacity:1"
         id="stop2571" />
    </linearGradient>
    <linearGradient
       gradientTransform="matrix(0.85064445,-0.85481442,1.146122,1.1404196,-0.76785165,21.227535)"
       gradientUnits="userSpaceOnUse"
       xlink:href="#linearGradient3240-279"
       id="linearGradient3165"
       y2="30.000141"
       x2="30.037716"
       y1="24.989594"
       x1="30.037716" />
    <linearGradient
       gradientTransform="matrix(0.85064445,-0.85481442,1.146122,1.1404196,-1.0114657,21.472341)"
       gradientUnits="userSpaceOnUse"
       xlink:href="#linearGradient3223-789"
       id="linearGradient3162"
       y2="30.000141"
       x2="30.037716"
       y1="24.989594"
       x1="30.037716" />
    <linearGradient
       gradientTransform="matrix(0.85064445,-0.85481442,1.146122,1.1404196,0.08279335,20.37272)"
       gradientUnits="userSpaceOnUse"
       xlink:href="#linearGradient3240-279"
       id="linearGradient3159"
       y2="30.000141"
       x2="30.037716"
       y1="24.989594"
       x1="30.037716" />
    <linearGradient
       gradientTransform="matrix(0.85064445,-0.85481442,1.146122,1.1404196,-0.16081965,20.617529)"
       gradientUnits="userSpaceOnUse"
       xlink:href="#linearGradient3223-789"
       id="linearGradient3156"
       y2="30.000141"
       x2="30.037716"
       y1="24.989594"
       x1="30.037716" />
    <linearGradient
       gradientTransform="matrix(0.85064445,-0.85481442,1.1461221,1.1404197,-1.9374917,22.402906)"
       gradientUnits="userSpaceOnUse"
       xlink:href="#linearGradient3290-678"
       id="linearGradient3151"
       y2="26.02973"
       x2="9"
       y1="29.056757"
       x1="9" />
    <linearGradient
       id="linearGradient3290-678">
      <stop
         offset="0"
         style="stop-color:#fff394;stop-opacity:1"
         id="stop2607" />
      <stop
         offset="1"
         style="stop-color:#fafafa;stop-opacity:1"
         id="stop2609" />
    </linearGradient>
    <linearGradient
       gradientTransform="matrix(0.74712277,0.03224699,0.03220731,0.74620134,29.005113,17.56776)"
       gradientUnits="userSpaceOnUse"
       xlink:href="#linearGradient3191-577"
       id="linearGradient3153"
       y2="41.391716"
       x2="9.5220556"
       y1="37.371799"
       x1="5.5178981" />
    <linearGradient
       id="linearGradient3191-577">
      <stop
         offset="0"
         style="stop-color:#d48e15;stop-opacity:0.5;"
         id="stop2613" />
      <stop
         offset="1"
         style="stop-color:#ad5f00;stop-opacity:0.5;"
         id="stop2615" />
    </linearGradient>
  </defs>
  <metadata
     id="metadata13991">
    <rdf:RDF>
      <cc:Work
         rdf:about="">
        <dc:format>image/svg+xml</dc:format>
        <dc:type
           rdf:resource="http://purl.org/dc/dcmitype/StillImage" />
      </cc:Work>
    </rdf:RDF>
  </metadata>
  <g
     id="g2207">
    <rect
       style="opacity:0.4;fill:url(#radialGradient3337-2-2-3);fill-opacity:1;stroke:none;stroke-width:1.06199"
       id="rect2801-5-5-7-9"
       y="56.5"
       x="54"
       height="5"
       width="6" />
    <rect
       style="opacity:0.4;fill:url(#radialGradient3339-1-4-5);fill-opacity:1;stroke:none;stroke-width:1.06199"
       id="rect3696-3-0-3-7"
       transform="scale(-1)"
       y="-61.5"
       x="-10"
       height="5"
       width="6" />
    <rect
       style="opacity:0.4;fill:url(#linearGradient6394);fill-opacity:1;stroke:none;stroke-width:1.06199"
       id="rect3700-5-6-8-4"
       y="56.5"
       x="10"
       height="5.0000005"
       width="44" />
  </g>
  <rect
     style="color:#000000;font-variation-settings:normal;display:inline;overflow:visible;visibility:visible;vector-effect:none;fill:url(#linearGradient1512);fill-opacity:1;fill-rule:nonzero;stroke:none;stroke-width:1;stroke-linecap:butt;stroke-linejoin:miter;stroke-miterlimit:4;stroke-dasharray:none;stroke-dashoffset:0;stroke-opacity:1;-inkscape-stroke:none;marker:none;enable-background:accumulate;stop-color:#000000"
     id="rect5505-21-1-7-2-9"
     y="4.9423313"
     x="4.9999981"
     ry="5.5"
     rx="5.5"
     height="54"
     width="54" />
  <rect
     width="53"
     height="53.000004"
     rx="5"
     ry="4.9999995"
     x="5.4999986"
     y="5.5"
     id="rect6741-5-0-2-3"
     style="fill:none;stroke:url(#linearGradient3647);stroke-width:0.999997;stroke-linecap:round;stroke-linejoin:round;stroke-miterlimit:4;stroke-dasharray:none;stroke-dashoffset:0;stroke-opacity:1" />
  <g
     id="layer4-0"
     transform="matrix(0.9047486,0,0,0.9047486,-570.51497,-675.56047)" />
  <g
     id="layer4-0-7"
     transform="matrix(0.9047486,0,0,0.9047486,-570.51497,-668.32248)" />
  <g
     id="layer1-3"
     transform="matrix(0.9047486,0,0,0.9047486,-73.807987,0.49666306)" />
  <path
     style="color:#000000;clip-rule:nonzero;display:inline;overflow:visible;visibility:visible;opacity:0.1;isolation:auto;mix-blend-mode:normal;color-interpolation:sRGB;color-interpolation-filters:linearRGB;solid-color:#000000;solid-opacity:1;fill:#ffffff;fill-opacity:1;fill-rule:nonzero;stroke:none;stroke-width:1;stroke-linecap:butt;stroke-linejoin:miter;stroke-miterlimit:4;stroke-dasharray:none;stroke-dashoffset:0;stroke-opacity:1;marker:none;color-rendering:auto;image-rendering:auto;shape-rendering:auto;text-rendering:auto;enable-background:accumulate"
     d="m 29.571429,16 c -0.43706,0 -0.801276,1.688081 -1.015068,4.100586 a 13.357143,13.357143 0 0 0 -3.227818,1.356585 c -1.864593,-1.56272 -3.321111,-2.506037 -3.630998,-2.19615 l -3.436524,3.436524 c -0.309887,0.309887 0.63343,1.766405 2.19615,3.630998 a 13.357143,13.357143 0 0 0 -1.344727,3.227818 C 16.693181,29.769948 15,30.133637 15,30.571429 v 4.857142 c 0,0.43706 1.688081,0.801276 4.100586,1.015068 a 13.357143,13.357143 0 0 0 1.351841,3.234932 c -1.559167,1.861254 -2.50092,3.31437 -2.191406,3.623884 l 3.436524,3.436524 c 0.309221,0.309221 1.760509,-0.630281 3.619141,-2.186663 a 13.357143,13.357143 0 0 0 3.239675,1.335239 C 28.769948,48.306819 29.133637,50 29.571429,50 h 4.857142 c 0.43706,0 0.801276,-1.688081 1.015068,-4.100586 a 13.357143,13.357143 0 0 0 3.227818,-1.356585 c 1.864593,1.56272 3.321111,2.506037 3.630998,2.19615 l 3.436524,-3.436524 c 0.309887,-0.309887 -0.63343,-1.766405 -2.19615,-3.630998 a 13.357143,13.357143 0 0 0 1.344726,-3.227818 C 47.306819,36.230052 49,35.866363 49,35.428571 v -4.857142 c 0,-0.43706 -1.688081,-0.801276 -4.100586,-1.015068 a 13.357143,13.357143 0 0 0 -1.351841,-3.234932 c 1.559167,-1.861254 2.50092,-3.31437 2.191406,-3.623884 l -3.436524,-3.436524 c -0.309221,-0.309221 -1.760509,0.630281 -3.619141,2.186663 a 13.357143,13.357143 0 0 0 -3.239675,-1.33524 C 35.230052,17.693181 34.866363,16 34.428571,16 Z M 32,26.928571 A 6.0714286,6.0714286 0 0 1 38.071429,33 6.0714286,6.0714286 0 0 1 32,39.071429 6.0714286,6.0714286 0 0 1 25.928571,33 6.0714286,6.0714286 0 0 1 32,26.928571 Z"
     id="path4690-3" />
  <rect
     style="opacity:0.5;fill:#8cd5ff;stroke:none;stroke-width:4;stroke-linecap:round;stroke-linejoin:round;stop-color:#000000"
     id="rect1475-6"
     width="1"
     height="54"
     x="50"
     y="4.9999981"
     rx="0"
     ry="0" />
  <rect
     style="opacity:0.5;fill:#8cd5ff;stroke:none;stroke-width:4;stroke-linecap:round;stroke-linejoin:round;stop-color:#000000"
     id="rect1475-6-7"
     width="1"
     height="54"
     x="15"
     y="-59"
     rx="0"
     ry="0"
     transform="rotate(90)" />
  <rect
     style="opacity:0.5;fill:#8cd5ff;stroke:none;stroke-width:4;stroke-linecap:round;stroke-linejoin:round;stop-color:#000000"
     id="rect1475-6-7-7"
     width="1"
     height="54"
     x="21"
     y="-59"
     rx="0"
     ry="0"
     transform="rotate(90)" />
  <rect
     style="opacity:0.5;fill:#8cd5ff;stroke:none;stroke-width:4;stroke-linecap:round;stroke-linejoin:round;stop-color:#000000"
     id="rect1475-6-7-7-0"
     width="1"
     height="54"
     x="27"
     y="-59"
     rx="0"
     ry="0"
     transform="rotate(90)" />
  <rect
     style="opacity:0.5;fill:#8cd5ff;stroke:none;stroke-width:4;stroke-linecap:round;stroke-linejoin:round;stop-color:#000000"
     id="rect1475-6-7-7-0-9"
     width="1"
     height="54"
     x="33"
     y="-59"
     rx="0"
     ry="0"
     transform="rotate(90)" />
  <rect
     style="opacity:0.5;fill:#8cd5ff;stroke:none;stroke-width:4;stroke-linecap:round;stroke-linejoin:round;stop-color:#000000"
     id="rect1475-6-7-7-0-9-3"
     width="1"
     height="54"
     x="39"
     y="-59"
     rx="0"
     ry="0"
     transform="rotate(90)" />
  <rect
     style="opacity:0.5;fill:#8cd5ff;stroke:none;stroke-width:4;stroke-linecap:round;stroke-linejoin:round;stop-color:#000000"
     id="rect1475-6-7-7-0-9-3-6"
     width="1"
     height="54"
     x="45"
     y="-59"
     rx="0"
     ry="0"
     transform="rotate(90)" />
  <rect
     style="opacity:0.5;fill:#8cd5ff;stroke:none;stroke-width:4;stroke-linecap:round;stroke-linejoin:round;stop-color:#000000"
     id="rect1475-6-7-7-0-9-3-6-0"
     width="1"
     height="54"
     x="51"
     y="-59"
     rx="0"
     ry="0"
     transform="rotate(90)" />
  <path
     id="path2422-3"
     style="opacity:0.035;fill:#0c0c0c;fill-opacity:1;fill-rule:evenodd;stroke:none;stroke-width:1;stroke-dasharray:none"
     d="m 53.767578,30.943359 c -0.979011,0.244387 -1.735863,1.032368 -2.622061,1.498088 -5.544059,3.518142 -11.069897,7.073069 -16.624744,10.569186 -0.579176,0.203402 -0.560839,1.021289 -0.886739,1.485108 -1.194377,2.692844 -2.389368,5.385416 -3.583253,8.078478 3.432937,0.103717 6.865897,0.206671 10.298828,0.310547 6.36608,-4.044495 12.699957,-8.140854 19.048829,-12.212891 0.94625,-0.820503 0.360992,-2.210863 -0.03273,-3.171094 -1.04201,-2.241138 -2.382676,-4.41654 -4.236803,-6.076953 -0.390598,-0.297549 -0.854183,-0.565167 -1.361328,-0.480469 z" />
  <rect
     width="55"
     height="55"
     rx="6"
     ry="6"
     x="4.4999986"
     y="4.5000019"
     id="rect5505-21-3-8-9-1-1"
     style="color:#000000;display:inline;overflow:visible;visibility:visible;opacity:1;fill:none;stroke:url(#linearGradient3170);stroke-width:0.999922;stroke-linecap:butt;stroke-linejoin:round;stroke-miterlimit:4;stroke-dasharray:none;stroke-dashoffset:0;stroke-opacity:1;marker:none;enable-background:accumulate;font-variation-settings:normal;vector-effect:none;fill-opacity:1;-inkscape-stroke:none;stop-color:#000000;stop-opacity:1" />
  <path
     style="opacity:0.07;fill:#0c0c0c;fill-opacity:1;fill-rule:evenodd;stroke:none;stroke-width:1;stroke-dasharray:none"
     id="path2422"
     d="m 54.234103,32.021037 c -0.231,-0.13598 -0.40974,-0.10061 -0.527823,-0.02495 l -15.727509,10.014828 -2.894616,1.848398 -0.08912,0.0374 -3.427059,7.72242 8.49318,0.255815 0.0705,-0.04718 2.913229,-1.838602 15.72359,-10.1012 c 0.472343,-0.302645 -0.274679,-2.308458 -1.675739,-4.507318 -1.050799,-1.649136 -2.165636,-2.951672 -2.85864,-3.359609 v 0 z" />
  <path
     id="path2422-6"
     style="opacity:0.15;fill:#0c0c0c;fill-opacity:1;fill-rule:evenodd;stroke:none;stroke-width:1;stroke-dasharray:none"
     d="m 38.515625,42.855469 c -0.91226,0.626974 -1.943664,1.15151 -2.782736,1.84141 -0.882317,1.989061 -1.764634,3.978122 -2.646951,5.967183 2.232421,0.06706 4.464843,0.134115 6.697265,0.201172 6.053731,-3.825833 12.057709,-7.729982 18.089844,-11.589843 -0.679499,-2.139391 -1.959396,-4.061077 -3.421875,-5.748047 -0.394062,-0.74405 -0.94026,-0.252899 -1.445417,0.100625 -4.830043,3.075833 -9.660087,6.151666 -14.49013,9.2275 z" />
  <path
     style="fill:url(#linearGradient3176);fill-opacity:1;stroke:none;stroke-width:1;stroke-linecap:butt;stroke-linejoin:round;stroke-miterlimit:4;stroke-dasharray:none;stroke-dashoffset:0;stroke-opacity:1"
     id="rect2383"
     d="m 36.188218,41.465938 c 0.594537,-0.446137 2.262714,0.39074 3.795697,1.916096 1.529317,1.521706 2.335133,3.150009 1.899097,3.750366 -0.0016,0.0023 0.03752,0.03339 0.03581,0.03564 L 63.264689,25.717536 c 0.541954,-0.544611 -0.300099,-2.265649 -1.88175,-3.839428 -1.581645,-1.57378 -3.306905,-2.407285 -3.848863,-1.862671 z" />
  <path
     style="opacity:0.6;fill:#f9c440;fill-opacity:1;stroke:none;stroke-width:1;stroke-dasharray:none"
     id="path3208"
     d="m 36.188218,41.465935 c 0.594537,-0.446136 2.262715,0.390742 3.795696,1.916096 1.529317,1.521707 2.335134,3.150009 1.899097,3.750366 -0.0016,0.0023 0.03752,0.03339 0.03583,0.03564 l 14.700196,-14.772261 0.05317,-0.05343 c 0.0017,-0.0023 -0.03748,-0.03336 -0.03581,-0.03564 0.436028,-0.600361 -0.369789,-2.228662 -1.899105,-3.750369 -1.532982,-1.525354 -3.201161,-2.362232 -3.795698,-1.916094 l -0.05317,0.05342 -14.700191,14.772262 h -7e-6 z" />
  <path
     id="path1021"
     style="fill:none;fill-opacity:1;stroke:#ad5f00;stroke-width:1;stroke-linecap:butt;stroke-linejoin:round;stroke-miterlimit:4;stroke-dasharray:none;stroke-dashoffset:0;stroke-opacity:0.5"
     d="m 36.1875,41.466797 c 0.594536,-0.446137 2.263894,0.390661 3.796875,1.916015 1.529315,1.521705 2.334473,3.149644 1.898437,3.75 -0.0016,0.0023 0.03687,0.03291 0.03516,0.03516 L 56.671875,32.341797 c -0.0024,-0.005 -0.03677,-0.03298 -0.03516,-0.03516 0.436026,-0.600361 -0.369124,-2.228297 -1.898438,-3.75 -1.532974,-1.525348 -3.200381,-2.36215 -3.794918,-1.916012 0,0 -13.31264,13.375884 -14.755859,14.826172 z" />
  <path
     id="path934"
     style="fill:url(#linearGradient1018);fill-opacity:1;stroke:#555761;stroke-width:1;stroke-linecap:butt;stroke-linejoin:round;stroke-miterlimit:4;stroke-dasharray:none;stroke-dashoffset:0;stroke-opacity:1;font-variation-settings:normal;opacity:1;vector-effect:none;-inkscape-stroke:none;stop-color:#000000;stop-opacity:1"
     d="m 55.369141,22.513672 c -0.177129,-0.0026 -0.324457,0.03534 -0.435547,0.117187 -0.0012,8.64e-4 -0.0027,0.0011 -0.0039,0.002 l -3.986329,4.007813 c 0.594537,-0.446138 2.261942,0.390663 3.794922,1.916016 1.529315,1.521705 2.334465,3.149639 1.898438,3.75 -0.0017,0.0023 0.03881,0.03481 0.03711,0.03711 l 3.986328,-4.007812 c 0.0017,-0.0023 -0.03871,-0.03481 -0.03711,-0.03711 0.436036,-0.600355 -0.369123,-2.228295 -1.898438,-3.75 -1.245546,-1.239349 -2.579813,-2.023706 -3.355468,-2.035156 z" />
  <path
     style="opacity:1;fill:#fe9ab8;fill-opacity:1;stroke:#de3e80;stroke-width:1;stroke-linecap:butt;stroke-linejoin:round;stroke-miterlimit:4;stroke-dasharray:none;stroke-dashoffset:0;stroke-opacity:0.5"
     id="rect3175"
     d="m 54.92898,22.633306 c 0.594537,-0.446136 2.262715,0.390742 3.795697,1.916096 1.529316,1.521706 2.335133,3.150009 1.899096,3.750365 -0.0016,0.0023 0.03752,0.03338 0.03581,0.03564 l 2.605098,-2.61787 0.05317,-0.05342 c 0.0017,-0.0023 -0.03748,-0.03336 -0.03581,-0.03564 0.43603,-0.600356 -0.369788,-2.228658 -1.899104,-3.750363 -1.53298,-1.525355 -3.201157,-2.362234 -3.795696,-1.916096 l -0.05317,0.05342 -2.605096,2.617869 h 4e-6 z" />
  <path
     style="fill:url(#linearGradient3171);fill-opacity:1;stroke:none;stroke-width:1;stroke-dasharray:none"
     id="path3233"
     d="m 52.008979,25.567619 c 0.594536,-0.446138 2.262717,0.390741 3.795698,1.916096 1.529315,1.521705 2.335133,3.150007 1.899095,3.750365 -0.0016,0.0023 0.03752,0.03339 0.03581,0.03564 l 0.265828,-0.267134 c 0.0017,-0.0023 -0.03748,-0.03336 -0.03581,-0.03564 0.436038,-0.600357 -0.36978,-2.22866 -1.899097,-3.750363 -1.532981,-1.525356 -3.20116,-2.362234 -3.795696,-1.916097 l -0.265827,0.26713 v 2e-6 z" />
  <path
     style="fill:url(#linearGradient3168);fill-opacity:1;stroke:none;stroke-width:1;stroke-dasharray:none"
     id="path3216"
     d="m 51.765365,25.812426 c 0.594539,-0.446138 2.262718,0.39074 3.795697,1.916095 1.529319,1.521706 2.335136,3.150007 1.899097,3.750364 -0.0016,0.0023 0.03751,0.03339 0.03581,0.03564 l 0.265825,-0.267132 c 0.0017,-0.0023 -0.03748,-0.03336 -0.03581,-0.03564 0.436041,-0.600355 -0.369777,-2.228658 -1.899095,-3.750363 -1.532981,-1.525354 -3.201159,-2.362234 -3.795699,-1.916096 l -0.265825,0.267131 z" />
  <path
     style="fill:url(#linearGradient3165);fill-opacity:1;stroke:none;stroke-width:1;stroke-dasharray:none"
     id="path3248"
     d="m 52.855532,24.716916 c 0.594537,-0.446138 2.262715,0.39074 3.795697,1.916096 1.529316,1.521705 2.335134,3.150006 1.899097,3.750364 -0.0016,0.0023 0.03751,0.03338 0.03581,0.03564 l 0.265826,-0.26713 c 0.0017,-0.0023 -0.03748,-0.03336 -0.03581,-0.03564 0.436037,-0.600356 -0.369779,-2.22866 -1.899098,-3.750364 -1.53298,-1.525355 -3.201156,-2.362234 -3.795697,-1.916096 z" />
  <path
     style="fill:url(#linearGradient3162);fill-opacity:1;stroke:none;stroke-width:1;stroke-dasharray:none"
     id="path3250"
     d="m 52.611918,24.961723 c 0.59454,-0.446138 2.262718,0.39074 3.795697,1.916095 1.529318,1.521706 2.335135,3.150007 1.899098,3.750364 -0.0016,0.0023 0.03752,0.03339 0.03581,0.03564 l 0.265825,-0.267131 c 0.0017,-0.0023 -0.03748,-0.03336 -0.03581,-0.03564 0.436039,-0.600357 -0.369778,-2.228661 -1.899095,-3.750364 -1.53298,-1.525355 -3.201159,-2.362235 -3.795699,-1.916096 l -0.265826,0.267131 z" />
  <path
     style="fill:url(#linearGradient3159);fill-opacity:1;stroke:none;stroke-width:1;stroke-dasharray:none"
     id="path3256"
     d="m 53.706177,23.862101 c 0.594536,-0.446137 2.262714,0.390741 3.795696,1.916096 1.529316,1.521705 2.335134,3.150007 1.899097,3.750364 -0.0016,0.0023 0.0375,0.03339 0.03581,0.03564 l 0.265824,-0.267131 c 0.0017,-0.0023 -0.03748,-0.03336 -0.03581,-0.03564 0.436038,-0.600356 -0.36978,-2.22866 -1.899097,-3.750365 -1.532978,-1.525354 -3.201157,-2.362234 -3.795696,-1.916094 L 53.706176,23.8621 Z" />
  <path
     style="fill:url(#linearGradient3156);fill-opacity:1;stroke:none;stroke-width:1;stroke-dasharray:none"
     id="path3258"
     d="m 53.462565,24.106908 c 0.594534,-0.446138 2.262715,0.39074 3.795696,1.916097 1.529315,1.521704 2.335135,3.150007 1.899095,3.750362 -0.0016,0.0023 0.03752,0.03339 0.03581,0.03564 l 0.265826,-0.267128 c 0.0017,-0.0023 -0.03748,-0.03336 -0.03581,-0.03564 0.436038,-0.600359 -0.36978,-2.228661 -1.899096,-3.750365 -1.532981,-1.525356 -3.20116,-2.362235 -3.795697,-1.916096 l -0.265825,0.267129 v 0 z" />
  <path
     style="fill:url(#linearGradient3151);fill-opacity:1;fill-rule:evenodd;stroke:url(#linearGradient3153);stroke-width:1;stroke-linecap:butt;stroke-linejoin:miter;stroke-miterlimit:4;stroke-dasharray:none;stroke-opacity:1"
     id="path3270"
     d="m 32.097582,51.174754 9.711253,-3.960957 0.08274,-0.08273 c 0.436037,-0.600362 -0.380288,-2.22879 -1.909605,-3.7505 -1.532982,-1.525354 -3.199188,-2.357607 -3.793726,-1.911469 l -4.090658,9.705656 h -7e-6 z" />
  <path
     style="fill:#333333;fill-opacity:1;fill-rule:evenodd;stroke:#1a1a1a;stroke-width:1;stroke-linecap:butt;stroke-linejoin:miter;stroke-miterlimit:4;stroke-dasharray:none;stroke-opacity:1"
     id="path3281"
     d="m 33.205629,48.546059 -1.108643,2.618307 2.648745,-1.085868 C 34.533438,49.82421 34.337457,49.565928 34.08257,49.31231 33.789127,49.020326 33.500499,48.783416 33.205629,48.546059 Z" />
  <rect
     style="opacity:0.5;fill:#ff8c82;stroke:none;stroke-width:4;stroke-linecap:round;stroke-linejoin:round;stop-color:#000000"
     id="rect1475"
     width="1"
     height="54"
     x="13"
     y="4.9999981"
     rx="0"
     ry="0" />
</svg>
