<?xml version="1.0" encoding="UTF-8" standalone="no"?>
<svg
   id="svg13986"
   height="64"
   width="64"
   version="1.1"
   xml:space="preserve"
   xmlns:xlink="http://www.w3.org/1999/xlink"
   xmlns="http://www.w3.org/2000/svg"
   xmlns:svg="http://www.w3.org/2000/svg"
   xmlns:rdf="http://www.w3.org/1999/02/22-rdf-syntax-ns#"
   xmlns:cc="http://creativecommons.org/ns#"
   xmlns:dc="http://purl.org/dc/elements/1.1/"><defs
     id="defs13988"><linearGradient
       id="linearGradient2257"><stop
         offset="0"
         style="stop-color:#ffffff;stop-opacity:1"
         id="stop2249" /><stop
         offset="0.0001"
         style="stop-color:#ffffff;stop-opacity:0.23529412"
         id="stop2251" /><stop
         offset="0.83622974"
         style="stop-color:#ffffff;stop-opacity:0.15686275"
         id="stop2253" /><stop
         offset="1"
         style="stop-color:#ffffff;stop-opacity:0.39215687"
         id="stop2255" /></linearGradient><linearGradient
       id="linearGradient978"><stop
         offset="0"
         style="stop-color:#ffa154;stop-opacity:1"
         id="stop974" /><stop
         offset="1"
         style="stop-color:#f37329;stop-opacity:1"
         id="stop976" /></linearGradient><linearGradient
       id="linearGradient3924-2-2-5-8"><stop
         offset="0"
         style="stop-color:#ffffff;stop-opacity:1"
         id="stop3926-9-4-9-6" /><stop
         offset="0.08788455"
         style="stop-color:#ffffff;stop-opacity:0.23529412"
         id="stop3928-9-8-6-5" /><stop
         offset="0.91637498"
         style="stop-color:#ffffff;stop-opacity:0.15686275"
         id="stop3930-3-5-1-7" /><stop
         offset="1"
         style="stop-color:#ffffff;stop-opacity:0.39215687"
         id="stop3932-8-0-4-8" /></linearGradient><linearGradient
       id="linearGradient3688-166-749-4-0-3-8"><stop
         offset="0"
         style="stop-color:#181818;stop-opacity:1"
         id="stop2883-4-0-1-8" /><stop
         offset="1"
         style="stop-color:#181818;stop-opacity:0"
         id="stop2885-9-2-9-6" /></linearGradient><linearGradient
       id="linearGradient3702-501-757-8-4-1-1"><stop
         offset="0"
         style="stop-color:#181818;stop-opacity:0"
         id="stop2895-8-9-9-1" /><stop
         offset="0.5"
         style="stop-color:#181818;stop-opacity:1"
         id="stop2897-7-8-7-7" /><stop
         offset="1"
         style="stop-color:#181818;stop-opacity:0"
         id="stop2899-4-5-1-5" /></linearGradient><linearGradient
       y2="42.186646"
       x2="23.99999"
       y1="5.9147639"
       x1="23.99999"
       gradientTransform="matrix(1.4324324,0,0,1.4324325,-2.378381,-2.3783731)"
       gradientUnits="userSpaceOnUse"
       id="linearGradient3647"
       xlink:href="#linearGradient3924-2-2-5-8" /><radialGradient
       cx="4.9929786"
       cy="43.5"
       r="2.5"
       fx="4.9929786"
       fy="43.5"
       id="radialGradient3337-2-2-3"
       xlink:href="#linearGradient3688-166-749-4-0-3-8"
       gradientUnits="userSpaceOnUse"
       gradientTransform="matrix(2.4045407,0,0,0.99999998,41.985755,15.500001)" /><radialGradient
       cx="4.9929786"
       cy="43.5"
       r="2.5"
       fx="4.9929786"
       fy="43.5"
       id="radialGradient3339-1-4-5"
       xlink:href="#linearGradient3688-166-749-4-0-3-8"
       gradientUnits="userSpaceOnUse"
       gradientTransform="matrix(2.4045407,0,0,0.99999998,-22.014244,-102.5)" /><linearGradient
       x1="25.058096"
       y1="47.027729"
       x2="25.058096"
       y2="39.999443"
       id="linearGradient6394"
       xlink:href="#linearGradient3702-501-757-8-4-1-1"
       gradientUnits="userSpaceOnUse"
       gradientTransform="matrix(1.5714286,0,0,0.7142857,-5.7142853,27.928572)" /><linearGradient
       xlink:href="#linearGradient3104-6"
       id="linearGradient3170"
       gradientUnits="userSpaceOnUse"
       gradientTransform="matrix(0.80749686,0,0,0.89471714,10.835333,-0.132171)"
       x1="12.879265"
       y1="66.950981"
       x2="12.879265"
       y2="4.7802162" /><linearGradient
       id="linearGradient3104-6"><stop
         offset="0"
         style="stop-color:#000000;stop-opacity:0.31782946"
         id="stop3106-3" /><stop
         offset="1"
         style="stop-color:#000000;stop-opacity:0.24031007"
         id="stop3108-9" /></linearGradient><linearGradient
       xlink:href="#linearGradient3600-9-51"
       id="linearGradient1512"
       gradientUnits="userSpaceOnUse"
       gradientTransform="matrix(1.3804479,0,0,1.327717,-70.158247,-1.4115461)"
       x1="74.838791"
       y1="4.535933"
       x2="74.838791"
       y2="49.779099" /><linearGradient
       id="linearGradient3600-9-51"><stop
         offset="0"
         style="stop-color:#f4f4f4;stop-opacity:1"
         id="stop3602-0-0" /><stop
         offset="1"
         style="stop-color:#dbdbdb;stop-opacity:1"
         id="stop3604-9-04" /></linearGradient><linearGradient
       xlink:href="#linearGradient978"
       id="linearGradient924"
       gradientUnits="userSpaceOnUse"
       gradientTransform="matrix(1.3804479,0,0,1.327717,-70.158247,-1.4115461)"
       x1="74.838791"
       y1="4.535933"
       x2="74.838791"
       y2="49.779099" /><linearGradient
       xlink:href="#linearGradient2257"
       id="linearGradient1088"
       gradientUnits="userSpaceOnUse"
       gradientTransform="matrix(1.4324324,0,0,1.4324325,-2.378381,-2.3783731)"
       x1="34.550076"
       y1="24.708384"
       x2="34.550076"
       y2="42.04665" /><linearGradient
       xlink:href="#linearGradient3104-6"
       id="linearGradient1964"
       gradientUnits="userSpaceOnUse"
       gradientTransform="matrix(-0.80749686,0,0,0.89471714,52.195439,-0.132171)"
       x1="12.879265"
       y1="66.950981"
       x2="12.879265"
       y2="4.7802162" /><linearGradient
       xlink:href="#linearGradient3104-6"
       id="linearGradient1966"
       gradientUnits="userSpaceOnUse"
       gradientTransform="matrix(0.80749686,0,0,0.89471714,10.835333,-0.13217102)"
       x1="12.879265"
       y1="66.950981"
       x2="12.879265"
       y2="4.7802162" /><linearGradient
       xlink:href="#linearGradient3924-2-2-5-8"
       id="linearGradient2307"
       gradientUnits="userSpaceOnUse"
       gradientTransform="matrix(1.4324324,0,0,1.4324325,-2.378381,-2.3783731)"
       x1="20.394455"
       y1="24.800817"
       x2="20.394455"
       y2="42.106247" /></defs><metadata
     id="metadata13991"><rdf:RDF><cc:Work
         rdf:about=""><dc:format>image/svg+xml</dc:format><dc:type
           rdf:resource="http://purl.org/dc/dcmitype/StillImage" /></cc:Work></rdf:RDF></metadata><g
     id="g2207"><rect
       style="opacity:0.4;fill:url(#radialGradient3337-2-2-3);fill-opacity:1;stroke:none;stroke-width:1.06199"
       id="rect2801-5-5-7-9"
       y="56.5"
       x="54"
       height="5"
       width="6" /><rect
       style="opacity:0.4;fill:url(#radialGradient3339-1-4-5);fill-opacity:1;stroke:none;stroke-width:1.06199"
       id="rect3696-3-0-3-7"
       transform="scale(-1)"
       y="-61.5"
       x="-10"
       height="5"
       width="6" /><rect
       style="opacity:0.4;fill:url(#linearGradient6394);fill-opacity:1;stroke:none;stroke-width:1.06199"
       id="rect3700-5-6-8-4"
       y="56.5"
       x="10"
       height="5.0000005"
       width="44" /></g><rect
     style="color:#000000;font-variation-settings:normal;display:inline;overflow:visible;visibility:visible;vector-effect:none;fill:url(#linearGradient1512);fill-opacity:1;fill-rule:nonzero;stroke:none;stroke-width:1;stroke-linecap:butt;stroke-linejoin:miter;stroke-miterlimit:4;stroke-dasharray:none;stroke-dashoffset:0;stroke-opacity:1;-inkscape-stroke:none;marker:none;enable-background:accumulate;stop-color:#000000"
     id="rect5505-21-1-7-2-9"
     y="4.9999981"
     x="4.9999981"
     ry="5.5"
     rx="5.5"
     height="54"
     width="54" /><rect
     width="53"
     height="53.000004"
     rx="5"
     ry="4.9999995"
     x="5.4999986"
     y="5.5"
     id="rect6741-5-0-2-3"
     style="fill:none;stroke:url(#linearGradient3647);stroke-width:0.999997;stroke-linecap:round;stroke-linejoin:round;stroke-miterlimit:4;stroke-dasharray:none;stroke-dashoffset:0;stroke-opacity:1" /><rect
     width="55"
     height="55"
     rx="6"
     ry="6"
     x="4.4999986"
     y="4.5000019"
     id="rect5505-21-3-8-9-1-1"
     style="color:#000000;display:inline;overflow:visible;visibility:visible;opacity:1;fill:none;stroke:url(#linearGradient3170);stroke-width:0.999922;stroke-linecap:butt;stroke-linejoin:round;stroke-miterlimit:4;stroke-dasharray:none;stroke-dashoffset:0;stroke-opacity:1;marker:none;enable-background:accumulate;font-variation-settings:normal;vector-effect:none;fill-opacity:1;-inkscape-stroke:none;stop-color:#000000;stop-opacity:1" /><g
     id="layer4-0"
     transform="matrix(0.9047486,0,0,0.9047486,-570.51497,-675.56047)" /><g
     id="layer4-0-7"
     transform="matrix(0.9047486,0,0,0.9047486,-570.51497,-668.32248)" /><g
     id="layer1-3"
     transform="matrix(0.9047486,0,0,0.9047486,-73.807987,0.49666306)" /><path
     style="font-variation-settings:normal;opacity:0.5;vector-effect:none;fill:none;fill-opacity:1;stroke:url(#linearGradient2307);stroke-width:0.999997;stroke-linecap:butt;stroke-linejoin:round;stroke-miterlimit:4;stroke-dasharray:none;stroke-dashoffset:0;stroke-opacity:1;-inkscape-stroke:none;marker:none;stop-color:#000000;stop-opacity:1"
     d="m 31,32.499961 -26,0"
     id="path1808-6-9" /><path
     style="font-variation-settings:normal;opacity:1;vector-effect:none;fill:none;fill-opacity:1;stroke:url(#linearGradient3647);stroke-width:0.999997;stroke-linecap:butt;stroke-linejoin:round;stroke-miterlimit:4;stroke-dasharray:none;stroke-dashoffset:0;stroke-opacity:1;-inkscape-stroke:none;marker:none;stop-color:#000000;stop-opacity:1"
     d="M 32.499923,58.499961 32.499923,6"
     id="path1808-6-9-8" /><path
     style="font-variation-settings:normal;opacity:1;vector-effect:none;fill:none;fill-opacity:1;stroke:url(#linearGradient1964);stroke-width:0.999922;stroke-linecap:butt;stroke-linejoin:round;stroke-miterlimit:4;stroke-dasharray:none;stroke-dashoffset:0;stroke-opacity:1;-inkscape-stroke:none;marker:none;stop-color:#000000;stop-opacity:1"
     d="M 31.499961,5 V 31"
     id="path1808" /><path
     style="font-variation-settings:normal;opacity:1;vector-effect:none;fill:none;fill-opacity:1;stroke:url(#linearGradient1966);stroke-width:0.999922;stroke-linecap:butt;stroke-linejoin:round;stroke-miterlimit:4;stroke-dasharray:none;stroke-dashoffset:0;stroke-opacity:1;-inkscape-stroke:none;marker:none;stop-color:#000000;stop-opacity:1"
     d="m 31,31.499961 -26,0"
     id="path1808-6" /><path
     id="rect5505-21-1-7-2-9-5"
     style="color:#000000;font-variation-settings:normal;display:inline;overflow:visible;visibility:visible;vector-effect:none;fill:url(#linearGradient924);fill-opacity:1;fill-rule:nonzero;stroke:#a62100;stroke-width:0.995777;stroke-linecap:butt;stroke-linejoin:miter;stroke-miterlimit:4;stroke-dasharray:none;stroke-dashoffset:0;stroke-opacity:0.5;-inkscape-stroke:none;marker:none;enable-background:accumulate;stop-color:#000000"
     d="m 31.558593,31.558594 0,27.882671 H 53.49958 c 3.283784,0 5.941824,-2.657596 5.941824,-5.941379 V 31.558594 Z"
     transform="matrix(1.0042029,0,0,1.004278,-0.19123076,-0.19360192)" /><path
     id="rect6741-5-0-2-3-9"
     style="opacity:0.3;fill:none;stroke:url(#linearGradient1088);stroke-width:0.999997;stroke-linecap:round;stroke-linejoin:miter;stroke-miterlimit:4;stroke-dasharray:none;stroke-dashoffset:0;stroke-opacity:1"
     d="m 32.5,58.5 h 21 c 2.769997,0 5,-2.230003 5,-5 v -21 h -26 z" /><path
     id="path873-5-5"
     style="fill:#fafafa;stroke:none;stroke-width:4;stroke-linecap:round;stroke-linejoin:round;stop-color:#000000;opacity:0.5"
     d="M 17.75,13 C 17.334318,13 16.99959,13.348078 17,13.779297 V 18 H 12.779297 C 12.348078,18 12,18.334318 12,18.75 v 1.5 c 0,0.415682 0.348078,0.75041 0.779297,0.75 H 17 v 4.216797 c -4.1e-4,0.431218 0.334318,0.779297 0.75,0.779297 h 1.5 c 0.415682,0 0.75,-0.348079 0.75,-0.779297 V 21 h 4.216797 c 0.431218,0 0.779297,-0.334318 0.779297,-0.75 v -1.5 c 0,-0.415682 -0.348079,-0.75041 -0.779297,-0.75 H 20 V 13.779297 C 20,13.348078 19.665682,13 19.25,13 Z" /><path
     id="path873-5-4-2"
     style="fill:#fafafa;stroke:none;stroke-width:4;stroke-linecap:round;stroke-linejoin:round;stop-color:#000000;opacity:0.5"
     d="m 22.565956,41.373896 c -0.293932,-0.293932 -0.776748,-0.284492 -1.081376,0.02072 l -2.984488,2.984488 -2.984488,-2.984488 c -0.304918,-0.304918 -0.787444,-0.314648 -1.081376,-0.02072 l -1.06066,1.06066 c -0.293932,0.293932 -0.284492,0.776748 0.02072,1.081376 l 2.984488,2.984488 -2.981726,2.981726 c -0.305207,0.304627 -0.314648,0.787444 -0.02072,1.081376 l 1.06066,1.06066 c 0.293932,0.293932 0.776459,0.284201 1.081376,-0.02072 l 2.981726,-2.981726 2.981726,2.981726 c 0.304917,0.304917 0.787444,0.314648 1.081376,0.02072 l 1.06066,-1.06066 c 0.293932,-0.293932 0.284491,-0.776749 -0.02072,-1.081376 l -2.981726,-2.981726 2.984488,-2.984488 c 0.304918,-0.304918 0.314648,-0.787444 0.02072,-1.081376 z" /><path
     id="path873-5-9-5"
     style="fill:#fafafa;stroke:none;stroke-width:4;stroke-linecap:round;stroke-linejoin:round;stop-color:#000000;opacity:0.5"
     d="m 40.781649,18 c -0.431219,0 -0.779297,0.334318 -0.779297,0.75 v 1.5 c 0,0.415682 0.348078,0.75041 0.779297,0.75 h 9.436702 c 0.431218,0 0.779297,-0.334318 0.779297,-0.75 v -1.5 c 0,-0.415682 -0.348079,-0.75041 -0.779297,-0.75 z" /><path
     id="path873-5-9-3-4-3"
     style="opacity:0.15;fill:#a62100;stroke:none;stroke-width:4;stroke-linecap:round;stroke-linejoin:round;stop-color:#000000"
     d="m 39.683594,41.003906 c -1.132075,0.02342 -1.868991,1.187922 -1.681641,2.246094 -0.08284,0.948501 -0.01036,2.149523 1.011719,2.578125 1.11014,0.357531 2.317425,0.08806 3.467578,0.171875 3.030794,-0.0264 6.069215,0.05269 9.095283,-0.03934 1.070689,-0.168868 1.589278,-1.321642 1.42542,-2.310657 0.09327,-0.922252 -0.03401,-2.067413 -1.011719,-2.478125 C 50.880094,40.814344 49.672809,41.083815 48.522656,41 c -2.946326,0.0026 -5.892868,-0.0052 -8.839062,0.0039 z m 0,6 c -1.132075,0.02342 -1.868991,1.187922 -1.681641,2.246094 -0.08284,0.948501 -0.01036,2.149523 1.011719,2.578125 1.11014,0.357531 2.317425,0.08806 3.467578,0.171875 3.030794,-0.0264 6.069215,0.05269 9.095283,-0.03934 1.070689,-0.168868 1.589278,-1.321642 1.42542,-2.310657 0.09327,-0.922252 -0.03401,-2.067413 -1.011719,-2.478125 C 50.880094,46.814344 49.672809,47.083815 48.522656,47 c -2.946326,0.0026 -5.892868,-0.0052 -8.839062,0.0039 z" /><path
     id="path873-5-9-3-4"
     style="fill:#a62100;stroke:none;stroke-width:4;stroke-linecap:round;stroke-linejoin:round;stop-color:#000000;opacity:0.3"
     d="M 39.78125 42 C 39.349902 42 39.001953 42.334318 39.001953 42.75 L 39.001953 44.25 C 39.001953 44.665682 39.349902 45.00041 39.78125 45 L 51.222656 45 C 51.654004 45 52.001953 44.665682 52.001953 44.25 L 52.001953 42.75 C 52.001953 42.334318 51.654004 41.99959 51.222656 42 L 39.78125 42 z M 39.78125 48 C 39.349902 48 39.001953 48.334318 39.001953 48.75 L 39.001953 50.25 C 39.001953 50.665682 39.349902 51.00041 39.78125 51 L 51.222656 51 C 51.654004 51 52.001953 50.665682 52.001953 50.25 L 52.001953 48.75 C 52.001953 48.334318 51.654004 47.99959 51.222656 48 L 39.78125 48 z " /><path
     id="path873-5"
     style="opacity:0.8;fill:#555761;stroke:none;stroke-width:4;stroke-linecap:round;stroke-linejoin:round;stop-color:#000000"
     d="M 17.75,12 C 17.334318,12 16.99959,12.348078 17,12.779297 V 17 H 12.779297 C 12.348078,17 12,17.334318 12,17.75 v 1.5 c 0,0.415682 0.348078,0.75041 0.779297,0.75 H 17 v 4.216797 c -4.1e-4,0.431218 0.334318,0.779297 0.75,0.779297 h 1.5 c 0.415682,0 0.75,-0.348079 0.75,-0.779297 V 20 h 4.216797 c 0.431218,0 0.779297,-0.334318 0.779297,-0.75 v -1.5 c 0,-0.415682 -0.348079,-0.75041 -0.779297,-0.75 H 20 V 12.779297 C 20,12.348078 19.665682,12 19.25,12 Z" /><path
     id="path873-5-4"
     style="fill:#555761;stroke:none;stroke-width:4;stroke-linecap:round;stroke-linejoin:round;stop-color:#000000;opacity:0.8"
     d="m 22.565956,40.373896 c -0.293932,-0.293932 -0.776748,-0.284492 -1.081376,0.02072 l -2.984488,2.984488 -2.984488,-2.984488 c -0.304918,-0.304918 -0.787444,-0.314648 -1.081376,-0.02072 l -1.06066,1.06066 c -0.293932,0.293932 -0.284492,0.776748 0.02072,1.081376 l 2.984488,2.984488 -2.981726,2.981726 c -0.305207,0.304627 -0.314648,0.787444 -0.02072,1.081376 l 1.06066,1.06066 c 0.293932,0.293932 0.776459,0.284201 1.081376,-0.02072 l 2.981726,-2.981726 2.981726,2.981726 c 0.304917,0.304917 0.787444,0.314648 1.081376,0.02072 l 1.06066,-1.06066 c 0.293932,-0.293932 0.284491,-0.776749 -0.02072,-1.081376 l -2.981726,-2.981726 2.984488,-2.984488 c 0.304918,-0.304918 0.314648,-0.787444 0.02072,-1.081376 z" /><path
     id="path873-5-9"
     style="fill:#555761;stroke:none;stroke-width:4;stroke-linecap:round;stroke-linejoin:round;stop-color:#000000;opacity:0.8"
     d="m 40.781649,17 c -0.431219,0 -0.779297,0.334318 -0.779297,0.75 v 1.5 c 0,0.415682 0.348078,0.75041 0.779297,0.75 h 9.436702 c 0.431218,0 0.779297,-0.334318 0.779297,-0.75 v -1.5 c 0,-0.415682 -0.348079,-0.75041 -0.779297,-0.75 z" /><path
     id="path873-5-3"
     style="opacity:0.8;fill:#555761;stroke:none;stroke-width:4;stroke-linecap:round;stroke-linejoin:round;stop-color:#000000"
     d="M 17.75 12 C 17.334318 12 16.99959 12.348078 17 12.779297 L 17 13.779297 C 16.99959 13.348078 17.334318 13 17.75 13 L 19.25 13 C 19.665682 13 20 13.348078 20 13.779297 L 20 12.779297 C 20 12.348078 19.665682 12 19.25 12 L 17.75 12 z M 12.779297 17 C 12.348078 17 12 17.334318 12 17.75 L 12 18.75 C 12 18.334318 12.348078 18 12.779297 18 L 17 18 L 17 17 L 12.779297 17 z M 20 17 L 20 18 L 24.216797 18 C 24.648014 17.99959 24.996094 18.334318 24.996094 18.75 L 24.996094 17.75 C 24.996094 17.334318 24.648014 16.99959 24.216797 17 L 20 17 z " /><path
     id="path873-5-4-5"
     style="opacity:0.8;fill:#555761;stroke:none;stroke-width:4;stroke-linecap:round;stroke-linejoin:round;stop-color:#000000"
     d="M 14.970703 40.160156 C 14.775216 40.15635 14.58056 40.226083 14.433594 40.373047 L 13.373047 41.433594 C 13.09526 41.71138 13.087986 42.159496 13.345703 42.464844 C 13.354862 42.454596 13.363209 42.443432 13.373047 42.433594 L 14.433594 41.373047 C 14.727525 41.079119 15.210707 41.089614 15.515625 41.394531 L 18.5 44.378906 L 21.484375 41.394531 C 21.789003 41.08932 22.272475 41.079115 22.566406 41.373047 L 23.626953 42.433594 C 23.636791 42.443432 23.645139 42.454597 23.654297 42.464844 C 23.911794 42.159279 23.904736 41.71138 23.626953 41.433594 L 22.566406 40.373047 C 22.272475 40.079115 21.789003 40.08932 21.484375 40.394531 L 18.5 43.378906 L 15.515625 40.394531 C 15.363166 40.242072 15.166191 40.163962 14.970703 40.160156 z M 15.878906 46 L 13.396484 48.482422 C 13.100973 48.777371 13.083674 49.239301 13.349609 49.535156 C 13.36483 49.517065 13.379411 49.499462 13.396484 49.482422 L 16.378906 46.5 L 15.878906 46 z M 21.121094 46 L 20.621094 46.5 L 23.603516 49.482422 C 23.620589 49.499462 23.63517 49.517065 23.650391 49.535156 C 23.916329 49.239301 23.89903 48.777371 23.603516 48.482422 L 21.121094 46 z " /><path
     id="path873-5-9-6"
     style="opacity:0.8;fill:#555761;stroke:none;stroke-width:4;stroke-linecap:round;stroke-linejoin:round;stop-color:#000000"
     d="M 40.78125 17 C 40.350031 17 40.001953 17.334318 40.001953 17.75 L 40.001953 18.75 C 40.001953 18.334318 40.350031 18 40.78125 18 L 50.21875 18 C 50.649968 17.99959 50.998047 18.334318 50.998047 18.75 L 50.998047 17.75 C 50.998047 17.334318 50.649968 16.99959 50.21875 17 L 40.78125 17 z " /><path
     id="path873-5-9-3"
     style="fill:#fafafa;stroke:none;stroke-width:4;stroke-linecap:round;stroke-linejoin:round;stop-color:#000000"
     d="M 39.78125 41 C 39.349902 41 39.001953 41.334318 39.001953 41.75 L 39.001953 43.25 C 39.001953 43.665682 39.349902 44.00041 39.78125 44 L 51.222656 44 C 51.654004 44 52.001953 43.665682 52.001953 43.25 L 52.001953 41.75 C 52.001953 41.334318 51.654004 40.99959 51.222656 41 L 39.78125 41 z M 39.78125 47 C 39.349902 47 39.001953 47.334318 39.001953 47.75 L 39.001953 49.25 C 39.001953 49.665682 39.349902 50.00041 39.78125 50 L 51.222656 50 C 51.654004 50 52.001953 49.665682 52.001953 49.25 L 52.001953 47.75 C 52.001953 47.334318 51.654004 46.99959 51.222656 47 L 39.78125 47 z " /><path
     id="path873-5-9-3-6"
     style="fill:#a62100;stroke:none;stroke-width:4;stroke-linecap:round;stroke-linejoin:round;stop-color:#000000;font-variation-settings:normal;opacity:0.15;vector-effect:none;fill-opacity:1;stroke-miterlimit:4;stroke-dasharray:none;stroke-dashoffset:0;stroke-opacity:1;-inkscape-stroke:none;stop-opacity:1"
     d="M 39.001953 42.25 L 39.001953 43.25 C 39.001953 43.665682 39.349902 44.00041 39.78125 44 L 51.222656 44 C 51.654004 44 52.001953 43.665682 52.001953 43.25 L 52.001953 42.25 C 52.001953 42.665682 51.654004 43 51.222656 43 L 39.78125 43 C 39.349902 43.00041 39.001953 42.665682 39.001953 42.25 z M 39.001953 48.25 L 39.001953 49.25 C 39.001953 49.665682 39.349902 50.00041 39.78125 50 L 51.222656 50 C 51.654004 50 52.001953 49.665682 52.001953 49.25 L 52.001953 48.25 C 52.001953 48.665682 51.654004 49 51.222656 49 L 39.78125 49 C 39.349902 49.00041 39.001953 48.665682 39.001953 48.25 z " /></svg>
