<svg xmlns="http://www.w3.org/2000/svg" viewBox="0 0 64 64"><defs><radialGradient id="a" gradientUnits="userSpaceOnUse" cy="43.5" cx="4.993" gradientTransform="matrix(2.0038 0 0 1.4 27.988 -17.4)" r="2.5"><stop stop-color="#181818" offset="0"/><stop stop-color="#181818" stop-opacity="0" offset="1"/></radialGradient><radialGradient id="b" gradientUnits="userSpaceOnUse" cy="43.5" cx="4.993" gradientTransform="matrix(2.0038 0 0 1.4 -20.012 -104.4)" r="2.5"><stop stop-color="#181818" offset="0"/><stop stop-color="#181818" stop-opacity="0" offset="1"/></radialGradient><linearGradient id="c" y2="39.999" gradientUnits="userSpaceOnUse" x2="25.058" y1="47.028" x1="25.058"><stop stop-color="#181818" stop-opacity="0" offset="0"/><stop stop-color="#181818" offset=".5"/><stop stop-color="#181818" stop-opacity="0" offset="1"/></linearGradient><linearGradient id="f" y2="43" gradientUnits="userSpaceOnUse" x2="24" gradientTransform="translate(-2.378 -2.378) scale(1.4324)" y1="5" x1="24"><stop stop-color="#fff" offset="0"/><stop stop-color="#fff" stop-opacity=".235" offset=".063"/><stop stop-color="#fff" stop-opacity=".157" offset=".951"/><stop stop-color="#fff" stop-opacity=".392" offset="1"/></linearGradient><linearGradient id="h" y2="43" gradientUnits="userSpaceOnUse" x2="24" gradientTransform="translate(-2.378 -2.378) scale(1.4324)" y1="5" x1="24"><stop stop-color="#fff" offset="0"/><stop stop-color="#fff" stop-opacity=".235" offset=".063"/><stop stop-color="#fff" stop-opacity=".157" offset=".951"/><stop stop-color="#fff" stop-opacity=".392" offset="1"/></linearGradient><linearGradient id="d" y2="48.396" gradientUnits="userSpaceOnUse" x2="25.132" gradientTransform="matrix(1.2904 0 0 1.2373 1.03 -1.067)" y1="15.5" x1="25.132"><stop stop-color="#fafafa" offset="0"/><stop stop-color="#e2e1de" offset="1"/></linearGradient><linearGradient id="g" y2="48.934" gradientUnits="userSpaceOnUse" x2="24.17" y1="-12.242" x1="24.17"><stop stop-color="#cdf87e" offset="0"/><stop stop-color="#a2e34f" offset=".262"/><stop stop-color="#68b723" offset=".661"/><stop stop-color="#1d7e0d" offset="1"/></linearGradient><linearGradient id="e" y2="19.963" gradientUnits="userSpaceOnUse" x2="23.954" gradientTransform="matrix(1.4 0 0 .5 -1.6 10)" y1="15.999" x1="23.954"><stop offset="0"/><stop stop-opacity="0" offset="1"/></linearGradient></defs><g opacity=".35"><path fill="url(#a)" d="M38 40h5v7h-5z" transform="matrix(1.579 0 0 .7143 -5.895 27.93)"/><path transform="matrix(-1.579 0 0 -.7143 -5.895 27.93)" fill="url(#b)" d="M-10-47h5v7h-5z"/><path fill="url(#c)" d="M10 40h28v7H10z" transform="matrix(1.579 0 0 .7143 -5.895 27.93)"/></g><rect rx="2.5" ry="2.5" viewBox="0 0 54 54" y="5" x="5" fill="url(#d)" color="#000"/><rect opacity=".15" rx="0" ry="0" height="2" width="56" y="18" x="4" fill="url(#e)"/><rect stroke-linejoin="round" rx="2" ry="2" height="53" width="53" stroke="url(#f)" stroke-linecap="round" y="5.5" x="5.5" fill="none"/><path opacity=".3" d="M4.5 18v38.5c0 1.662 1.338 3 3 3h49c1.662 0 3-1.338 3-3V18" stroke="#000" fill="none"/><path d="M7.5 4.5c-1.662 0-3 1.338-3 3v10h55v-10c0-1.662-1.338-3-3-3z" fill="url(#g)" color="#000"/><g fill="none"><path opacity=".4" d="M7.5 4.5c-1.662 0-3 1.338-3 3v10h55v-10c0-1.662-1.338-3-3-3z" stroke="#126400" stroke-linecap="round" color="#000"/><path opacity=".5" stroke-linejoin="round" d="M7.5 5.5c-1.108 0-2 .892-2 2v9h53v-9c0-1.108-.892-2-2-2z" stroke="url(#h)" stroke-linecap="round"/><path opacity=".2" d="M52.5 45.5h-41zm-.03-18.97L11.5 26.5v26h41zm.03 12.97h-41m41-6h-41m8.028-6.942L19.472 52.5m8.04-25.83L27.5 52.5m7.994-25.92l.012 25.92m7.953-26.01l.04 26.01" stroke="#fff"/><path opacity=".25" d="M52.5 44.5h-41zm-.03-18.97L11.5 25.5v26h41zm.03 12.97h-41m41-6h-41m8.028-6.942L19.472 51.5m8.04-25.83L27.5 51.5m7.995-25.92l.01 25.92m7.955-26.01l.04 26.01" stroke="#5e553c"/></g><g color="#000"><path opacity=".3" d="M14 12a1.5 1.5 0 1 1-3 0 1.5 1.5 0 1 1 3 0z" fill="#fff"/><path opacity=".4" d="M14 11a1.5 1.5 0 1 1-3 0 1.5 1.5 0 1 1 3 0z" fill="#126400"/><path opacity=".3" d="M52.5 12a1.5 1.5 0 1 1-3 0 1.5 1.5 0 1 1 3 0z" fill="#fff"/><path opacity=".4" d="M52.5 11a1.5 1.5 0 1 1-3 0 1.5 1.5 0 1 1 3 0z" fill="#126400"/></g></svg>