<?xml version="1.0" encoding="UTF-8" standalone="no"?>
<!-- Created with Inkscape (http://www.inkscape.org/) -->

<svg
   xmlns:dc="http://purl.org/dc/elements/1.1/"
   xmlns:cc="http://creativecommons.org/ns#"
   xmlns:rdf="http://www.w3.org/1999/02/22-rdf-syntax-ns#"
   xmlns:svg="http://www.w3.org/2000/svg"
   xmlns="http://www.w3.org/2000/svg"
   xmlns:xlink="http://www.w3.org/1999/xlink"
   xmlns:inkscape="http://www.inkscape.org/namespaces/inkscape"
   version="1.1"
   width="64.000496"
   height="64.000496"
   id="svg4286">
  <defs
     id="defs4288">
    <linearGradient
       x1="24.448801"
       y1="37.968163"
       x2="24.448801"
       y2="42.677994"
       id="linearGradient4187"
       xlink:href="#linearGradient4181"
       gradientUnits="userSpaceOnUse"
       gradientTransform="matrix(1.5422123,0,0,1.5422123,-5.176944,-23.614915)" />
    <linearGradient
       id="linearGradient4181">
      <stop
         id="stop4183"
         style="stop-color:#ffffff;stop-opacity:1"
         offset="0" />
      <stop
         id="stop6844"
         style="stop-color:#ffffff;stop-opacity:0.30434781"
         offset="0.15037866" />
      <stop
         id="stop4185"
         style="stop-color:#ffffff;stop-opacity:0"
         offset="1" />
    </linearGradient>
    <linearGradient
       id="linearGradient3966">
      <stop
         id="stop3968"
         style="stop-color:#000000;stop-opacity:1"
         offset="0" />
      <stop
         id="stop3970"
         style="stop-color:#000000;stop-opacity:0"
         offset="1" />
    </linearGradient>
    <radialGradient
       cx="23.668133"
       cy="44.129044"
       r="6.0999999"
       fx="23.668133"
       fy="44.129044"
       id="radialGradient4284"
       xlink:href="#linearGradient3966"
       gradientUnits="userSpaceOnUse"
       gradientTransform="matrix(1,0,0,0.15384616,0,37.33996)" />
    <radialGradient
       cx="12.767747"
       cy="8.4497671"
       r="19.99999"
       fx="12.767747"
       fy="8.4497671"
       id="radialGradient5948-0"
       xlink:href="#linearGradient2867-449-88-871-390-598-476-591-434-148-57-177-8-2-2-0"
       gradientUnits="userSpaceOnUse"
       gradientTransform="matrix(0,3.0296003,-3.221545,-7.8614416e-8,58.885335,-45.384728)" />
    <linearGradient
       id="linearGradient2867-449-88-871-390-598-476-591-434-148-57-177-8-2-2-0">
      <stop
         id="stop3750-5-2-7-3"
         style="stop-color:#90dbec;stop-opacity:1"
         offset="0" />
      <stop
         id="stop3752-7-4-4-4"
         style="stop-color:#55c1ec;stop-opacity:1"
         offset="0.26238" />
      <stop
         id="stop3754-4-7-0-9"
         style="stop-color:#3689e6;stop-opacity:1"
         offset="0.704952" />
      <stop
         id="stop3756-1-7-3-2"
         style="stop-color:#2b63a0;stop-opacity:1"
         offset="1" />
    </linearGradient>
    <linearGradient
       x1="24"
       y1="39.474808"
       x2="24"
       y2="10.625406"
       id="linearGradient5950-7"
       xlink:href="#linearGradient3707-319-631-407-324-5-4-8-4"
       gradientUnits="userSpaceOnUse"
       gradientTransform="matrix(1.3404242,0,0,1.4517375,-0.50629447,-30.054315)" />
    <linearGradient
       id="linearGradient3707-319-631-407-324-5-4-8-4">
      <stop
         id="stop3760-9-8-0-2"
         style="stop-color:#185f9a;stop-opacity:1"
         offset="0" />
      <stop
         id="stop3762-7-1-3-5"
         style="stop-color:#599ec9;stop-opacity:1"
         offset="1" />
    </linearGradient>
  </defs>
  <metadata
     id="metadata4291">
    <rdf:RDF>
      <cc:Work
         rdf:about="">
        <dc:format>image/svg+xml</dc:format>
        <dc:type
           rdf:resource="http://purl.org/dc/dcmitype/StillImage" />
        <dc:title />
      </cc:Work>
    </rdf:RDF>
  </metadata>
  <g
     transform="translate(0.16805957,15.832425)"
     id="layer1">
    <path
       d="m 29.768133,44.129044 a 6.1,0.93846156 0 1 1 -12.2,0 6.1,0.93846156 0 1 1 12.2,0 z"
       inkscape:connector-curvature="0"
       transform="matrix(1.147541,0,0,2.1311475,4.6720356,-51.87743)"
       id="path3964"
       style="opacity:0.4;color:#000000;fill:url(#radialGradient4284);fill-opacity:1;fill-rule:nonzero;stroke:none;stroke-width:1;marker:none;visibility:visible;display:inline;overflow:visible;enable-background:accumulate" />
    <path
       d="m 31.83194,32.667575 c -2.624763,0 -4.972051,1.192928 -6.53125,3.0625 l 6.375,6.90625 6.5625,-7.03125 c -1.558381,-1.792083 -3.844878,-2.9375 -6.40625,-2.9375 z m 0,-13 c -6.032721,0 -11.47042,2.49822 -15.375,6.5 l 5.4375,5.875 c 2.467674,-2.687996 6.000934,-4.375 9.9375,-4.375 3.872368,0 7.350745,1.638202 9.8125,4.25 l 5.4375,-5.84375 c -3.896788,-3.937174 -9.272824,-6.40625 -15.25,-6.40625 z m 0,-12 c -9.171583,0 -17.481686,3.685195 -23.5312496,9.65625 l 4.7499996,5.125 c 4.797981,-4.813768 11.447725,-7.78125 18.78125,-7.78125 7.286268,0 13.896926,2.928295 18.6875,7.6875 l 4.78125,-5.09375 C 49.256471,11.326639 40.971848,7.667575 31.83194,7.667575 z m 0,-12 c -12.310883,0 -23.4963482,4.86982504 -31.68749957,12.8125 l 4.78124997,5.1875 c 6.9423776,-6.794107 16.4251676,-11 26.9062496,-11 10.449459,0 19.906928,4.179584 26.84375,10.9375 l 4.78125,-5.15625 C 55.270179,0.53354004 44.118808,-4.332425 31.83194,-4.332425 z"
       inkscape:connector-curvature="0"
       id="path5776-5-8-4-5-1-9"
       style="color:#000000;fill:url(#radialGradient5948-0);fill-opacity:1;fill-rule:nonzero;stroke:url(#linearGradient5950-7);stroke-width:1;stroke-linecap:round;stroke-linejoin:round;stroke-miterlimit:4;stroke-opacity:1;stroke-dasharray:none;stroke-dashoffset:0;marker:none;visibility:visible;display:inline;overflow:visible;enable-background:accumulate" />
    <path
       d="m 17.494099,26.509603 c 3.748123,-3.630811 9.567096,-5.900951 14.338089,-5.827492 4.721014,-0.07269 10.376611,1.964251 14.171755,5.701159"
       inkscape:connector-curvature="0"
       id="path4112-19-69-3-3-8"
       style="opacity:0.4;fill:none;stroke:#ffffff;stroke-width:1;stroke-linecap:butt;stroke-linejoin:round;stroke-miterlimit:4;stroke-opacity:1;stroke-dasharray:none;stroke-dashoffset:0.06;marker:none;visibility:visible;display:inline;overflow:visible;enable-background:accumulate" />
    <path
       d="M 9.246683,17.674544 C 15.067009,12.184768 23.50022,8.7727229 30.935344,8.6786594 38.932714,8.33471 48.087463,11.697605 54.267569,17.684796"
       inkscape:connector-curvature="0"
       id="path4112-19-69-3-3-9"
       style="opacity:0.4;fill:none;stroke:#ffffff;stroke-width:1;stroke-linecap:butt;stroke-linejoin:round;stroke-miterlimit:4;stroke-opacity:1;stroke-dasharray:none;stroke-dashoffset:0.06;marker:none;visibility:visible;display:inline;overflow:visible;enable-background:accumulate" />
    <path
       d="M 1.2075392,8.9013191 C 9.0961556,1.11883 20.315704,-3.1663598 30.645239,-3.2970422 41.561504,-3.7627378 54.015316,1.118267 62.405933,8.8729149"
       inkscape:connector-curvature="0"
       id="path4112-19-69-3-3-9-7"
       style="opacity:0.5;fill:none;stroke:#ffffff;stroke-width:1;stroke-linecap:butt;stroke-linejoin:round;stroke-miterlimit:4;stroke-opacity:1;stroke-dasharray:none;stroke-dashoffset:0.06;marker:none;visibility:visible;display:inline;overflow:visible;enable-background:accumulate" />
    <path
       d="M 4.6965655,12.500761 C 12.176103,5.9779306 20.315704,1.8318724 30.645239,1.70119 41.561504,1.2354945 51.37492,5.5486106 59.029194,12.566915"
       inkscape:connector-curvature="0"
       id="path4112-19-69-3-3-9-7-2"
       style="opacity:0.5;fill:none;stroke:#ffffff;stroke-width:1;stroke-linecap:butt;stroke-linejoin:round;stroke-miterlimit:4;stroke-opacity:0.39215686;stroke-dasharray:none;stroke-dashoffset:0.06;marker:none;visibility:visible;display:inline;overflow:visible;enable-background:accumulate" />
    <path
       d="m 12.827087,21.348899 c 4.940613,-4.610062 10.673133,-7.63329 18.108257,-7.727355 7.99737,-0.343949 14.451428,2.7735 19.977008,7.553713"
       inkscape:connector-curvature="0"
       id="path4112-19-69-3-3-9-4"
       style="opacity:0.5;fill:none;stroke:#ffffff;stroke-width:1;stroke-linecap:butt;stroke-linejoin:round;stroke-miterlimit:4;stroke-opacity:0.39215686;stroke-dasharray:none;stroke-dashoffset:0.06;marker:none;visibility:visible;display:inline;overflow:visible;enable-background:accumulate" />
    <path
       d="m 21.483582,30.965387 c 2.43907,-2.08644 5.577613,-4.448526 10.348606,-4.375067 4.721014,-0.07269 7.583972,1.974382 10.028772,4.238604"
       inkscape:connector-curvature="0"
       id="path4112-19-69-3-3-8-0"
       style="opacity:0.5;fill:none;stroke:#ffffff;stroke-width:1;stroke-linecap:butt;stroke-linejoin:round;stroke-miterlimit:4;stroke-opacity:0.39215686;stroke-dasharray:none;stroke-dashoffset:0.06;marker:none;visibility:visible;display:inline;overflow:visible;enable-background:accumulate" />
    <path
       d="m 26.67514,35.793337 c 0.59173,-0.777681 3.268569,-2.196609 5.122756,-2.179233 2.201625,0.02063 4.561218,1.398603 4.997419,2.076104 l -5.091436,5.398355 z"
       inkscape:connector-curvature="0"
       id="path4112-19-69-3-3"
       style="opacity:0.4;fill:none;stroke:url(#linearGradient4187);stroke-width:1;stroke-linecap:butt;stroke-linejoin:round;stroke-miterlimit:4;stroke-opacity:1;stroke-dasharray:none;stroke-dashoffset:0.06;marker:none;visibility:visible;display:inline;overflow:visible;enable-background:accumulate" />
  </g>
</svg>
