<?xml version="1.0" encoding="UTF-8" standalone="no"?>
<!-- Created with Inkscape (http://www.inkscape.org/) -->

<svg
   xmlns:dc="http://purl.org/dc/elements/1.1/"
   xmlns:cc="http://creativecommons.org/ns#"
   xmlns:rdf="http://www.w3.org/1999/02/22-rdf-syntax-ns#"
   xmlns:svg="http://www.w3.org/2000/svg"
   xmlns="http://www.w3.org/2000/svg"
   xmlns:xlink="http://www.w3.org/1999/xlink"
   xmlns:sodipodi="http://sodipodi.sourceforge.net/DTD/sodipodi-0.dtd"
   xmlns:inkscape="http://www.inkscape.org/namespaces/inkscape"
   version="1.1"
   width="64"
   height="64"
   id="svg2"
   inkscape:version="0.48.4 r9939"
   sodipodi:docname="preferences-desktop-font.svg">
  <sodipodi:namedview
     pagecolor="#ffffff"
     bordercolor="#666666"
     borderopacity="1"
     objecttolerance="10"
     gridtolerance="10"
     guidetolerance="10"
     inkscape:pageopacity="0"
     inkscape:pageshadow="2"
     inkscape:window-width="640"
     inkscape:window-height="480"
     id="namedview120"
     showgrid="false"
     inkscape:zoom="1"
     inkscape:cx="32"
     inkscape:cy="32"
     inkscape:window-x="0"
     inkscape:window-y="30"
     inkscape:window-maximized="0"
     inkscape:current-layer="svg2" />
  <defs
     id="defs4">
    <linearGradient
       id="linearGradient12739">
      <stop
         id="stop12741"
         style="stop-color:#ffffff;stop-opacity:1"
         offset="0" />
      <stop
         id="stop12743"
         style="stop-color:#ffffff;stop-opacity:0"
         offset="1" />
    </linearGradient>
    <linearGradient
       id="linearGradient12727">
      <stop
         id="stop12729"
         style="stop-color:#181818;stop-opacity:0"
         offset="0" />
      <stop
         id="stop12745"
         style="stop-color:#181818;stop-opacity:0"
         offset="0.53846145" />
      <stop
         id="stop12731"
         style="stop-color:#181818;stop-opacity:1"
         offset="1" />
    </linearGradient>
    <linearGradient
       id="linearGradient4035">
      <stop
         id="stop4037"
         style="stop-color:#ffffff;stop-opacity:1"
         offset="0" />
      <stop
         id="stop4039"
         style="stop-color:#ffffff;stop-opacity:0.23529412"
         offset="0.05555556" />
      <stop
         id="stop4041"
         style="stop-color:#ffffff;stop-opacity:0.15686275"
         offset="0.94444442" />
      <stop
         id="stop4043"
         style="stop-color:#ffffff;stop-opacity:0.39215687"
         offset="1" />
    </linearGradient>
    <linearGradient
       id="linearGradient3688-166-749-654">
      <stop
         id="stop3088"
         style="stop-color:#181818;stop-opacity:1"
         offset="0" />
      <stop
         id="stop3090"
         style="stop-color:#181818;stop-opacity:0"
         offset="1" />
    </linearGradient>
    <linearGradient
       id="linearGradient3688-464-309-604">
      <stop
         id="stop3094"
         style="stop-color:#181818;stop-opacity:1"
         offset="0" />
      <stop
         id="stop3096"
         style="stop-color:#181818;stop-opacity:0"
         offset="1" />
    </linearGradient>
    <linearGradient
       id="linearGradient3702-501-757-795">
      <stop
         id="stop3100"
         style="stop-color:#181818;stop-opacity:0"
         offset="0" />
      <stop
         id="stop3102"
         style="stop-color:#181818;stop-opacity:1"
         offset="0.5" />
      <stop
         id="stop3104"
         style="stop-color:#181818;stop-opacity:0"
         offset="1" />
    </linearGradient>
    <linearGradient
       id="linearGradient4632-92-3-0-8-1-7">
      <stop
         id="stop4634-68-8-0-2-9-4"
         style="stop-color:#fafafa;stop-opacity:1"
         offset="0" />
      <stop
         id="stop4636-8-21-7-1-4-0"
         style="stop-color:#e1e1e1;stop-opacity:1"
         offset="1" />
    </linearGradient>
    <linearGradient
       id="linearGradient4220-7">
      <stop
         id="stop4222-7"
         style="stop-color:#7a8498;stop-opacity:1"
         offset="0" />
      <stop
         id="stop4224-0"
         style="stop-color:#34405c;stop-opacity:1"
         offset="1" />
    </linearGradient>
    <linearGradient
       x1="16.80644"
       y1="20.620281"
       x2="16.80644"
       y2="42.728077"
       id="linearGradient3139"
       xlink:href="#linearGradient4035"
       gradientUnits="userSpaceOnUse"
       gradientTransform="matrix(2.4506186,0,0,2.4506189,-8.0083988,-45.621342)" />
    <radialGradient
       cx="31.999998"
       cy="4.3419166"
       r="27.5"
       fx="31.999998"
       fy="4.3419166"
       id="radialGradient3143"
       xlink:href="#linearGradient4632-92-3-0-8-1-7"
       gradientUnits="userSpaceOnUse"
       gradientTransform="matrix(0,2.3103361,-2.310336,0,42.031284,-69.086042)" />
    <linearGradient
       x1="25.058096"
       y1="47.027729"
       x2="25.058096"
       y2="39.999443"
       id="linearGradient3146"
       xlink:href="#linearGradient3702-501-757-795"
       gradientUnits="userSpaceOnUse"
       gradientTransform="matrix(1.5714286,0,0,0.7142857,-5.8190334,28.428616)" />
    <radialGradient
       cx="4.9929786"
       cy="43.5"
       r="2.5"
       fx="4.9929786"
       fy="43.5"
       id="radialGradient3149"
       xlink:href="#linearGradient3688-464-309-604"
       gradientUnits="userSpaceOnUse"
       gradientTransform="matrix(3.1638751,0,0,0.99999998,-25.702995,-103.00002)" />
    <radialGradient
       cx="4.9964824"
       cy="43.5"
       r="2.5"
       fx="4.9964824"
       fy="43.5"
       id="radialGradient3152"
       xlink:href="#linearGradient3688-166-749-654"
       gradientUnits="userSpaceOnUse"
       gradientTransform="matrix(3.2060543,2.634906e-7,-8.2185949e-8,1.0000077,37.98101,15.999716)" />
    <linearGradient
       x1="37"
       y1="1026.3622"
       x2="49"
       y2="1026.3622"
       id="linearGradient4441"
       xlink:href="#linearGradient12739"
       gradientUnits="userSpaceOnUse"
       gradientTransform="matrix(0.83333333,0,0,1.1666667,2.16667,-1240.4226)" />
    <filter
       x="-0.12342857"
       y="-0.1728"
       width="1.246857"
       height="1.3456"
       color-interpolation-filters="sRGB"
       id="filter5230">
      <feGaussianBlur
         id="feGaussianBlur5232"
         stdDeviation="0.72" />
    </filter>
    <clipPath
       id="clipPath5241">
      <rect
         width="27"
         height="27"
         rx="100"
         ry="100"
         x="29.5"
         y="29.499994"
         id="rect5243"
         style="color:#000000;fill:url(#radialGradient5245);fill-opacity:1;fill-rule:nonzero;stroke:none;stroke-width:0.99999994;marker:none;visibility:visible;display:inline;overflow:visible;enable-background:accumulate" />
    </clipPath>
    <radialGradient
       cx="31.999998"
       cy="4.3419166"
       r="27.5"
       fx="31.999998"
       fy="4.3419166"
       id="radialGradient5245"
       xlink:href="#linearGradient4632-92-3-0-8-1-7"
       gradientUnits="userSpaceOnUse"
       gradientTransform="matrix(0,1.1551681,-1.155168,0,48.015641,-7.5430469)" />
    <linearGradient
       x1="32.139999"
       y1="29.5"
       x2="65.260002"
       y2="29.5"
       id="linearGradient5268"
       xlink:href="#linearGradient3688-166-749-654"
       gradientUnits="userSpaceOnUse"
       gradientTransform="matrix(0,0.7142857,0.7142857,0,23.928572,10.214286)" />
    <radialGradient
       cx="43.753838"
       cy="4.3419137"
       r="27.5"
       fx="43.753838"
       fy="4.3419137"
       id="radialGradient5271"
       xlink:href="#linearGradient12727"
       gradientUnits="userSpaceOnUse"
       gradientTransform="matrix(-2.1006405e-6,0.51054555,-0.51054545,-2.1006402e-6,47.216837,22.661623)"
       spreadMethod="pad" />
    <linearGradient
       x1="32.139999"
       y1="29.5"
       x2="65.260002"
       y2="29.5"
       id="linearGradient5274"
       xlink:href="#linearGradient3688-166-749-654"
       gradientUnits="userSpaceOnUse"
       gradientTransform="matrix(0,0.77639748,0.77639748,0,22.096274,7.189442)" />
    <radialGradient
       cx="31.999998"
       cy="4.3419166"
       r="27.5"
       fx="31.999998"
       fy="4.3419166"
       id="radialGradient5280"
       xlink:href="#linearGradient4632-92-3-0-8-1-7"
       gradientUnits="userSpaceOnUse"
       gradientTransform="matrix(0,1.1551681,-1.155168,0,50.015641,-5.5430409)" />
    <linearGradient
       x1="32.080647"
       y1="29.5"
       x2="65.319359"
       y2="29.5"
       id="linearGradient5283"
       xlink:href="#linearGradient4035"
       gradientUnits="userSpaceOnUse"
       gradientTransform="matrix(0,0.9627329,-0.96255998,0,73.392736,-1.885044)" />
    <linearGradient
       x1="91.566116"
       y1="16.542858"
       x2="91.566116"
       y2="48.631081"
       id="linearGradient5287"
       xlink:href="#linearGradient4220-7"
       gradientUnits="userSpaceOnUse"
       gradientTransform="matrix(1.0294117,0,0,1.0294117,-49.794111,11.470586)" />
    <linearGradient
       x1="32.139999"
       y1="29.5"
       x2="65.260002"
       y2="29.5"
       id="linearGradient5290"
       xlink:href="#linearGradient3688-166-749-654"
       gradientUnits="userSpaceOnUse"
       gradientTransform="matrix(0,-1.0869565,1.0867728,0,12.943161,97.934826)" />
    <linearGradient
       x1="32.139999"
       y1="29.5"
       x2="65.260002"
       y2="29.5"
       id="linearGradient5293"
       xlink:href="#linearGradient3688-166-749-654"
       gradientUnits="userSpaceOnUse"
       gradientTransform="matrix(0,-1.1490683,1.1488794,0,11.111099,100.95963)" />
  </defs>
  <metadata
     id="metadata7">
    <rdf:RDF>
      <cc:Work
         rdf:about="">
        <dc:format>image/svg+xml</dc:format>
        <dc:type
           rdf:resource="http://purl.org/dc/dcmitype/StillImage" />
        <dc:title />
      </cc:Work>
    </rdf:RDF>
  </metadata>
  <g
     id="g3097">
    <g
       id="g4387">
      <rect
         style="opacity:0.4;fill:url(#radialGradient3152);fill-opacity:1;stroke:none"
         id="rect2801"
         y="57"
         x="54"
         height="5"
         width="8" />
      <rect
         style="opacity:0.4;fill:url(#radialGradient3149);fill-opacity:1;stroke:none"
         id="rect3696"
         transform="scale(-1,-1)"
         y="-62"
         x="-10"
         height="5"
         width="8" />
      <rect
         style="opacity:0.4;fill:url(#linearGradient3146);fill-opacity:1;stroke:none"
         id="rect3700"
         y="57"
         x="10"
         height="5.0000005"
         width="44" />
    </g>
    <rect
       style="color:#000000;fill:url(#radialGradient3143);fill-opacity:1;fill-rule:nonzero;stroke:none;stroke-width:0.99999994;marker:none;visibility:visible;display:inline;overflow:visible;enable-background:accumulate"
       id="rect5505-21-3-8-5-2"
       y="5"
       x="5"
       ry="2.5"
       rx="2.5"
       height="54"
       width="54" />
    <rect
       style="opacity:0.3;fill:none;stroke:#000000;stroke-width:1;stroke-opacity:1"
       id="rect3993"
       y="4.5"
       x="4.5"
       ry="3"
       rx="3"
       height="55"
       width="55" />
    <rect
       style="fill:none;stroke:url(#linearGradient3139);stroke-width:1.00000012;stroke-linecap:round;stroke-linejoin:round;stroke-miterlimit:4;stroke-opacity:1;stroke-dasharray:none;stroke-dashoffset:0"
       id="rect6741-5-0-2-3"
       y="5.5"
       x="5.5"
       ry="2"
       rx="2"
       height="53"
       width="53" />
    <g
       style="font-size:32px;font-style:normal;font-variant:normal;font-weight:bold;font-stretch:normal;text-align:center;line-height:125%;letter-spacing:0px;word-spacing:0px;text-anchor:middle;opacity:0.6;fill:#000000;fill-opacity:1;stroke:none;font-family:Open Sans;-inkscape-font-specification:Open Sans Bold"
       id="text7620">
      <path
         id="path5260"
         d="m 29.367187,43.3125 -1.65625,-5.4375 -8.328125,0 -1.65625,5.4375 -5.218749,0 8.062499,-22.9375 5.921875,0 8.09375,22.9375 -5.21875,0 m -2.8125,-9.5 c -1.531262,-4.927069 -2.395844,-7.713524 -2.59375,-8.359375 -0.187511,-0.645815 -0.322927,-1.156231 -0.40625,-1.53125 -0.34376,1.333351 -1.328134,4.630223 -2.953125,9.890625 l 5.953125,0" />
      <path
         id="path5262"
         d="m 48.164062,43.3125 -0.921875,-2.375 -0.125,0 c -0.802095,1.010418 -1.630219,1.713542 -2.484375,2.109375 -0.843759,0.385417 -1.947924,0.578125 -3.3125,0.578125 -1.677088,0 -3.000003,-0.479166 -3.96875,-1.4375 -0.958335,-0.958331 -1.437501,-2.322913 -1.4375,-4.09375 -1e-6,-1.85416 0.645832,-3.218742 1.9375,-4.09375 1.302079,-0.885406 3.260411,-1.374989 5.875,-1.46875 l 3.03125,-0.09375 0,-0.765625 c -1.2e-5,-1.77082 -0.906261,-2.656236 -2.71875,-2.65625 -1.395841,1.4e-5 -3.036464,0.421889 -4.921875,1.265625 L 37.539062,27.0625 c 2.010412,-1.052066 4.239577,-1.578107 6.6875,-1.578125 2.343739,1.8e-5 4.140612,0.510434 5.390625,1.53125 1.249984,1.020849 1.874984,2.57293 1.875,4.65625 l 0,11.640625 -3.328125,0 m -1.40625,-8.09375 -1.84375,0.0625 c -1.385425,0.04167 -2.416674,0.291674 -3.09375,0.75 -0.677089,0.45834 -1.015631,1.156256 -1.015625,2.09375 -6e-6,1.343754 0.770827,2.015628 2.3125,2.015625 1.104158,3e-6 1.984365,-0.317705 2.640625,-0.953125 0.666655,-0.635412 0.999988,-1.479161 1,-2.53125 l 0,-1.4375" />
    </g>
    <path
       style="opacity:0.07999998;fill:none;stroke:url(#linearGradient5293);stroke-width:1;stroke-miterlimit:4;stroke-opacity:1;stroke-dasharray:none"
       id="path8109"
       d="m 45.003042,26.499999 a 18.496959,18.5 0 0 1 0,37 18.49696,18.500001 0 1 1 0,-37 z" />
    <path
       style="opacity:0.15;fill:none;stroke:url(#linearGradient5290);stroke-width:1;stroke-miterlimit:4;stroke-opacity:1;stroke-dasharray:none"
       id="path8105"
       d="m 45.002958,27.500044 a 17.497042,17.5 0 0 1 0,35 17.497043,17.500001 0 1 1 0,-35 z" />
    <path
       style="color:#000000;fill:url(#linearGradient5287);fill-opacity:1;fill-rule:nonzero;stroke:none;stroke-width:0.79069769;marker:none;visibility:visible;display:inline;overflow:visible;enable-background:accumulate"
       id="path4218"
       d="m 61.5,45.000026 a 16.5,16.5 0 0 1 -33,0 16.5,16.5 0 1 1 33,0 z" />
    <path
       style="opacity:0.3;fill:none;stroke:#000000;stroke-width:1;stroke-miterlimit:4;stroke-opacity:1;stroke-dasharray:none"
       id="path7624"
       d="m 61.5,45.002917 a 16.5,16.497128 0 0 1 -33,0 16.500001,16.497129 0 1 1 33,0 z" />
    <path
       style="opacity:0.3;fill:none;stroke:url(#linearGradient5283);stroke-width:0.99999994;stroke-miterlimit:4;stroke-opacity:1;stroke-dasharray:none"
       id="path7681"
       d="m 44.997216,60.500049 a 15.497216,15.5 0 1 1 0,-31 15.497217,15.500001 0 1 1 0,31 z" />
    <rect
       style="color:#000000;fill:url(#radialGradient5280);fill-opacity:1;fill-rule:nonzero;stroke:none;stroke-width:0.99999994;marker:none;visibility:visible;display:inline;overflow:visible;enable-background:accumulate"
       id="rect8115"
       y="31.5"
       x="31.5"
       ry="100"
       rx="100"
       height="27"
       width="27" />
    <g
       style="font-size:36px;font-style:normal;font-variant:normal;font-weight:bold;font-stretch:normal;text-align:center;line-height:125%;letter-spacing:0px;word-spacing:0px;text-anchor:middle;opacity:0.6;fill:#000000;fill-opacity:1;stroke:none;font-family:Open Sans;-inkscape-font-specification:Open Sans Bold"
       id="text12703"
       clip-path="url(#clipPath5241)"
       transform="translate(1.9999998,2.000006)">
      <path
         id="path5296"
         d="m 27.038086,42.726555 -1.863281,-6.117188 -9.369141,0 -1.863281,6.117188 -5.8710939,0 9.0703129,-25.804688 6.662109,0 9.105469,25.804688 -5.871094,0 m -3.164063,-10.6875 c -1.72267,-5.542953 -2.695325,-8.677715 -2.917968,-9.404297 -0.21095,-0.726542 -0.363294,-1.30076 -0.457032,-1.722656 -0.38673,1.50002 -1.494151,5.209001 -3.322265,11.126953 l 6.697265,0" />
      <path
         id="path5298"
         d="m 48.18457,42.726555 -1.037109,-2.671875 -0.140625,0 c -0.902357,1.13672 -1.833997,1.927735 -2.794922,2.373047 -0.949229,0.433593 -2.191415,0.65039 -3.726562,0.65039 -1.886725,0 -3.375005,-0.539062 -4.464844,-1.617187 -1.078127,-1.078123 -1.617189,-2.613278 -1.617188,-4.605469 -10e-7,-2.085929 0.726561,-3.621084 2.179688,-4.605469 1.464838,-0.996082 3.667961,-1.546863 6.609375,-1.652343 l 3.410156,-0.105469 0,-0.861328 c -1.4e-5,-1.992173 -1.019544,-2.988265 -3.058594,-2.988282 -1.570321,1.7e-5 -3.416023,0.474625 -5.537109,1.423829 l -1.775391,-3.621094 c 2.261713,-1.183574 4.769523,-1.775371 7.523438,-1.775391 2.636705,2e-5 4.658187,0.574238 6.064453,1.722656 1.406232,1.148455 2.109356,2.894547 2.109375,5.238282 l 0,13.095703 -3.744141,0 m -1.582031,-9.105469 -2.074219,0.07031 c -1.558604,0.04688 -2.718759,0.328133 -3.480468,0.84375 -0.761727,0.515632 -1.142586,1.300788 -1.142579,2.355468 -7e-6,1.511723 0.86718,2.267582 2.601563,2.267578 1.242177,4e-6 2.23241,-0.357417 2.970703,-1.072265 0.749987,-0.714839 1.124986,-1.664056 1.125,-2.847656 l 0,-1.617188" />
    </g>
    <path
       style="opacity:0.3;fill:none;stroke:#000000;stroke-width:1.00000012;stroke-miterlimit:4;stroke-opacity:1;stroke-dasharray:none"
       id="path8113"
       d="m 58.499999,45.00502 a 13.499999,13.498654 0 0 1 -26.999997,0 13.5,13.498655 0 1 1 26.999997,0 z" />
    <path
       style="opacity:0.15;fill:none;stroke:url(#linearGradient5274);stroke-width:0.99999994;stroke-miterlimit:4;stroke-opacity:1;stroke-dasharray:none"
       id="path8123"
       d="m 45,57.5 a 12.5,12.5 0 0 0 0,-25 12.5,12.5 0 1 0 0,25 z" />
    <rect
       style="opacity:0.4;color:#000000;fill:url(#radialGradient5271);fill-opacity:1;fill-rule:nonzero;stroke:none;stroke-width:0.99999994;marker:none;visibility:visible;display:inline;overflow:visible;enable-background:accumulate"
       id="rect12723"
       y="31.5"
       x="31.5"
       ry="100"
       rx="100"
       height="27"
       width="27" />
    <path
       style="opacity:0.07999998;fill:none;stroke:url(#linearGradient5268);stroke-width:1;stroke-miterlimit:4;stroke-opacity:1;stroke-dasharray:none"
       id="path8127"
       d="m 45,56.5 a 11.5,11.5 0 0 0 0,-23 11.5,11.5 0 1 0 0,23 z" />
    <rect
       style="opacity:0.5;color:#000000;fill:url(#linearGradient4441);fill-opacity:1;fill-rule:nonzero;stroke:none;stroke-width:0.99999994;marker:none;visibility:visible;display:inline;overflow:visible;filter:url(#filter5230);enable-background:accumulate"
       id="rect12733"
       transform="matrix(0,1,-1,0,1.9999998,2.000006)"
       y="-50"
       x="33.000004"
       ry="25"
       rx="25"
       height="14"
       width="10" />
  </g>
  <text
     x="35.5"
     y="79.5"
     id="text12747"
     xml:space="preserve"
     style="font-size:24px;font-style:normal;font-variant:normal;font-weight:normal;font-stretch:normal;text-align:start;line-height:125%;letter-spacing:0px;word-spacing:0px;text-anchor:start;fill:#000000;fill-opacity:1;stroke:none;font-family:Open Sans;-inkscape-font-specification:Open Sans"><tspan
       x="35.5"
       y="79.5"
       id="tspan12749" /></text>
</svg>
