<svg xmlns="http://www.w3.org/2000/svg" xmlns:xlink="http://www.w3.org/1999/xlink" viewBox="0 0 64 64"><defs><linearGradient id="d"><stop offset="0" stop-color="#fff"/><stop offset=".084" stop-color="#fff" stop-opacity=".235"/><stop offset=".951" stop-color="#fff" stop-opacity=".157"/><stop offset="1" stop-color="#fff" stop-opacity=".392"/></linearGradient><linearGradient id="e"><stop offset="0" stop-color="#fff"/><stop offset=".036" stop-color="#fff" stop-opacity=".235"/><stop offset=".951" stop-color="#fff" stop-opacity=".157"/><stop offset="1" stop-color="#fff" stop-opacity=".392"/></linearGradient><linearGradient id="f"><stop offset="0" stop-color="#fff"/><stop offset=".302" stop-color="#fff"/><stop offset=".344" stop-color="#fff" stop-opacity=".643"/><stop offset="1" stop-color="#fff" stop-opacity=".391"/></linearGradient><linearGradient id="g"><stop offset="0" stop-color="#fff" stop-opacity="0"/><stop offset="1" stop-color="#fff" stop-opacity="0"/></linearGradient><linearGradient id="h"><stop offset="0" stop-color="#dac196"/><stop offset=".239" stop-color="#c7ae8e"/><stop offset=".276" stop-color="#dac197"/><stop offset="1" stop-color="#b19974"/></linearGradient><linearGradient id="i"><stop offset="0"/><stop offset="1" stop-opacity="0"/></linearGradient><linearGradient id="j"><stop offset="0" stop-opacity="0"/><stop offset=".5"/><stop offset="1" stop-opacity="0"/></linearGradient><radialGradient gradientTransform="matrix(.17525 0 0 .05576 -1.377 18.12)" gradientUnits="userSpaceOnUse" xlink:href="#a" id="s" fy="186.171" fx="99.157" r="62.769" cy="186.171" cx="99.157"/><linearGradient id="a"><stop offset="0" stop-color="#3d3d3d"/><stop offset=".5" stop-color="#686868" stop-opacity=".498"/><stop offset="1" stop-color="#686868" stop-opacity="0"/></linearGradient><radialGradient gradientTransform="matrix(0 1.76747 -1.86977 0 31.8 -9.59)" gradientUnits="userSpaceOnUse" xlink:href="#b" id="t" fy="8.45" fx="3.972" r="20" cy="8.45" cx="3.972"/><linearGradient gradientTransform="translate(-36.346 -2.504) scale(.72973)" gradientUnits="userSpaceOnUse" xlink:href="#c" id="u" y2="44.341" x2="71.204" y1="6.238" x1="71.204"/><linearGradient id="c"><stop offset="0" stop-color="#fff"/><stop offset=".508" stop-color="#fff" stop-opacity=".235"/><stop offset=".835" stop-color="#fff" stop-opacity=".157"/><stop offset="1" stop-color="#fff" stop-opacity=".392"/></linearGradient><linearGradient id="b"><stop offset="0" stop-color="#90dbec"/><stop offset=".262" stop-color="#42baea"/><stop offset=".705" stop-color="#3689e6"/><stop offset="1" stop-color="#2b63a0"/></linearGradient><linearGradient xlink:href="#d" id="r" gradientUnits="userSpaceOnUse" gradientTransform="matrix(1.43243 0 0 .2973 -2.378 10.865)" x1="24" y1="7.347" x2="24" y2="43"/><linearGradient xlink:href="#e" id="q" gradientUnits="userSpaceOnUse" gradientTransform="matrix(1.43243 0 0 .94595 -2.378 18.297)" x1="24" y1="5.564" x2="24" y2="43"/><linearGradient xlink:href="#f" id="p" gradientUnits="userSpaceOnUse" gradientTransform="matrix(1.5 0 0 1.35714 -4 -.367)" x1="24.537" y1="21.915" x2="24.537" y2="7.913"/><linearGradient xlink:href="#g" id="o" gradientUnits="userSpaceOnUse" gradientTransform="matrix(1.70964 0 0 1.56625 -8.25 -6.915)" x1="23.452" y1="30.555" x2="43.007" y2="45.934"/><linearGradient xlink:href="#h" id="n" gradientUnits="userSpaceOnUse" gradientTransform="matrix(1.72 0 0 2.07487 -8.327 -20.165)" x1="24.823" y1="15.378" x2="24.997" y2="37.277"/><radialGradient xlink:href="#i" id="m" gradientUnits="userSpaceOnUse" gradientTransform="matrix(.53494 0 0 1.6 55.836 -121.4)" cx="5" cy="41.5" fx="5" fy="41.5" r="5"/><linearGradient xlink:href="#j" id="l" gradientUnits="userSpaceOnUse" gradientTransform="matrix(2.32552 0 0 1.45455 -22.73 -3.91)" x1="17.554" y1="46" x2="17.554" y2="35"/><radialGradient xlink:href="#i" id="k" gradientUnits="userSpaceOnUse" gradientTransform="matrix(.53494 0 0 1.6 -7.852 -121.4)" cx="5" cy="41.5" fx="5" fy="41.5" r="5"/></defs><path transform="scale(-1)" opacity=".4" fill="url(#k)" d="M-5.177-63h2.667v16h-2.667z"/><path opacity=".4" fill="url(#l)" d="M5.177 47h53.487v16H5.177z"/><path transform="scale(1 -1)" opacity=".4" fill="url(#m)" d="M58.51-63h2.667v16H58.51z"/><path d="M11.902 11.533h39.57c2.31 0 3.348-.38 4.012 1.333l4.027 10.66V57.73c0 2.07.14 1.754-2.17 1.754H6.68c-2.31 0-2.172.316-2.172-1.754V23.525l4.026-10.66c.645-1.68 1.058-1.332 3.368-1.332z" fill="url(#n)" display="block" overflow="visible"/><path d="M13.108 12.84h36.87c2.153 0 3.485.742 4.386 2.782l3.106 8.56v30.86c0 1.946-1.092 2.927-3.244 2.927H9.248c-2.152 0-3.03-1.08-3.03-3.03V24.18l3.005-8.742c.6-1.58 1.732-2.598 3.885-2.598z" opacity=".505" fill="none" stroke="url(#o)" stroke-width=".742" display="block" overflow="visible"/><path d="M29.5 11h5l.5 12.45v6.04c-.59 0-1.18-1.046-1.772-1.046-.604 0-1.21 1.046-1.814 1.046-.487 0-.973-.916-1.46-.916-.318 0-.636.916-.954.916 0 0-.138-2.606 0-6.04z" opacity=".3" fill="url(#p)" overflow="visible"/><path d="M58.5 58.5h-53v-35h53z" opacity=".3" fill="none" stroke="url(#q)" stroke-linecap="round" stroke-linejoin="round"/><path d="M5.5 23.5l4.454-11h44.092l4.454 11" opacity=".2" fill="none" stroke="url(#r)" stroke-linecap="round" stroke-linejoin="round"/><path d="M11.902 11.533h39.57c2.31 0 3.348-.38 4.012 1.333l4.027 10.66V57.73c0 2.07.14 1.754-2.17 1.754H6.68c-2.31 0-2.172.316-2.172-1.754V23.525l4.026-10.66c.645-1.68 1.058-1.332 3.368-1.332z" fill="none" stroke="#5a3700" stroke-width=".994" stroke-linecap="round" display="block" overflow="visible" opacity=".35" color="#000"/><path d="M27 28.5a11 3.5 0 1 1-22 0 11 3.5 0 1 1 22 0z" fill="url(#s)" transform="translate(33 32)"/><path d="M16 1.5C8 1.5 1.5 8 1.5 16S8 30.5 16 30.5 30.5 24 30.5 16 24 1.5 16 1.5z" color="#000" fill="url(#t)" overflow="visible" transform="translate(33 32)"/><path d="M49 33.5c-8 0-14.5 6.5-14.5 14.5S41 62.5 49 62.5 63.5 56 63.5 48 57 33.5 49 33.5z" opacity=".5" color="#000" stroke="#00537d" stroke-linecap="round" stroke-linejoin="round" overflow="visible" fill="none"/><path d="M29.5 16c0 7.456-6.045 13.5-13.5 13.5-7.456 0-13.5-6.044-13.5-13.5S8.544 2.5 16 2.5c7.455 0 13.5 6.044 13.5 13.5z" opacity=".5" color="#000" fill="none" stroke="url(#u)" stroke-linecap="round" stroke-linejoin="round" overflow="visible" transform="translate(33 32)"/><path style="text-align:start;line-height:100%;-inkscape-font-specification:URW Palladio L Bold" d="M51.344 38.03c-.026 0-.038.033-.063.032h-.03c-1.35-.016-2.35.995-2.68 2.094-.172.565-.223 1.212-.03 1.813.194.6.657 1.16 1.31 1.46a.957.957 0 0 0 .03 0c2.087.853 4.276-1.117 3.847-3.25-.007-.034.007-.06 0-.095h-.03c-.208-1.125-1.15-2.018-2.345-2.03v-.03zm-.75 6.314c-.537-.044-.984.25-1.407.53l-.03-.062c-.072.03-.118.093-.188.126-1.82.832-3.29 2.016-4.72 3.062a.957.957 0 0 0-.35 1.125c.1.278.1.593.622 1 .262.204.803.32 1.156.188.225-.086.34-.216.47-.344.184-.11.38-.21.593-.35-.55 2.31-1.157 4.623-1.656 7h.03c-.344 1.02-.116 2.09.594 2.75.7.65 1.848.71 2.81.152l.03.03c.06-.023.1-.066.16-.092 1.58-.69 2.89-1.7 4.124-2.564a.957.957 0 0 0 .312-1.156c-.055-.132-.058-.397-.407-.844-.177-.224-.67-.518-1.127-.438-.27.045-.352.187-.5.31l-.03-.03c-.313.14-.46.277-.69.437.545-2.35 1.275-4.703 1.846-7.186.014-.068.05-.12.062-.19h-.063c.256-.687.302-1.435.063-2.06-.26-.685-.856-1.336-1.72-1.407z" font-size="40" font-weight="700" opacity=".05" color="#000" overflow="visible" font-family="URW Palladio L"/><path style="text-align:start;line-height:100%;-inkscape-font-specification:URW Palladio L Bold" d="M44.8 48.788c.19.52.406.94.865.365.568-.34 2.473-1.82 2.282-.37-.61 2.688-1.352 5.347-1.92 8.042-.593 1.475.755 2.81 2.162 1.85 1.49-.616 2.78-1.62 4.09-2.54-.18-.44-.3-1.073-.797-.498-.65.295-2.073 1.688-2.337.54.547-2.91 1.56-5.712 2.207-8.598.598-1.33-.375-3.01-1.832-1.91-1.744.76-3.203 2-4.727 3.11zm6.477-9.786c-1.78-.094-2.712 2.776-1.02 3.562 1.373.563 2.868-.845 2.532-2.252-.11-.733-.77-1.334-1.52-1.31z" font-size="40" font-weight="700" opacity=".15" color="#000" overflow="visible" font-family="URW Palladio L"/><path style="text-align:start;line-height:100%;-inkscape-font-specification:URW Palladio L Bold" d="M44.8 47.788c.19.52.406.94.865.365.568-.34 2.473-1.82 2.282-.37-.61 2.688-1.352 5.347-1.92 8.042-.593 1.475.755 2.81 2.162 1.85 1.49-.616 2.78-1.62 4.09-2.54-.18-.44-.3-1.073-.797-.498-.65.295-2.073 1.688-2.337.54.547-2.91 1.56-5.712 2.207-8.598.598-1.33-.375-3.01-1.832-1.91-1.744.76-3.203 2-4.727 3.11zm6.477-9.786c-1.78-.094-2.712 2.776-1.02 3.562 1.373.563 2.868-.845 2.532-2.252-.11-.733-.77-1.334-1.52-1.31z" font-size="40" font-weight="700" fill="#fff" font-family="URW Palladio L"/></svg>