<?xml version="1.0" encoding="UTF-8" standalone="no"?>
<svg
   id="svg4157"
   height="16"
   width="16"
   version="1.1"
   xmlns:xlink="http://www.w3.org/1999/xlink"
   xmlns="http://www.w3.org/2000/svg"
   xmlns:svg="http://www.w3.org/2000/svg"
   xmlns:rdf="http://www.w3.org/1999/02/22-rdf-syntax-ns#"
   xmlns:cc="http://creativecommons.org/ns#"
   xmlns:dc="http://purl.org/dc/elements/1.1/">
  <defs
     id="defs4159">
    <linearGradient
       gradientTransform="matrix(0.29729733,0,0,0.27027026,0.86486637,1.0135167)"
       gradientUnits="userSpaceOnUse"
       xlink:href="#linearGradient4095"
       id="linearGradient3233"
       y2="41.167725"
       x2="23.99999"
       y1="6.7566175"
       x1="23.99999" />
    <linearGradient
       id="linearGradient4095">
      <stop
         offset="0"
         style="stop-color:#ffffff;stop-opacity:1"
         id="stop4097" />
      <stop
         offset="0.03537823"
         style="stop-color:#ffffff;stop-opacity:0.23529412"
         id="stop4100" />
      <stop
         offset="0.96216732"
         style="stop-color:#ffffff;stop-opacity:0.15686275"
         id="stop4102" />
      <stop
         offset="1"
         style="stop-color:#ffffff;stop-opacity:0.39215687"
         id="stop4104" />
    </linearGradient>
    <linearGradient
       id="linearGradient909">
      <stop
         id="stop905"
         style="stop-color:#fafafa;stop-opacity:1"
         offset="0" />
      <stop
         id="stop907"
         style="stop-color:#d4d4d4;stop-opacity:1"
         offset="1" />
    </linearGradient>
    <linearGradient
       xlink:href="#linearGradient909"
       id="linearGradient903-6"
       x1="14.329722"
       y1="28.818197"
       x2="14.329722"
       y2="-0.070297658"
       gradientUnits="userSpaceOnUse"
       gradientTransform="matrix(0.46153838,0,0,0.4615395,0.61538654,-15.384619)" />
  </defs>
  <metadata
     id="metadata4162">
    <rdf:RDF>
      <cc:Work
         rdf:about="">
        <dc:format>image/svg+xml</dc:format>
        <dc:type
           rdf:resource="http://purl.org/dc/dcmitype/StillImage" />
      </cc:Work>
    </rdf:RDF>
  </metadata>
  <rect
     transform="scale(1,-1)"
     width="11.999998"
     height="12.000027"
     rx="1.5000001"
     ry="1.5000001"
     x="2.0000019"
     y="-14"
     id="rect5505-6"
     style="color:#000000;display:inline;overflow:visible;visibility:visible;fill:url(#linearGradient903-6);fill-opacity:1;fill-rule:nonzero;stroke:none;stroke-width:0.999993;marker:none;enable-background:accumulate" />
  <path
     id="text782-3"
     style="font-style:normal;font-variant:normal;font-weight:600;font-stretch:normal;font-size:17.3333px;line-height:1.25;font-family:Inter;-inkscape-font-specification:'Inter Semi-Bold';display:inline;fill:#fafafa;fill-opacity:1;stroke:none;stroke-width:0.999994"
     d="M 9.4425407,4 C 7.0226676,4 5.6145499,5.4898859 5.611634,7.8107524 c 0.0029,2.3762636 1.3875699,3.7432156 3.8336826,3.7432156 0.7492854,0 1.5459274,-0.188875 1.9103644,-0.378393 L 11.10775,10.434519 c -0.276972,0.104963 -0.947742,0.297903 -1.612477,0.297903 -1.9300676,0 -2.9733244,-1.0443493 -2.9733244,-2.933697 0,-1.7610593 0.9964122,-2.9882808 2.9002402,-2.9882808 1.5539662,0 2.7116562,0.8807054 2.7087402,2.536801 0.0029,1.2041678 -0.183875,1.7457845 -0.650357,1.7457845 -0.247818,0 -0.393034,-0.1979857 -0.395949,-0.4866357 V 5.8309007 h -0.814102 v 0.3265829 h -0.04071 C 10.136518,5.9009055 9.5765667,5.6647915 8.9439007,5.7522615 8.1304739,5.8601412 7.3499256,6.5276929 7.3499256,7.775596 c 0,1.2858067 0.6990266,2.0406607 1.6494832,2.0843947 0.6618205,0.03207 1.1747862,-0.261794 1.3118152,-0.608758 h 0.03516 c 0.06998,0.437349 0.455523,0.675987 1.044457,0.643915 1.25367,-0.04665 1.611693,-1.1664117 1.608777,-2.4988691 C 13.002516,5.4806894 11.713726,4 9.4425437,4 Z M 9.2473408,6.5886102 c 0.7259623,0 0.9943602,0.3559945 0.9972762,1.1490541 0.0087,0.8513727 -0.2652022,1.2859787 -1.0028259,1.2859787 -0.7609484,0 -1.017488,-0.618432 -1.0204039,-1.2832029 0.0029,-0.6647708 0.3728806,-1.1518299 1.0259536,-1.1518299 z" />
  <rect
     width="12.999999"
     height="13"
     rx="1.9999999"
     ry="1.9999999"
     x="1.5"
     y="1.5"
     id="rect5505-21-8-1"
     style="color:#000000;font-variation-settings:normal;display:inline;overflow:visible;visibility:visible;opacity:0.5;vector-effect:none;fill:none;fill-opacity:1;stroke:#555761;stroke-width:1;stroke-linecap:round;stroke-linejoin:round;stroke-miterlimit:4;stroke-dasharray:none;stroke-dashoffset:0;stroke-opacity:1;-inkscape-stroke:none;marker:none;enable-background:accumulate;stop-color:#000000;stop-opacity:1" />
  <rect
     width="11"
     height="10"
     x="2.5000005"
     y="2.5000012"
     id="rect6741-9"
     style="opacity:1;fill:none;stroke:url(#linearGradient3233);stroke-width:1;stroke-linecap:round;stroke-linejoin:round;stroke-miterlimit:4;stroke-dasharray:none;stroke-dashoffset:0;stroke-opacity:1"
     rx="1"
     ry="0.99999994" />
  <path
     id="rect5505-6-0"
     style="color:#000000;font-variation-settings:normal;display:inline;overflow:visible;visibility:visible;opacity:0.1;vector-effect:none;fill:#000000;fill-opacity:1;fill-rule:nonzero;stroke:none;stroke-width:0.999996;stroke-linecap:butt;stroke-linejoin:miter;stroke-miterlimit:4;stroke-dasharray:none;stroke-dashoffset:0;stroke-opacity:1;-inkscape-stroke:none;marker:none;enable-background:accumulate;stop-color:#000000;stop-opacity:1"
     d="M 2 11.501953 L 2 12.5 C 2 12.56099 2.0070475 12.61869 2.0117188 12.677734 C 2.0990916 13.424367 2.7291492 14 3.5 14 L 12.5 14 C 13.270851 14 13.900908 13.424367 13.988281 12.677734 C 13.992953 12.61869 14 12.56099 14 12.5 L 14 11.501953 C 13.998666 12.3318 13.33017 13 12.5 13 L 3.5 13 C 2.6698701 13 2.001399 12.331745 2 11.501953 z " />
  <path
     id="text782"
     style="font-style:normal;font-variant:normal;font-weight:600;font-stretch:normal;font-size:17.3333px;line-height:1.25;font-family:Inter;-inkscape-font-specification:'Inter Semi-Bold';fill:#7e8087;fill-opacity:1;stroke:none;stroke-width:0.999999"
     d="M 9.4427396,3 C 7.0227409,3 5.61455,4.489886 5.611634,6.8107523 c 0.0029,2.3762637 1.3876419,3.7432147 3.8338816,3.7432147 0.7493244,0 1.5460074,-0.188874 1.9104644,-0.378392 L 11.108036,9.434519 c -0.276987,0.104963 -0.947791,0.297902 -1.6125614,0.297902 -1.9301678,0 -2.9734787,-1.0443477 -2.9734787,-2.933696 0,-1.7610593 0.9964639,-2.9882807 2.9003907,-2.9882807 1.5540474,0 2.7117974,0.8807053 2.7088814,2.5368009 0.0029,1.2041678 -0.183885,1.7457851 -0.650391,1.7457851 -0.247831,0 -0.393054,-0.1979859 -0.39597,-0.4866363 V 4.8309007 h -0.814144 v 0.326583 h -0.04071 C 10.136753,4.9009055 9.5767726,4.6647915 8.9440737,4.7522615 8.1306047,4.8601412 7.3500158,5.527693 7.3500158,6.775596 c 0,1.2858063 0.6990629,2.0406613 1.6495689,2.0843953 0.6618549,0.03207 1.1748473,-0.261794 1.3118833,-0.608758 h 0.03516 c 0.06998,0.437349 0.455547,0.675987 1.044511,0.643915 C 12.644874,8.8484983 13.002916,7.7287358 13,6.3962787 13.0029,4.4806894 11.714043,3 9.4427426,3 Z m -0.19521,2.5886102 c 0.726,0 0.9944114,0.3559945 0.9973284,1.1490541 0.0087,0.851373 -0.2652164,1.2859787 -1.0028784,1.2859787 -0.7609879,0 -1.0175409,-0.6184321 -1.0204569,-1.2832029 0.0029,-0.6647708 0.3729,-1.1518299 1.0260069,-1.1518299 z" />
</svg>
