<?xml version="1.0" encoding="UTF-8" standalone="no"?>
<!-- Created with Inkscape (http://www.inkscape.org/) -->
<svg
   xmlns:svg="http://www.w3.org/2000/svg"
   xmlns="http://www.w3.org/2000/svg"
   xmlns:xlink="http://www.w3.org/1999/xlink"
   version="1.0"
   width="48"
   height="48"
   id="svg5254">
  <defs
     id="defs5256">
    <linearGradient
       id="linearGradient8838-561-565-604-255-272">
      <stop
         id="stop4140"
         style="stop-color:#121212;stop-opacity:1"
         offset="0" />
      <stop
         id="stop4142"
         style="stop-color:#121212;stop-opacity:0"
         offset="1" />
    </linearGradient>
    <radialGradient
       cx="62.625"
       cy="4.625"
       r="10.625"
       fx="62.625"
       fy="4.625"
       id="radialGradient2902-873-655-58"
       xlink:href="#linearGradient8838-561-565-604-255-272"
       gradientUnits="userSpaceOnUse"
       gradientTransform="matrix(2.1647059,0,0,0.7529402,-111.56471,36.517647)" />
    <linearGradient
       id="linearGradient3707-319-631-477-589-201-606">
      <stop
         id="stop4156"
         style="stop-color:#898989;stop-opacity:1"
         offset="0" />
      <stop
         id="stop4158"
         style="stop-color:#aaaaaa;stop-opacity:1"
         offset="0.5" />
      <stop
         id="stop4160"
         style="stop-color:#d2d2d2;stop-opacity:1"
         offset="1" />
    </linearGradient>
    <linearGradient
       x1="18.138792"
       y1="45.21809"
       x2="18.138792"
       y2="2.9999995"
       id="linearGradient2899-145-663-74-244"
       xlink:href="#linearGradient3707-319-631-477-589-201-606"
       gradientUnits="userSpaceOnUse" />
    <linearGradient
       id="linearGradient2867-449-88-871-390-598-476-591-434-148-905-902-285-933">
      <stop
         id="stop4146"
         style="stop-color:#ffffff;stop-opacity:1"
         offset="0" />
      <stop
         id="stop4148"
         style="stop-color:#ffffff;stop-opacity:1"
         offset="0.26238" />
      <stop
         id="stop4150"
         style="stop-color:#cfd3d6;stop-opacity:1"
         offset="0.704952" />
      <stop
         id="stop4152"
         style="stop-color:#919dab;stop-opacity:1"
         offset="1" />
    </linearGradient>
    <radialGradient
       cx="20.248743"
       cy="4.9115634"
       r="23"
       fx="20.248743"
       fy="4.9115634"
       id="radialGradient2897-479-547-107-90"
       xlink:href="#linearGradient2867-449-88-871-390-598-476-591-434-148-905-902-285-933"
       gradientUnits="userSpaceOnUse"
       gradientTransform="matrix(0,1.7703635,-1.4881952,0,30.166509,-32.859046)" />
    <linearGradient
       id="linearGradient4593-546-445-547-865-203">
      <stop
         id="stop4164"
         style="stop-color:#ffffff;stop-opacity:0.70200002"
         offset="0" />
      <stop
         id="stop4166"
         style="stop-color:#ffffff;stop-opacity:0"
         offset="1" />
    </linearGradient>
    <radialGradient
       cx="24.016491"
       cy="2.2461414"
       r="21.995602"
       fx="24.016491"
       fy="2.2461414"
       id="radialGradient2894-287-430-321"
       xlink:href="#linearGradient4593-546-445-547-865-203"
       gradientUnits="userSpaceOnUse"
       gradientTransform="matrix(-1.4868718e-8,1.4132436,-1.2268499,-1.2907672e-8,26.77217,-29.044021)" />
    <linearGradient
       id="linearGradient3725-941-985-508-595-572-135-693">
      <stop
         id="stop4418"
         style="stop-color:#ffffff;stop-opacity:1"
         offset="0" />
      <stop
         id="stop4420"
         style="stop-color:#ededed;stop-opacity:0"
         offset="1" />
    </linearGradient>
    <radialGradient
       cx="90.746872"
       cy="32.164093"
       r="23"
       fx="90.746872"
       fy="32.164093"
       id="radialGradient2889-180-16-11-858-197"
       xlink:href="#linearGradient3725-941-985-508-595-572-135-693"
       gradientUnits="userSpaceOnUse"
       gradientTransform="matrix(0.3272962,-0.2273058,0.1206218,0.1736826,-25.123657,54.138634)" />
    <linearGradient
       id="linearGradient5108">
      <stop
         id="stop5110"
         style="stop-color:#ffed8c;stop-opacity:1"
         offset="0" />
      <stop
         id="stop5112"
         style="stop-color:#fb9858;stop-opacity:1"
         offset="0.60000002" />
      <stop
         id="stop5114"
         style="stop-color:#dc572a;stop-opacity:1"
         offset="1" />
    </linearGradient>
    <radialGradient
       cx="23.187857"
       cy="10.205709"
       r="11.171996"
       fx="23.187857"
       fy="10.205709"
       id="radialGradient5106"
       xlink:href="#linearGradient5108"
       gradientUnits="userSpaceOnUse"
       gradientTransform="matrix(7.4497636e-8,2.7894857,-2.4028247,6.4171241e-8,48.589869,-60.87999)" />
  </defs>
  <g
     id="layer1">
    <path
       d="M 46.999997,40 C 46.999997,44.418278 36.702545,48 23.999997,48 C 11.297449,48 0.9999968,44.418278 0.9999968,40 C 0.9999968,35.581722 11.297449,32 23.999997,32 C 36.702545,32 46.999997,35.581722 46.999997,40 L 46.999997,40 z"
       id="path8836"
       style="opacity:0.3;fill:url(#radialGradient2902-873-655-58);fill-opacity:1;fill-rule:evenodd;stroke:none;stroke-width:0.99999988;marker:none;visibility:visible;display:inline;overflow:visible" />
    <path
       d="M 20.81268,3.7833432 C 9.2946995,5.4814553 0.77209309,13.417302 1.546465,22.009721 C 2.047904,27.573663 6.3183954,32.153264 12.425366,34.569524 L 9.8762321,44.502374 L 21.153414,36.346458 L 21.231374,36.339358 C 22.62306,36.405878 24.021203,36.427928 25.472077,36.295558 C 37.852856,35.166003 47.265956,26.927679 46.453494,17.912686 C 45.641037,8.8976905 34.908657,2.4973151 22.527879,3.6268593 C 21.947531,3.6798066 21.37914,3.6998293 20.81268,3.7833432 z"
       id="path6145"
       style="fill:url(#radialGradient2897-479-547-107-90);fill-opacity:1;fill-rule:evenodd;stroke:url(#linearGradient2899-145-663-74-244);stroke-width:0.99525028;stroke-linecap:butt;stroke-linejoin:round;marker:none;stroke-miterlimit:4;stroke-dasharray:none;stroke-dashoffset:0;stroke-opacity:1;visibility:visible;display:inline;overflow:visible" />
    <path
       d="M 21.094648,4.7623218 C 10.865769,6.2520739 1.8465467,12.882583 2.5579487,21.860582 C 3.035775,27.890821 7.7403327,31.982834 13.574223,33.88514 L 11.613929,41.942831 L 20.771524,35.358971 C 22.006768,35.412641 23.907296,35.508351 25.19558,35.390821 C 34.936452,34.502119 46.288627,27.267434 45.472921,18.272449 C 44.603792,8.7463941 33.258184,3.6525973 22.617637,4.6233737 C 22.102327,4.6703877 21.597707,4.6890567 21.094648,4.7623218 L 21.094648,4.7623218 z"
       id="path6179"
       style="opacity:0.4;fill:none;stroke:url(#radialGradient2894-287-430-321);stroke-width:0.99525028;stroke-linecap:butt;stroke-linejoin:miter;marker:none;stroke-miterlimit:4;stroke-dasharray:none;stroke-dashoffset:0;stroke-opacity:1;visibility:visible;display:inline;overflow:visible" />
    <path
       d="M 17.063209,9.759968 L 14,14.014667 L 21.513045,19.42375 L 16.10396,26.936792 L 20.358659,30 L 25.767742,22.486957 L 33.280786,27.896039 L 36.343993,23.641342 L 28.830951,18.23226 L 34.240033,10.719216 L 29.985336,7.6560066 L 24.576252,15.169051 L 17.063209,9.759968 z"
       id="path5116"
       style="opacity:1;fill:#ca6006;fill-opacity:1;fill-rule:evenodd;stroke:none" />
    <path
       d="M 1.96875,21.96875 C 2.4515402,27.325766 6.6005923,31.785021 12.59375,34.15625 C 12.809364,34.235579 12.930603,34.464586 12.875,34.6875 L 10.625,43.40625 L 20.90625,35.96875 C 20.981709,35.923992 21.068606,35.902268 21.15625,35.90625 C 21.187502,35.906129 21.218756,35.90625 21.25,35.90625 C 55.909586,29.296364 33.391698,-13.160792 1.96875,21.96875 z"
       id="path3845"
       style="fill:url(#radialGradient2889-180-16-11-858-197);fill-opacity:1;fill-rule:evenodd;stroke:none;stroke-width:0.99525028;marker:none;visibility:visible;display:inline;overflow:visible" />
    <path
       d="M 17.063209,11.759968 L 14,16.014667 L 21.513045,21.42375 L 16.10396,28.936792 L 20.358659,32 L 25.767742,24.486957 L 33.280786,29.896039 L 36.343993,25.641342 L 28.830951,20.23226 L 34.240033,12.719216 L 29.985336,9.6560066 L 24.576252,17.169051 L 17.063209,11.759968 z"
       id="path5120"
       style="opacity:0.4;fill:#ffffff;fill-opacity:1;fill-rule:evenodd;stroke:none" />
    <path
       d="M 17.063209,10.759968 L 14,15.014667 L 21.513045,20.42375 L 16.10396,27.936792 L 20.358659,31 L 25.767742,23.486957 L 33.280786,28.896039 L 36.343993,24.641342 L 28.830951,19.23226 L 34.240033,11.719216 L 29.985336,8.6560066 L 24.576252,16.169051 L 17.063209,10.759968 z"
       id="path5098"
       style="fill:url(#radialGradient5106);fill-opacity:1;fill-rule:evenodd;stroke:none" />
  </g>
</svg>
