<?xml version="1.0" encoding="UTF-8" standalone="no"?>
<!-- Created with Inkscape (http://www.inkscape.org/) -->

<svg
   xmlns:dc="http://purl.org/dc/elements/1.1/"
   xmlns:cc="http://creativecommons.org/ns#"
   xmlns:rdf="http://www.w3.org/1999/02/22-rdf-syntax-ns#"
   xmlns:svg="http://www.w3.org/2000/svg"
   xmlns="http://www.w3.org/2000/svg"
   xmlns:xlink="http://www.w3.org/1999/xlink"
   xmlns:sodipodi="http://sodipodi.sourceforge.net/DTD/sodipodi-0.dtd"
   xmlns:inkscape="http://www.inkscape.org/namespaces/inkscape"
   width="48px"
   height="48px"
   id="svg4228"
   version="1.1"
   inkscape:version="0.48.0 r9654"
   sodipodi:docname="facebook.svg">
  <defs
     id="defs4230">
    <linearGradient
       inkscape:collect="always"
       xlink:href="#linearGradient3707-319-631-407-324-41-523-319-700-849-809-394-658-263"
       id="linearGradient4019"
       gradientUnits="userSpaceOnUse"
       x1="25"
       y1="45"
       x2="25"
       y2="6" />
    <linearGradient
       id="linearGradient3707-319-631-407-324-41-523-319-700-849-809-394-658-263">
      <stop
         offset="0"
         style="stop-color:#13315d;stop-opacity:1;"
         id="stop6695" />
      <stop
         offset="1"
         style="stop-color:#404e90;stop-opacity:1;"
         id="stop6697" />
    </linearGradient>
    <linearGradient
       y2="43"
       x2="23.99999"
       y1="4.999989"
       x1="23.99999"
       gradientTransform="translate(3.7e-6,1.00001)"
       gradientUnits="userSpaceOnUse"
       id="linearGradient2959"
       xlink:href="#linearGradient3924"
       inkscape:collect="always" />
    <linearGradient
       id="linearGradient3924">
      <stop
         id="stop3926"
         style="stop-color:#ffffff;stop-opacity:1;"
         offset="0" />
      <stop
         offset="0.06316455"
         style="stop-color:#ffffff;stop-opacity:0.23529412;"
         id="stop3928" />
      <stop
         id="stop3930"
         style="stop-color:#ffffff;stop-opacity:0.15686275;"
         offset="0.95056331" />
      <stop
         id="stop3932"
         style="stop-color:#ffffff;stop-opacity:0.39215687;"
         offset="1" />
    </linearGradient>
    <linearGradient
       inkscape:collect="always"
       xlink:href="#linearGradient3707-319-631-407-324-41-523-319-700-849-809-394-658-263-8"
       id="linearGradient4013"
       gradientUnits="userSpaceOnUse"
       x1="25"
       y1="45"
       x2="25"
       y2="6" />
    <linearGradient
       id="linearGradient3707-319-631-407-324-41-523-319-700-849-809-394-658-263-8">
      <stop
         offset="0"
         style="stop-color:#13315d;stop-opacity:1;"
         id="stop6695-4" />
      <stop
         offset="1"
         style="stop-color:#404e90;stop-opacity:1;"
         id="stop6697-2" />
    </linearGradient>
    <linearGradient
       inkscape:collect="always"
       xlink:href="#linearGradient3707-319-631-407-324-41-523-319-700-849-809-394-658-263-7"
       id="linearGradient4016"
       gradientUnits="userSpaceOnUse"
       x1="25"
       y1="45"
       x2="25"
       y2="6" />
    <linearGradient
       id="linearGradient3707-319-631-407-324-41-523-319-700-849-809-394-658-263-7">
      <stop
         offset="0"
         style="stop-color:#13315d;stop-opacity:1;"
         id="stop6695-0" />
      <stop
         offset="1"
         style="stop-color:#404e90;stop-opacity:1;"
         id="stop6697-6" />
    </linearGradient>
    <radialGradient
       inkscape:collect="always"
       xlink:href="#linearGradient2867-449-88-871-390-598-476-591-434-148-57-177-55-47-104-185-932-323-597-112-181"
       id="radialGradient2874-8-294-836-962-955-927-928-503-91"
       gradientUnits="userSpaceOnUse"
       gradientTransform="matrix(1.9428467e-8,2.33699,-2.4722567,-4.3056275e-8,44.890104,-11.434799)"
       cx="7.4956832"
       cy="8.4497671"
       fx="7.4956832"
       fy="8.4497671"
       r="19.99999" />
    <linearGradient
       id="linearGradient2867-449-88-871-390-598-476-591-434-148-57-177-55-47-104-185-932-323-597-112-181">
      <stop
         offset="0"
         style="stop-color:#819bd8;stop-opacity:1"
         id="stop6685" />
      <stop
         offset="0.26238"
         style="stop-color:#6282cd;stop-opacity:1;"
         id="stop6687" />
      <stop
         offset="0.704952"
         style="stop-color:#365baf;stop-opacity:1"
         id="stop6689" />
      <stop
         offset="1"
         style="stop-color:#253e79;stop-opacity:1;"
         id="stop6691" />
    </linearGradient>
    <linearGradient
       inkscape:collect="always"
       xlink:href="#linearGradient3707-319-631-407-324-41-523-319-700-849-809-394-658-263"
       id="linearGradient2876-727-161-532-369-556-351-512-535-128"
       gradientUnits="userSpaceOnUse"
       gradientTransform="translate(1.2e-6,1)"
       x1="24"
       y1="44"
       x2="24"
       y2="3.8990016" />
    <radialGradient
       r="2.5"
       fy="43.5"
       fx="4.9929786"
       cy="43.5"
       cx="4.9929786"
       gradientTransform="matrix(2.003784,0,0,1.4,27.98813,-17.4)"
       gradientUnits="userSpaceOnUse"
       id="radialGradient3013"
       xlink:href="#linearGradient3688-166-749"
       inkscape:collect="always" />
    <linearGradient
       id="linearGradient3688-166-749">
      <stop
         id="stop2883"
         style="stop-color:#181818;stop-opacity:1"
         offset="0" />
      <stop
         id="stop2885"
         style="stop-color:#181818;stop-opacity:0"
         offset="1" />
    </linearGradient>
    <radialGradient
       r="2.5"
       fy="43.5"
       fx="4.9929786"
       cy="43.5"
       cx="4.9929786"
       gradientTransform="matrix(2.003784,0,0,1.4,-20.01187,-104.4)"
       gradientUnits="userSpaceOnUse"
       id="radialGradient3015"
       xlink:href="#linearGradient3688-464-309"
       inkscape:collect="always" />
    <linearGradient
       id="linearGradient3688-464-309">
      <stop
         id="stop2889"
         style="stop-color:#181818;stop-opacity:1"
         offset="0" />
      <stop
         id="stop2891"
         style="stop-color:#181818;stop-opacity:0"
         offset="1" />
    </linearGradient>
    <linearGradient
       id="linearGradient3702-501-757">
      <stop
         id="stop2895"
         style="stop-color:#181818;stop-opacity:0"
         offset="0" />
      <stop
         id="stop2897"
         style="stop-color:#181818;stop-opacity:1"
         offset="0.5" />
      <stop
         id="stop2899"
         style="stop-color:#181818;stop-opacity:0"
         offset="1" />
    </linearGradient>
    <linearGradient
       y2="39.999443"
       x2="25.058096"
       y1="47.027729"
       x1="25.058096"
       gradientUnits="userSpaceOnUse"
       id="linearGradient4226"
       xlink:href="#linearGradient3702-501-757"
       inkscape:collect="always" />
  </defs>
  <sodipodi:namedview
     id="base"
     pagecolor="#ffffff"
     bordercolor="#666666"
     borderopacity="1.0"
     inkscape:pageopacity="0.0"
     inkscape:pageshadow="2"
     inkscape:zoom="7"
     inkscape:cx="24"
     inkscape:cy="24"
     inkscape:current-layer="layer1"
     showgrid="true"
     inkscape:grid-bbox="true"
     inkscape:document-units="px"
     inkscape:window-width="447"
     inkscape:window-height="450"
     inkscape:window-x="0"
     inkscape:window-y="24"
     inkscape:window-maximized="0" />
  <metadata
     id="metadata4233">
    <rdf:RDF>
      <cc:Work
         rdf:about="">
        <dc:format>image/svg+xml</dc:format>
        <dc:type
           rdf:resource="http://purl.org/dc/dcmitype/StillImage" />
        <dc:title></dc:title>
      </cc:Work>
    </rdf:RDF>
  </metadata>
  <g
     id="layer1"
     inkscape:label="Layer 1"
     inkscape:groupmode="layer">
    <g
       transform="matrix(1.1578952,0,0,0.57142859,-3.789484,19.142856)"
       id="g3712"
       style="opacity:0.4">
      <rect
         width="5"
         height="7"
         x="38"
         y="40"
         id="rect2801"
         style="fill:url(#radialGradient3013);fill-opacity:1;stroke:none" />
      <rect
         width="5"
         height="7"
         x="-10"
         y="-47"
         transform="scale(-1,-1)"
         id="rect3696"
         style="fill:url(#radialGradient3015);fill-opacity:1;stroke:none" />
      <rect
         width="28"
         height="7.0000005"
         x="10"
         y="40"
         id="rect3700"
         style="fill:url(#linearGradient4226);fill-opacity:1;stroke:none" />
    </g>
    <rect
       width="39"
       height="39"
       rx="2"
       ry="2"
       x="4.5"
       y="5.5"
       id="rect5505-21"
       style="color:#000000;fill:url(#radialGradient2874-8-294-836-962-955-927-928-503-91);fill-opacity:1;fill-rule:nonzero;stroke:url(#linearGradient2876-727-161-532-369-556-351-512-535-128);stroke-width:1;stroke-linecap:round;stroke-linejoin:round;stroke-miterlimit:4;stroke-opacity:1;stroke-dasharray:none;stroke-dashoffset:0;marker:none;visibility:visible;display:inline;overflow:visible;enable-background:accumulate" />
    <path
       inkscape:connector-curvature="0"
       style="opacity:0.3;color:#000000;fill:#ffffff;fill-opacity:1;fill-rule:nonzero;stroke:none;stroke-width:1;marker:none;visibility:visible;display:inline;overflow:visible;enable-background:accumulate"
       d="M 5,36 5,37.5 5,41.0625 5,42.5 C 5,43.331 5.669,44 6.5,44 l 35,0 C 42.331,44 43,43.331 43,42.5 L 43,41.0625 43,37.5 43,36 41.5,36 6.5,36 5,36 z"
       id="rect7275" />
    <path
       inkscape:connector-curvature="0"
       style="opacity:0.1;color:#000000;fill:url(#linearGradient4016);fill-opacity:1;fill-rule:nonzero;stroke:none;stroke-width:0.98542738;marker:none;visibility:visible;display:inline;overflow:visible;enable-background:accumulate"
       d="m 31.3125,7.03125 c -3.503276,0.2109262 -6.858633,2.6957033 -7.65625,6.1875 -0.435841,1.562362 -0.527932,3.198319 -0.5625,4.8125 -1.228398,0.01375 -2.707295,-0.217027 -3.53125,0.9375 -0.848758,1.151084 -0.429762,2.642 -0.53125,3.96875 0.08314,1.24856 -0.224122,2.579472 0.3125,3.75 0.613202,1.252628 2.062382,1.353884 3.28125,1.28125 0.64951,-0.102408 0.21001,0.895983 0.34375,1.3125 0.03706,4.771331 0.03672,9.541773 0.09375,14.3125 0.04057,0.566892 0.293871,1.035325 0.65625,1.40625 l 8.5625,0 c 0.524936,-0.602858 0.760781,-1.47051 0.65625,-2.28125 l 0.03125,-14.75 c 1.419615,-0.05182 2.848309,0.106763 4.25,-0.125 1.369802,-0.373691 1.898641,-1.840512 1.75,-3.125 C 38.93941,23.150376 39.01974,21.562955 38.90625,20 38.664067,18.600048 37.196861,17.858019 35.875,18.03125 l -2.6875,0 c 0.322805,-0.794823 -0.380406,-1.421986 0.34375,-1.15625 1.564383,-0.104353 3.496485,0.622495 4.75,-0.65625 1.049998,-1.105122 0.586296,-2.694703 0.6875,-4.0625 C 38.88322,10.878874 39.196908,9.5116785 38.65625,8.3125 38.043048,7.0598724 36.593868,6.9586164 35.375,7.03125 l -3.375,0 c -0.234375,-0.00647 -0.453948,-0.014062 -0.6875,0 z"
       id="path3957-2" />
    <path
       inkscape:connector-curvature="0"
       style="opacity:0.05;color:#000000;fill:url(#linearGradient4013);fill-opacity:1;fill-rule:nonzero;stroke:none;stroke-width:0.98542738;marker:none;visibility:visible;display:inline;overflow:visible;enable-background:accumulate"
       d="M 36.71875,5.90625 C 36.462041,5.88279 36.197232,5.90256 35.9375,5.9375 l -3.9375,0 c -4.354123,-0.055502 -8.666868,3.0763716 -9.5,7.4375 -0.679903,0.973302 0.25431,3.443386 -1,3.5625 -2.16002,-0.07789 -3.842013,2.047144 -3.5625,4.125 0.03335,1.714819 -0.07931,3.448076 0.0625,5.15625 0.309133,1.793067 2.127143,3.029504 3.90625,2.84375 0.03313,4.88872 0.03083,9.768413 0.09375,14.65625 0.0343,0.465863 0.167392,0.896603 0.375,1.28125 l 11.1875,0 c 0.370865,-0.703157 0.565192,-1.512815 0.46875,-2.3125 0.0099,-4.54313 0.02131,-9.081869 0.03125,-13.625 1.704168,-0.06605 3.701934,0.358673 5,-1.0625 1.432472,-1.414185 0.900627,-3.486368 1,-5.28125 -0.04227,-1.631827 0.312188,-3.527231 -1.0625,-4.75 -1.40941,-0.689587 1.327466,-1.505134 1,-2.75 C 40.163782,13.3172 40.02233,11.409687 40.0625,9.5 40.130654,7.6099826 38.515711,6.0704736 36.71875,5.90625 z"
       id="path3957-4" />
    <rect
       width="37"
       height="37"
       rx="1"
       ry="1"
       x="5.5"
       y="6.5"
       id="rect6741"
       style="opacity:0.5;fill:none;stroke:url(#linearGradient2959);stroke-width:1;stroke-linecap:round;stroke-linejoin:round;stroke-miterlimit:4;stroke-opacity:1;stroke-dasharray:none;stroke-dashoffset:0" />
    <path
       style="opacity:0.25;color:#000000;fill:url(#linearGradient4019);fill-opacity:1;fill-rule:nonzero;stroke:none;stroke-width:0.98542738;marker:none;visibility:visible;display:inline;overflow:visible;enable-background:accumulate"
       d="M 32,8 C 28.887592,7.8785314 25.715436,9.8038023 24.795477,12.854419 24.119073,14.826284 24.048832,16.935052 24.03125,19 22.993922,19.05646 21.921985,18.871677 20.911525,19.124966 19.835719,19.549685 19.993088,20.797542 20,21.730169 c 0.0405,1.403783 -0.08551,2.824651 0.07176,4.216624 0.27381,0.994176 1.379,1.135044 2.248355,1.053207 0.539129,0 1.078258,0 1.617387,0 0.03694,5.498188 0.05228,10.997078 0.102712,16.494828 0.07701,1.022367 1.157371,1.490439 2.065117,1.348922 1.553952,-0.02127 3.113598,0.04302 4.663928,-0.03296 0.994145,-0.172974 1.315411,-1.246348 1.200747,-2.123128 0.01,-5.22922 0.02,-10.458441 0.03,-15.687661 1.599522,-0.02061 3.204589,0.0421 4.800507,-0.03296 C 37.794262,26.794064 38.116952,25.720692 38,24.84391 37.97957,23.296406 38.04184,21.743397 37.96704,20.199493 37.794064,19.205738 36.720692,18.883048 35.84391,19 34.604273,19 33.364637,19 32.125,19 32.04385,17.523146 32.233733,15.248656 34.328379,15.92584 35.433925,15.864 36.853918,16.408041 37.68066,15.416149 38.242439,14.565851 37.909883,13.49058 38,12.53173 37.961751,11.37379 38.08228,10.199419 37.928242,9.0532074 37.654432,8.0590312 36.549242,7.9181628 35.679887,8 34.453258,8 33.226629,8 32,8 z"
       id="path3957"
       inkscape:connector-curvature="0" />
    <path
       style="color:#000000;fill:#f7f7f7;fill-opacity:1;fill-rule:nonzero;stroke:#ffffff;stroke-width:0.98542738;stroke-linecap:butt;stroke-linejoin:miter;stroke-miterlimit:4;stroke-opacity:1;stroke-dasharray:none;stroke-dashoffset:0;marker:none;visibility:visible;display:inline;overflow:visible;enable-background:accumulate"
       d="m 25.531745,43.340179 4.93677,0 0.03148,-17.839955 6,0 0,-5 -6,0 c 0,-7.370926 1.837075,-6 6,-6 L 36.5,9.5 32,9.5 c -6.439188,0 -6.499745,5.726425 -6.499745,11.000224 l -4,0 0,5 3.93703,0 z"
       id="path7296"
       inkscape:connector-curvature="0"
       sodipodi:nodetypes="cccccccccccccc" />
  </g>
</svg>
