<?xml version="1.0" encoding="UTF-8" standalone="no"?>
<!-- Created with Inkscape (http://www.inkscape.org/) -->

<svg
   xmlns:svg="http://www.w3.org/2000/svg"
   xmlns="http://www.w3.org/2000/svg"
   xmlns:xlink="http://www.w3.org/1999/xlink"
   version="1.0"
   width="22"
   height="22"
   id="svg2449">
  <defs
     id="defs2451">
    <linearGradient
       id="linearGradient8838">
      <stop
         id="stop8840"
         style="stop-color:black;stop-opacity:1"
         offset="0" />
      <stop
         id="stop8842"
         style="stop-color:black;stop-opacity:0"
         offset="1" />
    </linearGradient>
    <linearGradient
       id="linearGradient3533">
      <stop
         id="stop3535"
         style="stop-color:#93b9dd;stop-opacity:1"
         offset="0" />
      <stop
         id="stop3545"
         style="stop-color:#6396cd;stop-opacity:1"
         offset="1" />
    </linearGradient>
    <linearGradient
       id="linearGradient3266">
      <stop
         id="stop3268"
         style="stop-color:#538ec6;stop-opacity:1"
         offset="0" />
      <stop
         id="stop3270"
         style="stop-color:#3f84c5;stop-opacity:0"
         offset="1" />
    </linearGradient>
    <linearGradient
       id="linearGradient3276">
      <stop
         id="stop3278"
         style="stop-color:#6396cd;stop-opacity:1"
         offset="0" />
      <stop
         id="stop3280"
         style="stop-color:#83acd5;stop-opacity:0"
         offset="1" />
    </linearGradient>
    <linearGradient
       id="linearGradient4873">
      <stop
         id="stop4875"
         style="stop-color:white;stop-opacity:1"
         offset="0" />
      <stop
         id="stop4877"
         style="stop-color:white;stop-opacity:0"
         offset="1" />
    </linearGradient>
    <linearGradient
       x1="21.55312"
       y1="2.7147875"
       x2="21.55312"
       y2="34.085072"
       id="linearGradient2849"
       xlink:href="#linearGradient4873"
       gradientUnits="userSpaceOnUse"
       gradientTransform="matrix(0.4873978,0,0,0.4781595,-0.5049435,-0.2981014)" />
    <linearGradient
       x1="31.226292"
       y1="34.600941"
       x2="34.96563"
       y2="26.842505"
       id="linearGradient2852"
       xlink:href="#linearGradient3276"
       gradientUnits="userSpaceOnUse"
       gradientTransform="matrix(0.5107033,0,0,0.5010232,-0.6510026,-1.7483806)" />
    <linearGradient
       x1="33.686768"
       y1="35.773647"
       x2="37.039948"
       y2="29.856804"
       id="linearGradient2854"
       xlink:href="#linearGradient3266"
       gradientUnits="userSpaceOnUse"
       gradientTransform="matrix(0.5107033,0,0,0.5010232,-0.6510026,-1.7483806)" />
    <linearGradient
       x1="15.372947"
       y1="5.0471625"
       x2="15.372947"
       y2="22.599676"
       id="linearGradient2857"
       xlink:href="#linearGradient3533"
       gradientUnits="userSpaceOnUse"
       gradientTransform="matrix(0.4873978,0,0,0.4781595,-0.5049435,-0.2981014)" />
    <radialGradient
       cx="62.625"
       cy="4.625"
       r="10.625"
       fx="62.625"
       fy="4.625"
       id="radialGradient2860"
       xlink:href="#linearGradient8838"
       gradientUnits="userSpaceOnUse"
       gradientTransform="matrix(1.0352941,0,0,0.44034785,-53.835293,15.285873)" />
  </defs>
  <path
     d="m 22,17.322485 a 11,4.6787023 0 0 1 -21.9999998,0 11,4.6787023 0 1 1 21.9999998,0 z"
     id="path8836"
     style="opacity:0.56043958;fill:url(#radialGradient2860);fill-opacity:1;fill-rule:evenodd;stroke:none;stroke-width:0.99999988;marker:none;visibility:visible;display:inline;overflow:visible" />
  <path
     d="m 11.5,15.001187 c -2.4998681,-0.02699 -4.4999971,-2.165375 -4.4999971,-4.60715 0,-2.1013772 2.358504,-4.3928502 4.6453891,-4.3928502 1.207326,0 2.376964,0.271709 3.244024,1.0922818 l -2.389413,2.4077182 9,0 c 0,0 0,-9 0,-9 L 18.664607,3.3167283 C 16.770803,1.4910029 14.581664,0.534357 11.786649,0.5041758 6.1007043,0.4427779 1.565887,4.9868219 1.5030239,10.540276 1.4401609,16.093731 5.8140535,20.437415 11.5,20.498813"
     id="path3372"
     style="fill:url(#linearGradient2857);fill-opacity:1;stroke:#538ec6;stroke-width:1.00474763;stroke-linecap:butt;stroke-linejoin:round;stroke-miterlimit:4;stroke-opacity:1;stroke-dasharray:none" />
  <path
     d="m 11.4,20.497883 c 4.754708,0.05134 10.212048,-3.552802 10.203492,-9.782868 l -5.035091,-0.03845 c -0.0927,2.541424 -2.910878,4.419262 -5.168401,4.324624"
     id="path3453"
     style="fill:url(#linearGradient2852);fill-opacity:1;stroke:url(#linearGradient2854);stroke-width:1.00474763;stroke-linecap:butt;stroke-linejoin:miter;stroke-miterlimit:4;stroke-opacity:1;stroke-dasharray:none" />
  <path
     d="M 11.396704,16.001187 C 8.6270808,15.961463 6.002916,13.586174 6.0000029,10.438978 5.9975168,7.7352648 8.9037897,4.9614627 11.673413,5.0011868 c 1.365148,0.01958 3.04821,0.2516992 4.758717,1.8613524 l -1.567176,1.6386476 5.635049,0 c 0,0 0,-5.6224624 0,-5.6224624 l -2.01975,1.7920482 C 16.67133,2.6912802 14.531432,1.5011868 11.701794,1.5011868 c -5.1994522,0 -9.2017911,4.2944143 -9.2017911,9.0925902 0,5.685767 4.6931282,8.90741 9.1504111,8.90741"
     id="path3370"
     style="opacity:0.4;fill:none;stroke:url(#linearGradient2849);stroke-width:1.00474763;stroke-linecap:butt;stroke-linejoin:miter;stroke-miterlimit:4;stroke-opacity:1;stroke-dasharray:none" />
  <rect
     width="1"
     height="4.484375"
     x="11"
     y="15.515625"
     id="rect2840"
     style="fill:#6396cd;fill-opacity:1;stroke:none" />
  <rect
     width="1"
     height="1"
     rx="0.5"
     ry="0.5"
     x="11"
     y="20"
     id="rect3635"
     style="fill:#538ec6;fill-opacity:1;stroke:none" />
  <rect
     width="1"
     height="1"
     rx="0.5"
     ry="0.5"
     x="11"
     y="14.5"
     id="rect3637"
     style="fill:#538ec6;fill-opacity:1;stroke:none" />
</svg>
