<?xml version="1.0" encoding="UTF-8" standalone="no"?>
<!-- Created with Inkscape (http://www.inkscape.org/) -->

<svg
   xmlns:svg="http://www.w3.org/2000/svg"
   xmlns="http://www.w3.org/2000/svg"
   xmlns:xlink="http://www.w3.org/1999/xlink"
   version="1.0"
   width="22"
   height="22"
   id="svg4375">
  <defs
     id="defs4377">
    <linearGradient
       id="linearGradient5060">
      <stop
         id="stop5062"
         style="stop-color:#000000;stop-opacity:1"
         offset="0" />
      <stop
         id="stop5064"
         style="stop-color:#000000;stop-opacity:0"
         offset="1" />
    </linearGradient>
    <linearGradient
       id="linearGradient5048">
      <stop
         id="stop5050"
         style="stop-color:#000000;stop-opacity:0"
         offset="0" />
      <stop
         id="stop5056"
         style="stop-color:#000000;stop-opacity:1"
         offset="0.5" />
      <stop
         id="stop5052"
         style="stop-color:#000000;stop-opacity:0"
         offset="1" />
    </linearGradient>
    <linearGradient
       id="linearGradient2264">
      <stop
         id="stop2266"
         style="stop-color:#d7e866;stop-opacity:1"
         offset="0" />
      <stop
         id="stop2268"
         style="stop-color:#8cab2a;stop-opacity:1"
         offset="1" />
    </linearGradient>
    <linearGradient
       x1="24.103895"
       y1="15.168831"
       x2="24.103895"
       y2="32.485161"
       id="linearGradient4381"
       xlink:href="#linearGradient2264"
       gradientUnits="userSpaceOnUse"
       gradientTransform="matrix(0.4691323,0,0,0.4663025,5.7004791,7.808471)" />
    <linearGradient
       id="linearGradient4222">
      <stop
         id="stop4224"
         style="stop-color:#ffffff;stop-opacity:1"
         offset="0" />
      <stop
         id="stop4226"
         style="stop-color:#ffffff;stop-opacity:0"
         offset="1" />
    </linearGradient>
    <linearGradient
       x1="24.138529"
       y1="8.6973467"
       x2="24.138529"
       y2="47.272728"
       id="linearGradient4378"
       xlink:href="#linearGradient4222"
       gradientUnits="userSpaceOnUse"
       gradientTransform="matrix(0.2817955,0,0,0.2800956,10.196562,12.014894)" />
    <linearGradient
       x1="302.85715"
       y1="366.64789"
       x2="302.85715"
       y2="609.50507"
       id="linearGradient5515"
       xlink:href="#linearGradient5048"
       gradientUnits="userSpaceOnUse"
       gradientTransform="matrix(0.03104752,0,0,0.01366805,0.7785389,15.669255)" />
    <radialGradient
       cx="605.71429"
       cy="486.64789"
       r="117.14286"
       fx="605.71429"
       fy="486.64789"
       id="radialGradient5517"
       xlink:href="#linearGradient5060"
       gradientUnits="userSpaceOnUse"
       gradientTransform="matrix(0.03104752,0,0,0.01366805,0.7846491,15.669255)" />
    <radialGradient
       cx="605.71429"
       cy="486.64789"
       r="117.14286"
       fx="605.71429"
       fy="486.64789"
       id="radialGradient5519"
       xlink:href="#linearGradient5060"
       gradientUnits="userSpaceOnUse"
       gradientTransform="matrix(-0.03104752,0,0,0.01366805,23.215356,15.669255)" />
    <linearGradient
       id="linearGradient3690">
      <stop
         id="stop3692"
         style="stop-color:#ffffff;stop-opacity:1"
         offset="0" />
      <stop
         id="stop3694"
         style="stop-color:#ffffff;stop-opacity:0.46875"
         offset="1" />
    </linearGradient>
    <linearGradient
       id="linearGradient2781">
      <stop
         id="stop2783"
         style="stop-color:#505050;stop-opacity:1"
         offset="0" />
      <stop
         id="stop6301"
         style="stop-color:#6e6e6e;stop-opacity:1"
         offset="0.13216467" />
      <stop
         id="stop2785"
         style="stop-color:#8c8c8c;stop-opacity:1"
         offset="1" />
    </linearGradient>
    <linearGradient
       id="linearGradient6457">
      <stop
         id="stop6459"
         style="stop-color:#ffffff;stop-opacity:0.94117647"
         offset="0" />
      <stop
         id="stop6461"
         style="stop-color:#ffffff;stop-opacity:0.70588237"
         offset="1" />
    </linearGradient>
    <linearGradient
       x1="24"
       y1="13"
       x2="24"
       y2="40"
       id="linearGradient5844"
       xlink:href="#linearGradient6457"
       gradientUnits="userSpaceOnUse"
       gradientTransform="matrix(0.5263158,0,0,0.4814815,-1.6315785,2.7407408)" />
    <linearGradient
       x1="16.033964"
       y1="9.0734701"
       x2="16.075121"
       y2="15.044087"
       id="linearGradient5847"
       xlink:href="#linearGradient3690"
       gradientUnits="userSpaceOnUse"
       gradientTransform="matrix(0.6129052,0,0,0.5862092,-4.3226315,-1.0690226)" />
    <linearGradient
       x1="21.866402"
       y1="8.5763302"
       x2="21.780495"
       y2="39.923653"
       id="linearGradient5850"
       xlink:href="#linearGradient2781"
       gradientUnits="userSpaceOnUse"
       gradientTransform="matrix(0.6363644,0,0,0.6229527,-4.909122,-2.1066008)" />
  </defs>
  <g
     transform="translate(0,-2)"
     id="layer1">
    <g
       id="g6652">
      <g
         transform="matrix(1.0562405,0,0,1.205043,-1.6748859,-4.921032)"
         id="g3217">
        <rect
           width="14.991517"
           height="3.3193836"
           x="4.504241"
           y="20.680616"
           id="rect4173"
           style="opacity:0.23613156;fill:url(#linearGradient5515);fill-opacity:1;fill-rule:nonzero;stroke:none;stroke-width:1;marker:none;visibility:visible;display:inline;overflow:visible" />
        <path
           d="m 19.495759,20.680731 c 0,0 0,3.3192 0,3.3192 1.598871,0.0062 3.865291,-0.743664 3.86529,-1.659813 0,-0.91615 -1.784219,-1.659387 -3.86529,-1.659387 z"
           id="path5058"
           style="opacity:0.23613156;fill:url(#radialGradient5517);fill-opacity:1;fill-rule:nonzero;stroke:none;stroke-width:1;marker:none;visibility:visible;display:inline;overflow:visible" />
        <path
           d="m 4.5042417,20.680731 c 0,0 0,3.3192 0,3.3192 -1.5988709,0.0062 -3.8652907,-0.743664 -3.8652907,-1.659813 0,-0.91615 1.784219,-1.659387 3.8652907,-1.659387 z"
           id="path5018"
           style="opacity:0.23613156;fill:url(#radialGradient5519);fill-opacity:1;fill-rule:nonzero;stroke:none;stroke-width:1;marker:none;visibility:visible;display:inline;overflow:visible" />
      </g>
      <rect
         width="21.00005"
         height="19.00005"
         rx="1"
         ry="1"
         x="0.49997529"
         y="3.4999752"
         id="rect1887"
         style="fill:url(#linearGradient5850);fill-opacity:1;stroke:#565853;stroke-width:0.99995029;stroke-miterlimit:4;stroke-opacity:1;stroke-dasharray:none" />
      <rect
         width="19.000065"
         height="17.000065"
         rx="0.5"
         ry="0.50000417"
         x="1.4999682"
         y="4.4999671"
         id="rect2779"
         style="opacity:0.2;fill:none;stroke:url(#linearGradient5847);stroke-width:0.99993587;stroke-miterlimit:4;stroke-opacity:1;stroke-dasharray:none" />
      <rect
         width="20"
         height="13"
         rx="0.50016552"
         ry="0.5"
         x="1.0000001"
         y="9"
         id="rect6287"
         style="fill:url(#linearGradient5844);fill-opacity:1;stroke:none" />
      <path
         d="M 20,6.0000004 C 20.000238,6.5522145 19.552453,7 19,7 18.447545,7 17.999759,6.5522145 18,6.0000004 17.999759,5.4477857 18.447545,5 19,5 c 0.552453,0 1.000238,0.4477857 1,1.0000004 l 0,0 z"
         id="path6293"
         style="fill:#ffc24c;fill-opacity:1;stroke:none" />
      <path
         d="m 14.5,16.500009 0,-3 4,0 0,3 3,0 0,4 -3,0 0,2.999991 -4,0 0,-2.999991 -2.989465,0 0,-4 2.989465,0 z"
         id="path2262"
         style="fill:url(#linearGradient4381);fill-opacity:1;fill-rule:evenodd;stroke:#699536;stroke-width:1;stroke-linecap:butt;stroke-linejoin:round;stroke-miterlimit:4;stroke-opacity:1;stroke-dasharray:none;display:inline" />
      <path
         d="m 15.5,17.500009 0,-3 2,0 0,3 3,0 0,2 -3,0 0,3 -2,0 0,-3 -3,0 0,-2 3,0 z"
         id="path2272"
         style="opacity:0.4;fill:none;stroke:url(#linearGradient4378);stroke-width:1;stroke-linecap:butt;stroke-linejoin:miter;stroke-miterlimit:4;stroke-opacity:1;stroke-dasharray:none;display:inline" />
      <path
         d="m 17,6 c 2.38e-4,0.5522141 -0.447547,0.9999996 -1,0.9999996 -0.552455,0 -1.000241,-0.4477855 -1,-0.9999996 -2.41e-4,-0.5522147 0.447545,-1.0000004 1,-1.0000004 0.552453,0 1.000238,0.4477857 1,1.0000004 l 0,0 z"
         id="path6622"
         style="fill:#ffc24c;fill-opacity:1;stroke:none" />
      <path
         d="m 14,6 c 2.38e-4,0.5522141 -0.447547,0.9999996 -1,0.9999996 -0.552455,0 -1.000241,-0.4477855 -1,-0.9999996 -2.41e-4,-0.5522147 0.447545,-1.0000004 1,-1.0000004 0.552453,0 1.000238,0.4477857 1,1.0000004 l 0,0 z"
         id="path6630"
         style="fill:#ffc24c;fill-opacity:1;stroke:none" />
    </g>
  </g>
</svg>
