<?xml version="1.0" encoding="UTF-8" standalone="no"?>
<!-- Created with Inkscape (http://www.inkscape.org/) -->
<svg
   xmlns:svg="http://www.w3.org/2000/svg"
   xmlns="http://www.w3.org/2000/svg"
   xmlns:xlink="http://www.w3.org/1999/xlink"
   version="1.0"
   width="22"
   height="22"
   id="svg2683">
  <defs
     id="defs2685">
    <linearGradient
       id="linearGradient2490-654-721">
      <stop
         id="stop2913"
         style="stop-color:#545454;stop-opacity:1"
         offset="0" />
      <stop
         id="stop2915"
         style="stop-color:#a4a4a4;stop-opacity:1"
         offset="1" />
    </linearGradient>
    <linearGradient
       id="linearGradient3242-52-665">
      <stop
         id="stop2903"
         style="stop-color:#d3d3d3;stop-opacity:1"
         offset="0" />
      <stop
         id="stop2905"
         style="stop-color:#b1b1b1;stop-opacity:1"
         offset="0.26238" />
      <stop
         id="stop2907"
         style="stop-color:#8e8e8e;stop-opacity:1"
         offset="0.66093999" />
      <stop
         id="stop2909"
         style="stop-color:#525252;stop-opacity:1"
         offset="1" />
    </linearGradient>
    <linearGradient
       id="linearGradient3308-4-6-931-761">
      <stop
         id="stop2919"
         style="stop-color:#ffffff;stop-opacity:1"
         offset="0" />
      <stop
         id="stop2921"
         style="stop-color:#ffffff;stop-opacity:0"
         offset="1" />
    </linearGradient>
    <linearGradient
       x1="23.99999"
       y1="4.999989"
       x2="23.99999"
       y2="43"
       id="linearGradient2420"
       xlink:href="#linearGradient3308-4-6-931-761"
       gradientUnits="userSpaceOnUse"
       gradientTransform="matrix(0.4594596,0,0,0.4594596,-2.70273e-2,-2.70342e-2)" />
    <radialGradient
       cx="7.4956832"
       cy="8.4497671"
       r="19.99999"
       fx="7.4956832"
       fy="8.4497671"
       id="radialGradient2423"
       xlink:href="#linearGradient3242-52-665"
       gradientUnits="userSpaceOnUse"
       gradientTransform="matrix(0,1.1203988,-1.4996384,-4.7276385e-8,23.671649,-6.6143555)" />
    <linearGradient
       x1="24"
       y1="44"
       x2="24"
       y2="3.8990016"
       id="linearGradient2425"
       xlink:href="#linearGradient2490-654-721"
       gradientUnits="userSpaceOnUse"
       gradientTransform="matrix(0.4871795,0,0,0.4871795,-0.6923077,-0.6923079)" />
  </defs>
  <rect
     width="19"
     height="19"
     rx="1.0874897"
     ry="1.0874897"
     x="1.5"
     y="1.5"
     id="rect5505"
     style="fill:url(#radialGradient2423);fill-opacity:1;stroke:url(#linearGradient2425);stroke-width:1;stroke-linecap:round;stroke-linejoin:round;stroke-miterlimit:4;stroke-dasharray:none;stroke-dashoffset:0;stroke-opacity:1" />
  <rect
     width="17"
     height="17.00001"
     rx="0.082179293"
     ry="0.082179293"
     x="2.4999998"
     y="2.499989"
     id="rect6741"
     style="opacity:0.4;fill:none;stroke:url(#linearGradient2420);stroke-width:0.99999976;stroke-linecap:round;stroke-linejoin:round;stroke-miterlimit:4;stroke-dasharray:none;stroke-dashoffset:0;stroke-opacity:1" />
  <path
     d="M 10.5,6.0000011 C 10.223,6.0000011 10,6.223001 10,6.500001 L 10,7.6250009 C 9.497297,7.7394701 9.032564,7.9358105 8.6093746,8.203126 L 7.8124997,7.406251 C 7.6166311,7.2103825 7.3052437,7.2103825 7.1093747,7.406251 L 6.4062498,8.109376 C 6.2103812,8.305244 6.2103812,8.616631 6.4062498,8.812501 L 7.2031247,9.609375 C 6.9358092,10.032564 6.7394693,10.497297 6.6249998,11 L 5.4999998,11 C 5.2229998,11 4.9999999,11.223 4.9999999,11.500001 L 4.9999999,12.500001 C 4.9999999,12.777 5.2229998,13 5.4999998,13 L 6.6249998,13 C 6.7394693,13.502703 6.9358092,13.967436 7.2031247,14.390625 L 6.4062498,15.1875 C 6.2103812,15.383369 6.2103812,15.694756 6.4062498,15.890625 L 7.1093747,16.59375 C 7.3052432,16.789618 7.6166307,16.78962 7.8124997,16.59375 L 8.6093746,15.796875 C 9.032564,16.064191 9.497297,16.26053 10,16.375 L 10,17.5 C 10,17.777 10.223,18 10.5,18 L 11.499999,18 C 11.777,18 12,17.777 12,17.5 L 12,16.375 C 12.502703,16.26053 12.967436,16.064191 13.390625,15.796875 L 14.187499,16.59375 C 14.383368,16.789618 14.694756,16.789618 14.890624,16.59375 L 15.59375,15.890625 C 15.789617,15.694757 15.789619,15.383368 15.59375,15.1875 L 14.796874,14.390625 C 15.064191,13.967436 15.26053,13.502703 15.375,13 L 16.499999,13 C 16.777,13 17,12.777 17,12.500001 L 17,11.500001 C 17,11.223 16.777,11 16.499999,11 L 15.375,11 C 15.26053,10.497297 15.064191,10.032564 14.796874,9.609375 L 15.59375,8.812501 C 15.789617,8.616632 15.789617,8.305245 15.59375,8.109376 L 14.890624,7.406251 C 14.694756,7.2103825 14.383368,7.2103825 14.187499,7.406251 L 13.390625,8.203126 C 12.967436,7.9358105 12.502703,7.7394701 12,7.6250009 L 12,6.500001 C 12,6.223001 11.777,6.0000011 11.499999,6.0000011 L 10.5,6.0000011 z M 11,10 C 12.103999,9.999999 13,10.896001 13,12 C 13,13.104 12.103999,14 11,14 C 9.896,14.000001 8.9999995,13.104 8.9999995,12 C 9.000001,10.896001 9.896,10 11,10 z"
     id="path3576"
     style="opacity:0.4;fill:#ffffff;fill-opacity:1;fill-rule:nonzero;stroke:none;stroke-width:1.70000005;stroke-linecap:butt;stroke-linejoin:miter;marker:none;marker-start:none;marker-mid:none;marker-end:none;stroke-miterlimit:4;stroke-dasharray:none;stroke-dashoffset:0;stroke-opacity:1;visibility:visible;display:inline;overflow:visible;enable-background:accumulate" />
  <path
     d="M 10.5,5.0000014 C 10.223,5.0000014 10,5.2230014 10,5.5000013 L 10,6.6250012 C 9.497297,6.7394707 9.032564,6.9358108 8.6093746,7.2031262 L 7.8124997,6.4062513 C 7.6166311,6.2103828 7.3052437,6.2103828 7.1093747,6.4062513 L 6.4062498,7.1093763 C 6.2103812,7.3052447 6.2103812,7.6166322 6.4062498,7.8125007 L 7.2031247,8.609376 C 6.9358092,9.032565 6.7394693,9.497297 6.6249998,10.000001 L 5.4999998,10.000001 C 5.2229998,10.000001 4.9999999,10.223001 4.9999999,10.500001 L 4.9999999,11.500001 C 4.9999999,11.777 5.2229998,12.000001 5.4999998,12.000001 L 6.6249998,12.000001 C 6.7394693,12.502704 6.9358092,12.967436 7.2031247,13.390625 L 6.4062498,14.187501 C 6.2103812,14.383369 6.2103812,14.694756 6.4062498,14.890626 L 7.1093747,15.59375 C 7.3052432,15.789619 7.6166307,15.789621 7.8124997,15.59375 L 8.6093746,14.796876 C 9.032564,15.064192 9.497297,15.26053 10,15.375 L 10,16.500001 C 10,16.777 10.223,17 10.5,17 L 11.499999,17 C 11.777,17 12,16.777 12,16.500001 L 12,15.375 C 12.502703,15.26053 12.967436,15.064192 13.390625,14.796876 L 14.187499,15.59375 C 14.383368,15.789619 14.694756,15.789619 14.890624,15.59375 L 15.59375,14.890626 C 15.789617,14.694757 15.789619,14.383369 15.59375,14.187501 L 14.796874,13.390625 C 15.064191,12.967436 15.26053,12.502704 15.375,12.000001 L 16.499999,12.000001 C 16.777,12.000001 17,11.777 17,11.500001 L 17,10.500001 C 17,10.223001 16.777,10.000001 16.499999,10.000001 L 15.375,10.000001 C 15.26053,9.497297 15.064191,9.032565 14.796874,8.609376 L 15.59375,7.8125007 C 15.789617,7.6166327 15.789617,7.3052452 15.59375,7.1093763 L 14.890624,6.4062513 C 14.694756,6.2103828 14.383368,6.2103828 14.187499,6.4062513 L 13.390625,7.2031262 C 12.967436,6.9358108 12.502703,6.7394707 12,6.6250012 L 12,5.5000013 C 12,5.2230014 11.777,5.0000014 11.499999,5.0000014 L 10.5,5.0000014 z M 11,9.000001 C 12.103999,9 13,9.896001 13,11.000001 C 13,12.104001 12.103999,13.000001 11,13.000001 C 9.896,13.000001 8.9999995,12.104001 8.9999995,11.000001 C 9.000001,9.896001 9.896,9.000001 11,9.000001 z"
     id="rect3557"
     style="fill:#6e6e6e;fill-opacity:1;fill-rule:nonzero;stroke:none;stroke-width:1.70000005;stroke-linecap:butt;stroke-linejoin:miter;marker:none;marker-start:none;marker-mid:none;marker-end:none;stroke-miterlimit:4;stroke-dasharray:none;stroke-dashoffset:0;stroke-opacity:1;visibility:visible;display:inline;overflow:visible;enable-background:accumulate" />
</svg>
