<?xml version="1.0" encoding="UTF-8" standalone="no"?>
<!-- Created with Inkscape (http://www.inkscape.org/) -->

<svg
   xmlns:dc="http://purl.org/dc/elements/1.1/"
   xmlns:cc="http://creativecommons.org/ns#"
   xmlns:rdf="http://www.w3.org/1999/02/22-rdf-syntax-ns#"
   xmlns:svg="http://www.w3.org/2000/svg"
   xmlns="http://www.w3.org/2000/svg"
   xmlns:xlink="http://www.w3.org/1999/xlink"
   xmlns:sodipodi="http://sodipodi.sourceforge.net/DTD/sodipodi-0.dtd"
   xmlns:inkscape="http://www.inkscape.org/namespaces/inkscape"
   width="16px"
   height="16px"
   id="svg5370"
   version="1.1"
   inkscape:version="0.48.0 r9654"
   sodipodi:docname="audio-x-smart-playlist.svg">
  <defs
     id="defs5372">
    <linearGradient
       y2="5.4565363"
       x2="36.358372"
       y1="8.0590115"
       x1="32.892288"
       gradientTransform="matrix(0.3091956,0,0,0.3766935,0.47614602,0.10717796)"
       gradientUnits="userSpaceOnUse"
       id="linearGradient3155"
       xlink:href="#linearGradient8589"
       inkscape:collect="always" />
    <linearGradient
       id="linearGradient8589">
      <stop
         offset="0"
         style="stop-color:#fefefe;stop-opacity:1"
         id="stop8591" />
      <stop
         offset="1"
         style="stop-color:#cbcbcb;stop-opacity:1"
         id="stop8593" />
    </linearGradient>
    <linearGradient
       y2="6.5436172"
       x2="34.102982"
       y1="5.3065128"
       x1="35.349018"
       gradientTransform="matrix(0.36392585,0,0,0.34982858,-1.602898,0.28579777)"
       gradientUnits="userSpaceOnUse"
       id="linearGradient3135"
       xlink:href="#linearGradient4267-4"
       inkscape:collect="always" />
    <linearGradient
       id="linearGradient4267-4">
      <stop
         id="stop4269-7"
         style="stop-color:#c4c4c4;stop-opacity:1"
         offset="0" />
      <stop
         id="stop4271-6"
         style="stop-color:#c4c4c4;stop-opacity:0"
         offset="1" />
    </linearGradient>
    <linearGradient
       y2="6.5436172"
       x2="34.102982"
       y1="4.8577352"
       x1="35.516502"
       gradientTransform="matrix(0.3428665,0,0,0.3408721,-0.6875871,0.32953056)"
       gradientUnits="userSpaceOnUse"
       id="linearGradient3152"
       xlink:href="#linearGradient4267"
       inkscape:collect="always" />
    <linearGradient
       id="linearGradient4267">
      <stop
         offset="0"
         style="stop-color:#c4c4c4;stop-opacity:1"
         id="stop4269" />
      <stop
         offset="1"
         style="stop-color:#c4c4c4;stop-opacity:0"
         id="stop4271" />
    </linearGradient>
    <linearGradient
       y2="46.01725"
       x2="24"
       y1="1.9999999"
       x1="24"
       gradientTransform="matrix(0.2727267,0,0,0.302325,1.4545607,0.74419916)"
       gradientUnits="userSpaceOnUse"
       id="linearGradient3175"
       xlink:href="#linearGradient3211"
       inkscape:collect="always" />
    <linearGradient
       id="linearGradient3211">
      <stop
         offset="0"
         style="stop-color:#ffffff;stop-opacity:1"
         id="stop3213" />
      <stop
         offset="1"
         style="stop-color:#ffffff;stop-opacity:0"
         id="stop3215" />
    </linearGradient>
    <linearGradient
       id="linearGradient3242-593-605-251-305-8">
      <stop
         id="stop3942"
         style="stop-color:#d391bf;stop-opacity:1"
         offset="0" />
      <stop
         id="stop3944"
         style="stop-color:#bf69b9;stop-opacity:1"
         offset="0.26238" />
      <stop
         id="stop3946"
         style="stop-color:#98439e;stop-opacity:1"
         offset="0.66093999" />
      <stop
         id="stop3948"
         style="stop-color:#5c2f6f;stop-opacity:1"
         offset="1" />
    </linearGradient>
    <linearGradient
       id="linearGradient3332-412-419-652-471-847">
      <stop
         id="stop3952"
         style="stop-color:#620f59;stop-opacity:1"
         offset="0" />
      <stop
         id="stop3954"
         style="stop-color:#a6599f;stop-opacity:1"
         offset="1" />
    </linearGradient>
    <radialGradient
       r="18.000002"
       fy="11.49049"
       fx="14.239056"
       cy="11.49049"
       cx="14.239056"
       gradientTransform="matrix(0,1.0834925,-1.816687,0,24.708827,-13.135239)"
       gradientUnits="userSpaceOnUse"
       id="radialGradient5366"
       xlink:href="#linearGradient3242-593-605-251-305-8"
       inkscape:collect="always" />
    <linearGradient
       y2="2.9062471"
       x2="-51.786404"
       y1="53.623615"
       x1="-51.786404"
       gradientTransform="matrix(0.2768636,0,0,0.3050233,19.641,-0.68560994)"
       gradientUnits="userSpaceOnUse"
       id="linearGradient5368"
       xlink:href="#linearGradient3332-412-419-652-471-847"
       inkscape:collect="always" />
  </defs>
  <sodipodi:namedview
     id="base"
     pagecolor="#ffffff"
     bordercolor="#666666"
     borderopacity="1.0"
     inkscape:pageopacity="0.0"
     inkscape:pageshadow="2"
     inkscape:zoom="22.197802"
     inkscape:cx="8"
     inkscape:cy="8"
     inkscape:current-layer="layer1"
     showgrid="true"
     inkscape:grid-bbox="true"
     inkscape:document-units="px"
     inkscape:window-width="447"
     inkscape:window-height="446"
     inkscape:window-x="0"
     inkscape:window-y="46"
     inkscape:window-maximized="0" />
  <metadata
     id="metadata5375">
    <rdf:RDF>
      <cc:Work
         rdf:about="">
        <dc:format>image/svg+xml</dc:format>
        <dc:type
           rdf:resource="http://purl.org/dc/dcmitype/StillImage" />
        <dc:title></dc:title>
      </cc:Work>
    </rdf:RDF>
  </metadata>
  <g
     id="layer1"
     inkscape:label="Layer 1"
     inkscape:groupmode="layer">
    <path
       d="m 1.5,0.49996646 c 2.5206756,0 5.9205035,0 8.4411815,0 0.4421795,0.1617935 2.9385125,2.13284514 3.5588315,3.40912114 0,3.906246 2.6e-5,7.6846974 2.6e-5,11.5909464 -3.6666935,0 -8.3333464,0 -12.000039,0 0,-5.000023 0,-10.0000464 0,-15.00006754 z"
       id="path4160"
       style="fill:url(#radialGradient5366);fill-opacity:1;fill-rule:nonzero;stroke:url(#linearGradient5368);stroke-width:0.99992192;stroke-linecap:butt;stroke-linejoin:round;stroke-miterlimit:4;stroke-opacity:1;stroke-dasharray:none;stroke-dashoffset:0;marker:none;visibility:visible;display:inline;overflow:visible;enable-background:accumulate"
       inkscape:connector-curvature="0" />
    <path
       d="m 12.5,4.2150737 c 0,3.3853981 0,6.8995283 0,10.2849273 -2.999999,0 -6.9999991,0 -10,0 0,-4.333337 0,-8.6666683 0,-13.0000009 2.0623569,0 5.1738997,0 7.2362577,0"
       id="path2435"
       style="opacity:0.4;fill:none;stroke:url(#linearGradient3175);stroke-width:0.99999994;stroke-linecap:butt;stroke-linejoin:miter;stroke-miterlimit:4;stroke-opacity:1;stroke-dasharray:none;stroke-dashoffset:0;display:inline"
       inkscape:connector-curvature="0" />
    <path
       d="M 9.7907032,0.49996661 C 10.273093,0.66176257 12.864657,2.5040911 13.541387,3.780385 c 0,3.9063032 0,0.2814028 0,4.1877061 C -0.3261322,13.329645 1.4602649,0.49996661 9.7907032,0.49996661 z"
       id="path3883"
       style="fill:none;stroke:url(#linearGradient3152);stroke-width:0.99992192;stroke-linecap:butt;stroke-linejoin:round;stroke-miterlimit:4;stroke-opacity:1;stroke-dasharray:none;stroke-dashoffset:0;display:inline"
       inkscape:connector-curvature="0" />
    <path
       style="fill:none;stroke:url(#linearGradient3135);stroke-width:0.99992174;stroke-linecap:butt;stroke-linejoin:round;stroke-miterlimit:4;stroke-opacity:1;stroke-dasharray:none;stroke-dashoffset:0;display:inline"
       id="path4238"
       d="m 9.620571,0.49996087 c 0.512018,0.1660472 3.161174,2.07640783 3.879468,3.38623643 0,4.008942 0,0.2299236 0,4.238865 C -1.219241,13.627491 0.77846492,0.49996087 9.620571,0.49996087 z"
       inkscape:connector-curvature="0" />
    <path
       d="M 9.2941205,0.84090236 C 10.142028,3.6448056 9,5.0341187 9,5.0341187 c 0,0 1.892807,-1.2514061 4.171354,-0.1023041 1.942856,0.9798084 0.03608,-1.008024 -0.04146,-1.129046 C 12.586944,2.9552644 10.707454,1.169662 10.025256,0.87258676 9.9696235,0.84836036 9.5814385,0.84090236 9.2941205,0.84090236 z"
       id="path3330"
       style="opacity:0.3;fill:#000000;fill-opacity:1;fill-rule:evenodd;stroke:none;display:inline"
       inkscape:connector-curvature="0" />
    <path
       d="M 9.2941205,0.84090236 C 10.281641,0.84090236 10,4.0219213 10,4.0219213 c 0,0 2.272472,-0.5007314 3.171354,0.9098933 0.162882,0.2556128 0.03608,-1.008024 -0.04146,-1.129046 C 12.586944,2.9552644 10.707454,1.169662 10.025256,0.87258676 9.9696235,0.84836036 9.5814385,0.84090236 9.2941205,0.84090236 z"
       id="path4474"
       style="fill:url(#linearGradient3155);fill-opacity:1;fill-rule:evenodd;stroke:none;display:inline"
       inkscape:connector-curvature="0" />
    <path
       inkscape:connector-curvature="0"
       style="opacity:0.4;fill:#ffffff;fill-opacity:1;fill-rule:nonzero;stroke:none;stroke-width:1.70000005;marker:none;visibility:visible;display:inline;overflow:visible;enable-background:accumulate"
       d="M 6.65625,5 C 6.5004375,5 6.375,5.1254375 6.375,5.28125 l 0,1.0625 C 6.2668987,6.38255 6.1651788,6.419547 6.0625,6.46875 L 5.3125,5.75 C 5.257412,5.694912 5.1968931,5.625 5.125,5.625 5.053113,5.625 4.9613379,5.694912 4.90625,5.75 L 3.75,6.90625 c -0.1101713,0.1101758 -0.1101713,0.2960742 0,0.40625 l 0.71875,0.75 C 4.419547,8.1651787 4.38255,8.266903 4.34375,8.375 l -1.0625,0 C 3.1254375,8.375 3,8.5004375 3,8.65625 l 0,1.6875 C 3,10.499563 3.1254375,10.625 3.28125,10.625 l 1.0625,0 c 0.038801,0.108101 0.075793,0.20982 0.125,0.3125 L 3.75,11.6875 c -0.1101713,0.110171 -0.1101713,0.296073 0,0.40625 L 4.90625,13.25 c 0.1101712,0.110171 0.2960742,0.110171 0.40625,0 l 0.75,-0.71875 c 0.1026799,0.04921 0.2044033,0.0862 0.3125,0.125 l 0,1.0625 C 6.375,13.874563 6.5004375,14 6.65625,14 l 1.6875,0 C 8.4995625,14 8.625,13.874563 8.625,13.71875 l 0,-1.0625 c 0.1081013,-0.0388 0.2098201,-0.07579 0.3125,-0.125 l 0.75,0.71875 c 0.1101713,0.110171 0.2960726,0.110171 0.40625,0 L 11.25,12.09375 c 0.110171,-0.110172 0.110171,-0.296075 0,-0.40625 l -0.71875,-0.75 c 0.04921,-0.102679 0.0862,-0.204403 0.125,-0.3125 l 1.0625,0 C 11.874563,10.625 12,10.499563 12,10.34375 l 0,-1.6875 C 12,8.5004375 11.874563,8.375 11.71875,8.375 l -1.0625,0 C 10.61745,8.2669033 10.58046,8.1651793 10.53125,8.0625 L 11.25,7.3125 c 0.110171,-0.1101757 0.110171,-0.2960738 0,-0.40625 L 10.09375,5.75 C 9.9835783,5.6398242 9.7976758,5.6398231 9.6875,5.75 l -0.75,0.71875 C 8.8348201,6.419547 8.7330968,6.38255 8.625,6.34375 l 0,-1.0625 C 8.625,5.1254375 8.4995625,5 8.34375,5 L 6.65625,5 z M 7.5,8 C 8.3284271,8 9,8.6715729 9,9.5 9,10.328427 8.3284271,11 7.5,11 6.6715729,11 6,10.328427 6,9.5 6,8.6715729 6.6715729,8 7.5,8 z"
       id="path2502" />
    <path
       inkscape:connector-curvature="0"
       style="fill:#620f59;fill-opacity:1;fill-rule:nonzero;stroke:none;stroke-width:1.70000005;marker:none;visibility:visible;display:inline;overflow:visible;enable-background:accumulate"
       d="M 6.65625,4 C 6.5004375,4 6.375,4.1254375 6.375,4.28125 l 0,1.0625 C 6.2668987,5.38255 6.1651788,5.419547 6.0625,5.46875 L 5.3125,4.75 C 5.257412,4.694912 5.1968931,4.625 5.125,4.625 5.053113,4.625 4.9613379,4.694912 4.90625,4.75 L 3.75,5.90625 c -0.1101713,0.1101757 -0.1101713,0.296074 0,0.40625 l 0.71875,0.75 C 4.419547,7.1651788 4.38255,7.2669029 4.34375,7.375 l -1.0625,0 C 3.1254375,7.375 3,7.5004375 3,7.65625 l 0,1.6875 C 3,9.499563 3.1254375,9.625 3.28125,9.625 l 1.0625,0 c 0.038802,0.108097 0.075793,0.209821 0.125,0.3125 L 3.75,10.6875 c -0.1101713,0.110176 -0.1101713,0.296073 0,0.40625 L 4.90625,12.25 c 0.1101713,0.110172 0.2960742,0.110172 0.40625,0 l 0.75,-0.71875 c 0.1026799,0.0492 0.2044033,0.0862 0.3125,0.125 l 0,1.0625 C 6.375,12.874563 6.5004375,13 6.65625,13 l 1.6875,0 C 8.4995625,13 8.625,12.874563 8.625,12.71875 l 0,-1.0625 c 0.1081013,-0.0388 0.2098201,-0.07579 0.3125,-0.125 l 0.75,0.71875 c 0.1101708,0.110171 0.2960724,0.110171 0.40625,0 L 11.25,11.09375 c 0.110171,-0.110172 0.110171,-0.296075 0,-0.40625 l -0.71875,-0.75 c 0.0492,-0.102678 0.0862,-0.204403 0.125,-0.3125 l 1.0625,0 C 11.874563,9.625 12,9.499563 12,9.34375 l 0,-1.6875 C 12,7.5004375 11.874563,7.375 11.71875,7.375 l -1.0625,0 C 10.61745,7.2669032 10.58046,7.1651793 10.53125,7.0625 L 11.25,6.3125 c 0.110171,-0.1101758 0.110171,-0.2960738 0,-0.40625 L 10.09375,4.75 C 9.9835787,4.6398243 9.7976762,4.6398231 9.6875,4.75 l -0.75,0.71875 C 8.8348201,5.419547 8.7330968,5.38255 8.625,5.34375 l 0,-1.0625 C 8.625,4.1254375 8.4995625,4 8.34375,4 L 6.65625,4 z M 7.5,7 C 8.3284271,7 9,7.6715729 9,8.5 9,9.3284271 8.3284271,10 7.5,10 6.6715729,10 6,9.3284271 6,8.5 6,7.6715729 6.6715729,7 7.5,7 z"
       id="rect2484" />
  </g>
</svg>
