<?xml version="1.0" encoding="UTF-8" standalone="no"?>
<!-- Created with Inkscape (http://www.inkscape.org/) -->

<svg
   xmlns:svg="http://www.w3.org/2000/svg"
   xmlns="http://www.w3.org/2000/svg"
   xmlns:xlink="http://www.w3.org/1999/xlink"
   version="1.0"
   width="24"
   height="24"
   id="svg11300">
  <defs
     id="defs3">
    <linearGradient
       id="linearGradient3702">
      <stop
         id="stop3704"
         style="stop-color:black;stop-opacity:0"
         offset="0" />
      <stop
         id="stop3710"
         style="stop-color:black;stop-opacity:1"
         offset="0.5" />
      <stop
         id="stop3706"
         style="stop-color:black;stop-opacity:0"
         offset="1" />
    </linearGradient>
    <linearGradient
       id="linearGradient3688">
      <stop
         id="stop3690"
         style="stop-color:black;stop-opacity:1"
         offset="0" />
      <stop
         id="stop3692"
         style="stop-color:black;stop-opacity:0"
         offset="1" />
    </linearGradient>
    <linearGradient
       id="linearGradient6482">
      <stop
         id="stop6484"
         style="stop-color:#cd8033;stop-opacity:1"
         offset="0" />
      <stop
         id="stop6486"
         style="stop-color:#bb5e12;stop-opacity:1"
         offset="1" />
    </linearGradient>
    <linearGradient
       id="linearGradient7962">
      <stop
         id="stop7964"
         style="stop-color:white;stop-opacity:1"
         offset="0" />
      <stop
         id="stop7966"
         style="stop-color:white;stop-opacity:0"
         offset="1" />
    </linearGradient>
    <linearGradient
       id="linearGradient6288">
      <stop
         id="stop6290"
         style="stop-color:#969696;stop-opacity:1"
         offset="0" />
      <stop
         id="stop6292"
         style="stop-color:#bebebe;stop-opacity:1"
         offset="1" />
    </linearGradient>
    <linearGradient
       id="linearGradient6280">
      <stop
         id="stop6282"
         style="stop-color:white;stop-opacity:1"
         offset="0" />
      <stop
         id="stop6284"
         style="stop-color:#dcdcdc;stop-opacity:1"
         offset="1" />
    </linearGradient>
    <linearGradient
       id="linearGradient4103">
      <stop
         id="stop4105"
         style="stop-color:#edd563;stop-opacity:1"
         offset="0" />
      <stop
         id="stop4107"
         style="stop-color:#e08223;stop-opacity:1"
         offset="1" />
    </linearGradient>
    <linearGradient
       id="linearGradient2264">
      <stop
         id="stop2266"
         style="stop-color:#d7e866;stop-opacity:1"
         offset="0" />
      <stop
         id="stop2268"
         style="stop-color:#8cab2a;stop-opacity:1"
         offset="1" />
    </linearGradient>
    <linearGradient
       id="linearGradient4103-772-865-112-606">
      <stop
         id="stop139214"
         style="stop-color:#a7bce2;stop-opacity:1"
         offset="0" />
      <stop
         id="stop139216"
         style="stop-color:#5077b1;stop-opacity:1"
         offset="1" />
    </linearGradient>
    <radialGradient
       cx="4.9929786"
       cy="43.5"
       r="2.5"
       fx="4.9929786"
       fy="43.5"
       id="radialGradient6148"
       xlink:href="#linearGradient3688"
       gradientUnits="userSpaceOnUse"
       gradientTransform="matrix(2.2071755,0,0,1.5999984,42.315319,-13.885907)" />
    <radialGradient
       cx="4.9929786"
       cy="43.5"
       r="2.5"
       fx="4.9929786"
       fy="43.5"
       id="radialGradient6150"
       xlink:href="#linearGradient3688"
       gradientUnits="userSpaceOnUse"
       gradientTransform="matrix(2.2071755,0,0,1.5999984,-33.529439,-125.31396)" />
    <linearGradient
       x1="25.058096"
       y1="47.027729"
       x2="25.058096"
       y2="39.999443"
       id="linearGradient6152"
       xlink:href="#linearGradient3702"
       gradientUnits="userSpaceOnUse"
       gradientTransform="matrix(1.1015037,0,0,1.142856,11.48629,5.9997877)" />
    <radialGradient
       cx="4.9929786"
       cy="43.5"
       r="2.5"
       fx="4.9929786"
       fy="43.5"
       id="radialGradient6154"
       xlink:href="#linearGradient3688"
       gradientUnits="userSpaceOnUse"
       gradientTransform="matrix(2.0140075,0,0,1.0000001,41.93085,12.214021)" />
    <radialGradient
       cx="4.9929786"
       cy="43.5"
       r="2.5"
       fx="4.9929786"
       fy="43.5"
       id="radialGradient6156"
       xlink:href="#linearGradient3688"
       gradientUnits="userSpaceOnUse"
       gradientTransform="matrix(2.0140075,0,0,1.0000001,-33.913894,-99.21403)" />
    <linearGradient
       x1="25.058096"
       y1="47.027729"
       x2="25.058096"
       y2="39.999443"
       id="linearGradient6158"
       xlink:href="#linearGradient3702"
       gradientUnits="userSpaceOnUse"
       gradientTransform="matrix(1.0051021,0,0,0.7142858,13.799922,24.642594)" />
    <linearGradient
       x1="45"
       y1="24.999998"
       x2="45"
       y2="48"
       id="linearGradient6164"
       xlink:href="#linearGradient4103-772-865-112-606"
       gradientUnits="userSpaceOnUse"
       gradientTransform="matrix(0.4008719,0,0,0.4547607,0.460777,-1.098764)" />
    <linearGradient
       x1="37"
       y1="35.000004"
       x2="37"
       y2="48"
       id="linearGradient6167"
       xlink:href="#linearGradient2264"
       gradientUnits="userSpaceOnUse"
       gradientTransform="matrix(0.3986572,0,0,0.4992507,-0.250273,-3.218919)" />
    <linearGradient
       x1="28.999998"
       y1="30"
       x2="28.999998"
       y2="48"
       id="linearGradient6170"
       xlink:href="#linearGradient4103"
       gradientUnits="userSpaceOnUse"
       gradientTransform="matrix(0.3991942,0,0,0.4703273,-1.076603,-1.842772)" />
    <linearGradient
       x1="103.00001"
       y1="40"
       x2="103.00001"
       y2="49.000004"
       id="linearGradient6172"
       xlink:href="#linearGradient6482"
       gradientUnits="userSpaceOnUse"
       gradientTransform="translate(-94,-28)" />
    <linearGradient
       x1="29"
       y1="7.9375"
       x2="29"
       y2="40.9375"
       id="linearGradient6180"
       xlink:href="#linearGradient7962"
       gradientUnits="userSpaceOnUse"
       gradientTransform="matrix(0.4705883,0,0,0.9999983,-1.6470647,-7.99998)" />
    <linearGradient
       x1="9.4142141"
       y1="9.4142122"
       x2="48.850956"
       y2="34.939339"
       id="linearGradient6193"
       xlink:href="#linearGradient6280"
       gradientUnits="userSpaceOnUse"
       gradientTransform="matrix(0.5121769,0,0,0.5555263,-2.8531339,-3.2215847)" />
    <linearGradient
       x1="48.850956"
       y1="34.939339"
       x2="9.4142141"
       y2="9.4142122"
       id="linearGradient6195"
       xlink:href="#linearGradient6288"
       gradientUnits="userSpaceOnUse"
       gradientTransform="matrix(0.5121769,0,0,0.5555263,-2.8531339,-3.2215847)" />
  </defs>
  <g
     id="g6197">
    <g
       transform="matrix(0.5733788,0,0,0.6250004,-9.743891,-18.32129)"
       id="g5723"
       style="stroke-width:1.40491486;stroke-miterlimit:4;stroke-dasharray:none;display:inline;enable-background:new">
      <rect
         width="5.5075183"
         height="7.9999919"
         x="53.343433"
         y="51.714027"
         id="rect5725"
         style="opacity:0.26234819;fill:url(#radialGradient6148);fill-opacity:1;stroke:none" />
      <rect
         width="5.5075183"
         height="7.9999919"
         x="-22.501328"
         y="-59.71402"
         transform="scale(-1,-1)"
         id="rect5727"
         style="opacity:0.26234819;fill:url(#radialGradient6150);fill-opacity:1;stroke:none" />
      <rect
         width="30.842104"
         height="7.9999924"
         x="22.501328"
         y="51.714027"
         id="rect5729"
         style="opacity:0.26234819;fill:url(#linearGradient6152);fill-opacity:1;stroke:none" />
      <rect
         width="5.0255103"
         height="5.0000005"
         x="51.993801"
         y="53.214027"
         id="rect5731"
         style="opacity:0.4;fill:url(#radialGradient6154);fill-opacity:1;stroke:none" />
      <rect
         width="5.0255103"
         height="5.0000005"
         x="-23.850945"
         y="-58.214027"
         transform="scale(-1,-1)"
         id="rect5733"
         style="opacity:0.4;fill:url(#radialGradient6156);fill-opacity:1;stroke:none" />
      <rect
         width="28.142859"
         height="5.000001"
         x="23.850945"
         y="53.214027"
         id="rect5735"
         style="opacity:0.4;fill:url(#linearGradient6158);fill-opacity:1;stroke:none" />
    </g>
    <rect
       width="20.999758"
       height="14.999758"
       x="1.5001214"
       y="1.5001209"
       id="rect6776"
       style="fill:url(#linearGradient6193);fill-opacity:1;fill-rule:evenodd;stroke:url(#linearGradient6195);stroke-width:1.00024259;stroke-linecap:round;stroke-linejoin:round;stroke-miterlimit:4;stroke-opacity:1;stroke-dasharray:none;stroke-dashoffset:0" />
    <path
       d="m 3,8 0,1 18.000009,0 0,-1 L 3,8 z"
       id="path6942"
       style="fill:#fed995;fill-opacity:1;fill-rule:evenodd;stroke:none;display:inline;enable-background:new" />
    <path
       d="m 3,11 0,1 18.000009,0 0,-1 L 3,11 z"
       id="path6944"
       style="fill:#fed995;fill-opacity:1;fill-rule:evenodd;stroke:none;display:inline;enable-background:new" />
    <rect
       width="6.999722"
       height="10.999722"
       x="13.50054"
       y="3.5001395"
       id="rect6778"
       style="fill:none;stroke:#bebebe;stroke-width:1.00027812;stroke-linecap:round;stroke-linejoin:miter;stroke-miterlimit:4;stroke-opacity:1;stroke-dasharray:none;stroke-dashoffset:0;display:inline;enable-background:new" />
    <rect
       width="1.9996328"
       height="10.999633"
       x="3.5001836"
       y="3.5001836"
       id="rect6782"
       style="fill:none;stroke:#bebebe;stroke-width:1.00036716;stroke-linecap:round;stroke-linejoin:miter;stroke-miterlimit:4;stroke-opacity:1;stroke-dasharray:none;stroke-dashoffset:0" />
    <path
       d="m 4,14 0,1 16,0 0,-1 -16,0 z"
       id="path5590"
       style="fill:#fed995;fill-opacity:1;fill-rule:evenodd;stroke:none;display:inline;enable-background:new" />
    <rect
       width="2.9996886"
       height="10.999689"
       x="5.5001554"
       y="3.5001554"
       id="rect6786"
       style="fill:none;stroke:#bebebe;stroke-width:1.00031114;stroke-linecap:round;stroke-linejoin:miter;stroke-miterlimit:4;stroke-opacity:1;stroke-dasharray:none;stroke-dashoffset:0;display:inline;enable-background:new" />
    <rect
       width="4.9996781"
       height="10.999679"
       x="8.5001602"
       y="3.5001605"
       id="rect6931"
       style="fill:none;stroke:#bebebe;stroke-width:1.00032175;stroke-linecap:round;stroke-linejoin:miter;stroke-miterlimit:4;stroke-opacity:1;stroke-dasharray:none;stroke-dashoffset:0;display:inline;enable-background:new" />
    <path
       d="m 3,10 0,1 18.000009,0 0,-1 L 3,10 z"
       id="rect6933"
       style="fill:#c7af64;fill-opacity:1;fill-rule:evenodd;stroke:none;display:inline;enable-background:new" />
    <path
       d="m 3,7 0,1 18.000009,0 0,-1 L 3,7 z"
       id="path6940"
       style="fill:#c7af64;fill-opacity:1;fill-rule:evenodd;stroke:none;display:inline;enable-background:new" />
    <rect
       width="16.943392"
       height="1.9433854"
       x="3.5283005"
       y="3.5283053"
       id="rect6790"
       style="fill:#deaa76;fill-opacity:1;fill-rule:evenodd;stroke:#cd8033;stroke-width:1.05661559;stroke-linecap:round;stroke-linejoin:miter;stroke-miterlimit:4;stroke-opacity:1;stroke-dasharray:none;stroke-dashoffset:0" />
    <path
       d="m 3.9999911,4 0,1 L 20,5 20,4 3.9999911,4 z"
       id="path6794"
       style="opacity:0.1;fill:url(#linearGradient6180);fill-opacity:1;fill-rule:evenodd;stroke:none" />
    <rect
       width="1"
       height="3.0005531"
       x="4.9999919"
       y="2.9997292"
       id="rect6796"
       style="fill:#cd8033;fill-opacity:1;fill-rule:evenodd;stroke:none" />
    <rect
       width="1"
       height="3.0005531"
       x="-8.9999866"
       y="3"
       transform="scale(-1,1)"
       id="rect6798"
       style="fill:#cd8033;fill-opacity:1;fill-rule:evenodd;stroke:none;display:inline;enable-background:new" />
    <rect
       width="1"
       height="3"
       x="11.999987"
       y="3"
       id="rect6800"
       style="fill:#cd8033;fill-opacity:1;fill-rule:evenodd;stroke:none;display:inline;enable-background:new" />
    <path
       d="m 3,13 0,1 18.000009,0 0,-1 L 3,13 z"
       id="path5588"
       style="fill:#c7af64;fill-opacity:1;fill-rule:evenodd;stroke:none;display:inline;enable-background:new" />
    <path
       d="m 5,9 0,2 2,0 0,2 -2,0 0,1 2,0 0,2 -2,0 0,1 2,0 0,2 -2,0 0,1 17,0 0,-1 L 8,19 8,9 5,9 z"
       id="path6946"
       style="opacity:0.2;fill:#464646;fill-opacity:1;fill-rule:evenodd;stroke:none;display:inline;enable-background:new" />
    <rect
       width="1.9982564"
       height="7.9982562"
       x="9.5008774"
       y="12.500881"
       id="rect6824"
       style="fill:url(#linearGradient6170);fill-opacity:1;fill-rule:evenodd;stroke:url(#linearGradient6172);stroke-width:1.00174439;stroke-linecap:round;stroke-linejoin:miter;stroke-miterlimit:4;stroke-opacity:1;stroke-dasharray:none;stroke-dashoffset:0" />
    <rect
       width="2.0022771"
       height="6.0022702"
       x="13.498863"
       y="14.498876"
       id="rect6826"
       style="fill:url(#linearGradient6167);fill-opacity:1;fill-rule:evenodd;stroke:#42770c;stroke-width:0.99772954;stroke-linecap:round;stroke-linejoin:miter;stroke-miterlimit:4;stroke-opacity:1;stroke-dasharray:none;stroke-dashoffset:0;display:inline;enable-background:new" />
    <rect
       width="2.0014906"
       height="10.001487"
       x="17.499252"
       y="10.499261"
       id="rect6828"
       style="fill:url(#linearGradient6164);fill-opacity:1;fill-rule:evenodd;stroke:#0854a9;stroke-width:0.99851143;stroke-linecap:round;stroke-linejoin:miter;stroke-miterlimit:4;stroke-opacity:1;stroke-dasharray:none;stroke-dashoffset:0;display:inline;enable-background:new" />
    <path
       d="m 5,9 0,1 1,0 0,2 -1,0 0,1 1,0 0,2 -1,0 0,1 1,0 0,2 -1,0 0,1 1,0 0,2 1.09524,0 L 22,21 22,20 7.09524,20 7.09524,9 5,9 z"
       id="path6830"
       style="fill:#464646;fill-opacity:1;fill-rule:evenodd;stroke:none" />
    <path
       d="m 6,22 0,1 1,0 0,-1 -1,0 z m 2,0 0,1 1,0 0,-1 -1,0 z m 2,0 0,1 1,0 0,-1 -1,0 z m 2,0 0,1 1,0 0,-1 -1,0 z m 2,0 0,1 1,0 0,-1 -1,0 z m 2,0 0,1 1,0 0,-1 -1,0 z m 2,0 0,1 1,0 0,-1 -1,0 z m 2,0 0,1 1,0 0,-1 -1,0 z"
       id="path6913"
       style="opacity:0.2;fill:#464646;fill-opacity:1;fill-rule:evenodd;stroke:none;display:inline;enable-background:new" />
    <path
       d="m 7,22 0,1 1,0 0,-1 -1,0 z m 2,0 0,1 1,0 0,-1 -1,0 z m 2,0 0,1 1,0 0,-1 -1,0 z m 2,0 0,1 1,0 0,-1 -1,0 z m 2,0 0,1 1,0 0,-1 -1,0 z m 2,0 0,1 1,0 0,-1 -1,0 z m 2,0 0,1 1,0 0,-1 -1,0 z m 2,0 0,1 1,0 0,-1 -1,0 z"
       id="path6915"
       style="fill:#cd8033;fill-opacity:1;fill-rule:evenodd;stroke:none;display:inline;enable-background:new" />
  </g>
</svg>
