<?xml version="1.0" encoding="UTF-8" standalone="no"?>
<!-- Created with Inkscape (http://www.inkscape.org/) -->
<svg id="svg3081" xmlns="http://www.w3.org/2000/svg" height="48" width="48" version="1.1" xmlns:xlink="http://www.w3.org/1999/xlink">
 <defs id="defs3083">
  <radialGradient id="radialGradient3546" gradientUnits="userSpaceOnUse" cy="4.625" cx="62.625" gradientTransform="matrix(1 0 0 .34118 0 3.0471)" r="10.625">
   <stop id="stop2737" offset="0"/>
   <stop id="stop2739" style="stop-opacity:0" offset="1"/>
  </radialGradient>
  <linearGradient id="linearGradient3571" y2="44.786" gradientUnits="userSpaceOnUse" x2="15.656" gradientTransform="translate(.74999 5e-8)" y1="13.36" x1="15.656">
   <stop id="stop37937" style="stop-color:#7c7c7c" offset="0"/>
   <stop id="stop37939" style="stop-color:#242424" offset="1"/>
  </linearGradient>
  <linearGradient id="linearGradient3568" y2="7.4435" gradientUnits="userSpaceOnUse" x2="63.397" gradientTransform="matrix(2.1499 0 0 2.1499 -109.37 31.935)" y1="-9.3833" x1="63.397">
   <stop id="stop4258" style="stop-color:#fff" offset="0"/>
   <stop id="stop4260" style="stop-color:#fff;stop-opacity:0" offset="1"/>
  </linearGradient>
  <linearGradient id="linearGradient3565" y2="25.884" gradientUnits="userSpaceOnUse" x2="22.218" y1="7.7893" x1="6.3422">
   <stop id="stop42176" style="stop-color:#a0a0a0" offset="0"/>
   <stop id="stop42178" style="stop-color:#fff" offset="1"/>
  </linearGradient>
  <radialGradient id="radialGradient3563" gradientUnits="userSpaceOnUse" cy="10.045" cx="11.902" r="29.293">
   <stop id="stop2147" style="stop-color:#fffffd" offset="0"/>
   <stop id="stop2149" style="stop-color:#cbcbc9" offset="1"/>
  </radialGradient>
  <linearGradient id="linearGradient5206" y2="47.273" gradientUnits="userSpaceOnUse" x2="24.139" gradientTransform="matrix(.53643 0 0 .53320 -15.688 50.169)" y1="-9.8009" x1="24.139">
   <stop id="stop4224" style="stop-color:#fff" offset="0"/>
   <stop id="stop4226" style="stop-color:#fff;stop-opacity:0" offset="1"/>
  </linearGradient>
  <linearGradient id="linearGradient5204" y2="32.485" gradientUnits="userSpaceOnUse" x2="24.104" gradientTransform="matrix(.89305 0 0 .88766 -24.247 42.161)" y1="15.169" x1="24.104">
   <stop id="stop2266" style="stop-color:#d7e866" offset="0"/>
   <stop id="stop2268" style="stop-color:#8cab2a" offset="1"/>
  </linearGradient>
 </defs>
 <g id="layer1">
  <path id="path8836" style="opacity:.56044;fill-rule:evenodd;fill:url(#radialGradient3546)" d="m73.25 4.625a10.625 3.625 0 1 1 -21.25 0 10.625 3.625 0 1 1 21.25 0z" transform="matrix(2.1499 0 0 2.5637 -110.64 26.85)"/>
  <path id="path6495" style="stroke:#333;fill:url(#linearGradient3571)" d="m44.255 24.387c0 10.99-8.9091 19.899-19.897 19.899-10.989 0-19.898-8.9091-19.898-19.899 0-10.989 8.9086-19.897 19.898-19.897 10.988 0 19.897 8.9081 19.897 19.897z"/>
  <path id="path8655" style="opacity:.4;stroke:url(#linearGradient3568);fill:none" d="m43.159 24.387c0 10.384-8.4184 18.803-18.801 18.803-10.384 0-18.802-8.4184-18.802-18.803 0-10.384 8.418-18.801 18.802-18.801 10.383 0 18.801 8.4175 18.801 18.801z"/>
  <path id="path35549" style="stroke-linejoin:bevel;fill-rule:evenodd;stroke:url(#linearGradient3565);stroke-linecap:round;stroke-width:.84249;fill:url(#radialGradient3563)" d="m31.161 16.911a14.911 14.911 0 1 1 -29.821 0 14.911 14.911 0 1 1 29.821 0z" transform="matrix(1.099 0 0 1.099 6.4989 5.6022)"/>
  <path id="path2291" style="fill-rule:evenodd;stroke:#5f5f5f;stroke-linecap:round;stroke-width:.92589;fill:#616161" d="m10.359 24.537c2.7663 0 3.1166-0.07959 3.1166-0.07959"/>
  <path id="path2296" style="fill-rule:evenodd;stroke:#1f1f1f;stroke-linecap:round;stroke-width:.92589;fill:#1f1f1f" d="m35.519 24.537c2.7663 0 3.1166-0.07959 3.1166-0.07959"/>
  <path id="path2306" style="fill-rule:evenodd;stroke:#121212;stroke-linecap:round;stroke-width:.92589;fill:#131313" d="m24.543 38.011c0-2.7663-0.07959-3.1166-0.07959-3.1166"/>
  <path id="path2308" style="fill-rule:evenodd;stroke:#727272;stroke-linecap:round;stroke-width:.92589;fill:#1f1f1f" d="m24.543 13.061c0-2.7664-0.07959-3.1166-0.07959-3.1166"/>
  <g id="g2318" style="stroke-width:1.6149;stroke-linecap:round" transform="matrix(.57334 0 0 .57334 11.656 11.154)">
   <path id="path2312" style="stroke:#000;stroke-linecap:round;stroke-width:1.6149;fill:none" d="m21.168 23.653 19.031-19.031"/>
   <path id="path2314" style="stroke:#000;stroke-linecap:round;stroke-width:1.6149;fill:none" d="m24.258 23.793-12.71-12.71"/>
   <path id="path2316" style="fill-rule:evenodd;stroke:red;stroke-linecap:round;stroke-width:1.6149;fill:red" d="m21.59 22.67 21.671-5.807"/>
  </g>
  <g id="g5278" transform="translate(40.867 -25.532)">
   <path id="path2262" style="stroke-linejoin:round;fill-rule:evenodd;stroke:#42770c;fill:url(#linearGradient5204)" d="m-6.3336 60.032v-5.0014h6.9665v5.0014h5.0014v7h-5.0014v5h-6.9726l-0.027688-5h-4.9997v-7h5.0335z"/>
   <path id="path2272" style="stroke:url(#linearGradient5206);fill:none" d="m-5.3671 61.032v-5h5.0014v5h4.9986v4.9259l-4.9986-0.01562v5.0897h-5.0014v-5h-5v-5h5z"/>
  </g>
 </g>
</svg>
