<?xml version="1.0" encoding="UTF-8" standalone="no"?>
<!-- Created with Inkscape (http://www.inkscape.org/) -->

<svg
   xmlns:svg="http://www.w3.org/2000/svg"
   xmlns="http://www.w3.org/2000/svg"
   xmlns:xlink="http://www.w3.org/1999/xlink"
   version="1.1"
   width="48"
   height="48"
   id="svg3999">
  <defs
     id="defs4001">
    <linearGradient
       x1="18.03083"
       y1="16.407909"
       x2="20.054544"
       y2="24.627615"
       id="linearGradient3058"
       xlink:href="#linearGradient8265-821-176-38-919-66-249"
       gradientUnits="userSpaceOnUse"
       gradientTransform="matrix(0.4874172,0,0,0.4526608,18.786726,22.581094)" />
    <linearGradient
       id="linearGradient8265-821-176-38-919-66-249">
      <stop
         id="stop2687"
         style="stop-color:#ffffff;stop-opacity:0.27450982"
         offset="0" />
      <stop
         id="stop2689"
         style="stop-color:#ffffff;stop-opacity:0.07843138"
         offset="1" />
    </linearGradient>
    <radialGradient
       cx="4.02005"
       cy="5.5926585"
       r="10.273108"
       fx="4.02005"
       fy="5.5926585"
       id="radialGradient3061"
       xlink:href="#linearGradient3752"
       gradientUnits="userSpaceOnUse"
       gradientTransform="matrix(-0.0182044,1.5313239,-1.9465512,-0.02377876,31.430349,21.091345)" />
    <linearGradient
       id="linearGradient3752">
      <stop
         id="stop3754"
         style="stop-color:#ffffff;stop-opacity:1"
         offset="0" />
      <stop
         id="stop3760"
         style="stop-color:#ffffff;stop-opacity:1"
         offset="0.84754151" />
      <stop
         id="stop3756"
         style="stop-color:#ffffff;stop-opacity:0"
         offset="1" />
    </linearGradient>
    <radialGradient
       cx="7.8185525"
       cy="8.5608768"
       r="11.268134"
       fx="7.8185525"
       fy="8.5608768"
       id="radialGradient3064"
       xlink:href="#linearGradient7012-661-145-733-759-865-745-661-970-94-2"
       gradientUnits="userSpaceOnUse"
       gradientTransform="matrix(1.8309812,0,0,1.1461838,10.078196,19.77903)" />
    <linearGradient
       id="linearGradient7012-661-145-733-759-865-745-661-970-94-2">
      <stop
         id="stop3618-6"
         style="stop-color:#f0c178;stop-opacity:1"
         offset="0" />
      <stop
         id="stop3270"
         style="stop-color:#e18941;stop-opacity:1"
         offset="0.5" />
      <stop
         id="stop3620-1"
         style="stop-color:#ec4f18;stop-opacity:1"
         offset="1" />
    </linearGradient>
    <linearGradient
       x1="9.7045717"
       y1="20.882006"
       x2="9.7045717"
       y2="4.3030405"
       id="linearGradient3066"
       xlink:href="#linearGradient3390-178-986-453-2"
       gradientUnits="userSpaceOnUse"
       gradientTransform="matrix(1.0775743,0,0,1.0923309,15.614314,20.60936)" />
    <linearGradient
       id="linearGradient3390-178-986-453-2">
      <stop
         id="stop3624-7"
         style="stop-color:#bb2b12;stop-opacity:1"
         offset="0" />
      <stop
         id="stop3626-2"
         style="stop-color:#cd7233;stop-opacity:1"
         offset="1" />
    </linearGradient>
    <linearGradient
       x1="-28.531403"
       y1="17.955765"
       x2="-28.531403"
       y2="37.502914"
       id="linearGradient3069"
       xlink:href="#linearGradient11111"
       gradientUnits="userSpaceOnUse"
       gradientTransform="matrix(1.0909552,0,0,1.1016115,53.483235,2.7394825)" />
    <linearGradient
       id="linearGradient11111">
      <stop
         id="stop11113"
         style="stop-color:#ffffff;stop-opacity:1"
         offset="0" />
      <stop
         id="stop11115"
         style="stop-color:#cdcdcd;stop-opacity:1"
         offset="0.91013825" />
      <stop
         id="stop11117"
         style="stop-color:#a1a1a1;stop-opacity:1"
         offset="1" />
    </linearGradient>
    <linearGradient
       x1="9.8763561"
       y1="2.6014566"
       x2="9.8763561"
       y2="23.061668"
       id="linearGradient3071"
       xlink:href="#linearGradient5157"
       gradientUnits="userSpaceOnUse"
       gradientTransform="matrix(1.0909552,0,0,1.1016115,15.978373,18.714306)" />
    <linearGradient
       id="linearGradient5157">
      <stop
         id="stop5159"
         style="stop-color:#c1c1c1;stop-opacity:1"
         offset="0" />
      <stop
         id="stop5161"
         style="stop-color:#909090;stop-opacity:1"
         offset="1" />
    </linearGradient>
    <linearGradient
       x1="302.85715"
       y1="366.64789"
       x2="302.85715"
       y2="609.50507"
       id="linearGradient3599"
       xlink:href="#linearGradient5048"
       gradientUnits="userSpaceOnUse"
       gradientTransform="matrix(2.774389,0,0,1.969706,-1892.179,-872.8854)" />
    <linearGradient
       id="linearGradient5048">
      <stop
         id="stop5050"
         style="stop-color:#000000;stop-opacity:0"
         offset="0" />
      <stop
         id="stop5056"
         style="stop-color:#000000;stop-opacity:1"
         offset="0.5" />
      <stop
         id="stop5052"
         style="stop-color:#000000;stop-opacity:0"
         offset="1" />
    </linearGradient>
    <radialGradient
       cx="605.71429"
       cy="486.64789"
       r="117.14286"
       fx="605.71429"
       fy="486.64789"
       id="radialGradient3601"
       xlink:href="#linearGradient5060"
       gradientUnits="userSpaceOnUse"
       gradientTransform="matrix(2.774389,0,0,1.969706,-1891.633,-872.8854)" />
    <linearGradient
       id="linearGradient5060">
      <stop
         id="stop5062"
         style="stop-color:#000000;stop-opacity:1"
         offset="0" />
      <stop
         id="stop5064"
         style="stop-color:#000000;stop-opacity:0"
         offset="1" />
    </linearGradient>
    <radialGradient
       cx="605.71429"
       cy="486.64789"
       r="117.14286"
       fx="605.71429"
       fy="486.64789"
       id="radialGradient3603"
       xlink:href="#linearGradient5060"
       gradientUnits="userSpaceOnUse"
       gradientTransform="matrix(-2.774389,0,0,1.969706,112.7623,-872.8854)" />
    <linearGradient
       x1="18.03083"
       y1="16.407909"
       x2="20.054544"
       y2="24.627615"
       id="linearGradient3079"
       xlink:href="#linearGradient8265-821-176-38-919-66-249"
       gradientUnits="userSpaceOnUse"
       gradientTransform="matrix(0.4874172,0,0,0.4526608,8.786727,4.5810965)" />
    <radialGradient
       cx="4.02005"
       cy="5.5926585"
       r="10.273108"
       fx="4.02005"
       fy="5.5926585"
       id="radialGradient3082"
       xlink:href="#linearGradient3752-561"
       gradientUnits="userSpaceOnUse"
       gradientTransform="matrix(-0.0182044,1.5313239,-1.9465512,-0.02377876,21.43035,3.0913465)" />
    <linearGradient
       id="linearGradient3752-561">
      <stop
         id="stop3182"
         style="stop-color:#ffffff;stop-opacity:1"
         offset="0" />
      <stop
         id="stop3184"
         style="stop-color:#ffffff;stop-opacity:1"
         offset="0.84754151" />
      <stop
         id="stop3186"
         style="stop-color:#ffffff;stop-opacity:0"
         offset="1" />
    </linearGradient>
    <radialGradient
       cx="7.8185525"
       cy="8.5608768"
       r="11.268134"
       fx="7.8185525"
       fy="8.5608768"
       id="radialGradient3085"
       xlink:href="#linearGradient7012-661-145-733-759-865-745-661-970-94-99"
       gradientUnits="userSpaceOnUse"
       gradientTransform="matrix(1.8309812,0,0,1.1461838,0.07819703,1.7790325)" />
    <linearGradient
       id="linearGradient7012-661-145-733-759-865-745-661-970-94-99">
      <stop
         id="stop3975"
         style="stop-color:#a8a8a8;stop-opacity:1"
         offset="0" />
      <stop
         id="stop3977"
         style="stop-color:#818181;stop-opacity:1"
         offset="1" />
    </linearGradient>
    <linearGradient
       x1="9.7045717"
       y1="20.882006"
       x2="9.7045717"
       y2="4.3030405"
       id="linearGradient3087"
       xlink:href="#linearGradient3390-178-986-453-575"
       gradientUnits="userSpaceOnUse"
       gradientTransform="matrix(1.0775743,0,0,1.0923309,5.6143151,2.6093625)" />
    <linearGradient
       id="linearGradient3390-178-986-453-575">
      <stop
         id="stop3981"
         style="stop-color:#666666;stop-opacity:1"
         offset="0" />
      <stop
         id="stop3983"
         style="stop-color:#808080;stop-opacity:1"
         offset="1" />
    </linearGradient>
    <linearGradient
       x1="302.85715"
       y1="366.64789"
       x2="302.85715"
       y2="609.50507"
       id="linearGradient3581"
       xlink:href="#linearGradient5048-279"
       gradientUnits="userSpaceOnUse"
       gradientTransform="matrix(2.774389,0,0,1.969706,-1892.179,-872.8854)" />
    <linearGradient
       id="linearGradient5048-279">
      <stop
         id="stop3136"
         style="stop-color:#000000;stop-opacity:0"
         offset="0" />
      <stop
         id="stop3138"
         style="stop-color:#000000;stop-opacity:1"
         offset="0.5" />
      <stop
         id="stop3140"
         style="stop-color:#000000;stop-opacity:0"
         offset="1" />
    </linearGradient>
    <radialGradient
       cx="605.71429"
       cy="486.64789"
       r="117.14286"
       fx="605.71429"
       fy="486.64789"
       id="radialGradient3583"
       xlink:href="#linearGradient5060-824"
       gradientUnits="userSpaceOnUse"
       gradientTransform="matrix(2.774389,0,0,1.969706,-1891.633,-872.8854)" />
    <linearGradient
       id="linearGradient5060-824">
      <stop
         id="stop3144"
         style="stop-color:#000000;stop-opacity:1"
         offset="0" />
      <stop
         id="stop3146"
         style="stop-color:#000000;stop-opacity:0"
         offset="1" />
    </linearGradient>
    <radialGradient
       cx="605.71429"
       cy="486.64789"
       r="117.14286"
       fx="605.71429"
       fy="486.64789"
       id="radialGradient3585"
       xlink:href="#linearGradient5060-370"
       gradientUnits="userSpaceOnUse"
       gradientTransform="matrix(-2.774389,0,0,1.969706,112.7623,-872.8854)" />
    <linearGradient
       id="linearGradient5060-370">
      <stop
         id="stop3150"
         style="stop-color:#000000;stop-opacity:1"
         offset="0" />
      <stop
         id="stop3152"
         style="stop-color:#000000;stop-opacity:0"
         offset="1" />
    </linearGradient>
    <linearGradient
       x1="-28.531403"
       y1="17.955765"
       x2="-28.531403"
       y2="37.502914"
       id="linearGradient3995"
       xlink:href="#linearGradient11111"
       gradientUnits="userSpaceOnUse"
       gradientTransform="matrix(1.0909552,0,0,1.1016115,43.498483,-15.260518)" />
    <linearGradient
       x1="9.8763561"
       y1="2.6014566"
       x2="9.8763561"
       y2="23.061668"
       id="linearGradient3997"
       xlink:href="#linearGradient5157"
       gradientUnits="userSpaceOnUse"
       gradientTransform="matrix(1.0909552,0,0,1.1016115,5.9936208,0.7143067)" />
  </defs>
  <g
     id="layer1">
    <path
       d="m 6.7091098,3.5055727 c -0.093319,0 -0.173319,0.102174 -0.173319,0.207704 0,6.7148523 -0.017623,13.3820793 -0.030218,20.1158803 0.031729,0.985981 0.5861049,1.658082 0.9705839,1.661606 1.10485,0.01013 0.588321,-0.0044 1.143904,0 7.0588433,-0.01773 14.8139903,-0.08611 21.8728323,-0.10385 0.05915,0.0076 -1.61103,-0.11867 -1.594532,-1.592374 10e-7,-5.147771 -0.398374,-12.323719 -0.398374,-17.4714933 0.01414,-0.26267 0.03307,-0.823044 -0.35732,-0.823044 l -10.603265,0 c -0.698983,0 -1.863762,-1.994429 -2.482709,-1.994429 l -8.3475832,0 z"
       id="path4190"
       style="fill:url(#linearGradient3995);fill-opacity:1;stroke:url(#linearGradient3997);stroke-width:1.01114535;stroke-linecap:round;stroke-linejoin:round;stroke-miterlimit:4;stroke-opacity:1;stroke-dasharray:none;display:inline" />
    <g
       transform="matrix(0.5905269,0,0,0.5656841,4.94011,0.0996965)"
       id="g2901"
       style="stroke-width:1.88256383;stroke-miterlimit:4;stroke-dasharray:none">
      <g
         transform="matrix(0.02165152,0,0,0.01485743,43.0076,42.68539)"
         id="g2903"
         style="stroke-width:104.96237946;stroke-miterlimit:4;stroke-dasharray:none;display:inline">
        <rect
           width="1339.6335"
           height="478.35718"
           x="-1559.2523"
           y="-150.69685"
           id="rect2905"
           style="opacity:0.40206185;fill:url(#linearGradient3581);fill-opacity:1;fill-rule:nonzero;stroke:none;stroke-width:104.96237946;marker:none;visibility:visible;display:inline;overflow:visible" />
        <path
           d="m -219.61876,-150.68038 c 0,0 0,478.33079 0,478.33079 142.874166,0.90045 345.40022,-107.16966 345.40014,-239.196175 0,-132.026537 -159.436816,-239.134595 -345.40014,-239.134615 z"
           id="path2907"
           style="opacity:0.40206185;fill:url(#radialGradient3583);fill-opacity:1;fill-rule:nonzero;stroke:none;stroke-width:104.96237946;marker:none;visibility:visible;display:inline;overflow:visible" />
        <path
           d="m -1559.2523,-150.68038 c 0,0 0,478.33079 0,478.33079 -142.8742,0.90045 -345.4002,-107.16966 -345.4002,-239.196175 0,-132.026537 159.4368,-239.134595 345.4002,-239.134615 z"
           id="path2909"
           style="opacity:0.40206185;fill:url(#radialGradient3585);fill-opacity:1;fill-rule:nonzero;stroke:none;stroke-width:104.96237946;marker:none;visibility:visible;display:inline;overflow:visible" />
      </g>
    </g>
    <path
       d="m 9.48474,7.5000025 c 11.451981,0 14.455859,0.030751 22,0 0,1.724801 0.230237,17.9999945 -0.573975,17.9999945 -0.773637,0 -15.217787,-0.103624 -22.761926,-0.07287 1.594498,0 1.335901,-1.097342 1.335901,-17.9271235 z"
       id="path2913"
       style="fill:url(#radialGradient3085);fill-opacity:1;stroke:url(#linearGradient3087);stroke-width:1.00000012;stroke-linecap:round;stroke-linejoin:round;stroke-miterlimit:4;stroke-opacity:1;stroke-dasharray:none;display:inline" />
    <path
       d="m 30.731151,8.5101025 c 0,0 -18.323807,0.029942 -20.151025,0.029942 -0.08986,15.1887155 0.0266,15.0699035 -0.498957,16.2086135"
       id="path2915"
       style="opacity:0.4;fill:none;stroke:url(#radialGradient3082);stroke-width:0.98119509;stroke-linecap:butt;stroke-linejoin:miter;stroke-miterlimit:4;stroke-opacity:1;stroke-dasharray:none;display:inline" />
    <path
       d="m 10.355601,7.0000025 c -0.75011,0 -1.370861,0.576487 -1.370861,1.273109 l 0,7.2425725 c 0.00287,0.129567 0.072342,0.27729 0.182782,0.367787 0.110437,0.0905 0.251602,0.128679 0.411258,0.113165 0.00508,1.21e-4 0.010155,1.21e-4 0.015232,0 l 21.933774,-3.225209 c 0.254321,-0.03725 0.453398,-0.24187 0.456953,-0.480952 l 0,-4.0173635 c 0,-0.696622 -0.620751,-1.273109 -1.370861,-1.273109 l -20.258277,0 z"
       id="path2917"
       style="fill:url(#linearGradient3079);fill-opacity:1;fill-rule:evenodd;stroke:none" />
    <g
       transform="matrix(0.5905269,0,0,0.5656841,14.940109,18.099694)"
       id="g3490"
       style="stroke-width:1.88256383;stroke-miterlimit:4;stroke-dasharray:none">
      <g
         transform="matrix(0.02165152,0,0,0.01485743,43.0076,42.68539)"
         id="g5022"
         style="stroke-width:104.96237946;stroke-miterlimit:4;stroke-dasharray:none;display:inline">
        <rect
           width="1339.6335"
           height="478.35718"
           x="-1559.2523"
           y="-150.69685"
           id="rect2627"
           style="opacity:0.40206185;fill:url(#linearGradient3599);fill-opacity:1;fill-rule:nonzero;stroke:none;stroke-width:104.96237946;marker:none;visibility:visible;display:inline;overflow:visible" />
        <path
           d="m -219.61876,-150.68038 c 0,0 0,478.33079 0,478.33079 142.874166,0.90045 345.40022,-107.16966 345.40014,-239.196175 0,-132.026537 -159.436816,-239.134595 -345.40014,-239.134615 z"
           id="path2629"
           style="opacity:0.40206185;fill:url(#radialGradient3601);fill-opacity:1;fill-rule:nonzero;stroke:none;stroke-width:104.96237946;marker:none;visibility:visible;display:inline;overflow:visible" />
        <path
           d="m -1559.2523,-150.68038 c 0,0 0,478.33079 0,478.33079 -142.8742,0.90045 -345.4002,-107.16966 -345.4002,-239.196175 0,-132.026537 159.4368,-239.134595 345.4002,-239.134615 z"
           id="path2631"
           style="opacity:0.40206185;fill:url(#radialGradient3603);fill-opacity:1;fill-rule:nonzero;stroke:none;stroke-width:104.96237946;marker:none;visibility:visible;display:inline;overflow:visible" />
      </g>
    </g>
    <path
       d="m 16.693862,21.505572 c -0.09332,0 -0.173319,0.102174 -0.173319,0.207704 0,6.714853 -0.01762,13.38208 -0.03022,20.115881 0.03173,0.985981 0.586105,1.658082 0.970584,1.661606 1.10485,0.01013 0.588321,-0.0044 1.143904,0 7.058843,-0.01773 14.81399,-0.08611 21.872832,-0.10385 0.05915,0.0076 -1.61103,-0.11867 -1.594532,-1.592374 10e-7,-5.147771 -0.398374,-12.323719 -0.398374,-17.471494 0.01414,-0.26267 0.03307,-0.823044 -0.35732,-0.823044 l -10.603265,0 c -0.698983,0 -1.863762,-1.994429 -2.482709,-1.994429 l -8.347583,0 z"
       id="path3496"
       style="fill:url(#linearGradient3069);fill-opacity:1;stroke:url(#linearGradient3071);stroke-width:1.01114535;stroke-linecap:round;stroke-linejoin:round;stroke-miterlimit:4;stroke-opacity:1;stroke-dasharray:none;display:inline" />
    <path
       d="m 19.484739,25.500001 c 11.451981,0 14.455859,0.03075 22,0 0,1.724801 0.230237,17.999995 -0.573975,17.999995 -0.773637,0 -15.217787,-0.103624 -22.761926,-0.07287 1.594498,0 1.335901,-1.097342 1.335901,-17.927123 z"
       id="path3498"
       style="fill:url(#radialGradient3064);fill-opacity:1;stroke:url(#linearGradient3066);stroke-width:1.00000012;stroke-linecap:round;stroke-linejoin:round;stroke-miterlimit:4;stroke-opacity:1;stroke-dasharray:none;display:inline" />
    <path
       d="m 40.73115,26.510101 c 0,0 -18.323807,0.02994 -20.151025,0.02994 -0.08986,15.188715 0.0266,15.069903 -0.498957,16.208613"
       id="path3211"
       style="opacity:0.4;fill:none;stroke:url(#radialGradient3061);stroke-width:0.98119509;stroke-linecap:butt;stroke-linejoin:miter;stroke-miterlimit:4;stroke-opacity:1;stroke-dasharray:none;display:inline" />
    <path
       d="m 20.3556,25.000001 c -0.75011,0 -1.370861,0.576486 -1.370861,1.273109 l 0,7.242571 c 0.0029,0.129568 0.07234,0.277291 0.182782,0.367787 0.110437,0.0905 0.251602,0.128679 0.411258,0.113166 0.0051,1.21e-4 0.01015,1.21e-4 0.01523,0 l 21.933774,-3.225209 c 0.254321,-0.03725 0.453398,-0.241869 0.456954,-0.480951 l 0,-4.017364 c 0,-0.696623 -0.620752,-1.273109 -1.370861,-1.273109 l -20.258278,0 z"
       id="path2608"
       style="fill:url(#linearGradient3058);fill-opacity:1;fill-rule:evenodd;stroke:none" />
    <rect
       width="7"
       height="1"
       rx="0.53846157"
       ry="0.5"
       x="18"
       y="23"
       id="rect2545"
       style="fill:#eda374;fill-opacity:1;fill-rule:nonzero;stroke:none;stroke-width:1;marker:none;visibility:visible;display:block;overflow:visible;enable-background:accumulate" />
    <rect
       width="7"
       height="1"
       rx="0.53846157"
       ry="0.5"
       x="8"
       y="5.0000005"
       id="rect4196"
       style="fill:#b0b0b0;fill-opacity:1;fill-rule:nonzero;stroke:none;stroke-width:1;marker:none;visibility:visible;display:block;overflow:visible;enable-background:accumulate" />
  </g>
</svg>
