<?xml version="1.0" encoding="UTF-8" standalone="no"?>
<!-- Created with Inkscape (http://www.inkscape.org/) -->
<svg id="svg3294" xmlns="http://www.w3.org/2000/svg" height="48" width="48" version="1.1" xmlns:xlink="http://www.w3.org/1999/xlink">
 <defs id="defs3296">
  <radialGradient id="radialGradient2759" gradientUnits="userSpaceOnUse" cy="4.625" cx="62.625" gradientTransform="matrix(1 0 0 .34118 0 3.0471)" r="10.625">
   <stop id="stop8840" style="stop-color:#7f7f7f" offset="0"/>
   <stop id="stop8842" style="stop-color:#808080;stop-opacity:0" offset="1"/>
  </radialGradient>
  <linearGradient id="linearGradient2782" y2="29.484" gradientUnits="userSpaceOnUse" x2="31.364" gradientTransform="matrix(1.0113 0 0 1.0013 -.14757 1.8143)" y1="27.988" x1="32.893">
   <stop id="stop3378" style="stop-color:#575757" offset="0"/>
   <stop id="stop3380" style="stop-color:#333" offset="1"/>
  </linearGradient>
  <linearGradient id="linearGradient2780" y2="91.973" gradientUnits="userSpaceOnUse" x2="-164.72" gradientTransform="matrix(.39366 0 0 .38976 101.38 -4.2393)" y1="99.667" x1="-172.65">
   <stop id="stop3372" style="stop-color:#242424;stop-opacity:.99216" offset="0"/>
   <stop id="stop3374" style="stop-color:#656565" offset="1"/>
  </linearGradient>
  <linearGradient id="linearGradient2778" y2="67.35" gradientUnits="userSpaceOnUse" x2="201.87" gradientTransform="matrix(.39366 0 0 .38976 -50.209 -.47265)" y1="146.15" x1="277.57">
   <stop id="stop3384" style="stop-color:#fff" offset="0"/>
   <stop id="stop3386" style="stop-color:#fff;stop-opacity:0" offset="1"/>
  </linearGradient>
  <radialGradient id="radialGradient2776" gradientUnits="userSpaceOnUse" cy="21.818" cx="18.241" gradientTransform="matrix(1.4443 0 0 1.4395 -7.1517 -10.024)" r="8.3085">
   <stop id="stop3408" style="stop-color:#fff;stop-opacity:.64706" offset="0"/>
   <stop id="stop3410" style="stop-color:#fff;stop-opacity:.19608" offset="1"/>
  </radialGradient>
  <radialGradient id="radialGradient2774" gradientUnits="userSpaceOnUse" cy="13.078" cx="15.414" gradientTransform="matrix(2.979 0 0 2.3646 -31.891 -21.375)" r="6.6562">
   <stop id="stop3390" style="stop-color:#fff" offset="0"/>
   <stop id="stop3392" style="stop-color:#fff;stop-opacity:.24762" offset="1"/>
  </radialGradient>
  <linearGradient id="linearGradient2772" y2="4.5363" gradientUnits="userSpaceOnUse" x2="41.485" gradientTransform="matrix(.39167 0 0 .40008 .65348 2.6649)" y1="68.292" x1="41.542">
   <stop id="stop3402" style="stop-color:#333" offset="0"/>
   <stop id="stop3404" style="stop-color:#333;stop-opacity:.61224" offset="1"/>
  </linearGradient>
  <linearGradient id="linearGradient2770" y2="11.949" gradientUnits="userSpaceOnUse" x2="173.1" gradientTransform="matrix(.39167 0 0 .40008 -50.15 -.34601)" y1="75.319" x1="173.1">
   <stop id="stop3396" style="stop-color:#343434;stop-opacity:.97647" offset="0"/>
   <stop id="stop3398" style="stop-color:#929292" offset="1"/>
  </linearGradient>
  <linearGradient id="linearGradient2768" y2="11.949" gradientUnits="userSpaceOnUse" x2="173.1" gradientTransform="matrix(0.373 0 0 .38101 -46.816 .24566)" y1="75.319" x1="173.1">
   <stop id="stop3366" style="stop-color:#979797" offset="0"/>
   <stop id="stop3368" style="stop-opacity:.34118" offset="1"/>
  </linearGradient>
 </defs>
 <g id="layer1">
  <path id="path8836" style="opacity:.3;fill-rule:evenodd;fill:url(#radialGradient2759)" d="m73.25 4.625a10.625 3.625 0 1 1 -21.25 0 10.625 3.625 0 1 1 21.25 0z" transform="matrix(2.1499 0 0 1.6619 -110.64 34.289)"/>
  <path id="path11112" style="stroke-linejoin:round;fill-rule:evenodd;stroke:url(#linearGradient2782);stroke-linecap:round;stroke-width:1.2579;fill:url(#linearGradient2780)" d="m28.184 24.772 17.601 16.219-2.4398 3.2784-17.538-17.545 2.3761-1.9527z"/>
  <path id="path11122" style="fill:url(#linearGradient2778);fill-rule:evenodd" d="m43.375 43.205-14.116-17.427 17.079 14.839-2.963 2.588z"/>
  <path id="path13082" style="fill:#3e3e3e" d="m247.91 110.29a4.8668 2.6562 0 1 1 -9.7337 0 4.8668 2.6562 0 1 1 9.7337 0z" transform="matrix(.37019 -.41504 .47451 .30929 -97.503 109.58)"/>
  <path id="path4452" style="fill-rule:evenodd;fill:url(#radialGradient2776)" d="m30.253 16.575a12 11.96 0 1 1 -24 0 12 11.96 0 1 1 24 0z"/>
  <path id="path4462" style="opacity:.83422;fill-rule:evenodd;fill:url(#radialGradient2774)" d="m17.759 6.2793c-5.9828 0-10.827 4.4277-10.827 9.8955 0 1.5791 0.13415 3.2102 0.85432 4.5354 1.4388 0.48468 3.316 0.63634 4.9382 0.63634 7.0896 0 13.187-5.3718 13.625-11.751-1.99-2.1474-5.274-3.316-8.591-3.316z"/>
  <path id="path2298" style="stroke-linejoin:round;stroke:url(#linearGradient2772);stroke-linecap:round;stroke-width:1.2712;fill:url(#linearGradient2770)" d="m17.989 4.632c-7.3698 0-13.353 5.636-13.353 12.577 0 6.9414 5.9836 12.577 13.353 12.577 7.3698 0 13.353-5.636 13.353-12.577 0-6.9414-5.9836-12.577-13.353-12.577zm0.15911 0.82516c6.596 0 11.958 5.0395 11.958 11.252 0 6.2126-5.3621 11.252-11.958 11.252-6.596 0.000001-11.946-5.0395-11.946-11.252 0-6.2126 5.3498-11.252 11.946-11.252z"/>
  <path id="path4267" style="fill:url(#linearGradient2768)" d="m18.075 4.9946c-7.0187 0-12.705 5.3666-12.705 11.977 0 6.6107 5.6861 11.977 12.705 11.977 7.0187 0 12.717-5.3666 12.717-11.977 0-6.6107-5.6983-11.977-12.717-11.977zm0.07344 0.46259c6.596 0 11.435 5.0395 11.435 11.252 0 6.2126-4.839 10.718-11.435 10.718-6.596 0.000001-11.51-4.5052-11.51-10.718 0-6.2126 4.9139-11.252 11.51-11.252z"/>
 </g>
 <path id="path3643" style="fill:#4d4d4d" d="m26 23v-5h-2v3h-3v2h5zm-16 0v-5h2v3h3v2h-5zm16-13v5h-2v-3h-3v-2h5zm-16 0v5h2v-3h3v-2h-5z"/>
</svg>
