<svg xmlns="http://www.w3.org/2000/svg" viewBox="0 0 16.009 16"><title>elementary Symbolic Icon Theme</title><g transform="translate(147 332.01)" color="#000" fill="#bebebe"><path d="M-139.937-332a2.5 2.5 0 0 0-1.25.5c-.488.37-.813.955-.813 1.688v5.312s.236.507.5.507c.265 0 .5-.507.5-.507v-5.313c0-.45.172-.703.438-.906.266-.2.664-.3 1.062-.28.4.02.785.16 1.063.41.278.25.47.59.47 1.13 0 2.167 1.462 3.51 3 3.47.855-.022 1.687-.477 2.25-1.313l-.564-1c-.38.916-1.07 1.296-1.72 1.313-.96.024-1.97-.73-1.97-2.47a2.5 2.5 0 0 0-.82-1.875c-.477-.43-1.08-.627-1.688-.656-.153-.01-.32-.02-.47 0zm6.937 2v.125l.782 1.375.03-.125zm0 .344c-.006.106-.02.214-.03.312l.718 1.22c.023-.063.04-.123.062-.188zm-.062.5c-.014.09-.044.166-.063.25l.657 1.125c.03-.07.067-.13.093-.19zm-.094.437c-.023.09-.065.17-.093.25l.6 1.04c.04-.064.09-.12.128-.19z" style="text-indent:0;text-align:start;line-height:normal;text-transform:none;block-progression:tb;-inkscape-font-specification:Sans" font-weight="400" overflow="visible" font-family="Sans"/><rect height="8" rx=".727" ry=".727" width="7" x="-145" y="-326" overflow="visible"/></g></svg>