<?xml version="1.0" encoding="UTF-8" standalone="no"?>
<svg
   height="16"
   width="16"
   version="1.1"
   id="svg4"
   sodipodi:docname="drive-optical-symbolic.svg"
   inkscape:version="1.2.2 (b0a8486541, 2022-12-01)"
   xmlns:inkscape="http://www.inkscape.org/namespaces/inkscape"
   xmlns:sodipodi="http://sodipodi.sourceforge.net/DTD/sodipodi-0.dtd"
   xmlns="http://www.w3.org/2000/svg"
   xmlns:svg="http://www.w3.org/2000/svg">
  <sodipodi:namedview
     id="namedview9"
     pagecolor="#ffffff"
     bordercolor="#000000"
     borderopacity="0.25"
     inkscape:showpageshadow="2"
     inkscape:pageopacity="0.0"
     inkscape:pagecheckerboard="0"
     inkscape:deskcolor="#d1d1d1"
     showgrid="false"
     inkscape:zoom="45.254834"
     inkscape:cx="10.938058"
     inkscape:cy="12.639534"
     inkscape:window-width="1390"
     inkscape:window-height="1053"
     inkscape:window-x="107"
     inkscape:window-y="804"
     inkscape:window-maximized="0"
     inkscape:current-layer="g4" />
  <defs
     id="defs4" />
  <g
     color="#000000"
     transform="translate(-1133,-120.9998)"
     id="g4"
     style="fill:#555761">
    <path
       d="m 1135.48,122 c 0,0 -0.34,0.009 -0.69,0.197 a 1.564,1.564 0 0 0 -0.788,1.27 v -0.03 l -1,8 a 0.5,0.5 0 0 0 0,0.145 l 0.25,1.5 c 0.036,0.22 0.123,0.433 0.29,0.611 a 0.987,0.987 0 0 0 0.702,0.307 h 1.25 a 0.5,0.5 0 1 0 0,-1 h -1.224 c -0.01,-0.01 -0.023,-0.035 -0.031,-0.082 l -0.239,-1.428 0.99,-7.927 a 0.5,0.5 0 0 0 0,-0.03 c 0.023,-0.322 0.13,-0.382 0.262,-0.453 0.132,-0.07 0.258,-0.08 0.258,-0.08 h 10.99 a 0.5,0.5 0 0 0 0.035,-0.002 c 0,0 0.11,-0.002 0.223,0.053 0.112,0.054 0.22,0.094 0.244,0.48 a 0.5,0.5 0 0 0 0,0.031 l 0.99,7.928 -0.236,1.428 c -0.01,0.047 -0.027,0.072 -0.033,0.082 h -1.223 a 0.5,0.5 0 1 0 0,1 h 1.25 a 0.987,0.987 0 0 0 0.703,-0.307 c 0.166,-0.178 0.255,-0.392 0.291,-0.611 l 0.25,-1.5 a 0.5,0.5 0 0 0 0,-0.145 L 1148,123.469 c -0.042,-0.678 -0.435,-1.139 -0.807,-1.319 -0.371,-0.18 -0.726,-0.148 -0.726,-0.148 L 1146.5,122 h -11 a 0.5,0.5 0 0 0 -0.02,0 z"
       fill="#666"
       fill-rule="evenodd"
       font-family="sans-serif"
       font-weight="400"
       overflow="visible"
       style="line-height:normal;font-variant-ligatures:normal;font-variant-position:normal;font-variant-caps:normal;font-variant-numeric:normal;font-variant-alternates:normal;font-feature-settings:normal;text-indent:0;text-align:start;text-decoration-line:none;text-decoration-style:solid;text-decoration-color:#000000;text-transform:none;text-orientation:mixed;shape-padding:0;isolation:auto;mix-blend-mode:normal;fill:#555761"
       white-space="normal"
       id="path2" />
    <path
       d="m 1133.5,131 v 2 h 2 v -2 z m 13,0 v 2 h 2 v -2 z"
       fill="#666"
       fill-rule="evenodd"
       font-family="sans-serif"
       font-weight="400"
       overflow="visible"
       style="line-height:normal;font-variant-ligatures:normal;font-variant-position:normal;font-variant-caps:normal;font-variant-numeric:normal;font-variant-alternates:normal;font-feature-settings:normal;text-indent:0;text-align:start;text-decoration-line:none;text-decoration-style:solid;text-decoration-color:#000000;text-transform:none;text-orientation:mixed;shape-padding:0;isolation:auto;mix-blend-mode:normal;fill:#555761"
       white-space="normal"
       id="path3" />
    <path
       d="m 1135,131 v 1 h 12 v -1 z"
       fill="#666"
       fill-rule="evenodd"
       font-family="sans-serif"
       font-weight="400"
       overflow="visible"
       style="line-height:normal;font-variant-ligatures:normal;font-variant-position:normal;font-variant-caps:normal;font-variant-numeric:normal;font-variant-alternates:normal;font-feature-settings:normal;text-indent:0;text-align:start;text-decoration-line:none;text-decoration-style:solid;text-decoration-color:#000000;text-transform:none;text-orientation:mixed;shape-padding:0;isolation:auto;mix-blend-mode:normal;fill:#555761"
       white-space="normal"
       id="path4" />
    <path
       id="path442"
       style="color:#000000;fill-rule:evenodd;stroke-linecap:round;stroke-linejoin:round;-inkscape-stroke:none;paint-order:markers fill stroke"
       d="m 1135,131.9998 c 0,2.81555 2.7413,5 6,5 3.2587,0 6,-2.18445 6,-5 h -1 c 0,2.15501 -2.1835,4 -5,4 -2.8165,0 -5,-1.84499 -5,-4 z"
       sodipodi:nodetypes="csccscc" />
    <path
       id="ellipse1050"
       style="color:#000000;fill-rule:evenodd;stroke-linecap:round;stroke-linejoin:round;-inkscape-stroke:none;paint-order:markers fill stroke"
       d="m 1139,131.9998 c 0,1.01462 0.9464,1.75 2,1.75 1.0536,0 2,-0.73538 2,-1.75 h -1 c 0,0.36609 -0.3968,0.75 -1,0.75 -0.6032,0 -1,-0.38391 -1,-0.75 z"
       sodipodi:nodetypes="csccscc" />
    <rect
       style="opacity:1;fill:#555761;fill-opacity:1;fill-rule:evenodd;stroke:none;stroke-width:0.999999;stroke-linecap:round;stroke-linejoin:round;stroke-dasharray:none;paint-order:markers fill stroke;stop-color:#000000"
       id="rect1104"
       width="12"
       height="1"
       x="1135"
       y="130.9998" />
  </g>
</svg>
