<?xml version="1.0" encoding="UTF-8" standalone="no"?>
<svg
   xmlns:dc="http://purl.org/dc/elements/1.1/"
   xmlns:cc="http://creativecommons.org/ns#"
   xmlns:rdf="http://www.w3.org/1999/02/22-rdf-syntax-ns#"
   xmlns:svg="http://www.w3.org/2000/svg"
   xmlns="http://www.w3.org/2000/svg"
   height="16"
   id="svg7384"
   version="1.1"
   width="16.0002">
  <metadata
     id="metadata90">
    <rdf:RDF>
      <cc:Work
         rdf:about="">
        <dc:format>image/svg+xml</dc:format>
        <dc:type
           rdf:resource="http://purl.org/dc/dcmitype/StillImage" />
        <dc:title>elementary Symbolic Icon Theme</dc:title>
      </cc:Work>
    </rdf:RDF>
  </metadata>
  <title
     id="title9167">elementary Symbolic Icon Theme</title>
  <defs
     id="defs7386" />
  <g
     id="layer9"
     style="display:inline"
     transform="translate(-433.0002,232)" />
  <g
     id="layer10"
     style="display:inline"
     transform="translate(-433.0002,232)">
    <path
       d="m 435.5004,-231 c -1.385,0 -2.5,1.115 -2.5,2.5 l 0,8 c 0,1.385 1.115,2.5 2.5,2.5 l 0,-2 c -0.277,0 -0.5,-0.223 -0.5,-0.5 l 0,-1.5 0.5,0 11,0 0.5,0 0,1.5 c 0,0.277 -0.223,0.5 -0.5,0.5 l 0,2 c 1.385,0 2.5,-1.115 2.5,-2.5 l 0,-8 c 0,-1.385 -1.115,-2.5 -2.5,-2.5 l -11,0 z"
       id="path8478"
       style="fill:#bebebe;fill-opacity:1;stroke:none" />
    <path
       d="m 435.8754,-220.96124 c 0,2.69092 2.29876,4.90426 5.11583,4.90426 2.81708,0 5.13418,-2.21334 5.13418,-4.90426 l -2.017,0 c 0,1.65243 -1.38729,2.97759 -3.11718,2.97759 -1.72988,0 -3.09884,-1.32516 -3.09884,-2.97759 z"
       id="path40815"
       style="font-size:medium;font-style:normal;font-variant:normal;font-weight:normal;font-stretch:normal;text-indent:0;text-align:start;text-decoration:none;line-height:normal;letter-spacing:normal;word-spacing:normal;text-transform:none;direction:ltr;block-progression:tb;writing-mode:lr-tb;text-anchor:start;baseline-shift:baseline;color:#bebebe;fill:#bebebe;fill-opacity:1;stroke:none;stroke-width:3.4283843;marker:none;visibility:visible;display:inline;overflow:visible;enable-background:accumulate;font-family:Sans;-inkscape-font-specification:Sans" />
    <path
       d="m 439.0004,-221 c 0,1.09864 0.90135,2 2,2 1.09865,0 2,-0.90136 2,-2 l -1,0 c 0,0.5582 -0.44179,1 -1,1 -0.55821,0 -1,-0.4418 -1,-1 l -1,0 z"
       id="path40342-8"
       style="font-size:medium;font-style:normal;font-variant:normal;font-weight:normal;font-stretch:normal;text-indent:0;text-align:start;text-decoration:none;line-height:normal;letter-spacing:normal;word-spacing:normal;text-transform:none;direction:ltr;block-progression:tb;writing-mode:lr-tb;text-anchor:start;baseline-shift:baseline;color:#bebebe;fill:#bebebe;fill-opacity:1;stroke:none;stroke-width:1.87825239;marker:none;visibility:visible;display:inline;overflow:visible;enable-background:accumulate;font-family:Sans;-inkscape-font-specification:Sans" />
  </g>
  <g
     id="layer11"
     transform="translate(-433.0002,232)" />
  <g
     id="layer13"
     style="display:inline"
     transform="translate(-433.0002,232)" />
  <g
     id="layer14"
     transform="translate(-433.0002,232)" />
  <g
     id="layer15"
     style="display:inline"
     transform="translate(-433.0002,232)" />
  <g
     id="g71291"
     style="display:inline"
     transform="translate(-433.0002,232)" />
  <g
     id="g4953"
     style="display:inline"
     transform="translate(-433.0002,232)" />
  <g
     id="layer12"
     style="display:inline"
     transform="translate(-433.0002,232)" />
</svg>
