<?xml version="1.0" encoding="UTF-8" standalone="no"?>
<svg
   xmlns:dc="http://purl.org/dc/elements/1.1/"
   xmlns:cc="http://creativecommons.org/ns#"
   xmlns:rdf="http://www.w3.org/1999/02/22-rdf-syntax-ns#"
   xmlns:svg="http://www.w3.org/2000/svg"
   xmlns="http://www.w3.org/2000/svg"
   xmlns:sodipodi="http://sodipodi.sourceforge.net/DTD/sodipodi-0.dtd"
   xmlns:inkscape="http://www.inkscape.org/namespaces/inkscape"
   height="16"
   id="svg7384"
   version="1.1"
   width="16"
   inkscape:version="0.91 r13725"
   sodipodi:docname="drive-multidisk-symbolic.svg">
  <sodipodi:namedview
     pagecolor="#ffffff"
     bordercolor="#666666"
     borderopacity="1"
     objecttolerance="10"
     gridtolerance="10"
     guidetolerance="10"
     inkscape:pageopacity="0"
     inkscape:pageshadow="2"
     inkscape:window-width="640"
     inkscape:window-height="480"
     id="namedview104731" />
  <metadata
     id="metadata90">
    <rdf:RDF>
      <cc:Work
         rdf:about="">
        <dc:format>image/svg+xml</dc:format>
        <dc:type
           rdf:resource="http://purl.org/dc/dcmitype/StillImage" />
        <dc:title>elementary Symbolic Icon Theme</dc:title>
      </cc:Work>
    </rdf:RDF>
  </metadata>
  <title
     id="title9167">elementary Symbolic Icon Theme</title>
  <defs
     id="defs7386" />
  <g
     id="layer9"
     label="status"
     style="display:inline"
     transform="translate(-453.00043,212.03455)" />
  <g
     id="layer10"
     style="display:inline"
     transform="translate(-453.00043,212.03455)">
    <path
       d="m 455.81293,-211.03434 c -0.41942,0.0441 -0.76625,0.25877 -0.8125,0.5 l -1.00023,6.78434 0,2.25 c 0,0.277 0.223,0.5 0.5,0.5 l 13,0 c 0.277,0 0.5,-0.223 0.5,-0.5 l 0,-2.25 c 0,-0.277 -1,-6.75 -1,-6.75 -0.0606,-0.27344 -0.51558,-0.50214 -1,-0.5 l -9.99977,-0.0343 c -0.0312,-5.7e-4 -0.0625,-5.7e-4 -0.0937,0 -0.0312,-5.7e-4 -0.0625,-5.7e-4 -0.0937,0 z M 455.0002,-203 l 2,0 0,1 -2,0 z m -0.5,3 c -0.277,0 -0.5,0.223 -0.5,0.5 l 0,2 c 0,0.277 0.223,0.5 0.5,0.5 l 13,0 c 0.277,0 0.5,-0.223 0.5,-0.5 l 0,-2 c 0,-0.277 -0.223,-0.5 -0.5,-0.5 z m 0.5,1 2,0 0,1 -2,0 z"
       id="rect7182"
       style="fill:#bebebe;fill-opacity:1;stroke:none" />
  </g>
  <g
     id="layer13"
     style="display:inline"
     transform="translate(-453.00043,212.03455)" />
  <g
     id="layer14"
     transform="translate(-453.00043,212.03455)" />
  <g
     id="layer15"
     style="display:inline"
     transform="translate(-453.00043,212.03455)" />
  <g
     id="g71291"
     style="display:inline"
     transform="translate(-453.00043,212.03455)" />
  <g
     id="layer12"
     style="display:inline"
     transform="translate(-453.00043,212.03455)" />
</svg>
