<?xml version="1.0" encoding="UTF-8" standalone="no"?>
<svg
   xmlns:dc="http://purl.org/dc/elements/1.1/"
   xmlns:cc="http://creativecommons.org/ns#"
   xmlns:rdf="http://www.w3.org/1999/02/22-rdf-syntax-ns#"
   xmlns:svg="http://www.w3.org/2000/svg"
   xmlns="http://www.w3.org/2000/svg"
   version="1.1"
   width="16"
   height="16"
   viewBox="0 0 16 16"
   id="svg2">
  <metadata
     id="metadata10">
    <rdf:RDF>
      <cc:Work
         rdf:about="">
        <dc:format>image/svg+xml</dc:format>
        <dc:type
           rdf:resource="http://purl.org/dc/dcmitype/StillImage" />
        <dc:title />
      </cc:Work>
    </rdf:RDF>
  </metadata>
  <defs
     id="defs8" />
  <path
     style="display:inline;opacity:1;fill:#bebebe;fill-opacity:1;stroke:none;stroke-width:2;stroke-linecap:round;stroke-linejoin:round;stroke-miterlimit:4;stroke-dasharray:none;stroke-opacity:1;enable-background:new"
     d="m 7.6816468,0.00194734 c -2.01526,-0.043 -4.0460704,0.62603 -5.6835905,2.01659986 a 0.50022892,0.50022892 0 1 0 0.6474601,0.7627 c 2.8955,-2.45882986 7.1602606,-2.36818986 9.9482396,0.21191 a 0.50004977,0.50004977 0 1 0 0.67969,-0.7334 C 11.696726,0.80060732 9.696907,0.04494734 7.6816468,0.00194734 Z m -0.18164,1.99608986 a 6.499997,6.499997 0 0 0 -6.4990205,6.4697204 0.50004982,0.50004982 0 0 0 0,9.8e-4 0.50004982,0.50004982 0 0 0 -9.8e-4,0.0244 0.49999977,0.49999977 0 0 0 0,0.005 0.49999977,0.49999977 0 0 0 0,0.003 0.50004982,0.50004982 0 0 0 0,0.003 c -10e-6,0.004 1e-5,0.007 0,0.0107 a 0.49999977,0.49999977 0 0 0 9.8e-4,0.0225 c 6.1e-4,1.2840103 0.23632,2.5573994 0.69824,3.7558594 a 0.50036052,0.50036052 0 1 0 0.9335901,-0.36035 c -0.42135,-1.09322 -0.6361201,-2.2544295 -0.63281,-3.4257794 a 0.50004982,0.50004982 0 0 0 0,-0.009 5.4999975,5.4999975 0 0 1 5.5000004,-5.5000004 5.4999975,5.4999975 0 0 1 5.4999992,5.5000004 1.4999993,1.4999993 0 0 1 -1.5,1.5000003 1.4999993,1.4999993 0 0 1 -1.499999,-1.5000003 2.4999989,2.4999989 0 0 0 -2.5000002,-2.5000004 2.4999989,2.4999989 0 0 0 -2.4990204,2.4707004 2.4999989,2.4999989 0 0 0 -9.8e-4,0.0293 0.50004982,0.50004982 0 0 0 0,0.006 c -0.0101,3.5558594 2.8659704,6.4627394 6.4238296,6.4941394 a 0.50004982,0.50004982 0 1 0 0.009,-1 C 8.4128568,13.971607 5.9916968,11.524127 6.0002268,8.5069976 a 0.50004982,0.50004982 0 0 0 0,-0.009 1.4999993,1.4999993 0 0 1 1.5,-1.5000004 1.4999993,1.4999993 0 0 1 1.5000002,1.5000004 2.4999989,2.4999989 0 0 0 2.499999,2.4999994 2.4999989,2.4999989 0 0 0 2.5,-2.4999994 6.499997,6.499997 0 0 0 -6.4999992,-6.5000004 z m 0,2 a 4.4999979,4.4999979 0 0 0 -4.4990204,4.4687504 0.50004982,0.50004982 0 0 0 0,0.0137 4.4999979,4.4999979 0 0 0 -9.8e-4,0.0176 0.50004982,0.50004982 0 0 0 0,0.006 c -0.008,2.7337494 1.3068,5.3042394 3.5283204,6.9003794 a 0.50004982,0.50004982 0 0 0 0.3291,0.0967 0.50004982,0.50004982 0 0 0 0.0498,-0.006 0.50004982,0.50004982 0 0 0 0.2041,-0.90331 C 5.1510264,13.183397 3.9931764,10.918487 3.9999964,8.5068976 a 0.50004982,0.50004982 0 0 0 0,-0.009 3.4999984,3.4999984 0 0 1 3.5000004,-3.5000004 3.4999984,3.4999984 0 0 1 3.5000002,3.5000004 0.49999977,0.49999977 0 0 0 0.499999,0.4999999 0.49999977,0.49999977 0 0 0 0.5,-0.4999999 0.49999977,0.49999977 0 0 0 -0.002,-0.0469 4.4999979,4.4999979 0 0 0 -4.4980392,-4.4531204 z m -0.006,3.9814404 a 0.50004977,0.50004977 0 0 0 -0.49414,0.50586 c 0,0.002 10e-6,0.005 0,0.007 a 0.49999977,0.49999977 0 0 0 0,0.006 0.49999977,0.49999977 0 0 0 0.003,0.0527 c 0.0285,2.4387794 2.0103002,4.4256594 4.4570292,4.4472694 a 0.50004977,0.50004977 0 1 0 0.009,-1 c -1.927239,-0.017 -3.4689292,-1.57395 -3.4687492,-3.4999994 a 0.49999977,0.49999977 0 0 0 0,-0.01 0.50004977,0.50004977 0 0 0 -0.50586,-0.50879 z"
     id="path4449" />
</svg>
