<svg xmlns="http://www.w3.org/2000/svg" viewBox="0 0 16.009 16"><title>elementary Symbolic Icon Theme</title><g fill="#bebebe"><path d="M4.68 4.003C3.747 4 2.993 4.768 2.99 5.73c.017.743.022 1.506.014 2.268l2.922.015.02-4.003-1.267-.006zm2.406.01l-.02 4.005 2.923.015c.01-.765.03-1.532.03-2.268 0-.96-.74-1.74-1.677-1.744h-1.26zM3 9.096c-.01.832-.037 1.5-.037 2.266-.01 2.012 1.55 3.64 3.5 3.65 1.95.01 3.526-1.602 3.536-3.613a40.992 40.992 0 0 1-.04-2.31z"/><path d="M8.063.01c-.455.05-.884.22-1.25.5C6.323.88 6 1.463 6 2.196a.52.52 0 0 0 .5.507.52.52 0 0 0 .5-.507c0-.45.172-.704.438-.907.265-.21.663-.3 1.062-.28.4.01.784.15 1.063.4.278.25.468.58.468 1.12 0 2.166 1.47 3.51 3 3.47.86-.023 1.69-.48 2.25-1.313l-.56-1C14.35 4.604 13.65 4.984 13 5c-.96.024-1.97-.73-1.97-2.47a2.51 2.51 0 0 0-.81-1.87C9.744.236 9.14.04 8.53.01c-.15-.008-.316-.017-.467 0zM15 1.977v.156l.78 1.375c.013-.042.022-.084.032-.126zm0 .375c-.006.106-.02.214-.03.312l.718 1.22c.023-.063.04-.123.062-.188zm-.063.5c-.013.09-.044.166-.062.25l.656 1.125c.03-.06.07-.124.1-.188zm-.093.437c-.024.09-.065.17-.094.25l.594 1.03c.04-.07.088-.12.125-.19z" style="text-indent:0;text-align:start;line-height:normal;text-transform:none;block-progression:tb;-inkscape-font-specification:Sans" font-weight="400" color="#000" overflow="visible" font-family="Sans"/></g></svg>