<?xml version="1.0" encoding="UTF-8" standalone="no"?>
<svg
   xmlns:dc="http://purl.org/dc/elements/1.1/"
   xmlns:cc="http://creativecommons.org/ns#"
   xmlns:rdf="http://www.w3.org/1999/02/22-rdf-syntax-ns#"
   xmlns:svg="http://www.w3.org/2000/svg"
   xmlns="http://www.w3.org/2000/svg"
   height="16"
   id="svg7384"
   version="1.1"
   width="16.53125">
  <metadata
     id="metadata90">
    <rdf:RDF>
      <cc:Work
         rdf:about="">
        <dc:format>image/svg+xml</dc:format>
        <dc:type
           rdf:resource="http://purl.org/dc/dcmitype/StillImage" />
        <dc:title>elementary Symbolic Icon Theme</dc:title>
      </cc:Work>
    </rdf:RDF>
  </metadata>
  <title
     id="title9167">elementary Symbolic Icon Theme</title>
  <defs
     id="defs7386" />
  <g
     id="layer9"
     style="display:inline"
     transform="translate(-492.7504,232)" />
  <g
     id="layer10"
     style="display:inline"
     transform="translate(-492.7504,232)">
    <path
       d="m 501.0023,-231.99621 -1.0019,0.0275 0.0312,0.5 c 0.0471,0.46556 -0.20254,0.96951 -0.59375,1.21875 -0.35305,0.24895 -0.90493,0.1983 -1.59375,0.21875 -0.34855,0.003 -0.70297,0.0839 -1.03125,0.28125 -0.32828,0.19733 -0.64985,0.5469 -0.71875,1 -0.15832,0.89239 0.45382,1.63343 1.15625,1.78125 0.80729,0.17604 1.64453,0.0756 2.625,0 0.25579,-0.0197 0.60056,0.0205 0.8125,0.125 0.33374,0.26075 0.28443,0.40291 0.28125,0.875 l -4.90625,0 -0.75,0 -0.21875,0.71875 -1.96875,7 -0.375,1.28125 1.34375,0 13.875,0 1.3125,0 -0.375,-1.28125 -1.90625,-6.8125 -1.46875,2.21875 1.125,3.875 -11.28125,0 1.4375,-5 3.25,0 c 0.0102,-0.0106 0.0207,-0.0211 0.0312,-0.0312 l 1.34375,-0.875 0.53125,-1.0625 0,-0.0312 0,-0.46875 c -0.003,-0.61146 -0.40574,-1.09656 -0.84375,-1.3125 -0.43801,-0.21594 -0.93011,-0.25063 -1.34375,-0.21875 -0.99591,0.0768 -1.73951,0.12494 -2.3125,0 l -0.0312,0 c -0.19949,-0.042 -0.41743,-0.20971 -0.34375,-0.625 0.0189,-0.12428 0.0777,-0.19648 0.21875,-0.28125 0.14101,-0.0848 0.35246,-0.15487 0.53125,-0.15625 l 0.0312,0 c 0.56397,-0.0167 1.37705,0.11764 2.09375,-0.40625 0.81874,-0.59848 1.15373,-1.39515 1.0625,-2.125 z"
       id="path8540"
       style="font-size:medium;font-style:normal;font-variant:normal;font-weight:normal;font-stretch:normal;text-indent:0;text-align:start;text-decoration:none;line-height:normal;letter-spacing:normal;word-spacing:normal;text-transform:none;direction:ltr;block-progression:tb;writing-mode:lr-tb;text-anchor:start;baseline-shift:baseline;color:#000000;fill:#bebebe;fill-opacity:1;stroke:none;stroke-width:2;marker:none;visibility:visible;display:inline;overflow:visible;enable-background:new;font-family:Sans;-inkscape-font-specification:Sans" />
    <path
       d="m 506.12632,-229.92954 c 0,0 -2.51922,3.50643 -4.04033,5.96897 l -1.40567,1.1673 0.0373,1.57392 -0.76313,1.24524 0.69536,-0.001 0.74028,-0.58334 1.67496,-0.4626 0.5949,-1.48097 4.18505,-6.36462 z"
       id="path8552"
       style="font-size:medium;font-style:normal;font-variant:normal;font-weight:normal;font-stretch:normal;text-indent:0;text-align:start;text-decoration:none;line-height:normal;letter-spacing:normal;word-spacing:normal;text-transform:none;direction:ltr;block-progression:tb;writing-mode:lr-tb;text-anchor:start;baseline-shift:baseline;color:#000000;fill:#bebebe;fill-opacity:1;stroke:none;stroke-width:2;marker:none;visibility:visible;display:inline;overflow:visible;enable-background:new;font-family:Sans;-inkscape-font-specification:Sans" />
    <path
       d="m 34.648232,252.43883 a 0.57452428,0.57452428 0 1 1 -1.149049,0 0.57452428,0.57452428 0 1 1 1.149049,0 z"
       id="path8566"
       style="color:#000000;fill:#bebebe;fill-opacity:1;fill-rule:nonzero;stroke:none;stroke-width:1;marker:none;visibility:visible;display:inline;overflow:visible;enable-background:new"
       transform="matrix(1.1306064,0,0,1.1306064,468.55015,-514.97013)" />
  </g>
  <g
     id="layer11"
     transform="translate(-492.7504,232)" />
  <g
     id="layer13"
     style="display:inline"
     transform="translate(-492.7504,232)" />
  <g
     id="layer14"
     transform="translate(-492.7504,232)" />
  <g
     id="layer15"
     style="display:inline"
     transform="translate(-492.7504,232)" />
  <g
     id="g71291"
     style="display:inline"
     transform="translate(-492.7504,232)" />
  <g
     id="g4953"
     style="display:inline"
     transform="translate(-492.7504,232)" />
  <g
     id="layer12"
     style="display:inline"
     transform="translate(-492.7504,232)" />
</svg>
