<svg xmlns="http://www.w3.org/2000/svg" viewBox="0 0 16 16"><title>elementary Symbolic Icon Theme</title><path d="M2.5 3A2.495 2.495 0 0 0 0 5.5v6C0 12.885 1.115 14 2.5 14h11c1.385 0 2.5-1.115 2.5-2.5v-6C16 4.115 14.885 3 13.5 3h-11zm2 3C5.875 6 7 7.125 7 8.5c0 .565-.212 1.08-.53 1.5h3.06C9.214 9.58 9 9.065 9 8.5 9 7.125 10.125 6 11.5 6S14 7.125 14 8.5 12.875 11 11.5 11h-7A2.508 2.508 0 0 1 2 8.5C2 7.125 3.125 6 4.5 6zm0 1C3.666 7 3 7.666 3 8.5S3.666 10 4.5 10C5.335 10 6 9.334 6 8.5S5.335 7 4.5 7zm7 0c-.834 0-1.5.666-1.5 1.5s.666 1.5 1.5 1.5c.835 0 1.5-.666 1.5-1.5S12.335 7 11.5 7z" fill="#bebebe"/></svg>