<svg xmlns="http://www.w3.org/2000/svg" viewBox="0 0 16 16"><title>elementary Symbolic Icon Theme</title><path d="M4.563 2A1.58 1.58 0 0 0 3 3.563v8.874C3 13.287 3.714 14 4.563 14h7.875A1.58 1.58 0 0 0 14 12.437V4.532L11.562 2zM5 4h6.125l.875.938V12H5z" style="text-indent:0;text-align:start;line-height:normal;text-transform:none;block-progression:tb;-inkscape-font-specification:sans-serif" font-size="xx-small" font-weight="400" color="#bebebe" fill="#bebebe" overflow="visible" font-family="sans-serif"/><path d="M6.938 5A.938.938 0 0 0 6 5.938v2.03c0 .518.42.938.938.938H7V6h1v2.906h2.063c.517 0 .937-.42.937-.937V5.935A.938.938 0 0 0 10.062 5H10v3.03H9V5H6.937z" color="#bebebe" fill="#bebebe" overflow="visible"/></svg>