<?xml version="1.0" encoding="UTF-8" standalone="no"?>
<!-- Created with Inkscape (http://www.inkscape.org/) -->

<svg
   xmlns:svg="http://www.w3.org/2000/svg"
   xmlns="http://www.w3.org/2000/svg"
   xmlns:xlink="http://www.w3.org/1999/xlink"
   version="1.0"
   width="64"
   height="64"
   id="svg2696">
  <defs
     id="defs2698">
    <linearGradient
       id="linearGradient3484">
      <stop
         id="stop3486"
         style="stop-color:#bdbdbd;stop-opacity:1"
         offset="0" />
      <stop
         id="stop3488"
         style="stop-color:#d0d0d0;stop-opacity:1"
         offset="1" />
    </linearGradient>
    <radialGradient
       cx="3"
       cy="5.01718"
       r="21"
       fx="3"
       fy="5.01718"
       id="radialGradient2788"
       xlink:href="#linearGradient3484"
       gradientUnits="userSpaceOnUse"
       gradientTransform="matrix(-1.274898e-8,1.7142916,-2.159331,-1.4599595e-8,12.809361,3.6088808)" />
    <linearGradient
       id="linearGradient6404">
      <stop
         id="stop6406"
         style="stop-color:#f9f9f9;stop-opacity:1"
         offset="0" />
      <stop
         id="stop6408"
         style="stop-color:#c9c9c9;stop-opacity:1"
         offset="1" />
    </linearGradient>
    <linearGradient
       x1="62.988873"
       y1="13.182598"
       x2="62.988873"
       y2="16.19013"
       id="linearGradient2786"
       xlink:href="#linearGradient6404"
       gradientUnits="userSpaceOnUse"
       gradientTransform="translate(-50.940898,0.75187968)" />
    <linearGradient
       id="linearGradient5060-820">
      <stop
         id="stop2681"
         style="stop-color:black;stop-opacity:1"
         offset="0" />
      <stop
         id="stop2683"
         style="stop-color:black;stop-opacity:0"
         offset="1" />
    </linearGradient>
    <radialGradient
       cx="605.71429"
       cy="486.64789"
       r="117.14286"
       fx="605.71429"
       fy="486.64789"
       id="radialGradient7600-312"
       xlink:href="#linearGradient5060-820"
       gradientUnits="userSpaceOnUse"
       gradientTransform="matrix(-0.03212956,0,0,0.03705882,23.363215,25.412461)" />
    <linearGradient
       id="linearGradient5060-179">
      <stop
         id="stop2675"
         style="stop-color:black;stop-opacity:1"
         offset="0" />
      <stop
         id="stop2677"
         style="stop-color:black;stop-opacity:0"
         offset="1" />
    </linearGradient>
    <radialGradient
       cx="605.71429"
       cy="486.64789"
       r="117.14286"
       fx="605.71429"
       fy="486.64789"
       id="radialGradient7598-526"
       xlink:href="#linearGradient5060-179"
       gradientUnits="userSpaceOnUse"
       gradientTransform="matrix(0.03212956,0,0,0.03705882,25.337002,25.412461)" />
    <linearGradient
       id="linearGradient5048-585">
      <stop
         id="stop2667"
         style="stop-color:black;stop-opacity:0"
         offset="0" />
      <stop
         id="stop2669"
         style="stop-color:black;stop-opacity:1"
         offset="0.5" />
      <stop
         id="stop2671"
         style="stop-color:black;stop-opacity:0"
         offset="1" />
    </linearGradient>
    <linearGradient
       x1="302.85715"
       y1="366.64789"
       x2="302.85715"
       y2="609.50507"
       id="linearGradient7596-975"
       xlink:href="#linearGradient5048-585"
       gradientUnits="userSpaceOnUse"
       gradientTransform="matrix(0.08429052,0,0,0.03705882,-6.1148626,25.412461)" />
    <linearGradient
       id="linearGradient3390-178-986-453">
      <stop
         id="stop3624"
         style="stop-color:#bb5e12;stop-opacity:1"
         offset="0" />
      <stop
         id="stop3626"
         style="stop-color:#cd8033;stop-opacity:1"
         offset="1" />
    </linearGradient>
    <linearGradient
       x1="82.453476"
       y1="45.114193"
       x2="65.340263"
       y2="15.943953"
       id="linearGradient2779"
       xlink:href="#linearGradient3390-178-986-453"
       gradientUnits="userSpaceOnUse"
       gradientTransform="matrix(1.0000217,0,0,0.99733743,-53.767083,0.68178533)" />
    <linearGradient
       id="linearGradient7012-661-145-733-759-865-745-661-970-94">
      <stop
         id="stop3618"
         style="stop-color:#edd563;stop-opacity:1"
         offset="0" />
      <stop
         id="stop3620"
         style="stop-color:#e08223;stop-opacity:1"
         offset="1" />
    </linearGradient>
    <radialGradient
       cx="63.969177"
       cy="14.113381"
       r="23.097054"
       fx="63.969177"
       fy="14.113381"
       id="radialGradient2777"
       xlink:href="#linearGradient7012-661-145-733-759-865-745-661-970-94"
       gradientUnits="userSpaceOnUse"
       gradientTransform="matrix(1.5647265,-9.4889677e-8,6.1773627e-8,1.0131831,-86.214967,8.9201019)" />
    <linearGradient
       id="linearGradient6129-963-697-142-998-580-273">
      <stop
         id="stop2661"
         style="stop-color:#0a0a0a;stop-opacity:0.498"
         offset="0" />
      <stop
         id="stop2663"
         style="stop-color:#0a0a0a;stop-opacity:0"
         offset="1" />
    </linearGradient>
    <linearGradient
       x1="22.934725"
       y1="49.629246"
       x2="22.809399"
       y2="36.657963"
       id="linearGradient2774"
       xlink:href="#linearGradient6129-963-697-142-998-580-273"
       gradientUnits="userSpaceOnUse"
       gradientTransform="matrix(1.1446925,0,0,0.9977536,-3.4661413,1.8507222)" />
    <linearGradient
       id="linearGradient6087-437-184-795-110-662-495">
      <stop
         id="stop2693"
         style="stop-color:white;stop-opacity:0.40000001"
         offset="0" />
      <stop
         id="stop2695"
         style="stop-color:white;stop-opacity:0"
         offset="1" />
    </linearGradient>
    <radialGradient
       cx="7.2646537"
       cy="8.3021259"
       r="20.979567"
       fx="7.2646537"
       fy="8.3021259"
       id="radialGradient2771"
       xlink:href="#linearGradient6087-437-184-795-110-662-495"
       gradientUnits="userSpaceOnUse"
       gradientTransform="matrix(0,1.2079744,-1.6271642,0,26.148285,8.8683023)" />
    <linearGradient
       id="linearGradient8265-821-176-38-919-66-249">
      <stop
         id="stop2687"
         style="stop-color:white;stop-opacity:0.27450982"
         offset="0" />
      <stop
         id="stop2689"
         style="stop-color:white;stop-opacity:0.07843138"
         offset="1" />
    </linearGradient>
    <linearGradient
       x1="11.566265"
       y1="22.292103"
       x2="15.214532"
       y2="33.95525"
       id="linearGradient2768"
       xlink:href="#linearGradient8265-821-176-38-919-66-249"
       gradientUnits="userSpaceOnUse"
       gradientTransform="translate(0,0.90227125)" />
    <linearGradient
       x1="-172.65306"
       y1="99.667191"
       x2="-166.63983"
       y2="93.653961"
       id="linearGradient2767-168"
       xlink:href="#linearGradient11114-935"
       gradientUnits="userSpaceOnUse"
       gradientTransform="translate(258.94136,-13.269885)" />
    <linearGradient
       id="linearGradient11114-935">
      <stop
         id="stop3012"
         style="stop-color:#242424;stop-opacity:0.99215686"
         offset="0" />
      <stop
         id="stop3014"
         style="stop-color:#656565;stop-opacity:1"
         offset="1" />
    </linearGradient>
    <linearGradient
       x1="277.573"
       y1="146.1507"
       x2="201.87128"
       y2="67.350082"
       id="linearGradient2769-669"
       xlink:href="#linearGradient12093-430"
       gradientUnits="userSpaceOnUse"
       gradientTransform="translate(-127.09317,-2.645081)" />
    <linearGradient
       id="linearGradient12093-430">
      <stop
         id="stop3018"
         style="stop-color:white;stop-opacity:1"
         offset="0" />
      <stop
         id="stop3020"
         style="stop-color:white;stop-opacity:0"
         offset="1" />
    </linearGradient>
    <filter
       color-interpolation-filters="sRGB"
       id="filter13078">
      <feGaussianBlur
         id="feGaussianBlur13080"
         stdDeviation="0.66072995" />
    </filter>
    <radialGradient
       cx="7.2646537"
       cy="8.3021259"
       r="20.979567"
       fx="7.2646537"
       fy="8.3021259"
       id="radialGradient2771-882"
       xlink:href="#linearGradient6087-437-184-795-110-662-495-447"
       gradientUnits="userSpaceOnUse"
       gradientTransform="matrix(0,1.2079744,-1.6271642,0,26.371748,8.2664685)" />
    <linearGradient
       id="linearGradient6087-437-184-795-110-662-495-447">
      <stop
         id="stop3024"
         style="stop-color:white;stop-opacity:0.40000001"
         offset="0" />
      <stop
         id="stop3026"
         style="stop-color:white;stop-opacity:0"
         offset="1" />
    </linearGradient>
    <radialGradient
       cx="15.414371"
       cy="13.078408"
       r="6.65625"
       fx="15.414371"
       fy="13.078408"
       id="radialGradient2773-3"
       xlink:href="#linearGradient4467-844"
       gradientUnits="userSpaceOnUse"
       gradientTransform="matrix(2.0709796,0,0,1.6093623,-75.801052,-6.777836)" />
    <linearGradient
       id="linearGradient4467-844">
      <stop
         id="stop3030"
         style="stop-color:white;stop-opacity:1"
         offset="0" />
      <stop
         id="stop3032"
         style="stop-color:white;stop-opacity:0.24761905"
         offset="1" />
    </linearGradient>
    <linearGradient
       x1="173.09576"
       y1="75.31868"
       x2="173.09576"
       y2="11.949074"
       id="linearGradient2775-524"
       xlink:href="#linearGradient2300-705"
       gradientUnits="userSpaceOnUse"
       gradientTransform="matrix(0.272289,0,0,0.272289,-88.49468,7.5340783)" />
    <linearGradient
       id="linearGradient2300-705">
      <stop
         id="stop3036"
         style="stop-color:#343434;stop-opacity:0.97647059"
         offset="0" />
      <stop
         id="stop3038"
         style="stop-color:#939393;stop-opacity:1"
         offset="1" />
    </linearGradient>
    <linearGradient
       x1="41.541653"
       y1="68.291702"
       x2="41.485142"
       y2="4.5362983"
       id="linearGradient2777-535"
       xlink:href="#linearGradient11104-748"
       gradientUnits="userSpaceOnUse"
       gradientTransform="matrix(0.272289,0,0,0.272289,-53.175758,9.5832993)" />
    <linearGradient
       id="linearGradient11104-748">
      <stop
         id="stop3042"
         style="stop-color:#333;stop-opacity:1"
         offset="0" />
      <stop
         id="stop3044"
         style="stop-color:#333;stop-opacity:0.6122449"
         offset="1" />
    </linearGradient>
    <linearGradient
       id="linearGradient3390-178-986-453-714">
      <stop
         id="stop3048"
         style="stop-color:#666;stop-opacity:1"
         offset="0" />
      <stop
         id="stop3050"
         style="stop-color:gray;stop-opacity:1"
         offset="1" />
    </linearGradient>
    <filter
       color-interpolation-filters="sRGB"
       id="filter10131">
      <feGaussianBlur
         id="feGaussianBlur10133"
         stdDeviation="0.31195313" />
    </filter>
    <linearGradient
       x1="82.453476"
       y1="45.114193"
       x2="65.340263"
       y2="15.943953"
       id="linearGradient2960"
       xlink:href="#linearGradient3390-178-986-453-714"
       gradientUnits="userSpaceOnUse"
       gradientTransform="translate(-53.765393,-0.1141929)" />
  </defs>
  <g
     transform="matrix(1.3407707,0,0,1.33,-0.37331382,-2.5100021)"
     id="layer1">
    <path
       d="m 4.2173042,9.112412 c -0.690271,0.00767 -1.2267276,0.49252 -1.2267276,1.150374 0,5.514455 0.032088,9.739577 0,14.750431 1.4354706,0 42.4350234,-3.710639 42.4350234,-5.303171 l 0,-6.451519 c 0,-0.657853 -0.479808,-1.157925 -1.170083,-1.150254 l -20.255519,0 c -2.047483,0 -3.498891,-3.0067677 -5,-3.0067677 L 4.2173042,9.112412 z"
       id="path3468"
       style="fill:url(#linearGradient2786);fill-opacity:1;stroke:url(#radialGradient2788);stroke-width:0.74885362;stroke-linecap:round;stroke-linejoin:round;stroke-miterlimit:4;stroke-opacity:1;stroke-dasharray:none;display:inline" />
    <g
       transform="matrix(0.9583333,0,0,0.6666667,1.0000008,15.75188)"
       id="g7591"
       style="opacity:0.4">
      <rect
         width="40.700279"
         height="9"
         x="4"
         y="39"
         id="rect4173"
         style="fill:url(#linearGradient7596-975);fill-opacity:1;fill-rule:nonzero;stroke:none;stroke-width:1;marker:none;visibility:visible;display:inline;overflow:visible" />
      <path
         d="m 44.700217,39.00031 c 0,0 0,8.999504 0,8.999504 1.654593,0.01694 4.000001,-2.016333 4,-4.500331 0,-2.483999 -1.846402,-4.499173 -4,-4.499173 z"
         id="path5058"
         style="fill:url(#radialGradient7598-526);fill-opacity:1;fill-rule:nonzero;stroke:none;stroke-width:1;marker:none;visibility:visible;display:inline;overflow:visible" />
      <path
         d="m 4,39.00031 c 0,0 0,8.999504 0,8.999504 C 2.3454068,48.016755 0,45.983481 0,43.499483 0,41.015484 1.8464008,39.00031 4,39.00031 z"
         id="path5018"
         style="fill:url(#radialGradient7600-312);fill-opacity:1;fill-rule:nonzero;stroke:none;stroke-width:1;marker:none;visibility:visible;display:inline;overflow:visible" />
    </g>
    <path
       d="m 2.1623791,17.276868 c -1.0727303,0.123364 -0.6488256,1.398384 -0.7343545,2.115364 0.3925406,8.447538 0.9379939,16.724805 1.3281174,25.1724 0.3418434,0.963122 1.5944695,0.469906 2.3881688,0.592169 13.1938302,0 26.3876622,0 39.5814942,0 1.089403,-0.106367 0.636474,-1.403933 0.789717,-2.146531 0.392548,-8.447538 0.938293,-16.724805 1.328412,-25.1724 -0.251176,-0.951748 -1.668879,-0.422885 -2.412509,-0.561002 -14.089679,0 -28.179362,0 -42.2690459,0 z"
       id="path3388"
       style="fill:url(#radialGradient2777);fill-opacity:1;stroke:url(#linearGradient2779);stroke-width:0.74786413;stroke-linecap:round;stroke-linejoin:round;stroke-miterlimit:4;stroke-opacity:1;stroke-dasharray:none;stroke-dashoffset:0" />
    <path
       d="m 2.0582428,16.817026 43.8964752,4.03e-4 c 0.63416,0 1.045155,0.444611 1.045155,0.997367 l -1.244236,26.939331 c 0,0.552755 -0.510532,0.997753 -1.14469,0.997753 l -41.2089348,0 c -0.6341599,0 -1.1446927,-0.444998 -1.1446927,-0.997753 L 1.0130886,17.81478 c 0,-0.552757 0.4109943,-0.997754 1.0451542,-0.997754 z"
       id="path6127"
       style="opacity:0.4;fill:url(#linearGradient2774);fill-opacity:1;stroke:none" />
    <path
       d="m 46.276537,18.101835 c -13.53125,0 -30.46875,0 -44.0000002,0 0.2394145,7.845535 0.7708333,16.354167 1.15625,24.53125"
       id="path2435"
       style="fill:none;stroke:url(#radialGradient2771);stroke-width:0.74885362;stroke-linecap:round;stroke-linejoin:round;stroke-miterlimit:4;stroke-opacity:1;stroke-dasharray:none" />
    <path
       d="m 45.75,16.902271 c -14.54959,0.07335 -29.104584,-0.02115 -43.65625,0 -1.80676016,0.411117 -0.8344067,2.46661 -0.9724264,3.771525 0.2220295,4.163347 0.3230667,8.344939 0.6204615,12.496882 C 16.742298,30.80788 31.66833,28.563424 46.40625,26.121021 47.187241,23.534443 47.193628,20.450427 47.063607,17.691797 46.834471,17.187235 46.276599,16.890953 45.75,16.902271 z"
       id="path3455"
       style="fill:url(#linearGradient2768);fill-opacity:1;stroke:none" />
    <rect
       width="14.170957"
       height="1.5948954"
       rx="1"
       ry="0.74911523"
       x="4.7534704"
       y="10.909776"
       id="rect3562"
       style="fill:#edbd74;fill-opacity:1;fill-rule:nonzero;stroke:none;stroke-width:1;marker:none;visibility:visible;display:block;overflow:visible;enable-background:accumulate" />
  </g>
  <g
     transform="matrix(1.33,0,0,1.33,92.198821,10.49457)"
     id="g2664">
    <g
       transform="matrix(0.272289,0,0,0.272289,-54.190059,8.0618533)"
       id="g20913">
      <path
         d="m 73.007297,61.163396 44.712723,41.613814 -6.19781,8.41129 -44.550783,-45.015017 6.03587,-5.010087 z"
         id="path11112"
         style="fill:url(#linearGradient2767-168);fill-opacity:1;fill-rule:evenodd;stroke:#333;stroke-width:0.17120244;stroke-linecap:round;stroke-linejoin:round;stroke-miterlimit:4;stroke-opacity:1;stroke-dasharray:none" />
      <path
         d="M 110.63681,109.41771 74.7781,64.704998 l 43.38462,38.072212 -7.52591,6.6405 z"
         id="path11122"
         style="fill:url(#linearGradient2769-669);fill-opacity:1;fill-rule:evenodd;stroke:none;filter:url(#filter13078)" />
      <path
         d="m 118.49016,103.08607 a 2.7266393,5.4532785 41.820173 1 1 -7.27243,8.12801 2.7266393,5.4532785 41.820173 1 1 7.27243,-8.12801 z"
         id="path13082"
         style="fill:#3e3e3e;fill-opacity:1;stroke:none" />
    </g>
    <path
       d="m 25.897786,18.478292 a 8.3085051,8.3085051 0 1 1 -16.61701,0 8.3085051,8.3085051 0 1 1 16.61701,0 z"
       transform="matrix(1.0040995,0,0,0.9796836,-58.601963,0.9474585)"
       id="path4452"
       style="fill:url(#radialGradient2771-882);fill-opacity:1;fill-rule:evenodd;stroke:none;stroke-width:1.07456946;marker:none;visibility:visible" />
    <path
       d="m -41.284234,12.043182 c -4.159261,0 -7.527314,3.013454 -7.527314,6.734818 0,1.074746 0.335699,2.063614 0.836368,2.965537 1.000266,0.32987 2.06283,0.554306 3.19059,0.554306 4.928695,0 8.864912,-3.474145 9.169073,-7.815715 -1.382507,-1.461745 -3.362525,-2.438946 -5.668717,-2.438946 z"
       id="path4462"
       style="opacity:0.6;fill:url(#radialGradient2773-3);fill-opacity:1;fill-rule:evenodd;stroke:none;stroke-width:1;marker:none;visibility:visible;display:inline;overflow:visible" />
    <path
       d="m -41.123977,10.922062 c -5.123534,0 -9.283356,3.835788 -9.283353,8.560086 0,4.724296 4.159819,8.560084 9.283353,8.560085 5.123531,0 9.283353,-3.835789 9.283353,-8.560085 0,-4.724298 -4.159819,-8.560086 -9.283353,-8.560086 z m 0.110617,0.561596 c 4.585595,0 8.313324,3.429852 8.313324,7.658128 0,4.228276 -3.727729,7.658128 -8.313324,7.658128 -4.585597,10e-7 -8.304814,-3.429851 -8.304814,-7.658128 0,-4.228276 3.719217,-7.658128 8.304814,-7.658128 z"
       id="path2298"
       style="fill:url(#linearGradient2775-524);fill-opacity:1;stroke:url(#linearGradient2777-535);stroke-width:0.07518797;stroke-linecap:round;stroke-linejoin:round;stroke-miterlimit:4;stroke-opacity:1;stroke-dasharray:none" />
    <path
       d="m 48.577332,9.920532 c -17.91993,0 -32.4375,13.413928 -32.4375,29.937501 0,16.523571 14.51756,29.937502 32.4375,29.9375 17.91993,0 32.46875,-13.413931 32.46875,-29.9375 0,-16.523572 -14.54883,-29.937501 -32.46875,-29.937501 z m 0.1875,1.15625 c 16.84091,0 30.53125,12.596366 30.53125,28.125001 0,15.528632 -13.69034,28.125 -30.53125,28.125 -16.84092,2e-6 -30.5,-12.596366 -30.5,-28.125 0,-15.528635 13.65908,-28.125001 30.5,-28.125001 z"
       transform="matrix(0.272289,0,0,0.272289,-54.291487,8.4675723)"
       id="path4267"
       style="fill:url(#linearGradient2960);fill-opacity:1;stroke:none;display:inline;filter:url(#filter10131)" />
  </g>
</svg>
