<?xml version="1.0" encoding="UTF-8" standalone="no"?>
<!-- Created with Inkscape (http://www.inkscape.org/) -->
<svg id="svg2453" xmlns="http://www.w3.org/2000/svg" height="64" width="64" version="1.1" xmlns:xlink="http://www.w3.org/1999/xlink">
 <defs id="defs2455">
  <radialGradient id="radialGradient2470" gradientUnits="userSpaceOnUse" cy="108.02" cx="62.712" gradientTransform="matrix(.34177 0 0 .096822 8.9999 26.467)" r="47.383">
   <stop id="stop5062" offset="0"/>
   <stop id="stop5064" style="stop-opacity:0" offset="1"/>
  </radialGradient>
  <linearGradient id="linearGradient2474" y2="68.298" xlink:href="#linearGradient2793" spreadMethod="reflect" gradientUnits="userSpaceOnUse" x2="37.462" gradientTransform="matrix(.83279 0 0 .75432 5.0245 -4.3199)" y1="52.355" x1="27.405"/>
  <linearGradient id="linearGradient2505" y2="57.746" gradientUnits="userSpaceOnUse" x2="29.233" gradientTransform="matrix(.77128 0 0 .78333 7.4727 -5.9068)" y1="-10.246" x1="29.233">
   <stop id="stop4296" style="stop-color:#e6e7e7" offset="0"/>
   <stop id="stop4298" style="stop-color:#676b73" offset="1"/>
  </linearGradient>
  <linearGradient id="linearGradient2503" y2="39.751" gradientUnits="userSpaceOnUse" x2="35.515" gradientTransform="matrix(.93305 0 0 1.1089 11.093 -19.891)" y1="38.13" x1="4.885">
   <stop id="stop3317" style="stop-color:#f8f8f8;stop-opacity:.15464" offset="0"/>
   <stop id="stop3322" style="stop-color:#b0b2b6;stop-opacity:.17526" offset=".49817"/>
   <stop id="stop3319" style="stop-color:#5b5e62;stop-opacity:.32990" offset=".83784"/>
   <stop id="stop2342" style="stop-color:#fff;stop-opacity:.15464" offset="1"/>
  </linearGradient>
  <linearGradient id="linearGradient2499" y2="17.834" xlink:href="#linearGradient2793" spreadMethod="reflect" gradientUnits="userSpaceOnUse" x2="62.373" gradientTransform="matrix(.45511 0 0 .40902 .92763 -8.9343)" y1="17.834" x1="97.718"/>
  <linearGradient id="linearGradient2495" y2="37.217" xlink:href="#linearGradient2793" spreadMethod="reflect" gradientUnits="userSpaceOnUse" x2="64" gradientTransform="matrix(.44131 0 0 .40470 1.8109 -8.9473)" y1="37.217" x1="32.627"/>
  <linearGradient id="linearGradient2492" y2="31.226" gradientUnits="userSpaceOnUse" x2="63.999" gradientTransform="matrix(.42377 0 0 .43038 2.9335 -10.684)" y1="6.4738" x1="63.999">
   <stop id="stop4304" style="stop-color:#c0c0c0" offset="0"/>
   <stop id="stop4306" style="stop-color:#abacb0" offset="1"/>
  </linearGradient>
  <linearGradient id="linearGradient2793">
   <stop id="stop2795" style="stop-color:#555753" offset="0"/>
   <stop id="stop2797" style="stop-color:#d3d7cf;stop-opacity:0" offset="1"/>
  </linearGradient>
  <linearGradient id="linearGradient2489" y2="10.9" xlink:href="#linearGradient2793" spreadMethod="reflect" gradientUnits="userSpaceOnUse" x2="55.992" gradientTransform="matrix(.36990 0 0 .37568 6.3806 -5.4271)" y1="47.259" x1="92.005"/>
 </defs>
 <g id="layer1" transform="matrix(1.3 0 0 1.3 -7.0705 8.9652)">
  <path id="path12941" style="fill-rule:evenodd;fill:url(#radialGradient2470)" d="m46.627 36.926a16.194 4.5877 0 0 1 -32.388 0 16.194 4.5877 0 1 1 32.388 0z"/>
  <path id="path5870" style="stroke-linejoin:round;fill-rule:evenodd;stroke:#838383;stroke-linecap:round;stroke-width:.37278;fill:#d9dcd5" d="m43.609 35.758a13.555 3.2211 0 0 1 -27.109 0 13.555 3.2211 0 1 1 27.109 0z"/>
  <path id="path18342" style="opacity:.77273;stroke-linejoin:round;fill-opacity:.51309;fill-rule:evenodd;stroke:#636363;stroke-linecap:round;stroke-width:.37278;fill:#585858" d="m45.85 0.88795a14.926 3.0752 0 0 1 -29.852 0 14.926 3.0752 0 1 1 29.852 0z"/>
  <path id="path3037" style="opacity:.5;fill-rule:evenodd;fill:url(#linearGradient2474)" d="m43.609 35.758a13.555 3.2211 0 0 1 -27.109 0 13.555 3.2211 0 1 1 27.109 0z"/>
  <path id="path1751" style="stroke-linejoin:round;fill-rule:evenodd;stroke:url(#linearGradient2505);stroke-linecap:round;stroke-width:.23077;fill:url(#linearGradient2503)" d="m13.29 2.0234c-0.035-0.04571 3.0696 32.883 3.0701 32.893 0.13223 3.2885 5.8912 3.8802 13.841 4.1386 9.7139-0.10171 13.359-1.7584 13.496-4.0451 0.01104-0.04509 3.115-32.941 3.126-32.986 1.8346-7.2804-12.778-6.7452-17.896-6.7452-5.495 0-17.705-0.17113-15.637 6.7452z"/>
  <path id="path18338" style="fill:#d9dcd5;fill-rule:evenodd" d="m14.47 1.2066s12.395-3.9065 30.594-0.57494c6.94-5.2536-16.366-5.638-16.366-5.638s-19.989 1.0875-14.228 6.2129z"/>
  <path id="path13701" style="stroke-linejoin:round;fill-rule:evenodd;stroke:#636363;stroke-linecap:round;stroke-width:.35740;fill:url(#linearGradient2499)" d="m14.463 1.2143s12.401-3.5891 30.609-0.52824c6.9426-4.8268-16.374-5.18-16.374-5.18s-19.998 0.99915-14.235 5.7082z"/>
  <path id="path18314" style="stroke-linejoin:round;fill-rule:evenodd;stroke:#808389;stroke-linecap:round;stroke-width:.18604;fill:#fff" d="m42.806-3.3005c0.01818 0.00482 0.03867 0.00905 0.05686 0.013913 0.08129 0.021749 0.16039 0.046899 0.24167 0.06956 0.01952 0.00542 0.03736 0.00844 0.05686 0.013913 0.0473 0.013328 0.09501 0.028051 0.14216 0.041736 0.01384 0.004 0.02882 0.00988 0.04265 0.013912 0.0091 0.00265 0.01939-0.00267 0.02843 0 0.02488 0.0073 0.04627 0.020414 0.07107 0.027824 0.02912 0.00873 0.0563 0.018935 0.08529 0.027824 0.02011 0.00612 0.03682 0.00771 0.05686 0.013913 0.04659 0.01448 0.09599 0.026817 0.14216 0.041736 0.01223 0.00393 0.03045 0.00995 0.04265 0.013913 0.03877 0.012685 0.07532 0.028716 0.11372 0.041737 0.01375 0.00463 0.02896 0.00924 0.04265 0.013912 0.09079 0.031256 0.18195 0.064046 0.27009 0.097385 0.02334 0.00877 0.04795 0.018902 0.07107 0.027824 0.02712 0.010518 0.04428 0.017087 0.07108 0.027824 0.05524 0.022132 0.11682 0.046452 0.17059 0.06956 0.01812 0.00772 0.03892 0.019988 0.05686 0.027824 0.0041 0.00184 0.01007-0.00184 0.01422 0 0.02694 0.011983 0.05879 0.029483 0.08529 0.041736 0.01427 0.0066 0.02851 0.00723 0.04265 0.013912 0.0052 0.00245 0.009 0.011455 0.01422 0.013913 0.05084 0.024237 0.10737 0.04424 0.15637 0.06956 0.01304 0.00674 0.02975 0.02101 0.04264 0.027824 0.01649 0.0087 0.0406 0.018996 0.05686 0.027824 0.0095 0.00516 0.01908 0.00871 0.02843 0.013913 0.0099 0.00548 0.01861 0.00838 0.02843 0.013912 0.0093 0.00525 0.005 0.00862 0.01422 0.013912 0.0093 0.00529 0.01924 0.00858 0.02844 0.013913 0.0091 0.00534 0.01941 0.00853 0.02843 0.013913 0.0047 0.00276 0.0096 0.011141 0.01422 0.013912 0.02243 0.013525 0.0492 0.027913 0.07107 0.041736 0.0093 0.00583 0.01925 0.00803 0.02843 0.013913 0.01212 0.00781 0.01649 0.019919 0.02844 0.027823 0.01365 0.00903 0.02924 0.018663 0.04265 0.027824 0.04619 0.031407 0.09899 0.064419 0.14215 0.097385 0.0039 0.00302 0.01035 0.010883 0.01422 0.013913 0.04353 0.033634 0.08778 0.062062 0.12794 0.097385 0.0029 0.00254-0.0029 0.011361 0 0.013912 0.01227 0.010909 0.03071 0.01675 0.04265 0.027824 0.0069 0.00647 0.0074 0.0213 0.01422 0.027824 0.0094 0.00895 0.01929 0.018762 0.02843 0.027824 0.0033 0.0033 0.01094-0.00332 0.01422 0 0.0034 0.00341 0.01084 0.010488 0.01422 0.013912 0.0091 0.00934 0.01958 0.018371 0.02843 0.027824 0.0022 0.00231-0.0022 0.011595 0 0.013913 0.0037 0.00407 0.0105 0.00982 0.01422 0.013912 0.04282 0.046685 0.07695 0.089577 0.11372 0.13912 0.0075 0.010089 0.02119 0.017615 0.02843 0.027824 0.0023 0.00313-0.0022 0.010769 0 0.013913 0.0031 0.00439 0.0112 0.0095 0.01422 0.013912 0.0086 0.012664 0.02023 0.028886 0.02843 0.041737 0.0033 0.00661 0.01106 0.00727 0.01422 0.013913 0.0064 0.01319 0.0086 0.028577 0.01422 0.041736 0.01382 0.033551 0.01974 0.063218 0.02843 0.097384 0.0055 0.019855 0.01069 0.049473 0.01422 0.06956 0.0011 0.00688-0.000877 0.00702 0 0.013913 0.0016 0.010069 0.01315 0.01767 0.01422 0.027824 0.0014 0.017262 0.000023 0.038361 0 0.055648-0.0011 0.011106 0.0015 0.030743 0 0.041736-0.0011 0.0073-0.01296 0.020572-0.01422 0.027824-0.0019 0.010879 0.0023 0.017059 0 0.027824-0.01005 0.050416-0.02423 0.091117-0.04265 0.13912-0.0027 0.00686 0.0028 0.0071 0 0.013912-0.0043 0.010941-0.0095 0.017006-0.01422 0.027824-0.0044 0.010141-0.0095 0.017791-0.01422 0.027824-0.0062 0.013428-0.0074 0.014586-0.01422 0.027824-0.0034 0.00662-0.01063 0.021253-0.01422 0.027824-0.009 0.016431-0.01853 0.039509-0.02843 0.055649-0.002 0.00322-0.01216-0.0032-0.01422 0-0.004 0.00643 0.0042 0.00752 0 0.013912-0.02091 0.031926-0.0466 0.06659-0.07107 0.097385-0.0049 0.00616-0.0092 0.0078-0.01422 0.013912-0.005 0.00611-0.0091 0.021754-0.01422 0.027824-0.04134 0.048579-0.09267 0.093298-0.14215 0.13912-0.0062 0.00573-0.0079 0.00823-0.01422 0.013912-0.01009 0.0091-0.03226 0.018834-0.04265 0.027824-0.0065 0.0056-0.0076 0.022265-0.01422 0.027824-0.02395 0.020022-0.05992 0.036153-0.08529 0.055648-0.0042 0.00324-0.0099 0.010688-0.01422 0.013912-0.04423 0.033378-0.09407 0.065513-0.14215 0.097385-0.01086 0.0072-0.01739 0.020702-0.02843 0.027824-0.01982 0.012664-0.0507 0.029308-0.07108 0.041737-0.16634 0.10147-0.35937 0.19121-0.55441 0.27824-0.03835 0.016976-0.07463 0.039177-0.11372 0.055648-0.04362 0.018488-0.08353 0.037772-0.12794 0.055648-0.03973 0.015995-0.07347 0.026212-0.11373 0.041737-0.02013 0.00776-0.05084 0.020176-0.07107 0.027824-0.0039 0.00147-0.01032-0.00146-0.01422 0-0.03645 0.013724-0.06277 0.028374-0.09951 0.041736-0.06123 0.022255-0.12311 0.048265-0.1848 0.069561-0.10283 0.035513-0.21003 0.064343-0.31274 0.097385-0.06163 0.019825-0.12372 0.03664-0.1848 0.055648-0.04686 0.014583-0.09581 0.041521-0.14216 0.055648-0.07448 0.022707-0.14067 0.034027-0.21323 0.055649-0.0343 0.00909-0.07936 0.018852-0.11372 0.027823-0.05528 0.014434-0.10092 0.027613-0.15637 0.041736-0.03446 0.00878-0.07919 0.019165-0.11372 0.027825-0.05555 0.013932-0.10065 0.028108-0.15637 0.041736-0.06024 0.014734-0.12438 0.027355-0.1848 0.041737-0.18128 0.043143-0.35727 0.085156-0.54019 0.12521-0.06097 0.013352-0.12365 0.028719-0.1848 0.041737-0.09631 0.020501-0.2018 0.035964-0.29852 0.055647-0.04821 0.00981-0.09385 0.032126-0.14216 0.041737-0.0046 0.00091944-0.0096-0.00091644-0.01422 0-0.18898 0.03752-0.37817 0.062841-0.56862 0.097386-0.06203 0.011252-0.12262 0.03079-0.1848 0.041736-0.12437 0.021891-0.24467 0.034959-0.3696 0.055648-0.0937 0.015517-0.1903 0.040792-0.28431 0.055648-0.18802 0.029715-0.37947 0.056308-0.56862 0.083471-0.06306 0.0091-0.12163 0.019-0.1848 0.027824-0.12634 0.017561-0.25704 0.02525-0.38382 0.041737-0.0634 0.00829-0.1213 0.019796-0.1848 0.027824-0.06827 0.00858-0.14484 0.019542-0.21323 0.027824-0.1134 0.013735-0.22747 0.028801-0.34117 0.041737-0.0048 0.0005475-0.0095-0.0005466-0.01422 0-0.51483 0.058419-1.0297 0.10961-1.5495 0.15303-0.12882 0.010859-0.25478 0.017802-0.38382 0.027824-0.4516 0.034741-0.91122 0.071925-1.3647 0.097385-0.12498 0.00707-0.25877 0.00748-0.38382 0.013912-0.06482 0.0033-0.13418 0.01078-0.19902 0.013913-0.12508 0.00609-0.25871 0.00841-0.38382 0.013912-0.51882 0.022545-1.0314 0.041809-1.5495 0.055648-0.12952 0.00349-0.25443 0.010887-0.38382 0.013913-0.26338 0.00614-0.5192 0.00946-0.78186 0.013912-0.13499 0.0005542-0.27707-0.0001005-0.41225 0-0.0046 0.000003-0.0096-0.0000015-0.01422 0-0.06526 0.0000405-0.13372 0.0000697-0.19902 0-0.0046-0.000006-0.0096 0.0000067-0.01422 0-0.2752-0.000327-0.54876 0.00245-0.8245 0-0.0046-0.0000435-0.0096 0.0000442-0.01422 0-0.13557-0.00128-0.27658-0.012065-0.41225-0.013912-0.14031-0.00186-0.2861 0.00249-0.42647 0-0.14042-0.00255-0.2718-0.010695-0.41225-0.013913-0.0047-0.000108-0.0096 0.0001079-0.01422 0-0.0702-0.00158-0.12881 0.00175-0.19902 0-0.14046-0.00356-0.28601-0.00963-0.42646-0.013913-0.14046-0.00428-0.27183-0.00888-0.41225-0.013913-0.0047-0.0001672-0.0096 0.0001689-0.01422 0-0.13574-0.00488-0.27657-0.0083-0.41225-0.013912-0.20577-0.00839-0.41994-0.01769-0.62548-0.027824-0.0046-0.0002332-0.0096 0.000234-0.01422 0-0.55584-0.027518-1.1104-0.069606-1.6632-0.1113-0.0046-0.0003539-0.0096 0.0003541-0.01422 0-0.41352-0.03128-0.82583-0.071101-1.2368-0.1113-0.0046-0.0004546-0.0096 0.0004544-0.01422 0-0.282-0.0254-0.554-0.0502-0.829-0.0817-0.069-0.0079-0.131-0.0196-0.199-0.0278-0.103-0.0123-0.21-0.015-0.313-0.0279-0.309-0.0387-0.618-0.0804-0.924-0.1252-0.10211-0.014928-0.21092-0.040019-0.31274-0.055648-0.13576-0.02084-0.26282-0.033531-0.39803-0.055648-0.06761-0.01106-0.13155-0.030351-0.19902-0.041737-0.03789-0.00639-0.07589-0.00742-0.11372-0.013912-0.03371-0.00579-0.06583-0.00804-0.09951-0.013912-0.06732-0.011713-0.13184-0.029689-0.19902-0.041736-0.03359-0.00602-0.06596-0.00781-0.09951-0.013913-0.0671-0.012215-0.13208-0.029181-0.19902-0.041736-0.03347-0.00628-0.06607-0.00755-0.09951-0.013913-0.067-0.01268-0.132-0.02862-0.199-0.0417-0.267-0.05228-0.532-0.10897-0.796-0.16694-0.06603-0.014493-0.13317-0.026879-0.19902-0.041736-0.06585-0.014858-0.13335-0.02651-0.19902-0.041737-0.03284-0.00761-0.06672-0.020117-0.09951-0.027823-0.08708-0.023551-0.18076-0.045134-0.27009-0.069561-0.04467-0.012214-0.08287-0.029266-0.12794-0.041737-0.09014-0.024941-0.17894-0.043443-0.2701-0.069561-0.04558-0.013059-0.09648-0.028345-0.14216-0.041736-0.04567-0.013392-0.08228-0.027988-0.12794-0.041737-0.04566-0.013748-0.09661-0.027605-0.14216-0.041736-0.04551-0.014129-0.09678-0.027196-0.14212-0.041734-0.068-0.021808-0.1318-0.046765-0.19902-0.069561-0.04481-0.015196-0.08361-0.026069-0.12794-0.041736-0.02217-0.00783-0.04905-0.019869-0.07107-0.027825-0.04405-0.015911-0.08451-0.025317-0.12794-0.041736-0.08685-0.032837-0.17218-0.076277-0.25588-0.1113-0.14647-0.061285-0.29317-0.12596-0.42647-0.19477-0.05332-0.027525-0.10566-0.054623-0.15637-0.083473-0.0036-0.00206-0.01063 0.00207-0.01422 0-0.02932-0.0168-0.04272-0.038383-0.07107-0.055648-0.0088-0.00529-0.01979-0.00858-0.02843-0.013912-0.0952-0.058812-0.18745-0.11633-0.2701-0.18086-0.0075-0.00586-0.0068-0.00801-0.01422-0.013913-0.01036-0.00828-0.0183-0.019444-0.02843-0.027823-0.0073-0.00596-0.0071-0.00791-0.01422-0.013912-0.06021-0.050534-0.11915-0.098813-0.17059-0.15303-0.0062-0.00642-0.0082-0.00743-0.01422-0.013912-0.01057-0.011351-0.01826-0.030216-0.02843-0.041736-0.0023-0.00264-0.01192 0.00264-0.01422 0-0.02541-0.029023-0.03414-0.053371-0.05686-0.083473-0.0052-0.00681-0.0092-0.00704-0.01422-0.013913-0.01727-0.023376-0.02707-0.045519-0.04265-0.069561-0.0046-0.00704-0.0097-0.00681-0.01422-0.013912-0.01797-0.028423-0.04135-0.054101-0.05686-0.083473-0.0038-0.00734-0.0105-0.020422-0.01422-0.027824-0.01303-0.02591-0.01738-0.056814-0.02843-0.083472-0.0047-0.011426-0.0098-0.01626-0.01422-0.027824-0.0021-0.010718 0.0016-0.031105 0-0.041737-0.0016-0.01063-0.0131-0.017279-0.01422-0.027824-0.0015-0.01406 0.000709-0.027828 0-0.041737-0.000357-0.00696 0.000165-0.00699 0-0.013912-0.000161-0.00692-0.000029-0.020946 0-0.027824 0.000026-0.00688-0.000214-0.00707 0-0.013912 0.000438-0.013682-0.0012-0.028205 0-0.041737 0.000586-0.00677-0.000768-0.00718 0-0.013912 0.0012-0.010091 0.01265-0.017817 0.01422-0.027824 0.0016-0.010007-0.002-0.031812 0-0.041736 0.0013-0.00662-0.0015-0.00733 0-0.013912 0.0015-0.00658 0.01255-0.021282 0.01422-0.027824 0.0017-0.00655-0.0018-0.0074 0-0.013912 0.0019-0.00651-0.002-0.00744 0-0.013913 0.008-0.025903 0.01781-0.058151 0.02843-0.083473 0.0027-0.00632 0.01139-0.00763 0.01422-0.013912 0.0042-0.00943 0.0097-0.018478 0.01422-0.027824 0.0046-0.00935 0.0093-0.018561 0.01422-0.027824 0.0049-0.00926 0.009-0.018642 0.01422-0.027824 0.0018-0.00306-0.0018-0.01086 0-0.013913 0.0072-0.012229 0.02066-0.029649 0.02843-0.041736 0.01169-0.018096 0.01545-0.023962 0.02843-0.041736 0.0043-0.00592 0.0097-0.021935 0.01422-0.027824 0.0044-0.0059 0.0097-0.00805 0.01422-0.013913 0.0046-0.00585 0.0095-0.00809 0.01422-0.013912 0.0095-0.011662 0.01844-0.030214 0.02843-0.041736 0.007-0.00805 0.02116-0.00593 0.02843-0.013913 0.01025-0.011451 0.01768-0.016512 0.02843-0.027824 0.0054-0.00564 0.0087-0.022216 0.01422-0.027824 0.011-0.011243 0.01695-0.01672 0.02843-0.027824 0.0058-0.00554 0.0084-0.00841 0.01422-0.013913 0.01173-0.011035 0.03046-0.030838 0.04265-0.041736 0.0061-0.00543 0.008-0.00851 0.01422-0.013913 0.01862-0.016245 0.03725-0.025799 0.05686-0.041736 0.0066-0.0053 0.02177-0.00865 0.02843-0.013912 0.02657-0.021114 0.04289-0.048988 0.07108-0.069561 0.02119-0.015383 0.04904-0.026656 0.07107-0.041736 0.02199-0.015128 0.04829-0.026908 0.07107-0.041736 0.01523-0.00985 0.02708-0.018103 0.04265-0.027824 0.07993-0.050503 0.15393-0.10602 0.24166-0.15303 0.06792-0.036396 0.14174-0.063038 0.21323-0.097385 0.05362-0.02576 0.10122-0.058847 0.15637-0.083473 0.03677-0.016418 0.07643-0.025816 0.11372-0.041736 0.01865-0.00796 0.03811-0.019988 0.05686-0.027824 0.03752-0.015672 0.07586-0.026554 0.11372-0.041736 0.01893-0.00759 0.03786-0.020355 0.05686-0.027824 0.038-0.014938 0.07555-0.027282 0.11372-0.041736 0.03816-0.014455 0.07551-0.027761 0.11373-0.041737s0.07558-0.028234 0.11372-0.041736c0.03815-0.013502 0.07577-0.028703 0.11372-0.041736 0.01898-0.00651 0.03795-0.00752 0.05686-0.013913 0.03781-0.0128 0.07628-0.029399 0.11372-0.041737 0.05615-0.018506 0.11561-0.038169 0.17059-0.055648 0.02071-0.00606 0.03619-0.00794 0.05686-0.013912 0.06202-0.017905 0.12276-0.038348 0.1848-0.055649 0.0041-0.00115 0.01007 0.00115 0.01422 0 0.07862-0.021877 0.16206-0.048072 0.24167-0.069561-2.8924 0.34128-4.6627 0.90972-4.6627 1.9199v3.4919c0 2.1339 7.8823 3.8676 17.599 3.8676 9.7166 0 17.599-1.7337 17.599-3.8676v-3.4919c0-1.032-1.8448-1.6145-4.8475-1.9616z"/>
  <path id="path3959" style="fill-rule:evenodd;stroke-width:0;fill:url(#linearGradient2495)" d="m42.806-3.3005c0.01818 0.00482 0.03867 0.00905 0.05686 0.013913 0.08129 0.021749 0.16039 0.046899 0.24167 0.06956 0.01952 0.00542 0.03736 0.00844 0.05686 0.013913 0.0473 0.013328 0.09501 0.028051 0.14216 0.041736 0.01384 0.004 0.02882 0.00988 0.04265 0.013912 0.0091 0.00265 0.01939-0.00267 0.02843 0 0.02488 0.0073 0.04627 0.020414 0.07107 0.027824 0.02912 0.00873 0.0563 0.018935 0.08529 0.027824 0.02011 0.00612 0.03682 0.00771 0.05686 0.013913 0.04659 0.01448 0.09599 0.026817 0.14216 0.041736 0.01223 0.00393 0.03045 0.00995 0.04265 0.013913 0.03877 0.012685 0.07532 0.028716 0.11372 0.041737 0.01375 0.00463 0.02896 0.00924 0.04265 0.013912 0.09079 0.031256 0.18195 0.064046 0.27009 0.097385 0.02334 0.00877 0.04795 0.018902 0.07107 0.027824 0.02712 0.010518 0.04428 0.017087 0.07108 0.027824 0.05524 0.022132 0.11682 0.046452 0.17059 0.06956 0.01812 0.00772 0.03892 0.019988 0.05686 0.027824 0.0041 0.00184 0.01007-0.00184 0.01422 0 0.02694 0.011983 0.05879 0.029483 0.08529 0.041736 0.01427 0.0066 0.02851 0.00723 0.04265 0.013912 0.0052 0.00245 0.009 0.011455 0.01422 0.013913 0.05084 0.024237 0.10737 0.04424 0.15637 0.06956 0.01304 0.00674 0.02975 0.02101 0.04264 0.027824 0.01649 0.0087 0.0406 0.018996 0.05686 0.027824 0.0095 0.00516 0.01908 0.00871 0.02843 0.013913 0.0099 0.00548 0.01861 0.00838 0.02843 0.013912 0.0093 0.00525 0.005 0.00862 0.01422 0.013912 0.0093 0.00529 0.01924 0.00858 0.02844 0.013913 0.0091 0.00534 0.01941 0.00853 0.02843 0.013913 0.0047 0.00276 0.0096 0.011141 0.01422 0.013912 0.02243 0.013525 0.0492 0.027913 0.07107 0.041736 0.0093 0.00583 0.01925 0.00803 0.02843 0.013913 0.01212 0.00781 0.01649 0.019919 0.02844 0.027823 0.01365 0.00903 0.02924 0.018663 0.04265 0.027824 0.04619 0.031407 0.09899 0.064419 0.14215 0.097385 0.0039 0.00302 0.01035 0.010883 0.01422 0.013913 0.04353 0.033634 0.08778 0.062062 0.12794 0.097385 0.0029 0.00254-0.0029 0.011361 0 0.013912 0.01227 0.010909 0.03071 0.01675 0.04265 0.027824 0.0069 0.00647 0.0074 0.0213 0.01422 0.027824 0.0094 0.00895 0.01929 0.018762 0.02843 0.027824 0.0033 0.0033 0.01094-0.00332 0.01422 0 0.0034 0.00341 0.01084 0.010488 0.01422 0.013912 0.0091 0.00934 0.01958 0.018371 0.02843 0.027824 0.0022 0.00231-0.0022 0.011595 0 0.013913 0.0037 0.00407 0.0105 0.00982 0.01422 0.013912 0.04282 0.046685 0.07695 0.089577 0.11372 0.13912 0.0075 0.010089 0.02119 0.017615 0.02843 0.027824 0.0023 0.00313-0.0022 0.010769 0 0.013913 0.0031 0.00439 0.0112 0.0095 0.01422 0.013912 0.0086 0.012664 0.02023 0.028886 0.02843 0.041737 0.0033 0.00661 0.01106 0.00727 0.01422 0.013913 0.0064 0.01319 0.0086 0.028577 0.01422 0.041736 0.01382 0.033551 0.01974 0.063218 0.02843 0.097384 0.0055 0.019855 0.01069 0.049473 0.01422 0.06956 0.0011 0.00688-0.000877 0.00702 0 0.013913 0.0016 0.010069 0.01315 0.01767 0.01422 0.027824 0.0014 0.017262 0.000023 0.038361 0 0.055648-0.0011 0.011106 0.0015 0.030743 0 0.041736-0.0011 0.0073-0.01296 0.020572-0.01422 0.027824-0.0019 0.010879 0.0023 0.017059 0 0.027824-0.01005 0.050416-0.02423 0.091117-0.04265 0.13912-0.0027 0.00686 0.0028 0.0071 0 0.013912-0.0043 0.010941-0.0095 0.017006-0.01422 0.027824-0.0044 0.010141-0.0095 0.017791-0.01422 0.027824-0.0062 0.013428-0.0074 0.014586-0.01422 0.027824-0.0034 0.00662-0.01063 0.021253-0.01422 0.027824-0.009 0.016431-0.01853 0.039509-0.02843 0.055649-0.002 0.00322-0.01216-0.0032-0.01422 0-0.004 0.00643 0.0042 0.00752 0 0.013912-0.02091 0.031926-0.0466 0.06659-0.07107 0.097385-0.0049 0.00616-0.0092 0.00779-0.01422 0.013912-0.005 0.00611-0.0091 0.021754-0.01422 0.027824-0.04134 0.048579-0.09267 0.093298-0.14215 0.13912-0.0062 0.00573-0.0079 0.00823-0.01422 0.013912-0.01009 0.0091-0.03226 0.018834-0.04265 0.027824-0.0065 0.0056-0.0076 0.022265-0.01422 0.027824-0.02395 0.020023-0.05992 0.036153-0.08529 0.055649-0.0042 0.00324-0.0099 0.010688-0.01422 0.013912-0.04423 0.033378-0.09407 0.065513-0.14215 0.097384-0.01086 0.0072-0.01739 0.020702-0.02843 0.027824-0.01982 0.012664-0.0507 0.029308-0.07108 0.041737-0.16634 0.10147-0.35937 0.19121-0.55441 0.27824-0.03835 0.016976-0.07463 0.039177-0.11372 0.055648-0.04362 0.018488-0.08353 0.037772-0.12794 0.055648-0.03973 0.015995-0.07347 0.026213-0.11373 0.041736-0.02013 0.00776-0.05084 0.020177-0.07107 0.027824-0.0039 0.00147-0.01032-0.00146-0.01422 0-0.03645 0.013724-0.06277 0.028374-0.09951 0.041736-0.06123 0.022255-0.12311 0.048265-0.1848 0.06956-0.10283 0.035514-0.21003 0.064343-0.31274 0.097384-0.06163 0.019825-0.12372 0.036641-0.1848 0.055648-0.04686 0.014582-0.09581 0.04152-0.14216 0.055648-0.07448 0.022707-0.14067 0.034027-0.21323 0.055648-0.0343 0.00909-0.07936 0.018852-0.11372 0.027824-0.05528 0.014433-0.10092 0.027613-0.15637 0.041736-0.03446 0.00878-0.07919 0.019164-0.11372 0.027824-0.05555 0.013932-0.10065 0.028109-0.15637 0.041736-0.06024 0.014733-0.12438 0.027355-0.1848 0.041736-0.18128 0.043143-0.35727 0.085156-0.54019 0.12521-0.06097 0.013352-0.12365 0.028719-0.1848 0.041737-0.09631 0.020501-0.2018 0.035964-0.29852 0.055647-0.04821 0.00981-0.09385 0.032126-0.14216 0.041737-0.0046 0.00091944-0.0096-0.00091644-0.01422 0-0.18898 0.03752-0.37817 0.062841-0.56862 0.097386-0.06203 0.011252-0.12262 0.03079-0.1848 0.041736-0.12437 0.021891-0.24467 0.03496-0.3696 0.055648-0.0937 0.015517-0.1903 0.040792-0.28431 0.055648-0.18802 0.029715-0.37947 0.056308-0.56862 0.083472-0.06306 0.0091-0.12163 0.019-0.1848 0.027824-0.12634 0.017561-0.25704 0.02525-0.38382 0.041737-0.0634 0.00829-0.1213 0.019796-0.1848 0.027824-0.06827 0.00858-0.14484 0.019542-0.21323 0.027824-0.1134 0.013735-0.22747 0.028801-0.34117 0.041737-0.0048 0.0005475-0.0095-0.0005466-0.01422 0-0.51483 0.058418-1.0297 0.10961-1.5495 0.15303-0.12882 0.01086-0.25478 0.017802-0.38382 0.027824-0.4516 0.034741-0.91122 0.071925-1.3647 0.097385-0.12498 0.00707-0.25877 0.00748-0.38382 0.013912-0.06482 0.0033-0.13418 0.01078-0.19902 0.013913-0.12508 0.00609-0.25871 0.00841-0.38382 0.013912-0.51882 0.022545-1.0314 0.041809-1.5495 0.055648-0.12952 0.00349-0.25443 0.010887-0.38382 0.013913-0.26338 0.00614-0.5192 0.00946-0.78186 0.013912-0.13499 0.0005542-0.27707-0.0001005-0.41225 0-0.0046 0.000003-0.0096-0.0000015-0.01422 0-0.06526 0.0000405-0.13372 0.0000697-0.19902 0-0.0046-0.000006-0.0096 0.0000067-0.01422 0-0.2752-0.000327-0.54876 0.00245-0.8245 0-0.0046-0.0000435-0.0096 0.0000442-0.01422 0-0.13557-0.00128-0.27658-0.012065-0.41225-0.013912-0.14031-0.00186-0.2861 0.00249-0.42647 0-0.14042-0.00255-0.2718-0.010695-0.41225-0.013913-0.0047-0.000108-0.0096 0.0001079-0.01422 0-0.0702-0.00158-0.12881 0.00175-0.19902 0-0.14046-0.00356-0.28601-0.00963-0.42646-0.013913-0.14046-0.00428-0.27183-0.00888-0.41225-0.013913-0.0047-0.0001672-0.0096 0.0001689-0.01422 0-0.13574-0.00488-0.27657-0.0083-0.41225-0.013912-0.20577-0.00839-0.41994-0.01769-0.62548-0.027824-0.0046-0.0002332-0.0096 0.000234-0.01422 0-0.55584-0.027518-1.1104-0.069606-1.6632-0.1113-0.0046-0.0003539-0.0096 0.000354-0.01422 0-0.41352-0.03128-0.82583-0.071101-1.2368-0.1113-0.0046-0.0004546-0.0096 0.0004544-0.01422 0-0.27693-0.027169-0.54902-0.051941-0.82449-0.083478-0.06891-0.00793-0.13022-0.01961-0.19902-0.027823-0.10315-0.012251-0.20983-0.014925-0.31274-0.027825-0.30872-0.0387-0.61767-0.080427-0.92401-0.12521-0.10211-0.014928-0.21092-0.040019-0.31274-0.055648-0.13576-0.02084-0.26282-0.033531-0.39803-0.055648-0.06761-0.01106-0.13155-0.030351-0.19902-0.041737-0.03789-0.00639-0.07589-0.00742-0.11372-0.013912-0.03371-0.00579-0.06583-0.00804-0.09951-0.013912-0.06732-0.011713-0.13184-0.029689-0.19902-0.041736-0.03359-0.00602-0.06596-0.00781-0.09951-0.013913-0.0671-0.012214-0.13208-0.029181-0.19902-0.041736-0.03347-0.00628-0.06607-0.00755-0.09951-0.013913-0.06687-0.012726-0.13231-0.028665-0.19902-0.041737-0.27-0.05084-0.535-0.10754-0.799-0.16551-0.06603-0.014493-0.13317-0.026879-0.19902-0.041736-0.06585-0.014858-0.13335-0.02651-0.19902-0.041737-0.03284-0.00761-0.06672-0.020117-0.09951-0.027823-0.08708-0.023551-0.18076-0.045134-0.27009-0.069561-0.04467-0.012214-0.08287-0.029266-0.12794-0.041736-0.09014-0.024941-0.17894-0.043443-0.2701-0.069561-0.04558-0.01306-0.09648-0.028345-0.14216-0.041736-0.04567-0.013392-0.08228-0.027988-0.12794-0.041737s-0.09661-0.027606-0.14216-0.041736c-0.04551-0.014126-0.09678-0.027193-0.14212-0.041731-0.068-0.021807-0.1318-0.046766-0.19902-0.069561-0.04481-0.015196-0.08361-0.026069-0.12794-0.041736-0.02217-0.00783-0.04905-0.019869-0.07107-0.027824-0.04405-0.015911-0.08451-0.025318-0.12794-0.041736-0.08685-0.032837-0.17218-0.076277-0.25588-0.1113-0.14647-0.061284-0.29317-0.12596-0.42647-0.19477-0.05332-0.027525-0.10566-0.054623-0.15637-0.083473-0.0036-0.00206-0.01063 0.00207-0.01422 0-0.02932-0.016801-0.04272-0.038383-0.07107-0.055648-0.0088-0.00529-0.01979-0.00858-0.02843-0.013912-0.0952-0.058812-0.18745-0.11633-0.2701-0.18086-0.0075-0.00586-0.0068-0.00801-0.01422-0.013913-0.01036-0.00828-0.0183-0.019444-0.02843-0.027823-0.0073-0.00596-0.0071-0.00791-0.01422-0.013913-0.06021-0.050533-0.11915-0.098813-0.17059-0.15303-0.0062-0.00642-0.0082-0.00743-0.01422-0.013912-0.01057-0.011353-0.01826-0.030217-0.02843-0.041736-0.0023-0.00264-0.01192 0.00264-0.01422 0-0.02541-0.029023-0.03414-0.05337-0.05686-0.083473-0.0052-0.00681-0.0092-0.00704-0.01422-0.013913-0.01727-0.023376-0.02707-0.045519-0.04265-0.069561-0.0046-0.00704-0.0097-0.00681-0.01422-0.013912-0.01797-0.028423-0.04135-0.054101-0.05686-0.083473-0.0038-0.00734-0.0105-0.020422-0.01422-0.027824-0.01303-0.02591-0.01738-0.056814-0.02843-0.083472-0.0047-0.011426-0.0098-0.01626-0.01422-0.027824-0.0021-0.010718 0.0016-0.031105 0-0.041737-0.0016-0.01063-0.0131-0.017279-0.01422-0.027824-0.0015-0.01406 0.000709-0.027828 0-0.041737-0.000357-0.00696 0.000165-0.00699 0-0.013912-0.000161-0.00692-0.000029-0.020946 0-0.027824 0.000026-0.00688-0.000214-0.00707 0-0.013912 0.000438-0.013682-0.0012-0.028205 0-0.041737 0.000586-0.00677-0.000768-0.00718 0-0.013912 0.0012-0.010091 0.01265-0.017817 0.01422-0.027824 0.0016-0.010007-0.002-0.031812 0-0.041736 0.0013-0.00662-0.0015-0.00733 0-0.013912 0.0015-0.00658 0.01255-0.021282 0.01422-0.027824 0.0017-0.00655-0.0018-0.0074 0-0.013912 0.0019-0.00651-0.002-0.00744 0-0.013913 0.008-0.025903 0.01781-0.058151 0.02843-0.083473 0.0027-0.00632 0.01139-0.00763 0.01422-0.013912 0.0042-0.00943 0.0097-0.018478 0.01422-0.027824 0.0046-0.00935 0.0093-0.018561 0.01422-0.027824 0.0049-0.00926 0.009-0.018642 0.01422-0.027824 0.0018-0.00306-0.0018-0.010861 0-0.013913 0.0072-0.012229 0.02066-0.029649 0.02843-0.041736 0.01169-0.018096 0.01545-0.023962 0.02843-0.041736 0.0043-0.00592 0.0097-0.021935 0.01422-0.027824 0.0044-0.0059 0.0097-0.00805 0.01422-0.013913 0.0046-0.00585 0.0095-0.00809 0.01422-0.013912 0.0095-0.011662 0.01844-0.030214 0.02843-0.041736 0.007-0.00805 0.02116-0.00593 0.02843-0.013913 0.01025-0.011452 0.01768-0.016512 0.02843-0.027824 0.0054-0.00564 0.0087-0.022216 0.01422-0.027824 0.011-0.011244 0.01695-0.01672 0.02843-0.027824 0.0058-0.00554 0.0084-0.00841 0.01422-0.013913 0.01173-0.011035 0.03046-0.030838 0.04265-0.041736 0.0061-0.00543 0.008-0.00851 0.01422-0.013913 0.01862-0.016245 0.03725-0.025799 0.05686-0.041736 0.0066-0.0053 0.02177-0.00865 0.02843-0.013912 0.02657-0.021114 0.04289-0.048988 0.07108-0.069561 0.02119-0.015383 0.04904-0.026656 0.07107-0.041736 0.02199-0.015128 0.04829-0.026908 0.07107-0.041736 0.01523-0.00985 0.02708-0.018103 0.04265-0.027824 0.07993-0.050503 0.15393-0.10602 0.24166-0.15303 0.06792-0.036396 0.14174-0.063038 0.21323-0.097385 0.05362-0.02576 0.10122-0.058847 0.15637-0.083473 0.03677-0.016418 0.07643-0.025816 0.11372-0.041736 0.01865-0.00796 0.03811-0.019988 0.05686-0.027824 0.03752-0.015672 0.07586-0.026554 0.11372-0.041736 0.01893-0.00759 0.03786-0.020355 0.05686-0.027824 0.038-0.014938 0.07555-0.027282 0.11372-0.041736 0.03816-0.014455 0.07551-0.027761 0.11373-0.041737s0.07558-0.028234 0.11372-0.041736c0.03815-0.013502 0.07577-0.028703 0.11372-0.041736 0.01898-0.00651 0.03795-0.00752 0.05686-0.013913 0.03781-0.0128 0.07628-0.029399 0.11372-0.041737 0.05615-0.018506 0.11561-0.038169 0.17059-0.055648 0.02071-0.00606 0.03619-0.00794 0.05686-0.013912 0.06202-0.017905 0.12276-0.038348 0.1848-0.055648 0.0041-0.00115 0.01007 0.00115 0.01422 0 0.07862-0.021877 0.16206-0.048072 0.24167-0.069561-2.8924 0.34128-4.6627 0.90972-4.6627 1.9199v3.4919c0 2.1339 7.8823 3.8676 17.599 3.8676 9.7166 0 17.599-1.7337 17.599-3.8676v-3.4919c0-1.032-1.8448-1.6145-4.8475-1.9616z"/>
  <path id="path18219" style="stroke-linejoin:round;fill-rule:evenodd;stroke:url(#linearGradient2492);stroke-linecap:round;stroke-width:.18604;fill:#d9dcd5" d="m29.529-5.1925c-0.57456 0.00316-1.148 0.015699-1.7201 0.027824-4.283 0.15472-8.6793 0.50345-12.581 1.7529-1.2948 0.4507-2.948 1.1763-2.7578 2.2816 0.41129 1.1928 2.3285 1.7705 3.8666 2.2259 4.6331 1.1923 9.6945 1.4551 14.628 1.4329 4.5584-0.084558 9.2339-0.39056 13.448-1.6138 1.3861-0.45218 3.1399-1.0943 3.2412-2.2398 0.000177-0.13373-0.02595-0.27564-0.08529-0.40345-0.67407-1.1573-2.5911-1.683-4.2078-2.1286-4.4138-1.0563-9.1532-1.3613-13.832-1.3356zm-0.83872 0.61213c4.5257-0.061152 9.1407 0.16378 13.419 1.0991 1.4645 0.36861 3.1992 0.80933 3.8098 1.7668 0.05375 0.10575 0.08545 0.20934 0.08529 0.31998-0.09169 0.94781-1.687 1.4762-2.9426 1.8503-3.816 1.012-8.053 1.2795-12.182 1.3494-4.469 0.0184-9.052-0.2099-13.249-1.1964-1.393-0.37681-3.124-0.84954-3.497-1.8364-0.17229-0.91451 1.3149-1.5192 2.4877-1.892 3.5341-1.0338 7.5212-1.3189 11.401-1.4469 0.2221-0.0043 0.44556-0.010904 0.66813-0.013913z"/>
  <path id="path7867" style="fill-rule:evenodd;fill:url(#linearGradient2489)" d="m29.529-5.1925c-0.57456 0.00316-1.148 0.015699-1.7201 0.027824-4.283 0.15472-8.6793 0.50346-12.581 1.7529-1.2948 0.4507-2.948 1.1763-2.7578 2.2816 0.41129 1.1928 2.3285 1.7705 3.8666 2.2259 4.6331 1.1923 9.6945 1.4551 14.628 1.4329 4.5584-0.084558 9.2339-0.39056 13.448-1.6138 1.3861-0.45218 3.1399-1.0943 3.2412-2.2398 0.000178-0.13373-0.02595-0.27564-0.08529-0.40345-0.67407-1.1573-2.5911-1.683-4.2078-2.1286-4.4138-1.0563-9.1532-1.3613-13.832-1.3356zm-0.83872 0.61213c4.5257-0.061152 9.1407 0.16378 13.419 1.0991 1.4645 0.36861 3.1992 0.80933 3.8098 1.7668 0.05375 0.10575 0.08545 0.20934 0.08529 0.31998-0.09169 0.94781-1.687 1.4762-2.9426 1.8503-3.816 1.012-8.053 1.2795-12.182 1.3494-4.469 0.0184-9.052-0.2099-13.249-1.1964-1.393-0.37681-3.124-0.84954-3.497-1.8364-0.17229-0.91451 1.3149-1.5192 2.4877-1.892 3.5341-1.0338 7.5212-1.3189 11.401-1.4469 0.2221-0.0043 0.44556-0.010904 0.66813-0.013913z"/>
 </g>
</svg>
