<?xml version="1.0" encoding="UTF-8" standalone="no"?>
<!-- Created with Inkscape (http://www.inkscape.org/) -->
<svg
   xmlns:dc="http://purl.org/dc/elements/1.1/"
   xmlns:cc="http://creativecommons.org/ns#"
   xmlns:rdf="http://www.w3.org/1999/02/22-rdf-syntax-ns#"
   xmlns:svg="http://www.w3.org/2000/svg"
   xmlns="http://www.w3.org/2000/svg"
   xmlns:xlink="http://www.w3.org/1999/xlink"
   xmlns:sodipodi="http://sodipodi.sourceforge.net/DTD/sodipodi-0.dtd"
   xmlns:inkscape="http://www.inkscape.org/namespaces/inkscape"
   width="48px"
   height="48px"
   id="svg2424"
   sodipodi:version="0.32"
   inkscape:version="0.46"
   sodipodi:docname="application-vnd.ms-powerpoint.svg"
   inkscape:output_extension="org.inkscape.output.svg.inkscape">
  <defs
     id="defs2426">
    <linearGradient
       id="linearGradient5048">
      <stop
         id="stop5050"
         offset="0"
         style="stop-color:black;stop-opacity:0;" />
      <stop
         style="stop-color:black;stop-opacity:1;"
         offset="0.5"
         id="stop5056" />
      <stop
         id="stop5052"
         offset="1"
         style="stop-color:black;stop-opacity:0;" />
    </linearGradient>
    <linearGradient
       inkscape:collect="always"
       xlink:href="#linearGradient5048"
       id="linearGradient4221"
       gradientUnits="userSpaceOnUse"
       gradientTransform="matrix(6.7324884e-2,0,0,1.4700216e-2,-0.33314,39.040144)"
       x1="302.85715"
       y1="366.64789"
       x2="302.85715"
       y2="609.50507" />
    <radialGradient
       inkscape:collect="always"
       xlink:href="#linearGradient5060"
       id="radialGradient4218"
       gradientUnits="userSpaceOnUse"
       gradientTransform="matrix(-2.3039943e-2,0,0,1.4700216e-2,21.63111,39.040175)"
       cx="605.71429"
       cy="486.64789"
       fx="605.71429"
       fy="486.64789"
       r="117.14286" />
    <linearGradient
       id="linearGradient5060"
       inkscape:collect="always">
      <stop
         id="stop5062"
         offset="0"
         style="stop-color:black;stop-opacity:1;" />
      <stop
         id="stop5064"
         offset="1"
         style="stop-color:black;stop-opacity:0;" />
    </linearGradient>
    <radialGradient
       inkscape:collect="always"
       xlink:href="#linearGradient5060"
       id="radialGradient4215"
       gradientUnits="userSpaceOnUse"
       gradientTransform="matrix(2.3039948e-2,0,0,1.4700216e-2,26.36888,39.040175)"
       cx="605.71429"
       cy="486.64789"
       fx="605.71429"
       fy="486.64789"
       r="117.14286" />
    <linearGradient
       id="linearGradient3104">
      <stop
         id="stop3106"
         offset="0"
         style="stop-color:#aaaaaa;stop-opacity:1;" />
      <stop
         id="stop3108"
         offset="1"
         style="stop-color:#d2d2d2;stop-opacity:1;" />
    </linearGradient>
    <linearGradient
       inkscape:collect="always"
       xlink:href="#linearGradient3104"
       id="linearGradient4212"
       gradientUnits="userSpaceOnUse"
       gradientTransform="matrix(0.8074968,0,0,0.9358511,59.41023,-1.11448)"
       x1="-51.786404"
       y1="50.786446"
       x2="-51.786404"
       y2="2.9062471" />
    <linearGradient
       inkscape:collect="always"
       id="linearGradient3600">
      <stop
         style="stop-color:#f4f4f4;stop-opacity:1"
         offset="0"
         id="stop3602" />
      <stop
         style="stop-color:#dbdbdb;stop-opacity:1"
         offset="1"
         id="stop3604" />
    </linearGradient>
    <linearGradient
       inkscape:collect="always"
       xlink:href="#linearGradient3600"
       id="linearGradient4210"
       gradientUnits="userSpaceOnUse"
       gradientTransform="translate(0,-1e-6)"
       x1="25.132275"
       y1="6.7287393"
       x2="25.132275"
       y2="47.013336" />
    <linearGradient
       id="linearGradient6691-219-578-676-452-20-257">
      <stop
         id="stop14413"
         offset="0"
         style="stop-color:#b06b2d;stop-opacity:1;" />
      <stop
         id="stop14415"
         offset="1"
         style="stop-color:#d3a067;stop-opacity:1;" />
    </linearGradient>
    <linearGradient
       inkscape:collect="always"
       xlink:href="#linearGradient6691-219-578-676-452-20-257"
       id="linearGradient4190-744-835-864-756-43-921"
       gradientUnits="userSpaceOnUse"
       gradientTransform="matrix(0.911005,0,0,0.9991929,0.6027366,1.937e-2)"
       x1="9.4919996"
       y1="46.314064"
       x2="9.4919996"
       y2="1.7164899" />
    <linearGradient
       id="linearGradient3522-350-330-881-74-608-453">
      <stop
         id="stop14407"
         offset="0"
         style="stop-color:#e2b38b;stop-opacity:1;" />
      <stop
         id="stop14409"
         offset="1"
         style="stop-color:#ce8230;stop-opacity:1;" />
    </linearGradient>
    <linearGradient
       inkscape:collect="always"
       xlink:href="#linearGradient3522-350-330-881-74-608-453"
       id="linearGradient4188-59-702-151-290-370-18"
       gradientUnits="userSpaceOnUse"
       gradientTransform="matrix(0.799322,0,0,1.0264516,40.855785,-0.607336)"
       x1="-22.539846"
       y1="11.109024"
       x2="-22.539846"
       y2="46.263954" />
    <linearGradient
       id="linearGradient8589">
      <stop
         id="stop8591"
         offset="0"
         style="stop-color:#fefefe;stop-opacity:1" />
      <stop
         id="stop8593"
         offset="1"
         style="stop-color:#cbcbcb;stop-opacity:1;" />
    </linearGradient>
    <linearGradient
       inkscape:collect="always"
       xlink:href="#linearGradient8589"
       id="linearGradient4184"
       gradientUnits="userSpaceOnUse"
       gradientTransform="matrix(0.9976985,0,0,1.0642049,0.1638,-0.139257)"
       x1="32.892288"
       y1="8.0590115"
       x2="36.358372"
       y2="5.4565363" />
    <linearGradient
       id="linearGradient2821">
      <stop
         style="stop-color:#e57c18;stop-opacity:1"
         offset="0"
         id="stop2823" />
      <stop
         style="stop-color:#e9bf97;stop-opacity:1"
         offset="1"
         id="stop2825" />
    </linearGradient>
    <linearGradient
       inkscape:collect="always"
       xlink:href="#linearGradient2821"
       id="linearGradient4486"
       gradientUnits="userSpaceOnUse"
       gradientTransform="matrix(0.9969535,0,0,0.9948508,47.183472,4.0571628)"
       x1="-11.889842"
       y1="33.371605"
       x2="-31.17728"
       y2="11.098012" />
  </defs>
  <sodipodi:namedview
     id="base"
     pagecolor="#ffffff"
     bordercolor="#666666"
     borderopacity="1.0"
     inkscape:pageopacity="0.0"
     inkscape:pageshadow="2"
     inkscape:zoom="7"
     inkscape:cx="24"
     inkscape:cy="24"
     inkscape:current-layer="layer1"
     showgrid="true"
     inkscape:grid-bbox="true"
     inkscape:document-units="px"
     inkscape:window-width="640"
     inkscape:window-height="679"
     inkscape:window-x="798"
     inkscape:window-y="24" />
  <metadata
     id="metadata2429">
    <rdf:RDF>
      <cc:Work
         rdf:about="">
        <dc:format>image/svg+xml</dc:format>
        <dc:type
           rdf:resource="http://purl.org/dc/dcmitype/StillImage" />
      </cc:Work>
    </rdf:RDF>
  </metadata>
  <g
     id="layer1"
     inkscape:label="Layer 1"
     inkscape:groupmode="layer">
    <rect
       y="44.429947"
       x="7.745842"
       height="3.5700529"
       width="32.508301"
       id="rect4316"
       style="display:inline;opacity:0.40206185000000000;fill:url(#linearGradient4221);fill-opacity:1;fill-rule:nonzero;stroke:none;stroke-width:1;stroke-linecap:round;stroke-linejoin:miter;marker:none;marker-start:none;marker-mid:none;marker-end:none;stroke-miterlimit:4;stroke-dasharray:none;stroke-dashoffset:0;stroke-opacity:1;visibility:visible;overflow:visible" />
    <path
       style="display:inline;opacity:0.40206185000000000;fill:url(#radialGradient4218);fill-opacity:1;fill-rule:nonzero;stroke:none;stroke-width:1;stroke-linecap:round;stroke-linejoin:miter;marker:none;marker-start:none;marker-mid:none;marker-end:none;stroke-miterlimit:4;stroke-dasharray:none;stroke-dashoffset:0;stroke-opacity:1;visibility:visible;overflow:visible"
       d="M 7.74585,44.430101 C 7.74585,44.430101 7.74585,47.999957 7.74585,47.999957 C 6.55935,48.006678 4.87747,47.200133 4.87747,46.214799 C 4.87747,45.229466 6.20151,44.430102 7.74585,44.430101 z"
       id="path4318"
       sodipodi:nodetypes="cccc" />
    <path
       style="display:inline;opacity:0.40206185000000000;fill:url(#radialGradient4215);fill-opacity:1;fill-rule:nonzero;stroke:none;stroke-width:1;stroke-linecap:round;stroke-linejoin:miter;marker:none;marker-start:none;marker-mid:none;marker-end:none;stroke-miterlimit:4;stroke-dasharray:none;stroke-dashoffset:0;stroke-opacity:1;visibility:visible;overflow:visible"
       d="M 40.25415,44.430101 C 40.25415,44.430101 40.25415,47.999957 40.25415,47.999957 C 41.44065,48.006678 43.12253,47.200133 43.12253,46.214799 C 43.12253,45.229466 41.79848,44.430102 40.25415,44.430101 z"
       id="path4320"
       sodipodi:nodetypes="cccc" />
    <path
       style="display:inline;fill:url(#linearGradient4210);fill-opacity:1;stroke:url(#linearGradient4212);stroke-width:0.99992179999999997;stroke-linecap:butt;stroke-linejoin:round;stroke-miterlimit:4;stroke-dasharray:none;stroke-dashoffset:0;stroke-opacity:1"
       d="M 6.49996,1.499962 C 14.52025,1.499962 22.54055,1.499962 30.56084,1.499962 C 31.96778,1.985341 39.5263,7.515097 41.50004,11.343914 C 41.50004,23.062623 41.50004,34.781332 41.50004,46.500041 C 29.83335,46.500041 18.16665,46.500041 6.49996,46.500041 C 6.49996,31.500014 6.49996,16.499988 6.49996,1.499962 z"
       id="path4322"
       sodipodi:nodetypes="cccccc" />
    <path
       sodipodi:nodetypes="cccccccc"
       style="fill:url(#linearGradient4188-59-702-151-290-370-18);fill-opacity:1;fill-rule:nonzero;stroke:url(#linearGradient4190-744-835-864-756-43-921);stroke-width:1.00969923000000006;stroke-linecap:butt;stroke-linejoin:round;marker:none;marker-start:none;marker-mid:none;marker-end:none;stroke-miterlimit:4;stroke-dasharray:none;stroke-dashoffset:0;stroke-opacity:1;visibility:visible;display:block;overflow:visible"
       d="M 11.99515,46.494843 C 10.240789,46.494843 8.4864268,46.494843 6.7320566,46.494843 C 6.3056432,45.96214 6.6298943,44.904514 6.528578,44.150374 C 6.528578,30.02147 6.528578,15.892569 6.528578,1.76367 L 6.5880465,1.580709 L 6.7320566,1.505159 L 6.7320566,1.505159 C 8.557992,1.505159 10.097641,1.505159 11.923577,1.505159"
       id="path4530" />
    <path
       style="display:inline;fill:#000000;fill-opacity:0.32663316999999997;fill-rule:evenodd;stroke:#000000;stroke-width:0.50000000000000000;stroke-linecap:butt;stroke-linejoin:round;stroke-miterlimit:4;stroke-dasharray:none;stroke-opacity:0.16582917000000000"
       d="M 29.76754,1.81462 C 30.40504,5.93968 30.377,10.849088 30.377,10.849088 C 30.377,10.849088 35.24673,10.737588 41.26225,11.443017 C 36.36537,6.655218 32.9338,4.658836 29.76754,1.81462 z"
       id="path4891"
       sodipodi:nodetypes="cccc" />
    <path
       style="display:inline;fill:url(#linearGradient4184);fill-opacity:1;fill-rule:evenodd;stroke:none;stroke-width:1px;stroke-linecap:butt;stroke-linejoin:miter;stroke-opacity:1"
       d="M 29.65792,1.507929 C 31.07014,5.630427 30.95301,9.768633 30.95301,9.768633 C 30.95301,9.768633 38.78601,10.31594 41.12815,11.362555 C 41.12815,9.651415 31.83065,1.53714 29.65792,1.507929 z"
       id="path4893"
       sodipodi:nodetypes="cccc" />
    <path
       style="display:inline;font-size:22px;font-style:normal;font-weight:normal;fill:#b3b3b3;fill-opacity:1;stroke:none;stroke-width:1px;stroke-linecap:butt;stroke-linejoin:miter;stroke-opacity:1;font-family:Officer X"
       d="M 25.230662,24.473264 C 24.382503,21.985774 21.132217,20.442934 18.73576,21.693651 C 17.62282,22.296797 17.22367,23.708563 17.656128,24.857913 C 18.603743,28.607589 19.52736,32.36381 20.490019,36.109387 C 21.149852,38.446665 24.101602,39.737157 26.247594,38.553263 C 27.979413,37.692488 28.749151,35.466978 28.009062,33.70094 C 27.082931,30.625045 26.156801,27.549155 25.230662,24.473264 z M 37.710525,26.027221 C 37.59092,24.62893 36.951256,23.335086 36.366792,22.080302 C 35.233077,20.112246 33.208782,18.579096 30.896179,18.412924 C 26.378614,17.744467 21.864368,17.049708 17.344731,16.39775 C 16.184726,16.135764 15.301724,17.517358 16.194276,18.388757 C 17.142468,19.658331 18.808287,19.596103 20.225806,19.733002 C 23.572699,20.035991 26.922881,20.309734 30.267709,20.631119 C 31.797036,20.934781 32.845641,22.275443 33.245779,23.711145 C 33.655566,24.626818 33.928902,25.916155 32.95107,26.574389 C 32.0802,27.005301 31.065881,26.845443 30.122454,26.966219 C 29.442431,26.965315 28.535214,27.057267 28.409916,27.900587 C 28.194614,29.144602 29.546354,30.318559 30.754042,29.930099 C 32.451736,29.657791 34.163236,29.455877 35.851705,29.136503 C 37.197343,28.787868 37.845315,27.317191 37.710525,26.027221 L 37.710525,26.027221 z"
       id="text2281" />
    <path
       style="display:inline;font-size:22px;font-style:normal;font-weight:normal;fill:#b76617;fill-opacity:1;stroke:#b76617;stroke-width:1px;stroke-linecap:butt;stroke-linejoin:miter;stroke-opacity:1;font-family:Officer X"
       d="M 24.901554,23.608039 C 24.053395,21.120548 20.803108,19.577708 18.406651,20.828427 C 17.293713,21.431571 16.894562,22.843338 17.32702,23.992686 C 18.274645,27.742364 19.198253,31.498583 20.160911,35.244163 C 20.820744,37.581436 23.772493,38.871928 25.918485,37.688038 C 27.650304,36.82726 28.420041,34.601751 27.679954,32.835712 C 26.753823,29.759821 25.827693,26.68393 24.901554,23.608039 z M 37.381418,25.161995 C 37.261813,23.763705 36.622146,22.469861 36.037683,21.215078 C 34.903968,19.247021 32.879683,17.713871 30.56707,17.547699 C 26.049505,16.879243 21.535261,16.184485 17.015622,15.532525 C 15.855617,15.27054 14.972615,16.652133 15.865168,17.523532 C 16.813371,18.793107 18.47918,18.730879 19.896697,18.867777 C 23.24359,19.170767 26.593783,19.44451 29.938602,19.765895 C 31.467927,20.069557 32.516533,21.410219 32.91667,22.84592 C 33.326458,23.761592 33.599793,25.05093 32.621961,25.709163 C 31.751104,26.140075 30.736773,25.980218 29.793355,26.100993 C 29.113324,26.100089 28.206115,26.192041 28.080809,27.035362 C 27.865507,28.279377 29.217245,29.453333 30.424934,29.064872 C 32.122627,28.792565 33.834127,28.590653 35.522598,28.271278 C 36.868234,27.922643 37.516203,26.451966 37.381418,25.161995 L 37.381418,25.161995 z"
       id="text2318" />
    <path
       style="display:inline;font-size:22px;font-style:normal;font-weight:normal;fill:url(#linearGradient4486);fill-opacity:1;stroke:none;stroke-width:1px;stroke-linecap:butt;stroke-linejoin:miter;stroke-opacity:1;font-family:Officer X"
       d="M 25.502728,23.206049 C 24.65457,20.718558 21.404282,19.175719 19.007825,20.426438 C 17.894886,21.029582 17.495737,22.441349 17.928195,23.590698 C 18.87582,27.340375 19.799426,31.096594 20.762085,34.842175 C 21.421918,37.179447 24.373667,38.46994 26.519661,37.286049 C 28.251479,36.425272 29.021215,34.199762 28.281128,32.433724 C 27.354998,29.357833 26.428867,26.281941 25.502728,23.206049 z M 37.982591,24.760007 C 37.862987,23.361716 37.22332,22.067871 36.638857,20.813088 C 35.505142,18.845032 33.480858,17.311881 31.168245,17.145709 C 26.65068,16.477253 22.136434,15.782495 17.616797,15.130535 C 16.456791,14.86855 15.57379,16.250144 16.466342,17.121542 C 17.414544,18.391117 19.080354,18.328889 20.497873,18.465787 C 23.844764,18.768778 27.194957,19.042521 30.539775,19.363905 C 32.069101,19.667567 33.117707,21.008229 33.517846,22.44393 C 33.927633,23.359603 34.200967,24.648941 33.223135,25.307174 C 32.352277,25.738086 31.337947,25.578228 30.394529,25.699004 C 29.714498,25.6981 28.80729,25.790052 28.681983,26.633373 C 28.466681,27.877388 29.81842,29.051344 31.026109,28.662883 C 32.723801,28.390577 34.435302,28.188664 36.12377,27.869289 C 37.469407,27.520654 38.117378,26.049977 37.982591,24.760007 L 37.982591,24.760007 z"
       id="path4474" />
  </g>
</svg>
