<svg xmlns="http://www.w3.org/2000/svg" xmlns:xlink="http://www.w3.org/1999/xlink" viewBox="0 0 48 48"><defs><linearGradient id="a"><stop offset="0" stop-color="#fff"/><stop offset=".015" stop-color="#fff" stop-opacity=".235"/><stop offset=".985" stop-color="#fff" stop-opacity=".157"/><stop offset="1" stop-color="#fff" stop-opacity=".392"/></linearGradient><linearGradient id="b"><stop offset="0" stop-color="#f4f4f4"/><stop offset="1" stop-color="#dbdbdb"/></linearGradient><linearGradient id="c"><stop offset="0"/><stop offset="1" stop-opacity="0"/></linearGradient><linearGradient id="d"><stop offset="0" stop-opacity="0"/><stop offset=".5"/><stop offset="1" stop-opacity="0"/></linearGradient><linearGradient id="e"><stop offset="0" stop-opacity=".318"/><stop offset="1" stop-opacity=".24"/></linearGradient><linearGradient x1="24" y1="5.564" x2="24" y2="42.111" id="j" xlink:href="#a" gradientUnits="userSpaceOnUse" gradientTransform="matrix(.8919 0 0 1.13514 2.595 -4.743)"/><linearGradient x1="25.132" y1=".985" x2="25.132" y2="47.013" id="i" xlink:href="#b" gradientUnits="userSpaceOnUse" gradientTransform="matrix(.97143 0 0 .93432 .686 -1.357)"/><radialGradient cx="605.714" cy="486.648" r="117.143" fx="605.714" fy="486.648" id="h" xlink:href="#c" gradientUnits="userSpaceOnUse" gradientTransform="matrix(.02304 0 0 .0147 26.36 37.04)"/><radialGradient cx="605.714" cy="486.648" r="117.143" fx="605.714" fy="486.648" id="g" xlink:href="#c" gradientUnits="userSpaceOnUse" gradientTransform="matrix(-.02304 0 0 .0147 21.623 37.04)"/><linearGradient x1="302.857" y1="366.648" x2="302.857" y2="609.505" id="f" xlink:href="#d" gradientUnits="userSpaceOnUse" gradientTransform="matrix(.06732 0 0 .0147 -.34 37.04)"/><linearGradient x1="-51.786" y1="50.786" x2="-51.786" y2="2.906" id="k" xlink:href="#e" gradientUnits="userSpaceOnUse" gradientTransform="matrix(.8075 0 0 .89472 59.41 -2.977)"/></defs><path opacity=".3" fill="url(#f)" overflow="visible" d="M7.738 42.43h32.508V46H7.738z"/><path d="M7.738 42.43V46c-1.187.007-2.87-.8-2.87-1.785 0-.986 1.326-1.785 2.87-1.785z" opacity=".3" fill="url(#g)" overflow="visible"/><path d="M40.246 42.43V46c1.187.007 2.87-.8 2.87-1.785 0-.986-1.326-1.785-2.87-1.785z" opacity=".3" fill="url(#h)" overflow="visible"/><path d="M7 1l34 .003V44H7V1z" fill="url(#i)"/><path d="M40.5 43.5h-33v-42h33z" fill="none" stroke="url(#j)" stroke-linecap="round"/><path d="M6.5.5l35 .003V44.5h-35V.5z" fill="none" stroke="url(#k)" stroke-linejoin="round"/><g fill="#d70751"><path d="M25.934 23.94c-.41.006.077.21.61.293.148-.116.28-.23.4-.345-.33.082-.67.083-1.01.053m2.192-.54c.244-.334.422-.702.484-1.082-.055.27-.2.506-.34.753-.764.48-.072-.285 0-.577-.82 1.034-.114.62-.144.91m.81-2.11c.05-.733-.144-.5-.21-.22.076.04.137.52.21.22m-4.552-10.06c.218.04.472.07.435.124.24-.053.29-.1-.44-.12m.432.12l-.155.032.143-.014.01-.015"/><path d="M31.62 21.566c.024.66-.193.982-.39 1.55l-.353.175c-.29.57.028.36-.18.81-.45.4-1.367 1.258-1.66 1.337-.216-.005.144-.254.19-.35-.603.414-.484.62-1.408.874l-.03-.06c-2.28 1.07-5.44-1.052-5.4-3.95-.03.184-.07.138-.12.21-.12-1.49.69-2.99 2.05-3.6 1.33-.66 2.89-.39 3.84.5-.53-.684-1.57-1.41-2.8-1.343-1.21.02-2.34.79-2.72 1.624-.62.39-.69 1.5-.96 1.706-.366 2.668.68 3.82 2.45 5.177.28.188.08.217.115.36a4.8 4.8 0 0 1-1.57-1.2c.236.344.49.678.82.94-.555-.187-1.296-1.343-1.51-1.39.954 1.71 3.875 3 5.406 2.36-.71.027-1.607.015-2.402-.28-.335-.17-.79-.527-.707-.593 2.09.78 4.245.59 6.05-.86.46-.36.963-.97 1.108-.978-.216.33.04.16-.13.45.46-.74-.2-.3.475-1.276l.248.34c-.092-.614.763-1.358.676-2.328.197-.297.22.32.01 1 .29-.756.08-.878.15-1.5.08.21.187.43.24.652-.187-.73.193-1.23.29-1.655-.096-.04-.29.324-.338-.54.007-.375.105-.196.142-.29-.073-.04-.266-.33-.384-.88.086-.13.23.336.345.355-.074-.44-.202-.774-.21-1.11-.337-.71-.12.094-.392-.305-.36-1.126.3-.26.345-.773.546.792.858 2.02 1 2.528a10.35 10.35 0 0 0-.5-1.8c.166.07-.268-1.276.216-.385-.513-1.9-2.21-3.673-3.763-4.506.19.172.43.39.342.426-.778-.46-.64-.496-.75-.69-.634-.257-.676.02-1.09 0-1.19-.63-1.42-.564-2.516-.96l.05.234c-.79-.262-.92.1-1.77 0-.05-.04.273-.146.54-.184-.76.1-.726-.15-1.47.025.182-.124.377-.21.572-.32-.62.038-1.485.36-1.22.067-1.012.455-2.81 1.09-3.82 2.036l-.033-.212c-.463.557-2.018 1.66-2.14 2.38l-.126.03c-.24.41-.397.87-.587 1.29-.313.536-.46.206-.415.29-.62 1.256-.93 2.31-1.193 3.176.19.283.006 1.704.077 2.84-.31 5.62 3.94 11.073 8.59 12.33.68.246 1.693.237 2.555.26-1.015-.29-1.146-.153-2.14-.5-.712-.335-.87-.72-1.375-1.16l.2.355c-.99-.35-.575-.432-1.383-.69l.213-.28c-.323-.022-.853-.54-.998-.83l-.352.017c-.422-.523-.65-.9-.63-1.19l-.115.202c-.13-.22-1.557-1.958-.816-1.554-.14-.127-.32-.207-.52-.567l.15-.173c-.36-.46-.66-1.045-.636-1.24.19.256.32.304.45.35-.9-2.234-.95-.124-1.63-2.274l.144-.01c-.11-.166-.18-.346-.27-.524l.064-.624c-.647-.748-.18-3.184-.087-4.52.064-.543.54-1.12.902-2.028l-.22-.04c.42-.736 2.405-2.954 3.325-2.84.446-.56-.09 0-.175-.14.98-1.015 1.287-.718 1.947-.9.713-.42-.61.166-.272-.16 1.23-.314.873-.715 2.48-.874.17.097-.393.15-.534.274 1.027-.502 3.247-.387 4.69.28 1.67.78 3.553 3.092 3.627 5.267l.086.024c-.04.862.135 1.862-.17 2.78l.208-.435"/><path d="M21.474 24.5l-.058.287c.27.365.482.76.825 1.045-.24-.48-.43-.68-.76-1.33m.638-.026c-.143-.157-.226-.346-.32-.534.09.33.274.615.446.905l-.126-.37m11.233-2.442l-.06.15a7.265 7.265 0 0 1-.713 2.273 7.16 7.16 0 0 0 .773-2.423m-8.88-11c.275-.1.68-.056.972-.122-.38.032-.76.05-1.136.1l.165.022m-9.7 5.157c.067.59-.44.818.115.43.3-.672-.115-.186-.11-.43m-.654 2.728c.13-.393.15-.63.2-.857-.352.452-.16.55-.2.856"/></g></svg>