<?xml version="1.0" encoding="UTF-8" standalone="no"?>
<!-- Created with Inkscape (http://www.inkscape.org/) -->

<svg
   xmlns:svg="http://www.w3.org/2000/svg"
   xmlns="http://www.w3.org/2000/svg"
   xmlns:xlink="http://www.w3.org/1999/xlink"
   version="1.1"
   width="48"
   height="48"
   id="svg5987">
  <defs
     id="defs5989">
    <radialGradient
       cx="5"
       cy="41.5"
       r="5"
       fx="5"
       fy="41.5"
       id="radialGradient3314"
       xlink:href="#linearGradient3681"
       gradientUnits="userSpaceOnUse"
       gradientTransform="matrix(0.5938225,0,0,1.5366531,41.140892,-103.93618)" />
    <linearGradient
       id="linearGradient3703">
      <stop
         id="stop3705"
         style="stop-color:black;stop-opacity:0"
         offset="0" />
      <stop
         id="stop3711"
         style="stop-color:black;stop-opacity:1"
         offset="0.5" />
      <stop
         id="stop3707"
         style="stop-color:black;stop-opacity:0"
         offset="1" />
    </linearGradient>
    <linearGradient
       x1="17.554192"
       y1="46.000275"
       x2="17.554192"
       y2="34.999718"
       id="linearGradient3312"
       xlink:href="#linearGradient3703"
       gradientUnits="userSpaceOnUse"
       gradientTransform="matrix(1.7570316,0,0,1.3969574,-17.394014,-16.411698)" />
    <linearGradient
       id="linearGradient3681">
      <stop
         id="stop3683"
         style="stop-color:black;stop-opacity:1"
         offset="0" />
      <stop
         id="stop3685"
         style="stop-color:black;stop-opacity:0"
         offset="1" />
    </linearGradient>
    <radialGradient
       cx="5"
       cy="41.5"
       r="5"
       fx="5"
       fy="41.5"
       id="radialGradient3310"
       xlink:href="#linearGradient3681"
       gradientUnits="userSpaceOnUse"
       gradientTransform="matrix(0.5938225,0,0,1.5366531,-6.6594735,-103.93618)" />
    <linearGradient
       id="linearGradient3295">
      <stop
         id="stop3297"
         style="stop-color:#c9af8b;stop-opacity:1"
         offset="0" />
      <stop
         id="stop3299"
         style="stop-color:#ad8757;stop-opacity:1"
         offset="0.23942046" />
      <stop
         id="stop3301"
         style="stop-color:#c2a57f;stop-opacity:1"
         offset="0.27582464" />
      <stop
         id="stop3303"
         style="stop-color:#9d7d53;stop-opacity:1"
         offset="1" />
    </linearGradient>
    <linearGradient
       x1="15.464298"
       y1="7.9756851"
       x2="15.464298"
       y2="45.04248"
       id="linearGradient3293"
       xlink:href="#linearGradient3295"
       gradientUnits="userSpaceOnUse" />
    <linearGradient
       id="linearGradient3199">
      <stop
         id="stop3201"
         style="stop-color:#dac197;stop-opacity:1"
         offset="0" />
      <stop
         id="stop3203"
         style="stop-color:#c1a581;stop-opacity:1"
         offset="0.23942046" />
      <stop
         id="stop3205"
         style="stop-color:#dbc298;stop-opacity:1"
         offset="0.27582464" />
      <stop
         id="stop3207"
         style="stop-color:#a68b60;stop-opacity:1"
         offset="1" />
    </linearGradient>
    <linearGradient
       x1="24.822832"
       y1="15.377745"
       x2="24.996943"
       y2="37.27668"
       id="linearGradient3197"
       xlink:href="#linearGradient3199"
       gradientUnits="userSpaceOnUse"
       gradientTransform="matrix(1.2822251,0,0,1.5572619,-6.0701918,-15.290756)" />
    <linearGradient
       id="linearGradient4559">
      <stop
         id="stop4561"
         style="stop-color:white;stop-opacity:0"
         offset="0" />
      <stop
         id="stop4563"
         style="stop-color:white;stop-opacity:0"
         offset="1" />
    </linearGradient>
    <linearGradient
       x1="23.451576"
       y1="30.554907"
       x2="43.00663"
       y2="45.934479"
       id="linearGradient2659"
       xlink:href="#linearGradient4559"
       gradientUnits="userSpaceOnUse"
       gradientTransform="matrix(1.2822251,0,0,1.1746872,-6.0701918,-5.3031677)" />
    <linearGradient
       id="linearGradient3827">
      <stop
         id="stop3829"
         style="stop-color:white;stop-opacity:1"
         offset="0" />
      <stop
         id="stop4295"
         style="stop-color:white;stop-opacity:1"
         offset="0.3021296" />
      <stop
         id="stop4293"
         style="stop-color:white;stop-opacity:0.6901961"
         offset="0.34361121" />
      <stop
         id="stop3832"
         style="stop-color:white;stop-opacity:0"
         offset="1" />
    </linearGradient>
    <linearGradient
       x1="26"
       y1="22"
       x2="26"
       y2="8"
       id="linearGradient3834"
       xlink:href="#linearGradient3827"
       gradientUnits="userSpaceOnUse" />
    <linearGradient
       id="linearGradient3275">
      <stop
         id="stop3277"
         style="stop-color:white;stop-opacity:0"
         offset="0" />
      <stop
         id="stop3283"
         style="stop-color:white;stop-opacity:1"
         offset="0.245" />
      <stop
         id="stop3285"
         style="stop-color:white;stop-opacity:1"
         offset="0.77350003" />
      <stop
         id="stop3279"
         style="stop-color:white;stop-opacity:0"
         offset="1" />
    </linearGradient>
    <linearGradient
       x1="44.994774"
       y1="17.5"
       x2="3.0052247"
       y2="17.5"
       id="linearGradient3281"
       xlink:href="#linearGradient3275"
       gradientUnits="userSpaceOnUse"
       spreadMethod="reflect" />
  </defs>
  <g
     id="layer1">
    <g
       transform="matrix(0.9926623,0,0,0.9761474,0.2751901,1.2929634)"
       id="g3305"
       style="opacity:0.4;display:inline">
      <rect
         width="2.9601951"
         height="15.366531"
         x="-3.6903627"
         y="-47.848343"
         transform="scale(-1,-1)"
         id="rect2484"
         style="fill:url(#radialGradient3310);fill-opacity:1;stroke:none" />
      <rect
         width="40.41172"
         height="15.366531"
         x="3.6903627"
         y="32.481812"
         id="rect2486"
         style="fill:url(#linearGradient3312);fill-opacity:1;stroke:none" />
      <rect
         width="2.9601951"
         height="15.366531"
         x="44.110001"
         y="-47.848343"
         transform="scale(1,-1)"
         id="rect3444"
         style="fill:url(#radialGradient3314);fill-opacity:1;stroke:none;display:inline" />
    </g>
    <path
       d="m 9.010725,8.5 29.497723,0 c 1.721985,0 2.496922,-0.2865505 2.991552,1 l 3.001734,8 0,25.673912 c 0,1.553304 0.10293,1.315976 -1.619063,1.315976 l -37.7653422,0 c -1.7219924,0 -1.6190635,0.237328 -1.6190635,-1.315976 L 3.4982653,17.5 6.5,9.5 c 0.4808316,-1.2605622 0.7887325,-1 2.510725,-1 z"
       id="path2488"
       style="fill:url(#linearGradient3197);fill-opacity:1;fill-rule:nonzero;stroke:url(#linearGradient3293);stroke-width:0.99420077;stroke-linecap:round;stroke-linejoin:miter;stroke-miterlimit:4;stroke-opacity:1;stroke-dasharray:none;stroke-dashoffset:0;marker:none;visibility:visible;display:block;overflow:visible" />
    <path
       d="m 9.948194,9.5129459 27.652872,0 c 1.614293,0 2.61338,0.5565361 3.289521,2.0860281 l 2.32894,6.419721 0,23.144557 c 0,1.460676 -0.818759,2.196085 -2.433056,2.196085 l -33.7332031,0 c -1.6142934,0 -2.2727761,-0.808827 -2.2727761,-2.269504 l 0,-23.071138 2.2538109,-6.55736 C 7.4850649,10.275943 8.3338968,9.5129459 9.948194,9.5129459 z"
       id="path2490"
       style="opacity:0.50549454;fill:none;stroke:url(#linearGradient2659);stroke-width:0.74211526;stroke-linecap:butt;stroke-linejoin:miter;stroke-miterlimit:4;stroke-opacity:1;stroke-dasharray:none;stroke-dashoffset:0;marker:none;visibility:visible;display:block;overflow:visible" />
    <path
       d="m 22,8 c 1.333333,0 2.666667,0 4,0 0,4.666667 0,9.333333 0,14 -0.393729,0 -0.787458,0 -1.181187,0 -0.403125,0 -0.80625,0 -1.209375,0 -0.324529,0 -0.649057,0 -0.973585,0 C 22.423902,22 22.211951,22 22,22 22,17.333333 22,12.666667 22,8 z"
       id="rect3326"
       style="opacity:0.4;fill:url(#linearGradient3834);fill-opacity:1;fill-rule:nonzero;stroke:none;stroke-width:1;marker:none;visibility:visible;display:inline;overflow:visible;enable-background:accumulate" />
    <path
       d="m 3.5052248,17.5 40.9895502,0"
       id="path3273"
       style="opacity:0.4;fill:none;stroke:url(#linearGradient3281);stroke-width:1px;stroke-linecap:square;stroke-linejoin:miter;stroke-opacity:1;display:inline" />
    <path
       d="m 25.261802,20.500531 c -0.04963,0.06201 -1.576558,0.137594 -0.588287,0.04669 0.196102,-0.01556 0.392185,-0.03113 0.588287,-0.04669 z m -1.454429,0.156392 c -0.539918,0.276234 -0.386432,0.24917 0.123088,0.249583 0.156274,0.04558 0.950397,0.03548 0.703686,-0.05295 -0.853247,-0.12895 0.916056,-0.06493 -0.06927,0.09368 -0.909341,0.227258 0.205339,0.13211 0.504429,0.06833 0.653807,0.05071 0.64216,-0.255011 1.365219,0.101316 0.550947,0.133853 1.069186,0.43811 1.588668,0.608318 0.688096,-0.326234 1.056739,0.356801 1.570609,0.605089 -0.863106,-0.818073 0.584899,0.189946 0.84352,0.437661 1.01851,0.859251 1.874102,1.970965 2.237363,3.268781 -0.370328,-0.690065 -0.153664,0.444829 -0.08408,0.652941 0.128538,0.267048 0.514031,2.008151 0.188537,0.851712 -0.171598,-0.43682 -0.466514,-1.721067 -0.788687,-1.680575 -0.633621,-0.144633 -0.289661,0.772399 0,0.656835 0.06598,0.318767 0.523122,1.683281 -0.03517,0.848401 0.374003,0.611627 0.135801,0.975165 0.359709,1.579539 0.252568,0.100056 -0.311465,0.999723 -0.125112,1.454428 -0.101514,-0.344001 -0.261214,-0.799699 -0.195729,-0.159202 0.112452,0.31136 -0.289128,1.445422 -0.05451,0.526729 0.05242,-1.312411 -0.185821,0.493118 -0.473316,0.849141 -0.259954,0.256085 -0.107427,1.091987 -0.449381,0.456701 -0.25988,0.190745 -0.476757,1.662423 -0.344047,0.750673 -0.653916,0.577396 -1.362327,1.286638 -2.236886,1.621579 -1.305451,0.596185 -2.864698,0.460002 -4.15946,0.02052 0.674602,0.826555 1.870641,0.713229 2.799375,0.76631 -1.557826,0.465542 -3.215001,-0.36307 -4.335429,-1.42265 -0.304081,-0.239747 -0.804013,-1.098001 -0.188148,-0.414922 0.22572,0.362498 1.392798,1.354273 0.551267,0.49263 -0.690621,-0.916932 0.664195,0.639396 1.126007,0.672466 -0.247279,-0.7164 -1.354851,-1.077896 -1.715452,-1.856579 -0.640349,-0.88964 -0.761021,-2.061973 -0.566855,-3.114655 0.294277,-0.517265 0.351986,-1.187101 0.863067,-1.573669 0.896594,-1.657409 3.437896,-1.891557 4.687538,-0.505343 0.70969,0.74178 -0.684456,-0.487737 -1.063928,-0.381622 -1.793203,-0.454332 -3.756142,0.915166 -3.937488,2.762597 -0.06007,0.300248 -0.06762,0.838679 0.09104,0.566188 -0.05911,2.236644 2.357168,4.300879 4.551916,3.609484 0.571189,-0.05655 1.108372,-0.408717 1.56109,-0.834257 -0.55391,0.670411 0.564888,-0.139836 0.788653,-0.407088 0.79254,-0.236139 0.360952,-1.14722 1.027299,-1.392855 0.179908,-0.225006 0.568346,-1.842575 0.156398,-0.969619 0.268441,-0.805117 0.13337,-1.656417 0.156382,-2.486597 -0.180352,-0.706564 -0.355806,-1.647307 -0.815679,-2.335335 -0.903145,-1.513983 -2.424782,-2.735746 -4.22784,-2.892905 -0.703582,-0.201462 -2.248571,0.103738 -2.357647,0.137765 0.966642,-0.312687 -0.847498,-0.0415 -0.99697,0.242386 -0.382724,0.233187 -1.412132,0.596249 -0.453537,0.375338 -0.524025,0.268644 -1.748863,0.399612 -1.855969,0.94651 0.653309,-0.105381 -0.627037,0.319651 -0.806199,0.47983 -0.800424,0.620195 -1.548837,1.341753 -2.092077,2.201904 0.389825,0.0794 -0.19344,0.629844 -0.237421,0.915587 -0.375002,0.589648 -0.454035,1.27599 -0.481984,1.961988 -0.09649,1.019733 -0.312247,2.16293 0.16558,3.106124 -0.107051,0.356711 -0.01063,0.676115 0.194132,0.975653 -0.330144,0.494828 0.600807,1.060321 1.000895,1.344963 0.312209,0.407805 0.398026,0.983229 -0.0782,0.437881 0.382489,0.685027 0.413281,1.289807 0.87578,1.735929 -0.41415,0.04469 0.592552,1.095558 0.766314,1.360592 0.200224,-0.231093 0.347192,1.123492 0.969608,0.907062 0.07135,0.512947 1.179668,0.59249 0.750673,1.000892 0.233975,-0.01678 1.37259,0.958158 1.040456,0.342579 0.129747,0.03561 0.506537,0.509192 0.739466,0.690085 0.672454,0.580468 1.643518,0.473907 2.411342,0.765823 -2.346533,0.144817 -4.608188,-0.93493 -6.273258,-2.53455 -2.449626,-2.250553 -3.962119,-5.579371 -3.771591,-8.927405 -0.05879,-0.812939 0.108848,-1.6393 -0.05794,-2.441108 0.315462,-0.907923 0.600239,-2.188764 1.141633,-2.815019 0.627353,-0.638072 0.760685,-1.632093 1.450522,-2.251997 0.726541,-0.793044 1.273315,-1.188768 1.983217,-1.594204 0.910037,-0.581101 1.912281,-1.007069 2.915694,-1.392863 -0.189975,0.322022 0.970409,-0.171761 1.079094,-0.06255 l 0,3e-6 z m -8.100997,4.58222 c 0.619608,0.0036 -0.489351,1.089091 -0.0088,0.187682 l 0.0088,-0.18768 0,-2e-6 z m -0.39096,1.673374 c -0.04011,1.058591 -0.47884,0.937056 -1.9e-5,0 l 1.9e-5,0 z m 13.058537,2.47096 c 0.300087,0.229693 -0.121044,0.900451 -0.0821,0.109487 l 0.0821,-0.109487 z m 4.050511,1.110369 c -0.104266,0.756388 -0.334709,1.533879 -0.703759,2.18946 0.357331,-0.685891 0.493114,-1.459111 0.703759,-2.18946 l 0,0 z m -4.253821,0.250222 c 0.08054,0.534325 -0.803638,1.395077 -0.594271,0.516102 0.527151,-0.695858 0.056,-0.0091 -0.01564,0.297127 0.386081,-0.07902 0.466837,-0.530385 0.609916,-0.813229 z m -1.501322,1.407512 c -0.1833,0.708954 -1.653798,-0.08652 -0.60562,0.06255 0.203473,0.0033 0.408487,-0.0081 0.60562,-0.06256 l 0,2e-6 z m -4.644782,0.04692 c 0.22256,0.27597 0.628968,1.262589 0.158816,0.421285 -0.06842,-0.132795 -0.152512,-0.267762 -0.158816,-0.421285 z m -0.297155,0.516087 c 0.241721,0.369555 0.514368,0.834738 0.70376,1.204204 -0.250509,-0.339993 -0.872338,-0.730656 -0.70376,-1.204204 z"
       id="text2244"
       style="font-size:18.03777695px;font-style:normal;font-weight:normal;opacity:0.6;fill:#340000;fill-opacity:1;stroke:#3d0000;stroke-width:0.38630131px;stroke-linecap:butt;stroke-linejoin:miter;stroke-opacity:1;font-family:OpenLogos" />
  </g>
</svg>
