<?xml version="1.0" encoding="UTF-8" standalone="no"?>
<!-- Created with Inkscape (http://www.inkscape.org/) -->

<svg
   xmlns:dc="http://purl.org/dc/elements/1.1/"
   xmlns:cc="http://creativecommons.org/ns#"
   xmlns:rdf="http://www.w3.org/1999/02/22-rdf-syntax-ns#"
   xmlns:svg="http://www.w3.org/2000/svg"
   xmlns="http://www.w3.org/2000/svg"
   xmlns:xlink="http://www.w3.org/1999/xlink"
   xmlns:inkscape="http://www.inkscape.org/namespaces/inkscape"
   version="1.1"
   width="48"
   height="48"
   id="svg4112">
  <defs
     id="defs4114">
    <linearGradient
       x1="23.99999"
       y1="5.5641499"
       x2="23.99999"
       y2="43"
       id="linearGradient3988"
       xlink:href="#linearGradient3977"
       gradientUnits="userSpaceOnUse"
       gradientTransform="matrix(0.89189189,0,0,1.1351351,2.5945999,-4.7432315)" />
    <linearGradient
       id="linearGradient3977">
      <stop
         id="stop3979"
         style="stop-color:#ffffff;stop-opacity:1"
         offset="0" />
      <stop
         id="stop3981"
         style="stop-color:#ffffff;stop-opacity:0.23529412"
         offset="0.03626217" />
      <stop
         id="stop3983"
         style="stop-color:#ffffff;stop-opacity:0.15686275"
         offset="0.95056331" />
      <stop
         id="stop3985"
         style="stop-color:#ffffff;stop-opacity:0.39215687"
         offset="1" />
    </linearGradient>
    <radialGradient
       cx="605.71429"
       cy="486.64789"
       r="117.14286"
       fx="605.71429"
       fy="486.64789"
       id="radialGradient3327"
       xlink:href="#linearGradient5060"
       gradientUnits="userSpaceOnUse"
       gradientTransform="matrix(0.02303995,0,0,0.01470022,26.360882,37.040176)" />
    <linearGradient
       id="linearGradient5060">
      <stop
         id="stop5062"
         style="stop-color:#000000;stop-opacity:1"
         offset="0" />
      <stop
         id="stop5064"
         style="stop-color:#000000;stop-opacity:0"
         offset="1" />
    </linearGradient>
    <radialGradient
       cx="605.71429"
       cy="486.64789"
       r="117.14286"
       fx="605.71429"
       fy="486.64789"
       id="radialGradient3330"
       xlink:href="#linearGradient5060"
       gradientUnits="userSpaceOnUse"
       gradientTransform="matrix(-0.02303994,0,0,0.01470022,21.62311,37.040176)" />
    <linearGradient
       id="linearGradient5048">
      <stop
         id="stop5050"
         style="stop-color:#000000;stop-opacity:0"
         offset="0" />
      <stop
         id="stop5056"
         style="stop-color:#000000;stop-opacity:1"
         offset="0.5" />
      <stop
         id="stop5052"
         style="stop-color:#000000;stop-opacity:0"
         offset="1" />
    </linearGradient>
    <linearGradient
       x1="302.85715"
       y1="366.64789"
       x2="302.85715"
       y2="609.50507"
       id="linearGradient4110"
       xlink:href="#linearGradient5048"
       gradientUnits="userSpaceOnUse"
       gradientTransform="matrix(0.06732488,0,0,0.01470022,-0.3411391,37.040146)" />
    <radialGradient
       cx="14.531452"
       cy="8.9239874"
       r="18.000002"
       fx="14.531452"
       fy="8.9239874"
       id="radialGradient3943-0"
       xlink:href="#linearGradient3993-2"
       gradientUnits="userSpaceOnUse"
       gradientTransform="matrix(-2.2703142e-8,2.1357283,-3.5601359,-3.7844828e-8,54.620631,-24.438287)" />
    <linearGradient
       id="linearGradient3993-2">
      <stop
         id="stop3995-8"
         style="stop-color:#a3c0d0;stop-opacity:1"
         offset="0" />
      <stop
         id="stop4001-3"
         style="stop-color:#427da1;stop-opacity:1"
         offset="1" />
    </linearGradient>
    <linearGradient
       x1="-51.786404"
       y1="53.623615"
       x2="-51.786404"
       y2="2.9062471"
       id="linearGradient3945-8"
       xlink:href="#linearGradient2490-0"
       gradientUnits="userSpaceOnUse"
       gradientTransform="matrix(0.8074968,0,0,0.8948322,59.410231,-2.9805532)" />
    <linearGradient
       id="linearGradient2490-0">
      <stop
         id="stop2492-4"
         style="stop-color:#2e4a5a;stop-opacity:1"
         offset="0" />
      <stop
         id="stop2494-0"
         style="stop-color:#6e8796;stop-opacity:1"
         offset="1" />
    </linearGradient>
  </defs>
  <metadata
     id="metadata4117">
    <rdf:RDF>
      <cc:Work
         rdf:about="">
        <dc:format>image/svg+xml</dc:format>
        <dc:type
           rdf:resource="http://purl.org/dc/dcmitype/StillImage" />
        <dc:title />
      </cc:Work>
    </rdf:RDF>
  </metadata>
  <g
     id="layer1">
    <rect
       width="32.508301"
       height="3.5700529"
       x="7.7378473"
       y="42.429947"
       id="rect2879"
       style="opacity:0.3;fill:url(#linearGradient4110);fill-opacity:1;fill-rule:nonzero;stroke:none;stroke-width:1;marker:none;visibility:visible;display:inline;overflow:visible" />
    <path
       d="m 7.7378475,42.430102 c 0,0 0,3.569856 0,3.569856 -1.1865002,0.0067 -2.8683795,-0.799823 -2.8683795,-1.785158 0,-0.985333 1.3240446,-1.784697 2.8683795,-1.784698 z"
       inkscape:connector-curvature="0"
       id="path2881"
       style="opacity:0.3;fill:url(#radialGradient3330);fill-opacity:1;fill-rule:nonzero;stroke:none;stroke-width:1;marker:none;visibility:visible;display:inline;overflow:visible" />
    <path
       d="m 40.246148,42.430102 c 0,0 0,3.569856 0,3.569856 1.1865,0.0067 2.86838,-0.799823 2.86838,-1.785158 0,-0.985333 -1.324045,-1.784697 -2.86838,-1.784698 z"
       inkscape:connector-curvature="0"
       id="path2883"
       style="opacity:0.3;fill:url(#radialGradient3327);fill-opacity:1;fill-rule:nonzero;stroke:none;stroke-width:1;marker:none;visibility:visible;display:inline;overflow:visible" />
    <path
       d="M 6.4999609,0.49719893 C 14.520256,0.49719893 41.5,0.5 41.5,0.5 l 4.2e-5,44.002803 c 0,0 -23.333387,0 -35.0000811,0 0,-14.668535 0,-29.33707 0,-44.00560407 z"
       inkscape:connector-curvature="0"
       id="path4160"
       style="color:#000000;fill:url(#radialGradient3943-0);fill-opacity:1;fill-rule:nonzero;stroke:url(#linearGradient3945-8);stroke-width:0.99992186;stroke-linecap:butt;stroke-linejoin:round;stroke-miterlimit:4;stroke-opacity:1;stroke-dasharray:none;stroke-dashoffset:0;marker:none;visibility:visible;display:inline;overflow:visible;enable-background:accumulate" />
    <path
       d="m 17.250001,11.6875 c -3.812265,4.34e-4 -8.410784,2.815989 -10.25,7.46875 0,3.635417 0,7.270833 0,10.90625 0.847295,3.330655 2.204081,5.897429 3.34375,8.65625 l 5.25,-2.1875 c -1.2055,-2.469428 -2.75521,-4.93394 -3.3125,-6.15625 -1.56018,-3.42248 -2.13025,-4.95392 -2,-7.5625 0.12595,-2.522 0.96662,-4.07568 2.5,-5.5625 1.53341,-1.48668 3.65452,-2.22555 6.1875,-1.875 5.364479,0.7432 7.09073,4.80332 7.21875,6.78125 0.105369,1.62681 -1.06611,5.63326 -5.1875,5.4375 -2.857121,-0.13595 -4.4631,-1.71971 -4.65625,-4.40625 -0.142291,-1.98 1.7736,-3.97857 4.875,-2.96875 0.499199,0.16244 0.53295,-0.73279 -0.03125,-1.1875 -1.452561,-1.17058 -7.20695,-0.72309 -7.1875,3.875 0.01803,4.26106 3.4265,7.1059 6.71875,7.125 6.894999,0.04058 8.249,-5.40233 8,-9.15625 -0.275891,-4.15969 -5.52194,-9.18819 -11.46875,-9.1875 z"
       inkscape:connector-curvature="0"
       id="path3605"
       style="fill:#4a6574;fill-opacity:1;fill-rule:evenodd;stroke:none" />
    <path
       d="m 17.250001,10.6875 c -3.816476,4.35e-4 -8.41213,2.838476 -10.25,7.5 0,3.625 0,7.25 0,10.875 0.853571,3.329512 2.204074,5.897429 3.34375,8.65625 l 5.25,-2.1875 c -1.2055,-2.46943 -2.78646,-4.93394 -3.34375,-6.15625 -1.56018,-3.42248 -2.13026,-4.95391 -2,-7.5625 0.12595,-2.522 0.99787,-4.07569 2.53125,-5.5625 1.53341,-1.48668 3.623269,-2.22554 6.15625,-1.875 5.36448,0.7432 7.090709,4.803331 7.21875,6.78125 0.10537,1.62681 -1.034841,5.63327 -5.15625,5.4375 -2.85712,-0.13595 -4.463089,-1.750959 -4.65625,-4.4375 -0.14229,-1.98 1.77358,-3.947311 4.875,-2.9375 0.4992,0.16244 0.532979,-0.7328 -0.03125,-1.1875 -1.45256,-1.17058 -7.20696,-0.72308 -7.1875,3.875 0.01803,4.26106 3.42652,7.105901 6.71875,7.125 6.895,0.04058 8.217739,-5.402321 7.96875,-9.15625 -0.27589,-4.15969 -5.49066,-9.18819 -11.4375,-9.1875 z"
       inkscape:connector-curvature="0"
       id="path3607"
       style="fill:#eeeeec;fill-opacity:1;fill-rule:evenodd;stroke:none" />
    <path
       d="m 37.656251,11.96875 -5.25,2.1875 c 1.20547,2.46971 2.78647,4.93353 3.34375,6.15625 1.56018,3.42249 2.13026,4.95377 2,7.5625 -0.12594,2.52158 -0.99784,4.044299 -2.53125,5.53125 -1.53339,1.48668 -3.623281,2.256941 -6.15625,1.90625 -5.36451,-0.74264 -7.09071,-4.80334 -7.21875,-6.78125 -0.10536,-1.62653 1.034851,-5.63327 5.15625,-5.4375 2.85712,0.13595 4.4631,1.719719 4.65625,4.40625 0.14229,1.97987 -1.77359,3.978689 -4.875,2.96875 -0.49923,-0.1623 -0.532969,0.7328 0.03125,1.1875 1.45256,1.17071 7.20695,0.72294 7.1875,-3.875 -0.018,-4.26092 -3.426519,-7.13714 -6.71875,-7.15625 -6.89502,-0.04085 -8.217729,5.433161 -7.96875,9.1875 0.27588,4.15927 5.49065,9.188618 11.4375,9.1875 3.81225,-2.1e-4 8.40807,-2.847665 10.25,-7.5 0,-3.645304 0,-7.246386 0,-10.875 -0.85357,-3.329532 -2.20406,-5.897243 -3.34375,-8.65625 z"
       inkscape:connector-curvature="0"
       id="path3609"
       style="opacity:0.77380952;fill:#466170;fill-opacity:1;fill-rule:evenodd;stroke:none" />
    <path
       d="m 37.500001,10.6875 -5.25,2.1875 c 1.20547,2.46971 2.78647,4.93353 3.34375,6.15625 1.56018,3.42249 2.13026,4.95377 2,7.5625 -0.12594,2.52158 -0.99784,4.044299 -2.53125,5.53125 -1.53339,1.48668 -3.62328,2.256941 -6.15625,1.90625 -5.36451,-0.74264 -7.090711,-4.803339 -7.21875,-6.78125 -0.10536,-1.62653 1.03485,-5.63327 5.15625,-5.4375 2.85712,0.13595 4.463101,1.71972 4.65625,4.40625 0.14229,1.97987 -1.773591,3.97869 -4.875,2.96875 -0.49923,-0.1623 -0.53297,0.732801 0.03125,1.1875 1.45256,1.17071 7.2382,0.722941 7.21875,-3.875 -0.018,-4.26092 -3.45777,-7.13714 -6.75,-7.15625 -6.89502,-0.04085 -8.217731,5.433159 -7.96875,9.1875 0.27588,4.15927 5.490651,9.18862 11.4375,9.1875 3.92295,-2.16e-4 8.67856,-3.010524 10.40625,-7.90625 0,-3.321538 0,-6.603663 0,-9.90625 -0.83726,-3.605691 -2.2978,-6.308415 -3.5,-9.21875 z"
       inkscape:connector-curvature="0"
       id="path3611"
       style="fill:#a9c5d3;fill-opacity:1;fill-rule:evenodd;stroke:none" />
    <path
       d="m 40.5,43.5 -33,0 0,-41.9999999 33,0 z"
       inkscape:connector-curvature="0"
       id="rect6741-1"
       style="opacity:0.5;fill:none;stroke:url(#linearGradient3988);stroke-width:1;stroke-linecap:round;stroke-linejoin:round;stroke-miterlimit:4;stroke-opacity:1;stroke-dasharray:none;stroke-dashoffset:0" />
  </g>
</svg>
