<?xml version="1.0" encoding="UTF-8" standalone="no"?>
<!-- Created with Inkscape (http://www.inkscape.org/) -->

<svg
   xmlns:dc="http://purl.org/dc/elements/1.1/"
   xmlns:cc="http://creativecommons.org/ns#"
   xmlns:rdf="http://www.w3.org/1999/02/22-rdf-syntax-ns#"
   xmlns:svg="http://www.w3.org/2000/svg"
   xmlns="http://www.w3.org/2000/svg"
   xmlns:xlink="http://www.w3.org/1999/xlink"
   xmlns:inkscape="http://www.inkscape.org/namespaces/inkscape"
   version="1.1"
   width="48"
   height="48"
   id="svg4112">
  <defs
     id="defs4114">
    <linearGradient
       x1="23.99999"
       y1="5.5641499"
       x2="23.99999"
       y2="43"
       id="linearGradient3988"
       xlink:href="#linearGradient3977"
       gradientUnits="userSpaceOnUse"
       gradientTransform="matrix(0.89189189,0,0,1.1351351,2.5945999,-4.7432315)" />
    <linearGradient
       id="linearGradient3977">
      <stop
         id="stop3979"
         style="stop-color:#ffffff;stop-opacity:1"
         offset="0" />
      <stop
         id="stop3981"
         style="stop-color:#ffffff;stop-opacity:0.23529412"
         offset="0.03626217" />
      <stop
         id="stop3983"
         style="stop-color:#ffffff;stop-opacity:0.15686275"
         offset="0.95056331" />
      <stop
         id="stop3985"
         style="stop-color:#ffffff;stop-opacity:0.39215687"
         offset="1" />
    </linearGradient>
    <radialGradient
       cx="605.71429"
       cy="486.64789"
       r="117.14286"
       fx="605.71429"
       fy="486.64789"
       id="radialGradient3327"
       xlink:href="#linearGradient5060"
       gradientUnits="userSpaceOnUse"
       gradientTransform="matrix(0.02303995,0,0,0.01470022,26.360882,37.040176)" />
    <linearGradient
       id="linearGradient5060">
      <stop
         id="stop5062"
         style="stop-color:#000000;stop-opacity:1"
         offset="0" />
      <stop
         id="stop5064"
         style="stop-color:#000000;stop-opacity:0"
         offset="1" />
    </linearGradient>
    <radialGradient
       cx="605.71429"
       cy="486.64789"
       r="117.14286"
       fx="605.71429"
       fy="486.64789"
       id="radialGradient3330"
       xlink:href="#linearGradient5060"
       gradientUnits="userSpaceOnUse"
       gradientTransform="matrix(-0.02303994,0,0,0.01470022,21.62311,37.040176)" />
    <linearGradient
       id="linearGradient5048">
      <stop
         id="stop5050"
         style="stop-color:#000000;stop-opacity:0"
         offset="0" />
      <stop
         id="stop5056"
         style="stop-color:#000000;stop-opacity:1"
         offset="0.5" />
      <stop
         id="stop5052"
         style="stop-color:#000000;stop-opacity:0"
         offset="1" />
    </linearGradient>
    <linearGradient
       x1="302.85715"
       y1="366.64789"
       x2="302.85715"
       y2="609.50507"
       id="linearGradient4110"
       xlink:href="#linearGradient5048"
       gradientUnits="userSpaceOnUse"
       gradientTransform="matrix(0.06732488,0,0,0.01470022,-0.3411391,37.040146)" />
    <linearGradient
       x1="24.239185"
       y1="44.110138"
       x2="24.239185"
       y2="0.19081046"
       id="linearGradient3055"
       xlink:href="#linearGradient4106"
       gradientUnits="userSpaceOnUse"
       gradientTransform="matrix(0.9901323,0,0,1.009966,4.190299,-4.6084465e-7)" />
    <linearGradient
       id="linearGradient4106">
      <stop
         id="stop4108"
         style="stop-color:#51293c;stop-opacity:1"
         offset="0" />
      <stop
         id="stop4110"
         style="stop-color:#876374;stop-opacity:1"
         offset="1" />
    </linearGradient>
    <linearGradient
       x1="75.854454"
       y1="28"
       x2="91"
       y2="12"
       id="linearGradient3075"
       xlink:href="#linearGradient5293"
       gradientUnits="userSpaceOnUse"
       gradientTransform="matrix(1.1871658,0,0,0.9191539,-63.472795,3.9763934)"
       spreadMethod="reflect" />
    <linearGradient
       id="linearGradient5293">
      <stop
         id="stop5295"
         style="stop-color:#ffffff;stop-opacity:1"
         offset="0" />
      <stop
         id="stop5297"
         style="stop-color:#ffffff;stop-opacity:0"
         offset="1" />
    </linearGradient>
    <linearGradient
       x1="75.854454"
       y1="28"
       x2="91"
       y2="12"
       id="linearGradient3078"
       xlink:href="#linearGradient4000"
       gradientUnits="userSpaceOnUse"
       gradientTransform="matrix(1.1871658,0,0,0.9191539,-63.472795,5.0875045)"
       spreadMethod="reflect" />
    <linearGradient
       id="linearGradient4000">
      <stop
         id="stop4002"
         style="stop-color:#000000;stop-opacity:1"
         offset="0" />
      <stop
         id="stop4004"
         style="stop-color:#000000;stop-opacity:0"
         offset="1" />
    </linearGradient>
    <radialGradient
       cx="14.239056"
       cy="11.49049"
       r="18.000002"
       fx="14.239056"
       fy="11.49049"
       id="radialGradient3131-4"
       xlink:href="#linearGradient4145-42-7"
       gradientUnits="userSpaceOnUse"
       gradientTransform="matrix(0,3.1785897,-5.2985257,0,74.19899,-39.503429)" />
    <linearGradient
       id="linearGradient4145-42-7">
      <stop
         id="stop4953-6"
         style="stop-color:#e694bb;stop-opacity:1"
         offset="0" />
      <stop
         id="stop4955-5"
         style="stop-color:#d3819a;stop-opacity:1"
         offset="0.26238" />
      <stop
         id="stop4957-6"
         style="stop-color:#b25a64;stop-opacity:1"
         offset="0.704952" />
      <stop
         id="stop4959-9"
         style="stop-color:#98313d;stop-opacity:1"
         offset="1" />
    </linearGradient>
    <linearGradient
       x1="-51.786404"
       y1="53.623615"
       x2="-51.786404"
       y2="2.9062471"
       id="linearGradient3133-3"
       xlink:href="#linearGradient4711-257-7"
       gradientUnits="userSpaceOnUse"
       gradientTransform="matrix(0.8074968,0,0,0.8948322,59.41823,-2.9805541)" />
    <linearGradient
       id="linearGradient4711-257-7">
      <stop
         id="stop4963-4"
         style="stop-color:#643340;stop-opacity:1"
         offset="0" />
      <stop
         id="stop4965-5"
         style="stop-color:#a77a86;stop-opacity:1"
         offset="1" />
    </linearGradient>
    <linearGradient
       id="linearGradient8265-821-176-38-919-66-249-48-321">
      <stop
         id="stop5601"
         style="stop-color:#ffffff;stop-opacity:1"
         offset="0" />
      <stop
         id="stop5603"
         style="stop-color:#ffffff;stop-opacity:0"
         offset="1" />
    </linearGradient>
    <linearGradient
       x1="16.626165"
       y1="15.298182"
       x2="20.054544"
       y2="24.627615"
       id="linearGradient3056"
       xlink:href="#linearGradient8265-821-176-38-919-66-249-48-321"
       gradientUnits="userSpaceOnUse"
       gradientTransform="matrix(0.740136,0,0,1.3934396,6.244736,-7.3170934)" />
  </defs>
  <metadata
     id="metadata4117">
    <rdf:RDF>
      <cc:Work
         rdf:about="">
        <dc:format>image/svg+xml</dc:format>
        <dc:type
           rdf:resource="http://purl.org/dc/dcmitype/StillImage" />
        <dc:title />
      </cc:Work>
    </rdf:RDF>
  </metadata>
  <g
     id="layer1">
    <rect
       width="32.508301"
       height="3.5700529"
       x="7.7378473"
       y="42.429947"
       id="rect2879"
       style="opacity:0.3;fill:url(#linearGradient4110);fill-opacity:1;fill-rule:nonzero;stroke:none;stroke-width:1;marker:none;visibility:visible;display:inline;overflow:visible" />
    <path
       d="m 7.7378475,42.430102 c 0,0 0,3.569856 0,3.569856 -1.1865002,0.0067 -2.8683795,-0.799823 -2.8683795,-1.785158 0,-0.985333 1.3240446,-1.784697 2.8683795,-1.784698 z"
       inkscape:connector-curvature="0"
       id="path2881"
       style="opacity:0.3;fill:url(#radialGradient3330);fill-opacity:1;fill-rule:nonzero;stroke:none;stroke-width:1;marker:none;visibility:visible;display:inline;overflow:visible" />
    <path
       d="m 40.246148,42.430102 c 0,0 0,3.569856 0,3.569856 1.1865,0.0067 2.86838,-0.799823 2.86838,-1.785158 0,-0.985333 -1.324045,-1.784697 -2.86838,-1.784698 z"
       inkscape:connector-curvature="0"
       id="path2883"
       style="opacity:0.3;fill:url(#radialGradient3327);fill-opacity:1;fill-rule:nonzero;stroke:none;stroke-width:1;marker:none;visibility:visible;display:inline;overflow:visible" />
    <path
       d="M 6.4999609,0.49719893 C 14.520256,0.49719893 41.5,0.5 41.5,0.5 l 4.2e-5,44.002803 c 0,0 -23.333387,0 -35.0000811,0 0,-14.668535 0,-29.33707 0,-44.00560407 z"
       inkscape:connector-curvature="0"
       id="path4160"
       style="color:#000000;fill:url(#radialGradient3131-4);fill-opacity:1;fill-rule:nonzero;stroke:url(#linearGradient3133-3);stroke-width:0.99992186;stroke-linecap:butt;stroke-linejoin:round;stroke-miterlimit:4;stroke-opacity:1;stroke-dasharray:none;stroke-dashoffset:0;marker:none;visibility:visible;display:inline;overflow:visible;enable-background:accumulate" />
    <path
       d="m 33.138834,16.117353 c -0.436027,-0.01686 -0.870502,0.0023 -1.295455,0.03535 -3.739575,0.29108 -6.9727,2.485697 -8.215909,5.974501 -0.76605,2.149777 -0.612964,4.426987 0.204546,6.540134 L 7,43 l 0,1 9.957046,0 -0.215939,-2.74732 5.488636,1.060563 0.647727,-4.91394 5.147728,1.060563 3.375,-2.792815 c 3.44655,1.08614 6.943926,0.531272 9.477272,-1.272675 0,-3.932487 0,-7.828338 0,-11.772242 -0.418191,0.102195 -0.903472,0.07692 -1.363636,-0.106055 -1.123402,-0.446693 -1.75795,-1.640517 -1.397727,-2.651405 0.270164,-0.758161 1.045524,-1.249602 1.874999,-1.237324 0.27649,0.0041 0.571421,0.06509 0.852273,0.176762 0.01521,0.006 0.01908,0.02903 0.03409,0.03535 0,-0.614529 0,-1.224765 0,-1.838308 -1.097526,-0.286856 -2.20244,-0.170146 -3.068181,0.318168 -0.235023,-0.110867 -0.437069,-0.2562 -0.681819,-0.35352 -1.321745,-0.525557 -2.680556,-0.797873 -3.988636,-0.84845 z"
       inkscape:connector-curvature="0"
       id="path5316"
       style="opacity:0.1;fill:url(#linearGradient3078);fill-opacity:1;fill-rule:nonzero;stroke:none;stroke-width:0.91176528;marker:none;visibility:visible;display:inline;overflow:visible;enable-background:accumulate" />
    <path
       d="m 33.138834,15.006242 c -0.436027,-0.01686 -0.870502,0.0023 -1.295455,0.03535 -3.739575,0.29108 -6.9727,2.485696 -8.215909,5.9745 -0.76605,2.149777 -0.612964,4.426987 0.204546,6.540135 L 7,42 c 0,0 0.046067,2 0.046067,2 3.333955,0 6.667896,0 10.001857,0 l -0.306817,-3.858431 5.488636,1.060562 0.647727,-4.913938 5.147728,1.060562 3.375,-2.792815 c 3.44655,1.08614 6.943926,0.531272 9.477272,-1.272673 0,-3.932489 0,-7.82834 0,-11.772243 -0.418191,0.102194 -0.903472,0.07692 -1.363636,-0.106056 -1.123402,-0.446692 -1.75795,-1.640518 -1.397727,-2.651405 0.270164,-0.758161 1.045524,-1.249601 1.874999,-1.237324 0.27649,0.0041 0.571421,0.06509 0.852273,0.176761 0.01521,0.006 0.01908,0.02903 0.03409,0.03535 0,-0.614528 0,-1.224764 0,-1.838308 -1.097526,-0.286856 -2.20244,-0.170145 -3.068181,0.318169 -0.235023,-0.110867 -0.437069,-0.256201 -0.681819,-0.353521 -1.321745,-0.525556 -2.680556,-0.797872 -3.988636,-0.848449 z"
       inkscape:connector-curvature="0"
       id="path5283"
       style="opacity:0.4;fill:url(#linearGradient3075);fill-opacity:1;fill-rule:nonzero;stroke:none;stroke-width:0.91176528;marker:none;visibility:visible;display:inline;overflow:visible;enable-background:accumulate" />
    <path
       d="m 29.208212,36 c -0.491746,-1.745554 -0.983492,-3.491108 -1.475237,-5.236662 -2.478398,0 -4.956796,0 -7.435195,0 -0.496663,1.745554 -0.993326,3.491108 -1.489989,5.236662 -1.539164,0 -3.078328,0 -4.617492,0 2.335792,-7.36343 4.671584,-14.726859 7.007376,-22.090289 1.863716,0 3.727432,0 5.591147,0 2.345628,7.36343 4.691254,14.726859 7.036881,22.090289 -1.539164,0 -3.078328,0 -4.617491,0 z m -2.537407,-9.149111 c -0.810381,-2.91729 -1.743862,-5.800075 -2.447284,-8.74681 -0.13589,-0.443868 -0.195972,-1.624267 -0.321558,-0.530198 -0.686912,3.131217 -1.634068,6.193649 -2.497755,9.277008 1.755532,0 3.511064,0 5.266597,0 z"
       inkscape:connector-curvature="0"
       id="text4083"
       style="font-size:30.51395607px;font-style:normal;font-variant:normal;font-weight:bold;font-stretch:normal;opacity:0.4;fill:#ffffff;fill-opacity:1;stroke:none;font-family:Droid Sans;-inkscape-font-specification:Droid Sans Bold" />
    <path
       d="m 29.208212,35.000001 c -0.491746,-1.745554 -0.983492,-3.491108 -1.475237,-5.236662 -2.478398,0 -4.956796,0 -7.435195,0 -0.496663,1.745554 -0.993326,3.491108 -1.489989,5.236662 -1.539164,0 -3.078328,0 -4.617492,0 2.335792,-7.36343 4.671584,-14.72686 7.007376,-22.090288 1.863716,0 3.727432,0 5.591147,0 2.345628,7.363428 4.691254,14.726858 7.036881,22.090288 -1.539164,0 -3.078328,0 -4.617491,0 z M 26.670805,25.85089 c -0.810381,-2.91729 -1.743862,-5.800074 -2.447284,-8.74681 -0.13589,-0.443868 -0.195972,-1.624266 -0.321558,-0.530198 -0.686912,3.131217 -1.634068,6.193649 -2.497755,9.277008 1.755532,0 3.511064,0 5.266597,0 z"
       inkscape:connector-curvature="0"
       id="text3893"
       style="font-size:30.51395607px;font-style:normal;font-variant:normal;font-weight:bold;font-stretch:normal;fill:url(#linearGradient3055);fill-opacity:1;stroke:none;font-family:Droid Sans;-inkscape-font-specification:Droid Sans Bold" />
    <path
       d="m 40.5,43.5 -33,0 0,-41.9999999 33,0 z"
       inkscape:connector-curvature="0"
       id="rect6741-1"
       style="opacity:0.5;fill:none;stroke:url(#linearGradient3988);stroke-width:1;stroke-linecap:round;stroke-linejoin:round;stroke-miterlimit:4;stroke-opacity:1;stroke-dasharray:none;stroke-dashoffset:0" />
    <path
       d="m 7.008002,1 0,25.343182 c 0.00205,0.187559 0.045738,0.364927 0.120456,0.489049 0.074718,0.124122 0.173636,0.183649 0.27274,0.164124 l 33.306123,-9.928258 c 0.171327,-0.05087 0.298285,-0.326667 0.300681,-0.653175 L 41.008002,1 z"
       inkscape:connector-curvature="0"
       id="path3879"
       style="opacity:0.2;fill:url(#linearGradient3056);fill-opacity:1;fill-rule:evenodd;stroke:none" />
  </g>
</svg>
