<svg xmlns="http://www.w3.org/2000/svg" xmlns:xlink="http://www.w3.org/1999/xlink" viewBox="0 0 48 48"><defs><linearGradient x1="24" y1="5.564" x2="24" y2="43" id="k" xlink:href="#a" gradientUnits="userSpaceOnUse" gradientTransform="matrix(.8919 0 0 1.13514 2.595 -4.743)"/><linearGradient id="a"><stop offset="0" stop-color="#fff"/><stop offset=".036" stop-color="#fff" stop-opacity=".235"/><stop offset=".951" stop-color="#fff" stop-opacity=".157"/><stop offset="1" stop-color="#fff" stop-opacity=".392"/></linearGradient><linearGradient x1="25.132" y1=".985" x2="25.132" y2="47.013" id="i" xlink:href="#b" gradientUnits="userSpaceOnUse" gradientTransform="matrix(1 0 0 .95617 0 -1.915)"/><linearGradient id="b"><stop offset="0" stop-color="#f4f4f4"/><stop offset="1" stop-color="#dbdbdb"/></linearGradient><linearGradient x1="-51.786" y1="50.786" x2="-51.786" y2="2.906" id="j" xlink:href="#c" gradientUnits="userSpaceOnUse" gradientTransform="matrix(.8075 0 0 .89483 59.41 -2.98)"/><linearGradient id="c"><stop offset="0" stop-color="#a0a0a0"/><stop offset="1" stop-color="#bebebe"/></linearGradient><radialGradient cx="605.714" cy="486.648" r="117.143" fx="605.714" fy="486.648" id="h" xlink:href="#d" gradientUnits="userSpaceOnUse" gradientTransform="matrix(.02304 0 0 .0147 26.36 37.04)"/><linearGradient id="d"><stop offset="0"/><stop offset="1" stop-opacity="0"/></linearGradient><radialGradient cx="605.714" cy="486.648" r="117.143" fx="605.714" fy="486.648" id="g" xlink:href="#d" gradientUnits="userSpaceOnUse" gradientTransform="matrix(-.02304 0 0 .0147 21.623 37.04)"/><linearGradient id="e"><stop offset="0" stop-opacity="0"/><stop offset=".5"/><stop offset="1" stop-opacity="0"/></linearGradient><linearGradient x1="302.857" y1="366.648" x2="302.857" y2="609.505" id="f" xlink:href="#e" gradientUnits="userSpaceOnUse" gradientTransform="matrix(.06732 0 0 .0147 -.34 37.04)"/></defs><path opacity=".3" fill="url(#f)" overflow="visible" d="M7.738 42.43h32.508V46H7.738z"/><path d="M7.738 42.43V46c-1.187.007-2.87-.8-2.87-1.785 0-.986 1.326-1.785 2.87-1.785z" opacity=".3" fill="url(#g)" overflow="visible"/><path d="M40.246 42.43V46c1.187.007 2.87-.8 2.87-1.785 0-.986-1.326-1.785-2.87-1.785z" opacity=".3" fill="url(#h)" overflow="visible"/><path d="M6.5.497L41.5.5v44.003h-35V.497z" fill="url(#i)" stroke="url(#j)" stroke-linejoin="round"/><path d="M40.5 43.5h-33v-42h33z" fill="none" stroke="url(#k)" stroke-linecap="round" stroke-linejoin="round"/><path d="M32 36h4v4h-4zm-8 0h4v4h-4zm-8 0h4v4h-4zm12-4h4v4h-4zm-8 0h4v4h-4zm-8 0h4v4h-4zm20-4h4v4h-4zm-8 0h4v4h-4zm-8 0h4v4h-4zm12-4h4v4h-4zm-8 0h4v4h-4zm-8 0h4v4h-4zm20-4h4v4h-4zm-8 0h4v4h-4zm-8 0h4v4h-4zm12-4h4v4h-4zm-8 0h4v4h-4zm-8 0h4v4h-4zm20-4h4v4h-4zm-8 0h4v4h-4zm-8 0h4v4h-4zm12-4h4v4h-4zm-8 0h4v4h-4zm-8 0h4v4h-4z" opacity=".3" color="#000" fill="#fff" overflow="visible"/><path d="M32 35h4v4h-4zm-8 0h4v4h-4zm-8 0h4v4h-4zm12-4h4v4h-4zm-8 0h4v4h-4zm-8 0h4v4h-4zm20-4h4v4h-4zm-8 0h4v4h-4zm-8 0h4v4h-4zm12-4h4v4h-4zm-8 0h4v4h-4zm-8 0h4v4h-4zm20-4h4v4h-4zm-8 0h4v4h-4zm-8 0h4v4h-4zm12-4h4v4h-4zm-8 0h4v4h-4zm-8 0h4v4h-4zm20-4h4v4h-4zm-8 0h4v4h-4zm-8 0h4v4h-4zm12-4h4v4h-4zm-8 0h4v4h-4zm-8 0h4v4h-4z" opacity=".2" color="#000" overflow="visible"/></svg>