<?xml version="1.0" encoding="UTF-8" standalone="no"?>
<svg
   xmlns:dc="http://purl.org/dc/elements/1.1/"
   xmlns:cc="http://creativecommons.org/ns#"
   xmlns:rdf="http://www.w3.org/1999/02/22-rdf-syntax-ns#"
   xmlns:svg="http://www.w3.org/2000/svg"
   xmlns="http://www.w3.org/2000/svg"
   xmlns:xlink="http://www.w3.org/1999/xlink"
   xmlns:sodipodi="http://sodipodi.sourceforge.net/DTD/sodipodi-0.dtd"
   xmlns:inkscape="http://www.inkscape.org/namespaces/inkscape"
   version="1.1"
   width="48"
   height="48"
   id="svg3901"
   sodipodi:docname="application-vnd.openxmlformats-officedocument.spreadsheetml.template.svg"
   inkscape:version="1.0.2 (e86c870879, 2021-01-15)">
  <sodipodi:namedview
     pagecolor="#ffffff"
     bordercolor="#666666"
     borderopacity="1"
     objecttolerance="10"
     gridtolerance="10"
     guidetolerance="10"
     inkscape:pageopacity="0"
     inkscape:pageshadow="2"
     inkscape:window-width="1920"
     inkscape:window-height="1030"
     id="namedview42"
     showgrid="false"
     inkscape:zoom="16.520833"
     inkscape:cx="24.121059"
     inkscape:cy="24"
     inkscape:window-x="0"
     inkscape:window-y="0"
     inkscape:window-maximized="1"
     inkscape:current-layer="svg3901" />
  <defs
     id="defs3903">
    <linearGradient
       id="linearGradient3403">
      <stop
         offset="0"
         style="stop-color:#ffffff;stop-opacity:1"
         id="stop3405" />
      <stop
         offset="0"
         style="stop-color:#ffffff;stop-opacity:0.23529412"
         id="stop3407" />
      <stop
         offset="1"
         style="stop-color:#ffffff;stop-opacity:0.15686275"
         id="stop3409" />
      <stop
         offset="1"
         style="stop-color:#ffffff;stop-opacity:0.39215687"
         id="stop3411" />
    </linearGradient>
    <linearGradient
       id="linearGradient3600">
      <stop
         id="stop3602"
         style="stop-color:#f4f4f4;stop-opacity:1"
         offset="0" />
      <stop
         id="stop3604"
         style="stop-color:#dbdbdb;stop-opacity:1"
         offset="1" />
    </linearGradient>
    <linearGradient
       id="linearGradient5060">
      <stop
         id="stop5062"
         style="stop-color:#000000;stop-opacity:1"
         offset="0" />
      <stop
         id="stop5064"
         style="stop-color:#000000;stop-opacity:0"
         offset="1" />
    </linearGradient>
    <linearGradient
       id="linearGradient5048">
      <stop
         id="stop5050"
         style="stop-color:#000000;stop-opacity:0"
         offset="0" />
      <stop
         id="stop5056"
         style="stop-color:#000000;stop-opacity:1"
         offset="0.5" />
      <stop
         id="stop5052"
         style="stop-color:#000000;stop-opacity:0"
         offset="1" />
    </linearGradient>
    <linearGradient
       id="linearGradient3104-6">
      <stop
         offset="0"
         style="stop-color:#000000;stop-opacity:0.31782946"
         id="stop3106-3" />
      <stop
         offset="1"
         style="stop-color:#000000;stop-opacity:0.24031007"
         id="stop3108-9" />
    </linearGradient>
    <linearGradient
       xlink:href="#linearGradient3403"
       id="linearGradient3106"
       gradientUnits="userSpaceOnUse"
       gradientTransform="matrix(0.89189189,0,0,1.1351351,2.5945999,-4.7432314)"
       x1="23.99999"
       y1="5.9404659"
       x2="23.99999"
       y2="42.110645" />
    <linearGradient
       xlink:href="#linearGradient3600"
       id="linearGradient3109"
       gradientUnits="userSpaceOnUse"
       gradientTransform="matrix(0.97142632,0,0,0.93431938,0.68576678,-1.3569996)"
       x1="25.132275"
       y1="0.98520643"
       x2="25.132275"
       y2="47.013336" />
    <radialGradient
       xlink:href="#linearGradient5060"
       id="radialGradient3112"
       gradientUnits="userSpaceOnUse"
       gradientTransform="matrix(0.02303995,0,0,0.01470022,26.360882,37.040176)"
       cx="605.71429"
       cy="486.64789"
       fx="605.71429"
       fy="486.64789"
       r="117.14286" />
    <radialGradient
       xlink:href="#linearGradient5060"
       id="radialGradient3115"
       gradientUnits="userSpaceOnUse"
       gradientTransform="matrix(-0.02303994,0,0,0.01470022,21.62311,37.040176)"
       cx="605.71429"
       cy="486.64789"
       fx="605.71429"
       fy="486.64789"
       r="117.14286" />
    <linearGradient
       xlink:href="#linearGradient5048"
       id="linearGradient3118"
       gradientUnits="userSpaceOnUse"
       gradientTransform="matrix(0.06732488,0,0,0.01470022,-0.3411391,37.040146)"
       x1="302.85715"
       y1="366.64789"
       x2="302.85715"
       y2="609.50507" />
    <linearGradient
       xlink:href="#linearGradient3104-6"
       id="linearGradient3170"
       gradientUnits="userSpaceOnUse"
       gradientTransform="matrix(0.80749686,0,0,0.89471714,59.410232,-2.9773433)"
       x1="-51.786404"
       y1="50.786446"
       x2="-51.786404"
       y2="2.9062471" />
    <radialGradient
       r="12.671875"
       fy="9.9571075"
       fx="5.0852842"
       cy="9.9571075"
       cx="5.6155143"
       gradientTransform="matrix(-2.7521908e-8,7.5232227,-9.2361126,-3.3074898e-8,115.9544,-64.480095)"
       gradientUnits="userSpaceOnUse"
       id="radialGradient4777"
       xlink:href="#linearGradient3242-7-3-8-0-4-58" />
    <linearGradient
       id="linearGradient3242-7-3-8-0-4-58">
      <stop
         id="stop3244-5-8-5-6-4-3"
         style="stop-color:#bdff69;stop-opacity:1;"
         offset="0" />
      <stop
         id="stop3246-9-5-1-5-3-0"
         style="stop-color:#8ed451;stop-opacity:1;"
         offset="0.26238" />
      <stop
         id="stop3248-7-2-0-7-5-35"
         style="stop-color:#58aa30;stop-opacity:1;"
         offset="0.66093999" />
      <stop
         id="stop3250-8-2-8-5-6-40"
         style="stop-color:#2a6c1f;stop-opacity:1;"
         offset="1" />
    </linearGradient>
    <radialGradient
       xlink:href="#linearGradient5060"
       id="radialGradient3155"
       gradientUnits="userSpaceOnUse"
       gradientTransform="matrix(0.04016195,0,0,0.02225161,48.013776,1032.7998)"
       cx="605.71429"
       cy="486.64789"
       fx="605.71429"
       fy="486.64789"
       r="117.14286" />
    <radialGradient
       xlink:href="#linearGradient5060"
       id="radialGradient3157"
       gradientUnits="userSpaceOnUse"
       gradientTransform="matrix(0,-1.000001,1.142856,0,-41.10259,45.50001)"
       cx="7"
       cy="39.464806"
       fx="7"
       fy="39.464806"
       r="3.5" />
    <radialGradient
       xlink:href="#linearGradient5060"
       id="radialGradient3159"
       gradientUnits="userSpaceOnUse"
       gradientTransform="matrix(0,-1.000001,1.142856,0,-89.10259,-31.49999)"
       cx="7"
       cy="39.464806"
       fx="7"
       fy="39.464806"
       r="3.5" />
    <linearGradient
       xlink:href="#linearGradient5048"
       id="linearGradient3161"
       gradientUnits="userSpaceOnUse"
       x1="18.142136"
       y1="35"
       x2="18.142136"
       y2="42.040661" />
    <linearGradient
       xlink:href="#linearGradient3412-6"
       id="linearGradient3163"
       gradientUnits="userSpaceOnUse"
       gradientTransform="matrix(0,2.7071087,-2.656681,0,169.15523,921.6163)"
       x1="30.739399"
       y1="35.285313"
       x2="45.902721"
       y2="50.73642" />
    <linearGradient
       id="linearGradient3412-6">
      <stop
         id="stop3414-0"
         style="stop-color:#f0f0f1;stop-opacity:1"
         offset="0" />
      <stop
         id="stop3416-6"
         style="stop-color:#cbcdd9;stop-opacity:1"
         offset="1" />
    </linearGradient>
    <linearGradient
       xlink:href="#linearGradient3428"
       id="linearGradient3165"
       gradientUnits="userSpaceOnUse"
       gradientTransform="matrix(-0.96875457,0,0,0.96859829,130.2627,922.49185)"
       x1="75.779678"
       y1="86"
       x2="75.779678"
       y2="127.03607" />
    <linearGradient
       id="linearGradient3428">
      <stop
         offset="0"
         style="stop-color:#ffffff;stop-opacity:1"
         id="stop3430" />
      <stop
         offset="1"
         style="stop-color:#ffffff;stop-opacity:0"
         id="stop3432" />
    </linearGradient>
  </defs>
  <metadata
     id="metadata3906">
    <rdf:RDF>
      <cc:Work
         rdf:about="">
        <dc:format>image/svg+xml</dc:format>
        <dc:type
           rdf:resource="http://purl.org/dc/dcmitype/StillImage" />
        <dc:title />
      </cc:Work>
    </rdf:RDF>
  </metadata>
  <rect
     style="opacity:0.3;fill:url(#linearGradient3118);fill-opacity:1;fill-rule:nonzero;stroke:none;stroke-width:1;marker:none;visibility:visible;display:inline;overflow:visible"
     id="rect2879"
     y="42.429947"
     x="7.7378473"
     height="3.5700529"
     width="32.508301" />
  <path
     style="opacity:0.3;fill:url(#radialGradient3115);fill-opacity:1;fill-rule:nonzero;stroke:none;stroke-width:1;marker:none;visibility:visible;display:inline;overflow:visible"
     id="path2881"
     d="m 7.7378475,42.430102 c 0,0 0,3.569856 0,3.569856 -1.1865002,0.0067 -2.8683795,-0.799823 -2.8683795,-1.785158 0,-0.985333 1.3240446,-1.784697 2.8683795,-1.784698 z" />
  <path
     style="opacity:0.3;fill:url(#radialGradient3112);fill-opacity:1;fill-rule:nonzero;stroke:none;stroke-width:1;marker:none;visibility:visible;display:inline;overflow:visible"
     id="path2883"
     d="m 40.246148,42.430102 c 0,0 0,3.569856 0,3.569856 1.1865,0.0067 2.86838,-0.799823 2.86838,-1.785158 0,-0.985333 -1.324045,-1.784697 -2.86838,-1.784698 z" />
  <path
     style="fill:url(#linearGradient3109);fill-opacity:1;stroke:none;display:inline"
     id="path4160"
     d="m 7,1.0000001 c 7.791126,0 33.999959,0.00274 33.999959,0.00274 L 41,44 C 41,44 18.333334,44 7,44 7,29.666666 7,15.333333 7,1 z" />
  <path
     style="fill:none;stroke:url(#linearGradient3106);stroke-width:1;stroke-linecap:round;stroke-linejoin:miter;stroke-miterlimit:4;stroke-opacity:1;stroke-dasharray:none;stroke-dashoffset:0"
     id="rect6741-1"
     d="m 40.5,43.5 -33,0 0,-41.9999998 33,0 z" />
  <path
     style="fill:none;stroke:url(#linearGradient3170);stroke-width:0.99992192;stroke-linecap:butt;stroke-linejoin:round;stroke-miterlimit:4;stroke-opacity:1;stroke-dasharray:none;stroke-dashoffset:0;display:inline"
     id="path4160-6-1"
     d="m 6.4999605,0.4999623 c 8.0202885,0 35.0000415,0.00298 35.0000415,0.00298 l 3.7e-5,43.9970957 c 0,0 -23.333385,0 -35.0000785,0 0,-14.666738 0,-29.333326 0,-43.9998923 z" />
  <path
     id="path4881"
     d="m 25,12.966667 -12,2.2 L 13,31.3 25,33.5 Z M 26,14.433333 26,16 l 3,0 0,2 -3,0 0,1 3,0 0,2 -3,0 0,1 3,0 0,1.966667 -3,0 L 26,25 l 3,0 0,2 -3,0 0,1 3,0 0,2 -3,0 0,1.5 9,0 0,-17.066667 z M 30,16 l 3.533333,0 0,2 L 30,18 Z m 0,3 3.533333,0 0,2 L 30,21 Z m -8.66781,0.360417 c 0.133188,-0.0026 0.206316,-0.0056 0.20625,0 -1.03e-4,0.01113 -0.375056,0.863543 -0.847917,1.879166 l -0.870833,1.833334 0.870833,1.833333 c 0.472861,1.002005 0.847917,1.860144 0.847917,1.902083 0,0.08807 -0.631855,0.07337 -1.16875,-0.02292 -0.355388,-0.06373 -0.37315,-0.10362 -0.825,-1.2375 -0.257496,-0.646173 -0.506638,-1.21522 -0.55,-1.260417 -0.04334,-0.04519 -0.294881,0.444454 -0.55,1.077083 -0.25512,0.632625 -0.492566,1.17656 -0.527084,1.214584 -0.03454,0.03806 -0.348216,0.03806 -0.710416,0 l -0.664584,-0.06875 0.802084,-1.695834 0.802083,-1.695833 -0.710417,-1.627083 c -0.388967,-0.897695 -0.710416,-1.700911 -0.710416,-1.764584 0,-0.07107 0.268568,-0.114583 0.6875,-0.114583 l 0.6875,0 0.389583,1.1 c 0.218959,0.602115 0.440777,1.124373 0.48125,1.16875 0.04048,0.04437 0.313023,-0.490976 0.595833,-1.191667 l 0.504167,-1.260416 0.733333,-0.04583 c 0.202151,-0.0096 0.393888,-0.02025 0.527084,-0.02292 z M 30,22 l 3.533333,0 0,1.966667 -3.533333,0 z m 0,3 3.533333,0 0,2 L 30,27 Z m 0,3 3.533333,0 0,2 L 30,30 Z"
     style="color:#000000;clip-rule:nonzero;display:inline;overflow:visible;visibility:visible;opacity:1;isolation:auto;mix-blend-mode:normal;color-interpolation:sRGB;color-interpolation-filters:linearRGB;solid-color:#000000;solid-opacity:1;fill:url(#radialGradient4777);fill-opacity:1;fill-rule:nonzero;stroke:none;stroke-width:0.99999994;stroke-linecap:butt;stroke-linejoin:miter;stroke-miterlimit:4;stroke-dasharray:none;stroke-dashoffset:0;stroke-opacity:1;marker:none;color-rendering:auto;image-rendering:auto;shape-rendering:auto;text-rendering:auto;enable-background:accumulate" />
  <g
     transform="matrix(0.75642387,0,0,0.75642387,-11.165806,-744.24979)"
     id="g3138"
     style="stroke-width:1.32201">
    <path
       style="display:inline;overflow:visible;visibility:visible;opacity:0.15;fill:url(#radialGradient3155);fill-opacity:1;fill-rule:nonzero;stroke:none;stroke-width:1.32201;marker:none"
       id="path2881-3"
       d="m 72.217794,1040.9585 c 0,0 0,5.4036 0,5.4036 2.068242,0.01 5,-1.2107 5,-2.7022 0,-1.4915 -2.308,-2.7014 -5,-2.7014 z" />
    <g
       style="opacity:0.2;stroke-width:1.77281"
       id="g22150"
       transform="matrix(-0.9639657,0,0,0.37771717,78.217793,1031.4981)">
      <rect
         style="fill:url(#radialGradient3157);fill-opacity:1;stroke:none;stroke-width:1.77281"
         id="rect22120"
         y="35"
         x="0"
         height="7"
         width="4" />
      <rect
         style="fill:url(#radialGradient3159);fill-opacity:1;stroke:none;stroke-width:1.77281"
         id="rect22134"
         transform="scale(-1)"
         y="-42"
         x="-48"
         height="7"
         width="4" />
      <rect
         style="fill:url(#linearGradient3161);fill-opacity:1;stroke:none;stroke-width:1.77281"
         id="rect22138"
         y="35"
         x="4"
         height="7"
         width="40" />
    </g>
    <path
       style="display:inline;overflow:visible;visibility:visible;opacity:0.8;fill:url(#linearGradient3163);fill-opacity:1;fill-rule:evenodd;stroke:#83899a;stroke-width:1.32201px;stroke-linecap:butt;stroke-linejoin:miter;stroke-miterlimit:4;stroke-dasharray:none;stroke-dashoffset:0;stroke-opacity:1;marker:none;enable-background:accumulate"
       id="path2993"
       d="m 74.912808,1005.3317 -40.047477,40.0476 h 40.047477 z m -8.009491,18.6889 v 13.3492 h -13.51603 z" />
    <path
       style="display:inline;overflow:visible;visibility:visible;opacity:0.5;fill:none;stroke:url(#linearGradient3165);stroke-width:1.32201px;stroke-linecap:butt;stroke-linejoin:miter;stroke-miterlimit:4;stroke-dasharray:none;stroke-dashoffset:0;stroke-opacity:1;marker:none;enable-background:accumulate"
       id="path3934"
       d="m 73.590556,1008.6365 c 0,0 0,35.4143 0,35.4143 0,0 -35.420089,0 -35.420089,0 0,0 35.420089,-35.4143 35.420089,-35.4143 z m -5.812527,13.1365 c 0,0 -16.468828,16.4662 -16.468828,16.4662 0,0 16.468828,0 16.468828,0 0,0 0,-16.4662 0,-16.4662 z" />
    <path
       style="opacity:0.75;fill:none;stroke:#83899a;stroke-width:1.32201;stroke-linecap:round;stroke-linejoin:miter;stroke-miterlimit:4;stroke-dasharray:none;stroke-opacity:1"
       id="path3091"
       d="m 65.658697,1045.3792 v -2.644 m -6.16938,2.644 v -2.6126 m -6.169381,2.6126 v -2.644 m -6.16938,2.644 v -2.644"
       sodipodi:nodetypes="cccccccc" />
    <path
       style="opacity:0.3;fill:none;stroke:#ffffff;stroke-width:1.32201;stroke-linecap:round;stroke-linejoin:miter;stroke-miterlimit:4;stroke-dasharray:none;stroke-opacity:1"
       id="path1176"
       d="m 66.980709,1044.0572 v -1.322 m -6.16938,1.322 v -1.3063 m -6.169381,1.3063 v -1.322 m -6.16938,1.322 v -1.322"
       sodipodi:nodetypes="cccccccc" />
    <path
       style="opacity:0.75;fill:none;stroke:#83899a;stroke-width:1.32201;stroke-linecap:round;stroke-linejoin:miter;stroke-miterlimit:4;stroke-dasharray:none;stroke-opacity:1"
       id="path1178"
       d="m 72.268748,1017.617 h 2.644 m -2.644,6.1694 h 2.644 m -2.644,6.1693 h 2.6126 m -2.6126,6.1694 h 2.644"
       sodipodi:nodetypes="cccccccc" />
    <path
       style="opacity:0.3;fill:none;stroke:#ffffff;stroke-width:1.32201;stroke-linecap:round;stroke-linejoin:miter;stroke-miterlimit:4;stroke-dasharray:none;stroke-opacity:1"
       id="path1180"
       d="m 72.268738,1016.295 h 1.322 m -1.322,6.1693 h 1.322 m -1.322,6.1695 h 1.3063 m -1.3063,6.1693 h 1.322"
       sodipodi:nodetypes="cccccccc" />
  </g>
</svg>
