<svg width="48" height="48" viewBox="0 0 48 48" fill="none" xmlns="http://www.w3.org/2000/svg">
<path opacity="0.3" d="M40.2462 42.4299H7.73785V46H40.2462V42.4299Z" fill="url(#paint0_linear)"/>
<path opacity="0.3" d="M7.73784 42.4301V46C6.55134 46.0067 4.86946 45.2001 4.86946 44.2148C4.86946 43.2295 6.19351 42.4301 7.73784 42.4301Z" fill="url(#paint1_radial)"/>
<path opacity="0.3" d="M40.2462 42.4301V46C41.4327 46.0067 43.1145 45.2001 43.1145 44.2148C43.1145 43.2295 41.7905 42.4301 40.2462 42.4301Z" fill="url(#paint2_radial)"/>
<path d="M7 1C14.7911 1 41 1.00274 41 1.00274L41 44C41 44 18.3333 44 7 44C7 29.6667 7 15.3333 7 1V1Z" fill="url(#paint3_linear)"/>
<path d="M40.5 43.5H7.5V1.5H40.5V43.5Z" stroke="url(#paint4_linear)" stroke-linecap="round"/>
<path d="M6.49995 0.499969C14.5202 0.499969 41.5 0.50295 41.5 0.50295L41.5 44.5C41.5 44.5 18.1666 44.5 6.49995 44.5C6.49995 29.8333 6.49995 15.1667 6.49995 0.500153V0.499969Z" stroke="url(#paint5_linear)" stroke-width="0.999922" stroke-linejoin="round"/>
<path d="M19.3523 30.875H15.7727V17H11V14H24.125V17H19.3523V30.875Z" fill="url(#paint6_linear)"/>
<path d="M30.7904 14C27.668 14 25.6663 15.9789 25.6663 18.5785C25.6663 21.3979 27.3457 22.7314 29.8701 23.7953L30.7438 24.1677C32.3372 24.8593 33.125 25.2813 33.125 26.4694C33.125 27.4588 32.3659 28.1752 30.9157 28.1752C29.1898 28.1752 28.3734 27.0155 27.625 25.8026L24.875 27.6184C25.9027 29.6293 27.7468 31.25 30.9945 31.25C34.3174 31.25 36.7917 29.5406 36.7917 26.4233C36.7917 23.5293 35.1159 22.242 32.1403 20.9794L31.2666 20.6106C29.7663 19.9652 29.1146 19.5467 29.1146 18.5076C29.1146 17.667 29.7663 17.0216 30.7904 17.0216C31.7966 17.0216 32.4411 17.4436 33.0391 18.5076L35.764 16.7769C34.6146 14.766 33.014 14 30.7904 14Z" fill="url(#paint7_linear)"/>
<defs>
<linearGradient id="paint0_linear" x1="20.0487" y1="42.43" x2="20.0487" y2="46" gradientUnits="userSpaceOnUse">
<stop stop-opacity="0"/>
<stop offset="0.5"/>
<stop offset="1" stop-opacity="0"/>
</linearGradient>
<radialGradient id="paint1_radial" cx="0" cy="0" r="1" gradientUnits="userSpaceOnUse" gradientTransform="translate(7.66748 44.194) rotate(180) scale(2.69896 1.72203)">
<stop/>
<stop offset="1" stop-opacity="0"/>
</radialGradient>
<radialGradient id="paint2_radial" cx="0" cy="0" r="1" gradientUnits="userSpaceOnUse" gradientTransform="translate(40.3165 44.194) scale(2.69897 1.72203)">
<stop/>
<stop offset="1" stop-opacity="0"/>
</radialGradient>
<linearGradient id="paint3_linear" x1="25.0999" y1="-0.436502" x2="25.0999" y2="42.5685" gradientUnits="userSpaceOnUse">
<stop stop-color="#F4F4F4"/>
<stop offset="1" stop-color="#DBDBDB"/>
</linearGradient>
<linearGradient id="paint4_linear" x1="24" y1="2" x2="24" y2="43.058" gradientUnits="userSpaceOnUse">
<stop stop-color="white" stop-opacity="0.235294"/>
<stop offset="1" stop-color="white" stop-opacity="0.392157"/>
</linearGradient>
<linearGradient id="paint5_linear" x1="17.5929" y1="42.4622" x2="17.5929" y2="-0.377068" gradientUnits="userSpaceOnUse">
<stop stop-opacity="0.317829"/>
<stop offset="1" stop-opacity="0.24031"/>
</linearGradient>
<linearGradient id="paint6_linear" x1="18.1688" y1="0.623575" x2="18.1688" y2="43.9657" gradientUnits="userSpaceOnUse">
<stop stop-color="#64BAFF"/>
<stop offset="1" stop-color="#3689E6"/>
</linearGradient>
<linearGradient id="paint7_linear" x1="25.56" y1="0.326322" x2="25.56" y2="44.6316" gradientUnits="userSpaceOnUse">
<stop stop-color="#64BAFF"/>
<stop offset="1" stop-color="#3689E6"/>
</linearGradient>
</defs>
</svg>
