<?xml version="1.0" encoding="UTF-8" standalone="no"?>
<svg
   version="1.1"
   width="48"
   height="48"
   id="svg6649"
   sodipodi:docname="application-x-ms-dos-executable.svg"
   inkscape:version="1.4 (e7c3feb100, 2024-10-09)"
   xmlns:inkscape="http://www.inkscape.org/namespaces/inkscape"
   xmlns:sodipodi="http://sodipodi.sourceforge.net/DTD/sodipodi-0.dtd"
   xmlns:xlink="http://www.w3.org/1999/xlink"
   xmlns="http://www.w3.org/2000/svg"
   xmlns:svg="http://www.w3.org/2000/svg"
   xmlns:rdf="http://www.w3.org/1999/02/22-rdf-syntax-ns#"
   xmlns:cc="http://creativecommons.org/ns#"
   xmlns:dc="http://purl.org/dc/elements/1.1/">
  <sodipodi:namedview
     id="namedview1"
     pagecolor="#ffffff"
     bordercolor="#000000"
     borderopacity="0.25"
     inkscape:showpageshadow="2"
     inkscape:pageopacity="0.0"
     inkscape:pagecheckerboard="0"
     inkscape:deskcolor="#d1d1d1"
     inkscape:zoom="24.604167"
     inkscape:cx="23.979678"
     inkscape:cy="24"
     inkscape:current-layer="svg6649" />
  <defs
     id="defs6651">
    <linearGradient
       id="linearGradient1201">
      <stop
         id="stop1193"
         style="stop-color:#ffffff;stop-opacity:1"
         offset="0" />
      <stop
         id="stop1195"
         style="stop-color:#ffffff;stop-opacity:0.23529412"
         offset="0.06781636" />
      <stop
         id="stop1197"
         style="stop-color:#ffffff;stop-opacity:0.15686275"
         offset="0.94694352" />
      <stop
         id="stop1199"
         style="stop-color:#ffffff;stop-opacity:0.39215687"
         offset="1" />
    </linearGradient>
    <linearGradient
       id="linearGradient3688-166-749">
      <stop
         id="stop2883"
         style="stop-color:#181818;stop-opacity:1"
         offset="0" />
      <stop
         id="stop2885"
         style="stop-color:#181818;stop-opacity:0"
         offset="1" />
    </linearGradient>
    <linearGradient
       id="linearGradient3702-501-757">
      <stop
         id="stop2895"
         style="stop-color:#181818;stop-opacity:0"
         offset="0" />
      <stop
         id="stop2897"
         style="stop-color:#181818;stop-opacity:1"
         offset="0.5" />
      <stop
         id="stop2899"
         style="stop-color:#181818;stop-opacity:0"
         offset="1" />
    </linearGradient>
    <radialGradient
       cx="4.9929786"
       cy="43.5"
       r="2.5"
       fx="4.9929786"
       fy="43.5"
       id="radialGradient3013-6"
       xlink:href="#linearGradient3688-166-749"
       gradientUnits="userSpaceOnUse"
       gradientTransform="matrix(2.003784,0,0,0.89999994,29.98813,4.8500025)" />
    <radialGradient
       cx="4.9929786"
       cy="43.5"
       r="2.5"
       fx="4.9929786"
       fy="43.5"
       id="radialGradient3015-1"
       xlink:href="#linearGradient3688-166-749"
       gradientUnits="userSpaceOnUse"
       gradientTransform="matrix(2.003784,0,0,0.89999994,-18.01187,-83.149997)" />
    <linearGradient
       x1="38.999996"
       y1="5.9999938"
       x2="38.999996"
       y2="41.945408"
       id="linearGradient3058-5"
       xlink:href="#linearGradient1201"
       gradientUnits="userSpaceOnUse"
       gradientTransform="translate(4e-6,1.0000062)" />
    <linearGradient
       xlink:href="#linearGradient3702-501-757"
       id="linearGradient1191"
       gradientUnits="userSpaceOnUse"
       x1="25.058096"
       y1="47.027729"
       x2="25.058096"
       y2="39.999443"
       gradientTransform="matrix(1.1428571,0,0,0.6428571,-3.428569,16.035716)" />
    <linearGradient
       xlink:href="#linearGradient10964"
       id="linearGradient10966"
       x1="90.728569"
       y1="118.17792"
       x2="90.728569"
       y2="15.161243"
       gradientUnits="userSpaceOnUse"
       gradientTransform="matrix(0.3717564,0,0,0.3717564,0.20761326,0.09231663)" />
    <linearGradient
       id="linearGradient10964">
      <stop
         style="stop-color:#485a6c;stop-opacity:1"
         offset="0"
         id="stop10960" />
      <stop
         style="stop-color:#667885;stop-opacity:1"
         offset="1"
         id="stop10962" />
    </linearGradient>
  </defs>
  <metadata
     id="metadata6654">
    <rdf:RDF>
      <cc:Work
         rdf:about="">
        <dc:format>image/svg+xml</dc:format>
        <dc:type
           rdf:resource="http://purl.org/dc/dcmitype/StillImage" />
      </cc:Work>
    </rdf:RDF>
  </metadata>
  <path
     id="rect4120-5-3-5-6"
     style="color:#000000;font-variation-settings:normal;clip-rule:nonzero;display:inline;overflow:visible;visibility:visible;opacity:0.03;isolation:auto;mix-blend-mode:normal;color-interpolation:sRGB;color-interpolation-filters:linearRGB;solid-color:#000000;solid-opacity:1;vector-effect:none;fill:#ffffff;fill-opacity:1;fill-rule:nonzero;stroke:none;stroke-width:1.7;stroke-linecap:butt;stroke-linejoin:miter;stroke-miterlimit:4;stroke-dasharray:none;stroke-dashoffset:0;stroke-opacity:1;-inkscape-stroke:none;marker:none;color-rendering:auto;image-rendering:auto;shape-rendering:auto;text-rendering:auto;enable-background:accumulate;stop-color:#000000;stop-opacity:1"
     d="m 23.363281,10.357422 -6.724609,6.646484 a 0.90455475,0.90455475 0 0 0 0.002,1.285156 l 6.724609,6.644532 a 0.90455475,0.90455475 0 0 0 1.269532,0 l 6.724609,-6.644532 a 0.90455475,0.90455475 0 0 0 0.002,-1.285156 l -6.724609,-6.646484 a 0.90455475,0.90455475 0 0 0 -1.273438,0 z m -7.638672,7.808594 a 0.90455475,0.90455475 0 0 0 -0.642578,0.267578 l -6.7246091,6.787109 a 0.90455475,0.90455475 0 0 0 0,1.273438 l 6.7246091,6.789062 a 0.90455475,0.90455475 0 0 0 1.285157,0 l 6.724609,-6.789062 a 0.90455475,0.90455475 0 0 0 0,-1.273438 l -6.724609,-6.787109 a 0.90455475,0.90455475 0 0 0 -0.642579,-0.267578 z m 15.914063,0.544922 -6.72461,6.646484 a 0.90455475,0.90455475 0 0 0 0,1.285156 l 6.72461,6.646484 a 0.90455475,0.90455475 0 0 0 1.273437,0 l 6.72461,-6.646484 a 0.90455475,0.90455475 0 0 0 0,-1.285156 l -6.72461,-6.646484 a 0.90455475,0.90455475 0 0 0 -1.273437,0 z M 24,26.519531 a 0.90455475,0.90455475 0 0 0 -0.642578,0.267578 l -6.72461,6.789063 a 0.90455475,0.90455475 0 0 0 0,1.273437 l 6.72461,6.78711 a 0.90455475,0.90455475 0 0 0 1.285156,0 l 6.72461,-6.78711 a 0.90455475,0.90455475 0 0 0 0,-1.273437 l -6.72461,-6.789063 A 0.90455475,0.90455475 0 0 0 24,26.519531 Z" />
  <path
     style="color:#000000;font-variation-settings:normal;clip-rule:nonzero;display:inline;overflow:visible;visibility:visible;opacity:0.07;isolation:auto;mix-blend-mode:normal;color-interpolation:sRGB;color-interpolation-filters:linearRGB;solid-color:#000000;solid-opacity:1;vector-effect:none;fill:#ffffff;fill-opacity:1;fill-rule:nonzero;stroke:none;stroke-width:1.7;stroke-linecap:butt;stroke-linejoin:miter;stroke-miterlimit:4;stroke-dasharray:none;stroke-dashoffset:0;stroke-opacity:1;-inkscape-stroke:none;marker:none;color-rendering:auto;image-rendering:auto;shape-rendering:auto;text-rendering:auto;enable-background:accumulate;stop-color:#000000"
     id="rect4120-5-3-5"
     d="m 24.000003,27.424049 6.724138,6.787975 -6.724138,6.787975 -6.724137,-6.787974 z M 15.72414,19.06962 22.448278,25.857595 15.72414,32.645569 9.0000021,25.857595 Z m 16.551723,0.28481 6.724135,6.645572 -6.724135,6.645573 -6.724138,-6.64557 z M 24.000002,11 l 6.724135,6.645572 -6.724135,6.645573 -6.724138,-6.645569 z" />
  <path
     id="path1319"
     style="color:#000000;clip-rule:nonzero;display:inline;overflow:visible;visibility:visible;isolation:auto;mix-blend-mode:normal;color-interpolation:sRGB;color-interpolation-filters:linearRGB;solid-color:#000000;solid-opacity:1;fill:#38485a;fill-opacity:1;fill-rule:nonzero;stroke:none;stroke-width:1;stroke-linecap:butt;stroke-linejoin:miter;stroke-miterlimit:4;stroke-dasharray:none;stroke-dashoffset:0;stroke-opacity:1;marker:none;color-rendering:auto;image-rendering:auto;shape-rendering:auto;text-rendering:auto;enable-background:accumulate;font-variation-settings:normal;opacity:1;vector-effect:none;-inkscape-stroke:none;stop-color:#000000;stop-opacity:1"
     d="M 24 10 L 17.275391 16.646484 L 24 23.291016 L 30.724609 16.646484 L 24 10 z M 15.724609 18.070312 L 9 24.857422 L 15.724609 31.646484 L 22.449219 24.857422 L 15.724609 18.070312 z M 32.275391 18.353516 L 25.550781 25 L 32.275391 31.646484 L 39 25 L 32.275391 18.353516 z M 24 26.423828 L 17.275391 33.212891 L 24 40 L 30.724609 33.212891 L 24 26.423828 z " />
  <path
     id="rect4120-5-3-1"
     style="color:#000000;font-variation-settings:normal;clip-rule:nonzero;display:inline;overflow:visible;visibility:visible;opacity:0.07;isolation:auto;mix-blend-mode:normal;color-interpolation:sRGB;color-interpolation-filters:linearRGB;solid-color:#000000;solid-opacity:1;fill:#0e141f;fill-opacity:1;fill-rule:nonzero;stroke:none;stroke-width:2.5;stroke-linecap:butt;stroke-linejoin:miter;stroke-miterlimit:4;stroke-dasharray:none;stroke-dashoffset:0;stroke-opacity:1;marker:none;color-rendering:auto;image-rendering:auto;shape-rendering:auto;text-rendering:auto;enable-background:accumulate;stop-color:#000000;stop-opacity:1"
     d="M 24 10 L 17.275391 16.646484 L 18.332031 17.689453 L 23.363281 12.716797 C 23.715859 12.367393 24.284141 12.367393 24.636719 12.716797 L 29.667969 17.689453 L 30.724609 16.646484 L 24 10 z M 15.724609 18.070312 L 9 24.716797 L 10.056641 25.759766 L 15.087891 20.787109 C 15.440468 20.437706 16.00875 20.437706 16.361328 20.787109 L 21.392578 25.759766 L 22.449219 24.716797 L 15.724609 18.070312 z M 32.275391 18.070312 L 25.550781 24.716797 L 26.607422 25.759766 L 31.638672 20.787109 C 31.99125 20.437706 32.559532 20.437706 32.912109 20.787109 L 37.943359 25.759766 L 39 24.716797 L 32.275391 18.070312 z M 24 26.423828 L 17.275391 33.070312 L 18.332031 34.113281 L 23.363281 29.140625 C 23.715859 28.791221 24.284141 28.791221 24.636719 29.140625 L 29.667969 34.113281 L 30.724609 33.070312 L 24 26.423828 z " />
  <path
     id="rect4120-5-3-2"
     style="color:#000000;font-variation-settings:normal;clip-rule:nonzero;display:inline;overflow:visible;visibility:visible;isolation:auto;mix-blend-mode:normal;color-interpolation:sRGB;color-interpolation-filters:linearRGB;solid-color:#000000;solid-opacity:1;fill:#0e141f;fill-opacity:1;fill-rule:nonzero;stroke:none;stroke-width:2.5;stroke-linecap:butt;stroke-linejoin:miter;stroke-miterlimit:4;stroke-dasharray:none;stroke-dashoffset:0;stroke-opacity:1;marker:none;color-rendering:auto;image-rendering:auto;shape-rendering:auto;text-rendering:auto;enable-background:accumulate;stop-color:#000000;opacity:0.15;stop-opacity:1"
     d="M 24 10 L 17.275391 16.646484 L 17.78125 17.146484 L 24 11 L 30.21875 17.146484 L 30.724609 16.646484 L 24 10 z M 15.724609 18.070312 L 9 24.857422 L 9.4960938 25.357422 L 15.724609 19.070312 L 21.953125 25.357422 L 22.449219 24.857422 L 15.724609 18.070312 z M 32.275391 18.353516 L 25.550781 25 L 26.056641 25.5 L 32.275391 19.353516 L 38.494141 25.5 L 39 25 L 32.275391 18.353516 z M 24 26.423828 L 17.275391 33.212891 L 17.771484 33.712891 L 24 27.423828 L 30.228516 33.712891 L 30.724609 33.212891 L 24 26.423828 z " />
</svg>
