<svg xmlns="http://www.w3.org/2000/svg" xmlns:xlink="http://www.w3.org/1999/xlink" viewBox="0 0 48 48"><defs><linearGradient id="p"><stop offset="0" stop-opacity="0"/><stop offset=".5"/><stop offset="1" stop-opacity="0"/></linearGradient><radialGradient cx="605.714" cy="486.648" r="117.143" fx="605.714" fy="486.648" id="r" xlink:href="#a" gradientUnits="userSpaceOnUse" gradientTransform="matrix(-.02304 0 0 .0147 21.623 37.04)"/><linearGradient id="a"><stop offset="0"/><stop offset="1" stop-opacity="0"/></linearGradient><radialGradient cx="605.714" cy="486.648" r="117.143" fx="605.714" fy="486.648" id="s" xlink:href="#a" gradientUnits="userSpaceOnUse" gradientTransform="matrix(.02304 0 0 .0147 26.36 37.04)"/><linearGradient x1="25.132" y1=".985" x2="25.132" y2="47.013" id="t" xlink:href="#b" gradientUnits="userSpaceOnUse" gradientTransform="matrix(1 0 0 .95617 0 -1.915)"/><linearGradient id="b"><stop offset="0" stop-color="#f4f4f4"/><stop offset="1" stop-color="#dbdbdb"/></linearGradient><linearGradient x1="-51.786" y1="50.786" x2="-51.786" y2="2.906" id="u" xlink:href="#c" gradientUnits="userSpaceOnUse" gradientTransform="matrix(.8075 0 0 .89483 59.41 -2.98)"/><linearGradient id="c"><stop offset="0" stop-color="#a0a0a0"/><stop offset="1" stop-color="#bebebe"/></linearGradient><linearGradient x1="24" y1="5.564" x2="24" y2="43" id="v" xlink:href="#d" gradientUnits="userSpaceOnUse" gradientTransform="matrix(.8919 0 0 1.13514 2.595 -4.743)"/><linearGradient id="d"><stop offset="0" stop-color="#fff"/><stop offset=".036" stop-color="#fff" stop-opacity=".235"/><stop offset=".951" stop-color="#fff" stop-opacity=".157"/><stop offset="1" stop-color="#fff" stop-opacity=".392"/></linearGradient><linearGradient x1="18.776" y1="4.038" x2="18.203" y2="45.962" id="L" xlink:href="#e" gradientUnits="userSpaceOnUse" gradientTransform="matrix(.32832 0 0 -.32832 16.006 31.208)"/><linearGradient id="e"><stop offset="0" stop-color="#fff"/><stop offset="1" stop-color="#fff" stop-opacity="0"/></linearGradient><linearGradient x1="71.204" y1="6.238" x2="71.204" y2="44.341" id="K" xlink:href="#f" gradientUnits="userSpaceOnUse" gradientTransform="translate(-24.47 5.867) scale(.67568)"/><linearGradient id="f"><stop offset="0" stop-color="#fff"/><stop offset=".508" stop-color="#fff" stop-opacity=".235"/><stop offset=".835" stop-color="#fff" stop-opacity=".157"/><stop offset="1" stop-color="#fff" stop-opacity=".392"/></linearGradient><linearGradient x1="21.448" y1="15.5" x2="21.448" y2="32.509" id="J" xlink:href="#g" gradientUnits="userSpaceOnUse" gradientTransform="translate(7.5 6.5) scale(.6875)"/><linearGradient id="g"><stop offset="0" stop-color="#aaa"/><stop offset="1" stop-color="#d4d4d4"/></linearGradient><linearGradient x1="20.019" y1="3" x2="20.019" y2="45.176" id="I" xlink:href="#h" gradientUnits="userSpaceOnUse" gradientTransform="translate(8.195 7.195) scale(.65854)"/><linearGradient id="h"><stop offset="0" stop-color="#b4b4b4"/><stop offset="1" stop-color="#969696"/></linearGradient><linearGradient x1="20.58" y1="10.775" x2="24.274" y2="9.862" id="D" xlink:href="#i" gradientUnits="userSpaceOnUse" spreadMethod="reflect"/><linearGradient id="i"><stop offset="0" stop-color="#e6cde2"/><stop offset="1" stop-color="#e6cde2" stop-opacity="0"/></linearGradient><linearGradient x1="17.495" y1="11.2" x2="21.047" y2="9.796" id="E" xlink:href="#j" gradientUnits="userSpaceOnUse" spreadMethod="reflect"/><linearGradient id="j"><stop offset="0" stop-color="#c1cbe4"/><stop offset="1" stop-color="#c1cbe4" stop-opacity="0"/></linearGradient><linearGradient x1="14.085" y1="13.046" x2="16.994" y2="10.732" id="F" xlink:href="#k" gradientUnits="userSpaceOnUse" spreadMethod="reflect"/><linearGradient id="k"><stop offset="0" stop-color="#c4ebdd"/><stop offset="1" stop-color="#c4ebdd" stop-opacity="0"/></linearGradient><linearGradient x1="12.372" y1="16.188" x2="14.609" y2="13.462" id="G" xlink:href="#l" gradientUnits="userSpaceOnUse" spreadMethod="reflect"/><linearGradient id="l"><stop offset="0" stop-color="#ebeec7"/><stop offset="1" stop-color="#ebeec7" stop-opacity="0"/></linearGradient><linearGradient x1="10.609" y1="17.886" x2="9.73" y2="20.613" id="H" xlink:href="#m" gradientUnits="userSpaceOnUse" spreadMethod="reflect"/><linearGradient id="m"><stop offset="0" stop-color="#fcd9cd"/><stop offset="1" stop-color="#fcd9cd" stop-opacity="0"/></linearGradient><linearGradient x1="20.58" y1="10.775" x2="24.274" y2="9.862" id="y" xlink:href="#i" gradientUnits="userSpaceOnUse" spreadMethod="reflect"/><linearGradient x1="17.495" y1="11.2" x2="21.047" y2="9.796" id="z" xlink:href="#j" gradientUnits="userSpaceOnUse" spreadMethod="reflect"/><linearGradient x1="14.085" y1="13.046" x2="16.994" y2="10.732" id="A" xlink:href="#k" gradientUnits="userSpaceOnUse" spreadMethod="reflect"/><linearGradient x1="12.372" y1="16.188" x2="14.609" y2="13.462" id="B" xlink:href="#l" gradientUnits="userSpaceOnUse" spreadMethod="reflect"/><linearGradient x1="10.609" y1="17.886" x2="9.73" y2="20.613" id="C" xlink:href="#m" gradientUnits="userSpaceOnUse" spreadMethod="reflect"/><linearGradient x1="12.274" y1="32.416" x2="35.391" y2="14.203" id="x" xlink:href="#n" gradientUnits="userSpaceOnUse" gradientTransform="rotate(90 18.667 23.153) scale(.77144)"/><linearGradient x1="12.274" y1="32.416" x2="35.391" y2="14.203" id="n" gradientUnits="userSpaceOnUse"><stop offset="0" stop-color="#dedbde"/><stop offset=".5" stop-color="#e6e6e6"/><stop offset="1" stop-color="#d2d2d2"/></linearGradient><radialGradient cx="23.335" cy="41.636" r="22.627" fx="23.335" fy="41.636" id="w" xlink:href="#o" gradientUnits="userSpaceOnUse" gradientTransform="matrix(.61872 0 0 .19952 9.562 25.178)"/><linearGradient id="o"><stop offset="0"/><stop offset="1" stop-opacity="0"/></linearGradient><linearGradient x1="302.857" y1="366.648" x2="302.857" y2="609.505" id="q" xlink:href="#p" gradientUnits="userSpaceOnUse" gradientTransform="matrix(.06732 0 0 .0147 -.34 37.04)"/></defs><path opacity=".3" fill="url(#q)" overflow="visible" d="M7.738 42.43h32.508V46H7.738z"/><path d="M7.738 42.43V46c-1.187.007-2.87-.8-2.87-1.785 0-.986 1.326-1.785 2.87-1.785z" opacity=".3" fill="url(#r)" overflow="visible"/><path d="M40.246 42.43V46c1.187.007 2.87-.8 2.87-1.785 0-.986-1.326-1.785-2.87-1.785z" opacity=".3" fill="url(#s)" overflow="visible"/><path d="M6.5.497L41.5.5v44.003h-35V.497z" fill="url(#t)" stroke="url(#u)" stroke-linejoin="round"/><path d="M40.5 43.5h-33v-42h33z" fill="none" stroke="url(#v)" stroke-linecap="round" stroke-linejoin="round"/><path d="M38 33.485C38 35.978 31.732 38 24 38s-14-2.022-14-4.515 6.268-4.515 14-4.515 14 2.022 14 4.515z" opacity=".3" fill="url(#w)" fill-rule="evenodd" overflow="visible"/><path d="M37.5 23c0-7.483-6.017-13.5-13.5-13.5S10.5 15.517 10.5 23 16.517 36.5 24 36.5 37.5 30.483 37.5 23zm-8.232 0c0 3.044-2.224 5.268-5.268 5.268-3.044 0-5.268-2.224-5.268-5.268 0-3.044 2.224-5.268 5.268-5.268 3.044 0 5.268 2.224 5.268 5.268z" fill="url(#x)"/><path d="M24 17.732A5.27 5.27 0 0 0 18.732 23 5.27 5.27 0 0 0 24 28.268 5.27 5.27 0 0 0 29.268 23 5.27 5.27 0 0 0 24 17.732zm0 2.634a2.635 2.635 0 0 1 0 5.268 2.635 2.635 0 0 1 0-5.268z" opacity=".5" fill="#fff" overflow="visible"/><path d="M24 3.5c-2.976 0-5.797.62-8.344 1.75l4.97 11.094a8.293 8.293 0 0 1 3.374-.72h.094V3.5H24z" transform="matrix(.65827 .0186 -.0186 .65827 8.65 6.753)" opacity=".8" fill="url(#y)"/><path d="M19.597 3.998a20.52 20.52 0 0 0-7.775 3.497l7.23 9.77a8.293 8.293 0 0 1 3.143-1.424l.092-.02L19.69 3.98l-.093.02z" opacity=".8" fill="url(#z)" transform="translate(8.195 7.195) scale(.65854)"/><path d="M14.558 5.845a20.52 20.52 0 0 0-6.605 5.39l9.513 7.567a8.293 8.293 0 0 1 2.667-2.19l.083-.043L14.64 5.8l-.082.043z" opacity=".8" fill="url(#A)" transform="translate(8.195 7.195) scale(.65854)"/><path d="M10.17 8.933a20.52 20.52 0 0 0-4.986 6.917l11.147 4.847a8.293 8.293 0 0 1 2.01-2.806l.07-.06-8.17-8.96-.07.065z" opacity=".8" fill="url(#B)" transform="translate(8.195 7.195) scale(.65854)"/><path d="M6.78 12.97l-.06.092a20.538 20.538 0 0 0-2.5 5.626l11.75 3.125a8.19 8.19 0 0 1 .967-2.22L17 19.5 6.78 12.97z" opacity=".8" fill="url(#C)" transform="translate(8.195 7.195) scale(.65854)"/><g opacity=".8"><path d="M24 3.5c-2.976 0-5.797.62-8.344 1.75l4.97 11.094a8.293 8.293 0 0 1 3.374-.72h.094V3.5H24z" transform="matrix(-.65827 -.0186 .0186 -.65827 39.35 39.247)" opacity=".8" fill="url(#D)"/><path d="M19.597 3.998a20.52 20.52 0 0 0-7.775 3.497l7.23 9.77a8.293 8.293 0 0 1 3.143-1.424l.092-.02L19.69 3.98l-.093.02z" opacity=".8" fill="url(#E)" transform="rotate(180 19.902 19.402) scale(.65854)"/><path d="M14.558 5.845a20.52 20.52 0 0 0-6.605 5.39l9.513 7.567a8.293 8.293 0 0 1 2.667-2.19l.083-.043L14.64 5.8l-.082.043z" opacity=".8" fill="url(#F)" transform="rotate(180 19.902 19.402) scale(.65854)"/><path d="M10.17 8.933a20.52 20.52 0 0 0-4.986 6.917l11.147 4.847a8.293 8.293 0 0 1 2.01-2.806l.07-.06-8.17-8.96-.07.065z" opacity=".8" fill="url(#G)" transform="rotate(180 19.902 19.402) scale(.65854)"/><path d="M6.78 12.97l-.06.092a20.538 20.538 0 0 0-2.5 5.626l11.75 3.125a8.19 8.19 0 0 1 .967-2.22L17 19.5 6.78 12.97z" opacity=".8" fill="url(#H)" transform="rotate(180 19.902 19.402) scale(.65854)"/></g><path d="M24 9.5c-7.483 0-13.5 6.017-13.5 13.5S16.517 36.5 24 36.5 37.5 30.483 37.5 23 31.483 9.5 24 9.5z" fill="none" stroke="url(#I)"/><path d="M24 17.5a5.502 5.502 0 0 0-5.5 5.5c0 3.036 2.464 5.5 5.5 5.5s5.5-2.464 5.5-5.5-2.464-5.5-5.5-5.5zm0 2.75a2.75 2.75 0 0 1 0 5.5 2.75 2.75 0 0 1 0-5.5z" fill="none" stroke="url(#J)" stroke-linejoin="round" overflow="visible"/><path d="M36.5 23c0 6.903-5.597 12.5-12.5 12.5S11.5 29.903 11.5 23c0-6.904 5.597-12.5 12.5-12.5S36.5 16.096 36.5 23z" opacity=".55" color="#000" fill="none" stroke="url(#K)" stroke-linecap="round" stroke-linejoin="round" overflow="visible"/><path d="M24 29.5a6.483 6.483 0 0 1-6.5-6.5c0-3.603 2.897-6.5 6.5-6.5s6.5 2.897 6.5 6.5-2.897 6.5-6.5 6.5z" opacity=".4" fill="none" stroke="url(#L)"/></svg>