<?xml version="1.0" encoding="UTF-8" standalone="no"?>
<!-- Created with Inkscape (http://www.inkscape.org/) -->
<svg
   xmlns:dc="http://purl.org/dc/elements/1.1/"
   xmlns:cc="http://creativecommons.org/ns#"
   xmlns:rdf="http://www.w3.org/1999/02/22-rdf-syntax-ns#"
   xmlns:svg="http://www.w3.org/2000/svg"
   xmlns="http://www.w3.org/2000/svg"
   xmlns:xlink="http://www.w3.org/1999/xlink"
   xmlns:sodipodi="http://sodipodi.sourceforge.net/DTD/sodipodi-0.dtd"
   xmlns:inkscape="http://www.inkscape.org/namespaces/inkscape"
   width="48px"
   height="48px"
   id="svg3657"
   sodipodi:version="0.32"
   inkscape:version="0.46"
   sodipodi:docname="audio-x-mpeg.svg"
   inkscape:output_extension="org.inkscape.output.svg.inkscape">
  <defs
     id="defs3659">
    <linearGradient
       id="linearGradient8589">
      <stop
         id="stop8591"
         offset="0"
         style="stop-color:#fefefe;stop-opacity:1" />
      <stop
         id="stop8593"
         offset="1"
         style="stop-color:#cbcbcb;stop-opacity:1;" />
    </linearGradient>
    <linearGradient
       inkscape:collect="always"
       xlink:href="#linearGradient8589"
       id="linearGradient6669"
       gradientUnits="userSpaceOnUse"
       gradientTransform="matrix(0.9976985,0,0,1.0642049,31.676797,46.623346)"
       x1="32.892288"
       y1="8.0590115"
       x2="36.358372"
       y2="5.4565363" />
    <linearGradient
       inkscape:collect="always"
       xlink:href="#linearGradient2372"
       id="linearGradient6667"
       gradientUnits="userSpaceOnUse"
       gradientTransform="matrix(0.2214737,0,0,0.2231125,58.588249,27.670713)"
       x1="28.739122"
       y1="144.11652"
       x2="26.256771"
       y2="125.39074" />
    <linearGradient
       id="linearGradient2372">
      <stop
         style="stop-color:#bbd8ea;stop-opacity:1;"
         id="stop2374"
         offset="0" />
      <stop
         style="stop-color:#6a9ab8;stop-opacity:1"
         id="stop2376"
         offset="1" />
    </linearGradient>
    <linearGradient
       inkscape:collect="always"
       xlink:href="#linearGradient2372"
       id="linearGradient6665"
       gradientUnits="userSpaceOnUse"
       gradientTransform="matrix(0.2214737,0,0,0.2231125,46.382191,29.24915)"
       x1="28.739122"
       y1="144.11652"
       x2="25.400293"
       y2="119.86452" />
    <linearGradient
       inkscape:collect="always"
       xlink:href="#linearGradient3686"
       id="linearGradient6663"
       gradientUnits="userSpaceOnUse"
       gradientTransform="scale(1.3693064,0.7302968)"
       x1="11.128633"
       y1="51.807358"
       x2="12.458002"
       y2="61.909195" />
    <radialGradient
       inkscape:collect="always"
       xlink:href="#linearGradient7067"
       id="radialGradient6661"
       gradientUnits="userSpaceOnUse"
       gradientTransform="matrix(1,0,0,0.569469,0,17.67708)"
       cx="17.058823"
       cy="41.058823"
       fx="17.843975"
       fy="44.178165"
       r="5.7384715" />
    <linearGradient
       inkscape:collect="always"
       id="linearGradient3686">
      <stop
         offset="0"
         id="stop3688"
         style="stop-color:white;stop-opacity:1;" />
      <stop
         offset="1"
         id="stop3690"
         style="stop-color:white;stop-opacity:0;" />
    </linearGradient>
    <linearGradient
       inkscape:collect="always"
       xlink:href="#linearGradient3686"
       id="linearGradient6659"
       gradientUnits="userSpaceOnUse"
       x1="16.574366"
       y1="37.638168"
       x2="18.514551"
       y2="46.079796" />
    <linearGradient
       id="linearGradient7067">
      <stop
         style="stop-color:#bbd8ea;stop-opacity:1;"
         id="stop7069"
         offset="0" />
      <stop
         style="stop-color:#6a9ab8;stop-opacity:1"
         id="stop7071"
         offset="1" />
    </linearGradient>
    <radialGradient
       inkscape:collect="always"
       xlink:href="#linearGradient7067"
       id="radialGradient6657"
       gradientUnits="userSpaceOnUse"
       gradientTransform="matrix(1,0,0,0.569469,0,17.67708)"
       cx="17.058823"
       cy="41.058823"
       fx="17.843975"
       fy="44.178165"
       r="5.7384715" />
    <linearGradient
       inkscape:collect="always"
       id="linearGradient4252">
      <stop
         style="stop-color:#6a9ab8;stop-opacity:1;"
         offset="0"
         id="stop4254" />
      <stop
         style="stop-color:#73a1bd;stop-opacity:1"
         offset="1"
         id="stop4256" />
    </linearGradient>
    <linearGradient
       inkscape:collect="always"
       xlink:href="#linearGradient4252"
       id="linearGradient6655"
       gradientUnits="userSpaceOnUse"
       gradientTransform="matrix(1.1203411,0,0,1.1203411,28.487634,42.455321)"
       x1="22.68783"
       y1="16.423281"
       x2="22.68783"
       y2="29.039593" />
    <radialGradient
       inkscape:collect="always"
       xlink:href="#linearGradient5670"
       id="radialGradient6653"
       gradientUnits="userSpaceOnUse"
       gradientTransform="matrix(1,0,0,0.190476,0,37.13016)"
       cx="22.90196"
       cy="45.866665"
       fx="22.90196"
       fy="45.866665"
       r="7.9058824" />
    <linearGradient
       inkscape:collect="always"
       id="linearGradient5670">
      <stop
         offset="0"
         id="stop5672"
         style="stop-color:black;stop-opacity:1;" />
      <stop
         offset="1"
         id="stop5674"
         style="stop-color:black;stop-opacity:0;" />
    </linearGradient>
    <radialGradient
       inkscape:collect="always"
       xlink:href="#linearGradient5670"
       id="radialGradient6651"
       gradientUnits="userSpaceOnUse"
       gradientTransform="matrix(1,0,0,0.190476,0,37.13016)"
       cx="22.90196"
       cy="45.866665"
       fx="22.90196"
       fy="45.866665"
       r="7.9058824" />
    <linearGradient
       id="linearGradient3104">
      <stop
         id="stop3106"
         offset="0"
         style="stop-color:#aaaaaa;stop-opacity:1;" />
      <stop
         id="stop3108"
         offset="1"
         style="stop-color:#d2d2d2;stop-opacity:1;" />
    </linearGradient>
    <linearGradient
       inkscape:collect="always"
       xlink:href="#linearGradient3104"
       id="linearGradient6649"
       gradientUnits="userSpaceOnUse"
       gradientTransform="matrix(0.8074968,0,0,0.9358511,90.92323,45.648123)"
       x1="-51.786404"
       y1="50.786446"
       x2="-51.786404"
       y2="2.9062471" />
    <linearGradient
       inkscape:collect="always"
       id="linearGradient3600">
      <stop
         style="stop-color:#f4f4f4;stop-opacity:1"
         offset="0"
         id="stop3602" />
      <stop
         style="stop-color:#dbdbdb;stop-opacity:1"
         offset="1"
         id="stop3604" />
    </linearGradient>
    <linearGradient
       inkscape:collect="always"
       xlink:href="#linearGradient3600"
       id="linearGradient6647"
       gradientUnits="userSpaceOnUse"
       gradientTransform="translate(31.512994,46.762602)"
       x1="25.132275"
       y1="6.7287393"
       x2="25.132275"
       y2="47.013336" />
    <radialGradient
       inkscape:collect="always"
       xlink:href="#linearGradient5060"
       id="radialGradient6645"
       gradientUnits="userSpaceOnUse"
       gradientTransform="matrix(2.4097175e-2,0,0,1.5374761e-2,26.477584,38.629039)"
       cx="605.71429"
       cy="486.64789"
       fx="605.71429"
       fy="486.64789"
       r="117.14286" />
    <linearGradient
       id="linearGradient5060"
       inkscape:collect="always">
      <stop
         id="stop5062"
         offset="0"
         style="stop-color:black;stop-opacity:1;" />
      <stop
         id="stop5064"
         offset="1"
         style="stop-color:black;stop-opacity:0;" />
    </linearGradient>
    <radialGradient
       inkscape:collect="always"
       xlink:href="#linearGradient5060"
       id="radialGradient6643"
       gradientUnits="userSpaceOnUse"
       gradientTransform="matrix(-2.409717e-2,0,0,1.5374761e-2,21.522412,38.629039)"
       cx="605.71429"
       cy="486.64789"
       fx="605.71429"
       fy="486.64789"
       r="117.14286" />
    <linearGradient
       id="linearGradient5048">
      <stop
         id="stop5050"
         offset="0"
         style="stop-color:black;stop-opacity:0;" />
      <stop
         style="stop-color:black;stop-opacity:1;"
         offset="0.5"
         id="stop5056" />
      <stop
         id="stop5052"
         offset="1"
         style="stop-color:black;stop-opacity:0;" />
    </linearGradient>
    <linearGradient
       inkscape:collect="always"
       xlink:href="#linearGradient5048"
       id="linearGradient6641"
       gradientUnits="userSpaceOnUse"
       gradientTransform="matrix(7.0414201e-2,0,0,1.5374761e-2,-1.4497047,38.629007)"
       x1="302.85715"
       y1="366.64789"
       x2="302.85715"
       y2="609.50507" />
  </defs>
  <sodipodi:namedview
     id="base"
     pagecolor="#ffffff"
     bordercolor="#666666"
     borderopacity="1.0"
     inkscape:pageopacity="0.0"
     inkscape:pageshadow="2"
     inkscape:zoom="7"
     inkscape:cx="24"
     inkscape:cy="24"
     inkscape:current-layer="layer1"
     showgrid="true"
     inkscape:grid-bbox="true"
     inkscape:document-units="px"
     inkscape:window-width="640"
     inkscape:window-height="720"
     inkscape:window-x="0"
     inkscape:window-y="91" />
  <metadata
     id="metadata3662">
    <rdf:RDF>
      <cc:Work
         rdf:about="">
        <dc:format>image/svg+xml</dc:format>
        <dc:type
           rdf:resource="http://purl.org/dc/dcmitype/StillImage" />
      </cc:Work>
    </rdf:RDF>
  </metadata>
  <g
     id="layer1"
     inkscape:label="Layer 1"
     inkscape:groupmode="layer">
    <g
       style="display:inline"
       id="g6620"
       transform="translate(-31.512994,-46.762602)">
      <g
         transform="matrix(0.9561265,0,0,0.9561265,32.565958,48.86853)"
         id="g4344">
        <rect
           y="44.266129"
           x="7"
           height="3.7338707"
           width="34"
           id="rect4346"
           style="opacity:0.40206185;fill:url(#linearGradient6641);fill-opacity:1;fill-rule:nonzero;stroke:none;stroke-width:1;stroke-linecap:round;stroke-linejoin:miter;marker:none;marker-start:none;marker-mid:none;marker-end:none;stroke-miterlimit:4;stroke-dasharray:none;stroke-dashoffset:0;stroke-opacity:1;visibility:visible;display:inline;overflow:visible" />
        <path
           style="opacity:0.40206185;fill:url(#radialGradient6643);fill-opacity:1;fill-rule:nonzero;stroke:none;stroke-width:1;stroke-linecap:round;stroke-linejoin:miter;marker:none;marker-start:none;marker-mid:none;marker-end:none;stroke-miterlimit:4;stroke-dasharray:none;stroke-dashoffset:0;stroke-opacity:1;visibility:visible;display:inline;overflow:visible"
           d="M 7,44.266291 C 7,44.266291 7,47.999956 7,47.999956 C 5.7590552,48.006985 4,47.163431 4,46.132883 C 4,45.102336 5.3848007,44.266292 7,44.266291 z"
           id="path4348"
           sodipodi:nodetypes="cccc" />
        <path
           style="opacity:0.40206185;fill:url(#radialGradient6645);fill-opacity:1;fill-rule:nonzero;stroke:none;stroke-width:1;stroke-linecap:round;stroke-linejoin:miter;marker:none;marker-start:none;marker-mid:none;marker-end:none;stroke-miterlimit:4;stroke-dasharray:none;stroke-dashoffset:0;stroke-opacity:1;visibility:visible;display:inline;overflow:visible"
           d="M 41,44.266291 C 41,44.266291 41,47.999956 41,47.999956 C 42.240944,48.006985 44,47.163431 44,46.132883 C 44,45.102336 42.615199,44.266292 41,44.266291 z"
           id="path4350"
           sodipodi:nodetypes="cccc" />
      </g>
      <path
         sodipodi:nodetypes="cccccc"
         id="path4352"
         d="M 38.012955,48.262565 C 46.03325,48.262565 54.053545,48.262565 62.073841,48.262565 C 63.480774,48.747944 71.039295,54.2777 73.013036,58.106517 C 73.013036,69.825226 73.013036,81.543935 73.013036,93.262644 C 61.346342,93.262644 49.679649,93.262644 38.012955,93.262644 C 38.012955,78.262617 38.012955,63.262591 38.012955,48.262565 z"
         style="fill:url(#linearGradient6647);fill-opacity:1;stroke:url(#linearGradient6649);stroke-width:0.9999218;stroke-linecap:butt;stroke-linejoin:round;stroke-miterlimit:4;stroke-dasharray:none;stroke-dashoffset:0;stroke-opacity:1" />
      <path
         sodipodi:rx="7.9058824"
         sodipodi:ry="1.5058824"
         style="opacity:0.3;fill:url(#radialGradient6651);fill-opacity:1;stroke:none;stroke-width:1;stroke-linecap:round;stroke-linejoin:round;stroke-miterlimit:4;stroke-dasharray:none;stroke-opacity:1"
         sodipodi:type="arc"
         d="M 30.807843,45.866665 A 7.9058824,1.5058824 0 1 1 14.996078,45.866665 A 7.9058824,1.5058824 0 1 1 30.807843,45.866665 z"
         transform="matrix(0.6976533,0,0,1.5729478,44.98665,6.1336911)"
         sodipodi:cy="45.866665"
         sodipodi:cx="22.90196"
         id="path2704" />
      <path
         sodipodi:rx="7.9058824"
         sodipodi:ry="1.5058824"
         style="opacity:0.3;fill:url(#radialGradient6653);fill-opacity:1;stroke:none;stroke-width:1;stroke-linecap:round;stroke-linejoin:round;stroke-miterlimit:4;stroke-dasharray:none;stroke-opacity:1"
         sodipodi:type="arc"
         d="M 30.807843,45.866665 A 7.9058824,1.5058824 0 1 1 14.996078,45.866665 A 7.9058824,1.5058824 0 1 1 30.807843,45.866665 z"
         transform="matrix(0.7587453,0,0,1.7106875,31.673865,1.7479781)"
         sodipodi:cy="45.866665"
         sodipodi:cx="22.90196"
         id="path4121" />
      <path
         id="path2931"
         d="M 64.937361,73.445512 L 64.29536,68.324913"
         style="fill:none;fill-rule:evenodd;stroke:none;stroke-width:1;stroke-linecap:square;stroke-linejoin:round;stroke-miterlimit:4;stroke-dasharray:none;stroke-opacity:0.58128076" />
      <path
         style="fill:#84acc5;fill-opacity:1;stroke:#517492;stroke-width:1.55951476;stroke-linecap:round;stroke-linejoin:round;stroke-miterlimit:4;stroke-dasharray:none;stroke-opacity:1"
         d="M 64.416265,55.167876 C 60.137086,55.836858 56.381117,56.500056 52.102478,57.17265 C 51.341533,57.492593 51.535666,58.487978 51.514625,59.173387 C 51.514625,63.874323 51.514625,68.575257 51.514625,73.276194 C 48.280115,72.315249 44.954629,74.982438 45.369163,78.016249 C 45.647422,79.920631 47.758009,80.861889 49.419003,80.39843 C 51.502677,79.969763 53.328319,77.92713 53.112955,75.635527 C 53.112955,71.174774 53.112955,66.714025 53.112955,62.253272 C 56.419896,61.788517 60.483842,61.080938 63.790783,60.616182 C 63.790783,64.138388 63.790783,68.02483 63.790783,71.547035 C 60.256008,70.331169 57.141347,73.025414 57.387628,76.000913 C 57.537342,77.8232 59.438005,78.911275 61.061476,78.616849 C 63.319315,78.365699 65.393208,76.211375 65.15619,73.760758 C 65.147151,67.851224 65.172708,61.936962 65.146454,56.029782 C 65.079732,55.619096 64.864321,55.189249 64.416265,55.167876 z"
         id="path2933"
         sodipodi:nodetypes="ccccccccccccccc" />
      <path
         style="fill:url(#linearGradient6655);fill-opacity:1;stroke:none;stroke-width:1;stroke-linecap:round;stroke-linejoin:round;stroke-miterlimit:4;stroke-dasharray:none;stroke-opacity:1"
         id="path2935"
         d="M 64.410837,55.084338 L 52.395639,57.079086 C 51.982569,57.079086 51.660306,57.49678 51.660306,58.016766 L 51.660306,74.242645 C 51.418807,74.161836 50.520911,74.28801 50.245728,74.261688 C 50.22668,74.259868 50.206863,74.263233 50.187675,74.261688 C 50.075832,74.251967 49.955625,74.241139 49.839358,74.241304 C 49.645758,74.241575 49.443752,74.251901 49.239481,74.28207 C 47.326421,74.564614 45.775671,76.035658 45.775671,77.563939 C 45.775671,78.328076 46.154628,78.969663 46.781917,79.378135 C 47.095328,79.583114 47.47051,79.726723 47.884919,79.806209 C 48.2995,79.885141 48.761216,79.897229 49.239481,79.826592 C 49.472282,79.792211 49.696781,79.731029 49.916765,79.663518 C 50.002411,79.637092 50.08508,79.592619 50.168326,79.561596 C 50.301716,79.512021 50.448312,79.479471 50.574692,79.418906 C 50.582822,79.415009 50.585946,79.402468 50.594041,79.398521 C 50.992978,79.204334 51.352383,78.968351 51.658342,78.685072 C 51.672211,78.672233 51.683404,78.657293 51.697043,78.644304 C 51.839933,78.50905 51.967751,78.365982 52.084064,78.216234 C 52.095948,78.200922 52.111177,78.190912 52.122765,78.175464 C 52.165902,78.118103 52.180619,78.051084 52.21952,77.99201 C 52.293122,77.880163 52.37495,77.782888 52.432379,77.665857 C 52.438807,77.652775 52.445513,77.638233 52.451728,77.625091 C 52.52049,77.479753 52.564992,77.32759 52.606537,77.176637 C 52.612424,77.155377 52.620563,77.136826 52.625889,77.115483 C 52.627465,77.109095 52.62436,77.101491 52.625889,77.095099 C 52.647636,77.004868 52.672671,76.921508 52.68394,76.830104 C 52.692414,76.762265 52.700838,76.694518 52.703292,76.62626 L 52.896801,76.62626 C 53.025474,76.62626 53.129011,76.517195 53.129011,76.381649 L 53.129011,62.143701 L 63.754796,60.401722 L 63.754796,72.591517 C 63.232407,72.416447 61.930244,72.534279 61.275735,72.630946 C 59.362681,72.913487 57.811929,74.364151 57.811929,75.892428 C 57.811929,77.420713 59.362681,78.437626 61.275735,78.155081 C 63.146314,77.878813 64.672696,76.466391 64.739549,74.975136 L 64.95241,74.975136 C 65.081084,74.975136 65.184619,74.86607 65.184619,74.730524 L 65.184619,60.318846 L 65.184619,59.442324 L 65.184619,56.19439 C 65.184619,55.674404 64.823907,55.084338 64.410837,55.084338 z"
         sodipodi:nodetypes="ccccsssssssssssssssssssssssccccccsssccccccc" />
      <path
         sodipodi:rx="5.2941175"
         sodipodi:ry="2.8235295"
         style="fill:url(#radialGradient6657);fill-opacity:1;stroke:none;stroke-width:1.1470927;stroke-linecap:round;stroke-linejoin:round;stroke-miterlimit:4;stroke-dasharray:none;stroke-opacity:1"
         sodipodi:type="arc"
         d="M 22.35294,41.058823 A 5.2941175,2.8235295 0 1 1 11.764705,41.058823 A 5.2941175,2.8235295 0 1 1 22.35294,41.058823 z"
         transform="matrix(0.7358916,-0.1256885,0,1.2747451,36.68673,26.565494)"
         sodipodi:cy="41.058823"
         sodipodi:cx="17.058823"
         id="path2937" />
      <path
         sodipodi:rx="5.2941175"
         sodipodi:ry="2.8235295"
         style="fill:url(#linearGradient6659);fill-opacity:1;stroke:none;stroke-width:1.93589067;stroke-linecap:round;stroke-linejoin:round;stroke-miterlimit:4;stroke-dasharray:none;stroke-opacity:0.29556651"
         sodipodi:type="arc"
         d="M 22.35294,41.058823 A 5.2941175,2.8235295 0 1 1 11.764705,41.058823 A 5.2941175,2.8235295 0 1 1 22.35294,41.058823 z"
         transform="matrix(0.5351933,-9.5565985e-2,0,0.6154063,39.756222,52.187845)"
         sodipodi:cy="41.058823"
         sodipodi:cx="17.058823"
         id="path2939" />
      <path
         sodipodi:rx="5.2941175"
         sodipodi:ry="2.8235295"
         style="fill:url(#radialGradient6661);fill-opacity:1;stroke:none;stroke-width:1.1470927;stroke-linecap:round;stroke-linejoin:round;stroke-miterlimit:4;stroke-dasharray:none;stroke-opacity:1"
         sodipodi:type="arc"
         d="M 22.35294,41.058823 A 5.2941175,2.8235295 0 1 1 11.764705,41.058823 A 5.2941175,2.8235295 0 1 1 22.35294,41.058823 z"
         transform="matrix(0.7358916,-0.1256885,0,1.2747451,48.728602,24.735075)"
         sodipodi:cy="41.058823"
         sodipodi:cx="17.058823"
         id="path2941" />
      <path
         sodipodi:rx="5.2941175"
         sodipodi:ry="2.8235295"
         style="fill:url(#linearGradient6663);fill-opacity:1;stroke:none;stroke-width:1.93589067;stroke-linecap:round;stroke-linejoin:round;stroke-miterlimit:4;stroke-dasharray:none;stroke-opacity:0.29556651"
         sodipodi:type="arc"
         d="M 22.35294,41.058823 A 5.2941175,2.8235295 0 1 1 11.764705,41.058823 A 5.2941175,2.8235295 0 1 1 22.35294,41.058823 z"
         transform="matrix(0.5351933,-9.5565985e-2,0,0.6154063,51.798095,50.35743)"
         sodipodi:cy="41.058823"
         sodipodi:cx="17.058823"
         id="path2943" />
      <path
         id="path2945"
         d="M 51.529128,73.494084 L 51.435135,58.247723 C 51.435135,58.247723 51.646782,57.273203 52.318037,57.127485 C 52.58874,57.080619 64.437665,55.089921 64.437665,55.089921 C 64.437665,55.089921 63.33326,57.990032 58.063203,58.746273 C 54.295008,59.289081 51.983634,59.498713 51.996368,61.765485 C 52.009009,64.05564 51.931863,65.267536 51.931863,73.60645 C 51.931863,73.666111 51.85258,73.576506 51.529128,73.494084 z"
         style="fill:url(#linearGradient6665);fill-opacity:1;fill-rule:evenodd;stroke:none;stroke-width:1;stroke-linecap:butt;stroke-linejoin:round;stroke-miterlimit:4;stroke-dasharray:none;stroke-opacity:1"
         sodipodi:nodetypes="ccccsssc" />
      <path
         id="path2947"
         d="M 63.735185,71.762426 L 63.764702,60.396745 C 64.075774,60.340775 63.812463,60.38772 64.231929,60.303901 C 64.237679,62.426895 64.137922,63.856807 64.137922,71.874792 C 64.137922,71.934452 64.058642,71.844847 63.735185,71.762426 z"
         style="fill:url(#linearGradient6667);fill-opacity:1;fill-rule:evenodd;stroke:none;stroke-width:1;stroke-linecap:butt;stroke-linejoin:round;stroke-miterlimit:4;stroke-dasharray:none;stroke-opacity:1"
         sodipodi:nodetypes="cccsc" />
      <path
         id="text2019"
         d="M 49.281072,85.083719 C 49.902236,83.932722 51.764002,83.66098 52.539242,84.786003 C 53.097022,85.702833 52.852361,86.813857 52.907229,87.831068 C 52.907229,88.396839 52.907229,88.962609 52.907229,89.52838 C 52.336181,89.52838 51.765132,89.52838 51.194083,89.52838 C 51.178006,88.333404 51.229244,87.133485 51.161957,85.942674 C 50.95626,84.847005 49.427057,85.473882 49.518781,86.393787 C 49.433285,87.434927 49.494814,88.483777 49.47618,89.52838 C 48.905131,89.52838 48.334083,89.52838 47.763034,89.52838 C 47.740449,88.315863 47.817569,87.09767 47.703547,85.890105 C 47.470889,84.839839 45.991223,85.513868 46.082604,86.394829 C 46.006968,87.43618 46.061817,88.484097 46.045131,89.52838 C 45.474082,89.52838 44.903034,89.52838 44.331986,89.52838 C 44.331986,87.751785 44.331986,85.97519 44.331986,84.198596 C 44.903034,84.198596 45.474082,84.198596 46.045131,84.198596 C 46.094187,84.405757 45.914361,85.278884 46.207818,84.766969 C 46.980548,83.743065 48.77114,83.853785 49.281072,85.083719 z M 56.209792,88.757464 C 56.209792,89.690176 56.209792,90.622889 56.209792,91.555601 C 55.641917,91.555601 55.074041,91.555601 54.506166,91.555601 C 54.506166,89.103266 54.506166,86.650931 54.506166,84.198596 C 55.074041,84.198596 55.641917,84.198596 56.209792,84.198596 C 56.260471,84.415261 56.070633,85.289321 56.390623,84.761318 C 57.252264,83.727575 59.076474,83.879685 59.741591,85.057473 C 60.490528,86.294772 60.418711,88.119368 59.34353,89.151175 C 58.452944,89.986077 56.873483,89.780172 56.209793,88.757464 L 56.209792,88.757464 z M 57.342372,85.30738 C 56.290756,85.28238 56.080566,86.585129 56.250612,87.386206 C 56.268716,88.248872 57.356415,88.761265 58.016029,88.204262 C 58.634155,87.529406 58.619581,86.341118 58.099679,85.613428 C 57.911579,85.399119 57.621993,85.302918 57.342372,85.30738 L 57.342372,85.30738 z M 65.213323,85.697597 C 66.217769,85.865864 66.873047,86.908413 66.65057,87.889107 C 66.508615,89.041361 65.26981,89.574207 64.238969,89.63218 C 63.259654,89.729642 62.260661,89.620446 61.325435,89.314236 C 61.325435,88.843122 61.325435,88.372007 61.325435,87.900892 C 62.271322,88.363742 63.468739,88.668974 64.456684,88.167381 C 65.136397,87.774239 64.863223,86.654894 64.097396,86.557518 C 63.591464,86.415196 63.062233,86.470328 62.543672,86.458995 C 62.543672,86.065605 62.543672,85.672215 62.543672,85.278826 C 63.241814,85.240037 64.138066,85.453448 64.595874,84.789871 C 65.028903,83.867499 63.8378,83.365905 63.090776,83.560704 C 62.633094,83.383926 61.596881,84.2828 61.629994,83.651344 C 61.629994,83.300782 61.629994,82.95022 61.629994,82.599657 C 62.955418,82.260878 64.464705,82.072166 65.734051,82.696619 C 66.854646,83.277184 66.760799,85.22507 65.514905,85.602126 L 65.369021,85.653505 L 65.213323,85.697597 z"
         style="font-size:11.69507122px;font-style:normal;font-weight:normal;line-height:125%;fill:#808080;fill-opacity:1;stroke:none;stroke-width:1px;stroke-linecap:butt;stroke-linejoin:miter;stroke-opacity:1;font-family:Bitstream Vera Sans" />
      <path
         sodipodi:nodetypes="cccc"
         id="path4882"
         d="M 61.280536,48.577223 C 61.918038,52.702283 61.889994,57.611691 61.889994,57.611691 C 61.889994,57.611691 66.759727,57.500191 72.775248,58.20562 C 67.878363,53.417821 64.446792,51.421439 61.280536,48.577223 z"
         style="fill:#000000;fill-opacity:0.32663317;fill-rule:evenodd;stroke:#000000;stroke-width:0.5;stroke-linecap:butt;stroke-linejoin:round;stroke-miterlimit:4;stroke-dasharray:none;stroke-opacity:0.16582917;display:inline" />
      <path
         sodipodi:nodetypes="cccc"
         id="path4884"
         d="M 61.17092,48.270532 C 62.583134,52.39303 62.46601,56.531236 62.46601,56.531236 C 62.46601,56.531236 70.299008,57.078543 72.641142,58.125158 C 72.641142,56.414018 63.343644,48.299743 61.17092,48.270532 z"
         style="fill:url(#linearGradient6669);fill-opacity:1;fill-rule:evenodd;stroke:none;stroke-width:1px;stroke-linecap:butt;stroke-linejoin:miter;stroke-opacity:1;display:inline" />
    </g>
  </g>
</svg>
