<?xml version="1.0" encoding="UTF-8" standalone="no"?>
<!-- Created with Inkscape (http://www.inkscape.org/) -->

<svg
   xmlns:svg="http://www.w3.org/2000/svg"
   xmlns="http://www.w3.org/2000/svg"
   xmlns:xlink="http://www.w3.org/1999/xlink"
   version="1.1"
   width="48"
   height="48"
   id="svg4164">
  <defs
     id="defs4166">
    <linearGradient
       x1="32.892288"
       y1="8.0590115"
       x2="36.358372"
       y2="5.4565363"
       id="linearGradient3203"
       xlink:href="#linearGradient8589"
       gradientUnits="userSpaceOnUse"
       gradientTransform="matrix(0.9976985,0,0,1.0642049,0.163803,-0.1392561)" />
    <linearGradient
       id="linearGradient8589">
      <stop
         id="stop8591"
         style="stop-color:#fefefe;stop-opacity:1"
         offset="0" />
      <stop
         id="stop8593"
         style="stop-color:#cbcbcb;stop-opacity:1"
         offset="1" />
    </linearGradient>
    <linearGradient
       x1="28.739122"
       y1="144.11652"
       x2="26.256771"
       y2="125.39074"
       id="linearGradient3208"
       xlink:href="#linearGradient2372"
       gradientUnits="userSpaceOnUse"
       gradientTransform="matrix(0.4456319,0,0,0.2231125,21.643742,-18.657926)" />
    <linearGradient
       id="linearGradient2372">
      <stop
         id="stop2374"
         style="stop-color:#ffffff;stop-opacity:1"
         offset="0" />
      <stop
         id="stop2376"
         style="stop-color:#ffffff;stop-opacity:0.37931034"
         offset="1" />
    </linearGradient>
    <linearGradient
       x1="28.739122"
       y1="144.11652"
       x2="25.400293"
       y2="119.86452"
       id="linearGradient3211"
       xlink:href="#linearGradient2372"
       gradientUnits="userSpaceOnUse"
       gradientTransform="matrix(0.2214737,0,0,0.2231125,14.95981,-17.079489)" />
    <linearGradient
       x1="11.128633"
       y1="51.807358"
       x2="12.458002"
       y2="61.909195"
       id="linearGradient4048"
       xlink:href="#linearGradient3686"
       gradientUnits="userSpaceOnUse"
       gradientTransform="scale(1.3693064,0.7302968)" />
    <linearGradient
       id="linearGradient3686">
      <stop
         id="stop3688"
         style="stop-color:#ffffff;stop-opacity:1"
         offset="0" />
      <stop
         id="stop3690"
         style="stop-color:#ffffff;stop-opacity:0"
         offset="1" />
    </linearGradient>
    <radialGradient
       cx="17.058823"
       cy="41.058823"
       r="5.7384715"
       fx="17.843975"
       fy="44.178165"
       id="radialGradient4050"
       xlink:href="#linearGradient7067"
       gradientUnits="userSpaceOnUse"
       gradientTransform="matrix(1,0,0,0.569469,0,17.67708)" />
    <linearGradient
       id="linearGradient7067">
      <stop
         id="stop7069"
         style="stop-color:#bbd8ea;stop-opacity:1"
         offset="0" />
      <stop
         id="stop7071"
         style="stop-color:#6a9ab8;stop-opacity:1"
         offset="1" />
    </linearGradient>
    <linearGradient
       x1="16.574366"
       y1="37.638168"
       x2="18.514551"
       y2="46.079796"
       id="linearGradient4052"
       xlink:href="#linearGradient3686"
       gradientUnits="userSpaceOnUse" />
    <radialGradient
       cx="17.058823"
       cy="41.058823"
       r="5.7384715"
       fx="17.843975"
       fy="44.178165"
       id="radialGradient4054"
       xlink:href="#linearGradient7067"
       gradientUnits="userSpaceOnUse"
       gradientTransform="matrix(1,0,0,0.569469,0,17.67708)" />
    <linearGradient
       x1="27.961496"
       y1="13.958155"
       x2="27.961496"
       y2="28.309687"
       id="linearGradient4042"
       xlink:href="#linearGradient4252"
       gradientUnits="userSpaceOnUse"
       gradientTransform="matrix(1,0,0,0.9997274,0.0512608,0.44324946)" />
    <linearGradient
       id="linearGradient4252">
      <stop
         id="stop4254"
         style="stop-color:#6a9ab8;stop-opacity:1"
         offset="0" />
      <stop
         id="stop4256"
         style="stop-color:#73a1bd;stop-opacity:1"
         offset="1" />
    </linearGradient>
    <radialGradient
       cx="22.90196"
       cy="45.866665"
       r="7.9058824"
       fx="22.90196"
       fy="45.866665"
       id="radialGradient4044"
       xlink:href="#linearGradient5670"
       gradientUnits="userSpaceOnUse"
       gradientTransform="matrix(1,0,0,0.190476,0,37.13016)" />
    <linearGradient
       id="linearGradient5670">
      <stop
         id="stop5672"
         style="stop-color:#000000;stop-opacity:1"
         offset="0" />
      <stop
         id="stop5674"
         style="stop-color:#000000;stop-opacity:0"
         offset="1" />
    </linearGradient>
    <radialGradient
       cx="22.90196"
       cy="45.866665"
       r="7.9058824"
       fx="22.90196"
       fy="45.866665"
       id="radialGradient4046"
       xlink:href="#linearGradient5670"
       gradientUnits="userSpaceOnUse"
       gradientTransform="matrix(1,0,0,0.190476,0,37.13016)" />
    <linearGradient
       x1="25.132275"
       y1="6.7287393"
       x2="25.132275"
       y2="47.013336"
       id="linearGradient3225"
       xlink:href="#linearGradient3600"
       gradientUnits="userSpaceOnUse" />
    <linearGradient
       id="linearGradient3600">
      <stop
         id="stop3602"
         style="stop-color:#f4f4f4;stop-opacity:1"
         offset="0" />
      <stop
         id="stop3604"
         style="stop-color:#dbdbdb;stop-opacity:1"
         offset="1" />
    </linearGradient>
    <linearGradient
       x1="-51.786404"
       y1="50.786446"
       x2="-51.786404"
       y2="2.9062471"
       id="linearGradient3227"
       xlink:href="#linearGradient3104"
       gradientUnits="userSpaceOnUse"
       gradientTransform="matrix(0.8074968,0,0,0.9358511,59.410236,-1.1144791)" />
    <linearGradient
       id="linearGradient3104">
      <stop
         id="stop3106"
         style="stop-color:#aaaaaa;stop-opacity:1"
         offset="0" />
      <stop
         id="stop3108"
         style="stop-color:#d2d2d2;stop-opacity:1"
         offset="1" />
    </linearGradient>
    <linearGradient
       x1="302.85715"
       y1="366.64789"
       x2="302.85715"
       y2="609.50507"
       id="linearGradient3172"
       xlink:href="#linearGradient5048"
       gradientUnits="userSpaceOnUse"
       gradientTransform="matrix(0.0704142,0,0,0.01537476,-1.4497047,38.629007)" />
    <linearGradient
       id="linearGradient5048">
      <stop
         id="stop5050"
         style="stop-color:#000000;stop-opacity:0"
         offset="0" />
      <stop
         id="stop5056"
         style="stop-color:#000000;stop-opacity:1"
         offset="0.5" />
      <stop
         id="stop5052"
         style="stop-color:#000000;stop-opacity:0"
         offset="1" />
    </linearGradient>
    <radialGradient
       cx="605.71429"
       cy="486.64789"
       r="117.14286"
       fx="605.71429"
       fy="486.64789"
       id="radialGradient3174"
       xlink:href="#linearGradient5060"
       gradientUnits="userSpaceOnUse"
       gradientTransform="matrix(-0.02409717,0,0,0.01537476,21.522412,38.629039)" />
    <linearGradient
       id="linearGradient5060">
      <stop
         id="stop5062"
         style="stop-color:#000000;stop-opacity:1"
         offset="0" />
      <stop
         id="stop5064"
         style="stop-color:#000000;stop-opacity:0"
         offset="1" />
    </linearGradient>
    <radialGradient
       cx="605.71429"
       cy="486.64789"
       r="117.14286"
       fx="605.71429"
       fy="486.64789"
       id="radialGradient4162"
       xlink:href="#linearGradient5060"
       gradientUnits="userSpaceOnUse"
       gradientTransform="matrix(0.02409717,0,0,0.01537476,26.477584,38.629039)" />
  </defs>
  <g
     id="layer1">
    <g
       transform="matrix(0.9561265,0,0,0.9561265,1.052964,2.1059279)"
       id="g4344">
      <rect
         width="34"
         height="3.7338707"
         x="7"
         y="44.266129"
         id="rect4346"
         style="opacity:0.40206185;fill:url(#linearGradient3172);fill-opacity:1;fill-rule:nonzero;stroke:none;stroke-width:1;marker:none;visibility:visible;display:inline;overflow:visible" />
      <path
         d="m 7,44.266291 c 0,0 0,3.733665 0,3.733665 -1.2409448,0.007 -3,-0.836525 -3,-1.867073 0,-1.030547 1.3848007,-1.866591 3,-1.866592 z"
         id="path4348"
         style="opacity:0.40206185;fill:url(#radialGradient3174);fill-opacity:1;fill-rule:nonzero;stroke:none;stroke-width:1;marker:none;visibility:visible;display:inline;overflow:visible" />
      <path
         d="m 41,44.266291 c 0,0 0,3.733665 0,3.733665 1.240944,0.007 3,-0.836525 3,-1.867073 0,-1.030547 -1.384801,-1.866591 -3,-1.866592 z"
         id="path4350"
         style="opacity:0.40206185;fill:url(#radialGradient4162);fill-opacity:1;fill-rule:nonzero;stroke:none;stroke-width:1;marker:none;visibility:visible;display:inline;overflow:visible" />
    </g>
    <path
       d="m 6.499961,1.4999629 c 8.020295,0 16.04059,0 24.060886,0 1.406933,0.485379 8.965454,6.015135 10.939195,9.8439521 0,11.718709 0,23.437418 0,35.156127 -11.666694,0 -23.333387,0 -35.000081,0 0,-15.000027 0,-30.000053 0,-45.0000791 z"
       id="path4352"
       style="fill:url(#linearGradient3225);fill-opacity:1;stroke:url(#linearGradient3227);stroke-width:0.9999218;stroke-linecap:butt;stroke-linejoin:round;stroke-miterlimit:4;stroke-opacity:1;stroke-dasharray:none;stroke-dashoffset:0" />
    <path
       d="m 30.807843,45.866665 a 7.9058824,1.5058824 0 1 1 -15.811765,0 7.9058824,1.5058824 0 1 1 15.811765,0 z"
       transform="matrix(0.6976533,0,0,1.5729478,13.434581,-40.514544)"
       id="path2704"
       style="opacity:0.3;fill:url(#radialGradient4046);fill-opacity:1;stroke:none" />
    <path
       d="m 30.807843,45.866665 a 7.9058824,1.5058824 0 1 1 -15.811765,0 7.9058824,1.5058824 0 1 1 15.811765,0 z"
       transform="matrix(0.7587453,0,0,1.7106875,0.1217963,-45.039624)"
       id="path4121"
       style="opacity:0.3;fill:url(#radialGradient4044);fill-opacity:1;stroke:none" />
    <path
       d="M 33.437124,27.116873 32.795123,21.996274"
       id="path2931"
       style="fill:none;stroke:none" />
    <path
       d="m 33.393419,8.5035516 c -4.126923,0.6581903 -8.872206,1.3357465 -12.987656,2.0306964 -1.089793,0.526246 -0.844792,1.881339 -0.893006,2.864584 0,4.387432 0,8.774864 0,13.162296 -2.800847,-0.6412 -5.875138,1.450854 -5.996608,4.424657 -0.198287,1.851424 1.460567,3.462983 3.264419,3.506319 3.229721,0.07759 5.684399,-2.043142 5.719432,-4.725187 -0.03527,-4.504338 0.0099,-9.010449 0,-13.515478 0.5,-0.03665 8.318974,-1.466849 9,-1.562074 0,3.37408 0,6.74816 0,10.12224 -2.583394,-0.761059 -5.165682,0.829544 -5.801891,3.495564 -0.470738,1.5444 0.238985,3.370066 1.771061,4.002814 C 30.460029,33.670146 34.666921,30.91499 34.5,27.681475 34.45368,21.675178 34.53797,15.666424 34.5,9.6594864 34.42145,9.095001 34.034963,8.4628052 33.393419,8.5035516 z"
       id="path4031"
       style="fill:url(#linearGradient4042);fill-opacity:1;stroke:#517492;stroke-width:1;stroke-linecap:round;stroke-linejoin:round;stroke-miterlimit:4;stroke-opacity:1;stroke-dasharray:none" />
    <path
       d="m 22.35294,41.058823 a 5.2941175,2.8235295 0 1 1 -10.588235,0 5.2941175,2.8235295 0 1 1 10.588235,0 z"
       transform="matrix(0.7358916,-0.1256885,0,1.2747451,5.1864929,-19.763145)"
       id="path2937"
       style="fill:url(#radialGradient4054);fill-opacity:1;stroke:none" />
    <path
       d="m 22.35294,41.058823 a 5.2941175,2.8235295 0 1 1 -10.588235,0 5.2941175,2.8235295 0 1 1 10.588235,0 z"
       transform="matrix(0.5351933,-0.09556599,0,0.6154063,8.2559849,5.8592058)"
       id="path2939"
       style="fill:url(#linearGradient4052);fill-opacity:1;stroke:none" />
    <path
       d="m 22.35294,41.058823 a 5.2941175,2.8235295 0 1 1 -10.588235,0 5.2941175,2.8235295 0 1 1 10.588235,0 z"
       transform="matrix(0.7358916,-0.1256885,0,1.2747451,17.228365,-21.593564)"
       id="path2941"
       style="fill:url(#radialGradient4050);fill-opacity:1;stroke:none" />
    <path
       d="m 22.35294,41.058823 a 5.2941175,2.8235295 0 1 1 -10.588235,0 5.2941175,2.8235295 0 1 1 10.588235,0 z"
       transform="matrix(0.5351933,-0.09556599,0,0.6154063,20.297858,4.0287908)"
       id="path2943"
       style="fill:url(#linearGradient4048);fill-opacity:1;stroke:none" />
    <path
       d="m 20.106749,27.165445 -0.094,-15.045207 c 0,0 0.102897,-1.150193 0.866171,-1.153699 0.270703,-0.04687 12.136359,-2.0041032 12.136359,-2.0041032 0,0 -1.104405,2.6989572 -6.374462,3.4551982 -3.768195,0.542808 -5.653559,0.75244 -5.640825,3.019212 0.01264,2.290155 2e-6,3.894815 2e-6,12.233729 0,0.05966 -0.569792,-0.422704 -0.893247,-0.50513 z"
       id="path2945"
       style="opacity:0.4;fill:url(#linearGradient3211);fill-opacity:1;fill-rule:evenodd;stroke:none" />
    <path
       d="m 32.000003,25.433791 0.0594,-11.365685 c 0.625915,-0.05597 0.0961,-0.009 0.940117,-0.09284 C 33.01113,16.09826 33,17.860443 33,25.878428 c 0,0.05966 -0.349163,-0.362211 -0.999997,-0.444637 z"
       id="path2947"
       style="opacity:0.4;fill:url(#linearGradient3208);fill-opacity:1;fill-rule:evenodd;stroke:none" />
    <path
       d="m 17.768078,38.321117 c 0.621164,-1.150997 2.48293,-1.422739 3.25817,-0.297716 0.55778,0.91683 0.313119,2.027854 0.367987,3.045065 0,0.565771 0,1.131541 0,1.697312 -0.571048,0 -1.142097,0 -1.713146,0 -0.01608,-1.194976 0.03516,-2.394895 -0.03213,-3.585706 -0.205697,-1.095669 -1.7349,-0.468792 -1.643176,0.451113 -0.0855,1.04114 -0.02397,2.08999 -0.0426,3.134593 -0.571049,0 -1.142097,0 -1.713146,0 -0.02258,-1.212517 0.05454,-2.43071 -0.05949,-3.638275 -0.232658,-1.050266 -1.712324,-0.376237 -1.620943,0.504724 -0.07564,1.041351 -0.02079,2.089268 -0.03747,3.133551 -0.571049,0 -1.142097,0 -1.713145,0 0,-1.776595 0,-3.55319 0,-5.329784 0.571048,0 1.142096,0 1.713145,0 0.04906,0.207161 -0.13077,1.080288 0.162687,0.568373 0.77273,-1.023904 2.563322,-0.913184 3.073254,0.31675 z m 6.92872,3.673745 c 0,0.932712 0,1.865425 0,2.798137 -0.567875,0 -1.135751,0 -1.703626,0 0,-2.452335 0,-4.90467 0,-7.357005 0.567875,0 1.135751,0 1.703626,0 0.05068,0.216665 -0.139159,1.090725 0.180831,0.562722 0.861641,-1.033743 2.685851,-0.881633 3.350968,0.296155 0.748937,1.237299 0.67712,3.061895 -0.398061,4.093702 -0.890586,0.834902 -2.470047,0.628997 -3.133737,-0.393711 l -10e-7,0 z m 1.13258,-3.450084 c -1.051616,-0.025 -1.261806,1.277749 -1.09176,2.078826 0.0181,0.862666 1.105803,1.375059 1.765417,0.818056 0.618126,-0.674856 0.603552,-1.863144 0.08365,-2.590834 -0.1881,-0.214309 -0.477686,-0.31051 -0.757307,-0.306048 l 0,0 z m 7.870951,0.390217 c 1.004446,0.168267 1.659724,1.210816 1.437247,2.19151 -0.141955,1.152254 -1.38076,1.6851 -2.411601,1.743073 -0.979315,0.09746 -1.978308,-0.01173 -2.913534,-0.317944 0,-0.471114 0,-0.942229 0,-1.413344 0.945887,0.46285 2.143304,0.768082 3.131249,0.266489 0.679713,-0.393142 0.406539,-1.512487 -0.359288,-1.609863 -0.505932,-0.142322 -1.035163,-0.08719 -1.553724,-0.09852 0,-0.39339 0,-0.78678 0,-1.180169 0.698142,-0.03879 1.594394,0.174622 2.052202,-0.488955 0.433029,-0.922372 -0.758074,-1.423966 -1.505098,-1.229167 -0.457682,-0.176778 -1.493895,0.722096 -1.460782,0.09064 0,-0.350562 0,-0.701124 0,-1.051687 1.325424,-0.338779 2.834711,-0.527491 4.104057,0.09696 1.120595,0.580565 1.026748,2.528451 -0.219146,2.905507 l -0.145884,0.05138 -0.155698,0.04409 z"
       id="text2019"
       style="font-size:11.69507122px;font-style:normal;font-weight:normal;line-height:125%;fill:#808080;fill-opacity:1;stroke:none;font-family:Bitstream Vera Sans" />
    <path
       d="m 29.767542,1.8146209 c 0.637502,4.12506 0.609458,9.0344681 0.609458,9.0344681 0,0 4.869733,-0.1115 10.885254,0.593929 C 36.365369,6.6552189 32.933798,4.6588369 29.767542,1.8146209 z"
       id="path4882"
       style="fill:#000000;fill-opacity:0.32663317;fill-rule:evenodd;stroke:#000000;stroke-width:0.5;stroke-linecap:butt;stroke-linejoin:round;stroke-miterlimit:4;stroke-opacity:0.16582917;stroke-dasharray:none;display:inline" />
    <path
       d="m 29.657926,1.5079299 c 1.412214,4.122498 1.29509,8.260704 1.29509,8.260704 0,0 7.832998,0.5473071 10.175132,1.5939221 0,-1.7111401 -9.297498,-9.8254151 -11.470222,-9.8546261 z"
       id="path4884"
       style="fill:url(#linearGradient3203);fill-opacity:1;fill-rule:evenodd;stroke:none;display:inline" />
  </g>
</svg>
