<?xml version="1.0" encoding="UTF-8" standalone="no"?>
<!-- Created with Inkscape (http://www.inkscape.org/) -->
<svg
   xmlns:dc="http://purl.org/dc/elements/1.1/"
   xmlns:cc="http://creativecommons.org/ns#"
   xmlns:rdf="http://www.w3.org/1999/02/22-rdf-syntax-ns#"
   xmlns:svg="http://www.w3.org/2000/svg"
   xmlns="http://www.w3.org/2000/svg"
   xmlns:xlink="http://www.w3.org/1999/xlink"
   xmlns:sodipodi="http://sodipodi.sourceforge.net/DTD/sodipodi-0.dtd"
   xmlns:inkscape="http://www.inkscape.org/namespaces/inkscape"
   width="48px"
   height="48px"
   id="svg3648"
   sodipodi:version="0.32"
   inkscape:version="0.46"
   sodipodi:docname="audio-x-vorbis+ogg.svg"
   inkscape:output_extension="org.inkscape.output.svg.inkscape">
  <defs
     id="defs3650">
    <radialGradient
       inkscape:collect="always"
       xlink:href="#linearGradient5060"
       id="radialGradient6624"
       gradientUnits="userSpaceOnUse"
       gradientTransform="matrix(2.4097175e-2,0,0,1.5374761e-2,26.477584,38.629039)"
       cx="605.71429"
       cy="486.64789"
       fx="605.71429"
       fy="486.64789"
       r="117.14286" />
    <linearGradient
       id="linearGradient5060"
       inkscape:collect="always">
      <stop
         id="stop5062"
         offset="0"
         style="stop-color:black;stop-opacity:1;" />
      <stop
         id="stop5064"
         offset="1"
         style="stop-color:black;stop-opacity:0;" />
    </linearGradient>
    <radialGradient
       inkscape:collect="always"
       xlink:href="#linearGradient5060"
       id="radialGradient6622"
       gradientUnits="userSpaceOnUse"
       gradientTransform="matrix(-2.409717e-2,0,0,1.5374761e-2,21.522412,38.629039)"
       cx="605.71429"
       cy="486.64789"
       fx="605.71429"
       fy="486.64789"
       r="117.14286" />
    <linearGradient
       id="linearGradient5048">
      <stop
         id="stop5050"
         offset="0"
         style="stop-color:black;stop-opacity:0;" />
      <stop
         style="stop-color:black;stop-opacity:1;"
         offset="0.5"
         id="stop5056" />
      <stop
         id="stop5052"
         offset="1"
         style="stop-color:black;stop-opacity:0;" />
    </linearGradient>
    <linearGradient
       inkscape:collect="always"
       xlink:href="#linearGradient5048"
       id="linearGradient6620"
       gradientUnits="userSpaceOnUse"
       gradientTransform="matrix(7.0414201e-2,0,0,1.5374761e-2,-1.4497047,38.629007)"
       x1="302.85715"
       y1="366.64789"
       x2="302.85715"
       y2="609.50507" />
    <linearGradient
       id="linearGradient3104">
      <stop
         id="stop3106"
         offset="0"
         style="stop-color:#aaaaaa;stop-opacity:1;" />
      <stop
         id="stop3108"
         offset="1"
         style="stop-color:#d2d2d2;stop-opacity:1;" />
    </linearGradient>
    <linearGradient
       inkscape:collect="always"
       xlink:href="#linearGradient3104"
       id="linearGradient6670"
       gradientUnits="userSpaceOnUse"
       gradientTransform="matrix(0.8074968,0,0,0.9358511,59.41023,-1.114479)"
       x1="-51.786404"
       y1="50.786446"
       x2="-51.786404"
       y2="2.9062471" />
    <linearGradient
       inkscape:collect="always"
       id="linearGradient3600">
      <stop
         style="stop-color:#f4f4f4;stop-opacity:1"
         offset="0"
         id="stop3602" />
      <stop
         style="stop-color:#dbdbdb;stop-opacity:1"
         offset="1"
         id="stop3604" />
    </linearGradient>
    <linearGradient
       inkscape:collect="always"
       xlink:href="#linearGradient3600"
       id="linearGradient6668"
       gradientUnits="userSpaceOnUse"
       x1="25.132275"
       y1="6.7287393"
       x2="25.132275"
       y2="47.013336" />
    <linearGradient
       inkscape:collect="always"
       xlink:href="#linearGradient2372"
       id="linearGradient6646"
       gradientUnits="userSpaceOnUse"
       gradientTransform="matrix(0.1976842,0,0,0.1991469,26.267366,-13.196524)"
       x1="28.739122"
       y1="144.11652"
       x2="26.256771"
       y2="125.39074" />
    <linearGradient
       id="linearGradient2372">
      <stop
         style="stop-color:#bbd8ea;stop-opacity:1;"
         id="stop2374"
         offset="0" />
      <stop
         style="stop-color:#6a9ab8;stop-opacity:1"
         id="stop2376"
         offset="1" />
    </linearGradient>
    <linearGradient
       inkscape:collect="always"
       xlink:href="#linearGradient2372"
       id="linearGradient6644"
       gradientUnits="userSpaceOnUse"
       gradientTransform="matrix(0.1976842,0,0,0.1991469,15.372418,-11.787634)"
       x1="28.739122"
       y1="144.11652"
       x2="25.400293"
       y2="119.86452" />
    <linearGradient
       inkscape:collect="always"
       xlink:href="#linearGradient3686"
       id="linearGradient6642"
       gradientUnits="userSpaceOnUse"
       gradientTransform="scale(1.3693064,0.7302968)"
       x1="11.128633"
       y1="51.807358"
       x2="12.458002"
       y2="61.909195" />
    <radialGradient
       inkscape:collect="always"
       xlink:href="#linearGradient7067"
       id="radialGradient6676"
       gradientUnits="userSpaceOnUse"
       gradientTransform="matrix(1,0,0,0.569469,0,17.67708)"
       cx="17.058823"
       cy="41.058823"
       fx="17.843975"
       fy="44.178165"
       r="5.7384715" />
    <linearGradient
       inkscape:collect="always"
       id="linearGradient3686">
      <stop
         offset="0"
         id="stop3688"
         style="stop-color:white;stop-opacity:1;" />
      <stop
         offset="1"
         id="stop3690"
         style="stop-color:white;stop-opacity:0;" />
    </linearGradient>
    <linearGradient
       inkscape:collect="always"
       xlink:href="#linearGradient3686"
       id="linearGradient6638"
       gradientUnits="userSpaceOnUse"
       x1="16.574366"
       y1="37.638168"
       x2="18.514551"
       y2="46.079796" />
    <linearGradient
       id="linearGradient7067">
      <stop
         style="stop-color:#bbd8ea;stop-opacity:1;"
         id="stop7069"
         offset="0" />
      <stop
         style="stop-color:#6a9ab8;stop-opacity:1"
         id="stop7071"
         offset="1" />
    </linearGradient>
    <radialGradient
       inkscape:collect="always"
       xlink:href="#linearGradient7067"
       id="radialGradient6636"
       gradientUnits="userSpaceOnUse"
       gradientTransform="matrix(1,0,0,0.569469,0,17.67708)"
       cx="17.058823"
       cy="41.058823"
       fx="17.843975"
       fy="44.178165"
       r="5.7384715" />
    <linearGradient
       inkscape:collect="always"
       id="linearGradient4252">
      <stop
         style="stop-color:#6a9ab8;stop-opacity:1;"
         offset="0"
         id="stop4254" />
      <stop
         style="stop-color:#73a1bd;stop-opacity:1"
         offset="1"
         id="stop4256" />
    </linearGradient>
    <linearGradient
       inkscape:collect="always"
       xlink:href="#linearGradient4252"
       id="linearGradient6634"
       gradientUnits="userSpaceOnUse"
       gradientTransform="translate(-0.6,0)"
       x1="22.68783"
       y1="16.423281"
       x2="22.68783"
       y2="29.039593" />
    <radialGradient
       inkscape:collect="always"
       xlink:href="#linearGradient5670"
       id="radialGradient6632"
       gradientUnits="userSpaceOnUse"
       gradientTransform="matrix(1,0,0,0.190476,0,37.13016)"
       cx="22.90196"
       cy="45.866665"
       fx="22.90196"
       fy="45.866665"
       r="7.9058824" />
    <linearGradient
       inkscape:collect="always"
       id="linearGradient5670">
      <stop
         offset="0"
         id="stop5672"
         style="stop-color:black;stop-opacity:1;" />
      <stop
         offset="1"
         id="stop5674"
         style="stop-color:black;stop-opacity:0;" />
    </linearGradient>
    <radialGradient
       inkscape:collect="always"
       xlink:href="#linearGradient5670"
       id="radialGradient6630"
       gradientUnits="userSpaceOnUse"
       gradientTransform="matrix(1,0,0,0.190476,0,37.13016)"
       cx="22.90196"
       cy="45.866665"
       fx="22.90196"
       fy="45.866665"
       r="7.9058824" />
    <linearGradient
       id="linearGradient8589">
      <stop
         id="stop8591"
         offset="0"
         style="stop-color:#fefefe;stop-opacity:1" />
      <stop
         id="stop8593"
         offset="1"
         style="stop-color:#cbcbcb;stop-opacity:1;" />
    </linearGradient>
    <linearGradient
       inkscape:collect="always"
       xlink:href="#linearGradient8589"
       id="linearGradient6651"
       gradientUnits="userSpaceOnUse"
       gradientTransform="matrix(0.9976985,0,0,1.0642049,0.1638,-0.139256)"
       x1="32.892288"
       y1="8.0590115"
       x2="36.358372"
       y2="5.4565363" />
  </defs>
  <sodipodi:namedview
     id="base"
     pagecolor="#ffffff"
     bordercolor="#666666"
     borderopacity="1.0"
     inkscape:pageopacity="0.0"
     inkscape:pageshadow="2"
     inkscape:zoom="7"
     inkscape:cx="24"
     inkscape:cy="24"
     inkscape:current-layer="layer1"
     showgrid="true"
     inkscape:grid-bbox="true"
     inkscape:document-units="px"
     inkscape:window-width="640"
     inkscape:window-height="720"
     inkscape:window-x="0"
     inkscape:window-y="91" />
  <metadata
     id="metadata3653">
    <rdf:RDF>
      <cc:Work
         rdf:about="">
        <dc:format>image/svg+xml</dc:format>
        <dc:type
           rdf:resource="http://purl.org/dc/dcmitype/StillImage" />
      </cc:Work>
    </rdf:RDF>
  </metadata>
  <g
     id="layer1"
     inkscape:label="Layer 1"
     inkscape:groupmode="layer">
    <g
       style="display:inline"
       id="g4344"
       transform="matrix(0.9561265,0,0,0.9561265,1.05296,2.105928)">
      <rect
         style="opacity:0.40206185;fill:url(#linearGradient6620);fill-opacity:1;fill-rule:nonzero;stroke:none;stroke-width:1;stroke-linecap:round;stroke-linejoin:miter;marker:none;marker-start:none;marker-mid:none;marker-end:none;stroke-miterlimit:4;stroke-dasharray:none;stroke-dashoffset:0;stroke-opacity:1;visibility:visible;display:inline;overflow:visible"
         id="rect4346"
         width="34"
         height="3.7338707"
         x="7"
         y="44.266129" />
      <path
         sodipodi:nodetypes="cccc"
         id="path4348"
         d="M 7,44.266291 C 7,44.266291 7,47.999956 7,47.999956 C 5.7590552,48.006985 4,47.163431 4,46.132883 C 4,45.102336 5.3848007,44.266292 7,44.266291 z"
         style="opacity:0.40206185;fill:url(#radialGradient6622);fill-opacity:1;fill-rule:nonzero;stroke:none;stroke-width:1;stroke-linecap:round;stroke-linejoin:miter;marker:none;marker-start:none;marker-mid:none;marker-end:none;stroke-miterlimit:4;stroke-dasharray:none;stroke-dashoffset:0;stroke-opacity:1;visibility:visible;display:inline;overflow:visible" />
      <path
         sodipodi:nodetypes="cccc"
         id="path4350"
         d="M 41,44.266291 C 41,44.266291 41,47.999956 41,47.999956 C 42.240944,48.006985 44,47.163431 44,46.132883 C 44,45.102336 42.615199,44.266292 41,44.266291 z"
         style="opacity:0.40206185;fill:url(#radialGradient6624);fill-opacity:1;fill-rule:nonzero;stroke:none;stroke-width:1;stroke-linecap:round;stroke-linejoin:miter;marker:none;marker-start:none;marker-mid:none;marker-end:none;stroke-miterlimit:4;stroke-dasharray:none;stroke-dashoffset:0;stroke-opacity:1;visibility:visible;display:inline;overflow:visible" />
    </g>
    <path
       style="display:inline;fill:url(#linearGradient6668);fill-opacity:1;stroke:url(#linearGradient6670);stroke-width:0.99992179999999997;stroke-linecap:butt;stroke-linejoin:round;stroke-miterlimit:4;stroke-dasharray:none;stroke-dashoffset:0;stroke-opacity:1"
       d="M 6.49996,1.499963 C 14.52025,1.499963 22.54055,1.499963 30.56085,1.499963 C 31.96778,1.985342 39.5263,7.515098 41.50004,11.343915 C 41.50004,23.062624 41.50004,34.781333 41.50004,46.500042 C 29.83335,46.500042 18.16665,46.500042 6.49996,46.500042 C 6.49996,31.500015 6.49996,16.499989 6.49996,1.499963 z"
       id="path4352"
       sodipodi:nodetypes="cccccc" />
    <g
       style="display:inline"
       id="g5221"
       transform="matrix(1.1203411,0,0,1.1203411,-2.35316,-4.307281)">
      <path
         sodipodi:rx="7.9058824"
         sodipodi:ry="1.5058824"
         style="opacity:0.3;fill:url(#radialGradient6630);fill-opacity:1;stroke:none;stroke-width:1;stroke-linecap:round;stroke-linejoin:round;stroke-miterlimit:4;stroke-dasharray:none;stroke-opacity:1"
         sodipodi:type="arc"
         d="M 30.807843,45.866665 A 7.9058824,1.5058824 0 1 1 14.996078,45.866665 A 7.9058824,1.5058824 0 1 1 30.807843,45.866665 z"
         transform="matrix(0.6227151,0,0,1.4039901,14.126779,-32.420153)"
         sodipodi:cy="45.866665"
         sodipodi:cx="22.90196"
         id="path2704" />
      <path
         sodipodi:rx="7.9058824"
         sodipodi:ry="1.5058824"
         style="opacity:0.3;fill:url(#radialGradient6632);fill-opacity:1;stroke:none;stroke-width:1;stroke-linecap:round;stroke-linejoin:round;stroke-miterlimit:4;stroke-dasharray:none;stroke-opacity:1"
         sodipodi:type="arc"
         d="M 30.807843,45.866665 A 7.9058824,1.5058824 0 1 1 14.996078,45.866665 A 7.9058824,1.5058824 0 1 1 30.807843,45.866665 z"
         transform="matrix(0.6772449,0,0,1.5269345,2.2439827,-36.334776)"
         sodipodi:cy="45.866665"
         sodipodi:cx="22.90196"
         id="path4121" />
      <path
         id="path2931"
         d="M 31.93449,27.661389 L 31.36145,23.090818"
         style="fill:none;fill-rule:evenodd;stroke:none;stroke-width:1;stroke-linecap:square;stroke-linejoin:round;stroke-miterlimit:4;stroke-dasharray:none;stroke-opacity:0.58128076" />
      <path
         style="fill:#84acc5;fill-opacity:1;stroke:#517492;stroke-width:1.39199996;stroke-linecap:round;stroke-linejoin:round;stroke-miterlimit:4;stroke-dasharray:none;stroke-opacity:1"
         d="M 31.469368,11.34704 C 27.649835,11.944163 24.297313,12.536124 20.478262,13.136472 C 19.799054,13.422048 19.972334,14.310514 19.953553,14.9223 C 19.953553,19.118286 19.953553,23.314271 19.953553,27.510258 C 17.066477,26.652533 14.098197,29.033227 14.468204,31.741162 C 14.716574,33.440985 16.600453,34.281138 18.083032,33.867461 C 19.942889,33.48484 21.57243,31.661615 21.380199,29.616164 C 21.380199,25.634562 21.380199,21.652963 21.380199,17.67136 C 24.331926,17.256527 27.959345,16.624952 30.911072,16.210118 C 30.911072,19.353987 30.911072,22.822968 30.911072,25.966836 C 27.755983,24.881572 24.975883,27.286416 25.19571,29.942302 C 25.329342,31.568849 27.025846,32.540049 28.474932,32.277248 C 30.490246,32.053076 32.341373,30.130158 32.129814,27.942773 C 32.121746,22.66801 32.144558,17.389026 32.121124,12.116364 C 32.061569,11.749792 31.869296,11.366117 31.469368,11.34704 z"
         id="path2933"
         sodipodi:nodetypes="ccccccccccccccc" />
      <path
         style="fill:url(#linearGradient6634);fill-opacity:1;stroke:none;stroke-width:1;stroke-linecap:round;stroke-linejoin:round;stroke-miterlimit:4;stroke-dasharray:none;stroke-opacity:1"
         id="path2935"
         d="M 31.464523,11.272475 L 20.739934,13.052958 C 20.371233,13.052958 20.083586,13.425785 20.083586,13.889917 L 20.083586,28.372898 C 19.868028,28.300769 19.066579,28.41339 18.820955,28.389896 C 18.803953,28.388271 18.786264,28.391275 18.769137,28.389896 C 18.669308,28.381219 18.562013,28.371554 18.458235,28.371701 C 18.28543,28.371943 18.105123,28.38116 17.922793,28.408088 C 16.215224,28.660283 14.831047,29.973315 14.831047,31.337436 C 14.831047,32.019494 15.169299,32.592165 15.729208,32.956761 C 16.008954,33.139722 16.343836,33.267906 16.713731,33.338854 C 17.08378,33.409307 17.495901,33.420097 17.922793,33.357047 C 18.130588,33.326359 18.330973,33.271749 18.527327,33.21149 C 18.603773,33.187902 18.677563,33.148206 18.751867,33.120516 C 18.870929,33.076266 19.001778,33.047212 19.114583,32.993153 C 19.12184,32.989674 19.124628,32.97848 19.131854,32.974957 C 19.487939,32.801629 19.808739,32.590994 20.081833,32.338143 C 20.094212,32.326683 20.104203,32.313348 20.116377,32.301754 C 20.243919,32.181029 20.358007,32.053328 20.461826,31.919665 C 20.472434,31.905998 20.486027,31.897063 20.49637,31.883275 C 20.534874,31.832075 20.54801,31.772255 20.582732,31.719526 C 20.648428,31.619693 20.721467,31.532867 20.772727,31.428407 C 20.778465,31.41673 20.78445,31.40375 20.789998,31.39202 C 20.851374,31.262293 20.891096,31.126475 20.928178,30.991736 C 20.933433,30.97276 20.940697,30.956202 20.945451,30.937151 C 20.946858,30.931449 20.944087,30.924662 20.945451,30.918957 C 20.964862,30.838418 20.987208,30.764012 20.997267,30.682426 C 21.004831,30.621874 21.01235,30.561404 21.01454,30.500478 L 21.187263,30.500478 C 21.302115,30.500478 21.394531,30.403128 21.394531,30.282142 L 21.394531,17.573559 L 30.87895,16.018694 L 30.87895,26.899126 C 30.412673,26.742861 29.250382,26.848036 28.666177,26.934319 C 26.958613,27.186511 25.574434,28.481353 25.574434,29.84547 C 25.574434,31.209595 26.958613,32.117277 28.666177,31.865081 C 30.335828,31.618488 31.698254,30.357781 31.757926,29.026709 L 31.947923,29.026709 C 32.062775,29.026709 32.155189,28.929358 32.155189,28.808372 L 32.155189,15.94472 L 32.155189,15.162349 L 32.155189,12.263291 C 32.155189,11.799159 31.833223,11.272475 31.464523,11.272475 z"
         sodipodi:nodetypes="ccccsssssssssssssssssssssssccccccsssccccccc" />
      <path
         sodipodi:rx="5.2941175"
         sodipodi:ry="2.8235295"
         style="fill:url(#radialGradient6636);fill-opacity:1;stroke:none;stroke-width:1.1470927;stroke-linecap:round;stroke-linejoin:round;stroke-miterlimit:4;stroke-dasharray:none;stroke-opacity:1"
         sodipodi:type="arc"
         d="M 22.35294,41.058823 A 5.2941175,2.8235295 0 1 1 11.764705,41.058823 A 5.2941175,2.8235295 0 1 1 22.35294,41.058823 z"
         transform="matrix(0.656846,-0.1121877,0,1.1378187,6.7183925,-14.183026)"
         sodipodi:cy="41.058823"
         sodipodi:cx="17.058823"
         id="path2937" />
      <path
         sodipodi:rx="5.2941175"
         sodipodi:ry="2.8235295"
         style="fill:url(#linearGradient6638);fill-opacity:1;stroke:none;stroke-width:1.93589067;stroke-linecap:round;stroke-linejoin:round;stroke-miterlimit:4;stroke-dasharray:none;stroke-opacity:0.29556651"
         sodipodi:type="arc"
         d="M 22.35294,41.058823 A 5.2941175,2.8235295 0 1 1 11.764705,41.058823 A 5.2941175,2.8235295 0 1 1 22.35294,41.058823 z"
         transform="matrix(0.4777057,-8.5300794e-2,0,0.5493026,9.458176,8.6871079)"
         sodipodi:cy="41.058823"
         sodipodi:cx="17.058823"
         id="path2939" />
      <path
         sodipodi:rx="5.2941175"
         sodipodi:ry="2.8235295"
         style="fill:url(#radialGradient6676);fill-opacity:1;stroke:none;stroke-width:1.14709269999999997;stroke-linecap:round;stroke-linejoin:round;stroke-miterlimit:4;stroke-dasharray:none;stroke-opacity:1"
         sodipodi:type="arc"
         d="M 22.35294,41.058823 A 5.2941175,2.8235295 0 1 1 11.764705,41.058823 A 5.2941175,2.8235295 0 1 1 22.35294,41.058823 z"
         transform="matrix(0.656846,-0.1121877,0,1.1378187,17.46679,-15.816831)"
         sodipodi:cy="41.058823"
         sodipodi:cx="17.058823"
         id="path2941" />
      <path
         sodipodi:rx="5.2941175"
         sodipodi:ry="2.8235295"
         style="fill:url(#linearGradient6642);fill-opacity:1;stroke:none;stroke-width:1.93589067;stroke-linecap:round;stroke-linejoin:round;stroke-miterlimit:4;stroke-dasharray:none;stroke-opacity:0.29556651"
         sodipodi:type="arc"
         d="M 22.35294,41.058823 A 5.2941175,2.8235295 0 1 1 11.764705,41.058823 A 5.2941175,2.8235295 0 1 1 22.35294,41.058823 z"
         transform="matrix(0.4777057,-8.5300794e-2,0,0.5493026,20.206575,7.053306)"
         sodipodi:cy="41.058823"
         sodipodi:cx="17.058823"
         id="path2943" />
      <path
         id="path2945"
         d="M 19.966499,27.704744 L 19.882602,14.096066 C 19.882602,14.096066 20.071515,13.226224 20.670667,13.096158 C 20.912293,13.054326 31.488469,11.277458 31.488469,11.277458 C 31.488469,11.277458 30.502693,13.866055 25.798718,14.541064 C 22.435282,15.025567 20.372184,15.212681 20.38355,17.235969 C 20.394833,19.280127 20.325974,20.361848 20.325974,27.80504 C 20.325974,27.858292 20.255207,27.778312 19.966499,27.704744 z"
         style="fill:url(#linearGradient6644);fill-opacity:1;fill-rule:evenodd;stroke:none;stroke-width:1;stroke-linecap:butt;stroke-linejoin:round;stroke-miterlimit:4;stroke-dasharray:none;stroke-opacity:1"
         sodipodi:nodetypes="ccccsssc" />
      <path
         id="path2947"
         d="M 30.861446,26.159091 L 30.887792,16.014251 C 31.16545,15.964293 30.930423,16.006196 31.304832,15.93138 C 31.309964,17.826333 31.220923,19.102652 31.220923,26.259387 C 31.220923,26.312639 31.150159,26.232659 30.861446,26.159091 z"
         style="fill:url(#linearGradient6646);fill-opacity:1;fill-rule:evenodd;stroke:none;stroke-width:1;stroke-linecap:butt;stroke-linejoin:round;stroke-miterlimit:4;stroke-dasharray:none;stroke-opacity:1"
         sodipodi:nodetypes="cccsc" />
    </g>
    <path
       style="display:inline;font-size:11.69507122000000088px;font-style:normal;font-weight:normal;line-height:125%;fill:#808080;fill-opacity:1;stroke:none;stroke-width:1px;stroke-linecap:butt;stroke-linejoin:miter;stroke-opacity:1;font-family:Bitstream Vera Sans"
       d="M 17.22731,38.525747 C 16.34247,38.473927 15.9948,39.467237 16.06733,40.200017 C 15.98499,40.997737 16.60746,41.906627 17.48934,41.660267 C 18.32742,41.474327 18.43319,40.457197 18.35572,39.745167 C 18.3248,39.130617 17.91223,38.481867 17.22731,38.525747 L 17.22731,38.525747 z M 17.22731,37.307507 C 18.39478,37.246847 19.66626,37.882257 20.0007,39.065717 C 20.38388,40.304637 20.07948,41.924427 18.83266,42.552897 C 17.72566,43.072497 16.2892,43.053487 15.27132,42.335407 C 14.15146,41.477177 14.03423,39.756547 14.6578,38.569617 C 15.16355,37.662657 16.23595,37.285167 17.22731,37.307507 L 17.22731,37.307507 z M 25.01736,41.861617 C 24.29232,42.998787 22.45857,43.080527 21.64818,41.999617 C 20.78542,40.903967 20.77981,39.177157 21.64818,38.083177 C 22.45861,37.001837 24.29716,37.082767 25.01736,38.225947 C 25.01736,37.962627 25.01736,37.699307 25.01736,37.435997 C 25.58841,37.435997 26.15946,37.435997 26.73051,37.435997 C 26.72276,39.137147 26.74647,40.839117 26.71779,42.539737 C 26.69122,43.625437 25.82457,44.543197 24.77477,44.738887 C 23.74804,44.968877 22.65837,44.892377 21.66245,44.559817 C 21.66245,44.117257 21.66245,43.674697 21.66245,43.232137 C 22.53301,43.736317 23.75774,44.017987 24.62715,43.374897 C 25.04205,42.984457 25.02186,42.385807 25.01736,41.861617 z M 23.8943,38.544777 C 23.0265,38.505727 22.68949,39.498587 22.78046,40.216727 C 22.70347,41.017107 23.45156,41.787197 24.26057,41.473637 C 25.10441,41.141797 25.12196,40.014497 24.90211,39.273167 C 24.76659,38.839817 24.35567,38.520747 23.8943,38.544777 L 23.8943,38.544777 z M 32.00319,41.861617 C 31.27815,42.998787 29.4444,43.080527 28.634,41.999617 C 27.77124,40.903967 27.76563,39.177157 28.634,38.083177 C 29.44443,37.001837 31.28299,37.082767 32.00319,38.225947 C 32.00319,37.962627 32.00319,37.699307 32.00319,37.435997 C 32.57424,37.435997 33.14529,37.435997 33.71633,37.435997 C 33.70858,39.137147 33.73229,40.839117 33.70362,42.539737 C 33.67704,43.625437 32.8104,44.543197 31.7606,44.738887 C 30.73386,44.968877 29.6442,44.892377 28.64828,44.559817 C 28.64828,44.117257 28.64828,43.674697 28.64828,43.232137 C 29.51884,43.736317 30.74356,44.017987 31.61297,43.374897 C 32.02787,42.984457 32.00769,42.385807 32.00319,41.861617 z M 30.88013,38.544777 C 30.01233,38.505727 29.67531,39.498587 29.76628,40.216727 C 29.6893,41.017107 30.43739,41.787197 31.2464,41.473637 C 32.09024,41.141797 32.10778,40.014497 31.88793,39.273167 C 31.75242,38.839817 31.3415,38.520747 30.88013,38.544777 L 30.88013,38.544777 z"
       id="text2019" />
    <path
       style="display:inline;fill:#000000;fill-opacity:0.32663316999999997;fill-rule:evenodd;stroke:#000000;stroke-width:0.50000000000000000;stroke-linecap:butt;stroke-linejoin:round;stroke-miterlimit:4;stroke-dasharray:none;stroke-opacity:0.16582917000000000"
       d="M 29.76754,1.814621 C 30.40504,5.939681 30.377,10.849089 30.377,10.849089 C 30.377,10.849089 35.24673,10.737589 41.26225,11.443018 C 36.36537,6.655219 32.9338,4.658837 29.76754,1.814621 z"
       id="path4897"
       sodipodi:nodetypes="cccc" />
    <path
       style="display:inline;fill:url(#linearGradient6651);fill-opacity:1;fill-rule:evenodd;stroke:none;stroke-width:1px;stroke-linecap:butt;stroke-linejoin:miter;stroke-opacity:1"
       d="M 29.65792,1.50793 C 31.07014,5.630428 30.95301,9.768634 30.95301,9.768634 C 30.95301,9.768634 38.78601,10.315941 41.12815,11.362556 C 41.12815,9.651416 31.83065,1.537141 29.65792,1.50793 z"
       id="path4899"
       sodipodi:nodetypes="cccc" />
  </g>
</svg>
