<?xml version="1.0" encoding="UTF-8" standalone="no"?>
<!-- Created with Inkscape (http://www.inkscape.org/) -->
<svg
   xmlns:dc="http://purl.org/dc/elements/1.1/"
   xmlns:cc="http://creativecommons.org/ns#"
   xmlns:rdf="http://www.w3.org/1999/02/22-rdf-syntax-ns#"
   xmlns:svg="http://www.w3.org/2000/svg"
   xmlns="http://www.w3.org/2000/svg"
   xmlns:xlink="http://www.w3.org/1999/xlink"
   xmlns:sodipodi="http://sodipodi.sourceforge.net/DTD/sodipodi-0.dtd"
   xmlns:inkscape="http://www.inkscape.org/namespaces/inkscape"
   width="48px"
   height="48px"
   id="svg4278"
   sodipodi:version="0.32"
   inkscape:version="0.46"
   sodipodi:docname="audio-x-ms-wma.svg"
   inkscape:output_extension="org.inkscape.output.svg.inkscape">
  <defs
     id="defs4280">
    <radialGradient
       inkscape:collect="always"
       xlink:href="#linearGradient5060"
       id="radialGradient6645"
       gradientUnits="userSpaceOnUse"
       gradientTransform="matrix(2.4097175e-2,0,0,1.5374761e-2,26.477584,38.629039)"
       cx="605.71429"
       cy="486.64789"
       fx="605.71429"
       fy="486.64789"
       r="117.14286" />
    <linearGradient
       id="linearGradient5060"
       inkscape:collect="always">
      <stop
         id="stop5062"
         offset="0"
         style="stop-color:black;stop-opacity:1;" />
      <stop
         id="stop5064"
         offset="1"
         style="stop-color:black;stop-opacity:0;" />
    </linearGradient>
    <radialGradient
       inkscape:collect="always"
       xlink:href="#linearGradient5060"
       id="radialGradient6643"
       gradientUnits="userSpaceOnUse"
       gradientTransform="matrix(-2.409717e-2,0,0,1.5374761e-2,21.522412,38.629039)"
       cx="605.71429"
       cy="486.64789"
       fx="605.71429"
       fy="486.64789"
       r="117.14286" />
    <linearGradient
       id="linearGradient5048">
      <stop
         id="stop5050"
         offset="0"
         style="stop-color:black;stop-opacity:0;" />
      <stop
         style="stop-color:black;stop-opacity:1;"
         offset="0.5"
         id="stop5056" />
      <stop
         id="stop5052"
         offset="1"
         style="stop-color:black;stop-opacity:0;" />
    </linearGradient>
    <linearGradient
       inkscape:collect="always"
       xlink:href="#linearGradient5048"
       id="linearGradient6641"
       gradientUnits="userSpaceOnUse"
       gradientTransform="matrix(7.0414201e-2,0,0,1.5374761e-2,-1.4497047,38.629007)"
       x1="302.85715"
       y1="366.64789"
       x2="302.85715"
       y2="609.50507" />
    <linearGradient
       id="linearGradient3104">
      <stop
         id="stop3106"
         offset="0"
         style="stop-color:#aaaaaa;stop-opacity:1;" />
      <stop
         id="stop3108"
         offset="1"
         style="stop-color:#d2d2d2;stop-opacity:1;" />
    </linearGradient>
    <linearGradient
       inkscape:collect="always"
       xlink:href="#linearGradient3104"
       id="linearGradient8192"
       gradientUnits="userSpaceOnUse"
       gradientTransform="matrix(0.8074968,0,0,0.9358511,59.410236,-1.114479)"
       x1="-51.786404"
       y1="50.786446"
       x2="-51.786404"
       y2="2.9062471" />
    <linearGradient
       inkscape:collect="always"
       id="linearGradient3600">
      <stop
         style="stop-color:#f4f4f4;stop-opacity:1"
         offset="0"
         id="stop3602" />
      <stop
         style="stop-color:#dbdbdb;stop-opacity:1"
         offset="1"
         id="stop3604" />
    </linearGradient>
    <linearGradient
       inkscape:collect="always"
       xlink:href="#linearGradient3600"
       id="linearGradient8190"
       gradientUnits="userSpaceOnUse"
       x1="25.132275"
       y1="6.7287393"
       x2="25.132275"
       y2="47.013336" />
    <radialGradient
       inkscape:collect="always"
       xlink:href="#linearGradient5670"
       id="radialGradient6651"
       gradientUnits="userSpaceOnUse"
       gradientTransform="matrix(1,0,0,0.190476,0,37.13016)"
       cx="22.90196"
       cy="45.866665"
       fx="22.90196"
       fy="45.866665"
       r="7.9058824" />
    <linearGradient
       inkscape:collect="always"
       id="linearGradient5670">
      <stop
         offset="0"
         id="stop5672"
         style="stop-color:black;stop-opacity:1;" />
      <stop
         offset="1"
         id="stop5674"
         style="stop-color:black;stop-opacity:0;" />
    </linearGradient>
    <radialGradient
       inkscape:collect="always"
       xlink:href="#linearGradient5670"
       id="radialGradient6653"
       gradientUnits="userSpaceOnUse"
       gradientTransform="matrix(1,0,0,0.190476,0,37.13016)"
       cx="22.90196"
       cy="45.866665"
       fx="22.90196"
       fy="45.866665"
       r="7.9058824" />
    <linearGradient
       inkscape:collect="always"
       id="linearGradient4252">
      <stop
         style="stop-color:#6a9ab8;stop-opacity:1;"
         offset="0"
         id="stop4254" />
      <stop
         style="stop-color:#73a1bd;stop-opacity:1"
         offset="1"
         id="stop4256" />
    </linearGradient>
    <linearGradient
       inkscape:collect="always"
       xlink:href="#linearGradient4252"
       id="linearGradient8183"
       gradientUnits="userSpaceOnUse"
       gradientTransform="matrix(1.1203411,0,0,1.1203411,-3.02536,-4.307281)"
       x1="22.68783"
       y1="16.423281"
       x2="22.68783"
       y2="29.039593" />
    <radialGradient
       inkscape:collect="always"
       xlink:href="#linearGradient7067"
       id="radialGradient6657"
       gradientUnits="userSpaceOnUse"
       gradientTransform="matrix(1,0,0,0.569469,0,17.67708)"
       cx="17.058823"
       cy="41.058823"
       fx="17.843975"
       fy="44.178165"
       r="5.7384715" />
    <linearGradient
       inkscape:collect="always"
       xlink:href="#linearGradient3686"
       id="linearGradient6659"
       gradientUnits="userSpaceOnUse"
       x1="16.574366"
       y1="37.638168"
       x2="18.514551"
       y2="46.079796" />
    <linearGradient
       id="linearGradient7067">
      <stop
         style="stop-color:#bbd8ea;stop-opacity:1;"
         id="stop7069"
         offset="0" />
      <stop
         style="stop-color:#6a9ab8;stop-opacity:1"
         id="stop7071"
         offset="1" />
    </linearGradient>
    <radialGradient
       inkscape:collect="always"
       xlink:href="#linearGradient7067"
       id="radialGradient6661"
       gradientUnits="userSpaceOnUse"
       gradientTransform="matrix(1,0,0,0.569469,0,17.67708)"
       cx="17.058823"
       cy="41.058823"
       fx="17.843975"
       fy="44.178165"
       r="5.7384715" />
    <linearGradient
       inkscape:collect="always"
       id="linearGradient3686">
      <stop
         offset="0"
         id="stop3688"
         style="stop-color:white;stop-opacity:1;" />
      <stop
         offset="1"
         id="stop3690"
         style="stop-color:white;stop-opacity:0;" />
    </linearGradient>
    <linearGradient
       inkscape:collect="always"
       xlink:href="#linearGradient3686"
       id="linearGradient6663"
       gradientUnits="userSpaceOnUse"
       gradientTransform="scale(1.3693064,0.7302968)"
       x1="11.128633"
       y1="51.807358"
       x2="12.458002"
       y2="61.909195" />
    <linearGradient
       inkscape:collect="always"
       xlink:href="#linearGradient2372"
       id="linearGradient8176"
       gradientUnits="userSpaceOnUse"
       gradientTransform="matrix(0.2214737,0,0,0.2231125,14.869197,-17.513452)"
       x1="28.739122"
       y1="144.11652"
       x2="25.400293"
       y2="119.86452" />
    <linearGradient
       id="linearGradient2372">
      <stop
         style="stop-color:#bbd8ea;stop-opacity:1;"
         id="stop2374"
         offset="0" />
      <stop
         style="stop-color:#6a9ab8;stop-opacity:1"
         id="stop2376"
         offset="1" />
    </linearGradient>
    <linearGradient
       inkscape:collect="always"
       xlink:href="#linearGradient2372"
       id="linearGradient8173"
       gradientUnits="userSpaceOnUse"
       gradientTransform="matrix(0.2214737,0,0,0.2231125,27.075255,-19.091889)"
       x1="28.739122"
       y1="144.11652"
       x2="26.256771"
       y2="125.39074" />
    <linearGradient
       id="linearGradient8589">
      <stop
         id="stop8591"
         offset="0"
         style="stop-color:#fefefe;stop-opacity:1" />
      <stop
         id="stop8593"
         offset="1"
         style="stop-color:#cbcbcb;stop-opacity:1;" />
    </linearGradient>
    <linearGradient
       inkscape:collect="always"
       xlink:href="#linearGradient8589"
       id="linearGradient8168"
       gradientUnits="userSpaceOnUse"
       gradientTransform="matrix(0.9976985,0,0,1.0642049,0.163803,-0.139256)"
       x1="32.892288"
       y1="8.0590115"
       x2="36.358372"
       y2="5.4565363" />
  </defs>
  <sodipodi:namedview
     id="base"
     pagecolor="#ffffff"
     bordercolor="#666666"
     borderopacity="1.0"
     inkscape:pageopacity="0.0"
     inkscape:pageshadow="2"
     inkscape:zoom="7"
     inkscape:cx="24"
     inkscape:cy="24"
     inkscape:current-layer="layer1"
     showgrid="true"
     inkscape:grid-bbox="true"
     inkscape:document-units="px"
     inkscape:window-width="640"
     inkscape:window-height="720"
     inkscape:window-x="0"
     inkscape:window-y="91" />
  <metadata
     id="metadata4283">
    <rdf:RDF>
      <cc:Work
         rdf:about="">
        <dc:format>image/svg+xml</dc:format>
        <dc:type
           rdf:resource="http://purl.org/dc/dcmitype/StillImage" />
      </cc:Work>
    </rdf:RDF>
  </metadata>
  <g
     id="layer1"
     inkscape:label="Layer 1"
     inkscape:groupmode="layer">
    <g
       style="display:inline"
       id="g4344"
       transform="matrix(0.9561265,0,0,0.9561265,1.052964,2.105928)">
      <rect
         style="opacity:0.40206185;fill:url(#linearGradient6641);fill-opacity:1;fill-rule:nonzero;stroke:none;stroke-width:1;stroke-linecap:round;stroke-linejoin:miter;marker:none;marker-start:none;marker-mid:none;marker-end:none;stroke-miterlimit:4;stroke-dasharray:none;stroke-dashoffset:0;stroke-opacity:1;visibility:visible;display:inline;overflow:visible"
         id="rect4346"
         width="34"
         height="3.7338707"
         x="7"
         y="44.266129" />
      <path
         sodipodi:nodetypes="cccc"
         id="path4348"
         d="M 7,44.266291 C 7,44.266291 7,47.999956 7,47.999956 C 5.7590552,48.006985 4,47.163431 4,46.132883 C 4,45.102336 5.3848007,44.266292 7,44.266291 z"
         style="opacity:0.40206185;fill:url(#radialGradient6643);fill-opacity:1;fill-rule:nonzero;stroke:none;stroke-width:1;stroke-linecap:round;stroke-linejoin:miter;marker:none;marker-start:none;marker-mid:none;marker-end:none;stroke-miterlimit:4;stroke-dasharray:none;stroke-dashoffset:0;stroke-opacity:1;visibility:visible;display:inline;overflow:visible" />
      <path
         sodipodi:nodetypes="cccc"
         id="path4350"
         d="M 41,44.266291 C 41,44.266291 41,47.999956 41,47.999956 C 42.240944,48.006985 44,47.163431 44,46.132883 C 44,45.102336 42.615199,44.266292 41,44.266291 z"
         style="opacity:0.40206185;fill:url(#radialGradient6645);fill-opacity:1;fill-rule:nonzero;stroke:none;stroke-width:1;stroke-linecap:round;stroke-linejoin:miter;marker:none;marker-start:none;marker-mid:none;marker-end:none;stroke-miterlimit:4;stroke-dasharray:none;stroke-dashoffset:0;stroke-opacity:1;visibility:visible;display:inline;overflow:visible" />
    </g>
    <path
       style="display:inline;fill:url(#linearGradient8190);fill-opacity:1;stroke:url(#linearGradient8192);stroke-width:0.99992179999999997;stroke-linecap:butt;stroke-linejoin:round;stroke-miterlimit:4;stroke-dasharray:none;stroke-dashoffset:0;stroke-opacity:1"
       d="M 6.499961,1.499963 C 14.520256,1.499963 22.540551,1.499963 30.560847,1.499963 C 31.96778,1.985342 39.526301,7.515098 41.500042,11.343915 C 41.500042,23.062624 41.500042,34.781333 41.500042,46.500042 C 29.833348,46.500042 18.166655,46.500042 6.499961,46.500042 C 6.499961,31.500015 6.499961,16.499989 6.499961,1.499963 z"
       id="path4352"
       sodipodi:nodetypes="cccccc" />
    <path
       id="path2704"
       sodipodi:cx="22.90196"
       sodipodi:cy="45.866665"
       transform="matrix(0.6976533,0,0,1.5729478,13.473656,-40.628911)"
       d="M 30.807843,45.866665 A 7.9058824,1.5058824 0 1 1 14.996078,45.866665 A 7.9058824,1.5058824 0 1 1 30.807843,45.866665 z"
       sodipodi:type="arc"
       style="display:inline;opacity:0.29999999999999999;fill:url(#radialGradient6651);fill-opacity:1;stroke:none;stroke-width:1;stroke-linecap:round;stroke-linejoin:round;stroke-miterlimit:4;stroke-dasharray:none;stroke-opacity:1"
       sodipodi:ry="1.5058824"
       sodipodi:rx="7.9058824" />
    <path
       id="path4121"
       sodipodi:cx="22.90196"
       sodipodi:cy="45.866665"
       transform="matrix(0.7587453,0,0,1.7106875,0.160871,-45.014624)"
       d="M 30.807843,45.866665 A 7.9058824,1.5058824 0 1 1 14.996078,45.866665 A 7.9058824,1.5058824 0 1 1 30.807843,45.866665 z"
       sodipodi:type="arc"
       style="display:inline;opacity:0.29999999999999999;fill:url(#radialGradient6653);fill-opacity:1;stroke:none;stroke-width:1;stroke-linecap:round;stroke-linejoin:round;stroke-miterlimit:4;stroke-dasharray:none;stroke-opacity:1"
       sodipodi:ry="1.5058824"
       sodipodi:rx="7.9058824" />
    <path
       style="display:inline;fill:none;fill-rule:evenodd;stroke:none;stroke-width:1;stroke-linecap:square;stroke-linejoin:round;stroke-miterlimit:4;stroke-dasharray:none;stroke-opacity:0.58128075999999995"
       d="M 33.424367,26.68291 L 32.782366,21.562311"
       id="path2931" />
    <path
       sodipodi:nodetypes="ccccccccccccccc"
       id="path2933"
       d="M 32.903271,8.405274 C 28.624092,9.074256 24.868123,9.737454 20.589484,10.410048 C 19.828539,10.729991 20.022672,11.725376 20.001631,12.410785 C 20.001631,17.111721 20.001631,21.812655 20.001631,26.513592 C 16.767121,25.552647 13.441635,28.219836 13.856169,31.253647 C 14.134428,33.158029 16.245015,34.099287 17.906009,33.635828 C 19.989683,33.207161 21.815325,31.164528 21.599961,28.872925 C 21.599961,24.412172 21.599961,19.951423 21.599961,15.49067 C 24.906902,15.025915 28.970848,14.318336 32.277789,13.85358 C 32.277789,17.375786 32.277789,21.262228 32.277789,24.784433 C 28.743014,23.568567 25.628353,26.262812 25.874634,29.238311 C 26.024348,31.060598 27.925011,32.148673 29.548482,31.854247 C 31.806321,31.603097 33.880214,29.448773 33.643196,26.998156 C 33.634157,21.088622 33.659714,15.17436 33.63346,9.26718 C 33.566738,8.856494 33.351327,8.426647 32.903271,8.405274 z"
       style="display:inline;fill:#84acc5;fill-opacity:1;stroke:#517492;stroke-width:1.55951476000000011;stroke-linecap:round;stroke-linejoin:round;stroke-miterlimit:4;stroke-dasharray:none;stroke-opacity:1" />
    <path
       sodipodi:nodetypes="ccccsssssssssssssssssssssssccccccsssccccccc"
       d="M 32.897843,8.321736 L 20.882645,10.316484 C 20.469575,10.316484 20.147312,10.734178 20.147312,11.254164 L 20.147312,27.480043 C 19.905813,27.399234 19.007917,27.525408 18.732734,27.499086 C 18.713686,27.497266 18.693869,27.500631 18.674681,27.499086 C 18.562838,27.489365 18.442631,27.478537 18.326364,27.478702 C 18.132764,27.478973 17.930758,27.489299 17.726487,27.519468 C 15.813427,27.802012 14.262677,29.273056 14.262677,30.801337 C 14.262677,31.565474 14.641634,32.207061 15.268923,32.615533 C 15.582334,32.820512 15.957516,32.964121 16.371925,33.043607 C 16.786506,33.122539 17.248222,33.134627 17.726487,33.06399 C 17.959288,33.029609 18.183787,32.968427 18.403771,32.900916 C 18.489417,32.87449 18.572086,32.830017 18.655332,32.798994 C 18.788722,32.749419 18.935318,32.716869 19.061698,32.656304 C 19.069828,32.652407 19.072952,32.639866 19.081047,32.635919 C 19.479984,32.441732 19.839389,32.205749 20.145348,31.92247 C 20.159217,31.909631 20.17041,31.894691 20.184049,31.881702 C 20.326939,31.746448 20.454757,31.60338 20.57107,31.453632 C 20.582954,31.43832 20.598183,31.42831 20.609771,31.412862 C 20.652908,31.355501 20.667625,31.288482 20.706526,31.229408 C 20.780128,31.117561 20.861956,31.020286 20.919385,30.903255 C 20.925813,30.890173 20.932519,30.875631 20.938734,30.862489 C 21.007496,30.717151 21.051998,30.564988 21.093543,30.414035 C 21.09943,30.392775 21.107569,30.374224 21.112895,30.352881 C 21.114471,30.346493 21.111366,30.338889 21.112895,30.332497 C 21.134642,30.242266 21.159677,30.158906 21.170946,30.067502 C 21.17942,29.999663 21.187844,29.931916 21.190298,29.863658 L 21.383807,29.863658 C 21.51248,29.863658 21.616017,29.754593 21.616017,29.619047 L 21.616017,15.381099 L 32.241802,13.63912 L 32.241802,25.828915 C 31.719413,25.653845 30.41725,25.771677 29.762741,25.868344 C 27.849687,26.150885 26.298935,27.601549 26.298935,29.129826 C 26.298935,30.658111 27.849687,31.675024 29.762741,31.392479 C 31.63332,31.116211 33.159702,29.703789 33.226555,28.212534 L 33.439416,28.212534 C 33.56809,28.212534 33.671625,28.103468 33.671625,27.967922 L 33.671625,13.556244 L 33.671625,12.679722 L 33.671625,9.431788 C 33.671625,8.911802 33.310913,8.321736 32.897843,8.321736 z"
       id="path2935"
       style="display:inline;fill:url(#linearGradient8183);fill-opacity:1;stroke:none;stroke-width:1;stroke-linecap:round;stroke-linejoin:round;stroke-miterlimit:4;stroke-dasharray:none;stroke-opacity:1" />
    <path
       id="path2937"
       sodipodi:cx="17.058823"
       sodipodi:cy="41.058823"
       transform="matrix(0.7358916,-0.1256885,0,1.2747451,5.173736,-20.197108)"
       d="M 22.35294,41.058823 A 5.2941175,2.8235295 0 1 1 11.764705,41.058823 A 5.2941175,2.8235295 0 1 1 22.35294,41.058823 z"
       sodipodi:type="arc"
       style="display:inline;fill:url(#radialGradient6657);fill-opacity:1;stroke:none;stroke-width:1.14709269999999997;stroke-linecap:round;stroke-linejoin:round;stroke-miterlimit:4;stroke-dasharray:none;stroke-opacity:1"
       sodipodi:ry="2.8235295"
       sodipodi:rx="5.2941175" />
    <path
       id="path2939"
       sodipodi:cx="17.058823"
       sodipodi:cy="41.058823"
       transform="matrix(0.5351933,-9.5565985e-2,0,0.6154063,8.243228,5.425243)"
       d="M 22.35294,41.058823 A 5.2941175,2.8235295 0 1 1 11.764705,41.058823 A 5.2941175,2.8235295 0 1 1 22.35294,41.058823 z"
       sodipodi:type="arc"
       style="display:inline;fill:url(#linearGradient6659);fill-opacity:1;stroke:none;stroke-width:1.93589067000000004;stroke-linecap:round;stroke-linejoin:round;stroke-miterlimit:4;stroke-dasharray:none;stroke-opacity:0.29556651000000000"
       sodipodi:ry="2.8235295"
       sodipodi:rx="5.2941175" />
    <path
       id="path2941"
       sodipodi:cx="17.058823"
       sodipodi:cy="41.058823"
       transform="matrix(0.7358916,-0.1256885,0,1.2747451,17.215608,-22.027527)"
       d="M 22.35294,41.058823 A 5.2941175,2.8235295 0 1 1 11.764705,41.058823 A 5.2941175,2.8235295 0 1 1 22.35294,41.058823 z"
       sodipodi:type="arc"
       style="display:inline;fill:url(#radialGradient6661);fill-opacity:1;stroke:none;stroke-width:1.14709269999999997;stroke-linecap:round;stroke-linejoin:round;stroke-miterlimit:4;stroke-dasharray:none;stroke-opacity:1"
       sodipodi:ry="2.8235295"
       sodipodi:rx="5.2941175" />
    <path
       id="path2943"
       sodipodi:cx="17.058823"
       sodipodi:cy="41.058823"
       transform="matrix(0.5351933,-9.5565985e-2,0,0.6154063,20.285101,3.594828)"
       d="M 22.35294,41.058823 A 5.2941175,2.8235295 0 1 1 11.764705,41.058823 A 5.2941175,2.8235295 0 1 1 22.35294,41.058823 z"
       sodipodi:type="arc"
       style="display:inline;fill:url(#linearGradient6663);fill-opacity:1;stroke:none;stroke-width:1.93589067000000004;stroke-linecap:round;stroke-linejoin:round;stroke-miterlimit:4;stroke-dasharray:none;stroke-opacity:0.29556651000000000"
       sodipodi:ry="2.8235295"
       sodipodi:rx="5.2941175" />
    <path
       sodipodi:nodetypes="ccccsssc"
       style="display:inline;fill:url(#linearGradient8176);fill-opacity:1;fill-rule:evenodd;stroke:none;stroke-width:1;stroke-linecap:butt;stroke-linejoin:round;stroke-miterlimit:4;stroke-dasharray:none;stroke-opacity:1"
       d="M 20.016134,26.731482 L 19.922141,11.485121 C 19.922141,11.485121 20.133788,10.510601 20.805043,10.364883 C 21.075746,10.318017 32.924671,8.327319 32.924671,8.327319 C 32.924671,8.327319 31.820266,11.22743 26.550209,11.983671 C 22.782014,12.526479 20.47064,12.736111 20.483374,15.002883 C 20.496015,17.293038 20.418869,18.504934 20.418869,26.843848 C 20.418869,26.903509 20.339586,26.813904 20.016134,26.731482 z"
       id="path2945" />
    <path
       sodipodi:nodetypes="cccsc"
       style="display:inline;fill:url(#linearGradient8173);fill-opacity:1;fill-rule:evenodd;stroke:none;stroke-width:1;stroke-linecap:butt;stroke-linejoin:round;stroke-miterlimit:4;stroke-dasharray:none;stroke-opacity:1"
       d="M 32.222191,24.999824 L 32.251708,13.634143 C 32.56278,13.578173 32.299469,13.625118 32.718935,13.541299 C 32.724685,15.664293 32.624928,17.094205 32.624928,25.11219 C 32.624928,25.17185 32.545648,25.082245 32.222191,24.999824 z"
       id="path2947" />
    <path
       style="display:inline;fill:#000000;fill-opacity:0.32663316999999997;fill-rule:evenodd;stroke:#000000;stroke-width:0.50000000000000000;stroke-linecap:butt;stroke-linejoin:round;stroke-miterlimit:4;stroke-dasharray:none;stroke-opacity:0.16582917000000000"
       d="M 29.767542,1.814621 C 30.405044,5.939681 30.377,10.849089 30.377,10.849089 C 30.377,10.849089 35.246733,10.737589 41.262254,11.443018 C 36.365369,6.655219 32.933798,4.658837 29.767542,1.814621 z"
       id="path4882"
       sodipodi:nodetypes="cccc" />
    <path
       style="display:inline;fill:url(#linearGradient8168);fill-opacity:1;fill-rule:evenodd;stroke:none;stroke-width:1px;stroke-linecap:butt;stroke-linejoin:miter;stroke-opacity:1"
       d="M 29.657926,1.50793 C 31.07014,5.630428 30.953016,9.768634 30.953016,9.768634 C 30.953016,9.768634 38.786014,10.315941 41.128148,11.362556 C 41.128148,9.651416 31.83065,1.537141 29.657926,1.50793 z"
       id="path4884"
       sodipodi:nodetypes="cccc" />
    <path
       style="display:inline;font-size:11.69507122000000088px;font-style:normal;font-weight:normal;line-height:125%;fill:#808080;fill-opacity:1;stroke:none;stroke-width:1px;stroke-linecap:butt;stroke-linejoin:miter;stroke-opacity:1;font-family:Bitstream Vera Sans"
       d="M 11.681952,37.435992 C 12.233965,37.435992 12.785979,37.435992 13.337992,37.435992 C 13.636206,38.660574 13.93442,39.885155 14.232635,41.109736 C 14.532435,39.885155 14.832235,38.660574 15.132035,37.435992 C 15.606323,37.435992 16.08061,37.435992 16.554898,37.435992 C 16.853112,38.647883 17.151327,39.859775 17.449541,41.071666 C 17.749342,39.859775 18.049142,38.647883 18.348942,37.435992 C 18.900955,37.435992 19.452969,37.435992 20.004982,37.435992 C 19.53704,39.212587 19.069097,40.989182 18.601155,42.765777 C 17.980932,42.765777 17.36071,42.765777 16.740488,42.765777 C 16.440688,41.544368 16.140888,40.322959 15.841088,39.10155 C 15.542873,40.322959 15.244659,41.544368 14.946445,42.765777 C 14.326223,42.765777 13.706001,42.765777 13.085778,42.765777 C 12.617836,40.989182 12.149894,39.212587 11.681952,37.435992 z M 26.100924,38.321116 C 26.722058,37.170487 28.583811,36.897651 29.359095,38.0234 C 29.923808,38.963656 29.66876,40.096935 29.727082,41.137189 C 29.727082,41.680052 29.727082,42.222914 29.727082,42.765777 C 29.156033,42.765777 28.584985,42.765777 28.013937,42.765777 C 27.997506,41.570827 28.04964,40.370841 27.98181,39.180071 C 27.776113,38.084402 26.24691,38.71128 26.338634,39.631184 C 26.253008,40.672315 26.314755,41.72118 26.296032,42.765777 C 25.724984,42.765777 25.153936,42.765777 24.582888,42.765777 C 24.559811,41.553288 24.638218,40.335023 24.5234,39.127502 C 24.290742,38.077236 22.811076,38.751265 22.902457,39.632225 C 22.826697,40.673569 22.881755,41.721499 22.864983,42.765777 C 22.293935,42.765777 21.722887,42.765777 21.151839,42.765777 C 21.151839,40.989182 21.151839,39.212587 21.151839,37.435992 C 21.722887,37.435992 22.293935,37.435992 22.864983,37.435992 C 22.900723,37.738083 22.73168,38.579639 23.113254,37.90882 C 23.91089,36.976331 25.621016,37.145323 26.100925,38.321116 L 26.100924,38.321116 z M 33.714905,40.367373 C 32.502065,40.041547 32.263893,42.012433 33.580469,41.765847 C 34.263598,41.721549 34.686694,41.005823 34.600029,40.367373 C 34.304988,40.367373 34.009946,40.367373 33.714905,40.367373 z M 36.317932,39.724944 C 36.317932,40.738555 36.317932,41.752166 36.317932,42.765777 C 35.745298,42.765777 35.172664,42.765777 34.600029,42.765777 C 34.567674,42.438587 34.732379,41.607836 34.33101,42.303064 C 33.390055,43.334529 31.215381,43.042582 30.958406,41.534454 C 30.718341,40.567863 31.403054,39.565229 32.399113,39.463215 C 33.122817,39.308739 33.865752,39.364658 34.600029,39.353763 C 34.665671,38.315698 33.34179,38.389836 32.632291,38.482842 C 32.1762,38.349925 31.2295,39.289326 31.392641,38.473671 C 31.462613,38.18388 31.239487,37.66205 31.529529,37.546485 C 32.824843,37.304166 34.30155,37.059813 35.503519,37.744716 C 36.152435,38.168929 36.323189,39.000973 36.317934,39.724944 L 36.317932,39.724944 z"
       id="path6045" />
  </g>
</svg>
