<svg xmlns="http://www.w3.org/2000/svg" xmlns:xlink="http://www.w3.org/1999/xlink" viewBox="0 0 48 48"><defs><linearGradient x1="24" y1="5.564" x2="24" y2="43" id="k" xlink:href="#a" gradientUnits="userSpaceOnUse" gradientTransform="matrix(.8919 0 0 1.13514 2.595 -4.743)"/><linearGradient id="a"><stop offset="0" stop-color="#fff"/><stop offset=".036" stop-color="#fff" stop-opacity=".235"/><stop offset=".951" stop-color="#fff" stop-opacity=".157"/><stop offset="1" stop-color="#fff" stop-opacity=".392"/></linearGradient><radialGradient cx="7.806" cy="9.957" r="12.672" fx="7.276" fy="9.957" id="i" xlink:href="#b" gradientUnits="userSpaceOnUse" gradientTransform="matrix(0 6.60187 -8.0922 0 104.55 -60.077)"/><linearGradient id="b"><stop offset="0" stop-color="#90dbec"/><stop offset=".262" stop-color="#55c1ec"/><stop offset=".705" stop-color="#3689e6"/><stop offset="1" stop-color="#2b63a0"/></linearGradient><linearGradient x1="25" y1="47.935" x2="25" y2=".918" id="j" xlink:href="#c" gradientUnits="userSpaceOnUse"/><linearGradient id="c"><stop offset="0" stop-color="#185f9a"/><stop offset="1" stop-color="#599ec9"/></linearGradient><radialGradient cx="605.714" cy="486.648" r="117.143" fx="605.714" fy="486.648" id="h" xlink:href="#d" gradientUnits="userSpaceOnUse" gradientTransform="matrix(.02304 0 0 .0147 26.36 37.04)"/><linearGradient id="d"><stop offset="0"/><stop offset="1" stop-opacity="0"/></linearGradient><radialGradient cx="605.714" cy="486.648" r="117.143" fx="605.714" fy="486.648" id="g" xlink:href="#d" gradientUnits="userSpaceOnUse" gradientTransform="matrix(-.02304 0 0 .0147 21.623 37.04)"/><linearGradient id="e"><stop offset="0" stop-opacity="0"/><stop offset=".5"/><stop offset="1" stop-opacity="0"/></linearGradient><linearGradient x1="302.857" y1="366.648" x2="302.857" y2="609.505" id="f" xlink:href="#e" gradientUnits="userSpaceOnUse" gradientTransform="matrix(.06732 0 0 .0147 -.34 37.04)"/></defs><path opacity=".3" fill="url(#f)" overflow="visible" d="M7.738 42.43h32.508V46H7.738z"/><path d="M7.738 42.43V46c-1.187.007-2.87-.8-2.87-1.785 0-.986 1.326-1.785 2.87-1.785z" opacity=".3" fill="url(#g)" overflow="visible"/><path d="M40.246 42.43V46c1.187.007 2.87-.8 2.87-1.785 0-.986-1.326-1.785-2.87-1.785z" opacity=".3" fill="url(#h)" overflow="visible"/><path d="M6.5.497L41.5.5v44.003h-35V.497z" color="#000" fill="url(#i)" stroke="url(#j)" stroke-linejoin="round" overflow="visible"/><path d="M40.5 43.5h-33v-42h33z" opacity=".5" fill="none" stroke="url(#k)" stroke-linecap="round" stroke-linejoin="round"/><path d="M17.75 14.75a29.98 29.98 0 0 0-4.75.406V32h4v-6.094s7.882.732 8.03-5.03c0 0 1.04-6.193-7.28-6.126zm.406 3c2.427.01 3.062.87 3.125 2.47 0 3.352-4.28 2.53-4.28 2.53v-4.938c.43-.032.81-.063 1.16-.062zm12.25 1.47c-.97.043-1.93.268-2.78.75-1.58.93-1.777 3.2-.907 4.686 1.08 1.605 3.17 1.835 4.65 2.938.75.498.36 1.763-.5 1.843-1.59.26-3.198-.315-4.63-.968v2.28c-.2.67.63.69 1.094.87 1.72.413 3.58.48 5.28-.067 1.502-.44 2.582-1.938 2.5-3.5 0-.418-.08-.82-.218-1.218-.59-1.64-2.43-2.176-3.844-2.876-.9-.23-2.226-1.357-1.033-2.126 1.342-.42 2.73.206 3.94.75l.874-2.094c.293-.656-1.126-.646-1.562-.936a9.156 9.156 0 0 0-2.875-.344z" fill="#fff"/></svg>