<svg xmlns="http://www.w3.org/2000/svg" xmlns:xlink="http://www.w3.org/1999/xlink" viewBox="0 0 48 48"><defs><linearGradient x1="24" y1="5.564" x2="24" y2="43" id="m" xlink:href="#a" gradientUnits="userSpaceOnUse" gradientTransform="matrix(.8919 0 0 1.13514 2.595 -4.743)"/><linearGradient id="a"><stop offset="0" stop-color="#fff"/><stop offset=".036" stop-color="#fff" stop-opacity=".235"/><stop offset=".951" stop-color="#fff" stop-opacity=".157"/><stop offset="1" stop-color="#fff" stop-opacity=".392"/></linearGradient><radialGradient cx="7.496" cy="8.45" r="20" fx="7.496" fy="8.45" id="l" xlink:href="#b" gradientUnits="userSpaceOnUse" gradientTransform="matrix(0 1.5561 -1.89433 0 40.007 -10.022)"/><linearGradient id="b"><stop offset="0" stop-color="#ffe452"/><stop offset="1" stop-color="#ffeb41" stop-opacity="0"/></linearGradient><radialGradient cx="7.496" cy="8.45" r="20" fx="7.496" fy="8.45" id="j" xlink:href="#c" gradientUnits="userSpaceOnUse" gradientTransform="matrix(0 2.6366 -2.2187 0 42.748 -18.606)"/><linearGradient id="c"><stop offset="0" stop-color="#ff7a35"/><stop offset="1" stop-color="#f0431a"/></linearGradient><linearGradient x1="13.991" y1="3.963" x2="13.991" y2="43.294" id="k" xlink:href="#d" gradientUnits="userSpaceOnUse" gradientTransform="matrix(.89744 0 0 1.1282 2.462 -4.577)"/><linearGradient id="d"><stop offset="0" stop-color="#dc6838"/><stop offset="1" stop-color="#ba3d12"/></linearGradient><radialGradient cx="605.714" cy="486.648" r="117.143" fx="605.714" fy="486.648" id="i" xlink:href="#e" gradientUnits="userSpaceOnUse" gradientTransform="matrix(.02304 0 0 .0147 26.36 37.04)"/><linearGradient id="e"><stop offset="0"/><stop offset="1" stop-opacity="0"/></linearGradient><radialGradient cx="605.714" cy="486.648" r="117.143" fx="605.714" fy="486.648" id="h" xlink:href="#e" gradientUnits="userSpaceOnUse" gradientTransform="matrix(-.02304 0 0 .0147 21.623 37.04)"/><linearGradient id="f"><stop offset="0" stop-opacity="0"/><stop offset=".5"/><stop offset="1" stop-opacity="0"/></linearGradient><linearGradient x1="302.857" y1="366.648" x2="302.857" y2="609.505" id="g" xlink:href="#f" gradientUnits="userSpaceOnUse" gradientTransform="matrix(.06732 0 0 .0147 -.34 37.04)"/></defs><path opacity=".3" fill="url(#g)" overflow="visible" d="M7.738 42.43h32.508V46H7.738z"/><path d="M7.738 42.43V46c-1.187.007-2.87-.8-2.87-1.785 0-.986 1.326-1.785 2.87-1.785z" opacity=".3" fill="url(#h)" overflow="visible"/><path d="M40.246 42.43V46c1.187.007 2.87-.8 2.87-1.785 0-.986-1.326-1.785-2.87-1.785z" opacity=".3" fill="url(#i)" overflow="visible"/><path d="M6.5.497L41.5.5v44.003h-35V.497z" color="#000" fill="url(#j)" stroke="url(#k)" stroke-linecap="round" stroke-linejoin="round" overflow="visible"/><rect width="34" height="43" rx="1" ry="1" x="7" y="1" opacity=".4" color="#000" fill="url(#l)" overflow="visible"/><path d="M40.5 43.5h-33v-42h33z" opacity=".5" fill="none" stroke="url(#m)" stroke-linecap="round" stroke-linejoin="round"/><path d="M11.095 38.336c0-.46.16-.848.477-1.16a1.586 1.586 0 0 1 1.167-.478c.447 0 .827.16 1.14.478.32.312.477.7.477 1.16 0 .45-.16.833-.477 1.15-.312.314-.692.47-1.14.47a1.6 1.6 0 0 1-1.168-.47 1.552 1.552 0 0 1-.477-1.15M11 30.94v2.724c3.48 0 6.307 2.832 6.307 6.32h2.734c0-4.996-4.054-9.045-9.04-9.045zm.005-5.962v3.01c6.608 0 11.973 5.374 11.973 11.99H26c0-8.282-6.723-15-14.995-15z" style="text-align:start;line-height:125%" font-size="13.59" font-weight="700" fill="#fff" font-family="Bitstream Vera Serif"/></svg>