<?xml version="1.0" encoding="UTF-8" standalone="no"?>
<!-- Created with Inkscape (http://www.inkscape.org/) -->
<svg
   xmlns:dc="http://purl.org/dc/elements/1.1/"
   xmlns:cc="http://creativecommons.org/ns#"
   xmlns:rdf="http://www.w3.org/1999/02/22-rdf-syntax-ns#"
   xmlns:svg="http://www.w3.org/2000/svg"
   xmlns="http://www.w3.org/2000/svg"
   xmlns:xlink="http://www.w3.org/1999/xlink"
   xmlns:sodipodi="http://sodipodi.sourceforge.net/DTD/sodipodi-0.dtd"
   xmlns:inkscape="http://www.inkscape.org/namespaces/inkscape"
   version="1.0"
   width="48"
   height="48"
   id="svg3638"
   sodipodi:version="0.32"
   inkscape:version="0.46"
   sodipodi:docname="text-x-generic.svg"
   inkscape:output_extension="org.inkscape.output.svg.inkscape">
  <metadata
     id="metadata56">
    <rdf:RDF>
      <cc:Work
         rdf:about="">
        <dc:format>image/svg+xml</dc:format>
        <dc:type
           rdf:resource="http://purl.org/dc/dcmitype/StillImage" />
      </cc:Work>
    </rdf:RDF>
  </metadata>
  <sodipodi:namedview
     inkscape:window-height="711"
     inkscape:window-width="676"
     inkscape:pageshadow="2"
     inkscape:pageopacity="0.0"
     guidetolerance="10.0"
     gridtolerance="10.0"
     objecttolerance="10.0"
     borderopacity="1.0"
     bordercolor="#666666"
     pagecolor="#ffffff"
     id="base"
     showgrid="false"
     inkscape:zoom="10.375"
     inkscape:cx="24"
     inkscape:cy="24"
     inkscape:window-x="708"
     inkscape:window-y="91"
     inkscape:current-layer="svg3638" />
  <defs
     id="defs3640">
    <linearGradient
       id="linearGradient5048">
      <stop
         id="stop5050"
         style="stop-color:#000000;stop-opacity:0"
         offset="0" />
      <stop
         id="stop5056"
         style="stop-color:#000000;stop-opacity:1"
         offset="0.5" />
      <stop
         id="stop5052"
         style="stop-color:#000000;stop-opacity:0"
         offset="1" />
    </linearGradient>
    <linearGradient
       id="linearGradient5060">
      <stop
         id="stop5062"
         style="stop-color:#000000;stop-opacity:1"
         offset="0" />
      <stop
         id="stop5064"
         style="stop-color:#000000;stop-opacity:0"
         offset="1" />
    </linearGradient>
    <linearGradient
       id="linearGradient3104">
      <stop
         id="stop3106"
         style="stop-color:#aaaaaa;stop-opacity:1"
         offset="0" />
      <stop
         id="stop3108"
         style="stop-color:#c8c8c8;stop-opacity:1"
         offset="1" />
    </linearGradient>
    <linearGradient
       id="linearGradient3600">
      <stop
         id="stop3602"
         style="stop-color:#f4f4f4;stop-opacity:1"
         offset="0" />
      <stop
         id="stop3604"
         style="stop-color:#dbdbdb;stop-opacity:1"
         offset="1" />
    </linearGradient>
    <radialGradient
       cx="102"
       cy="112.3047"
       r="139.55859"
       id="XMLID_8_"
       gradientUnits="userSpaceOnUse">
      <stop
         id="stop41"
         style="stop-color:#b7b8b9;stop-opacity:1"
         offset="0" />
      <stop
         id="stop47"
         style="stop-color:#ececec;stop-opacity:1"
         offset="0.18851049" />
      <stop
         id="stop49"
         style="stop-color:#fafafa;stop-opacity:0"
         offset="0.25718147" />
      <stop
         id="stop51"
         style="stop-color:#ffffff;stop-opacity:0"
         offset="0.30111277" />
      <stop
         id="stop53"
         style="stop-color:#fafafa;stop-opacity:0"
         offset="0.53130001" />
      <stop
         id="stop55"
         style="stop-color:#ebecec;stop-opacity:0"
         offset="0.84490001" />
      <stop
         id="stop57"
         style="stop-color:#e1e2e3;stop-opacity:0"
         offset="1" />
    </radialGradient>
    <linearGradient
       id="linearGradient3211">
      <stop
         id="stop3213"
         style="stop-color:#ffffff;stop-opacity:1"
         offset="0" />
      <stop
         id="stop3215"
         style="stop-color:#ffffff;stop-opacity:0"
         offset="1" />
    </linearGradient>
    <linearGradient
       id="linearGradient4338">
      <stop
         id="stop4340"
         style="stop-color:#8e8e8e;stop-opacity:1"
         offset="0" />
      <stop
         id="stop4342"
         style="stop-color:#b5b5b5;stop-opacity:1"
         offset="1" />
    </linearGradient>
    <linearGradient
       id="linearGradient8589">
      <stop
         id="stop8591"
         style="stop-color:#fefefe;stop-opacity:1"
         offset="0" />
      <stop
         id="stop8593"
         style="stop-color:#cbcbcb;stop-opacity:1"
         offset="1" />
    </linearGradient>
    <linearGradient
       inkscape:collect="always"
       xlink:href="#linearGradient8589"
       id="linearGradient2432"
       gradientUnits="userSpaceOnUse"
       gradientTransform="matrix(0.9976985,0,0,1.0406866,0.1638029,-1.1057939)"
       x1="32.892288"
       y1="8.0590115"
       x2="36.358372"
       y2="5.4565363" />
    <linearGradient
       inkscape:collect="always"
       xlink:href="#linearGradient4338"
       id="linearGradient2436"
       gradientUnits="userSpaceOnUse"
       gradientTransform="matrix(0.9946067,0,0,1.440776,-0.3759013,-12.863089)"
       x1="22.104254"
       y1="39.698696"
       x2="22.104254"
       y2="9.2626371" />
    <linearGradient
       inkscape:collect="always"
       xlink:href="#linearGradient3211"
       id="linearGradient2439"
       gradientUnits="userSpaceOnUse"
       gradientTransform="matrix(1,0,0,0.9777778,0,-0.9666693)"
       x1="24"
       y1="1.9999999"
       x2="24"
       y2="46.01725" />
    <radialGradient
       inkscape:collect="always"
       xlink:href="#XMLID_8_"
       id="radialGradient2442"
       gradientUnits="userSpaceOnUse"
       gradientTransform="matrix(0.3617022,0,0,-0.3907784,0.8510637,47.517004)"
       cx="102"
       cy="112.3047"
       r="139.55859" />
    <linearGradient
       inkscape:collect="always"
       xlink:href="#linearGradient3600"
       id="linearGradient2445"
       gradientUnits="userSpaceOnUse"
       gradientTransform="matrix(1,0,0,0.9561695,-1.0064697e-7,-1.914922)"
       x1="25.132275"
       y1="0.98520643"
       x2="25.132275"
       y2="47.013336" />
    <linearGradient
       inkscape:collect="always"
       xlink:href="#linearGradient3104"
       id="linearGradient2447"
       gradientUnits="userSpaceOnUse"
       gradientTransform="matrix(0.8074968,0,0,0.8948322,59.410232,-2.9805533)"
       x1="-51.786404"
       y1="50.786446"
       x2="-51.786404"
       y2="2.9062471" />
    <radialGradient
       inkscape:collect="always"
       xlink:href="#linearGradient5060"
       id="radialGradient2450"
       gradientUnits="userSpaceOnUse"
       gradientTransform="matrix(2.3039948e-2,0,0,1.4700216e-2,26.360882,37.040176)"
       cx="605.71429"
       cy="486.64789"
       fx="605.71429"
       fy="486.64789"
       r="117.14286" />
    <radialGradient
       inkscape:collect="always"
       xlink:href="#linearGradient5060"
       id="radialGradient2453"
       gradientUnits="userSpaceOnUse"
       gradientTransform="matrix(-2.3039943e-2,0,0,1.4700216e-2,21.62311,37.040176)"
       cx="605.71429"
       cy="486.64789"
       fx="605.71429"
       fy="486.64789"
       r="117.14286" />
    <linearGradient
       inkscape:collect="always"
       xlink:href="#linearGradient5048"
       id="linearGradient2456"
       gradientUnits="userSpaceOnUse"
       gradientTransform="matrix(6.7324884e-2,0,0,1.4700216e-2,-0.3411391,37.040146)"
       x1="302.85715"
       y1="366.64789"
       x2="302.85715"
       y2="609.50507" />
    <filter
       inkscape:collect="always"
       id="filter3248"
       x="-0.14846256"
       width="1.2969251"
       y="-0.16434373"
       height="1.3286875">
      <feGaussianBlur
         inkscape:collect="always"
         stdDeviation="0.77391625"
         id="feGaussianBlur3250" />
    </filter>
  </defs>
  <rect
     style="opacity:0.3;fill:url(#linearGradient2456);fill-opacity:1;fill-rule:nonzero;stroke:none;stroke-width:1;stroke-linecap:round;stroke-linejoin:miter;marker:none;marker-start:none;marker-mid:none;marker-end:none;stroke-miterlimit:4;stroke-dasharray:none;stroke-dashoffset:0;stroke-opacity:1;visibility:visible;display:inline;overflow:visible"
     id="rect2879"
     y="42.429947"
     x="7.7378473"
     height="3.5700529"
     width="32.508301" />
  <path
     style="opacity:0.3;fill:url(#radialGradient2453);fill-opacity:1;fill-rule:nonzero;stroke:none;stroke-width:1;stroke-linecap:round;stroke-linejoin:miter;marker:none;marker-start:none;marker-mid:none;marker-end:none;stroke-miterlimit:4;stroke-dasharray:none;stroke-dashoffset:0;stroke-opacity:1;visibility:visible;display:inline;overflow:visible"
     id="path2881"
     d="M 7.7378475,42.430102 C 7.7378475,42.430102 7.7378475,45.999958 7.7378475,45.999958 C 6.5513473,46.006679 4.869468,45.200135 4.869468,44.2148 C 4.869468,43.229467 6.1935126,42.430103 7.7378475,42.430102 z" />
  <path
     style="opacity:0.3;fill:url(#radialGradient2450);fill-opacity:1;fill-rule:nonzero;stroke:none;stroke-width:1;stroke-linecap:round;stroke-linejoin:miter;marker:none;marker-start:none;marker-mid:none;marker-end:none;stroke-miterlimit:4;stroke-dasharray:none;stroke-dashoffset:0;stroke-opacity:1;visibility:visible;display:inline;overflow:visible"
     id="path2883"
     d="M 40.246148,42.430102 C 40.246148,42.430102 40.246148,45.999958 40.246148,45.999958 C 41.432648,46.006679 43.114528,45.200135 43.114528,44.2148 C 43.114528,43.229467 41.790483,42.430103 40.246148,42.430102 z" />
  <path
     style="fill:url(#linearGradient2445);fill-opacity:1;stroke:url(#linearGradient2447);stroke-width:0.99992186;stroke-linecap:butt;stroke-linejoin:round;stroke-miterlimit:4;stroke-dasharray:none;stroke-dashoffset:0;stroke-opacity:1;display:inline"
     id="path4160"
     d="M 6.4999609,0.49719878 C 14.520256,0.49719878 22.540551,0.49719878 30.560847,0.49719878 C 31.96778,0.97185188 39.526301,6.3794034 41.500042,10.123605 C 41.500042,21.583338 41.500042,33.04307 41.500042,44.502803 C 29.833348,44.502803 18.166655,44.502803 6.4999609,44.502803 C 6.4999609,29.834268 6.4999609,15.165733 6.4999609,0.49719878 z" />
  <path
     style="fill:url(#radialGradient2442);fill-opacity:1"
     id="path4191"
     d="M 7.3617017,44 C 7.1624047,44 6.9999997,43.824541 6.9999997,43.60922 L 6.9999997,1.4051701 C 6.9999997,1.1894613 7.1624047,1.0143926 7.3617017,1.0143926 C 14.844793,1.1224073 23.137385,0.85281757 30.611384,1.0412872 L 40.894021,9.9073127 L 41,43.60922 C 41,43.824541 40.837957,44 40.638297,44 L 7.3617017,44 z" />
  <path
     style="opacity:0.6;fill:none;fill-opacity:1;stroke:url(#linearGradient2439);stroke-width:0.9999218;stroke-linecap:butt;stroke-linejoin:round;stroke-miterlimit:4;stroke-dasharray:none;stroke-dashoffset:0;stroke-opacity:1;display:inline"
     id="path2435"
     d="M 40.500039,10.258811 C 40.500039,21.207848 40.500039,32.573221 40.500039,43.522258 C 29.500013,43.522258 18.499987,43.522258 7.4999609,43.522258 C 7.4999609,29.507417 7.4999609,15.492577 7.4999609,1.4777367 C 15.061954,1.4777367 22.804295,1.4777367 30.366289,1.4777367" />
  <path
     style="opacity:0.7;fill:url(#linearGradient2436);fill-opacity:1;stroke:none;display:inline"
     id="path3406"
     d="M 11,22 L 13.345838,22 L 13.345838,23 L 11,23 L 11,22 z M 13.665379,22 L 15.878782,22 L 15.878782,23 L 13.665379,23 L 13.665379,22 z M 16.198323,22 L 18.146837,22 L 18.146837,23 L 16.198323,23 L 16.198323,22 z M 18.466379,22 L 19.32225,22 L 19.32225,23 L 18.466379,23 L 18.466379,22 z M 19.641801,22 L 21.557199,22 L 21.557199,23 L 19.641801,23 L 19.641801,22 z M 21.87675,22 L 26.838303,22 L 26.838303,23 L 21.87675,23 L 21.87675,22 z M 27.157844,22 L 30.927425,22 L 30.927425,23 L 27.157844,23 L 27.157844,22 z M 31.246977,22 L 32.400833,22 L 32.400833,23 L 31.246977,23 L 31.246977,22 L 31.246977,22 z M 32.720385,22 L 35,22 L 35,23 L 32.720385,23 L 32.720385,22 L 32.720385,22 z M 11,28 L 14.691817,28 L 14.691817,29 L 11,29 L 11,28 z M 14.965761,28 L 16.741915,28 L 16.741915,29 L 14.965761,29 L 14.965761,28 L 14.965761,28 z M 17.116681,28 L 17.951806,28 L 17.951806,29 L 17.116681,29 L 17.116681,28 z M 18.158533,28 L 19.766647,28 L 19.766647,29 L 18.158533,29 L 18.158533,28 z M 20.040581,28 L 21.648696,28 L 21.648696,29 L 20.040581,29 L 20.040581,28 z M 22.157898,28 L 24.740646,28 L 24.740646,29 L 22.157898,29 L 22.157898,28 z M 25.048194,28 L 28.437536,28 L 28.437536,29 L 25.048194,29 L 25.048194,28 z M 28.913123,28 L 31.193406,28 L 31.193406,29 L 28.913123,29 L 28.913123,28 z M 31.467341,28 L 32,28 L 32,29 L 31.467341,29 L 31.467341,28 L 31.467341,28 z M 11,24 L 14.928045,24 L 14.928045,25 L 11,25 L 11,24 z M 15.235965,24 L 19.444914,24 L 19.444914,25 L 15.235965,25 L 15.235965,24 L 15.235965,24 z M 19.752834,24 L 21.433592,24 L 21.433592,25 L 19.752834,25 L 19.752834,24 z M 21.741512,24 L 25.700766,24 L 25.700766,25 L 21.741512,25 L 21.741512,24 L 21.741512,24 z M 29.027364,24 L 30.083869,24 L 30.083869,25 L 29.027364,25 L 29.027364,24 z M 26.008686,24 L 28.719444,24 L 28.719444,25 L 26.008686,25 L 26.008686,24 z M 30.39179,24 L 31.011322,24 L 31.011322,25 L 30.39179,25 L 30.39179,24 z M 31.319242,24 L 33,24 L 33,25 L 31.319242,25 L 31.319242,24 z M 11,26 L 15.28514,26 L 15.28514,27 L 11,27 L 11,26 z M 15.621053,26 L 20.212633,26 L 20.212633,27 L 15.621053,27 L 15.621053,26 L 15.621053,26 z M 20.548546,26 L 22.382101,26 L 22.382101,27 L 20.548546,27 L 20.548546,26 z M 22.718014,26 L 27.037199,26 L 27.037199,27 L 22.718014,27 L 22.718014,26 L 22.718014,26 z M 30.666215,26 L 31.818767,26 L 31.818767,27 L 30.666215,27 L 30.666215,26 z M 27.373112,26 L 30.330302,26 L 30.330302,27 L 27.373112,27 L 27.373112,26 z M 32.15468,26 L 32.830533,26 L 32.830533,27 L 32.15468,27 L 32.15468,26 z M 33.166446,26 L 35,26 L 35,27 L 33.166446,27 L 33.166446,26 z M 11,20 L 14.061572,20 L 14.061572,21 L 11,21 L 11,20 z M 14.38681,20 L 19.470354,20 L 19.470354,21 L 14.38681,21 L 14.38681,20 z M 19.795592,20 L 22.250568,20 L 22.250568,21 L 19.795592,21 L 19.795592,20 z M 25.187522,20 L 27.137007,20 L 27.137007,21 L 25.187522,21 L 25.187522,20 z M 27.462245,20 L 30.591218,20 L 30.591218,21 L 27.462245,21 L 27.462245,20 z M 30.916446,20 L 36,20 L 36,21 L 30.916446,21 L 30.916446,20 L 30.916446,20 z M 22.575806,20 L 24.862294,20 L 24.862294,21 L 22.575806,21 L 22.575806,20 z M 11,7.9999999 L 13.345838,7.9999999 L 13.345838,9 L 11,9 L 11,7.9999999 z M 13.665379,7.9999999 L 15.878782,7.9999999 L 15.878782,9 L 13.665379,9 L 13.665379,7.9999999 z M 16.198323,7.9999999 L 18.146837,7.9999999 L 18.146837,9 L 16.198323,9 L 16.198323,7.9999999 z M 18.466379,7.9999999 L 19.32225,7.9999999 L 19.32225,9 L 18.466379,9 L 18.466379,7.9999999 z M 19.641801,7.9999999 L 21.557199,7.9999999 L 21.557199,9 L 19.641801,9 L 19.641801,7.9999999 z M 21.87675,7.9999999 L 26.838303,7.9999999 L 26.838303,9 L 21.87675,9 L 21.87675,7.9999999 z M 27.157844,7.9999999 L 30.927425,7.9999999 L 30.927425,9 L 27.157844,9 L 27.157844,7.9999999 z M 31.246977,7.9999999 L 32.400833,7.9999999 L 32.400833,9 L 31.246977,9 L 31.246977,7.9999999 L 31.246977,7.9999999 z M 32.720385,7.9999999 L 35,7.9999999 L 35,9 L 32.720385,9 L 32.720385,7.9999999 L 32.720385,7.9999999 z M 11,10 L 14.691819,10 L 14.691819,11 L 11,11 L 11,10 z M 15.028777,10 L 16.804932,10 L 16.804932,11 L 15.028777,11 L 15.028777,10 z M 17.14189,10 L 17.977015,10 L 17.977015,11 L 17.14189,11 L 17.14189,10 z M 18.313973,10 L 19.922088,10 L 19.922088,11 L 18.313973,11 L 18.313973,10 z M 20.259036,10 L 21.867152,10 L 21.867152,11 L 20.259036,11 L 20.259036,10 z M 22.20411,10 L 24.786859,10 L 24.786859,11 L 22.20411,11 L 22.20411,10 z M 25.123807,10 L 28.51316,10 L 28.51316,11 L 25.123807,11 L 25.123807,10 z M 28.850118,10 L 31.130392,10 L 31.130392,11 L 28.850118,11 L 28.850118,10 z M 31.46735,10 L 32,10 L 32,11 L 31.46735,11 L 31.46735,10 z M 11,14 L 15.28514,14 L 15.28514,15 L 11,15 L 11,14 z M 15.621053,14 L 20.212633,14 L 20.212633,15 L 15.621053,15 L 15.621053,14 L 15.621053,14 z M 20.548546,14 L 22.382101,14 L 22.382101,15 L 20.548546,15 L 20.548546,14 z M 22.718014,14 L 27.037199,14 L 27.037199,15 L 22.718014,15 L 22.718014,14 L 22.718014,14 z M 30.666215,14 L 31.818767,14 L 31.818767,15 L 30.666215,15 L 30.666215,14 z M 27.373112,14 L 30.330302,14 L 30.330302,15 L 27.373112,15 L 27.373112,14 z M 32.15468,14 L 32.830533,14 L 32.830533,15 L 32.15468,15 L 32.15468,14 z M 33.166446,14 L 35,14 L 35,15 L 33.166446,15 L 33.166446,14 z M 11,12 L 14.061572,12 L 14.061572,13 L 11,13 L 11,12 z M 14.38681,12 L 19.470354,12 L 19.470354,13 L 14.38681,13 L 14.38681,12 z M 19.795592,12 L 22.250568,12 L 22.250568,13 L 19.795592,13 L 19.795592,12 z M 25.187522,12 L 27.137007,12 L 27.137007,13 L 25.187522,13 L 25.187522,12 z M 27.462245,12 L 30.591218,12 L 30.591218,13 L 27.462245,13 L 27.462245,12 z M 30.916446,12 L 36,12 L 36,13 L 30.916446,13 L 30.916446,12 L 30.916446,12 z M 22.575806,12 L 24.862294,12 L 24.862294,13 L 22.575806,13 L 22.575806,12 z M 11,16 L 12.633355,16 L 12.633355,17 L 11,17 L 11,16 z M 13.056056,16 L 19,16 L 19,17 L 13.056056,17 L 13.056056,16 L 13.056056,16 z M 11,34 L 14.691817,34 L 14.691817,35 L 11,35 L 11,34 z M 14.965761,34 L 16.741915,34 L 16.741915,35 L 14.965761,35 L 14.965761,34 L 14.965761,34 z M 17.116681,34 L 17.951806,34 L 17.951806,35 L 17.116681,35 L 17.116681,34 z M 18.158533,34 L 19.766647,34 L 19.766647,35 L 18.158533,35 L 18.158533,34 z M 20.040581,34 L 21.648696,34 L 21.648696,35 L 20.040581,35 L 20.040581,34 z M 22.157898,34 L 24.740646,34 L 24.740646,35 L 22.157898,35 L 22.157898,34 z M 25.048194,34 L 28.437536,34 L 28.437536,35 L 25.048194,35 L 25.048194,34 z M 28.913123,34 L 31.193406,34 L 31.193406,35 L 28.913123,35 L 28.913123,34 z M 31.467341,34 L 32,34 L 32,35 L 31.467341,35 L 31.467341,34 L 31.467341,34 z M 11,32 L 14.061572,32 L 14.061572,33 L 11,33 L 11,32 z M 14.38681,32 L 19.470354,32 L 19.470354,33 L 14.38681,33 L 14.38681,32 z M 19.795592,32 L 22.250568,32 L 22.250568,33 L 19.795592,33 L 19.795592,32 z M 25.187522,32 L 27.137007,32 L 27.137007,33 L 25.187522,33 L 25.187522,32 z M 27.462245,32 L 30.591218,32 L 30.591218,33 L 27.462245,33 L 27.462245,32 z M 30.916446,32 L 36,32 L 36,33 L 30.916446,33 L 30.916446,32 L 30.916446,32 z M 22.575806,32 L 24.862294,32 L 24.862294,33 L 22.575806,33 L 22.575806,32 z M 11,36 L 14.868703,36 L 14.868703,37 L 11,37 L 11,36 z M 15.188155,36 L 16.40634,36 L 16.40634,37 L 15.188155,37 L 15.188155,36 L 15.188155,36 z M 16.725792,36 L 19.507109,36 L 19.507109,37 L 16.725792,37 L 16.725792,36 z M 19.826561,36 L 21.724371,36 L 21.724371,37 L 19.826561,37 L 19.826561,36 z M 22.043823,36 L 23.941623,36 L 23.941623,37 L 22.043823,37 L 22.043823,36 z M 24.261086,36 L 27.008415,36 L 27.008415,37 L 24.261086,37 L 24.261086,36 z M 27.327857,36 L 27.900413,36 L 27.900413,37 L 27.327857,37 L 27.327857,36 z M 28.219865,36 L 31.782738,36 L 31.782738,37 L 28.219865,37 L 28.219865,36 z M 32.10219,36 L 34,36 L 34,37 L 32.10219,37 L 32.10219,36 L 32.10219,36 z M 11,38 L 14.796419,38 L 14.796419,39 L 11,39 L 11,38 z M 17.256706,38 L 19.695429,38 L 19.695429,39 L 17.256706,39 L 17.256706,38 z M 20.045642,38 L 22.280707,38 L 22.280707,39 L 20.045642,39 L 20.045642,38 z M 26.036461,38 L 28,38 L 28,39 L 26.036461,39 L 26.036461,38 L 26.036461,38 z M 24.910714,38 L 25.686258,38 L 25.686258,39 L 24.910714,39 L 24.910714,38 z M 22.63092,38 L 24.560501,38 L 24.560501,39 L 22.63092,39 L 22.63092,38 z M 15.146622,38 L 16.906503,38 L 16.906503,39 L 15.146622,39 L 15.146622,38 L 15.146622,38 z" />
  <path
     style="opacity:0.40000000000000002;fill:#000000;fill-opacity:1;fill-rule:evenodd;stroke:none;stroke-width:1px;stroke-linecap:butt;stroke-linejoin:miter;stroke-opacity:1;display:inline;filter:url(#filter3248)"
     id="path12038"
     d="M 28.617256,0.92125832 C 32.899778,0.92125832 30.770506,9.4044296 30.770506,9.4044296 C 30.770506,9.4044296 41.128148,7.6020829 41.128148,12.223174 C 41.128148,9.6134507 29.825844,1.4945784 28.617256,0.92125832 z" />
  <path
     style="fill:url(#linearGradient2432);fill-opacity:1;fill-rule:evenodd;stroke:none;stroke-width:1px;stroke-linecap:butt;stroke-linejoin:miter;stroke-opacity:1;display:inline"
     id="path4474"
     d="M 28.617256,0.92125832 C 31.803749,0.92125832 30.953016,8.5831368 30.953016,8.5831368 C 30.953016,8.5831368 41.128148,7.6020829 41.128148,12.223174 C 41.128148,11.097235 41.214061,10.290929 40.994371,9.9395812 C 39.416058,7.4154025 32.598855,1.7511811 30.137071,1.008793 C 29.952849,0.95323837 29.544367,0.92125832 28.617256,0.92125832 z" />
</svg>
