<svg xmlns="http://www.w3.org/2000/svg" xmlns:xlink="http://www.w3.org/1999/xlink" viewBox="0 0 48 48"><defs><linearGradient x1="24" y1="5.564" x2="24" y2="43" id="k" xlink:href="#a" gradientUnits="userSpaceOnUse" gradientTransform="matrix(.8919 0 0 1.13514 2.595 -4.743)"/><linearGradient id="a"><stop offset="0" stop-color="#fff"/><stop offset=".036" stop-color="#fff" stop-opacity=".235"/><stop offset=".951" stop-color="#fff" stop-opacity=".157"/><stop offset="1" stop-color="#fff" stop-opacity=".392"/></linearGradient><linearGradient x1="25.132" y1=".985" x2="25.132" y2="47.013" id="i" xlink:href="#b" gradientUnits="userSpaceOnUse" gradientTransform="matrix(1 0 0 .95617 0 -1.915)"/><linearGradient id="b"><stop offset="0" stop-color="#f4f4f4"/><stop offset="1" stop-color="#dbdbdb"/></linearGradient><linearGradient x1="-51.786" y1="50.786" x2="-51.786" y2="2.906" id="j" xlink:href="#c" gradientUnits="userSpaceOnUse" gradientTransform="matrix(.8075 0 0 .89483 59.41 -2.98)"/><linearGradient id="c"><stop offset="0" stop-color="#a0a0a0"/><stop offset="1" stop-color="#bebebe"/></linearGradient><radialGradient cx="605.714" cy="486.648" r="117.143" fx="605.714" fy="486.648" id="h" xlink:href="#d" gradientUnits="userSpaceOnUse" gradientTransform="matrix(.02304 0 0 .0147 26.36 37.04)"/><linearGradient id="d"><stop offset="0"/><stop offset="1" stop-opacity="0"/></linearGradient><radialGradient cx="605.714" cy="486.648" r="117.143" fx="605.714" fy="486.648" id="g" xlink:href="#d" gradientUnits="userSpaceOnUse" gradientTransform="matrix(-.02304 0 0 .0147 21.623 37.04)"/><linearGradient id="e"><stop offset="0" stop-opacity="0"/><stop offset=".5"/><stop offset="1" stop-opacity="0"/></linearGradient><linearGradient x1="302.857" y1="366.648" x2="302.857" y2="609.505" id="f" xlink:href="#e" gradientUnits="userSpaceOnUse" gradientTransform="matrix(.06732 0 0 .0147 -.34 37.04)"/></defs><path overflow="visible" opacity=".3" fill="url(#f)" d="M7.738 42.43h32.508V46H7.738z"/><path d="M7.738 42.43V46c-1.187.007-2.87-.8-2.87-1.785 0-.986 1.326-1.785 2.87-1.785z" overflow="visible" opacity=".3" fill="url(#g)"/><path d="M40.246 42.43V46c1.187.007 2.87-.8 2.87-1.785 0-.986-1.326-1.785-2.87-1.785z" overflow="visible" opacity=".3" fill="url(#h)"/><path d="M6.5.497L41.5.5v44.003h-35V.497z" fill="url(#i)" stroke="url(#j)" stroke-linejoin="round"/><path d="M40.5 43.5h-33v-42h33z" fill="none" stroke="url(#k)" stroke-linecap="round" stroke-linejoin="round"/><path style="line-height:100%;-inkscape-font-specification:'URW Palladio L Bold';text-align:start;isolation:auto;mix-blend-mode:normal;filter-blend-mode:normal;filter-gaussianBlur-deviation:0" d="M18 24.213c.258.702.55 1.27 1.168.493.767-.457 3.338-2.458 3.08-.497-.822 3.623-1.825 7.212-2.59 10.85-.802 1.993 1.017 3.795 2.917 2.5 2.02-.833 3.756-2.19 5.53-3.433-.24-.595-.402-1.448-1.07-.67-.88.4-2.8 2.28-3.156.727.734-3.927 2.102-7.71 2.98-11.606.8-1.79-.51-4.055-2.48-2.573-2.356 1.025-4.326 2.7-6.383 4.203zm8.744-13.21c-2.404-.127-3.66 3.747-1.377 4.808 1.854.76 3.87-1.14 3.42-3.04-.142-.985-1.03-1.8-2.043-1.764z" font-weight="700" font-size="40" font-family="URW Palladio L" opacity=".4" fill="#fff" color="#000" overflow="visible"/><path style="line-height:100%;-inkscape-font-specification:'URW Palladio L Bold';text-align:start;isolation:auto;mix-blend-mode:normal;filter-blend-mode:normal;filter-gaussianBlur-deviation:0" d="M18 23.213c.258.702.55 1.27 1.168.493.767-.457 3.338-2.458 3.08-.497-.822 3.623-1.825 7.212-2.59 10.85-.802 1.993 1.017 3.795 2.917 2.5 2.02-.833 3.756-2.19 5.53-3.433-.24-.595-.402-1.448-1.07-.67-.88.4-2.8 2.28-3.156.727.734-3.927 2.102-7.71 2.98-11.606.8-1.79-.51-4.055-2.48-2.573-2.356 1.025-4.326 2.7-6.383 4.203zm8.744-13.21c-2.404-.127-3.66 3.747-1.377 4.808 1.854.76 3.87-1.14 3.42-3.04-.142-.985-1.03-1.8-2.043-1.764z" font-weight="700" font-size="40" font-family="URW Palladio L" fill="#999" color="#000" overflow="visible"/></svg>