<svg xmlns="http://www.w3.org/2000/svg" xmlns:xlink="http://www.w3.org/1999/xlink" viewBox="0 0 48 48"><defs><linearGradient x1="24" y1="5.564" x2="24" y2="43" id="l" xlink:href="#a" gradientUnits="userSpaceOnUse" gradientTransform="matrix(.8919 0 0 1.13514 2.595 -4.743)"/><linearGradient id="a"><stop offset="0" stop-color="#fff"/><stop offset=".036" stop-color="#fff" stop-opacity=".235"/><stop offset=".951" stop-color="#fff" stop-opacity=".157"/><stop offset="1" stop-color="#fff" stop-opacity=".392"/></linearGradient><linearGradient x1="25.132" y1=".985" x2="25.132" y2="47.013" id="j" xlink:href="#b" gradientUnits="userSpaceOnUse" gradientTransform="matrix(1 0 0 .95617 0 -1.915)"/><linearGradient id="b"><stop offset="0" stop-color="#f4f4f4"/><stop offset="1" stop-color="#dbdbdb"/></linearGradient><linearGradient x1="-51.786" y1="50.786" x2="-51.786" y2="2.906" id="k" xlink:href="#c" gradientUnits="userSpaceOnUse" gradientTransform="matrix(.8075 0 0 .89483 59.41 -2.98)"/><linearGradient id="c"><stop offset="0" stop-color="#a0a0a0"/><stop offset="1" stop-color="#bebebe"/></linearGradient><radialGradient cx="605.714" cy="486.648" r="117.143" fx="605.714" fy="486.648" id="i" xlink:href="#d" gradientUnits="userSpaceOnUse" gradientTransform="matrix(.02304 0 0 .0147 26.36 37.04)"/><linearGradient id="d"><stop offset="0"/><stop offset="1" stop-opacity="0"/></linearGradient><radialGradient cx="605.714" cy="486.648" r="117.143" fx="605.714" fy="486.648" id="h" xlink:href="#d" gradientUnits="userSpaceOnUse" gradientTransform="matrix(-.02304 0 0 .0147 21.623 37.04)"/><linearGradient id="e"><stop offset="0" stop-opacity="0"/><stop offset=".5"/><stop offset="1" stop-opacity="0"/></linearGradient><linearGradient x1="302.857" y1="366.648" x2="302.857" y2="609.505" id="g" xlink:href="#e" gradientUnits="userSpaceOnUse" gradientTransform="matrix(.06732 0 0 .0147 -.34 37.04)"/><linearGradient x1="22.104" y1="40.124" x2="22.104" y2="10.035" id="m" xlink:href="#f" gradientUnits="userSpaceOnUse" gradientTransform="matrix(.66556 0 0 1.4408 4.52 -10.85)"/><linearGradient id="f"><stop offset="0" stop-color="#a3a3a3"/><stop offset="1" stop-color="#bababa"/></linearGradient></defs><path opacity=".3" fill="url(#g)" overflow="visible" d="M7.738 42.43h32.508V46H7.738z"/><path d="M7.738 42.43V46c-1.187.007-2.87-.8-2.87-1.785 0-.986 1.326-1.785 2.87-1.785z" opacity=".3" fill="url(#h)" overflow="visible"/><path d="M40.246 42.43V46c1.187.007 2.87-.8 2.87-1.785 0-.986-1.326-1.785-2.87-1.785z" opacity=".3" fill="url(#i)" overflow="visible"/><path d="M6.5.497L41.5.5v44.003h-35V.497z" fill="url(#j)" stroke="url(#k)" stroke-linejoin="round"/><path d="M40.5 43.5h-33v-42h33z" fill="none" stroke="url(#l)" stroke-linecap="round" stroke-linejoin="round"/><path d="M11 7v1h2.375V7H11zm2.688 0v1h2.25V7h-2.25zm2.562 0v1h1.97V7h-1.97zm2.28 0v1h.876V7h-.875zm1.19 0v1h1.936V7H19.72zM22 7v1h5V7h-5zM11 9v1h3.78V9H11zm4.156 0v1h1.813V9h-1.816zm2.156 0v1h.844V9h-.843zm1.22 0v1h1.624V9H18.53zm2 0v1h1.624V9H20.53zM22.5 9v1h2.656V9H22.5zm3.03 0v1H29V9h-3.47zM11 11v1h4.188v-1H11zm4.5 0v1H20v-1h-4.5zM11 13v1h2.313v-1H11zm2.625 0v1h2.156v-1h-2.153zm2.47 0v1H18v-1h-1.906zm3.81 5v1h1.907v-1h-1.906zm2.22 0v1h1.906v-1h-1.903zm2.22 0v1h2.75v-1h-2.75zm3.093 0v1H28v-1h-.563zM20 25v1h2.344v-1H20zm2.656 0v1h2.188v-1h-2.188zm2.5 0v1H27v-1h-1.844zM20 27v1h1.875v-1H20zm2.188 0v1H27v-1h-4.813zm5.125 0v1H31v-1h-3.688zM20 29v1h2.438v-1H20zm2.78 0v1h4.282v-1h-4.28zm4.595 0v1h2.938v-1h-2.938zM20 31.125v.97h1.875v-.97H20zm2.188 0v.97h1.906v-.97h-1.907zm2.218 0v.97h2.72v-.97h-2.72zm3.032 0v.97H28v-.97h-.563zm.875 0v.97h3.53v-.97h-3.53zM19.938 38v1h2.437v-1h-2.438zm2.75 0v1h2.25v-1h-2.25zm2.593 0v1h1.94v-1h-1.94zm2.25 0v1h3.097v-1H27.53zm3.44 0v1H36v-1h-5.03z" fill="#89adc2"/><path d="M11 16v1h3.063v-1H11zm0 2v1h3.094v-1H11z" fill="#b78ed4"/><path d="M14.406 16v1H20v-1h-5.594zm.03 2l.002 1h5.093v-1h-5.09zm1.19 16v1h4.593v-1h-4.597zm4.937 0v1h1.812v-1h-1.813zm2.156 0v1h4.31v-1h-4.31zm4.653 0v1h2.97v-1h-2.97zm3.28 0v1h1.157v-1h-1.155zm1.5 0v1h.69v-1h-.69zm1 0v1H35v-1h-1.844zm-16.03 2v1h.813v-1h-.813zm1.03 0v1h1.626v-1h-1.625zm1.876 0v1h1.625v-1H20.03zm2.125 0v1h2.594v-1h-2.595zm2.907 0v1h3.375v-1h-3.375zm3.843 0v1h2.282v-1h-2.282zm2.563 0v1H32v-1h-.53z" fill="#d48eb3"/><path d="M11 38h3.037v1H11v-1z" fill="#de6161"/><path d="M13.75 21v1H16v-1h-2.25zM11 23v1h1v-1h-1zm3.156 2v1H16v-1h-1.844zm.125 2v1H17v-1h-2.72zm-.34 2v1H16v-1h-2.063zm-.376 2.156v.97h2.126v-.97h-2.127zM11 34v1h4.28v-1H11zm0 2v1h3.688v-1H11zm3.97 0v1h1.78v-1h-1.78zm-.626 2v1h3.344v-1h-3.344z" fill="url(#m)"/><path d="M11 21v1h2.344v-1H11zm0 4v1h2.75v-1H11zm0 2v1h2.938v-1H11zm0 2v1h2.53v-1H11zm0 2.156v.97h2.22v-.97H11z" fill="#94d48e"/></svg>