<?xml version="1.0" encoding="UTF-8" standalone="no"?>
<svg
   xmlns:dc="http://purl.org/dc/elements/1.1/"
   xmlns:cc="http://creativecommons.org/ns#"
   xmlns:rdf="http://www.w3.org/1999/02/22-rdf-syntax-ns#"
   xmlns:svg="http://www.w3.org/2000/svg"
   xmlns="http://www.w3.org/2000/svg"
   xmlns:xlink="http://www.w3.org/1999/xlink"
   xmlns:sodipodi="http://sodipodi.sourceforge.net/DTD/sodipodi-0.dtd"
   xmlns:inkscape="http://www.inkscape.org/namespaces/inkscape"
   id="svg3901"
   height="48"
   width="48"
   version="1.1"
   sodipodi:docname="text-x-generic-template.svg"
   inkscape:version="1.0.2 (e86c870879, 2021-01-15)">
  <sodipodi:namedview
     pagecolor="#ffffff"
     bordercolor="#666666"
     borderopacity="1"
     objecttolerance="10"
     gridtolerance="10"
     guidetolerance="10"
     inkscape:pageopacity="0"
     inkscape:pageshadow="2"
     inkscape:window-width="1920"
     inkscape:window-height="1030"
     id="namedview59"
     showgrid="false"
     inkscape:zoom="16.520833"
     inkscape:cx="24.121059"
     inkscape:cy="24"
     inkscape:window-x="0"
     inkscape:window-y="0"
     inkscape:window-maximized="1"
     inkscape:current-layer="svg3901" />
  <defs
     id="defs3903">
    <linearGradient
       id="linearGradient3403">
      <stop
         id="stop3405"
         style="stop-color:#ffffff;stop-opacity:1"
         offset="0" />
      <stop
         id="stop3407"
         style="stop-color:#ffffff;stop-opacity:0.23529412"
         offset="0" />
      <stop
         id="stop3409"
         style="stop-color:#ffffff;stop-opacity:0.15686275"
         offset="1" />
      <stop
         id="stop3411"
         style="stop-color:#ffffff;stop-opacity:0.39215687"
         offset="1" />
    </linearGradient>
    <linearGradient
       id="linearGradient3600">
      <stop
         offset="0"
         style="stop-color:#f4f4f4;stop-opacity:1"
         id="stop3602" />
      <stop
         offset="1"
         style="stop-color:#dbdbdb;stop-opacity:1"
         id="stop3604" />
    </linearGradient>
    <linearGradient
       id="linearGradient5060">
      <stop
         offset="0"
         style="stop-color:#000000;stop-opacity:1"
         id="stop5062" />
      <stop
         offset="1"
         style="stop-color:#000000;stop-opacity:0"
         id="stop5064" />
    </linearGradient>
    <linearGradient
       id="linearGradient5048">
      <stop
         offset="0"
         style="stop-color:#000000;stop-opacity:0"
         id="stop5050" />
      <stop
         offset="0.5"
         style="stop-color:#000000;stop-opacity:1"
         id="stop5056" />
      <stop
         offset="1"
         style="stop-color:#000000;stop-opacity:0"
         id="stop5052" />
    </linearGradient>
    <linearGradient
       id="linearGradient3104-6">
      <stop
         id="stop3106-3"
         style="stop-color:#000000;stop-opacity:0.31782946"
         offset="0" />
      <stop
         id="stop3108-9"
         style="stop-color:#000000;stop-opacity:0.24031007"
         offset="1" />
    </linearGradient>
    <linearGradient
       y2="42.110645"
       x2="23.99999"
       y1="5.9404659"
       x1="23.99999"
       gradientTransform="matrix(0.89189189,0,0,1.1351351,2.5945999,-4.7432314)"
       gradientUnits="userSpaceOnUse"
       id="linearGradient3106"
       xlink:href="#linearGradient3403" />
    <linearGradient
       y2="47.013336"
       x2="25.132275"
       y1="0.98520643"
       x1="25.132275"
       gradientTransform="matrix(0.97142632,0,0,0.93431938,0.68576678,-1.3569996)"
       gradientUnits="userSpaceOnUse"
       id="linearGradient3109"
       xlink:href="#linearGradient3600" />
    <radialGradient
       r="117.14286"
       fy="486.64789"
       fx="605.71429"
       cy="486.64789"
       cx="605.71429"
       gradientTransform="matrix(0.02303995,0,0,0.01470022,26.360882,37.040176)"
       gradientUnits="userSpaceOnUse"
       id="radialGradient3112"
       xlink:href="#linearGradient5060" />
    <radialGradient
       r="117.14286"
       fy="486.64789"
       fx="605.71429"
       cy="486.64789"
       cx="605.71429"
       gradientTransform="matrix(-0.02303994,0,0,0.01470022,21.62311,37.040176)"
       gradientUnits="userSpaceOnUse"
       id="radialGradient3115"
       xlink:href="#linearGradient5060" />
    <linearGradient
       y2="609.50507"
       x2="302.85715"
       y1="366.64789"
       x1="302.85715"
       gradientTransform="matrix(0.06732488,0,0,0.01470022,-0.3411391,37.040146)"
       gradientUnits="userSpaceOnUse"
       id="linearGradient3118"
       xlink:href="#linearGradient5048" />
    <linearGradient
       y2="2.9062471"
       x2="-51.786404"
       y1="50.786446"
       x1="-51.786404"
       gradientTransform="matrix(0.80749686,0,0,0.89471714,59.410232,-2.9773433)"
       gradientUnits="userSpaceOnUse"
       id="linearGradient3170"
       xlink:href="#linearGradient3104-6" />
    <linearGradient
       gradientTransform="translate(-1.982096,-3.047074)"
       gradientUnits="userSpaceOnUse"
       xlink:href="#linearGradient3104-5"
       id="linearGradient3052"
       y2="3.3638515"
       x2="22.004084"
       y1="47.813133"
       x1="22.004084" />
    <linearGradient
       id="linearGradient3104-5">
      <stop
         offset="0"
         style="stop-color:#aaaaaa;stop-opacity:1"
         id="stop3106-2" />
      <stop
         offset="1"
         style="stop-color:#c8c8c8;stop-opacity:1"
         id="stop3108-5" />
    </linearGradient>
    <radialGradient
       cx="605.71429"
       cy="486.64789"
       r="117.14286"
       fx="605.71429"
       fy="486.64789"
       id="radialGradient3907"
       xlink:href="#linearGradient5060"
       gradientUnits="userSpaceOnUse"
       gradientTransform="matrix(0.02303995,0,0,0.01470022,26.360882,36.963253)" />
    <linearGradient
       x1="42.783993"
       y1="32.537422"
       x2="38.972309"
       y2="18.12406"
       id="linearGradient3909"
       xlink:href="#linearGradient3412"
       gradientUnits="userSpaceOnUse"
       gradientTransform="matrix(1.3333334,0,0,-1.3333334,-16.166666,70.166667)" />
    <linearGradient
       id="linearGradient3412">
      <stop
         id="stop3414"
         style="stop-color:#fcfcfc;stop-opacity:1"
         offset="0" />
      <stop
         id="stop3416"
         style="stop-color:#cbcdd9;stop-opacity:1"
         offset="1" />
    </linearGradient>
    <linearGradient
       x1="40.105618"
       y1="31.65719"
       x2="33.811069"
       y2="18.353575"
       id="linearGradient3911"
       xlink:href="#linearGradient3428"
       gradientUnits="userSpaceOnUse"
       gradientTransform="matrix(1.33,0,0,-1.33,-16.064999,70.028077)" />
    <linearGradient
       id="linearGradient3428">
      <stop
         id="stop3430"
         style="stop-color:#ffffff;stop-opacity:1"
         offset="0" />
      <stop
         id="stop3432"
         style="stop-color:#ffffff;stop-opacity:0"
         offset="1" />
    </linearGradient>
    <radialGradient
       xlink:href="#linearGradient5060"
       id="radialGradient3155"
       gradientUnits="userSpaceOnUse"
       gradientTransform="matrix(0.04016195,0,0,0.02225161,48.013776,1032.7998)"
       cx="605.71429"
       cy="486.64789"
       fx="605.71429"
       fy="486.64789"
       r="117.14286" />
    <radialGradient
       xlink:href="#linearGradient5060"
       id="radialGradient3157"
       gradientUnits="userSpaceOnUse"
       gradientTransform="matrix(0,-1.000001,1.142856,0,-41.10259,45.50001)"
       cx="7"
       cy="39.464806"
       fx="7"
       fy="39.464806"
       r="3.5" />
    <radialGradient
       xlink:href="#linearGradient5060"
       id="radialGradient3159"
       gradientUnits="userSpaceOnUse"
       gradientTransform="matrix(0,-1.000001,1.142856,0,-89.10259,-31.49999)"
       cx="7"
       cy="39.464806"
       fx="7"
       fy="39.464806"
       r="3.5" />
    <linearGradient
       xlink:href="#linearGradient5048"
       id="linearGradient3161"
       gradientUnits="userSpaceOnUse"
       x1="18.142136"
       y1="35"
       x2="18.142136"
       y2="42.040661" />
    <linearGradient
       xlink:href="#linearGradient3412-6"
       id="linearGradient3163"
       gradientUnits="userSpaceOnUse"
       gradientTransform="matrix(0,2.7071087,-2.656681,0,169.15523,921.6163)"
       x1="30.739399"
       y1="35.285313"
       x2="45.902721"
       y2="50.73642" />
    <linearGradient
       id="linearGradient3412-6">
      <stop
         id="stop3414-0"
         style="stop-color:#f0f0f1;stop-opacity:1"
         offset="0" />
      <stop
         id="stop3416-6"
         style="stop-color:#cbcdd9;stop-opacity:1"
         offset="1" />
    </linearGradient>
    <linearGradient
       xlink:href="#linearGradient3428"
       id="linearGradient3165"
       gradientUnits="userSpaceOnUse"
       gradientTransform="matrix(-0.96875457,0,0,0.96859829,130.2627,922.49185)"
       x1="75.779678"
       y1="86"
       x2="75.779678"
       y2="127.03607" />
  </defs>
  <metadata
     id="metadata3906">
    <rdf:RDF>
      <cc:Work
         rdf:about="">
        <dc:format>image/svg+xml</dc:format>
        <dc:type
           rdf:resource="http://purl.org/dc/dcmitype/StillImage" />
        <dc:title />
      </cc:Work>
    </rdf:RDF>
  </metadata>
  <rect
     width="32.508301"
     height="3.5700529"
     x="7.7378473"
     y="42.429947"
     id="rect2879"
     style="opacity:0.3;fill:url(#linearGradient3118);fill-opacity:1;fill-rule:nonzero;stroke:none;stroke-width:1;marker:none;visibility:visible;display:inline;overflow:visible" />
  <path
     d="m 7.7378475,42.430102 c 0,0 0,3.569856 0,3.569856 -1.1865002,0.0067 -2.8683795,-0.799823 -2.8683795,-1.785158 0,-0.985333 1.3240446,-1.784697 2.8683795,-1.784698 z"
     id="path2881"
     style="opacity:0.3;fill:url(#radialGradient3115);fill-opacity:1;fill-rule:nonzero;stroke:none;stroke-width:1;marker:none;visibility:visible;display:inline;overflow:visible" />
  <path
     d="m 40.246148,42.430102 c 0,0 0,3.569856 0,3.569856 1.1865,0.0067 2.86838,-0.799823 2.86838,-1.785158 0,-0.985333 -1.324045,-1.784697 -2.86838,-1.784698 z"
     id="path2883"
     style="opacity:0.3;fill:url(#radialGradient3112);fill-opacity:1;fill-rule:nonzero;stroke:none;stroke-width:1;marker:none;visibility:visible;display:inline;overflow:visible" />
  <path
     d="m 7,1.0000001 c 7.791126,0 33.999959,0.00274 33.999959,0.00274 L 41,44 C 41,44 18.333334,44 7,44 7,29.666666 7,15.333333 7,1 z"
     id="path4160"
     style="fill:url(#linearGradient3109);fill-opacity:1;stroke:none;display:inline" />
  <path
     d="m 40.5,43.5 -33,0 0,-41.9999998 33,0 z"
     id="rect6741-1"
     style="fill:none;stroke:url(#linearGradient3106);stroke-width:1;stroke-linecap:round;stroke-linejoin:miter;stroke-miterlimit:4;stroke-opacity:1;stroke-dasharray:none;stroke-dashoffset:0" />
  <path
     d="m 6.4999605,0.4999623 c 8.0202885,0 35.0000415,0.00298 35.0000415,0.00298 l 3.7e-5,43.9970957 c 0,0 -23.333385,0 -35.0000785,0 0,-14.666738 0,-29.333326 0,-43.9998923 z"
     id="path4160-6-1"
     style="fill:none;stroke:url(#linearGradient3170);stroke-width:0.99992192;stroke-linecap:butt;stroke-linejoin:round;stroke-miterlimit:4;stroke-opacity:1;stroke-dasharray:none;stroke-dashoffset:0;display:inline" />
  <path
     d="m 11,8.5 2.34375,0 z m 2.6875,0 2.1875,0 z m 2.53125,0 1.9375,0 z m 2.25,0 0.84375,0 z m 1.1875,0 1.875,0 z m 2.25,0 4.9375,0 z m 5.25,0 3.78125,0 z m 4.09375,0 1.15625,0 z m -20.25,2 3.65625,0 z m 4.0625,0 1.75,0 z m 2.0625,0 0.875,0 z m 1.21875,0 1.59375,0 z m 1.9375,0 1.625,0 z m 1.9375,0 2.59375,0 z m 2.9375,0 3.375,0 z m 3.6875,0 2.25,0 z m 2.5625,0 0.5625,0 z M 11,12.484375 l 3.09375,0 z m 3.40625,0 5.0625,0 z m 5.375,0 2.46875,0 z m 2.78125,0 2.3125,0 z m 2.625,0 1.96875,0 z m 2.28125,0 3.09375,0.03125 z m 3.375,0.03125 5.03125,0 z M 11,14.5 l 4.28125,0 z m 4.625,0 4.625,0 z m 4.9375,0 1.84375,0 z m 2.15625,0 4.34375,0 z m 4.625,0 2.96875,0 z m 3.3125,0 1.1875,0 z m 1.5,0 0.65625,0 z m 1,0 L 35,14.5 Z M 11,16.5 l 1.59375,0 z m 2.09375,0 L 19,16.5 Z M 11,20.484375 l 3.09375,0 z m 3.40625,0 5.0625,0 z m 5.375,0 2.46875,0 z m 2.78125,0 2.3125,0 z m 2.625,0 1.96875,0 z m 2.28125,0 3.09375,0.03125 z m 3.375,0.03125 5.03125,0 z M 11,22.5 l 2.34375,0 z m 2.6875,0 2.15625,0 z m 2.53125,0 1.9375,0 z m 2.25,0 0.84375,0 z m 1.1875,0 1.875,0 z m 2.25,0 4.90625,0 z m 5.25,0 3.75,0 z m 4.0625,0 1.1875,0 z m 1.5,0 2.8125,0 z M 11,24.5 l 3.9375,0 z m 4.25,0 4.21875,0 z m 4.53125,0 1.625,0 z m 1.9375,0 3.96875,0 z m 4.28125,0 5,0 z m 5.34375,0 1.84375,0 z M 11,26.5 l 4.28125,0 z m 4.625,0 4.625,0 z m 4.9375,0 1.84375,0 z m 2.15625,0 4.34375,0 z m 4.625,0 2.96875,0 z m 3.3125,0 1.1875,0 z m 1.5,0 0.65625,0 z m 1,0 L 35,26.5 Z M 11,28.5 l 3.65625,0 z m 4.0625,0 1.75,0 z m 2.0625,0 0.875,0 z m 1.21875,0 1.59375,0 z m 1.9375,0 1.625,0 z m 1.9375,0 2.59375,0 z m 2.9375,0 3.375,0 z m 3.6875,0 2.25,0 z m 2.5625,0 0.5625,0 z M 11,32.484375 l 3.09375,0 z m 3.40625,0 5.0625,0 z m 5.375,0 2.46875,0 z m 2.78125,0 2.3125,0 z m 2.625,0 1.96875,0 z m 2.28125,0 3.09375,0.03125 z m 3.375,0.03125 5.03125,0 z M 11,34.5 l 3.65625,0 z m 4.0625,0 1.75,0 z m 2.0625,0 0.875,0 z m 1.21875,0 1.59375,0 z m 1.9375,0 1.625,0 z m 1.9375,0 2.59375,0 z m 2.9375,0 3.375,0 z m 3.6875,0 2.25,0 z m 2.5625,0 0.5625,0 z M 11,36.5 l 3.875,0 z m 4.21875,0 1.21875,0 z m 1.53125,0 2.78125,0 z m 3.09375,0 4.09375,0 z m 4.4375,0 2.78125,0 z m 3.0625,0 0.59375,0 z m 0.90625,0 3.53125,0 z m 3.90625,0 L 34,36.5 Z M 11,38.5 l 3.875,0 z m 4.21875,0 1.75,0 z m 2.0625,0 2.75,0 z m 3.0625,0 2.96875,0 z m 3.3125,0 1.1875,0 z m 1.5,0 0.65625,0 z m 1,0 1.84375,0 z"
     id="path3475"
     style="fill:none;stroke:url(#linearGradient3052);stroke-width:1px;stroke-linecap:butt;stroke-linejoin:miter;stroke-opacity:1" />
  <g
     transform="matrix(0.75642387,0,0,0.75642387,-11.165806,-744.24979)"
     id="g3138"
     style="stroke-width:1.32201">
    <path
       style="display:inline;overflow:visible;visibility:visible;opacity:0.15;fill:url(#radialGradient3155);fill-opacity:1;fill-rule:nonzero;stroke:none;stroke-width:1.32201;marker:none"
       id="path2881-3"
       d="m 72.217794,1040.9585 c 0,0 0,5.4036 0,5.4036 2.068242,0.01 5,-1.2107 5,-2.7022 0,-1.4915 -2.308,-2.7014 -5,-2.7014 z" />
    <g
       style="opacity:0.2;stroke-width:1.77281"
       id="g22150"
       transform="matrix(-0.9639657,0,0,0.37771717,78.217793,1031.4981)">
      <rect
         style="fill:url(#radialGradient3157);fill-opacity:1;stroke:none;stroke-width:1.77281"
         id="rect22120"
         y="35"
         x="0"
         height="7"
         width="4" />
      <rect
         style="fill:url(#radialGradient3159);fill-opacity:1;stroke:none;stroke-width:1.77281"
         id="rect22134"
         transform="scale(-1)"
         y="-42"
         x="-48"
         height="7"
         width="4" />
      <rect
         style="fill:url(#linearGradient3161);fill-opacity:1;stroke:none;stroke-width:1.77281"
         id="rect22138"
         y="35"
         x="4"
         height="7"
         width="40" />
    </g>
    <path
       style="display:inline;overflow:visible;visibility:visible;opacity:0.8;fill:url(#linearGradient3163);fill-opacity:1;fill-rule:evenodd;stroke:#83899a;stroke-width:1.32201px;stroke-linecap:butt;stroke-linejoin:miter;stroke-miterlimit:4;stroke-dasharray:none;stroke-dashoffset:0;stroke-opacity:1;marker:none;enable-background:accumulate"
       id="path2993"
       d="m 74.912808,1005.3317 -40.047477,40.0476 h 40.047477 z m -8.009491,18.6889 v 13.3492 h -13.51603 z" />
    <path
       style="display:inline;overflow:visible;visibility:visible;opacity:0.5;fill:none;stroke:url(#linearGradient3165);stroke-width:1.32201px;stroke-linecap:butt;stroke-linejoin:miter;stroke-miterlimit:4;stroke-dasharray:none;stroke-dashoffset:0;stroke-opacity:1;marker:none;enable-background:accumulate"
       id="path3934"
       d="m 73.590556,1008.6365 c 0,0 0,35.4143 0,35.4143 0,0 -35.420089,0 -35.420089,0 0,0 35.420089,-35.4143 35.420089,-35.4143 z m -5.812527,13.1365 c 0,0 -16.468828,16.4662 -16.468828,16.4662 0,0 16.468828,0 16.468828,0 0,0 0,-16.4662 0,-16.4662 z" />
    <path
       style="opacity:0.75;fill:none;stroke:#83899a;stroke-width:1.32201;stroke-linecap:round;stroke-linejoin:miter;stroke-miterlimit:4;stroke-dasharray:none;stroke-opacity:1"
       id="path3091"
       d="m 65.658697,1045.3792 v -2.644 m -6.16938,2.644 v -2.6126 m -6.169381,2.6126 v -2.644 m -6.16938,2.644 v -2.644"
       sodipodi:nodetypes="cccccccc" />
    <path
       style="opacity:0.3;fill:none;stroke:#ffffff;stroke-width:1.32201;stroke-linecap:round;stroke-linejoin:miter;stroke-miterlimit:4;stroke-dasharray:none;stroke-opacity:1"
       id="path1176"
       d="m 66.980709,1044.0572 v -1.322 m -6.16938,1.322 v -1.3063 m -6.169381,1.3063 v -1.322 m -6.16938,1.322 v -1.322"
       sodipodi:nodetypes="cccccccc" />
    <path
       style="opacity:0.75;fill:none;stroke:#83899a;stroke-width:1.32201;stroke-linecap:round;stroke-linejoin:miter;stroke-miterlimit:4;stroke-dasharray:none;stroke-opacity:1"
       id="path1178"
       d="m 72.268748,1017.617 h 2.644 m -2.644,6.1694 h 2.644 m -2.644,6.1693 h 2.6126 m -2.6126,6.1694 h 2.644"
       sodipodi:nodetypes="cccccccc" />
    <path
       style="opacity:0.3;fill:none;stroke:#ffffff;stroke-width:1.32201;stroke-linecap:round;stroke-linejoin:miter;stroke-miterlimit:4;stroke-dasharray:none;stroke-opacity:1"
       id="path1180"
       d="m 72.268738,1016.295 h 1.322 m -1.322,6.1693 h 1.322 m -1.322,6.1695 h 1.3063 m -1.3063,6.1693 h 1.322"
       sodipodi:nodetypes="cccccccc" />
  </g>
</svg>
