<svg xmlns="http://www.w3.org/2000/svg" xmlns:xlink="http://www.w3.org/1999/xlink" viewBox="0 0 48 48"><defs><linearGradient id="a"><stop offset="0" stop-color="#fff"/><stop offset=".036" stop-color="#fff" stop-opacity=".235"/><stop offset=".951" stop-color="#fff" stop-opacity=".157"/><stop offset="1" stop-color="#fff" stop-opacity=".392"/></linearGradient><linearGradient id="b"><stop offset="0" stop-color="#f4f4f4"/><stop offset="1" stop-color="#dbdbdb"/></linearGradient><linearGradient id="c"><stop offset="0" stop-color="#a0a0a0"/><stop offset="1" stop-color="#bebebe"/></linearGradient><linearGradient id="d"><stop offset="0"/><stop offset="1" stop-opacity="0"/></linearGradient><linearGradient id="e"><stop offset="0" stop-opacity="0"/><stop offset=".5"/><stop offset="1" stop-opacity="0"/></linearGradient><linearGradient xlink:href="#a" id="k" gradientUnits="userSpaceOnUse" gradientTransform="matrix(.8919 0 0 1.13514 2.595 -4.743)" x1="24" y1="5.564" x2="24" y2="43"/><linearGradient xlink:href="#b" id="i" gradientUnits="userSpaceOnUse" gradientTransform="matrix(1 0 0 .95617 0 -1.915)" x1="25.132" y1=".985" x2="25.132" y2="47.013"/><linearGradient xlink:href="#c" id="j" gradientUnits="userSpaceOnUse" gradientTransform="matrix(.8075 0 0 .89483 59.41 -2.98)" x1="-51.786" y1="50.786" x2="-51.786" y2="2.906"/><radialGradient xlink:href="#d" id="h" gradientUnits="userSpaceOnUse" gradientTransform="matrix(.02304 0 0 .0147 26.36 37.04)" cx="605.714" cy="486.648" fx="605.714" fy="486.648" r="117.143"/><radialGradient xlink:href="#d" id="g" gradientUnits="userSpaceOnUse" gradientTransform="matrix(-.02304 0 0 .0147 21.623 37.04)" cx="605.714" cy="486.648" fx="605.714" fy="486.648" r="117.143"/><linearGradient xlink:href="#e" id="f" gradientUnits="userSpaceOnUse" gradientTransform="matrix(.06732 0 0 .0147 -.34 37.04)" x1="302.857" y1="366.648" x2="302.857" y2="609.505"/></defs><path opacity=".3" fill="url(#f)" overflow="visible" d="M7.738 42.43h32.508V46H7.738z"/><path d="M7.738 42.43V46c-1.187.007-2.87-.8-2.87-1.785 0-.986 1.326-1.785 2.87-1.785z" opacity=".3" fill="url(#g)" overflow="visible"/><path d="M40.246 42.43V46c1.187.007 2.87-.8 2.87-1.785 0-.986-1.326-1.785-2.87-1.785z" opacity=".3" fill="url(#h)" overflow="visible"/><path d="M6.5.497L41.5.5v44.003h-35V.497z" fill="url(#i)" stroke="url(#j)" stroke-linejoin="round"/><path d="M40.5 43.5h-33v-42h33z" fill="none" stroke="url(#k)" stroke-linecap="round" stroke-linejoin="round"/><path d="M24.91 30.164c-.066-2.36.463-4.65 2.69-6.27 2.355-1.835 4.622-4.13 4.383-6.836-.053-2.61-3.093-4.653-6.368-4.947-3.684-.51-8.142.754-9.377 3.63-.626 1.4-.045 3.91 2.056 3.91 1.23 0 1.794-.792 1.887-1.52.07-.55-.153-1.04-.286-1.493-.152-.517.496-1.52 1.202-1.928.59-.34 1.207-.456 1.298-.478 2.118-.51 4.23.616 5.11 1.985.88 1.368-.088 3.444-1.482 5.463-1.394 2.018-2.89 4.31-2.884 6.746 0 .928-.082 1.243-.024 1.618.048.3 1.04.264 1.8.124zm-.966 3.174c-2.025-.11-3.427 2.186-2.21 3.65 1.086 1.614 4.132 1.216 4.655-.613.54-1.423-.767-3.06-2.448-3.037z" font-size="72" font-weight="700" opacity=".4" fill="#fff" font-family="Standard Symbols L" color="#000" overflow="visible"/><path d="M24.91 29.164c-.066-2.36.463-4.65 2.69-6.27 2.355-1.835 4.622-4.13 4.383-6.836-.053-2.61-3.093-4.653-6.368-4.947-3.684-.51-8.142.754-9.377 3.63-.626 1.4-.045 3.91 2.056 3.91 1.23 0 1.794-.792 1.887-1.52.07-.55-.153-1.04-.286-1.493-.152-.517.496-1.52 1.202-1.928.59-.34 1.207-.456 1.298-.478 2.118-.51 4.23.616 5.11 1.985.88 1.368-.088 3.444-1.482 5.463-1.394 2.018-2.89 4.31-2.884 6.746 0 .928-.082 1.243-.024 1.618.048.3 1.04.264 1.8.124zm-.966 3.174c-2.025-.11-3.427 2.186-2.21 3.65 1.086 1.614 4.132 1.216 4.655-.613.54-1.423-.767-3.06-2.448-3.037z" font-size="72" font-weight="700" opacity=".4" font-family="Standard Symbols L"/></svg>