<?xml version="1.0" encoding="UTF-8" standalone="no"?>
<!-- Created with Inkscape (http://www.inkscape.org/) -->
<svg
   xmlns:svg="http://www.w3.org/2000/svg"
   xmlns="http://www.w3.org/2000/svg"
   xmlns:xlink="http://www.w3.org/1999/xlink"
   version="1.0"
   width="32"
   height="32"
   id="svg3356">
  <defs
     id="defs3358">
    <linearGradient
       id="linearGradient10691-1">
      <stop
         id="stop10693-3"
         style="stop-color:#000000;stop-opacity:1"
         offset="0" />
      <stop
         id="stop10695-1"
         style="stop-color:#000000;stop-opacity:0"
         offset="1" />
    </linearGradient>
    <radialGradient
       cx="6.702713"
       cy="73.615715"
       r="7.228416"
       fx="6.702713"
       fy="73.615715"
       id="radialGradient2551"
       xlink:href="#linearGradient10691-1"
       gradientUnits="userSpaceOnUse"
       gradientTransform="matrix(1.2450862,0,0,0.2766858,7.6545456,8.631578)" />
    <linearGradient
       id="linearGradient3962">
      <stop
         id="stop3964"
         style="stop-color:#464646;stop-opacity:1"
         offset="0" />
      <stop
         id="stop3968"
         style="stop-color:#969696;stop-opacity:1"
         offset="0.23349524" />
      <stop
         id="stop3970"
         style="stop-color:#aaaaaa;stop-opacity:1"
         offset="0.34358323" />
      <stop
         id="stop3972"
         style="stop-color:#646464;stop-opacity:1"
         offset="1" />
    </linearGradient>
    <linearGradient
       x1="98.584404"
       y1="36.075962"
       x2="98.584404"
       y2="44.323311"
       id="linearGradient2548"
       xlink:href="#linearGradient3962"
       gradientUnits="userSpaceOnUse"
       gradientTransform="matrix(0.6843014,0,0,0.6062554,-52.461444,3.1287517)" />
    <linearGradient
       id="linearGradient3178">
      <stop
         id="stop3180"
         style="stop-color:#787878;stop-opacity:1"
         offset="0" />
      <stop
         id="stop3184"
         style="stop-color:#c8c8c8;stop-opacity:1"
         offset="0.24005625" />
      <stop
         id="stop3186"
         style="stop-color:#e6e6e6;stop-opacity:1"
         offset="0.33494958" />
      <stop
         id="stop3188"
         style="stop-color:#8c8c8c;stop-opacity:1"
         offset="1" />
    </linearGradient>
    <linearGradient
       x1="397.07306"
       y1="87.076035"
       x2="397.07306"
       y2="95.365944"
       id="linearGradient2546"
       xlink:href="#linearGradient3178"
       gradientUnits="userSpaceOnUse"
       gradientTransform="matrix(0.681844,0,0,0.6063426,-254.2496,-27.797984)" />
    <linearGradient
       id="linearGradient3342-3">
      <stop
         id="stop3344-0"
         style="stop-color:#ffffff;stop-opacity:0"
         offset="0" />
      <stop
         id="stop3346-3"
         style="stop-color:#ffffff;stop-opacity:1"
         offset="1" />
    </linearGradient>
    <linearGradient
       x1="15.573899"
       y1="46.971004"
       x2="23.578077"
       y2="46.971004"
       id="linearGradient2543"
       xlink:href="#linearGradient3342-3"
       gradientUnits="userSpaceOnUse"
       gradientTransform="matrix(0.7274459,0,0,0.6589186,-1.151775,-2.450068)"
       spreadMethod="reflect" />
    <linearGradient
       id="linearGradient3298-628-126-871-718-519-851">
      <stop
         id="stop3924"
         style="stop-color:#2f7b48;stop-opacity:1"
         offset="0" />
      <stop
         id="stop3926"
         style="stop-color:#76dd98;stop-opacity:1"
         offset="1" />
    </linearGradient>
    <linearGradient
       x1="16.903198"
       y1="23"
       x2="16.903198"
       y2="3.9967318"
       id="linearGradient3323"
       xlink:href="#linearGradient3298-628-126-871-718-519-851"
       gradientUnits="userSpaceOnUse" />
    <linearGradient
       id="linearGradient3202">
      <stop
         id="stop3204"
         style="stop-color:#ffffff;stop-opacity:1"
         offset="0" />
      <stop
         id="stop3206"
         style="stop-color:#d3eefc;stop-opacity:1"
         offset="1" />
    </linearGradient>
    <linearGradient
       x1="-83.756935"
       y1="-7.8379993"
       x2="-92.222527"
       y2="27.521217"
       id="linearGradient3354"
       xlink:href="#linearGradient3202"
       gradientUnits="userSpaceOnUse"
       gradientTransform="matrix(0.4144579,-9.9849745e-2,9.922819e-2,0.4170536,16.407136,-0.8124439)" />
    <linearGradient
       id="linearGradient6592-2-7-1">
      <stop
         id="stop6594-0-2-4"
         style="stop-color:#ffffff;stop-opacity:0.27450982"
         offset="0" />
      <stop
         id="stop6596-2-5-3"
         style="stop-color:#ffffff;stop-opacity:0"
         offset="1" />
    </linearGradient>
    <linearGradient
       x1="12.9375"
       y1="8.4375"
       x2="15.25"
       y2="19.8125"
       id="linearGradient2536"
       xlink:href="#linearGradient6592-2-7-1"
       gradientUnits="userSpaceOnUse"
       gradientTransform="matrix(0.7142858,0,0,0.866666,-1.1428573,0.4000017)" />
  </defs>
  <g
     id="layer1">
    <path
       d="M 25,29 C 25,30.10457 20.970562,31 15.999999,31 C 11.029436,31 7,30.10457 7,29 C 7,27.895431 11.029436,27 15.999999,27 C 20.970562,27 25,27.895431 25,29 L 25,29 z"
       id="path2589"
       style="opacity:0.3;fill:url(#radialGradient2551);fill-opacity:1;fill-rule:nonzero;stroke:none;stroke-width:0.80000001;marker:none;visibility:visible;display:inline;overflow:visible" />
    <path
       d="M 11.798578,24.5 C 11.798578,24.5 11.895578,26.398544 11.411765,27 C 10.927949,27.601454 9.9652422,27.5 9.9652422,27.5 C 9.3474772,27.56319 9.3423672,29.5 9.9652422,29.5 L 22.034709,29.5 C 22.657585,29.5 22.652603,27.562381 22.034709,27.5 C 22.034709,27.5 21.072045,27.60147 20.588235,27 C 20.104425,26.398546 20.201372,24.5 20.201372,24.5 L 11.798578,24.5 z"
       id="rect1789-8"
       style="fill:url(#linearGradient2546);fill-opacity:1;fill-rule:nonzero;stroke:url(#linearGradient2548);stroke-width:0.99827468;stroke-linecap:round;stroke-linejoin:round;marker:none;stroke-miterlimit:4;stroke-dasharray:none;stroke-dashoffset:0.50000001;stroke-opacity:1;visibility:visible;display:inline;overflow:visible;enable-background:new" />
    <path
       d="M 10.541117,28.5 L 21.458883,28.5"
       id="path3340-3"
       style="fill:none;stroke:url(#linearGradient2543);stroke-width:1px;stroke-linecap:square;stroke-linejoin:miter;stroke-opacity:1" />
    <rect
       width="31.000011"
       height="21.99976"
       rx="0.68889284"
       ry="0.6666643"
       x="0.49999428"
       y="2.5001197"
       id="rect2722"
       style="fill:#1a1a1a;fill-opacity:1;stroke:#000000;stroke-width:1.00023937;stroke-linecap:round;stroke-linejoin:round;stroke-miterlimit:4;stroke-dasharray:none;stroke-dashoffset:0.50000001;stroke-opacity:1" />
    <rect
       width="28"
       height="19"
       x="2"
       y="4"
       id="rect2716"
       style="fill:url(#linearGradient3323);fill-opacity:1;fill-rule:evenodd;stroke:none;display:inline;enable-background:new" />
    <g
       transform="translate(35.084336,1.1285144)"
       id="g3349">
      <path
         d="M -14.889331,4.1054461 C -15.117373,4.0821573 -15.34409,4.1945458 -15.461256,4.4103117 L -20.453375,13.601468 L -23.662986,11.033443 C -23.948884,10.87624 -24.305587,10.977371 -24.46181,11.26506 L -25.901133,13.124538 C -26.057354,13.412222 -25.95226,13.771053 -25.666364,13.928252 C -25.666364,13.928252 -19.806018,18.798706 -19.798787,18.802307 C -19.731781,18.839152 -19.661709,18.857691 -19.590481,18.866748 C -19.357801,18.896332 -19.119679,18.786329 -19.000074,18.56607 L -12.26754,6.1706514 C -12.111318,5.8829638 -12.216412,5.5241359 -12.502308,5.3669358 L -14.662541,4.174072 C -14.734018,4.1347711 -14.813316,4.1132084 -14.889331,4.1054461 z"
         id="path1542"
         style="opacity:0.35;fill:#000000;fill-opacity:1;fill-rule:nonzero;stroke:none;stroke-width:1.00278974;stroke-linecap:round;stroke-linejoin:round;marker:none;marker-start:none;marker-mid:none;marker-end:none;stroke-miterlimit:4;stroke-dasharray:none;stroke-dashoffset:0;stroke-opacity:1;visibility:visible;display:inline;overflow:visible" />
      <path
         d="M -14.889331,5.1054461 C -15.117373,5.0821561 -15.34409,5.1945461 -15.461256,5.4103161 L -20.453375,14.60147 L -23.662986,12.033444 C -23.948884,11.876241 -24.305587,11.977372 -24.46181,12.26506 L -25.901133,14.124539 C -26.057354,14.412223 -25.95226,14.771053 -25.666364,14.928254 C -25.666364,14.928254 -19.806018,19.798706 -19.798787,19.802309 C -19.731781,19.839154 -19.661709,19.857692 -19.590481,19.866747 C -19.357801,19.896333 -19.119679,19.78633 -19.000074,19.566069 L -12.26754,7.1706561 C -12.111318,6.8829661 -12.216412,6.5241361 -12.502308,6.3669361 L -14.662541,5.1740761 C -14.734018,5.1347761 -14.813316,5.1132061 -14.889331,5.1054461 z"
         id="path4368"
         style="fill:url(#linearGradient3354);fill-opacity:1;fill-rule:nonzero;stroke:none;stroke-width:1.00278974;stroke-linecap:round;stroke-linejoin:round;marker:none;marker-start:none;marker-mid:none;marker-end:none;stroke-miterlimit:4;stroke-dasharray:none;stroke-dashoffset:0;stroke-opacity:1;visibility:visible;display:inline;overflow:visible" />
    </g>
    <path
       d="M 0.99999999,3 L 31,3 L 31,9.9333362 L 0.99999999,16 L 0.99999999,3 z"
       id="rect6588"
       style="fill:url(#linearGradient2536);fill-opacity:1;stroke:none" />
  </g>
</svg>
