<?xml version="1.0" encoding="UTF-8" standalone="no"?>
<!-- Created with Inkscape (http://www.inkscape.org/) -->
<svg
   xmlns:svg="http://www.w3.org/2000/svg"
   xmlns="http://www.w3.org/2000/svg"
   xmlns:xlink="http://www.w3.org/1999/xlink"
   version="1.0"
   width="16"
   height="16"
   id="svg3821">
  <defs
     id="defs3823">
    <linearGradient
       x1="29.105537"
       y1="13.696465"
       x2="29.105537"
       y2="38.358852"
       id="linearGradient3809"
       xlink:href="#linearGradient3587-6-5"
       gradientUnits="userSpaceOnUse"
       gradientTransform="matrix(0.3655063,0,0,0.3655063,-8.4465313,-1.0061434)" />
    <linearGradient
       id="linearGradient3587-6-5">
      <stop
         id="stop3589-9-2"
         style="stop-color:#000000;stop-opacity:1"
         offset="0" />
      <stop
         id="stop3591-7-4"
         style="stop-color:#363636;stop-opacity:1"
         offset="1" />
    </linearGradient>
    <linearGradient
       x1="31.878714"
       y1="13.696465"
       x2="31.878714"
       y2="38.396244"
       id="linearGradient3802"
       xlink:href="#linearGradient3587-6-5"
       gradientUnits="userSpaceOnUse"
       gradientTransform="translate(-24.542893,-2.6003598)" />
  </defs>
  <g
     id="layer1">
    <path
       d="M 4.5,5 C 2.0160002,5 -3.3277708e-15,7.0160005 0,9.5 C 2.8912058e-19,11.984 2.0160004,14 4.5,14 C 5.654835,14 6.703025,13.559677 7.5,12.84375 C 6.5827164,12.019749 6,10.829165 6,9.5 C 6,8.1708353 6.5827164,6.9802514 7.5,6.15625 C 6.703025,5.4403226 5.6548351,5.0000001 4.5,5 z"
       id="path3811"
       style="opacity:0.6;fill:#ffffff;fill-opacity:1;fill-rule:evenodd;stroke:none;stroke-width:3.07792211;stroke-linecap:butt;stroke-linejoin:miter;marker:none;marker-start:none;marker-mid:none;marker-end:none;stroke-miterlimit:4;stroke-dasharray:none;stroke-dashoffset:0;stroke-opacity:1;visibility:visible;display:inline;overflow:visible;enable-background:accumulate" />
    <path
       d="M 23.18961,23.407793 A 12.311688,12.311688 0 1 1 -1.4337664,23.407793 A 12.311688,12.311688 0 1 1 23.18961,23.407793 z"
       transform="matrix(0.3655063,0,0,0.3655063,7.5240506,0.9443045)"
       id="path3813"
       style="opacity:0.6;fill:#ffffff;fill-opacity:1;fill-rule:evenodd;stroke:none;stroke-width:3.07792211;stroke-linecap:butt;stroke-linejoin:miter;marker:none;marker-start:none;marker-mid:none;marker-end:none;stroke-miterlimit:4;stroke-dasharray:none;stroke-dashoffset:0;stroke-opacity:1;visibility:visible;display:inline;overflow:visible;enable-background:accumulate" />
    <path
       d="M 4.5,4 C 2.0160002,4 -3.3277708e-15,6.0160005 0,8.5 C 2.8912058e-19,10.984 2.0160004,13 4.5,13 C 5.654835,13 6.6123842,12.650318 7.4093592,11.934391 C 6.4920756,11.11039 6,9.8291648 6,8.5 C 6,7.1708353 6.4467552,5.8896106 7.3640388,5.0656092 C 6.5670638,4.3496818 5.6548351,4.0000001 4.5,4 z"
       id="path5475"
       style="opacity:0.7;fill:url(#linearGradient3809);fill-opacity:1;fill-rule:evenodd;stroke:none;stroke-width:3.07792211;stroke-linecap:butt;stroke-linejoin:miter;marker:none;marker-start:none;marker-mid:none;marker-end:none;stroke-miterlimit:4;stroke-dasharray:none;stroke-dashoffset:0;stroke-opacity:1;visibility:visible;display:inline;overflow:visible;enable-background:accumulate" />
    <path
       d="M 23.18961,23.407793 A 12.311688,12.311688 0 1 1 -1.4337664,23.407793 A 12.311688,12.311688 0 1 1 23.18961,23.407793 z"
       transform="matrix(0.3655063,0,0,0.3655063,7.5240506,-5.56955e-2)"
       id="path5477"
       style="opacity:0.7;fill:url(#linearGradient3802);fill-opacity:1;fill-rule:evenodd;stroke:none;stroke-width:3.07792211;stroke-linecap:butt;stroke-linejoin:miter;marker:none;marker-start:none;marker-mid:none;marker-end:none;stroke-miterlimit:4;stroke-dasharray:none;stroke-dashoffset:0;stroke-opacity:1;visibility:visible;display:inline;overflow:visible;enable-background:accumulate" />
  </g>
</svg>
