<?xml version="1.0" encoding="UTF-8" standalone="no"?>
<!-- Created with Inkscape (http://www.inkscape.org/) -->

<svg
   xmlns:dc="http://purl.org/dc/elements/1.1/"
   xmlns:cc="http://creativecommons.org/ns#"
   xmlns:rdf="http://www.w3.org/1999/02/22-rdf-syntax-ns#"
   xmlns:svg="http://www.w3.org/2000/svg"
   xmlns="http://www.w3.org/2000/svg"
   xmlns:xlink="http://www.w3.org/1999/xlink"
   xmlns:sodipodi="http://sodipodi.sourceforge.net/DTD/sodipodi-0.dtd"
   xmlns:inkscape="http://www.inkscape.org/namespaces/inkscape"
   version="1.0"
   width="22"
   height="22"
   id="svg3721"
   inkscape:version="0.48+devel r"
   sodipodi:docname="accessories-calculator.svg"
   inkscape:export-filename="/home/sergio/Pictures/elementary-xfce/elementary-xfce/apps/24/accessories-calculator.png"
   inkscape:export-xdpi="90"
   inkscape:export-ydpi="90">
  <metadata
     id="metadata147771">
    <rdf:RDF>
      <cc:Work
         rdf:about="">
        <dc:format>image/svg+xml</dc:format>
        <dc:type
           rdf:resource="http://purl.org/dc/dcmitype/StillImage" />
        <dc:title></dc:title>
      </cc:Work>
    </rdf:RDF>
  </metadata>
  <sodipodi:namedview
     pagecolor="#ffffff"
     bordercolor="#666666"
     borderopacity="1"
     objecttolerance="10"
     gridtolerance="10"
     guidetolerance="10"
     inkscape:pageopacity="0"
     inkscape:pageshadow="2"
     inkscape:window-width="1535"
     inkscape:window-height="876"
     id="namedview147769"
     showgrid="true"
     inkscape:zoom="16"
     inkscape:cx="6.5448083"
     inkscape:cy="20.312998"
     inkscape:window-x="65"
     inkscape:window-y="24"
     inkscape:window-maximized="1"
     inkscape:current-layer="svg3721">
    <inkscape:grid
       type="xygrid"
       id="grid4153" />
  </sodipodi:namedview>
  <defs
     id="defs3723">
    <linearGradient
       id="linearGradient2490-654-721">
      <stop
         id="stop2913"
         style="stop-color:#545454;stop-opacity:1"
         offset="0" />
      <stop
         id="stop2915"
         style="stop-color:#a4a4a4;stop-opacity:1"
         offset="1" />
    </linearGradient>
    <linearGradient
       x1="31.278551"
       y1="56.744396"
       x2="31.278551"
       y2="4.0075235"
       id="linearGradient3529"
       xlink:href="#linearGradient2490-654-721"
       gradientUnits="userSpaceOnUse"
       gradientTransform="matrix(0.51516869,0,0,0.51201602,-1.3640514,-1.8042512)" />
    <linearGradient
       id="linearGradient2556">
      <stop
         id="stop2558"
         style="stop-color:#dcdcdc;stop-opacity:1"
         offset="0" />
      <stop
         id="stop2564"
         style="stop-color:#b4b4b4;stop-opacity:1"
         offset="1" />
    </linearGradient>
    <linearGradient
       x1="22.505953"
       y1="7.5892501"
       x2="22.505953"
       y2="62.539955"
       id="linearGradient3527"
       xlink:href="#linearGradient2556"
       gradientUnits="userSpaceOnUse"
       gradientTransform="matrix(0.53080063,0,0,0.57557092,-3.0665519,-4.1204861)" />
    <linearGradient
       id="linearGradient5638">
      <stop
         id="stop5640"
         style="stop-color:#ffffff;stop-opacity:1"
         offset="0" />
      <stop
         id="stop5642"
         style="stop-color:#ffffff;stop-opacity:0"
         offset="1" />
    </linearGradient>
    <linearGradient
       x1="24.052597"
       y1="5.0074263"
       x2="24.052597"
       y2="45.054726"
       id="linearGradient3524"
       xlink:href="#linearGradient5638"
       gradientUnits="userSpaceOnUse"
       gradientTransform="matrix(0.48646366,0,0,0.48698142,-0.70071158,-1.178151)" />
    <linearGradient
       x1="24"
       y1="17"
       x2="24"
       y2="4.9924679"
       id="linearGradient3634"
       xlink:href="#linearGradient3426"
       gradientUnits="userSpaceOnUse"
       gradientTransform="matrix(0.34482762,0,0,0.36363639,0.22413701,10.500007)" />
    <linearGradient
       id="linearGradient3341">
      <stop
         id="stop3343"
         style="stop-color:#ffffff;stop-opacity:1"
         offset="0" />
      <stop
         id="stop3345"
         style="stop-color:#ffffff;stop-opacity:0"
         offset="1" />
    </linearGradient>
    <linearGradient
       x1="22.162495"
       y1="13.755174"
       x2="21.643173"
       y2="3.6441264"
       id="linearGradient3627"
       xlink:href="#linearGradient3341"
       gradientUnits="userSpaceOnUse"
       gradientTransform="matrix(0.50337092,0,0,0.61690348,-1.0808997,-2.3183249)" />
    <linearGradient
       x1="24"
       y1="17"
       x2="24"
       y2="4.9924679"
       id="linearGradient3705"
       xlink:href="#linearGradient3426"
       gradientUnits="userSpaceOnUse"
       gradientTransform="matrix(0.1724138,0,0,0.72727277,11.862068,8.5000011)" />
    <linearGradient
       x1="24"
       y1="17"
       x2="24"
       y2="4.9924679"
       id="linearGradient3710"
       xlink:href="#linearGradient3426"
       gradientUnits="userSpaceOnUse"
       gradientTransform="matrix(0.51724143,0,0,0.36363635,-1.413794,6.5000078)" />
    <linearGradient
       id="linearGradient3426">
      <stop
         id="stop3428"
         style="stop-color:#ffffff;stop-opacity:1"
         offset="0" />
      <stop
         id="stop3431"
         style="stop-color:#ffffff;stop-opacity:0"
         offset="1" />
    </linearGradient>
    <linearGradient
       x1="24"
       y1="17"
       x2="24"
       y2="4.9924679"
       id="linearGradient3719"
       xlink:href="#linearGradient3426"
       gradientUnits="userSpaceOnUse"
       gradientTransform="matrix(0.34482756,0,0,0.36363635,0.22413771,14.500007)" />
    <linearGradient
       x1="24"
       y1="17"
       x2="24"
       y2="4.9924679"
       id="linearGradient3710-3"
       xlink:href="#linearGradient3426-9"
       gradientUnits="userSpaceOnUse"
       gradientTransform="matrix(0.51724142,0,0,0.54545447,-1.4137939,-1.4999989)" />
    <linearGradient
       id="linearGradient3426-9">
      <stop
         id="stop3428-4"
         style="stop-color:#ffffff;stop-opacity:1"
         offset="0" />
      <stop
         id="stop3431-9"
         style="stop-color:#ffffff;stop-opacity:0"
         offset="1" />
    </linearGradient>
  </defs>
  <rect
     style="fill:url(#linearGradient3527);fill-opacity:1;fill-rule:nonzero;stroke:url(#linearGradient3529);stroke-width:1.01505852;stroke-linecap:round;stroke-linejoin:miter;stroke-miterlimit:6;stroke-opacity:1;stroke-dasharray:none;stroke-dashoffset:1.4;marker:none;visibility:visible;display:inline;overflow:visible"
     id="rect2157"
     y="0.50752693"
     x="2.5075293"
     ry="1.0296873"
     rx="1.0355476"
     height="20.984941"
     width="16.984941" />
  <rect
     style="opacity:0.4;fill:none;stroke:url(#linearGradient3524);stroke-width:1.01505852;stroke-linecap:round;stroke-linejoin:miter;stroke-miterlimit:6;stroke-opacity:1;stroke-dasharray:none;stroke-dashoffset:1.4;marker:none;visibility:visible;display:inline;overflow:visible"
     id="rect3052"
     y="1.5075294"
     x="3.5075295"
     ry="0.10959189"
     rx="0.097316496"
     height="18.984941"
     width="14.984941" />
  <rect
     style="fill:#4d4d4d;fill-opacity:1;fill-rule:nonzero;stroke:#000000;stroke-width:0.99999976;stroke-opacity:1;marker:none;visibility:visible;display:inline;overflow:visible"
     id="rect2662"
     y="2.5"
     x="4.499999"
     ry="0.52277237"
     rx="0.56636345"
     height="4"
     width="13" />
  <rect
     style="opacity:0.4;fill:none;stroke:url(#linearGradient3634);stroke-width:1;stroke-miterlimit:4;stroke-opacity:1;stroke-dasharray:none;marker:none;visibility:visible;display:inline;overflow:visible"
     id="rect3424"
     y="12.500006"
     x="3.5000002"
     ry="1.2933247"
     rx="1.1412365"
     height="4.0000005"
     width="10.000001" />
  <path
     inkscape:connector-curvature="0"
     style="opacity:0.3;fill:url(#linearGradient3627);fill-opacity:1;fill-rule:nonzero;stroke:none;stroke-width:0.99999994;marker:none;visibility:visible;display:inline;overflow:visible"
     id="rect3336"
     d="m 4.6134828,1.9999998 c -0.3379672,0 -0.6134831,0.3112984 -0.6134831,0.713295 l 0,3.086705 L 18,3.3173654 18,2.7132948 c 0,-0.4019965 -0.275515,-0.713295 -0.613483,-0.713295 l -12.7730342,0 z" />
  <path
     style="fill:#333333;fill-opacity:1;fill-rule:nonzero;stroke:#000000;stroke-width:0.99600387;stroke-opacity:1;marker:none;visibility:visible;display:inline;overflow:visible;enable-background:accumulate"
     d="m 14.998668,13.498002 2.002664,0 c 0.273951,0 0.500666,0.228755 0.500666,0.500333 l 0,5.00333 c 0,0.259851 -0.234538,0.500333 -0.500666,0.500333 l -2.002664,0 c -0.254396,0 -0.500666,-0.24439 -0.500666,-0.500333 l 0,-5.00333 c 0,-0.26376 0.24627,-0.500333 0.500666,-0.500333 z"
     id="path4147"
     inkscape:connector-curvature="0"
     sodipodi:nodetypes="sssssssss" />
  <path
     style="fill:#333333;fill-opacity:1;fill-rule:nonzero;stroke:#000000;stroke-width:0.99600387;stroke-opacity:1;marker:none;visibility:visible;display:inline;overflow:visible;enable-background:accumulate"
     d="m 9.9986681,13.498001 2.0026639,0 c 0.282688,0 0.500666,0.241163 0.500666,0.500999 l 0,1.001998 c 0,0.237695 -0.217978,0.501 -0.500666,0.501 l -2.0026639,0 c -0.243965,0 -0.5006663,-0.26884 -0.5006663,-0.501 l 0,-1.001998 c 0,-0.24323 0.2345753,-0.500999 0.5006663,-0.500999 z"
     id="path4139"
     inkscape:connector-curvature="0"
     sodipodi:nodetypes="sssssssss" />
  <rect
     style="opacity:0.4;fill:none;stroke:url(#linearGradient3705);stroke-width:1;stroke-miterlimit:4;stroke-opacity:1;stroke-dasharray:none;marker:none;visibility:visible;display:inline;overflow:visible"
     id="rect3703"
     y="12.500002"
     x="13.499998"
     ry="1.1947956"
     rx="1.2658321"
     height="8"
     width="5" />
  <rect
     style="opacity:0.4;fill:none;stroke:url(#linearGradient3710);stroke-width:1.00000012;stroke-miterlimit:4;stroke-opacity:1;stroke-dasharray:none;marker:none;visibility:visible;display:inline;overflow:visible"
     id="rect3707"
     y="8.5000067"
     x="3.5000002"
     ry="1.2959353"
     rx="1.1214664"
     height="4"
     width="14.999999" />
  <rect
     style="opacity:0.4;fill:none;stroke:url(#linearGradient3719);stroke-width:1.00000012;stroke-miterlimit:4;stroke-opacity:1;stroke-dasharray:none;marker:none;visibility:visible;display:inline;overflow:visible"
     id="rect3717"
     y="16.500006"
     x="3.5000002"
     ry="1.3519773"
     rx="1.1266477"
     height="4"
     width="10" />
  <rect
     style="opacity:0.4;fill:none;stroke:url(#linearGradient3710-3);stroke-width:1.00000012;stroke-miterlimit:4;stroke-opacity:1;stroke-dasharray:none;marker:none;visibility:visible;display:inline;overflow:visible"
     id="rect3707-8"
     y="1.5000006"
     x="3.5000002"
     ry="1.9439027"
     rx="1.1214663"
     height="6"
     width="14.999999" />
  <path
     style="fill:#333333;fill-opacity:1;fill-rule:nonzero;stroke:#000000;stroke-width:0.99600387;stroke-opacity:1;marker:none;visibility:visible;display:inline;overflow:visible;enable-background:accumulate"
     d="m 4.9986674,13.498002 2.002664,0 c 0.282688,0 0.500666,0.241163 0.500666,0.500999 l 0,1.001998 c 0,0.237695 -0.217978,0.501 -0.500666,0.501 l -2.002664,0 c -0.2439646,0 -0.500666,-0.26884 -0.500666,-0.501 l 0,-1.001998 c 0,-0.24323 0.234575,-0.500999 0.500666,-0.500999 z"
     id="path4139-5"
     inkscape:connector-curvature="0"
     sodipodi:nodetypes="sssssssss" />
  <path
     style="fill:#4d4d4d;fill-opacity:1;fill-rule:nonzero;stroke:#000000;stroke-width:0.99600387;stroke-opacity:1;marker:none;visibility:visible;display:inline;overflow:visible;enable-background:accumulate"
     d="m 4.9986674,9.498002 2.002664,0 c 0.282688,0 0.500666,0.241163 0.500666,0.500999 l 0,1.001998 c 0,0.237695 -0.217978,0.500999 -0.500666,0.500999 l -2.002664,0 c -0.2439646,0 -0.500666,-0.268839 -0.500666,-0.500999 l 0,-1.001998 c 0,-0.24323 0.234575,-0.500999 0.500666,-0.500999 z"
     id="path4139-0"
     inkscape:connector-curvature="0"
     sodipodi:nodetypes="sssssssss" />
  <path
     style="fill:#333333;fill-opacity:1;fill-rule:nonzero;stroke:#000000;stroke-width:0.99600387;stroke-opacity:1;marker:none;visibility:visible;display:inline;overflow:visible;enable-background:accumulate"
     d="m 9.9986681,9.498002 2.0026639,0 c 0.282688,0 0.500666,0.241163 0.500666,0.500999 l 0,1.001998 c 0,0.237695 -0.217978,0.500999 -0.500666,0.500999 l -2.0026639,0 c -0.243965,0 -0.5006663,-0.268839 -0.5006663,-0.500999 l 0,-1.001998 c 0,-0.24323 0.2345753,-0.500999 0.5006663,-0.500999 z"
     id="path4139-9"
     inkscape:connector-curvature="0"
     sodipodi:nodetypes="sssssssss" />
  <path
     style="fill:#333333;fill-opacity:1;fill-rule:nonzero;stroke:#000000;stroke-width:0.99600387;stroke-opacity:1;marker:none;visibility:visible;display:inline;overflow:visible;enable-background:accumulate"
     d="m 14.998667,9.498002 2.002664,0 c 0.282688,0 0.500666,0.241163 0.500666,0.500999 l 0,1.001998 c 0,0.237695 -0.217978,0.500999 -0.500666,0.500999 l -2.002664,0 c -0.243964,0 -0.500666,-0.268839 -0.500666,-0.500999 l 0,-1.001998 c 0,-0.24323 0.234575,-0.500999 0.500666,-0.500999 z"
     id="path4139-7"
     inkscape:connector-curvature="0"
     sodipodi:nodetypes="sssssssss" />
  <path
     style="fill:#333333;fill-opacity:1;fill-rule:nonzero;stroke:#000000;stroke-width:0.99600387;stroke-opacity:1;marker:none;visibility:visible;display:inline;overflow:visible;enable-background:accumulate"
     d="m 4.9986676,17.498002 2.002664,0 c 0.282688,0 0.500666,0.241163 0.500666,0.501 l 0,1.001998 c 0,0.237695 -0.217978,0.500999 -0.500666,0.500999 l -2.002664,0 c -0.2439645,0 -0.500666,-0.268839 -0.500666,-0.500999 l 0,-1.001998 c 0,-0.24323 0.234575,-0.501 0.500666,-0.501 z"
     id="path4139-2"
     inkscape:connector-curvature="0"
     sodipodi:nodetypes="sssssssss" />
  <path
     style="fill:#333333;fill-opacity:1;fill-rule:nonzero;stroke:#000000;stroke-width:0.99600387;stroke-opacity:1;marker:none;visibility:visible;display:inline;overflow:visible;enable-background:accumulate"
     d="m 9.9986681,17.498001 2.0026639,0 c 0.282688,0 0.500666,0.241163 0.500666,0.501 l 0,1.001998 c 0,0.237695 -0.217978,0.500999 -0.500666,0.500999 l -2.0026639,0 c -0.243965,0 -0.5006663,-0.268839 -0.5006663,-0.500999 l 0,-1.001998 c 0,-0.243231 0.2345753,-0.501 0.5006663,-0.501 z"
     id="path4139-97"
     inkscape:connector-curvature="0"
     sodipodi:nodetypes="sssssssss" />
  <rect
     style="opacity:0.3;fill:#ffffff;fill-opacity:1;stroke:none"
     id="rect4196-6"
     width="1"
     height="2"
     x="14.999996"
     y="15.000004"
     rx="0.016364288"
     ry="0.0545187" />
  <rect
     style="opacity:0.3;fill:#ffffff;fill-opacity:1;stroke:none"
     id="rect4196-5-6"
     width="2"
     height="1"
     x="5.0000005"
     y="10.000004"
     rx="0.032728575"
     ry="0.02725935" />
  <rect
     style="opacity:0.3;fill:#ffffff;fill-opacity:1;stroke:none"
     id="rect4196-5-6-9"
     width="2"
     height="1"
     x="5.0000005"
     y="14.000004"
     rx="0.032728575"
     ry="0.02725935" />
  <rect
     style="opacity:0.3;fill:#ffffff;fill-opacity:1;stroke:none"
     id="rect4196-5-6-6"
     width="2"
     height="1"
     x="9.9999962"
     y="10.000004"
     rx="0.032728575"
     ry="0.02725935" />
  <rect
     style="opacity:0.3;fill:#ffffff;fill-opacity:1;stroke:none"
     id="rect4196-5-6-3"
     width="2"
     height="1"
     x="9.9999962"
     y="14.000004"
     rx="0.032728575"
     ry="0.02725935" />
  <rect
     style="opacity:0.3;fill:#ffffff;fill-opacity:1;stroke:none"
     id="rect4196-5-6-4"
     width="2"
     height="1"
     x="14.999996"
     y="10.000004"
     rx="0.032728575"
     ry="0.02725935" />
  <rect
     style="opacity:0.3;fill:#ffffff;fill-opacity:1;stroke:none"
     id="rect4196-5-6-2"
     width="2"
     height="1"
     x="5.0000005"
     y="18.000004"
     rx="0.032728575"
     ry="0.02725935" />
  <rect
     style="opacity:0.3;fill:#ffffff;fill-opacity:1;stroke:none"
     id="rect4196-5-6-8"
     width="2"
     height="1"
     x="9.9999962"
     y="18.000004"
     rx="0.032728575"
     ry="0.02725935" />
  <rect
     style="opacity:0.3;fill:#ffffff;fill-opacity:1;stroke:none"
     id="rect4196-5-6-7"
     width="2"
     height="1"
     x="14.999996"
     y="14.000004"
     rx="0.032728575"
     ry="0.02725935" />
  <rect
     style="opacity:0.3;fill:#ffffff;fill-opacity:1;stroke:none"
     id="rect4196-6-5"
     width="1"
     height="1"
     x="14.999996"
     y="17"
     rx="0.016364288"
     ry="0.02725935" />
  <rect
     style="opacity:0.15;fill:#ffffff;fill-opacity:1;stroke:none"
     id="rect4196-6-5-0"
     width="1"
     height="1"
     x="14.999996"
     y="18"
     rx="0.016364288"
     ry="0.02725935" />
</svg>
