<?xml version="1.0" encoding="UTF-8" standalone="no"?>
<svg
   xmlns:dc="http://purl.org/dc/elements/1.1/"
   xmlns:cc="http://creativecommons.org/ns#"
   xmlns:rdf="http://www.w3.org/1999/02/22-rdf-syntax-ns#"
   xmlns:svg="http://www.w3.org/2000/svg"
   xmlns="http://www.w3.org/2000/svg"
   height="48"
   width="48"
   version="1.1"
   id="svg6">
  <metadata
     id="metadata12">
    <rdf:RDF>
      <cc:Work
         rdf:about="">
        <dc:format>image/svg+xml</dc:format>
        <dc:type
           rdf:resource="http://purl.org/dc/dcmitype/StillImage" />
        <dc:title></dc:title>
      </cc:Work>
    </rdf:RDF>
  </metadata>
  <defs
     id="defs10" />
  <path
     id="path861"
     d="M 24 8 C 15.715729 8 9 15.163444 9 24 C 9.00628 24.846313 9.0755121 25.69076 9.2070312 26.525391 L 10.423828 35.873047 L 12.351562 35.619141 L 11.162109 26.585938 C 11.058071 25.89577 11.000068 25.198773 11 24.5 C 10.999999 17.044156 16.820298 11 24 11 C 31.179702 11 37.000001 17.044156 37 24.5 C 36.999932 25.198773 36.941929 25.89577 36.837891 26.585938 L 35.648438 35.619141 L 37.576172 35.873047 L 38.792969 26.525391 C 38.92449 25.69076 38.9937 24.846313 39 24 C 39 15.163444 32.284271 8 24 8 z M 16.703125 23.857422 C 16.602592 23.850378 16.500452 23.8535 16.396484 23.867188 L 14.441406 24.123047 C 13.609669 24.232547 13.027218 24.990528 13.136719 25.822266 L 14.830078 38.683594 C 14.939578 39.515331 15.697559 40.095828 16.529297 39.986328 L 18.484375 39.728516 C 19.316112 39.619015 19.89661 38.862987 19.787109 38.03125 L 18.09375 25.169922 C 17.997937 24.442152 17.406859 23.906728 16.703125 23.857422 z M 31.296875 23.857422 C 30.593141 23.906728 30.002063 24.442152 29.90625 25.169922 L 28.212891 38.03125 C 28.10339 38.862987 28.683888 39.619015 29.515625 39.728516 L 31.470703 39.986328 C 32.302441 40.095828 33.060422 39.515331 33.169922 38.683594 L 34.863281 25.822266 C 34.972782 24.990528 34.390331 24.232547 33.558594 24.123047 L 31.603516 23.867188 C 31.499548 23.8535 31.397408 23.850378 31.296875 23.857422 z "
     style="opacity:1;vector-effect:none;fill:#555761;fill-opacity:1;stroke:none;stroke-width:1.00000012;stroke-linecap:butt;stroke-linejoin:miter;stroke-miterlimit:4;stroke-dasharray:none;stroke-dashoffset:0;stroke-opacity:1;marker:none;paint-order:normal" />
</svg>
