<?xml version="1.0" encoding="UTF-8" standalone="no"?>
<svg
   xmlns:dc="http://purl.org/dc/elements/1.1/"
   xmlns:cc="http://creativecommons.org/ns#"
   xmlns:rdf="http://www.w3.org/1999/02/22-rdf-syntax-ns#"
   xmlns:svg="http://www.w3.org/2000/svg"
   xmlns="http://www.w3.org/2000/svg"
   id="svg6"
   version="1.1"
   width="48"
   height="48">
  <metadata
     id="metadata12">
    <rdf:RDF>
      <cc:Work
         rdf:about="">
        <dc:format>image/svg+xml</dc:format>
        <dc:type
           rdf:resource="http://purl.org/dc/dcmitype/StillImage" />
        <dc:title></dc:title>
      </cc:Work>
    </rdf:RDF>
  </metadata>
  <defs
     id="defs10" />
  <path
     id="path1622"
     d="M 24,8 C 15.715729,8 9,15.163444 9,24 c 0,0.865576 0.06347,1.71466 0.1875,2.542969 l 0.382812,0.06055 -0.378906,-0.05859 1.726563,8.11914 1.96289,-0.417968 -1.558593,-7.369141 h -0.0039 C 11.109431,25.951807 11,24.988294 11,24 c 0,-7.179701 5.820298,-12.999999 13,-13 7.179702,10e-7 13,5.820299 13,13 0,0.988294 -0.109424,1.9518 -0.318359,2.876953 h -0.0039 l -1.558593,7.369141 1.96289,0.417968 1.726563,-8.11914 -0.378906,0.05859 0.382812,-0.06055 C 38.93653,25.71466 39,24.865576 39,24 39,15.163444 32.284271,8 24,8 Z m -8.902344,15.324219 c -0.123231,-0.0086 -0.248547,1.84e-4 -0.375,0.02734 l -1.105468,0.238282 c -0.255922,0.05626 -0.453617,0.231418 -0.546876,0.453125 -0.264918,0.370255 0.239687,3.841959 1.175782,8.009765 0.862384,3.842269 1.804141,6.995286 2.257812,7.642578 0.02749,0.03936 0.05235,0.07018 0.07617,0.08984 0.180089,0.183945 0.449536,0.272918 0.720703,0.214844 l 1.105469,-0.240234 c 0.559263,-0.121444 0.955601,-0.575144 1.021484,-1.105469 0.136906,-0.70175 -0.335585,-3.80397 -1.160156,-7.476563 -0.854809,-3.806461 -1.789621,-6.900321 -2.193359,-7.314453 -0.226638,-0.311033 -0.584659,-0.511657 -0.976563,-0.539062 z m 17.804688,0 c -0.391904,0.02741 -0.749925,0.228029 -0.976563,0.539062 -0.403738,0.414132 -1.33855,3.507992 -2.193359,7.314453 -0.824571,3.672593 -1.297062,6.774813 -1.160156,7.476563 0.06588,0.530325 0.462221,0.984025 1.021484,1.105469 L 30.699219,40 c 0.271167,0.05807 0.540614,-0.0309 0.720703,-0.214844 0.02382,-0.01966 0.04868,-0.05048 0.07617,-0.08984 0.453671,-0.647292 1.395428,-3.800309 2.257812,-7.642578 0.936095,-4.167806 1.440701,-7.63951 1.175782,-8.009765 -0.09326,-0.221707 -0.290954,-0.396865 -0.546876,-0.453125 l -1.105468,-0.238282 c -0.126453,-0.02716 -0.251769,-0.03594 -0.375,-0.02734 z"
     style="opacity:1;vector-effect:none;fill:#555761;fill-opacity:1;stroke:none;stroke-width:1.00000012;stroke-linecap:butt;stroke-linejoin:miter;stroke-miterlimit:4;stroke-dasharray:none;stroke-dashoffset:0;stroke-opacity:1;marker:none;paint-order:normal" />
</svg>
