<svg xmlns="http://www.w3.org/2000/svg" xmlns:xlink="http://www.w3.org/1999/xlink" viewBox="0 0 48 48"><defs><linearGradient x1="71.204" y1="7.109" x2="71.204" y2="44.341" id="f" xlink:href="#a" gradientUnits="userSpaceOnUse" gradientTransform="translate(-59.436 -5.68) scale(1.16635)"/><linearGradient id="a"><stop offset="0" stop-color="#fff"/><stop offset=".348" stop-color="#fff" stop-opacity=".235"/><stop offset=".83" stop-color="#fff" stop-opacity=".157"/><stop offset="1" stop-color="#fff" stop-opacity=".392"/></linearGradient><linearGradient id="b"><stop offset="0" stop-color="#90dbec"/><stop offset=".262" stop-color="#42baea"/><stop offset=".705" stop-color="#3689e6"/><stop offset="1" stop-color="#2b63a0"/></linearGradient><linearGradient id="c"><stop offset="0" stop-color="#3d3d3d"/><stop offset=".5" stop-color="#686868" stop-opacity=".498"/><stop offset="1" stop-color="#686868" stop-opacity="0"/></linearGradient><radialGradient gradientTransform="matrix(0 3.01748 -3.19213 0 50.973 -14.24)" gradientUnits="userSpaceOnUse" xlink:href="#b" id="e" fy="8.45" fx="2.961" r="20" cy="8.45" cx="2.961"/><radialGradient gradientTransform="matrix(.2549 0 0 .07965 -1.275 28.17)" gradientUnits="userSpaceOnUse" xlink:href="#c" id="d" fy="186.171" fx="99.157" r="62.769" cy="186.171" cx="99.157"/></defs><path d="M40 43a16 5 0 1 1-32 0 16 5 0 1 1 32 0z" fill="url(#d)"/><rect style="isolation:auto;mix-blend-mode:normal;filter-blend-mode:normal;filter-gaussianBlur-deviation:0" y="1.515" x="7.516" ry="16.485" rx="16.485" height="44.969" width="32.969" color="#000" overflow="visible" fill="url(#e)"/><rect y="2.517" x="8.517" ry="15.483" rx="15.483" height="42.967" width="30.967" color="#000" overflow="visible" opacity=".5" fill="none" stroke="url(#f)" stroke-linecap="round" stroke-linejoin="round"/><rect style="isolation:auto;mix-blend-mode:normal;filter-blend-mode:normal;filter-gaussianBlur-deviation:0" y="1.515" x="7.516" ry="16.485" rx="16.485" height="44.969" width="32.969" color="#000" overflow="visible" stroke="#00537d" stroke-linecap="round" stroke-linejoin="round" opacity=".5" fill="none"/><path style="isolation:auto;mix-blend-mode:normal;filter-blend-mode:normal;filter-gaussianBlur-deviation:0" d="M22 7v14.406l-6.375-4.687-1.72 2.34L22 25v2l-8 7 1.844 2.125 6.156-5.5V43l13-12-7.375-5.438 7.22-6.437L22 7zm3 6.906l5.406 5.156L25 23.75v-9.844zm0 12.75l5.406 4.688L25 36.5v-9.844z" color="#000" overflow="visible" opacity=".15"/><path style="isolation:auto;mix-blend-mode:normal;filter-blend-mode:normal;filter-gaussianBlur-deviation:0" d="M21.957 6a1.002 1.002 0 0 0-.96 1v12.426l-4.778-3.514a1.002 1.002 0 0 0-1.407.215l-1.718 2.344a1.002 1.002 0 0 0 .216 1.4l7.685 5.64v1.038l-7.658 6.7a1.002 1.002 0 0 0-.097 1.41l1.845 2.126a1.002 1.002 0 0 0 1.424.09l4.485-4.007V43a1.002 1.002 0 0 0 1.682.736l13-12a1.002 1.002 0 0 0-.087-1.543l-6.38-4.705 6.297-5.615a1.002 1.002 0 0 0 .02-1.477L22.687 6.27a1.002 1.002 0 0 0-.73-.27zm4.045 10.246l2.916 2.78-2.916 2.53v-5.31zm0 12.604l2.916 2.53-2.916 2.78v-5.31z" color="#000" overflow="visible" opacity=".05"/><path d="M22 6v14.406l-6.375-4.687-1.72 2.34L22 24v2l-8 7 1.844 2.125 6.156-5.5V42l13-12-7.375-5.438 7.22-6.437L22 6zm3 6.906l5.406 5.156L25 22.75v-9.844zm0 12.75l5.406 4.688L25 35.5v-9.844z" color="#000" overflow="visible" fill="#fff"/></svg>