<?xml version="1.0" encoding="UTF-8" standalone="no"?>
<!-- Created with Inkscape (http://www.inkscape.org/) -->
<svg
   xmlns:dc="http://purl.org/dc/elements/1.1/"
   xmlns:cc="http://creativecommons.org/ns#"
   xmlns:rdf="http://www.w3.org/1999/02/22-rdf-syntax-ns#"
   xmlns:svg="http://www.w3.org/2000/svg"
   xmlns="http://www.w3.org/2000/svg"
   xmlns:xlink="http://www.w3.org/1999/xlink"
   xmlns:sodipodi="http://sodipodi.sourceforge.net/DTD/sodipodi-0.dtd"
   xmlns:inkscape="http://www.inkscape.org/namespaces/inkscape"
   version="1.1"
   width="48"
   height="48"
   id="svg7777"
   sodipodi:version="0.32"
   inkscape:version="0.46"
   sodipodi:docname="camera-photo.svg"
   inkscape:output_extension="org.inkscape.output.svg.inkscape">
  <metadata
     id="metadata105">
    <rdf:RDF>
      <cc:Work
         rdf:about="">
        <dc:format>image/svg+xml</dc:format>
        <dc:type
           rdf:resource="http://purl.org/dc/dcmitype/StillImage" />
      </cc:Work>
    </rdf:RDF>
  </metadata>
  <sodipodi:namedview
     inkscape:window-height="793"
     inkscape:window-width="1440"
     inkscape:pageshadow="2"
     inkscape:pageopacity="0.0"
     guidetolerance="10.0"
     gridtolerance="10.0"
     objecttolerance="10.0"
     borderopacity="1.0"
     bordercolor="#666666"
     pagecolor="#ffffff"
     id="base"
     showgrid="false"
     inkscape:zoom="5.1875"
     inkscape:cx="24"
     inkscape:cy="24"
     inkscape:window-x="0"
     inkscape:window-y="24"
     inkscape:current-layer="svg7777" />
  <defs
     id="defs7779">
    <linearGradient
       id="linearGradient10695">
      <stop
         id="stop10697"
         style="stop-color:#0052cb;stop-opacity:1"
         offset="0" />
      <stop
         id="stop10699"
         style="stop-color:#204a87;stop-opacity:0"
         offset="1" />
    </linearGradient>
    <radialGradient
       cx="171.25"
       cy="188.5"
       r="19"
       fx="171.25"
       fy="188.5"
       id="radialGradient10159"
       xlink:href="#linearGradient10695"
       gradientUnits="userSpaceOnUse"
       gradientTransform="matrix(1.263432,0,0,1.263432,-45.112728,-49.65693)" />
    <clipPath
       id="clipPath10731">
      <path
         d="m 225.55424,397.96981 35.5064,0 c 0.13661,0 0.24657,0.11972 0.24657,0.2685 4.1015,9.60683 2.90618,22.29519 0,28.98217 0,0.14878 -0.10994,0.26851 -0.24657,0.26851 l -35.5064,0 c -0.13659,0 -0.24656,-0.11973 -0.24656,-0.26851 -4.14573,-8.19397 -4.08078,-21.3758 0,-28.98217 0,-0.14878 0.10994,-0.2685 0.24656,-0.2685 z"
         id="path10733"
         style="color:black;fill:black;fill-opacity:1;fill-rule:nonzero;stroke:none;stroke-width:1;marker:none;visibility:visible;display:inline;overflow:visible;enable-background:new" />
    </clipPath>
    <linearGradient
       id="linearGradient11571">
      <stop
         id="stop11573"
         style="stop-color:#757575;stop-opacity:1"
         offset="0" />
      <stop
         id="stop11575"
         style="stop-color:#757575;stop-opacity:0"
         offset="1" />
    </linearGradient>
    <radialGradient
       cx="245"
       cy="116.23438"
       r="4.6875"
       fx="245"
       fy="116.23438"
       id="radialGradient10147"
       xlink:href="#linearGradient11571"
       gradientUnits="userSpaceOnUse"
       gradientTransform="matrix(2.5415476,0,0,1.5842313,-377.67916,-67.90777)" />
    <linearGradient
       id="linearGradient11017">
      <stop
         id="stop11019"
         style="stop-color:#67767d;stop-opacity:1"
         offset="0" />
      <stop
         id="stop11025"
         style="stop-color:#eef0f1;stop-opacity:1"
         offset="0.17504421" />
      <stop
         id="stop11027"
         style="stop-color:#f1f3f4;stop-opacity:1"
         offset="0.825611" />
      <stop
         id="stop11021"
         style="stop-color:#89939d;stop-opacity:1"
         offset="1" />
    </linearGradient>
    <linearGradient
       id="linearGradient9396-7">
      <stop
         id="stop9398-0"
         style="stop-color:#cfcfcf;stop-opacity:1"
         offset="0" />
      <stop
         id="stop9408-2"
         style="stop-color:#dfdfdf;stop-opacity:1"
         offset="0.17611465" />
      <stop
         id="stop9410-6"
         style="stop-color:#b3b3b3;stop-opacity:1"
         offset="0.26417196" />
      <stop
         id="stop9412-8"
         style="stop-color:white;stop-opacity:1"
         offset="0.36967784" />
      <stop
         id="stop9404-2"
         style="stop-color:#f0f0f0;stop-opacity:1"
         offset="0.47518376" />
      <stop
         id="stop9406-5"
         style="stop-color:#999;stop-opacity:1"
         offset="0.75" />
      <stop
         id="stop9400-1"
         style="stop-color:#d9d9d9;stop-opacity:1"
         offset="1" />
    </linearGradient>
    <linearGradient
       id="linearGradient11463">
      <stop
         id="stop11465"
         style="stop-color:#202121;stop-opacity:1"
         offset="0" />
      <stop
         id="stop11467"
         style="stop-color:#667377;stop-opacity:1"
         offset="1" />
    </linearGradient>
    <linearGradient
       id="linearGradient9517-7">
      <stop
         id="stop9519-6"
         style="stop-color:#ababab;stop-opacity:1"
         offset="0" />
      <stop
         id="stop9525-3"
         style="stop-color:white;stop-opacity:1"
         offset="0.36250788" />
      <stop
         id="stop9521-8"
         style="stop-color:#52544e;stop-opacity:1"
         offset="1" />
    </linearGradient>
    <linearGradient
       id="linearGradient9396">
      <stop
         id="stop9398"
         style="stop-color:#cfcfcf;stop-opacity:1"
         offset="0" />
      <stop
         id="stop9408"
         style="stop-color:#dfdfdf;stop-opacity:1"
         offset="0.17611465" />
      <stop
         id="stop9410"
         style="stop-color:#b3b3b3;stop-opacity:1"
         offset="0.26417196" />
      <stop
         id="stop9412"
         style="stop-color:white;stop-opacity:1"
         offset="0.36967784" />
      <stop
         id="stop9404"
         style="stop-color:#f0f0f0;stop-opacity:1"
         offset="0.47518376" />
      <stop
         id="stop9406"
         style="stop-color:#999;stop-opacity:1"
         offset="0.75" />
      <stop
         id="stop9400"
         style="stop-color:#d9d9d9;stop-opacity:1"
         offset="1" />
    </linearGradient>
    <linearGradient
       id="linearGradient9119">
      <stop
         id="stop9121"
         style="stop-color:white;stop-opacity:1"
         offset="0" />
      <stop
         id="stop9123"
         style="stop-color:white;stop-opacity:0"
         offset="1" />
    </linearGradient>
    <linearGradient
       id="linearGradient11071">
      <stop
         id="stop11073"
         style="stop-color:white;stop-opacity:1"
         offset="0" />
      <stop
         id="stop11075"
         style="stop-color:#060606;stop-opacity:1"
         offset="1" />
    </linearGradient>
    <linearGradient
       id="linearGradient10169">
      <stop
         id="stop10171"
         style="stop-color:#787878;stop-opacity:1"
         offset="0" />
      <stop
         id="stop10177"
         style="stop-color:#5a5a5a;stop-opacity:1"
         offset="0.08803241" />
      <stop
         id="stop10179"
         style="stop-color:#646464;stop-opacity:1"
         offset="0.92655754" />
      <stop
         id="stop10173"
         style="stop-color:#8c8c8c;stop-opacity:1"
         offset="1" />
    </linearGradient>
    <linearGradient
       id="linearGradient9127">
      <stop
         id="stop9129"
         style="stop-color:#eee;stop-opacity:1"
         offset="0" />
      <stop
         id="stop9131"
         style="stop-color:#aaa;stop-opacity:1"
         offset="1" />
    </linearGradient>
    <radialGradient
       cx="605.71429"
       cy="486.64789"
       r="117.14286"
       fx="605.71429"
       fy="486.64789"
       id="radialGradient8272"
       xlink:href="#linearGradient5060"
       gradientUnits="userSpaceOnUse"
       gradientTransform="matrix(-2.774389,0,0,1.969706,112.7623,-872.8854)" />
    <linearGradient
       id="linearGradient5060">
      <stop
         id="stop5062"
         style="stop-color:black;stop-opacity:1"
         offset="0" />
      <stop
         id="stop5064"
         style="stop-color:black;stop-opacity:0"
         offset="1" />
    </linearGradient>
    <radialGradient
       cx="605.71429"
       cy="486.64789"
       r="117.14286"
       fx="605.71429"
       fy="486.64789"
       id="radialGradient8270"
       xlink:href="#linearGradient5060"
       gradientUnits="userSpaceOnUse"
       gradientTransform="matrix(2.774389,0,0,1.969706,-1891.633,-872.8854)" />
    <linearGradient
       id="linearGradient5048">
      <stop
         id="stop5050"
         style="stop-color:black;stop-opacity:0"
         offset="0" />
      <stop
         id="stop5056"
         style="stop-color:black;stop-opacity:1"
         offset="0.5" />
      <stop
         id="stop5052"
         style="stop-color:black;stop-opacity:0"
         offset="1" />
    </linearGradient>
    <linearGradient
       x1="302.85715"
       y1="366.64789"
       x2="302.85715"
       y2="609.50507"
       id="linearGradient8268"
       xlink:href="#linearGradient5048"
       gradientUnits="userSpaceOnUse"
       gradientTransform="matrix(2.774389,0,0,1.969706,-1892.179,-872.8854)" />
    <linearGradient
       x1="157.06261"
       y1="215.46954"
       x2="202.40768"
       y2="215.46954"
       id="linearGradient3048"
       xlink:href="#linearGradient11017"
       gradientUnits="userSpaceOnUse"
       gradientTransform="matrix(0.2205313,0,0,0.2494115,-9.6372222,-19.74057)" />
    <linearGradient
       x1="175.10832"
       y1="230.26801"
       x2="284.31732"
       y2="160.23564"
       id="linearGradient3052"
       xlink:href="#linearGradient9396-7"
       gradientUnits="userSpaceOnUse"
       gradientTransform="matrix(0.1538461,0,0,0.1481481,0.4614833,6.5923671)" />
    <linearGradient
       x1="140"
       y1="185"
       x2="244"
       y2="185"
       id="linearGradient3055"
       xlink:href="#linearGradient9517-7"
       gradientUnits="userSpaceOnUse"
       gradientTransform="matrix(0.186556,0,0,0.2035926,-3.4868684,-8.8828258)" />
    <linearGradient
       x1="169.89281"
       y1="138.41975"
       x2="160.06364"
       y2="173.93089"
       id="linearGradient3057"
       xlink:href="#linearGradient11463"
       gradientUnits="userSpaceOnUse"
       gradientTransform="matrix(0.174298,0,0,0.1800496,-1.6111376,-0.8495227)" />
    <linearGradient
       x1="181.95502"
       y1="224.42067"
       x2="249.37886"
       y2="185"
       id="linearGradient3060"
       xlink:href="#linearGradient9396"
       gradientUnits="userSpaceOnUse"
       gradientTransform="matrix(0.2307692,0,0,0.2137372,-14.307746,-9.0834169)" />
    <radialGradient
       cx="160.5"
       cy="246.5"
       r="88.5"
       fx="160.5"
       fy="246.5"
       id="radialGradient3081"
       xlink:href="#linearGradient9119"
       gradientUnits="userSpaceOnUse"
       gradientTransform="matrix(0.1865861,0,0,9.039547e-2,-3.4433155,21.217283)" />
    <linearGradient
       x1="188.80269"
       y1="135.56474"
       x2="188.80269"
       y2="207.77724"
       id="linearGradient3092"
       xlink:href="#linearGradient11071"
       gradientUnits="userSpaceOnUse"
       gradientTransform="matrix(0.2495727,0,0,0.2314814,-17.940235,-12.324297)" />
    <linearGradient
       x1="29"
       y1="168.5"
       x2="265"
       y2="168.5"
       id="linearGradient3101"
       xlink:href="#linearGradient10169"
       gradientUnits="userSpaceOnUse"
       gradientTransform="matrix(0.1853448,0,0,0.1863354,-3.245744,-1.8977505)" />
    <radialGradient
       cx="171.85692"
       cy="163.66652"
       r="106.11422"
       fx="171.85692"
       fy="163.66652"
       id="radialGradient3104"
       xlink:href="#linearGradient9127"
       gradientUnits="userSpaceOnUse"
       gradientTransform="matrix(0.300496,-8.011281e-2,0.1127046,0.4115401,-41.900719,-22.51975)" />
  </defs>
  <g
     transform="matrix(2.364027e-2,0,0,1.045244e-2,45.026494,43.57515)"
     id="g5022"
     style="display:inline">
    <rect
       width="1339.6335"
       height="478.35718"
       x="-1559.2523"
       y="-150.69685"
       id="rect4173"
       style="opacity:0.40206185;fill:url(#linearGradient8268);fill-opacity:1;fill-rule:nonzero;stroke:none;stroke-width:1;marker:none;visibility:visible;display:inline;overflow:visible" />
    <path
       d="M -219.61876,-150.68038 C -219.61876,-150.68038 -219.61876,327.65041 -219.61876,327.65041 C -76.744594,328.55086 125.78146,220.48075 125.78138,88.454235 C 125.78138,-43.572302 -33.655436,-150.68036 -219.61876,-150.68038 L -219.61876,-150.68038 z"
       id="path5058"
       style="opacity:0.40206185;fill:url(#radialGradient8270);fill-opacity:1;fill-rule:nonzero;stroke:none;stroke-width:1;marker:none;visibility:visible;display:inline;overflow:visible" />
    <path
       d="M -1559.2523,-150.68038 C -1559.2523,-150.68038 -1559.2523,327.65041 -1559.2523,327.65041 C -1702.1265,328.55086 -1904.6525,220.48075 -1904.6525,88.454235 C -1904.6525,-43.572302 -1745.2157,-150.68036 -1559.2523,-150.68038 L -1559.2523,-150.68038 z"
       id="path5018"
       style="opacity:0.40206185;fill:url(#radialGradient8272);fill-opacity:1;fill-rule:nonzero;stroke:none;stroke-width:1;marker:none;visibility:visible;display:inline;overflow:visible" />
  </g>
  <rect
     width="42"
     height="29"
     rx="1.3"
     ry="1.3"
     x="2.9999447"
     y="15.000003"
     id="rect9736"
     style="fill:url(#radialGradient3104);fill-opacity:1;fill-rule:nonzero;stroke:none;stroke-width:1;marker:none;visibility:visible;display:inline;overflow:visible;enable-background:new" />
  <rect
     width="42.999992"
     height="30"
     rx="1.8658612"
     ry="1.9545224"
     x="2.4999444"
     y="14.499765"
     id="rect10167"
     style="fill:none;stroke:url(#linearGradient3101);stroke-width:0.99999994;marker:none;stroke-miterlimit:4;stroke-dasharray:none;stroke-opacity:1;visibility:visible;display:inline;overflow:visible;enable-background:new" />
  <rect
     width="42"
     height="2"
     rx="1.5"
     ry="1.5"
     x="3"
     y="15.000003"
     id="rect9740"
     style="opacity:0.20800003;fill:#000000;fill-opacity:1;fill-rule:evenodd;stroke:none;stroke-width:1;marker:none;visibility:visible;display:inline;overflow:visible;enable-background:accumulate" />
  <path
     d="M 42.955504,30.499769 C 42.955504,37.403328 37.145154,42.999768 29.977724,42.999768 C 22.810293,42.999768 16.999943,37.403328 16.999943,30.499769 C 16.999943,23.596211 22.810293,17.999771 29.977723,17.999771 C 37.145154,17.999771 42.955504,23.596211 42.955504,30.499769 z"
     id="path9744"
     style="opacity:0.60096154;fill:url(#linearGradient3092);fill-opacity:1;fill-rule:nonzero;stroke:none;stroke-width:0.86844039;marker:none;visibility:visible;display:inline;overflow:visible;enable-background:new" />
  <g
     transform="matrix(0.15899284,0,0,0.15723769,-0.74625205,-5.3132817)"
     id="g9746" />
  <g
     transform="matrix(0.1865861,0,0,0.18452635,-4.1896599,-7.929178)"
     id="g9784" />
  <rect
     width="33.025742"
     height="0.99999988"
     x="9.9908829"
     y="42.999767"
     id="rect9790"
     style="opacity:0.4;fill:url(#radialGradient3081);fill-opacity:1;fill-rule:evenodd;stroke:none;stroke-width:1;marker:none;visibility:visible;display:inline;overflow:visible;enable-background:accumulate" />
  <path
     d="M 41.999939,30.457961 C 41.998026,36.831024 36.626004,41.996437 29.999941,41.996437 C 23.373877,41.996437 18.001855,36.831024 17.999942,30.457961 C 17.998028,24.082296 23.371171,18.912821 29.999941,18.912821 C 36.62871,18.912821 42.001853,24.082296 41.999939,30.457961 L 41.999939,30.457961 z"
     id="path9884"
     style="fill:url(#linearGradient3060);fill-opacity:1;fill-rule:evenodd;stroke:none;stroke-width:1;marker:none;visibility:visible;display:inline;overflow:visible;enable-background:accumulate" />
  <path
     d="M 29.999941,22.499772 C 25.388362,22.499772 21.595038,26.534034 21.595038,31.428512 C 21.595038,31.428512 21.499938,33.587723 21.499938,33.587723 C 21.499938,38.537575 25.335862,42.499771 29.999938,42.499771 C 34.664015,42.499771 38.499935,38.537575 38.499935,33.587723 C 38.499935,33.587723 38.404835,31.428512 38.404835,31.428512 C 38.404835,26.534034 34.611517,22.499772 29.999934,22.499772 L 29.999941,22.499772 z"
     id="path9909"
     style="fill:url(#linearGradient3055);fill-opacity:1;fill-rule:evenodd;stroke:url(#linearGradient3057);stroke-width:0.99999988;marker:none;stroke-miterlimit:4;stroke-dasharray:none;stroke-opacity:1;visibility:visible;display:inline;overflow:visible;enable-background:accumulate" />
  <path
     d="M 37.999937,33.999769 C 37.999937,38.418046 34.418216,41.999768 29.999939,41.999768 C 25.581661,41.999768 21.99994,38.418046 21.99994,33.999769 C 21.99994,29.581492 25.581661,25.99977 29.999939,25.99977 C 34.418216,25.99977 37.999937,29.581492 37.999937,33.999769 z"
     id="path9911"
     style="fill:url(#linearGradient3052);fill-opacity:1;fill-rule:evenodd;stroke:none;stroke-width:1.51115859;marker:none;visibility:visible;display:inline;overflow:visible;enable-background:accumulate" />
  <path
     d="M 35.999937,33.999771 C 35.999082,37.312874 33.313041,39.998221 29.999939,39.998221 C 26.686836,39.998221 24.000795,37.312874 23.99994,33.999771 C 23.999084,30.685458 26.685626,27.998223 29.999939,27.998223 C 33.314251,27.998223 36.000793,30.685458 35.999937,33.999771 z"
     id="path9915"
     style="fill:#999999;fill-opacity:1;fill-rule:evenodd;stroke:none;stroke-width:1;marker:none;visibility:visible;display:inline;overflow:visible;enable-background:accumulate" />
  <path
     d="M 25.798327,30.000003 L 34.306697,30.000003 C 34.339417,30.000003 34.365767,30.032463 34.365767,30.072763 C 35.348609,32.676316 35.062169,36.114999 34.365767,37.927235 C 34.365767,37.967545 34.339417,37.999995 34.306697,37.999995 L 25.798327,37.999995 C 25.765607,37.999995 25.739257,37.967535 25.739257,37.927235 C 24.745815,35.70658 24.761379,32.134176 25.739257,30.072763 C 25.739257,30.032453 25.765607,30.000003 25.798327,30.000003 L 25.798327,30.000003 z"
     id="path9917"
     style="fill:url(#linearGradient3048);fill-opacity:1;fill-rule:nonzero;stroke:none;stroke-width:1;marker:none;visibility:visible;display:inline;overflow:visible;enable-background:new" />
  <path
     d="M 25.798332,30.000003 L 34.30668,30.000003 C 34.33942,30.000003 34.36577,30.028393 34.36577,30.063673 C 35.348605,32.341774 35.062172,35.350613 34.36577,36.936323 C 34.36577,36.971603 34.33942,36.999993 34.30668,36.999993 L 25.798332,36.999993 C 25.765602,36.999993 25.739252,36.971603 25.739252,36.936323 C 24.745816,34.993252 24.76138,31.8674 25.739252,30.063673 C 25.739252,30.028393 25.765602,30.000003 25.798332,30.000003 L 25.798332,30.000003 L 25.798332,30.000003 z"
     id="path9919"
     style="fill:#000000;fill-opacity:1;fill-rule:nonzero;stroke:none;stroke-width:1;marker:none;visibility:visible;display:inline;overflow:visible;enable-background:new" />
  <path
     d="M 22.104574,37.858533 C 18.329471,33.417649 18.910044,26.790916 23.401228,23.058346 C 27.892413,19.325775 34.593003,19.901218 38.36637,24.343545 C 42.141473,28.78443 41.5609,35.411162 37.069716,39.143733 C 32.578531,42.876303 25.877941,42.30086 22.104574,37.858533 z"
     id="path9923"
     style="fill:none;stroke:none;stroke-width:1.07430112;marker:none;visibility:visible;display:inline;overflow:visible;enable-background:new" />
  <g
     transform="matrix(0.50812339,0,0,0.50459182,-1.8099533,-69.634214)"
     id="g9933" />
  <g
     transform="matrix(0.1865861,0,0,0.1845264,-3.4433155,-1.9291747)"
     id="g9981">
    <path
       d="M 252,118 C 252,121.86599 248.86599,125 245,125 C 241.13401,125 238,121.86599 238,118 C 238,114.13401 241.13401,111 245,111 C 248.86599,111 252,114.13401 252,118 z"
       transform="translate(0,1)"
       id="path9983"
       style="fill:#555555;fill-opacity:1;fill-rule:nonzero;stroke:none;stroke-width:1;marker:none;visibility:visible;display:inline;overflow:visible;enable-background:new" />
    <path
       d="M 252,118 C 252,121.86599 248.86599,125 245,125 C 241.13401,125 238,121.86599 238,118 C 238,114.13401 241.13401,111 245,111 C 248.86599,111 252,114.13401 252,118 z"
       id="path9985"
       style="fill:#000000;fill-opacity:1;fill-rule:nonzero;stroke:none;stroke-width:1;marker:none;visibility:visible;display:inline;overflow:visible;enable-background:new" />
    <path
       d="M 245,113.3125 C 242.40455,113.3125 240.3125,115.40455 240.3125,118 C 240.3125,118.40294 240.3733,118.78293 240.46875,119.15625 C 240.817,117.76587 241.76358,116.62275 243.03125,116.03125 C 242.98075,116.20936 242.93755,116.39952 242.93755,116.59375 C 242.93755,117.72549 243.86831,118.625 245.00005,118.625 C 246.13179,118.625 247.06255,117.72549 247.06255,116.59375 C 247.06255,116.39952 247.01935,116.20936 246.96885,116.03125 C 248.23652,116.62275 249.1831,117.76587 249.53135,119.15625 C 249.62685,118.78293 249.6876,118.40294 249.6876,118 C 249.6876,115.40455 247.59555,113.3125 245.0001,113.3125 L 245,113.3125 L 245,113.3125 z"
       id="path9987"
       style="fill:url(#radialGradient10147);fill-opacity:1;fill-rule:nonzero;stroke:none;stroke-width:1;marker:none;visibility:visible;display:inline;overflow:visible;enable-background:new" />
    <path
       d="M 249.45895,120.5 C 249.45895,122.06515 248.19015,123.33395 246.625,123.33395 C 245.05985,123.33395 243.79105,122.06515 243.79105,120.5 C 243.79105,118.93485 245.05985,117.66605 246.625,117.66605 C 248.19015,117.66605 249.45895,118.93485 249.45895,120.5 z"
       transform="translate(-1.625,-2)"
       id="path9989"
       style="opacity:0.2692308;fill:#5f5f5f;fill-opacity:1;fill-rule:evenodd;stroke:none;stroke-width:0.94462639;marker:none;visibility:visible;display:inline;overflow:visible;enable-background:accumulate" />
  </g>
  <g
     transform="matrix(0.1966435,0,0,0.1998915,-18.123462,-48.624369)"
     clip-path="url(#clipPath10731)"
     id="g10001">
    <path
       d="M 200,201 C 200,211.49341 191.49341,220 181,220 C 170.50659,220 162,211.49341 162,201 C 162,190.50659 170.50659,182 181,182 C 191.49341,182 200,190.50659 200,201 z"
       transform="translate(62.194154,210.14054)"
       id="path10003"
       style="fill:#000000;fill-opacity:1;fill-rule:evenodd;stroke:none;stroke-width:0.94462639;marker:none;visibility:visible;display:inline;overflow:visible;enable-background:accumulate" />
    <path
       d="M 200,201 C 200,211.49341 191.49341,220 181,220 C 170.50659,220 162,211.49341 162,201 C 162,190.50659 170.50659,182 181,182 C 191.49341,182 200,190.50659 200,201 z"
       transform="translate(62.194154,210.14054)"
       id="path10013"
       style="fill:url(#radialGradient10159);fill-opacity:1;fill-rule:evenodd;stroke:none;stroke-width:0.94462639;marker:none;visibility:visible;display:inline;overflow:visible;enable-background:accumulate" />
  </g>
  <path
     d="M 31.816494,20.499766 C 33.985223,20.815365 35.995754,21.852406 37.544379,23.454236"
     id="path10956"
     style="opacity:0.5192308;fill:none;stroke:#2e3436;stroke-width:0.99999982;marker:none;stroke-opacity:1;visibility:visible;display:inline;overflow:visible;enable-background:new" />
  <path
     d="M 38.839004,25.097929 C 39.758962,26.544434 40.316471,28.204991 40.46128,29.92993"
     id="path11469"
     style="opacity:0.80769228;fill:none;stroke:#2e3436;stroke-width:0.99999982;marker:none;stroke-opacity:1;visibility:visible;display:inline;overflow:visible;enable-background:new" />
</svg>
