<?xml version="1.0" encoding="UTF-8" standalone="no"?>
<!-- Created with Inkscape (http://www.inkscape.org/) -->

<svg
   xmlns:svg="http://www.w3.org/2000/svg"
   xmlns="http://www.w3.org/2000/svg"
   xmlns:xlink="http://www.w3.org/1999/xlink"
   version="1.0"
   width="48"
   height="48"
   id="svg3786">
  <defs
     id="defs3788">
    <linearGradient
       id="linearGradient6310">
      <stop
         id="stop6312"
         style="stop-color:white;stop-opacity:1"
         offset="0" />
      <stop
         id="stop6314"
         style="stop-color:white;stop-opacity:0"
         offset="1" />
    </linearGradient>
    <linearGradient
       id="linearGradient5060">
      <stop
         id="stop5062"
         style="stop-color:black;stop-opacity:1"
         offset="0" />
      <stop
         id="stop5064"
         style="stop-color:black;stop-opacity:0"
         offset="1" />
    </linearGradient>
    <linearGradient
       id="linearGradient5048">
      <stop
         id="stop5050"
         style="stop-color:black;stop-opacity:0"
         offset="0" />
      <stop
         id="stop5056"
         style="stop-color:black;stop-opacity:1"
         offset="0.5" />
      <stop
         id="stop5052"
         style="stop-color:black;stop-opacity:0"
         offset="1" />
    </linearGradient>
    <linearGradient
       id="linearGradient2215">
      <stop
         id="stop2223"
         style="stop-color:#aaa;stop-opacity:1"
         offset="0" />
      <stop
         id="stop2219"
         style="stop-color:#646464;stop-opacity:1"
         offset="1" />
    </linearGradient>
    <linearGradient
       id="linearGradient3484">
      <stop
         id="stop3486"
         style="stop-color:#aaa;stop-opacity:1"
         offset="0" />
      <stop
         id="stop3488"
         style="stop-color:#c8c8c8;stop-opacity:1"
         offset="1" />
    </linearGradient>
    <linearGradient
       id="linearGradient7056">
      <stop
         id="stop7064"
         style="stop-color:#f0f0f1;stop-opacity:1"
         offset="0" />
      <stop
         id="stop7060"
         style="stop-color:#ddddde;stop-opacity:1"
         offset="1" />
    </linearGradient>
    <radialGradient
       cx="24"
       cy="42"
       r="21"
       fx="24"
       fy="42"
       id="radialGradient2857"
       xlink:href="#linearGradient6310"
       gradientUnits="userSpaceOnUse"
       gradientTransform="matrix(0.9047619,1.0190473e-7,-2.681703e-8,0.2380952,2.2857154,29.999998)" />
    <radialGradient
       cx="14.237288"
       cy="12.595277"
       r="23.000034"
       fx="14.237288"
       fy="12.595277"
       id="radialGradient2862"
       xlink:href="#linearGradient7056"
       gradientUnits="userSpaceOnUse"
       gradientTransform="matrix(1.1924378,0.6199615,-0.4941896,0.9505273,3.4846628,-5.4343176)" />
    <linearGradient
       x1="17.740664"
       y1="24.050003"
       x2="11.217735"
       y2="12.883085"
       id="linearGradient2864"
       xlink:href="#linearGradient3484"
       gradientUnits="userSpaceOnUse"
       gradientTransform="matrix(0.9977842,0,0,1.033052,0.05317941,-1.344904)" />
    <linearGradient
       x1="28.437729"
       y1="50.295818"
       x2="28.375248"
       y2="40.704182"
       id="linearGradient2868"
       xlink:href="#linearGradient2215"
       gradientUnits="userSpaceOnUse"
       gradientTransform="matrix(1.0001532,0,0,0.6255449,-5.0044356,11.537707)" />
    <radialGradient
       cx="605.71429"
       cy="486.64789"
       r="117.14286"
       fx="605.71429"
       fy="486.64789"
       id="radialGradient2871"
       xlink:href="#linearGradient5060"
       gradientUnits="userSpaceOnUse"
       gradientTransform="matrix(-0.04484747,0,0,0.02058824,32.61113,32.451372)" />
    <radialGradient
       cx="605.71429"
       cy="486.64789"
       r="117.14286"
       fx="605.71429"
       fy="486.64789"
       id="radialGradient2874"
       xlink:href="#linearGradient5060"
       gradientUnits="userSpaceOnUse"
       gradientTransform="matrix(0.04484747,0,0,0.02058824,15.38888,32.451372)" />
    <linearGradient
       x1="302.85715"
       y1="366.64789"
       x2="302.85715"
       y2="609.50507"
       id="linearGradient2877"
       xlink:href="#linearGradient5048"
       gradientUnits="userSpaceOnUse"
       gradientTransform="matrix(0.07635654,0,0,0.02058824,-3.5974283,32.451372)" />
  </defs>
  <rect
     width="36.869301"
     height="5"
     x="5.5653324"
     y="40"
     id="rect2723"
     style="opacity:0.3;fill:url(#linearGradient2877);fill-opacity:1;fill-rule:nonzero;stroke:none;stroke-width:0.5;marker:none;visibility:visible;display:inline;overflow:visible" />
  <path
     d="m 42.41667,40.000174 c 0,0 0,4.999723 0,4.999723 C 44.7262,45.009311 48,43.879712 48,42.499715 48,41.119718 45.42274,40.000174 42.41667,40.000174 z"
     id="path2725"
     style="opacity:0.3;fill:url(#radialGradient2874);fill-opacity:1;fill-rule:nonzero;stroke:none;stroke-width:0.5;marker:none;visibility:visible;display:inline;overflow:visible" />
  <path
     d="m 5.58333,40.000174 c 0,0 0,4.999723 0,4.999723 C 3.2737899,45.009311 0,43.879712 0,42.499715 0,41.119718 2.5772699,40.000174 5.58333,40.000174 z"
     id="path2727"
     style="opacity:0.3;fill:url(#radialGradient2871);fill-opacity:1;fill-rule:nonzero;stroke:none;stroke-width:1;marker:none;visibility:visible;display:inline;overflow:visible" />
  <path
     d="m 1.499929,37.499929 45.000142,0 -0.899766,5.000142 -43.1005926,0 -0.9997834,-5.000142 0,0 z"
     id="rect6431"
     style="fill:url(#linearGradient2868);fill-opacity:1;fill-rule:evenodd;stroke:#59595b;stroke-width:0.99985808;stroke-linecap:round;stroke-linejoin:round;stroke-miterlimit:4;stroke-opacity:1;stroke-dasharray:none;stroke-dashoffset:0;display:inline;enable-background:new" />
  <rect
     width="45"
     height="1"
     x="1.5"
     y="37"
     id="rect6381"
     style="fill:#d2d2d3;fill-opacity:1;fill-rule:evenodd;stroke:none;display:inline;enable-background:new" />
  <path
     d="M 46.500034,37.500034 39.705489,10.5 C 39.544661,9.860906 38.659019,9.499967 38,9.499967 l -28,0 C 9.1902178,9.499967 7.9698185,9.71135 7.7860309,10.5 L 1.4999664,37.474109"
     id="path6345"
     style="fill:url(#radialGradient2862);fill-opacity:1;fill-rule:nonzero;stroke:url(#linearGradient2864);stroke-width:1;stroke-linecap:round;stroke-linejoin:round;stroke-miterlimit:4;stroke-opacity:1;stroke-dasharray:none;stroke-dashoffset:0;marker:none;visibility:visible;display:inline;overflow:visible;enable-background:accumulate" />
  <path
     d="M 45.511476,37.511474 2.4885263,37.488526"
     id="path7046"
     style="opacity:0.4;fill:none;stroke:white;stroke-width:0.97705239;stroke-linecap:round;stroke-linejoin:miter;stroke-miterlimit:4;stroke-opacity:1;stroke-dasharray:none;stroke-dashoffset:0;marker:none;visibility:visible;display:inline;overflow:visible;enable-background:accumulate" />
  <rect
     width="40"
     height="2.5"
     rx="1"
     x="4"
     y="39.000008"
     id="rect6298"
     style="opacity:0.5;fill:white;fill-opacity:1;stroke:none" />
  <rect
     width="42"
     height="4"
     x="3"
     y="38"
     id="rect6300"
     style="opacity:0.3;fill:url(#radialGradient2857);fill-opacity:1;stroke:none" />
  <rect
     width="40"
     height="2"
     rx="1"
     x="4"
     y="39.000008"
     id="rect6287"
     style="fill:#282828;fill-opacity:1;stroke:none" />
  <path
     d="M 45.500002,33.749999 2.5000001,33.725948"
     id="path6292"
     style="fill:none;stroke:#adadad;stroke-width:0.5;stroke-linecap:round;stroke-linejoin:miter;stroke-miterlimit:4;stroke-opacity:1;stroke-dasharray:none;stroke-dashoffset:0;marker:none;visibility:visible;display:inline;overflow:visible;enable-background:accumulate" />
  <path
     d="M 44.861275,34.261275 3.038725,34.238725"
     id="path6294"
     style="opacity:0.5;fill:none;stroke:white;stroke-width:0.47745019;stroke-linecap:round;stroke-linejoin:miter;stroke-miterlimit:4;stroke-opacity:1;stroke-dasharray:none;stroke-dashoffset:0;marker:none;visibility:visible;display:inline;overflow:visible;enable-background:accumulate" />
  <g
     transform="matrix(1.1902193,0,0,0.86324886,-5.7755667,-4.4215688)"
     id="g3638"
     style="fill:#464646;fill-opacity:1">
    <path
       d="m 17.800352,30.032573 c 1.9e-4,1.104675 -0.895273,2.000292 -1.999949,2.000292 -1.104675,0 -2.000138,-0.895617 -1.999949,-2.000292 -1.89e-4,-1.104675 0.895274,-2.000292 1.999949,-2.000292 1.104676,0 2.000139,0.895617 1.999949,2.000292 l 0,0 z"
       id="path3640"
       style="fill:#464646;fill-opacity:1;stroke:none;display:inline;enable-background:new" />
    <path
       d="m 32.800345,39.032573 c 1.89e-4,1.104672 -0.895271,2.000286 -1.999943,2.000286 -1.104671,0 -2.000132,-0.895614 -1.999942,-2.000286 -1.9e-4,-1.104672 0.895271,-2.000286 1.999942,-2.000286 1.104672,0 2.000132,0.895614 1.999943,2.000286 l 0,0 z"
       id="path3642"
       style="fill:#464646;fill-opacity:1;stroke:none;display:inline;enable-background:new" />
    <path
       d="m 32.800468,22.032573 c 1.89e-4,1.104739 -0.895326,2.000407 -2.000064,2.000407 -1.104739,0 -2.000254,-0.895668 -2.000065,-2.000407 -1.89e-4,-1.104739 0.895326,-2.000407 2.000065,-2.000407 1.104738,0 2.000253,0.895668 2.000064,2.000407 l 0,0 z"
       id="path3644"
       style="fill:#464646;fill-opacity:1;stroke:none;display:inline;enable-background:new" />
    <path
       d="m 25.800403,22.032573 c -1.156822,0 -2.24341,0.238655 -3.25,0.65625 l 2.125,3.5 c 0.361575,-0.09376 0.734237,-0.15625 1.125,-0.15625 1.952235,0 3.597923,1.260284 4.21875,3 l 4.125,0 c -0.229003,-1.288474 -0.725811,-2.482354 -1.46875,-3.5 -0.561079,0.300002 -1.194684,0.5 -1.875,0.5 -2.187001,0 -3.966437,-1.758442 -4,-3.9375 -0.326981,-0.03825 -0.662803,-0.0625 -1,-0.0625 l 0,0 z"
       id="path3646"
       style="fill:#464646;fill-opacity:1;stroke:none;display:inline;enable-background:new" />
    <path
       d="m 20.800403,23.657573 c -1.119628,0.815196 -2.045489,1.899778 -2.65625,3.15625 1.001505,0.727184 1.65625,1.887317 1.65625,3.21875 0,1.468745 -0.787886,2.74193 -1.96875,3.4375 0.585437,1.586235 1.627634,2.956748 2.96875,3.9375 l 2.09375,-3.46875 c -0.965959,-0.825574 -1.59375,-2.036934 -1.59375,-3.40625 0,-1.384982 0.639848,-2.611809 1.625,-3.4375 l -2.125,-3.4375 z"
       id="path3648"
       style="fill:#464646;fill-opacity:1;stroke:none;display:inline;enable-background:new" />
    <path
       d="m 30.269153,31.032573 c -0.173489,1.378272 -0.975312,2.670429 -2.184372,3.373193 -1.011352,0.607656 -2.271288,0.78983 -3.409378,0.470557 -0.697917,1.166667 -1.395833,2.333333 -2.09375,3.5 1.324994,0.553063 2.79191,0.776152 4.21875,0.59375 -0.0073,-1.862092 1.461217,-3.583249 3.298768,-3.876142 0.876997,-0.167523 1.798017,0.01043 2.576232,0.438642 0.837908,-1.159378 1.39715,-2.541394 1.53125,-3.967786 -0.02278,-0.164963 0.04429,-0.419769 -0.03101,-0.532214 -1.302164,0 -2.604327,0 -3.906491,0 l 1e-6,0 z"
       id="path3650"
       style="fill:#464646;fill-opacity:1;stroke:none;display:inline;enable-background:new" />
  </g>
  <g
     transform="matrix(1.1902193,0,0,0.86324886,-5.7755667,-5.2215688)"
     id="g3415"
     style="fill:white">
    <path
       d="m 17.800352,30.032573 c 1.9e-4,1.104675 -0.895273,2.000292 -1.999949,2.000292 -1.104675,0 -2.000138,-0.895617 -1.999949,-2.000292 -1.89e-4,-1.104675 0.895274,-2.000292 1.999949,-2.000292 1.104676,0 2.000139,0.895617 1.999949,2.000292 l 0,0 z"
       id="path3417"
       style="fill:white;fill-opacity:1;stroke:none;display:inline;enable-background:new" />
    <path
       d="m 32.800345,39.032573 c 1.89e-4,1.104672 -0.895271,2.000286 -1.999943,2.000286 -1.104671,0 -2.000132,-0.895614 -1.999942,-2.000286 -1.9e-4,-1.104672 0.895271,-2.000286 1.999942,-2.000286 1.104672,0 2.000132,0.895614 1.999943,2.000286 l 0,0 z"
       id="path3419"
       style="fill:white;fill-opacity:1;stroke:none;display:inline;enable-background:new" />
    <path
       d="m 32.800468,22.032573 c 1.89e-4,1.104739 -0.895326,2.000407 -2.000064,2.000407 -1.104739,0 -2.000254,-0.895668 -2.000065,-2.000407 -1.89e-4,-1.104739 0.895326,-2.000407 2.000065,-2.000407 1.104738,0 2.000253,0.895668 2.000064,2.000407 l 0,0 z"
       id="path3421"
       style="fill:white;fill-opacity:1;stroke:none;display:inline;enable-background:new" />
    <path
       d="m 25.800403,22.032573 c -1.156822,0 -2.24341,0.238655 -3.25,0.65625 l 2.125,3.5 c 0.361575,-0.09376 0.734237,-0.15625 1.125,-0.15625 1.952235,0 3.597923,1.260284 4.21875,3 l 4.125,0 c -0.229003,-1.288474 -0.725811,-2.482354 -1.46875,-3.5 -0.561079,0.300002 -1.194684,0.5 -1.875,0.5 -2.187001,0 -3.966437,-1.758442 -4,-3.9375 -0.326981,-0.03825 -0.662803,-0.0625 -1,-0.0625 l 0,0 z"
       id="path3423"
       style="fill:white;fill-opacity:1;stroke:none;display:inline;enable-background:new" />
    <path
       d="m 20.800403,23.657573 c -1.119628,0.815196 -2.045489,1.899778 -2.65625,3.15625 1.001505,0.727184 1.65625,1.887317 1.65625,3.21875 0,1.468745 -0.787886,2.74193 -1.96875,3.4375 0.585437,1.586235 1.627634,2.956748 2.96875,3.9375 l 2.09375,-3.46875 c -0.965959,-0.825574 -1.59375,-2.036934 -1.59375,-3.40625 0,-1.384982 0.639848,-2.611809 1.625,-3.4375 l -2.125,-3.4375 z"
       id="path3425"
       style="fill:white;fill-opacity:1;stroke:none;display:inline;enable-background:new" />
    <path
       d="m 30.269153,31.032573 c -0.173489,1.378272 -0.975312,2.670429 -2.184372,3.373193 -1.011352,0.607656 -2.271288,0.78983 -3.409378,0.470557 -0.697917,1.166667 -1.395833,2.333333 -2.09375,3.5 1.324994,0.553063 2.79191,0.776152 4.21875,0.59375 -0.0073,-1.862092 1.461217,-3.583249 3.298768,-3.876142 0.876997,-0.167523 1.798017,0.01043 2.576232,0.438642 0.837908,-1.159378 1.39715,-2.541394 1.53125,-3.967786 -0.02278,-0.164963 0.04429,-0.419769 -0.03101,-0.532214 -1.302164,0 -2.604327,0 -3.906491,0 l 1e-6,0 z"
       id="path3427"
       style="fill:white;fill-opacity:1;stroke:none;display:inline;enable-background:new" />
  </g>
  <g
     transform="matrix(1.1902193,0,0,0.85711457,-5.7755667,-4.6698613)"
     id="g3442"
     style="fill:#aaa;fill-opacity:1">
    <path
       d="m 17.800352,30.032573 c 1.9e-4,1.104675 -0.895273,2.000292 -1.999949,2.000292 -1.104675,0 -2.000138,-0.895617 -1.999949,-2.000292 -1.89e-4,-1.104675 0.895274,-2.000292 1.999949,-2.000292 1.104676,0 2.000139,0.895617 1.999949,2.000292 l 0,0 z"
       id="path2313"
       style="fill:#aaa;fill-opacity:1;stroke:none;display:inline;enable-background:new" />
    <path
       d="m 32.800345,39.032573 c 1.89e-4,1.104672 -0.895271,2.000286 -1.999943,2.000286 -1.104671,0 -2.000132,-0.895614 -1.999942,-2.000286 -1.9e-4,-1.104672 0.895271,-2.000286 1.999942,-2.000286 1.104672,0 2.000132,0.895614 1.999943,2.000286 l 0,0 z"
       id="path2317"
       style="fill:#aaa;fill-opacity:1;stroke:none;display:inline;enable-background:new" />
    <path
       d="m 32.800468,22.032573 c 1.89e-4,1.104739 -0.895326,2.000407 -2.000064,2.000407 -1.104739,0 -2.000254,-0.895668 -2.000065,-2.000407 -1.89e-4,-1.104739 0.895326,-2.000407 2.000065,-2.000407 1.104738,0 2.000253,0.895668 2.000064,2.000407 l 0,0 z"
       id="path2315"
       style="fill:#aaa;fill-opacity:1;stroke:none;display:inline;enable-background:new" />
    <path
       d="m 25.800403,22.032573 c -1.156822,0 -2.24341,0.238655 -3.25,0.65625 l 2.125,3.5 c 0.361575,-0.09376 0.734237,-0.15625 1.125,-0.15625 1.952235,0 3.597923,1.260284 4.21875,3 l 4.125,0 c -0.229003,-1.288474 -0.725811,-2.482354 -1.46875,-3.5 -0.561079,0.300002 -1.194684,0.5 -1.875,0.5 -2.187001,0 -3.966437,-1.758442 -4,-3.9375 -0.326981,-0.03825 -0.662803,-0.0625 -1,-0.0625 l 0,0 z"
       id="path6698"
       style="fill:#aaa;fill-opacity:1;stroke:none;display:inline;enable-background:new" />
    <path
       d="m 20.800403,23.657573 c -1.119628,0.815196 -2.045489,1.899778 -2.65625,3.15625 1.001505,0.727184 1.65625,1.887317 1.65625,3.21875 0,1.468745 -0.787886,2.74193 -1.96875,3.4375 0.585437,1.586235 1.627634,2.956748 2.96875,3.9375 l 2.09375,-3.46875 c -0.965959,-0.825574 -1.59375,-2.036934 -1.59375,-3.40625 0,-1.384982 0.639848,-2.611809 1.625,-3.4375 l -2.125,-3.4375 z"
       id="path6696"
       style="fill:#aaa;fill-opacity:1;stroke:none;display:inline;enable-background:new" />
    <path
       d="m 30.269153,31.032573 c -0.173489,1.378272 -0.975312,2.670429 -2.184372,3.373193 -1.011352,0.607656 -2.271288,0.78983 -3.409378,0.470557 -0.697917,1.166667 -1.395833,2.333333 -2.09375,3.5 1.324994,0.553063 2.79191,0.776152 4.21875,0.59375 -0.0073,-1.862092 1.461217,-3.583249 3.298768,-3.876142 0.876997,-0.167523 1.798017,0.01043 2.576232,0.438642 0.837908,-1.159378 1.39715,-2.541394 1.53125,-3.967786 -0.02278,-0.164963 0.04429,-0.419769 -0.03101,-0.532214 -1.302164,0 -2.604327,0 -3.906491,0 l 1e-6,0 z"
       id="path5773"
       style="fill:#aaa;fill-opacity:1;stroke:none;display:inline;enable-background:new" />
  </g>
</svg>
