<?xml version="1.0" encoding="UTF-8" standalone="no"?>
<!-- Created with Inkscape (http://www.inkscape.org/) -->
<svg
   xmlns:svg="http://www.w3.org/2000/svg"
   xmlns="http://www.w3.org/2000/svg"
   xmlns:xlink="http://www.w3.org/1999/xlink"
   version="1.0"
   width="48"
   height="48"
   id="svg3813">
  <defs
     id="defs3815">
    <linearGradient
       id="linearGradient5048">
      <stop
         id="stop5050"
         style="stop-color:#000000;stop-opacity:0"
         offset="0" />
      <stop
         id="stop5056"
         style="stop-color:#000000;stop-opacity:1"
         offset="0.5" />
      <stop
         id="stop5052"
         style="stop-color:#000000;stop-opacity:0"
         offset="1" />
    </linearGradient>
    <linearGradient
       x1="302.85715"
       y1="366.64789"
       x2="302.85715"
       y2="609.50507"
       id="linearGradient3198"
       xlink:href="#linearGradient5048"
       gradientUnits="userSpaceOnUse"
       gradientTransform="matrix(7.6356542e-2,0,0,2.0588237e-2,-3.5974283,34.451372)" />
    <radialGradient
       cx="605.71429"
       cy="486.64789"
       r="117.14286"
       fx="605.71429"
       fy="486.64789"
       id="radialGradient3195"
       xlink:href="#linearGradient5060"
       gradientUnits="userSpaceOnUse"
       gradientTransform="matrix(4.4847472e-2,0,0,2.0588237e-2,15.38888,34.451372)" />
    <linearGradient
       id="linearGradient5060">
      <stop
         id="stop5062"
         style="stop-color:#000000;stop-opacity:1"
         offset="0" />
      <stop
         id="stop5064"
         style="stop-color:#000000;stop-opacity:0"
         offset="1" />
    </linearGradient>
    <radialGradient
       cx="605.71429"
       cy="486.64789"
       r="117.14286"
       fx="605.71429"
       fy="486.64789"
       id="radialGradient3192"
       xlink:href="#linearGradient5060"
       gradientUnits="userSpaceOnUse"
       gradientTransform="matrix(-4.4847472e-2,0,0,2.0588237e-2,32.61113,34.451372)" />
    <linearGradient
       id="linearGradient2215">
      <stop
         id="stop2223"
         style="stop-color:#666666;stop-opacity:1"
         offset="0" />
      <stop
         id="stop2219"
         style="stop-color:#333333;stop-opacity:1"
         offset="1" />
    </linearGradient>
    <linearGradient
       x1="29.9375"
       y1="41"
       x2="30"
       y2="49.999996"
       id="linearGradient2437"
       xlink:href="#linearGradient2215"
       gradientUnits="userSpaceOnUse"
       gradientTransform="matrix(1.0017502,0,0,0.7596403,-5.0508975,6.9363745)" />
    <linearGradient
       id="linearGradient3484">
      <stop
         id="stop3486"
         style="stop-color:#9b9b9b;stop-opacity:1"
         offset="0" />
      <stop
         id="stop3488"
         style="stop-color:#b6b6b6;stop-opacity:1"
         offset="1" />
    </linearGradient>
    <linearGradient
       x1="34.659508"
       y1="38.099998"
       x2="34.659508"
       y2="9.9298477"
       id="linearGradient2433"
       xlink:href="#linearGradient3484"
       gradientUnits="userSpaceOnUse"
       gradientTransform="translate(0,0.9998535)" />
    <linearGradient
       id="linearGradient7056">
      <stop
         id="stop7064"
         style="stop-color:#e1e1e2;stop-opacity:1"
         offset="0" />
      <stop
         id="stop7060"
         style="stop-color:#d2d2d3;stop-opacity:1"
         offset="1" />
    </linearGradient>
    <linearGradient
       x1="28.097086"
       y1="11.999853"
       x2="28.046757"
       y2="40.000149"
       id="linearGradient2431"
       xlink:href="#linearGradient7056"
       gradientUnits="userSpaceOnUse"
       gradientTransform="matrix(0.9999605,0,0,1.003626,-4.9989982,-1.0444232)" />
    <linearGradient
       id="linearGradient3774">
      <stop
         id="stop3776"
         style="stop-color:#f5f5f5;stop-opacity:1"
         offset="0" />
      <stop
         id="stop3779"
         style="stop-color:#e7e7e7;stop-opacity:1"
         offset="0.23737885" />
      <stop
         id="stop3781"
         style="stop-color:#8c8c8c;stop-opacity:1"
         offset="0.58060676" />
      <stop
         id="stop3783"
         style="stop-color:#dddddd;stop-opacity:1"
         offset="0.66766542" />
      <stop
         id="stop3799"
         style="stop-color:#acacac;stop-opacity:1"
         offset="0.90917522" />
      <stop
         id="stop3785"
         style="stop-color:#d4d4d4;stop-opacity:1"
         offset="1" />
    </linearGradient>
    <radialGradient
       cx="19.205481"
       cy="43.205475"
       r="18.205481"
       fx="19.205481"
       fy="43.205475"
       id="radialGradient3772"
       xlink:href="#linearGradient3774"
       gradientUnits="userSpaceOnUse"
       gradientTransform="matrix(2.6717315,1.0337888e-7,-5.1009147e-8,1.3182842,-32.106405,-19.9571)" />
    <linearGradient
       x1="133.5"
       y1="78.92691"
       x2="133.5"
       y2="86.6875"
       id="linearGradient2749"
       xlink:href="#linearGradient10090"
       gradientUnits="userSpaceOnUse" />
    <linearGradient
       x1="33.055687"
       y1="28.299864"
       x2="33.055687"
       y2="53.480202"
       id="linearGradient2747"
       xlink:href="#linearGradient13428"
       gradientUnits="userSpaceOnUse" />
    <linearGradient
       x1="133.5"
       y1="78.92691"
       x2="133.5"
       y2="86.6875"
       id="linearGradient2745"
       xlink:href="#linearGradient10090"
       gradientUnits="userSpaceOnUse" />
    <linearGradient
       x1="33.055687"
       y1="28.299864"
       x2="33.055687"
       y2="53.480202"
       id="linearGradient2743"
       xlink:href="#linearGradient13428"
       gradientUnits="userSpaceOnUse" />
    <linearGradient
       x1="133.5"
       y1="78.92691"
       x2="133.5"
       y2="86.6875"
       id="linearGradient2741"
       xlink:href="#linearGradient10090"
       gradientUnits="userSpaceOnUse" />
    <linearGradient
       x1="33.055687"
       y1="28.299864"
       x2="33.055687"
       y2="53.480202"
       id="linearGradient2739"
       xlink:href="#linearGradient13428"
       gradientUnits="userSpaceOnUse" />
    <linearGradient
       x1="133.5"
       y1="78.92691"
       x2="133.5"
       y2="86.6875"
       id="linearGradient2737"
       xlink:href="#linearGradient10090"
       gradientUnits="userSpaceOnUse" />
    <linearGradient
       x1="33.055687"
       y1="28.299864"
       x2="33.055687"
       y2="53.480202"
       id="linearGradient2735"
       xlink:href="#linearGradient13428"
       gradientUnits="userSpaceOnUse" />
    <linearGradient
       id="linearGradient10090">
      <stop
         id="stop10092"
         style="stop-color:#000000;stop-opacity:1"
         offset="0" />
      <stop
         id="stop10094"
         style="stop-color:#ffffff;stop-opacity:1"
         offset="1" />
    </linearGradient>
    <linearGradient
       x1="133.5"
       y1="78.92691"
       x2="133.5"
       y2="86.6875"
       id="linearGradient2733"
       xlink:href="#linearGradient10090"
       gradientUnits="userSpaceOnUse" />
    <linearGradient
       id="linearGradient13428">
      <stop
         id="stop13430"
         style="stop-color:#4f4f4c;stop-opacity:0"
         offset="0" />
      <stop
         id="stop2225"
         style="stop-color:#70706c;stop-opacity:1"
         offset="0.2972973" />
      <stop
         id="stop13432"
         style="stop-color:#dededd;stop-opacity:1"
         offset="1" />
    </linearGradient>
    <linearGradient
       x1="33.055687"
       y1="28.299864"
       x2="33.055687"
       y2="53.480202"
       id="linearGradient2731"
       xlink:href="#linearGradient13428"
       gradientUnits="userSpaceOnUse" />
    <linearGradient
       id="linearGradient6310-8">
      <stop
         id="stop6312-6"
         style="stop-color:#ffffff;stop-opacity:1"
         offset="0" />
      <stop
         id="stop6314-6"
         style="stop-color:#ffffff;stop-opacity:0"
         offset="1" />
    </linearGradient>
    <linearGradient
       x1="23.961517"
       y1="41.5"
       x2="46.535854"
       y2="41.5"
       id="linearGradient3770"
       xlink:href="#linearGradient6310-8"
       gradientUnits="userSpaceOnUse"
       spreadMethod="reflect" />
    <linearGradient
       id="linearGradient7609">
      <stop
         id="stop7611"
         style="stop-color:#ffffff;stop-opacity:1"
         offset="0" />
      <stop
         id="stop7677"
         style="stop-color:#e7e7e7;stop-opacity:1"
         offset="0.47025558" />
      <stop
         id="stop7613"
         style="stop-color:#8c8c8c;stop-opacity:1"
         offset="0.67183787" />
      <stop
         id="stop7617"
         style="stop-color:#dddddd;stop-opacity:1"
         offset="0.83542866" />
      <stop
         id="stop7615"
         style="stop-color:#a8a8a8;stop-opacity:1"
         offset="1" />
    </linearGradient>
    <radialGradient
       cx="142.62215"
       cy="191.85428"
       r="78.728165"
       fx="142.62215"
       fy="191.85428"
       id="radialGradient3789"
       xlink:href="#linearGradient7609"
       gradientUnits="userSpaceOnUse"
       gradientTransform="matrix(0.1849524,0,0,-0.1307431,-3.1111718,48.048436)" />
  </defs>
  <g
     id="layer1">
    <rect
       width="36.869301"
       height="5"
       x="5.5653324"
       y="42"
       id="rect2723"
       style="opacity:0.3;fill:url(#linearGradient3198);fill-opacity:1;fill-rule:nonzero;stroke:none;stroke-width:0.5;stroke-linecap:round;stroke-linejoin:miter;marker:none;marker-start:none;marker-mid:none;marker-end:none;stroke-miterlimit:3.42857146;stroke-dasharray:none;stroke-dashoffset:0;stroke-opacity:1;visibility:visible;display:inline;overflow:visible" />
    <path
       d="M 42.41667,42.000174 C 42.41667,42.000174 42.41667,46.999897 42.41667,46.999897 C 44.7262,47.009311 48,45.879712 48,44.499715 C 48,43.119718 45.42274,42.000174 42.41667,42.000174 z"
       id="path2725"
       style="opacity:0.3;fill:url(#radialGradient3195);fill-opacity:1;fill-rule:nonzero;stroke:none;stroke-width:0.5;stroke-linecap:round;stroke-linejoin:miter;marker:none;marker-start:none;marker-mid:none;marker-end:none;stroke-miterlimit:3.42857146;stroke-dasharray:none;stroke-dashoffset:0;stroke-opacity:1;visibility:visible;display:inline;overflow:visible" />
    <path
       d="M 5.58333,42.000174 C 5.58333,42.000174 5.58333,46.999897 5.58333,46.999897 C 3.2737899,47.009311 0,45.879712 0,44.499715 C 0,43.119718 2.5772699,42.000174 5.58333,42.000174 z"
       id="path2727"
       style="opacity:0.3;fill:url(#radialGradient3192);fill-opacity:1;fill-rule:nonzero;stroke:none;stroke-width:1;stroke-linecap:round;stroke-linejoin:miter;marker:none;marker-start:none;marker-mid:none;marker-end:none;stroke-miterlimit:4;stroke-dasharray:none;stroke-dashoffset:0;stroke-opacity:1;visibility:visible;display:inline;overflow:visible" />
    <path
       d="M 1.4638537,38.464001 L 46.535854,38.464001 L 45.634652,44.536001 L 2.4652334,44.536001 L 1.4638537,38.464001 z"
       id="rect6431"
       style="fill:url(#linearGradient2437);fill-opacity:1;fill-rule:evenodd;stroke:#212122;stroke-width:0.9279989;stroke-linecap:round;stroke-linejoin:round;stroke-miterlimit:4;stroke-dasharray:none;stroke-dashoffset:0;stroke-opacity:1;display:inline;enable-background:new" />
    <rect
       width="45"
       height="1"
       x="1.5"
       y="37.999855"
       id="rect6381"
       style="fill:#d2d2d3;fill-opacity:1;fill-rule:evenodd;stroke:none;stroke-width:0.99400002;stroke-linecap:butt;stroke-linejoin:miter;stroke-miterlimit:4;stroke-dasharray:none;stroke-dashoffset:0;stroke-opacity:1;display:inline;enable-background:new" />
    <path
       d="M 46.55,38.601962 L 39.740367,12.827625 C 39.547814,12.093652 38.539167,11.497746 37.691201,11.497746 L 10.073983,11.497746 C 8.771243,11.497746 8.024726,11.696319 7.750024,12.827625 L 1.45,38.576866"
       id="path6345"
       style="fill:url(#linearGradient2431);fill-opacity:1;fill-rule:nonzero;stroke:url(#linearGradient2433);stroke-width:0.99578345;stroke-linecap:round;stroke-linejoin:round;marker:none;marker-start:none;marker-mid:none;marker-end:none;stroke-miterlimit:4;stroke-dasharray:none;stroke-dashoffset:0;stroke-opacity:1;visibility:visible;display:inline;overflow:visible;enable-background:accumulate" />
    <path
       d="M 45.500002,38.499854 L 2.5000001,38.475803"
       id="path7046"
       style="opacity:0.4;fill:none;fill-opacity:1;fill-rule:nonzero;stroke:#ffffff;stroke-width:1;stroke-linecap:round;stroke-linejoin:miter;marker:none;marker-start:none;marker-mid:none;marker-end:none;stroke-miterlimit:4;stroke-dasharray:none;stroke-dashoffset:0;stroke-opacity:1;visibility:visible;display:inline;overflow:visible;enable-background:accumulate" />
    <path
       d="M 12.842179,13.5 C 12.327778,14.525184 11.362915,14.40325 10.383797,14.518818 C 9.758261,17.073146 9.0355627,19.63898 9.2095441,20.224248 C 9.4067387,20.887611 9.3815996,21.030522 10.66593,22.580281 C 8.4336141,24.049163 7.0890414,25.933133 7.0890414,27.992795 C 7.0890424,32.685081 14.057658,36.499999 22.643268,36.499999 C 30.000178,36.499999 40.251341,36.430221 40.251341,36.421723 C 40.251341,35.687066 41.219433,35.079294 42.500002,34.95716 C 40.674013,30.018276 37.935541,16.111166 37.36488,14.518823 C 36.265596,14.677566 35.658397,14.18144 34.929797,13.550945 L 12.842179,13.5 z"
       id="path12457"
       style="fill:none;fill-opacity:1;fill-rule:nonzero;stroke:url(#radialGradient3772);stroke-width:1;stroke-linecap:round;stroke-linejoin:round;marker:none;stroke-miterlimit:4;stroke-dasharray:none;stroke-dashoffset:0;stroke-opacity:1;visibility:visible;display:inline;overflow:visible;enable-background:accumulate" />
    <g
       transform="matrix(0.4587045,0,0,0.4996132,-8.8206623,-5.5097166)"
       id="g10098">
      <path
         d="M 56.715082,40.625698 C 56.717656,46.624605 46.992227,51.488363 34.994412,51.488363 C 22.996596,51.488363 13.271167,46.624605 13.273741,40.625698 C 13.271167,34.626791 22.996596,29.763033 34.994411,29.763033 C 46.992227,29.763033 56.717656,34.626791 56.715082,40.625698 z"
         transform="matrix(9.369397e-2,0,0,9.369397e-2,110.8499,80.014475)"
         id="path6182"
         style="fill:#cccccc;fill-opacity:1;fill-rule:nonzero;stroke:url(#linearGradient2747);stroke-width:2.68877912;stroke-linecap:round;stroke-linejoin:round;marker:none;stroke-miterlimit:4;stroke-dasharray:none;stroke-dashoffset:0;stroke-opacity:1;visibility:visible;display:inline;overflow:visible;enable-background:accumulate" />
      <path
         d="M 139.18114,81.006356 L 138.15635,85.439834 L 141.26059,88.766943 L 136.90869,90.096186 L 135.57944,94.448087 L 132.25233,91.343852 L 127.81886,92.368644 L 128.84365,87.935166 L 125.73941,84.608057 L 130.09131,83.278814 L 131.42056,78.926913 L 134.74767,82.031148 L 139.18114,81.006356 z"
         transform="matrix(0.1440885,0,0,8.189935e-2,94.89285,76.721207)"
         id="path7167"
         style="opacity:0.5;fill:url(#linearGradient2749);fill-opacity:1;stroke:none" />
    </g>
    <g
       transform="matrix(0.4587045,0,0,0.4996132,-47.553235,-5.5097166)"
       id="g10106">
      <path
         d="M 56.715082,40.625698 C 56.717656,46.624605 46.992227,51.488363 34.994412,51.488363 C 22.996596,51.488363 13.271167,46.624605 13.273741,40.625698 C 13.271167,34.626791 22.996596,29.763033 34.994411,29.763033 C 46.992227,29.763033 56.717656,34.626791 56.715082,40.625698 z"
         transform="matrix(9.369397e-2,0,0,9.369397e-2,110.8499,80.014475)"
         id="path10108"
         style="fill:#cccccc;fill-opacity:1;fill-rule:nonzero;stroke:url(#linearGradient2743);stroke-width:2.68877912;stroke-linecap:round;stroke-linejoin:round;marker:none;stroke-miterlimit:4;stroke-dasharray:none;stroke-dashoffset:0;stroke-opacity:1;visibility:visible;display:inline;overflow:visible;enable-background:accumulate" />
      <path
         d="M 139.18114,81.006356 L 138.15635,85.439834 L 141.26059,88.766943 L 136.90869,90.096186 L 135.57944,94.448087 L 132.25233,91.343852 L 127.81886,92.368644 L 128.84365,87.935166 L 125.73941,84.608057 L 130.09131,83.278814 L 131.42056,78.926913 L 134.74767,82.031148 L 139.18114,81.006356 z"
         transform="matrix(0.1440885,0,0,8.189935e-2,94.89285,76.721207)"
         id="path10110"
         style="opacity:0.5;fill:url(#linearGradient2745);fill-opacity:1;stroke:none" />
    </g>
    <g
       transform="matrix(0.3883902,0,0,0.4230281,-36.34847,-13.245038)"
       id="g10116">
      <path
         d="M 56.715082,40.625698 C 56.717656,46.624605 46.992227,51.488363 34.994412,51.488363 C 22.996596,51.488363 13.271167,46.624605 13.273741,40.625698 C 13.271167,34.626791 22.996596,29.763033 34.994411,29.763033 C 46.992227,29.763033 56.717656,34.626791 56.715082,40.625698 z"
         transform="matrix(9.369397e-2,0,0,9.369397e-2,110.8499,80.014475)"
         id="path10118"
         style="fill:#cccccc;fill-opacity:1;fill-rule:nonzero;stroke:url(#linearGradient2739);stroke-width:2.68877912;stroke-linecap:round;stroke-linejoin:round;marker:none;stroke-miterlimit:4;stroke-dasharray:none;stroke-dashoffset:0;stroke-opacity:1;visibility:visible;display:inline;overflow:visible;enable-background:accumulate" />
      <path
         d="M 139.18114,81.006356 L 138.15635,85.439834 L 141.26059,88.766943 L 136.90869,90.096186 L 135.57944,94.448087 L 132.25233,91.343852 L 127.81886,92.368644 L 128.84365,87.935166 L 125.73941,84.608057 L 130.09131,83.278814 L 131.42056,78.926913 L 134.74767,82.031148 L 139.18114,81.006356 z"
         transform="matrix(0.1440885,0,0,8.189935e-2,94.89285,76.721207)"
         id="path10120"
         style="opacity:0.5;fill:url(#linearGradient2741);fill-opacity:1;stroke:none" />
    </g>
    <g
       transform="matrix(0.3180756,0,0,0.3464425,-26.32209,-15.704371)"
       id="g10126">
      <path
         d="M 56.715082,40.625698 C 56.717656,46.624605 46.992227,51.488363 34.994412,51.488363 C 22.996596,51.488363 13.271167,46.624605 13.273741,40.625698 C 13.271167,34.626791 22.996596,29.763033 34.994411,29.763033 C 46.992227,29.763033 56.717656,34.626791 56.715082,40.625698 z"
         transform="matrix(9.369397e-2,0,0,9.369397e-2,110.8499,80.014475)"
         id="path10128"
         style="fill:#cccccc;fill-opacity:1;fill-rule:nonzero;stroke:url(#linearGradient2735);stroke-width:2.68877912;stroke-linecap:round;stroke-linejoin:round;marker:none;stroke-miterlimit:4;stroke-dasharray:none;stroke-dashoffset:0;stroke-opacity:1;visibility:visible;display:inline;overflow:visible;enable-background:accumulate" />
      <path
         d="M 139.18114,81.006356 L 138.15635,85.439834 L 141.26059,88.766943 L 136.90869,90.096186 L 135.57944,94.448087 L 132.25233,91.343852 L 127.81886,92.368644 L 128.84365,87.935166 L 125.73941,84.608057 L 130.09131,83.278814 L 131.42056,78.926913 L 134.74767,82.031148 L 139.18114,81.006356 z"
         transform="matrix(0.1440885,0,0,8.189935e-2,94.89285,76.721207)"
         id="path10130"
         style="opacity:0.5;fill:url(#linearGradient2737);fill-opacity:1;stroke:none" />
    </g>
    <g
       transform="matrix(0.3180756,0,0,0.3464425,1.0981749,-15.704371)"
       id="g10136">
      <path
         d="M 56.715082,40.625698 C 56.717656,46.624605 46.992227,51.488363 34.994412,51.488363 C 22.996596,51.488363 13.271167,46.624605 13.273741,40.625698 C 13.271167,34.626791 22.996596,29.763033 34.994411,29.763033 C 46.992227,29.763033 56.717656,34.626791 56.715082,40.625698 z"
         transform="matrix(9.369397e-2,0,0,9.369397e-2,110.8499,80.014475)"
         id="path10138"
         style="fill:#cccccc;fill-opacity:1;fill-rule:nonzero;stroke:url(#linearGradient2731);stroke-width:2.68877912;stroke-linecap:round;stroke-linejoin:round;marker:none;stroke-miterlimit:4;stroke-dasharray:none;stroke-dashoffset:0;stroke-opacity:1;visibility:visible;display:inline;overflow:visible;enable-background:accumulate" />
      <path
         d="M 139.18114,81.006356 L 138.15635,85.439834 L 141.26059,88.766943 L 136.90869,90.096186 L 135.57944,94.448087 L 132.25233,91.343852 L 127.81886,92.368644 L 128.84365,87.935166 L 125.73941,84.608057 L 130.09131,83.278814 L 131.42056,78.926913 L 134.74767,82.031148 L 139.18114,81.006356 z"
         transform="matrix(0.1440885,0,0,8.189935e-2,94.89285,76.721207)"
         id="path10140"
         style="opacity:0.5;fill:url(#linearGradient2733);fill-opacity:1;stroke:none" />
    </g>
    <path
       d="M 1.4638537,38.464001 L 46.535854,38.464001 L 45.634652,44.536001 L 2.4652334,44.536001 L 1.4638537,38.464001 z"
       id="path3762"
       style="opacity:0.2;fill:url(#linearGradient3770);fill-opacity:1;fill-rule:evenodd;stroke:none;stroke-width:0.9279989;stroke-linecap:round;stroke-linejoin:round;stroke-miterlimit:4;stroke-dasharray:none;stroke-dashoffset:0;stroke-opacity:1;display:inline;enable-background:new" />
    <path
       d="M 23.999769,31 C 20.634805,31 18.055218,29.732885 18.000846,28.052175 C 18.000418,28.034 18,28.016137 18,27.998273 C 18,27.390098 18.338098,26.811689 18.980563,26.321951 C 20.067367,25.494127 21.943772,25 24.000185,25 C 26.056182,25 27.932576,25.494127 29.01938,26.321951 C 29.680821,26.825472 30.019775,27.423938 29.999108,28.051858 C 29.943868,29.732568 27.364304,30.999995 23.999769,30.999995 L 23.999769,30.999998 L 23.999769,31 z M 23.999769,25.940321 C 20.837992,25.940321 19.227179,27.196152 19.265122,28.342633 C 19.301792,29.471257 21.421455,30.373027 23.999769,30.373027 C 26.578083,30.373027 28.697724,29.470939 28.734406,28.342633 C 28.771896,27.195835 27.161534,25.940321 23.999769,25.940321 L 23.999769,25.940321 L 23.999769,25.940321 z"
       id="path3787"
       style="fill:url(#radialGradient3789);fill-opacity:1;fill-rule:nonzero;stroke-width:1;stroke-linecap:butt;stroke-linejoin:miter;marker:none;stroke-miterlimit:4;stroke-dasharray:none;stroke-dashoffset:0;stroke-opacity:1;visibility:visible;display:inline;overflow:visible;enable-background:accumulate" />
  </g>
</svg>
