<?xml version="1.0" encoding="UTF-8" standalone="no"?>
<!-- Created with Inkscape (http://www.inkscape.org/) -->
<svg
   xmlns:dc="http://purl.org/dc/elements/1.1/"
   xmlns:cc="http://creativecommons.org/ns#"
   xmlns:rdf="http://www.w3.org/1999/02/22-rdf-syntax-ns#"
   xmlns:svg="http://www.w3.org/2000/svg"
   xmlns="http://www.w3.org/2000/svg"
   xmlns:xlink="http://www.w3.org/1999/xlink"
   xmlns:sodipodi="http://sodipodi.sourceforge.net/DTD/sodipodi-0.dtd"
   xmlns:inkscape="http://www.inkscape.org/namespaces/inkscape"
   width="48px"
   height="48px"
   id="svg3501"
   sodipodi:version="0.32"
   inkscape:version="0.46"
   sodipodi:docname="media-cdrom-audio.svg"
   inkscape:output_extension="org.inkscape.output.svg.inkscape">
  <defs
     id="defs3503">
    <linearGradient
       id="linearGradient23419"
       inkscape:collect="always">
      <stop
         id="stop23421"
         offset="0"
         style="stop-color:#000000;stop-opacity:1;" />
      <stop
         id="stop23423"
         offset="1"
         style="stop-color:#000000;stop-opacity:0;" />
    </linearGradient>
    <radialGradient
       r="22.627417"
       fy="41.63604"
       fx="23.334524"
       cy="41.63604"
       cx="23.334524"
       gradientTransform="matrix(1,0,0,0.25,0,31.22703)"
       gradientUnits="userSpaceOnUse"
       id="radialGradient3507"
       xlink:href="#linearGradient23419"
       inkscape:collect="always" />
    <linearGradient
       id="aigrd1"
       gradientUnits="userSpaceOnUse"
       x1="14.9966"
       y1="11.1885"
       x2="32.511"
       y2="34.3075">
      <stop
         offset="0"
         style="stop-color:#EBEBEB"
         id="stop3034" />
      <stop
         offset="0.5"
         style="stop-color:#FFFFFF"
         id="stop3036" />
      <stop
         offset="1"
         style="stop-color:#EBEBEB"
         id="stop3038" />
    </linearGradient>
    <linearGradient
       inkscape:collect="always"
       xlink:href="#aigrd1"
       id="linearGradient2728"
       gradientUnits="userSpaceOnUse"
       gradientTransform="matrix(1.190476,0,0,1.190476,-4.5589482,-2.0428811)"
       x1="14.9966"
       y1="11.1885"
       x2="32.511"
       y2="34.3075" />
    <linearGradient
       id="aigrd2"
       gradientUnits="userSpaceOnUse"
       x1="12.2744"
       y1="32.4165"
       x2="35.3912"
       y2="14.2033">
      <stop
         offset="0"
         style="stop-color:#FBFBFB"
         id="stop3043" />
      <stop
         offset="0.5"
         style="stop-color:#B6B6B6"
         id="stop3045" />
      <stop
         offset="1"
         style="stop-color:#E4E4E4"
         id="stop3047" />
    </linearGradient>
    <linearGradient
       inkscape:collect="always"
       xlink:href="#aigrd2"
       id="linearGradient2725"
       gradientUnits="userSpaceOnUse"
       gradientTransform="matrix(1.190476,0,0,1.190476,-4.5589482,-2.0428821)"
       x1="12.2744"
       y1="32.4165"
       x2="35.3912"
       y2="14.2033" />
    <linearGradient
       inkscape:collect="always"
       id="linearGradient4409">
      <stop
         style="stop-color:#ffffff;stop-opacity:1;"
         offset="0"
         id="stop4411" />
      <stop
         style="stop-color:#ffffff;stop-opacity:0;"
         offset="1"
         id="stop4413" />
    </linearGradient>
    <linearGradient
       inkscape:collect="always"
       xlink:href="#linearGradient4409"
       id="linearGradient2722"
       gradientUnits="userSpaceOnUse"
       gradientTransform="translate(0.2499958,1.4368889)"
       x1="25.985928"
       y1="24.919628"
       x2="15.889072"
       y2="11.669628" />
    <linearGradient
       inkscape:collect="always"
       id="linearGradient6036">
      <stop
         style="stop-color:#ffffff;stop-opacity:1;"
         offset="0"
         id="stop6038" />
      <stop
         style="stop-color:#ffffff;stop-opacity:0;"
         offset="1"
         id="stop6040" />
    </linearGradient>
    <linearGradient
       inkscape:collect="always"
       xlink:href="#linearGradient6036"
       id="linearGradient2718"
       gradientUnits="userSpaceOnUse"
       gradientTransform="translate(-0.3345242,0.4571189)"
       x1="10.501720"
       y1="3.6100161"
       x2="48.798885"
       y2="54.698483" />
    <linearGradient
       inkscape:collect="always"
       id="linearGradient6028">
      <stop
         style="stop-color:#ffffff;stop-opacity:1;"
         offset="0"
         id="stop6030" />
      <stop
         style="stop-color:#ffffff;stop-opacity:0;"
         offset="1"
         id="stop6032" />
    </linearGradient>
    <linearGradient
       y2="18.366575"
       x2="17.742729"
       y1="31.494707"
       x1="28.702885"
       gradientUnits="userSpaceOnUse"
       id="linearGradient3515"
       xlink:href="#linearGradient6028"
       inkscape:collect="always" />
    <linearGradient
       id="linearGradient2372">
      <stop
         offset="0"
         id="stop2374"
         style="stop-color:#ffffff;stop-opacity:1;" />
      <stop
         offset="1"
         id="stop2376"
         style="stop-color:#ffffff;stop-opacity:0;" />
    </linearGradient>
    <linearGradient
       inkscape:collect="always"
       xlink:href="#linearGradient2372"
       id="linearGradient2742"
       gradientUnits="userSpaceOnUse"
       gradientTransform="matrix(0.3228678,0,0,0.3243297,14.63044,-36.356591)"
       x1="28.179586"
       y1="139.52115"
       x2="26.256771"
       y2="125.39074" />
    <linearGradient
       inkscape:collect="always"
       xlink:href="#linearGradient3686"
       id="linearGradient2740"
       gradientUnits="userSpaceOnUse"
       gradientTransform="scale(1.3693064,0.7302968)"
       x1="11.128633"
       y1="51.807358"
       x2="12.458002"
       y2="61.909195" />
    <linearGradient
       id="linearGradient3668">
      <stop
         style="stop-color:#bbd4ea;stop-opacity:1;"
         id="stop3670"
         offset="0" />
      <stop
         style="stop-color:#6a92b8;stop-opacity:1;"
         id="stop3672"
         offset="1" />
    </linearGradient>
    <radialGradient
       inkscape:collect="always"
       xlink:href="#linearGradient3668"
       id="radialGradient2738"
       gradientUnits="userSpaceOnUse"
       gradientTransform="matrix(1,0,0,0.569469,0,17.67708)"
       cx="17.058823"
       cy="41.058823"
       fx="17.843975"
       fy="44.178165"
       r="5.7384715" />
    <linearGradient
       id="linearGradient3686"
       inkscape:collect="always">
      <stop
         style="stop-color:white;stop-opacity:1;"
         id="stop3688"
         offset="0" />
      <stop
         style="stop-color:white;stop-opacity:0;"
         id="stop3690"
         offset="1" />
    </linearGradient>
    <linearGradient
       inkscape:collect="always"
       xlink:href="#linearGradient3686"
       id="linearGradient2736"
       gradientUnits="userSpaceOnUse"
       x1="16.574366"
       y1="37.638168"
       x2="18.514551"
       y2="46.079796" />
    <linearGradient
       id="linearGradient7067">
      <stop
         offset="0"
         id="stop7069"
         style="stop-color:#bbd4ea;stop-opacity:1;" />
      <stop
         offset="1"
         id="stop7071"
         style="stop-color:#6a9ab8;stop-opacity:1" />
    </linearGradient>
    <radialGradient
       inkscape:collect="always"
       xlink:href="#linearGradient7067"
       id="radialGradient2734"
       gradientUnits="userSpaceOnUse"
       gradientTransform="matrix(1,0,0,0.569469,0,17.67708)"
       cx="17.058823"
       cy="41.058823"
       fx="17.843975"
       fy="44.178165"
       r="5.7384715" />
  </defs>
  <sodipodi:namedview
     id="base"
     pagecolor="#ffffff"
     bordercolor="#666666"
     borderopacity="1.0"
     inkscape:pageopacity="0.0"
     inkscape:pageshadow="2"
     inkscape:zoom="7"
     inkscape:cx="24"
     inkscape:cy="24"
     inkscape:current-layer="layer1"
     showgrid="true"
     inkscape:grid-bbox="true"
     inkscape:document-units="px"
     inkscape:window-width="640"
     inkscape:window-height="679"
     inkscape:window-x="0"
     inkscape:window-y="134" />
  <metadata
     id="metadata3506">
    <rdf:RDF>
      <cc:Work
         rdf:about="">
        <dc:format>image/svg+xml</dc:format>
        <dc:type
           rdf:resource="http://purl.org/dc/dcmitype/StillImage" />
      </cc:Work>
    </rdf:RDF>
  </metadata>
  <g
     id="layer1"
     inkscape:label="Layer 1"
     inkscape:groupmode="layer">
    <path
       sodipodi:type="arc"
       style="opacity:0.40000000000000002;fill:url(#radialGradient3507);fill-opacity:1;fill-rule:evenodd;stroke:none;stroke-width:2;stroke-linecap:butt;stroke-linejoin:miter;marker:none;marker-start:none;marker-mid:none;marker-end:none;stroke-miterlimit:4;stroke-dasharray:none;stroke-dashoffset:0;stroke-opacity:1;visibility:visible;display:inline;overflow:visible"
       id="path23417"
       sodipodi:cx="23.334524"
       sodipodi:cy="41.63604"
       sodipodi:rx="22.627417"
       sodipodi:ry="5.6568542"
       d="M 45.961941,41.63604 A 22.627417,5.6568542 0 1 1 0.70710754,41.63604 A 22.627417,5.6568542 0 1 1 45.961941,41.63604 z"
       inkscape:r_cx="true"
       inkscape:r_cy="true"
       transform="matrix(1,0,0,1.066291,0.6654758,-2.4279871)" />
    <path
       inkscape:r_cy="true"
       inkscape:r_cx="true"
       id="path2779"
       d="M 24.012482,4.6237854 C 12.464862,4.6237854 3.1791477,13.9095 3.1791477,25.457119 C 3.1791477,37.004739 12.464862,46.290454 24.012482,46.290454 C 35.560102,46.290454 44.845817,37.004739 44.845817,25.457119 C 44.845817,13.9095 35.560102,4.6237854 24.012482,4.6237854 L 24.012482,4.6237854 z M 24.012482,30.45712 C 21.274387,30.45712 19.012482,28.195215 19.012482,25.457119 C 19.012482,22.719024 21.274387,20.457119 24.012482,20.457119 C 26.750577,20.457119 29.012482,22.719024 29.012482,25.457119 C 29.012482,28.195215 26.750577,30.45712 24.012482,30.45712 z"
       style="fill:url(#linearGradient2728);fill-rule:nonzero;stroke:none;stroke-miterlimit:4" />
    <path
       inkscape:r_cy="true"
       inkscape:r_cx="true"
       id="path2781"
       d="M 24.012482,4.623785 C 12.464862,4.623785 3.1791478,13.9095 3.1791478,25.457119 C 3.1791478,37.004739 12.464862,46.290454 24.012482,46.290454 C 35.560102,46.290454 44.845817,37.004739 44.845817,25.457119 C 44.845817,13.9095 35.560102,4.623785 24.012482,4.623785 L 24.012482,4.623785 z M 24.012482,30.45712 C 21.274387,30.45712 19.012482,28.195215 19.012482,25.457119 C 19.012482,22.719024 21.274387,20.457119 24.012482,20.457119 C 26.750577,20.457119 29.012482,22.719024 29.012482,25.457119 C 29.012482,28.195215 26.750577,30.45712 24.012482,30.45712 z"
       style="fill:url(#linearGradient2725);fill-rule:nonzero;stroke:#808080;stroke-miterlimit:4;stroke-opacity:1" />
    <path
       style="fill:url(#linearGradient2722);fill-opacity:1;fill-rule:nonzero;stroke:none;stroke-miterlimit:4;stroke-opacity:1"
       d="M 23.160534,5.2492244 C 12.398843,5.6551349 3.8609233,14.466577 3.8609233,25.331659 C 3.8609233,30.257164 5.6080468,34.734049 8.5277559,38.218139 L 19.645109,28.807845 C 18.923768,27.964504 18.595874,26.764677 18.595874,25.581659 C 18.595874,22.191269 20.900163,20.014284 24.163249,20.014284 C 25.647174,20.014284 27.134336,20.687711 28.021715,21.760582 L 39.389068,12.475288 C 35.713897,8.0511338 30.144793,5.2492244 23.913249,5.2492244 C 23.652488,5.2492244 23.418815,5.2394825 23.160534,5.2492244 z"
       id="path2783"
       sodipodi:nodetypes="csccssccsc" />
    <path
       inkscape:r_cy="true"
       inkscape:r_cx="true"
       id="path2785"
       d="M 24.012482,15.352954 C 18.369896,15.352954 13.908316,19.945757 13.908316,25.457119 C 13.908316,31.099707 18.50112,35.561285 24.012482,35.561285 C 29.655068,35.561285 34.116648,30.968483 34.116648,25.457119 C 34.116648,19.814533 29.523844,15.352954 24.012482,15.352954 L 24.012482,15.352954 z M 24.012482,30.968483 C 20.994355,30.968483 18.50112,28.475248 18.50112,25.457119 C 18.50112,22.438992 20.994355,19.945757 24.012482,19.945757 C 27.030609,19.945757 29.523844,22.438992 29.523844,25.457119 C 29.523844,28.475248 27.030609,30.968483 24.012482,30.968483 z"
       style="opacity:0.51098902000000002;fill:#eeeeec;fill-rule:nonzero;stroke:none;stroke-miterlimit:4" />
    <path
       inkscape:r_cy="true"
       inkscape:r_cx="true"
       style="opacity:0.54644811000000004;fill:none;fill-rule:nonzero;stroke:url(#linearGradient2718);stroke-miterlimit:4;stroke-opacity:1"
       d="M 24.012478,5.659484 C 13.038934,5.659484 4.2148469,14.483573 4.2148469,25.457116 C 4.2148469,36.43066 13.038934,45.254747 24.012478,45.254747 C 34.986022,45.254747 43.810109,36.43066 43.810109,25.457116 C 43.810109,14.483573 34.986022,5.659484 24.012478,5.659484 L 24.012478,5.659484 z"
       id="path2787"
       sodipodi:nodetypes="cccccc" />
    <path
       inkscape:r_cy="true"
       inkscape:r_cx="true"
       sodipodi:type="arc"
       style="opacity:0.67213111000000003;fill:none;fill-opacity:0.31638417000000002;fill-rule:nonzero;stroke:url(#linearGradient3515);stroke-width:0.93053865000000002;stroke-linecap:butt;stroke-linejoin:miter;marker:none;marker-start:none;marker-mid:none;marker-end:none;stroke-miterlimit:4;stroke-dashoffset:0;stroke-opacity:1;visibility:visible;display:inline;overflow:visible"
       id="path2789"
       sodipodi:cx="24.306795"
       sodipodi:cy="24.930641"
       sodipodi:rx="6.0987959"
       sodipodi:ry="6.0987959"
       d="M 30.405591,24.930641 A 6.0987959,6.0987959 0 1 1 18.207999,24.930641 A 6.0987959,6.0987959 0 1 1 30.405591,24.930641 z"
       transform="translate(-0.2461362,0.5455079)" />
    <g
       id="g2710"
       transform="translate(-1.0001225,0)">
      <path
         transform="matrix(2.2226587,0,0,1.3724571,-25.36673,10.272039)"
         d="M 19.828288,17.854717 A 0.44991162,0.72862023 0 1 1 18.928464,17.854717 A 0.44991162,0.72862023 0 1 1 19.828288,17.854717 z"
         sodipodi:ry="0.72862023"
         sodipodi:rx="0.44991162"
         sodipodi:cy="17.854717"
         sodipodi:cx="19.378376"
         id="path6089"
         style="fill:#ffffff;fill-opacity:0.37387384;fill-rule:evenodd;stroke:none;stroke-width:0.57255107;stroke-linecap:round;stroke-linejoin:miter;marker:none;marker-start:none;marker-mid:none;marker-end:none;stroke-miterlimit:4;stroke-dasharray:none;stroke-dashoffset:0;stroke-opacity:0.35585584;visibility:visible;display:inline;overflow:visible;enable-background:accumulate"
         sodipodi:type="arc" />
      <path
         sodipodi:type="arc"
         style="fill:#ffffff;fill-opacity:0.37387384;fill-rule:evenodd;stroke:none;stroke-width:0.57255107;stroke-linecap:round;stroke-linejoin:miter;marker:none;marker-start:none;marker-mid:none;marker-end:none;stroke-miterlimit:4;stroke-dasharray:none;stroke-dashoffset:0;stroke-opacity:0.35585584;visibility:visible;display:inline;overflow:visible;enable-background:accumulate"
         id="path6087"
         sodipodi:cx="19.378376"
         sodipodi:cy="17.854717"
         sodipodi:rx="0.44991162"
         sodipodi:ry="0.72862023"
         d="M 19.828288,17.854717 A 0.44991162,0.72862023 0 1 1 18.928464,17.854717 A 0.44991162,0.72862023 0 1 1 19.828288,17.854717 z"
         transform="matrix(2.2226587,0,0,1.3724571,-28.36673,10.272039)" />
      <path
         transform="matrix(1.1113294,0,0,1.3724571,-6.33097,11.272039)"
         d="M 19.828288,17.854717 A 0.44991162,0.72862023 0 1 1 18.928464,17.854717 A 0.44991162,0.72862023 0 1 1 19.828288,17.854717 z"
         sodipodi:ry="0.72862023"
         sodipodi:rx="0.44991162"
         sodipodi:cy="17.854717"
         sodipodi:cx="19.378376"
         id="path6083"
         style="fill:#2e3436;fill-opacity:1;fill-rule:evenodd;stroke:none;stroke-width:0.80970943;stroke-linecap:round;stroke-linejoin:miter;marker:none;marker-start:none;marker-mid:none;marker-end:none;stroke-miterlimit:4;stroke-dasharray:none;stroke-dashoffset:0;stroke-opacity:0.35585584;visibility:visible;display:inline;overflow:visible;enable-background:accumulate"
         sodipodi:type="arc" />
      <path
         sodipodi:type="arc"
         style="fill:#2e3436;fill-opacity:1;fill-rule:evenodd;stroke:none;stroke-width:0.80970943;stroke-linecap:round;stroke-linejoin:miter;marker:none;marker-start:none;marker-mid:none;marker-end:none;stroke-miterlimit:4;stroke-dasharray:none;stroke-dashoffset:0;stroke-opacity:0.35585584;visibility:visible;display:inline;overflow:visible;enable-background:accumulate"
         id="path6085"
         sodipodi:cx="19.378376"
         sodipodi:cy="17.854717"
         sodipodi:rx="0.44991162"
         sodipodi:ry="0.72862023"
         d="M 19.828288,17.854717 A 0.44991162,0.72862023 0 1 1 18.928464,17.854717 A 0.44991162,0.72862023 0 1 1 19.828288,17.854717 z"
         transform="matrix(1.1113294,0,0,1.3724571,-3.33097,11.272039)" />
      <path
         sodipodi:nodetypes="ccccccccccccccc"
         id="path3291"
         d="M 41.00151,1.3126021 C 34.76326,2.2850731 29.01882,3.2491381 22.78136,4.2268631 C 21.67204,4.6919481 21.95505,6.1389021 21.92438,7.1352521 C 21.92438,13.968816 21.92438,20.802377 21.92438,27.635941 C 17.20906,26.239054 12.1592,30.11624 12.76352,34.52637 C 13.16917,37.294694 16.24601,38.662961 18.66743,37.98925 C 21.70504,37.366116 24.15349,34.635866 24.15349,31.065609 C 24.15349,24.581191 24.05253,18.096776 24.05253,11.612359 C 28.87342,10.936763 35.08196,9.9081843 39.90287,9.2325883 C 39.90287,14.352678 39.90287,20.002242 39.90287,25.12233 C 34.74982,23.354875 30.39603,27.271393 30.75506,31.596756 C 30.97331,34.245743 33.74413,35.827434 36.11085,35.399438 C 39.40236,35.034352 42.42571,31.902697 42.08018,28.340333 C 42.067,19.749877 42.10426,11.15255 42.06599,2.5655191 C 41.96872,1.9685211 41.65469,1.3436691 41.00151,1.3126021 z"
         style="fill:#6a9ab8;fill-opacity:1;stroke:#39617a;stroke-width:1.79999995;stroke-linecap:round;stroke-linejoin:round;stroke-miterlimit:4;stroke-dasharray:none;stroke-opacity:1" />
      <path
         sodipodi:nodetypes="ccccccccsssccccccc"
         d="M 40.9936,1.1911651 L 23.1319,4.0908501 C 22.52972,4.0908501 22.05992,4.6980351 22.05992,5.4539191 L 21.99262,29.511993 C 13.88041,30.543295 21.1901,35.179995 23.96544,32.150218 L 23.96544,11.453081 L 40.03721,8.9208363 L 40.03721,26.640653 C 39.27566,26.386162 37.37735,26.557449 36.4232,26.697968 C 33.63432,27.108689 31.37361,29.21746 31.37361,31.439056 C 31.37361,33.660662 33.63432,35.138909 36.4232,34.728185 C 39.15015,34.326584 41.37534,32.273404 41.4728,30.105626 L 41.78311,30.105626 C 41.97069,30.105626 42.12162,29.94708 42.12162,29.750044 L 42.12162,8.8003623 L 42.12162,7.5261961 L 42.12162,2.8048021 C 42.12162,2.0489201 41.59578,1.1911651 40.9936,1.1911651 z"
         id="path3293"
         style="fill:#6a9ab8;fill-opacity:1;stroke:none;stroke-width:1;stroke-linecap:round;stroke-linejoin:round;stroke-miterlimit:4;stroke-dasharray:none;stroke-opacity:1" />
      <path
         id="path3295"
         sodipodi:cx="17.058823"
         sodipodi:cy="41.058823"
         transform="matrix(1.0727934,-0.1827082,0,1.8530462,4.87e-3,-40.265543)"
         d="M 22.35294,41.058823 A 5.2941175,2.8235295 0 1 1 11.764705,41.058823 A 5.2941175,2.8235295 0 1 1 22.35294,41.058823 z"
         sodipodi:type="arc"
         style="fill:url(#radialGradient2734);fill-opacity:1;stroke:none;stroke-width:0.70924914;stroke-linecap:round;stroke-linejoin:round;stroke-miterlimit:4;stroke-dasharray:none;stroke-opacity:1"
         sodipodi:ry="2.8235295"
         sodipodi:rx="5.2941175" />
      <path
         id="path3297"
         sodipodi:cx="17.058823"
         sodipodi:cy="41.058823"
         transform="matrix(0.7802126,-0.1389205,0,0.8945915,4.47962,-3.0193511)"
         d="M 22.35294,41.058823 A 5.2941175,2.8235295 0 1 1 11.764705,41.058823 A 5.2941175,2.8235295 0 1 1 22.35294,41.058823 z"
         sodipodi:type="arc"
         style="fill:url(#linearGradient2736);fill-opacity:1;stroke:none;stroke-width:1.19696414;stroke-linecap:round;stroke-linejoin:round;stroke-miterlimit:4;stroke-dasharray:none;stroke-opacity:0.29556651"
         sodipodi:ry="2.8235295"
         sodipodi:rx="5.2941175" />
      <path
         id="path3299"
         sodipodi:cx="17.058823"
         sodipodi:cy="41.058823"
         transform="matrix(1.0727934,-0.1827082,0,1.8530462,18.13181,-42.92635)"
         d="M 22.35294,41.058823 A 5.2941175,2.8235295 0 1 1 11.764705,41.058823 A 5.2941175,2.8235295 0 1 1 22.35294,41.058823 z"
         sodipodi:type="arc"
         style="fill:url(#radialGradient2738);fill-opacity:1;stroke:none;stroke-width:0.70924914;stroke-linecap:round;stroke-linejoin:round;stroke-miterlimit:4;stroke-dasharray:none;stroke-opacity:1"
         sodipodi:ry="2.8235295"
         sodipodi:rx="5.2941175" />
      <path
         id="path3301"
         sodipodi:cx="17.058823"
         sodipodi:cy="41.058823"
         transform="matrix(0.7802126,-0.1389205,0,0.8945915,22.60656,-5.6801536)"
         d="M 22.35294,41.058823 A 5.2941175,2.8235295 0 1 1 11.764705,41.058823 A 5.2941175,2.8235295 0 1 1 22.35294,41.058823 z"
         sodipodi:type="arc"
         style="fill:url(#linearGradient2740);fill-opacity:1;stroke:none;stroke-width:1.19696414;stroke-linecap:round;stroke-linejoin:round;stroke-miterlimit:4;stroke-dasharray:none;stroke-opacity:0.29556651"
         sodipodi:ry="2.8235295"
         sodipodi:rx="5.2941175" />
      <path
         sodipodi:nodetypes="ccccsssc"
         style="opacity:0.5;fill:url(#linearGradient2742);fill-opacity:1;fill-rule:evenodd;stroke:none;stroke-width:1;stroke-linecap:butt;stroke-linejoin:round;stroke-miterlimit:4;stroke-dasharray:none;stroke-opacity:1"
         d="M 21.99139,28.117066 L 21.9967,5.7974791 C 21.9967,5.7974791 22.30524,4.3808581 23.2838,4.1690331 C 23.67844,4.1009061 40.95196,1.2071071 40.95196,1.2071071 C 40.95196,1.2071071 39.34194,5.4228851 31.65918,6.5222011 C 26.16586,7.3112601 23.04938,7.5316351 23.06794,10.826751 C 23.08637,14.155855 22.91594,16.737851 22.91594,28.859798 C 22.91594,28.946524 22.4487,28.322274 21.99139,28.117066 z"
         id="path3303" />
      <path
         sodipodi:nodetypes="cccsc"
         style="opacity:0.4;fill:#ffffff;fill-opacity:1;fill-rule:evenodd;stroke:none;stroke-width:1;stroke-linecap:butt;stroke-linejoin:round;stroke-miterlimit:4;stroke-dasharray:none;stroke-opacity:1"
         d="M 40.00862,25.435436 L 40.05165,8.9135993 C 40.50513,8.8322383 40.29,8.7317643 40.9015,8.6099183 C 40.90988,11.69603 40.96544,14.365147 40.96544,26.020571 C 40.96544,26.107297 40.48016,25.555249 40.00862,25.435436 z"
         id="path3996" />
    </g>
  </g>
</svg>
