<svg xmlns="http://www.w3.org/2000/svg" xmlns:xlink="http://www.w3.org/1999/xlink" viewBox="0 0 48 48"><defs><linearGradient id="d"><stop offset="0" stop-color="#fff"/><stop offset="1" stop-color="#fff" stop-opacity="0"/></linearGradient><linearGradient id="a"><stop offset="0"/><stop offset="1" stop-opacity="0"/></linearGradient><linearGradient id="e"><stop offset="0" stop-color="#628430"/><stop offset="1" stop-color="#364d17"/></linearGradient><linearGradient id="c"><stop offset="0" stop-color="#877c32"/><stop offset="1" stop-color="#ffd716"/></linearGradient><linearGradient id="b"><stop offset="0" stop-color="#d3ba00"/><stop offset="1" stop-color="#d3ba00" stop-opacity="0"/></linearGradient><radialGradient cx="21.5" cy="44.75" r="17" fx="21.5" fy="44.75" id="f" xlink:href="#a" gradientUnits="userSpaceOnUse" gradientTransform="matrix(1.0298 0 0 .11765 -3.648 33.735)"/><linearGradient x1="6.221" y1="42.891" x2="6.238" y2="39.267" id="l" xlink:href="#b" gradientUnits="userSpaceOnUse" gradientTransform="matrix(-1.98438 0 0 .631 23.894 9.596)"/><linearGradient x1="6.221" y1="42.891" x2="6.238" y2="39.267" id="k" xlink:href="#b" gradientUnits="userSpaceOnUse" gradientTransform="matrix(-1.98438 0 0 .631 26.894 9.596)"/><linearGradient x1="6.221" y1="42.891" x2="6.238" y2="39.267" id="j" xlink:href="#b" gradientUnits="userSpaceOnUse" gradientTransform="matrix(-1.98438 0 0 .631 29.894 9.596)"/><linearGradient x1="6.221" y1="42.891" x2="6.238" y2="39.267" id="i" xlink:href="#b" gradientUnits="userSpaceOnUse" gradientTransform="matrix(-1.98438 0 0 .631 32.91 9.596)"/><linearGradient x1="6.221" y1="42.891" x2="6.238" y2="39.267" id="h" xlink:href="#b" gradientUnits="userSpaceOnUse" gradientTransform="matrix(-1.98438 0 0 .631 35.91 9.596)"/><linearGradient x1="6.221" y1="42.891" x2="6.238" y2="39.267" id="w" xlink:href="#b" gradientUnits="userSpaceOnUse" gradientTransform="matrix(-1.98438 0 0 .631 20.907 9.655)"/><linearGradient x1="6.221" y1="42.891" x2="6.238" y2="39.267" id="x" xlink:href="#b" gradientUnits="userSpaceOnUse" gradientTransform="matrix(-1.98438 0 0 .631 38.89 9.655)"/><linearGradient x1="8" y1="19.5" x2="4.328" y2="19.5" id="v" xlink:href="#c" gradientUnits="userSpaceOnUse" gradientTransform="matrix(.33333 0 0 1 1.333 3)"/><linearGradient x1="8" y1="19.5" x2="4.328" y2="19.5" id="u" xlink:href="#c" gradientUnits="userSpaceOnUse" gradientTransform="matrix(.33333 0 0 1 1.333 5)"/><linearGradient x1="8" y1="19.5" x2="4.328" y2="19.5" id="t" xlink:href="#c" gradientUnits="userSpaceOnUse" gradientTransform="matrix(.33333 0 0 1 1.333 7)"/><linearGradient x1="8" y1="19.5" x2="4.328" y2="19.5" id="s" xlink:href="#c" gradientUnits="userSpaceOnUse" gradientTransform="matrix(.33333 0 0 1 1.333 9)"/><linearGradient x1="24" y1="21.5" x2="27" y2="21.5" id="r" xlink:href="#c" gradientUnits="userSpaceOnUse" gradientTransform="matrix(.33333 0 0 1 -28 -13)"/><linearGradient x1="24" y1="19.5" x2="27" y2="19.5" id="q" xlink:href="#c" gradientUnits="userSpaceOnUse" gradientTransform="matrix(.33333 0 0 1 -28 -13)"/><linearGradient x1="8" y1="19.5" x2="4.328" y2="19.5" id="p" xlink:href="#c" gradientUnits="userSpaceOnUse" gradientTransform="matrix(.33333 0 0 1 -33.667 -13)"/><linearGradient x1="8" y1="19.5" x2="4.328" y2="19.5" id="o" xlink:href="#c" gradientUnits="userSpaceOnUse" gradientTransform="matrix(.33333 0 0 1 -33.667 -13)"/><linearGradient x1="16.965" y1="20.166" x2="18.968" y2="31.347" id="n" xlink:href="#d" gradientUnits="userSpaceOnUse" gradientTransform="matrix(.5308 0 0 .7586 -34.068 -9.254)"/><linearGradient x1="16.965" y1="20.166" x2="18.968" y2="31.347" id="y" xlink:href="#d" gradientUnits="userSpaceOnUse" gradientTransform="matrix(.5308 0 0 .7586 -34.068 1.746)"/><linearGradient x1="8" y1="19.5" x2="4.328" y2="19.5" id="z" xlink:href="#c" gradientUnits="userSpaceOnUse" gradientTransform="matrix(.33333 0 0 1 -33.667 -2)"/><linearGradient x1="8" y1="19.5" x2="4.328" y2="19.5" id="A" xlink:href="#c" gradientUnits="userSpaceOnUse" gradientTransform="matrix(.33333 0 0 1 -33.667 -2)"/><linearGradient x1="24" y1="19.5" x2="27" y2="19.5" id="B" xlink:href="#c" gradientUnits="userSpaceOnUse" gradientTransform="matrix(.33333 0 0 1 -28 -2)"/><linearGradient x1="24" y1="21.5" x2="27" y2="21.5" id="C" xlink:href="#c" gradientUnits="userSpaceOnUse" gradientTransform="matrix(.33333 0 0 1 -28 -2)"/><linearGradient x1="8" y1="19.5" x2="4.328" y2="19.5" id="D" xlink:href="#c" gradientUnits="userSpaceOnUse" gradientTransform="matrix(.33333 0 0 1 12.333 9)"/><linearGradient x1="8" y1="19.5" x2="4.328" y2="19.5" id="E" xlink:href="#c" gradientUnits="userSpaceOnUse" gradientTransform="matrix(.33333 0 0 1 12.333 7)"/><linearGradient x1="8" y1="19.5" x2="4.328" y2="19.5" id="F" xlink:href="#c" gradientUnits="userSpaceOnUse" gradientTransform="matrix(.33333 0 0 1 12.333 5)"/><linearGradient x1="8" y1="19.5" x2="4.328" y2="19.5" id="G" xlink:href="#c" gradientUnits="userSpaceOnUse" gradientTransform="matrix(.33333 0 0 1 12.333 3)"/><linearGradient x1="16.965" y1="20.166" x2="18.968" y2="31.347" id="H" xlink:href="#d" gradientUnits="userSpaceOnUse" gradientTransform="matrix(.5308 0 0 .7586 -34.068 12.746)"/><linearGradient x1="8" y1="19.5" x2="4.328" y2="19.5" id="I" xlink:href="#c" gradientUnits="userSpaceOnUse" gradientTransform="matrix(.33333 0 0 1 -33.667 9)"/><linearGradient x1="8" y1="19.5" x2="4.328" y2="19.5" id="J" xlink:href="#c" gradientUnits="userSpaceOnUse" gradientTransform="matrix(.33333 0 0 1 -33.667 9)"/><linearGradient x1="24" y1="19.5" x2="27" y2="19.5" id="K" xlink:href="#c" gradientUnits="userSpaceOnUse" gradientTransform="matrix(.33333 0 0 1 -28 9)"/><linearGradient x1="24" y1="21.5" x2="27" y2="21.5" id="L" xlink:href="#c" gradientUnits="userSpaceOnUse" gradientTransform="matrix(.33333 0 0 1 -28 9)"/><linearGradient x1="8" y1="19.5" x2="4.328" y2="19.5" id="M" xlink:href="#c" gradientUnits="userSpaceOnUse" gradientTransform="matrix(.33333 0 0 1 23.333 9)"/><linearGradient x1="8" y1="19.5" x2="4.328" y2="19.5" id="N" xlink:href="#c" gradientUnits="userSpaceOnUse" gradientTransform="matrix(.33333 0 0 1 23.333 7)"/><linearGradient x1="8" y1="19.5" x2="4.328" y2="19.5" id="O" xlink:href="#c" gradientUnits="userSpaceOnUse" gradientTransform="matrix(.33333 0 0 1 23.333 5)"/><linearGradient x1="8" y1="19.5" x2="4.328" y2="19.5" id="P" xlink:href="#c" gradientUnits="userSpaceOnUse" gradientTransform="matrix(.33333 0 0 1 23.333 3)"/><linearGradient x1="16.965" y1="20.166" x2="18.968" y2="31.347" id="Q" xlink:href="#d" gradientUnits="userSpaceOnUse" gradientTransform="matrix(.5308 0 0 .7586 -34.068 23.746)"/><linearGradient x1="8" y1="19.5" x2="4.328" y2="19.5" id="R" xlink:href="#c" gradientUnits="userSpaceOnUse" gradientTransform="matrix(.33333 0 0 1 -33.667 20)"/><linearGradient x1="8" y1="19.5" x2="4.328" y2="19.5" id="S" xlink:href="#c" gradientUnits="userSpaceOnUse" gradientTransform="matrix(.33333 0 0 1 -33.667 20)"/><linearGradient x1="24" y1="19.5" x2="27" y2="19.5" id="T" xlink:href="#c" gradientUnits="userSpaceOnUse" gradientTransform="matrix(.33333 0 0 1 -28 20)"/><linearGradient x1="24" y1="21.5" x2="27" y2="21.5" id="U" xlink:href="#c" gradientUnits="userSpaceOnUse" gradientTransform="matrix(.33333 0 0 1 -28 20)"/><linearGradient x1="8" y1="19.5" x2="4.328" y2="19.5" id="V" xlink:href="#c" gradientUnits="userSpaceOnUse" gradientTransform="matrix(.33333 0 0 1 34.333 9)"/><linearGradient x1="8" y1="19.5" x2="4.328" y2="19.5" id="W" xlink:href="#c" gradientUnits="userSpaceOnUse" gradientTransform="matrix(.33333 0 0 1 34.333 7)"/><linearGradient x1="8" y1="19.5" x2="4.328" y2="19.5" id="X" xlink:href="#c" gradientUnits="userSpaceOnUse" gradientTransform="matrix(.33333 0 0 1 34.333 5)"/><linearGradient x1="8" y1="19.5" x2="4.328" y2="19.5" id="Y" xlink:href="#c" gradientUnits="userSpaceOnUse" gradientTransform="matrix(.33333 0 0 1 34.333 3)"/><linearGradient x1="8" y1="19.5" x2="4.328" y2="19.5" id="Z" xlink:href="#c" gradientUnits="userSpaceOnUse" gradientTransform="matrix(.33333 0 0 1 -13.667 9)"/><linearGradient x1="8" y1="19.5" x2="4.328" y2="19.5" id="aa" xlink:href="#c" gradientUnits="userSpaceOnUse" gradientTransform="matrix(.33333 0 0 1 -13.667 7)"/><linearGradient x1="8" y1="19.5" x2="4.328" y2="19.5" id="ab" xlink:href="#c" gradientUnits="userSpaceOnUse" gradientTransform="matrix(.33333 0 0 1 -13.667 5)"/><linearGradient x1="8" y1="19.5" x2="4.328" y2="19.5" id="ac" xlink:href="#c" gradientUnits="userSpaceOnUse" gradientTransform="matrix(.33333 0 0 1 -13.667 3)"/><linearGradient x1="8" y1="19.5" x2="4.328" y2="19.5" id="ad" xlink:href="#c" gradientUnits="userSpaceOnUse" gradientTransform="matrix(.33333 0 0 1 -24.667 9)"/><linearGradient x1="8" y1="19.5" x2="4.328" y2="19.5" id="ae" xlink:href="#c" gradientUnits="userSpaceOnUse" gradientTransform="matrix(.33333 0 0 1 -24.667 7)"/><linearGradient x1="8" y1="19.5" x2="4.328" y2="19.5" id="af" xlink:href="#c" gradientUnits="userSpaceOnUse" gradientTransform="matrix(.33333 0 0 1 -24.667 5)"/><linearGradient x1="8" y1="19.5" x2="4.328" y2="19.5" id="ag" xlink:href="#c" gradientUnits="userSpaceOnUse" gradientTransform="matrix(.33333 0 0 1 -24.667 3)"/><linearGradient x1="8" y1="19.5" x2="4.328" y2="19.5" id="ah" xlink:href="#c" gradientUnits="userSpaceOnUse" gradientTransform="matrix(.33333 0 0 1 -35.667 9)"/><linearGradient x1="8" y1="19.5" x2="4.328" y2="19.5" id="ai" xlink:href="#c" gradientUnits="userSpaceOnUse" gradientTransform="matrix(.33333 0 0 1 -35.667 7)"/><linearGradient x1="8" y1="19.5" x2="4.328" y2="19.5" id="aj" xlink:href="#c" gradientUnits="userSpaceOnUse" gradientTransform="matrix(.33333 0 0 1 -35.667 5)"/><linearGradient x1="8" y1="19.5" x2="4.328" y2="19.5" id="ak" xlink:href="#c" gradientUnits="userSpaceOnUse" gradientTransform="matrix(.33333 0 0 1 -35.667 3)"/><linearGradient x1="8" y1="19.5" x2="4.328" y2="19.5" id="al" xlink:href="#c" gradientUnits="userSpaceOnUse" gradientTransform="matrix(.33333 0 0 1 -46.667 9)"/><linearGradient x1="8" y1="19.5" x2="4.328" y2="19.5" id="am" xlink:href="#c" gradientUnits="userSpaceOnUse" gradientTransform="matrix(.33333 0 0 1 -46.667 7)"/><linearGradient x1="8" y1="19.5" x2="4.328" y2="19.5" id="an" xlink:href="#c" gradientUnits="userSpaceOnUse" gradientTransform="matrix(.33333 0 0 1 -46.667 5)"/><linearGradient x1="8" y1="19.5" x2="4.328" y2="19.5" id="ao" xlink:href="#c" gradientUnits="userSpaceOnUse" gradientTransform="matrix(.33333 0 0 1 -46.667 3)"/><linearGradient x1="6.221" y1="42.891" x2="6.238" y2="39.267" id="ap" xlink:href="#b" gradientUnits="userSpaceOnUse" gradientTransform="matrix(-1.98438 0 0 .631 41.89 9.655)"/><radialGradient cx="10.78" cy="14.525" r="23" fx="10.78" fy="14.525" id="g" xlink:href="#e" gradientUnits="userSpaceOnUse" gradientTransform="matrix(2.79246 .1235 -.03207 .72512 -18.856 8.628)"/><radialGradient cx="6.509" cy="12.336" r="21.999" fx="6.509" fy="12.336" id="m" xlink:href="#d" gradientUnits="userSpaceOnUse" gradientTransform="matrix(2.0637 -.00488 .00195 .82308 -6.948 9.547)"/></defs><path d="M36 39A17.507 2 0 0 1 .987 39 17.507 2 0 1 1 36 39z" opacity=".3" color="#000" fill="url(#f)" display="block" overflow="visible"/><path d="M46.5 35.5l-15 .016V38.5h-26v-3.008l-4 .008v-20h45v20z" color="#000" fill="url(#g)" stroke="#28390d" stroke-linejoin="round" display="block" overflow="visible"/><path d="M23.01 34.58c-.798 0-.99.397-.99.572v2.79h1.983v-2.79c0-.175-.208-.572-.992-.572z" color="#000" fill="url(#h)" display="block" overflow="visible"/><path d="M20.01 34.58c-.798 0-.99.397-.99.572v2.79h1.983v-2.79c0-.175-.208-.572-.992-.572z" color="#000" fill="url(#i)" display="block" overflow="visible"/><path d="M16.996 34.58c-.8 0-.993.397-.993.572v2.79h1.985v-2.79c0-.175-.208-.572-.992-.572z" color="#000" fill="url(#j)" display="block" overflow="visible"/><path d="M13.996 34.58c-.8 0-.993.397-.993.572v2.79h1.985v-2.79c0-.175-.208-.572-.992-.572z" color="#000" fill="url(#k)" display="block" overflow="visible"/><path d="M10.996 34.58c-.8 0-.993.397-.993.572v2.79h1.985v-2.79c0-.175-.208-.572-.992-.572z" color="#000" fill="url(#l)" display="block" overflow="visible"/><path d="M45.5 34.502h-15v2.98h-24v-2.987l-3.995.003C2.5 34.498 2.5 16.5 2.5 16.5h43c-.004 8.34 0 18.002 0 18.002z" opacity=".4" color="#000" fill="none" stroke="url(#m)" display="block" overflow="visible"/><rect width="10.056" height="5.93" rx=".942" ry=".942" x="-30.528" y="4.504" transform="rotate(-90)" color="#000" fill="#555753" stroke="#2e3436" display="block" overflow="visible"/><rect width="8.016" height="3.882" rx="0" ry="0" x="-29.583" y="5.511" transform="rotate(-90)" opacity=".17" color="#000" fill="none" stroke="url(#n)" display="block" overflow="visible"/><path transform="rotate(-90)" color="#000" fill="url(#o)" display="block" overflow="visible" d="M-32 6h1v1h-1z"/><path transform="rotate(-90)" color="#000" fill="url(#p)" display="block" overflow="visible" d="M-32 8h1v1h-1z"/><path transform="rotate(-90)" color="#000" fill="url(#q)" display="block" overflow="visible" d="M-20 6h1v1h-1z"/><path transform="rotate(-90)" color="#000" fill="url(#r)" display="block" overflow="visible" d="M-20 8h1v1h-1z"/><path color="#000" fill="url(#s)" display="block" overflow="visible" d="M3 28h1v1H3z"/><path color="#000" fill="url(#t)" display="block" overflow="visible" d="M3 26h1v1H3z"/><path color="#000" fill="url(#u)" display="block" overflow="visible" d="M3 24h1v1H3z"/><path color="#000" fill="url(#v)" display="block" overflow="visible" d="M3 22h1v1H3z"/><path d="M8.008 34.64c-.8 0-.992.396-.992.57V38H9v-2.79c0-.174-.208-.57-.992-.57z" color="#000" fill="url(#w)" display="block" overflow="visible"/><path d="M25.993 34.64c-.8 0-.993.396-.993.57V38h1.985v-2.79c0-.174-.208-.57-.992-.57z" color="#000" fill="url(#x)" display="block" overflow="visible"/><rect width="10.056" height="5.93" rx=".942" ry=".942" x="-30.528" y="15.504" transform="rotate(-90)" color="#000" fill="#555753" stroke="#2e3436" display="block" overflow="visible"/><rect width="8.016" height="3.882" rx="0" ry="0" x="-29.583" y="16.511" transform="rotate(-90)" opacity=".17" color="#000" fill="none" stroke="url(#y)" display="block" overflow="visible"/><path transform="rotate(-90)" color="#000" fill="url(#z)" display="block" overflow="visible" d="M-32 17h1v1h-1z"/><path transform="rotate(-90)" color="#000" fill="url(#A)" display="block" overflow="visible" d="M-32 19h1v1h-1z"/><path transform="rotate(-90)" color="#000" fill="url(#B)" display="block" overflow="visible" d="M-20 17h1v1h-1z"/><path transform="rotate(-90)" color="#000" fill="url(#C)" display="block" overflow="visible" d="M-20 19h1v1h-1z"/><path color="#000" fill="url(#D)" display="block" overflow="visible" d="M14 28h1v1h-1z"/><path color="#000" fill="url(#E)" display="block" overflow="visible" d="M14 26h1v1h-1z"/><path color="#000" fill="url(#F)" display="block" overflow="visible" d="M14 24h1v1h-1z"/><path color="#000" fill="url(#G)" display="block" overflow="visible" d="M14 22h1v1h-1z"/><rect width="10.056" height="5.93" rx=".942" ry=".942" x="-30.528" y="26.504" transform="rotate(-90)" color="#000" fill="#555753" stroke="#2e3436" display="block" overflow="visible"/><rect width="8.016" height="3.882" rx="0" ry="0" x="-29.583" y="27.511" transform="rotate(-90)" opacity=".17" color="#000" fill="none" stroke="url(#H)" display="block" overflow="visible"/><path transform="rotate(-90)" color="#000" fill="url(#I)" display="block" overflow="visible" d="M-32 28h1v1h-1z"/><path transform="rotate(-90)" color="#000" fill="url(#J)" display="block" overflow="visible" d="M-32 30h1v1h-1z"/><path transform="rotate(-90)" color="#000" fill="url(#K)" display="block" overflow="visible" d="M-20 28h1v1h-1z"/><path transform="rotate(-90)" color="#000" fill="url(#L)" display="block" overflow="visible" d="M-20 30h1v1h-1z"/><path color="#000" fill="url(#M)" display="block" overflow="visible" d="M25 28h1v1h-1z"/><path color="#000" fill="url(#N)" display="block" overflow="visible" d="M25 26h1v1h-1z"/><path color="#000" fill="url(#O)" display="block" overflow="visible" d="M25 24h1v1h-1z"/><path color="#000" fill="url(#P)" display="block" overflow="visible" d="M25 22h1v1h-1z"/><rect width="10.056" height="5.93" rx=".942" ry=".942" x="-30.528" y="37.504" transform="rotate(-90)" color="#000" fill="#555753" stroke="#2e3436" display="block" overflow="visible"/><rect width="8.016" height="3.882" rx="0" ry="0" x="-29.583" y="38.511" transform="rotate(-90)" opacity=".17" color="#000" fill="none" stroke="url(#Q)" display="block" overflow="visible"/><path transform="rotate(-90)" color="#000" fill="url(#R)" display="block" overflow="visible" d="M-32 39h1v1h-1z"/><path transform="rotate(-90)" color="#000" fill="url(#S)" display="block" overflow="visible" d="M-32 41h1v1h-1z"/><path transform="rotate(-90)" color="#000" fill="url(#T)" display="block" overflow="visible" d="M-20 39h1v1h-1z"/><path transform="rotate(-90)" color="#000" fill="url(#U)" display="block" overflow="visible" d="M-20 41h1v1h-1z"/><path color="#000" fill="url(#V)" display="block" overflow="visible" d="M36 28h1v1h-1z"/><path color="#000" fill="url(#W)" display="block" overflow="visible" d="M36 26h1v1h-1z"/><path color="#000" fill="url(#X)" display="block" overflow="visible" d="M36 24h1v1h-1z"/><path color="#000" fill="url(#Y)" display="block" overflow="visible" d="M36 22h1v1h-1z"/><path transform="scale(-1 1)" color="#000" fill="url(#Z)" display="block" overflow="visible" d="M-12 28h1v1h-1z"/><path transform="scale(-1 1)" color="#000" fill="url(#aa)" display="block" overflow="visible" d="M-12 26h1v1h-1z"/><path transform="scale(-1 1)" color="#000" fill="url(#ab)" display="block" overflow="visible" d="M-12 24h1v1h-1z"/><path transform="scale(-1 1)" color="#000" fill="url(#ac)" display="block" overflow="visible" d="M-12 22h1v1h-1z"/><path transform="scale(-1 1)" color="#000" fill="url(#ad)" display="block" overflow="visible" d="M-23 28h1v1h-1z"/><path transform="scale(-1 1)" color="#000" fill="url(#ae)" display="block" overflow="visible" d="M-23 26h1v1h-1z"/><path transform="scale(-1 1)" color="#000" fill="url(#af)" display="block" overflow="visible" d="M-23 24h1v1h-1z"/><path transform="scale(-1 1)" color="#000" fill="url(#ag)" display="block" overflow="visible" d="M-23 22h1v1h-1z"/><path transform="scale(-1 1)" color="#000" fill="url(#ah)" display="block" overflow="visible" d="M-34 28h1v1h-1z"/><path transform="scale(-1 1)" color="#000" fill="url(#ai)" display="block" overflow="visible" d="M-34 26h1v1h-1z"/><path transform="scale(-1 1)" color="#000" fill="url(#aj)" display="block" overflow="visible" d="M-34 24h1v1h-1z"/><path transform="scale(-1 1)" color="#000" fill="url(#ak)" display="block" overflow="visible" d="M-34 22h1v1h-1z"/><path transform="scale(-1 1)" color="#000" fill="url(#al)" display="block" overflow="visible" d="M-45 28h1v1h-1z"/><path transform="scale(-1 1)" color="#000" fill="url(#am)" display="block" overflow="visible" d="M-45 26h1v1h-1z"/><path transform="scale(-1 1)" color="#000" fill="url(#an)" display="block" overflow="visible" d="M-45 24h1v1h-1z"/><path transform="scale(-1 1)" color="#000" fill="url(#ao)" display="block" overflow="visible" d="M-45 22h1v1h-1z"/><path d="M28.993 34.64c-.8 0-.993.396-.993.57V38h1.985v-2.79c0-.174-.208-.57-.992-.57z" color="#000" fill="url(#ap)" display="block" overflow="visible"/></svg>