<svg xmlns="http://www.w3.org/2000/svg" xmlns:xlink="http://www.w3.org/1999/xlink" viewBox="0 0 48 48"><defs><linearGradient id="b"><stop offset="0" stop-color="#6d6dab"/><stop offset="1" stop-color="#acacd0"/></linearGradient><linearGradient id="c"><stop offset="0" stop-color="#b8b2ed"/><stop offset="1" stop-color="#8181b5"/></linearGradient><linearGradient id="a"><stop offset="0" stop-color="#fff"/><stop offset="1" stop-color="#fff" stop-opacity="0"/></linearGradient><linearGradient id="d"><stop offset="0"/><stop offset="1" stop-opacity="0"/></linearGradient><linearGradient x1="24.033" y1="13.962" x2="24.033" y2="33.038" id="h" xlink:href="#a" gradientUnits="userSpaceOnUse" gradientTransform="translate(0 2)"/><linearGradient x1="19.885" y1="24.707" x2="18.962" y2="24.707" id="g" xlink:href="#b" gradientUnits="userSpaceOnUse" gradientTransform="matrix(0 -1.08333 1.03572 0 -.59 51.542)"/><radialGradient cx="10.125" cy="15.833" r="23" fx="10.125" fy="15.833" id="f" xlink:href="#c" gradientUnits="userSpaceOnUse" gradientTransform="matrix(1.60336 .0126 -.0062 .788 -6.01 9.396)"/><radialGradient cx="24.218" cy="45.26" r="21.39" fx="24.218" fy="45.26" id="e" xlink:href="#d" gradientUnits="userSpaceOnUse" gradientTransform="matrix(1.12202 0 0 .07013 -3.174 32.826)"/></defs><path d="M48 36a24 1.5 0 0 1-48 0 24 1.5 0 1 1 48 0z" opacity=".3" color="#000" fill="url(#e)" fill-rule="evenodd" overflow="visible"/><path d="M6 35.495h39.263c.818.033 1.23-.094 1.23-.885v-2.523c0-.763-1.047-.78-1.047-.78l.033-12.585s1.02.06 1.02-.767V15.5h-44c-.47 0-1 .53-1 1v16L6 35.495z" color="#000" fill="url(#f)" fill-rule="evenodd" stroke="#606090" stroke-linejoin="round" stroke-dashoffset=".802" overflow="visible"/><path d="M45 31.5H17.452a.958.958 0 0 1-.952-.968V19.468c0-.536.424-.968.952-.968H45" color="#000" fill="none" stroke="url(#g)" stroke-dashoffset=".802" overflow="visible"/><path d="M2.5 16.438V32c1.292.854 2.52 1.708 3.813 2.563h39.25V32.28c-.783.037-1.21-.75-1.062-1.448.03-4.1 0-8.203.05-12.3-.04-.754 1.09-.505 1.02-1.04l-.07-.992c-14.095 0-28.9-.063-43-.063z" opacity=".45" color="#000" fill="none" stroke="url(#h)" stroke-width=".951" stroke-linejoin="round" stroke-dashoffset=".802" overflow="visible"/><path d="M9 23.536c-2.116 0-3.84-.024-3.84.062s1.724.19 3.84.19c2.115 0 3.84-.104 3.84-.19 0-.086-1.725-.062-3.84-.062zm0 .572c-1.584 0-2.876-.03-2.876.03 0 .063 1.292.185 2.875.185s2.87-.122 2.87-.184c0-.07-1.29-.04-2.88-.04zm0 .696c-1.163 0-2.112-.027-2.112.027 0 .06.95.17 2.11.17 1.164 0 2.113-.11 2.113-.17 0-.05-.94-.02-2.11-.02zM6.76 23.13c.437-.05.648-.235.738-.497.09-.262.268-.43.577-.42.308.01.36.15.308.312-.05.164-.04.26-.08.41-.085.327 1.472.307 1.393 0-.04-.15-.028-.246-.08-.41-.05-.163 0-.3.31-.312.307-.01.485.158.575.42.09.262.31.448.74.496.44.04.94.03 1.37.04.43 0 .6-.09.05-.14-.55-.057-1.28-.26-1.42-.54-.135-.28-.28-.41-.783-.447a20.37 20.37 0 0 0-2.896 0c-.503.03-.65.163-.786.443s-.87.487-1.42.54c-.545.052-.38.144.05.137.43-.005.93.007 1.366-.04z" fill="#444459" fill-rule="evenodd"/><path d="M30.528 27.958h-.774a.39.39 0 0 0-.38.4V29.6c0 .22.17.4.38.4h.774c.21 0 .38-.18.38-.4v-1.242c0-.22-.17-.4-.38-.4zm-.046 1.51c0 .175-.076.317-.17.317h-.342c-.094 0-.17-.142-.17-.316v-.99c0-.17.077-.316.17-.316h.343c.093 0 .17.143.17.315v.98zm6.043-.89h-.466v-.002h-.27c-.09 0-.17-.205-.17-.404v-.12c0-.198.075-.36.167-.36h1.07v-.248h-1.27c-.21 0-.38.207-.38.46v.418c0 .25.17.5.38.5h.43v.002h.314c.094 0 .17.163.17.362v.205c0 .2-.076.37-.17.37h-1.11V30h1.305c.21 0 .382-.207.382-.458v-.506c0-.253-.172-.46-.382-.46zm-11.043-.22V29.6c0 .22.182.4.404.4h.94v-.216h-.713c-.1 0-.18-.14-.18-.315v-.4h.88v-.198h-.88v-.393c0-.173.08-.315.18-.315h.713v-.216h-.94a.403.403 0 0 0-.404.4zm14.365 0V29.6c0 .22.182.4.403.4h.94v-.216h-.712c-.098 0-.18-.14-.18-.315v-.99c0-.174.082-.316.18-.316h.713v-.215h-.94a.403.403 0 0 0-.4.4zm-11.876 1.09l-.35-1.49h-.43V30h.29v-1.412L27.82 30h.317l.323-1.335V30h.45v-2.042h-.573l-.36 1.49zm-3.97-.14l-.45-1.872H23V30h.366v-1.773L23.794 30h.398l.436-1.805V30h.538v-2.564h-.72l-.453 1.87zm8.71-.586v-.364c0-.22-.17-.4-.38-.4h-.966V30h.39v-1.827h.446c.09 0 .167.142.167.315v.104c0 .173-.075.316-.17.316H32.1v.02h-.178L32.37 30h.335l-.37-.878a.394.394 0 0 0 .367-.4zM38.838 30h.39v-2.042h-.39V30zm-1.834-1.7h.522V30h.39v-1.7h.523v-.342H37v.343zM43 27.96h-.39l-.6.716v-.716h-.388V30h.39v-.88l.6.88H43l-.767-1.126.767-.916zm-9.25.803l-.342-.8h-.39l.496 1.16V30h.39v-.887l.45-1.154h-.29l-.314.8z" fill="#3a3a59" fill-rule="evenodd"/><path d="M12.318 19.074v.24h.063c.06 0 .07.012.07.04a.153.153 0 0 1-.02.064l-.25.382c-.03.052-.06.046-.09.005l-.232-.367c-.012-.022-.03-.044-.03-.073 0-.033.025-.05.09-.05h.06v-.24h-.865v.24c.215 0 .204.028.28.157l.466.736v.373c0 .1-.033.13-.13.13h-.15v.24h.956v-.23h-.15c-.094 0-.13-.033-.13-.13v-.37l.398-.61c.145-.26.164-.285.268-.285H13v-.24h-.682zm-6.953.43c0-.148.192-.25.42-.25a.67.67 0 0 1 .482.234c.053.07.112.123.13.258h.192v-.672h-.21c0 .154-.04.15-.09.108a.777.777 0 0 0-.53-.167c-.472 0-.77.24-.77.624 0 .37.236.47.56.54l.287.07c.34.07.443.1.443.25 0 .14-.106.23-.415.24-.204 0-.428-.09-.52-.21-.055-.07-.114-.11-.157-.29H5v.692h.215c.008-.098.03-.175.077-.136.154.12.417.195.59.195.5 0 .778-.227.778-.633 0-.78-1.3-.45-1.3-.863zm4.83-.184h.12c.102 0 .138.033.138.132l-.004.747-.83-1.12h-.69v.23h.13c.1 0 .14.034.14.13v1.144c0 .096-.04.132-.14.132h-.13v.23h.79v-.23h-.13c-.107 0-.14-.037-.14-.133v-.95l.962 1.31.3.004v-1.5c0-.098.034-.13.136-.13h.1v-.234h-.76v.232zM7.9 19c-.607 0-.987.384-.987 1 0 .605.376.986.97.986.63 0 .997-.376.997-1.017 0-.58-.396-.97-.98-.97zm-.014 1.742c-.336 0-.53-.277-.53-.756 0-.467.203-.744.547-.744.332 0 .525.282.525.764 0 .47-.196.736-.54.736zM6.83 32.1v-3.348L5 30.426z" fill="#444459" fill-rule="evenodd"/></svg>