<svg xmlns="http://www.w3.org/2000/svg" xmlns:xlink="http://www.w3.org/1999/xlink" viewBox="0 0 48 48"><defs><linearGradient id="e"><stop offset="0" stop-color="#fff"/><stop offset="1" stop-color="#fff" stop-opacity="0"/></linearGradient><linearGradient gradientTransform="matrix(.91422 0 0 -.91422 .704 45.027)" gradientUnits="userSpaceOnUse" xlink:href="#a" id="x" y2="23.173" x2="49.09" y1="23" x1="37.5"/><linearGradient id="a"><stop offset="0" stop-color="#fff" stop-opacity=".134"/><stop offset="1" stop-color="#fff" stop-opacity="0"/></linearGradient><linearGradient gradientTransform="matrix(.91422 0 0 -.91422 .704 45.027)" gradientUnits="userSpaceOnUse" xlink:href="#b" id="w" y2="23" x2="47.5" y1="23" x1="4.49"/><linearGradient id="b"><stop offset="0" stop-color="#fff" stop-opacity=".492"/><stop offset="1" stop-color="#fff"/></linearGradient><linearGradient gradientTransform="rotate(-45 78.034 .883) scale(.91422)" gradientUnits="userSpaceOnUse" xlink:href="#a" id="v" y2="24.109" x2="2.832" y1="23.707" x1="14.893"/><linearGradient gradientTransform="rotate(-45 78.034 .883) scale(.91422)" gradientUnits="userSpaceOnUse" xlink:href="#b" id="u" y2="24.414" x2="2.873" y1="25.924" x1="44.687"/><linearGradient gradientTransform="rotate(45 20.076 23.364) scale(.91422)" gradientUnits="userSpaceOnUse" xlink:href="#b" id="t" y2="27.243" x2="4.287" y1="23.707" x1="46.006"/><linearGradient gradientTransform="rotate(45 20.076 23.364) scale(.91422)" gradientUnits="userSpaceOnUse" xlink:href="#a" id="s" y2="21.83" x2="4.063" y1="22.293" x1="14.893"/><linearGradient gradientTransform="matrix(0 .91422 .91422 0 2.99 .688)" gradientUnits="userSpaceOnUse" xlink:href="#b" id="r" y2="23" x2="47.5" y1="23" x1="3.5"/><linearGradient gradientTransform="matrix(0 .91422 .91422 0 2.99 .688)" gradientUnits="userSpaceOnUse" xlink:href="#a" id="q" y2="21.914" x2="48.263" y1="22" x1="35.5"/><linearGradient gradientTransform="translate(-92.707 -21.06) scale(1.61698)" gradientUnits="userSpaceOnUse" xlink:href="#c" id="p" y2="40.496" x2="71.204" y1="15.369" x1="71.204"/><linearGradient id="c"><stop offset="0" stop-color="#fff"/><stop offset=".424" stop-color="#fff" stop-opacity=".235"/><stop offset=".821" stop-color="#fff" stop-opacity=".157"/><stop offset="1" stop-color="#fff" stop-opacity=".392"/></linearGradient><linearGradient id="d"><stop offset="0" stop-color="#3d3d3d"/><stop offset=".5" stop-color="#686868" stop-opacity=".498"/><stop offset="1" stop-color="#686868" stop-opacity="0"/></linearGradient><radialGradient gradientTransform="matrix(.27083 0 0 .08762 -2.855 25.187)" gradientUnits="userSpaceOnUse" xlink:href="#d" id="n" fy="186.171" fx="99.157" r="62.769" cy="186.171" cx="99.157"/><radialGradient gradientUnits="userSpaceOnUse" gradientTransform="translate(-.2 -.31) scale(1.02247)" r="2.328" fy="13.858" fx="8.932" cy="13.858" cx="8.932" id="y" xlink:href="#e"/><radialGradient gradientUnits="userSpaceOnUse" gradientTransform="translate(31.968 5.634) scale(1.02247)" r="2.328" fy="13.858" fx="8.932" cy="13.858" cx="8.932" id="z" xlink:href="#e"/><radialGradient gradientUnits="userSpaceOnUse" gradientTransform="translate(-.37 18.628) scale(1.02247)" r="2.328" fy="13.858" fx="8.932" cy="13.858" cx="8.932" id="A" xlink:href="#e"/><radialGradient gradientUnits="userSpaceOnUse" gradientTransform="translate(18.77 27.058) scale(1.02247)" r="2.328" fy="13.858" fx="8.932" cy="13.858" cx="8.932" id="B" xlink:href="#e"/><linearGradient id="f"><stop offset="0" stop-color="#f0c1ff"/><stop offset=".262" stop-color="#c5a3f2"/><stop offset=".705" stop-color="#7a36b1"/><stop offset="1" stop-color="#4c2d81"/></linearGradient><radialGradient xlink:href="#f" id="o" gradientUnits="userSpaceOnUse" gradientTransform="matrix(0 5.89657 -6.23786 0 76.71 -21.05)" cx="1.745" cy="8.45" fx="1.745" fy="8.45" r="20"/><linearGradient gradientTransform="matrix(.41894 0 0 .47067 28.837 24.78)" gradientUnits="userSpaceOnUse" xlink:href="#g" id="C" y2="17.462" x2="31.421" y1="8.963" x1="11.276"/><linearGradient id="g"><stop offset="0" stop-color="#cad0c6"/><stop offset=".5" stop-color="#eaece9"/><stop offset="1" stop-color="#c5cbc0"/></linearGradient><radialGradient gradientTransform="matrix(.46988 0 0 .47067 27.45 24.917)" gradientUnits="userSpaceOnUse" xlink:href="#e" id="D" fy="6.281" fx="18.031" r="3.182" cy="6.281" cx="18.031"/><radialGradient gradientTransform="matrix(.9017 0 0 .45 14.245 2.3)" gradientUnits="userSpaceOnUse" xlink:href="#h" id="E" fy="43.5" fx="4.993" r="2.5" cy="43.5" cx="4.993"/><linearGradient id="h"><stop offset="0" stop-color="#181818"/><stop offset="1" stop-color="#181818" stop-opacity="0"/></linearGradient><radialGradient gradientTransform="matrix(.9017 0 0 .45 -9.755 -41.45)" gradientUnits="userSpaceOnUse" xlink:href="#h" id="F" fy="43.5" fx="4.993" r="2.5" cy="43.5" cx="4.993"/><linearGradient gradientTransform="matrix(.48214 0 0 .32143 .43 7.893)" gradientUnits="userSpaceOnUse" xlink:href="#i" id="G" y2="39.999" x2="25.058" y1="47.028" x1="25.058"/><linearGradient id="i"><stop offset="0" stop-color="#181818" stop-opacity="0"/><stop offset=".5" stop-color="#181818"/><stop offset="1" stop-color="#181818" stop-opacity="0"/></linearGradient><radialGradient gradientTransform="matrix(0 1.1131 -1.55325 0 29.657 -7.195)" gradientUnits="userSpaceOnUse" xlink:href="#j" id="H" fy="11.597" fx="16.777" r="10.5" cy="11.368" cx="16.824"/><linearGradient id="j"><stop offset="0" stop-color="#f2e0c4"/><stop offset=".765" stop-color="#e5af5b"/><stop offset="1" stop-color="#af6900"/></linearGradient><linearGradient gradientTransform="translate(.833 1.667) scale(.66667)" gradientUnits="userSpaceOnUse" xlink:href="#k" id="I" y2="14" x2="9" y1="29" x1="9"/><linearGradient id="k"><stop offset="0" stop-color="#d88f22"/><stop offset="1" stop-color="#d88f22" stop-opacity="0"/></linearGradient><linearGradient gradientTransform="translate(1.833 1.667) scale(.66667)" gradientUnits="userSpaceOnUse" xlink:href="#k" id="J" y2="14" x2="24" y1="29" x1="24"/><linearGradient gradientTransform="translate(-.167 -30.333) scale(.66667)" gradientUnits="userSpaceOnUse" xlink:href="#e" id="K" y2="14" x2="9" y1="29" x1="9"/><linearGradient gradientTransform="translate(12.833 -30.333) scale(.66667)" gradientUnits="userSpaceOnUse" xlink:href="#e" id="L" y2="14" x2="9" y1="29" x1="9"/><linearGradient gradientTransform="matrix(.6842 0 0 .64286 1.053 2.18)" gradientUnits="userSpaceOnUse" xlink:href="#l" id="M" y2="27.925" x2="21.771" y1="14.871" x1="21.771"/><linearGradient id="l"><stop offset="0" stop-color="#fff"/><stop offset=".033" stop-color="#fff" stop-opacity=".235"/><stop offset=".986" stop-color="#fff" stop-opacity=".157"/><stop offset="1" stop-color="#fff" stop-opacity=".392"/></linearGradient><linearGradient gradientTransform="matrix(-.87866 0 0 .7 25.533 -5.75)" gradientUnits="userSpaceOnUse" xlink:href="#m" id="N" y2="27.5" x2="23.3" y1="27.5" x1="8.643"/><linearGradient id="m"><stop offset="0"/><stop offset="1" stop-opacity="0"/></linearGradient><linearGradient gradientTransform="matrix(-.93358 0 0 .75 25.994 -9.25)" gradientUnits="userSpaceOnUse" xlink:href="#e" id="O" y2="27.5" x2="23.3" y1="27.5" x1="8.643"/></defs><path d="M41 41.5a17 5.5 0 1 1-34 0 17 5.5 0 1 1 34 0z" fill="url(#n)"/><path d="M24 3.5C12.69 3.5 3.5 12.69 3.5 24S12.69 44.5 24 44.5 44.5 35.31 44.5 24 35.31 3.5 24 3.5z" color="#000" overflow="visible" fill="url(#o)"/><path d="M24 3.5C12.69 3.5 3.5 12.69 3.5 24S12.69 44.5 24 44.5 44.5 35.31 44.5 24 35.31 3.5 24 3.5z" style="isolation:auto;mix-blend-mode:normal;filter-blend-mode:normal;filter-gaussianBlur-deviation:0" color="#000" overflow="visible" opacity=".5" fill="none" stroke="#6326b9"/><path d="M43.5 24c0 10.77-8.73 19.5-19.5 19.5S4.5 34.77 4.5 24 13.23 4.5 24 4.5 43.5 13.23 43.5 24z" color="#000" overflow="visible" opacity=".5" fill="none" stroke="url(#p)" stroke-linecap="round" stroke-linejoin="round"/><path d="M23.986 4.345a8.685 19.656 0 0 0-1.74 38.898" fill="none" stroke="url(#q)" stroke-linecap="round" stroke-linejoin="round"/><path d="M27.695 41.805a8.685 19.656 0 0 0-3.7-37.46" opacity=".8" fill="none" stroke="url(#r)" stroke-linecap="round" stroke-linejoin="round"/><path d="M12.563 8.906a19.656 8.685 45 0 1 24.967 29.33" fill="none" stroke="url(#s)" stroke-linecap="round" stroke-linejoin="round"/><path d="M37.915 37.9A19.656 8.685 45 0 1 8.84 13.212" opacity=".8" fill="none" stroke="url(#t)" stroke-linecap="round" stroke-linejoin="round"/><path d="M38.09 10.58A8.685 19.656 45 0 0 9.03 31.566" opacity=".8" fill="none" stroke="url(#u)" stroke-linecap="round" stroke-linejoin="round"/><path d="M9.984 38.017A8.685 19.656 45 0 0 38.346 10.96" fill="none" stroke="url(#v)" stroke-linecap="round" stroke-linejoin="round"/><path d="M40.758 19.45a19.656 8.685 0 0 0-36.376 4.956" fill="none" stroke="url(#w)" stroke-linecap="round" stroke-linejoin="round"/><path d="M4.48 24.952a19.656 8.685 0 0 0 39.16-.45" fill="none" stroke="url(#x)" stroke-linecap="round" stroke-linejoin="round"/><path d="M11.432 13.86a2.5 2.5 0 0 1-5 0 2.5 2.5 0 1 1 5 0z" color="#000" overflow="visible" fill="url(#y)"/><path d="M43.6 19.804a2.5 2.5 0 0 1-5 0 2.5 2.5 0 1 1 5 0z" color="#000" overflow="visible" fill="url(#z)"/><path d="M11.263 32.798a2.5 2.5 0 0 1-5 0 2.5 2.5 0 1 1 5 0z" color="#000" overflow="visible" fill="url(#A)"/><path d="M30.402 41.227a2.5 2.5 0 0 1-5 0 2.5 2.5 0 1 1 5 0z" color="#000" overflow="visible" fill="url(#B)"/><path d="M38.906 26.5a5.4 5.4 0 0 0-5.406 5.406V36.5l2-.036V32c0-1.94 1.56-3.5 3.5-3.5s3.5 1.56 3.5 3.5v4.562l2-.062v-4.594a5.4 5.4 0 0 0-5.406-5.406z" color="#000" overflow="visible" fill="url(#C)" fill-rule="evenodd"/><path d="M38.906 26.176a5.4 5.4 0 0 0-5.406 5.406v4.594l2-.037v-4.466c0-1.94 1.56-3.5 3.5-3.5s3.5 1.56 3.5 3.5v4.562l2-.062V31.58a5.4 5.4 0 0 0-5.406-5.405z" color="#000" overflow="visible" opacity=".3" fill="#fff" fill-rule="evenodd"/><path d="M38.906 26.5a5.4 5.4 0 0 0-5.406 5.406V36.5l2-.036V32c0-1.94 1.56-3.5 3.5-3.5s3.5 1.56 3.5 3.5v4.562l2-.062v-4.594a5.4 5.4 0 0 0-5.406-5.406z" color="#000" overflow="visible" opacity=".35" fill="none" stroke="#000"/><path d="M37.418 27.873a1.496 1.496 0 1 1-2.99 0 1.496 1.496 0 1 1 2.99 0z" overflow="visible" opacity=".5" fill="url(#D)" fill-rule="evenodd"/><path d="M36.573 27.873a.65.65 0 1 1-.65-.65c.36 0 .65.29.65.65z" overflow="visible" opacity=".5" fill="#fff" fill-rule="evenodd"/><g transform="translate(27 25)"><path opacity=".3" fill="url(#E)" d="M18.75 20.75H21V23h-2.25z"/><path transform="scale(-1)" opacity=".3" fill="url(#F)" d="M-5.25-23H-3v2.25h-2.25z"/><path opacity=".3" fill="url(#G)" d="M5.25 20.75h13.5V23H5.25z"/><rect width="15" height="11" rx="1" ry="1" x="4.5" y="10.5" color="#000" overflow="visible" fill="url(#H)"/><rect width="1" height="10" rx="2" ry="1" x="6" y="11" color="#000" overflow="visible" opacity=".5" fill="url(#I)"/><rect width="1" height="10" rx="2" ry="1" x="17" y="11" color="#000" overflow="visible" opacity=".5" fill="url(#J)"/><rect width="1" height="10" rx="2" ry="1" x="5" y="-21" transform="scale(1 -1)" color="#000" overflow="visible" opacity=".5" fill="url(#K)"/><rect width="1" height="10" rx="2" ry="1" x="18" y="-21" transform="scale(1 -1)" color="#000" overflow="visible" opacity=".5" fill="url(#L)"/><path color="#000" overflow="visible" opacity=".5" fill="none" stroke="url(#M)" stroke-linejoin="round" d="M5.5 11.5h13v9h-13z"/><rect width="15" height="11" rx="1" ry="1" x="4.5" y="10.5" color="#000" overflow="visible" opacity=".3" fill="none" stroke="#000"/><path d="M5.5 12.5h12m-12 2h12m-12 2h12m-12 2h12m-12 2h12" opacity=".05" fill="none" stroke="url(#N)"/><path d="M5.5 11.5h12m-12 2h12m-12 2h12m-12 2h12m-12 2h12" color="#000" overflow="visible" opacity=".2" fill="none" stroke="url(#O)"/></g></svg>