<?xml version="1.0" encoding="UTF-8" standalone="no"?>
<svg
   version="1.1"
   width="48"
   height="48"
   id="svg6649"
   xmlns:xlink="http://www.w3.org/1999/xlink"
   xmlns="http://www.w3.org/2000/svg"
   xmlns:svg="http://www.w3.org/2000/svg"
   xmlns:rdf="http://www.w3.org/1999/02/22-rdf-syntax-ns#"
   xmlns:cc="http://creativecommons.org/ns#"
   xmlns:dc="http://purl.org/dc/elements/1.1/">
  <defs
     id="defs6651">
    <linearGradient
       id="linearGradient1201">
      <stop
         id="stop1193"
         style="stop-color:#ffffff;stop-opacity:1"
         offset="0" />
      <stop
         id="stop1195"
         style="stop-color:#ffffff;stop-opacity:0.23529412"
         offset="0.06781636" />
      <stop
         id="stop1197"
         style="stop-color:#ffffff;stop-opacity:0.15686275"
         offset="0.94694352" />
      <stop
         id="stop1199"
         style="stop-color:#ffffff;stop-opacity:0.39215687"
         offset="1" />
    </linearGradient>
    <linearGradient
       id="linearGradient854">
      <stop
         style="stop-color:#ffa154;stop-opacity:1"
         offset="0"
         id="stop850" />
      <stop
         style="stop-color:#f37329;stop-opacity:1"
         offset="1"
         id="stop852" />
    </linearGradient>
    <linearGradient
       id="linearGradient3688-166-749">
      <stop
         id="stop2883"
         style="stop-color:#181818;stop-opacity:1"
         offset="0" />
      <stop
         id="stop2885"
         style="stop-color:#181818;stop-opacity:0"
         offset="1" />
    </linearGradient>
    <linearGradient
       id="linearGradient3702-501-757">
      <stop
         id="stop2895"
         style="stop-color:#181818;stop-opacity:0"
         offset="0" />
      <stop
         id="stop2897"
         style="stop-color:#181818;stop-opacity:1"
         offset="0.5" />
      <stop
         id="stop2899"
         style="stop-color:#181818;stop-opacity:0"
         offset="1" />
    </linearGradient>
    <radialGradient
       cx="4.9929786"
       cy="43.5"
       r="2.5"
       fx="4.9929786"
       fy="43.5"
       id="radialGradient3013-6"
       xlink:href="#linearGradient3688-166-749"
       gradientUnits="userSpaceOnUse"
       gradientTransform="matrix(2.003784,0,0,0.89999994,29.98813,4.8500025)" />
    <radialGradient
       cx="4.9929786"
       cy="43.5"
       r="2.5"
       fx="4.9929786"
       fy="43.5"
       id="radialGradient3015-1"
       xlink:href="#linearGradient3688-166-749"
       gradientUnits="userSpaceOnUse"
       gradientTransform="matrix(2.003784,0,0,0.89999994,-18.01187,-83.149997)" />
    <linearGradient
       xlink:href="#linearGradient854"
       id="linearGradient856-2"
       x1="23.528315"
       y1="6.08318"
       x2="23.528315"
       y2="44.23307"
       gradientUnits="userSpaceOnUse" />
    <linearGradient
       x1="38.999996"
       y1="5.9999938"
       x2="38.999996"
       y2="41.945408"
       id="linearGradient3058-5"
       xlink:href="#linearGradient1201"
       gradientUnits="userSpaceOnUse"
       gradientTransform="translate(4e-6,1.0000062)" />
    <linearGradient
       xlink:href="#linearGradient3702-501-757"
       id="linearGradient1191"
       gradientUnits="userSpaceOnUse"
       x1="25.058096"
       y1="47.027729"
       x2="25.058096"
       y2="39.999443"
       gradientTransform="matrix(1.1428571,0,0,0.6428571,-3.428569,16.035716)" />
  </defs>
  <metadata
     id="metadata6654">
    <rdf:RDF>
      <cc:Work
         rdf:about="">
        <dc:format>image/svg+xml</dc:format>
        <dc:type
           rdf:resource="http://purl.org/dc/dcmitype/StillImage" />
      </cc:Work>
    </rdf:RDF>
  </metadata>
  <rect
     style="opacity:0.6;fill:url(#radialGradient3013-6);fill-opacity:1;stroke:none;stroke-width:0.862764"
     id="rect2801-3-7"
     y="41.75"
     x="40"
     height="4.4999995"
     width="5" />
  <rect
     style="opacity:0.6;fill:url(#radialGradient3015-1);fill-opacity:1;stroke:none;stroke-width:0.862764"
     id="rect3696-6-3"
     transform="scale(-1)"
     y="-46.25"
     x="-8"
     height="4.4999995"
     width="5" />
  <rect
     style="opacity:0.6;fill:url(#linearGradient1191);fill-opacity:1;stroke:none;stroke-width:0.862764"
     id="rect3700-4-6"
     y="41.75"
     x="8"
     height="4.5"
     width="32" />
  <rect
     style="color:#000000;display:inline;overflow:visible;visibility:visible;opacity:1;fill:url(#linearGradient856-2);fill-opacity:1;fill-rule:nonzero;stroke:#a62100;stroke-width:1;stroke-opacity:0.5;marker:none;enable-background:accumulate"
     id="rect5505-21-1"
     y="5.4999952"
     x="4.5000153"
     ry="4"
     rx="4"
     height="39"
     width="39" />
  <rect
     style="opacity:0.35;fill:none;stroke:url(#linearGradient3058-5);stroke-width:1;stroke-linecap:round;stroke-linejoin:round;stroke-miterlimit:4;stroke-dasharray:none;stroke-dashoffset:0;stroke-opacity:1"
     id="rect6741-2"
     y="6.4999952"
     x="5.5000153"
     ry="3"
     rx="3"
     height="37"
     width="37" />
  <path
     style="opacity:0.15;vector-effect:none;fill:#a62100;fill-opacity:1;stroke:none;stroke-width:1;stroke-linecap:butt;stroke-linejoin:miter;stroke-miterlimit:4;stroke-dasharray:none;stroke-dashoffset:0;stroke-opacity:1;marker:none"
     d="m 15.605469,17.999953 c -0.832473,-0.0022 -1.610804,0.429291 -2.048828,1.138672 l 0.05078,-0.07422 -4.0527345,5.40625 0.054687,-0.06641 C 9.2184583,24.842277 9.0021916,25.408015 9,25.994094 a 1.0000943,1.0000943 0 0 0 0,0.0039 c -3.732e-4,0.525995 0.1740298,1.037539 0.4921875,1.455078 0,0 0,0.002 0,0.002 0.00762,0.01016 0.02295,0.02923 0.035156,0.04492 l 4.1132815,5.484375 -0.02734,-0.03906 c 0.444632,0.656843 1.188734,1.053097 1.982418,1.054646 C 16.908647,34.0025 17.997439,32.918724 18,31.605422 a 1.0000943,1.0000943 0 0 0 0,-0.002 c -3.25e-4,-0.513154 -0.164796,-1.015268 -0.472656,-1.429688 a 1.0000943,1.0000943 0 0 0 -0.002,-0.0039 L 14.40425,26.001865 17.521437,21.83585 C 17.829651,21.423813 17.998357,20.922635 18,20.406203 a 1.0000943,1.0000943 0 0 0 0,-0.002 c 0.0025,-1.312898 -1.08123,-2.401687 -2.394531,-2.40425 z m 16.789062,0 C 31.08123,18.002516 29.997453,19.091305 30,20.40425 a 1.0000943,1.0000943 0 0 1 0,0.002 c 0.0016,0.516432 0.170349,1.01761 0.478516,1.429688 l 3.117187,4.166015 -3.121094,4.167969 a 1.0000943,1.0000943 0 0 0 -0.002,0.0039 C 30.164796,30.588201 30.000325,31.090315 30,31.603469 a 1.0000943,1.0000943 0 0 1 0,0.002 c 0.0026,1.313302 1.091353,2.397078 2.404297,2.394531 0.793684,-0.0015 1.537786,-0.397803 1.982422,-1.054688 l -0.02734,0.03906 4.113277,-5.484419 c 0.01221,-0.0157 0.02754,-0.03477 0.03516,-0.04492 0,0 0,-0.002 0,-0.002 C 38.82597,27.035539 39.000373,26.523995 39,25.998 a 1.0000943,1.0000943 0 0 0 0,-0.0039 c -0.0022,-0.586079 -0.218458,-1.151817 -0.609375,-1.589844 l 0.05469,0.06641 -4.052734,-5.40625 0.05078,0.07422 c -0.438026,-0.709392 -1.216357,-1.140906 -2.04883,-1.138683 z m -12.59375,5.599609 a 2.400391,2.400391 0 0 0 0,4.800782 2.4,2.4 0 0 0 2.09961,-1.244141 A 2.4,2.4 0 0 0 24,28.400344 a 2.4,2.4 0 0 0 2.099609,-1.244141 2.4,2.4 0 0 0 2.09961,1.244141 2.400391,2.400391 0 0 0 0,-4.800782 2.4,2.4 0 0 0 -2.09961,1.244141 A 2.4,2.4 0 0 0 24,23.599562 a 2.4,2.4 0 0 0 -2.099609,1.244141 2.4,2.4 0 0 0 -2.09961,-1.244141 z"
     id="path1029" />
  <path
     style="opacity:0.3;vector-effect:none;fill:#a62100;fill-opacity:1;stroke:none;stroke-width:1;stroke-linecap:butt;stroke-linejoin:miter;stroke-miterlimit:4;stroke-dasharray:none;stroke-dashoffset:0;stroke-opacity:1;marker:none"
     d="m 15.603516,18.999953 a 1.399998,1.399998 0 0 0 -1.195313,0.664062 l -4.052734,5.40625 A 1.399998,1.399998 0 0 0 10,25.998 a 1.399998,1.399998 0 0 0 0.287109,0.849609 1.399998,1.399998 0 0 0 0.04102,0.05273 l 4.113281,5.484375 A 1.399998,1.399998 0 0 0 15.597656,32.999953 1.399998,1.399998 0 0 0 17,31.603469 1.399998,1.399998 0 0 0 16.724609,30.769484 l 0.002,-0.0039 -3.570312,-4.763672 3.570312,-4.761719 -0.0059,-0.0039 A 1.399998,1.399998 0 0 0 17,20.402297 1.399998,1.399998 0 0 0 15.603516,18.999953 Z m 16.792968,0 A 1.399998,1.399998 0 0 0 31,20.402297 a 1.399998,1.399998 0 0 0 0.279297,0.833984 l -0.0059,0.0039 3.570312,4.761719 -3.570312,4.763672 0.002,0.0039 A 1.399998,1.399998 0 0 0 31,31.603469 a 1.399998,1.399998 0 0 0 1.402344,1.396484 1.399998,1.399998 0 0 0 1.15625,-0.615234 l 4.113281,-5.484375 a 1.399998,1.399998 0 0 0 0.04102,-0.05273 A 1.399998,1.399998 0 0 0 38,25.998 1.399998,1.399998 0 0 0 37.644531,25.070265 l -4.052734,-5.40625 a 1.399998,1.399998 0 0 0 -1.195313,-0.664062 z m -12.595703,5.599609 a 1.400391,1.400391 0 0 0 0,2.800782 1.400391,1.400391 0 0 0 0,-2.800782 z m 4.199219,0 a 1.400391,1.400391 0 0 0 0,2.800782 1.400391,1.400391 0 0 0 0,-2.800782 z m 4.199219,0 a 1.400391,1.400391 0 0 0 0,2.800782 1.400391,1.400391 0 0 0 0,-2.800782 z"
     id="path1186" />
  <path
     style="vector-effect:none;fill:#fafafa;fill-opacity:1;stroke-width:1;stroke-linecap:butt;stroke-linejoin:miter;stroke-miterlimit:4;stroke-dasharray:none;stroke-dashoffset:0;stroke-opacity:1"
     d="m 15.602729,17.999959 a 1.399998,1.399998 0 0 0 -1.194921,0.664452 l -4.052337,5.405851 a 1.399998,1.399998 0 0 0 -0.355468,0.926952 1.399998,1.399998 0 0 0 0.287109,0.850389 1.399998,1.399998 0 0 0 0.04102,0.05195 l 4.112493,5.485149 a 1.399998,1.399998 0 0 0 1.15664,0.615233 1.399998,1.399998 0 0 0 1.402732,-1.397265 1.399998,1.399998 0 0 0 -0.276172,-0.833984 l 0.0028,-0.0028 -3.571089,-4.763274 3.571089,-4.763274 -0.0054,-0.0026 a 1.399998,1.399998 0 0 0 0.278831,-0.833992 1.399998,1.399998 0 0 0 -1.397263,-1.402732 z m 16.794507,0 a 1.399998,1.399998 0 0 0 -1.397264,1.402732 1.399998,1.399998 0 0 0 0.278907,0.833983 l -0.0054,0.0028 3.571089,4.763273 -3.571089,4.763275 0.0028,0.0028 a 1.399998,1.399998 0 0 0 -0.276246,0.833851 1.399998,1.399998 0 0 0 1.402732,1.397265 1.399998,1.399998 0 0 0 1.156639,-0.615235 l 4.112494,-5.485148 a 1.399998,1.399998 0 0 0 0.04102,-0.05195 1.399998,1.399998 0 0 0 0.287104,-0.850387 1.399998,1.399998 0 0 0 -0.355468,-0.926952 l -4.052358,-5.40583 a 1.399998,1.399998 0 0 0 -1.19492,-0.664451 z M 19.799989,23.59995 a 1.399998,1.399998 0 0 0 0,2.799996 1.399998,1.399998 0 0 0 0,-2.799996 z m 4.199994,0 a 1.399998,1.399998 0 0 0 0,2.799996 1.399998,1.399998 0 0 0 0,-2.799996 z m 4.199993,0 a 1.399998,1.399998 0 0 0 0,2.799996 1.399998,1.399998 0 0 0 0,-2.799996 z"
     id="path4" />
  <path
     id="path4-6"
     style="vector-effect:none;fill:#a62100;fill-opacity:1;stroke-width:1;stroke-linecap:butt;stroke-linejoin:miter;stroke-miterlimit:4;stroke-dasharray:none;stroke-dashoffset:0;stroke-opacity:1;font-variation-settings:normal;opacity:0.15;stroke:none;-inkscape-stroke:none;marker:none;stop-color:#000000;stop-opacity:1"
     d="M 16.902344 18.890625 A 1.399998 1.399998 0 0 1 16.720703 19.236328 L 16.726562 19.240234 L 13.15625 24.001953 L 13.53125 24.501953 L 16.726562 20.240234 L 16.720703 20.236328 A 1.399998 1.399998 0 0 0 17 19.402344 A 1.399998 1.399998 0 0 0 16.902344 18.890625 z M 31.099609 18.894531 A 1.399998 1.399998 0 0 0 31 19.402344 A 1.399998 1.399998 0 0 0 31.279297 20.236328 L 31.273438 20.240234 L 34.46875 24.501953 L 34.84375 24.001953 L 31.273438 19.240234 L 31.279297 19.236328 A 1.399998 1.399998 0 0 1 31.099609 18.894531 z M 10.099609 24.492188 A 1.399998 1.399998 0 0 0 10 24.998047 A 1.399998 1.399998 0 0 0 10.287109 25.847656 A 1.399998 1.399998 0 0 0 10.328125 25.900391 L 14.441406 31.384766 A 1.399998 1.399998 0 0 0 15.597656 32 A 1.399998 1.399998 0 0 0 17 30.603516 A 1.399998 1.399998 0 0 0 16.898438 30.105469 A 1.399998 1.399998 0 0 1 15.597656 31 A 1.399998 1.399998 0 0 1 14.441406 30.384766 L 10.328125 24.900391 A 1.399998 1.399998 0 0 1 10.287109 24.847656 A 1.399998 1.399998 0 0 1 10.099609 24.492188 z M 18.498047 24.5 A 1.399998 1.399998 0 0 0 19.800781 26.400391 A 1.399998 1.399998 0 0 0 21.101562 24.5 A 1.399998 1.399998 0 0 1 19.800781 25.400391 A 1.399998 1.399998 0 0 1 18.498047 24.5 z M 22.699219 24.5 A 1.399998 1.399998 0 0 0 24 26.400391 A 1.399998 1.399998 0 0 0 25.300781 24.5 A 1.399998 1.399998 0 0 1 24 25.400391 A 1.399998 1.399998 0 0 1 22.699219 24.5 z M 26.898438 24.5 A 1.399998 1.399998 0 0 0 28.199219 26.400391 A 1.399998 1.399998 0 0 0 29.501953 24.5 A 1.399998 1.399998 0 0 1 28.199219 25.400391 A 1.399998 1.399998 0 0 1 26.898438 24.5 z M 37.90625 24.501953 A 1.399998 1.399998 0 0 1 37.712891 24.847656 A 1.399998 1.399998 0 0 1 37.671875 24.900391 L 33.558594 30.384766 A 1.399998 1.399998 0 0 1 32.402344 31 A 1.399998 1.399998 0 0 1 31.101562 30.105469 A 1.399998 1.399998 0 0 0 31 30.603516 A 1.399998 1.399998 0 0 0 32.402344 32 A 1.399998 1.399998 0 0 0 33.558594 31.384766 L 37.671875 25.900391 A 1.399998 1.399998 0 0 0 37.712891 25.847656 A 1.399998 1.399998 0 0 0 38 24.998047 A 1.399998 1.399998 0 0 0 37.90625 24.501953 z " />
</svg>
