<svg xmlns="http://www.w3.org/2000/svg" xmlns:xlink="http://www.w3.org/1999/xlink" viewBox="0 0 48 48"><defs><linearGradient id="h"><stop offset="0" stop-opacity=".239"/><stop offset="1" stop-opacity=".318"/></linearGradient><linearGradient gradientTransform="matrix(.6655 0 0 .45188 -54.615 45.875)" gradientUnits="userSpaceOnUse" xlink:href="#a" id="i" y2="-5.563" x2="32.085" y1="-14.402" x1="32.085"/><linearGradient id="a"><stop offset="0" stop-opacity="0"/><stop offset=".5"/><stop offset="1" stop-opacity="0"/></linearGradient><radialGradient gradientTransform="matrix(1.84173 0 0 .92 -115.23 52.586)" gradientUnits="userSpaceOnUse" xlink:href="#b" id="j" fy="-12.203" fx="51.438" r="2.172" cy="-12.203" cx="51.438"/><linearGradient id="b"><stop offset="0"/><stop offset="1" stop-opacity="0"/></linearGradient><radialGradient gradientTransform="matrix(-1.84173 0 0 .92 52.236 52.586)" gradientUnits="userSpaceOnUse" xlink:href="#b" id="k" fy="-12.203" fx="51.438" r="2.172" cy="-12.203" cx="51.438"/><linearGradient gradientTransform="translate(0 3)" gradientUnits="userSpaceOnUse" xlink:href="#c" id="l" y2="39" x2="24" y1="37" x1="24"/><linearGradient id="c"><stop offset="0" stop-color="#3c3c3c"/><stop offset="1" stop-color="#505050"/></linearGradient><linearGradient gradientTransform="matrix(.7107 0 0 .9317 6.89 -.807)" gradientUnits="userSpaceOnUse" xlink:href="#d" id="m" y2="48.137" x2="25.132" y1="2.911" x1="25.132"/><linearGradient id="d"><stop offset="0" stop-color="#f4f4f4"/><stop offset="1" stop-color="#dbdbdb"/></linearGradient><linearGradient xlink:href="#e" id="n" gradientUnits="userSpaceOnUse" gradientTransform="matrix(.55 0 0 1.30435 12.45 18.435)" x1="15" y1="24.619" x2="15" y2="2"/><linearGradient id="e"><stop offset="0" stop-color="#261e2b"/><stop offset="1" stop-color="#352f39"/></linearGradient><linearGradient gradientTransform="matrix(.6 0 0 2.27778 11.4 20.222)" gradientUnits="userSpaceOnUse" y2="12" x2="20" y1="-3" x1="10" id="o" xlink:href="#f"/><linearGradient id="f"><stop offset="0" stop-color="#fff"/><stop offset="1" stop-color="#fff" stop-opacity="0"/></linearGradient><linearGradient y2="42.075" x2="24" y1="5.889" x1="24" gradientTransform="matrix(.62162 0 0 1.1081 9.08 -3.595)" gradientUnits="userSpaceOnUse" id="p" xlink:href="#g"/><linearGradient id="g"><stop offset="0" stop-color="#fff"/><stop offset=".022" stop-color="#fff" stop-opacity=".235"/><stop offset=".98" stop-color="#fff" stop-opacity=".157"/><stop offset="1" stop-color="#fff" stop-opacity=".392"/></linearGradient><linearGradient xlink:href="#h" id="q" x1="27.075" y1="1.093" x2="27.075" y2="44.832" gradientUnits="userSpaceOnUse"/></defs><g fill-rule="evenodd"><path opacity=".3" fill="url(#i)" d="M-42.497 39.367h22v3.994h-22z" transform="matrix(.93333 0 0 1.25 53.398 -8.202)"/><path d="M-20.497 39.36v3.998c2.205-.016 4-.898 4-1.992 0-1.093-1.795-1.99-4-2.005z" opacity=".3" fill="url(#j)" transform="matrix(.93333 0 0 1.25 53.398 -8.202)"/><path d="M-42.497 39.36v3.998c-2.205-.016-4-.898-4-1.992 0-1.093 1.795-1.99 4-2.005z" opacity=".3" fill="url(#k)" transform="matrix(.93333 0 0 1.25 53.398 -8.202)"/></g><path overflow="visible" fill="url(#l)" d="M23 40h2v2h-2z"/><rect width="24" height="42" rx="1.5" ry="1.5" x="12" y="2" fill="url(#m)"/><path d="M19.5 5a.5.5 0 0 0-.5.5.5.5 0 0 0 .5.5.5.5 0 0 0 .5-.5.5.5 0 0 0-.5-.5zM21 5v1h6V5z" overflow="visible" fill="#333"/><path d="M13 8h22v30H13z" fill="url(#n)"/><path d="M13 8v30h22V8zm1 1h20v28H14z" opacity=".2"/><path d="M13.5 2c-.83 0-1.5.67-1.5 1.5v39c0 .146.028.284.066.418L36 13.104V3.5c0-.83-.67-1.5-1.5-1.5z" opacity=".2" fill="url(#o)"/><rect width="23" height="41" rx="1" ry="1" x="12.5" y="2.5" fill="none" stroke="url(#p)" stroke-linecap="round" stroke-linejoin="round"/><rect width="25" height="43" rx="2" ry="2" x="11.5" y="1.5" fill="none" stroke="url(#q)"/><path d="M13 38v1h22v-1z" opacity=".5" fill="#fff"/><circle style="isolation:auto;mix-blend-mode:normal" cx="24" cy="41" r="1.5" color="#000" overflow="visible" opacity=".5" fill="none" stroke="#9b946d"/><path d="M19.5 6a.5.5 0 0 0-.5.5.5.5 0 0 0 .5.5.5.5 0 0 0 .5-.5.5.5 0 0 0-.5-.5zM21 6v1h6V6z" overflow="visible" opacity=".7" fill="#fff"/></svg>