<?xml version="1.0" encoding="UTF-8" standalone="no"?>
<!-- Created with Inkscape (http://www.inkscape.org/) -->

<svg
   xmlns:dc="http://purl.org/dc/elements/1.1/"
   xmlns:cc="http://creativecommons.org/ns#"
   xmlns:rdf="http://www.w3.org/1999/02/22-rdf-syntax-ns#"
   xmlns:svg="http://www.w3.org/2000/svg"
   xmlns="http://www.w3.org/2000/svg"
   xmlns:xlink="http://www.w3.org/1999/xlink"
   xmlns:inkscape="http://www.inkscape.org/namespaces/inkscape"
   version="1.1"
   width="48"
   height="48"
   id="svg3968">
  <defs
     id="defs3970">
    <linearGradient
       id="linearGradient3967">
      <stop
         id="stop3969"
         style="stop-color:#ffffff;stop-opacity:1"
         offset="0" />
      <stop
         id="stop3971"
         style="stop-color:#ffffff;stop-opacity:0"
         offset="1" />
    </linearGradient>
    <linearGradient
       x1="-282.75"
       y1="4.7030401"
       x2="-362.78125"
       y2="11.71875"
       id="linearGradient4873"
       xlink:href="#linearGradient3967"
       gradientUnits="userSpaceOnUse"
       gradientTransform="matrix(0.1146633,0,0,0.124318,192.91173,17.832196)" />
    <linearGradient
       id="linearGradient3910">
      <stop
         id="stop3912"
         style="stop-color:#2f2f2f;stop-opacity:1"
         offset="0" />
      <stop
         id="stop3914"
         style="stop-color:#000000;stop-opacity:1"
         offset="1" />
    </linearGradient>
    <linearGradient
       x1="-305.52853"
       y1="-78.313988"
       x2="-305.52853"
       y2="-85.985588"
       id="linearGradient4878"
       xlink:href="#linearGradient3910"
       gradientUnits="userSpaceOnUse"
       gradientTransform="matrix(0.1197575,0,0,0.124318,194.47684,17.351603)" />
    <linearGradient
       id="linearGradient3918">
      <stop
         id="stop3920"
         style="stop-color:#000000;stop-opacity:1"
         offset="0" />
      <stop
         id="stop3922"
         style="stop-color:#1e1e1e;stop-opacity:1"
         offset="1" />
    </linearGradient>
    <linearGradient
       x1="-314.02853"
       y1="-83.613548"
       x2="-314.02853"
       y2="-75.273575"
       id="linearGradient4876"
       xlink:href="#linearGradient3918"
       gradientUnits="userSpaceOnUse"
       gradientTransform="matrix(0.1197575,0,0,0.124318,194.47684,17.351603)" />
    <linearGradient
       id="linearGradient3847">
      <stop
         id="stop3849"
         style="stop-color:#ababab;stop-opacity:1"
         offset="0" />
      <stop
         id="stop3851"
         style="stop-color:#dcdcdc;stop-opacity:0"
         offset="1" />
    </linearGradient>
    <linearGradient
       x1="-400.99518"
       y1="189.64571"
       x2="-222.53372"
       y2="218.64571"
       id="linearGradient4882"
       xlink:href="#linearGradient3847"
       gradientUnits="userSpaceOnUse"
       gradientTransform="matrix(0.1197575,0,0,0.1640376,193.06554,8.6098596)" />
    <linearGradient
       id="linearGradient3731-3">
      <stop
         id="stop3733-3"
         style="stop-color:#cdcdcd;stop-opacity:1"
         offset="0" />
      <stop
         id="stop3735-2"
         style="stop-color:#303030;stop-opacity:1"
         offset="1" />
    </linearGradient>
    <linearGradient
       x1="-389.48654"
       y1="65.211327"
       x2="-175.06407"
       y2="61.538403"
       id="linearGradient4887"
       xlink:href="#linearGradient3731-3"
       gradientUnits="userSpaceOnUse"
       gradientTransform="matrix(0.130707,0,0,0.1204152,197.31216,17.147564)" />
    <linearGradient
       id="linearGradient3898">
      <stop
         id="stop3900"
         style="stop-color:#030303;stop-opacity:1"
         offset="0" />
      <stop
         id="stop3902"
         style="stop-color:#383838;stop-opacity:0"
         offset="1" />
    </linearGradient>
    <linearGradient
       id="linearGradient3771">
      <stop
         id="stop3773"
         style="stop-color:#ffffff;stop-opacity:1"
         offset="0" />
      <stop
         id="stop3775"
         style="stop-color:#0d0d0d;stop-opacity:1"
         offset="1" />
    </linearGradient>
    <linearGradient
       x1="-396.625"
       y1="260.44583"
       x2="-399.5625"
       y2="258.25833"
       id="linearGradient4895"
       xlink:href="#linearGradient3771"
       gradientUnits="userSpaceOnUse"
       gradientTransform="matrix(0.1875517,0,0,0.1062801,232.9384,18.816076)" />
    <linearGradient
       id="linearGradient3779">
      <stop
         id="stop3781"
         style="stop-color:#5b5b5b;stop-opacity:1"
         offset="0" />
      <stop
         id="stop3783"
         style="stop-color:#000000;stop-opacity:1"
         offset="1" />
    </linearGradient>
    <radialGradient
       cx="-398"
       cy="257.92444"
       r="2.3125"
       fx="-398"
       fy="257.92444"
       id="radialGradient4893"
       xlink:href="#linearGradient3779"
       gradientUnits="userSpaceOnUse"
       gradientTransform="matrix(0.1317931,0,0,0.1502763,210.74647,7.4839525)" />
    <linearGradient
       id="linearGradient3709">
      <stop
         id="stop3711"
         style="stop-color:#adadad;stop-opacity:1"
         offset="0" />
      <stop
         id="stop3713"
         style="stop-color:#434343;stop-opacity:1"
         offset="1" />
    </linearGradient>
    <linearGradient
       x1="-397.0625"
       y1="72.4375"
       x2="-212.125"
       y2="72.4375"
       id="linearGradient4915"
       xlink:href="#linearGradient3709"
       gradientUnits="userSpaceOnUse" />
    <linearGradient
       id="linearGradient3793">
      <stop
         id="stop3795"
         style="stop-color:#3f3f3f;stop-opacity:1"
         offset="0" />
      <stop
         id="stop5268"
         style="stop-color:#3c3c3c;stop-opacity:1"
         offset="0.36093229" />
      <stop
         id="stop5266"
         style="stop-color:#2e2e2e;stop-opacity:1"
         offset="0.66032284" />
      <stop
         id="stop3797"
         style="stop-color:#202020;stop-opacity:1"
         offset="1" />
    </linearGradient>
    <linearGradient
       x1="-393.4332"
       y1="67.439331"
       x2="-221.40564"
       y2="68.025116"
       id="linearGradient4913"
       xlink:href="#linearGradient3793"
       gradientUnits="userSpaceOnUse"
       gradientTransform="matrix(1.0107504,0,0,1,2.2655936,0)" />
    <linearGradient
       id="linearGradient5258">
      <stop
         id="stop5260"
         style="stop-color:#5f5f5f;stop-opacity:1"
         offset="0" />
      <stop
         id="stop5262"
         style="stop-color:#252525;stop-opacity:1"
         offset="1" />
    </linearGradient>
    <linearGradient
       x1="-301.94336"
       y1="152.96133"
       x2="-245.23868"
       y2="134.96133"
       id="linearGradient4907"
       xlink:href="#linearGradient5258"
       gradientUnits="userSpaceOnUse"
       gradientTransform="matrix(0.1197575,0,0,0.1231168,194.47682,17.705761)" />
    <radialGradient
       cx="605.71429"
       cy="486.64789"
       r="117.14286"
       fx="605.71429"
       fy="486.64789"
       id="radialGradient4921"
       xlink:href="#linearGradient5060"
       gradientUnits="userSpaceOnUse"
       gradientTransform="matrix(-3.2949134,0,0,2.5953268,259.21603,-1254.2044)" />
    <linearGradient
       id="linearGradient5060">
      <stop
         id="stop5062"
         style="stop-color:#000000;stop-opacity:1"
         offset="0" />
      <stop
         id="stop5064"
         style="stop-color:#000000;stop-opacity:0"
         offset="1" />
    </linearGradient>
    <radialGradient
       cx="605.71429"
       cy="486.64789"
       r="117.14286"
       fx="605.71429"
       fy="486.64789"
       id="radialGradient4919"
       xlink:href="#linearGradient5060"
       gradientUnits="userSpaceOnUse"
       gradientTransform="matrix(3.2949134,0,0,2.5953268,-2121.2392,-1254.2044)" />
    <linearGradient
       id="linearGradient5048">
      <stop
         id="stop5050"
         style="stop-color:#000000;stop-opacity:0"
         offset="0" />
      <stop
         id="stop5056"
         style="stop-color:#000000;stop-opacity:1"
         offset="0.5" />
      <stop
         id="stop5052"
         style="stop-color:#000000;stop-opacity:0"
         offset="1" />
    </linearGradient>
    <linearGradient
       x1="302.85715"
       y1="366.64789"
       x2="302.85715"
       y2="609.50507"
       id="linearGradient4917"
       xlink:href="#linearGradient5048"
       gradientUnits="userSpaceOnUse"
       gradientTransform="matrix(3.2949134,0,0,2.5953268,-2121.8877,-1254.2044)" />
    <linearGradient
       x1="-307.51242"
       y1="224.49969"
       x2="-307.32642"
       y2="-102.18364"
       id="linearGradient4592"
       xlink:href="#linearGradient3898"
       gradientUnits="userSpaceOnUse"
       gradientTransform="matrix(0.1290283,0,0,0.1230834,63.87231,13.741743)" />
    <linearGradient
       x1="-282.75"
       y1="4.7030401"
       x2="-362.78125"
       y2="11.71875"
       id="linearGradient3269"
       xlink:href="#linearGradient3967"
       gradientUnits="userSpaceOnUse"
       gradientTransform="matrix(0.1146633,0,0,0.1242241,59.98316,13.8577)" />
    <linearGradient
       x1="-314.02853"
       y1="-83.613548"
       x2="-314.02853"
       y2="-75.273575"
       id="linearGradient3272"
       xlink:href="#linearGradient3918"
       gradientUnits="userSpaceOnUse"
       gradientTransform="matrix(0.1197575,0,0,0.1242241,61.54827,13.37747)" />
    <linearGradient
       x1="-305.52853"
       y1="-78.313988"
       x2="-305.52853"
       y2="-85.985588"
       id="linearGradient3274"
       xlink:href="#linearGradient3910"
       gradientUnits="userSpaceOnUse"
       gradientTransform="matrix(0.1197575,0,0,0.1242241,61.54827,13.37747)" />
    <linearGradient
       x1="-400.99518"
       y1="189.64571"
       x2="-222.53372"
       y2="218.64571"
       id="linearGradient3278"
       xlink:href="#linearGradient3847"
       gradientUnits="userSpaceOnUse"
       gradientTransform="matrix(0.1197575,0,0,0.1639138,60.13697,4.6423267)" />
    <linearGradient
       x1="-389.48654"
       y1="65.211327"
       x2="-175.06407"
       y2="61.538403"
       id="linearGradient3283"
       xlink:href="#linearGradient3731-3"
       gradientUnits="userSpaceOnUse"
       gradientTransform="matrix(0.130707,0,0,0.1203243,64.38359,13.173585)" />
    <linearGradient
       x1="-307.51242"
       y1="224.49969"
       x2="-307.32642"
       y2="-102.18364"
       id="linearGradient3286"
       xlink:href="#linearGradient3898"
       gradientUnits="userSpaceOnUse"
       gradientTransform="matrix(0.1290283,0,0,0.1230834,63.87231,13.741743)" />
    <radialGradient
       cx="-398"
       cy="257.92444"
       r="2.3125"
       fx="-398"
       fy="257.92444"
       id="radialGradient3289"
       xlink:href="#linearGradient3779"
       gradientUnits="userSpaceOnUse"
       gradientTransform="matrix(0.01118519,0,0,0.1501628,28.960081,3.4920158)" />
    <linearGradient
       x1="-396.625"
       y1="260.44583"
       x2="-399.5625"
       y2="258.25833"
       id="linearGradient3291"
       xlink:href="#linearGradient3771"
       gradientUnits="userSpaceOnUse"
       gradientTransform="matrix(0.01591739,0,0,0.1061999,30.843495,14.815583)" />
    <linearGradient
       x1="-301.94336"
       y1="152.96133"
       x2="-245.23868"
       y2="134.96133"
       id="linearGradient3297"
       xlink:href="#linearGradient5258"
       gradientUnits="userSpaceOnUse"
       gradientTransform="matrix(0.1197575,0,0,0.1230238,61.54825,13.731361)" />
    <linearGradient
       x1="-314.02853"
       y1="-83.613548"
       x2="-314.02853"
       y2="-75.273575"
       id="linearGradient3339"
       xlink:href="#linearGradient3918"
       gradientUnits="userSpaceOnUse"
       gradientTransform="matrix(0.1099535,0,0,0.1480336,58.057004,15.241841)" />
    <linearGradient
       x1="-305.52853"
       y1="-78.313988"
       x2="-305.52853"
       y2="-85.985588"
       id="linearGradient3341"
       xlink:href="#linearGradient3910"
       gradientUnits="userSpaceOnUse"
       gradientTransform="matrix(0.1099535,0,0,0.1480336,58.057004,15.241841)" />
  </defs>
  <metadata
     id="metadata3973">
    <rdf:RDF>
      <cc:Work
         rdf:about="">
        <dc:format>image/svg+xml</dc:format>
        <dc:type
           rdf:resource="http://purl.org/dc/dcmitype/StillImage" />
      </cc:Work>
    </rdf:RDF>
  </metadata>
  <g
     id="layer1">
    <g
       id="g3303">
      <g
         transform="matrix(0.01202631,0,0,0.00951265,35.76807,44.883082)"
         id="g4245">
        <rect
           width="1590.9725"
           height="630.29364"
           x="-1726.4982"
           y="-302.63333"
           id="rect4247"
           style="opacity:0.40206185;fill:url(#linearGradient4917);fill-opacity:1;fill-rule:nonzero;stroke:none;stroke-width:1;marker:none;visibility:visible;display:inline;overflow:visible" />
        <path
           d="m -135.52559,-302.61162 c 0,0 0,630.25888 0,630.25888 169.679883,1.18645 410.2034,-141.20904 410.2033,-315.169998 0,-173.960992 -189.349979,-315.088862 -410.2033,-315.088882 l 0,0 z"
           inkscape:connector-curvature="0"
           id="path4249"
           style="opacity:0.40206185;fill:url(#radialGradient4919);fill-opacity:1;fill-rule:nonzero;stroke:none;stroke-width:1;marker:none;visibility:visible;display:inline;overflow:visible" />
        <path
           d="m -1726.4981,-302.61162 c 0,0 0,630.25888 0,630.25888 -169.6798,1.18645 -410.2033,-141.20904 -410.2033,-315.169998 0,-173.960992 189.3499,-315.088862 410.2033,-315.088882 l 0,0 z"
           inkscape:connector-curvature="0"
           id="path4251"
           style="opacity:0.40206185;fill:url(#radialGradient4921);fill-opacity:1;fill-rule:nonzero;stroke:none;stroke-width:1;marker:none;visibility:visible;display:inline;overflow:visible" />
      </g>
      <rect
         width="22.479044"
         height="44.220196"
         ry="1.5472934"
         x="13.831669"
         y="0.78177673"
         id="rect4253"
         style="fill:url(#linearGradient3297);fill-opacity:1;stroke:none;stroke-width:0.09999999;marker:none;visibility:visible;display:inline;overflow:visible;enable-background:accumulate" />
      <g
         transform="matrix(0.125156,0,0,0.1223279,62.98392,13.74934)"
         id="g4255"
         style="stroke-width:0.10075657;stroke-miterlimit:4;stroke-dasharray:none">
        <rect
           width="189.71121"
           height="364.92563"
           ry="12.768984"
           x="-400.45547"
           y="-110.02348"
           id="rect4257"
           style="fill:url(#linearGradient4913);fill-opacity:1;stroke:#000000;stroke-width:4.12073183;stroke-miterlimit:4;stroke-opacity:1;stroke-dasharray:none;marker:none;visibility:visible;display:inline;overflow:visible;enable-background:accumulate" />
        <path
           d="m -385.65625,-108.3125 c -6.15386,0 -11.0625,4.90864 -11.0625,11.0625 l 0,339.375 c 0,6.15386 4.90864,11.0625 11.0625,11.0625 l 162.15625,0 c 6.15386,0 11.03125,-4.9036 11.03125,-11.0625 l 0,-339.375 c 0,-6.1589 -4.87739,-11.0625 -11.03125,-11.0625 l -162.15625,0 z"
           transform="matrix(1.0083732,0,0,1,1.7752717,0)"
           id="path4259"
           style="fill:none;stroke:url(#linearGradient4915);stroke-width:0.10037527;stroke-miterlimit:4;stroke-opacity:1;stroke-dasharray:none;marker:none;visibility:visible;display:inline;overflow:visible;enable-background:accumulate" />
      </g>
      <rect
         width="0.062161606"
         height="0.61806709"
         ry="0.21591611"
         x="24.452421"
         y="41.860538"
         id="rect4265"
         style="fill:url(#radialGradient3289);fill-opacity:1;fill-rule:nonzero;stroke:url(#linearGradient3291);stroke-width:1.00000024;stroke-linecap:round;stroke-linejoin:round;stroke-miterlimit:4;stroke-opacity:1;stroke-dasharray:none;stroke-dashoffset:0.06;marker:none;visibility:visible;display:inline;overflow:visible;enable-background:accumulate" />
      <path
         d="m 13.0625,40.5625 0,0.34375 0,0.28125 c 0,0.446742 0.29367,0.812499 0.65625,0.8125 l 21.6875,0 c 0.36258,0 0.65625,-0.365757 0.65625,-0.8125 l 0,-0.625 -23,0 z"
         inkscape:connector-curvature="0"
         id="path4267"
         style="fill:url(#linearGradient3286);fill-opacity:1;stroke:none;stroke-width:1.53574109;marker:none;visibility:visible;display:inline;overflow:visible;enable-background:accumulate" />
      <path
         d="m 14.19744,1.534815 20.74798,0 c 0.3468,0 0.62601,0.3437492 0.62601,0.7707385 l 0,37.4290815 c 0,0.42699 -0.27921,0.770736 -0.62601,0.770736 l -20.74798,0 c -0.34682,0 -0.62601,-0.343746 -0.62601,-0.770736 l 0,-0.270185 0,-37.1588965 c 0,-0.4269893 0.27919,-0.7707385 0.62601,-0.7707385 l 0,0 z"
         inkscape:connector-curvature="0"
         id="path4269"
         style="fill:#030303;fill-opacity:1;stroke:url(#linearGradient3283);stroke-width:1.00000024;stroke-linecap:square;stroke-linejoin:miter;stroke-miterlimit:4;stroke-opacity:1;stroke-dasharray:none;stroke-dashoffset:0;marker:none;visibility:visible;display:inline;overflow:visible;enable-background:accumulate" />
      <path
         d="m 26.8157,5.0322068 c -0.32732,-0.00286 -0.65656,0.1733308 -0.73047,0.4370717 -0.07044,0.2514133 0.08442,0.4518757 0.39167,0.507586 0.21389,0.038781 0.49162,-0.018965 0.65387,-0.1365501 0.31463,-0.2280122 0.31567,-0.6025785 0.0022,-0.7420712 -0.0991,-0.044092 -0.20812,-0.065084 -0.31723,-0.066036 z m -5.06906,0.00168 c -0.21234,4.052e-4 -0.43069,0.071694 -0.56915,0.2014675 -0.30188,0.2829026 -0.17809,0.6669914 0.23898,0.7415118 0.12379,0.022117 0.32691,0.0062 0.45804,-0.035816 0.45237,-0.1449421 0.59094,-0.6458261 0.22929,-0.8293742 -0.10432,-0.05294 -0.22973,-0.078031 -0.35716,-0.077789 z m 2.418,0 c -0.04357,2.594e-4 -0.08844,0.00315 -0.13432,0.00951 -0.34099,0.047326 -0.59399,0.2729766 -0.59399,0.5299715 0,0.2121688 0.1563,0.3638897 0.41811,0.4057322 0.28313,0.045252 0.58587,-0.05294 0.75421,-0.2439991 0.09555,-0.1084578 0.13122,-0.2127874 0.11869,-0.3480906 -0.0197,-0.2125702 -0.25762,-0.354939 -0.5627,-0.3531281 z m 5.15269,0.030221 -0.20663,0.00504 -0.20663,0.00504 -0.28161,0.4297969 c -0.15497,0.2363881 -0.28229,0.4358409 -0.2827,0.4432281 -4e-4,0.00739 0.06488,0.013431 0.14513,0.013431 l 0.14621,0 0.0534,-0.080587 0.05341,-0.080587 0.1953,0 0.1953,0 0.01564,0.07611 0.01511,0.07611 0.17911,0.00504 0.1791,0.00504 -0.01025,-0.040853 C 29.50152,5.8983818 29.45621,5.6964432 29.40688,5.4720769 L 29.31733,5.0641058 z m -9.40441,0.00112 c -0.19511,0 -0.22149,0.00361 -0.22929,0.031339 -0.0048,0.017237 -0.04413,0.1569164 -0.08739,0.3105955 -0.06304,0.2239163 -0.07877,0.3066198 -0.07877,0.4163658 l 0,0.1371096 0.10304,0 0.10252,0 0.05394,-0.1835587 c 0.02946,-0.1009577 0.05931,-0.2029535 0.06636,-0.226651 0.01003,-0.03378 0.02472,0.00587 0.06959,0.1835594 l 0.05772,0.2266503 0.08848,0 0.08847,0 0.17103,-0.1969906 c 0.09417,-0.1083041 0.17439,-0.1940506 0.17803,-0.1902737 0.0056,0.00582 -0.06976,0.2970936 -0.09441,0.364879 -0.0091,0.025147 0.17622,0.030036 0.29672,0.00784 L 20.7664,5.9337729 20.84138,5.656196 C 20.88256,5.5035737 20.93494,5.3081048 20.95792,5.2219216 L 21,5.0652252 l -0.23684,0 -0.2363,0 -0.14567,0.1807605 -0.14565,0.1802018 -0.05126,-0.1802018 -0.0507,-0.1807605 -0.22066,0 z m 2.52319,0 -0.01834,0.076109 c -0.01032,0.041861 -0.02657,0.0996 -0.0356,0.1281553 -0.03152,0.099677 -0.03039,0.1001743 0.15753,0.1001743 0.15757,0 0.17299,0.00293 0.16454,0.031339 -0.0051,0.017237 -0.033,0.1361022 -0.06204,0.2641458 -0.02903,0.1280443 -0.05681,0.2471166 -0.06204,0.264706 -0.0088,0.029489 0.0039,0.031583 0.16779,0.026863 l 0.17802,-0.00504 0.05557,-0.2238526 C 23.01228,5.6047098 23.04621,5.473756 23.05653,5.4368202 l 0.01889,-0.067156 0.17695,0 0.17749,0 0.02967,-0.1298343 c 0.01611,-0.071409 0.02872,-0.1399079 0.0286,-0.1522201 -1.8e-4,-0.017413 -0.11694,-0.022385 -0.52601,-0.022385 l -0.52601,0 z m 2.5259,0 -0.11545,0.4275582 c -0.06344,0.2350841 -0.11544,0.4365514 -0.11544,0.4477053 0,0.013655 0.05261,0.020146 0.16131,0.020146 l 0.16129,0 0.03399,-0.1298342 0.03399,-0.1298348 0.13974,-0.00504 c 0.17149,-0.00636 0.20425,0.01585 0.18719,0.1264768 -0.01696,0.1100878 0.0013,0.1205134 0.21256,0.1203206 l 0.18342,-5.595e-4 0.0043,-0.120321 c 0.0054,-0.1529392 -0.0044,-0.1962387 -0.04748,-0.2104217 -0.03812,-0.012553 -0.04702,-0.044771 -0.0124,-0.044771 0.03858,0 0.15398,-0.1118872 0.17856,-0.1729258 0.03147,-0.078111 0.03004,-0.1762161 -0.0032,-0.2288891 -0.05495,-0.087016 -0.12756,-0.099614 -0.58319,-0.099614 l -0.41918,0 z m 2.85985,0.0028 c -0.02012,8.41e-5 -0.04214,4.143e-4 -0.06528,0.00112 l -0.16832,0.00504 -0.10683,0.4208427 c -0.05863,0.2314637 -0.10718,0.4309165 -0.10789,0.4432281 -10e-4,0.017346 0.09605,0.022385 0.42997,0.022385 l 0.43105,0 0.01888,-0.07611 c 0.01047,-0.041861 0.02534,-0.1023005 0.03345,-0.1343112 l 0.01511,-0.058202 -0.25787,0 c -0.16759,0 -0.25734,-0.00629 -0.25734,-0.018468 0,-0.010293 0.03108,-0.1471739 0.06906,-0.30388 0.03798,-0.1567056 0.06905,-0.2897609 0.06905,-0.2954853 0,-0.00429 -0.04269,-0.00641 -0.10304,-0.00616 z m -2.57122,0.2121003 0.15053,0 c 0.08263,1.346e-4 0.16745,0.00525 0.18882,0.011193 0.0513,0.014261 0.05163,0.084873 5.3e-4,0.1219998 -0.02836,0.020617 -0.08233,0.027982 -0.20716,0.027982 -0.09284,0 -0.16892,-0.00604 -0.16886,-0.013432 5e-5,-0.00739 0.0084,-0.043651 0.01834,-0.080587 l 0.0178,-0.067156 z m -3.52017,0.00112 c 0.0621,0.00217 0.12118,0.022083 0.16292,0.059321 0.09893,0.088273 0.03347,0.2915907 -0.11761,0.3654392 -0.09557,0.046719 -0.16274,0.058289 -0.23791,0.039734 -0.16802,-0.04147 -0.18388,-0.2479314 -0.02967,-0.388384 0.05792,-0.052761 0.14242,-0.078894 0.22227,-0.07611 z m 5.01834,5.596e-4 c 0.02363,-0.00103 0.04846,2.259e-4 0.075,0.00392 0.11139,0.015498 0.15927,0.06275 0.16562,0.1639717 0.0069,0.1107382 -0.05055,0.2054037 -0.15539,0.2563112 -0.14129,0.068622 -0.25416,0.063097 -0.33555,-0.016229 -0.07614,-0.074187 -0.04386,-0.2306298 0.06851,-0.3329803 0.0523,-0.047628 0.1109,-0.071904 0.18181,-0.074991 z m -2.5955,0.00112 c 0.04374,3.925e-4 0.08575,0.00817 0.12031,0.025184 0.15014,0.073904 0.10654,0.3052486 -0.07552,0.400137 -0.16907,0.088117 -0.34944,0.041838 -0.37441,-0.096257 -0.01118,-0.061796 0.02448,-0.1715707 0.075,-0.2305679 0.05364,-0.062683 0.15841,-0.099357 0.25462,-0.098495 z m 4.86784,0.081147 0.01996,0.069954 c 0.01118,0.038464 0.02138,0.088086 0.0221,0.1102478 0.0012,0.036597 -0.0068,0.040294 -0.08523,0.040294 -0.04747,0 -0.08631,-0.00388 -0.08631,-0.00895 0,-0.00508 0.02918,-0.054698 0.06474,-0.1102473 L 29.02115,5.364068 z"
         inkscape:connector-curvature="0"
         id="path4271"
         style="fill:#939499;fill-opacity:1;display:inline;enable-background:new" />
      <path
         d="m -385.65625,-108.3125 c -6.15386,0 -11.0625,4.90864 -11.0625,11.0625 l 0,339.375 c 0,6.15386 4.90864,11.0625 11.0625,11.0625 l 162.15625,0 c 6.15386,0 11.03125,-4.9036 11.03125,-11.0625 l 0,-339.375 c 0,-6.1589 -4.87739,-11.0625 -11.03125,-11.0625 l -162.15625,0 z"
         transform="matrix(0.1302577,0,0,0.1223279,64.24712,13.74934)"
         id="path4273"
         style="fill:none;stroke:#000000;stroke-width:7.92201376;stroke-miterlimit:4;stroke-opacity:1;stroke-dasharray:none;marker:none;visibility:visible;display:inline;overflow:visible;enable-background:accumulate" />
      <path
         d="m 13.07143,41.458394 c 0,0 0.08657,-0.375123 0.12956,-0.640619 0.06872,-0.424277 -0.08663,-0.812027 -0.08663,-0.812027 0.28004,0.538755 0.9447,0.614261 1.65979,0.557557 l 18.71273,-0.116159 -0.72281,0.334939 -17.58836,0 c -1.19939,0.159403 -1.55718,0.606793 -1.48222,1.202253 -0.37177,0.09474 -0.53077,-0.16 -0.62206,-0.525944 l 0,0 z"
         inkscape:connector-curvature="0"
         id="path4275"
         style="fill:url(#linearGradient3278);fill-opacity:1;stroke:none" />
      <rect
         width="17"
         height="29.059444"
         ry="0"
         x="16.07143"
         y="7.0306625"
         id="rect4277"
         style="fill:#2d2d2d;fill-opacity:1;stroke:none;stroke-width:2.01121116;marker:none;visibility:visible;display:inline;overflow:visible;enable-background:accumulate" />
      <rect
         width="7.9303894"
         height="0.94208002"
         ry="0.47104001"
         x="20.600906"
         y="2.7081966"
         id="rect4279"
         style="fill:url(#linearGradient3339);fill-opacity:1;fill-rule:nonzero;stroke:url(#linearGradient3341);stroke-width:0.99999994;stroke-miterlimit:4;stroke-opacity:1;stroke-dasharray:none;marker:none;visibility:visible;display:inline;overflow:visible;enable-background:accumulate" />
      <path
         d="m 15.95604,1.8429047 c -0.30427,0 -0.54823,0.3462445 -0.54823,0.7802826 l 0,37.7718757 0,0.275621 c 0,0.434039 0.24396,0.784164 0.54823,0.784164 l 4.83378,0 C 22.61779,28.250943 23.90495,15.046812 24.69196,1.8429047 l -8.73592,0 z"
         inkscape:connector-curvature="0"
         id="path4281"
         style="opacity:0.1;fill:url(#linearGradient3269);fill-opacity:1;stroke:none;stroke-width:1.4642123;marker:none;visibility:visible;display:inline;overflow:visible;enable-background:accumulate" />
      <g
         transform="matrix(0.1435626,0,0,0.1410284,97.05125,7.5436643)"
         id="g4283"
         style="stroke:#b2b2b6;stroke-width:3.51395345;stroke-miterlimit:4;stroke-opacity:1;stroke-dasharray:none">
        <path
           d="m -451.84124,213.40047 a 4.3310289,4.3310289 0 1 1 -8.66206,0 4.3310289,4.3310289 0 1 1 8.66206,0 z"
           transform="matrix(0.7804484,0,0,0.7804484,-97.704371,48.406795)"
           id="path4285"
           style="fill:none;stroke:#b2b2b6;stroke-width:4.50248051;stroke-miterlimit:4;stroke-opacity:1;stroke-dasharray:none;marker:none;visibility:visible;display:inline;overflow:visible;enable-background:accumulate" />
        <path
           d="m -451.22252,217.46633 3.18198,3.35876"
           inkscape:connector-curvature="0"
           id="path4287"
           style="fill:none;stroke:#b2b2b6;stroke-width:3.51395345;stroke-linecap:square;stroke-linejoin:miter;stroke-miterlimit:4;stroke-opacity:1;stroke-dasharray:none" />
      </g>
      <g
         transform="matrix(0.1392687,0,0,0.144468,96.34491,6.7379071)"
         id="g4289"
         style="stroke:#b2b2b6;stroke-width:3.52498579;stroke-miterlimit:4;stroke-opacity:1;stroke-dasharray:none">
        <path
           d="m -498.69737,217.61513 0,3.20724 6.14474,0 0,-3.20724"
           inkscape:connector-curvature="0"
           id="path4291"
           style="fill:none;stroke:#b2b2b6;stroke-width:3.52498579;stroke-linecap:butt;stroke-linejoin:miter;stroke-miterlimit:4;stroke-opacity:1;stroke-dasharray:none" />
        <path
           d="m -501.125,217.375 5.3125,-5.4375 5.6875,5.6875"
           inkscape:connector-curvature="0"
           id="path4293"
           style="fill:none;stroke:#b2b2b6;stroke-width:3.52498579;stroke-linecap:butt;stroke-linejoin:miter;stroke-miterlimit:4;stroke-opacity:1;stroke-dasharray:none" />
        <path
           d="m -492.5,214.83108 0,-2.78716"
           inkscape:connector-curvature="0"
           id="path4295"
           style="fill:none;stroke:#b2b2b6;stroke-width:3.52498579;stroke-linecap:square;stroke-linejoin:miter;stroke-miterlimit:4;stroke-opacity:1;stroke-dasharray:none" />
      </g>
      <g
         transform="matrix(0.1263814,0,0,0.1310995,89.98965,9.632939)"
         id="g4297"
         style="stroke:#b2b2b6;stroke-width:3.8844347;stroke-miterlimit:4;stroke-opacity:1;stroke-dasharray:none">
        <path
           d="m -545.33081,211.72109 11.49048,0"
           inkscape:connector-curvature="0"
           id="path4299"
           style="fill:none;stroke:#b2b2b6;stroke-width:3.8844347;stroke-linecap:square;stroke-linejoin:miter;stroke-miterlimit:4;stroke-opacity:1;stroke-dasharray:none" />
        <path
           d="m -542.23495,214.721 8.39462,0"
           inkscape:connector-curvature="0"
           id="path4301"
           style="fill:none;stroke:#b2b2b6;stroke-width:3.8844347;stroke-linecap:square;stroke-linejoin:miter;stroke-miterlimit:4;stroke-opacity:1;stroke-dasharray:none;display:inline;enable-background:new" />
        <path
           d="m -542.23495,217.92114 8.39462,0"
           inkscape:connector-curvature="0"
           id="path4303"
           style="fill:none;stroke:#b2b2b6;stroke-width:3.8844347;stroke-linecap:square;stroke-linejoin:miter;stroke-miterlimit:4;stroke-opacity:1;stroke-dasharray:none;display:inline;enable-background:new" />
        <path
           d="m -542.23495,221.021 8.39462,0"
           inkscape:connector-curvature="0"
           id="path4305"
           style="fill:none;stroke:#b2b2b6;stroke-width:3.8844347;stroke-linecap:square;stroke-linejoin:miter;stroke-miterlimit:4;stroke-opacity:1;stroke-dasharray:none;display:inline;enable-background:new" />
      </g>
      <g
         transform="matrix(0.146047,0,0,0.1429051,100.13753,7.0428127)"
         id="g4307"
         style="stroke:#b2b2b6;stroke-width:3.46098542;stroke-miterlimit:4;stroke-opacity:1;stroke-dasharray:none">
        <path
           d="m -571.0625,216.75 -2.125,-2.125 2.25,-2.25"
           inkscape:connector-curvature="0"
           id="path4309"
           style="fill:none;stroke:#b2b2b6;stroke-width:3.46098542;stroke-linecap:square;stroke-linejoin:miter;stroke-miterlimit:4;stroke-opacity:1;stroke-dasharray:none" />
        <path
           d="m -571.34988,221.3499 3.47515,0"
           inkscape:connector-curvature="0"
           id="path4311"
           style="fill:none;stroke:#b2b2b6;stroke-width:3.46098542;stroke-linecap:square;stroke-linejoin:miter;stroke-miterlimit:4;stroke-opacity:1;stroke-dasharray:none" />
        <path
           d="m -571.81153,214.57452 3.71723,0"
           inkscape:connector-curvature="0"
           id="path4313"
           style="fill:none;stroke:#b2b2b6;stroke-width:3.46098542;stroke-linecap:square;stroke-linejoin:miter;stroke-miterlimit:4;stroke-opacity:1;stroke-dasharray:none;display:inline;enable-background:new" />
        <path
           d="m -581.16605,214.06253 a 2.53125,3.375 0 1 1 -0.0466,6.74913"
           transform="translate(14.18633,0.5432743)"
           id="path4315"
           style="fill:none;stroke:#b2b2b6;stroke-width:3.46098542;stroke-linecap:square;stroke-linejoin:miter;stroke-miterlimit:4;stroke-opacity:1;stroke-dasharray:none;stroke-dashoffset:0;marker:none;visibility:visible;display:inline;overflow:visible;enable-background:accumulate" />
      </g>
    </g>
  </g>
</svg>
