<?xml version="1.0" encoding="UTF-8" standalone="no"?>
<svg
   version="1.1"
   id="svg4332"
   height="64px"
   width="64px"
   xmlns:xlink="http://www.w3.org/1999/xlink"
   xmlns="http://www.w3.org/2000/svg"
   xmlns:svg="http://www.w3.org/2000/svg"
   xmlns:rdf="http://www.w3.org/1999/02/22-rdf-syntax-ns#"
   xmlns:cc="http://creativecommons.org/ns#"
   xmlns:dc="http://purl.org/dc/elements/1.1/">
  <defs
     id="defs4334">
    <linearGradient
       y2="42.091705"
       x2="23.99999"
       y1="5.9093657"
       x1="23.99999"
       gradientTransform="matrix(1.4324324,0,0,1.4362832,-2.3783747,-2.4707827)"
       gradientUnits="userSpaceOnUse"
       id="linearGradient3904"
       xlink:href="#linearGradient4270" />
    <linearGradient
       id="linearGradient4270">
      <stop
         id="stop4272"
         style="stop-color:#ffffff;stop-opacity:1"
         offset="0" />
      <stop
         id="stop4274"
         style="stop-color:#ffffff;stop-opacity:0.23529412"
         offset="0.0348749" />
      <stop
         id="stop4276"
         style="stop-color:#ffffff;stop-opacity:0.15686275"
         offset="0.96216321" />
      <stop
         id="stop4278"
         style="stop-color:#ffffff;stop-opacity:0.39215687"
         offset="1" />
    </linearGradient>
    <linearGradient
       id="linearGradient3688-166-749-654">
      <stop
         offset="0"
         style="stop-color:#181818;stop-opacity:1"
         id="stop3088" />
      <stop
         offset="1"
         style="stop-color:#181818;stop-opacity:0"
         id="stop3090" />
    </linearGradient>
    <linearGradient
       id="linearGradient3702-501-757-795">
      <stop
         offset="0"
         style="stop-color:#181818;stop-opacity:0"
         id="stop3100" />
      <stop
         offset="0.5"
         style="stop-color:#181818;stop-opacity:1"
         id="stop3102" />
      <stop
         offset="1"
         style="stop-color:#181818;stop-opacity:0"
         id="stop3104" />
    </linearGradient>
    <radialGradient
       cx="4.9929786"
       cy="43.5"
       r="2.5"
       fx="4.9929786"
       fy="43.5"
       id="radialGradient3337-2-2"
       xlink:href="#linearGradient3688-166-749-654"
       gradientUnits="userSpaceOnUse"
       gradientTransform="matrix(2.4045407,0,0,0.99999998,41.985755,15.500001)" />
    <radialGradient
       cx="4.9929786"
       cy="43.5"
       r="2.5"
       fx="4.9929786"
       fy="43.5"
       id="radialGradient3339-1-4"
       xlink:href="#linearGradient3688-166-749-654"
       gradientUnits="userSpaceOnUse"
       gradientTransform="matrix(2.4045407,0,0,0.99999998,-22.014244,-102.5)" />
    <linearGradient
       x1="25.058096"
       y1="47.027729"
       x2="25.058096"
       y2="39.999443"
       id="linearGradient6394"
       xlink:href="#linearGradient3702-501-757-795"
       gradientUnits="userSpaceOnUse"
       gradientTransform="matrix(1.5714286,0,0,0.7142857,-5.7142853,27.928572)" />
    <linearGradient
       xlink:href="#linearGradient10964"
       id="linearGradient10966"
       x1="90.728569"
       y1="118.17792"
       x2="90.728569"
       y2="15.161243"
       gradientUnits="userSpaceOnUse"
       gradientTransform="matrix(0.52427184,0,0,0.52427184,-1.5533873,-3.1262134)" />
    <linearGradient
       id="linearGradient10964">
      <stop
         style="stop-color:#485a6c;stop-opacity:1"
         offset="0"
         id="stop10960" />
      <stop
         style="stop-color:#667885;stop-opacity:1"
         offset="1"
         id="stop10962" />
    </linearGradient>
  </defs>
  <metadata
     id="metadata4337">
    <rdf:RDF>
      <cc:Work
         rdf:about="">
        <dc:format>image/svg+xml</dc:format>
        <dc:type
           rdf:resource="http://purl.org/dc/dcmitype/StillImage" />
      </cc:Work>
    </rdf:RDF>
  </metadata>
  <g
     id="g866">
    <rect
       style="opacity:0.6;fill:url(#radialGradient3337-2-2);fill-opacity:1;stroke:none;stroke-width:1.06199"
       id="rect2801-5-5-7-9"
       y="56.5"
       x="54"
       height="5"
       width="6" />
    <rect
       style="opacity:0.6;fill:url(#radialGradient3339-1-4);fill-opacity:1;stroke:none;stroke-width:1.06199"
       id="rect3696-3-0-3-7"
       transform="scale(-1)"
       y="-61.5"
       x="-10"
       height="5"
       width="6" />
    <rect
       style="opacity:0.6;fill:url(#linearGradient6394);fill-opacity:1;stroke:none;stroke-width:1.06199"
       id="rect3700-5-6-8-4"
       y="56.5"
       x="10"
       height="5.0000005"
       width="44" />
  </g>
  <rect
     width="55"
     height="55"
     rx="6"
     ry="6"
     x="4.5"
     y="4.5"
     id="rect5505-21-3-8-5-2-9"
     style="color:#000000;display:inline;overflow:visible;visibility:visible;fill:url(#linearGradient10966);fill-opacity:1;fill-rule:nonzero;stroke:#273445;stroke-width:1;marker:none;enable-background:accumulate;font-variation-settings:normal;opacity:1;vector-effect:none;stroke-linecap:butt;stroke-linejoin:miter;stroke-miterlimit:4;stroke-dasharray:none;stroke-dashoffset:0;stroke-opacity:0.5;-inkscape-stroke:none;stop-color:#000000;stop-opacity:1" />
  <rect
     style="opacity:0.3;fill:none;stroke:url(#linearGradient3904);stroke-width:1;stroke-linecap:round;stroke-linejoin:round;stroke-miterlimit:4;stroke-dasharray:none;stroke-dashoffset:0;stroke-opacity:1"
     id="rect6741"
     y="5.428761"
     x="5.5"
     ry="5"
     rx="5"
     height="53.142479"
     width="53" />
  <path
     id="rect779-9-9"
     style="font-variation-settings:normal;opacity:0.03;vector-effect:none;fill:#ffffff;fill-opacity:1;stroke:none;stroke-width:1.7;stroke-linecap:butt;stroke-linejoin:miter;stroke-miterlimit:4;stroke-dasharray:none;stroke-dashoffset:0;stroke-opacity:1;-inkscape-stroke:none;marker:none;stop-color:#000000;stop-opacity:1"
     d="m 32.173828,-13.845703 a 0.76429243,0.76429243 0 0 0 -0.763672,0.763672 v 12.0214841 a 0.76429243,0.76429243 0 0 0 0.763672,0.7636719 h 12.019531 a 0.76429243,0.76429243 0 0 0 0.763672,-0.7636719 V -13.082031 a 0.76429243,0.76429243 0 0 0 -0.763672,-0.763672 z m 15.556641,0 a 0.76429243,0.76429243 0 0 0 -0.763672,0.763672 v 12.0214841 a 0.76429243,0.76429243 0 0 0 0.763672,0.7636719 H 59.75 a 0.76429243,0.76429243 0 0 0 0.763672,-0.7636719 V -13.082031 A 0.76429243,0.76429243 0 0 0 59.75,-13.845703 Z M 32.173828,1.7109375 A 0.76429243,0.76429243 0 0 0 31.410156,2.4746094 V 14.496094 a 0.76429243,0.76429243 0 0 0 0.763672,0.763672 h 12.019531 a 0.76429243,0.76429243 0 0 0 0.763672,-0.763672 V 2.4746094 A 0.76429243,0.76429243 0 0 0 44.193359,1.7109375 Z m 15.556641,0 A 0.76429243,0.76429243 0 0 0 46.966797,2.4746094 V 14.496094 a 0.76429243,0.76429243 0 0 0 0.763672,0.763672 H 59.75 a 0.76429243,0.76429243 0 0 0 0.763672,-0.763672 V 2.4746094 A 0.76429243,0.76429243 0 0 0 59.75,1.7109375 Z"
     transform="rotate(45,-5.7488476e-4,2.3809589e-4)" />
  <path
     id="rect779-9"
     style="font-variation-settings:normal;opacity:0.07;vector-effect:none;fill:#ffffff;fill-opacity:1;stroke:none;stroke-width:1.7;stroke-linecap:butt;stroke-linejoin:miter;stroke-miterlimit:4;stroke-dasharray:none;stroke-dashoffset:0;stroke-opacity:1;-inkscape-stroke:none;marker:none;stop-color:#000000"
     d="M 32.173359 -13.081475 L 32.173359 -1.0606602 L 44.194174 -1.0606602 L 44.194174 -13.081475 L 32.173359 -13.081475 z M 32.173359 2.4748737 L 32.173359 14.495689 L 44.194174 14.495689 L 44.194174 2.4748737 L 32.173359 2.4748737 z M 47.729708 -13.081475 L 47.729708 -1.0606602 L 59.750523 -1.0606602 L 59.750523 -13.081475 L 47.729708 -13.081475 z M 47.729708 2.4748737 L 47.729708 14.495689 L 59.750523 14.495689 L 59.750523 2.4748737 L 47.729708 2.4748737 z "
     transform="rotate(45)" />
  <path
     id="rect779"
     style="font-variation-settings:normal;vector-effect:none;fill:#38485a;fill-opacity:1;stroke:none;stroke-width:1;stroke-linecap:butt;stroke-linejoin:miter;stroke-miterlimit:4;stroke-dasharray:none;stroke-dashoffset:0;stroke-opacity:1;-inkscape-stroke:none;marker:none;stop-color:#000000"
     d="M 31.466252 -13.788582 L 31.466252 -1.767767 L 43.487067 -1.767767 L 43.487067 -13.788582 L 31.466252 -13.788582 z M 31.466252 1.767767 L 31.466252 13.788582 L 43.487067 13.788582 L 43.487067 1.767767 L 31.466252 1.767767 z M 47.022601 -13.788582 L 47.022601 -1.767767 L 59.043416 -1.767767 L 59.043416 -13.788582 L 47.022601 -13.788582 z M 47.022601 1.767767 L 47.022601 13.788582 L 59.043416 13.788582 L 59.043416 1.767767 L 47.022601 1.767767 z "
     transform="rotate(45)" />
  <path
     id="rect779-5"
     style="font-variation-settings:normal;opacity:0.07;fill:#0e141f;fill-opacity:1;stroke:none;stroke-width:2.5;stroke-linecap:butt;stroke-linejoin:miter;stroke-miterlimit:4;stroke-dasharray:none;stroke-dashoffset:0;stroke-opacity:1;marker:none;stop-color:#000000"
     d="M 31.466252 -13.788582 L 31.466252 -1.767767 L 32.932946 -1.767767 L 32.932946 -11.559539 A 0.76429243 0.76429243 0 0 1 33.696676 -12.323269 L 43.487067 -12.32465 L 43.487067 -13.788582 L 31.466252 -13.788582 z M 31.466252 1.767767 L 31.466252 13.788582 L 32.932946 13.788582 L 32.932946 3.9968106 A 0.76429243 0.76429243 0 0 1 33.696676 3.23308 L 43.487067 3.231699 L 43.487067 1.767767 L 31.466252 1.767767 z M 47.022601 -13.788582 L 47.022601 -1.767767 L 48.489295 -1.767767 L 48.489295 -11.559539 A 0.76429243 0.76429243 0 0 1 49.253026 -12.323269 L 59.043416 -12.32465 L 59.043416 -13.788582 L 47.022601 -13.788582 z M 47.022601 1.767767 L 47.022601 13.788582 L 48.489295 13.788582 L 48.489295 3.9968106 A 0.76429243 0.76429243 0 0 1 49.253026 3.23308 L 59.043416 3.2344611 L 59.043416 1.767767 L 47.022601 1.767767 z "
     transform="rotate(45)" />
  <path
     id="rect779-2"
     style="font-variation-settings:normal;opacity:0.15;fill:#0e141f;fill-opacity:1;stroke:none;stroke-width:2.5;stroke-linecap:butt;stroke-linejoin:miter;stroke-miterlimit:4;stroke-dasharray:none;stroke-dashoffset:0;stroke-opacity:1;marker:none;stop-color:#000000"
     d="M 31.466252 -13.788582 L 31.466252 -1.767767 L 32.173359 -1.767767 L 32.173359 -13.081475 L 43.487067 -13.081475 L 43.487067 -13.788582 L 31.466252 -13.788582 z M 31.466252 1.767767 L 31.466252 13.788582 L 32.173359 13.788582 L 32.173359 2.4748737 L 43.487067 2.4748737 L 43.487067 1.767767 L 31.466252 1.767767 z M 47.022601 -13.788582 L 47.022601 -1.767767 L 47.729708 -1.767767 L 47.729708 -13.081475 L 59.043416 -13.081475 L 59.043416 -13.788582 L 47.022601 -13.788582 z M 47.022601 1.767767 L 47.022601 13.788582 L 47.729708 13.788582 L 47.729708 2.4748737 L 59.043416 2.4748737 L 59.043416 1.767767 L 47.022601 1.767767 z "
     transform="rotate(45)" />
</svg>
