<svg xmlns="http://www.w3.org/2000/svg" xmlns:xlink="http://www.w3.org/1999/xlink" viewBox="0 0 64 64"><defs><linearGradient x1="302.857" y1="366.648" x2="302.857" y2="609.505" id="f" xlink:href="#a" gradientUnits="userSpaceOnUse" gradientTransform="matrix(.09154 0 0 .0206 -1.085 49.45)"/><linearGradient id="a"><stop offset="0" stop-opacity="0"/><stop offset=".5"/><stop offset="1" stop-opacity="0"/></linearGradient><radialGradient cx="605.714" cy="486.648" r="117.143" fx="605.714" fy="486.648" id="g" xlink:href="#b" gradientUnits="userSpaceOnUse" gradientTransform="matrix(-.03133 0 0 .0206 28.78 49.45)"/><linearGradient id="b"><stop offset="0"/><stop offset="1" stop-opacity="0"/></linearGradient><radialGradient cx="605.714" cy="486.648" r="117.143" fx="605.714" fy="486.648" id="h" xlink:href="#b" gradientUnits="userSpaceOnUse" gradientTransform="matrix(.03133 0 0 .0206 35.22 49.45)"/><linearGradient x1="25.132" y1=".985" x2="25.132" y2="47.013" id="i" xlink:href="#c" gradientUnits="userSpaceOnUse" gradientTransform="matrix(1.31428 0 0 1.26024 .457 -2.18)"/><linearGradient id="c"><stop offset="0" stop-color="#f4f4f4"/><stop offset="1" stop-color="#dbdbdb"/></linearGradient><linearGradient x1="24" y1="5.864" x2="24" y2="42.1" id="j" xlink:href="#d" gradientUnits="userSpaceOnUse" gradientTransform="matrix(1.21622 0 0 1.54054 2.81 -6.973)"/><linearGradient id="d"><stop offset="0" stop-color="#fff"/><stop offset=".012" stop-color="#fff" stop-opacity=".235"/><stop offset=".988" stop-color="#fff" stop-opacity=".157"/><stop offset="1" stop-color="#fff" stop-opacity=".392"/></linearGradient><linearGradient id="e"><stop offset="0" stop-opacity=".318"/><stop offset="1" stop-opacity=".24"/></linearGradient><linearGradient x1="-51.786" y1="50.786" x2="-51.786" y2="2.906" id="k" xlink:href="#e" gradientUnits="userSpaceOnUse" gradientTransform="matrix(1.08435 0 0 1.19974 79.55 -4.163)"/></defs><path opacity=".3" fill="url(#f)" overflow="visible" d="M9.9 57h44.2v5H9.9z"/><path d="M9.9 57v5c-1.613.01-3.9-1.12-3.9-2.5S7.8 57 9.9 57z" opacity=".3" fill="url(#g)" overflow="visible"/><path d="M54.1 57v5c1.613.01 3.9-1.12 3.9-2.5S56.2 57 54.1 57z" opacity=".3" fill="url(#h)" overflow="visible"/><path d="M9 1l46 .004V59H9V1z" fill="url(#i)"/><path d="M54.5 58.5h-45v-57h45z" fill="none" stroke="url(#j)" stroke-linecap="round"/><path d="M8.5.5l47 .004V59.5h-47V.5z" fill="none" stroke="url(#k)" stroke-linejoin="round"/><path color="#bebebe" fill="#69ba30" overflow="visible" d="M19 15h6v32h-6z"/><path color="#000" fill="#cd3436" overflow="visible" d="M29 31h6v16h-6z"/><path color="#bebebe" fill="#4aadea" overflow="visible" d="M39 23h6v24h-6z"/></svg>