<?xml version="1.0" encoding="UTF-8" standalone="no"?>
<!-- Created with Inkscape (http://www.inkscape.org/) -->

<svg
   xmlns:dc="http://purl.org/dc/elements/1.1/"
   xmlns:cc="http://creativecommons.org/ns#"
   xmlns:rdf="http://www.w3.org/1999/02/22-rdf-syntax-ns#"
   xmlns:svg="http://www.w3.org/2000/svg"
   xmlns="http://www.w3.org/2000/svg"
   xmlns:xlink="http://www.w3.org/1999/xlink"
   xmlns:sodipodi="http://sodipodi.sourceforge.net/DTD/sodipodi-0.dtd"
   xmlns:inkscape="http://www.inkscape.org/namespaces/inkscape"
   width="64px"
   height="64px"
   id="svg3237"
   version="1.1"
   inkscape:version="0.48.3.1 r9886"
   sodipodi:docname="application-vnd.ms-access.svg">
  <defs
     id="defs3239">
    <linearGradient
       inkscape:collect="always"
       xlink:href="#linearGradient8265-821-176-38-919-66-249-48-321-4"
       id="linearGradient3979"
       gradientUnits="userSpaceOnUse"
       gradientTransform="matrix(1.0013605,0,0,1.8757842,7.967346,-10.196087)"
       x1="16.626165"
       y1="15.298182"
       x2="20.054544"
       y2="24.627615" />
    <linearGradient
       id="linearGradient8265-821-176-38-919-66-249-48-321-4">
      <stop
         offset="0"
         style="stop-color:#ffffff;stop-opacity:1"
         id="stop5601-0" />
      <stop
         offset="1"
         style="stop-color:#ffffff;stop-opacity:0"
         id="stop5603-8" />
    </linearGradient>
    <linearGradient
       inkscape:collect="always"
       xlink:href="#linearGradient3977-4"
       id="linearGradient3196"
       gradientUnits="userSpaceOnUse"
       gradientTransform="matrix(1.2162162,0,0,1.5405376,2.8108184,-6.97295)"
       x1="23.99999"
       y1="5.8641062"
       x2="23.99999"
       y2="42.100208" />
    <linearGradient
       id="linearGradient3977-4">
      <stop
         id="stop3979-7"
         style="stop-color:#ffffff;stop-opacity:1"
         offset="0" />
      <stop
         id="stop3981-6"
         style="stop-color:#ffffff;stop-opacity:0.23529412"
         offset="0.01214366" />
      <stop
         id="stop3983-5"
         style="stop-color:#ffffff;stop-opacity:0.15686275"
         offset="0.98781353" />
      <stop
         id="stop3985-6"
         style="stop-color:#ffffff;stop-opacity:0.39215687"
         offset="1" />
    </linearGradient>
    <linearGradient
       inkscape:collect="always"
       xlink:href="#linearGradient4106"
       id="linearGradient3054"
       gradientUnits="userSpaceOnUse"
       gradientTransform="matrix(1.3614985,0,0,1.3715973,4.7493275,-0.53220114)"
       x1="24.239185"
       y1="44.110138"
       x2="24.239185"
       y2="0.19081046" />
    <linearGradient
       id="linearGradient4106">
      <stop
         id="stop4108"
         style="stop-color:#51293c;stop-opacity:1"
         offset="0" />
      <stop
         id="stop4110"
         style="stop-color:#876374;stop-opacity:1"
         offset="1" />
    </linearGradient>
    <linearGradient
       inkscape:collect="always"
       xlink:href="#linearGradient5293-7"
       id="linearGradient3058"
       gradientUnits="userSpaceOnUse"
       gradientTransform="matrix(1.6119748,0,0,1.2361035,-86.690394,5.1751556)"
       spreadMethod="reflect"
       x1="75.854454"
       y1="28"
       x2="91"
       y2="12" />
    <linearGradient
       id="linearGradient5293-7">
      <stop
         id="stop5295-9"
         style="stop-color:#ffffff;stop-opacity:1"
         offset="0" />
      <stop
         id="stop5297-1"
         style="stop-color:#ffffff;stop-opacity:0"
         offset="1" />
    </linearGradient>
    <linearGradient
       inkscape:collect="always"
       xlink:href="#linearGradient4000-6"
       id="linearGradient3061"
       gradientUnits="userSpaceOnUse"
       gradientTransform="matrix(1.6119748,0,0,1.252393,-86.690394,5.9797921)"
       spreadMethod="reflect"
       x1="75.854454"
       y1="28"
       x2="91"
       y2="12" />
    <linearGradient
       id="linearGradient4000-6">
      <stop
         id="stop4002-5"
         style="stop-color:#000000;stop-opacity:1"
         offset="0" />
      <stop
         id="stop4004-0"
         style="stop-color:#000000;stop-opacity:0"
         offset="1" />
    </linearGradient>
    <radialGradient
       r="18.000002"
       fy="11.49049"
       fx="14.239056"
       cy="11.49049"
       cx="14.239056"
       gradientTransform="matrix(0,4.2616625,-7.1151583,0,99.39928,-53.130482)"
       gradientUnits="userSpaceOnUse"
       id="radialGradient3133-1"
       xlink:href="#linearGradient4145-42-4"
       inkscape:collect="always" />
    <linearGradient
       id="linearGradient4145-42-4">
      <stop
         id="stop4953-4"
         style="stop-color:#e694bb;stop-opacity:1"
         offset="0" />
      <stop
         id="stop4955-6"
         style="stop-color:#d3819a;stop-opacity:1"
         offset="0.26238" />
      <stop
         id="stop4957-4"
         style="stop-color:#b25a64;stop-opacity:1"
         offset="0.704952" />
      <stop
         id="stop4959-2"
         style="stop-color:#98313d;stop-opacity:1"
         offset="1" />
    </linearGradient>
    <linearGradient
       y2="2.9062471"
       x2="-51.786404"
       y1="53.623615"
       x1="-51.786404"
       gradientTransform="matrix(1.0843521,0,0,1.1997373,79.550844,-4.1628004)"
       gradientUnits="userSpaceOnUse"
       id="linearGradient3135-7"
       xlink:href="#linearGradient4711-257-0"
       inkscape:collect="always" />
    <linearGradient
       id="linearGradient4711-257-0">
      <stop
         id="stop4963-9"
         style="stop-color:#643340;stop-opacity:1"
         offset="0" />
      <stop
         id="stop4965-6"
         style="stop-color:#a77a86;stop-opacity:1"
         offset="1" />
    </linearGradient>
    <linearGradient
       inkscape:collect="always"
       xlink:href="#linearGradient3600-9"
       id="linearGradient3199"
       gradientUnits="userSpaceOnUse"
       gradientTransform="matrix(1.3142827,0,0,1.2602393,0.4572141,-2.17932)"
       x1="25.132275"
       y1="0.98520643"
       x2="25.132275"
       y2="47.013336" />
    <linearGradient
       id="linearGradient3600-9">
      <stop
         id="stop3602-3"
         style="stop-color:#f4f4f4;stop-opacity:1"
         offset="0" />
      <stop
         id="stop3604-7"
         style="stop-color:#dbdbdb;stop-opacity:1"
         offset="1" />
    </linearGradient>
    <radialGradient
       inkscape:collect="always"
       xlink:href="#linearGradient5060"
       id="radialGradient3202"
       gradientUnits="userSpaceOnUse"
       gradientTransform="matrix(0.03132633,0,0,0.02058823,35.220859,49.45142)"
       cx="605.71429"
       cy="486.64789"
       fx="605.71429"
       fy="486.64789"
       r="117.14286" />
    <linearGradient
       id="linearGradient5060">
      <stop
         id="stop5062"
         style="stop-color:#000000;stop-opacity:1"
         offset="0" />
      <stop
         id="stop5064"
         style="stop-color:#000000;stop-opacity:0"
         offset="1" />
    </linearGradient>
    <radialGradient
       inkscape:collect="always"
       xlink:href="#linearGradient5060"
       id="radialGradient3205"
       gradientUnits="userSpaceOnUse"
       gradientTransform="matrix(-0.03132632,0,0,0.02058823,28.779136,49.45142)"
       cx="605.71429"
       cy="486.64789"
       fx="605.71429"
       fy="486.64789"
       r="117.14286" />
    <linearGradient
       id="linearGradient5048">
      <stop
         id="stop5050"
         style="stop-color:#000000;stop-opacity:0"
         offset="0" />
      <stop
         id="stop5056"
         style="stop-color:#000000;stop-opacity:1"
         offset="0.5" />
      <stop
         id="stop5052"
         style="stop-color:#000000;stop-opacity:0"
         offset="1" />
    </linearGradient>
    <linearGradient
       y2="609.50507"
       x2="302.85715"
       y1="366.64789"
       x1="302.85715"
       gradientTransform="matrix(0.09153846,0,0,0.02058823,-1.084616,49.45142)"
       gradientUnits="userSpaceOnUse"
       id="linearGradient3235"
       xlink:href="#linearGradient5048"
       inkscape:collect="always" />
  </defs>
  <sodipodi:namedview
     id="base"
     pagecolor="#ffffff"
     bordercolor="#666666"
     borderopacity="1.0"
     inkscape:pageopacity="0.0"
     inkscape:pageshadow="2"
     inkscape:zoom="5.5"
     inkscape:cx="32"
     inkscape:cy="32"
     inkscape:current-layer="layer1"
     showgrid="true"
     inkscape:document-units="px"
     inkscape:grid-bbox="true"
     inkscape:window-width="453"
     inkscape:window-height="430"
     inkscape:window-x="15"
     inkscape:window-y="65"
     inkscape:window-maximized="0" />
  <metadata
     id="metadata3242">
    <rdf:RDF>
      <cc:Work
         rdf:about="">
        <dc:format>image/svg+xml</dc:format>
        <dc:type
           rdf:resource="http://purl.org/dc/dcmitype/StillImage" />
        <dc:title></dc:title>
      </cc:Work>
    </rdf:RDF>
  </metadata>
  <g
     id="layer1"
     inkscape:label="Layer 1"
     inkscape:groupmode="layer">
    <rect
       style="opacity:0.3;fill:url(#linearGradient3235);fill-opacity:1;fill-rule:nonzero;stroke:none;stroke-width:1;marker:none;visibility:visible;display:inline;overflow:visible"
       id="rect2879"
       y="57.000004"
       x="9.8999996"
       height="5"
       width="44.199997" />
    <path
       inkscape:connector-curvature="0"
       style="opacity:0.3;fill:url(#radialGradient3205);fill-opacity:1;fill-rule:nonzero;stroke:none;stroke-width:1;marker:none;visibility:visible;display:inline;overflow:visible"
       id="path2881"
       d="m 9.9,57.00022 c 0,0 0,4.9997 0,4.9997 -1.6132281,0.01 -3.9,-1.1202 -3.9,-2.5002 0,-1.38 1.8002408,-2.4995 3.9,-2.4995 z" />
    <path
       inkscape:connector-curvature="0"
       style="opacity:0.3;fill:url(#radialGradient3202);fill-opacity:1;fill-rule:nonzero;stroke:none;stroke-width:1;marker:none;visibility:visible;display:inline;overflow:visible"
       id="path2883"
       d="m 54.099999,57.00022 c 0,0 0,4.9997 0,4.9997 C 55.713227,62.00992 58,60.87972 58,59.49972 c 0,-1.38 -1.800241,-2.4995 -3.900001,-2.4995 z" />
    <path
       inkscape:connector-curvature="0"
       style="fill:url(#linearGradient3199);fill-opacity:1;stroke:none;display:inline"
       id="path4160-6"
       d="m 9,0.99987993 c 10.540935,0 45.999945,0.004 45.999945,0.004 L 55,59.00002 c 0,0 -30.666666,0 -46,0 C 9,39.66662 9,20.33352 9,1.0002 z" />
    <path
       inkscape:connector-curvature="0"
       style="color:#000000;fill:url(#radialGradient3133-1);fill-opacity:1;fill-rule:nonzero;stroke:url(#linearGradient3135-7);stroke-width:0.99992186;stroke-linecap:butt;stroke-linejoin:round;stroke-miterlimit:4;stroke-opacity:1;stroke-dasharray:none;stroke-dashoffset:0;marker:none;visibility:visible;display:inline;overflow:visible;enable-background:accumulate"
       id="path4160-6-1"
       d="m 8.4999684,0.49989993 c 10.7700936,0 47.0000286,0.004 47.0000286,0.004 l 4.9e-5,58.99622007 c 0,0 -31.333384,0 -47.0000776,0 0,-19.6668 0,-39.3334 0,-58.99997007 z" />
    <path
       inkscape:connector-curvature="0"
       style="opacity:0.1;fill:url(#linearGradient3061);fill-opacity:1;fill-rule:nonzero;stroke:none;stroke-width:0.91176528;marker:none;visibility:visible;display:inline;overflow:visible;enable-background:accumulate"
       id="path3447"
       d="m 44.492215,21.008509 c -0.592053,-0.02297 -1.181998,0.0031 -1.759014,0.04817 -5.077724,0.396612 -9.467773,3.386887 -11.155846,8.140555 -1.040169,2.929179 -0.832303,6.03199 0.27774,8.911259 l -22.8550942,19.528963 0,1.36255 13.5200222,0 -0.29321,-3.74336 7.45266,1.44507 0.879506,-6.695489 6.989764,1.44507 4.582691,-3.80535 c 4.679845,1.479921 9.428703,0.723885 12.868568,-1.734083 0,-5.358209 0,-10.6665 0,-16.040265 -0.567834,0.139246 -1.226765,0.104802 -1.851592,-0.144505 -1.525394,-0.608643 -2.387005,-2.235287 -1.897882,-3.612672 0.366838,-1.033032 1.419649,-1.702645 2.545939,-1.685915 0.375427,0.0056 0.775895,0.08869 1.157245,0.240846 0.02065,0.0082 0.02591,0.03956 0.04629,0.04817 0,-0.837327 0,-1.668803 0,-2.504786 -1.490259,-0.390856 -2.990549,-0.231833 -4.166082,0.433519 -0.319122,-0.151062 -0.593467,-0.349085 -0.925798,-0.481688 -1.794711,-0.716098 -3.639751,-1.087142 -5.415907,-1.156056 z" />
    <path
       inkscape:connector-curvature="0"
       style="opacity:0.4;fill:url(#linearGradient3058);fill-opacity:1;fill-rule:nonzero;stroke:none;stroke-width:0.91176528;marker:none;visibility:visible;display:inline;overflow:visible;enable-background:accumulate"
       id="path3449"
       d="m 44.492215,20.008399 c -0.592053,-0.02267 -1.181998,0.0031 -1.759014,0.04754 -5.077724,0.391453 -9.467773,3.342833 -11.155846,8.034673 -1.040169,2.89108 -0.832303,5.953534 0.27774,8.795354 L 9.0000008,56.31035 c 0,0 0.062551,2.689655 0.062551,2.689655 4.5269602,0 9.0539012,0 13.5808682,0 l -0.416607,-5.188924 7.45266,1.426272 0.879506,-6.608399 6.989764,1.426273 4.582691,-3.755855 c 4.679845,1.460672 9.428703,0.71447 12.868568,-1.711525 0,-5.28852 0,-10.527768 0,-15.831637 -0.567834,0.137433 -1.226765,0.103438 -1.851592,-0.142627 -1.525394,-0.600724 -2.387005,-2.206215 -1.897882,-3.565683 0.366838,-1.019596 1.419649,-1.680498 2.545939,-1.663987 0.375427,0.0055 0.775895,0.08753 1.157245,0.237713 0.02065,0.0081 0.02591,0.03904 0.04629,0.04754 0,-0.826435 0,-1.647097 0,-2.472207 -1.490259,-0.385772 -2.990549,-0.228816 -4.166082,0.427881 -0.319122,-0.149097 -0.593467,-0.344545 -0.925798,-0.475424 -1.794711,-0.706783 -3.639751,-1.073001 -5.415907,-1.141018 z" />
    <path
       inkscape:connector-curvature="0"
       style="font-size:30.51395607px;font-style:normal;font-variant:normal;font-weight:bold;font-stretch:normal;opacity:0.4;fill:#ffffff;fill-opacity:1;stroke:none;font-family:Droid Sans;-inkscape-font-specification:Droid Sans Bold"
       id="path3485"
       d="M 39.150639,48 C 38.474456,45.629428 37.676184,43.370572 37,41 c -3.407963,0 -6.592034,0 -10,0 -0.682944,2.370572 -1.467693,4.629428 -2.150638,7 -2.116455,0 -4.232908,0 -6.349362,0 3.211871,-10.000001 6.423741,-20.000001 9.635614,-30 2.562734,0 5.125469,0 7.688202,0 3.225396,9.999999 6.45079,19.999999 9.676184,30 -2.116454,0 -4.232907,0 -6.349361,0 z M 35.661534,36 C 34.377001,31.480743 33.065483,26.559099 32,22 c -0.990726,4.580635 -2.302648,9.483308 -3.580391,14 2.413974,0 4.82795,0 7.241925,0 z" />
    <path
       inkscape:connector-curvature="0"
       style="font-size:30.51395607px;font-style:normal;font-variant:normal;font-weight:bold;font-stretch:normal;fill:url(#linearGradient3054);fill-opacity:1;stroke:none;font-family:Droid Sans;-inkscape-font-specification:Droid Sans Bold"
       id="path3453"
       d="M 39.150639,47 C 38.474456,44.629428 37.676184,42.370572 37,40 c -3.407963,0 -6.592034,0 -10,0 -0.682944,2.370572 -1.467693,4.629428 -2.150638,7 -2.116455,0 -4.232908,0 -6.349362,0 3.211871,-10.000001 6.423741,-20.000001 9.635614,-30 2.562734,0 5.125469,0 7.688202,0 3.225396,9.999999 6.45079,19.999999 9.676184,30 -2.116454,0 -4.232907,0 -6.349361,0 z M 35.661534,35 C 34.377001,30.480743 33.065483,25.559099 32,21 c -0.990726,4.580635 -2.302648,9.483308 -3.580391,14 2.413974,0 4.82795,0 7.241925,0 z" />
    <path
       inkscape:connector-curvature="0"
       style="opacity:0.5;fill:none;stroke:url(#linearGradient3196);stroke-width:1;stroke-linecap:round;stroke-linejoin:miter;stroke-miterlimit:4;stroke-opacity:1;stroke-dasharray:none;stroke-dashoffset:0"
       id="rect6741-1-8"
       d="m 54.499999,58.50002 -44.9999992,0 0,-57.00004 44.9999992,0 z" />
    <path
       inkscape:connector-curvature="0"
       style="opacity:0.2;fill:url(#linearGradient3979);fill-opacity:1;fill-rule:evenodd;stroke:none"
       id="path3879"
       d="m 9,1 0,34.115822 c 0.00271,0.252484 0.061883,0.491248 0.1629699,0.658335 0.1010917,0.167087 0.2349193,0.24722 0.3690012,0.220937 L 54.593197,22.630131 C 54.824992,22.56165 54.996758,22.190386 55,21.750856 L 55,1 z"
       sodipodi:nodetypes="ccsccccc" />
  </g>
</svg>
