<svg xmlns="http://www.w3.org/2000/svg" xmlns:xlink="http://www.w3.org/1999/xlink" viewBox="0 0 64 64"><defs><linearGradient xlink:href="#a" id="k" gradientUnits="userSpaceOnUse" gradientTransform="matrix(1.21622 0 0 1.54054 2.81 -6.973)" x1="24" y1="5.864" x2="24" y2="42.1"/><linearGradient id="a"><stop offset="0" stop-color="#fff"/><stop offset=".012" stop-color="#fff" stop-opacity=".235"/><stop offset=".988" stop-color="#fff" stop-opacity=".157"/><stop offset="1" stop-color="#fff" stop-opacity=".392"/></linearGradient><linearGradient xlink:href="#b" id="j" gradientUnits="userSpaceOnUse" gradientTransform="translate(-64.77 -4.38) scale(1.0757)" x1="167.983" y1="8.508" x2="167.983" y2="54.78"/><linearGradient id="b"><stop offset="0" stop-color="#fffdf3"/><stop offset="1" stop-color="#fbebeb"/></linearGradient><radialGradient xlink:href="#c" id="i" gradientUnits="userSpaceOnUse" gradientTransform="matrix(0 10.08712 -12.38376 0 155.874 -97.777)" cx="8.276" cy="9.994" fx="8.276" fy="9.994" r="12.672"/><linearGradient id="c"><stop offset="0" stop-color="#f89b7e"/><stop offset=".262" stop-color="#e35d4f"/><stop offset=".661" stop-color="#c6262e"/><stop offset="1" stop-color="#690b2c"/></linearGradient><radialGradient xlink:href="#d" id="h" gradientUnits="userSpaceOnUse" gradientTransform="matrix(.03133 0 0 .0206 35.22 49.45)" cx="605.714" cy="486.648" fx="605.714" fy="486.648" r="117.143"/><linearGradient id="d"><stop offset="0"/><stop offset="1" stop-opacity="0"/></linearGradient><radialGradient xlink:href="#d" id="g" gradientUnits="userSpaceOnUse" gradientTransform="matrix(-.03133 0 0 .0206 28.78 49.45)" cx="605.714" cy="486.648" fx="605.714" fy="486.648" r="117.143"/><linearGradient id="e"><stop offset="0" stop-opacity="0"/><stop offset=".5"/><stop offset="1" stop-opacity="0"/></linearGradient><linearGradient y2="609.505" x2="302.857" y1="366.648" x1="302.857" gradientTransform="matrix(.09154 0 0 .0206 -1.085 49.45)" gradientUnits="userSpaceOnUse" id="f" xlink:href="#e"/></defs><path opacity=".3" fill="url(#f)" overflow="visible" d="M9.9 57h44.2v5H9.9z"/><path d="M9.9 57v5c-1.613.01-3.9-1.12-3.9-2.5S7.8 57 9.9 57z" opacity=".3" fill="url(#g)" overflow="visible"/><path d="M54.1 57v5c1.613.01 3.9-1.12 3.9-2.5S56.2 57 54.1 57z" opacity=".3" fill="url(#h)" overflow="visible"/><path d="M8.5.5l47 .004V59.5h-47V.5z" color="#000" fill="url(#i)" overflow="visible"/><path d="M37.78 1a.985.985 0 0 0-.56.25C24.066 12.535 14.78 17.26 9 19.25v8.156a.985.985 0 0 0 .28-.03 47.68 47.68 0 0 0 11.845-5.314c7.898-4.946 15.32-11.948 18.656-15.156-.97 3.877-1.6 9.396-2.06 16.438-.625 9.562-.895 21.78-.94 35.656H55V33.187c-.373-1.81-.738-3.612-1.063-5.374-.002-.022.003-.04 0-.063-1.27-9.735.072-18.426 1.063-23.062V1.094A.985.985 0 0 0 54.75 1H37.78zM9 32.844v7.968C15.723 43.722 23.58 50.828 28.28 59h7.5c-1.472-4.416-5.563-9.383-10.436-14.03-5.15-4.914-11.154-9.403-15.875-12a.985.985 0 0 0-.47-.126z" opacity=".15" color="#000" fill="#661215" fill-rule="evenodd" overflow="visible"/><path d="M8.5.5l47 .004V59.5h-47V.5z" opacity=".35" color="#000" fill="none" stroke="#410000" stroke-linecap="round" stroke-linejoin="round" overflow="visible"/><path d="M37.875 2C24.425 13.54 14.91 18.333 9 20.313v6.125a46.798 46.798 0 0 0 11.594-5.22C30.34 15.114 41.97 3.532 41.97 3.532 38.81 9.726 37.862 30.926 37.78 59H55V37.97a265.568 265.568 0 0 1-2.03-10.032C51.382 15.902 53.724 5.39 54.593 2h-16.72zM9 33.844v5.906C16.233 42.736 24.582 50.252 29.438 59h5.343C31.73 50.62 17.87 38.724 9 33.844z" opacity=".3" color="#000" fill="#661215" fill-rule="evenodd" overflow="visible"/><path d="M37.875 1C24.425 12.54 14.91 17.333 9 19.313v6.125a46.798 46.798 0 0 0 11.594-5.22C30.34 14.114 41.97 2.532 41.97 2.532 38.772 8.8 37.842 30.414 37.78 59H55V36.97a265.568 265.568 0 0 1-2.03-10.032C51.382 14.902 53.724 4.39 54.593 1h-16.72zM9 32.844v5.906C16.505 41.848 25.21 49.834 29.97 59h5.124C32.838 50.595 18.22 37.918 9 32.844z" color="#000" fill="url(#j)" overflow="visible"/><path d="M55 1.375C47.7 5.793 26.88 17.45 9 18.5v13.688c10.438 1.05 32.437 2.348 46-3.438V1.375zm0 35.75c-5.625 6.517-10.955 14.098-14.844 21.844h6.125c2.58-4.36 5.627-8.988 8.72-13.035v-8.813z" opacity=".05" fill-rule="evenodd"/><path d="M54.5 58.5h-45v-57h45z" opacity=".5" fill="none" stroke="url(#k)" stroke-linecap="round"/></svg>