<?xml version="1.0" encoding="UTF-8" standalone="no"?>
<svg
   version="1.1"
   width="64"
   height="64"
   id="svg3844"
   sodipodi:docname="application-octet-stream.svg"
   inkscape:version="1.4 (e7c3feb100, 2024-10-09)"
   xmlns:inkscape="http://www.inkscape.org/namespaces/inkscape"
   xmlns:sodipodi="http://sodipodi.sourceforge.net/DTD/sodipodi-0.dtd"
   xmlns:xlink="http://www.w3.org/1999/xlink"
   xmlns="http://www.w3.org/2000/svg"
   xmlns:svg="http://www.w3.org/2000/svg"
   xmlns:rdf="http://www.w3.org/1999/02/22-rdf-syntax-ns#"
   xmlns:cc="http://creativecommons.org/ns#"
   xmlns:dc="http://purl.org/dc/elements/1.1/">
  <sodipodi:namedview
     id="namedview1"
     pagecolor="#ffffff"
     bordercolor="#000000"
     borderopacity="0.25"
     inkscape:showpageshadow="2"
     inkscape:pageopacity="0.0"
     inkscape:pagecheckerboard="0"
     inkscape:deskcolor="#d1d1d1"
     inkscape:zoom="17.6875"
     inkscape:cx="32"
     inkscape:cy="32"
     inkscape:current-layer="svg3844" />
  <defs
     id="defs3846">
    <linearGradient
       x1="-51.786404"
       y1="50.786446"
       x2="-51.786404"
       y2="2.9062471"
       id="linearGradient3033"
       xlink:href="#linearGradient3104-6"
       gradientUnits="userSpaceOnUse"
       gradientTransform="matrix(1.0843523,0,0,1.1997367,79.550862,-4.1628601)" />
    <linearGradient
       id="linearGradient3104-6">
      <stop
         id="stop3106-3"
         style="stop-color:#000000;stop-opacity:0.31782946"
         offset="0" />
      <stop
         id="stop3108-9"
         style="stop-color:#000000;stop-opacity:0.24031007"
         offset="1" />
    </linearGradient>
    <linearGradient
       x1="23.99999"
       y1="5.8641062"
       x2="23.99999"
       y2="42.175503"
       id="linearGradient3093"
       xlink:href="#linearGradient3977-4"
       gradientUnits="userSpaceOnUse"
       gradientTransform="matrix(1.2162162,0,0,1.5405376,2.8108184,-6.9729501)" />
    <linearGradient
       id="linearGradient3977-4">
      <stop
         id="stop3979-7"
         style="stop-color:#ffffff;stop-opacity:1"
         offset="0" />
      <stop
         id="stop3981-6"
         style="stop-color:#ffffff;stop-opacity:0.23529412"
         offset="0" />
      <stop
         id="stop3983-5"
         style="stop-color:#ffffff;stop-opacity:0.15686275"
         offset="1" />
      <stop
         id="stop3985-6"
         style="stop-color:#ffffff;stop-opacity:0.39215687"
         offset="1" />
    </linearGradient>
    <linearGradient
       x1="25.132275"
       y1="0.98520643"
       x2="25.132275"
       y2="47.013336"
       id="linearGradient3096"
       xlink:href="#linearGradient3600-9"
       gradientUnits="userSpaceOnUse"
       gradientTransform="matrix(1.3142827,0,0,1.2602393,0.4572141,-2.1793201)" />
    <linearGradient
       id="linearGradient3600-9">
      <stop
         id="stop3602-3"
         style="stop-color:#f4f4f4;stop-opacity:1"
         offset="0" />
      <stop
         id="stop3604-7"
         style="stop-color:#dbdbdb;stop-opacity:1"
         offset="1" />
    </linearGradient>
    <radialGradient
       cx="605.71429"
       cy="486.64789"
       r="117.14286"
       fx="605.71429"
       fy="486.64789"
       id="radialGradient3153"
       xlink:href="#linearGradient5060"
       gradientUnits="userSpaceOnUse"
       gradientTransform="matrix(0.03132633,0,0,0.02058823,35.220859,49.45142)" />
    <linearGradient
       id="linearGradient5060">
      <stop
         id="stop5062"
         style="stop-color:#000000;stop-opacity:1"
         offset="0" />
      <stop
         id="stop5064"
         style="stop-color:#000000;stop-opacity:0"
         offset="1" />
    </linearGradient>
    <radialGradient
       cx="605.71429"
       cy="486.64789"
       r="117.14286"
       fx="605.71429"
       fy="486.64789"
       id="radialGradient3156"
       xlink:href="#linearGradient5060"
       gradientUnits="userSpaceOnUse"
       gradientTransform="matrix(-0.03132632,0,0,0.02058823,28.779136,49.45142)" />
    <linearGradient
       id="linearGradient5048">
      <stop
         id="stop5050"
         style="stop-color:#000000;stop-opacity:0"
         offset="0" />
      <stop
         id="stop5056"
         style="stop-color:#000000;stop-opacity:1"
         offset="0.5" />
      <stop
         id="stop5052"
         style="stop-color:#000000;stop-opacity:0"
         offset="1" />
    </linearGradient>
    <linearGradient
       x1="302.85715"
       y1="366.64789"
       x2="302.85715"
       y2="609.50507"
       id="linearGradient3842"
       xlink:href="#linearGradient5048"
       gradientUnits="userSpaceOnUse"
       gradientTransform="matrix(0.09153846,0,0,0.02058823,-1.084616,49.45142)" />
  </defs>
  <metadata
     id="metadata3849">
    <rdf:RDF>
      <cc:Work
         rdf:about="">
        <dc:format>image/svg+xml</dc:format>
        <dc:type
           rdf:resource="http://purl.org/dc/dcmitype/StillImage" />
      </cc:Work>
    </rdf:RDF>
  </metadata>
  <path
     id="rect3137-6-5-5-1"
     d="M 20.017578 9.0117188 L 20.017578 13.011719 L 24.017578 13.011719 L 24.017578 9.0117188 L 20.017578 9.0117188 z M 24.017578 13.011719 L 24.017578 17.011719 L 28.017578 17.011719 L 28.017578 13.011719 L 24.017578 13.011719 z M 28.017578 13.011719 L 32.017578 13.011719 L 32.017578 9.0117188 L 28.017578 9.0117188 L 28.017578 13.011719 z M 32.017578 13.011719 L 32.017578 17.011719 L 36.017578 17.011719 L 36.017578 13.011719 L 32.017578 13.011719 z M 36.017578 13.011719 L 40.017578 13.011719 L 40.017578 9.0117188 L 36.017578 9.0117188 L 36.017578 13.011719 z M 40.017578 13.011719 L 40.017578 17.011719 L 44.017578 17.011719 L 44.017578 13.011719 L 40.017578 13.011719 z M 44.017578 13.011719 L 48.017578 13.011719 L 48.017578 9.0117188 L 44.017578 9.0117188 L 44.017578 13.011719 z M 44.017578 17.011719 L 44.017578 21.011719 L 48.017578 21.011719 L 48.017578 17.011719 L 44.017578 17.011719 z M 44.017578 21.011719 L 40.017578 21.011719 L 40.017578 25.011719 L 44.017578 25.011719 L 44.017578 21.011719 z M 44.017578 25.011719 L 44.017578 29.011719 L 48.017578 29.011719 L 48.017578 25.011719 L 44.017578 25.011719 z M 44.017578 29.011719 L 40.017578 29.011719 L 40.017578 33.011719 L 44.017578 33.011719 L 44.017578 29.011719 z M 44.017578 33.011719 L 44.017578 37.011719 L 48.017578 37.011719 L 48.017578 33.011719 L 44.017578 33.011719 z M 44.017578 37.011719 L 40.017578 37.011719 L 40.017578 41.011719 L 44.017578 41.011719 L 44.017578 37.011719 z M 44.017578 41.011719 L 44.017578 45.011719 L 48.017578 45.011719 L 48.017578 41.011719 L 44.017578 41.011719 z M 44.017578 45.011719 L 40.017578 45.011719 L 40.017578 49.011719 L 44.017578 49.011719 L 44.017578 45.011719 z M 44.017578 49.011719 L 44.017578 53.011719 L 48.017578 53.011719 L 48.017578 49.011719 L 44.017578 49.011719 z M 40.017578 49.011719 L 36.017578 49.011719 L 36.017578 53.011719 L 40.017578 53.011719 L 40.017578 49.011719 z M 36.017578 49.011719 L 36.017578 45.011719 L 32.017578 45.011719 L 32.017578 49.011719 L 36.017578 49.011719 z M 32.017578 49.011719 L 28.017578 49.011719 L 28.017578 53.011719 L 32.017578 53.011719 L 32.017578 49.011719 z M 28.017578 49.011719 L 28.017578 45.011719 L 24.017578 45.011719 L 24.017578 49.011719 L 28.017578 49.011719 z M 24.017578 49.011719 L 20.017578 49.011719 L 20.017578 53.011719 L 24.017578 53.011719 L 24.017578 49.011719 z M 20.017578 49.011719 L 20.017578 45.011719 L 16.017578 45.011719 L 16.017578 49.011719 L 20.017578 49.011719 z M 20.017578 45.011719 L 24.017578 45.011719 L 24.017578 41.011719 L 20.017578 41.011719 L 20.017578 45.011719 z M 20.017578 41.011719 L 20.017578 37.011719 L 16.017578 37.011719 L 16.017578 41.011719 L 20.017578 41.011719 z M 20.017578 37.011719 L 24.017578 37.011719 L 24.017578 33.011719 L 20.017578 33.011719 L 20.017578 37.011719 z M 20.017578 33.011719 L 20.017578 29.011719 L 16.017578 29.011719 L 16.017578 33.011719 L 20.017578 33.011719 z M 20.017578 29.011719 L 24.017578 29.011719 L 24.017578 25.011719 L 20.017578 25.011719 L 20.017578 29.011719 z M 20.017578 25.011719 L 20.017578 21.011719 L 16.017578 21.011719 L 16.017578 25.011719 L 20.017578 25.011719 z M 20.017578 21.011719 L 24.017578 21.011719 L 24.017578 17.011719 L 20.017578 17.011719 L 20.017578 21.011719 z M 20.017578 17.011719 L 20.017578 13.011719 L 16.017578 13.011719 L 16.017578 17.011719 L 20.017578 17.011719 z M 24.017578 21.011719 L 24.017578 25.011719 L 28.017578 25.011719 L 28.017578 21.011719 L 24.017578 21.011719 z M 28.017578 21.011719 L 32.017578 21.011719 L 32.017578 17.011719 L 28.017578 17.011719 L 28.017578 21.011719 z M 32.017578 21.011719 L 32.017578 25.011719 L 36.017578 25.011719 L 36.017578 21.011719 L 32.017578 21.011719 z M 36.017578 21.011719 L 40.017578 21.011719 L 40.017578 17.011719 L 36.017578 17.011719 L 36.017578 21.011719 z M 36.017578 25.011719 L 36.017578 29.011719 L 40.017578 29.011719 L 40.017578 25.011719 L 36.017578 25.011719 z M 36.017578 29.011719 L 32.017578 29.011719 L 32.017578 33.011719 L 36.017578 33.011719 L 36.017578 29.011719 z M 36.017578 33.011719 L 36.017578 37.011719 L 40.017578 37.011719 L 40.017578 33.011719 L 36.017578 33.011719 z M 36.017578 37.011719 L 32.017578 37.011719 L 32.017578 41.011719 L 36.017578 41.011719 L 36.017578 37.011719 z M 36.017578 41.011719 L 36.017578 45.011719 L 40.017578 45.011719 L 40.017578 41.011719 L 36.017578 41.011719 z M 32.017578 41.011719 L 28.017578 41.011719 L 28.017578 45.011719 L 32.017578 45.011719 L 32.017578 41.011719 z M 28.017578 41.011719 L 28.017578 37.011719 L 24.017578 37.011719 L 24.017578 41.011719 L 28.017578 41.011719 z M 28.017578 37.011719 L 32.017578 37.011719 L 32.017578 33.011719 L 28.017578 33.011719 L 28.017578 37.011719 z M 28.017578 33.011719 L 28.017578 29.011719 L 24.017578 29.011719 L 24.017578 33.011719 L 28.017578 33.011719 z M 28.017578 29.011719 L 32.017578 29.011719 L 32.017578 25.011719 L 28.017578 25.011719 L 28.017578 29.011719 z "
     style="color:#000000;display:inline;overflow:visible;visibility:visible;opacity:0.3;fill:#ffffff;fill-opacity:1;fill-rule:nonzero;stroke:none;stroke-width:0.98542744;marker:none;enable-background:accumulate" />
  <path
     id="rect3137-6-5-5"
     d="M 20.017578 8.0117188 L 20.017578 12.011719 L 24.017578 12.011719 L 24.017578 8.0117188 L 20.017578 8.0117188 z M 24.017578 12.011719 L 24.017578 16.011719 L 28.017578 16.011719 L 28.017578 12.011719 L 24.017578 12.011719 z M 28.017578 12.011719 L 32.017578 12.011719 L 32.017578 8.0117188 L 28.017578 8.0117188 L 28.017578 12.011719 z M 32.017578 12.011719 L 32.017578 16.011719 L 36.017578 16.011719 L 36.017578 12.011719 L 32.017578 12.011719 z M 36.017578 12.011719 L 40.017578 12.011719 L 40.017578 8.0117188 L 36.017578 8.0117188 L 36.017578 12.011719 z M 40.017578 12.011719 L 40.017578 16.011719 L 44.017578 16.011719 L 44.017578 12.011719 L 40.017578 12.011719 z M 44.017578 12.011719 L 48.017578 12.011719 L 48.017578 8.0117188 L 44.017578 8.0117188 L 44.017578 12.011719 z M 44.017578 16.011719 L 44.017578 20.011719 L 48.017578 20.011719 L 48.017578 16.011719 L 44.017578 16.011719 z M 44.017578 20.011719 L 40.017578 20.011719 L 40.017578 24.011719 L 44.017578 24.011719 L 44.017578 20.011719 z M 44.017578 24.011719 L 44.017578 28.011719 L 48.017578 28.011719 L 48.017578 24.011719 L 44.017578 24.011719 z M 44.017578 28.011719 L 40.017578 28.011719 L 40.017578 32.011719 L 44.017578 32.011719 L 44.017578 28.011719 z M 44.017578 32.011719 L 44.017578 36.011719 L 48.017578 36.011719 L 48.017578 32.011719 L 44.017578 32.011719 z M 44.017578 36.011719 L 40.017578 36.011719 L 40.017578 40.011719 L 44.017578 40.011719 L 44.017578 36.011719 z M 44.017578 40.011719 L 44.017578 44.011719 L 48.017578 44.011719 L 48.017578 40.011719 L 44.017578 40.011719 z M 44.017578 44.011719 L 40.017578 44.011719 L 40.017578 48.011719 L 44.017578 48.011719 L 44.017578 44.011719 z M 44.017578 48.011719 L 44.017578 52.011719 L 48.017578 52.011719 L 48.017578 48.011719 L 44.017578 48.011719 z M 40.017578 48.011719 L 36.017578 48.011719 L 36.017578 52.011719 L 40.017578 52.011719 L 40.017578 48.011719 z M 36.017578 48.011719 L 36.017578 44.011719 L 32.017578 44.011719 L 32.017578 48.011719 L 36.017578 48.011719 z M 32.017578 48.011719 L 28.017578 48.011719 L 28.017578 52.011719 L 32.017578 52.011719 L 32.017578 48.011719 z M 28.017578 48.011719 L 28.017578 44.011719 L 24.017578 44.011719 L 24.017578 48.011719 L 28.017578 48.011719 z M 24.017578 48.011719 L 20.017578 48.011719 L 20.017578 52.011719 L 24.017578 52.011719 L 24.017578 48.011719 z M 20.017578 48.011719 L 20.017578 44.011719 L 16.017578 44.011719 L 16.017578 48.011719 L 20.017578 48.011719 z M 20.017578 44.011719 L 24.017578 44.011719 L 24.017578 40.011719 L 20.017578 40.011719 L 20.017578 44.011719 z M 20.017578 40.011719 L 20.017578 36.011719 L 16.017578 36.011719 L 16.017578 40.011719 L 20.017578 40.011719 z M 20.017578 36.011719 L 24.017578 36.011719 L 24.017578 32.011719 L 20.017578 32.011719 L 20.017578 36.011719 z M 20.017578 32.011719 L 20.017578 28.011719 L 16.017578 28.011719 L 16.017578 32.011719 L 20.017578 32.011719 z M 20.017578 28.011719 L 24.017578 28.011719 L 24.017578 24.011719 L 20.017578 24.011719 L 20.017578 28.011719 z M 20.017578 24.011719 L 20.017578 20.011719 L 16.017578 20.011719 L 16.017578 24.011719 L 20.017578 24.011719 z M 20.017578 20.011719 L 24.017578 20.011719 L 24.017578 16.011719 L 20.017578 16.011719 L 20.017578 20.011719 z M 20.017578 16.011719 L 20.017578 12.011719 L 16.017578 12.011719 L 16.017578 16.011719 L 20.017578 16.011719 z M 24.017578 20.011719 L 24.017578 24.011719 L 28.017578 24.011719 L 28.017578 20.011719 L 24.017578 20.011719 z M 28.017578 20.011719 L 32.017578 20.011719 L 32.017578 16.011719 L 28.017578 16.011719 L 28.017578 20.011719 z M 32.017578 20.011719 L 32.017578 24.011719 L 36.017578 24.011719 L 36.017578 20.011719 L 32.017578 20.011719 z M 36.017578 20.011719 L 40.017578 20.011719 L 40.017578 16.011719 L 36.017578 16.011719 L 36.017578 20.011719 z M 36.017578 24.011719 L 36.017578 28.011719 L 40.017578 28.011719 L 40.017578 24.011719 L 36.017578 24.011719 z M 36.017578 28.011719 L 32.017578 28.011719 L 32.017578 32.011719 L 36.017578 32.011719 L 36.017578 28.011719 z M 36.017578 32.011719 L 36.017578 36.011719 L 40.017578 36.011719 L 40.017578 32.011719 L 36.017578 32.011719 z M 36.017578 36.011719 L 32.017578 36.011719 L 32.017578 40.011719 L 36.017578 40.011719 L 36.017578 36.011719 z M 36.017578 40.011719 L 36.017578 44.011719 L 40.017578 44.011719 L 40.017578 40.011719 L 36.017578 40.011719 z M 32.017578 40.011719 L 28.017578 40.011719 L 28.017578 44.011719 L 32.017578 44.011719 L 32.017578 40.011719 z M 28.017578 40.011719 L 28.017578 36.011719 L 24.017578 36.011719 L 24.017578 40.011719 L 28.017578 40.011719 z M 28.017578 36.011719 L 32.017578 36.011719 L 32.017578 32.011719 L 28.017578 32.011719 L 28.017578 36.011719 z M 28.017578 32.011719 L 28.017578 28.011719 L 24.017578 28.011719 L 24.017578 32.011719 L 28.017578 32.011719 z M 28.017578 28.011719 L 32.017578 28.011719 L 32.017578 24.011719 L 28.017578 24.011719 L 28.017578 28.011719 z "
     style="color:#000000;display:inline;overflow:visible;visibility:visible;opacity:0.2;fill:#000000;fill-opacity:1;fill-rule:nonzero;stroke:none;stroke-width:0.98542744;marker:none;enable-background:accumulate" />
</svg>
