<svg xmlns="http://www.w3.org/2000/svg" xmlns:xlink="http://www.w3.org/1999/xlink" viewBox="0 0 64 64"><defs><radialGradient cx="605.714" cy="486.648" r="117.143" fx="605.714" fy="486.648" id="i" xlink:href="#a" gradientUnits="userSpaceOnUse" gradientTransform="matrix(.03133 0 0 .0206 35.22 1037.814)"/><linearGradient id="a"><stop offset="0"/><stop offset="1" stop-opacity="0"/></linearGradient><radialGradient cx="605.714" cy="486.648" r="117.143" fx="605.714" fy="486.648" id="h" xlink:href="#a" gradientUnits="userSpaceOnUse" gradientTransform="matrix(-.03133 0 0 .0206 28.78 1037.814)"/><linearGradient id="b"><stop offset="0" stop-opacity="0"/><stop offset=".5"/><stop offset="1" stop-opacity="0"/></linearGradient><linearGradient x1="302.857" y1="366.648" x2="302.857" y2="609.505" id="g" xlink:href="#b" gradientUnits="userSpaceOnUse" gradientTransform="matrix(.09154 0 0 .0206 -1.085 1037.814)"/><linearGradient id="e"><stop offset="0" stop-color="#a0a0a0"/><stop offset="1" stop-color="#bebebe"/></linearGradient><linearGradient id="d"><stop offset="0" stop-color="#f4f4f4"/><stop offset="1" stop-color="#dbdbdb"/></linearGradient><linearGradient id="c"><stop offset="0" stop-color="#fff"/><stop offset=".036" stop-color="#fff" stop-opacity=".235"/><stop offset=".951" stop-color="#fff" stop-opacity=".157"/><stop offset="1" stop-color="#fff" stop-opacity=".392"/></linearGradient><linearGradient x1="24" y1="5.564" x2="24" y2="43" id="l" xlink:href="#c" gradientUnits="userSpaceOnUse" gradientTransform="matrix(1.21622 0 0 1.54054 2.81 981.39)"/><linearGradient x1="25.132" y1=".985" x2="25.132" y2="47.013" id="j" xlink:href="#d" gradientUnits="userSpaceOnUse" gradientTransform="matrix(1.34286 0 0 1.28197 -.23 985.628)"/><linearGradient x1="-51.786" y1="50.786" x2="-51.786" y2="2.906" id="k" xlink:href="#e" gradientUnits="userSpaceOnUse" gradientTransform="matrix(1.08435 0 0 1.19973 79.55 984.2)"/><linearGradient x1="38.856" y1="14.907" x2="38.856" y2="38.881" id="o" xlink:href="#f" gradientUnits="userSpaceOnUse" gradientTransform="matrix(1 0 0 -1 0 1050.38)"/><linearGradient id="f"><stop offset="0"/><stop offset="1" stop-opacity="0"/></linearGradient><linearGradient x1="38.856" y1="14.907" x2="38.856" y2="49.2" id="n" xlink:href="#f" gradientUnits="userSpaceOnUse" gradientTransform="translate(0 986.362)"/><linearGradient x1="32" y1="3.964" x2="32" y2="59.57" id="m" xlink:href="#e" gradientUnits="userSpaceOnUse" gradientTransform="rotate(180 32 525.18)"/></defs><path opacity=".3" fill="url(#g)" overflow="visible" d="M9.9 1045.362h44.2v5H9.9z" transform="translate(0 -988.362)"/><path d="M9.9 1045.362v5c-1.613.01-3.9-1.12-3.9-2.5s1.8-2.5 3.9-2.5z" opacity=".3" fill="url(#h)" overflow="visible" transform="translate(0 -988.362)"/><path d="M54.1 1045.362v5c1.613.01 3.9-1.12 3.9-2.5s-1.8-2.5-3.9-2.5z" opacity=".3" fill="url(#i)" overflow="visible" transform="translate(0 -988.362)"/><path d="M8.5 988.862l47 .004v58.996h-47v-59z" fill="url(#j)" stroke="url(#k)" stroke-linejoin="round" transform="translate(0 -988.362)"/><path d="M54.5 1046.862h-45v-57h45z" fill="none" stroke="url(#l)" stroke-linecap="round" transform="translate(0 -988.362)"/><path d="M30 14c-.554 0-1 .446-1 1v3.344a12.9 12.9 0 0 0-3.813 1.594l-2.375-2.375a.988.988 0 0 0-1.406 0l-2.843 2.843a.988.988 0 0 0 0 1.407l2.375 2.375A12.9 12.9 0 0 0 19.343 28H16c-.554 0-1 .446-1 1v4c0 .554.446 1 1 1h3.344a12.93 12.93 0 0 0 1.593 3.813l-2.375 2.375a.988.988 0 0 0 0 1.406l2.844 2.844a.988.988 0 0 0 1.407 0l2.375-2.375A12.927 12.927 0 0 0 29 43.656V47c0 .554.446 1 1 1h4c.554 0 1-.446 1-1v-3.344a12.903 12.903 0 0 0 3.813-1.593l2.374 2.375a.988.988 0 0 0 1.407 0l2.843-2.844a.988.988 0 0 0 0-1.406l-2.374-2.375A12.903 12.903 0 0 0 44.656 34H48c.554 0 1-.446 1-1v-4c0-.554-.446-1-1-1h-3.344a12.928 12.928 0 0 0-1.593-3.812l2.374-2.375a.988.988 0 0 0 0-1.407l-2.843-2.843a.988.988 0 0 0-1.407 0l-2.374 2.375A12.93 12.93 0 0 0 35 18.344V15c0-.554-.446-1-1-1h-4zm2 11c3.312 0 6 2.688 6 6s-2.688 6-6 6-6-2.688-6-6 2.688-6 6-6z" opacity=".6" fill="#fff" overflow="visible"/><path d="M34 1035.362c.554 0 1-.446 1-1v-3.344a12.903 12.903 0 0 0 3.813-1.593l2.374 2.375a.988.988 0 0 0 1.407 0l2.843-2.844a.988.988 0 0 0 0-1.406l-2.374-2.375a12.903 12.903 0 0 0 1.593-3.813H48c.554 0 1-.446 1-1v-4c0-.554-.446-1-1-1h-3.344a12.928 12.928 0 0 0-1.593-3.812l2.374-2.375a.988.988 0 0 0 0-1.407l-2.843-2.843a.988.988 0 0 0-1.407 0l-2.374 2.375a12.93 12.93 0 0 0-3.813-1.594v-3.344c0-.554-.446-1-1-1h-4c-.554 0-1 .446-1 1v3.344a12.9 12.9 0 0 0-3.813 1.594l-2.375-2.375a.988.988 0 0 0-1.406 0l-2.843 2.843a.988.988 0 0 0 0 1.407l2.375 2.375a12.9 12.9 0 0 0-1.594 3.812H16c-.554 0-1 .446-1 1v4c0 .554.446 1 1 1h3.344a12.93 12.93 0 0 0 1.593 3.813l-2.375 2.375a.988.988 0 0 0 0 1.406l2.844 2.844a.988.988 0 0 0 1.407 0l2.375-2.375a12.927 12.927 0 0 0 3.812 1.593v3.344c0 .554.446 1 1 1h4zm-2-11c-3.312 0-6-2.688-6-6s2.688-6 6-6 6 2.688 6 6-2.688 6-6 6z" fill="url(#m)" overflow="visible" transform="translate(0 -988.362)"/><path d="M30 1001.893c-.805.223-.35 1.282-.47 1.91-.08.74.163 1.56-.12 2.253-.947.52-2.146.608-3.082 1.225-.474.26-1.2.93-1.65.26-.806-.77-1.554-1.61-2.396-2.34-.705-.04-1.06.81-1.587 1.195-.614.644-1.295 1.23-1.864 1.913-.04.705.81 1.06 1.2 1.587.45.56 1.18.95 1.45 1.62-.29 1.032-1.09 1.925-1.323 3.012-.17.517-.197 1.524-.996 1.374-1.11.023-2.23-.047-3.337.036-.534.47-.182 1.322-.284 1.968.023.883-.046 1.774.036 2.65.47.534 1.32.18 1.97.284.705.08 1.494-.16 2.154.123.52.947.61 2.146 1.224 3.08.256.47.92 1.2.258 1.65-.773.805-1.616 1.55-2.345 2.395-.04.706.81 1.06 1.194 1.588.645.615 1.23 1.296 1.914 1.865.704.04 1.06-.808 1.586-1.19.56-.45.95-1.18 1.62-1.452 1.034.29 1.927 1.093 3.014 1.327.515.17 1.52.198 1.37.997.025 1.11-.044 2.23.038 3.334.47.533 1.324.18 1.97.283.88-.023 1.773.046 2.65-.036.533-.47.18-1.32.283-1.97.076-.704-.164-1.493.12-2.153.945-.524 2.144-.61 3.08-1.228.474-.257 1.2-.92 1.65-.26.806.775 1.554 1.618 2.396 2.347.706.04 1.06-.81 1.588-1.19.614-.65 1.295-1.236 1.864-1.917.04-.704-.81-1.06-1.194-1.585-.45-.563-1.178-.955-1.452-1.624.293-1.033 1.095-1.925 1.33-3.013.17-.516.196-1.52.995-1.37 1.11-.025 2.23.045 3.337-.038.534-.47.182-1.324.284-1.97-.023-.88.046-1.77-.036-2.65-.47-.533-1.325-.18-1.97-.283-.71-.08-1.498.16-2.158-.12-.522-.947-.61-2.146-1.226-3.082-.26-.475-.92-1.2-.26-1.65.773-.807 1.616-1.555 2.345-2.397.04-.705-.81-1.06-1.193-1.587-.644-.613-1.232-1.294-1.913-1.863-.707-.04-1.06.81-1.588 1.19-.56.45-.953 1.178-1.622 1.45-1.032-.29-1.925-1.092-3.012-1.325-.518-.17-1.52-.196-1.37-.995-.028-1.11.04-2.23-.04-3.337-.47-.533-1.324-.18-1.97-.283H30z" opacity=".1" fill="none" stroke="url(#n)" overflow="visible" transform="translate(0 -988.362)"/><path d="M32 1024.912c3.736.112 6.99-3.493 6.497-7.2-.272-3.72-4.178-6.59-7.812-5.73-3.673.647-6.137 4.81-4.922 8.34.8 2.677 3.44 4.63 6.237 4.59z" opacity=".1" fill="none" stroke="url(#o)" overflow="visible" transform="translate(0 -988.362)"/></svg>