<svg xmlns="http://www.w3.org/2000/svg" xmlns:xlink="http://www.w3.org/1999/xlink" viewBox="0 0 64 64"><defs><linearGradient id="d"><stop offset="0" stop-color="#fff"/><stop offset=".027" stop-color="#fff" stop-opacity=".235"/><stop offset=".974" stop-color="#fff" stop-opacity=".157"/><stop offset="1" stop-color="#fff" stop-opacity=".392"/></linearGradient><linearGradient id="e"><stop offset="0" stop-color="#5f5f5f"/><stop offset=".262" stop-color="#4f4f4f"/><stop offset=".705" stop-color="#3b3b3b"/><stop offset="1" stop-color="#2b2b2b"/></linearGradient><linearGradient id="f"><stop offset="0" stop-color="#272727"/><stop offset="1" stop-color="#454545"/></linearGradient><linearGradient id="i"><stop offset="0" stop-color="#eee"/><stop offset="1" stop-color="#d9d9da"/></linearGradient><linearGradient id="j"><stop offset="0" stop-color="#272727"/><stop offset="1" stop-color="#454545"/></linearGradient><radialGradient cx="4.993" cy="43.5" r="2.5" fx="4.993" fy="43.5" id="k" xlink:href="#a" gradientUnits="userSpaceOnUse" gradientTransform="matrix(2.00378 0 0 1.4 27.988 -17.4)"/><linearGradient id="a"><stop offset="0" stop-color="#181818"/><stop offset="1" stop-color="#181818" stop-opacity="0"/></linearGradient><radialGradient cx="4.993" cy="43.5" r="2.5" fx="4.993" fy="43.5" id="l" xlink:href="#b" gradientUnits="userSpaceOnUse" gradientTransform="matrix(2.00378 0 0 1.4 -20.012 -104.4)"/><linearGradient id="b"><stop offset="0" stop-color="#181818"/><stop offset="1" stop-color="#181818" stop-opacity="0"/></linearGradient><linearGradient x1="25.058" y1="47.028" x2="25.058" y2="39.999" id="m" xlink:href="#c" gradientUnits="userSpaceOnUse"/><linearGradient id="c"><stop offset="0" stop-color="#181818" stop-opacity="0"/><stop offset=".5" stop-color="#181818"/><stop offset="1" stop-color="#181818" stop-opacity="0"/></linearGradient><linearGradient id="g"><stop offset="0" stop-color="#ffbc5c"/><stop offset="1" stop-color="#d17b01"/></linearGradient><linearGradient id="h"><stop offset="0" stop-color="#bf8a3e"/><stop offset="1" stop-color="#784700"/></linearGradient><linearGradient xlink:href="#d" id="v" gradientUnits="userSpaceOnUse" gradientTransform="matrix(1.21622 0 0 1.43243 2.81 -2.378)" x1="24" y1="5" x2="24" y2="43"/><radialGradient xlink:href="#e" id="t" gradientUnits="userSpaceOnUse" gradientTransform="matrix(0 3.29576 -3.46116 0 65.046 -19.382)" cx="7.496" cy="8.45" fx="7.496" fy="8.45" r="20"/><linearGradient xlink:href="#f" id="u" gradientUnits="userSpaceOnUse" gradientTransform="matrix(1.4 0 0 1.41026 2.2 -1.846)" x1="24" y1="44" x2="24" y2="3.899"/><radialGradient xlink:href="#g" id="r" gradientUnits="userSpaceOnUse" gradientTransform="matrix(0 2.8186 -3.35833 0 61.236 -87.537)" cx="32.5" cy="8.557" fx="32.5" fy="8.557" r="23.5"/><linearGradient xlink:href="#h" id="s" gradientUnits="userSpaceOnUse" gradientTransform="matrix(.94825 0 0 .98895 2.156 -.366)" x1="32.256" y1="4.683" x2="32.256" y2="60.876"/><linearGradient xlink:href="#i" id="p" gradientUnits="userSpaceOnUse" gradientTransform="matrix(1.4 0 0 1.25 -.6 -.125)" x1="10.654" y1="1" x2="10.654" y2="3"/><linearGradient xlink:href="#j" id="q" gradientUnits="userSpaceOnUse" gradientTransform="matrix(1.4 0 0 .1282 2.2 -.077)" x1="24" y1="44" x2="24" y2="3.899"/><linearGradient xlink:href="#i" id="n" gradientUnits="userSpaceOnUse" gradientTransform="matrix(1.3485 0 0 2.04184 1.285 -5.518)" x1="24.627" y1="3.123" x2="24.64" y2="4.883"/><linearGradient xlink:href="#h" id="o" gradientUnits="userSpaceOnUse" gradientTransform="matrix(.962 0 0 .99188 2.535 -.224)" x1="5.212" y1=".065" x2="54.887" y2=".065"/></defs><g opacity=".4"><path fill="url(#k)" d="M38 40h5v7h-5z" transform="matrix(1.42105 0 0 .7143 -2.105 28.43)"/><path transform="matrix(-1.42105 0 0 -.7143 -2.105 28.43)" fill="url(#l)" d="M-10-47h5v7h-5z"/><path fill="url(#m)" d="M10 40h28v7H10z" transform="matrix(1.42105 0 0 .7143 -2.105 28.43)"/></g><path d="M54.49 4.116c-.395-1.316-.148-2.352-.367-3.607H13.51l.238 3.98" fill="url(#n)" stroke="url(#o)" stroke-width="1.017" stroke-linejoin="round" stroke-miterlimit="0"/><path d="M15.5 5.5H9.9c-.8 0-1.4-.053-1.4-.122V1.883C8.5.773 9.283.5 10.308.5H15.5" color="#000" fill="url(#p)" stroke="url(#q)" stroke-linecap="round" stroke-linejoin="round" overflow="visible"/><rect y="4.51" x="9.51" ry="1" rx="1" height="54.981" width="45.981" fill="url(#r)" stroke="url(#s)" stroke-width="1.019" stroke-linecap="round" stroke-linejoin="round" stroke-miterlimit="0"/><path d="M15.5 4.5v55H9.9c-.8 0-1.4-.582-1.4-1.34V4.5z" color="#000" fill="url(#t)" stroke="url(#u)" stroke-linecap="round" stroke-linejoin="round" overflow="visible"/><path opacity=".5" fill="none" stroke="url(#v)" stroke-linecap="round" stroke-linejoin="round" d="M9.5 5.5h45v53h-45z"/><path d="M29.08 13.953c-1.46 0-2.34.053-2.873.19-1.092.283-1.786.933-2.09 1.968-.084.29-.093.68-.12 2.74l-.036 2.12-.76.02-.52.036v1.897c-.01 1.337-.01 1.93.036 1.985.045.055.03.077.54.088l.714.017.017 13.09c.01 7.04.02 12.825.037 12.864.02.055.55.08 2.49.07l2.454-.02.034-12.86.034-13.145.713-.02c.51-.012.432-.033.48-.087.04-.055.06-.65.05-1.987l-.02-1.897-.48-.036-.75-.016-.015-.747c-.016-1.03.044-1.59.19-1.88.12-.23.378-.344.89-.382l.165-.035.016-1.914c.01-1.36-.006-1.93-.05-1.986-.052-.06-.06-.07-1.14-.07z" opacity=".2"/><path d="M29 13c-1.46 0-2.26.007-2.793.144-1.092.282-1.786.932-2.09 1.967-.084.29-.093.68-.12 2.74l-.036 2.12-.76.02-.52.036v1.897c-.01 1.337-.01 1.93.036 1.985.045.055.03.077.54.088l.714.017.017 13.09c.01 7.04.02 12.825.037 12.864.02.055.55.08 2.49.07l2.454-.02.034-12.86.034-13.145.713-.02c.51-.01.432-.033.48-.087.04-.055.06-.65.05-1.987l-.02-1.897-.48-.036-.75-.016-.015-.747c-.016-1.03.044-1.59.19-1.88.12-.23.378-.343.89-.382l.177.005.008-1.954a67.25 67.25 0 0 0-.007-2.005H29z" fill="#fff"/><path d="M35.38 13.937c-1.975 0-2.246.017-2.32.094-.078.08-.06 1.33-.06 17.97 0 14.23-.02 18.92.03 18.97.093.1 4.67.1 4.763 0 .044-.04.06-.3.06-.81 0-.59.033-.75.09-.75.04 0 .203.16.362.35.603.72 1.443 1.31 2.23 1.53.468.132 1.497.115 2.02-.03 1.18-.327 2.04-1.146 2.355-2.344.09-.344.09-1.09.09-12.75s0-12.405-.09-12.75c-.328-1.25-1.316-2.134-2.565-2.406-.554-.12-1.625-.064-2.05.094-.75.278-1.453.796-2.02 1.5-.188.233-.34.406-.362.406-.023 0-.06-1.978-.06-4.438 0-4.363.012-4.505-.09-4.562-.068-.037-.933-.062-2.382-.062zm4.62 12.5c0 .574.154 18.788.084 19.344-.03.23-.11.56-.18.72-.11.25-.178.35-.423.47a1.12 1.12 0 0 1-.87.06c-.26-.08-.42-.21-.57-.53l-.15-.31v-9.91c-.01-6.78.03-9.64.03-9.84 0-1.85 2.09-1.902 2.09 0z" opacity=".2"/><path d="M33 13v19c0 14.225-.02 17.917.03 17.97.093.096 4.67.096 4.763 0 .044-.047.06-.307.06-.814 0-.59.033-.75.09-.75.04 0 .203.154.362.344.603.718 1.443 1.31 2.23 1.53.468.132 1.497.115 2.02-.03 1.18-.327 2.04-1.146 2.355-2.344.09-.344.09-1.09.09-12.75s0-12.405-.09-12.75c-.328-1.25-1.316-2.134-2.565-2.406-.554-.12-1.625-.064-2.05.094-.75.278-1.453.562-2.02 1.265-.188.23-.335.18-.275.64.003.02 0-1.98 0-4.44 0-4.37.004-4.56.004-4.56zm7 12.438c-.003.53.07 18.787 0 19.343-.028.23-.026.56-.097.72-.11.25-.177.35-.422.47a1.12 1.12 0 0 1-.87.06c-.26-.08-.42-.21-.57-.53l-.15-.31v-9.9c-.01-6.787.03-9.965.03-10.154.008-1.473 2.1-1.597 2.09.313z" fill="#fff"/></svg>