<?xml version="1.0" encoding="UTF-8" standalone="no"?>
<!-- Created with Inkscape (http://www.inkscape.org/) -->

<svg
   xmlns:dc="http://purl.org/dc/elements/1.1/"
   xmlns:cc="http://creativecommons.org/ns#"
   xmlns:rdf="http://www.w3.org/1999/02/22-rdf-syntax-ns#"
   xmlns:svg="http://www.w3.org/2000/svg"
   xmlns="http://www.w3.org/2000/svg"
   xmlns:xlink="http://www.w3.org/1999/xlink"
   xmlns:sodipodi="http://sodipodi.sourceforge.net/DTD/sodipodi-0.dtd"
   xmlns:inkscape="http://www.inkscape.org/namespaces/inkscape"
   width="64px"
   height="64px"
   id="svg6443"
   version="1.1"
   inkscape:version="0.48.3.1 r9886"
   sodipodi:docname="audio-x-generic.svg">
  <defs
     id="defs6445">
    <linearGradient
       inkscape:collect="always"
       xlink:href="#linearGradient4791"
       id="linearGradient5510"
       gradientUnits="userSpaceOnUse"
       x1="33.38179"
       y1="41.766178"
       x2="33.38179"
       y2="54"
       gradientTransform="translate(0,-1.0004224)" />
    <linearGradient
       id="linearGradient4791">
      <stop
         id="stop4793"
         style="stop-color:#000000;stop-opacity:1"
         offset="0" />
      <stop
         id="stop4795"
         style="stop-color:#000000;stop-opacity:0"
         offset="1" />
    </linearGradient>
    <linearGradient
       inkscape:collect="always"
       xlink:href="#linearGradient8265-821-176-38-919-66-249-7-7"
       id="linearGradient5519"
       gradientUnits="userSpaceOnUse"
       gradientTransform="matrix(1.1723404,0,0,1.8434143,3.8089875,-5.529972)"
       x1="16.626165"
       y1="15.298182"
       x2="20.054544"
       y2="24.627615" />
    <linearGradient
       id="linearGradient8265-821-176-38-919-66-249-7-7">
      <stop
         id="stop2687-1-9"
         style="stop-color:#ffffff;stop-opacity:1"
         offset="0" />
      <stop
         id="stop2689-5-4"
         style="stop-color:#ffffff;stop-opacity:0"
         offset="1" />
    </linearGradient>
    <linearGradient
       inkscape:collect="always"
       xlink:href="#linearGradient3924-45"
       id="linearGradient5522"
       gradientUnits="userSpaceOnUse"
       gradientTransform="matrix(1.4324324,0,0,1.4362832,-2.3783747,-2.4707827)"
       x1="23.99999"
       y1="4.999989"
       x2="23.99999"
       y2="43" />
    <linearGradient
       id="linearGradient3924-45">
      <stop
         id="stop3124"
         style="stop-color:#ffffff;stop-opacity:1"
         offset="0" />
      <stop
         id="stop3126"
         style="stop-color:#ffffff;stop-opacity:0.23529412"
         offset="0.02414256" />
      <stop
         id="stop3128"
         style="stop-color:#ffffff;stop-opacity:0.15686275"
         offset="0.97110122" />
      <stop
         id="stop3130"
         style="stop-color:#ffffff;stop-opacity:0.39215687"
         offset="1" />
    </linearGradient>
    <radialGradient
       inkscape:collect="always"
       xlink:href="#linearGradient2867-449-88-871-390-598-476-591-434-148-57-177-641-289-620-227-114-444-680-744-4-9-395-147-5-846-960"
       id="radialGradient6338"
       gradientUnits="userSpaceOnUse"
       gradientTransform="matrix(2.7399124e-8,3.2957555,-3.4865164,-6.0720393e-8,61.460411,-19.382416)"
       cx="7.4956832"
       cy="8.4497671"
       fx="7.4956832"
       fy="8.4497671"
       r="19.99999" />
    <linearGradient
       id="linearGradient2867-449-88-871-390-598-476-591-434-148-57-177-641-289-620-227-114-444-680-744-4-9-395-147-5-846-960">
      <stop
         offset="0"
         style="stop-color:#3e3e3e;stop-opacity:1;"
         id="stop10602" />
      <stop
         offset="0.26238"
         style="stop-color:#343434;stop-opacity:1;"
         id="stop10604" />
      <stop
         offset="0.704952"
         style="stop-color:#272727;stop-opacity:1;"
         id="stop10606" />
      <stop
         offset="1"
         style="stop-color:#1d1d1d;stop-opacity:1;"
         id="stop10608" />
    </linearGradient>
    <radialGradient
       cx="4.9929786"
       cy="43.5"
       r="2.5"
       fx="4.9929786"
       fy="43.5"
       id="radialGradient2873-966-168-714"
       xlink:href="#linearGradient3688-166-749-654"
       gradientUnits="userSpaceOnUse"
       gradientTransform="matrix(2.003784,0,0,1.4,27.98813,-17.4)" />
    <linearGradient
       id="linearGradient3688-166-749-654">
      <stop
         id="stop3088"
         style="stop-color:#181818;stop-opacity:1"
         offset="0" />
      <stop
         id="stop3090"
         style="stop-color:#181818;stop-opacity:0"
         offset="1" />
    </linearGradient>
    <radialGradient
       cx="4.9929786"
       cy="43.5"
       r="2.5"
       fx="4.9929786"
       fy="43.5"
       id="radialGradient2875-742-326-419"
       xlink:href="#linearGradient3688-464-309-604"
       gradientUnits="userSpaceOnUse"
       gradientTransform="matrix(2.003784,0,0,1.4,-20.01187,-104.4)" />
    <linearGradient
       id="linearGradient3688-464-309-604">
      <stop
         id="stop3094"
         style="stop-color:#181818;stop-opacity:1"
         offset="0" />
      <stop
         id="stop3096"
         style="stop-color:#181818;stop-opacity:0"
         offset="1" />
    </linearGradient>
    <linearGradient
       x1="25.058096"
       y1="47.027729"
       x2="25.058096"
       y2="39.999443"
       id="linearGradient2877-634-617-908"
       xlink:href="#linearGradient3702-501-757-795"
       gradientUnits="userSpaceOnUse" />
    <linearGradient
       id="linearGradient3702-501-757-795">
      <stop
         id="stop3100"
         style="stop-color:#181818;stop-opacity:0"
         offset="0" />
      <stop
         id="stop3102"
         style="stop-color:#181818;stop-opacity:1"
         offset="0.5" />
      <stop
         id="stop3104"
         style="stop-color:#181818;stop-opacity:0"
         offset="1" />
    </linearGradient>
  </defs>
  <sodipodi:namedview
     id="base"
     pagecolor="#ffffff"
     bordercolor="#666666"
     borderopacity="1.0"
     inkscape:pageopacity="0.0"
     inkscape:pageshadow="2"
     inkscape:zoom="5.5"
     inkscape:cx="32"
     inkscape:cy="32"
     inkscape:current-layer="layer1"
     showgrid="true"
     inkscape:document-units="px"
     inkscape:grid-bbox="true"
     inkscape:window-width="1280"
     inkscape:window-height="752"
     inkscape:window-x="0"
     inkscape:window-y="26"
     inkscape:window-maximized="1" />
  <metadata
     id="metadata6448">
    <rdf:RDF>
      <cc:Work
         rdf:about="">
        <dc:format>image/svg+xml</dc:format>
        <dc:type
           rdf:resource="http://purl.org/dc/dcmitype/StillImage" />
        <dc:title></dc:title>
      </cc:Work>
    </rdf:RDF>
  </metadata>
  <g
     id="layer1"
     inkscape:label="Layer 1"
     inkscape:groupmode="layer">
    <g
       style="display:inline"
       id="g2036"
       transform="matrix(1.5000021,0,0,0.5555561,-4.0000114,35.888881)">
      <g
         style="opacity:0.4"
         id="g3712"
         transform="matrix(1.052632,0,0,1.285713,-1.263158,-13.42854)">
        <rect
           style="fill:url(#radialGradient2873-966-168-714);fill-opacity:1;stroke:none"
           id="rect2801"
           y="40"
           x="38"
           height="7"
           width="5" />
        <rect
           style="fill:url(#radialGradient2875-742-326-419);fill-opacity:1;stroke:none"
           id="rect3696"
           transform="scale(-1,-1)"
           y="-47"
           x="-10"
           height="7"
           width="5" />
        <rect
           style="fill:url(#linearGradient2877-634-617-908);fill-opacity:1;stroke:none"
           id="rect3700"
           y="40"
           x="10"
           height="7.0000005"
           width="28" />
      </g>
    </g>
    <rect
       style="color:#000000;fill:url(#radialGradient6338);fill-opacity:1;fill-rule:nonzero;stroke:none;stroke-width:0.99999994;marker:none;visibility:visible;display:inline;overflow:visible;enable-background:accumulate"
       id="rect5505-21-8"
       y="4.5000005"
       x="4.5"
       height="55"
       width="55" />
    <rect
       style="opacity:0.5;fill:none;stroke:url(#linearGradient5522);stroke-width:1;stroke-linecap:round;stroke-linejoin:miter;stroke-miterlimit:4;stroke-opacity:1;stroke-dasharray:none;stroke-dashoffset:0"
       id="rect6741"
       y="5.428761"
       x="5.5"
       height="53.142479"
       width="53" />
    <path
       style="opacity:0.1;fill:url(#linearGradient5519);fill-opacity:1;fill-rule:evenodd;stroke:none"
       id="path3333"
       inkscape:connector-curvature="0"
       d="M 5,5 5.017966,39 C 6.5714146,38.965765 57.820897,26.466881 59,25.865671 L 59,5 z" />
    <path
       style="opacity:0.1;color:#000000;fill:#ffffff;fill-opacity:1;fill-rule:nonzero;stroke:none;marker:none;visibility:visible;display:inline;overflow:visible;enable-background:accumulate"
       id="path7249-8-0-3-4"
       inkscape:connector-curvature="0"
       d="m 33.500729,9.9873842 c -1.310996,-0.1696929 -1.49383,1.0583118 -1.356921,2.0360748 -0.01241,9.732985 0.0248,19.474893 -0.01859,29.202307 -0.320421,0.33478 -0.935311,-0.215808 -1.343538,-0.07291 -4.44734,-0.27111 -9.306459,2.953788 -9.751065,7.607796 -0.52399,3.700212 3.385608,6.744662 6.871983,6.169162 4.392618,-0.466712 7.66086,-4.899351 7.088107,-9.276245 0.01241,-7.706335 -0.0248,-15.421598 0.01859,-23.122367 0.299436,-0.342951 0.910426,0.387242 1.225874,0.423064 3.532765,2.090339 6.657779,5.53738 6.868736,9.830079 0.23193,3.354326 -0.783586,6.636476 -1.926349,9.746131 3.828929,-4.713331 5.054657,-11.589144 2.393968,-17.156292 -1.360758,-3.23165 -4.430441,-5.223189 -6.147683,-8.224835 C 36.155672,15.143454 35.190508,12.904138 34.888532,10.53602 34.639906,10.0422 33.985009,9.9820673 33.500729,9.9873842 z" />
    <path
       style="opacity:0.55;color:#000000;fill:#000000;fill-opacity:1;fill-rule:nonzero;stroke:none;marker:none;visibility:visible;display:inline;overflow:visible;enable-background:accumulate"
       id="path7249-8-0-3"
       inkscape:connector-curvature="0"
       d="m 33.500729,9.0015206 c -1.525356,0 -1.491434,1.0085274 -1.491434,2.0360744 l -0.01859,29.202307 c -0.320421,0.33478 -0.800798,-0.215808 -1.209025,-0.07291 -4.44734,-0.27111 -9.306459,2.953788 -9.751065,7.607796 -0.52399,3.700212 3.385608,6.744662 6.871983,6.169162 4.392618,-0.466712 7.66086,-4.899351 7.088107,-9.276245 0.01241,-7.706335 -0.0248,-15.421598 0.01859,-23.122367 0.299436,-0.342951 0.910426,0.387242 1.225874,0.423064 3.532765,2.090339 6.657779,5.53738 6.868736,9.830079 0.23193,3.354326 -0.783586,6.636476 -1.926349,9.746131 3.828929,-4.713331 5.054657,-11.589144 2.393968,-17.156292 -1.360758,-3.23165 -4.430441,-5.223189 -6.147683,-8.224835 -1.268169,-2.005895 -2.233333,-4.245211 -2.535309,-6.6133284 -0.248626,-0.49382 -0.903523,-0.5539525 -1.387803,-0.548636 z" />
    <path
       style="opacity:0.1;fill:none;stroke:url(#linearGradient5510);stroke-opacity:1"
       id="path4788"
       inkscape:connector-curvature="0"
       d="m 33.5,9.4683276 c -1.490724,-0.0887 -0.925825,1.7275344 -1.03125,2.6860984 -0.0099,9.411784 0.01978,18.826905 -0.01481,28.236608 -0.761904,0.98508 -2.2184,-0.311073 -3.28918,0.290593 -4.067351,0.465463 -8.100153,4.047672 -7.661769,8.380511 0.567654,3.428945 4.704387,5.366655 7.827921,4.073426 3.405056,-1.179459 5.683197,-4.912263 5.200337,-8.479736 0.03953,-7.767897 -0.09815,-15.551239 0.04109,-23.309567 0.780901,-0.956996 1.792911,0.314073 2.602065,0.634602 3.687839,2.309223 6.628866,6.355535 6.418241,10.855019 -0.01902,1.872107 -0.425562,3.714518 -0.936395,5.507446 2.719454,-5.193422 2.51778,-12.07042 -1.351894,-16.640757 -2.115781,-2.340964 -4.272088,-4.718174 -5.560892,-7.639426 -0.632393,-1.35657 -1.098283,-2.79762 -1.305964,-4.2823174 -0.193446,-0.298182 -0.62837,-0.279848 -0.9375,-0.3125 z" />
    <rect
       style="opacity:0.7;color:#000000;fill:none;stroke:#000000;stroke-width:0.99999994;stroke-opacity:1;marker:none;visibility:visible;display:inline;overflow:visible;enable-background:accumulate"
       id="rect5505-21-8-6"
       y="4.5"
       x="4.5"
       height="55"
       width="55" />
  </g>
</svg>
