<?xml version="1.0" encoding="UTF-8" standalone="no"?>
<!-- Created with Inkscape (http://www.inkscape.org/) -->

<svg
   xmlns:dc="http://purl.org/dc/elements/1.1/"
   xmlns:cc="http://creativecommons.org/ns#"
   xmlns:rdf="http://www.w3.org/1999/02/22-rdf-syntax-ns#"
   xmlns:svg="http://www.w3.org/2000/svg"
   xmlns="http://www.w3.org/2000/svg"
   xmlns:xlink="http://www.w3.org/1999/xlink"
   version="1.1"
   width="64"
   height="64"
   id="svg4035">
  <defs
     id="defs4037">
    <linearGradient
       x1="8.3773117"
       y1="5.8466182"
       x2="8.3773117"
       y2="42.136902"
       id="linearGradient3144"
       xlink:href="#linearGradient3977-6"
       gradientUnits="userSpaceOnUse"
       gradientTransform="matrix(1.1977214,0,0,1.5405405,2.9125389,-6.9729588)" />
    <linearGradient
       id="linearGradient3977-6">
      <stop
         id="stop3979-9"
         style="stop-color:#ffffff;stop-opacity:1"
         offset="0" />
      <stop
         id="stop3981-3"
         style="stop-color:#ffffff;stop-opacity:0.23529412"
         offset="0.0048102" />
      <stop
         id="stop3983-7"
         style="stop-color:#ffffff;stop-opacity:0.15686275"
         offset="0.99380541" />
      <stop
         id="stop3985-4"
         style="stop-color:#ffffff;stop-opacity:0.39215687"
         offset="1" />
    </linearGradient>
    <linearGradient
       x1="22.004084"
       y1="47.813133"
       x2="22.004084"
       y2="3.3638515"
       id="linearGradient3147"
       xlink:href="#linearGradient3104-4"
       gradientUnits="userSpaceOnUse"
       gradientTransform="matrix(1.3428568,0,0,1.3407391,2.4811989,-4.203781)" />
    <linearGradient
       id="linearGradient3104-4">
      <stop
         id="stop3106-7"
         style="stop-color:#aaaaaa;stop-opacity:1"
         offset="0" />
      <stop
         id="stop3108-6"
         style="stop-color:#c8c8c8;stop-opacity:1"
         offset="1" />
    </linearGradient>
    <radialGradient
       cx="7.8060555"
       cy="9.9571075"
       r="12.671875"
       fx="7.2758255"
       fy="9.9571075"
       id="radialGradient3150"
       xlink:href="#linearGradient2867-449-88-871-390-598-476-591-434-148-57-177-8"
       gradientUnits="userSpaceOnUse"
       gradientTransform="matrix(-2.1710384e-7,8.8544529,-10.866682,-2.6578684e-7,140.17979,-80.747231)" />
    <linearGradient
       id="linearGradient2867-449-88-871-390-598-476-591-434-148-57-177-8">
      <stop
         id="stop3750-1"
         style="stop-color:#90dbec;stop-opacity:1"
         offset="0" />
      <stop
         id="stop3752-3"
         style="stop-color:#55c1ec;stop-opacity:1"
         offset="0.26238" />
      <stop
         id="stop3754-1"
         style="stop-color:#3689e6;stop-opacity:1"
         offset="0.704952" />
      <stop
         id="stop3756-1"
         style="stop-color:#2b63a0;stop-opacity:1"
         offset="1" />
    </linearGradient>
    <linearGradient
       x1="23.99999"
       y1="5.8641062"
       x2="23.99999"
       y2="42.100208"
       id="linearGradient3171"
       xlink:href="#linearGradient3977-4"
       gradientUnits="userSpaceOnUse"
       gradientTransform="matrix(1.2162162,0,0,1.5405376,2.8108184,-6.9729503)" />
    <linearGradient
       id="linearGradient3977-4">
      <stop
         id="stop3979-7"
         style="stop-color:#ffffff;stop-opacity:1"
         offset="0" />
      <stop
         id="stop3981-6"
         style="stop-color:#ffffff;stop-opacity:0.23529412"
         offset="0.01214366" />
      <stop
         id="stop3983-5"
         style="stop-color:#ffffff;stop-opacity:0.15686275"
         offset="0.98781353" />
      <stop
         id="stop3985-6"
         style="stop-color:#ffffff;stop-opacity:0.39215687"
         offset="1" />
    </linearGradient>
    <linearGradient
       x1="25.132275"
       y1="0.98520643"
       x2="25.132275"
       y2="47.013336"
       id="linearGradient3156"
       xlink:href="#linearGradient3600"
       gradientUnits="userSpaceOnUse"
       gradientTransform="matrix(1.3428568,0,0,1.2819738,-0.2285591,-2.734064)" />
    <linearGradient
       id="linearGradient3600">
      <stop
         id="stop3602"
         style="stop-color:#f4f4f4;stop-opacity:1"
         offset="0" />
      <stop
         id="stop3604"
         style="stop-color:#dbdbdb;stop-opacity:1"
         offset="1" />
    </linearGradient>
    <radialGradient
       cx="605.71429"
       cy="486.64789"
       r="117.14286"
       fx="605.71429"
       fy="486.64789"
       id="radialGradient3177"
       xlink:href="#linearGradient5060"
       gradientUnits="userSpaceOnUse"
       gradientTransform="matrix(0.03132633,0,0,0.02058823,35.220859,49.45142)" />
    <linearGradient
       id="linearGradient5060">
      <stop
         id="stop5062"
         style="stop-color:#000000;stop-opacity:1"
         offset="0" />
      <stop
         id="stop5064"
         style="stop-color:#000000;stop-opacity:0"
         offset="1" />
    </linearGradient>
    <radialGradient
       cx="605.71429"
       cy="486.64789"
       r="117.14286"
       fx="605.71429"
       fy="486.64789"
       id="radialGradient3180"
       xlink:href="#linearGradient5060"
       gradientUnits="userSpaceOnUse"
       gradientTransform="matrix(-0.03132632,0,0,0.02058823,28.779136,49.45142)" />
    <linearGradient
       id="linearGradient5048">
      <stop
         id="stop5050"
         style="stop-color:#000000;stop-opacity:0"
         offset="0" />
      <stop
         id="stop5056"
         style="stop-color:#000000;stop-opacity:1"
         offset="0.5" />
      <stop
         id="stop5052"
         style="stop-color:#000000;stop-opacity:0"
         offset="1" />
    </linearGradient>
    <linearGradient
       x1="302.85715"
       y1="366.64789"
       x2="302.85715"
       y2="609.50507"
       id="linearGradient4033"
       xlink:href="#linearGradient5048"
       gradientUnits="userSpaceOnUse"
       gradientTransform="matrix(0.09153846,0,0,0.02058823,-1.084616,49.45142)" />
  </defs>
  <metadata
     id="metadata4040">
    <rdf:RDF>
      <cc:Work
         rdf:about="">
        <dc:format>image/svg+xml</dc:format>
        <dc:type
           rdf:resource="http://purl.org/dc/dcmitype/StillImage" />
        <dc:title></dc:title>
      </cc:Work>
    </rdf:RDF>
  </metadata>
  <g
     id="layer1">
    <rect
       width="44.199997"
       height="5"
       x="9.8999996"
       y="57.000004"
       id="rect2879"
       style="opacity:0.3;fill:url(#linearGradient4033);fill-opacity:1;fill-rule:nonzero;stroke:none;stroke-width:1;marker:none;visibility:visible;display:inline;overflow:visible" />
    <path
       d="m 9.9,57.00022 c 0,0 0,4.9997 0,4.9997 -1.6132281,0.01 -3.9,-1.1202 -3.9,-2.5002 0,-1.38 1.8002408,-2.4995 3.9,-2.4995 z"
       id="path2881"
       style="opacity:0.3;fill:url(#radialGradient3180);fill-opacity:1;fill-rule:nonzero;stroke:none;stroke-width:1;marker:none;visibility:visible;display:inline;overflow:visible" />
    <path
       d="m 54.099999,57.00022 c 0,0 0,4.9997 0,4.9997 C 55.713227,62.00992 58,60.87972 58,59.49972 c 0,-1.38 -1.800241,-2.4995 -3.900001,-2.4995 z"
       id="path2883"
       style="opacity:0.3;fill:url(#radialGradient3177);fill-opacity:1;fill-rule:nonzero;stroke:none;stroke-width:1;marker:none;visibility:visible;display:inline;overflow:visible" />
    <path
       d="m 8.4999579,0.49995993 c 10.7701081,0 47.0000421,0.0038 47.0000421,0.0038 l 6e-5,58.99627907 c 0,0 -31.333402,0 -47.0001021,0 0,-19.666678 0,-39.333357 0,-59.00003407 z"
       id="path4160"
       style="fill:url(#linearGradient3156);fill-opacity:1;stroke:none;display:inline" />
    <path
       d="m 54.499999,58.50002 -44.9999992,0 0,-57.0000403 44.9999992,0 z"
       id="rect6741-1-8"
       style="fill:none;stroke:url(#linearGradient3171);stroke-width:1;stroke-linecap:round;stroke-linejoin:miter;stroke-miterlimit:4;stroke-opacity:1;stroke-dasharray:none;stroke-dashoffset:0" />
    <path
       d="m 16.048055,59.5 c -2.355856,0 -4.887081,0 -7.2429481,0 -0.572613,-0.698593 -0.137191,-2.085576 -0.273244,-3.074565 0,-18.528811 0,-37.057619 0,-55.58642244 l 0.07986,-0.2399383 0.193385,-0.0990744 0,0 c 2.4519711,0 4.6948781,0 7.1468371,0"
       id="path4530"
       style="color:#000000;fill:url(#radialGradient3150);fill-opacity:1;fill-rule:nonzero;stroke:none;stroke-width:1;marker:none;visibility:visible;display:inline;overflow:visible;enable-background:accumulate" />
    <path
       d="m 19.914296,11.5 3.147321,0 z m 3.608928,0 2.937499,0 z m 3.399106,0 2.601785,0 z m 3.021428,0 1.133035,0 z m 1.594643,0 2.517856,0 z m 3.021427,0 6.630362,0 z m 7.050002,0 5.07768,0 z m -21.695534,2.999525 4.909821,0 z m 5.455356,0 2.349999,0 z m 2.769642,0 1.175,0 z m 1.636607,0 2.140178,0 z m 2.601785,0 2.182142,0 z m 2.601785,0 3.483039,0 z m 3.944639,0 4.53215,0 z m 4.95179,0 3.02143,0 z m 3.44107,0 0.75536,0 z m -27.402674,2.978762 4.154464,0 z m 4.574106,0 6.798213,0 z m 7.217856,0 3.315177,0 z m 3.73482,0 3.105352,0 z m 3.525002,0 2.64375,0 z m 3.06339,0 4.15446,0.0419 z m -22.115174,3.021425 5.749106,0 z m 6.210713,0 6.210713,0 z m 6.630355,0 2.475893,0 z m 2.895535,0 5.833041,0 z m 6.210711,0 3.98661,0 z m 4.44822,0 1.59464,0 z M 19.914296,23.5 l 2.140178,0 z m 2.811607,0 7.931248,0 z m -2.811607,4.97905 4.154464,0 z m 4.574106,0 6.798213,0 z m 7.217856,0 3.315177,0 z m 3.73482,0 3.105352,0 z m 3.525002,0 2.64375,0 z m 3.06339,0 4.15446,0.0419 z M 19.914296,31.5 l 5.287499,0 z m 5.707142,0 5.665177,0 z m 6.08482,0 2.182142,0 z m 2.601785,0 5.329467,0 z m 5.749107,0 6.71428,0 z m 7.17589,0 2.47589,0 z m -27.318744,3 5.749106,0 z m 6.210713,0 6.210713,0 z m 6.630355,0 2.475893,0 z m 2.895535,0 5.833041,0 z m 6.210711,0 3.98661,0 z m 4.44822,0 1.59464,0 z m -26.395534,3 4.909821,0 z m 5.455356,0 2.349999,0 z m 2.769642,0 1.175,0 z m 1.636607,0 2.140178,0 z m 2.601785,0 2.182142,0 z m 2.601785,0 3.483039,0 z m 3.944639,0 4.53215,0 z m 4.95179,0 3.02143,0 z m 3.44107,0 0.75536,0 z m -27.402674,4.979527 4.154464,0 z m 4.574106,0 6.798213,0 z m 7.217856,0 3.315177,0 z m 3.73482,0 3.105352,0 z m 3.525002,0 2.64375,0 z m 3.06339,0 4.15446,0.04189 z m -22.115174,3.020945 4.909821,0 z m 5.455356,0 2.349999,0 z m 2.769642,0 1.175,0 z m 1.636607,0 2.140178,0 z m 2.601785,0 2.182142,0 z m 2.601785,0 3.483039,0 z m 3.944639,0 4.53215,0 z m 4.95179,0 3.02143,0 z m 3.44107,0 0.75536,0 z M 19.914296,48.5 l 5.20357,0 z m 5.665177,0 1.636607,0 z m 2.05625,0 3.73482,0 z m 4.154463,0 5.49732,0 z m 5.958927,0 3.734827,0 z m 4.112497,0 0.79732,0 z m 1.21697,0 4.74196,0 z m -23.164284,3 5.20357,0 z m 5.665177,0 2.35,0 z m 2.769643,0 3.692856,0 z m 4.112499,0 3.986606,0 z m 4.448213,0 1.594642,0 z m 2.014282,0 0.88125,0 z m 1.34286,0 2.47589,0 z"
       id="path3475"
       style="fill:none;stroke:url(#linearGradient3147);stroke-width:1px;stroke-linecap:butt;stroke-linejoin:miter;stroke-opacity:1" />
    <path
       d="m 16,58.500002 -6.5000021,0 0,-57.000002 L 16,1.5"
       id="rect6741-1-5"
       style="opacity:0.5;fill:none;stroke:url(#linearGradient3144);stroke-width:1;stroke-linecap:butt;stroke-linejoin:round;stroke-miterlimit:4;stroke-opacity:1;stroke-dasharray:none;stroke-dashoffset:0" />
    <path
       d="m 8.4999609,0.49995993 c 10.7701081,0 47.0000391,0.0038 47.0000391,0.0038 l 6e-5,58.99627907 c 0,0 -31.333399,0 -47.0000991,0 0,-19.666678 0,-39.333357 0,-59.00003407 z"
       id="path4160-6-10"
       style="opacity:0.3;fill:none;stroke:#000000;stroke-width:0.99992186;stroke-linecap:butt;stroke-linejoin:round;stroke-miterlimit:4;stroke-opacity:1;stroke-dasharray:none;stroke-dashoffset:0;display:inline" />
  </g>
</svg>
