<?xml version="1.0" encoding="UTF-8" standalone="no"?>
<svg
   id="svg3130"
   height="64"
   width="64"
   version="1.1"
   viewBox="0 0 64 64"
   sodipodi:docname="text-x-generic-rtl.svg"
   inkscape:version="1.4 (e7c3feb100, 2024-10-09)"
   xmlns:inkscape="http://www.inkscape.org/namespaces/inkscape"
   xmlns:sodipodi="http://sodipodi.sourceforge.net/DTD/sodipodi-0.dtd"
   xmlns:xlink="http://www.w3.org/1999/xlink"
   xmlns="http://www.w3.org/2000/svg"
   xmlns:svg="http://www.w3.org/2000/svg"
   xmlns:rdf="http://www.w3.org/1999/02/22-rdf-syntax-ns#"
   xmlns:cc="http://creativecommons.org/ns#"
   xmlns:dc="http://purl.org/dc/elements/1.1/">
  <sodipodi:namedview
     id="namedview1"
     pagecolor="#ffffff"
     bordercolor="#000000"
     borderopacity="0.25"
     inkscape:showpageshadow="2"
     inkscape:pageopacity="0.0"
     inkscape:pagecheckerboard="0"
     inkscape:deskcolor="#d1d1d1"
     inkscape:zoom="17.6875"
     inkscape:cx="32"
     inkscape:cy="32"
     inkscape:current-layer="svg3130" />
  <defs
     id="defs3132">
    <linearGradient
       gradientTransform="matrix(-1.3428566,0,0,1.3407401,66.316046,-4.2520302)"
       gradientUnits="userSpaceOnUse"
       xlink:href="#linearGradient3104-5"
       id="linearGradient3072"
       y2="3.3638515"
       x2="22.004084"
       y1="47.813133"
       x1="22.004084" />
    <linearGradient
       id="linearGradient3104-5">
      <stop
         offset="0"
         style="stop-color:#aaaaaa;stop-opacity:1"
         id="stop3106-2" />
      <stop
         offset="1"
         style="stop-color:#c8c8c8;stop-opacity:1"
         id="stop3108-5" />
    </linearGradient>
    <linearGradient
       gradientTransform="matrix(1.0843523,0,0,1.1997367,79.550862,-4.1628601)"
       gradientUnits="userSpaceOnUse"
       xlink:href="#linearGradient3104-6"
       id="linearGradient3048"
       y2="2.9062471"
       x2="-51.786404"
       y1="50.786446"
       x1="-51.786404" />
    <linearGradient
       id="linearGradient3104-6">
      <stop
         offset="0"
         style="stop-color:#000000;stop-opacity:0.31782946"
         id="stop3106-3" />
      <stop
         offset="1"
         style="stop-color:#000000;stop-opacity:0.24031007"
         id="stop3108-9" />
    </linearGradient>
    <linearGradient
       gradientTransform="matrix(1.2162162,0,0,1.5405376,2.8108184,-6.9729501)"
       gradientUnits="userSpaceOnUse"
       xlink:href="#linearGradient3977-4"
       id="linearGradient3051"
       y2="42.100208"
       x2="23.99999"
       y1="5.8641062"
       x1="23.99999" />
    <linearGradient
       id="linearGradient3977-4">
      <stop
         offset="0"
         style="stop-color:#ffffff;stop-opacity:1"
         id="stop3979-7" />
      <stop
         offset="0.01214366"
         style="stop-color:#ffffff;stop-opacity:0.23529412"
         id="stop3981-6" />
      <stop
         offset="0.98781353"
         style="stop-color:#ffffff;stop-opacity:0.15686275"
         id="stop3983-5" />
      <stop
         offset="1"
         style="stop-color:#ffffff;stop-opacity:0.39215687"
         id="stop3985-6" />
    </linearGradient>
    <linearGradient
       gradientTransform="matrix(1.3142827,0,0,1.2602393,0.4572141,-2.1793201)"
       gradientUnits="userSpaceOnUse"
       xlink:href="#linearGradient3600-9"
       id="linearGradient3054"
       y2="47.013336"
       x2="25.132275"
       y1="0.98520643"
       x1="25.132275" />
    <linearGradient
       id="linearGradient3600-9">
      <stop
         offset="0"
         style="stop-color:#f4f4f4;stop-opacity:1"
         id="stop3602-3" />
      <stop
         offset="1"
         style="stop-color:#dbdbdb;stop-opacity:1"
         id="stop3604-7" />
    </linearGradient>
    <radialGradient
       gradientTransform="matrix(0.03132633,0,0,0.02058823,35.220859,49.45142)"
       gradientUnits="userSpaceOnUse"
       xlink:href="#linearGradient5060"
       id="radialGradient3057"
       fy="486.64789"
       fx="605.71429"
       r="117.14286"
       cy="486.64789"
       cx="605.71429" />
    <linearGradient
       id="linearGradient5060">
      <stop
         offset="0"
         style="stop-color:#000000;stop-opacity:1"
         id="stop5062" />
      <stop
         offset="1"
         style="stop-color:#000000;stop-opacity:0"
         id="stop5064" />
    </linearGradient>
    <radialGradient
       gradientTransform="matrix(-0.03132632,0,0,0.02058823,28.779136,49.45142)"
       gradientUnits="userSpaceOnUse"
       xlink:href="#linearGradient5060"
       id="radialGradient3060"
       fy="486.64789"
       fx="605.71429"
       r="117.14286"
       cy="486.64789"
       cx="605.71429" />
    <linearGradient
       id="linearGradient5048">
      <stop
         offset="0"
         style="stop-color:#000000;stop-opacity:0"
         id="stop5050" />
      <stop
         offset="0.5"
         style="stop-color:#000000;stop-opacity:1"
         id="stop5056" />
      <stop
         offset="1"
         style="stop-color:#000000;stop-opacity:0"
         id="stop5052" />
    </linearGradient>
    <linearGradient
       gradientTransform="matrix(0.09153846,0,0,0.02058823,-1.084616,49.45142)"
       gradientUnits="userSpaceOnUse"
       xlink:href="#linearGradient5048"
       id="linearGradient3128"
       y2="609.50507"
       x2="302.85715"
       y1="366.64789"
       x1="302.85715" />
  </defs>
  <metadata
     id="metadata3135">
    <rdf:RDF>
      <cc:Work
         rdf:about="">
        <dc:format>image/svg+xml</dc:format>
        <dc:type
           rdf:resource="http://purl.org/dc/dcmitype/StillImage" />
      </cc:Work>
    </rdf:RDF>
  </metadata>
  <path
     d="m 48.882953,11.5 h -3.147321 z m -3.608928,0 h -2.937498 z m -3.399105,0 h -2.601785 z m -3.021428,0 h -1.133035 z m -1.594642,0 h -2.517856 z m -3.021427,0 h -6.630355 z m -7.049997,0 h -5.077677 z m -5.49732,0 h -1.552678 z m 27.192847,3 h -4.90982 z m -5.455355,0 h -2.349999 z m -2.769642,0 h -1.175 z m -1.636607,0 h -2.140177 z m -2.601784,0 h -2.182142 z m -2.601785,0 h -3.483034 z m -3.944641,0 h -4.532141 z m -4.951784,0 h -3.021427 z m -3.44107,0 h -0.755357 z m 27.402668,2.97905 H 44.72849 Z m -4.574106,0 h -6.798211 z m -7.217854,0 h -3.315177 z m -3.73482,0 h -3.105356 z m -3.524998,0 h -2.643749 z m -3.063392,0 -4.154463,0.0419 z m -4.532141,0.0419 H 15.479395 Z M 48.882953,20.5 h -5.749105 z m -6.210712,0 h -6.210712 z m -6.630355,0 h -2.475892 z m -2.895534,0 h -5.833034 z m -6.210712,0 h -3.986606 z m -4.448212,0 h -1.594643 z m -2.014285,0 h -0.88125 z m -1.342857,0 h -2.475892 z m 29.752667,3 h -2.140178 z m -2.811606,0 H 38.1401 Z m 2.811606,5 h -3.147321 z m -3.608928,0 h -2.895534 z m -3.399105,0 h -2.601785 z m -3.021428,0 h -1.133035 z m -1.594642,0 h -2.517856 z m -3.021427,0 h -6.58839 z m -7.049997,0 h -5.035713 z m -5.455355,0 h -1.594643 z m -2.014285,0 h -3.776784 z m 29.165167,3 h -5.287498 z m -5.707141,0 h -5.665176 z m -6.084819,0 h -2.182142 z m -2.601785,0 h -5.329462 z m -5.749104,0 h -6.714283 z m -7.17589,0 h -2.475892 z m 27.318739,3 h -5.749105 z m -6.210712,0 h -6.210712 z m -6.630355,0 h -2.475892 z m -2.895534,0 h -5.833034 z m -6.210712,0 h -3.986606 z m -4.448212,0 h -1.594643 z m -2.014285,0 h -0.88125 z m -1.342857,0 h -2.475892 z m 29.752667,3 h -4.90982 z m -5.455355,0 h -2.349999 z m -2.769642,0 h -1.175 z m -1.636607,0 h -2.140177 z m -2.601784,0 h -2.182142 z m -2.601785,0 h -3.483034 z m -3.944641,0 h -4.532141 z m -4.951784,0 h -3.021427 z m -3.44107,0 h -0.755357 z m 27.402668,4.979055 H 44.72849 Z m -4.574106,0 h -6.798211 z m -7.217854,0 h -3.315177 z m -3.73482,0 h -3.105356 z m -3.524998,0 h -2.643749 z m -3.063392,0 -4.154463,0.04189 z m -4.532141,0.04189 H 15.479395 Z M 48.882953,45.5 h -4.90982 z m -5.455355,0 h -2.349999 z m -2.769642,0 h -1.175 z m -1.636607,0 h -2.140177 z m -2.601784,0 h -2.182142 z m -2.601785,0 h -3.483034 z m -3.944641,0 h -4.532141 z m -4.951784,0 h -3.021427 z m -3.44107,0 h -0.755357 z m 27.402668,3 h -5.20357 z m -5.665177,0 H 41.58117 Z m -2.056249,0 h -3.73482 z m -4.154462,0 h -5.49732 z m -5.958927,0 h -3.73482 z m -4.112498,0 h -0.797321 z m -1.216964,0 h -4.741962 z m -5.245533,0 h -2.475892 z m 28.40981,3 h -5.20357 z m -5.665177,0 h -2.349999 z m -2.769641,0 h -3.692856 z m -4.112499,0 h -3.986605 z m -4.448212,0 h -1.594642 z m -2.014285,0 h -0.88125 z m -1.342857,0 H 26.05439 Z"
     id="path3475"
     style="fill:none;stroke:url(#linearGradient3072);stroke-width:0.99999994px;stroke-linecap:butt;stroke-linejoin:miter;stroke-opacity:1" />
</svg>
