<?xml version="1.0" encoding="UTF-8" standalone="no"?>
<svg
   xmlns:dc="http://purl.org/dc/elements/1.1/"
   xmlns:cc="http://creativecommons.org/ns#"
   xmlns:rdf="http://www.w3.org/1999/02/22-rdf-syntax-ns#"
   xmlns:svg="http://www.w3.org/2000/svg"
   xmlns="http://www.w3.org/2000/svg"
   xmlns:xlink="http://www.w3.org/1999/xlink"
   xmlns:sodipodi="http://sodipodi.sourceforge.net/DTD/sodipodi-0.dtd"
   xmlns:inkscape="http://www.inkscape.org/namespaces/inkscape"
   id="svg3266"
   height="64"
   width="64"
   version="1.1"
   sodipodi:docname="text-x-r-source.svg"
   inkscape:version="1.0.1 (3bc2e813f5, 2020-09-07)">
  <sodipodi:namedview
     pagecolor="#ffffff"
     bordercolor="#666666"
     borderopacity="1"
     objecttolerance="10"
     gridtolerance="10"
     guidetolerance="10"
     inkscape:pageopacity="0"
     inkscape:pageshadow="2"
     inkscape:window-width="1920"
     inkscape:window-height="1017"
     id="namedview43"
     showgrid="true"
     inkscape:zoom="120.91416"
     inkscape:cx="37.96417"
     inkscape:cy="30.244251"
     inkscape:window-x="0"
     inkscape:window-y="30"
     inkscape:window-maximized="1"
     inkscape:current-layer="svg3266"
     inkscape:document-rotation="0">
    <inkscape:grid
       type="xygrid"
       id="grid868" />
  </sodipodi:namedview>
  <defs
     id="defs3268">
    <linearGradient
       gradientTransform="matrix(1.0843523,0,0,1.1997367,79.550862,-4.1628601)"
       gradientUnits="userSpaceOnUse"
       xlink:href="#linearGradient3104-6"
       id="linearGradient3158"
       y2="2.9062471"
       x2="-51.786404"
       y1="50.786446"
       x1="-51.786404" />
    <linearGradient
       id="linearGradient3104-6">
      <stop
         offset="0"
         style="stop-color:#000000;stop-opacity:0.31782946"
         id="stop3106-3" />
      <stop
         offset="1"
         style="stop-color:#000000;stop-opacity:0.24031007"
         id="stop3108-9" />
    </linearGradient>
    <linearGradient
       gradientTransform="matrix(1.2162162,0,0,1.5405376,2.8108184,-6.9729501)"
       gradientUnits="userSpaceOnUse"
       xlink:href="#linearGradient3977-4"
       id="linearGradient3161"
       y2="42.100208"
       x2="23.99999"
       y1="5.8641062"
       x1="23.99999" />
    <linearGradient
       id="linearGradient3977-4">
      <stop
         offset="0"
         style="stop-color:#ffffff;stop-opacity:1"
         id="stop3979-7" />
      <stop
         offset="0.01214366"
         style="stop-color:#ffffff;stop-opacity:0.23529412"
         id="stop3981-6" />
      <stop
         offset="0.98781353"
         style="stop-color:#ffffff;stop-opacity:0.15686275"
         id="stop3983-5" />
      <stop
         offset="1"
         style="stop-color:#ffffff;stop-opacity:0.39215687"
         id="stop3985-6" />
    </linearGradient>
    <linearGradient
       gradientTransform="matrix(1.3142827,0,0,1.2602393,0.4572141,-2.1793201)"
       gradientUnits="userSpaceOnUse"
       xlink:href="#linearGradient3600-9"
       id="linearGradient3164"
       y2="47.013336"
       x2="25.132275"
       y1="0.98520643"
       x1="25.132275" />
    <linearGradient
       id="linearGradient3600-9">
      <stop
         offset="0"
         style="stop-color:#f4f4f4;stop-opacity:1"
         id="stop3602-3" />
      <stop
         offset="1"
         style="stop-color:#dbdbdb;stop-opacity:1"
         id="stop3604-7" />
    </linearGradient>
    <radialGradient
       gradientTransform="matrix(0.03132633,0,0,0.02058823,35.220859,49.45142)"
       gradientUnits="userSpaceOnUse"
       xlink:href="#linearGradient5060"
       id="radialGradient3167"
       fy="486.64789"
       fx="605.71429"
       r="117.14286"
       cy="486.64789"
       cx="605.71429" />
    <linearGradient
       id="linearGradient5060">
      <stop
         offset="0"
         style="stop-color:#000000;stop-opacity:1"
         id="stop5062" />
      <stop
         offset="1"
         style="stop-color:#000000;stop-opacity:0"
         id="stop5064" />
    </linearGradient>
    <radialGradient
       gradientTransform="matrix(-0.03132632,0,0,0.02058823,28.779136,49.45142)"
       gradientUnits="userSpaceOnUse"
       xlink:href="#linearGradient5060"
       id="radialGradient3170"
       fy="486.64789"
       fx="605.71429"
       r="117.14286"
       cy="486.64789"
       cx="605.71429" />
    <linearGradient
       id="linearGradient5048">
      <stop
         offset="0"
         style="stop-color:#000000;stop-opacity:0"
         id="stop5050" />
      <stop
         offset="0.5"
         style="stop-color:#000000;stop-opacity:1"
         id="stop5056" />
      <stop
         offset="1"
         style="stop-color:#000000;stop-opacity:0"
         id="stop5052" />
    </linearGradient>
    <linearGradient
       gradientTransform="matrix(0.09153846,0,0,0.02058823,-1.084616,49.45142)"
       gradientUnits="userSpaceOnUse"
       xlink:href="#linearGradient5048"
       id="linearGradient3264"
       y2="609.50507"
       x2="302.85715"
       y1="366.64789"
       x1="302.85715" />
    <linearGradient
       id="gradientFill-1"
       x1="0.74144253"
       x2="590.86259"
       y1="3.6658269"
       y2="593.78698"
       gradientUnits="userSpaceOnUse"
       spreadMethod="pad"
       gradientTransform="matrix(0.05965094,0,0,0.03994991,14.452684,16.710305)">
      <stop
         offset="0"
         stop-color="rgb(203,206,208)"
         stop-opacity="1"
         id="stop2" />
      <stop
         offset="1"
         stop-color="rgb(132,131,139)"
         stop-opacity="1"
         id="stop4" />
    </linearGradient>
    <linearGradient
       id="gradientFill-2"
       x1="301.02603"
       x2="703.06751"
       y1="151.40061"
       y2="553.44209"
       gradientUnits="userSpaceOnUse"
       spreadMethod="pad"
       gradientTransform="matrix(0.04832576,0,0,0.04931219,14.452684,16.710305)">
      <stop
         offset="0"
         stop-color="rgb(39,109,195)"
         stop-opacity="1"
         id="stop7" />
      <stop
         offset="1"
         stop-color="rgb(22,92,170)"
         stop-opacity="1"
         id="stop9" />
    </linearGradient>
  </defs>
  <metadata
     id="metadata3271">
    <rdf:RDF>
      <cc:Work
         rdf:about="">
        <dc:format>image/svg+xml</dc:format>
        <dc:type
           rdf:resource="http://purl.org/dc/dcmitype/StillImage" />
        <dc:title />
      </cc:Work>
    </rdf:RDF>
  </metadata>
  <rect
     width="44.199997"
     height="5"
     x="9.8999996"
     y="57.000004"
     id="rect2879"
     style="display:inline;overflow:visible;visibility:visible;opacity:0.15;fill:url(#linearGradient3264);fill-opacity:1;fill-rule:nonzero;stroke:none;stroke-width:1;marker:none" />
  <path
     d="m 9.9,57.00022 c 0,0 0,4.9997 0,4.9997 -1.6132281,0.01 -3.9,-1.1202 -3.9,-2.5002 0,-1.38 1.8002408,-2.4995 3.9,-2.4995 z"
     id="path2881"
     style="display:inline;overflow:visible;visibility:visible;opacity:0.15;fill:url(#radialGradient3170);fill-opacity:1;fill-rule:nonzero;stroke:none;stroke-width:1;marker:none" />
  <path
     d="m 54.099999,57.00022 c 0,0 0,4.9997 0,4.9997 C 55.713227,62.00992 58,60.87972 58,59.49972 c 0,-1.38 -1.800241,-2.4995 -3.900001,-2.4995 z"
     id="path2883"
     style="display:inline;overflow:visible;visibility:visible;opacity:0.15;fill:url(#radialGradient3167);fill-opacity:1;fill-rule:nonzero;stroke:none;stroke-width:1;marker:none" />
  <path
     d="m 9,0.9998799 c 10.540935,0 45.999945,0.004 45.999945,0.004 L 55,59.00002 c 0,0 -30.666666,0 -46,0 0,-19.3334 0,-38.6665 0,-57.9998201 z"
     id="path4160-6"
     style="display:inline;fill:url(#linearGradient3164);fill-opacity:1;stroke:none" />
  <path
     d="m 54.499999,58.50002 -44.9999992,0 0,-57.0000401 44.9999992,0 z"
     id="rect6741-1-8"
     style="fill:none;stroke:url(#linearGradient3161);stroke-width:1;stroke-linecap:round;stroke-linejoin:miter;stroke-miterlimit:4;stroke-dasharray:none;stroke-dashoffset:0;stroke-opacity:1" />
  <path
     d="m 8.4999684,0.4998999 c 10.7700936,0 47.0000286,0.004 47.0000286,0.004 l 4.9e-5,58.9962201 c 0,0 -31.333384,0 -47.0000776,0 0,-19.6668 0,-39.3334 0,-58.9999701 z"
     id="path4160-6-1"
     style="display:inline;fill:none;stroke:url(#linearGradient3158);stroke-width:0.9999218;stroke-linecap:butt;stroke-linejoin:round;stroke-miterlimit:4;stroke-dasharray:none;stroke-dashoffset:0;stroke-opacity:1" />
  <path
     d="m 32.09755,40.432044 c -9.720534,0 -17.600639,-5.277502 -17.600639,-11.78762 0,-6.510168 7.880105,-11.78767 17.600639,-11.78767 9.720585,0 17.600639,5.277502 17.600639,11.78767 0,6.510118 -7.880054,11.78762 -17.600639,11.78762 z m 2.694085,-18.96672 c -7.388474,0 -13.378013,3.607929 -13.378013,8.058529 0,4.450599 5.989539,8.058528 13.378013,8.058528 7.388424,0 12.840982,-2.466648 12.840982,-8.058528 0,-5.590123 -5.452558,-8.058529 -12.840982,-8.058529 z"
     fill="url(#gradientFill-1)"
     fill-rule="evenodd"
     id="path14"
     style="fill:url(#gradientFill-1);stroke-width:0.0488165" />
  <path
     d="m 41.301753,35.114122 c 0,0 1.065274,0.321456 1.684169,0.634615 0.214744,0.108665 0.586286,0.325508 0.854288,0.610205 0.262536,0.27884 0.390532,0.56139 0.390532,0.56139 l 4.198218,7.078391 -6.785491,0.003 -3.173072,-5.958639 c 0,0 -0.649747,-1.116384 -1.049555,-1.440086 -0.333514,-0.270004 -0.475717,-0.366124 -0.805471,-0.366124 H 35 V 44 H 29 V 24.176201 h 12.057672 c 0,0 5.491856,0.09905 5.491856,5.324025 0,5.224975 -5.247773,5.613896 -5.247773,5.613896 z M 38.690072,28.476251 35,28.473951 v 3.370778 l 3.690077,-0.0012 c 0,0 1.684169,-0.0052 1.684169,-1.714679 0,-1.743823 -1.684169,-1.652585 -1.684169,-1.652585 z"
     fill="url(#gradientFill-2)"
     fill-rule="evenodd"
     id="path16"
     style="fill:url(#gradientFill-2);stroke-width:0.0488165"
     sodipodi:nodetypes="csccccccscccccsccccccscc" />
</svg>
