<?xml version="1.0" encoding="UTF-8" standalone="no"?>
<svg
   xmlns:dc="http://purl.org/dc/elements/1.1/"
   xmlns:cc="http://creativecommons.org/ns#"
   xmlns:rdf="http://www.w3.org/1999/02/22-rdf-syntax-ns#"
   xmlns:svg="http://www.w3.org/2000/svg"
   xmlns="http://www.w3.org/2000/svg"
   xmlns:xlink="http://www.w3.org/1999/xlink"
   xmlns:sodipodi="http://sodipodi.sourceforge.net/DTD/sodipodi-0.dtd"
   xmlns:inkscape="http://www.inkscape.org/namespaces/inkscape"
   id="svg3130"
   height="64"
   width="64"
   version="1.1"
   inkscape:version="0.91 r13725"
   sodipodi:docname="text-x-markdown.svg">
  <sodipodi:namedview
     pagecolor="#ffffff"
     bordercolor="#666666"
     borderopacity="1"
     objecttolerance="10"
     gridtolerance="10"
     guidetolerance="10"
     inkscape:pageopacity="0"
     inkscape:pageshadow="2"
     inkscape:window-width="1920"
     inkscape:window-height="962"
     id="namedview3726"
     showgrid="true"
     showguides="true"
     inkscape:guide-bbox="true"
     inkscape:zoom="14.75"
     inkscape:cx="51.411794"
     inkscape:cy="26.957528"
     inkscape:window-x="0"
     inkscape:window-y="30"
     inkscape:window-maximized="1"
     inkscape:current-layer="svg3130">
    <sodipodi:guide
       position="62.033639,53.116903"
       orientation="0,1"
       id="guide3728" />
    <sodipodi:guide
       position="73.059711,11.984861"
       orientation="0,1"
       id="guide3730" />
    <sodipodi:guide
       position="14.861227,-2.0134566"
       orientation="1,0"
       id="guide3732" />
    <sodipodi:guide
       position="48.418837,-1.5340622"
       orientation="1,0"
       id="guide3738" />
    <inkscape:grid
       type="xygrid"
       id="grid3762" />
  </sodipodi:namedview>
  <defs
     id="defs3132">
    <linearGradient
       gradientTransform="matrix(1.3428566,0,0,1.3407401,-2.4330934,-4.2520302)"
       gradientUnits="userSpaceOnUse"
       xlink:href="#linearGradient3104-5"
       id="linearGradient3072"
       y2="3.3638515"
       x2="22.004084"
       y1="47.813133"
       x1="22.004084" />
    <linearGradient
       id="linearGradient3104-5">
      <stop
         offset="0"
         style="stop-color:#aaaaaa;stop-opacity:1"
         id="stop3106-2" />
      <stop
         offset="1"
         style="stop-color:#c8c8c8;stop-opacity:1"
         id="stop3108-5" />
    </linearGradient>
    <linearGradient
       gradientTransform="matrix(1.0843523,0,0,1.1997367,79.550862,-4.1628601)"
       gradientUnits="userSpaceOnUse"
       xlink:href="#linearGradient3104-6"
       id="linearGradient3048"
       y2="2.9062471"
       x2="-51.786404"
       y1="50.786446"
       x1="-51.786404" />
    <linearGradient
       id="linearGradient3104-6">
      <stop
         offset="0"
         style="stop-color:#000000;stop-opacity:0.31782946"
         id="stop3106-3" />
      <stop
         offset="1"
         style="stop-color:#000000;stop-opacity:0.24031007"
         id="stop3108-9" />
    </linearGradient>
    <linearGradient
       gradientTransform="matrix(1.2162162,0,0,1.5405376,2.8108184,-6.9729501)"
       gradientUnits="userSpaceOnUse"
       xlink:href="#linearGradient3977-4"
       id="linearGradient3051"
       y2="42.100208"
       x2="23.99999"
       y1="5.8641062"
       x1="23.99999" />
    <linearGradient
       id="linearGradient3977-4">
      <stop
         offset="0"
         style="stop-color:#ffffff;stop-opacity:1"
         id="stop3979-7" />
      <stop
         offset="0.01214366"
         style="stop-color:#ffffff;stop-opacity:0.23529412"
         id="stop3981-6" />
      <stop
         offset="0.98781353"
         style="stop-color:#ffffff;stop-opacity:0.15686275"
         id="stop3983-5" />
      <stop
         offset="1"
         style="stop-color:#ffffff;stop-opacity:0.39215687"
         id="stop3985-6" />
    </linearGradient>
    <linearGradient
       gradientTransform="matrix(1.3142827,0,0,1.2602393,0.4572141,-2.1793201)"
       gradientUnits="userSpaceOnUse"
       xlink:href="#linearGradient3600-9"
       id="linearGradient3054"
       y2="47.013336"
       x2="25.132275"
       y1="0.98520643"
       x1="25.132275" />
    <linearGradient
       id="linearGradient3600-9">
      <stop
         offset="0"
         style="stop-color:#f4f4f4;stop-opacity:1"
         id="stop3602-3" />
      <stop
         offset="1"
         style="stop-color:#dbdbdb;stop-opacity:1"
         id="stop3604-7" />
    </linearGradient>
    <radialGradient
       gradientTransform="matrix(0.03132633,0,0,0.02058823,35.220859,49.45142)"
       gradientUnits="userSpaceOnUse"
       xlink:href="#linearGradient5060"
       id="radialGradient3057"
       fy="486.64789"
       fx="605.71429"
       r="117.14286"
       cy="486.64789"
       cx="605.71429" />
    <linearGradient
       id="linearGradient5060">
      <stop
         offset="0"
         style="stop-color:#000000;stop-opacity:1"
         id="stop5062" />
      <stop
         offset="1"
         style="stop-color:#000000;stop-opacity:0"
         id="stop5064" />
    </linearGradient>
    <radialGradient
       gradientTransform="matrix(-0.03132632,0,0,0.02058823,28.779136,49.45142)"
       gradientUnits="userSpaceOnUse"
       xlink:href="#linearGradient5060"
       id="radialGradient3060"
       fy="486.64789"
       fx="605.71429"
       r="117.14286"
       cy="486.64789"
       cx="605.71429" />
    <linearGradient
       id="linearGradient5048">
      <stop
         offset="0"
         style="stop-color:#000000;stop-opacity:0"
         id="stop5050" />
      <stop
         offset="0.5"
         style="stop-color:#000000;stop-opacity:1"
         id="stop5056" />
      <stop
         offset="1"
         style="stop-color:#000000;stop-opacity:0"
         id="stop5052" />
    </linearGradient>
    <linearGradient
       gradientTransform="matrix(0.09153846,0,0,0.02058823,-1.084616,49.45142)"
       gradientUnits="userSpaceOnUse"
       xlink:href="#linearGradient5048"
       id="linearGradient3128"
       y2="609.50507"
       x2="302.85715"
       y1="366.64789"
       x1="302.85715" />
    <linearGradient
       id="linearGradient2867-449-88-871-390-598-476-591-434-148-57-177-8-3-3">
      <stop
         offset="0"
         style="stop-color:#ffcd7d;stop-opacity:1"
         id="stop3750-1-0-7" />
      <stop
         offset="0.26238"
         style="stop-color:#fc8f36;stop-opacity:1"
         id="stop3752-3-7-4" />
      <stop
         offset="0.704952"
         style="stop-color:#e23a0e;stop-opacity:1"
         id="stop3754-1-8-5" />
      <stop
         offset="1"
         style="stop-color:#ac441f;stop-opacity:1"
         id="stop3756-1-6-2" />
    </linearGradient>
  </defs>
  <metadata
     id="metadata3135">
    <rdf:RDF>
      <cc:Work
         rdf:about="">
        <dc:format>image/svg+xml</dc:format>
        <dc:type
           rdf:resource="http://purl.org/dc/dcmitype/StillImage" />
        <dc:title />
      </cc:Work>
    </rdf:RDF>
  </metadata>
  <rect
     width="44.199997"
     height="5"
     x="9.8999996"
     y="57.000004"
     id="rect2879"
     style="display:inline;overflow:visible;visibility:visible;opacity:0.15;fill:url(#linearGradient3128);fill-opacity:1;fill-rule:nonzero;stroke:none;stroke-width:1;marker:none" />
  <path
     d="m 9.9,57.00022 c 0,0 0,4.9997 0,4.9997 -1.6132281,0.01 -3.9,-1.1202 -3.9,-2.5002 0,-1.38 1.8002408,-2.4995 3.9,-2.4995 z"
     id="path2881"
     style="display:inline;overflow:visible;visibility:visible;opacity:0.15;fill:url(#radialGradient3060);fill-opacity:1;fill-rule:nonzero;stroke:none;stroke-width:1;marker:none" />
  <path
     d="m 54.099999,57.00022 c 0,0 0,4.9997 0,4.9997 C 55.713227,62.00992 58,60.87972 58,59.49972 c 0,-1.38 -1.800241,-2.4995 -3.900001,-2.4995 z"
     id="path2883"
     style="display:inline;overflow:visible;visibility:visible;opacity:0.15;fill:url(#radialGradient3057);fill-opacity:1;fill-rule:nonzero;stroke:none;stroke-width:1;marker:none" />
  <path
     d="m 9,0.9998799 c 10.540935,0 45.999945,0.004 45.999945,0.004 L 55,59.00002 c 0,0 -30.666666,0 -46,0 0,-19.3334 0,-38.6665 0,-57.9998201 z"
     id="path4160-6"
     style="display:inline;fill:url(#linearGradient3054);fill-opacity:1;stroke:none" />
  <path
     d="m 54.499999,58.50002 -44.9999992,0 0,-57.0000401 44.9999992,0 z"
     id="rect6741-1-8"
     style="fill:none;stroke:url(#linearGradient3051);stroke-width:1;stroke-linecap:round;stroke-linejoin:miter;stroke-miterlimit:4;stroke-dasharray:none;stroke-dashoffset:0;stroke-opacity:1" />
  <path
     d="m 8.4999684,0.4998999 c 10.7700936,0 47.0000286,0.004 47.0000286,0.004 l 4.9e-5,58.9962201 c 0,0 -31.333384,0 -47.0000776,0 0,-19.6668 0,-39.3334 0,-58.9999701 z"
     id="path4160-6-1"
     style="display:inline;fill:none;stroke:url(#linearGradient3048);stroke-width:0.9999218;stroke-linecap:butt;stroke-linejoin:round;stroke-miterlimit:4;stroke-dasharray:none;stroke-dashoffset:0;stroke-opacity:1" />
  <path
     style="fill:none;stroke:url(#linearGradient3072);stroke-width:0.99999994px;stroke-linecap:butt;stroke-linejoin:miter;stroke-opacity:1"
     d="m 14.999052,11.5 3.148438,0 -3.148438,0 z m 3.609375,0 2.9375,0 -2.9375,0 z m 3.400391,0 2.601562,0 -2.601562,0 z m 3.021484,0 1.132812,0 -1.132812,0 z m 1.59375,0 2.517578,0 -2.517578,0 z m 3.021484,0 6.63086,0 -6.63086,0 z m 7.050782,0 5.076171,0 -5.076171,0 z m 5.496093,0 1.552734,0 -1.552734,0 z m -27.193359,3 4.910156,0 -4.910156,0 z m 5.457031,0 2.34961,0 -2.34961,0 z m 2.769531,0 1.173829,0 -1.173829,0 z m 1.636719,0 2.138672,0 -2.138672,0 z m 2.601563,0 2.18164,0 -2.18164,0 z m 2.601562,0 3.482422,0 -3.482422,0 z m 3.945313,0 4.53125,0 -4.53125,0 z m 4.951172,0 3.021484,0 -3.021484,0 z m 3.441406,0 0.753906,0 -0.753906,0 z m -27.404297,2.978516 4.15625,0 -4.15625,0 z m 4.574219,0 6.798828,0 -6.798828,0 z m 7.21875,0 3.314453,0 -3.314453,0 z m 3.734375,0 3.105468,0 -3.105468,0 z m 3.52539,0 2.644532,0 -2.644532,0 z m 3.0625,0 4.15625,0.04297 -4.15625,-0.04297 z m 4.533203,0.04297 6.75586,0 -6.75586,0 z M 14.999052,20.5 l 5.75,0 -5.75,0 z m 6.210938,0 6.210937,0 -6.210937,0 z m 6.630859,0 2.476562,0 -2.476562,0 z m 2.896484,0 5.832031,0 -5.832031,0 z m 6.210938,0 3.986328,0 -3.986328,0 z m 4.447265,0 1.59375,0 -1.59375,0 z m 2.013672,0 0.882812,0 -0.882812,0 z m 1.34375,0 2.476562,0 -2.476562,0 z m -29.753906,25 4.910156,0 -4.910156,0 z m 5.457031,0 2.34961,0 -2.34961,0 z m 2.769531,0 1.173829,0 -1.173829,0 z m 1.636719,0 2.138672,0 -2.138672,0 z m 2.601563,0 2.18164,0 -2.18164,0 z m 2.601562,0 3.482422,0 -3.482422,0 z m 3.945313,0 4.53125,0 -4.53125,0 z m 4.951172,0 3.021484,0 -3.021484,0 z m 3.441406,0 0.753906,0 -0.753906,0 z m -27.404297,3 5.205078,0 -5.205078,0 z m 5.666016,0 1.636718,0 -1.636718,0 z m 2.05664,0 3.734375,0 -3.734375,0 z m 4.154297,0 5.498047,0 -5.498047,0 z m 5.958985,0 3.734374,0 -3.734374,0 z m 4.113281,0 0.796875,0 -0.796875,0 z m 1.216797,0 4.740234,0 -4.740234,0 z m 5.24414,0 2.476562,0 -2.476562,0 z m -28.410156,3 5.205078,0 -5.205078,0 z m 5.666016,0 2.349609,0 -2.349609,0 z m 2.769531,0 3.693359,0 -3.693359,0 z m 4.113281,0 3.986328,0 -3.986328,0 z m 4.447266,0 1.595703,0 -1.595703,0 z m 2.015625,0 0.880859,0 -0.880859,0 z m 1.341797,0 2.476562,0 -2.476562,0 z"
     id="path3475"
     inkscape:connector-curvature="0" />
  <rect
     style="fill:none;stroke:#1a1a1a;stroke-width:1.31122971"
     width="25.658449"
     height="15.655768"
     x="17.677889"
     y="24.678524"
     ry="1.3267602"
     id="rect3799" />
  <path
     inkscape:connector-curvature="0"
     style="fill:#1a1a1a"
     d="m 21.006328,37.005852 0,-8.981938 2.496433,0 2.496432,3.302183 2.496433,-3.302183 2.496432,0 0,8.981938 -2.496432,0 0,-5.151406 -2.496433,3.302183 -2.496432,-3.302183 0,5.151406 z"
     id="path3801" />
  <path
     inkscape:connector-curvature="0"
     style="fill:#1a1a1a"
     d="m 37.00204,37.022801 -2.99253,-4.367107 1.99502,0 0,-4.63178 1.99502,0 0,4.63178 1.99502,0 z"
     id="path3803" />
</svg>
