<svg xmlns="http://www.w3.org/2000/svg" xmlns:xlink="http://www.w3.org/1999/xlink" viewBox="0 0 64 64"><defs><linearGradient x1="22.104" y1="40.124" x2="22.104" y2="10.035" id="m" xlink:href="#a" gradientUnits="userSpaceOnUse" gradientTransform="matrix(.89375 0 0 1.93172 6.3 -14.712)"/><linearGradient id="a"><stop offset="0" stop-color="#a3a3a3"/><stop offset="1" stop-color="#bababa"/></linearGradient><linearGradient x1="-51.786" y1="50.786" x2="-51.786" y2="2.906" id="l" xlink:href="#b" gradientUnits="userSpaceOnUse" gradientTransform="matrix(1.08435 0 0 1.19974 79.55 -4.163)"/><linearGradient id="b"><stop offset="0" stop-opacity=".318"/><stop offset="1" stop-opacity=".24"/></linearGradient><linearGradient x1="24" y1="5.864" x2="24" y2="42.1" id="k" xlink:href="#c" gradientUnits="userSpaceOnUse" gradientTransform="matrix(1.21622 0 0 1.54054 2.81 -6.973)"/><linearGradient id="c"><stop offset="0" stop-color="#fff"/><stop offset=".012" stop-color="#fff" stop-opacity=".235"/><stop offset=".988" stop-color="#fff" stop-opacity=".157"/><stop offset="1" stop-color="#fff" stop-opacity=".392"/></linearGradient><linearGradient x1="25.132" y1=".985" x2="25.132" y2="47.013" id="j" xlink:href="#d" gradientUnits="userSpaceOnUse" gradientTransform="matrix(1.31428 0 0 1.26024 .457 -2.18)"/><linearGradient id="d"><stop offset="0" stop-color="#f4f4f4"/><stop offset="1" stop-color="#dbdbdb"/></linearGradient><radialGradient cx="605.714" cy="486.648" r="117.143" fx="605.714" fy="486.648" id="i" xlink:href="#e" gradientUnits="userSpaceOnUse" gradientTransform="matrix(.03133 0 0 .0206 35.22 49.45)"/><linearGradient id="e"><stop offset="0"/><stop offset="1" stop-opacity="0"/></linearGradient><radialGradient cx="605.714" cy="486.648" r="117.143" fx="605.714" fy="486.648" id="h" xlink:href="#e" gradientUnits="userSpaceOnUse" gradientTransform="matrix(-.03133 0 0 .0206 28.78 49.45)"/><linearGradient id="f"><stop offset="0" stop-opacity="0"/><stop offset=".5"/><stop offset="1" stop-opacity="0"/></linearGradient><linearGradient x1="302.857" y1="366.648" x2="302.857" y2="609.505" id="g" xlink:href="#f" gradientUnits="userSpaceOnUse" gradientTransform="matrix(.09154 0 0 .0206 -1.085 49.45)"/></defs><path opacity=".3" fill="url(#g)" overflow="visible" d="M9.9 57h44.2v5H9.9z"/><path d="M9.9 57v5c-1.613.01-3.9-1.12-3.9-2.5S7.8 57 9.9 57z" opacity=".3" fill="url(#h)" overflow="visible"/><path d="M54.1 57v5c1.613.01 3.9-1.12 3.9-2.5S56.2 57 54.1 57z" opacity=".3" fill="url(#i)" overflow="visible"/><path d="M9 1l46 .004V59H9V1z" fill="url(#j)"/><path d="M54.5 58.5h-45v-57h45z" fill="none" stroke="url(#k)" stroke-linecap="round"/><path d="M8.5.5l47 .004V59.5h-47V.5z" fill="none" stroke="url(#l)" stroke-linejoin="round"/><path d="M15 9v1h3.19V9zm3.61 0v1h3.02V9zm3.44 0v1h2.644V9zm3.063 0v1h1.175V9zm1.595 0v1h2.602V9zm3.063 0v1h6.72V9zM15 12v1h5.078v-1zm5.58 0v1h2.435v-1zm2.897 0v1h1.133v-1zm1.636 0v1h2.183v-1zm2.686 0v1h2.18v-1zm2.64 0v1H34v-1zm4.07 0v1h4.66v-1zM15 15v1h5.623v-1zm6.043 0v1h6.043v-1zM15 18v1h3.105v-1zm3.525 0v1h2.896v-1zm3.315 0v1h2.56v-1zm5.12 6v1h2.56v-1zm2.98 0v1h2.56v-1zm2.98 0v1h3.692v-1zm4.153 0v1h.756v-1zm-9.987 9v1h3.147v-1zm3.567 0v1h2.937v-1zm3.357 0v1h2.476v-1zm-6.924 3v1h2.518v-1zm2.937 0v1h6.463v-1zm6.882 0v1h4.952v-1zm-9.82 3v1h3.274v-1zm3.736 0v1h5.75v-1zm6.17 0v1h3.95v-1zm-9.9 3v1h2.52v-1zm2.94 0v1h2.56v-1zm2.98 0v1h3.65v-1zm4.07 0v1h.758v-1zm1.177 0v1h4.74v-1zM27.01 51v1h3.272v-1zm3.692 0v1h3.02v-1zm3.483 0v1h2.6v-1zm3.02 0v1h4.154v-1zm4.615 0v1h6.756v-1z" fill="#89adc2"/><path d="M15 21v1h4.112v-1zm0 3v1h4.154v-1z" fill="#b78ed4"/><path d="M19.574 21v1h7.512v-1zm.042 3v1h6.84v-1zm1.595 21v1h6.17v-1zm6.63 0v1h2.44v-1zm2.9 0v1h5.79v-1zm6.25 0v1h3.99v-1zm4.41 0v1h1.55v-1zm2.018 0v1h.924v-1zm1.344 0v1h2.476v-1zm-21.53 3v1h1.09v-1zm1.385 0v1H26.8v-1zm2.52 0v1h2.18v-1zm2.852 0v1h3.484v-1zm3.904 0v1h4.536v-1zm5.166 0v1h3.062v-1zm3.44 0v1h.713v-1z" fill="#d48eb3"/><path d="M15 51h4.078v1H15z" fill="#de6161"/><path d="M18.693 27v1h3.02v-1zM15 30v1h1.343v-1zm4.238 3v1h2.476v-1zm.168 3v1h3.65v-1zm-.46 3v1h2.768v-1zm-.505 3v1h2.86v-1zM15 45v1h5.75v-1zm0 3v1h4.952v-1zm5.33 0v1h2.39v-1zm-.84 3v1h4.49v-1z" fill="url(#m)"/><path d="M15 27v1h3.147v-1zm0 6v1h3.693v-1zm0 3v1h3.945v-1zm0 3v1h3.4v-1zm0 3v1h2.98v-1z" fill="#94d48e"/></svg>