<svg xmlns="http://www.w3.org/2000/svg" xmlns:xlink="http://www.w3.org/1999/xlink" viewBox="0 0 64 64"><defs><linearGradient id="c"><stop offset="0" stop-color="#fff"/><stop offset=".035" stop-color="#fff" stop-opacity=".235"/><stop offset=".964" stop-color="#fff" stop-opacity=".157"/><stop offset="1" stop-color="#fff" stop-opacity=".392"/></linearGradient><linearGradient id="a"><stop offset="0"/><stop offset="1" stop-opacity="0"/></linearGradient><linearGradient id="b"><stop offset="0" stop-opacity="0"/><stop offset=".5"/><stop offset="1" stop-opacity="0"/></linearGradient><radialGradient cx="605.714" cy="486.648" r="117.143" fx="605.714" fy="486.648" id="f" xlink:href="#a" gradientUnits="userSpaceOnUse" gradientTransform="matrix(-.03213 0 0 .0206 23.863 48.45)"/><linearGradient x1="302.857" y1="366.648" x2="302.857" y2="609.505" id="e" xlink:href="#b" gradientUnits="userSpaceOnUse" gradientTransform="matrix(.114 0 0 .0206 -9.17 48.45)"/><linearGradient id="d"><stop offset="0" stop-color="#505050"/><stop offset=".262" stop-color="#2b2b2b"/><stop offset=".705" stop-color="#0a0a0a"/><stop offset="1"/></linearGradient><linearGradient xlink:href="#c" id="h" gradientUnits="userSpaceOnUse" gradientTransform="matrix(1.54054 0 0 1.21622 -4.973 5.882)" x1="40.29" y1="5.414" x2="40.29" y2="42.438"/><radialGradient xlink:href="#d" id="g" gradientUnits="userSpaceOnUse" gradientTransform="matrix(0 11.01517 -16.97582 0 202.318 -88.98)" cx="7.118" cy="9.957" fx="7.118" fy="9.957" r="12.672"/></defs><path opacity=".3" fill="url(#e)" overflow="visible" d="M4.5 56h55v5h-55z"/><path d="M4.5 56v5c-1.655.01-4-1.12-4-2.5s1.846-2.5 4-2.5z" opacity=".3" fill="url(#f)" overflow="visible"/><rect width="59" height="47" rx="2" ry="2" x="2.5" y="11.5" opacity=".9" color="#000" fill="url(#g)" overflow="visible"/><rect width="57" height="45" rx="1" ry="1" x="3.5" y="12.571" opacity=".3" fill="none" stroke="url(#h)" stroke-linecap="round" stroke-linejoin="round"/><rect width="59" height="47" rx="2" ry="2" x="2.5" y="11.5" opacity=".7" color="#000" fill="none" stroke="#000" stroke-linecap="round" stroke-linejoin="round" overflow="visible"/><path d="M25.75 29a.748.748 0 0 0-.75.75v13.5c0 .415.335.75.75.75h12.5c.416 0 .75-.334.75-.75v-13.5a.748.748 0 0 0-.75-.75h-12.5zm.25 1h1v1h-1v-1zm2.5 0h7a.5.5 0 0 1 .5.5v5a.5.5 0 0 1-.5.5h-7a.5.5 0 0 1-.5-.5v-5a.5.5 0 0 1 .5-.5zm8.5 0h1v1h-1v-1zm-11 2h1v1h-1v-1zm11 0h1v1h-1v-1zm-11 2h1v1h-1v-1zm11 0h1v1h-1v-1zm-11 2h1v1h-1v-1zm11 0h1v1h-1v-1zm-8.5 1h7a.5.5 0 0 1 .5.5v5a.5.5 0 0 1-.5.5h-7a.5.5 0 0 1-.5-.5v-5a.5.5 0 0 1 .5-.5zM26 38h1v1h-1v-1zm11 0h1v1h-1v-1zm-11 2h1v1h-1v-1zm11 0h1v1h-1v-1zm-11 2h1v1h-1v-1zm11 0h1v1h-1v-1z" color="#000" overflow="visible" opacity=".15" stroke="#000" stroke-width="2"/><path d="M25.75 29a.748.748 0 0 0-.75.75v13.5c0 .415.335.75.75.75h12.5c.416 0 .75-.334.75-.75v-13.5a.748.748 0 0 0-.75-.75h-12.5zm.25 1h1v1h-1v-1zm2.5 0h7a.5.5 0 0 1 .5.5v5a.5.5 0 0 1-.5.5h-7a.5.5 0 0 1-.5-.5v-5a.5.5 0 0 1 .5-.5zm8.5 0h1v1h-1v-1zm-11 2h1v1h-1v-1zm11 0h1v1h-1v-1zm-11 2h1v1h-1v-1zm11 0h1v1h-1v-1zm-11 2h1v1h-1v-1zm11 0h1v1h-1v-1zm-8.5 1h7a.5.5 0 0 1 .5.5v5a.5.5 0 0 1-.5.5h-7a.5.5 0 0 1-.5-.5v-5a.5.5 0 0 1 .5-.5zM26 38h1v1h-1v-1zm11 0h1v1h-1v-1zm-11 2h1v1h-1v-1zm11 0h1v1h-1v-1zm-11 2h1v1h-1v-1zm11 0h1v1h-1v-1z" color="#000" overflow="visible" opacity=".15"/><path d="M25.75 28a.748.748 0 0 0-.75.75v13.5c0 .415.335.75.75.75h12.5c.416 0 .75-.334.75-.75v-13.5a.748.748 0 0 0-.75-.75h-12.5zm.25 1h1v1h-1v-1zm2.5 0h7a.5.5 0 0 1 .5.5v5a.5.5 0 0 1-.5.5h-7a.5.5 0 0 1-.5-.5v-5a.5.5 0 0 1 .5-.5zm8.5 0h1v1h-1v-1zm-11 2h1v1h-1v-1zm11 0h1v1h-1v-1zm-11 2h1v1h-1v-1zm11 0h1v1h-1v-1zm-11 2h1v1h-1v-1zm11 0h1v1h-1v-1zm-8.5 1h7a.5.5 0 0 1 .5.5v5a.5.5 0 0 1-.5.5h-7a.5.5 0 0 1-.5-.5v-5a.5.5 0 0 1 .5-.5zM26 37h1v1h-1v-1zm11 0h1v1h-1v-1zm-11 2h1v1h-1v-1zm11 0h1v1h-1v-1zm-11 2h1v1h-1v-1zm11 0h1v1h-1v-1z" color="#000" overflow="visible" fill="#fff"/></svg>