<?xml version="1.0" encoding="UTF-8" standalone="no"?>
<svg
   xmlns:dc="http://purl.org/dc/elements/1.1/"
   xmlns:cc="http://creativecommons.org/ns#"
   xmlns:rdf="http://www.w3.org/1999/02/22-rdf-syntax-ns#"
   xmlns:svg="http://www.w3.org/2000/svg"
   xmlns="http://www.w3.org/2000/svg"
   xmlns:xlink="http://www.w3.org/1999/xlink"
   id="svg3844"
   height="64"
   width="64"
   version="1.1"
   viewBox="0 0 64 64">
  <defs
     id="defs3846">
    <linearGradient
       gradientTransform="matrix(1.0843523,0,0,1.1997367,79.550862,-4.1628601)"
       gradientUnits="userSpaceOnUse"
       xlink:href="#linearGradient3104-6"
       id="linearGradient3033"
       y2="2.9062471"
       x2="-51.786404"
       y1="50.786446"
       x1="-51.786404" />
    <linearGradient
       id="linearGradient3104-6">
      <stop
         offset="0"
         style="stop-color:#000000;stop-opacity:0.31782946"
         id="stop3106-3" />
      <stop
         offset="1"
         style="stop-color:#000000;stop-opacity:0.24031007"
         id="stop3108-9" />
    </linearGradient>
    <linearGradient
       gradientTransform="matrix(1.2162162,0,0,1.5405376,2.8108184,-6.9729501)"
       gradientUnits="userSpaceOnUse"
       xlink:href="#linearGradient3977-4"
       id="linearGradient3093"
       y2="42.175503"
       x2="23.99999"
       y1="5.8641062"
       x1="23.99999" />
    <linearGradient
       id="linearGradient3977-4">
      <stop
         offset="0"
         style="stop-color:#ffffff;stop-opacity:1"
         id="stop3979-7" />
      <stop
         offset="0"
         style="stop-color:#ffffff;stop-opacity:0.23529412"
         id="stop3981-6" />
      <stop
         offset="1"
         style="stop-color:#ffffff;stop-opacity:0.15686275"
         id="stop3983-5" />
      <stop
         offset="1"
         style="stop-color:#ffffff;stop-opacity:0.39215687"
         id="stop3985-6" />
    </linearGradient>
    <linearGradient
       gradientTransform="matrix(1.3142827,0,0,1.2602393,0.4572141,-2.1793201)"
       gradientUnits="userSpaceOnUse"
       xlink:href="#linearGradient3600-9"
       id="linearGradient3096"
       y2="47.013336"
       x2="25.132275"
       y1="0.98520643"
       x1="25.132275" />
    <linearGradient
       id="linearGradient3600-9">
      <stop
         offset="0"
         style="stop-color:#f4f4f4;stop-opacity:1"
         id="stop3602-3" />
      <stop
         offset="1"
         style="stop-color:#dbdbdb;stop-opacity:1"
         id="stop3604-7" />
    </linearGradient>
    <radialGradient
       gradientTransform="matrix(0.03132633,0,0,0.02058823,35.220859,49.45142)"
       gradientUnits="userSpaceOnUse"
       xlink:href="#linearGradient5060"
       id="radialGradient3153"
       fy="486.64789"
       fx="605.71429"
       r="117.14286"
       cy="486.64789"
       cx="605.71429" />
    <linearGradient
       id="linearGradient5060">
      <stop
         offset="0"
         style="stop-color:#000000;stop-opacity:1"
         id="stop5062" />
      <stop
         offset="1"
         style="stop-color:#000000;stop-opacity:0"
         id="stop5064" />
    </linearGradient>
    <radialGradient
       gradientTransform="matrix(-0.03132632,0,0,0.02058823,28.779136,49.45142)"
       gradientUnits="userSpaceOnUse"
       xlink:href="#linearGradient5060"
       id="radialGradient3156"
       fy="486.64789"
       fx="605.71429"
       r="117.14286"
       cy="486.64789"
       cx="605.71429" />
    <linearGradient
       id="linearGradient5048">
      <stop
         offset="0"
         style="stop-color:#000000;stop-opacity:0"
         id="stop5050" />
      <stop
         offset="0.5"
         style="stop-color:#000000;stop-opacity:1"
         id="stop5056" />
      <stop
         offset="1"
         style="stop-color:#000000;stop-opacity:0"
         id="stop5052" />
    </linearGradient>
    <linearGradient
       gradientTransform="matrix(0.09153846,0,0,0.02058823,-1.084616,49.45142)"
       gradientUnits="userSpaceOnUse"
       xlink:href="#linearGradient5048"
       id="linearGradient3842"
       y2="609.50507"
       x2="302.85715"
       y1="366.64789"
       x1="302.85715" />
    <linearGradient
       xlink:href="#linearGradient3104-5-3"
       id="linearGradient3030"
       gradientUnits="userSpaceOnUse"
       gradientTransform="matrix(1.2586111,0,0,1,-13.884583,985.31513)"
       x1="22.004084"
       y1="47.813133"
       x2="22.004084"
       y2="3.3638515" />
    <linearGradient
       id="linearGradient3104-5-3">
      <stop
         id="stop3106-2-94"
         style="stop-color:#aaaaaa;stop-opacity:1"
         offset="0" />
      <stop
         id="stop3108-5-9"
         style="stop-color:#c8c8c8;stop-opacity:1"
         offset="1" />
    </linearGradient>
    <linearGradient
       y2="3.3638515"
       x2="22.004084"
       y1="47.813133"
       x1="22.004084"
       gradientTransform="matrix(1.2586111,0,0,1,-13.884582,985.31513)"
       gradientUnits="userSpaceOnUse"
       id="linearGradient3052"
       xlink:href="#linearGradient3104-5-3" />
    <linearGradient
       y2="43"
       x2="23.99999"
       y1="5.5641499"
       x1="23.99999"
       gradientTransform="matrix(0.89189189,0,0,1.1351351,2.5945996,-4.7431896)"
       gradientUnits="userSpaceOnUse"
       id="linearGradient3066"
       xlink:href="#linearGradient3977-6" />
    <linearGradient
       id="linearGradient3977-6">
      <stop
         offset="0"
         style="stop-color:#ffffff;stop-opacity:1;"
         id="stop3979-9" />
      <stop
         id="stop3981-3"
         style="stop-color:#ffffff;stop-opacity:0.23529412;"
         offset="0.03626217" />
      <stop
         offset="0.95056331"
         style="stop-color:#ffffff;stop-opacity:0.15686275;"
         id="stop3983-7" />
      <stop
         offset="1"
         style="stop-color:#ffffff;stop-opacity:0.39215687;"
         id="stop3985-4" />
    </linearGradient>
    <radialGradient
       r="12.671875"
       fy="9.9571075"
       fx="7.2758255"
       cy="9.9571075"
       cx="7.8060555"
       gradientTransform="matrix(-1.6167311e-7,6.6018653,-8.0922115,-1.9817023e-7,104.56429,-60.07292)"
       gradientUnits="userSpaceOnUse"
       id="radialGradient3087"
       xlink:href="#linearGradient2867-449-88-871-390-598-476-591-434-148-57-177-8" />
    <linearGradient
       id="linearGradient2867-449-88-871-390-598-476-591-434-148-57-177-8">
      <stop
         offset="0"
         style="stop-color:#90dbec;stop-opacity:1;"
         id="stop3750-1" />
      <stop
         offset="0.26238"
         style="stop-color:#55c1ec;stop-opacity:1;"
         id="stop3752-3" />
      <stop
         offset="0.704952"
         style="stop-color:#3689e6;stop-opacity:1;"
         id="stop3754-1" />
      <stop
         offset="1"
         style="stop-color:#2b63a0;stop-opacity:1;"
         id="stop3756-1" />
    </linearGradient>
    <linearGradient
       y2="0.91790956"
       x2="25"
       y1="47.935162"
       x1="25"
       gradientTransform="translate(6e-7,-4.1959294e-4)"
       gradientUnits="userSpaceOnUse"
       id="linearGradient3089"
       xlink:href="#linearGradient3707-319-631-407-324-3" />
    <linearGradient
       id="linearGradient3707-319-631-407-324-3">
      <stop
         offset="0"
         style="stop-color:#185f9a;stop-opacity:1;"
         id="stop3760-4" />
      <stop
         offset="1"
         style="stop-color:#599ec9;stop-opacity:1;"
         id="stop3762-0" />
    </linearGradient>
  </defs>
  <metadata
     id="metadata3849">
    <rdf:RDF>
      <cc:Work
         rdf:about="">
        <dc:format>image/svg+xml</dc:format>
        <dc:type
           rdf:resource="http://purl.org/dc/dcmitype/StillImage" />
        <dc:title />
      </cc:Work>
    </rdf:RDF>
  </metadata>
  <rect
     width="44.199997"
     height="5"
     x="9.8999996"
     y="57.000004"
     id="rect2879"
     style="display:inline;overflow:visible;visibility:visible;opacity:0.15;fill:url(#linearGradient3842);fill-opacity:1;fill-rule:nonzero;stroke:none;stroke-width:1;marker:none" />
  <path
     d="m 9.9,57.00022 c 0,0 0,4.9997 0,4.9997 -1.6132281,0.01 -3.9,-1.1202 -3.9,-2.5002 0,-1.38 1.8002408,-2.4995 3.9,-2.4995 z"
     id="path2881"
     style="display:inline;overflow:visible;visibility:visible;opacity:0.15;fill:url(#radialGradient3156);fill-opacity:1;fill-rule:nonzero;stroke:none;stroke-width:1;marker:none" />
  <path
     d="m 54.099999,57.00022 c 0,0 0,4.9997 0,4.9997 C 55.713227,62.00992 58,60.87972 58,59.49972 c 0,-1.38 -1.800241,-2.4995 -3.900001,-2.4995 z"
     id="path2883"
     style="display:inline;overflow:visible;visibility:visible;opacity:0.15;fill:url(#radialGradient3153);fill-opacity:1;fill-rule:nonzero;stroke:none;stroke-width:1;marker:none" />
  <path
     d="m 9,0.9998799 c 10.540935,0 45.999945,0.004 45.999945,0.004 L 55,59.00002 c 0,0 -30.666666,0 -46,0 0,-19.3334 0,-38.6665 0,-57.9998201 z"
     id="path4160-6"
     style="display:inline;fill:url(#linearGradient3096);fill-opacity:1;stroke:none" />
  <path
     d="M 54.499999,58.50002 H 9.4999998 V 1.4999799 H 54.499999 Z"
     id="rect6741-1-8"
     style="fill:none;stroke:url(#linearGradient3093);stroke-width:1;stroke-linecap:round;stroke-linejoin:miter;stroke-miterlimit:4;stroke-dasharray:none;stroke-dashoffset:0;stroke-opacity:1" />
  <path
     d="m 8.4999684,0.4998999 c 10.7700936,0 47.0000286,0.004 47.0000286,0.004 l 4.9e-5,58.9962201 c 0,0 -31.333384,0 -47.0000776,0 0,-19.6668 0,-39.3334 0,-58.9999701 z"
     id="path4160-6-1"
     style="display:inline;fill:none;stroke:url(#linearGradient3033);stroke-width:0.9999218;stroke-linecap:butt;stroke-linejoin:round;stroke-miterlimit:4;stroke-dasharray:none;stroke-dashoffset:0;stroke-opacity:1" />
  <path
     d="m 15,59.50002 c -3.613947,-0.07 -6.2230518,0.142 -6.3745132,0 -0.1514614,-0.142 -0.1769312,-1.2347 -0.1769312,-3.1871 0,-18.5095 0,-37.0187 0,-55.52822959 l 0.1175462,-0.21777 0.085934,-0.12092 v 0.054 c 1.8259352,0 4.4504652,0 6.2763922,0"
     id="path4530"
     style="color:#000000;display:inline;overflow:visible;visibility:visible;fill:url(#radialGradient3087);fill-opacity:1;fill-rule:nonzero;stroke:url(#linearGradient3089);stroke-width:1;stroke-linecap:butt;stroke-linejoin:round;stroke-miterlimit:4;stroke-dasharray:none;stroke-dashoffset:0;stroke-opacity:1;marker:none;enable-background:accumulate" />
  <path
     id="rect6741-1-5"
     d="M 14.507207,58.50002 H 9.4199776 V 1.5000004 h 5.0050974"
     style="opacity:0.5;fill:none;stroke:url(#linearGradient3066);stroke-width:1;stroke-linecap:square;stroke-linejoin:round;stroke-miterlimit:4;stroke-dasharray:none;stroke-dashoffset:0;stroke-opacity:1" />
  <g
     id="g3027"
     transform="matrix(-0.79452662,0,0,1,60.700646,-988.3622)">
    <path
       style="fill:none;stroke:url(#linearGradient3030);stroke-width:1.12187839px;stroke-linecap:butt;stroke-linejoin:miter;stroke-opacity:1"
       id="path3475-4"
       d="m 13.625,997.86239 h 3.43907 z m 3.943467,0 h 3.209799 z m 3.714196,0 h 2.842964 z m 3.301507,0 h 1.238066 z m 1.742462,0 h 2.751256 z m 3.301507,0 h 7.244975 z m 7.703518,0 h 5.548367 z m 6.006909,0 h 1.696609 z m -29.713566,2 h 5.364949 z m 5.961054,0 h 2.56784 z m 3.026382,0 h 1.283919 z m 1.788316,0 h 2.338569 z m 2.842966,0 h 2.384421 z m 2.842964,0 h 3.805905 z m 4.310302,0 h 4.952261 z m 5.410803,0 h 3.301507 z m 3.760051,0 h 0.825377 z M 13.625,1001.8467 h 4.539572 z m 4.998115,0 h 7.428391 z m 7.886934,0 h 3.622487 z m 4.08103,0 h 3.393216 z m 3.851759,0 h 2.888819 z m 3.347362,0 4.539572,0.031 z m 4.952261,0.031 h 7.382538 z M 13.625,1003.8622 h 6.282034 z m 6.786431,0 h 6.786432 z m 7.244975,0 h 2.705402 z m 3.163945,0 h 6.373743 z m 6.786431,0 h 4.356156 z m 4.860553,0 h 1.742462 z m 2.201005,0 h 0.962939 z m 1.467336,0 h 2.705403 z m -32.510676,2 h 2.338567 z m 3.072236,0 h 8.666456 z m -3.072236,3.9844 h 4.539572 z m 4.998115,0 h 7.428391 z m 7.886934,0 h 3.622487 z m 4.08103,0 h 3.393216 z m 3.851759,0 h 2.888819 z m 3.347362,0 4.539572,0.031 z m 4.952261,0.031 h 7.382538 z M 13.625,1011.8622 h 3.43907 z m 3.943467,0 h 3.163945 z m 3.714196,0 h 2.842964 z m 3.301507,0 h 1.238066 z m 1.742462,0 h 2.751256 z m 3.301507,0 h 7.199121 z m 7.703518,0 h 5.502512 z m 5.961055,0 h 1.742463 z m 2.201005,0 h 4.126885 z m -31.868717,2 h 5.777637 z m 6.23618,0 h 6.190326 z m 6.648869,0 h 2.384423 z m 2.842965,0 h 5.823492 z m 6.282035,0 h 7.336683 z m 7.84108,0 h 2.705402 z m -29.851129,2 h 6.282034 z m 6.786431,0 h 6.786432 z m 7.244975,0 h 2.705402 z m 3.163945,0 h 6.373743 z m 6.786431,0 h 4.356156 z m 4.860553,0 h 1.742462 z m 2.201005,0 h 0.962939 z m 1.467336,0 h 2.705403 z m -32.510676,2 h 5.364949 z m 5.961054,0 h 2.56784 z m 3.026382,0 h 1.283919 z m 1.788316,0 h 2.338569 z m 2.842966,0 h 2.384421 z m 2.842964,0 h 3.805905 z m 4.310302,0 h 4.952261 z m 5.410803,0 h 3.301507 z m 3.760051,0 h 0.825377 z M 13.625,1021.8466 h 4.539572 z m 4.998115,0 h 7.428391 z m 7.886934,0 h 3.622487 z m 4.08103,0 h 3.393216 z m 3.851759,0 h 2.888819 z m 3.347362,0 4.539572,0.031 z m 4.952261,0.031 h 7.382538 z M 13.625,1023.8622 h 5.364949 z m 5.961054,0 h 2.56784 z m 3.026382,0 h 1.283919 z m 1.788316,0 h 2.338569 z m 2.842966,0 h 2.384421 z m 2.842964,0 h 3.805905 z m 4.310302,0 h 4.952261 z m 5.410803,0 h 3.301507 z m 3.760051,0 h 0.825377 z m -29.942838,2 h 5.685928 z m 6.190325,0 h 1.788317 z m 2.24686,0 h 4.08103 z m 4.539573,0 h 6.006909 z m 6.511306,0 h 4.08103 z m 4.493718,0 h 0.871232 z m 1.329775,0 h 5.181531 z m 5.731783,0 h 2.705402 z m -31.04334,2 h 5.685928 z m 6.190325,0 h 2.567839 z m 3.026382,0 h 4.035176 z m 4.493719,0 h 4.356156 z m 4.860553,0 h 1.742462 z m 2.201005,0 h 0.96294 z m 1.467336,0 h 2.705402 z" />
    <path
       style="fill:none;stroke:url(#linearGradient3052);stroke-width:1.12187839px;stroke-linecap:butt;stroke-linejoin:miter;stroke-opacity:1"
       id="path3475-2-1"
       d="m 13.625,1031.8624 h 3.43907 z m 3.943467,0 h 3.209799 z m 3.714196,0 h 2.842964 z m 3.301507,0 h 1.238066 z m 1.742462,0 h 2.751256 z m 3.301507,0 h 7.244975 z m 7.703518,0 h 5.548367 z m 6.006909,0 h 1.696609 z M 13.625,1033.8467 h 4.539572 z m 4.998115,0 h 7.428391 z m 7.886934,0 h 3.622487 z m 4.08103,0 h 3.393216 z m 3.851759,0 h 2.888819 z m 3.347362,0 4.539572,0.031 z m 4.952261,0.031 h 7.382538 z M 13.625,1035.8622 h 6.282034 z m 6.786431,0 h 6.786432 z m 7.244975,0 h 2.705402 z m 3.163945,0 h 6.373743 z m 6.786431,0 h 4.356156 z m 4.860553,0 h 1.742462 z m 2.201005,0 h 0.962939 z m 1.467336,0 h 2.705403 z m -32.510676,2 h 2.338567 z m 3.072236,0 h 8.666456 z m -3.072236,0 h 5.777637 z m 6.23618,0 h 6.190326 z m 6.648869,0 h 2.384423 z m 2.842965,0 h 5.823492 z m 6.282035,0 h 7.336683 z m 7.84108,0 h 2.705402 z" />
  </g>
</svg>
