<?xml version="1.0" encoding="UTF-8" standalone="no"?>
<!-- Created with Inkscape (http://www.inkscape.org/) -->
<svg
   xmlns:svg="http://www.w3.org/2000/svg"
   xmlns="http://www.w3.org/2000/svg"
   xmlns:xlink="http://www.w3.org/1999/xlink"
   version="1.0"
   width="16"
   height="16"
   id="svg2">
  <defs
     id="defs4">
    <linearGradient
       id="linearGradient3587-6-5">
      <stop
         id="stop3589-9-2"
         style="stop-color:#e6e6e6;stop-opacity:1"
         offset="0" />
      <stop
         id="stop3591-7-4"
         style="stop-color:#ffffff;stop-opacity:1"
         offset="1" />
    </linearGradient>
    <linearGradient
       x1="35.007519"
       y1="23.178743"
       x2="35.007519"
       y2="4.9945626"
       id="linearGradient3161"
       xlink:href="#linearGradient3587-6-5"
       gradientUnits="userSpaceOnUse"
       gradientTransform="translate(-28.785715,-6.035714)" />
  </defs>
  <path
     d="M 8,1 C 3.5840001,1 -1.9999999e-07,4.5840001 8.5487173e-15,9 C 8.5487173e-15,13.416 3.5840002,17 8,17 C 12.416,17 16,13.416 16,9 C 16,4.5840001 12.416,1.0000002 8,1 z M 8,6 C 9.656,6 11,7.344 11,9 C 11,10.656 9.656,12 8,12 C 6.344,12 5,10.656 5,9 C 5.0000001,7.344 6.344,6 8,6 z"
     id="path3229"
     style="opacity:0.5;fill:#000000;fill-opacity:1;fill-rule:evenodd;stroke:none;stroke-width:1;stroke-linecap:butt;stroke-linejoin:miter;marker:none;marker-start:none;marker-mid:none;marker-end:none;stroke-miterlimit:4;stroke-dasharray:none;stroke-dashoffset:0;stroke-opacity:1;visibility:visible;display:inline;overflow:visible;enable-background:accumulate" />
  <path
     d="M 8,0 C 3.5840001,0 -1.9999999e-07,3.5840001 8.5487173e-15,8 C 8.5487173e-15,12.416 3.5840002,16 8,16 C 12.416,16 16,12.416 16,8 C 16,3.5840001 12.416,2e-07 8,0 z M 8,5 C 9.656,5.0000001 11,6.344 11,8 C 11,9.656 9.656,11 8,11 C 6.344,11 5,9.656 5,8 C 5.0000001,6.344 6.344,5 8,5 z"
     id="path3170"
     style="opacity:1;fill:url(#linearGradient3161);fill-opacity:1;fill-rule:evenodd;stroke:none;stroke-width:1;stroke-linecap:butt;stroke-linejoin:miter;marker:none;marker-start:none;marker-mid:none;marker-end:none;stroke-miterlimit:4;stroke-dasharray:none;stroke-dashoffset:0;stroke-opacity:1;visibility:visible;display:inline;overflow:visible;enable-background:accumulate" />
</svg>
