<?xml version="1.0" encoding="UTF-8" standalone="no"?>
<!-- Created with Inkscape (http://www.inkscape.org/) -->

<svg
   xmlns:dc="http://purl.org/dc/elements/1.1/"
   xmlns:cc="http://creativecommons.org/ns#"
   xmlns:rdf="http://www.w3.org/1999/02/22-rdf-syntax-ns#"
   xmlns:svg="http://www.w3.org/2000/svg"
   xmlns="http://www.w3.org/2000/svg"
   xmlns:xlink="http://www.w3.org/1999/xlink"
   version="1.1"
   width="31.999641"
   height="31.999641"
   id="svg4042">
  <defs
     id="defs4044">
    <linearGradient
       x1="73.85141"
       y1="3.057656"
       x2="73.85141"
       y2="35.20842"
       id="linearGradient3079-7"
       xlink:href="#linearGradient3964"
       gradientUnits="userSpaceOnUse"
       gradientTransform="matrix(1.0746673,0,0,1.3620658,-50.74054,-2.1535351)" />
    <linearGradient
       id="linearGradient3964">
      <stop
         id="stop3966"
         style="stop-color:#ffffff;stop-opacity:1"
         offset="0" />
      <stop
         id="stop3968"
         style="stop-color:#ffffff;stop-opacity:0.23529412"
         offset="0.12321826" />
      <stop
         id="stop3970"
         style="stop-color:#ffffff;stop-opacity:0.15686275"
         offset="0.88621914" />
      <stop
         id="stop3972"
         style="stop-color:#ffffff;stop-opacity:0.39215687"
         offset="1" />
    </linearGradient>
    <linearGradient
       id="linearGradient5578-678-854-806-6">
      <stop
         id="stop2504-4"
         style="stop-color:#dadada;stop-opacity:1"
         offset="0" />
      <stop
         id="stop2506-3"
         style="stop-color:#717171;stop-opacity:1"
         offset="1" />
    </linearGradient>
    <linearGradient
       x1="24.638437"
       y1="7.4950299"
       x2="24.638437"
       y2="39.117203"
       id="linearGradient4040"
       xlink:href="#linearGradient5578-678-854-806-6"
       gradientUnits="userSpaceOnUse"
       gradientTransform="matrix(1.4297879,0,0,1.3899564,-10.404266,-8.4248417)" />
    <linearGradient
       x1="73.85141"
       y1="3.057656"
       x2="73.85141"
       y2="35.20842"
       id="linearGradient3079-7-9"
       xlink:href="#linearGradient3964-4"
       gradientUnits="userSpaceOnUse"
       gradientTransform="matrix(1.0746673,0,0,1.3620658,-50.74054,-2.1535351)" />
    <linearGradient
       id="linearGradient3964-4">
      <stop
         id="stop3966-3"
         style="stop-color:#ffffff;stop-opacity:1"
         offset="0" />
      <stop
         id="stop3968-5"
         style="stop-color:#ffffff;stop-opacity:0.23529412"
         offset="0.12321826" />
      <stop
         id="stop3970-1"
         style="stop-color:#ffffff;stop-opacity:0.15686275"
         offset="0.88621914" />
      <stop
         id="stop3972-7"
         style="stop-color:#ffffff;stop-opacity:0.39215687"
         offset="1" />
    </linearGradient>
    <linearGradient
       x1="73.85141"
       y1="3.057656"
       x2="73.85141"
       y2="35.20842"
       id="linearGradient3838"
       xlink:href="#linearGradient3964-4"
       gradientUnits="userSpaceOnUse"
       gradientTransform="matrix(0.71858351,0,0,0.9313232,-33.810924,13.95255)" />
    <linearGradient
       x1="24.638437"
       y1="7.4950299"
       x2="24.638437"
       y2="39.117203"
       id="linearGradient3841"
       xlink:href="#linearGradient5578-678-854-806-6"
       gradientUnits="userSpaceOnUse"
       gradientTransform="matrix(0.95603729,0,0,0.95039361,-6.8398035,9.6644953)" />
  </defs>
  <metadata
     id="metadata4047">
    <rdf:RDF>
      <cc:Work
         rdf:about="">
        <dc:format>image/svg+xml</dc:format>
        <dc:type
           rdf:resource="http://purl.org/dc/dcmitype/StillImage" />
        <dc:title></dc:title>
      </cc:Work>
    </rdf:RDF>
  </metadata>
  <g
     transform="translate(-0.1648401,-15.835521)"
     id="layer1">
    <path
       d="m 15.767825,16.835298 c -1.336603,-0.394936 -2.560147,1.268663 -3.677612,0.726492 -0.484423,-0.392783 -0.852844,1.203519 -1.650746,0.555554 -0.02176,1.011803 -1.8194631,1.713019 -2.0641399,2.992076 -0.7594938,2.029219 -0.1602964,4.250065 -0.4642183,6.345492 -0.9501545,0.931338 -0.3347028,2.507682 -0.2334876,3.701585 0.220737,1.615104 1.8102784,2.36657 2.4925298,3.731226 1.054878,1.277652 1.151826,3.217918 -0.3707362,4.159471 -2.2511245,1.963343 -4.952552,3.290334 -7.6345747,4.518762 0,1.08974 0,2.179479 0,3.269218 9.3333329,0 18.6666669,0 27.9999999,0 0,-1.139597 0,-2.279193 0,-3.41879 -2.911555,-1.268615 -5.876374,-2.723197 -8.101753,-5.080426 -1.186415,-1.202166 -0.06718,-2.882701 0.661245,-4.005736 0.698127,-1.07214 1.960563,-1.78874 2.133484,-3.173949 0.192991,-1.281207 0.581297,-2.799119 -0.225054,-3.882893 -0.381486,-2.293743 0.395917,-4.865217 -0.861952,-6.955191 -1.551826,-2.070105 -4.183797,-2.9208 -6.600745,-3.368194 -0.464263,-0.06931 -0.932877,-0.111739 -1.40224,-0.114697 z"
       id="path4014"
       style="color:#000000;fill:url(#linearGradient3841);fill-opacity:1;fill-rule:nonzero;stroke:none;stroke-width:1.005;marker:none;visibility:visible;display:block;overflow:visible;enable-background:accumulate" />
    <path
       d="m 15.767825,17.390851 c -1.427422,-0.106977 -2.897832,1.046117 -4.001927,1.047524 -1.225437,0.585637 -1.552806,0.869943 -2.4775717,2.17869 -1.159085,1.597789 -0.6582959,3.723775 -0.7443119,5.568379 0.1847826,1.464259 -1.0056329,2.409585 -0.486637,3.897662 -0.047334,1.474367 0.9018468,2.54063 1.8695315,3.487834 0.8904671,1.194283 1.9564231,2.697586 1.5139821,4.27266 -1.049464,1.965679 -3.1116999,3.050421 -4.9295781,4.157611 -1.213137,0.741649 -2.6576907,1.281807 -3.8031892,1.989335 0,0.763025 0,1.52605 0,2.289074 8.9711443,0 17.9422883,0 26.9134333,0 0,-0.840452 0,-1.680904 0,-2.521357 -2.934719,-1.315628 -5.986517,-2.754027 -8.137729,-5.261803 -1.12546,-1.347049 -0.11004,-3.118413 0.696092,-4.346802 0.677781,-1.160499 2.09461,-1.857053 2.19437,-3.328806 0.454491,-1.46986 0.0041,-2.756503 -0.352733,-4.1138 -0.209888,-1.960034 0.316149,-4.11013 -0.613336,-5.929367 -1.237053,-1.817946 -3.468383,-2.568377 -5.474045,-3.108281 -0.710963,-0.162771 -1.436701,-0.272575 -2.166351,-0.278553 z m -4.826865,0.534186 c -0.05574,0.394838 0.133491,0.102508 0,0 z"
       id="path4014-1"
       style="opacity:0.4;color:#000000;fill:none;stroke:url(#linearGradient3838);stroke-width:1;stroke-linecap:round;stroke-linejoin:miter;stroke-miterlimit:4;stroke-opacity:1;stroke-dasharray:none;stroke-dashoffset:0;marker:none;visibility:visible;display:inline;overflow:visible;enable-background:accumulate" />
  </g>
</svg>
