<?xml version="1.0" encoding="UTF-8" standalone="no"?>
<!-- Created with Inkscape (http://www.inkscape.org/) -->

<svg
   xmlns:svg="http://www.w3.org/2000/svg"
   xmlns="http://www.w3.org/2000/svg"
   xmlns:xlink="http://www.w3.org/1999/xlink"
   version="1.1"
   width="48"
   height="48"
   id="svg3309">
  <defs
     id="defs3311">
    <radialGradient
       cx="605.71429"
       cy="486.64789"
       r="117.14286"
       fx="605.71429"
       fy="486.64789"
       id="radialGradient4424"
       xlink:href="#linearGradient5060"
       gradientUnits="userSpaceOnUse"
       gradientTransform="matrix(0.02409717,0,0,0.01537476,26.477584,38.629039)" />
    <linearGradient
       id="linearGradient5060">
      <stop
         id="stop5062"
         style="stop-color:black;stop-opacity:1"
         offset="0" />
      <stop
         id="stop5064"
         style="stop-color:black;stop-opacity:0"
         offset="1" />
    </linearGradient>
    <radialGradient
       cx="605.71429"
       cy="486.64789"
       r="117.14286"
       fx="605.71429"
       fy="486.64789"
       id="radialGradient4422"
       xlink:href="#linearGradient5060"
       gradientUnits="userSpaceOnUse"
       gradientTransform="matrix(-0.02409717,0,0,0.01537476,21.522412,38.629039)" />
    <linearGradient
       id="linearGradient5048">
      <stop
         id="stop5050"
         style="stop-color:black;stop-opacity:0"
         offset="0" />
      <stop
         id="stop5056"
         style="stop-color:black;stop-opacity:1"
         offset="0.5" />
      <stop
         id="stop5052"
         style="stop-color:black;stop-opacity:0"
         offset="1" />
    </linearGradient>
    <linearGradient
       x1="302.85715"
       y1="366.64789"
       x2="302.85715"
       y2="609.50507"
       id="linearGradient4420"
       xlink:href="#linearGradient5048"
       gradientUnits="userSpaceOnUse"
       gradientTransform="matrix(0.0704142,0,0,0.01537476,-1.4497047,38.629007)" />
    <linearGradient
       id="linearGradient3104">
      <stop
         id="stop3106"
         style="stop-color:#aaa;stop-opacity:1"
         offset="0" />
      <stop
         id="stop3108"
         style="stop-color:#d2d2d2;stop-opacity:1"
         offset="1" />
    </linearGradient>
    <linearGradient
       id="linearGradient3600">
      <stop
         id="stop3602"
         style="stop-color:#f4f4f4;stop-opacity:1"
         offset="0" />
      <stop
         id="stop3604"
         style="stop-color:#dbdbdb;stop-opacity:1"
         offset="1" />
    </linearGradient>
    <linearGradient
       id="linearGradient8589">
      <stop
         id="stop8591"
         style="stop-color:#fefefe;stop-opacity:1"
         offset="0" />
      <stop
         id="stop8593"
         style="stop-color:#cbcbcb;stop-opacity:1"
         offset="1" />
    </linearGradient>
    <linearGradient
       x1="32.892288"
       y1="8.0590115"
       x2="36.358372"
       y2="5.4565363"
       id="linearGradient3135"
       xlink:href="#linearGradient8589"
       gradientUnits="userSpaceOnUse"
       gradientTransform="matrix(0.9976985,0,0,1.0642049,1.1638,-0.13926)" />
    <linearGradient
       x1="25.132275"
       y1="6.7287393"
       x2="25.132275"
       y2="47.013336"
       id="linearGradient3476"
       xlink:href="#linearGradient3600"
       gradientUnits="userSpaceOnUse"
       gradientTransform="translate(1,0)" />
    <linearGradient
       x1="-51.786404"
       y1="50.786446"
       x2="-51.786404"
       y2="2.9062471"
       id="linearGradient3478"
       xlink:href="#linearGradient3104"
       gradientUnits="userSpaceOnUse"
       gradientTransform="matrix(0.8074968,0,0,0.9358511,60.41023,-1.11448)" />
    <radialGradient
       cx="16.960728"
       cy="5.8834233"
       r="22.105263"
       fx="16.960728"
       fy="5.8834233"
       id="radialGradient3740"
       xlink:href="#linearGradient3720"
       gradientUnits="userSpaceOnUse"
       gradientTransform="matrix(0,2,-1.3459458,0,28.918769,-35.007719)" />
    <linearGradient
       id="linearGradient3720">
      <stop
         id="stop3722"
         style="stop-color:#8badea;stop-opacity:1"
         offset="0" />
      <stop
         id="stop3728"
         style="stop-color:#6396cd;stop-opacity:1"
         offset="0.5" />
      <stop
         id="stop3730"
         style="stop-color:#3b7caf;stop-opacity:1"
         offset="0.84090906" />
      <stop
         id="stop3724"
         style="stop-color:#194c70;stop-opacity:1"
         offset="1" />
    </linearGradient>
    <linearGradient
       x1="10.148324"
       y1="43.124264"
       x2="10.550242"
       y2="-1.086264"
       id="linearGradient3769"
       xlink:href="#linearGradient3763"
       gradientUnits="userSpaceOnUse" />
    <linearGradient
       id="linearGradient3763">
      <stop
         id="stop3765"
         style="stop-color:#1f4b6a;stop-opacity:1"
         offset="0" />
      <stop
         id="stop3767"
         style="stop-color:#4083c2;stop-opacity:1"
         offset="1" />
    </linearGradient>
    <linearGradient
       id="linearGradient4544-1">
      <stop
         id="stop4546-5"
         style="stop-color:white;stop-opacity:1"
         offset="0" />
      <stop
         id="stop4548-9"
         style="stop-color:white;stop-opacity:0"
         offset="1" />
    </linearGradient>
    <linearGradient
       x1="21"
       y1="-1.2162945"
       x2="21"
       y2="43.254292"
       id="linearGradient2945"
       xlink:href="#linearGradient4544-1"
       gradientUnits="userSpaceOnUse" />
  </defs>
  <g
     transform="matrix(0.9561265,0,0,0.9561265,2.05296,2.10593)"
     id="g3704"
     style="display:inline">
    <rect
       width="34"
       height="3.7338707"
       x="7"
       y="44.266129"
       id="rect3706"
       style="opacity:0.40206185;fill:url(#linearGradient4420);fill-opacity:1;fill-rule:nonzero;stroke:none;stroke-width:1;marker:none;visibility:visible;display:inline;overflow:visible" />
    <path
       d="m 7,44.266291 c 0,0 0,3.733665 0,3.733665 -1.2409448,0.007 -3,-0.836525 -3,-1.867073 0,-1.030547 1.3848007,-1.866591 3,-1.866592 z"
       id="path3708"
       style="opacity:0.40206185;fill:url(#radialGradient4422);fill-opacity:1;fill-rule:nonzero;stroke:none;stroke-width:1;marker:none;visibility:visible;display:inline;overflow:visible" />
    <path
       d="m 41,44.266291 c 0,0 0,3.733665 0,3.733665 1.240944,0.007 3,-0.836525 3,-1.867073 0,-1.030547 -1.384801,-1.866591 -3,-1.866592 z"
       id="path3710"
       style="opacity:0.40206185;fill:url(#radialGradient4424);fill-opacity:1;fill-rule:nonzero;stroke:none;stroke-width:1;marker:none;visibility:visible;display:inline;overflow:visible" />
  </g>
  <path
     d="m 7.49996,1.49996 c 8.02029,0 16.04059,0 24.06088,0 1.40694,0.48538 8.96546,6.01514 10.9392,9.84395 0,11.71871 0,23.43742 0,35.15613 -11.66669,0 -23.33339,0 -35.00008,0 0,-15.00003 0,-30.00005 0,-45.00008 z"
     id="path3712"
     style="fill:url(#linearGradient3476);fill-opacity:1;stroke:url(#linearGradient3478);stroke-width:0.9999218;stroke-linecap:butt;stroke-linejoin:round;stroke-miterlimit:4;stroke-opacity:1;stroke-dasharray:none;stroke-dashoffset:0;display:inline" />
  <path
     d="M 11.5,34.5 C 25,35 26,18 38.5,18.5"
     id="path2879"
     style="fill:none;stroke:#828282;stroke-width:1px;stroke-linecap:butt;stroke-linejoin:miter;stroke-opacity:1" />
  <path
     d="m 30.76754,1.81462 c 0.6375,4.12506 0.60946,9.03447 0.60946,9.03447 0,0 4.86973,-0.1115 10.88525,0.59393 C 37.36537,6.65522 33.9338,4.65884 30.76754,1.81462 z"
     id="path3755"
     style="fill:black;fill-opacity:0.32663317;fill-rule:evenodd;stroke:black;stroke-width:0.5;stroke-linecap:butt;stroke-linejoin:round;stroke-miterlimit:4;stroke-opacity:0.16582917;stroke-dasharray:none;display:inline" />
  <path
     d="m 30.65792,1.50793 c 1.41222,4.1225 1.29509,8.2607 1.29509,8.2607 0,0 7.833,0.54731 10.17514,1.59393 C 43.021788,8.7577822 33.07697,1.2908203 30.65792,1.50793 z"
     id="path3757"
     style="fill:url(#linearGradient3135);fill-opacity:1;fill-rule:evenodd;stroke:none;display:inline" />
  <circle
     cx="74"
     cy="43"
     r="5"
     transform="matrix(0.5,0,0,0.5,-11.5,-8)"
     id="circle3164" />
  <circle
     cx="74"
     cy="111"
     r="5"
     transform="matrix(0.5,0,0,0.5,-11.5,-17)"
     id="circle3168" />
  <g
     transform="matrix(0.5,0,0,0.35294116,-11.5,-0.646704)"
     id="g3174">
    <rect
       width="2"
       height="66"
       x="73"
       y="43"
       id="rect3176" />
  </g>
  <path
     d="M 24,26.5 C 24,27.326875 24.673125,28 25.500001,28 26.326875,28 27,27.326875 27,26.5 27,25.673125 26.326875,25 25.500001,25 24.673125,25 24,25.673125 24,26.5 z"
     id="path3178" />
  <circle
     cx="74"
     cy="77"
     r="3"
     transform="matrix(0.33333333,0,0,0.33333333,0.83333357,0.8333336)"
     id="circle3180"
     style="fill:#f96c00" />
  <rect
     width="4"
     height="4"
     x="10"
     y="32.059181"
     id="rect3186" />
  <rect
     width="2"
     height="2"
     x="11"
     y="33"
     id="rect3188"
     style="fill:white" />
  <g
     transform="translate(76.808251,-2.8915678)"
     id="g2663">
    <circle
       cx="21"
       cy="21.018999"
       r="21"
       transform="matrix(0.452381,0,0,0.452381,-76.308251,3.3829709)"
       id="circle51"
       style="fill:url(#radialGradient3740);fill-opacity:1;stroke:url(#linearGradient3769);stroke-width:2.21052623;stroke-miterlimit:4;stroke-opacity:1;stroke-dasharray:none" />
    <path
       d="m -75.803479,14.833209 c -0.08842,0.01047 6.61631,-1.072907 9.087814,6.058357 1.541627,-6.617505 8.965754,-6.678857 8.903761,-6.675865 0.176846,0 -6.114127,-1.674452 -8.946531,2.588245 -2.874691,-3.763405 -9.2488,-1.970737 -9.045044,-1.970737 z"
       id="path4552"
       style="fill:#173561;fill-opacity:1" />
    <path
       d="m -75.895351,13.833209 c -0.08842,0.01047 6.61631,-1.072907 9.087815,6.058357 1.541627,-6.617505 8.965754,-6.678857 8.903761,-6.675865 0.176846,0 -6.114127,-1.674452 -8.946531,2.588245 -2.874692,-3.763405 -9.248801,-1.970737 -9.045045,-1.970737 z"
       id="path53"
       style="fill:white" />
    <path
       d="m -70.808251,9.4139472 c 0,0 3.991302,-0.863334 5.556369,3.4776188 0.980536,-4.0480948 5.443631,-3.7033338 5.443631,-3.7033338 0,0 -3.63035,-1.4157139 -5.470157,1.2461908 -1.881018,-2.3685713 -5.531264,-1.0204758 -5.529843,-1.0204758 z"
       id="path4554"
       style="fill:#173561;fill-opacity:1" />
    <path
       d="m -70.808251,8.4139472 c 0,0 3.991302,-0.8633336 5.556369,3.4776188 0.980536,-4.0480953 5.443631,-3.7033334 5.443631,-3.7033334 0,0 -3.63035,-1.4157143 -5.470157,1.2461906 -1.881018,-2.3685715 -5.531264,-1.020476 -5.529843,-1.020476 z"
       id="path55"
       style="fill:white" />
    <circle
       cx="21"
       cy="21.018999"
       r="21"
       transform="matrix(0.4047619,0,0,0.4047619,-75.308251,4.3838757)"
       id="circle4534"
       style="opacity:0.3;fill:none;stroke:url(#linearGradient2945);stroke-width:2.47058821;stroke-miterlimit:4;stroke-opacity:1;stroke-dasharray:none" />
  </g>
  <rect
     width="4"
     height="4"
     x="36"
     y="16.059181"
     id="rect3653" />
  <rect
     width="2"
     height="2"
     x="37"
     y="17"
     id="rect3655"
     style="fill:white" />
</svg>
