<?xml version="1.0" encoding="UTF-8" standalone="no"?>
<!-- Created with Inkscape (http://www.inkscape.org/) -->
<svg id="svg3082" xmlns="http://www.w3.org/2000/svg" height="48" width="48" version="1.1" xmlns:xlink="http://www.w3.org/1999/xlink">
 <defs id="defs3084">
  <linearGradient id="linearGradient5060">
   <stop id="stop5062" offset="0"/>
   <stop id="stop5064" style="stop-opacity:0" offset="1"/>
  </linearGradient>
  <linearGradient id="linearGradient4168">
   <stop id="stop4170" style="stop-color:#f8cd70" offset="0"/>
   <stop id="stop4172" style="stop-color:#cc9110" offset="1"/>
  </linearGradient>
  <linearGradient id="linearGradient5557" y2="609.51" gradientUnits="userSpaceOnUse" x2="302.86" gradientTransform="matrix(2.7744 0 0 1.9697 -1892.2 -872.89)" y1="366.65" x1="302.86">
   <stop id="stop5050" style="stop-opacity:0" offset="0"/>
   <stop id="stop5056" offset=".5"/>
   <stop id="stop5052" style="stop-opacity:0" offset="1"/>
  </linearGradient>
  <radialGradient id="radialGradient5559" xlink:href="#linearGradient5060" gradientUnits="userSpaceOnUse" cy="486.65" cx="605.71" gradientTransform="matrix(2.7744 0 0 1.9697 -1891.6 -872.89)" r="117.14"/>
  <radialGradient id="radialGradient5561" xlink:href="#linearGradient5060" gradientUnits="userSpaceOnUse" cy="486.65" cx="605.71" gradientTransform="matrix(-2.7744 0 0 1.9697 112.76 -872.89)" r="117.14"/>
  <radialGradient id="radialGradient2875" xlink:href="#linearGradient4168" gradientUnits="userSpaceOnUse" cy="9.9662" cx="40.128" gradientTransform="matrix(1.8725 .0000022096 -.0000022597 1.9134 -42.642 -9.5692)" r="1.0607"/>
  <radialGradient id="radialGradient2878" xlink:href="#linearGradient4168" gradientUnits="userSpaceOnUse" cy="9.9662" cx="40.128" gradientTransform="matrix(1.8725 .0000022587 -.0000022597 1.8717 -38.642 -9.1541)" r="1.0607"/>
  <radialGradient id="radialGradient2881" xlink:href="#linearGradient4168" gradientUnits="userSpaceOnUse" cy="9.9662" cx="40.128" gradientTransform="matrix(1.8725 -1.5971e-7 1.5267e-7 1.7884 -34.642 -8.3239)" r="1.0607"/>
  <linearGradient id="linearGradient2884" y2="40" gradientUnits="userSpaceOnUse" x2="24" gradientTransform="matrix(1.0526 0 0 1.0741 -1.2632 -.96296)" y1="13" x1="24">
   <stop id="stop6459" style="stop-color:#fff;stop-opacity:.94118" offset="0"/>
   <stop id="stop6461" style="stop-color:#fff;stop-opacity:.70588" offset="1"/>
  </linearGradient>
  <linearGradient id="linearGradient2887" y2="38.927" gradientUnits="userSpaceOnUse" x2="15.935" gradientTransform="matrix(1.3226 0 0 1.2414 -9.0645 -5.2931)" y1="9.0735" x1="16.034">
   <stop id="stop3317" style="stop-color:#fff" offset="0"/>
   <stop id="stop3319" style="stop-color:#fff;stop-opacity:0" offset="1"/>
  </linearGradient>
  <linearGradient id="linearGradient2890" y2="39.924" gradientUnits="userSpaceOnUse" x2="21.78" gradientTransform="matrix(1.303 0 0 1.2459 -8.5757 -5.7131)" y1="8.5763" x1="21.866">
   <stop id="stop2783" style="stop-color:#505050" offset="0"/>
   <stop id="stop6301" style="stop-color:#6e6e6e" offset=".13216"/>
   <stop id="stop2785" style="stop-color:#8c8c8c" offset="1"/>
  </linearGradient>
  <linearGradient id="linearGradient3280" y2="81.926" gradientUnits="userSpaceOnUse" x2="335.3" gradientTransform="translate(55.75 906.78)" y1="64.295" x1="304.76">
   <stop id="stop4436" style="stop-color:#d3d7cf" offset="0"/>
   <stop id="stop4438" style="stop-color:#babdb6" offset=".18304"/>
   <stop id="stop4440" style="stop-color:#fff" offset=".31893"/>
   <stop id="stop4442" style="stop-color:#babdb6" offset=".87644"/>
   <stop id="stop4444" style="stop-color:#eeeeec" offset="1"/>
  </linearGradient>
  <linearGradient id="linearGradient3282" y2="99.274" gradientUnits="userSpaceOnUse" x2="330.06" gradientTransform="translate(55.75 906.78)" y1="70.282" x1="324.5">
   <stop id="stop7446" style="stop-color:#888a85" offset="0"/>
   <stop id="stop7448" style="stop-color:#555753" offset="1"/>
  </linearGradient>
  <linearGradient id="linearGradient3284" y2="60.768" gradientUnits="userSpaceOnUse" x2="308.65" gradientTransform="translate(55.75 906.78)" y1="58.443" x1="302.29">
   <stop id="stop7383" style="stop-color:#babdb6" offset="0"/>
   <stop id="stop7385" style="stop-color:#fff" offset="1"/>
  </linearGradient>
  <linearGradient id="linearGradient3286" y2="88.006" gradientUnits="userSpaceOnUse" x2="317.16" y1="75.575" x1="326.6">
   <stop id="stop7423" style="stop-color:#fff" offset="0"/>
   <stop id="stop7425" style="stop-color:#fff;stop-opacity:0" offset="1"/>
  </linearGradient>
  <linearGradient id="linearGradient2897" y2="986.93" gradientUnits="userSpaceOnUse" x2="340.93" gradientTransform="matrix(1.0742 0 0 1.1176 3.4611 -124.12)" y1="984.38" x1="340.93">
   <stop id="stop6434" style="stop-color:#fff" offset="0"/>
   <stop id="stop6436" offset="1"/>
  </linearGradient>
  <mask id="mask2893">
   <rect id="rect2895" style="fill:url(#linearGradient2897)" height="37.72" width="32.496" y="958.02" x="344.8"/>
  </mask>
 </defs>
 <g id="g5022" style="opacity:.58730" transform="matrix(.022655 0 0 .012543 44.15 42.39)">
  <rect id="rect4173" style="opacity:.40206;fill:url(#linearGradient5557)" height="478.36" width="1339.6" y="-150.7" x="-1559.3"/>
  <path id="path5058" style="opacity:.40206;fill:url(#radialGradient5559)" d="m-219.62-150.68v478.33c142.87 0.90045 345.4-107.17 345.4-239.2s-159.44-239.13-345.4-239.13z"/>
  <path id="path5018" style="opacity:.40206;fill:url(#radialGradient5561)" d="m-1559.3-150.68v478.33c-142.87 0.90045-345.4-107.17-345.4-239.2s159.44-239.13 345.4-239.13z"/>
 </g>
 <rect id="rect1887" style="stroke:#565853;fill:url(#linearGradient2890)" rx="2" ry="2" height="38" width="43" y="5.5" x="2.5"/>
 <rect id="rect2779" style="opacity:.2;stroke:url(#linearGradient2887);fill:none" rx="1" ry="1" height="36" width="41" y="6.5" x="3.5"/>
 <rect id="rect6287" style="fill:url(#linearGradient2884)" rx="1.0526" ry="1.0741" height="29" width="40" y="13" x="4"/>
 <path id="path6289" style="fill:url(#radialGradient2881)" d="m42 9.5c0.000359 0.82832-0.67132 1.5-1.5 1.5s-1.5004-0.67168-1.5-1.5c-0.000359-0.82832 0.67132-1.5 1.5-1.5s1.5004 0.67168 1.5 1.5z"/>
 <path id="path6291" style="fill:url(#radialGradient2878)" d="m38 9.5c0.000359 0.82832-0.67132 1.5-1.5 1.5s-1.5004-0.67168-1.5-1.5c0-0.8283 0.671-1.5 1.5-1.5s1.5 0.6717 1.5 1.5z"/>
 <path id="path6293" style="fill:url(#radialGradient2875)" d="m34 9.5c0.000359 0.82832-0.67132 1.5-1.5 1.5s-1.5004-0.67168-1.5-1.5c0-0.8283 0.671-1.5 1.5-1.5s1.5 0.6717 1.5 1.5z"/>
 <path id="path6912-6" style="opacity:.3;stroke-linejoin:round;stroke-width:2;stroke-dashoffset:.3612;stroke:#000;stroke-linecap:round;enable-background:new;fill:none" d="m27.876 23.513c-0.09025 0.02318-0.15551 0.08148-0.21875 0.15625-0.12649 0.1495-0.16172 0.36074-0.0625 0.53125l2.6562 4.75c0.2383 0.42616 0.13408 0.97068-0.25 1.5312-0.38772 0.56588-1.0496 1.1441-1.875 1.5937-0.82556 0.44972-1.6537 0.69544-2.3438 0.71875-0.68601 0.0232-1.2298-0.16647-1.4688-0.59375l-2.6562-4.7812c-0.07441-0.13266-0.22354-0.23239-0.375-0.25-0.15144-0.01759-0.27397 0.04399-0.375 0.15625-0.05457 0.05831-0.10634 0.14116-0.125 0.21875-0.51393 2.2135-0.2873 4.7567 0.6875 6.5 1.3313 2.3808 4.1287 3.5118 6.8438 3.0312 1.1094 0.37302 2.5683 1.2059 4.3125 2.9375l0.994 0.994 9.118 0.9-6.0183-5.9877c-1.5724-1.561-2.3899-2.8808-2.8125-3.9375 0.36669-1.4607 0.20913-3.0263-0.5625-4.4062-0.9744-1.7426-3.0206-3.2799-5.1875-4.0312-0.09297-0.034-0.191-0.05443-0.28125-0.03125z"/>
 <g id="g6402" mask="url(#mask2893)" transform="matrix(1.1811 0 0 1.1805 -398.31 -1107.9)">
  <path id="path6912" style="stroke-linejoin:round;stroke-width:.84689;fill-rule:evenodd;stroke-dashoffset:.3612;stroke:url(#linearGradient3282);stroke-linecap:round;enable-background:new;fill:url(#linearGradient3280)" d="m354.9 961.71c-0.0462 0.0494-0.0794 0.10928-0.0952 0.17501-0.43512 1.8752-0.22941 4.0297 0.59591 5.5065 1.1271 2.0169 3.4746 2.9792 5.7733 2.5721 0.9393 0.316 2.1853 1.0117 3.662 2.4786l18.436 18.313 3.4732-3.4502-18.436-18.313c-1.3313-1.3224-2.0298-2.4559-2.3877-3.351 0.31046-1.2374 0.18398-2.5586-0.46932-3.7276-0.82498-1.4762-2.5561-2.7814-4.3907-3.418-0.15743-0.0576-0.33081-0.0136-0.43789 0.11308-0.10709 0.12665-0.1257 0.3083-0.0417 0.45274l2.2462 4.0281c0.20176 0.36101 0.0965 0.82534-0.22868 1.3002-0.32826 0.47938-0.87442 0.95837-1.5732 1.3393-0.69896 0.38097-1.3978 0.58999-1.9821 0.60974-0.58081 0.0197-1.0372-0.1415-1.2395-0.50346l-2.2597-4.0505c-0.063-0.11238-0.17357-0.18604-0.3018-0.20096-0.12822-0.0149-0.25763 0.0312-0.34317 0.1263h-0.00002z"/>
  <path id="path7379" style="enable-background:new;fill:url(#linearGradient3284);fill-rule:evenodd" d="m360.94 958.84c0.0187 0.007 0.007 0.0312 0 0.0313l2.25 4.0312c0.30353 0.54308 0.0846 1.1844-0.28125 1.7188-0.36949 0.53959-0.942 1.0624-1.6875 1.4688-0.7471 0.40722-1.5307 0.60279-2.1875 0.625-0.65534 0.0222-1.2705-0.16491-1.5625-0.6875l-2.25-4.0625c-0.0129-0.002-0.0334 0.002-0.0313 0 0.0206-0.022 0.004 0.016 0 0.0313-0.41492 1.7881-0.19972 3.8548 0.5625 5.2188 1.0426 1.8657 3.2194 2.7568 5.375 2.375 2.1455-0.38402 3.98-2.2532 4.4375-4.0312 0.28891-1.1516 0.16583-2.3891-0.4375-3.4688-0.76015-1.3602-2.4324-2.6411-4.1875-3.25l0.00005-0.0001z"/>
  <path id="path6394" style="stroke-width:.59283;stroke-dashoffset:.3612;stroke:url(#linearGradient3286);stroke-linecap:round;enable-background:new;fill:none" d="m306.31 53.188 1.5 2.7188c0.42656 0.7632 0.1338 1.5814-0.28125 2.1875-0.41934 0.61239-1.0418 1.1566-1.8438 1.5938-0.8053 0.43894-1.6306 0.69358-2.375 0.71875-0.74544 0.02522-1.5682-0.22073-1.9688-0.9375l-1.5625-2.8125c-0.0666 1.3181 0.0835 2.6495 0.59375 3.5625 0.94047 1.6829 2.9236 2.5074 4.9062 2.1562 0.14514-0.02867 0.2979-0.01776 0.4375 0.03125 1.0746 0.3615 2.4186 1.1165 3.9688 2.6562l18.438 18.312 2.2812-2.25-18.438-18.312c-1.3976-1.3882-2.1579-2.6128-2.5625-3.625-0.061-0.15828-0.072-0.33537-0.0312-0.5 0.26287-1.0478 0.16792-2.1847-0.375-3.1562-0.49621-0.8879-1.5465-1.7014-2.6875-2.3438h-0.00005z" transform="translate(55.75 906.78)"/>
  <rect id="rect7166" style="opacity:0.08;fill-rule:evenodd;enable-background:new" transform="rotate(-45)" rx=".74745" ry="1.4931" height="30.755" width="1.9558" y="943.15" x="-428.17"/>
 </g>
</svg>
