<svg xmlns="http://www.w3.org/2000/svg" xmlns:xlink="http://www.w3.org/1999/xlink" viewBox="0 0 24 24"><defs><linearGradient id="k"><stop offset="0" stop-opacity="0"/><stop offset=".5"/><stop offset="1" stop-opacity="0"/></linearGradient><linearGradient id="j"><stop offset="0"/><stop offset="1" stop-opacity="0"/></linearGradient><linearGradient id="h"><stop offset="0" stop-color="#f4f4f4"/><stop offset="1" stop-color="#dbdbdb"/></linearGradient><linearGradient id="g"><stop offset="0" stop-color="#fff"/><stop offset="1" stop-color="#fff" stop-opacity="0"/></linearGradient><linearGradient id="i"><stop offset="0" stop-color="#aaa"/><stop offset="1" stop-color="#c8c8c8"/></linearGradient><linearGradient id="a"><stop offset="0" stop-color="#fff"/><stop offset="1" stop-color="#fff" stop-opacity="0"/></linearGradient><linearGradient id="b"><stop offset="0" stop-color="#f8cd70"/><stop offset="1" stop-color="#d99a11"/></linearGradient><linearGradient id="c"><stop offset="0" stop-color="#a3c0d0"/><stop offset="1" stop-color="#427da1"/></linearGradient><linearGradient id="d"><stop offset="0" stop-color="#2e4a5a"/><stop offset="1" stop-color="#6e8796"/></linearGradient><linearGradient id="e"><stop offset="0" stop-color="#d7e866"/><stop offset="1" stop-color="#8cab2a"/></linearGradient><linearGradient id="f"><stop offset="0" stop-color="#5d8430"/><stop offset="1" stop-color="#6d9a38"/></linearGradient><linearGradient xlink:href="#a" id="y" gradientUnits="userSpaceOnUse" gradientTransform="matrix(.6 0 0 .912 -3.056 -15.672)" x1="34.644" y1="26" x2="34.644" y2="38.031"/><linearGradient xlink:href="#b" id="x" gradientUnits="userSpaceOnUse" gradientTransform="matrix(.7784 0 0 1.00946 -9.855 -19.298)" x1="34" y1="13.682" x2="34" y2="44.866"/><linearGradient xlink:href="#a" id="w" gradientUnits="userSpaceOnUse" gradientTransform="matrix(.6 0 0 .912 -7.056 -17.672)" x1="34.644" y1="26" x2="34.644" y2="38.031"/><linearGradient xlink:href="#c" id="u" gradientUnits="userSpaceOnUse" gradientTransform="matrix(.7784 0 0 1.00946 -13.855 -21.298)" x1="34" y1="13.682" x2="34" y2="44.866"/><linearGradient xlink:href="#d" id="v" gradientUnits="userSpaceOnUse" x1="12.685" y1="19.507" x2="12.388" y2="7.273" gradientTransform="translate(0 -1)"/><linearGradient xlink:href="#a" id="t" gradientUnits="userSpaceOnUse" gradientTransform="matrix(.6 0 0 .912 -11.056 -19.672)" x1="34.644" y1="26" x2="34.644" y2="38.031"/><linearGradient xlink:href="#e" id="r" gradientUnits="userSpaceOnUse" gradientTransform="matrix(.7784 0 0 1.00946 -17.855 -23.298)" x1="34" y1="13.682" x2="34" y2="44.866"/><linearGradient xlink:href="#f" id="s" gradientUnits="userSpaceOnUse" gradientTransform="translate(1 -1)" x1="7.905" y1="20.119" x2="7.755" y2="4.881"/><linearGradient xlink:href="#g" id="q" gradientUnits="userSpaceOnUse" gradientTransform="matrix(.45454 0 0 .46512 1.09 .337)" x1="24" y1="1.425" x2="24" y2="46.017"/><linearGradient xlink:href="#h" id="o" gradientUnits="userSpaceOnUse" gradientTransform="matrix(.48572 0 0 .47803 .343 -.706)" x1="25.132" y1=".985" x2="25.132" y2="47.013"/><linearGradient xlink:href="#i" id="p" gradientUnits="userSpaceOnUse" gradientTransform="matrix(.3922 0 0 .44736 29.2 -1.24)" x1="-51.786" y1="50.786" x2="-51.786" y2="2.906"/><radialGradient xlink:href="#j" id="n" gradientUnits="userSpaceOnUse" gradientTransform="matrix(.01205 0 0 .00824 13.24 18.98)" cx="605.714" cy="486.648" fx="605.714" fy="486.648" r="117.143"/><radialGradient xlink:href="#j" id="m" gradientUnits="userSpaceOnUse" gradientTransform="matrix(-.01205 0 0 .00824 10.76 18.98)" cx="605.714" cy="486.648" fx="605.714" fy="486.648" r="117.143"/><linearGradient xlink:href="#k" id="l" gradientUnits="userSpaceOnUse" gradientTransform="matrix(.0352 0 0 .00824 -.725 18.98)" x1="302.857" y1="366.648" x2="302.857" y2="609.505"/></defs><path opacity=".15" fill="url(#l)" overflow="visible" d="M3.5 22h17v2h-17z"/><path d="M3.5 22v2c-.62.004-1.5-.448-1.5-1s.692-1 1.5-1z" opacity=".15" fill="url(#m)" overflow="visible"/><path d="M20.5 22v2c.62.004 1.5-.448 1.5-1s-.692-1-1.5-1z" opacity=".15" fill="url(#n)" overflow="visible"/><path d="M3.5.5c-.084.027 17 0 17 0v22h-17V.5z" fill="url(#o)" stroke="url(#p)" stroke-linejoin="round"/><rect y="18.5" x="6.448" ry="0" rx=".938" height="1" width="12.194" opacity=".3" overflow="visible"/><path d="M19.5 1v20.5h-15v-20H20" opacity=".24" fill="none" stroke="url(#q)"/><path d="M9.5 4.5v14h-2v-14h2z" fill="url(#r)" stroke="url(#s)" stroke-linecap="square" overflow="visible"/><path d="M8.492 5.49l.043 8.067" opacity=".4" fill="none" stroke="url(#t)" stroke-width=".98" stroke-linecap="square" overflow="visible"/><path d="M13.5 6.5v12h-2v-12h2z" fill="url(#u)" stroke="url(#v)" stroke-linecap="square" overflow="visible"/><path d="M12.492 7.49l.043 8.067" opacity=".4" fill="none" stroke="url(#w)" stroke-width=".98" stroke-linecap="square" overflow="visible"/><path d="M17.5 8.5v10h-2v-10h2z" fill="url(#x)" stroke="#c57a41" stroke-linecap="square" overflow="visible"/><path d="M16.492 9.49l.043 8.067" opacity=".4" fill="none" stroke="url(#y)" stroke-width=".98" stroke-linecap="square" overflow="visible"/></svg>