<?xml version="1.0" encoding="UTF-8" standalone="no"?>
<!-- Created with Inkscape (http://www.inkscape.org/) -->

<svg
   xmlns:svg="http://www.w3.org/2000/svg"
   xmlns="http://www.w3.org/2000/svg"
   xmlns:xlink="http://www.w3.org/1999/xlink"
   version="1.0"
   width="24"
   height="24"
   id="svg2">
  <defs
     id="defs4">
    <radialGradient
       cx="605.71429"
       cy="486.64789"
       r="117.14286"
       fx="605.71429"
       fy="486.64789"
       id="radialGradient4536"
       xlink:href="#linearGradient5060"
       gradientUnits="userSpaceOnUse"
       gradientTransform="matrix(-2.774389,0,0,1.969706,112.7623,-872.8854)" />
    <linearGradient
       id="linearGradient5060">
      <stop
         id="stop5062"
         style="stop-color:black;stop-opacity:1"
         offset="0" />
      <stop
         id="stop5064"
         style="stop-color:black;stop-opacity:0"
         offset="1" />
    </linearGradient>
    <radialGradient
       cx="605.71429"
       cy="486.64789"
       r="117.14286"
       fx="605.71429"
       fy="486.64789"
       id="radialGradient4534"
       xlink:href="#linearGradient5060"
       gradientUnits="userSpaceOnUse"
       gradientTransform="matrix(2.774389,0,0,1.969706,-1891.633,-872.8854)" />
    <linearGradient
       id="linearGradient5048">
      <stop
         id="stop5050"
         style="stop-color:black;stop-opacity:0"
         offset="0" />
      <stop
         id="stop5056"
         style="stop-color:black;stop-opacity:1"
         offset="0.5" />
      <stop
         id="stop5052"
         style="stop-color:black;stop-opacity:0"
         offset="1" />
    </linearGradient>
    <linearGradient
       x1="302.85715"
       y1="366.64789"
       x2="302.85715"
       y2="609.50507"
       id="linearGradient4532"
       xlink:href="#linearGradient5048"
       gradientUnits="userSpaceOnUse"
       gradientTransform="matrix(2.774389,0,0,1.969706,-1892.179,-872.8854)" />
    <linearGradient
       id="linearGradient3931">
      <stop
         id="stop3933"
         style="stop-color:#8d8f8a;stop-opacity:1"
         offset="0" />
      <stop
         id="stop3935"
         style="stop-color:#cbcbcb;stop-opacity:1"
         offset="1" />
    </linearGradient>
    <linearGradient
       x1="-51.786404"
       y1="50.786446"
       x2="-51.786404"
       y2="2.9062471"
       id="linearGradient4547"
       xlink:href="#linearGradient3931"
       gradientUnits="userSpaceOnUse"
       gradientTransform="matrix(0.4383743,0,0,0.4575444,31.223522,-0.7786496)" />
    <linearGradient
       id="linearGradient3600">
      <stop
         id="stop3602"
         style="stop-color:#f4f4f4;stop-opacity:1"
         offset="0" />
      <stop
         id="stop3604"
         style="stop-color:#dbdbdb;stop-opacity:1"
         offset="1" />
    </linearGradient>
    <linearGradient
       x1="25.132275"
       y1="6.7287393"
       x2="25.132275"
       y2="47.013336"
       id="linearGradient4545"
       xlink:href="#linearGradient3600"
       gradientUnits="userSpaceOnUse"
       gradientTransform="matrix(0.5428805,0,0,0.4889072,-1.0291327,-0.2337718)" />
    <linearGradient
       id="linearGradient4559">
      <stop
         id="stop4561"
         style="stop-color:#cacaca;stop-opacity:1"
         offset="0" />
      <stop
         id="stop4563"
         style="stop-color:#949492;stop-opacity:1"
         offset="1" />
    </linearGradient>
    <linearGradient
       x1="17.288921"
       y1="2.184907"
       x2="15.179585"
       y2="5.8214641"
       id="linearGradient4565"
       xlink:href="#linearGradient4559"
       gradientUnits="userSpaceOnUse" />
    <linearGradient
       id="linearGradient8589">
      <stop
         id="stop8591"
         style="stop-color:#fefefe;stop-opacity:1"
         offset="0" />
      <stop
         id="stop8593"
         style="stop-color:#cbcbcb;stop-opacity:1"
         offset="1" />
    </linearGradient>
    <linearGradient
       x1="32.892288"
       y1="8.0590115"
       x2="36.358372"
       y2="5.4565363"
       id="linearGradient4543"
       xlink:href="#linearGradient8589"
       gradientUnits="userSpaceOnUse"
       gradientTransform="matrix(0.541631,0,0,0.5202974,-0.9402078,-0.3018562)" />
    <linearGradient
       x1="14.9966"
       y1="11.1885"
       x2="32.511002"
       y2="34.307499"
       id="aigrd1"
       gradientUnits="userSpaceOnUse">
      <stop
         id="stop3034"
         style="stop-color:#ebebeb;stop-opacity:1"
         offset="0" />
      <stop
         id="stop3036"
         style="stop-color:white;stop-opacity:1"
         offset="0.5" />
      <stop
         id="stop3038"
         style="stop-color:#ebebeb;stop-opacity:1"
         offset="1" />
    </linearGradient>
    <linearGradient
       x1="14.9966"
       y1="11.1885"
       x2="32.511002"
       y2="34.307499"
       id="linearGradient3783"
       xlink:href="#aigrd1"
       gradientUnits="userSpaceOnUse"
       gradientTransform="matrix(0.3999892,0,0,0.3999891,2.397699,3.7628089)" />
    <linearGradient
       x1="12.2744"
       y1="32.4165"
       x2="35.391201"
       y2="14.2033"
       id="aigrd2"
       gradientUnits="userSpaceOnUse">
      <stop
         id="stop3043"
         style="stop-color:#fbfbfb;stop-opacity:1"
         offset="0" />
      <stop
         id="stop3045"
         style="stop-color:#b6b6b6;stop-opacity:1"
         offset="0.5" />
      <stop
         id="stop3047"
         style="stop-color:#e4e4e4;stop-opacity:1"
         offset="1" />
    </linearGradient>
    <linearGradient
       x1="12.2744"
       y1="32.4165"
       x2="35.391201"
       y2="14.2033"
       id="linearGradient3779"
       xlink:href="#aigrd2"
       gradientUnits="userSpaceOnUse"
       gradientTransform="matrix(0.4285714,0,0,0.4285712,1.7147125,3.0995762)" />
    <linearGradient
       id="linearGradient10997">
      <stop
         id="stop10999"
         style="stop-color:white;stop-opacity:1"
         offset="0" />
      <stop
         id="stop11001"
         style="stop-color:white;stop-opacity:0"
         offset="1" />
    </linearGradient>
    <linearGradient
       x1="25.985928"
       y1="24.919628"
       x2="15.889072"
       y2="11.669628"
       id="linearGradient3776"
       xlink:href="#linearGradient10997"
       gradientUnits="userSpaceOnUse"
       gradientTransform="matrix(0.3383777,0,0,0.3383777,3.9445106,4.847368)" />
    <linearGradient
       id="linearGradient6036">
      <stop
         id="stop6038"
         style="stop-color:white;stop-opacity:1"
         offset="0" />
      <stop
         id="stop6040"
         style="stop-color:white;stop-opacity:0"
         offset="1" />
    </linearGradient>
    <linearGradient
       x1="10.50172"
       y1="3.6100161"
       x2="48.798885"
       y2="54.698483"
       id="linearGradient3772"
       xlink:href="#linearGradient6036"
       gradientUnits="userSpaceOnUse"
       gradientTransform="matrix(0.328322,0,0,0.3283219,4.0067991,4.7914954)" />
    <linearGradient
       id="linearGradient6028">
      <stop
         id="stop6030"
         style="stop-color:white;stop-opacity:1"
         offset="0" />
      <stop
         id="stop6032"
         style="stop-color:white;stop-opacity:0"
         offset="1" />
    </linearGradient>
    <linearGradient
       x1="28.702885"
       y1="31.494707"
       x2="17.742729"
       y2="18.366575"
       id="linearGradient3786"
       xlink:href="#linearGradient6028"
       gradientUnits="userSpaceOnUse" />
  </defs>
  <g
     id="layer1">
    <g
       transform="matrix(0.5459263,0,0,0.5168524,-0.9657323,-0.5781821)"
       id="g3490"
       style="stroke-width:1.88256383;stroke-miterlimit:4;stroke-dasharray:none;display:inline">
      <g
         transform="matrix(0.02165152,0,0,0.01485743,43.0076,42.68539)"
         id="g5022"
         style="stroke-width:104.96237946;stroke-miterlimit:4;stroke-dasharray:none;display:inline">
        <rect
           width="1339.6335"
           height="478.35718"
           x="-1559.2523"
           y="-150.69685"
           id="rect4173"
           style="opacity:0.40206185;fill:url(#linearGradient4532);fill-opacity:1;fill-rule:nonzero;stroke:none;stroke-width:104.96237946;marker:none;visibility:visible;display:inline;overflow:visible" />
        <path
           d="m -219.61876,-150.68038 c 0,0 0,478.33079 0,478.33079 142.874166,0.90045 345.40022,-107.16966 345.40014,-239.196175 0,-132.026537 -159.436816,-239.134595 -345.40014,-239.134615 z"
           id="path5058"
           style="opacity:0.40206185;fill:url(#radialGradient4534);fill-opacity:1;fill-rule:nonzero;stroke:none;stroke-width:104.96237946;marker:none;visibility:visible;display:inline;overflow:visible" />
        <path
           d="m -1559.2523,-150.68038 c 0,0 0,478.33079 0,478.33079 -142.8742,0.90045 -345.4002,-107.16966 -345.4002,-239.196175 0,-132.026537 159.4368,-239.134595 345.4002,-239.134615 z"
           id="path5018"
           style="opacity:0.40206185;fill:url(#radialGradient4536);fill-opacity:1;fill-rule:nonzero;stroke:none;stroke-width:104.96237946;marker:none;visibility:visible;display:inline;overflow:visible" />
      </g>
    </g>
    <path
       d="m 2.4995695,0.49956995 c 4.3540581,0 8.7081225,0 13.0621825,0 0.7638,0.23730535 4.867172,2.94084495 5.938678,4.81278185 0,5.7293572 0,11.4587192 0,17.1880792 -6.333619,0 -12.6672431,0 -19.0008605,0 0,-7.333622 0,-14.6672393 0,-22.00086105 z"
       id="rect2594"
       style="fill:url(#linearGradient4545);fill-opacity:1;stroke:url(#linearGradient4547);stroke-width:0.99913895;stroke-linecap:butt;stroke-linejoin:round;stroke-miterlimit:4;stroke-opacity:1;stroke-dasharray:none;stroke-dashoffset:0;display:inline" />
    <path
       d="m 15.5,0.5 c 0,2.262965 0,5 0,5 0,0 4.653658,0 6,0 0,-0.836587 -4.820468,-4.98571761 -6,-5 z"
       id="path12038"
       style="fill:url(#linearGradient4543);fill-opacity:1;fill-rule:evenodd;stroke:url(#linearGradient4565);stroke-width:1;stroke-linecap:butt;stroke-linejoin:round;stroke-miterlimit:4;stroke-opacity:1;stroke-dasharray:none;display:inline" />
    <path
       d="m 11.997441,6.0027482 c -3.8798961,0 -6.9998116,3.1199161 -6.9998116,6.9998118 0,3.879895 3.1199155,6.99981 6.9998116,6.99981 3.879895,0 6.999809,-3.119915 6.999809,-6.99981 0,-3.8798957 -3.119914,-6.9998118 -6.999809,-6.9998118 l 0,0 z m 0,8.6797658 c -0.919976,0 -1.679956,-0.759979 -1.679956,-1.679954 0,-0.919976 0.75998,-1.679956 1.679956,-1.679956 0.919976,0 1.679955,0.75998 1.679955,1.679956 0,0.919975 -0.759979,1.679954 -1.679955,1.679954 z"
       id="path3040"
       style="fill:url(#linearGradient3783);fill-rule:nonzero;stroke:none;display:inline" />
    <path
       d="m 12.000426,5.4995761 c -4.1571429,0 -7.4999993,3.342857 -7.4999993,7.4999989 0,4.157142 3.3428564,7.499998 7.4999993,7.499998 4.157142,0 7.499999,-3.342856 7.499999,-7.499998 0,-4.1571419 -3.342857,-7.4999989 -7.499999,-7.4999989 l 0,0 z m 0,9.2999999 c -0.985715,0 -1.8,-0.814286 -1.8,-1.800001 0,-0.985714 0.814285,-1.8 1.8,-1.8 0.985714,0 1.799998,0.814286 1.799998,1.8 0,0.985715 -0.814284,1.800001 -1.799998,1.800001 z"
       id="path3049"
       style="fill:url(#linearGradient3779);fill-rule:nonzero;stroke:gray;stroke-width:1.00000024;stroke-miterlimit:4;stroke-opacity:1;display:inline" />
    <path
       d="M 11.696924,6.1373771 C 8.0554094,6.274728 5.1663681,9.2563239 5.1663681,12.932825 c 0,1.666681 0.5911872,3.181558 1.5791522,4.360497 L 10.363842,14.22392 c -0.244085,-0.285366 -0.3837449,-0.806194 -0.3837449,-1.206501 0,-1.147232 0.9232589,-2.084832 2.0274149,-2.084832 0.502128,0 1.235014,0.285291 1.535283,0.648324 L 17.188301,8.5825157 C 15.944702,7.0854804 14.060243,6.1373771 11.951627,6.1373771 c -0.08824,0 -0.167306,-0.0033 -0.254703,0 z"
       id="path3531"
       style="fill:url(#linearGradient3776);fill-opacity:1;fill-rule:nonzero;stroke:none;display:inline" />
    <path
       d="m 12.00064,9.084399 c -2.1862784,0 -3.9149638,1.779529 -3.9149638,3.914962 0,2.186278 1.7795295,3.914964 3.9149638,3.914964 2.186274,0 3.914962,-1.779529 3.914962,-3.914964 0,-2.186277 -1.779531,-3.914962 -3.914962,-3.914962 l 0,0 z m 0,6.050397 c -1.169405,0 -2.1354343,-0.966031 -2.1354343,-2.135435 0,-1.169403 0.9660293,-2.135433 2.1354343,-2.135433 1.169401,0 2.135431,0.96603 2.135431,2.135433 0,1.169404 -0.96603,2.135435 -2.135431,2.135435 z"
       id="path3051"
       style="opacity:0.51098902;fill:#eeeeec;fill-rule:nonzero;stroke:none;display:inline" />
    <path
       d="m 12.000453,6.4995459 c -3.6028529,0 -6.4999954,2.8971428 -6.4999954,6.5000001 0,3.602856 2.8971425,6.499997 6.4999954,6.499997 3.602859,0 6.500002,-2.897141 6.500002,-6.499997 0,-3.6028573 -2.897143,-6.5000001 -6.500002,-6.5000001 l 0,0 z"
       id="path5264"
       style="opacity:0.54644811;fill:none;stroke:url(#linearGradient3772);stroke-width:1.00000024;stroke-miterlimit:4;stroke-opacity:1;display:inline" />
    <path
       d="m 30.405591,24.930641 a 6.098796,6.098796 0 1 1 -12.197592,0 6.098796,6.098796 0 1 1 12.197592,0 z"
       transform="matrix(0.4060353,0,0,0.4060353,2.1478352,2.8832018)"
       id="path6026"
       style="opacity:0.67213111;fill:none;stroke:url(#linearGradient3786);stroke-width:2.29176831;stroke-linecap:butt;stroke-linejoin:miter;stroke-miterlimit:4;stroke-opacity:1;stroke-dashoffset:0;marker:none;visibility:visible;display:inline;overflow:visible" />
  </g>
</svg>
