<svg xmlns="http://www.w3.org/2000/svg" xmlns:xlink="http://www.w3.org/1999/xlink" viewBox="0 0 24 24"><defs><linearGradient id="d"><stop offset="0" stop-color="#fff"/><stop offset=".062" stop-color="#fff" stop-opacity=".235"/><stop offset=".933" stop-color="#fff" stop-opacity=".157"/><stop offset="1" stop-color="#fff" stop-opacity=".392"/></linearGradient><linearGradient id="e"><stop offset="0" stop-color="#5f5f5f"/><stop offset=".262" stop-color="#4f4f4f"/><stop offset=".705" stop-color="#3b3b3b"/><stop offset="1" stop-color="#2b2b2b"/></linearGradient><linearGradient id="f"><stop offset="0" stop-color="#272727"/><stop offset="1" stop-color="#454545"/></linearGradient><linearGradient id="i"><stop offset="0" stop-color="#eee"/><stop offset="1" stop-color="#d9d9da"/></linearGradient><linearGradient id="j"><stop offset="0" stop-color="#272727"/><stop offset="1" stop-color="#454545"/></linearGradient><radialGradient cx="4.993" cy="43.5" r="2.5" fx="4.993" fy="43.5" id="k" xlink:href="#a" gradientUnits="userSpaceOnUse" gradientTransform="matrix(2.00378 0 0 1.4 27.988 -17.4)"/><linearGradient id="a"><stop offset="0" stop-color="#181818"/><stop offset="1" stop-color="#181818" stop-opacity="0"/></linearGradient><radialGradient cx="4.993" cy="43.5" r="2.5" fx="4.993" fy="43.5" id="l" xlink:href="#b" gradientUnits="userSpaceOnUse" gradientTransform="matrix(2.00378 0 0 1.4 -20.012 -104.4)"/><linearGradient id="b"><stop offset="0" stop-color="#181818"/><stop offset="1" stop-color="#181818" stop-opacity="0"/></linearGradient><linearGradient x1="25.058" y1="47.028" x2="25.058" y2="39.999" id="m" xlink:href="#c" gradientUnits="userSpaceOnUse"/><linearGradient id="c"><stop offset="0" stop-color="#181818" stop-opacity="0"/><stop offset=".5" stop-color="#181818"/><stop offset="1" stop-color="#181818" stop-opacity="0"/></linearGradient><linearGradient id="g"><stop offset="0" stop-color="#ffbc5c"/><stop offset="1" stop-color="#d17b01"/></linearGradient><linearGradient id="h"><stop offset="0" stop-color="#fc9501"/><stop offset="1" stop-color="#784700"/></linearGradient><linearGradient x1="24" y1="4.431" x2="24.107" y2="43.758" id="v" xlink:href="#d" gradientUnits="userSpaceOnUse" gradientTransform="matrix(.4054 0 0 .45946 2.27 .973)"/><radialGradient cx="7.496" cy="8.45" r="20" fx="7.496" fy="8.45" id="t" xlink:href="#e" gradientUnits="userSpaceOnUse" gradientTransform="matrix(0 1.13853 -.9889 0 19.656 -5.75)"/><linearGradient x1="24" y1="44" x2="24" y2="3.899" id="u" xlink:href="#f" gradientUnits="userSpaceOnUse" gradientTransform="matrix(.4 0 0 .48718 1.7 .307)"/><radialGradient cx="24.502" cy="6.648" r="17.498" fx="24.502" fy="6.648" id="r" xlink:href="#g" gradientUnits="userSpaceOnUse" gradientTransform="matrix(0 1.27118 -1.49728 0 22.453 -28.79)"/><linearGradient x1="32.901" y1="4.648" x2="32.901" y2="61.482" id="s" xlink:href="#h" gradientUnits="userSpaceOnUse" gradientTransform="matrix(.32957 0 0 .3414 1.954 .826)"/><linearGradient x1="10.654" y1="1" x2="10.654" y2="3" id="p" xlink:href="#i" gradientUnits="userSpaceOnUse" gradientTransform="matrix(.4 0 0 .5 .9 .25)"/><linearGradient x1="24" y1="44" x2="24" y2="3.899" id="q" xlink:href="#j" gradientUnits="userSpaceOnUse" gradientTransform="matrix(.4 0 0 .05128 1.7 .27)"/><linearGradient x1="24.64" y1="3.381" x2="24.64" y2="4.497" id="n" xlink:href="#i" gradientUnits="userSpaceOnUse" gradientTransform="matrix(.5259 0 0 1.01646 -.258 -2.492)"/><linearGradient x1="10.199" y1=".065" x2="54.887" y2=".065" id="o" xlink:href="#h" gradientUnits="userSpaceOnUse" gradientTransform="matrix(.37517 0 0 .49377 .23 .144)"/></defs><g opacity=".4"><path fill="url(#k)" d="M38 40h5v7h-5z" transform="matrix(.52632 0 0 .42857 -.632 2.857)"/><path transform="matrix(-.52632 0 0 -.42857 -.632 2.857)" fill="url(#l)" d="M-10-47h5v7h-5z"/><path fill="url(#m)" d="M10 40h28v7H10z" transform="matrix(.52632 0 0 .42857 -.632 2.857)"/></g><path d="M20.49 2.304c-.153-.655-.057-1.17-.142-1.796H4.508l.094 1.983" fill="url(#n)" stroke="url(#o)" stroke-width="1.017" stroke-linejoin="round" stroke-miterlimit="0"/><path d="M5.5 2.5H3.9c-.228 0-.4-.02-.4-.05V1.054C3.5.61 3.724.5 4.016.5H5.5" color="#000" fill="url(#p)" stroke="url(#q)" stroke-linecap="round" stroke-linejoin="round" overflow="visible"/><path fill="url(#r)" stroke="url(#s)" stroke-width="1.019" stroke-linecap="round" stroke-linejoin="round" stroke-miterlimit="0" d="M4.51 2.51h15.98v18.98H4.51z"/><path d="M5.5 2.5v19H3.9c-.228 0-.4-.2-.4-.464V2.5z" color="#000" fill="url(#t)" stroke="url(#u)" stroke-linecap="round" stroke-linejoin="round" overflow="visible"/><path opacity=".5" fill="none" stroke="url(#v)" stroke-linecap="round" stroke-linejoin="round" d="M4.5 3.5h15v17h-15z"/><path d="M11.048 5.025c-.59 0-.94.025-1.156.08-.44.114-.725.374-.848.792-.034.117-.037.278-.048 1.107L9 8h-.856l-.013 2.014L9 10l-.012 4.767c.003 2.842.01 5.186.016 5.202.008.02.218.02 1.002.013H11l.015-5.194L11 10h.845V8H11v-.894s-.21-.478.834-.482l.008-.767c.005-.55.003-.778-.016-.8-.02-.025-.342-.032-.778-.032z" opacity=".2"/><path d="M11.048 4.025c-.59 0-.94.025-1.156.08-.44.114-.725.374-.848.792-.034.117-.037.278-.048 1.107L9 7h-.856L8.13 9.014 9 9l-.012 4.767c.003 2.842.01 5.186.016 5.202.008.02.218.02 1.002.013H11l.015-5.194L11 9h.845V7H11v-.894s-.21-.478.834-.482l.008-.767c.005-.55.003-.778-.016-.8-.02-.025-.342-.032-.778-.032z" fill="#fff"/><path d="M13.98 5.017c-.833 0-.95.096-.95.096L13 12.556V20h2v-.388c0-.238.023-.268.047-.268.017 0 .09.048.157.124.254.29.61.534.942.623.196.056.626.03.847-.03.497-.13.84-.45.973-.932.038-.14.03-.433.03-5.14 0-4.706.008-5-.03-5.138a1.31 1.31 0 0 0-1.036-.967c-.233-.048-.7-.032-.88.03-.315.114-.607.31-.846.593-.08.094-.147.187-.157.187-.01 0-.03-.814-.03-1.806 0-1.762.01-1.815-.033-1.838-.028-.017-.393-.03-1.004-.03zm1.412 4.547c.027-.004.065 0 .094 0 .264 0 .428.167.47.498.03.225.03 7.593 0 7.818a1.172 1.172 0 0 1-.062.28c-.046.1-.085.136-.188.187a.642.642 0 0 1-.373.058c-.21-.026-.333-.137-.317-.37V14.05c-.005-2.742.014-4.034.03-4.112.046-.21.157-.344.346-.374z" opacity=".2"/><path d="M13.98 4.017c-.833 0-.95.096-.95.096L13 11.556V19h2v-.388c0-.238.023-.268.047-.268.017 0 .09.048.157.124.254.29.61.534.942.623.196.056.626.03.847-.03.497-.13.84-.45.973-.932.038-.14.03-.433.03-5.14 0-4.706.008-5-.03-5.138a1.31 1.31 0 0 0-1.036-.967c-.233-.048-.7-.032-.88.03-.315.114-.607.31-.846.593-.08.094-.147.187-.157.187-.01 0-.03-.814-.03-1.806 0-1.762.01-1.815-.033-1.838-.028-.017-.393-.03-1.004-.03zm1.412 4.547c.027-.004.065 0 .094 0 .264 0 .428.167.47.498.03.225.03 7.594 0 7.818a1.172 1.172 0 0 1-.062.28c-.046.1-.085.136-.188.187a.642.642 0 0 1-.373.06c-.21-.028-.333-.138-.317-.37V13.05c-.005-2.743.014-4.035.03-4.113.046-.21.157-.344.346-.374z" fill="#fff"/></svg>