<svg xmlns="http://www.w3.org/2000/svg" xmlns:xlink="http://www.w3.org/1999/xlink" viewBox="0 0 24 24"><defs><linearGradient x1="24" y1="5.564" x2="24" y2="43" id="i" xlink:href="#a" gradientUnits="userSpaceOnUse" gradientTransform="matrix(.4054 0 0 .5135 2.27 7.676)"/><linearGradient id="a"><stop offset="0" stop-color="#fff"/><stop offset=".036" stop-color="#fff" stop-opacity=".235"/><stop offset=".951" stop-color="#fff" stop-opacity=".157"/><stop offset="1" stop-color="#fff" stop-opacity=".392"/></linearGradient><radialGradient cx="7.806" cy="9.957" r="12.672" fx="7.276" fy="9.957" id="h" xlink:href="#b" gradientUnits="userSpaceOnUse" gradientTransform="matrix(0 3.1505 -3.9305 0 51.13 -19.405)"/><linearGradient id="b"><stop offset="0" stop-color="#90dbec"/><stop offset=".262" stop-color="#55c1ec"/><stop offset=".705" stop-color="#3689e6"/><stop offset="1" stop-color="#2b63a0"/></linearGradient><radialGradient cx="605.714" cy="486.648" r="117.143" fx="605.714" fy="486.648" id="g" xlink:href="#c" gradientUnits="userSpaceOnUse" gradientTransform="matrix(.01205 0 0 .00824 13.24 26.98)"/><linearGradient id="c"><stop offset="0"/><stop offset="1" stop-opacity="0"/></linearGradient><radialGradient cx="605.714" cy="486.648" r="117.143" fx="605.714" fy="486.648" id="f" xlink:href="#c" gradientUnits="userSpaceOnUse" gradientTransform="matrix(-.01205 0 0 .00824 10.76 26.98)"/><linearGradient id="d"><stop offset="0" stop-opacity="0"/><stop offset=".5"/><stop offset="1" stop-opacity="0"/></linearGradient><linearGradient x1="302.857" y1="366.648" x2="302.857" y2="609.505" id="e" xlink:href="#d" gradientUnits="userSpaceOnUse" gradientTransform="matrix(.0352 0 0 .00824 -.725 26.98)"/></defs><path opacity=".15" fill="url(#e)" overflow="visible" d="M3.5 30h17v2h-17z" transform="translate(0 -8)"/><path d="M3.5 30v2c-.62.004-1.5-.448-1.5-1s.692-1 1.5-1z" opacity=".15" fill="url(#f)" overflow="visible" transform="translate(0 -8)"/><path d="M20.5 30v2c.62.004 1.5-.448 1.5-1s-.692-1-1.5-1z" opacity=".15" fill="url(#g)" overflow="visible" transform="translate(0 -8)"/><path d="M3.5 9.5h17v21h-17v-21z" color="#000" fill="url(#h)" overflow="visible" transform="translate(0 -8)"/><path d="M19.5 29.5h-15v-19h15z" opacity=".5" fill="none" stroke="url(#i)" stroke-linecap="round" transform="translate(0 -8)"/><path d="M3.5 1.5h17v21h-17v-21z" opacity=".3" fill="none" stroke="#000" stroke-linejoin="round"/><g color="#000" fill="#fff" stroke-width="3.4" overflow="visible"><path d="M12 8a4 4 0 1 0 0 8 4 4 0 0 0 0-8zm0 1a3 3 0 1 1 0 6 3 3 0 0 1 0-6z" overflow="visible"/><path d="M11.5 10v2H10l2 2 2-2h-1.5v-2z" overflow="visible"/></g></svg>