<svg xmlns="http://www.w3.org/2000/svg" xmlns:xlink="http://www.w3.org/1999/xlink" viewBox="0 0 24 24"><defs><linearGradient x1="24" y1="5.564" x2="24" y2="43" id="t" xlink:href="#a" gradientUnits="userSpaceOnUse" gradientTransform="matrix(.4054 0 0 .5135 2.27 7.676)"/><linearGradient id="a"><stop offset="0" stop-color="#fff"/><stop offset=".036" stop-color="#fff" stop-opacity=".235"/><stop offset=".951" stop-color="#fff" stop-opacity=".157"/><stop offset="1" stop-color="#fff" stop-opacity=".392"/></linearGradient><linearGradient x1="25.132" y1=".985" x2="25.132" y2="47.013" id="r" xlink:href="#b" gradientUnits="userSpaceOnUse" gradientTransform="matrix(.48572 0 0 .4563 .343 8.35)"/><linearGradient id="b"><stop offset="0" stop-color="#f4f4f4"/><stop offset="1" stop-color="#dbdbdb"/></linearGradient><linearGradient x1="-51.786" y1="50.786" x2="-51.786" y2="2.906" id="s" xlink:href="#c" gradientUnits="userSpaceOnUse" gradientTransform="matrix(.3922 0 0 .42703 29.2 7.84)"/><linearGradient id="c"><stop offset="0" stop-color="#a0a0a0"/><stop offset="1" stop-color="#bebebe"/></linearGradient><radialGradient cx="605.714" cy="486.648" r="117.143" fx="605.714" fy="486.648" id="q" xlink:href="#d" gradientUnits="userSpaceOnUse" gradientTransform="matrix(.01205 0 0 .00824 13.24 26.98)"/><linearGradient id="d"><stop offset="0"/><stop offset="1" stop-opacity="0"/></linearGradient><radialGradient cx="605.714" cy="486.648" r="117.143" fx="605.714" fy="486.648" id="p" xlink:href="#d" gradientUnits="userSpaceOnUse" gradientTransform="matrix(-.01205 0 0 .00824 10.76 26.98)"/><linearGradient id="e"><stop offset="0" stop-opacity="0"/><stop offset=".5"/><stop offset="1" stop-opacity="0"/></linearGradient><linearGradient x1="302.857" y1="366.648" x2="302.857" y2="609.505" id="o" xlink:href="#e" gradientUnits="userSpaceOnUse" gradientTransform="matrix(.0352 0 0 .00824 -.725 26.98)"/><linearGradient id="n"><stop offset="0" stop-color="#b4b4b4"/><stop offset="1" stop-color="#969696"/></linearGradient><linearGradient x1="12.274" y1="32.416" x2="35.391" y2="14.203" id="m" gradientUnits="userSpaceOnUse"><stop offset="0" stop-color="#dedbde"/><stop offset=".5" stop-color="#e6e6e6"/><stop offset="1" stop-color="#d2d2d2"/></linearGradient><linearGradient x1="10.609" y1="17.886" x2="9.73" y2="20.613" id="A" xlink:href="#f" gradientUnits="userSpaceOnUse" spreadMethod="reflect"/><linearGradient x1="12.372" y1="16.188" x2="14.609" y2="13.462" id="z" xlink:href="#g" gradientUnits="userSpaceOnUse" spreadMethod="reflect"/><linearGradient x1="14.085" y1="13.046" x2="16.994" y2="10.732" id="y" xlink:href="#h" gradientUnits="userSpaceOnUse" spreadMethod="reflect"/><linearGradient x1="17.495" y1="11.2" x2="21.047" y2="9.796" id="x" xlink:href="#i" gradientUnits="userSpaceOnUse" spreadMethod="reflect"/><linearGradient x1="20.58" y1="10.775" x2="24.274" y2="9.862" id="w" xlink:href="#j" gradientUnits="userSpaceOnUse" spreadMethod="reflect"/><linearGradient id="f"><stop offset="0" stop-color="#fcd9cd"/><stop offset="1" stop-color="#fcd9cd" stop-opacity="0"/></linearGradient><linearGradient x1="10.609" y1="17.886" x2="9.73" y2="20.613" id="F" xlink:href="#f" gradientUnits="userSpaceOnUse" spreadMethod="reflect"/><linearGradient id="g"><stop offset="0" stop-color="#ebeec7"/><stop offset="1" stop-color="#ebeec7" stop-opacity="0"/></linearGradient><linearGradient x1="12.372" y1="16.188" x2="14.609" y2="13.462" id="E" xlink:href="#g" gradientUnits="userSpaceOnUse" spreadMethod="reflect"/><linearGradient id="h"><stop offset="0" stop-color="#c4ebdd"/><stop offset="1" stop-color="#c4ebdd" stop-opacity="0"/></linearGradient><linearGradient x1="14.085" y1="13.046" x2="16.994" y2="10.732" id="D" xlink:href="#h" gradientUnits="userSpaceOnUse" spreadMethod="reflect"/><linearGradient id="i"><stop offset="0" stop-color="#c1cbe4"/><stop offset="1" stop-color="#c1cbe4" stop-opacity="0"/></linearGradient><linearGradient x1="17.495" y1="11.2" x2="21.047" y2="9.796" id="C" xlink:href="#i" gradientUnits="userSpaceOnUse" spreadMethod="reflect"/><linearGradient id="j"><stop offset="0" stop-color="#e6cde2"/><stop offset="1" stop-color="#e6cde2" stop-opacity="0"/></linearGradient><linearGradient x1="20.58" y1="10.775" x2="24.274" y2="9.862" id="B" xlink:href="#j" gradientUnits="userSpaceOnUse" spreadMethod="reflect"/><linearGradient id="l"><stop offset="0" stop-color="#fff"/><stop offset="1" stop-color="#fff" stop-opacity="0"/></linearGradient><linearGradient id="k"><stop offset="0" stop-color="#fff"/><stop offset=".508" stop-color="#fff" stop-opacity=".235"/><stop offset=".835" stop-color="#fff" stop-opacity=".157"/><stop offset="1" stop-color="#fff" stop-opacity=".392"/></linearGradient><linearGradient x1="71.204" y1="6.238" x2="71.204" y2="44.341" id="H" xlink:href="#k" gradientUnits="userSpaceOnUse" gradientTransform="translate(-9.326 4.46) scale(.2973)"/><linearGradient x1="18.776" y1="4.038" x2="18.203" y2="45.962" id="G" xlink:href="#l" gradientUnits="userSpaceOnUse" gradientTransform="matrix(.15153 0 0 -.15153 8.31 15.788)"/><linearGradient x1="12.274" y1="32.416" x2="35.391" y2="14.203" id="u" xlink:href="#m" gradientUnits="userSpaceOnUse" gradientTransform="rotate(90 8.747 11.833) scale(.37143)"/><linearGradient x1="-21.916" y1="3" x2="-21.916" y2="45.033" id="v" xlink:href="#n" gradientUnits="userSpaceOnUse" gradientTransform="translate(20.328 4.39) scale(.31707)"/></defs><path opacity=".15" fill="url(#o)" overflow="visible" d="M3.5 30h17v2h-17z" transform="translate(0 -8)"/><path d="M3.5 30v2c-.62.004-1.5-.448-1.5-1s.692-1 1.5-1z" opacity=".15" fill="url(#p)" overflow="visible" transform="translate(0 -8)"/><path d="M20.5 30v2c.62.004 1.5-.448 1.5-1s-.692-1-1.5-1z" opacity=".15" fill="url(#q)" overflow="visible" transform="translate(0 -8)"/><path d="M3.5 9.5h17v21h-17v-21z" fill="url(#r)" stroke="url(#s)" stroke-linejoin="round" transform="translate(0 -8)"/><path d="M19.5 29.5h-15v-19h15z" fill="none" stroke="url(#t)" stroke-linecap="round" transform="translate(0 -8)"/><path d="M18.5 12c0-3.603-2.897-6.5-6.5-6.5A6.483 6.483 0 0 0 5.5 12c0 3.603 2.897 6.5 6.5 6.5s6.5-2.897 6.5-6.5zm-4.333 0c0 1.12-.862 2.167-2.167 2.167-1.305 0-2.167-1.133-2.167-2.167 0-1.063.897-2.167 2.167-2.167 1.3 0 2.167 1.045 2.167 2.167z" fill="url(#u)" stroke="url(#v)"/><path d="M15.857 5.73l4.768 10.614a8.293 8.293 0 0 1 3.375-.72h.094l.014-11.62c-2.942-.07-5.543.658-8.25 1.727z" transform="matrix(.29086 .00822 -.00822 .29086 5.12 4.532)" opacity=".8" fill="url(#w)"/><path d="M12.12 7.906l6.932 9.36a8.293 8.293 0 0 1 3.143-1.425l.092-.02-2.43-11.39c-2.89.56-5.32 1.856-7.736 3.48z" opacity=".8" fill="url(#x)" transform="translate(4.918 4.727) scale(.29098)"/><path d="M8.252 11.647l9.214 7.155a8.293 8.293 0 0 1 2.667-2.19l.083-.043-5.35-10.32c-2.645 1.29-4.7 3.2-6.614 5.393z" opacity=".8" fill="url(#y)" transform="translate(4.918 4.727) scale(.29098)"/><path d="M5.633 16.074c7.175 2.242 7.85 7.03 12.777 1.754L10.5 9.132c-2.22 1.93-3.587 4.327-4.867 6.942z" opacity=".8" fill="url(#z)" transform="translate(4.918 4.727) scale(.29098)"/><path d="M7.155 13.193c-1.183 1.752-1.907 3.637-2.525 5.644l11.34 2.976a8.19 8.19 0 0 1 .967-2.22L17 19.5l-9.845-6.307z" opacity=".8" fill="url(#A)" transform="translate(4.918 4.727) scale(.29098)"/><path d="M15.857 5.73l4.768 10.614a8.293 8.293 0 0 1 3.375-.72h.094l.014-11.62c-2.942-.07-5.543.658-8.25 1.727z" transform="rotate(-178.53 9.676 9.628) scale(.304)" opacity=".8" fill="url(#B)"/><path d="M12.12 7.906l6.932 9.36a8.293 8.293 0 0 1 3.143-1.425l.092-.02-2.43-11.39c-2.89.56-5.32 1.856-7.736 3.48z" opacity=".8" fill="url(#C)" transform="rotate(180 9.644 9.66) scale(.30402)"/><path d="M8.252 11.647l9.214 7.155a8.293 8.293 0 0 1 2.667-2.19l.083-.043-5.35-10.32c-2.645 1.29-4.7 3.2-6.614 5.393z" opacity=".8" fill="url(#D)" transform="rotate(180 9.644 9.66) scale(.30402)"/><path d="M5.633 16.074c7.175 2.242 7.85 7.03 12.777 1.754L10.5 9.132c-2.22 1.93-3.587 4.327-4.867 6.942z" opacity=".8" fill="url(#E)" transform="rotate(180 9.644 9.66) scale(.30402)"/><path d="M7.155 13.193c-1.183 1.752-1.907 3.637-2.525 5.644l11.34 2.976a8.19 8.19 0 0 1 .967-2.22L17 19.5l-9.845-6.307z" opacity=".8" fill="url(#F)" transform="rotate(180 9.644 9.66) scale(.30402)"/><path d="M12 15c-1.663 0-3-1.337-3-3s1.337-3 3-3 3 1.337 3 3-1.337 3-3 3z" opacity=".4" fill="none" stroke="url(#G)"/><path d="M17.5 12a5.5 5.5 0 1 1-11 0 5.5 5.5 0 0 1 11 0z" opacity=".55" color="#000" fill="none" stroke="url(#H)" stroke-linecap="round" stroke-linejoin="round" overflow="visible"/></svg>