<?xml version="1.0" encoding="UTF-8" standalone="no"?>
<svg
   version="1.1"
   width="24"
   height="24"
   id="svg7107"
   xmlns:xlink="http://www.w3.org/1999/xlink"
   xmlns="http://www.w3.org/2000/svg"
   xmlns:svg="http://www.w3.org/2000/svg"
   xmlns:rdf="http://www.w3.org/1999/02/22-rdf-syntax-ns#"
   xmlns:cc="http://creativecommons.org/ns#"
   xmlns:dc="http://purl.org/dc/elements/1.1/">
  <defs
     id="defs7109">
    <linearGradient
       id="linearGradient2671">
      <stop
         offset="0"
         stop-color="#fff"
         id="stop2663" />
      <stop
         offset="0.21609467"
         stop-color="#fff"
         id="stop2665" />
      <stop
         offset="0.36015779"
         stop-color="#fff"
         stop-opacity=".643"
         id="stop2667" />
      <stop
         offset="1"
         stop-color="#fff"
         stop-opacity=".391"
         id="stop2669" />
    </linearGradient>
    <linearGradient
       xlink:href="#linearGradient121303"
       id="linearGradient121764"
       gradientUnits="userSpaceOnUse"
       gradientTransform="matrix(0.46324744,0,0,0.39332388,0.88842124,4.2372046)"
       x1="25.086039"
       y1="-0.47852933"
       x2="25.086039"
       y2="18.299334" />
    <linearGradient
       id="linearGradient121303">
      <stop
         id="stop121295"
         style="stop-color:#ffffff;stop-opacity:1"
         offset="0" />
      <stop
         id="stop121297"
         style="stop-color:#ffffff;stop-opacity:0.23529412"
         offset="0.08609325" />
      <stop
         id="stop121299"
         style="stop-color:#ffffff;stop-opacity:0.15686275"
         offset="0.93896598" />
      <stop
         id="stop121301"
         style="stop-color:#ffffff;stop-opacity:0.39215687"
         offset="1" />
    </linearGradient>
    <linearGradient
       xlink:href="#linearGradient3924-2-2-5-8"
       id="linearGradient121760"
       gradientUnits="userSpaceOnUse"
       gradientTransform="matrix(0.45945951,0,0,0.37837833,0.97296934,4.4189186)"
       x1="23.99999"
       y1="6.8214302"
       x2="23.99999"
       y2="41.178577" />
    <linearGradient
       id="linearGradient3924-2-2-5-8">
      <stop
         id="stop3926-9-4-9-6"
         style="stop-color:#ffffff;stop-opacity:1"
         offset="0" />
      <stop
         id="stop3928-9-8-6-5"
         style="stop-color:#ffffff;stop-opacity:0.23529412"
         offset="0.07495743" />
      <stop
         id="stop3930-3-5-1-7"
         style="stop-color:#ffffff;stop-opacity:0.15686275"
         offset="0.92307693" />
      <stop
         id="stop3932-8-0-4-8"
         style="stop-color:#ffffff;stop-opacity:0.39215687"
         offset="1" />
    </linearGradient>
    <linearGradient
       xlink:href="#d"
       id="linearGradient121758"
       gradientUnits="userSpaceOnUse"
       gradientTransform="matrix(0.59060316,0,0,0.54106907,-1.884579,-1.44337)"
       x1="23.452"
       y1="30.555"
       x2="43.007"
       y2="45.933998" />
    <linearGradient
       id="d">
      <stop
         offset="0"
         stop-color="#fff"
         stop-opacity="0"
         id="stop65" />
      <stop
         offset="1"
         stop-color="#fff"
         stop-opacity="0"
         id="stop67" />
    </linearGradient>
    <linearGradient
       xlink:href="#linearGradient855"
       id="linearGradient121756"
       gradientUnits="userSpaceOnUse"
       gradientTransform="matrix(0.59418207,0,0,0.62971369,20.177759,-6.0846012)"
       x1="-5.8870335"
       y1="19.72085"
       x2="-5.8870335"
       y2="43.375748" />
    <linearGradient
       xlink:href="#linearGradient855"
       id="linearGradient1703"
       gradientUnits="userSpaceOnUse"
       gradientTransform="matrix(0.59418207,0,0,0.61617359,20.184777,-6.1580918)"
       x1="-5.8870335"
       y1="11.482978"
       x2="-5.8870335"
       y2="22.148865" />
    <radialGradient
       cx="5"
       cy="41.5"
       fx="5"
       fy="41.5"
       gradientTransform="matrix(1.0028871,0,0,1.6,-26.450086,-100.24811)"
       gradientUnits="userSpaceOnUse"
       xlink:href="#g"
       id="k-0-7-3-9-3"
       r="5" />
    <linearGradient
       id="g">
      <stop
         offset="0"
         id="stop13" />
      <stop
         offset="1"
         stop-opacity="0"
         id="stop15" />
    </linearGradient>
    <linearGradient
       xlink:href="#h"
       id="linearGradient121754"
       gradientUnits="userSpaceOnUse"
       gradientTransform="matrix(2.1304332,0,0,1.45455,-96.001966,-25.061894)"
       x1="17.554001"
       y1="46"
       x2="17.554001"
       y2="35" />
    <linearGradient
       id="h">
      <stop
         offset="0"
         stop-opacity="0"
         id="stop54" />
      <stop
         offset=".5"
         id="stop56" />
      <stop
         offset="1"
         stop-opacity="0"
         id="stop58" />
    </linearGradient>
    <radialGradient
       cx="5"
       cy="41.5"
       fx="5"
       fy="41.5"
       gradientTransform="matrix(1.0028871,0,0,1.6,65.421996,-100.24811)"
       gradientUnits="userSpaceOnUse"
       xlink:href="#g"
       id="i-6-9-7-8-9"
       r="5" />
    <linearGradient
       xlink:href="#linearGradient2671"
       id="linearGradient121762-6"
       gradientUnits="userSpaceOnUse"
       gradientTransform="matrix(0.49693557,0,0,0.57610552,0.079678,-3.6742869)"
       x1="24.537001"
       y1="21.915001"
       x2="24.537001"
       y2="7.9130001" />
    <linearGradient
       id="linearGradient855">
      <stop
         id="stop851"
         offset="0"
         style="stop-color:#fafafa;stop-opacity:1" />
      <stop
         id="stop853"
         offset="1"
         style="stop-color:#d4d4d4;stop-opacity:1" />
    </linearGradient>
  </defs>
  <metadata
     id="metadata7112">
    <rdf:RDF>
      <cc:Work
         rdf:about="">
        <dc:format>image/svg+xml</dc:format>
        <dc:type
           rdf:resource="http://purl.org/dc/dcmitype/StillImage" />
      </cc:Work>
    </rdf:RDF>
  </metadata>
  <g
     id="g2756"
     transform="matrix(0.37288137,0,0,0.40625,29.129042,6.4992068)"
     style="stroke-width:2.56931">
    <rect
       fill="url(#i)"
       height="16"
       opacity="0.4"
       transform="scale(-1)"
       width="5"
       x="70.436974"
       y="-41.848106"
       id="rect77-9-90-2-7-8"
       style="fill:url(#i-6-9-7-8-9);stroke-width:2.56931" />
    <rect
       fill="url(#j)"
       height="16"
       opacity="0.4"
       width="49"
       x="-70.436974"
       y="25.848106"
       id="rect79-7-2-0-1-4"
       style="fill:url(#linearGradient121754);stroke-width:2.56931" />
    <rect
       fill="url(#k)"
       height="16"
       opacity="0.4"
       transform="scale(1,-1)"
       width="5"
       x="-21.436975"
       y="-41.848106"
       id="rect81-3-8-6-7-8"
       style="fill:url(#k-0-7-3-9-3);stroke-width:2.56931" />
  </g>
  <path
     id="rect5505-21-1-5-0-6-5-1-2-5-10"
     style="color:#000000;font-variation-settings:normal;display:inline;overflow:visible;visibility:visible;vector-effect:none;fill:url(#linearGradient1703);fill-opacity:1.0;fill-rule:nonzero;stroke:none;stroke-width:1;stroke-linecap:butt;stroke-linejoin:miter;stroke-miterlimit:4;stroke-dasharray:none;stroke-dashoffset:0;stroke-opacity:0.3;-inkscape-stroke:none;marker:none;enable-background:accumulate;stop-color:#000000"
     d="m 5.954546,2.499999 c -1.148292,0 -1.606365,0.6541642 -2.072729,1.6666673 C 3.524347,4.9407062 3.108431,5.7415735 2.777983,6.4999992 2.602235,6.7940451 2.499999,7.1348294 2.499999,7.499999 h 19.000008 c 0,-0.3651696 -0.102238,-0.7059539 -0.277985,-0.9999998 C 20.882617,5.7454148 20.485651,4.936366 20.118188,4.1666663 19.637695,3.1603309 19.193751,2.499999 18.04546,2.499999 Z" />
  <path
     id="rect5505-21-1-5-0-6-5-1-2-3"
     style="color:#000000;font-variation-settings:normal;display:inline;overflow:visible;visibility:visible;vector-effect:none;fill:url(#linearGradient121756);fill-opacity:1.0;fill-rule:nonzero;stroke:none;stroke-width:0.999994;stroke-linecap:butt;stroke-linejoin:miter;stroke-miterlimit:4;stroke-dasharray:none;stroke-dashoffset:0;stroke-opacity:0.3;-inkscape-stroke:none;marker:none;enable-background:accumulate;stop-color:#000000"
     d="M 4.572728,6 C 3.709091,6 2.5,6.7423074 2.5,8.5549362 V 19.455998 c 0,0.08585 0.0071,0.169901 0.01755,0.252833 0.0024,0.01923 0.0058,0.03815 0.0088,0.05722 0.01043,0.06698 0.02363,0.132987 0.04048,0.197609 0.0043,0.01667 0.0081,0.0334 0.01282,0.0499 0.04732,0.163983 0.11389,0.319965 0.198367,0.464412 2.48e-4,4.44e-4 3.45e-4,8.86e-4 6.91e-4,0.0014 C 3.13637,21.089938 3.80345,21.5 4.572754,21.5 h 14.854552 c 0.769303,0 1.436383,-0.410062 1.79407,-1.020643 1.94e-4,-4.44e-4 3.46e-4,-8.87e-4 6.91e-4,-0.0014 0.08448,-0.144448 0.15105,-0.30043 0.198367,-0.464413 0.0047,-0.01651 0.0085,-0.03322 0.01281,-0.0499 0.01686,-0.06462 0.03006,-0.130628 0.04048,-0.197609 0.0028,-0.01906 0.0064,-0.03798 0.0088,-0.05722 0.01046,-0.08293 0.01752,-0.166987 0.01752,-0.252835 V 8.7252651 C 21.500044,7.4492734 20.981862,6 19.427316,6 Z" />
  <path
     d="m 5.493643,5.381094 h 12.736915 c 0.743763,0 1.20391,0.256328 1.515509,0.961056 l 1.072637,2.9570964 V 19.959646 c 0,0.672601 -0.377237,1.011492 -1.120655,1.011492 H 4.160188 c -0.743419,0 -1.046728,-0.372746 -1.046728,-1.045347 V 9.2985555 L 4.151551,6.278241 C 4.358824,5.732422 4.750225,5.380749 5.493643,5.380749 Z"
     display="block"
     fill="none"
     opacity="0.505"
     overflow="visible"
     stroke="url(#m)"
     stroke-width="0.742"
     style="stroke:url(#linearGradient121758);marker:none"
     id="path85-1-8-5-7-0" />
  <rect
     style="opacity:1;fill:none;stroke:url(#linearGradient121760);stroke-width:1;stroke-linecap:round;stroke-linejoin:round;stroke-miterlimit:4;stroke-dasharray:none;stroke-dashoffset:0;stroke-opacity:1"
     id="rect6741-5-0-2-3-4-2-4"
     y="6.4999986"
     x="3.4999986"
     ry="1"
     height="14"
     width="17"
     rx="1" />
  <path
     id="rect5505-21-1-5-0-6-5-1-2-5-1-4"
     style="color:#000000;font-variation-settings:normal;display:inline;overflow:visible;visibility:visible;vector-effect:none;fill:none;fill-opacity:1;fill-rule:nonzero;stroke:#555761;stroke-width:1;stroke-linecap:round;stroke-linejoin:round;stroke-miterlimit:4;stroke-dasharray:none;stroke-dashoffset:0;stroke-opacity:1;-inkscape-stroke:none;marker:none;enable-background:accumulate;stop-color:#000000;opacity:0.5;stop-opacity:1"
     d="m 5.954546,2.499999 c -1.148292,0 -1.606365,0.677953 -2.072729,1.727276 C 3.524347,5.029463 3.108431,5.859454 2.777983,6.64546 2.602235,6.950199 2.499999,7.303376 2.499999,7.681825 v 11.745474 c 0,1.148293 0.924436,2.072731 2.072728,2.072731 h 14.854552 c 1.14829,0 2.072728,-0.924438 2.072728,-2.072731 V 7.681825 c 0,-0.378449 -0.102238,-0.731626 -0.277985,-1.036365 C 20.882617,5.863435 20.485651,5.024965 20.118188,4.227275 19.637695,3.184344 19.193751,2.499999 18.04546,2.499999 Z" />
  <path
     id="rect5505-21-1-5-0-6-5-1-2-5-1-7-7"
     style="color:#000000;font-variation-settings:normal;display:inline;overflow:visible;visibility:visible;opacity:0.5;vector-effect:none;fill:none;fill-opacity:1;fill-rule:nonzero;stroke:url(#linearGradient121764);stroke-width:0.999994;stroke-linecap:round;stroke-linejoin:round;stroke-miterlimit:4;stroke-dasharray:none;stroke-dashoffset:0;stroke-opacity:1;-inkscape-stroke:none;marker:none;enable-background:accumulate;stop-color:#000000"
     d="M 20.132782,6.733994 19.297362,4.9230806 C 19.077192,4.4451762 18.921714,3.9706724 18.683129,3.7420464 18.444541,3.5134196 18.130819,3.4999985 17.65953,3.4999985 H 6.3405586 c -0.4719103,0 -0.7829126,0.010941 -1.0223184,0.2384658 C 5.0788345,3.9659912 4.9172751,4.4401584 4.7046143,4.918661 v 6.458e-4 L 3.8605301,6.733994" />
  <path
     d="m 11.177906,2.0000005 h 1.656452 L 12.987745,6 l 0.01226,3.0000005 c -0.195461,0 -0.391254,-0.4440268 -0.587047,-0.4440268 -0.200099,0 -0.40053,0.4440268 -0.60096,0.4440268 -0.161007,0 -0.322346,-0.3888417 -0.483684,-0.3888417 -0.105351,0 -0.210701,0.3888417 -0.316051,0.3888417 L 11.000003,6 Z"
     fill="url(#n)"
     opacity="0.3"
     overflow="visible"
     style="fill:url(#linearGradient121762-6);stroke-width:0.999997;marker:none"
     id="path87-0-9-7-6-4" />
  <path
     id="path9124"
     style="mix-blend-mode:normal;fill:#4a90d9;fill-opacity:1;stroke:none;stroke-width:0.653557px;stroke-linecap:butt;stroke-linejoin:miter;stroke-opacity:1"
     d="m 12.000001,7.9563834 c -0.25669,0 -0.513736,0.0662 -0.744141,0.199219 L 7.7441405,10.183922 c -0.46081,0.26605 -0.744141,0.755988 -0.744141,1.288086 v 4.055665 c 0,0.532098 0.283331,1.022038 0.744141,1.288086 L 11.25586,18.84408 c 0.460809,0.266049 1.02747,0.266049 1.488281,0 l 3.511718,-2.028321 C 16.71667,16.549711 17,16.059771 17,15.527673 V 11.472008 C 17,10.93991 16.71667,10.449972 16.255859,10.183922 L 12.744141,8.1556024 c -0.230406,-0.133024 -0.48745,-0.199219 -0.74414,-0.199219 z m 0,1.089844 c 0.06895,0 0.137832,0.0173 0.199218,0.05273 l 3.512695,2.0283206 c 0.06139,0.03544 0.11103,0.08579 0.145509,0.145507 l -3.857422,2.22754 v 4.454102 c -0.06896,0 -0.137834,-0.01827 -0.199219,-0.05371 L 8.2880865,15.873373 C 8.1653145,15.802493 8,15.669434 8,15.52767 v -4.055662 c 0,-0.07088 0.1080975,-0.139501 0.1425775,-0.199219 l 3.8574235,2.22754 z" />
</svg>
