<svg xmlns="http://www.w3.org/2000/svg" xmlns:xlink="http://www.w3.org/1999/xlink" viewBox="0 0 24 24"><defs><linearGradient id="a"><stop offset="0" stop-color="#fff"/><stop offset=".036" stop-color="#fff" stop-opacity=".235"/><stop offset=".951" stop-color="#fff" stop-opacity=".157"/><stop offset="1" stop-color="#fff" stop-opacity=".392"/></linearGradient><linearGradient id="b"><stop offset="0" stop-color="#f4f4f4"/><stop offset="1" stop-color="#dbdbdb"/></linearGradient><linearGradient id="c"><stop offset="0"/><stop offset="1" stop-opacity="0"/></linearGradient><linearGradient id="d"><stop offset="0" stop-opacity="0"/><stop offset=".5"/><stop offset="1" stop-opacity="0"/></linearGradient><linearGradient x1="24" y1="5.564" x2="24" y2="43" id="i" xlink:href="#a" gradientUnits="userSpaceOnUse" gradientTransform="matrix(.4054 0 0 .5135 2.27 -.324)"/><linearGradient x1="25.132" y1=".985" x2="25.132" y2="47.013" id="h" xlink:href="#b" gradientUnits="userSpaceOnUse" gradientTransform="matrix(.48572 0 0 .4563 .343 .35)"/><radialGradient cx="605.714" cy="486.648" r="117.143" fx="605.714" fy="486.648" id="g" xlink:href="#c" gradientUnits="userSpaceOnUse" gradientTransform="matrix(.01205 0 0 .00824 13.24 18.98)"/><radialGradient cx="605.714" cy="486.648" r="117.143" fx="605.714" fy="486.648" id="f" xlink:href="#c" gradientUnits="userSpaceOnUse" gradientTransform="matrix(-.01205 0 0 .00824 10.76 18.98)"/><linearGradient x1="302.857" y1="366.648" x2="302.857" y2="609.505" id="e" xlink:href="#d" gradientUnits="userSpaceOnUse" gradientTransform="matrix(.0352 0 0 .00824 -.725 18.98)"/></defs><path opacity=".15" fill="url(#e)" overflow="visible" d="M3.5 22h17v2h-17z"/><path d="M3.5 22v2c-.62.004-1.5-.448-1.5-1s.692-1 1.5-1z" opacity=".15" fill="url(#f)" overflow="visible"/><path d="M20.5 22v2c.62.004 1.5-.448 1.5-1s-.692-1-1.5-1z" opacity=".15" fill="url(#g)" overflow="visible"/><path d="M3.5 1.5h17v21h-17v-21z" fill="url(#h)"/><path d="M19.5 21.5h-15v-19h15z" fill="none" stroke="url(#i)" stroke-linecap="round"/><path d="M3.5 1.5h17v21h-17v-21z" opacity=".3" fill="none" stroke="#000" stroke-linejoin="round"/><path d="M15.867 11.097c.012.34-.1.503-.2.794l-.18.09c-.15.29.014.19-.092.42-.23.207-.7.644-.852.684-.11-.002.075-.13.1-.18-.31.213-.25.32-.723.45l-.013-.032c-1.167.55-2.788-.54-2.767-2.022-.012.095-.035.07-.06.11-.06-.764.352-1.53 1.048-1.845.68-.34 1.48-.2 1.967.254-.267-.35-.8-.723-1.433-.688-.62.01-1.198.402-1.392.83-.317.2-.354.77-.492.874-.186 1.368.35 1.958 1.256 2.653.143.094.04.11.06.182a2.46 2.46 0 0 1-.804-.615c.12.174.25.345.418.48-.284-.097-.663-.69-.774-.713.49.876 1.986 1.537 2.77 1.21-.363.013-.824.007-1.23-.144-.173-.088-.405-.27-.363-.304 1.07.4 2.18.3 3.1-.44.24-.183.5-.495.57-.5-.11.17.02.08-.06.23.234-.38-.1-.154.243-.653l.127.175c-.048-.313.39-.694.345-1.19.1-.153.11.163.006.512.15-.388.04-.45.08-.77.04.108.094.222.12.335-.096-.372.1-.63.147-.85-.05-.02-.15.168-.173-.274.002-.19.052-.1.07-.147-.036-.022-.135-.17-.196-.45.045-.068.118.17.177.18-.036-.224-.102-.395-.104-.568-.174-.365-.06.05-.203-.158-.184-.574.154-.13.177-.393.28.404.44 1.033.514 1.294a5.3 5.3 0 0 0-.257-.92c.088.035-.134-.654.11-.198-.26-.972-1.13-1.88-1.926-2.307.097.09.22.2.176.22-.4-.24-.33-.26-.39-.358-.322-.13-.344.01-.56 0-.61-.322-.724-.29-1.284-.49l.024.12c-.405-.134-.47.05-.91 0-.026-.02.14-.075.278-.095-.39.053-.373-.076-.755.016.094-.065.194-.11.294-.165-.32.02-.76.186-.626.035-.52.234-1.44.56-1.953 1.044L9.25 6.7c-.236.284-1.032.85-1.096 1.22l-.062.013c-.123.21-.203.446-.3.66-.162.275-.237.106-.214.15-.318.642-.476 1.183-.612 1.626.097.14.003.87.04 1.45-.16 2.874 2.02 5.67 4.4 6.312.35.124.868.12 1.31.132-.52-.15-.588-.08-1.096-.257-.366-.17-.446-.37-.706-.594l.103.18c-.508-.18-.296-.22-.71-.353l.11-.14c-.164-.013-.436-.278-.51-.425l-.18.008c-.217-.267-.333-.46-.324-.61l-.06.105c-.066-.115-.797-1.004-.417-.797-.07-.064-.165-.104-.266-.29l.077-.09c-.182-.233-.336-.534-.324-.634.097.13.165.158.232.18-.46-1.142-.487-.062-.836-1.163l.07-.007c-.06-.085-.09-.177-.14-.268l.03-.32c-.332-.385-.093-1.63-.045-2.317.034-.276.28-.572.463-1.04l-.117-.02c.22-.373 1.237-1.51 1.707-1.453.23-.287-.045 0-.09-.073.5-.52.66-.367.997-.46.366-.216-.31.085-.14-.083.632-.16.45-.37 1.27-.45.087.05-.2.077-.273.14.526-.256 1.663-.2 2.4.143.86.4 1.82 1.585 1.86 2.7l.043.01c-.023.443.066.956-.09 1.426l.106-.225" fill="#d70751"/></svg>