<?xml version="1.0" encoding="UTF-8" standalone="no"?>
<svg
   id="svg3828"
   height="24"
   width="24"
   version="1.1"
   sodipodi:docname="application-x-cd-image.svg"
   inkscape:version="1.4 (e7c3feb100, 2024-10-09)"
   xmlns:inkscape="http://www.inkscape.org/namespaces/inkscape"
   xmlns:sodipodi="http://sodipodi.sourceforge.net/DTD/sodipodi-0.dtd"
   xmlns:xlink="http://www.w3.org/1999/xlink"
   xmlns="http://www.w3.org/2000/svg"
   xmlns:svg="http://www.w3.org/2000/svg"
   xmlns:rdf="http://www.w3.org/1999/02/22-rdf-syntax-ns#"
   xmlns:cc="http://creativecommons.org/ns#"
   xmlns:dc="http://purl.org/dc/elements/1.1/">
  <sodipodi:namedview
     id="namedview1"
     pagecolor="#ffffff"
     bordercolor="#000000"
     borderopacity="0.25"
     inkscape:showpageshadow="2"
     inkscape:pageopacity="0.0"
     inkscape:pagecheckerboard="0"
     inkscape:deskcolor="#d1d1d1"
     inkscape:zoom="47.166667"
     inkscape:cx="12"
     inkscape:cy="12"
     inkscape:current-layer="svg3828" />
  <defs
     id="defs3830">
    <linearGradient
       id="linearGradient3977">
      <stop
         offset="0"
         style="stop-color:#ffffff;stop-opacity:1"
         id="stop3979" />
      <stop
         offset="0"
         style="stop-color:#ffffff;stop-opacity:0.23529412"
         id="stop3981" />
      <stop
         offset="1"
         style="stop-color:#ffffff;stop-opacity:0.15686275"
         id="stop3983" />
      <stop
         offset="1"
         style="stop-color:#ffffff;stop-opacity:0.39215687"
         id="stop3985" />
    </linearGradient>
    <linearGradient
       id="linearGradient3600-4">
      <stop
         offset="0"
         style="stop-color:#f4f4f4;stop-opacity:1"
         id="stop3602-7" />
      <stop
         offset="1"
         style="stop-color:#dbdbdb;stop-opacity:1"
         id="stop3604-6" />
    </linearGradient>
    <linearGradient
       id="linearGradient5060">
      <stop
         offset="0"
         style="stop-color:#000000;stop-opacity:1"
         id="stop5062" />
      <stop
         offset="1"
         style="stop-color:#000000;stop-opacity:0"
         id="stop5064" />
    </linearGradient>
    <linearGradient
       id="linearGradient5048">
      <stop
         offset="0"
         style="stop-color:#000000;stop-opacity:0"
         id="stop5050" />
      <stop
         offset="0.5"
         style="stop-color:#000000;stop-opacity:1"
         id="stop5056" />
      <stop
         offset="1"
         style="stop-color:#000000;stop-opacity:0"
         id="stop5052" />
    </linearGradient>
    <linearGradient
       gradientTransform="matrix(0.40540511,0,0,0.51351351,2.2696871,-0.3243195)"
       gradientUnits="userSpaceOnUse"
       xlink:href="#linearGradient3977"
       id="linearGradient3013"
       y2="41.526306"
       x2="23.99999"
       y1="6.4736748"
       x1="23.99999" />
    <linearGradient
       gradientTransform="matrix(0.45714178,0,0,0.43456667,1.0285964,0.90372283)"
       gradientUnits="userSpaceOnUse"
       xlink:href="#linearGradient3600-4"
       id="linearGradient3016"
       y2="47.013336"
       x2="25.132275"
       y1="0.98520643"
       x1="25.132275" />
    <radialGradient
       gradientTransform="matrix(0.01204859,0,0,0.0082353,13.238793,18.980564)"
       gradientUnits="userSpaceOnUse"
       xlink:href="#linearGradient5060"
       id="radialGradient3021"
       fy="486.64789"
       fx="605.71429"
       r="117.14286"
       cy="486.64789"
       cx="605.71429" />
    <radialGradient
       gradientTransform="matrix(-0.01204859,0,0,0.0082353,10.761206,18.980564)"
       gradientUnits="userSpaceOnUse"
       xlink:href="#linearGradient5060"
       id="radialGradient3024"
       fy="486.64789"
       fx="605.71429"
       r="117.14286"
       cy="486.64789"
       cx="605.71429" />
    <linearGradient
       gradientTransform="matrix(0.0352071,0,0,0.0082353,-0.724852,18.980547)"
       gradientUnits="userSpaceOnUse"
       xlink:href="#linearGradient5048"
       id="linearGradient3027"
       y2="609.50507"
       x2="302.85715"
       y1="366.64789"
       x1="302.85715" />
    <linearGradient
       gradientTransform="matrix(0.29729729,0,0,0.29729732,-9.3261785,4.4613607)"
       gradientUnits="userSpaceOnUse"
       xlink:href="#linearGradient4011"
       id="linearGradient3138"
       y2="44.340794"
       x2="71.204407"
       y1="6.2375584"
       x1="71.204407" />
    <linearGradient
       id="linearGradient4011">
      <stop
         offset="0"
         style="stop-color:#ffffff;stop-opacity:1"
         id="stop4013" />
      <stop
         offset="0.507761"
         style="stop-color:#ffffff;stop-opacity:0.23529412"
         id="stop4015" />
      <stop
         offset="0.83456558"
         style="stop-color:#ffffff;stop-opacity:0.15686275"
         id="stop4017" />
      <stop
         offset="1"
         style="stop-color:#ffffff;stop-opacity:0.39215687"
         id="stop4019" />
    </linearGradient>
    <linearGradient
       gradientTransform="matrix(0.15153326,0,0,-0.15153317,8.3106187,15.78833)"
       gradientUnits="userSpaceOnUse"
       xlink:href="#linearGradient6036"
       id="linearGradient3141"
       y2="45.962208"
       x2="18.203465"
       y1="4.0378027"
       x1="18.775953" />
    <linearGradient
       id="linearGradient6036">
      <stop
         offset="0"
         style="stop-color:#ffffff;stop-opacity:1"
         id="stop6038" />
      <stop
         offset="1"
         style="stop-color:#ffffff;stop-opacity:0"
         id="stop6040" />
    </linearGradient>
    <linearGradient
       spreadMethod="reflect"
       gradientUnits="userSpaceOnUse"
       xlink:href="#linearGradient3487"
       id="linearGradient3301"
       y2="9.8622112"
       x2="24.27351"
       y1="10.774516"
       x1="20.580074" />
    <linearGradient
       id="linearGradient3487">
      <stop
         offset="0"
         style="stop-color:#e6cde2;stop-opacity:1"
         id="stop3489" />
      <stop
         offset="1"
         style="stop-color:#e6cde2;stop-opacity:0"
         id="stop3491" />
    </linearGradient>
    <linearGradient
       spreadMethod="reflect"
       gradientUnits="userSpaceOnUse"
       xlink:href="#linearGradient3495"
       id="linearGradient3303"
       y2="9.7956104"
       x2="21.047453"
       y1="11.200086"
       x1="17.494959" />
    <linearGradient
       id="linearGradient3495">
      <stop
         offset="0"
         style="stop-color:#c1cbe4;stop-opacity:1"
         id="stop3497" />
      <stop
         offset="1"
         style="stop-color:#c1cbe4;stop-opacity:0"
         id="stop3499" />
    </linearGradient>
    <linearGradient
       spreadMethod="reflect"
       gradientUnits="userSpaceOnUse"
       xlink:href="#linearGradient3503"
       id="linearGradient3305"
       y2="10.732353"
       x2="16.994024"
       y1="13.045606"
       x1="14.084608" />
    <linearGradient
       id="linearGradient3503">
      <stop
         offset="0"
         style="stop-color:#c4ebdd;stop-opacity:1"
         id="stop3505" />
      <stop
         offset="1"
         style="stop-color:#c4ebdd;stop-opacity:0"
         id="stop3507" />
    </linearGradient>
    <linearGradient
       spreadMethod="reflect"
       gradientUnits="userSpaceOnUse"
       xlink:href="#linearGradient3511"
       id="linearGradient3307"
       y2="13.461712"
       x2="14.609327"
       y1="16.188046"
       x1="12.371647" />
    <linearGradient
       id="linearGradient3511">
      <stop
         offset="0"
         style="stop-color:#ebeec7;stop-opacity:1"
         id="stop3513" />
      <stop
         offset="1"
         style="stop-color:#ebeec7;stop-opacity:0"
         id="stop3515" />
    </linearGradient>
    <linearGradient
       spreadMethod="reflect"
       gradientUnits="userSpaceOnUse"
       xlink:href="#linearGradient3519"
       id="linearGradient3309"
       y2="20.612656"
       x2="9.7297754"
       y1="17.886322"
       x1="10.609375" />
    <linearGradient
       id="linearGradient3519">
      <stop
         offset="0"
         style="stop-color:#fcd9cd;stop-opacity:1"
         id="stop3521" />
      <stop
         offset="1"
         style="stop-color:#fcd9cd;stop-opacity:0"
         id="stop3523" />
    </linearGradient>
    <linearGradient
       gradientTransform="matrix(0,0.37143313,-0.37143313,0,20.580107,3.0856035)"
       gradientUnits="userSpaceOnUse"
       xlink:href="#linearGradient3263"
       id="linearGradient3156"
       y2="14.2033"
       x2="35.391201"
       y1="32.4165"
       x1="12.2744" />
    <linearGradient
       gradientUnits="userSpaceOnUse"
       id="linearGradient3263"
       y2="14.2033"
       x2="35.391201"
       y1="32.4165"
       x1="12.2744">
      <stop
         offset="0"
         style="stop-color:#dedbde;stop-opacity:1"
         id="stop3265" />
      <stop
         offset="0.5"
         style="stop-color:#e6e6e6;stop-opacity:1"
         id="stop3267" />
      <stop
         offset="1"
         style="stop-color:#d2d2d2;stop-opacity:1"
         id="stop3269" />
    </linearGradient>
    <linearGradient
       gradientTransform="matrix(0.31707422,0,0,0.31707422,20.327975,4.3902182)"
       gradientUnits="userSpaceOnUse"
       xlink:href="#linearGradient3772"
       id="linearGradient3158"
       y2="45.032898"
       x2="-21.915663"
       y1="3"
       x1="-21.915663" />
    <linearGradient
       id="linearGradient3772">
      <stop
         offset="0"
         style="stop-color:#b4b4b4;stop-opacity:1"
         id="stop3774" />
      <stop
         offset="1"
         style="stop-color:#969696;stop-opacity:1"
         id="stop3776" />
    </linearGradient>
    <linearGradient
       y2="9.8622112"
       x2="24.27351"
       y1="10.774516"
       x1="20.580074"
       spreadMethod="reflect"
       gradientUnits="userSpaceOnUse"
       id="linearGradient4291"
       xlink:href="#linearGradient3487" />
    <linearGradient
       y2="9.7956104"
       x2="21.047453"
       y1="11.200086"
       x1="17.494959"
       spreadMethod="reflect"
       gradientUnits="userSpaceOnUse"
       id="linearGradient4293"
       xlink:href="#linearGradient3495" />
    <linearGradient
       y2="10.732353"
       x2="16.994024"
       y1="13.045606"
       x1="14.084608"
       spreadMethod="reflect"
       gradientUnits="userSpaceOnUse"
       id="linearGradient4295"
       xlink:href="#linearGradient3503" />
    <linearGradient
       y2="13.461712"
       x2="14.609327"
       y1="16.188046"
       x1="12.371647"
       spreadMethod="reflect"
       gradientUnits="userSpaceOnUse"
       id="linearGradient4297"
       xlink:href="#linearGradient3511" />
    <linearGradient
       y2="20.612656"
       x2="9.7297754"
       y1="17.886322"
       x1="10.609375"
       spreadMethod="reflect"
       gradientUnits="userSpaceOnUse"
       id="linearGradient4299"
       xlink:href="#linearGradient3519" />
  </defs>
  <metadata
     id="metadata3833">
    <rdf:RDF>
      <cc:Work
         rdf:about="">
        <dc:format>image/svg+xml</dc:format>
        <dc:type
           rdf:resource="http://purl.org/dc/dcmitype/StillImage" />
      </cc:Work>
    </rdf:RDF>
  </metadata>
  <path
     style="fill:url(#linearGradient3156);fill-rule:nonzero;stroke:url(#linearGradient3158);stroke-width:0.99999988;stroke-miterlimit:4;stroke-opacity:1"
     id="path2781"
     d="m 18.500024,12 c 0,-3.6029022 -2.897121,-6.5000221 -6.500025,-6.5000221 -3.6029022,0 -6.5000216,2.8971202 -6.5000216,6.5000221 -7e-7,3.602902 2.8971197,6.500022 6.5000216,6.500022 3.602903,-1e-6 6.500025,-2.89712 6.500025,-6.500022 z m -4.33335,0 c 0,1.121422 -0.86139,2.166674 -2.166675,2.166674 -1.305284,0 -2.1666732,-1.132311 -2.1666732,-2.166674 0,-1.063419 0.8969942,-2.1666741 2.1666732,-2.1666741 1.298717,0 2.166675,1.0448751 2.166675,2.1666741 z" />
  <g
     id="g3527"
     transform="matrix(0.29097525,0,0,0.29097525,4.9180092,4.7269384)">
    <path
       style="opacity:0.8;fill:url(#linearGradient4291);fill-opacity:1;fill-rule:nonzero;stroke:none"
       id="path3296"
       transform="matrix(0.9996011,0.02824295,-0.02824295,0.9996011,0.6924114,-0.6708346)"
       d="M 15.856928,5.7307748 20.625,16.34375 C 21.660403,15.885186 22.795334,15.625 24,15.625 c 0.03206,0 0.06178,-3.6e-4 0.09375,0 L 24.10801,4.0047512 c -2.94215,-0.070687 -5.543041,0.6572865 -8.251083,1.7260236 l 10e-7,0 z" />
    <path
       style="opacity:0.8;fill:url(#linearGradient4293);fill-opacity:1;fill-rule:nonzero;stroke:none"
       id="path3308"
       d="m 12.121471,7.9060109 6.931026,9.3601041 c 0.913109,-0.669755 1.965938,-1.167064 3.142629,-1.425169 0.03132,-0.0069 0.06026,-0.01359 0.09157,-0.02009 L 19.857174,4.426276 c -2.888973,0.5613244 -5.31953,1.8556038 -7.735703,3.4797349 l 0,0 z" />
    <path
       style="opacity:0.8;fill:url(#linearGradient4295);fill-opacity:1;fill-rule:nonzero;stroke:none"
       id="path3310"
       d="m 8.2523933,11.646535 9.2137237,7.155818 c 0.70865,-0.883264 1.596891,-1.636119 2.666685,-2.18998 0.02847,-0.01474 0.05469,-0.02872 0.08325,-0.0431 L 14.86585,6.2506132 C 12.220599,7.5405321 10.165881,9.452393 8.2523933,11.646535 Z" />
    <path
       style="opacity:0.8;fill:url(#linearGradient4297);fill-opacity:1;fill-rule:nonzero;stroke:none"
       id="path3312"
       d="m 5.6328855,16.073974 c 7.1748065,2.242248 7.8502625,7.031463 12.7767855,1.754127 L 10.499985,9.1321388 C 8.2787249,11.062747 6.9132871,13.459349 5.6328855,16.073974 Z" />
    <path
       style="opacity:0.8;fill:url(#linearGradient4299);fill-opacity:1;fill-rule:nonzero;stroke:none"
       id="path3314"
       d="M 7.155289,13.193173 C 5.9722117,14.945185 5.2475768,16.829547 4.6301929,18.837116 L 15.96875,21.8125 C 16.184264,21.049497 16.486796,20.297733 16.9375,19.59375 16.95479,19.56675 16.98246,19.52673 17,19.5 L 7.155289,13.193173 Z" />
  </g>
  <g
     id="g3297"
     transform="matrix(-0.30402469,0,0,-0.30402469,19.287752,19.322233)">
    <path
       style="opacity:0.8;fill:url(#linearGradient3301);fill-opacity:1;fill-rule:nonzero;stroke:none"
       id="path3299"
       transform="matrix(0.9996011,0.02824295,-0.02824295,0.9996011,0.6924114,-0.6708346)"
       d="M 15.856928,5.7307748 20.625,16.34375 C 21.660403,15.885186 22.795334,15.625 24,15.625 c 0.03206,0 0.06178,-3.6e-4 0.09375,0 L 24.10801,4.0047512 c -2.94215,-0.070687 -5.543041,0.6572865 -8.251083,1.7260236 l 10e-7,0 z" />
    <path
       style="opacity:0.8;fill:url(#linearGradient3303);fill-opacity:1;fill-rule:nonzero;stroke:none"
       id="path3301"
       d="m 12.121471,7.9060109 6.931026,9.3601041 c 0.913109,-0.669755 1.965938,-1.167064 3.142629,-1.425169 0.03132,-0.0069 0.06026,-0.01359 0.09157,-0.02009 L 19.857174,4.426276 c -2.888973,0.5613244 -5.31953,1.8556038 -7.735703,3.4797349 l 0,0 z" />
    <path
       style="opacity:0.8;fill:url(#linearGradient3305);fill-opacity:1;fill-rule:nonzero;stroke:none"
       id="path3303"
       d="m 8.2523933,11.646535 9.2137237,7.155818 c 0.70865,-0.883264 1.596891,-1.636119 2.666685,-2.18998 0.02847,-0.01474 0.05469,-0.02872 0.08325,-0.0431 L 14.86585,6.2506132 C 12.220599,7.5405321 10.165881,9.452393 8.2523933,11.646535 Z" />
    <path
       style="opacity:0.8;fill:url(#linearGradient3307);fill-opacity:1;fill-rule:nonzero;stroke:none"
       id="path3305"
       d="m 5.6328855,16.073974 c 7.1748065,2.242248 7.8502625,7.031463 12.7767855,1.754127 L 10.499985,9.1321388 C 8.2787249,11.062747 6.9132871,13.459349 5.6328855,16.073974 Z" />
    <path
       style="opacity:0.8;fill:url(#linearGradient3309);fill-opacity:1;fill-rule:nonzero;stroke:none"
       id="path3307"
       d="M 7.155289,13.193173 C 5.9722117,14.945185 5.2475768,16.829547 4.6301929,18.837116 L 15.96875,21.8125 C 16.184264,21.049497 16.486796,20.297733 16.9375,19.59375 16.95479,19.56675 16.98246,19.52673 17,19.5 L 7.155289,13.193173 Z" />
  </g>
  <path
     style="opacity:0.4;fill:none;stroke:url(#linearGradient3141);stroke-width:1;stroke-miterlimit:4;stroke-opacity:1"
     id="path3281"
     d="m 12,14.999999 c -1.662856,0 -2.9999999,-1.337143 -2.9999999,-3 0,-1.662857 1.3371439,-2.9999978 2.9999999,-2.9999978 1.662857,0 3.000001,1.3371408 3.000001,2.9999978 0,1.662857 -1.337144,3 -3.000001,3 l 0,0 0,0 0,0 z" />
  <path
     style="color:#000000;display:inline;overflow:visible;visibility:visible;opacity:0.55;fill:none;stroke:url(#linearGradient3138);stroke-width:1;stroke-linecap:round;stroke-linejoin:round;stroke-miterlimit:4;stroke-dasharray:none;stroke-dashoffset:0;stroke-opacity:1;marker:none;enable-background:accumulate"
     id="path8655"
     d="m 17.500001,11.999806 c 0,3.037664 -2.462614,5.500194 -5.499931,5.500194 -3.0375928,0 -5.5000699,-2.462559 -5.5000699,-5.500194 0,-3.0375242 2.4624771,-5.4998059 5.5000699,-5.4998059 3.037317,0 5.499931,2.4622817 5.499931,5.4998059 l 0,0 z" />
</svg>
