<svg xmlns="http://www.w3.org/2000/svg" xmlns:xlink="http://www.w3.org/1999/xlink" viewBox="0 0 24 24"><defs><linearGradient id="c"><stop offset="0" stop-color="#fff"/><stop offset=".302" stop-color="#fff" stop-opacity=".235"/><stop offset=".967" stop-color="#fff" stop-opacity=".157"/><stop offset="1" stop-color="#fff" stop-opacity=".392"/></linearGradient><linearGradient id="d"><stop offset="0" stop-color="#eef87e"/><stop offset=".262" stop-color="#cde34f"/><stop offset=".661" stop-color="#93b723"/><stop offset="1" stop-color="#5a7e0d"/></linearGradient><radialGradient cx="4.993" cy="43.5" r="2.5" fx="4.993" fy="43.5" id="h" xlink:href="#a" gradientUnits="userSpaceOnUse" gradientTransform="matrix(2.00378 0 0 1.4 27.988 -17.4)"/><linearGradient id="a"><stop offset="0"/><stop offset="1" stop-opacity="0"/></linearGradient><radialGradient cx="4.993" cy="43.5" r="2.5" fx="4.993" fy="43.5" id="i" xlink:href="#a" gradientUnits="userSpaceOnUse" gradientTransform="matrix(2.00378 0 0 1.4 -20.012 -104.4)"/><linearGradient x1="25.058" y1="47.028" x2="25.058" y2="39.999" id="j" xlink:href="#b" gradientUnits="userSpaceOnUse"/><linearGradient id="b"><stop offset="0" stop-opacity="0"/><stop offset=".5"/><stop offset="1" stop-opacity="0"/></linearGradient><radialGradient cx="4.993" cy="43.5" r="2.5" fx="4.993" fy="43.5" id="e" xlink:href="#a" gradientUnits="userSpaceOnUse" gradientTransform="matrix(2.00378 0 0 1.4 27.988 -17.4)"/><radialGradient cx="4.993" cy="43.5" r="2.5" fx="4.993" fy="43.5" id="f" xlink:href="#a" gradientUnits="userSpaceOnUse" gradientTransform="matrix(2.00378 0 0 1.4 -20.012 -104.4)"/><linearGradient x1="25.058" y1="47.028" x2="25.058" y2="39.999" id="g" xlink:href="#b" gradientUnits="userSpaceOnUse"/><linearGradient x1="106.219" y1="-26.17" x2="106.219" y2="42.673" id="l" xlink:href="#c" gradientUnits="userSpaceOnUse" gradientTransform="matrix(.2818 0 0 .28 -17.877 9.225)"/><linearGradient x1="5.456" y1="-9.222" x2="5.456" y2="45.116" id="k" xlink:href="#d" gradientUnits="userSpaceOnUse" gradientTransform="translate(-.007 .007)"/></defs><g opacity=".3"><path fill="url(#e)" d="M38 40h5v7h-5z" transform="matrix(.2007 0 0 .23392 10.933 12.506)"/><path transform="matrix(-.2007 0 0 -.23392 10.933 12.506)" fill="url(#f)" d="M-10-47h5v7h-5z"/><path fill="url(#g)" d="M10 40h28v7H10z" transform="matrix(.2007 0 0 .23392 10.933 12.506)"/></g><g opacity=".3"><path fill="url(#h)" d="M38 40h5v7h-5z" transform="matrix(.2155 0 0 .23392 .205 12.506)"/><path transform="matrix(-.2155 0 0 -.23392 .205 12.506)" fill="url(#i)" d="M-10-47h5v7h-5z"/><path fill="url(#j)" d="M10 40h28v7H10z" transform="matrix(.2155 0 0 .23392 .205 12.506)"/></g><path d="M10.493 1.507a3 3 0 0 0-3 3c0 .773.3 1.47.78 2h-4.78c-.554 0-1 .446-1 1v4.188a2.927 2.927 0 0 1 1-.188 3 3 0 0 1 0 6c-.356 0-.684-.074-1-.187v4.187c0 .554.446 1 1 1H7.68a2.927 2.927 0 0 1-.187-1 3 3 0 0 1 6 0c0 .356-.074.684-.188 1h4.188c.554 0 1-.446 1-1v-4.78c.53.48 1.227.78 2 .78a3 3 0 0 0 0-6 2.97 2.97 0 0 0-2 .782V7.5c0-.554-.446-1-1-1H12.71a2.97 2.97 0 0 0 .783-2 3 3 0 0 0-3-3z" color="#000" fill="url(#k)" overflow="visible"/><path d="M10.493 1.507a3 3 0 0 0-3 3c0 .773.3 1.47.78 2h-4.78c-.554 0-1 .446-1 1v4.188a2.927 2.927 0 0 1 1-.188 3 3 0 0 1 0 6c-.356 0-.684-.074-1-.187v4.187c0 .554.446 1 1 1H7.68a2.927 2.927 0 0 1-.187-1 3 3 0 0 1 6 0c0 .356-.074.684-.188 1h4.188c.554 0 1-.446 1-1v-4.78c.53.48 1.227.78 2 .78a3 3 0 0 0 0-6 2.97 2.97 0 0 0-2 .782V7.5c0-.554-.446-1-1-1H12.71a2.97 2.97 0 0 0 .783-2 3 3 0 0 0-3-3z" opacity=".3" color="#000" fill="none" stroke="#000" stroke-width=".985" stroke-linecap="round" stroke-linejoin="round" overflow="visible"/><path d="M10.493 2.476a2.014 2.014 0 0 0-2.032 2.03c0 .522.03.758.45 1.345.7.98-.13 1.2-.63 1.63H3.5c-.038 0-.034 0-.034.03v3.038H3.5a3.985 3.985 0 0 1 3.967 3.968c0 2.18-1.79 3.97-3.967 3.97h-.04v3.03c0 .037-.003.033.033.033h3.03v-.035c0-2.18 1.79-3.97 3.97-3.97a3.985 3.985 0 0 1 3.968 3.97c0 .01.01.02 0 .03h3.04c.04 0 .03.003.03-.033v-4.78c-.01-.753 1.08-1.235 1.63-.72.37.334.822.53 1.343.53 1.136 0 2.03-.896 2.03-2.032 0-1.135-.894-2.03-2.03-2.03-.52 0-.973.196-1.343.53-.55.515-1.64.034-1.628-.718V7.51c0-.036.004-.03-.03-.03h-4.79c-.75.01-1.232-1.077-.717-1.626.334-.37.53-.822.53-1.343a2.01 2.01 0 0 0-2.03-2.03z" opacity=".5" color="#000" fill="none" stroke="url(#l)" overflow="visible"/></svg>