<?xml version="1.0" encoding="UTF-8" standalone="no"?>
<svg
   xmlns:dc="http://purl.org/dc/elements/1.1/"
   xmlns:cc="http://creativecommons.org/ns#"
   xmlns:rdf="http://www.w3.org/1999/02/22-rdf-syntax-ns#"
   xmlns:svg="http://www.w3.org/2000/svg"
   xmlns="http://www.w3.org/2000/svg"
   xmlns:xlink="http://www.w3.org/1999/xlink"
   version="1.1"
   width="24"
   height="24"
   id="svg3273"
   viewBox="0 0 24 24">
  <defs
     id="defs3275">
    <linearGradient
       x1="22.004084"
       y1="47.813133"
       x2="22.004084"
       y2="3.3638515"
       id="linearGradient3184"
       xlink:href="#linearGradient3104-4"
       gradientUnits="userSpaceOnUse"
       gradientTransform="matrix(-0.4507042,0,0,0.46666668,23.851085,0.1113674)" />
    <linearGradient
       id="linearGradient3104-4">
      <stop
         id="stop3106-7"
         style="stop-color:#aaaaaa;stop-opacity:1"
         offset="0" />
      <stop
         id="stop3108-6"
         style="stop-color:#c8c8c8;stop-opacity:1"
         offset="1" />
    </linearGradient>
    <linearGradient
       x1="23.99999"
       y1="5.5641499"
       x2="23.99999"
       y2="43"
       id="linearGradient4872"
       xlink:href="#linearGradient3977-8-2"
       gradientUnits="userSpaceOnUse"
       gradientTransform="matrix(0.40540544,0,0,0.54054055,2.2702726,-1.4729677)" />
    <linearGradient
       id="linearGradient3977-8-2">
      <stop
         id="stop3979-8-4"
         style="stop-color:#ffffff;stop-opacity:1"
         offset="0" />
      <stop
         id="stop3981-6-5"
         style="stop-color:#ffffff;stop-opacity:0.23529412"
         offset="0.03626217" />
      <stop
         id="stop3983-9-3"
         style="stop-color:#ffffff;stop-opacity:0.15686275"
         offset="0.95056331" />
      <stop
         id="stop3985-9-5"
         style="stop-color:#ffffff;stop-opacity:0.39215687"
         offset="1" />
    </linearGradient>
    <radialGradient
       cx="7.8060555"
       cy="9.9571075"
       r="12.671875"
       fx="7.2758255"
       fy="9.9571075"
       id="radialGradient3249-0"
       xlink:href="#linearGradient2867-449-88-871-390-598-476-591-434-148-57-177-8-2-7"
       gradientUnits="userSpaceOnUse"
       gradientTransform="matrix(-9.3418204e-8,3.4517359,-4.675854,-1.0361182e-7,59.660853,-31.67265)" />
    <linearGradient
       id="linearGradient2867-449-88-871-390-598-476-591-434-148-57-177-8-2-7">
      <stop
         id="stop3750-1-9-6"
         style="stop-color:#90dbec;stop-opacity:1"
         offset="0" />
      <stop
         id="stop3752-3-6-7"
         style="stop-color:#55c1ec;stop-opacity:1"
         offset="0.26238" />
      <stop
         id="stop3754-1-5-0"
         style="stop-color:#3689e6;stop-opacity:1"
         offset="0.704952" />
      <stop
         id="stop3756-1-2-9"
         style="stop-color:#2b63a0;stop-opacity:1"
         offset="1" />
    </linearGradient>
    <linearGradient
       x1="23.99999"
       y1="5.5641499"
       x2="23.99999"
       y2="43"
       id="linearGradient3196"
       xlink:href="#linearGradient3977-8-6"
       gradientUnits="userSpaceOnUse"
       gradientTransform="matrix(0.40540544,0,0,0.54054055,2.2702726,-1.4729678)" />
    <linearGradient
       id="linearGradient3977-8-6">
      <stop
         id="stop3979-8-0"
         style="stop-color:#ffffff;stop-opacity:1"
         offset="0" />
      <stop
         id="stop3981-6-9"
         style="stop-color:#ffffff;stop-opacity:0.23529412"
         offset="0.03626217" />
      <stop
         id="stop3983-9-4"
         style="stop-color:#ffffff;stop-opacity:0.15686275"
         offset="0.95056331" />
      <stop
         id="stop3985-9-6"
         style="stop-color:#ffffff;stop-opacity:0.39215687"
         offset="1" />
    </linearGradient>
    <linearGradient
       x1="25.132275"
       y1="0.98520643"
       x2="25.132275"
       y2="47.013336"
       id="linearGradient3039-7"
       xlink:href="#linearGradient3600-42"
       gradientUnits="userSpaceOnUse"
       gradientTransform="matrix(0.4857154,0,0,0.4780255,0.3428305,-0.70595)" />
    <linearGradient
       id="linearGradient3600-42">
      <stop
         id="stop3602-3"
         style="stop-color:#f4f4f4;stop-opacity:1"
         offset="0" />
      <stop
         id="stop3604-2"
         style="stop-color:#dbdbdb;stop-opacity:1"
         offset="1" />
    </linearGradient>
    <radialGradient
       cx="605.71429"
       cy="486.64789"
       r="117.14286"
       fx="605.71429"
       fy="486.64789"
       id="radialGradient3044-5"
       xlink:href="#linearGradient5060-5"
       gradientUnits="userSpaceOnUse"
       gradientTransform="matrix(0.01204859,0,0,0.00823529,13.238794,18.980568)" />
    <linearGradient
       id="linearGradient5060-5">
      <stop
         id="stop5062-7"
         style="stop-color:#000000;stop-opacity:1"
         offset="0" />
      <stop
         id="stop5064-82"
         style="stop-color:#000000;stop-opacity:0"
         offset="1" />
    </linearGradient>
    <radialGradient
       cx="605.71429"
       cy="486.64789"
       r="117.14286"
       fx="605.71429"
       fy="486.64789"
       id="radialGradient3047-7"
       xlink:href="#linearGradient5060-5"
       gradientUnits="userSpaceOnUse"
       gradientTransform="matrix(-0.01204859,0,0,0.00823529,10.761206,18.980568)" />
    <linearGradient
       id="linearGradient5048-9">
      <stop
         id="stop5050-8"
         style="stop-color:#000000;stop-opacity:0"
         offset="0" />
      <stop
         id="stop5056-0"
         style="stop-color:#000000;stop-opacity:1"
         offset="0.5" />
      <stop
         id="stop5052-24"
         style="stop-color:#000000;stop-opacity:0"
         offset="1" />
    </linearGradient>
    <linearGradient
       x1="302.85715"
       y1="366.64789"
       x2="302.85715"
       y2="609.50507"
       id="linearGradient3271"
       xlink:href="#linearGradient5048-9"
       gradientUnits="userSpaceOnUse"
       gradientTransform="matrix(0.0352071,0,0,0.00823529,-0.724852,18.980551)" />
  </defs>
  <metadata
     id="metadata3278">
    <rdf:RDF>
      <cc:Work
         rdf:about="">
        <dc:format>image/svg+xml</dc:format>
        <dc:type
           rdf:resource="http://purl.org/dc/dcmitype/StillImage" />
        <dc:title />
      </cc:Work>
    </rdf:RDF>
  </metadata>
  <rect
     style="display:inline;overflow:visible;visibility:visible;opacity:0.15;fill:url(#linearGradient3271);fill-opacity:1;fill-rule:nonzero;stroke:none;stroke-width:1;marker:none"
     id="rect2879"
     y="22"
     x="3.5000005"
     height="1.9999981"
     width="17" />
  <path
     style="display:inline;overflow:visible;visibility:visible;opacity:0.15;fill:url(#radialGradient3047-7);fill-opacity:1;fill-rule:nonzero;stroke:none;stroke-width:1;marker:none"
     id="path2881"
     d="m 3.5,22.000086 c 0,0 0,1.999889 0,1.999889 C 2.8795275,24.00374 2,23.551901 2,22.999901 2,22.447902 2.6924,22.000086 3.5,22.000086 Z" />
  <path
     style="display:inline;overflow:visible;visibility:visible;opacity:0.15;fill:url(#radialGradient3044-5);fill-opacity:1;fill-rule:nonzero;stroke:none;stroke-width:1;marker:none"
     id="path2883"
     d="m 20.5,22.000086 c 0,0 0,1.999889 0,1.999889 0.620472,0.0038 1.5,-0.448074 1.5,-1.000074 0,-0.551999 -0.692401,-0.999815 -1.5,-0.999815 z" />
  <path
     style="display:inline;fill:url(#linearGradient3039-7);fill-opacity:1;stroke:none"
     id="path4160"
     d="M 3.4999617,0.4999611 C 3.6151816,0.4919491 20.5,0.5000001 20.5,0.5000001 c 0,5.7291569 3.9e-5,16.2708809 3.9e-5,22.0000389 -5.666693,0 -11.3333845,0 -17.0000773,0 0,-7.33336 0,-14.66672 0,-22.0000779 z" />
  <path
     style="fill:none;stroke:url(#linearGradient3196);stroke-width:0.99999994;stroke-linecap:round;stroke-linejoin:round;stroke-miterlimit:4;stroke-dasharray:none;stroke-dashoffset:0;stroke-opacity:1"
     id="rect6741-1-2"
     d="m 19.5,21.5 h -15 v -20 h 15 z" />
  <path
     style="color:#000000;display:inline;overflow:visible;visibility:visible;fill:url(#radialGradient3249-0);fill-opacity:1;fill-rule:nonzero;stroke:none;stroke-width:1;marker:none;enable-background:accumulate"
     id="path4530"
     d="m 6,22.495149 c -1.1152858,0 -1.2354179,0 -2.350709,0 -0.27108,-0.260377 -0.064947,-0.77733 -0.1293549,-1.145943 0,-6.906001 0,-13.812 0,-20.7179994 l 0.037805,-0.089429 0.091549,-0.036927 v 0 c 1.160786,0 1.189929,0 2.3507099,0" />
  <path
     style="opacity:0.5;fill:none;stroke:url(#linearGradient4872);stroke-width:0.99999994;stroke-linecap:round;stroke-linejoin:round;stroke-miterlimit:4;stroke-dasharray:none;stroke-dashoffset:0;stroke-opacity:1"
     id="rect6741-1-4"
     d="M 5.7525771,21.5 H 4.5 V 1.5000001 h 1.2525771" />
  <path
     style="display:inline;opacity:0.3;fill:none;stroke:#000000;stroke-width:0.99992162;stroke-linecap:butt;stroke-linejoin:round;stroke-miterlimit:4;stroke-dasharray:none;stroke-dashoffset:0;stroke-opacity:1"
     id="path4160-1"
     d="M 3.4999617,0.4999607 C 3.6151816,0.4919507 20.5,0.4999997 20.5,0.4999997 c 0,5.7291573 3.9e-5,16.2708813 3.9e-5,22.0000393 -5.666693,0 -11.3333845,0 -17.0000773,0 0,-7.33336 0,-14.66672 0,-22.0000783 z" />
  <path
     style="fill:none;stroke:url(#linearGradient3184);stroke-width:1px;stroke-linecap:butt;stroke-linejoin:miter;stroke-opacity:1"
     id="path3475"
     d="m 18,5.5 h -1.647888 z m -1.830986,0 h -0.788732 z m -0.929578,0 h -0.394365 z m -0.549296,0 h -0.718309 z m -0.873238,0 h -0.732395 z m -0.87324,0 h -1.169014 z m -1.323943,0 h -1.521127 z m -1.661972,0 H 8.943662 Z m -1.15493,0 H 8.549296 Z M 18,6.492709 h -1.394366 z m -1.535211,0 h -2.28169 z m -2.422536,0 h -1.112676 z m -1.253521,0 h -1.042253 z m -1.183098,0 H 10.71831 Z m -1.028169,0 -1.394367,0.01458 z M 9.056338,6.507289 Z M 18,7.5 h -1.929578 z m -2.084507,0 h -2.084507 z m -2.225352,0 h -0.830986 z m -0.971831,0 h -1.957747 z m -2.084507,0 H 9.295775 Z m -1.492958,0 H 8.605634 Z M 18,8.5 h -0.71831 z m -0.943662,0 H 14.394366 Z M 18,10.492709 h -1.394366 z m -1.535211,0 h -2.28169 z m -2.422536,0 h -1.112676 z m -1.253521,0 h -1.042253 z m -1.183098,0 H 10.71831 Z m -1.028169,0 -1.394367,0.01458 z m -1.521127,0.01458 z M 18,11.5 h -1.056338 z m -1.211268,0 h -0.97183 z m -1.140845,0 h -0.873239 z m -1.014085,0 h -0.380281 z m -0.535211,0 h -0.84507 z m -1.014084,0 h -2.211268 z m -2.366197,0 H 9.028169 Z m -1.830986,0 H 8.352113 Z M 18,12.5 h -1.774648 z m -1.915493,0 h -1.901408 z m -2.042254,0 h -0.732394 z m -0.873239,0 h -1.788733 z m -1.929577,0 H 8.985916 Z m -2.408451,0 H 8 Z M 18,13.5 h -1.647888 z m -1.830986,0 h -0.788732 z m -0.929578,0 h -0.394365 z m -0.549296,0 h -0.718309 z m -0.873238,0 h -0.732395 z m -0.87324,0 h -1.169014 z m -1.323943,0 h -1.521127 z m -1.661972,0 H 8.943662 Z m -1.15493,0 H 8.549296 Z M 18,15.49271 h -1.394366 z m -1.535211,0 h -2.28169 z m -2.422536,0 h -1.112676 z m -1.253521,0 h -1.042253 z m -1.183098,0 H 10.71831 Z m -1.028169,0 -1.394367,0.01458 z M 9.056338,15.50729 Z M 18,16.5 h -1.647888 z m -1.830986,0 h -0.788732 z m -0.929578,0 h -0.394365 z m -0.549296,0 h -0.718309 z m -0.873238,0 h -0.732395 z m -0.87324,0 h -1.169014 z m -1.323943,0 h -1.521127 z m -1.661972,0 H 8.943662 Z m -1.15493,0 H 8.549296 Z M 18,17.5 h -1.746479 z m -1.901409,0 h -0.549295 z m -0.69014,0 h -1.253522 z m -1.394367,0 h -1.84507 z m -1.999999,0 h -1.253522 z m -1.380282,0 h -0.267606 z m -0.408451,0 H 8.633803 Z M 18,18.5 h -1.746479 z m -1.901409,0 h -0.788732 z m -0.929577,0 h -1.239437 z m -1.380281,0 h -1.338029 z m -1.492958,0 h -0.535212 z m -0.676056,0 h -0.295776 z m -0.450705,0 h -0.830986 z" />
</svg>
