<svg xmlns="http://www.w3.org/2000/svg" xmlns:xlink="http://www.w3.org/1999/xlink" viewBox="0 0 24 24"><defs><linearGradient x1="21.381" y1="5.052" x2="21.381" y2="44.137" id="t" xlink:href="#a" gradientUnits="userSpaceOnUse" gradientTransform="matrix(.4857 0 0 .5 .343 7.75)"/><linearGradient id="a"><stop offset="0" stop-color="#fff"/><stop offset=".081" stop-color="#fff" stop-opacity=".235"/><stop offset=".923" stop-color="#fff" stop-opacity=".157"/><stop offset="1" stop-color="#fff" stop-opacity=".392"/></linearGradient><radialGradient cx="23.335" cy="41.636" r="22.627" fx="23.335" fy="41.636" id="k" xlink:href="#b" gradientUnits="userSpaceOnUse" gradientTransform="matrix(.48614 0 0 .19884 .656 19.22)"/><linearGradient id="b"><stop offset="0"/><stop offset="1" stop-opacity="0"/></linearGradient><linearGradient x1="103.95" y1="-7.666" x2="89.424" y2="-7.666" id="l" xlink:href="#c" gradientUnits="userSpaceOnUse" gradientTransform="matrix(.37655 0 0 .3584 -27.15 31.67)" spreadMethod="reflect"/><linearGradient id="c"><stop offset="0" stop-color="#868688"/><stop offset="1" stop-color="#d9d9da"/></linearGradient><linearGradient x1="89.018" y1="22.537" x2="89.018" y2="27.546" id="m" xlink:href="#d" gradientUnits="userSpaceOnUse" gradientTransform="matrix(.82245 0 0 .82906 -65.45 8.077)"/><linearGradient id="d"><stop offset="0" stop-color="#a0a0a0"/><stop offset="1" stop-color="#4a4a4a"/></linearGradient><linearGradient x1="103.95" y1="-7.666" x2="89.424" y2="-7.666" id="n" xlink:href="#e" gradientUnits="userSpaceOnUse" gradientTransform="matrix(.37655 0 0 .3584 -27.15 26.67)" spreadMethod="reflect"/><linearGradient id="e"><stop offset="0" stop-color="#868688"/><stop offset="1" stop-color="#d9d9da"/></linearGradient><linearGradient x1="89.018" y1="22.537" x2="89.018" y2="27.546" id="o" xlink:href="#f" gradientUnits="userSpaceOnUse" gradientTransform="matrix(.82245 0 0 .82906 -65.45 3.077)"/><linearGradient id="f"><stop offset="0" stop-color="#a0a0a0"/><stop offset="1" stop-color="#4a4a4a"/></linearGradient><linearGradient x1="103.95" y1="-7.666" x2="89.424" y2="-7.666" id="p" xlink:href="#g" gradientUnits="userSpaceOnUse" gradientTransform="matrix(.37655 0 0 .3528 -27.15 21.746)" spreadMethod="reflect"/><linearGradient id="g"><stop offset="0" stop-color="#868688"/><stop offset="1" stop-color="#d9d9da"/></linearGradient><linearGradient x1="89.018" y1="22.537" x2="89.018" y2="27.546" id="q" xlink:href="#h" gradientUnits="userSpaceOnUse" gradientTransform="matrix(.82245 0 0 .8161 -65.45 -1.478)"/><linearGradient id="h"><stop offset="0" stop-color="#a0a0a0"/><stop offset="1" stop-color="#4a4a4a"/></linearGradient><linearGradient id="i"><stop offset="0" stop-color="#a5a6a8"/><stop offset="1" stop-color="#e8e8e8"/></linearGradient><linearGradient id="j"><stop offset="0" stop-color="#b3b3b3"/><stop offset="1" stop-color="#dadada"/></linearGradient><linearGradient x1="102.308" y1="-2.393" x2="102.308" y2="-24.582" id="r" xlink:href="#i" gradientUnits="userSpaceOnUse" gradientTransform="matrix(.37845 0 0 .34136 -27.338 17.615)" spreadMethod="reflect"/><linearGradient x1="109.956" y1="-24.911" x2="109.956" y2="-2.376" id="s" xlink:href="#j" gradientUnits="userSpaceOnUse" gradientTransform="matrix(.37845 0 0 .34136 -27.338 17.615)"/></defs><g transform="translate(0 -8)"><path d="M23 27.5c0 2.485-4.924 4.5-11 4.5S1 29.985 1 27.5 5.924 23 12 23s11 2.015 11 4.5z" opacity=".3" fill="url(#k)" fill-rule="evenodd" overflow="visible"/><path d="M21.44 26.825c0 2.03-4.233 3.675-9.45 3.675-5.218 0-9.453-1.646-9.453-3.675 0-6.488-1.155-3.598 9.452-3.674 10.85-.077 9.45-2.847 9.45 3.676z" fill="url(#l)" stroke="url(#m)"/><path d="M21.5 23c0 1.933-4.253 3.5-9.5 3.5S2.5 24.933 2.5 23s4.253-3.5 9.5-3.5 9.5 1.567 9.5 3.5z" fill="none" stroke="#d8d8d8"/><path d="M21.44 21.825c0 2.03-4.233 3.675-9.45 3.675-5.218 0-9.453-1.646-9.453-3.675 0-6.488-1.155-3.598 9.452-3.674 10.85-.077 9.45-2.847 9.45 3.676z" fill="url(#n)" stroke="url(#o)"/><path d="M21.5 18c0 1.933-4.253 3.5-9.5 3.5S2.5 19.933 2.5 18s4.253-3.5 9.5-3.5 9.5 1.567 9.5 3.5z" fill="none" stroke="#d8d8d8"/><path d="M21.44 16.977c0 1.997-4.233 3.523-9.45 3.523-5.218 0-9.453-1.526-9.453-3.523 0-7.19-1.155-3.542 9.452-3.617 10.85-.078 9.45-3.11 9.45 3.617z" fill="url(#p)" stroke="url(#q)"/><path d="M21.5 13c0 1.933-4.253 3.5-9.5 3.5S2.5 14.933 2.5 13 6.753 9.5 12 9.5s9.5 1.567 9.5 3.5z" fill="url(#r)" stroke="url(#s)"/><rect width="17" height="19" rx="17.5" ry="3" x="3.5" y="10.5" opacity=".5" color="#000" fill="none" stroke="url(#t)" overflow="visible"/></g></svg>