<?xml version="1.0" encoding="UTF-8" standalone="no"?>
<!-- Created with Inkscape (http://www.inkscape.org/) -->

<svg
   xmlns:dc="http://purl.org/dc/elements/1.1/"
   xmlns:cc="http://creativecommons.org/ns#"
   xmlns:rdf="http://www.w3.org/1999/02/22-rdf-syntax-ns#"
   xmlns:svg="http://www.w3.org/2000/svg"
   xmlns="http://www.w3.org/2000/svg"
   xmlns:xlink="http://www.w3.org/1999/xlink"
   xmlns:sodipodi="http://sodipodi.sourceforge.net/DTD/sodipodi-0.dtd"
   xmlns:inkscape="http://www.inkscape.org/namespaces/inkscape"
   width="24"
   height="24"
   id="svg3927"
   version="1.1"
   inkscape:version="0.48.3.1 r9886"
   sodipodi:docname="playlist.svg">
  <defs
     id="defs3929">
    <linearGradient
       id="linearGradient3977">
      <stop
         id="stop3979"
         style="stop-color:#ffffff;stop-opacity:1"
         offset="0" />
      <stop
         id="stop3981"
         style="stop-color:#ffffff;stop-opacity:0.23529412"
         offset="0.03626217" />
      <stop
         id="stop3983"
         style="stop-color:#ffffff;stop-opacity:0.15686275"
         offset="0.95056331" />
      <stop
         id="stop3985"
         style="stop-color:#ffffff;stop-opacity:0.39215687"
         offset="1" />
    </linearGradient>
    <linearGradient
       id="linearGradient2867-449-88-871-390-598-476-591-434-148-57-177-8-3-4">
      <stop
         id="stop3750-1-0-7"
         style="stop-color:#ffcd7d;stop-opacity:1"
         offset="0" />
      <stop
         id="stop3752-3-7-6"
         style="stop-color:#fc8f36;stop-opacity:1"
         offset="0.26238" />
      <stop
         id="stop3754-1-8-5"
         style="stop-color:#e23a0e;stop-opacity:1"
         offset="0.704952" />
      <stop
         id="stop3756-1-6-6"
         style="stop-color:#ac441f;stop-opacity:1"
         offset="1" />
    </linearGradient>
    <linearGradient
       id="linearGradient5060">
      <stop
         id="stop5062"
         style="stop-color:#000000;stop-opacity:1"
         offset="0" />
      <stop
         id="stop5064"
         style="stop-color:#000000;stop-opacity:0"
         offset="1" />
    </linearGradient>
    <linearGradient
       id="linearGradient5048">
      <stop
         id="stop5050"
         style="stop-color:#000000;stop-opacity:0"
         offset="0" />
      <stop
         id="stop5056"
         style="stop-color:#000000;stop-opacity:1"
         offset="0.5" />
      <stop
         id="stop5052"
         style="stop-color:#000000;stop-opacity:0"
         offset="1" />
    </linearGradient>
    <linearGradient
       inkscape:collect="always"
       xlink:href="#linearGradient5048"
       id="linearGradient4008"
       gradientUnits="userSpaceOnUse"
       gradientTransform="matrix(0.0352071,0,0,0.0082353,-0.724852,26.980547)"
       x1="302.85715"
       y1="366.64789"
       x2="302.85715"
       y2="609.50507" />
    <radialGradient
       inkscape:collect="always"
       xlink:href="#linearGradient5060"
       id="radialGradient4010"
       gradientUnits="userSpaceOnUse"
       gradientTransform="matrix(-0.01204859,0,0,0.0082353,10.761206,26.980564)"
       cx="605.71429"
       cy="486.64789"
       fx="605.71429"
       fy="486.64789"
       r="117.14286" />
    <radialGradient
       inkscape:collect="always"
       xlink:href="#linearGradient5060"
       id="radialGradient4012"
       gradientUnits="userSpaceOnUse"
       gradientTransform="matrix(0.01204859,0,0,0.0082353,13.238793,26.980564)"
       cx="605.71429"
       cy="486.64789"
       fx="605.71429"
       fy="486.64789"
       r="117.14286" />
    <radialGradient
       inkscape:collect="always"
       xlink:href="#linearGradient2867-449-88-871-390-598-476-591-434-148-57-177-8-3-4"
       id="radialGradient4014"
       gradientUnits="userSpaceOnUse"
       gradientTransform="matrix(-7.8526754e-8,3.1504885,-3.9304936,-9.4569185e-8,51.131135,-19.40476)"
       cx="7.8060555"
       cy="9.9571075"
       fx="7.2758255"
       fy="9.9571075"
       r="12.671875" />
    <linearGradient
       inkscape:collect="always"
       xlink:href="#linearGradient3977"
       id="linearGradient4016"
       gradientUnits="userSpaceOnUse"
       gradientTransform="matrix(0.40540511,0,0,0.51351351,2.2696871,7.6756805)"
       x1="23.99999"
       y1="5.5641499"
       x2="23.99999"
       y2="43" />
  </defs>
  <sodipodi:namedview
     id="base"
     pagecolor="#ffffff"
     bordercolor="#666666"
     borderopacity="1.0"
     inkscape:pageopacity="0.0"
     inkscape:pageshadow="2"
     inkscape:zoom="11.197802"
     inkscape:cx="16"
     inkscape:cy="16"
     inkscape:current-layer="layer1"
     showgrid="true"
     inkscape:grid-bbox="true"
     inkscape:document-units="px"
     inkscape:window-width="1280"
     inkscape:window-height="754"
     inkscape:window-x="0"
     inkscape:window-y="24"
     inkscape:window-maximized="1" />
  <metadata
     id="metadata3932">
    <rdf:RDF>
      <cc:Work
         rdf:about="">
        <dc:format>image/svg+xml</dc:format>
        <dc:type
           rdf:resource="http://purl.org/dc/dcmitype/StillImage" />
        <dc:title></dc:title>
      </cc:Work>
    </rdf:RDF>
  </metadata>
  <g
     id="layer1"
     inkscape:label="Layer 1"
     inkscape:groupmode="layer"
     transform="translate(0,-8)">
    <rect
       style="opacity:0.15;fill:url(#linearGradient4008);fill-opacity:1;fill-rule:nonzero;stroke:none;stroke-width:1;marker:none;visibility:visible;display:inline;overflow:visible"
       id="rect2879"
       y="30"
       x="3.5000007"
       height="2"
       width="16.999998" />
    <path
       style="opacity:0.15;fill:url(#radialGradient4010);fill-opacity:1;fill-rule:nonzero;stroke:none;stroke-width:1;marker:none;visibility:visible;display:inline;overflow:visible"
       id="path2881"
       inkscape:connector-curvature="0"
       d="m 3.4999999,30.000085 c 0,0 0,1.999891 0,1.999891 C 2.8795275,32.003776 2,31.551901 2,30.999901 2,30.447902 2.6924,30.000085 3.4999999,30.000085 z" />
    <path
       style="opacity:0.15;fill:url(#radialGradient4012);fill-opacity:1;fill-rule:nonzero;stroke:none;stroke-width:1;marker:none;visibility:visible;display:inline;overflow:visible"
       id="path2883"
       inkscape:connector-curvature="0"
       d="m 20.5,30.000085 c 0,0 0,1.999891 0,1.999891 0.620472,0.0038 1.5,-0.448075 1.5,-1.000075 0,-0.551999 -0.692402,-0.999816 -1.5,-0.999816 z" />
    <path
       style="color:#000000;fill:url(#radialGradient4014);fill-opacity:1;fill-rule:nonzero;stroke:none;stroke-width:1;marker:none;visibility:visible;display:inline;overflow:visible;enable-background:accumulate"
       id="path4160"
       inkscape:connector-curvature="0"
       d="m 3.5,9.5000334 c 3.895562,0 16.999979,0.0013 16.999979,0.0013 L 20.5,30.499993 c 0,0 -11.333333,0 -17,0 0,-6.999999 0,-13.999999 0,-20.9999966 z" />
    <path
       style="opacity:0.5;fill:none;stroke:url(#linearGradient4016);stroke-width:1;stroke-linecap:round;stroke-linejoin:miter;stroke-miterlimit:4;stroke-opacity:1;stroke-dasharray:none;stroke-dashoffset:0"
       id="rect6741-1"
       inkscape:connector-curvature="0"
       d="m 19.5,29.5 -15.0000004,0 0,-19 L 19.5,10.5 z" />
    <path
       style="opacity:0.4;fill:#ffffff;fill-opacity:1;stroke:none"
       id="path7249-8-0"
       inkscape:connector-curvature="0"
       d="m 12.419632,14.004924 c -0.452724,-0.05278 -0.515415,0.329409 -0.468254,0.633498 -0.0043,3.025974 0.0086,6.054723 -0.0064,9.078969 -0.110572,0.104088 -0.322761,-0.06711 -0.463635,-0.02267 -1.5347133,-0.08429 -3.2115233,0.918375 -3.3649513,2.365374 -0.180821,1.15045 1.168324,2.097014 2.3714223,1.918083 1.515988,-0.144969 2.700362,-1.523417 2.502717,-2.884224 0.0043,-2.395979 -0.0086,-4.794731 0.0064,-7.188976 0.103332,-0.106628 0.257461,0.120399 0.366317,0.131537 1.219106,0.649917 2.297503,1.721651 2.370301,3.056313 0.08005,1.042898 -0.270433,2.063393 -0.664755,3.030216 1.321308,-1.465446 1.744289,-3.603235 0.826124,-5.334142 -0.469578,-1.004766 -1.528881,-1.623966 -2.121477,-2.55722 -0.437627,-0.623662 -0.770691,-1.319898 -0.874898,-2.05618 -0.0858,-0.153536 -0.311793,-0.172232 -0.478911,-0.170578 z" />
    <path
       style="fill:#bc4014;fill-opacity:1;stroke:none"
       id="path7249-8-0-4"
       inkscape:connector-curvature="0"
       d="m 12.419632,13.004924 c -0.452724,-0.05278 -0.515415,0.329409 -0.468254,0.633497 -0.0043,3.025975 0.0086,6.054725 -0.0064,9.078968 -0.110572,0.10409 -0.322761,-0.0671 -0.463635,-0.02267 -1.5347133,-0.08429 -3.2115233,0.918378 -3.3649513,2.365376 -0.180821,1.15045 1.168324,2.097014 2.3714223,1.918082 1.515988,-0.144968 2.700362,-1.523417 2.502717,-2.884223 0.0043,-2.395979 -0.0086,-4.794732 0.0064,-7.188977 0.103332,-0.106629 0.257461,0.120399 0.366317,0.131537 1.219106,0.649916 2.297503,1.721652 2.370301,3.056314 0.08005,1.042897 -0.270433,2.063392 -0.664755,3.030214 1.321308,-1.465443 1.744289,-3.603234 0.826124,-5.334141 C 15.42534,16.784134 14.366037,16.164936 13.773441,15.23168 13.335814,14.608019 13.00275,13.911783 12.898543,13.1755 12.812743,13.021964 12.58675,13.003269 12.419632,13.004923 z" />
    <path
       style="opacity:0.35;color:#000000;fill:none;stroke:#770000;stroke-width:1;stroke-linecap:round;stroke-linejoin:round;stroke-miterlimit:4;stroke-opacity:1;stroke-dasharray:none;stroke-dashoffset:0;marker:none;visibility:visible;display:inline;overflow:visible;enable-background:accumulate"
       id="path4160-7"
       inkscape:connector-curvature="0"
       d="m 3.5,9.500033 c 3.895562,0 16.999979,0.0013 16.999979,0.0013 L 20.5,30.499993 c 0,0 -11.333333,0 -17,0 0,-6.999999 0,-13.999999 0,-20.999997 z" />
  </g>
</svg>
