<?xml version="1.0" encoding="UTF-8" standalone="no"?>
<svg
   xmlns:dc="http://purl.org/dc/elements/1.1/"
   xmlns:cc="http://creativecommons.org/ns#"
   xmlns:rdf="http://www.w3.org/1999/02/22-rdf-syntax-ns#"
   xmlns:svg="http://www.w3.org/2000/svg"
   xmlns="http://www.w3.org/2000/svg"
   xmlns:xlink="http://www.w3.org/1999/xlink"
   viewBox="0 0 24 24"
   id="svg3828"
   height="24"
   width="24"
   version="1.1">
  <defs
     id="defs3830">
    <linearGradient
       id="linearGradient3977">
      <stop
         offset="0"
         style="stop-color:#ffffff;stop-opacity:1"
         id="stop3979" />
      <stop
         offset="0"
         style="stop-color:#ffffff;stop-opacity:0.23529412"
         id="stop3981" />
      <stop
         offset="1"
         style="stop-color:#ffffff;stop-opacity:0.15686275"
         id="stop3983" />
      <stop
         offset="1"
         style="stop-color:#ffffff;stop-opacity:0.39215687"
         id="stop3985" />
    </linearGradient>
    <linearGradient
       id="linearGradient3600-4">
      <stop
         offset="0"
         style="stop-color:#f4f4f4;stop-opacity:1"
         id="stop3602-7" />
      <stop
         offset="1"
         style="stop-color:#dbdbdb;stop-opacity:1"
         id="stop3604-6" />
    </linearGradient>
    <linearGradient
       id="linearGradient5060">
      <stop
         offset="0"
         style="stop-color:#000000;stop-opacity:1"
         id="stop5062" />
      <stop
         offset="1"
         style="stop-color:#000000;stop-opacity:0"
         id="stop5064" />
    </linearGradient>
    <linearGradient
       id="linearGradient5048">
      <stop
         offset="0"
         style="stop-color:#000000;stop-opacity:0"
         id="stop5050" />
      <stop
         offset="0.5"
         style="stop-color:#000000;stop-opacity:1"
         id="stop5056" />
      <stop
         offset="1"
         style="stop-color:#000000;stop-opacity:0"
         id="stop5052" />
    </linearGradient>
    <linearGradient
       gradientTransform="matrix(0.40540511,0,0,0.51351351,2.2696871,-0.3243195)"
       gradientUnits="userSpaceOnUse"
       xlink:href="#linearGradient3977"
       id="linearGradient3013"
       y2="41.526306"
       x2="23.99999"
       y1="6.4736748"
       x1="23.99999" />
    <linearGradient
       gradientTransform="matrix(0.45714178,0,0,0.43456667,1.0285964,0.90372283)"
       gradientUnits="userSpaceOnUse"
       xlink:href="#linearGradient3600-4"
       id="linearGradient3016"
       y2="47.013336"
       x2="25.132275"
       y1="0.98520643"
       x1="25.132275" />
    <radialGradient
       gradientTransform="matrix(0.01204859,0,0,0.0082353,13.238793,18.980564)"
       gradientUnits="userSpaceOnUse"
       xlink:href="#linearGradient5060"
       id="radialGradient3021"
       fy="486.64789"
       fx="605.71429"
       r="117.14286"
       cy="486.64789"
       cx="605.71429" />
    <radialGradient
       gradientTransform="matrix(-0.01204859,0,0,0.0082353,10.761206,18.980564)"
       gradientUnits="userSpaceOnUse"
       xlink:href="#linearGradient5060"
       id="radialGradient3024"
       fy="486.64789"
       fx="605.71429"
       r="117.14286"
       cy="486.64789"
       cx="605.71429" />
    <linearGradient
       gradientTransform="matrix(0.0352071,0,0,0.0082353,-0.724852,18.980547)"
       gradientUnits="userSpaceOnUse"
       xlink:href="#linearGradient5048"
       id="linearGradient3027"
       y2="609.50507"
       x2="302.85715"
       y1="366.64789"
       x1="302.85715" />
    <linearGradient
       gradientTransform="matrix(-0.48571482,0,0,0.477213,24.387752,-0.326798)"
       gradientUnits="userSpaceOnUse"
       xlink:href="#linearGradient3104-5"
       id="linearGradient3031"
       y2="3.3638515"
       x2="22.004084"
       y1="47.813133"
       x1="22.004084" />
    <linearGradient
       id="linearGradient3104-5">
      <stop
         offset="0"
         style="stop-color:#aaaaaa;stop-opacity:1"
         id="stop3106-2" />
      <stop
         offset="1"
         style="stop-color:#c8c8c8;stop-opacity:1"
         id="stop3108-5" />
    </linearGradient>
  </defs>
  <metadata
     id="metadata3833">
    <rdf:RDF>
      <cc:Work
         rdf:about="">
        <dc:format>image/svg+xml</dc:format>
        <dc:type
           rdf:resource="http://purl.org/dc/dcmitype/StillImage" />
        <dc:title />
      </cc:Work>
    </rdf:RDF>
  </metadata>
  <rect
     style="display:inline;overflow:visible;visibility:visible;opacity:0.15;fill:url(#linearGradient3027);fill-opacity:1;fill-rule:nonzero;stroke:none;stroke-width:1;marker:none"
     id="rect2879"
     y="22"
     x="3.5000007"
     height="2"
     width="16.999998" />
  <path
     style="display:inline;overflow:visible;visibility:visible;opacity:0.15;fill:url(#radialGradient3024);fill-opacity:1;fill-rule:nonzero;stroke:none;stroke-width:1;marker:none"
     id="path2881"
     d="m 3.4999999,22.000085 c 0,0 0,1.999891 0,1.999891 C 2.8795275,24.003776 2,23.551901 2,22.999901 2,22.447902 2.6924,22.000085 3.4999999,22.000085 Z" />
  <path
     style="display:inline;overflow:visible;visibility:visible;opacity:0.15;fill:url(#radialGradient3021);fill-opacity:1;fill-rule:nonzero;stroke:none;stroke-width:1;marker:none"
     id="path2883"
     d="m 20.5,22.000085 c 0,0 0,1.999891 0,1.999891 0.620472,0.0038 1.5,-0.448075 1.5,-1.000075 0,-0.551999 -0.692402,-0.999816 -1.5,-0.999816 z" />
  <path
     style="display:inline;fill:url(#linearGradient3016);fill-opacity:1;stroke:none"
     id="path4160-3"
     d="M 4,2 C 7.6664118,2 19.99998,2.0013 19.99998,2.0013 L 20,22 C 20,22 9.3333337,22 4,22 4,15.33334 4,8.6666817 4,2.0000212 Z" />
  <path
     style="fill:none;stroke:url(#linearGradient3013);stroke-width:1;stroke-linecap:round;stroke-linejoin:miter;stroke-miterlimit:4;stroke-dasharray:none;stroke-dashoffset:0;stroke-opacity:1"
     id="rect6741-1"
     d="M 19.5,21.5 H 4.4999996 V 2.5 H 19.5 Z" />
  <path
     style="display:inline;opacity:0.3;fill:none;stroke:#000000;stroke-width:0.99992186;stroke-linecap:butt;stroke-linejoin:round;stroke-miterlimit:4;stroke-dasharray:none;stroke-dashoffset:0;stroke-opacity:1"
     id="path4160-3-1"
     d="m 3.4999601,1.4999569 c 3.8955809,0 17.0000589,0.00136 17.0000589,0.00136 l 2.1e-5,20.9987161 c 0,0 -11.3333862,0 -17.0000799,0 0,-7.000018 0,-14.000035 0,-21.0000538 z" />
  <path
     d="m 18.082156,5.5 h -1.138394 z m -1.305359,0 h -1.062501 z m -1.229466,0 h -0.941072 z m -1.092858,0 h -0.409822 z m -0.576786,0 h -0.910715 z m -1.092859,0 h -2.398216 z m -2.550002,0 h -1.83661 z m -1.988395,0 H 7.684823 Z m 9.835725,1 h -1.775895 z m -1.973217,0 h -0.850001 z m -1.001787,0 h -0.425 z m -0.591965,0 h -0.774108 z m -0.941072,0 h -0.789287 z m -0.941072,0 H 11.37322 Z m -1.426788,0 H 9.566968 Z m -1.791073,0 H 8.322324 Z m -1.244644,0 H 7.897323 Z m 9.911618,0.9925436 h -1.502681 z m -1.654466,0 h -2.458932 z m -2.610718,0 h -1.199108 z m -1.350894,0 h -1.123215 z m -1.275001,0 h -0.956251 z m -1.108037,0 -1.50268,0.014913 z M 8.443752,7.5074566 H 6 Z M 18.082156,8.5 h -2.079467 z m -2.246431,0 h -2.246431 z m -2.398217,0 h -0.895537 z m -1.047323,0 h -2.109824 z m -2.246431,0 H 8.701788 Z m -1.60893,0 H 7.958037 Z m -0.728572,0 H 7.487501 Z m -0.485715,0 H 6.425 Z m 10.761619,1 h -0.774108 z m -1.016966,0 h -2.868753 z m 1.016966,1.992545 h -1.502681 z m -1.654466,0 h -2.458932 z m -2.610718,0 h -1.199108 z m -1.350894,0 h -1.123215 z m -1.275001,0 h -0.956251 z m -1.108037,0 -1.50268,0.01491 z m -1.639288,0.01491 H 6 Z M 18.082156,12.5 h -1.912502 z m -2.064288,0 h -2.04911 z m -2.200896,0 h -0.789286 z m -0.941072,0 h -1.927681 z m -2.079467,0 H 8.367859 Z m -2.595538,0 H 7.305358 Z m 9.881261,1 h -2.079467 z m -2.246431,0 h -2.246431 z m -2.398217,0 h -0.895537 z m -1.047323,0 h -2.109824 z m -2.246431,0 H 8.701788 Z m -1.60893,0 H 7.958037 Z m -0.728572,0 H 7.487501 Z m -0.485715,0 H 6.425 Z m 10.761619,1 h -1.775895 z m -1.973217,0 h -0.850001 z m -1.001787,0 h -0.425 z m -0.591965,0 h -0.774108 z m -0.941072,0 h -0.789287 z m -0.941072,0 H 11.37322 Z m -1.426788,0 H 9.566968 Z m -1.791073,0 H 8.322324 Z m -1.244644,0 H 7.897323 Z m 9.911618,1.992545 h -1.502681 z m -1.654466,0 h -2.458932 z m -2.610718,0 h -1.199108 z m -1.350894,0 h -1.123215 z m -1.275001,0 h -0.956251 z m -1.108037,0 -1.50268,0.01491 z m -1.639288,0.01491 H 6 Z M 18.082156,17.5 h -1.775895 z m -1.973217,0 h -0.850001 z m -1.001787,0 h -0.425 z m -0.591965,0 h -0.774108 z m -0.941072,0 h -0.789287 z m -0.941072,0 H 11.37322 Z m -1.426788,0 H 9.566968 Z m -1.791073,0 H 8.322324 Z m -1.244644,0 H 7.897323 Z m 9.911618,1 h -1.882145 z m -2.04911,0 h -0.591965 z m -0.743751,0 h -1.350894 z m -1.50268,0 H 11.79822 Z m -2.155359,0 h -1.350895 z m -1.487502,0 H 9.855361 Z m -0.440179,0 h -1.71518 z m -1.897323,0 H 6.910715 Z m 10.275904,1 h -1.882145 z m -2.04911,0 h -0.850001 z m -1.001787,0 h -1.335715 z m -1.487501,0 h -1.441966 z m -1.60893,0 h -0.576787 z m -0.728573,0 h -0.31875 z m -0.485715,0 H 9.825004 Z"
     id="path3475"
     style="fill:none;stroke:url(#linearGradient3031);stroke-width:1px;stroke-linecap:butt;stroke-linejoin:miter;stroke-opacity:1" />
</svg>
