<?xml version="1.0" encoding="UTF-8" standalone="no"?>
<svg
   id="svg3828"
   height="24"
   width="24"
   version="1.1"
   sodipodi:docname="text-x-bibtex.svg"
   inkscape:version="1.4 (e7c3feb100, 2024-10-09)"
   xmlns:inkscape="http://www.inkscape.org/namespaces/inkscape"
   xmlns:sodipodi="http://sodipodi.sourceforge.net/DTD/sodipodi-0.dtd"
   xmlns:xlink="http://www.w3.org/1999/xlink"
   xmlns="http://www.w3.org/2000/svg"
   xmlns:svg="http://www.w3.org/2000/svg"
   xmlns:rdf="http://www.w3.org/1999/02/22-rdf-syntax-ns#"
   xmlns:cc="http://creativecommons.org/ns#"
   xmlns:dc="http://purl.org/dc/elements/1.1/">
  <sodipodi:namedview
     id="namedview1"
     pagecolor="#ffffff"
     bordercolor="#000000"
     borderopacity="0.25"
     inkscape:showpageshadow="2"
     inkscape:pageopacity="0.0"
     inkscape:pagecheckerboard="0"
     inkscape:deskcolor="#d1d1d1"
     inkscape:zoom="47.166667"
     inkscape:cx="12"
     inkscape:cy="12"
     inkscape:current-layer="svg3828" />
  <defs
     id="defs3830">
    <linearGradient
       id="linearGradient3977">
      <stop
         offset="0"
         style="stop-color:#ffffff;stop-opacity:1"
         id="stop3979" />
      <stop
         offset="0"
         style="stop-color:#ffffff;stop-opacity:0.23529412"
         id="stop3981" />
      <stop
         offset="1"
         style="stop-color:#ffffff;stop-opacity:0.15686275"
         id="stop3983" />
      <stop
         offset="1"
         style="stop-color:#ffffff;stop-opacity:0.39215687"
         id="stop3985" />
    </linearGradient>
    <linearGradient
       id="linearGradient3600-4">
      <stop
         offset="0"
         style="stop-color:#f4f4f4;stop-opacity:1"
         id="stop3602-7" />
      <stop
         offset="1"
         style="stop-color:#dbdbdb;stop-opacity:1"
         id="stop3604-6" />
    </linearGradient>
    <linearGradient
       id="linearGradient5060">
      <stop
         offset="0"
         style="stop-color:#000000;stop-opacity:1"
         id="stop5062" />
      <stop
         offset="1"
         style="stop-color:#000000;stop-opacity:0"
         id="stop5064" />
    </linearGradient>
    <linearGradient
       id="linearGradient5048">
      <stop
         offset="0"
         style="stop-color:#000000;stop-opacity:0"
         id="stop5050" />
      <stop
         offset="0.5"
         style="stop-color:#000000;stop-opacity:1"
         id="stop5056" />
      <stop
         offset="1"
         style="stop-color:#000000;stop-opacity:0"
         id="stop5052" />
    </linearGradient>
    <linearGradient
       gradientTransform="matrix(0.40540511,0,0,0.51351351,2.2696871,-0.3243195)"
       gradientUnits="userSpaceOnUse"
       xlink:href="#linearGradient3977"
       id="linearGradient3013"
       y2="41.526306"
       x2="23.99999"
       y1="6.4736748"
       x1="23.99999" />
    <linearGradient
       gradientTransform="matrix(0.45714178,0,0,0.43456667,1.0285964,0.90372283)"
       gradientUnits="userSpaceOnUse"
       xlink:href="#linearGradient3600-4"
       id="linearGradient3016"
       y2="47.013336"
       x2="25.132275"
       y1="0.98520643"
       x1="25.132275" />
    <radialGradient
       gradientTransform="matrix(0.01204859,0,0,0.0082353,13.238793,18.980564)"
       gradientUnits="userSpaceOnUse"
       xlink:href="#linearGradient5060"
       id="radialGradient3021"
       fy="486.64789"
       fx="605.71429"
       r="117.14286"
       cy="486.64789"
       cx="605.71429" />
    <radialGradient
       gradientTransform="matrix(-0.01204859,0,0,0.0082353,10.761206,18.980564)"
       gradientUnits="userSpaceOnUse"
       xlink:href="#linearGradient5060"
       id="radialGradient3024"
       fy="486.64789"
       fx="605.71429"
       r="117.14286"
       cy="486.64789"
       cx="605.71429" />
    <linearGradient
       gradientTransform="matrix(0.0352071,0,0,0.0082353,-0.724852,18.980547)"
       gradientUnits="userSpaceOnUse"
       xlink:href="#linearGradient5048"
       id="linearGradient3027"
       y2="609.50507"
       x2="302.85715"
       y1="366.64789"
       x1="302.85715" />
  </defs>
  <metadata
     id="metadata3833">
    <rdf:RDF>
      <cc:Work
         rdf:about="">
        <dc:format>image/svg+xml</dc:format>
        <dc:type
           rdf:resource="http://purl.org/dc/dcmitype/StillImage" />
      </cc:Work>
    </rdf:RDF>
  </metadata>
  <g
     id="g4137">
    <path
       id="path3475"
       d="m 14,4.5 1.683594,0 z m 1.835938,0 L 18,4.5 Z M 14,6.4921875 l 1.501953,0.015625 z m 1.638672,0.015625 2.361328,0 z M 14,8.5 l 1.380859,0 z m 1.546875,0 0.578125,0 z m 0.728516,0 0.318359,0 z m 0.486328,0 L 18,8.5 Z M 12,10.484375 l 2.152344,0 z m 2.304688,0 1.199218,0 z m 1.351562,0 1.123047,0 z m 1.275391,0 1.068359,0 z M 6,10.5 l 1.8828125,0 z m 2.0488281,0 0.8496094,0 z m 1.0019531,0 1.3359378,0 z m 1.4882808,0 1.261719,0 z M 6,12.5 l 1.9121094,0 z m 2.0644531,0 2.0488279,0 z m 2.2011719,0 0.789063,0 z m 0.941406,0 1.927735,0 z m 2.078125,0 2.429688,0 z m 2.595703,0 L 18,12.5 Z M 6,14.5 l 1.7753906,0 z m 1.9726562,0 0.8496094,0 z m 1.0019532,0 0.4257812,0 z m 0.5917968,0 0.7753908,0 z m 0.9414058,0 0.789063,0 z m 0.941407,0 1.259765,0 z m 1.425781,0 1.640625,0 z m 1.791016,0 1.09375,0 z m 1.246093,0 L 18,14.5 Z M 6,16.492188 l 1.5019531,0 z m 1.6542969,0 2.3457031,0 z M 6,18.5 l 1.8828125,0 z m 2.0488281,0 0.5917969,0 z m 0.7441407,0 L 10,18.5 Z M 6,20.5 l 1.8828125,0 z m 2.0488281,0 0.8496094,0 z m 1.0019531,0 L 10,20.5 Z"
       style="fill:none;stroke:#7e8087;stroke-width:1px;stroke-linecap:butt;stroke-linejoin:miter;stroke-opacity:1" />
    <path
       style="fill:#7e8087;fill-opacity:1"
       d="m 11.135115,20.372332 c 0.930979,-0.432877 1.904948,-0.887695 1.904948,-1.86166 0,-0.303013 -0.129864,-0.303013 -0.6926,-0.346301 -0.627667,-0.04327 -0.887691,-0.454517 -0.887691,-1.017254 C 11.459773,16.367945 11.957578,16 12.5636,16 c 0.909036,0 1.580293,0.800818 1.580293,1.904649 0,0.844403 -0.411233,1.709851 -1.147118,2.337821 C 12.49897,20.6537 12.087738,20.805206 11.394841,21 l -0.259726,-0.627668 z m 3.85288,0 c 0.93068,-0.432877 1.904647,-0.887695 1.904647,-1.86166 0,-0.303013 -0.129861,-0.303013 -0.692597,-0.346301 -0.62767,-0.04327 -0.887393,-0.454517 -0.887393,-1.017254 C 15.312652,16.367945 15.810458,16 16.41648,16 c 0.909038,0 1.579993,0.800818 1.579993,1.904649 0,0.844403 -0.41123,1.709851 -1.147117,2.337821 C 16.35155,20.6537 15.94032,20.805206 15.24772,21 l -0.259725,-0.627668 z"
       id="path3253" />
    <path
       style="fill:#7e8087;fill-opacity:1"
       d="M 9.0089563,4.6277055 C 8.0779212,5.0606045 7.103895,5.515152 7.103895,6.489176 c 0,0.3030315 0.12987,0.3030315 0.69264,0.3463215 C 8.42424,6.8787845 8.6842825,7.2900425 8.6842825,7.852815 8.6842825,8.6320325 8.1864475,9 7.5803862,9 6.6712962,9 6,8.1988325 6,7.0949375 6,6.2507815 6.4112537,5.38498 7.147185,4.7572745 7.6450225,4.3463215 8.0565775,4.194806 8.7492175,4 l 0.2597388,0.6277055 z m 3.8531167,0 c -0.930737,0.432899 -1.904764,0.8874465 -1.904764,1.8614705 0,0.3030315 0.12987,0.3030315 0.692641,0.3463215 0.627708,0.043287 0.887446,0.454545 0.887446,1.0173175 C 12.537396,8.6320325 12.039561,9 11.433501,9 10.524409,9 9.8534138,8.1988325 9.8534138,7.0949375 c 0,-0.844156 0.4112542,-1.7099575 1.1471852,-2.337663 C 11.498436,4.3463215 11.909691,4.194806 12.602331,4 l 0.259742,0.6277055 z"
       id="path3255" />
  </g>
</svg>
