<svg xmlns="http://www.w3.org/2000/svg" xmlns:xlink="http://www.w3.org/1999/xlink" viewBox="0 0 24 24"><defs><linearGradient id="g"><stop offset="0" stop-opacity="0"/><stop offset=".5"/><stop offset="1" stop-opacity="0"/></linearGradient><linearGradient id="f"><stop offset="0"/><stop offset="1" stop-opacity="0"/></linearGradient><linearGradient id="d"><stop offset="0" stop-color="#f4f4f4"/><stop offset="1" stop-color="#dbdbdb"/></linearGradient><linearGradient id="a"><stop offset="0" stop-color="#fff"/><stop offset="1" stop-color="#fff" stop-opacity="0"/></linearGradient><linearGradient id="e"><stop offset="0" stop-color="#aaa"/><stop offset="1" stop-color="#c8c8c8"/></linearGradient><linearGradient x1="24" y1="1.425" x2="24" y2="46.017" id="o" xlink:href="#a" gradientUnits="userSpaceOnUse" gradientTransform="matrix(.45454 0 0 .46512 1.09 .337)"/><linearGradient x1="-22.54" y1="1.073" x2="-22.54" y2="46.264" id="m" xlink:href="#b" gradientUnits="userSpaceOnUse" gradientTransform="matrix(.50815 0 0 .5017 25.342 -.528)"/><linearGradient x1="9.492" y1="46.314" x2="9.492" y2="1.716" id="n" xlink:href="#c" gradientUnits="userSpaceOnUse" gradientTransform="matrix(.57915 0 0 .4884 -.247 -.22)"/><linearGradient x1="25.132" y1=".985" x2="25.132" y2="47.013" id="k" xlink:href="#d" gradientUnits="userSpaceOnUse" gradientTransform="matrix(.48572 0 0 .47803 .343 -.706)"/><linearGradient x1="-51.786" y1="50.786" x2="-51.786" y2="2.906" id="l" xlink:href="#e" gradientUnits="userSpaceOnUse" gradientTransform="matrix(.3922 0 0 .44736 29.2 -1.24)"/><radialGradient cx="605.714" cy="486.648" r="117.143" fx="605.714" fy="486.648" id="p" xlink:href="#f" gradientUnits="userSpaceOnUse" gradientTransform="matrix(-.01473 0 0 .00954 21.208 18.688)"/><radialGradient cx="605.714" cy="486.648" r="117.143" fx="605.714" fy="486.648" id="j" xlink:href="#f" gradientUnits="userSpaceOnUse" gradientTransform="matrix(-.01205 0 0 .00824 10.76 18.98)"/><linearGradient x1="302.857" y1="366.648" x2="302.857" y2="609.505" id="i" xlink:href="#g" gradientUnits="userSpaceOnUse" gradientTransform="matrix(.0352 0 0 .00824 -.725 18.98)"/><linearGradient id="b"><stop offset="0" stop-color="#90dbec"/><stop offset=".262" stop-color="#55c1ec"/><stop offset=".705" stop-color="#3689e6"/><stop offset="1" stop-color="#2b63a0"/></linearGradient><linearGradient id="c"><stop offset="0" stop-color="#185f9a"/><stop offset="1" stop-color="#599ec9"/></linearGradient><linearGradient id="h"><stop offset="0" stop-color="#fcfcfc"/><stop offset="1" stop-color="#cbcdd9"/></linearGradient><linearGradient x1="33.877" y1="19.948" x2="44.119" y2="30.191" id="q" xlink:href="#h" gradientUnits="userSpaceOnUse" gradientTransform="matrix(0 .61754 -.65185 0 33.56 -4.756)"/></defs><path opacity=".15" fill="url(#i)" overflow="visible" d="M3.5 22h17v2h-17z"/><path d="M3.5 22v2c-.62.004-1.5-.448-1.5-1s.692-1 1.5-1z" opacity=".15" fill="url(#j)" overflow="visible"/><path d="M3.5.5c.013-.005 17 0 17 0v22h-17V.5z" fill="url(#k)" stroke="url(#l)" stroke-linejoin="round"/><path d="M6 22.495H3.65c-.272-.26-.066-.777-.13-1.146V.63l.038-.088.09-.037H6" fill="url(#m)" stroke="url(#n)" stroke-width="1.01" stroke-linejoin="round" display="block" overflow="visible"/><path d="M19.5 1v20.5h-15v-20h15" opacity=".24" fill="none" stroke="url(#o)"/><path d="M8 4.5h2m1 0h2m1 0h2m1 0h1m-10 2h4m1 0h2m1 0h1m-9 2h2m1 0h5m-8 3h3m1 0h4m1 0h1m-10 2h2m1 0h2m1 0h2m-8 3h3m1 0h4m1 0h1m-10 2h4m1 0h2m1 0h2" stroke="#aaa" fill="none"/><path d="M12.333 22.184V24.5c-.758.004-1.833-.52-1.833-1.158 0-.64.846-1.158 1.833-1.158z" opacity=".15" fill="url(#p)" overflow="visible"/><path d="M21.5 13l-11 10.5h11zm-2 4.8v3.7h-3.9z" opacity=".8" fill="url(#q)" fill-rule="evenodd" stroke="#83899a"/></svg>