<?xml version="1.0" encoding="UTF-8" standalone="no"?>
<svg
   xmlns:dc="http://purl.org/dc/elements/1.1/"
   xmlns:cc="http://creativecommons.org/ns#"
   xmlns:rdf="http://www.w3.org/1999/02/22-rdf-syntax-ns#"
   xmlns:svg="http://www.w3.org/2000/svg"
   xmlns="http://www.w3.org/2000/svg"
   xmlns:xlink="http://www.w3.org/1999/xlink"
   xmlns:sodipodi="http://sodipodi.sourceforge.net/DTD/sodipodi-0.dtd"
   xmlns:inkscape="http://www.inkscape.org/namespaces/inkscape"
   version="1.1"
   width="16"
   height="16"
   id="svg3508"
   inkscape:version="0.91 r13725"
   sodipodi:docname="folder-pictures.svg">
  <sodipodi:namedview
     pagecolor="#ffffff"
     bordercolor="#666666"
     borderopacity="1"
     objecttolerance="10"
     gridtolerance="10"
     guidetolerance="10"
     inkscape:pageopacity="0"
     inkscape:pageshadow="2"
     inkscape:window-width="640"
     inkscape:window-height="480"
     id="namedview177646" />
  <defs
     id="defs3510">
    <linearGradient
       id="linearGradient3871-6-7">
      <stop
         id="stop3873-3-2"
         style="stop-color:#0b85e9;stop-opacity:1"
         offset="0" />
      <stop
         id="stop3875-4-0"
         style="stop-color:#69d1ef;stop-opacity:1"
         offset="1" />
    </linearGradient>
    <linearGradient
       id="linearGradient3825-5-8-3">
      <stop
         id="stop3827-2-3-1"
         style="stop-color:#e89c42;stop-opacity:1"
         offset="0" />
      <stop
         id="stop3829-5-0-9"
         style="stop-color:#faca67;stop-opacity:1"
         offset="1" />
    </linearGradient>
    <linearGradient
       id="linearGradient3977-7-7">
      <stop
         id="stop3979-6-6"
         style="stop-color:#ffffff;stop-opacity:1"
         offset="0" />
      <stop
         id="stop3981-3-44"
         style="stop-color:#ffffff;stop-opacity:0.23529412"
         offset="0.03626217" />
      <stop
         id="stop3983-8-5"
         style="stop-color:#ffffff;stop-opacity:0.15686275"
         offset="0.95056331" />
      <stop
         id="stop3985-2-08"
         style="stop-color:#ffffff;stop-opacity:0.39215687"
         offset="1" />
    </linearGradient>
    <linearGradient
       id="linearGradient3600-9-29">
      <stop
         id="stop3602-0-00"
         style="stop-color:#f4f4f4;stop-opacity:1"
         offset="0" />
      <stop
         id="stop3604-9-14"
         style="stop-color:#dbdbdb;stop-opacity:1"
         offset="1" />
    </linearGradient>
    <linearGradient
       id="linearGradient4623-7-4">
      <stop
         id="stop4625-3-72"
         style="stop-color:#000000;stop-opacity:0.27058825"
         offset="0" />
      <stop
         id="stop4627-1-421"
         style="stop-color:#000000;stop-opacity:0.368"
         offset="1" />
    </linearGradient>
    <linearGradient
       x1="-76.834877"
       y1="6.6805849"
       x2="-76.844345"
       y2="52.887863"
       id="linearGradient4054-9"
       xlink:href="#linearGradient4623-7-6-0"
       gradientUnits="userSpaceOnUse"
       gradientTransform="matrix(0.31606802,1.8694201e-4,6.4779015e-5,0.23894327,33.450626,-13.765542)" />
    <linearGradient
       id="linearGradient4623-7-6-0">
      <stop
         id="stop4625-3-2-8"
         style="stop-color:#000000;stop-opacity:0.27058825"
         offset="0" />
      <stop
         id="stop4627-1-97-2"
         style="stop-color:#000000;stop-opacity:0.368"
         offset="1" />
    </linearGradient>
    <linearGradient
       x1="25.132275"
       y1="0.98520643"
       x2="25.132275"
       y2="47.013336"
       id="linearGradient4056-1"
       xlink:href="#linearGradient3600-9-2-4"
       gradientUnits="userSpaceOnUse"
       gradientTransform="matrix(0.34285637,0,0,0.2172834,-5.5618863,-12.261401)" />
    <linearGradient
       id="linearGradient3600-9-2-4">
      <stop
         id="stop3602-0-80-8"
         style="stop-color:#f4f4f4;stop-opacity:1"
         offset="0" />
      <stop
         id="stop3604-9-1-5"
         style="stop-color:#dbdbdb;stop-opacity:1"
         offset="1" />
    </linearGradient>
    <linearGradient
       id="linearGradient3977-7-1-5">
      <stop
         id="stop3979-6-5-4"
         style="stop-color:#ffffff;stop-opacity:1"
         offset="0" />
      <stop
         id="stop3981-3-4-5"
         style="stop-color:#ffffff;stop-opacity:0.23529412"
         offset="0.03626217" />
      <stop
         id="stop3983-8-3-2"
         style="stop-color:#ffffff;stop-opacity:0.15686275"
         offset="0.95056331" />
      <stop
         id="stop3985-2-1-0"
         style="stop-color:#ffffff;stop-opacity:0.39215687"
         offset="1" />
    </linearGradient>
    <linearGradient
       x1="23.99999"
       y1="5.5641499"
       x2="23.99999"
       y2="43"
       id="linearGradient3506"
       xlink:href="#linearGradient3977-7-1-5"
       gradientUnits="userSpaceOnUse"
       gradientTransform="matrix(0.29729729,0,0,0.24324323,-4.4684666,-12.551097)" />
    <linearGradient
       x1="-107.45584"
       y1="-37.385227"
       x2="-107.45584"
       y2="38.561256"
       id="linearGradient3153"
       xlink:href="#linearGradient3871-6-7"
       gradientUnits="userSpaceOnUse"
       gradientTransform="matrix(0.0657842,0,0,0.06827881,16.561056,6.4975778)" />
    <linearGradient
       x1="-96.557358"
       y1="110.92493"
       x2="-96.557358"
       y2="39.991924"
       id="linearGradient3156"
       xlink:href="#linearGradient3825-5-8-3"
       gradientUnits="userSpaceOnUse"
       gradientTransform="matrix(0.0657842,0,0,0.06827881,16.561056,6.4975778)" />
    <linearGradient
       x1="23.99999"
       y1="5.5641499"
       x2="23.99999"
       y2="43"
       id="linearGradient3159"
       xlink:href="#linearGradient3977-7-7"
       gradientUnits="userSpaceOnUse"
       gradientTransform="matrix(0.29729729,0,0,0.24324323,0.86615638,3.1621588)" />
    <linearGradient
       x1="25.132275"
       y1="0.98520643"
       x2="25.132275"
       y2="47.013336"
       id="linearGradient3162"
       xlink:href="#linearGradient3600-9-29"
       gradientUnits="userSpaceOnUse"
       gradientTransform="matrix(0.34285637,0,0,0.2172834,-0.22726362,3.4518588)" />
    <linearGradient
       x1="-76.834877"
       y1="6.6805849"
       x2="-76.844345"
       y2="52.887863"
       id="linearGradient3165"
       xlink:href="#linearGradient4623-7-4"
       gradientUnits="userSpaceOnUse"
       gradientTransform="matrix(0.31606802,1.8694201e-4,6.4779015e-5,0.23894327,38.785246,1.9477188)" />
  </defs>
  <metadata
     id="metadata3513">
    <rdf:RDF>
      <cc:Work
         rdf:about="">
        <dc:format>image/svg+xml</dc:format>
        <dc:type
           rdf:resource="http://purl.org/dc/dcmitype/StillImage" />
        <dc:title />
      </cc:Work>
    </rdf:RDF>
  </metadata>
  <g
     transform="matrix(0.77529172,0.44761488,-0.44761488,0.77529172,2.9288863,11.68471)"
     id="g4048">
    <path
       d="m 9.1667057,-1.2132226 -13.0000781,0 0,-11.0000784 13.0000781,0 z"
       id="rect6741-1-2-0-0"
       style="color:#000000;fill:none;stroke:url(#linearGradient4054-9);stroke-width:1.11694443;stroke-linecap:butt;stroke-linejoin:round;stroke-miterlimit:4;stroke-opacity:1;stroke-dasharray:none;stroke-dashoffset:0;marker:none;visibility:visible;display:inline;overflow:visible;enable-background:accumulate" />
    <path
       d="m -3.3333333,-11.713262 c 2.74980887,0 11.999986,6.25e-4 11.999986,6.25e-4 l 1.4e-5,9.9993754 c 0,0 -7.99999973,0 -12,0 0,-3.333331 0,-6.6666614 0,-9.9999924 z"
       id="path4160-9-79"
       style="fill:url(#linearGradient4056-1);fill-opacity:1;stroke:none;display:inline" />
    <path
       d="m -1.8333334,-10.213262 c 2.06235697,0 8.9999891,4.41e-4 8.9999891,4.41e-4 l 1.1e-5,6.9995594 c 0,0 -5.9999992,0 -9.0000001,0 0,-2.333333 0,-4.6666652 0,-6.9999984 z"
       id="path4160-62-0-7"
       style="color:#000000;fill:#49bdea;fill-opacity:1;fill-rule:nonzero;stroke:#158bb9;stroke-width:1.11703146;stroke-linecap:butt;stroke-linejoin:miter;stroke-miterlimit:4;stroke-opacity:1;stroke-dasharray:none;stroke-dashoffset:0;marker:none;visibility:visible;display:inline;overflow:visible;enable-background:accumulate" />
    <path
       d="m 8.1666667,-2.2132616 -11,0 0,-9.0000004 11,0 z"
       id="rect6741-1-2-7"
       style="fill:none;stroke:url(#linearGradient3506);stroke-width:1.11703157;stroke-linecap:round;stroke-linejoin:miter;stroke-miterlimit:4;stroke-opacity:1;stroke-dasharray:none;stroke-dashoffset:0" />
  </g>
  <path
     d="m 14.501326,14.50004 -13.0000797,0 0,-11.0000812 13.0000797,0 z"
     id="rect6741-1-2-0-7"
     style="color:#000000;fill:none;stroke:url(#linearGradient3165);stroke-width:0.99992192;stroke-linecap:butt;stroke-linejoin:round;stroke-miterlimit:4;stroke-opacity:1;stroke-dasharray:none;stroke-dashoffset:0;marker:none;visibility:visible;display:inline;overflow:visible;enable-background:accumulate" />
  <path
     d="m 2.0012863,3.9999988 c 2.74981,0 11.9999897,6.2e-4 11.9999897,6.2e-4 L 14.001286,14 c 0,0 -7.9999997,0 -11.9999997,0 0,-3.33333 0,-6.6666612 0,-9.9999912 z"
     id="path4160-9-97"
     style="fill:url(#linearGradient3162);fill-opacity:1;stroke:none;display:inline" />
  <path
     d="m 13.501286,13.5 -10.9999997,0 0,-9.0000012 10.9999997,0 z"
     id="rect6741-1-2-2"
     style="fill:none;stroke:url(#linearGradient3159);stroke-width:1;stroke-linecap:round;stroke-linejoin:miter;stroke-miterlimit:4;stroke-opacity:1;stroke-dasharray:none;stroke-dashoffset:0" />
  <path
     d="m 3.0012863,4.9999988 0,8.0000012 9.9999997,0 0,-8.0000012 z"
     id="rect3055-2-9-6"
     style="color:#000000;fill:url(#linearGradient3156);fill-opacity:1;fill-rule:nonzero;stroke:none;stroke-width:10;marker:none;visibility:visible;display:inline;overflow:visible;enable-background:accumulate" />
  <path
     d="m 3.0012863,4.9999988 0,4.082555 c 0.14848,0.07106 0.33651,0.135627 0.53977,0.135627 0.46418,0 0.91812,-0.389189 1.69318,-0.389189 0.77506,0 1.35801,0.489434 2.33523,0.489434 0.97722,0 1.19716,-0.707616 2.4431797,-0.707616 1.24602,0 1.12886,0.448157 1.90909,0.448157 0.53744,0 0.76696,-0.194811 1.07955,-0.318427 l 0,-3.740541 z"
     id="path3867-3-5-9"
     style="fill:url(#linearGradient3153);fill-opacity:1;stroke:none" />
  <path
     d="m 10.012646,8.3501218 c -1.2460197,0 -1.4659597,0.707616 -2.4431797,0.707616 -0.97722,0 -1.56017,-0.489434 -2.33523,-0.489434 -0.77506,0 -1.229,0.389189 -1.69318,0.389189 -0.20326,0 -0.39129,-0.06457 -0.53977,-0.135627 l 0,0.871499 c 0.22336,0.06164 0.51301,0.112039 0.85795,0.112039 0.8795,0 0.75402,-0.306634 1.51137,-0.306634 0.75734,0 1.20343,0.501229 2.22727,0.501229 1.26814,0 1.55916,-0.807863 2.5624997,-0.807863 0.78346,0 0.84229,0.442261 1.70454,0.442261 0.5825,0 0.77595,-0.232336 1.13637,-0.383293 l 0,-0.771252 c -0.31259,0.123616 -0.54211,0.318427 -1.07955,0.318427 -0.78023,0 -0.66307,-0.448157 -1.90909,-0.448157 z"
     id="rect3055-2-6-8-1"
     style="color:#000000;fill:#ffffff;fill-opacity:1;fill-rule:nonzero;stroke:none;stroke-width:10;marker:none;visibility:visible;display:inline;overflow:visible;enable-background:accumulate" />
  <path
     d="m 3.5012863,5.5002098 c 2.06237,0 9.0000597,4.47e-4 9.0000597,4.47e-4 L 12.501356,12.5 c 0,0 -6.0000397,0 -9.0000697,0 0,-2.333263 0,-4.6665262 0,-6.9997882 z"
     id="path4160-62-4"
     style="opacity:0.3;color:#000000;fill:none;stroke:#000000;stroke-width:0.99999976;stroke-linecap:butt;stroke-linejoin:miter;stroke-miterlimit:4;stroke-opacity:1;stroke-dasharray:none;stroke-dashoffset:0;marker:none;visibility:visible;display:inline;overflow:visible;enable-background:accumulate" />
</svg>
