<svg xmlns="http://www.w3.org/2000/svg" xmlns:xlink="http://www.w3.org/1999/xlink" viewBox="0 0 16 16"><defs><linearGradient id="j"><stop offset="0" stop-color="#fff"/><stop offset=".847" stop-color="#fff" stop-opacity=".235"/><stop offset=".951" stop-color="#fff" stop-opacity=".157"/><stop offset="1" stop-color="#fff" stop-opacity=".392"/></linearGradient><linearGradient id="a"><stop offset="0" stop-color="#fff"/><stop offset=".353" stop-color="#fff" stop-opacity=".235"/><stop offset=".706" stop-color="#fff" stop-opacity=".157"/><stop offset="1" stop-color="#fff" stop-opacity=".392"/></linearGradient><linearGradient id="c"><stop offset="0" stop-color="#185f9a" stop-opacity="0"/><stop offset="1" stop-color="#599ec9"/></linearGradient><linearGradient id="b"><stop offset="0" stop-color="#90dbec"/><stop offset=".262" stop-color="#55c1ec" stop-opacity=".809"/><stop offset=".705" stop-color="#3689e6" stop-opacity="0"/><stop offset="1" stop-color="#2b63a0" stop-opacity="0"/></linearGradient><linearGradient x1="24" y1="-40.75" x2="24" y2="-3.75" id="t" xlink:href="#a" gradientUnits="userSpaceOnUse" gradientTransform="matrix(.02027 0 0 .03604 7.514 5.802)"/><radialGradient cx="9.77" cy="-17.191" r="20" fx="9.77" fy="-17.191" id="k" xlink:href="#b" gradientUnits="userSpaceOnUse" gradientTransform="matrix(0 -1.12374 -.8916 0 -6.78 27.838)"/><linearGradient x1="84.111" y1="22.033" x2="84.111" y2="13.74" id="l" xlink:href="#c" gradientUnits="userSpaceOnUse" gradientTransform="matrix(1.25 0 0 -1.66667 -98.525 36.805)"/><linearGradient id="d"><stop offset="0" stop-color="#90dbec"/><stop offset=".262" stop-color="#55c1ec" stop-opacity=".809"/><stop offset=".705" stop-color="#3689e6" stop-opacity="0"/><stop offset="1" stop-color="#2b63a0" stop-opacity="0"/></linearGradient><linearGradient id="e"><stop offset="0" stop-color="#185f9a" stop-opacity="0"/><stop offset="1" stop-color="#599ec9"/></linearGradient><radialGradient cx="9.77" cy="-17.191" r="20" fx="9.77" fy="-17.191" id="m" xlink:href="#d" gradientUnits="userSpaceOnUse" gradientTransform="matrix(0 -.82408 -.65383 0 -2.84 22.015)"/><linearGradient x1="84.111" y1="22.033" x2="84.111" y2="13.74" id="n" xlink:href="#e" gradientUnits="userSpaceOnUse" gradientTransform="matrix(.91667 0 0 -1.22222 -70.12 28.59)"/><linearGradient id="f"><stop offset="0" stop-color="#90dbec"/><stop offset=".262" stop-color="#55c1ec" stop-opacity=".809"/><stop offset=".705" stop-color="#3689e6" stop-opacity="0"/><stop offset="1" stop-color="#2b63a0" stop-opacity="0"/></linearGradient><linearGradient id="g"><stop offset="0" stop-color="#185f9a" stop-opacity="0"/><stop offset="1" stop-color="#599ec9"/></linearGradient><radialGradient cx="9.77" cy="-17.191" r="20" fx="9.77" fy="-17.191" id="q" xlink:href="#f" gradientUnits="userSpaceOnUse" gradientTransform="matrix(0 -.5244 -.41607 0 1.102 16.19)"/><linearGradient x1="84.111" y1="22.033" x2="84.111" y2="13.74" id="r" xlink:href="#g" gradientUnits="userSpaceOnUse" gradientTransform="matrix(.58333 0 0 -.77778 -41.712 20.376)"/><linearGradient x1="25.132" y1=".985" x2="25.132" y2="48.334" id="o" xlink:href="#h" gradientUnits="userSpaceOnUse" gradientTransform="matrix(.28572 0 0 .21756 1.84 5.038)"/><linearGradient id="h"><stop offset="0" stop-color="#f4f4f4"/><stop offset="1" stop-color="#dbdbdb"/></linearGradient><linearGradient x1="-51.786" y1="53.044" x2="-51.786" y2="2.906" id="p" xlink:href="#i" gradientUnits="userSpaceOnUse" gradientTransform="matrix(.2307 0 0 .2036 18.816 4.795)"/><linearGradient id="i"><stop offset="0" stop-color="#8c8c8c"/><stop offset="1" stop-color="#aaa"/></linearGradient><linearGradient x1="24" y1="5.564" x2="24" y2="45.274" id="s" xlink:href="#j" gradientUnits="userSpaceOnUse" gradientTransform="matrix(.21622 0 0 .20517 2.14 5.83)"/></defs><path d="M15.5 6a7.5 7.5 0 1 0-15 0 7.5 7.5 0 0 0 15 0z" opacity=".8" color="#000" fill="url(#k)" stroke="url(#l)" stroke-linecap="round" stroke-linejoin="round" overflow="visible"/><path d="M13.5 6a5.5 5.5 0 1 0-11 0 5.5 5.5 0 0 0 11 0z" opacity=".9" color="#000" fill="url(#m)" stroke="url(#n)" stroke-linecap="round" stroke-linejoin="round" overflow="visible"/><path d="M7 6l-5 9.5h2.5l.828-1.524 5.672.65s.424.712.5.874H14L9 6zm1 2l.524 1.052-1.43.48zm1.406 2.97l.618 1.3-3.727-.428z" color="#000" fill="url(#o)" stroke="url(#p)" stroke-linejoin="round" overflow="visible"/><path d="M11.5 6a3.5 3.5 0 1 0-7 0 3.5 3.5 0 0 0 7 0z" color="#000" fill="url(#q)" stroke="url(#r)" stroke-linecap="round" stroke-linejoin="round" overflow="visible"/><path d="M7.53 6.875L6.563 8.75l.688-1.188a.87.87 0 0 1 1.53.063l.535 1.063a.87.87 0 0 1-.5 1.187l-1.438.47a.87.87 0 0 1-1.125-1l-2.78 5.28h.5l.56-1.063a.87.87 0 0 1 .877-.468l5.687.656a.87.87 0 0 1 .656.438s.1.172.22.374c.013.023.02.042.03.063h.53l-4.06-7.75h-.94zm1.814 3.22a.87.87 0 0 1 .844.5l.624 1.31a.87.87 0 0 1-.874 1.25l-3.72-.436A.87.87 0 0 1 6.064 11l3.093-.875a.87.87 0 0 1 .188-.03z" opacity=".5" color="#000" fill="none" stroke="url(#s)" stroke-linecap="round" overflow="visible"/><path d="M9.5 5a1.5 1.5 0 0 1-3 0 1.5 1.5 0 1 1 3 0z" color="#000" fill="#fff" stroke="gray" stroke-linecap="round" stroke-linejoin="round" stroke-opacity=".984" overflow="visible"/><path d="M8.5 5a.5.5 0 0 1-1 0 .5.5 0 1 1 1 0z" opacity=".1" color="#000" fill="none" stroke="url(#t)" stroke-linecap="round" overflow="visible"/></svg>