<?xml version="1.0" encoding="UTF-8" standalone="no"?>
<svg
   xmlns:dc="http://purl.org/dc/elements/1.1/"
   xmlns:cc="http://creativecommons.org/ns#"
   xmlns:rdf="http://www.w3.org/1999/02/22-rdf-syntax-ns#"
   xmlns:svg="http://www.w3.org/2000/svg"
   xmlns="http://www.w3.org/2000/svg"
   xmlns:xlink="http://www.w3.org/1999/xlink"
   version="1.1"
   width="64"
   height="64"
   id="svg3489">
  <defs
     id="defs3491">
    <linearGradient
       id="linearGradient887">
      <stop
         offset="0"
         style="stop-color:#43d6b5;stop-opacity:1"
         id="stop883" />
      <stop
         offset="1"
         style="stop-color:#28bca3;stop-opacity:1"
         id="stop885" />
    </linearGradient>
    <linearGradient
       id="linearGradient4806">
      <stop
         id="stop4808"
         style="stop-color:#ffffff;stop-opacity:1"
         offset="0" />
      <stop
         id="stop4810"
         style="stop-color:#ffffff;stop-opacity:0.23529412"
         offset="0.42447853" />
      <stop
         id="stop4812"
         style="stop-color:#ffffff;stop-opacity:0.15686275"
         offset="0.82089913" />
      <stop
         id="stop4814"
         style="stop-color:#ffffff;stop-opacity:0.39215687"
         offset="1" />
    </linearGradient>
    <linearGradient
       id="linearGradient3820-7-2">
      <stop
         id="stop3822-2-6"
         style="stop-color:#000000;stop-opacity:1"
         offset="0" />
      <stop
         id="stop3824-1-2"
         style="stop-color:#000000;stop-opacity:0"
         offset="1" />
    </linearGradient>
    <linearGradient
       xlink:href="#linearGradient4806"
       id="linearGradient3293"
       gradientUnits="userSpaceOnUse"
       gradientTransform="matrix(2.3268746,0,0,2.3268746,-135.94475,-32.842783)"
       x1="71.204407"
       y1="15.369057"
       x2="71.204407"
       y2="40.495617" />
    <radialGradient
       xlink:href="#linearGradient3820-7-2"
       id="radialGradient3300"
       gradientUnits="userSpaceOnUse"
       gradientTransform="matrix(0.3823536,7.5555777e-8,-1.8372241e-8,0.1115198,-5.9254271,36.335849)"
       cx="99.189415"
       cy="185.29727"
       fx="99.189415"
       fy="185.29727"
       r="62.769119" />
    <radialGradient
       xlink:href="#linearGradient3820-7-2"
       id="radialGradient4192"
       gradientUnits="userSpaceOnUse"
       gradientTransform="matrix(0.2549024,5.3967361e-8,-1.2248161e-8,0.07965545,6.7163816,44.240666)"
       cx="99.189415"
       cy="185.29727"
       fx="99.189415"
       fy="185.29727"
       r="62.769119" />
    <linearGradient
       xlink:href="#linearGradient887"
       id="linearGradient881"
       x1="32.000004"
       y1="2.4999969"
       x2="32.000004"
       y2="61.533131"
       gradientUnits="userSpaceOnUse" />
    <radialGradient
       r="31.000002"
       fy="48.448635"
       fx="65.916344"
       cy="48.448635"
       cx="65.916344"
       gradientTransform="matrix(0,1.2420762,-1.3512236,0,114.59262,-44.66386)"
       gradientUnits="userSpaceOnUse"
       id="radialGradient3106"
       xlink:href="#linearGradient3242-7-3-8-0-4-58-06" />
    <linearGradient
       id="linearGradient3242-7-3-8-0-4-58-06">
      <stop
         offset="0"
         style="stop-color:#cdf87e;stop-opacity:1"
         id="stop3244-5-8-5-6-4-3-8" />
      <stop
         offset="0.26238"
         style="stop-color:#a2e34f;stop-opacity:1"
         id="stop3246-9-5-1-5-3-0-7" />
      <stop
         offset="0.66093999"
         style="stop-color:#68b723;stop-opacity:1"
         id="stop3248-7-2-0-7-5-35-9" />
      <stop
         offset="1"
         style="stop-color:#1d7e0d;stop-opacity:1"
         id="stop3250-8-2-8-5-6-40-4" />
    </linearGradient>
    <linearGradient
       x1="24.138529"
       y1="9.4932871"
       x2="24.138529"
       y2="36.813152"
       id="linearGradient3030-44"
       xlink:href="#linearGradient4154"
       gradientUnits="userSpaceOnUse"
       gradientTransform="matrix(0.9862841,0,0,0.8052748,26.930255,31.347975)" />
    <linearGradient
       id="linearGradient4154">
      <stop
         id="stop4156"
         style="stop-color:#ffffff;stop-opacity:1"
         offset="0" />
      <stop
         id="stop4158"
         style="stop-color:#ffffff;stop-opacity:0.23529412"
         offset="0.00000001" />
      <stop
         id="stop4160"
         style="stop-color:#ffffff;stop-opacity:0.15686275"
         offset="1" />
      <stop
         id="stop4162"
         style="stop-color:#ffffff;stop-opacity:0.39215687"
         offset="1" />
    </linearGradient>
    <linearGradient
       x1="24.138529"
       y1="20.067223"
       x2="24.138529"
       y2="26.211275"
       id="linearGradient3030-1"
       xlink:href="#linearGradient4299"
       gradientUnits="userSpaceOnUse"
       gradientTransform="matrix(0.8119709,0,0,0.97655406,30.803625,27.395953)" />
    <linearGradient
       id="linearGradient4299">
      <stop
         offset="0"
         style="stop-color:#ffffff;stop-opacity:1"
         id="stop4301" />
      <stop
         offset="0"
         style="stop-color:#ffffff;stop-opacity:0.23529412"
         id="stop4303" />
      <stop
         offset="1"
         style="stop-color:#ffffff;stop-opacity:0.15686275"
         id="stop4305" />
      <stop
         offset="1"
         style="stop-color:#ffffff;stop-opacity:0.39215687"
         id="stop4307" />
    </linearGradient>
  </defs>
  <metadata
     id="metadata3494">
    <rdf:RDF>
      <cc:Work
         rdf:about="">
        <dc:format>image/svg+xml</dc:format>
        <dc:type
           rdf:resource="http://purl.org/dc/dcmitype/StillImage" />
        <dc:title />
      </cc:Work>
    </rdf:RDF>
  </metadata>
  <g
     id="g4198">
    <path
       d="m 55.999998,57.0017 a 24,6.9985714 0 1 1 -47.9999991,0 24,6.9985714 0 1 1 47.9999991,0 z"
       id="path3818-0"
       style="opacity:0.2;fill:url(#radialGradient3300);fill-opacity:1;stroke:none" />
    <path
       style="opacity:0.4;fill:url(#radialGradient4192);fill-opacity:1;stroke:none"
       id="path4190"
       d="m 47.999998,59.0017 a 16,4.9988822 0 1 1 -31.999999,0 16,4.9988822 0 1 1 31.999999,0 z" />
  </g>
  <path
     d="M 32.000004,2.4999968 C 15.722922,2.4999968 2.5,15.722913 2.5,31.999997 2.5,48.277081 15.722922,61.500004 32.000004,61.5 48.27708,61.5 61.500016,48.277081 61.5,31.999997 61.5,15.722913 48.27708,2.4999968 32.000004,2.4999968 z"
     id="path2555"
     style="color:#000000;fill:url(#linearGradient881);fill-opacity:1;fill-rule:nonzero;stroke:none;stroke-width:1;marker:none;visibility:visible;display:inline;overflow:visible;enable-background:accumulate" />
  <path
     style="opacity:0.5;color:#000000;fill:#000000;stroke:#007367;stroke-width:1;stroke-linecap:round;stroke-linejoin:round;stroke-miterlimit:4;stroke-opacity:1;stroke-dasharray:none;stroke-dashoffset:0;marker:none;visibility:visible;display:inline;overflow:visible;enable-background:accumulate;fill-opacity:0;fill-rule:nonzero"
     id="path2555-7-1"
     d="m 32,2.499999 c -16.277082,0 -29.5,13.222915 -29.5,29.499998 0,16.277083 13.222918,29.500005 29.5,29.5 16.27708,0 29.50001,-13.222917 29.5,-29.5 C 61.5,15.722914 48.27708,2.499999 32,2.499999 z" />
  <path
     style="opacity:0.5;color:#000000;fill:none;stroke:url(#linearGradient3293);stroke-width:1;stroke-linecap:round;stroke-linejoin:round;stroke-miterlimit:4;stroke-opacity:1;stroke-dasharray:none;stroke-dashoffset:0;marker:none;visibility:visible;display:inline;overflow:visible;enable-background:accumulate"
     id="path3019"
     d="m 60.50001,31.999999 c 0,15.740115 -12.7599,28.499999 -28.50002,28.499999 -15.740099,0 -28.499991,-12.759884 -28.499991,-28.499999 0,-15.740116 12.759892,-28.5000013 28.499991,-28.5000013 15.74012,0 28.50002,12.7598853 28.50002,28.5000013 z" />
  <path
     style="color:#000000;display:inline;overflow:visible;visibility:visible;fill:#007367;fill-opacity:1;fill-rule:nonzero;stroke:#007367;stroke-width:2;marker:none;enable-background:accumulate;opacity:0.05;stroke-opacity:1;stroke-linejoin:round"
     d="m 32.000002,15 c -6.892513,0 -12.4875,5.372581 -12.4875,12 0,6.627419 5.594987,12 12.4875,12 6.892519,0 12.487495,-5.372581 12.487495,-12 0,-6.627419 -5.594976,-12 -12.487495,-12 z m -4.5375,27.046447 c -5.564604,0 -10.358471,3.645027 -12.7875,8.453553 4.337101,4.626099 10.483418,7.5 17.325,7.5 6.841591,0 12.987895,-2.873901 17.324996,-7.5 -2.429028,-4.808526 -7.222896,-8.453553 -12.787501,-8.453553 z"
     id="path4323" />
  <path
     id="path4321"
     d="m 32.000002,15 c -6.892513,0 -12.4875,5.372581 -12.4875,12 0,6.627419 5.594987,12 12.4875,12 6.892519,0 12.487495,-5.372581 12.487495,-12 0,-6.627419 -5.594976,-12 -12.487495,-12 z m -4.5375,27.046447 c -5.564604,0 -10.358471,3.645027 -12.7875,8.453553 4.337101,4.626099 10.483418,7.5 17.325,7.5 6.841591,0 12.987895,-2.873901 17.324996,-7.5 -2.429028,-4.808526 -7.222896,-8.453553 -12.787501,-8.453553 z"
     style="color:#000000;display:inline;overflow:visible;visibility:visible;fill:#007367;fill-opacity:1;fill-rule:nonzero;stroke:none;stroke-width:2;marker:none;enable-background:accumulate;opacity:0.15" />
  <path
     style="color:#000000;display:inline;overflow:visible;visibility:visible;fill:#ffffff;fill-opacity:1;fill-rule:nonzero;stroke:none;stroke-width:2;marker:none;enable-background:accumulate"
     d="m 32.000002,14 c -6.892513,0 -12.4875,5.372581 -12.4875,12 0,6.627419 5.594987,12 12.4875,12 6.892519,0 12.487495,-5.372581 12.487495,-12 0,-6.627419 -5.594976,-12 -12.487495,-12 z m -4.5375,27.046447 c -5.564604,0 -10.358471,3.645027 -12.7875,8.453553 4.337101,4.626099 10.483418,7.5 17.325,7.5 6.841591,0 12.987895,-2.873901 17.324996,-7.5 -2.429028,-4.808526 -7.222896,-8.453553 -12.787501,-8.453553 z"
     id="path3224" />
  <g
     id="g888">
    <path
       style="color:#000000;display:inline;overflow:visible;visibility:visible;fill:url(#radialGradient3106);fill-opacity:1;fill-rule:nonzero;stroke:none;stroke-width:0.985427;marker:none;enable-background:accumulate"
       id="path2262"
       d="m 44.5,45.5 v -8 h 9 v 8 h 7.999573 v 9 H 53.5 v 8 h -9 v -8 h -8 v -9 z" />
    <path
       style="color:#000000;clip-rule:nonzero;display:inline;overflow:visible;visibility:visible;opacity:0.5;isolation:auto;mix-blend-mode:normal;color-interpolation:sRGB;color-interpolation-filters:linearRGB;solid-color:#000000;solid-opacity:1;fill:none;fill-opacity:1;fill-rule:nonzero;stroke:#0f5a00;stroke-width:1;stroke-linecap:round;stroke-linejoin:round;stroke-miterlimit:4;stroke-dasharray:none;stroke-dashoffset:0;stroke-opacity:1;marker:none;color-rendering:auto;image-rendering:auto;shape-rendering:auto;text-rendering:auto;enable-background:accumulate"
       id="path2262-9"
       d="m 44.5,45.5 v -8 h 9 v 8 h 7.999573 v 9 H 53.5 v 8 h -9 v -8 h -8 v -9 z" />
    <path
       d="m 45.5,47 v -8.5 h 7 V 47 m 0,6 v 8.5 h -7 V 53"
       id="path2272-4"
       style="display:inline;opacity:0.5;fill:none;stroke:url(#linearGradient3030-44);stroke-width:1;stroke-linecap:butt;stroke-linejoin:miter;stroke-miterlimit:4;stroke-dasharray:none;stroke-opacity:1" />
    <path
       d="m 53,46.5 h 7.5 v 7 H 53 m -8,0 h -7.5 l 4.6e-5,-7 h 7.5"
       id="path2272-2"
       style="display:inline;opacity:0.5;fill:none;stroke:url(#linearGradient3030-1);stroke-width:1;stroke-linecap:butt;stroke-linejoin:miter;stroke-miterlimit:4;stroke-dasharray:none;stroke-opacity:1" />
  </g>
</svg>
