<svg xmlns="http://www.w3.org/2000/svg" xmlns:xlink="http://www.w3.org/1999/xlink" viewBox="0 0 64 64"><defs><linearGradient gradientTransform="matrix(0 -1.62735 -1.75086 0 65.437 75.16)" gradientUnits="userSpaceOnUse" xlink:href="#a" id="f" y2="15.991" x2="20.576" y1="15.991" x1="38.941"/><linearGradient id="a"><stop offset="0" stop-color="#fff"/><stop offset=".512" stop-color="#fff" stop-opacity=".235"/><stop offset=".585" stop-color="#fff" stop-opacity=".157"/><stop offset="1" stop-color="#fff" stop-opacity=".392"/></linearGradient><linearGradient gradientTransform="matrix(-1.494 0 0 1.3886 68.1 .036)" gradientUnits="userSpaceOnUse" xlink:href="#b" id="e" y2="38.362" x2="23.732" y1="4.418" x1="23.732"/><linearGradient id="b"><stop offset="0" stop-color="#fff3cb"/><stop offset=".262" stop-color="#fdde76"/><stop offset=".661" stop-color="#f9c440"/><stop offset="1" stop-color="#e48b20"/></linearGradient><radialGradient gradientTransform="matrix(1 0 0 .53672 0 16.873)" gradientUnits="userSpaceOnUse" xlink:href="#c" id="d" fy="36.421" fx="24.837" r="15.645" cy="36.421" cx="24.837"/><linearGradient id="c"><stop offset="0"/><stop offset="1" stop-opacity="0"/></linearGradient></defs><path d="M40.482 36.42a15.645 8.397 0 1 1-31.29 0 15.645 8.397 0 1 1 31.29 0z" transform="matrix(1.4132 0 0 -1.75424 1.966 109.16)" overflow="visible" opacity=".141" fill="url(#d)" fill-rule="evenodd"/><path d="M44.695 53.518c18.97-12.788 8.95-36.322-12.195-36.13V6.483L6.482 25.275l26.018 18.7V33.068c13.637-.53 21.262 11.527 11.513 20.45z" style="isolation:auto;mix-blend-mode:normal;filter-blend-mode:normal;filter-gaussianBlur-deviation:0" display="block" overflow="visible" fill="url(#e)" color="#000"/><path d="M46.747 51.5C61.205 38.368 52.84 18.328 31.5 18.328V8.383L8.172 25.275 31.5 41.992V31.965c20.26.2 19.806 16.12 15.247 19.535z" display="block" overflow="visible" opacity=".8" fill="none" stroke="url(#f)" stroke-width=".964" stroke-miterlimit="7"/><path d="M44.695 53.518c18.97-12.788 8.95-36.322-12.195-36.13V6.483L6.482 25.275l26.018 18.7V33.068c13.637-.53 21.262 11.527 11.513 20.45z" style="isolation:auto;mix-blend-mode:normal;filter-blend-mode:normal;filter-gaussianBlur-deviation:0" color="#000" overflow="visible" opacity=".5" fill="none" stroke="#956500" stroke-linejoin="round"/></svg>