<svg xmlns="http://www.w3.org/2000/svg" xmlns:xlink="http://www.w3.org/1999/xlink" viewBox="0 0 64 64"><defs><linearGradient gradientTransform="matrix(-1.494 0 0 1.3886 77.1 .036)" gradientUnits="userSpaceOnUse" xlink:href="#a" id="j" y2="42.04" x2="23.732" y1="4.418" x1="23.732"/><linearGradient id="a"><stop offset="0" stop-color="#90dbec"/><stop offset=".262" stop-color="#55c1ec"/><stop offset=".705" stop-color="#3689e6"/><stop offset="1" stop-color="#2b63a0"/></linearGradient><linearGradient gradientTransform="matrix(0 -1.62735 -1.75086 0 74.437 75.16)" gradientUnits="userSpaceOnUse" xlink:href="#b" id="k" y2="15.991" x2="20.576" y1="15.991" x1="38.941"/><linearGradient id="b"><stop offset="0" stop-color="#fff"/><stop offset=".512" stop-color="#fff" stop-opacity=".235"/><stop offset=".585" stop-color="#fff" stop-opacity=".157"/><stop offset="1" stop-color="#fff" stop-opacity=".392"/></linearGradient><radialGradient gradientTransform="matrix(1 0 0 .53672 0 16.873)" gradientUnits="userSpaceOnUse" xlink:href="#c" id="h" fy="36.421" fx="24.837" r="15.645" cy="36.421" cx="24.837"/><linearGradient id="c"><stop offset="0"/><stop offset="1" stop-opacity="0"/></linearGradient><radialGradient gradientTransform="matrix(1 0 0 .53672 0 16.873)" gradientUnits="userSpaceOnUse" xlink:href="#d" id="i" fy="36.421" fx="24.837" r="15.645" cy="36.421" cx="24.837"/><linearGradient id="d"><stop offset="0"/><stop offset="1" stop-opacity="0"/></linearGradient><linearGradient gradientTransform="matrix(0 -1.62735 -1.75086 0 59.437 75.16)" gradientUnits="userSpaceOnUse" xlink:href="#b" id="g" y2="15.991" x2="20.576" y1="15.991" x1="38.941"/><linearGradient gradientTransform="matrix(-1.494 0 0 1.3886 62.1 .036)" gradientUnits="userSpaceOnUse" xlink:href="#e" id="f" y2="48.862" x2="23.732" y1="4.418" x1="23.732"/><linearGradient id="e"><stop offset="0" stop-color="#f0c1ff"/><stop offset=".262" stop-color="#c5a3f2"/><stop offset=".705" stop-color="#7a36b1"/><stop offset="1" stop-color="#4c2d81"/></linearGradient></defs><path d="M38.695 53.518c18.97-12.788 8.95-36.322-12.195-36.13V6.483L.482 25.275l26.018 18.7V33.068c13.637-.53 21.262 11.527 11.513 20.45z" display="block" overflow="visible" fill="url(#f)"/><path d="M40.747 51.5C55.205 38.368 46.84 18.328 25.5 18.328V8.383L2.172 25.275 25.5 41.992V31.965c20.26.2 19.806 16.12 15.247 19.535z" display="block" overflow="visible" opacity=".5" fill="none" stroke="url(#g)" stroke-width=".964" stroke-miterlimit="7"/><path d="M38.695 53.518c18.97-12.788 8.95-36.322-12.195-36.13V6.483L.482 25.275l26.018 18.7V33.068c13.637-.53 21.262 11.527 11.513 20.45z" style="isolation:auto;mix-blend-mode:normal" color="#000" overflow="visible" opacity=".5" fill="none" stroke="#6326b9" stroke-linejoin="round"/><path d="M40.482 36.42a15.645 8.397 0 1 1-31.29 0 15.645 8.397 0 1 1 31.29 0z" transform="matrix(1.4132 0 0 -1.75424 1.3 109.16)" overflow="visible" opacity=".141" fill="url(#h)" fill-rule="evenodd"/><path d="M40.482 36.42a15.645 8.397 0 1 1-31.29 0 15.645 8.397 0 1 1 31.29 0z" transform="matrix(1.4132 0 0 -1.75424 -4.034 109.16)" overflow="visible" opacity=".141" fill="url(#i)" fill-rule="evenodd"/><path d="M53.695 53.518c18.97-12.788 8.95-36.322-12.195-36.13V6.483L15.482 25.275l26.018 18.7V33.068c13.637-.53 21.262 11.527 11.513 20.45z" display="block" overflow="visible" fill="url(#j)"/><path d="M55.747 51.5C70.205 38.368 61.84 18.328 40.5 18.328V8.383L17.172 25.275 40.5 41.992V31.965c20.26.2 19.806 16.12 15.247 19.535z" display="block" overflow="visible" opacity=".53" fill="none" stroke="url(#k)" stroke-width=".964" stroke-miterlimit="7"/><path style="isolation:auto;mix-blend-mode:normal;filter-blend-mode:normal;filter-gaussianBlur-deviation:0" d="M53.695 53.518c18.97-12.788 8.95-36.322-12.195-36.13V6.483L15.482 25.275l26.018 18.7V33.068c13.637-.53 21.262 11.527 11.513 20.45z" overflow="visible" stroke="#00537d" stroke-linecap="round" stroke-linejoin="round" color="#000" opacity=".5" fill="none"/></svg>