<svg xmlns="http://www.w3.org/2000/svg" xmlns:xlink="http://www.w3.org/1999/xlink" viewBox="0 0 64 64"><defs><linearGradient id="a"><stop offset="0" stop-color="#fff"/><stop offset=".424" stop-color="#fff" stop-opacity=".235"/><stop offset=".821" stop-color="#fff" stop-opacity=".157"/><stop offset="1" stop-color="#fff" stop-opacity=".392"/></linearGradient><linearGradient id="b"><stop offset="0"/><stop offset="1" stop-opacity="0"/></linearGradient><linearGradient xlink:href="#a" id="l" gradientUnits="userSpaceOnUse" gradientTransform="translate(-135.945 -32.843) scale(2.32687)" x1="71.204" y1="15.369" x2="71.204" y2="40.496"/><radialGradient xlink:href="#b" id="i" gradientUnits="userSpaceOnUse" gradientTransform="matrix(.38235 0 0 .11152 -5.925 36.336)" cx="99.189" cy="185.297" fx="99.189" fy="185.297" r="62.769"/><radialGradient xlink:href="#c" id="k" gradientUnits="userSpaceOnUse" gradientTransform="matrix(0 3.88904 -3.80402 0 64.143 -21.23)" cx="5.202" cy="8.45" fx="5.202" fy="8.45" r="20"/><radialGradient xlink:href="#b" id="j" gradientUnits="userSpaceOnUse" gradientTransform="matrix(.2549 0 0 .07966 6.716 44.24)" cx="99.189" cy="185.297" fx="99.189" fy="185.297" r="62.769"/><linearGradient x1="68.313" y1="52.925" x2="68.313" y2="65.922" id="q" xlink:href="#d" gradientUnits="userSpaceOnUse" gradientTransform="matrix(.5252 0 0 .48143 71.63 -3.092)"/><linearGradient id="d"><stop offset="0" stop-color="#fff"/><stop offset="1" stop-color="#fff" stop-opacity="0"/></linearGradient><linearGradient x1="71.204" y1="6.238" x2="71.204" y2="44.341" id="p" xlink:href="#e" gradientUnits="userSpaceOnUse" gradientTransform="translate(68.332 17.8) scale(.53588)"/><linearGradient x1="71.204" y1="6.238" x2="71.204" y2="44.341" id="e" gradientUnits="userSpaceOnUse" gradientTransform="translate(-1.204 16.09) scale(.35135)"><stop offset="0" stop-color="#fff"/><stop offset=".508" stop-color="#fff" stop-opacity=".235"/><stop offset=".835" stop-color="#fff" stop-opacity=".157"/><stop offset="1" stop-color="#fff" stop-opacity=".392"/></linearGradient><linearGradient x1="71.204" y1="6.238" x2="71.204" y2="44.341" id="o" xlink:href="#f" gradientUnits="userSpaceOnUse" gradientTransform="matrix(.62162 0 0 -.62162 62.18 47.15)"/><linearGradient x1="71.204" y1="6.238" x2="71.204" y2="44.341" id="f" gradientUnits="userSpaceOnUse" gradientTransform="matrix(.45946 0 0 -.45946 -8.96 36.65)"><stop offset="0" stop-color="#fff"/><stop offset=".508" stop-color="#fff" stop-opacity=".235"/><stop offset=".835" stop-color="#fff" stop-opacity=".157"/><stop offset="1" stop-color="#fff" stop-opacity=".392"/></linearGradient><radialGradient cx="23.896" cy="3.99" r="20.397" id="m" xlink:href="#g" gradientUnits="userSpaceOnUse" gradientTransform="matrix(0 1.2559 -1.65778 0 113.387 -10.137)"/><radialGradient cx="23.896" cy="3.99" r="20.397" id="g" gradientUnits="userSpaceOnUse" gradientTransform="matrix(0 .87965 -1.16113 0 28.633 -4.084)"><stop offset="0" stop-color="#f8b17e"/><stop offset=".262" stop-color="#e35d4f"/><stop offset=".661" stop-color="#c6262e"/><stop offset="1" stop-color="#690b54"/></radialGradient><linearGradient x1="7.078" y1="3.082" x2="7.078" y2="45.369" id="n" xlink:href="#h" gradientUnits="userSpaceOnUse" gradientTransform="translate(94.143 18.758) scale(.52622)"/><linearGradient x1="7.078" y1="3.082" x2="7.078" y2="45.369" id="h" gradientUnits="userSpaceOnUse" gradientTransform="translate(15.154 16.154) scale(.36857)"><stop offset="0" stop-color="#791235"/><stop offset="1" stop-color="#c7321f"/></linearGradient><radialGradient cx="23.896" cy="3.99" r="20.397" id="c" gradientUnits="userSpaceOnUse" gradientTransform="matrix(0 2.28744 -3.01938 0 36.047 -50.63)"><stop offset="0" stop-color="#fff"/><stop offset=".262" stop-color="#ddd"/><stop offset=".661" stop-color="#abacae"/><stop offset="1" stop-color="#89898b"/></radialGradient></defs><path d="M56 57.002a24 7 0 1 1-48 0 24 7 0 1 1 48 0z" opacity=".2" fill="url(#i)"/><path d="M48 59.002a16 5 0 1 1-32 0 16 5 0 1 1 32 0z" opacity=".4" fill="url(#j)"/><path d="M32 2.5C15.723 2.5 2.5 15.723 2.5 32S15.723 61.5 32 61.5 61.5 48.277 61.5 32 48.277 2.5 32 2.5z" color="#000" fill="url(#k)" overflow="visible"/><path d="M32 2.5C15.723 2.5 2.5 15.723 2.5 32S15.723 61.5 32 61.5 61.5 48.277 61.5 32 48.277 2.5 32 2.5z" opacity=".3" color="#000" fill="none" stroke="#000" stroke-linecap="round" stroke-linejoin="round" overflow="visible"/><path d="M60.5 32c0 15.74-12.76 28.5-28.5 28.5S3.5 47.74 3.5 32 16.26 3.5 32 3.5 60.5 16.26 60.5 32z" color="#000" overflow="visible" opacity=".5" fill="none" stroke="url(#l)" stroke-linecap="round" stroke-linejoin="round"/><path d="M106.773 20.682c-5.907 0-10.705 4.798-10.705 10.705s4.798 10.706 10.705 10.706 10.706-4.8 10.706-10.706c0-5.907-4.8-10.705-10.71-10.705z" fill="url(#m)" stroke="url(#n)" stroke-width=".796" stroke-linecap="round" stroke-linejoin="round" transform="translate(-102.627 -7.575) scale(1.26087)"/><path d="M118.273 31.388c0-6.352-5.15-11.5-11.5-11.5s-11.5 5.148-11.5 11.5c0 6.35 5.15 11.5 11.5 11.5s11.5-5.15 11.5-11.5z" color="#000" opacity=".5" fill="none" stroke="url(#o)" stroke-width=".793" stroke-linecap="round" stroke-linejoin="round" transform="translate(-102.627 -7.575) scale(1.26087)"/><path d="M116.687 31.387c0 5.475-4.44 9.914-9.914 9.914-5.475 0-9.914-4.435-9.914-9.91 0-5.475 4.435-9.913 9.91-9.913 5.475 0 9.914 4.438 9.914 9.913z" color="#000" opacity=".5" fill="none" stroke="url(#p)" stroke-width=".793" stroke-linecap="round" stroke-linejoin="round" transform="translate(-102.627 -7.575) scale(1.26087)"/><path d="M112.773 27.887a6 5.5 0 0 1-12 0 6 5.5 0 1 1 12 0z" color="#000" overflow="visible" opacity=".4" fill="url(#q)" transform="translate(-102.627 -7.575) scale(1.26087)"/></svg>