<?xml version="1.0" encoding="UTF-8" standalone="no"?>
<svg
   xmlns:dc="http://purl.org/dc/elements/1.1/"
   xmlns:cc="http://creativecommons.org/ns#"
   xmlns:rdf="http://www.w3.org/1999/02/22-rdf-syntax-ns#"
   xmlns:svg="http://www.w3.org/2000/svg"
   xmlns="http://www.w3.org/2000/svg"
   xmlns:xlink="http://www.w3.org/1999/xlink"
   version="1.1"
   width="64"
   height="64"
   id="svg6333">
  <defs
     id="defs6335">
    <linearGradient
       id="linearGradient882">
      <stop
         id="stop878"
         offset="0"
         style="stop-color:#fafafa;stop-opacity:1" />
      <stop
         id="stop880"
         offset="1"
         style="stop-color:#d4d4d4;stop-opacity:1" />
    </linearGradient>
    <linearGradient
       id="linearGradient872">
      <stop
         style="stop-color:#d4d4d4;stop-opacity:1"
         offset="0"
         id="stop868" />
      <stop
         style="stop-color:#7e8087;stop-opacity:1"
         offset="1"
         id="stop870" />
    </linearGradient>
    <linearGradient
       id="linearGradient3924-2-2-5-8">
      <stop
         id="stop3926-9-4-9-6"
         style="stop-color:#ffffff;stop-opacity:1"
         offset="0" />
      <stop
         id="stop3928-9-8-6-5"
         style="stop-color:#ffffff;stop-opacity:0.23529412"
         offset="0.06316455" />
      <stop
         id="stop3930-3-5-1-7"
         style="stop-color:#ffffff;stop-opacity:0.15686275"
         offset="0.95056331" />
      <stop
         id="stop3932-8-0-4-8"
         style="stop-color:#ffffff;stop-opacity:0.39215687"
         offset="1" />
    </linearGradient>
    <radialGradient
       cx="4.9929786"
       cy="43.5"
       r="2.5"
       fx="4.9929786"
       fy="43.5"
       id="radialGradient3337-2-2"
       xlink:href="#linearGradient3688-166-749-4-0-3-8"
       gradientUnits="userSpaceOnUse"
       gradientTransform="matrix(2.0304974,0,0,1.4,27.78793,-17.4)" />
    <linearGradient
       id="linearGradient3688-166-749-4-0-3-8">
      <stop
         id="stop2883-4-0-1-8"
         style="stop-color:#181818;stop-opacity:1"
         offset="0" />
      <stop
         id="stop2885-9-2-9-6"
         style="stop-color:#181818;stop-opacity:0"
         offset="1" />
    </linearGradient>
    <radialGradient
       cx="4.9929786"
       cy="43.5"
       r="2.5"
       fx="4.9929786"
       fy="43.5"
       id="radialGradient3339-1-4"
       xlink:href="#linearGradient3688-464-309-9-2-4-2"
       gradientUnits="userSpaceOnUse"
       gradientTransform="matrix(2.0304974,0,0,1.4,-20.212001,-104.4)" />
    <linearGradient
       id="linearGradient3688-464-309-9-2-4-2">
      <stop
         id="stop2889-7-9-6-9"
         style="stop-color:#181818;stop-opacity:1"
         offset="0" />
      <stop
         id="stop2891-6-6-1-7"
         style="stop-color:#181818;stop-opacity:0"
         offset="1" />
    </linearGradient>
    <linearGradient
       id="linearGradient3702-501-757-8-4-1-1">
      <stop
         id="stop2895-8-9-9-1"
         style="stop-color:#181818;stop-opacity:0"
         offset="0" />
      <stop
         id="stop2897-7-8-7-7"
         style="stop-color:#181818;stop-opacity:1"
         offset="0.5" />
      <stop
         id="stop2899-4-5-1-5"
         style="stop-color:#181818;stop-opacity:0"
         offset="1" />
    </linearGradient>
    <linearGradient
       x1="25.058096"
       y1="47.027729"
       x2="25.058096"
       y2="39.999443"
       id="linearGradient6394"
       xlink:href="#linearGradient3702-501-757-8-4-1-1"
       gradientUnits="userSpaceOnUse"
       gradientTransform="matrix(0.99523631,0,0,1,0.11429448,0)" />
    <linearGradient
       xlink:href="#linearGradient872"
       id="linearGradient874"
       x1="54"
       y1="17"
       x2="54"
       y2="59"
       gradientUnits="userSpaceOnUse" />
    <linearGradient
       xlink:href="#linearGradient882"
       id="linearGradient861"
       gradientUnits="userSpaceOnUse"
       x1="31"
       y1="3"
       x2="31"
       y2="59" />
    <linearGradient
       xlink:href="#linearGradient3924-2-2-5-8"
       id="linearGradient875"
       gradientUnits="userSpaceOnUse"
       gradientTransform="matrix(1.4324324,0,0,1.4362832,-2.378381,-2.4707782)"
       x1="23.99999"
       y1="4.999989"
       x2="23.99999"
       y2="43" />
  </defs>
  <metadata
     id="metadata6338">
    <rdf:RDF>
      <cc:Work
         rdf:about="">
        <dc:format>image/svg+xml</dc:format>
        <dc:type
           rdf:resource="http://purl.org/dc/dcmitype/StillImage" />
        <dc:title />
      </cc:Work>
    </rdf:RDF>
  </metadata>
  <g
     style="opacity:0.6"
     id="g3712-8-2-4-4"
     transform="matrix(1.5789502,0,0,0.7142857,-5.894751,27.928572)">
    <rect
       style="fill:url(#radialGradient3337-2-2);fill-opacity:1;stroke:none;stroke-width:1"
       id="rect2801-5-5-7-9"
       y="40"
       x="37.933273"
       height="7"
       width="5.0666575" />
    <rect
       style="fill:url(#radialGradient3339-1-4);fill-opacity:1;stroke:none;stroke-width:1"
       id="rect3696-3-0-3-7"
       transform="scale(-1)"
       y="-47"
       x="-10.066657"
       height="7"
       width="5.0666575" />
    <rect
       style="fill:url(#linearGradient6394);fill-opacity:1;stroke:none;stroke-width:1"
       id="rect3700-5-6-8-4"
       y="40"
       x="10.066658"
       height="7.0000005"
       width="27.866617" />
  </g>
  <path
     style="color:#000000;display:inline;overflow:visible;visibility:visible;opacity:0.5;fill:none;stroke:#555761;stroke-width:1;stroke-linecap:round;stroke-linejoin:round;stroke-miterlimit:4;stroke-dasharray:none;stroke-dashoffset:0;stroke-opacity:1;marker:none;enable-background:accumulate"
     d="M 10.5,59.5 H 54 c 3.047,0 5.5,-2.453 5.5,-5.5 V 47.5 46 19.5 c 0,-1.662 -1.338,-3 -3,-3 h -46 c 0,9.5 0,24.5 0,43 z"
     id="rect849" />
  <path
     style="color:#000000;display:inline;overflow:visible;visibility:visible;opacity:1;fill:url(#linearGradient874);fill-opacity:1;fill-rule:nonzero;stroke:none;stroke-width:0.99999994;marker:none;enable-background:accumulate"
     d="m 11,59 h 43 c 2.77,0 5,-2.23 5,-5 V 48.5 46 19.5 C 59,18.115 57.885,17 56.5,17 H 11 c 0,17 0,25 0,42 z"
     id="rect851" />
  <path
     style="color:#000000;display:inline;overflow:visible;visibility:visible;opacity:1;fill:url(#linearGradient861);fill-opacity:1;fill-rule:nonzero;stroke:none;stroke-width:0.99999994;marker:none;enable-background:accumulate"
     d="M 7.5,3 C 6.115,3 5,4.115 5,5.5 V 46 49.5 54 c 0,2.77 2.23,5 5,5 h 29.5 6.5 8.5 c 1.385,0 4.344466,-2 4.344466,-3.737437 C 58.844466,55.262563 51,58.5 51,52.5 51,49.833333 51,46 51,46 V 5.5 C 51,4.115 49.885,3 48.5,3 Z"
     id="rect5505-21-3-8-5-2" />
  <path
     style="opacity:1;fill:none;stroke:url(#linearGradient875);stroke-width:1;stroke-linecap:round;stroke-linejoin:round;stroke-miterlimit:4;stroke-dasharray:none;stroke-dashoffset:0;stroke-opacity:1"
     d="m 7.5,3.5 c -1.108,0 -2,0.892 -2,2 v 42 6.5 c 0,2.493 2.007,4.5 4.5,4.5 H 35.5 46 54.5 c 1.108,0 3.535107,-1.5 3.535107,-2.508233 0,0 -7.535107,2.755664 -7.535107,-3.491767 0,-3 0,-7.5 0,-7.5 v -2.5 -37 c 0,-1.108 -0.892,-2 -2,-2 z"
     id="rect6741-5-0-2-3" />
  <path
     style="color:#000000;display:inline;overflow:visible;visibility:visible;opacity:0.5;fill:none;stroke:#555761;stroke-width:1;stroke-linecap:round;stroke-linejoin:round;stroke-miterlimit:4;stroke-dasharray:none;stroke-dashoffset:0;stroke-opacity:1;marker:none;enable-background:accumulate"
     d="m 7.5,2.5 c -1.662,0 -3,1.338 -3,3 V 46 46.5 54 c 0,3.047 2.453,5.5 5.5,5.5 h 28.5 7.5 8.5 c 2,0 4.999146,-2.5 4.999146,-4.988738 C 59.499146,54.511262 51.5,58 51.5,52.5 c 0,-2.166667 0,-6.5 0,-6.5 V 5.5 c 0,-1.662 -1.338,-3 -3,-3 z"
     id="rect5505-21-3-8-9-1-1" />
  <rect
     style="opacity:0.6;vector-effect:none;fill:none;fill-opacity:1;stroke:#555761;stroke-width:1;stroke-linecap:round;stroke-linejoin:miter;stroke-miterlimit:4;stroke-dasharray:none;stroke-dashoffset:0;stroke-opacity:1"
     id="rect904"
     width="14"
     height="12.000001"
     x="32.5"
     y="15.499999" />
  <path
     style="opacity:0.6;fill:none;stroke:#555761;stroke-width:1px;stroke-linecap:butt;stroke-linejoin:miter;stroke-opacity:1"
     d="M 9 15.5 L 16 15.5 L 9 15.5 z M 17 15.5 L 25 15.5 L 17 15.5 z M 26 15.5 L 30 15.5 L 26 15.5 z M 9 17.5 L 13 17.5 L 9 17.5 z M 14 17.5 L 19 17.5 L 14 17.5 z M 20 17.5 L 27 17.5 L 20 17.5 z M 28 17.5 L 31 17.5 L 28 17.5 z M 9 19.5 L 16 19.5 L 9 19.5 z M 17 19.5 L 21 19.5 L 17 19.5 z M 22 19.5 L 25 19.5 L 22 19.5 z M 26 19.5 L 30 19.5 L 26 19.5 z M 9 21.5 L 15 21.5 L 9 21.5 z M 16 21.5 L 22 21.5 L 16 21.5 z M 23 21.5 L 29 21.5 L 23 21.5 z M 9 23.5 L 14 23.5 L 9 23.5 z M 15 23.5 L 23 23.5 L 15 23.5 z M 24 23.5 L 27 23.5 L 24 23.5 z M 28 23.5 L 30 23.5 L 28 23.5 z M 9 25.5 L 13 25.5 L 9 25.5 z M 14 25.5 L 17 25.5 L 14 25.5 z M 18 25.5 L 21 25.5 L 18 25.5 z M 22 25.5 L 28 25.5 L 22 25.5 z M 29 25.5 L 31 25.5 L 29 25.5 z M 9 27.5 L 15 27.5 L 9 27.5 z M 16 27.5 L 19 27.5 L 16 27.5 z M 20 27.5 L 27 27.5 L 20 27.5 z M 28 27.5 L 31 27.5 L 28 27.5 z M 9 29.5 L 13 29.5 L 9 29.5 z M 14 29.5 L 16 29.5 L 14 29.5 z M 17 29.5 L 24 29.5 L 17 29.5 z M 25 29.5 L 31 29.5 L 25 29.5 z M 32 29.5 L 35 29.5 L 32 29.5 z M 36 29.5 L 41 29.5 L 36 29.5 z M 42 29.5 L 45 29.5 L 42 29.5 z M 9 31.5 L 13 31.5 L 9 31.5 z M 14 31.5 L 21 31.5 L 14 31.5 z M 22 31.5 L 24 31.5 L 22 31.5 z M 25 31.5 L 30 31.5 L 25 31.5 z M 31 31.5 L 36 31.5 L 31 31.5 z M 37 31.5 L 44 31.5 L 37 31.5 z M 45 31.5 L 47 31.5 L 45 31.5 z M 9 33.5 L 12 33.5 L 9 33.5 z M 13 33.5 L 16 33.5 L 13 33.5 z M 17 33.5 L 23 33.5 L 17 33.5 z M 24 33.5 L 28 33.5 L 24 33.5 z M 29 33.5 L 34 33.5 L 29 33.5 z M 35 33.5 L 39 33.5 L 35 33.5 z M 40 33.5 L 46 33.5 L 40 33.5 z M 9 41.5 L 12 41.5 L 9 41.5 z M 13 41.5 L 15 41.5 L 13 41.5 z M 16 41.5 L 21 41.5 L 16 41.5 z M 22 41.5 L 25 41.5 L 22 41.5 z M 30 41.5 L 32 41.5 L 30 41.5 z M 33 41.5 L 36 41.5 L 33 41.5 z M 37 41.5 L 38 41.5 L 37 41.5 z M 39 41.5 L 47 41.5 L 39 41.5 z M 9 43.5 L 14 43.5 L 9 43.5 z M 15 43.5 L 16 43.5 L 15 43.5 z M 17 43.5 L 20 43.5 L 17 43.5 z M 21 43.5 L 26 43.5 L 21 43.5 z M 30 43.5 L 33 43.5 L 30 43.5 z M 34 43.5 L 35 43.5 L 34 43.5 z M 36 43.5 L 39 43.5 L 36 43.5 z M 40 43.5 L 42 43.5 L 40 43.5 z M 43 43.5 L 46 43.5 L 43 43.5 z M 9 45.5 L 12 45.5 L 9 45.5 z M 13 45.5 L 16 45.5 L 13 45.5 z M 17 45.5 L 19 45.5 L 17 45.5 z M 20 45.5 L 25 45.5 L 20 45.5 z M 30 45.5 L 34 45.5 L 30 45.5 z M 35 45.5 L 36 45.5 L 35 45.5 z M 37 45.5 L 41 45.5 L 37 45.5 z M 42 45.5 L 47 45.5 L 42 45.5 z M 9 47.5 L 13 47.5 L 9 47.5 z M 14 47.5 L 18 47.5 L 14 47.5 z M 19 47.5 L 20 47.5 L 19 47.5 z M 21 47.5 L 26 47.5 L 21 47.5 z M 30 47.5 L 35 47.5 L 30 47.5 z M 36 47.5 L 39 47.5 L 36 47.5 z M 40 47.5 L 42 47.5 L 40 47.5 z M 43 47.5 L 47 47.5 L 43 47.5 z M 9 49.5 L 10 49.5 L 9 49.5 z M 11 49.5 L 13 49.5 L 11 49.5 z M 14 49.5 L 19 49.5 L 14 49.5 z M 20 49.5 L 22 49.5 L 20 49.5 z M 23 49.5 L 26 49.5 L 23 49.5 z M 30 49.5 L 33 49.5 L 30 49.5 z M 34 49.5 L 36 49.5 L 34 49.5 z M 37 49.5 L 38 49.5 L 37 49.5 z M 39 49.5 L 43 49.5 L 39 49.5 z M 44 49.5 L 47 49.5 L 44 49.5 z M 9 51.5 L 13 51.5 L 9 51.5 z M 14 51.5 L 15 51.5 L 14 51.5 z M 16 51.5 L 19 51.5 L 16 51.5 z M 20 51.5 L 21 51.5 L 20 51.5 z M 22 51.5 L 25 51.5 L 22 51.5 z M 30 51.5 L 34 51.5 L 30 51.5 z M 35 51.5 L 36 51.5 L 35 51.5 z M 37 51.5 L 40 51.5 L 37 51.5 z M 41 51.5 L 44 51.5 L 41 51.5 z M 45 51.5 L 46 51.5 L 45 51.5 z M 9 53.5 L 14 53.5 L 9 53.5 z M 15 53.5 L 17 53.5 L 15 53.5 z M 18 53.5 L 20 53.5 L 18 53.5 z M 21 53.5 L 26 53.5 L 21 53.5 z M 30 53.5 L 32 53.5 L 30 53.5 z M 33 53.5 L 36 53.5 L 33 53.5 z M 37 53.5 L 41 53.5 L 37 53.5 z M 42 53.5 L 47 53.5 L 42 53.5 z "
     id="path906" />
  <path
     style="fill:none;stroke:#555761;stroke-width:1px;stroke-linecap:butt;stroke-linejoin:miter;stroke-opacity:1"
     d="m 9,8.5 h 9 z m 10,0 h 4 z m 5,0 h 8 z m 9,0 h 2 z m 3,0 h 7 z m 8,0 h 3 z"
     id="path936" />
  <path
     style="fill:none;stroke:#7e8087;stroke-width:1px;stroke-linecap:butt;stroke-linejoin:miter;stroke-opacity:1"
     d="M 9 10.5 L 13 10.5 L 9 10.5 z M 14 10.5 L 20 10.5 L 14 10.5 z M 21 10.5 L 25 10.5 L 21 10.5 z M 26 10.5 L 35 10.5 L 26 10.5 z "
     id="path929" />
  <path
     style="fill:none;stroke:#555761;stroke-width:1px;stroke-linecap:butt;stroke-linejoin:miter;stroke-opacity:1"
     d="m 9,38.5 h 4 z m 5,0 h 6 z m 7,0 h 5 z m 9,0 h 4 z m 5,0 h 3 z m 4,0 h 1 z m 2,0 h 2 z m 3,0 h 3 z"
     id="path935" />
  <g
     id="g926">
    <path
       id="path918"
       d="m 32.5,27.5 v -5 l 4,-4 10,9 z"
       style="opacity:0.6;fill:#abacae;fill-opacity:1;stroke:#555761;stroke-width:1px;stroke-linecap:butt;stroke-linejoin:round;stroke-opacity:1" />
    <path
       id="path916"
       d="m 40.5,22.5 4,-3 2,2 v 6 h -2 z"
       style="opacity:0.6;fill:#abacae;fill-opacity:1;stroke:#555761;stroke-width:1px;stroke-linecap:butt;stroke-linejoin:round;stroke-opacity:1" />
  </g>
  <path
     style="opacity:1;fill:#d4d4d4;fill-opacity:1;stroke:#7e8087;stroke-width:1;stroke-opacity:1"
     d="M 41 19.5 A 2.5 2.5 0 0 0 38.5 22 A 2.5 2.5 0 0 0 41 24.5 A 2.5 2.5 0 0 0 43.5 22 A 2.5 2.5 0 0 0 41 19.5 z M 41 24.5 L 39 24.5 C 38.169 24.5 37.5 25.169 37.5 26 L 37.5 27.5 L 39 27.5 L 43 27.5 L 44.5 27.5 L 44.5 26 C 44.5 25.169 43.831 24.5 43 24.5 L 41 24.5 z "
     id="path910" />
</svg>
