<?xml version="1.0" encoding="UTF-8" standalone="no"?>
<!-- Created with Inkscape (http://www.inkscape.org/) -->

<svg
   xmlns:dc="http://purl.org/dc/elements/1.1/"
   xmlns:cc="http://creativecommons.org/ns#"
   xmlns:rdf="http://www.w3.org/1999/02/22-rdf-syntax-ns#"
   xmlns:svg="http://www.w3.org/2000/svg"
   xmlns="http://www.w3.org/2000/svg"
   xmlns:xlink="http://www.w3.org/1999/xlink"
   xmlns:sodipodi="http://sodipodi.sourceforge.net/DTD/sodipodi-0.dtd"
   xmlns:inkscape="http://www.inkscape.org/namespaces/inkscape"
   width="22"
   height="22"
   id="svg3886"
   version="1.1"
   inkscape:version="0.48.3.1 r9886"
   sodipodi:docname="playlist.svg">
  <defs
     id="defs3888">
    <linearGradient
       inkscape:collect="always"
       xlink:href="#linearGradient3977"
       id="linearGradient3015"
       gradientUnits="userSpaceOnUse"
       gradientTransform="matrix(0.40540511,0,0,0.51351351,1.2696879,-7.3243134)"
       x1="23.99999"
       y1="5.5641499"
       x2="23.99999"
       y2="43" />
    <linearGradient
       id="linearGradient3977">
      <stop
         id="stop3979"
         style="stop-color:#ffffff;stop-opacity:1"
         offset="0" />
      <stop
         id="stop3981"
         style="stop-color:#ffffff;stop-opacity:0.23529412"
         offset="0.03626217" />
      <stop
         id="stop3983"
         style="stop-color:#ffffff;stop-opacity:0.15686275"
         offset="0.95056331" />
      <stop
         id="stop3985"
         style="stop-color:#ffffff;stop-opacity:0.39215687"
         offset="1" />
    </linearGradient>
    <linearGradient
       id="linearGradient2867-449-88-871-390-598-476-591-434-148-57-177-8-3-4">
      <stop
         id="stop3750-1-0-7"
         style="stop-color:#ffcd7d;stop-opacity:1"
         offset="0" />
      <stop
         id="stop3752-3-7-6"
         style="stop-color:#fc8f36;stop-opacity:1"
         offset="0.26238" />
      <stop
         id="stop3754-1-8-5"
         style="stop-color:#e23a0e;stop-opacity:1"
         offset="0.704952" />
      <stop
         id="stop3756-1-6-6"
         style="stop-color:#ac441f;stop-opacity:1"
         offset="1" />
    </linearGradient>
    <radialGradient
       r="12.671875"
       fy="9.9571075"
       fx="7.2758255"
       cy="9.9571075"
       cx="7.8060555"
       gradientTransform="matrix(-7.8526754e-8,3.1504885,-3.9304936,-9.4569185e-8,50.131136,-34.404754)"
       gradientUnits="userSpaceOnUse"
       id="radialGradient3884"
       xlink:href="#linearGradient2867-449-88-871-390-598-476-591-434-148-57-177-8-3-4"
       inkscape:collect="always" />
  </defs>
  <sodipodi:namedview
     id="base"
     pagecolor="#ffffff"
     bordercolor="#666666"
     borderopacity="1.0"
     inkscape:pageopacity="0.0"
     inkscape:pageshadow="2"
     inkscape:zoom="22.197802"
     inkscape:cx="8"
     inkscape:cy="8"
     inkscape:current-layer="layer1"
     showgrid="true"
     inkscape:grid-bbox="true"
     inkscape:document-units="px"
     inkscape:window-width="453"
     inkscape:window-height="430"
     inkscape:window-x="1"
     inkscape:window-y="46"
     inkscape:window-maximized="0" />
  <metadata
     id="metadata3891">
    <rdf:RDF>
      <cc:Work
         rdf:about="">
        <dc:format>image/svg+xml</dc:format>
        <dc:type
           rdf:resource="http://purl.org/dc/dcmitype/StillImage" />
        <dc:title></dc:title>
      </cc:Work>
    </rdf:RDF>
  </metadata>
  <g
     id="layer1"
     inkscape:label="Layer 1"
     inkscape:groupmode="layer"
     transform="translate(0,6)">
    <path
       style="color:#000000;fill:url(#radialGradient3884);fill-opacity:1;fill-rule:nonzero;stroke:none;stroke-width:1;marker:none;visibility:visible;display:inline;overflow:visible;enable-background:accumulate"
       id="path4160"
       inkscape:connector-curvature="0"
       d="m 2.5000008,-5.499961 c 3.895562,0 16.9999792,0.0013 16.9999792,0.0013 l 2.1e-5,20.99866 c 0,0 -11.3333332,0 -17.0000002,0 0,-6.999999 0,-13.999999 0,-20.999997 z" />
    <path
       style="opacity:0.5;fill:none;stroke:url(#linearGradient3015);stroke-width:1;stroke-linecap:round;stroke-linejoin:miter;stroke-miterlimit:4;stroke-opacity:1;stroke-dasharray:none;stroke-dashoffset:0"
       id="rect6741-1"
       inkscape:connector-curvature="0"
       d="m 18.500001,14.500006 -15.0000006,0 0,-19 15.0000006,0 z" />
    <path
       style="opacity:0.4;fill:#ffffff;fill-opacity:1;stroke:none"
       id="path7249-8-0"
       inkscape:connector-curvature="0"
       d="m 11.419633,-0.99507 c -0.452724,-0.05278 -0.515415,0.329409 -0.468254,0.633498 -0.0043,3.025974 0.0086,6.054723 -0.0064,9.078969 -0.110572,0.104088 -0.322761,-0.06711 -0.463635,-0.02267 -1.5347135,-0.08429 -3.2115235,0.918375 -3.3649515,2.365374 -0.180821,1.15045 1.168324,2.097014 2.3714223,1.918083 1.5159882,-0.144969 2.7003622,-1.523417 2.5027172,-2.884224 0.0043,-2.395979 -0.0086,-4.794731 0.0064,-7.188976 0.103332,-0.106628 0.257461,0.120399 0.366317,0.131537 1.219106,0.649917 2.297503,1.721651 2.370301,3.056313 C 14.8136,7.135732 14.463117,8.156227 14.068795,9.12305 15.390103,7.657604 15.813084,5.519815 14.894919,3.788908 14.425341,2.784142 13.366038,2.164942 12.773442,1.231688 12.335815,0.608026 12.002751,-0.08821 11.898544,-0.824492 11.812744,-0.978028 11.586751,-0.996724 11.419633,-0.99507 z" />
    <path
       style="fill:#bc4014;fill-opacity:1;stroke:none"
       id="path7249-8-0-4"
       inkscape:connector-curvature="0"
       d="m 11.419633,-1.99507 c -0.452724,-0.05278 -0.515415,0.329409 -0.468254,0.633497 -0.0043,3.025975 0.0086,6.054725 -0.0064,9.078968 -0.110572,0.10409 -0.322761,-0.0671 -0.463635,-0.02267 -1.5347135,-0.08429 -3.2115235,0.918378 -3.3649515,2.365376 -0.180821,1.15045 1.168324,2.097014 2.3714223,1.918082 1.5159882,-0.144968 2.7003622,-1.523417 2.5027172,-2.884223 0.0043,-2.395979 -0.0086,-4.794732 0.0064,-7.188977 0.103332,-0.106629 0.257461,0.120399 0.366317,0.131537 1.219106,0.649916 2.297503,1.721652 2.370301,3.056314 0.08005,1.042897 -0.270433,2.063392 -0.664755,3.030214 1.321308,-1.465443 1.744289,-3.603234 0.826124,-5.334141 -0.469578,-1.004767 -1.528881,-1.623965 -2.121477,-2.557221 -0.437627,-0.623661 -0.770691,-1.319897 -0.874898,-2.05618 -0.0858,-0.153536 -0.311793,-0.172231 -0.478911,-0.170577 z" />
    <path
       style="opacity:0.35;color:#000000;fill:none;stroke:#770000;stroke-width:1;stroke-linecap:round;stroke-linejoin:round;stroke-miterlimit:4;stroke-opacity:1;stroke-dasharray:none;stroke-dashoffset:0;marker:none;visibility:visible;display:inline;overflow:visible;enable-background:accumulate"
       id="path4160-1"
       inkscape:connector-curvature="0"
       d="m 2.5000008,-5.499961 c 3.895562,0 16.9999792,0.0013 16.9999792,0.0013 l 2.1e-5,20.99866 c 0,0 -11.3333332,0 -17.0000002,0 0,-6.999999 0,-13.999999 0,-20.999997 z" />
  </g>
</svg>
