<?xml version="1.0" encoding="UTF-8" standalone="no"?>
<!-- Created with Inkscape (http://www.inkscape.org/) -->

<svg
   xmlns:svg="http://www.w3.org/2000/svg"
   xmlns="http://www.w3.org/2000/svg"
   xmlns:xlink="http://www.w3.org/1999/xlink"
   version="1.0"
   width="24"
   height="24"
   id="svg2">
  <defs
     id="defs4">
    <linearGradient
       x1="32.892288"
       y1="8.0590115"
       x2="36.358372"
       y2="5.4565363"
       id="linearGradient4543"
       xlink:href="#linearGradient8589"
       gradientUnits="userSpaceOnUse"
       gradientTransform="matrix(0.541631,0,0,0.5202974,-0.9402078,-0.30185573)" />
    <linearGradient
       id="linearGradient8589">
      <stop
         id="stop8591"
         style="stop-color:#fefefe;stop-opacity:1"
         offset="0" />
      <stop
         id="stop8593"
         style="stop-color:#cbcbcb;stop-opacity:1"
         offset="1" />
    </linearGradient>
    <linearGradient
       x1="17.288921"
       y1="2.184907"
       x2="15.179585"
       y2="5.8214641"
       id="linearGradient4565"
       xlink:href="#linearGradient4559"
       gradientUnits="userSpaceOnUse" />
    <linearGradient
       id="linearGradient4559">
      <stop
         id="stop4561"
         style="stop-color:#cacaca;stop-opacity:1"
         offset="0" />
      <stop
         id="stop4563"
         style="stop-color:#949492;stop-opacity:1"
         offset="1" />
    </linearGradient>
    <linearGradient
       x1="-22.539846"
       y1="11.109024"
       x2="-22.539846"
       y2="46.263954"
       id="linearGradient7415"
       xlink:href="#linearGradient3522-35-31-587"
       gradientUnits="userSpaceOnUse"
       gradientTransform="matrix(0.5227049,0,0,0.5017146,24.968133,-0.52770703)" />
    <linearGradient
       x1="9.4919996"
       y1="46.314064"
       x2="9.4919996"
       y2="1.7164899"
       id="linearGradient7417"
       xlink:href="#linearGradient6691-109-877-748"
       gradientUnits="userSpaceOnUse"
       gradientTransform="matrix(0.5957381,0,0,0.4883909,-1.3547496,-0.22138233)" />
    <linearGradient
       x1="25.132275"
       y1="6.7287393"
       x2="25.132275"
       y2="47.013336"
       id="linearGradient4545"
       xlink:href="#linearGradient3600"
       gradientUnits="userSpaceOnUse"
       gradientTransform="matrix(0.5428805,0,0,0.4889072,-1.0291327,-0.23377133)" />
    <linearGradient
       id="linearGradient3600">
      <stop
         id="stop3602"
         style="stop-color:#f4f4f4;stop-opacity:1"
         offset="0" />
      <stop
         id="stop3604"
         style="stop-color:#dbdbdb;stop-opacity:1"
         offset="1" />
    </linearGradient>
    <linearGradient
       x1="-51.786404"
       y1="50.786446"
       x2="-51.786404"
       y2="2.9062471"
       id="linearGradient4547"
       xlink:href="#linearGradient3931"
       gradientUnits="userSpaceOnUse"
       gradientTransform="matrix(0.4383743,0,0,0.4575444,31.223522,-0.77864913)" />
    <linearGradient
       id="linearGradient3931">
      <stop
         id="stop3933"
         style="stop-color:#8d8f8a;stop-opacity:1"
         offset="0" />
      <stop
         id="stop3935"
         style="stop-color:#cbcbcb;stop-opacity:1"
         offset="1" />
    </linearGradient>
    <linearGradient
       x1="302.85715"
       y1="366.64789"
       x2="302.85715"
       y2="609.50507"
       id="linearGradient4532"
       xlink:href="#linearGradient5048"
       gradientUnits="userSpaceOnUse"
       gradientTransform="matrix(2.774389,0,0,1.969706,-1892.179,-872.8854)" />
    <linearGradient
       id="linearGradient5048">
      <stop
         id="stop5050"
         style="stop-color:black;stop-opacity:0"
         offset="0" />
      <stop
         id="stop5056"
         style="stop-color:black;stop-opacity:1"
         offset="0.5" />
      <stop
         id="stop5052"
         style="stop-color:black;stop-opacity:0"
         offset="1" />
    </linearGradient>
    <radialGradient
       cx="605.71429"
       cy="486.64789"
       r="117.14286"
       fx="605.71429"
       fy="486.64789"
       id="radialGradient4534"
       xlink:href="#linearGradient5060"
       gradientUnits="userSpaceOnUse"
       gradientTransform="matrix(2.774389,0,0,1.969706,-1891.633,-872.8854)" />
    <linearGradient
       id="linearGradient5060">
      <stop
         id="stop5062"
         style="stop-color:black;stop-opacity:1"
         offset="0" />
      <stop
         id="stop5064"
         style="stop-color:black;stop-opacity:0"
         offset="1" />
    </linearGradient>
    <radialGradient
       cx="605.71429"
       cy="486.64789"
       r="117.14286"
       fx="605.71429"
       fy="486.64789"
       id="radialGradient4536"
       xlink:href="#linearGradient5060"
       gradientUnits="userSpaceOnUse"
       gradientTransform="matrix(-2.774389,0,0,1.969706,112.7623,-872.8854)" />
    <linearGradient
       id="linearGradient6691-109-877-748">
      <stop
         id="stop8689"
         style="stop-color:#b78128;stop-opacity:1"
         offset="0" />
      <stop
         id="stop8691"
         style="stop-color:#daca63;stop-opacity:1"
         offset="1" />
    </linearGradient>
    <linearGradient
       id="linearGradient3522-35-31-587">
      <stop
         id="stop8683"
         style="stop-color:#e3cf6f;stop-opacity:1"
         offset="0" />
      <stop
         id="stop8685"
         style="stop-color:#d09231;stop-opacity:1"
         offset="1" />
    </linearGradient>
    <linearGradient
       id="linearGradient3211">
      <stop
         id="stop3213"
         style="stop-color:white;stop-opacity:1"
         offset="0" />
      <stop
         id="stop3215"
         style="stop-color:white;stop-opacity:0"
         offset="1" />
    </linearGradient>
    <linearGradient
       x1="24"
       y1="1.9999999"
       x2="24"
       y2="46.01725"
       id="linearGradient4544"
       xlink:href="#linearGradient3211"
       gradientUnits="userSpaceOnUse"
       gradientTransform="matrix(0.51515265,0,0,0.46460289,-0.36366388,0.36058936)" />
  </defs>
  <g
     id="layer1">
    <g
       transform="matrix(0.5459263,0,0,0.5168524,-0.9657323,-0.57818163)"
       id="g3490"
       style="stroke-width:1.88256383;stroke-miterlimit:4;stroke-dasharray:none;display:inline">
      <g
         transform="matrix(0.02165152,0,0,0.01485743,43.0076,42.68539)"
         id="g5022"
         style="stroke-width:104.96237946;stroke-miterlimit:4;stroke-dasharray:none;display:inline">
        <rect
           width="1339.6335"
           height="478.35718"
           x="-1559.2523"
           y="-150.69685"
           id="rect4173"
           style="opacity:0.40206185;fill:url(#linearGradient4532);fill-opacity:1;fill-rule:nonzero;stroke:none;stroke-width:104.96237946;marker:none;visibility:visible;display:inline;overflow:visible" />
        <path
           d="m -219.61876,-150.68038 c 0,0 0,478.33079 0,478.33079 142.874166,0.90045 345.40022,-107.16966 345.40014,-239.196175 0,-132.026537 -159.436816,-239.134595 -345.40014,-239.134615 z"
           id="path5058"
           style="opacity:0.40206185;fill:url(#radialGradient4534);fill-opacity:1;fill-rule:nonzero;stroke:none;stroke-width:104.96237946;marker:none;visibility:visible;display:inline;overflow:visible" />
        <path
           d="m -1559.2523,-150.68038 c 0,0 0,478.33079 0,478.33079 -142.8742,0.90045 -345.4002,-107.16966 -345.4002,-239.196175 0,-132.026537 159.4368,-239.134595 345.4002,-239.134615 z"
           id="path5018"
           style="opacity:0.40206185;fill:url(#radialGradient4536);fill-opacity:1;fill-rule:nonzero;stroke:none;stroke-width:104.96237946;marker:none;visibility:visible;display:inline;overflow:visible" />
      </g>
    </g>
    <path
       d="m 2.4995695,0.49957042 c 4.3540581,0 8.7081225,0 13.0621825,0 0.7638,0.23730535 4.867172,2.94084498 5.938678,4.81278188 0,5.7293567 0,11.4587187 0,17.1880787 -6.333619,0 -12.6672431,0 -19.0008605,0 0,-7.333622 0,-14.6672388 0,-22.00086058 z"
       id="rect2594"
       style="fill:url(#linearGradient4545);fill-opacity:1;stroke:url(#linearGradient4547);stroke-width:0.99913895;stroke-linecap:butt;stroke-linejoin:round;stroke-miterlimit:4;stroke-opacity:1;stroke-dasharray:none;stroke-dashoffset:0;display:inline" />
    <path
       d="m 6.0951502,22.49515 c -1.1472388,0 -2.2944776,0 -3.441722,0 -0.2788466,-0.260378 -0.066807,-0.77733 -0.1330618,-1.145942 0,-6.906002 0,-13.8120022 0,-20.71800193 l 0.038889,-0.0894287 0.094173,-0.0369277 0,0 c 1.1940433,0 2.2008741,0 3.3949174,0"
       id="path4530"
       style="fill:url(#linearGradient7415);fill-opacity:1;fill-rule:nonzero;stroke:url(#linearGradient7417);stroke-width:1.00969934;stroke-linecap:butt;stroke-linejoin:round;stroke-miterlimit:4;stroke-opacity:1;stroke-dasharray:none;stroke-dashoffset:0;marker:none;visibility:visible;display:block;overflow:visible" />
    <path
       d="m 15.5,0.50000047 c 0,2.26296503 0,5.00000003 0,5.00000003 0,0 4.653658,0 6,0 0,-0.836587 -4.820468,-4.98571764 -6,-5.00000003 z"
       id="path12038"
       style="fill:url(#linearGradient4543);fill-opacity:1;fill-rule:evenodd;stroke:url(#linearGradient4565);stroke-width:1;stroke-linecap:butt;stroke-linejoin:round;stroke-miterlimit:4;stroke-opacity:1;stroke-dasharray:none;display:inline" />
    <path
       d="m 7,5.0000009 1.124072,0 0,1 -1.124072,0 0,-1 z"
       id="path6035"
       style="opacity:0.7;fill:#666;fill-opacity:1;stroke:none" />
    <path
       d="m 8.277189,5.0000009 1.060612,0 0,1 -1.060612,0 0,-1 z"
       id="path6033"
       style="opacity:0.7;fill:#666;fill-opacity:1;stroke:none" />
    <path
       d="m 9.490918,5.0000009 0.933684,0 0,1 -0.933684,0 0,-1 z"
       id="path6031"
       style="opacity:0.7;fill:#666;fill-opacity:1;stroke:none" />
    <path
       d="m 10.577718,5.0000009 0.410114,0 0,1 -0.410114,0 0,-1 z"
       id="path6029"
       style="opacity:0.7;fill:#666;fill-opacity:1;stroke:none" />
    <path
       d="m 11.140954,5.0000009 0.917815,0 0,1 -0.917815,0 0,-1 z"
       id="path6027"
       style="opacity:0.7;fill:#666;fill-opacity:1;stroke:none" />
    <path
       d="m 12.211891,5.0000009 2.377462,0 0,1 -2.377462,0 0,-1 z"
       id="path6025"
       style="opacity:0.7;fill:#666;fill-opacity:1;stroke:none" />
    <path
       d="m 14.74247,5.0000009 1.806297,0 0,1 -1.806297,0 0,-1 z"
       id="path6023"
       style="opacity:0.7;fill:#666;fill-opacity:1;stroke:none" />
    <path
       d="m 7,11 1.124072,0 0,1 L 7,12 7,11 z"
       id="path6017"
       style="opacity:0.7;fill:#666;fill-opacity:1;stroke:none" />
    <path
       d="m 8.277188,11 1.060612,0 0,1 -1.060612,0 0,-1 z"
       id="path6015"
       style="opacity:0.7;fill:#666;fill-opacity:1;stroke:none" />
    <path
       d="m 9.490917,11 0.933683,0 0,1 -0.933683,0 0,-1 z"
       id="path6013"
       style="opacity:0.7;fill:#666;fill-opacity:1;stroke:none" />
    <path
       d="m 10.577716,11 0.410114,0 0,1 -0.410114,0 0,-1 z"
       id="path6011"
       style="opacity:0.7;fill:#666;fill-opacity:1;stroke:none" />
    <path
       d="m 11.140952,11 0.917814,0 0,1 -0.917814,0 0,-1 z"
       id="path6009"
       style="opacity:0.7;fill:#666;fill-opacity:1;stroke:none" />
    <path
       d="m 12.211888,11 2.377461,0 0,1 -2.377461,0 0,-1 z"
       id="path6007"
       style="opacity:0.7;fill:#666;fill-opacity:1;stroke:none" />
    <path
       d="m 14.742466,11 1.806296,0 0,1 -1.806296,0 0,-1 z"
       id="path6005"
       style="opacity:0.7;fill:#666;fill-opacity:1;stroke:none" />
    <path
       d="m 16.701884,11 0.552901,0 0,1 -0.552901,0 0,-1 z"
       id="path6003"
       style="opacity:0.7;fill:#666;fill-opacity:1;stroke:none" />
    <path
       d="m 17.407907,11 1.092339,0 0,1 -1.092339,0 0,-1 z"
       id="path6001"
       style="opacity:0.7;fill:#666;fill-opacity:1;stroke:none" />
    <path
       d="m 7,7.0000013 1.742834,0 0,0.9999996 -1.742834,0 0,-0.9999996 z"
       id="path5999"
       style="opacity:0.7;fill:#666;fill-opacity:1;stroke:none" />
    <path
       d="m 8.901905,7.0000013 0.838487,0 0,0.9999996 -0.838487,0 0,-0.9999996 z"
       id="path5997"
       style="opacity:0.7;fill:#666;fill-opacity:1;stroke:none" />
    <path
       d="m 9.899463,7.0000013 0.394245,0 0,0.9999996 -0.394245,0 0,-0.9999996 z"
       id="path5995"
       style="opacity:0.7;fill:#666;fill-opacity:1;stroke:none" />
    <path
       d="m 10.45278,7.0000013 0.759159,0 0,0.9999996 -0.759159,0 0,-0.9999996 z"
       id="path5993"
       style="opacity:0.7;fill:#666;fill-opacity:1;stroke:none" />
    <path
       d="m 11.371005,7.0000013 0.759159,0 0,0.9999996 -0.759159,0 0,-0.9999996 z"
       id="path5991"
       style="opacity:0.7;fill:#666;fill-opacity:1;stroke:none" />
    <path
       d="m 12.289234,7.0000013 1.219264,0 0,0.9999996 -1.219264,0 0,-0.9999996 z"
       id="path5989"
       style="opacity:0.7;fill:#666;fill-opacity:1;stroke:none" />
    <path
       d="m 13.667565,7.0000013 1.600045,0 0,0.9999996 -1.600045,0 0,-0.9999996 z"
       id="path5987"
       style="opacity:0.7;fill:#666;fill-opacity:1;stroke:none" />
    <path
       d="m 15.426681,7.0000013 1.076471,0 0,0.9999996 -1.076471,0 0,-0.9999996 z"
       id="path5985"
       style="opacity:0.7;fill:#666;fill-opacity:1;stroke:none" />
    <path
       d="m 16.662224,7.0000013 0.251453,0 0,0.9999996 -0.251453,0 0,-0.9999996 z"
       id="path5983"
       style="opacity:0.7;fill:#666;fill-opacity:1;stroke:none" />
    <path
       d="m 7,9.0000005 1.996685,0 L 8.996685,10 7,10 7,9.0000005 z"
       id="path5981"
       style="opacity:0.7;fill:#666;fill-opacity:1;stroke:none" />
    <path
       d="m 9.153206,9.0000005 2.139471,0 0,0.9999995 -2.139471,0 0,-0.9999995 z"
       id="path5979"
       style="opacity:0.7;fill:#666;fill-opacity:1;stroke:none" />
    <path
       d="m 11.449198,9.0000005 0.854355,0 0,0.9999995 -0.854355,0 0,-0.9999995 z"
       id="path5977"
       style="opacity:0.7;fill:#666;fill-opacity:1;stroke:none" />
    <path
       d="m 12.460074,9.0000005 2.012548,0 0,0.9999995 -2.012548,0 0,-0.9999995 z"
       id="path5975"
       style="opacity:0.7;fill:#666;fill-opacity:1;stroke:none" />
    <path
       d="m 16.163583,9.0000005 0.537037,0 0,0.9999995 -0.537037,0 0,-0.9999995 z"
       id="path5973"
       style="opacity:0.7;fill:#666;fill-opacity:1;stroke:none" />
    <path
       d="m 14.629143,9.0000005 1.377919,0 0,0.9999995 -1.377919,0 0,-0.9999995 z"
       id="path5971"
       style="opacity:0.7;fill:#666;fill-opacity:1;stroke:none" />
    <path
       d="m 16.85714,9.0000005 0.314918,0 0,0.9999995 -0.314918,0 0,-0.9999995 z"
       id="path5969"
       style="opacity:0.7;fill:#666;fill-opacity:1;stroke:none" />
    <path
       d="m 17.328579,9.0000005 0.854355,0 0,0.9999995 -0.854355,0 0,-0.9999995 z"
       id="path5967"
       style="opacity:0.7;fill:#666;fill-opacity:1;stroke:none" />
    <path
       d="m 7,17 1.996686,0 0,1 L 7,18 7,17 z"
       id="path5965"
       style="opacity:0.7;fill:#666;fill-opacity:1;stroke:none" />
    <path
       d="m 9.153206,17 2.139473,0 0,1 -2.139473,0 0,-1 z"
       id="path5963"
       style="opacity:0.7;fill:#666;fill-opacity:1;stroke:none" />
    <path
       d="m 11.4492,17 0.854355,0 0,1 -0.854355,0 0,-1 z"
       id="path5961"
       style="opacity:0.7;fill:#666;fill-opacity:1;stroke:none" />
    <path
       d="m 12.460076,17 2.012549,0 0,1 -2.012549,0 0,-1 z"
       id="path5959"
       style="opacity:0.7;fill:#666;fill-opacity:1;stroke:none" />
    <path
       d="m 16.163586,17 0.537037,0 0,1 -0.537037,0 0,-1 z"
       id="path5957"
       style="opacity:0.7;fill:#666;fill-opacity:1;stroke:none" />
    <path
       d="m 14.629146,17 1.377919,0 0,1 -1.377919,0 0,-1 z"
       id="path5955"
       style="opacity:0.7;fill:#666;fill-opacity:1;stroke:none" />
    <path
       d="m 16.857144,17 0.314918,0 0,1 -0.314918,0 0,-1 z"
       id="path5953"
       style="opacity:0.7;fill:#666;fill-opacity:1;stroke:none" />
    <path
       d="m 17.328583,17 0.854355,0 0,1 -0.854355,0 0,-1 z"
       id="path5951"
       style="opacity:0.7;fill:#666;fill-opacity:1;stroke:none" />
    <path
       d="m 7,13 1.441384,0 0,1 L 7,14 7,13 z"
       id="path5949"
       style="opacity:0.7;fill:#666;fill-opacity:1;stroke:none" />
    <path
       d="m 8.594506,13 2.393326,0 0,1 -2.393326,0 0,-1 z"
       id="path5947"
       style="opacity:0.7;fill:#666;fill-opacity:1;stroke:none" />
    <path
       d="m 11.140954,13 1.155799,0 0,1 -1.155799,0 0,-1 z"
       id="path5945"
       style="opacity:0.7;fill:#666;fill-opacity:1;stroke:none" />
    <path
       d="m 13.679466,13 0.917816,0 0,1 -0.917816,0 0,-1 z"
       id="path5943"
       style="opacity:0.7;fill:#666;fill-opacity:1;stroke:none" />
    <path
       d="m 14.750403,13 1.473117,0 0,1 -1.473117,0 0,-1 z"
       id="path6320"
       style="opacity:0.7;fill:#666;fill-opacity:1;stroke:none" />
    <path
       d="m 16.376636,13 2.393331,0 0,1 -2.393331,0 0,-1 z"
       id="path6322"
       style="opacity:0.7;fill:#666;fill-opacity:1;stroke:none" />
    <path
       d="m 12.449874,13 1.076476,0 0,1 -1.076476,0 0,-1 z"
       id="path6324"
       style="opacity:0.7;fill:#666;fill-opacity:1;stroke:none" />
    <path
       d="m 7,15 1.806297,0 0,1 L 7,16 7,15 z"
       id="path6326"
       style="opacity:0.7;fill:#666;fill-opacity:1;stroke:none" />
    <path
       d="m 8.95545,15 0.56877,0 0,1 -0.56877,0 0,-1 z"
       id="path5933"
       style="opacity:0.7;fill:#666;fill-opacity:1;stroke:none" />
    <path
       d="m 9.673372,15 1.298596,0 0,1 -1.298596,0 0,-1 z"
       id="path5931"
       style="opacity:0.7;fill:#666;fill-opacity:1;stroke:none" />
    <path
       d="m 11.12112,15 0.886087,0 0,1 -0.886087,0 0,-1 z"
       id="path5929"
       style="opacity:0.7;fill:#666;fill-opacity:1;stroke:none" />
    <path
       d="m 12.15636,15 0.886082,0 0,1 -0.886082,0 0,-1 z"
       id="path5927"
       style="opacity:0.7;fill:#666;fill-opacity:1;stroke:none" />
    <path
       d="m 13.191599,15 1.282728,0 0,1 -1.282728,0 0,-1 z"
       id="path5925"
       style="opacity:0.7;fill:#666;fill-opacity:1;stroke:none" />
    <path
       d="m 14.623474,15 0.267326,0 0,1 -0.267326,0 0,-1 z"
       id="path5923"
       style="opacity:0.7;fill:#666;fill-opacity:1;stroke:none" />
    <path
       d="m 15.039952,15 1.663505,0 0,1 -1.663505,0 0,-1 z"
       id="path5921"
       style="opacity:0.7;fill:#666;fill-opacity:1;stroke:none" />
    <path
       d="m 16.852609,15 0.886087,0 0,1 -0.886087,0 0,-1 z"
       id="path5919"
       style="opacity:0.7;fill:#666;fill-opacity:1;stroke:none" />
    <path
       d="m 7,19 0.727427,0 0,1 L 7,20 7,19 z"
       id="path5917"
       style="opacity:0.7;fill:#666;fill-opacity:1;stroke:none" />
    <path
       d="m 7.91568,19 2.647178,0 0,1 -2.647178,0 0,-1 z"
       id="path5915"
       style="opacity:0.7;fill:#666;fill-opacity:1;stroke:none" />
    <path
       d="m 14.291091,19 -0.727427,0 0,1 0.727427,0 0,-1 z"
       id="path6838"
       style="opacity:0.7;fill:#666;fill-opacity:1;stroke:none;display:inline" />
    <path
       d="m 13.375411,19 -2.647178,0 0,1 2.647178,0 0,-1 z"
       id="path6840"
       style="opacity:0.7;fill:#666;fill-opacity:1;stroke:none;display:inline" />
  </g>
  <path
     d="m 20.500039,5.6945117 c 0,5.2025663 0,10.6029603 0,15.8055273 -5.666693,0 -11.3333857,0 -17.0000781,0 0,-6.65932 0,-13.3186404 0,-19.9779607 3.8955809,0 7.8840681,0 11.7796491,0"
     id="path2435"
     style="opacity:0.4;fill:none;stroke:url(#linearGradient4544);stroke-width:0.99992192;stroke-linecap:butt;stroke-linejoin:round;stroke-miterlimit:4;stroke-opacity:1;stroke-dasharray:none;stroke-dashoffset:0;display:inline" />
</svg>
