<?xml version="1.0" encoding="UTF-8" standalone="no"?>
<svg
   height="16"
   width="16"
   version="1.1"
   id="svg1"
   xmlns="http://www.w3.org/2000/svg"
   xmlns:svg="http://www.w3.org/2000/svg">
  <defs
     id="defs1" />
  <g
     transform="translate(-1193 187)"
     id="g1"
     style="fill:#555761">
    <path
       color="#000"
       d="M1205.5-186a2.5 2.5 0 0 0-2.5 2.5 2.5 2.5 0 0 0 .051.482l-4.846 2.694a2.5 2.5 0 0 0-1.705-.676 2.5 2.5 0 0 0-2.5 2.5 2.5 2.5 0 0 0 2.5 2.5 2.5 2.5 0 0 0 1.717-.684l4.834 2.688a2.5 2.5 0 0 0-.05.496 2.5 2.5 0 0 0 2.5 2.5 2.5 2.5 0 0 0 2.5-2.5 2.5 2.5 0 0 0-2.5-2.5 2.5 2.5 0 0 0-1.722.688l-4.832-2.688a2.5 2.5 0 0 0 .053-.5 2.5 2.5 0 0 0-.057-.514l4.829-2.683a2.5 2.5 0 0 0 1.728.697 2.5 2.5 0 0 0 2.5-2.5 2.5 2.5 0 0 0-2.5-2.5z"
       fill="#666"
       fill-rule="evenodd"
       overflow="visible"
       style="isolation:auto;mix-blend-mode:normal;fill:#555761"
       id="path1" />
  </g>
</svg>
