<?xml version="1.0" encoding="UTF-8" standalone="no"?>
<svg
   xmlns:dc="http://purl.org/dc/elements/1.1/"
   xmlns:cc="http://creativecommons.org/ns#"
   xmlns:rdf="http://www.w3.org/1999/02/22-rdf-syntax-ns#"
   xmlns:svg="http://www.w3.org/2000/svg"
   xmlns="http://www.w3.org/2000/svg"
   id="svg6"
   version="1.1"
   width="16"
   height="16">
  <metadata
     id="metadata12">
    <rdf:RDF>
      <cc:Work
         rdf:about="">
        <dc:format>image/svg+xml</dc:format>
        <dc:type
           rdf:resource="http://purl.org/dc/dcmitype/StillImage" />
        <dc:title></dc:title>
      </cc:Work>
    </rdf:RDF>
  </metadata>
  <defs
     id="defs10" />
  <path
     id="path873-5"
     style="fill:#555761;stroke:none;stroke-width:4;stroke-linecap:round;stroke-linejoin:round;stop-color:#000000"
     d="m 7.2268742,14.50586 c 0.431218,0 0.777344,-0.334319 0.777344,-0.75 v -2.746094 h 0.9531247 c 3.3606291,0 5.0974151,-2.1697261 5.0410151,-4.839844 V 4.501953 C 13.998358,4.178277 13.822116,4 13.488593,4 13.209324,4.000001 13.000311,4.224595 13.000311,4.501953 12.963251,6.337661 11.266688,8.00586 9.2503109,8.00586 H 8.0042182 v -2.75 c 0,-0.41568 -0.346126,-0.750001 -0.777344,-0.750001 -0.23241,0 -0.439647,0.09725 -0.582032,0.251954 l -4.43164,4.2246089 c -0.13161,0.13438 -0.212891,0.3142806 -0.212891,0.5136726 0,0.199392 0.08128,0.379291 0.212891,0.5136715 l 4.43164,4.244141 c 0.142385,0.15471 0.349622,0.251953 0.582032,0.251953 z" />
</svg>
