<?xml version="1.0" encoding="UTF-8" standalone="no"?>
<!-- Created with Inkscape (http://www.inkscape.org/) -->
<svg
   xmlns:svg="http://www.w3.org/2000/svg"
   xmlns="http://www.w3.org/2000/svg"
   xmlns:xlink="http://www.w3.org/1999/xlink"
   version="1.0"
   width="16"
   height="16"
   id="svg3297">
  <defs
     id="defs3299">
    <linearGradient
       id="linearGradient7609-6">
      <stop
         id="stop7611-3"
         style="stop-color:#ffffff;stop-opacity:1"
         offset="0" />
      <stop
         id="stop7677-2"
         style="stop-color:#e7e7e7;stop-opacity:1"
         offset="0.47025558" />
      <stop
         id="stop7613-4"
         style="stop-color:#8c8c8c;stop-opacity:1"
         offset="0.67183787" />
      <stop
         id="stop7617-3"
         style="stop-color:#dddddd;stop-opacity:1"
         offset="0.83542866" />
      <stop
         id="stop7615-6"
         style="stop-color:#a8a8a8;stop-opacity:1"
         offset="1" />
    </linearGradient>
    <radialGradient
       cx="142.62215"
       cy="191.85428"
       r="78.728165"
       fx="142.62215"
       fy="191.85428"
       id="radialGradient2621"
       xlink:href="#linearGradient7609-6"
       gradientUnits="userSpaceOnUse"
       gradientTransform="matrix(6.0310136e-2,0,0,-5.6844488e-2,-0.8403823,16.151565)" />
    <linearGradient
       id="linearGradient5105-262-943-861">
      <stop
         id="stop2487"
         style="stop-color:#0d0d0d;stop-opacity:1"
         offset="0" />
      <stop
         id="stop2489"
         style="stop-color:#0d0d0d;stop-opacity:0"
         offset="1" />
    </linearGradient>
    <radialGradient
       cx="11.25"
       cy="19.03125"
       r="8.0625"
       fx="11.25"
       fy="19.03125"
       id="radialGradient2609"
       xlink:href="#linearGradient5105-262-943-861"
       gradientUnits="userSpaceOnUse"
       gradientTransform="matrix(0.7203293,0,0,0.1400641,-2.0986681e-2,6.3107017)" />
    <linearGradient
       id="linearGradient6332-24-473-272">
      <stop
         id="stop6164"
         style="stop-color:#f9650d;stop-opacity:1"
         offset="0" />
      <stop
         id="stop6166"
         style="stop-color:#c15619;stop-opacity:1"
         offset="1" />
    </linearGradient>
    <radialGradient
       cx="96.124382"
       cy="-26.100422"
       r="38.212933"
       fx="96.124382"
       fy="-26.100426"
       id="radialGradient2606"
       xlink:href="#linearGradient6332-24-473-272"
       gradientUnits="userSpaceOnUse"
       gradientTransform="matrix(-8.6004357e-5,0.1538955,-0.2421377,-1.589112e-4,-4.2061581,-13.93965)" />
    <linearGradient
       id="linearGradient6316-673-936-474">
      <stop
         id="stop6158"
         style="stop-color:#ffc391;stop-opacity:1"
         offset="0" />
      <stop
         id="stop6160"
         style="stop-color:#fa650b;stop-opacity:1"
         offset="1" />
    </linearGradient>
    <radialGradient
       cx="103.93583"
       cy="-34.003952"
       r="38.212933"
       fx="103.93583"
       fy="-34.003952"
       id="radialGradient2604"
       xlink:href="#linearGradient6316-673-936-474"
       gradientUnits="userSpaceOnUse"
       gradientTransform="matrix(-8.6018737e-5,0.1538955,-0.2443876,0,-6.1957336,-15.137647)" />
    <radialGradient
       cx="100.62272"
       cy="-22.827475"
       r="116.21894"
       fx="100.62272"
       fy="-22.827475"
       id="radialGradient2601"
       xlink:href="#linearGradient6280"
       gradientUnits="userSpaceOnUse"
       gradientTransform="matrix(6.022664e-3,3.962951e-3,-2.343742e-2,3.4937079e-2,1.8659542,3.3670707)" />
    <radialGradient
       cx="26.685698"
       cy="30.945623"
       r="26.269466"
       fx="26.685698"
       fy="30.945623"
       id="radialGradient2598"
       xlink:href="#linearGradient6280"
       gradientUnits="userSpaceOnUse"
       gradientTransform="matrix(2.5899535e-2,-9.2255455e-4,1.3089686e-3,3.6044308e-2,0.2313307,3.7658857)" />
    <radialGradient
       cx="26.685698"
       cy="30.945623"
       r="26.269466"
       fx="26.685698"
       fy="30.945623"
       id="radialGradient2595"
       xlink:href="#linearGradient6280"
       gradientUnits="userSpaceOnUse"
       gradientTransform="matrix(2.3804176e-2,-8.4791676e-4,1.2030687e-3,3.3128188e-2,7.015816,4.09974e-2)" />
    <linearGradient
       id="linearGradient6280">
      <stop
         id="stop6282"
         style="stop-color:#ffffff;stop-opacity:1"
         offset="0" />
      <stop
         id="stop6284"
         style="stop-color:#ffffff;stop-opacity:0"
         offset="1" />
    </linearGradient>
    <radialGradient
       cx="100.62272"
       cy="-22.827475"
       r="116.21894"
       fx="100.62272"
       fy="-22.827475"
       id="radialGradient2592"
       xlink:href="#linearGradient6280"
       gradientUnits="userSpaceOnUse"
       gradientTransform="matrix(3.7398347e-4,6.9898702e-3,4.1142268e-2,-2.2989192e-3,6.1669973,0.9243591)" />
    <linearGradient
       id="linearGradient2264">
      <stop
         id="stop2266"
         style="stop-color:#d7e866;stop-opacity:1"
         offset="0" />
      <stop
         id="stop2268"
         style="stop-color:#8cab2a;stop-opacity:1"
         offset="1" />
    </linearGradient>
    <linearGradient
       x1="25"
       y1="11.923377"
       x2="25"
       y2="40.32198"
       id="linearGradient2589"
       xlink:href="#linearGradient2264"
       gradientUnits="userSpaceOnUse"
       gradientTransform="matrix(0.1979199,0,0,0.1966696,6.3966881,1.3686291)" />
    <linearGradient
       id="linearGradient5113">
      <stop
         id="stop5115"
         style="stop-color:#ffffff;stop-opacity:1"
         offset="0" />
      <stop
         id="stop5117"
         style="stop-color:#ffffff;stop-opacity:0"
         offset="1" />
    </linearGradient>
    <linearGradient
       x1="58.748795"
       y1="2.047786"
       x2="105.32369"
       y2="58.047787"
       id="linearGradient2586"
       xlink:href="#linearGradient5113"
       gradientUnits="userSpaceOnUse"
       gradientTransform="matrix(0.198838,0,0,0.1966696,-4.4931279,0.7692211)" />
    <linearGradient
       id="linearGradient8105">
      <stop
         id="stop8107"
         style="stop-color:#f5f5f5;stop-opacity:1"
         offset="0" />
      <stop
         id="stop8109"
         style="stop-color:#e7e7e7;stop-opacity:1"
         offset="0.25027597" />
      <stop
         id="stop8111"
         style="stop-color:#8c8c8c;stop-opacity:1"
         offset="0.69348532" />
      <stop
         id="stop8113"
         style="stop-color:#dddddd;stop-opacity:1"
         offset="0.83542866" />
      <stop
         id="stop8115"
         style="stop-color:#a8a8a8;stop-opacity:1"
         offset="1" />
    </linearGradient>
    <linearGradient
       id="linearGradient4236-0">
      <stop
         id="stop4238-4"
         style="stop-color:#eeeeee;stop-opacity:1"
         offset="0" />
      <stop
         id="stop4240-3"
         style="stop-color:#eeeeee;stop-opacity:0"
         offset="1" />
    </linearGradient>
    <linearGradient
       id="linearGradient6309">
      <stop
         id="stop6311"
         style="stop-color:#000000;stop-opacity:1"
         offset="0" />
      <stop
         id="stop6313"
         style="stop-color:#bbbbbb;stop-opacity:0"
         offset="1" />
    </linearGradient>
    <linearGradient
       id="linearGradient4035">
      <stop
         id="stop4037"
         style="stop-color:#f5f5f5;stop-opacity:1"
         offset="0" />
      <stop
         id="stop4039"
         style="stop-color:#e7e7e7;stop-opacity:1"
         offset="0.47025558" />
      <stop
         id="stop4041"
         style="stop-color:#8c8c8c;stop-opacity:1"
         offset="0.69348532" />
      <stop
         id="stop4043"
         style="stop-color:#dddddd;stop-opacity:1"
         offset="0.83542866" />
      <stop
         id="stop4045"
         style="stop-color:#a8a8a8;stop-opacity:1"
         offset="1" />
    </linearGradient>
    <linearGradient
       id="linearGradient2215-9">
      <stop
         id="stop2223-6"
         style="stop-color:#7a7a7a;stop-opacity:1"
         offset="0" />
      <stop
         id="stop2219-1"
         style="stop-color:#474747;stop-opacity:1"
         offset="1" />
    </linearGradient>
    <linearGradient
       id="linearGradient7056-0">
      <stop
         id="stop7064-4"
         style="stop-color:#e6e6e6;stop-opacity:1"
         offset="0" />
      <stop
         id="stop7060-2"
         style="stop-color:#c8c8c8;stop-opacity:1"
         offset="1" />
    </linearGradient>
    <linearGradient
       id="linearGradient3484-2">
      <stop
         id="stop3486-2"
         style="stop-color:#969696;stop-opacity:1"
         offset="0" />
      <stop
         id="stop3488-0"
         style="stop-color:#b4b4b4;stop-opacity:1"
         offset="1" />
    </linearGradient>
    <linearGradient
       id="linearGradient6310-8">
      <stop
         id="stop6312-6"
         style="stop-color:#ffffff;stop-opacity:1"
         offset="0" />
      <stop
         id="stop6314-6"
         style="stop-color:#ffffff;stop-opacity:0"
         offset="1" />
    </linearGradient>
    <radialGradient
       cx="127.31733"
       cy="143.82751"
       r="78.728165"
       fx="127.31733"
       fy="143.82751"
       id="radialGradient8198"
       xlink:href="#linearGradient8105"
       gradientUnits="userSpaceOnUse"
       gradientTransform="matrix(4.179653e-2,-1.388393e-2,3.38688e-3,3.797545e-2,-0.5419061,-0.7959519)" />
    <radialGradient
       cx="24"
       cy="42"
       r="21"
       fx="24"
       fy="42"
       id="radialGradient8201"
       xlink:href="#linearGradient6310-8"
       gradientUnits="userSpaceOnUse"
       gradientTransform="matrix(0.3333333,0,0,0.1428571,6.5e-7,8.0000015)" />
    <radialGradient
       cx="142.62215"
       cy="191.85428"
       r="78.728165"
       fx="142.62215"
       fy="191.85428"
       id="radialGradient8208"
       xlink:href="#linearGradient4035"
       gradientUnits="userSpaceOnUse"
       gradientTransform="matrix(6.165082e-2,0,0,-6.53716e-2,-1.0370648,17.524179)" />
    <radialGradient
       cx="141.74666"
       cy="206.42612"
       r="78.728165"
       fx="141.74666"
       fy="206.42612"
       id="radialGradient8211"
       xlink:href="#linearGradient4035"
       gradientUnits="userSpaceOnUse"
       gradientTransform="matrix(0.1270894,-2.12891e-3,9.4059438e-4,0.1224932,-10.298148,-14.500064)" />
    <radialGradient
       cx="4.1993008"
       cy="2.3117516"
       r="7.9999995"
       fx="4.1993008"
       fy="2.3117516"
       id="radialGradient8215"
       xlink:href="#linearGradient7056-0"
       gradientUnits="userSpaceOnUse"
       gradientTransform="matrix(1.1767008,1.0376968,-0.7692774,0.8723254,1.0363585,-3.2771526)" />
    <linearGradient
       x1="4.6104097"
       y1="11.320717"
       x2="2.2246289"
       y2="6.8646717"
       id="linearGradient8217"
       xlink:href="#linearGradient3484-2"
       gradientUnits="userSpaceOnUse"
       gradientTransform="matrix(0.6451613,0,0,0.9797594,0.258064,-6.7257265)" />
    <linearGradient
       x1="12.277412"
       y1="37.205811"
       x2="12.221823"
       y2="33.758667"
       id="linearGradient8220"
       xlink:href="#linearGradient4236-0"
       gradientUnits="userSpaceOnUse"
       gradientTransform="matrix(0.5545779,0,0,0.3595505,-2.132306,1.7913054)" />
    <linearGradient
       x1="7.0625"
       y1="35.28125"
       x2="24.6875"
       y2="35.28125"
       id="linearGradient8223"
       xlink:href="#linearGradient6309"
       gradientUnits="userSpaceOnUse"
       gradientTransform="matrix(0.5545779,0,0,0.3595505,-1.6911436,1.3146057)" />
    <linearGradient
       x1="53.99139"
       y1="87.89592"
       x2="53.99139"
       y2="104.28131"
       id="linearGradient8226"
       xlink:href="#linearGradient2215-9"
       gradientUnits="userSpaceOnUse"
       gradientTransform="matrix(0.1242128,0,0,0.1863981,0.233129,-3.9907482)" />
  </defs>
  <path
     d="M 15.49723,12.5 C 15.193065,15.035038 15.27084,15.483925 14.720063,15.483925 C 14.504333,15.520095 6.021746,15.483925 1.249898,15.483925 C 0.651763,15.483925 0.802893,15.533245 0.5,12.5 C 5.3141597,12.639771 10.532192,12.129439 15.49723,12.5 z"
     id="rect2992"
     style="fill:url(#linearGradient8226);fill-opacity:1;fill-rule:nonzero;stroke:#353537;stroke-width:1;stroke-linecap:butt;stroke-linejoin:round;marker:none;stroke-miterlimit:4;stroke-dasharray:none;stroke-dashoffset:0;stroke-opacity:1;visibility:visible;display:inline;overflow:visible;enable-background:accumulate" />
  <path
     d="M 2,13 L 12,13 L 12,15 L 2.2255647,15 L 2,13 z"
     id="rect9146"
     style="fill:url(#linearGradient8223);fill-opacity:1;fill-rule:evenodd;stroke:none;stroke-width:2.40899992;marker:none;visibility:visible;display:inline;overflow:visible" />
  <path
     d="M 2.2255639,14.999999 C 2.2255639,14.999999 2.075188,13.557667 2.075188,13.557667 C 3.0931308,14.70076 6.8266143,14.999999 9.4004143,14.999999 C 9.4004143,14.999999 2.2255639,14.999999 2.2255639,14.999999 z"
     id="path9148"
     style="opacity:0.81142853;fill:url(#linearGradient8220);fill-opacity:1;fill-rule:evenodd;stroke:none" />
  <path
     d="M 1.4897093,1.4657632 L 0.514749,12.488885 C 0.505,12.488885 0.5,12.491788 0.5,12.499999 L 15.499999,12.499999 C 15.499999,12.491799 15.494999,12.488889 15.485249,12.488889 L 14.479867,1.2478485 C 14.479867,1.2478485 14.292121,0.50444715 13.570232,0.50444715 C 12.882084,0.50444715 3.0351967,0.50000015 2.3102217,0.50000015 C 1.5515417,0.50000015 1.4897093,1.4657634 1.4897093,1.4657634 L 1.4897093,1.4657632 z"
     id="rect2990"
     style="fill:url(#radialGradient8215);fill-opacity:1;fill-rule:nonzero;stroke:url(#linearGradient8217);stroke-width:0.99999988;stroke-linecap:round;stroke-linejoin:round;marker:none;stroke-miterlimit:4;stroke-dasharray:none;stroke-dashoffset:0;stroke-opacity:1;visibility:visible;display:inline;overflow:visible;enable-background:accumulate" />
  <path
     d="M 1.4762913,12.5 L 14.523709,12.5"
     id="path2215"
     style="opacity:0.7;fill:none;stroke:#ffffff;stroke-width:0.99999988;stroke-linecap:round;stroke-linejoin:round;stroke-miterlimit:4;stroke-dasharray:none;stroke-opacity:1;display:inline" />
  <path
     d="M 9.875,1.03125 C 9.5425325,1.03125 9.2896361,1.1933561 9.28125,1.4375 C 7.5462296,4.2547045 3.7159646,3.3310272 2.1875,6.6875 C 2.107281,7.5502069 2.3133647,8.6701052 3.09375,9.375 C 4.23596,10.40677 6.1379859,11.041207 8.15625,11 C 12.321615,10.914959 15.990924,8.1997572 12.8125,4.65625 C 12.794904,4.4114056 12.5625,1.4375 12.5625,1.4375 C 12.545264,1.1967161 12.267601,1.03125 11.9375,1.03125 L 9.875,1.03125 L 9.875,1.03125 z M 9.84375,1.46875 L 11.90625,1.46875 C 12.026154,1.46875 12.120255,1.495814 12.125,1.5625 L 11.6875,4.65625 C 15.160987,7.4613605 11.945518,9.7796633 8.25,9.90625 C 4.8918537,10.021279 2.9699492,8.847871 3.15625,6.84375 C 4.3344434,3.466723 8.863656,5.0817755 9.625,1.5625 C 9.6054609,1.4997867 9.7265155,1.46875 9.84375,1.46875 L 9.84375,1.46875 z"
     id="path8117"
     style="fill:url(#radialGradient8211);fill-opacity:1" />
  <path
     d="M 7.9999249,8.9999497 C 7.3338259,9.003979 6.6178906,8.7647964 6.2182574,8.2045172 C 5.8878761,7.7376942 5.9413392,7.042109 6.3494314,6.63805 C 6.8327879,6.1198432 7.5866528,5.9505056 8.2718727,6.0129013 C 8.8789744,6.0691126 9.5104356,6.3443475 9.8353698,6.8829643 C 10.086844,7.3170303 10.047208,7.9041627 9.7164741,8.2868807 C 9.3098043,8.7947936 8.6299115,8.9998014 7.9999249,8.9999497 z M 8.0334539,6.9404097 C 7.5676631,6.950996 7.0685483,6.9372219 6.6531228,7.1810992 C 6.3786983,7.3719617 6.3550571,7.7834456 6.5399472,8.0446579 C 6.791609,8.4367198 7.2662569,8.6084808 7.7086272,8.6682148 C 8.2791121,8.7399813 8.9061994,8.6113728 9.334753,8.2097584 C 9.5762055,7.9697526 9.6865747,7.5362831 9.4461096,7.2585712 C 9.2078802,7.0082999 8.8377224,6.985091 8.5141086,6.9541818 C 8.3541203,6.9436237 8.1937276,6.9420228 8.0334539,6.9404097 L 8.0334539,6.9404097 z"
     id="path9400"
     style="fill:url(#radialGradient8208);fill-opacity:1;fill-rule:nonzero;stroke-width:1;stroke-linecap:butt;stroke-linejoin:miter;marker:none;stroke-miterlimit:4;stroke-dasharray:none;stroke-dashoffset:0;stroke-opacity:1;visibility:visible;display:inline;overflow:visible;enable-background:accumulate" />
  <g
     transform="matrix(-4.685826e-2,0,0,7.750161e-2,4.3055193,-2.991086)"
     id="g9436">
    <path
       d="M 37.925296,187.15033 C 38.239756,190.60888 42.949046,193.42935 48.439486,193.42935 C 53.927426,193.42935 58.082686,190.60888 57.715826,187.15033 C 57.351456,183.71008 52.644656,180.93227 47.209126,180.93227 C 41.771096,180.93427 37.615836,183.71008 37.925296,187.15033 L 37.925296,187.15033 L 37.925296,187.15033 z"
       id="path9438"
       style="fill:#535353;fill-opacity:1" />
  </g>
  <g
     transform="matrix(-4.685826e-2,0,0,7.750161e-2,16.205519,-2.991086)"
     id="g9496">
    <path
       d="M 37.925296,187.15033 C 38.239756,190.60888 42.949046,193.42935 48.439486,193.42935 C 53.927426,193.42935 58.082686,190.60888 57.715826,187.15033 C 57.351456,183.71008 52.644656,180.93227 47.209126,180.93227 C 41.771096,180.93427 37.615836,183.71008 37.925296,187.15033 L 37.925296,187.15033 L 37.925296,187.15033 z"
       id="path9498"
       style="fill:#535353;fill-opacity:1" />
  </g>
  <rect
     width="14"
     height="2"
     x="1"
     y="13"
     id="rect6300-3"
     style="opacity:0.2;fill:url(#radialGradient8201);fill-opacity:1;stroke:none" />
  <path
     d="M 3.5490052,1.2794204 C 3.5821222,1.4638603 3.5033392,1.668064 3.4765882,1.8577602 C 3.3642225,2.4379547 3.248083,3.0174209 3.1387788,3.5982061 C 3.0364568,3.976483 3.4034434,3.822574 3.4487925,3.8610185 C 3.9285086,3.6778743 4.4037673,3.4775049 4.8813544,3.2862237 C 5.3796101,3.0823738 5.8809457,2.8849464 6.3772748,2.677079 C 6.6902572,2.4909307 6.7820665,2.323762 6.8635898,2.0428768 C 6.9084532,1.7990145 6.9138614,1.5262921 6.7919595,1.3034032 C 6.7139126,1.1493881 6.5435087,1.0841579 6.379809,1.1073783 C 5.5122614,1.1073783 4.6447137,1.1073783 3.7771661,1.1073783 L 3.5490052,1.2794204 z M 4.1379932,1.7233897 C 4.7301197,1.7233897 5.3222462,1.7233896 5.9143727,1.7233896 C 6.1014771,1.7939026 5.9689977,1.9428702 5.8310777,1.9559085 C 5.229708,2.1997992 4.6283387,2.4436898 4.0269694,2.6875804 C 3.8824333,2.7420385 3.8720481,2.5203138 3.9157358,2.4262942 C 3.9528148,2.2187757 3.9898928,2.0112572 4.0269717,1.8037387 C 4.0681887,1.7826137 4.0926307,1.7383757 4.1379932,1.7233897 L 4.1379932,1.7233897 z"
     id="path8125"
     style="fill:url(#radialGradient8198);fill-opacity:1;fill-rule:nonzero;stroke:none;stroke-width:1;marker:none;visibility:visible;display:inline;overflow:visible;enable-background:accumulate" />
  <path
     d="M 8.0000785,8.7392427 C 6.9028172,8.7392427 6.0616557,8.1883257 6.043922,7.4575897 C 6.0437843,7.4494117 6.0436473,7.4418857 6.0436473,7.4341967 C 6.0436473,7.1697717 6.1538979,6.9182947 6.3633963,6.7053657 C 6.717783,6.3454387 7.3296543,6.1306047 8.0002161,6.1306047 C 8.6706463,6.1306047 9.2825116,6.3454387 9.6368985,6.7053637 C 9.8525847,6.9242807 9.9631098,7.1844837 9.9563729,7.4574897 C 9.9383586,8.1882337 9.0972036,8.7392817 8.0000785,8.7392817 L 8.0000785,8.7392407 L 8.0000785,8.7392427 z M 8.0328566,6.9483537 C 7.0018504,6.9483537 6.4438385,7.0854037 6.4562134,7.5838757 C 6.4681677,8.0745787 7.1593552,8.4666477 8.0001053,8.4666477 C 8.8408553,8.4666477 9.5320388,8.0744387 9.5439957,7.5838757 C 9.5562304,7.0852727 9.0638608,6.9483537 8.0328566,6.9483537 L 8.0328566,6.9483537 L 8.0328566,6.9483537 z"
     id="path9156"
     style="fill:url(#radialGradient2621);fill-opacity:1;fill-rule:nonzero;stroke-width:1;stroke-linecap:butt;stroke-linejoin:miter;marker:none;stroke-miterlimit:4;stroke-dasharray:none;stroke-dashoffset:0;stroke-opacity:1;visibility:visible;display:inline;overflow:visible;enable-background:accumulate" />
  <path
     d="M 13.890374,8.9762937 C 13.890374,9.5999707 11.290198,10.105561 8.0827182,10.105561 C 4.8752388,10.105561 2.275063,9.5999707 2.275063,8.9762937 C 2.275063,8.3526177 4.8752388,7.8470287 8.0827182,7.8470287 C 11.290198,7.8470287 13.890374,8.3526177 13.890374,8.9762937 L 13.890374,8.9762937 z"
     id="path2638"
     style="opacity:0.16292138;fill:url(#radialGradient2609);fill-opacity:1;fill-rule:nonzero;stroke:none;stroke-width:1;stroke-linecap:butt;stroke-linejoin:miter;marker:none;marker-start:none;marker-mid:none;marker-end:none;stroke-miterlimit:4;stroke-dasharray:none;stroke-dashoffset:0;stroke-opacity:1;visibility:visible;display:inline;overflow:visible" />
  <path
     d="M 8.0595485,0.5877473 C 7.5956604,0.5877473 7.2225125,0.9599813 7.2225927,1.4194096 C 7.2225125,1.8788379 7.5956604,2.2510717 8.0595485,2.2510717 C 8.5234372,2.2510717 8.9031218,1.8788378 8.9030428,1.4194096 C 8.9031224,0.9599813 8.5234372,0.5877473 8.0595485,0.5877473 z M 5.5682968,1.4194096 C 5.1502263,1.4500218 4.7492922,1.5535987 4.3782499,1.7052935 L 5.1302028,2.9787767 C 5.3221264,2.9184857 5.5216197,2.8853797 5.7317649,2.8748187 C 5.7728998,2.8727607 5.8143494,2.8748187 5.8560003,2.8748187 C 7.0083323,2.8748187 7.9699704,3.6760727 8.2099387,4.7460587 L 9.7073053,4.7460587 C 9.6010467,3.9682427 9.2560921,3.2643577 8.7526526,2.7058877 C 8.5458901,2.8158897 8.3105411,2.8748187 8.0595485,2.8748187 C 7.2715009,2.8748187 6.6245766,2.2625267 6.5883369,1.4908806 C 6.3511664,1.4460017 6.1062173,1.4194096 5.8560003,1.4194096 C 5.8057479,1.4194096 5.7554017,1.4175321 5.7056101,1.4194096 C 5.6894022,1.4200209 5.6759959,1.4186029 5.6598387,1.4194096 C 5.6446168,1.4201706 5.6292513,1.418474 5.6140678,1.4194096 C 5.5993603,1.4203161 5.582966,1.4183347 5.5682968,1.4194096 z M 3.475907,2.2250827 C 2.8729463,2.6900337 2.4130749,3.3302057 2.1681632,4.0638357 C 2.5550231,4.3261147 2.8089576,4.7668067 2.8089576,5.2658477 C 2.8089576,5.7648877 2.5550231,6.2055807 2.1681632,6.4678597 C 2.4129936,7.2016677 2.8727362,7.8421217 3.475907,8.3066137 L 4.2213209,7.0266327 C 3.7418622,6.5895917 3.4432133,5.9614337 3.4432133,5.2658477 C 3.4432133,4.5705127 3.7424448,3.9431917 4.2213209,3.5050627 L 3.475907,2.2250827 z M 1.3442847,4.4341857 C 0.88039652,4.4341857 0.50071063,4.8064187 0.50079014,5.2658477 C 0.50071063,5.7252757 0.88039632,6.0975097 1.3442847,6.0975097 C 1.8081733,6.0975097 2.1813204,5.7252757 2.1812406,5.2658477 C 2.1813202,4.8064197 1.808173,4.4341857 1.3442847,4.4341857 z M 8.2099387,5.7856367 C 7.969971,6.8556227 7.0083323,7.6568767 5.8560003,7.6568767 C 5.6008884,7.6568767 5.3604769,7.6187267 5.1302028,7.5464217 L 4.3782499,8.8199047 C 4.8338965,9.0062017 5.3325476,9.1122857 5.8560003,9.1122857 C 6.1062173,9.1122867 6.3511667,9.0856937 6.5883369,9.0408147 C 6.6248712,8.3015547 7.2246066,7.7035917 7.9680061,7.6568767 C 7.9992013,7.6549217 8.0278576,7.6568767 8.0595485,7.6568767 C 8.3105411,7.6568767 8.5458901,7.7158057 8.7526526,7.8258077 C 9.2560928,7.2673387 9.6010467,6.5634527 9.7073053,5.7856367 L 8.2099387,5.7856367 z M 8.0595485,8.2806227 C 7.5956604,8.2806227 7.2225125,8.6528567 7.2225927,9.1122857 C 7.2225125,9.5717147 7.5956604,9.9439487 8.0595485,9.9439477 C 8.5234372,9.9439477 8.9031218,9.5717147 8.9030428,9.1122857 C 8.9031224,8.6528567 8.5234372,8.2806237 8.0595485,8.2806227 z"
     id="path2317"
     style="fill:url(#radialGradient2604);fill-opacity:1;fill-rule:nonzero;stroke:url(#radialGradient2606);stroke-width:1.0017873;stroke-linecap:butt;stroke-linejoin:miter;marker:none;marker-start:none;marker-mid:none;marker-end:none;stroke-miterlimit:4;stroke-dasharray:none;stroke-dashoffset:0;stroke-opacity:1;visibility:visible;display:inline;overflow:visible;enable-background:accumulate" />
  <path
     d="M 3.4397053,2.4733817 C 2.9337537,2.8903547 2.5426186,3.4404197 2.3196427,4.0679877 C 2.6844834,4.3444487 2.9242217,4.7761307 2.9242217,5.2655177 C 2.9242217,5.7549037 2.6844834,6.1865857 2.3196427,6.4630477 C 2.5425118,7.0907887 2.9336904,7.6410247 3.4397053,8.0576547 L 4.0633759,6.9861797 C 3.6133368,6.5470847 3.3315172,5.9394377 3.3315172,5.2655177 C 3.3315172,4.5915547 3.613724,3.9847267 4.0633759,3.5448557 L 3.4397053,2.4733817 L 3.4397053,2.4733817 z M 3.3887932,2.7822177 L 3.8088167,3.5133417 C 3.4063992,3.9569257 3.1509273,4.5348657 3.1278698,5.1709747 C 3.1025126,4.7084187 2.886121,4.2926617 2.5614744,3.9986567 C 2.7475214,3.5356507 3.0324079,3.1209427 3.3887932,2.7822177 L 3.3887932,2.7822177 z M 3.1278698,5.3600587 C 3.1508729,5.9961287 3.4057745,6.5743857 3.8088167,7.0176927 L 3.3887932,7.7488177 C 3.0326192,7.4102647 2.7473149,6.9954907 2.5614744,6.5323787 C 2.8863631,6.2383587 3.102447,5.8226757 3.1278698,5.3600587 L 3.1278698,5.3600587 z"
     id="path2272"
     style="opacity:0.6;fill:url(#radialGradient2601);fill-opacity:1;stroke:none;display:inline" />
  <path
     d="M 1.2622077,4.5912447 C 0.92268256,4.6291767 0.66042322,4.9179457 0.66042322,5.2655047 C 0.66042322,5.6387517 0.96435899,5.9397647 1.3412297,5.9397647 C 1.7181008,5.9397647 2.0220364,5.6387517 2.0220366,5.2655047 C 2.0220364,4.8922577 1.7181004,4.5912447 1.3412297,4.5912447 C 1.316253,4.5912447 1.2961939,4.5905127 1.2865223,4.5912447 C 1.2782886,4.5918617 1.2703561,4.5903397 1.2622077,4.5912447 L 1.2622077,4.5912447 z M 1.2804436,4.7838907 C 1.288174,4.7829467 1.2969221,4.7844877 1.3047581,4.7838907 C 1.3108534,4.7837917 1.323897,4.7838907 1.3412299,4.7838907 C 1.6128561,4.7838907 1.8275203,4.9964907 1.8275203,5.2655047 C 1.8275203,5.5345187 1.6128561,5.7471187 1.3412299,5.7471187 C 1.0696036,5.7471187 0.85493951,5.5345187 0.85493951,5.2655047 C 0.85493951,5.0166797 1.0407969,4.8134047 1.2804436,4.7838907 L 1.2804436,4.7838907 z"
     id="path2284"
     style="opacity:0.6;fill:url(#radialGradient2598);fill-opacity:1;stroke:none;display:inline" />
  <path
     d="M 7.963291,0.799582 C 7.6512344,0.834445 7.4101933,1.0998521 7.4101933,1.4192921 C 7.4101933,1.7623419 7.6895396,2.039002 8.0359198,2.039002 C 8.3823007,2.039002 8.661647,1.7623419 8.661647,1.4192921 C 8.661647,1.0762419 8.3823007,0.799582 8.0359198,0.799582 C 8.0129641,0.799582 7.9945279,0.7989093 7.9856389,0.799582 C 7.9780711,0.8001486 7.9707805,0.7987499 7.963291,0.799582 L 7.963291,0.799582 z M 7.9800517,0.9766419 C 7.9871571,0.9757744 7.9951971,0.9771907 8.002399,0.9766419 C 8.0080011,0.976551 8.0199893,0.9766419 8.0359205,0.9766419 C 8.2855709,0.9766419 8.4828685,1.1720415 8.4828685,1.4192921 C 8.4828685,1.666542 8.2855709,1.8619421 8.0359205,1.8619421 C 7.7862694,1.8619421 7.5889718,1.666542 7.5889718,1.4192921 C 7.5889718,1.1905981 7.7597932,1.0037681 7.9800517,0.9766419 L 7.9800517,0.9766419 z"
     id="path4951"
     style="opacity:0.6;fill:url(#radialGradient2595);fill-opacity:1;stroke:none;display:inline" />
  <path
     d="M 4.6328284,1.7968477 C 5.2357295,1.5804632 5.8944321,1.5257877 6.5355392,1.6498863 C 6.5889796,2.0913147 6.8355792,2.5050127 7.2495418,2.7470137 C 7.663503,2.9890137 8.147204,3.0022467 8.5614692,2.8342367 C 8.9822535,3.3307957 9.2542499,3.9296037 9.3564442,4.5582557 L 8.1417036,4.5493107 C 7.9928271,3.9563027 7.6181903,3.4204427 7.0481349,3.0871917 C 6.4780447,2.7539187 5.8251914,2.6895467 5.230762,2.8475857 L 4.6328284,1.7968477 L 4.6328284,1.7968477 z M 4.919243,1.9070442 L 5.3299842,2.6193917 C 5.9041964,2.5026387 6.5193943,2.5750557 7.0688674,2.8703517 C 6.6901397,2.6204407 6.4454644,2.2341167 6.3573087,1.8175831 C 5.8736627,1.7440166 5.381994,1.7768853 4.919243,1.9070442 L 4.919243,1.9070442 z M 7.2288093,2.9638537 C 7.7554713,3.2976007 8.1185582,3.7964437 8.2942389,4.3522837 L 9.1203823,4.3630137 C 9.010135,3.8981207 8.8003687,3.4547257 8.5005299,3.0705017 C 8.0911683,3.1964607 7.6326985,3.1713827 7.2288093,2.9638537 L 7.2288093,2.9638537 z"
     id="path4955"
     style="opacity:0.6;fill:url(#radialGradient2592);fill-opacity:1;stroke:none;display:inline" />
  <path
     d="M 15.331303,6.5 L 12.426267,9.7175357 L 9.4617786,6.5 L 11.261877,6.5 C 11.667078,5.421077 10.835024,4.6230557 9.870289,4.6230557 C 9.1847423,4.6230557 8.2546235,4.9977027 7.940435,5.9292177 C 7.7770209,6.4137167 7.48919,6.2014707 7.5003129,5.7803897 C 7.5433664,4.1555427 8.755695,2.8561067 10.565502,2.8561067 C 12.37531,2.8561067 13.719723,4.363468 13.618173,6.5 L 15.331303,6.5 z"
     id="path4972"
     style="fill:url(#linearGradient2589);fill-opacity:1;fill-rule:nonzero;stroke:#699536;stroke-width:0.99999946;stroke-linecap:butt;stroke-linejoin:miter;marker:none;marker-start:none;marker-mid:none;marker-end:none;stroke-miterlimit:4;stroke-dasharray:none;stroke-dashoffset:0;stroke-opacity:1;visibility:visible;display:inline;overflow:visible" />
  <path
     d="M 13.199028,7.5390051 L 12.436442,8.3361204 L 11.561636,7.4843741 L 12.069528,7.4468833 C 12.689624,6.0744533 11.707974,3.8433041 10.479305,3.8236321 C 9.5943866,3.7547291 8.2805935,4.8952437 7.7977307,5.4781637 C 8.1054443,4.0980277 9.1083557,3.7009303 10.621783,3.6980843 C 12.150814,3.6952093 12.915501,5.2086655 12.577476,7.5031195 L 13.199028,7.5390051 z"
     id="path4980"
     style="opacity:0.35400002;fill:none;fill-opacity:1;fill-rule:nonzero;stroke:url(#linearGradient2586);stroke-width:0.99999934;stroke-linecap:butt;stroke-linejoin:miter;marker:none;marker-start:none;marker-mid:none;marker-end:none;stroke-miterlimit:4;stroke-dasharray:none;stroke-dashoffset:0;stroke-opacity:1;visibility:visible;display:inline;overflow:visible;enable-background:accumulate" />
</svg>
