<?xml version="1.0" encoding="UTF-8" standalone="no"?>
<!-- Created with Inkscape (http://www.inkscape.org/) -->
<svg id="svg2" xmlns="http://www.w3.org/2000/svg" height="16" width="16" version="1.0" xmlns:xlink="http://www.w3.org/1999/xlink">
 <defs id="defs4">
  <linearGradient id="linearGradient2864" y2="40" gradientUnits="userSpaceOnUse" x2="24" gradientTransform="matrix(.36842 0 0 .33333 -.84211 .66667)" y1="13" x1="24">
   <stop id="stop6459" style="stop-color:#fff;stop-opacity:.94118" offset="0"/>
   <stop id="stop6461" style="stop-color:#fff;stop-opacity:.70588" offset="1"/>
  </linearGradient>
  <linearGradient id="linearGradient2867" y2="17.958" gradientUnits="userSpaceOnUse" x2="15.461" gradientTransform="matrix(.41934 0 0 .41378 -2.4835 -2.4307)" y1="8.2911" x1="15.461">
   <stop id="stop4224" style="stop-color:#fff" offset="0"/>
   <stop id="stop4226" style="stop-color:#fff;stop-opacity:0" offset="1"/>
  </linearGradient>
  <linearGradient id="linearGradient2870" y2="39.924" gradientUnits="userSpaceOnUse" x2="21.78" gradientTransform="matrix(.45454 0 0 .45901 -3.3634 -3.6309)" y1="8.5763" x1="21.866">
   <stop id="stop2783" style="stop-color:#505050" offset="0"/>
   <stop id="stop6301" style="stop-color:#6e6e6e" offset=".13216"/>
   <stop id="stop2785" style="stop-color:#8c8c8c" offset="1"/>
  </linearGradient>
  <radialGradient id="radialGradient6621" gradientUnits="userSpaceOnUse" cy="223.93" cx="307.66" gradientTransform="matrix(1.9522 -1.9522 1.4893 1.4893 -626.27 490.96)" r="2.2701">
   <stop id="stop3971" style="stop-color:#fff" offset="0"/>
   <stop id="stop3973" style="stop-color:#fff;stop-opacity:0" offset="1"/>
  </radialGradient>
  <linearGradient id="linearGradient6674" y2="229.86" gradientUnits="userSpaceOnUse" x2="315.01" y1="230.78" x1="314.09">
   <stop id="stop3952" style="stop-color:#eeeeec" offset="0"/>
   <stop id="stop3954" style="stop-color:#fff" offset="1"/>
  </linearGradient>
  <linearGradient id="linearGradient6676" y2="220.6" gradientUnits="userSpaceOnUse" x2="311" y1="234.12" x1="312.81">
   <stop id="stop3960" style="stop-color:#555753" offset="0"/>
   <stop id="stop3962" style="stop-color:#888a85" offset="1"/>
  </linearGradient>
  <linearGradient id="linearGradient6687" y2="1140" gradientUnits="userSpaceOnUse" x2="314.4" gradientTransform="translate(-.9375 -910.94)" y1="1137.9" x1="313">
   <stop id="stop7841" style="stop-color:#fff" offset="0"/>
   <stop id="stop7843" offset="1"/>
  </linearGradient>
  <mask id="mask6683">
   <rect id="rect6685" style="fill:url(#linearGradient6687)" height="16" width="16" y="213.06" x="299.06"/>
  </mask>
 </defs>
 <rect id="rect1887" style="stroke-linejoin:round;stroke:#565853;stroke-width:1.0003;fill:url(#linearGradient2870)" height="14" width="15" y=".50014" x=".50014"/>
 <rect id="rect2779" style="opacity:.2;stroke:url(#linearGradient2867);stroke-width:1.0004;fill:none" height="12" width="13" y="1.5002" x="1.5002"/>
 <rect id="rect6287" style="fill:url(#linearGradient2864)" height="9" width="14" y="5" x="1"/>
 <path id="path6293" style="fill:#ffc24c" d="m14 3.25c0 0.4142-0.336 0.75-0.75 0.75s-0.75-0.3358-0.75-0.75 0.336-0.75 0.75-0.75c0.41434 0 0.75018 0.33584 0.75 0.75z"/>
 <path id="path6302" style="fill:#ffc24c" d="m12 3.25c0 0.4142-0.336 0.75-0.75 0.75s-0.75-0.3358-0.75-0.75 0.336-0.75 0.75-0.75c0.41434 0 0.75018 0.33584 0.75 0.75z"/>
 <path id="path6304" style="fill:#ffc24c" d="m10 3.25c0 0.4142-0.3357 0.75-0.75 0.75s-0.7502-0.3358-0.75-0.75c-0.0002-0.4142 0.3357-0.75 0.75-0.75s0.75 0.3358 0.75 0.75z"/>
 <g id="g7817" style="enable-background:new" mask="url(#mask6683)" transform="translate(-298.06 -212.99)">
  <path id="path3935" style="stroke-linejoin:round;stroke-width:0.9;fill-rule:evenodd;stroke-dashoffset:.3612;stroke:url(#linearGradient6676);stroke-linecap:round;enable-background:new;fill:url(#linearGradient6674)" d="m306.75 219.5c-0.37511 0.0471-0.77839 0.25308-1.1875 0.65625l1.7188 1.6875c0.3584 0.36046 0.34912 0.93023 0 1.2812l-0.125 0.125c-0.34912 0.35106-0.92283 0.36044-1.2812 0l-1.6875-1.6875c-1.1566 1.1398-0.64599 2.0684 0.125 2.8438l0.46875 0.46875c0.73274 0.7369 1.867 0.81164 2.6875 0.21875l5.4375 5.4375 1.625-1.625-5.4375-5.4375c0.59284-0.82529 0.54644-1.9806-0.1875-2.7188l-0.46875-0.5c-0.48639-0.48917-1.0623-0.82854-1.6875-0.75v0.00005z"/>
  <path id="path3967" style="stroke-width:1px;stroke:url(#radialGradient6621);enable-background:new;fill:none" d="m305.22 224c1.7483 1.5234 4.4891-1.0013 2.724-2.9244"/>
 </g>
</svg>
