<?xml version="1.0" encoding="UTF-8" standalone="no"?>
<!-- Created with Inkscape (http://www.inkscape.org/) -->
<svg
   xmlns:svg="http://www.w3.org/2000/svg"
   xmlns="http://www.w3.org/2000/svg"
   xmlns:xlink="http://www.w3.org/1999/xlink"
   version="1.0"
   width="16"
   height="16"
   id="svg2472">
  <defs
     id="defs2474">
    <linearGradient
       id="linearGradient2490">
      <stop
         id="stop2492"
         style="stop-color:#791235;stop-opacity:1"
         offset="0" />
      <stop
         id="stop2494"
         style="stop-color:#dd3b27;stop-opacity:1"
         offset="1" />
    </linearGradient>
    <linearGradient
       x1="-23.916132"
       y1="43.707703"
       x2="-23.916132"
       y2="4.6497173"
       id="linearGradient2464"
       xlink:href="#linearGradient2490"
       gradientUnits="userSpaceOnUse"
       gradientTransform="matrix(0.3333333,0,0,0.3421053,17.139072,-0.2617456)" />
    <linearGradient
       id="linearGradient3242">
      <stop
         id="stop3244"
         style="stop-color:#f8b17e;stop-opacity:1"
         offset="0" />
      <stop
         id="stop3246"
         style="stop-color:#e35d4f;stop-opacity:1"
         offset="0.26238" />
      <stop
         id="stop3248"
         style="stop-color:#c6262e;stop-opacity:1"
         offset="0.66093999" />
      <stop
         id="stop3250"
         style="stop-color:#690b54;stop-opacity:1"
         offset="1" />
    </linearGradient>
    <radialGradient
       cx="32.806725"
       cy="3.5327499"
       r="23"
       fx="32.806725"
       fy="3.5327499"
       id="radialGradient2462"
       xlink:href="#linearGradient3242"
       gradientUnits="userSpaceOnUse"
       gradientTransform="matrix(0,0.5801491,-0.5919239,0,10.091119,-16.999376)" />
    <linearGradient
       id="linearGradient3230">
      <stop
         id="stop3232"
         style="stop-color:#ffffff;stop-opacity:1"
         offset="0" />
      <stop
         id="stop3234"
         style="stop-color:#ffffff;stop-opacity:0"
         offset="1" />
    </linearGradient>
    <linearGradient
       x1="26.153599"
       y1="6.90412"
       x2="26.153599"
       y2="42.100079"
       id="linearGradient2468"
       xlink:href="#linearGradient3230"
       gradientUnits="userSpaceOnUse"
       gradientTransform="matrix(0.3333333,0,0,0.3421053,8.36e-7,-0.3815783)" />
    <linearGradient
       id="linearGradient3202">
      <stop
         id="stop3204"
         style="stop-color:#ffffff;stop-opacity:1"
         offset="0" />
      <stop
         id="stop3206"
         style="stop-color:#d3eefc;stop-opacity:1"
         offset="1" />
    </linearGradient>
    <linearGradient
       x1="22.885227"
       y1="17.628952"
       x2="22.885227"
       y2="30.889549"
       id="linearGradient2440"
       xlink:href="#linearGradient3202"
       gradientUnits="userSpaceOnUse"
       gradientTransform="matrix(0.3615242,0,0,0.3394391,0.2776984,-0.862051)" />
  </defs>
  <g
     id="layer1">
    <path
       d="M 0.50000094,10.141998 C 0.50000094,10.141998 3.3718698,4.6294859 7.4862981,2.4337561 C 9.8844264,1.1539574 13.748297,0.82555815 15.476709,3.8333078 C 15.476709,3.8333078 16.058957,11.735773 11.400974,13.960417 C 11.400974,13.960417 6.5812565,16.616707 0.50000094,10.141998 z"
       id="path2421"
       style="fill:url(#radialGradient2462);fill-opacity:1;fill-rule:evenodd;stroke:url(#linearGradient2464);stroke-width:0.9999997px;stroke-linecap:butt;stroke-linejoin:miter;stroke-opacity:1" />
    <path
       d="M 10.6875,2.5 C 9.7149617,2.5750758 8.714197,2.8980036 7.9375,3.3125 C 4.7088791,5.0355059 2.3573492,8.9603618 1.78125,9.96875 C 4.4315641,12.567579 6.7210601,13.380479 8.3125,13.5 C 9.9202328,13.620746 10.729924,13.185321 10.84375,13.125 C 10.883103,13.09983 10.925002,13.07888 10.96875,13.0625 C 12.878116,12.15059 13.809424,9.9801552 14.21875,7.875 C 14.58524,5.99015 14.520333,4.4987789 14.5,4.15625 C 13.617451,2.7983106 12.240846,2.3800883 10.6875,2.5 z"
       id="path2466"
       style="opacity:0.4;fill:none;fill-opacity:1;fill-rule:evenodd;stroke:url(#linearGradient2468);stroke-width:0.9999997px;stroke-linecap:butt;stroke-linejoin:miter;stroke-opacity:1" />
    <path
       d="M 5,9.9999989 C 5.4261538,9.9999989 6.312713,9.9999989 6.7388669,9.9999989 C 6.7458321,9.0391282 6.7098316,8.0776495 6.7388669,7.1172281 C 6.7388669,6.6049261 6.6631843,6 7.25,6 C 7.9232354,6 8,6.4932211 8,7.152955 C 8,7.7558961 8,9.3970589 8,10 C 8.4261535,10 9.5738469,10 10,10 C 10.004999,9.0551048 9.9795461,8.1098585 10,7.1652193 C 10.003108,6.71087 9.8294152,6 10.561738,6 C 11.220574,6 11.259595,6.5920408 11.259595,7.1728446 C 11.259595,7.7691551 11.259595,9.4036884 11.259595,10 C 11.685749,10 12.572633,10 12.998788,10 C 12.99384,8.9457586 13.009109,7.891149 12.990339,6.8371604 C 12.963608,6.1998976 12.725027,5.495793 12.090308,5.1730071 C 11.727191,5.0505747 11.623365,5.0042145 11.170454,5.0042145 C 10.237724,5.0042145 6.6180657,5 5,5 C 5,6.6666667 5,8.3333333 5,9.9999989 z"
       id="text3190"
       style="font-size:26.70637703px;font-style:normal;font-variant:normal;font-weight:bold;font-stretch:normal;text-align:start;line-height:125%;writing-mode:lr-tb;text-anchor:start;fill:url(#linearGradient2440);fill-opacity:1;stroke:none;stroke-width:1px;stroke-linecap:butt;stroke-linejoin:miter;stroke-opacity:1;font-family:URW Gothic L;-inkscape-font-specification:URW Gothic L Book" />
  </g>
</svg>
