<?xml version="1.0" encoding="UTF-8" standalone="no"?>
<!-- Created with Inkscape (http://www.inkscape.org/) -->
<svg
   xmlns:svg="http://www.w3.org/2000/svg"
   xmlns="http://www.w3.org/2000/svg"
   xmlns:xlink="http://www.w3.org/1999/xlink"
   version="1.0"
   width="32"
   height="32"
   id="svg2430">
  <defs
     id="defs2432">
    <linearGradient
       id="linearGradient8838">
      <stop
         id="stop8840"
         style="stop-color:#000000;stop-opacity:1"
         offset="0" />
      <stop
         id="stop8842"
         style="stop-color:#000000;stop-opacity:0"
         offset="1" />
    </linearGradient>
    <radialGradient
       cx="62.625"
       cy="4.625"
       r="10.625"
       fx="62.625"
       fy="4.625"
       id="radialGradient2420"
       xlink:href="#linearGradient8838"
       gradientUnits="userSpaceOnUse"
       gradientTransform="matrix(1.4912559,0,0,0.5817148,-77.389898,23.128838)" />
    <linearGradient
       id="linearGradient2490">
      <stop
         id="stop2492"
         style="stop-color:#791235;stop-opacity:1"
         offset="0" />
      <stop
         id="stop2494"
         style="stop-color:#dd3b27;stop-opacity:1"
         offset="1" />
    </linearGradient>
    <linearGradient
       x1="-23.916132"
       y1="43.707703"
       x2="-23.916132"
       y2="4.6497173"
       id="linearGradient2417"
       xlink:href="#linearGradient2490"
       gradientUnits="userSpaceOnUse"
       gradientTransform="matrix(0.6888954,0,0,0.6842105,34.887596,-2.3490672e-2)" />
    <linearGradient
       id="linearGradient3242">
      <stop
         id="stop3244"
         style="stop-color:#f8b17e;stop-opacity:1"
         offset="0" />
      <stop
         id="stop3246"
         style="stop-color:#e35d4f;stop-opacity:1"
         offset="0.26238" />
      <stop
         id="stop3248"
         style="stop-color:#c6262e;stop-opacity:1"
         offset="0.66093999" />
      <stop
         id="stop3250"
         style="stop-color:#690b54;stop-opacity:1"
         offset="1" />
    </linearGradient>
    <radialGradient
       cx="32.806725"
       cy="3.5327499"
       r="23"
       fx="32.806725"
       fy="3.5327499"
       id="radialGradient2415"
       xlink:href="#linearGradient3242"
       gradientUnits="userSpaceOnUse"
       gradientTransform="matrix(0,1.1602982,-1.223321,0,20.321687,-33.498749)" />
    <linearGradient
       id="linearGradient3202">
      <stop
         id="stop3204"
         style="stop-color:#ffffff;stop-opacity:1"
         offset="0" />
      <stop
         id="stop3206"
         style="stop-color:#d3eefc;stop-opacity:1"
         offset="1" />
    </linearGradient>
    <linearGradient
       x1="22.885227"
       y1="17.628952"
       x2="22.885227"
       y2="30.889549"
       id="linearGradient2411"
       xlink:href="#linearGradient3202"
       gradientUnits="userSpaceOnUse"
       gradientTransform="matrix(0.7230483,0,0,0.6788783,1.5553968,-0.7241041)" />
    <linearGradient
       id="linearGradient3230">
      <stop
         id="stop3232"
         style="stop-color:#ffffff;stop-opacity:1"
         offset="0" />
      <stop
         id="stop3234"
         style="stop-color:#ffffff;stop-opacity:0"
         offset="1" />
    </linearGradient>
    <linearGradient
       x1="26.153599"
       y1="4.9999995"
       x2="26.153599"
       y2="44.233311"
       id="linearGradient2424"
       xlink:href="#linearGradient3230"
       gradientUnits="userSpaceOnUse"
       gradientTransform="matrix(0.6888954,0,0,0.6842105,-0.5334897,-0.2631573)" />
  </defs>
  <g
     id="layer1">
    <path
       d="M 31.844599,25.819272 C 31.844599,29.232794 24.750732,32 16.000005,32 C 7.2492778,32 0.15541038,29.232794 0.15541038,25.819272 C 0.15541038,22.40575 7.2492778,19.638544 16.000005,19.638544 C 24.750732,19.638544 31.844599,22.40575 31.844599,25.819272 L 31.844599,25.819272 z"
       id="path8836"
       style="opacity:0.4;fill:url(#radialGradient2420);fill-opacity:1;fill-rule:evenodd;stroke:none;stroke-width:0.99999988;stroke-linecap:butt;stroke-linejoin:round;marker:none;marker-start:none;marker-mid:none;marker-end:none;stroke-miterlimit:4;stroke-dasharray:none;stroke-dashoffset:0;stroke-opacity:1;visibility:visible;display:inline;overflow:visible" />
    <path
       d="M 0.49985381,20.783997 C 0.49985381,20.783997 6.4351061,9.7589725 14.938339,5.3675126 C 19.894518,2.8079146 27.879927,2.1511173 31.452013,8.1666156 C 31.452013,8.1666156 32.655337,23.971545 23.028747,28.420831 C 23.028747,28.420831 13.067902,33.733413 0.49985381,20.783997 z"
       id="path2421"
       style="fill:url(#radialGradient2415);fill-opacity:1;fill-rule:evenodd;stroke:url(#linearGradient2417);stroke-width:0.99999982px;stroke-linecap:butt;stroke-linejoin:miter;stroke-opacity:1" />
    <path
       d="M 11,20 C 11.852307,20 13.625425,20 14.477734,20 C 14.491664,18.078257 14.419663,16.155301 14.477734,14.234457 C 14.477734,13.209853 14.623414,12.293713 15.797046,12.293713 C 17.143517,12.293713 17.250519,12.98644 17.250519,14.305908 C 17.250519,15.511791 17.250519,18.794117 17.250519,20 C 18.102826,20 19.885347,20 20.737654,20 C 20.747651,18.11021 20.696747,16.219718 20.737654,14.330439 C 20.74387,13.421739 20.658831,12.293713 22.123477,12.293713 C 23.441147,12.293713 23.51919,13.184081 23.51919,14.345689 C 23.51919,15.53831 23.519189,18.807377 23.51919,20 C 24.371496,20 26.145267,20 26.997575,20 C 26.987681,17.891519 27.018219,15.782299 26.980677,13.67432 C 26.927215,12.399795 26.450054,10.991587 25.180616,10.346015 C 24.454382,10.10115 24.246731,10.008428 23.340908,10.008428 C 21.475446,10.008428 14.236131,10 11,10 C 11,13.333333 11,16.666668 11,20 z"
       id="path2438"
       style="font-size:26.70637703px;font-style:normal;font-variant:normal;font-weight:bold;font-stretch:normal;text-align:start;line-height:125%;writing-mode:lr-tb;text-anchor:start;fill:#a1ceef;fill-opacity:1;stroke:none;stroke-width:1px;stroke-linecap:butt;stroke-linejoin:miter;stroke-opacity:1;font-family:URW Gothic L;-inkscape-font-specification:URW Gothic L Book" />
    <path
       d="M 11,20.999999 C 11.852307,20.999999 13.625425,20.999999 14.477734,20.999999 C 14.491664,19.078256 14.419663,17.1553 14.477734,15.234456 C 14.477734,14.209852 14.623414,13.293713 15.797046,13.293713 C 17.143517,13.293713 17.250519,13.986439 17.250519,15.305908 C 17.250519,16.51179 17.250519,19.794116 17.250519,20.999999 C 18.102826,20.999999 19.885347,21 20.737654,21 C 20.747651,19.11021 20.696747,17.219718 20.737654,15.330439 C 20.74387,14.421738 20.658831,13.293713 22.123477,13.293713 C 23.441147,13.293713 23.51919,14.18408 23.51919,15.345689 C 23.51919,16.53831 23.519189,19.807377 23.51919,21 C 24.371496,21 26.145267,21 26.997575,21 C 26.987681,18.891519 27.018219,16.782298 26.980677,14.674319 C 26.927215,13.399795 26.450054,11.991586 25.180616,11.346015 C 24.454382,11.10115 24.246731,11.008428 23.340908,11.008428 C 21.475446,11.008428 14.236131,11 11,11 C 11,14.333332 11,17.666666 11,20.999999 z"
       id="text3190"
       style="font-size:26.70637703px;font-style:normal;font-variant:normal;font-weight:bold;font-stretch:normal;text-align:start;line-height:125%;writing-mode:lr-tb;text-anchor:start;fill:url(#linearGradient2411);fill-opacity:1;stroke:none;stroke-width:1px;stroke-linecap:butt;stroke-linejoin:miter;stroke-opacity:1;font-family:URW Gothic L;-inkscape-font-specification:URW Gothic L Book" />
    <path
       d="M 21.46875,4.5 C 19.292968,4.6625413 17.14597,5.3202783 15.40625,6.21875 C 7.9802314,10.053887 2.601496,19.130957 1.75,20.625 C 7.6644941,26.496976 12.860449,28.230936 16.5625,28.5 C 20.385989,28.77789 22.5625,27.5625 22.5625,27.5625 C 22.592924,27.544311 22.624495,27.531392 22.625,27.53125 C 22.625574,27.531089 22.66922,27.532556 22.6875,27.53125 C 22.695925,27.527284 22.710343,27.535235 22.71875,27.53125 C 27.060324,25.473063 29.034986,20.773807 29.90625,16.4375 C 30.748612,12.245043 30.51979,8.7263464 30.5,8.4375 C 28.45741,5.206721 25.016622,4.2349568 21.46875,4.5 z"
       id="path2422"
       style="opacity:0.4;fill:none;fill-opacity:1;fill-rule:evenodd;stroke:url(#linearGradient2424);stroke-width:0.99999982px;stroke-linecap:butt;stroke-linejoin:miter;stroke-opacity:1" />
  </g>
</svg>
