<?xml version="1.0" encoding="UTF-8" standalone="no"?>
<!-- Created with Inkscape (http://www.inkscape.org/) -->

<svg
   xmlns:dc="http://purl.org/dc/elements/1.1/"
   xmlns:cc="http://creativecommons.org/ns#"
   xmlns:rdf="http://www.w3.org/1999/02/22-rdf-syntax-ns#"
   xmlns:svg="http://www.w3.org/2000/svg"
   xmlns="http://www.w3.org/2000/svg"
   xmlns:xlink="http://www.w3.org/1999/xlink"
   xmlns:sodipodi="http://sodipodi.sourceforge.net/DTD/sodipodi-0.dtd"
   xmlns:inkscape="http://www.inkscape.org/namespaces/inkscape"
   width="32px"
   height="32px"
   id="svg4003"
   version="1.1"
   inkscape:version="0.47 r22583"
   sodipodi:docname="gnome-pdf.svg">
  <defs
     id="defs4005">
    <linearGradient
       inkscape:collect="always"
       xlink:href="#linearGradient3308-4-6-931-761"
       id="linearGradient2991"
       gradientUnits="userSpaceOnUse"
       gradientTransform="matrix(0.6216218,0,0,0.6216218,1.0810807,2.0810698)"
       x1="23.99999"
       y1="4.999989"
       x2="23.99999"
       y2="43" />
    <linearGradient
       id="linearGradient3308-4-6-931-761">
      <stop
         id="stop2919"
         style="stop-color:#ffffff;stop-opacity:1"
         offset="0" />
      <stop
         id="stop2921"
         style="stop-color:#ffffff;stop-opacity:0"
         offset="1" />
    </linearGradient>
    <linearGradient
       inkscape:collect="always"
       xlink:href="#linearGradient4246"
       id="linearGradient3762"
       gradientUnits="userSpaceOnUse"
       gradientTransform="matrix(0.63157895,0,0,0.63062024,0.8421052,1.8468981)"
       x1="23.969797"
       y1="3.9810441"
       x2="23.969797"
       y2="44.024017" />
    <linearGradient
       id="linearGradient4246">
      <stop
         id="stop4248"
         style="stop-color:#ffffff;stop-opacity:1"
         offset="0" />
      <stop
         id="stop4250"
         style="stop-color:#dcdcdc;stop-opacity:1"
         offset="1" />
    </linearGradient>
    <radialGradient
       inkscape:collect="always"
       xlink:href="#linearGradient3242"
       id="radialGradient2965-2"
       gradientUnits="userSpaceOnUse"
       gradientTransform="matrix(0,1.4742091,-1.9732085,-6.2205771e-8,32.673223,-6.176784)"
       cx="7.4956832"
       cy="8.4497671"
       fx="7.4956832"
       fy="8.4497671"
       r="19.99999" />
    <linearGradient
       id="linearGradient3242">
      <stop
         id="stop3244"
         style="stop-color:#f89b7e;stop-opacity:1"
         offset="0" />
      <stop
         id="stop3246"
         style="stop-color:#e35d4f;stop-opacity:1"
         offset="0.26238" />
      <stop
         id="stop3248"
         style="stop-color:#c6262e;stop-opacity:1"
         offset="0.66093999" />
      <stop
         id="stop3250"
         style="stop-color:#690b2c;stop-opacity:1"
         offset="1" />
    </linearGradient>
    <linearGradient
       inkscape:collect="always"
       xlink:href="#linearGradient2490"
       id="linearGradient2967-9"
       gradientUnits="userSpaceOnUse"
       gradientTransform="matrix(0.64102567,0,0,0.64102567,0.6153831,1.6153839)"
       x1="24"
       y1="44"
       x2="24"
       y2="3.8990016" />
    <linearGradient
       id="linearGradient2490">
      <stop
         id="stop2492"
         style="stop-color:#791235;stop-opacity:1"
         offset="0" />
      <stop
         id="stop2494"
         style="stop-color:#dd3b27;stop-opacity:1"
         offset="1" />
    </linearGradient>
    <radialGradient
       inkscape:collect="always"
       xlink:href="#linearGradient3688-166-749"
       id="radialGradient2976"
       gradientUnits="userSpaceOnUse"
       gradientTransform="matrix(2.003784,0,0,1.4,27.98813,-17.4)"
       cx="4.9929786"
       cy="43.5"
       fx="4.9929786"
       fy="43.5"
       r="2.5" />
    <linearGradient
       id="linearGradient3688-166-749">
      <stop
         id="stop2883"
         style="stop-color:#181818;stop-opacity:1"
         offset="0" />
      <stop
         id="stop2885"
         style="stop-color:#181818;stop-opacity:0"
         offset="1" />
    </linearGradient>
    <radialGradient
       inkscape:collect="always"
       xlink:href="#linearGradient3688-464-309"
       id="radialGradient2978"
       gradientUnits="userSpaceOnUse"
       gradientTransform="matrix(2.003784,0,0,1.4,-20.01187,-104.4)"
       cx="4.9929786"
       cy="43.5"
       fx="4.9929786"
       fy="43.5"
       r="2.5" />
    <linearGradient
       id="linearGradient3688-464-309">
      <stop
         id="stop2889"
         style="stop-color:#181818;stop-opacity:1"
         offset="0" />
      <stop
         id="stop2891"
         style="stop-color:#181818;stop-opacity:0"
         offset="1" />
    </linearGradient>
    <linearGradient
       inkscape:collect="always"
       xlink:href="#linearGradient3702-501-757"
       id="linearGradient2980"
       gradientUnits="userSpaceOnUse"
       x1="25.058096"
       y1="47.027729"
       x2="25.058096"
       y2="39.999443" />
    <linearGradient
       id="linearGradient3702-501-757">
      <stop
         id="stop2895"
         style="stop-color:#181818;stop-opacity:0"
         offset="0" />
      <stop
         id="stop2897"
         style="stop-color:#181818;stop-opacity:1"
         offset="0.5" />
      <stop
         id="stop2899"
         style="stop-color:#181818;stop-opacity:0"
         offset="1" />
    </linearGradient>
    <linearGradient
       id="linearGradient3924">
      <stop
         id="stop3926"
         style="stop-color:#ffffff;stop-opacity:1;"
         offset="0" />
      <stop
         offset="0.06316455"
         style="stop-color:#ffffff;stop-opacity:0.23529412;"
         id="stop3928" />
      <stop
         id="stop3930"
         style="stop-color:#ffffff;stop-opacity:0.15686275;"
         offset="0.95056331" />
      <stop
         id="stop3932"
         style="stop-color:#ffffff;stop-opacity:0.39215687;"
         offset="1" />
    </linearGradient>
    <linearGradient
       y2="43"
       x2="23.99999"
       y1="4.999989"
       x1="23.99999"
       gradientTransform="matrix(0.62162164,0,0,0.62162164,1.0810837,2.0810873)"
       gradientUnits="userSpaceOnUse"
       id="linearGradient3141"
       xlink:href="#linearGradient3924"
       inkscape:collect="always" />
  </defs>
  <sodipodi:namedview
     id="base"
     pagecolor="#ffffff"
     bordercolor="#666666"
     borderopacity="1.0"
     inkscape:pageopacity="0.0"
     inkscape:pageshadow="2"
     inkscape:zoom="11.197802"
     inkscape:cx="2.7384689"
     inkscape:cy="16"
     inkscape:current-layer="layer1"
     showgrid="true"
     inkscape:grid-bbox="true"
     inkscape:document-units="px"
     inkscape:window-width="1280"
     inkscape:window-height="753"
     inkscape:window-x="0"
     inkscape:window-y="24"
     inkscape:window-maximized="1" />
  <metadata
     id="metadata4008">
    <rdf:RDF>
      <cc:Work
         rdf:about="">
        <dc:format>image/svg+xml</dc:format>
        <dc:type
           rdf:resource="http://purl.org/dc/dcmitype/StillImage" />
        <dc:title />
      </cc:Work>
    </rdf:RDF>
  </metadata>
  <g
     id="layer1"
     inkscape:label="Layer 1"
     inkscape:groupmode="layer">
    <g
       style="display:inline"
       id="g2036"
       transform="matrix(0.6999997,0,0,0.3333336,-0.8000003,15.33333)">
      <g
         style="opacity:0.4"
         id="g3712"
         transform="matrix(1.052632,0,0,1.285713,-1.263158,-13.42854)">
        <rect
           style="fill:url(#radialGradient2976);fill-opacity:1;stroke:none"
           id="rect2801"
           y="40"
           x="38"
           height="7"
           width="5" />
        <rect
           style="fill:url(#radialGradient2978);fill-opacity:1;stroke:none"
           id="rect3696"
           transform="scale(-1,-1)"
           y="-47"
           x="-10"
           height="7"
           width="5" />
        <rect
           style="fill:url(#linearGradient2980);fill-opacity:1;stroke:none"
           id="rect3700"
           y="40"
           x="10"
           height="7.0000005"
           width="28" />
      </g>
    </g>
    <rect
       style="color:#000000;fill:url(#radialGradient2965-2);fill-opacity:1;fill-rule:nonzero;stroke:url(#linearGradient2967-9);stroke-width:1;stroke-linecap:round;stroke-linejoin:round;stroke-miterlimit:4;stroke-opacity:1;stroke-dasharray:none;stroke-dashoffset:0;marker:none;visibility:visible;display:inline;overflow:visible;enable-background:accumulate"
       id="rect5505"
       y="4.5"
       x="3.5"
       ry="2"
       rx="2"
       height="25"
       width="25" />
    <path
       style="opacity:0.1;fill:#000000;fill-opacity:1;fill-rule:evenodd;stroke:none"
       d="M 18.40625,7 C 10.22589,14.019194 5.554391,15.015747 4,15.125 l 0,2.53125 C 5.1732539,17.492432 8.109207,16.904692 11.25,14.9375 15.277359,12.415019 20.09375,7.625 20.09375,7.625 18.851755,10.061247 18.472305,18.224449 18.40625,29 L 26.5,29 c 0.383726,0 0.735278,-0.139622 1,-0.375 C 26.216303,25.495175 25.337602,21.416971 24.65625,17.71875 24.000984,12.746284 24.953764,8.4006933 25.3125,7 L 18.40625,7 z M 4,19.21875 l 0,2.8125 c 2.9260981,0 7.224416,3.019931 9.96875,6.96875 l 2.375,0 C 13.600832,24.666389 6.2352078,19.21875 4,19.21875 z"
       id="path6711-7-5" />
    <path
       style="opacity:0.2;fill:#000000;fill-opacity:1;fill-rule:evenodd;stroke:none"
       d="M 18.40625,6 C 10.22589,13.019194 5.554391,14.015747 4,14.125 l 0,2.53125 C 5.1732539,16.492432 8.109207,15.904692 11.25,13.9375 15.277359,11.415019 20.09375,6.625 20.09375,6.625 18.811883,9.139459 18.420628,17.70072 18.375,29 l 8.125,0 c 0.545344,0 1.018731,-0.285811 1.28125,-0.71875 -1.438929,-3.199159 -2.394682,-7.598506 -3.125,-11.5625 C 24.000984,11.746284 24.953764,7.4006933 25.3125,6 L 18.40625,6 z M 4,18.21875 l 0,2.8125 c 3.1694113,0 7.919643,3.54096 10.59375,7.96875 L 16.875,29 C 14.767105,24.557133 6.4112491,18.21875 4,18.21875 z"
       id="path6711-7" />
    <path
       style="fill:url(#linearGradient3762);fill-opacity:1;fill-rule:evenodd;stroke:none"
       id="path6711"
       d="m 18.407895,5 c -8.18036,7.019194 -12.8535041,8.009983 -14.4078951,8.119236 l 0,2.522481 C 5.1732538,15.477899 8.122365,14.909066 11.263158,12.941874 15.290517,10.419393 20.105263,5.6306196 20.105263,5.6306196 18.784783,8.2208197 18.40025,17.152582 18.374737,28.963569 l 8.441052,0 C 27.476681,28.963569 28,28.441044 28,27.781156 26.435137,24.553695 25.412485,19.8877 24.644737,15.720544 23.989471,10.748078 24.957053,6.4006933 25.315789,5 l -6.907894,0 z m -14.4078951,12.230019 0,2.793792 c 3.3961087,0 8.6170911,4.075253 11.1427761,8.939758 l 2.121459,0 C 16.077479,24.541259 6.5909572,17.230019 3.9999999,17.230019 z" />
    <path
       style="opacity:0.1;fill:#000000;fill-opacity:1;fill-rule:evenodd;stroke:none"
       d="M 25.690789,5.0364308 C 22.475479,6.9952436 11.948105,12.96555 3.9999999,12.209736 l 0,5.399686 c 0,0 17.6735071,2.638325 24.0000001,-2.581602 L 28,6.2976713 C 28,5.598944 27.436632,5.0364308 26.736842,5.0364308 l -1.046053,0 z"
       id="path6713" />
    <path
       style="opacity:0.1;fill:#000000;fill-opacity:1;fill-rule:evenodd;stroke:none"
       d="M 28,17.294112 C 24.819343,20.462001 21.550388,24.666651 19.375,29 l 2.546053,0 C 23.68193,26.025274 25.977556,22.757961 28,20.742816 l 0,-3.448704 z"
       id="path6715" />
    <rect
       style="opacity:0.5;fill:none;stroke:url(#linearGradient3141);stroke-width:1;stroke-linecap:round;stroke-linejoin:round;stroke-miterlimit:4;stroke-opacity:1;stroke-dasharray:none;stroke-dashoffset:0"
       id="rect6741-7"
       y="5.5"
       x="4.5"
       ry="1"
       rx="1"
       height="23"
       width="23" />
  </g>
</svg>
