<?xml version="1.0" encoding="UTF-8" standalone="no"?>
<!-- Created with Inkscape (http://www.inkscape.org/) -->

<svg
   xmlns:svg="http://www.w3.org/2000/svg"
   xmlns="http://www.w3.org/2000/svg"
   xmlns:xlink="http://www.w3.org/1999/xlink"
   version="1.1"
   width="48"
   height="48"
   id="svg3134">
  <defs
     id="defs3136">
    <linearGradient
       id="linearGradient4009">
      <stop
         id="stop4011"
         style="stop-color:#555753;stop-opacity:1"
         offset="0" />
      <stop
         id="stop4013"
         style="stop-color:#555753;stop-opacity:1"
         offset="1" />
    </linearGradient>
    <linearGradient
       id="linearGradient3702">
      <stop
         id="stop3704"
         style="stop-color:black;stop-opacity:0"
         offset="0" />
      <stop
         id="stop3710"
         style="stop-color:black;stop-opacity:1"
         offset="0.5" />
      <stop
         id="stop3706"
         style="stop-color:black;stop-opacity:0"
         offset="1" />
    </linearGradient>
    <linearGradient
       x1="25.058096"
       y1="47.027729"
       x2="25.058096"
       y2="39.999443"
       id="linearGradient2098"
       xlink:href="#linearGradient3702"
       gradientUnits="userSpaceOnUse" />
    <radialGradient
       cx="4.9929786"
       cy="43.5"
       r="2.5"
       fx="4.9929786"
       fy="43.5"
       id="radialGradient2096"
       xlink:href="#linearGradient3688"
       gradientUnits="userSpaceOnUse"
       gradientTransform="matrix(2.003784,0,0,1.4,-20.01187,-104.4)" />
    <linearGradient
       id="linearGradient3688">
      <stop
         id="stop3690"
         style="stop-color:black;stop-opacity:1"
         offset="0" />
      <stop
         id="stop3692"
         style="stop-color:black;stop-opacity:0"
         offset="1" />
    </linearGradient>
    <radialGradient
       cx="4.9929786"
       cy="43.5"
       r="2.5"
       fx="4.9929786"
       fy="43.5"
       id="radialGradient2094"
       xlink:href="#linearGradient3688"
       gradientUnits="userSpaceOnUse"
       gradientTransform="matrix(2.003784,0,0,1.4,27.98813,-17.4)" />
    <linearGradient
       x1="9.117774"
       y1="18.345161"
       x2="8.4885712"
       y2="34.608616"
       id="linearGradient1992"
       xlink:href="#linearGradient4585"
       gradientUnits="userSpaceOnUse" />
    <linearGradient
       x1="11.511479"
       y1="0.75951481"
       x2="31.5"
       y2="36.625"
       id="linearGradient1990"
       xlink:href="#linearGradient6732"
       gradientUnits="userSpaceOnUse"
       gradientTransform="matrix(0.858045,0,0,0.8,-0.932219,9.3)" />
    <linearGradient
       id="linearGradient6732">
      <stop
         id="stop6734"
         style="stop-color:white;stop-opacity:1"
         offset="0" />
      <stop
         id="stop6736"
         style="stop-color:#ddd;stop-opacity:1"
         offset="1" />
    </linearGradient>
    <linearGradient
       id="linearGradient4585">
      <stop
         id="stop4587"
         style="stop-color:#9e9e9e;stop-opacity:1"
         offset="0" />
      <stop
         id="stop4589"
         style="stop-color:#ddd;stop-opacity:0"
         offset="1" />
    </linearGradient>
    <linearGradient
       id="linearGradient7381">
      <stop
         id="stop7383"
         style="stop-color:#babdb6;stop-opacity:1"
         offset="0" />
      <stop
         id="stop7385"
         style="stop-color:white;stop-opacity:1"
         offset="1" />
    </linearGradient>
    <linearGradient
       id="linearGradient7421">
      <stop
         id="stop7423"
         style="stop-color:white;stop-opacity:1"
         offset="0" />
      <stop
         id="stop7425"
         style="stop-color:white;stop-opacity:0"
         offset="1" />
    </linearGradient>
    <linearGradient
       id="linearGradient4956">
      <stop
         id="stop4958"
         style="stop-color:#f8b17e;stop-opacity:1"
         offset="0" />
      <stop
         id="stop4960"
         style="stop-color:#e35d4f;stop-opacity:1"
         offset="0.26238" />
      <stop
         id="stop4962"
         style="stop-color:#c6262e;stop-opacity:1"
         offset="0.66347069" />
      <stop
         id="stop4964"
         style="stop-color:#690b54;stop-opacity:1"
         offset="1" />
    </linearGradient>
    <linearGradient
       id="linearGradient2490">
      <stop
         id="stop2492"
         style="stop-color:#791235;stop-opacity:1"
         offset="0" />
      <stop
         id="stop2494"
         style="stop-color:#dd3b27;stop-opacity:1"
         offset="1" />
    </linearGradient>
    <linearGradient
       x1="324.49731"
       y1="70.282364"
       x2="330.06076"
       y2="99.273735"
       id="linearGradient3997"
       xlink:href="#linearGradient4009"
       gradientUnits="userSpaceOnUse"
       gradientTransform="matrix(0.68165548,0,0,0.67983648,-202.20676,-33.645403)" />
    <linearGradient
       x1="302.29202"
       y1="58.442768"
       x2="308.64914"
       y2="60.767513"
       id="linearGradient3999"
       xlink:href="#linearGradient7381"
       gradientUnits="userSpaceOnUse"
       gradientTransform="matrix(0.65224844,0,0,0.64593501,-193.17196,-31.62899)" />
    <linearGradient
       x1="326.60196"
       y1="75.575363"
       x2="317.16116"
       y2="88.006248"
       id="linearGradient4001"
       xlink:href="#linearGradient7421"
       gradientUnits="userSpaceOnUse"
       gradientTransform="matrix(0.68165548,0,0,0.67983648,-202.20676,-33.645403)" />
    <linearGradient
       x1="97.442131"
       y1="35.152435"
       x2="90.220802"
       y2="35.079365"
       id="linearGradient4003"
       xlink:href="#linearGradient4956"
       gradientUnits="userSpaceOnUse"
       gradientTransform="matrix(0.41145984,-0.41048258,0.35988341,0.35902856,-36.314166,40.996254)" />
    <linearGradient
       x1="29.278061"
       y1="34.022705"
       x2="36.000526"
       y2="27.272705"
       id="linearGradient4005"
       xlink:href="#linearGradient2490"
       gradientUnits="userSpaceOnUse"
       gradientTransform="matrix(0.5001074,0,0,0.49925786,-0.25506937,0.28339425)" />
    <linearGradient
       x1="-6.3077531"
       y1="44.228992"
       x2="-9.7747231"
       y2="44.140411"
       id="linearGradient4007"
       xlink:href="#linearGradient3688"
       gradientUnits="userSpaceOnUse"
       gradientTransform="matrix(0.25027915,-0.24945445,0.4246779,0.42329684,-0.31068729,-4.2147469)" />
    <radialGradient
       cx="21.96048"
       cy="34.498356"
       r="12.727922"
       fx="21.96048"
       fy="34.498356"
       id="radialGradient2930"
       xlink:href="#linearGradient3688"
       gradientUnits="userSpaceOnUse"
       gradientTransform="matrix(0.30891544,0,0,0.11992108,35.256943,40.42836)" />
    <linearGradient
       x1="9.117774"
       y1="18.345161"
       x2="8.4885712"
       y2="34.608616"
       id="linearGradient2944"
       xlink:href="#linearGradient4585"
       gradientUnits="userSpaceOnUse"
       gradientTransform="matrix(1.102491,0,0,1.030637,1.4303085,-9.345578)" />
    <linearGradient
       x1="11.511479"
       y1="0.75951481"
       x2="31.5"
       y2="36.625"
       id="linearGradient2963"
       xlink:href="#linearGradient6732"
       gradientUnits="userSpaceOnUse"
       gradientTransform="matrix(0.93233,0,0,0.832,0.8270675,0.012004)" />
  </defs>
  <g
     transform="matrix(1,0,0,0.555556,-1.000002,7.88887)"
     id="g2043">
    <g
       id="g2036"
       style="display:inline">
      <g
         transform="matrix(1.052632,0,0,1.285713,-1.263158,-13.42854)"
         id="g3712"
         style="opacity:0.4">
        <rect
           width="5"
           height="7"
           x="38"
           y="40"
           id="rect2801"
           style="fill:url(#radialGradient2094);fill-opacity:1;stroke:none" />
        <rect
           width="5"
           height="7"
           x="-10"
           y="-47"
           transform="scale(-1,-1)"
           id="rect3696"
           style="fill:url(#radialGradient2096);fill-opacity:1;stroke:none" />
        <rect
           width="28"
           height="7.0000005"
           x="10"
           y="40"
           id="rect3700"
           style="fill:url(#linearGradient2098);fill-opacity:1;stroke:none" />
      </g>
    </g>
  </g>
  <g
     transform="translate(2.9999985,-8)"
     id="g1962"
     style="display:inline">
    <rect
       width="34.000015"
       height="24"
       rx="2.7500012"
       ry="2.7499983"
       x="2.5000017"
       y="16.499996"
       id="rect5857"
       style="fill:url(#linearGradient1990);fill-opacity:1;fill-rule:evenodd;stroke:#939393;stroke-width:0.99999994;stroke-linecap:butt;stroke-linejoin:miter;stroke-miterlimit:4;stroke-opacity:1;stroke-dasharray:none;stroke-dashoffset:0;marker:none;visibility:visible;display:inline;overflow:visible" />
    <path
       d="m 18.395099,22.588796 c 0,0.294138 -0.06929,0.519713 -0.207851,0.676725 -0.138572,0.155966 -0.327526,0.233949 -0.566874,0.233949 -0.09763,0 -0.191057,-0.01832 -0.280291,-0.05495 l 0,-0.417654 c 0.07874,0.05967 0.165868,0.0895 0.261393,0.0895 0.117576,0 0.205753,-0.04344 0.264545,-0.130321 0.05983,-0.08793 0.08975,-0.219293 0.08975,-0.394102 l 0,-1.392703 0.439328,0 0,1.389563 m 1.226649,-0.803906 c 0.24564,2e-6 0.441423,0.07537 0.587344,0.226098 0.145913,0.150734 0.218869,0.353281 0.218869,0.60764 0,0.276344 -0.07821,0.491974 -0.234622,0.646893 -0.156414,0.153873 -0.366362,0.230809 -0.629851,0.230809 -0.242502,0 -0.439851,-0.07589 -0.592071,-0.227669 -0.151163,-0.151778 -0.226749,-0.350661 -0.226749,-0.596648 0,-0.276342 0.07926,-0.49302 0.237775,-0.650033 0.158512,-0.158058 0.371613,-0.237088 0.639305,-0.23709 m -0.03622,1.373863 c 0.128071,0 0.231992,-0.04553 0.31178,-0.136602 0.08083,-0.09211 0.121247,-0.2172 0.121247,-0.37526 0,-0.160152 -0.03989,-0.286286 -0.119674,-0.378401 -0.07979,-0.09316 -0.182137,-0.139741 -0.307054,-0.139742 -0.123876,10e-7 -0.228854,0.04867 -0.314933,0.146022 -0.08608,0.0963 -0.12912,0.223483 -0.12912,0.381541 0,0.155967 0.04199,0.278961 0.125974,0.36898 0.08503,0.08898 0.188952,0.133462 0.31178,0.133462 m 2.675322,0.292043 -0.422011,0 0,-0.880842 c 0,-0.147591 -0.02257,-0.254359 -0.06771,-0.320306 -0.04515,-0.06699 -0.122304,-0.100487 -0.231476,-0.100488 -0.09553,1e-6 -0.174788,0.03611 -0.237767,0.108339 -0.06299,0.07223 -0.09448,0.164341 -0.09448,0.276342 l 0,0.916955 -0.426728,0 0,-2.380314 0.426728,0 0,0.997031 c 0.05774,-0.09421 0.129643,-0.164862 0.215731,-0.211967 0.08713,-0.0471 0.188428,-0.07065 0.3039,-0.07066 0.177409,2e-6 0.310731,0.05496 0.399964,0.164864 0.08923,0.10991 0.133838,0.274774 0.133848,0.49459 l 0,1.006452 m 1.93366,0 -0.42201,0 0,-0.880842 c 0,-0.147591 -0.02257,-0.254359 -0.06771,-0.320306 -0.04514,-0.06699 -0.12229,-0.100487 -0.23147,-0.100488 -0.09553,10e-7 -0.17478,0.03611 -0.23777,0.108339 -0.06299,0.07223 -0.09448,0.164341 -0.09448,0.276342 l 0,0.916955 -0.42673,0 0,-1.607811 0.42673,0 0,0.224528 c 0.05774,-0.09421 0.12965,-0.164862 0.21573,-0.211967 0.08712,-0.0471 0.18842,-0.07065 0.3039,-0.07066 0.17741,2e-6 0.31073,0.05496 0.39996,0.164864 0.08923,0.10991 0.13385,0.274774 0.13385,0.49459 l 0,1.006452 m 1.38096,-2.251563 0.79047,0 c 0.38211,2e-6 0.6687,0.09159 0.85976,0.274772 0.1921,0.183183 0.28815,0.457432 0.28815,0.822747 0,0.352756 -0.10812,0.633285 -0.32437,0.841589 -0.21521,0.208303 -0.50704,0.312455 -0.87551,0.312455 l -0.7385,0 0,-2.251563 m 0.43932,1.904565 0.28974,0 c 0.23724,0 0.42358,-0.07066 0.559,-0.211967 0.13647,-0.141311 0.20469,-0.334437 0.2047,-0.579378 -10e-6,-0.237611 -0.06614,-0.422362 -0.1984,-0.554255 -0.13228,-0.131889 -0.31651,-0.197835 -0.5527,-0.197836 l -0.30234,0 0,1.543436 m 2.62651,-1.318908 c 0.24564,2e-6 0.44142,0.07537 0.58734,0.226098 0.14591,0.150734 0.21888,0.353281 0.21888,0.60764 0,0.276344 -0.07821,0.491974 -0.23462,0.646893 -0.15642,0.153873 -0.36637,0.230809 -0.62986,0.230809 -0.2425,0 -0.43985,-0.07589 -0.59207,-0.227669 -0.15117,-0.151778 -0.22675,-0.350661 -0.22675,-0.596648 0,-0.276342 0.07926,-0.49302 0.23777,-0.650033 0.15851,-0.158058 0.37162,-0.237088 0.63931,-0.23709 m -0.03622,1.373863 c 0.12807,0 0.232,-0.04553 0.31178,-0.136602 0.08083,-0.09211 0.12125,-0.2172 0.12125,-0.37526 0,-0.160152 -0.0399,-0.286286 -0.11968,-0.378401 -0.07978,-0.09316 -0.18213,-0.139741 -0.30705,-0.139742 -0.12388,1e-6 -0.22885,0.04867 -0.31493,0.146022 -0.08608,0.0963 -0.12912,0.223483 -0.12912,0.381541 0,0.155967 0.04199,0.278961 0.12597,0.36898 0.08503,0.08898 0.18896,0.133462 0.31178,0.133462 m 2.58242,-0.419225 -1.07391,0 c 0,0.131892 0.04041,0.234473 0.12125,0.307745 0.08188,0.07223 0.19525,0.10834 0.34012,0.108339 0.15956,1e-6 0.31336,-0.04763 0.46137,-0.142882 l 0,0.348569 c -0.16586,0.08583 -0.35167,0.128751 -0.55742,0.128751 -0.2488,0 -0.44352,-0.07275 -0.58419,-0.218249 -0.13962,-0.145498 -0.20944,-0.34438 -0.20944,-0.596648 0,-0.272155 0.07454,-0.488832 0.22361,-0.650034 0.15011,-0.162244 0.34747,-0.243367 0.59206,-0.243369 0.2152,2e-6 0.38316,0.06699 0.50389,0.200976 0.12177,0.132939 0.18266,0.318737 0.18266,0.557396 l 0,0.199406 m -0.39367,-0.282623 c 0,-0.112002 -0.02834,-0.199405 -0.08503,-0.262211 -0.05563,-0.0628 -0.13489,-0.09421 -0.23777,-0.09421 -0.09342,2e-6 -0.17426,0.03245 -0.24249,0.09735 -0.06824,0.06385 -0.10655,0.15021 -0.11495,0.259071 l 0.68024,0"
       id="text6970"
       style="font-size:4.12102222px;font-style:normal;font-variant:normal;font-weight:bold;font-stretch:normal;text-align:start;line-height:120.00000477%;writing-mode:lr-tb;text-anchor:start;fill:black;fill-opacity:1;stroke:none;font-family:Segoe" />
    <rect
       width="15"
       height="2"
       rx="1"
       ry="1"
       x="17"
       y="25"
       id="rect6978"
       style="opacity:0.3976608;fill:#8d8d8d;fill-opacity:1;fill-rule:evenodd;stroke:none;stroke-width:1;marker:none;visibility:visible;display:inline;overflow:visible" />
    <rect
       width="10.955575"
       height="2"
       rx="1"
       ry="1"
       x="17.089211"
       y="28"
       id="rect6980"
       style="opacity:0.3976608;fill:#8d8d8d;fill-opacity:1;fill-rule:evenodd;stroke:none;stroke-width:1;marker:none;visibility:visible;display:inline;overflow:visible" />
    <g
       transform="matrix(0.782541,0,0,0.650248,0.39068,14.55146)"
       id="g7033"
       style="opacity:0.48538011">
      <rect
         width="1"
         height="6"
         rx="0"
         ry="0"
         x="6"
         y="30"
         id="rect7003"
         style="fill:black;fill-opacity:1;fill-rule:evenodd;stroke:none;stroke-width:1;marker:none;visibility:visible;display:inline;overflow:visible" />
      <rect
         width="1.9375"
         height="2.9851687"
         rx="0"
         ry="0"
         x="8.0846453"
         y="30"
         id="rect7005"
         style="fill:black;fill-opacity:1;fill-rule:evenodd;stroke:none;stroke-width:1;marker:none;visibility:visible;display:inline;overflow:visible" />
      <rect
         width="1"
         height="2.9851687"
         x="11"
         y="30"
         id="rect7007"
         style="fill:black;fill-opacity:1;fill-rule:evenodd;stroke:none;stroke-width:1;marker:none;visibility:visible;display:inline;overflow:visible" />
      <rect
         width="2"
         height="2.9851687"
         x="13"
         y="30"
         id="rect7009"
         style="fill:black;fill-opacity:1;fill-rule:evenodd;stroke:none;stroke-width:1;marker:none;visibility:visible;display:inline;overflow:visible" />
      <rect
         width="1"
         height="2.9851687"
         x="16"
         y="30"
         id="rect7011"
         style="fill:black;fill-opacity:1;fill-rule:evenodd;stroke:none;stroke-width:1;marker:none;visibility:visible;display:inline;overflow:visible" />
      <rect
         width="1"
         height="2.9851687"
         x="18"
         y="30"
         id="rect7013"
         style="fill:black;fill-opacity:1;fill-rule:evenodd;stroke:none;stroke-width:1;marker:none;visibility:visible;display:inline;overflow:visible" />
      <rect
         width="1"
         height="2.9851687"
         x="21"
         y="30"
         id="rect7015"
         style="fill:black;fill-opacity:1;fill-rule:evenodd;stroke:none;stroke-width:1;marker:none;visibility:visible;display:inline;overflow:visible" />
      <rect
         width="2"
         height="2.9851687"
         x="23"
         y="30"
         id="rect7017"
         style="fill:black;fill-opacity:1;fill-rule:evenodd;stroke:none;stroke-width:1;marker:none;visibility:visible;display:inline;overflow:visible" />
      <rect
         width="2"
         height="2.9851687"
         x="26"
         y="30"
         id="rect7019"
         style="fill:black;fill-opacity:1;fill-rule:evenodd;stroke:none;stroke-width:1;marker:none;visibility:visible;display:inline;overflow:visible" />
      <rect
         width="1"
         height="2.9851687"
         x="29"
         y="30"
         id="rect7021"
         style="fill:black;fill-opacity:1;fill-rule:evenodd;stroke:none;stroke-width:1;marker:none;visibility:visible;display:inline;overflow:visible" />
      <rect
         width="1"
         height="2.9851687"
         x="31"
         y="30"
         id="rect7023"
         style="fill:black;fill-opacity:1;fill-rule:evenodd;stroke:none;stroke-width:1;marker:none;visibility:visible;display:inline;overflow:visible" />
      <rect
         width="1"
         height="2.9851687"
         x="33"
         y="30"
         id="rect7025"
         style="fill:black;fill-opacity:1;fill-rule:evenodd;stroke:none;stroke-width:1;marker:none;visibility:visible;display:inline;overflow:visible" />
      <rect
         width="2"
         height="2.9851687"
         x="35"
         y="30"
         id="rect7027"
         style="fill:black;fill-opacity:1;fill-rule:evenodd;stroke:none;stroke-width:1;marker:none;visibility:visible;display:inline;overflow:visible" />
      <rect
         width="2"
         height="2.9851687"
         x="39"
         y="30"
         id="rect7029"
         style="fill:black;fill-opacity:1;fill-rule:evenodd;stroke:none;stroke-width:1;marker:none;visibility:visible;display:inline;overflow:visible" />
      <rect
         width="1"
         height="6"
         x="42"
         y="30"
         id="rect7031"
         style="fill:black;fill-opacity:1;fill-rule:evenodd;stroke:none;stroke-width:1;marker:none;visibility:visible;display:inline;overflow:visible" />
    </g>
    <path
       d="m 7.4730264,37.137227 c 0.058659,0.01251 0.104375,0.03852 0.13714,0.07805 0.033172,0.03953 0.049762,0.08834 0.049762,0.14643 0,0.08915 -0.030746,0.158128 -0.092238,0.206938 -0.061492,0.04881 -0.148871,0.07322 -0.262144,0.07322 -0.038031,0 -0.077276,-0.0038 -0.117725,-0.0115 -0.040051,-0.0073 -0.081517,-0.01835 -0.124401,-0.03328 l 0,-0.117991 c 0.033986,0.01977 0.071204,0.03469 0.111653,0.04478 0.040458,0.01009 0.082731,0.01513 0.126827,0.01513 0.076869,0 0.135325,-0.01513 0.175375,-0.04538 0.04045,-0.03025 0.060678,-0.07422 0.060678,-0.131908 0,-0.05325 -0.018812,-0.0948 -0.056429,-0.124647 -0.037225,-0.03025 -0.089209,-0.04538 -0.155952,-0.04538 l -0.105589,0 0,-0.100444 0.11044,0 c 0.06028,10e-7 0.106395,-0.0119 0.138354,-0.0357 0.031959,-0.0242 0.047938,-0.05889 0.047938,-0.104074 0,-0.04639 -0.016582,-0.08189 -0.049754,-0.106494 -0.032773,-0.02501 -0.079905,-0.03752 -0.141389,-0.03752 -0.033579,0 -0.069584,0.0036 -0.108015,0.01089 -0.038438,0.0073 -0.080711,0.01856 -0.126826,0.03388 l 0,-0.108914 c 0.046522,-0.01291 0.090008,-0.02259 0.130465,-0.02904 0.040857,-0.0065 0.079287,-0.0097 0.115292,-0.0097 0.093052,2e-6 0.166674,0.02118 0.220888,0.06353 0.054207,0.04195 0.081314,0.09883 0.081314,0.170633 0,0.05002 -0.014368,0.09238 -0.043087,0.127066 -0.028719,0.03429 -0.069583,0.05809 -0.122577,0.0714 m 0.525507,0.384227 0.427808,0 0,0.102863 -0.57527,0 0,-0.102863 c 0.04653,-0.048 0.109838,-0.112343 0.189939,-0.193021 0.080508,-0.08108 0.131075,-0.13332 0.151703,-0.156716 0.039245,-0.04397 0.066548,-0.08108 0.081924,-0.111335 0.015776,-0.03066 0.023665,-0.06071 0.023665,-0.09016 0,-0.048 -0.016989,-0.08713 -0.050975,-0.117386 -0.033579,-0.03025 -0.077472,-0.04538 -0.131678,-0.04538 -0.038431,0 -0.079092,0.0067 -0.121967,0.01997 -0.042484,0.01331 -0.087989,0.03348 -0.136538,0.06051 l 0,-0.123437 c 0.049355,-0.01976 0.09547,-0.03469 0.138353,-0.04478 0.042883,-0.01008 0.082128,-0.01513 0.117726,-0.01513 0.09385,2e-6 0.168692,0.0234 0.224526,0.07019 0.055827,0.04679 0.08374,0.109319 0.08374,0.187575 0,0.03711 -0.00708,0.07241 -0.021238,0.10589 -0.013757,0.03308 -0.039041,0.07221 -0.075852,0.117385 -0.010118,0.0117 -0.04228,0.04558 -0.096487,0.101654 -0.054207,0.05567 -0.130669,0.133723 -0.229379,0.234167 m 1.022492,-0.694029 -0.309479,0.48225 0.309479,0 0,-0.48225 m -0.032162,-0.106494 0.154137,0 0,0.588744 0.129252,0 0,0.101654 -0.129252,0 0,0.212988 -0.121975,0 0,-0.212988 -0.408995,0 0,-0.117991 0.376833,-0.572407 m 0.487891,0 0.4812083,0 0,0.102864 -0.3689533,0 0,0.22146 c 0.017803,-0.0061 0.035606,-0.01049 0.053401,-0.01331 0.017803,-0.0032 0.035605,-0.0048 0.0534,-0.0048 0.101136,10e-7 0.181237,0.02763 0.2403033,0.0829 0.059066,0.05527 0.088599,0.130093 0.088599,0.224486 0,0.09722 -0.030347,0.172851 -0.091025,0.226905 -0.060686,0.05365 -0.1462413,0.08048 -0.2566893,0.08048 -0.038024,0 -0.076861,-0.0032 -0.116505,-0.0097 -0.039244,-0.0065 -0.079897,-0.01614 -0.121974,-0.02905 l 0,-0.122831 c 0.036411,0.01977 0.074036,0.03449 0.112873,0.04417 0.03883,0.0097 0.079898,0.01452 0.12318,0.01452 0.069991,0 0.12541,-0.01835 0.166274,-0.05506 0.040857,-0.03671 0.061289,-0.08653 0.061289,-0.149455 0,-0.06293 -0.020432,-0.112747 -0.061289,-0.149455 -0.040864,-0.03671 -0.096283,-0.05506 -0.166274,-0.05506 -0.032765,0 -0.065538,0.0036 -0.098303,0.01089 -0.032366,0.0073 -0.065537,0.01856 -0.099515,0.03388 l 0,-0.453811 m 1.4478736,0.08047 c -0.06311,10e-7 -0.110644,0.03106 -0.142603,0.09318 -0.03156,0.06172 -0.04734,0.154699 -0.04734,0.278942 0,0.12384 0.01578,0.216821 0.04734,0.278942 0.03196,0.06172 0.07949,0.09258 0.142603,0.09258 0.06351,0 0.11105,-0.03086 0.142602,-0.09258 0.03196,-0.06212 0.04794,-0.155102 0.04794,-0.278942 0,-0.124243 -0.01598,-0.217224 -0.04794,-0.278942 -0.03155,-0.06212 -0.07909,-0.09318 -0.142602,-0.09318 m 0,-0.09681 c 0.101542,2e-6 0.179014,0.04014 0.232414,0.120412 0.0538,0.07987 0.0807,0.196047 0.0807,0.348527 0,0.152077 -0.0269,0.268253 -0.0807,0.348527 -0.0534,0.07987 -0.130872,0.119806 -0.232414,0.119806 -0.101543,0 -0.179218,-0.03993 -0.233017,-0.119806 -0.0534,-0.08027 -0.0801,-0.19645 -0.0801,-0.348527 0,-0.15248 0.0267,-0.268656 0.0801,-0.348527 0.0538,-0.08027 0.131474,-0.12041 0.233017,-0.120412 m 0.530359,0.01634 0.481208,0 0,0.102864 -0.368945,0 0,0.22146 c 0.0178,-0.0061 0.0356,-0.01049 0.0534,-0.01331 0.0178,-0.0032 0.0356,-0.0048 0.0534,-0.0048 0.101135,1e-6 0.181236,0.02763 0.240302,0.0829 0.05906,0.05527 0.08859,0.130093 0.08859,0.224486 0,0.09722 -0.03034,0.172851 -0.09102,0.226905 -0.06069,0.05365 -0.14625,0.08048 -0.25669,0.08048 -0.03802,0 -0.07686,-0.0032 -0.116512,-0.0097 -0.03924,-0.0065 -0.0799,-0.01614 -0.121967,-0.02905 l 0,-0.122831 c 0.03641,0.01977 0.07403,0.03449 0.112866,0.04417 0.03884,0.0097 0.0799,0.01452 0.123188,0.01452 0.06998,0 0.12541,-0.01835 0.166266,-0.05506 0.04086,-0.03671 0.06129,-0.08653 0.06129,-0.149455 0,-0.06293 -0.02043,-0.112747 -0.06129,-0.149455 -0.04086,-0.03671 -0.09628,-0.05506 -0.166266,-0.05506 -0.03277,0 -0.06554,0.0036 -0.0983,0.01089 -0.03237,0.0073 -0.06554,0.01856 -0.09952,0.03388 l 0,-0.453811 m 0.791298,0 0.481208,0 0,0.102864 -0.368945,0 0,0.22146 c 0.01779,-0.0061 0.0356,-0.01049 0.0534,-0.01331 0.01779,-0.0032 0.0356,-0.0048 0.0534,-0.0048 0.101136,1e-6 0.181237,0.02763 0.240295,0.0829 0.05907,0.05527 0.0886,0.130093 0.0886,0.224486 0,0.09722 -0.03034,0.172851 -0.09103,0.226905 -0.06068,0.05365 -0.146241,0.08048 -0.256681,0.08048 -0.03803,0 -0.07687,-0.0032 -0.116512,-0.0097 -0.03924,-0.0065 -0.0799,-0.01614 -0.121967,-0.02905 l 0,-0.122831 c 0.0364,0.01977 0.07403,0.03449 0.112866,0.04417 0.03884,0.0097 0.0799,0.01452 0.123187,0.01452 0.06998,0 0.125402,-0.01835 0.166267,-0.05506 0.04086,-0.03671 0.06129,-0.08653 0.06129,-0.149455 0,-0.06293 -0.02043,-0.112747 -0.06129,-0.149455 -0.04087,-0.03671 -0.09628,-0.05506 -0.166267,-0.05506 -0.03277,0 -0.06554,0.0036 -0.09831,0.01089 -0.03237,0.0073 -0.06554,0.01856 -0.09952,0.03388 l 0,-0.453811 m 0.759135,0 0.582547,0 0,0.05204 -0.328902,0.851349 -0.128039,0 0.309479,-0.800522 -0.435085,0 0,-0.102864 m 1.219105,0 0.481208,0 0,0.102864 -0.368952,0 0,0.22146 c 0.0178,-0.0061 0.03561,-0.01049 0.0534,-0.01331 0.0178,-0.0032 0.03561,-0.0048 0.0534,-0.0048 0.101136,10e-7 0.181236,0.02763 0.240303,0.0829 0.05907,0.05527 0.0886,0.130093 0.0886,0.224486 0,0.09722 -0.03035,0.172851 -0.09103,0.226905 -0.06069,0.05365 -0.146249,0.08048 -0.256689,0.08048 -0.03802,0 -0.07686,-0.0032 -0.116505,-0.0097 -0.03924,-0.0065 -0.0799,-0.01614 -0.121975,-0.02905 l 0,-0.122831 c 0.03641,0.01977 0.07404,0.03449 0.112874,0.04417 0.03883,0.0097 0.0799,0.01452 0.12318,0.01452 0.06999,0 0.12541,-0.01835 0.166266,-0.05506 0.04087,-0.03671 0.06129,-0.08653 0.0613,-0.149455 -8e-6,-0.06293 -0.02043,-0.112747 -0.0613,-0.149455 -0.04086,-0.03671 -0.09628,-0.05506 -0.166266,-0.05506 -0.03277,0 -0.06554,0.0036 -0.0983,0.01089 -0.03237,0.0073 -0.06554,0.01856 -0.09952,0.03388 l 0,-0.453811 m 0.811315,0.800523 0.200253,0 0,-0.689188 -0.217852,0.04357 0,-0.111335 0.216639,-0.04357 0.122577,0 0,0.800523 0.200252,0 0,0.102863 -0.521869,0 0,-0.102863 m 1.032203,-0.720048 c -0.06311,1e-6 -0.110643,0.03106 -0.142602,0.09318 -0.03155,0.06172 -0.04733,0.154699 -0.04733,0.278942 0,0.12384 0.01578,0.216821 0.04733,0.278942 0.03196,0.06172 0.07949,0.09258 0.142602,0.09258 0.06351,0 0.111051,-0.03086 0.142603,-0.09258 0.03196,-0.06212 0.04794,-0.155102 0.04794,-0.278942 0,-0.124243 -0.01598,-0.217224 -0.04794,-0.278942 -0.03155,-0.06212 -0.07909,-0.09318 -0.142603,-0.09318 m 0,-0.09681 c 0.101543,2e-6 0.179014,0.04014 0.232415,0.120412 0.0538,0.07987 0.0807,0.196047 0.0807,0.348527 0,0.152077 -0.0269,0.268253 -0.0807,0.348527 -0.0534,0.07987 -0.130872,0.119806 -0.232415,0.119806 -0.101542,0 -0.179209,-0.03993 -0.233017,-0.119806 -0.0534,-0.08027 -0.0801,-0.19645 -0.0801,-0.348527 0,-0.15248 0.0267,-0.268656 0.0801,-0.348527 0.05381,-0.08027 0.131475,-0.12041 0.233017,-0.120412 m 0.806464,0.419322 c -0.05501,10e-7 -0.09871,0.01876 -0.131068,0.05627 -0.03196,0.03751 -0.04794,0.08895 -0.04794,0.154296 0,0.06494 0.01598,0.116377 0.04794,0.154295 0.03236,0.03751 0.07606,0.05627 0.131068,0.05627 0.05502,0 0.09851,-0.01876 0.130473,-0.05627 0.03236,-0.03792 0.04854,-0.08935 0.04854,-0.154295 0,-0.06535 -0.01618,-0.116781 -0.04854,-0.154296 -0.03196,-0.03751 -0.07545,-0.05627 -0.130473,-0.05627 m 0.243339,-0.383017 0,0.111335 c -0.03075,-0.01452 -0.0619,-0.02561 -0.09345,-0.03328 -0.03115,-0.0077 -0.06209,-0.0115 -0.09284,-0.0115 -0.08091,0 -0.142806,0.02723 -0.185689,0.08169 -0.04248,0.05446 -0.06675,0.136749 -0.07282,0.246873 0.02387,-0.03509 0.0538,-0.06192 0.08981,-0.08048 0.036,-0.01896 0.07565,-0.02844 0.118938,-0.02844 0.09102,1e-6 0.162831,0.02763 0.215418,0.0829 0.053,0.05486 0.0795,0.12969 0.0795,0.224486 0,0.09278 -0.02751,0.167204 -0.08253,0.223275 -0.05502,0.05607 -0.128243,0.08411 -0.219675,0.08411 -0.104775,0 -0.184876,-0.03993 -0.240295,-0.119806 -0.05543,-0.08027 -0.08314,-0.19645 -0.08314,-0.348527 0,-0.142799 0.03398,-0.256554 0.101949,-0.341266 0.06796,-0.08511 0.159185,-0.127671 0.27367,-0.127673 0.03075,2e-6 0.0617,0.003 0.09285,0.0091 0.03155,0.0061 0.06432,0.01513 0.0983,0.02723 m 0.667499,-0.01997 0.481214,0 0,0.102864 -0.368953,0 0,0.22146 c 0.0178,-0.0061 0.03561,-0.01049 0.0534,-0.01331 0.0178,-0.0032 0.03561,-0.0048 0.0534,-0.0048 0.101135,1e-6 0.181236,0.02763 0.240302,0.0829 0.05907,0.05527 0.0886,0.130093 0.0886,0.224486 0,0.09722 -0.03035,0.172851 -0.09103,0.226905 -0.06069,0.05365 -0.146249,0.08048 -0.256689,0.08048 -0.03802,0 -0.07686,-0.0032 -0.116504,-0.0097 -0.03925,-0.0065 -0.0799,-0.01614 -0.121973,-0.02905 l 0,-0.122831 c 0.03641,0.01977 0.07403,0.03449 0.112872,0.04417 0.03883,0.0097 0.0799,0.01452 0.123179,0.01452 0.06999,0 0.12541,-0.01835 0.166267,-0.05506 0.04086,-0.03671 0.06129,-0.08653 0.0613,-0.149455 -7e-6,-0.06293 -0.02043,-0.112747 -0.0613,-0.149455 -0.04086,-0.03671 -0.09628,-0.05506 -0.166267,-0.05506 -0.03277,0 -0.06554,0.0036 -0.0983,0.01089 -0.03237,0.0073 -0.06554,0.01856 -0.09952,0.03388 l 0,-0.453811 m 1.126873,0.106494 -0.309479,0.48225 0.309479,0 0,-0.48225 m -0.03216,-0.106494 0.15413,0 0,0.588744 0.129252,0 0,0.101654 -0.129252,0 0,0.212988 -0.121967,0 0,-0.212988 -0.409003,0 0,-0.117991 0.37684,-0.572407 m 0.748814,0.08047 c -0.06311,1e-6 -0.110643,0.03106 -0.142602,0.09318 -0.03155,0.06172 -0.04733,0.154699 -0.04733,0.278942 0,0.12384 0.01578,0.216821 0.04733,0.278942 0.03196,0.06172 0.07949,0.09258 0.142602,0.09258 0.06351,0 0.11105,-0.03086 0.142602,-0.09258 0.03196,-0.06212 0.04794,-0.155102 0.04794,-0.278942 0,-0.124243 -0.01598,-0.217224 -0.04794,-0.278942 -0.03155,-0.06212 -0.07909,-0.09318 -0.142602,-0.09318 m 0,-0.09681 c 0.101543,2e-6 0.179014,0.04014 0.232415,0.120412 0.0538,0.07987 0.0807,0.196047 0.0807,0.348527 0,0.152077 -0.0269,0.268253 -0.0807,0.348527 -0.0534,0.07987 -0.130872,0.119806 -0.232415,0.119806 -0.101543,0 -0.179218,-0.03993 -0.233017,-0.119806 -0.0534,-0.08027 -0.0801,-0.19645 -0.0801,-0.348527 0,-0.15248 0.0267,-0.268656 0.0801,-0.348527 0.0538,-0.08027 0.131474,-0.12041 0.233017,-0.120412 m 0.806463,0.419322 c -0.05501,10e-7 -0.09871,0.01876 -0.131067,0.05627 -0.03196,0.03751 -0.04794,0.08895 -0.04794,0.154296 0,0.06494 0.01598,0.116377 0.04794,0.154295 0.03236,0.03751 0.07606,0.05627 0.131067,0.05627 0.05502,0 0.09851,-0.01876 0.130466,-0.05627 0.03237,-0.03792 0.04855,-0.08935 0.04855,-0.154295 0,-0.06535 -0.01618,-0.116781 -0.04855,-0.154296 -0.03196,-0.03751 -0.07545,-0.05627 -0.130466,-0.05627 m 0.243339,-0.383017 0,0.111335 c -0.03075,-0.01452 -0.0619,-0.02561 -0.09345,-0.03328 -0.03115,-0.0077 -0.0621,-0.0115 -0.09284,-0.0115 -0.08092,0 -0.142806,0.02723 -0.18569,0.08169 -0.04248,0.05446 -0.06675,0.136749 -0.07282,0.246873 0.02387,-0.03509 0.05381,-0.06192 0.08981,-0.08048 0.03601,-0.01896 0.07565,-0.02844 0.118939,-0.02844 0.09103,1e-6 0.162831,0.02763 0.215418,0.0829 0.053,0.05486 0.0795,0.12969 0.0795,0.224486 0,0.09278 -0.02751,0.167204 -0.08253,0.223275 -0.05502,0.05607 -0.128243,0.08411 -0.219675,0.08411 -0.104774,0 -0.184875,-0.03993 -0.240295,-0.119806 -0.05543,-0.08027 -0.08314,-0.19645 -0.08314,-0.348527 0,-0.142799 0.03398,-0.256554 0.101942,-0.341266 0.06796,-0.08511 0.159192,-0.127671 0.273678,-0.127673 0.03075,2e-6 0.0617,0.003 0.09285,0.0091 0.03155,0.0061 0.06432,0.01513 0.0983,0.02723 m 0.6675,-0.01997 0.481216,0 0,0.102864 -0.368953,0 0,0.22146 c 0.0178,-0.0061 0.03561,-0.01049 0.0534,-0.01331 0.0178,-0.0032 0.0356,-0.0048 0.0534,-0.0048 0.101135,1e-6 0.181236,0.02763 0.240302,0.0829 0.05907,0.05527 0.08859,0.130093 0.0886,0.224486 -8e-6,0.09722 -0.03035,0.172851 -0.09103,0.226905 -0.06069,0.05365 -0.146249,0.08048 -0.256689,0.08048 -0.03802,0 -0.07686,-0.0032 -0.116504,-0.0097 -0.03925,-0.0065 -0.0799,-0.01614 -0.121975,-0.02905 l 0,-0.122831 c 0.03641,0.01977 0.07404,0.03449 0.112866,0.04417 0.03884,0.0097 0.07991,0.01452 0.123187,0.01452 0.06999,0 0.12541,-0.01835 0.166267,-0.05506 0.04086,-0.03671 0.06129,-0.08653 0.06129,-0.149455 0,-0.06293 -0.02042,-0.112747 -0.06129,-0.149455 -0.04086,-0.03671 -0.09628,-0.05506 -0.166267,-0.05506 -0.03277,0 -0.06554,0.0036 -0.0983,0.01089 -0.03237,0.0073 -0.06554,0.01856 -0.09952,0.03388 l 0,-0.453811 m 1.126867,0.106494 -0.30947,0.48225 0.30947,0 0,-0.48225 m -0.03215,-0.106494 0.15412,0 0,0.588744 0.12926,0 0,0.101654 -0.12926,0 0,0.212988 -0.12197,0 0,-0.212988 -0.409,0 0,-0.117991 0.37685,-0.572407 m 0.76398,0.402984 c -0.05502,10e-7 -0.09871,0.01876 -0.13107,0.05627 -0.03196,0.03751 -0.04794,0.08895 -0.04794,0.154296 0,0.06494 0.01598,0.116377 0.04794,0.154295 0.03236,0.03751 0.07605,0.05627 0.13107,0.05627 0.05502,0 0.09851,-0.01876 0.13047,-0.05627 0.03236,-0.03792 0.04854,-0.08935 0.04855,-0.154295 -10e-6,-0.06535 -0.01619,-0.116781 -0.04855,-0.154296 -0.03196,-0.03751 -0.07545,-0.05627 -0.13047,-0.05627 m 0.24333,-0.383017 0,0.111335 c -0.03074,-0.01452 -0.06189,-0.02561 -0.09345,-0.03328 -0.03114,-0.0077 -0.06209,-0.0115 -0.09284,-0.0115 -0.08091,0 -0.1428,0.02723 -0.18569,0.08169 -0.04247,0.05446 -0.06675,0.136749 -0.07281,0.246873 0.02386,-0.03509 0.0538,-0.06192 0.0898,-0.08048 0.03601,-0.01896 0.07566,-0.02844 0.11894,-0.02844 0.09103,1e-6 0.16283,0.02763 0.21543,0.0829 0.05299,0.05486 0.07949,0.12969 0.07949,0.224486 0,0.09278 -0.02751,0.167204 -0.08253,0.223275 -0.05502,0.05607 -0.12824,0.08411 -0.21967,0.08411 -0.10478,0 -0.18488,-0.03993 -0.2403,-0.119806 -0.05543,-0.08027 -0.08314,-0.19645 -0.08314,-0.348527 0,-0.142799 0.03399,-0.256554 0.10195,-0.341266 0.06797,-0.08511 0.15919,-0.127671 0.27368,-0.127673 0.03074,2e-6 0.06169,0.003 0.09284,0.0091 0.03155,0.0061 0.06433,0.01513 0.0983,0.02723 m 0.27186,-0.01997 0.48121,0 0,0.102864 -0.36895,0 0,0.22146 c 0.0178,-0.0061 0.03561,-0.01049 0.0534,-0.01331 0.01781,-0.0032 0.0356,-0.0048 0.0534,-0.0048 0.10114,10e-7 0.18124,0.02763 0.24031,0.0829 0.05906,0.05527 0.08859,0.130093 0.08859,0.224486 0,0.09722 -0.03034,0.172851 -0.09102,0.226905 -0.06069,0.05365 -0.14625,0.08048 -0.25669,0.08048 -0.03802,0 -0.07686,-0.0032 -0.1165,-0.0097 -0.03925,-0.0065 -0.0799,-0.01614 -0.12198,-0.02905 l 0,-0.122831 c 0.03641,0.01977 0.07404,0.03449 0.11287,0.04417 0.03883,0.0097 0.0799,0.01452 0.12318,0.01452 0.07,0 0.12541,-0.01835 0.16627,-0.05506 0.04087,-0.03671 0.06129,-0.08653 0.06129,-0.149455 0,-0.06293 -0.02042,-0.112747 -0.06129,-0.149455 -0.04086,-0.03671 -0.09627,-0.05506 -0.16627,-0.05506 -0.03276,0 -0.06553,0.0036 -0.0983,0.01089 -0.03236,0.0073 -0.06554,0.01856 -0.09952,0.03388 l 0,-0.453811 m 1.15478,0 0.58255,0 0,0.05204 -0.3289,0.851349 -0.12804,0 0.30948,-0.800522 -0.43509,0 0,-0.102864 m 1.0844,0.08047 c -0.06311,1e-6 -0.11065,0.03106 -0.14261,0.09318 -0.03156,0.06172 -0.04733,0.154699 -0.04733,0.278942 0,0.12384 0.01577,0.216821 0.04733,0.278942 0.03196,0.06172 0.0795,0.09258 0.14261,0.09258 0.06351,0 0.11104,-0.03086 0.1426,-0.09258 0.03196,-0.06212 0.04794,-0.155102 0.04794,-0.278942 0,-0.124243 -0.01598,-0.217224 -0.04794,-0.278942 -0.03156,-0.06212 -0.07909,-0.09318 -0.1426,-0.09318 m 0,-0.09681 c 0.10153,2e-6 0.179,0.04014 0.2324,0.120412 0.05381,0.07987 0.08072,0.196047 0.08072,0.348527 0,0.152077 -0.02691,0.268253 -0.08072,0.348527 -0.0534,0.07987 -0.13087,0.119806 -0.2324,0.119806 -0.10155,0 -0.17922,-0.03993 -0.23303,-0.119806 -0.0534,-0.08027 -0.0801,-0.19645 -0.0801,-0.348527 0,-0.15248 0.0267,-0.268656 0.0801,-0.348527 0.05381,-0.08027 0.13148,-0.12041 0.23303,-0.120412 m 0.80646,0.419322 c -0.05502,10e-7 -0.09871,0.01876 -0.13108,0.05627 -0.03195,0.03751 -0.04793,0.08895 -0.04793,0.154296 0,0.06494 0.01598,0.116377 0.04793,0.154295 0.03237,0.03751 0.07606,0.05627 0.13108,0.05627 0.05501,0 0.09851,-0.01876 0.13047,-0.05627 0.03235,-0.03792 0.04854,-0.08935 0.04854,-0.154295 0,-0.06535 -0.01619,-0.116781 -0.04854,-0.154296 -0.03196,-0.03751 -0.07546,-0.05627 -0.13047,-0.05627 m 0.24333,-0.383017 0,0.111335 c -0.03074,-0.01452 -0.0619,-0.02561 -0.09345,-0.03328 -0.03114,-0.0077 -0.06209,-0.0115 -0.09284,-0.0115 -0.08091,0 -0.14281,0.02723 -0.18569,0.08169 -0.04248,0.05446 -0.06675,0.136749 -0.07281,0.246873 0.02386,-0.03509 0.05379,-0.06192 0.0898,-0.08048 0.036,-0.01896 0.07566,-0.02844 0.11894,-0.02844 0.09102,1e-6 0.16283,0.02763 0.21542,0.0829 0.053,0.05486 0.07949,0.12969 0.07949,0.224486 0,0.09278 -0.0275,0.167204 -0.08252,0.223275 -0.05502,0.05607 -0.12825,0.08411 -0.21967,0.08411 -0.10478,0 -0.18488,-0.03993 -0.2403,-0.119806 -0.05543,-0.08027 -0.08314,-0.19645 -0.08314,-0.348527 0,-0.142799 0.03399,-0.256554 0.10195,-0.341266 0.06796,-0.08511 0.15918,-0.127671 0.27367,-0.127673 0.03075,2e-6 0.0617,0.003 0.09285,0.0091 0.03155,0.0061 0.06432,0.01513 0.0983,0.02723 m 0.27186,-0.01997 0.48121,0 0,0.102864 -0.36895,0 0,0.22146 c 0.0178,-0.0061 0.03561,-0.01049 0.0534,-0.01331 0.0178,-0.0032 0.03561,-0.0048 0.0534,-0.0048 0.10114,1e-6 0.18124,0.02763 0.2403,0.0829 0.05907,0.05527 0.0886,0.130093 0.0886,0.224486 0,0.09722 -0.03034,0.172851 -0.09102,0.226905 -0.06069,0.05365 -0.14625,0.08048 -0.25669,0.08048 -0.03803,0 -0.07686,-0.0032 -0.11651,-0.0097 -0.03924,-0.0065 -0.07989,-0.01614 -0.12197,-0.02905 l 0,-0.122831 c 0.03641,0.01977 0.07404,0.03449 0.11287,0.04417 0.03883,0.0097 0.0799,0.01452 0.12318,0.01452 0.06999,0 0.12541,-0.01835 0.16627,-0.05506 0.04086,-0.03671 0.06129,-0.08653 0.0613,-0.149455 -10e-6,-0.06293 -0.02044,-0.112747 -0.0613,-0.149455 -0.04086,-0.03671 -0.09628,-0.05506 -0.16627,-0.05506 -0.03276,0 -0.06554,0.0036 -0.0983,0.01089 -0.03237,0.0073 -0.06554,0.01856 -0.09952,0.03388 l 0,-0.453811 m 1.15478,0 0.58255,0 0,0.05204 -0.3289,0.851349 -0.12804,0 0.30948,-0.800522 -0.43509,0 0,-0.102864 m 1.09956,0.402984 c -0.05502,1e-6 -0.09871,0.01876 -0.13107,0.05627 -0.03196,0.03751 -0.04794,0.08895 -0.04794,0.154296 0,0.06494 0.01598,0.116377 0.04794,0.154295 0.03236,0.03751 0.07605,0.05627 0.13107,0.05627 0.05502,0 0.09851,-0.01876 0.13047,-0.05627 0.03236,-0.03792 0.04854,-0.08935 0.04854,-0.154295 0,-0.06535 -0.01618,-0.116781 -0.04854,-0.154296 -0.03196,-0.03751 -0.07545,-0.05627 -0.13047,-0.05627 m 0.24334,-0.383017 0,0.111335 c -0.03075,-0.01452 -0.0619,-0.02561 -0.09345,-0.03328 -0.03115,-0.0077 -0.0621,-0.0115 -0.09285,-0.0115 -0.08091,0 -0.14281,0.02723 -0.18569,0.08169 -0.04248,0.05446 -0.06675,0.136749 -0.07281,0.246873 0.02386,-0.03509 0.0538,-0.06192 0.08981,-0.08048 0.036,-0.01896 0.07565,-0.02844 0.11894,-0.02844 0.09101,10e-7 0.16282,0.02763 0.21541,0.0829 0.053,0.05486 0.07949,0.12969 0.07949,0.224486 0,0.09278 -0.0275,0.167204 -0.08252,0.223275 -0.05502,0.05607 -0.12824,0.08411 -0.21967,0.08411 -0.10477,0 -0.18487,-0.03993 -0.2403,-0.119806 -0.05542,-0.08027 -0.08313,-0.19645 -0.08313,-0.348527 0,-0.142799 0.03398,-0.256554 0.10194,-0.341266 0.06796,-0.08511 0.15919,-0.127671 0.27368,-0.127673 0.03074,2e-6 0.06169,0.003 0.09284,0.0091 0.03156,0.0061 0.06432,0.01513 0.09831,0.02723 m 0.23969,-0.01997 0.58255,0 0,0.05204 -0.3289,0.851349 -0.12803,0 0.30947,-0.800522 -0.43509,0 0,-0.102864 m 0.82589,0.884629 0,-0.111335 c 0.03074,0.01452 0.06189,0.02562 0.09344,0.03328 0.03156,0.0077 0.06251,0.0115 0.09285,0.0115 0.08091,0 0.1426,-0.02703 0.18508,-0.08108 0.04288,-0.05446 0.06735,-0.13695 0.07342,-0.247479 -0.02346,0.03469 -0.05319,0.06132 -0.0892,0.07987 -0.036,0.01856 -0.07585,0.02783 -0.11954,0.02783 -0.09062,0 -0.16243,-0.02723 -0.21542,-0.08169 -0.0526,-0.05486 -0.07889,-0.129688 -0.07889,-0.224485 0,-0.09278 0.02751,-0.167204 0.08252,-0.223275 0.05503,-0.05607 0.12825,-0.08411 0.21968,-0.08411 0.10477,2e-6 0.18467,0.04014 0.23969,0.120412 0.05542,0.07987 0.08313,0.196047 0.08314,0.348527 -10e-6,0.142396 -0.03399,0.256151 -0.10195,0.341266 -0.06756,0.08471 -0.15858,0.127067 -0.27307,0.127067 -0.03074,0 -0.0619,-0.003 -0.09345,-0.0091 -0.03156,-0.0061 -0.06432,-0.01513 -0.0983,-0.02723 m 0.24394,-0.383016 c 0.05501,0 0.09851,-0.01876 0.13046,-0.05627 0.03236,-0.03751 0.04855,-0.08895 0.04855,-0.154296 0,-0.06495 -0.01619,-0.116174 -0.04855,-0.15369 -0.03195,-0.03792 -0.07545,-0.05688 -0.13046,-0.05688 -0.05502,10e-7 -0.09871,0.01896 -0.13108,0.05688 -0.03195,0.03752 -0.04793,0.08874 -0.04793,0.15369 0,0.06535 0.01598,0.116781 0.04793,0.154296 0.03237,0.03751 0.07606,0.05627 0.13108,0.05627 m 0.54735,0.383016 0,-0.111335 c 0.03074,0.01452 0.0619,0.02562 0.09345,0.03328 0.03155,0.0077 0.0625,0.0115 0.09285,0.0115 0.0809,0 0.1426,-0.02703 0.18508,-0.08108 0.04288,-0.05446 0.06735,-0.13695 0.07342,-0.247479 -0.02347,0.03469 -0.0532,0.06132 -0.0892,0.07987 -0.036,0.01856 -0.07586,0.02783 -0.11955,0.02783 -0.09062,0 -0.16242,-0.02723 -0.21542,-0.08169 -0.05259,-0.05486 -0.07888,-0.129688 -0.07888,-0.224485 0,-0.09278 0.0275,-0.167204 0.08252,-0.223275 0.05502,-0.05607 0.12825,-0.08411 0.21967,-0.08411 0.10478,2e-6 0.18468,0.04014 0.2397,0.120412 0.05542,0.07987 0.08313,0.196047 0.08313,0.348527 0,0.142396 -0.03398,0.256151 -0.10194,0.341266 -0.06757,0.08471 -0.15858,0.127067 -0.27308,0.127067 -0.03074,0 -0.06189,-0.003 -0.09345,-0.0091 -0.03155,-0.0061 -0.06432,-0.01513 -0.0983,-0.02723 m 0.24394,-0.383016 c 0.05502,0 0.09851,-0.01876 0.13046,-0.05627 0.03237,-0.03751 0.04855,-0.08895 0.04855,-0.154296 0,-0.06495 -0.01618,-0.116174 -0.04855,-0.15369 -0.03195,-0.03792 -0.07544,-0.05688 -0.13046,-0.05688 -0.05501,10e-7 -0.09871,0.01896 -0.13107,0.05688 -0.03196,0.03752 -0.04794,0.08874 -0.04794,0.15369 0,0.06535 0.01598,0.116781 0.04794,0.154296 0.03236,0.03751 0.07606,0.05627 0.13107,0.05627"
       id="text7050"
       style="font-size:1.58812129px;font-style:normal;font-variant:normal;font-weight:normal;font-stretch:normal;line-height:120.00000477%;writing-mode:lr-tb;text-anchor:start;fill:black;fill-opacity:1;stroke:none;font-family:Bitstream Vera Sans" />
    <rect
       width="9.9773989"
       height="11.70446"
       rx="0.31249964"
       ry="0.31249976"
       x="5.0519104"
       y="19.740776"
       id="rect6553"
       style="fill:url(#linearGradient1992);fill-opacity:1;fill-rule:evenodd;stroke:none;stroke-width:1;marker:none;visibility:visible;display:inline;overflow:visible" />
    <g
       transform="matrix(0.300427,0,0,0.299566,-1.239336,19.26775)"
       id="g6935"
       style="fill:#939393;fill-opacity:1;stroke:none">
      <path
         d="m 50.301157,40.747425 c 1.035639,-2.982476 0.176777,-8.892289 -6.540737,-13.488483 l -12.551146,0 c -6.717514,4.24264 -7.556991,10.044831 -6.010407,13.435028 0,0 25.10229,0.05345 25.10229,0.05345 z"
         id="path2329"
         style="fill:#939393;fill-opacity:1;fill-rule:evenodd;stroke:none;stroke-width:2.29990602px;marker:none;visibility:visible;display:inline;overflow:visible" />
      <path
         d="m 39.774755,19.008621 a 8.6620579,8.6620579 0 1 1 -17.324115,0 8.6620579,8.6620579 0 1 1 17.324115,0 z"
         transform="translate(6.407083,1.742408)"
         id="path2327"
         style="fill:#939393;fill-opacity:1;fill-rule:evenodd;stroke:none;stroke-width:2.29990602px;marker:none;visibility:visible;display:inline;overflow:visible" />
    </g>
    <rect
       width="32.000011"
       height="22.000008"
       rx="1.7777265"
       ry="1.7777265"
       x="3.500001"
       y="17.499992"
       id="rect6555"
       style="fill:none;stroke:white;stroke-width:0.99999982;stroke-linecap:butt;stroke-linejoin:miter;stroke-miterlimit:4;stroke-opacity:1;stroke-dasharray:none;stroke-dashoffset:0;marker:none;visibility:visible;display:inline;overflow:visible" />
  </g>
  <rect
     width="36.943565"
     height="24.959999"
     rx="2.9880826"
     ry="2.8599982"
     x="4.5564332"
     y="7.5"
     id="rect2373"
     style="fill:url(#linearGradient2963);fill-opacity:1;fill-rule:evenodd;stroke:#939393;stroke-width:1.00000012;stroke-linecap:butt;stroke-linejoin:miter;stroke-miterlimit:4;stroke-opacity:1;stroke-dasharray:none;stroke-dashoffset:0;marker:none;visibility:visible;display:inline;overflow:visible" />
  <path
     d="m 22.146352,13.875243 c 0.05209,0.53864 -0.298052,1.212575 -0.920503,1.120514 -0.348163,0.0293 -0.192412,-0.341843 -0.225851,-0.554584 0.397376,0.309139 0.784919,-0.246884 0.668991,-0.684788 0,-0.532455 0,-1.064909 0,-1.597363 0.143501,0.04631 0.481569,-0.101958 0.477363,0.09206 0,0.54139 0,1.08278 0,1.62417 z m 1.332846,-0.992886 c 0.65846,-0.03613 0.983112,0.709432 0.860077,1.271655 -0.02276,0.653768 -0.80612,1.060356 -1.359949,0.732273 -0.783589,-0.469254 -0.528462,-2.066086 0.499872,-2.003928 z m -0.03935,1.696833 c 0.6022,-0.04026 0.636047,-1.086709 0.104045,-1.261352 -0.716174,-0.12823 -0.79801,1.242806 -0.104045,1.261352 z m 2.906938,0.360698 c -0.148205,-0.04556 -0.499197,0.111673 -0.458546,-0.122739 -0.02464,-0.45302 0.06208,-0.924466 -0.07357,-1.360778 -0.366052,-0.383391 -0.715468,0.201238 -0.612531,0.565796 0,0.305907 0,0.611814 0,0.917721 -0.137001,-0.04824 -0.475467,0.104983 -0.463672,-0.09206 0,-0.949276 0,-1.898553 0,-2.847829 0.137001,0.04824 0.475467,-0.104983 0.463672,0.09206 0,0.379787 0,0.759574 0,1.139361 0.219175,-0.54132 1.11999,-0.419991 1.124186,0.188619 0.04074,0.504263 0.0117,1.013813 0.02046,1.519845 z m 2.101064,-4e-6 c -0.148204,-0.04556 -0.499196,0.111674 -0.458545,-0.122739 -0.02464,-0.45302 0.06208,-0.924466 -0.07357,-1.360778 -0.366047,-0.383391 -0.715464,0.201241 -0.612525,0.565796 0,0.305907 0,0.611814 0,0.917721 -0.137002,-0.04824 -0.475468,0.104983 -0.463674,-0.09205 0,-0.631241 0,-1.262483 0,-1.893725 0.137002,0.04824 0.475468,-0.104983 0.463674,0.09206 -0.06772,0.437716 0.434751,-0.471393 0.761272,-0.135173 0.498649,0.219147 0.362025,0.833518 0.38337,1.2768 0,0.250698 0,0.501396 0,0.752094 z m 1.500519,-2.78087 c 0.606082,0.03583 1.317988,-0.144787 1.793098,0.339366 0.406842,0.50839 0.404595,1.281714 0.114844,1.845912 -0.263051,0.501892 -0.859138,0.640142 -1.381671,0.595588 -0.163079,-0.02257 -0.415172,0.04387 -0.526271,-0.03069 0,-0.916727 0,-1.833454 0,-2.750181 z m 0.477354,2.352294 c 0.378583,0.02086 0.837889,-0.0077 1.019529,-0.404694 0.259363,-0.505328 0.152479,-1.374484 -0.509121,-1.486303 -0.174628,0.02756 -0.601922,-0.149156 -0.510408,0.168836 0,0.574054 0,1.148107 0,1.722161 z m 2.8539,-1.628959 c 0.658454,-0.03613 0.983115,0.709434 0.860084,1.271655 -0.02276,0.653771 -0.806126,1.060354 -1.359954,0.732273 -0.783592,-0.469249 -0.528466,-2.066092 0.49987,-2.003928 z m -0.03936,1.696833 c 0.602202,-0.04026 0.636049,-1.086704 0.104048,-1.261352 -0.716169,-0.128231 -0.798011,1.242805 -0.104048,1.261352 z m 2.805993,-0.517777 c -0.388961,0 -0.777923,0 -1.166884,0 -0.09555,0.712427 0.860906,0.425887 1.002627,0.429482 0.109124,0.356244 -0.197118,0.502953 -0.522859,0.494989 -0.628075,0.0999 -1.040118,-0.563516 -0.941363,-1.126817 -0.03241,-0.610085 0.596284,-1.191726 1.194741,-0.918532 0.427444,0.198121 0.446092,0.712947 0.433738,1.120878 z m -0.427752,-0.349063 c 0.141235,-0.706749 -1.00728,-0.365173 -0.647076,0 0.215692,0 0.431385,0 0.647077,0 z"
     id="path2375"
     style="font-size:4.12102222px;font-style:normal;font-variant:normal;font-weight:bold;font-stretch:normal;text-align:start;line-height:120.00000477%;writing-mode:lr-tb;text-anchor:start;fill:black;fill-opacity:1;stroke:none;display:inline;font-family:Segoe" />
  <rect
     width="15"
     height="2"
     rx="1"
     ry="1"
     x="20.999998"
     y="17"
     id="rect2377"
     style="opacity:0.3976608;fill:#8d8d8d;fill-opacity:1;fill-rule:evenodd;stroke:none;stroke-width:1;marker:none;visibility:visible;display:inline;overflow:visible" />
  <rect
     width="12"
     height="2"
     rx="1"
     ry="1"
     x="20.999998"
     y="20"
     id="rect2379"
     style="opacity:0.3976608;fill:#8d8d8d;fill-opacity:1;fill-rule:evenodd;stroke:none;stroke-width:1;marker:none;visibility:visible;display:inline;overflow:visible" />
  <path
     d="M 9,25.96875 9,28 l 2,0 0,-2.03125 -2,0 z m 3,0 0,2.03125 1,0 0,-2.03125 -1,0 z m 2,0 0,2.03125 2,0 0,-2.03125 -2,0 z m 4,0 0,2.03125 1,0 0,-2.03125 -1,0 z m 2,0 0,2.03125 2,0 0,-2.03125 -2,0 z m 3,0 0,2.03125 2,0 0,-2.03125 -2,0 z m 6,0 0,2.03125 1,0 0,-2.03125 -1,0 z m 2,0 0,2.03125 2,0 0,-2.03125 -2,0 z m 3,0 0,2.03125 1,0 0,-2.03125 -1,0 z M 7,26 l 0,4.0625 1,0 L 8,26 7,26 z m 19,0 0,2.03125 1,0 L 27,26 26,26 z m 10,0 0,2.03125 1,0 L 37,26 36,26 z m 2,0 0,4.0625 1,0 L 39,26 38,26 z"
     id="rect2383"
     style="opacity:0.48538011;fill:black;fill-opacity:1;fill-rule:evenodd;stroke:none;stroke-width:1;marker:none;visibility:visible;display:inline;overflow:visible" />
  <path
     d="m 9.4562245,29.475176 c 0.7348405,0.355082 -0.9520393,0.596125 0.013422,0.363585 -0.4319584,-0.454172 0.2615728,-0.557797 -0.3604316,-0.696317 0.1469378,-0.373808 0.8463864,0.18502 0.3470096,0.332732 z m 0.5853175,0.399587 c 0.914072,-0.08883 -0.4418901,0.378446 0.03413,-0.149359 0.606391,-0.287309 -0.1959347,-0.789808 0.01376,-0.655696 0.768818,-0.108666 0.29581,0.636166 -0.04789,0.805055 z m 1.138861,-0.721782 c -0.661262,0.55121 0.165127,0.785361 0,0 z m -0.03582,-0.110754 c 0.699158,0.4335 -0.202294,1.312852 -0.371081,0.518685 0.09087,-0.19516 0.262625,-0.334757 0.371081,-0.518685 z m 0.543421,0 c 0.268785,-0.151377 0.686755,0.220577 0.14374,0.106979 0.440129,0.282669 0.55241,1.041081 -0.08212,0.7588 1.008588,-0.355852 -0.354263,-0.280338 -0.06162,-0.865779 l -5e-6,0 z m 1.612672,0.08369 c -0.713529,0.247059 0.422736,1.154345 0.206313,0.268385 -0.0025,-0.107823 -0.06746,-0.278975 -0.206313,-0.268385 z m 0,-0.100685 c 1.089003,0.239032 -0.587169,1.658371 -0.338419,0.320426 0.0262,-0.159802 0.157355,-0.343067 0.338419,-0.320426 z m 0.590721,0.017 c 0.268785,-0.151377 0.686755,0.220577 0.14374,0.106979 0.440144,0.282661 0.552407,1.041087 -0.08212,0.7588 1.008575,-0.355859 -0.354278,-0.280343 -0.06162,-0.865779 l -10e-7,0 z m 0.881362,-3e-6 c 0.268785,-0.151377 0.686755,0.220577 0.14374,0.106979 0.440133,0.282661 0.552404,1.041086 -0.08212,0.758803 1.008574,-0.35586 -0.354286,-0.280343 -0.06162,-0.865782 l -3e-6,0 z m 0.845536,0 c 0.888774,-0.536261 0.404279,1.213722 0.23359,0.703645 0.200729,-0.352329 0.351961,-0.707399 -0.23359,-0.703645 z m 1.35786,1e-6 c 0.268785,-0.151377 0.686755,0.220577 0.14374,0.106979 0.440133,0.282672 0.552398,1.041085 -0.08213,0.758803 1.008583,-0.35585 -0.354262,-0.280342 -0.06161,-0.865782 l 1e-6,0 z m 0.903657,0.832543 c 0.634906,0.0063 -0.290045,-1.185404 0.405891,-0.703075 -0.20628,0.328155 0.335014,1.222877 -0.405891,0.703075 z m 1.149685,-0.748849 c -0.713509,0.247066 0.422731,1.154336 0.206306,0.268385 -0.0025,-0.107818 -0.06745,-0.278982 -0.206306,-0.268385 z m 0,-0.100685 c 1.089003,0.23903 -0.587166,1.658364 -0.33842,0.320423 0.02619,-0.159804 0.157355,-0.343071 0.33842,-0.320423 z m 0.898252,0.436098 c -0.826451,0.571597 0.800175,0.484913 0,0 z m 0.271036,-0.398338 c -0.725206,0.213296 -0.131748,0.313308 -0.01571,0.557091 -0.384303,1.337201 -1.14066,-1.001404 0.01571,-0.557128 m 0.743471,-0.02077 c 0.268783,-0.151377 0.686766,0.220574 0.143746,0.106979 0.440136,0.282667 0.552404,1.041113 -0.08213,0.758842 1.041112,-0.373221 -0.341326,-0.253526 -0.06163,-0.865783 m 1.25513,0.110754 c -0.661262,0.55121 0.165127,0.785361 0,0 z m -0.03582,-0.110754 c 0.699139,0.433515 -0.2023,1.31284 -0.371087,0.518684 0.09088,-0.195159 0.262633,-0.334753 0.371087,-0.518684 z m 0.834041,0.08369 c -0.713521,0.247059 0.422733,1.154341 0.206306,0.268385 -0.0025,-0.107818 -0.06745,-0.278982 -0.206306,-0.268385 z m 0,-0.100685 c 1.089009,0.23903 -0.587171,1.658372 -0.338423,0.320425 0.02619,-0.159805 0.157357,-0.34307 0.338423,-0.320425 z m 0.898249,0.436102 c -0.82644,0.571579 0.800151,0.484929 0,0 z m 0.271035,-0.398338 c -0.725213,0.213293 -0.131748,0.31331 -0.01571,0.557092 -0.384299,1.337203 -1.140675,-1.001416 0.01571,-0.557129 m 0.743472,-0.02077 c 0.268782,-0.151377 0.68677,0.220574 0.143748,0.106979 0.44013,0.282662 0.552412,1.041113 -0.08211,0.758842 1.041116,-0.373223 -0.341328,-0.253524 -0.06163,-0.865783 m 1.255123,0.110754 c -0.661244,0.551212 0.165124,0.785356 0,0 z M 26.12767,29.04223 c 0.699128,0.433533 -0.202313,1.312834 -0.371098,0.518684 0.09088,-0.195162 0.262632,-0.33476 0.371098,-0.518684 z m 0.850933,0.419104 c -0.826465,0.571592 0.800176,0.484918 0,0 z m 0.271026,-0.398338 c -0.725205,0.213299 -0.131748,0.313304 -0.01571,0.557088 -0.384285,1.337216 -1.140675,-1.00139 0.01571,-0.557122 m 0.302801,-0.02077 c 0.268784,-0.151377 0.686758,0.220576 0.143742,0.106979 0.440142,0.28266 0.552414,1.041115 -0.08212,0.758842 1.041117,-0.37322 -0.341325,-0.253525 -0.06163,-0.865783 m 1.286214,0 c 0.888774,-0.536264 0.404285,1.213724 0.233593,0.703644 0.200731,-0.352331 0.351959,-0.707398 -0.233593,-0.703644 z m 1.207822,0.08369 c -0.713539,0.247052 0.422736,1.15435 0.206314,0.268385 -0.0025,-0.107825 -0.06746,-0.278972 -0.206314,-0.268385 z m 0,-0.100685 c 1.089009,0.239047 -0.58719,1.658364 -0.338431,0.320422 0.0262,-0.159804 0.157365,-0.343069 0.338431,-0.320422 z m 0.898248,0.436101 c -0.826447,0.571577 0.800157,0.484932 0,0 z m 0.271026,-0.398338 c -0.725204,0.213291 -0.131741,0.31331 -0.01571,0.557092 -0.384301,1.337203 -1.140666,-1.001405 0.01571,-0.557129 m 0.302803,-0.02077 c 0.268784,-0.151377 0.686756,0.220577 0.143741,0.106979 0.440151,0.282666 0.552405,1.041123 -0.08213,0.758839 1.041118,-0.37321 -0.341309,-0.253524 -0.06161,-0.865781 m 1.286212,0 c 0.888775,-0.536265 0.404286,1.213725 0.233594,0.703644 0.200731,-0.352332 0.351958,-0.707398 -0.233594,-0.703644 z m 1.224708,0.419105 c -0.826451,0.57157 0.800149,0.484939 0,0 z m 0.271038,-0.398338 c -0.725216,0.213292 -0.131754,0.31331 -0.01571,0.557094 -0.384346,1.337212 -1.140592,-1.001475 0.01581,-0.557128 m 0.26697,-0.02077 c 0.888772,-0.536263 0.404283,1.213717 0.233603,0.703642 0.200733,-0.352332 0.351939,-0.707398 -0.233603,-0.703642 z m 0.91989,0.920015 c 0.724489,-0.212468 0.133242,-0.314349 0.01635,-0.557327 0.384761,-1.336394 1.139239,1.003018 -0.01635,0.557405 m 0.271704,-0.398336 c 0.825463,-0.572354 -0.800428,-0.483511 0,0 z m 0.609647,0.398336 c 0.724497,-0.212467 0.133258,-0.314347 0.01634,-0.557323 0.384727,-1.336396 1.139281,1.002987 -0.01634,0.557323 z m 0.271704,-0.398336 c 0.825467,-0.572337 -0.800413,-0.483527 0,0 z"
     id="path2413"
     style="font-size:1.58812129px;font-style:normal;font-variant:normal;font-weight:normal;font-stretch:normal;line-height:120.00000477%;writing-mode:lr-tb;text-anchor:start;fill:black;fill-opacity:1;stroke:none;display:inline;font-family:Bitstream Vera Sans" />
  <rect
     width="11"
     height="12.063052"
     rx="0.34452829"
     ry="0.32207388"
     x="6.9999986"
     y="11"
     id="rect2415"
     style="fill:url(#linearGradient2944);fill-opacity:1;fill-rule:evenodd;stroke:none;stroke-width:1;marker:none;visibility:visible;display:inline;overflow:visible" />
  <path
     d="m 12.25,14.0625 c -1.715065,0.02343 -3.2470508,1.83239 -2.6136497,3.515828 0.03623,0.465126 0.7710587,1.043799 0.8187327,1.234172 -0.305984,-0.0084 -0.5316634,0.276401 -0.7868194,0.415623 -0.9420653,0.673043 -1.7585504,1.742822 -1.6656209,2.956172 0.0659,0.245415 0.033608,0.763974 0.3430508,0.784913 2.8431025,0.01026 5.6862045,0.02053 8.5293065,0.03079 0.375534,-1.078585 -0.142174,-2.258285 -0.872202,-3.05977 -0.406556,-0.440825 -0.880411,-0.842725 -1.403187,-1.12773 -0.434813,0.06252 0.160523,-0.226471 0.2219,-0.386322 1.293522,-1.32521 0.492827,-3.68591 -1.225616,-4.178223 C 13.166963,14.092256 12.704907,14.029804 12.25,14.0625 z"
     id="path2419"
     style="fill:#939393;fill-opacity:1;fill-rule:evenodd;stroke:none;stroke-width:2.29990602px;marker:none;visibility:visible;display:inline;overflow:visible" />
  <rect
     width="35.028584"
     height="23.000013"
     rx="1.9459757"
     ry="1.8585324"
     x="5.499999"
     y="8.4999971"
     id="rect2423"
     style="fill:none;stroke:white;stroke-width:0.99999994;stroke-linecap:butt;stroke-linejoin:miter;stroke-miterlimit:4;stroke-opacity:1;stroke-dasharray:none;stroke-dashoffset:0;marker:none;visibility:visible;display:inline;overflow:visible" />
  <g
     transform="translate(22.972696,22.041903)"
     id="g3786">
    <path
       d="M 5.8243612,1.5003352 C 5.3132552,1.3643903 5.5841031,1.9757544 5.7475466,2.1869532 6.2166418,3.0366328 6.7094189,3.8745116 7.1633774,4.7317339 7.2890395,5.3462605 6.7476087,5.8393506 6.3029927,6.1715226 5.6495804,6.6037887 4.7979882,6.7692436 4,6.5274363 3.1858761,5.6713538 2.7048299,4.7370233 2.1141272,3.6966885 1.635725,3 1.5731057,4.1168597 1.5445057,4.4340542 1.3806546,5.8552217 1.653531,7.4745523 2.7770784,8.4598364 3.6407735,9.2267346 4.8685016,9.5215187 5.9962734,9.3168409 7.0092844,9.6350206 7.9781001,10.144122 8.7313608,10.902109 9.4231759,10.166702 10.114991,9.4312957 10.806806,8.6958891 10.134688,8.0347958 9.7772626,7.2478668 9.431,6.3680994 9.7700447,5.1274382 9.3085266,3.7619213 8.371,2.9019561 7.7108102,2.2695202 6.704595,1.755047 5.8243612,1.5003352 z"
       id="path6912"
       style="fill:#babdb6;fill-opacity:1;fill-rule:evenodd;stroke:url(#linearGradient3997);stroke-width:1.10000002;stroke-linecap:round;stroke-linejoin:round;stroke-miterlimit:4;stroke-opacity:1;stroke-dasharray:none;stroke-dashoffset:0.3612;display:inline;enable-background:new" />
    <path
       d="M 5.8079899,1.7812509 C 6.4804011,3.3586195 8.2667692,4.881516 6.8286481,6 6.1661841,6.6303502 5.254105,7.1577847 4.3299832,7.0709023 3.9759655,7.0420161 3.5812583,6.8238486 3.4429009,6.5027936 2.9827069,5.6799306 2.3506379,4.7164426 1.8904439,3.8935796 1.834307,5.4718331 1.6425032,7.0581017 2.8283824,8.1863531 3.9634729,9.2729618 5.967739,9.5364195 7.3513434,8.3893538 8.3059031,7.7518857 9.0525972,6.6732196 8.9990133,5.4879927 8.9939068,4.5401708 8.4667735,3.6742106 7.7548252,3.0796043 7.2076059,2.6067954 6.4910803,2.0184896 5.8079899,1.7812509 z"
       id="path7379"
       style="fill:url(#linearGradient3999);fill-opacity:1;fill-rule:evenodd;stroke:none;display:inline;enable-background:new" />
    <path
       d="M 8.5850007,6.3454083 C 8.5984294,5.9014498 8.7477845,5.6149773 8.6637366,5.1629154 8.5879663,4.2890924 7.9667911,3.491052 7.2650654,3 7.0009136,2.8021905 6.3875717,2.2616321 6.1,2.1 6.7679673,2.6807413 7.3195288,3.8021822 7.6703656,4.453264 7.9718533,5.1992776 7.4363649,5.9642754 6.8911172,6.4361896 6.1118062,7.0740399 5.0236728,7.5051445 4,7.3431709 3.0120476,6.956232 2.5187678,5.1513875 2,4.27 1.948148,5.33246 2.20358,7.134931 3.0150896,7.9118104 3.7711391,8.6746758 4.9226558,8.9469219 5.9616277,8.7471455"
       id="path4756"
       style="opacity:0.7;fill:none;stroke:url(#linearGradient4001);stroke-width:1;stroke-linecap:round;stroke-linejoin:round;stroke-miterlimit:4;stroke-opacity:1;stroke-dasharray:none;stroke-dashoffset:0.3612;display:inline;enable-background:new" />
    <path
       d="M 8.5107511,10.700134 19.148289,22.031119 c 0.697812,0.696159 1.892517,0.605016 2.690337,-0.190908 0.797821,-0.795927 0.889176,-1.987791 0.191364,-2.683948 L 10.672036,8.5440024 8.5107511,10.700134 z M 19.777,19.784003 c 0.396619,-0.395676 1.044382,-0.395679 1.441,-3e-6 0.396617,0.395676 0.396617,1.041325 0,1.437 -0.396619,0.395674 -1.121381,0.474672 -1.518,0.079 -0.396616,-0.395676 -0.319616,-1.120321 0.077,-1.515997 z"
       id="path6899"
       style="fill:url(#linearGradient4003);fill-opacity:1;stroke:url(#linearGradient4005);stroke-width:0.99963278;stroke-linecap:round;stroke-linejoin:round;stroke-miterlimit:4;stroke-opacity:1;stroke-dasharray:none;stroke-dashoffset:0.7;display:inline;enable-background:new" />
    <path
       d="m 10.480089,10.532287 c 0.277308,-0.276394 0.784916,-0.215471 1.138138,0.136597 l 7.347425,6.657225 c 0.353219,0.352071 0.08028,1.19136 -0.197033,1.467753 -0.27731,0.276398 -1.119158,0.549 -1.472378,0.19693 l -6.679134,-7.324089 c -0.353218,-0.352071 -0.414329,-0.858019 -0.137018,-1.134416 z"
       id="rect6533"
       style="opacity:0.23106061;fill:url(#linearGradient4007);fill-opacity:1;stroke:none;display:inline" />
  </g>
  <path
     d="m 45.972695,44.542047 a 4,1.4995258 0 0 1 -8,0 4,1.4995258 0 1 1 8,0 z"
     id="path3828"
     style="opacity:0.25;fill:url(#radialGradient2930);fill-opacity:1;stroke:none" />
</svg>
