<?xml version="1.0" encoding="UTF-8" standalone="no"?>
<!-- Created with Inkscape (http://www.inkscape.org/) -->

<svg
   xmlns:svg="http://www.w3.org/2000/svg"
   xmlns="http://www.w3.org/2000/svg"
   xmlns:xlink="http://www.w3.org/1999/xlink"
   version="1.0"
   width="24"
   height="24"
   id="svg3196">
  <defs
     id="defs3198">
    <linearGradient
       x1="11"
       y1="-3.6792297"
       x2="11"
       y2="15.306001"
       id="linearGradient3726-1-1"
       xlink:href="#linearGradient3587-6-5"
       gradientUnits="userSpaceOnUse"
       gradientTransform="matrix(0.93023256,0,0,0.89887644,13.840698,6.2247191)" />
    <linearGradient
       id="linearGradient3587-6-5">
      <stop
         id="stop3589-9-2"
         style="stop-color:#000000;stop-opacity:1"
         offset="0" />
      <stop
         id="stop3591-7-4"
         style="stop-color:#363636;stop-opacity:1"
         offset="1" />
    </linearGradient>
    <linearGradient
       x1="12"
       y1="3.000001"
       x2="12"
       y2="21"
       id="linearGradient2850-6-3"
       xlink:href="#linearGradient3587-8-5"
       gradientUnits="userSpaceOnUse"
       gradientTransform="translate(-28.805085,-0.1271192)" />
    <linearGradient
       id="linearGradient3587-8-5">
      <stop
         id="stop3589-2-7"
         style="stop-color:#000000;stop-opacity:1"
         offset="0" />
      <stop
         id="stop3591-3-5"
         style="stop-color:#363636;stop-opacity:1"
         offset="1" />
    </linearGradient>
  </defs>
  <path
     d="m 10.5,6.5 c 0,-0.6666667 0,-1.3333333 0,-2 1,0 2,0 3,0 0,0.6666667 0,1.3333333 0,2 m -6,14 0,-14 9,0 0,14 -9,0 z"
     id="rect3160-2"
     style="opacity:0.6;color:#000000;fill:none;stroke:#ffffff;stroke-width:1;stroke-linecap:butt;stroke-linejoin:miter;stroke-miterlimit:4;stroke-opacity:1;stroke-dasharray:none;stroke-dashoffset:0;marker:none;visibility:visible;display:inline;overflow:visible;enable-background:accumulate" />
  <path
     d="m 10.5,5.5 c 0,-0.6666667 0,-1.3333333 0,-2 1,0 2,0 3,0 0,0.6666667 0,1.3333333 0,2 m -6,14 0,-14 9,0 0,14 -9,0 z"
     id="rect3160"
     style="opacity:0.7;color:#000000;fill:none;stroke:url(#linearGradient2850-6-3);stroke-width:1;stroke-linecap:butt;stroke-linejoin:miter;stroke-miterlimit:4;stroke-opacity:1;stroke-dasharray:none;stroke-dashoffset:0;marker:none;visibility:visible;display:inline;overflow:visible;enable-background:accumulate" />
  <rect
     width="6"
     height="8"
     x="9.0500002"
     y="10"
     id="rect3728"
     style="opacity:0.7;color:#000000;fill:url(#linearGradient3726-1-1);fill-opacity:1;fill-rule:nonzero;stroke:none;stroke-width:1;marker:none;visibility:visible;display:inline;overflow:visible;enable-background:accumulate" />
</svg>
