<?xml version="1.0" encoding="UTF-8" standalone="no"?>
<!-- Created with Inkscape (http://www.inkscape.org/) -->

<svg
   xmlns:dc="http://purl.org/dc/elements/1.1/"
   xmlns:cc="http://creativecommons.org/ns#"
   xmlns:rdf="http://www.w3.org/1999/02/22-rdf-syntax-ns#"
   xmlns:svg="http://www.w3.org/2000/svg"
   xmlns="http://www.w3.org/2000/svg"
   xmlns:xlink="http://www.w3.org/1999/xlink"
   xmlns:sodipodi="http://sodipodi.sourceforge.net/DTD/sodipodi-0.dtd"
   xmlns:inkscape="http://www.inkscape.org/namespaces/inkscape"
   version="1.0"
   width="24"
   height="24"
   id="svg3196"
   inkscape:version="0.47pre4 r22446"
   sodipodi:docname="gpm-battery-charged.svg">
  <metadata
     id="metadata17">
    <rdf:RDF>
      <cc:Work
         rdf:about="">
        <dc:format>image/svg+xml</dc:format>
        <dc:type
           rdf:resource="http://purl.org/dc/dcmitype/StillImage" />
      </cc:Work>
    </rdf:RDF>
  </metadata>
  <sodipodi:namedview
     pagecolor="#ffffff"
     bordercolor="#666666"
     borderopacity="1"
     objecttolerance="10"
     gridtolerance="10"
     guidetolerance="10"
     inkscape:pageopacity="0"
     inkscape:pageshadow="2"
     inkscape:window-width="1280"
     inkscape:window-height="689"
     id="namedview15"
     showgrid="false"
     inkscape:zoom="9.8333333"
     inkscape:cx="-6.2542373"
     inkscape:cy="11.79661"
     inkscape:window-x="0"
     inkscape:window-y="24"
     inkscape:window-maximized="1"
     inkscape:current-layer="svg3196" />
  <defs
     id="defs3198">
    <linearGradient
       id="linearGradient3587">
      <stop
         id="stop3589"
         style="stop-color:#000000;stop-opacity:1"
         offset="0" />
      <stop
         id="stop3591"
         style="stop-color:#363636;stop-opacity:1"
         offset="1" />
    </linearGradient>
    <linearGradient
       x1="12"
       y1="3.000001"
       x2="12"
       y2="21"
       id="linearGradient2850-6"
       xlink:href="#linearGradient3587-8"
       gradientUnits="userSpaceOnUse"
       gradientTransform="translate(-28.81,-0.1271192)" />
    <linearGradient
       id="linearGradient3587-8">
      <stop
         id="stop3589-2"
         style="stop-color:#000000;stop-opacity:1"
         offset="0" />
      <stop
         id="stop3591-3"
         style="stop-color:#363636;stop-opacity:1"
         offset="1" />
    </linearGradient>
    <linearGradient
       x1="11"
       y1="6"
       x2="11"
       y2="17"
       id="linearGradient3726"
       xlink:href="#linearGradient3587"
       gradientUnits="userSpaceOnUse"
       gradientTransform="translate(1,1)" />
  </defs>
  <path
     d="m 9,8 0,5 5,-5 -5,0 z m 5.6,0 -1.6,4 2,0 0,-4 -0.4,0 z M 15,13.15625 9.9,19 15,19 15,13.15625 z M 9,14 9,19 9.5,19 12,14 9,14 z"
     id="path3168-9"
     style="opacity:0.6;fill:#ffffff;fill-opacity:1;fill-rule:nonzero;stroke:none;stroke-width:1;marker:none;visibility:visible;display:inline;overflow:visible;enable-background:accumulate" />
  <path
     d="m 10.5,6.5 c 0,-0.6666667 0,-1.3333333 0,-2 1,0 2,0 3,0 0,0.6666667 0,1.3333333 0,2 m -6,14 0,-14 9,0 0,14 -9,0 z"
     id="rect3160-2"
     style="opacity:0.6;color:#000000;fill:none;stroke:#ffffff;stroke-width:1;stroke-linecap:butt;stroke-linejoin:miter;stroke-miterlimit:4;stroke-opacity:1;stroke-dasharray:none;stroke-dashoffset:0;marker:none;visibility:visible;display:inline;overflow:visible;enable-background:accumulate" />
  <path
     d="m 10.5,5.5 c 0,-0.6666667 0,-1.3333333 0,-2 1,0 2,0 3,0 0,0.6666667 0,1.3333333 0,2 m -6,14 0,-14 9,0 0,14 -9,0 z"
     id="rect3160"
     style="opacity:0.7;color:#000000;fill:none;stroke:url(#linearGradient2850-6);stroke-width:1;stroke-linecap:butt;stroke-linejoin:miter;stroke-miterlimit:4;stroke-opacity:1;stroke-dasharray:none;stroke-dashoffset:0;marker:none;visibility:visible;display:inline;overflow:visible;enable-background:accumulate" />
  <path
     d="m 9,7 0,5 5,-5 -5,0 z m 5.6,0 -1.6,4 2,0 0,-4 -0.4,0 z M 15,12.15625 9.9,18 15,18 15,12.15625 z M 9,13 9,18 9.5,18 12,13 9,13 z"
     id="path3168"
     style="opacity:0.7;fill:url(#linearGradient3726);fill-opacity:1;fill-rule:nonzero;stroke:none;stroke-width:1;marker:none;visibility:visible;display:inline;overflow:visible;enable-background:accumulate" />
</svg>
