<?xml version="1.0" encoding="UTF-8" standalone="no"?>
<!-- Created with Inkscape (http://www.inkscape.org/) -->

<svg
   xmlns:dc="http://purl.org/dc/elements/1.1/"
   xmlns:cc="http://creativecommons.org/ns#"
   xmlns:rdf="http://www.w3.org/1999/02/22-rdf-syntax-ns#"
   xmlns:svg="http://www.w3.org/2000/svg"
   xmlns="http://www.w3.org/2000/svg"
   xmlns:xlink="http://www.w3.org/1999/xlink"
   xmlns:sodipodi="http://sodipodi.sourceforge.net/DTD/sodipodi-0.dtd"
   xmlns:inkscape="http://www.inkscape.org/namespaces/inkscape"
   version="1.0"
   width="24"
   height="24"
   id="svg3262"
   sodipodi:version="0.32"
   inkscape:version="0.47 r22583"
   sodipodi:docname="user-idle.svg"
   inkscape:output_extension="org.inkscape.output.svg.inkscape">
  <metadata
     id="metadata15">
    <rdf:RDF>
      <cc:Work
         rdf:about="">
        <dc:format>image/svg+xml</dc:format>
        <dc:type
           rdf:resource="http://purl.org/dc/dcmitype/StillImage" />
      </cc:Work>
    </rdf:RDF>
  </metadata>
  <sodipodi:namedview
     inkscape:window-height="781"
     inkscape:window-width="1440"
     inkscape:pageshadow="2"
     inkscape:pageopacity="0.0"
     guidetolerance="10.0"
     gridtolerance="10.0"
     objecttolerance="10.0"
     borderopacity="1.0"
     bordercolor="#666666"
     pagecolor="#ffffff"
     id="base"
     showgrid="false"
     inkscape:zoom="20.75"
     inkscape:cx="7.9564286"
     inkscape:cy="11.903614"
     inkscape:window-x="0"
     inkscape:window-y="24"
     inkscape:current-layer="svg3262"
     inkscape:window-maximized="1" />
  <defs
     id="defs3264">
    <linearGradient
       id="linearGradient3587-6-5-3">
      <stop
         id="stop3589-9-2-2"
         style="stop-color:#000000;stop-opacity:1"
         offset="0" />
      <stop
         id="stop3591-7-4-73"
         style="stop-color:#363636;stop-opacity:1"
         offset="1" />
    </linearGradient>
    <linearGradient
       inkscape:collect="always"
       xlink:href="#linearGradient3587-6-5-3"
       id="linearGradient2393"
       gradientUnits="userSpaceOnUse"
       gradientTransform="matrix(-0.4100229,0,0,0.5447147,79.029995,-2.8459034)"
       x1="159.68553"
       y1="14.403693"
       x2="159.68553"
       y2="38.279892" />
  </defs>
  <path
     style="opacity:0.3;fill:none;stroke:#000000;stroke-width:0.5;stroke-linecap:butt;stroke-linejoin:miter;stroke-miterlimit:4;stroke-opacity:1;stroke-dasharray:none;stroke-dashoffset:0;marker:none;visibility:visible;display:inline;overflow:visible;enable-background:accumulate"
     id="path3260"
     d="m 7.25,11.5 c 0,2.34721 1.90279,4.25 4.25,4.25 2.34721,0 4.25,-1.90279 4.25,-4.25 0,-2.3472104 -1.90279,-4.2500002 -4.25,-4.2500002 -2.34721,0 -4.25,1.9027898 -4.25,4.2500002 z" />
  <path
     style="opacity:0.6;fill:#ffffff;fill-opacity:1;fill-rule:nonzero;stroke:none;stroke-width:1;marker:none;visibility:visible;display:inline;overflow:visible;enable-background:accumulate"
     id="path2484"
     d="m 11.5,6 c 4.692,0 8.5,2.9120003 8.5,6.5 0,0.550338 -0.112625,1.083288 -0.28125,1.59375 L 23,16.90625 17.625,17 C 16.077862,18.23217 13.908496,19 11.5,19 6.808,19 2.999999,16.088 3,12.5 3,8.9120001 6.808,5.9999999 11.5,6 z m 0,2 C 9.016,8.0000001 7,10.016 7,12.5 7,14.984 9.016,17 11.5,17 13.984,17 16,14.984 16,12.5 16,10.016001 13.984,8 11.5,8 z" />
  <path
     style="opacity:0.7;fill:url(#linearGradient2393);fill-opacity:1;fill-rule:nonzero;stroke:none;stroke-width:1;marker:none;visibility:visible;display:inline;overflow:visible;enable-background:accumulate"
     id="path2396"
     d="m 11.5,5 c 4.692,0 8.5,2.9120003 8.5,6.5 0,0.550338 -0.112625,1.083288 -0.28125,1.59375 L 23,15.90625 17.625,16 C 16.077862,17.23217 13.908496,18 11.5,18 6.808,18 2.999999,15.088 3,11.5 3,7.9120001 6.808,4.9999999 11.5,5 z m 0,2 C 9.016,7.0000001 7,9.0160001 7,11.5 7,13.984 9.016,16 11.5,16 13.984,16 16,13.984 16,11.5 16,9.0160005 13.984,7 11.5,7 z" />
  <path
     style="opacity:0.6;fill:none;stroke:#ffffff;stroke-width:1px;stroke-linecap:round;stroke-linejoin:round;stroke-opacity:1;display:inline"
     id="path3258"
     d="M 13.262048,12.5 11.5,12.5 11.5,10" />
  <path
     style="opacity:0.7;fill:none;stroke:#282828;stroke-width:1px;stroke-linecap:round;stroke-linejoin:round;stroke-opacity:1;display:inline"
     id="path2817"
     d="M 13.262048,11.5 11.5,11.5 11.5,9.0000003" />
</svg>
