<?xml version="1.0" encoding="UTF-8" standalone="no"?>
<!-- Created with Inkscape (http://www.inkscape.org/) -->
<svg
   xmlns:svg="http://www.w3.org/2000/svg"
   xmlns="http://www.w3.org/2000/svg"
   xmlns:xlink="http://www.w3.org/1999/xlink"
   xmlns:inkscape="http://www.inkscape.org/namespaces/inkscape"
   version="1.0"
   width="48"
   height="48"
   id="svg7854">
  <defs
     id="defs7856">
    <linearGradient
       id="linearGradient5202">
      <stop
         style="stop-color:#ffffff;stop-opacity:1"
         offset="0"
         id="stop5204" />
      <stop
         style="stop-color:#ffffff;stop-opacity:0"
         offset="1"
         id="stop5206" />
    </linearGradient>
    <linearGradient
       id="linearGradient5190">
      <stop
         style="stop-color:#f55100;stop-opacity:1"
         offset="0"
         id="stop5192" />
      <stop
         style="stop-color:#fc823e;stop-opacity:1"
         offset="1"
         id="stop5194" />
    </linearGradient>
    <linearGradient
       id="linearGradient5130">
      <stop
         style="stop-color:#000000;stop-opacity:1"
         offset="0"
         id="stop5132" />
      <stop
         style="stop-color:#000000;stop-opacity:0"
         offset="1"
         id="stop5134" />
    </linearGradient>
    <radialGradient
       cx="22"
       cy="38.5"
       r="13"
       fx="22"
       fy="38.5"
       id="radialGradient5136"
       xlink:href="#linearGradient5130"
       gradientUnits="userSpaceOnUse"
       gradientTransform="matrix(1,0,0,0.5,0,19.25)" />
    <filter
       id="filter5186"
       height="1.6939759"
       y="-0.34698796"
       width="1.346988"
       x="-0.17349398">
      <feGaussianBlur
         id="feGaussianBlur5188"
         stdDeviation="1.8795181"
         inkscape:collect="always" />
    </filter>
    <radialGradient
       cx="21.525126"
       cy="30.439341"
       r="18.888176"
       fx="21.525126"
       fy="30.439341"
       id="radialGradient5200"
       xlink:href="#linearGradient5190"
       gradientUnits="userSpaceOnUse"
       gradientTransform="matrix(0,-1.2519025,47.292244,0,-1418.0196,57.3867)" />
    <linearGradient
       x1="22.109375"
       y1="11.34375"
       x2="22.109375"
       y2="49.612667"
       id="linearGradient5208"
       xlink:href="#linearGradient5202"
       gradientUnits="userSpaceOnUse" />
  </defs>
  <g
     id="layer1">
    <path
       d="M 35 38.5 A 13 6.5 0 1 1  9,38.5 A 13 6.5 0 1 1  35 38.5 z"
       transform="matrix(1.3257204,0,0,1.3060079,-3.6937336,-12.797355)"
       style="opacity:0.43373497;color:#000000;fill:url(#radialGradient5136);fill-opacity:1;fill-rule:nonzero;stroke:none;stroke-width:1;stroke-linecap:butt;stroke-linejoin:miter;marker:none;marker-start:none;marker-mid:none;marker-end:none;stroke-miterlimit:4;stroke-dasharray:none;stroke-dashoffset:0;stroke-opacity:1;visibility:visible;display:inline;overflow:visible;filter:url(#filter5186);enable-background:accumulate"
       id="path4551" />
    <path
       d="M 35.099492,35.723338 L 26.703003,33.840596 L 22.097088,41.10911 L 17.491173,33.840597 L 9.094684,35.723338 L 10.977425,27.32685 L 3.7089119,22.720934 L 10.977425,18.115019 L 9.0946839,9.71853 L 17.491172,11.601271 L 22.097088,4.3327579 L 26.703002,11.601271 L 35.099492,9.71853 L 33.21675,18.115018 L 40.485264,22.720934 L 33.216751,27.326849 L 35.099492,35.723338 z "
       transform="matrix(1.1209343,0,0,1.1042669,-0.1974224,-1.3744715)"
       style="opacity:1;color:#000000;fill:url(#radialGradient5200);fill-opacity:1;fill-rule:nonzero;stroke:#ce3e00;stroke-width:1.00038707;stroke-linecap:butt;stroke-linejoin:miter;marker:none;marker-start:none;marker-mid:none;marker-end:none;stroke-miterlimit:4;stroke-dasharray:none;stroke-dashoffset:0;stroke-opacity:1;visibility:visible;display:inline;overflow:visible;enable-background:accumulate"
       id="path4547" />
    <path
       d="M 22.09375,6.15625 L 18.3125,12.125 C 18.087547,12.462771 17.676134,12.624843 17.28125,12.53125 L 10.375,11 L 11.90625,17.90625 C 11.999843,18.301134 11.837771,18.712547 11.5,18.9375 L 5.53125,22.71875 L 11.5,26.5 C 11.837771,26.724953 11.999843,27.136366 11.90625,27.53125 L 10.375,34.4375 L 17.28125,32.90625 C 17.676134,32.812657 18.087547,32.974729 18.3125,33.3125 L 22.09375,39.28125 L 25.875,33.3125 C 26.099953,32.974729 26.511366,32.812657 26.90625,32.90625 L 33.8125,34.4375 L 32.28125,27.53125 C 32.187657,27.136366 32.349729,26.724953 32.6875,26.5 L 38.6875,22.71875 L 32.6875,18.9375 C 32.349729,18.712547 32.187657,18.301134 32.28125,17.90625 L 33.8125,11 L 26.90625,12.53125 C 26.511366,12.624843 26.099953,12.462771 25.875,12.125 L 22.09375,6.15625 z "
       transform="matrix(1.1263736,0,0,1.1263736,-0.2940419,-1.8085508)"
       style="opacity:0.33734939;color:#000000;fill:none;fill-opacity:1;fill-rule:nonzero;stroke:url(#linearGradient5208);stroke-width:1;stroke-linecap:butt;stroke-linejoin:miter;marker:none;marker-start:none;marker-mid:none;marker-end:none;stroke-miterlimit:4;stroke-dasharray:none;stroke-dashoffset:0;stroke-opacity:1;visibility:visible;display:inline;overflow:visible;enable-background:accumulate"
       id="path5198" />
    <path
       d="M 28.026042,32 C 28.719816,32 29.265625,31.400625 29.265625,30.651042 L 29.265625,25 L 33.203125,25 L 24.526042,18 L 16.359375,25 L 19.932292,25 L 19.932292,30.651042 C 19.932292,31.400626 20.514559,32 21.208333,32 L 28.026042,32 z "
       style="opacity:1;color:#000000;fill:#fed08e;fill-opacity:1;fill-rule:nonzero;stroke:none;stroke-width:0.90702784;stroke-linecap:butt;stroke-linejoin:miter;marker:none;marker-start:none;marker-mid:none;marker-end:none;stroke-miterlimit:4;stroke-dasharray:none;stroke-dashoffset:0;stroke-opacity:1;visibility:visible;display:inline;overflow:visible;enable-background:accumulate"
       id="rect4610" />
  </g>
</svg>
