<?xml version="1.0" encoding="UTF-8" standalone="no"?>
<!-- Created with Inkscape (http://www.inkscape.org/) -->

<svg
   xmlns:svg="http://www.w3.org/2000/svg"
   xmlns="http://www.w3.org/2000/svg"
   xmlns:xlink="http://www.w3.org/1999/xlink"
   version="1.0"
   width="16"
   height="16"
   id="svg11300">
  <defs
     id="defs3">
    <linearGradient
       id="linearGradient6330">
      <stop
         id="stop6332"
         style="stop-color:white;stop-opacity:1"
         offset="0" />
      <stop
         id="stop6334"
         style="stop-color:white;stop-opacity:0"
         offset="1" />
    </linearGradient>
    <linearGradient
       id="linearGradient6761">
      <stop
         id="stop6763"
         style="stop-color:#f0f0f0;stop-opacity:1"
         offset="0" />
      <stop
         id="stop6765"
         style="stop-color:#c8c8c8;stop-opacity:1"
         offset="0.62007451" />
      <stop
         id="stop6767"
         style="stop-color:#a0a0a0;stop-opacity:1"
         offset="0.8129741" />
      <stop
         id="stop6769"
         style="stop-color:#a0a0a0;stop-opacity:1"
         offset="0.91870362" />
      <stop
         id="stop6771"
         style="stop-color:#c8c8c8;stop-opacity:1"
         offset="0.98263478" />
      <stop
         id="stop6773"
         style="stop-color:#dcdcdc;stop-opacity:1"
         offset="1" />
    </linearGradient>
    <linearGradient
       id="linearGradient6369">
      <stop
         id="stop6371"
         style="stop-color:#8e8e8e;stop-opacity:1"
         offset="0" />
      <stop
         id="stop6373"
         style="stop-color:#737373;stop-opacity:1"
         offset="0.51944989" />
      <stop
         id="stop6375"
         style="stop-color:#5a5a5a;stop-opacity:1"
         offset="0.68466324" />
      <stop
         id="stop6377"
         style="stop-color:#5a5a5a;stop-opacity:1"
         offset="0.7648505" />
      <stop
         id="stop6379"
         style="stop-color:#595959;stop-opacity:1"
         offset="0.91404903" />
      <stop
         id="stop6381"
         style="stop-color:#555;stop-opacity:1"
         offset="1" />
    </linearGradient>
    <linearGradient
       id="linearGradient2264">
      <stop
         id="stop2266"
         style="stop-color:#d7e866;stop-opacity:1"
         offset="0" />
      <stop
         id="stop2268"
         style="stop-color:#8cab2a;stop-opacity:1"
         offset="1" />
    </linearGradient>
    <linearGradient
       x1="10.865535"
       y1="47.685928"
       x2="21.079702"
       y2="23.251602"
       id="linearGradient5550"
       xlink:href="#linearGradient6761"
       gradientUnits="userSpaceOnUse"
       gradientTransform="matrix(0.3656424,0,0,0.3485887,-2.7266039,-1.6247035)" />
    <linearGradient
       x1="13.340408"
       y1="48.039482"
       x2="22.516865"
       y2="20.627432"
       id="linearGradient5552"
       xlink:href="#linearGradient6369"
       gradientUnits="userSpaceOnUse"
       gradientTransform="matrix(0.3656424,0,0,0.3485887,-2.7266039,-1.6247035)" />
    <linearGradient
       x1="39.787907"
       y1="12.287908"
       x2="43.348965"
       y2="16.181141"
       id="linearGradient5556"
       xlink:href="#linearGradient2264"
       gradientUnits="userSpaceOnUse"
       gradientTransform="matrix(0.3833175,0,0,0.4209693,-3.4872922,-3.0557874)" />
    <radialGradient
       cx="10.949418"
       cy="4.2552104"
       r="2.214545"
       fx="10.949418"
       fy="4.2552104"
       id="radialGradient6336"
       xlink:href="#linearGradient6330"
       gradientUnits="userSpaceOnUse"
       gradientTransform="matrix(1,0,0,0.9997359,0,9.0906782e-4)" />
    <radialGradient
       cx="4.9802194"
       cy="9.1622343"
       r="4.5504088"
       fx="4.9802194"
       fy="9.1622343"
       id="radialGradient6338"
       xlink:href="#linearGradient6330"
       gradientUnits="userSpaceOnUse"
       gradientTransform="matrix(0.7321669,-3.8551766e-8,2.2292895e-8,0.4233819,1.3338673,6.0905092)" />
  </defs>
  <g
     id="g6340">
    <path
       d="m 10.876748,9.6107957 c -0.05884,-0.3402825 -0.179931,-0.6905876 -0.321482,-0.9865003 -0.0071,-0.017965 -0.01643,-0.037158 -0.02864,-0.057689 -0.0508,-0.1014492 -0.103514,-0.1960527 -0.157092,-0.2800229 -0.08274,-0.1773522 -0.142088,-0.3848954 -0.142088,-0.6504962 0,-1.2321749 0.108321,-1.5268662 0.297605,-1.7028715 0.340951,-0.3173037 0.504599,-0.8074358 0.157595,-1.1303604 -0.13631,-0.126873 -0.291838,-0.1911646 -0.462029,-0.1911646 -0.218676,0 -0.4528702,0.1103713 -0.6769245,0.3190137 -0.489343,0.3874616 -0.3197692,1.2228863 -0.3197692,1.9715293 0,0.3426055 -0.7272487,0.5851032 -1.0189384,0.6525716 -0.8506777,0.0033 -3.2693702,0.1257738 -4.0557927,1.1972192 -0.7087155,0.9651083 -3.62911782,5.7358924 -3.62911782,6.4957794 0,0.06747 0.0588541,0.122229 0.13135399,0.122229 1.22943813,0 9.59872963,-4.210371 9.93507963,-4.515695 0.285775,-0.259613 0.386263,-0.689609 0.29024,-1.2435423 z"
       id="path5611"
       style="fill:url(#XMLID_8_);stroke-width:1;stroke-miterlimit:4;stroke-dasharray:none" />
    <path
       d="M 13.188037,0.76799818 C 12.134091,1.4542378 9.824564,3.7195675 9.5910723,4.3565479 9.4151224,4.5364432 9.507917,5.9566058 9.7524433,6.1363556 L 10.327072,6.292549 c 0.364474,0.3725753 1.310581,0.1705312 1.553856,-0.04206 0.870836,-0.7103545 3.07082,-2.9085996 3.298868,-3.3310048 0.364465,-0.5325663 0.450555,-1.4871664 0.08595,-1.8597445 l -0.30041,-0.30717593 c -0.36432,-0.37228672 -1.170447,-0.30367123 -1.777299,0.0154344 z"
       id="path5613"
       style="fill:url(#linearGradient5556);fill-opacity:1;stroke:#3d7406;stroke-width:1.0001123;stroke-miterlimit:4;stroke-opacity:1;stroke-dasharray:none;display:inline;enable-background:new" />
    <path
       d="m 10.359873,5.1564561 c 1.159051,-1.3645752 2.286071,-2.656899 3.42909,-3.4279204"
       id="path5615"
       style="opacity:0.6;fill:none;stroke:url(#radialGradient6336);stroke-width:1;stroke-linecap:round;stroke-linejoin:miter;stroke-miterlimit:4;stroke-opacity:1;stroke-dasharray:none" />
    <path
       d="M 10.116596,5.3797484 C 9.9159616,5.3783525 9.7133813,5.4917522 9.5452883,5.6520845 9.1863377,5.9941312 9.2824695,6.3939497 9.2824695,7.5911097 c 0,0.3507796 -0.9604384,0.7298593 -1.1997571,0.7298593 -0.011843,-1.343e-4 -0.022324,0 -0.0343,0 -0.7654834,0 -3.256405,0.1023888 -4.0220531,1.1002291 -0.7656261,0.9978429 -3.63357102,5.5329989 -3.63357102,6.1983479 1.14839522,0 9.49015792,-3.952909 9.91807172,-4.324681 0.517594,-0.449798 0.265927,-1.3567276 -0.06859,-1.9608123 0.0023,-0.00281 -0.0014,-0.00753 0,-0.010894 0.0093,-0.021833 0.0069,-0.050824 -0.02284,-0.098038 C 10.040152,8.9402003 9.9451968,8.6547824 9.9451968,8.2556073 c 0,-1.0075783 0.1112812,-1.5223651 0.3770892,-1.775622 C 10.561603,6.2518298 10.773138,5.8205707 10.470823,5.5322587 10.357464,5.4241401 10.236954,5.3805909 10.116596,5.3797484 z"
       id="path5617"
       style="fill:url(#linearGradient5550);fill-opacity:1;stroke:url(#linearGradient5552);stroke-width:0.75947136;stroke-linejoin:round;stroke-miterlimit:4;stroke-opacity:1;stroke-dasharray:none" />
    <path
       d="m 10.34303,5.756351 c -0.274367,0.2552119 -0.4807101,0.8326167 -0.4807101,1.8479587 0,0.402251 0.3572471,0.7211403 0.5423051,1.0083753 0.377447,0.5855917 -2.6397667,-0.9465301 -2.2779066,-0.9465301 0.2470409,0 1.2285018,-0.3493245 1.2285018,-0.7028075 0,-1.2063857 -0.089172,-1.6015467 0.2813554,-1.9462275 C 9.9141855,4.758609 10.277747,4.5988567 10.589808,4.8893918 10.901847,5.1799257 10.589945,5.5264409 10.34303,5.756351 z"
       id="path5619"
       style="fill:url(#XMLID_12_);stroke-width:1;stroke-miterlimit:4;stroke-dasharray:none" />
    <path
       d="m 8.1565223,7.6769103 c -0.7591194,0 -3.1397292,0.110006 -3.8989856,1.1440507 C 3.5311102,9.8103916 0.89334215,14.14849 0.6669241,15.135843 0.6896253,15.351207 3.4708287,14.105833 5.6804259,13.059444 7.9814445,11.969785 10.231385,10.88795 10.44796,10.691287 11.207194,10.001925 10.380428,8.3159183 10.001005,8.1435774 9.6214567,7.9713585 8.9186677,7.5511399 8.1565223,7.6769103 z"
       id="path5621"
       style="fill:url(#XMLID_13_);stroke-width:1;stroke-miterlimit:4;stroke-dasharray:none" />
    <path
       d="M 8.2783984,7.6505104 C 8.6785696,7.5787624 9.3552202,7.272705 9.3552202,6.9633474 l 0.5640924,0.2687777 c 0,0.6228715 0.1388334,0.9343089 0.3624994,1.2013755 0.03403,0.055735 -2.060532,-0.7728455 -2.0034136,-0.7829902 z"
       id="path5623"
       style="fill:url(#XMLID_14_);stroke-width:1;stroke-miterlimit:4;stroke-dasharray:none" />
    <path
       d="M 8.7105317,9.0430722 C 8.6996492,9.0429398 5.6053406,9.2568198 4.7600754,9.919568 3.545288,11.769282 3.1275932,11.906324 2.1173106,14.083693 5.061065,12.867681 7.2555661,11.792547 10.218128,10.410987"
       id="path5625"
       style="opacity:0.6;fill:none;stroke:url(#radialGradient6338);stroke-width:1;stroke-linejoin:miter;stroke-miterlimit:4;stroke-opacity:1;stroke-dasharray:none;display:inline;enable-background:new" />
  </g>
</svg>
