<?xml version="1.0" encoding="UTF-8" standalone="no"?>
<!-- Created with Inkscape (http://www.inkscape.org/) -->

<svg
   xmlns:svg="http://www.w3.org/2000/svg"
   xmlns="http://www.w3.org/2000/svg"
   version="1.0"
   width="24"
   height="24"
   id="svg4585">
  <defs
     id="defs4587" />
  <g
     transform="translate(0,2)"
     id="layer3"
     style="display:inline">
    <path
       d="m 8.0080393,17.012263 2.0428337,0 0,0.999999 -2.0428337,0 0,-0.999999 z"
       id="path3694"
       style="opacity:0.5;fill:#606060;fill-opacity:1;fill-rule:nonzero;stroke:none" />
    <path
       d="m 12.038846,17.012263 2.014309,0 0,0.999999 -2.042833,0 0.02852,-0.999999 z"
       id="path3696"
       style="opacity:0.5;fill:#606060;fill-opacity:1;fill-rule:nonzero;stroke:none" />
    <path
       d="m 16.012608,17.012264 2.016321,0 -0.01517,0.999999 -2.001143,0 -8e-6,-0.999999 z"
       id="path3698"
       style="opacity:0.5;fill:#606060;fill-opacity:1;fill-rule:nonzero;stroke:none" />
    <path
       d="m 22.016018,17.012263 0,0.999999 -2.012613,0 0.02601,-0.999966 1.986603,-3.3e-5 z"
       id="path3700"
       style="opacity:0.5;fill:#606060;fill-opacity:1;fill-rule:nonzero;stroke:none" />
    <path
       d="m 4.5010242,10.452023 0.041691,3.376929 m -5e-7,4.169048 0,-3.960596 -3.0850957,-3.54369 6.2535723,0 -3.1267862,3.585381"
       id="path3657"
       style="opacity:0.51999996;fill:none;stroke:#606060;stroke-width:1px;stroke-linecap:butt;stroke-linejoin:bevel;stroke-opacity:1" />
  </g>
</svg>
