<?xml version="1.0" encoding="UTF-8" standalone="no"?>
<!-- Created with Inkscape (http://www.inkscape.org/) -->

<svg
   xmlns:svg="http://www.w3.org/2000/svg"
   xmlns="http://www.w3.org/2000/svg"
   xmlns:xlink="http://www.w3.org/1999/xlink"
   version="1.0"
   width="48"
   height="48"
   id="svg3314">
  <defs
     id="defs3316">
    <linearGradient
       id="linearGradient4608">
      <stop
         id="stop4610"
         style="stop-color:#ffed8c;stop-opacity:1"
         offset="0" />
      <stop
         id="stop4612"
         style="stop-color:#fb9858;stop-opacity:1"
         offset="0.20411295" />
      <stop
         id="stop4614"
         style="stop-color:#dc572a;stop-opacity:1"
         offset="1" />
    </linearGradient>
    <linearGradient
       id="linearGradient4526">
      <stop
         id="stop4528"
         style="stop-color:#bb5121;stop-opacity:1"
         offset="0" />
      <stop
         id="stop4530"
         style="stop-color:#bb5121;stop-opacity:0"
         offset="1" />
    </linearGradient>
    <linearGradient
       id="linearGradient3856">
      <stop
         id="stop3858"
         style="stop-color:#ffffff;stop-opacity:1"
         offset="0" />
      <stop
         id="stop3860"
         style="stop-color:#ffffff;stop-opacity:0"
         offset="1" />
    </linearGradient>
    <linearGradient
       id="linearGradient3174">
      <stop
         id="stop3176"
         style="stop-color:#ffed8c;stop-opacity:1"
         offset="0" />
      <stop
         id="stop3178"
         style="stop-color:#fb9858;stop-opacity:1"
         offset="0.39698008" />
      <stop
         id="stop3180"
         style="stop-color:#dc572a;stop-opacity:1"
         offset="1" />
    </linearGradient>
    <linearGradient
       id="linearGradient2490-113">
      <stop
         id="stop3468"
         style="stop-color:#791116;stop-opacity:1"
         offset="0" />
      <stop
         id="stop3470"
         style="stop-color:#dd7126;stop-opacity:1"
         offset="1" />
    </linearGradient>
    <linearGradient
       x1="25.397005"
       y1="27.309961"
       x2="2.0998549"
       y2="-17.847105"
       id="linearGradient4156"
       xlink:href="#linearGradient2490-113"
       gradientUnits="userSpaceOnUse" />
    <linearGradient
       x1="-13.14415"
       y1="-30.373207"
       x2="14.22819"
       y2="18.948936"
       id="linearGradient4164"
       xlink:href="#linearGradient3174"
       gradientUnits="userSpaceOnUse" />
    <linearGradient
       id="linearGradient3174-2">
      <stop
         id="stop3176-6"
         style="stop-color:#ffed8c;stop-opacity:1"
         offset="0" />
      <stop
         id="stop3178-1"
         style="stop-color:#fb9858;stop-opacity:1"
         offset="0.39698008" />
      <stop
         id="stop3180-0"
         style="stop-color:#dc572a;stop-opacity:1"
         offset="1" />
    </linearGradient>
    <linearGradient
       id="linearGradient2490-113-5">
      <stop
         id="stop3468-0"
         style="stop-color:#791116;stop-opacity:1"
         offset="0" />
      <stop
         id="stop3470-3"
         style="stop-color:#dd7126;stop-opacity:1"
         offset="1" />
    </linearGradient>
    <linearGradient
       x1="-12.066075"
       y1="-31.199175"
       x2="14.22819"
       y2="18.948936"
       id="linearGradient4226"
       xlink:href="#linearGradient3174-2"
       gradientUnits="userSpaceOnUse" />
    <linearGradient
       x1="15.1553"
       y1="9.3502541"
       x2="2.0998549"
       y2="-17.847105"
       id="linearGradient4228"
       xlink:href="#linearGradient2490-113"
       gradientUnits="userSpaceOnUse" />
    <linearGradient
       x1="-7.0456409"
       y1="-24.754354"
       x2="12.608274"
       y2="28.468287"
       id="linearGradient4230"
       xlink:href="#linearGradient3174-2"
       gradientUnits="userSpaceOnUse" />
    <linearGradient
       x1="25.397005"
       y1="27.309961"
       x2="2.0998549"
       y2="-17.847105"
       id="linearGradient4232"
       xlink:href="#linearGradient2490-113-5"
       gradientUnits="userSpaceOnUse" />
    <linearGradient
       x1="-13.14415"
       y1="-30.373207"
       x2="14.22819"
       y2="18.948936"
       id="linearGradient4234"
       xlink:href="#linearGradient3174-2"
       gradientUnits="userSpaceOnUse" />
    <linearGradient
       x1="25.397005"
       y1="27.309961"
       x2="2.0998549"
       y2="-17.847105"
       id="linearGradient4236"
       xlink:href="#linearGradient2490-113-5"
       gradientUnits="userSpaceOnUse" />
    <linearGradient
       x1="-13.14415"
       y1="-30.373207"
       x2="14.22819"
       y2="18.948936"
       id="linearGradient4317"
       xlink:href="#linearGradient3174"
       gradientUnits="userSpaceOnUse" />
    <linearGradient
       x1="25.397005"
       y1="27.309961"
       x2="2.0998549"
       y2="-17.847105"
       id="linearGradient4319"
       xlink:href="#linearGradient2490-113"
       gradientUnits="userSpaceOnUse" />
    <linearGradient
       x1="-13.14415"
       y1="-30.373207"
       x2="14.22819"
       y2="18.948936"
       id="linearGradient4321"
       xlink:href="#linearGradient3174"
       gradientUnits="userSpaceOnUse" />
    <linearGradient
       x1="25.397005"
       y1="27.309961"
       x2="2.0998549"
       y2="-17.847105"
       id="linearGradient4323"
       xlink:href="#linearGradient2490-113"
       gradientUnits="userSpaceOnUse" />
    <linearGradient
       x1="8.0466108"
       y1="2.8678725"
       x2="35.059322"
       y2="39.732277"
       id="linearGradient4333"
       xlink:href="#linearGradient3174-2"
       gradientUnits="userSpaceOnUse" />
    <linearGradient
       id="linearGradient3174-2-5">
      <stop
         id="stop3176-6-2"
         style="stop-color:#ffed8c;stop-opacity:1"
         offset="0" />
      <stop
         id="stop3178-1-6"
         style="stop-color:#fb9858;stop-opacity:1"
         offset="0.39698008" />
      <stop
         id="stop3180-0-3"
         style="stop-color:#dc572a;stop-opacity:1"
         offset="1" />
    </linearGradient>
    <linearGradient
       x1="11.134345"
       y1="-62.125977"
       x2="2.6783648"
       y2="20.140846"
       id="linearGradient4422"
       xlink:href="#linearGradient3856"
       gradientUnits="userSpaceOnUse"
       gradientTransform="matrix(0.89457096,0,0,0.81618259,8.0590641,27.646819)" />
    <linearGradient
       x1="8.1864405"
       y1="25.588984"
       x2="10.449149"
       y2="32.783897"
       id="linearGradient4476"
       xlink:href="#linearGradient3174-2-5"
       gradientUnits="userSpaceOnUse" />
    <linearGradient
       x1="4.5302777"
       y1="42.615803"
       x2="3.3797307"
       y2="41.411327"
       id="linearGradient4532"
       xlink:href="#linearGradient4526"
       gradientUnits="userSpaceOnUse" />
    <linearGradient
       x1="11.780275"
       y1="43.491077"
       x2="13.767029"
       y2="26.745613"
       id="linearGradient4544"
       xlink:href="#linearGradient3174-2-5"
       gradientUnits="userSpaceOnUse" />
    <linearGradient
       x1="9.2796593"
       y1="27.002371"
       x2="17.852644"
       y2="15.053218"
       id="linearGradient4606"
       xlink:href="#linearGradient4608"
       gradientUnits="userSpaceOnUse" />
    <linearGradient
       x1="5.90554"
       y1="34.049622"
       x2="13.696926"
       y2="43.876225"
       id="linearGradient4622"
       xlink:href="#linearGradient4608"
       gradientUnits="userSpaceOnUse" />
    <linearGradient
       x1="0.2437693"
       y1="-52.611412"
       x2="15.440343"
       y2="6.9508448"
       id="linearGradient2942"
       xlink:href="#linearGradient3856"
       gradientUnits="userSpaceOnUse"
       gradientTransform="matrix(1.0672239,-0.38297192,0,1.0672239,31.366963,31.176838)" />
  </defs>
  <g
     id="g4646">
    <g
       transform="matrix(1.0672239,-0.38297192,0,1.0672239,27.597335,28.452761)"
       id="text4030"
       style="font-size:40px;font-style:normal;font-variant:normal;font-weight:normal;font-stretch:normal;fill:url(#linearGradient4164);fill-opacity:1;stroke:url(#linearGradient4156);stroke-opacity:1;font-family:Helvetica Neue;-inkscape-font-specification:Helvetica Neue">
      <path
         d="m -24.368207,-1.987315 0,0.12 c 0,5.3999946 2.720005,8.72 8.2,8.72 7.839992,0 9.3999998,-4.8000038 9.3999998,-8.6 0,-3.5599964 -1.4000036,-6.1200005 -5.0399998,-6.68 l 0,-0.08 c 2.6799972,-0.5999994 4.3199998,-2.840003 4.3199998,-6.24 0,-4.999995 -3.0400048,-7.28 -8.1599998,-7.28 -5.359995,0 -8.32,2.800006 -8.32,8.36 l 5.28,0 c 0,-2.679997 0.440002,-4.6 2.92,-4.6 1.879998,0 2.76,1.080003 2.76,3.72 0,2.319998 -0.880003,4.48 -3.28,4.48 l -1.88,0 0,3.76 1.92,0 c 3.159997,0 3.72,2.3200026 3.72,4.84 0,2.4799976 -0.360003,4.56 -3.16,4.56 -2.519998,0 -3.08,-1.8000032 -3.16,-5.08 l -5.52,0"
         id="path4035"
         style="font-weight:bold;fill:url(#linearGradient4317);fill-opacity:1;stroke:url(#linearGradient4319);stroke-opacity:1;-inkscape-font-specification:Adobe Caslon Bold" />
      <path
         d="m -3.6694572,6.292685 9.08,0 c 7.6399922,0 9.8000002,-4.5600101 9.8000002,-14.68 0,-8.399992 -1.440008,-13.88 -9.4400002,-13.88 l -9.44,0 0,28.56 m 5.76,-24.32 2.44,0 c 4.3999956,0 4.92,3.320007 4.92,9.8 0,7.75999227 -0.800004,10.28 -4.8,10.28 l -2.56,0 0,-20.08"
         id="path4037"
         style="font-weight:bold;fill:url(#linearGradient4321);fill-opacity:1;stroke:url(#linearGradient4323);stroke-opacity:1;-inkscape-font-specification:Adobe Caslon Bold" />
    </g>
    <g
       transform="matrix(1.0672239,-0.38297192,0,1.0672239,30.342483,30.429863)"
       id="text4030-4"
       style="font-size:40px;font-style:normal;font-variant:normal;font-weight:normal;font-stretch:normal;fill:url(#linearGradient4234);fill-opacity:1;stroke:url(#linearGradient4236);stroke-opacity:1;font-family:Helvetica Neue;-inkscape-font-specification:Helvetica Neue">
      <path
         d="m -24.368207,-1.987315 0,0.12 c 0,5.3999946 2.720005,8.72 8.2,8.72 7.839992,0 9.3999998,-4.8000038 9.3999998,-8.6 0,-3.5599964 -1.4000036,-6.1200005 -5.0399998,-6.68 l 0,-0.08 c 2.6799972,-0.5999994 4.3199998,-2.840003 4.3199998,-6.24 0,-4.999995 -3.0400048,-7.28 -8.1599998,-7.28 -5.359995,0 -8.32,2.800006 -8.32,8.36 l 5.28,0 c 0,-2.679997 0.440002,-4.6 2.92,-4.6 1.879998,0 2.76,1.080003 2.76,3.72 0,2.319998 -0.880003,4.48 -3.28,4.48 l -1.88,0 0,3.76 1.92,0 c 3.159997,0 3.72,2.3200026 3.72,4.84 0,2.4799976 -0.360003,4.56 -3.16,4.56 -2.519998,0 -3.08,-1.8000032 -3.16,-5.08 l -5.52,0"
         id="path4035-7"
         style="font-weight:bold;fill:url(#linearGradient4226);fill-opacity:1;stroke:url(#linearGradient4228);stroke-opacity:1;-inkscape-font-specification:Adobe Caslon Bold" />
      <path
         d="m -3.6694572,6.292685 9.08,0 c 7.6399922,0 9.8000002,-4.5600101 9.8000002,-14.68 0,-8.399992 -1.440008,-13.88 -9.4400002,-13.88 l -9.44,0 0,28.56 m 5.76,-24.32 2.44,0 c 4.3999956,0 4.92,3.320007 4.92,9.8 0,7.75999227 -0.800004,10.28 -4.8,10.28 l -2.56,0 0,-20.08"
         id="path4037-0"
         style="font-weight:bold;fill:url(#linearGradient4230);fill-opacity:1;stroke:url(#linearGradient4232);stroke-opacity:1;-inkscape-font-specification:Adobe Caslon Bold" />
    </g>
    <path
       d="m 4.2680644,24.170398 c 0,0 0.3341221,-5.2217 3.1385795,-8.026158 2.8044571,-2.804457 7.8380991,-4.31455 7.8380991,-4.31455 0,0 1.787242,-0.354698 2.732548,-0.323591 0.417018,0.01372 1.293895,0.163392 1.293895,0.163392 l 1.296611,0.483051 c 0,0 -3.000001,-1.233051 -3.81356,-1.360169 -0.813559,-0.127119 -1.245762,-0.20339 -2.237288,-0.177966 -0.991525,0.02542 -2.580508,0.305085 -5.3389828,1.652543 -3.4022179,1.661913 -4.3220339,3.432202 -4.3220339,3.432202 -0.4351178,0.612342 -0.5432825,0.8245 -0.9279664,1.423725 -0.6101693,1.093225 -1.1019111,2.510529 -1.366338,4.273371 -0.038136,0.254237 -0.1038761,1.441332 -0.1038761,1.441332 l 1.8103126,1.332818 z"
       id="path4325"
       style="fill:url(#linearGradient4333);fill-opacity:1;stroke:none" />
    <path
       d="M 1.5999792,22.238542 1.4921152,23.748634 4.260618,25.744114 4.242641,24.126157 1.5999792,22.238542 z"
       id="path4335"
       style="fill:#dd7126;fill-opacity:1;stroke:none" />
    <path
       d="m 17.753266,10.145519 -0.17142,0.874499 2.908333,2.237005 0.236257,-0.95694 -2.97317,-2.154564 z"
       id="path4335-7"
       style="fill:#dd7126;fill-opacity:1;stroke:none" />
    <path
       d="m 5.2765406,38.314984 0,0.104525 c 0,4.703664 2.9910394,6.298856 8.1845334,4.473116 4.07812,-1.433636 8.370124,-6.177494 8.770861,-9.46313 0.762711,-6.253476 -1.870493,-6.95254 -5.345625,-6.302556 l -0.127118,-1.798493 c 2.558613,-1.360329 4.923137,-4.613518 4.8362,-7.573808 -0.152542,-5.194227 -2.902315,-5.391013 -7.790412,-3.790629 -5.1172277,1.675403 -7.9431667,5.03957 -7.9431667,9.8826 l 3.7696683,-1.345313 c 0,-2.334411 0.318378,-5.56809 4.0843564,-6.648361 1.815386,-0.520743 3.957027,0.357691 3.855332,3.953868 -0.05712,2.020026 -1.679128,6.16042 -3.970424,6.910599 l -1.79485,0.587641 0.07627,2.029384 2.443208,-0.778111 c 3.932128,0.334298 3.706899,3.504618 3.60236,5.697169 -0.228028,4.782524 -1.754566,5.856099 -4.415181,6.586843 -2.441127,0.670461 -4.0082959,-1.062789 -4.0846729,-3.894823 l -4.1513405,1.369483"
       id="path4035-7-4"
       style="font-size:40px;font-style:normal;font-variant:normal;font-weight:bold;font-stretch:normal;fill:none;stroke:url(#linearGradient4422);stroke-width:0.91191965;stroke-opacity:1;font-family:Helvetica Neue;-inkscape-font-specification:Adobe Caslon Bold" />
    <path
       d="m 8.2066634,24.33196 -0.107864,1.510092 2.7685026,1.99548 -0.01798,-1.617957 -2.6426616,-1.887615 z"
       id="path4335-2"
       style="fill:#dd7126;fill-opacity:1;stroke:none" />
    <path
       d="m 7.7744601,27.916706 -0.107864,1.510092 2.7685019,1.99548 -0.01798,-1.617957 -2.6426609,-1.887615 z"
       id="path4335-2-3"
       style="fill:#dd7126;fill-opacity:1;stroke:none" />
    <path
       d="m 8.7457627,26.288136 -0.025424,2.466101 1.7033903,1.118644 0.02542,-2.313559 -1.5762719,-1.245763 -0.1271187,-0.02542 z"
       id="path4468"
       style="fill:url(#linearGradient4476);fill-opacity:1;stroke:none" />
    <path
       d="m 15.330508,23.059322 c -0.101694,0.05085 -0.559322,0.838983 -0.559322,0.838983 l -0.48305,0.635593 c 0,0 -0.81356,0.02542 -0.737289,-0.101695 0.07627,-0.127118 0.788136,-1.09322 0.788136,-1.09322 l 0.991525,-0.279661 z"
       id="path4478"
       style="fill:#fcaa63;fill-opacity:1;stroke:none" />
    <path
       d="m 1.6727656,35.111621 -0.107864,1.510092 2.7685021,1.99548 -0.01798,-1.617957 -2.6426611,-1.887615 z"
       id="path4335-2-3-3"
       style="fill:#d36724;fill-opacity:1;stroke:none" />
    <path
       d="m 7.9553901,32.848909 -0.1108275,1.575803 1.4065901,1.075583 1.4916123,-0.663656 -2.7873749,-1.98773 z"
       id="path4335-2-3-3-5"
       style="fill:#d36724;fill-opacity:1;stroke:none" />
    <path
       d="M 3.0381622,41.833789 6.0403698,44.062973 6.5257567,43.28995 3.6493901,41.168629 3.0381622,41.833789 z"
       id="path4524"
       style="fill:url(#linearGradient4532);fill-opacity:1;stroke:none" />
    <path
       d="m 7.3706893,34.049622 1.851661,1.366274 -4.8808345,1.608968 -1.7527859,-1.231445 4.7819594,-1.743797 z"
       id="path4534"
       style="fill:url(#linearGradient4622);fill-opacity:1;stroke:none" />
    <path
       d="m 14.633515,30.130573 c 0,0 2.20376,-0.700586 1.833684,4.781959 -0.349705,5.180755 -4.601607,4.479708 -4.566232,4.530277 L 11.02497,38.190568 c 0.01077,0.0154 2.294268,-0.404395 3.356863,-3.349945 0.692919,-1.920796 0.287637,-4.602187 0.251682,-4.71005 z"
       id="path4536"
       style="fill:url(#linearGradient4544);fill-opacity:1;stroke:none" />
    <path
       d="m 23.740562,6.0268749 -0.107864,1.510092 2.768503,1.99548 -0.01798,-1.617957 -2.642662,-1.887615 z"
       id="path4335-71"
       style="fill:#dd7126;fill-opacity:1;stroke:none" />
    <path
       d="m 23.38463,35.72179 -0.107864,1.510092 2.768503,1.99548 -0.01798,-1.617957 -2.642662,-1.887615 z"
       id="path4335-71-0"
       style="fill:#bc5121;fill-opacity:1;stroke:none" />
    <path
       d="m 24.228814,34.855932 -0.05085,1.398305 1.728814,1.29661 -0.05085,-3.305084 -1.627118,0.610169 z"
       id="path4596"
       style="fill:#f18349;fill-opacity:1;stroke:none" />
    <path
       d="m 14.211862,17.262712 c 0,0 1.65365,-0.494125 1.741528,1.665254 0.08898,2.186441 0.08285,1.787188 -0.139833,2.631356 -0.295002,1.118299 -0.762712,2.338983 -1.652542,3.050847 -0.889831,0.711865 -2.084746,1.093221 -2.084746,1.093221 l -1.728813,-1.29661 c 0,0 2.262712,-0.61017 3.177966,-3.000001 0.915254,-2.38983 0.68644,-4.118643 0.68644,-4.144067 z"
       id="path4598"
       style="fill:url(#linearGradient4606);fill-opacity:1;stroke:none" />
    <path
       d="M 40.215197,1.41185 39.909586,2.4006006 42.660112,4.2882168 43.705347,3.7892139 40.215197,1.41185 z"
       id="path4335-71-2"
       style="fill:#dd7126;fill-opacity:1;stroke:none" />
  </g>
  <path
     d="m 27.094899,37.213095 9.74124,-3.629927 C 42.396501,30.96235 46.069511,25.406888 45.56612,16.146247 45.297213,11.199299 46.063207,2.1388988 37.525425,5.2026712 L 27.450831,8.8179262 27.399984,37.31479 m 3.528564,-27.4743631 4.25657,-1.3666545 c 4.69578,-1.685075 6.293115,1.0742233 6.293115,7.9898266 0,8.281649 -0.879208,13.591 -5.148099,15.122886 l -4.969382,1.74312 0,-23.6671443"
     id="path4037-0-9"
     style="font-size:40px;font-style:normal;font-variant:normal;font-weight:bold;font-stretch:normal;fill:none;stroke:url(#linearGradient2942);stroke-width:1.06722391;stroke-opacity:1;font-family:Helvetica Neue;-inkscape-font-specification:Adobe Caslon Bold" />
</svg>
