<?xml version="1.0" encoding="UTF-8" standalone="no"?>
<!-- Created with Inkscape (http://www.inkscape.org/) -->

<svg
   xmlns:svg="http://www.w3.org/2000/svg"
   xmlns="http://www.w3.org/2000/svg"
   xmlns:xlink="http://www.w3.org/1999/xlink"
   version="1.0"
   width="24"
   height="24"
   id="svg2755">
  <defs
     id="defs2757">
    <linearGradient
       id="linearGradient5048">
      <stop
         id="stop5050"
         style="stop-color:#000000;stop-opacity:0"
         offset="0" />
      <stop
         id="stop5056"
         style="stop-color:#000000;stop-opacity:1"
         offset="0.5" />
      <stop
         id="stop5052"
         style="stop-color:#000000;stop-opacity:0"
         offset="1" />
    </linearGradient>
    <linearGradient
       x1="302.85715"
       y1="366.64789"
       x2="302.85715"
       y2="609.50507"
       id="linearGradient2673"
       xlink:href="#linearGradient5048"
       gradientUnits="userSpaceOnUse"
       gradientTransform="matrix(0.0352071,0,0,0.00823529,-0.724852,18.980551)" />
    <radialGradient
       cx="605.71429"
       cy="486.64789"
       r="117.14286"
       fx="605.71429"
       fy="486.64789"
       id="radialGradient2670"
       xlink:href="#linearGradient5060"
       gradientUnits="userSpaceOnUse"
       gradientTransform="matrix(-0.01204859,0,0,0.00823529,10.761206,18.980568)" />
    <linearGradient
       id="linearGradient5060">
      <stop
         id="stop5062"
         style="stop-color:#000000;stop-opacity:1"
         offset="0" />
      <stop
         id="stop5064"
         style="stop-color:#000000;stop-opacity:0"
         offset="1" />
    </linearGradient>
    <radialGradient
       cx="605.71429"
       cy="486.64789"
       r="117.14286"
       fx="605.71429"
       fy="486.64789"
       id="radialGradient2667"
       xlink:href="#linearGradient5060"
       gradientUnits="userSpaceOnUse"
       gradientTransform="matrix(0.01204859,0,0,0.00823529,13.238794,18.980568)" />
    <linearGradient
       x1="-55.613251"
       y1="44.818859"
       x2="-51.786404"
       y2="2.9062471"
       id="linearGradient2664"
       xlink:href="#linearGradient2490"
       gradientUnits="userSpaceOnUse"
       gradientTransform="matrix(0.3922135,0,0,0.4473607,29.199293,-1.2386997)" />
    <linearGradient
       id="linearGradient3211">
      <stop
         id="stop3213"
         style="stop-color:#ffffff;stop-opacity:1"
         offset="0" />
      <stop
         id="stop3215"
         style="stop-color:#ffffff;stop-opacity:0"
         offset="1" />
    </linearGradient>
    <linearGradient
       x1="24"
       y1="1.9999999"
       x2="24"
       y2="46.01725"
       id="linearGradient2656"
       xlink:href="#linearGradient3211"
       gradientUnits="userSpaceOnUse"
       gradientTransform="matrix(0.4545444,0,0,0.4651153,1.0909345,0.3372293)" />
    <linearGradient
       id="linearGradient8589">
      <stop
         id="stop8591"
         style="stop-color:#fefefe;stop-opacity:1"
         offset="0" />
      <stop
         id="stop8593"
         style="stop-color:#cbcbcb;stop-opacity:1"
         offset="1" />
    </linearGradient>
    <linearGradient
       x1="32.892288"
       y1="8.0590115"
       x2="36.358372"
       y2="5.4565363"
       id="linearGradient2652"
       xlink:href="#linearGradient8589"
       gradientUnits="userSpaceOnUse"
       gradientTransform="matrix(0.4778466,0,0,0.5524833,0.3722548,-0.0761283)" />
    <radialGradient
       cx="6.6146555"
       cy="6.8818245"
       r="8.999999"
       fx="6.6146555"
       fy="6.8818245"
       id="radialGradient3679"
       xlink:href="#linearGradient3993"
       gradientUnits="userSpaceOnUse"
       gradientTransform="matrix(0.00875064,1.8048702,-2.3300816,0.01129706,23.285599,-9.4486721)" />
    <linearGradient
       id="linearGradient3993">
      <stop
         id="stop3995"
         style="stop-color:#a3c0d0;stop-opacity:1"
         offset="0" />
      <stop
         id="stop4001"
         style="stop-color:#427da1;stop-opacity:1"
         offset="1" />
    </linearGradient>
    <linearGradient
       id="linearGradient2490">
      <stop
         id="stop2492"
         style="stop-color:#2e4a5a;stop-opacity:1"
         offset="0" />
      <stop
         id="stop2494"
         style="stop-color:#6e8796;stop-opacity:1"
         offset="1" />
    </linearGradient>
  </defs>
  <g
     id="layer1">
    <rect
       width="17"
       height="1.9999981"
       x="3.5000005"
       y="21.999998"
       id="rect2879"
       style="opacity:0.15;fill:url(#linearGradient2673);fill-opacity:1;fill-rule:nonzero;stroke:none;stroke-width:1;marker:none;visibility:visible;display:inline;overflow:visible" />
    <path
       d="m 3.5,22.000086 c 0,0 0,1.999889 0,1.999889 C 2.8795275,24.00374 2,23.551901 2,22.999901 2,22.447902 2.6924,22.000086 3.5,22.000086 z"
       id="path2881"
       style="opacity:0.15;fill:url(#radialGradient2670);fill-opacity:1;fill-rule:nonzero;stroke:none;stroke-width:1;marker:none;visibility:visible;display:inline;overflow:visible" />
    <path
       d="m 20.5,22.000086 c 0,0 0,1.999889 0,1.999889 0.620472,0.0038 1.5,-0.448074 1.5,-1.000074 0,-0.551999 -0.692401,-0.999815 -1.5,-0.999815 z"
       id="path2883"
       style="opacity:0.15;fill:url(#radialGradient2667);fill-opacity:1;fill-rule:nonzero;stroke:none;stroke-width:1;marker:none;visibility:visible;display:inline;overflow:visible" />
    <path
       d="m 3.4999617,0.49996097 c 3.8955799,0 7.6044553,0 11.5000383,0 C 15.683368,0.73725787 19.541325,3.628131 20.5,5.5 c 0,5.729157 3.9e-5,11.270881 3.9e-5,17.000039 -5.666693,0 -11.3333845,0 -17.0000773,0 0,-7.33336 0,-14.6667201 0,-22.00007803 z"
       id="path4160"
       style="fill:url(#radialGradient3679);fill-opacity:1;stroke:url(#linearGradient2664);stroke-width:0.99992162;stroke-linecap:butt;stroke-linejoin:round;stroke-miterlimit:4;stroke-opacity:1;stroke-dasharray:none;stroke-dashoffset:0;display:inline" />
    <path
       d="m 19.500001,5.6770357 c 0,5.2083053 0,10.6146573 0,15.8229643 -5,0 -9.9999998,0 -15.000001,0 0,-6.66667 0,-13.3333343 0,-20.0000001 3.4372614,0 6.956499,0 10.393761,0"
       id="path2435"
       style="opacity:0.41999996;fill:none;stroke:url(#linearGradient2656);stroke-width:0.99999988;stroke-linecap:butt;stroke-linejoin:miter;stroke-miterlimit:4;stroke-opacity:1;stroke-dasharray:none;stroke-dashoffset:0;display:inline" />
    <path
       d="m 14.075474,1 c 1.156303,0.3287671 0.339059,4.6143789 0.339059,4.6143789 0,0 4.515388,-0.4277362 5.60771,1.1949961 C 21.511396,9.0216317 19.954018,6.1742029 19.848796,5.9876778 19.092868,4.6476323 15.982456,1.4405918 14.803387,1.0464703 14.715155,1.0169778 14.519511,1 14.075474,1 z"
       id="path3370"
       style="opacity:0.3;fill:#000000;fill-opacity:1;fill-rule:evenodd;stroke:none;display:inline" />
    <path
       d="m 14,0 c 1.526166,0 1,5 1,5 0,0 6.074781,-0.45326 6.074781,2 0,-0.5977419 0.04504,-1.8225012 -0.07478,-2 -0.839107,-1.2430058 -4.670755,-4.68212189 -6,-5 -0.09048,-0.02163788 -0.555963,0 -1,0 z"
       id="path4474"
       style="fill:url(#linearGradient2652);fill-opacity:1;fill-rule:evenodd;stroke:none;display:inline" />
  </g>
  <g
     transform="translate(-1,0)"
     id="g2970">
    <g
       transform="translate(1,7)"
       id="g2897"
       style="opacity:0.81000001">
      <path
         d="M 19.5185,13.5185 4.4815,13.4815"
         id="path3296"
         style="opacity:0.15;fill:none;stroke:#ffffff;stroke-width:0.963;stroke-linecap:square;stroke-linejoin:round;stroke-miterlimit:4;stroke-opacity:1;stroke-dasharray:none" />
      <path
         d="M 19.5185,9.5185 4.4815,9.4815"
         id="path2855"
         style="opacity:0.15;fill:none;stroke:#ffffff;stroke-width:0.963;stroke-linecap:square;stroke-linejoin:round;stroke-miterlimit:4;stroke-opacity:1;stroke-dasharray:none" />
      <path
         d="M 19.5185,5.5185 4.4815,5.4815"
         id="path2861"
         style="opacity:0.15;fill:none;stroke:#ffffff;stroke-width:0.963;stroke-linecap:square;stroke-linejoin:round;stroke-miterlimit:4;stroke-opacity:1;stroke-dasharray:none" />
    </g>
    <g
       transform="translate(1,-3)"
       id="g2956"
       style="opacity:0.81000001">
      <path
         d="M 19.5185,11.5185 4.4815,11.4815"
         id="path2960"
         style="opacity:0.15;fill:none;stroke:#ffffff;stroke-width:0.963;stroke-linecap:square;stroke-linejoin:round;stroke-miterlimit:4;stroke-opacity:1;stroke-dasharray:none" />
      <path
         d="M 13.5185,7.5185 4.4815,7.4815"
         id="path2966"
         style="opacity:0.15;fill:none;stroke:#ffffff;stroke-width:0.963;stroke-linecap:square;stroke-linejoin:round;stroke-miterlimit:4;stroke-opacity:1;stroke-dasharray:none" />
    </g>
  </g>
  <g
     transform="translate(14,-2.1035461e-7)"
     id="g2984"
     style="opacity:0.81000001">
    <g
       id="g3000">
      <g
         transform="translate(-10,7.0000003)"
         id="g2890"
         style="opacity:0.81000001">
        <path
           d="M 3.5184999,-5.5180001 3.4814999,14.5185"
           id="path3332"
           style="opacity:0.15;fill:none;stroke:#ffffff;stroke-width:0.96299982;stroke-linecap:square;stroke-linejoin:round;stroke-miterlimit:4;stroke-opacity:1;stroke-dasharray:none" />
        <path
           d="M 11.5185,-5.5000001 11.4815,14.5185"
           id="path2849"
           style="opacity:0.15;fill:none;stroke:#ffffff;stroke-width:0.96299982;stroke-linecap:square;stroke-linejoin:round;stroke-miterlimit:4;stroke-opacity:1;stroke-dasharray:none" />
        <path
           d="M 7.5184999,-5.5000001 7.4814999,14.5185"
           id="path2865"
           style="opacity:0.15;fill:none;stroke:#ffffff;stroke-width:0.96299982;stroke-linecap:square;stroke-linejoin:round;stroke-miterlimit:4;stroke-opacity:1;stroke-dasharray:none" />
      </g>
    </g>
  </g>
  <path
     d="m 10.013714,8.747919 c -0.446536,0.328159 -0.393755,1.190094 0.09328,1.445221 1.110043,0.445159 1.830003,-0.186688 2.092444,-1.359084 0.0072,-0.172775 0.06613,-0.426715 -0.166474,-0.347455 -0.696752,-0.03713 -1.360681,0.0158 -2.01925,0.261318 z M 12.999999,8.163222 C 13,9.069535 13,9.975847 13,10.88216 c -0.264746,0 -0.529494,0 -0.79424,0 -0.01562,-0.200747 0.03159,-0.627807 -0.02422,-0.683827 -0.310954,0.50014 -0.853319,0.771305 -1.393363,0.797371 C 9.340127,11.072754 8.705968,10.10662 9.12895,8.640788 9.940954,7.711701 11.103554,7.873607 12.184914,7.873201 12.138414,6.322522 10.361295,6.67491 9.41478,6.982134 9.163832,7.167614 9.307938,6.714889 9.270523,6.555645 9.183673,6.206007 9.607899,6.261611 9.808052,6.159175 c 0.72901,-0.194071 1.526139,-0.25054 2.235469,0.06046 0.742864,0.401315 0.898372,1.121343 0.956477,1.943589 z"
     id="text34519"
     style="font-size:4px;font-style:normal;font-weight:normal;opacity:0.9;fill:#ffffff;fill-opacity:1;stroke:none;font-family:Bitstream Vera Sans" />
  <g
     transform="translate(2.963,7)"
     id="g2916">
    <path
       d="M 4.574,-3.5185001 4.537,1.518499"
       id="path3556"
       style="opacity:0.72000002;fill:none;stroke:#ffffff;stroke-width:1;stroke-linecap:square;stroke-linejoin:round;stroke-miterlimit:4;stroke-opacity:1;stroke-dasharray:none" />
    <path
       d="m 3.5184999,-2.5185 3.963,0.0185"
       id="path3698"
       style="opacity:0.72000002;fill:none;stroke:#ffffff;stroke-width:1;stroke-linecap:square;stroke-linejoin:round;stroke-miterlimit:4;stroke-opacity:1;stroke-dasharray:none" />
    <path
       d="M 14.426,13.518499 14.463,8.4814999"
       id="path3781"
       style="opacity:0.72000002;fill:none;stroke:#ffffff;stroke-width:1;stroke-linecap:square;stroke-linejoin:round;stroke-miterlimit:4;stroke-opacity:1;stroke-dasharray:none" />
    <path
       d="m 15.4815,12.518499 -3.963,-0.0185"
       id="path3783"
       style="opacity:0.72000002;fill:none;stroke:#ffffff;stroke-width:1;stroke-linecap:square;stroke-linejoin:round;stroke-miterlimit:4;stroke-opacity:1;stroke-dasharray:none" />
  </g>
  <path
     d="m 8.518794,14.00172 3.691817,0 0,1 -3.691817,0 0,-1 z"
     id="path3176"
     style="opacity:0.6;fill:#ffffff;fill-opacity:1;stroke:none;display:inline" />
  <path
     d="m 12.484555,14.00172 1.776154,0 0,1 -1.776154,0 0,-1 z"
     id="path3174"
     style="opacity:0.6;fill:#ffffff;fill-opacity:1;stroke:none;display:inline" />
  <path
     d="m 14.635475,14.00172 0.835125,0 0,1 -0.835125,0 0,-1 z"
     id="path3172"
     style="opacity:0.6;fill:#ffffff;fill-opacity:1;stroke:none;display:inline" />
  <path
     d="m 8.518794,12.00172 3.061572,0 0,1 -3.061572,0 0,-1 z"
     id="path3158"
     style="opacity:0.6;fill:#ffffff;fill-opacity:1;stroke:none;display:inline" />
  <path
     d="m 11.905604,12 5.083544,0 0,1 -5.083544,0 0,-1 z"
     id="path3156"
     style="opacity:0.6;fill:#ffffff;fill-opacity:1;stroke:none;display:inline" />
  <path
     d="m 8.518794,16 3.868703,0 0,1 -3.868703,0 0,-1 z"
     id="path35069"
     style="opacity:0.6;fill:#ffffff;fill-opacity:1;stroke:none;display:inline" />
  <path
     d="m 12.706949,16 1.218185,0 0,1 -1.218185,0 0,-1 0,0 z"
     id="path35067"
     style="opacity:0.6;fill:#ffffff;fill-opacity:1;stroke:none;display:inline" />
  <path
     d="m 8.518794,18 3.796419,0 0,1 -3.796419,0 0,-1 z"
     id="path35051"
     style="opacity:0.6;fill:#ffffff;fill-opacity:1;stroke:none;display:inline" />
  <path
     d="m 12.665416,18 1.759881,0 0,1 -1.759881,0 0,-1 0,0 z"
     id="path35006"
     style="opacity:0.6;fill:#ffffff;fill-opacity:1;stroke:none;display:inline" />
</svg>
