<?xml version="1.0" encoding="UTF-8" standalone="no"?>
<!-- Created with Inkscape (http://www.inkscape.org/) -->

<svg
   xmlns:svg="http://www.w3.org/2000/svg"
   xmlns="http://www.w3.org/2000/svg"
   xmlns:xlink="http://www.w3.org/1999/xlink"
   version="1.0"
   width="24"
   height="24"
   id="svg2">
  <defs
     id="defs4">
    <radialGradient
       cx="605.71429"
       cy="486.64789"
       r="117.14286"
       fx="605.71429"
       fy="486.64789"
       id="radialGradient4536"
       xlink:href="#linearGradient5060"
       gradientUnits="userSpaceOnUse"
       gradientTransform="matrix(-2.774389,0,0,1.969706,112.7623,-872.8854)" />
    <linearGradient
       id="linearGradient5060">
      <stop
         id="stop5062"
         style="stop-color:black;stop-opacity:1"
         offset="0" />
      <stop
         id="stop5064"
         style="stop-color:black;stop-opacity:0"
         offset="1" />
    </linearGradient>
    <radialGradient
       cx="605.71429"
       cy="486.64789"
       r="117.14286"
       fx="605.71429"
       fy="486.64789"
       id="radialGradient4534"
       xlink:href="#linearGradient5060"
       gradientUnits="userSpaceOnUse"
       gradientTransform="matrix(2.774389,0,0,1.969706,-1891.633,-872.8854)" />
    <linearGradient
       id="linearGradient5048">
      <stop
         id="stop5050"
         style="stop-color:black;stop-opacity:0"
         offset="0" />
      <stop
         id="stop5056"
         style="stop-color:black;stop-opacity:1"
         offset="0.5" />
      <stop
         id="stop5052"
         style="stop-color:black;stop-opacity:0"
         offset="1" />
    </linearGradient>
    <linearGradient
       x1="302.85715"
       y1="366.64789"
       x2="302.85715"
       y2="609.50507"
       id="linearGradient4532"
       xlink:href="#linearGradient5048"
       gradientUnits="userSpaceOnUse"
       gradientTransform="matrix(2.774389,0,0,1.969706,-1892.179,-872.8854)" />
    <linearGradient
       id="linearGradient3931">
      <stop
         id="stop3933"
         style="stop-color:#8d8f8a;stop-opacity:1"
         offset="0" />
      <stop
         id="stop3935"
         style="stop-color:#cbcbcb;stop-opacity:1"
         offset="1" />
    </linearGradient>
    <linearGradient
       x1="-51.786404"
       y1="50.786446"
       x2="-51.786404"
       y2="2.9062471"
       id="linearGradient4547"
       xlink:href="#linearGradient3931"
       gradientUnits="userSpaceOnUse"
       gradientTransform="matrix(0.4383743,0,0,0.4575444,31.223522,-0.7786496)" />
    <linearGradient
       id="linearGradient3600">
      <stop
         id="stop3602"
         style="stop-color:#f4f4f4;stop-opacity:1"
         offset="0" />
      <stop
         id="stop3604"
         style="stop-color:#dbdbdb;stop-opacity:1"
         offset="1" />
    </linearGradient>
    <linearGradient
       x1="25.132275"
       y1="6.7287393"
       x2="25.132275"
       y2="47.013336"
       id="linearGradient4545"
       xlink:href="#linearGradient3600"
       gradientUnits="userSpaceOnUse"
       gradientTransform="matrix(0.5428805,0,0,0.4889072,-1.0291327,-0.2337718)" />
    <linearGradient
       id="linearGradient8647">
      <stop
         id="stop8649"
         style="stop-color:#8fb1dc;stop-opacity:1"
         offset="0" />
      <stop
         id="stop8651"
         style="stop-color:#3465a4;stop-opacity:1"
         offset="1" />
    </linearGradient>
    <radialGradient
       cx="12.465816"
       cy="5.3052077"
       r="10.499999"
       fx="12.465816"
       fy="5.3052077"
       id="radialGradient6573"
       xlink:href="#linearGradient8647"
       gradientUnits="userSpaceOnUse"
       gradientTransform="matrix(0.9109341,0,0,0.7500248,0.644466,4.3744723)" />
    <radialGradient
       cx="62.225391"
       cy="-3.4420195"
       r="10.081216"
       fx="62.225391"
       fy="-3.4420195"
       id="radialGradient6627"
       xlink:href="#linearGradient8740"
       gradientUnits="userSpaceOnUse"
       gradientTransform="matrix(1,0,0,0.930233,0,-0.240141)" />
    <radialGradient
       cx="62.225391"
       cy="-3.4420195"
       r="10.081216"
       fx="62.225391"
       fy="-3.4420195"
       id="radialGradient6629"
       xlink:href="#linearGradient8740"
       gradientUnits="userSpaceOnUse"
       gradientTransform="matrix(1,0,0,0.930233,0,-0.240141)" />
    <radialGradient
       cx="62.225391"
       cy="-3.4420195"
       r="10.081216"
       fx="62.225391"
       fy="-3.4420195"
       id="radialGradient6623"
       xlink:href="#linearGradient8740"
       gradientUnits="userSpaceOnUse"
       gradientTransform="matrix(1,0,0,0.930233,0,-0.240141)" />
    <radialGradient
       cx="62.225391"
       cy="-3.4420195"
       r="10.081216"
       fx="62.225391"
       fy="-3.4420195"
       id="radialGradient6625"
       xlink:href="#linearGradient8740"
       gradientUnits="userSpaceOnUse"
       gradientTransform="matrix(1,0,0,0.930233,0,-0.240141)" />
    <radialGradient
       cx="62.225391"
       cy="-3.4420195"
       r="10.081216"
       fx="62.225391"
       fy="-3.4420195"
       id="radialGradient6619"
       xlink:href="#linearGradient8740"
       gradientUnits="userSpaceOnUse"
       gradientTransform="matrix(1,0,0,0.930233,0,-0.240141)" />
    <radialGradient
       cx="62.225391"
       cy="-3.4420195"
       r="10.081216"
       fx="62.225391"
       fy="-3.4420195"
       id="radialGradient6621"
       xlink:href="#linearGradient8740"
       gradientUnits="userSpaceOnUse"
       gradientTransform="matrix(1,0,0,0.930233,0,-0.240141)" />
    <radialGradient
       cx="62.225391"
       cy="-3.4420195"
       r="10.081216"
       fx="62.225391"
       fy="-3.4420195"
       id="radialGradient6615"
       xlink:href="#linearGradient8740"
       gradientUnits="userSpaceOnUse"
       gradientTransform="matrix(1,0,0,0.930233,0,-0.240141)" />
    <radialGradient
       cx="62.225391"
       cy="-3.4420195"
       r="10.081216"
       fx="62.225391"
       fy="-3.4420195"
       id="radialGradient6617"
       xlink:href="#linearGradient8740"
       gradientUnits="userSpaceOnUse"
       gradientTransform="matrix(1,0,0,0.930233,0,-0.240141)" />
    <radialGradient
       cx="62.225391"
       cy="-3.4420195"
       r="10.081216"
       fx="62.225391"
       fy="-3.4420195"
       id="radialGradient6611"
       xlink:href="#linearGradient8740"
       gradientUnits="userSpaceOnUse"
       gradientTransform="matrix(1,0,0,0.930233,0,0.79739)" />
    <radialGradient
       cx="62.225391"
       cy="-3.4420195"
       r="10.081216"
       fx="62.225391"
       fy="-3.4420195"
       id="radialGradient6613"
       xlink:href="#linearGradient8740"
       gradientUnits="userSpaceOnUse"
       gradientTransform="matrix(1,0,0,0.930233,0,-0.240141)" />
    <radialGradient
       cx="62.225391"
       cy="-3.4420195"
       r="10.081216"
       fx="62.225391"
       fy="-3.4420195"
       id="radialGradient6607"
       xlink:href="#linearGradient8740"
       gradientUnits="userSpaceOnUse"
       gradientTransform="matrix(1,0,0,0.930233,0,-0.240141)" />
    <radialGradient
       cx="62.225391"
       cy="-3.4420195"
       r="10.081216"
       fx="62.225391"
       fy="-3.4420195"
       id="radialGradient6609"
       xlink:href="#linearGradient8740"
       gradientUnits="userSpaceOnUse"
       gradientTransform="matrix(1,0,0,0.930233,0,-0.240141)" />
    <radialGradient
       cx="62.225391"
       cy="-3.4420195"
       r="10.081216"
       fx="62.225391"
       fy="-3.4420195"
       id="radialGradient6601"
       xlink:href="#linearGradient8740"
       gradientUnits="userSpaceOnUse"
       gradientTransform="matrix(0.891018,0,0,0.828854,1.579517,2.39052)" />
    <radialGradient
       cx="24.652573"
       cy="18.94449"
       r="8.6174498"
       fx="24.652485"
       fy="18.944481"
       id="radialGradient6599"
       xlink:href="#linearGradient8924"
       gradientUnits="userSpaceOnUse"
       gradientTransform="matrix(0.06822876,2.459669,-1.754905,0.04868429,55.12882,-46.82188)" />
    <radialGradient
       cx="62.225391"
       cy="-3.4420195"
       r="10.081216"
       fx="62.225391"
       fy="-3.4420195"
       id="radialGradient6605"
       xlink:href="#linearGradient8740"
       gradientUnits="userSpaceOnUse"
       gradientTransform="matrix(1,0,0,0.930233,0,-0.240141)" />
    <linearGradient
       id="linearGradient8924">
      <stop
         id="stop8926"
         style="stop-color:#cee14b;stop-opacity:1"
         offset="0" />
      <stop
         id="stop8928"
         style="stop-color:#9db029;stop-opacity:1"
         offset="1" />
    </linearGradient>
    <radialGradient
       cx="24.652573"
       cy="18.94449"
       r="8.6174498"
       fx="24.652485"
       fy="18.944481"
       id="radialGradient6603"
       xlink:href="#linearGradient8924"
       gradientUnits="userSpaceOnUse"
       gradientTransform="matrix(0.07657394,2.760516,-1.969551,0.05463895,60.09901,-55.47179)" />
    <radialGradient
       cx="62.225391"
       cy="-3.4420195"
       r="10.081216"
       fx="62.225391"
       fy="-3.4420195"
       id="radialGradient6593"
       xlink:href="#linearGradient8740"
       gradientUnits="userSpaceOnUse"
       gradientTransform="matrix(1,0,0,0.930233,0,0.589884)" />
    <radialGradient
       cx="25.135374"
       cy="14.542349"
       r="4.1347499"
       fx="25.135332"
       fy="14.542329"
       id="radialGradient6591"
       xlink:href="#linearGradient8930"
       gradientUnits="userSpaceOnUse"
       gradientTransform="matrix(0.159592,5.753335,-0.8072,0.0223703,32.87305,-130.867)" />
    <radialGradient
       cx="62.225391"
       cy="-3.4420195"
       r="10.081216"
       fx="62.225391"
       fy="-3.4420195"
       id="radialGradient6597"
       xlink:href="#linearGradient8740"
       gradientUnits="userSpaceOnUse"
       gradientTransform="matrix(1,0,0,0.930233,0,-0.240141)" />
    <linearGradient
       id="linearGradient8930">
      <stop
         id="stop8932"
         style="stop-color:#cee14b;stop-opacity:1"
         offset="0" />
      <stop
         id="stop8934"
         style="stop-color:#9db029;stop-opacity:1"
         offset="1" />
    </linearGradient>
    <radialGradient
       cx="25.135374"
       cy="14.542349"
       r="4.1347499"
       fx="25.135332"
       fy="14.542329"
       id="radialGradient6595"
       xlink:href="#linearGradient8930"
       gradientUnits="userSpaceOnUse"
       gradientTransform="matrix(0.159592,5.753335,-0.8072,0.0223703,32.87305,-131.6974)" />
    <radialGradient
       cx="62.225391"
       cy="-3.4420195"
       r="10.081216"
       fx="62.225391"
       fy="-3.4420195"
       id="radialGradient6585"
       xlink:href="#linearGradient8740"
       gradientUnits="userSpaceOnUse"
       gradientTransform="matrix(1,0,0,0.930233,0.311259,0.486131)" />
    <radialGradient
       cx="24.478569"
       cy="17.573915"
       r="2.9719501"
       fx="24.478539"
       fy="17.573889"
       id="radialGradient6583"
       xlink:href="#linearGradient8912"
       gradientUnits="userSpaceOnUse"
       gradientTransform="matrix(0.222034,8.004376,-0.597156,0.01656095,29.85665,-181.6002)" />
    <radialGradient
       cx="62.225391"
       cy="-3.4420195"
       r="10.081216"
       fx="62.225391"
       fy="-3.4420195"
       id="radialGradient6589"
       xlink:href="#linearGradient8740"
       gradientUnits="userSpaceOnUse"
       gradientTransform="matrix(1,0,0,0.930233,0,-0.240141)" />
    <linearGradient
       id="linearGradient8912">
      <stop
         id="stop8914"
         style="stop-color:#cee14b;stop-opacity:1"
         offset="0" />
      <stop
         id="stop8916"
         style="stop-color:#9db029;stop-opacity:1"
         offset="1" />
    </linearGradient>
    <radialGradient
       cx="24.478569"
       cy="17.573915"
       r="2.9719501"
       fx="24.478539"
       fy="17.573889"
       id="radialGradient6587"
       xlink:href="#linearGradient8912"
       gradientUnits="userSpaceOnUse"
       gradientTransform="matrix(0.222034,8.004376,-0.597156,0.01656095,29.5454,-182.3268)" />
    <radialGradient
       cx="62.225391"
       cy="-3.4420195"
       r="10.081216"
       fx="62.225391"
       fy="-3.4420195"
       id="radialGradient6577"
       xlink:href="#linearGradient8740"
       gradientUnits="userSpaceOnUse"
       gradientTransform="matrix(0.918134,0,0,0.854079,2.429764,1.490099)" />
    <radialGradient
       cx="25.969097"
       cy="17.257854"
       r="9.8222504"
       fx="25.968998"
       fy="17.257843"
       id="radialGradient6575"
       xlink:href="#linearGradient8918"
       gradientUnits="userSpaceOnUse"
       gradientTransform="matrix(0.06168149,2.223638,-1.495968,0.04148028,50.51125,-44.50839)" />
    <linearGradient
       id="linearGradient8740">
      <stop
         id="stop8742"
         style="stop-color:white;stop-opacity:1"
         offset="0" />
      <stop
         id="stop8744"
         style="stop-color:white;stop-opacity:0"
         offset="1" />
    </linearGradient>
    <radialGradient
       cx="62.225391"
       cy="-3.4420195"
       r="10.081216"
       fx="62.225391"
       fy="-3.4420195"
       id="radialGradient6581"
       xlink:href="#linearGradient8740"
       gradientUnits="userSpaceOnUse"
       gradientTransform="matrix(1,0,0,0.930233,0,-0.240141)" />
    <linearGradient
       id="linearGradient8918">
      <stop
         id="stop8920"
         style="stop-color:#cee14b;stop-opacity:1"
         offset="0" />
      <stop
         id="stop8922"
         style="stop-color:#9db029;stop-opacity:1"
         offset="1" />
    </linearGradient>
    <radialGradient
       cx="25.969097"
       cy="17.257854"
       r="9.8222504"
       fx="25.968998"
       fy="17.257843"
       id="radialGradient6579"
       xlink:href="#linearGradient8918"
       gradientUnits="userSpaceOnUse"
       gradientTransform="matrix(0.06718136,2.42191,-1.629357,0.0451789,52.36869,-50.34012)" />
    <linearGradient
       id="linearGradient4873">
      <stop
         id="stop4875"
         style="stop-color:white;stop-opacity:1"
         offset="0" />
      <stop
         id="stop4877"
         style="stop-color:white;stop-opacity:0"
         offset="1" />
    </linearGradient>
    <linearGradient
       x1="63.397362"
       y1="-12.742159"
       x2="63.397362"
       y2="5.7210636"
       id="linearGradient6550"
       xlink:href="#linearGradient4873"
       gradientUnits="userSpaceOnUse"
       gradientTransform="matrix(0.7432395,0,0,0.7432225,-34.229792,15.609333)" />
    <linearGradient
       id="linearGradient4559">
      <stop
         id="stop4561"
         style="stop-color:#cacaca;stop-opacity:1"
         offset="0" />
      <stop
         id="stop4563"
         style="stop-color:#949492;stop-opacity:1"
         offset="1" />
    </linearGradient>
    <linearGradient
       x1="17.288921"
       y1="2.184907"
       x2="15.179585"
       y2="5.8214641"
       id="linearGradient4565"
       xlink:href="#linearGradient4559"
       gradientUnits="userSpaceOnUse" />
    <linearGradient
       id="linearGradient8589">
      <stop
         id="stop8591"
         style="stop-color:#fefefe;stop-opacity:1"
         offset="0" />
      <stop
         id="stop8593"
         style="stop-color:#cbcbcb;stop-opacity:1"
         offset="1" />
    </linearGradient>
    <linearGradient
       x1="32.892288"
       y1="8.0590115"
       x2="36.358372"
       y2="5.4565363"
       id="linearGradient4543"
       xlink:href="#linearGradient8589"
       gradientUnits="userSpaceOnUse"
       gradientTransform="matrix(0.541631,0,0,0.5202974,-0.9402078,-0.3018562)" />
  </defs>
  <g
     id="layer1">
    <g
       transform="matrix(0.5459263,0,0,0.5168524,-0.9657323,-0.5781821)"
       id="g3490"
       style="stroke-width:1.88256383;stroke-miterlimit:4;stroke-dasharray:none;display:inline">
      <g
         transform="matrix(0.02165152,0,0,0.01485743,43.0076,42.68539)"
         id="g5022"
         style="stroke-width:104.96237946;stroke-miterlimit:4;stroke-dasharray:none;display:inline">
        <rect
           width="1339.6335"
           height="478.35718"
           x="-1559.2523"
           y="-150.69685"
           id="rect4173"
           style="opacity:0.40206185;fill:url(#linearGradient4532);fill-opacity:1;fill-rule:nonzero;stroke:none;stroke-width:104.96237946;marker:none;visibility:visible;display:inline;overflow:visible" />
        <path
           d="m -219.61876,-150.68038 c 0,0 0,478.33079 0,478.33079 142.874166,0.90045 345.40022,-107.16966 345.40014,-239.196175 0,-132.026537 -159.436816,-239.134595 -345.40014,-239.134615 z"
           id="path5058"
           style="opacity:0.40206185;fill:url(#radialGradient4534);fill-opacity:1;fill-rule:nonzero;stroke:none;stroke-width:104.96237946;marker:none;visibility:visible;display:inline;overflow:visible" />
        <path
           d="m -1559.2523,-150.68038 c 0,0 0,478.33079 0,478.33079 -142.8742,0.90045 -345.4002,-107.16966 -345.4002,-239.196175 0,-132.026537 159.4368,-239.134595 345.4002,-239.134615 z"
           id="path5018"
           style="opacity:0.40206185;fill:url(#radialGradient4536);fill-opacity:1;fill-rule:nonzero;stroke:none;stroke-width:104.96237946;marker:none;visibility:visible;display:inline;overflow:visible" />
      </g>
    </g>
    <path
       d="m 2.4995695,0.49956995 c 4.3540581,0 8.7081225,0 13.0621825,0 0.7638,0.23730535 4.867172,2.94084495 5.938678,4.81278185 0,5.7293572 0,11.4587192 0,17.1880792 -6.333619,0 -12.6672431,0 -19.0008605,0 0,-7.333622 0,-14.6672393 0,-22.00086105 z"
       id="rect2594"
       style="fill:url(#linearGradient4545);fill-opacity:1;stroke:url(#linearGradient4547);stroke-width:0.99913895;stroke-linecap:butt;stroke-linejoin:round;stroke-miterlimit:4;stroke-opacity:1;stroke-dasharray:none;stroke-dashoffset:0;display:inline" />
    <path
       d="m 11.994112,5.4994914 c -4.139436,0 -7.494379,3.3549382 -7.494379,7.4943766 0,4.139439 3.354943,7.506159 7.494379,7.506158 4.13944,0 7.506163,-3.366719 7.506155,-7.506158 0,-4.1394384 -3.366715,-7.4943766 -7.506155,-7.4943766 z"
       id="path2555"
       style="fill:url(#radialGradient6573);fill-opacity:1;stroke:#204a87;stroke-width:0.99994874;stroke-linecap:round;stroke-linejoin:round;stroke-miterlimit:4;stroke-opacity:1;stroke-dasharray:none;stroke-dashoffset:0;display:inline" />
    <g
       transform="matrix(0.3888634,0,0,0.3981505,2.3304329,3.7386196)"
       id="g6532"
       style="fill:#9db029;fill-rule:nonzero;stroke:url(#radialGradient6629);stroke-width:2.56191802;stroke-miterlimit:4;display:inline">
      <path
         d="m 26.0703,9.2363 -0.0732,0.4932 0.5098,0.3291 0.8711,-0.5757 -0.4355,-0.4937 -0.582,0.3296 -0.29,-0.0825"
         id="path4692"
         style="fill:#9db029;stroke:url(#radialGradient6627);stroke-width:2.56191802" />
    </g>
    <g
       transform="matrix(0.3888634,0,0,0.3981505,1.8173152,3.7386196)"
       id="g6548"
       style="fill:#9db029;fill-rule:nonzero;stroke:url(#radialGradient6625);stroke-width:2.56191802;stroke-miterlimit:4;display:inline">
      <path
         d="m 28.833,12.7749 -0.291,-0.7412 -0.5098,0.165 0.1465,0.9043 0.6543,-0.3281"
         id="path6550"
         style="fill:#9db029;stroke:url(#radialGradient6623);stroke-width:2.56191802" />
    </g>
    <g
       transform="matrix(0.3888634,0,0,0.3981505,1.9639203,3.7386196)"
       id="g6556"
       style="fill:#9db029;fill-rule:nonzero;stroke:url(#radialGradient6621);stroke-width:2.56191802;stroke-miterlimit:4;display:inline">
      <path
         d="m 29.123,12.6089 -0.1455,0.9883 0.7998,-0.165 0.5811,-0.5752 -0.5088,-0.4941 C 29.6787,11.9078 29.4824,11.483 29.2685,11.0465 l -0.4355,0 0,0.4932 0.29,0.3291 0,0.7402"
         id="path6558"
         style="fill:#9db029;stroke:url(#radialGradient6619);stroke-width:2.56191802" />
    </g>
    <g
       transform="matrix(0.3888634,0,0,0.3981505,2.3304329,3.7386196)"
       id="g4698"
       style="fill:#9db029;fill-rule:nonzero;stroke:url(#radialGradient6617);stroke-width:2.56191802;stroke-miterlimit:4;display:inline">
      <path
         d="m 16.7656,9.5649 0.7266,0.4937 0.582,0 0,-0.5757 -0.7266,-0.3291 -0.582,0.4111"
         id="path4701"
         style="fill:#9db029;stroke:url(#radialGradient6615);stroke-width:2.56191802" />
    </g>
    <g
       transform="matrix(0.3888634,0,0,0.3981505,2.8068965,3.7761417)"
       id="g6608"
       style="fill:#9db029;fill-rule:nonzero;stroke:url(#radialGradient6613);stroke-width:2.56191802;stroke-miterlimit:4;display:inline">
      <path
         d="m 17.4922,7.887132 0.3638,-0.3286 0.7271,-0.1646 c 0.498,-0.2422 0.998,-0.4053 1.5264,-0.5762 l -0.29,-0.4937 -0.9385,0.1348 -0.4434,0.4419 -0.731,0.106 -0.6499,0.3052 -0.3159,0.1528 -0.1929,0.2583 0.9443,0.1641"
         id="path6610"
         style="fill:#9db029;stroke:url(#radialGradient6611);stroke-width:2.56191802" />
    </g>
    <g
       transform="matrix(0.3888634,0,0,0.3981505,2.4770188,3.9637571)"
       id="g4705"
       style="fill:#9db029;fill-rule:nonzero;stroke:url(#radialGradient6609);stroke-width:2.56191802;stroke-miterlimit:4;display:inline">
      <path
         d="m 18.7285,14.6665 0.4365,-0.6582 -0.6548,-0.4932 0.2183,1.1514"
         id="path6618"
         style="fill:#9db029;stroke:url(#radialGradient6607);stroke-width:2.56191802" />
    </g>
    <g
       transform="matrix(0.3888634,0,0,0.3981505,2.6236383,3.7010959)"
       id="g4708"
       style="fill:url(#radialGradient6603);fill-opacity:1;fill-rule:nonzero;stroke:url(#radialGradient6605);stroke-width:2.56191802;stroke-miterlimit:4;display:inline">
      <path
         d="m 17.943241,27.768799 -0.518573,-1.02672 -0.971477,-0.219726 -0.518127,-1.392215 -1.295183,0.146216 -1.100764,-0.805748 -1.166432,1.025918 0,0.161809 C 12.019842,25.55649 11.586095,25.54259 11.271922,25.349417 l -0.259287,-0.732684 0,-0.806638 -0.777056,0.07306 c 0.06487,-0.513404 0.129197,-1.025918 0.194509,-1.539233 l -0.4537956,0 -0.4529044,0.586468 -0.4537955,0.219279 -0.6478592,-0.365495 -0.064866,-0.806639 0.1296431,-0.879702 0.9719225,-0.732684 0.7770571,0 0.129197,-0.440252 0.971477,0.219279 0.712636,0.880593 0.129643,-1.467061 1.230764,-1.025918 0.45335,-1.099872 0.906699,-0.366298 0.518127,-0.732684 1.165541,-0.220973 0.583439,-0.878811 c -0.582993,0 -1.165987,0 -1.74898,0 l 1.10112,-0.513404 0.776612,0 1.101565,-0.367189 0.129643,-0.438559 -0.388929,-0.367188 -0.45335,-0.147018 0.129643,-0.43945 -0.323707,-0.659532 -0.777502,0.292343 0.129643,-0.586022 -0.9067,-0.513405 -0.71219,1.245554 0.06442,0.440252 -0.71219,0.294125 -0.453796,0.952766 -0.194064,-0.879702 -1.230763,-0.513405 -0.194509,-0.659531 1.619336,-0.953657 0.712636,-0.659532 0.06487,-0.8061926 -0.388483,-0.2201702 -0.518127,-0.073509 -0.323707,0.8066378 c 0,0 -0.54165,0.106121 -0.680916,0.140514 -1.778561,1.638938 -5.372215,5.176904 -6.2070989,11.856064 0.033057,0.154859 0.6051795,1.052827 0.6051795,1.052827 l 1.3600498,0.805747 1.3600499,0.367189 0.5834387,0.733486 0.906254,0.659531 0.518127,-0.07306 0.388484,0.174907 0,0.118327 -0.517771,1.392661 -0.388929,0.586468 0.129643,0.294125 -0.323707,1.098091 1.165987,2.126592 1.16554,1.02672 0.518573,0.732684 -0.06522,1.540125 0.38893,0.878811 -0.38893,1.686341 c 0,0 -0.03047,-0.01043 0.01916,0.158334 0.05007,0.168847 2.07527,1.293045 2.204022,1.19735 0.128307,-0.09748 0.237991,-0.182748 0.237991,-0.182748 l -0.129198,-0.365496 0.517771,-0.513404 0.194509,-0.513405 0.84228,-0.294125 0.647413,-1.613188 -0.194063,-0.438559 0.452458,-0.659532 0.971923,-0.220972 0.518572,-1.172936 -0.129643,-1.465279 0.777057,-1.099873 0.129643,-1.099873 c -1.063341,-0.527304 -2.11795,-1.07029 -3.17336,-1.613188"
         id="path4911"
         style="fill:url(#radialGradient6599);fill-opacity:1;stroke:url(#radialGradient6601);stroke-width:2.56191802" />
    </g>
    <g
       transform="matrix(0.3888634,0,0,0.3981505,2.4403828,3.8511964)"
       id="g6540"
       style="fill:url(#radialGradient6595);fill-opacity:1;fill-rule:nonzero;stroke:url(#radialGradient6597);stroke-width:2.56191802;stroke-miterlimit:4;display:inline">
      <path
         d="m 26.8701,6.6933256 -1.8906,-0.7407 -2.1797,0.2466 -2.6904,0.7402 -0.5088,0.4941 1.6719,1.1514 0,0.6582 -0.6543,0.6582 0.873,1.7289984 0.5801,-0.3301 0.7285,-1.151399 c 1.123,-0.3471994 2.1299,-0.7406994 3.1973,-1.2343994 l 0.873,-2.2212"
         id="path4715"
         style="fill:url(#radialGradient6591);fill-opacity:1;stroke:url(#radialGradient6593);stroke-width:2.56191802" />
    </g>
    <g
       transform="matrix(0.3888634,0,0,0.3981505,2.6969408,3.5885101)"
       id="g6580"
       style="fill:url(#radialGradient6587);fill-opacity:1;fill-rule:nonzero;stroke:url(#radialGradient6589);stroke-width:2.56191802;stroke-miterlimit:4;display:inline">
      <path
         d="m 15.187259,9.6334723 -0.3638,0.9047987 0.7271,0 0.3638,-0.8227987 c 0.3135,-0.2217 0.6255,-0.4448 0.9448,-0.6582 l 0.7271,0.2471 c 0.4844,0.3291 0.9688,0.6582 1.4536,0.9867997 l 0.7275,-0.6576997 -0.8003,-0.3291 -0.3638,-0.7407 -1.3809,-0.1646 -0.0728,-0.4116 -0.6543,0.165 -0.2904,0.5758 -0.3638,-0.7407 -0.145,0.3291 0.0728,0.8228 -0.5816,0.494"
         id="path4718"
         style="fill:url(#radialGradient6583);fill-opacity:1;stroke:url(#radialGradient6585);stroke-width:2.56191802" />
    </g>
    <g
       transform="matrix(0.3888634,0,0,0.3981505,2.1105263,3.8136743)"
       id="g4720"
       style="fill:url(#radialGradient6579);fill-opacity:1;fill-rule:nonzero;stroke:url(#radialGradient6581);stroke-width:2.56191802;stroke-miterlimit:4;display:inline">
      <path
         d="m 42.893123,20.729176 c 0,0.241194 0,0 0,0 l -0.500291,0.566672 c -0.306657,-0.361377 -0.650957,-0.66528 -1.000583,-0.982679 l -0.767468,0.112931 -0.701179,-0.792625 0,0.980934 0.600735,0.454568 0.399848,0.452824 0.534354,-0.604316 c 0.134506,0.251936 0.267177,0.503872 0.400765,0.755808 l 0,0.754982 -0.601653,0.679602 -1.101026,0.755808 -0.83385,0.832105 -0.534354,-0.606152 0.267177,-0.679603 -0.533527,-0.604315 -0.901057,-1.92597 -0.767468,-0.867912 -0.200888,0.225953 0.30124,1.095701 0.566672,0.641959 c 0.323642,0.934293 0.643796,1.82727 1.0688,2.720339 0.659036,0 1.280338,-0.06996 1.934875,-0.15241 l 0,0.529029 -0.800704,1.964072 -0.734324,0.830269 -0.600735,1.285754 c 0,0.70476 0,1.40952 0,2.114188 l 0.200888,0.832105 -0.333558,0.376618 -0.735242,0.45365 -0.767468,0.641959 0.634798,0.717338 -0.867912,0.756727 0.166733,0.489549 -1.301914,1.474064 -0.866994,0 -0.734324,0.45365 -0.468064,0 0,-0.604316 -0.199052,-1.210468 c -0.258271,-0.758562 -0.527192,-1.511708 -0.800705,-2.264853 0,-0.55593 0.03314,-1.106443 0.06638,-1.662282 l 0.334477,-0.754981 -0.468065,-0.907392 0.03406,-1.246275 -0.634798,-0.717338 0.317399,-1.038318 -0.516451,-0.585953 -0.901974,0 -0.300322,-0.339801 -0.901057,0.567131 -0.366702,-0.416466 -0.834768,0.717706 C 27.577179,26.356327 27.009588,25.714368 26.44209,25.072409 l -0.667116,-1.586995 0.600735,-0.905555 -0.333558,-0.377445 0.733405,-1.738579 c 0.602571,-0.749564 1.231952,-1.468647 1.868586,-2.190392 l 1.135089,-0.302158 1.267852,-0.150666 0.867912,0.226871 1.234615,1.245357 0.434001,-0.490467 0.599817,-0.07529 1.135089,0.377445 0.867913,0 0.600735,-0.529029 0.267177,-0.377445 -0.601654,-0.377445 -1.0015,-0.07529 c -0.277919,-0.385524 -0.53619,-0.790789 -0.866168,-1.133344 l -0.334476,0.150665 -0.133589,0.982679 -0.600735,-0.679603 -0.13267,-0.756726 -0.667116,-0.527192 -0.268095,0 0.667942,0.754981 -0.267177,0.679603 -0.533527,0.150666 0.333558,-0.679603 -0.601654,-0.30124 -0.532609,-0.604315 -1.002419,0.225952 -0.13267,0.30124 -0.600735,0.378363 -0.333558,0.831187 -0.83385,0.415088 -0.36762,-0.415088 -0.399848,0 0,-1.360124 0.867912,-0.45365 0.667116,0 -0.134506,-0.52811 -0.53261,-0.529029 0.900231,-0.189228 0.500291,-0.565754 0.399847,-0.680521 0.735242,0 -0.200888,-0.52811 0.468065,-0.302158 0,0.604315 1.000582,0.225953 1.000583,-0.830268 0.06721,-0.378363 0.866994,-0.603857 c -0.313818,0.03902 -0.627636,0.06767 -0.934293,0.151125 l 0,-0.680429 0.333558,-0.755441 -0.333558,0 -0.733038,0.679603 -0.200888,0.377904 0.200888,0.529488 -0.334476,0.905555 -0.533528,-0.302158 -0.466229,-0.52811 -0.735241,0.52811 -0.267177,-1.208172 1.267851,-0.830728 0,-0.4536504 0.801531,-0.5285696 1.267851,-0.302617 0.867912,0.302617 1.601318,0.3021579 -0.399848,0.4528241 -0.867912,0 0.867912,0.906474 0.667117,-0.754982 0.202632,-0.3321814 c 0,0 2.558931,2.2934994 4.021335,4.8023004 1.462404,2.509628 2.149168,5.46758 2.149168,6.068315 z"
         id="path6628"
         style="fill:url(#radialGradient6575);fill-opacity:1;stroke:url(#radialGradient6577);stroke-width:2.56191802" />
    </g>
    <path
       d="m 18.499999,12.999768 c 0,3.58997 -2.910363,6.500233 -6.499916,6.500233 -3.5898816,0 -6.5000833,-2.910296 -6.5000833,-6.500233 0,-3.5898003 2.9102017,-6.4997681 6.5000833,-6.4997681 3.589553,0 6.499916,2.9099678 6.499916,6.4997681 l 0,0 z"
       id="path8655"
       style="opacity:0.52747258;fill:none;stroke:url(#linearGradient6550);stroke-width:0.99999982;stroke-miterlimit:4;stroke-opacity:1;stroke-dasharray:none;display:inline" />
    <path
       d="m 15.5,0.5 c 0,2.262965 0,5 0,5 0,0 4.653658,0 6,0 0,-0.836587 -4.820468,-4.98571761 -6,-5 z"
       id="path12038"
       style="fill:url(#linearGradient4543);fill-opacity:1;fill-rule:evenodd;stroke:url(#linearGradient4565);stroke-width:1;stroke-linecap:butt;stroke-linejoin:round;stroke-miterlimit:4;stroke-opacity:1;stroke-dasharray:none;display:inline" />
  </g>
</svg>
