<?xml version="1.0" encoding="UTF-8" standalone="no"?>
<!-- Created with Inkscape (http://www.inkscape.org/) -->

<svg
   xmlns:svg="http://www.w3.org/2000/svg"
   xmlns="http://www.w3.org/2000/svg"
   xmlns:xlink="http://www.w3.org/1999/xlink"
   version="1.0"
   width="24"
   height="24"
   id="svg3196">
  <defs
     id="defs3198">
    <linearGradient
       id="linearGradient3587-8-5">
      <stop
         id="stop3589-2-7"
         style="stop-color:#000000;stop-opacity:1"
         offset="0" />
      <stop
         id="stop3591-3-5"
         style="stop-color:#363636;stop-opacity:1"
         offset="1" />
    </linearGradient>
    <linearGradient
       id="linearGradient3587-6-5">
      <stop
         id="stop3589-9-2"
         style="stop-color:#000000;stop-opacity:1"
         offset="0" />
      <stop
         id="stop3591-7-4"
         style="stop-color:#363636;stop-opacity:1"
         offset="1" />
    </linearGradient>
    <linearGradient
       x1="14"
       y1="3"
       x2="14"
       y2="21"
       id="linearGradient3645"
       xlink:href="#linearGradient3587-8-5"
       gradientUnits="userSpaceOnUse" />
    <linearGradient
       x1="11"
       y1="-6.1393967"
       x2="11"
       y2="15.306001"
       id="linearGradient3650"
       xlink:href="#linearGradient3587-6-5"
       gradientUnits="userSpaceOnUse"
       gradientTransform="matrix(0.93023256,0,0,0.78651687,-8.532183,7.2898495)" />
    <linearGradient
       x1="12"
       y1="3.000001"
       x2="12"
       y2="21"
       id="linearGradient3653"
       xlink:href="#linearGradient3587-8-5"
       gradientUnits="userSpaceOnUse"
       gradientTransform="translate(-51.177966,-0.53389886)" />
    <linearGradient
       x1="11"
       y1="-6.1393967"
       x2="11"
       y2="15.306001"
       id="linearGradient3798"
       xlink:href="#linearGradient3587-6-5"
       gradientUnits="userSpaceOnUse"
       gradientTransform="matrix(0.93023256,0,0,0.78651687,-8.532183,7.2898494)" />
  </defs>
  <path
     d="m 10.5,6.5000003 c 0,-0.6666667 0,-1.3333333 0,-2 1,0 2,0 3,0 0,0.6666667 0,1.3333333 0,2 M 7.5,20.5 l 0,-13.9999997 9,0 0,13.9999997 -9,0 z"
     id="rect3160-2"
     style="opacity:0.6;color:#000000;fill:none;stroke:#ffffff;stroke-width:1;stroke-linecap:butt;stroke-linejoin:miter;stroke-miterlimit:4;stroke-opacity:1;stroke-dasharray:none;stroke-dashoffset:0;marker:none;visibility:visible;display:inline;overflow:visible;enable-background:accumulate" />
  <path
     d="m 10.5,5.5000003 c 0,-0.6666667 0,-1.3333333 0,-2 1,0 2,0 3,0 0,0.6666667 0,1.3333333 0,2 M 7.5,19.5 l 0,-13.9999997 9,0 0,13.9999997 -9,0 z"
     id="rect3160-4"
     style="opacity:0.7;color:#000000;fill:none;stroke:url(#linearGradient3653);stroke-width:1;stroke-linecap:butt;stroke-linejoin:miter;stroke-miterlimit:4;stroke-opacity:1;stroke-dasharray:none;stroke-dashoffset:0;marker:none;visibility:visible;display:inline;overflow:visible;enable-background:accumulate" />
  <g
     id="g3794"
     style="opacity:0.7">
    <rect
       width="6"
       height="9"
       x="9.0500002"
       y="9"
       id="rect3728"
       style="opacity:0.6;color:#000000;fill:url(#linearGradient3798);fill-opacity:1;fill-rule:nonzero;stroke:none;stroke-width:1;marker:none;visibility:visible;display:inline;overflow:visible;enable-background:accumulate" />
    <path
       d="m 15,6 -7,7 4,0 -3,6 7,-8 -3,0 2,-5 z"
       id="path3172"
       style="fill:url(#linearGradient3645);fill-opacity:1;fill-rule:evenodd;stroke:none" />
  </g>
</svg>
