<?xml version="1.0" encoding="UTF-8" standalone="no"?>
<!-- Created with Inkscape (http://www.inkscape.org/) -->

<svg
   xmlns:svg="http://www.w3.org/2000/svg"
   xmlns="http://www.w3.org/2000/svg"
   xmlns:xlink="http://www.w3.org/1999/xlink"
   version="1.0"
   width="64"
   height="64"
   id="svg11300">
  <defs
     id="defs3">
    <linearGradient
       id="linearGradient4956">
      <stop
         id="stop4958"
         style="stop-color:#f8b17e;stop-opacity:1"
         offset="0" />
      <stop
         id="stop4960"
         style="stop-color:#e35d4f;stop-opacity:1"
         offset="0.26238" />
      <stop
         id="stop4962"
         style="stop-color:#c6262e;stop-opacity:1"
         offset="0.66347069" />
      <stop
         id="stop4964"
         style="stop-color:#690b54;stop-opacity:1"
         offset="1" />
    </linearGradient>
    <linearGradient
       id="linearGradient4099">
      <stop
         id="stop4101"
         style="stop-color:#edd563;stop-opacity:1"
         offset="0" />
      <stop
         id="stop4103"
         style="stop-color:#e08223;stop-opacity:1"
         offset="1" />
    </linearGradient>
    <linearGradient
       id="linearGradient4093">
      <stop
         id="stop4095"
         style="stop-color:#bb5e12;stop-opacity:1"
         offset="0" />
      <stop
         id="stop4097"
         style="stop-color:#cd8033;stop-opacity:1"
         offset="1" />
    </linearGradient>
    <linearGradient
       id="linearGradient6221">
      <stop
         id="stop6223"
         style="stop-color:black;stop-opacity:1"
         offset="0" />
      <stop
         id="stop6225"
         style="stop-color:black;stop-opacity:0"
         offset="1" />
    </linearGradient>
    <linearGradient
       id="linearGradient5443">
      <stop
         id="stop5445"
         style="stop-color:white;stop-opacity:1"
         offset="0" />
      <stop
         id="stop5447"
         style="stop-color:white;stop-opacity:0"
         offset="1" />
    </linearGradient>
    <radialGradient
       cx="21.96048"
       cy="34.498356"
       r="12.727922"
       fx="21.96048"
       fy="34.498356"
       id="radialGradient2912"
       xlink:href="#linearGradient6221"
       gradientUnits="userSpaceOnUse"
       gradientTransform="matrix(0.31593616,0,0,0.0905974,45.342154,54.290776)" />
    <radialGradient
       cx="21.96048"
       cy="34.498356"
       r="12.727922"
       fx="21.96048"
       fy="34.498356"
       id="radialGradient2915"
       xlink:href="#linearGradient6221"
       gradientUnits="userSpaceOnUse"
       gradientTransform="matrix(0.77228861,0,0,0.23991807,34.966619,48.770022)" />
    <radialGradient
       cx="21.96048"
       cy="34.498356"
       r="12.727922"
       fx="21.96048"
       fy="34.498356"
       id="radialGradient2918"
       xlink:href="#linearGradient6221"
       gradientUnits="userSpaceOnUse"
       gradientTransform="matrix(0.22664963,0,0,0.09057394,3.1478431,54.912123)" />
    <radialGradient
       cx="21.96048"
       cy="34.498356"
       r="12.727922"
       fx="21.96048"
       fy="34.498356"
       id="radialGradient2921"
       xlink:href="#linearGradient6221"
       gradientUnits="userSpaceOnUse"
       gradientTransform="matrix(0.57921646,0,0,0.23985607,-4.2360356,49.350923)" />
    <linearGradient
       id="linearGradient4434">
      <stop
         id="stop4436"
         style="stop-color:#d3d7cf;stop-opacity:1"
         offset="0" />
      <stop
         id="stop4438"
         style="stop-color:#babdb6;stop-opacity:1"
         offset="0.18303643" />
      <stop
         id="stop4440"
         style="stop-color:white;stop-opacity:1"
         offset="0.31893486" />
      <stop
         id="stop4442"
         style="stop-color:#babdb6;stop-opacity:1"
         offset="0.87643671" />
      <stop
         id="stop4444"
         style="stop-color:#eeeeec;stop-opacity:1"
         offset="1" />
    </linearGradient>
    <linearGradient
       id="linearGradient7444">
      <stop
         id="stop7446"
         style="stop-color:#888a85;stop-opacity:1"
         offset="0" />
      <stop
         id="stop7448"
         style="stop-color:#555753;stop-opacity:1"
         offset="1" />
    </linearGradient>
    <linearGradient
       id="linearGradient7381">
      <stop
         id="stop7383"
         style="stop-color:#babdb6;stop-opacity:1"
         offset="0" />
      <stop
         id="stop7385"
         style="stop-color:white;stop-opacity:1"
         offset="1" />
    </linearGradient>
    <linearGradient
       id="linearGradient7421">
      <stop
         id="stop7423"
         style="stop-color:white;stop-opacity:1"
         offset="0" />
      <stop
         id="stop7425"
         style="stop-color:white;stop-opacity:0"
         offset="1" />
    </linearGradient>
    <linearGradient
       x1="-6.3077531"
       y1="44.228992"
       x2="-9.7747231"
       y2="44.140411"
       id="linearGradient4665"
       xlink:href="#linearGradient6221"
       gradientUnits="userSpaceOnUse"
       gradientTransform="matrix(0.63165855,-0.62957842,1.0718089,1.0683256,0.93012737,-9.9235283)" />
    <linearGradient
       x1="97.442131"
       y1="35.152435"
       x2="90.220802"
       y2="35.079365"
       id="linearGradient4668"
       xlink:href="#linearGradient4956"
       gradientUnits="userSpaceOnUse"
       gradientTransform="matrix(1.0384492,-1.0359846,0.90827961,0.90612387,-89.936039,104.18094)" />
    <linearGradient
       x1="302.29202"
       y1="58.442768"
       x2="308.64914"
       y2="60.767513"
       id="linearGradient4734"
       xlink:href="#linearGradient7381"
       gradientUnits="userSpaceOnUse"
       gradientTransform="matrix(1.7375861,0,0,1.7280045,-513.76158,-84.831838)" />
    <linearGradient
       id="linearGradient2490">
      <stop
         id="stop2492"
         style="stop-color:#791235;stop-opacity:1"
         offset="0" />
      <stop
         id="stop2494"
         style="stop-color:#dd3b27;stop-opacity:1"
         offset="1" />
    </linearGradient>
    <linearGradient
       x1="29.278061"
       y1="34.022705"
       x2="36.000526"
       y2="27.272705"
       id="linearGradient4972"
       xlink:href="#linearGradient2490"
       gradientUnits="userSpaceOnUse"
       gradientTransform="matrix(1.2621793,0,0,1.2600376,1.0704969,1.4289746)" />
    <linearGradient
       x1="54.765163"
       y1="1.0000008"
       x2="54.72097"
       y2="12.584867"
       id="linearGradient4987"
       xlink:href="#linearGradient5443"
       gradientUnits="userSpaceOnUse"
       gradientTransform="matrix(-0.91733822,-0.91833276,0.91733822,-0.91833276,55.913258,108.22405)" />
    <linearGradient
       x1="58.548462"
       y1="37.501415"
       x2="56.446907"
       y2="37.585964"
       id="linearGradient4990"
       xlink:href="#linearGradient5443"
       gradientUnits="userSpaceOnUse"
       gradientTransform="matrix(1.3790079,0,0,2.8585342,-120.78185,-89.266003)" />
    <linearGradient
       x1="-5.9351215"
       y1="40.389523"
       x2="-10.047871"
       y2="40.37719"
       id="linearGradient4993"
       xlink:href="#linearGradient6221"
       gradientUnits="userSpaceOnUse"
       gradientTransform="matrix(0.68774544,0,0,1.9346078,-39.056142,-57.995758)" />
    <linearGradient
       x1="-10.5349"
       y1="36.901836"
       x2="-7.0093374"
       y2="36.912071"
       id="linearGradient4996"
       xlink:href="#linearGradient6221"
       gradientUnits="userSpaceOnUse"
       gradientTransform="matrix(0.80228358,0,0,1.9402203,-41.04445,-59.217303)" />
    <linearGradient
       x1="25.571766"
       y1="20.761639"
       x2="27.367689"
       y2="22.476452"
       id="linearGradient4999"
       xlink:href="#linearGradient7381"
       gradientUnits="userSpaceOnUse"
       gradientTransform="matrix(-1.3059666,0,0,-1.298719,57.121687,68.481113)" />
    <linearGradient
       x1="22.375778"
       y1="35.624268"
       x2="31.088694"
       y2="26.885212"
       id="linearGradient5001"
       xlink:href="#linearGradient7444"
       gradientUnits="userSpaceOnUse"
       gradientTransform="matrix(1.311565,0,0,1.3100187,-6.6484186,-6.3458151)" />
    <radialGradient
       cx="-39.458145"
       cy="11.839552"
       r="3.9059753"
       fx="-39.458145"
       fy="11.839552"
       id="radialGradient5004"
       xlink:href="#linearGradient5443"
       gradientUnits="userSpaceOnUse"
       gradientTransform="matrix(3.1553152,-0.21903986,0.38455831,8.0079771,80.085511,-88.126664)" />
    <linearGradient
       x1="-2.1966379"
       y1="40.971893"
       x2="-10.565685"
       y2="40.94883"
       id="linearGradient5007"
       xlink:href="#linearGradient4099"
       gradientUnits="userSpaceOnUse"
       gradientTransform="matrix(1.0992359,-3.9000905e-8,0,2.190525,-35.745863,-74.299101)" />
    <linearGradient
       x1="-45.568657"
       y1="7.7140422"
       x2="-36.082916"
       y2="12.324154"
       id="linearGradient5009"
       xlink:href="#linearGradient4093"
       gradientUnits="userSpaceOnUse"
       gradientTransform="matrix(1.3619677,0,0,1.3619887,11.250201,0.01077712)" />
    <radialGradient
       cx="25.977057"
       cy="21.62282"
       r="2"
       fx="25.977057"
       fy="21.62282"
       id="radialGradient5017"
       xlink:href="#linearGradient6221"
       gradientUnits="userSpaceOnUse"
       gradientTransform="matrix(-1.4139345,-1.392889,1.117813,-1.1011764,45.030363,90.751171)" />
    <linearGradient
       x1="304.76227"
       y1="64.295265"
       x2="335.30014"
       y2="81.926315"
       id="linearGradient2907"
       xlink:href="#linearGradient4434"
       gradientUnits="userSpaceOnUse"
       gradientTransform="matrix(1.7375861,0,0,1.7280045,-513.7616,-84.831838)" />
    <linearGradient
       x1="324.49731"
       y1="70.282364"
       x2="330.06076"
       y2="99.273735"
       id="linearGradient2909"
       xlink:href="#linearGradient7444"
       gradientUnits="userSpaceOnUse"
       gradientTransform="matrix(1.7375861,0,0,1.7280045,-513.7616,-84.831838)" />
    <linearGradient
       x1="326.60196"
       y1="75.575363"
       x2="317.16116"
       y2="88.006248"
       id="linearGradient2919"
       xlink:href="#linearGradient7421"
       gradientUnits="userSpaceOnUse"
       gradientTransform="matrix(1.7375861,0,0,1.7280045,-513.7616,-84.831838)" />
  </defs>
  <path
     d="m 16.523809,4.5013987 c -1.655055,-0.3132364 -0.637263,1.1754001 -0.219108,1.7038591 1.203392,2.1735879 2.467522,4.3168222 3.632329,6.5096922 0.323884,1.473088 -0.949021,2.693746 -2.000938,3.519334 -1.66968,1.162221 -3.773968,2.236237 -5.859578,1.730634 C 11.026608,17.638571 10.766639,16.463427 10.212087,15.640473 9.0739048,13.625406 7.9520365,11.596681 6.8035739,9.5905911 5.7465579,9.5595329 5.742942,11.28141 5.5958102,12.115565 c -0.3679682,3.512348 0.3069156,7.472745 3.0262539,9.955012 2.2085569,2.038016 5.4076559,2.830294 8.3399599,2.298772 2.580879,0.808514 5.050597,2.100775 6.971922,4.029428 1.763484,-1.869253 3.526967,-3.738506 5.290451,-5.607759 C 27.51253,21.110891 26.091307,19.112109 25.208436,16.874255 26.045222,13.819801 24.969042,10.458571 22.71963,8.2780894 21.002667,6.5604929 18.860008,5.1805961 16.523809,4.5013987 z"
     id="path6912"
     style="fill:url(#linearGradient2907);fill-opacity:1;fill-rule:evenodd;stroke:url(#linearGradient2909);stroke-width:0.9999997;stroke-linecap:round;stroke-linejoin:round;stroke-miterlimit:4;stroke-opacity:1;stroke-dasharray:none;stroke-dashoffset:0.3612;display:inline;enable-background:new" />
  <path
     d="m 16.527915,5.132396 c 0.0325,0.012055 0.01211,0.053907 0,0.054085 l 3.909568,6.966018 c 0.527409,0.938445 0.146998,2.046734 -0.488696,2.970008 -0.642021,0.932413 -1.636807,1.835833 -2.932178,2.538006 -1.29815,0.703677 -2.659756,1.041625 -3.800969,1.080003 -1.138707,0.03835 -2.207549,-0.284964 -2.714976,-1.188003 L 6.5910938,10.532495 c -0.022414,-0.0034 -0.058034,0.0034 -0.054387,0 0.035794,-0.03802 0.00694,0.02765 0,0.05408 -0.7209593,3.089895 -0.3470307,6.661196 0.9773917,9.01802 1.8116421,3.22387 5.5940035,4.763678 9.3395245,4.104013 3.727939,-0.663587 6.915523,-3.893487 7.710539,-6.966018 0.502006,-1.989936 0.288145,-4.128445 -0.760194,-5.994015 -1.320826,-2.3503751 -4.226451,-4.5637582 -7.27614,-5.6160093 l 8.7e-5,-1.726e-4 z"
     id="path7379"
     style="fill:url(#linearGradient4734);fill-opacity:1;fill-rule:evenodd;stroke:none;display:inline;enable-background:new" />
  <path
     d="m 16.975,5.637 c 1.339767,2.3285579 2.649722,4.422052 3.852768,6.825466 0.402642,1.679428 -0.831047,3.217402 -2.015268,4.256284 -1.992495,1.57299 -4.673597,2.761125 -7.231426,2.050059 -1.300797,-0.557208 -1.6951597,-2.016414 -2.4028306,-3.1209 L 6.706,11.3 C 6.006486,14.592874 6.6002064,18.232392 9,21.1875 c 2.00053,2.030531 5.056583,2.732408 7.8125,2.25 2.118883,0.21234 5.609078,2.735891 7.27896,4.05622 l 4.542503,-4.474218 C 26.681055,21.064853 25.337609,19.745694 24.34375,17.125 24.565873,15.574909 24.778243,13.974424 24.285168,12.449199 23.479625,9.6794368 21.273423,7.7027999 18.818389,6.443275 L 16.975,5.637 z"
     id="path2911"
     style="opacity:0.7;fill:none;stroke:url(#linearGradient2919);stroke-width:0.69999993;stroke-linecap:round;stroke-linejoin:miter;stroke-miterlimit:4;stroke-opacity:1;stroke-dashoffset:0.3612;display:inline;enable-background:new" />
  <path
     d="m 24.471461,22.069269 c -0.179543,0.01487 -0.338053,0.04961 -0.45081,0.158626 l -0.819655,0.832787 c -0.451023,0.436006 -0.122304,1.508418 0.778674,2.379396 l 2.786822,2.656991 2.458963,-2.419052 -2.745842,-2.65699 C 25.80388,22.367792 25.010092,22.024642 24.471461,22.069269 z"
     id="rect7166"
     style="opacity:0.1;fill:black;fill-opacity:1;fill-rule:evenodd;stroke:none;display:inline;enable-background:new" />
  <g
     transform="matrix(1.3630182,0,0,1.3616941,-403.81664,-51.958464)"
     id="g7440"
     style="opacity:0.48858445;display:inline;enable-background:new" />
  <path
     d="m 15.856,57.578774 a 7.5,2.9992256 0 1 1 -15,0 7.5,2.9992256 0 1 1 15,0 z"
     id="path5331"
     style="opacity:0.25;fill:url(#radialGradient2921);fill-opacity:1;stroke:none" />
  <path
     d="m 11.009935,58.019106 a 2.9347792,1.1325611 0 0 1 -5.8695584,0 2.9347792,1.1325611 0 1 1 5.8695584,0 z"
     id="path6769"
     style="opacity:0.3;fill:url(#radialGradient2918);fill-opacity:1;stroke:none" />
  <path
     d="m 61.756,56.999999 a 10,3.0000008 0 0 1 -20,0 10,3.0000008 0 1 1 20,0 z"
     id="path6765"
     style="opacity:0.25;fill:url(#radialGradient2915);fill-opacity:1;stroke:none" />
  <path
     d="m 56.301442,57.398564 a 4.090908,1.1328545 0 0 1 -8.181816,0 4.090908,1.1328545 0 1 1 8.181816,0 z"
     id="path6773"
     style="opacity:0.3;fill:url(#radialGradient2912);fill-opacity:1;stroke:none" />
  <path
     d="M 23.193843,27.718989 50.04101,56.316345 c 1.76115,1.756976 4.776364,1.526952 6.789918,-0.481818 2.013552,-2.008777 2.244117,-5.016831 0.482966,-6.773805 l -28.665389,-26.78345 -5.454687,5.441692 z m 28.182421,22.67382 c 1.000992,-0.998614 2.635455,-0.998614 3.636444,0 1.000988,0.998615 1.000988,2.629197 10e-7,3.62781 -1.000991,0.998611 -2.635453,0.998614 -3.636445,0 -1.000988,-0.998615 -1.000989,-2.629195 0,-3.62781 z"
     id="path6899"
     style="fill:url(#linearGradient4668);fill-opacity:1;stroke:url(#linearGradient4972);stroke-width:0.99963289;stroke-linecap:round;stroke-linejoin:round;stroke-miterlimit:4;stroke-opacity:1;stroke-dasharray:none;stroke-dashoffset:0.7;display:inline;enable-background:new" />
  <path
     d="m 28.16406,27.295346 c 0.699877,-0.697566 1.980986,-0.54381 2.872451,0.344747 l 18.543551,16.801646 c 0.891459,0.888564 0.202601,3.006782 -0.497274,3.70435 -0.699881,0.697575 -2.824551,1.385574 -3.716013,0.497013 L 28.509871,30.158412 C 27.618415,29.269845 27.464179,27.992924 28.16406,27.295346 z"
     id="rect6533"
     style="opacity:0.23106061;fill:url(#linearGradient4665);fill-opacity:1;stroke:none;display:inline" />
  <g
     id="g2892">
    <rect
       width="12.041378"
       height="39.052658"
       rx="4.9948344"
       ry="4.9948316"
       x="-50.585567"
       y="-2.7301912"
       transform="matrix(-0.70990181,-0.70430066,0.70640214,-0.70781072,0,0)"
       id="rect5288"
       style="fill:url(#linearGradient5007);fill-opacity:1;stroke:url(#linearGradient5009);stroke-width:1.00017905;stroke-linecap:round;stroke-linejoin:round;stroke-miterlimit:4;stroke-opacity:1;stroke-dasharray:none" />
    <path
       d="m 29.651938,26.503023 a 4.9112571,2.8070542 45 1 1 6.894489,6.995518 4.9112571,2.8070542 45 0 1 -6.894489,-6.995518 z"
       id="path4983"
       style="opacity:0.3;fill:url(#radialGradient5017);fill-opacity:1;stroke:none" />
    <rect
       width="9.6237955"
       height="37.45929"
       rx="3.9833584"
       ry="3.9833393"
       x="-49.380306"
       y="-2.0151954"
       transform="matrix(-0.71115922,-0.70303098,0.7062591,-0.70795345,0,0)"
       id="rect5292"
       style="opacity:0.6;fill:none;stroke:url(#radialGradient5004);stroke-width:1.00000489;stroke-linecap:round;stroke-linejoin:round;stroke-miterlimit:4;stroke-opacity:1;stroke-dasharray:none" />
    <path
       d="m 7.1588669,58.5 6.1537821,-4.24609 0.746999,-2.563702 19.074546,-19.081923 c 1.297313,-1.46106 -1.148735,-4.053716 -2.770372,-2.754999 L 11.282088,48.909635 8.703779,49.640042 4.5,55.811543 c 0,0 2.6588669,2.688457 2.6588669,2.688457 z"
       id="path5286"
       style="fill:url(#linearGradient4999);fill-opacity:1;stroke:url(#linearGradient5001);stroke-width:1;stroke-linecap:round;stroke-linejoin:round;stroke-miterlimit:4;stroke-opacity:1;stroke-dasharray:none" />
    <rect
       width="1.9583035"
       height="30.337561"
       rx="0.9327324"
       ry="1.0258062"
       x="-49.067307"
       y="2.869719"
       transform="matrix(-0.71205422,-0.70212448,0.70723631,-0.70697723,0,0)"
       id="rect2804"
       style="opacity:0.2;fill:url(#linearGradient4996);fill-opacity:1;stroke:none" />
    <rect
       width="2.7509816"
       height="30.953728"
       rx="0.93084371"
       ry="1.0236604"
       x="-45.933598"
       y="3.9116769"
       transform="matrix(-0.71304765,-0.70111558,0.70700336,-0.70721018,0,0)"
       id="rect5290"
       style="opacity:0.2;fill:url(#linearGradient4993);fill-opacity:1;stroke:none" />
    <rect
       width="1.9583044"
       height="30.337559"
       rx="0.93273246"
       ry="1.0258061"
       x="-41.996059"
       y="2.9193695"
       transform="matrix(-0.71205423,-0.70212447,0.70723632,-0.70697722,0,0)"
       id="rect5398"
       style="opacity:0.25;fill:url(#linearGradient4990);fill-opacity:1;stroke:none" />
    <path
       d="m 7.2201854,57.641503 5.4776446,-3.670641 0.613239,-2.335781 c 0.504436,-0.582705 -1.47345,-2.422705 -2.006677,-2.008854 l -2.3045833,0.642605 -3.6665886,5.48366 c 0.7198647,0.720643 1.1671013,1.168364 1.8869653,1.889011 z"
       id="path5450"
       style="fill:url(#linearGradient4987);fill-opacity:1;stroke:none" />
    <path
       d="m 32.33564,31.73968 c 0.09609,-0.479079 -0.572469,-1.079062 -1.030647,-1.077463 -6.476433,6.28263 -12.959359,12.88938 -19.338244,19.274508 l -2.5513751,0.76768 c -1.1193355,1.643349 -2.2386711,3.286696 -3.3580065,4.930045 0.4235266,0.436674 0.8470519,0.873347 1.2705787,1.31002 1.66678,-1.146267 3.3335609,-2.292534 5.0003419,-3.4388 0.227581,-0.717942 0.38642,-1.476401 0.655783,-2.169718"
       id="path4979"
       style="opacity:0.7;fill:none;stroke:white;stroke-width:1;stroke-linecap:round;stroke-linejoin:round;stroke-miterlimit:4;stroke-opacity:1" />
  </g>
</svg>
