<?xml version="1.0" encoding="UTF-8" standalone="no"?>
<!-- Created with Inkscape (http://www.inkscape.org/) -->

<svg
   xmlns:svg="http://www.w3.org/2000/svg"
   xmlns="http://www.w3.org/2000/svg"
   xmlns:xlink="http://www.w3.org/1999/xlink"
   version="1.1"
   width="48"
   height="48"
   id="svg3599">
  <defs
     id="defs3601">
    <linearGradient
       id="linearGradient5670-725-6">
      <stop
         id="stop3197-4"
         style="stop-color:black;stop-opacity:1"
         offset="0" />
      <stop
         id="stop3199-8"
         style="stop-color:black;stop-opacity:0"
         offset="1" />
    </linearGradient>
    <linearGradient
       id="linearGradient5670-612-8">
      <stop
         id="stop3203-1"
         style="stop-color:black;stop-opacity:1"
         offset="0" />
      <stop
         id="stop3205-0"
         style="stop-color:black;stop-opacity:0"
         offset="1" />
    </linearGradient>
    <linearGradient
       id="linearGradient7067-814-120-245-2">
      <stop
         id="stop3877-9"
         style="stop-color:#aaa;stop-opacity:1"
         offset="0" />
      <stop
         id="stop3879-7"
         style="stop-color:#4d4d4d;stop-opacity:1"
         offset="1" />
    </linearGradient>
    <linearGradient
       id="linearGradient7067-561-456-275-6">
      <stop
         id="stop3871-4"
         style="stop-color:#aaa;stop-opacity:1"
         offset="0" />
      <stop
         id="stop3873-6"
         style="stop-color:#4d4d4d;stop-opacity:1"
         offset="1" />
    </linearGradient>
    <linearGradient
       id="linearGradient2372-270-7">
      <stop
         id="stop3239-9"
         style="stop-color:white;stop-opacity:1"
         offset="0" />
      <stop
         id="stop3241-7"
         style="stop-color:white;stop-opacity:0.37931034"
         offset="1" />
    </linearGradient>
    <linearGradient
       id="linearGradient2372-378-9">
      <stop
         id="stop3245-1"
         style="stop-color:white;stop-opacity:1"
         offset="0" />
      <stop
         id="stop3247-7"
         style="stop-color:white;stop-opacity:0.37931034"
         offset="1" />
    </linearGradient>
    <linearGradient
       x1="11.566265"
       y1="22.292103"
       x2="15.214532"
       y2="33.95525"
       id="linearGradient2768"
       xlink:href="#linearGradient8265-821-176-38-919-66-249"
       gradientUnits="userSpaceOnUse" />
    <linearGradient
       id="linearGradient8265-821-176-38-919-66-249">
      <stop
         id="stop2687"
         style="stop-color:white;stop-opacity:0.27450982"
         offset="0" />
      <stop
         id="stop2689"
         style="stop-color:white;stop-opacity:0.07843138"
         offset="1" />
    </linearGradient>
    <radialGradient
       cx="7.2646537"
       cy="8.3021259"
       r="20.979567"
       fx="7.2646537"
       fy="8.3021259"
       id="radialGradient2771"
       xlink:href="#linearGradient6087-437-184-795-110-662-495"
       gradientUnits="userSpaceOnUse"
       gradientTransform="matrix(0,1.2079744,-1.6271642,0,26.371748,8.2664681)" />
    <linearGradient
       id="linearGradient6087-437-184-795-110-662-495">
      <stop
         id="stop2693"
         style="stop-color:white;stop-opacity:0.40000001"
         offset="0" />
      <stop
         id="stop2695"
         style="stop-color:white;stop-opacity:0"
         offset="1" />
    </linearGradient>
    <linearGradient
       x1="22.934725"
       y1="49.629246"
       x2="22.809399"
       y2="36.657963"
       id="linearGradient2774"
       xlink:href="#linearGradient6129-963-697-142-998-580-273"
       gradientUnits="userSpaceOnUse"
       gradientTransform="matrix(1.1446925,0,0,0.9977536,-3.4661413,1.0988421)" />
    <linearGradient
       id="linearGradient6129-963-697-142-998-580-273">
      <stop
         id="stop2661"
         style="stop-color:#0a0a0a;stop-opacity:0.498"
         offset="0" />
      <stop
         id="stop2663"
         style="stop-color:#0a0a0a;stop-opacity:0"
         offset="1" />
    </linearGradient>
    <radialGradient
       cx="63.969177"
       cy="14.113381"
       r="23.097054"
       fx="63.969177"
       fy="14.113381"
       id="radialGradient2777"
       xlink:href="#linearGradient7012-661-145-733-759-865-745-661-970-94"
       gradientUnits="userSpaceOnUse"
       gradientTransform="matrix(1.5646925,-9.5143002e-8,6.1772287e-8,1.015888,-86.212573,8.1461169)" />
    <linearGradient
       id="linearGradient7012-661-145-733-759-865-745-661-970-94">
      <stop
         id="stop3618"
         style="stop-color:#edd563;stop-opacity:1"
         offset="0" />
      <stop
         id="stop3620"
         style="stop-color:#e08223;stop-opacity:1"
         offset="1" />
    </linearGradient>
    <linearGradient
       x1="82.453476"
       y1="45.114193"
       x2="65.340263"
       y2="15.943953"
       id="linearGradient2779"
       xlink:href="#linearGradient3390-178-986-453"
       gradientUnits="userSpaceOnUse"
       gradientTransform="translate(-53.765393,-0.1141933)" />
    <linearGradient
       id="linearGradient3390-178-986-453">
      <stop
         id="stop3624"
         style="stop-color:#bb5e12;stop-opacity:1"
         offset="0" />
      <stop
         id="stop3626"
         style="stop-color:#cd8033;stop-opacity:1"
         offset="1" />
    </linearGradient>
    <linearGradient
       id="linearGradient5048-585">
      <stop
         id="stop2667"
         style="stop-color:black;stop-opacity:0"
         offset="0" />
      <stop
         id="stop2669"
         style="stop-color:black;stop-opacity:1"
         offset="0.5" />
      <stop
         id="stop2671"
         style="stop-color:black;stop-opacity:0"
         offset="1" />
    </linearGradient>
    <linearGradient
       id="linearGradient5060-179">
      <stop
         id="stop2675"
         style="stop-color:black;stop-opacity:1"
         offset="0" />
      <stop
         id="stop2677"
         style="stop-color:black;stop-opacity:0"
         offset="1" />
    </linearGradient>
    <linearGradient
       id="linearGradient5060-820">
      <stop
         id="stop2681"
         style="stop-color:black;stop-opacity:1"
         offset="0" />
      <stop
         id="stop2683"
         style="stop-color:black;stop-opacity:0"
         offset="1" />
    </linearGradient>
    <linearGradient
       id="linearGradient6404">
      <stop
         id="stop6406"
         style="stop-color:#f9f9f9;stop-opacity:1"
         offset="0" />
      <stop
         id="stop6408"
         style="stop-color:#c9c9c9;stop-opacity:1"
         offset="1" />
    </linearGradient>
    <linearGradient
       id="linearGradient3484">
      <stop
         id="stop3486"
         style="stop-color:#bdbdbd;stop-opacity:1"
         offset="0" />
      <stop
         id="stop3488"
         style="stop-color:#d0d0d0;stop-opacity:1"
         offset="1" />
    </linearGradient>
    <linearGradient
       x1="62.988873"
       y1="13.182598"
       x2="62.988873"
       y2="16.19013"
       id="linearGradient3595"
       xlink:href="#linearGradient6404"
       gradientUnits="userSpaceOnUse"
       gradientTransform="translate(-50.940898,-4.0039535e-7)" />
    <radialGradient
       cx="3"
       cy="5.01718"
       r="21"
       fx="3"
       fy="5.01718"
       id="radialGradient3597"
       xlink:href="#linearGradient3484"
       gradientUnits="userSpaceOnUse"
       gradientTransform="matrix(-1.274898e-8,1.7142916,-2.159331,-1.4599595e-8,12.809361,2.8570007)" />
    <linearGradient
       x1="28.739122"
       y1="144.11652"
       x2="26.256771"
       y2="125.39074"
       id="linearGradient3787"
       xlink:href="#linearGradient2372-378-9"
       gradientUnits="userSpaceOnUse"
       gradientTransform="matrix(0.4456319,0,0,0.2231125,29.628469,-7.657261)" />
    <linearGradient
       x1="28.739122"
       y1="144.11652"
       x2="25.400293"
       y2="119.86452"
       id="linearGradient3790"
       xlink:href="#linearGradient2372-270-7"
       gradientUnits="userSpaceOnUse"
       gradientTransform="matrix(0.2214737,0,0,0.2231125,22.944537,-6.078824)" />
    <radialGradient
       cx="17.058823"
       cy="41.058823"
       r="5.7384715"
       fx="14.109128"
       fy="38.980988"
       id="radialGradient3793"
       xlink:href="#linearGradient7067-561-456-275-6"
       gradientUnits="userSpaceOnUse"
       gradientTransform="matrix(0.66332516,0,-0.10859251,0.63579657,30.909671,13.497457)" />
    <radialGradient
       cx="17.058823"
       cy="41.058823"
       r="5.7384715"
       fx="14.638257"
       fy="38.175381"
       id="radialGradient3796"
       xlink:href="#linearGradient7067-814-120-245-2"
       gradientUnits="userSpaceOnUse"
       gradientTransform="matrix(0.66498278,0,-0.10886388,0.6373854,18.850664,15.262641)" />
    <radialGradient
       cx="22.90196"
       cy="45.866665"
       r="7.9058824"
       fx="22.90196"
       fy="45.866665"
       id="radialGradient3800"
       xlink:href="#linearGradient5670-612-8"
       gradientUnits="userSpaceOnUse"
       gradientTransform="matrix(0.7587453,0,0,0.32584491,8.1065233,29.479142)" />
    <radialGradient
       cx="22.90196"
       cy="45.866665"
       r="7.9058824"
       fx="22.90196"
       fy="45.866665"
       id="radialGradient3803"
       xlink:href="#linearGradient5670-725-6"
       gradientUnits="userSpaceOnUse"
       gradientTransform="matrix(0.6976533,0,0,0.29960881,21.419308,28.889924)" />
    <radialGradient
       cx="605.71429"
       cy="486.64789"
       r="117.14286"
       fx="605.71429"
       fy="486.64789"
       id="radialGradient3806"
       xlink:href="#linearGradient5060-820"
       gradientUnits="userSpaceOnUse"
       gradientTransform="matrix(-0.03079083,0,0,0.02470588,23.389748,31.941642)" />
    <radialGradient
       cx="605.71429"
       cy="486.64789"
       r="117.14286"
       fx="605.71429"
       fy="486.64789"
       id="radialGradient3809"
       xlink:href="#linearGradient5060-179"
       gradientUnits="userSpaceOnUse"
       gradientTransform="matrix(0.03079083,0,0,0.02470588,24.610252,31.941642)" />
    <linearGradient
       x1="302.85715"
       y1="366.64789"
       x2="302.85715"
       y2="609.50507"
       id="linearGradient3812"
       xlink:href="#linearGradient5048-585"
       gradientUnits="userSpaceOnUse"
       gradientTransform="matrix(0.07938856,0,0,0.02470588,-4.693293,31.941642)" />
  </defs>
  <g
     id="layer1">
    <path
       d="m 3.5062498,8.4999991 c -0.690271,0.00767 -1.0004418,0.3421461 -1.0004418,1 0,5.5144549 0.026278,9.7395769 -0.00581,14.7504309 1.4354706,0 42.999998,-3.699732 42.999998,-5.292264 l 0,-6.451519 c 0,-0.657853 -0.554204,-1.007671 -1.244479,-1 l -20.255519,0 c -2.047483,0 -3.498891,-3.0066479 -5,-3.0066479 l -15.4937503,0 z"
       id="path3468"
       style="fill:url(#linearGradient3595);fill-opacity:1;stroke:url(#radialGradient3597);stroke-width:1.00000012;stroke-linecap:round;stroke-linejoin:round;stroke-miterlimit:4;stroke-opacity:1;stroke-dasharray:none;display:inline" />
    <rect
       width="38.333332"
       height="6.0000005"
       x="4.833334"
       y="41"
       id="rect4173"
       style="opacity:0.4;fill:url(#linearGradient3812);fill-opacity:1;fill-rule:nonzero;stroke:none;stroke-width:1;marker:none;visibility:visible;display:inline;overflow:visible" />
    <path
       d="m 43.166666,41.000208 c 0,0 0,5.99967 0,5.99967 1.585652,0.01129 3.833334,-1.344222 3.833333,-3.000221 0,-1.656 -1.769468,-2.999449 -3.833333,-2.999449 z"
       id="path5058"
       style="opacity:0.4;fill:url(#radialGradient3809);fill-opacity:1;fill-rule:nonzero;stroke:none;stroke-width:1;marker:none;visibility:visible;display:inline;overflow:visible" />
    <path
       d="m 4.833334,41.000208 c 0,0 0,5.99967 0,5.99967 -1.5856518,0.01129 -3.8333332,-1.344222 -3.8333332,-3.000221 0,-1.656 1.7694674,-2.999449 3.8333332,-2.999449 z"
       id="path5018"
       style="opacity:0.4;fill:url(#radialGradient3806);fill-opacity:1;fill-rule:nonzero;stroke:none;stroke-width:1;marker:none;visibility:visible;display:inline;overflow:visible" />
    <path
       d="m 2.1628556,16.525193 c -1.072707,0.123694 -0.49977,1.402118 -0.585297,2.121012 0.392532,8.47009 0.788932,16.769455 1.179047,25.239602 0.341836,0.965693 1.594435,0.47116 2.388117,0.59375 13.1935444,0 26.3870894,0 39.5806354,0 1.08938,-0.106651 0.63646,-1.407681 0.7897,-2.152262 0.39254,-8.47009 0.78894,-16.769455 1.17905,-25.239602 -0.25117,-0.954289 -1.51951,-0.424014 -2.263123,-0.5625 -14.089374,0 -28.178751,0 -42.2681294,0 z"
       id="path3388"
       style="fill:url(#radialGradient2777);fill-opacity:1;stroke:url(#linearGradient2779);stroke-width:1;stroke-linecap:round;stroke-linejoin:round;stroke-miterlimit:4;stroke-opacity:1;stroke-dashoffset:0" />
    <path
       d="m 2.0582428,16.065146 43.8964752,4.03e-4 c 0.63416,0 1.045155,0.444611 1.045155,0.997367 L 45.755637,44.002247 C 45.755637,44.555002 45.245105,45 44.610947,45 L 3.4020122,45 C 2.7678523,45 2.2573195,44.555002 2.2573195,44.002247 L 1.0130886,17.0629 c 0,-0.552757 0.4109943,-0.997754 1.0451542,-0.997754 z"
       id="path6127"
       style="opacity:0.4;fill:url(#linearGradient2774);fill-opacity:1;stroke:none" />
    <path
       d="m 46.5,17.5 c -13.53125,0 -30.46875,0 -44,0 0.3854167,8.177083 0.7708333,16.354167 1.15625,24.53125"
       id="path2435"
       style="fill:none;stroke:url(#radialGradient2771);stroke-width:0.99999976;stroke-linecap:round;stroke-linejoin:round;stroke-miterlimit:4;stroke-opacity:1;stroke-dasharray:none" />
    <path
       d="M 45.75,16 C 31.20041,16.073348 16.645416,15.978851 2.09375,16 0.28698984,16.411117 1.2593433,18.46661 1.1213236,19.771525 1.3433531,23.934872 1.4443903,28.116464 1.7417851,32.268407 16.742298,29.905609 31.66833,27.661153 46.40625,25.21875 47.187241,22.632172 47.193628,19.548156 47.063607,16.789526 46.834471,16.284964 46.276599,15.988682 45.75,16 z"
       id="path3455"
       style="fill:url(#linearGradient2768);fill-opacity:1;stroke:none" />
    <rect
       width="13"
       height="2"
       rx="1"
       ry="1"
       x="5"
       y="9.999999"
       id="rect3562"
       style="fill:#edbd74;fill-opacity:1;fill-rule:nonzero;stroke:none;stroke-width:1;marker:none;visibility:visible;display:block;overflow:visible;enable-background:accumulate" />
    <path
       d="m 42.912501,42.631991 a 5.515565,2.3686744 0 0 1 -11.03113,0 5.515565,2.3686744 0 1 1 11.03113,0 z"
       id="path2704"
       style="opacity:0.3;fill:url(#radialGradient3803);fill-opacity:1;stroke:none" />
    <path
       d="m 31.481829,44.424571 a 5.9985512,2.5760942 0 0 1 -11.997102,0 5.9985512,2.5760942 0 1 1 11.997102,0 z"
       id="path4121"
       style="opacity:0.3;fill:url(#radialGradient3800);fill-opacity:1;stroke:none" />
    <path
       d="m 41.378146,19.504217 c -4.126923,0.65819 -8.872206,1.335746 -12.987656,2.030696 -1.089793,0.526246 -0.844792,1.881339 -0.893006,2.864584 0,4.387432 0,8.774864 0,13.162296 -2.800847,-0.6412 -5.875138,1.450854 -5.996608,4.424657 -0.198287,1.851424 1.460567,3.462983 3.264419,3.506319 3.229721,0.07759 5.684399,-2.043142 5.719432,-4.725187 -0.03527,-4.504338 0.0099,-9.010449 0,-13.515478 0.5,-0.03665 8.318974,-1.466849 9,-1.562074 0,3.37408 0,6.74816 0,10.12224 -2.583394,-0.761059 -5.165682,0.829544 -5.801891,3.495564 -0.470738,1.5444 0.238985,3.370066 1.771061,4.002814 2.990859,1.360163 7.197751,-1.394993 7.03083,-4.628508 -0.04632,-6.006297 0.03797,-12.015051 0,-18.021989 -0.07855,-0.564485 -0.465037,-1.196681 -1.106581,-1.155934 z"
       id="path4031"
       style="fill:#4d4d4d;fill-opacity:1;stroke:#333;stroke-width:1;stroke-linecap:round;stroke-linejoin:round;stroke-miterlimit:4;stroke-opacity:1;stroke-dasharray:none" />
    <path
       d="m 29.620561,40.767546 a 3.3980649,4.1265918 54.476152 0 1 -7.791794,1.330819 3.3980649,4.1265918 54.476152 1 1 7.791794,-1.330819 z"
       id="path2937"
       style="fill:url(#radialGradient3796);fill-opacity:1;stroke:none" />
    <path
       d="m 41.662433,38.937127 a 3.3980646,4.1265914 54.476152 1 1 -7.791793,1.330819 3.3980646,4.1265914 54.476152 0 1 7.791793,-1.330819 z"
       id="path2941"
       style="fill:url(#radialGradient3793);fill-opacity:1;stroke:none" />
    <path
       d="m 28.09147,38.16611 -0.094,-15.045207 c 0,0 0.102897,-1.150193 0.866171,-1.153699 C 29.134344,21.920334 41,19.963101 41,19.963101 c 0,0 1.532086,0.727913 -11.015275,2.767717 -1.287099,0.24744 -1.000012,0.730941 -1.000012,1.580039 0,2.29019 2e-6,6.021469 2e-6,14.360383 0,0.05966 -0.569792,-0.422704 -0.893247,-0.50513 z"
       id="path2945"
       style="opacity:0.3;fill:url(#linearGradient3790);fill-opacity:1;fill-rule:evenodd;stroke:none" />
    <path
       d="m 39.98473,36.434456 0.0594,-11.365685 c 0.625915,-0.05597 0.0961,-0.009 0.940117,-0.09284 0.01161,2.122994 4.8e-4,3.885177 4.8e-4,11.903162 0,0.05966 -0.349163,-0.362211 -0.999997,-0.444637 z"
       id="path2947"
       style="opacity:0.3;fill:url(#linearGradient3787);fill-opacity:1;fill-rule:evenodd;stroke:none" />
  </g>
</svg>
