<?xml version="1.0" encoding="UTF-8" standalone="no"?>
<!-- Created with Inkscape (http://www.inkscape.org/) -->

<svg
   xmlns:svg="http://www.w3.org/2000/svg"
   xmlns="http://www.w3.org/2000/svg"
   xmlns:xlink="http://www.w3.org/1999/xlink"
   version="1.0"
   width="24"
   height="24"
   id="svg1">
  <defs
     id="defs3">
    <linearGradient
       id="linearGradient2790">
      <stop
         id="stop2792"
         style="stop-color:black;stop-opacity:1"
         offset="0" />
      <stop
         id="stop2794"
         style="stop-color:black;stop-opacity:0"
         offset="1" />
    </linearGradient>
    <linearGradient
       id="linearGradient2780">
      <stop
         id="stop2782"
         style="stop-color:white;stop-opacity:1"
         offset="0" />
      <stop
         id="stop2784"
         style="stop-color:white;stop-opacity:0"
         offset="1" />
    </linearGradient>
    <linearGradient
       id="linearGradient6621">
      <stop
         id="stop6622"
         style="stop-color:#f5a108;stop-opacity:0"
         offset="0" />
      <stop
         id="stop6623"
         style="stop-color:#fefdc3;stop-opacity:0.74251497"
         offset="1" />
    </linearGradient>
    <linearGradient
       x1="22.819513"
       y1="28.829224"
       x2="12.849945"
       y2="12.239423"
       id="linearGradient7881"
       xlink:href="#linearGradient6621"
       gradientUnits="userSpaceOnUse"
       gradientTransform="matrix(0.51288388,0,0,0.27020515,0.92882115,2.745462)" />
    <linearGradient
       x1="24"
       y1="5.0793009"
       x2="24"
       y2="41.0793"
       id="linearGradient2786"
       xlink:href="#linearGradient2780"
       gradientUnits="userSpaceOnUse"
       gradientTransform="matrix(0.46199132,0,0,0.47517628,0.85460287,1.9583756)" />
    <radialGradient
       cx="24.375"
       cy="37.75"
       r="17.375"
       fx="24.375"
       fy="37.75"
       id="radialGradient2796"
       xlink:href="#linearGradient2790"
       gradientUnits="userSpaceOnUse"
       gradientTransform="matrix(0.57553957,0,0,0.17266188,-2.0287771,14.48237)" />
    <linearGradient
       id="linearGradient3242">
      <stop
         id="stop3244"
         style="stop-color:#f8b17e;stop-opacity:1"
         offset="0" />
      <stop
         id="stop3246"
         style="stop-color:#e35d4f;stop-opacity:1"
         offset="0.31209752" />
      <stop
         id="stop3248"
         style="stop-color:#c6262e;stop-opacity:1"
         offset="0.57054454" />
      <stop
         id="stop3250"
         style="stop-color:#690b54;stop-opacity:1"
         offset="1" />
    </linearGradient>
    <linearGradient
       id="linearGradient2490">
      <stop
         id="stop2492"
         style="stop-color:#791235;stop-opacity:1"
         offset="0" />
      <stop
         id="stop2494"
         style="stop-color:#dd3b27;stop-opacity:1"
         offset="1" />
    </linearGradient>
    <linearGradient
       x1="24"
       y1="6"
       x2="24"
       y2="51"
       id="linearGradient3853"
       xlink:href="#linearGradient3242"
       gradientUnits="userSpaceOnUse"
       gradientTransform="matrix(0.48412903,0,0,0.49583931,0.32374603,0.43515079)" />
    <linearGradient
       x1="17"
       y1="45"
       x2="17"
       y2="6"
       id="linearGradient3861"
       xlink:href="#linearGradient2490"
       gradientUnits="userSpaceOnUse"
       gradientTransform="matrix(0.48412903,0,0,0.49583931,0.32374603,0.43515079)" />
  </defs>
  <path
     d="m 22,21.000354 a 10,3 0 0 1 -20,0 10,3 0 1 1 20,0 z"
     id="path2788"
     style="opacity:0.3;color:black;fill:url(#radialGradient2796);fill-opacity:1;fill-rule:nonzero;stroke:none;stroke-width:1;marker:none;visibility:visible;display:inline;overflow:visible" />
  <path
     d="M 7.1196788,4.6498886 C 4.5209271,4.5189342 3.3102429,6.228039 2.6553565,7.8538921 2.005464,9.9949287 2.9241384,14.038843 7.4260775,13.731199 c 2.5678836,0 3.5885255,-2.695971 4.9399895,-3.39583 1.228227,-0.4754361 1.324894,-0.5179873 2.622535,-0.5179873 1.803318,0 5.064404,-1.3360822 5.064405,-2.6617875 C 19.498709,6.0917962 18.027123,4.1973368 15.32299,4.5202254 13.601699,4.7253207 11.973256,5.9849488 11.547883,6.6117437 10.505863,5.6708311 9.1753601,4.6498886 7.1196788,4.6498886 z"
     id="path7876"
     style="fill:url(#linearGradient7881);fill-opacity:1;fill-rule:evenodd;stroke:none" />
  <path
     d="M 11.863717,5.4920235 C 16.360634,0.88825373 22.54045,5.1315676 22.499801,9.4976614 22.462639,13.489031 19.49125,15.400548 12.026318,22.5 4.2127816,15.895478 1.4597926,14.37245 1.5004426,9.6368239 1.5410927,4.7347325 6.8315367,1.0556898 11.863717,5.4920235 z"
     id="path920"
     style="fill:url(#linearGradient3853);fill-opacity:1;fill-rule:evenodd;stroke:url(#linearGradient3861);stroke-width:0.99999976;stroke-linecap:butt;stroke-linejoin:miter;stroke-miterlimit:4;stroke-opacity:1;stroke-dasharray:none" />
  <path
     d="M 7.8422215,4.5272974 C 7.4575952,4.4934316 7.074161,4.5019895 6.7161177,4.5569959 4.3270639,4.9240282 2.5226739,7.1663941 2.5004469,9.8581818 2.4819607,12.020918 3.0346951,13.329037 4.5649706,14.996025 6.0397732,16.602583 8.4985963,18.527249 12.014581,21.5 c 3.364635,-3.199595 5.785066,-5.34228 7.2908,-7.0237 1.562558,-1.744871 2.177975,-2.973647 2.194459,-4.7517623 C 21.51684,7.8915484 20.179039,5.967072 18.338087,5.0618707 16.497135,4.1566694 14.23668,4.202742 12.231139,6.2646606 A 0.51813698,0.53292432 0 0 1 11.538153,6.294359 C 10.255511,5.1587877 8.9961014,4.6288946 7.8422215,4.5272974 z"
     id="path2778"
     style="opacity:0.4;fill:none;stroke:url(#linearGradient2786);stroke-width:0.99999994;stroke-linecap:butt;stroke-linejoin:miter;stroke-miterlimit:4;stroke-opacity:1;stroke-dasharray:none" />
</svg>
