<?xml version="1.0" encoding="UTF-8" standalone="no"?>
<!-- Created with Inkscape (http://www.inkscape.org/) -->

<svg
   xmlns:svg="http://www.w3.org/2000/svg"
   xmlns="http://www.w3.org/2000/svg"
   xmlns:xlink="http://www.w3.org/1999/xlink"
   version="1.1"
   width="22"
   height="22"
   id="svg2816"
   style="display:inline">
  <defs
     id="defs2818">
    <linearGradient
       id="linearGradient3681">
      <stop
         id="stop3683"
         style="stop-color:#ffffff;stop-opacity:1"
         offset="0" />
      <stop
         id="stop3685"
         style="stop-color:#ffffff;stop-opacity:0"
         offset="1" />
    </linearGradient>
    <radialGradient
       cx="7.1587596"
       cy="6.2412133"
       r="9.5"
       fx="7.1587596"
       fy="6.2412133"
       id="radialGradient3671"
       xlink:href="#linearGradient3698"
       gradientUnits="userSpaceOnUse"
       gradientTransform="matrix(1.8017671,6.2429144e-8,-4.6695406e-8,1.3476758,-6.9296673,-2.3798827)" />
    <linearGradient
       x1="9.051095"
       y1="5.8686132"
       x2="11.284672"
       y2="22.992701"
       id="linearGradient3687"
       xlink:href="#linearGradient3681"
       gradientUnits="userSpaceOnUse"
       gradientTransform="translate(-1.03125,-0.96875)" />
    <linearGradient
       id="linearGradient3698">
      <stop
         id="stop3700"
         style="stop-color:#eeeeec;stop-opacity:1"
         offset="0" />
      <stop
         id="stop3702"
         style="stop-color:#babdb6;stop-opacity:1"
         offset="0.79219842" />
      <stop
         id="stop3704"
         style="stop-color:#a1a59b;stop-opacity:1"
         offset="1" />
    </linearGradient>
    <linearGradient
       x1="24.103895"
       y1="15.168831"
       x2="24.103895"
       y2="32.485161"
       id="linearGradient9127"
       xlink:href="#linearGradient2264"
       gradientUnits="userSpaceOnUse"
       gradientTransform="matrix(0.4691323,0,0,0.4663025,18.849015,37.308462)" />
    <linearGradient
       id="linearGradient2264">
      <stop
         id="stop2266"
         style="stop-color:#d7e866;stop-opacity:1"
         offset="0" />
      <stop
         id="stop2268"
         style="stop-color:#8cab2a;stop-opacity:1"
         offset="1" />
    </linearGradient>
    <linearGradient
       id="linearGradient3943">
      <stop
         id="stop3945"
         style="stop-color:#ffffff;stop-opacity:0.40000001"
         offset="0" />
      <stop
         id="stop3947"
         style="stop-color:#ffffff;stop-opacity:0"
         offset="1" />
    </linearGradient>
    <linearGradient
       x1="24.138529"
       y1="7.0478544"
       x2="24.138529"
       y2="47.272728"
       id="linearGradient2875"
       xlink:href="#linearGradient3943"
       gradientUnits="userSpaceOnUse"
       gradientTransform="matrix(0.2817955,0,0,0.2800956,23.345098,41.514885)" />
  </defs>
  <path
     d="m 1.5,10.900001 c 0,-3.6 0,-10e-7 0,-3.6000009 0,-3.6 3.0000001,-4.7 4.8000001,-4.8000001 l 8.3999989,0 C 16.499999,2.6374996 19.5,3.7000001 19.5,7.3000001 l 0,3.6000009 c 0,3.6 -1.816667,4.599999 -3.6,4.599999 -2.875403,-0.01699 -0.619386,3.469177 0,5 l -0.799999,0 -5.2,-5 -3.6000009,0 C 4.4666666,15.4625 1.5,14.500001 1.5,10.900001 z M 5.8811588,4.5 l 0,0 z"
     id="path2819"
     style="fill:url(#radialGradient3671);fill-opacity:1;stroke:#888a86;stroke-opacity:1" />
  <path
     d="M 6.375,3.53125 C 5.6549837,3.5712509 4.6049894,3.8298483 3.84375,4.40625 3.0825106,4.9826517 2.53125,5.8006657 2.53125,7.3125 l 0,3.59375 c 0,1.515023 0.5398179,2.253128 1.28125,2.78125 0.7330747,0.522169 1.7537358,0.761401 2.5,0.78125 l 0.03125,0 3.5625,0 A 1.0331952,1.0331952 0 0 1 10.625,14.75 l 2.96875,2.84375 c -0.158501,-0.621487 -0.277761,-1.324714 0.09375,-2.03125 0.388787,-0.73939 1.291953,-1.099226 2.21875,-1.09375 0.699772,0 1.276351,-0.167593 1.71875,-0.625 0.442399,-0.457407 0.84375,-1.310678 0.84375,-2.9375 l 0,-3.59375 c 0,-1.5118343 -0.550694,-2.3018198 -1.3125,-2.875 -0.761806,-0.5731802 -1.822732,-0.8497401 -2.5625,-0.90625 l -8.21875,0 z"
     id="path3669"
     style="opacity:0.6;fill:none;stroke:url(#linearGradient3687);stroke-opacity:1" />
  <g
     transform="translate(-13.159071,-42.5)"
     id="g9123">
    <path
       d="m 27.648536,46 0,-3 4,0 0,3 3,0 0,4 -3,0 0,2.999991 -4,0 0,-2.999991 -2.989465,0 0,-4 2.989465,0 z"
       id="path2262"
       style="fill:url(#linearGradient9127);fill-opacity:1;fill-rule:evenodd;stroke:#699536;stroke-width:1;stroke-linecap:butt;stroke-linejoin:round;stroke-miterlimit:4;stroke-opacity:1;stroke-dasharray:none;display:inline" />
    <path
       d="m 28.648536,47 0,-3 2,0 0,3 3,0 0,2 -3,0 0,3 -2,0 0,-3 -3,0 0,-2 3,0 z"
       id="path2272"
       style="fill:none;stroke:url(#linearGradient2875);stroke-width:1;stroke-linecap:butt;stroke-linejoin:miter;stroke-miterlimit:4;stroke-opacity:1;stroke-dasharray:none;display:inline" />
  </g>
</svg>
