<?xml version="1.0" encoding="UTF-8" standalone="no"?>
<!-- Created with Inkscape (http://www.inkscape.org/) -->

<svg
   xmlns:svg="http://www.w3.org/2000/svg"
   xmlns="http://www.w3.org/2000/svg"
   xmlns:xlink="http://www.w3.org/1999/xlink"
   version="1.0"
   width="24"
   height="24"
   id="svg2">
  <defs
     id="defs4">
    <linearGradient
       id="linearGradient4222">
      <stop
         id="stop4224"
         style="stop-color:white;stop-opacity:1"
         offset="0" />
      <stop
         id="stop4226"
         style="stop-color:white;stop-opacity:0"
         offset="1" />
    </linearGradient>
    <linearGradient
       id="linearGradient3275">
      <stop
         id="stop3277"
         style="stop-color:white;stop-opacity:0"
         offset="0" />
      <stop
         id="stop3283"
         style="stop-color:white;stop-opacity:1"
         offset="0.245" />
      <stop
         id="stop3285"
         style="stop-color:white;stop-opacity:1"
         offset="0.77350003" />
      <stop
         id="stop3279"
         style="stop-color:white;stop-opacity:0"
         offset="1" />
    </linearGradient>
    <linearGradient
       id="linearGradient2929">
      <stop
         id="stop2931"
         style="stop-color:white;stop-opacity:1"
         offset="0" />
      <stop
         id="stop2933"
         style="stop-color:white;stop-opacity:1"
         offset="0.27127403" />
      <stop
         id="stop2935"
         style="stop-color:white;stop-opacity:0.6901961"
         offset="0.38989457" />
      <stop
         id="stop2937"
         style="stop-color:white;stop-opacity:0"
         offset="1" />
    </linearGradient>
    <linearGradient
       id="linearGradient2919">
      <stop
         id="stop2921"
         style="stop-color:#dac197;stop-opacity:1"
         offset="0" />
      <stop
         id="stop2923"
         style="stop-color:#c1a581;stop-opacity:1"
         offset="0.26124284" />
      <stop
         id="stop2925"
         style="stop-color:#dbc298;stop-opacity:1"
         offset="0.31579992" />
      <stop
         id="stop2927"
         style="stop-color:#a68b60;stop-opacity:1"
         offset="1" />
    </linearGradient>
    <linearGradient
       id="linearGradient2909">
      <stop
         id="stop2911"
         style="stop-color:#c9af8b;stop-opacity:1"
         offset="0" />
      <stop
         id="stop2913"
         style="stop-color:#ad8757;stop-opacity:1"
         offset="0.24941477" />
      <stop
         id="stop2915"
         style="stop-color:#c2a57f;stop-opacity:1"
         offset="0.31247044" />
      <stop
         id="stop2917"
         style="stop-color:#9d7d53;stop-opacity:1"
         offset="1" />
    </linearGradient>
    <linearGradient
       id="linearGradient3681">
      <stop
         id="stop3683"
         style="stop-color:black;stop-opacity:1"
         offset="0" />
      <stop
         id="stop3685"
         style="stop-color:black;stop-opacity:0"
         offset="1" />
    </linearGradient>
    <linearGradient
       id="linearGradient3703">
      <stop
         id="stop3705"
         style="stop-color:black;stop-opacity:0"
         offset="0" />
      <stop
         id="stop3711"
         style="stop-color:black;stop-opacity:1"
         offset="0.5" />
      <stop
         id="stop3707"
         style="stop-color:black;stop-opacity:0"
         offset="1" />
    </linearGradient>
    <linearGradient
       id="linearGradient8265-821-176-38-919-66-249">
      <stop
         id="stop2687"
         style="stop-color:white;stop-opacity:0.27450982"
         offset="0" />
      <stop
         id="stop2689"
         style="stop-color:white;stop-opacity:0.07843138"
         offset="1" />
    </linearGradient>
    <linearGradient
       id="linearGradient7012-661-145-733-759-865-745-661-970-94">
      <stop
         id="stop3618"
         style="stop-color:#edd563;stop-opacity:1"
         offset="0" />
      <stop
         id="stop3620"
         style="stop-color:#e08223;stop-opacity:1"
         offset="1" />
    </linearGradient>
    <linearGradient
       id="linearGradient3390-178-986-453">
      <stop
         id="stop3624"
         style="stop-color:#bb5e12;stop-opacity:1"
         offset="0" />
      <stop
         id="stop3626"
         style="stop-color:#cd8033;stop-opacity:1"
         offset="1" />
    </linearGradient>
    <linearGradient
       id="linearGradient2264">
      <stop
         id="stop2266"
         style="stop-color:#d7e866;stop-opacity:1"
         offset="0" />
      <stop
         id="stop2268"
         style="stop-color:#8cab2a;stop-opacity:1"
         offset="1" />
    </linearGradient>
    <linearGradient
       x1="24.138529"
       y1="8.6973467"
       x2="24.138529"
       y2="39.236618"
       id="linearGradient5544"
       xlink:href="#linearGradient4222"
       gradientUnits="userSpaceOnUse"
       gradientTransform="matrix(0.2817955,0,0,0.2800956,12.186027,-0.985106)" />
    <linearGradient
       x1="24.103895"
       y1="15.168831"
       x2="24.103895"
       y2="32.485161"
       id="linearGradient5547"
       xlink:href="#linearGradient2264"
       gradientUnits="userSpaceOnUse"
       gradientTransform="matrix(0.4691323,0,0,0.4663025,7.689944,-5.1915285)" />
    <linearGradient
       x1="18.03083"
       y1="16.407909"
       x2="20.054544"
       y2="24.627615"
       id="linearGradient5551"
       xlink:href="#linearGradient8265-821-176-38-919-66-249"
       gradientUnits="userSpaceOnUse"
       gradientTransform="matrix(0.2966887,0,0,0.3520695,8.8736481,11.123043)" />
    <linearGradient
       x1="126.69791"
       y1="58.583481"
       x2="169.22964"
       y2="238.3999"
       id="linearGradient5554"
       xlink:href="#linearGradient7012-661-145-733-759-865-745-661-970-94"
       gradientUnits="userSpaceOnUse"
       gradientTransform="matrix(0.05489342,0.01385132,0.00257263,0.05248166,6.2803451,8.7370025)" />
    <linearGradient
       x1="10.318256"
       y1="14.992862"
       x2="4.1760364"
       y2="4.0514131"
       id="linearGradient5556"
       xlink:href="#linearGradient3390-178-986-453"
       gradientUnits="userSpaceOnUse"
       gradientTransform="matrix(1.0083043,0,0,1.0006232,6.992322,8.9977925)" />
    <linearGradient
       x1="44.994774"
       y1="17.5"
       x2="3.0052247"
       y2="17.5"
       id="linearGradient5561"
       xlink:href="#linearGradient3275"
       gradientUnits="userSpaceOnUse"
       gradientTransform="matrix(0.5123229,0,0,0.4997434,-0.2958069,0.7544889)"
       spreadMethod="reflect" />
    <linearGradient
       x1="26"
       y1="22"
       x2="26"
       y2="8"
       id="linearGradient5564"
       xlink:href="#linearGradient2929"
       gradientUnits="userSpaceOnUse"
       gradientTransform="matrix(0.5,0,0,0.5714285,1.0587409e-6,-0.5714291)" />
    <linearGradient
       x1="24.822832"
       y1="15.377745"
       x2="24.996943"
       y2="37.27668"
       id="linearGradient5567"
       xlink:href="#linearGradient2919"
       gradientUnits="userSpaceOnUse"
       gradientTransform="matrix(0.6568374,0,0,0.7782314,-3.4038718,-7.3786984)" />
    <linearGradient
       x1="15.464298"
       y1="7.9756851"
       x2="15.464298"
       y2="45.04248"
       id="linearGradient5569"
       xlink:href="#linearGradient2909"
       gradientUnits="userSpaceOnUse"
       gradientTransform="matrix(0.5122637,0,0,0.4997434,-0.2943328,0.2627569)" />
    <radialGradient
       cx="5"
       cy="41.5"
       r="5"
       fx="5"
       fy="41.5"
       id="radialGradient5575"
       xlink:href="#linearGradient3681"
       gradientUnits="userSpaceOnUse"
       gradientTransform="matrix(0.3075471,0,0,0.7,-3.0708515,-49.550003)" />
    <linearGradient
       x1="17.554192"
       y1="46.000275"
       x2="17.554192"
       y2="34.999718"
       id="linearGradient5577"
       xlink:href="#linearGradient3703"
       gradientUnits="userSpaceOnUse"
       gradientTransform="matrix(0.9099856,0,0,0.6363637,-9.3867094,-5.2727278)" />
    <radialGradient
       cx="5"
       cy="41.5"
       r="5"
       fx="5"
       fy="41.5"
       id="radialGradient5579"
       xlink:href="#linearGradient3681"
       gradientUnits="userSpaceOnUse"
       gradientTransform="matrix(0.3075471,0,0,0.7,20.929151,-49.550003)" />
  </defs>
  <g
     id="g5581">
    <g
       transform="matrix(1,0,0,0.5714285,0,10.285715)"
       id="g5906">
      <rect
         width="1.5331169"
         height="7.0000005"
         x="-1.5331169"
         y="-24.000002"
         transform="scale(-1,-1)"
         id="rect2484"
         style="opacity:0.4;fill:url(#radialGradient5575);fill-opacity:1;stroke:none" />
      <rect
         width="20.929667"
         height="7.0000005"
         x="1.5331169"
         y="17.000002"
         id="rect2486"
         style="opacity:0.4;fill:url(#linearGradient5577);fill-opacity:1;stroke:none" />
      <rect
         width="1.5331169"
         height="7.0000005"
         x="22.466885"
         y="-24.000002"
         transform="scale(1,-1)"
         id="rect3444"
         style="opacity:0.4;fill:url(#radialGradient5579);fill-opacity:1;stroke:none;display:inline" />
    </g>
    <path
       d="m 4.3215344,4.5105749 15.1106106,0 c 0.882111,0 1.279083,-0.1432 1.532464,0.499744 l 1.53768,4.489679 0,12.3386361 c 0,0.776254 0.05273,0.657651 -0.829386,0.657651 l -19.3458141,0 c -0.8821142,0 -0.8293873,0.118603 -0.8293873,-0.657651 l 0,-12.3386361 1.5376796,-4.489679 c 0.2463125,-0.629958 0.404039,-0.499744 1.2861532,-0.499744 l 0,0 z"
       id="path2488"
       style="fill:url(#linearGradient5567);fill-opacity:1;fill-rule:nonzero;stroke:url(#linearGradient5569);stroke-width:0.99420071;stroke-linecap:round;stroke-linejoin:miter;stroke-miterlimit:4;stroke-opacity:1;stroke-dasharray:none;stroke-dashoffset:0;marker:none;visibility:visible;display:block;overflow:visible" />
    <path
       d="m 11,3.9999979 c 0.666667,0 1.333333,0 2,0 0,2.666665 0,5.333334 0,8.0000001 -0.196865,0 -0.39373,0 -0.590593,0 -0.201563,0 -0.403126,0 -0.604688,0 -0.162265,0 -0.32453,0 -0.486792,0 -0.105977,0 -0.211952,0 -0.317927,0 0,-2.6666661 0,-5.3333351 0,-8.0000001 z"
       id="rect3326"
       style="opacity:0.4;fill:url(#linearGradient5564);fill-opacity:1;fill-rule:nonzero;stroke:none;stroke-width:1;marker:none;visibility:visible;display:inline;overflow:visible;enable-background:accumulate" />
    <path
       d="m 1.5,9.4999979 20.999885,0"
       id="path3273"
       style="opacity:0.4;fill:none;stroke:url(#linearGradient5561);stroke-width:0.99999994px;stroke-linecap:square;stroke-linejoin:miter;stroke-opacity:1;display:inline" />
    <path
       d="m 8.542,11.586998 c -1.598e-4,3.972932 0.00407,7.945864 0,11.918795 4.35667,-0.02218 7.611298,-0.04998 11.968,-0.06552 -0.647838,0.09838 0.02253,-7.650356 0.01041,-10.921274 -2.047485,-0.007 -4.096567,0.01395 -6.143053,-0.01047 -0.631495,-0.181906 -0.976676,-1.028894 -1.702503,-0.921533 -1.377617,0 -2.7552352,0 -4.132853,0 z"
       id="rect2196"
       style="fill:white;fill-opacity:1;stroke:#a8a8a8;stroke-width:0.97899997;stroke-linecap:round;stroke-linejoin:round;stroke-miterlimit:4;stroke-opacity:1;stroke-dasharray:none;display:inline" />
    <path
       d="m 10.493,14.543998 c 0.656364,0 11.505576,0 12.014535,0 0,0.615413 -0.02468,8.973896 -0.05407,8.973896 -4.558843,0.01775 -10.633054,-0.01389 -11.960468,-0.01389 0,-1.161471 0,-6.569757 0,-8.960001 z"
       id="rect3086"
       style="fill:url(#linearGradient5554);fill-opacity:1;stroke:url(#linearGradient5556);stroke-width:0.95339239;stroke-linecap:round;stroke-linejoin:round;stroke-miterlimit:4;stroke-opacity:1;stroke-dasharray:none;display:inline" />
    <path
       d="m 10.761,14.003998 c -0.601279,0.01111 -0.8268492,0.67405 -0.761,1.204244 0.0058,1.498769 -0.02023,2.99883 0,4.496791 0.04642,0.36973 0.505882,0.306214 0.761,0.234884 4.340552,-0.815539 7.614478,-1.631078 11.95503,-2.446617 0.402703,-0.133412 0.246872,-0.603416 0.278146,-0.922415 -0.01756,-0.622388 0.03963,-1.251197 -0.03788,-1.868539 -0.09536,-0.46077 -0.550472,-0.768008 -1.009801,-0.698348 -4.039293,0 -7.146202,0 -11.185495,0 z"
       id="path2509"
       style="fill:url(#linearGradient5551);fill-opacity:1;fill-rule:evenodd;stroke:none" />
    <path
       d="m 11.492,23.004412 0,-7.500414 10.500115,0"
       id="path2406"
       style="opacity:0.35;fill:none;stroke:white;stroke-width:1px;stroke-linecap:butt;stroke-linejoin:miter;stroke-opacity:1" />
    <path
       d="m 16.489465,3.500009 0,-3 4.000001,0 0,3 3,0 0,4 -3,0 0,2.999991 -4.000001,0 0,-2.999991 -2.989465,0 0,-4 2.989465,0 z"
       id="path2262"
       style="fill:url(#linearGradient5547);fill-opacity:1;fill-rule:evenodd;stroke:#699536;stroke-width:1;stroke-linecap:butt;stroke-linejoin:round;stroke-miterlimit:4;stroke-opacity:1;stroke-dasharray:none;display:inline" />
    <path
       d="m 17.489466,4.500009 0,-3 2,0 0,3 3,0 0,2 -3,0 0,3 -2,0 0,-3 -3.000001,0 0,-2 3.000001,0 z"
       id="path2272"
       style="opacity:0.4;fill:none;stroke:url(#linearGradient5544);stroke-width:1;stroke-linecap:butt;stroke-linejoin:miter;stroke-miterlimit:4;stroke-opacity:1;stroke-dasharray:none;display:inline" />
  </g>
</svg>
