<?xml version="1.0" encoding="UTF-8" standalone="no"?>
<!-- Created with Inkscape (http://www.inkscape.org/) -->

<svg
   xmlns:svg="http://www.w3.org/2000/svg"
   xmlns="http://www.w3.org/2000/svg"
   xmlns:xlink="http://www.w3.org/1999/xlink"
   version="1.0"
   width="32"
   height="32"
   id="svg44406">
  <defs
     id="defs44408">
    <linearGradient
       id="linearGradient3484">
      <stop
         id="stop3486"
         style="stop-color:#bdbdbd;stop-opacity:1"
         offset="0" />
      <stop
         id="stop3488"
         style="stop-color:#d0d0d0;stop-opacity:1"
         offset="1" />
    </linearGradient>
    <linearGradient
       id="linearGradient6404">
      <stop
         id="stop6406"
         style="stop-color:#f9f9f9;stop-opacity:1"
         offset="0" />
      <stop
         id="stop6408"
         style="stop-color:#c9c9c9;stop-opacity:1"
         offset="1" />
    </linearGradient>
    <linearGradient
       id="linearGradient5048-585">
      <stop
         id="stop2667"
         style="stop-color:#000000;stop-opacity:0"
         offset="0" />
      <stop
         id="stop2669"
         style="stop-color:#000000;stop-opacity:1"
         offset="0.5" />
      <stop
         id="stop2671"
         style="stop-color:#000000;stop-opacity:0"
         offset="1" />
    </linearGradient>
    <linearGradient
       id="linearGradient5060-179">
      <stop
         id="stop2675"
         style="stop-color:#000000;stop-opacity:1"
         offset="0" />
      <stop
         id="stop2677"
         style="stop-color:#000000;stop-opacity:0"
         offset="1" />
    </linearGradient>
    <linearGradient
       id="linearGradient5060-820">
      <stop
         id="stop2681"
         style="stop-color:#000000;stop-opacity:1"
         offset="0" />
      <stop
         id="stop2683"
         style="stop-color:#000000;stop-opacity:0"
         offset="1" />
    </linearGradient>
    <linearGradient
       id="linearGradient3390">
      <stop
         id="stop3392"
         style="stop-color:#425e7b;stop-opacity:1"
         offset="0" />
      <stop
         id="stop3394"
         style="stop-color:#7a91a7;stop-opacity:1"
         offset="1" />
    </linearGradient>
    <linearGradient
       id="linearGradient7012-661-145-733-759-865-745">
      <stop
         id="stop2699"
         style="stop-color:#9cbbd9;stop-opacity:1"
         offset="0" />
      <stop
         id="stop2701"
         style="stop-color:#5c82ab;stop-opacity:1"
         offset="1" />
    </linearGradient>
    <linearGradient
       id="linearGradient6129-963-697-142-998-580-273">
      <stop
         id="stop2661"
         style="stop-color:#0a0a0a;stop-opacity:0.498"
         offset="0" />
      <stop
         id="stop2663"
         style="stop-color:#0a0a0a;stop-opacity:0"
         offset="1" />
    </linearGradient>
    <linearGradient
       id="linearGradient6087-437-184-795-110-662-495">
      <stop
         id="stop2693"
         style="stop-color:#ffffff;stop-opacity:0.40000001"
         offset="0" />
      <stop
         id="stop2695"
         style="stop-color:#ffffff;stop-opacity:0"
         offset="1" />
    </linearGradient>
    <linearGradient
       id="linearGradient8265-821-176-38-919-66-249">
      <stop
         id="stop2687"
         style="stop-color:#ffffff;stop-opacity:0.2"
         offset="0" />
      <stop
         id="stop2689"
         style="stop-color:#ffffff;stop-opacity:0"
         offset="1" />
    </linearGradient>
    <linearGradient
       x1="11.566265"
       y1="22.292103"
       x2="15.214532"
       y2="33.95525"
       id="linearGradient2431"
       xlink:href="#linearGradient8265-821-176-38-919-66-249"
       gradientUnits="userSpaceOnUse"
       gradientTransform="matrix(0.6515346,0,0,0.6760494,0.3603499,0.1849652)" />
    <radialGradient
       cx="7.2646537"
       cy="8.3021259"
       r="20.979567"
       fx="7.2646537"
       fy="8.3021259"
       id="radialGradient2434"
       xlink:href="#linearGradient6087-437-184-795-110-662-495"
       gradientUnits="userSpaceOnUse"
       gradientTransform="matrix(0,0.7386341,-0.9984871,0,17.148572,6.8540185)" />
    <linearGradient
       x1="22.934725"
       y1="49.629246"
       x2="22.809399"
       y2="36.657963"
       id="linearGradient2437"
       xlink:href="#linearGradient6129-963-697-142-998-580-273"
       gradientUnits="userSpaceOnUse"
       gradientTransform="matrix(0.7467531,0,0,0.6554922,-1.9220764,1.1676179)" />
    <radialGradient
       cx="63.969177"
       cy="14.113381"
       r="23.097054"
       fx="63.969177"
       fy="14.113381"
       id="radialGradient2440"
       xlink:href="#linearGradient7012-661-145-733-759-865-745"
       gradientUnits="userSpaceOnUse"
       gradientTransform="matrix(1.007989,-6.1246211e-8,3.9794263e-8,0.6539555,-55.005411,6.1061543)" />
    <linearGradient
       x1="82.453476"
       y1="45.114193"
       x2="82.453476"
       y2="10.82615"
       id="linearGradient2442"
       xlink:href="#linearGradient3390"
       gradientUnits="userSpaceOnUse"
       gradientTransform="matrix(0.644209,0,0,0.643728,-34.102646,0.7887616)" />
    <linearGradient
       x1="62.988873"
       y1="13.182598"
       x2="62.988873"
       y2="16.19013"
       id="linearGradient2454"
       xlink:href="#linearGradient6404"
       gradientUnits="userSpaceOnUse"
       gradientTransform="matrix(0.627907,0,0,0.6348983,-31.055913,1.1034431)" />
    <radialGradient
       cx="3"
       cy="5.01718"
       r="21"
       fx="3"
       fy="5.01718"
       id="radialGradient2456"
       xlink:href="#linearGradient3484"
       gradientUnits="userSpaceOnUse"
       gradientTransform="matrix(0,1.0884009,-1.355859,0,8.9733195,2.9173483)" />
    <linearGradient
       x1="302.85715"
       y1="366.64789"
       x2="302.85715"
       y2="609.50507"
       id="linearGradient2463"
       xlink:href="#linearGradient5048-585"
       gradientUnits="userSpaceOnUse"
       gradientTransform="matrix(0.05114282,0,0,0.01591575,-2.4899573,22.29927)" />
    <radialGradient
       cx="605.71429"
       cy="486.64789"
       r="117.14286"
       fx="605.71429"
       fy="486.64789"
       id="radialGradient2465"
       xlink:href="#linearGradient5060-179"
       gradientUnits="userSpaceOnUse"
       gradientTransform="matrix(0.01983573,0,0,0.01591575,16.38765,22.29927)" />
    <radialGradient
       cx="605.71429"
       cy="486.64789"
       r="117.14286"
       fx="605.71429"
       fy="486.64789"
       id="radialGradient2467"
       xlink:href="#linearGradient5060-820"
       gradientUnits="userSpaceOnUse"
       gradientTransform="matrix(-0.01983573,0,0,0.01591575,15.60139,22.29927)" />
    <linearGradient
       id="linearGradient3932">
      <stop
         id="stop3934"
         style="stop-color:#828282;stop-opacity:1"
         offset="0" />
      <stop
         id="stop3936"
         style="stop-color:#434343;stop-opacity:1"
         offset="1" />
    </linearGradient>
    <linearGradient
       id="linearGradient3582">
      <stop
         id="stop3584"
         style="stop-color:#333333;stop-opacity:1"
         offset="0" />
      <stop
         id="stop3586"
         style="stop-color:#5a5a5a;stop-opacity:1"
         offset="1" />
    </linearGradient>
    <linearGradient
       x1="12.872127"
       y1="5.0561161"
       x2="12.872127"
       y2="21.467987"
       id="linearGradient3294"
       xlink:href="#linearGradient3522"
       gradientUnits="userSpaceOnUse"
       gradientTransform="matrix(0.6581265,0,0,0.6674529,13.39223,15.787296)" />
    <linearGradient
       x1="5.6597543"
       y1="18.299864"
       x2="5.6597543"
       y2="1"
       id="linearGradient3296"
       xlink:href="#linearGradient3582"
       gradientUnits="userSpaceOnUse"
       gradientTransform="matrix(0.8374561,0,0,0.8569233,13.481556,15.322905)" />
    <linearGradient
       x1="5.4499502"
       y1="-0.3819541"
       x2="5.4499502"
       y2="18.299162"
       id="linearGradient3299"
       xlink:href="#linearGradient3932"
       gradientUnits="userSpaceOnUse"
       gradientTransform="matrix(0.8527832,0,0,0.8564799,13.352374,15.327136)" />
    <linearGradient
       x1="2.6708329"
       y1="18.300243"
       x2="2.6708329"
       y2="0.7810511"
       id="linearGradient3301"
       xlink:href="#linearGradient3582"
       gradientUnits="userSpaceOnUse"
       gradientTransform="matrix(0.8527832,0,0,0.8564799,13.352374,15.327136)" />
    <linearGradient
       id="linearGradient3576">
      <stop
         id="stop3578"
         style="stop-color:#9fbad6;stop-opacity:1"
         offset="0" />
      <stop
         id="stop3580"
         style="stop-color:#587b9f;stop-opacity:1"
         offset="1" />
    </linearGradient>
    <linearGradient
       id="linearGradient3522">
      <stop
         id="stop3524"
         style="stop-color:#81aac3;stop-opacity:1"
         offset="0" />
      <stop
         id="stop3526"
         style="stop-color:#4e82a3;stop-opacity:1"
         offset="1" />
    </linearGradient>
    <linearGradient
       x1="17"
       y1="15"
       x2="17"
       y2="30"
       id="linearGradient4689"
       xlink:href="#linearGradient3576"
       gradientUnits="userSpaceOnUse" />
  </defs>
  <path
     d="M 4,6.5000785 C 3.566574,6.5049492 3.5,6.7173065 3.5,7.1349768 L 3.5,8.5 c -1.2456805,0 -1,-0.0018 -1,0.5438922 0.021607,6.5331318 0,6.9014318 0,7.4561078 0.9013419,0 26.999999,-2.348954 26.999999,-3.36005 l 0,-4.0960578 C 29.499999,8.6262224 29.152009,8.4951297 28.718581,8.5 L 14.5,8.5 l 0,-1.3650232 c 0,-0.4176703 -0.264249,-0.639769 -0.697676,-0.6348983 l -9.802324,0 z"
     id="path3468"
     style="fill:url(#linearGradient2454);fill-opacity:1;stroke:url(#radialGradient2456);stroke-width:1.00000012;stroke-linecap:round;stroke-linejoin:round;stroke-miterlimit:4;stroke-opacity:1;stroke-dasharray:none;display:inline" />
  <g
     transform="translate(0,-1.000001)"
     id="g2458">
    <rect
       width="24.694677"
       height="3.8652544"
       x="3.6471815"
       y="28.134747"
       id="rect4173"
       style="opacity:0.3;fill:url(#linearGradient2463);fill-opacity:1;fill-rule:nonzero;stroke:none;stroke-width:1;marker:none;visibility:visible;display:inline;overflow:visible" />
    <path
       d="m 28.341859,28.13488 c 0,0 0,3.865041 0,3.865041 1.021491,0.0073 2.469468,-0.86596 2.469468,-1.932769 0,-1.06681 -1.139908,-1.932272 -2.469468,-1.932272 z"
       id="path5058"
       style="opacity:0.3;fill:url(#radialGradient2465);fill-opacity:1;fill-rule:nonzero;stroke:none;stroke-width:1;marker:none;visibility:visible;display:inline;overflow:visible" />
    <path
       d="m 3.6471816,28.13488 c 0,0 0,3.865041 0,3.865041 -1.0214912,0.0073 -2.4694678,-0.86596 -2.4694678,-1.932769 0,-1.06681 1.1399068,-1.932272 2.4694678,-1.932272 z"
       id="path5018"
       style="opacity:0.3;fill:url(#radialGradient2467);fill-opacity:1;fill-rule:nonzero;stroke:none;stroke-width:1;marker:none;visibility:visible;display:inline;overflow:visible" />
  </g>
  <path
     d="m 1.9268353,11.499999 c -0.6910475,0.07963 -0.3219563,0.902583 -0.3770536,1.365355 0.080193,0.299061 0.5977147,15.717983 0.5977147,16.247438 0,0.460177 0.2266674,0.382214 0.8010059,0.382214 8.4994007,0 17.8980787,0 26.3974797,0 0.618726,0.01434 0.487967,0.0075 0.487967,-0.389471 0.04522,-0.202682 0.639926,-16.978471 0.662817,-17.243439 0,-0.278994 0.0581,-0.362097 -0.30493,-0.362097 -9.076502,0 -19.188496,0 -28.2650007,0 z"
     id="path3388"
     style="fill:url(#radialGradient2440);fill-opacity:1;stroke:url(#linearGradient2442);stroke-width:1;stroke-linecap:round;stroke-linejoin:round;stroke-miterlimit:4;stroke-opacity:1;stroke-dashoffset:0" />
  <path
     d="m 1.6818182,11 28.6363638,2.66e-4 C 30.731883,11.000266 31,11.29236 31,11.655504 l -0.673506,17.712101 c 0.0096,0.459485 -0.136401,0.641669 -0.617069,0.632034 L 2.4532999,29.988097 c -0.4137015,0 -0.8308665,-0.271173 -0.8308665,-0.634315 L 1,11.655493 C 1,11.292349 1.2681168,11 1.6818182,11 z"
     id="path6127"
     style="opacity:0.4;fill:url(#linearGradient2437);fill-opacity:1;stroke:none" />
  <path
     d="m 29.5,12.5 c -8.303268,0 -18.696734,0 -27.0000002,0 0.2365057,5 0.4730113,10.000001 0.709517,15.000001"
     id="path2435"
     style="fill:none;stroke:url(#radialGradient2434);stroke-width:0.99999952;stroke-linecap:round;stroke-linejoin:round;stroke-miterlimit:4;stroke-opacity:1;stroke-dasharray:none" />
  <path
     d="M 30.405737,11.017168 C 20.926175,11.066755 11.205415,10.987455 1.7245005,11.001754 0.54733374,11.279689 1.1808557,12.669304 1.0909311,13.551491 1.235591,16.366119 1.3014202,19.193082 1.4951832,22 11.268537,20.402631 20.993365,18.885268 30.595629,17.234084 c 0.508843,-1.748654 0.371883,-4.904859 0.398582,-5.544433 0.05125,-0.456713 -0.245376,-0.680134 -0.588474,-0.672483 z"
     id="path3455"
     style="fill:url(#linearGradient2431);fill-opacity:1;stroke:none" />
  <path
     d="m 16.635,30.5 -2.016,0 c -0.171433,-0.167493 -0.07827,-0.427541 -0.119,-0.664659 0,-4.442429 0,-10.684912 0,-15.127341 L 14.519,14.5 c 0.734067,0 1.352933,0 2.087,0 m 8.780225,-4.8e-5 c 0.704751,0 1.306305,0 2.002775,0 0.09887,0 0.111002,0.370643 0.111002,0.663247 0,4.439577 0,10.788223 0,15.227801 -0.168583,0.170223 -0.432289,0.05955 -0.670947,0.1 L 25.40393,30.5"
     id="path3385"
     style="fill:url(#linearGradient3299);fill-opacity:1;fill-rule:nonzero;stroke:url(#linearGradient3301);stroke-width:1;stroke-linecap:butt;stroke-linejoin:round;stroke-miterlimit:4;stroke-opacity:1;stroke-dasharray:none;stroke-dashoffset:0;marker:none;visibility:visible;display:block;overflow:visible" />
  <rect
     width="8.9704103"
     height="16.010645"
     rx="0"
     ry="0"
     x="16.5317"
     y="14.490961"
     id="rect3457"
     style="fill:url(#linearGradient3294);fill-opacity:1;stroke:url(#linearGradient3296);stroke-width:1;stroke-linecap:butt;stroke-linejoin:miter;stroke-miterlimit:4;stroke-opacity:1;stroke-dasharray:none;stroke-dashoffset:0;display:inline" />
  <g
     transform="matrix(1.08507,0,0,0.8743473,42.855411,15.125544)"
     id="g3133"
     style="display:inline" />
  <path
     d="m 16.5,22.5 8.484484,0"
     id="path4320"
     style="fill:none;stroke:#464646;stroke-width:1;stroke-linecap:square;stroke-linejoin:round;stroke-miterlimit:4;stroke-opacity:1;stroke-dasharray:none;stroke-dashoffset:0;marker:none;visibility:visible;display:block;overflow:visible" />
  <path
     d="m 17.5,23.5 7,0 m -7,-8 7,0"
     id="path4820"
     style="opacity:0.36637932;fill:none;stroke:#ffffff;stroke-width:1;stroke-linecap:square;stroke-linejoin:round;stroke-miterlimit:4;stroke-opacity:1;stroke-dasharray:none;stroke-dashoffset:0;marker:none;visibility:visible;display:block;overflow:visible" />
  <g
     transform="matrix(1.08507,0,0,0.8743473,42.855411,13.125544)"
     id="g4118"
     style="display:inline" />
  <g
     transform="matrix(1.08507,0,0,0.8743473,42.855411,11.125544)"
     id="g4122"
     style="display:inline" />
  <g
     transform="matrix(1.08507,0,0,0.8743473,42.855411,9.125544)"
     id="g4126"
     style="display:inline" />
  <g
     transform="matrix(1.08507,0,0,0.8743473,42.855411,7.125544)"
     id="g4130"
     style="display:inline" />
  <g
     transform="matrix(1.08507,0,0,0.8743473,42.855411,5.125544)"
     id="g4134"
     style="display:inline" />
  <g
     transform="matrix(1.08507,0,0,0.8743473,42.855411,3.125544)"
     id="g4138"
     style="display:inline" />
  <g
     transform="matrix(1.08507,0,0,0.8743473,42.855411,1.125544)"
     id="g4142"
     style="display:inline" />
  <g
     transform="matrix(1.08507,0,0,0.8743473,30.855411,15.125544)"
     id="g4146"
     style="display:inline" />
  <g
     transform="matrix(1.08507,0,0,0.8743473,30.855411,13.125544)"
     id="g4150"
     style="display:inline" />
  <g
     transform="matrix(1.08507,0,0,0.8743473,30.855411,11.125544)"
     id="g4154"
     style="display:inline" />
  <g
     transform="matrix(1.08507,0,0,0.8743473,30.855411,9.125544)"
     id="g4158"
     style="display:inline" />
  <g
     transform="matrix(1.08507,0,0,0.8743473,30.855411,7.125544)"
     id="g4162"
     style="display:inline" />
  <g
     transform="matrix(1.08507,0,0,0.8743473,30.855411,5.125544)"
     id="g4166"
     style="display:inline" />
  <g
     transform="matrix(1.08507,0,0,0.8743473,30.855411,3.125544)"
     id="g4170"
     style="display:inline" />
  <path
     d="m 15,15 0.999999,0 0,1 L 15,16 15,15 z m 0,2 0.999999,0 0,1 L 15,18 15,17 z m 0,2 0.999999,0 0,1 L 15,20 15,19 z m 0,2 0.999999,0 0,1 L 15,22 15,21 z m 0,2 0.999999,0 0,0.999999 -0.999999,0 L 15,23 z m 0,2 0.999999,0 0,1 L 15,26 15,25 z m 0,2 0.999999,0 0,0.999999 -0.999999,0 L 15,27 z m 0,2 0.999999,0 0,1 L 15,30 15,29 z m 11,-14 1,0 0,1 -1,0 0,-1 z m 0,2 1,0 0,1 -1,0 0,-1 z m 0,2 1,0 0,1 -1,0 0,-1 z m 0,2 1,0 0,1 -1,0 0,-1 z m 0,2 1,0 0,0.999999 -1,0 L 26,23 z m 0,2 1,0 0,1 -1,0 0,-1 z m 0,2 1,0 0,0.999999 -1,0 L 26,27 z m 0,2 1,0 0,1 -1,0 0,-1 z"
     id="rect4176"
     style="opacity:0.9;fill:url(#linearGradient4689);fill-opacity:1;stroke:none" />
</svg>
