<svg xmlns="http://www.w3.org/2000/svg" xmlns:xlink="http://www.w3.org/1999/xlink" viewBox="0 0 32 32"><defs><linearGradient id="d"><stop offset="0" stop-opacity=".272"/><stop offset="1" stop-opacity=".368"/></linearGradient><linearGradient gradientTransform="translate(.974 8.972) scale(.45946)" gradientUnits="userSpaceOnUse" xlink:href="#a" id="n" y2="43" x2="24" y1="5" x1="24"/><linearGradient id="a"><stop offset="0" stop-color="#fff"/><stop offset=".063" stop-color="#fff" stop-opacity=".235"/><stop offset=".951" stop-color="#fff" stop-opacity=".157"/><stop offset="1" stop-color="#fff" stop-opacity=".392"/></linearGradient><linearGradient gradientTransform="translate(-214 -50)" gradientUnits="userSpaceOnUse" xlink:href="#b" id="m" y2="76.997" x2="227.204" y1="63.106" x1="227.204"/><linearGradient id="b"><stop offset="0" stop-color="#fff5ef"/><stop offset="1" stop-color="#fef8dd"/></linearGradient><radialGradient gradientTransform="matrix(0 4.627 -5.6805 0 68.966 -30.745)" gradientUnits="userSpaceOnUse" xlink:href="#c" id="l" fy="9.957" fx="6.2" r="12.672" cy="9.957" cx="6.73"/><linearGradient id="c"><stop offset="0" stop-color="#ffcd7d"/><stop offset=".262" stop-color="#fc8f36"/><stop offset=".705" stop-color="#e23a0e"/><stop offset="1" stop-color="#ac441f"/></linearGradient><linearGradient gradientTransform="matrix(.45946 0 0 .4865 .973 .824)" gradientUnits="userSpaceOnUse" xlink:href="#a" id="k" y2="43" x2="24" y1="5" x1="24"/><linearGradient id="f"><stop offset="0" stop-color="#b4cee1"/><stop offset="1" stop-color="#5d9fcd"/></linearGradient><radialGradient gradientTransform="matrix(.01205 0 0 .00824 13.24 18.98)" gradientUnits="userSpaceOnUse" xlink:href="#d" id="j" fy="486.648" fx="605.714" r="117.143" cy="486.648" cx="605.714"/><radialGradient gradientTransform="matrix(-.01205 0 0 .00824 10.76 18.98)" gradientUnits="userSpaceOnUse" xlink:href="#d" id="i" fy="486.648" fx="605.714" r="117.143" cy="486.648" cx="605.714"/><linearGradient id="e"><stop offset="0" stop-opacity="0"/><stop offset=".5"/><stop offset="1" stop-opacity="0"/></linearGradient><linearGradient gradientTransform="matrix(.0352 0 0 .00824 -.725 18.98)" gradientUnits="userSpaceOnUse" xlink:href="#e" id="h" y2="609.505" x2="302.857" y1="366.648" x1="302.857"/><radialGradient gradientUnits="userSpaceOnUse" gradientTransform="matrix(-3.53846 0 0 -3.07692 54.462 19.462)" r="6.5" fy="5.675" fx="12" cy="5.675" cx="12" id="g" xlink:href="#f"/></defs><g transform="translate(0 7)"><rect width="13" height="20" rx="0" ry="0" x="5.5" y="2.5" fill="url(#g)"/><path overflow="visible" opacity=".15" fill="url(#h)" d="M3.5 22h17v2h-17z"/><path d="M3.5 22v2c-.62.004-1.5-.448-1.5-1s.692-1 1.5-1z" overflow="visible" opacity=".15" fill="url(#i)"/><path d="M20.5 22v2c.62.004 1.5-.448 1.5-1s-.692-1-1.5-1z" overflow="visible" opacity=".15" fill="url(#j)"/><path d="M2.5 2a.5.5 0 0 0-.5.5v20a.5.5 0 0 0 .5.5h19a.5.5 0 0 0 .5-.5v-20a.5.5 0 0 0-.5-.5h-19zM3 3h2v1H3V3zm3 0h12v19H6V3zm13 0h2v1h-2V3zM3 6h2v1H3V6zm16 0h2v1h-2V6zM3 9h2v1H3V9zm16 0h2v1h-2V9zM3 12h2v1H3v-1zm16 0h2v1h-2v-1zM3 15h2v1H3v-1zm16 0h2v1h-2v-1zM3 18h2v1H3v-1zm16 0h2v1h-2v-1zM3 21h2v1H3v-1zm16 0h2v1h-2v-1z" style="line-height:normal;text-indent:0;text-align:start;text-decoration-line:none;text-decoration-style:solid;text-decoration-color:#000;text-transform:none;block-progression:tb;isolation:auto;mix-blend-mode:normal" color="#000" font-weight="400" font-family="sans-serif" white-space="normal" overflow="visible" opacity=".7"/><path d="M6.5 12.5h11" display="block" overflow="visible" opacity=".7" fill="none" stroke="#000" stroke-linecap="square" stroke-linejoin="round"/><path d="M6.5 13.5h11" display="block" overflow="visible" opacity=".366" fill="none" stroke="#fff" stroke-linecap="square" stroke-linejoin="round"/><path opacity=".5" fill="none" stroke="url(#k)" stroke-linecap="round" d="M3.5 3.5h17v18h-17z"/><path d="M19 21h2v1h-2zm0-3h2v1h-2zm0-3h2v1h-2zm0-3h2v1h-2zm0-3h2v1h-2zm0-3h2v1h-2zm0-3h2v1h-2zM3 21h2v1H3zm0-3h2v1H3zm0-3h2v1H3zm0-3h2v1H3zm0-3h2v1H3zm0-3h2v1H3zm0-3h2v1H3z" color="#000" overflow="visible" opacity=".3" fill="#e6e6e6"/></g><path d="M11.063 2C9.938 2 9 2.94 9 4.063v17.875C9 23.06 9.94 24 11.063 24h17.874C30.06 24 31 23.06 31 21.937V4.063C31 2.94 30.06 2 28.937 2H11.063z" opacity=".05" color="#000" overflow="visible"/><rect width="20" height="20" rx="1.053" ry="1.053" x="10" y="3" color="#000" overflow="visible" opacity=".15"/><g transform="translate(8 -8)"><rect y="10.5" x="2.5" ry="1" rx="1" height="19" width="19" color="#000" overflow="visible" fill="url(#l)"/><path d="M12.42 14.004c-.453-.052-.516.33-.47.634-.003 3.026.01 6.055-.005 9.08-.11.103-.322-.068-.463-.024-1.535-.084-3.212.92-3.365 2.366-.18 1.15 1.168 2.097 2.37 1.918 1.517-.145 2.702-1.524 2.504-2.885.01-2.396 0-4.794.01-7.19.11-.105.26.122.37.133 1.22.65 2.3 1.722 2.37 3.056.08 1.043-.27 2.064-.662 3.03 1.32-1.465 1.744-3.603.826-5.334-.47-1.004-1.53-1.624-2.122-2.557-.436-.62-.77-1.32-.873-2.05-.09-.15-.315-.17-.48-.17z" color="#000" overflow="visible" opacity=".3" fill="#ae2109"/><path d="M12.406 13.094v.03c-.458-.008-1.015.244-1.22.626-.19.36-.155.627-.123.875h-.032c0 2.74.01 5.488 0 8.22-.8.047-1.59.272-2.25.718-.78.53-1.4 1.355-1.53 2.375v.03c-.13.94.35 1.755 1 2.25a3.15 3.15 0 0 0 2.35.626v.03c1.96-.187 3.48-1.883 3.28-3.78h.03c.007-1.85 0-3.692 0-5.53.5.472.88 1.028.91 1.592.06.804-.214 1.695-.593 2.625a.898.898 0 0 0 1.5.94c1.538-1.7 2.09-4.21 1-6.31-.003 0-.03.01-.03 0-.005-.01.003-.02 0-.03-.634-1.312-1.733-1.952-2.158-2.62a.898.898 0 0 0 0-.06c-.385-.554-.67-1.08-.75-1.627a.898.898 0 0 0-.09-.313c-.21-.37-.53-.497-.75-.56a1.498 1.498 0 0 0-.44-.065c-.01 0-.02-.03-.03-.03h-.064zm-.53 9.75c.112.004.116.038.093.03-.01-.002-.14.014-.16 0 .01 0 .05-.03.06-.03z" color="#000" overflow="visible" opacity=".15" fill="#ae2109"/><path d="M12.42 13.005c-.453-.053-.516.33-.47.633-.003 3.026.01 6.055-.005 9.08-.11.104-.322-.068-.463-.023-1.535-.085-3.212.918-3.365 2.365-.18 1.15 1.168 2.097 2.37 1.918 1.517-.145 2.702-1.523 2.504-2.884.01-2.396 0-4.795.01-7.19.11-.106.26.12.37.132 1.22.65 2.3 1.722 2.37 3.057.08 1.043-.27 2.063-.662 3.03 1.32-1.465 1.744-3.603.826-5.334-.47-1.01-1.53-1.63-2.122-2.56-.436-.63-.77-1.32-.873-2.06-.09-.157-.315-.17-.48-.17z" fill="url(#m)"/><path opacity=".5" fill="none" stroke="url(#n)" stroke-linecap="round" stroke-linejoin="round" d="M3.5 11.5h17v17h-17z"/><rect y="10.5" x="2.5" ry="1" rx="1" height="19" width="19" color="#000" overflow="visible" opacity=".4" fill="none" stroke="#640000" stroke-linecap="round" stroke-linejoin="round"/></g></svg>