<svg xmlns="http://www.w3.org/2000/svg" xmlns:xlink="http://www.w3.org/1999/xlink" viewBox="0 0 32 32"><defs><linearGradient x1="24" y1="5" x2="24" y2="43" id="j" xlink:href="#a" gradientUnits="userSpaceOnUse" gradientTransform="translate(-.216 -.216) scale(.67568)"/><linearGradient id="a"><stop offset="0" stop-color="#fff"/><stop offset=".063" stop-color="#fff" stop-opacity=".235"/><stop offset=".951" stop-color="#fff" stop-opacity=".157"/><stop offset="1" stop-color="#fff" stop-opacity=".392"/></linearGradient><radialGradient cx="7.317" cy="10.028" r="12.672" fx="6.787" fy="10.028" id="i" xlink:href="#b" gradientUnits="userSpaceOnUse" gradientTransform="matrix(0 4.34032 -5.05055 0 66.65 -39.758)"/><radialGradient cx="4.993" cy="43.5" r="2.5" fx="4.993" fy="43.5" id="f" xlink:href="#c" gradientUnits="userSpaceOnUse" gradientTransform="matrix(2.00378 0 0 1.4 27.988 -17.4)"/><linearGradient id="c"><stop offset="0" stop-color="#181818"/><stop offset="1" stop-color="#181818" stop-opacity="0"/></linearGradient><radialGradient cx="4.993" cy="43.5" r="2.5" fx="4.993" fy="43.5" id="g" xlink:href="#d" gradientUnits="userSpaceOnUse" gradientTransform="matrix(2.00378 0 0 1.4 -20.012 -104.4)"/><linearGradient id="d"><stop offset="0" stop-color="#181818"/><stop offset="1" stop-color="#181818" stop-opacity="0"/></linearGradient><linearGradient x1="25.058" y1="47.028" x2="25.058" y2="39.999" id="h" xlink:href="#e" gradientUnits="userSpaceOnUse"/><linearGradient id="e"><stop offset="0" stop-color="#181818" stop-opacity="0"/><stop offset=".5" stop-color="#181818"/><stop offset="1" stop-color="#181818" stop-opacity="0"/></linearGradient><linearGradient id="b"><stop offset="0" stop-color="#fff3cb"/><stop offset=".262" stop-color="#fdde76"/><stop offset=".661" stop-color="#f9c440"/><stop offset="1" stop-color="#e48b20"/></linearGradient></defs><g opacity=".4"><path fill="url(#f)" d="M38 40h5v7h-5z" transform="matrix(.73684 0 0 .42857 -1.684 10.857)"/><path transform="matrix(-.73684 0 0 -.42857 -1.684 10.857)" fill="url(#g)" d="M-10-47h5v7h-5z"/><path fill="url(#h)" d="M10 40h28v7H10z" transform="matrix(.73684 0 0 .42857 -1.684 10.857)"/></g><rect y="2.5" x="2.5" ry="2.16" rx="2.16" height="27" width="27" color="#000" overflow="visible" fill="url(#i)"/><rect y="3.5" x="3.5" ry="1.087" rx="1.087" height="25" width="25" opacity=".6" fill="none" stroke="url(#j)" stroke-linecap="round" stroke-linejoin="round"/><rect style="isolation:auto;mix-blend-mode:normal" y="2.5" x="2.5" ry="2.16" rx="2.16" height="27" width="27" color="#000" overflow="visible" opacity=".5" fill="none" stroke="#915f00" stroke-linecap="round"/><path d="M12.578 7a2.5 2.5 0 1 0 0 5 2.5 2.5 0 0 0 0-5zm-2 6a1 1 0 0 0-.924.615l-2.5 5c-.552 1.247 1.35 2.04 1.846.77l1.11-2.66-.036.275v9c0 .554.446 1 1 1h.004c.554 0 1-.446 1-1l-.004-5h1l.004 5c0 .554.446 1 1 1s1-.446 1-1l-.004-9-.037-.3 1.117 2.685a1 1 0 0 0 1.43.502l1.53.918c-.014.065-.04.126-.04.195v5.5a.5.5 0 0 0 1 0V24h1.004v2.5a.5.5 0 0 0 1 0v-4.79l1.143 1.144c.474.49 1.2-.236.71-.708l-1.996-2A.5.5 0 0 0 21.58 20h-1.866l-1.627-.98a1 1 0 0 0-.086-.405l-2.5-5a1 1 0 0 0-.92-.615zm9.996 2.75c-.963 0-1.75.786-1.75 1.75s.787 1.75 1.75 1.75c.964 0 1.75-.786 1.75-1.75s-.786-1.75-1.75-1.75z" opacity=".4" fill="#fff"/><path d="M12.578 6a2.5 2.5 0 1 0 0 5 2.5 2.5 0 0 0 0-5zm-2 6a1 1 0 0 0-.924.615l-2.5 5c-.552 1.247 1.35 2.04 1.846.77l1.11-2.66-.036.275v9c0 .554.446 1 1 1h.004c.554 0 1-.446 1-1l-.004-5h1l.004 5c0 .554.446 1 1 1s1-.446 1-1l-.004-9-.037-.3 1.117 2.685a1 1 0 0 0 1.43.502l1.53.918c-.014.065-.04.126-.04.195v5.5a.5.5 0 0 0 1 0V23h1.004v2.5a.5.5 0 0 0 1 0v-4.79l1.143 1.144c.474.49 1.2-.236.71-.708l-1.996-2A.5.5 0 0 0 21.58 19h-1.866l-1.627-.98a1 1 0 0 0-.086-.405l-2.5-5a1 1 0 0 0-.92-.615zm9.996 2.75c-.963 0-1.75.786-1.75 1.75s.787 1.75 1.75 1.75c.964 0 1.75-.786 1.75-1.75s-.786-1.75-1.75-1.75z" fill="#333"/></svg>