<?xml version="1.0" encoding="UTF-8" standalone="no"?>
<!-- Created with Inkscape (http://www.inkscape.org/) -->

<svg
   xmlns:dc="http://purl.org/dc/elements/1.1/"
   xmlns:cc="http://creativecommons.org/ns#"
   xmlns:rdf="http://www.w3.org/1999/02/22-rdf-syntax-ns#"
   xmlns:svg="http://www.w3.org/2000/svg"
   xmlns="http://www.w3.org/2000/svg"
   xmlns:xlink="http://www.w3.org/1999/xlink"
   xmlns:sodipodi="http://sodipodi.sourceforge.net/DTD/sodipodi-0.dtd"
   xmlns:inkscape="http://www.inkscape.org/namespaces/inkscape"
   version="1.1"
   width="32"
   height="32"
   id="svg4121"
   inkscape:version="0.91+devel+osxmenu r12898"
   sodipodi:docname="preferences-system-parental-controls.svg">
  <sodipodi:namedview
     pagecolor="#ffffff"
     bordercolor="#666666"
     borderopacity="1"
     objecttolerance="10"
     gridtolerance="10"
     guidetolerance="10"
     inkscape:pageopacity="0"
     inkscape:pageshadow="2"
     inkscape:window-width="1920"
     inkscape:window-height="970"
     id="namedview20937"
     showgrid="false"
     inkscape:object-paths="true"
     inkscape:snap-intersection-paths="true"
     inkscape:object-nodes="true"
     inkscape:snap-smooth-nodes="true"
     inkscape:snap-midpoints="true"
     inkscape:zoom="1"
     inkscape:cx="16.003613"
     inkscape:cy="15.463401"
     inkscape:window-x="0"
     inkscape:window-y="23"
     inkscape:window-maximized="0"
     inkscape:current-layer="svg4121"
     showborder="false">
    <inkscape:grid
       type="xygrid"
       id="grid21482" />
  </sodipodi:namedview>
  <defs
     id="defs4123">
    <linearGradient
       x1="71.204407"
       y1="15.369057"
       x2="71.204407"
       y2="40.495617"
       id="linearGradient3220"
       xlink:href="#linearGradient4806-9"
       gradientUnits="userSpaceOnUse"
       gradientTransform="matrix(1.1022033,0,0,1.1022038,-63.55275,1.284999)" />
    <linearGradient
       id="linearGradient4806-9">
      <stop
         id="stop4808-49"
         style="stop-color:#ffffff;stop-opacity:1"
         offset="0" />
      <stop
         id="stop4810-05"
         style="stop-color:#ffffff;stop-opacity:0.23529412"
         offset="0.42447853" />
      <stop
         id="stop4812-6"
         style="stop-color:#ffffff;stop-opacity:0.15686275"
         offset="0.82089913" />
      <stop
         id="stop4814-7"
         style="stop-color:#ffffff;stop-opacity:0.39215687"
         offset="1" />
    </linearGradient>
    <radialGradient
       cx="15.026252"
       cy="8.6257601"
       r="19.99999"
       fx="4.4589653"
       fy="8.5088921"
       id="radialGradient3227"
       xlink:href="#linearGradient3846"
       gradientUnits="userSpaceOnUse"
       gradientTransform="matrix(-2.4736821e-8,1.333623,-1.2564661,-3.870574e-8,26.708666,9.3709906)" />
    <linearGradient
       id="linearGradient3846">
      <stop
         id="stop3848"
         style="stop-color:#fff3cb;stop-opacity:1"
         offset="0" />
      <stop
         id="stop3850"
         style="stop-color:#fdde76;stop-opacity:1"
         offset="0.26238" />
      <stop
         id="stop3852"
         style="stop-color:#f9c440;stop-opacity:1"
         offset="0.66093999" />
      <stop
         id="stop3854"
         style="stop-color:#e48b20;stop-opacity:1"
         offset="1" />
    </linearGradient>
    <radialGradient
       cx="15.645058"
       cy="8.449769"
       r="19.99999"
       fx="-0.025213266"
       fy="8.44977"
       id="radialGradient3230"
       xlink:href="#linearGradient2867-449-88-871-390-598-476-591-434-148-57-177-3-8-7"
       gradientUnits="userSpaceOnUse"
       gradientTransform="matrix(-4.7487871e-8,0.78038851,-0.73523897,-5.3752024e-8,22.21268,17.683997)" />
    <linearGradient
       id="linearGradient2867-449-88-871-390-598-476-591-434-148-57-177-3-8-7">
      <stop
         id="stop3750-8-9-6"
         style="stop-color:#90dbec;stop-opacity:1"
         offset="0" />
      <stop
         id="stop3752-3-2-2"
         style="stop-color:#42baea;stop-opacity:1"
         offset="0.26238" />
      <stop
         id="stop3754-7-2-00"
         style="stop-color:#3689e6;stop-opacity:1"
         offset="0.704952" />
      <stop
         id="stop3756-9-3-69"
         style="stop-color:#2b63a0;stop-opacity:1"
         offset="1" />
    </linearGradient>
    <linearGradient
       id="linearGradient3820-7-2-2">
      <stop
         id="stop3822-2-6-36"
         style="stop-color:#3d3d3d;stop-opacity:1"
         offset="0" />
      <stop
         id="stop3864-8-7-6"
         style="stop-color:#686868;stop-opacity:0.49803922"
         offset="0.5" />
      <stop
         id="stop3824-1-2-4"
         style="stop-color:#686868;stop-opacity:0"
         offset="1" />
    </linearGradient>
    <radialGradient
       cx="99.157013"
       cy="186.17059"
       r="62.769119"
       fx="99.157013"
       fy="186.17059"
       id="radialGradient4119"
       xlink:href="#linearGradient3820-7-2-2"
       gradientUnits="userSpaceOnUse"
       gradientTransform="matrix(0.17524541,0,0,0.05575992,-1.37681,34.119145)" />
    <linearGradient
       id="linearGradient27416-1-2-0-1">
      <stop
         id="stop27420-2-0-8-7"
         style="stop-color:#55c1ec;stop-opacity:1"
         offset="0" />
      <stop
         id="stop27422-3-5-3-3"
         style="stop-color:#3689e6;stop-opacity:1"
         offset="1" />
    </linearGradient>
    <radialGradient
       cx="99.157013"
       cy="186.17059"
       r="62.769119"
       fx="99.157013"
       fy="186.17059"
       id="radialGradient3108"
       xlink:href="#linearGradient3820-7-2-2-2"
       gradientUnits="userSpaceOnUse"
       gradientTransform="matrix(0.11151981,0,0,0.03548359,0.942029,15.166729)" />
    <linearGradient
       x1="71.204407"
       y1="15.369057"
       x2="71.204407"
       y2="40.495617"
       id="linearGradient3097"
       xlink:href="#linearGradient4806-9-7"
       gradientUnits="userSpaceOnUse"
       gradientTransform="matrix(0.77562456,0,0,0.77562491,-43.981566,-9.6142608)" />
    <linearGradient
       id="linearGradient4806-9-7">
      <stop
         id="stop4808-49-7"
         style="stop-color:#ffffff;stop-opacity:1"
         offset="0" />
      <stop
         id="stop4810-05-4"
         style="stop-color:#ffffff;stop-opacity:0.23529412"
         offset="0.42447853" />
      <stop
         id="stop4812-6-6"
         style="stop-color:#ffffff;stop-opacity:0.15686275"
         offset="0.82089913" />
      <stop
         id="stop4814-7-5"
         style="stop-color:#ffffff;stop-opacity:0.39215687"
         offset="1" />
    </linearGradient>
    <linearGradient
       id="linearGradient3820-7-2-2-2">
      <stop
         id="stop3822-2-6-36-7"
         style="stop-color:#3d3d3d;stop-opacity:1"
         offset="0" />
      <stop
         id="stop3864-8-7-6-8"
         style="stop-color:#686868;stop-opacity:0.49803922"
         offset="0.5" />
      <stop
         id="stop3824-1-2-4-6"
         style="stop-color:#686868;stop-opacity:0"
         offset="1" />
    </linearGradient>
    <linearGradient
       id="linearGradient27416-1-2-0-1-9">
      <stop
         id="stop27420-2-0-8-7-7"
         style="stop-color:#55c1ec;stop-opacity:1"
         offset="0" />
      <stop
         id="stop27422-3-5-3-3-6"
         style="stop-color:#3689e6;stop-opacity:1"
         offset="1" />
    </linearGradient>
    <radialGradient
       cx="99.157013"
       cy="186.17059"
       r="62.769119"
       fx="99.157013"
       fy="186.17059"
       id="radialGradient3043"
       xlink:href="#linearGradient3820-7-2-2-0"
       gradientUnits="userSpaceOnUse"
       gradientTransform="matrix(0.17524541,0,0,0.05575992,-1.37681,18.119145)" />
    <linearGradient
       x1="71.204407"
       y1="15.369057"
       x2="71.204407"
       y2="40.495617"
       id="linearGradient3028"
       xlink:href="#linearGradient4806-9-5"
       gradientUnits="userSpaceOnUse"
       gradientTransform="matrix(1.1022033,0,0,1.1022038,-63.55275,-14.715001)" />
    <linearGradient
       id="linearGradient3820-7-2-2-0">
      <stop
         id="stop3822-2-6-36-3"
         style="stop-color:#3d3d3d;stop-opacity:1"
         offset="0" />
      <stop
         id="stop3864-8-7-6-88"
         style="stop-color:#686868;stop-opacity:0.49803922"
         offset="0.5" />
      <stop
         id="stop3824-1-2-4-0"
         style="stop-color:#686868;stop-opacity:0"
         offset="1" />
    </linearGradient>
    <linearGradient
       id="linearGradient4806-9-5">
      <stop
         id="stop4808-49-8"
         style="stop-color:#ffffff;stop-opacity:1"
         offset="0" />
      <stop
         id="stop4810-05-0"
         style="stop-color:#ffffff;stop-opacity:0.23529412"
         offset="0.42447853" />
      <stop
         id="stop4812-6-67"
         style="stop-color:#ffffff;stop-opacity:0.15686275"
         offset="0.82089913" />
      <stop
         id="stop4814-7-8"
         style="stop-color:#ffffff;stop-opacity:0.39215687"
         offset="1" />
    </linearGradient>
    <linearGradient
       x1="71.204407"
       y1="15.369057"
       x2="71.204407"
       y2="40.495617"
       id="linearGradient3116"
       xlink:href="#linearGradient4806-9"
       gradientUnits="userSpaceOnUse"
       gradientTransform="matrix(1.1022033,0,0,1.1022038,-63.549137,-14.715001)" />
    <radialGradient
       cx="15.026252"
       cy="8.6257601"
       r="19.99999"
       fx="4.4589653"
       fy="8.5088921"
       id="radialGradient3120"
       xlink:href="#linearGradient3846"
       gradientUnits="userSpaceOnUse"
       gradientTransform="matrix(-2.4736821e-8,1.333623,-1.2564661,-3.870574e-8,26.712279,-6.6290094)" />
    <radialGradient
       cx="15.645058"
       cy="8.449769"
       r="19.99999"
       fx="-0.025213266"
       fy="8.44977"
       id="radialGradient3123"
       xlink:href="#linearGradient2867-449-88-871-390-598-476-591-434-148-57-177-3-8-7"
       gradientUnits="userSpaceOnUse"
       gradientTransform="matrix(-4.7487871e-8,0.78038851,-0.73523897,-5.3752024e-8,22.216293,1.683997)" />
    <radialGradient
       cx="99.157013"
       cy="186.17059"
       r="62.769119"
       fx="99.157013"
       fy="186.17059"
       id="radialGradient3126"
       xlink:href="#linearGradient3820-7-2-2"
       gradientUnits="userSpaceOnUse"
       gradientTransform="matrix(0.17524541,0,0,0.05575992,-1.3731975,18.119145)" />
    <radialGradient
       cx="15.026252"
       cy="8.6257601"
       r="19.99999"
       fx="4.4589653"
       fy="8.5088921"
       id="radialGradient3120-2"
       xlink:href="#linearGradient3846-7"
       gradientUnits="userSpaceOnUse"
       gradientTransform="matrix(-2.4736821e-8,1.333623,-1.2564661,-3.870574e-8,26.708666,-6.6290094)" />
    <linearGradient
       id="linearGradient3846-7">
      <stop
         id="stop3848-7"
         style="stop-color:#fff3cb;stop-opacity:1"
         offset="0" />
      <stop
         id="stop3850-7"
         style="stop-color:#fdde76;stop-opacity:1"
         offset="0.26238" />
      <stop
         id="stop3852-4"
         style="stop-color:#f9c440;stop-opacity:1"
         offset="0.66093999" />
      <stop
         id="stop3854-1"
         style="stop-color:#e48b20;stop-opacity:1"
         offset="1" />
    </linearGradient>
    <radialGradient
       cx="15.026252"
       cy="8.6257601"
       r="19.99999"
       fx="4.4589653"
       fy="8.5088921"
       id="radialGradient4016"
       xlink:href="#linearGradient3846-7"
       gradientUnits="userSpaceOnUse"
       gradientTransform="matrix(-2.0472125e-8,1.1037027,-1.0398479,-3.2032763e-8,24.862462,-2.7277053)" />
    <radialGradient
       cx="15.026252"
       cy="8.6257601"
       r="19.99999"
       fx="4.4589653"
       fy="8.5088921"
       id="radialGradient4041"
       xlink:href="#linearGradient3846-7"
       gradientUnits="userSpaceOnUse"
       gradientTransform="matrix(-2.0472125e-8,1.1037027,-1.0398479,-3.2032763e-8,24.862462,-2.7277053)" />
  </defs>
  <metadata
     id="metadata4126">
    <rdf:RDF>
      <cc:Work
         rdf:about="">
        <dc:format>image/svg+xml</dc:format>
        <dc:type
           rdf:resource="http://purl.org/dc/dcmitype/StillImage" />
        <dc:title></dc:title>
      </cc:Work>
    </rdf:RDF>
  </metadata>
  <path
     d="m 27.003614,28.499999 c 0,4.666665 -22.0000001,4.666665 -22.0000001,0 0,-4.666665 22.0000001,-4.666665 22.0000001,0 z"
     id="path3818-0-2"
     style="fill:url(#radialGradient3126);fill-opacity:1;stroke:none"
     inkscape:connector-curvature="0"
     sodipodi:nodetypes="sss" />
  <path
     d="M 16.003613,1.5 C 8.0030125,1.5 1.5036125,7.999399 1.5036125,15.999999 c 0,8.000601 6.4994,14.500004 14.5000005,14.500001 8.0006,0 14.50001,-6.4994 14.5,-14.500001 0,-8.0006 -6.4994,-14.499999 -14.5,-14.499999 z"
     id="path2555-7-66"
     style="color:#000000;display:inline;overflow:visible;visibility:visible;fill:url(#radialGradient3123);fill-opacity:1;fill-rule:nonzero;stroke:none;stroke-width:1;marker:none;enable-background:accumulate"
     inkscape:connector-curvature="0"
     sodipodi:nodetypes="sssss" />
  <path
     d="M 16.003613,1.500193 C 8.0031195,1.500193 1.5038055,7.999507 1.5038055,16 c 0,8.000493 6.499314,14.499809 14.4998075,14.499807 8.000492,0 14.499812,-6.499314 14.499807,-14.499807 0,-8.000493 -6.499315,-14.499807 -14.499807,-14.499807 z"
     id="path2555-7-65"
     style="color:#000000;display:inline;overflow:visible;visibility:visible;fill:url(#radialGradient3120);fill-opacity:1;fill-rule:nonzero;stroke:none;stroke-width:1;marker:none;enable-background:accumulate"
     inkscape:connector-curvature="0"
     sodipodi:nodetypes="sssss" />
  <path
     d="M 16.003613,1.5 C 8.0030125,1.5 1.5036125,7.999399 1.5036125,15.999999 c 0,8.000601 6.4994,14.500004 14.5000005,14.500001 8.0006,0 14.50001,-6.4994 14.5,-14.500001 0,-8.0006 -6.4994,-14.499999 -14.5,-14.499999 z"
     id="path2555-7-1-7"
     style="color:#000000;display:inline;overflow:visible;visibility:visible;opacity:0.5;fill:none;stroke:#985800;stroke-width:0.99999994;stroke-linecap:round;stroke-linejoin:round;stroke-miterlimit:4;stroke-dasharray:none;stroke-dashoffset:0;stroke-opacity:1;marker:none;enable-background:accumulate"
     inkscape:connector-curvature="0"
     sodipodi:nodetypes="sssss" />
  <path
     d="m 29.503613,16 c 0,7.455845 -6.04417,13.5 -13.5,13.5 C 8.5477825,29.5 2.5036125,23.455845 2.5036125,16 c 0,-7.455843 6.04417,-13.5 13.5000005,-13.5 7.45583,0 13.5,6.044157 13.5,13.5 z"
     id="path3421"
     style="color:#000000;display:inline;overflow:visible;visibility:visible;opacity:0.8;fill:none;stroke:url(#linearGradient3116);stroke-width:0.99999994;stroke-linecap:round;stroke-linejoin:round;stroke-miterlimit:4;stroke-dasharray:none;stroke-dashoffset:0;stroke-opacity:1;marker:none;enable-background:accumulate"
     inkscape:connector-curvature="0"
     sodipodi:nodetypes="sssss" />
  <path
     sodipodi:nodetypes="sssssccccccssssccssccccccscsssccsssccccccccccccsssss"
     inkscape:connector-curvature="0"
     id="path22825"
     d="m 13.503906,7 c -1.380712,0 -2.5,1.1192881 -2.5,2.5 0,1.380712 1.119288,2.5 2.5,2.5 1.380712,0 2.5,-1.119288 2.5,-2.5 0,-1.3807119 -1.119288,-2.5 -2.5,-2.5 z m -2,6 c -0.403929,-3.02e-4 -0.768385,0.242412 -0.923828,0.615234 l -2.4999999,5 c -0.5527693,1.246564 1.3492236,2.039565 1.8457031,0.769532 L 11.035156,16.724609 11,17 l 0,9 c 0,0.554 0.446,1 1,1 l 0.0039,0 c 0.554,0 1,-0.446 1,-1 L 13,21 l 1,0 0.0039,5 c 4.32e-4,0.554 0.446,1 1,1 0.554,0 1,-0.446 1,-1 L 16,17 l -0.03711,-0.298828 1.117187,2.683594 c 0.223067,0.569029 0.899863,0.806647 1.429688,0.501953 l 1.529296,0.917969 C 20.025785,20.869902 20,20.93075 20,21 l 0,2 0,3.5 c 0,0.277 0.223,0.5 0.5,0.5 0.277,0 0.5,-0.223 0.5,-0.5 l 0,-2.5 1.003906,0 0,2.5 c 0,0.277 0.223,0.5 0.5,0.5 0.277,0 0.5,-0.223 0.5,-0.5 l 0,-3.5 0,-1.291016 1.142578,1.144532 c 0.471255,0.490773 1.197805,-0.235777 0.707032,-0.707032 l -1.996094,-2 C 22.763666,20.052716 22.636506,20.000025 22.503906,20 l -1.865234,0 -1.626953,-0.978516 c 9.1e-5,-0.139938 -0.02918,-0.278337 -0.08594,-0.40625 l -2.5,-5 C 16.270612,13.243067 15.907125,13.000486 15.503906,13 Z M 21.5,15.75 c -0.963537,0 -1.75,0.786463 -1.75,1.75 0,0.963537 0.786463,1.75 1.75,1.75 0.963537,0 1.75,-0.786463 1.75,-1.75 0,-0.963537 -0.786463,-1.75 -1.75,-1.75 z"
     style="opacity:0.2;fill:#ffffff;fill-opacity:1;stroke:none;stroke-width:2;stroke-linecap:round;stroke-linejoin:round;stroke-miterlimit:4;stroke-dasharray:none;stroke-dashoffset:0;stroke-opacity:1" />
  <path
     style="opacity:1;fill:#333333;fill-opacity:1;stroke:none;stroke-width:2;stroke-linecap:round;stroke-linejoin:round;stroke-miterlimit:4;stroke-dasharray:none;stroke-dashoffset:0;stroke-opacity:1"
     d="m 13.503906,6 c -1.380712,0 -2.5,1.1192881 -2.5,2.5 0,1.3807119 1.119288,2.5 2.5,2.5 1.380712,0 2.5,-1.1192881 2.5,-2.5 0,-1.3807119 -1.119288,-2.5 -2.5,-2.5 z m -2,6 c -0.403929,-3.02e-4 -0.768385,0.242412 -0.923828,0.615234 l -2.4999999,5 c -0.5527693,1.246564 1.3492236,2.039565 1.8457031,0.769532 L 11.035156,15.724609 11,16 l 0,9 c 0,0.554 0.446,1 1,1 l 0.0039,0 c 0.554,0 1,-0.446 1,-1 L 13,20 l 1,0 0.0039,5 c 4.32e-4,0.554 0.446,1 1,1 0.554,0 1,-0.446 1,-1 L 16,16 l -0.03711,-0.298828 1.117187,2.683594 c 0.223067,0.569029 0.899863,0.806647 1.429688,0.501953 l 1.529296,0.917969 C 20.025785,19.869902 20,19.93075 20,20 l 0,2 0,3.5 c 0,0.277 0.223,0.5 0.5,0.5 0.277,0 0.5,-0.223 0.5,-0.5 l 0,-2.5 1.003906,0 0,2.5 c 0,0.277 0.223,0.5 0.5,0.5 0.277,0 0.5,-0.223 0.5,-0.5 l 0,-3.5 0,-1.291016 1.142578,1.144532 c 0.471255,0.490773 1.197805,-0.235777 0.707032,-0.707032 l -1.996094,-2 C 22.763666,19.052716 22.636506,19.000025 22.503906,19 l -1.865234,0 -1.626953,-0.978516 c 9.1e-5,-0.139938 -0.02918,-0.278337 -0.08594,-0.40625 l -2.5,-5 C 16.270612,12.243067 15.907125,12.000486 15.503906,12 Z M 21.5,14.75 c -0.963537,0 -1.75,0.786463 -1.75,1.75 0,0.963537 0.786463,1.75 1.75,1.75 0.963537,0 1.75,-0.786463 1.75,-1.75 0,-0.963537 -0.786463,-1.75 -1.75,-1.75 z"
     id="path22702"
     inkscape:connector-curvature="0"
     sodipodi:nodetypes="sssssccccccssssccssccccccscsssccsssccccccccccccsssss" />
</svg>
