<svg xmlns="http://www.w3.org/2000/svg" xmlns:xlink="http://www.w3.org/1999/xlink" viewBox="0 0 32 32"><defs><linearGradient id="d"><stop offset="0" stop-color="#fff"/><stop offset=".063" stop-color="#fff" stop-opacity=".235"/><stop offset=".951" stop-color="#fff" stop-opacity=".157"/><stop offset="1" stop-color="#fff" stop-opacity=".392"/></linearGradient><linearGradient id="e"><stop offset="0" stop-color="#505050"/><stop offset=".262" stop-color="#2b2b2b"/><stop offset=".705" stop-color="#0a0a0a"/><stop offset="1"/></linearGradient><radialGradient cx="4.993" cy="43.5" r="2.5" fx="4.993" fy="43.5" id="g" xlink:href="#a" gradientUnits="userSpaceOnUse" gradientTransform="matrix(2.00378 0 0 1.4 27.988 -17.4)"/><linearGradient id="a"><stop offset="0" stop-color="#181818"/><stop offset="1" stop-color="#181818" stop-opacity="0"/></linearGradient><radialGradient cx="4.993" cy="43.5" r="2.5" fx="4.993" fy="43.5" id="h" xlink:href="#b" gradientUnits="userSpaceOnUse" gradientTransform="matrix(2.00378 0 0 1.4 -20.012 -104.4)"/><linearGradient id="b"><stop offset="0" stop-color="#181818"/><stop offset="1" stop-color="#181818" stop-opacity="0"/></linearGradient><linearGradient x1="25.058" y1="47.028" x2="25.058" y2="39.999" id="i" xlink:href="#c" gradientUnits="userSpaceOnUse"/><linearGradient id="c"><stop offset="0" stop-color="#181818" stop-opacity="0"/><stop offset=".5" stop-color="#181818"/><stop offset="1" stop-color="#181818" stop-opacity="0"/></linearGradient><linearGradient x1="24" y1="5" x2="24" y2="43" id="l" xlink:href="#d" gradientUnits="userSpaceOnUse" gradientTransform="matrix(.72973 0 0 .64865 -1.514 .932)"/><radialGradient cx="7.118" cy="9.957" r="12.672" fx="7.118" fy="9.957" id="j" xlink:href="#e" gradientUnits="userSpaceOnUse" gradientTransform="matrix(0 6.0935 -8.34404 0 99.7 -52.092)"/><linearGradient x1="54.596" y1="42.035" x2="54.596" y2="9.693" id="k" xlink:href="#f" gradientUnits="userSpaceOnUse" gradientTransform="translate(-25.727 1.377) scale(.66257)"/><linearGradient id="f"><stop offset="0" stop-color="#dcdcdc"/><stop offset="1" stop-color="#fff"/></linearGradient></defs><g opacity=".4"><path fill="url(#g)" d="M38 40h5v7h-5z" transform="matrix(.73684 0 0 .42857 -1.684 10.857)"/><path transform="matrix(-.73684 0 0 -.42857 -1.684 10.857)" fill="url(#h)" d="M-10-47h5v7h-5z"/><path fill="url(#i)" d="M10 40h28v7H10z" transform="matrix(.73684 0 0 .42857 -1.684 10.857)"/></g><rect width="29" height="26" rx="2" ry="2.08" x="1.5" y="3.5" color="#000" overflow="visible" opacity=".9" fill="url(#j)"/><rect width="29" height="26" rx="2" ry="2.08" x="1.5" y="3.5" color="#000" overflow="visible" opacity=".7" fill="none" stroke="#000" stroke-linecap="round" stroke-linejoin="round"/><path d="M10.313 6.03a.977.977 0 0 0-.657.44l-2.5 4A.977.977 0 0 0 8 11.97h1.03v7.06H7.97V18a.977.977 0 0 0-1.5-.844l-4 2.5a.977.977 0 0 0 0 1.688l4 2.5c.17.097.365.14.56.125a.977.977 0 0 0 .126.56l2.5 4a.977.977 0 0 0 1.688 0l2.5-4a.977.977 0 0 0-.844-1.5h-1.03v-1.06h11.06V23a.977.977 0 0 0 1.5.844l4-2.5a.977.977 0 0 0 0-1.688l-4-2.5a.977.977 0 0 0-1.5.844v1.03H11.97v-7.06H13a.977.977 0 0 0 .844-1.5l-2.5-4a.977.977 0 0 0-1.03-.44zM7.97 21.97h1.06v1.06H7.97V23z" color="#000" overflow="visible" opacity=".15"/><path d="M10.5 7L8 11h2v9H7v-2l-4 2.5L7 23v-2h3v3H8l2.5 4 2.5-4h-2v-3h13v2l4-2.5-4-2.5v2H11v-9h2z" color="#000" overflow="visible" opacity=".3"/><path d="M10.5 6L8 10h2v9H7v-2l-4 2.5L7 22v-2h3v3H8l2.5 4 2.5-4h-2v-3h13v2l4-2.5-4-2.5v2H11v-9h2z" color="#000" overflow="visible" fill="url(#k)"/><rect width="27" height="24" rx="1" ry="1.043" x="2.5" y="4.5" opacity=".3" fill="none" stroke="url(#l)" stroke-linecap="round" stroke-linejoin="round"/></svg>