<svg xmlns="http://www.w3.org/2000/svg" xmlns:xlink="http://www.w3.org/1999/xlink" viewBox="0 0 32 32"><defs><linearGradient id="b"><stop offset="0" stop-color="#90dbec"/><stop offset=".262" stop-color="#42baea"/><stop offset=".705" stop-color="#3689e6"/><stop offset="1" stop-color="#2b63a0"/></linearGradient><linearGradient id="a"><stop offset="0" stop-color="#fff"/><stop offset=".508" stop-color="#fff" stop-opacity=".235"/><stop offset=".835" stop-color="#fff" stop-opacity=".157"/><stop offset="1" stop-color="#fff" stop-opacity=".392"/></linearGradient><linearGradient xlink:href="#a" id="f" gradientUnits="userSpaceOnUse" gradientTransform="translate(-36.346 -2.504) scale(.72973)" x1="71.204" y1="6.238" x2="71.204" y2="44.341"/><radialGradient xlink:href="#b" id="e" gradientUnits="userSpaceOnUse" gradientTransform="matrix(0 1.76747 -1.86977 0 31.8 -9.59)" cx="3.972" cy="8.45" fx="3.972" fy="8.45" r="20"/><linearGradient id="c"><stop offset="0" stop-color="#3d3d3d"/><stop offset=".5" stop-color="#686868" stop-opacity=".498"/><stop offset="1" stop-color="#686868" stop-opacity="0"/></linearGradient><radialGradient r="62.769" fy="186.171" fx="99.157" cy="186.171" cx="99.157" gradientTransform="matrix(.17525 0 0 .05576 -1.377 18.12)" gradientUnits="userSpaceOnUse" id="d" xlink:href="#c"/></defs><path d="M27 28.5a11 3.5 0 1 1-22 0 11 3.5 0 1 1 22 0z" fill="url(#d)"/><path d="M16 1.5C8 1.5 1.5 8 1.5 16S8 30.5 16 30.5 30.5 24 30.5 16 24 1.5 16 1.5z" color="#000" fill="url(#e)" overflow="visible"/><path d="M16 1.5C8 1.5 1.5 8 1.5 16S8 30.5 16 30.5 30.5 24 30.5 16 24 1.5 16 1.5z" opacity=".5" color="#000" stroke="#00537d" stroke-linecap="round" stroke-linejoin="round" overflow="visible" fill="none"/><path d="M16.094 7c-1.752 0-3.188 1.45-3.188 3.188 0 .87.36 1.648.938 2.218l-5.094-.78c-.017-.01-.045.006-.063 0-.375-.15-.805-.245-1.25-.032-.63.3-.928.83-.937 1.5-.008.71.487 1.178.938 1.406a.994.994 0 0 0 .125.063l5.156 1.624-.07 3.375-2 6.125.06.032c-.283.67-.146 1.55.5 1.96.752.483 1.73.36 2.28-.44a.994.994 0 0 0 .094-.125L16 22.185l2.375 4.94a.994.994 0 0 0 .063.063 1.63 1.63 0 0 0 2.187.59c.69-.38.953-1.25.656-2l.07-.03-1.97-6.152-.06-3.158 5.25-1.907a.994.994 0 0 0 .22-.12c.578-.39.91-1.18.625-1.91-.292-.742-1.036-1.074-1.72-1a.994.994 0 0 0-.062.03c-.044.01-.193.075-.28.096l-5 .78c.586-.567.97-1.34.97-2.217 0-1.76-1.47-3.19-3.22-3.19z" opacity=".05" color="#000" overflow="visible"/><path d="M18.3 10.176c0 1.2-.984 2.175-2.196 2.175a2.187 2.187 0 0 1-2.196-2.17c0-1.2.984-2.17 2.196-2.17 1.212 0 2.196.975 2.196 2.176zm5.48 2.313a.65.65 0 0 0-.28.11L16 13.76l-7.46-1.175a.688.688 0 0 0-.68-.078.67.67 0 0 0-.36.577c-.003.233.147.433.36.54l5.846 1.838-.04 4.218L11.603 26a.585.585 0 0 0 .16.85c.298.19.72.133.92-.155l3.328-6.82 3.27 6.808c.18.3.57.402.88.232a.61.61 0 0 0 .24-.85l-2.02-6.345-.08-3.97 5.93-2.14a.62.62 0 0 0 .24-.734c-.103-.264-.39-.418-.68-.386z" opacity=".15" color="#000" overflow="visible"/><path d="M18.3 9.176c0 1.2-.984 2.175-2.196 2.175a2.187 2.187 0 0 1-2.196-2.17c0-1.2.984-2.17 2.196-2.17 1.212 0 2.196.975 2.196 2.176zm5.48 2.313a.65.65 0 0 0-.28.11L16 12.76l-7.46-1.175a.688.688 0 0 0-.68-.078.67.67 0 0 0-.36.577c-.003.233.147.433.36.54l5.846 1.838-.04 4.218L11.603 25a.587.587 0 0 0 .16.85c.298.19.72.133.92-.155l3.328-6.82 3.27 6.808c.18.3.57.402.88.232a.61.61 0 0 0 .24-.85l-2.02-6.345-.08-3.97 5.93-2.14a.62.62 0 0 0 .24-.734c-.103-.264-.39-.418-.68-.386z" fill="#fff"/><path d="M29.5 16c0 7.456-6.045 13.5-13.5 13.5-7.456 0-13.5-6.044-13.5-13.5S8.544 2.5 16 2.5c7.455 0 13.5 6.044 13.5 13.5z" opacity=".5" color="#000" fill="none" stroke="url(#f)" stroke-linecap="round" stroke-linejoin="round" overflow="visible"/></svg>