<?xml version="1.0" encoding="UTF-8" standalone="no"?>
<!-- Created with Inkscape (http://www.inkscape.org/) -->
<svg
   xmlns:svg="http://www.w3.org/2000/svg"
   xmlns="http://www.w3.org/2000/svg"
   xmlns:xlink="http://www.w3.org/1999/xlink"
   version="1.0"
   width="128"
   height="128"
   id="svg4175">
  <defs
     id="defs4177">
    <linearGradient
       id="linearGradient3287">
      <stop
         id="stop3289"
         style="stop-color:#000000;stop-opacity:1"
         offset="0" />
      <stop
         id="stop3291"
         style="stop-color:#000000;stop-opacity:0"
         offset="1" />
    </linearGradient>
    <linearGradient
       id="linearGradient2346">
      <stop
         id="stop2348"
         style="stop-color:#eeeeee;stop-opacity:1"
         offset="0" />
      <stop
         id="stop2350"
         style="stop-color:#d9d9da;stop-opacity:1"
         offset="1" />
    </linearGradient>
    <linearGradient
       id="linearGradient3211">
      <stop
         id="stop3213"
         style="stop-color:#ffffff;stop-opacity:1"
         offset="0" />
      <stop
         id="stop3215"
         style="stop-color:#ffffff;stop-opacity:0"
         offset="1" />
    </linearGradient>
    <linearGradient
       id="linearGradient2490">
      <stop
         id="stop2492"
         style="stop-color:#791235;stop-opacity:1"
         offset="0" />
      <stop
         id="stop2494"
         style="stop-color:#dd3b27;stop-opacity:1"
         offset="1" />
    </linearGradient>
    <linearGradient
       id="linearGradient5048">
      <stop
         id="stop5050"
         style="stop-color:#000000;stop-opacity:0"
         offset="0" />
      <stop
         id="stop5056"
         style="stop-color:#000000;stop-opacity:1"
         offset="0.5" />
      <stop
         id="stop5052"
         style="stop-color:#000000;stop-opacity:0"
         offset="1" />
    </linearGradient>
    <linearGradient
       id="linearGradient5060">
      <stop
         id="stop5062"
         style="stop-color:#000000;stop-opacity:1"
         offset="0" />
      <stop
         id="stop5064"
         style="stop-color:#000000;stop-opacity:0"
         offset="1" />
    </linearGradient>
    <linearGradient
       id="linearGradient3242-2">
      <stop
         id="stop3244"
         style="stop-color:#f8b17e;stop-opacity:1"
         offset="0" />
      <stop
         id="stop3246-9"
         style="stop-color:#e35d4f;stop-opacity:1"
         offset="0.31209752" />
      <stop
         id="stop3248-3"
         style="stop-color:#c6262e;stop-opacity:1"
         offset="0.57054454" />
      <stop
         id="stop3250-9"
         style="stop-color:#690b54;stop-opacity:1"
         offset="1" />
    </linearGradient>
    <radialGradient
       cx="17.949392"
       cy="25.435272"
       r="13.427935"
       fx="17.949392"
       fy="25.435272"
       id="radialGradient2454"
       xlink:href="#linearGradient2346"
       gradientUnits="userSpaceOnUse"
       gradientTransform="matrix(-1.9832843e-2,-4.5149276,7.128812,-2.7715666e-2,-91.208878,142.51545)" />
    <linearGradient
       x1="25.579119"
       y1="0.30611229"
       x2="25.579119"
       y2="42.257183"
       id="linearGradient2458"
       xlink:href="#linearGradient3211"
       gradientUnits="userSpaceOnUse"
       gradientTransform="matrix(2.7323977,0,0,2.7513978,-5.8923193,2.1577661)" />
    <radialGradient
       cx="38.810284"
       cy="15.690213"
       r="20.714195"
       fx="38.810284"
       fy="15.690213"
       id="radialGradient2462"
       xlink:href="#linearGradient3242-2"
       gradientUnits="userSpaceOnUse"
       gradientTransform="matrix(0.1259464,7.9667192,-11.803425,9.062367e-7,204.8525,-326.97901)" />
    <linearGradient
       x1="24.008854"
       y1="38.246284"
       x2="24.008854"
       y2="0.99999988"
       id="linearGradient2464"
       xlink:href="#linearGradient2490"
       gradientUnits="userSpaceOnUse"
       gradientTransform="matrix(2.7448245,0,0,2.7313022,-1.9000957,-1.5967333)" />
    <linearGradient
       x1="21.13592"
       y1="40.884956"
       x2="21.13592"
       y2="35.298134"
       id="linearGradient2468"
       xlink:href="#linearGradient2346"
       gradientUnits="userSpaceOnUse"
       gradientTransform="matrix(2.4681404,0,0,1.9664314,6.4673636,29.516054)" />
    <radialGradient
       cx="605.71429"
       cy="486.64789"
       r="117.14286"
       fx="605.71429"
       fy="486.64789"
       id="radialGradient3253"
       xlink:href="#linearGradient5060"
       gradientUnits="userSpaceOnUse"
       gradientTransform="matrix(-9.6388648e-2,0,0,8.2352941e-2,76.089646,75.805468)" />
    <radialGradient
       cx="605.71429"
       cy="486.64789"
       r="117.14286"
       fx="605.71429"
       fy="486.64789"
       id="radialGradient3256"
       xlink:href="#linearGradient5060"
       gradientUnits="userSpaceOnUse"
       gradientTransform="matrix(9.638865e-2,0,0,8.2352941e-2,51.910372,75.805468)" />
    <linearGradient
       x1="302.85715"
       y1="366.64789"
       x2="302.85715"
       y2="609.50507"
       id="linearGradient3260"
       xlink:href="#linearGradient5048"
       gradientUnits="userSpaceOnUse"
       gradientTransform="matrix(0.1905325,0,0,8.2352941e-2,-4.8639067,75.805468)" />
    <radialGradient
       cx="63"
       cy="107.00003"
       r="52.5"
       fx="63"
       fy="107.00003"
       id="radialGradient3295"
       xlink:href="#linearGradient3287"
       gradientUnits="userSpaceOnUse"
       gradientTransform="matrix(1.5810671,-2.1966087e-8,0,0.1904762,-36.607229,89.619043)" />
  </defs>
  <rect
     width="92"
     height="20"
     x="18"
     y="106"
     id="rect8877"
     style="opacity:0.40206185;fill:url(#linearGradient3260);fill-opacity:1;fill-rule:nonzero;stroke:none;stroke-width:1;marker:none;visibility:visible;display:inline;overflow:visible" />
  <path
     d="M 110,106.00069 C 110,106.00069 110,125.99959 110,125.99959 C 114.96378,126.03723 122,121.51885 122,115.99885 C 122,110.47885 116.46079,106.00069 110,106.00069 L 110,106.00069 z"
     id="path8879"
     style="opacity:0.40206185;fill:url(#radialGradient3256);fill-opacity:1;fill-rule:nonzero;stroke:none;stroke-width:1;marker:none;visibility:visible;display:inline;overflow:visible" />
  <path
     d="M 18,106.00069 C 18,106.00069 18,125.99959 18,125.99959 C 13.03622,126.03723 6,121.51885 6,115.99885 C 6,110.47885 11.539202,106.00069 18,106.00069 L 18,106.00069 z"
     id="path8881"
     style="opacity:0.40206185;fill:url(#radialGradient3253);fill-opacity:1;fill-rule:nonzero;stroke:none;stroke-width:1;marker:none;visibility:visible;display:inline;overflow:visible" />
  <path
     d="M 117.50012,119.50013 L 14.223761,119.50013 C 13.265712,119.50013 12.494432,118.62843 12.494432,117.54563 L 10.499873,102.45439 C 10.499873,101.37158 11.271154,100.49988 12.229202,100.49988 L 117.38721,100.49988"
     id="rect8840"
     style="fill:url(#linearGradient2468);fill-opacity:1;fill-rule:nonzero;stroke:#7a1235;stroke-width:0.99974561;stroke-linecap:round;stroke-linejoin:round;marker:none;stroke-miterlimit:4;stroke-dasharray:none;stroke-dashoffset:0.06;stroke-opacity:1;visibility:visible;display:inline;overflow:visible;enable-background:accumulate" />
  <path
     d="M 117.4599,118.49653 C 117.4599,118.49653 114.95015,108.03141 116.51385,102"
     id="path9017"
     style="fill:none;stroke:#666666;stroke-width:0.99974561;stroke-linecap:round;stroke-linejoin:miter;stroke-miterlimit:4;stroke-dasharray:none;stroke-opacity:1" />
  <path
     d="M 17.560736,2.4998727 C 16.585526,2.4998727 15.82641,3.6088949 15.826412,5.0138897 L 10.499873,98.986107 C 10.499873,100.39111 11.334393,101.50014 12.309602,101.50013 L 115.69039,101.50013 C 116.66561,101.50014 117.50012,100.39111 117.50012,98.986107 L 111.54331,5.0138897 C 111.54331,3.6088949 110.78419,2.4998727 109.80898,2.4998727 L 17.560736,2.4998727 L 17.560736,2.4998727 z"
     id="rect8064"
     style="fill:url(#radialGradient2462);fill-opacity:1;fill-rule:nonzero;stroke:url(#linearGradient2464);stroke-width:0.99974555;stroke-linecap:round;stroke-linejoin:round;marker:none;stroke-miterlimit:4;stroke-dasharray:none;stroke-dashoffset:0.06;stroke-opacity:1;visibility:visible;display:inline;overflow:visible;enable-background:accumulate" />
  <path
     d="M 13.592249,118.45911 L 11.490826,102.46519"
     id="path3267"
     style="opacity:0.3;fill:none;stroke:#000000;stroke-width:0.99974561px;stroke-linecap:square;stroke-linejoin:miter;stroke-opacity:1" />
  <path
     d="M 18.789468,3.4998756 C 17.782667,3.4998756 16.998961,4.6481527 16.998962,6.1028781 L 11.499873,97.897114 C 11.499873,99.351844 12.361429,100.50013 13.368228,100.50013 L 114.63178,100.50013 C 115.63857,100.50013 116.50012,99.351844 116.50012,97.897114 L 110.35034,6.1028781 C 110.35034,4.6481527 109.56664,3.4998756 108.55984,3.4998756 L 18.789468,3.4998756 L 18.789468,3.4998756 z"
     id="path2868"
     style="opacity:0.4;fill:none;stroke:url(#linearGradient2458);stroke-width:0.99974567;stroke-linecap:round;stroke-linejoin:round;marker:none;stroke-miterlimit:4;stroke-dasharray:none;stroke-dashoffset:0.06;stroke-opacity:1;visibility:visible;display:inline;overflow:visible;enable-background:accumulate" />
  <path
     d="M 38.102948,52.246356 C 43.327162,52.246356 48.551382,52.246356 53.775598,52.246356 C 51.16349,45.721528 48.551382,39.1967 45.939272,32.671866 C 43.327162,39.1967 40.715056,45.721528 38.102948,52.246356 L 38.102948,52.246356 z M 26.033862,67.161564 C 26.164368,66.256376 25.78041,64.855244 26.210848,64.239176 C 27.400716,64.239176 28.590574,64.239176 29.780438,64.239176 C 34.852124,51.492784 39.923808,38.746392 44.995492,26.000002 C 46.597078,26.000002 48.198664,26.000002 49.800248,26.000002 C 54.881466,38.746392 59.962684,51.492784 65.043906,64.239176 C 66.445288,64.239176 67.846676,64.239176 69.248064,64.239176 C 69.117556,65.144362 69.501502,66.545492 69.071076,67.161564 C 63.953518,67.161564 58.83596,67.161564 53.7184,67.161564 C 53.848906,66.256376 53.464962,64.855244 53.895388,64.239176 C 55.418912,64.239176 56.94244,64.239176 58.465968,64.239176 C 57.274312,61.224888 56.082656,58.210602 54.890996,55.196312 C 48.904124,55.196312 42.917246,55.196312 36.930372,55.196312 C 35.738712,58.210602 34.54706,61.224888 33.355406,64.239176 C 34.918854,64.239176 36.48231,64.239176 38.045758,64.239176 C 37.915252,65.144362 38.299224,66.545492 37.86877,67.161564 C 33.923802,67.161564 29.97883,67.161564 26.033862,67.161564 L 26.033862,67.161564 z M 92.01344,57.953284 C 92.01344,55.885558 92.01344,53.81783 92.01344,51.750104 C 88.49733,51.888632 84.894608,51.37262 81.460798,52.26478 C 76.819092,53.63022 76.284902,60.2276 79.429558,63.2191 C 83.138468,66.531772 90.485542,65.207508 91.727872,60.143786 C 91.92913,59.431114 92.013556,58.69087 92.01344,57.953284 L 92.01344,57.953284 z M 97.27579,48.855284 C 97.27579,53.983248 97.27579,59.111208 97.27579,64.239176 C 98.839238,64.239176 100.40269,64.239176 101.96614,64.239176 C 101.83564,65.144362 102.21958,66.545492 101.78916,67.161564 C 98.530578,67.161564 95.272006,67.161564 92.01343,67.161564 C 92.01343,66.104724 92.01343,65.047888 92.01343,63.991046 C 88.248948,68.570488 80.80207,69.087686 75.784974,66.250254 C 70.037026,62.879832 70.177944,53.29542 76.399982,50.45638 C 81.24474,48.07168 86.785834,48.986092 92.01343,48.800142 C 92.158,45.957496 91.925058,42.608522 89.053792,41.004282 C 85.758224,39.210858 80.895284,39.17193 78.15864,41.935302 C 76.918446,43.6271 77.069024,45.99286 74.383276,45.243654 C 73.454124,45.095706 74.213076,43.320426 73.966998,42.514006 C 73.966998,41.44806 73.966998,40.382112 73.966998,39.316168 C 79.762662,36.938556 86.939776,35.792988 92.618258,39.057506 C 96.02625,41.132524 97.351614,45.139212 97.275776,48.85529 L 97.27579,48.855284 z"
     id="path3271"
     style="font-size:21.12489128px;font-style:normal;font-variant:normal;font-weight:normal;font-stretch:normal;fill:#7b1234;fill-opacity:1;stroke:none;font-family:Serif;-inkscape-font-specification:Serif" />
  <path
     d="M 38.102948,53.246355 C 43.327162,53.246355 48.551382,53.246355 53.775598,53.246355 C 51.16349,46.721527 48.551382,40.196699 45.939272,33.671865 C 43.327162,40.196699 40.715056,46.721527 38.102948,53.246355 L 38.102948,53.246355 z M 26.033862,68.161563 C 26.164368,67.256375 25.78041,65.855243 26.210848,65.239175 C 27.400716,65.239175 28.590574,65.239175 29.780438,65.239175 C 34.852124,52.492783 39.923808,39.746391 44.995492,27.000001 C 46.597078,27.000001 48.198664,27.000001 49.800248,27.000001 C 54.881466,39.746391 59.962684,52.492783 65.043906,65.239175 C 66.445288,65.239175 67.846676,65.239175 69.248064,65.239175 C 69.117556,66.144361 69.501502,67.545491 69.071076,68.161563 C 63.953518,68.161563 58.83596,68.161563 53.7184,68.161563 C 53.848906,67.256375 53.464962,65.855243 53.895388,65.239175 C 55.418912,65.239175 56.94244,65.239175 58.465968,65.239175 C 57.274312,62.224887 56.082656,59.210601 54.890996,56.196311 C 48.904124,56.196311 42.917246,56.196311 36.930372,56.196311 C 35.738712,59.210601 34.54706,62.224887 33.355406,65.239175 C 34.918854,65.239175 36.48231,65.239175 38.045758,65.239175 C 37.915252,66.144361 38.299224,67.545491 37.86877,68.161563 C 33.923802,68.161563 29.97883,68.161563 26.033862,68.161563 L 26.033862,68.161563 z M 92.01344,58.953283 C 92.01344,56.885557 92.01344,54.817829 92.01344,52.750103 C 88.49733,52.888631 84.894608,52.372619 81.460798,53.264779 C 76.819092,54.630219 76.284902,61.227599 79.429558,64.219099 C 83.138468,67.531771 90.485542,66.207507 91.727872,61.143785 C 91.92913,60.431113 92.013556,59.690869 92.01344,58.953283 L 92.01344,58.953283 z M 97.27579,49.855283 C 97.27579,54.983247 97.27579,60.111207 97.27579,65.239175 C 98.839238,65.239175 100.40269,65.239175 101.96614,65.239175 C 101.83564,66.144361 102.21958,67.545491 101.78916,68.161563 C 98.530578,68.161563 95.272006,68.161563 92.01343,68.161563 C 92.01343,67.104723 92.01343,66.047887 92.01343,64.991045 C 88.248948,69.570487 80.80207,70.087685 75.784974,67.250253 C 70.037026,63.879831 70.177944,54.295419 76.399982,51.456379 C 81.24474,49.071679 86.785834,49.986091 92.01343,49.800141 C 92.158,46.957495 91.925058,43.608521 89.053792,42.004281 C 85.758224,40.210857 80.895284,40.171929 78.15864,42.935301 C 76.918446,44.627099 77.069024,46.992859 74.383276,46.243653 C 73.454124,46.095705 74.213076,44.320425 73.966998,43.514005 C 73.966998,42.448059 73.966998,41.382111 73.966998,40.316167 C 79.762662,37.938555 86.939776,36.792987 92.618258,40.057505 C 96.02625,42.132523 97.351614,46.139211 97.275776,49.855289 L 97.27579,49.855283 z"
     id="text2537-9"
     style="font-size:21.12489128px;font-style:normal;font-variant:normal;font-weight:normal;font-stretch:normal;fill:url(#radialGradient2454);fill-opacity:1;stroke:none;font-family:Serif;-inkscape-font-specification:Serif" />
  <path
     d="M 14.559597,118.4188 L 12.458174,102.42488"
     id="path3246"
     style="opacity:0.15;fill:none;stroke:#000000;stroke-width:0.99974561px;stroke-linecap:square;stroke-linejoin:miter;stroke-opacity:1" />
  <path
     d="M 15.526945,118.45911 L 13.425522,102.46519"
     id="path3248"
     style="opacity:0.05;fill:none;stroke:#000000;stroke-width:0.99974561px;stroke-linecap:square;stroke-linejoin:miter;stroke-opacity:1" />
  <path
     d="M 11.5,103.5 L 115.5,103.5 M 11.5,105.5 L 115.5,105.5 M 11.5,107.5 L 115.5,107.5 M 11.5,109.5 L 115.5,109.5 M 11.5,111.5 L 115.5,111.5 M 11.5,113.5 L 115.5,113.5 M 11.5,115.5 L 115.5,115.5 M 11.5,117.5 L 115.5,117.5"
     id="path3262"
     style="opacity:0.1;fill:none;fill-rule:evenodd;stroke:url(#radialGradient3295);stroke-width:1px;stroke-linecap:butt;stroke-linejoin:miter;stroke-opacity:1" />
</svg>
