<?xml version="1.0" encoding="UTF-8" standalone="no"?>
<!-- Created with Inkscape (http://www.inkscape.org/) -->

<svg
   xmlns:svg="http://www.w3.org/2000/svg"
   xmlns="http://www.w3.org/2000/svg"
   xmlns:xlink="http://www.w3.org/1999/xlink"
   version="1.0"
   width="22"
   height="22"
   id="svg2">
  <defs
     id="defs4">
    <linearGradient
       id="linearGradient4231">
      <stop
         id="stop4233"
         style="stop-color:#828282;stop-opacity:1"
         offset="0" />
      <stop
         id="stop4235"
         style="stop-color:#828282;stop-opacity:0"
         offset="1" />
    </linearGradient>
    <linearGradient
       id="linearGradient4185">
      <stop
         id="stop4187"
         style="stop-color:white;stop-opacity:1"
         offset="0" />
      <stop
         id="stop4189"
         style="stop-color:white;stop-opacity:0"
         offset="1" />
    </linearGradient>
    <linearGradient
       id="linearGradient10997">
      <stop
         id="stop10999"
         style="stop-color:black;stop-opacity:1"
         offset="0" />
      <stop
         id="stop11001"
         style="stop-color:black;stop-opacity:0"
         offset="1" />
    </linearGradient>
    <linearGradient
       x1="19.489662"
       y1="6.1438289"
       x2="19.387241"
       y2="8.1000004"
       id="linearGradient7361"
       xlink:href="#linearGradient10997"
       gradientUnits="userSpaceOnUse" />
    <linearGradient
       id="linearGradient272-6">
      <stop
         id="stop273-1"
         style="stop-color:#474747;stop-opacity:0"
         offset="0" />
      <stop
         id="stop275-8"
         style="stop-color:#474747;stop-opacity:1"
         offset="0.1" />
      <stop
         id="stop276-3"
         style="stop-color:#474747;stop-opacity:1"
         offset="0.89999998" />
      <stop
         id="stop274-5"
         style="stop-color:#474747;stop-opacity:0"
         offset="1" />
    </linearGradient>
    <linearGradient
       id="linearGradient178-9">
      <stop
         id="stop179-9"
         style="stop-color:white;stop-opacity:0"
         offset="0" />
      <stop
         id="stop180-2"
         style="stop-color:#e6e6e6;stop-opacity:1"
         offset="0.10827128" />
      <stop
         id="stop181-7"
         style="stop-color:#e6e6e6;stop-opacity:1"
         offset="1" />
    </linearGradient>
    <linearGradient
       id="linearGradient6443">
      <stop
         id="stop6445"
         style="stop-color:#f7ff00;stop-opacity:1"
         offset="0" />
      <stop
         id="stop6447"
         style="stop-color:lime;stop-opacity:1"
         offset="1" />
    </linearGradient>
    <linearGradient
       id="linearGradient6270">
      <stop
         id="stop6272"
         style="stop-color:#f5f5f5;stop-opacity:1"
         offset="0" />
      <stop
         id="stop6274"
         style="stop-color:#c8c8c8;stop-opacity:1"
         offset="1" />
    </linearGradient>
    <radialGradient
       cx="6.5"
       cy="16.5"
       r="2"
       fx="6.5"
       fy="16.5"
       id="radialGradient3400"
       xlink:href="#linearGradient6443"
       gradientUnits="userSpaceOnUse"
       gradientTransform="matrix(0.83333334,0,0,0.83333334,1.0833333,-7.2500972)" />
    <linearGradient
       x1="10.5"
       y1="2.5001459"
       x2="10.5"
       y2="9.5001459"
       id="linearGradient3405"
       xlink:href="#linearGradient6270"
       gradientUnits="userSpaceOnUse"
       gradientTransform="translate(0.5,-2.5002431)" />
    <linearGradient
       x1="11"
       y1="2"
       x2="11"
       y2="18"
       id="linearGradient4191"
       xlink:href="#linearGradient4185"
       gradientUnits="userSpaceOnUse"
       gradientTransform="translate(-1,-1.0000971)" />
    <linearGradient
       x1="1.120777"
       y1="339.14758"
       x2="0.77013707"
       y2="339.14758"
       id="linearGradient4226"
       xlink:href="#linearGradient4231"
       gradientUnits="userSpaceOnUse"
       gradientTransform="matrix(4.0332364,0,0,0.2235361,-28.561989,-81.468583)" />
    <linearGradient
       x1="1.1207757"
       y1="378.28189"
       x2="0.77013582"
       y2="378.28189"
       id="linearGradient4229"
       xlink:href="#linearGradient4231"
       gradientUnits="userSpaceOnUse"
       gradientTransform="matrix(4.0332366,0,0,0.2235366,-28.561984,-87.388278)" />
    <linearGradient
       x1="1.6422368"
       y1="117.8271"
       x2="15.343062"
       y2="117.8271"
       id="linearGradient4240"
       xlink:href="#linearGradient178-9"
       gradientUnits="userSpaceOnUse"
       gradientTransform="matrix(1.3368474,0,0,0.09123576,-28.639998,-15.853368)" />
    <linearGradient
       x1="1.2780843"
       y1="336.3093"
       x2="0.92744434"
       y2="336.3093"
       id="linearGradient4248"
       xlink:href="#linearGradient4231"
       gradientUnits="userSpaceOnUse"
       gradientTransform="matrix(4.0332364,0,0,0.2235361,-14.347204,-95.683365)" />
    <linearGradient
       x1="1.278083"
       y1="375.44348"
       x2="0.92744303"
       y2="375.44348"
       id="linearGradient4250"
       xlink:href="#linearGradient4231"
       gradientUnits="userSpaceOnUse"
       gradientTransform="matrix(4.0332366,0,0,0.2235366,-14.347199,-101.60303)" />
    <linearGradient
       x1="1.6422368"
       y1="117.8271"
       x2="15.343062"
       y2="117.8271"
       id="linearGradient4252"
       xlink:href="#linearGradient178-9"
       gradientUnits="userSpaceOnUse"
       gradientTransform="matrix(1.3368474,0,0,0.09123576,-14.425213,-30.068153)" />
    <linearGradient
       x1="11"
       y1="4"
       x2="11"
       y2="18"
       id="linearGradient4262"
       xlink:href="#linearGradient6270"
       gradientUnits="userSpaceOnUse"
       gradientTransform="translate(-1,-1.0000971)" />
    <linearGradient
       id="linearGradient6368">
      <stop
         id="stop6370"
         style="stop-color:#afafaf;stop-opacity:1"
         offset="0" />
      <stop
         id="stop6372"
         style="stop-color:#828282;stop-opacity:1"
         offset="1" />
    </linearGradient>
    <linearGradient
       x1="9.8135595"
       y1="0.99985403"
       x2="10.033898"
       y2="18.999853"
       id="linearGradient4020"
       xlink:href="#linearGradient6368"
       gradientUnits="userSpaceOnUse"
       gradientTransform="translate(-1,-1.0000971)" />
    <linearGradient
       x1="1.6422368"
       y1="117.8271"
       x2="13.863241"
       y2="117.8271"
       id="linearGradient2901"
       xlink:href="#linearGradient178-9"
       gradientUnits="userSpaceOnUse"
       gradientTransform="matrix(0.50787278,0,0,0.09123576,14.073282,-2.250239)" />
    <linearGradient
       x1="0.61210024"
       y1="372.57819"
       x2="4.5951395"
       y2="372.57819"
       id="linearGradient2904"
       xlink:href="#linearGradient272-6"
       gradientUnits="userSpaceOnUse"
       gradientTransform="matrix(1.7623042,0,0,0.2235361,13.968221,-67.865454)" />
    <linearGradient
       x1="0.61210024"
       y1="372.57819"
       x2="4.5374341"
       y2="372.57819"
       id="linearGradient2907"
       xlink:href="#linearGradient272-6"
       gradientUnits="userSpaceOnUse"
       gradientTransform="matrix(1.7623043,0,0,0.2235366,13.968224,-73.785149)" />
  </defs>
  <rect
     width="6.2669802"
     height="1"
     x="-26.093246"
     y="-6.6033716"
     transform="matrix(-0.70710678,-0.70710678,0.70710678,-0.70710678,0,0)"
     id="rect2902"
     style="fill:url(#linearGradient4226);fill-opacity:1;fill-rule:nonzero;stroke:none;stroke-width:1;marker:none;visibility:visible;display:block;overflow:visible" />
  <g
     transform="matrix(1,0,0,0.96786389,2.229616,-30.407884)"
     id="g17906">
    <g
       transform="matrix(1.040764,0,0.05449252,1.040764,-8.670199,2.670594)"
       id="g17962"
       style="fill:white;fill-opacity:0.75706213;fill-rule:nonzero;stroke:none" />
    <g
       transform="matrix(1.040764,0,0.05449252,1.365642,-8.358528,0.921788)"
       id="g17982"
       style="opacity:0.41477272;fill:url(#linearGradient7361);fill-opacity:1;fill-rule:nonzero;stroke:black;stroke-width:1.01646602;stroke-miterlimit:4" />
  </g>
  <g
     transform="matrix(1,0,0,0.96786389,0.992181,-26.448859)"
     id="g4038" />
  <rect
     width="7.8837328"
     height="1"
     x="15.046928"
     y="8.9997568"
     id="rect3824"
     style="opacity:0.65;fill:url(#linearGradient2907);fill-opacity:1;fill-rule:nonzero;stroke:none;stroke-width:1;marker:none;visibility:visible;display:block;overflow:visible" />
  <rect
     width="7.8837328"
     height="1"
     x="15.046926"
     y="6.9997568"
     id="rect3826"
     style="opacity:0.65;fill:url(#linearGradient2904);fill-opacity:1;fill-rule:nonzero;stroke:none;stroke-width:1;marker:none;visibility:visible;display:block;overflow:visible" />
  <rect
     width="6.7729321"
     height="1"
     x="14.999999"
     y="7.9997568"
     id="rect3828"
     style="fill:url(#linearGradient2901);fill-opacity:1;fill-rule:nonzero;stroke:none;stroke-width:1;marker:none;visibility:visible;display:block;overflow:visible" />
  <g
     transform="matrix(0.10218165,0,0,0.9411763,16.398346,-30.647294)"
     id="g3830"
     style="fill:white;fill-opacity:0.72023806" />
  <rect
     width="2.8771474"
     height="4.1261053"
     rx="1.1211344"
     ry="1.1211344"
     x="16.6"
     y="6.4999399"
     id="rect3838"
     style="fill:none;stroke:#0e0e0e;stroke-width:1;stroke-miterlimit:4;stroke-opacity:1;stroke-dasharray:none" />
  <path
     d="m 2.5,2.4997569 0,14.0001461 c 0,0.47137 0.5286299,0.999854 1,0.999854 l 14,0 c 0.47137,0 1,-0.528484 1,-0.999854 l 0,-14.0001461 -3,-1.99999997 -10,0 -3,1.99999997 z"
     id="path2887"
     style="fill:url(#linearGradient3405);fill-opacity:1;stroke:url(#linearGradient4020);stroke-width:1px;stroke-linecap:butt;stroke-linejoin:round;stroke-opacity:1" />
  <rect
     width="15"
     height="14"
     rx="0.5"
     ry="0.5"
     x="3"
     y="2.999903"
     id="rect4254"
     style="fill:url(#linearGradient4262);fill-opacity:1;stroke:none" />
  <rect
     width="6.2669749"
     height="1"
     x="-26.093243"
     y="-4.6033721"
     transform="matrix(-0.70710678,-0.70710678,0.70710678,-0.70710678,0,0)"
     id="rect2900"
     style="fill:url(#linearGradient4229);fill-opacity:1;fill-rule:nonzero;stroke:none;stroke-width:1;marker:none;visibility:visible;display:block;overflow:visible" />
  <path
     d="M 3.661765,2.9615219 3.5,16.499757 l 14,0 L 17.338235,3.1424039 15,1.4997569 l -9,0 -2.338235,1.461765 z"
     id="path3701"
     style="opacity:0.4;fill:none;stroke:url(#linearGradient4191);stroke-width:1px;stroke-linecap:butt;stroke-linejoin:round;stroke-opacity:1" />
  <rect
     width="6.2669749"
     height="1"
     x="-11.878457"
     y="-18.818153"
     transform="matrix(0.70710678,-0.70710678,-0.70710678,-0.70710678,0,0)"
     id="rect4244"
     style="fill:url(#linearGradient4250);fill-opacity:1;fill-rule:nonzero;stroke:none;stroke-width:1;marker:none;visibility:visible;display:block;overflow:visible" />
  <rect
     width="3"
     height="4.1999998"
     rx="1.1211344"
     ry="1.1211344"
     x="8.5"
     y="14.499903"
     id="rect8955"
     style="fill:#e6e6e6;fill-opacity:1;stroke:#828282;stroke-width:1;stroke-miterlimit:4;stroke-opacity:1;stroke-dasharray:none" />
  <path
     d="m 7.75,6.4999029 a 1.25,1.25 0 0 1 -2.5,0 1.25,1.25 0 1 1 2.5,0 z"
     id="path6441"
     style="fill:url(#radialGradient3400);fill-opacity:1;stroke:#828282;stroke-width:0.5;stroke-linecap:square;stroke-linejoin:round;stroke-miterlimit:4;stroke-opacity:1;stroke-dasharray:none" />
  <path
     d="m 13.5,4.6997569 c -0.276,0 -0.5,0.224 -0.5,0.5 0,0.276 0.224,0.5 0.5,0.5 0.276,0 0.5,-0.224 0.5,-0.5 0,-0.276 -0.224,-0.5 -0.5,-0.5 z"
     id="path2948"
     style="fill:#fafafa;fill-opacity:1;stroke:none" />
  <path
     d="m 15.5,4.6997569 c -0.276,0 -0.5,0.224 -0.5,0.5 0,0.276 0.224,0.5 0.5,0.5 0.276,0 0.5,-0.224 0.5,-0.5 0,-0.276 -0.224,-0.5 -0.5,-0.5 z"
     id="path2946"
     style="fill:#fafafa;fill-opacity:1;stroke:none" />
  <path
     d="m 13.5,6.6997569 c -0.276,0 -0.5,0.224 -0.5,0.5 0,0.276 0.224,0.5 0.5,0.5 0.276,0 0.5,-0.224 0.5,-0.5 0,-0.276 -0.224,-0.5 -0.5,-0.5 z"
     id="path2940"
     style="fill:#fafafa;fill-opacity:1;stroke:none" />
  <path
     d="m 15.5,6.6997569 c -0.276,0 -0.5,0.224 -0.5,0.5 0,0.276 0.224,0.5 0.5,0.5 0.276,0 0.5,-0.224 0.5,-0.5 0,-0.276 -0.224,-0.5 -0.5,-0.5 z"
     id="path2938"
     style="fill:#fafafa;fill-opacity:1;stroke:none" />
  <path
     d="m 13.5,11.699757 c -0.276,0 -0.5,0.224 -0.5,0.5 0,0.276 0.224,0.5 0.5,0.5 0.276,0 0.5,-0.224 0.5,-0.5 0,-0.276 -0.224,-0.5 -0.5,-0.5 z"
     id="path2936"
     style="fill:#fafafa;fill-opacity:1;stroke:none" />
  <path
     d="m 15.5,11.699757 c -0.276,0 -0.5,0.224 -0.5,0.5 0,0.276 0.224,0.5 0.5,0.5 0.276,0 0.5,-0.224 0.5,-0.5 0,-0.276 -0.224,-0.5 -0.5,-0.5 z"
     id="path2934"
     style="fill:#fafafa;fill-opacity:1;stroke:none" />
  <path
     d="m 13.5,13.699757 c -0.276,0 -0.5,0.224 -0.5,0.5 0,0.276 0.224,0.5 0.5,0.5 0.276,0 0.5,-0.224 0.5,-0.5 0,-0.276 -0.224,-0.5 -0.5,-0.5 z"
     id="path2928"
     style="fill:#fafafa;fill-opacity:1;stroke:none" />
  <path
     d="m 15.5,13.699757 c -0.276,0 -0.5,0.224 -0.5,0.5 0,0.276 0.224,0.5 0.5,0.5 0.276,0 0.5,-0.224 0.5,-0.5 0,-0.276 -0.224,-0.5 -0.5,-0.5 z"
     id="path6534"
     style="fill:#fafafa;fill-opacity:1;stroke:none" />
  <path
     d="m 13.5,4.9997569 c -0.276,0 -0.5,0.224 -0.5,0.5 0,0.276 0.224,0.5 0.5,0.5 0.276,0 0.5,-0.224 0.5,-0.5 0,-0.276 -0.224,-0.5 -0.5,-0.5 z"
     id="path2924"
     style="fill:#666;fill-opacity:1;stroke:none" />
  <path
     d="m 15.5,4.9997569 c -0.276,0 -0.5,0.224 -0.5,0.5 0,0.276 0.224,0.5 0.5,0.5 0.276,0 0.5,-0.224 0.5,-0.5 0,-0.276 -0.224,-0.5 -0.5,-0.5 z"
     id="path2922"
     style="fill:#666;fill-opacity:1;stroke:none" />
  <path
     d="m 13.5,6.9997569 c -0.276,0 -0.5,0.224 -0.5,0.5 0,0.276 0.224,0.5 0.5,0.5 0.276,0 0.5,-0.224 0.5,-0.5 0,-0.276 -0.224,-0.5 -0.5,-0.5 z"
     id="path2916"
     style="fill:#666;fill-opacity:1;stroke:none" />
  <path
     d="m 15.5,6.9997569 c -0.276,0 -0.5,0.224 -0.5,0.5 0,0.276 0.224,0.5 0.5,0.5 0.276,0 0.5,-0.224 0.5,-0.5 0,-0.276 -0.224,-0.5 -0.5,-0.5 z"
     id="path2914"
     style="fill:#666;fill-opacity:1;stroke:none" />
  <path
     d="m 13.5,11.999757 c -0.276,0 -0.5,0.224 -0.5,0.5 0,0.276 0.224,0.5 0.5,0.5 0.276,0 0.5,-0.224 0.5,-0.5 0,-0.276 -0.224,-0.5 -0.5,-0.5 z"
     id="path2912"
     style="fill:#666;fill-opacity:1;stroke:none" />
  <path
     d="m 15.5,11.999757 c -0.276,0 -0.5,0.224 -0.5,0.5 0,0.276 0.224,0.5 0.5,0.5 0.276,0 0.5,-0.224 0.5,-0.5 0,-0.276 -0.224,-0.5 -0.5,-0.5 z"
     id="path2910"
     style="fill:#666;fill-opacity:1;stroke:none" />
  <path
     d="m 13.5,13.999757 c -0.276,0 -0.5,0.224 -0.5,0.5 0,0.276 0.224,0.5 0.5,0.5 0.276,0 0.5,-0.224 0.5,-0.5 0,-0.276 -0.224,-0.5 -0.5,-0.5 z"
     id="path2904"
     style="fill:#666;fill-opacity:1;stroke:none" />
  <path
     d="m 15.5,13.999757 c -0.276,0 -0.5,0.224 -0.5,0.5 0,0.276 0.224,0.5 0.5,0.5 0.276,0 0.5,-0.224 0.5,-0.5 0,-0.276 -0.224,-0.5 -0.5,-0.5 z"
     id="path6509"
     style="fill:#666;fill-opacity:1;stroke:none" />
  <path
     d="m 4.482656,11.482413 5.911836,0"
     id="path5522"
     style="opacity:0.6;fill:none;stroke:gray;stroke-width:0.81514788;stroke-linecap:square;stroke-linejoin:miter;stroke-miterlimit:4;stroke-opacity:1;stroke-dasharray:none" />
  <path
     d="m 4.482656,12.493976 5.911836,0"
     id="path5530"
     style="opacity:0.6;fill:none;stroke:white;stroke-width:0.81514788;stroke-linecap:square;stroke-linejoin:miter;stroke-miterlimit:4;stroke-opacity:1;stroke-dasharray:none" />
  <g
     transform="matrix(0.1653601,-0.1653601,-0.66551214,-0.66551214,36.04522,46.641824)"
     id="g2958"
     style="fill:white;fill-opacity:0.72023806" />
  <rect
     width="6.3743777"
     height="1"
     x="-26.200645"
     y="-5.6033721"
     transform="matrix(-0.70710678,-0.70710678,0.70710678,-0.70710678,0,0)"
     id="rect2904"
     style="fill:url(#linearGradient4240);fill-opacity:1;fill-rule:nonzero;stroke:none;stroke-width:1;marker:none;visibility:visible;display:block;overflow:visible" />
  <g
     transform="matrix(-0.1653601,-0.1653601,0.66551214,-0.66551214,-13.965518,46.553589)"
     id="g2906"
     style="fill:white;fill-opacity:0.72023806" />
  <rect
     width="6.2669802"
     height="1"
     x="-11.878461"
     y="-20.818153"
     transform="matrix(0.70710678,-0.70710678,-0.70710678,-0.70710678,0,0)"
     id="rect4242"
     style="fill:url(#linearGradient4248);fill-opacity:1;fill-rule:nonzero;stroke:none;stroke-width:1;marker:none;visibility:visible;display:block;overflow:visible" />
  <rect
     width="6.3743777"
     height="1"
     x="-11.98586"
     y="-19.818153"
     transform="matrix(0.70710678,-0.70710678,-0.70710678,-0.70710678,0,0)"
     id="rect4246"
     style="fill:url(#linearGradient4252);fill-opacity:1;fill-rule:nonzero;stroke:none;stroke-width:1;marker:none;visibility:visible;display:block;overflow:visible" />
</svg>
