<?xml version="1.0" encoding="UTF-8" standalone="no"?>
<!-- Created with Inkscape (http://www.inkscape.org/) -->

<svg
   xmlns:dc="http://purl.org/dc/elements/1.1/"
   xmlns:cc="http://creativecommons.org/ns#"
   xmlns:rdf="http://www.w3.org/1999/02/22-rdf-syntax-ns#"
   xmlns:svg="http://www.w3.org/2000/svg"
   xmlns="http://www.w3.org/2000/svg"
   xmlns:xlink="http://www.w3.org/1999/xlink"
   xmlns:sodipodi="http://sodipodi.sourceforge.net/DTD/sodipodi-0.dtd"
   xmlns:inkscape="http://www.inkscape.org/namespaces/inkscape"
   version="1.0"
   width="18"
   height="24"
   id="svg3172"
   inkscape:version="0.48.0 r9654"
   sodipodi:docname="account-logged-in.svg">
  <metadata
     id="metadata10">
    <rdf:RDF>
      <cc:Work
         rdf:about="">
        <dc:format>image/svg+xml</dc:format>
        <dc:type
           rdf:resource="http://purl.org/dc/dcmitype/StillImage" />
        <dc:title />
      </cc:Work>
    </rdf:RDF>
  </metadata>
  <sodipodi:namedview
     pagecolor="#ffffff"
     bordercolor="#666666"
     borderopacity="1"
     objecttolerance="10"
     gridtolerance="10"
     guidetolerance="10"
     inkscape:pageopacity="0"
     inkscape:pageshadow="2"
     inkscape:window-width="1280"
     inkscape:window-height="753"
     id="namedview8"
     showgrid="false"
     inkscape:zoom="10.28475"
     inkscape:cx="-6.3171347"
     inkscape:cy="29.729049"
     inkscape:window-x="0"
     inkscape:window-y="24"
     inkscape:window-maximized="1"
     inkscape:current-layer="svg3172">
    <inkscape:grid
       type="xygrid"
       id="grid2989"
       empspacing="5"
       visible="true"
       enabled="true"
       snapvisiblegridlinesonly="true" />
  </sodipodi:namedview>
  <defs
     id="defs3174">
    <linearGradient
       id="linearGradient3587-6-5-3">
      <stop
         offset="0"
         style="stop-color:#000000;stop-opacity:1"
         id="stop3589-9-2-2" />
      <stop
         offset="1"
         style="stop-color:#363636;stop-opacity:1"
         id="stop3591-7-4-73" />
    </linearGradient>
    <linearGradient
       inkscape:collect="always"
       xlink:href="#linearGradient3587-6-5-3"
       id="linearGradient3776"
       x1="9.4432993"
       y1="3.9682655"
       x2="9.4432993"
       y2="18.1047"
       gradientUnits="userSpaceOnUse"
       gradientTransform="translate(-2.0000003,1)" />
  </defs>
  <path
     inkscape:connector-curvature="0"
     style="opacity:0.6;fill:#ffffff;fill-opacity:1;fill-rule:nonzero;stroke:none;stroke-width:3;marker:none;visibility:visible;display:inline;overflow:visible;enable-background:accumulate"
     id="path2396-7"
     d="M 8.9999997,6 C 5.1360001,6 2,9.1360005 2,13 2,16.864 5.1359999,19.999999 8.9999997,20 12.864,20 16,16.864 16,13 16,9.1360001 12.864,6.0000002 8.9999997,6 z M 12,8 14,10 8.4999997,17.5 4.5,14 6.5,12 8.4999997,14 12,8 z" />
  <path
     inkscape:connector-curvature="0"
     style="opacity:0.7;fill:url(#linearGradient3776);fill-opacity:1;fill-rule:nonzero;stroke:none;stroke-width:3;marker:none;visibility:visible;display:inline;overflow:visible;enable-background:accumulate"
     id="path2396"
     d="M 8.9999997,4.9991931 C 5.1360001,4.9991931 2,8.1351936 2,11.999193 c 0,3.864 3.1359999,6.999999 6.9999997,7 3.8640003,0 7.0000003,-3.136 7.0000003,-7 C 16,8.1351932 12.864,4.9991933 8.9999997,4.9991931 z m 3.0000003,2 2,2 -5.5000003,7.4999999 -3.9999997,-3.5 2,-2 1.9999997,2 L 12,6.9991931 z" />
  <path
     inkscape:connector-curvature="0"
     style="opacity:0.3;fill:none;stroke:#ffffff;stroke-width:0.5;stroke-linecap:butt;stroke-linejoin:miter;stroke-miterlimit:4;stroke-opacity:1;stroke-dasharray:none"
     id="path3170"
     d="M 4.8544493,12.999193 6.5,11.353642 8.5545307,13.408173 12.054531,7.4081731 13.672816,9.0264584 8.4727347,16.144744 4.8544493,12.999193 z" />
</svg>
