<?xml version="1.0" encoding="UTF-8" standalone="no"?>
<!-- Created with Inkscape (http://www.inkscape.org/) -->

<svg
   xmlns:dc="http://purl.org/dc/elements/1.1/"
   xmlns:cc="http://creativecommons.org/ns#"
   xmlns:rdf="http://www.w3.org/1999/02/22-rdf-syntax-ns#"
   xmlns:svg="http://www.w3.org/2000/svg"
   xmlns="http://www.w3.org/2000/svg"
   xmlns:xlink="http://www.w3.org/1999/xlink"
   xmlns:sodipodi="http://sodipodi.sourceforge.net/DTD/sodipodi-0.dtd"
   xmlns:inkscape="http://www.inkscape.org/namespaces/inkscape"
   width="16px"
   height="16px"
   id="svg5808"
   version="1.1"
   inkscape:version="0.48.0 r9654"
   sodipodi:docname="starred.svg">
  <defs
     id="defs5810">
    <linearGradient
       id="linearGradient6728">
      <stop
         style="stop-color:#dcc152;stop-opacity:1;"
         offset="0"
         id="stop6730" />
      <stop
         style="stop-color:#c7ae46;stop-opacity:1;"
         offset="1"
         id="stop6732" />
    </linearGradient>
    <linearGradient
       gradientUnits="userSpaceOnUse"
       y2="1181.2115"
       x2="223.51138"
       y1="1199.033"
       x1="223.51138"
       id="linearGradient6807"
       xlink:href="#linearGradient4222-8-1-7-8-1-5-9"
       inkscape:collect="always" />
    <linearGradient
       id="linearGradient6801"
       inkscape:collect="always">
      <stop
         id="stop6803"
         offset="0"
         style="stop-color:#ffffff;stop-opacity:1;" />
      <stop
         id="stop6805"
         offset="1"
         style="stop-color:#ffffff;stop-opacity:0;" />
    </linearGradient>
    <linearGradient
       y2="-33.686405"
       x2="1.0360155"
       y1="-33.686405"
       x1="16.646177"
       gradientTransform="matrix(0,-0.48414005,-0.46524241,0,-10.763163,10.845084)"
       gradientUnits="userSpaceOnUse"
       id="linearGradient6455"
       xlink:href="#linearGradient6801"
       inkscape:collect="always" />
    <linearGradient
       id="linearGradient4222-8-1-7-8-1-5-9">
      <stop
         offset="0"
         style="stop-color:#000000;stop-opacity:1"
         id="stop4224-4-3-2-5-0-2-7" />
      <stop
         offset="1"
         style="stop-color:#000000;stop-opacity:0"
         id="stop4226-8-1-6-0-5-2-0" />
    </linearGradient>
    <linearGradient
       inkscape:collect="always"
       xlink:href="#linearGradient6728"
       id="linearGradient6734"
       x1="11"
       y1="1"
       x2="11"
       y2="15"
       gradientUnits="userSpaceOnUse" />
  </defs>
  <sodipodi:namedview
     id="base"
     pagecolor="#ffffff"
     bordercolor="#666666"
     borderopacity="1.0"
     inkscape:pageopacity="0.0"
     inkscape:pageshadow="2"
     inkscape:zoom="34.4375"
     inkscape:cx="8"
     inkscape:cy="8"
     inkscape:current-layer="layer1"
     showgrid="true"
     inkscape:grid-bbox="true"
     inkscape:document-units="px"
     inkscape:window-width="1280"
     inkscape:window-height="753"
     inkscape:window-x="0"
     inkscape:window-y="24"
     inkscape:window-maximized="1"
     showborder="false">
    <inkscape:grid
       type="xygrid"
       id="grid6707"
       empspacing="5"
       visible="true"
       enabled="true"
       snapvisiblegridlinesonly="true" />
  </sodipodi:namedview>
  <metadata
     id="metadata5813">
    <rdf:RDF>
      <cc:Work
         rdf:about="">
        <dc:format>image/svg+xml</dc:format>
        <dc:type
           rdf:resource="http://purl.org/dc/dcmitype/StillImage" />
        <dc:title></dc:title>
      </cc:Work>
    </rdf:RDF>
  </metadata>
  <g
     id="layer1"
     inkscape:label="Layer 1"
     inkscape:groupmode="layer">
    <path
       d="m 225.0625,1181.5 c -0.44967,0.024 -0.64335,0.2119 -0.8125,0.375 a 0.99762831,0.99762831 0 0 0 -0.0937,0.125 c -0.76784,1.0112 -1.18389,2.105 -1.625,3 -0.009,0.018 -0.0222,0.044 -0.0312,0.062 -0.36564,0.652 -0.50316,1.0698 -0.59375,1.1875 -0.96228,0.2162 -2.02554,0.2992 -3.1875,0.5312 a 0.99762831,0.99762831 0 0 0 -0.21875,0.063 c 0.15221,-0.065 -0.25283,0.01 -0.6875,0.125 -0.21733,0.058 -0.4906,0.1342 -0.78125,0.4062 -0.29065,0.272 -0.44769,0.8379 -0.375,1.25 a 0.99762831,0.99762831 0 0 0 0.125,0.3438 c 0.67617,1.065 1.54389,1.7904 2.21875,2.5 0.0178,0.019 0.045,0.044 0.0625,0.062 0.48868,0.569 0.83202,0.8636 0.90625,1 -0.0983,1.0482 -0.35375,2.1315 -0.5,3.3438 a 0.99762831,0.99762831 0 0 0 0,0.031 c -0.012,0.1096 -0.0961,0.4695 -0.125,0.9376 -0.0144,0.234 -0.0448,0.5161 0.125,0.875 0.16985,0.3588 0.6532,0.7247 1.0625,0.7812 a 0.99762831,0.99762831 0 0 0 0.40625,-0.031 c 1.20081,-0.3497 2.14268,-1.0173 3,-1.4688 0.0179,-0.01 0.0446,-0.022 0.0625,-0.031 0.64814,-0.2952 1.00903,-0.4935 1.15625,-0.5313 0.90322,0.4163 1.79823,0.9861 2.84375,1.5 a 0.99762831,0.99762831 0 0 0 0.1875,0.062 c -0.18171,-0.046 0.18491,0.1327 0.59375,0.3125 0.20442,0.09 0.46474,0.1943 0.875,0.1563 0.41026,-0.038 0.91948,-0.4003 1.09375,-0.7813 a 0.99762831,0.99762831 0 0 0 0.0937,-0.375 c 0.0521,-1.2818 -0.22904,-2.3902 -0.375,-3.4063 -0.001,-0.017 0.001,-0.014 0,-0.031 -0.0663,-0.7567 -0.17506,-1.1724 -0.15625,-1.375 0.66726,-0.7877 1.47577,-1.5406 2.28125,-2.4375 a 0.99762831,0.99762831 0 0 0 0.0937,-0.1563 c -0.0803,0.136 0.21618,-0.1569 0.5,-0.5 0.14191,-0.1715 0.32297,-0.3966 0.40625,-0.7812 0.0833,-0.3846 -0.10686,-0.9525 -0.40625,-1.25 a 0.99762831,0.99762831 0 0 0 -0.3125,-0.2188 c -1.16652,-0.4543 -2.27182,-0.4944 -3.21875,-0.6562 -0.0344,-0.01 -0.0293,0.01 -0.0625,0 -0.70674,-0.1638 -1.13529,-0.1921 -1.28125,-0.25 -0.45836,-0.8142 -0.84367,-1.7734 -1.34375,-2.75 a 0.99762831,0.99762831 0 0 0 -0.0312,-0.031 c -0.19103,-0.3229 -0.35467,-1.2186 -1.28125,-1.8126 A 0.99762831,0.99762831 0 0 0 225.0625,1181.5 z"
       id="path6797"
       style="color:#000000;fill:none;stroke:url(#linearGradient6807);stroke-width:1.13282036999999991;stroke-linecap:butt;stroke-linejoin:round;stroke-miterlimit:4;stroke-opacity:1;stroke-dasharray:none;stroke-dashoffset:0.06000000000000000;marker:none;visibility:visible;display:inline;overflow:visible;enable-background:accumulate;opacity:0.05"
       inkscape:original="M 225.125 1182.5 C 225.05507 1182.5038 224.9853 1182.5477 224.9375 1182.5938 C 224.27801 1183.4623 223.89447 1184.5237 223.40625 1185.5 C 223.09081 1186.0475 222.9445 1186.7768 222.4375 1187.1562 C 221.28288 1187.4572 220.07406 1187.5168 218.90625 1187.75 C 218.52399 1187.9139 217.51899 1187.8364 217.625 1188.4375 C 218.2116 1189.3615 219.04367 1190.0567 219.78125 1190.8438 C 220.18193 1191.3264 220.81149 1191.6913 221 1192.3125 C 220.91717 1193.5533 220.61748 1194.7672 220.46875 1196 C 220.4121 1196.518 220.07652 1197.42 220.65625 1197.5 C 221.67828 1197.2024 222.58718 1196.5837 223.53125 1196.0938 C 224.09432 1195.8447 224.6265 1195.375 225.25 1195.375 C 226.35343 1195.8407 227.36162 1196.5024 228.4375 1197.0312 C 228.83897 1197.1335 229.59147 1197.8327 229.84375 1197.2812 C 229.8888 1196.1734 229.62287 1195.0898 229.46875 1194 C 229.41611 1193.3633 229.14692 1192.6808 229.34375 1192.0625 C 230.10854 1191.1096 231.03009 1190.3122 231.84375 1189.4062 C 232.06081 1189.0388 232.92381 1188.5149 232.5 1188.0938 C 231.50581 1187.7066 230.44558 1187.6523 229.40625 1187.4688 C 228.81063 1187.3244 228.0956 1187.3867 227.59375 1187 C 227.01402 1186.0388 226.60596 1184.9691 226.09375 1183.9688 C 225.79926 1183.4711 225.61627 1182.8149 225.125 1182.5 z "
       inkscape:radius="0.99752855"
       sodipodi:type="inkscape:offset"
       transform="matrix(0.88366288,0,0,0.88184313,-190.93578,-1041.3961)" />
    <path
       sodipodi:nodetypes="cccccccccccccccccccccc"
       id="path1307-90-6"
       d="m 7.9997139,1.5 c 0.4257754,0.2729115 0.5887553,0.8417877 0.8439847,1.2731249 0.4439238,0.8670076 0.7946618,1.7880081 1.2971034,2.6210425 0.434945,0.3351379 1.047561,0.276465 1.563774,0.4016108 0.90077,0.1590322 1.834889,0.2090386 2.696537,0.5445231 0.36731,0.3650375 -0.393188,0.8325144 -0.58131,1.1510123 -0.705185,0.7851948 -1.508289,1.4736702 -2.171119,2.2995114 -0.17059,0.535856 0.0722,1.126658 0.117816,1.678461 0.133574,0.944488 0.376774,1.888455 0.33773,2.848628 -0.218647,0.477877 -0.87906,-0.133639 -1.227007,-0.222212 -0.9324467,-0.45829 -1.807086,-1.043806 -2.7634103,-1.44741 -0.5403769,0 -1.0029603,0.419897 -1.4909636,0.635783 C 5.8046396,13.708652 4.9742862,14.242081 4.08851,14.5 3.5860679,14.430667 3.8623925,13.660639 3.91149,13.211709 4.0403918,12.143289 4.34947,11.092982 4.4212573,10.01763 4.2578788,9.4792603 3.7292368,9.1504491 3.3819742,8.7321121 2.7427261,8.0500499 2.0150936,7.4357606 1.5066973,6.634966 1.4148202,6.1140161 2.2929956,6.2030222 2.6242939,6.0609765 3.6364151,5.8588711 4.6733147,5.7952582 5.6740044,5.5343933 6.1134128,5.205582 6.249274,4.5785529 6.5226606,4.104056 6.9457925,3.2579351 7.2799076,2.3448211 7.8514765,1.5920394 7.8929035,1.5521734 7.9391065,1.5032934 7.9997139,1.5 z"
       style="color:#000000;fill:#fff6a9;fill-opacity:1;fill-rule:nonzero;stroke:url(#linearGradient6734);stroke-width:1;stroke-linecap:butt;stroke-linejoin:round;stroke-miterlimit:4;stroke-opacity:1;stroke-dasharray:none;stroke-dashoffset:0.06000000000000000;marker:none;visibility:visible;display:inline;overflow:visible;enable-background:accumulate"
       inkscape:connector-curvature="0" />
    <path
       sodipodi:nodetypes="ccccccc"
       id="path1309-6-5"
       d="M 5.7140888,9.9252494 C 4.8329216,8.9285073 3.950142,8.0090125 3.0689749,7.0122706 4.3062063,6.7846039 5.259716,6.6543874 6.4969392,6.4267207 7.0730551,5.1823635 7.4790465,4.4485163 8.0551624,3.2042441 8.6312784,4.4485163 9.2237778,5.1487483 9.7998938,6.3930206 11.037117,6.6206873 11.764969,6.8099001 13.002192,7.0375668 12.121025,8.0343088 11.237277,8.901089 10.356109,9.8978309"
       style="opacity:1;color:#000000;fill:none;stroke:url(#linearGradient6455);stroke-width:0.98542726000000003;stroke-linecap:butt;stroke-linejoin:miter;stroke-miterlimit:4;stroke-opacity:1;stroke-dasharray:none;stroke-dashoffset:0;marker:none;visibility:visible;display:inline;overflow:visible;enable-background:accumulate"
       inkscape:connector-curvature="0" />
  </g>
</svg>
