<?xml version="1.0" encoding="UTF-8" standalone="no"?>
<!-- Created with Inkscape (http://www.inkscape.org/) -->

<svg
   xmlns:svg="http://www.w3.org/2000/svg"
   xmlns="http://www.w3.org/2000/svg"
   xmlns:xlink="http://www.w3.org/1999/xlink"
   version="1.0"
   width="22"
   height="22"
   id="svg3399">
  <defs
     id="defs3401">
    <linearGradient
       id="linearGradient3104">
      <stop
         id="stop3106"
         style="stop-color:#aaaaaa;stop-opacity:1"
         offset="0" />
      <stop
         id="stop3108"
         style="stop-color:#c8c8c8;stop-opacity:1"
         offset="1" />
    </linearGradient>
    <linearGradient
       x1="-51.786404"
       y1="50.786446"
       x2="-51.786404"
       y2="2.9062471"
       id="linearGradient2438"
       xlink:href="#linearGradient3104"
       gradientUnits="userSpaceOnUse"
       gradientTransform="matrix(0.3922135,0,0,0.4473607,28.199292,0.7613003)" />
    <linearGradient
       id="linearGradient3600">
      <stop
         id="stop3602"
         style="stop-color:#f4f4f4;stop-opacity:1"
         offset="0" />
      <stop
         id="stop3604"
         style="stop-color:#dbdbdb;stop-opacity:1"
         offset="1" />
    </linearGradient>
    <linearGradient
       x1="25.132275"
       y1="0.98520643"
       x2="25.132275"
       y2="47.013336"
       id="linearGradient2435"
       xlink:href="#linearGradient3600"
       gradientUnits="userSpaceOnUse"
       gradientTransform="matrix(0.4857154,0,0,0.4780255,-0.65717039,1.2940499)" />
    <radialGradient
       cx="102"
       cy="112.3047"
       r="139.55859"
       id="XMLID_8_"
       gradientUnits="userSpaceOnUse">
      <stop
         id="stop41"
         style="stop-color:#b7b8b9;stop-opacity:1"
         offset="0" />
      <stop
         id="stop47"
         style="stop-color:#ececec;stop-opacity:1"
         offset="0.18851049" />
      <stop
         id="stop49"
         style="stop-color:#fafafa;stop-opacity:0"
         offset="0.25718147" />
      <stop
         id="stop51"
         style="stop-color:#ffffff;stop-opacity:0"
         offset="0.30111277" />
      <stop
         id="stop53"
         style="stop-color:#fafafa;stop-opacity:0"
         offset="0.53130001" />
      <stop
         id="stop55"
         style="stop-color:#ebecec;stop-opacity:0"
         offset="0.84490001" />
      <stop
         id="stop57"
         style="stop-color:#e1e2e3;stop-opacity:0"
         offset="1" />
    </radialGradient>
    <radialGradient
       cx="102"
       cy="112.3047"
       r="139.55859"
       id="radialGradient2432"
       xlink:href="#XMLID_8_"
       gradientUnits="userSpaceOnUse"
       gradientTransform="matrix(0.1702128,0,0,-0.1907226,0.10638221,25.716504)" />
    <linearGradient
       id="linearGradient3211">
      <stop
         id="stop3213"
         style="stop-color:#ffffff;stop-opacity:1"
         offset="0" />
      <stop
         id="stop3215"
         style="stop-color:#ffffff;stop-opacity:0"
         offset="1" />
    </linearGradient>
    <linearGradient
       x1="24"
       y1="1.9999999"
       x2="24"
       y2="46.01725"
       id="linearGradient2429"
       xlink:href="#linearGradient3211"
       gradientUnits="userSpaceOnUse"
       gradientTransform="matrix(0.4545444,0,0,0.4651153,0.09093361,2.3372293)" />
    <linearGradient
       x1="14.9966"
       y1="11.1885"
       x2="32.511002"
       y2="34.307499"
       id="aigrd1"
       gradientUnits="userSpaceOnUse">
      <stop
         id="stop3034"
         style="stop-color:#ebebeb;stop-opacity:1"
         offset="0" />
      <stop
         id="stop3036"
         style="stop-color:#ffffff;stop-opacity:1"
         offset="0.5" />
      <stop
         id="stop3038"
         style="stop-color:#ebebeb;stop-opacity:1"
         offset="1" />
    </linearGradient>
    <linearGradient
       x1="14.9966"
       y1="11.1885"
       x2="32.511002"
       y2="34.307499"
       id="linearGradient2627"
       xlink:href="#aigrd1"
       gradientUnits="userSpaceOnUse"
       gradientTransform="matrix(0.3466586,0,0,0.3466585,2.677606,5.9947519)" />
    <linearGradient
       x1="12.2744"
       y1="32.4165"
       x2="35.391201"
       y2="14.2033"
       id="aigrd2"
       gradientUnits="userSpaceOnUse">
      <stop
         id="stop3043"
         style="stop-color:#fbfbfb;stop-opacity:1"
         offset="0" />
      <stop
         id="stop3045"
         style="stop-color:#b6b6b6;stop-opacity:1"
         offset="0.5" />
      <stop
         id="stop3047"
         style="stop-color:#e4e4e4;stop-opacity:1"
         offset="1" />
    </linearGradient>
    <linearGradient
       x1="12.2744"
       y1="32.4165"
       x2="35.391201"
       y2="14.2033"
       id="linearGradient2624"
       xlink:href="#aigrd2"
       gradientUnits="userSpaceOnUse"
       gradientTransform="matrix(0.3714299,0,0,0.3714297,2.0856827,5.4199481)" />
    <linearGradient
       id="linearGradient10997">
      <stop
         id="stop10999"
         style="stop-color:#ffffff;stop-opacity:1"
         offset="0" />
      <stop
         id="stop11001"
         style="stop-color:#ffffff;stop-opacity:0"
         offset="1" />
    </linearGradient>
    <linearGradient
       x1="25.985928"
       y1="24.919628"
       x2="15.889072"
       y2="11.669628"
       id="linearGradient2621"
       xlink:href="#linearGradient10997"
       gradientUnits="userSpaceOnUse"
       gradientTransform="matrix(0.2932617,0,0,0.2932617,4.0181813,6.9347065)" />
    <linearGradient
       id="linearGradient6036">
      <stop
         id="stop6038"
         style="stop-color:#ffffff;stop-opacity:1"
         offset="0" />
      <stop
         id="stop6040"
         style="stop-color:#ffffff;stop-opacity:0"
         offset="1" />
    </linearGradient>
    <linearGradient
       x1="10.50172"
       y1="3.6100161"
       x2="48.798885"
       y2="54.698483"
       id="linearGradient2617"
       xlink:href="#linearGradient6036"
       gradientUnits="userSpaceOnUse"
       gradientTransform="matrix(0.277811,0,0,0.2778109,4.2361337,7.0547036)" />
    <linearGradient
       id="linearGradient6028">
      <stop
         id="stop6030"
         style="stop-color:#ffffff;stop-opacity:1"
         offset="0" />
      <stop
         id="stop6032"
         style="stop-color:#ffffff;stop-opacity:0"
         offset="1" />
    </linearGradient>
    <linearGradient
       x1="28.702885"
       y1="31.494707"
       x2="17.742729"
       y2="18.366575"
       id="linearGradient2611"
       xlink:href="#linearGradient6028"
       gradientUnits="userSpaceOnUse"
       gradientTransform="matrix(0.409917,0,0,0.409917,1.036231,3.7804842)" />
    <linearGradient
       id="linearGradient8589">
      <stop
         id="stop8591"
         style="stop-color:#fefefe;stop-opacity:1"
         offset="0" />
      <stop
         id="stop8593"
         style="stop-color:#cbcbcb;stop-opacity:1"
         offset="1" />
    </linearGradient>
    <linearGradient
       x1="32.892288"
       y1="8.0590115"
       x2="36.358372"
       y2="5.4565363"
       id="linearGradient2425"
       xlink:href="#linearGradient8589"
       gradientUnits="userSpaceOnUse"
       gradientTransform="matrix(0.4778466,0,0,0.5524833,-0.62774609,1.9238717)" />
  </defs>
  <g
     transform="translate(0,-2)"
     id="layer1">
    <path
       d="m 2.4999608,2.499961 c 3.8955799,0 7.6044552,0 11.5000382,0 0.683368,0.2372969 4.541325,3.12817 5.5,5.000039 0,5.729157 3.9e-5,10.270842 3.9e-5,16 l -17.0000772,0 c 0,-7.33336 0,-13.6666811 0,-21.000039 z"
       id="path4160"
       style="fill:url(#linearGradient2435);fill-opacity:1;stroke:url(#linearGradient2438);stroke-width:0.99992162;stroke-linecap:butt;stroke-linejoin:round;stroke-miterlimit:4;stroke-opacity:1;stroke-dasharray:none;stroke-dashoffset:0;display:inline" />
    <path
       d="M 3.1702119,24 C 3.0764249,24 2.9999991,23.91437 2.9999991,23.809277 l 0,-20.5980318 c 0,-0.1052785 0.076426,-0.1907219 0.1702128,-0.1907219 3.5214555,0.052717 7.4238521,-0.078858 10.9410271,0.013125 l 4.838887,4.3271368 0.04987,16.4484919 C 18.999999,23.914366 18.923742,24 18.829785,24 L 3.1702119,24 z"
       id="path4191"
       style="fill:url(#radialGradient2432);fill-opacity:1" />
    <path
       d="m 18.5,7.6770357 c 0,5.2083053 0,10.6146573 0,15.8229643 -5,0 -9.9999997,0 -15.0000009,0 0,-6.66667 0,-13.333334 0,-20.0000001 3.4372614,0 6.9564989,0 10.3937609,0"
       id="path2435"
       style="opacity:0.6;fill:none;stroke:url(#linearGradient2429);stroke-width:0.99999988;stroke-linecap:butt;stroke-linejoin:miter;stroke-miterlimit:4;stroke-opacity:1;stroke-dasharray:none;stroke-dashoffset:0;display:inline" />
    <path
       d="m 10.997412,7.9360396 c -3.3625882,0 -6.0665251,2.7039374 -6.0665251,6.0665254 0,3.362588 2.7039369,6.066524 6.0665251,6.066524 3.362588,0 6.066523,-2.703936 6.066523,-6.066524 0,-3.362588 -2.703935,-6.0665254 -6.066523,-6.0665254 l 0,0 z m 0,7.5224914 c -0.797315,0 -1.4559669,-0.658651 -1.4559669,-1.455966 0,-0.797315 0.6586519,-1.455967 1.4559669,-1.455967 0.797316,0 1.455967,0.658652 1.455967,1.455967 0,0.797315 -0.658651,1.455966 -1.455967,1.455966 z"
       id="path3040"
       style="fill:url(#linearGradient2627);fill-rule:nonzero;stroke:none;display:inline" />
    <path
       d="m 10.999999,7.4999556 c -3.6028698,0 -6.5000221,2.8971534 -6.5000221,6.5000224 0,3.60287 2.8971523,6.500022 6.5000221,6.500022 3.60287,0 6.500023,-2.897152 6.500023,-6.500022 0,-3.602869 -2.897153,-6.5000224 -6.500023,-6.5000224 l 0,0 z m 0,8.0600294 c -0.854289,0 -1.5600049,-0.705717 -1.5600049,-1.560007 0,-0.854288 0.7057159,-1.560006 1.5600049,-1.560006 0.854289,0 1.560004,0.705718 1.560004,1.560006 0,0.85429 -0.705715,1.560007 -1.560004,1.560007 z"
       id="path3049"
       style="fill:url(#linearGradient2624);fill-rule:nonzero;stroke:#808080;stroke-width:1.00000036;stroke-miterlimit:4;stroke-opacity:1;display:inline" />
    <path
       d="M 10.736963,8.0527184 C 7.5809724,8.1717563 5.0771279,10.755815 5.0771279,13.942128 c 0,1.444462 0.5123639,2.75736 1.3686033,3.779111 l 2.9029729,-2.45312 C 9.1371621,15.020801 8.9119276,14.33623 8.925544,13.989563 c 0.051759,-1.317768 1.098155,-2.051752 2.054717,-2.078598 0.461059,-0.01294 1.251508,0.350772 1.511742,0.665402 l 3.004171,-2.404521 c -1.07779,-1.2974351 -2.710993,-2.1191276 -4.538467,-2.1191276 -0.07647,0 -0.144999,-0.00286 -0.220744,0 z"
       id="path3531"
       style="fill:url(#linearGradient2621);fill-opacity:1;fill-rule:nonzero;stroke:none;display:inline" />
    <path
       d="m 11,9.9999774 c -2.2337637,0 -4.0000004,1.8181826 -4.0000004,3.9999996 0,2.233765 1.8181827,4.000001 4.0000004,4.000001 2.233763,0 3.999999,-1.818182 3.999999,-4.000001 0,-2.233766 -1.818185,-3.9999996 -3.999999,-3.9999996 l 0,0 z m 0,6.1818186 c -1.1948049,0 -2.1818177,-0.987015 -2.1818177,-2.181819 0,-1.194805 0.9870128,-2.181817 2.1818177,-2.181817 1.194803,0 2.181814,0.987012 2.181814,2.181817 0,1.194804 -0.987011,2.181819 -2.181814,2.181819 z"
       id="path3051"
       style="opacity:0.51098902;fill:#eeeeec;fill-rule:nonzero;stroke:none;display:inline" />
    <path
       d="m 10.999997,8.4999775 c -3.0485691,0 -5.4999976,2.4514295 -5.4999976,5.5000015 0,3.048571 2.4514285,5.499999 5.4999976,5.499999 3.048574,0 5.500002,-2.451428 5.500002,-5.499999 0,-3.048572 -2.451428,-5.5000015 -5.500002,-5.5000015 l 0,0 z"
       id="path5264"
       style="opacity:0.4;fill:none;stroke:url(#linearGradient2617);stroke-width:1.00000036;stroke-miterlimit:4;stroke-opacity:1;display:inline" />
    <path
       d="m 13.5,13.999978 a 2.5000004,2.5000004 0 0 1 -5.0000007,0 2.5000004,2.5000004 0 1 1 5.0000007,0 z"
       id="path6026"
       style="opacity:0.67213111;fill:none;stroke:url(#linearGradient2611);stroke-width:1.00000024;stroke-linecap:butt;stroke-linejoin:miter;stroke-miterlimit:4;stroke-opacity:1;stroke-dasharray:none;stroke-dashoffset:0;marker:none;visibility:visible;display:inline;overflow:visible" />
    <path
       d="m 13.075473,3 c 1.156303,0.3287671 0.339059,4.6143789 0.339059,4.6143789 0,0 4.515388,-0.4277362 5.60771,1.1949961 1.489153,2.212257 -0.06822,-0.6351721 -0.173447,-0.8216972 C 18.092867,6.6476323 14.982455,3.4405918 13.803386,3.0464703 13.715154,3.0169778 13.51951,3 13.075473,3 z"
       id="path3370"
       style="opacity:0.2;fill:#000000;fill-opacity:1;fill-rule:evenodd;stroke:none;display:inline" />
    <path
       d="m 12.999999,3 c 1.526166,0 1,4 1,4 0,0 4.992074,-0.45326 4.992074,2 0,-0.5977419 0.05575,-1.4784338 -0.06407,-1.6559326 C 18.088896,6.1010616 15.184238,3.4821803 14.129934,3.0464703 14.043956,3.0109384 13.444036,3 12.999999,3 z"
       id="path4474"
       style="fill:url(#linearGradient2425);fill-opacity:1;fill-rule:evenodd;stroke:none;display:inline" />
  </g>
</svg>
