<?xml version="1.0" encoding="UTF-8" standalone="no"?>
<!-- Created with Inkscape (http://www.inkscape.org/) -->
<svg
   xmlns:svg="http://www.w3.org/2000/svg"
   xmlns="http://www.w3.org/2000/svg"
   xmlns:xlink="http://www.w3.org/1999/xlink"
   version="1.0"
   width="22"
   height="22"
   id="svg2555">
  <defs
     id="defs2557">
    <linearGradient
       x1="-51.786404"
       y1="50.786446"
       x2="-51.786404"
       y2="2.9062471"
       id="linearGradient2438"
       xlink:href="#linearGradient3104"
       gradientUnits="userSpaceOnUse"
       gradientTransform="matrix(0.3922135,0,0,0.4473607,28.199292,-1.2386997)" />
    <linearGradient
       id="linearGradient3600">
      <stop
         id="stop3602"
         style="stop-color:#f4f4f4;stop-opacity:1"
         offset="0" />
      <stop
         id="stop3604"
         style="stop-color:#dbdbdb;stop-opacity:1"
         offset="1" />
    </linearGradient>
    <linearGradient
       x1="25.132275"
       y1="0.98520643"
       x2="25.132275"
       y2="47.013336"
       id="linearGradient2435"
       xlink:href="#linearGradient3600"
       gradientUnits="userSpaceOnUse"
       gradientTransform="matrix(0.4857154,0,0,0.4780255,-0.6571704,-0.7059501)" />
    <radialGradient
       cx="102"
       cy="112.3047"
       r="139.55859"
       id="XMLID_8_"
       gradientUnits="userSpaceOnUse">
      <stop
         id="stop41"
         style="stop-color:#b7b8b9;stop-opacity:1"
         offset="0" />
      <stop
         id="stop47"
         style="stop-color:#ececec;stop-opacity:1"
         offset="0.18851049" />
      <stop
         id="stop49"
         style="stop-color:#fafafa;stop-opacity:0"
         offset="0.25718147" />
      <stop
         id="stop51"
         style="stop-color:#ffffff;stop-opacity:0"
         offset="0.30111277" />
      <stop
         id="stop53"
         style="stop-color:#fafafa;stop-opacity:0"
         offset="0.53130001" />
      <stop
         id="stop55"
         style="stop-color:#ebecec;stop-opacity:0"
         offset="0.84490001" />
      <stop
         id="stop57"
         style="stop-color:#e1e2e3;stop-opacity:0"
         offset="1" />
    </radialGradient>
    <radialGradient
       cx="102"
       cy="112.3047"
       r="139.55859"
       id="radialGradient2432"
       xlink:href="#XMLID_8_"
       gradientUnits="userSpaceOnUse"
       gradientTransform="matrix(0.1702128,0,0,-0.1907226,0.1063822,23.716504)" />
    <linearGradient
       id="linearGradient3211">
      <stop
         id="stop3213"
         style="stop-color:#ffffff;stop-opacity:1"
         offset="0" />
      <stop
         id="stop3215"
         style="stop-color:#ffffff;stop-opacity:0"
         offset="1" />
    </linearGradient>
    <linearGradient
       x1="24"
       y1="1.9999999"
       x2="24"
       y2="46.01725"
       id="linearGradient2429"
       xlink:href="#linearGradient3211"
       gradientUnits="userSpaceOnUse"
       gradientTransform="matrix(0.4545444,0,0,0.4651153,9.093361e-2,0.3372293)" />
    <linearGradient
       id="linearGradient8589">
      <stop
         id="stop8591"
         style="stop-color:#fefefe;stop-opacity:1"
         offset="0" />
      <stop
         id="stop8593"
         style="stop-color:#cbcbcb;stop-opacity:1"
         offset="1" />
    </linearGradient>
    <linearGradient
       x1="32.892288"
       y1="8.0590115"
       x2="36.358372"
       y2="5.4565363"
       id="linearGradient2425"
       xlink:href="#linearGradient8589"
       gradientUnits="userSpaceOnUse"
       gradientTransform="matrix(0.4778466,0,0,0.5524833,-0.6277461,-7.6128303e-2)" />
    <linearGradient
       id="linearGradient3104">
      <stop
         id="stop3106"
         style="stop-color:#aaaaaa;stop-opacity:1"
         offset="0" />
      <stop
         id="stop3108"
         style="stop-color:#c8c8c8;stop-opacity:1"
         offset="1" />
    </linearGradient>
    <linearGradient
       x1="21.982096"
       y1="28.717724"
       x2="21.982096"
       y2="7.4760718"
       id="linearGradient2536"
       xlink:href="#linearGradient3104"
       gradientUnits="userSpaceOnUse"
       gradientTransform="translate(-7.982096,-7.0420664)" />
  </defs>
  <g
     id="layer1">
    <path
       d="M 2.4999608,0.49996097 C 6.3955407,0.49996097 10.104416,0.49996097 13.999999,0.49996097 C 14.683367,0.73725787 18.541324,3.628131 19.499999,5.5 C 19.499999,11.229157 19.500038,15.770842 19.500038,21.5 C 13.833345,21.5 8.1666536,21.5 2.4999608,21.5 C 2.4999608,14.16664 2.4999608,7.8333189 2.4999608,0.49996097 z"
       id="path4160"
       style="fill:url(#linearGradient2435);fill-opacity:1;stroke:url(#linearGradient2438);stroke-width:0.99992162;stroke-linecap:butt;stroke-linejoin:round;stroke-miterlimit:4;stroke-dasharray:none;stroke-dashoffset:0;stroke-opacity:1;display:inline" />
    <path
       d="M 3.1702119,22 C 3.0764247,22 2.9999991,21.914366 2.9999991,21.809277 L 2.9999991,1.2112452 C 2.9999991,1.1059667 3.0764247,1.0205233 3.1702119,1.0205233 C 6.6916674,1.0732401 10.594064,0.94166522 14.111239,1.0336487 L 18.950126,5.3607855 L 18.999999,21.809277 C 18.999999,21.914366 18.923742,22 18.829785,22 L 3.1702119,22 z"
       id="path4191"
       style="fill:url(#radialGradient2432);fill-opacity:1" />
    <path
       d="M 18.5,5.6770357 C 18.5,10.885341 18.5,15.291693 18.5,20.5 C 13.5,20.5 8.5000003,20.5 3.4999991,20.5 C 3.4999991,13.83333 3.4999991,8.1666657 3.4999991,1.4999999 C 6.9372605,1.4999999 10.456498,1.4999999 13.89376,1.4999999"
       id="path2435"
       style="opacity:0.6;fill:none;fill-opacity:1;stroke:url(#linearGradient2429);stroke-width:0.99999988;stroke-linecap:butt;stroke-linejoin:miter;stroke-miterlimit:4;stroke-dasharray:none;stroke-dashoffset:0;stroke-opacity:1;display:inline" />
    <path
       d="M 13.075473,1 C 14.231776,1.3287671 13.414532,5.6143789 13.414532,5.6143789 C 13.414532,5.6143789 17.92992,5.1866427 19.022242,6.809375 C 20.511395,9.0216317 18.954017,6.1742029 18.848795,5.9876778 C 18.092867,4.6476323 14.982455,1.4405918 13.803386,1.0464703 C 13.715154,1.0169778 13.51951,1 13.075473,1 z"
       id="path3370"
       style="fill:#c0c0c0;fill-opacity:1;fill-rule:evenodd;stroke:none;stroke-width:1px;stroke-linecap:butt;stroke-linejoin:miter;stroke-opacity:1;display:inline" />
    <path
       d="M 12.999999,1 C 14.526165,1 13.999999,5 13.999999,5 C 13.999999,5 18.992073,4.54674 18.992073,7 C 18.992073,6.4022581 19.047824,5.5215662 18.928001,5.3440674 C 18.088896,4.1010616 15.184238,1.4821803 14.129934,1.0464703 C 14.043956,1.0109384 13.444036,1 12.999999,1 z"
       id="path4474"
       style="fill:url(#linearGradient2425);fill-opacity:1;fill-rule:evenodd;stroke:none;stroke-width:1px;stroke-linecap:butt;stroke-linejoin:miter;stroke-opacity:1;display:inline" />
    <path
       d="M 5,4.5050066 L 7.34375,4.5050066 L 5,4.5050066 z M 7.6875,4.5050066 L 9.875,4.5050066 L 7.6875,4.5050066 z M 10.21875,4.5050066 L 12.15625,4.5050066 L 10.21875,4.5050066 z M 12.46875,4.5050066 L 13.3125,4.5050066 L 12.46875,4.5050066 z M 13.65625,4.5050066 L 13.65625,4.5050066 z M 5,6.5050066 L 8.65625,6.5050066 L 5,6.5050066 z M 9.0625,6.5050066 L 10.8125,6.5050066 L 9.0625,6.5050066 z M 11.125,6.5050066 L 12,6.5050066 L 11.125,6.5050066 z M 12.34375,6.5050066 L 13.9375,6.5050066 L 12.34375,6.5050066 z M 14.28125,6.5050066 L 15.90625,6.5050066 L 14.28125,6.5050066 z M 5,8.5350546 L 6.59375,8.5350546 L 5,8.5350546 z M 7.09375,8.5350546 L 13,8.5350546 L 7.09375,8.5350546 z M 5,11.500001 L 8.09375,11.500001 L 5,11.500001 z M 8.40625,11.500001 L 13.46875,11.500001 L 8.40625,11.500001 z M 13.78125,11.500001 L 16.25,11.500001 L 13.78125,11.500001 z M 5,13.500001 L 7.34375,13.500001 L 5,13.500001 z M 7.6875,13.500001 L 9.84375,13.500001 L 7.6875,13.500001 z M 10.21875,13.500001 L 12.15625,13.500001 L 10.21875,13.500001 z M 12.46875,13.500001 L 13.3125,13.500001 L 12.46875,13.500001 z M 13.65625,13.500001 L 15.53125,13.500001 L 13.65625,13.500001 z M 5,16.5 L 8.09375,16.5 L 5,16.5 z M 8.40625,16.5 L 13.46875,16.5 L 8.40625,16.5 z M 13.78125,16.5 L 16.25,16.5 L 13.78125,16.5 z M 5,18.5 L 8.875,18.5 L 5,18.5 z M 9.21875,18.5 L 10.96875,18.5 L 9.21875,18.5 z M 11.28125,18.5 L 14.03125,18.5 L 11.28125,18.5 z"
       id="path2590"
       style="fill:none;fill-rule:evenodd;stroke:url(#linearGradient2536);stroke-width:1px;stroke-linecap:butt;stroke-linejoin:miter;stroke-opacity:1" />
  </g>
</svg>
