<?xml version="1.0" encoding="UTF-8" standalone="no"?>
<!-- Created with Inkscape (http://www.inkscape.org/) -->

<svg
   xmlns:dc="http://purl.org/dc/elements/1.1/"
   xmlns:cc="http://creativecommons.org/ns#"
   xmlns:rdf="http://www.w3.org/1999/02/22-rdf-syntax-ns#"
   xmlns:svg="http://www.w3.org/2000/svg"
   xmlns="http://www.w3.org/2000/svg"
   xmlns:xlink="http://www.w3.org/1999/xlink"
   xmlns:sodipodi="http://sodipodi.sourceforge.net/DTD/sodipodi-0.dtd"
   xmlns:inkscape="http://www.inkscape.org/namespaces/inkscape"
   width="22"
   height="22"
   id="svg3115"
   version="1.1"
   inkscape:version="0.47 r22583"
   sodipodi:docname="text-x-install.svg">
  <defs
     id="defs3117">
    <linearGradient
       inkscape:collect="always"
       xlink:href="#linearGradient2490-3-5"
       id="linearGradient2988"
       gradientUnits="userSpaceOnUse"
       x1="17.976248"
       y1="17.984413"
       x2="17.976248"
       y2="6.0291824" />
    <linearGradient
       id="linearGradient2490-3-5">
      <stop
         offset="0"
         style="stop-color:#365f0e;stop-opacity:1"
         id="stop2492-3-33" />
      <stop
         offset="1"
         style="stop-color:#84a718;stop-opacity:1"
         id="stop2494-8-83" />
    </linearGradient>
    <linearGradient
       inkscape:collect="always"
       xlink:href="#linearGradient8589"
       id="linearGradient2996"
       gradientUnits="userSpaceOnUse"
       gradientTransform="matrix(0.4778466,0,0,0.5524833,-0.6277461,-6.0761284)"
       x1="32.892288"
       y1="8.0590115"
       x2="36.358372"
       y2="5.4565363" />
    <linearGradient
       id="linearGradient8589">
      <stop
         id="stop8591"
         style="stop-color:#fefefe;stop-opacity:1"
         offset="0" />
      <stop
         id="stop8593"
         style="stop-color:#cbcbcb;stop-opacity:1"
         offset="1" />
    </linearGradient>
    <linearGradient
       inkscape:collect="always"
       xlink:href="#linearGradient3211"
       id="linearGradient3003"
       gradientUnits="userSpaceOnUse"
       gradientTransform="matrix(0.4545444,0,0,0.4418595,0.0909336,-5.6046323)"
       x1="24"
       y1="1.9999999"
       x2="24"
       y2="46.01725" />
    <linearGradient
       id="linearGradient3211">
      <stop
         id="stop3213"
         style="stop-color:#ffffff;stop-opacity:1"
         offset="0" />
      <stop
         id="stop3215"
         style="stop-color:#ffffff;stop-opacity:0"
         offset="1" />
    </linearGradient>
    <linearGradient
       id="linearGradient3242-7-5-0">
      <stop
         offset="0"
         style="stop-color:#eef87e;stop-opacity:1"
         id="stop3244-5-2-4" />
      <stop
         offset="0.26238"
         style="stop-color:#cde34f;stop-opacity:1"
         id="stop3246-9-2-4" />
      <stop
         offset="0.66093999"
         style="stop-color:#93b723;stop-opacity:1"
         id="stop3248-7-2-4" />
      <stop
         offset="1"
         style="stop-color:#5a7e0d;stop-opacity:1"
         id="stop3250-8-70-4" />
    </linearGradient>
    <linearGradient
       id="linearGradient2490-3-4-6">
      <stop
         offset="0"
         style="stop-color:#365f0e;stop-opacity:1"
         id="stop2492-3-6-3" />
      <stop
         offset="1"
         style="stop-color:#84a718;stop-opacity:1"
         id="stop2494-8-3-1" />
    </linearGradient>
    <radialGradient
       r="18.000002"
       fy="4.4999995"
       fx="24.000002"
       cy="4.4999995"
       cx="24.000002"
       gradientTransform="matrix(0,1.4601221,-1.595671,0,18.180518,-40.781578)"
       gradientUnits="userSpaceOnUse"
       id="radialGradient3111"
       xlink:href="#linearGradient3242-7-5-0"
       inkscape:collect="always" />
    <linearGradient
       y2="2.9062471"
       x2="-51.786404"
       y1="50.786446"
       x1="-51.786404"
       gradientTransform="matrix(0.39221362,0,0,0.42702619,28.199292,-7.1596897)"
       gradientUnits="userSpaceOnUse"
       id="linearGradient3113"
       xlink:href="#linearGradient2490-3-4-6"
       inkscape:collect="always" />
  </defs>
  <sodipodi:namedview
     id="base"
     pagecolor="#ffffff"
     bordercolor="#666666"
     borderopacity="1.0"
     inkscape:pageopacity="0.0"
     inkscape:pageshadow="2"
     inkscape:zoom="22.197802"
     inkscape:cx="8"
     inkscape:cy="8"
     inkscape:current-layer="layer1"
     showgrid="true"
     inkscape:grid-bbox="true"
     inkscape:document-units="px"
     inkscape:window-width="603"
     inkscape:window-height="479"
     inkscape:window-x="0"
     inkscape:window-y="46"
     inkscape:window-maximized="0" />
  <metadata
     id="metadata3120">
    <rdf:RDF>
      <cc:Work
         rdf:about="">
        <dc:format>image/svg+xml</dc:format>
        <dc:type
           rdf:resource="http://purl.org/dc/dcmitype/StillImage" />
        <dc:title></dc:title>
      </cc:Work>
    </rdf:RDF>
  </metadata>
  <g
     id="layer1"
     inkscape:label="Layer 1"
     inkscape:groupmode="layer"
     transform="translate(0,6)">
    <path
       style="color:#000000;fill:url(#radialGradient3111);fill-opacity:1;fill-rule:nonzero;stroke:url(#linearGradient3113);stroke-width:0.9999218;stroke-linecap:butt;stroke-linejoin:round;stroke-miterlimit:4;stroke-opacity:1;stroke-dasharray:none;stroke-dashoffset:0;marker:none;visibility:visible;display:inline;overflow:visible;enable-background:accumulate"
       id="path4160"
       d="m 2.4999608,-5.5000391 c 3.8955799,0 7.6044552,0 11.5000382,0 0.683368,0.2372969 4.541325,3.12817 5.5,5.000039 0,5.7291571 3.9e-5,10.2708421 3.9e-5,16.0000001 l -17.0000772,0 c 0,-7.33336 0,-13.6666812 0,-21.0000391 l 0,0 z" />
    <path
       style="opacity:0.4;fill:none;stroke:url(#linearGradient3003);stroke-width:0.99999988;stroke-linecap:butt;stroke-linejoin:miter;stroke-miterlimit:4;stroke-opacity:1;stroke-dasharray:none;stroke-dashoffset:0;display:inline"
       id="path2435"
       d="m 18.5,-0.5318162 c 0,4.9478902 0,10.0839242 0,15.0318162 -5,0 -9.9999997,0 -15.0000009,0 0,-6.333337 0,-12.6666677 0,-19.0000002 3.4372614,0 6.9564989,0 10.3937609,0" />
    <path
       style="opacity:0.2;fill:#000000;fill-opacity:1;fill-rule:evenodd;stroke:none;display:inline"
       id="path3370"
       d="m 13.075473,-5.0000001 c 1.156303,0.3287671 0.339059,4.6143789 0.339059,4.6143789 0,0 4.515388,-0.4277362 5.60771,1.1949961 1.489153,2.2122567 -0.06822,-0.6351721 -0.173447,-0.8216972 -0.755928,-1.3400455 -3.86634,-4.547086 -5.045409,-4.9412075 -0.08823,-0.029492 -0.283876,-0.04647 -0.727913,-0.04647 z" />
    <path
       style="fill:url(#linearGradient2996);fill-opacity:1;fill-rule:evenodd;stroke:none;display:inline"
       id="path4474"
       d="m 12.999999,-5.0000001 c 1.526166,0 1,4 1,4 0,0 4.992074,-0.45326 4.992074,2 0,-0.5977419 0.05575,-1.4784338 -0.06407,-1.6559326 -0.839107,-1.2430058 -3.743765,-3.8618871 -4.798069,-4.2975971 -0.08598,-0.035532 -0.685898,-0.04647 -1.129935,-0.04647 z" />
    <path
       transform="translate(-1.0000008,-5.9995108)"
       sodipodi:type="inkscape:offset"
       inkscape:radius="1.4768426"
       inkscape:original="M 9.5 7.5 L 9.5 11.5 L 7.5 11.5 L 12 16.5 L 16.5 11.5 L 14.5 11.5 L 14.5 7.5 L 9.5 7.5 z "
       style="opacity:0.3;color:#000000;fill:url(#linearGradient2988);fill-opacity:1;fill-rule:nonzero;stroke:none;stroke-width:0.48008001;marker:none;visibility:visible;display:inline;overflow:visible;enable-background:accumulate"
       id="path4014"
       d="M 9.34375,6.03125 A 1.4769903,1.4769903 0 0 0 8.03125,7.5 l 0,2.53125 -0.53125,0 A 1.4769903,1.4769903 0 0 0 6.40625,12.5 l 4.5,5 a 1.4769903,1.4769903 0 0 0 2.1875,0 l 4.5,-5 A 1.4769903,1.4769903 0 0 0 16.5,10.03125 l -0.53125,0 0,-2.53125 A 1.4769903,1.4769903 0 0 0 14.5,6.03125 l -5,0 a 1.4769903,1.4769903 0 0 0 -0.15625,0 z" />
    <path
       id="path3288-2"
       d="m 15.499999,5.507286 -4.500001,5 -4.4999986,-5 2,0 0,-3.9999989 4.9999996,0 0,3.9999989 2,0 z"
       style="fill:#f2f2f2;fill-opacity:1;stroke:#ffffff;stroke-width:0.98542738;stroke-opacity:1;marker:none;visibility:visible;display:inline;overflow:visible"
       sodipodi:nodetypes="cccccccc" />
  </g>
</svg>
