<?xml version="1.0" encoding="UTF-8" standalone="no"?>
<svg
   id="svg3172"
   height="128"
   width="128"
   version="1.1"
   xmlns:xlink="http://www.w3.org/1999/xlink"
   xmlns="http://www.w3.org/2000/svg"
   xmlns:svg="http://www.w3.org/2000/svg"
   xmlns:rdf="http://www.w3.org/1999/02/22-rdf-syntax-ns#"
   xmlns:cc="http://creativecommons.org/ns#"
   xmlns:dc="http://purl.org/dc/elements/1.1/">
  <defs
     id="defs3174">
    <linearGradient
       id="linearGradient3600">
      <stop
         offset="0"
         style="stop-color:#f4f4f4;stop-opacity:1"
         id="stop3602" />
      <stop
         offset="1"
         style="stop-color:#dbdbdb;stop-opacity:1"
         id="stop3604" />
    </linearGradient>
    <linearGradient
       id="linearGradient3702-501-757-486">
      <stop
         offset="0"
         style="stop-color:#181818;stop-opacity:0"
         id="stop3100" />
      <stop
         offset="0.5"
         style="stop-color:#181818;stop-opacity:1"
         id="stop3102" />
      <stop
         offset="1"
         style="stop-color:#181818;stop-opacity:0"
         id="stop3104" />
    </linearGradient>
    <linearGradient
       id="linearGradient3688-464-309-255">
      <stop
         offset="0"
         style="stop-color:#181818;stop-opacity:1"
         id="stop3094" />
      <stop
         offset="1"
         style="stop-color:#181818;stop-opacity:0"
         id="stop3096" />
    </linearGradient>
    <linearGradient
       gradientTransform="matrix(2.6285655,0,0,2.5204893,0.914429,-4.3579715)"
       gradientUnits="userSpaceOnUse"
       xlink:href="#linearGradient3600"
       id="linearGradient3019-2"
       y2="47.013336"
       x2="25.132275"
       y1="0.98520643"
       x1="25.132275" />
    <linearGradient
       gradientTransform="matrix(2.4594595,0,0,3.1081081,4.9729852,-14.594554)"
       gradientUnits="userSpaceOnUse"
       xlink:href="#linearGradient3977-3"
       id="linearGradient3016-9"
       y2="42.194839"
       x2="23.99999"
       y1="5.5641499"
       x1="23.99999" />
    <linearGradient
       id="linearGradient3977-3">
      <stop
         offset="0"
         style="stop-color:#ffffff;stop-opacity:1"
         id="stop3979-6" />
      <stop
         offset="0.00648027"
         style="stop-color:#ffffff;stop-opacity:0.23529412"
         id="stop3981-0" />
      <stop
         offset="0.99423188"
         style="stop-color:#ffffff;stop-opacity:0.15686275"
         id="stop3983-6" />
      <stop
         offset="1"
         style="stop-color:#ffffff;stop-opacity:0.39215687"
         id="stop3985-2" />
    </linearGradient>
    <linearGradient
       gradientTransform="matrix(2.1456297,0,0,2.3791292,158.08983,-7.746462)"
       gradientUnits="userSpaceOnUse"
       xlink:href="#linearGradient3104-6"
       id="linearGradient3148"
       y2="2.9062471"
       x2="-51.786404"
       y1="50.786446"
       x1="-51.786404" />
    <linearGradient
       id="linearGradient3104-6">
      <stop
         offset="0"
         style="stop-color:#000000;stop-opacity:0.31782946"
         id="stop3106-3" />
      <stop
         offset="1"
         style="stop-color:#000000;stop-opacity:0.24031007"
         id="stop3108-9" />
    </linearGradient>
    <linearGradient
       gradientTransform="matrix(2.8421052,0,0,0.71428566,-4.2105336,87.430066)"
       x1="25.058096"
       y1="47.027729"
       x2="25.058096"
       y2="39.999443"
       id="linearGradient4097"
       xlink:href="#linearGradient3702-501-757-486"
       gradientUnits="userSpaceOnUse" />
    <radialGradient
       cx="4.9929786"
       cy="43.5"
       r="2.5"
       fx="4.9929786"
       fy="43.5"
       id="radialGradient4095"
       xlink:href="#linearGradient3688-464-309-255"
       gradientUnits="userSpaceOnUse"
       gradientTransform="matrix(5.6949649,0,0,0.99999992,-52.665305,-162.00149)" />
    <radialGradient
       cx="4.9929786"
       cy="43.5"
       r="2.5"
       fx="4.9929786"
       fy="43.5"
       id="radialGradient4093"
       xlink:href="#linearGradient3688-464-309-255"
       gradientUnits="userSpaceOnUse"
       gradientTransform="matrix(5.6949649,0,0,0.99999992,75.334676,75.001496)" />
  </defs>
  <metadata
     id="metadata3177">
    <rdf:RDF>
      <cc:Work
         rdf:about="">
        <dc:format>image/svg+xml</dc:format>
        <dc:type
           rdf:resource="http://purl.org/dc/dcmitype/StillImage" />
      </cc:Work>
    </rdf:RDF>
  </metadata>
  <g
     transform="matrix(0.92592591,0,0,1,4.7407489,0)"
     style="opacity:0.2;stroke-width:1.03923047"
     id="g978">
    <rect
       width="14.210526"
       height="4.9999995"
       x="103.78947"
       y="116.00149"
       id="rect2801"
       style="fill:url(#radialGradient4093);fill-opacity:1;stroke:none;stroke-width:1.48070288" />
    <rect
       width="14.210526"
       height="4.9999995"
       x="-24.210518"
       y="-121.00149"
       transform="scale(-1)"
       id="rect3696"
       style="fill:url(#radialGradient4095);fill-opacity:1;stroke:none;stroke-width:1.48070288" />
    <rect
       width="79.578949"
       height="5"
       x="24.210518"
       y="116.00149"
       id="rect3700"
       style="fill:url(#linearGradient4097);fill-opacity:1;stroke:none;stroke-width:1.48070288" />
  </g>
  <path
     style="display:inline;fill:url(#linearGradient3019-2);fill-opacity:1;stroke:none"
     id="path4160"
     d="m 18,2.0004521 c 21.081878,0 91.99989,0.00694 91.99989,0.00694 L 110,118 c 0,0 -61.333339,0 -91.999999,0 0,-38.666664 0,-77.33333 0,-115.999995 z" />
  <path
     style="fill:none;stroke:url(#linearGradient3016-9);stroke-width:1;stroke-linecap:round;stroke-linejoin:round;stroke-miterlimit:4;stroke-dasharray:none;stroke-dashoffset:0;stroke-opacity:1"
     id="rect6741-1"
     d="m 109.5,117.5 h -91 V 2.500002 h 91 z" />
  <path
     style="display:inline;fill:none;stroke:url(#linearGradient3148);stroke-width:0.99999994;stroke-linecap:butt;stroke-linejoin:round;stroke-miterlimit:4;stroke-dasharray:none;stroke-dashoffset:0;stroke-opacity:1"
     id="path4160-6-1"
     d="m 17.500001,1.49999 c 21.311001,0 92.999899,0.008 92.999899,0.008 l 1e-4,116.99202 c 0,0 -61.999997,0 -92.999999,0 0,-39.000096 0,-77.999807 0,-116.999456 z" />
  <path
     style="color:#bebebe;display:inline;overflow:visible;visibility:visible;opacity:0.2;fill:#3689e6;fill-opacity:1;fill-rule:nonzero;stroke:none;stroke-width:1;marker:none;enable-background:accumulate"
     id="path10554"
     d="m 64,28 c 0,0 -2.666668,0 -2.666668,2.548174 0,2.548172 -2.666666,2.548172 -2.666666,2.548172 0,0 -2.666666,0.0026 -2.666666,-2.548172 V 66.222626 H 72 V 30.548174 c 0,2.548172 -2.666668,2.548172 -2.666668,2.548172 0,0 -2.666666,0 -2.666666,-2.548172 C 66.666666,28 64,28 64,28 Z" />
  <path
     style="color:#bebebe;display:inline;overflow:visible;visibility:visible;opacity:0.5;fill:#3689e6;fill-opacity:1;fill-rule:nonzero;stroke:none;stroke-width:1;marker:none;enable-background:accumulate"
     id="path10536"
     d="M 58.666668,42 C 58.666668,42 56,41.9972 56,44.548172 v 17.45184 H 72 V 44.548172 C 72,42 69.333332,42 69.333332,42 c 0,0 -2.666664,0 -2.666664,2.548172 0,2.548176 -2.666668,2.548176 -2.666668,2.548176 0,0 -2.666668,0 -2.666668,-2.548176 C 61.333332,42 58.666668,42 58.666668,42 Z" />
  <path
     id="path873-5-3-3-7-5"
     style="font-variation-settings:normal;vector-effect:none;fill:#3689e6;fill-opacity:1;stroke:none;stroke-width:1;stroke-linecap:butt;stroke-linejoin:miter;stroke-miterlimit:4;stroke-dasharray:none;stroke-dashoffset:0;stroke-opacity:1;-inkscape-stroke:none;marker:none;stop-color:#000000"
     d="m 64,52 c 0,0 -2.714844,7.4e-5 -2.714844,2.59375 0,2.593676 -2.714844,2.589844 -2.714844,2.589844 0,0 -2.014704,-0.0032 -2.570312,-1.66797 V 64 H 54 42 c -1.846696,0 -3,1.485336 -3,3.332032 0,0.995294 0.433778,1.886332 1.121094,2.496092 l 21.59375,23.26172 C 62.311836,93.65346 63.114186,94 64,94 c 0.88581,0 1.688164,-0.346542 2.285156,-0.910156 l 21.59375,-23.26172 C 88.566218,69.218366 89,68.327326 89,67.332032 89,65.485336 88.291558,64.447876 86.5,64 H 74 72 v -8.480468 c -0.555948,1.66273 -2.570312,1.664062 -2.570312,1.664062 0,0 -2.714844,-7.6e-5 -2.714844,-2.59375 C 66.714844,51.996214 64,52 64,52 Z" />
</svg>
