<?xml version="1.0" encoding="UTF-8" standalone="no"?>
<svg
   version="1.1"
   width="128"
   height="128"
   id="svg4134"
   sodipodi:docname="application-x-fictionbook+xml.svg"
   inkscape:version="1.1.1 (3bf5ae0d25, 2021-09-20)"
   xmlns:inkscape="http://www.inkscape.org/namespaces/inkscape"
   xmlns:sodipodi="http://sodipodi.sourceforge.net/DTD/sodipodi-0.dtd"
   xmlns:xlink="http://www.w3.org/1999/xlink"
   xmlns="http://www.w3.org/2000/svg"
   xmlns:svg="http://www.w3.org/2000/svg"
   xmlns:rdf="http://www.w3.org/1999/02/22-rdf-syntax-ns#"
   xmlns:cc="http://creativecommons.org/ns#"
   xmlns:dc="http://purl.org/dc/elements/1.1/">
  <sodipodi:namedview
     id="namedview71"
     pagecolor="#ffffff"
     bordercolor="#666666"
     borderopacity="1.0"
     inkscape:pageshadow="2"
     inkscape:pageopacity="0.0"
     inkscape:pagecheckerboard="0"
     showgrid="false"
     inkscape:zoom="1.8837767"
     inkscape:cx="37.159394"
     inkscape:cy="18.048848"
     inkscape:window-width="1396"
     inkscape:window-height="859"
     inkscape:window-x="522"
     inkscape:window-y="93"
     inkscape:window-maximized="0"
     inkscape:current-layer="svg4134" />
  <defs
     id="defs4136">
    <linearGradient
       id="linearGradient14502">
      <stop
         id="stop14498"
         style="stop-color:#85612b;stop-opacity:1"
         offset="0" />
      <stop
         id="stop14500"
         style="stop-color:#784700;stop-opacity:1"
         offset="1" />
    </linearGradient>
    <linearGradient
       id="linearGradient4089">
      <stop
         id="stop4085"
         style="stop-color:#fab552;stop-opacity:1"
         offset="0" />
      <stop
         id="stop4087"
         style="stop-color:#d98611;stop-opacity:1"
         offset="1" />
    </linearGradient>
    <radialGradient
       cx="64.388718"
       cy="114.8309"
       r="52.5"
       fx="64.388718"
       fy="114.8309"
       id="radialGradient3231"
       xlink:href="#linearGradient3287"
       gradientUnits="userSpaceOnUse"
       gradientTransform="matrix(1.3333434,0,0,0.08199654,-20.35227,-3.924137)" />
    <linearGradient
       id="linearGradient3287">
      <stop
         id="stop3289"
         style="stop-color:#000000;stop-opacity:1"
         offset="0" />
      <stop
         id="stop3291"
         style="stop-color:#000000;stop-opacity:0"
         offset="1" />
    </linearGradient>
    <linearGradient
       x1="23.99999"
       y1="4.999989"
       x2="23.99999"
       y2="43"
       id="linearGradient3142"
       xlink:href="#linearGradient3731"
       gradientUnits="userSpaceOnUse"
       gradientTransform="matrix(2.4594594,0,0,2.8918915,4.9729783,-5.405372)" />
    <linearGradient
       id="linearGradient3731">
      <stop
         id="stop3733"
         style="stop-color:#ffffff;stop-opacity:1"
         offset="0" />
      <stop
         id="stop3735"
         style="stop-color:#ffffff;stop-opacity:0.23529412"
         offset="0.02706478" />
      <stop
         id="stop3737"
         style="stop-color:#ffffff;stop-opacity:0.15686275"
         offset="0.97377032" />
      <stop
         id="stop3739"
         style="stop-color:#ffffff;stop-opacity:0.39215687"
         offset="1" />
    </linearGradient>
    <radialGradient
       cx="7.4956832"
       cy="8.4497671"
       r="19.99999"
       fx="7.4956832"
       fy="8.4497671"
       id="radialGradient3145"
       xlink:href="#linearGradient2867-449-88-871-390-598-476-591-434-148-57-177-641-289-620-227-114-444-680-744-8"
       gradientUnits="userSpaceOnUse"
       gradientTransform="matrix(5.0514012e-8,6.5315873,-6.427867,-1.2033678e-7,122.51425,-37.8306)" />
    <linearGradient
       id="linearGradient2867-449-88-871-390-598-476-591-434-148-57-177-641-289-620-227-114-444-680-744-8">
      <stop
         id="stop5430-8"
         style="stop-color:#5f5f5f;stop-opacity:1"
         offset="0" />
      <stop
         id="stop5432-3"
         style="stop-color:#4f4f4f;stop-opacity:1"
         offset="0.26238" />
      <stop
         id="stop5434-1"
         style="stop-color:#3b3b3b;stop-opacity:1"
         offset="0.704952" />
      <stop
         id="stop5436-8"
         style="stop-color:#2b2b2b;stop-opacity:1"
         offset="1" />
    </linearGradient>
    <linearGradient
       x1="24"
       y1="44"
       x2="24"
       y2="3.8990016"
       id="linearGradient3147"
       xlink:href="#linearGradient3707-319-631-407-324-616-674-812-821-107-178-392-400-6"
       gradientUnits="userSpaceOnUse"
       gradientTransform="matrix(2.5999999,0,0,2.7948717,5.8000043,-3.076929)" />
    <linearGradient
       id="linearGradient3707-319-631-407-324-616-674-812-821-107-178-392-400-6">
      <stop
         id="stop5440-4"
         style="stop-color:#272727;stop-opacity:1"
         offset="0" />
      <stop
         id="stop5442-3"
         style="stop-color:#454545;stop-opacity:1"
         offset="1" />
    </linearGradient>
    <linearGradient
       x1="10.654308"
       y1="1"
       x2="10.654308"
       y2="3"
       id="linearGradient3156"
       xlink:href="#linearGradient2346"
       gradientUnits="userSpaceOnUse"
       gradientTransform="matrix(2.6000003,0,0,2.7500175,0.5993211,0.124924)" />
    <linearGradient
       id="linearGradient2346">
      <stop
         id="stop2348"
         style="stop-color:#f5f5f5;stop-opacity:1"
         offset="0" />
      <stop
         id="stop2350"
         style="stop-color:#e1e1e1;stop-opacity:1"
         offset="1" />
    </linearGradient>
    <linearGradient
       x1="24"
       y1="44"
       x2="24"
       y2="3.8990016"
       id="linearGradient3158"
       xlink:href="#linearGradient3707-319-631-407-324-616-674-812-821-107-178-392-400-6-2"
       gradientUnits="userSpaceOnUse"
       gradientTransform="matrix(2.6000003,0,0,0.28205131,5.8000003,0.230768)" />
    <linearGradient
       id="linearGradient3707-319-631-407-324-616-674-812-821-107-178-392-400-6-2">
      <stop
         id="stop5440-4-8"
         style="stop-color:#272727;stop-opacity:1"
         offset="0" />
      <stop
         id="stop5442-3-8"
         style="stop-color:#454545;stop-opacity:1"
         offset="1" />
    </linearGradient>
    <linearGradient
       x1="24.62738"
       y1="3.1234391"
       x2="24.640038"
       y2="4.882647"
       id="linearGradient4333"
       xlink:href="#linearGradient2346"
       gradientUnits="userSpaceOnUse"
       gradientTransform="matrix(2.6646671,0,0,4.0925893,4.3539233,-10.571687)" />
    <linearGradient
       x1="5.2122574"
       y1="0.065301567"
       x2="54.887218"
       y2="0.065301567"
       id="linearGradient4335"
       xlink:href="#linearGradient3319-4"
       gradientUnits="userSpaceOnUse"
       gradientTransform="matrix(1.9009526,0,0,1.9880919,6.8243933,0.040828)" />
    <radialGradient
       cx="4.9929786"
       cy="43.5"
       r="2.5"
       fx="4.9929786"
       fy="43.5"
       id="radialGradient2455"
       xlink:href="#linearGradient3688-166-749"
       gradientUnits="userSpaceOnUse"
       gradientTransform="matrix(2.003784,0,0,1.4,27.98813,-17.4)" />
    <linearGradient
       id="linearGradient3688-166-749">
      <stop
         id="stop2883"
         style="stop-color:#181818;stop-opacity:1"
         offset="0" />
      <stop
         id="stop2885"
         style="stop-color:#181818;stop-opacity:0"
         offset="1" />
    </linearGradient>
    <radialGradient
       cx="4.9929786"
       cy="43.5"
       r="2.5"
       fx="4.9929786"
       fy="43.5"
       id="radialGradient2457"
       xlink:href="#linearGradient3688-464-309"
       gradientUnits="userSpaceOnUse"
       gradientTransform="matrix(2.003784,0,0,1.4,-20.01187,-104.4)" />
    <linearGradient
       id="linearGradient3688-464-309">
      <stop
         id="stop2889"
         style="stop-color:#181818;stop-opacity:1"
         offset="0" />
      <stop
         id="stop2891"
         style="stop-color:#181818;stop-opacity:0"
         offset="1" />
    </linearGradient>
    <linearGradient
       x1="25.058096"
       y1="47.027729"
       x2="25.058096"
       y2="39.999443"
       id="linearGradient2459"
       xlink:href="#linearGradient3702-501-757"
       gradientUnits="userSpaceOnUse" />
    <linearGradient
       id="linearGradient3702-501-757">
      <stop
         id="stop2895"
         style="stop-color:#181818;stop-opacity:0"
         offset="0" />
      <stop
         id="stop2897"
         style="stop-color:#181818;stop-opacity:1"
         offset="0.5" />
      <stop
         id="stop2899"
         style="stop-color:#181818;stop-opacity:0"
         offset="1" />
    </linearGradient>
    <linearGradient
       y2="92.240685"
       x2="112.42694"
       y1="-17.604584"
       x1="112.42694"
       gradientTransform="translate(-47.770775,26.673377)"
       gradientUnits="userSpaceOnUse"
       id="linearGradient4318"
       xlink:href="#linearGradient4089" />
    <linearGradient
       id="linearGradient3319-4">
      <stop
         id="stop3321-9"
         style="stop-color:#bf8a3e;stop-opacity:1"
         offset="0" />
      <stop
         id="stop3323-0"
         style="stop-color:#784700;stop-opacity:1"
         offset="1" />
    </linearGradient>
    <linearGradient
       inkscape:collect="always"
       xlink:href="#linearGradient14502"
       id="linearGradient1142"
       x1="103.05263"
       y1="10.82559"
       x2="103.05263"
       y2="117.86845"
       gradientUnits="userSpaceOnUse" />
  </defs>
  <metadata
     id="metadata4139">
    <rdf:RDF>
      <cc:Work
         rdf:about="">
        <dc:format>image/svg+xml</dc:format>
        <dc:type
           rdf:resource="http://purl.org/dc/dcmitype/StillImage" />
      </cc:Work>
    </rdf:RDF>
  </metadata>
  <g
     style="display:inline"
     id="g2036"
     transform="matrix(2.6499989,0,0,1.4444458,0.4000001,55.111094)">
    <g
       style="opacity:0.4"
       id="g3712"
       transform="matrix(1.052632,0,0,1.285713,-1.263158,-13.42854)">
      <rect
         style="fill:url(#radialGradient2455);fill-opacity:1;stroke:none"
         id="rect2801"
         y="40"
         x="38"
         height="7"
         width="5" />
      <rect
         style="fill:url(#radialGradient2457);fill-opacity:1;stroke:none"
         id="rect3696"
         transform="scale(-1,-1)"
         y="-47"
         x="-10"
         height="7"
         width="5" />
      <rect
         style="fill:url(#linearGradient2459);fill-opacity:1;stroke:none"
         id="rect3700"
         y="40"
         x="10"
         height="7.0000005"
         width="28" />
    </g>
  </g>
  <path
     style="display:inline;fill:url(#linearGradient4333);fill-opacity:1;stroke:url(#linearGradient4335);stroke-width:1.01739764;stroke-linecap:butt;stroke-linejoin:round;stroke-miterlimit:0;stroke-dasharray:none;stroke-dashoffset:0;stroke-opacity:1"
     id="path2723"
     d="M 109.4913,10.364818 C 108.70732,7.727317 109.19596,4.02414 108.76296,1.508699 l -80.254261,0 0.473668,7.982602" />
  <path
     style="color:#000000;display:inline;overflow:visible;visibility:visible;fill:url(#linearGradient3156);fill-opacity:1;fill-rule:nonzero;stroke:url(#linearGradient3158);stroke-width:0.99999994;stroke-linecap:round;stroke-linejoin:round;stroke-miterlimit:4;stroke-dasharray:none;stroke-dashoffset:0;stroke-opacity:1;marker:none;enable-background:accumulate"
     id="rect5505-21-3-9"
     d="m 30.5,12.5 -10.4,0 c -1.484206,0 -2.6,-0.116416 -2.6,-0.268291 l 0,-8.145539 C 17.5,2.150302 18.144001,1.5 20.046842,1.5 L 30.5,1.5" />
  <rect
     width="91.302383"
     height="108.98096"
     rx="2"
     ry="2"
     x="19.188095"
     y="9.4937019"
     id="rect2719-1"
     style="display:inline;fill:url(#linearGradient4318);fill-opacity:1;stroke:url(#linearGradient1142);stroke-width:1.01904094;stroke-linecap:round;stroke-linejoin:round;stroke-miterlimit:0;stroke-dasharray:none;stroke-dashoffset:0;stroke-opacity:0.49803922;color:#000000;clip-rule:nonzero;overflow:visible;visibility:visible;opacity:1;isolation:auto;mix-blend-mode:normal;color-interpolation:sRGB;color-interpolation-filters:linearRGB;solid-color:#000000;solid-opacity:1;fill-rule:nonzero;filter-blend-mode:normal;filter-gaussianBlur-deviation:0;color-rendering:auto;image-rendering:auto;shape-rendering:auto;text-rendering:auto;enable-background:accumulate" />
  <path
     style="opacity:0.05;fill:#206b00;fill-opacity:1;stroke:none;stroke-width:1"
     id="path1095"
     d="m 58.15716,28.905794 c -2.91976,10e-5 -4.676392,0.10732 -5.744128,0.382942 -2.182696,0.563442 -3.570054,1.864154 -4.177548,3.933856 -0.1702,0.579826 -0.1881,1.358528 -0.24369,5.465624 l -0.06962,4.24168 -1.531768,0.03482 -1.04563,0.06962 v 3.794608 c -0.02084,2.672574 -0.0182,3.863006 0.06962,3.968668 0.08968,0.10808 0.05954,0.15154 1.080444,0.17406 l 1.42733,0.03482 0.03482,26.184787 c 0.0154,14.0825 0.0401,25.648701 0.06962,25.726731 0.04222,0.11176 1.096512,0.16234 4.978246,0.13926 l 4.908616,-0.0348 0.06962,-25.726721 0.06962,-26.289235 1.427326,-0.03482 c 1.020894,-0.02254 0.867544,-0.06598 0.957244,-0.17406 0.08766,-0.10566 0.12522,-1.296094 0.10438,-3.968668 l -0.03476,-3.794608 -0.957246,-0.06962 -1.496952,-0.03482 -0.03476,-1.49146 c -0.03342,-2.061976 0.08578,-3.185234 0.38294,-3.759792 0.237586,-0.459434 0.75119,-0.689588 1.775458,-0.765886 l 0.330612,-0.06962 0.03476,-3.829418 c 0.02116,-2.72044 -0.013,-3.858772 -0.10438,-3.96867 -0.10172,-0.12258 -0.11936,-0.13934 -2.280132,-0.13926 z" />
  <path
     style="color:#000000;display:inline;overflow:visible;visibility:visible;fill:url(#radialGradient3145);fill-opacity:1;fill-rule:nonzero;stroke:url(#linearGradient3147);stroke-width:1;stroke-linecap:round;stroke-linejoin:round;stroke-miterlimit:4;stroke-dasharray:none;stroke-dashoffset:0;stroke-opacity:1;marker:none;enable-background:accumulate"
     id="rect5505-21-3"
     d="m 30.5,9.499994 c 0,0 0,75.792524 0,108.999996 l -10.728851,0 c -1.484205,0 -2.271149,-0.87542 -2.271149,-2.38027 l 0,-106.619726 z" />
  <rect
     style="opacity:0.5;fill:none;stroke:url(#linearGradient3142);stroke-width:1;stroke-linecap:round;stroke-linejoin:round;stroke-miterlimit:4;stroke-dasharray:none;stroke-dashoffset:0;stroke-opacity:1"
     id="rect6741-0"
     y="10.5"
     x="18.5"
     ry="1"
     rx="1"
     height="107"
     width="91" />
  <path
     style="opacity:0.05;fill:#206b00;fill-opacity:1;stroke:none;stroke-width:1"
     id="path1097"
     d="m 70.761832,28.875 c -3.951042,0 -4.493156,0.03244 -4.64279,0.1875 -0.15444,0.16004 -0.11838,2.658194 -0.11838,35.937642 0,28.450747 -0.0427,37.832868 0.0581,37.937358 0.18736,0.19422 9.339406,0.19422 9.526764,0 0.08822,-0.0915 0.1206,-0.61082 0.1206,-1.625 0,-1.18162 0.0652,-1.500003 0.18088,-1.500003 0.08062,0 0.404754,0.307573 0.72355,0.687503 1.204534,1.43551 2.886416,2.61953 4.461902,3.0625 0.932574,0.26222 2.991166,0.22812 4.03983,-0.0625 2.35991,-0.65404 4.07953,-2.29277 4.707494,-4.687501 0.18068,-0.68899 0.18088,-2.18012 0.18088,-25.499999 0,-23.319884 -2.14e-4,-24.811002 -0.18088,-25.5 C 89.163914,45.31137 87.187028,43.543924 84.6902,43 c -1.107356,-0.24123 -3.250982,-0.12712 -4.100126,0.1875 -1.502704,0.556766 -2.907024,1.592928 -4.03983,3 C 76.174596,46.6541 75.87281,47 75.826694,47 c -0.04612,0 -0.1206,-3.95604 -0.1206,-8.875 0,-8.727048 0.0239,-9.011312 -0.18088,-9.125 -0.13508,-0.07494 -1.865348,-0.125 -4.763374,-0.125 z m 9.238822,25 c 0,1.147278 0.306948,37.575789 0.16734,38.687499 -0.05728,0.45733 -0.219328,1.11498 -0.361774,1.4375 -0.219706,0.49746 -0.354024,0.68433 -0.844144,0.9375 -0.5852,0.30228 -1.187026,0.3014 -1.748584,0.125 -0.53084,-0.16676 -0.844852,-0.42766 -1.145624,-1.0625 l -0.301478,-0.625 V 73.5625 c -0.0202,-13.57914 0.0603,-19.29259 0.0603,-19.6875 0,-3.699156 4.173964,-3.812358 4.173964,0 z" />
  <path
     style="opacity:0.1;fill:none;stroke:url(#radialGradient3231);stroke-width:0.99999994px;stroke-linecap:butt;stroke-linejoin:miter;stroke-opacity:1"
     id="path3262"
     d="m 18,3.500003 91.44276,0 m -91.44276,2 91.4946,0 m -91.4946,2 91.4298,0" />
  <path
     style="opacity:0.15;fill:#206b00;fill-opacity:1;stroke:none;stroke-width:1"
     id="path4111-9"
     d="m 58.15716,27.905654 c -2.91976,1e-4 -4.676392,0.10732 -5.744128,0.382942 -2.182696,0.563442 -3.570054,1.864154 -4.177548,3.933856 -0.1702,0.579826 -0.1881,1.358528 -0.24369,5.465624 l -0.06962,4.24168 -1.531768,0.03482 -1.04563,0.06962 v 3.794608 c -0.02084,2.672574 -0.0182,3.863006 0.06962,3.968668 0.08968,0.10808 0.05954,0.15154 1.080444,0.17406 l 1.42733,0.03482 0.03482,26.184787 c 0.0154,14.0825 0.0401,25.648701 0.06962,25.726731 0.04222,0.11176 1.096512,0.16234 4.978246,0.13926 l 4.908616,-0.0348 0.06962,-25.726721 0.06962,-26.289235 1.427326,-0.03482 c 1.020894,-0.02254 0.867544,-0.06598 0.957244,-0.17406 0.08766,-0.10566 0.12522,-1.296094 0.10438,-3.968668 l -0.03476,-3.794608 -0.957246,-0.06962 -1.496952,-0.03482 -0.03476,-1.49146 c -0.03342,-2.061976 0.08578,-3.185234 0.38294,-3.759792 0.237586,-0.459434 0.75119,-0.689588 1.775458,-0.765886 l 0.330612,-0.06962 0.03476,-3.829418 c 0.02116,-2.72044 -0.013,-3.858772 -0.10438,-3.96867 -0.10172,-0.12258 -0.11936,-0.13934 -2.280132,-0.13926 z" />
  <path
     style="fill:#ffffff;fill-opacity:1;stroke:none;stroke-width:1"
     id="path4111"
     d="m 58.000614,26 c -2.91976,10e-5 -4.519846,0.0132 -5.587582,0.288738 -2.182696,0.563442 -3.570054,1.864154 -4.177548,3.933856 -0.1702,0.579826 -0.1881,1.358528 -0.24369,5.465624 l -0.06962,4.24168 -1.531768,0.03482 -1.04563,0.06962 v 3.794608 c -0.02084,2.672574 -0.0182,3.863006 0.06962,3.968668 0.08968,0.10808 0.05954,0.15154 1.080444,0.17406 l 1.42733,0.03482 0.03482,26.18479 c 0.0154,14.082495 0.0401,25.648693 0.06962,25.726723 0.04222,0.111763 1.096512,0.162343 4.978246,0.139263 l 4.908616,-0.0348 0.06962,-25.726724 0.06962,-26.28923 1.427326,-0.03482 c 1.020894,-0.02254 0.867544,-0.06598 0.957244,-0.17406 0.08766,-0.10566 0.12522,-1.296094 0.10438,-3.968668 l -0.03476,-3.794608 -0.957246,-0.06962 -1.496952,-0.03482 -0.03476,-1.49146 c -0.03342,-2.061976 0.08578,-3.185234 0.38294,-3.759792 0.237586,-0.459434 0.75119,-0.689588 1.775458,-0.765886 l 0.35405,0.0086 0.0114,-3.907544 c 0.02116,-2.72044 -0.0184,-4.007734 -0.0184,-4.007734 0,0 -0.361842,-0.006 -2.522616,-0.006 z" />
  <path
     style="opacity:0.15;fill:#206b00;fill-opacity:1;stroke:none;stroke-width:1"
     id="path4109-5"
     d="m 70.761832,27.87486 c -3.951042,0 -4.493156,0.03244 -4.64279,0.1875 -0.15444,0.16004 -0.11838,2.658194 -0.11838,35.937642 0,28.450747 -0.0427,37.832868 0.0581,37.937358 0.18736,0.19422 9.339406,0.19422 9.526764,0 0.08822,-0.0915 0.1206,-0.61082 0.1206,-1.625 0,-1.181623 0.0652,-1.500003 0.18088,-1.500003 0.08062,0 0.404754,0.30757 0.72355,0.6875 1.204534,1.435513 2.886416,2.619533 4.461902,3.062503 0.932574,0.26222 2.991166,0.22812 4.03983,-0.0625 2.35991,-0.65404 4.07953,-2.29277 4.707494,-4.687501 0.18068,-0.68899 0.18088,-2.18012 0.18088,-25.499999 0,-23.319884 -2.14e-4,-24.811002 -0.18088,-25.5 -0.655868,-2.50113 -2.632754,-4.268576 -5.129582,-4.8125 -1.107356,-0.24123 -3.250982,-0.12712 -4.100126,0.1875 -1.502704,0.556766 -2.907024,1.592928 -4.03983,3 -0.375648,0.4666 -0.677434,0.8125 -0.72355,0.8125 -0.04612,0 -0.1206,-3.95604 -0.1206,-8.875 0,-8.727048 0.0239,-9.011312 -0.18088,-9.125 -0.13508,-0.07494 -1.865348,-0.125 -4.763374,-0.125 z m 9.238822,25 c 0,1.147278 0.306948,37.575789 0.16734,38.687499 -0.05728,0.45733 -0.219328,1.11498 -0.361774,1.4375 -0.219706,0.49746 -0.354024,0.68433 -0.844144,0.9375 -0.5852,0.30228 -1.187026,0.3014 -1.748584,0.125 -0.53084,-0.16676 -0.844852,-0.42766 -1.145624,-1.0625 l -0.301478,-0.625 V 72.56236 c -0.0202,-13.57914 0.0603,-19.29259 0.0603,-19.6875 0,-3.699156 4.173964,-3.812358 4.173964,0 z" />
  <path
     style="fill:#ffffff;fill-opacity:1;stroke:none;stroke-width:1"
     id="path4109"
     d="m 66.000654,26.000002 c 0,0 0,4.720552 0,38 0,28.450747 -0.0427,35.833005 0.0581,35.937495 0.18736,0.194223 9.339406,0.194223 9.526764,0 0.08822,-0.0915 0.1206,-0.61082 0.1206,-1.624998 0,-1.18162 0.0652,-1.5 0.18088,-1.5 0.08062,0 0.404754,0.30757 0.72355,0.6875 1.204534,1.435508 2.886416,2.619531 4.461902,3.062501 0.932574,0.26222 2.991166,0.22813 4.03983,-0.0625 2.35991,-0.654043 4.07953,-2.292771 4.707494,-4.687501 0.18068,-0.68899 0.18088,-2.18011 0.18088,-25.499997 0,-23.319884 -2.14e-4,-24.811002 -0.18088,-25.5 -0.65586,-2.50113 -2.632746,-4.268576 -5.129574,-4.8125 -1.107356,-0.24123 -3.250982,-0.12712 -4.100126,0.1875 -1.502704,0.556766 -2.907024,1.124178 -4.03983,2.53125 -0.375648,0.4666 -0.67019,0.375 -0.54959,1.28125 0.006,0.04572 0,-3.95604 0,-8.875 0,-8.727048 0.0066,-9.125 0.0066,-9.125 z m 14,24.875 c -0.0074,1.059806 0.1396,37.575797 0,38.687497 -0.05728,0.45734 -0.05198,1.11498 -0.19442,1.4375 -0.219706,0.49746 -0.354024,0.68434 -0.844144,0.9375 -0.5852,0.30228 -1.187026,0.30141 -1.748584,0.125 -0.530846,-0.16676 -0.844858,-0.42766 -1.14563,-1.0625 l -0.301478,-0.625 V 70.562502 c -0.0202,-13.57914 0.05896,-19.933766 0.0603,-20.3125 0.0104,-2.946038 4.2006,-3.194592 4.173956,0.625 z" />
</svg>
