<?xml version="1.0" encoding="UTF-8" standalone="no"?>
<!-- Created with Inkscape (http://www.inkscape.org/) -->

<svg
   xmlns:dc="http://purl.org/dc/elements/1.1/"
   xmlns:cc="http://creativecommons.org/ns#"
   xmlns:rdf="http://www.w3.org/1999/02/22-rdf-syntax-ns#"
   xmlns:svg="http://www.w3.org/2000/svg"
   xmlns="http://www.w3.org/2000/svg"
   xmlns:xlink="http://www.w3.org/1999/xlink"
   xmlns:sodipodi="http://sodipodi.sourceforge.net/DTD/sodipodi-0.dtd"
   xmlns:inkscape="http://www.inkscape.org/namespaces/inkscape"
   width="128"
   height="128"
   id="svg3981"
   version="1.1"
   inkscape:version="0.48.2 r9819"
   sodipodi:docname="drawing.svg">
  <defs
     id="defs3983">
    <linearGradient
       inkscape:collect="always"
       xlink:href="#linearGradient4041"
       id="linearGradient4047"
       x1="70"
       y1="19"
       x2="70"
       y2="44"
       gradientUnits="userSpaceOnUse"
       gradientTransform="translate(0,-6.000001)" />
    <linearGradient
       inkscape:collect="always"
       id="linearGradient4041">
      <stop
         style="stop-color:#000000;stop-opacity:1;"
         offset="0"
         id="stop4043-8" />
      <stop
         style="stop-color:#000000;stop-opacity:0;"
         offset="1"
         id="stop4045" />
    </linearGradient>
    <linearGradient
       inkscape:collect="always"
       xlink:href="#linearGradient3977"
       id="linearGradient3093"
       gradientUnits="userSpaceOnUse"
       gradientTransform="matrix(2.4594595,0,0,3.1081081,4.9729852,-78.59456)"
       x1="23.99999"
       y1="5.5641499"
       x2="23.99999"
       y2="42.586357" />
    <linearGradient
       id="linearGradient3977">
      <stop
         id="stop3979"
         style="stop-color:#ffffff;stop-opacity:1;"
         offset="0" />
      <stop
         offset="0.00974362"
         style="stop-color:#ffffff;stop-opacity:0.23529412;"
         id="stop3981" />
      <stop
         id="stop3983"
         style="stop-color:#ffffff;stop-opacity:0.15686275;"
         offset="0.98164976" />
      <stop
         id="stop3985"
         style="stop-color:#ffffff;stop-opacity:0.39215687;"
         offset="1" />
    </linearGradient>
    <radialGradient
       inkscape:collect="always"
       xlink:href="#linearGradient2867-449-88-871-390-598-476-591-434-148-57-177-8-3-3"
       id="radialGradient3914"
       gradientUnits="userSpaceOnUse"
       gradientTransform="matrix(-4.2958754e-7,17.552708,-21.502112,-5.2688504e-7,278.07032,-223.53343)"
       cx="7.8060555"
       cy="9.9571075"
       fx="7.2758255"
       fy="9.9571075"
       r="12.671875" />
    <linearGradient
       id="linearGradient2867-449-88-871-390-598-476-591-434-148-57-177-8-3-3">
      <stop
         offset="0"
         style="stop-color:#ffcd7d;stop-opacity:1"
         id="stop3750-1-0-7" />
      <stop
         offset="0.26238"
         style="stop-color:#fc8f36;stop-opacity:1"
         id="stop3752-3-7-4" />
      <stop
         offset="0.704952"
         style="stop-color:#e23a0e;stop-opacity:1"
         id="stop3754-1-8-5" />
      <stop
         offset="1"
         style="stop-color:#ac441f;stop-opacity:1"
         id="stop3756-1-6-2" />
    </linearGradient>
    <linearGradient
       inkscape:collect="always"
       xlink:href="#linearGradient4039"
       id="linearGradient3916"
       gradientUnits="userSpaceOnUse"
       gradientTransform="matrix(2.6571366,0,0,2.6587499,0.228715,-63.815793)"
       x1="25"
       y1="47.935162"
       x2="25"
       y2="0.91790956" />
    <linearGradient
       id="linearGradient4039">
      <stop
         offset="0"
         style="stop-color:#ba3d12;stop-opacity:1"
         id="stop4041" />
      <stop
         offset="1"
         style="stop-color:#db6737;stop-opacity:1"
         id="stop4043" />
    </linearGradient>
    <linearGradient
       inkscape:collect="always"
       xlink:href="#linearGradient3702-501-757-486"
       id="linearGradient3120"
       gradientUnits="userSpaceOnUse"
       x1="25.058096"
       y1="47.027729"
       x2="25.058096"
       y2="39.999443"
       gradientTransform="matrix(3.1428572,0,0,1.2857143,-11.428573,-2.428573)" />
    <linearGradient
       id="linearGradient3702-501-757-486">
      <stop
         offset="0"
         style="stop-color:#181818;stop-opacity:0"
         id="stop3100" />
      <stop
         offset="0.5"
         style="stop-color:#181818;stop-opacity:1"
         id="stop3102" />
      <stop
         offset="1"
         style="stop-color:#181818;stop-opacity:0"
         id="stop3104" />
    </linearGradient>
    <radialGradient
       inkscape:collect="always"
       xlink:href="#linearGradient3688-464-309-255"
       id="radialGradient3123"
       gradientUnits="userSpaceOnUse"
       gradientTransform="matrix(2.4045407,0,0,1.7999999,-32.014243,-131.8)"
       cx="4.9929786"
       cy="43.5"
       fx="4.9929786"
       fy="43.5"
       r="2.5" />
    <linearGradient
       id="linearGradient3688-464-309-255">
      <stop
         offset="0"
         style="stop-color:#181818;stop-opacity:1"
         id="stop3094" />
      <stop
         offset="1"
         style="stop-color:#181818;stop-opacity:0"
         id="stop3096" />
    </linearGradient>
    <linearGradient
       id="linearGradient3688-166-749-737">
      <stop
         offset="0"
         style="stop-color:#181818;stop-opacity:1"
         id="stop3088" />
      <stop
         offset="1"
         style="stop-color:#181818;stop-opacity:0"
         id="stop3090" />
    </linearGradient>
    <radialGradient
       r="2.5"
       fy="43.5"
       fx="4.9929786"
       cy="43.5"
       cx="4.9929786"
       gradientTransform="matrix(2.4045407,0,0,1.7999999,95.985757,-24.8)"
       gradientUnits="userSpaceOnUse"
       id="radialGradient3979"
       xlink:href="#linearGradient3688-166-749-737"
       inkscape:collect="always" />
  </defs>
  <sodipodi:namedview
     id="base"
     pagecolor="#ffffff"
     bordercolor="#666666"
     borderopacity="1.0"
     inkscape:pageopacity="0.0"
     inkscape:pageshadow="2"
     inkscape:zoom="5.5"
     inkscape:cx="32"
     inkscape:cy="32"
     inkscape:current-layer="layer1"
     showgrid="true"
     inkscape:document-units="px"
     inkscape:grid-bbox="true"
     inkscape:window-width="1280"
     inkscape:window-height="751"
     inkscape:window-x="0"
     inkscape:window-y="26"
     inkscape:window-maximized="1" />
  <metadata
     id="metadata3986">
    <rdf:RDF>
      <cc:Work
         rdf:about="">
        <dc:format>image/svg+xml</dc:format>
        <dc:type
           rdf:resource="http://purl.org/dc/dcmitype/StillImage" />
        <dc:title></dc:title>
      </cc:Work>
    </rdf:RDF>
  </metadata>
  <g
     id="layer1"
     inkscape:label="Layer 1"
     inkscape:groupmode="layer"
     transform="translate(0,64)">
    <rect
       style="opacity:0.4;fill:url(#radialGradient3979);fill-opacity:1;stroke:none"
       id="rect2801"
       y="49"
       x="108"
       height="8.999999"
       width="6" />
    <rect
       style="opacity:0.4;fill:url(#radialGradient3123);fill-opacity:1;stroke:none"
       id="rect3696"
       transform="scale(-1,-1)"
       y="-58"
       x="-20"
       height="8.999999"
       width="6" />
    <rect
       style="opacity:0.4;fill:url(#linearGradient3120);fill-opacity:1;stroke:none"
       id="rect3700"
       y="49"
       x="20"
       height="9"
       width="88" />
    <path
       inkscape:connector-curvature="0"
       d="m 17.500001,-62.492564 c 21.31102,0 92.999889,0 92.999889,0 L 110.5,54.5 c 0,0 -61.999998,0 -92.999999,0 0,-39.000027 0,-78.000053 0,-117 z"
       id="path4160-4"
       style="color:#000000;fill:url(#radialGradient3914);fill-opacity:1;fill-rule:nonzero;stroke:url(#linearGradient3916);stroke-width:1;stroke-linecap:butt;stroke-linejoin:round;stroke-miterlimit:4;stroke-opacity:1;stroke-dasharray:none;stroke-dashoffset:0;marker:none;visibility:visible;display:inline;overflow:visible;enable-background:accumulate" />
    <path
       style="opacity:0.5;fill:none;stroke:url(#linearGradient3093);stroke-width:1;stroke-linecap:round;stroke-linejoin:round;stroke-miterlimit:4;stroke-opacity:1;stroke-dasharray:none;stroke-dashoffset:0"
       d="m 109.5,53.5 -91,0 0,-115.000004 91,0 z"
       id="rect6741-1"
       inkscape:connector-curvature="0"
       sodipodi:nodetypes="ccccc" />
    <path
       style="opacity:0.4;fill:#ffffff;fill-opacity:1;stroke:none"
       d="m 67.46875,-42.625318 c -3.07349,-0.242634 -2.375401,3.284773 -2.438582,5.322868 -0.02931,17.57529 0.01826,35.160623 -0.05906,52.729643 -1.245273,0.945953 -2.838741,0.101959 -4.545133,0.103108 -7.7338,0.404722 -15.594301,6.379596 -16.022366,14.492512 -0.394788,6.71178 7.007909,11.823967 13.278224,10.376527 7.660668,-1.22581 13.260651,-9.2276 12.193163,-16.837158 0.06611,-14.451712 -0.135918,-28.938286 0.09573,-43.368436 2.304856,-0.603545 4.473667,2.129086 6.466725,3.162794 5.810226,4.323062 9.982396,11.290287 9.459047,18.692978 -0.121483,4.5723 -1.347015,9.028022 -2.833998,13.325164 6.787346,-9.72715 7.731661,-23.794289 0.5501,-33.576885 -3.678586,-4.641827 -8.219736,-8.678912 -10.781331,-14.124984 -1.566564,-2.96771 -2.651123,-6.209963 -3.143769,-9.516881 -0.454821,-0.746753 -1.452291,-0.759655 -2.21875,-0.78125 z"
       id="path3982-7"
       inkscape:connector-curvature="0"
       sodipodi:nodetypes="ccccccccccccccc" />
    <path
       style="fill:#bc4014;fill-opacity:1;stroke:none"
       d="m 67.46875,-43.625002 c -3.07349,-0.242634 -2.375401,3.284773 -2.438582,5.322868 -0.02931,17.57529 0.01826,35.160623 -0.05906,52.729643 -1.245273,0.945953 -2.838741,0.101959 -4.545133,0.103108 -7.7338,0.404722 -15.594301,6.379596 -16.022366,14.492512 -0.394788,6.71178 7.007909,11.823971 13.278224,10.376521 7.660668,-1.22581 13.260651,-9.227594 12.193163,-16.837152 0.06611,-14.451712 -0.135918,-28.938286 0.09573,-43.368436 2.304856,-0.603545 4.473667,2.129086 6.466725,3.162794 5.810226,4.323061 9.982396,11.290287 9.459047,18.692978 -0.121483,4.5723 -1.347015,9.028022 -2.833998,13.325164 6.787346,-9.72715 7.731661,-23.794289 0.5501,-33.576885 -3.678586,-4.641827 -8.219736,-8.678912 -10.781331,-14.124984 -1.566564,-2.96771 -2.651123,-6.209963 -3.143769,-9.516881 -0.454821,-0.746753 -1.452291,-0.759655 -2.21875,-0.78125 z"
       id="path3982"
       inkscape:connector-curvature="0"
       sodipodi:nodetypes="ccccccccccccccc" />
    <path
       sodipodi:type="inkscape:offset"
       inkscape:radius="-0.37517515"
       inkscape:original="M 67.46875 -38 C 64.610008 -38 64.65625 -36.105037 64.65625 -34.1875 L 64.625 20.28125 C 64.024486 20.905993 63.140089 19.889584 62.375 20.15625 C 54.040043 19.650323 44.926991 25.658762 44.09375 34.34375 C 43.111697 41.24883 50.434766 46.948959 56.96875 45.875 C 65.20116 45.004055 71.323433 36.730358 70.25 28.5625 C 70.27322 14.181469 70.19998 -0.22310692 70.28125 -14.59375 C 70.842424 -15.233742 72.002553 -13.879348 72.59375 -13.8125 C 79.214661 -9.9116539 85.073398 -3.479488 85.46875 4.53125 C 85.90342 10.790862 83.985449 16.915726 81.84375 22.71875 C 89.019704 13.923056 91.330271 1.1077771 86.34375 -9.28125 C 83.793507 -15.311932 78.030856 -19.023536 74.8125 -24.625 C 72.435762 -28.368263 70.628459 -32.549533 70.0625 -36.96875 C 69.596548 -37.890282 68.376367 -38.009923 67.46875 -38 z "
       style="fill:none;stroke:none"
       id="path3982-9"
       d="m 67.46875,-37.625 c -1.346474,0 -1.869098,0.376285 -2.15625,0.96875 -0.287152,0.592465 -0.28125,1.506966 -0.28125,2.46875 L 65,20.28125 a 0.37521267,0.37521267 0 0 1 -0.09375,0.25 C 64.689017,20.757248 64.383324,20.879707 64.125,20.875 63.866676,20.870293 63.643269,20.793682 63.4375,20.71875 63.025963,20.568886 62.700232,20.430211 62.5,20.5 a 0.37521267,0.37521267 0 0 1 -0.15625,0.03125 C 54.204611,20.037209 45.278727,25.9325 44.46875,34.375 a 0.37521267,0.37521267 0 0 1 0,0.03125 c -0.470696,3.309588 1.053707,6.319269 3.5,8.40625 2.446293,2.086981 5.797465,3.203612 8.9375,2.6875 a 0.37521267,0.37521267 0 0 1 0.03125,0 C 64.942053,44.653161 70.920154,36.577683 69.875,28.625 a 0.37521267,0.37521267 0 0 1 0,-0.0625 c 0.02322,-14.379353 -0.05003,-28.78291451 0.03125,-43.15625 A 0.37521267,0.37521267 0 0 1 70,-14.84375 c 0.225788,-0.257501 0.594326,-0.335442 0.875,-0.28125 0.280674,0.05419 0.517639,0.20085 0.75,0.34375 0.232361,0.1429 0.438145,0.288574 0.625,0.40625 0.186855,0.117676 0.354135,0.185141 0.375,0.1875 a 0.37521267,0.37521267 0 0 1 0.15625,0.0625 c 6.69292,3.943272 12.65864,10.4418782 13.0625,18.625 0.379204,5.4608524 -1.022455,10.792207 -2.78125,15.875 5.842631,-8.549713 7.472963,-20.05071646 2.9375,-29.5 -2.492785,-5.894808 -8.220934,-9.605371 -11.5,-15.3125 -2.380965,-3.74992 -4.192388,-7.921864 -4.78125,-12.375 -0.0073,-0.01444 -0.02348,-0.01731 -0.03125,-0.03125 -0.179896,-0.322842 -0.476719,-0.504815 -0.875,-0.625 -0.415473,-0.125373 -0.908261,-0.161011 -1.34375,-0.15625 z"
       transform="translate(0,-4.000001)" />
    <path
       style="opacity:0.1;fill:none;stroke:url(#linearGradient4047);stroke-opacity:1"
       d="m 67.46875,-43.187501 c -2.691432,-0.167485 -1.873857,3.11258 -2.001083,4.888321 -0.03426,17.607142 0.02807,35.22365 -0.06648,52.824944 -0.46962,1.752644 -3.71761,-0.08161 -6.073659,0.54969 -7.46696,0.883437 -14.819078,7.181318 -14.479933,15.124691 0.604257,6.495905 8.201613,10.522675 14.147663,8.451745 6.742837,-1.91334 11.386249,-9.167341 10.442237,-16.089391 0.06442,-14.49017 -0.132892,-29.002297 0.09389,-43.478859 1.864239,-1.773219 4.197366,1.349703 5.965807,2.003359 6.321517,4.350203 11.246909,11.539807 10.838066,19.450863 -0.04877,3.626016 -0.868297,7.189313 -1.897758,10.649637 5.234632,-9.576199 5.161918,-22.396029 -1.899525,-31.049313 -3.934331,-4.482634 -8.205588,-8.826397 -10.655019,-14.358999 -1.251677,-2.647708 -2.164356,-5.468164 -2.570456,-8.372938 -0.376778,-0.59854 -1.235152,-0.53951 -1.84375,-0.59375 z"
       id="path3982-6"
       inkscape:connector-curvature="0"
       sodipodi:nodetypes="ccccccccccccccc" />
  </g>
</svg>
