<?xml version="1.0" encoding="UTF-8" standalone="no"?>
<!-- Created with Inkscape (http://www.inkscape.org/) -->

<svg
   xmlns:dc="http://purl.org/dc/elements/1.1/"
   xmlns:cc="http://creativecommons.org/ns#"
   xmlns:rdf="http://www.w3.org/1999/02/22-rdf-syntax-ns#"
   xmlns:svg="http://www.w3.org/2000/svg"
   xmlns="http://www.w3.org/2000/svg"
   xmlns:xlink="http://www.w3.org/1999/xlink"
   xmlns:sodipodi="http://sodipodi.sourceforge.net/DTD/sodipodi-0.dtd"
   xmlns:inkscape="http://www.inkscape.org/namespaces/inkscape"
   width="128"
   height="128"
   id="svg3179"
   version="1.1"
   inkscape:version="0.48.0 r9654"
   sodipodi:docname="text.svg">
  <defs
     id="defs3181">
    <linearGradient
       inkscape:collect="always"
       xlink:href="#linearGradient3104-5"
       id="linearGradient3121"
       gradientUnits="userSpaceOnUse"
       gradientTransform="matrix(2.6130654,0,0,2.6440496,-3.423063,-71.217393)"
       x1="22.004084"
       y1="47.813133"
       x2="22.004084"
       y2="3.3638515" />
    <linearGradient
       id="linearGradient3104-5">
      <stop
         id="stop3106-2"
         style="stop-color:#aaaaaa;stop-opacity:1"
         offset="0" />
      <stop
         id="stop3108-5"
         style="stop-color:#c8c8c8;stop-opacity:1"
         offset="1" />
    </linearGradient>
    <linearGradient
       inkscape:collect="always"
       xlink:href="#linearGradient3977"
       id="linearGradient3093"
       gradientUnits="userSpaceOnUse"
       gradientTransform="matrix(2.4594595,0,0,3.1081081,4.9729852,-78.594559)"
       x1="23.99999"
       y1="5.5641499"
       x2="23.99999"
       y2="43" />
    <linearGradient
       id="linearGradient3977">
      <stop
         id="stop3979"
         style="stop-color:#ffffff;stop-opacity:1;"
         offset="0" />
      <stop
         offset="0.03626217"
         style="stop-color:#ffffff;stop-opacity:0.23529412;"
         id="stop3981" />
      <stop
         id="stop3983"
         style="stop-color:#ffffff;stop-opacity:0.15686275;"
         offset="0.95056331" />
      <stop
         id="stop3985"
         style="stop-color:#ffffff;stop-opacity:0.39215687;"
         offset="1" />
    </linearGradient>
    <linearGradient
       inkscape:collect="always"
       xlink:href="#linearGradient3600"
       id="linearGradient3096"
       gradientUnits="userSpaceOnUse"
       gradientTransform="matrix(2.6571409,0,0,2.5422194,0.228619,-68.91283)"
       x1="25.132275"
       y1="0.98520643"
       x2="25.132275"
       y2="47.013336" />
    <linearGradient
       id="linearGradient3600">
      <stop
         offset="0"
         style="stop-color:#f4f4f4;stop-opacity:1"
         id="stop3602" />
      <stop
         offset="1"
         style="stop-color:#dbdbdb;stop-opacity:1"
         id="stop3604" />
    </linearGradient>
    <linearGradient
       inkscape:collect="always"
       xlink:href="#linearGradient3104"
       id="linearGradient3098"
       gradientUnits="userSpaceOnUse"
       gradientTransform="matrix(2.1456328,0,0,2.3791386,158.08997,-71.746077)"
       x1="-51.786404"
       y1="50.786446"
       x2="-51.786404"
       y2="2.9062471" />
    <linearGradient
       id="linearGradient3104">
      <stop
         offset="0"
         style="stop-color:#a0a0a0;stop-opacity:1;"
         id="stop3106" />
      <stop
         offset="1"
         style="stop-color:#bebebe;stop-opacity:1;"
         id="stop3108-4" />
    </linearGradient>
    <linearGradient
       inkscape:collect="always"
       xlink:href="#linearGradient3702-501-757-486"
       id="linearGradient3120"
       gradientUnits="userSpaceOnUse"
       x1="25.058096"
       y1="47.027729"
       x2="25.058096"
       y2="39.999443"
       gradientTransform="matrix(3.1428572,0,0,1.2857143,-11.428573,-2.428572)" />
    <linearGradient
       id="linearGradient3702-501-757-486">
      <stop
         offset="0"
         style="stop-color:#181818;stop-opacity:0"
         id="stop3100" />
      <stop
         offset="0.5"
         style="stop-color:#181818;stop-opacity:1"
         id="stop3102" />
      <stop
         offset="1"
         style="stop-color:#181818;stop-opacity:0"
         id="stop3104" />
    </linearGradient>
    <radialGradient
       inkscape:collect="always"
       xlink:href="#linearGradient3688-464-309-255"
       id="radialGradient3123"
       gradientUnits="userSpaceOnUse"
       gradientTransform="matrix(2.4045407,0,0,1.7999999,-32.014243,-131.8)"
       cx="4.9929786"
       cy="43.5"
       fx="4.9929786"
       fy="43.5"
       r="2.5" />
    <linearGradient
       id="linearGradient3688-464-309-255">
      <stop
         offset="0"
         style="stop-color:#181818;stop-opacity:1"
         id="stop3094" />
      <stop
         offset="1"
         style="stop-color:#181818;stop-opacity:0"
         id="stop3096" />
    </linearGradient>
    <linearGradient
       id="linearGradient3688-166-749-737">
      <stop
         offset="0"
         style="stop-color:#181818;stop-opacity:1"
         id="stop3088" />
      <stop
         offset="1"
         style="stop-color:#181818;stop-opacity:0"
         id="stop3090" />
    </linearGradient>
    <radialGradient
       r="2.5"
       fy="43.5"
       fx="4.9929786"
       cy="43.5"
       cx="4.9929786"
       gradientTransform="matrix(2.4045407,0,0,1.7999999,95.985757,-24.799999)"
       gradientUnits="userSpaceOnUse"
       id="radialGradient3177"
       xlink:href="#linearGradient3688-166-749-737"
       inkscape:collect="always" />
  </defs>
  <sodipodi:namedview
     id="base"
     pagecolor="#ffffff"
     bordercolor="#666666"
     borderopacity="1.0"
     inkscape:pageopacity="0.0"
     inkscape:pageshadow="2"
     inkscape:zoom="5.5"
     inkscape:cx="0.72727273"
     inkscape:cy="32"
     inkscape:current-layer="layer1"
     showgrid="true"
     inkscape:document-units="px"
     inkscape:grid-bbox="true"
     inkscape:window-width="1280"
     inkscape:window-height="753"
     inkscape:window-x="0"
     inkscape:window-y="24"
     inkscape:window-maximized="1" />
  <metadata
     id="metadata3184">
    <rdf:RDF>
      <cc:Work
         rdf:about="">
        <dc:format>image/svg+xml</dc:format>
        <dc:type
           rdf:resource="http://purl.org/dc/dcmitype/StillImage" />
        <dc:title></dc:title>
      </cc:Work>
    </rdf:RDF>
  </metadata>
  <g
     id="layer1"
     inkscape:label="Layer 1"
     inkscape:groupmode="layer"
     transform="translate(0,64)">
    <rect
       style="opacity:0.4;fill:url(#radialGradient3177);fill-opacity:1;stroke:none"
       id="rect2801"
       y="49"
       x="108"
       height="8.999999"
       width="6" />
    <rect
       style="opacity:0.4;fill:url(#radialGradient3123);fill-opacity:1;stroke:none"
       id="rect3696"
       transform="scale(-1,-1)"
       y="-58"
       x="-20"
       height="8.999999"
       width="6" />
    <rect
       style="opacity:0.4;fill:url(#linearGradient3120);fill-opacity:1;stroke:none"
       id="rect3700"
       y="49"
       x="20"
       height="9"
       width="88" />
    <path
       inkscape:connector-curvature="0"
       style="fill:url(#linearGradient3096);fill-opacity:1;stroke:url(#linearGradient3098);stroke-width:0.99992186;stroke-linecap:butt;stroke-linejoin:round;stroke-miterlimit:4;stroke-opacity:1;stroke-dasharray:none;stroke-dashoffset:0;display:inline"
       id="path4160"
       d="m 17.499929,-62.499588 c 21.311061,0 93.000031,0.007 93.000031,0.007 l 1.1e-4,116.992628 c 0,0 -62.0001,0 -93.00014,0 0,-39.000029 0,-78.000054 0,-117.000079 z"
       sodipodi:nodetypes="ccccc" />
    <path
       style="fill:none;stroke:url(#linearGradient3093);stroke-width:1;stroke-linecap:round;stroke-linejoin:round;stroke-miterlimit:4;stroke-opacity:1;stroke-dasharray:none;stroke-dashoffset:0"
       d="m 109.5,53.5 -91,0 0,-115.000003 91,0 z"
       id="rect6741-1"
       inkscape:connector-curvature="0"
       sodipodi:nodetypes="ccccc" />
    <path
       inkscape:connector-curvature="0"
       id="path3475"
       style="fill:none;stroke:url(#linearGradient3121);stroke-width:0.99999982px;stroke-linecap:butt;stroke-linejoin:miter;stroke-opacity:1"
       d="m 30.5,-40.5 6.124371,0 z m 7.022612,0 5.71608,0 z m 6.614321,0 5.062815,0 z m 5.8794,0 2.204772,0 z m 3.103013,0 4.899498,0 z m 5.879396,0 12.902011,0 z m 13.718595,0 9.880651,0 z m 10.697237,0 3.021356,0 z m -52.914574,4 9.55402,0 z m 10.615577,0 4.572865,0 z m 5.389448,0 2.286431,0 z m 3.184672,0 4.164573,0 z m 5.062813,0 4.246232,0 z m 5.062816,0 6.77764,0 z m 7.675881,0 8.819094,0 z m 9.635676,0 5.879398,0 z m 6.695981,0 1.469849,0 z M 30.5,-28.541645 l 8.084168,0 z m 8.900754,0 13.228642,0 z m 14.045225,0 6.451004,0 z m 7.267588,0 6.042714,0 z m 6.859297,0 5.144473,0 z m 5.961056,0 8.08417,0.08329 z m 8.819094,0.08329 13.146986,0 z M 30.5,-24.5 l 11.187186,0 z m 12.085427,0 12.085425,0 z m 12.902011,0 4.817837,0 z m 5.63442,0 11.350503,0 z m 12.085429,0 7.757537,0 z m 8.655777,0 3.103017,0 z m 3.9196,0 1.714822,0 z m 2.613065,0 4.817838,0 z m -57.895729,4 4.164572,0 z m 5.471105,0 15.433416,0 z M 30.5,-8.541645 l 8.084168,0 z m 8.900754,0 13.228642,0 z m 14.045225,0 6.451004,0 z m 7.267588,0 6.042714,0 z m 6.859297,0 5.144473,0 z m 5.961056,0 8.08417,0.08329 z m 8.819094,0.08329 13.146986,0 z M 30.5,-4.5 l 6.124371,0 z m 7.022612,0 5.634422,0 z m 6.614321,0 5.062815,0 z m 5.8794,0 2.204772,0 z m 3.103013,0 4.899498,0 z m 5.879396,0 12.820353,0 z m 13.718595,0 9.798993,0 z m 10.615577,0 3.103016,0 z m 3.919596,0 7.34925,0 z m -56.75251,4 10.288945,0 z m 11.105529,0 11.023867,0 z m 11.84045,0 4.246231,0 z m 5.062815,0 10.370603,0 z m 11.187185,0 13.065329,0 z m 13.96357,0 4.81784,0 z M 30.5,7.5 l 11.187186,0 z m 12.085427,0 12.085425,0 z m 12.902011,0 4.817837,0 z m 5.63442,0 11.350503,0 z m 12.085429,0 7.757537,0 z m 8.655777,0 3.103017,0 z m 3.9196,0 1.714822,0 z m 2.613065,0 4.817838,0 z M 30.5,11.5 l 9.55402,0 z m 10.615577,0 4.572865,0 z m 5.389448,0 2.286431,0 z m 3.184672,0 4.164573,0 z m 5.062813,0 4.246232,0 z m 5.062816,0 6.77764,0 z m 7.675881,0 8.819094,0 z m 9.635676,0 5.879398,0 z m 6.695981,0 1.469849,0 z M 30.5,22.458355 l 8.084168,0 z m 8.900754,0 13.228642,0 z m 14.045225,0 6.451004,0 z m 7.267588,0 6.042714,0 z m 6.859297,0 5.144473,0 z m 5.961056,0 8.08417,0.08329 z m 8.819094,0.08329 13.146986,0 z M 30.5,26.5 l 9.55402,0 z m 10.615577,0 4.572865,0 z m 5.389448,0 2.286431,0 z m 3.184672,0 4.164573,0 z m 5.062813,0 4.246232,0 z m 5.062816,0 6.77764,0 z m 7.675881,0 8.819094,0 z m 9.635676,0 5.879398,0 z m 6.695981,0 1.469849,0 z M 30.5,30.5 l 10.125628,0 z m 11.023869,0 3.184674,0 z m 4.001258,0 7.267586,0 z m 8.084168,0 10.697237,0 z m 11.595478,0 7.267588,0 z m 8.002514,0 1.551506,0 z m 2.36809,0 9.227385,0 z m 10.207287,0 4.81784,0 z M 30.5,38.5 l 10.125628,0 z m 11.023869,0 4.572864,0 z m 5.389447,0 7.185928,0 z m 8.002512,0 7.75754,0 z m 8.65578,0 3.103015,0 z m 3.919599,0 1.714822,0 z m 2.613063,0 4.817839,0 z M 30.5,-32.5 l 10.288945,0 z m 11.105529,0 11.023867,0 z m 11.84045,0 4.246231,0 z m 5.062815,0 10.370603,0 z m 11.187185,0 13.065329,0 z m 13.96357,0 4.81784,0 z M 30.5,3.5 l 9.55402,0 z m 10.615577,0 4.572865,0 z m 5.389448,0 2.286431,0 z m 3.184672,0 4.164573,0 z m 5.062813,0 4.246232,0 z m 5.062816,0 6.77764,0 z m 7.675881,0 8.819094,0 z m 9.635676,0 5.879398,0 z m 6.695981,0 1.469849,0 z M 30.5,34.5 l 9.55402,0 z m 10.615577,0 4.572865,0 z m 5.389448,0 2.286431,0 z m 3.184672,0 4.164573,0 z m 5.062813,0 4.246232,0 z m 5.062816,0 6.77764,0 z m 7.675881,0 8.819094,0 z m 9.635676,0 5.879398,0 z m 6.695981,0 1.469849,0 z"
       sodipodi:nodetypes="cccccccccccccccccccccccccccccccccccccccccccccccccccccccccccccccccccccccccccccccccccccccccccccccccccccccccccccccccccccccccccccccccccccccccccccccccccccccccccccccccccccccccccccccccccccccccccccccccccccccccccccccccccccccccccccccccccccccccccccccccccccccccccccccccccccccccccccccccccccccccccccccccccccccccccccccccccccccccccccccccccccccccccccccccccccccccccccccccccccccccccccccccccccccccccccccc" />
  </g>
</svg>
