<svg xmlns="http://www.w3.org/2000/svg" xmlns:xlink="http://www.w3.org/1999/xlink" viewBox="0 0 128 128"><defs><linearGradient id="a"><stop offset="0" stop-color="#fff"/><stop offset=".006" stop-color="#fff" stop-opacity=".235"/><stop offset=".994" stop-color="#fff" stop-opacity=".157"/><stop offset="1" stop-color="#fff" stop-opacity=".392"/></linearGradient><linearGradient id="b"><stop offset="0" stop-color="#f4f4f4"/><stop offset="1" stop-color="#dbdbdb"/></linearGradient><linearGradient id="c"><stop offset="0" stop-color="#181818" stop-opacity="0"/><stop offset=".5" stop-color="#181818"/><stop offset="1" stop-color="#181818" stop-opacity="0"/></linearGradient><linearGradient id="d"><stop offset="0" stop-color="#181818"/><stop offset="1" stop-color="#181818" stop-opacity="0"/></linearGradient><linearGradient id="e"><stop offset="0" stop-color="#181818"/><stop offset="1" stop-color="#181818" stop-opacity="0"/></linearGradient><linearGradient gradientTransform="matrix(2.45946 0 0 3.1081 4.973 -14.595)" gradientUnits="userSpaceOnUse" xlink:href="#a" id="j" y2="42.195" x2="24" y1="5.564" x1="24"/><linearGradient gradientTransform="matrix(2.65714 0 0 2.54222 .23 -4.913)" gradientUnits="userSpaceOnUse" xlink:href="#b" id="i" y2="47.013" x2="25.132" y1=".985" x1="25.132"/><linearGradient gradientTransform="matrix(3.14286 0 0 1.2857 -11.43 61.57)" gradientUnits="userSpaceOnUse" xlink:href="#c" id="h" y2="39.999" x2="25.058" y1="47.028" x1="25.058"/><radialGradient gradientTransform="matrix(2.40454 0 0 1.8 -32.014 -195.8)" gradientUnits="userSpaceOnUse" xlink:href="#d" id="g" fy="43.5" fx="4.993" r="2.5" cy="43.5" cx="4.993"/><radialGradient gradientTransform="matrix(2.40454 0 0 1.8 95.986 39.2)" gradientUnits="userSpaceOnUse" xlink:href="#e" id="f" fy="43.5" fx="4.993" r="2.5" cy="43.5" cx="4.993"/></defs><path opacity=".4" fill="url(#f)" d="M108 113h6v9h-6z"/><path transform="scale(-1)" opacity=".4" fill="url(#g)" d="M-20-122h6v9h-6z"/><path opacity=".4" fill="url(#h)" d="M20 113h88v9H20z"/><path d="M17.5 1.5c21.31 0 93 .007 93 .007V118.5h-93V1.5z" fill="url(#i)"/><path d="M109.5 117.5h-91V2.5h91z" fill="none" stroke="url(#j)" stroke-linecap="round" stroke-linejoin="round"/><path d="M17.5 1.5c21.31 0 93 .007 93 .007V118.5h-93V1.5z" opacity=".3" fill="none" stroke="#000" stroke-linejoin="round"/><path d="M66.844 47l-9.668 26h3.918l9.666-26h-3.916zM53 50.523l-17 8.72v2.148l17 7.646v-3.54l-12.797-5.368L53 53.998v-3.475zm22 0v3.475l12.797 6.13L75 65.495v3.54l17-7.645v-2.148l-17-8.72z" style="line-height:125%;-inkscape-font-specification:'Open Sans Semi-Bold';text-align:center" font-weight="600" font-size="18" font-family="Open Sans" letter-spacing="0" word-spacing="0" text-anchor="middle" fill="#999"/><path style="line-height:125%;-inkscape-font-specification:'Open Sans Semi-Bold';text-align:center" d="M66.843 48.033L57.177 74h3.917l9.666-25.967zM53.196 51.57l-17.374 8.72v2.148l17.374 7.645v-3.538l-13.078-5.37 13.078-6.13zm21.608 0v3.476l13.078 6.13-13.078 5.37v3.537l17.374-7.645V60.29z" font-weight="600" font-size="18" font-family="Open Sans" letter-spacing="0" word-spacing="0" text-anchor="middle" opacity=".4" fill="#fff"/><path d="M66.844 47l-9.668 26h3.918l9.666-26h-3.916zM53 50.523l-17 8.72v2.148l17 7.646v-3.54l-12.797-5.368L53 53.998v-3.475zm22 0v3.475l12.797 6.13L75 65.495v3.54l17-7.645v-2.148l-17-8.72z" style="line-height:125%;-inkscape-font-specification:'Open Sans Semi-Bold';text-align:center" font-weight="600" font-size="18" font-family="Open Sans" letter-spacing="0" word-spacing="0" text-anchor="middle" fill="#999"/></svg>