<?xml version="1.0" encoding="UTF-8" standalone="no"?>
<svg
   xmlns:dc="http://purl.org/dc/elements/1.1/"
   xmlns:cc="http://creativecommons.org/ns#"
   xmlns:rdf="http://www.w3.org/1999/02/22-rdf-syntax-ns#"
   xmlns:svg="http://www.w3.org/2000/svg"
   xmlns="http://www.w3.org/2000/svg"
   xmlns:xlink="http://www.w3.org/1999/xlink"
   id="svg3172"
   height="128"
   width="128"
   version="1.1">
  <defs
     id="defs3174">
    <linearGradient
       id="linearGradient3977">
      <stop
         offset="0"
         style="stop-color:#ffffff;stop-opacity:1"
         id="stop3979" />
      <stop
         offset="0"
         style="stop-color:#ffffff;stop-opacity:0.23529412"
         id="stop3981" />
      <stop
         offset="1"
         style="stop-color:#ffffff;stop-opacity:0.15686275"
         id="stop3983" />
      <stop
         offset="1"
         style="stop-color:#ffffff;stop-opacity:0.39215687"
         id="stop3985" />
    </linearGradient>
    <linearGradient
       id="linearGradient3600">
      <stop
         offset="0"
         style="stop-color:#f4f4f4;stop-opacity:1"
         id="stop3602" />
      <stop
         offset="1"
         style="stop-color:#dbdbdb;stop-opacity:1"
         id="stop3604" />
    </linearGradient>
    <linearGradient
       id="linearGradient3702-501-757-486">
      <stop
         offset="0"
         style="stop-color:#181818;stop-opacity:0"
         id="stop3100" />
      <stop
         offset="0.5"
         style="stop-color:#181818;stop-opacity:1"
         id="stop3102" />
      <stop
         offset="1"
         style="stop-color:#181818;stop-opacity:0"
         id="stop3104" />
    </linearGradient>
    <linearGradient
       id="linearGradient3688-464-309-255">
      <stop
         offset="0"
         style="stop-color:#181818;stop-opacity:1"
         id="stop3094" />
      <stop
         offset="1"
         style="stop-color:#181818;stop-opacity:0"
         id="stop3096" />
    </linearGradient>
    <linearGradient
       id="linearGradient3688-166-749-737">
      <stop
         offset="0"
         style="stop-color:#181818;stop-opacity:1"
         id="stop3088" />
      <stop
         offset="1"
         style="stop-color:#181818;stop-opacity:0"
         id="stop3090" />
    </linearGradient>
    <linearGradient
       gradientTransform="matrix(2.4594595,0,0,3.1081081,4.9729852,-14.594559)"
       gradientUnits="userSpaceOnUse"
       xlink:href="#linearGradient3977"
       id="linearGradient3016"
       y2="42.339119"
       x2="23.99999"
       y1="5.6608582"
       x1="23.99999" />
    <linearGradient
       gradientTransform="matrix(2.6571409,0,0,2.5422194,0.228619,-4.91283)"
       gradientUnits="userSpaceOnUse"
       xlink:href="#linearGradient3600"
       id="linearGradient3019"
       y2="47.013336"
       x2="25.132275"
       y1="0.98520643"
       x1="25.132275" />
    <linearGradient
       gradientTransform="matrix(3.1428572,0,0,1.2857143,-11.428573,61.571428)"
       gradientUnits="userSpaceOnUse"
       xlink:href="#linearGradient3702-501-757-486"
       id="linearGradient3024"
       y2="39.999443"
       x2="25.058096"
       y1="47.027729"
       x1="25.058096" />
    <radialGradient
       gradientTransform="matrix(2.4045407,0,0,1.7999999,-32.014243,-195.8)"
       gradientUnits="userSpaceOnUse"
       xlink:href="#linearGradient3688-464-309-255"
       id="radialGradient3027"
       fy="43.5"
       fx="4.9929786"
       r="2.5"
       cy="43.5"
       cx="4.9929786" />
    <radialGradient
       gradientTransform="matrix(2.4045407,0,0,1.7999999,95.985757,39.200001)"
       gradientUnits="userSpaceOnUse"
       xlink:href="#linearGradient3688-166-749-737"
       id="radialGradient3030"
       fy="43.5"
       fx="4.9929786"
       r="2.5"
       cy="43.5"
       cx="4.9929786" />
    <linearGradient
       xlink:href="#linearGradient1106"
       id="linearGradient1108"
       x1="21.073494"
       y1="46.197311"
       x2="21.073494"
       y2="1.4174461"
       gradientUnits="userSpaceOnUse"
       gradientTransform="matrix(2,0,0,2,0,5.1e-5)" />
    <linearGradient
       id="linearGradient1106">
      <stop
         style="stop-color:#abacae;stop-opacity:1;"
         offset="0"
         id="stop1102" />
      <stop
         style="stop-color:#d4d4d4;stop-opacity:1"
         offset="1"
         id="stop1104" />
    </linearGradient>
    <linearGradient
       xlink:href="#linearGradient890"
       id="linearGradient917"
       gradientUnits="userSpaceOnUse"
       x1="29.943974"
       y1="0.5753113"
       x2="29.943974"
       y2="34.108799"
       gradientTransform="matrix(2,0,0,2,0,5.1e-5)" />
    <linearGradient
       id="linearGradient890">
      <stop
         style="stop-color:#64baff;stop-opacity:1"
         offset="0"
         id="stop886" />
      <stop
         style="stop-color:#3689e6;stop-opacity:1"
         offset="1"
         id="stop888" />
    </linearGradient>
    <linearGradient
       id="linearGradient5060-5">
      <stop
         offset="0"
         style="stop-color:#000000;stop-opacity:1"
         id="stop5062-5" />
      <stop
         offset="1"
         style="stop-color:#000000;stop-opacity:0"
         id="stop5064-3" />
    </linearGradient>
    <linearGradient
       id="linearGradient22140">
      <stop
         offset="0"
         style="stop-color:#000000;stop-opacity:0"
         id="stop22142" />
      <stop
         offset="0.5"
         style="stop-color:#000000;stop-opacity:1"
         id="stop22148" />
      <stop
         offset="1"
         style="stop-color:#000000;stop-opacity:0"
         id="stop22144" />
    </linearGradient>
    <linearGradient
       y2="50.73642"
       x2="45.902721"
       y1="35.285313"
       x1="30.739399"
       gradientTransform="matrix(0,5.4100631,-5.3070628,0,309.7614,-121.83734)"
       gradientUnits="userSpaceOnUse"
       id="linearGradient3163"
       xlink:href="#linearGradient3412" />
    <linearGradient
       id="linearGradient3412">
      <stop
         offset="0"
         style="stop-color:#f0f0f1;stop-opacity:1"
         id="stop3414" />
      <stop
         offset="1"
         style="stop-color:#cbcdd9;stop-opacity:1"
         id="stop3416" />
    </linearGradient>
    <linearGradient
       y2="127.03607"
       x2="75.779678"
       y1="86"
       x1="75.779678"
       gradientTransform="matrix(-2,0,0,2.0008421,236.50002,-127.60767)"
       gradientUnits="userSpaceOnUse"
       id="linearGradient3165"
       xlink:href="#linearGradient6240" />
    <linearGradient
       id="linearGradient6240">
      <stop
         offset="0"
         style="stop-color:#ffffff;stop-opacity:1"
         id="stop6242" />
      <stop
         offset="1"
         style="stop-color:#ffffff;stop-opacity:0"
         id="stop6244" />
    </linearGradient>
    <radialGradient
       r="3.5"
       fy="39.464806"
       fx="7"
       cy="39.464806"
       cx="7"
       gradientTransform="matrix(0,-0.89962666,0.93506368,0,-81.62938,-32.204086)"
       gradientUnits="userSpaceOnUse"
       id="radialGradient3159-8"
       xlink:href="#linearGradient5060-5" />
    <radialGradient
       r="3.5"
       fy="39.464806"
       fx="7"
       cy="39.464806"
       cx="7"
       gradientTransform="matrix(0,-0.89962666,0.93506368,0,-33.629364,44.798864)"
       gradientUnits="userSpaceOnUse"
       id="radialGradient3157-0"
       xlink:href="#linearGradient5060-5" />
    <linearGradient
       gradientTransform="matrix(1.0133332,0,0,0.89962576,-0.0436346,3.8658836)"
       y2="42.040661"
       x2="18.142136"
       y1="35"
       x1="18.142136"
       gradientUnits="userSpaceOnUse"
       id="linearGradient3161-7"
       xlink:href="#linearGradient22140" />
  </defs>
  <metadata
     id="metadata3177">
    <rdf:RDF>
      <cc:Work
         rdf:about="">
        <dc:format>image/svg+xml</dc:format>
        <dc:type
           rdf:resource="http://purl.org/dc/dcmitype/StillImage" />
        <dc:title />
      </cc:Work>
    </rdf:RDF>
  </metadata>
  <rect
     style="opacity:0.4;fill:url(#radialGradient3030);fill-opacity:1;stroke:none"
     id="rect2801"
     y="113"
     x="108"
     height="8.999999"
     width="6" />
  <rect
     style="opacity:0.4;fill:url(#radialGradient3027);fill-opacity:1;stroke:none"
     id="rect3696"
     transform="scale(-1,-1)"
     y="-122"
     x="-20"
     height="8.999999"
     width="6" />
  <rect
     style="opacity:0.4;fill:url(#linearGradient3024);fill-opacity:1;stroke:none"
     id="rect3700"
     y="113"
     x="20"
     height="9"
     width="88" />
  <path
     style="fill:url(#linearGradient3019);fill-opacity:1;stroke:none;display:inline"
     id="path4160"
     d="m 17.499929,1.500412 c 21.311061,0 93.000031,0.007 93.000031,0.007 l 1.1e-4,116.992628 c 0,0 -62.0001,0 -93.00014,0 0,-39.000029 0,-78.000054 0,-117.000079 z" />
  <path
     style="fill:none;stroke:url(#linearGradient3016);stroke-width:1;stroke-linecap:round;stroke-linejoin:round;stroke-miterlimit:4;stroke-opacity:1;stroke-dasharray:none;stroke-dashoffset:0"
     id="rect6741-1"
     d="m 109.5,117.5 -91,0 0,-115.000003 91,0 z" />
  <path
     style="opacity:0.3;fill:none;stroke:#000000;stroke-width:0.99992186;stroke-linecap:butt;stroke-linejoin:round;stroke-miterlimit:4;stroke-opacity:1;stroke-dasharray:none;stroke-dashoffset:0;display:inline"
     id="path4160-4"
     d="m 17.499929,1.5004119 c 21.311061,0 93.000031,0.007 93.000031,0.007 l 1.1e-4,116.9926281 c 0,0 -62.0001,0 -93.00014,0 0,-39.000029 0,-78.000054 0,-117.0000791 z" />
  <path
     style="font-variation-settings:normal;opacity:1;vector-effect:none;fill:url(#linearGradient1108);fill-opacity:1;stroke:none;stroke-width:1;stroke-linecap:butt;stroke-linejoin:round;stroke-miterlimit:4;stroke-dasharray:none;stroke-dashoffset:0;stroke-opacity:1;marker:none"
     d="m 36,52.000051 h 32 c 2.216,0 4,1.784 4,4 v 32 c 0,2.216 -1.784,4 -4,4 H 36 c -2.216,0 -4,-1.784 -4,-4 v -32 c 0,-2.216 1.784,-4 4,-4 z"
     id="rect1016" />
  <path
     id="path1033"
     d="m 47.53508,57.928441 a 0.63061374,0.63401504 0 0 0 -0.60788,0.583372 c -0.008,0.1066 -0.0422,0.419378 -0.0948,0.904818 -0.0944,0.770222 -0.168,1.428344 -0.22104,1.972352 a 0.63061374,0.63401504 0 0 0 0,0.004 l -0.0948,1.01594 a 0.63061374,0.63401504 0 0 0 0,0.004 l -0.016,0.15876 c -1.01574,0.06098 -2.05168,0.10318 -3.14594,0.10318 -0.84774,0 -1.7079,-0.02884 -2.57754,-0.09128 a 0.63061374,0.63401504 0 0 0 -0.67102,0.686554 l 0.20526,2.269988 a 0.63061374,0.63401504 0 0 0 0.58812,0.575436 c 0.3589,0.02256 0.82114,0.03572 1.39732,0.03572 1.25402,0 2.58606,-0.07082 3.94328,-0.16272 -0.1112,1.453172 -0.1968,2.807198 -0.22894,3.988354 -0.90366,0.506902 -1.70802,0.985713 -2.28544,1.408822 a 0.63061374,0.63401504 0 0 0 -0.008,0.004 c -3.35258,2.541628 -5.1314,5.50988 -5.1314,8.794222 0,1.217338 0.25854,2.226384 0.87234,2.948604 0.6138,0.722216 1.55196,1.067528 2.6328,1.067528 1.48948,0 3.0305,-0.610816 4.60246,-1.575498 0.0754,0.467984 0.1764,1.089722 0.2092,1.273892 a 0.63061374,0.63401504 0 0 0 0.84076,0.484158 l 2.33676,-0.873074 a 0.63061374,0.63401504 0 0 0 0.38682,-0.757984 c -0.24154,-0.915372 -0.38834,-1.793984 -0.4855,-2.650966 2.55134,-2.48447 4.60926,-5.591108 6.22082,-9.2506 1.09584,0.172619 2.04458,0.470876 2.80252,0.936568 a 0.63061374,0.63401504 0 0 0 0.004,0.004 c 1.72346,1.041592 2.50254,2.409898 2.50254,4.361396 0,1.890458 -0.84662,3.325328 -2.73542,4.512196 -1.47786,0.93479 -3.51168,1.56257 -6.1103,1.84139 a 0.63061374,0.63401504 0 0 0 -0.46182,0.976252 l 1.38942,2.15887 a 0.63061374,0.63401504 0 0 0 0.61576,0.281764 c 3.1122,-0.443902 5.61108,-1.336016 7.4721,-2.722396 2.37084,-1.768148 3.6196,-4.170876 3.6196,-7.016328 0,-2.587692 -1.04446,-4.77899 -3.04726,-6.385336 a 0.63061374,0.63401504 0 0 0 -0.008,-0.004 C 60.98,68.806789 59.2936,68.211061 57.32762,67.869669 c 0.1166,-0.355592 0.26352,-0.77179 0.31578,-1.01197 a 0.63061374,0.63401504 0 0 0 -0.47366,-0.754018 l -2.38412,-0.55559 a 0.63061374,0.63401504 0 0 0 -0.75392,0.464314 c -0.1706,0.677672 -0.3221,1.20322 -0.46972,1.698524 -1.4378,0.1555 -2.7248,0.420668 -3.89986,0.76989 0.0412,-0.975772 0.0944,-1.918042 0.1776,-2.785894 3.31078,-0.363162 6.40742,-0.891096 9.25228,-1.611216 a 0.63061374,0.63401504 0 0 0 0.47358,-0.686358 l -0.25262,-2.238242 a 0.63061374,0.63401504 0 0 0 -0.79338,-0.539718 c -2.77978,0.76569 -5.55938,1.286324 -8.33654,1.623124 0.113,-1.05934 0.23336,-2.151358 0.39472,-3.4407 a 0.63061374,0.63401504 0 0 0 -0.58418,-0.710364 l -2.39992,-0.15874 a 0.63061374,0.63401504 0 0 0 -0.0592,-0.004 z m 4.6064,13.183395 c -0.7354,1.535747 -1.58318,2.925187 -2.53412,4.182811 -0.039,-1.040118 -0.0782,-2.053206 -0.0828,-3.472448 0.83424,-0.321094 1.72488,-0.516716 2.61702,-0.710363 z m -6.12608,2.770021 c 0.0422,1.875466 0.1026,3.628402 0.21708,4.95667 -1.38668,1.221516 -2.63536,1.821548 -3.71432,1.821548 -0.193,0 -0.2129,-0.02956 -0.22894,-0.04762 -0.016,-0.018 -0.071,-0.11034 -0.071,-0.365102 0,-0.13748 -0.026,-0.268978 -0.0514,-0.40082 0.016,-0.10222 0.0514,-0.209658 0.0514,-0.313512 l -0.004,0.04762 c 0.111,-1.441078 0.91902,-2.987108 2.53806,-4.63522 a 0.63061374,0.63401504 0 0 0 0.008,-0.008 c 0.44278,-0.468898 0.84024,-0.723008 1.25522,-1.055624 z"
     style="font-style:normal;font-variant:normal;font-weight:bold;font-stretch:normal;font-size:16px;line-height:1.25;font-family:'Open Sans';-inkscape-font-specification:'Open Sans Bold';font-variation-settings:normal;letter-spacing:0px;word-spacing:0px;opacity:1;vector-effect:none;fill:#555761;fill-opacity:1;stroke:none;stroke-width:1;stroke-linecap:butt;stroke-linejoin:round;stroke-miterlimit:4;stroke-dasharray:none;stroke-dashoffset:0;stroke-opacity:1;marker:none" />
  <path
     style="color:#000000;font-variation-settings:normal;opacity:1;vector-effect:none;fill:url(#linearGradient917);fill-opacity:1;stroke:none;stroke-width:1;stroke-linecap:butt;stroke-linejoin:round;stroke-miterlimit:4;stroke-dasharray:none;stroke-dashoffset:0;stroke-opacity:1;marker:none"
     d="m 60,27.999951 c -2.216,0 -4,1.784 -4,4 v 32 c 0,2.216 1.784,4 4,4 h 32 c 2.216,0 4,-1.784 4,-4 v -32 c 0,-2.216 -1.784,-4 -4,-4 z"
     id="path4" />
  <path
     style="color:#000000;font-variation-settings:normal;opacity:1;vector-effect:none;fill:#ffffff;fill-opacity:1;stroke:none;stroke-width:1;stroke-linecap:butt;stroke-linejoin:round;stroke-miterlimit:4;stroke-dasharray:none;stroke-dashoffset:0;stroke-opacity:1;marker:none"
     d="m 73.875,36.000051 -8.9414,24 h 4.11718 l 2.48046,-7.199218 h 8.8672 l 2.51172,7.199218 h 4.16014 l -8.9453,-24 z m 2.125,3.960938 3.57812,10.4375 h -7.22656 z"
     id="path1020" />
  <g
     id="g4345"
     transform="translate(2e-6,-2.4105005e-6)">
    <g
       transform="matrix(-1.833334,0,0,1.4291655,126.00003,68.47502)"
       id="g22150"
       style="opacity:0.3">
      <rect
         width="3.2727261"
         height="6.2973804"
         x="-48"
         y="-41.650166"
         transform="scale(-1,-1)"
         id="rect22134"
         style="fill:url(#radialGradient3159-8);fill-opacity:1;stroke:none" />
      <rect
         width="3.2727261"
         height="6.2973804"
         x="1.6387316e-05"
         y="35.352787"
         id="rect22120"
         style="fill:url(#radialGradient3157-0);fill-opacity:1;stroke:none" />
      <rect
         width="41.454529"
         height="6.2973785"
         x="3.2727439"
         y="35.352787"
         id="rect22138"
         style="fill:url(#linearGradient3161-7);fill-opacity:1;stroke:none" />
    </g>
    <path
       d="M 121.50004,45.207214 41.212776,125.5 121.50004,125.499 Z m -16,37.002288 0,27.290538 -27.295082,-8e-5 z"
       id="path2993"
       style="display:inline;overflow:visible;visibility:visible;opacity:0.8;fill:url(#linearGradient3163);fill-opacity:1;fill-rule:evenodd;stroke:#83899a;stroke-width:1px;stroke-linecap:butt;stroke-linejoin:miter;stroke-miterlimit:4;stroke-dasharray:none;stroke-dashoffset:0;stroke-opacity:1;marker:none;enable-background:accumulate" />
    <path
       d="m 98.500032,124.49288 0,-2.98929"
       id="path3103"
       style="opacity:0.3;fill:none;stroke:#ffffff;stroke-width:0.99999994;stroke-linecap:round;stroke-linejoin:miter;stroke-opacity:1" />
    <path
       d="m 109.50003,125.49882 0,-4.00168 m -11.999998,4.00168 0,-4.00168 m -12,4.00168 0,-3.95406 m -12,3.95406 0,-4.00168 m -12,4.00168 0,-4.00168"
       id="path3091"
       style="opacity:0.75;fill:none;stroke:#83899a;stroke-width:1.00000012px;stroke-linecap:round;stroke-linejoin:miter;stroke-opacity:1" />
    <path
       d="m 120.5,47.615627 0,76.884373 -76.873279,0 z M 106.5,79.790078 75.779061,110.5 106.5,110.5 Z"
       id="path3934"
       style="display:inline;overflow:visible;visibility:visible;opacity:0.5;fill:none;stroke:url(#linearGradient3165);stroke-width:1px;stroke-linecap:butt;stroke-linejoin:miter;stroke-miterlimit:4;stroke-dasharray:none;stroke-dashoffset:0;stroke-opacity:1;marker:none;enable-background:accumulate" />
    <path
       style="opacity:0.3;fill:none;stroke:#ffffff;stroke-width:0.99999994;stroke-linecap:round;stroke-linejoin:miter;stroke-opacity:1"
       id="path4292"
       d="m 110.50005,124.49288 0,-2.98929" />
    <path
       style="opacity:0.3;fill:none;stroke:#ffffff;stroke-width:0.99999994;stroke-linecap:round;stroke-linejoin:miter;stroke-opacity:1"
       id="path4294"
       d="m 86.50005,124.49288 0,-2.98929" />
    <path
       d="m 74.50005,124.49288 0,-2.98929"
       id="path4296"
       style="opacity:0.3;fill:none;stroke:#ffffff;stroke-width:0.99999994;stroke-linecap:round;stroke-linejoin:miter;stroke-opacity:1" />
    <path
       style="opacity:0.3;fill:none;stroke:#ffffff;stroke-width:0.99999994;stroke-linecap:round;stroke-linejoin:miter;stroke-opacity:1"
       id="path4298"
       d="m 62.50005,124.49288 0,-2.98929" />
    <path
       style="opacity:0.3;fill:none;stroke:#ffffff;stroke-width:0.99999994;stroke-linecap:round;stroke-linejoin:miter;stroke-opacity:1"
       id="path4300"
       d="m 120.50286,78.499968 -2.98929,0" />
    <path
       style="opacity:0.75;fill:none;stroke:#83899a;stroke-width:1.00000012px;stroke-linecap:round;stroke-linejoin:miter;stroke-opacity:1"
       id="path4302"
       d="m 121.5088,65.49995 -4.00168,0 m 4.00168,12 -4.00168,0 m 4.00168,12 -3.95406,0 m 3.95406,12 -4.00168,0 m 4.00168,12 -4.00168,0" />
    <path
       d="m 120.50286,66.49995 -2.98929,0"
       id="path4304"
       style="opacity:0.3;fill:none;stroke:#ffffff;stroke-width:0.99999994;stroke-linecap:round;stroke-linejoin:miter;stroke-opacity:1" />
    <path
       d="m 120.50286,90.49995 -2.98929,0"
       id="path4306"
       style="opacity:0.3;fill:none;stroke:#ffffff;stroke-width:0.99999994;stroke-linecap:round;stroke-linejoin:miter;stroke-opacity:1" />
    <path
       style="opacity:0.3;fill:none;stroke:#ffffff;stroke-width:0.99999994;stroke-linecap:round;stroke-linejoin:miter;stroke-opacity:1"
       id="path4308"
       d="m 120.50286,102.49995 -2.98929,0" />
    <path
       d="m 120.50286,114.49995 -2.98929,0"
       id="path4310"
       style="opacity:0.3;fill:none;stroke:#ffffff;stroke-width:0.99999994;stroke-linecap:round;stroke-linejoin:miter;stroke-opacity:1" />
  </g>
</svg>
