<?xml version="1.0" encoding="UTF-8" standalone="no"?>
<svg
   xmlns:dc="http://purl.org/dc/elements/1.1/"
   xmlns:cc="http://creativecommons.org/ns#"
   xmlns:rdf="http://www.w3.org/1999/02/22-rdf-syntax-ns#"
   xmlns:svg="http://www.w3.org/2000/svg"
   xmlns="http://www.w3.org/2000/svg"
   xmlns:xlink="http://www.w3.org/1999/xlink"
   xmlns:sodipodi="http://sodipodi.sourceforge.net/DTD/sodipodi-0.dtd"
   xmlns:inkscape="http://www.inkscape.org/namespaces/inkscape"
   version="1.1"
   width="128"
   height="128"
   id="svg3099"
   inkscape:version="0.91 r13725"
   sodipodi:docname="text-x-markdown.svg"
   inkscape:export-filename="/home/lains/Pictures/text-x-markdown-128-no-text.png"
   inkscape:export-xdpi="90"
   inkscape:export-ydpi="90">
  <sodipodi:namedview
     pagecolor="#ffffff"
     bordercolor="#666666"
     borderopacity="1"
     objecttolerance="10"
     gridtolerance="10"
     guidetolerance="10"
     inkscape:pageopacity="0"
     inkscape:pageshadow="2"
     inkscape:window-width="1920"
     inkscape:window-height="962"
     id="namedview40"
     showgrid="true"
     showguides="true"
     inkscape:guide-bbox="true"
     inkscape:zoom="2.6074563"
     inkscape:cx="297.27554"
     inkscape:cy="18.467446"
     inkscape:window-x="0"
     inkscape:window-y="30"
     inkscape:window-maximized="1"
     inkscape:current-layer="svg3099">
    <sodipodi:guide
       position="169.89739,86.482755"
       orientation="0,1"
       id="guide3449" />
    <sodipodi:guide
       position="181.97813,37.584523"
       orientation="0,1"
       id="guide3451" />
    <sodipodi:guide
       position="95.878886,-13.231286"
       orientation="1,0"
       id="guide3455" />
    <sodipodi:guide
       position="29.722455,-10.546677"
       orientation="1,0"
       id="guide3457" />
    <inkscape:grid
       type="xygrid"
       id="grid3464" />
  </sodipodi:namedview>
  <defs
     id="defs3101">
    <linearGradient
       x1="22.004084"
       y1="47.813133"
       x2="22.004084"
       y2="3.3638515"
       id="linearGradient3046"
       xlink:href="#linearGradient3104-5"
       gradientUnits="userSpaceOnUse"
       gradientTransform="matrix(2.6571407,0,0,2.6479618,-4.7622888,-7.034982)" />
    <linearGradient
       id="linearGradient3104-5">
      <stop
         id="stop3106-2"
         style="stop-color:#aaaaaa;stop-opacity:1"
         offset="0" />
      <stop
         id="stop3108-5"
         style="stop-color:#c8c8c8;stop-opacity:1"
         offset="1" />
    </linearGradient>
    <linearGradient
       x1="23.99999"
       y1="5.5641499"
       x2="23.99999"
       y2="42.194839"
       id="linearGradient3016"
       xlink:href="#linearGradient3977"
       gradientUnits="userSpaceOnUse"
       gradientTransform="matrix(2.4594595,0,0,3.1081081,4.9729852,-14.594559)" />
    <linearGradient
       id="linearGradient3977">
      <stop
         id="stop3979"
         style="stop-color:#ffffff;stop-opacity:1"
         offset="0" />
      <stop
         id="stop3981"
         style="stop-color:#ffffff;stop-opacity:0.23529412"
         offset="0.00648027" />
      <stop
         id="stop3983"
         style="stop-color:#ffffff;stop-opacity:0.15686275"
         offset="0.99423188" />
      <stop
         id="stop3985"
         style="stop-color:#ffffff;stop-opacity:0.39215687"
         offset="1" />
    </linearGradient>
    <linearGradient
       x1="25.132275"
       y1="0.98520643"
       x2="25.132275"
       y2="47.013336"
       id="linearGradient3019"
       xlink:href="#linearGradient3600"
       gradientUnits="userSpaceOnUse"
       gradientTransform="matrix(2.6571409,0,0,2.5422194,0.228619,-4.91283)" />
    <linearGradient
       id="linearGradient3600">
      <stop
         id="stop3602"
         style="stop-color:#f4f4f4;stop-opacity:1"
         offset="0" />
      <stop
         id="stop3604"
         style="stop-color:#dbdbdb;stop-opacity:1"
         offset="1" />
    </linearGradient>
    <linearGradient
       x1="25.058096"
       y1="47.027729"
       x2="25.058096"
       y2="39.999443"
       id="linearGradient3024"
       xlink:href="#linearGradient3702-501-757-486"
       gradientUnits="userSpaceOnUse"
       gradientTransform="matrix(3.1428572,0,0,1.2857143,-11.428573,61.571428)" />
    <linearGradient
       id="linearGradient3702-501-757-486">
      <stop
         id="stop3100"
         style="stop-color:#181818;stop-opacity:0"
         offset="0" />
      <stop
         id="stop3102"
         style="stop-color:#181818;stop-opacity:1"
         offset="0.5" />
      <stop
         id="stop3104"
         style="stop-color:#181818;stop-opacity:0"
         offset="1" />
    </linearGradient>
    <radialGradient
       cx="4.9929786"
       cy="43.5"
       r="2.5"
       fx="4.9929786"
       fy="43.5"
       id="radialGradient3027"
       xlink:href="#linearGradient3688-464-309-255"
       gradientUnits="userSpaceOnUse"
       gradientTransform="matrix(2.4045407,0,0,1.7999999,-32.014243,-195.8)" />
    <linearGradient
       id="linearGradient3688-464-309-255">
      <stop
         id="stop3094"
         style="stop-color:#181818;stop-opacity:1"
         offset="0" />
      <stop
         id="stop3096"
         style="stop-color:#181818;stop-opacity:0"
         offset="1" />
    </linearGradient>
    <linearGradient
       id="linearGradient3688-166-749-737">
      <stop
         id="stop3088"
         style="stop-color:#181818;stop-opacity:1"
         offset="0" />
      <stop
         id="stop3090"
         style="stop-color:#181818;stop-opacity:0"
         offset="1" />
    </linearGradient>
    <radialGradient
       cx="4.9929786"
       cy="43.5"
       r="2.5"
       fx="4.9929786"
       fy="43.5"
       id="radialGradient3097"
       xlink:href="#linearGradient3688-166-749-737"
       gradientUnits="userSpaceOnUse"
       gradientTransform="matrix(2.4045407,0,0,1.7999999,95.985757,39.200001)" />
    <linearGradient
       id="linearGradient2867-449-88-871-390-598-476-591-434-148-57-177-8-3-3">
      <stop
         offset="0"
         style="stop-color:#ffcd7d;stop-opacity:1"
         id="stop3750-1-0-7" />
      <stop
         offset="0.26238"
         style="stop-color:#fc8f36;stop-opacity:1"
         id="stop3752-3-7-4" />
      <stop
         offset="0.704952"
         style="stop-color:#e23a0e;stop-opacity:1"
         id="stop3754-1-8-5" />
      <stop
         offset="1"
         style="stop-color:#ac441f;stop-opacity:1"
         id="stop3756-1-6-2" />
    </linearGradient>
  </defs>
  <metadata
     id="metadata3104">
    <rdf:RDF>
      <cc:Work
         rdf:about="">
        <dc:format>image/svg+xml</dc:format>
        <dc:type
           rdf:resource="http://purl.org/dc/dcmitype/StillImage" />
        <dc:title />
      </cc:Work>
    </rdf:RDF>
  </metadata>
  <rect
     style="opacity:0.4;fill:url(#radialGradient3097);fill-opacity:1;stroke:none"
     id="rect2801"
     y="113"
     x="108"
     height="8.999999"
     width="6" />
  <rect
     style="opacity:0.4;fill:url(#radialGradient3027);fill-opacity:1;stroke:none"
     id="rect3696"
     transform="scale(-1,-1)"
     y="-122"
     x="-20"
     height="8.999999"
     width="6" />
  <rect
     style="opacity:0.4;fill:url(#linearGradient3024);fill-opacity:1;stroke:none"
     id="rect3700"
     y="113"
     x="20"
     height="9"
     width="88" />
  <path
     inkscape:connector-curvature="0"
     style="display:inline;fill:url(#linearGradient3019);fill-opacity:1;stroke:none"
     id="path4160"
     d="m 17.499929,1.500412 c 21.311061,0 93.000031,0.007 93.000031,0.007 l 1.1e-4,116.992628 c 0,0 -62.0001,0 -93.00014,0 0,-39.000029 0,-78.000054 0,-117.000079 z" />
  <path
     inkscape:connector-curvature="0"
     style="fill:none;stroke:url(#linearGradient3016);stroke-width:1;stroke-linecap:round;stroke-linejoin:round;stroke-miterlimit:4;stroke-dasharray:none;stroke-dashoffset:0;stroke-opacity:1"
     id="rect6741-1"
     d="m 109.5,117.5 -91,0 0,-115.000003 91,0 z" />
  <path
     inkscape:connector-curvature="0"
     style="display:inline;opacity:0.3;fill:none;stroke:#000000;stroke-width:0.99992186;stroke-linecap:butt;stroke-linejoin:round;stroke-miterlimit:4;stroke-dasharray:none;stroke-dashoffset:0;stroke-opacity:1"
     id="path4160-4"
     d="m 17.499929,1.500412 c 21.311061,0 93.000031,0.007 93.000031,0.007 l 1.1e-4,116.992628 c 0,0 -62.0001,0 -93.00014,0 0,-39.000029 0,-78.000054 0,-117.000079 z" />
  <path
     style="color:#000000;font-style:normal;font-variant:normal;font-weight:normal;font-stretch:normal;font-size:medium;line-height:normal;font-family:sans-serif;text-indent:0;text-align:start;text-decoration:none;text-decoration-line:none;text-decoration-style:solid;text-decoration-color:#000000;letter-spacing:normal;word-spacing:normal;text-transform:none;direction:ltr;block-progression:tb;writing-mode:lr-tb;baseline-shift:baseline;text-anchor:start;white-space:normal;clip-rule:nonzero;display:inline;overflow:visible;visibility:visible;opacity:1;isolation:auto;mix-blend-mode:normal;color-interpolation:sRGB;color-interpolation-filters:linearRGB;solid-color:#000000;solid-opacity:1;fill:url(#linearGradient3046);fill-opacity:1;fill-rule:nonzero;stroke:none;stroke-width:1px;stroke-linecap:butt;stroke-linejoin:miter;stroke-miterlimit:4;stroke-dasharray:none;stroke-dashoffset:0;stroke-opacity:1;color-rendering:auto;image-rendering:auto;shape-rendering:auto;text-rendering:auto;enable-background:accumulate"
     d="m 29.732651,22.574219 0,1 6.22851,0 0,-1 -6.22851,0 z m 7.14062,0 0,1 5.8125,0 0,-1 -5.8125,0 z m 6.72656,0 0,1 5.14844,0 0,-1 -5.14844,0 z m 5.97852,0 0,1 2.24219,0 0,-1 -2.24219,0 z m 3.15625,0 0,1 4.98242,0 0,-1 -4.98242,0 z m 5.97851,0 0,1 13.11914,0 0,-1 -13.11914,0 z m 13.94922,0 0,1 10.04688,0 0,-1 -10.04688,0 z m 10.87696,0 0,1 3.07421,0 0,-1 -3.07421,0 z m -53.80664,6 0,1 9.71484,0 0,-1 -9.71484,0 z m 10.79492,0 0,1 4.65039,0 0,-1 -4.65039,0 z m 5.48047,0 0,1 2.32421,0 0,-1 -2.32421,0 z m 3.23828,0 0,1 4.23437,0 0,-1 -4.23437,0 z m 5.14843,0 0,1 4.31836,0 0,-1 -4.31836,0 z m 5.14844,0 0,1 6.89258,0 0,-1 -6.89258,0 z m 7.80469,0 0,1 8.96875,0 0,-1 -8.96875,0 z m 9.79883,0 0,1 5.97851,0 0,-1 -5.97851,0 z m 6.80859,0 0,1 1.49414,0 0,-1 -1.49414,0 z m -54.22265,5.958984 0,1 8.2207,0 0,-1 -8.2207,0 z m 9.05078,0 0,1 13.45312,0 0,-1 -13.45312,0 z m 14.2832,0 0,1 6.55859,0 0,-1 -6.55859,0 z m 7.39062,0 0,1 6.14454,0 0,-1 -6.14454,0 z m 6.97461,0 0,1 5.23047,0 0,-1 -5.23047,0 z m 6.06641,0 -0.01172,1 8.2207,0.08203 0.01172,-1 -8.2207,-0.08203 z m 8.96289,0.08203 0,1 13.36914,0 0,-1 -13.36914,0 z m -52.72851,5.958985 0,1 11.37695,0 0,-1 -11.37695,0 z m 12.28906,0 0,1 12.28906,0 0,-1 -12.28906,0 z m 13.12109,0 0,1 4.89844,0 0,-1 -4.89844,0 z m 5.72852,0 0,1 11.54297,0 0,-1 -11.54297,0 z m 12.28906,0 0,1 7.88867,0 0,-1 -7.88867,0 z m 8.80273,0 0,1 3.1543,0 0,-1 -3.1543,0 z m 3.98438,0 0,1 1.74414,0 0,-1 -1.74414,0 z m 2.6582,0 0,1 4.89844,0 0,-1 -4.89844,0 z m -58.87304,50 0,1 9.71484,0 0,-1 -9.71484,0 z m 10.79492,0 0,1 4.65039,0 0,-1 -4.65039,0 z m 5.48047,0 0,1 2.32421,0 0,-1 -2.32421,0 z m 3.23828,0 0,1 4.23437,0 0,-1 -4.23437,0 z m 5.14843,0 0,1 4.31836,0 0,-1 -4.31836,0 z m 5.14844,0 0,1 6.89258,0 0,-1 -6.89258,0 z m 7.80469,0 0,1 8.96875,0 0,-1 -8.96875,0 z m 9.79883,0 0,1 5.97851,0 0,-1 -5.97851,0 z m 6.80859,0 0,1 1.49414,0 0,-1 -1.49414,0 z m -54.22265,6 0,1 10.29687,0 0,-1 -10.29687,0 z m 11.21093,0 0,1 3.23828,0 0,-1 -3.23828,0 z m 4.06836,0 0,1 7.39063,0 0,-1 -7.39063,0 z m 8.22071,0 0,1 10.87695,0 0,-1 -10.87695,0 z m 11.79101,0 0,1 7.39063,0 0,-1 -7.39063,0 z m 8.13672,0 0,1 1.57812,0 0,-1 -1.57812,0 z m 2.4082,0 0,1 9.38281,0 0,-1 -9.38281,0 z m 10.37891,0 0,1 4.90039,0 0,-1 -4.90039,0 z m -56.21484,6.000001 0,1 10.29687,0 0,-1 -10.29687,0 z m 11.21093,0 0,1 4.64844,0 0,-1 -4.64844,0 z m 5.48047,0 0,1 7.30664,0 0,-1 -7.30664,0 z m 8.13672,0 0,1 7.88867,0 0,-1 -7.88867,0 z m 8.80273,0 0,1 3.1543,0 0,-1 -3.1543,0 z m 3.98438,0 0,1 1.74414,0 0,-1 -1.74414,0 z m 2.6582,0 0,1 4.89844,0 0,-1 -4.89844,0 z"
     id="path3475"
     inkscape:connector-curvature="0" />
  <rect
     style="fill:none;stroke:#1a1a1a;stroke-width:2.63276792"
     width="52.128803"
     height="31.06666"
     x="36.388706"
     y="49.975761"
     ry="2.6327679"
     id="rect3432" />
  <path
     inkscape:connector-curvature="0"
     style="fill:#1a1a1a"
     d="m 42.970624,74.460501 0,-17.902821 5.265536,0 5.265536,6.58192 5.265535,-6.58192 5.265536,0 0,17.902821 -5.265536,0 0,-10.267794 -5.265535,6.58192 -5.265536,-6.58192 0,10.267794 z"
     id="path3434" />
  <path
     inkscape:connector-curvature="0"
     style="fill:#1a1a1a"
     d="m 75.880222,74.460501 -7.898303,-8.688133 5.265535,0 0,-9.214688 5.265536,0 0,9.214688 5.265535,0 z"
     id="path3436" />
</svg>
