<svg xmlns="http://www.w3.org/2000/svg" xmlns:xlink="http://www.w3.org/1999/xlink" viewBox="0 0 24 24"><defs><linearGradient x1="32.892" y1="8.059" x2="36.358" y2="5.457" id="o" xlink:href="#a" gradientUnits="userSpaceOnUse" gradientTransform="matrix(.52285 0 0 .5325 -1.476 -7.037)"/><linearGradient id="a"><stop offset="0" stop-color="#fefefe"/><stop offset="1" stop-color="#cbcbcb"/></linearGradient><radialGradient cx="102" cy="112.305" r="139.559" id="n" xlink:href="#b" gradientUnits="userSpaceOnUse" gradientTransform="matrix(.22322 0 0 -.24412 -4.713 23.077)"/><radialGradient cx="102" cy="112.305" r="139.559" id="b" gradientUnits="userSpaceOnUse"><stop offset="0" stop-color="#b7b8b9"/><stop offset=".189" stop-color="#ececec"/><stop offset=".257" stop-color="#fafafa" stop-opacity="0"/><stop offset=".301" stop-color="#fff" stop-opacity="0"/><stop offset=".531" stop-color="#fafafa" stop-opacity="0"/><stop offset=".845" stop-color="#ebecec" stop-opacity="0"/><stop offset="1" stop-color="#e1e2e3" stop-opacity="0"/></radialGradient><linearGradient x1="-51.786" y1="50.786" x2="-51.786" y2="2.906" id="m" xlink:href="#c" gradientUnits="userSpaceOnUse" gradientTransform="matrix(.3922 0 0 .42703 29.2 -8.16)"/><linearGradient id="c"><stop offset="0" stop-opacity=".34"/><stop offset="1" stop-opacity=".247"/></linearGradient><linearGradient x1="24" y1="5.564" x2="24" y2="43" id="l" xlink:href="#d" gradientUnits="userSpaceOnUse" gradientTransform="matrix(.4054 0 0 .5135 2.27 -8.324)"/><linearGradient id="d"><stop offset="0" stop-color="#fff"/><stop offset=".036" stop-color="#fff" stop-opacity=".235"/><stop offset=".951" stop-color="#fff" stop-opacity=".157"/><stop offset="1" stop-color="#fff" stop-opacity=".392"/></linearGradient><linearGradient x1="25.132" y1=".985" x2="25.132" y2="47.013" id="k" xlink:href="#e" gradientUnits="userSpaceOnUse" gradientTransform="matrix(.45714 0 0 .43457 1.03 -7.096)"/><linearGradient id="e"><stop offset="0" stop-color="#f4f4f4"/><stop offset="1" stop-color="#dbdbdb"/></linearGradient><radialGradient cx="605.714" cy="486.648" r="117.143" fx="605.714" fy="486.648" id="j" xlink:href="#f" gradientUnits="userSpaceOnUse" gradientTransform="matrix(.01205 0 0 .00824 13.24 10.98)"/><linearGradient id="f"><stop offset="0"/><stop offset="1" stop-opacity="0"/></linearGradient><radialGradient cx="605.714" cy="486.648" r="117.143" fx="605.714" fy="486.648" id="i" xlink:href="#f" gradientUnits="userSpaceOnUse" gradientTransform="matrix(-.01205 0 0 .00824 10.76 10.98)"/><linearGradient id="g"><stop offset="0" stop-opacity="0"/><stop offset=".5"/><stop offset="1" stop-opacity="0"/></linearGradient><linearGradient x1="302.857" y1="366.648" x2="302.857" y2="609.505" id="h" xlink:href="#g" gradientUnits="userSpaceOnUse" gradientTransform="matrix(.0352 0 0 .00824 -.725 10.98)"/></defs><path opacity=".15" fill="url(#h)" overflow="visible" d="M3.5 14h17v2h-17z" transform="translate(0 8)"/><path d="M3.5 14v2c-.62.004-1.5-.448-1.5-1s.692-1 1.5-1z" opacity=".15" fill="url(#i)" overflow="visible" transform="translate(0 8)"/><path d="M20.5 14v2c.62.004 1.5-.448 1.5-1s-.692-1-1.5-1z" opacity=".15" fill="url(#j)" overflow="visible" transform="translate(0 8)"/><path d="M4-6h9.68L20 0v14H4V-6z" fill="url(#k)" transform="translate(0 8)"/><path d="M19.5 13.5h-15v-19h9.217L19.5-1.468z" fill="none" stroke="url(#l)" stroke-linecap="round" transform="translate(0 8)"/><path d="M3.5-6.5h10.213c.95 0 6.787 4.887 6.787 6.5v14.5h-17v-21z" fill="none" stroke="url(#m)" stroke-linejoin="round" transform="translate(0 8)"/><path d="M13.654-5.956L20 0c0 19.378-20.95-5.956-6.346-5.956z" fill="url(#n)" transform="translate(0 8)"/><path d="M10.886 2.045C12.39 2.045 12 10 12 10s8-2.128 8 0c0-.52.097-1.838-.007-2-.745-1.163-4.964-5.496-6.126-5.838-1.636-.172-2.98-.117-2.98-.117z" opacity=".05" fill-rule="evenodd"/><path d="M11.592 2C13.165 2 13 9 13 9s7.055-1.226 7.055 1c0-.542.042-1.43-.066-1.6-.78-1.216-5.138-6-6.35-6.357-.98-.08-2.05-.043-2.05-.043z" opacity=".12" fill-rule="evenodd"/><path d="M12.5-6c1.67 0 1.495 6 1.495 6s5.996-.365 5.996 2c0-.576.05-2.143-.07-2.323-.893-1.72-5.003-5.297-6.293-5.677-.266-.008-.858.015-1.123 0z" fill="url(#o)" fill-rule="evenodd" transform="translate(0 8)"/></svg>