<?xml version="1.0" encoding="UTF-8" standalone="no"?>
<svg
   id="svg2"
   height="24"
   width="24"
   version="1.2"
   xmlns:xlink="http://www.w3.org/1999/xlink"
   xmlns="http://www.w3.org/2000/svg"
   xmlns:svg="http://www.w3.org/2000/svg"
   xmlns:rdf="http://www.w3.org/1999/02/22-rdf-syntax-ns#"
   xmlns:cc="http://creativecommons.org/ns#"
   xmlns:dc="http://purl.org/dc/elements/1.1/">
  <defs
     id="defs4">
    <linearGradient
       id="linearGradient4011">
      <stop
         offset="0"
         style="stop-color:#ffffff;stop-opacity:1"
         id="stop4013" />
      <stop
         offset="0.507761"
         style="stop-color:#ffffff;stop-opacity:0.23529412"
         id="stop4015-3" />
      <stop
         offset="0.83456558"
         style="stop-color:#ffffff;stop-opacity:0.15686275"
         id="stop4017-2" />
      <stop
         offset="1"
         style="stop-color:#ffffff;stop-opacity:0.39215687"
         id="stop4019" />
    </linearGradient>
    <linearGradient
       id="linearGradient27416-1-5">
      <stop
         offset="0"
         style="stop-color:#9bdb4d;stop-opacity:1"
         id="stop27420-2-2" />
      <stop
         offset="1"
         style="stop-color:#68b723;stop-opacity:1"
         id="stop27422-3-2" />
    </linearGradient>
    <linearGradient
       gradientTransform="matrix(0.5135135,0,0,0.5135135,-24.83614,-1.0212801)"
       gradientUnits="userSpaceOnUse"
       xlink:href="#linearGradient4011"
       id="linearGradient12398-3"
       y2="44.340794"
       x2="71.204407"
       y1="6.2375584"
       x1="71.204407" />
    <linearGradient
       gradientTransform="matrix(0.8047894,0,0,0.60165743,-1628.8199,-1928.0804)"
       gradientUnits="userSpaceOnUse"
       xlink:href="#linearGradient27416-1-5"
       id="linearGradient11527-6-5"
       y2="3241.9966"
       x2="2035.1652"
       y1="3208.0737"
       x1="2035.1652" />
  </defs>
  <metadata
     id="metadata7">
    <rdf:RDF>
      <cc:Work
         rdf:about="">
        <dc:format>image/svg+xml</dc:format>
        <dc:type
           rdf:resource="http://purl.org/dc/dcmitype/StillImage" />
      </cc:Work>
    </rdf:RDF>
  </metadata>
  <path
     style="color:#000000;display:inline;overflow:visible;visibility:visible;opacity:0.98999999;fill:url(#linearGradient11527-6-5);fill-opacity:1;fill-rule:nonzero;stroke:none;stroke-width:0.99999982;marker:none;enable-background:accumulate"
     id="path2555-7-8-5-0-9"
     d="M 12,1.4999999 C 6.2064599,1.4999999 1.4999999,6.2064599 1.4999999,12 1.4999999,17.79354 6.2064599,22.5 12,22.5 17.79354,22.5 22.50001,17.79354 22.5,12 22.5,6.2064599 17.79354,1.4999999 12,1.4999999 Z" />
  <path
     id="path873-5-6"
     style="font-variation-settings:normal;opacity:0.07;vector-effect:none;fill:#206b00;fill-opacity:1;stroke:none;stroke-width:1;stroke-linecap:butt;stroke-linejoin:miter;stroke-miterlimit:4;stroke-dasharray:none;stroke-dashoffset:0;stroke-opacity:1;-inkscape-stroke:none;marker:none;stop-color:#000000;stop-opacity:1"
     d="M 11.75,5 C 10.773893,5 9.9951893,5.8319586 9.9960938,6.7832031 V 10.996094 H 7.75 c -0.976109,0 -1.7539062,0.833104 -1.7539062,1.783203 -10e-8,0.512464 0.2185857,0.991196 0.5761718,1.320312 L 6.5253906,14.054688 10.75,18.484375 a 1.0040066,1.0040066 0 0 0 0.02344,0.02344 c 0.306755,0.300435 0.744583,0.500001 1.216796,0.5 0.47219,10e-7 0.910028,-0.199538 1.216797,-0.5 a 1.0040066,1.0040066 0 0 0 0.02149,-0.02148 l 4.24414,-4.429687 -0.04492,0.04297 c 0.357619,-0.329129 0.576172,-0.807872 0.576172,-1.320312 0,-0.950096 -0.777798,-1.783203 -1.753906,-1.783203 H 14.003906 V 6.7832031 C 14.003906,5.8331079 13.226107,5 12.25,5 Z"
     transform="translate(0,1)" />
  <path
     style="color:#000000;display:inline;overflow:visible;visibility:visible;opacity:0.5;fill:none;stroke:#206b00;stroke-width:0.99999988;stroke-linecap:round;stroke-linejoin:round;stroke-miterlimit:4;stroke-dasharray:none;stroke-dashoffset:0;stroke-opacity:1;marker:none;enable-background:accumulate"
     id="path2555-7-8-5-1"
     d="M 12,1.4999999 C 6.2064599,1.4999999 1.4999999,6.2064599 1.4999999,12 1.4999999,17.79354 6.2064599,22.5 12,22.5 17.79354,22.5 22.50001,17.79354 22.5,12 22.5,6.2064599 17.79354,1.4999999 12,1.4999999 Z" />
  <path
     style="color:#000000;display:inline;overflow:visible;visibility:visible;opacity:0.5;fill:none;stroke:url(#linearGradient12398-3);stroke-width:0.99999988;stroke-linecap:round;stroke-linejoin:round;stroke-miterlimit:4;stroke-dasharray:none;stroke-dashoffset:0;stroke-opacity:1;marker:none;enable-background:accumulate"
     id="path8655-6-0-9-5-0"
     d="m 21.49999,11.99966 c 0,5.24688 -4.25361,9.50034 -9.49988,9.50034 -5.2467501,0 -9.5001101,-4.25351 -9.5001101,-9.50034 0,-5.2466301 4.25336,-9.4996601 9.5001101,-9.4996601 5.24627,0 9.49988,4.25303 9.49988,9.4996601 z" />
  <path
     id="path873-5-3"
     style="font-variation-settings:normal;vector-effect:none;fill:#206b00;fill-opacity:1;stroke:none;stroke-width:1;stroke-linecap:butt;stroke-linejoin:miter;stroke-miterlimit:4;stroke-dasharray:none;stroke-dashoffset:0;stroke-opacity:1;-inkscape-stroke:none;marker:none;stop-color:#000000;opacity:0.2;stop-opacity:1"
     d="m 17,13.773933 c 0,-0.431218 -0.334646,-0.778372 -0.750328,-0.778372 H 7.750326 C 7.334646,12.995561 7,13.342715 7,13.773933 c 0,0.23241 0.09736,0.439875 0.252062,0.58226 l 4.223785,4.43097 C 11.610226,18.918773 11.79084,19 11.990232,19 c 0.199392,0 0.380005,-0.08122 0.514385,-0.212837 l 4.24332,-4.43097 C 16.902647,14.213808 17,14.006343 17,13.773933 Z" />
  <path
     id="path873-5"
     style="font-variation-settings:normal;opacity:1;vector-effect:none;fill:#ffffff;fill-opacity:1;stroke:none;stroke-width:1;stroke-linecap:butt;stroke-linejoin:miter;stroke-miterlimit:4;stroke-dasharray:none;stroke-dashoffset:0;stroke-opacity:1;-inkscape-stroke:none;marker:none;stop-color:#000000;stop-opacity:1"
     d="M 17,12.778372 C 17,12.347154 16.665354,12 16.249672,12 H 13 V 6.782811 C 13,6.351592 12.665354,6.004439 12.249672,6.004439 H 11.750328 C 11.334646,6.004439 10.99959,6.351592 11,6.782811 V 12 H 7.750326 C 7.334646,12 7,12.347154 7,12.778372 c 0,0.23241 0.09736,0.439875 0.252062,0.58226 l 4.223785,4.43097 c 0.134379,0.13161 0.314993,0.212837 0.514385,0.212837 0.199392,0 0.380005,-0.08122 0.514385,-0.212837 l 4.24332,-4.43097 C 16.902647,13.218247 17,13.010782 17,12.778372 Z" />
</svg>
