<?xml version="1.0" encoding="UTF-8" standalone="no"?>
<!-- Created with Inkscape (http://www.inkscape.org/) -->

<svg
   xmlns:svg="http://www.w3.org/2000/svg"
   xmlns="http://www.w3.org/2000/svg"
   version="1.0"
   width="24"
   height="24"
   id="svg3154">
  <defs
     id="defs3156" />
  <g
     id="layer1">
    <path
       d="m 20,15.733552 c -1.099593,3.065583 -4.291812,5.256033 -7.635557,5.264077 C 9.0541807,21.079722 5.8255216,19.022557 4.6164005,16.026048 3.2994112,13.034904 4.1486488,9.3218647 6.6308619,7.1401885 8.9698089,4.9790362 12.652956,4.3828597 15.59005,5.6812687 c 1.158007,0.4758196 2.177779,1.2358436 2.977686,2.1746551 L 6.0149646,18.071003"
       id="path3205"
       style="opacity:0.6;fill:none;stroke:white;stroke-width:2;stroke-linecap:butt;stroke-linejoin:miter;stroke-miterlimit:4;stroke-opacity:1;stroke-dasharray:none;stroke-dashoffset:0;marker:none;visibility:visible;display:inline;overflow:visible;enable-background:accumulate" />
    <path
       d="m 20,14.733552 c -1.099593,3.065583 -4.291812,5.256033 -7.635557,5.264077 C 9.0541807,20.079722 5.8255216,18.022557 4.6164005,15.026048 3.2994112,12.034904 4.1486488,8.3218647 6.6308619,6.1401885 8.9698089,3.9790362 12.652956,3.3828597 15.59005,4.6812687 c 1.158007,0.4758196 2.177779,1.2358436 2.977686,2.1746551 L 6.0149646,17.071003"
       id="path2386"
       style="opacity:0.6;fill:none;stroke:black;stroke-width:1.99999964;stroke-linecap:butt;stroke-linejoin:miter;stroke-miterlimit:4;stroke-opacity:1;stroke-dasharray:none;stroke-dashoffset:0;marker:none;visibility:visible;display:inline;overflow:visible;enable-background:accumulate" />
  </g>
</svg>
