<?xml version="1.0" encoding="UTF-8" standalone="no"?>
<!-- Created with Inkscape (http://www.inkscape.org/) -->
<svg
   xmlns:dc="http://purl.org/dc/elements/1.1/"
   xmlns:cc="http://creativecommons.org/ns#"
   xmlns:rdf="http://www.w3.org/1999/02/22-rdf-syntax-ns#"
   xmlns:svg="http://www.w3.org/2000/svg"
   xmlns="http://www.w3.org/2000/svg"
   xmlns:xlink="http://www.w3.org/1999/xlink"
   xmlns:sodipodi="http://sodipodi.sourceforge.net/DTD/sodipodi-0.dtd"
   xmlns:inkscape="http://www.inkscape.org/namespaces/inkscape"
   version="1.0"
   width="22"
   height="22"
   id="svg3263"
   sodipodi:version="0.32"
   inkscape:version="0.46"
   sodipodi:docname="nm-adhoc.svg"
   inkscape:output_extension="org.inkscape.output.svg.inkscape">
  <metadata
     id="metadata17">
    <rdf:RDF>
      <cc:Work
         rdf:about="">
        <dc:format>image/svg+xml</dc:format>
        <dc:type
           rdf:resource="http://purl.org/dc/dcmitype/StillImage" />
      </cc:Work>
    </rdf:RDF>
  </metadata>
  <sodipodi:namedview
     inkscape:window-height="706"
     inkscape:window-width="640"
     inkscape:pageshadow="2"
     inkscape:pageopacity="0.0"
     guidetolerance="10.0"
     gridtolerance="10.0"
     objecttolerance="10.0"
     borderopacity="1.0"
     bordercolor="#666666"
     pagecolor="#ffffff"
     id="base"
     showgrid="false"
     inkscape:zoom="10.375"
     inkscape:cx="12"
     inkscape:cy="12"
     inkscape:window-x="399"
     inkscape:window-y="51"
     inkscape:current-layer="svg3263" />
  <defs
     id="defs3265">
    <inkscape:perspective
       sodipodi:type="inkscape:persp3d"
       inkscape:vp_x="0 : 12 : 1"
       inkscape:vp_y="0 : 1000 : 0"
       inkscape:vp_z="24 : 12 : 1"
       inkscape:persp3d-origin="12 : 8 : 1"
       id="perspective19" />
    <linearGradient
       x1="-33.805603"
       y1="3"
       x2="-33.805603"
       y2="15.041595"
       id="linearGradient2393"
       xlink:href="#linearGradient3587-6-5"
       gradientUnits="userSpaceOnUse"
       gradientTransform="translate(45.805604,1)" />
    <linearGradient
       x1="-33.805603"
       y1="16"
       x2="-33.805603"
       y2="19"
       id="linearGradient2390"
       xlink:href="#linearGradient3587-6-5"
       gradientUnits="userSpaceOnUse"
       gradientTransform="translate(45.805604,1)" />
    <linearGradient
       id="linearGradient3587-6-5">
      <stop
         id="stop3589-9-2"
         style="stop-color:#000000;stop-opacity:1"
         offset="0" />
      <stop
         id="stop3591-7-4"
         style="stop-color:#363636;stop-opacity:1"
         offset="1" />
    </linearGradient>
    <linearGradient
       x1="11.185863"
       y1="7.499156"
       x2="11.185863"
       y2="13.10627"
       id="linearGradient3257"
       xlink:href="#linearGradient3587-6-5"
       gradientUnits="userSpaceOnUse" />
    <linearGradient
       inkscape:collect="always"
       xlink:href="#linearGradient3587-6-5"
       id="linearGradient2394"
       gradientUnits="userSpaceOnUse"
       x1="11.185863"
       y1="7.499156"
       x2="11.185863"
       y2="13.10627"
       gradientTransform="translate(-1,-1)" />
    <linearGradient
       inkscape:collect="always"
       xlink:href="#linearGradient3587-6-5"
       id="linearGradient2397"
       gradientUnits="userSpaceOnUse"
       gradientTransform="translate(44.805604,0)"
       x1="-33.805603"
       y1="16"
       x2="-33.805603"
       y2="19" />
    <linearGradient
       inkscape:collect="always"
       xlink:href="#linearGradient3587-6-5"
       id="linearGradient2400"
       gradientUnits="userSpaceOnUse"
       gradientTransform="translate(44.805604,0)"
       x1="-33.805603"
       y1="3"
       x2="-33.805603"
       y2="15.041595" />
  </defs>
  <path
     style="opacity:0.6;fill:none;fill-rule:evenodd;stroke:#ffffff;stroke-width:1px;stroke-linecap:round;stroke-linejoin:miter;stroke-opacity:1"
     id="path3259"
     d="M 8.5026178,10.999554 C 8.5026178,10.999554 9,9.999555 11,9.999555 C 13,9.999555 13.497382,11.041439 13.497382,11.041439 M 7,9.507408 C 7,9.507408 7.9817579,7.9574155 11,7.999555 C 14.018242,8.0416945 15,9.507408 15,9.507408 M 10.434555,12.565 C 10.434555,12.565 10.413613,11.999555 11,11.999555 C 11.576517,11.999555 11.481675,12.565 11.481675,12.565" />
  <path
     style="opacity:0.6;fill:#ffffff;fill-opacity:1;fill-rule:nonzero;stroke:none;stroke-width:1;stroke-linecap:square;stroke-linejoin:miter;marker:none;marker-start:none;marker-mid:none;marker-end:none;stroke-miterlimit:4;stroke-dasharray:none;stroke-dashoffset:0;stroke-opacity:1;visibility:visible;display:inline;overflow:visible;enable-background:accumulate"
     id="path3287"
     d="M 4,4 C 3.446,4 3,4.4893865 3,5.09375 L 3,14.90625 C 3,15.510614 3.446,16 4,16 L 18,16 C 18.554,16 19,15.510614 19,14.90625 L 19,5.09375 C 19,4.4893863 18.554,4 18,4 L 4,4 z M 5,6 L 17,6 L 17,14 L 5,14 L 5,6 z M 8,17 L 14,17 L 14,18 L 16,18 L 16,20 L 6,20 L 6,18 L 8,18 L 8,17 z" />
  <path
     style="opacity:0.7;fill:url(#linearGradient2400);fill-opacity:1;fill-rule:nonzero;stroke:none;stroke-width:1;stroke-linecap:square;stroke-linejoin:miter;marker:none;marker-start:none;marker-mid:none;marker-end:none;stroke-miterlimit:4;stroke-dasharray:none;stroke-dashoffset:0;stroke-opacity:1;visibility:visible;display:inline;overflow:visible;enable-background:accumulate"
     id="rect2722"
     d="M 4,3 C 3.446,3 3,3.4893865 3,4.09375 L 3,13.90625 C 3,14.510614 3.446,15 4,15 L 18,15 C 18.554,15 19,14.510614 19,13.90625 L 19,4.09375 C 19,3.4893863 18.554,3 18,3 L 4,3 z M 5,5 L 17,5 L 17,13 L 5,13 L 5,5 z" />
  <path
     style="opacity:0.7;fill:url(#linearGradient2397);fill-opacity:1;fill-rule:nonzero;stroke:none;stroke-width:1;stroke-linecap:square;stroke-linejoin:miter;marker:none;marker-start:none;marker-mid:none;marker-end:none;stroke-miterlimit:4;stroke-dasharray:none;stroke-dashoffset:0;stroke-opacity:1;visibility:visible;display:inline;overflow:visible;enable-background:accumulate"
     id="path3271"
     d="M 8,16 L 14,16 L 14,17 L 16,17 L 16,19 L 6,19 L 6,17 L 8,17 L 8,16 z" />
  <path
     style="opacity:0.7;fill:none;fill-rule:evenodd;stroke:url(#linearGradient2394);stroke-width:1px;stroke-linecap:round;stroke-linejoin:miter;stroke-opacity:1"
     id="path3445"
     d="M 8.5026178,9.999999 C 8.5026178,9.999999 9,9 11,9 C 13,9 13.497382,10.041884 13.497382,10.041884 M 7,8.5078534 C 7,8.5078534 7.9817579,6.9578605 11,7 C 14.018242,7.0421395 15,8.5078534 15,8.5078534 M 10.434555,11.565445 C 10.434555,11.565445 10.413613,11 11,11 C 11.576517,11 11.481675,11.565445 11.481675,11.565445" />
</svg>
