<?xml version="1.0" encoding="UTF-8" standalone="no"?>
<!-- Created with Inkscape (http://www.inkscape.org/) -->

<svg
   xmlns:dc="http://purl.org/dc/elements/1.1/"
   xmlns:cc="http://creativecommons.org/ns#"
   xmlns:rdf="http://www.w3.org/1999/02/22-rdf-syntax-ns#"
   xmlns:svg="http://www.w3.org/2000/svg"
   xmlns="http://www.w3.org/2000/svg"
   xmlns:xlink="http://www.w3.org/1999/xlink"
   xmlns:sodipodi="http://sodipodi.sourceforge.net/DTD/sodipodi-0.dtd"
   xmlns:inkscape="http://www.inkscape.org/namespaces/inkscape"
   version="1.1"
   width="22"
   height="22"
   id="svg3718"
   inkscape:version="0.47 r22583"
   sodipodi:docname="gpm-battery-000.svg">
  <metadata
     id="metadata7634">
    <rdf:RDF>
      <cc:Work
         rdf:about="">
        <dc:format>image/svg+xml</dc:format>
        <dc:type
           rdf:resource="http://purl.org/dc/dcmitype/StillImage" />
      </cc:Work>
    </rdf:RDF>
  </metadata>
  <sodipodi:namedview
     pagecolor="#ffffff"
     bordercolor="#666666"
     borderopacity="1"
     objecttolerance="10"
     gridtolerance="10"
     guidetolerance="10"
     inkscape:pageopacity="0"
     inkscape:pageshadow="2"
     inkscape:window-width="1280"
     inkscape:window-height="753"
     id="namedview7632"
     showgrid="false"
     inkscape:zoom="13.409091"
     inkscape:cx="-0.41016941"
     inkscape:cy="11"
     inkscape:window-x="0"
     inkscape:window-y="24"
     inkscape:window-maximized="1"
     inkscape:current-layer="svg3718" />
  <defs
     id="defs3720">
    <inkscape:perspective
       sodipodi:type="inkscape:persp3d"
       inkscape:vp_x="0 : 11 : 1"
       inkscape:vp_y="0 : 1000 : 0"
       inkscape:vp_z="22 : 11 : 1"
       inkscape:persp3d-origin="11 : 7.3333333 : 1"
       id="perspective25" />
    <linearGradient
       x1="11.376964"
       y1="14.98917"
       x2="11.376964"
       y2="17.01939"
       id="linearGradient3469"
       xlink:href="#linearGradient3187"
       gradientUnits="userSpaceOnUse"
       gradientTransform="translate(-1,-7.0000003)" />
    <linearGradient
       id="linearGradient3187">
      <stop
         id="stop3189"
         style="stop-color:#a60000;stop-opacity:1"
         offset="0" />
      <stop
         id="stop3191"
         style="stop-color:#ff1313;stop-opacity:1"
         offset="1" />
    </linearGradient>
    <linearGradient
       x1="11.376964"
       y1="7"
       x2="11.376964"
       y2="17.01939"
       id="linearGradient3463"
       xlink:href="#linearGradient3187"
       gradientUnits="userSpaceOnUse"
       gradientTransform="translate(-1,-7.0000003)" />
    <linearGradient
       x1="12"
       y1="1.9895233"
       x2="12"
       y2="21"
       id="linearGradient2392"
       xlink:href="#linearGradient3187"
       gradientUnits="userSpaceOnUse"
       gradientTransform="translate(-1,-7.0000003)" />
    <linearGradient
       inkscape:collect="always"
       xlink:href="#linearGradient7300"
       id="linearGradient7287"
       gradientUnits="userSpaceOnUse"
       gradientTransform="translate(-1,-0.9999995)"
       x1="11.376964"
       y1="14.98917"
       x2="11.376964"
       y2="17.01939" />
    <linearGradient
       id="linearGradient7300">
      <stop
         offset="0"
         style="stop-color:#ff5a5a;stop-opacity:1;"
         id="stop7302" />
      <stop
         offset="0.704952"
         style="stop-color:#de4040;stop-opacity:1;"
         id="stop7304" />
      <stop
         offset="1"
         style="stop-color:#bd2121;stop-opacity:1;"
         id="stop7306" />
    </linearGradient>
    <linearGradient
       inkscape:collect="always"
       xlink:href="#linearGradient7300"
       id="linearGradient7290"
       gradientUnits="userSpaceOnUse"
       gradientTransform="translate(-1,-0.9999995)"
       x1="11.376964"
       y1="7"
       x2="11.376964"
       y2="17.01939" />
    <linearGradient
       inkscape:collect="always"
       xlink:href="#linearGradient7300"
       id="linearGradient7293"
       gradientUnits="userSpaceOnUse"
       gradientTransform="translate(-1,-0.9999995)"
       x1="12"
       y1="1.9895233"
       x2="12"
       y2="21" />
  </defs>
  <path
     d="m 11,7.0000005 c -0.554,0 -1,0.446 -1,1 L 10,13 c 0,0.554 0.446,1 1,1 0.554,0 1,-0.446 1,-1 l 0,-4.9999995 c 0,-0.554 -0.446,-1 -1,-1 z M 10.75,15 C 10.3345,15 10,15.3345 10,15.75 l 0,0.5 c 0,0.4155 0.3345,0.75 0.75,0.75 l 0.5,0 C 11.6655,17 12,16.6655 12,16.25 l 0,-0.5 C 12,15.3345 11.6655,15 11.25,15 l -0.5,0 z"
     id="path3471-5"
     style="opacity:0.5;fill:#000000;fill-opacity:1;fill-rule:nonzero;stroke:none;stroke-width:1;marker:none;visibility:visible;display:inline;overflow:visible;enable-background:accumulate" />
  <rect
     width="14.5"
     height="7.5"
     rx="0.25"
     ry="0.25"
     x="-18.749992"
     y="7.249999"
     transform="matrix(0,-1,1,0,0,0)"
     id="rect3236-3-3"
     style="opacity:0.3;fill:none;stroke:#f00000;stroke-width:0.5;stroke-linecap:round;stroke-linejoin:miter;stroke-miterlimit:4;stroke-opacity:1;stroke-dasharray:none;stroke-dashoffset:0;marker:none;visibility:visible;display:inline;overflow:visible;enable-background:accumulate" />
  <path
     d="m 6.5,19.5 0,-13.9999995 c 0,-0.554 0.446,-1 1,-1 l 7,0 c 0.554,0 1,0.446 1,1 L 15.5,19.5 c 0,0.554 -0.446,1 -1,1 l -7,0 c -0.554,0 -1,-0.446 -1,-1 z M 9.50264,4.3815505 c 7e-4,-0.32804 0.002,-0.65608 0.002,-0.98411 0.0408,-0.59782 0.6496,-0.97673 1.2122,-0.89747 0.53292,0.0234 1.17689,-0.12412 1.55486,0.36319 0.35076,0.43848 0.19141,1.0212 0.2278,1.53721"
     id="path3208-4-8"
     style="opacity:0.5;fill:none;stroke:#000000;stroke-width:1;stroke-linecap:round;stroke-linejoin:miter;stroke-miterlimit:4;stroke-opacity:1;stroke-dashoffset:0;marker:none;visibility:visible;display:inline;overflow:visible;enable-background:accumulate" />
  <path
     d="m 6.5,18.5 0,-13.9999995 c 0,-0.554 0.446,-1 1,-1 l 7,0 c 0.554,0 1,0.446 1,1 L 15.5,18.5 c 0,0.554 -0.446,1 -1,1 l -7,0 c -0.554,0 -1,-0.446 -1,-1 z M 9.50264,3.3815505 c 7e-4,-0.32804 0.002,-0.65608 0.002,-0.98411 0.0408,-0.59782 0.6496,-0.97673 1.2122,-0.89747 0.53292,0.0234 1.17689,-0.12412 1.55486,0.36319 0.35076,0.43848 0.19141,1.0212 0.2278,1.53721"
     id="rect2442-4-8"
     style="opacity:1;fill:none;stroke:url(#linearGradient7293);stroke-width:1;stroke-linecap:round;stroke-linejoin:miter;stroke-miterlimit:4;stroke-opacity:1;stroke-dashoffset:0;marker:none;visibility:visible;display:inline;overflow:visible;enable-background:accumulate" />
  <path
     d="m 11,6.0000005 c 0.554,0 1,0.446 1,1 L 12,12 c 0,0.554 -0.446,1 -1,1 -0.554,0 -1,-0.446 -1,-1 l 0,-4.9999995 c 0,-0.554 0.446,-1 1,-1 z"
     id="path3467-3"
     style="opacity:1;fill:url(#linearGradient7290);fill-opacity:1;fill-rule:nonzero;stroke:none;stroke-width:1;marker:none;visibility:visible;display:inline;overflow:visible;enable-background:accumulate" />
  <path
     d="m 10.75,14 0.5,0 c 0.4155,0 0.75,0.3345 0.75,0.75 l 0,0.5 C 12,15.6655 11.6655,16 11.25,16 l -0.5,0 C 10.3345,16 10,15.6655 10,15.25 l 0,-0.5 C 10,14.3345 10.3345,14 10.75,14 z"
     id="rect3448-1"
     style="opacity:1;fill:url(#linearGradient7287);fill-opacity:1;fill-rule:nonzero;stroke:none;stroke-width:1;marker:none;visibility:visible;display:inline;overflow:visible;enable-background:accumulate" />
</svg>
