<?xml version="1.0" encoding="UTF-8" standalone="no"?>
<!-- Created with Inkscape (http://www.inkscape.org/) -->
<svg id="svg2541" xmlns="http://www.w3.org/2000/svg" height="32" width="32" version="1.1" xmlns:xlink="http://www.w3.org/1999/xlink">
 <defs id="defs2543">
  <linearGradient id="linearGradient5176">
   <stop id="stop5178" offset="0"/>
   <stop id="stop5180" style="stop-opacity:0" offset="1"/>
  </linearGradient>
  <linearGradient id="linearGradient5162">
   <stop id="stop5164" style="stop-color:#babdb6" offset="0"/>
   <stop id="stop5166" style="stop-color:#fff" offset="1"/>
  </linearGradient>
  <linearGradient id="linearGradient5196">
   <stop id="stop5198" style="stop-color:#dfe2dc" offset="0"/>
   <stop id="stop5200" style="stop-color:#86917a" offset="1"/>
  </linearGradient>
  <linearGradient id="linearGradient5188">
   <stop id="stop5190" style="stop-color:#fff" offset="0"/>
   <stop id="stop5192" style="stop-color:#aeaea3" offset="1"/>
  </linearGradient>
  <linearGradient id="linearGradient2793">
   <stop id="stop2795" style="stop-color:#555753" offset="0"/>
   <stop id="stop2797" style="stop-color:#d3d7cf;stop-opacity:0" offset="1"/>
  </linearGradient>
  <linearGradient id="linearGradient3095" y2="10.9" xlink:href="#linearGradient2793" spreadMethod="reflect" gradientUnits="userSpaceOnUse" x2="55.992" gradientTransform="matrix(.24762 0 0 .24849 .70433 .84624)" y1="47.259" x1="92.005"/>
  <linearGradient id="linearGradient3098" y2="31.226" gradientUnits="userSpaceOnUse" x2="63.999" gradientTransform="matrix(.28368 0 0 .28468 -1.6033 -2.6307)" y1="6.4738" x1="63.999">
   <stop id="stop4304" style="stop-color:#c0c0c0" offset="0"/>
   <stop id="stop4306" style="stop-color:#abacb0" offset="1"/>
  </linearGradient>
  <linearGradient id="linearGradient3101" y2="37.217" xlink:href="#linearGradient2793" spreadMethod="reflect" gradientUnits="userSpaceOnUse" x2="64" gradientTransform="matrix(.29542 0 0 .26769 -2.3547 -1.4822)" y1="37.217" x1="32.627"/>
  <linearGradient id="linearGradient3105" y2="17.834" xlink:href="#linearGradient2793" spreadMethod="reflect" gradientUnits="userSpaceOnUse" x2="62.373" gradientTransform="matrix(.30452 0 0 .29447 -2.937 -2.0721)" y1="17.834" x1="97.718"/>
  <linearGradient id="linearGradient3109" y2="39.751" gradientUnits="userSpaceOnUse" x2="35.515" gradientTransform="matrix(.62461 0 0 .73346 3.859 -8.7208)" y1="38.13" x1="4.885">
   <stop id="stop3317" style="stop-color:#f8f8f8;stop-opacity:.15464" offset="0"/>
   <stop id="stop3322" style="stop-color:#b0b2b6;stop-opacity:.17526" offset=".49817"/>
   <stop id="stop3319" style="stop-color:#5b5e62;stop-opacity:.23529" offset=".73731"/>
   <stop id="stop2342" style="stop-color:#fff;stop-opacity:.15464" offset="1"/>
  </linearGradient>
  <linearGradient id="linearGradient3111" y2="57.746" gradientUnits="userSpaceOnUse" x2="29.233" gradientTransform="matrix(.51632 0 0 .51813 1.4354 .52895)" y1="1.2616" x1="29.233">
   <stop id="stop4296" style="stop-color:#e6e7e7" offset="0"/>
   <stop id="stop4298" style="stop-color:#676b73" offset="1"/>
  </linearGradient>
  <linearGradient id="linearGradient3165" y2="68.298" xlink:href="#linearGradient2793" spreadMethod="reflect" gradientUnits="userSpaceOnUse" x2="37.462" gradientTransform="matrix(.55749 0 0 .49894 -.20344 1.5786)" y1="52.355" x1="27.405"/>
  <radialGradient id="radialGradient3169" gradientUnits="userSpaceOnUse" cy="108.02" cx="62.712" gradientTransform="matrix(.23027 0 0 .064458 2.3644 21.975)" r="47.383">
   <stop id="stop5062" offset="0"/>
   <stop id="stop5064" style="stop-opacity:0" offset="1"/>
  </radialGradient>
  <radialGradient id="radialGradient3171" xlink:href="#linearGradient5176" gradientUnits="userSpaceOnUse" cy="40.664" cx="24.837" gradientTransform="matrix(1 0 0 .32510 0 27.444)" r="21.478"/>
  <radialGradient id="radialGradient3173" xlink:href="#linearGradient5188" gradientUnits="userSpaceOnUse" cy="14.211" cx="23.688" gradientTransform="matrix(1.0698 0 0 1.0573 103.49 26.898)" r="22.597"/>
  <radialGradient id="radialGradient3175" xlink:href="#linearGradient5196" gradientUnits="userSpaceOnUse" cy="10.854" cx="20.09" gradientTransform="matrix(.89682 0 0 .88630 109.05 28.761)" r="22.597"/>
  <linearGradient id="linearGradient3177" y2="14.412" xlink:href="#linearGradient5162" gradientUnits="userSpaceOnUse" x2="23.585" gradientTransform="matrix(.50094 0 0 .50094 116.97 34.748)" y1="36.51" x1="22.009"/>
  <linearGradient id="linearGradient3179" y2="28.555" xlink:href="#linearGradient5162" gradientUnits="userSpaceOnUse" x2="32.601" gradientTransform="matrix(.50094 0 0 .50094 116.97 34.748)" y1="20.246" x1="24.366"/>
  <linearGradient id="linearGradient3181" y2="82.789" xlink:href="#linearGradient2793" gradientUnits="userSpaceOnUse" x2="89.456" gradientTransform="matrix(.51208 0 0 .49005 90.554 .024085)" y1="82.789" x1="73.374"/>
  <radialGradient id="radialGradient3185" xlink:href="#linearGradient5188" gradientUnits="userSpaceOnUse" cy="14.211" cx="23.688" gradientTransform="matrix(-2.1357 0 0 2.1106 -137.81 12.57)" r="22.597"/>
  <radialGradient id="radialGradient3187" xlink:href="#linearGradient5196" gradientUnits="userSpaceOnUse" cy="10.854" cx="20.09" gradientTransform="matrix(-1.7903 0 0 1.7693 -148.9 16.29)" r="22.597"/>
  <linearGradient id="linearGradient3189" y2="14.412" xlink:href="#linearGradient5162" gradientUnits="userSpaceOnUse" x2="23.585" gradientTransform="matrix(-1 0 0 1 -164.71 28.239)" y1="36.51" x1="22.009"/>
  <linearGradient id="linearGradient3191" y2="28.555" xlink:href="#linearGradient5162" gradientUnits="userSpaceOnUse" x2="32.601" gradientTransform="matrix(-1 0 0 1 -164.71 28.239)" y1="20.246" x1="24.366"/>
  <linearGradient id="linearGradient3193" y2="18.39" xlink:href="#linearGradient5176" gradientUnits="userSpaceOnUse" x2="38.714" gradientTransform="matrix(-1 0 0 1 -164.71 28.239)" y1="10.612" x1="25.633"/>
  <radialGradient id="radialGradient3197" xlink:href="#linearGradient5188" gradientUnits="userSpaceOnUse" cy="14.211" cx="23.688" gradientTransform="matrix(-1.0698 0 0 1.0573 141.27 26.694)" r="22.597"/>
  <radialGradient id="radialGradient3199" xlink:href="#linearGradient5196" gradientUnits="userSpaceOnUse" cy="10.854" cx="20.09" gradientTransform="matrix(-.89682 0 0 .88630 135.72 28.557)" r="22.597"/>
  <linearGradient id="linearGradient3201" y2="14.412" xlink:href="#linearGradient5162" gradientUnits="userSpaceOnUse" x2="23.585" gradientTransform="matrix(-.50094 0 0 .50094 127.8 34.543)" y1="36.51" x1="22.009"/>
  <linearGradient id="linearGradient3203" y2="28.555" xlink:href="#linearGradient5162" gradientUnits="userSpaceOnUse" x2="32.601" gradientTransform="matrix(-.50094 0 0 .50094 127.8 34.543)" y1="20.246" x1="24.366"/>
  <linearGradient id="linearGradient3205" y2="18.39" xlink:href="#linearGradient5176" gradientUnits="userSpaceOnUse" x2="38.714" gradientTransform="matrix(-.50094 0 0 .50094 127.8 34.543)" y1="10.612" x1="25.633"/>
 </defs>
 <path id="path12941" style="color:#000000;fill-rule:evenodd;fill:url(#radialGradient3169)" d="m27.717 28.939a10.911 3.0542 0 0 1 -21.822 0 10.911 3.0542 0 1 1 21.822 0z"/>
 <path id="path5870" style="stroke-linejoin:round;color:#000000;fill-rule:evenodd;stroke:#838383;stroke-linecap:round;stroke-width:0.4;fill:#d9dcd5" d="m25.626 28.088a9.0739 2.1306 0 0 1 -18.148 0 9.0739 2.1306 0 1 1 18.148 0z"/>
 <path id="path3037" style="opacity:.5;color:#000000;fill-rule:evenodd;fill:url(#linearGradient3165)" d="m25.626 28.088a9.0739 2.1306 0 0 1 -18.148 0 9.0739 2.1306 0 1 1 18.148 0z"/>
 <g id="g16471" transform="matrix(.49431 0 0 .49604 -43.843 .51113)">
  <path id="path4275" style="opacity:.32584;color:#000000;fill-rule:evenodd;fill:url(#radialGradient3171)" d="m46.315 40.664a21.478 6.9827 0 1 1 -42.957 0 21.478 6.9827 0 1 1 42.957 0z" transform="matrix(.55454 0 0 .55454 115.28 32.037)"/>
  <path id="path4273" style="color:#000000;fill-rule:evenodd;stroke:url(#radialGradient3175);stroke-width:.50094;fill:url(#radialGradient3173)" d="m121.49 53.568-0.88555 1.4169 1.8597 0.79699 1.3283-1.0627 5.9332 0.44277 1.8596 2.4795 1.6825-2.7452 2.1253 1.1512 2.8338-0.35422-0.70844-1.5054 1.9482-1.9482-2.7452-3.0994 2.6566 0.35422 1.1512-1.0627-1.5054 0.26566-1.594-2.7452-2.3024-0.53133 1.8597-0.61988 0.0885-1.594-3.6308-3.188-1.3283-4.2506-6.0217 1.7711-1.5054 3.5422-0.53133-1.1512-1.5054 0.08855v1.4169l-1.7711-2.0368-2.391 2.5681v3.6308l4.1621 3.6308-2.6566 1.5054 0.0886 1.5054 1.5054 1.3283z"/>
  <path id="path5158" style="opacity:.76966;color:#000000;fill-rule:evenodd;fill:url(#linearGradient3177)" d="m126.71 46.129-0.44278 3.2765 1.0627 1.6825-2.3024 0.70844-1.3283 2.6566 6.0217 0.44277 1.4169 2.0368 1.1512-3.0994-2.2139-1.4169-3.3651 0.9741 1.3283-1.7711-0.70844-3.0994-0.61988-2.391z"/>
  <path id="path5160" style="opacity:.61798;color:#000000;fill-rule:evenodd;fill:url(#linearGradient3179)" d="m127.24 46.661 2.2139 3.4536 3.6308-2.4795 2.2139 1.2398 1.7711-1.5054 1.594 1.4169-1.5054-2.4795-3.4536-0.79699-4.3392-2.1253s-6.1988 1.8597-5.8446 1.8597c0.35421 0 5.1362 0.08855 5.1362 0.08855l0.79699-1.1512 2.1253 0.9741-4.3392 1.5054z"/>
  <path id="path5172" style="color:#000000;fill-rule:evenodd;fill:#fff" d="m131.76 36.477-5.2247 1.7711-0.70844 1.9482 3.0109 2.1253 2.8338-2.7452 0.0886-3.0994z"/>
  <path id="path5174" style="opacity:.13483;color:#000000;fill-rule:evenodd;fill:url(#linearGradient3181)" d="m131.85 36.654 1.1512 3.7193 2.1253 1.8597-4.3392-0.9741s-1.2398 1.4169-0.70843 1.4169c0.53132 0 6.2874 0.70844 6.2874 0.70844l-0.0885 1.1512-8.147-1.5054 3.5422-3.2765 0.17711-3.0994z"/>
  <path id="path5184" style="color:#000000;fill-rule:evenodd;fill:#fff" d="m120.69 41.879-0.44277 4.4277 0.9741-3.0109 2.5681 0.79699 0.61988-1.3283 3.0994 0.44277 0.70843-0.61988-4.5163-0.17711-0.44278 1.2398-1.9482-0.9741-0.61988-0.79699z"/>
  <path id="path5186" style="color:#000000;fill-rule:evenodd;fill:#fff" d="m128.22 48.432 1.5054 1.7711 3.4536-2.3024 2.1253 1.1512 3.4536 3.2765-3.8079-2.9223-1.8596-0.53133-3.6308 2.4795-1.2398-2.9223z"/>
  <path id="path2423" style="opacity:.32584;fill-rule:evenodd;color:#000000;fill:url(#radialGradient3171)" d="m46.315 40.664a21.478 6.9827 0 1 1 -42.957 0 21.478 6.9827 0 1 1 42.957 0z" transform="matrix(-.55454 0 0 .55454 134.44 32.718)"/>
  <g id="g2507" transform="matrix(-.50094 0 0 .50094 18.542 6.4016)">
   <path id="path2425" style="color:#000000;fill-rule:evenodd;stroke:url(#radialGradient3187);fill:url(#radialGradient3185)" d="m-173.73 65.81 1.7678 2.8284-3.7123 1.591-2.6516-2.1213-11.844 0.88388-3.7123 4.9497-3.3588-5.4801-4.2426 2.2981-5.6568-0.70711 1.4142-3.0052-3.8891-3.8891 5.4801-6.1872-5.3033 0.70711-2.2981-2.1213 3.0052 0.53033 3.182-5.4801 4.5962-1.0607-3.7123-1.2374-0.17678-3.182 7.2478-6.364 2.6516-8.4853 12.021 3.5355 3.0052 7.0711 1.0607-2.2981 3.0052 0.17678v2.8284l3.5355-4.0659 4.773 5.1265v7.2478l-8.3085 7.2478 5.3033 3.0052-0.17678 3.0052-3.0052 2.6517z"/>
   <path id="path2427" style="opacity:.76966;color:#000000;fill-rule:evenodd;fill:url(#linearGradient3189)" d="m-184.16 50.96 0.88389 6.5407-2.1213 3.3588 4.5962 1.4142 2.6516 5.3033-12.021 0.88388-2.8284 4.0659-2.2981-6.1872 4.4194-2.8284 6.7175 1.9445-2.6516-3.5355 1.4142-6.1872 1.2374-4.773z"/>
   <path id="path2429" style="opacity:.61798;color:#000000;fill-rule:evenodd;fill:url(#linearGradient3191)" d="m-185.22 52.021-4.4194 6.8943-7.2478-4.9497-4.4194 2.4749-3.5355-3.0052-3.182 2.8284 3.0052-4.9497 6.8943-1.591 8.662-4.2426s12.374 3.7123 11.667 3.7123c-0.7071 0-10.253 0.17678-10.253 0.17678l-1.591-2.2981-4.2426 1.9445 8.662 3.0052z"/>
   <path id="path2431" style="color:#000000;fill-rule:evenodd;fill:#fff" d="m-194.23 31.692 10.43 3.5355 1.4142 3.8891-6.0104 4.2426-5.6568-5.4801-0.17678-6.1872z"/>
   <path id="path2433" style="opacity:.13483;color:#000000;fill-rule:evenodd;fill:url(#linearGradient3193)" d="m-194.41 32.045-2.2981 7.4246-4.2426 3.7123 8.6621-1.9445s2.4749 2.8284 1.4142 2.8284-12.551 1.4142-12.551 1.4142l0.17677 2.2981 16.263-3.0052-7.0711-6.5407-0.35355-6.1872z"/>
   <path id="path2435" style="color:#000000;fill-rule:evenodd;fill:#fff" d="m-172.14 42.475 0.88388 8.8388-1.9445-6.0104-5.1265 1.591-1.2374-2.6517-6.1872 0.88388-1.4142-1.2374 9.0156-0.35355 0.88388 2.4749 3.8891-1.9445 1.2374-1.591z"/>
   <path id="path2437" style="color:#000000;fill-rule:evenodd;fill:#fff" d="m-187.16 55.557-3.0052 3.5355-6.8943-4.5962-4.2426 2.2981-6.8943 6.5407 7.6014-5.8336 3.7123-1.0607 7.2478 4.9497 2.4749-5.8336z"/>
  </g>
  <path id="path2479" style="opacity:.32584;fill-rule:evenodd;color:#000000;fill:url(#radialGradient3171)" d="m46.315 40.664a21.478 6.9827 0 1 1 -42.957 0 21.478 6.9827 0 1 1 42.957 0z" transform="matrix(-.55454 0 0 .55454 129.48 31.832)"/>
  <path id="path2481" style="color:#000000;fill-rule:evenodd;stroke:url(#radialGradient3199);stroke-width:.50094;fill:url(#radialGradient3197)" d="m123.28 53.363 0.88556 1.4169-1.8597 0.79699-1.3283-1.0627-5.9332 0.44277-1.8596 2.4795-1.6825-2.7452-2.1253 1.1512-2.8338-0.35422 0.70843-1.5054-1.9482-1.9482 2.7452-3.0994-2.6566 0.35422-1.1512-1.0627 1.5054 0.26566 1.594-2.7452 2.3024-0.53133-1.8597-0.61988-0.0886-1.594 3.6308-3.188 1.3283-4.2506 6.0217 1.7711 1.5054 3.5422 0.53133-1.1512 1.5054 0.08855v1.4169l1.7711-2.0368 2.391 2.5681v3.6307l-4.1621 3.6308 2.6566 1.5054-0.0885 1.5054-1.5054 1.3283z"/>
  <path id="path2483" style="opacity:.76966;color:#000000;fill-rule:evenodd;fill:url(#linearGradient3201)" d="m118.06 45.925 0.44278 3.2765-1.0627 1.6825 2.3024 0.70844 1.3283 2.6567-6.0217 0.44277-1.4169 2.0368-1.1512-3.0994 2.2139-1.4169 3.3651 0.97411-1.3283-1.7711 0.70844-3.0994 0.61988-2.391z"/>
  <path id="path2485" style="opacity:.61798;color:#000000;fill-rule:evenodd;fill:url(#linearGradient3203)" d="m117.53 46.456-2.2139 3.4536-3.6308-2.4795-2.2139 1.2398-1.7711-1.5054-1.594 1.4169 1.5054-2.4795 3.4536-0.79699 4.3392-2.1253s6.1988 1.8597 5.8446 1.8597c-0.35422 0-5.1362 0.08855-5.1362 0.08855l-0.79699-1.1512-2.1253 0.9741 4.3392 1.5054z"/>
  <path id="path2487" style="color:#000000;fill-rule:evenodd;fill:#fff" d="m113.01 36.272 5.2247 1.7711 0.70844 1.9482-3.0109 2.1253-2.8338-2.7452-0.0885-3.0994z"/>
  <path id="path2489" style="opacity:.13483;color:#000000;fill-rule:evenodd;fill:url(#linearGradient3205)" d="m112.92 36.449-1.1512 3.7193-2.1253 1.8597 4.3392-0.9741s1.2398 1.4169 0.70844 1.4169c-0.53133 0-6.2874 0.70844-6.2874 0.70844l0.0885 1.1512 8.147-1.5054-3.5422-3.2765-0.1771-3.0994z"/>
  <path id="path2491" style="color:#000000;fill-rule:evenodd;fill:#fff" d="m124.08 41.674 0.44277 4.4277-0.9741-3.0109-2.5681 0.79699-0.61989-1.3283-3.0994 0.44277-0.70844-0.61988 4.5163-0.17711 0.44277 1.2398 1.9482-0.9741 0.61989-0.79699z"/>
  <path id="path2493" style="color:#000000;fill-rule:evenodd;fill:#fff" d="m116.55 48.227-1.5054 1.7711-3.4536-2.3024-2.1253 1.1512-3.4536 3.2765 3.8078-2.9223 1.8597-0.53133 3.6308 2.4795 1.2398-2.9223z"/>
  <g id="g2586" transform="matrix(0 -.50094 -.50094 0 143.56 -60.068)">
   <path id="path2588" style="color:#000000;fill-rule:evenodd;stroke:url(#radialGradient3187);fill:url(#radialGradient3185)" d="m-173.73 65.81 1.7678 2.8284-3.7123 1.591-2.6516-2.1213-11.844 0.88388-3.7123 4.9497-3.3588-5.4801-4.2426 2.2981-5.6568-0.70711 1.4142-3.0052-3.8891-3.8891 5.4801-6.1872-5.3033 0.70711-2.2981-2.1213 3.0052 0.53033 3.182-5.4801 4.5962-1.0607-3.7123-1.2374-0.17678-3.182 7.2478-6.364 2.6516-8.4853 12.021 3.5355 3.0052 7.0711 1.0607-2.2981 3.0052 0.17678v2.8284l3.5355-4.0659 4.773 5.1265v7.2478l-8.3085 7.2478 5.3033 3.0052-0.17678 3.0052-3.0052 2.6517z"/>
   <path id="path2590" style="opacity:.76966;fill-rule:evenodd;color:#000000;fill:url(#linearGradient3189)" d="m-184.16 50.96 0.88389 6.5407-2.1213 3.3588 4.5962 1.4142 2.6516 5.3033-12.021 0.88388-2.8284 4.0659-2.2981-6.1872 4.4194-2.8284 6.7175 1.9445-2.6516-3.5355 1.4142-6.1872 1.2374-4.773z"/>
   <path id="path2592" style="opacity:.61798;fill-rule:evenodd;color:#000000;fill:url(#linearGradient3191)" d="m-185.22 52.021-4.4194 6.8943-7.2478-4.9497-4.4194 2.4749-3.5355-3.0052-3.182 2.8284 3.0052-4.9497 6.8943-1.591 8.662-4.2426s12.374 3.7123 11.667 3.7123c-0.7071 0-10.253 0.17678-10.253 0.17678l-1.591-2.2981-4.2426 1.9445 8.662 3.0052z"/>
   <path id="path2594" style="color:#000000;fill-rule:evenodd;fill:#fff" d="m-194.23 31.692 10.43 3.5355 1.4142 3.8891-6.0104 4.2426-5.6568-5.4801-0.17678-6.1872z"/>
   <path id="path2596" style="opacity:.13483;fill-rule:evenodd;color:#000000;fill:url(#linearGradient3193)" d="m-194.41 32.045-2.2981 7.4246-4.2426 3.7123 8.6621-1.9445s2.4749 2.8284 1.4142 2.8284-12.551 1.4142-12.551 1.4142l0.17677 2.2981 16.263-3.0052-7.0711-6.5407-0.35355-6.1872z"/>
   <path id="path2598" style="color:#000000;fill-rule:evenodd;fill:#fff" d="m-172.14 42.475 0.88388 8.8388-1.9445-6.0104-5.1265 1.591-1.2374-2.6517-6.1872 0.88388-1.4142-1.2374 9.0156-0.35355 0.88388 2.4749 3.8891-1.9445 1.2374-1.591z"/>
   <path id="path2600" style="color:#000000;fill-rule:evenodd;fill:#fff" d="m-187.16 55.557-3.0052 3.5355-6.8943-4.5962-4.2426 2.2981-6.8943 6.5407 7.6014-5.8336 3.7123-1.0607 7.2478 4.9497 2.4749-5.8336z"/>
  </g>
  <g id="g2552" transform="matrix(.50094 0 0 .50094 226.25 6.2244)">
   <path id="path2554" style="color:#000000;fill-rule:evenodd;stroke:url(#radialGradient3187);fill:url(#radialGradient3185)" d="m-173.73 65.81 1.7678 2.8284-3.7123 1.591-2.6516-2.1213-11.844 0.88388-3.7123 4.9497-3.3588-5.4801-4.2426 2.2981-5.6568-0.70711 1.4142-3.0052-3.8891-3.8891 5.4801-6.1872-5.3033 0.70711-2.2981-2.1213 3.0052 0.53033 3.182-5.4801 4.5962-1.0607-3.7123-1.2374-0.17678-3.182 7.2478-6.364 2.6516-8.4853 12.021 3.5355 3.0052 7.0711 1.0607-2.2981 3.0052 0.17678v2.8284l3.5355-4.0659 4.773 5.1265v7.2478l-8.3085 7.2478 5.3033 3.0052-0.17678 3.0052-3.0052 2.6517z"/>
   <path id="path2556" style="opacity:.76966;fill-rule:evenodd;color:#000000;fill:url(#linearGradient3189)" d="m-184.16 50.96 0.88389 6.5407-2.1213 3.3588 4.5962 1.4142 2.6516 5.3033-12.021 0.88388-2.8284 4.0659-2.2981-6.1872 4.4194-2.8284 6.7175 1.9445-2.6516-3.5355 1.4142-6.1872 1.2374-4.773z"/>
   <path id="path2558" style="opacity:.61798;fill-rule:evenodd;color:#000000;fill:url(#linearGradient3191)" d="m-185.22 52.021-4.4194 6.8943-7.2478-4.9497-4.4194 2.4749-3.5355-3.0052-3.182 2.8284 3.0052-4.9497 6.8943-1.591 8.662-4.2426s12.374 3.7123 11.667 3.7123c-0.7071 0-10.253 0.17678-10.253 0.17678l-1.591-2.2981-4.2426 1.9445 8.662 3.0052z"/>
   <path id="path2560" style="color:#000000;fill-rule:evenodd;fill:#fff" d="m-194.23 31.692 10.43 3.5355 1.4142 3.8891-6.0104 4.2426-5.6568-5.4801-0.17678-6.1872z"/>
   <path id="path2562" style="opacity:.13483;fill-rule:evenodd;color:#000000;fill:url(#linearGradient3193)" d="m-194.41 32.045-2.2981 7.4246-4.2426 3.7123 8.6621-1.9445s2.4749 2.8284 1.4142 2.8284-12.551 1.4142-12.551 1.4142l0.17677 2.2981 16.263-3.0052-7.0711-6.5407-0.35355-6.1872z"/>
   <path id="path2564" style="color:#000000;fill-rule:evenodd;fill:#fff" d="m-172.14 42.475 0.88388 8.8388-1.9445-6.0104-5.1265 1.591-1.2374-2.6517-6.1872 0.88388-1.4142-1.2374 9.0156-0.35355 0.88388 2.4749 3.8891-1.9445 1.2374-1.591z"/>
   <path id="path2566" style="color:#000000;fill-rule:evenodd;fill:#fff" d="m-187.16 55.557-3.0052 3.5355-6.8943-4.5962-4.2426 2.2981-6.8943 6.5407 7.6014-5.8336 3.7123-1.0607 7.2478 4.9497 2.4749-5.8336z"/>
  </g>
  <g id="g2526" transform="matrix(0 .50094 .50094 0 97.571 143.1)">
   <path id="path2528" style="color:#000000;fill-rule:evenodd;stroke:url(#radialGradient3187);fill:url(#radialGradient3185)" d="m-173.73 65.81 1.7678 2.8284-3.7123 1.591-2.6516-2.1213-11.844 0.88388-3.7123 4.9497-3.3588-5.4801-4.2426 2.2981-5.6568-0.70711 1.4142-3.0052-3.8891-3.8891 5.4801-6.1872-5.3033 0.70711-2.2981-2.1213 3.0052 0.53033 3.182-5.4801 4.5962-1.0607-3.7123-1.2374-0.17678-3.182 7.2478-6.364 2.6516-8.4853 12.021 3.5355 3.0052 7.0711 1.0607-2.2981 3.0052 0.17678v2.8284l3.5355-4.0659 4.773 5.1265v7.2478l-8.3085 7.2478 5.3033 3.0052-0.17678 3.0052-3.0052 2.6517z"/>
   <path id="path2530" style="opacity:.76966;fill-rule:evenodd;color:#000000;fill:url(#linearGradient3189)" d="m-184.16 50.96 0.88389 6.5407-2.1213 3.3588 4.5962 1.4142 2.6516 5.3033-12.021 0.88388-2.8284 4.0659-2.2981-6.1872 4.4194-2.8284 6.7175 1.9445-2.6516-3.5355 1.4142-6.1872 1.2374-4.773z"/>
   <path id="path2532" style="opacity:.61798;fill-rule:evenodd;color:#000000;fill:url(#linearGradient3191)" d="m-185.22 52.021-4.4194 6.8943-7.2478-4.9497-4.4194 2.4749-3.5355-3.0052-3.182 2.8284 3.0052-4.9497 6.8943-1.591 8.662-4.2426s12.374 3.7123 11.667 3.7123c-0.7071 0-10.253 0.17678-10.253 0.17678l-1.591-2.2981-4.2426 1.9445 8.662 3.0052z"/>
   <path id="path2534" style="color:#000000;fill-rule:evenodd;fill:#fff" d="m-194.23 31.692 10.43 3.5355 1.4142 3.8891-6.0104 4.2426-5.6568-5.4801-0.17678-6.1872z"/>
   <path id="path2536" style="opacity:.13483;fill-rule:evenodd;color:#000000;fill:url(#linearGradient3193)" d="m-194.41 32.045-2.2981 7.4246-4.2426 3.7123 8.6621-1.9445s2.4749 2.8284 1.4142 2.8284-12.551 1.4142-12.551 1.4142l0.17677 2.2981 16.263-3.0052-7.0711-6.5407-0.35355-6.1872z"/>
   <path id="path2538" style="color:#000000;fill-rule:evenodd;fill:#fff" d="m-172.14 42.475 0.88388 8.8388-1.9445-6.0104-5.1265 1.591-1.2374-2.6517-6.1872 0.88388-1.4142-1.2374 9.0156-0.35355 0.88388 2.4749 3.8891-1.9445 1.2374-1.591z"/>
   <path id="path2540" style="color:#000000;fill-rule:evenodd;fill:#fff" d="m-187.16 55.557-3.0052 3.5355-6.8943-4.5962-4.2426 2.2981-6.8943 6.5407 7.6014-5.8336 3.7123-1.0607 7.2478 4.9497 2.4749-5.8336z"/>
  </g>
 </g>
 <path id="path18342" style="opacity:.77273;stroke-linejoin:round;fill-opacity:.51309;color:#000000;fill-rule:evenodd;stroke:#636363;stroke-linecap:round;stroke-width:.24805;fill:#585858" d="m27.126 5.0233a9.9919 2.0341 0 0 1 -19.984 0 9.9919 2.0341 0 1 1 19.984 0z"/>
 <path id="path1751" style="stroke-linejoin:round;fill-rule:evenodd;stroke:url(#linearGradient3111);stroke-linecap:round;stroke-width:0.4;fill:url(#linearGradient3109)" d="m5.33 5.7743c-0.023425-0.030235 2.0549 21.75 2.0552 21.757 0.088521 2.1751 3.9438 2.5666 9.2655 2.7374 6.5027-0.06728 8.9425-1.1631 9.0347-2.6756 0.0074-0.02982 2.0852-21.789 2.0926-21.819 1.2281-4.8156-8.5539-4.4616-11.98-4.4616-3.6785 0-11.852-0.11319-10.468 4.4616z"/>
 <path id="path18338" style="fill:#d9dcd5;fill-rule:evenodd" d="m6.1198 5.2341s8.2976-2.5839 20.481-0.38029c4.645-3.475-10.957-3.7292-10.957-3.7292s-13.381 0.71931-9.5246 4.1095z"/>
 <path id="path13701" style="stroke-linejoin:round;fill-rule:evenodd;stroke:#636363;stroke-linecap:round;stroke-width:.24805;fill:url(#linearGradient3105)" d="m6.1198 5.2341s8.2976-2.5839 20.481-0.38029c4.645-3.475-10.957-3.7292-10.957-3.7292s-13.381 0.71931-9.5246 4.1095z"/>
 <path id="path18314" style="stroke-linejoin:round;color:#000000;fill-rule:evenodd;stroke:#808389;stroke-linecap:round;stroke-width:.12379;fill:#fff" d="m25.088 2.2529c0.01217 0.00321 0.0259 0.006 0.03807 0.0092 0.05443 0.014388 0.10737 0.031015 0.16178 0.04601 0.01307 0.0036 0.02501 0.00559 0.03807 0.0092 0.03167 0.00882 0.06361 0.018555 0.09518 0.0276 0.0094 0.00266 0.0193 0.00653 0.02854 0.0092 0.006 0.00172 0.01297-0.00172 0.01903 0 0.01665 0.00486 0.03097 0.013502 0.04759 0.018403 0.0195 0.00579 0.03768 0.012524 0.05711 0.018402 0.01347 0.00405 0.02465 0.00511 0.03806 0.0092 0.03116 0.00959 0.06426 0.017735 0.09517 0.027609 0.0082 0.0026 0.02038 0.00659 0.02854 0.0092 0.02595 0.00839 0.05042 0.018994 0.07615 0.027608 0.0093 0.00307 0.01938 0.00613 0.02854 0.0092 0.06077 0.020672 0.1218 0.042362 0.18081 0.064414 0.01563 0.00579 0.0321 0.012505 0.04759 0.018403 0.01815 0.00696 0.02964 0.011305 0.04759 0.018402 0.03698 0.014641 0.07822 0.030724 0.1142 0.04601 0.01213 0.00511 0.02605 0.013223 0.03806 0.018403 0.0027 0.0012 0.0068-0.0012 0.0096 0 0.01802 0.00792 0.03935 0.0195 0.05711 0.027609 0.0097 0.00439 0.01909 0.0048 0.02855 0.0092 0.0034 0.00159 0.006 0.00758 0.0096 0.0092 0.03403 0.016032 0.07188 0.02926 0.10468 0.046011 0.0087 0.00445 0.01992 0.013895 0.02854 0.018402 0.01104 0.00572 0.02717 0.012565 0.03806 0.018402 0.0063 0.00339 0.01277 0.00579 0.01903 0.0092 0.0067 0.0036 0.01246 0.00553 0.01903 0.0092 0.0062 0.00346 0.0033 0.00572 0.0096 0.0092 0.0062 0.00346 0.01288 0.00565 0.01904 0.0092 0.0061 0.00352 0.013 0.00565 0.01903 0.0092 0.0031 0.0018 0.0063 0.00735 0.0096 0.0092 0.01501 0.00895 0.03294 0.018461 0.04759 0.027602 0.0062 0.00385 0.01288 0.00534 0.01903 0.0092 0.0081 0.00519 0.01103 0.013175 0.01903 0.018403 0.0092 0.006 0.01959 0.012343 0.02854 0.018402 0.03093 0.020772 0.06626 0.042608 0.09518 0.064414 0.0025 0.00201 0.007 0.00719 0.0096 0.0092 0.02915 0.022243 0.05877 0.041052 0.08565 0.064414 0.0019 0.00165-0.0018 0.00752 0 0.0092 0.0082 0.00721 0.02056 0.011078 0.02854 0.018402 0.0046 0.00427 0.005 0.014089 0.0096 0.018402 0.0062 0.00592 0.01292 0.01241 0.01903 0.018404 0.0022 0.00219 0.0074-0.00219 0.0096 0 0.0022 0.00226 0.0073 0.00694 0.0096 0.0092 0.0061 0.00618 0.01311 0.012152 0.01903 0.018403 0.0014 0.00152-0.0014 0.00768 0 0.0092 0.0025 0.00266 0.0071 0.00653 0.0096 0.0092 0.02866 0.030878 0.05151 0.059253 0.07614 0.092021 0.005 0.00667 0.01419 0.011651 0.01903 0.018402 0.0014 0.00206-0.0014 0.00712 0 0.0092 0.002 0.00293 0.0075 0.00625 0.0096 0.0092 0.0058 0.00838 0.01354 0.019108 0.01903 0.027609 0.0022 0.00439 0.0074 0.0048 0.0096 0.0092 0.0042 0.00871 0.0058 0.018902 0.0096 0.0276 0.0094 0.02219 0.01321 0.041818 0.01903 0.064414 0.0036 0.013136 0.0072 0.032721 0.0096 0.04601 0.000729 0.00452-0.000593 0.00467 0 0.0092 0.001 0.00666 0.0088 0.011692 0.0096 0.018402 0.00093 0.011418 0.000015 0.025372 0 0.036809-0.000729 0.00733 0.000999 0.020332 0 0.027609-0.000729 0.00486-0.0087 0.01361-0.0096 0.018403-0.0012 0.00719 0.0015 0.011285 0 0.018402-0.0068 0.033346-0.01622 0.060266-0.02854 0.092021-0.0018 0.00452 0.0018 0.00473 0 0.0092-0.0028 0.00723-0.0063 0.011252-0.0096 0.018403-0.0029 0.00672-0.0063 0.01177-0.0096 0.018402-0.0041 0.00889-0.005 0.00966-0.0096 0.018403-0.0022 0.00439-0.0072 0.014054-0.0096 0.018403-0.0059 0.010867-0.0124 0.026132-0.01903 0.036809-0.0013 0.00213-0.0082-0.00213-0.0096 0-0.0027 0.00427 0.0027 0.00498 0 0.0092-0.014 0.021118-0.03119 0.044048-0.04757 0.064414-0.0032 0.00405-0.0061 0.00511-0.0096 0.0092-0.0033 0.00405-0.006 0.014389-0.0096 0.018403-0.02767 0.03213-0.06203 0.06171-0.09515 0.09202-0.0041 0.00379-0.0053 0.00547-0.0096 0.0092-0.0068 0.006-0.02159 0.012458-0.02854 0.018402-0.0043 0.00373-0.005 0.014728-0.0096 0.018403-0.01604 0.013242-0.04012 0.023915-0.05711 0.036809-0.0028 0.00213-0.0066 0.00707-0.0096 0.0092-0.02962 0.022076-0.06297 0.043336-0.09516 0.064414-0.0073 0.0048-0.01166 0.013694-0.01903 0.018402-0.01327 0.00838-0.03394 0.019388-0.04759 0.027608-0.11135 0.067119-0.24057 0.12648-0.37114 0.18404-0.02567 0.01123-0.04995 0.025912-0.07614 0.036807-0.0292 0.012229-0.05593 0.024983-0.08566 0.036807-0.0266 0.01058-0.0492 0.017338-0.07614 0.027603-0.01348 0.00512-0.03403 0.013346-0.04759 0.018406-0.0025 0.0009652-0.007-0.0009656-0.0096 0-0.0244 0.00909-0.04202 0.018768-0.06663 0.027605-0.04099 0.014721-0.08243 0.031924-0.12371 0.046009-0.06883 0.023489-0.1406 0.042558-0.20936 0.064415-0.04126 0.013113-0.08283 0.024235-0.12371 0.036806-0.03136 0.00966-0.06415 0.027462-0.09517 0.036807-0.04986 0.015021-0.09418 0.022508-0.14274 0.036808-0.02295 0.00602-0.05313 0.01247-0.07614 0.018405-0.03701 0.00955-0.06757 0.018266-0.10468 0.027606-0.02307 0.00581-0.05301 0.012677-0.07614 0.018405-0.03719 0.00921-0.06738 0.018593-0.10468 0.027604-0.04033 0.00974-0.08326 0.018095-0.12371 0.027603-0.12136 0.028536-0.23916 0.056325-0.36162 0.082817-0.04083 0.00884-0.08279 0.018996-0.12371 0.027607-0.06447 0.013562-0.13509 0.023787-0.19984 0.036807-0.03228 0.0065-0.06282 0.021249-0.09517 0.027606-0.0031 0.0006101-0.0064-0.0006052-0.0096 0-0.12651 0.024819-0.25316 0.041564-0.38065 0.064416-0.04153 0.00744-0.08207 0.020366-0.12371 0.027603-0.08326 0.014481-0.16378 0.023124-0.24742 0.036807-0.06273 0.010262-0.12739 0.026981-0.19032 0.036807-0.12586 0.019655-0.25403 0.037244-0.38065 0.055213-0.04221 0.00602-0.08144 0.012568-0.12371 0.018406-0.08457 0.011616-0.17207 0.0167-0.25694 0.027607-0.04244 0.00549-0.08119 0.013094-0.12371 0.018405-0.04571 0.00567-0.09697 0.012927-0.14274 0.018405-0.07592 0.0091-0.15228 0.01905-0.22839 0.027605-0.0031 0.000362-0.0063-0.0003617-0.0096 0-0.34464 0.038639-0.68931 0.072498-1.0373 0.10122-0.08624 0.00718-0.17055 0.011774-0.25694 0.018405-0.30231 0.02298-0.61 0.047574-0.91356 0.064415-0.08367 0.00469-0.17323 0.00495-0.25694 0.0092-0.0434 0.00218-0.08983 0.00713-0.13323 0.0092-0.08373 0.00402-0.17319 0.00557-0.25694 0.0092-0.34732 0.014912-0.69047 0.027654-1.0373 0.036807-0.08673 0.0023-0.17032 0.0072-0.25694 0.0092-0.17631 0.00405-0.34756 0.00625-0.52339 0.0092-0.09036 0.0003665-0.18548-0.0000666-0.27597 0-0.0031 0.0000019-0.0063-0.000001-0.0096 0-0.04369 0.0000267-0.08953 0.0000462-0.13323 0-0.0031-0.000004-0.0063 0.0000044-0.0096 0-0.18423-0.0002164-0.36736 0.00161-0.55194 0-0.0031-0.0000288-0.0063 0.0000291-0.0096 0-0.09077-0.0008454-0.18515-0.00798-0.27597-0.0092-0.09395-0.00123-0.19152 0.00164-0.28549 0-0.09399-0.00167-0.18195-0.00707-0.27597-0.0092-0.0031-0.0000713-0.0063 0.0000715-0.0096 0-0.047-0.00103-0.08623 0.00116-0.13323 0-0.09403-0.00235-0.19145-0.00637-0.28548-0.0092-0.09403-0.00282-0.18197-0.00588-0.27597-0.0092-0.0031-0.0001107-0.0063 0.0001116-0.0096 0-0.09088-0.00324-0.18515-0.0055-0.27597-0.0092-0.13775-0.00555-0.28112-0.011701-0.41872-0.018405-0.0031-0.0001543-0.0063 0.0001548-0.0096 0-0.3721-0.018202-0.74332-0.04604-1.1134-0.073616-0.0031-0.0002341-0.0064 0.0002342-0.0096 0-0.27682-0.020689-0.55284-0.047031-0.82792-0.073616-0.003-0.0003006-0.0064 0.0003007-0.0096 0-0.1854-0.017967-0.36754-0.034354-0.55195-0.055213-0.04613-0.00524-0.08718-0.012972-0.13323-0.018405-0.06906-0.00811-0.14047-0.00987-0.20936-0.018405-0.20667-0.025596-0.41349-0.053199-0.61856-0.082818-0.06837-0.00987-0.1412-0.026469-0.20936-0.036807-0.09088-0.013786-0.17594-0.02218-0.26646-0.036807-0.045257-0.00731-0.088064-0.020076-0.13323-0.027606-0.02536-0.00424-0.0508-0.00491-0.076131-0.0092-0.022562-0.00382-0.044075-0.00533-0.066615-0.0092-0.045064-0.00775-0.088259-0.019637-0.13323-0.027602-0.022481-0.00398-0.044155-0.00515-0.066617-0.0092-0.044921-0.00808-0.088412-0.019302-0.13323-0.027604-0.0224-0.00417-0.044227-0.00498-0.066617-0.0092-0.044515-0.00832-0.088331-0.018852-0.13298-0.027499-0.1781-0.034659-0.35559-0.072157-0.5324-0.1105-0.044205-0.00959-0.089145-0.017778-0.13323-0.027605-0.04408-0.00982-0.089268-0.017535-0.13323-0.027607-0.02198-0.00503-0.044663-0.013306-0.066614-0.018404-0.058297-0.015578-0.12101-0.029853-0.18081-0.046011-0.029901-0.00808-0.055471-0.019358-0.085648-0.027606-0.060347-0.016496-0.11979-0.028734-0.18081-0.04601-0.030512-0.00864-0.064587-0.018748-0.095162-0.027606-0.030591-0.00885-0.055099-0.018507-0.085665-0.027601-0.030571-0.0091-0.06467-0.01826-0.095163-0.027606-0.030492-0.00934-0.064814-0.01799-0.095162-0.027606-0.0438-0.0141-0.0865-0.0306-0.1315-0.0457-0.03-0.01-0.0559-0.0172-0.0856-0.0276-0.0149-0.0052-0.0328-0.0132-0.0476-0.0184-0.0295-0.0105-0.0566-0.0168-0.0856-0.0276-0.0582-0.0217-0.1153-0.0505-0.1713-0.0736-0.0981-0.0406-0.1963-0.0833-0.2855-0.1289-0.035693-0.01821-0.07073-0.03613-0.10468-0.055213-0.00242-0.00133-0.00711 0.0014-0.00951 0-0.019624-0.011113-0.028596-0.025386-0.047581-0.036809-0.00585-0.00352-0.013248-0.00565-0.019029-0.0092-0.063732-0.038901-0.12548-0.076947-0.18081-0.11963-0.00503-0.00385-0.00454-0.00534-0.00951-0.0092-0.00693-0.00547-0.012248-0.012863-0.01903-0.018403-0.0049-0.00392-0.00475-0.00518-0.00951-0.0092-0.040311-0.033427-0.079763-0.06536-0.1142-0.10122-0.00415-0.00427-0.00548-0.00493-0.00951-0.0092-0.00708-0.00751-0.012224-0.019985-0.019031-0.027609-0.00153-0.00172-0.00798 0.00172-0.00951 0-0.017012-0.019201-0.022854-0.035298-0.038067-0.055213-0.00352-0.00452-0.00612-0.00467-0.00951-0.0092-0.011562-0.01546-0.018121-0.030107-0.028551-0.046009-0.00311-0.00467-0.00652-0.00452-0.00951-0.0092-0.012032-0.018801-0.027677-0.035784-0.038067-0.055212-0.00259-0.00486-0.00702-0.013509-0.00951-0.018402-0.00873-0.017138-0.011633-0.037574-0.019031-0.055213-0.00318-0.00756-0.0066-0.010754-0.00951-0.018402-0.00135-0.00709 0.00106-0.020572 0-0.027609-0.00106-0.00703-0.00878-0.011433-0.00951-0.018403-0.001-0.0093 0.000474-0.018409 0-0.02761-0.0002385-0.00459 0.0001102-0.00459 0-0.0092-0.0001077-0.00459-0.0000196-0.013855 0-0.018402 0.0000177-0.00452-0.0001432-0.00467 0-0.0092 0.0002928-0.00906-0.0007896-0.018655 0-0.027603 0.0003922-0.00445-0.0005144-0.00473 0-0.0092 0.000776-0.00669 0.00846-0.011783 0.00951-0.018403 0.00106-0.00659-0.00132-0.021045 0-0.027607 0.0008757-0.00439-0.0009951-0.00486 0-0.0092 0.001-0.00433 0.0084-0.014074 0.00951-0.018402 0.00112-0.00433-0.00123-0.00493 0-0.0092 0.00123-0.00433-0.00135-0.00493 0-0.0092 0.00534-0.017131 0.011923-0.038461 0.019031-0.055213 0.00178-0.0042 0.00763-0.00505 0.00951-0.0092 0.00282-0.00625 0.00645-0.012225 0.00951-0.018403 0.00306-0.00618 0.00621-0.012277 0.00951-0.018403 0.00331-0.00613 0.00598-0.01233 0.00951-0.018402 0.00119-0.00201-0.00119-0.00718 0-0.0092 0.0048-0.0081 0.01383-0.019614 0.019032-0.027609 0.00782-0.011971 0.010341-0.015852 0.019031-0.027608 0.00292-0.00392 0.00653-0.014506 0.00951-0.018403 0.00296-0.00392 0.00645-0.00534 0.00951-0.0092 0.00306-0.00385 0.00635-0.00534 0.00951-0.0092 0.00634-0.00772 0.012348-0.019986 0.01903-0.02761 0.0047-0.00534 0.014167-0.00392 0.019031-0.0092 0.00686-0.00758 0.011833-0.01092 0.019031-0.018403 0.00362-0.00373 0.00583-0.014694 0.00951-0.018404 0.00735-0.00744 0.011339-0.011058 0.01903-0.018402 0.00386-0.00366 0.00558-0.00559 0.00951-0.0092 0.00785-0.00729 0.020385-0.020399 0.028552-0.027609 0.0041-0.0036 0.00535-0.00565 0.00951-0.0092 0.012468-0.010747 0.02494-0.017063 0.038068-0.027608 0.00439-0.00352 0.014572-0.00572 0.019031-0.0092 0.017785-0.013968 0.028715-0.032404 0.047582-0.04601 0.014187-0.010182 0.032827-0.017629 0.047581-0.027609 0.014721-0.010012 0.032329-0.017798 0.047583-0.0276 0.010189-0.00653 0.01813-0.011978 0.02855-0.018403 0.053512-0.033402 0.10305-0.070128 0.16178-0.10122 0.045472-0.024074 0.094886-0.041698 0.14274-0.064414 0.035892-0.017036 0.067758-0.03892 0.10468-0.055213 0.024614-0.01086 0.051162-0.017078 0.076131-0.027601 0.012487-0.00525 0.025506-0.013223 0.038067-0.018402 0.025115-0.010365 0.050781-0.017564 0.076131-0.027609 0.012675-0.00498 0.025349-0.013462 0.038067-0.018402 0.025438-0.00987 0.050579-0.018049 0.076131-0.027606 0.025553-0.00956 0.050548-0.018363 0.076131-0.02761 0.025581-0.00924 0.050594-0.018672 0.076131-0.027602s0.050724-0.018988 0.076131-0.027609c0.012709-0.00433 0.025403-0.00498 0.038067-0.0092 0.02531-0.00848 0.051069-0.019447 0.076131-0.027609 0.037592-0.012244 0.077391-0.025245 0.11419-0.036809 0.013858-0.00399 0.024231-0.00525 0.038069-0.0092 0.041519-0.011845 0.082177-0.025364 0.12371-0.036809 0.00279-0.000799 0.00675 0.0007322 0.00951 0 0.052631-0.014429 0.10848-0.031758 0.16178-0.045973-1.9362 0.22572-3.1213 0.60172-3.1213 1.2699 3e-7 0.13012 0 2.1796 0 2.3097 3e-7 1.4114 5.2766 2.5582 11.781 2.5582 6.5046 7e-7 11.781-1.1467 11.781-2.5582v-2.3097c0-0.6826-1.235-1.0679-3.2451-1.2975z"/>
 <path id="path3959" style="color:#000000;fill-rule:evenodd;stroke-width:0;fill:url(#linearGradient3101)" d="m25.088 2.2529c0.01217 0.00321 0.0259 0.006 0.03807 0.0092 0.05443 0.014388 0.10737 0.031015 0.16178 0.04601 0.01307 0.0036 0.02501 0.00559 0.03807 0.0092 0.03167 0.00882 0.06361 0.018555 0.09518 0.0276 0.0094 0.00266 0.0193 0.00653 0.02854 0.0092 0.006 0.00172 0.01297-0.00172 0.01903 0 0.01665 0.00486 0.03097 0.013502 0.04759 0.018403 0.0195 0.00579 0.03768 0.012524 0.05711 0.018402 0.01347 0.00405 0.02465 0.00511 0.03806 0.0092 0.03116 0.00959 0.06426 0.017735 0.09517 0.027609 0.0082 0.0026 0.02038 0.00659 0.02854 0.0092 0.02595 0.00839 0.05042 0.018994 0.07615 0.027608 0.0093 0.00307 0.01938 0.00613 0.02854 0.0092 0.06077 0.020672 0.1218 0.042362 0.18081 0.064414 0.01563 0.00579 0.0321 0.012505 0.04759 0.018403 0.01815 0.00696 0.02964 0.011305 0.04759 0.018402 0.03698 0.014641 0.07822 0.030724 0.1142 0.04601 0.01213 0.00511 0.02605 0.013223 0.03806 0.018403 0.0027 0.0012 0.0068-0.0012 0.0096 0 0.01802 0.00792 0.03935 0.0195 0.05711 0.027609 0.0097 0.00439 0.01909 0.0048 0.02855 0.0092 0.0034 0.00159 0.006 0.00758 0.0096 0.0092 0.03403 0.016032 0.07188 0.02926 0.10468 0.046011 0.0087 0.00445 0.01992 0.013895 0.02854 0.018402 0.01104 0.00572 0.02717 0.012565 0.03806 0.018402 0.0063 0.00339 0.01277 0.00579 0.01903 0.0092 0.0067 0.0036 0.01246 0.00553 0.01903 0.0092 0.0062 0.00346 0.0033 0.00572 0.0096 0.0092 0.0062 0.00346 0.01288 0.00565 0.01904 0.0092 0.0061 0.00352 0.013 0.00565 0.01903 0.0092 0.0031 0.0018 0.0063 0.00735 0.0096 0.0092 0.01501 0.00895 0.03294 0.018461 0.04759 0.027602 0.0062 0.00385 0.01288 0.00534 0.01903 0.0092 0.0081 0.00519 0.01103 0.013175 0.01903 0.018403 0.0092 0.006 0.01959 0.012343 0.02854 0.018402 0.03093 0.020772 0.06626 0.042608 0.09518 0.064414 0.0025 0.00201 0.007 0.00719 0.0096 0.0092 0.02915 0.022243 0.05877 0.041052 0.08565 0.064414 0.0019 0.00165-0.0018 0.00752 0 0.0092 0.0082 0.00721 0.02056 0.011078 0.02854 0.018402 0.0046 0.00427 0.005 0.014089 0.0096 0.018402 0.0062 0.00592 0.01292 0.01241 0.01903 0.018404 0.0022 0.00219 0.0074-0.00219 0.0096 0 0.0022 0.00226 0.0073 0.00694 0.0096 0.0092 0.0061 0.00618 0.01311 0.012152 0.01903 0.018403 0.0014 0.00152-0.0014 0.00768 0 0.0092 0.0025 0.00266 0.0071 0.00653 0.0096 0.0092 0.02866 0.030878 0.05151 0.059253 0.07614 0.092021 0.005 0.00667 0.01419 0.011651 0.01903 0.018402 0.0014 0.00206-0.0014 0.00712 0 0.0092 0.002 0.00293 0.0075 0.00625 0.0096 0.0092 0.0058 0.00838 0.01354 0.019108 0.01903 0.027609 0.0022 0.00439 0.0074 0.0048 0.0096 0.0092 0.0042 0.00871 0.0058 0.018902 0.0096 0.0276 0.0094 0.02219 0.01321 0.041818 0.01903 0.064414 0.0036 0.013136 0.0072 0.032721 0.0096 0.04601 0.000729 0.00452-0.000593 0.00467 0 0.0092 0.001 0.00666 0.0088 0.011692 0.0096 0.018402 0.00093 0.011418 0.000015 0.025372 0 0.036809-0.000729 0.00733 0.000999 0.020332 0 0.027609-0.000729 0.00486-0.0087 0.01361-0.0096 0.018403-0.0012 0.00719 0.0015 0.011285 0 0.018402-0.0068 0.033346-0.01622 0.060266-0.02854 0.092021-0.0018 0.00452 0.0018 0.00473 0 0.0092-0.0028 0.00723-0.0063 0.011252-0.0096 0.018403-0.0029 0.00672-0.0063 0.01177-0.0096 0.018402-0.0041 0.00889-0.005 0.00966-0.0096 0.018403-0.0022 0.00439-0.0072 0.014054-0.0096 0.018403-0.0059 0.010867-0.0124 0.026132-0.01903 0.036809-0.0013 0.00213-0.0082-0.00213-0.0096 0-0.0027 0.00427 0.0027 0.00498 0 0.0092-0.014 0.021118-0.03119 0.044048-0.04757 0.064414-0.0032 0.00405-0.0061 0.00511-0.0096 0.0092-0.0033 0.00405-0.006 0.014389-0.0096 0.018403-0.02767 0.03213-0.06203 0.06171-0.09515 0.09202-0.0041 0.00379-0.0053 0.00547-0.0096 0.0092-0.0068 0.006-0.02159 0.012458-0.02854 0.018402-0.0043 0.00373-0.005 0.014728-0.0096 0.018403-0.01604 0.013242-0.04012 0.023915-0.05711 0.036809-0.0028 0.00213-0.0066 0.00707-0.0096 0.0092-0.02962 0.022076-0.06297 0.043336-0.09516 0.064414-0.0073 0.00473-0.01166 0.013694-0.01903 0.018402-0.01327 0.00838-0.03394 0.019388-0.04759 0.027608-0.11135 0.067119-0.24057 0.12648-0.37114 0.18404-0.02567 0.01123-0.04995 0.025912-0.07614 0.036807-0.0292 0.012229-0.05593 0.024983-0.08566 0.036807-0.0266 0.01058-0.0492 0.017338-0.07614 0.027604-0.01348 0.00512-0.03403 0.013347-0.04759 0.018406-0.0025 0.0009652-0.007-0.0009656-0.0096 0-0.0244 0.00909-0.04202 0.018768-0.06663 0.027605-0.04099 0.014722-0.08243 0.031922-0.12371 0.04601-0.06883 0.02349-0.1406 0.042559-0.20936 0.064415-0.04126 0.013114-0.08283 0.024235-0.12371 0.036807-0.03136 0.00965-0.06415 0.027461-0.09517 0.036807-0.04986 0.015021-0.09418 0.022507-0.14274 0.036808-0.02295 0.00602-0.05313 0.01247-0.07614 0.018405-0.03701 0.00955-0.06757 0.018265-0.10468 0.027605-0.02307 0.00581-0.05301 0.012676-0.07614 0.018405-0.03719 0.00921-0.06738 0.018593-0.10468 0.027605-0.04033 0.00974-0.08326 0.018095-0.12371 0.027604-0.12136 0.028536-0.23916 0.056325-0.36162 0.082818-0.04083 0.00884-0.08279 0.018996-0.12371 0.027603-0.06447 0.013562-0.13509 0.023788-0.19984 0.036806-0.03228 0.0065-0.06282 0.021249-0.09517 0.027605-0.0031 0.0006101-0.0064-0.0006051-0.0096 0-0.12651 0.024819-0.25316 0.041565-0.38065 0.064416-0.04153 0.00744-0.08207 0.020366-0.12371 0.027603-0.08326 0.014481-0.16378 0.023123-0.24742 0.036807-0.06273 0.010261-0.12739 0.026981-0.19032 0.036807-0.12586 0.019655-0.25403 0.037244-0.38065 0.055213-0.04221 0.00602-0.08144 0.012568-0.12371 0.018406-0.08457 0.011616-0.17207 0.0167-0.25694 0.027606-0.04244 0.00549-0.08119 0.013095-0.12371 0.018405-0.04571 0.00567-0.09697 0.012927-0.14274 0.018405-0.07592 0.0091-0.15228 0.01905-0.22839 0.027605-0.0031 0.000362-0.0063-0.0003618-0.0096 0-0.34464 0.03864-0.68931 0.072498-1.0373 0.10122-0.08624 0.00718-0.17055 0.011774-0.25694 0.018405-0.30231 0.02298-0.61 0.047573-0.91356 0.064415-0.08367 0.00469-0.17323 0.00495-0.25694 0.0092-0.0434 0.00218-0.08983 0.00713-0.13323 0.0092-0.08373 0.00402-0.17319 0.00557-0.25694 0.0092-0.34732 0.014913-0.69047 0.027652-1.0373 0.036807-0.08673 0.0023-0.17032 0.0072-0.25694 0.0092-0.17631 0.00405-0.34756 0.00625-0.52339 0.0092-0.09036 0.0003666-0.18548-0.0000663-0.27597 0-0.0031 0.000002-0.0063-9e-7 -0.0096 0-0.04369 0.0000268-0.08953 0.0000463-0.13323 0-0.0031-0.0000038-0.0063 0.0000047-0.0096 0-0.18423-0.0002161-0.36736 0.00161-0.55194 0-0.0031-0.0000286-0.0063 0.0000294-0.0096 0-0.09077-0.0008453-0.18515-0.00798-0.27597-0.0092-0.09395-0.00123-0.19152 0.00164-0.28549 0-0.09399-0.00167-0.18195-0.00707-0.27597-0.0092-0.0031-0.0000715-0.0063 0.0000714-0.0096 0-0.047-0.00103-0.08623 0.00116-0.13323 0-0.09403-0.00235-0.19145-0.00637-0.28548-0.0092-0.09403-0.00282-0.18197-0.00588-0.27597-0.0092-0.0031-0.0001107-0.0063 0.0001116-0.0096 0-0.09088-0.00324-0.18515-0.0055-0.27597-0.0092-0.13775-0.00555-0.28112-0.011701-0.41872-0.018405-0.0031-0.0001543-0.0063 0.0001549-0.0096 0-0.3721-0.018202-0.74332-0.046041-1.1134-0.073616-0.0031-0.000234-0.0064 0.0002341-0.0096 0-0.27682-0.020689-0.55284-0.04703-0.82792-0.073616-0.003-0.0003008-0.0064 0.0003007-0.0096 0-0.1854-0.017967-0.36754-0.034351-0.55195-0.055214-0.04613-0.00524-0.08718-0.012972-0.13323-0.018405-0.06906-0.00811-0.14047-0.00987-0.20936-0.018405-0.20667-0.025596-0.41349-0.053199-0.61856-0.082818-0.06837-0.00987-0.1412-0.026469-0.20936-0.036807-0.09088-0.013786-0.17594-0.02218-0.26646-0.036807-0.045257-0.00731-0.088064-0.020076-0.13323-0.027605-0.02536-0.00424-0.0508-0.00491-0.076131-0.0092-0.022562-0.00382-0.044075-0.00533-0.066615-0.0092-0.045064-0.00775-0.088259-0.019638-0.13323-0.027604-0.022481-0.00398-0.044155-0.00515-0.066617-0.0092-0.044921-0.00808-0.088412-0.019302-0.13323-0.027603-0.0224-0.00417-0.044227-0.00498-0.066617-0.0092-0.0422-0.008-0.086-0.0185-0.1307-0.0272-0.1788-0.0346-0.3562-0.0721-0.5331-0.1104-0.044205-0.00959-0.089145-0.017779-0.13323-0.027605-0.044079-0.00983-0.089268-0.017535-0.13323-0.027607-0.02198-0.00503-0.044663-0.013306-0.066614-0.018404-0.058297-0.015578-0.12101-0.029853-0.18081-0.04601-0.029902-0.00808-0.055471-0.019358-0.085647-0.027606-0.060347-0.016497-0.11979-0.028735-0.18081-0.04601-0.030505-0.00863-0.064588-0.018749-0.095162-0.027604-0.030591-0.00886-0.0551-0.018509-0.085666-0.027602-0.03057-0.0091-0.064669-0.01826-0.095162-0.027607-0.030494-0.00934-0.064815-0.017989-0.095164-0.027604-0.045519-0.01443-0.088227-0.030938-0.13323-0.046013-0.03-0.010053-0.055968-0.017243-0.085646-0.027605-0.01484-0.00517-0.032832-0.013142-0.047582-0.018404-0.0295-0.0105-0.0566-0.0168-0.0856-0.0276-0.0582-0.0217-0.1153-0.0505-0.1713-0.0736-0.0981-0.0406-0.1963-0.0833-0.2855-0.1289-0.0357-0.0182-0.0708-0.0361-0.1047-0.0552-0.00242-0.00133-0.00711 0.0014-0.00951 0-0.019624-0.011113-0.028596-0.025386-0.047581-0.036809-0.00585-0.00352-0.013248-0.00565-0.019032-0.0092-0.0638-0.0389-0.1255-0.0769-0.1808-0.1196-0.0051-0.0039-0.0046-0.0053-0.0095-0.0092-0.007-0.0055-0.0123-0.0129-0.0191-0.0184-0.0049-0.0039-0.0047-0.0053-0.0095-0.0092-0.0403-0.0334-0.0797-0.0654-0.1142-0.1012-0.00415-0.00427-0.00548-0.00493-0.00951-0.0092-0.00708-0.00751-0.012224-0.019985-0.01903-0.02761-0.00153-0.00172-0.00798 0.00172-0.00951 0-0.017012-0.019195-0.022854-0.035297-0.038067-0.055213-0.00352-0.00452-0.00612-0.00467-0.00951-0.0092-0.011562-0.015459-0.018121-0.030107-0.028551-0.04601-0.00311-0.00467-0.00652-0.00452-0.00951-0.0092-0.012032-0.018801-0.027676-0.035785-0.038067-0.055212-0.00259-0.00486-0.00702-0.013509-0.00951-0.018401-0.00873-0.017137-0.011633-0.037574-0.019032-0.055213-0.00318-0.00756-0.0066-0.010754-0.00951-0.018401-0.00135-0.00709 0.00106-0.020571 0-0.02761-0.00106-0.00703-0.00878-0.011432-0.00951-0.018403-0.001-0.0093 0.0004742-0.018409 0-0.027608-0.0002385-0.00459 0.0001103-0.00459 0-0.0092-0.0001078-0.00459-0.0000195-0.013855 0-0.018403 0.0000177-0.00452-0.0001433-0.00467 0-0.0092 0.0002931-0.00906-0.0007897-0.018655 0-0.027609 0.0003922-0.00445-0.0005143-0.00473 0-0.0092 0.0007763-0.00669 0.00846-0.011785 0.00951-0.018402 0.00106-0.00659-0.00132-0.021046 0-0.0276 0.0008756-0.0044-0.0009953-0.00486 0-0.0092 0.001-0.00433 0.0084-0.014074 0.00951-0.018402 0.00112-0.00433-0.00123-0.00493 0-0.0092 0.00123-0.00433-0.00133-0.00493 0-0.0092 0.00534-0.017132 0.011923-0.038461 0.019032-0.055213 0.00178-0.0042 0.00763-0.00505 0.00951-0.0092 0.00282-0.00625 0.00645-0.012224 0.00951-0.018403 0.00306-0.00618 0.00621-0.012278 0.00951-0.018403 0.00331-0.00613 0.00598-0.01233 0.00951-0.018403 0.00119-0.00201-0.00119-0.00718 0-0.0092 0.0048-0.0081 0.013829-0.019614 0.019031-0.027603 0.00782-0.011971 0.010342-0.015852 0.019031-0.027609 0.00292-0.00392 0.00653-0.014508 0.00951-0.018403 0.00296-0.00392 0.00645-0.00534 0.00951-0.0092 0.00306-0.00385 0.00635-0.00534 0.00951-0.0092 0.00634-0.00772 0.012348-0.019987 0.019032-0.0276 0.0047-0.00534 0.014168-0.00392 0.019031-0.0092 0.00686-0.00758 0.011833-0.010919 0.019031-0.018402 0.00362-0.00373 0.00583-0.014694 0.00951-0.018404 0.00735-0.00744 0.011339-0.011058 0.01903-0.018402 0.00386-0.00366 0.00558-0.00559 0.00951-0.0092 0.00785-0.00729 0.020385-0.020399 0.02855-0.027609 0.0041-0.0036 0.00535-0.00565 0.00951-0.0092 0.012467-0.010748 0.024937-0.017064 0.038067-0.027609 0.00439-0.00352 0.014571-0.00572 0.019031-0.0092 0.017786-0.013968 0.028714-0.0324 0.047581-0.046011 0.014187-0.010182 0.032827-0.017628 0.047581-0.027609 0.014721-0.010012 0.032328-0.017796 0.047581-0.027609 0.010189-0.00653 0.01813-0.011971 0.028551-0.018403 0.053512-0.033402 0.10305-0.070128 0.16178-0.10122 0.045472-0.024074 0.094886-0.041697 0.14274-0.064414 0.035892-0.017037 0.067758-0.03892 0.10468-0.055213 0.024612-0.01086 0.051162-0.017078 0.076131-0.027609 0.012487-0.00525 0.025506-0.013224 0.038067-0.018403 0.025115-0.010364 0.050781-0.017563 0.07613-0.027609 0.012675-0.00498 0.025349-0.013462 0.038067-0.018403 0.025438-0.00987 0.050579-0.018048 0.076131-0.027609 0.025553-0.00956 0.050548-0.018363 0.076131-0.02761 0.025581-0.00924 0.050594-0.018674 0.076131-0.027602 0.025537-0.00893 0.050725-0.018987 0.076131-0.02761 0.012709-0.00433 0.025403-0.00498 0.038067-0.0092 0.02531-0.00847 0.051068-0.019447 0.076131-0.027609 0.037592-0.012244 0.077391-0.025245 0.11419-0.036809 0.013858-0.00399 0.02423-0.00525 0.038069-0.0092 0.04152-0.011845 0.082177-0.025365 0.12371-0.036809 0.00279-0.0007991 0.00675 0.0007322 0.00951 0 0.052628-0.014442 0.10848-0.031772 0.16178-0.045986-1.9362 0.22573-3.1213 0.60172-3.1213 1.2699 3e-7 0.13012 0 2.1796 0 2.3097 3e-7 1.4114 5.2766 2.5582 11.781 2.5582 6.5046 7e-7 11.781-1.1467 11.781-2.5582v-2.3097c0-0.6826-1.235-1.0679-3.245-1.2975z"/>
 <path id="path18219" style="stroke-linejoin:round;color:#000000;fill-rule:evenodd;stroke:url(#linearGradient3098);stroke-linecap:round;stroke-width:.12379;fill:#d9dcd5" d="m16.2 1.0014c-0.38462 0.00206-0.76849 0.010386-1.1515 0.018402-2.866 0.1023-5.8094 0.333-8.4211 1.1594-0.8667 0.2981-1.9735 0.7781-1.8462 1.5092 0.27533 0.78895 1.5587 1.1711 2.5884 1.4723 3.1016 0.78864 6.4898 0.96247 9.7923 0.94781 3.0515-0.055931 6.1814-0.25833 9.0024-1.0674 0.92792-0.29909 2.102-0.7238 2.1697-1.4815 0.000119-0.088454-0.01736-0.18232-0.0571-0.26686-0.452-0.7655-1.735-1.1132-2.817-1.4079-2.955-0.6987-6.128-0.90047-9.26-0.8834zm-0.56146 0.40489c3.0296-0.040452 6.119 0.10833 8.9834 0.72696 0.98035 0.24382 2.1416 0.53533 2.5504 1.1687 0.03599 0.069947 0.05721 0.13847 0.05711 0.21165-0.06138 0.62692-1.1293 0.97642-1.9699 1.2239-2.5553 0.66942-5.3913 0.84633-8.1555 0.8926-2.992 0.0119-6.06-0.1391-8.8698-0.7916-0.9328-0.2492-2.0916-0.5619-2.341-1.2146-0.1154-0.6049 0.8802-1.0049 1.6653-1.2515 2.3658-0.6838 5.0345-0.8724 7.6325-0.957 0.14868-0.00285 0.29827-0.00721 0.44726-0.0092z"/>
 <path id="path7867" style="color:#000000;fill-rule:evenodd;fill:url(#linearGradient3095)" d="m16.2 1.0014c-0.38462 0.00206-0.76849 0.010386-1.1515 0.018402-2.866 0.1023-5.8094 0.333-8.4211 1.1594-0.8667 0.2981-1.9735 0.7781-1.8462 1.5092 0.27533 0.78895 1.5587 1.1711 2.5884 1.4723 3.1016 0.78864 6.4898 0.96247 9.7923 0.94781 3.0515-0.055931 6.1814-0.25833 9.0024-1.0674 0.92792-0.29909 2.102-0.7238 2.1697-1.4815 0.00012-0.088454-0.01736-0.18232-0.0571-0.26686-0.452-0.7655-1.735-1.1132-2.817-1.4079-2.955-0.6987-6.128-0.90047-9.26-0.8834zm-0.56146 0.40489c3.0296-0.040452 6.119 0.10833 8.9834 0.72696 0.98035 0.24382 2.1416 0.53533 2.5504 1.1687 0.03599 0.069947 0.05721 0.13847 0.05711 0.21165-0.06138 0.62692-1.1293 0.97642-1.9699 1.2239-2.556 0.6692-5.391 0.8461-8.156 0.8924-2.991 0.0121-6.059-0.1389-8.8688-0.7914-0.9328-0.2492-2.0916-0.5619-2.341-1.2146-0.1154-0.6049 0.8802-1.0049 1.6653-1.2515 2.3658-0.6838 5.0345-0.8724 7.6325-0.957 0.14868-0.00285 0.29827-0.00721 0.44726-0.0092z"/>
</svg>
