<?xml version="1.0" encoding="UTF-8" standalone="no"?>
<svg
   xmlns:dc="http://purl.org/dc/elements/1.1/"
   xmlns:cc="http://creativecommons.org/ns#"
   xmlns:rdf="http://www.w3.org/1999/02/22-rdf-syntax-ns#"
   xmlns:svg="http://www.w3.org/2000/svg"
   xmlns="http://www.w3.org/2000/svg"
   width="16"
   version="1.1"
   id="svg7384"
   height="16">
  <metadata
     id="metadata90">
    <rdf:RDF>
      <cc:Work
         rdf:about="">
        <dc:format>image/svg+xml</dc:format>
        <dc:type
           rdf:resource="http://purl.org/dc/dcmitype/StillImage" />
        <dc:title>elementary Symbolic Icon Theme</dc:title>
      </cc:Work>
    </rdf:RDF>
  </metadata>
  <title
     id="title9167">elementary Symbolic Icon Theme</title>
  <defs
     id="defs7386" />
  <g
     transform="translate(-513.00061,-108)"
     style="display:inline"
     label="status"
     id="layer9" />
  <g
     transform="translate(-513.00061,-108)"
     style="display:inline"
     id="layer10" />
  <g
     transform="translate(-513.00061,-108)"
     style="display:inline"
     id="layer13" />
  <g
     transform="translate(-513.00061,-108)"
     id="layer14" />
  <g
     transform="translate(-513.00061,-108)"
     style="display:inline"
     id="layer15" />
  <g
     transform="translate(-513.00061,-108)"
     style="display:inline"
     id="g71291" />
  <path
     id="rect4288"
     d="M 3 1 C 2.446 1 2 1.446 2 2 L 2 14 C 2 14.554 2.446 15 3 15 L 13 15 C 13.554 15 14 14.554 14 14 L 14 2 C 14 1.446 13.554 1 13 1 L 3 1 z M 4 2 L 5.5 2 L 8 2 L 12.5 2 C 12.777 2 13 2.223 13 2.5 L 13 13.5 C 13 13.777 12.777 14 12.5 14 L 8 14 L 5.5 14 L 4 14 L 4 2 z M 8.4882812 5.0019531 C 8.0065342 4.9699034 7.5361099 5.2516315 7.2558594 5.6328125 C 6.9831696 6.1243162 7.205404 6.7096891 7.0351562 7.2285156 C 6.9316015 7.5999351 7.0349154 7.9957956 7.3066406 8.265625 C 7.5379237 8.5573841 7.8226174 8.9381298 7.6640625 9.3300781 C 7.4345774 9.7712572 6.9769838 10.030219 6.5605469 10.265625 C 6.451122 10.310158 6.3088994 10.387109 6.1914062 10.478516 C 6.0852679 10.507416 6 10.587583 6 10.703125 L 6 10.744141 L 6 11.75 C 6 11.8885 6.1115 12 6.25 12 L 10.75 12 C 10.8885 12 11 11.8885 11 11.75 L 11 11 L 11 10.703125 L 11 10.46875 C 10.443858 10.166503 9.8165503 9.8753226 9.5039062 9.2871094 C 9.3979298 8.8250119 9.7223838 8.4204746 10.007812 8.0996094 C 10.289048 7.7420016 10.178268 7.2707933 10.080078 6.8710938 C 10.038551 6.4288856 10.181154 5.905346 9.8515625 5.5429688 C 9.4952175 5.181401 8.9802241 5.0340602 8.4882812 5.0019531 z "
     style="color:#000000;clip-rule:nonzero;display:inline;overflow:visible;visibility:visible;opacity:1;isolation:auto;mix-blend-mode:normal;color-interpolation:sRGB;color-interpolation-filters:linearRGB;solid-color:#000000;solid-opacity:1;fill:#bebebe;fill-opacity:1;fill-rule:nonzero;stroke:none;stroke-width:2;stroke-linecap:butt;stroke-linejoin:miter;stroke-miterlimit:4;stroke-dasharray:none;stroke-dashoffset:0;stroke-opacity:1;marker:none;color-rendering:auto;image-rendering:auto;shape-rendering:auto;text-rendering:auto;enable-background:new;filter-blend-mode:normal;filter-gaussianBlur-deviation:0" />
</svg>
