<?xml version="1.0" encoding="UTF-8" standalone="no"?>
<!-- Created with Inkscape (http://www.inkscape.org/) -->

<svg
   xmlns:svg="http://www.w3.org/2000/svg"
   xmlns="http://www.w3.org/2000/svg"
   xmlns:xlink="http://www.w3.org/1999/xlink"
   version="1.0"
   width="32"
   height="32"
   id="svg3082">
  <defs
     id="defs3084">
    <linearGradient
       id="linearGradient5060">
      <stop
         id="stop5062"
         style="stop-color:black;stop-opacity:1"
         offset="0" />
      <stop
         id="stop5064"
         style="stop-color:black;stop-opacity:0"
         offset="1" />
    </linearGradient>
    <linearGradient
       id="linearGradient5048">
      <stop
         id="stop5050"
         style="stop-color:black;stop-opacity:0"
         offset="0" />
      <stop
         id="stop5056"
         style="stop-color:black;stop-opacity:1"
         offset="0.5" />
      <stop
         id="stop5052"
         style="stop-color:black;stop-opacity:0"
         offset="1" />
    </linearGradient>
    <linearGradient
       id="linearGradient6388">
      <stop
         id="stop6390"
         style="stop-color:#a00;stop-opacity:1"
         offset="0" />
      <stop
         id="stop6392"
         style="stop-color:#a00;stop-opacity:0"
         offset="1" />
    </linearGradient>
    <linearGradient
       id="linearGradient6457">
      <stop
         id="stop6459"
         style="stop-color:white;stop-opacity:0.94117647"
         offset="0" />
      <stop
         id="stop6461"
         style="stop-color:white;stop-opacity:0.70588237"
         offset="1" />
    </linearGradient>
    <linearGradient
       id="linearGradient2781">
      <stop
         id="stop2783"
         style="stop-color:#505050;stop-opacity:1"
         offset="0" />
      <stop
         id="stop6301"
         style="stop-color:#6e6e6e;stop-opacity:1"
         offset="0.13216467" />
      <stop
         id="stop2785"
         style="stop-color:#8c8c8c;stop-opacity:1"
         offset="1" />
    </linearGradient>
    <linearGradient
       id="linearGradient3690">
      <stop
         id="stop3692"
         style="stop-color:white;stop-opacity:1"
         offset="0" />
      <stop
         id="stop3694"
         style="stop-color:white;stop-opacity:0.46875"
         offset="1" />
    </linearGradient>
    <linearGradient
       x1="302.85715"
       y1="366.64789"
       x2="302.85715"
       y2="609.50507"
       id="linearGradient6658"
       xlink:href="#linearGradient5048"
       gradientUnits="userSpaceOnUse"
       gradientTransform="matrix(2.774389,0,0,1.969706,-1892.179,-872.8854)" />
    <radialGradient
       cx="605.71429"
       cy="486.64789"
       r="117.14286"
       fx="605.71429"
       fy="486.64789"
       id="radialGradient6660"
       xlink:href="#linearGradient5060"
       gradientUnits="userSpaceOnUse"
       gradientTransform="matrix(2.774389,0,0,1.969706,-1891.633,-872.8854)" />
    <radialGradient
       cx="605.71429"
       cy="486.64789"
       r="117.14286"
       fx="605.71429"
       fy="486.64789"
       id="radialGradient6662"
       xlink:href="#linearGradient5060"
       gradientUnits="userSpaceOnUse"
       gradientTransform="matrix(-2.774389,0,0,1.969706,112.7623,-872.8854)" />
    <linearGradient
       x1="4.4712124"
       y1="12.708246"
       x2="14.979"
       y2="23.156176"
       id="linearGradient5529"
       xlink:href="#linearGradient6388"
       gradientUnits="userSpaceOnUse"
       gradientTransform="matrix(0,-0.7144277,0.7025428,0,-5.928087,30.194358)" />
    <linearGradient
       x1="4.4712124"
       y1="12.708246"
       x2="14.979"
       y2="23.156176"
       id="linearGradient5532"
       xlink:href="#linearGradient6388"
       gradientUnits="userSpaceOnUse"
       gradientTransform="matrix(0,0.7144277,0.7025428,0,-5.928087,5.805642)" />
    <linearGradient
       x1="4.4712124"
       y1="12.708246"
       x2="14.979"
       y2="23.156176"
       id="linearGradient5535"
       xlink:href="#linearGradient6388"
       gradientUnits="userSpaceOnUse"
       gradientTransform="matrix(0,-0.7144277,-0.7025428,0,37.928087,30.194358)" />
    <linearGradient
       x1="4.4712124"
       y1="12.708246"
       x2="14.979"
       y2="23.156176"
       id="linearGradient5538"
       xlink:href="#linearGradient6388"
       gradientUnits="userSpaceOnUse"
       gradientTransform="matrix(0,0.7144277,-0.7025428,0,37.928087,5.805642)" />
    <linearGradient
       x1="24"
       y1="13"
       x2="24"
       y2="40"
       id="linearGradient5550"
       xlink:href="#linearGradient6457"
       gradientUnits="userSpaceOnUse"
       gradientTransform="matrix(0.6842105,0,0,0.6666667,-0.4210528,0.3333337)" />
    <linearGradient
       x1="16.033964"
       y1="9.0734701"
       x2="16.075121"
       y2="15.044087"
       id="linearGradient5553"
       xlink:href="#linearGradient3690"
       gradientUnits="userSpaceOnUse"
       gradientTransform="matrix(0.8709822,0,0,0.7931189,-5.7743321,-3.0350888)" />
    <linearGradient
       x1="21.866402"
       y1="8.5763302"
       x2="21.780495"
       y2="39.923653"
       id="linearGradient5556"
       xlink:href="#linearGradient2781"
       gradientUnits="userSpaceOnUse"
       gradientTransform="matrix(0.8787984,0,0,0.8196848,-5.9697866,-3.8775339)" />
  </defs>
  <g
     id="g6332">
    <g
       transform="matrix(0.01576018,0,0,0.00912212,30.017662,27.011042)"
       id="g5022"
       style="opacity:0.58730164;display:inline">
      <rect
         width="1339.6335"
         height="478.35718"
         x="-1559.2523"
         y="-150.69685"
         id="rect4173"
         style="opacity:0.40206185;fill:url(#linearGradient6658);fill-opacity:1;fill-rule:nonzero;stroke:none;stroke-width:1;marker:none;visibility:visible;display:inline;overflow:visible" />
      <path
         d="m -219.61876,-150.68038 c 0,0 0,478.33079 0,478.33079 142.874166,0.90045 345.40022,-107.16966 345.40014,-239.196175 0,-132.026537 -159.436816,-239.134595 -345.40014,-239.134615 z"
         id="path5058"
         style="opacity:0.40206185;fill:url(#radialGradient6660);fill-opacity:1;fill-rule:nonzero;stroke:none;stroke-width:1;marker:none;visibility:visible;display:inline;overflow:visible" />
      <path
         d="m -1559.2523,-150.68038 c 0,0 0,478.33079 0,478.33079 -142.8742,0.90045 -345.4002,-107.16966 -345.4002,-239.196175 0,-132.026537 159.4368,-239.134595 345.4002,-239.134615 z"
         id="path5018"
         style="opacity:0.40206185;fill:url(#radialGradient6662);fill-opacity:1;fill-rule:nonzero;stroke:none;stroke-width:1;marker:none;visibility:visible;display:inline;overflow:visible" />
    </g>
    <rect
       width="29.000372"
       height="25.000372"
       rx="2"
       ry="2"
       x="1.5"
       y="3.4996281"
       id="rect1887"
       style="fill:url(#linearGradient5556);fill-opacity:1;stroke:#565853;stroke-width:1;stroke-miterlimit:4;stroke-opacity:1;stroke-dasharray:none" />
    <rect
       width="27.000456"
       height="23.000454"
       rx="1"
       ry="1"
       x="2.5"
       y="4.4995461"
       id="rect2779"
       style="opacity:0.2;fill:none;stroke:url(#linearGradient5553);stroke-width:1;stroke-miterlimit:4;stroke-opacity:1;stroke-dasharray:none" />
    <rect
       width="26"
       height="18"
       rx="0.5"
       ry="0.5"
       x="3"
       y="9"
       id="rect6287"
       style="fill:url(#linearGradient5550);fill-opacity:1;stroke:none" />
    <path
       d="M 28,6.9999998 C 28.00024,7.5522144 27.552454,8 27,8 26.447547,8 25.999761,7.5522144 26,6.9999998 25.999761,6.4477854 26.447547,6 27,6 c 0.552454,0 1.00024,0.4477854 1,0.9999998 l 0,0 z"
       id="path6289"
       style="fill:#ffc24c;fill-opacity:1;stroke:none" />
    <path
       d="m 25,7 c 2.4e-4,0.5522144 -0.447546,1 -1,1 -0.552454,0 -1.00024,-0.4477856 -1,-1 -2.4e-4,-0.5522145 0.447546,-1 1,-1 0.552454,0 1.00024,0.4477855 1,1 l 0,0 z"
       id="path6291"
       style="fill:#ffc24c;fill-opacity:1;stroke:none" />
    <path
       d="M 22,7 C 22.000241,7.5522144 21.552454,8 21.000001,8 20.447547,8 19.999761,7.5522144 20,7 19.999761,6.4477855 20.447547,6 21.000001,6 21.552454,6 22.000241,6.4477855 22,7 l 0,0 z"
       id="path6293"
       style="fill:#ffc24c;fill-opacity:1;stroke:none" />
    <path
       d="M 27.098664,15.143976 25.692855,13.721359 23.56313,15.851083 22.148917,14.43687 24.295449,12.290337 22.889639,10.86772 28,10 27.098664,15.143976 z"
       id="path6366"
       style="fill:url(#linearGradient5538);fill-opacity:1;stroke:none" />
    <path
       d="m 27.098664,20.856024 -1.405809,1.422617 -2.129725,-2.129724 -1.414213,1.414213 2.146532,2.146533 -1.40581,1.422617 L 28,26 27.098664,20.856024 z"
       id="path6332"
       style="fill:url(#linearGradient5535);fill-opacity:1;stroke:none" />
    <path
       d="M 4.901336,15.143976 6.307145,13.721359 8.43687,15.851083 9.851083,14.43687 7.704551,12.290337 9.110361,10.86772 4,10 4.901336,15.143976 z"
       id="path6336"
       style="fill:url(#linearGradient5532);fill-opacity:1;stroke:none" />
    <path
       d="M 4.901336,20.856024 6.307145,22.278641 8.43687,20.148917 9.851083,21.56313 7.704551,23.709663 9.110361,25.13228 4,26 4.901336,20.856024 z"
       id="path6340"
       style="fill:url(#linearGradient5529);fill-opacity:1;stroke:none" />
  </g>
</svg>
