<?xml version="1.0" encoding="UTF-8" standalone="no"?>
<!-- Created with Inkscape (http://www.inkscape.org/) -->
<svg id="svg7384" xmlns:rdf="http://www.w3.org/1999/02/22-rdf-syntax-ns#" xmlns="http://www.w3.org/2000/svg" height="16" width="16" version="1.1" xmlns:cc="http://creativecommons.org/ns#" xmlns:dc="http://purl.org/dc/elements/1.1/">
 <metadata id="metadata90">
  <rdf:RDF>
   <cc:Work rdf:about="">
    <dc:format>image/svg+xml</dc:format>
    <dc:type rdf:resource="http://purl.org/dc/dcmitype/StillImage"/>
    <dc:title>Gnome Symbolic Icon Theme</dc:title>
   </cc:Work>
  </rdf:RDF>
 </metadata>
 <title id="title9167">Gnome Symbolic Icon Theme</title>
 <g id="layer11" transform="translate(-223 -509)">
  <path id="rect11749-5-9-2-7" style="block-progression:tb;text-indent:0;color:#bebebe;text-transform:none;fill:#bebebe" d="m226.7 510c-1.5329 0-2.7188 1.3195-2.7188 2.8438v8.3438c0 1.5243 1.1859 2.8438 2.7188 2.8438h8.579c1.5329 0 2.75-1.3195 2.75-2.8438v-8.3438c0-1.5243-1.2171-2.8438-2.75-2.8438zm0.78125 1.0312c3.5267 0.25598 5.3172 0.13378 7.0477 0 0.75419-0.0583 1.5312 0.61584 1.5312 1.4375v7.375c0 0.66541-0.53119 1.0957-1.1875 1.1875-2.8364 0.39685-4.7531 0.44007-7.6727 0-0.65529-0.0988-1.1875-0.52209-1.1875-1.1875v-7.3438c0-0.82166 0.71429-1.5235 1.4688-1.4688z"/>
  <path id="path11643" style="block-progression:tb;text-indent:0;color:#000000;text-transform:none;fill:#bebebe" d="m233.53 514.97-2.9062 0.0625 0.0312 1 2.8438-0.0625c0.2071 0.0159 0.33933 0.0958 0.40625 0.15625 0.0669 0.0604 0.125 0.10938 0.125 0.28125v0.59375h-2.4688-0.0312c-0.45298-0.0248-0.89083 0.15721-1.1562 0.4375-0.27171 0.28694-0.39313 0.66382-0.40625 1.0312-0.0131 0.36743 0.0835 0.75908 0.34375 1.0625 0.25437 0.29652 0.69445 0.4734 1.1562 0.46875 0.0108-0.00011 0.0204 0.00032 0.0312 0h2.9688 0.5v-0.5l0.0625-3.0938c0-0.40265-0.16191-0.78234-0.4375-1.0312-0.27559-0.24891-0.63259-0.37798-1-0.40625h-0.0312-0.0312zm-2.0625 3.0312h0.0312 0.0312 2.4688l-0.0312 1h-2.5c-0.22008 0.007-0.30527-0.0437-0.375-0.125-0.0697-0.0813-0.13026-0.22753-0.125-0.375 0.005-0.14747 0.0777-0.29202 0.15625-0.375 0.0786-0.083 0.14359-0.1401 0.34375-0.125z"/>
  <path id="path11645" style="block-progression:tb;text-indent:0;color:#000000;text-transform:none;fill:#bebebe" d="m234.34 512.03-3 1 0.3125 0.9375 3-1-0.3125-0.9375z"/>
 </g>
</svg>
