<?xml version="1.0" encoding="UTF-8" standalone="no"?>
<svg
   height="16"
   width="16"
   version="1.1"
   id="svg8"
   xmlns="http://www.w3.org/2000/svg"
   xmlns:svg="http://www.w3.org/2000/svg"
   xmlns:rdf="http://www.w3.org/1999/02/22-rdf-syntax-ns#"
   xmlns:cc="http://creativecommons.org/ns#"
   xmlns:dc="http://purl.org/dc/elements/1.1/">
  <metadata
     id="metadata14">
    <rdf:RDF>
      <cc:Work
         rdf:about="">
        <dc:format>image/svg+xml</dc:format>
        <dc:type
           rdf:resource="http://purl.org/dc/dcmitype/StillImage" />
      </cc:Work>
    </rdf:RDF>
  </metadata>
  <defs
     id="defs12" />
  <path
     id="rect825"
     style="opacity:1;vector-effect:none;fill:#555761;fill-opacity:1;stroke:none;stroke-width:2;stroke-linecap:round;stroke-linejoin:round;stroke-miterlimit:4;stroke-dasharray:none;stroke-dashoffset:0;stroke-opacity:1"
     d="M 3.5,1 C 2.669,1 2,1.669 2,2.5 v 11 C 2,14.331 2.669,15 3.5,15 h 9 C 13.331,15 14,14.331 14,13.5 V 2.5 C 14,1.669 13.331,1 12.5,1 Z m 0,1 h 9 C 12.777,2 13,2.223 13,2.5 v 11 c 0,0.277 -0.223,0.5 -0.5,0.5 h -9 C 3.223,14 3,13.777 3,13.5 V 2.5 C 3,2.223 3.223,2 3.5,2 Z M 10.535156,5 7,8.5351562 5.5859375,7.1210938 4.171875,8.5351562 5.5859375,9.9492188 7,11.363281 8.4140625,9.9492188 11.949219,6.4140625 Z" />
</svg>
