<svg xmlns="http://www.w3.org/2000/svg" viewBox="0 0 16 16"><path d="M5.5 2A2.5 2.5 0 0 0 3 4.5v1a.5.5 0 0 0-.5.5v.5c0 .552.224 1 .5 1 .037 0 .06-.047.094-.063.148.76.47 1.418.906 1.875-.02.7-.105.74-.156.97C2.7 11.29 1.432 11.847.188 12.624A.487.487 0 0 0 0 13v1.5a.5.5 0 0 0 .5.5h10a.5.5 0 0 0 .5-.5V13a.484.484 0 0 0-.156-.344c-1.264-.78-2.564-1.324-3.688-2.375-.05-.22-.135-.26-.156-.96.437-.46.758-1.115.906-1.874.035.016.057.063.094.063.276 0 .5-.448.5-1V6a.5.5 0 0 0-.5-.5v-1A2.5 2.5 0 0 0 5.5 2zm6.25 2a1.945 1.945 0 0 0-1.938 1.938v.75c-.16 0-.285.11-.343.25-.01.03-.03.062-.04.093v.44c0 .43.16.75.374.75.03 0 .067-.02.093-.03.115.59.35 1.09.69 1.44-.017.54-.087.577-.126.75a7.007 7.007 0 0 1-.69.53c.503.29 1.034.56 1.596.91a1.002 1.002 0 0 1 .19.125c.22.22.436.607.436 1.063v1.5c0 .178-.035.34-.094.5h3.72a.367.367 0 0 0 .373-.374v-2.16a.415.415 0 0 0-.124-.282c-.976-.6-1.974-1.003-2.843-1.81-.04-.177-.11-.21-.127-.75a2.86 2.86 0 0 0 .72-1.44c.03.013.036.033.065.033.214 0 .375-.33.375-.75v-.41a.367.367 0 0 0-.376-.378v-.75C13.68 4.874 12.81 4 11.74 4z" color="#000" fill="#bebebe" overflow="visible"/></svg>