<?xml version="1.0" encoding="UTF-8" standalone="no"?>
<svg
   xmlns:dc="http://purl.org/dc/elements/1.1/"
   xmlns:cc="http://creativecommons.org/ns#"
   xmlns:rdf="http://www.w3.org/1999/02/22-rdf-syntax-ns#"
   xmlns:svg="http://www.w3.org/2000/svg"
   xmlns="http://www.w3.org/2000/svg"
   height="16"
   id="svg7384"
   version="1.1"
   width="16">
  <metadata
     id="metadata90">
    <rdf:RDF>
      <cc:Work
         rdf:about="">
        <dc:format>image/svg+xml</dc:format>
        <dc:type
           rdf:resource="http://purl.org/dc/dcmitype/StillImage" />
        <dc:title>elementary Symbolic Icon Theme</dc:title>
      </cc:Work>
    </rdf:RDF>
  </metadata>
  <title
     id="title9167">elementary Symbolic Icon Theme</title>
  <defs
     id="defs7386">
    <filter
       color-interpolation-filters="sRGB"
       id="filter7554">
      <feBlend
         id="feBlend7556"
         in2="BackgroundImage"
         mode="darken" />
    </filter>
    <filter
       color-interpolation-filters="sRGB"
       id="filter7554-7">
      <feBlend
         id="feBlend7556-6"
         in2="BackgroundImage"
         mode="darken" />
    </filter>
  </defs>
  <g
     id="layer9"
     label="status"
     style="display:inline"
     transform="translate(-453.00035,52)" />
  <g
     id="layer10"
     style="display:inline"
     transform="translate(-453.00035,52)" />
  <g
     id="layer13"
     style="display:inline"
     transform="translate(-453.00035,52)" />
  <g
     id="layer14"
     transform="translate(-453.00035,52)" />
  <g
     id="layer15"
     style="display:inline"
     transform="translate(-453.00035,52)" />
  <g
     id="g71291"
     style="display:inline"
     transform="translate(-453.00035,52)" />
  <g
     id="layer12"
     style="display:inline"
     transform="translate(-453.00035,52)">
    <path
       d="m 461.0004,-50.96875 c -3.86004,0 -7,3.15573 -7,7 0,3.84428 3.13996,6.96875 7,6.96875 3.86004,0 7,-3.12447 7,-6.96875 0,-3.84427 -3.13996,-7 -7,-7 z m 0,2 c 1.07321,0 2.06181,0.37031 2.875,0.9375 l -6.9375,6.9375 c -0.58423,-0.81026 -0.9375,-1.79114 -0.9375,-2.875 0,-2.7656 2.22305,-5 5,-5 z m 4.25,2.375 c 0.47818,0.76504 0.78125,1.65313 0.78125,2.625 0,2.76561 -2.25431,4.96875 -5.03125,4.96875 -0.95706,0 -1.83509,-0.29551 -2.59375,-0.75 l 6.84375,-6.84375 z"
       id="path4222"
       style="font-size:medium;font-style:normal;font-variant:normal;font-weight:normal;font-stretch:normal;text-indent:0;text-align:start;text-decoration:none;line-height:normal;letter-spacing:normal;word-spacing:normal;text-transform:none;direction:ltr;block-progression:tb;writing-mode:lr-tb;text-anchor:start;baseline-shift:baseline;color:#000000;fill:#bebebe;fill-opacity:1;stroke:none;stroke-width:1.97519779;marker:none;visibility:visible;display:inline;overflow:visible;enable-background:accumulate;font-family:Sans;-inkscape-font-specification:Sans" />
  </g>
</svg>
