<svg xmlns="http://www.w3.org/2000/svg" viewBox="0 0 16 16"><title>elementary Symbolic Icon Theme</title><path d="M8 1.03c-3.86 0-7 3.157-7 7C1 11.877 4.14 15 8 15s7-3.124 7-6.97c0-3.843-3.14-7-7-7zm0 2c1.073 0 2.062.372 2.875.94l-6.937 6.936A4.88 4.88 0 0 1 3 8.03c0-2.764 2.223-5 5-5zm4.25 2.376c.478.765.78 1.653.78 2.625C13.03 10.8 10.778 13 8 13c-.957 0-1.835-.296-2.594-.75l6.844-6.844z" style="text-indent:0;text-align:start;line-height:normal;text-transform:none;block-progression:tb;-inkscape-font-specification:Sans" font-weight="400" color="#000" fill="#bebebe" overflow="visible" font-family="Sans"/></svg>