<?xml version="1.0" encoding="UTF-8" standalone="no"?>
<svg
   xmlns:dc="http://purl.org/dc/elements/1.1/"
   xmlns:cc="http://creativecommons.org/ns#"
   xmlns:rdf="http://www.w3.org/1999/02/22-rdf-syntax-ns#"
   xmlns:svg="http://www.w3.org/2000/svg"
   xmlns="http://www.w3.org/2000/svg"
   height="16"
   id="svg7384"
   version="1.1"
   width="16">
  <metadata
     id="metadata90">
    <rdf:RDF>
      <cc:Work
         rdf:about="">
        <dc:format>image/svg+xml</dc:format>
        <dc:type
           rdf:resource="http://purl.org/dc/dcmitype/StillImage" />
        <dc:title>elementary Symbolic Icon Theme</dc:title>
      </cc:Work>
    </rdf:RDF>
  </metadata>
  <title
     id="title9167">elementary Symbolic Icon Theme</title>
  <defs
     id="defs7386">
    <filter
       color-interpolation-filters="sRGB"
       id="filter7554">
      <feBlend
         id="feBlend7556"
         in2="BackgroundImage"
         mode="darken" />
    </filter>
    <filter
       color-interpolation-filters="sRGB"
       id="filter7554-7">
      <feBlend
         id="feBlend7556-6"
         in2="BackgroundImage"
         mode="darken" />
    </filter>
  </defs>
  <g
     id="layer9"
     label="status"
     style="display:inline"
     transform="translate(-493.0004,12)" />
  <g
     id="layer10"
     style="display:inline"
     transform="translate(-493.0004,12)" />
  <g
     id="layer13"
     style="display:inline"
     transform="translate(-493.0004,12)" />
  <g
     id="layer14"
     transform="translate(-493.0004,12)" />
  <g
     id="layer15"
     style="display:inline"
     transform="translate(-493.0004,12)" />
  <g
     id="g71291"
     style="display:inline"
     transform="translate(-493.0004,12)" />
  <g
     id="layer12"
     style="display:inline"
     transform="translate(-493.0004,12)">
    <path
       d="m 504.2504,-12 c -1.03398,0 -1.90534,0.59396 -2.375,1.4375 l -0.15625,-0.15625 -1.15625,-0.25 -0.96875,0.96875 0.6875,0.71875 1,1 L 497.0004,-4 l -1,2.4375 0.5,0.5625 2.5,-1 4.28125,-4.28125 1,1 0.71875,0.6875 1.125,-1.125 -0.40625,-1 -0.15625,-0.15625 c 0.84354,-0.46966 1.4375,-1.34102 1.4375,-2.375 0,-1.51878 -1.23122,-2.75 -2.75,-2.75 z m -2.46875,4.21875 1,1 L 500.0004,-4 l -2,0 3.78125,-3.78125 z m -6.125,6.875 c 0,0 -1.8125,2.4758 -1.8125,3.34375 0,0.86794 0.7258,1.5625 1.59375,1.5625 0.86795,0 1.5625,-0.69456 1.5625,-1.5625 0,-0.86795 -1.34375,-3.34375 -1.34375,-3.34375 z"
       id="path26492"
       style="color:#000000;fill:#bebebe;fill-opacity:1;fill-rule:nonzero;stroke:none;stroke-width:2;marker:none;visibility:visible;display:inline;overflow:visible;enable-background:new" />
  </g>
</svg>
