<?xml version="1.0" encoding="UTF-8" standalone="no"?>
<svg
   height="16"
   width="16"
   version="1.1"
   id="svg6"
   xml:space="preserve"
   xmlns="http://www.w3.org/2000/svg"
   xmlns:svg="http://www.w3.org/2000/svg"><defs
     id="defs10" /><path
     id="rect322"
     style="opacity:1;fill:#555761;stroke:none;stroke-width:1;stroke-linecap:round;-inkscape-stroke:none;stop-color:#000000"
     d="M 4 1 C 2.8920033 1 2 1.8920033 2 3 L 2 3.0039062 C 2.0319487 3.0037681 2.0637157 3.0006057 2.0957031 3.0019531 A 0.98355776 0.90394742 0 0 1 2.1015625 3.0019531 C 2.4200096 3.0172803 2.7283858 3.1040615 3 3.25 L 3 3 C 3 2.4460018 3.4460018 2 4 2 L 12 2 C 12.553997 2 13 2.4460018 13 3 L 13 13 C 13 13.553997 12.553997 14 12 14 L 10 14 L 4 14 L 2.2675781 14 C 2.6125539 14.598076 3.2572266 15 4 15 L 12 15 C 13.107997 15 14 14.107997 14 13 L 14 3 C 14 1.8920033 13.107997 1 12 1 L 4 1 z M 2.0507812 4 C 2.0097644 3.99831 1.968671 3.9991031 1.9277344 4.0019531 C 1.7415443 4.0143531 1.5629286 4.0747973 1.4121094 4.1738281 C 1.4087194 4.1760381 1.4056836 4.1774275 1.4023438 4.1796875 C 1.3658248 4.2044755 1.3312378 4.2326688 1.2988281 4.2617188 C 1.2968681 4.2628886 1.2949186 4.2624919 1.2929688 4.2636719 C 1.1119793 4.4261128 1 4.6510133 1 4.9003906 L 1 12.099609 C 1 12.598154 1.446003 13 2 13 L 10 13 C 10.277116 13 10.526525 12.899207 10.707031 12.736328 C 10.709631 12.733428 10.712244 12.731516 10.714844 12.728516 C 10.722744 12.721616 10.730601 12.714171 10.738281 12.707031 C 11.098468 12.351833 11.084706 11.803063 10.707031 11.462891 L 2.7070312 4.2636719 C 2.5321434 4.1056457 2.298277 4.011664 2.0507812 4 z M 3 7.2167969 L 7.2070312 11.001953 L 3 11.001953 L 3 7.2167969 z M 9.3769531 11.25 A 1.9988148 1.9988148 0 0 0 9.3320312 11.292969 C 9.3333754 11.291604 9.3326302 11.288461 9.3339844 11.287109 L 9.359375 11.261719 L 9.3691406 11.251953 L 9.3710938 11.251953 C 9.3728614 11.250364 9.3751797 11.251572 9.3769531 11.25 z " /></svg>
