<?xml version="1.0" encoding="UTF-8" standalone="no"?>
<svg
   xmlns:dc="http://purl.org/dc/elements/1.1/"
   xmlns:cc="http://creativecommons.org/ns#"
   xmlns:rdf="http://www.w3.org/1999/02/22-rdf-syntax-ns#"
   xmlns:svg="http://www.w3.org/2000/svg"
   xmlns="http://www.w3.org/2000/svg"
   height="16"
   width="16"
   version="1.1"
   id="svg8">
  <metadata
     id="metadata14">
    <rdf:RDF>
      <cc:Work
         rdf:about="">
        <dc:format>image/svg+xml</dc:format>
        <dc:type
           rdf:resource="http://purl.org/dc/dcmitype/StillImage" />
        <dc:title></dc:title>
      </cc:Work>
    </rdf:RDF>
  </metadata>
  <defs
     id="defs12" />
  <path
     id="path818"
     d="M 9.3632812 2 C 7.8472817 2 6.5357656 2.8954229 5.8847656 4.1953125 C 5.4514361 3.9096613 4.9451906 3.7579366 4.4277344 3.7578125 C 2.9227344 3.7578125 1.703125 5.014013 1.703125 6.5664062 C 1.703125 6.81386 1.7427813 7.0519767 1.8007812 7.28125 C 0.66654333 8.0786378 -0.006236485 9.3893941 0.001953125 10.785156 C 0.001953125 13.120311 1.8248906 15 4.0878906 15 L 5 15 L 5 14 L 4.1113281 14 C 2.38725 14 1 12.589591 1 10.765625 A 0.94612389 0.94441446 0 0 0 1 10.759766 C 0.99366893 9.6827427 1.5111663 8.6761274 2.3828125 8.0644531 A 0.94612389 0.94441446 0 0 0 2.7578125 7.0585938 C 2.7132478 6.8827483 2.6894531 6.7265044 2.6894531 6.5820312 C 2.6894531 5.5373488 3.48066 4.7421875 4.4492188 4.7421875 C 4.7784536 4.7422663 5.10067 4.8377346 5.3769531 5.0195312 A 0.94612389 0.94441446 0 0 0 6.7421875 4.6542969 C 7.2389403 3.6641938 8.218167 3 9.3515625 3 C 10.971201 3 12.294922 4.3451543 12.294922 6.0625 C 12.294922 6.2654853 12.278744 6.4532919 12.246094 6.6328125 A 0.94612389 0.94441446 0 0 0 12.869141 7.6953125 C 14.092625 8.1163788 15 9.3109695 15 10.765625 C 15 12.590117 13.614703 14 11.890625 14 L 11 14 L 11 15 L 11.917969 15 C 14.180969 15 16.001953 13.120311 16.001953 10.785156 C 16.001953 8.9206692 14.834844 7.3456478 13.214844 6.7871094 C 13.258844 6.5447057 13.279297 6.2965494 13.279297 6.0410156 C 13.2793 3.809892 11.525281 2 9.3632812 2 z M 8 7.0253906 C 7.8637815 7.0253906 7.727563 7.0796299 7.625 7.1855469 L 5.125 10.185547 C 4.894 10.474547 5.131 10.987047 5.5 10.998047 L 7 10.998047 L 7 15.498047 C 7.00231 15.738952 7.1709498 15.946333 7.40625 15.998047 C 7.437515 16.000947 7.468735 16.000947 7.5 15.998047 L 8.5 15.998047 C 8.7717763 15.987777 8.9897335 15.769823 9 15.498047 L 9 10.998047 L 10.5 10.998047 C 10.869 10.987047 11.106 10.474547 10.875 10.185547 L 8.375 7.1855469 C 8.272437 7.0796299 8.1362185 7.0253906 8 7.0253906 z "
     style="color:#000000;overflow:visible;fill:#666666;stroke-width:1;marker:none" />
</svg>
