<?xml version="1.0" encoding="UTF-8" standalone="no"?>
<svg
   id="svg6"
   version="1.1"
   width="16"
   height="16"
   xmlns="http://www.w3.org/2000/svg"
   xmlns:svg="http://www.w3.org/2000/svg"
   xmlns:rdf="http://www.w3.org/1999/02/22-rdf-syntax-ns#"
   xmlns:cc="http://creativecommons.org/ns#"
   xmlns:dc="http://purl.org/dc/elements/1.1/">
  <metadata
     id="metadata12">
    <rdf:RDF>
      <cc:Work
         rdf:about="">
        <dc:format>image/svg+xml</dc:format>
        <dc:type
           rdf:resource="http://purl.org/dc/dcmitype/StillImage" />
      </cc:Work>
    </rdf:RDF>
  </metadata>
  <defs
     id="defs10" />
  <path
     id="path232"
     style="fill:#555761;fill-opacity:1;stroke:none;stroke-width:1px;stroke-linecap:butt;stroke-linejoin:miter;stroke-opacity:1"
     d="M 6.5351562 3 C 5.8984903 3.0003001 5.56881 3.2690642 5.140625 3.7402344 L 1.2871094 7.7597656 C 0.90533166 8.1794161 0.90533166 8.8205839 1.2871094 9.2402344 L 5.140625 13.259766 C 5.56881 13.730935 5.8984904 13.9997 6.5351562 14 L 13.5 14 C 14.328426 14 15 13.328426 15 12.5 L 15 4.5 C 15 3.6715737 14.328426 3 13.5 3 L 6.5351562 3 z M 7.9082031 5.7167969 C 8.0999171 5.7167969 8.2905989 5.7905989 8.4375 5.9375 L 9.7636719 7.2636719 L 11.089844 5.9375 C 11.383646 5.6436977 11.856589 5.6436981 12.150391 5.9375 L 12.326172 6.1132812 C 12.619974 6.4070838 12.619974 6.8800258 12.326172 7.1738281 L 11 8.5 L 12.326172 9.8261719 C 12.619974 10.119974 12.619974 10.592916 12.326172 10.886719 L 12.150391 11.0625 C 11.856588 11.356302 11.383646 11.356303 11.089844 11.0625 L 9.7636719 9.7363281 L 8.4375 11.0625 C 8.1436977 11.356302 7.6707557 11.356303 7.3769531 11.0625 L 7.1992188 10.886719 C 6.9054162 10.592916 6.9054165 10.119974 7.1992188 9.8261719 L 8.5253906 8.5 L 7.1992188 7.1738281 C 6.9054164 6.8800258 6.9054165 6.4070835 7.1992188 6.1132812 L 7.3769531 5.9375 C 7.5238543 5.7905989 7.7164892 5.7167968 7.9082031 5.7167969 z " />
</svg>
