<?xml version="1.0" encoding="UTF-8" standalone="no"?>
<svg
   width="16"
   height="16"
   version="1.1"
   id="svg1"
   sodipodi:docname="edit-paste-style-symbolic.svg"
   inkscape:version="1.4.2 (ebf0e940, 2025-05-08)"
   xmlns:inkscape="http://www.inkscape.org/namespaces/inkscape"
   xmlns:sodipodi="http://sodipodi.sourceforge.net/DTD/sodipodi-0.dtd"
   xmlns="http://www.w3.org/2000/svg"
   xmlns:svg="http://www.w3.org/2000/svg">
  <sodipodi:namedview
     id="namedview1"
     pagecolor="#ffffff"
     bordercolor="#000000"
     borderopacity="0.25"
     inkscape:showpageshadow="2"
     inkscape:pageopacity="0.0"
     inkscape:pagecheckerboard="0"
     inkscape:deskcolor="#d1d1d1"
     showgrid="true"
     inkscape:zoom="17.500463"
     inkscape:cx="8.7140552"
     inkscape:cy="8.2283537"
     inkscape:window-width="1440"
     inkscape:window-height="785"
     inkscape:window-x="0"
     inkscape:window-y="25"
     inkscape:window-maximized="1"
     inkscape:current-layer="svg1">
    <inkscape:grid
       id="grid1"
       units="px"
       originx="0"
       originy="0"
       spacingx="0.5"
       spacingy="0.5"
       empcolor="#0099e5"
       empopacity="0.30196078"
       color="#0099e5"
       opacity="0.14901961"
       empspacing="2"
       enabled="true"
       visible="true" />
  </sodipodi:namedview>
  <defs
     id="defs1">
    <inkscape:path-effect
       effect="fillet_chamfer"
       id="path-effect8"
       is_visible="true"
       lpeversion="1"
       nodesatellites_param="F,0,0,1,0,1,0,1 @ F,0,0,1,0,1,0,1 @ F,0,0,1,0,0,0,1 @ F,0,0,1,0,0,0,1"
       radius="0"
       unit="px"
       method="auto"
       mode="F"
       chamfer_steps="1"
       flexible="false"
       use_knot_distance="true"
       apply_no_radius="true"
       apply_with_radius="true"
       only_selected="false"
       hide_knots="false" />
    <inkscape:path-effect
       effect="fillet_chamfer"
       id="path-effect5"
       is_visible="true"
       lpeversion="1"
       nodesatellites_param="F,0,0,1,0,1,0,1 @ F,0,0,1,0,1,0,1 @ F,0,0,1,0,0,0,1 @ F,0,0,1,0,0,0,1"
       radius="0"
       unit="px"
       method="auto"
       mode="F"
       chamfer_steps="1"
       flexible="false"
       use_knot_distance="true"
       apply_no_radius="true"
       apply_with_radius="true"
       only_selected="false"
       hide_knots="false" />
    <inkscape:path-effect
       effect="fillet_chamfer"
       id="path-effect4"
       is_visible="true"
       lpeversion="1"
       nodesatellites_param="F,0,0,1,0,0,0,1 @ F,0,0,1,0,0,0,1 @ F,0,0,1,0,0,0,1 @ F,0,0,1,0,0,0,1 @ F,0,0,1,0,0,0,1 @ F,0,0,1,0,0,0,1 @ F,0,0,1,0,0,0,1 @ F,0,0,1,0,0,0,1 @ F,0,0,1,0,0,0,1 @ F,0,0,1,0,0,0,1 @ F,0,0,1,0,0,0,1 @ F,0,0,1,0,0,0,1 @ F,0,0,1,0,0,0,1 @ F,0,0,1,0,0,0,1 | F,0,0,1,0,0,0,1 @ F,0,0,1,0,0,0,1 @ F,0,0,1,0,0,0,1 @ F,0,0,1,0,0,0,1 @ F,0,0,1,0,0,0,1 @ F,0,0,1,0,0,0,1 @ F,0,0,1,0,0,0,1 @ F,0,0,1,0,0,0,1 @ F,0,0,1,0,0,0,1 @ F,0,0,1,0,1.5,0,1 @ F,0,0,1,0,0,0,1 @ F,0,0,1,0,0,0,1"
       radius="0"
       unit="px"
       method="auto"
       mode="F"
       chamfer_steps="1"
       flexible="false"
       use_knot_distance="true"
       apply_no_radius="true"
       apply_with_radius="true"
       only_selected="false"
       hide_knots="false" />
    <linearGradient
       id="linearGradient30">
      <stop
         offset="0"
         style="stop-color:#ffffff;stop-opacity:1"
         id="stop27" />
      <stop
         offset="0.30769232"
         style="stop-color:#ffffff;stop-opacity:0.23529412"
         id="stop28" />
      <stop
         offset="0.69230771"
         style="stop-color:#ffffff;stop-opacity:0.15686275"
         id="stop29" />
      <stop
         offset="1"
         style="stop-color:#ffffff;stop-opacity:0.39215687"
         id="stop30" />
    </linearGradient>
    <linearGradient
       id="linearGradient1168">
      <stop
         id="stop1160"
         style="stop-color:#ffffff;stop-opacity:1"
         offset="0" />
      <stop
         id="stop1162"
         style="stop-color:#ffffff;stop-opacity:0.23529412"
         offset="0.41666666" />
      <stop
         id="stop1164"
         style="stop-color:#ffffff;stop-opacity:0.15686275"
         offset="0.67927718" />
      <stop
         id="stop1166"
         style="stop-color:#ffffff;stop-opacity:0.39215687"
         offset="1" />
    </linearGradient>
    <inkscape:path-effect
       effect="fillet_chamfer"
       id="path-effect24"
       is_visible="true"
       lpeversion="1"
       nodesatellites_param="F,0,0,1,0,1.101997,0,1 @ F,0,0,1,0,0,0,1 @ F,0,0,1,0,0,0,1 @ F,0,0,1,0,0.52123871,0,1 @ F,0,0,1,0,0,0,1"
       radius="0"
       unit="px"
       method="auto"
       mode="F"
       chamfer_steps="1"
       flexible="false"
       use_knot_distance="true"
       apply_no_radius="true"
       apply_with_radius="true"
       only_selected="false"
       hide_knots="false" />
    <linearGradient
       id="linearGradient40">
      <stop
         offset="0"
         style="stop-color:#ffffff;stop-opacity:0.39215687"
         id="stop40" />
      <stop
         offset="0.27978143"
         style="stop-color:#ffffff;stop-opacity:0.15686275"
         id="stop39" />
      <stop
         offset="0.55956393"
         style="stop-color:#ffffff;stop-opacity:0.23529412"
         id="stop38" />
      <stop
         offset="1"
         style="stop-color:#ffffff;stop-opacity:1"
         id="stop37" />
    </linearGradient>
  </defs>
  <path
     id="path1"
     style="display:inline;fill:#555761"
     d="M 7.4492188,0 C 7.1992188,0 7,0.223 7,0.5 V 1 H 5.5 C 5.223,1 5,1.223 5,1.5 v 1 C 5,2.777 5.223,3 5.5,3 h 5 C 10.777,3 11,2.777 11,2.5 v -1 C 11,1.223 10.777,1 10.5,1 H 9 V 0.5 C 9,0.223 8.8007812,0 8.5507812,0 Z M 2.5,1 C 1.669,1 1,1.669 1,2.5 v 12 C 1,15.331 1.669,16 2.5,16 h 11 C 14.331,16 15,15.331 15,14.5 V 2.5 C 15,1.669 14.331,1 13.5,1 H 12 V 2.5 C 12,3.3284271 11.328427,4 10.5,4 h -5 C 4.6715729,4 4,3.3284271 4,2.5 V 1 Z M 8,5 C 8.554,5 9,5.446 9,6 9,7 8.5,8 8.5,9 H 12 c 0.552285,0 1,0.4477153 1,1 v 1 H 3 V 10 C 3,9.4477153 3.4477153,9 4,9 H 7.5 C 7.5,8 7,7 7,6 7,5.446 7.446,5 8,5 Z m -4,7 h 8 c 0,0 0.86312,1.2 -0.08984,3 h -1.830078 c 0.636373,-0.9 0.185547,-2 0.185547,-2 10e-7,0 -0.4124542,1.4 -1.0488281,2 H 7.8535156 c 0.6363698,-0.9 0.2792969,-2 0.2792969,-2 0,0 -0.5062041,1.4 -1.1425781,2 H 5.625 C 6.261374,14.1 6,13 6,13 6,13 5.4000459,14.4 4.7636719,15 H 3 c 1.272748,-1.8 1,-3 1,-3 z"
     sodipodi:nodetypes="sscsssssssscssssssssssscsssscssscssccsscsscccccccccccccc" />
</svg>
