<?xml version="1.0" encoding="UTF-8" standalone="no"?>
<svg
   xmlns:dc="http://purl.org/dc/elements/1.1/"
   xmlns:cc="http://creativecommons.org/ns#"
   xmlns:rdf="http://www.w3.org/1999/02/22-rdf-syntax-ns#"
   xmlns:svg="http://www.w3.org/2000/svg"
   xmlns="http://www.w3.org/2000/svg"
   width="16"
   version="1.1"
   id="svg7384"
   height="16">
  <metadata
     id="metadata90">
    <rdf:RDF>
      <cc:Work
         rdf:about="">
        <dc:format>image/svg+xml</dc:format>
        <dc:type
           rdf:resource="http://purl.org/dc/dcmitype/StillImage" />
        <dc:title>elementary Symbolic Icon Theme</dc:title>
        <cc:license
           rdf:resource="http://creativecommons.org/licenses/by-sa/3.0/" />
      </cc:Work>
      <cc:License
         rdf:about="http://creativecommons.org/licenses/by-sa/3.0/">
        <cc:permits
           rdf:resource="http://creativecommons.org/ns#Reproduction" />
        <cc:permits
           rdf:resource="http://creativecommons.org/ns#Distribution" />
        <cc:requires
           rdf:resource="http://creativecommons.org/ns#Notice" />
        <cc:requires
           rdf:resource="http://creativecommons.org/ns#Attribution" />
        <cc:permits
           rdf:resource="http://creativecommons.org/ns#DerivativeWorks" />
        <cc:requires
           rdf:resource="http://creativecommons.org/ns#ShareAlike" />
      </cc:License>
    </rdf:RDF>
  </metadata>
  <title
     id="title9167">elementary Symbolic Icon Theme</title>
  <defs
     id="defs7386" />
  <g
     transform="translate(-297.00061,15)"
     style="display:inline"
     id="layer12">
    <path
       style="font-style:italic;font-variant:normal;font-weight:bold;font-stretch:normal;font-size:medium;line-height:125%;font-family:'Helvetica World';-inkscape-font-specification:'Helvetica World Bold';letter-spacing:0px;word-spacing:0px;fill:#bebebe;fill-opacity:1;stroke:none;stroke-width:1px;stroke-linecap:butt;stroke-linejoin:miter;stroke-opacity:1"
       id="path4370"
       d="m 308.06926,-8.968992 q -0.0233,-1.968993 -2.10853,-1.968993 -1.72093,0 -2.7752,1.7364335 -1.05426,1.7286832 -1.05426,3.6899235 0,1.2403101 0.56589,1.8449612 0.56589,0.6046512 1.58915,0.6046512 2.24031,0 2.96899,-2.1472868 l 2.37985,0 Q 308.22429,-1 303.99949,-1 q -2.04651,0 -3.20156,-1.077519 -1.14728,-1.0775199 -1.14728,-2.9767447 0,-3.2945733 1.88372,-5.6201553 Q 303.41809,-13 306.37158,-13 q 1.92248,0 3.0155,0.953488 1.09302,0.945737 1.09302,2.3410845 0,0.426357 -0.031,0.7364355 l -2.37985,0 z" />
  </g>
</svg>
