<svg xmlns="http://www.w3.org/2000/svg" viewBox="0 0 16 16"><title>elementary Symbolic Icon Theme</title><g color="#000" fill="#bebebe"><path d="M6 .05v2h6c.428 0 1 .614 1 1v1H8c-.92 0-1.736.384-2.25.97A3.017 3.017 0 0 0 5 7.05c.006.72.27 1.453.78 2.03.514.58 1.312.97 2.22.97h7v-7a3 3 0 0 0-3-3H6zm2 6h5v2H8c-.398 0-.567-.11-.72-.28A1.157 1.157 0 0 1 7 7.05c-.002-.28.105-.554.25-.72.145-.164.328-.28.75-.28zM4 15H3c-.265 0-.53-.093-.72-.28l-2-2-.28-.283v-.874l.28-.282 2-2C2.47 9.095 2.736 9 3 9h1v1c0 .265-.093.53-.28.72L2.436 12l1.282 1.28c.187.19.28.455.28.72v1z" style="text-indent:0;text-transform:none;block-progression:tb"/><path d="M2 11v2h12.938v-2H1.998z" style="text-indent:0;text-transform:none;block-progression:tb"/></g></svg>