<svg xmlns="http://www.w3.org/2000/svg" viewBox="0 0 16 16"><title>elementary Symbolic Icon Theme</title><g font-weight="400" color="#000" fill="#bebebe"><path d="M2 0v2h6c.428 0 1 .614 1 1v1H4c-.92 0-1.735.384-2.25.97A3.017 3.017 0 0 0 1 7c.006.72.27 1.453.78 2.03.514.58 1.312.97 2.22.97h7V3a3 3 0 0 0-3-3H2zm2 6h5v2H4c-.398 0-.567-.11-.72-.28A1.162 1.162 0 0 1 3 7c-.002-.28.105-.554.25-.72.145-.164.328-.28.75-.28z" style="text-indent:0;text-align:start;line-height:normal;text-transform:none;block-progression:tb;-inkscape-font-specification:Sans" font-size="xx-small" overflow="visible" font-family="Sans"/><path d="M12 15h1c.265 0 .53-.093.72-.28l2-2 .28-.283v-.874l-.28-.282-2-2A1.015 1.015 0 0 0 13 9h-1v1c0 .265.093.53.28.72L13.563 12l-1.28 1.28c-.19.19-.282.455-.282.72v1z" style="text-indent:0;text-align:start;line-height:normal;text-transform:none;block-progression:tb;-inkscape-font-specification:Bitstream Vera Sans" overflow="visible" font-family="Bitstream Vera Sans"/><path d="M.937 11v2H14v-2H.937z" style="text-indent:0;text-align:start;line-height:normal;text-transform:none;block-progression:tb;-inkscape-font-specification:Sans" overflow="visible" font-family="Sans"/></g></svg>