<?xml version="1.0" encoding="UTF-8" standalone="no"?>
<svg
   xmlns:dc="http://purl.org/dc/elements/1.1/"
   xmlns:cc="http://creativecommons.org/ns#"
   xmlns:rdf="http://www.w3.org/1999/02/22-rdf-syntax-ns#"
   xmlns:svg="http://www.w3.org/2000/svg"
   xmlns="http://www.w3.org/2000/svg"
   width="16"
   version="1.1"
   id="svg7384"
   height="16">
  <metadata
     id="metadata90">
    <rdf:RDF>
      <cc:Work
         rdf:about="">
        <dc:format>image/svg+xml</dc:format>
        <dc:type
           rdf:resource="http://purl.org/dc/dcmitype/StillImage" />
        <dc:title>elementary Symbolic Icon Theme</dc:title>
      </cc:Work>
    </rdf:RDF>
  </metadata>
  <title
     id="title9167">elementary Symbolic Icon Theme</title>
  <defs
     id="defs7386" />
  <g
     transform="matrix(1,0,0.17497732,1,-406.30394,-68)"
     style="display:inline"
     label="status"
     id="layer9" />
  <g
     transform="matrix(1,0,0.17497732,1,-406.30394,-68)"
     style="display:inline"
     id="layer10" />
  <g
     transform="matrix(1,0,0.17497732,1,-406.30394,-68)"
     style="display:inline"
     id="layer13" />
  <g
     transform="matrix(1,0,0.17497732,1,-406.30394,-68)"
     id="layer14" />
  <g
     transform="matrix(1,0,0.17497732,1,-406.30394,-68)"
     style="display:inline"
     id="layer15" />
  <g
     transform="matrix(1,0,0.17497732,1,-406.30394,-68)"
     style="display:inline"
     id="g71291" />
  <path
     id="rect4346"
     d="M 7,3 7,4 7.9443836,3.995 6.1397783,13 5,13 5,14 9,14 9,13 8.1394676,13 9.9440716,3.995 11,4 11,3 Z"
     style="opacity:1;fill:#bebebe;fill-opacity:1;stroke:none;stroke-width:0.2;stroke-miterlimit:4;stroke-dasharray:none;stroke-opacity:1" />
</svg>
