<?xml version="1.0" encoding="UTF-8" standalone="no"?>
<svg
   xmlns:dc="http://purl.org/dc/elements/1.1/"
   xmlns:cc="http://creativecommons.org/ns#"
   xmlns:rdf="http://www.w3.org/1999/02/22-rdf-syntax-ns#"
   xmlns:svg="http://www.w3.org/2000/svg"
   xmlns="http://www.w3.org/2000/svg"
   id="svg6"
   version="1.1"
   width="16"
   height="16">
  <metadata
     id="metadata12">
    <rdf:RDF>
      <cc:Work
         rdf:about="">
        <dc:format>image/svg+xml</dc:format>
        <dc:type
           rdf:resource="http://purl.org/dc/dcmitype/StillImage" />
        <dc:title></dc:title>
      </cc:Work>
    </rdf:RDF>
  </metadata>
  <defs
     id="defs10" />
  <path
     d="M 7.7597656 2 C 7.344084 2 7.0097656 2.3480779 7.0097656 2.7792969 L 7.0097656 7.9960938 L 3.75 7.9960938 C 3.3343185 7.9960938 3 8.3422192 3 8.7734375 C 3 9.0058471 3.0972426 9.2130841 3.2519531 9.3554688 L 7.4960938 13.787109 C 7.6304738 13.918726 7.8103733 14 8.0097656 14 C 8.2091579 14 8.3890579 13.918719 8.5234375 13.787109 L 12.748047 9.3554688 C 12.902747 9.2130841 13 9.0058471 13 8.7734375 C 13 8.3422192 12.66568 7.9960938 12.25 7.9960938 L 9.0097656 7.9960938 L 9.0097656 2.7792969 C 9.0097656 2.3480779 8.6754477 2 8.2597656 2 L 7.7597656 2 z M 8.0097656 14 L 3.75 14 C 3.3345 14 3 14.3345 3 14.75 L 3 15.25 C 3 15.6655 3.3345 16 3.75 16 L 12.25 16 C 12.6655 16 13 15.6655 13 15.25 L 13 14.75 C 13 14.3345 12.6655 14 12.25 14 L 8.0097656 14 z "
     style="opacity:1;fill:#555761;stroke:none;stroke-width:4;stroke-linecap:round;stroke-linejoin:round;stop-color:#000000"
     id="path873-5" />
</svg>
