<?xml version="1.0" encoding="UTF-8" standalone="no"?>
<svg
   xmlns:dc="http://purl.org/dc/elements/1.1/"
   xmlns:cc="http://creativecommons.org/ns#"
   xmlns:rdf="http://www.w3.org/1999/02/22-rdf-syntax-ns#"
   xmlns:svg="http://www.w3.org/2000/svg"
   xmlns="http://www.w3.org/2000/svg"
   id="svg6"
   version="1.1"
   width="16"
   height="16">
  <metadata
     id="metadata12">
    <rdf:RDF>
      <cc:Work
         rdf:about="">
        <dc:format>image/svg+xml</dc:format>
        <dc:type
           rdf:resource="http://purl.org/dc/dcmitype/StillImage" />
        <dc:title></dc:title>
      </cc:Work>
    </rdf:RDF>
  </metadata>
  <defs
     id="defs10" />
  <path
     d="M 2,8.25 C 2,8.6656821 2.348078,9.0004099 2.779297,9 h 5.216797 v 2.75 c 0,0.41568 0.3461251,0.75 0.7773435,0.75 0.2324095,0 0.4396467,-0.09725 0.5820313,-0.251953 L 13.787109,8.0234375 C 13.918719,7.8890578 14,7.7091578 14,7.5097656 14,7.3103732 13.918721,7.1304738 13.787109,6.9960938 L 9.3554688,2.751953 C 9.2130842,2.597243 9.005847,2.5 8.7734375,2.5 8.3422191,2.5 7.996094,2.834318 7.996094,3.25 V 6 H 2.779297 C 2.348078,6 2,6.3343184 2,6.75 Z M 14,7.5097656 V 11.25 c 0,0.4155 0.3345,0.75 0.75,0.75 h 0.5 C 15.6655,12 16,11.6655 16,11.25 V 3.75 C 16,3.3345 15.6655,3 15.25,3 h -0.5 C 14.3345,3 14,3.3345 14,3.75 Z"
     style="opacity:1;fill:#555761;stroke:none;stroke-width:4;stroke-linecap:round;stroke-linejoin:round;stop-color:#000000"
     id="path873-5" />
</svg>
