<?xml version="1.0" encoding="UTF-8" standalone="no"?>
<svg
   xmlns:dc="http://purl.org/dc/elements/1.1/"
   xmlns:cc="http://creativecommons.org/ns#"
   xmlns:rdf="http://www.w3.org/1999/02/22-rdf-syntax-ns#"
   xmlns:svg="http://www.w3.org/2000/svg"
   xmlns="http://www.w3.org/2000/svg"
   height="16"
   width="16"
   version="1.1"
   id="svg6">
  <metadata
     id="metadata12">
    <rdf:RDF>
      <cc:Work
         rdf:about="">
        <dc:format>image/svg+xml</dc:format>
        <dc:type
           rdf:resource="http://purl.org/dc/dcmitype/StillImage" />
        <dc:title></dc:title>
      </cc:Work>
    </rdf:RDF>
  </metadata>
  <defs
     id="defs10" />
  <path
     d="m 8.7739334,3.0000549 c -0.4312184,0 -0.7783725,0.3346464 -0.7783725,0.7503279 v 3.259003 H 2.778372 C 2.347153,7.0093858 2,7.3440321 2,7.7597137 v 0.5002186 c 0,0.4156821 0.347153,0.750328 0.778372,0.750328 h 5.2171889 v 3.2394687 c 0,0.41568 0.3471541,0.750326 0.7783725,0.750326 0.2324095,0 0.4398747,-0.09736 0.5822593,-0.252062 L 13.787163,8.5242082 C 13.918773,8.3898285 14,8.209215 14,8.0098228 14,7.8104304 13.918775,7.6298179 13.787163,7.4954379 L 9.3561927,3.2521183 C 9.2138081,3.0974078 9.0063429,3.0000549 8.7739334,3.0000549 Z"
     style="opacity:1;fill:#555761;stroke:none;stroke-width:4;stroke-linecap:round;stroke-linejoin:round;stop-color:#000000"
     id="path873-5" />
</svg>
