<?xml version="1.0" encoding="UTF-8" standalone="no"?>
<svg
   xmlns:dc="http://purl.org/dc/elements/1.1/"
   xmlns:cc="http://creativecommons.org/ns#"
   xmlns:rdf="http://www.w3.org/1999/02/22-rdf-syntax-ns#"
   xmlns:svg="http://www.w3.org/2000/svg"
   xmlns="http://www.w3.org/2000/svg"
   id="svg6"
   version="1.1"
   width="16"
   height="16">
  <metadata
     id="metadata12">
    <rdf:RDF>
      <cc:Work
         rdf:about="">
        <dc:format>image/svg+xml</dc:format>
        <dc:type
           rdf:resource="http://purl.org/dc/dcmitype/StillImage" />
        <dc:title></dc:title>
      </cc:Work>
    </rdf:RDF>
  </metadata>
  <defs
     id="defs10" />
  <path
     id="path873-5"
     style="opacity:1;fill:#555761;stroke:none;stroke-width:4;stroke-linecap:round;stroke-linejoin:round;stop-color:#000000"
     d="M 3,7.2261216 C 3,7.6573399 3.3346464,8.004494 3.7503279,8.004494 h 3.259003 v 5.217189 c 0,0.431219 0.3346463,0.778372 0.7503279,0.778372 h 0.5002185 c 0.4156821,0 0.750328,-0.347153 0.750328,-0.778372 V 8.004494 H 12.249674 C 12.665354,8.004494 13,7.6573399 13,7.2261216 13,6.993712 12.902638,6.7862468 12.747938,6.6438622 L 8.5241532,2.2128922 C 8.3897736,2.0812817 8.2091601,2.0000549 8.0097678,2.0000549 c -0.1993923,0 -0.3800048,0.081225 -0.5143848,0.2128373 l -4.2433196,4.43097 C 3.0973529,6.7862468 3,6.993712 3,7.2261216 Z" />
</svg>
