<?xml version="1.0" encoding="UTF-8" standalone="no"?>
<svg xmlns:dc="http://purl.org/dc/elements/1.1/" xmlns:cc="http://creativecommons.org/ns#" xmlns:rdf="http://www.w3.org/1999/02/22-rdf-syntax-ns#" xmlns:svg="http://www.w3.org/2000/svg" xmlns="http://www.w3.org/2000/svg" xmlns:sodipodi="http://sodipodi.sourceforge.net/DTD/sodipodi-0.dtd" xmlns:inkscape="http://www.inkscape.org/namespaces/inkscape" height="16" width="16.002" version="1.1" id="svg8" sodipodi:docname="mail-mark-unread-symbolic.svg" inkscape:version="0.92.3 (2405546, 2018-03-11)">
  <metadata id="metadata14">
    <rdf:RDF>
      <cc:Work rdf:about="">
        <dc:format>image/svg+xml</dc:format>
        <dc:type rdf:resource="http://purl.org/dc/dcmitype/StillImage" />
        <dc:title />
      </cc:Work>
    </rdf:RDF>
  </metadata>
  <defs id="defs12" />
  <sodipodi:namedview pagecolor="#ffffff" bordercolor="#666666" borderopacity="1" objecttolerance="10" gridtolerance="10" guidetolerance="10" inkscape:pageopacity="0" inkscape:pageshadow="2" inkscape:window-width="1920" inkscape:window-height="962" id="namedview10" showgrid="true" inkscape:zoom="64" inkscape:cx="4.3760113" inkscape:cy="6.7507174" inkscape:window-x="0" inkscape:window-y="30" inkscape:window-maximized="1" inkscape:current-layer="svg8">
    <inkscape:grid type="xygrid" id="grid821" />
  </sodipodi:namedview>
  <path style="opacity:1;vector-effect:none;fill:#666666;fill-opacity:1;fill-rule:nonzero;stroke:none;stroke-width:1;stroke-linecap:round;stroke-linejoin:round;stroke-miterlimit:4;stroke-dasharray:none;stroke-opacity:1;paint-order:normal" d="M 7.5 1 L 6.25 2 L 3.5625 2 C 2.9969819 2 3 1.9978939 3 2.53125 L 3 5 L 1.8007812 6 L 0.5 6 C 0.22299998 6 0 6.1653603 0 6.4003906 L 0 14.576172 C 0 14.811202 0.22299998 15 0.5 15 L 14.5 15 C 14.777001 15 15 14.811202 15 14.576172 L 15 6.4003906 C 15 6.1653603 14.777001 6 14.5 6 L 13.199219 6 L 12 5 L 12 7 L 11.996094 2.5566406 C 11.995699 2.006332 11.973668 2 11.433594 2 L 8.75 2 L 7.5 1 z M 4 3 L 11 3 L 11 7 L 11 7.5 L 7.5 9.5 L 4 7.5 L 4 7 L 4 3 z M 1 7 L 4.7148438 9.2851562 L 2 12 C 2 12.5 2.390625 13 3 13 L 5.953125 10.046875 L 7.5 11 L 9.046875 10.046875 L 12 13 C 12.609375 13 13 12.5 13 12 L 10.285156 9.2851562 L 14 7 C 14 7.3 13.999997 7.2133289 14 7.3007812 L 14 13.728516 C 14.000009 13.963546 13.777 14 13.5 14 L 1.5 14 C 1.223 14 1 13.963542 1 13.728516 L 1 7.3007812 L 1 7 z " id="rect838" />
  <rect style="opacity:1;vector-effect:none;fill:#666666;fill-opacity:1;fill-rule:nonzero;stroke:none;stroke-width:1;stroke-linecap:butt;stroke-linejoin:miter;stroke-miterlimit:4;stroke-dasharray:none;stroke-opacity:1;paint-order:normal" id="rect886" width="5" height="0.99999994" x="5" y="4" rx="0" ry="0" />
  <rect style="opacity:1;vector-effect:none;fill:#666666;fill-opacity:1;fill-rule:nonzero;stroke:none;stroke-width:1;stroke-linecap:butt;stroke-linejoin:miter;stroke-miterlimit:4;stroke-dasharray:none;stroke-opacity:1;paint-order:normal" id="rect886-7" width="5" height="0.99999994" x="5" y="6" rx="0" ry="0" />
</svg>
