<?xml version="1.0" encoding="UTF-8" standalone="no"?>
<svg xmlns:dc="http://purl.org/dc/elements/1.1/" xmlns:cc="http://creativecommons.org/ns#" xmlns:rdf="http://www.w3.org/1999/02/22-rdf-syntax-ns#" xmlns:svg="http://www.w3.org/2000/svg" xmlns="http://www.w3.org/2000/svg" xmlns:sodipodi="http://sodipodi.sourceforge.net/DTD/sodipodi-0.dtd" xmlns:inkscape="http://www.inkscape.org/namespaces/inkscape" height="16.045" width="16" version="1.1" id="svg8" sodipodi:docname="mail-mark-read-symbolic.svg" inkscape:version="0.92.3 (2405546, 2018-03-11)">
  <metadata id="metadata14">
    <rdf:RDF>
      <cc:Work rdf:about="">
        <dc:format>image/svg+xml</dc:format>
        <dc:type rdf:resource="http://purl.org/dc/dcmitype/StillImage" />
      </cc:Work>
    </rdf:RDF>
  </metadata>
  <defs id="defs12" />
  <sodipodi:namedview pagecolor="#ffffff" bordercolor="#666666" borderopacity="1" objecttolerance="10" gridtolerance="10" guidetolerance="10" inkscape:pageopacity="0" inkscape:pageshadow="2" inkscape:window-width="1920" inkscape:window-height="962" id="namedview10" showgrid="true" inkscape:zoom="14.708632" inkscape:cx="-3.4558581" inkscape:cy="7.4786017" inkscape:window-x="0" inkscape:window-y="30" inkscape:window-maximized="1" inkscape:current-layer="svg8">
    <inkscape:grid type="xygrid" id="grid821" />
  </sodipodi:namedview>
  <path inkscape:connector-curvature="0" id="path2" style="color:#000000;overflow:visible;isolation:auto;mix-blend-mode:normal;fill:#666666;marker:none" overflow="visible" d="m 2.498,3.052 c -0.83,0 -1.5,0.669 -1.5,1.5 v 7 c 0,0.831 0.67,1.5 1.5,1.5 h 6.5 v -1 h -6.5 a 0.499,0.499 0 0 1 -0.5,-0.5 V 4.566 L 7.69,8.948 c 0.015,0.013 0.034,0.016 0.05,0.026 0.018,0.01 0.036,0.019 0.055,0.027 0.038,0.017 0.075,0.03 0.115,0.037 0.03,0.006 0.058,0.006 0.088,0.006 0.03,0 0.059,0 0.088,-0.006 A 0.489,0.489 0 0 0 8.201,9.001 C 8.221,8.992 8.238,8.985 8.256,8.974 8.273,8.964 8.291,8.961 8.306,8.948 l 5.692,-4.384 v 4.488 h 1 v -4.5 c 0,-0.831 -0.669,-1.5 -1.5,-1.5 z m 0.475,1 H 13.022 L 7.998,7.923 Z" />
  <circle style="opacity:1;vector-effect:none;fill:#c6262e;fill-opacity:1;fill-rule:nonzero;stroke:none;stroke-width:1;stroke-linecap:round;stroke-linejoin:round;stroke-miterlimit:4;stroke-dasharray:none;stroke-opacity:1;paint-order:normal" id="path825" cx="13" cy="13.045" r="3" />
</svg>
