<?xml version="1.0" encoding="UTF-8" standalone="no"?>
<svg
   xmlns:dc="http://purl.org/dc/elements/1.1/"
   xmlns:cc="http://creativecommons.org/ns#"
   xmlns:rdf="http://www.w3.org/1999/02/22-rdf-syntax-ns#"
   xmlns:svg="http://www.w3.org/2000/svg"
   xmlns="http://www.w3.org/2000/svg"
   height="16"
   width="16"
   version="1.1"
   id="svg6">
  <metadata
     id="metadata12">
    <rdf:RDF>
      <cc:Work
         rdf:about="">
        <dc:format>image/svg+xml</dc:format>
        <dc:type
           rdf:resource="http://purl.org/dc/dcmitype/StillImage" />
        <dc:title></dc:title>
      </cc:Work>
    </rdf:RDF>
  </metadata>
  <defs
     id="defs10" />
  <path
     d="M 0.66666673,4 C 0.2973333,4 0,4.2973332 0,4.6666666 v 6.6666654 c 0,0.369333 0.2973333,0.666666 0.66666673,0.666666 H 1.3333334 c 0.3693333,0 0.6666667,-0.297333 0.6666667,-0.666666 V 8.7747383 L 7.0273442,11.916665 C 7.1201822,11.965708 7.2210335,12 7.3333336,12 c 0.36819,0 0.6666666,-0.298476 0.6666666,-0.666666 V 8.7526029 L 13.027344,11.916665 C 13.120184,11.965708 13.221034,12 13.333334,12 13.701523,12 14,11.701524 14,11.333334 V 4.6666666 C 14,4.2984768 13.701523,4 13.333334,4 c -0.1123,0 -0.213152,0.034291 -0.30599,0.083333 L 8.0000002,7.2473953 V 4.6666666 C 8.0000002,4.2984768 7.7015236,4 7.3333336,4 7.2210335,4 7.1201823,4.034291 7.0273442,4.0833329 L 2.0000001,7.2252599 V 4.6666666 C 2.0000001,4.2973332 1.7026667,4 1.3333334,4 Z"
     style="font-variation-settings:normal;opacity:1;vector-effect:none;fill:#555761;fill-opacity:1;stroke:none;stroke-width:2.66667;stroke-linecap:round;stroke-linejoin:round;stroke-miterlimit:4;stroke-dasharray:none;stroke-dashoffset:0;stroke-opacity:1;stop-color:#000000;stop-opacity:1"
     id="path980-3" />
</svg>
