<?xml version="1.0" encoding="UTF-8" standalone="no"?>
<!-- Created with Inkscape (http://www.inkscape.org/) -->
<svg id="svg7384" xmlns:rdf="http://www.w3.org/1999/02/22-rdf-syntax-ns#" xmlns="http://www.w3.org/2000/svg" height="16" width="16" version="1.1" xmlns:cc="http://creativecommons.org/ns#" xmlns:dc="http://purl.org/dc/elements/1.1/">
 <metadata id="metadata90">
  <rdf:RDF>
   <cc:Work rdf:about="">
    <dc:format>image/svg+xml</dc:format>
    <dc:type rdf:resource="http://purl.org/dc/dcmitype/StillImage"/>
    <dc:title>Gnome Symbolic Icon Theme</dc:title>
   </cc:Work>
  </rdf:RDF>
 </metadata>
 <title id="title9167">Gnome Symbolic Icon Theme</title>
 <g id="layer12" transform="translate(-261 -667)">
  <path id="path15417" style="block-progression:tb;text-indent:0;color:#000000;text-transform:none;fill:#bebebe" d="m268 670v10h2v-10h-2z"/>
  <path id="path3613-6-6-5-4" style="block-progression:tb;text-indent:0;color:#000000;text-transform:none;fill:#bebebe" d="m265 677v1c0 0.26528 0.093 0.53057 0.28125 0.71875l3.7188 3.7188 3.7188-3.7188c0.18814-0.18817 0.28122-0.45344 0.28125-0.71875v-1h-1c-0.2653 0-0.53058 0.0931-0.71875 0.28125l-2.2812 2.2812-2.2812-2.2812c-0.19-0.19-0.45-0.28-0.72-0.28z"/>
  <path id="path3613-6-6-5-4-5" style="block-progression:tb;text-indent:0;color:#000000;text-transform:none;fill:#bebebe" d="m265 673v-1c0-0.26528 0.093-0.53057 0.28125-0.71875l3.7188-3.7188 3.7188 3.7188c0.18814 0.18817 0.28122 0.45344 0.28125 0.71875v1h-1c-0.2653 0-0.53058-0.0931-0.71875-0.28125l-2.2812-2.2812-2.2812 2.2812c-0.18818 0.18811-0.45344 0.28129-0.71875 0.28125z"/>
 </g>
</svg>
