<?xml version="1.0" encoding="UTF-8" standalone="no"?>
<svg
   height="16"
   width="16"
   version="1.1"
   id="svg6"
   xml:space="preserve"
   xmlns="http://www.w3.org/2000/svg"
   xmlns:svg="http://www.w3.org/2000/svg"><defs
     id="defs10" /><path
     id="rect520-6-7-9"
     style="fill:#555761;stroke-width:1;stop-color:#000000"
     d="M 12.5,2 C 13.330999,2 14,2.6690016 14,3.5 v 9 C 14,13.330998 13.330999,14 12.5,14 H 10 9 2.5 C 1.669001,14 1,13.330998 1,12.5 v -9 C 1,2.6690016 1.669001,2 2.5,2 H 9 10 Z m 0,1 H 10 v 10 h 2.5 c 0.277,0 0.5,-0.223 0.5,-0.5 v -9 C 13,3.2230006 12.777,3 12.5,3 Z M 9,3 H 2.5 C 2.223,3 2,3.2230006 2,3.5 v 9 C 2,12.777 2.223,13 2.5,13 H 9 Z" /><path
     style="opacity:0.25;fill:#555761;stroke-width:1;stop-color:#000000"
     d="M 12.5,3 H 10 v 10 h 2.5 c 0.277,0 0.5,-0.223 0.5,-0.5 v -9 C 13,3.2230006 12.777,3 12.5,3 Z"
     id="path416" /></svg>
