<?xml version="1.0" encoding="UTF-8" standalone="no"?>
<svg
   height="16"
   width="16"
   version="1.1"
   id="svg6"
   xml:space="preserve"
   xmlns="http://www.w3.org/2000/svg"
   xmlns:svg="http://www.w3.org/2000/svg"><defs
     id="defs10" /><path
     id="rect520-6-7-9-0-2-8-5"
     style="fill:#555761;stroke-width:0.999997;stop-color:#000000"
     d="M 2.5 2 C 1.6690008 2 1 2.669004 1 3.5 L 1 12.5 C 1 13.330995 1.6690008 14 2.5 14 L 6.75 14 C 6.8884999 14 7 13.8885 7 13.75 L 7 13.25 C 7 13.1115 6.8884999 13 6.75 13 L 2.5 13 C 2.2230003 13 2 12.777 2 12.5 L 2 3.5 C 2 3.2230015 2.2230003 3 2.5 3 L 6.75 3 C 6.8884999 3 7 2.8884996 7 2.75 L 7 2.25 C 7 2.1115004 6.8884999 2 6.75 2 L 2.5 2 z M 10.484375 5 C 10.329445 5 10.190633 5.0575649 10.095703 5.1503906 L 7.1425781 7.6972656 C 7.0548882 7.7778934 7 7.8862237 7 8.0058594 C 7 8.1254945 7.0548382 8.2338253 7.1425781 8.3144531 L 10.095703 10.849609 C 10.190623 10.942426 10.329445 11 10.484375 11 C 10.771855 11 11.004346 10.798236 11.003906 10.548828 L 11 9 L 14.486328 9.0175781 C 14.773808 9.0178241 15 8.6986278 15 8.4492188 L 15 7.5507812 C 15 7.3013724 14.734725 7.0100985 14.447266 7.0078125 L 11.035156 6.9804688 L 11.003906 5.4511719 C 11.003906 5.2017629 10.771855 5 10.484375 5 z " /></svg>
