<?xml version="1.0" encoding="UTF-8" standalone="no"?>
<svg
   xmlns:dc="http://purl.org/dc/elements/1.1/"
   xmlns:cc="http://creativecommons.org/ns#"
   xmlns:rdf="http://www.w3.org/1999/02/22-rdf-syntax-ns#"
   xmlns:svg="http://www.w3.org/2000/svg"
   xmlns="http://www.w3.org/2000/svg"
   xmlns:sodipodi="http://sodipodi.sourceforge.net/DTD/sodipodi-0.dtd"
   xmlns:inkscape="http://www.inkscape.org/namespaces/inkscape"
   id="svg8"
   version="1.1"
   width="16"
   height="16"
   sodipodi:docname="pane-hide-symbolic.svg"
   inkscape:version="1.0.1 (3bc2e813f5, 2020-09-07)">
  <sodipodi:namedview
     pagecolor="#ffffff"
     bordercolor="#666666"
     borderopacity="1"
     objecttolerance="10"
     gridtolerance="10"
     guidetolerance="10"
     inkscape:pageopacity="0"
     inkscape:pageshadow="2"
     inkscape:window-width="2560"
     inkscape:window-height="958"
     id="namedview7"
     showgrid="true"
     showguides="false"
     inkscape:snap-global="true"
     inkscape:zoom="42"
     inkscape:cx="8"
     inkscape:cy="9.5820131"
     inkscape:window-x="0"
     inkscape:window-y="30"
     inkscape:window-maximized="1"
     inkscape:current-layer="svg8">
    <inkscape:grid
       type="xygrid"
       id="grid978" />
  </sodipodi:namedview>
  <metadata
     id="metadata14">
    <rdf:RDF>
      <cc:Work
         rdf:about="">
        <dc:format>image/svg+xml</dc:format>
        <dc:type
           rdf:resource="http://purl.org/dc/dcmitype/StillImage" />
        <dc:title></dc:title>
      </cc:Work>
    </rdf:RDF>
  </metadata>
  <defs
     id="defs12" />
  <path
     d="M 2,1 C 1.630667,1 1,1.446 1,2 v 12 c 0,0.554 0.630667,1 1,1 H 7 V 14 H 2 C 2,11 2.0096,5.6600787 2,2 H 7 V 1 Z"
     overflow="visible"
     style="color:#bebebe;overflow:visible;fill:#555761;fill-opacity:1;stroke-width:1;marker:none"
     id="path4" />
  <path
     id="path873-5"
     style="opacity:1;fill:#555761;stroke:none;stroke-width:4;stroke-linecap:round;stroke-linejoin:round;stop-color:#000000"
     d="M 11.515956,5 C 11.228476,5 10.99704,5.2007875 10.99704,5.4501967 l -0.03209,1.5298035 -3.411911,0.02713 C 7.265569,7.0094162 7,7.3007873 7,7.5501964 V 8.4498027 C 7,8.699212 7.226177,9.0185999 7.513657,9.0183539 L 11,9 10.997,10.549804 C 10.996564,10.799212 11.228476,11 11.515956,11 c 0.154939,0 0.293249,-0.05842 0.388172,-0.151237 L 14.858109,8.3144913 C 14.945849,8.2338634 15,8.1254956 15,8.0058604 15,7.8862246 14.945853,7.7778574 14.858109,7.6972295 L 11.904128,5.1512378 C 11.809202,5.058412 11.670895,5 11.515956,5 Z"
     sodipodi:nodetypes="sscsssccssccsccs" />
</svg>
