<?xml version="1.0" encoding="UTF-8" standalone="no"?>
<svg
   height="16"
   width="16"
   version="1.1"
   id="svg6"
   xml:space="preserve"
   xmlns="http://www.w3.org/2000/svg"
   xmlns:svg="http://www.w3.org/2000/svg"><defs
     id="defs10" /><rect
     style="opacity:0.5;fill:#555761;stroke-width:1;stop-color:#000000"
     id="rect520-6-7-9-0-2-8-9"
     width="1"
     height="6"
     x="2"
     y="-11"
     ry="0.24999997"
     rx="0.25"
     transform="rotate(90)" /><rect
     style="opacity:0.5;fill:#555761;stroke-width:1;stop-color:#000000"
     id="rect520-6-7-9-0-2-8-9-7"
     width="1"
     height="6"
     x="5"
     y="-11"
     ry="0.24999997"
     rx="0.25"
     transform="rotate(90)" /><rect
     style="opacity:0.5;fill:#555761;stroke-width:1;stop-color:#000000"
     id="rect520-6-7-9-0-2-8-9-8"
     width="1"
     height="6"
     x="11"
     y="-11"
     ry="0.24999997"
     rx="0.25"
     transform="rotate(90)" /><rect
     style="opacity:0.5;fill:#555761;stroke-width:1;stop-color:#000000"
     id="rect520-6-7-9-0-2-8-9-7-4"
     width="1"
     height="6"
     x="14"
     y="-11"
     ry="0.24999997"
     rx="0.25"
     transform="rotate(90)" /><rect
     style="fill:#555761;stroke-width:0.999997;stop-color:#000000"
     id="rect520-6-7-9-0-2-7-5-6-9-4"
     width="1"
     height="12"
     x="8"
     y="-14"
     ry="0.25"
     rx="0.25"
     transform="rotate(90)" /><rect
     style="fill:#555761;stroke-width:1;stop-color:#000000"
     id="rect520-62"
     width="1"
     height="12"
     x="-79"
     y="2" /><rect
     style="fill:#555761;stroke-width:1;stop-color:#000000"
     id="rect520-7-9"
     width="1"
     height="12"
     x="-75"
     y="2" /><rect
     style="fill:#555761;stroke-width:1;stop-color:#000000"
     id="rect520-6-7-9"
     width="1"
     height="12"
     x="-97"
     y="2" /><rect
     style="fill:#555761;stroke-width:1;stop-color:#000000"
     id="rect520-6-7-9-0"
     width="1"
     height="14"
     x="-37"
     y="1"
     ry="0.25"
     rx="0.25" /><rect
     style="fill:#555761;stroke-width:0.999998;stop-color:#000000"
     id="rect520-6-7-9-0-2"
     width="1"
     height="5"
     x="3"
     y="39"
     ry="0.25"
     rx="0.25"
     transform="rotate(90)" /><rect
     style="fill:#555761;stroke-width:0.999998;stop-color:#000000"
     id="rect520-6-7-9-0-2-7"
     width="1"
     height="5"
     x="6"
     y="39"
     ry="0.25"
     rx="0.25"
     transform="rotate(90)" /><rect
     style="fill:#555761;stroke-width:0.999998;stop-color:#000000"
     id="rect520-6-7-9-0-2-7-9"
     width="1"
     height="5"
     x="12"
     y="39"
     ry="0.25"
     rx="0.25"
     transform="rotate(90)" /><rect
     style="fill:#555761;stroke-width:0.999998;stop-color:#000000"
     id="rect520-6-7-9-0-2-7-5"
     width="1"
     height="5"
     x="9"
     y="39"
     ry="0.25"
     rx="0.25"
     transform="rotate(90)" /><rect
     style="fill:#555761;stroke-width:0.999997;stop-color:#000000"
     id="rect520-6-7-9-0-2-8"
     width="1"
     height="12"
     x="3"
     y="8"
     ry="0.25"
     rx="0.25"
     transform="rotate(90)" /><rect
     style="fill:#555761;stroke-width:0.999997;stop-color:#000000"
     id="rect520-6-7-9-0-2-7-97"
     width="1"
     height="12"
     x="6"
     y="8"
     ry="0.25"
     rx="0.25"
     transform="rotate(90)" /><rect
     style="fill:#555761;stroke-width:0.999997;stop-color:#000000"
     id="rect520-6-7-9-0-2-7-9-3"
     width="1"
     height="12"
     x="12"
     y="8"
     ry="0.25"
     rx="0.25"
     transform="rotate(90)" /><path
     id="rect520-6-7-9-0-2-8-5"
     style="fill:#555761;stroke-width:0.999997;stop-color:#000000"
     d="M 26.5,2 C 25.669,2 25,2.6690032 25,3.5 v 9 c 0,0.830996 0.669,1.5 1.5,1.5 h 4.25 C 30.8885,14 31,13.8885 31,13.75 v -0.5 C 31,13.1115 30.8885,13 30.75,13 H 26.5 C 26.223,13 26,12.777 26,12.5 v -9 C 26,3.2230012 26.223,3 26.5,3 h 4.25 C 30.8885,3 31,2.8884997 31,2.75 V 2.25 C 31,2.1115003 30.8885,2 30.75,2 Z" /><rect
     style="fill:#555761;stroke-width:0.999997;stop-color:#000000"
     id="rect520-6-7-9-0-2-7-5-6"
     width="1"
     height="12"
     x="9"
     y="8"
     ry="0.25"
     rx="0.25"
     transform="rotate(90)" /><path
     id="path873-5"
     style="fill:#555761;stroke:none;stroke-width:4;stroke-linecap:round;stroke-linejoin:round;stop-color:#000000"
     d="m 34.48404,5 c 0.28748,0 0.51892,0.2007875 0.51892,0.4501967 l 0.0321,1.5298035 3.41191,0.02713 C 38.73443,7.0094162 39,7.3007873 39,7.5501964 V 8.4498027 C 39,8.699212 38.77382,9.0185999 38.48634,9.0183539 L 35,9 35.003,10.549804 C 35.00344,10.799212 34.77152,11 34.48404,11 34.32911,11 34.19079,10.94158 34.09587,10.848763 L 31.14189,8.3144913 C 31.05415,8.2338634 31,8.1254956 31,8.0058604 31,7.8862246 31.0542,7.7778574 31.14189,7.6972295 L 34.09587,5.1512378 C 34.1908,5.058412 34.32911,5 34.48404,5 Z" /><path
     id="rect4646"
     style="font-variation-settings:normal;opacity:1;vector-effect:none;fill:#555761;fill-opacity:1;stroke:none;stroke-width:1;stroke-linecap:round;stroke-linejoin:miter;stroke-miterlimit:4;stroke-dasharray:none;stroke-dashoffset:0;stroke-opacity:1;-inkscape-stroke:none;stop-color:#000000;stop-opacity:1"
     d="M -60.5,2 C -61.331,2 -62,2.6690008 -62,3.5 v 2 c 0,0.8309992 0.669,1.5 1.5,1.5 h 2 c 0.831,0 1.5,-0.6690008 1.5,-1.5 v -2 C -57,2.6690008 -57.669,2 -58.5,2 Z m 0,1 h 2 c 0.277,0 0.5,0.2230003 0.5,0.5 v 2 c 0,0.2769997 -0.223,0.5 -0.5,0.5 h -2 C -60.777,6 -61,5.7769997 -61,5.5 v -2 C -61,3.2230003 -60.777,3 -60.5,3 Z" /><path
     id="rect4646-3"
     style="font-variation-settings:normal;vector-effect:none;fill:#555761;fill-opacity:1;stroke:none;stroke-width:1;stroke-linecap:round;stroke-linejoin:miter;stroke-miterlimit:4;stroke-dasharray:none;stroke-dashoffset:0;stroke-opacity:1;-inkscape-stroke:none;stop-color:#000000"
     d="M -81.5,2 C -82.331,2 -83,2.6690008 -83,3.5 v 9 c 0,0.830999 0.669,1.5 1.5,1.5 h 10 c 0.831,0 1.5,-0.669001 1.5,-1.5 v -9 C -70,2.6690008 -70.669,2 -71.5,2 Z m 0,1 h 10 c 0.277,0 0.5,0.2230003 0.5,0.5 v 9 c 0,0.277 -0.223,0.5 -0.5,0.5 h -10 c -0.277,0 -0.5,-0.223 -0.5,-0.5 v -9 C -82,3.2230003 -81.777,3 -81.5,3 Z" /><path
     id="rect4646-3-7"
     style="font-variation-settings:normal;vector-effect:none;fill:#555761;fill-opacity:1;stroke:none;stroke-width:1;stroke-linecap:round;stroke-linejoin:miter;stroke-miterlimit:4;stroke-dasharray:none;stroke-dashoffset:0;stroke-opacity:1;-inkscape-stroke:none;stop-color:#000000"
     d="m -101.5,2 c -0.831,0 -1.5,0.6690008 -1.5,1.5 v 9 c 0,0.830999 0.669,1.5 1.5,1.5 h 10 c 0.831,0 1.5,-0.669001 1.5,-1.5 v -9 C -90,2.6690008 -90.669,2 -91.5,2 Z m 0,1 h 10 c 0.277,0 0.5,0.2230003 0.5,0.5 v 9 c 0,0.277 -0.223,0.5 -0.5,0.5 h -10 c -0.277,0 -0.5,-0.223 -0.5,-0.5 v -9 c 0,-0.2769997 0.223,-0.5 0.5,-0.5 z" /><path
     id="rect4646-5"
     style="font-variation-settings:normal;vector-effect:none;fill:#555761;fill-opacity:1;stroke:none;stroke-width:1;stroke-linecap:round;stroke-linejoin:miter;stroke-miterlimit:4;stroke-dasharray:none;stroke-dashoffset:0;stroke-opacity:1;-inkscape-stroke:none;stop-color:#000000"
     d="m -60.5,9 c -0.831,0 -1.5,0.669001 -1.5,1.5 v 2 c 0,0.830999 0.669,1.5 1.5,1.5 h 2 c 0.831,0 1.5,-0.669001 1.5,-1.5 v -2 C -57,9.669001 -57.669,9 -58.5,9 Z m 0,1 h 2 c 0.277,0 0.5,0.223 0.5,0.5 v 2 c 0,0.277 -0.223,0.5 -0.5,0.5 h -2 c -0.277,0 -0.5,-0.223 -0.5,-0.5 v -2 c 0,-0.277 0.223,-0.5 0.5,-0.5 z" /><path
     id="rect4646-6"
     style="font-variation-settings:normal;vector-effect:none;fill:#555761;fill-opacity:1;stroke:none;stroke-width:1;stroke-linecap:round;stroke-linejoin:miter;stroke-miterlimit:4;stroke-dasharray:none;stroke-dashoffset:0;stroke-opacity:1;-inkscape-stroke:none;stop-color:#000000"
     d="M -53.5,2 C -54.331,2 -55,2.6690008 -55,3.5 v 2 c 0,0.8309992 0.669,1.5 1.5,1.5 h 2 c 0.831,0 1.5,-0.6690008 1.5,-1.5 v -2 C -50,2.6690008 -50.669,2 -51.5,2 Z m 0,1 h 2 c 0.277,0 0.5,0.2230003 0.5,0.5 v 2 c 0,0.2769997 -0.223,0.5 -0.5,0.5 h -2 C -53.777,6 -54,5.7769997 -54,5.5 v -2 C -54,3.2230003 -53.777,3 -53.5,3 Z" /><path
     id="rect4646-5-5"
     style="font-variation-settings:normal;vector-effect:none;fill:#555761;fill-opacity:1;stroke:none;stroke-width:1;stroke-linecap:round;stroke-linejoin:miter;stroke-miterlimit:4;stroke-dasharray:none;stroke-dashoffset:0;stroke-opacity:1;-inkscape-stroke:none;stop-color:#000000"
     d="m -53.5,9 c -0.831,0 -1.5,0.669001 -1.5,1.5 v 2 c 0,0.830999 0.669,1.5 1.5,1.5 h 2 c 0.831,0 1.5,-0.669001 1.5,-1.5 v -2 C -50,9.669001 -50.669,9 -51.5,9 Z m 0,1 h 2 c 0.277,0 0.5,0.223 0.5,0.5 v 2 c 0,0.277 -0.223,0.5 -0.5,0.5 h -2 c -0.277,0 -0.5,-0.223 -0.5,-0.5 v -2 c 0,-0.277 0.223,-0.5 0.5,-0.5 z" /><path
     id="rect4646-6-6"
     style="font-variation-settings:normal;vector-effect:none;fill:#555761;fill-opacity:1;stroke:none;stroke-width:1;stroke-linecap:round;stroke-linejoin:miter;stroke-miterlimit:4;stroke-dasharray:none;stroke-dashoffset:0;stroke-opacity:1;-inkscape-stroke:none;stop-color:#000000"
     d="M -32.5,2 C -33.330999,2 -34,2.6690008 -34,3.5 v 2 c 0,0.8309992 0.669001,1.5 1.5,1.5 h 2 c 0.830999,0 1.5,-0.6690008 1.5,-1.5 v -2 C -29,2.6690008 -29.669001,2 -30.5,2 Z m 0,1 h 2 c 0.277,0 0.5,0.2230003 0.5,0.5 v 2 c 0,0.2769997 -0.223,0.5 -0.5,0.5 h -2 C -32.777,6 -33,5.7769997 -33,5.5 v -2 C -33,3.2230003 -32.777,3 -32.5,3 Z" /><path
     id="rect4646-5-5-9"
     style="font-variation-settings:normal;vector-effect:none;fill:#555761;fill-opacity:1;stroke:none;stroke-width:1;stroke-linecap:round;stroke-linejoin:miter;stroke-miterlimit:4;stroke-dasharray:none;stroke-dashoffset:0;stroke-opacity:1;-inkscape-stroke:none;stop-color:#000000"
     d="m -32.5,9 c -0.830999,0 -1.5,0.669001 -1.5,1.5 v 2 c 0,0.830999 0.669001,1.5 1.5,1.5 h 2 c 0.830999,0 1.5,-0.669001 1.5,-1.5 v -2 C -29,9.669001 -29.669001,9 -30.5,9 Z m 0,1 h 2 c 0.277,0 0.5,0.223 0.5,0.5 v 2 c 0,0.277 -0.223,0.5 -0.5,0.5 h -2 c -0.277,0 -0.5,-0.223 -0.5,-0.5 v -2 c 0,-0.277 0.223,-0.5 0.5,-0.5 z" /></svg>
