<?xml version="1.0" encoding="UTF-8" standalone="no"?>
<svg
   height="16"
   width="16"
   version="1.1"
   id="svg6"
   xml:space="preserve"
   xmlns="http://www.w3.org/2000/svg"
   xmlns:svg="http://www.w3.org/2000/svg"><defs
     id="defs10" /><path
     id="rect520-62"
     style="fill:#555761;stroke-width:1;stop-color:#000000"
     d="M 2.5 2 C 1.6690008 2 1 2.6690016 1 3.5 L 1 12.5 C 1 13.330998 1.6690008 14 2.5 14 L 5 14 L 6 14 L 9 14 L 10 14 L 12.5 14 C 13.330999 14 14 13.330998 14 12.5 L 14 3.5 C 14 2.6690016 13.330999 2 12.5 2 L 10 2 L 9 2 L 6 2 L 5 2 L 2.5 2 z M 2.5 3 L 5 3 L 5 13 L 2.5 13 C 2.2230003 13 2 12.777 2 12.5 L 2 3.5 C 2 3.2230006 2.2230003 3 2.5 3 z M 6 3 L 9 3 L 9 13 L 6 13 L 6 3 z M 10 3 L 12.5 3 C 12.777 3 13 3.2230006 13 3.5 L 13 12.5 C 13 12.777 12.777 13 12.5 13 L 10 13 L 10 3 z " /></svg>
