<?xml version="1.0" encoding="UTF-8" standalone="no"?>
<svg
   height="16"
   width="16"
   version="1.1"
   id="svg1"
   xmlns="http://www.w3.org/2000/svg"
   xmlns:svg="http://www.w3.org/2000/svg">
  <defs
     id="defs1" />
  <path
     id="path1-0"
     style="fill:#555761;fill-opacity:1;stroke-width:4;stroke-linecap:round;stroke-linejoin:round;-inkscape-stroke:none"
     d="M 9.5625 2 C 8.9219462 1.9980564 8.6014518 2.7739255 9.0566406 3.2246094 L 10.216797 4.3730469 L 8.2246094 6.3652344 C 7.9308343 6.6590638 7.9308077 7.1319795 8.2246094 7.4257812 L 8.578125 7.7792969 C 8.8719266 8.0730986 9.3448695 8.0730994 9.6386719 7.7792969 L 11.638672 5.7792969 L 12.755859 6.8847656 C 13.216533 7.3406302 13.998589 7.0152847 14 6.3671875 L 14 2.7519531 C 13.999671 2.33756 13.664392 2.0014067 13.25 2 L 9.5625 2 z M 6.8964844 8 C 6.7047983 7.9999999 6.5121352 8.0738019 6.3652344 8.2207031 L 4.3652344 10.220703 L 3.2480469 9.1152344 C 2.7873733 8.6593698 2.0053172 8.9847153 2.0039062 9.6328125 L 2.0039062 13.248047 C 2.0042352 13.66244 2.3395147 13.998594 2.7539062 14 L 6.4414062 14 C 7.0819596 14.0019 7.4024542 13.226074 6.9472656 12.775391 L 5.7871094 11.626953 L 7.7792969 9.6347656 C 8.0730726 9.3409362 8.0730986 8.8680205 7.7792969 8.5742188 L 7.4257812 8.2207031 C 7.2788804 8.0738023 7.0881704 8.0000001 6.8964844 8 z " />
</svg>
