<svg xmlns="http://www.w3.org/2000/svg" xmlns:xlink="http://www.w3.org/1999/xlink" viewBox="0 0 24 24"><defs><linearGradient id="h"><stop offset="0" stop-color="#fff"/><stop offset=".01" stop-color="#fff" stop-opacity=".235"/><stop offset=".994" stop-color="#fff" stop-opacity=".157"/><stop offset="1" stop-color="#fff" stop-opacity=".392"/></linearGradient><linearGradient x1="24" y1="6.549" x2="24" y2="41.229" id="q" xlink:href="#a" gradientUnits="userSpaceOnUse" gradientTransform="matrix(.45946 0 0 .5135 .974 -1.326)"/><linearGradient id="a"><stop offset="0" stop-color="#fff"/><stop offset=".017" stop-color="#fff" stop-opacity=".235"/><stop offset=".98" stop-color="#fff" stop-opacity=".157"/><stop offset="1" stop-color="#fff" stop-opacity=".392"/></linearGradient><radialGradient cx="6.73" cy="9.957" r="12.672" fx="6.2" fy="9.957" id="p" xlink:href="#b" gradientUnits="userSpaceOnUse" gradientTransform="matrix(0 5.11407 -5.6805 0 68.966 -45.087)"/><radialGradient cx="4.993" cy="43.5" r="2.5" fx="4.993" fy="43.5" id="m" xlink:href="#c" gradientUnits="userSpaceOnUse" gradientTransform="matrix(2.00378 0 0 1.4 27.988 -17.4)"/><linearGradient id="c"><stop offset="0" stop-color="#181818"/><stop offset="1" stop-color="#181818" stop-opacity="0"/></linearGradient><radialGradient cx="4.993" cy="43.5" r="2.5" fx="4.993" fy="43.5" id="n" xlink:href="#d" gradientUnits="userSpaceOnUse" gradientTransform="matrix(2.00378 0 0 1.4 -20.012 -104.4)"/><linearGradient id="d"><stop offset="0" stop-color="#181818"/><stop offset="1" stop-color="#181818" stop-opacity="0"/></linearGradient><linearGradient x1="25.058" y1="47.028" x2="25.058" y2="39.999" id="o" xlink:href="#e" gradientUnits="userSpaceOnUse"/><linearGradient id="e"><stop offset="0" stop-color="#181818" stop-opacity="0"/><stop offset=".5" stop-color="#181818"/><stop offset="1" stop-color="#181818" stop-opacity="0"/></linearGradient><linearGradient xlink:href="#f" id="B" gradientUnits="userSpaceOnUse" gradientTransform="matrix(.16216 0 0 .1081 4.642 13.905)" x1="23.505" y1="28.625" x2="24" y2="37.871"/><linearGradient id="f"><stop offset="0" stop-color="#fff"/><stop offset=".011" stop-color="#fff" stop-opacity=".235"/><stop offset=".994" stop-color="#fff" stop-opacity=".157"/><stop offset="1" stop-color="#fff" stop-opacity=".392"/></linearGradient><linearGradient y2="39.935" x2="-6.392" y1="30.306" x1="-6.392" gradientTransform="matrix(.56842 0 0 .60902 12.738 -4.962)" gradientUnits="userSpaceOnUse" id="A" xlink:href="#g"/><linearGradient id="g"><stop offset="0" stop-color="#918e88"/><stop offset="1" stop-color="#605c58"/></linearGradient><linearGradient xlink:href="#f" id="z" gradientUnits="userSpaceOnUse" gradientTransform="matrix(.16216 0 0 .1081 4.642 7.905)" x1="23.753" y1="28.773" x2="24" y2="37.871"/><linearGradient y2="39.935" x2="-6.392" y1="30.306" x1="-6.392" gradientTransform="matrix(.56842 0 0 .60902 12.738 -10.962)" gradientUnits="userSpaceOnUse" id="y" xlink:href="#g"/><linearGradient xlink:href="#f" id="x" gradientUnits="userSpaceOnUse" gradientTransform="matrix(.16216 0 0 .1081 13.642 13.905)" x1="23.753" y1="28.625" x2="24" y2="37.94"/><linearGradient xlink:href="#h" id="w" gradientUnits="userSpaceOnUse" gradientTransform="matrix(.16216 0 0 .1081 13.642 7.905)" x1="23.753" y1="28.625" x2="24" y2="37.871"/><linearGradient xlink:href="#g" id="v" gradientUnits="userSpaceOnUse" gradientTransform="matrix(.56842 0 0 .60902 21.738 -10.962)" x1="-6.392" y1="30.306" x2="-6.392" y2="39.935"/><linearGradient xlink:href="#i" id="u" gradientUnits="userSpaceOnUse" gradientTransform="matrix(.59375 0 0 .54545 -.216 -2.227)" x1="15" y1="5" x2="15" y2="16"/><linearGradient id="i"><stop offset="0" stop-color="#5e5750"/><stop offset="1" stop-color="#756d65"/></linearGradient><linearGradient xlink:href="#j" id="t" gradientUnits="userSpaceOnUse" gradientTransform="matrix(.60597 0 0 .6219 -.348 -2.58)" x1="16" y1="4" x2="16" y2="15"/><linearGradient id="j"><stop offset="0" stop-color="#dad7bd"/><stop offset="1" stop-color="#e8e5d4"/></linearGradient><linearGradient xlink:href="#k" id="s" gradientUnits="userSpaceOnUse" gradientTransform="matrix(.2064 0 0 .15135 3.62 8.767)" x1="43.816" y1="-10.328" x2="43.816" y2="-57.312"/><linearGradient id="k"><stop offset="0" stop-color="#fff"/><stop offset=".107" stop-color="#fff" stop-opacity=".235"/><stop offset=".994" stop-color="#fff" stop-opacity=".157"/><stop offset="1" stop-color="#fff" stop-opacity=".392"/></linearGradient><radialGradient xlink:href="#l" id="r" gradientUnits="userSpaceOnUse" gradientTransform="matrix(0 1.46116 -2.3918 0 41.52 .475)" cx="6.73" cy="9.957" fx="6.2" fy="9.957" r="12.672"/><linearGradient id="l"><stop offset="0" stop-color="#ffcd7d"/><stop offset=".262" stop-color="#fc8f36"/><stop offset=".705" stop-color="#e23a0e"/><stop offset="1" stop-color="#ac441f"/></linearGradient><radialGradient gradientTransform="matrix(0 1.23165 -1.62575 0 18.487 -28.722)" gradientUnits="userSpaceOnUse" id="b" r="20.397" cy="3.99" cx="23.896"><stop offset="0" stop-color="#fff"/><stop offset=".262" stop-color="#ddd"/><stop offset=".661" stop-color="#abacae"/><stop offset="1" stop-color="#89898b"/></radialGradient></defs><g opacity=".4"><path fill="url(#m)" d="M38 40h5v7h-5z" transform="matrix(.57895 0 0 .42857 -1.895 2.857)"/><path transform="matrix(-.57895 0 0 -.42857 -1.895 2.857)" fill="url(#n)" d="M-10-47h5v7h-5z"/><path fill="url(#o)" d="M10 40h28v7H10z" transform="matrix(.57895 0 0 .42857 -1.895 2.857)"/></g><rect y=".5" x="2.5" ry="1.105" rx="1" height="21" width="19" color="#000" overflow="visible" fill="url(#p)"/><rect y=".5" x="2.5" ry="1.105" rx="1" height="21" width="19" color="#000" overflow="visible" opacity=".4" fill="none" stroke="#000" stroke-linecap="round" stroke-linejoin="round"/><path opacity=".3" fill="none" stroke="url(#q)" stroke-linecap="round" stroke-linejoin="round" d="M3.5 1.5h17v19h-17z"/><path d="M14.068 15.5H19c.296 0 .534.295.534.66v2.68c0 .365-.238.66-.534.66h-4.932c-.296 0-.534-.295-.534-.66v-2.68c0-.365.238-.66.534-.66z" color="#000" overflow="visible" fill="url(#r)"/><path d="M14.068 15.5H19c.296 0 .534.295.534.66v2.68c0 .365-.238.66-.534.66h-4.932c-.296 0-.534-.295-.534-.66v-2.68c0-.365.238-.66.534-.66z" color="#000" overflow="visible" opacity=".4" fill="none" stroke="#640000" stroke-linecap="round" stroke-linejoin="round"/><path d="M5.534 2.5h13c1.108 0 2 1.892 2 3v1c0 1.108-.892 2-2 2h-13c-1.108 0-2-.892-2-2v-1c0-1.108.892-3 2-3z" color="#000" overflow="visible" opacity=".2" fill="none" stroke="url(#s)" stroke-linecap="round" stroke-linejoin="round"/><path d="M5.068 2H19c.573 0 1.034.518 1.034 1.16v3.68c0 .64-.46 1.16-1.034 1.16H5.068c-.573 0-1.034-.518-1.034-1.16V3.16c0-.642.46-1.16 1.034-1.16z" color="#000" overflow="visible" fill="url(#t)"/><path d="M5.068 2.5H19c.296 0 .534.295.534.66v3.68c0 .365-.238.66-.534.66H5.068c-.296 0-.534-.295-.534-.66V3.16c0-.365.238-.66.534-.66z" color="#000" overflow="visible" opacity=".7" fill="none" stroke="url(#u)"/><path d="M5.534 3.5h13v3h-13z" color="#000" overflow="visible" opacity=".05" fill="none" stroke="#000"/><path d="M14.068 9.5H19c.296 0 .534.295.534.66v2.68c0 .365-.238.66-.534.66h-4.932c-.296 0-.534-.295-.534-.66v-2.68c0-.365.238-.66.534-.66z" color="#000" overflow="visible" fill="url(#v)"/><path d="M14.534 10.5h4v2h-4z" opacity=".3" fill="none" stroke="url(#w)" stroke-linecap="round" stroke-linejoin="round"/><path d="M14.068 9.5H19c.296 0 .534.295.534.66v2.68c0 .365-.238.66-.534.66h-4.932c-.296 0-.534-.295-.534-.66v-2.68c0-.365.238-.66.534-.66z" color="#000" overflow="visible" opacity=".4" fill="none" stroke="#000" stroke-linecap="round" stroke-linejoin="round"/><path d="M14.534 16.5h4v2h-4z" opacity=".3" fill="none" stroke="url(#x)" stroke-linecap="round" stroke-linejoin="round"/><path d="M5.068 9.5H10c.296 0 .534.295.534.66v2.68c0 .365-.238.66-.534.66H5.068c-.296 0-.534-.295-.534-.66v-2.68c0-.365.238-.66.534-.66z" color="#000" overflow="visible" fill="url(#y)"/><path d="M5.534 10.5h4v2h-4z" opacity=".3" fill="none" stroke="url(#z)" stroke-linecap="round" stroke-linejoin="round"/><path d="M5.068 9.5H10c.296 0 .534.295.534.66v2.68c0 .365-.238.66-.534.66H5.068c-.296 0-.534-.295-.534-.66v-2.68c0-.365.238-.66.534-.66z" color="#000" overflow="visible" opacity=".4" fill="none" stroke="#000" stroke-linecap="round" stroke-linejoin="round"/><path d="M5.068 15.5H10c.296 0 .534.295.534.66v2.68c0 .365-.238.66-.534.66H5.068c-.296 0-.534-.295-.534-.66v-2.68c0-.365.238-.66.534-.66z" color="#000" overflow="visible" fill="url(#A)"/><path d="M5.534 16.5h4v2h-4z" opacity=".3" fill="none" stroke="url(#B)" stroke-linecap="round" stroke-linejoin="round"/><path d="M5.068 15.5H10c.296 0 .534.295.534.66v2.68c0 .365-.238.66-.534.66H5.068c-.296 0-.534-.295-.534-.66v-2.68c0-.365.238-.66.534-.66z" color="#000" overflow="visible" opacity=".4" fill="none" stroke="#000" stroke-linecap="round" stroke-linejoin="round"/><path d="M13.154 3.873c-.244 0-.448.07-.624.196l.183.28a.967.967 0 0 1 .22-.11.656.656 0 0 1 .197-.04c.183 0 .27.07.27.22 0 .09-.03.152-.1.192-.067.04-.18.06-.33.06h-.146V5h.147c.17 0 .29.01.36.05.08.038.11.105.11.196 0 .1-.03.175-.1.22a.543.543 0 0 1-.3.074.97.97 0 0 1-.257-.034 1.366 1.366 0 0 1-.26-.1v.357c.16.07.355.098.565.098.25 0 .442-.04.577-.14a.536.536 0 0 0 .208-.44.403.403 0 0 0-.123-.305c-.08-.076-.2-.116-.356-.135v-.02a.56.56 0 0 0 .304-.17.452.452 0 0 0 .11-.31.396.396 0 0 0-.17-.344c-.116-.08-.28-.122-.48-.122zm2.365.024l-.63.503.19.246.22-.184c.027-.022.08-.067.147-.135l-.01.208v1.3h.403v-1.94zm1.65 0l-.85 1.253v.28h.82v.4h.402v-.4h.233v-.318h-.232V3.897zm-.01.466c-.01.017 0 .08 0 .184a3.1 3.1 0 0 0-.02.246v.32h-.467l.355-.53c.046-.068.09-.147.123-.22zM14.35 5.42a.27.27 0 0 0-.184.06c-.04.038-.048.098-.048.172 0 .07.02.12.06.16.042.038.1.06.173.06a.21.21 0 0 0 .22-.22c0-.073-.02-.133-.06-.172a.21.21 0 0 0-.16-.06z" style="line-height:125%;-inkscape-font-specification:'Open Sans Bold';text-align:end" font-weight="700" font-size="6.905" font-family="Open Sans" letter-spacing="0" word-spacing="0" text-anchor="end" fill="#6d6a59"/><circle cx="7.5" cy="11.5" r=".5" fill="#fff"/><circle r=".5" cy="11.5" cx="7.5" fill="#fff"/><path fill="#fff" d="M15.5 17h2v1h-2zm0-6h2v1h-2zM7 17h1v1H7z"/></svg>