<?xml version="1.0" encoding="UTF-8" standalone="no"?>
<!-- Created with Inkscape (http://www.inkscape.org/) -->

<svg
   xmlns:svg="http://www.w3.org/2000/svg"
   xmlns="http://www.w3.org/2000/svg"
   xmlns:xlink="http://www.w3.org/1999/xlink"
   version="1.0"
   width="24"
   height="24"
   id="svg2">
  <defs
     id="defs4">
    <linearGradient
       id="linearGradient10691">
      <stop
         id="stop10693"
         style="stop-color:black;stop-opacity:1"
         offset="0" />
      <stop
         id="stop10695"
         style="stop-color:black;stop-opacity:0"
         offset="1" />
    </linearGradient>
    <radialGradient
       cx="6.702713"
       cy="73.615715"
       r="7.228416"
       fx="6.702713"
       fy="73.615715"
       id="radialGradient2540"
       xlink:href="#linearGradient10691"
       gradientUnits="userSpaceOnUse"
       gradientTransform="scale(1.902215,0.525703)" />
    <linearGradient
       id="linearGradient2190">
      <stop
         id="stop2192"
         style="stop-color:#dadada;stop-opacity:1"
         offset="0" />
      <stop
         id="stop2196"
         style="stop-color:#707070;stop-opacity:1"
         offset="1" />
    </linearGradient>
    <linearGradient
       x1="72.67894"
       y1="204.05263"
       x2="72.67894"
       y2="180.04262"
       id="linearGradient2554"
       xlink:href="#linearGradient2190"
       gradientUnits="userSpaceOnUse"
       gradientTransform="matrix(0.0973309,0,0,0.09528545,4.9260911,1.961369)" />
    <linearGradient
       id="linearGradient2327">
      <stop
         id="stop2329"
         style="stop-color:#131313;stop-opacity:1"
         offset="0" />
      <stop
         id="stop2331"
         style="stop-color:#585858;stop-opacity:1"
         offset="1" />
    </linearGradient>
    <linearGradient
       x1="32.733955"
       y1="3.1467361"
       x2="32.733955"
       y2="33.843147"
       id="linearGradient2550"
       xlink:href="#linearGradient2327"
       gradientUnits="userSpaceOnUse"
       gradientTransform="matrix(0.4960448,0,0,0.5115904,0.04541223,-0.0159441)" />
    <linearGradient
       id="linearGradient6240">
      <stop
         id="stop6242"
         style="stop-color:white;stop-opacity:1"
         offset="0" />
      <stop
         id="stop6244"
         style="stop-color:white;stop-opacity:0"
         offset="1" />
    </linearGradient>
    <linearGradient
       x1="20.156862"
       y1="5.0996137"
       x2="20.156862"
       y2="26.039215"
       id="linearGradient6034"
       xlink:href="#linearGradient6240"
       gradientUnits="userSpaceOnUse"
       gradientTransform="matrix(0.5838421,0,0,0.6097826,-2.01679,-3.378261)" />
    <linearGradient
       id="linearGradient7025">
      <stop
         id="stop7027"
         style="stop-color:#e6ce46;stop-opacity:1"
         offset="0" />
      <stop
         id="stop7029"
         style="stop-color:#d6ba1c;stop-opacity:1"
         offset="1" />
    </linearGradient>
    <linearGradient
       x1="13.630114"
       y1="28.5"
       x2="25.208096"
       y2="41.180992"
       id="linearGradient9378"
       xlink:href="#linearGradient7025"
       gradientUnits="userSpaceOnUse"
       gradientTransform="translate(53,1.428571)" />
  </defs>
  <g
     id="layer1">
    <path
       d="m 26.5,38.700001 a 13.75,3.8 0 1 1 -27.5,0 13.75,3.8 0 1 1 27.5,0 z"
       transform="matrix(0.8236694,0,0,0.9151882,1.498215,-15.145499)"
       id="path2883"
       style="opacity:0.5;fill:url(#radialGradient2540);fill-opacity:1;fill-rule:nonzero;stroke:none;stroke-width:0.80000001;marker:none;visibility:visible;display:inline;overflow:visible" />
    <path
       d="m 6.9999998,18.253402 c 0,0 -0.722479,2.985481 -0.722479,3.18491 0,0.188381 -0.162568,1.301817 0.499059,1.301817 0.650049,0 10.0692762,0 10.5741272,0 0.505802,0 0.34403,-1.333309 0.387858,-1.438426 C 17.780955,21.200037 17,18.25 17,18.25 L 6.9999998,18.2534 z"
       id="path2170"
       style="fill:#b3b3b3;fill-opacity:1;fill-rule:evenodd;stroke:#4d4d4d;stroke-width:0.51974148;stroke-linecap:round;stroke-linejoin:round;stroke-miterlimit:4;stroke-opacity:1;stroke-dasharray:none" />
    <path
       d="m 6.9999998,17.762906 c 0,0 -0.55264,2.973699 -0.679275,3.436376 -0.125773,0.459526 -0.09785,0.541046 0.4784385,0.541046 0.564654,0 10.0139917,0 10.4705877,0 0.468083,0 0.519174,-0.162785 0.440103,-0.546247 C 17.632534,20.81912 17,17.759672 17,17.759672 l -10.0000002,0.0032 z"
       id="path2186"
       style="opacity:0.6;fill:url(#linearGradient2554);fill-opacity:1;fill-rule:evenodd;stroke:#b3b3b3;stroke-width:0.51934463;stroke-linecap:round;stroke-linejoin:round;stroke-miterlimit:4;stroke-opacity:1;stroke-dasharray:none" />
    <path
       d="m 1.0939778,0.25458836 c 7.2706814,0 14.5413632,0 21.8120442,0 0.81056,-0.006772 0.879819,0.89668854 0.825588,1.52004614 0,5.3700657 -2e-6,10.7401315 -2e-6,16.1101955 0.0066,0.831019 -0.874613,0.902025 -1.482624,0.846425 -7.051669,0 -14.1033377,0 -21.1550062,0 -0.8105605,0.0068 -0.87981886,-0.896687 -0.82558703,-1.520045 0,-5.370066 0,-10.7401311 0,-16.1101968 C 0.25767445,0.64603801 0.65005293,0.2436393 1.0939778,0.25458836 z"
       id="rect3170"
       style="fill:#333;fill-opacity:1;fill-rule:evenodd;stroke:#1a1a1a;stroke-width:0.50874037;stroke-linecap:round;stroke-linejoin:round;stroke-miterlimit:4;stroke-opacity:1;stroke-dasharray:none;stroke-dashoffset:0;marker:none;visibility:visible;display:inline;overflow:visible;enable-background:accumulate" />
    <path
       d="m 1.2544863,1.2544866 c 7.1636764,0 14.3273527,0 21.4910277,0 0,5.4970087 0,10.9940174 0,16.4910274 -7.163675,0 -14.3273513,0 -21.4910277,0 0,-5.49701 0,-10.9940187 0,-16.4910274 z"
       id="rect4151"
       style="fill:url(#linearGradient2550);fill-opacity:1;fill-rule:evenodd;stroke:black;stroke-width:0.50897282;stroke-linecap:round;stroke-linejoin:round;stroke-miterlimit:4;stroke-opacity:1;stroke-dasharray:none;stroke-dashoffset:0;marker:none;visibility:visible;display:inline;overflow:visible;enable-background:accumulate" />
    <path
       d="M 1.5,1.5191301 1.5,12.5 C 11.10096,11.674202 14.694065,6.3336231 22.499995,5.7756511 l 5e-6,-4.275651 -21,0.01913 z"
       id="path4073"
       style="opacity:0.4;fill:url(#linearGradient6034);fill-opacity:1;fill-rule:evenodd;stroke:none" />
    <g
       transform="matrix(0.5,0,0,0.5,31.211845,-8.4277864)"
       id="g4125">
      <path
         d="m -57.923691,22.327005 0,30 c 10.66583,-0.07888 21.334957,0.122845 32,-0.03125 0,0 0,-2.838472 0,-5.46875 l -32,-24.5 z m 6,13 15,11 -15,0 0,-11 z"
         id="path15577"
         style="opacity:0.1;fill:black;fill-opacity:1;fill-rule:evenodd;stroke:black;stroke-width:1.00000024px;stroke-linecap:butt;stroke-linejoin:miter;stroke-opacity:1;display:inline" />
      <g
         transform="translate(-116.42369,6.3984344)"
         id="g10824"
         style="display:inline">
        <path
           d="m 57.5,14.928571 0,30 39,0 -39,-30 z m 6,13 15,11 -15,0 0,-11 z"
           id="path4319"
           style="fill:url(#linearGradient9378);fill-opacity:1;fill-rule:evenodd;stroke:#a38503;stroke-width:1.00000024px;stroke-linecap:butt;stroke-linejoin:miter;stroke-opacity:1" />
        <path
           d="m 61.5,44.928571 0,-3"
           id="path4326"
           style="fill:none;stroke:#a38503;stroke-width:1px;stroke-linecap:round;stroke-linejoin:miter;stroke-opacity:1" />
        <path
           d="m 67.5,44.928571 0,-3"
           id="path4328"
           style="fill:none;stroke:#a38503;stroke-width:1px;stroke-linecap:round;stroke-linejoin:miter;stroke-opacity:1" />
        <path
           d="m 73.5,44.928571 0,-2.964286"
           id="path4330"
           style="fill:none;stroke:#a38503;stroke-width:1px;stroke-linecap:round;stroke-linejoin:miter;stroke-opacity:1" />
        <path
           d="m 79.5,44.928571 0,-3"
           id="path4332"
           style="fill:none;stroke:#a38503;stroke-width:1px;stroke-linecap:round;stroke-linejoin:miter;stroke-opacity:1" />
        <path
           d="m 85.5,44.928571 0,-3"
           id="path4334"
           style="fill:none;stroke:#a38503;stroke-width:1px;stroke-linecap:round;stroke-linejoin:miter;stroke-opacity:1" />
      </g>
      <path
         d="m 8.4375,13.40625 0,27.15625 35.3125,0 L 8.4375,13.40625 z M 13.34375,23.5625 A 0.93759375,0.93759375 0 0 1 14.0625,23.75 l 15,11 A 0.93759375,0.93759375 0 0 1 28.5,36.4375 l -15,0 A 0.93759375,0.93759375 0 0 1 12.5625,35.5 l 0,-11 a 0.93759375,0.93759375 0 0 1 0.78125,-0.9375 z"
         transform="translate(-66.423691,9.8046844)"
         id="path14994"
         style="opacity:0.41700404;fill:none;stroke:white;stroke-width:1.00000024px;stroke-linecap:butt;stroke-linejoin:miter;stroke-opacity:1;display:inline" />
    </g>
  </g>
</svg>
