<?xml version="1.0" encoding="UTF-8" standalone="no"?>
<!-- Created with Inkscape (http://www.inkscape.org/) -->

<svg
   xmlns:svg="http://www.w3.org/2000/svg"
   xmlns="http://www.w3.org/2000/svg"
   xmlns:xlink="http://www.w3.org/1999/xlink"
   version="1.1"
   width="24"
   height="24"
   id="svg11300">
  <defs
     id="defs3">
    <linearGradient
       id="linearGradient10591">
      <stop
         id="stop10593"
         style="stop-color:#dcdcdc;stop-opacity:1"
         offset="0" />
      <stop
         id="stop10599"
         style="stop-color:#fafafa;stop-opacity:1"
         offset="0.5" />
      <stop
         id="stop10595"
         style="stop-color:#c8c8c8;stop-opacity:1"
         offset="1" />
    </linearGradient>
    <linearGradient
       id="linearGradient7622-6">
      <stop
         id="stop7624-1"
         style="stop-color:white;stop-opacity:1"
         offset="0" />
      <stop
         id="stop7626-5"
         style="stop-color:white;stop-opacity:0"
         offset="1" />
    </linearGradient>
    <linearGradient
       id="linearGradient14861-7">
      <stop
         id="stop14863-5"
         style="stop-color:white;stop-opacity:1"
         offset="0" />
      <stop
         id="stop14865-8"
         style="stop-color:white;stop-opacity:0"
         offset="1" />
    </linearGradient>
    <linearGradient
       id="linearGradient14780-7-6">
      <stop
         id="stop14782-0-3"
         style="stop-color:#d3ba00;stop-opacity:1"
         offset="0" />
      <stop
         id="stop14784-4-7"
         style="stop-color:#d3ba00;stop-opacity:0"
         offset="1" />
    </linearGradient>
    <linearGradient
       id="linearGradient14981-4-9">
      <stop
         id="stop14983-1-0"
         style="stop-color:#6d9335;stop-opacity:1"
         offset="0" />
      <stop
         id="stop14985-7-7"
         style="stop-color:#364d17;stop-opacity:1"
         offset="1" />
    </linearGradient>
    <linearGradient
       id="linearGradient14993">
      <stop
         id="stop14995"
         style="stop-color:black;stop-opacity:1"
         offset="0" />
      <stop
         id="stop14997"
         style="stop-color:black;stop-opacity:0"
         offset="1" />
    </linearGradient>
    <linearGradient
       x1="16.964844"
       y1="20.165941"
       x2="18.968426"
       y2="31.347067"
       id="linearGradient3222"
       xlink:href="#linearGradient14861-7"
       gradientUnits="userSpaceOnUse"
       gradientTransform="matrix(0.39731096,0,0,0.39082257,2.143028,-0.1067287)" />
    <radialGradient
       cx="10"
       cy="16.655396"
       r="16.000418"
       fx="10"
       fy="16.655396"
       id="radialGradient3226"
       xlink:href="#linearGradient7622-6"
       gradientUnits="userSpaceOnUse"
       gradientTransform="matrix(1.4043815,0.04555468,-0.03427223,1.0005357,-11.151028,-10.219333)" />
    <linearGradient
       x1="6.2209711"
       y1="42.890816"
       x2="6.2376504"
       y2="39.266895"
       id="linearGradient3240"
       xlink:href="#linearGradient14780-7-6"
       gradientUnits="userSpaceOnUse"
       gradientTransform="matrix(0.9999997,0,0,0.56326439,4.000001,-4.3017486)" />
    <linearGradient
       x1="6.2209711"
       y1="42.890816"
       x2="6.2376504"
       y2="39.266895"
       id="linearGradient3243"
       xlink:href="#linearGradient14780-7-6"
       gradientUnits="userSpaceOnUse"
       gradientTransform="matrix(0.99999854,0,0,0.56326439,2.00001,-4.3017486)" />
    <linearGradient
       x1="6.2209711"
       y1="42.890816"
       x2="6.2376504"
       y2="39.266895"
       id="linearGradient3246"
       xlink:href="#linearGradient14780-7-6"
       gradientUnits="userSpaceOnUse"
       gradientTransform="matrix(1.0000004,0,0,0.56326439,-2e-6,-4.3017493)" />
    <linearGradient
       x1="6.2209711"
       y1="42.890816"
       x2="6.2376504"
       y2="39.266895"
       id="linearGradient3249"
       xlink:href="#linearGradient14780-7-6"
       gradientUnits="userSpaceOnUse"
       gradientTransform="matrix(1,0,0,0.56326439,-2,-4.3017493)" />
    <radialGradient
       cx="21.5"
       cy="44.75"
       r="17"
       fx="21.5"
       fy="44.75"
       id="radialGradient3259"
       xlink:href="#linearGradient14993"
       gradientUnits="userSpaceOnUse"
       gradientTransform="matrix(0.64705885,0,0,0.17647041,-2.911765,13.103433)" />
    <radialGradient
       cx="15"
       cy="19.770353"
       r="17.001272"
       fx="15"
       fy="19.770353"
       id="radialGradient3262"
       xlink:href="#linearGradient14981-4-9"
       gradientUnits="userSpaceOnUse"
       gradientTransform="matrix(2.2011105,0,0,0.9928155,-28.19895,-11.347918)" />
    <linearGradient
       x1="42.365673"
       y1="15.04982"
       x2="42.4007"
       y2="20.018223"
       id="linearGradient4304"
       xlink:href="#linearGradient10591"
       gradientUnits="userSpaceOnUse"
       gradientTransform="matrix(0.73900817,0,0,0.62997639,-8.456032,-1.5460199)" />
    <linearGradient
       x1="42.365673"
       y1="15.04982"
       x2="42.4007"
       y2="20.018223"
       id="linearGradient4308"
       xlink:href="#linearGradient10591"
       gradientUnits="userSpaceOnUse"
       gradientTransform="matrix(0.73900817,0,0,0.62997639,-8.456032,2.4539802)" />
    <linearGradient
       x1="20"
       y1="11.25"
       x2="23"
       y2="11.25"
       id="linearGradient4316"
       xlink:href="#linearGradient10591"
       gradientUnits="userSpaceOnUse"
       gradientTransform="translate(0,-1)" />
    <radialGradient
       cx="23.895569"
       cy="3.9900031"
       r="20.397499"
       fx="23.895569"
       fy="3.9900031"
       id="radialGradient3260"
       xlink:href="#linearGradient3868"
       gradientUnits="userSpaceOnUse"
       gradientTransform="matrix(0,0.86033195,-1.1356228,0,12.531139,-20.445112)" />
    <linearGradient
       id="linearGradient3868">
      <stop
         id="stop3870"
         style="stop-color:#8badea;stop-opacity:1"
         offset="0" />
      <stop
         id="stop3872"
         style="stop-color:#6396cd;stop-opacity:1"
         offset="0.26238" />
      <stop
         id="stop3874"
         style="stop-color:#3b7caf;stop-opacity:1"
         offset="0.66093999" />
      <stop
         id="stop3876"
         style="stop-color:#194c70;stop-opacity:1"
         offset="1" />
    </linearGradient>
    <linearGradient
       x1="18.379412"
       y1="44.980297"
       x2="18.379412"
       y2="3.0816143"
       id="linearGradient3262"
       xlink:href="#linearGradient3878"
       gradientUnits="userSpaceOnUse"
       gradientTransform="matrix(0.36047566,0,0,0.36047572,-0.65141482,-0.65141768)" />
    <linearGradient
       id="linearGradient3878">
      <stop
         id="stop3880"
         style="stop-color:#1f4b6a;stop-opacity:1"
         offset="0" />
      <stop
         id="stop3882"
         style="stop-color:#4083c2;stop-opacity:1"
         offset="1" />
    </linearGradient>
    <linearGradient
       x1="63.397362"
       y1="-12.489107"
       x2="63.397362"
       y2="5.4675598"
       id="linearGradient3264"
       xlink:href="#linearGradient3341"
       gradientUnits="userSpaceOnUse"
       gradientTransform="matrix(0.68608831,0,0,0.6860727,-34.674967,10.408689)" />
    <linearGradient
       id="linearGradient3341">
      <stop
         id="stop3343"
         style="stop-color:white;stop-opacity:1"
         offset="0" />
      <stop
         id="stop3345"
         style="stop-color:white;stop-opacity:0"
         offset="1" />
    </linearGradient>
  </defs>
  <path
     d="M 22,21.000488 A 11,3 0 0 1 1.05e-7,21.000488 11,3 0 1 1 22,21.000488 z"
     id="path14991"
     style="opacity:0.4;color:black;fill:url(#radialGradient3259);fill-opacity:1;fill-rule:nonzero;stroke:none;stroke-width:1;marker:none;visibility:visible;display:block;overflow:visible" />
  <rect
     width="3.5"
     height="2.5"
     rx="1"
     ry="1"
     x="20.25"
     y="12.25"
     id="rect4306"
     style="color:black;fill:url(#linearGradient4308);fill-opacity:1;fill-rule:nonzero;stroke:#787878;stroke-width:0.49999997;stroke-linecap:round;stroke-linejoin:round;stroke-miterlimit:4;stroke-opacity:1;stroke-dasharray:none;stroke-dashoffset:0;marker:none;visibility:visible;display:block;overflow:visible" />
  <path
     d="m 0.502669,18.5 1.997331,0 0,3 10,0 0,-3 6.999951,0 0,-15.0000563 L 0.5,3.499942 0.50273,18.5 l -6.1e-5,0 z"
     id="rect14772-0"
     style="color:black;fill:url(#radialGradient3262);fill-opacity:1;fill-rule:nonzero;stroke:#2d410f;stroke-width:1;stroke-linecap:butt;stroke-linejoin:round;stroke-miterlimit:4;stroke-opacity:1;stroke-dasharray:none;stroke-dashoffset:0;marker:none;visibility:visible;display:block;overflow:visible" />
  <path
     d="m 12.874,13.275 -7.632,0 0,2.020419"
     id="path14957-6"
     style="color:black;fill:none;stroke:#305526;stroke-width:0.5;stroke-linecap:butt;stroke-linejoin:miter;stroke-miterlimit:4;stroke-opacity:1;stroke-dasharray:none;stroke-dashoffset:0;marker:none;visibility:visible;display:block;overflow:visible" />
  <path
     d="m 4.25,19.95 0.03097,-3.24193 1.07338,-1.49541 11.93565,0 0,-4.81266 -2.623305,-1.641 2.038425,0 0,-1.9664324 -4.10512,0"
     id="path14826-5"
     style="color:black;fill:none;stroke:#305526;stroke-width:0.5;stroke-linecap:butt;stroke-linejoin:miter;stroke-miterlimit:4;stroke-opacity:1;stroke-dasharray:none;stroke-dashoffset:0;marker:none;visibility:visible;display:block;overflow:visible" />
  <path
     d="m 8.25,20.078451 0.03097,-3.24193 1.073379,-1.49541"
     id="path14830"
     style="color:black;fill:none;stroke:#305526;stroke-width:0.5;stroke-linecap:butt;stroke-linejoin:miter;stroke-miterlimit:4;stroke-opacity:1;stroke-dasharray:none;stroke-dashoffset:0;marker:none;visibility:visible;display:block;overflow:visible" />
  <path
     d="m 6.25,20.078451 0.03097,-3.24193 1.07338,-1.49541"
     id="path14838"
     style="color:black;fill:none;stroke:#305526;stroke-width:0.5;stroke-linecap:butt;stroke-linejoin:miter;stroke-miterlimit:4;stroke-opacity:1;stroke-dasharray:none;stroke-dashoffset:0;marker:none;visibility:visible;display:block;overflow:visible" />
  <path
     d="m 10.25,20.078451 0.03096,-3.24193 1.073379,-1.49541"
     id="path14840"
     style="color:black;fill:none;stroke:#305526;stroke-width:0.5;stroke-linecap:butt;stroke-linejoin:miter;stroke-miterlimit:4;stroke-opacity:1;stroke-dasharray:none;stroke-dashoffset:0;marker:none;visibility:visible;display:block;overflow:visible" />
  <path
     d="M 4.5,18 C 4.902984,18 5,18.354433 5,18.510457 L 5,21 c 0,0 -1,0 -1,0 L 4,18.510457 C 4,18.354433 4.10489,18 4.5,18 z"
     id="path14788"
     style="color:black;fill:url(#linearGradient3249);fill-opacity:1;fill-rule:nonzero;stroke:none;stroke-width:1;marker:none;visibility:visible;display:block;overflow:visible" />
  <path
     d="M 6.499999,18 C 6.902984,18 7,18.354433 7,18.510457 L 7,21 c 0,0 -1,0 -1,0 L 6,18.510457 C 6,18.354433 6.104889,18 6.499999,18 z"
     id="path14792"
     style="color:black;fill:url(#linearGradient3246);fill-opacity:1;fill-rule:nonzero;stroke:none;stroke-width:1;marker:none;visibility:visible;display:block;overflow:visible" />
  <path
     d="M 8.499999,18 C 8.902984,18 9,18.354434 9,18.510459 L 9,21 c 0,0 -1,0 -1,0 L 8,18.510459 C 8,18.354434 8.104893,18 8.499999,18 z"
     id="path14796-8"
     style="color:black;fill:url(#linearGradient3243);fill-opacity:1;fill-rule:nonzero;stroke:none;stroke-width:1;marker:none;visibility:visible;display:block;overflow:visible" />
  <path
     d="M 10.499999,18 C 10.902984,18 11,18.354434 11,18.510459 L 11,21 c 0,0 -1,0 -1,0 l 0,-2.489541 C 10,18.354434 10.104893,18 10.499999,18 z"
     id="path14800"
     style="color:black;fill:url(#linearGradient3240);fill-opacity:1;fill-rule:nonzero;stroke:none;stroke-width:1;marker:none;visibility:visible;display:block;overflow:visible" />
  <path
     d="M 4.382777,7.0925382 2.8,7.6884103 2.8,14.201 l 2.5,0"
     id="path15029-1"
     style="color:black;fill:none;stroke:#305526;stroke-width:0.5;stroke-linecap:butt;stroke-linejoin:miter;stroke-miterlimit:4;stroke-opacity:1;stroke-dasharray:none;stroke-dashoffset:0;marker:none;visibility:visible;display:block;overflow:visible" />
  <path
     d="m 4.99307,10.73511 0.598904,2.35444 1.09799,0 -0.598903,-2.35444"
     id="path14959-2"
     style="color:black;fill:none;stroke:#305526;stroke-width:0.5;stroke-linecap:butt;stroke-linejoin:miter;stroke-miterlimit:4;stroke-opacity:1;stroke-dasharray:none;stroke-dashoffset:0;marker:none;visibility:visible;display:block;overflow:visible" />
  <path
     d="m 7.251678,10.791681 0.598903,2.297869 1.097991,0 -0.598904,-2.297869"
     id="path14961-2"
     style="color:black;fill:none;stroke:#305526;stroke-width:0.5;stroke-linecap:butt;stroke-linejoin:miter;stroke-miterlimit:4;stroke-opacity:1;stroke-dasharray:none;stroke-dashoffset:0;marker:none;visibility:visible;display:block;overflow:visible" />
  <path
     d="m 9.510285,10.705967 0.598903,2.383583 1.097992,0 -0.598905,-2.383583"
     id="path14963-6"
     style="color:black;fill:none;stroke:#305526;stroke-width:0.5;stroke-linecap:butt;stroke-linejoin:miter;stroke-miterlimit:4;stroke-opacity:1;stroke-dasharray:none;stroke-dashoffset:0;marker:none;visibility:visible;display:block;overflow:visible" />
  <path
     d="m 11.768891,10.681966 0.598904,2.407584"
     id="path14965-9"
     style="color:black;fill:none;stroke:#305526;stroke-width:0.5;stroke-linecap:butt;stroke-linejoin:miter;stroke-miterlimit:4;stroke-opacity:1;stroke-dasharray:none;stroke-dashoffset:0;marker:none;visibility:visible;display:block;overflow:visible" />
  <path
     d="m 1.500089,17.5 1.999911,0 0,3 8,-0.0013 0,-2.9987 6.997903,0 c 0.0022,-2.19e-4 0.0021,-12.9988683 0.0021,-12.9988683 L 1.50192,4.5000006 C 1.504109,8.9497658 1.5,17.5 1.5,17.5 l 8.9e-5,0 z"
     id="path14989-1"
     style="opacity:0.23863633;color:black;fill:none;stroke:url(#radialGradient3226);stroke-width:1.0000006;stroke-linecap:butt;stroke-linejoin:miter;stroke-miterlimit:4;stroke-opacity:1;stroke-dasharray:none;stroke-dashoffset:0;marker:none;visibility:visible;display:block;overflow:visible" />
  <rect
     width="8.000001"
     height="4.0000005"
     rx="0.5"
     ry="0.5"
     x="4.5"
     y="6.5"
     id="rect14857-2"
     style="color:black;fill:#646662;fill-opacity:1;fill-rule:nonzero;stroke:#2e3436;stroke-width:0.9999994;stroke-linecap:butt;stroke-linejoin:miter;stroke-miterlimit:4;stroke-opacity:1;stroke-dasharray:none;stroke-dashoffset:0;marker:none;visibility:visible;display:block;overflow:visible" />
  <rect
     width="6"
     height="2.0000002"
     rx="0"
     ry="0"
     x="5.5"
     y="7.5"
     id="rect14859-2"
     style="opacity:0.25;color:black;fill:none;stroke:url(#linearGradient3222);stroke-width:0.99999982;stroke-linecap:butt;stroke-linejoin:miter;stroke-miterlimit:4;stroke-opacity:1;stroke-dasharray:none;stroke-dashoffset:0;marker:none;visibility:visible;display:block;overflow:visible" />
  <rect
     width="3.5"
     height="2.5"
     rx="1"
     ry="1"
     x="20.25"
     y="8.249999"
     id="rect15011"
     style="color:black;fill:url(#linearGradient4304);fill-opacity:1;fill-rule:nonzero;stroke:#787878;stroke-width:0.49999997;stroke-linecap:round;stroke-linejoin:round;stroke-miterlimit:4;stroke-opacity:1;stroke-dasharray:none;stroke-dashoffset:0;marker:none;visibility:visible;display:block;overflow:visible" />
  <path
     d="m 20.5,19.5 0,-17.95 2,0"
     id="path15001"
     style="color:black;fill:none;stroke:#787878;stroke-width:3;stroke-linecap:round;stroke-linejoin:round;stroke-miterlimit:4;stroke-opacity:1;stroke-dasharray:none;stroke-dashoffset:0;marker:none;visibility:visible;display:block;overflow:visible" />
  <path
     d="m 20.5,19.4 0,-17.9 2,0"
     id="path15003"
     style="color:black;fill:none;stroke:url(#linearGradient4316);stroke-width:2;stroke-linecap:round;stroke-linejoin:round;stroke-miterlimit:4;stroke-opacity:1;stroke-dasharray:none;stroke-dashoffset:0;marker:none;visibility:visible;display:block;overflow:visible" />
  <g
     transform="matrix(0.74999999,0,0,0.74999999,9,11.000001)"
     id="layer1">
    <path
       d="m 8.0000009,0.66657169 c -4.0463305,0 -7.33342755,3.28709451 -7.33342755,7.33342631 0,4.046334 3.28709705,7.333431 7.33342755,7.333428 4.0463311,0 7.3334311,-3.287094 7.3334271,-7.333428 0,-4.0463318 -3.287096,-7.33342631 -7.3334271,-7.33342631 z"
       id="path2449"
       style="fill:url(#radialGradient3260);fill-opacity:1;stroke:url(#linearGradient3262);stroke-width:1.33314669;stroke-linecap:round;stroke-linejoin:round;stroke-miterlimit:4;stroke-opacity:1;stroke-dasharray:none;stroke-dashoffset:0" />
    <path
       d="m 14.000184,7.9997877 c 0,3.3139163 -2.686571,6.0003953 -6.0001086,6.0003953 -3.3138406,0 -6.00026,-2.686508 -6.00026,-6.0003953 0,-3.3137649 2.6864194,-5.9999733 6.00026,-5.9999733 3.3135376,0 6.0001086,2.6862084 6.0001086,5.9999733 l 0,0 z"
       id="path2451"
       style="opacity:0.4;fill:none;stroke:url(#linearGradient3264);stroke-width:1.33296406;stroke-miterlimit:4;stroke-opacity:1;stroke-dasharray:none" />
    <path
       d="M 5.6000001,7.9818968 C 5.7090026,8.2528385 5.828327,8.4711836 6.0522052,8.1567054 6.3374959,7.9657855 7.2862216,7.1413414 7.2180895,7.9134779 6.9597842,9.3477088 6.6327904,10.769795 6.3963822,12.20751 6.1215881,13.000704 6.8419199,13.678324 7.5456214,13.140909 8.3019069,12.783128 8.9429493,12.224666 9.6,11.709525 9.498722,11.480589 9.4242553,11.148805 9.1812299,11.463646 8.8526697,11.633684 8.1504224,12.400512 7.9910256,11.798433 8.2123074,10.247823 8.6755082,8.7443246 8.9490788,7.2038552 9.228154,6.4892451 8.6933454,5.6228147 7.966962,6.2343339 7.0853254,6.6733141 6.3605033,7.3609779 5.6000001,7.9818968 z M 8.7288706,2.6685682 C 7.8114567,2.6562416 7.3918215,4.1943076 8.2779344,4.574016 8.9953049,4.8427934 9.7348494,4.066394 9.5335057,3.3292734 9.4649374,2.9439563 9.1144173,2.6396518 8.7288715,2.6685682 l -9e-7,0 z"
       id="path3536"
       style="font-size:40px;font-style:normal;font-variant:normal;font-weight:bold;font-stretch:normal;text-align:start;line-height:100%;writing-mode:lr-tb;text-anchor:start;fill:white;fill-opacity:1;stroke:none;font-family:URW Palladio L;-inkscape-font-specification:URW Palladio L Bold" />
  </g>
</svg>
