<svg xmlns="http://www.w3.org/2000/svg" xmlns:xlink="http://www.w3.org/1999/xlink" viewBox="0 0 24 24"><defs><linearGradient id="a"><stop offset="0"/><stop offset="1" stop-opacity="0"/></linearGradient><radialGradient cx="4.993" cy="43.5" r="2.5" id="e" xlink:href="#a" gradientUnits="userSpaceOnUse" gradientTransform="matrix(1.20227 0 0 .6 14.993 -4.6)"/><radialGradient cx="4.993" cy="43.5" r="2.5" id="f" xlink:href="#a" gradientUnits="userSpaceOnUse" gradientTransform="matrix(1.20227 0 0 .6 -9.007 -47.6)"/><linearGradient x1="25.058" y1="43.528" x2="25.058" y2="39.999" id="g" xlink:href="#a" gradientUnits="userSpaceOnUse" gradientTransform="matrix(.64286 0 0 .42857 -3.43 2.857)" spreadMethod="reflect"/><radialGradient cx="7.496" cy="8.45" r="20" id="d" gradientUnits="userSpaceOnUse" gradientTransform="matrix(0 3.29576 -5.38092 0 77.468 -19.382)"><stop offset="0" stop-color="#f8b17e"/><stop offset=".262" stop-color="#e35d4f"/><stop offset=".661" stop-color="#c6262e"/><stop offset="1" stop-color="#690b54"/></radialGradient><linearGradient gradientTransform="translate(0 -8.1)" xlink:href="#b" id="i" x1="17" y1="29" x2="17" y2="26" gradientUnits="userSpaceOnUse"/><linearGradient id="b"><stop offset="0" stop-color="#2b3235"/><stop offset="1" stop-color="#374044"/></linearGradient><linearGradient x1="27.914" y1="16.188" x2="27.914" y2="41.663" id="j" xlink:href="#c" gradientUnits="userSpaceOnUse" gradientTransform="matrix(.78378 0 0 .62162 -2.81 -6.02)"/><linearGradient id="c"><stop offset="0" stop-color="#fff"/><stop offset=".009" stop-color="#fff" stop-opacity=".235"/><stop offset=".997" stop-color="#fff" stop-opacity=".157"/><stop offset="1" stop-color="#fff" stop-opacity=".392"/></linearGradient><radialGradient xlink:href="#d" id="h" gradientUnits="userSpaceOnUse" gradientTransform="matrix(0 4.627 -5.6805 0 68.966 -38.745)" cx="6.73" cy="9.957" fx="6.2" fy="9.957" r="12.672"/></defs><path opacity=".4" fill="url(#e)" d="M21 20h3v3h-3z" transform="translate(0 -.1)"/><path transform="rotate(180 0 -.05)" opacity=".4" fill="url(#f)" d="M-3-23h3v3h-3z"/><path opacity=".4" fill="url(#g)" d="M3 20h18v3H3z" transform="translate(0 -.1)"/><path d="M2.55 2.488c-.58 0-1.05.475-1.05 1.065V18h21V3.553c0-.59-.255-1.065-1.05-1.065z" color="#000" overflow="visible" fill="url(#h)"/><path style="line-height:normal;text-indent:0;text-align:start;text-decoration-line:none;text-decoration-style:solid;text-decoration-color:#000;text-transform:none;block-progression:tb;isolation:auto;mix-blend-mode:normal" d="M2.55 1.988c-.853 0-1.55.71-1.55 1.565V18h1V3.553c0-.325.24-.565.55-.565h18.9c.31 0 .55.24.55.565V18h1V3.553c0-.855-.697-1.565-1.55-1.565z" color="#000" font-weight="400" font-family="sans-serif" white-space="normal" overflow="visible" opacity=".5" fill="#6f0000"/><path d="M1.5 18v2.436c0 .59.47 1.064 1.05 1.064h18.9c.58 0 1.05-.475 1.05-1.064V18z" color="#000" overflow="visible" fill="url(#i)"/><path style="line-height:normal;text-indent:0;text-align:start;text-decoration-line:none;text-decoration-style:solid;text-decoration-color:#000;text-transform:none;block-progression:tb;isolation:auto;mix-blend-mode:normal" d="M1 18v2.436C1 21.29 1.697 22 2.55 22h18.9c.853 0 1.55-.304 1.55-1.564V18h-1v2.436c0 .324-.24.564-.55.564H2.55c-.31 0-.55-.24-.55-.564V18z" color="#000" font-weight="400" font-family="sans-serif" white-space="normal" overflow="visible" opacity=".8"/><path d="M2.514 3.496H21.53v16.948H2.514zM3 17.5h18z" opacity=".3" fill="none" stroke="url(#j)" stroke-linecap="round" stroke-linejoin="round"/><path style="line-height:normal;text-indent:0;text-align:start;text-decoration-line:none;text-decoration-style:solid;text-decoration-color:#000;text-transform:none;block-progression:tb;isolation:auto;mix-blend-mode:normal" d="M2 18v1h20v-1z" color="#000" font-weight="400" font-family="sans-serif" white-space="normal" overflow="visible" opacity=".5" fill-rule="evenodd"/><path d="M9.313 7.013c.015 0-.172.035-.157.032a.992.99 0 0 0-.03 0c.012-.004-.14.067-.126.062.013-.004-.137.037-.125.03.012-.004-.105.07-.094.064a2.82 2.82 0 0 1-.12.07l-.09.065-.092.093a5.32 5.32 0 0 1-.094.094 1.1 1.1 0 0 1-.063.093l-.062.092c.008-.01-.07.138-.062.126a1.837 1.837 0 0 1-.06.093c.004-.013-.036.137-.03.124a5.008 5.008 0 0 1-.034.125l-.03.125c0-.013-.032.138-.03.125v6.08a.992.99 0 0 0 0 .033v.093c0-.01.033.103.03.093 0-.01.003.104 0 .094 0-.01.035.104.032.094L8.1 15c-.005-.01.034.104.03.094a.745.745 0 0 1 .03.063c-.004-.01.07.103.064.094-.008-.003.066.108.06.1-.006-.01.04.07.03.06-.005-.01.07.07.064.063-.008-.01.07.1.06.093-.006-.007.103.07.095.063a.713.713 0 0 1 .064.06c-.01-.007.07.07.06.06-.007-.004.104.038.095.033l.094.06c-.01-.005.102.035.092.03-.01-.003.074.036.064.032l.094.03.094.03h.093c-.01 0 .107.032.097.03h.22c-.01 0 .104-.03.094-.03-.01 0 .102-.002.092 0a.884.884 0 0 1 .096-.03c-.01.002.104-.003.094 0l.06-.03c-.008.002.105-.068.095-.064a.835.835 0 0 1 .1-.03.992.99 0 0 0 .03-.032l5-2.996a.456.456 0 0 1 .096-.03c-.01.003.07-.07.063-.065-.01.007.1-.07.093-.062l.064-.062.064-.09.063-.064.06-.094.033-.06c-.004.01.068-.104.064-.095-.006.01.034-.103.03-.094l.03-.09.03-.095c0 .01.034-.102.03-.09v-.09c0 .01.034-.105.03-.095v-.184a.774.774 0 0 0-.03-.092v-.094l-.03-.093-.03-.095a.893.893 0 0 1-.032-.094.837.837 0 0 1-.03-.092c.002.01-.07-.103-.065-.094l-.03-.06-.063-.097-.065-.065c.006.006-.07-.103-.064-.095a4 4 0 0 1-.06-.063c.01.004-.1-.07-.092-.065l-.063-.06c.008.003-.103-.04-.094-.035L10.29 7.23c.003 0-.023.003-.03 0a.73.73 0 0 1-.095-.063l-.16-.07c.014.004-.14-.067-.126-.063.013.006-.17 0-.158 0a3.053 3.053 0 0 1-.13-.03h-.278z" opacity=".07" color="#000" fill-rule="evenodd" overflow="visible"/><path d="M9.375 8.012a.51.508 0 0 0-.375.5v5.99a.51.508 0 0 0 .75.437l5-3a.51.508 0 0 0 0-.88l-5-2.996a.51.508 0 0 0-.375-.06z" opacity=".15" color="#000" fill-rule="evenodd" overflow="visible"/><path d="M9.375 7.012a.51.508 0 0 0-.375.5v5.99a.51.508 0 0 0 .75.437l5-3a.51.508 0 0 0 0-.88l-5-2.996a.51.508 0 0 0-.375-.06z" fill="#fafafa" fill-rule="evenodd"/></svg>