<?xml version="1.0" encoding="UTF-8" standalone="no"?>
<!-- Created with Inkscape (http://www.inkscape.org/) -->
<svg
   xmlns:svg="http://www.w3.org/2000/svg"
   xmlns="http://www.w3.org/2000/svg"
   xmlns:xlink="http://www.w3.org/1999/xlink"
   version="1.0"
   width="24"
   height="24"
   id="svg2">
  <defs
     id="defs4">
    <linearGradient
       id="linearGradient4588">
      <stop
         id="stop4591"
         style="stop-color:#000000;stop-opacity:0.3255814"
         offset="0" />
      <stop
         id="stop4590"
         style="stop-color:#000000;stop-opacity:0.19215687"
         offset="0.5" />
      <stop
         id="stop4589"
         style="stop-color:#000000;stop-opacity:0"
         offset="1" />
    </linearGradient>
    <radialGradient
       cx="6.702713"
       cy="73.615715"
       r="7.228416"
       fx="6.702713"
       fy="73.615715"
       id="radialGradient3351"
       xlink:href="#linearGradient4588"
       gradientUnits="userSpaceOnUse"
       gradientTransform="matrix(1.6248935,0,0,0.3559079,1.108806,-4.7730656)" />
    <linearGradient
       id="linearGradient3332-412-419">
      <stop
         id="stop2554"
         style="stop-color:#611358;stop-opacity:1"
         offset="0" />
      <stop
         id="stop2556"
         style="stop-color:#a1619b;stop-opacity:1"
         offset="1" />
    </linearGradient>
    <linearGradient
       x1="18.530535"
       y1="24.150793"
       x2="18.530535"
       y2="-0.079317272"
       id="linearGradient3348"
       xlink:href="#linearGradient3332-412-419"
       gradientUnits="userSpaceOnUse" />
    <linearGradient
       id="linearGradient3242-593-605">
      <stop
         id="stop2544"
         style="stop-color:#d196bf;stop-opacity:1"
         offset="0" />
      <stop
         id="stop2546"
         style="stop-color:#bb70b6;stop-opacity:1"
         offset="0.26238" />
      <stop
         id="stop2548"
         style="stop-color:#954a9a;stop-opacity:1"
         offset="0.66093999" />
      <stop
         id="stop2550"
         style="stop-color:#6c3b77;stop-opacity:1"
         offset="1" />
    </linearGradient>
    <radialGradient
       cx="10.571148"
       cy="0.7647422"
       r="11.508719"
       fx="10.571148"
       fy="0.7647422"
       id="radialGradient3346"
       xlink:href="#linearGradient3242-593-605"
       gradientUnits="userSpaceOnUse"
       gradientTransform="matrix(-1.7947178e-8,1.7575918,-1.5422016,-1.5747778e-8,11.750535,-16.821504)" />
    <linearGradient
       id="linearGradient4593">
      <stop
         id="stop12409"
         style="stop-color:#ffffff;stop-opacity:0.70200002"
         offset="0" />
      <stop
         id="stop12411"
         style="stop-color:#ffffff;stop-opacity:0"
         offset="1" />
    </linearGradient>
    <linearGradient
       x1="27.906723"
       y1="7.549542"
       x2="24.774496"
       y2="39.399513"
       id="linearGradient3343"
       xlink:href="#linearGradient4593"
       gradientUnits="userSpaceOnUse"
       gradientTransform="matrix(0.510074,-4.6449072e-2,5.0162281e-2,0.5555587,-1.305188,-0.2387709)" />
  </defs>
  <g
     id="layer1">
    <path
       d="M 23.745406,21.42735 C 23.745406,22.848185 18.486808,24 12,24 C 5.513192,24 0.254595,22.848185 0.254595,21.42735 C 0.254595,20.006514 5.513192,18.854699 12,18.854699 C 18.486808,18.854699 23.745406,20.006514 23.745406,21.42735 z"
       id="path3302"
       style="opacity:0.4;fill:url(#radialGradient3351);fill-opacity:1;fill-rule:nonzero;stroke:none;stroke-width:0.71986049;stroke-linecap:butt;stroke-linejoin:miter;marker:none;marker-start:none;marker-mid:none;marker-end:none;stroke-miterlimit:0;stroke-dasharray:none;stroke-dashoffset:0;stroke-opacity:1;visibility:visible;display:inline;overflow:visible" />
    <path
       d="M 10.440348,2.3954884 C 4.804251,3.2251954 0.633881,7.1026954 1.012805,11.301 C 1.258174,14.019574 3.347855,16.257193 6.336181,17.437791 L 5.088812,22.291039 L 10.60708,18.306012 L 10.645229,18.302537 C 11.326223,18.335038 12.010377,18.345812 12.720333,18.281136 C 18.778623,17.729235 23.384738,13.703942 22.987176,9.299165 C 22.589616,4.8943874 17.337937,1.7671274 11.279647,2.3190294 C 10.995665,2.3448994 10.717534,2.3546824 10.440348,2.3954884 z"
       id="path3304"
       style="fill:url(#radialGradient3346);fill-opacity:1;fill-rule:evenodd;stroke:url(#linearGradient3348);stroke-width:0.99525028;stroke-linecap:butt;stroke-linejoin:round;marker:none;marker-start:none;marker-mid:none;marker-end:none;stroke-miterlimit:4;stroke-dasharray:none;stroke-dashoffset:0;stroke-opacity:1;visibility:visible;display:inline;overflow:visible" />
    <path
       d="M 10.655557,3.4062906 C 5.92063,4.094606 1.745653,7.1581206 2.07496,11.306254 C 2.296144,14.092425 4.892722,15.983071 7.593216,16.861998 L 6.60203,19.998532 L 10.296558,17.375419 C 10.868351,17.400214 11.957524,17.444437 12.553868,17.390131 C 17.062895,16.979524 22.545453,13.579381 22.023973,9.438994 C 21.496,5.2470647 16.495452,2.8516768 11.360544,3.3420917 C 11.122107,3.3648639 10.888422,3.3724404 10.655557,3.4062906 z"
       id="path6179"
       style="opacity:0.4;fill:none;fill-opacity:1;fill-rule:evenodd;stroke:url(#linearGradient3343);stroke-width:0.99525028;stroke-linecap:butt;stroke-linejoin:miter;marker:none;marker-start:none;marker-mid:none;marker-end:none;stroke-miterlimit:4;stroke-dasharray:none;stroke-dashoffset:0;stroke-opacity:1;visibility:visible;display:inline;overflow:visible" />
    <path
       d="M 12.09375,4.8750004 C 11.841156,4.8388862 11.559922,4.8974488 11.375,5.0000004 C 11.190078,5.102552 11.156424,5.2163452 11.15625,5.2187504 C 11.156499,5.2291656 11.156499,5.2395852 11.15625,5.2500004 C 11.154473,5.2637858 11.151879,5.2716302 11.15625,5.3125004 C 11.654535,7.5262627 11.829164,9.689312 12.28125,11.78125 C 12.511983,11.769574 12.640238,11.761708 12.875,11.75 C 12.839149,9.684106 12.68618,7.6086523 12.71875,5.4687504 C 12.716503,5.4375408 12.716503,5.40621 12.71875,5.3750004 C 12.738579,5.2460159 12.638434,4.9262929 12.125,4.8750004 C 12.114585,4.8752497 12.104165,4.8752497 12.09375,4.8750004 z M 13.125,14 C 12.698028,13.953048 12.263067,14.074952 12.03125,14.28125 C 12.020835,14.281499 12.010415,14.281499 12,14.28125 C 11.726965,14.499721 11.625733,14.778647 11.65625,15 C 11.657248,15.020821 11.657248,15.041679 11.65625,15.0625 C 11.670827,15.29099 11.871364,15.56094 12.25,15.75 C 12.628636,15.93906 13.120154,15.977329 13.5,15.84375 C 13.510415,15.843501 13.520835,15.843501 13.53125,15.84375 C 13.903523,15.739734 14.153507,15.505206 14.25,15.25 C 14.346493,14.994794 14.315828,14.727856 14.125,14.5 C 14.114234,14.489939 14.103811,14.479516 14.09375,14.46875 C 13.921286,14.234401 13.552518,14.047012 13.125,14 z"
       id="path3255"
       style="font-size:62.4582634px;font-style:normal;font-variant:normal;font-weight:normal;font-stretch:normal;text-align:start;line-height:125%;writing-mode:lr-tb;text-anchor:start;fill:#ffffff;fill-opacity:1;stroke:none;stroke-width:1.00079775;stroke-linecap:round;stroke-linejoin:round;stroke-miterlimit:4;stroke-dasharray:none;stroke-opacity:1;font-family:Georgia" />
  </g>
</svg>
