<svg xmlns="http://www.w3.org/2000/svg" xmlns:xlink="http://www.w3.org/1999/xlink" viewBox="0 0 24 24"><defs><linearGradient x1="24" y1="5" x2="24" y2="43" id="l" xlink:href="#a" gradientUnits="userSpaceOnUse" gradientTransform="translate(.973 -7.027) scale(.45946)"/><linearGradient id="a"><stop offset="0" stop-color="#fff"/><stop offset=".063" stop-color="#fff" stop-opacity=".235"/><stop offset=".951" stop-color="#fff" stop-opacity=".157"/><stop offset="1" stop-color="#fff" stop-opacity=".392"/></linearGradient><linearGradient x1="167.983" y1="8.508" x2="167.983" y2="54.78" id="k" xlink:href="#b" gradientUnits="userSpaceOnUse" gradientTransform="translate(-18 -6.667) scale(.33333)"/><linearGradient id="b"><stop offset="0" stop-color="#fffdf3"/><stop offset="1" stop-color="#fbebeb"/></linearGradient><radialGradient cx="8.276" cy="9.994" r="12.672" fx="8.276" fy="9.994" id="j" xlink:href="#c" gradientUnits="userSpaceOnUse" gradientTransform="matrix(0 3.2484 -3.988 0 51.892 -37.15)"/><linearGradient id="c"><stop offset="0" stop-color="#f89b7e"/><stop offset=".262" stop-color="#e35d4f"/><stop offset=".661" stop-color="#c6262e"/><stop offset="1" stop-color="#690b2c"/></linearGradient><radialGradient cx="4.993" cy="43.5" r="2.5" fx="4.993" fy="43.5" id="g" xlink:href="#d" gradientUnits="userSpaceOnUse" gradientTransform="matrix(2.00378 0 0 1.4 27.988 -17.4)"/><linearGradient id="d"><stop offset="0" stop-color="#181818"/><stop offset="1" stop-color="#181818" stop-opacity="0"/></linearGradient><radialGradient cx="4.993" cy="43.5" r="2.5" fx="4.993" fy="43.5" id="h" xlink:href="#e" gradientUnits="userSpaceOnUse" gradientTransform="matrix(2.00378 0 0 1.4 -20.012 -104.4)"/><linearGradient id="e"><stop offset="0" stop-color="#181818"/><stop offset="1" stop-color="#181818" stop-opacity="0"/></linearGradient><linearGradient x1="25.058" y1="47.028" x2="25.058" y2="39.999" id="i" xlink:href="#f" gradientUnits="userSpaceOnUse"/><linearGradient id="f"><stop offset="0" stop-color="#181818" stop-opacity="0"/><stop offset=".5" stop-color="#181818"/><stop offset="1" stop-color="#181818" stop-opacity="0"/></linearGradient></defs><g transform="translate(0 8)"><g opacity=".4"><path fill="url(#g)" d="M38 40h5v7h-5z" transform="matrix(.57895 0 0 .42857 -1.895 -5.143)"/><path transform="matrix(-.57895 0 0 -.42857 -1.895 -5.143)" fill="url(#h)" d="M-10-47h5v7h-5z"/><path fill="url(#i)" d="M10 40h28v7H10z" transform="matrix(.57895 0 0 .42857 -1.895 -5.143)"/></g><rect width="19" height="19" rx="1.087" ry="1.087" x="2.5" y="-5.5" color="#000" fill="url(#j)" overflow="visible"/><path d="M13.625-4.937a.947.947 0 0 0-.438.218C7.154.46 3.834 1.098 2.937 1.16a.947.947 0 0 0-.437.157v6.75a.947.947 0 0 0 .5.156c.857 0 2.262.577 3.625 1.625 1.223.94 2.415 2.248 3.312 3.656h10.47c.602 0 1.093-.49 1.093-1.093v-.5c-.91-2.212-1.584-5.24-2.094-8-.002-.01 0-.02 0-.03-.456-3.52.243-6.62.5-7.624A.947.947 0 0 0 19-4.934h-5.188a.947.947 0 0 0-.187 0zM13.47-.72c-.124.93-.26 1.904-.345 3.126-.177 2.57-.22 5.972-.25 9.563-1.01-1.626-2.49-3.25-4.188-4.63a24.408 24.408 0 0 0-3.093-2.157c-.53-.306-.975-.36-1.438-.53 1.174-.24 2.83-.653 4.78-1.876C10.51 1.797 12.17.43 13.47-.72z" opacity=".15" color="#000" fill="#661215" fill-rule="evenodd" overflow="visible"/><path d="M13.812-4C7.677 1.264 4.166 2.012 3 2.094V3.97c.88-.124 3.082-.526 5.437-2 3.02-1.893 6.657-5.5 6.657-5.5-.972 1.905-1.284 8.42-1.313 17.03h6.63c.2 0 .4-.06.563-.156a.85.85 0 0 0 .03-.25c-1.173-2.42-1.954-5.937-2.53-9.063C17.98.307 18.73-2.95 19-4h-5.187zM3 5.188V7.28c2.435 0 6.088 2.786 8.062 6.22h1.72C11.42 10.16 4.855 5.187 3 5.187z" opacity=".3" color="#000" fill="#661215" fill-rule="evenodd" overflow="visible"/><path d="M13.806-5C7.67.264 4.166 1.008 3 1.09v1.89c.88-.122 3.092-.548 5.447-2.024 3.02-1.89 6.632-5.483 6.632-5.483-.99 1.943-1.28 8.64-1.3 17.5h6.33a.88.88 0 0 0 .89-.887c-1.178-2.42-1.94-5.92-2.52-9.046-.49-3.73.234-6.99.503-8.04h-5.18zM3 4.173v2.095c2.547 0 6.463 3.056 8.357 6.705h1.59c-.89-3.317-8.004-8.8-9.947-8.8z" color="#000" fill="url(#k)" overflow="visible"/><path d="M19.28-4.97C16.87-3.5 8.96.974 3 .407V4.47s13.255 1.976 18-1.94v-6.56a.93.93 0 0 0-.938-.94h-.78zM21 4.22c-2.385 2.375-4.837 5.53-6.47 8.78h1.907c1.32-2.23 3.046-4.676 4.563-6.187V4.22z" opacity=".05" fill-rule="evenodd"/><path opacity=".5" fill="none" stroke="url(#l)" stroke-linecap="round" stroke-linejoin="round" d="M3.5-4.5h17v17h-17z"/><rect width="19" height="19" rx="1.087" ry="1.087" x="2.5" y="-5.5" opacity=".35" color="#000" fill="none" stroke="#410000" stroke-linecap="round" stroke-linejoin="round" overflow="visible"/></g></svg>