<svg xmlns="http://www.w3.org/2000/svg" xmlns:xlink="http://www.w3.org/1999/xlink" viewBox="0 0 24 24"><defs><radialGradient cx="4.993" cy="43.5" r="2.5" fx="4.993" fy="43.5" id="g" xlink:href="#a" gradientUnits="userSpaceOnUse" gradientTransform="matrix(2.00378 0 0 1.4 27.988 -17.4)"/><linearGradient id="a"><stop offset="0" stop-color="#181818"/><stop offset="1" stop-color="#181818" stop-opacity="0"/></linearGradient><radialGradient cx="4.993" cy="43.5" r="2.5" fx="4.993" fy="43.5" id="h" xlink:href="#b" gradientUnits="userSpaceOnUse" gradientTransform="matrix(2.00378 0 0 1.4 -20.012 -104.4)"/><linearGradient id="b"><stop offset="0" stop-color="#181818"/><stop offset="1" stop-color="#181818" stop-opacity="0"/></linearGradient><linearGradient x1="25.058" y1="47.028" x2="25.058" y2="39.999" id="i" xlink:href="#c" gradientUnits="userSpaceOnUse"/><linearGradient id="c"><stop offset="0" stop-color="#181818" stop-opacity="0"/><stop offset=".5" stop-color="#181818"/><stop offset="1" stop-color="#181818" stop-opacity="0"/></linearGradient><linearGradient id="d"><stop offset="0" stop-color="#dcdcdc"/><stop offset="1" stop-color="#fff"/></linearGradient><linearGradient xlink:href="#d" id="k" gradientUnits="userSpaceOnUse" gradientTransform="translate(.22 -.328) scale(.46525)" x1="20" y1="26" x2="20" y2="13"/><linearGradient xlink:href="#d" id="l" gradientUnits="userSpaceOnUse" gradientTransform="translate(-2.454 -4.567) scale(.66257)" x1="20" y1="26" x2="20" y2="13"/><linearGradient id="e"><stop offset="0" stop-color="#505050"/><stop offset=".262" stop-color="#2b2b2b"/><stop offset=".705" stop-color="#0a0a0a"/><stop offset="1"/></linearGradient><radialGradient r="12.672" fy="9.957" fx="7.118" cy="9.957" cx="7.118" gradientTransform="matrix(0 4.45294 -5.4668 0 66.838 -38.125)" gradientUnits="userSpaceOnUse" id="j" xlink:href="#e"/><linearGradient id="f"><stop offset="0" stop-color="#fff"/><stop offset=".063" stop-color="#fff" stop-opacity=".235"/><stop offset=".951" stop-color="#fff" stop-opacity=".157"/><stop offset="1" stop-color="#fff" stop-opacity=".392"/></linearGradient><linearGradient y2="43" x2="24" y1="5" x1="24" gradientTransform="translate(.974 .972) scale(.45946)" gradientUnits="userSpaceOnUse" id="m" xlink:href="#f"/></defs><g opacity=".4"><path fill="url(#g)" d="M38 40h5v7h-5z" transform="matrix(.57895 0 0 .42857 -1.895 2.857)"/><path transform="matrix(-.57895 0 0 -.42857 -1.895 2.857)" fill="url(#h)" d="M-10-47h5v7h-5z"/><path fill="url(#i)" d="M10 40h28v7H10z" transform="matrix(.57895 0 0 .42857 -1.895 2.857)"/></g><rect y="2.5" x="2.5" ry="1" rx="1" height="19" width="19" opacity=".9" color="#000" fill="url(#j)" overflow="visible"/><path style="line-height:125%;-inkscape-font-specification:Open Sans Bold" d="M6.02 5.047a.713.713 0 0 0-.548.68v.285c-.23.092-.487.108-.68.264-.005.004.006.017 0 .022-.003.002-.02-.003-.022 0-.737.593-.768 1.636-.24 2.326a.67.67 0 0 0 .02.022c.097.116.224.127.33.22a.717.717 0 0 0-.68.68v.81c0 .27.17.53.417.638.277.117.57.117.855.175v.17a.717.717 0 0 0 .68.68h.703a.717.717 0 0 0 .68-.68v-.22c.12-.05.265-.05.373-.11.01-.008.013-.02.022-.02.562-.29.984-.84.966-1.54v-.02a1.545 1.545 0 0 0-.286-.925.66.66 0 0 0-.022-.02c-.144-.194-.314-.294-.482-.418a.697.697 0 0 0 .33-.33L8.763 7a.72.72 0 0 0-.373-.922c-.27-.115-.57-.134-.855-.197v-.15a.717.717 0 0 0-.68-.68h-.702a.69.69 0 0 0-.132 0zm.42 2.303c-.02-.007.02.024.066.09.038.053.04.092.044.108-.003.024-.017.154-.132.264-.123.117-.204.113-.175.11l-.02-.11zm.33 1.822v.066l-.198.44a.44.44 0 0 1-.066-.155c0-.01.03-.166.13-.263.104-.097.164-.092.133-.088z" font-size="14.312" font-weight="700" letter-spacing="0" word-spacing="0" opacity=".15" color="#000" overflow="visible" font-family="Open Sans"/><path style="line-height:125%;-inkscape-font-specification:Open Sans Bold" d="M6.153 5.727v.702a1.582 1.582 0 0 0-.944.39c-.43.33-.45.97-.14 1.38.3.365.635.534 1.074.7v.986c-.49-.04-.828-.15-1.273-.35v.81c.445.19.79.277 1.273.286v.702h.7v-.705c.297-.027.485-.1.747-.24.366-.18.633-.55.616-.946a.946.946 0 0 0-.176-.548c-.303-.408-.725-.563-1.184-.748v-.96c.363.03.605.13.943.262l.324-.745c-.43-.185-.803-.288-1.273-.308v-.68zm0 1.514v.75c-.186-.08-.294-.2-.286-.44-.008-.22.098-.28.286-.3zm.702 1.85c.184.09.325.187.33.42.01.24-.122.325-.33.35z" font-size="14.312" font-weight="700" letter-spacing="0" word-spacing="0" opacity=".3" color="#000" overflow="visible" font-family="Open Sans"/><path style="line-height:125%;-inkscape-font-specification:Open Sans Bold" d="M6.153 5.025v.702c-.382.037-.647.15-.944.395-.43.33-.45.973-.14 1.383.3.366.635.536 1.074.702v.987c-.49-.04-.828-.15-1.273-.35v.81c.445.19.79.277 1.273.286v.702h.7V9.94c.297-.026.485-.1.747-.24.366-.18.633-.55.616-.945a.946.946 0 0 0-.176-.548c-.303-.406-.725-.56-1.184-.746V6.5c.363.03.605.13.943.263l.324-.746c-.43-.184-.803-.288-1.273-.307v-.68zm0 1.514v.74c-.186-.08-.294-.21-.286-.44-.008-.22.098-.29.286-.31zm.702 1.84c.184.09.325.18.33.41.01.24-.122.323-.33.35z" font-size="14.312" font-weight="700" letter-spacing="0" word-spacing="0" color="#000" fill="url(#k)" overflow="visible" font-family="Open Sans"/><path d="M8.806 11.087c-.44.093-.784.52-.78.97v1c.007.504.463.96.968.968h4c.505-.008.96-.464.968-.97v-1c-.007-.504-.463-.96-.968-.968h-4a.98.98 0 0 0-.188 0z" style="line-height:125%;-inkscape-font-specification:Open Sans Bold" font-size="14.312" font-weight="700" letter-spacing="0" word-spacing="0" opacity=".15" color="#000" overflow="visible" font-family="Open Sans"/><path d="M8.994 12.056v1h4v-1z" style="line-height:125%;-inkscape-font-specification:Open Sans Bold" font-size="14.312" font-weight="700" letter-spacing="0" word-spacing="0" opacity=".3" color="#000" overflow="visible" font-family="Open Sans"/><path d="M8.994 11.056v1h4v-1z" style="line-height:125%;-inkscape-font-specification:Open Sans Bold" font-size="14.312" font-weight="700" letter-spacing="0" word-spacing="0" color="#000" fill="url(#l)" overflow="visible" font-family="Open Sans"/><path opacity=".3" fill="none" stroke="url(#m)" stroke-linecap="round" stroke-linejoin="round" d="M3.5 3.5h17v17h-17z"/><rect width="19" height="19" rx="1" ry="1" x="2.5" y="2.5" opacity=".7" color="#000" fill="none" stroke="#000" stroke-linecap="round" stroke-linejoin="round" overflow="visible"/></svg>