<?xml version="1.0" encoding="UTF-8" standalone="no"?>
<svg
   xmlns:dc="http://purl.org/dc/elements/1.1/"
   xmlns:cc="http://creativecommons.org/ns#"
   xmlns:rdf="http://www.w3.org/1999/02/22-rdf-syntax-ns#"
   xmlns:svg="http://www.w3.org/2000/svg"
   xmlns="http://www.w3.org/2000/svg"
   xmlns:xlink="http://www.w3.org/1999/xlink"
   id="svg19019"
   height="48"
   width="48"
   version="1.1">
  <defs
     id="defs19021">
    <linearGradient
       gradientTransform="matrix(0.89189031,0,0,1.0580283,3.1206609,5.3536023)"
       gradientUnits="userSpaceOnUse"
       xlink:href="#linearGradient3454-2-8-6-1-1"
       id="linearGradient3381-56-2-7-5-0"
       y2="35.581654"
       x2="42.470848"
       y1="11.952797"
       x1="42.470848" />
    <linearGradient
       id="linearGradient3454-2-8-6-1-1">
      <stop
         offset="0"
         style="stop-color:#ffffff;stop-opacity:1"
         id="stop3456-4-7-9-4-0" />
      <stop
         offset="0.0097359"
         style="stop-color:#ffffff;stop-opacity:0.23529412"
         id="stop3458-39-0-8-61-3" />
      <stop
         offset="0.99001008"
         style="stop-color:#ffffff;stop-opacity:0.15686275"
         id="stop3460-7-5-4-1-6" />
      <stop
         offset="1"
         style="stop-color:#ffffff;stop-opacity:0.39215687"
         id="stop3462-0-5-6-6-2" />
    </linearGradient>
    <linearGradient
       gradientTransform="matrix(1.1446925,0,0,0.9977536,-3.4661379,-15.425119)"
       gradientUnits="userSpaceOnUse"
       xlink:href="#linearGradient6129-963-697-142-998-580-273-0-8-4-9"
       id="linearGradient3072-0-3-0-7"
       y2="36.657963"
       x2="22.809399"
       y1="49.629246"
       x1="22.934725" />
    <linearGradient
       id="linearGradient6129-963-697-142-998-580-273-0-8-4-9">
      <stop
         offset="0"
         style="stop-color:#002e99;stop-opacity:0.7"
         id="stop2661-3-02-4-8" />
      <stop
         offset="1"
         style="stop-color:#002e99;stop-opacity:0"
         id="stop2663-2-8-06-2" />
    </linearGradient>
    <linearGradient
       gradientTransform="matrix(1,0,0,1.0357143,2.0849371e-6,-17.589091)"
       gradientUnits="userSpaceOnUse"
       xlink:href="#linearGradient4632-0-6-4"
       id="linearGradient4638-4-6-8-9"
       y2="43.761127"
       x2="35.792694"
       y1="17.118193"
       x1="35.792694" />
    <linearGradient
       id="linearGradient4632-0-6-4">
      <stop
         offset="0"
         style="stop-color:#8cd5ff;stop-opacity:1"
         id="stop4634-4-4-7" />
      <stop
         offset="1"
         style="stop-color:#64baff;stop-opacity:1"
         id="stop4636-3-1-5" />
    </linearGradient>
    <radialGradient
       gradientTransform="matrix(-0.03079083,0,0,0.02470588,23.389752,15.941639)"
       gradientUnits="userSpaceOnUse"
       xlink:href="#linearGradient5060-820-9-0-7-1"
       id="radialGradient3080-2-3-9-9"
       fy="486.64789"
       fx="605.71429"
       r="117.14286"
       cy="486.64789"
       cx="605.71429" />
    <linearGradient
       id="linearGradient5060-820-9-0-7-1">
      <stop
         offset="0"
         style="stop-color:#000000;stop-opacity:1"
         id="stop2681-5-4-3-6" />
      <stop
         offset="1"
         style="stop-color:#000000;stop-opacity:0"
         id="stop2683-8-6-9-4" />
    </linearGradient>
    <radialGradient
       gradientTransform="matrix(0.03079083,0,0,0.02470588,24.610252,15.941639)"
       gradientUnits="userSpaceOnUse"
       xlink:href="#linearGradient5060-179-2-0-3-6"
       id="radialGradient3083-4-5-6-4"
       fy="486.64789"
       fx="605.71429"
       r="117.14286"
       cy="486.64789"
       cx="605.71429" />
    <linearGradient
       id="linearGradient5060-179-2-0-3-6">
      <stop
         offset="0"
         style="stop-color:#000000;stop-opacity:1"
         id="stop2675-9-9-4-1" />
      <stop
         offset="1"
         style="stop-color:#000000;stop-opacity:0"
         id="stop2677-1-7-2-6" />
    </linearGradient>
    <linearGradient
       gradientTransform="matrix(0.07938856,0,0,0.02470588,-4.6932879,15.941639)"
       gradientUnits="userSpaceOnUse"
       xlink:href="#linearGradient5048-585-4-0-56-2"
       id="linearGradient3086-4-4-0-5"
       y2="609.50507"
       x2="302.85715"
       y1="366.64789"
       x1="302.85715" />
    <linearGradient
       id="linearGradient5048-585-4-0-56-2">
      <stop
         offset="0"
         style="stop-color:#000000;stop-opacity:0"
         id="stop2667-5-0-7-4" />
      <stop
         offset="0.5"
         style="stop-color:#000000;stop-opacity:1"
         id="stop2669-4-1-8-0" />
      <stop
         offset="1"
         style="stop-color:#000000;stop-opacity:0"
         id="stop2671-2-6-3-2" />
    </linearGradient>
    <linearGradient
       gradientTransform="matrix(0.89189031,0,0,1.0580283,3.1206621,-10.646401)"
       gradientUnits="userSpaceOnUse"
       xlink:href="#linearGradient4507-9-2-2-3"
       id="linearGradient3381-5-5-29-4-6"
       y2="34.143417"
       x2="21.37039"
       y1="4.2476678"
       x1="21.37039" />
    <linearGradient
       id="linearGradient4507-9-2-2-3">
      <stop
         offset="0"
         style="stop-color:#ffffff;stop-opacity:1"
         id="stop4509-9-8-4-2" />
      <stop
         offset="0.07395859"
         style="stop-color:#ffffff;stop-opacity:0.23529412"
         id="stop4511-7-50-2-1" />
      <stop
         offset="0.99001008"
         style="stop-color:#ffffff;stop-opacity:0.15686275"
         id="stop4513-2-0-2-9" />
      <stop
         offset="1"
         style="stop-color:#ffffff;stop-opacity:0.39215687"
         id="stop4515-3-9-8-6" />
    </linearGradient>
    <linearGradient
       gradientTransform="translate(-50.940897,-16.000001)"
       gradientUnits="userSpaceOnUse"
       xlink:href="#linearGradient4646-6-91-5-0"
       id="linearGradient3089-5-2-9-8-6-8"
       y2="16"
       x2="62.988873"
       y1="13"
       x1="62.988873" />
    <linearGradient
       id="linearGradient4646-6-91-5-0">
      <stop
         offset="0"
         style="stop-color:#f9f9f9;stop-opacity:1"
         id="stop4648-2-4-6-6" />
      <stop
         offset="1"
         style="stop-color:#d8d8d8;stop-opacity:1"
         id="stop4650-3-8-5-3" />
    </linearGradient>
    <linearGradient
       id="linearGradient3104-8-8-97-4-6-2-0-1-4">
      <stop
         offset="0"
         style="stop-color:#000000;stop-opacity:0.32173914"
         id="stop3106-5-4-3-5-0-1-61-9-2" />
      <stop
         offset="1"
         style="stop-color:#000000;stop-opacity:0.27826086"
         id="stop3108-4-3-7-8-2-4-01-9-9" />
    </linearGradient>
    <linearGradient
       gradientTransform="matrix(0.80749834,0,0,0.83374395,106.87672,-16.069841)"
       gradientUnits="userSpaceOnUse"
       xlink:href="#linearGradient3104-8-8-97-4-6-2-0-1-4"
       id="linearGradient19017"
       y2="3.6336823"
       x2="-51.786404"
       y1="53.514328"
       x1="-51.786404" />
  </defs>
  <metadata
     id="metadata19024">
    <rdf:RDF>
      <cc:Work
         rdf:about="">
        <dc:format>image/svg+xml</dc:format>
        <dc:type
           rdf:resource="http://purl.org/dc/dcmitype/StillImage" />
        <dc:title />
      </cc:Work>
    </rdf:RDF>
  </metadata>
  <g
     id="layer1"
     transform="translate(0,16)">
    <path
       style="opacity:0.8;color:#000000;fill:none;stroke:url(#linearGradient19017);stroke-width:1;stroke-linecap:butt;stroke-linejoin:miter;stroke-miterlimit:4;stroke-opacity:1;stroke-dasharray:none;stroke-dashoffset:0;marker:none;visibility:visible;display:inline;overflow:visible;enable-background:accumulate"
       id="rect4251-0-0-1-1-9"
       d="m 5.5000021,-7.5000005 c -0.554,0 -1,0.446 -1,1 l 0,2 -1,0 c -0.554,0 -1,0.446 -1,1 l 0,6 c 0,0.554 0.446,1 1,1 l 40.9999999,0 c 0.554,0 1,-0.446 1,-1 l 0,-6 c 0,-0.554 -0.446,-1 -1,-1 l -23,0 0,-2 c 0,-0.554 -0.446,-1 -1,-1 l -14.9999999,0 z" />
    <path
       style="color:#000000;fill:url(#linearGradient3089-5-2-9-8-6-8);fill-opacity:1;fill-rule:nonzero;stroke:none;stroke-width:0.99992168;marker:none;visibility:visible;display:inline;overflow:visible;enable-background:accumulate"
       id="rect4251-4-7-62-4"
       d="m 5.5000021,-7.0000005 c -0.277,0 -0.5,0.223 -0.5,0.5 l 0,2.5 -1.5,0 c -0.277,0 -0.5,0.223 -0.5,0.5 l 0,6 c 0,0.277 0.223,0.5 0.5,0.5 l 40.9999999,0 c 0.277,0 0.5,-0.223 0.5,-0.5 l 0,-6 c 0,-0.277 -0.223,-0.5 -0.5,-0.5 l -23.5,0 0,-2.5 c 0,-0.277 -0.223,-0.5 -0.5,-0.5 l -14.9999999,0 z" />
    <path
       style="color:#000000;fill:none;stroke:url(#linearGradient3381-5-5-29-4-6);stroke-width:1;stroke-linecap:round;stroke-linejoin:round;stroke-miterlimit:4;stroke-opacity:1;stroke-dasharray:none;stroke-dashoffset:0;marker:none;visibility:visible;display:inline;overflow:visible;enable-background:accumulate"
       id="rect4251-9-9-0-05-2"
       d="m 5.5000021,-6.5000005 0,3 -2,0 0,7 40.9999999,0 0,-7 -24,0 0,-3 -14.9999999,0 z" />
    <rect
       style="opacity:0.3;fill:url(#linearGradient3086-4-4-0-5);fill-opacity:1;fill-rule:nonzero;stroke:none;stroke-width:1;marker:none;visibility:visible;display:inline;overflow:visible"
       id="rect4173-6-7-7-3"
       y="25"
       x="4.8333774"
       height="6.0000005"
       width="38.333332" />
    <path
       style="opacity:0.3;fill:url(#radialGradient3083-4-5-6-4);fill-opacity:1;fill-rule:nonzero;stroke:none;stroke-width:1;marker:none;visibility:visible;display:inline;overflow:visible"
       id="path5058-7-9-1-3"
       d="m 43.166672,25.000209 c 0,0 0,5.99967 0,5.99967 1.58565,0.0113 3.83333,-1.34422 3.83333,-3.00022 0,-1.656 -1.76947,-2.99945 -3.83333,-2.99945 z" />
    <path
       style="opacity:0.3;fill:url(#radialGradient3080-2-3-9-9);fill-opacity:1;fill-rule:nonzero;stroke:none;stroke-width:1;marker:none;visibility:visible;display:inline;overflow:visible"
       id="path5018-8-1-1-6"
       d="m 4.8333321,25.000209 c 0,0 0,5.99967 0,5.99967 -1.58565,0.0113 -3.83333,-1.34422 -3.83333,-3.00022 0,-1.656 1.76947,-2.99945 3.83333,-2.99945 z" />
    <path
       style="fill:url(#linearGradient4638-4-6-8-9);fill-opacity:1;stroke:none"
       id="path3388-1-43-0-7"
       d="m 2.1626121,-0.49981052 c -1.07231,0.12829 -0.49959,1.45416 -0.58508,2.19974002 0.12444,0.48182 0.92748,26.1764295 0.92748,26.1764295 0,0.7414 0.35172,0.61579 1.24292,0.61579 13.1885599,0 27.7725299,0 40.9610899,0 0.96008,0.0231 0.75718,0.0121 0.75718,-0.62748 0,0 0.99298,-27.35420952 1.0285,-27.78109952 0,-0.44949 0.0902,-0.58338 -0.47316,-0.58338 -14.08405,0 -29.77488,0 -43.8589299,0 z" />
    <path
       style="opacity:0.4;fill:url(#linearGradient3072-0-3-0-7);fill-opacity:1;stroke:none"
       id="path6127-7-1-6-4"
       d="m 2.0582421,-0.45880831 43.8964799,4e-4 c 0.63416,0 1.04515,0.44461 1.04515,0.99737 L 45.967462,27.499331 c 0.0147,0.6994 -0.20909,0.97671 -0.9459,0.96204 l -41.7807199,-0.0176 c -0.63416,0 -1.27363,-0.41276 -1.27363,-0.96551 L 1.0130921,0.53894169 c 0,-0.55276 0.41099,-0.99775 1.04515,-0.99775 z" />
    <path
       style="opacity:0.3;color:#000000;fill:none;stroke:url(#linearGradient3381-56-2-7-5-0);stroke-width:0.98133707;stroke-linecap:round;stroke-linejoin:miter;stroke-miterlimit:4;stroke-opacity:1;stroke-dasharray:none;stroke-dashoffset:0;marker:none;visibility:visible;display:inline;overflow:visible;enable-background:accumulate"
       id="path4587-4-6-3-0"
       transform="matrix(1,0,0,1.0383977,2.0849371e-6,-17.670361)"
       d="m 2.5,17.5 c 0.016793,0.176427 0.022163,0.517935 0.03125,0.875 0.023112,0.08641 0.025524,0.05923 0.03125,0.09375 0.011058,0.06665 0.027034,0.138257 0.03125,0.1875 0.0064,0.07474 -0.00668,0.173042 0,0.28125 0.013352,0.216416 0.045306,0.510844 0.0625,0.875 0.034388,0.728313 0.078083,1.708883 0.125,2.90625 0.093834,2.394734 0.2030642,5.55569 0.3125,8.6875 C 3.3060459,37.481691 3.4883163,43.143759 3.5,43.5 c 0.1225025,0.0036 0.071108,0 0.25,0 l 40.71875,0 c 0.0124,-0.328836 0.253182,-6.426721 0.5,-12.90625 0.126691,-3.325928 0.245386,-6.68527 0.34375,-9.21875 0.04918,-1.26674 0.09434,-2.331501 0.125,-3.09375 0.01322,-0.328618 0.02246,-0.572975 0.03125,-0.78125 L 2.5,17.5 z" />
    <g
       style="opacity:0.3;color:#000000;fill:#ffffff;fill-opacity:1;fill-rule:nonzero;stroke:none;stroke-width:1.70000005;marker:none;visibility:visible;display:inline;overflow:visible;enable-background:accumulate"
       id="g12587-3-4-1"
       transform="translate(15.984372,6.9999995)">
      <path
         style="color:#000000;fill:#ffffff;fill-opacity:1;fill-rule:nonzero;stroke:none;stroke-width:1.70000005;marker:none;visibility:visible;display:inline;overflow:visible;enable-background:accumulate"
         id="path2991-1-1-3"
         d="M 8,0 C 3.5817219,0 0,3.5817221 0,8 c 0,4.418278 3.5817219,8 8,8 4.418278,0 8,-3.581722 8,-8 C 16,3.5817221 12.418278,0 8,0 z m 0,2 c 3.313708,0 6,2.6862915 6,6 0,3.313708 -2.686292,6 -6,6 C 4.6862915,14 2,11.313708 2,8 2,4.6862915 4.6862915,2 8,2 z" />
      <path
         style="color:#000000;fill:#ffffff;fill-opacity:1;fill-rule:nonzero;stroke:none;stroke-width:1.70000005;marker:none;visibility:visible;display:inline;overflow:visible;enable-background:accumulate"
         id="rect3005-5-1-9-2"
         d="M 7,4 7,8 4,8 8,12 12,8 9,8 9,4 z" />
    </g>
    <g
       style="color:#000000;fill:#175785;fill-opacity:0.5521628;fill-rule:nonzero;stroke:none;stroke-width:1.70000005;marker:none;visibility:visible;display:inline;overflow:visible;enable-background:accumulate"
       id="g12587-31-2"
       transform="translate(15.984372,5.9999995)">
      <path
         style="color:#000000;fill:#0d52bf;fill-opacity:1;fill-rule:nonzero;stroke:none;stroke-width:1.70000005;marker:none;visibility:visible;display:inline;overflow:visible;enable-background:accumulate;opacity:0.6"
         id="path2991-3-3"
         d="M 8,0 C 3.5817219,0 0,3.5817221 0,8 c 0,4.418278 3.5817219,8 8,8 4.418278,0 8,-3.581722 8,-8 C 16,3.5817221 12.418278,0 8,0 z m 0,2 c 3.313708,0 6,2.6862915 6,6 0,3.313708 -2.686292,6 -6,6 C 4.6862915,14 2,11.313708 2,8 2,4.6862915 4.6862915,2 8,2 z" />
      <path
         style="color:#000000;fill:#0d52bf;fill-opacity:1;fill-rule:nonzero;stroke:none;stroke-width:1.70000005;marker:none;visibility:visible;display:inline;overflow:visible;enable-background:accumulate;opacity:0.6"
         id="rect3005-5-8-6"
         d="M 7,4 7,8 4,8 8,12 12,8 9,8 9,4 z" />
    </g>
    <path
       style="opacity:0.3;fill:none;stroke:#002e99;stroke-width:1;stroke-linecap:round;stroke-linejoin:round;stroke-miterlimit:4;stroke-opacity:1;stroke-dashoffset:0"
       id="path3388-1-43-0-7-64"
       d="m 2.1626121,-0.49981052 c -1.07231,0.12829 -0.49959,1.45416 -0.58508,2.19974002 0.12444,0.48182 0.92748,26.1764295 0.92748,26.1764295 0,0.7414 0.35172,0.61579 1.24292,0.61579 13.1885599,0 27.7725299,0 40.9610899,0 0.96008,0.0231 0.75718,0.0121 0.75718,-0.62748 0,0 0.99298,-27.35420952 1.0285,-27.78109952 0,-0.44949 0.0902,-0.58338 -0.47316,-0.58338 -14.08405,0 -29.77488,0 -43.8589299,0 z" />
  </g>
</svg>
