<?xml version="1.0" encoding="UTF-8" standalone="no"?>
<!-- Created with Inkscape (http://www.inkscape.org/) -->

<svg
   xmlns:dc="http://purl.org/dc/elements/1.1/"
   xmlns:cc="http://creativecommons.org/ns#"
   xmlns:rdf="http://www.w3.org/1999/02/22-rdf-syntax-ns#"
   xmlns:svg="http://www.w3.org/2000/svg"
   xmlns="http://www.w3.org/2000/svg"
   xmlns:xlink="http://www.w3.org/1999/xlink"
   xmlns:sodipodi="http://sodipodi.sourceforge.net/DTD/sodipodi-0.dtd"
   xmlns:inkscape="http://www.inkscape.org/namespaces/inkscape"
   version="1.0"
   width="48"
   height="48"
   id="svg44406"
   inkscape:version="0.48.2 r9819"
   sodipodi:docname="3.svg">
  <sodipodi:namedview
     pagecolor="#ffffff"
     bordercolor="#666666"
     borderopacity="1"
     objecttolerance="10"
     gridtolerance="10"
     guidetolerance="10"
     inkscape:pageopacity="0"
     inkscape:pageshadow="2"
     inkscape:window-width="640"
     inkscape:window-height="480"
     id="namedview118"
     showgrid="false"
     inkscape:zoom="4.9166667"
     inkscape:cx="44.847458"
     inkscape:cy="15.864407"
     inkscape:window-x="713"
     inkscape:window-y="78"
     inkscape:window-maximized="0"
     inkscape:current-layer="svg44406" />
  <metadata
     id="metadata56">
    <rdf:RDF>
      <cc:Work
         rdf:about="">
        <dc:format>image/svg+xml</dc:format>
        <dc:type
           rdf:resource="http://purl.org/dc/dcmitype/StillImage" />
        <dc:title />
      </cc:Work>
    </rdf:RDF>
  </metadata>
  <defs
     id="defs44408">
    <linearGradient
       id="linearGradient5048-585">
      <stop
         id="stop2667"
         style="stop-color:#000000;stop-opacity:0"
         offset="0" />
      <stop
         id="stop2669"
         style="stop-color:#000000;stop-opacity:1"
         offset="0.5" />
      <stop
         id="stop2671"
         style="stop-color:#000000;stop-opacity:0"
         offset="1" />
    </linearGradient>
    <linearGradient
       id="linearGradient5060-820">
      <stop
         id="stop2681"
         style="stop-color:#000000;stop-opacity:1"
         offset="0" />
      <stop
         id="stop2683"
         style="stop-color:#000000;stop-opacity:0"
         offset="1" />
    </linearGradient>
    <linearGradient
       id="linearGradient8265-821-176-38-919-66-249">
      <stop
         id="stop2687"
         style="stop-color:#ffffff;stop-opacity:0.2"
         offset="0" />
      <stop
         id="stop2689"
         style="stop-color:#ffffff;stop-opacity:0"
         offset="1" />
    </linearGradient>
    <linearGradient
       id="linearGradient3707-319-631-407-324">
      <stop
         id="stop3760"
         style="stop-color:#185f9a;stop-opacity:1"
         offset="0" />
      <stop
         id="stop3762"
         style="stop-color:#599ec9;stop-opacity:1"
         offset="1" />
    </linearGradient>
    <linearGradient
       id="linearGradient2867-449-88-871-390-598-476-591-434-148-57-177">
      <stop
         id="stop3750"
         style="stop-color:#90dbec;stop-opacity:1"
         offset="0" />
      <stop
         id="stop3752"
         style="stop-color:#55c1ec;stop-opacity:1"
         offset="0.26238" />
      <stop
         id="stop3754"
         style="stop-color:#3689e6;stop-opacity:1"
         offset="0.704952" />
      <stop
         id="stop3756"
         style="stop-color:#2b63a0;stop-opacity:1"
         offset="1" />
    </linearGradient>
    <linearGradient
       id="linearGradient3924">
      <stop
         id="stop3926"
         style="stop-color:#ffffff;stop-opacity:1"
         offset="0" />
      <stop
         id="stop3928"
         style="stop-color:#ffffff;stop-opacity:0.23529412"
         offset="0.06316455" />
      <stop
         id="stop3930"
         style="stop-color:#ffffff;stop-opacity:0.15686275"
         offset="0.95056331" />
      <stop
         id="stop3932"
         style="stop-color:#ffffff;stop-opacity:0.39215687"
         offset="1" />
    </linearGradient>
    <radialGradient
       cx="63.969177"
       cy="14.113381"
       r="23.097054"
       fx="63.969177"
       fy="14.113381"
       id="radialGradient3298"
       xlink:href="#linearGradient2867-449-88-871-390-598-476-591-434-148-57-177"
       gradientUnits="userSpaceOnUse"
       gradientTransform="matrix(2.1320974,0,0,1.3842798,-122.509,2.9468578)" />
    <linearGradient
       x1="82.453476"
       y1="45.114193"
       x2="82.453476"
       y2="17.114193"
       id="linearGradient3300"
       xlink:href="#linearGradient3707-319-631-407-324"
       gradientUnits="userSpaceOnUse"
       gradientTransform="translate(-53.765393,-0.1141929)" />
    <radialGradient
       cx="605.71429"
       cy="486.64789"
       r="117.14286"
       fx="605.71429"
       fy="486.64789"
       id="radialGradient3303"
       xlink:href="#linearGradient5060-820"
       gradientUnits="userSpaceOnUse"
       gradientTransform="matrix(-0.03079083,0,0,0.02470588,23.389748,31.941642)" />
    <linearGradient
       x1="302.85715"
       y1="366.64789"
       x2="302.85715"
       y2="609.50507"
       id="linearGradient3309"
       xlink:href="#linearGradient5048-585"
       gradientUnits="userSpaceOnUse"
       gradientTransform="matrix(0.07938856,0,0,0.02470588,-4.693293,31.941642)" />
    <linearGradient
       x1="20.241671"
       y1="16.854635"
       x2="20.241671"
       y2="44.189312"
       id="linearGradient4173"
       xlink:href="#linearGradient3924"
       gradientUnits="userSpaceOnUse" />
    <linearGradient
       x1="62.988873"
       y1="13.182598"
       x2="62.988873"
       y2="16.19013"
       id="linearGradient3312-6"
       xlink:href="#linearGradient6404-5"
       gradientUnits="userSpaceOnUse"
       gradientTransform="translate(-50.940898,0)" />
    <linearGradient
       id="linearGradient6404-5">
      <stop
         id="stop6406-9"
         style="stop-color:#f9f9f9;stop-opacity:1"
         offset="0" />
      <stop
         id="stop6408-5"
         style="stop-color:#c9c9c9;stop-opacity:1"
         offset="1" />
    </linearGradient>
    <linearGradient
       x1="15.251872"
       y1="8.971468"
       x2="15.251872"
       y2="43.271637"
       id="linearGradient4243-3"
       xlink:href="#linearGradient4256-2"
       gradientUnits="userSpaceOnUse" />
    <linearGradient
       id="linearGradient4256-2">
      <stop
         id="stop4258-4"
         style="stop-color:#ffffff;stop-opacity:1"
         offset="0" />
      <stop
         id="stop4260-8"
         style="stop-color:#ffffff;stop-opacity:0.23529412"
         offset="0.07840313" />
      <stop
         id="stop4262-2"
         style="stop-color:#ffffff;stop-opacity:0.15686275"
         offset="0.95056331" />
      <stop
         id="stop4264-3"
         style="stop-color:#ffffff;stop-opacity:0.39215687"
         offset="1" />
    </linearGradient>
    <linearGradient
       x1="11.566265"
       y1="22.292103"
       x2="15.214532"
       y2="33.95525"
       id="linearGradient3051"
       xlink:href="#linearGradient8265-821-176-38-919-66-249"
       gradientUnits="userSpaceOnUse" />
    <linearGradient
       id="linearGradient3707-319-631-407-324-6">
      <stop
         id="stop3760-8"
         style="stop-color:#185f9a;stop-opacity:1"
         offset="0" />
      <stop
         id="stop3762-9"
         style="stop-color:#599ec9;stop-opacity:1"
         offset="1" />
    </linearGradient>
    <linearGradient
       x1="24"
       y1="45.846027"
       x2="24"
       y2="6.0718098"
       id="linearGradient3182"
       xlink:href="#linearGradient3707-319-631-407-324-6"
       gradientUnits="userSpaceOnUse"
       gradientTransform="matrix(0.79978863,0,0,0.80768354,4.8050737,9.5003425)" />
    <linearGradient
       id="linearGradient5060-820-7">
      <stop
         id="stop2681-6"
         style="stop-color:#000000;stop-opacity:1"
         offset="0" />
      <stop
         id="stop2683-5"
         style="stop-color:#000000;stop-opacity:0"
         offset="1" />
    </linearGradient>
    <radialGradient
       r="117.14286"
       fy="486.64789"
       fx="605.71429"
       cy="486.64789"
       cx="605.71429"
       gradientTransform="matrix(0.03079083,0,0,0.02470588,24.568586,31.941642)"
       gradientUnits="userSpaceOnUse"
       id="radialGradient3110"
       xlink:href="#linearGradient5060-820-7"
       inkscape:collect="always" />
  </defs>
  <path
     inkscape:connector-curvature="0"
     d="m 43.125,41.000208 c 0,0 0,5.99967 0,5.99967 1.585652,0.01129 3.833333,-1.344222 3.833333,-3.000221 0,-1.656 -1.769467,-2.999449 -3.833333,-2.999449 z"
     id="path5018-6"
     style="opacity:0.3;fill:url(#radialGradient3110);fill-opacity:1;fill-rule:nonzero;stroke:none;stroke-width:1;marker:none;visibility:visible;display:inline;overflow:visible" />
  <path
     d="m 5.5,8.5 c -0.554,0 -1,0.446 -1,1 l 0,2 -1,0 c -0.554,0 -1,0.446 -1,1 l 0,11 43,0 0,-11 c 0,-0.554 -0.446,-1 -1,-1 l -23,0 0,-2 c 0,-0.554 -0.446,-1 -1,-1 z"
     id="rect4268"
     style="color:#000000;fill:url(#linearGradient3312-6);fill-opacity:1;fill-rule:nonzero;stroke:#bebebe;stroke-width:1.00000012;stroke-linecap:round;stroke-linejoin:round;stroke-miterlimit:4;stroke-opacity:1;stroke-dasharray:none;stroke-dashoffset:0;marker:none;visibility:visible;display:inline;overflow:visible;enable-background:accumulate" />
  <rect
     width="38.333332"
     height="6.0000005"
     x="4.833334"
     y="41"
     id="rect4173"
     style="opacity:0.3;fill:url(#linearGradient3309);fill-opacity:1;fill-rule:nonzero;stroke:none;stroke-width:1;marker:none;visibility:visible;display:inline;overflow:visible" />
  <path
     d="m 4.833334,41.000208 c 0,0 0,5.99967 0,5.99967 -1.5856518,0.01129 -3.8333332,-1.344222 -3.8333332,-3.000221 0,-1.656 1.7694674,-2.999449 3.8333332,-2.999449 z"
     id="path5018"
     style="opacity:0.3;fill:url(#radialGradient3303);fill-opacity:1;fill-rule:nonzero;stroke:none;stroke-width:1;marker:none;visibility:visible;display:inline;overflow:visible" />
  <path
     d="m 5.5,9.5 0,3 -2,0 0,13 41,0 0,-13 -24,0 0,-3 -15,0 z"
     id="rect4306"
     style="color:#000000;fill:none;stroke:url(#linearGradient4243-3);stroke-width:1;stroke-linecap:round;stroke-linejoin:miter;stroke-miterlimit:4;stroke-opacity:1;stroke-dasharray:none;stroke-dashoffset:0;marker:none;visibility:visible;display:inline;overflow:visible;enable-background:accumulate" />
  <path
     d="m 2.1628556,16.525193 c -1.072707,0.123694 -0.49977,1.402118 -0.585297,2.121012 l 0.9278273,25.239602 c 0,0.714864 0.3518537,0.59375 1.2433944,0.59375 l 40.9765777,0 c 0.960443,0.02229 0.757466,0.01162 0.757466,-0.605024 l 1.028886,-26.78684 c 0,-0.433404 0.09019,-0.5625 -0.473341,-0.5625 -14.089374,0 -29.786135,0 -43.8755134,0 z"
     id="path3388"
     style="fill:url(#radialGradient3298);fill-opacity:1;stroke:url(#linearGradient3300);stroke-width:1;stroke-linecap:round;stroke-linejoin:round;stroke-miterlimit:4;stroke-opacity:1;stroke-dashoffset:0" />
  <path
     d="m 2.21875,17.03125 c -0.058164,0.02465 -0.1435585,0.04156 -0.15625,0.0625 -0.020141,0.03323 -0.062834,0.200101 -0.0625,0.46875 6.24e-4,0.501099 0.1794726,1.278666 0.125,2.15625 l 0.03125,0 c 0.2029652,3.805865 0.2914674,7.616397 0.53125,11.375 14.3797,-2.260838 28.687247,-4.415974 42.8125,-6.75 0.251205,-1.100909 0.423388,-2.514003 0.46875,-3.875 0.05136,-1.540882 0.0075,-2.777575 0.03125,-3.40625 -14.478395,0.07186 -29.316865,-0.05144 -43.78125,-0.03125 z"
     id="path3049"
     style="fill:url(#linearGradient3051);fill-opacity:1;stroke:none" />
  <path
     d="m 2.46875,17.5 c 0.01402,0.180248 0.021584,0.540694 0.03125,0.90625 0.062819,0.234442 0.024849,0.208559 0.03125,0.28125 -0.00343,0.04321 0.00535,0.04878 0,0.09375 0.00397,0.05245 0.027036,0.09004 0.03125,0.15625 0.013361,0.209932 0.014052,0.490938 0.03125,0.84375 0.034397,0.705624 0.078079,1.681433 0.125,2.84375 0.093841,2.324634 0.2343105,5.395945 0.34375,8.46875 0.1094395,3.072805 0.2030513,6.163726 0.28125,8.53125 0.071305,2.158805 0.1169238,3.357976 0.125,3.875 0.1275801,0.0035 0.080886,0 0.28125,0 l 40.78125,0 c 6.17e-4,-0.01182 -6.4e-4,-0.01874 0,-0.03125 0.01039,-0.20332 0.01526,-0.504651 0.03125,-0.875 0.03198,-0.740699 0.07643,-1.785256 0.125,-3.03125 0.09714,-2.491988 0.221461,-5.760482 0.34375,-9.0625 0.122289,-3.302018 0.250877,-6.619228 0.34375,-9.125 0.04644,-1.252886 0.06487,-2.309184 0.09375,-3.0625 0.01295,-0.337739 0.02279,-0.603665 0.03125,-0.8125 l -43.03125,0 z"
     transform="matrix(0.99927378,0,0,0.99994077,0.0330429,0.00103659)"
     id="path4161"
     style="opacity:0.5;fill:none;stroke:url(#linearGradient4173);stroke-width:1.00039303;stroke-linecap:round;stroke-linejoin:round;stroke-miterlimit:4;stroke-opacity:1;stroke-dashoffset:0" />
  <path
     d="m 23.999999,21.000228 c -5.388018,0 -10.333705,1.859726 -14.2712285,4.972302 l 2.1244395,2.39781 c 3.365036,-2.598587 7.583507,-4.139377 12.146789,-4.139377 4.563281,0 8.781754,1.54079 12.146791,4.139377 l 2.124439,-2.39781 c -3.937524,-3.112576 -8.883212,-4.972302 -14.27123,-4.972302 z m 0,5.653784 c -3.947793,0 -7.586566,1.316502 -10.52222,3.533617 l 2.149433,2.42305 c 2.361228,-1.711258 5.244668,-2.725932 8.372787,-2.725932 3.128119,0 6.011559,1.014674 8.372786,2.725932 l 2.149434,-2.42305 c -2.935656,-2.217115 -6.574427,-3.533617 -10.52222,-3.533617 z m 0,5.653786 c -2.509629,0 -4.822265,0.789675 -6.748217,2.120169 l 2.149431,2.42305 c 1.338455,-0.830749 2.912535,-1.312486 4.598786,-1.312486 1.686251,0 3.26033,0.481737 4.598784,1.312486 l 2.149432,-2.42305 c -1.925953,-1.330494 -4.238586,-2.120169 -6.748216,-2.120169 z m 0,5.653784 c -1.064122,0 -2.066401,0.267839 -2.949221,0.731963 L 23.999999,42 26.949221,38.693545 C 26.0664,38.229421 25.064122,37.961582 23.999999,37.961582 z"
     id="path3897-7-4"
     style="opacity:0.3;color:#000000;fill:#ffffff;fill-opacity:1;fill-rule:nonzero;stroke:none;stroke-width:2;marker:none;visibility:visible;display:inline;overflow:visible;enable-background:accumulate"
     inkscape:connector-curvature="0" />
  <path
     d="m 23.999999,20.000228 c -5.388018,0 -10.333705,1.859726 -14.2712285,4.972302 l 2.1244395,2.39781 c 3.365036,-2.598587 7.583507,-4.139377 12.146789,-4.139377 4.563281,0 8.781754,1.54079 12.146791,4.139377 l 2.124439,-2.39781 c -3.937524,-3.112576 -8.883212,-4.972302 -14.27123,-4.972302 z m 0,5.653784 c -3.947793,0 -7.586566,1.316502 -10.52222,3.533617 l 2.149433,2.42305 c 2.361228,-1.711258 5.244668,-2.725932 8.372787,-2.725932 3.128119,0 6.011559,1.014674 8.372786,2.725932 l 2.149434,-2.42305 c -2.935656,-2.217115 -6.574427,-3.533617 -10.52222,-3.533617 z m 0,5.653786 c -2.509629,0 -4.822265,0.789675 -6.748217,2.120169 l 2.149431,2.42305 c 1.338455,-0.830749 2.912535,-1.312486 4.598786,-1.312486 1.686251,0 3.26033,0.481737 4.598784,1.312486 l 2.149432,-2.42305 c -1.925953,-1.330494 -4.238586,-2.120169 -6.748216,-2.120169 z m 0,5.653784 c -1.064122,0 -2.066401,0.267839 -2.949221,0.731963 L 23.999999,41 26.949221,37.693545 C 26.0664,37.229421 25.064122,36.961582 23.999999,36.961582 z"
     id="path3897-7"
     style="color:#000000;fill:url(#linearGradient3182);fill-opacity:1;fill-rule:nonzero;stroke:none;stroke-width:2;marker:none;visibility:visible;display:inline;overflow:visible;enable-background:accumulate"
     inkscape:connector-curvature="0" />
  <path
     d="m 10,25.477049 c 0,0 5.205896,-4.875976 13.900375,-4.875976 C 32.638873,20.601073 38,25.467466 38,25.467466"
     id="path3360"
     style="opacity:0.1;fill:none;stroke:#000000;stroke-width:1;stroke-linecap:butt;stroke-linejoin:miter;stroke-miterlimit:4;stroke-opacity:1;stroke-dasharray:none"
     inkscape:connector-curvature="0" />
  <path
     d="m 13.734665,29.749164 c 0,0 3.892939,-3.39883 10.200312,-3.39883 6.33931,0 10.330357,3.47267 10.330357,3.47267"
     id="path3362"
     style="opacity:0.1;fill:none;stroke:#000000;stroke-width:1;stroke-linecap:butt;stroke-linejoin:miter;stroke-miterlimit:4;stroke-opacity:1;stroke-dasharray:none"
     inkscape:connector-curvature="0" />
  <path
     d="m 17.525773,34.006473 c 0,0 1.953151,-2.002353 6.394678,-2.002353 4.468904,0 6.553776,2.057738 6.553776,2.057738"
     id="path3364"
     style="opacity:0.1;fill:none;stroke:#000000;stroke-width:1;stroke-linecap:butt;stroke-linejoin:miter;stroke-miterlimit:4;stroke-opacity:1;stroke-dasharray:none"
     inkscape:connector-curvature="0" />
  <path
     d="m 21.327768,38.24955 c 0,0 0.73162,-0.677512 2.645224,-0.677512 1.9254,0 2.69924,0.659298 2.69924,0.659298"
     id="path3366"
     style="opacity:0.1;fill:none;stroke:#000000;stroke-width:1.00000012;stroke-linecap:butt;stroke-linejoin:miter;stroke-miterlimit:4;stroke-opacity:1;stroke-dasharray:none"
     inkscape:connector-curvature="0" />
</svg>
