<?xml version="1.0" encoding="UTF-8" standalone="no"?>
<!-- Created with Inkscape (http://www.inkscape.org/) -->
<svg
   xmlns:dc="http://purl.org/dc/elements/1.1/"
   xmlns:cc="http://creativecommons.org/ns#"
   xmlns:rdf="http://www.w3.org/1999/02/22-rdf-syntax-ns#"
   xmlns:svg="http://www.w3.org/2000/svg"
   xmlns="http://www.w3.org/2000/svg"
   xmlns:xlink="http://www.w3.org/1999/xlink"
   xmlns:sodipodi="http://sodipodi.sourceforge.net/DTD/sodipodi-0.dtd"
   xmlns:inkscape="http://www.inkscape.org/namespaces/inkscape"
   width="48px"
   height="48px"
   id="svg4171"
   sodipodi:version="0.32"
   inkscape:version="0.46"
   sodipodi:docname="folder-video.svg"
   inkscape:output_extension="org.inkscape.output.svg.inkscape">
  <defs
     id="defs4173">
    <radialGradient
       inkscape:collect="always"
       xlink:href="#linearGradient5060"
       id="radialGradient2862"
       gradientUnits="userSpaceOnUse"
       gradientTransform="matrix(-3.8168578e-2,0,0,1.5096508e-2,47.820891,38.732952)"
       cx="605.71429"
       cy="486.64789"
       fx="605.71429"
       fy="486.64789"
       r="117.14286" />
    <linearGradient
       inkscape:collect="always"
       id="linearGradient5060">
      <stop
         style="stop-color:black;stop-opacity:1;"
         offset="0"
         id="stop5062" />
      <stop
         style="stop-color:black;stop-opacity:0;"
         offset="1"
         id="stop5064" />
    </linearGradient>
    <radialGradient
       inkscape:collect="always"
       xlink:href="#linearGradient5060"
       id="radialGradient2865"
       gradientUnits="userSpaceOnUse"
       gradientTransform="matrix(3.8168578e-2,0,0,1.5096508e-2,20.245478,38.732952)"
       cx="605.71429"
       cy="486.64789"
       fx="605.71429"
       fy="486.64789"
       r="117.14286" />
    <linearGradient
       id="linearGradient5048">
      <stop
         style="stop-color:black;stop-opacity:0;"
         offset="0"
         id="stop5050" />
      <stop
         id="stop5056"
         offset="0.5"
         style="stop-color:black;stop-opacity:1;" />
      <stop
         style="stop-color:black;stop-opacity:0;"
         offset="1"
         id="stop5052" />
    </linearGradient>
    <linearGradient
       inkscape:collect="always"
       xlink:href="#linearGradient5048"
       id="linearGradient2868"
       gradientUnits="userSpaceOnUse"
       gradientTransform="matrix(3.8168578e-2,0,0,1.5096508e-2,20.237967,38.732952)"
       x1="302.85715"
       y1="366.64789"
       x2="302.85715"
       y2="609.50507" />
    <linearGradient
       id="linearGradient3484">
      <stop
         id="stop3486"
         offset="0"
         style="stop-color:#bdbdbd;stop-opacity:1" />
      <stop
         id="stop3488"
         offset="1"
         style="stop-color:#d0d0d0;stop-opacity:1" />
    </linearGradient>
    <radialGradient
       inkscape:collect="always"
       xlink:href="#linearGradient3484"
       id="radialGradient3470"
       gradientUnits="userSpaceOnUse"
       gradientTransform="matrix(-1.274898e-8,1.7142916,-2.159331,-1.4599595e-8,12.809361,2.8570011)"
       cx="3"
       cy="5.01718"
       fx="3"
       fy="5.01718"
       r="21" />
    <linearGradient
       id="linearGradient6404">
      <stop
         style="stop-color:#f9f9f9;stop-opacity:1;"
         offset="0"
         id="stop6406" />
      <stop
         style="stop-color:#c9c9c9;stop-opacity:1;"
         offset="1"
         id="stop6408" />
    </linearGradient>
    <linearGradient
       inkscape:collect="always"
       xlink:href="#linearGradient6404"
       id="linearGradient3482"
       x1="62.988873"
       y1="13.182598"
       x2="62.988873"
       y2="16.19013"
       gradientUnits="userSpaceOnUse"
       gradientTransform="translate(-50.940898,0)" />
    <linearGradient
       id="linearGradient5060-820"
       inkscape:collect="always">
      <stop
         id="stop2681"
         offset="0"
         style="stop-color:#000000;stop-opacity:1;" />
      <stop
         id="stop2683"
         offset="1"
         style="stop-color:#000000;stop-opacity:0;" />
    </linearGradient>
    <radialGradient
       inkscape:collect="always"
       xlink:href="#linearGradient5060-820"
       id="radialGradient7600-312"
       gradientUnits="userSpaceOnUse"
       gradientTransform="matrix(-3.2129558e-2,0,0,3.7058823e-2,23.363215,25.412461)"
       cx="605.71429"
       cy="486.64789"
       fx="605.71429"
       fy="486.64789"
       r="117.14286" />
    <linearGradient
       id="linearGradient5060-179"
       inkscape:collect="always">
      <stop
         id="stop2675"
         offset="0"
         style="stop-color:#000000;stop-opacity:1;" />
      <stop
         id="stop2677"
         offset="1"
         style="stop-color:#000000;stop-opacity:0;" />
    </linearGradient>
    <radialGradient
       inkscape:collect="always"
       xlink:href="#linearGradient5060-179"
       id="radialGradient7598-526"
       gradientUnits="userSpaceOnUse"
       gradientTransform="matrix(3.2129565e-2,0,0,3.7058823e-2,24.636785,25.412461)"
       cx="605.71429"
       cy="486.64789"
       fx="605.71429"
       fy="486.64789"
       r="117.14286" />
    <linearGradient
       id="linearGradient5048-585">
      <stop
         id="stop2667"
         offset="0"
         style="stop-color:#000000;stop-opacity:0;" />
      <stop
         style="stop-color:#000000;stop-opacity:1;"
         offset="0.5"
         id="stop2669" />
      <stop
         id="stop2671"
         offset="1"
         style="stop-color:#000000;stop-opacity:0;" />
    </linearGradient>
    <linearGradient
       inkscape:collect="always"
       xlink:href="#linearGradient5048-585"
       id="linearGradient7596-975"
       gradientUnits="userSpaceOnUse"
       gradientTransform="matrix(8.2840237e-2,0,0,3.7058823e-2,-5.9408285,25.412461)"
       x1="302.85715"
       y1="366.64789"
       x2="302.85715"
       y2="609.50507" />
    <linearGradient
       inkscape:collect="always"
       id="linearGradient3390">
      <stop
         style="stop-color:#425e7b;stop-opacity:1"
         offset="0"
         id="stop3392" />
      <stop
         style="stop-color:#7a91a7;stop-opacity:1"
         offset="1"
         id="stop3394" />
    </linearGradient>
    <linearGradient
       inkscape:collect="always"
       xlink:href="#linearGradient3390"
       id="linearGradient3412"
       x1="82.453476"
       y1="45.114193"
       x2="65.340263"
       y2="15.943953"
       gradientUnits="userSpaceOnUse"
       gradientTransform="translate(-53.765393,-0.1141929)" />
    <linearGradient
       id="linearGradient7012-661-145-733-759-865-745">
      <stop
         id="stop2699"
         offset="0"
         style="stop-color:#9cbbd9;stop-opacity:1;" />
      <stop
         id="stop2701"
         offset="1"
         style="stop-color:#5c82ab;stop-opacity:1;" />
    </linearGradient>
    <radialGradient
       inkscape:collect="always"
       xlink:href="#linearGradient7012-661-145-733-759-865-745"
       id="radialGradient3404"
       cx="63.969177"
       cy="14.113381"
       fx="63.969177"
       fy="14.113381"
       r="23.097054"
       gradientTransform="matrix(1.5646925,-9.5143002e-8,6.1772287e-8,1.015888,-86.212573,8.1461173)"
       gradientUnits="userSpaceOnUse" />
    <linearGradient
       id="linearGradient6129-963-697-142-998-580-273"
       inkscape:collect="always">
      <stop
         id="stop2661"
         offset="0"
         style="stop-color:#0a0a0a;stop-opacity:0.498" />
      <stop
         id="stop2663"
         offset="1"
         style="stop-color:#0a0a0a;stop-opacity:0;" />
    </linearGradient>
    <linearGradient
       inkscape:collect="always"
       xlink:href="#linearGradient6129-963-697-142-998-580-273"
       id="linearGradient6462-657-405"
       gradientUnits="userSpaceOnUse"
       gradientTransform="matrix(1.1446925,0,0,0.9977536,-3.4661413,1.0988425)"
       x1="22.934725"
       y1="49.629246"
       x2="22.809399"
       y2="36.657963" />
    <linearGradient
       id="linearGradient6087-437-184-795-110-662-495">
      <stop
         id="stop2693"
         offset="0"
         style="stop-color:#ffffff;stop-opacity:1;" />
      <stop
         id="stop2695"
         offset="1"
         style="stop-color:#ffffff;stop-opacity:0;" />
    </linearGradient>
    <radialGradient
       inkscape:collect="always"
       xlink:href="#linearGradient6087-437-184-795-110-662-495"
       id="radialGradient2442-940-759"
       gradientUnits="userSpaceOnUse"
       gradientTransform="matrix(0,1.2079744,-1.6271642,0,26.371748,8.2664685)"
       cx="7.2646537"
       cy="8.3021259"
       fx="7.2646537"
       fy="8.3021259"
       r="20.979567" />
    <linearGradient
       id="linearGradient8265-821-176-38-919-66-249"
       inkscape:collect="always">
      <stop
         id="stop2687"
         offset="0"
         style="stop-color:#ffffff;stop-opacity:1;" />
      <stop
         id="stop2689"
         offset="1"
         style="stop-color:#ffffff;stop-opacity:0;" />
    </linearGradient>
    <linearGradient
       inkscape:collect="always"
       xlink:href="#linearGradient8265-821-176-38-919-66-249"
       id="linearGradient3466"
       gradientUnits="userSpaceOnUse"
       x1="11.566265"
       y1="22.292103"
       x2="15.214532"
       y2="33.95525" />
    <radialGradient
       inkscape:collect="always"
       xlink:href="#linearGradient259"
       id="radialGradient2859"
       gradientUnits="userSpaceOnUse"
       gradientTransform="matrix(0.604915,0,0,0.6352731,18.358372,18.275372)"
       cx="33.966679"
       cy="35.736916"
       fx="33.966679"
       fy="35.736916"
       r="86.70845" />
    <linearGradient
       id="linearGradient259">
      <stop
         id="stop260"
         offset="0"
         style="stop-color:#828282;stop-opacity:1;" />
      <stop
         id="stop261"
         offset="1"
         style="stop-color:#434343;stop-opacity:1;" />
    </linearGradient>
    <radialGradient
       inkscape:collect="always"
       xlink:href="#linearGradient259"
       id="radialGradient2856"
       gradientUnits="userSpaceOnUse"
       gradientTransform="matrix(0.5584265,0,0,0.6348649,20.368606,18.276457)"
       cx="33.966679"
       cy="35.736916"
       fx="33.966679"
       fy="35.736916"
       r="86.70845" />
    <linearGradient
       id="linearGradient3522">
      <stop
         style="stop-color:#81aac3;stop-opacity:1;"
         offset="0"
         id="stop3524" />
      <stop
         style="stop-color:#4e82a3;stop-opacity:1;"
         offset="1"
         id="stop3526" />
    </linearGradient>
    <linearGradient
       inkscape:collect="always"
       xlink:href="#linearGradient3522"
       id="linearGradient2853"
       gradientUnits="userSpaceOnUse"
       gradientTransform="matrix(1.2141571,0,0,1.1790293,18.567016,19.376462)"
       x1="12.872127"
       y1="5.0561161"
       x2="12.872127"
       y2="18.911581" />
    <linearGradient
       id="linearGradient3695-152-472">
      <stop
         style="stop-color:#c8e8ff;stop-opacity:1"
         offset="0"
         id="stop4026" />
      <stop
         style="stop-color:#afc6df;stop-opacity:1;"
         offset="1"
         id="stop4028" />
    </linearGradient>
    <linearGradient
       inkscape:collect="always"
       xlink:href="#linearGradient3695-152-472"
       id="linearGradient3701-746-33"
       x1="33.08778"
       y1="20"
       x2="33.08778"
       y2="45.502644"
       gradientUnits="userSpaceOnUse" />
  </defs>
  <sodipodi:namedview
     id="base"
     pagecolor="#ffffff"
     bordercolor="#666666"
     borderopacity="1.0"
     inkscape:pageopacity="0.0"
     inkscape:pageshadow="2"
     inkscape:zoom="7"
     inkscape:cx="24"
     inkscape:cy="24"
     inkscape:current-layer="layer1"
     showgrid="true"
     inkscape:grid-bbox="true"
     inkscape:document-units="px"
     inkscape:window-width="640"
     inkscape:window-height="679"
     inkscape:window-x="0"
     inkscape:window-y="134" />
  <metadata
     id="metadata4176">
    <rdf:RDF>
      <cc:Work
         rdf:about="">
        <dc:format>image/svg+xml</dc:format>
        <dc:type
           rdf:resource="http://purl.org/dc/dcmitype/StillImage" />
      </cc:Work>
    </rdf:RDF>
  </metadata>
  <g
     id="layer1"
     inkscape:label="Layer 1"
     inkscape:groupmode="layer">
    <g
       id="g2872"
       style="opacity:0.40000000000000002">
      <rect
         style="opacity:0.40206185000000000;fill:url(#linearGradient2868);fill-opacity:1;fill-rule:nonzero;stroke:none;stroke-width:1;stroke-linecap:round;stroke-linejoin:miter;marker:none;marker-start:none;marker-mid:none;marker-end:none;stroke-miterlimit:4;stroke-dasharray:none;stroke-dashoffset:0;stroke-opacity:1;visibility:visible;display:inline;overflow:visible"
         id="rect2768"
         width="18.429968"
         height="3.6662951"
         x="24.818197"
         y="44.268055" />
      <path
         style="opacity:0.40206185000000000;fill:url(#radialGradient2865);fill-opacity:1;fill-rule:nonzero;stroke:none;stroke-width:1;stroke-linecap:round;stroke-linejoin:miter;marker:none;marker-start:none;marker-mid:none;marker-end:none;stroke-miterlimit:4;stroke-dasharray:none;stroke-dashoffset:0;stroke-opacity:1;visibility:visible;display:inline;overflow:visible"
         d="M 43.248167,44.268181 C 43.248167,44.268181 43.248167,47.934273 43.248167,47.934273 C 45.213754,47.941175 48.000001,47.112889 48,46.100991 C 48,45.089095 45.806552,44.268181 43.248167,44.268181 z"
         id="path2770"
         sodipodi:nodetypes="cccc" />
      <path
         sodipodi:nodetypes="cccc"
         id="path2772"
         d="M 24.818197,44.268181 C 24.818197,44.268181 24.818197,47.934273 24.818197,47.934273 C 22.852609,47.941175 20.066363,47.112889 20.066363,46.100991 C 20.066363,45.089095 22.25981,44.268181 24.818197,44.268181 z"
         style="opacity:0.40206185000000000;fill:url(#radialGradient2862);fill-opacity:1;fill-rule:nonzero;stroke:none;stroke-width:1;stroke-linecap:round;stroke-linejoin:miter;marker:none;marker-start:none;marker-mid:none;marker-end:none;stroke-miterlimit:4;stroke-dasharray:none;stroke-dashoffset:0;stroke-opacity:1;visibility:visible;display:inline;overflow:visible" />
      <rect
         y="43.850159"
         x="24.272263"
         height="1.1327641"
         width="1.1348009"
         id="rect3482"
         style="fill:#ffffff;fill-opacity:1;stroke:none;stroke-width:0.99938755999999995;stroke-linecap:butt;stroke-linejoin:miter;stroke-miterlimit:4;stroke-dasharray:none;stroke-dashoffset:0;stroke-opacity:1" />
      <rect
         y="43.850159"
         x="42.65604"
         height="1.1327641"
         width="1.1348009"
         id="rect2579"
         style="fill:#ffffff;fill-opacity:1;stroke:none;stroke-width:0.99938755999999995;stroke-linecap:butt;stroke-linejoin:miter;stroke-miterlimit:4;stroke-dasharray:none;stroke-dashoffset:0;stroke-opacity:1" />
    </g>
    <path
       style="opacity:1;fill:url(#linearGradient3482);fill-opacity:1;stroke:url(#radialGradient3470);stroke-width:1.00000011999999994;stroke-linecap:round;stroke-linejoin:round;stroke-miterlimit:4;stroke-dasharray:none;stroke-opacity:1;display:inline"
       d="M 5.4999991,8.4999995 C 4.8097281,8.5076711 4.4999991,8.8421456 4.4999991,9.4999995 L 4.4999991,11.506647 L 3.4999991,11.506647 C 2.8097271,11.514319 2.5000001,11.848794 2.5000001,12.506647 C 2.5344111,22.796692 2.5128551,33.22103 2.5000001,43.5 C 41.409595,43.5 45.499998,38.717662 45.499998,18.958166 L 45.499998,12.506647 C 45.499998,11.848794 44.945794,11.498976 44.255519,11.506647 L 21.499999,11.506647 L 21.499999,9.4999995 C 21.499999,8.8421456 21.19027,8.492328 20.499999,8.4999995 L 5.4999991,8.4999995 z"
       id="path3468"
       sodipodi:nodetypes="ccccccccccccc"
       inkscape:transform-center-x="-22.793602"
       inkscape:transform-center-y="-23.577396" />
    <g
       id="g7591"
       style="opacity:0.40000000000000002"
       transform="matrix(0.9583333,0,0,0.6666667,1.0000008,15)">
      <rect
         id="rect4173"
         x="4"
         y="39"
         width="40"
         height="9"
         style="opacity:1;fill:url(#linearGradient7596-975);fill-opacity:1;fill-rule:nonzero;stroke:none;stroke-width:1;stroke-linecap:round;stroke-linejoin:miter;marker:none;marker-start:none;marker-mid:none;marker-end:none;stroke-miterlimit:4;stroke-dasharray:none;stroke-dashoffset:0;stroke-opacity:1;visibility:visible;display:inline;overflow:visible" />
      <path
         d="M 44,39.00031 C 44,39.00031 44,47.999814 44,47.999814 C 45.654593,48.016755 48.000001,45.983481 48,43.499483 C 48,41.015484 46.153598,39.00031 44,39.00031 z"
         id="path5058"
         style="opacity:1;fill:url(#radialGradient7598-526);fill-opacity:1;fill-rule:nonzero;stroke:none;stroke-width:1;stroke-linecap:round;stroke-linejoin:miter;marker:none;marker-start:none;marker-mid:none;marker-end:none;stroke-miterlimit:4;stroke-dasharray:none;stroke-dashoffset:0;stroke-opacity:1;visibility:visible;display:inline;overflow:visible"
         sodipodi:nodetypes="cccc" />
      <path
         id="path5018"
         d="M 4,39.00031 C 4,39.00031 4,47.999814 4,47.999814 C 2.3454068,48.016755 0,45.983481 0,43.499483 C 0,41.015484 1.8464008,39.00031 4,39.00031 z"
         style="opacity:1;fill:url(#radialGradient7600-312);fill-opacity:1;fill-rule:nonzero;stroke:none;stroke-width:1;stroke-linecap:round;stroke-linejoin:miter;marker:none;marker-start:none;marker-mid:none;marker-end:none;stroke-miterlimit:4;stroke-dasharray:none;stroke-dashoffset:0;stroke-opacity:1;visibility:visible;display:inline;overflow:visible"
         sodipodi:nodetypes="cccc" />
    </g>
    <path
       style="opacity:1;fill:url(#radialGradient3404);fill-opacity:1;stroke:url(#linearGradient3412);stroke-width:1;stroke-linecap:round;stroke-linejoin:round;stroke-miterlimit:4;stroke-dashoffset:0;stroke-opacity:1"
       d="M 2.1628556,16.525193 C 1.0901486,16.648887 1.6630856,17.927311 1.5775586,18.646205 C 1.9700906,27.116295 2.3664906,35.41566 2.7566056,43.885807 C 3.0984416,44.8515 4.3510406,44.356967 5.1447226,44.479557 C 18.338267,44.479557 31.531812,44.479557 44.725358,44.479557 C 45.814738,44.372906 45.361818,43.071876 45.515058,42.327295 C 45.907598,33.857205 46.303998,25.55784 46.694108,17.087693 C 46.442938,16.133404 45.174598,16.663679 44.430985,16.525193 C 30.341611,16.525193 16.252234,16.525193 2.1628556,16.525193 z"
       id="path3388"
       sodipodi:nodetypes="ccccccccc" />
    <path
       sodipodi:nodetypes="ccccccccc"
       id="path6127"
       d="M 2.0582428,16.065146 L 45.954718,16.065549 C 46.588878,16.065549 46.999873,16.51016 46.999873,17.062916 L 45.755637,44.002247 C 45.755637,44.555002 45.245105,45 44.610947,45 L 3.4020122,45 C 2.7678523,45 2.2573195,44.555002 2.2573195,44.002247 L 1.0130886,17.0629 C 1.0130886,16.510143 1.4240829,16.065146 2.0582428,16.065146 z"
       style="opacity:0.40000000000000002;fill:url(#linearGradient6462-657-405);fill-opacity:1;stroke:none;stroke-width:1;stroke-linecap:round;stroke-linejoin:round;stroke-miterlimit:4;stroke-dashoffset:0;stroke-opacity:1" />
    <path
       style="opacity:0.40000000000000002;fill:none;fill-rule:evenodd;stroke:url(#radialGradient2442-940-759);stroke-width:0.99999976000000002;stroke-linecap:round;stroke-linejoin:round;stroke-miterlimit:4;stroke-dasharray:none;stroke-opacity:1"
       d="M 46.5,17.5 C 32.96875,17.5 16.03125,17.5 2.5,17.5 C 2.8854167,25.677083 3.2708333,33.854167 3.65625,42.03125"
       id="path2435"
       sodipodi:nodetypes="ccc" />
    <path
       style="opacity:0.20000000000000001;fill:url(#linearGradient3466);fill-opacity:1;stroke:none;stroke-width:1;stroke-linecap:round;stroke-linejoin:round;stroke-miterlimit:4;stroke-dashoffset:0;stroke-opacity:1"
       d="M 45.75,16 C 31.20041,16.073348 16.645416,15.978851 2.09375,16 C 0.28698984,16.411117 1.2593433,18.46661 1.1213236,19.771525 C 1.3433531,23.934872 1.4443903,28.116464 1.7417851,32.268407 C 2.2875034,32.818798 3.1445791,32.275781 3.8320543,32.274247 C 18.023453,29.922415 32.214851,27.570582 46.40625,25.21875 C 47.325421,24.239146 46.684707,22.397997 46.988341,21.089185 C 46.970917,19.577063 47.32392,18.269569 47.063607,16.789526 C 46.834471,16.284964 46.276599,15.988682 45.75,16 z"
       id="path3455"
       sodipodi:nodetypes="ccccccccc" />
    <path
       style="fill:url(#radialGradient2859);fill-opacity:1;fill-rule:nonzero;stroke:#333333;stroke-width:1;stroke-linecap:butt;stroke-linejoin:miter;marker:none;marker-start:none;marker-mid:none;marker-end:none;stroke-miterlimit:4;stroke-dasharray:none;stroke-dashoffset:0;stroke-opacity:1;visibility:visible;display:block;overflow:visible"
       d="M 26.495563,45.469021 C 25.218826,45.469021 23.942089,45.469021 22.665351,45.469021 C 22.355026,45.173382 22.591002,44.586414 22.517267,44.167872 C 22.517267,36.326521 22.517267,28.485166 22.517267,20.643815 L 22.560546,20.542274 L 22.665351,20.500344 L 22.665351,20.500344 C 23.994176,20.500344 25.114654,20.500344 26.443478,20.500344"
       id="path3385" />
    <path
       style="fill:url(#radialGradient2856);fill-opacity:1;fill-rule:nonzero;stroke:#333333;stroke-width:1;stroke-linecap:butt;stroke-linejoin:miter;marker:none;marker-start:none;marker-mid:none;marker-end:none;stroke-miterlimit:4;stroke-dasharray:none;stroke-dashoffset:0;stroke-opacity:1;visibility:visible;display:block;overflow:visible"
       d="M 40.833332,20.5 C 42.010962,20.5 43.183558,20.5 44.347353,20.5 C 44.633833,20.795452 44.415992,21.382046 44.484058,21.800315 C 44.484058,29.636633 44.494089,37.405916 44.494089,45.242235 C 44.494089,45.587387 43.923944,45.486165 43.244279,45.486165 C 42.450489,45.486165 41.6567,45.452647 40.862911,45.452647"
       id="rect15391"
       sodipodi:nodetypes="cccccc" />
    <rect
       style="fill:url(#linearGradient2853);fill-opacity:1;stroke:#333333;stroke-width:0.99999994000000003;stroke-linecap:butt;stroke-linejoin:miter;stroke-miterlimit:4;stroke-dasharray:none;stroke-dashoffset:0;stroke-opacity:1;display:inline"
       id="rect3457"
       width="14"
       height="24.999998"
       x="26.5"
       y="20.5"
       rx="0"
       ry="0" />
    <path
       style="fill:none;fill-rule:evenodd;stroke:#333333;stroke-width:1;stroke-linecap:butt;stroke-linejoin:miter;stroke-miterlimit:4;stroke-dasharray:none;stroke-opacity:1;display:inline"
       d="M 26.020001,32.568965 L 40.980001,32.568965"
       id="path3460" />
    <path
       style="opacity:0.36637932000000001;fill:none;fill-opacity:1;fill-rule:nonzero;stroke:#ffffff;stroke-width:1.00000011999999994;stroke-linecap:square;stroke-linejoin:miter;marker:none;marker-start:none;marker-mid:none;marker-end:none;stroke-miterlimit:4;stroke-dasharray:none;stroke-dashoffset:0;stroke-opacity:1;visibility:visible;display:block;overflow:visible"
       d="M 27.457745,33.5 C 31.485918,33.5 35.514089,33.5 39.542256,33.5"
       id="path4015"
       sodipodi:nodetypes="cc" />
    <path
       style="opacity:0.36637932000000001;fill:none;fill-opacity:1;fill-rule:nonzero;stroke:#ffffff;stroke-width:1.00000011999999994;stroke-linecap:square;stroke-linejoin:miter;marker:none;marker-start:none;marker-mid:none;marker-end:none;stroke-miterlimit:4;stroke-dasharray:none;stroke-dashoffset:0;stroke-opacity:1;visibility:visible;display:block;overflow:visible"
       d="M 27.45775,21.5 C 31.485919,21.5 35.514085,21.5 39.542251,21.5"
       id="path4017"
       sodipodi:nodetypes="cc" />
    <path
       id="rect2561"
       style="fill:url(#linearGradient3701-746-33);fill-opacity:1;stroke:none;stroke-width:0.99938755999999995;stroke-linecap:butt;stroke-linejoin:miter;stroke-miterlimit:4;stroke-dashoffset:0;stroke-opacity:1"
       d="M 42,21.218067 L 43,21.218067 L 43,22.336739 L 42,22.336739 L 42,21.218067 z M 42,23.707672 L 43,23.707672 L 43,24.826344 L 42,24.826344 L 42,23.707672 z M 42,26.197271 L 43,26.197271 L 43,27.315943 L 42,27.315943 L 42,26.197271 z M 42,28.686874 L 43,28.686874 L 43,29.805546 L 42,29.805546 L 42,28.686874 z M 42,31.176474 L 43,31.176474 L 43,32.295145 L 42,32.295145 L 42,31.176474 z M 42,33.66608 L 43,33.66608 L 43,34.784752 L 42,34.784752 L 42,33.66608 z M 42,36.155682 L 43,36.155682 L 43,37.274353 L 42,37.274353 L 42,36.155682 z M 42,38.645287 L 43,38.645287 L 43,39.763958 L 42,39.763958 L 42,38.645287 z M 42,41.134884 L 43,41.134884 L 43,42.253556 L 42,42.253556 L 42,41.134884 z M 42,43.381329 L 43,43.381329 L 43,44.5 L 42,44.5 L 42,43.381329 zM 24,21.218067 L 25,21.218067 L 25,22.336739 L 24,22.336739 L 24,21.218067 z M 24,23.707672 L 25,23.707672 L 25,24.826344 L 24,24.826344 L 24,23.707672 z M 24,26.197271 L 25,26.197271 L 25,27.315943 L 24,27.315943 L 24,26.197271 z M 24,28.686874 L 25,28.686874 L 25,29.805546 L 24,29.805546 L 24,28.686874 z M 24,31.176474 L 25,31.176474 L 25,32.295145 L 24,32.295145 L 24,31.176474 z M 24,33.66608 L 25,33.66608 L 25,34.784752 L 24,34.784752 L 24,33.66608 z M 24,36.155682 L 25,36.155682 L 25,37.274353 L 24,37.274353 L 24,36.155682 z M 24,38.645287 L 25,38.645287 L 25,39.763958 L 24,39.763958 L 24,38.645287 z M 24,41.134884 L 25,41.134884 L 25,42.253556 L 24,42.253556 L 24,41.134884 z M 24,43.381329 L 25,43.381329 L 25,44.5 L 24,44.5 L 24,43.381329 z" />
  </g>
</svg>
