<?xml version="1.0" encoding="UTF-8" standalone="no"?>
<svg
   xmlns:dc="http://purl.org/dc/elements/1.1/"
   xmlns:cc="http://creativecommons.org/ns#"
   xmlns:rdf="http://www.w3.org/1999/02/22-rdf-syntax-ns#"
   xmlns:svg="http://www.w3.org/2000/svg"
   xmlns="http://www.w3.org/2000/svg"
   xmlns:xlink="http://www.w3.org/1999/xlink"
   height="48"
   id="svg11300"
   style="display:inline;enable-background:new"
   version="1.0"
   viewBox="0 0 48.055344 48"
   width="48.055344">
  <metadata
     id="metadata154">
    <rdf:RDF>
      <cc:Work
         rdf:about="">
        <dc:format>image/svg+xml</dc:format>
        <dc:type
           rdf:resource="http://purl.org/dc/dcmitype/StillImage" />
        <dc:title>elementary Icon Template</dc:title>
      </cc:Work>
    </rdf:RDF>
  </metadata>
  <title
     id="title4162">elementary Icon Template</title>
  <defs
     id="defs3">
    <linearGradient
       id="linearGradient4712">
      <stop
         id="stop4708"
         offset="0"
         style="stop-color:#000000;stop-opacity:1;" />
      <stop
         id="stop4710"
         offset="1"
         style="stop-color:#000000;stop-opacity:0;" />
    </linearGradient>
    <linearGradient
       id="34542">
      <stop
         id="stop3456-4-9-38-1-8"
         offset="0"
         style="stop-color:#ffffff;stop-opacity:1" />
      <stop
         id="stop3458-39-80-3-5-5"
         offset="0.002736"
         style="stop-color:#ffffff;stop-opacity:0.23529412" />
      <stop
         id="stop3460-7-0-2-4-2"
         offset="0.99001008"
         style="stop-color:#ffffff;stop-opacity:0.15686275" />
      <stop
         id="stop3462-0-9-8-7-2"
         offset="1"
         style="stop-color:#ffffff;stop-opacity:0.39215687" />
    </linearGradient>
    <linearGradient
       id="4632">
      <stop
         id="stop4634-4-4-7-7-4"
         offset="0"
         style="stop-color:#b4cee1;stop-opacity:1" />
      <stop
         id="stop4636-3-1-5-1-3"
         offset="1"
         style="stop-color:#5d9fcd;stop-opacity:1" />
    </linearGradient>
    <linearGradient
       id="50485">
      <stop
         id="stop2667-18"
         offset="0"
         style="stop-color:#000000;stop-opacity:0" />
      <stop
         id="stop2669-9"
         offset="0.5"
         style="stop-color:#000000;stop-opacity:1" />
      <stop
         id="stop2671-33"
         offset="1"
         style="stop-color:#000000;stop-opacity:0" />
    </linearGradient>
    <linearGradient
       id="46464">
      <stop
         id="stop4648-8-0-3-6"
         offset="0"
         style="stop-color:#f9f9f9;stop-opacity:1" />
      <stop
         id="stop4650-1-7-3-4"
         offset="1"
         style="stop-color:#d8d8d8;stop-opacity:1" />
    </linearGradient>
    <linearGradient
       id="61299">
      <stop
         id="stop4661"
         offset="0"
         style="stop-color:#000000;stop-opacity:0.498" />
      <stop
         id="stop4663"
         offset="1"
         style="stop-color:#000000;stop-opacity:0" />
    </linearGradient>
    <linearGradient
       gradientTransform="translate(85.059139,158.99999)"
       gradientUnits="userSpaceOnUse"
       xlink:href="#46464"
       id="linearGradient1897"
       x1="63.412205"
       x2="63.412205"
       y1="18.215551"
       y2="21.215551" />
    <linearGradient
       gradientTransform="matrix(0.07938856,0,0,0.02470588,131.30672,190.94163)"
       gradientUnits="userSpaceOnUse"
       xlink:href="#50485"
       id="linearGradient1899"
       x1="302.85715"
       x2="302.85715"
       y1="366.64789"
       y2="609.50507" />
    <radialGradient
       cx="605.71429"
       cy="486.64789"
       fx="605.71429"
       fy="486.64789"
       gradientTransform="matrix(0.03079083,0,0,0.02470588,160.61022,190.94163)"
       gradientUnits="userSpaceOnUse"
       xlink:href="#linearGradient4712"
       id="radialGradient1901"
       r="117.14286" />
    <radialGradient
       cx="605.71429"
       cy="486.64789"
       fx="605.71429"
       fy="486.64789"
       gradientTransform="matrix(-0.03079083,0,0,0.02470588,159.38982,190.94163)"
       gradientUnits="userSpaceOnUse"
       xlink:href="#linearGradient4712"
       id="radialGradient1903"
       r="117.14286" />
    <linearGradient
       gradientTransform="matrix(0.64444432,0,0,0.54135319,137.53343,179.48872)"
       gradientUnits="userSpaceOnUse"
       xlink:href="#4632"
       id="linearGradient1905"
       x1="34.861927"
       x2="34.861927"
       y1="-6.4444432"
       y2="43.430573" />
    <linearGradient
       gradientTransform="matrix(0.89186139,0,0,0.86792712,140.12074,183.57503)"
       gradientUnits="userSpaceOnUse"
       xlink:href="#34542"
       id="linearGradient1907"
       x1="27.335257"
       x2="27.335257"
       y1="-1.8147031"
       y2="21.228706" />
    <linearGradient
       gradientTransform="translate(8,-64)"
       gradientUnits="userSpaceOnUse"
       xlink:href="#61299"
       id="linearGradient1909"
       x1="152"
       x2="152"
       y1="272"
       y2="262" />
  </defs>
  <g
     id="g153"
     transform="translate(-2479.9999,-159)">
    <g
       id="g7872">
      <g
         id="use5592"
         transform="translate(2344)">
        <path
           d="m 141.50002,167.49999 c -0.554,0 -1,0.446 -1,1 v 2 h -1 c -0.554,0 -1,0.446 -1,1 v 12 h 43 v -12 c 0,-0.554 -0.446,-1 -1,-1 h -23 v -2 c 0,-0.554 -0.446,-1 -1,-1 z"
           id="path1877"
           style="color:#000000;display:inline;overflow:visible;visibility:visible;opacity:0.3;fill:none;stroke:#000000;stroke-width:1;stroke-linecap:butt;stroke-linejoin:miter;stroke-miterlimit:4;stroke-dasharray:none;stroke-dashoffset:0;stroke-opacity:1;marker:none;enable-background:accumulate" />
        <path
           d="m 141.50002,167.99999 c -0.277,0 -0.5,0.223 -0.5,0.5 v 2.5 h -1.5 c -0.277,0 -0.5,0.223 -0.5,0.5 L 139,183 h 42 l 2e-5,-11.50001 c 0,-0.277 -0.223,-0.5 -0.5,-0.5 h -23.5 v -2.5 c 0,-0.277 -0.223,-0.5 -0.5,-0.5 z"
           id="path1879"
           style="color:#000000;display:inline;overflow:visible;visibility:visible;fill:url(#linearGradient1897);fill-opacity:1;fill-rule:nonzero;stroke:none;stroke-width:0.99992168;marker:none;enable-background:accumulate" />
        <path
           d="m 141.50002,168.49999 v 3 h -2 v 11 h 41 v -11 h -24 v -3 z"
           id="path1881"
           style="color:#000000;display:inline;overflow:visible;visibility:visible;opacity:0.3;fill:none;stroke:#ffffff;stroke-width:1;stroke-linecap:round;stroke-linejoin:round;stroke-miterlimit:4;stroke-dasharray:none;stroke-dashoffset:0;stroke-opacity:1;marker:none;enable-background:accumulate" />
        <rect
           height="6.0000005"
           id="rect1883"
           style="display:inline;overflow:visible;visibility:visible;opacity:0.3;fill:url(#linearGradient1899);fill-opacity:1;fill-rule:nonzero;stroke:none;stroke-width:1;marker:none"
           width="38.333332"
           x="140.83339"
           y="200" />
        <path
           d="m 179.16672,200.0002 c 0,0 0,5.99967 0,5.99967 1.5856,0.0113 3.8333,-1.34422 3.8333,-3.00022 0,-1.656 -1.7695,-2.99945 -3.8333,-2.99945 z"
           id="path1885"
           style="display:inline;overflow:visible;visibility:visible;opacity:0.3;fill:url(#radialGradient1901);fill-opacity:1;fill-rule:nonzero;stroke:none;stroke-width:1;marker:none" />
        <path
           d="m 140.83332,200.0002 c 0,0 0,5.99967 0,5.99967 -1.5856,0.0113 -3.8333,-1.34422 -3.8333,-3.00022 0,-1.656 1.7695,-2.99945 3.8333,-2.99945 z"
           id="path1887"
           style="display:inline;overflow:visible;visibility:visible;opacity:0.3;fill:url(#radialGradient1903);fill-opacity:1;fill-rule:nonzero;stroke:none;stroke-width:1;marker:none" />
        <path
           d="m 136.5,181 2.5,22.5 h 42.36742 l 2.18562,-22.50046 C 183.60156,180.5 183,180.5 183,180.5 h -46 c -0.5,0 -0.5,0.5 -0.5,0.5 z"
           id="path1889"
           style="color:#000000;display:inline;overflow:visible;visibility:visible;fill:url(#linearGradient1905);fill-opacity:1;fill-rule:nonzero;stroke:#000000;stroke-width:1;stroke-miterlimit:4;stroke-dasharray:none;stroke-opacity:0.30196078;marker:none;enable-background:accumulate" />
        <path
           d="m 137.5,181.5 2.36742,21 H 180.5 l 2,-21 z"
           id="path1891"
           style="color:#000000;display:inline;overflow:visible;visibility:visible;opacity:0.5;fill:none;stroke:url(#linearGradient1907);stroke-width:1;stroke-linecap:round;stroke-linejoin:miter;stroke-miterlimit:4;stroke-dasharray:none;stroke-dashoffset:0;stroke-opacity:1;marker:none;enable-background:accumulate" />
        <path
           d="m 137,180 c -0.41667,0 -0.76264,0.28309 -0.88477,0.52734 C 135.99311,180.7716 136,181 136,181 v 0.0273 l 0.004,0.0273 2.54873,22.9454 h 43.26758 l 2.23047,-22.95117 c 0.0217,-0.22384 -0.0361,-0.4594 -0.1543,-0.62695 -0.11824,-0.16756 -0.27209,-0.26201 -0.40234,-0.31836 C 183.23364,179.99081 183,180 183,180 Z"
           id="path1893"
           style="color:#000000;font-style:normal;font-variant:normal;font-weight:normal;font-stretch:normal;font-size:medium;line-height:normal;font-family:sans-serif;font-variant-ligatures:normal;font-variant-position:normal;font-variant-caps:normal;font-variant-numeric:normal;font-variant-alternates:normal;font-feature-settings:normal;text-indent:0;text-align:start;text-decoration:none;text-decoration-line:none;text-decoration-style:solid;text-decoration-color:#000000;letter-spacing:normal;word-spacing:normal;text-transform:none;writing-mode:lr-tb;direction:ltr;text-orientation:mixed;dominant-baseline:auto;baseline-shift:baseline;text-anchor:start;white-space:normal;shape-padding:0;clip-rule:nonzero;display:inline;overflow:visible;visibility:visible;opacity:0.3;isolation:auto;mix-blend-mode:normal;color-interpolation:sRGB;color-interpolation-filters:linearRGB;solid-color:#000000;solid-opacity:1;vector-effect:none;fill:url(#linearGradient1909);fill-opacity:1;fill-rule:nonzero;stroke:none;stroke-width:1;stroke-linecap:butt;stroke-linejoin:miter;stroke-miterlimit:4;stroke-dasharray:none;stroke-dashoffset:0;stroke-opacity:1;marker:none;color-rendering:auto;image-rendering:auto;shape-rendering:auto;text-rendering:auto;enable-background:accumulate" />
      </g>
      <g
         id="g7796"
         style="display:inline;opacity:0.3;vector-effect:none;fill:#ffffff;fill-opacity:1;stroke:none;stroke-width:1.98065543;stroke-linecap:butt;stroke-linejoin:miter;stroke-miterlimit:4;stroke-dasharray:none;stroke-dashoffset:0;stroke-opacity:1;marker:none;enable-background:new"
         transform="matrix(1,0,0,0.84459984,1504,-201.18493)">
        <path
           d="m 1001.362,460.94601 c -1.516,0 -2.828,0.887 -3.479,2.174 a 2.667,2.667 0 0 0 -1.457,-0.434 c -1.505,0 -2.724,1.245 -2.724,2.782 0,0.245 0.038,0.48 0.096,0.707 a 4.196,4.196 0 0 0 -1.798,3.467 c 0,2.312 1.822,4.174 4.085,4.174 h 7.83 c 2.263,0 4.085,-1.862 4.085,-4.174 0,-1.846 -1.167,-3.403 -2.787,-3.956 0.044,-0.24 0.064,-0.487 0.064,-0.74 0,-2.209 -1.753,-4 -3.915,-4 z"
           id="path7794"
           overflow="visible"
           style="color:#000000;overflow:visible;vector-effect:none;fill:#ffffff;fill-opacity:1;stroke:none;stroke-width:1.98065543;stroke-linecap:butt;stroke-linejoin:miter;stroke-miterlimit:4;stroke-dasharray:none;stroke-dashoffset:0;stroke-opacity:1;marker:none" />
      </g>
      <g
         id="g67"
         style="display:inline;opacity:0.55;vector-effect:none;fill:#175785;fill-opacity:1;stroke:none;stroke-width:1.98065543;stroke-linecap:butt;stroke-linejoin:miter;stroke-miterlimit:4;stroke-dasharray:none;stroke-dashoffset:0;stroke-opacity:1;marker:none;enable-background:new"
         transform="matrix(1,0,0,0.84459984,1504,-202.18493)">
        <path
           d="m 1001.362,460.94601 c -1.516,0 -2.828,0.887 -3.479,2.174 a 2.667,2.667 0 0 0 -1.457,-0.434 c -1.505,0 -2.724,1.245 -2.724,2.782 0,0.245 0.038,0.48 0.096,0.707 a 4.196,4.196 0 0 0 -1.798,3.467 c 0,2.312 1.822,4.174 4.085,4.174 h 7.83 c 2.263,0 4.085,-1.862 4.085,-4.174 0,-1.846 -1.167,-3.403 -2.787,-3.956 0.044,-0.24 0.064,-0.487 0.064,-0.74 0,-2.209 -1.753,-4 -3.915,-4 z"
           id="path65"
           overflow="visible"
           style="color:#000000;overflow:visible;vector-effect:none;fill:#175785;fill-opacity:1;stroke:none;stroke-width:1.98065543;stroke-linecap:butt;stroke-linejoin:miter;stroke-miterlimit:4;stroke-dasharray:none;stroke-dashoffset:0;stroke-opacity:1;marker:none" />
      </g>
    </g>
  </g>
</svg>
