<?xml version="1.0" encoding="UTF-8" standalone="no"?>
<!-- Created with Inkscape (http://www.inkscape.org/) -->
<svg
   xmlns:svg="http://www.w3.org/2000/svg"
   xmlns="http://www.w3.org/2000/svg"
   xmlns:xlink="http://www.w3.org/1999/xlink"
   version="1.0"
   width="48"
   height="48"
   id="svg44406">
  <defs
     id="defs44408">
    <linearGradient
       id="linearGradient7822">
      <stop
         id="stop7824"
         style="stop-color:#000000;stop-opacity:1"
         offset="0" />
      <stop
         id="stop7826"
         style="stop-color:#000000;stop-opacity:0"
         offset="1" />
    </linearGradient>
    <radialGradient
       cx="14.363107"
       cy="34.785942"
       r="8.7946405"
       fx="14.363107"
       fy="34.785942"
       id="radialGradient2963"
       xlink:href="#linearGradient7822"
       gradientUnits="userSpaceOnUse"
       gradientTransform="matrix(-0.6066716,0,0,0.4034938,40.981818,26.354263)" />
    <linearGradient
       id="linearGradient7438">
      <stop
         id="stop7440"
         style="stop-color:#ffffff;stop-opacity:1"
         offset="0" />
      <stop
         id="stop7442"
         style="stop-color:#ffffff;stop-opacity:0"
         offset="1" />
    </linearGradient>
    <linearGradient
       x1="-7.8516631"
       y1="3.7545938"
       x2="-5.5098634"
       y2="18.937717"
       id="linearGradient2623"
       xlink:href="#linearGradient7438"
       gradientUnits="userSpaceOnUse" />
    <linearGradient
       id="linearGradient6991">
      <stop
         id="stop6993"
         style="stop-color:#d3d7cf;stop-opacity:1"
         offset="0" />
      <stop
         id="stop6995"
         style="stop-color:#ffffff;stop-opacity:1"
         offset="1" />
    </linearGradient>
    <linearGradient
       x1="-7.975069"
       y1="25.357235"
       x2="-11.005972"
       y2="-6.5683565"
       id="linearGradient2621"
       xlink:href="#linearGradient6991"
       gradientUnits="userSpaceOnUse"
       gradientTransform="matrix(1.1874999,0,0,1.2,-17.281253,21.899998)" />
    <linearGradient
       x1="-4.2208939"
       y1="59.878922"
       x2="-4.2208939"
       y2="54.707691"
       id="linearGradient7557"
       xlink:href="#linearGradient7269"
       gradientUnits="userSpaceOnUse"
       gradientTransform="matrix(0.9642856,0,0,0.9722222,-0.2500008,1.6944444)" />
    <linearGradient
       id="linearGradient7263">
      <stop
         id="stop7265"
         style="stop-color:#adb0a8;stop-opacity:1"
         offset="0" />
      <stop
         id="stop7267"
         style="stop-color:#ffffff;stop-opacity:1"
         offset="1" />
    </linearGradient>
    <linearGradient
       x1="1.6256078"
       y1="55.219357"
       x2="0.82206726"
       y2="54.415817"
       id="linearGradient7555"
       xlink:href="#linearGradient7263"
       gradientUnits="userSpaceOnUse" />
    <linearGradient
       id="linearGradient7257">
      <stop
         id="stop7259"
         style="stop-color:#000000;stop-opacity:1"
         offset="0" />
      <stop
         id="stop7261"
         style="stop-color:#000000;stop-opacity:0"
         offset="1" />
    </linearGradient>
    <linearGradient
       x1="-1.9887378"
       y1="51.137787"
       x2="-3.3587573"
       y2="54"
       id="linearGradient2954"
       xlink:href="#linearGradient7257"
       gradientUnits="userSpaceOnUse"
       gradientTransform="matrix(-0.5248057,0,0,0.5248057,31.803366,10.457388)" />
    <linearGradient
       id="linearGradient7237">
      <stop
         id="stop7239"
         style="stop-color:#eeeeec;stop-opacity:1"
         offset="0" />
      <stop
         id="stop7241"
         style="stop-color:#babdb6;stop-opacity:1"
         offset="1" />
    </linearGradient>
    <linearGradient
       x1="-4.6845822"
       y1="52.640388"
       x2="0.88388348"
       y2="50.563263"
       id="linearGradient2948"
       xlink:href="#linearGradient7237"
       gradientUnits="userSpaceOnUse"
       gradientTransform="matrix(-0.5248057,0,0,0.5248057,31.803366,10.457388)" />
    <linearGradient
       id="linearGradient7245">
      <stop
         id="stop7247"
         style="stop-color:#eeeeec;stop-opacity:1"
         offset="0" />
      <stop
         id="stop7249"
         style="stop-color:#ffffff;stop-opacity:1"
         offset="1" />
    </linearGradient>
    <linearGradient
       x1="-5.0823302"
       y1="50.51907"
       x2="0.26516503"
       y2="49.458408"
       id="linearGradient2945"
       xlink:href="#linearGradient7245"
       gradientUnits="userSpaceOnUse"
       gradientTransform="matrix(-0.5248057,0,0,0.5248057,31.803366,10.457388)" />
    <linearGradient
       id="linearGradient7186">
      <stop
         id="stop7188"
         style="stop-color:#888a85;stop-opacity:1"
         offset="0" />
      <stop
         id="stop7190"
         style="stop-color:#ffffff;stop-opacity:1"
         offset="1" />
    </linearGradient>
    <linearGradient
       x1="-5.96875"
       y1="52.875"
       x2="-5.96875"
       y2="51.812416"
       id="linearGradient2942"
       xlink:href="#linearGradient7186"
       gradientUnits="userSpaceOnUse"
       gradientTransform="matrix(-0.5248057,0,0,0.5248057,31.803366,10.457388)" />
    <linearGradient
       id="linearGradient7277">
      <stop
         id="stop7279"
         style="stop-color:#555753;stop-opacity:1"
         offset="0" />
      <stop
         id="stop7281"
         style="stop-color:#d3d7cf;stop-opacity:1"
         offset="1" />
    </linearGradient>
    <linearGradient
       x1="-3.5355339"
       y1="55.866562"
       x2="-3.5355339"
       y2="59.444622"
       id="linearGradient2939"
       xlink:href="#linearGradient7277"
       gradientUnits="userSpaceOnUse"
       gradientTransform="matrix(-0.5248057,0,0,0.5398003,31.803366,9.8576022)" />
    <linearGradient
       x1="30.3125"
       y1="27.313059"
       x2="30.3125"
       y2="24.6875"
       id="linearGradient2617"
       xlink:href="#linearGradient7422"
       gradientUnits="userSpaceOnUse" />
    <linearGradient
       x1="30.3125"
       y1="27.313059"
       x2="30.3125"
       y2="24.6875"
       id="linearGradient2615"
       xlink:href="#linearGradient7422"
       gradientUnits="userSpaceOnUse" />
    <linearGradient
       x1="30.3125"
       y1="27.313059"
       x2="30.3125"
       y2="24.6875"
       id="linearGradient2613"
       xlink:href="#linearGradient7422"
       gradientUnits="userSpaceOnUse" />
    <linearGradient
       x1="30.3125"
       y1="27.313059"
       x2="30.3125"
       y2="24.6875"
       id="linearGradient2611"
       xlink:href="#linearGradient7422"
       gradientUnits="userSpaceOnUse" />
    <linearGradient
       id="linearGradient7422">
      <stop
         id="stop7424"
         style="stop-color:#edd400;stop-opacity:1"
         offset="0" />
      <stop
         id="stop7426"
         style="stop-color:#edd400;stop-opacity:0"
         offset="1" />
    </linearGradient>
    <linearGradient
       x1="30.3125"
       y1="27.313059"
       x2="30.3125"
       y2="24.6875"
       id="linearGradient2619"
       xlink:href="#linearGradient7422"
       gradientUnits="userSpaceOnUse" />
    <linearGradient
       id="linearGradient7430">
      <stop
         id="stop7432"
         style="stop-color:#ffffff;stop-opacity:1"
         offset="0" />
      <stop
         id="stop7434"
         style="stop-color:#ffffff;stop-opacity:0"
         offset="1" />
    </linearGradient>
    <linearGradient
       x1="28.875"
       y1="29"
       x2="29"
       y2="16"
       id="linearGradient2609"
       xlink:href="#linearGradient7430"
       gradientUnits="userSpaceOnUse"
       gradientTransform="matrix(-0.5248057,0,0,0.5248057,39.675451,19.379085)" />
    <linearGradient
       id="linearGradient7340">
      <stop
         id="stop7342"
         style="stop-color:#2e3436;stop-opacity:1"
         offset="0" />
      <stop
         id="stop7344"
         style="stop-color:#555753;stop-opacity:1"
         offset="1" />
    </linearGradient>
    <linearGradient
       x1="32.8125"
       y1="21"
       x2="32.8125"
       y2="26.204767"
       id="linearGradient2607"
       xlink:href="#linearGradient7340"
       gradientUnits="userSpaceOnUse"
       gradientTransform="matrix(-0.5864288,0,0,0.5858254,42.306003,17.818634)" />
    <linearGradient
       id="linearGradient7576-259">
      <stop
         id="stop3231"
         style="stop-color:#787878;stop-opacity:1"
         offset="0" />
      <stop
         id="stop3233"
         style="stop-color:#6c6c6c;stop-opacity:0"
         offset="1" />
    </linearGradient>
    <linearGradient
       x1="38.75"
       y1="40.625"
       x2="40.125"
       y2="46.5625"
       id="linearGradient2928"
       xlink:href="#linearGradient7576-259"
       gradientUnits="userSpaceOnUse"
       gradientTransform="matrix(-0.5248057,0,0,0.5248057,40.200257,23.052725)" />
    <linearGradient
       id="linearGradient7652-827">
      <stop
         id="stop3225"
         style="stop-color:#dbdbdb;stop-opacity:1"
         offset="0" />
      <stop
         id="stop3227"
         style="stop-color:#a0a0a0;stop-opacity:0"
         offset="1" />
    </linearGradient>
    <linearGradient
       x1="37.625"
       y1="40.3125"
       x2="38.875"
       y2="45.0625"
       id="linearGradient2926"
       xlink:href="#linearGradient7652-827"
       gradientUnits="userSpaceOnUse"
       gradientTransform="matrix(-0.5248057,0,0,0.5248057,40.200257,23.052725)" />
    <linearGradient
       id="linearGradient7660">
      <stop
         id="stop7662"
         style="stop-color:#ffffff;stop-opacity:1"
         offset="0" />
      <stop
         id="stop7664"
         style="stop-color:#ffffff;stop-opacity:0"
         offset="1" />
    </linearGradient>
    <linearGradient
       x1="41.1875"
       y1="38.3125"
       x2="42.123722"
       y2="42.9375"
       id="linearGradient2923"
       xlink:href="#linearGradient7660"
       gradientUnits="userSpaceOnUse"
       gradientTransform="matrix(-0.5248057,0,0,0.5248057,40.200257,23.052725)" />
    <linearGradient
       id="linearGradient7269">
      <stop
         id="stop7271"
         style="stop-color:#ffffff;stop-opacity:1"
         offset="0" />
      <stop
         id="stop7273"
         style="stop-color:#d3d7cf;stop-opacity:1"
         offset="1" />
    </linearGradient>
    <linearGradient
       x1="-4.1097827"
       y1="58.807774"
       x2="-4.1097827"
       y2="55.000004"
       id="linearGradient2920"
       xlink:href="#linearGradient7269"
       gradientUnits="userSpaceOnUse"
       gradientTransform="matrix(-0.5904064,0,0,0.6122733,31.868967,5.1382633)" />
    <linearGradient
       id="linearGradient7812">
      <stop
         id="stop7814"
         style="stop-color:#000000;stop-opacity:1"
         offset="0" />
      <stop
         id="stop7816"
         style="stop-color:#000000;stop-opacity:0"
         offset="1" />
    </linearGradient>
    <linearGradient
       x1="-6.40625"
       y1="32.4375"
       x2="-7.78125"
       y2="34.5625"
       id="linearGradient2917"
       xlink:href="#linearGradient7812"
       gradientUnits="userSpaceOnUse"
       gradientTransform="matrix(-0.5248057,0,0,0.5248057,29.704143,23.052725)" />
    <linearGradient
       id="linearGradient3484">
      <stop
         id="stop3486"
         style="stop-color:#bdbdbd;stop-opacity:1"
         offset="0" />
      <stop
         id="stop3488"
         style="stop-color:#d0d0d0;stop-opacity:1"
         offset="1" />
    </linearGradient>
    <linearGradient
       id="linearGradient6404">
      <stop
         id="stop6406"
         style="stop-color:#f9f9f9;stop-opacity:1"
         offset="0" />
      <stop
         id="stop6408"
         style="stop-color:#c9c9c9;stop-opacity:1"
         offset="1" />
    </linearGradient>
    <linearGradient
       id="linearGradient5048-585">
      <stop
         id="stop2667"
         style="stop-color:#000000;stop-opacity:0"
         offset="0" />
      <stop
         id="stop2669"
         style="stop-color:#000000;stop-opacity:1"
         offset="0.5" />
      <stop
         id="stop2671"
         style="stop-color:#000000;stop-opacity:0"
         offset="1" />
    </linearGradient>
    <linearGradient
       id="linearGradient5060-179">
      <stop
         id="stop2675"
         style="stop-color:#000000;stop-opacity:1"
         offset="0" />
      <stop
         id="stop2677"
         style="stop-color:#000000;stop-opacity:0"
         offset="1" />
    </linearGradient>
    <linearGradient
       id="linearGradient5060-820">
      <stop
         id="stop2681"
         style="stop-color:#000000;stop-opacity:1"
         offset="0" />
      <stop
         id="stop2683"
         style="stop-color:#000000;stop-opacity:0"
         offset="1" />
    </linearGradient>
    <linearGradient
       id="linearGradient3390">
      <stop
         id="stop3392"
         style="stop-color:#425e7b;stop-opacity:1"
         offset="0" />
      <stop
         id="stop3394"
         style="stop-color:#7a91a7;stop-opacity:1"
         offset="1" />
    </linearGradient>
    <linearGradient
       id="linearGradient7012-661-145-733-759-865-745">
      <stop
         id="stop2699"
         style="stop-color:#9cbbd9;stop-opacity:1"
         offset="0" />
      <stop
         id="stop2701"
         style="stop-color:#5c82ab;stop-opacity:1"
         offset="1" />
    </linearGradient>
    <linearGradient
       id="linearGradient6129-963-697-142-998-580-273">
      <stop
         id="stop2661"
         style="stop-color:#0a0a0a;stop-opacity:0.498"
         offset="0" />
      <stop
         id="stop2663"
         style="stop-color:#0a0a0a;stop-opacity:0"
         offset="1" />
    </linearGradient>
    <linearGradient
       id="linearGradient6087-437-184-795-110-662-495">
      <stop
         id="stop2693"
         style="stop-color:#ffffff;stop-opacity:0.40000001"
         offset="0" />
      <stop
         id="stop2695"
         style="stop-color:#ffffff;stop-opacity:0"
         offset="1" />
    </linearGradient>
    <linearGradient
       id="linearGradient8265-821-176-38-919-66-249">
      <stop
         id="stop2687"
         style="stop-color:#ffffff;stop-opacity:0.2"
         offset="0" />
      <stop
         id="stop2689"
         style="stop-color:#ffffff;stop-opacity:0"
         offset="1" />
    </linearGradient>
    <linearGradient
       x1="11.566265"
       y1="22.292103"
       x2="15.214532"
       y2="33.95525"
       id="linearGradient2431"
       xlink:href="#linearGradient8265-821-176-38-919-66-249"
       gradientUnits="userSpaceOnUse" />
    <radialGradient
       cx="7.2646537"
       cy="8.3021259"
       r="20.979567"
       fx="7.2646537"
       fy="8.3021259"
       id="radialGradient2434"
       xlink:href="#linearGradient6087-437-184-795-110-662-495"
       gradientUnits="userSpaceOnUse"
       gradientTransform="matrix(0,1.2079744,-1.6271642,0,26.371748,8.2664685)" />
    <linearGradient
       x1="22.934725"
       y1="49.629246"
       x2="22.809399"
       y2="36.657963"
       id="linearGradient2437"
       xlink:href="#linearGradient6129-963-697-142-998-580-273"
       gradientUnits="userSpaceOnUse"
       gradientTransform="matrix(1.1446925,0,0,0.9977536,-3.4661413,1.0988425)" />
    <radialGradient
       cx="63.969177"
       cy="14.113381"
       r="23.097054"
       fx="63.969177"
       fy="14.113381"
       id="radialGradient2440"
       xlink:href="#linearGradient7012-661-145-733-759-865-745"
       gradientUnits="userSpaceOnUse"
       gradientTransform="matrix(1.5646925,-9.5143002e-8,6.1772287e-8,1.015888,-86.212573,8.1461173)" />
    <linearGradient
       x1="82.453476"
       y1="45.114193"
       x2="82.453476"
       y2="16.047026"
       id="linearGradient2442"
       xlink:href="#linearGradient3390"
       gradientUnits="userSpaceOnUse"
       gradientTransform="translate(-53.765393,-0.1141929)" />
    <radialGradient
       cx="605.71429"
       cy="486.64789"
       r="117.14286"
       fx="605.71429"
       fy="486.64789"
       id="radialGradient2445"
       xlink:href="#linearGradient5060-820"
       gradientUnits="userSpaceOnUse"
       gradientTransform="matrix(-3.0790825e-2,0,0,2.4705883e-2,23.389748,31.941642)" />
    <radialGradient
       cx="605.71429"
       cy="486.64789"
       r="117.14286"
       fx="605.71429"
       fy="486.64789"
       id="radialGradient2448"
       xlink:href="#linearGradient5060-179"
       gradientUnits="userSpaceOnUse"
       gradientTransform="matrix(3.0790832e-2,0,0,2.4705883e-2,24.610252,31.941642)" />
    <linearGradient
       x1="302.85715"
       y1="366.64789"
       x2="302.85715"
       y2="609.50507"
       id="linearGradient2451"
       xlink:href="#linearGradient5048-585"
       gradientUnits="userSpaceOnUse"
       gradientTransform="matrix(7.9388558e-2,0,0,2.4705883e-2,-4.693293,31.941642)" />
    <linearGradient
       x1="62.988873"
       y1="13.182598"
       x2="62.988873"
       y2="16.19013"
       id="linearGradient2454"
       xlink:href="#linearGradient6404"
       gradientUnits="userSpaceOnUse"
       gradientTransform="translate(-50.940898,0)" />
    <radialGradient
       cx="3"
       cy="5.01718"
       r="21"
       fx="3"
       fy="5.01718"
       id="radialGradient2456"
       xlink:href="#linearGradient3484"
       gradientUnits="userSpaceOnUse"
       gradientTransform="matrix(-1.274898e-8,1.7142916,-2.159331,-1.4599595e-8,12.809361,2.8570011)" />
  </defs>
  <path
     d="M 5.4999991,8.4999995 C 4.8097281,8.5076711 4.4999991,8.8421456 4.4999991,9.4999995 L 4.4999991,11.506647 C 2.5161375,11.506647 2.5000001,11.647147 2.5000001,12.506647 C 2.5344111,22.796692 2.5000001,23.376785 2.5000001,24.25043 C 3.9354707,24.25043 45.499998,20.550698 45.499998,18.958166 L 45.499998,12.506647 C 45.499998,11.848794 44.945794,11.498976 44.255519,11.506647 L 21.499999,11.506647 L 21.499999,9.4999995 C 21.499999,8.8421456 21.19027,8.492328 20.499999,8.4999995 L 5.4999991,8.4999995 z"
     id="path3468"
     style="fill:url(#linearGradient2454);fill-opacity:1;stroke:url(#radialGradient2456);stroke-width:1.00000012;stroke-linecap:round;stroke-linejoin:round;stroke-miterlimit:4;stroke-dasharray:none;stroke-opacity:1;display:inline" />
  <rect
     width="38.333332"
     height="6.0000005"
     x="4.833334"
     y="41"
     id="rect4173"
     style="opacity:0.3;fill:url(#linearGradient2451);fill-opacity:1;fill-rule:nonzero;stroke:none;stroke-width:1;stroke-linecap:round;stroke-linejoin:miter;marker:none;marker-start:none;marker-mid:none;marker-end:none;stroke-miterlimit:4;stroke-dasharray:none;stroke-dashoffset:0;stroke-opacity:1;visibility:visible;display:inline;overflow:visible" />
  <path
     d="M 43.166666,41.000208 C 43.166666,41.000208 43.166666,46.999878 43.166666,46.999878 C 44.752318,47.011172 47,45.655656 46.999999,43.999657 C 46.999999,42.343657 45.230531,41.000208 43.166666,41.000208 z"
     id="path5058"
     style="opacity:0.3;fill:url(#radialGradient2448);fill-opacity:1;fill-rule:nonzero;stroke:none;stroke-width:1;stroke-linecap:round;stroke-linejoin:miter;marker:none;marker-start:none;marker-mid:none;marker-end:none;stroke-miterlimit:4;stroke-dasharray:none;stroke-dashoffset:0;stroke-opacity:1;visibility:visible;display:inline;overflow:visible" />
  <path
     d="M 4.833334,41.000208 C 4.833334,41.000208 4.833334,46.999878 4.833334,46.999878 C 3.2476822,47.011172 1.0000008,45.655656 1.0000008,43.999657 C 1.0000008,42.343657 2.7694682,41.000208 4.833334,41.000208 z"
     id="path5018"
     style="opacity:0.3;fill:url(#radialGradient2445);fill-opacity:1;fill-rule:nonzero;stroke:none;stroke-width:1;stroke-linecap:round;stroke-linejoin:miter;marker:none;marker-start:none;marker-mid:none;marker-end:none;stroke-miterlimit:4;stroke-dasharray:none;stroke-dashoffset:0;stroke-opacity:1;visibility:visible;display:inline;overflow:visible" />
  <path
     d="M 2.1628556,16.525193 C 1.0901486,16.648887 1.6630856,17.927311 1.5775586,18.646205 C 1.7020414,19.110781 2.5053859,43.063325 2.5053859,43.885807 C 2.5053859,44.600671 2.8572396,44.479557 3.7487803,44.479557 C 16.942325,44.479557 31.531812,44.479557 44.725358,44.479557 C 45.685801,44.501843 45.482824,44.491174 45.482824,43.874533 C 45.553023,43.559678 46.476175,17.499307 46.51171,17.087693 C 46.51171,16.654289 46.601896,16.525193 46.038369,16.525193 C 31.948995,16.525193 16.252234,16.525193 2.1628556,16.525193 z"
     id="path3388"
     style="fill:url(#radialGradient2440);fill-opacity:1;stroke:url(#linearGradient2442);stroke-width:1;stroke-linecap:round;stroke-linejoin:round;stroke-miterlimit:4;stroke-dashoffset:0;stroke-opacity:1" />
  <path
     d="M 2.0582428,16.065146 L 45.954718,16.065549 C 46.588878,16.065549 46.999873,16.51016 46.999873,17.062916 L 45.96746,44.023288 C 45.982125,44.72269 45.758371,45 45.02156,44.985335 L 3.2408415,44.967766 C 2.6066816,44.967766 1.9672123,44.555002 1.9672123,44.002247 L 1.0130886,17.0629 C 1.0130886,16.510143 1.4240829,16.065146 2.0582428,16.065146 z"
     id="path6127"
     style="opacity:0.4;fill:url(#linearGradient2437);fill-opacity:1;stroke:none;stroke-width:1;stroke-linecap:round;stroke-linejoin:round;stroke-miterlimit:4;stroke-dashoffset:0;stroke-opacity:1" />
  <path
     d="M 46.5,17.5 C 32.96875,17.5 16.03125,17.5 2.5,17.5 C 2.8854167,25.677083 3.2708333,33.854167 3.65625,42.03125"
     id="path2435"
     style="fill:none;fill-rule:evenodd;stroke:url(#radialGradient2434);stroke-width:0.99999976;stroke-linecap:round;stroke-linejoin:round;stroke-miterlimit:4;stroke-dasharray:none;stroke-opacity:1" />
  <path
     d="M 46.114796,16.0228 C 31.565206,16.096148 16.645416,15.978851 2.09375,16 C 0.28698984,16.411117 1.2593433,18.46661 1.1213236,19.771525 C 1.3433531,23.934872 1.4443903,28.116464 1.7417851,32.268407 C 16.742298,29.905609 31.66833,27.661153 46.40625,25.21875 C 47.187241,22.632172 46.97703,17.963572 47.018007,17.017524 C 47.096668,16.341963 46.641395,16.011482 46.114796,16.0228 z"
     id="path3455"
     style="fill:url(#linearGradient2431);fill-opacity:1;stroke:none;stroke-width:1;stroke-linecap:round;stroke-linejoin:round;stroke-miterlimit:4;stroke-dashoffset:0;stroke-opacity:1" />
  <path
     d="M 37.576228,29.350393 L 36.001811,29.350393 L 34.9522,29.350393 L 36.526617,29.350393 L 37.576228,29.350393 z"
     id="path7013"
     style="fill:#ffffff;fill-opacity:1;fill-rule:evenodd;stroke:none" />
  <path
     d="M 26.932671,40.390173 C 26.932226,42.350211 29.321123,43.939291 32.268129,43.939291 C 35.215136,43.939291 37.604032,42.350211 37.603588,40.390173 C 37.604032,38.430136 35.215136,36.841055 32.268129,36.841055 C 29.321123,36.841055 26.932226,38.430136 26.932671,40.390173 z"
     id="path7820"
     style="opacity:0.45895523;fill:url(#radialGradient2963);fill-opacity:1;fill-rule:evenodd;stroke:none" />
  <g
     transform="translate(-1,-3.0992553e-7)"
     id="g2540">
    <rect
       width="19"
       height="18"
       rx="2.2850928"
       ry="2.3001263"
       x="-34.5"
       y="22.5"
       transform="scale(-1,1)"
       id="rect5925"
       style="fill:url(#linearGradient2621);fill-opacity:1;fill-rule:evenodd;stroke:#999999;stroke-width:1.00000012;stroke-linecap:round;stroke-linejoin:round;stroke-miterlimit:4;stroke-dasharray:none;stroke-dashoffset:0.69999992;stroke-opacity:0.99236642" />
    <path
       d="M -12.5,1.5 C -13.072952,1.5 -13.5,1.9270471 -13.5,2.5 L -13.5,13.5 C -13.5,14.072953 -13.072954,14.5 -12.5,14.5 L -0.5,14.5 C 0.07295344,14.5 0.5,14.072954 0.5,13.5 L 0.5,2.5 C 0.5,1.9270468 0.07295314,1.5 -0.5,1.5 L -12.5,1.5 z"
       transform="matrix(-1.197479,0,0,1.2115385,17.216386,21.807693)"
       id="path6964"
       style="fill:none;stroke:url(#linearGradient2623);stroke-width:0.83022809;stroke-linecap:round;stroke-linejoin:round;stroke-miterlimit:4;stroke-dasharray:none;stroke-dashoffset:0.69999992;stroke-opacity:0.99236642" />
  </g>
  <g
     transform="matrix(-0.6122733,0,0,0.6297668,31.715898,4.0547584)"
     id="g7162">
    <path
       d="M -2.34375,51 C -2.5485199,51 -2.7249072,51.101237 -2.84375,51.25 L -6.859375,55.25 C -6.8943841,55.381797 -6.9584881,55.521336 -7,55.65625 L -7,61.177083 C -7,61.540646 -6.7034811,61.833333 -6.34375,61.833333 L 0.34375,61.833333 C 0.52361547,61.833333 0.6951329,61.764453 0.8125,61.645833 L 4.8125,57.645833 C 4.9298671,57.527216 5,57.358864 5,57.177083 L 5,51.65625 C 5,51.474469 4.9298671,51.306117 4.8125,51.1875 C 4.6934039,51.068883 4.5236156,51 4.34375,51 L -2.34375,51 L -2.34375,51 z"
       id="rect6100"
       style="fill:url(#linearGradient7555);fill-opacity:1;fill-rule:evenodd;stroke:none" />
    <path
       d="M -6.3738568,55.166667 L 0.08814244,55.166667 C 0.43502581,55.166667 0.71428575,55.451224 0.71428575,55.804688 L 0.71428575,61.195312 C 0.71428575,61.548776 0.43502581,61.833333 0.08814244,61.833333 L -6.3738568,61.833333 C -6.7207401,61.833333 -7,61.548776 -7,61.195312 L -7,55.804688 C -7,55.451224 -6.7207401,55.166667 -6.3738568,55.166667 L -6.3738568,55.166667 z"
       id="path6105"
       style="fill:url(#linearGradient7557);fill-opacity:1;fill-rule:evenodd;stroke:none" />
  </g>
  <path
     d="M 32.328171,36.172868 L 34.9522,38.796896 L 32.852977,38.796896 L 30.228949,36.172868 L 32.328171,36.172868"
     id="path7253"
     style="opacity:0.12313436;fill:url(#linearGradient2954);fill-opacity:1;fill-rule:evenodd;stroke:none" />
  <path
     d="M 30.228949,36.172868 L 35.214603,38.27209 L 33.377783,38.27209 L 30.753754,36.697673 L 30.228949,36.172868"
     id="path6126"
     style="fill:#babdb6;fill-rule:evenodd;stroke:none" />
  <path
     d="M 33.14818,36.43527 C 33.16069,36.43527 33.17684,36.43867 33.23018,36.50087 C 33.24593,36.51275 33.26236,36.5237 33.27938,36.53367 C 33.28981,36.5451 33.30075,36.55604 33.31218,36.56647 C 33.32261,36.5779 33.33355,36.58884 33.34498,36.59927 L 33.36138,36.59927 C 33.37181,36.6107 33.38275,36.62164 33.39418,36.63207 L 33.49258,36.73047 C 33.54865,36.78313 33.615942,36.82238 33.689382,36.845271 L 35.919807,37.484878 C 36.129989,37.594224 36.200071,37.668203 36.23141,37.73088 C 36.231876,37.731812 36.21356,37.8015 36.23141,37.78008 C 36.18846,37.83162 36.042284,37.912459 35.788605,37.960482 C 35.610225,37.996622 35.46477,38.125359 35.407214,38.298023 C 35.349654,38.470689 35.388784,38.660948 35.509802,38.796891 L 35.690204,38.993693 C 35.700604,39.039643 35.718464,39.082953 35.739404,39.157695 C 35.743304,39.171655 35.735104,39.176185 35.739404,39.190495 L 35.739404,42.601732 C 35.739404,42.630172 35.739206,42.662372 35.706604,42.700132 C 35.690074,42.719272 35.652414,42.732932 35.624604,42.732932 L 31.50816,42.732932 C 31.45958,42.732932 31.41976,42.727532 31.393358,42.700132 C 31.393447,42.694632 31.393447,42.689202 31.393358,42.683732 L 28.949732,40.158105 C 28.922342,40.129635 28.916932,40.116575 28.916932,40.059705 L 28.916932,36.582867 C 28.916932,36.526007 28.922332,36.496537 28.949732,36.468066 C 28.969062,36.448266 29.031062,36.435266 29.048132,36.435266 L 33.148176,36.435266 L 33.14818,36.43527 z"
     id="path7235"
     style="opacity:0.53358208;fill:none;stroke:#ffffff;stroke-width:1.00000012;stroke-linecap:round;stroke-linejoin:round;stroke-miterlimit:4;stroke-dashoffset:0.69999992;stroke-opacity:1" />
  <path
     d="M 33.14818,35.926865 C 33.351669,35.926865 33.511184,36.041525 33.623786,36.172868 L 33.640186,36.156468 L 33.656586,36.189268 L 33.836988,36.353269 L 36.067412,36.992876 C 36.084342,36.996576 36.100832,37.002076 36.116612,37.009276 C 36.404685,37.153312 36.590001,37.300046 36.690618,37.501281 C 36.791235,37.702516 36.751768,37.955986 36.625018,38.108088 C 36.452841,38.314699 36.174942,38.397984 35.88701,38.452491 L 36.100212,38.682094 C 36.129752,38.709074 36.152272,38.742844 36.165812,38.780494 C 36.182262,38.844194 36.202492,38.946221 36.231412,39.042897 C 36.239912,39.063907 36.245392,39.085977 36.247812,39.108497 L 36.247812,42.601735 C 36.247812,42.758584 36.188392,42.907002 36.08381,43.02814 C 35.979233,43.149278 35.815705,43.241342 35.624605,43.241342 L 31.508161,43.241342 C 31.338316,43.241342 31.163419,43.180582 31.032555,43.04454 L 28.588929,40.518913 C 28.470386,40.395686 28.408527,40.235703 28.408527,40.059708 L 28.408527,36.58287 C 28.408527,36.406875 28.470387,36.246892 28.588929,36.123665 C 28.706305,36.003423 28.878288,35.926863 29.048134,35.926863 L 33.148178,35.926863 L 33.14818,35.926865 z"
     id="path7229"
     style="fill:none;stroke:#787878;stroke-width:1.00000012;stroke-linecap:round;stroke-linejoin:round;stroke-miterlimit:4;stroke-dashoffset:0.69999992;stroke-opacity:1" />
  <path
     d="M 30.228949,36.172868 L 36.001811,37.484882 L 34.9522,38.27209 L 33.377783,38.27209 L 30.753754,36.697673 L 30.228949,36.172868"
     id="path7184"
     style="fill:url(#linearGradient2948);fill-opacity:1;fill-rule:evenodd;stroke:none" />
  <path
     d="M 32.328171,36.172868 L 36.001811,37.222479 L 33.902589,37.222479 L 30.228949,36.172868 L 32.328171,36.172868"
     id="path7171"
     style="fill:url(#linearGradient2945);fill-opacity:1;fill-rule:evenodd;stroke:none" />
  <path
     d="M 36.001811,37.222479 L 34.053121,37.222479 L 33.902589,37.222479 C 34.9522,37.747285 34.164991,38.27209 33.377783,38.27209 L 35.477006,38.27209 C 36.264214,38.27209 37.051423,37.747285 36.001811,37.222479 L 36.001811,37.222479 z"
     id="rect7173"
     style="fill:url(#linearGradient2942);fill-opacity:1;fill-rule:evenodd;stroke:none" />
  <path
     d="M 34.739216,39.846507 L 32.541155,39.846507 C 32.423162,39.846507 32.328171,39.94891 32.328171,40.07611 L 32.328171,41.716128 C 32.328171,41.843328 32.423161,41.94573 32.541155,41.94573 L 34.739216,41.94573 C 34.857209,41.94573 34.9522,41.843328 34.9522,41.716128 L 34.9522,40.07611 C 34.9522,39.94891 34.85721,39.846507 34.739216,39.846507 z"
     id="path7275"
     style="fill:url(#linearGradient2939);fill-opacity:1;fill-rule:evenodd;stroke:none" />
  <g
     transform="translate(-1,-3.0992553e-7)"
     id="g2531">
    <path
       d="M 25.55613,28.070578 C 25.900719,28.070578 26.179211,28.348783 26.179211,28.693018 L 26.179211,28.848208 C 26.179211,29.006327 26.302867,29.14112 26.472426,29.14112 L 27.315417,29.14112 C 27.660006,29.14112 27.938498,29.520435 27.938498,29.864668 L 27.938498,33.340096 C 27.938498,33.684331 27.660005,33.962536 27.315417,33.962536 L 22.697289,33.962536 C 22.352701,33.962536 22.074209,33.684331 22.074209,33.340096 L 22.074209,29.864668 C 22.074209,29.520434 22.3527,29.14112 22.697289,29.14112 L 23.540281,29.14112 C 23.681445,29.15062 23.833495,29.04066 23.833495,28.857361 L 23.833495,28.693018 C 23.833495,28.348783 24.111988,28.070578 24.456576,28.070578 L 25.55613,28.070578 z"
       id="rect7327"
       style="fill:url(#linearGradient2607);fill-opacity:1;fill-rule:evenodd;stroke:none" />
    <path
       d="M 23.6875,27.78125 C 23.060961,27.78125 22.60232,28.265511 22.46875,28.84375 L 22.125,28.84375 C 21.400875,28.84375 20.78125,29.424669 20.78125,30.15625 L 20.78125,33.25 C 20.78125,33.981581 21.393419,34.593751 22.125,34.59375 L 26.25,34.59375 C 26.98158,34.59375 27.593749,33.981582 27.59375,33.25 L 27.59375,30.15625 C 27.59375,29.424669 26.974125,28.843751 26.25,28.84375 L 25.9375,28.84375 C 25.798176,28.261351 25.314039,27.78125 24.6875,27.78125 L 23.6875,27.78125 z"
       transform="matrix(1.0275229,0,0,1.0275229,0.1467896,-1.0458711)"
       id="path2709"
       style="fill:none;stroke:url(#linearGradient2609);stroke-width:0.97321439;stroke-linecap:round;stroke-linejoin:miter;stroke-miterlimit:4;stroke-dashoffset:0.69999992;stroke-opacity:1" />
    <g
       transform="matrix(-0.5392499,0,0,0.5392499,40.914225,18.327333)"
       id="g7393"
       style="fill-opacity:1;stroke:url(#linearGradient2619);stroke-width:1.85442805">
      <path
         d="M 26.5,26.5 L 26.5,24.5"
         id="path7352"
         style="fill:none;stroke:url(#linearGradient2611);stroke-width:1.85442805px;stroke-linecap:round;stroke-linejoin:miter;stroke-opacity:1" />
      <path
         d="M 28.5,26.5 L 28.5,24.5"
         id="path7362"
         style="fill:none;stroke:url(#linearGradient2613);stroke-width:1.85442805px;stroke-linecap:round;stroke-linejoin:miter;stroke-opacity:1" />
      <path
         d="M 30.5,26.5 L 30.5,24.5"
         id="path7364"
         style="fill:none;stroke:url(#linearGradient2615);stroke-width:1.85442805px;stroke-linecap:round;stroke-linejoin:miter;stroke-opacity:1" />
      <path
         d="M 32.5,26.5 L 32.5,24.5"
         id="path7366"
         style="fill:none;stroke:url(#linearGradient2617);stroke-width:1.85442805px;stroke-linecap:round;stroke-linejoin:miter;stroke-opacity:1" />
    </g>
  </g>
  <path
     d="M 32.492173,39.092099 C 32.492173,39.092099 34.690781,40.807001 36.739819,42.503336 C 37.764339,43.351504 38.680581,44.193762 39.216246,45.012564 C 39.484079,45.421964 39.73429,45.864439 39.56065,46.472179 C 39.47383,46.776049 39.239791,47.0606 38.986644,47.210187 C 38.733496,47.359775 38.4838,47.423379 38.199435,47.45619 C 37.084811,47.584801 35.716588,47.24963 34.082991,46.783783 C 32.449393,46.317936 30.582932,45.690947 28.703732,45.078164 C 26.824532,44.465382 24.927028,43.867929 23.275273,43.503747 C 21.623518,43.139565 20.212977,43.039308 19.404831,43.241344 C 19.022284,43.336984 19.013561,43.399218 19.011227,43.405346 C 19.008927,43.411446 18.977337,43.581382 19.126028,43.897351 C 19.423411,44.529291 20.304288,45.532926 21.323652,46.48858 C 23.36238,48.399887 25.964902,50.22782 25.964902,50.22782 L 25.046492,51.507034 C 25.046492,51.507034 22.400957,49.661327 20.24124,47.636592 C 19.161382,46.624224 18.205438,45.594237 17.715613,44.553359 C 17.4707,44.032919 17.307943,43.444319 17.535211,42.84774 C 17.762479,42.251161 18.344163,41.866493 19.011227,41.699728 C 20.302303,41.376958 21.868395,41.592405 23.619677,41.978531 C 25.370959,42.364656 27.302897,42.952117 29.195737,43.569348 C 31.088578,44.186579 32.936758,44.826503 34.509395,45.274966 C 36.037785,45.710812 37.28978,45.915278 37.904232,45.865373 C 37.578888,45.368061 36.699311,44.5252 35.723008,43.716949 C 33.770404,42.100449 31.540963,40.371313 31.540963,40.371313 L 32.492173,39.092099 L 32.492173,39.092099 z"
     id="path7506"
     style="fill:url(#linearGradient2926);fill-opacity:1;fill-rule:evenodd;stroke:url(#linearGradient2928);stroke-width:0.5;stroke-linecap:butt;stroke-linejoin:round;stroke-miterlimit:4;stroke-dasharray:none;stroke-opacity:1" />
  <path
     d="M 31.975326,39.463193 C 31.975326,39.463193 41.651431,46.121665 38.240194,46.51527 C 34.828957,46.908874 23.545635,41.267213 19.347189,42.316824 C 15.148744,43.366435 25.644858,50.713715 25.644858,50.713715"
     id="path7502"
     style="opacity:0.6;fill:none;stroke:url(#linearGradient2923);stroke-width:0.5;stroke-linecap:butt;stroke-linejoin:miter;stroke-miterlimit:4;stroke-dasharray:none;stroke-opacity:1" />
  <path
     d="M 34.905614,38.813296 L 34.738998,39.862908 L 32.541374,39.862908 C 32.423381,39.862908 32.328172,39.96531 32.328172,40.09251 L 32.328172,41.732528 L 31.27856,41.568526 L 31.27856,39.223301 C 31.27856,39.000701 31.443377,38.813296 31.655764,38.813296 L 34.905614,38.813296 z"
     id="path7512"
     style="fill:url(#linearGradient2920);fill-opacity:1;fill-rule:evenodd;stroke:none" />
  <path
     d="M 34.739216,39.846507 L 32.541155,39.846507 C 32.423162,39.846507 32.328171,39.94891 32.328171,40.07611 L 32.328171,41.716128 C 32.328171,41.843328 32.423161,41.94573 32.541155,41.94573 L 34.739216,41.94573 C 34.857209,41.94573 34.9522,41.843328 34.9522,41.716128 L 34.9522,40.07611 C 34.9522,39.94891 34.85721,39.846507 34.739216,39.846507 z"
     id="path7810"
     style="opacity:0.35447759;fill:url(#linearGradient2917);fill-opacity:1;fill-rule:evenodd;stroke:none" />
</svg>
