<?xml version="1.0" encoding="UTF-8" standalone="no"?>
<!-- Created with Inkscape (http://www.inkscape.org/) -->

<svg
   xmlns:dc="http://purl.org/dc/elements/1.1/"
   xmlns:cc="http://creativecommons.org/ns#"
   xmlns:rdf="http://www.w3.org/1999/02/22-rdf-syntax-ns#"
   xmlns:svg="http://www.w3.org/2000/svg"
   xmlns="http://www.w3.org/2000/svg"
   xmlns:xlink="http://www.w3.org/1999/xlink"
   xmlns:sodipodi="http://sodipodi.sourceforge.net/DTD/sodipodi-0.dtd"
   xmlns:inkscape="http://www.inkscape.org/namespaces/inkscape"
   version="1.0"
   width="48"
   height="48"
   id="svg44406"
   inkscape:version="0.48.2 r9819"
   sodipodi:docname="folder-saved-search.svg">
  <sodipodi:namedview
     pagecolor="#ffffff"
     bordercolor="#666666"
     borderopacity="1"
     objecttolerance="10"
     gridtolerance="10"
     guidetolerance="10"
     inkscape:pageopacity="0"
     inkscape:pageshadow="2"
     inkscape:window-width="690"
     inkscape:window-height="480"
     id="namedview132"
     showgrid="false"
     inkscape:zoom="4.9166667"
     inkscape:cx="21.864407"
     inkscape:cy="24"
     inkscape:window-x="0"
     inkscape:window-y="24"
     inkscape:window-maximized="0"
     inkscape:current-layer="svg44406" />
  <metadata
     id="metadata56">
    <rdf:RDF>
      <cc:Work
         rdf:about="">
        <dc:format>image/svg+xml</dc:format>
        <dc:type
           rdf:resource="http://purl.org/dc/dcmitype/StillImage" />
        <dc:title />
      </cc:Work>
    </rdf:RDF>
  </metadata>
  <defs
     id="defs44408">
    <linearGradient
       id="linearGradient5048-585">
      <stop
         id="stop2667"
         style="stop-color:#000000;stop-opacity:0"
         offset="0" />
      <stop
         id="stop2669"
         style="stop-color:#000000;stop-opacity:1"
         offset="0.5" />
      <stop
         id="stop2671"
         style="stop-color:#000000;stop-opacity:0"
         offset="1" />
    </linearGradient>
    <linearGradient
       id="linearGradient5060-179">
      <stop
         id="stop2675"
         style="stop-color:#000000;stop-opacity:1"
         offset="0" />
      <stop
         id="stop2677"
         style="stop-color:#000000;stop-opacity:0"
         offset="1" />
    </linearGradient>
    <linearGradient
       id="linearGradient5060-820">
      <stop
         id="stop2681"
         style="stop-color:#000000;stop-opacity:1"
         offset="0" />
      <stop
         id="stop2683"
         style="stop-color:#000000;stop-opacity:0"
         offset="1" />
    </linearGradient>
    <linearGradient
       id="linearGradient8265-821-176-38-919-66-249">
      <stop
         id="stop2687"
         style="stop-color:#ffffff;stop-opacity:0.2"
         offset="0" />
      <stop
         id="stop2689"
         style="stop-color:#ffffff;stop-opacity:0"
         offset="1" />
    </linearGradient>
    <linearGradient
       id="linearGradient3707-319-631-407-324">
      <stop
         id="stop3760"
         style="stop-color:#185f9a;stop-opacity:1"
         offset="0" />
      <stop
         id="stop3762"
         style="stop-color:#599ec9;stop-opacity:1"
         offset="1" />
    </linearGradient>
    <linearGradient
       id="linearGradient3924">
      <stop
         id="stop3926"
         style="stop-color:#ffffff;stop-opacity:1"
         offset="0" />
      <stop
         id="stop3928"
         style="stop-color:#ffffff;stop-opacity:0.23529412"
         offset="0.06316455" />
      <stop
         id="stop3930"
         style="stop-color:#ffffff;stop-opacity:0.15686275"
         offset="0.95056331" />
      <stop
         id="stop3932"
         style="stop-color:#ffffff;stop-opacity:0.39215687"
         offset="1" />
    </linearGradient>
    <radialGradient
       cx="68.350014"
       cy="11.66932"
       r="23.097054"
       fx="68.350014"
       fy="11.66932"
       id="radialGradient3298"
       xlink:href="#linearGradient3671-580"
       gradientUnits="userSpaceOnUse"
       gradientTransform="matrix(2.1906824,0,0,1.5429848,-126.50566,0.98540203)" />
    <linearGradient
       x1="82.453476"
       y1="45.114193"
       x2="82.453476"
       y2="17.114193"
       id="linearGradient3300"
       xlink:href="#linearGradient3707-662-8"
       gradientUnits="userSpaceOnUse"
       gradientTransform="translate(-53.765393,-0.1141929)" />
    <radialGradient
       cx="605.71429"
       cy="486.64789"
       r="117.14286"
       fx="605.71429"
       fy="486.64789"
       id="radialGradient3303"
       xlink:href="#linearGradient5060-820"
       gradientUnits="userSpaceOnUse"
       gradientTransform="matrix(-0.03079083,0,0,0.02470588,23.389748,31.941642)" />
    <radialGradient
       cx="605.71429"
       cy="486.64789"
       r="117.14286"
       fx="605.71429"
       fy="486.64789"
       id="radialGradient3306"
       xlink:href="#linearGradient5060-179"
       gradientUnits="userSpaceOnUse"
       gradientTransform="matrix(0.03079083,0,0,0.02470588,24.610252,31.941642)" />
    <linearGradient
       x1="302.85715"
       y1="366.64789"
       x2="302.85715"
       y2="609.50507"
       id="linearGradient3309"
       xlink:href="#linearGradient5048-585"
       gradientUnits="userSpaceOnUse"
       gradientTransform="matrix(0.07938856,0,0,0.02470588,-4.693293,31.941642)" />
    <linearGradient
       x1="20.241671"
       y1="16.854635"
       x2="20.241671"
       y2="44.189312"
       id="linearGradient4173"
       xlink:href="#linearGradient3924"
       gradientUnits="userSpaceOnUse" />
    <linearGradient
       x1="62.988873"
       y1="13.182598"
       x2="62.988873"
       y2="16.19013"
       id="linearGradient3312-6"
       xlink:href="#linearGradient6404-5"
       gradientUnits="userSpaceOnUse"
       gradientTransform="translate(-50.940898,0)" />
    <linearGradient
       id="linearGradient6404-5">
      <stop
         id="stop6406-9"
         style="stop-color:#f9f9f9;stop-opacity:1"
         offset="0" />
      <stop
         id="stop6408-5"
         style="stop-color:#c9c9c9;stop-opacity:1"
         offset="1" />
    </linearGradient>
    <linearGradient
       x1="15.251872"
       y1="8.971468"
       x2="15.251872"
       y2="43.271637"
       id="linearGradient4243-3"
       xlink:href="#linearGradient4256-2"
       gradientUnits="userSpaceOnUse" />
    <linearGradient
       id="linearGradient4256-2">
      <stop
         id="stop4258-4"
         style="stop-color:#ffffff;stop-opacity:1"
         offset="0" />
      <stop
         id="stop4260-8"
         style="stop-color:#ffffff;stop-opacity:0.23529412"
         offset="0.07840313" />
      <stop
         id="stop4262-2"
         style="stop-color:#ffffff;stop-opacity:0.15686275"
         offset="0.95056331" />
      <stop
         id="stop4264-3"
         style="stop-color:#ffffff;stop-opacity:0.39215687"
         offset="1" />
    </linearGradient>
    <linearGradient
       x1="-26.679379"
       y1="52.029003"
       x2="-26.679379"
       y2="24.893768"
       id="linearGradient5295"
       xlink:href="#linearGradient3707-319-631-407-324"
       gradientUnits="userSpaceOnUse" />
    <linearGradient
       id="linearGradient3707-319-631-407-324-7">
      <stop
         id="stop3760-9"
         style="stop-color:#185f9a;stop-opacity:1"
         offset="0" />
      <stop
         id="stop3762-5"
         style="stop-color:#599ec9;stop-opacity:1"
         offset="1" />
    </linearGradient>
    <linearGradient
       x1="-26.679379"
       y1="52.029003"
       x2="-26.679379"
       y2="24.893768"
       id="linearGradient5313"
       xlink:href="#linearGradient3707-319-631-407-324-7"
       gradientUnits="userSpaceOnUse" />
    <linearGradient
       id="linearGradient3707-319-631-407-324-7-4">
      <stop
         id="stop3760-9-2"
         style="stop-color:#185f9a;stop-opacity:1"
         offset="0" />
      <stop
         id="stop3762-5-7"
         style="stop-color:#599ec9;stop-opacity:1"
         offset="1" />
    </linearGradient>
    <linearGradient
       x1="-26.679379"
       y1="52.029003"
       x2="-26.679379"
       y2="24.893768"
       id="linearGradient5349"
       xlink:href="#linearGradient3707-319-631-407-324-7-4"
       gradientUnits="userSpaceOnUse" />
    <linearGradient
       x1="11.566265"
       y1="22.292103"
       x2="15.214532"
       y2="33.95525"
       id="linearGradient3051"
       xlink:href="#linearGradient8265-821-176-38-919-66-249"
       gradientUnits="userSpaceOnUse" />
    <linearGradient
       x1="28.461405"
       y1="48.618786"
       x2="28.461405"
       y2="0.086935677"
       id="linearGradient3135"
       xlink:href="#linearGradient3707-662-8-2-3"
       gradientUnits="userSpaceOnUse" />
    <linearGradient
       id="linearGradient3707-662-8-2-3">
      <stop
         id="stop4098-6-54-1"
         style="stop-color:#542f57;stop-opacity:1"
         offset="0" />
      <stop
         id="stop4100-2-2-4"
         style="stop-color:#bb5ca4;stop-opacity:1"
         offset="1" />
    </linearGradient>
    <linearGradient
       id="linearGradient3707-662-8-9-6">
      <stop
         id="stop4098-6-5-8"
         style="stop-color:#542f57;stop-opacity:1"
         offset="0" />
      <stop
         id="stop4100-2-0-8"
         style="stop-color:#bb5ca4;stop-opacity:1"
         offset="1" />
    </linearGradient>
    <linearGradient
       x1="28.461405"
       y1="48.618786"
       x2="28.461405"
       y2="0.086935677"
       id="linearGradient4002-8"
       xlink:href="#linearGradient3707-662-8-9-6"
       gradientUnits="userSpaceOnUse" />
    <linearGradient
       id="linearGradient3707-662-8-3">
      <stop
         id="stop4098-6-0"
         style="stop-color:#542f57;stop-opacity:1"
         offset="0" />
      <stop
         id="stop4100-2-7"
         style="stop-color:#bb5ca4;stop-opacity:1"
         offset="1" />
    </linearGradient>
    <linearGradient
       x1="28.461405"
       y1="48.618786"
       x2="28.461405"
       y2="0.086935677"
       id="linearGradient3985-4"
       xlink:href="#linearGradient3707-662-8-3"
       gradientUnits="userSpaceOnUse" />
    <linearGradient
       id="linearGradient3702-501-757">
      <stop
         id="stop2895"
         style="stop-color:#181818;stop-opacity:0"
         offset="0" />
      <stop
         id="stop2897"
         style="stop-color:#181818;stop-opacity:1"
         offset="0.5" />
      <stop
         id="stop2899"
         style="stop-color:#181818;stop-opacity:0"
         offset="1" />
    </linearGradient>
    <linearGradient
       x1="25.058096"
       y1="47.027729"
       x2="25.058096"
       y2="39.999443"
       id="linearGradient3188"
       xlink:href="#linearGradient3702-501-757"
       gradientUnits="userSpaceOnUse" />
    <linearGradient
       id="linearGradient3688-464-309">
      <stop
         id="stop2889"
         style="stop-color:#181818;stop-opacity:1"
         offset="0" />
      <stop
         id="stop2891"
         style="stop-color:#181818;stop-opacity:0"
         offset="1" />
    </linearGradient>
    <radialGradient
       cx="4.9929786"
       cy="43.5"
       r="2.5"
       fx="4.9929786"
       fy="43.5"
       id="radialGradient3186"
       xlink:href="#linearGradient3688-464-309"
       gradientUnits="userSpaceOnUse"
       gradientTransform="matrix(2.003784,0,0,1.4,-20.01187,-104.4)" />
    <linearGradient
       id="linearGradient3688-166-749">
      <stop
         id="stop2883"
         style="stop-color:#181818;stop-opacity:1"
         offset="0" />
      <stop
         id="stop2885"
         style="stop-color:#181818;stop-opacity:0"
         offset="1" />
    </linearGradient>
    <radialGradient
       cx="4.9929786"
       cy="43.5"
       r="2.5"
       fx="4.9929786"
       fy="43.5"
       id="radialGradient3184"
       xlink:href="#linearGradient3688-166-749"
       gradientUnits="userSpaceOnUse"
       gradientTransform="matrix(2.003784,0,0,1.4,27.98813,-17.4)" />
    <linearGradient
       x1="24"
       y1="44"
       x2="24"
       y2="3.8990016"
       id="linearGradient3223"
       xlink:href="#linearGradient3707-662-8"
       gradientUnits="userSpaceOnUse"
       gradientTransform="matrix(1.4102565,0,0,1.4102565,-1.8461544,-1.8461542)" />
    <linearGradient
       id="linearGradient3671-580">
      <stop
         id="stop4088"
         style="stop-color:#fc93dc;stop-opacity:1"
         offset="0" />
      <stop
         id="stop4090"
         style="stop-color:#da72d3;stop-opacity:1"
         offset="0.26238" />
      <stop
         id="stop4092"
         style="stop-color:#a33fab;stop-opacity:1"
         offset="0.704952" />
      <stop
         id="stop4094"
         style="stop-color:#502b58;stop-opacity:1"
         offset="1" />
    </linearGradient>
    <radialGradient
       cx="7.4956832"
       cy="8.4497671"
       r="19.99999"
       fx="7.4956832"
       fy="8.4497671"
       id="radialGradient3221"
       xlink:href="#linearGradient3671-580"
       gradientUnits="userSpaceOnUse"
       gradientTransform="matrix(2.7399122e-8,3.2957553,-3.4865161,-6.0720391e-8,61.460404,-19.38241)" />
    <linearGradient
       id="linearGradient3924-7">
      <stop
         id="stop3926-6"
         style="stop-color:#ffffff;stop-opacity:1"
         offset="0" />
      <stop
         id="stop3928-3"
         style="stop-color:#ffffff;stop-opacity:0.23529412"
         offset="0.06316455" />
      <stop
         id="stop3930-1"
         style="stop-color:#ffffff;stop-opacity:0.15686275"
         offset="0.95056331" />
      <stop
         id="stop3932-7"
         style="stop-color:#ffffff;stop-opacity:0.39215687"
         offset="1" />
    </linearGradient>
    <linearGradient
       x1="23.99999"
       y1="4.999989"
       x2="23.99999"
       y2="43"
       id="linearGradient3218"
       xlink:href="#linearGradient3924-7"
       gradientUnits="userSpaceOnUse"
       gradientTransform="matrix(1.4324324,0,0,1.4362832,-2.3783747,-2.4707827)" />
    <linearGradient
       id="linearGradient8265-821-176-38-919-66-249-7-7">
      <stop
         id="stop2687-1-9"
         style="stop-color:#ffffff;stop-opacity:1"
         offset="0" />
      <stop
         id="stop2689-5-4"
         style="stop-color:#ffffff;stop-opacity:0"
         offset="1" />
    </linearGradient>
    <linearGradient
       x1="16.626165"
       y1="15.298182"
       x2="20.054544"
       y2="24.627615"
       id="linearGradient3215"
       xlink:href="#linearGradient8265-821-176-38-919-66-249-7-7"
       gradientUnits="userSpaceOnUse"
       gradientTransform="matrix(1.1723404,0,0,1.8434143,3.8089875,-5.5299719)" />
    <linearGradient
       id="linearGradient3707-662-8-2">
      <stop
         id="stop4098-6-54"
         style="stop-color:#542f57;stop-opacity:1"
         offset="0" />
      <stop
         id="stop4100-2-2"
         style="stop-color:#bb5ca4;stop-opacity:1"
         offset="1" />
    </linearGradient>
    <linearGradient
       x1="28.461405"
       y1="48.618786"
       x2="28.461405"
       y2="0.086935677"
       id="linearGradient4002-7"
       xlink:href="#linearGradient3707-662-8-2"
       gradientUnits="userSpaceOnUse" />
    <linearGradient
       id="linearGradient3707-662-8-9">
      <stop
         id="stop4098-6-5"
         style="stop-color:#542f57;stop-opacity:1"
         offset="0" />
      <stop
         id="stop4100-2-0"
         style="stop-color:#bb5ca4;stop-opacity:1"
         offset="1" />
    </linearGradient>
    <linearGradient
       x1="28.461405"
       y1="48.618786"
       x2="28.461405"
       y2="0.086935677"
       id="linearGradient4002"
       xlink:href="#linearGradient3707-662-8-9"
       gradientUnits="userSpaceOnUse" />
    <linearGradient
       id="linearGradient3707-662-8">
      <stop
         id="stop4098-6"
         style="stop-color:#542f57;stop-opacity:1"
         offset="0" />
      <stop
         id="stop4100-2"
         style="stop-color:#bb5ca4;stop-opacity:1"
         offset="1" />
    </linearGradient>
    <linearGradient
       x1="28.461405"
       y1="48.618786"
       x2="28.461405"
       y2="0.086935677"
       id="linearGradient3985"
       xlink:href="#linearGradient3707-662-8"
       gradientUnits="userSpaceOnUse" />
    <linearGradient
       x1="23.06352"
       y1="12.978221"
       x2="23.06352"
       y2="36.949589"
       id="linearGradient4326"
       xlink:href="#linearGradient4311"
       gradientUnits="userSpaceOnUse"
       gradientTransform="matrix(1,0,0,-1,0,56.012147)" />
    <linearGradient
       id="linearGradient4311">
      <stop
         id="stop4313"
         style="stop-color:#000000;stop-opacity:1"
         offset="0" />
      <stop
         id="stop4315"
         style="stop-color:#000000;stop-opacity:0"
         offset="1" />
    </linearGradient>
    <linearGradient
       x1="23.06352"
       y1="12.978221"
       x2="23.06352"
       y2="36.949589"
       id="linearGradient4320"
       xlink:href="#linearGradient4311"
       gradientUnits="userSpaceOnUse"
       gradientTransform="translate(0,6)" />
    <linearGradient
       x1="19.927404"
       y1="44.949184"
       x2="19.927404"
       y2="4.9969058"
       id="linearGradient4273"
       xlink:href="#linearGradient3707-662-8-9-6"
       gradientUnits="userSpaceOnUse"
       gradientTransform="translate(0,6)" />
    <linearGradient
       x1="16"
       y1="9"
       x2="16"
       y2="25"
       id="linearGradient3033"
       xlink:href="#linearGradient4687"
       gradientUnits="userSpaceOnUse"
       gradientTransform="matrix(1,0,0,-1,0,50.00359)" />
    <linearGradient
       id="linearGradient4687">
      <stop
         id="stop4689"
         style="stop-color:#000000;stop-opacity:1"
         offset="0" />
      <stop
         id="stop4691"
         style="stop-color:#000000;stop-opacity:0"
         offset="1" />
    </linearGradient>
    <linearGradient
       x1="16"
       y1="9"
       x2="16"
       y2="25"
       id="linearGradient3036"
       xlink:href="#linearGradient4687"
       gradientUnits="userSpaceOnUse"
       gradientTransform="translate(0,16)" />
    <linearGradient
       x1="19.927404"
       y1="44.949184"
       x2="19.927404"
       y2="4.9969058"
       id="linearGradient3039"
       xlink:href="#linearGradient3707-319-631-407-324-616-4-2"
       gradientUnits="userSpaceOnUse"
       gradientTransform="matrix(0.66666666,0,0,0.66666666,1.1e-6,16.333333)" />
    <linearGradient
       id="linearGradient3707-319-631-407-324-616-4-2">
      <stop
         id="stop3246-4-3-3"
         style="stop-color:#505050;stop-opacity:1"
         offset="0" />
      <stop
         id="stop3248-4-9-1"
         style="stop-color:#8e8e8e;stop-opacity:1"
         offset="1" />
    </linearGradient>
  </defs>
  <path
     d="m 5.5,8.5 c -0.554,0 -1,0.446 -1,1 l 0,2 -1,0 c -0.554,0 -1,0.446 -1,1 l 0,11 43,0 0,-11 c 0,-0.554 -0.446,-1 -1,-1 l -23,0 0,-2 c 0,-0.554 -0.446,-1 -1,-1 z"
     id="rect4268"
     style="color:#000000;fill:url(#linearGradient3312-6);fill-opacity:1;fill-rule:nonzero;stroke:#bebebe;stroke-width:1.00000012;stroke-linecap:round;stroke-linejoin:round;stroke-miterlimit:4;stroke-opacity:1;stroke-dasharray:none;stroke-dashoffset:0;marker:none;visibility:visible;display:inline;overflow:visible;enable-background:accumulate" />
  <rect
     width="38.333332"
     height="6.0000005"
     x="4.833334"
     y="41"
     id="rect4173"
     style="opacity:0.3;fill:url(#linearGradient3309);fill-opacity:1;fill-rule:nonzero;stroke:none;stroke-width:1;marker:none;visibility:visible;display:inline;overflow:visible" />
  <path
     d="m 4.833334,41.000208 c 0,0 0,5.99967 0,5.99967 -1.5856518,0.01129 -3.8333332,-1.344222 -3.8333332,-3.000221 0,-1.656 1.7694674,-2.999449 3.8333332,-2.999449 z"
     id="path5018"
     style="opacity:0.3;fill:url(#radialGradient3303);fill-opacity:1;fill-rule:nonzero;stroke:none;stroke-width:1;marker:none;visibility:visible;display:inline;overflow:visible" />
  <path
     d="m 5.5,9.5 0,3 -2,0 0,13 41,0 0,-13 -24,0 0,-3 -15,0 z"
     id="rect4306"
     style="color:#000000;fill:none;stroke:url(#linearGradient4243-3);stroke-width:1;stroke-linecap:round;stroke-linejoin:miter;stroke-miterlimit:4;stroke-opacity:1;stroke-dasharray:none;stroke-dashoffset:0;marker:none;visibility:visible;display:inline;overflow:visible;enable-background:accumulate" />
  <path
     d="m 2.1628556,16.525193 c -1.072707,0.123694 -0.49977,1.402118 -0.585297,2.121012 l 0.9278273,25.239602 c 0,0.714864 0.3518537,0.59375 1.2433944,0.59375 l 40.9765777,0 c 0.960443,0.02229 0.757466,0.01162 0.757466,-0.605024 l 1.028886,-26.78684 c 0,-0.433404 0.09019,-0.5625 -0.473341,-0.5625 -14.089374,0 -29.786135,0 -43.8755134,0 z"
     id="path3388"
     style="fill:url(#radialGradient3298);fill-opacity:1;stroke:url(#linearGradient3300);stroke-width:1;stroke-linecap:round;stroke-linejoin:round;stroke-miterlimit:4;stroke-opacity:1;stroke-dashoffset:0" />
  <path
     d="m 2.21875,17.03125 c -0.058164,0.02465 -0.1435585,0.04156 -0.15625,0.0625 -0.020141,0.03323 -0.062834,0.200101 -0.0625,0.46875 6.24e-4,0.501099 0.1794726,1.278666 0.125,2.15625 l 0.03125,0 c 0.2029652,3.805865 0.2914674,7.616397 0.53125,11.375 14.3797,-2.260838 28.687247,-4.415974 42.8125,-6.75 0.251205,-1.100909 0.423388,-2.514003 0.46875,-3.875 0.05136,-1.540882 0.0075,-2.777575 0.03125,-3.40625 -14.478395,0.07186 -29.316865,-0.05144 -43.78125,-0.03125 z"
     id="path3049"
     style="fill:url(#linearGradient3051);fill-opacity:1;stroke:none" />
  <path
     d="m 2.46875,17.5 c 0.01402,0.180248 0.021584,0.540694 0.03125,0.90625 0.062819,0.234442 0.024849,0.208559 0.03125,0.28125 -0.00343,0.04321 0.00535,0.04878 0,0.09375 0.00397,0.05245 0.027036,0.09004 0.03125,0.15625 0.013361,0.209932 0.014052,0.490938 0.03125,0.84375 0.034397,0.705624 0.078079,1.681433 0.125,2.84375 0.093841,2.324634 0.2343105,5.395945 0.34375,8.46875 0.1094395,3.072805 0.2030513,6.163726 0.28125,8.53125 0.071305,2.158805 0.1169238,3.357976 0.125,3.875 0.1275801,0.0035 0.080886,0 0.28125,0 l 40.78125,0 c 6.17e-4,-0.01182 -6.4e-4,-0.01874 0,-0.03125 0.01039,-0.20332 0.01526,-0.504651 0.03125,-0.875 0.03198,-0.740699 0.07643,-1.785256 0.125,-3.03125 0.09714,-2.491988 0.221461,-5.760482 0.34375,-9.0625 0.122289,-3.302018 0.250877,-6.619228 0.34375,-9.125 0.04644,-1.252886 0.06487,-2.309184 0.09375,-3.0625 0.01295,-0.337739 0.02279,-0.603665 0.03125,-0.8125 l -43.03125,0 z"
     transform="matrix(0.99927378,0,0,0.99994077,0.0330429,0.00103659)"
     id="path4161"
     style="opacity:0.5;fill:none;stroke:url(#linearGradient4173);stroke-width:1.00039303;stroke-linecap:round;stroke-linejoin:round;stroke-miterlimit:4;stroke-opacity:1;stroke-dashoffset:0" />
  <path
     d="m 23,20 c -0.554,0 -1,0.446 -1,1 l 0,2.25 c -1.005406,0.228939 -1.934872,0.621619 -2.78125,1.15625 L 17.625,22.8125 c -0.391737,-0.391737 -1.014512,-0.391737 -1.40625,0 l -1.40625,1.40625 c -0.391737,0.391737 -0.391737,1.014512 0,1.40625 l 1.59375,1.59375 C 15.871619,28.065128 15.478939,28.994594 15.25,30 L 13,30 c -0.554,0 -1,0.446 -1,1 l 0,2 c 0,0.554 0.446,1 1,1 l 2.25,0 c 0.228939,1.005406 0.621619,1.934872 1.15625,2.78125 L 14.8125,38.375 c -0.391737,0.391737 -0.391737,1.014512 0,1.40625 l 1.40625,1.40625 c 0.391737,0.391737 1.014512,0.391739 1.40625,0 l 1.59375,-1.59375 C 20.065128,40.128381 20.994594,40.521061 22,40.75 L 22,43 c 0,0.554 0.446,1 1,1 l 2,0 c 0.554,0 1,-0.446 1,-1 l 0,-2.25 c 1.005406,-0.228939 1.934872,-0.621619 2.78125,-1.15625 L 30.375,41.1875 c 0.391737,0.391737 1.014512,0.391735 1.40625,0 l 1.40625,-1.40625 c 0.391737,-0.391737 0.391739,-1.014514 0,-1.40625 L 31.59375,36.78125 C 32.128381,35.934872 32.521061,35.005406 32.75,34 L 35,34 c 0.554,0 1,-0.446 1,-1 l 0,-2 c 0,-0.554 -0.446,-1 -1,-1 l -2.25,0 C 32.521061,28.994594 32.128381,28.065128 31.59375,27.21875 L 33.1875,25.625 c 0.391737,-0.391737 0.391735,-1.014512 0,-1.40625 L 31.78125,22.8125 c -0.391737,-0.391737 -1.014514,-0.391737 -1.40625,0 l -1.59375,1.59375 C 27.934872,23.871619 27.005406,23.478939 26,23.25 L 26,21 c 0,-0.554 -0.446,-1 -1,-1 l -2,0 z m 1,8 c 2.208,-1e-6 4,1.792 4,4 0,2.208001 -1.792,4 -4,4 -2.207999,10e-7 -4,-1.792 -4,-4 1e-6,-2.207999 1.792,-4 4,-4 z"
     id="path3576"
     style="opacity:0.3;fill:#ffffff;fill-opacity:1;fill-rule:nonzero;stroke:none;stroke-width:1.70000005000000010;marker:none;visibility:visible;display:inline;overflow:visible;enable-background:accumulate" />
  <path
     d="m 23,19 c -0.554,0 -1,0.446 -1,1 l 0,2.25 c -1.005406,0.228939 -1.934872,0.621619 -2.78125,1.15625 L 17.625,21.8125 c -0.391737,-0.391737 -1.014512,-0.391737 -1.40625,0 l -1.40625,1.40625 c -0.391737,0.391737 -0.391737,1.014512 0,1.40625 l 1.59375,1.59375 C 15.871619,27.065128 15.478939,27.994594 15.25,29 L 13,29 c -0.554,0 -1,0.446 -1,1 l 0,2 c 0,0.554 0.446,1 1,1 l 2.25,0 c 0.228939,1.005406 0.621619,1.934872 1.15625,2.78125 L 14.8125,37.375 c -0.391737,0.391737 -0.391737,1.014512 0,1.40625 l 1.40625,1.40625 c 0.391737,0.391737 1.014512,0.391739 1.40625,0 l 1.59375,-1.59375 C 20.065128,39.128381 20.994594,39.521061 22,39.75 L 22,42 c 0,0.554 0.446,1 1,1 l 2,0 c 0.554,0 1,-0.446 1,-1 l 0,-2.25 c 1.005406,-0.228939 1.934872,-0.621619 2.78125,-1.15625 L 30.375,40.1875 c 0.391737,0.391737 1.014512,0.391735 1.40625,0 l 1.40625,-1.40625 c 0.391737,-0.391737 0.391739,-1.014514 0,-1.40625 L 31.59375,35.78125 C 32.128381,34.934872 32.521061,34.005406 32.75,33 L 35,33 c 0.554,0 1,-0.446 1,-1 l 0,-2 c 0,-0.554 -0.446,-1 -1,-1 l -2.25,0 C 32.521061,27.994594 32.128381,27.065128 31.59375,26.21875 L 33.1875,24.625 c 0.391737,-0.391737 0.391735,-1.014512 0,-1.40625 L 31.78125,21.8125 c -0.391737,-0.391737 -1.014514,-0.391737 -1.40625,0 l -1.59375,1.59375 C 27.934872,22.871619 27.005406,22.478939 26,22.25 L 26,20 c 0,-0.554 -0.446,-1 -1,-1 l -2,0 z m 1,8 c 2.208,-1e-6 4,1.792 4,4 0,2.208001 -1.792,4 -4,4 -2.207999,10e-7 -4,-1.792 -4,-4 1e-6,-2.207999 1.792,-4 4,-4 z"
     id="rect3557"
     style="fill:url(#linearGradient4273);fill-opacity:1;fill-rule:nonzero;stroke:none;stroke-width:1.70000005;marker:none;visibility:visible;display:inline;overflow:visible;enable-background:accumulate" />
  <path
     d="m 23,19.5 c -0.749401,0.100836 -0.431654,0.994225 -0.5,1.518234 -0.06533,0.505749 0.140724,1.086074 -0.12176,1.542612 -0.702909,0.394465 -1.600472,0.431983 -2.295042,0.897674 -0.368254,0.219801 -0.942772,0.697238 -1.304198,0.19548 -0.563059,-0.530393 -1.065881,-1.133181 -1.668933,-1.615507 -0.61966,-0.113046 -0.926793,0.604823 -1.363567,0.933757 -0.356937,0.370601 -1.120901,0.895364 -0.49425,1.405 0.521006,0.563212 1.1377,1.054596 1.601314,1.661112 0.101607,0.683744 -0.65736,1.185459 -0.763484,1.851492 -0.340041,0.473597 -0.117836,1.376389 -0.752416,1.600101 -0.844118,0.04661 -1.699625,-0.04394 -2.539298,0.047 -0.511261,0.358077 -0.221958,1.078608 -0.298366,1.617043 0.0139,0.512518 -0.167193,1.427591 0.635765,1.346002 0.76525,0.03035 1.547786,-0.05969 2.302854,0.04284 0.559354,0.427849 0.378343,1.337151 0.788769,1.895194 0.09666,0.558648 0.902573,1.05374 0.560525,1.642398 -0.567778,0.616545 -1.223987,1.158215 -1.74942,1.809501 -0.113046,0.61966 0.604823,0.926793 0.933757,1.363567 0.370601,0.356937 0.895364,1.120901 1.405,0.49425 0.563212,-0.521006 1.054596,-1.1377 1.661112,-1.601314 0.683744,-0.101607 1.185459,0.65736 1.851492,0.763484 0.473597,0.340041 1.376389,0.117836 1.600101,0.752416 0.04661,0.844118 -0.04394,1.699625 0.047,2.539298 0.358077,0.511261 1.078608,0.221958 1.617043,0.298366 0.512518,-0.0139 1.427591,0.167193 1.346002,-0.635765 0.03035,-0.76525 -0.05969,-1.547786 0.04284,-2.302854 0.427849,-0.559354 1.337151,-0.378343 1.895194,-0.788769 0.558648,-0.09666 1.05374,-0.902573 1.642398,-0.560525 0.616545,0.567778 1.158215,1.223987 1.809501,1.74942 0.61966,0.113046 0.926793,-0.604823 1.363567,-0.933757 0.356937,-0.370601 1.1209,-0.895364 0.49425,-1.405 -0.521006,-0.563212 -1.1377,-1.054596 -1.601314,-1.661112 -0.101607,-0.683744 0.65736,-1.185459 0.763484,-1.851492 0.340041,-0.473597 0.117836,-1.376389 0.752416,-1.600101 0.844118,-0.04661 1.699625,0.04394 2.539298,-0.047 C 35.712895,32.104968 35.423592,31.384437 35.5,30.846002 35.4861,30.333484 35.667193,29.418411 34.864235,29.5 c -0.76525,-0.03035 -1.547786,0.05969 -2.302854,-0.04284 -0.559354,-0.427849 -0.378343,-1.337151 -0.788769,-1.895194 -0.09666,-0.558648 -0.902573,-1.05374 -0.560525,-1.642398 0.567778,-0.616545 1.223987,-1.158215 1.74942,-1.809501 0.113046,-0.61966 -0.604823,-0.926793 -0.933757,-1.363567 -0.370601,-0.356938 -0.895364,-1.120899 -1.405,-0.49425 -0.563212,0.521006 -1.054596,1.1377 -1.661112,1.601314 -0.683744,0.101607 -1.185459,-0.65736 -1.851492,-0.763484 -0.473597,-0.340041 -1.376389,-0.117836 -1.600101,-0.752416 -0.04661,-0.844118 0.04394,-1.699625 -0.047,-2.539298 C 25.104968,19.287105 24.384437,19.576408 23.846002,19.5 c -0.282001,0 -0.564001,0 -0.846002,0 z"
     id="path4324"
     style="opacity:0.1;fill:none;stroke:url(#linearGradient4320);stroke-width:1;stroke-miterlimit:4;stroke-opacity:1;stroke-dasharray:none;marker:none;visibility:visible;display:inline;overflow:visible;enable-background:accumulate" />
  <path
     d="m 24,35.512147 c 2.652547,0.07738 4.932812,-2.569049 4.447817,-5.18209 -0.330082,-2.625026 -3.271414,-4.486105 -5.78081,-3.614406 -2.463048,0.698295 -3.887996,3.705348 -2.811417,6.042226 0.679292,1.634262 2.368996,2.773583 4.14441,2.75427 z"
     id="path4309"
     style="opacity:0.1;fill:none;stroke:url(#linearGradient4326);stroke-width:1;stroke-miterlimit:4;stroke-opacity:1;stroke-dasharray:none;marker:none;visibility:visible;display:inline;overflow:visible;enable-background:accumulate" />
</svg>
