<?xml version="1.0" encoding="UTF-8" standalone="no"?>
<!-- Created with Inkscape (http://www.inkscape.org/) -->

<svg
   xmlns:dc="http://purl.org/dc/elements/1.1/"
   xmlns:cc="http://creativecommons.org/ns#"
   xmlns:rdf="http://www.w3.org/1999/02/22-rdf-syntax-ns#"
   xmlns:svg="http://www.w3.org/2000/svg"
   xmlns="http://www.w3.org/2000/svg"
   xmlns:xlink="http://www.w3.org/1999/xlink"
   xmlns:sodipodi="http://sodipodi.sourceforge.net/DTD/sodipodi-0.dtd"
   xmlns:inkscape="http://www.inkscape.org/namespaces/inkscape"
   width="48px"
   height="48px"
   id="svg4111"
   version="1.1"
   inkscape:version="0.48.0 r9654"
   sodipodi:docname="folder-ubuntuone.svg">
  <defs
     id="defs4113">
    <linearGradient
       inkscape:collect="always"
       xlink:href="#linearGradient4222-7"
       id="linearGradient3180"
       gradientUnits="userSpaceOnUse"
       x1="17.422222"
       y1="7.2707062"
       x2="17.422222"
       y2="24.373737" />
    <linearGradient
       id="linearGradient4222-7">
      <stop
         offset="0"
         style="stop-color:#ffffff;stop-opacity:1"
         id="stop4224-9" />
      <stop
         offset="1"
         style="stop-color:#ffffff;stop-opacity:0"
         id="stop4226-3" />
    </linearGradient>
    <linearGradient
       inkscape:collect="always"
       xlink:href="#linearGradient4222-7"
       id="linearGradient3178"
       gradientUnits="userSpaceOnUse"
       gradientTransform="matrix(0.99764152,0,0,0.99856473,5.9349337,-0.2205492)"
       x1="15.421071"
       y1="8.169775"
       x2="15.421071"
       y2="44.350163" />
    <linearGradient
       inkscape:collect="always"
       xlink:href="#linearGradient4747"
       id="linearGradient3182"
       gradientUnits="userSpaceOnUse"
       gradientTransform="matrix(0.4503686,2.452074e-4,-2.742051e-4,0.40274137,52.788895,-1.9657329)"
       x1="-67.701897"
       y1="23.898327"
       x2="-67.681168"
       y2="57.938599" />
    <linearGradient
       id="linearGradient4747">
      <stop
         offset="0"
         style="stop-color:#ffffff;stop-opacity:1;"
         id="stop4749" />
      <stop
         offset="1"
         style="stop-color:#d2d2d2;stop-opacity:1;"
         id="stop4751" />
    </linearGradient>
    <linearGradient
       inkscape:collect="always"
       xlink:href="#linearGradient4747"
       id="linearGradient3184"
       gradientUnits="userSpaceOnUse"
       gradientTransform="matrix(0.4503686,2.452074e-4,-2.742051e-4,0.40274137,52.788895,-1.9657329)"
       x1="-67.701897"
       y1="23.898327"
       x2="-67.677078"
       y2="64.665039" />
    <linearGradient
       inkscape:collect="always"
       xlink:href="#linearGradient4747"
       id="linearGradient3186"
       gradientUnits="userSpaceOnUse"
       gradientTransform="matrix(0.4503686,2.452074e-4,-2.742051e-4,0.40274137,52.788895,-1.9657329)"
       x1="-67.701897"
       y1="23.898327"
       x2="-67.680984"
       y2="58.244873" />
    <linearGradient
       inkscape:collect="always"
       xlink:href="#linearGradient4747"
       id="linearGradient3188"
       gradientUnits="userSpaceOnUse"
       gradientTransform="matrix(0.4503686,2.452074e-4,-2.742051e-4,0.40274137,52.788895,-1.9657329)"
       x1="-67.701897"
       y1="23.898327"
       x2="-67.677078"
       y2="64.665039" />
    <linearGradient
       inkscape:collect="always"
       xlink:href="#linearGradient4747"
       id="linearGradient3190"
       gradientUnits="userSpaceOnUse"
       gradientTransform="matrix(0.4503686,2.452074e-4,-2.742051e-4,0.40274137,52.788895,-1.9657329)"
       x1="-67.701897"
       y1="23.898327"
       x2="-67.677078"
       y2="64.665039" />
    <linearGradient
       inkscape:collect="always"
       xlink:href="#linearGradient4747"
       id="linearGradient3169"
       gradientUnits="userSpaceOnUse"
       gradientTransform="matrix(0.29635104,1.8333519e-4,-1.8043214e-4,0.30111922,50.885147,11.534482)"
       x1="-60.969666"
       y1="13.668072"
       x2="-60.908253"
       y2="114.5354" />
    <linearGradient
       inkscape:collect="always"
       xlink:href="#linearGradient3104-9"
       id="linearGradient3171"
       gradientUnits="userSpaceOnUse"
       gradientTransform="matrix(0.65801888,0,0,0.67470591,20.084744,16.283413)"
       x1="11.536495"
       y1="44.952385"
       x2="11.536495"
       y2="-1.0040783" />
    <linearGradient
       id="linearGradient3104-9">
      <stop
         id="stop3106-9"
         style="stop-color:#a0a0a0;stop-opacity:1;"
         offset="0" />
      <stop
         id="stop3108-3"
         style="stop-color:#969696;stop-opacity:1;"
         offset="1" />
    </linearGradient>
    <radialGradient
       inkscape:collect="always"
       xlink:href="#linearGradient3688"
       id="radialGradient3192"
       gradientUnits="userSpaceOnUse"
       gradientTransform="matrix(2.003784,0,0,1.4,27.98813,-17.4)"
       cx="4.9929786"
       cy="43.5"
       fx="4.9929786"
       fy="43.5"
       r="2.5" />
    <linearGradient
       id="linearGradient3688">
      <stop
         id="stop3690"
         style="stop-color:black;stop-opacity:1"
         offset="0" />
      <stop
         id="stop3692"
         style="stop-color:black;stop-opacity:0"
         offset="1" />
    </linearGradient>
    <radialGradient
       inkscape:collect="always"
       xlink:href="#linearGradient3688"
       id="radialGradient3194"
       gradientUnits="userSpaceOnUse"
       gradientTransform="matrix(2.003784,0,0,1.4,-20.01187,-104.4)"
       cx="4.9929786"
       cy="43.5"
       fx="4.9929786"
       fy="43.5"
       r="2.5" />
    <linearGradient
       inkscape:collect="always"
       xlink:href="#linearGradient3702"
       id="linearGradient3196"
       gradientUnits="userSpaceOnUse"
       x1="25.058096"
       y1="47.027729"
       x2="25.058096"
       y2="39.999443" />
    <linearGradient
       id="linearGradient3702">
      <stop
         id="stop3704"
         style="stop-color:black;stop-opacity:0"
         offset="0" />
      <stop
         id="stop3710"
         style="stop-color:black;stop-opacity:1"
         offset="0.5" />
      <stop
         id="stop3706"
         style="stop-color:black;stop-opacity:0"
         offset="1" />
    </linearGradient>
    <linearGradient
       x1="62.988873"
       y1="13.182598"
       x2="62.988873"
       y2="16.19013"
       id="linearGradient2450"
       xlink:href="#linearGradient6404"
       gradientUnits="userSpaceOnUse"
       gradientTransform="translate(-50.940898,0)" />
    <linearGradient
       id="linearGradient6404">
      <stop
         id="stop6406"
         style="stop-color:#f9f9f9;stop-opacity:1"
         offset="0" />
      <stop
         id="stop6408"
         style="stop-color:#c9c9c9;stop-opacity:1"
         offset="1" />
    </linearGradient>
    <radialGradient
       cx="3"
       cy="5.01718"
       r="21"
       fx="3"
       fy="5.01718"
       id="radialGradient2452"
       xlink:href="#linearGradient3484"
       gradientUnits="userSpaceOnUse"
       gradientTransform="matrix(-1.274898e-8,1.7142916,-2.159331,-1.4599595e-8,12.809361,2.8570011)" />
    <linearGradient
       id="linearGradient3484">
      <stop
         id="stop3486"
         style="stop-color:#bdbdbd;stop-opacity:1"
         offset="0" />
      <stop
         id="stop3488"
         style="stop-color:#d0d0d0;stop-opacity:1"
         offset="1" />
    </linearGradient>
    <linearGradient
       x1="302.85715"
       y1="366.64789"
       x2="302.85715"
       y2="609.50507"
       id="linearGradient2467"
       xlink:href="#linearGradient5048-585"
       gradientUnits="userSpaceOnUse"
       gradientTransform="matrix(0.07938856,0,0,0.02470588,-4.693293,31.941642)" />
    <linearGradient
       id="linearGradient5048-585">
      <stop
         id="stop2667"
         style="stop-color:#000000;stop-opacity:0"
         offset="0" />
      <stop
         id="stop2669"
         style="stop-color:#000000;stop-opacity:1"
         offset="0.5" />
      <stop
         id="stop2671"
         style="stop-color:#000000;stop-opacity:0"
         offset="1" />
    </linearGradient>
    <radialGradient
       cx="605.71429"
       cy="486.64789"
       r="117.14286"
       fx="605.71429"
       fy="486.64789"
       id="radialGradient2464"
       xlink:href="#linearGradient5060-179"
       gradientUnits="userSpaceOnUse"
       gradientTransform="matrix(0.03079083,0,0,0.02470588,24.610252,31.941642)" />
    <linearGradient
       id="linearGradient5060-179">
      <stop
         id="stop2675"
         style="stop-color:#000000;stop-opacity:1"
         offset="0" />
      <stop
         id="stop2677"
         style="stop-color:#000000;stop-opacity:0"
         offset="1" />
    </linearGradient>
    <radialGradient
       cx="605.71429"
       cy="486.64789"
       r="117.14286"
       fx="605.71429"
       fy="486.64789"
       id="radialGradient2461"
       xlink:href="#linearGradient5060-820"
       gradientUnits="userSpaceOnUse"
       gradientTransform="matrix(-0.03079083,0,0,0.02470588,23.389748,31.941642)" />
    <linearGradient
       id="linearGradient5060-820">
      <stop
         id="stop2681"
         style="stop-color:#000000;stop-opacity:1"
         offset="0" />
      <stop
         id="stop2683"
         style="stop-color:#000000;stop-opacity:0"
         offset="1" />
    </linearGradient>
    <radialGradient
       cx="63.969177"
       cy="14.113381"
       r="23.097054"
       fx="63.969177"
       fy="14.113381"
       id="radialGradient2441"
       xlink:href="#linearGradient7012-661-145-733-759-865-745"
       gradientUnits="userSpaceOnUse"
       gradientTransform="matrix(1.5646925,-9.5143002e-8,6.1772287e-8,1.015888,-86.212573,8.1461173)" />
    <linearGradient
       id="linearGradient7012-661-145-733-759-865-745">
      <stop
         id="stop2699"
         style="stop-color:#9cbbd9;stop-opacity:1"
         offset="0" />
      <stop
         id="stop2701"
         style="stop-color:#5c82ab;stop-opacity:1"
         offset="1" />
    </linearGradient>
    <linearGradient
       x1="82.453476"
       y1="45.114193"
       x2="82.453476"
       y2="16.047026"
       id="linearGradient2443"
       xlink:href="#linearGradient3390"
       gradientUnits="userSpaceOnUse"
       gradientTransform="translate(-53.765393,-0.1141929)" />
    <linearGradient
       id="linearGradient3390">
      <stop
         id="stop3392"
         style="stop-color:#425e7b;stop-opacity:1"
         offset="0" />
      <stop
         id="stop3394"
         style="stop-color:#7a91a7;stop-opacity:1"
         offset="1" />
    </linearGradient>
    <linearGradient
       x1="22.934725"
       y1="49.629246"
       x2="22.809399"
       y2="36.657963"
       id="linearGradient2438"
       xlink:href="#linearGradient6129-963-697-142-998-580-273"
       gradientUnits="userSpaceOnUse"
       gradientTransform="matrix(1.1446925,0,0,0.9977536,-3.4661413,1.0988425)" />
    <linearGradient
       id="linearGradient6129-963-697-142-998-580-273">
      <stop
         id="stop2661"
         style="stop-color:#0a0a0a;stop-opacity:0.498"
         offset="0" />
      <stop
         id="stop2663"
         style="stop-color:#0a0a0a;stop-opacity:0"
         offset="1" />
    </linearGradient>
    <radialGradient
       cx="7.2646537"
       cy="8.3021259"
       r="20.979567"
       fx="7.2646537"
       fy="8.3021259"
       id="radialGradient2435"
       xlink:href="#linearGradient6087-437-184-795-110-662-495"
       gradientUnits="userSpaceOnUse"
       gradientTransform="matrix(0,1.2079744,-1.6271642,0,26.371748,8.2664685)" />
    <linearGradient
       id="linearGradient6087-437-184-795-110-662-495">
      <stop
         id="stop2693"
         style="stop-color:#ffffff;stop-opacity:0.40000001"
         offset="0" />
      <stop
         id="stop2695"
         style="stop-color:#ffffff;stop-opacity:0"
         offset="1" />
    </linearGradient>
    <linearGradient
       id="linearGradient8265-821-176-38-919-66-249">
      <stop
         id="stop2687"
         style="stop-color:#ffffff;stop-opacity:0.2"
         offset="0" />
      <stop
         id="stop2689"
         style="stop-color:#ffffff;stop-opacity:0"
         offset="1" />
    </linearGradient>
    <linearGradient
       y2="33.95525"
       x2="15.214532"
       y1="22.292103"
       x1="11.566265"
       gradientUnits="userSpaceOnUse"
       id="linearGradient4109"
       xlink:href="#linearGradient8265-821-176-38-919-66-249"
       inkscape:collect="always" />
  </defs>
  <sodipodi:namedview
     id="base"
     pagecolor="#ffffff"
     bordercolor="#666666"
     borderopacity="1.0"
     inkscape:pageopacity="0.0"
     inkscape:pageshadow="2"
     inkscape:zoom="7"
     inkscape:cx="24"
     inkscape:cy="24"
     inkscape:current-layer="layer1"
     showgrid="true"
     inkscape:grid-bbox="true"
     inkscape:document-units="px"
     inkscape:window-width="447"
     inkscape:window-height="446"
     inkscape:window-x="0"
     inkscape:window-y="46"
     inkscape:window-maximized="0" />
  <metadata
     id="metadata4116">
    <rdf:RDF>
      <cc:Work
         rdf:about="">
        <dc:format>image/svg+xml</dc:format>
        <dc:type
           rdf:resource="http://purl.org/dc/dcmitype/StillImage" />
        <dc:title></dc:title>
      </cc:Work>
    </rdf:RDF>
  </metadata>
  <g
     id="layer1"
     inkscape:label="Layer 1"
     inkscape:groupmode="layer">
    <g
       id="layer1-3">
      <path
         inkscape:connector-curvature="0"
         d="m 5.4999991,8.4999995 c -0.690271,0.00767 -1,0.3421461 -1,1 l 0,2.0066475 c -1.9838616,0 -1.999999,0.1405 -1.999999,1 0.034411,10.290045 0,10.870138 0,11.743783 1.4354706,0 42.9999979,-3.699732 42.9999979,-5.292264 l 0,-6.451519 c 0,-0.657853 -0.554204,-1.007671 -1.244479,-1 l -22.75552,0 0,-2.0066475 c 0,-0.6578539 -0.309729,-1.0076715 -1,-1 l -14.9999999,0 z"
         id="path3468"
         style="fill:url(#linearGradient2450);fill-opacity:1;stroke:url(#radialGradient2452);stroke-width:1.00000012;stroke-linecap:round;stroke-linejoin:round;stroke-miterlimit:4;stroke-opacity:1;stroke-dasharray:none;display:inline" />
      <rect
         width="38.333332"
         height="6.0000005"
         x="4.833334"
         y="41"
         id="rect4173"
         style="opacity:0.3;fill:url(#linearGradient2467);fill-opacity:1;fill-rule:nonzero;stroke:none;stroke-width:1;marker:none;visibility:visible;display:inline;overflow:visible" />
      <path
         inkscape:connector-curvature="0"
         d="m 43.166666,41.000208 c 0,0 0,5.99967 0,5.99967 1.585652,0.01129 3.833334,-1.344222 3.833333,-3.000221 0,-1.656 -1.769468,-2.999449 -3.833333,-2.999449 z"
         id="path5058"
         style="opacity:0.3;fill:url(#radialGradient2464);fill-opacity:1;fill-rule:nonzero;stroke:none;stroke-width:1;marker:none;visibility:visible;display:inline;overflow:visible" />
      <path
         inkscape:connector-curvature="0"
         d="m 4.833334,41.000208 c 0,0 0,5.99967 0,5.99967 -1.5856518,0.01129 -3.8333332,-1.344222 -3.8333332,-3.000221 0,-1.656 1.7694674,-2.999449 3.8333332,-2.999449 z"
         id="path5018"
         style="opacity:0.3;fill:url(#radialGradient2461);fill-opacity:1;fill-rule:nonzero;stroke:none;stroke-width:1;marker:none;visibility:visible;display:inline;overflow:visible" />
      <path
         inkscape:connector-curvature="0"
         d="m 2.1628556,16.525193 c -1.072707,0.123694 -0.49977,1.402118 -0.585297,2.121012 0.1244828,0.464576 0.9278273,24.41712 0.9278273,25.239602 0,0.714864 0.3518537,0.59375 1.2433944,0.59375 13.1935447,0 27.7830317,0 40.9765777,0 0.960443,0.02229 0.757466,0.01162 0.757466,-0.605024 0.0702,-0.314855 0.993351,-26.375226 1.028886,-26.78684 0,-0.433404 0.09019,-0.5625 -0.473341,-0.5625 -14.089374,0 -29.786135,0 -43.8755134,0 z"
         id="path3388"
         style="fill:url(#radialGradient2441);fill-opacity:1;stroke:url(#linearGradient2443);stroke-width:1;stroke-linecap:round;stroke-linejoin:round;stroke-miterlimit:4;stroke-opacity:1;stroke-dashoffset:0" />
      <path
         inkscape:connector-curvature="0"
         d="m 2.0582428,16.065146 43.8964752,4.03e-4 c 0.63416,0 1.045155,0.444611 1.045155,0.997367 L 45.96746,44.023288 C 45.982125,44.72269 45.758371,45 45.02156,44.985335 L 3.2408415,44.967766 c -0.6341599,0 -1.2736292,-0.412764 -1.2736292,-0.965519 L 1.0130886,17.0629 c 0,-0.552757 0.4109943,-0.997754 1.0451542,-0.997754 z"
         id="path6127"
         style="opacity:0.4;fill:url(#linearGradient2438);fill-opacity:1;stroke:none" />
      <path
         inkscape:connector-curvature="0"
         d="m 46.5,17.5 c -13.53125,0 -30.46875,0 -44,0 0.3854167,8.177083 0.7708333,16.354167 1.15625,24.53125"
         id="path2435"
         style="fill:none;stroke:url(#radialGradient2435);stroke-width:0.99999976;stroke-linecap:round;stroke-linejoin:round;stroke-miterlimit:4;stroke-opacity:1;stroke-dasharray:none" />
      <path
         inkscape:connector-curvature="0"
         d="M 46.114796,16.0228 C 31.565206,16.096148 16.645416,15.978851 2.09375,16 0.28698984,16.411117 1.2593433,18.46661 1.1213236,19.771525 1.3433531,23.934872 1.4443903,28.116464 1.7417851,32.268407 16.742298,29.905609 31.66833,27.661153 46.40625,25.21875 c 0.780991,-2.586578 0.57078,-7.255178 0.611757,-8.201226 0.07866,-0.675561 -0.376612,-1.006042 -0.903211,-0.994724 z"
         id="path3455"
         style="fill:url(#linearGradient4109);fill-opacity:1;stroke:none" />
    </g>
    <g
       transform="matrix(0.7333223,0,0,0.66665991,14.566695,16.667003)"
       id="g2036"
       style="opacity:0.6;display:inline">
      <g
         transform="matrix(1.052632,0,0,1.285713,-1.263158,-13.42854)"
         id="g3712"
         style="opacity:0.4">
        <rect
           width="5"
           height="7"
           x="38"
           y="40"
           id="rect2801"
           style="fill:url(#radialGradient3192);fill-opacity:1;stroke:none" />
        <rect
           width="5"
           height="7"
           x="-10"
           y="-47"
           transform="scale(-1,-1)"
           id="rect3696"
           style="fill:url(#radialGradient3194);fill-opacity:1;stroke:none" />
        <rect
           width="28"
           height="7.0000005"
           x="10"
           y="40"
           id="rect3700"
           style="fill:url(#linearGradient3196);fill-opacity:1;stroke:none" />
      </g>
    </g>
    <path
       inkscape:connector-curvature="0"
       style="color:#000000;fill:url(#linearGradient3169);fill-opacity:1;fill-rule:nonzero;stroke:url(#linearGradient3171);stroke-width:0.99999994;stroke-linecap:round;stroke-linejoin:round;stroke-miterlimit:4;stroke-opacity:1;stroke-dasharray:none;stroke-dashoffset:0;marker:none;visibility:visible;display:inline;overflow:visible;enable-background:accumulate"
       d="m 34.638298,21.499999 c -2.936423,0 -5.479487,1.722641 -6.740025,4.222974 -0.816995,-0.531828 -1.784134,-0.844595 -2.823805,-0.844595 -2.914183,0 -5.276596,2.420083 -5.276596,5.405406 0,0.474667 0.07334,0.933835 0.185506,1.372467 C 17.878665,33.110484 16.5,35.58446 16.5,38.391893 16.5,42.883784 20.030042,46.5 24.414894,46.5 l 15.170213,0 C 43.969957,46.5 47.5,42.883784 47.5,38.391893 c 0,-3.586999 -2.260464,-6.611155 -5.400267,-7.685813 0.08521,-0.466224 0.123672,-0.944255 0.123672,-1.435809 0,-4.291402 -3.395968,-7.770272 -7.585107,-7.770272 z"
       id="rect4519" />
    <path
       sodipodi:type="arc"
       style="color:#000000;fill:url(#linearGradient3190);fill-opacity:1;fill-rule:nonzero;stroke:none;stroke-width:0.97800875;marker:none;visibility:visible;display:inline;overflow:visible;enable-background:accumulate"
       id="path4527"
       sodipodi:cx="17.422222"
       sodipodi:cy="15.822222"
       sodipodi:rx="8.1797104"
       sodipodi:ry="8.1797104"
       d="m 25.601933,15.822222 a 8.1797104,8.1797104 0 1 1 -16.3594213,0 8.1797104,8.1797104 0 1 1 16.3594213,0 z"
       transform="matrix(0.61125961,0,0,0.61126184,14.517039,20.995349)" />
    <path
       sodipodi:type="arc"
       style="color:#000000;fill:url(#linearGradient3188);fill-opacity:1;fill-rule:nonzero;stroke:none;stroke-width:0.71127909;marker:none;visibility:visible;display:inline;overflow:visible;enable-background:accumulate"
       id="path4527-0"
       sodipodi:cx="17.422222"
       sodipodi:cy="15.822222"
       sodipodi:rx="8.1797104"
       sodipodi:ry="8.1797104"
       d="m 25.601933,15.822222 a 8.1797104,8.1797104 0 1 1 -16.3594213,0 8.1797104,8.1797104 0 1 1 16.3594213,0 z"
       transform="matrix(0.85577602,0,0,0.85577602,20.09048,15.459721)" />
    <path
       sodipodi:type="arc"
       style="color:#000000;fill:url(#linearGradient3186);fill-opacity:1;fill-rule:nonzero;stroke:none;stroke-width:0.71127909;marker:none;visibility:visible;display:inline;overflow:visible;enable-background:accumulate"
       id="path4527-0-6-6"
       sodipodi:cx="17.422222"
       sodipodi:cy="15.822222"
       sodipodi:rx="8.1797104"
       sodipodi:ry="8.1797104"
       d="m 25.601933,15.822222 a 8.1797104,8.1797104 0 1 1 -16.3594213,0 8.1797104,8.1797104 0 1 1 16.3594213,0 z"
       transform="matrix(0.91690288,0,0,0.91690622,23.525514,23.992478)" />
    <path
       sodipodi:type="arc"
       style="color:#000000;fill:url(#linearGradient3184);fill-opacity:1;fill-rule:nonzero;stroke:none;stroke-width:0.71127909;marker:none;visibility:visible;display:inline;overflow:visible;enable-background:accumulate"
       id="path4527-0-6-7"
       sodipodi:cx="17.422222"
       sodipodi:cy="15.822222"
       sodipodi:rx="8.1797104"
       sodipodi:ry="8.1797104"
       d="m 25.601933,15.822222 a 8.1797104,8.1797104 0 1 1 -16.3594213,0 8.1797104,8.1797104 0 1 1 16.3594213,0 z"
       transform="matrix(0.65201025,0,0,0.65201263,22.80694,25.350526)" />
    <path
       sodipodi:type="arc"
       style="color:#000000;fill:url(#linearGradient3182);fill-opacity:1;fill-rule:nonzero;stroke:none;stroke-width:0.71127909;marker:none;visibility:visible;display:inline;overflow:visible;enable-background:accumulate"
       id="path4527-0-6"
       sodipodi:cx="17.422222"
       sodipodi:cy="15.822222"
       sodipodi:rx="8.1797104"
       sodipodi:ry="8.1797104"
       d="m 25.601933,15.822222 a 8.1797104,8.1797104 0 1 1 -16.3594213,0 8.1797104,8.1797104 0 1 1 16.3594213,0 z"
       transform="matrix(0.91690288,0,0,0.91690288,8.5255144,23.992558)" />
    <path
       sodipodi:type="inkscape:offset"
       inkscape:radius="-0.93090457"
       inkscape:original="M 28 7.5 C 23.548005 7.5 19.69239 10.049508 17.78125 13.75 C 16.542581 12.962895 15.076275 12.5 13.5 12.5 C 9.081722 12.5 5.5 16.081722 5.5 20.5 C 5.5 21.202506 5.6111857 21.882076 5.78125 22.53125 C 2.5902344 24.683516 0.5 28.345 0.5 32.5 C 0.5 39.148 5.852 44.5 12.5 44.5 L 35.5 44.5 C 42.148 44.5 47.5 39.148 47.5 32.5 C 47.5 27.191243 44.072844 22.715491 39.3125 21.125 C 39.441675 20.434986 39.5 19.7275 39.5 19 C 39.5 12.648725 34.351275 7.5 28 7.5 z "
       style="color:#000000;fill:none;stroke:url(#linearGradient3178);stroke-width:1.54153645;stroke-linecap:round;stroke-linejoin:round;stroke-miterlimit:4;stroke-opacity:1;stroke-dasharray:none;stroke-dashoffset:0;marker:none;visibility:visible;display:inline;overflow:visible;enable-background:accumulate"
       id="path4984"
       d="m 28,8.4375 c -4.096596,0 -7.649355,2.348168 -9.40625,5.75 a 0.93099766,0.93099766 0 0 1 -1.3125,0.34375 C 16.183818,13.833893 14.894026,13.4375 13.5,13.4375 c -3.9151798,0 -7.0625,3.14732 -7.0625,7.0625 0,0.604283 0.095089,1.18992 0.25,1.78125 a 0.93099766,0.93099766 0 0 1 -0.375,1.03125 c -2.9414806,1.98396 -4.875,5.344704 -4.875,9.1875 0,6.148381 4.9141191,11.0625 11.0625,11.0625 l 23,0 c 6.148381,0 11.0625,-4.914119 11.0625,-11.0625 0,-4.908116 -3.14139,-9.033292 -7.53125,-10.5 a 0.93099766,0.93099766 0 0 1 -0.625,-1.03125 C 38.523573,20.342044 38.5625,19.677745 38.5625,19 38.5625,13.151823 33.848177,8.4375 28,8.4375 z"
       transform="matrix(0.64265928,0,0,0.65480427,16.576177,16.975088)" />
    <path
       sodipodi:type="arc"
       style="opacity:0.4;color:#000000;fill:none;stroke:url(#linearGradient3180);stroke-width:1.16852987;marker:none;visibility:visible;display:inline;overflow:visible;enable-background:accumulate"
       id="path4527-0-6-8"
       sodipodi:cx="17.422222"
       sodipodi:cy="15.822222"
       sodipodi:rx="8.1797104"
       sodipodi:ry="8.1797104"
       d="m 25.601933,15.822222 a 8.1797104,8.1797104 0 1 1 -16.3594213,0 8.1797104,8.1797104 0 1 1 16.3594213,0 z"
       transform="matrix(0.85577603,0,0,0.85577603,9.5904799,24.959721)" />
  </g>
</svg>
