<?xml version="1.0" encoding="UTF-8" standalone="no"?>
<!-- Created with Inkscape (http://www.inkscape.org/) -->
<svg
   xmlns:dc="http://purl.org/dc/elements/1.1/"
   xmlns:cc="http://creativecommons.org/ns#"
   xmlns:rdf="http://www.w3.org/1999/02/22-rdf-syntax-ns#"
   xmlns:svg="http://www.w3.org/2000/svg"
   xmlns="http://www.w3.org/2000/svg"
   xmlns:xlink="http://www.w3.org/1999/xlink"
   xmlns:sodipodi="http://sodipodi.sourceforge.net/DTD/sodipodi-0.dtd"
   xmlns:inkscape="http://www.inkscape.org/namespaces/inkscape"
   width="48px"
   height="48px"
   id="svg3575"
   sodipodi:version="0.32"
   inkscape:version="0.46"
   sodipodi:docname="folder-remote.svg"
   inkscape:output_extension="org.inkscape.output.svg.inkscape">
  <defs
     id="defs3577">
    <linearGradient
       inkscape:collect="always"
       id="linearGradient8265-821-176-38-919-66-249">
      <stop
         style="stop-color:#ffffff;stop-opacity:1;"
         offset="0"
         id="stop2687" />
      <stop
         style="stop-color:#ffffff;stop-opacity:0;"
         offset="1"
         id="stop2689" />
    </linearGradient>
    <linearGradient
       inkscape:collect="always"
       xlink:href="#linearGradient8265-821-176-38-919-66-249"
       id="linearGradient2791"
       gradientUnits="userSpaceOnUse"
       gradientTransform="translate(-51.373647,0.785776)"
       x1="11.566265"
       y1="22.292103"
       x2="15.214532"
       y2="33.95525" />
    <linearGradient
       id="linearGradient6087-437-184-795-110-662-495">
      <stop
         style="stop-color:#ffffff;stop-opacity:1;"
         offset="0"
         id="stop2693" />
      <stop
         style="stop-color:#ffffff;stop-opacity:0;"
         offset="1"
         id="stop2695" />
    </linearGradient>
    <radialGradient
       inkscape:collect="always"
       xlink:href="#linearGradient6087-437-184-795-110-662-495"
       id="radialGradient2789"
       gradientUnits="userSpaceOnUse"
       gradientTransform="matrix(0,1.2079744,-1.6271642,0,-25.001899,9.0522445)"
       cx="7.2646537"
       cy="8.3021259"
       fx="7.2646537"
       fy="8.3021259"
       r="20.979567" />
    <linearGradient
       inkscape:collect="always"
       id="linearGradient6129-963-697-142-998-580-273">
      <stop
         style="stop-color:#0a0a0a;stop-opacity:0.498"
         offset="0"
         id="stop2661" />
      <stop
         style="stop-color:#0a0a0a;stop-opacity:0;"
         offset="1"
         id="stop2663" />
    </linearGradient>
    <linearGradient
       inkscape:collect="always"
       xlink:href="#linearGradient6129-963-697-142-998-580-273"
       id="linearGradient2787"
       gradientUnits="userSpaceOnUse"
       gradientTransform="matrix(1.1446925,0,0,0.9977536,-54.839788,1.8846185)"
       x1="22.934725"
       y1="49.629246"
       x2="22.809399"
       y2="36.657963" />
    <linearGradient
       id="linearGradient3390"
       inkscape:collect="always">
      <stop
         id="stop3392"
         offset="0"
         style="stop-color:#425e7b;stop-opacity:1" />
      <stop
         id="stop3394"
         offset="1"
         style="stop-color:#7a91a7;stop-opacity:1" />
    </linearGradient>
    <linearGradient
       inkscape:collect="always"
       xlink:href="#linearGradient3390"
       id="linearGradient2785"
       gradientUnits="userSpaceOnUse"
       gradientTransform="translate(-105.13904,0.6715831)"
       x1="82.453476"
       y1="45.114193"
       x2="65.340263"
       y2="15.943953" />
    <linearGradient
       id="linearGradient7012-661-145-733-759-865-745">
      <stop
         style="stop-color:#9cbbd9;stop-opacity:1;"
         offset="0"
         id="stop2699" />
      <stop
         style="stop-color:#5c82ab;stop-opacity:1;"
         offset="1"
         id="stop2701" />
    </linearGradient>
    <radialGradient
       inkscape:collect="always"
       xlink:href="#linearGradient7012-661-145-733-759-865-745"
       id="radialGradient2783"
       gradientUnits="userSpaceOnUse"
       gradientTransform="matrix(1.5646925,-9.5143002e-8,6.1772287e-8,1.015888,-137.58622,8.9318933)"
       cx="63.969177"
       cy="14.113381"
       fx="63.969177"
       fy="14.113381"
       r="23.097054" />
    <linearGradient
       inkscape:collect="always"
       id="linearGradient5060-820">
      <stop
         style="stop-color:#000000;stop-opacity:1;"
         offset="0"
         id="stop2681" />
      <stop
         style="stop-color:#000000;stop-opacity:0;"
         offset="1"
         id="stop2683" />
    </linearGradient>
    <radialGradient
       inkscape:collect="always"
       xlink:href="#linearGradient5060-820"
       id="radialGradient2781"
       gradientUnits="userSpaceOnUse"
       gradientTransform="matrix(-3.2129558e-2,0,0,3.7058823e-2,23.363215,25.412461)"
       cx="605.71429"
       cy="486.64789"
       fx="605.71429"
       fy="486.64789"
       r="117.14286" />
    <linearGradient
       inkscape:collect="always"
       id="linearGradient5060-179">
      <stop
         style="stop-color:#000000;stop-opacity:1;"
         offset="0"
         id="stop2675" />
      <stop
         style="stop-color:#000000;stop-opacity:0;"
         offset="1"
         id="stop2677" />
    </linearGradient>
    <radialGradient
       inkscape:collect="always"
       xlink:href="#linearGradient5060-179"
       id="radialGradient2779"
       gradientUnits="userSpaceOnUse"
       gradientTransform="matrix(3.2129565e-2,0,0,3.7058823e-2,24.636785,25.412461)"
       cx="605.71429"
       cy="486.64789"
       fx="605.71429"
       fy="486.64789"
       r="117.14286" />
    <linearGradient
       id="linearGradient5048-585">
      <stop
         style="stop-color:#000000;stop-opacity:0;"
         offset="0"
         id="stop2667" />
      <stop
         id="stop2669"
         offset="0.5"
         style="stop-color:#000000;stop-opacity:1;" />
      <stop
         style="stop-color:#000000;stop-opacity:0;"
         offset="1"
         id="stop2671" />
    </linearGradient>
    <linearGradient
       inkscape:collect="always"
       xlink:href="#linearGradient5048-585"
       id="linearGradient2777"
       gradientUnits="userSpaceOnUse"
       gradientTransform="matrix(8.2840237e-2,0,0,3.7058823e-2,-5.9408285,25.412461)"
       x1="302.85715"
       y1="366.64789"
       x2="302.85715"
       y2="609.50507" />
    <linearGradient
       id="linearGradient3484">
      <stop
         style="stop-color:#bdbdbd;stop-opacity:1"
         offset="0"
         id="stop3486" />
      <stop
         style="stop-color:#d0d0d0;stop-opacity:1"
         offset="1"
         id="stop3488" />
    </linearGradient>
    <radialGradient
       inkscape:collect="always"
       xlink:href="#linearGradient3484"
       id="radialGradient2775"
       gradientUnits="userSpaceOnUse"
       gradientTransform="matrix(-1.274898e-8,1.7142916,-2.159331,-1.4599595e-8,-38.564286,3.6427771)"
       cx="3"
       cy="5.01718"
       fx="3"
       fy="5.01718"
       r="21" />
    <linearGradient
       id="linearGradient6404">
      <stop
         id="stop6406"
         offset="0"
         style="stop-color:#f9f9f9;stop-opacity:1;" />
      <stop
         id="stop6408"
         offset="1"
         style="stop-color:#c9c9c9;stop-opacity:1;" />
    </linearGradient>
    <linearGradient
       inkscape:collect="always"
       xlink:href="#linearGradient6404"
       id="linearGradient2773"
       gradientUnits="userSpaceOnUse"
       gradientTransform="translate(-102.31454,0.785776)"
       x1="62.988873"
       y1="13.182598"
       x2="62.988873"
       y2="16.19013" />
    <linearGradient
       inkscape:collect="always"
       id="linearGradient7822">
      <stop
         style="stop-color:#000000;stop-opacity:1;"
         offset="0"
         id="stop7824" />
      <stop
         style="stop-color:#000000;stop-opacity:0;"
         offset="1"
         id="stop7826" />
    </linearGradient>
    <radialGradient
       inkscape:collect="always"
       xlink:href="#linearGradient7822"
       id="radialGradient7828"
       cx="14.363107"
       cy="34.785942"
       fx="14.363107"
       fy="34.785942"
       r="8.7946405"
       gradientTransform="matrix(1,0,0,0.6884422,0,10.837832)"
       gradientUnits="userSpaceOnUse" />
    <linearGradient
       inkscape:collect="always"
       id="linearGradient7438">
      <stop
         style="stop-color:#ffffff;stop-opacity:1;"
         offset="0"
         id="stop7440" />
      <stop
         style="stop-color:#ffffff;stop-opacity:0;"
         offset="1"
         id="stop7442" />
    </linearGradient>
    <linearGradient
       inkscape:collect="always"
       xlink:href="#linearGradient7438"
       id="linearGradient2623"
       gradientUnits="userSpaceOnUse"
       x1="-7.8516631"
       y1="3.7545938"
       x2="-5.5098634"
       y2="18.937717" />
    <linearGradient
       id="linearGradient6991">
      <stop
         style="stop-color:#d3d7cf;stop-opacity:1"
         offset="0"
         id="stop6993" />
      <stop
         style="stop-color:#ffffff;stop-opacity:1"
         offset="1"
         id="stop6995" />
    </linearGradient>
    <linearGradient
       inkscape:collect="always"
       xlink:href="#linearGradient6991"
       id="linearGradient2621"
       gradientUnits="userSpaceOnUse"
       gradientTransform="matrix(1.1874999,0,0,1.2,-17.281253,21.899998)"
       x1="-7.975069"
       y1="25.357235"
       x2="-11.005972"
       y2="-6.5683565" />
    <linearGradient
       inkscape:collect="always"
       xlink:href="#linearGradient7269"
       id="linearGradient7557"
       gradientUnits="userSpaceOnUse"
       gradientTransform="matrix(0.9642856,0,0,0.9722222,-0.2500008,1.6944444)"
       x1="-4.2208939"
       y1="59.878922"
       x2="-4.2208939"
       y2="54.707691" />
    <linearGradient
       id="linearGradient7263">
      <stop
         id="stop7265"
         offset="0"
         style="stop-color:#adb0a8;stop-opacity:1;" />
      <stop
         id="stop7267"
         offset="1"
         style="stop-color:#ffffff;stop-opacity:1" />
    </linearGradient>
    <linearGradient
       inkscape:collect="always"
       xlink:href="#linearGradient7263"
       id="linearGradient7555"
       gradientUnits="userSpaceOnUse"
       x1="1.6256078"
       y1="55.219357"
       x2="0.82206726"
       y2="54.415817" />
    <linearGradient
       id="linearGradient7257">
      <stop
         id="stop7259"
         offset="0"
         style="stop-color:#000000;stop-opacity:1" />
      <stop
         id="stop7261"
         offset="1"
         style="stop-color:#000000;stop-opacity:0;" />
    </linearGradient>
    <linearGradient
       inkscape:collect="always"
       xlink:href="#linearGradient7257"
       id="linearGradient3855"
       gradientUnits="userSpaceOnUse"
       gradientTransform="matrix(-0.5248057,0,0,0.5248057,31.803366,10.457388)"
       x1="-1.9887378"
       y1="51.137787"
       x2="-3.3587573"
       y2="54" />
    <linearGradient
       id="linearGradient7237">
      <stop
         style="stop-color:#eeeeec;stop-opacity:1"
         offset="0"
         id="stop7239" />
      <stop
         style="stop-color:#babdb6;stop-opacity:1;"
         offset="1"
         id="stop7241" />
    </linearGradient>
    <linearGradient
       inkscape:collect="always"
       xlink:href="#linearGradient7237"
       id="linearGradient3849"
       gradientUnits="userSpaceOnUse"
       gradientTransform="matrix(-0.5248057,0,0,0.5248057,31.803366,10.457388)"
       x1="-4.6845822"
       y1="52.640388"
       x2="0.88388348"
       y2="50.563263" />
    <linearGradient
       id="linearGradient7245">
      <stop
         style="stop-color:#eeeeec;stop-opacity:1;"
         offset="0"
         id="stop7247" />
      <stop
         style="stop-color:#ffffff;stop-opacity:1;"
         offset="1"
         id="stop7249" />
    </linearGradient>
    <linearGradient
       inkscape:collect="always"
       xlink:href="#linearGradient7245"
       id="linearGradient3846"
       gradientUnits="userSpaceOnUse"
       gradientTransform="matrix(-0.5248057,0,0,0.5248057,31.803366,10.457388)"
       x1="-5.0823302"
       y1="50.51907"
       x2="0.26516503"
       y2="49.458408" />
    <linearGradient
       id="linearGradient7186">
      <stop
         style="stop-color:#888a85;stop-opacity:1;"
         offset="0"
         id="stop7188" />
      <stop
         style="stop-color:#ffffff;stop-opacity:1;"
         offset="1"
         id="stop7190" />
    </linearGradient>
    <linearGradient
       inkscape:collect="always"
       xlink:href="#linearGradient7186"
       id="linearGradient3843"
       gradientUnits="userSpaceOnUse"
       gradientTransform="matrix(-0.5248057,0,0,0.5248057,31.803366,10.457388)"
       x1="-5.96875"
       y1="52.875"
       x2="-5.96875"
       y2="51.812416" />
    <linearGradient
       id="linearGradient7277">
      <stop
         style="stop-color:#555753;stop-opacity:1"
         offset="0"
         id="stop7279" />
      <stop
         style="stop-color:#d3d7cf;stop-opacity:1"
         offset="1"
         id="stop7281" />
    </linearGradient>
    <linearGradient
       inkscape:collect="always"
       xlink:href="#linearGradient7277"
       id="linearGradient3840"
       gradientUnits="userSpaceOnUse"
       gradientTransform="matrix(-0.5248057,0,0,0.5398003,31.803366,9.8576025)"
       x1="-3.5355339"
       y1="55.866562"
       x2="-3.5355339"
       y2="59.444622" />
    <linearGradient
       inkscape:collect="always"
       xlink:href="#linearGradient7422"
       id="linearGradient2617"
       gradientUnits="userSpaceOnUse"
       x1="30.3125"
       y1="27.313059"
       x2="30.3125"
       y2="24.6875" />
    <linearGradient
       inkscape:collect="always"
       xlink:href="#linearGradient7422"
       id="linearGradient2615"
       gradientUnits="userSpaceOnUse"
       x1="30.3125"
       y1="27.313059"
       x2="30.3125"
       y2="24.6875" />
    <linearGradient
       inkscape:collect="always"
       xlink:href="#linearGradient7422"
       id="linearGradient2613"
       gradientUnits="userSpaceOnUse"
       x1="30.3125"
       y1="27.313059"
       x2="30.3125"
       y2="24.6875" />
    <linearGradient
       inkscape:collect="always"
       xlink:href="#linearGradient7422"
       id="linearGradient2611"
       gradientUnits="userSpaceOnUse"
       x1="30.3125"
       y1="27.313059"
       x2="30.3125"
       y2="24.6875" />
    <linearGradient
       inkscape:collect="always"
       id="linearGradient7422">
      <stop
         style="stop-color:#edd400;stop-opacity:1;"
         offset="0"
         id="stop7424" />
      <stop
         style="stop-color:#edd400;stop-opacity:0;"
         offset="1"
         id="stop7426" />
    </linearGradient>
    <linearGradient
       inkscape:collect="always"
       xlink:href="#linearGradient7422"
       id="linearGradient2619"
       gradientUnits="userSpaceOnUse"
       x1="30.3125"
       y1="27.313059"
       x2="30.3125"
       y2="24.6875" />
    <linearGradient
       inkscape:collect="always"
       id="linearGradient7430">
      <stop
         style="stop-color:#ffffff;stop-opacity:1;"
         offset="0"
         id="stop7432" />
      <stop
         style="stop-color:#ffffff;stop-opacity:0;"
         offset="1"
         id="stop7434" />
    </linearGradient>
    <linearGradient
       inkscape:collect="always"
       xlink:href="#linearGradient7430"
       id="linearGradient2609"
       gradientUnits="userSpaceOnUse"
       gradientTransform="matrix(-0.5248057,0,0,0.5248057,39.675451,19.379085)"
       x1="28.875"
       y1="29"
       x2="29"
       y2="16" />
    <linearGradient
       id="linearGradient7340">
      <stop
         style="stop-color:#2e3436;stop-opacity:1;"
         offset="0"
         id="stop7342" />
      <stop
         style="stop-color:#555753;stop-opacity:1"
         offset="1"
         id="stop7344" />
    </linearGradient>
    <linearGradient
       inkscape:collect="always"
       xlink:href="#linearGradient7340"
       id="linearGradient2607"
       gradientUnits="userSpaceOnUse"
       gradientTransform="matrix(-0.5864288,0,0,0.5858254,42.306003,17.818634)"
       x1="32.8125"
       y1="21"
       x2="32.8125"
       y2="26.204767" />
    <linearGradient
       inkscape:collect="always"
       id="linearGradient7576-259">
      <stop
         style="stop-color:#787878;stop-opacity:1"
         offset="0"
         id="stop3231" />
      <stop
         style="stop-color:#6c6c6c;stop-opacity:0"
         offset="1"
         id="stop3233" />
    </linearGradient>
    <linearGradient
       gradientTransform="matrix(-0.5248057,0,0,0.5248057,40.200257,23.052725)"
       y2="46.5625"
       x2="40.125"
       y1="40.625"
       x1="38.75"
       gradientUnits="userSpaceOnUse"
       id="linearGradient2674-326"
       xlink:href="#linearGradient7576-259"
       inkscape:collect="always" />
    <linearGradient
       inkscape:collect="always"
       id="linearGradient7652-827">
      <stop
         style="stop-color:#dbdbdb;stop-opacity:1"
         offset="0"
         id="stop3225" />
      <stop
         style="stop-color:#a0a0a0;stop-opacity:0;"
         offset="1"
         id="stop3227" />
    </linearGradient>
    <linearGradient
       gradientTransform="matrix(-0.5248057,0,0,0.5248057,40.200257,23.052725)"
       y2="45.0625"
       x2="38.875"
       y1="40.3125"
       x1="37.625"
       gradientUnits="userSpaceOnUse"
       id="linearGradient2672-231"
       xlink:href="#linearGradient7652-827"
       inkscape:collect="always" />
    <linearGradient
       inkscape:collect="always"
       id="linearGradient7660">
      <stop
         style="stop-color:#ffffff;stop-opacity:1;"
         offset="0"
         id="stop7662" />
      <stop
         style="stop-color:#ffffff;stop-opacity:0;"
         offset="1"
         id="stop7664" />
    </linearGradient>
    <linearGradient
       gradientTransform="matrix(-0.5248057,0,0,0.5248057,40.200257,23.052725)"
       y2="42.9375"
       x2="42.123722"
       y1="38.3125"
       x1="41.1875"
       gradientUnits="userSpaceOnUse"
       id="linearGradient2669"
       xlink:href="#linearGradient7660"
       inkscape:collect="always" />
    <linearGradient
       id="linearGradient7269">
      <stop
         id="stop7271"
         offset="0"
         style="stop-color:#ffffff;stop-opacity:1;" />
      <stop
         id="stop7273"
         offset="1"
         style="stop-color:#d3d7cf;stop-opacity:1" />
    </linearGradient>
    <linearGradient
       y2="55.000004"
       x2="-4.1097827"
       y1="58.807774"
       x1="-4.1097827"
       gradientTransform="matrix(-0.5904064,0,0,0.6122733,31.868967,5.1382636)"
       gradientUnits="userSpaceOnUse"
       id="linearGradient2666"
       xlink:href="#linearGradient7269"
       inkscape:collect="always" />
    <linearGradient
       inkscape:collect="always"
       id="linearGradient7812">
      <stop
         style="stop-color:#000000;stop-opacity:1;"
         offset="0"
         id="stop7814" />
      <stop
         style="stop-color:#000000;stop-opacity:0;"
         offset="1"
         id="stop7816" />
    </linearGradient>
    <linearGradient
       gradientTransform="matrix(-0.5248057,0,0,0.5248057,29.704143,23.052725)"
       y2="34.5625"
       x2="-7.78125"
       y1="32.4375"
       x1="-6.40625"
       gradientUnits="userSpaceOnUse"
       id="linearGradient2663"
       xlink:href="#linearGradient7812"
       inkscape:collect="always" />
  </defs>
  <sodipodi:namedview
     id="base"
     pagecolor="#ffffff"
     bordercolor="#666666"
     borderopacity="1.0"
     inkscape:pageopacity="0.0"
     inkscape:pageshadow="2"
     inkscape:zoom="7"
     inkscape:cx="24"
     inkscape:cy="24"
     inkscape:current-layer="layer1"
     showgrid="true"
     inkscape:grid-bbox="true"
     inkscape:document-units="px"
     inkscape:window-width="640"
     inkscape:window-height="679"
     inkscape:window-x="798"
     inkscape:window-y="134" />
  <metadata
     id="metadata3580">
    <rdf:RDF>
      <cc:Work
         rdf:about="">
        <dc:format>image/svg+xml</dc:format>
        <dc:type
           rdf:resource="http://purl.org/dc/dcmitype/StillImage" />
      </cc:Work>
    </rdf:RDF>
  </metadata>
  <g
     id="layer1"
     inkscape:label="Layer 1"
     inkscape:groupmode="layer">
    <g
       id="g2734"
       transform="translate(51.285713,-0.7857776)">
      <path
         inkscape:transform-center-y="-23.577396"
         inkscape:transform-center-x="-22.793602"
         sodipodi:nodetypes="ccccccccccccc"
         id="path3468"
         d="M -45.873648,9.2857755 C -46.563919,9.2934471 -46.873648,9.6279216 -46.873648,10.285776 L -46.873648,12.292423 L -47.873648,12.292423 C -48.56392,12.300095 -48.873647,12.63457 -48.873647,13.292423 C -48.839236,23.582468 -48.860792,34.006806 -48.873647,44.285776 C -9.964052,44.285776 -5.873649,39.503438 -5.873649,19.743942 L -5.873649,13.292423 C -5.873649,12.63457 -6.427853,12.284752 -7.118128,12.292423 L -29.873648,12.292423 L -29.873648,10.285776 C -29.873648,9.6279216 -30.183377,9.278104 -30.873648,9.2857755 L -45.873648,9.2857755 z"
         style="fill:url(#linearGradient2773);fill-opacity:1;stroke:url(#radialGradient2775);stroke-width:1.00000012;stroke-linecap:round;stroke-linejoin:round;stroke-miterlimit:4;stroke-dasharray:none;stroke-opacity:1;display:inline" />
      <g
         transform="matrix(0.9583333,0,0,0.6666667,-50.373646,15.785776)"
         style="opacity:0.4"
         id="g2686">
        <rect
           style="opacity:1;fill:url(#linearGradient2777);fill-opacity:1;fill-rule:nonzero;stroke:none;stroke-width:1;stroke-linecap:round;stroke-linejoin:miter;marker:none;marker-start:none;marker-mid:none;marker-end:none;stroke-miterlimit:4;stroke-dasharray:none;stroke-dashoffset:0;stroke-opacity:1;visibility:visible;display:inline;overflow:visible"
           height="9"
           width="40"
           y="39"
           x="4"
           id="rect2688" />
        <path
           sodipodi:nodetypes="cccc"
           style="opacity:1;fill:url(#radialGradient2779);fill-opacity:1;fill-rule:nonzero;stroke:none;stroke-width:1;stroke-linecap:round;stroke-linejoin:miter;marker:none;marker-start:none;marker-mid:none;marker-end:none;stroke-miterlimit:4;stroke-dasharray:none;stroke-dashoffset:0;stroke-opacity:1;visibility:visible;display:inline;overflow:visible"
           id="path2690"
           d="M 44,39.00031 C 44,39.00031 44,47.999814 44,47.999814 C 45.654593,48.016755 48.000001,45.983481 48,43.499483 C 48,41.015484 46.153598,39.00031 44,39.00031 z" />
        <path
           sodipodi:nodetypes="cccc"
           style="opacity:1;fill:url(#radialGradient2781);fill-opacity:1;fill-rule:nonzero;stroke:none;stroke-width:1;stroke-linecap:round;stroke-linejoin:miter;marker:none;marker-start:none;marker-mid:none;marker-end:none;stroke-miterlimit:4;stroke-dasharray:none;stroke-dashoffset:0;stroke-opacity:1;visibility:visible;display:inline;overflow:visible"
           d="M 4,39.00031 C 4,39.00031 4,47.999814 4,47.999814 C 2.3454068,48.016755 0,45.983481 0,43.499483 C 0,41.015484 1.8464008,39.00031 4,39.00031 z"
           id="path2692" />
      </g>
      <path
         sodipodi:nodetypes="ccccccccc"
         id="path3388"
         d="M -49.210791,17.310969 C -50.283498,17.434663 -49.710561,18.713087 -49.796088,19.431981 C -49.403556,27.902071 -49.007156,36.201436 -48.617041,44.671583 C -48.275205,45.637276 -47.022606,45.142743 -46.228924,45.265333 C -33.03538,45.265333 -19.841835,45.265333 -6.648289,45.265333 C -5.558909,45.158682 -6.011829,43.857652 -5.858589,43.113071 C -5.466049,34.642981 -5.069649,26.343616 -4.679539,17.873469 C -4.930709,16.91918 -6.199049,17.449455 -6.942662,17.310969 C -21.032036,17.310969 -35.121413,17.310969 -49.210791,17.310969 z"
         style="fill:url(#radialGradient2783);fill-opacity:1;stroke:url(#linearGradient2785);stroke-width:1;stroke-linecap:round;stroke-linejoin:round;stroke-miterlimit:4;stroke-dashoffset:0;stroke-opacity:1" />
      <path
         style="opacity:0.4;fill:url(#linearGradient2787);fill-opacity:1;stroke:none;stroke-width:1;stroke-linecap:round;stroke-linejoin:round;stroke-miterlimit:4;stroke-dashoffset:0;stroke-opacity:1"
         d="M -49.315404,16.850922 L -5.418929,16.851325 C -4.784769,16.851325 -4.373774,17.295936 -4.373774,17.848692 L -5.61801,44.788023 C -5.61801,45.340778 -6.128542,45.785776 -6.7627,45.785776 L -47.971635,45.785776 C -48.605795,45.785776 -49.116327,45.340778 -49.116327,44.788023 L -50.360558,17.848676 C -50.360558,17.295919 -49.949564,16.850922 -49.315404,16.850922 z"
         id="path2695"
         sodipodi:nodetypes="ccccccccc" />
      <path
         sodipodi:nodetypes="ccc"
         id="path2697"
         d="M -4.873647,18.285776 C -18.404897,18.285776 -35.342397,18.285776 -48.873647,18.285776 C -48.48823,26.462859 -48.102814,34.639943 -47.717397,42.817026"
         style="opacity:0.4;fill:none;fill-rule:evenodd;stroke:url(#radialGradient2789);stroke-width:0.99999976;stroke-linecap:round;stroke-linejoin:round;stroke-miterlimit:4;stroke-dasharray:none;stroke-opacity:1" />
      <path
         sodipodi:nodetypes="ccccccccc"
         id="path3455"
         d="M -5.623647,16.785776 C -20.173237,16.859124 -34.728231,16.764627 -49.279897,16.785776 C -51.086657,17.196893 -50.114304,19.252386 -50.252323,20.557301 C -50.030294,24.720648 -49.929257,28.90224 -49.631862,33.054183 C -49.086144,33.604574 -48.229068,33.061557 -47.541593,33.060023 C -33.350194,30.708191 -19.158796,28.356358 -4.967397,26.004526 C -4.048226,25.024922 -4.68894,23.183773 -4.385306,21.874961 C -4.40273,20.362839 -4.049727,19.055345 -4.31004,17.575302 C -4.539176,17.07074 -5.097048,16.774458 -5.623647,16.785776 z"
         style="opacity:0.2;fill:url(#linearGradient2791);fill-opacity:1;stroke:none;stroke-width:1;stroke-linecap:round;stroke-linejoin:round;stroke-miterlimit:4;stroke-dashoffset:0;stroke-opacity:1" />
    </g>
    <path
       sodipodi:nodetypes="ccccc"
       id="path7013"
       d="M 37.576228,29.350393 L 36.001811,29.350393 L 34.9522,29.350393 L 36.526617,29.350393 L 37.576228,29.350393 z"
       style="fill:#ffffff;fill-opacity:1;fill-rule:evenodd;stroke:none;stroke-width:1;stroke-linecap:round;stroke-linejoin:miter;stroke-miterlimit:4;stroke-dashoffset:0.69999992000000000;stroke-opacity:0.99236641999999997" />
    <path
       transform="matrix(-0.6066716,0,0,0.5860968,40.981818,20.002244)"
       d="M 23.157747,34.785942 A 8.7946405,6.0546017 0 1 1 5.5684662,34.785942 A 8.7946405,6.0546017 0 1 1 23.157747,34.785942 z"
       sodipodi:ry="6.0546017"
       sodipodi:rx="8.7946405"
       sodipodi:cy="34.785942"
       sodipodi:cx="14.363107"
       id="path7820"
       style="opacity:0.45895522999999999;fill:url(#radialGradient7828);fill-opacity:1;fill-rule:evenodd;stroke:none;stroke-width:1;stroke-linecap:round;stroke-linejoin:round;stroke-miterlimit:4;stroke-dasharray:none;stroke-dashoffset:0.69999992000000000;stroke-opacity:1"
       sodipodi:type="arc" />
    <g
       id="g2540"
       transform="translate(-0.9999999,0)">
      <rect
         style="fill:url(#linearGradient2621);fill-opacity:1;fill-rule:evenodd;stroke:#999999;stroke-width:1.00000012;stroke-linecap:round;stroke-linejoin:round;stroke-miterlimit:4;stroke-dasharray:none;stroke-dashoffset:0.69999992;stroke-opacity:0.99236642"
         id="rect5925"
         width="19"
         height="18"
         x="-34.5"
         y="22.5"
         rx="2.2850928"
         ry="2.3001263"
         transform="scale(-1,1)" />
      <path
         sodipodi:type="inkscape:offset"
         inkscape:radius="-0.99866015"
         inkscape:original="M -12.5 0.5 C -13.608449 0.5 -14.5 1.3915505 -14.5 2.5 L -14.5 13.5 C -14.5 14.608449 -13.60845 15.5 -12.5 15.5 L -0.5 15.5 C 0.60844948 15.5 1.5 14.60845 1.5 13.5 L 1.5 2.5 C 1.5 1.3915505 0.60844948 0.5 -0.5 0.5 L -12.5 0.5 z "
         style="fill:none;fill-opacity:1;fill-rule:evenodd;stroke:url(#linearGradient2623);stroke-width:0.83022809;stroke-linecap:round;stroke-linejoin:round;stroke-miterlimit:4;stroke-dasharray:none;stroke-dashoffset:0.69999992;stroke-opacity:0.99236642"
         id="path6964"
         d="M -12.5,1.5 C -13.072952,1.5 -13.5,1.9270471 -13.5,2.5 L -13.5,13.5 C -13.5,14.072953 -13.072954,14.5 -12.5,14.5 L -0.5,14.5 C 0.072953444,14.5 0.5,14.072954 0.5,13.5 L 0.5,2.5 C 0.5,1.9270468 0.072953144,1.5 -0.5,1.5 L -12.5,1.5 z"
         transform="matrix(-1.197479,0,0,1.2115385,17.216386,21.807693)" />
    </g>
    <g
       transform="matrix(-0.6122733,0,0,0.6297668,31.715898,4.0547587)"
       id="g7162">
      <path
         style="fill:url(#linearGradient7555);fill-opacity:1;fill-rule:evenodd;stroke:none;stroke-width:1;stroke-linecap:round;stroke-linejoin:miter;stroke-miterlimit:4;stroke-dashoffset:0.69999992;stroke-opacity:0.99236642"
         d="M -2.34375,51 C -2.5485199,51 -2.7249072,51.101237 -2.84375,51.25 L -6.859375,55.25 C -6.8943841,55.381797 -6.9584881,55.521336 -7,55.65625 L -7,61.177083 C -7,61.540646 -6.7034811,61.833333 -6.34375,61.833333 L 0.34375,61.833333 C 0.52361547,61.833333 0.6951329,61.76445 0.8125,61.645833 L 4.8125,57.645833 C 4.9298671,57.527216 5,57.358864 5,57.177083 L 5,51.65625 C 5,51.474469 4.9298671,51.306117 4.8125,51.1875 C 4.6934039,51.068883 4.5236156,51 4.34375,51 L -2.34375,51 z"
         id="rect6100"
         sodipodi:nodetypes="cccccccccccscc" />
      <path
         sodipodi:nodetypes="ccccccccc"
         style="fill:url(#linearGradient7557);fill-opacity:1;fill-rule:evenodd;stroke:none;stroke-width:1;stroke-linecap:round;stroke-linejoin:miter;stroke-miterlimit:4;stroke-dashoffset:0.69999992;stroke-opacity:0.99236642"
         d="M -6.3738568,55.166667 L 0.088142442,55.166667 C 0.43502581,55.166667 0.71428575,55.451224 0.71428575,55.804688 L 0.71428575,61.195312 C 0.71428575,61.548776 0.43502581,61.833333 0.088142442,61.833333 L -6.3738568,61.833333 C -6.7207401,61.833333 -7,61.548776 -7,61.195312 L -7,55.804688 C -7,55.451224 -6.7207401,55.166667 -6.3738568,55.166667 z"
         id="path6105" />
    </g>
    <path
       sodipodi:nodetypes="ccccc"
       id="path7253"
       d="M 32.328171,36.172868 L 34.9522,38.796896 L 32.852977,38.796896 L 30.228949,36.172868 L 32.328171,36.172868"
       style="opacity:0.12313436000000000;fill:url(#linearGradient3855);fill-opacity:1;fill-rule:evenodd;stroke:none;stroke-width:1px;stroke-linecap:butt;stroke-linejoin:miter;stroke-opacity:1" />
    <path
       sodipodi:nodetypes="ccccc"
       id="path6126"
       d="M 30.228949,36.172868 L 35.214603,38.27209 L 33.377783,38.27209 L 30.753754,36.697673 L 30.228949,36.172868"
       style="fill:#babdb6;fill-rule:evenodd;stroke:none;stroke-width:1px;stroke-linecap:butt;stroke-linejoin:miter;stroke-opacity:1" />
    <path
       sodipodi:nodetypes="csssccccccssssccsccsccsccccscc"
       id="path7235"
       d="M 33.14818,36.43527 C 33.160688,36.43527 33.176842,36.438654 33.230181,36.500871 C 33.245931,36.51275 33.262359,36.523702 33.279382,36.533671 C 33.289811,36.545098 33.300756,36.556043 33.312182,36.566472 C 33.322611,36.577898 33.333556,36.588843 33.344983,36.599272 L 33.361383,36.599272 C 33.371812,36.610699 33.382756,36.621644 33.394183,36.632072 L 33.492584,36.730474 C 33.548656,36.783135 33.615946,36.822388 33.689386,36.845275 L 35.919811,37.484882 C 36.129993,37.594228 36.200075,37.668207 36.231414,37.730884 C 36.23188,37.731816 36.213562,37.801508 36.231414,37.780085 C 36.18846,37.831629 36.042288,37.912464 35.788609,37.960487 C 35.610229,37.996631 35.464774,38.125364 35.407218,38.298028 C 35.349663,38.470694 35.388788,38.660953 35.509806,38.796896 L 35.690208,38.993698 C 35.700607,39.039652 35.718465,39.082959 35.739409,39.1577 C 35.743321,39.171662 35.735127,39.176187 35.739409,39.1905 L 35.739409,42.601737 C 35.739409,42.630175 35.739211,42.662373 35.706608,42.700138 C 35.690082,42.719282 35.65242,42.732939 35.624607,42.732939 L 31.508163,42.732939 C 31.45958,42.732939 31.419765,42.727586 31.393361,42.700138 C 31.39345,42.694672 31.39345,42.689205 31.393361,42.683738 L 28.949735,40.158111 C 28.922347,40.129641 28.916934,40.116576 28.916934,40.05971 L 28.916934,36.582872 C 28.916934,36.526009 28.922346,36.496542 28.949735,36.468071 C 28.969061,36.448272 29.031069,36.43527 29.048136,36.43527 L 33.14818,36.43527 z"
       style="opacity:0.53358207999999996;fill:none;fill-opacity:1;fill-rule:evenodd;stroke:#ffffff;stroke-width:1.00000011999999994;stroke-linecap:round;stroke-linejoin:round;stroke-miterlimit:4;stroke-dashoffset:0.69999992000000000;stroke-opacity:1" />
    <path
       sodipodi:nodetypes="ccccccsssccssccsccccccscc"
       id="path7229"
       d="M 33.14818,35.926865 C 33.351669,35.926865 33.511184,36.041525 33.623786,36.172868 L 33.640186,36.156467 L 33.656586,36.189268 L 33.836988,36.353269 L 36.067412,36.992876 C 36.084344,36.996595 36.100836,37.002092 36.116613,37.009277 C 36.404686,37.153313 36.590002,37.300047 36.690619,37.501282 C 36.791236,37.702517 36.75177,37.955987 36.625018,38.108089 C 36.452841,38.3147 36.174942,38.397985 35.88701,38.452492 L 36.100212,38.682095 C 36.129755,38.709073 36.152272,38.742849 36.165813,38.780496 C 36.182264,38.844197 36.202494,38.946223 36.231414,39.042899 C 36.239874,39.063907 36.245393,39.085982 36.247814,39.108499 L 36.247814,42.601737 C 36.247814,42.758586 36.18839,42.907004 36.083812,43.028142 C 35.979235,43.14928 35.815707,43.241344 35.624607,43.241344 L 31.508163,43.241344 C 31.338318,43.241344 31.163421,43.180579 31.032557,43.044542 L 28.588931,40.518915 C 28.470388,40.395688 28.408529,40.235705 28.408529,40.05971 L 28.408529,36.582872 C 28.408529,36.406877 28.470389,36.246894 28.588931,36.123667 C 28.706307,36.003425 28.87829,35.926865 29.048136,35.926865 L 33.14818,35.926865 z"
       style="fill:none;fill-opacity:1;fill-rule:evenodd;stroke:#787878;stroke-width:1.00000011999999994;stroke-linecap:round;stroke-linejoin:round;stroke-miterlimit:4;stroke-dashoffset:0.69999992000000000;stroke-opacity:1" />
    <path
       sodipodi:nodetypes="cccccc"
       id="path7184"
       d="M 30.228949,36.172868 L 36.001811,37.484882 L 34.9522,38.27209 L 33.377783,38.27209 L 30.753754,36.697673 L 30.228949,36.172868"
       style="fill:url(#linearGradient3849);fill-opacity:1;fill-rule:evenodd;stroke:none;stroke-width:1px;stroke-linecap:butt;stroke-linejoin:miter;stroke-opacity:1" />
    <path
       sodipodi:nodetypes="ccccc"
       id="path7171"
       d="M 32.328171,36.172868 L 36.001811,37.222479 L 33.902589,37.222479 L 30.228949,36.172868 L 32.328171,36.172868"
       style="fill:url(#linearGradient3846);fill-opacity:1;fill-rule:evenodd;stroke:none;stroke-width:1px;stroke-linecap:butt;stroke-linejoin:miter;stroke-opacity:1" />
    <path
       sodipodi:nodetypes="cccccc"
       id="rect7173"
       d="M 36.001811,37.222479 L 34.053121,37.222479 L 33.902589,37.222479 C 34.9522,37.747285 34.164991,38.27209 33.377783,38.27209 L 35.477006,38.27209 C 36.264214,38.27209 37.051423,37.747285 36.001811,37.222479 z"
       style="fill:url(#linearGradient3843);fill-opacity:1;fill-rule:evenodd;stroke:none;stroke-width:1;stroke-linecap:round;stroke-linejoin:round;stroke-miterlimit:4;stroke-dashoffset:0.69999992000000000;stroke-opacity:1" />
    <path
       style="fill:url(#linearGradient3840);fill-opacity:1;fill-rule:evenodd;stroke:none;stroke-width:1;stroke-linecap:round;stroke-linejoin:miter;stroke-miterlimit:4;stroke-dashoffset:0.69999992000000000;stroke-opacity:0.99236641999999997"
       d="M 34.739216,39.846507 L 32.541155,39.846507 C 32.423162,39.846507 32.328171,39.94891 32.328171,40.07611 L 32.328171,41.716128 C 32.328171,41.843328 32.423162,41.94573 32.541155,41.94573 L 34.739216,41.94573 C 34.857209,41.94573 34.9522,41.843328 34.9522,41.716128 L 34.9522,40.07611 C 34.9522,39.94891 34.857209,39.846507 34.739216,39.846507 z"
       id="path7275" />
    <g
       id="g2531"
       transform="translate(-0.9999999,0)">
      <path
         style="fill:url(#linearGradient2607);fill-opacity:1;fill-rule:evenodd;stroke:none;stroke-width:0.99999988;stroke-linecap:round;stroke-linejoin:round;stroke-miterlimit:4;stroke-dasharray:none;stroke-dashoffset:0.69999992;stroke-opacity:1"
         d="M 25.55613,28.070578 C 25.900719,28.070578 26.179211,28.348783 26.179211,28.693018 L 26.179211,28.848208 C 26.179211,29.006327 26.302867,29.14112 26.472426,29.14112 L 27.315417,29.14112 C 27.660006,29.14112 27.938498,29.520435 27.938498,29.864668 L 27.938498,33.340096 C 27.938498,33.684331 27.660005,33.962536 27.315417,33.962536 L 22.697289,33.962536 C 22.352701,33.962536 22.074209,33.684331 22.074209,33.340096 L 22.074209,29.864668 C 22.074209,29.520434 22.3527,29.14112 22.697289,29.14112 L 23.540281,29.14112 C 23.681445,29.150647 23.833495,29.04066 23.833495,28.857361 L 23.833495,28.693018 C 23.833495,28.348783 24.111988,28.070578 24.456576,28.070578 L 25.55613,28.070578 z"
         id="rect7327"
         sodipodi:nodetypes="ccccccccccccccccc" />
      <path
         transform="matrix(1.0275229,0,0,1.0275229,0.1467896,-1.0458711)"
         sodipodi:type="inkscape:offset"
         inkscape:radius="0.21771275"
         inkscape:original="M 23.6875 28 C 23.105304 28 22.665836 28.48942 22.625 29.0625 L 22.125 29.0625 C 21.516708 29.0625 21 29.547959 21 30.15625 L 21 33.25 C 21 33.858291 21.516709 34.375001 22.125 34.375 L 26.25 34.375 C 26.858291 34.375 27.374999 33.858293 27.375 33.25 L 27.375 30.15625 C 27.375 29.547959 26.858292 29.062501 26.25 29.0625 L 25.78125 29.0625 C 25.740413 28.489419 25.269697 28 24.6875 28 L 23.6875 28 z "
         style="fill:none;fill-opacity:1;fill-rule:evenodd;stroke:url(#linearGradient2609);stroke-width:0.97321439;stroke-linecap:round;stroke-linejoin:miter;stroke-miterlimit:4;stroke-dashoffset:0.69999992;stroke-opacity:1"
         id="path2709"
         d="M 23.6875,27.78125 C 23.060961,27.78125 22.60232,28.265511 22.46875,28.84375 L 22.125,28.84375 C 21.400875,28.84375 20.78125,29.424669 20.78125,30.15625 L 20.78125,33.25 C 20.78125,33.981581 21.393419,34.593751 22.125,34.59375 L 26.25,34.59375 C 26.98158,34.59375 27.593749,33.981582 27.59375,33.25 L 27.59375,30.15625 C 27.59375,29.424669 26.974125,28.843751 26.25,28.84375 L 25.9375,28.84375 C 25.798176,28.261351 25.314039,27.78125 24.6875,27.78125 L 23.6875,27.78125 z" />
      <g
         id="g7393"
         style="fill-opacity:1;stroke:url(#linearGradient2619);stroke-width:1.85442805"
         transform="matrix(-0.5392499,0,0,0.5392499,40.914225,18.327333)">
        <path
           sodipodi:nodetypes="cc"
           id="path7352"
           d="M 26.5,26.5 L 26.5,24.5"
           style="fill:none;fill-opacity:1;fill-rule:evenodd;stroke:url(#linearGradient2611);stroke-width:1.85442805px;stroke-linecap:round;stroke-linejoin:miter;stroke-opacity:1" />
        <path
           sodipodi:nodetypes="cc"
           id="path7362"
           d="M 28.5,26.5 L 28.5,24.5"
           style="fill:none;fill-opacity:1;fill-rule:evenodd;stroke:url(#linearGradient2613);stroke-width:1.85442805px;stroke-linecap:round;stroke-linejoin:miter;stroke-opacity:1" />
        <path
           sodipodi:nodetypes="cc"
           id="path7364"
           d="M 30.5,26.5 L 30.5,24.5"
           style="fill:none;fill-opacity:1;fill-rule:evenodd;stroke:url(#linearGradient2615);stroke-width:1.85442805px;stroke-linecap:round;stroke-linejoin:miter;stroke-opacity:1" />
        <path
           sodipodi:nodetypes="cc"
           id="path7366"
           d="M 32.5,26.5 L 32.5,24.5"
           style="fill:none;fill-opacity:1;fill-rule:evenodd;stroke:url(#linearGradient2617);stroke-width:1.85442805px;stroke-linecap:round;stroke-linejoin:miter;stroke-opacity:1" />
      </g>
    </g>
    <path
       sodipodi:nodetypes="cssssssssssssccssssssscscc"
       id="path7506"
       d="M 32.492173,39.092099 C 32.492173,39.092099 34.690781,40.807001 36.739819,42.503336 C 37.764339,43.351504 38.680581,44.193762 39.216246,45.012564 C 39.484079,45.421964 39.73429,45.864439 39.56065,46.472179 C 39.47383,46.776049 39.239791,47.0606 38.986644,47.210187 C 38.733496,47.359775 38.4838,47.423379 38.199435,47.45619 C 37.084811,47.584801 35.716588,47.24963 34.082991,46.783783 C 32.449393,46.317936 30.582932,45.690947 28.703732,45.078164 C 26.824532,44.465382 24.927028,43.867929 23.275273,43.503747 C 21.623518,43.139565 20.212977,43.039308 19.404831,43.241344 C 19.022284,43.336981 19.013561,43.399218 19.011227,43.405346 C 19.008893,43.411474 18.977336,43.581382 19.126028,43.897351 C 19.423411,44.529291 20.304288,45.532926 21.323652,46.48858 C 23.36238,48.399887 25.964902,50.22782 25.964902,50.22782 L 25.046492,51.507034 C 25.046492,51.507034 22.400957,49.661327 20.24124,47.636592 C 19.161382,46.624224 18.205438,45.594237 17.715613,44.553359 C 17.4707,44.032919 17.307943,43.444319 17.535211,42.84774 C 17.762479,42.251161 18.344163,41.866493 19.011227,41.699728 C 20.302303,41.376958 21.868395,41.592405 23.619677,41.978531 C 25.370959,42.364656 27.302897,42.952117 29.195737,43.569348 C 31.088578,44.186579 32.936758,44.826503 34.509395,45.274966 C 36.037785,45.710812 37.28978,45.915278 37.904232,45.865373 C 37.578888,45.368061 36.699311,44.5252 35.723008,43.716949 C 33.770404,42.100449 31.540963,40.371313 31.540963,40.371313 L 32.492173,39.092099 z"
       style="fill:url(#linearGradient2672-231);fill-opacity:1;fill-rule:evenodd;stroke:url(#linearGradient2674-326);stroke-width:0.50000000000000000;stroke-linecap:butt;stroke-linejoin:round;stroke-miterlimit:4;stroke-dasharray:none;stroke-opacity:1" />
    <path
       sodipodi:nodetypes="cssc"
       id="path7502"
       d="M 31.975326,39.463193 C 31.975326,39.463193 41.651431,46.121665 38.240194,46.51527 C 34.828957,46.908874 23.545635,41.267213 19.347189,42.316824 C 15.148744,43.366435 25.644858,50.713715 25.644858,50.713715"
       style="opacity:0.59999999999999998;fill:none;fill-opacity:1;fill-rule:evenodd;stroke:url(#linearGradient2669);stroke-width:0.50000000000000000;stroke-linecap:butt;stroke-linejoin:miter;stroke-miterlimit:4;stroke-dasharray:none;stroke-opacity:1" />
    <path
       sodipodi:nodetypes="ccccccccc"
       id="path7512"
       d="M 34.905614,38.813296 L 34.738998,39.862908 L 32.541374,39.862908 C 32.423381,39.862908 32.328172,39.96531 32.328172,40.09251 L 32.328172,41.732528 L 31.27856,41.568526 L 31.27856,39.223301 C 31.27856,39.000701 31.443377,38.813296 31.655764,38.813296 L 34.905614,38.813296 z"
       style="fill:url(#linearGradient2666);fill-opacity:1;fill-rule:evenodd;stroke:none;stroke-width:1;stroke-linecap:round;stroke-linejoin:miter;stroke-miterlimit:4;stroke-dashoffset:0.69999992000000000;stroke-opacity:0.99236641999999997" />
    <path
       id="path7810"
       d="M 34.739216,39.846507 L 32.541155,39.846507 C 32.423162,39.846507 32.328171,39.94891 32.328171,40.07611 L 32.328171,41.716128 C 32.328171,41.843328 32.423162,41.94573 32.541155,41.94573 L 34.739216,41.94573 C 34.857209,41.94573 34.9522,41.843328 34.9522,41.716128 L 34.9522,40.07611 C 34.9522,39.94891 34.857209,39.846507 34.739216,39.846507 z"
       style="opacity:0.35447759000000001;fill:url(#linearGradient2663);fill-opacity:1;fill-rule:evenodd;stroke:none;stroke-width:1;stroke-linecap:round;stroke-linejoin:miter;stroke-miterlimit:4;stroke-dashoffset:0.69999992000000000;stroke-opacity:0.99236641999999997" />
  </g>
</svg>
