<?xml version="1.0" encoding="UTF-8" standalone="no"?>
<!-- Created with Inkscape (http://www.inkscape.org/) -->

<svg
   xmlns:dc="http://purl.org/dc/elements/1.1/"
   xmlns:cc="http://creativecommons.org/ns#"
   xmlns:rdf="http://www.w3.org/1999/02/22-rdf-syntax-ns#"
   xmlns:svg="http://www.w3.org/2000/svg"
   xmlns="http://www.w3.org/2000/svg"
   xmlns:xlink="http://www.w3.org/1999/xlink"
   xmlns:sodipodi="http://sodipodi.sourceforge.net/DTD/sodipodi-0.dtd"
   xmlns:inkscape="http://www.inkscape.org/namespaces/inkscape"
   id="svg3142"
   height="48px"
   width="48px"
   version="1.1"
   inkscape:version="0.48.2 r9819"
   sodipodi:docname="user-desktop.svg"
   inkscape:export-filename="/home/daniel/user-desktop.png"
   inkscape:export-xdpi="90"
   inkscape:export-ydpi="90">
  <sodipodi:namedview
     pagecolor="#ffffff"
     bordercolor="#666666"
     borderopacity="1"
     objecttolerance="10"
     gridtolerance="10"
     guidetolerance="10"
     inkscape:pageopacity="0"
     inkscape:pageshadow="2"
     inkscape:window-width="986"
     inkscape:window-height="704"
     id="namedview49"
     showgrid="false"
     inkscape:zoom="10.625"
     inkscape:cx="24"
     inkscape:cy="24"
     inkscape:window-x="0"
     inkscape:window-y="24"
     inkscape:window-maximized="0"
     inkscape:current-layer="svg3142" />
  <defs
     id="defs3144">
    <linearGradient
       id="linearGradient3707-319-631-407-324">
      <stop
         id="stop3760"
         style="stop-color:#185f9a"
         offset="0" />
      <stop
         id="stop3762"
         style="stop-color:#599ec9"
         offset="1" />
    </linearGradient>
    <linearGradient
       id="linearGradient3057"
       y2="-61.256"
       gradientUnits="userSpaceOnUse"
       x2="19.875"
       gradientTransform="matrix(-0.4,0,0,0.4,24.345,29.4)"
       y1="38.245"
       x1="19.875">
      <stop
         id="stop3788-4-8-9"
         style="stop-color:#365a7c"
         offset="0" />
      <stop
         id="stop3790-2-1-9"
         style="stop-color:#5ea1ca"
         offset="1" />
    </linearGradient>
    <linearGradient
       id="linearGradient3568"
       y2="24.628"
       gradientUnits="userSpaceOnUse"
       x2="20.055"
       gradientTransform="matrix(0.82498,0,0,1.3012,4.1619,-1.4329)"
       y1="15.298"
       x1="16.626">
      <stop
         id="stop2687-1-9"
         style="stop-color:#fff"
         offset="0" />
      <stop
         id="stop2689-5-4"
         style="stop-color:#fff;stop-opacity:0"
         offset="1" />
    </linearGradient>
    <linearGradient
       id="linearGradient2959"
       y2="43"
       gradientUnits="userSpaceOnUse"
       x2="24"
       gradientTransform="translate(3.7e-6,1)"
       y1="5"
       x1="24">
      <stop
         id="stop3926"
         style="stop-color:#fff"
         offset="0" />
      <stop
         id="stop3928"
         style="stop-color:#fff;stop-opacity:.23529"
         offset=".063165" />
      <stop
         id="stop3930"
         style="stop-color:#fff;stop-opacity:.15686"
         offset=".95056" />
      <stop
         id="stop3932"
         style="stop-color:#fff;stop-opacity:.39216"
         offset="1" />
    </linearGradient>
    <radialGradient
       id="radialGradient2874"
       gradientUnits="userSpaceOnUse"
       cx="7.4957"
       cy="8.4498"
       r="20"
       gradientTransform="matrix(1.9428e-8,2.337,-2.4723,-4.3056e-8,44.89,-11.435)">
      <stop
         id="stop3750"
         style="stop-color:#90dbec"
         offset="0" />
      <stop
         id="stop3752"
         style="stop-color:#55c1ec"
         offset=".26238" />
      <stop
         id="stop3754"
         style="stop-color:#3689e6"
         offset=".70495" />
      <stop
         id="stop3756"
         style="stop-color:#2b63a0"
         offset="1" />
    </radialGradient>
    <radialGradient
       id="radialGradient3013"
       gradientUnits="userSpaceOnUse"
       cy="43.5"
       cx="4.993"
       gradientTransform="matrix(2.0038,0,0,1.4,27.988,-17.4)"
       r="2.5">
      <stop
         id="stop2883"
         style="stop-color:#181818"
         offset="0" />
      <stop
         id="stop2885"
         style="stop-color:#181818;stop-opacity:0"
         offset="1" />
    </radialGradient>
    <radialGradient
       id="radialGradient3015"
       gradientUnits="userSpaceOnUse"
       cy="43.5"
       cx="4.993"
       gradientTransform="matrix(2.0038,0,0,1.4,-20.012,-104.4)"
       r="2.5">
      <stop
         id="stop2889"
         style="stop-color:#181818"
         offset="0" />
      <stop
         id="stop2891"
         style="stop-color:#181818;stop-opacity:0"
         offset="1" />
    </radialGradient>
    <linearGradient
       id="linearGradient3140"
       y2="39.999"
       gradientUnits="userSpaceOnUse"
       y1="47.028"
       x2="25.058"
       x1="25.058">
      <stop
         id="stop2895"
         style="stop-color:#181818;stop-opacity:0"
         offset="0" />
      <stop
         id="stop2897"
         style="stop-color:#181818"
         offset=".5" />
      <stop
         id="stop2899"
         style="stop-color:#181818;stop-opacity:0"
         offset="1" />
    </linearGradient>
    <linearGradient
       inkscape:collect="always"
       xlink:href="#linearGradient3057"
       id="linearGradient3031"
       gradientUnits="userSpaceOnUse"
       gradientTransform="matrix(-0.4,0,0,0.4,24.345,29.4)"
       x1="19.875"
       y1="38.245"
       x2="19.875"
       y2="-61.256" />
    <linearGradient
       inkscape:collect="always"
       xlink:href="#linearGradient3568"
       id="linearGradient3036"
       gradientUnits="userSpaceOnUse"
       gradientTransform="matrix(0.82498,0,0,1.3012,4.1619,-1.4329)"
       x1="16.626"
       y1="15.298"
       x2="20.055"
       y2="24.628" />
    <linearGradient
       inkscape:collect="always"
       xlink:href="#linearGradient2959"
       id="linearGradient3039"
       gradientUnits="userSpaceOnUse"
       gradientTransform="translate(3.7e-6,1)"
       x1="24"
       y1="5"
       x2="24"
       y2="43" />
    <radialGradient
       inkscape:collect="always"
       xlink:href="#radialGradient2874"
       id="radialGradient3042"
       gradientUnits="userSpaceOnUse"
       gradientTransform="matrix(1.9428e-8,2.337,-2.4723,-4.3056e-8,44.89,-11.435)"
       cx="7.4957"
       cy="8.4498"
       r="20" />
    <linearGradient
       inkscape:collect="always"
       xlink:href="#linearGradient3707-319-631-407-324"
       id="linearGradient3044"
       gradientUnits="userSpaceOnUse"
       gradientTransform="translate(1.2e-6,1)"
       x1="24"
       y1="44"
       x2="24"
       y2="3.899" />
    <linearGradient
       id="linearGradient2959-4"
       y2="43"
       gradientUnits="userSpaceOnUse"
       x2="24"
       gradientTransform="translate(3.7e-6,1)"
       y1="5"
       x1="24">
      <stop
         id="stop3926-7"
         style="stop-color:#fff"
         offset="0" />
      <stop
         id="stop3928-9"
         style="stop-color:#fff;stop-opacity:.23529"
         offset=".063165" />
      <stop
         id="stop3930-3"
         style="stop-color:#fff;stop-opacity:.15686"
         offset=".95056" />
      <stop
         id="stop3932-9"
         style="stop-color:#fff;stop-opacity:.39216"
         offset="1" />
    </linearGradient>
    <linearGradient
       y2="43"
       x2="24"
       y1="5"
       x1="24"
       gradientTransform="translate(3.7e-6,1)"
       gradientUnits="userSpaceOnUse"
       id="linearGradient3863"
       xlink:href="#linearGradient2959-4"
       inkscape:collect="always" />
    <linearGradient
       inkscape:collect="always"
       xlink:href="#linearGradient2959-4"
       id="linearGradient3887"
       gradientUnits="userSpaceOnUse"
       gradientTransform="translate(3.7e-6,1)"
       x1="24"
       y1="5"
       x2="24"
       y2="43" />
  </defs>
  <metadata
     id="metadata3147">
    <rdf:RDF>
      <cc:Work
         rdf:about="">
        <dc:format>image/svg+xml</dc:format>
        <dc:type
           rdf:resource="http://purl.org/dc/dcmitype/StillImage" />
        <dc:title></dc:title>
      </cc:Work>
    </rdf:RDF>
  </metadata>
  <g
     transform="matrix(1.1579,0,0,0.57143,-3.7895,19.143)"
     style="opacity:0.4"
     id="g3712">
    <rect
       x="38"
       y="40"
       width="5"
       height="7"
       style="fill:url(#radialGradient3013)"
       id="rect2801" />
    <rect
       x="-10"
       y="-47"
       width="5"
       height="7"
       transform="scale(-1,-1)"
       style="fill:url(#radialGradient3015)"
       id="rect3696" />
    <rect
       x="10"
       y="40"
       width="28"
       height="7"
       style="fill:url(#linearGradient3140)"
       id="rect3700" />
  </g>
  <rect
     x="4.5"
     y="5.5"
     width="39"
     height="39"
     ry="2"
     rx="2"
     style="color:#000000;fill:url(#radialGradient3042);stroke:url(#linearGradient3044);stroke-linecap:round;stroke-linejoin:round"
     id="rect5505-21" />
  <path
     inkscape:connector-curvature="0"
     d="m 6.5,41.5 h 35 l -2,-4 h -31 z"
     style="opacity:0.7;fill:#ffffff;fill-opacity:0.58824002;stroke:#ffffff;stroke-width:1px"
     id="path4306" />
  <path
     inkscape:connector-curvature="0"
     style="opacity:0.3;color:#000000;fill:url(#linearGradient3031)"
     d="m 38.825,33 h -5.6491 c -0.652,0 -1.176,0.524 -1.176,1.175 v 5.6491 c 0,0.652 0.524,1.176 1.175,1.176 h 5.6491 c 0.652,0 1.176,-0.524 1.176,-1.175 V 34.176 C 40,33.524 39.476,33 38.825,33 z m -16,0 h -5.6491 c -0.652,0 -1.176,0.524 -1.176,1.175 v 5.6491 c 0,0.652 0.524,1.176 1.175,1.176 h 5.6491 c 0.652,0 1.176,-0.524 1.176,-1.175 V 34.176 C 24,33.524 23.476,33 22.825,33 z m -8,0 H 9.1759 C 8.5243,33 8,33.524 8,34.175 v 5.6491 c 0,0.652 0.5243,1.176 1.1755,1.176 h 5.6491 c 0.651,0 1.175,-0.524 1.175,-1.175 V 34.176 c 0,-0.652 -0.524,-1.176 -1.175,-1.176 z m 16,0 h -5.6491 c -0.652,0 -1.176,0.524 -1.176,1.175 v 5.6491 c 0,0.652 0.524,1.176 1.175,1.176 h 5.6491 c 0.652,0 1.176,-0.524 1.176,-1.175 V 34.176 C 32,33.524 31.476,33 30.825,33 z"
     id="rect3038-4-4-9" />
  <path
     inkscape:connector-curvature="0"
     style="color:#000000;fill:#f7f7f7;stroke:#ffffff;stroke-width:0.98543"
     d="m 38.007,34.493 h -4.0146 c -0.277,0 -0.5,0.223 -0.5,0.5 v 4.0146 c 0,0.277 0.223,0.5 0.5,0.5 h 4.0146 c 0.277,0 0.5,-0.223 0.5,-0.5 V 34.993 c 0,-0.277 -0.223,-0.5 -0.5,-0.5 z m -16,0 h -4.0146 c -0.277,0 -0.5,0.223 -0.5,0.5 v 4.0146 c 0,0.277 0.223,0.5 0.5,0.5 h 4.0146 c 0.277,0 0.5,-0.223 0.5,-0.5 V 34.993 c 0,-0.277 -0.223,-0.5 -0.5,-0.5 z m -8,0 H 9.9924 c -0.277,0 -0.5,0.223 -0.5,0.5 v 4.0146 c 0,0.277 0.223,0.5 0.5,0.5 h 4.0146 c 0.277,0 0.5,-0.223 0.5,-0.5 V 34.993 c 0,-0.277 -0.223,-0.5 -0.5,-0.5 z m 16,0 h -4.0146 c -0.277,0 -0.5,0.223 -0.5,0.5 v 4.0146 c 0,0.277 0.223,0.5 0.5,0.5 h 4.0146 c 0.277,0 0.5,-0.223 0.5,-0.5 V 34.993 c 0,-0.277 -0.223,-0.5 -0.5,-0.5 z"
     id="rect3038-44-1" />
  <rect
     x="5.5"
     y="6.5"
     width="37"
     height="37"
     ry="1"
     rx="1"
     style="opacity:0.5;fill:none;stroke:url(#linearGradient3039);stroke-linecap:round;stroke-linejoin:round"
     id="rect6741" />
  <path
     style="opacity:0.8;color:#000000;fill:#000000;fill-opacity:0.98431373000000000;fill-rule:nonzero;stroke:none;stroke-width:0.99999987999999995;marker:none;visibility:visible;display:inline;overflow:visible;enable-background:accumulate"
     d="M 6.4375 5 C 5.0818294 5 4 6.0818294 4 7.4375 L 4 8.375 L 4 9.5625 L 4 12 L 6.4375 12 L 41.5625 12 L 44 12 L 44 9.5625 L 44 8.375 L 44 7.4375 C 44 6.0818294 42.918171 5 41.5625 5 L 6.4375 5 z "
     id="rect3057" />
  <path
     inkscape:connector-curvature="0"
     style="opacity:0.2;fill:url(#linearGradient3036);fill-rule:evenodd"
     d="M 6.2169,6 C 5.5377,6 5,6.9125 5,7.8 L 5.0126,30 c 1.0932,-0.024 37.157,-8.847 37.987,-9.271 V 7.8 c 0,-0.6784 -0.531,-1.8 -1.119,-1.8 H 6.2166 z"
     id="path3333" />
  <path
     style="opacity:0.25;fill:none;stroke:url(#linearGradient3887);stroke-linecap:round;stroke-linejoin:round"
     d="M 5.5,11.617208 5.5,7.5 c -0.01441,-0.5361761 0.4638239,-1.0144101 1,-1 11.666667,0 23.333333,0 35,0 1.359438,0.1333894 0.929669,1.6744681 1,2.6122035 l 0,2.7054435"
     id="rect6741-2"
     inkscape:connector-curvature="0"
     sodipodi:nodetypes="cccccc" />
</svg>
