<svg xmlns="http://www.w3.org/2000/svg" xmlns:xlink="http://www.w3.org/1999/xlink" viewBox="0 0 48 48"><defs><linearGradient id="f"><stop offset="0"/><stop offset="1" stop-opacity="0"/></linearGradient><linearGradient id="e"><stop offset="0" stop-color="#6e6e6e"/><stop offset="1" stop-color="#9f9fa1"/></linearGradient><linearGradient id="d"><stop offset="0" stop-color="#8d909a"/><stop offset="1" stop-color="#d9d9d9"/></linearGradient><linearGradient id="c"><stop offset="0" stop-color="#fff"/><stop offset="1" stop-color="#fff" stop-opacity="0"/></linearGradient><linearGradient id="b"><stop offset="0" stop-color="#fff"/><stop offset="1" stop-color="#fff" stop-opacity="0"/></linearGradient><linearGradient id="a"><stop offset="0"/><stop offset="1" stop-opacity="0"/></linearGradient><linearGradient id="h"><stop offset="0" stop-color="#fff"/><stop offset=".091" stop-color="#fff" stop-opacity=".235"/><stop offset=".818" stop-color="#fff" stop-opacity=".157"/><stop offset="1" stop-color="#fff" stop-opacity=".392"/></linearGradient><linearGradient id="g"><stop offset="0" stop-color="#8d909a"/><stop offset="1" stop-color="#e5e5e5"/></linearGradient><linearGradient xlink:href="#a" id="u" gradientUnits="userSpaceOnUse" gradientTransform="matrix(1 .04527 0 .98314 0 -.17)" x1="24" y1="15.502" x2="24" y2="45"/><linearGradient xlink:href="#a" id="t" gradientUnits="userSpaceOnUse" gradientTransform="matrix(1 .35684 0 .9686 0 -3.464)" x1="24" y1="13.506" x2="24" y2="43"/><linearGradient xlink:href="#b" id="q" gradientUnits="userSpaceOnUse" gradientTransform="matrix(.8965 0 0 1.366 4.725 -8.81)" x1="12.25" y1="20.231" x2="17.125" y2="34.174"/><linearGradient xlink:href="#c" id="p" gradientUnits="userSpaceOnUse" gradientTransform="matrix(1.2228 0 0 1.946 -4.736 -31.363)" x1="23.5" y1="10.996" x2="23.5" y2="39.851"/><radialGradient xlink:href="#c" id="o" gradientUnits="userSpaceOnUse" gradientTransform="matrix(0 1.67928 -1.64548 0 48.823 -18.496)" spreadMethod="pad" cx="19.308" cy="21.029" fx="19.308" fy="21.029" r="14.5"/><linearGradient xlink:href="#d" id="m" gradientUnits="userSpaceOnUse" gradientTransform="matrix(1.20835 0 0 1.3983 -1.98 -10.21)" spreadMethod="reflect" x1="11.931" y1="26.411" x2="21.515" y2="26.411"/><linearGradient xlink:href="#e" id="n" gradientUnits="userSpaceOnUse" gradientTransform="matrix(1 0 0 .92 0 5.48)" x1="31.048" y1="45" x2="31.048" y2="5.5"/><radialGradient xlink:href="#f" id="l" gradientUnits="userSpaceOnUse" gradientTransform="matrix(.35878 0 0 .16884 1.5 21.762)" cx="62.712" cy="108.025" fx="62.712" fy="108.025" r="47.383"/><linearGradient xlink:href="#g" id="v" gradientUnits="userSpaceOnUse" gradientTransform="matrix(.45755 0 0 .47298 -1.837 -3.656)" spreadMethod="reflect" x1="34.613" y1="26.411" x2="19.314" y2="26.411"/><linearGradient xlink:href="#h" id="w" gradientUnits="userSpaceOnUse" gradientTransform="translate(3.517 -7.09) scale(.72973)" x1="32.181" y1="13.829" x2="32.181" y2="28.903"/><linearGradient id="i"><stop offset="0" stop-color="#4e4e4e"/><stop offset="1" stop-color="#b9bac2"/></linearGradient><linearGradient id="j"><stop offset="0" stop-color="#f0f0f0"/><stop offset=".45" stop-color="#777779"/><stop offset="1" stop-color="#6c6c70"/></linearGradient><linearGradient y2="8" x2="24" y1="8" x1="9" spreadMethod="reflect" gradientUnits="userSpaceOnUse" id="r" xlink:href="#i" gradientTransform="matrix(1 0 0 .81845 0 3.452)"/><linearGradient y2="2.097" x2="24" y1="9.373" x1="24" gradientTransform="matrix(1.15987 0 0 1.12475 -3.837 2.69)" gradientUnits="userSpaceOnUse" id="s" xlink:href="#j"/><linearGradient xlink:href="#k" id="x" gradientUnits="userSpaceOnUse" gradientTransform="matrix(.80855 0 0 .6248 10.12 -1.51)" x1="20.154" y1="3.022" x2="20.154" y2="26.667"/><linearGradient id="k"><stop offset="0" stop-color="#fff"/><stop offset=".496" stop-color="#fff" stop-opacity=".235"/><stop offset=".88" stop-color="#fff" stop-opacity=".157"/><stop offset="1" stop-color="#fff" stop-opacity=".392"/></linearGradient></defs><path d="M41 40c0 4.42-7.612 8-17 8S7 44.42 7 40c0-4.418 7.61-8 17-8s17 3.582 17 8z" fill="url(#l)" fill-rule="evenodd" overflow="visible"/><path d="M9.5 11v29.44c0 2.7 4.408 5.06 14.5 5.06 10.092 0 14.5-2.36 14.5-5.06V11z" fill="url(#m)" stroke="url(#n)" overflow="visible"/><path d="M10 9v31c0 2.822 6.272 6 14 6s14-3.178 14-6V9H10z" opacity=".4" fill="url(#o)" overflow="visible"/><path d="M10.5 7.81v32.825c0 2.686 6.075 4.865 13.5 4.865s13.5-2.18 13.5-4.865V7.81c0-2.243-6.08-4.346-13.5-4.31-7.42.037-13.5 2.077-13.5 4.31z" opacity=".15" fill="none" stroke="url(#p)" stroke-linecap="round" stroke-linejoin="round" overflow="visible"/><path d="M16.38 12.177l4.482.87v33.207l-4.482-1.11V12.177z" opacity=".2" fill="url(#q)" overflow="visible"/><path d="M38.508 10c0 2.49-6.496 4.508-14.508 4.508-8.012 0-14.508-2.018-14.508-4.508S15.988 5.492 24 5.492c8.012 0 14.508 2.018 14.508 4.508z" fill="url(#r)" stroke="url(#s)" stroke-width=".984" stroke-linecap="round" stroke-linejoin="round" overflow="visible"/><path d="M13.5 14.435c.83.297 1.5 1.184 1.5 1.99v25.66c0 .805-.67 1.215-1.5.918-.83-.296-1.5-1.183-1.5-1.988V15.353c0-.805.67-1.214 1.5-.918zm21-.24c-.83.298-1.5 1.184-1.5 1.99v25.66c0 .806.67 1.215 1.5.92.83-.298 1.5-1.184 1.5-1.99v-25.66c0-.806-.67-1.215-1.5-.92z" opacity=".15" fill="url(#t)" overflow="visible"/><path d="M20.5 16.003c.83.038 1.5.726 1.5 1.543v26.047c0 .817-.67 1.445-1.5 1.407-.83-.038-1.5-.726-1.5-1.543V17.41c0-.817.67-1.444 1.5-1.407zm7 0c-.83.038-1.5.726-1.5 1.543v26.047c0 .817.67 1.445 1.5 1.407.83-.038 1.5-.726 1.5-1.543V17.41c0-.817-.67-1.444-1.5-1.407z" opacity=".3" fill="url(#u)" overflow="visible"/><g color="#000"><path transform="matrix(0 2.48705 -1.9753 0 46.9 7.104)" d="M8 1.47c-1.757 0-3.354.218-4.47.56-.556.173-.983.37-1.25.564-.264.193-.31.33-.31.406v2c0 .077.046.213.31.406.267.193.694.39 1.25.563 1.116.34 2.713.56 4.47.56 1.757 0 3.354-.22 4.47-.56.556-.18.983-.37 1.25-.57.264-.196.31-.33.31-.41V3c0-.077-.046-.213-.31-.406-.267-.193-.694-.39-1.25-.563-1.116-.34-2.713-.56-4.47-.56z" fill="url(#v)" overflow="visible"/><path d="M44.5 27c0-8.56-1.642-15.5-3.667-15.5h-3.666c-2.025 0-3.667 6.94-3.667 15.5 0 8.56 1.642 15.5 3.667 15.5h3.666c2.025 0 3.667-6.94 3.667-15.5z" opacity=".5" fill="none" stroke="#161b28" overflow="visible"/><path transform="matrix(0 2.07143 .85714 0 37.5 -26.857)" d="M33 3.5C33 5.433 29.866 7 26 7s-7-1.567-7-3.5S22.134 0 26 0s7 1.567 7 3.5z" opacity=".7" fill="none" stroke="url(#w)" stroke-width=".75" stroke-linecap="round" stroke-linejoin="round" overflow="visible"/><path d="M44.5 23.143a.654.654 0 0 0-.667-.643H40.5v2h2v5h-2v2h3.333c.37 0 .667-.287.667-.643z" fill="#dcdcdd" overflow="visible"/><path d="M44.5 23.143a.654.654 0 0 0-.667-.643H40.5v2H42c.396-.036.5.54.5.54v3.955s-.104.505-.5.505h-1.5v2h3.333c.37 0 .667-.287.667-.643z" opacity=".3" fill="none" stroke="#161b28" overflow="visible"/></g><path d="M27.298 2.26c-2.364.61-5.766.964-6.683 2.12-.643-.235-1.463-.703-2.25-.475-1.355.392-4.36.184-4.13 2.49.02.208.056.412.145.606-1.658.65-2.745 1.74-2.745 2.98 0 1.99 3.353 2.73 6.388 3.3 2.543.49 10.05.26 11.57.03 2.084-.32 6.56-.874 6.16-2.82-.305-1.48-1.476-3.43-3.95-3.9a2.25 2.25 0 0 0 .098-.634c.08-1.786-2.64-2.495-2.77-2.62-.68-.704-1.42-1.346-1.83-1.07z" color="#000" fill="#e7f0f4" overflow="visible"/><path d="M25.22 3.93c-1.555 0-2.842.256-3.06.59-.508.724-.612.634-1.338.5-.54.34-1.38.232-1.942-.033-.358-.18-1.178.116-1.5.116-.47 0-1.714.158-1.96.29-.018.695-.356 1.938-.673 2.477-1.82 1.167-1.854 2.262-1.854 2.262 0-.29.873 1.08 1.452 1.53.578.45 1.778.792 2.97.787l11.903-.06c1.192-.006 2.59.004 3.138-.43.55-.44 2.62-1.16 2.62-.92 0 .23-1.22-2.018-.885-1.748 1.36 1.087 1.92 1.485-1.78-1.195l-1.35-1.66.09-.477h-.088l-.175.36.087-.36h-.17l.49-.337-.574.217h.086v-.12l-.16-.763c-1.22-1.607-.874-.68-1.49-.84-.294-.805-.15-.108-.56-.325-.505-.4.437-.637-.674-.637z" opacity=".8" color="#000" fill="none" stroke="url(#x)" stroke-linecap="round" stroke-linejoin="round" overflow="visible"/><path d="M22.412 4.018c.536.263.525.814.272 1.434-.024.057 1.73.904 1.703.962-.038.08-1.86-.625-1.904-.543-.624 1.15-.368 2.49-.368 2.49m2.218-5.46c-1.97 1.22-2.79.34-3.785 1.43a6.65 6.65 0 0 0-2.224-.365c-.6 0-1.614.333-1.614.333.517.308.605.978.514 1.69-.01.07 2.116.83 2.104.9-.017.1-2.172-.49-2.194-.392-.092.41-.224.813-.348 1.145-.03.08 1.715 3.15 1.692 3.077-.755-2.382-4.557-2.3-1.888-2.17 0 0 .748-4.29-.152-4.15 0 0-2.093-.003-2.093.67 0 .205-.12 1.65-.032 1.84a6.32 6.32 0 0 0-1.346.694 4.187 4.187 0 0 0-.694.595c-.044.047 2.317 1.917 2.277 1.966-.07.086-2.535-1.65-2.593-1.562-.25.384-.516 1.13-.516 1.56 0 1.95 3.99 2.455 6.36 2.92 1.32.26 5.628.49 5.628.49.337-.715.977-1.737 1.61-2.69.036-.05-3.31-4.703.104-.152.038.05.07-.104.106-.156.822-1.22.562-1.57.562-1.57l.2.542 1.49 1.57-1.71-1.25-2.435 3.66-2.793-2.883 2.916 2.907c2.422-.03 6.033-.365 6.073-.37 3.707-.413 6.44-1.126 6.06-2.692-.32-1.3-.94-3.157-2.88-3.75-.08-.026-1.11 3.99-1.11 3.99s.76-4.092.704-4.107a9.545 9.545 0 0 0-.59-.13 1.96 1.96 0 0 0 .097-.623c0-1.185-1.237-1.846-2.875-2.447-.053-.02-1.284 2.04-1.91 3.08-.065.11 2.62 1.37 2.45 1.166-1.265-1.56-3.16-.448-3.16-.448-.02-.032.77-1.08 1.21-1.975.033-.062-6.723-2.186.097-.192.04.01.04-.076.057-.113.5-1.016 1-2.03.96-2.045-.47-.14.22-.424-.31-.49-.42-.053-3.654.275-4.025.504z" opacity=".4" color="#000" fill="none" stroke="#25323f" stroke-linecap="round" stroke-linejoin="round" overflow="visible"/></svg>