<?xml version="1.0" encoding="UTF-8" standalone="no"?>
<!-- Created with Inkscape (http://www.inkscape.org/) -->

<svg
   xmlns:svg="http://www.w3.org/2000/svg"
   xmlns="http://www.w3.org/2000/svg"
   xmlns:xlink="http://www.w3.org/1999/xlink"
   version="1.1"
   width="48"
   height="48"
   id="svg2453">
  <defs
     id="defs2455">
    <linearGradient
       id="linearGradient5060">
      <stop
         id="stop5062"
         style="stop-color:#000000;stop-opacity:1"
         offset="0" />
      <stop
         id="stop5064"
         style="stop-color:#000000;stop-opacity:0"
         offset="1" />
    </linearGradient>
    <radialGradient
       cx="62.71241"
       cy="108.02493"
       r="47.38271"
       fx="62.71241"
       fy="108.02493"
       id="radialGradient2470"
       xlink:href="#linearGradient5060"
       gradientUnits="userSpaceOnUse"
       gradientTransform="matrix(0.34708863,0,0,0.09681787,2.1862356,31.803248)" />
    <linearGradient
       x1="27.405413"
       y1="52.355087"
       x2="37.462498"
       y2="68.298302"
       id="linearGradient2474"
       xlink:href="#linearGradient2793"
       gradientUnits="userSpaceOnUse"
       spreadMethod="reflect" />
    <linearGradient
       id="linearGradient4294">
      <stop
         id="stop4296"
         style="stop-color:#e6e7e7;stop-opacity:1"
         offset="0" />
      <stop
         id="stop4298"
         style="stop-color:#676b73;stop-opacity:1"
         offset="1" />
    </linearGradient>
    <linearGradient
       x1="29.232977"
       y1="1.2616314"
       x2="29.232977"
       y2="57.745785"
       id="linearGradient2505"
       xlink:href="#linearGradient4294"
       gradientUnits="userSpaceOnUse"
       gradientTransform="matrix(0.7832927,0,0,0.7832927,0.6351826,-0.5689787)" />
    <linearGradient
       id="linearGradient2338">
      <stop
         id="stop3317"
         style="stop-color:#f8f8f8;stop-opacity:0.15463917"
         offset="0" />
      <stop
         id="stop3322"
         style="stop-color:#b0b2b6;stop-opacity:0.17525773"
         offset="0.49817383" />
      <stop
         id="stop3319"
         style="stop-color:#5b5e62;stop-opacity:0.3298969"
         offset="0.83783782" />
      <stop
         id="stop2342"
         style="stop-color:#ffffff;stop-opacity:0.15463917"
         offset="1" />
    </linearGradient>
    <linearGradient
       x1="4.8849959"
       y1="38.13002"
       x2="35.514687"
       y2="39.751118"
       id="linearGradient2503"
       xlink:href="#linearGradient2338"
       gradientUnits="userSpaceOnUse"
       gradientTransform="matrix(0.9475723,0,0,1.1088253,4.3118834,-14.552575)" />
    <linearGradient
       x1="97.717728"
       y1="17.833755"
       x2="62.373119"
       y2="17.833755"
       id="linearGradient2499"
       xlink:href="#linearGradient2793"
       gradientUnits="userSpaceOnUse"
       gradientTransform="matrix(0.4619808,0,0,0.4451681,-5.9980172,-4.5012223)"
       spreadMethod="reflect" />
    <linearGradient
       x1="32.626884"
       y1="37.21664"
       x2="63.999931"
       y2="37.21664"
       id="linearGradient2495"
       xlink:href="#linearGradient2793"
       gradientUnits="userSpaceOnUse"
       gradientTransform="matrix(0.4481803,0,0,0.404684,-5.1147529,-3.6093511)"
       spreadMethod="reflect" />
    <linearGradient
       id="linearGradient4302">
      <stop
         id="stop4304"
         style="stop-color:#c0c0c0;stop-opacity:1"
         offset="0" />
      <stop
         id="stop4306"
         style="stop-color:#abacb0;stop-opacity:1"
         offset="1" />
    </linearGradient>
    <linearGradient
       x1="63.999081"
       y1="6.4738212"
       x2="63.999081"
       y2="31.225994"
       id="linearGradient2492"
       xlink:href="#linearGradient4302"
       gradientUnits="userSpaceOnUse"
       gradientTransform="matrix(0.4303661,0,0,0.4303661,-3.9746958,-5.3456424)" />
    <linearGradient
       id="linearGradient2793">
      <stop
         id="stop2795"
         style="stop-color:#555753;stop-opacity:1"
         offset="0" />
      <stop
         id="stop2797"
         style="stop-color:#d3d7cf;stop-opacity:0"
         offset="1" />
    </linearGradient>
    <linearGradient
       x1="92.004761"
       y1="47.258526"
       x2="55.992207"
       y2="10.900407"
       id="linearGradient2489"
       xlink:href="#linearGradient2793"
       gradientUnits="userSpaceOnUse"
       gradientTransform="matrix(0.3756602,0,0,0.3756602,-0.4739172,-0.08930123)"
       spreadMethod="reflect" />
  </defs>
  <g
     transform="translate(0,0.9999999)"
     id="layer1">
    <path
       d="m 40.399,42.262006 a 16.446,4.5875 0 0 1 -32.8919998,0 16.446,4.5875 0 1 1 32.8919998,0 z"
       id="path12941"
       style="fill:url(#radialGradient2470);fill-opacity:1;fill-rule:evenodd;stroke:none;stroke-width:1.05496335;marker:none;visibility:visible;display:inline;overflow:visible" />
    <path
       d="m 46.331873,53.131126 a 16.276243,4.2701988 0 1 1 -32.552486,0 16.276243,4.2701988 0 1 1 32.552486,0 z"
       transform="matrix(0.8457585,0,0,0.7542884,-1.8510693,1.0178366)"
       id="path5870"
       style="fill:#d9dcd5;fill-opacity:1;fill-rule:evenodd;stroke:#838383;stroke-width:0.47033069;stroke-linecap:round;stroke-linejoin:round;stroke-miterlimit:4;stroke-opacity:1;stroke-dasharray:none;stroke-dashoffset:0;marker:none;visibility:visible;display:inline;overflow:visible" />
    <path
       d="m 98.723392,24.095787 a 32.811855,6.9077592 0 1 1 -65.62371,0 32.811855,6.9077592 0 1 1 65.62371,0 z"
       transform="matrix(0.4619808,0,0,0.4451681,-5.9980172,-4.5012223)"
       id="path18342"
       style="opacity:0.77272728;fill:#585858;fill-opacity:0.51308899;fill-rule:evenodd;stroke:#636363;stroke-width:0.82836396;stroke-linecap:round;stroke-linejoin:round;stroke-miterlimit:4;stroke-opacity:1;stroke-dasharray:none;stroke-dashoffset:0;marker:none;visibility:visible;display:inline;overflow:visible" />
    <path
       d="m 46.331873,53.131126 a 16.276243,4.2701988 0 1 1 -32.552486,0 16.276243,4.2701988 0 1 1 32.552486,0 z"
       transform="matrix(0.8457585,0,0,0.7542884,-1.8510693,1.0178366)"
       id="path3037"
       style="opacity:0.5;fill:url(#linearGradient2474);fill-opacity:1;fill-rule:evenodd;stroke:none;stroke-width:0.47033069;marker:none;visibility:visible;display:inline;overflow:visible" />
    <path
       d="M 6.5435628,7.3608006 C 6.5080268,7.3150922 9.661005,40.242087 9.661413,40.252061 c 0.1342927,3.28833 5.982961,3.880066 14.056424,4.138389 9.865136,-0.10171 13.566495,-1.758285 13.706279,-4.044899 0.01121,-0.04509 3.163453,-32.939666 3.174663,-32.9847504 1.863173,-7.28005728 -12.976967,-6.74493192 -18.174353,-6.74493192 -5.580531,0 -17.9802328,-0.17112261 -15.8808632,6.74493192 z"
       id="path1751"
       style="fill:url(#linearGradient2503);fill-opacity:1;fill-rule:evenodd;stroke:url(#linearGradient2505);stroke-width:0.37566021;stroke-linecap:round;stroke-linejoin:round;stroke-miterlimit:4;stroke-opacity:1;stroke-dasharray:none" />
    <path
       d="m 7.7418078,6.5441102 c 0,0 12.5880032,-3.9062912 31.0706692,-0.5749183 7.047352,-5.25331862 -16.621102,-5.63770823 -16.621102,-5.63770823 0,0 -20.3001958,1.08743743 -14.4495672,6.21262653 z"
       id="path18338"
       style="fill:#d9dcd5;fill-opacity:1;fill-rule:evenodd;stroke:none" />
    <path
       d="m 7.7418078,6.5441102 c 0,0 12.5880032,-3.9062912 31.0706692,-0.5749183 7.047352,-5.25331862 -16.621102,-5.6377082 -16.621102,-5.6377082 0,0 -20.3001958,1.0874374 -14.4495672,6.2126265 z"
       id="path13701"
       style="fill:url(#linearGradient2499);fill-opacity:1;fill-rule:evenodd;stroke:#636363;stroke-width:0.37566021;stroke-linecap:round;stroke-linejoin:round;stroke-miterlimit:4;stroke-opacity:1;stroke-dasharray:none" />
    <path
       d="m 36.518651,2.0371828 c 0.01846,0.00482 0.03927,0.00905 0.05775,0.013912 0.08256,0.021748 0.162888,0.046897 0.245428,0.069557 0.01982,0.00542 0.03794,0.00844 0.05775,0.013912 0.04804,0.013327 0.09649,0.02805 0.14437,0.041734 0.01405,0.004 0.02927,0.00988 0.04331,0.013911 0.0092,0.00265 0.01969,-0.00267 0.02887,0 0.02527,0.0073 0.04699,0.020413 0.07218,0.027823 0.02957,0.00873 0.05718,0.018934 0.08662,0.027823 0.02042,0.00612 0.03739,0.00771 0.05775,0.013912 0.04731,0.014479 0.09748,0.026816 0.14437,0.041734 0.01242,0.00393 0.03092,0.00995 0.04331,0.013912 0.03937,0.012684 0.07649,0.028715 0.115494,0.041735 0.01396,0.00463 0.02941,0.00924 0.04331,0.013911 0.09221,0.031255 0.184787,0.064043 0.274299,0.097381 0.0237,0.00877 0.0487,0.018901 0.07218,0.027823 0.02754,0.010518 0.04497,0.017086 0.07219,0.027823 0.0561,0.022131 0.118638,0.04645 0.173244,0.069557 0.0184,0.00772 0.03953,0.019987 0.05775,0.027823 0.0042,0.00184 0.01023,-0.00184 0.01444,0 0.02736,0.011982 0.05971,0.029482 0.08662,0.041734 0.01449,0.0066 0.02895,0.00723 0.04331,0.013911 0.0053,0.00245 0.0091,0.011454 0.01444,0.013912 0.05163,0.024236 0.109043,0.044238 0.158807,0.069557 0.01324,0.00674 0.03021,0.021009 0.04331,0.027823 0.01675,0.0087 0.04123,0.018995 0.05775,0.027823 0.0096,0.00516 0.01938,0.00871 0.02887,0.013912 0.01007,0.00548 0.0189,0.00838 0.02887,0.013911 0.0094,0.00525 0.0051,0.00862 0.01444,0.013911 0.0094,0.00529 0.01954,0.00858 0.02888,0.013912 0.0092,0.00534 0.01971,0.00853 0.02887,0.013912 0.0048,0.00276 0.0097,0.01114 0.01444,0.013911 0.02278,0.013524 0.04997,0.027912 0.07218,0.041734 0.0094,0.00583 0.01955,0.00803 0.02887,0.013912 0.01231,0.00781 0.01675,0.019918 0.02888,0.027822 0.01386,0.00903 0.0297,0.018662 0.04331,0.027823 0.04691,0.031406 0.100534,0.064416 0.144366,0.097381 0.004,0.00302 0.01051,0.010882 0.01444,0.013912 0.04421,0.033632 0.08915,0.062059 0.129933,0.097381 0.0029,0.00254 -0.0029,0.01136 0,0.013911 0.01246,0.010909 0.03119,0.016749 0.04331,0.027823 0.007,0.00647 0.0075,0.021299 0.01444,0.027823 0.0095,0.00895 0.01959,0.018761 0.02887,0.027823 0.0034,0.0033 0.01111,-0.00332 0.01444,0 0.0035,0.00341 0.01101,0.010488 0.01444,0.013911 0.0092,0.00934 0.01989,0.01837 0.02887,0.027823 0.0022,0.00231 -0.0022,0.011595 0,0.013912 0.0038,0.00407 0.01066,0.00982 0.01444,0.013911 0.04349,0.046683 0.07815,0.089573 0.115492,0.139115 0.0076,0.010089 0.02152,0.017614 0.02887,0.027823 0.0023,0.00313 -0.0022,0.010769 0,0.013912 0.0031,0.00439 0.01137,0.0095 0.01444,0.013911 0.0087,0.012663 0.02055,0.028885 0.02887,0.041735 0.0034,0.00661 0.01123,0.00727 0.01444,0.013912 0.0065,0.013189 0.0087,0.028576 0.01444,0.041734 0.01404,0.033549 0.02005,0.063215 0.02887,0.09738 0.0056,0.019854 0.01086,0.049471 0.01444,0.069557 0.0011,0.00688 -8.91e-4,0.00702 0,0.013912 0.0016,0.010068 0.01335,0.017669 0.01444,0.027823 0.0014,0.017261 2.3e-5,0.038359 0,0.055646 -0.0011,0.011106 0.0015,0.030742 0,0.041734 -0.0011,0.0073 -0.01316,0.020571 -0.01444,0.027823 -0.0019,0.010878 0.0023,0.017058 0,0.027823 -0.01021,0.050414 -0.02461,0.091113 -0.04331,0.1391152 -0.0027,0.00686 0.0028,0.0071 0,0.013911 -0.0044,0.010941 -0.0096,0.017005 -0.01444,0.027823 -0.0045,0.010141 -0.0096,0.01779 -0.01444,0.027823 -0.0063,0.013427 -0.0075,0.014585 -0.01444,0.027823 -0.0035,0.00662 -0.0108,0.021252 -0.01444,0.027823 -0.0091,0.01643 -0.01882,0.039507 -0.02887,0.055646 -0.002,0.00322 -0.01235,-0.0032 -0.01444,0 -0.0041,0.00643 0.0043,0.00752 0,0.013911 -0.02124,0.031925 -0.04733,0.066587 -0.07218,0.097381 -0.005,0.00616 -0.0093,0.0078 -0.01444,0.013911 -0.0051,0.00611 -0.0092,0.021753 -0.01444,0.027823 -0.04198,0.048577 -0.09411,0.093294 -0.144366,0.1391146 -0.0063,0.00573 -0.008,0.00823 -0.01444,0.013911 -0.01025,0.0091 -0.03276,0.018833 -0.04331,0.027823 -0.0066,0.0056 -0.0077,0.022264 -0.01444,0.027823 -0.02432,0.020021 -0.06085,0.036151 -0.08662,0.055646 -0.0043,0.00324 -0.01008,0.010688 -0.01444,0.013911 -0.04492,0.033377 -0.09554,0.06551 -0.144366,0.097381 -0.01103,0.0072 -0.01766,0.020701 -0.02887,0.027823 -0.02013,0.012663 -0.05149,0.029307 -0.07219,0.041735 -0.168934,0.1014692 -0.364969,0.1912054 -0.56304,0.2782292 -0.03895,0.016975 -0.07579,0.039175 -0.115492,0.055646 -0.0443,0.018487 -0.08483,0.03777 -0.129934,0.055646 -0.04035,0.015994 -0.07461,0.026211 -0.115497,0.041735 -0.02044,0.00776 -0.05163,0.020175 -0.07218,0.027823 -0.004,0.00147 -0.01048,-0.00146 -0.01444,0 -0.03702,0.013723 -0.06375,0.028373 -0.101056,0.041734 -0.06218,0.022254 -0.125031,0.048263 -0.18768,0.069558 -0.10443,0.035511 -0.213296,0.06434 -0.317613,0.097381 -0.06259,0.019824 -0.125643,0.036638 -0.18768,0.055645 -0.04759,0.014582 -0.0973,0.041519 -0.144369,0.055646 -0.07564,0.022706 -0.14286,0.034026 -0.216553,0.055647 -0.03483,0.00909 -0.0806,0.018851 -0.115496,0.027822 -0.05614,0.014433 -0.102492,0.027612 -0.158805,0.041734 -0.035,0.00878 -0.08042,0.019164 -0.115495,0.027824 -0.05642,0.013931 -0.102218,0.028107 -0.158806,0.041734 -0.06118,0.014733 -0.126311,0.027354 -0.18768,0.041735 -0.184108,0.043141 -0.362828,0.085152 -0.548602,0.1252038 -0.06192,0.013351 -0.125578,0.028718 -0.18768,0.041735 -0.09781,0.0205 -0.204939,0.035962 -0.303174,0.055645 -0.04896,0.00981 -0.09531,0.032125 -0.14437,0.041735 -0.0047,9.194e-4 -0.0097,-9.164e-4 -0.01444,0 -0.191919,0.037518 -0.38406,0.062838 -0.577475,0.097382 -0.063,0.011252 -0.124528,0.030789 -0.18768,0.041734 -0.126306,0.02189 -0.248477,0.034958 -0.37536,0.055646 -0.09516,0.015516 -0.193267,0.04079 -0.288738,0.055646 -0.190942,0.029714 -0.385381,0.056306 -0.577476,0.083468 -0.06404,0.0091 -0.123521,0.018999 -0.187679,0.027823 -0.128303,0.01756 -0.261038,0.025249 -0.389797,0.041735 -0.06439,0.00829 -0.123185,0.019795 -0.187679,0.027823 -0.06933,0.00858 -0.1471,0.019541 -0.216554,0.027823 -0.115161,0.013734 -0.231013,0.0288 -0.346485,0.041735 -0.0049,5.475e-4 -0.0096,-5.466e-4 -0.01444,0 -0.522843,0.058416 -1.045731,0.1096028 -1.573622,0.1530262 -0.130825,0.010859 -0.258744,0.017801 -0.389796,0.027823 -0.458637,0.03474 -0.925408,0.071922 -1.385943,0.097381 -0.12692,0.00707 -0.262801,0.00748 -0.389796,0.013911 -0.06583,0.0033 -0.13627,0.010779 -0.202117,0.013912 -0.127024,0.00609 -0.262742,0.00841 -0.389796,0.013911 -0.5269,0.022544 -1.047493,0.041807 -1.573622,0.055646 -0.131536,0.00349 -0.25839,0.010886 -0.389796,0.013912 -0.267484,0.00614 -0.527281,0.00946 -0.79403,0.013911 -0.137093,5.542e-4 -0.281387,-1.005e-4 -0.41867,0 -0.0047,3e-6 -0.0097,-1.5e-6 -0.01444,0 -0.06628,4.05e-5 -0.135801,6.97e-5 -0.202117,0 -0.0047,-6e-6 -0.0097,6.7e-6 -0.01444,0 -0.279489,-3.27e-4 -0.557305,0.00245 -0.83734,0 -0.0047,-4.35e-5 -0.0097,4.42e-5 -0.01444,0 -0.137683,-0.00128 -0.280889,-0.012064 -0.418669,-0.013911 -0.14249,-0.00186 -0.290553,0.00249 -0.433107,0 -0.142603,-0.00255 -0.276028,-0.010694 -0.418671,-0.013912 -0.0048,-1.08e-4 -0.0097,1.079e-4 -0.01444,0 -0.07129,-0.00158 -0.130819,0.00175 -0.202117,0 -0.142651,-0.00356 -0.29046,-0.00963 -0.433106,-0.013912 -0.142647,-0.00428 -0.276061,-0.00888 -0.418671,-0.013912 -0.0048,-1.672e-4 -0.0097,1.688e-4 -0.01444,0 -0.137856,-0.00488 -0.28088,-0.0083 -0.418671,-0.013911 -0.208977,-0.00839 -0.426482,-0.017689 -0.635223,-0.027823 -0.0047,-2.332e-4 -0.0097,2.339e-4 -0.01444,0 -0.564496,-0.027517 -1.12766,-0.069603 -1.689118,-0.1112916 -0.0047,-3.539e-4 -0.0097,3.54e-4 -0.01444,0 -0.419956,-0.031279 -0.838692,-0.071098 -1.256011,-0.1112922 -0.0047,-4.545e-4 -0.0098,4.544e-4 -0.01444,0 C 16.227808,6.795573 15.951484,6.770802 15.671728,6.739267 15.601748,6.731337 15.539485,6.719658 15.469612,6.711445 15.364858,6.699194 15.25651,6.696521 15.152,6.683621 14.838471,6.644923 14.524708,6.603197 14.213602,6.5584179 14.1099,6.5434909 13.999396,6.5184009 13.895989,6.5027719 c -0.137875,-0.020839 -0.266907,-0.03353 -0.404232,-0.055646 -0.06866,-0.011059 -0.133598,-0.03035 -0.202117,-0.041735 -0.03848,-0.00639 -0.07707,-0.00742 -0.115495,-0.013911 -0.03423,-0.00579 -0.06686,-0.00804 -0.101058,-0.013911 -0.06837,-0.011713 -0.133896,-0.029688 -0.202117,-0.041734 -0.03411,-0.00602 -0.06699,-0.00781 -0.101058,-0.013912 -0.06814,-0.012214 -0.13413,-0.02918 -0.202117,-0.041734 -0.03399,-0.00628 -0.0671,-0.00755 -0.101059,-0.013912 -0.06791,-0.012725 -0.134371,-0.028664 -0.202116,-0.041735 -0.27098,-0.052282 -0.540236,-0.1089706 -0.808466,-0.1669384 -0.06706,-0.014492 -0.13524,-0.026878 -0.202117,-0.041734 -0.06688,-0.014857 -0.135425,-0.026509 -0.202116,-0.041735 -0.03335,-0.00761 -0.06776,-0.020116 -0.101059,-0.027822 -0.08844,-0.02355 -0.183575,-0.045132 -0.2743,-0.069558 -0.04536,-0.012213 -0.08416,-0.029265 -0.129933,-0.041735 -0.09155,-0.02494 -0.181729,-0.043441 -0.274301,-0.069558 -0.04629,-0.013058 -0.09798,-0.028344 -0.144369,-0.041734 -0.04638,-0.013391 -0.08356,-0.027987 -0.1299315,-0.041735 -0.046374,-0.013747 -0.09811,-0.027604 -0.14437,-0.041734 C 9.807438,5.6261308 9.7553689,5.6130637 9.7093291,5.5985267 9.6402701,5.5767201 9.5754788,5.5517632 9.5072125,5.528969 9.4617021,5.5137736 9.4223064,5.5029007 9.3772805,5.4872352 9.3547668,5.4794016 9.3274686,5.4673671 9.3050959,5.4594113 9.2603511,5.4435013 9.219266,5.4340952 9.1751639,5.4176775 9.0869605,5.3848413 9.0002989,5.3414036 8.9152999,5.3063852 8.7665512,5.2451035 8.6175693,5.1804337 8.482193,5.1116244 8.4280422,5.0841006 8.374891,5.0570042 8.3233866,5.0281552 c -0.00366,-0.00206 -0.010792,0.00207 -0.014436,0 C 8.279175,5.0113558 8.2655642,4.9897742 8.2367655,4.9725091 8.2278941,4.96722 8.216668,4.9639316 8.2078918,4.9585983 8.111207,4.8997898 8.017527,4.8422711 7.9335906,4.7777483 c -0.00762,-0.00586 -0.00693,-0.00801 -0.014436,-0.013912 -0.010523,-0.00828 -0.018583,-0.019443 -0.028875,-0.027822 -0.00739,-0.00596 -0.00717,-0.00791 -0.014436,-0.013911 -0.061152,-0.050532 -0.1210043,-0.098809 -0.1732429,-0.1530269 -0.00626,-0.00642 -0.00831,-0.00743 -0.014437,-0.013911 -0.010743,-0.011351 -0.018547,-0.030215 -0.028874,-0.041734 -0.00234,-0.00264 -0.012115,0.00264 -0.014437,0 -0.025814,-0.029022 -0.034666,-0.053369 -0.057747,-0.083469 -0.0053,-0.00681 -0.00928,-0.00704 -0.014436,-0.013912 -0.017539,-0.023375 -0.02749,-0.045517 -0.043311,-0.069558 -0.00471,-0.00704 -0.00988,-0.00681 -0.014437,-0.013911 -0.018249,-0.028422 -0.04199,-0.054099 -0.057747,-0.083469 -0.00394,-0.00734 -0.010657,-0.020421 -0.014437,-0.027823 -0.01323,-0.025909 -0.017648,-0.056811 -0.028874,-0.083468 -0.00481,-0.011425 -0.010003,-0.016259 -0.014437,-0.027823 -0.00205,-0.010717 0.00159,-0.031104 0,-0.041735 -0.00159,-0.01063 -0.013302,-0.017278 -0.014437,-0.027823 -0.00151,-0.014059 7.194e-4,-0.027827 0,-0.041735 -3.618e-4,-0.00696 1.675e-4,-0.00699 0,-0.013911 -1.634e-4,-0.00692 -2.97e-5,-0.020945 0,-0.027823 2.7e-5,-0.00688 -2.172e-4,-0.00707 0,-0.013911 4.444e-4,-0.013681 -0.0012,-0.028204 0,-0.041735 5.95e-4,-0.00677 -7.803e-4,-0.00718 0,-0.013911 0.00118,-0.010091 0.012845,-0.017816 0.014437,-0.027823 0.00159,-0.010007 -0.002,-0.031811 0,-0.041734 0.00133,-0.00662 -0.0015,-0.00733 0,-0.013911 0.00151,-0.00658 0.012749,-0.021281 0.014437,-0.027823 0.00168,-0.00655 -0.00185,-0.0074 0,-0.013911 0.00186,-0.00651 -0.00204,-0.00744 0,-0.013912 0.0081,-0.025902 0.018088,-0.058148 0.028874,-0.083469 0.00271,-0.00632 0.011567,-0.00763 0.014437,-0.013911 0.0043,-0.00943 0.00977,-0.018477 0.014436,-0.027823 0.00467,-0.00935 0.00942,-0.01856 0.014437,-0.027823 0.00502,-0.00926 0.00907,-0.018641 0.014437,-0.027823 0.00179,-0.00306 -0.00183,-0.01086 0,-0.013912 0.00729,-0.012228 0.020985,-0.029648 0.028874,-0.041734 0.011873,-0.018095 0.015688,-0.023961 0.028874,-0.041734 0.0044,-0.00592 0.0099,-0.021934 0.014437,-0.027823 0.00452,-0.0059 0.00977,-0.00805 0.014436,-0.013912 0.00468,-0.00585 0.00962,-0.00809 0.014437,-0.013911 0.0096,-0.011662 0.018733,-0.030213 0.028874,-0.041734 0.00712,-0.00805 0.021495,-0.00593 0.028874,-0.013912 0.010406,-0.011451 0.017952,-0.016511 0.028874,-0.027823 0.00548,-0.00564 0.00883,-0.022215 0.014437,-0.027823 0.011174,-0.011243 0.017205,-0.016719 0.028874,-0.027823 0.00585,-0.00554 0.00846,-0.00841 0.014436,-0.013912 0.011911,-0.011035 0.030929,-0.030837 0.043311,-0.041734 0.00621,-0.00543 0.00811,-0.00851 0.014437,-0.013912 0.018916,-0.016244 0.037831,-0.025798 0.057747,-0.041734 0.00666,-0.0053 0.02211,-0.00865 0.028874,-0.013911 0.026985,-0.021113 0.04356,-0.048986 0.072185,-0.069558 0.021523,-0.015382 0.049799,-0.026655 0.072185,-0.041734 0.022331,-0.015127 0.049043,-0.026907 0.072185,-0.041734 0.015465,-0.00985 0.027505,-0.018102 0.043311,-0.027823 0.081183,-0.050501 0.1563273,-0.1060172 0.2454268,-0.1530265 0.06898,-0.036394 0.1439493,-0.063035 0.2165538,-0.097381 0.054452,-0.025759 0.1027959,-0.058844 0.1588057,-0.083469 0.03734,-0.016417 0.077617,-0.025815 0.1154948,-0.041734 0.01894,-0.00796 0.038697,-0.019987 0.057748,-0.027823 0.038102,-0.015671 0.077039,-0.026553 0.1154948,-0.041734 0.019228,-0.00759 0.038453,-0.020354 0.057747,-0.027823 0.03859,-0.014937 0.076734,-0.027281 0.1154947,-0.041734 0.038762,-0.014454 0.076686,-0.02776 0.1154963,-0.041735 0.03881,-0.013975 0.076758,-0.028233 0.1154948,-0.041734 0.038737,-0.013501 0.076954,-0.028702 0.1154947,-0.041734 0.019284,-0.00651 0.038538,-0.00752 0.057749,-0.013912 0.038398,-0.012799 0.077475,-0.029398 0.1154948,-0.041735 0.057029,-0.018505 0.11741,-0.038167 0.1732421,-0.055646 0.02103,-0.00606 0.036752,-0.00794 0.057748,-0.013911 0.062987,-0.017904 0.124667,-0.038346 0.18768,-0.055646 0.0042,-0.00115 0.01023,0.00115 0.01444,0 0.07984,-0.021876 0.164581,-0.04807 0.245428,-0.069558 -2.9374165,0.3412653 -4.7353034,0.909682 -4.7353034,1.9197867 4e-7,0.1967074 0,3.295079 0,3.4917873 4e-7,2.1337818 8.0049794,3.8673971 17.8728814,3.8673971 9.867902,0 17.872881,-1.7336153 17.872881,-3.8673971 0,-0.1967083 0,-3.2950792 0,-3.4917873 0,-1.0319453 -1.873549,-1.6144806 -4.922982,-1.961521 z"
       id="path18314"
       style="fill:#ffffff;fill-opacity:1;fill-rule:evenodd;stroke:#808389;stroke-width:0.1874769;stroke-linecap:round;stroke-linejoin:round;stroke-miterlimit:4;stroke-opacity:1;stroke-dasharray:none;stroke-dashoffset:0;marker:none;visibility:visible;display:inline;overflow:visible" />
    <path
       d="m 36.518651,2.0371828 c 0.01846,0.00482 0.03927,0.00905 0.05775,0.013912 0.08256,0.021748 0.162888,0.046897 0.245428,0.069557 0.01982,0.00542 0.03794,0.00844 0.05775,0.013912 0.04804,0.013327 0.09649,0.02805 0.14437,0.041734 0.01405,0.004 0.02927,0.00988 0.04331,0.013911 0.0092,0.00265 0.01969,-0.00267 0.02887,0 0.02527,0.0073 0.04699,0.020413 0.07218,0.027823 0.02957,0.00873 0.05718,0.018934 0.08662,0.027823 0.02042,0.00612 0.03739,0.00771 0.05775,0.013912 0.04731,0.014479 0.09748,0.026816 0.14437,0.041734 0.01242,0.00393 0.03092,0.00995 0.04331,0.013912 0.03937,0.012684 0.07649,0.028715 0.115494,0.041735 0.01396,0.00463 0.02941,0.00924 0.04331,0.013911 0.09221,0.031255 0.184787,0.064043 0.274299,0.097381 0.0237,0.00877 0.0487,0.018901 0.07218,0.027823 0.02754,0.010518 0.04497,0.017086 0.07219,0.027823 0.0561,0.022131 0.118638,0.04645 0.173244,0.069557 0.0184,0.00772 0.03953,0.019987 0.05775,0.027823 0.0042,0.00184 0.01023,-0.00184 0.01444,0 0.02736,0.011982 0.05971,0.029482 0.08662,0.041734 0.01449,0.0066 0.02895,0.00723 0.04331,0.013911 0.0053,0.00245 0.0091,0.011454 0.01444,0.013912 0.05163,0.024236 0.109043,0.044238 0.158807,0.069557 0.01324,0.00674 0.03021,0.021009 0.04331,0.027823 0.01675,0.0087 0.04123,0.018995 0.05775,0.027823 0.0096,0.00516 0.01938,0.00871 0.02887,0.013912 0.01007,0.00548 0.0189,0.00838 0.02887,0.013911 0.0094,0.00525 0.0051,0.00862 0.01444,0.013911 0.0094,0.00529 0.01954,0.00858 0.02888,0.013912 0.0092,0.00534 0.01971,0.00853 0.02887,0.013912 0.0048,0.00276 0.0097,0.01114 0.01444,0.013911 0.02278,0.013524 0.04997,0.027912 0.07218,0.041734 0.0094,0.00583 0.01955,0.00803 0.02887,0.013912 0.01231,0.00781 0.01675,0.019918 0.02888,0.027822 0.01386,0.00903 0.0297,0.018662 0.04331,0.027823 0.04691,0.031406 0.100534,0.064416 0.144366,0.097381 0.004,0.00302 0.01051,0.010882 0.01444,0.013912 0.04421,0.033632 0.08915,0.062059 0.129933,0.097381 0.0029,0.00254 -0.0029,0.01136 0,0.013911 0.01246,0.010909 0.03119,0.016749 0.04331,0.027823 0.007,0.00647 0.0075,0.021299 0.01444,0.027823 0.0095,0.00895 0.01959,0.018761 0.02887,0.027823 0.0034,0.0033 0.01111,-0.00332 0.01444,0 0.0035,0.00341 0.01101,0.010488 0.01444,0.013911 0.0092,0.00934 0.01989,0.01837 0.02887,0.027823 0.0022,0.00231 -0.0022,0.011595 0,0.013912 0.0038,0.00407 0.01066,0.00982 0.01444,0.013911 0.04349,0.046683 0.07815,0.089573 0.115492,0.139115 0.0076,0.010089 0.02152,0.017614 0.02887,0.027823 0.0023,0.00313 -0.0022,0.010769 0,0.013912 0.0031,0.00439 0.01137,0.0095 0.01444,0.013911 0.0087,0.012663 0.02055,0.028885 0.02887,0.041735 0.0034,0.00661 0.01123,0.00727 0.01444,0.013912 0.0065,0.013189 0.0087,0.028576 0.01444,0.041734 0.01404,0.033549 0.02005,0.063215 0.02887,0.09738 0.0056,0.019854 0.01086,0.049471 0.01444,0.069557 0.0011,0.00688 -8.91e-4,0.00702 0,0.013912 0.0016,0.010068 0.01335,0.017669 0.01444,0.027823 0.0014,0.017261 2.3e-5,0.038359 0,0.055646 -0.0011,0.011106 0.0015,0.030742 0,0.041734 -0.0011,0.0073 -0.01316,0.020571 -0.01444,0.027823 -0.0019,0.010878 0.0023,0.017058 0,0.027823 -0.01021,0.050414 -0.02461,0.091113 -0.04331,0.1391152 -0.0027,0.00686 0.0028,0.0071 0,0.013911 -0.0044,0.010941 -0.0096,0.017005 -0.01444,0.027823 -0.0045,0.010141 -0.0096,0.01779 -0.01444,0.027823 -0.0063,0.013427 -0.0075,0.014585 -0.01444,0.027823 -0.0035,0.00662 -0.0108,0.021252 -0.01444,0.027823 -0.0091,0.01643 -0.01882,0.039507 -0.02887,0.055646 -0.002,0.00322 -0.01235,-0.0032 -0.01444,0 -0.0041,0.00643 0.0043,0.00752 0,0.013911 -0.02124,0.031925 -0.04733,0.066587 -0.07218,0.097381 -0.005,0.00616 -0.0093,0.00779 -0.01444,0.013911 -0.0051,0.00611 -0.0092,0.021753 -0.01444,0.027823 -0.04198,0.048577 -0.09411,0.093294 -0.144366,0.1391149 -0.0063,0.00573 -0.008,0.00823 -0.01444,0.013911 -0.01025,0.0091 -0.03276,0.018833 -0.04331,0.027823 -0.0066,0.0056 -0.0077,0.022264 -0.01444,0.027823 -0.02432,0.020022 -0.06085,0.036151 -0.08662,0.055647 -0.0043,0.00324 -0.01008,0.010687 -0.01444,0.013911 -0.04492,0.033376 -0.09554,0.06551 -0.144366,0.09738 -0.01103,0.0072 -0.01766,0.020701 -0.02887,0.027823 -0.02013,0.012663 -0.05149,0.029307 -0.07219,0.041735 -0.168934,0.1014695 -0.364969,0.1912057 -0.56304,0.2782293 -0.03895,0.016975 -0.07579,0.039175 -0.115492,0.055646 -0.0443,0.018487 -0.08483,0.03777 -0.129934,0.055646 -0.04035,0.015994 -0.07461,0.026212 -0.115497,0.041734 -0.02044,0.00776 -0.05163,0.020176 -0.07218,0.027823 -0.004,0.00147 -0.01048,-0.00146 -0.01444,0 -0.03702,0.013723 -0.06375,0.028373 -0.101056,0.041734 -0.06218,0.022254 -0.125031,0.048263 -0.18768,0.069557 -0.10443,0.035512 -0.213296,0.06434 -0.317613,0.09738 -0.06259,0.019824 -0.125643,0.036639 -0.18768,0.055646 -0.04759,0.014581 -0.0973,0.041518 -0.144369,0.055646 -0.07564,0.022706 -0.14286,0.034026 -0.216553,0.055646 -0.03483,0.00909 -0.0806,0.018851 -0.115496,0.027823 -0.05614,0.014432 -0.102492,0.027612 -0.158805,0.041734 -0.035,0.00878 -0.08042,0.019163 -0.115495,0.027823 -0.05642,0.013931 -0.102218,0.028108 -0.158806,0.041734 -0.06118,0.014732 -0.126311,0.027354 -0.18768,0.041734 -0.184108,0.043141 -0.362828,0.085152 -0.548602,0.1252038 -0.06192,0.013351 -0.125578,0.028718 -0.18768,0.041735 -0.09781,0.0205 -0.204939,0.035962 -0.303174,0.055645 -0.04896,0.00981 -0.09531,0.032125 -0.14437,0.041735 -0.0047,9.194e-4 -0.0097,-9.164e-4 -0.01444,0 -0.191919,0.037518 -0.38406,0.062838 -0.577475,0.097382 -0.063,0.011252 -0.124528,0.030789 -0.18768,0.041734 -0.126306,0.02189 -0.248477,0.034958 -0.37536,0.055646 -0.09516,0.015516 -0.193267,0.04079 -0.288738,0.055646 -0.190942,0.029714 -0.385381,0.056306 -0.577476,0.083468 -0.06404,0.0091 -0.123521,0.018999 -0.187679,0.027823 -0.128303,0.01756 -0.261038,0.025249 -0.389797,0.041735 -0.06439,0.00829 -0.123185,0.019795 -0.187679,0.027823 -0.06933,0.00858 -0.1471,0.019541 -0.216554,0.027823 -0.115161,0.013734 -0.231013,0.0288 -0.346485,0.041735 -0.0049,5.475e-4 -0.0096,-5.466e-4 -0.01444,0 -0.522843,0.058416 -1.045731,0.1096028 -1.573622,0.1530262 -0.130825,0.010859 -0.258744,0.017801 -0.389796,0.027823 -0.458637,0.03474 -0.925408,0.071922 -1.385943,0.097381 -0.12692,0.00707 -0.262801,0.00748 -0.389796,0.013911 -0.06583,0.0033 -0.13627,0.010779 -0.202117,0.013912 -0.127024,0.00609 -0.262742,0.00841 -0.389796,0.013911 -0.5269,0.022544 -1.047493,0.041807 -1.573622,0.055646 -0.131536,0.00349 -0.25839,0.010886 -0.389796,0.013912 -0.267484,0.00614 -0.527281,0.00946 -0.79403,0.013911 -0.137093,5.542e-4 -0.281387,-1.005e-4 -0.41867,0 -0.0047,3e-6 -0.0097,-1.5e-6 -0.01444,0 -0.06628,4.05e-5 -0.135801,6.97e-5 -0.202117,0 -0.0047,-6e-6 -0.0097,6.7e-6 -0.01444,0 -0.279489,-3.27e-4 -0.557305,0.00245 -0.83734,0 -0.0047,-4.35e-5 -0.0097,4.42e-5 -0.01444,0 -0.137683,-0.00128 -0.280889,-0.012064 -0.418669,-0.013911 -0.14249,-0.00186 -0.290553,0.00249 -0.433107,0 -0.142603,-0.00255 -0.276028,-0.010694 -0.418671,-0.013912 -0.0048,-1.08e-4 -0.0097,1.079e-4 -0.01444,0 -0.07129,-0.00158 -0.130819,0.00175 -0.202117,0 -0.142651,-0.00356 -0.29046,-0.00963 -0.433106,-0.013912 -0.142647,-0.00428 -0.276061,-0.00888 -0.418671,-0.013912 -0.0048,-1.672e-4 -0.0097,1.688e-4 -0.01444,0 -0.137856,-0.00488 -0.28088,-0.0083 -0.418671,-0.013911 -0.208977,-0.00839 -0.426482,-0.017689 -0.635223,-0.027823 -0.0047,-2.332e-4 -0.0097,2.339e-4 -0.01444,0 -0.564496,-0.027517 -1.12766,-0.069603 -1.689118,-0.1112916 -0.0047,-3.539e-4 -0.0097,3.54e-4 -0.01444,0 -0.419956,-0.031279 -0.838692,-0.071098 -1.256011,-0.1112922 -0.0047,-4.545e-4 -0.0098,4.544e-4 -0.01444,0 -0.28126,-0.027163 -0.557584,-0.051934 -0.83734,-0.083469 -0.06998,-0.00793 -0.132243,-0.019609 -0.202116,-0.027822 C 15.364858,6.6991904 15.25651,6.6965174 15.152,6.6836174 14.838471,6.6449194 14.524708,6.6031934 14.213602,6.5584143 14.1099,6.5434873 13.999396,6.5183973 13.895989,6.5027683 c -0.137875,-0.020839 -0.266907,-0.03353 -0.404232,-0.055646 -0.06866,-0.011059 -0.133598,-0.03035 -0.202117,-0.041735 -0.03848,-0.00639 -0.07707,-0.00742 -0.115495,-0.013911 -0.03423,-0.00579 -0.06686,-0.00804 -0.101058,-0.013911 -0.06837,-0.011713 -0.133896,-0.029688 -0.202117,-0.041734 -0.03411,-0.00602 -0.06699,-0.00781 -0.101058,-0.013912 -0.06814,-0.012214 -0.13413,-0.02918 -0.202117,-0.041734 -0.03399,-0.00628 -0.0671,-0.00755 -0.101059,-0.013912 -0.06791,-0.012725 -0.134371,-0.028664 -0.202116,-0.041735 -0.27098,-0.052282 -0.540236,-0.1089706 -0.808466,-0.1669384 -0.06706,-0.014492 -0.13524,-0.026878 -0.202117,-0.041734 -0.06688,-0.014857 -0.135425,-0.026509 -0.202116,-0.041735 -0.03335,-0.00761 -0.06776,-0.020116 -0.101059,-0.027822 -0.08844,-0.02355 -0.183575,-0.045132 -0.2743,-0.069558 -0.04536,-0.012213 -0.08416,-0.029265 -0.129933,-0.041734 -0.09155,-0.02494 -0.181729,-0.043441 -0.274301,-0.069558 -0.04629,-0.013059 -0.09798,-0.028344 -0.144369,-0.041734 -0.04638,-0.013391 -0.08356,-0.027987 -0.1299315,-0.041735 -0.046374,-0.013748 -0.09811,-0.027605 -0.14437,-0.041734 C 9.807438,5.6261312 9.7553689,5.6130638 9.7093291,5.5985265 9.6402701,5.5767202 9.5754788,5.5517628 9.5072125,5.5289689 9.4617021,5.5137738 9.4223064,5.5029006 9.3772805,5.4872349 9.3547668,5.4794016 9.3274686,5.467367 9.3050959,5.4594116 9.2603511,5.4435013 9.219266,5.4340951 9.1751639,5.4176773 9.0869605,5.3848412 9.0002989,5.3414036 8.9152999,5.306385 8.7665512,5.2451035 8.6175693,5.1804339 8.482193,5.1116243 8.4280422,5.0841004 8.374891,5.0570044 8.3233866,5.0281552 c -0.00366,-0.00206 -0.010792,0.00207 -0.014436,0 C 8.279175,5.0113557 8.2655642,4.9897743 8.2367655,4.972509 8.2278941,4.9672201 8.216668,4.9639316 8.2078918,4.958598 8.111207,4.8997895 8.017527,4.8422714 7.9335906,4.7777484 c -0.00762,-0.00586 -0.00693,-0.00801 -0.014436,-0.013912 -0.010523,-0.00828 -0.018583,-0.019443 -0.028875,-0.027822 -0.00739,-0.00596 -0.00717,-0.00791 -0.014436,-0.013912 -0.061152,-0.050531 -0.1210043,-0.098809 -0.1732429,-0.1530263 -0.00626,-0.00642 -0.00831,-0.00743 -0.014437,-0.013911 -0.010743,-0.011352 -0.018547,-0.030216 -0.028874,-0.041734 -0.00234,-0.00264 -0.012115,0.00264 -0.014437,0 -0.025814,-0.029022 -0.034666,-0.053368 -0.057747,-0.083469 -0.0053,-0.00681 -0.00928,-0.00704 -0.014436,-0.013912 -0.017539,-0.023375 -0.02749,-0.045517 -0.043311,-0.069558 -0.00471,-0.00704 -0.00988,-0.00681 -0.014437,-0.013911 -0.018249,-0.028422 -0.04199,-0.054099 -0.057747,-0.083469 -0.00394,-0.00734 -0.010657,-0.020421 -0.014437,-0.027823 -0.01323,-0.025909 -0.017648,-0.056811 -0.028874,-0.083468 -0.00481,-0.011425 -0.010003,-0.016259 -0.014437,-0.027823 -0.00205,-0.010717 0.00159,-0.031104 0,-0.041735 -0.00159,-0.01063 -0.013302,-0.017278 -0.014437,-0.027823 -0.00151,-0.014059 7.194e-4,-0.027827 0,-0.041735 -3.618e-4,-0.00696 1.675e-4,-0.00699 0,-0.013911 -1.634e-4,-0.00692 -2.97e-5,-0.020945 0,-0.027823 2.7e-5,-0.00688 -2.172e-4,-0.00707 0,-0.013911 4.444e-4,-0.013681 -0.0012,-0.028204 0,-0.041735 5.95e-4,-0.00677 -7.803e-4,-0.00718 0,-0.013911 0.00118,-0.010091 0.012845,-0.017816 0.014437,-0.027823 0.00159,-0.010007 -0.002,-0.031811 0,-0.041734 0.00133,-0.00662 -0.0015,-0.00733 0,-0.013911 0.00151,-0.00658 0.012749,-0.021281 0.014437,-0.027823 0.00168,-0.00655 -0.00185,-0.0074 0,-0.013911 0.00186,-0.00651 -0.00204,-0.00744 0,-0.013912 0.0081,-0.025902 0.018088,-0.058148 0.028874,-0.083469 0.00271,-0.00632 0.011567,-0.00763 0.014437,-0.013911 0.0043,-0.00943 0.00977,-0.018477 0.014436,-0.027823 0.00467,-0.00935 0.00942,-0.01856 0.014437,-0.027823 0.00502,-0.00926 0.00907,-0.018641 0.014437,-0.027823 0.00179,-0.00306 -0.00183,-0.01086 0,-0.013912 0.00729,-0.012228 0.020985,-0.029648 0.028874,-0.041734 0.011873,-0.018095 0.015688,-0.023961 0.028874,-0.041734 0.0044,-0.00592 0.0099,-0.021934 0.014437,-0.027823 0.00452,-0.0059 0.00977,-0.00805 0.014436,-0.013912 0.00468,-0.00585 0.00962,-0.00809 0.014437,-0.013911 0.0096,-0.011662 0.018733,-0.030213 0.028874,-0.041734 0.00712,-0.00805 0.021495,-0.00593 0.028874,-0.013912 0.010406,-0.011451 0.017952,-0.016511 0.028874,-0.027823 0.00548,-0.00564 0.00883,-0.022215 0.014437,-0.027823 0.011174,-0.011243 0.017205,-0.016719 0.028874,-0.027823 0.00585,-0.00554 0.00846,-0.00841 0.014436,-0.013912 0.011911,-0.011035 0.030929,-0.030837 0.043311,-0.041734 0.00621,-0.00543 0.00811,-0.00851 0.014437,-0.013912 0.018916,-0.016244 0.037831,-0.025798 0.057747,-0.041734 0.00666,-0.0053 0.02211,-0.00865 0.028874,-0.013911 0.026985,-0.021113 0.04356,-0.048986 0.072185,-0.069558 0.021523,-0.015382 0.049799,-0.026655 0.072185,-0.041734 0.022331,-0.015127 0.049043,-0.026907 0.072185,-0.041734 0.015465,-0.00985 0.027505,-0.018102 0.043311,-0.027823 0.081183,-0.050501 0.1563273,-0.1060172 0.2454268,-0.1530265 0.06898,-0.036394 0.1439493,-0.063035 0.2165538,-0.097381 0.054452,-0.025759 0.1027959,-0.058844 0.1588057,-0.083469 0.03734,-0.016417 0.077617,-0.025815 0.1154948,-0.041734 0.01894,-0.00796 0.038697,-0.019987 0.057748,-0.027823 0.038102,-0.015671 0.077039,-0.026553 0.1154948,-0.041734 0.019228,-0.00759 0.038453,-0.020354 0.057747,-0.027823 0.03859,-0.014937 0.076734,-0.027281 0.1154947,-0.041734 0.038762,-0.014454 0.076686,-0.02776 0.1154963,-0.041735 0.03881,-0.013975 0.076758,-0.028233 0.1154948,-0.041734 0.038737,-0.013501 0.076954,-0.028702 0.1154947,-0.041734 0.019284,-0.00651 0.038538,-0.00752 0.057749,-0.013912 0.038398,-0.012799 0.077475,-0.029398 0.1154948,-0.041735 0.057029,-0.018505 0.11741,-0.038167 0.1732421,-0.055646 0.02103,-0.00606 0.036752,-0.00794 0.057748,-0.013911 0.062987,-0.017904 0.124667,-0.038346 0.18768,-0.055646 0.0042,-0.00115 0.01023,0.00115 0.01444,0 0.07984,-0.021876 0.164581,-0.04807 0.245428,-0.069558 -2.9374165,0.3412653 -4.7353034,0.909682 -4.7353034,1.9197867 4e-7,0.1967074 0,3.295079 0,3.4917873 4e-7,2.1337818 8.0049794,3.8673974 17.8728814,3.8673974 9.867902,0 17.872881,-1.7336156 17.872881,-3.8673974 0,-0.1967083 0,-3.2950792 0,-3.4917873 0,-1.0319453 -1.873549,-1.6144806 -4.922982,-1.961521 z"
       id="path3959"
       style="fill:url(#linearGradient2495);fill-opacity:1;fill-rule:evenodd;stroke:#808389;stroke-width:0;stroke-linecap:round;stroke-linejoin:round;stroke-miterlimit:4;stroke-opacity:1;stroke-dasharray:none;stroke-dashoffset:0;marker:none;visibility:visible;display:inline;overflow:visible" />
    <path
       d="m 23.034586,0.14521864 c -0.583505,0.003164 -1.165855,0.0156976 -1.746864,0.0278232 C 16.938002,0.32775065 12.473259,0.67647545 8.5110664,1.9258905 7.1961445,2.3765724 5.517147,3.1020913 5.7103077,4.2073766 6.1280013,5.4000984 8.0750267,5.9777913 9.6371446,6.4332166 14.342429,7.6254651 19.48263,7.8882594 24.492713,7.8661007 29.122123,7.7815467 33.870395,7.4755594 38.150018,6.252367 39.557737,5.8002025 41.338836,5.1581455 41.441632,4.0126159 41.441812,3.8788929 41.415279,3.736991 41.355008,3.6091822 40.670443,2.4519274 38.723561,1.926234 37.081688,1.4807225 32.599141,0.42446426 27.785983,0.11946123 23.034586,0.14521864 z M 22.182809,0.7573244 c 4.596132,-0.0611494 9.283048,0.16377538 13.628433,1.0990086 1.48726,0.3685983 3.248986,0.8092939 3.869088,1.7667606 0.05459,0.1057448 0.08678,0.2093282 0.08662,0.3199647 C 39.67383,4.8908242 38.053669,5.4191842 36.77851,5.7932877 32.901883,6.8053084 28.59956,7.0727458 24.406087,7.1427027 19.867795,7.1610361 15.213105,6.9327335 10.950902,5.9463144 9.5358835,5.5695133 7.7777852,5.0968073 7.3994251,4.109996 7.2244531,3.1955268 8.7347833,2.5909081 9.9258819,2.218032 13.514967,1.1843151 17.564155,0.89923635 21.504276,0.77123649 c 0.225555,-0.0043 0.452493,-0.0109042 0.678533,-0.0139121 z"
       id="path18219"
       style="fill:#d9dcd5;fill-opacity:1;fill-rule:evenodd;stroke:url(#linearGradient2492);stroke-width:0.18747689;stroke-linecap:round;stroke-linejoin:round;stroke-miterlimit:4;stroke-opacity:1;stroke-dasharray:none;stroke-dashoffset:0;marker:none;visibility:visible;display:inline;overflow:visible" />
    <path
       d="m 23.034587,0.14521865 c -0.583505,0.003164 -1.165856,0.0156976 -1.746865,0.0278231 C 16.938003,0.32775066 12.473259,0.67647546 8.5110667,1.9258906 7.1961447,2.3765725 5.5171472,3.1020914 5.7103079,4.2073767 6.1280015,5.4000989 8.0750269,5.9777917 9.6371452,6.4332166 14.34243,7.6254654 19.482631,7.8882593 24.492714,7.866101 29.122124,7.7815467 33.870397,7.4755597 38.15002,6.2523674 39.557739,5.8002023 41.338837,5.1581457 41.441633,4.012616 41.441814,3.878893 41.415281,3.7369912 41.35501,3.6091823 40.670444,2.4519275 38.723562,1.926234 37.08169,1.4807225 32.599142,0.42446429 27.785984,0.11946127 23.034587,0.14521865 z m -0.851778,0.61210578 c 4.596133,-0.0611493 9.283049,0.16377539 13.628434,1.09900867 1.48726,0.3685983 3.248987,0.8092939 3.869089,1.7667607 0.05459,0.1057447 0.08678,0.2093282 0.08662,0.3199646 -0.09312,0.9477662 -1.713281,1.4761264 -2.98844,1.8502298 C 32.901888,6.8053087 28.599565,7.072746 24.406092,7.1427027 19.867796,7.1610364 15.213106,6.9327338 10.950902,5.9463143 9.5358837,5.5695135 7.7777853,5.0968078 7.3994254,4.1099962 7.2244533,3.1955269 8.7347837,2.5909082 9.9258821,2.2180321 13.514967,1.1843151 17.564155,0.89923642 21.504276,0.77123649 c 0.225556,-0.0043 0.452495,-0.0109042 0.678533,-0.0139121 z"
       id="path7867"
       style="fill:url(#linearGradient2489);fill-opacity:1;fill-rule:evenodd;stroke:none;stroke-width:0.49905977;marker:none;visibility:visible;display:inline;overflow:visible" />
  </g>
</svg>
