<?xml version="1.0" encoding="UTF-8" standalone="no"?>
<!-- Created with Inkscape (http://www.inkscape.org/) -->

<svg
   xmlns:svg="http://www.w3.org/2000/svg"
   xmlns="http://www.w3.org/2000/svg"
   xmlns:xlink="http://www.w3.org/1999/xlink"
   version="1.0"
   width="32"
   height="32"
   id="svg3366">
  <defs
     id="defs3368">
    <linearGradient
       id="linearGradient4873-3">
      <stop
         id="stop4875-0"
         style="stop-color:white;stop-opacity:1"
         offset="0" />
      <stop
         id="stop4877-1"
         style="stop-color:white;stop-opacity:0"
         offset="1" />
    </linearGradient>
    <linearGradient
       id="linearGradient3242-187-536-9">
      <stop
         id="stop2778-3"
         style="stop-color:#8badea;stop-opacity:1"
         offset="0" />
      <stop
         id="stop2780-9"
         style="stop-color:#6396cd;stop-opacity:1"
         offset="0.26238" />
      <stop
         id="stop2782-2"
         style="stop-color:#3b7caf;stop-opacity:1"
         offset="0.66093999" />
      <stop
         id="stop2784-8"
         style="stop-color:#194c70;stop-opacity:1"
         offset="1" />
    </linearGradient>
    <linearGradient
       id="linearGradient2490-182-124-2">
      <stop
         id="stop2788-4"
         style="stop-color:#1f4b6a;stop-opacity:1"
         offset="0" />
      <stop
         id="stop2790-7"
         style="stop-color:#4083c2;stop-opacity:1"
         offset="1" />
    </linearGradient>
    <linearGradient
       id="linearGradient8838-0">
      <stop
         id="stop8840-8"
         style="stop-color:black;stop-opacity:1"
         offset="0" />
      <stop
         id="stop8842-6"
         style="stop-color:black;stop-opacity:0"
         offset="1" />
    </linearGradient>
    <linearGradient
       x1="63.397362"
       y1="-12.489107"
       x2="63.397362"
       y2="5.4675598"
       id="linearGradient3061"
       xlink:href="#linearGradient4873-3"
       gradientUnits="userSpaceOnUse"
       gradientTransform="matrix(1.5436509,0,0,1.5436158,-80.015709,21.419381)" />
    <radialGradient
       cx="23.895569"
       cy="3.9900031"
       r="20.397499"
       fx="23.895569"
       fy="3.9900031"
       id="radialGradient3064"
       xlink:href="#linearGradient3242-187-536-9"
       gradientUnits="userSpaceOnUse"
       gradientTransform="matrix(0,1.7008781,-2.245129,0,24.958074,-40.236051)" />
    <linearGradient
       x1="18.379412"
       y1="44.980297"
       x2="18.379412"
       y2="3.0816143"
       id="linearGradient3066"
       xlink:href="#linearGradient2490-182-124-2"
       gradientUnits="userSpaceOnUse"
       gradientTransform="matrix(0.7126612,0,0,0.7126613,-1.1038674,-1.1038704)" />
    <radialGradient
       cx="62.625"
       cy="4.625"
       r="10.625"
       fx="62.625"
       fy="4.625"
       id="radialGradient3069"
       xlink:href="#linearGradient8838-0"
       gradientUnits="userSpaceOnUse"
       gradientTransform="matrix(1.5058824,0,0,0.37647,-78.305885,26.258824)" />
  </defs>
  <path
     d="m 32.000001,28 c 0,2.209139 -7.163445,4 -16.000001,4 -8.8365551,0 -16,-1.790861 -16,-4 0,-2.209139 7.1634449,-4 16,-4 8.836556,0 16.000001,1.790861 16.000001,4 l 0,0 z"
     id="path8836-8"
     style="opacity:0.3;fill:url(#radialGradient3069);fill-opacity:1;fill-rule:evenodd;stroke:none;stroke-width:0.99999988;marker:none;visibility:visible;display:inline;overflow:visible" />
  <path
     d="m 16.000004,1.5017975 c -7.999607,0 -14.498203,6.4985937 -14.498203,14.4982015 0,7.999609 6.498596,14.498206 14.498203,14.498203 7.999605,0 14.498209,-6.498594 14.498201,-14.498203 0,-7.9996078 -6.498596,-14.4982015 -14.498201,-14.4982015 z"
     id="path2555-9"
     style="fill:url(#radialGradient3064);fill-opacity:1;stroke:url(#linearGradient3066);stroke-width:1.00365412;stroke-linecap:round;stroke-linejoin:round;stroke-miterlimit:4;stroke-opacity:1;stroke-dasharray:none;stroke-dashoffset:0" />
  <path
     d="M 29.500003,15.999522 C 29.500003,23.455607 23.455402,29.5 16.000175,29.5 8.544263,29.5 2.5000032,23.455539 2.5000032,15.999522 c 0,-7.4557398 6.0442598,-13.4995209 13.5001718,-13.4995209 7.455227,0 13.499828,6.0437811 13.499828,13.4995209 l 0,0 z"
     id="path8655-1"
     style="opacity:0.4;fill:none;stroke:url(#linearGradient3061);stroke-width:1;stroke-miterlimit:4;stroke-opacity:1;stroke-dasharray:none" />
  <path
     d="m 16,6.0088899 c -1.104,0 -2,0.8960006 -2,2 0,1.104 0.896,2.0000001 2,2.0000001 1.104,0 2,-0.8960011 2,-2.0000001 0,-1.1039994 -0.896,-2 -2,-2 z m -8.1875,3.6875 c -0.061129,0.00886 -0.1314331,0.035424 -0.1875,0.0625 -0.2242685,0.108304 -0.3719077,0.3494821 -0.375,0.5937501 -0.00285,0.244301 0.15352,0.480073 0.375,0.59375 l 6.375,1.9375 0,4.4375 -2.46875,6.625 c -0.206767,0.302808 -0.15389,0.704376 0.15625,0.90625 0.310153,0.201904 0.761963,0.146591 0.96875,-0.15625 l 3.46875,-7.1875 3.375,7.15625 c 0.183802,0.314077 0.61586,0.429466 0.9375,0.25 0.32164,-0.179463 0.433796,-0.56092 0.25,-0.875 l -2.65625,-6.6875 0,-4.1875 6.625,-2.25 c 0.249272,-0.170685 0.357965,-0.503336 0.25,-0.78125 -0.107974,-0.2779451 -0.416268,-0.4399281 -0.71875,-0.4062501 -0.105701,0.01716 -0.195649,0.062064 -0.28125,0.125 L 16.09375,11.671 8.34375,9.8526399 C 8.1932186,9.7432299 7.995886,9.6698239 7.8125,9.6963899 z"
     id="path3091"
     style="opacity:0.2;fill:black;fill-opacity:1;stroke:none" />
  <path
     d="m 16,7 c -1.104,0 -2,0.8960006 -2,2 0,1.104 0.896,2 2,2 1.104,0 2,-0.896001 2,-2 C 18,7.8960006 17.104,7 16,7 z M 7.8125,10.6875 C 7.751371,10.6964 7.6810669,10.72292 7.625,10.75 7.4007315,10.858304 7.2530923,11.099482 7.25,11.34375 7.24715,11.588051 7.40352,11.823823 7.625,11.9375 L 14,13.875 l 0,4.4375 -2.46875,6.625 c -0.206767,0.302808 -0.15389,0.704376 0.15625,0.90625 0.310153,0.201904 0.761963,0.146591 0.96875,-0.15625 L 16.125,18.5 19.5,25.65625 c 0.183802,0.314077 0.61586,0.429466 0.9375,0.25 0.32164,-0.179463 0.433796,-0.56092 0.25,-0.875 l -2.65625,-6.6875 0,-4.1875 6.625,-2.25 c 0.249272,-0.170685 0.357965,-0.503336 0.25,-0.78125 -0.107974,-0.277945 -0.416268,-0.439928 -0.71875,-0.40625 -0.105701,0.01716 -0.195649,0.06206 -0.28125,0.125 l -7.8125,1.81825 -7.75,-1.81825 C 8.1932186,10.73434 7.995886,10.660934 7.8125,10.6875 z"
     id="path3088"
     style="fill:white;fill-opacity:1;stroke:none" />
</svg>
