<?xml version="1.0" encoding="UTF-8" standalone="no"?>
<!-- Created with Inkscape (http://www.inkscape.org/) -->
<svg
   xmlns:dc="http://purl.org/dc/elements/1.1/"
   xmlns:cc="http://creativecommons.org/ns#"
   xmlns:rdf="http://www.w3.org/1999/02/22-rdf-syntax-ns#"
   xmlns:svg="http://www.w3.org/2000/svg"
   xmlns="http://www.w3.org/2000/svg"
   xmlns:sodipodi="http://sodipodi.sourceforge.net/DTD/sodipodi-0.dtd"
   xmlns:inkscape="http://www.inkscape.org/namespaces/inkscape"
   version="1.0"
   width="22"
   height="22"
   id="svg3356"
   sodipodi:version="0.32"
   inkscape:version="0.46"
   sodipodi:docname="apport.svg"
   inkscape:output_extension="org.inkscape.output.svg.inkscape">
  <metadata
     id="metadata9">
    <rdf:RDF>
      <cc:Work
         rdf:about="">
        <dc:format>image/svg+xml</dc:format>
        <dc:type
           rdf:resource="http://purl.org/dc/dcmitype/StillImage" />
      </cc:Work>
    </rdf:RDF>
  </metadata>
  <sodipodi:namedview
     inkscape:window-height="707"
     inkscape:window-width="661"
     inkscape:pageshadow="2"
     inkscape:pageopacity="0.0"
     guidetolerance="10.0"
     gridtolerance="10.0"
     objecttolerance="10.0"
     borderopacity="1.0"
     bordercolor="#666666"
     pagecolor="#ffffff"
     id="base"
     showgrid="false"
     inkscape:zoom="22.636364"
     inkscape:cx="11"
     inkscape:cy="11"
     inkscape:window-x="0"
     inkscape:window-y="24"
     inkscape:current-layer="svg3356" />
  <defs
     id="defs3358" />
  <path
     style="fill:none;stroke:#ff2d2d;stroke-width:1.29999959000000009;stroke-linecap:round;stroke-linejoin:round;stroke-miterlimit:4;stroke-opacity:1"
     id="path2299"
     d="M 18.268116,14.192801 L 15.686385,14.247511 L 18.358598,19.349805 L 13.048092,16.137652 L 12.851016,18.701115 L 11.291429,16.239622 L 8.433522,18.902121 L 8.255456,15.585739 L 2.649965,17.610102 L 6.558955,12.354628 L 2.990122,11.19986 L 7.147151,9.8639496 L 3.035271,5.8099274 L 7.956312,6.8843362 L 7.938174,2.6501906 L 11.363596,5.7590912 L 12.894409,3.6903375 L 13.516791,5.8878205 L 19.31569,2.7686701 L 16.329517,9.334689 L 19.350035,10.333019 L 16.286744,12.3082 L 18.268116,14.192801 L 18.268116,14.192801 z" />
  <path
     style="fill:#ff2d2d;fill-opacity:1"
     id="path2233"
     d="M 10,7 L 12,7 L 11.727189,12 L 10.246813,12 L 10,7 z" />
  <path
     style="fill:#ff2d2d;fill-opacity:1"
     id="path49"
     d="M 10,13 L 12,13 L 12,15 L 10,15 L 10,13 z" />
</svg>
