<?xml version="1.0" encoding="UTF-8" standalone="no"?>
<!-- Created with Inkscape (http://www.inkscape.org/) -->

<svg
   xmlns:svg="http://www.w3.org/2000/svg"
   xmlns="http://www.w3.org/2000/svg"
   xmlns:xlink="http://www.w3.org/1999/xlink"
   version="1.0"
   width="16"
   height="16"
   id="svg2">
  <defs
     id="defs4">
    <linearGradient
       id="linearGradient3670">
      <stop
         id="stop3672"
         style="stop-color:#ce5c00;stop-opacity:1"
         offset="0" />
      <stop
         id="stop3674"
         style="stop-color:#ce5c00;stop-opacity:0"
         offset="1" />
    </linearGradient>
    <radialGradient
       cx="12.5"
       cy="15.927882"
       r="18.5"
       fx="12.5"
       fy="15.927882"
       id="radialGradient3797"
       xlink:href="#linearGradient6945"
       gradientUnits="userSpaceOnUse"
       gradientTransform="matrix(1.0590143,0,0,0.91670934,-8.5804982,-5.9342525)" />
    <linearGradient
       id="linearGradient6945">
      <stop
         id="stop6947"
         style="stop-color:#ffffff;stop-opacity:1"
         offset="0" />
      <stop
         id="stop6949"
         style="stop-color:#d3d7cf;stop-opacity:1"
         offset="1" />
    </linearGradient>
    <radialGradient
       cx="13.107393"
       cy="61.48016"
       r="18.5"
       fx="13.107393"
       fy="61.48016"
       id="radialGradient3803"
       xlink:href="#linearGradient6945"
       gradientUnits="userSpaceOnUse"
       gradientTransform="matrix(1.3366501,0,0,1.1735875,-14.336509,-61.583038)" />
    <linearGradient
       id="linearGradient6934">
      <stop
         id="stop6936"
         style="stop-color:#babdb6;stop-opacity:1"
         offset="0" />
      <stop
         id="stop6938"
         style="stop-color:#babdb6;stop-opacity:0"
         offset="1" />
    </linearGradient>
    <linearGradient
       x1="14.125"
       y1="79.81311"
       x2="14.125"
       y2="75.499176"
       id="linearGradient3785"
       xlink:href="#linearGradient6934"
       gradientUnits="userSpaceOnUse"
       gradientTransform="matrix(0.40826061,0,0,0.52,-0.68567521,-22.839971)" />
    <linearGradient
       id="linearGradient2442-9">
      <stop
         id="stop2444-3"
         style="stop-color:#fcaf3e;stop-opacity:1"
         offset="0" />
      <stop
         id="stop2446-9"
         style="stop-color:#f57900;stop-opacity:0"
         offset="1" />
    </linearGradient>
    <linearGradient
       id="linearGradient3712-0">
      <stop
         id="stop3714-8"
         style="stop-color:#bf8407;stop-opacity:1"
         offset="0" />
      <stop
         id="stop3716-8"
         style="stop-color:#bf8407;stop-opacity:0"
         offset="1" />
    </linearGradient>
    <linearGradient
       x1="28.442495"
       y1="12.162322"
       x2="47.224953"
       y2="12.162322"
       id="linearGradient2875-5"
       xlink:href="#linearGradient2442-9"
       gradientUnits="userSpaceOnUse"
       gradientTransform="matrix(-0.31938521,1.0966612e-4,-1.0755691e-4,-0.31332542,19.086786,23.807593)" />
    <linearGradient
       x1="15"
       y1="19"
       x2="9"
       y2="19"
       id="linearGradient2877-0"
       xlink:href="#linearGradient3712-0"
       gradientUnits="userSpaceOnUse"
       gradientTransform="matrix(0.99980652,-3.4329375e-4,3.4325645e-4,0.99991523,-5.0029426,-0.99312444)" />
    <linearGradient
       x1="28.442495"
       y1="12.162322"
       x2="47.224953"
       y2="12.162322"
       id="linearGradient2894"
       xlink:href="#linearGradient2442-9"
       gradientUnits="userSpaceOnUse"
       gradientTransform="matrix(-0.31938521,1.0966612e-4,-1.0755691e-4,-0.31332542,15.086786,23.807593)" />
    <linearGradient
       x1="15"
       y1="19"
       x2="9"
       y2="19"
       id="linearGradient2896"
       xlink:href="#linearGradient3670"
       gradientUnits="userSpaceOnUse"
       gradientTransform="matrix(0.99980652,-3.4329375e-4,3.4325645e-4,0.99991523,-9.002943,-0.99312444)" />
  </defs>
  <g
     transform="translate(-0.99999974,-6.9999998)"
     id="layer1">
    <rect
       width="14.996937"
       height="9.9969368"
       rx="0.80683851"
       ry="0.8054201"
       x="1.5015312"
       y="8.5015316"
       id="rect11046"
       style="fill:url(#radialGradient3797);fill-opacity:1;fill-rule:evenodd;stroke:#888a85;stroke-width:1.00306296;stroke-linecap:butt;stroke-linejoin:miter;stroke-miterlimit:4;stroke-opacity:0.99236642;stroke-dasharray:none;stroke-dashoffset:0.69999992" />
    <path
       d="m 1.7638886,18.24003 5.3602426,-5.89875 c 2.0731073,-1.717322 1.6575779,-1.572036 3.7517358,0 l 5.360243,5.89875 -5.360243,-5.37875 c -2.3605797,-1.661217 -1.3978729,-1.479539 -3.7517358,0 l -5.3602426,5.37875 z"
       id="path11050"
       style="fill:#5a5c58;fill-opacity:0.99803928;fill-rule:evenodd;stroke:none" />
    <path
       d="m 1.7638886,18.251209 5.3602426,-4.85875 c 2.3396429,-1.690409 1.3754877,-1.449445 3.7517358,0 l 5.360243,4.85875 -5.360243,-5.37875 c -2.3605797,-1.661217 -1.3978729,-1.479539 -3.7517358,0 l -5.3602426,5.37875 z"
       id="path11052"
       style="fill:#ffffff;fill-opacity:1;fill-rule:evenodd;stroke:none" />
    <path
       d="m 2.496441,8.9999999 -0.4964413,0.256227 5.5729536,5.7520661 c 0.2701788,0.278863 0.415214,0.498153 0.8487544,0.677686 1.6884803,0.499339 -0.5362147,0.362134 1.1565823,0 0.43531,-0.17972 0.579182,-0.399449 0.848755,-0.677686 l 5.572953,-5.7520661 c 0.277897,-0.75391 -0.301872,0.133498 -0.496441,-0.256227 l -13.007116,0 z"
       id="path11054"
       style="fill:url(#radialGradient3803);fill-opacity:1;fill-rule:evenodd;stroke:none" />
    <path
       d="M 1.7638886,9.0600299 7.1241312,14.95878 c 2.0731073,1.717322 1.6575779,1.572036 3.7517358,0 L 16.23611,9.0600299 10.875867,14.43878 c -2.342466,1.592848 -1.4185302,1.43102 -3.7517358,0 L 1.7638886,9.0600299 z"
       id="path11056"
       style="fill:#5a5c58;fill-opacity:0.99803928;fill-rule:evenodd;stroke:none" />
    <path
       d="m 2.7031246,9.4999999 c -0.1282667,0 -0.203125,0.07131 -0.203125,0.194 l 0,7.6117371 c 0,0.122689 0.074858,0.194293 0.203125,0.194294 l 12.5937494,0 c 0.128265,0 0.203125,-0.0716 0.203125,-0.194294 l 0,-7.6117371 c 0,-0.12269 -0.07486,-0.194 -0.203125,-0.194 l -12.5937494,0 z"
       id="path11060"
       style="opacity:0.7;fill:none;stroke:#ffffff;stroke-width:0.99999982;stroke-linecap:butt;stroke-linejoin:round;stroke-miterlimit:4;stroke-opacity:0.99236642;stroke-dasharray:none;stroke-dashoffset:0.69999992" />
    <path
       d="m 1.7638886,16.111281 0,1.657499 c 0,0.270923 0.1572787,0.47125 0.3699862,0.47125 l 13.5491492,0 c 0.212708,0 0.369987,-0.200327 0.369987,-0.47125 l 0,-1.657499 -14.2891224,0 z"
       id="path11062"
       style="opacity:0.55597014;fill:url(#linearGradient3785);fill-opacity:1;fill-rule:evenodd;stroke:none" />
    <path
       d="M 4.5012563,19.501876 11.5,19.499476 l 0,3.000599 5,-4.500076 -5,-4.5 0,3 -7.0000757,0"
       id="path2911"
       style="fill:url(#linearGradient2875-5);fill-opacity:1;fill-rule:nonzero;stroke:url(#linearGradient2877-0);stroke-width:0.99984908;stroke-linecap:butt;stroke-linejoin:round;stroke-miterlimit:4;stroke-opacity:1;stroke-dasharray:none;stroke-dashoffset:0;marker:none;visibility:visible;display:inline;overflow:visible" />
    <path
       d="M 1.4989997,19.501876 7.5,19.499476 l 0,3.000599 5,-4.500076 -5,-4.5 0,3 -6.0010003,0"
       id="path2892"
       style="fill:url(#linearGradient2894);fill-opacity:1;fill-rule:nonzero;stroke:url(#linearGradient2896);stroke-width:0.99984908;stroke-linecap:butt;stroke-linejoin:round;stroke-miterlimit:4;stroke-opacity:1;stroke-dasharray:none;stroke-dashoffset:0;marker:none;visibility:visible;display:inline;overflow:visible" />
  </g>
</svg>
