<?xml version="1.0" encoding="UTF-8" standalone="no"?>
<!-- Created with Inkscape (http://www.inkscape.org/) -->
<svg id="svg2473" xmlns="http://www.w3.org/2000/svg" height="16" width="16" version="1.1" xmlns:xlink="http://www.w3.org/1999/xlink">
 <defs id="defs2475">
  <linearGradient id="linearGradient3533">
   <stop id="stop3535" style="stop-color:#93b9dd" offset="0"/>
   <stop id="stop3545" style="stop-color:#6396cd" offset="1"/>
  </linearGradient>
  <linearGradient id="linearGradient6283" y2="224.3" gradientUnits="userSpaceOnUse" x2="107.37" y1="230.02" x1="108.98">
   <stop id="stop6279" style="stop-color:#fff" offset="0"/>
   <stop id="stop6281" style="stop-color:#fff;stop-opacity:0" offset="1"/>
  </linearGradient>
  <linearGradient id="linearGradient6291" y2="226.83" gradientUnits="userSpaceOnUse" x2="108.84" y1="222.88" x1="107.26">
   <stop id="stop6287" style="stop-color:#fff" offset="0"/>
   <stop id="stop6289" style="stop-color:#fff;stop-opacity:0" offset="1"/>
  </linearGradient>
  <linearGradient id="linearGradient3697" y2="9" xlink:href="#linearGradient3533" gradientUnits="userSpaceOnUse" x2="9" x1="8"/>
  <linearGradient id="linearGradient3705" y2="227.41" xlink:href="#linearGradient3533" gradientUnits="userSpaceOnUse" x2="108.85" y1="219.64" x1="107.98"/>
  <linearGradient id="linearGradient3715" y2="230.86" gradientUnits="userSpaceOnUse" x2="108.85" y1="227.41" x1="112.31">
   <stop id="stop3711" style="stop-color:#6396cd;stop-opacity:0" offset="0"/>
   <stop id="stop3713" style="stop-color:#6396cd" offset="1"/>
  </linearGradient>
  <linearGradient id="linearGradient3725" y2="227.42" gradientUnits="userSpaceOnUse" x2="114.06" y1="230.02" x1="110.59">
   <stop id="stop3721" style="stop-color:#538ec6" offset="0"/>
   <stop id="stop3723" style="stop-color:#538ec6;stop-opacity:0" offset="1"/>
  </linearGradient>
 </defs>
 <g id="g6293" style="stroke:#000;enable-background:new" transform="translate(-103,-219)">
  <path id="path4517-5" style="stroke-width:3.4749;color:#000000;stroke:url(#linearGradient3725);stroke-linecap:round;enable-background:accumulate;fill:none" d="m112.89 228.3a4.75 4.75 0 0 1 -6.4122 0.8092" transform="matrix(1.1501 0 0 1.1521 -15.187 -33.014)"/>
  <path id="path4519-1-9" style="stroke-linejoin:round;stroke:#538ec6;stroke-linecap:round;stroke-width:4;fill:none" d="m116 221v4h-4"/>
  <path id="path3717" style="stroke-width:3.4749;color:#000000;stroke:#538ec6;stroke-linecap:round;enable-background:accumulate;fill:none" d="m106.87 229.36a4.75 4.75 0 1 1 6.2298 -6.8947" transform="matrix(1.1501 0 0 1.1521 -15.187 -33.014)"/>
 </g>
 <path id="path4517" style="stroke-width:1.7284;color:#000000;stroke:url(#linearGradient3705);stroke-linecap:round;fill:none" d="m107.99 229.83a4.75 4.75 0 1 1 5.1059 -7.3654" transform="matrix(1.1566 0 0 1.1577 -118.89 -253.27)"/>
 <path id="path4519-7" style="stroke-width:2;stroke:url(#linearGradient3697);stroke-linecap:round;enable-background:new;fill:none" d="m13 2v4h-4"/>
 <path id="path4519-8-7" style="opacity:0.24;stroke:#fff;stroke-linecap:round;enable-background:new;fill:none" d="m11 5.5h-2m3.5-3.5v1.3"/>
 <path id="path3707" style="stroke-width:1.7284;color:#000000;stroke:url(#linearGradient3715);stroke-linecap:round;fill:none" d="m112.88 228.31a4.75 4.75 0 0 1 -5.3346 1.3724" transform="matrix(1.1566 0 0 1.1577 -118.89 -253.27)"/>
 <path id="path4517-8" style="opacity:0.24;stroke-width:.79007;color:#000000;stroke:url(#linearGradient6291);stroke-linecap:round;fill:none" d="m106.52 229.13a4.75 4.75 0 1 1 6.5823 -6.6691" transform="matrix(1.2685 0 0 1.2629 -131.06 -276.98)"/>
 <path id="path4517-8-9" style="opacity:0.24;stroke-width:.95177;color:#000000;stroke:url(#linearGradient6283);stroke-linecap:round;fill:none" d="m111.91 229.19a4.75 4.75 0 1 1 1.1885 -6.7208" transform="matrix(1.0468 0 0 1.0546 -106.89 -230.05)"/>
</svg>
