<?xml version="1.0" encoding="UTF-8" standalone="no"?>
<svg
   id="svg2"
   height="24"
   width="24"
   version="1.0"
   xmlns:xlink="http://www.w3.org/1999/xlink"
   xmlns="http://www.w3.org/2000/svg"
   xmlns:svg="http://www.w3.org/2000/svg"
   xmlns:rdf="http://www.w3.org/1999/02/22-rdf-syntax-ns#"
   xmlns:cc="http://creativecommons.org/ns#"
   xmlns:dc="http://purl.org/dc/elements/1.1/">
  <defs
     id="defs4">
    <linearGradient
       id="linearGradient1069">
      <stop
         style="stop-color:#ed5353;stop-opacity:1"
         offset="0"
         id="stop1065" />
      <stop
         style="stop-color:#c6262e;stop-opacity:1"
         offset="1"
         id="stop1067" />
    </linearGradient>
    <linearGradient
       id="linearGradient2739">
      <stop
         offset="0"
         style="stop-color:#ffffff;stop-opacity:1"
         id="stop2731" />
      <stop
         offset="0.06460307"
         style="stop-color:#ffffff;stop-opacity:0.23529412"
         id="stop2733" />
      <stop
         offset="0.90302873"
         style="stop-color:#ffffff;stop-opacity:0.15686275"
         id="stop2735" />
      <stop
         offset="1"
         style="stop-color:#ffffff;stop-opacity:0.39215687"
         id="stop2737" />
    </linearGradient>
    <linearGradient
       id="linearGradient1275">
      <stop
         style="stop-color:#666666;stop-opacity:1"
         offset="0"
         id="stop1271" />
      <stop
         style="stop-color:#545454;stop-opacity:1"
         offset="1"
         id="stop1273" />
    </linearGradient>
    <linearGradient
       id="linearGradient7719">
      <stop
         offset="0"
         style="stop-color:#ffffff;stop-opacity:1"
         id="stop7711" />
      <stop
         offset="0.05676354"
         style="stop-color:#ffffff;stop-opacity:0.23529412"
         id="stop7713" />
      <stop
         offset="0.375"
         style="stop-color:#ffffff;stop-opacity:0.15686275"
         id="stop7715" />
      <stop
         offset="1"
         style="stop-color:#ffffff;stop-opacity:0.39215687"
         id="stop7717" />
    </linearGradient>
    <linearGradient
       id="linearGradient5589">
      <stop
         offset="0"
         style="stop-color:#ffffff;stop-opacity:1"
         id="stop5581" />
      <stop
         offset="0.02427281"
         style="stop-color:#ffffff;stop-opacity:0.23529412"
         id="stop5583" />
      <stop
         offset="1"
         style="stop-color:#ffffff;stop-opacity:0.15686275"
         id="stop5585" />
      <stop
         offset="1"
         style="stop-color:#ffffff;stop-opacity:0.39215687"
         id="stop5587" />
    </linearGradient>
    <linearGradient
       xlink:href="#linearGradient5589"
       id="linearGradient6129-7"
       gradientUnits="userSpaceOnUse"
       gradientTransform="matrix(0.18768808,0,0,0.18576713,28.577497,11.48603)"
       x1="-86.385597"
       y1="-16.640385"
       x2="-86.385597"
       y2="48.796478" />
    <linearGradient
       xlink:href="#linearGradient7719"
       id="linearGradient7590-5"
       gradientUnits="userSpaceOnUse"
       gradientTransform="matrix(0.18768808,0,0,0.18576713,28.577497,11.48603)"
       x1="-79.856186"
       y1="25.182055"
       x2="-79.856186"
       y2="-11.294232" />
    <linearGradient
       xlink:href="#linearGradient1275"
       id="linearGradient5054-6"
       gradientUnits="userSpaceOnUse"
       gradientTransform="matrix(0.35395207,0,0,-0.3656477,48.779993,-90.134945)"
       x1="-100.564"
       y1="-266.1683"
       x2="-100.564"
       y2="-305.76901" />
    <linearGradient
       xlink:href="#linearGradient2739"
       id="linearGradient2729-4"
       gradientUnits="userSpaceOnUse"
       gradientTransform="matrix(0.18768808,0,0,0.18576713,28.577497,11.890346)"
       x1="-34.386055"
       y1="0.90099287"
       x2="-34.386055"
       y2="46.369125" />
    <linearGradient
       xlink:href="#linearGradient1069"
       id="linearGradient1718-5"
       gradientUnits="userSpaceOnUse"
       gradientTransform="matrix(0.26732914,0,0,0.27080634,-5.6058531,-7.714301)"
       x1="105.26522"
       y1="69.82119"
       x2="105.26522"
       y2="107.54991" />
    <radialGradient
       cx="605.71429"
       cy="486.64789"
       r="117.14286"
       fx="605.71429"
       fy="486.64789"
       id="radialGradient2910"
       xlink:href="#linearGradient5060-6-6-5"
       gradientUnits="userSpaceOnUse"
       gradientTransform="matrix(-0.01606478,0,0,0.01235314,15.681609,15.470215)" />
    <linearGradient
       id="linearGradient5060-6-6-5">
      <stop
         id="stop5062-3-0-3"
         style="stop-color:#000000;stop-opacity:1"
         offset="0" />
      <stop
         id="stop5064-1-4-9"
         style="stop-color:#000000;stop-opacity:0"
         offset="1" />
    </linearGradient>
    <radialGradient
       cx="605.71429"
       cy="486.64789"
       r="117.14286"
       fx="605.71429"
       fy="486.64789"
       id="radialGradient2910-35"
       xlink:href="#linearGradient5060-6-6-5"
       gradientUnits="userSpaceOnUse"
       gradientTransform="matrix(0.01606478,0,0,0.01235314,-3.6816087,15.470215)" />
    <radialGradient
       gradientTransform="matrix(0.08363983,0,0,0.02389244,10.456522,17.052149)"
       gradientUnits="userSpaceOnUse"
       xlink:href="#linearGradient3820-7-2-2"
       id="radialGradient4277"
       fy="186.17059"
       fx="99.157013"
       r="62.769119"
       cy="186.17059"
       cx="99.157013" />
    <linearGradient
       id="linearGradient3820-7-2-2">
      <stop
         offset="0"
         style="stop-color:#3d3d3d;stop-opacity:1"
         id="stop3822-2-6-36" />
      <stop
         offset="0.5"
         style="stop-color:#686868;stop-opacity:0.49803922"
         id="stop3864-8-7-6" />
      <stop
         offset="1"
         style="stop-color:#686868;stop-opacity:0"
         id="stop3824-1-2-4" />
    </linearGradient>
    <radialGradient
       cx="605.71429"
       cy="486.64789"
       r="117.14286"
       fx="605.71429"
       fy="486.64789"
       id="radialGradient2910-0"
       xlink:href="#linearGradient5060-6-6-5"
       gradientUnits="userSpaceOnUse"
       gradientTransform="matrix(-0.01675648,0,0,0.01235314,26.596658,15.470215)" />
    <radialGradient
       cx="605.71429"
       cy="486.64789"
       r="117.14286"
       fx="605.71429"
       fy="486.64789"
       id="radialGradient2910-35-1"
       xlink:href="#linearGradient5060-6-6-5"
       gradientUnits="userSpaceOnUse"
       gradientTransform="matrix(0.01658686,0,0,0.01235314,6.4808228,15.470215)" />
    <linearGradient
       xlink:href="#linearGradient1061"
       id="linearGradient3"
       gradientUnits="userSpaceOnUse"
       x1="0"
       y1="-131.32045"
       x2="0"
       y2="131.31657"
       gradientTransform="matrix(0.04949798,0,0,0.04949797,8.5,8.5000959)" />
    <linearGradient
       id="linearGradient1061">
      <stop
         id="stop1057"
         offset="0"
         style="stop-color:#4d4d4d;stop-opacity:1" />
      <stop
         id="stop1059"
         offset="1"
         style="stop-color:#333333;stop-opacity:1" />
    </linearGradient>
    <linearGradient
       xlink:href="#linearGradient1"
       id="linearGradient2"
       x1="0"
       y1="-131.32045"
       x2="0"
       y2="131.31657"
       gradientUnits="userSpaceOnUse"
       gradientTransform="matrix(0.04949798,0,0,0.04949797,8.5,8.5000959)" />
    <linearGradient
       id="linearGradient1">
      <stop
         style="stop-color:#ffa154;stop-opacity:1;"
         offset="0"
         id="stop2" />
      <stop
         style="stop-color:#f37329;stop-opacity:1;"
         offset="1"
         id="stop1" />
    </linearGradient>
  </defs>
  <metadata
     id="metadata7">
    <rdf:RDF>
      <cc:Work
         rdf:about="">
        <dc:format>image/svg+xml</dc:format>
        <dc:type
           rdf:resource="http://purl.org/dc/dcmitype/StillImage" />
      </cc:Work>
    </rdf:RDF>
  </metadata>
  <path
     id="path8"
     style="baseline-shift:baseline;display:inline;overflow:visible;fill:url(#linearGradient3);stroke:#000000;stroke-width:1;stroke-linejoin:round;stroke-dasharray:none;stroke-opacity:0.5;paint-order:fill markers stroke;enable-background:accumulate;stop-color:#000000"
     d="M 8.4999034,1.5 C 7.626554,1.5000293 6.896776,2.063038 6.6057356,2.7656789 6.5027656,3.0142712 6.453816,3.2896308 6.4572418,3.5686674 6.2623562,3.3689647 6.0331496,3.2088259 5.7845712,3.1058804 5.0819056,2.814881 4.167833,2.9328623 3.5502986,3.5503956 2.9327656,4.1679291 2.8147834,5.0820027 3.1057832,5.7846683 3.2087532,6.0332872 3.3689174,6.262529 3.5686666,6.4574346 3.2895822,6.4540046 3.0142064,6.502929 2.7655818,6.6059285 2.0629456,6.8970151 1.5,7.6267629 1.5,8.5000959 c 0,0.873333 0.5629456,1.6030811 1.2655818,1.8941671 0.2486246,0.103 0.5240004,0.151931 0.8030848,0.148494 -0.1997492,0.194906 -0.3599204,0.424148 -0.4628834,0.672767 -0.2909998,0.702665 -0.1730176,1.616739 0.4445154,2.234272 0.6175344,0.617534 1.531607,0.735515 2.2342726,0.444515 0.248619,-0.102956 0.477862,-0.263134 0.6727672,-0.462883 -0.0035,0.279084 0.0455,0.554461 0.1484938,0.803084 0.2910866,0.702638 1.0208352,1.265583 1.8941678,1.265583 0.873333,0 1.603081,-0.562945 1.894168,-1.265583 0.102998,-0.248623 0.151931,-0.524 0.148494,-0.803084 0.194905,0.199749 0.424148,0.35992 0.672767,0.462883 0.702665,0.291 1.616738,0.173019 2.234272,-0.444515 0.617533,-0.617533 0.735516,-1.531607 0.444516,-2.234272 -0.102956,-0.248619 -0.263134,-0.477861 -0.462884,-0.672767 0.279085,0.0034 0.554461,-0.04549 0.803085,-0.148494 C 14.937054,10.103177 15.5,9.3734289 15.5,8.5000959 15.5,7.6267629 14.937054,6.8970151 14.234418,6.6059285 13.985794,6.5029291 13.710418,6.4539983 13.431333,6.4574346 13.631083,6.262529 13.791254,6.0332872 13.894217,5.7846683 14.185217,5.0820027 14.067234,4.1679291 13.449701,3.5503956 12.832167,2.9328623 11.918094,2.814881 11.215429,3.1058804 10.96685,3.2088266 10.737644,3.3689647 10.542758,3.5686674 10.546118,3.2896308 10.49723,3.0142712 10.394264,2.7656789 10.103224,2.063038 9.373446,1.5000293 8.5000966,1.5 Z" />
  <path
     style="baseline-shift:baseline;display:inline;overflow:visible;vector-effect:none;fill:url(#linearGradient2);stroke:none;stroke-width:38.0085;paint-order:markers stroke fill;enable-background:accumulate;stop-color:#000000"
     d="M 8.5,2.440655 A 1.1096012,1.1096009 0 0 0 7.7153798,4.3349192 V 6.6058318 L 6.1095952,5.0000481 A 1.1096012,1.1096009 0 1 0 4.999951,6.1096921 L 6.6057356,7.7154757 H 4.3348222 a 1.1096012,1.1096009 0 1 0 0,1.5692404 H 6.6057356 L 4.999951,10.8905 a 1.1096012,1.1096009 0 1 0 1.1096442,1.109644 L 7.7153798,10.39436 v 2.270912 a 1.1096012,1.1096009 0 1 0 1.5692402,0 V 10.39436 l 1.605785,1.605784 A 1.1096012,1.1096009 0 1 0 12.000049,10.8905 L 10.394264,9.2847161 h 2.270914 a 1.1096012,1.1096009 0 1 0 0,-1.5692404 H 10.394264 L 12.000049,6.1096921 A 1.1096012,1.1096009 0 1 0 10.890405,5.0000481 L 9.28462,6.6058318 V 4.3349192 A 1.1096012,1.1096009 0 0 0 8.5,2.440655 Z"
     id="path9" />
  <path
     style="display:inline;overflow:visible;visibility:visible;opacity:0.402062;fill:url(#radialGradient2910-35-1);fill-opacity:1;fill-rule:nonzero;stroke:none;stroke-width:0.782528;marker:none"
     id="path2516-8-9-9-9"
     d="m 16.477072,19.999571 c 0,0 0,2.999883 0,2.999883 0.854182,0.0056 2.064997,-0.672122 2.064997,-1.500135 0,-0.828012 -0.953203,-1.499748 -2.064997,-1.499748 z" />
  <path
     style="display:inline;overflow:visible;visibility:visible;opacity:0.402062;fill:url(#radialGradient2910-0);fill-opacity:1;fill-rule:nonzero;stroke:none;stroke-width:0.782528;marker:none"
     id="path2516-8-9-3"
     d="m 16.498188,19.999571 c 0,0 0,2.999883 0,2.999883 -0.862917,0.0056 -2.086113,-0.672122 -2.086113,-1.500135 0,-0.828012 0.96295,-1.499748 2.086113,-1.499748 z" />
  <path
     d="m 24,21.500219 a 5.2500001,1.4997073 0 1 1 -10.5,0 5.2500001,1.4997073 0 1 1 10.5,0 z"
     id="path3818-0-2"
     style="display:inline;fill:url(#radialGradient4277);fill-opacity:1;stroke:none;stroke-width:0.884438" />
  <path
     style="display:inline;overflow:visible;visibility:visible;opacity:0.402062;fill:url(#radialGradient2910-35);fill-opacity:1;fill-rule:nonzero;stroke:none;stroke-width:0.782528;marker:none"
     id="path2516-8-9-9"
     d="m 6,19.999571 c 0,0 0,2.999883 0,2.999883 0.8272963,0.0056 2,-0.672122 2,-1.500135 0,-0.828012 -0.9232003,-1.499748 -2,-1.499748 z" />
  <path
     style="display:inline;overflow:visible;visibility:visible;opacity:0.402062;fill:url(#radialGradient2910);fill-opacity:1;fill-rule:nonzero;stroke:none;stroke-width:0.782528;marker:none"
     id="path2516-8-9"
     d="m 6,19.999571 c 0,0 0,2.999883 0,2.999883 -0.8272963,0.0056 -2,-0.672121 -2,-1.500135 0,-0.828012 0.9232005,-1.499748 2,-1.499748 z" />
  <path
     style="font-style:normal;font-weight:normal;font-size:40px;line-height:1.25;font-family:sans-serif;font-variation-settings:normal;letter-spacing:0px;word-spacing:0px;display:inline;fill:url(#linearGradient1718-5);fill-opacity:1;stroke:#a10705;stroke-width:1.024;stroke-linecap:butt;stroke-linejoin:round;stroke-miterlimit:4;stroke-dasharray:none;stroke-dashoffset:0;stroke-opacity:0.501961;marker:none;stop-color:#000000"
     d="m 18.806769,11.219363 c -1.085538,-10e-7 -2.012773,0.37637 -2.781699,1.129113 -0.768919,0.752744 -1.360149,1.705128 -1.773691,2.857151 -0.187382,0.523649 -0.326307,1.050569 -0.416766,1.580761 -0.09047,0.523646 -0.135695,1.050568 -0.135695,1.580761 0,0.523647 0.07431,0.991658 0.222921,1.404029 0.413541,1.145477 1.208311,1.718218 2.384315,1.718218 1.175998,0 2.174305,-0.621831 2.994929,-1.865494 0.07754,0.59565 0.284306,1.057113 0.620305,1.384393 0.335996,0.320734 0.765693,0.481101 1.289078,0.481101 0.529847,0 0.966002,-0.189821 1.308464,-0.569467 0.193843,-0.222549 0.429695,-0.710196 0.70754,-1.46294 -0.116308,0.05892 -0.261694,0.08837 -0.436156,0.08837 -0.542767,0 -0.814156,-0.229096 -0.814156,-0.687288 0,-0.242187 0.02907,-0.477828 0.08724,-0.706925 l 1.424763,-6.936294 h -2.859234 l -0.213231,1.172899 v -0.147277 c 0,-0.294551 -0.126001,-0.536738 -0.377999,-0.72656 -0.252003,-0.196368 -0.662307,-0.294551 -1.230928,-0.294551 z m 0.53308,1.246935 c 0.368308,0 0.607383,0.09818 0.717233,0.29455 0.116305,0.189824 0.174457,0.346917 0.174457,0.471284 l -0.949846,4.536095 c -0.122768,0.549828 -0.345692,0.985113 -0.668765,1.305845 -0.323082,0.314189 -0.681694,0.471284 -1.075851,0.471284 -0.213227,0 -0.390926,-0.07201 -0.533079,-0.216006 -0.24554,-0.235641 -0.368307,-0.651285 -0.368307,-1.246935 0,-0.307643 0.01615,-0.598921 0.04847,-0.873837 0.213227,-1.800037 0.739848,-3.181157 1.579848,-4.143359 0.348926,-0.399281 0.70754,-0.598921 1.075848,-0.598921 z"
     id="text942" />
  <path
     id="text942-6"
     style="font-style:normal;font-weight:normal;font-size:40px;line-height:1.25;font-family:sans-serif;font-variation-settings:normal;letter-spacing:0px;word-spacing:0px;display:inline;opacity:0.35;vector-effect:none;fill:none;fill-opacity:1;stroke:url(#linearGradient2729-4);stroke-width:0.999989;stroke-linecap:round;stroke-linejoin:round;stroke-miterlimit:4;stroke-dasharray:none;stroke-dashoffset:0;stroke-opacity:1;-inkscape-stroke:none;marker:none;stop-color:#000000"
     d="M 21.462891 12.214844 L 21.400391 12.566406 A 1.0001 1.0001 0 0 1 21.091797 12.800781 C 21.138512 12.944546 21.232422 13.042988 21.232422 13.232422 A 1.0001 1.0001 0 0 1 21.210938 13.4375 L 20.259766 17.972656 A 1.0001 1.0001 0 0 1 20.257812 17.986328 C 20.17758 18.34566 19.934602 18.606948 19.769531 18.919922 A 1.0001 1.0001 0 0 1 20.292969 19.494141 C 20.349381 19.927491 20.471834 20.144528 20.617188 20.287109 C 20.763827 20.425864 20.894932 20.490234 21.210938 20.490234 C 21.499036 20.490234 21.603826 20.436499 21.771484 20.251953 C 21.771154 20.252253 21.786956 20.219254 21.787109 20.21875 C 21.704787 20.17166 21.612766 20.202239 21.535156 20.136719 C 21.148365 19.810201 20.976562 19.283953 20.976562 18.857422 C 20.976562 18.535214 21.01488 18.214901 21.09375 17.904297 L 22.261719 12.214844 L 21.462891 12.214844 z M 17.251953 12.849609 C 17.093244 12.957121 16.876706 12.913604 16.724609 13.0625 C 16.073881 13.69954 15.563714 14.511256 15.193359 15.542969 C 15.024848 16.013883 14.900692 16.483933 14.820312 16.955078 A 1.0001 1.0001 0 0 0 14.820312 16.957031 C 14.739479 17.424871 14.699219 17.893861 14.699219 18.367188 C 14.699219 18.79623 14.760441 19.146277 14.863281 19.431641 C 15.174016 20.292352 15.455319 20.490234 16.306641 20.490234 C 16.547146 20.490234 16.749934 20.377984 16.964844 20.308594 C 16.731845 20.221694 16.473264 20.205379 16.302734 20.035156 C 15.765544 19.509523 15.634766 18.8087 15.634766 18.082031 C 15.634766 17.739391 15.654036 17.409695 15.691406 17.091797 C 15.89565 15.367598 16.42894 13.968645 17.251953 12.849609 z " />
  <path
     style="font-style:normal;font-variant:normal;font-weight:bold;font-stretch:normal;font-size:37.3333px;line-height:1.25;font-family:'Open Sans';-inkscape-font-specification:'Open Sans Bold';font-variation-settings:normal;letter-spacing:0px;word-spacing:0px;display:inline;vector-effect:none;fill:url(#linearGradient5054-6);fill-opacity:1;stroke:#000000;stroke-width:1.0027;stroke-linecap:butt;stroke-linejoin:round;stroke-miterlimit:3;stroke-dasharray:none;stroke-dashoffset:0;stroke-opacity:0.61;-inkscape-stroke:none;stop-color:#000000"
     d="M 9.4233755,7.50135 4.5011844,21.495899 h 3.1857284 l 1.0118288,-3.198462 h 5.0836774 l 1.011825,3.198462 h 3.185731 L 13.038365,7.50135 Z m 1.8223135,2.1633786 1.831515,6.2334574 H 9.4427951 Z"
     id="flowRoot1142" />
  <path
     id="flowRoot1142-12"
     style="font-style:normal;font-variant:normal;font-weight:bold;font-stretch:normal;font-size:37.3333px;line-height:1.25;font-family:'Open Sans';-inkscape-font-specification:'Open Sans Bold';font-variation-settings:normal;letter-spacing:0px;word-spacing:0px;display:inline;opacity:0.35;vector-effect:none;fill:none;fill-opacity:1;stroke:url(#linearGradient7590-5);stroke-width:0.999989;stroke-linecap:round;stroke-linejoin:round;stroke-miterlimit:4;stroke-dasharray:none;stroke-dashoffset:0;stroke-opacity:1;-inkscape-stroke:none;marker:none;stop-color:#000000"
     d="M 11.244171,9.0005859 A 0.62719097,0.62494949 0 0 0 10.642196,9.4525408 L 8.8398588,15.707168 a 0.62719097,0.62494949 0 0 0 0.6031721,0.797778 h 3.6345911 a 0.62719097,0.62494949 0 0 0 0.601977,-0.800163 L 11.847343,9.4501558 A 0.62719097,0.62494949 0 0 0 11.244171,9.0005859 Z" />
  <path
     id="flowRoot1142-7"
     style="font-style:normal;font-variant:normal;font-weight:bold;font-stretch:normal;font-size:37.3333px;line-height:1.25;font-family:'Open Sans';-inkscape-font-specification:'Open Sans Bold';font-variation-settings:normal;letter-spacing:0px;word-spacing:0px;display:inline;opacity:0.2;vector-effect:none;fill:none;fill-opacity:1;stroke:url(#linearGradient6129-7);stroke-width:0.999989;stroke-linecap:round;stroke-linejoin:round;stroke-miterlimit:4;stroke-dasharray:none;stroke-dashoffset:0;stroke-opacity:1;-inkscape-stroke:none;marker:none;stop-color:#000000"
     d="M 10.132812 8.5019531 L 5.9140625 20.496094 L 6.9550781 20.496094 L 7.7460938 17.996094 A 1.0001 1.0001 0 0 1 8.6992188 17.296875 L 13.783203 17.296875 A 1.0001 1.0001 0 0 1 14.736328 17.996094 L 15.527344 20.496094 L 16.566406 20.496094 L 12.330078 8.5019531 L 10.132812 8.5019531 z M 11.244141 8.6640625 A 1.0001 1.0001 0 0 1 12.205078 9.3828125 L 14.037109 15.617188 A 1.0001 1.0001 0 0 1 13.078125 16.898438 L 9.4433594 16.898438 A 1.0001 1.0001 0 0 1 8.4824219 15.621094 L 10.285156 9.3867188 A 1.0001 1.0001 0 0 1 11.244141 8.6640625 z M 11.253906 13.238281 L 10.773438 14.898438 L 11.740234 14.898438 L 11.253906 13.238281 z " />
</svg>
