<svg xmlns="http://www.w3.org/2000/svg" xmlns:xlink="http://www.w3.org/1999/xlink" viewBox="0 0 24 24"><defs><linearGradient x1="40.958" y1="46.971" x2="18.681" y2="46.971" id="r" xlink:href="#a" gradientUnits="userSpaceOnUse" gradientTransform="matrix(0 -.5372 .57682 0 -15.997 19.866)"/><linearGradient id="a"><stop offset="0" stop-color="#fff"/><stop offset=".45" stop-color="#fff" stop-opacity=".235"/><stop offset=".65" stop-color="#fff" stop-opacity=".157"/><stop offset="1" stop-color="#fff" stop-opacity=".392"/></linearGradient><linearGradient x1="23.732" y1="5.394" x2="23.732" y2="39.735" id="q" xlink:href="#b" gradientUnits="userSpaceOnUse" gradientTransform="matrix(.4922 0 0 .4584 4.51 -4.794)"/><linearGradient id="b"><stop offset="0" stop-color="#90dbec"/><stop offset=".262" stop-color="#55c1ec"/><stop offset=".705" stop-color="#3689e6"/><stop offset="1" stop-color="#2b63a0"/></linearGradient><radialGradient cx="24.837" cy="36.421" r="15.645" fx="24.837" fy="36.421" id="p" xlink:href="#c" gradientUnits="userSpaceOnUse" gradientTransform="matrix(-.27598 0 0 -.29583 24.324 16.82)"/><linearGradient id="c"><stop offset="0"/><stop offset="1" stop-opacity="0"/></linearGradient><linearGradient x1="20" y1="43" x2="20" y2="3" id="o" xlink:href="#d" gradientUnits="userSpaceOnUse" gradientTransform="matrix(.48807 0 0 .48718 .304 -8.164)"/><linearGradient id="d"><stop offset="0" stop-color="#aaa"/><stop offset="1" stop-color="#c8c8c8"/></linearGradient><linearGradient x1="24" y1="6.584" x2="24" y2="41.416" id="n" xlink:href="#e" gradientUnits="userSpaceOnUse" gradientTransform="translate(.974 -7.028) scale(.45946)"/><linearGradient id="e"><stop offset="0" stop-color="#fff"/><stop offset=".02" stop-color="#fff" stop-opacity=".235"/><stop offset=".991" stop-color="#fff" stop-opacity=".157"/><stop offset="1" stop-color="#fff" stop-opacity=".392"/></linearGradient><radialGradient cx="7.496" cy="8.45" r="20" fx="7.496" fy="8.45" id="m" xlink:href="#f" gradientUnits="userSpaceOnUse" gradientTransform="matrix(0 .89505 -.94686 0 20 -11.44)"/><linearGradient id="f"><stop offset="0" stop-color="#f4f4f4"/><stop offset="1" stop-color="#dbdbdb"/></linearGradient><radialGradient cx="4.993" cy="43.5" r="2.5" fx="4.993" fy="43.5" id="j" xlink:href="#g" gradientUnits="userSpaceOnUse" gradientTransform="matrix(2.00378 0 0 1.4 27.988 -17.4)"/><linearGradient id="g"><stop offset="0" stop-color="#181818"/><stop offset="1" stop-color="#181818" stop-opacity="0"/></linearGradient><radialGradient cx="4.993" cy="43.5" r="2.5" fx="4.993" fy="43.5" id="k" xlink:href="#h" gradientUnits="userSpaceOnUse" gradientTransform="matrix(2.00378 0 0 1.4 -20.012 -104.4)"/><linearGradient id="h"><stop offset="0" stop-color="#181818"/><stop offset="1" stop-color="#181818" stop-opacity="0"/></linearGradient><linearGradient x1="25.058" y1="47.028" x2="25.058" y2="39.999" id="l" xlink:href="#i" gradientUnits="userSpaceOnUse"/><linearGradient id="i"><stop offset="0" stop-color="#181818" stop-opacity="0"/><stop offset=".5" stop-color="#181818"/><stop offset="1" stop-color="#181818" stop-opacity="0"/></linearGradient></defs><g transform="translate(0 8)"><g opacity=".4"><path fill="url(#j)" d="M38 40h5v7h-5z" transform="matrix(.57895 0 0 .42857 -1.895 -5.143)"/><path transform="matrix(-.57895 0 0 -.42857 -1.895 -5.143)" fill="url(#k)" d="M-10-47h5v7h-5z"/><path fill="url(#l)" d="M10 40h28v7H10z" transform="matrix(.57895 0 0 .42857 -1.895 -5.143)"/></g><rect width="18" height="18" rx=".5" ry=".5" x="3" y="-5" color="#000" fill="url(#m)" overflow="visible"/><rect width="19" height="19" rx="1" ry="1" x="2.5" y="-5.5" opacity=".3" color="#000" fill="none" stroke="#000" stroke-linecap="round" stroke-linejoin="round" overflow="visible"/><path fill="none" stroke="url(#n)" stroke-linecap="round" stroke-linejoin="round" d="M3.5-4.5h17v17h-17z"/><path d="M11.514-4.175a1.433 1.43 0 0 0-.686.198L5.444-.87a1.433 1.43 0 0 0-.687.988 1.433 1.43 0 0 0-.015 0 1.433 1.43 0 0 0-.473 1.066L4.24 7.38a1.433 1.43 0 0 0 .487 1.066 1.433 1.43 0 0 0 0 .015 1.433 1.43 0 0 0 .7 1.02l5.37 3.08a1.433 1.43 0 0 0 1.175.106 1.433 1.43 0 0 0 .015 0 1.433 1.43 0 0 0 1.22-.09l5.37-3.092a1.433 1.43 0 0 0 .685-.973 1.433 1.43 0 0 0 .534-1.096V1.216A1.433 1.43 0 0 0 19.308.15a1.433 1.43 0 0 0-.702-1.02l-5.384-3.092a1.433 1.43 0 0 0-1.174-.12 1.433 1.43 0 0 0-.534-.093z" opacity=".05" color="#000" fill="url(#o)" overflow="visible"/><path d="M13.152 6.045a4.318 4.628 0 1 1 8.635 0 4.318 4.628 0 0 1-8.635 0z" opacity=".141" fill="url(#p)" fill-rule="evenodd" overflow="visible"/><path d="M16.5 9.222l7-5.673-7-5.7V1.5h-6v4h6z" color="#000" fill="url(#q)" display="block" overflow="visible"/><path d="M17.5 7.11l4.435-3.56L17.5-.075V2.5h-6v2h6z" opacity=".401" color="#000" fill="none" stroke="url(#r)" stroke-width=".964" stroke-miterlimit="7" display="block" overflow="visible"/><path d="M16.5 9.222l7-5.673-7-5.7V1.5h-6v4h6z" opacity=".5" color="#000" fill="none" stroke="#004372" stroke-linejoin="round" stroke-miterlimit="7" display="block" overflow="visible"/></g></svg>