<svg xmlns="http://www.w3.org/2000/svg" xmlns:xlink="http://www.w3.org/1999/xlink" viewBox="0 0 24 24"><defs><linearGradient id="a"><stop offset="0" stop-color="#fff"/><stop offset="0" stop-color="#fff" stop-opacity=".235"/><stop offset="1" stop-color="#fff" stop-opacity=".157"/><stop offset="1" stop-color="#fff" stop-opacity=".392"/></linearGradient><linearGradient id="b"><stop offset="0" stop-color="#f4f4f4"/><stop offset="1" stop-color="#dbdbdb"/></linearGradient><linearGradient id="c"><stop offset="0"/><stop offset="1" stop-opacity="0"/></linearGradient><linearGradient id="d"><stop offset="0" stop-opacity="0"/><stop offset=".5"/><stop offset="1" stop-opacity="0"/></linearGradient><linearGradient gradientTransform="matrix(.4054 0 0 .5135 2.27 -.324)" gradientUnits="userSpaceOnUse" xlink:href="#a" id="l" y2="41.526" x2="24" y1="6.474" x1="24"/><linearGradient gradientTransform="matrix(.48572 0 0 .4563 .343 .35)" gradientUnits="userSpaceOnUse" xlink:href="#b" id="k" y2="47.013" x2="25.132" y1=".985" x1="25.132"/><radialGradient gradientTransform="matrix(.01205 0 0 .00824 13.24 18.98)" gradientUnits="userSpaceOnUse" xlink:href="#c" id="j" fy="486.648" fx="605.714" r="117.143" cy="486.648" cx="605.714"/><radialGradient gradientTransform="matrix(-.01205 0 0 .00824 10.76 18.98)" gradientUnits="userSpaceOnUse" xlink:href="#c" id="i" fy="486.648" fx="605.714" r="117.143" cy="486.648" cx="605.714"/><linearGradient gradientTransform="matrix(.0352 0 0 .00824 -.725 18.98)" gradientUnits="userSpaceOnUse" xlink:href="#d" id="h" y2="609.505" x2="302.857" y1="366.648" x1="302.857"/><radialGradient gradientTransform="matrix(0 .52545 -.57163 0 46.193 -21.124)" gradientUnits="userSpaceOnUse" xlink:href="#e" id="m" fy="48.216" fx="65.297" r="31" cy="48.216" cx="65.297"/><linearGradient id="e"><stop offset="0" stop-color="#cdf87e"/><stop offset=".262" stop-color="#a2e34f"/><stop offset=".661" stop-color="#68b723"/><stop offset="1" stop-color="#1d7e0d"/></linearGradient><linearGradient gradientTransform="matrix(.2818 0 0 .28 12.197 12.015)" gradientUnits="userSpaceOnUse" xlink:href="#f" id="n" y2="35.623" x2="24.139" y1="10.631" x1="24.139"/><linearGradient id="f"><stop offset="0" stop-color="#fff"/><stop offset="0" stop-color="#fff" stop-opacity=".235"/><stop offset="1" stop-color="#fff" stop-opacity=".157"/><stop offset="1" stop-color="#fff" stop-opacity=".392"/></linearGradient><linearGradient gradientTransform="matrix(.2818 0 0 .28 12.18 12.022)" gradientUnits="userSpaceOnUse" xlink:href="#g" id="o" y2="24.912" x2="24.139" y1="21.342" x1="24.139"/><linearGradient id="g"><stop offset="0" stop-color="#fff"/><stop offset="0" stop-color="#fff" stop-opacity=".235"/><stop offset="1" stop-color="#fff" stop-opacity=".157"/><stop offset="1" stop-color="#fff" stop-opacity=".392"/></linearGradient></defs><path opacity=".15" fill="url(#h)" overflow="visible" d="M3.5 22h17v2h-17z"/><path d="M3.5 22v2c-.62.004-1.5-.448-1.5-1s.692-1 1.5-1z" opacity=".15" fill="url(#i)" overflow="visible"/><path d="M20.5 22v2c.62.004 1.5-.448 1.5-1s-.692-1-1.5-1z" opacity=".15" fill="url(#j)" overflow="visible"/><path d="M3.5 1.5h17v21h-17v-21z" fill="url(#k)"/><path d="M19.5 21.5h-15v-19h15z" fill="none" stroke="url(#l)" stroke-linecap="round"/><path d="M3.5 1.5h17v21h-17v-21z" opacity=".3" fill="none" stroke="#000" stroke-linejoin="round"/><path d="M16.482 16.507v-3h4v3h3v4h-3v3h-4v-3h-2.99v-4h2.99z" color="#000" overflow="visible" fill="url(#m)"/><path d="M17.5 18.004V14.5h2V18m0 1v3.5h-2V19" opacity=".5" fill="none" stroke="url(#n)"/><path d="M16.482 16.507v-3h4v3h3v4h-3v3h-4v-3h-2.99v-4h2.99z" style="isolation:auto;mix-blend-mode:normal" color="#000" overflow="visible" opacity=".5" fill="none" stroke="#0f5a00" stroke-linecap="round" stroke-linejoin="round"/><path d="M20 17.507l2.482-.007v2L20 19.507m-3 0l-2.5-.007v-2l2.5.007" opacity=".5" fill="none" stroke="url(#o)"/></svg>