<?xml version="1.0" encoding="UTF-8" standalone="no"?>
<svg
   version="1.1"
   width="24"
   height="24"
   id="svg3828"
   sodipodi:docname="document-print-preview.svg"
   inkscape:version="1.2.2 (b0a8486541, 2022-12-01)"
   xmlns:inkscape="http://www.inkscape.org/namespaces/inkscape"
   xmlns:sodipodi="http://sodipodi.sourceforge.net/DTD/sodipodi-0.dtd"
   xmlns:xlink="http://www.w3.org/1999/xlink"
   xmlns="http://www.w3.org/2000/svg"
   xmlns:svg="http://www.w3.org/2000/svg"
   xmlns:rdf="http://www.w3.org/1999/02/22-rdf-syntax-ns#"
   xmlns:cc="http://creativecommons.org/ns#"
   xmlns:dc="http://purl.org/dc/elements/1.1/">
  <sodipodi:namedview
     pagecolor="#ffffff"
     bordercolor="#666666"
     borderopacity="1"
     objecttolerance="10"
     gridtolerance="10"
     guidetolerance="10"
     inkscape:pageopacity="0"
     inkscape:pageshadow="2"
     inkscape:window-width="1318"
     inkscape:window-height="1005"
     id="namedview92"
     showgrid="false"
     inkscape:zoom="45.254834"
     inkscape:cx="9.413359"
     inkscape:cy="14.274718"
     inkscape:window-x="542"
     inkscape:window-y="28"
     inkscape:window-maximized="0"
     inkscape:current-layer="svg3828"
     inkscape:showpageshadow="2"
     inkscape:pagecheckerboard="0"
     inkscape:deskcolor="#d1d1d1">
    <inkscape:grid
       type="xygrid"
       id="grid899" />
  </sodipodi:namedview>
  <defs
     id="defs3830">
    <linearGradient
       id="linearGradient3916">
      <stop
         style="stop-color:#232323;stop-opacity:1;"
         offset="0"
         id="stop3918" />
      <stop
         id="stop3926"
         offset="0.80000001"
         style="stop-color:#535353;stop-opacity:1;" />
      <stop
         id="stop3924"
         offset="0.80000001"
         style="stop-color:#676767;stop-opacity:1;" />
      <stop
         style="stop-color:#676767;stop-opacity:1;"
         offset="1"
         id="stop3920" />
    </linearGradient>
    <linearGradient
       id="linearGradient3801">
      <stop
         style="stop-color:#ffffff;stop-opacity:1;"
         offset="0"
         id="stop3803" />
      <stop
         style="stop-color:#ffffff;stop-opacity:0;"
         offset="1"
         id="stop3805" />
    </linearGradient>
    <linearGradient
       id="linearGradient3988-5">
      <stop
         style="stop-color:#ededed;stop-opacity:1;"
         offset="0"
         id="stop3990-5" />
      <stop
         style="stop-color:#fafafa;stop-opacity:1;"
         offset="1"
         id="stop3992-0" />
    </linearGradient>
    <linearGradient
       id="linearGradient3952">
      <stop
         style="stop-color:#000000;stop-opacity:1;"
         offset="0"
         id="stop3954" />
      <stop
         style="stop-color:#000000;stop-opacity:0;"
         offset="1"
         id="stop3956" />
    </linearGradient>
    <linearGradient
       xlink:href="#linearGradient3801"
       id="linearGradient3129"
       gradientUnits="userSpaceOnUse"
       gradientTransform="translate(0,-5)"
       x1="10"
       y1="0"
       x2="10"
       y2="22" />
    <linearGradient
       xlink:href="#linearGradient3988-5"
       id="linearGradient3134"
       gradientUnits="userSpaceOnUse"
       gradientTransform="matrix(0.48571543,0,0,-0.25856743,-0.6571703,10.218952)"
       x1="25.132275"
       y1="0.98520643"
       x2="25.132275"
       y2="47.013336" />
    <linearGradient
       xlink:href="#linearGradient3916"
       id="linearGradient3922"
       x1="11"
       y1="19"
       x2="11"
       y2="9"
       gradientUnits="userSpaceOnUse"
       gradientTransform="translate(1,-1)" />
    <linearGradient
       xlink:href="#linearGradient3988-5"
       id="linearGradient4032"
       gradientUnits="userSpaceOnUse"
       gradientTransform="matrix(0.48571543,0,0,-0.25856743,-0.6571312,24.718969)"
       x1="25.132275"
       y1="0.98520643"
       x2="25.132275"
       y2="47.013336" />
    <linearGradient
       inkscape:collect="always"
       xlink:href="#linearGradient4011"
       id="linearGradient3016"
       gradientUnits="userSpaceOnUse"
       gradientTransform="matrix(0.21638323,-3.8042345e-6,-3.8042345e-6,0.21638323,-3.217475,6.3803005)"
       x1="71.204407"
       y1="6.2375584"
       x2="71.204407"
       y2="44.340794" />
    <linearGradient
       id="linearGradient4011">
      <stop
         offset="0"
         style="stop-color:#ffffff;stop-opacity:1"
         id="stop4013" />
      <stop
         offset="0.507761"
         style="stop-color:#ffffff;stop-opacity:0.23529412"
         id="stop4015-3" />
      <stop
         offset="0.83456558"
         style="stop-color:#ffffff;stop-opacity:0.15686275"
         id="stop4017-2" />
      <stop
         offset="1"
         style="stop-color:#ffffff;stop-opacity:0.39215687"
         id="stop4019" />
    </linearGradient>
    <radialGradient
       r="7.228416"
       fy="75.92881"
       fx="11.969189"
       cy="73.615715"
       cx="6.702713"
       gradientTransform="matrix(1.1067433,0,0,0.24210277,7.394318,2.802412)"
       gradientUnits="userSpaceOnUse"
       id="radialGradient4643"
       xlink:href="#linearGradient3952" />
  </defs>
  <metadata
     id="metadata3833">
    <rdf:RDF>
      <cc:Work
         rdf:about="">
        <dc:format>image/svg+xml</dc:format>
        <dc:type
           rdf:resource="http://purl.org/dc/dcmitype/StillImage" />
      </cc:Work>
    </rdf:RDF>
  </metadata>
  <g
     id="layer1"
     style="display:inline"
     transform="translate(0,2)">
    <path
       id="path4291"
       d="m 6,1 0,1 c 4.157995,7.52e-5 11.292656,-7.52e-5 12,0 l 0,-1 c -0.707344,-7.52e-5 -7.842005,7.52e-5 -12,0 z"
       style="opacity:0.4;fill:#ffffff;fill-opacity:1;stroke:none;display:inline" />
    <path
       id="path4293"
       d="M 6,1 6,15 18,15 18,1 z M 7,2 17,2 17,14 7,14 z"
       style="opacity:0.4;fill:url(#linearGradient3129);fill-opacity:1" />
    <path
       style="fill:url(#linearGradient3922);fill-opacity:1;stroke:none"
       d="m 4.78125,7.5 -0.125,0.15625 -2,2 L 2.5,9.78125 2.5,10 l 0,7 0,0.5 0.5,0 18,0 0.5,0 0,-0.5 0,-7 0,-0.21875 -0.15625,-0.125 -2,-2 L 19.21875,7.5 19,7.5 5,7.5 z"
       id="rect3145" />
    <path
       id="path3935"
       d="m 4.78125,7.5 -0.125,0.15625 -2,2 L 2.5,9.78125 2.5,10 l 0,7 0,0.5 0.5,0 18,0 0.5,0 0,-0.5 0,-7 0,-0.21875 -0.15625,-0.125 -2,-2 L 19.21875,7.5 19,7.5 5,7.5 z"
       style="opacity:0.70999995;fill:none;stroke:#000000;stroke-opacity:1" />
    <path
       style="fill:url(#linearGradient3134);fill-opacity:1;stroke:none;display:inline"
       id="path4287"
       d="M 5.4999609,9 C 9.3955418,9 18.50002,8.9992064 18.50002,8.9992064 l 2.1e-5,-8.4992434 c 0,0 -7.333386,0 -13.0000801,0 0,3.9666667 0,4.5333346 0,8.5000021 z" />
    <rect
       style="opacity:0.2;fill:#ffffff;fill-opacity:1;stroke:none"
       id="rect3937"
       width="18"
       height="1"
       x="3"
       y="10" />
    <path
       style="font-size:medium;font-style:normal;font-variant:normal;font-weight:normal;font-stretch:normal;text-indent:0;text-align:start;text-decoration:none;line-height:normal;letter-spacing:normal;word-spacing:normal;text-transform:none;direction:ltr;block-progression:tb;writing-mode:lr-tb;text-anchor:start;baseline-shift:baseline;opacity:0.41000001;color:#000000;fill:#000000;fill-opacity:1;stroke:none;stroke-width:0.99992186;marker:none;visibility:visible;display:inline;overflow:visible;enable-background:accumulate;font-family:Sans;-inkscape-font-specification:Sans"
       d="M 5.34375,0 A 0.50001093,0.50001093 0 0 0 5,0.5 L 5,7 6,7 6,1 c 3.9461392,9.56e-5 11.37307,-9.56e-5 12,0 l 0,6 1,0 0,-6.5 A 0.50001093,0.50001093 0 0 0 18.5,0 L 5.5,0 A 0.50001093,0.50001093 0 0 0 5.40625,0 0.50001093,0.50001093 0 0 0 5.34375,0 z"
       id="path4289" />
    <rect
       style="opacity:0.4;fill:#000000;fill-opacity:1;stroke:none"
       id="rect3948"
       width="13"
       height="1"
       x="5.5"
       y="9" />
    <rect
       style="fill:#505050;fill-opacity:1;stroke:none"
       id="rect3950"
       width="14"
       height="1"
       x="5"
       y="-16"
       transform="scale(1,-1)" />
    <rect
       style="opacity:0.2;fill:#000000;fill-opacity:1;stroke:none"
       id="rect3952"
       width="12"
       height="1"
       x="6"
       y="14" />
    <rect
       y="16"
       x="5"
       height="1"
       width="14"
       id="rect3954"
       style="opacity:0.4;fill:#000000;fill-opacity:1;stroke:none" />
    <path
       d="m 19,19.5 -0.49992,-4.50002 c 0,0 -7.333386,0 -13.00008,0 L 5,19.5 z"
       id="path4030"
       style="fill:url(#linearGradient4032);fill-opacity:1;stroke:none;display:inline" />
    <path
       style="font-size:medium;font-style:normal;font-variant:normal;font-weight:normal;font-stretch:normal;text-indent:0;text-align:start;text-decoration:none;line-height:normal;letter-spacing:normal;word-spacing:normal;text-transform:none;direction:ltr;block-progression:tb;writing-mode:lr-tb;text-anchor:start;baseline-shift:baseline;opacity:0.61000001;color:#000000;fill:#000000;fill-opacity:1;stroke:none;stroke-width:1;marker:none;visibility:visible;display:inline;overflow:visible;enable-background:accumulate;font-family:Sans;-inkscape-font-specification:Sans"
       d="m 5,14.875 -0.5,4.5 C 4.4225572,19.67445 4.6908541,20.009821 5,20 l 14,0 c 0.309146,0.0098 0.577443,-0.32555 0.5,-0.625 l -0.5,-4.5 0,0.125 -0.90625,0 0,0.5 0,0 0.25,3.5 -0.25,0 0,0.03125 L 7,19.03125 7,19 l -1.34375,0 0.25,-3.5 0,0 0,-0.5 L 5,15 z"
       id="path4034" />
    <rect
       style="opacity:0.2;fill:#000000;fill-opacity:1;stroke:none"
       id="rect4046"
       width="9"
       height="1"
       x="7"
       y="16" />
  </g>
  <g
     id="layer2"
     transform="translate(0,2)" />
  <g
     id="g22780"
     transform="translate(1.1875,1.625)">
    <path
       d="m 22.8125,20.62498 c 0,0.966509 -3.581722,1.75002 -8,1.75002 -4.418278,0 -8,-0.783511 -8,-1.75002 0,-0.966509 3.581722,-1.75002 8,-1.75002 4.418278,0 8,0.783511 8,1.75002 z"
       id="path10689"
       style="display:inline;overflow:visible;visibility:visible;opacity:0.15;fill:url(#radialGradient4643);fill-opacity:1;fill-rule:nonzero;stroke:none;stroke-width:0.800002;marker:none" />
    <path
       id="rect1288-9"
       style="font-variation-settings:normal;vector-effect:none;fill:#8cd5ff;fill-opacity:1;stroke:none;stroke-width:0.999996;stroke-linecap:butt;stroke-linejoin:round;stroke-miterlimit:4;stroke-dasharray:none;stroke-dashoffset:0;stroke-opacity:1;-inkscape-stroke:none;marker:none;paint-order:fill markers stroke;stop-color:#000000"
       d="m 8.7689166,8.3314164 c -1.944242,1.9442416 -1.9442419,5.1268256 0,7.0710676 1.7021474,1.702148 4.3536254,1.913541 6.2921454,0.635292 l 2.016361,2.01636 c 0.09793,0.09793 0.334462,0.01909 0.530332,-0.176776 l 0.707104,-0.707108 c 0.19587,-0.195866 0.274713,-0.432394 0.176778,-0.53033 l -2.016361,-2.01636 c 1.278248,-1.93852 1.066857,-4.589998 -0.635292,-6.2921454 -1.944242,-1.944242 -5.126826,-1.9442418 -7.0710674,-2e-7 z M 10.18313,9.7456299 c 1.179946,-1.1799459 3.062695,-1.1799453 4.242641,2e-7 1.179945,1.1799459 1.179946,3.0626949 0,4.2426409 -1.179946,1.179946 -3.062695,1.179945 -4.242641,0 -1.1799453,-1.179946 -1.1799458,-3.062695 0,-4.2426411 z"
       sodipodi:nodetypes="ssccccscsssssss" />
    <ellipse
       style="fill:none;stroke:#002e99;stroke-width:1;stroke-linejoin:round;stroke-opacity:0.501961;-inkscape-stroke:none;paint-order:fill markers stroke;stop-color:#000000"
       id="circle932-6"
       cx="0.30935994"
       cy="17.091763"
       rx="3.0000007"
       ry="3.000001"
       transform="rotate(-45)" />
    <path
       d="m 16.30745,11.866695 c -3.7e-5,2.210918 -1.792447,4.003264 -4.003109,4.003303 -2.210865,3.9e-5 -4.0031055,-1.792265 -4.0030668,-4.003163 3.92e-5,-2.2108144 1.7923428,-4.0029782 4.0032098,-4.0030149 2.210661,-3.81e-5 4.003008,1.7920623 4.002968,4.0028769 z"
       id="path8655-6-0-9-5-6-1"
       style="color:#000000;display:inline;overflow:visible;visibility:visible;opacity:0.5;fill:none;stroke:url(#linearGradient3016);stroke-width:1;stroke-linecap:round;stroke-linejoin:round;stroke-miterlimit:4;stroke-dasharray:none;stroke-dashoffset:0;stroke-opacity:1;marker:none;enable-background:accumulate" />
    <path
       id="path928"
       style="font-variation-settings:normal;vector-effect:none;fill:none;fill-opacity:1;stroke:#002e99;stroke-width:0.999996;stroke-linecap:butt;stroke-linejoin:round;stroke-miterlimit:4;stroke-dasharray:none;stroke-dashoffset:0;stroke-opacity:0.501961;-inkscape-stroke:none;marker:none;paint-order:fill markers stroke;stop-color:#000000"
       d="m 8.7689166,8.3314164 c -1.944242,1.9442416 -1.9442419,5.1268256 0,7.0710676 1.7021474,1.702148 4.3536254,1.913541 6.2921454,0.635292 l 2.016361,2.01636 c 0.09793,0.09793 0.334463,0.01909 0.530332,-0.176776 l 0.707104,-0.707108 c 0.195868,-0.195868 0.274713,-0.432394 0.176778,-0.53033 l -2.016361,-2.01636 c 1.278248,-1.93852 1.066857,-4.589998 -0.635292,-6.2921454 -1.944242,-1.944242 -5.126826,-1.9442418 -7.0710674,-2e-7 z"
       sodipodi:nodetypes="sscsssscss" />
    <rect
       style="font-variation-settings:normal;vector-effect:none;fill:#f9c440;fill-opacity:1;stroke:none;stroke-width:1;stroke-linecap:butt;stroke-linejoin:round;stroke-miterlimit:4;stroke-dasharray:none;stroke-dashoffset:0;stroke-opacity:1;-inkscape-stroke:none;marker:none;paint-order:fill markers stroke;stop-color:#000000"
       id="rect1094-2"
       width="3"
       height="6.75"
       x="-1.1906415"
       y="23.341764"
       rx="1"
       ry="1"
       transform="rotate(-45)" />
    <rect
       style="font-variation-settings:normal;vector-effect:none;fill:none;fill-opacity:1;stroke:#3d211b;stroke-width:1px;stroke-linecap:butt;stroke-linejoin:round;stroke-miterlimit:4;stroke-dasharray:none;stroke-dashoffset:0;stroke-opacity:0.42;-inkscape-stroke:none;paint-order:fill markers stroke;stop-color:#000000"
       id="rect986-6"
       width="3"
       height="6.75"
       x="-1.1906415"
       y="23.341764"
       rx="1"
       ry="1"
       transform="rotate(-45)" />
    <path
       style="fill:none;fill-opacity:1;stroke:#ffffff;stroke-width:1;stroke-linecap:butt;stroke-linejoin:miter;stroke-miterlimit:4;stroke-dasharray:none;stroke-opacity:0.5"
       d="m 17.430982,16.286364 4.065851,4.065873"
       id="path1064"
       sodipodi:nodetypes="cc" />
    <circle
       style="opacity:0.3;fill:#ffffff;fill-opacity:1;stroke:none;stroke-width:0.992;stroke-linecap:round;stroke-linejoin:round;stroke-opacity:0.498039;paint-order:stroke fill markers"
       id="circle1056"
       cx="12.3125"
       cy="11.875"
       r="2.25" />
  </g>
</svg>
