<svg xmlns="http://www.w3.org/2000/svg" xmlns:xlink="http://www.w3.org/1999/xlink" viewBox="0 0 24 24"><defs><linearGradient id="a"><stop offset="0" stop-color="#fff"/><stop offset="1" stop-color="#fff" stop-opacity="0"/></linearGradient><linearGradient id="b"><stop offset="0" stop-color="#fff"/><stop offset="1" stop-color="#959595"/></linearGradient><linearGradient x1="63.999" y1="3.1" x2="63.999" y2="122.899" id="c" gradientUnits="userSpaceOnUse"><stop offset="0" stop-color="#f6f6f6"/><stop offset="1" stop-color="#d2d2d2"/></linearGradient><linearGradient id="d"><stop offset="0"/><stop offset="1" stop-opacity="0"/></linearGradient><linearGradient x1="12" y1="16" x2="12" y2="8" id="i" xlink:href="#a" gradientUnits="userSpaceOnUse" gradientTransform="translate(-.14 -.14) scale(1.0116)"/><linearGradient x1="12.479" y1="2" x2="12.479" y2="22.007" id="h" xlink:href="#a" gradientUnits="userSpaceOnUse"/><linearGradient x1="86.133" y1="105.105" x2="84.639" y2="20.895" id="g" xlink:href="#b" gradientUnits="userSpaceOnUse" gradientTransform="translate(2 2.157) scale(.15623)"/><linearGradient x1="32.036" y1="19" x2="32.036" y2="47.012" id="f" xlink:href="#c" gradientUnits="userSpaceOnUse" gradientTransform="translate(-12.11 -13.667) scale(.77778)"/><radialGradient cx="6.703" cy="73.616" r="7.228" fx="6.703" fy="73.616" id="e" xlink:href="#d" gradientUnits="userSpaceOnUse" gradientTransform="matrix(1.6601 0 0 .36315 .873 -5.36)"/></defs><path d="M24 21.375C24 22.825 18.627 24 12 24S0 22.825 0 21.375s5.373-2.625 12-2.625 12 1.175 12 2.625z" opacity=".2" fill="url(#e)" overflow="visible"/><path d="M10.5 1.5c-.554 0-1 .446-1 1v1.375a8.545 8.545 0 0 0-1.47.594l-.967-.97a1.026 1.026 0 0 0-1.438 0L3.5 5.62a1.026 1.026 0 0 0 0 1.438l.97.97a8.47 8.47 0 0 0-.595 1.47H2.5c-.554 0-1 .446-1 1v3c0 .554.446 1 1 1h1.375c.156.507.35 1.007.594 1.47l-.97.967a1.026 1.026 0 0 0 0 1.438L5.62 20.5a1.026 1.026 0 0 0 1.438 0l.97-.97c.463.245.963.44 1.47.595V21.5c0 .554.446 1 1 1h3c.554 0 1-.446 1-1v-1.375a8.545 8.545 0 0 0 1.47-.594l.967.97a1.026 1.026 0 0 0 1.438 0l2.125-2.12a1.026 1.026 0 0 0 0-1.433l-.97-.97a8.41 8.41 0 0 0 .597-1.47H21.5c.554 0 1-.445 1-1v-3c0-.553-.446-1-1-1h-1.375a8.545 8.545 0 0 0-.594-1.47l.97-.966a1.026 1.026 0 0 0 0-1.44L18.38 3.5a1.026 1.026 0 0 0-1.438 0l-.97.97a8.545 8.545 0 0 0-1.47-.595V2.5c0-.554-.446-1-1-1h-3zm1.5 8a2.5 2.5 0 1 1 0 5 2.5 2.5 0 0 1 0-5z" color="#000" fill="url(#f)" display="block" overflow="visible"/><path d="M12 6c-3.31 0-6 2.69-6 6s2.69 6 6 6 6-2.69 6-6-2.69-6-6-6zm0 3a3 3 0 1 1 0 6 3 3 0 0 1 0-6z" opacity=".05"/><path d="M12 5.5A6.507 6.507 0 0 0 5.5 12c0 3.584 2.916 6.5 6.5 6.5s6.5-2.916 6.5-6.5-2.916-6.5-6.5-6.5z" fill="none" stroke="url(#g)"/><path d="M10.5 2.47c-.074.387-.01.9-.03 1.335.063.778-.772 1.053-1.37 1.217-.547.31-1.35.672-1.837.054l-.888-.888c-.432.286-.785.763-1.186 1.123-.32.37-.76.68-1.01 1.07.41.49 1.05.84 1.224 1.48-.024.8-.54 1.53-.81 2.268-.5.564-1.316.28-1.975.35-.345-.013-.07.586-.158.825 0 .745-.005 1.49 0 2.235.645.063 1.357-.15 1.945.18.555.577.675 1.472 1.006 2.187.04.754-.734 1.127-1.15 1.64-.218.274.385.506.515.75l1.52 1.524c.523-.306.84-.99 1.446-1.206.814-.11 1.513.545 2.283.733.65.454.363 1.31.427 1.977-.09.416.528.13.77.212.763 0 1.527.005 2.29 0 .065-.645-.15-1.357.18-1.945.58-.556 1.474-.676 2.19-1.007.752-.044 1.125.73 1.64 1.15.272.215.504-.388.75-.518.51-.506 1.016-1.014 1.523-1.522-.304-.52-.99-.84-1.204-1.444-.106-.817.547-1.516.735-2.286.45-.65 1.31-.36 1.976-.425.417.09.13-.528.213-.77 0-.763.003-1.527 0-2.29-.647-.065-1.36.15-1.947-.18-.556-.58-.676-1.474-1.007-2.19-.04-.752.735-1.125 1.15-1.64.22-.272-.384-.504-.514-.75-.508-.51-1.016-1.016-1.524-1.523-.52.305-.84.99-1.447 1.205-.814.11-1.513-.543-2.283-.73-.65-.45-.36-1.31-.425-1.975.09-.416-.527-.13-.768-.212H10.5z" opacity=".8" color="#000" fill="none" stroke="url(#h)" stroke-linejoin="round" display="block" overflow="visible"/><path d="M15.5 12a3.5 3.5 0 1 1-7 0 3.5 3.5 0 1 1 7 0z" opacity=".4" color="#000" fill="none" stroke="url(#i)" display="block" overflow="visible"/><path d="M10.5 1.5c-.554 0-1 .446-1 1v1.375a8.545 8.545 0 0 0-1.47.594l-.967-.97a1.026 1.026 0 0 0-1.438 0L3.5 5.62a1.026 1.026 0 0 0 0 1.438l.97.97a8.47 8.47 0 0 0-.595 1.47H2.5c-.554 0-1 .446-1 1v3c0 .554.446 1 1 1h1.375c.156.507.35 1.007.594 1.47l-.97.967a1.026 1.026 0 0 0 0 1.438L5.62 20.5a1.026 1.026 0 0 0 1.438 0l.97-.97c.463.245.963.44 1.47.595V21.5c0 .554.446 1 1 1h3c.554 0 1-.446 1-1v-1.375a8.545 8.545 0 0 0 1.47-.594l.967.97a1.026 1.026 0 0 0 1.438 0l2.125-2.12a1.026 1.026 0 0 0 0-1.433l-.97-.97a8.41 8.41 0 0 0 .597-1.47H21.5c.554 0 1-.445 1-1v-3c0-.553-.446-1-1-1h-1.375a8.545 8.545 0 0 0-.594-1.47l.97-.966a1.026 1.026 0 0 0 0-1.44L18.38 3.5a1.026 1.026 0 0 0-1.438 0l-.97.97a8.545 8.545 0 0 0-1.47-.595V2.5c0-.554-.446-1-1-1h-3zm1.5 8a2.5 2.5 0 1 1 0 5 2.5 2.5 0 0 1 0-5z" opacity=".3" color="#000" fill="none" stroke="#000" stroke-linejoin="round" display="block" overflow="visible"/></svg>