<?xml version="1.0" encoding="UTF-8" standalone="no"?>
<svg
   height="24"
   width="24"
   version="1.1"
   id="svg3243"
   sodipodi:docname="document-import-symbolic.svg"
   inkscape:version="1.2.2 (b0a8486541, 2022-12-01)"
   xmlns:inkscape="http://www.inkscape.org/namespaces/inkscape"
   xmlns:sodipodi="http://sodipodi.sourceforge.net/DTD/sodipodi-0.dtd"
   xmlns="http://www.w3.org/2000/svg"
   xmlns:svg="http://www.w3.org/2000/svg">
  <defs
     id="defs3247" />
  <sodipodi:namedview
     id="namedview3245"
     pagecolor="#ffffff"
     bordercolor="#000000"
     borderopacity="0.25"
     inkscape:showpageshadow="2"
     inkscape:pageopacity="0.0"
     inkscape:pagecheckerboard="0"
     inkscape:deskcolor="#d1d1d1"
     showgrid="false"
     inkscape:zoom="45.254834"
     inkscape:cx="6.8942911"
     inkscape:cy="7.9770484"
     inkscape:window-width="1278"
     inkscape:window-height="1005"
     inkscape:window-x="284"
     inkscape:window-y="668"
     inkscape:window-maximized="0"
     inkscape:current-layer="svg3243" />
  <path
     id="path3239"
     style="fill:#555761;fill-opacity:1;marker:none"
     d="m 4,2 c 0,0 -2,2e-6 -2,2 v 16 c 0,1.999998 2,2 2,2 h 16 c 0,0 2,-2e-6 2,-2 V 16.5 C 22,16.223 21.777,16 21.5,16 h -1 C 20.223,16 20,16.223 20,16.5 V 19 c 0,0.999999 -1,1 -1,1 H 5 c 0,0 -1,-1e-6 -1,-1 V 5 C 4,4.000001 5,4 5,4 h 14 c 0.999999,0 1,1 1,1 V 7.5 C 20,7.777 20.223,8 20.5,8 h 1 C 21.777,8 22,7.777 22,7.5 V 4 C 22,2.000002 20,2 20,2 Z"
     sodipodi:nodetypes="cssccccssccccsscsccsscccc" />
  <path
     id="rect3396"
     style="fill:#555761;fill-opacity:1;stroke:none;stroke-width:0.999995;stroke-linejoin:round;stroke-opacity:0.5;stop-color:#000000"
     d="m 16.995825,7.0000301 c 0.141664,-7.402e-4 0.28391,0.028978 0.417968,0.089844 0.356806,0.162335 0.585877,0.5181571 0.585938,0.910156 V 10.00003 h 5 c 0.553998,0 1,0.446002 1,1 v 2 c 0,0.553998 -0.446002,1 -1,1 h -5 v 1.999024 c -9.5e-4,0.858428 -1.011819,1.316832 -1.658203,0.751952 L 11.840732,12.952 c -0.454309,-0.398371 -0.454309,-1.505629 0,-1.904 l 4.500796,-3.799923 c 0.184615,-0.1616459 0.418189,-0.2468132 0.654297,-0.2480469 z"
     sodipodi:nodetypes="scccssssccccccs" />
</svg>
