<svg xmlns="http://www.w3.org/2000/svg" xmlns:xlink="http://www.w3.org/1999/xlink" viewBox="0 0 24 24"><defs><linearGradient id="a"><stop offset="0"/><stop offset="1" stop-opacity="0"/></linearGradient><linearGradient id="c"><stop offset="0" stop-color="#8f5902"/><stop offset="1" stop-color="#73521e"/></linearGradient><linearGradient id="b"><stop offset="0" stop-color="#c17d11"/><stop offset="1" stop-color="#e9b96e"/></linearGradient><linearGradient id="d"><stop offset="0" stop-color="#fff"/><stop offset="1" stop-color="#fff" stop-opacity=".134"/></linearGradient><linearGradient id="f"><stop offset="0" stop-color="#b3a10b"/><stop offset="1" stop-color="#91780a"/></linearGradient><linearGradient id="e"><stop offset="0" stop-color="#fdef72"/><stop offset="1" stop-color="#e2cb0b"/></linearGradient><linearGradient id="g"><stop offset="0" stop-color="#fff"/><stop offset="1" stop-color="#fff" stop-opacity=".694"/></linearGradient><linearGradient id="h"><stop offset="0" stop-color="#c4a000"/><stop offset="1" stop-color="#c4a000" stop-opacity="0"/></linearGradient><linearGradient id="i"><stop offset="0" stop-color="#919191"/><stop offset="1" stop-color="#cecece"/></linearGradient><radialGradient cx="38" cy="69" r="20" fx="28.603" fy="69" id="j" xlink:href="#a" gradientUnits="userSpaceOnUse" gradientTransform="matrix(1 0 0 .45 0 37.95)"/><linearGradient x1="28" y1="16" x2="26" y2="8" id="k" xlink:href="#b" gradientUnits="userSpaceOnUse" gradientTransform="matrix(.525 0 0 .5277 -1.175 -.78)"/><linearGradient x1="30.325" y1="9.241" x2="34" y2="18" id="l" xlink:href="#c" gradientUnits="userSpaceOnUse" gradientTransform="matrix(.525 0 0 .5277 -1.175 -.78)"/><linearGradient x1="28" y1="8" x2="33.447" y2="16.686" id="m" xlink:href="#d" gradientUnits="userSpaceOnUse"/><linearGradient x1="20.934" y1="25.061" x2="30.208" y2="30.743" id="n" xlink:href="#e" gradientUnits="userSpaceOnUse" gradientTransform="matrix(.525 0 0 .5277 -1.175 -.78)"/><linearGradient x1="17.032" y1="27.447" x2="29.494" y2="37.846" id="o" xlink:href="#f" gradientUnits="userSpaceOnUse" gradientTransform="matrix(.525 0 0 .5277 -1.175 -.78)"/><linearGradient x1="22.32" y1="41.956" x2="18.986" y2="37.029" id="p" xlink:href="#g" gradientUnits="userSpaceOnUse" gradientTransform="matrix(.525 0 0 .5277 -1.175 -.78)"/><linearGradient x1="27.355" y1="36.218" x2="23.489" y2="34.728" id="q" xlink:href="#h" gradientUnits="userSpaceOnUse" gradientTransform="matrix(.525 0 0 .5277 -1.175 -.78)"/><linearGradient x1="27.652" y1="23.146" x2="21.591" y2="20.619" id="r" xlink:href="#i" gradientUnits="userSpaceOnUse" gradientTransform="matrix(.51282 0 0 .5277 -.847 -.78)"/></defs><path d="M58 69a20 9 0 1 1-40 0 20 9 0 1 1 40 0z" transform="matrix(.525 0 0 .3518 -7.95 -3.418)" opacity=".25" fill="url(#j)"/><path d="M18.037.523c-4.307.056-4.934 8.574-6.17 10.11l2.1.758C15.35 9.09 22.24 1.42 18.464.54a3.41 3.41 0 0 0-.426-.017zm-.542 1.09a.47.47 0 0 1 .28.048c.342.19.38.79.08 1.34-.297.55-.82.85-1.164.66-.34-.18-.38-.79-.08-1.33.23-.41.58-.68.89-.71z" fill="url(#k)" fill-rule="evenodd" stroke="url(#l)" transform="translate(-.475)"/><path d="M36.625 4.438c-1.404.018-2.408.624-3.47 1.906-1.06 1.282-2.01 3.244-2.78 5.343-.77 2.1-1.388 4.325-1.97 6.282-.276.93-.5 1.78-.78 2.56l.47.19c1.804-2.67 4.738-6.3 7.03-10 1.297-2.1 2.232-4.11 2.406-5.22.09-.56-.01-.81-.03-.85-.01-.03-.11-.09-.47-.19-.12-.01-.24-.035-.4-.03z" transform="matrix(.525 0 0 .5277 -1.65 -.78)" opacity=".267" fill="none" stroke="url(#m)" stroke-width="1.9"/><path d="M10.637 7.928c.373 1.056-.284 1.972-.525 2.638-2.725.816-4.613 5.12-7.42 7.363.352.36.763.76 1.12 1.08l2.133-1.87-1.61 2.384c1.16.945 2.365 1.587 3.153 1.85l1.443-1.93-.91 2.195c.76.31 2.62.782 3.676.79l1.053-1.794-.27 1.83c.436.083 1.28.2 1.842.214 1.766-2.9 2.1-7.634 1.05-9.744-.262-1.056.788-2.375 1.575-2.903-1.31-1.055-4.306-2.27-6.3-2.11z" fill="url(#n)" fill-rule="evenodd" stroke="url(#o)" stroke-miterlimit="20" transform="translate(-.475)"/><path d="M4.125 19.537c2.53-2.644 2.344-3.802 5.31-6.083-1.565 2.548-1.82 3.873-3.735 7.138l-1.575-1.055z" opacity=".267" fill="#c4a000" fill-rule="evenodd"/><path d="M7.88 21.49l2.28-5.192c.874-1.575 1.502-3.15 2.378-4.405-.84 2.86-2.568 6.397-3.954 9.828l-.705-.23z" opacity=".416" fill="#c4a000" fill-rule="evenodd"/><path d="M11.547 8.85c.05 1.012-.803 1.468-.96 1.897-.053.15.28.67-.01.588-2.545 1.34-5.92 5.89-6.774 6.754l6.357-6.17-4.28 7.24c.668.54.395.55 1.185.87l5.65-7.21-3.39 8.243c.838.277.754.226 1.724.364l3.6-5.958-1.11 6.152.15.04c.75-1.338.725-2.293 1.097-3.903.37-1.6-.293-3.6-.266-4.61-.18-.73.43-1.535.8-2.13.225-.36-.23-.505.05-.775-.615-.415-.936-.415-1.872-.755-.925-.332-1.22-.64-1.96-.65z" opacity=".478" fill="none" stroke="url(#p)" transform="translate(-.475)"/><path d="M9.834 21.91c1.143-3.034 3.357-5.312 4.208-8.408.027 1.933.132 5.385-.993 8.822-.17 0-.1-.06-.25-.063l.42-3.02-1.72 2.93c-1.15-.08-.68.02-1.67-.26z" opacity=".247" fill="url(#q)" fill-rule="evenodd" transform="translate(-.475)"/><path d="M10.427 11.152c-.658.325-1.083.806-1.567 1.248.644-.374 1.25-.765 2.1-1.05l-.533-.198zm1.053.238l-.534 1.05 1.565-.84-1.03-.21zm-.037-2.69l-.47.9.822.264-.352-1.165zm3.667 1.014l-1.292.97.822.263.47-1.233zm-2.053-1.027l-.795 1.332.822.26-.027-1.6z" opacity=".482" fill="#c4a000" fill-rule="evenodd"/><path d="M9.358 10.843c-.298-1.565 4.9 1.136 5.794 1.58-.003.57 0 1.055-.513 1.055-1.35-.735-3.43-1.902-5.29-2.635z" opacity=".2" fill-rule="evenodd"/><path d="M9.666 10.566c-.256-.528 0-1.055.513-1.055 2.09.52 3.84 1.17 5.64 2.11.25.53 0 1.06-.52 1.06-1.857-.98-3.607-1.62-5.64-2.11z" fill="url(#r)" fill-rule="evenodd" stroke="#464646" stroke-linejoin="round" transform="translate(-.475)"/></svg>