<?xml version="1.0" encoding="UTF-8" standalone="no"?>
<svg
   inkscape:version="1.2.2 (b0a8486541, 2022-12-01)"
   sodipodi:docname="edit-find-replace.svg"
   version="1.0"
   width="24"
   height="24"
   id="svg2"
   xmlns:inkscape="http://www.inkscape.org/namespaces/inkscape"
   xmlns:sodipodi="http://sodipodi.sourceforge.net/DTD/sodipodi-0.dtd"
   xmlns:xlink="http://www.w3.org/1999/xlink"
   xmlns="http://www.w3.org/2000/svg"
   xmlns:svg="http://www.w3.org/2000/svg"
   xmlns:rdf="http://www.w3.org/1999/02/22-rdf-syntax-ns#"
   xmlns:cc="http://creativecommons.org/ns#"
   xmlns:dc="http://purl.org/dc/elements/1.1/">
  <sodipodi:namedview
     inkscape:current-layer="g2712"
     inkscape:window-maximized="0"
     inkscape:window-y="460"
     inkscape:window-x="489"
     inkscape:cy="26.339729"
     inkscape:cx="12.551146"
     inkscape:zoom="22.627416"
     showgrid="false"
     id="namedview43"
     inkscape:window-height="869"
     inkscape:window-width="1281"
     inkscape:pageshadow="2"
     inkscape:pageopacity="0"
     guidetolerance="10"
     gridtolerance="10"
     objecttolerance="10"
     borderopacity="1"
     bordercolor="#666666"
     pagecolor="#ffffff"
     inkscape:showpageshadow="2"
     inkscape:pagecheckerboard="0"
     inkscape:deskcolor="#d1d1d1"
     showguides="true" />
  <metadata
     id="metadata50">
    <rdf:RDF>
      <cc:Work
         rdf:about="">
        <dc:format>image/svg+xml</dc:format>
        <dc:type
           rdf:resource="http://purl.org/dc/dcmitype/StillImage" />
      </cc:Work>
    </rdf:RDF>
  </metadata>
  <defs
     id="defs4">
    <linearGradient
       id="linearGradient1864">
      <stop
         style="stop-color:#f3f3f3;stop-opacity:1;"
         offset="0"
         id="stop1860" />
      <stop
         style="stop-color:#f3f3f3;stop-opacity:0;"
         offset="1"
         id="stop1862" />
    </linearGradient>
    <linearGradient
       id="linearGradient1785">
      <stop
         style="stop-color:#ffffff;stop-opacity:1;"
         offset="0"
         id="stop1781" />
      <stop
         style="stop-color:#ffffff;stop-opacity:0.5264706"
         offset="1"
         id="stop1783" />
    </linearGradient>
    <linearGradient
       id="linearGradient8838">
      <stop
         id="stop8840"
         style="stop-color:#000000;stop-opacity:1"
         offset="0" />
      <stop
         id="stop8842"
         style="stop-color:#000000;stop-opacity:0"
         offset="1" />
    </linearGradient>
    <linearGradient
       id="linearGradient4454-600">
      <stop
         id="stop3408"
         style="stop-color:#ffffff;stop-opacity:0.57999998;"
         offset="0" />
      <stop
         id="stop3410"
         style="stop-color:#ffffff;stop-opacity:0.46000001;"
         offset="1" />
    </linearGradient>
    <linearGradient
       id="linearGradient4011">
      <stop
         offset="0"
         style="stop-color:#ffffff;stop-opacity:1"
         id="stop4013" />
      <stop
         offset="0.507761"
         style="stop-color:#ffffff;stop-opacity:0.23529412"
         id="stop4015-3" />
      <stop
         offset="0.83456558"
         style="stop-color:#ffffff;stop-opacity:0.15686275"
         id="stop4017-2" />
      <stop
         offset="1"
         style="stop-color:#ffffff;stop-opacity:0.39215687"
         id="stop4019" />
    </linearGradient>
    <linearGradient
       xlink:href="#linearGradient1864"
       id="linearGradient1866"
       x1="19.577271"
       y1="14.756647"
       x2="19.577271"
       y2="21.284676"
       gradientUnits="userSpaceOnUse"
       gradientTransform="rotate(3,16.170891,18.867284)" />
    <radialGradient
       r="7.228416"
       fy="75.92881"
       fx="11.969189"
       cy="73.615715"
       cx="6.702713"
       gradientTransform="matrix(1.6601149,0,0,0.29397866,0.87272683,0.23355131)"
       gradientUnits="userSpaceOnUse"
       id="radialGradient4643"
       xlink:href="#linearGradient8838" />
    <linearGradient
       inkscape:collect="always"
       xlink:href="#linearGradient2366"
       id="linearGradient2368"
       x1="14.409911"
       y1="6.9256477"
       x2="14.465328"
       y2="5.4368081"
       gradientUnits="userSpaceOnUse"
       gradientTransform="matrix(0.94444444,0,0,1,13.272827,-6.3757073)" />
    <linearGradient
       inkscape:collect="always"
       id="linearGradient2366">
      <stop
         style="stop-color:#a3907c;stop-opacity:1"
         offset="0"
         id="stop2362" />
      <stop
         style="stop-color:#f9c440;stop-opacity:1"
         offset="1"
         id="stop2364" />
    </linearGradient>
    <linearGradient
       inkscape:collect="always"
       xlink:href="#linearGradient4011"
       id="linearGradient1014"
       gradientUnits="userSpaceOnUse"
       gradientTransform="matrix(0.35087001,0.0183883,-0.0183883,0.35087001,-15.715689,-2.2246574)"
       x1="67.908051"
       y1="6.6632748"
       x2="71.214508"
       y2="44.456295" />
    <radialGradient
       xlink:href="#linearGradient1785"
       id="radialGradient1787-3"
       cx="8.0722656"
       cy="5.9627013"
       fx="6"
       fy="3.3713689"
       r="4.5722656"
       gradientTransform="matrix(0.8743069,-0.03053147,0.02312484,0.66220882,1.2534806,2.8453388)"
       gradientUnits="userSpaceOnUse" />
    <radialGradient
       cx="22.099527"
       cy="24.537743"
       r="8.3085051"
       fx="22.099527"
       fy="24.537743"
       id="radialGradient2514-5"
       xlink:href="#linearGradient4454-600"
       gradientUnits="userSpaceOnUse"
       gradientTransform="matrix(0.54128372,-0.01890204,0.01890204,0.54128372,-0.87005517,-1.6700764)" />
    <linearGradient
       spreadMethod="pad"
       gradientTransform="matrix(0.415777,-0.4174938,0.518983,0.5146192,-15.747227,2.6503673)"
       gradientUnits="userSpaceOnUse"
       xlink:href="#linearGradient944"
       id="linearGradient8639"
       y2="31.210939"
       x2="23.575972"
       y1="25.356892"
       x1="23.575972" />
    <linearGradient
       id="linearGradient944">
      <stop
         id="stop928"
         style="stop-color:#ad5f00;stop-opacity:1"
         offset="0" />
      <stop
         id="stop930"
         style="stop-color:#ffe16b;stop-opacity:1"
         offset="0.13482948" />
      <stop
         id="stop932"
         style="stop-color:#f9c440;stop-opacity:1"
         offset="0.20224422" />
      <stop
         id="stop934"
         style="stop-color:#fff394;stop-opacity:1"
         offset="0.26965895" />
      <stop
         id="stop936"
         style="stop-color:#f9c440;stop-opacity:1"
         offset="0.44650277" />
      <stop
         id="stop938"
         style="stop-color:#f9c440;stop-opacity:1"
         offset="0.57114136" />
      <stop
         id="stop940"
         style="stop-color:#ffe16b;stop-opacity:1"
         offset="0.72038066" />
      <stop
         id="stop942"
         style="stop-color:#ad5f00;stop-opacity:1"
         offset="1" />
    </linearGradient>
    <linearGradient
       spreadMethod="pad"
       y2="31.210939"
       x2="23.575972"
       y1="25.356892"
       x1="23.575972"
       gradientTransform="matrix(0.4282553,-0.43106531,0.53455872,0.53134798,-8.2366835,10.17891)"
       gradientUnits="userSpaceOnUse"
       id="linearGradient923"
       xlink:href="#linearGradient3155-40" />
    <linearGradient
       id="linearGradient3155-40">
      <stop
         offset="0"
         style="stop-color:#7e8087;stop-opacity:1"
         id="stop2541" />
      <stop
         offset="0.13482948"
         style="stop-color:#d4d4d4;stop-opacity:1"
         id="stop2543" />
      <stop
         offset="0.20224422"
         style="stop-color:#abacae;stop-opacity:1"
         id="stop2545" />
      <stop
         offset="0.26965895"
         style="stop-color:#fafafa;stop-opacity:1"
         id="stop2547" />
      <stop
         offset="0.44650277"
         style="stop-color:#abacae;stop-opacity:1"
         id="stop2549" />
      <stop
         offset="0.57114136"
         style="stop-color:#abacae;stop-opacity:1"
         id="stop2551" />
      <stop
         offset="0.72038066"
         style="stop-color:#d4d4d4;stop-opacity:1"
         id="stop2553" />
      <stop
         offset="1"
         style="stop-color:#7e8087;stop-opacity:1"
         id="stop2555" />
    </linearGradient>
    <linearGradient
       gradientTransform="matrix(0.4040235,-0.4056919,0.6073752,0.6022679,-17.867764,0.6930272)"
       gradientUnits="userSpaceOnUse"
       xlink:href="#linearGradient3240-279"
       id="linearGradient8641"
       y2="30.000141"
       x2="30.037716"
       y1="24.989594"
       x1="30.037716" />
    <linearGradient
       id="linearGradient3240-279">
      <stop
         offset="0"
         style="stop-color:#555761;stop-opacity:1"
         id="stop2559" />
      <stop
         offset="0.5"
         style="stop-color:#abacae;stop-opacity:1"
         id="stop2561" />
      <stop
         offset="1"
         style="stop-color:#555761;stop-opacity:1"
         id="stop2563" />
    </linearGradient>
    <linearGradient
       gradientTransform="matrix(0.4040235,-0.4056919,0.6073752,0.6022679,-17.983472,0.8092126)"
       gradientUnits="userSpaceOnUse"
       xlink:href="#linearGradient3223-789"
       id="linearGradient8643"
       y2="30.000141"
       x2="30.037716"
       y1="24.989594"
       x1="30.037716" />
    <linearGradient
       id="linearGradient3223-789">
      <stop
         offset="0"
         style="stop-color:#abacae;stop-opacity:1"
         id="stop2567" />
      <stop
         offset="0.5"
         style="stop-color:#fafafa;stop-opacity:1"
         id="stop2569" />
      <stop
         offset="1"
         style="stop-color:#abacae;stop-opacity:1"
         id="stop2571" />
    </linearGradient>
    <linearGradient
       gradientTransform="matrix(0.4040235,-0.4056919,0.6073752,0.6022679,-17.465684,0.2892868)"
       gradientUnits="userSpaceOnUse"
       xlink:href="#linearGradient3240-279"
       id="linearGradient8645"
       y2="30.000141"
       x2="30.037716"
       y1="24.989594"
       x1="30.037716" />
    <linearGradient
       gradientTransform="matrix(0.4040235,-0.4056919,0.6073752,0.6022679,-17.581392,0.4054707)"
       gradientUnits="userSpaceOnUse"
       xlink:href="#linearGradient3223-789"
       id="linearGradient8647"
       y2="30.000141"
       x2="30.037716"
       y1="24.989594"
       x1="30.037716" />
    <linearGradient
       gradientTransform="matrix(0.4040235,-0.4056919,0.6073752,0.6022679,-17.061661,-0.1164056)"
       gradientUnits="userSpaceOnUse"
       xlink:href="#linearGradient3240-279"
       id="linearGradient8649"
       y2="30.000141"
       x2="30.037716"
       y1="24.989594"
       x1="30.037716" />
    <linearGradient
       gradientTransform="matrix(0.4040235,-0.4056919,0.6073752,0.6022679,-17.177369,-2.1969969e-4)"
       gradientUnits="userSpaceOnUse"
       xlink:href="#linearGradient3223-789"
       id="linearGradient8651"
       y2="30.000141"
       x2="30.037716"
       y1="24.989594"
       x1="30.037716" />
    <linearGradient
       gradientTransform="matrix(0.4040235,-0.4056919,0.6073752,0.602268,-17.636692,0.462492)"
       gradientUnits="userSpaceOnUse"
       xlink:href="#linearGradient3290-678"
       id="linearGradient8653"
       y2="26.02973"
       x2="9"
       y1="29.056757"
       x1="9" />
    <linearGradient
       id="linearGradient3290-678">
      <stop
         offset="0"
         style="stop-color:#fff394;stop-opacity:1"
         id="stop2607" />
      <stop
         offset="1"
         style="stop-color:#fafafa;stop-opacity:1"
         id="stop2609" />
    </linearGradient>
    <linearGradient
       gradientTransform="matrix(0.3763801,0.03615261,0.03669995,0.374874,-2.2182805,-1.1331002)"
       gradientUnits="userSpaceOnUse"
       xlink:href="#linearGradient3191-577"
       id="linearGradient8655"
       y2="41.391716"
       x2="9.5220556"
       y1="37.371799"
       x1="5.5178981" />
    <linearGradient
       id="linearGradient3191-577">
      <stop
         offset="0"
         style="stop-color:#d48e15;stop-opacity:1"
         id="stop2613" />
      <stop
         offset="1"
         style="stop-color:#ad5f00;stop-opacity:1"
         id="stop2615" />
    </linearGradient>
  </defs>
  <path
     d="M 24,21.875 C 24,23.048606 18.627417,24 12,24 5.3725824,24 0,23.048606 0,21.875 0,20.701394 5.3725824,19.75 12,19.75 c 6.627417,0 12,0.951394 12,2.125 z"
     id="path10689"
     style="display:inline;overflow:visible;visibility:visible;opacity:0.15;fill:url(#radialGradient4643);fill-opacity:1;fill-rule:nonzero;stroke:none;stroke-width:0.799999;marker:none" />
  <path
     id="rect1068"
     style="opacity:1;fill:#8cd5ff;fill-opacity:1;stroke:none;stroke-width:0;stroke-linecap:round;stroke-linejoin:round;stroke-dasharray:none;stroke-opacity:0.5;paint-order:fill markers stroke;stop-color:#000000"
     d="M 3.9731598,2.418054 C 0.90376247,5.1817518 0.65435537,9.9407213 3.4180541,13.010119 c 2.5367114,2.817304 6.7539529,3.25705 9.8031809,1.173438 l 3.056831,3.394952 1.486288,-1.33826 -3.056828,-3.394953 C 17.098454,10.030571 17.10194,5.7904638 14.56523,2.9731607 11.80153,-0.09623802 7.0425599,-0.34564451 3.9731598,2.418054 Z m 1.3382605,1.4862903 c 2.2661496,-2.0404501 5.7270667,-1.8590708 7.7675167,0.4070774 2.040452,2.26615 1.859072,5.7270643 -0.407073,7.7675143 -2.266154,2.04045 -5.7270694,1.859073 -7.7675204,-0.40708 C 2.8638934,9.4057103 3.0452724,5.9447929 5.3114217,3.904343 Z" />
  <path
     id="path1286"
     style="opacity:1;fill:none;fill-opacity:1;stroke:#002e99;stroke-width:1;stroke-linecap:round;stroke-linejoin:round;stroke-dasharray:none;stroke-opacity:0.5;paint-order:fill markers stroke;stop-color:#000000"
     d="M 3.9731598,2.418054 C 0.90376247,5.1817518 0.65435537,9.9407213 3.4180541,13.010119 c 2.5367114,2.817304 6.7539529,3.25705 9.8031809,1.173438 l 3.056831,3.394952 1.486288,-1.33826 -3.056828,-3.394953 C 17.098454,10.030571 17.10194,5.7904638 14.56523,2.9731607 11.80153,-0.09623802 7.0425599,-0.34564451 3.9731598,2.418054 Z m 1.3382605,1.4862903 c 2.2661496,-2.0404501 5.7270667,-1.8590708 7.7675167,0.4070774 2.040452,2.26615 1.859072,5.7270643 -0.407073,7.7675143 -2.266154,2.04045 -5.7270694,1.859073 -7.7675204,-0.40708 C 2.8638934,9.4057103 3.0452724,5.9447929 5.3114217,3.904343 Z" />
  <rect
     style="font-variation-settings:normal;opacity:1;vector-effect:none;fill:url(#linearGradient2368);fill-opacity:1;stroke:none;stroke-width:1;stroke-linecap:butt;stroke-linejoin:round;stroke-miterlimit:4;stroke-dasharray:none;stroke-dashoffset:0;stroke-opacity:1;-inkscape-stroke:none;marker:none;paint-order:fill markers stroke;stop-color:#000000;stop-opacity:1"
     id="rect1789"
     width="8.5"
     height="3"
     x="21.705526"
     y="-2.83464"
     rx="0.5"
     ry="0.49999997"
     transform="rotate(48)" />
  <path
     style="opacity:0.5;fill:none;stroke:url(#linearGradient1866);stroke-width:1px;stroke-linecap:butt;stroke-linejoin:miter;stroke-opacity:1"
     d="m 15.441632,16.649554 1.114736,-1.003672 4.683912,5.202013"
     id="path1852"
     sodipodi:nodetypes="ccc" />
  <rect
     transform="rotate(48)"
     ry="0.49999997"
     rx="0.5"
     y="-2.83464"
     x="21.705526"
     height="3"
     width="8.5"
     id="rect874"
     style="font-variation-settings:normal;opacity:1;vector-effect:none;fill:none;fill-opacity:1;stroke:#a76900;stroke-width:1px;stroke-linecap:butt;stroke-linejoin:round;stroke-miterlimit:4;stroke-dasharray:none;stroke-dashoffset:0;stroke-opacity:0.5;-inkscape-stroke:none;marker:none;stop-color:#000000;stop-opacity:1" />
  <path
     style="display:inline;visibility:visible;opacity:0.2;fill:url(#radialGradient2514-5);fill-opacity:1;fill-rule:evenodd;stroke:none;stroke-width:0.61258;marker:none"
     id="path4452"
     d="M 13.497273,7.8424002 A 4.5000005,4.5000005 0 1 1 4.5027558,8.1564959 4.5000005,4.5000005 0 1 1 13.497273,7.8424002 Z" />
  <path
     style="display:inline;visibility:visible;opacity:0.15;fill:url(#radialGradient1787-3);fill-opacity:1;fill-rule:evenodd;stroke:none;stroke-width:0.61258;marker:none"
     d="M 9.294493,3.4884636 A 4.810543,4.8116191 88 0 0 4.5136428,8.4682568 4.810543,4.8116191 88 0 0 4.7262294,9.7089239 10.49573,10.498078 88 0 0 12.383066,4.589375 4.810543,4.8116191 88 0 0 9.294493,3.4884636 Z"
     id="path4452-6" />
  <path
     d="M 15.478284,8.3314436 C 15.290402,11.916499 12.231712,14.670455 8.6470736,14.482594 5.0621098,14.294712 2.3082153,11.236095 2.4960984,7.6510766 2.6839744,4.0661949 5.7424767,1.312522 9.327442,1.5004014 c 3.584635,0.1878634 6.338716,3.2461618 6.150842,6.8310422 z"
     id="path1012"
     style="color:#000000;display:inline;overflow:visible;visibility:visible;opacity:0.5;fill:none;stroke:url(#linearGradient1014);stroke-width:1;stroke-linecap:round;stroke-linejoin:round;stroke-miterlimit:4;stroke-dasharray:none;stroke-dashoffset:0;stroke-opacity:1;marker:none;enable-background:accumulate" />
  <g
     transform="translate(7.9998822,7.7941117)"
     id="g2712">
    <path
       d="m 10.055367,8.2859519 -7.9548099,6.1998461 -2.1004393,1.72009 6,0 6.0682982,-5.899103 z"
       id="path2422"
       style="opacity:0.15;fill:#0c0c0c;fill-opacity:1;fill-rule:evenodd;stroke:none"
       sodipodi:nodetypes="cccccc" />
    <g
       transform="matrix(1.030012,0,0,1.0325071,-0.016773,-0.5215254)"
       id="g8626">
      <path
         d="m 2.0488085,11.037368 c 0.2865424,-0.207707 1.1479509,0.256388 1.9603385,1.061945 0.8104458,0.803629 1.2601996,1.641331 1.0575577,1.930575 -7.708e-4,0.0011 0.01977,0.01774 0.01898,0.01882 L 15.224149,3.8683779 C 15.481557,3.6099071 15.011041,2.7247557 14.172862,1.893626 13.334685,1.0624962 12.444681,0.59856571 12.187272,0.85703737 Z"
         id="rect2383"
         style="fill:url(#linearGradient8639);fill-opacity:1;stroke:none;stroke-width:0.484844;stroke-linecap:butt;stroke-linejoin:round;stroke-miterlimit:4;stroke-dasharray:none;stroke-dashoffset:0;stroke-opacity:1" />
      <path
         d="m 2.0488079,11.037368 c 0.286543,-0.207708 1.1479512,0.256388 1.960339,1.061943 0.8104449,0.80363 1.2601992,1.641332 1.0575579,1.930577 -7.714e-4,0.0011 0.01977,0.01774 0.01898,0.01882 l 6.9820302,-7.0108637 0.02525,-0.025356 c 7.9e-4,-0.00108 -0.01975,-0.01772 -0.01898,-0.01882 C 12.276628,6.7044221 11.826873,5.8667226 11.01643,5.0630931 10.204041,4.2575368 9.3426319,3.7934425 9.0560897,4.0011493 l -0.025251,0.025355 z"
         id="path3208"
         style="opacity:0.6;fill:#f9c440;fill-opacity:1;stroke:none" />
      <path
         style="fill:none;fill-opacity:1;stroke:#ad5f00;stroke-width:0.484844;stroke-linecap:butt;stroke-linejoin:round;stroke-miterlimit:4;stroke-dasharray:none;stroke-dashoffset:0;stroke-opacity:1"
         id="path926"
         d="m 2.0488085,11.037368 c 0.2865424,-0.207707 1.1479509,0.256388 1.9603385,1.061945 0.8104458,0.803629 1.2601996,1.641331 1.0575577,1.930575 -7.708e-4,0.0011 0.01977,0.01774 0.01898,0.01882 L 15.224149,3.8683779 C 15.481557,3.6099071 15.011041,2.7247557 14.172862,1.893626 13.334685,1.0624962 12.444681,0.59856571 12.187272,0.85703737 Z" />
      <path
         style="fill:url(#linearGradient923);fill-opacity:1;stroke:#555761;stroke-width:0.5;stroke-linecap:butt;stroke-linejoin:round;stroke-miterlimit:4;stroke-dasharray:none;stroke-dashoffset:0;stroke-opacity:1"
         d="m 20.664062,8.2617188 c -0.05213,0.010767 -0.09381,0.033047 -0.126953,0.066406 L 17.3125,11.574219 c 0.296545,-0.211927 1.182133,0.265278 2.017578,1.095703 0.834766,0.829753 1.298569,1.695492 1.089844,1.99414 -7.14e-4,0.001 0.01475,0.01397 0.01758,0.01758 l 3.226562,-3.246094 C 23.929196,11.168674 23.445366,10.256585 22.582031,9.3984375 21.826615,8.6475585 21.02895,8.1863524 20.664062,8.2617188 Z"
         transform="matrix(0.97086248,0,0,0.96851634,-7.7505401,-7.2080731)"
         id="path921" />
      <path
         d="m 10.565423,2.4840909 c 0.286542,-0.2077065 1.147951,0.2563879 1.960338,1.0619443 0.810445,0.8036291 1.260199,1.6413295 1.057557,1.9305744 -7.69e-4,0.0011 0.01977,0.017738 0.01898,0.018821 L 15.154234,3.9383089 C 15.562715,3.5297289 15.124956,2.8454879 14.172862,1.893626 13.360476,1.0880699 12.499066,0.6239749 12.212525,0.83168148 l -0.02525,0.0253559 -1.621849,1.62705352 z"
         id="rect3175"
         style="opacity:0.9;fill:#fe9ab8;fill-opacity:1;stroke:#de3e80;stroke-width:0.484844;stroke-linecap:butt;stroke-linejoin:round;stroke-miterlimit:4;stroke-dasharray:none;stroke-dashoffset:0;stroke-opacity:1" />
      <path
         d="m 9.1785348,3.8767048 c 0.2865413,-0.2077068 1.1479522,0.2563879 1.9603392,1.0619443 0.810445,0.8036291 1.2602,1.6413294 1.057556,1.9305753 -7.71e-4,0.0011 0.01977,0.017736 0.01898,0.01882 l 0.126256,-0.1267795 c 7.9e-4,-0.00108 -0.01975,-0.01772 -0.01898,-0.01882 C 12.525331,6.4531992 12.075576,5.6154986 11.26513,4.8118704 10.452743,4.0063135 9.5913335,3.542219 9.3047918,3.7499256 Z"
         id="path3233"
         style="fill:url(#linearGradient8641);fill-opacity:1;stroke:none" />
      <path
         d="m 9.0628273,3.9928895 c 0.2865436,-0.2077068 1.1479527,0.2563878 1.9603397,1.061944 0.810444,0.8036294 1.2602,1.6413292 1.057556,1.9305742 -7.71e-4,0.0011 0.01977,0.017738 0.01898,0.018822 L 12.22596,6.8774498 c 7.9e-4,-0.00108 -0.01975,-0.017721 -0.01898,-0.018821 C 12.409623,6.569384 11.95987,5.7316836 11.149423,4.9280545 10.337036,4.1224982 9.4756273,3.6584033 9.1890844,3.8661101 Z"
         id="path3216"
         style="fill:url(#linearGradient8643);fill-opacity:1;stroke:none" />
      <path
         d="m 9.5806143,3.4729643 c 0.2865426,-0.2077069 1.1479517,0.2563872 1.9603387,1.0619442 0.810446,0.803629 1.2602,1.6413292 1.057558,1.9305747 -7.73e-4,0.0011 0.01977,0.017737 0.01898,0.01882 l 0.126258,-0.1267784 c 7.91e-4,-0.00108 -0.01975,-0.017721 -0.01898,-0.01882 C 12.927411,6.0494594 12.477656,5.2117588 11.66721,4.4081298 10.854824,3.6025731 9.9934151,3.1384786 9.7068717,3.3461854 Z"
         id="path3248"
         style="fill:url(#linearGradient8645);fill-opacity:1;stroke:none" />
      <path
         d="m 9.4649071,3.5891488 c 0.2865435,-0.207707 1.1479529,0.2563877 1.9603379,1.061944 0.810447,0.8036298 1.260201,1.6413294 1.057558,1.9305748 -7.69e-4,0.0011 0.01977,0.017737 0.01898,0.018821 l 0.126257,-0.12678 c 7.9e-4,-0.00108 -0.01975,-0.01772 -0.01898,-0.01882 C 12.811705,6.1656438 12.361949,5.3279425 11.551504,4.5243147 10.739118,3.718758 9.877708,3.254663 9.5911645,3.46237 Z"
         id="path3250"
         style="fill:url(#linearGradient8647);fill-opacity:1;stroke:none" />
      <path
         d="M 9.9846388,3.0672723 C 10.27118,2.8595657 11.13259,3.3236601 11.944976,4.1292168 c 0.810446,0.8036288 1.260201,1.641329 1.057558,1.9305741 -7.7e-4,0.0011 0.01977,0.017738 0.01898,0.018821 L 13.14777,5.9518328 c 7.92e-4,-0.00108 -0.01975,-0.017721 -0.01898,-0.018821 C 13.331434,5.6437674 12.881679,4.8060668 12.071233,4.0024374 11.258848,3.1968815 10.397438,2.7327869 10.110895,2.9404937 Z"
         id="path3256"
         style="fill:url(#linearGradient8649);fill-opacity:1;stroke:none" />
      <path
         d="m 9.8689318,3.1834569 c 0.2865412,-0.2077072 1.1479512,0.2563879 1.9603392,1.0619447 0.810444,0.8036283 1.260198,1.6413291 1.057556,1.9305739 -7.71e-4,0.0011 0.01977,0.017737 0.01898,0.018821 l 0.126258,-0.1267782 c 7.89e-4,-0.00108 -0.01975,-0.017722 -0.01898,-0.018821 C 13.215727,5.7599515 12.765972,4.9222512 11.955527,4.1186224 11.143141,3.313066 10.281731,2.848971 9.9951884,3.0566783 Z"
         id="path3258"
         style="fill:url(#linearGradient8651);fill-opacity:1;stroke:none" />
      <path
         d="m 0.25980529,15.79419 4.77185621,-1.725488 0.039308,-0.03926 C 5.2736124,13.740202 4.8185731,12.902156 4.0081274,12.098526 3.1957395,11.29297 2.335449,10.831246 2.0489062,11.038953 Z"
         id="path3270"
         style="fill:url(#linearGradient8653);fill-opacity:1;fill-rule:evenodd;stroke:url(#linearGradient8655);stroke-width:0.484844;stroke-linecap:butt;stroke-linejoin:miter;stroke-miterlimit:4;stroke-dasharray:none;stroke-opacity:1" />
      <path
         d="M 0.7444326,14.506276 0.25922075,15.788967 1.560593,15.315574 C 1.446907,15.182439 1.3413094,15.047739 1.2062351,14.913801 1.0507282,14.759602 0.89915498,14.633134 0.7444326,14.506276 Z"
         id="path3281"
         style="fill:#333333;fill-opacity:1;fill-rule:evenodd;stroke:#1a1a1a;stroke-width:0.484844;stroke-linecap:butt;stroke-linejoin:miter;stroke-miterlimit:4;stroke-dasharray:none;stroke-opacity:1" />
    </g>
  </g>
</svg>
