<svg xmlns="http://www.w3.org/2000/svg" xmlns:xlink="http://www.w3.org/1999/xlink" viewBox="0 0 24 24"><defs><linearGradient id="a"><stop offset="0" stop-color="#dbce48"/><stop offset="1" stop-color="#c5b625"/></linearGradient><linearGradient x1="5.518" y1="37.372" x2="9.522" y2="41.392" id="r" xlink:href="#a" gradientUnits="userSpaceOnUse" gradientTransform="matrix(.56036 .0242 .02416 .55967 -1.392 -1.445)"/><linearGradient id="b"><stop offset="0" stop-color="#ece5a5"/><stop offset="1" stop-color="#fcfbf2"/></linearGradient><linearGradient x1="9" y1="29.057" x2="9" y2="26.03" id="q" xlink:href="#b" gradientUnits="userSpaceOnUse" gradientTransform="matrix(.638 -.64114 .85963 .85535 -24.6 2.182)"/><linearGradient id="c"><stop offset="0" stop-color="#b1b1b1"/><stop offset=".5" stop-color="#fff"/><stop offset="1" stop-color="#8f8f8f"/></linearGradient><linearGradient x1="30.038" y1="24.99" x2="30.038" y2="30" id="p" xlink:href="#c" gradientUnits="userSpaceOnUse" gradientTransform="matrix(.638 -.64114 .85963 .85535 -23.267 .843)"/><linearGradient id="d"><stop offset="0" stop-color="#565656"/><stop offset=".5" stop-color="#9a9a9a"/><stop offset="1" stop-color="#545454"/></linearGradient><linearGradient x1="30.038" y1="24.99" x2="30.038" y2="30" id="o" xlink:href="#d" gradientUnits="userSpaceOnUse" gradientTransform="matrix(.638 -.64114 .85963 .85535 -23.084 .66)"/><linearGradient id="e"><stop offset="0" stop-color="#b1b1b1"/><stop offset=".5" stop-color="#fff"/><stop offset="1" stop-color="#8f8f8f"/></linearGradient><linearGradient x1="30.038" y1="24.99" x2="30.038" y2="30" id="n" xlink:href="#e" gradientUnits="userSpaceOnUse" gradientTransform="matrix(.638 -.64114 .85963 .85535 -23.905 1.484)"/><linearGradient id="f"><stop offset="0" stop-color="#565656"/><stop offset=".5" stop-color="#9a9a9a"/><stop offset="1" stop-color="#545454"/></linearGradient><linearGradient x1="30.038" y1="24.99" x2="30.038" y2="30" id="m" xlink:href="#f" gradientUnits="userSpaceOnUse" gradientTransform="matrix(.638 -.64114 .85963 .85535 -23.722 1.3)"/><linearGradient id="g"><stop offset="0" stop-color="#b1b1b1"/><stop offset=".5" stop-color="#fff"/><stop offset="1" stop-color="#8f8f8f"/></linearGradient><linearGradient x1="30.038" y1="24.99" x2="30.038" y2="30" id="l" xlink:href="#g" gradientUnits="userSpaceOnUse" gradientTransform="matrix(.638 -.64114 .85963 .85535 -24.54 2.122)"/><linearGradient id="h"><stop offset="0" stop-color="#565656"/><stop offset=".5" stop-color="#9a9a9a"/><stop offset="1" stop-color="#545454"/></linearGradient><linearGradient x1="30.038" y1="24.99" x2="30.038" y2="30" id="k" xlink:href="#h" gradientUnits="userSpaceOnUse" gradientTransform="matrix(.638 -.64114 .85963 .85535 -24.357 1.938)"/><linearGradient id="i"><stop offset="0" stop-color="#181818"/><stop offset=".135" stop-color="#dbdbdb"/><stop offset=".202" stop-color="#a4a4a4"/><stop offset=".27" stop-color="#fff"/><stop offset=".447" stop-color="#8d8d8d"/><stop offset=".571" stop-color="#959595"/><stop offset=".72" stop-color="#cecece"/><stop offset="1" stop-color="#181818"/></linearGradient><linearGradient x1="23.576" y1="25.357" x2="23.576" y2="31.211" id="j" xlink:href="#i" gradientUnits="userSpaceOnUse" gradientTransform="matrix(.65657 -.6598 .73452 .73087 -21.95 5.314)"/></defs><path d="M20.13 18.016a1.25 1.25 0 0 0-.46.01L5.82 21.213l-2.548.588-.078.02L.094 24l7.396-.196.062-.015 2.565-.59 13.848-3.21c.416-.1-.206-.62-1.394-1.16-.89-.42-1.84-.73-2.44-.82z" opacity=".15" fill="#0c0c0c" fill-rule="evenodd"/><path d="M3.996 16.48c.446-.335 1.697.293 2.847 1.437 1.147 1.14 1.75 2.362 1.424 2.813 0 0 .028.025.027.026l16.01-16.088c.406-.41-.225-1.7-1.41-2.88C21.704.608 20.41-.017 20.004.39L3.997 16.48z" fill="url(#j)" stroke="#0c0c0c" stroke-width=".5" stroke-linejoin="round" transform="translate(-.677 -.01)"/><path d="M17.375 2.344c.446-.334 1.697.294 2.847 1.438 1.147 1.14 1.75 2.362 1.424 2.813 0 0 .028.025.027.026l1.954-1.96.04-.04-.027-.02c.327-.45-.277-1.67-1.424-2.812-1.15-1.15-2.4-1.78-2.846-1.446l-.04.04-1.955 1.965z" opacity=".8" fill="#ffb6ed" stroke="#e28ccd" stroke-width=".5" stroke-linejoin="round"/><path d="M3.32 16.47c.445-.335 1.696.293 2.846 1.437 1.147 1.14 1.75 2.362 1.424 2.813 0 0 .028.025.027.026l11.025-11.08.04-.04c.002 0-.028-.024-.027-.026.328-.45-.277-1.672-1.424-2.813-1.15-1.144-2.4-1.772-2.84-1.437l-.04.04L3.32 16.47z" opacity=".6" fill="#0c0c0c"/><path d="M15.862 4.555c.446-.334 1.697.293 2.847 1.437 1.14 1.142 1.75 2.363 1.42 2.813 0 .002.03.025.02.027l.2-.2c0-.002-.03-.025-.03-.027.33-.45-.275-1.672-1.422-2.813-1.15-1.144-2.4-1.772-2.847-1.437l-.197.2z" fill="url(#k)" transform="translate(-.677 -.01)"/><path d="M15.68 4.74c.445-.336 1.696.292 2.846 1.436 1.147 1.14 1.75 2.363 1.424 2.813l.027.02.2-.2s-.03-.03-.027-.03c.327-.45-.278-1.673-1.425-2.814-1.15-1.144-2.4-1.77-2.847-1.437l-.2.2z" fill="url(#l)" transform="translate(-.677 -.01)"/><path d="M16.497 3.917c.446-.334 1.697.293 2.847 1.437 1.147 1.142 1.75 2.363 1.424 2.813 0 .002.028.025.027.027l.2-.2c0-.002-.03-.025-.028-.027.327-.45-.277-1.672-1.424-2.813-1.15-1.144-2.4-1.772-2.847-1.437l-.2.2z" fill="url(#m)" transform="translate(-.677 -.01)"/><path d="M16.314 4.1c.446-.334 1.697.294 2.847 1.438 1.15 1.14 1.76 2.363 1.43 2.813 0 .01.03.03.03.03l.2-.2s-.03-.02-.026-.02c.327-.45-.28-1.67-1.425-2.812-1.15-1.143-2.4-1.77-2.847-1.436l-.2.2z" fill="url(#n)" transform="translate(-.677 -.01)"/><path d="M17.135 3.276c.446-.334 1.697.293 2.847 1.437 1.147 1.142 1.75 2.363 1.424 2.813 0 .002.028.025.027.027l.2-.2c0-.002-.03-.025-.028-.027.327-.45-.277-1.672-1.424-2.813-1.15-1.144-2.4-1.772-2.84-1.437l-.2.2z" fill="url(#o)" transform="translate(-.677 -.01)"/><path d="M16.952 3.46c.446-.335 1.697.293 2.847 1.437 1.14 1.14 1.75 2.362 1.42 2.813 0 0 .03.025.02.026l.2-.2c0-.002-.03-.025-.027-.027.326-.45-.28-1.68-1.426-2.82-1.15-1.147-2.4-1.77-2.847-1.44l-.197.2z" fill="url(#p)" transform="translate(-.677 -.01)"/><path d="M.928 23.76l7.283-2.97.07-.06c.33-.452-.283-1.673-1.43-2.814-1.15-1.144-2.4-1.77-2.844-1.434l-3.07 7.28z" fill="url(#q)" fill-rule="evenodd" stroke="url(#r)" stroke-width=".5" transform="translate(-.677 -.01)"/><path d="M1.082 21.78L.25 23.744l1.987-.815c-.16-.2-.306-.39-.498-.58a8.06 8.06 0 0 0-.66-.58z" fill="#0c0c0c" fill-rule="evenodd" stroke="#0c0c0c" stroke-width=".5"/></svg>