<?xml version="1.0" encoding="UTF-8" standalone="no"?>
<svg
   id="svg3828"
   height="24"
   width="24"
   version="1.1"
   xmlns:xlink="http://www.w3.org/1999/xlink"
   xmlns="http://www.w3.org/2000/svg"
   xmlns:svg="http://www.w3.org/2000/svg"
   xmlns:rdf="http://www.w3.org/1999/02/22-rdf-syntax-ns#"
   xmlns:cc="http://creativecommons.org/ns#"
   xmlns:dc="http://purl.org/dc/elements/1.1/">
  <defs
     id="defs3830">
    <linearGradient
       id="linearGradient3977">
      <stop
         offset="0"
         style="stop-color:#ffffff;stop-opacity:1"
         id="stop3979" />
      <stop
         offset="0"
         style="stop-color:#ffffff;stop-opacity:0.23529412"
         id="stop3981" />
      <stop
         offset="1"
         style="stop-color:#ffffff;stop-opacity:0.15686275"
         id="stop3983" />
      <stop
         offset="1"
         style="stop-color:#ffffff;stop-opacity:0.39215687"
         id="stop3985" />
    </linearGradient>
    <linearGradient
       id="linearGradient3600-4">
      <stop
         offset="0"
         style="stop-color:#f4f4f4;stop-opacity:1"
         id="stop3602-7" />
      <stop
         offset="1"
         style="stop-color:#dbdbdb;stop-opacity:1"
         id="stop3604-6" />
    </linearGradient>
    <linearGradient
       id="linearGradient5060">
      <stop
         offset="0"
         style="stop-color:#000000;stop-opacity:1"
         id="stop5062" />
      <stop
         offset="1"
         style="stop-color:#000000;stop-opacity:0"
         id="stop5064" />
    </linearGradient>
    <linearGradient
       id="linearGradient5048">
      <stop
         offset="0"
         style="stop-color:#000000;stop-opacity:0"
         id="stop5050" />
      <stop
         offset="0.5"
         style="stop-color:#000000;stop-opacity:1"
         id="stop5056" />
      <stop
         offset="1"
         style="stop-color:#000000;stop-opacity:0"
         id="stop5052" />
    </linearGradient>
    <linearGradient
       gradientTransform="matrix(0.40540511,0,0,0.51351351,2.2696871,-0.3243195)"
       gradientUnits="userSpaceOnUse"
       xlink:href="#linearGradient3977"
       id="linearGradient3013"
       y2="41.526306"
       x2="23.99999"
       y1="6.4736748"
       x1="23.99999" />
    <linearGradient
       gradientTransform="matrix(0.45714178,0,0,0.43456667,1.0285964,0.90372283)"
       gradientUnits="userSpaceOnUse"
       xlink:href="#linearGradient3600-4"
       id="linearGradient3016"
       y2="47.013336"
       x2="25.132275"
       y1="0.98520643"
       x1="25.132275" />
    <radialGradient
       gradientTransform="matrix(0.01204859,0,0,0.0082353,13.238793,18.980564)"
       gradientUnits="userSpaceOnUse"
       xlink:href="#linearGradient5060"
       id="radialGradient3021"
       fy="486.64789"
       fx="605.71429"
       r="117.14286"
       cy="486.64789"
       cx="605.71429" />
    <radialGradient
       gradientTransform="matrix(-0.01204859,0,0,0.0082353,10.761206,18.980564)"
       gradientUnits="userSpaceOnUse"
       xlink:href="#linearGradient5060"
       id="radialGradient3024"
       fy="486.64789"
       fx="605.71429"
       r="117.14286"
       cy="486.64789"
       cx="605.71429" />
    <linearGradient
       gradientTransform="matrix(0.0352071,0,0,0.0082353,-0.724852,18.980547)"
       gradientUnits="userSpaceOnUse"
       xlink:href="#linearGradient5048"
       id="linearGradient3027"
       y2="609.50507"
       x2="302.85715"
       y1="366.64789"
       x1="302.85715" />
  </defs>
  <metadata
     id="metadata3833">
    <rdf:RDF>
      <cc:Work
         rdf:about="">
        <dc:format>image/svg+xml</dc:format>
        <dc:type
           rdf:resource="http://purl.org/dc/dcmitype/StillImage" />
      </cc:Work>
    </rdf:RDF>
  </metadata>
  <rect
     style="opacity:0.15;fill:url(#linearGradient3027);fill-opacity:1;fill-rule:nonzero;stroke:none;stroke-width:1;marker:none;visibility:visible;display:inline;overflow:visible"
     id="rect2879"
     y="22"
     x="3.5000007"
     height="2"
     width="16.999998" />
  <path
     style="opacity:0.15;fill:url(#radialGradient3024);fill-opacity:1;fill-rule:nonzero;stroke:none;stroke-width:1;marker:none;visibility:visible;display:inline;overflow:visible"
     id="path2881"
     d="m 3.4999999,22.000085 c 0,0 0,1.999891 0,1.999891 C 2.8795275,24.003776 2,23.551901 2,22.999901 2,22.447902 2.6924,22.000085 3.4999999,22.000085 z" />
  <path
     style="opacity:0.15;fill:url(#radialGradient3021);fill-opacity:1;fill-rule:nonzero;stroke:none;stroke-width:1;marker:none;visibility:visible;display:inline;overflow:visible"
     id="path2883"
     d="m 20.5,22.000085 c 0,0 0,1.999891 0,1.999891 0.620472,0.0038 1.5,-0.448075 1.5,-1.000075 0,-0.551999 -0.692402,-0.999816 -1.5,-0.999816 z" />
  <path
     style="display:inline;fill:url(#linearGradient3016);fill-opacity:1;stroke:none"
     id="path4160-3"
     d="m 4,2 c 3.6664118,0 15.99998,0.0013 15.99998,0.0013 L 20,22 C 20,22 9.3333337,22 4,22 4,15.33334 4,8.6666817 4,2.0000212 Z" />
  <path
     style="fill:none;stroke:url(#linearGradient3013);stroke-width:1;stroke-linecap:round;stroke-linejoin:miter;stroke-miterlimit:4;stroke-opacity:1;stroke-dasharray:none;stroke-dashoffset:0"
     id="rect6741-1"
     d="m 19.5,21.5 -15.0000004,0 0,-19 L 19.5,2.5 z" />
  <path
     style="opacity:0.3;fill:none;stroke:#000000;stroke-width:0.99992186;stroke-linecap:butt;stroke-linejoin:round;stroke-miterlimit:4;stroke-opacity:1;stroke-dasharray:none;stroke-dashoffset:0;display:inline"
     id="path4160-3-1"
     d="m 3.4999601,1.4999569 c 3.8955809,0 17.0000589,0.00136 17.0000589,0.00136 l 2.1e-5,20.9987161 c 0,0 -11.3333862,0 -17.0000799,0 0,-7.000018 0,-14.000035 0,-21.0000538 z" />
  <path
     id="rect322"
     style="fill:#555761;stroke:none;stroke-width:1;stroke-linecap:round;-inkscape-stroke:none;stop-color:#000000"
     d="M 13.25,9 C 13.111929,9 13,9.111929 13,9.25 v 0.5 C 13,9.888071 13.111929,10 13.25,10 H 14 c 0.553998,0 1,0.446002 1,1 v 4 c 0,0.553997 -0.446002,1 -1,1 H 13.25 C 13.111929,16 13,16.111929 13,16.25 v 0.5 C 13,16.888071 13.111929,17 13.25,17 H 14 c 0.599343,0 1.134055,-0.262734 1.5,-0.677734 C 15.865946,16.737266 16.40066,17 17,17 h 0.75 C 17.888071,17 18,16.888071 18,16.75 v -0.5 C 18,16.111929 17.888071,16 17.75,16 H 17 c -0.553994,0 -1,-0.446006 -1,-1 v -4 c 0,-0.553996 0.446006,-1 1,-1 h 0.75 C 17.888071,10 18,9.888071 18,9.75 V 9.25 C 18,9.111929 17.888071,9 17.75,9 H 17 C 16.40066,9 15.865946,9.26273 15.5,9.677734 15.134055,9.26273 14.599343,9 14,9 Z" />
  <path
     id="rect18361"
     style="opacity:0.4;fill:#64baff;stroke-width:0.741962;stroke-opacity:0.5;-inkscape-stroke:none;stop-color:#000000"
     d="M 6,5 C 5.4460006,5 5,5.4460006 5,6 V 7 C 5,7.1827957 5.0497944,7.3528623 5.1347656,7.5 5.0497944,7.6471377 5,7.8172043 5,8 V 9 C 5,9.1827957 5.0497944,9.3528623 5.1347656,9.5 5.0497944,9.6471377 5,9.8172043 5,10 v 1 c 0,0.182796 0.049794,0.352862 0.1347656,0.5 C 5.0497944,11.647138 5,11.817204 5,12 v 1 c 0,0.182796 0.049794,0.352862 0.1347656,0.5 C 5.0497944,13.647138 5,13.817204 5,14 v 1 c 0,0.182796 0.049794,0.352862 0.1347656,0.5 C 5.0497944,15.647138 5,15.817204 5,16 v 1 c 0,0.553999 0.4460006,1 1,1 h 5 c 0.553999,0 1,-0.446001 1,-1 v -1 c 0,-0.553999 -0.446001,-1 -1,-1 v -1 h 1 c 0.553999,0 1,-0.446001 1,-1 v -1 c 0,-0.553999 -0.446001,-1 -1,-1 h -1 v -1 h 1 c 0.553999,0 1,-0.4460006 1,-1 V 8 h 3 c 0.553999,0 1,-0.4460006 1,-1 V 6 C 17,5.4460006 16.553999,5 16,5 Z" />
  <path
     id="path17442"
     style="opacity:0.6;fill:#002e99;stroke:none;stroke-width:1;stroke-linecap:round;-inkscape-stroke:none;stop-color:#000000"
     d="M 6.25,6 C 6.1119291,6 6,6.1119291 6,6.25 v 0.5 C 6,6.8889999 6.1120001,7 6.25,7 h 9.5 C 15.888071,7 16,6.8880709 16,6.75 V 6.25 C 16,6.1119291 15.888071,6 15.75,6 Z m 0,2 C 6.1119291,8 6,8.1119291 6,8.25 v 0.5 C 6,8.8889999 6.1120001,9 6.25,9 h 5.5 C 11.888071,9 12,8.8880709 12,8.75 V 8.25 C 12,8.1119291 11.888071,8 11.75,8 Z m 0,2 C 6.1119291,10 6,10.111929 6,10.25 v 0.5 C 6,10.889 6.1120001,11 6.25,11 h 3.5 C 9.8880709,11 10,10.888071 10,10.75 v -0.5 C 10,10.111929 9.8880709,10 9.75,10 Z m 0,2 C 6.1119291,12 6,12.111929 6,12.25 v 0.5 C 6,12.889 6.1120001,13 6.25,13 h 5.5 C 11.888071,13 12,12.888071 12,12.75 v -0.5 C 12,12.111929 11.888071,12 11.75,12 Z m 0,2 C 6.1119291,14 6,14.111929 6,14.25 v 0.5 C 6,14.889 6.1120001,15 6.25,15 h 3.5 C 9.8880709,15 10,14.888071 10,14.75 v -0.5 C 10,14.111929 9.8880709,14 9.75,14 Z m 0,2 C 6.1119291,16 6,16.111929 6,16.25 v 0.5 C 6,16.889 6.1120001,17 6.25,17 h 4.5 C 10.888071,17 11,16.888071 11,16.75 v -0.5 C 11,16.111929 10.888071,16 10.75,16 Z" />
</svg>
