<?xml version="1.0" encoding="UTF-8" standalone="no"?>
<!-- Created with Inkscape (http://www.inkscape.org/) -->
<svg
   xmlns:dc="http://purl.org/dc/elements/1.1/"
   xmlns:cc="http://creativecommons.org/ns#"
   xmlns:rdf="http://www.w3.org/1999/02/22-rdf-syntax-ns#"
   xmlns:svg="http://www.w3.org/2000/svg"
   xmlns="http://www.w3.org/2000/svg"
   xmlns:xlink="http://www.w3.org/1999/xlink"
   xmlns:sodipodi="http://sodipodi.sourceforge.net/DTD/sodipodi-0.dtd"
   xmlns:inkscape="http://www.inkscape.org/namespaces/inkscape"
   width="24"
   height="24"
   id="svg2"
   sodipodi:version="0.32"
   inkscape:version="0.46"
   version="1.0"
   sodipodi:docname="edit-find-replace.svg"
   inkscape:output_extension="org.inkscape.output.svg.inkscape">
  <defs
     id="defs4">
    <linearGradient
       id="linearGradient8838">
      <stop
         id="stop8840"
         offset="0"
         style="stop-color:#000000;stop-opacity:1;" />
      <stop
         id="stop8842"
         offset="1"
         style="stop-color:#000000;stop-opacity:0;" />
    </linearGradient>
    <radialGradient
       inkscape:collect="always"
       xlink:href="#linearGradient8838"
       id="radialGradient2506"
       gradientUnits="userSpaceOnUse"
       gradientTransform="matrix(1,0,0,0.341176,0,3.047059)"
       cx="62.625"
       cy="4.625"
       fx="62.625"
       fy="4.625"
       r="10.625" />
    <linearGradient
       id="linearGradient3277-442">
      <stop
         id="stop3378"
         offset="0"
         style="stop-color:#575757;stop-opacity:1;" />
      <stop
         id="stop3380"
         offset="1"
         style="stop-color:#333333;stop-opacity:1;" />
    </linearGradient>
    <linearGradient
       inkscape:collect="always"
       xlink:href="#linearGradient3277-442"
       id="linearGradient2543"
       gradientUnits="userSpaceOnUse"
       gradientTransform="matrix(0.5018785,0,0,0.462207,-0.3803386,1.9030377)"
       x1="32.892574"
       y1="27.988184"
       x2="31.364458"
       y2="29.484051" />
    <linearGradient
       id="linearGradient11114-516">
      <stop
         id="stop3372"
         offset="0"
         style="stop-color:#242424;stop-opacity:0.99215686;" />
      <stop
         id="stop3374"
         offset="1"
         style="stop-color:#656565;stop-opacity:1;" />
    </linearGradient>
    <linearGradient
       inkscape:collect="always"
       xlink:href="#linearGradient11114-516"
       id="linearGradient2541"
       gradientUnits="userSpaceOnUse"
       gradientTransform="matrix(0.1953514,0,0,0.1799097,50.0016,-0.8912687)"
       x1="-172.65306"
       y1="99.667191"
       x2="-164.71831"
       y2="91.972626" />
    <linearGradient
       id="linearGradient3294">
      <stop
         style="stop-color:#ffffff;stop-opacity:0.19520548;"
         offset="0"
         id="stop3296" />
      <stop
         style="stop-color:#ffffff;stop-opacity:0;"
         offset="1"
         id="stop3298" />
    </linearGradient>
    <linearGradient
       inkscape:collect="always"
       xlink:href="#linearGradient3294"
       id="linearGradient2538"
       gradientUnits="userSpaceOnUse"
       gradientTransform="matrix(0.1953514,0,0,0.1799097,-25.223109,0.847388)"
       x1="212.04402"
       y1="123.74026"
       x2="210.58083"
       y2="74.261711" />
    <linearGradient
       id="linearGradient4454-600">
      <stop
         style="stop-color:#ffffff;stop-opacity:0.64726025;"
         offset="0"
         id="stop3408" />
      <stop
         style="stop-color:#ffffff;stop-opacity:0.19520548;"
         offset="1"
         id="stop3410" />
    </linearGradient>
    <radialGradient
       inkscape:collect="always"
       xlink:href="#linearGradient4454-600"
       id="radialGradient2514"
       gradientUnits="userSpaceOnUse"
       cx="18.240929"
       cy="21.817987"
       fx="18.240929"
       fy="21.817987"
       r="8.3085051" />
    <linearGradient
       id="linearGradient4467-402">
      <stop
         style="stop-color:#ffffff;stop-opacity:1;"
         offset="0"
         id="stop3390" />
      <stop
         style="stop-color:#ffffff;stop-opacity:0.24761905;"
         offset="1.0000000"
         id="stop3392" />
    </linearGradient>
    <radialGradient
       inkscape:collect="always"
       xlink:href="#linearGradient4467-402"
       id="radialGradient2533"
       gradientUnits="userSpaceOnUse"
       gradientTransform="matrix(1.4500546,0,0,1.1280465,-15.280129,-9.906347)"
       cx="15.414371"
       cy="13.078408"
       fx="15.414371"
       fy="13.078408"
       r="6.65625" />
    <linearGradient
       id="linearGradient11104-770">
      <stop
         id="stop3402"
         offset="0"
         style="stop-color:#333333;stop-opacity:1;" />
      <stop
         id="stop3404"
         offset="1"
         style="stop-color:#333333;stop-opacity:0.6122449;" />
    </linearGradient>
    <linearGradient
       inkscape:collect="always"
       xlink:href="#linearGradient11104-770"
       id="linearGradient2530"
       gradientUnits="userSpaceOnUse"
       gradientTransform="matrix(0.1906508,0,0,0.1908549,0.5616077,1.5616236)"
       x1="41.541653"
       y1="68.291702"
       x2="41.485142"
       y2="4.5362983" />
    <linearGradient
       id="linearGradient2300-465">
      <stop
         id="stop3396"
         offset="0"
         style="stop-color:#343434;stop-opacity:0.97647059" />
      <stop
         id="stop3398"
         offset="1"
         style="stop-color:#929292;stop-opacity:1" />
    </linearGradient>
    <linearGradient
       inkscape:collect="always"
       xlink:href="#linearGradient2300-465"
       id="linearGradient2528"
       gradientUnits="userSpaceOnUse"
       gradientTransform="matrix(0.1906508,0,0,0.1908549,-24.167929,0.1252679)"
       x1="173.09576"
       y1="75.31868"
       x2="173.09576"
       y2="11.949074" />
    <linearGradient
       id="linearGradient6209-717">
      <stop
         style="stop-color:#979797;stop-opacity:1"
         offset="0"
         id="stop3366" />
      <stop
         style="stop-color:#000000;stop-opacity:0.34117648"
         offset="1"
         id="stop3368" />
    </linearGradient>
    <linearGradient
       inkscape:collect="always"
       xlink:href="#linearGradient6209-717"
       id="linearGradient2525"
       gradientUnits="userSpaceOnUse"
       gradientTransform="matrix(0.1815664,0,0,0.1817607,-22.545212,0.4075216)"
       x1="173.09576"
       y1="75.31868"
       x2="173.09576"
       y2="11.949074" />
    <linearGradient
       id="linearGradient3191-577">
      <stop
         style="stop-color:#dbce48;stop-opacity:1;"
         offset="0"
         id="stop2613" />
      <stop
         style="stop-color:#c5b625;stop-opacity:1;"
         offset="1"
         id="stop2615" />
    </linearGradient>
    <linearGradient
       y2="41.391716"
       x2="9.5220556"
       y1="37.371799"
       x1="5.5178981"
       gradientTransform="matrix(0.3763801,3.6152606e-2,3.669995e-2,0.374874,-2.2182805,-1.1331002)"
       gradientUnits="userSpaceOnUse"
       id="linearGradient8655"
       xlink:href="#linearGradient3191-577"
       inkscape:collect="always" />
    <linearGradient
       id="linearGradient3290-678">
      <stop
         style="stop-color:#ece5a5;stop-opacity:1;"
         offset="0"
         id="stop2607" />
      <stop
         style="stop-color:#fcfbf2;stop-opacity:1;"
         offset="1"
         id="stop2609" />
    </linearGradient>
    <linearGradient
       y2="26.02973"
       x2="9"
       y1="29.056757"
       x1="9"
       gradientTransform="matrix(0.4040235,-0.4056919,0.6073752,0.602268,-17.636692,0.462492)"
       gradientUnits="userSpaceOnUse"
       id="linearGradient8653"
       xlink:href="#linearGradient3290-678"
       inkscape:collect="always" />
    <linearGradient
       id="linearGradient3223-699">
      <stop
         style="stop-color:#b1b1b1;stop-opacity:1;"
         offset="0"
         id="stop2599" />
      <stop
         id="stop2601"
         offset="0.5"
         style="stop-color:#ffffff;stop-opacity:1;" />
      <stop
         style="stop-color:#8f8f8f;stop-opacity:1;"
         offset="1"
         id="stop2603" />
    </linearGradient>
    <linearGradient
       y2="30.000141"
       x2="30.037716"
       y1="24.989594"
       x1="30.037716"
       gradientTransform="matrix(0.4040235,-0.4056919,0.6073752,0.6022679,-17.177369,-2.1969969e-4)"
       gradientUnits="userSpaceOnUse"
       id="linearGradient8651"
       xlink:href="#linearGradient3223-699"
       inkscape:collect="always" />
    <linearGradient
       id="linearGradient3240-907">
      <stop
         id="stop2591"
         offset="0"
         style="stop-color:#565656;stop-opacity:1;" />
      <stop
         style="stop-color:#9a9a9a;stop-opacity:1;"
         offset="0.5"
         id="stop2593" />
      <stop
         id="stop2595"
         offset="1"
         style="stop-color:#545454;stop-opacity:1;" />
    </linearGradient>
    <linearGradient
       y2="30.000141"
       x2="30.037716"
       y1="24.989594"
       x1="30.037716"
       gradientTransform="matrix(0.4040235,-0.4056919,0.6073752,0.6022679,-17.061661,-0.1164056)"
       gradientUnits="userSpaceOnUse"
       id="linearGradient8649"
       xlink:href="#linearGradient3240-907"
       inkscape:collect="always" />
    <linearGradient
       id="linearGradient3223-768">
      <stop
         style="stop-color:#b1b1b1;stop-opacity:1;"
         offset="0"
         id="stop2583" />
      <stop
         id="stop2585"
         offset="0.5"
         style="stop-color:#ffffff;stop-opacity:1;" />
      <stop
         style="stop-color:#8f8f8f;stop-opacity:1;"
         offset="1"
         id="stop2587" />
    </linearGradient>
    <linearGradient
       y2="30.000141"
       x2="30.037716"
       y1="24.989594"
       x1="30.037716"
       gradientTransform="matrix(0.4040235,-0.4056919,0.6073752,0.6022679,-17.581392,0.4054707)"
       gradientUnits="userSpaceOnUse"
       id="linearGradient8647"
       xlink:href="#linearGradient3223-768"
       inkscape:collect="always" />
    <linearGradient
       id="linearGradient3240-686">
      <stop
         id="stop2575"
         offset="0"
         style="stop-color:#565656;stop-opacity:1;" />
      <stop
         style="stop-color:#9a9a9a;stop-opacity:1;"
         offset="0.5"
         id="stop2577" />
      <stop
         id="stop2579"
         offset="1"
         style="stop-color:#545454;stop-opacity:1;" />
    </linearGradient>
    <linearGradient
       y2="30.000141"
       x2="30.037716"
       y1="24.989594"
       x1="30.037716"
       gradientTransform="matrix(0.4040235,-0.4056919,0.6073752,0.6022679,-17.465684,0.2892868)"
       gradientUnits="userSpaceOnUse"
       id="linearGradient8645"
       xlink:href="#linearGradient3240-686"
       inkscape:collect="always" />
    <linearGradient
       id="linearGradient3223-789">
      <stop
         style="stop-color:#b1b1b1;stop-opacity:1;"
         offset="0"
         id="stop2567" />
      <stop
         id="stop2569"
         offset="0.5"
         style="stop-color:#ffffff;stop-opacity:1;" />
      <stop
         style="stop-color:#8f8f8f;stop-opacity:1;"
         offset="1"
         id="stop2571" />
    </linearGradient>
    <linearGradient
       y2="30.000141"
       x2="30.037716"
       y1="24.989594"
       x1="30.037716"
       gradientTransform="matrix(0.4040235,-0.4056919,0.6073752,0.6022679,-17.983472,0.8092126)"
       gradientUnits="userSpaceOnUse"
       id="linearGradient8643"
       xlink:href="#linearGradient3223-789"
       inkscape:collect="always" />
    <linearGradient
       id="linearGradient3240-279">
      <stop
         id="stop2559"
         offset="0"
         style="stop-color:#565656;stop-opacity:1;" />
      <stop
         style="stop-color:#9a9a9a;stop-opacity:1;"
         offset="0.5"
         id="stop2561" />
      <stop
         id="stop2563"
         offset="1"
         style="stop-color:#545454;stop-opacity:1;" />
    </linearGradient>
    <linearGradient
       y2="30.000141"
       x2="30.037716"
       y1="24.989594"
       x1="30.037716"
       gradientTransform="matrix(0.4040235,-0.4056919,0.6073752,0.6022679,-17.867764,0.6930272)"
       gradientUnits="userSpaceOnUse"
       id="linearGradient8641"
       xlink:href="#linearGradient3240-279"
       inkscape:collect="always" />
    <linearGradient
       id="linearGradient3155-40">
      <stop
         style="stop-color:#181818;stop-opacity:1;"
         offset="0"
         id="stop2541" />
      <stop
         id="stop2543"
         offset="0.13482948"
         style="stop-color:#dbdbdb;stop-opacity:1;" />
      <stop
         style="stop-color:#a4a4a4;stop-opacity:1;"
         offset="0.20224422"
         id="stop2545" />
      <stop
         id="stop2547"
         offset="0.26965895"
         style="stop-color:#ffffff;stop-opacity:1;" />
      <stop
         style="stop-color:#8d8d8d;stop-opacity:1;"
         offset="0.44650277"
         id="stop2549" />
      <stop
         id="stop2551"
         offset="0.57114136"
         style="stop-color:#959595;stop-opacity:1;" />
      <stop
         style="stop-color:#cecece;stop-opacity:1;"
         offset="0.72038066"
         id="stop2553" />
      <stop
         style="stop-color:#181818;stop-opacity:1;"
         offset="1"
         id="stop2555" />
    </linearGradient>
    <linearGradient
       y2="31.210939"
       x2="23.575972"
       y1="25.356892"
       x1="23.575972"
       spreadMethod="pad"
       gradientTransform="matrix(0.415777,-0.4174938,0.518983,0.5146192,-15.747227,2.6503673)"
       gradientUnits="userSpaceOnUse"
       id="linearGradient8639"
       xlink:href="#linearGradient3155-40"
       inkscape:collect="always" />
  </defs>
  <sodipodi:namedview
     id="base"
     pagecolor="#ffffff"
     bordercolor="#666666"
     borderopacity="1.0"
     gridtolerance="10000"
     guidetolerance="10"
     objecttolerance="10"
     inkscape:pageopacity="0.0"
     inkscape:pageshadow="2"
     inkscape:zoom="10.375"
     inkscape:cx="12"
     inkscape:cy="12"
     inkscape:document-units="px"
     inkscape:current-layer="layer1"
     showgrid="false"
     inkscape:window-width="640"
     inkscape:window-height="720"
     inkscape:window-x="798"
     inkscape:window-y="24" />
  <metadata
     id="metadata7">
    <rdf:RDF>
      <cc:Work
         rdf:about="">
        <dc:format>image/svg+xml</dc:format>
        <dc:type
           rdf:resource="http://purl.org/dc/dcmitype/StillImage" />
      </cc:Work>
    </rdf:RDF>
  </metadata>
  <g
     inkscape:label="Layer 1"
     inkscape:groupmode="layer"
     id="layer1">
    <path
       transform="matrix(1.0295301,0,0,0.818516,-52.53571,16.247092)"
       d="M 73.25,4.625 A 10.625,3.625 0 1 1 52,4.625 A 10.625,3.625 0 1 1 73.25,4.625 z"
       sodipodi:ry="3.625"
       sodipodi:rx="10.625"
       sodipodi:cy="4.625"
       sodipodi:cx="62.625"
       id="path8836"
       style="display:inline;opacity:0.20000000000000001;fill:url(#radialGradient2506);fill-opacity:1;fill-rule:evenodd;stroke:none;stroke-width:0.99999987999999995;stroke-linecap:butt;stroke-linejoin:round;marker:none;marker-start:none;marker-mid:none;marker-end:none;stroke-miterlimit:4;stroke-dasharray:none;stroke-dashoffset:0;stroke-opacity:1;visibility:visible;overflow:visible"
       sodipodi:type="arc" />
    <path
       sodipodi:nodetypes="ccccc"
       id="path11112"
       d="M 13.679117,12.5 L 22.413809,19.986728 L 21.203058,21.5 L 12.5,13.401362 L 13.679117,12.5 z"
       style="display:inline;fill:url(#linearGradient2541);fill-opacity:1;fill-rule:evenodd;stroke:url(#linearGradient2543);stroke-width:1;stroke-linecap:round;stroke-linejoin:round;stroke-miterlimit:4;stroke-dasharray:none;stroke-opacity:1" />
    <path
       id="path11122"
       d="M 21.217785,21.008568 L 14.212734,12.96432 L 22.687982,19.813879 L 21.217785,21.008568 z"
       style="display:inline;fill:url(#linearGradient2538);fill-opacity:1;fill-rule:evenodd;stroke:none;stroke-width:1;stroke-linecap:butt;stroke-linejoin:miter;stroke-miterlimit:4;stroke-dasharray:none;stroke-opacity:1" />
    <path
       transform="matrix(0.1837074,-0.1915779,0.2354746,0.1427652,-48.692604,51.644667)"
       d="M 247.90924,110.29199 A 4.8668494,2.6562009 0 1 1 238.17554,110.29199 A 4.8668494,2.6562009 0 1 1 247.90924,110.29199 z"
       sodipodi:ry="2.6562009"
       sodipodi:rx="4.8668494"
       sodipodi:cy="110.29199"
       sodipodi:cx="243.04239"
       id="path13082"
       style="display:inline;fill:#3e3e3e;fill-opacity:1;stroke:none;stroke-width:3.68972348999999999;stroke-linecap:round;stroke-linejoin:round;stroke-miterlimit:4;stroke-dasharray:none;stroke-opacity:1"
       sodipodi:type="arc" />
    <path
       sodipodi:type="arc"
       style="display:inline;fill:url(#radialGradient2514);fill-opacity:1;fill-rule:evenodd;stroke:none;stroke-width:0.88163906000000003;stroke-linecap:round;stroke-linejoin:miter;marker:none;marker-start:none;marker-mid:none;marker-end:none;stroke-miterlimit:4;stroke-dasharray:none;stroke-dashoffset:0;stroke-opacity:1;visibility:visible;opacity:0.40000000000000002"
       id="path4452"
       sodipodi:cx="17.589281"
       sodipodi:cy="18.478292"
       sodipodi:rx="8.3085051"
       sodipodi:ry="8.3085051"
       d="M 25.897786,18.478292 A 8.3085051,8.3085051 0 1 1 9.280776,18.478292 A 8.3085051,8.3085051 0 1 1 25.897786,18.478292 z"
       transform="matrix(0.7030485,0,0,0.6866873,-3.2377028,-4.4914744)" />
    <path
       sodipodi:nodetypes="cscscc"
       style="display:inline;opacity:0.59999999999999998;fill:url(#radialGradient2533);fill-opacity:1;fill-rule:evenodd;stroke:none;stroke-width:1;stroke-linecap:round;stroke-linejoin:miter;marker:none;marker-start:none;marker-mid:none;marker-end:none;stroke-miterlimit:10;stroke-dasharray:none;stroke-dashoffset:0;stroke-opacity:1;visibility:visible;overflow:visible"
       d="M 8.8877932,3.285826 C 5.9755694,3.285826 3.6173324,5.398039 3.6173324,8.0064457 C 3.6173324,8.7597642 3.6826304,9.537855 4.0331878,10.170039 C 4.7335526,10.401255 5.6472873,10.473601 6.4369206,10.473601 C 9.8878861,10.473601 12.856128,7.9110267 13.069094,4.8679002 C 12.101092,3.8433232 10.502538,3.285826 8.8877932,3.285826 z"
       id="path4462" />
    <path
       id="path2298"
       d="M 9.0000005,2.5 C 5.4126135,2.5 2.499998,5.1886101 2.5,8.4999999 C 2.5,11.811391 5.4126135,14.5 9.0000005,14.5 C 12.587385,14.5 15.5,11.811391 15.5,8.4999999 C 15.5,5.1886101 12.587386,2.5 9.0000005,2.5 z M 9.0774515,2.8936385 C 12.288186,2.8936385 14.898259,5.2977161 14.898259,8.261432 C 14.898259,11.225147 12.288186,13.629226 9.0774515,13.629226 C 5.8667172,13.629226 3.2626032,11.225148 3.2626032,8.261432 C 3.2626032,5.2977161 5.8667172,2.8936385 9.0774515,2.8936385 z"
       style="display:inline;fill:url(#linearGradient2528);fill-opacity:1;stroke:url(#linearGradient2530);stroke-width:1;stroke-linecap:round;stroke-linejoin:round;stroke-miterlimit:4;stroke-dasharray:none;stroke-opacity:1" />
    <path
       sodipodi:nodetypes="csssccsssc"
       id="path4267"
       d="M 9.0417066,2.6729635 C 5.6252575,2.6729635 2.8574707,5.2330773 2.8574707,8.3866823 C 2.8574707,11.540286 5.6252556,14.100399 9.0417066,14.100399 C 12.458156,14.100399 15.2319,11.540285 15.2319,8.3866823 C 15.2319,5.2330773 12.458154,2.6729635 9.0417066,2.6729635 z M 9.0774535,2.8936395 C 12.288186,2.8936395 14.643636,5.2977181 14.643636,8.2614331 C 14.643636,11.225148 12.288186,13.374328 9.0774535,13.374328 C 5.8667184,13.374328 3.4747923,11.225149 3.4747923,8.2614331 C 3.4747923,5.2977181 5.8667184,2.8936395 9.0774535,2.8936395 z"
       style="display:inline;fill:url(#linearGradient2525);fill-opacity:1;stroke:none;stroke-width:3.21138214999999994;stroke-linecap:round;stroke-linejoin:round;stroke-miterlimit:4;stroke-dasharray:none;stroke-opacity:1" />
    <g
       inkscape:label="Layer 1"
       id="g2712"
       transform="translate(7.9999223,7.9639121)">
      <path
         inkscape:transform-center-y="-1.7158265"
         inkscape:transform-center-x="-8.4393233"
         style="opacity:0.15;fill:#0c0c0c;fill-opacity:1;fill-rule:evenodd;stroke:none;stroke-width:1px;stroke-linecap:butt;stroke-linejoin:miter;stroke-opacity:1"
         d="M 13.219868,12.085402 C 13.084273,12.064287 12.980411,12.07315 12.912182,12.08838 L 3.8246893,14.105582 L 2.1521901,14.477776 L 2.100557,14.485736 L 0.1618417,15.918399 L 5.1116758,15.844379 L 5.1523982,15.834924 L 6.8358105,15.464226 L 15.920372,13.431596 C 16.193283,13.370679 15.743073,13.021669 14.910389,12.647286 C 14.285874,12.366498 13.626647,12.148745 13.219868,12.085402 z"
         id="path2422" />
      <g
         transform="matrix(1.030012,0,0,1.0325071,-1.6773001e-2,-0.5215254)"
         id="g8626">
        <path
           style="fill:url(#linearGradient8639);fill-opacity:1;stroke:#0c0c0c;stroke-width:0.48484433;stroke-linecap:butt;stroke-linejoin:round;stroke-miterlimit:4;stroke-dasharray:none;stroke-dashoffset:0;stroke-opacity:1"
           d="M 2.0488085,11.037368 C 2.3353509,10.829661 3.1967594,11.293756 4.009147,12.099313 C 4.8195928,12.902942 5.2693466,13.740644 5.0667047,14.029888 C 5.0659339,14.030989 5.086475,14.047625 5.0856851,14.048709 L 15.224149,3.8683779 C 15.481557,3.6099071 15.011041,2.7247557 14.172862,1.893626 C 13.334685,1.0624962 12.444681,0.59856571 12.187272,0.85703737 L 2.0488085,11.037368 z"
           id="rect2383"
           inkscape:transform-center-x="-9.3983079"
           inkscape:transform-center-y="-8.5737916" />
        <path
           style="opacity:0.8;fill:#ffb6ed;fill-opacity:1;stroke:#e28ccd;stroke-width:0.48484433;stroke-linecap:butt;stroke-linejoin:round;stroke-miterlimit:4;stroke-dasharray:none;stroke-dashoffset:0;stroke-opacity:1"
           d="M 10.565423,2.4840909 C 10.851965,2.2763844 11.713374,2.7404788 12.525761,3.5460352 C 13.336206,4.3496643 13.78596,5.1873647 13.583318,5.4766096 C 13.582549,5.4777098 13.603089,5.4943472 13.602299,5.4954307 L 15.154234,3.9383089 C 15.562715,3.5297289 15.124956,2.8454879 14.172862,1.893626 C 13.360476,1.0880699 12.499066,0.6239749 12.212525,0.83168148 L 12.187272,0.85703737 L 10.565423,2.4840909 z"
           id="rect3175"
           sodipodi:nodetypes="csscccccc"
           inkscape:transform-center-x="-14.039749"
           inkscape:transform-center-y="-12.827689" />
        <path
           style="opacity:0.6;fill:#0c0c0c;fill-opacity:1;stroke:none;stroke-width:2;stroke-linecap:butt;stroke-linejoin:round;stroke-miterlimit:4;stroke-dasharray:2, 8;stroke-dashoffset:0;stroke-opacity:0.23529412"
           d="M 2.0488079,11.037368 C 2.3353509,10.82966 3.1967591,11.293756 4.0091469,12.099311 C 4.8195918,12.902941 5.2693461,13.740643 5.0667048,14.029888 C 5.0659334,14.030987 5.0864751,14.047624 5.0856853,14.048708 L 12.067715,7.0378443 L 12.092966,7.0124886 C 12.093756,7.0114059 12.073215,6.9947683 12.073986,6.9936682 C 12.276628,6.7044221 11.826873,5.8667226 11.01643,5.0630931 C 10.204041,4.2575368 9.3426319,3.7934425 9.0560897,4.0011493 L 9.0308383,4.0265046 L 2.0488079,11.037368 z"
           id="path3208"
           inkscape:transform-center-x="-7.6735182"
           inkscape:transform-center-y="-6.9998429" />
        <path
           style="fill:url(#linearGradient8641);fill-opacity:1;stroke:none;stroke-width:2;stroke-linecap:butt;stroke-linejoin:round;stroke-miterlimit:4;stroke-dasharray:2, 8;stroke-dashoffset:0;stroke-opacity:0.23529412"
           d="M 9.1785348,3.8767048 C 9.4650761,3.668998 10.326487,4.1330927 11.138874,4.9386491 C 11.949319,5.7422782 12.399074,6.5799785 12.19643,6.8692244 C 12.195659,6.8703238 12.216202,6.8869609 12.215411,6.8880447 L 12.341667,6.7612652 C 12.342457,6.7601824 12.321918,6.7435449 12.322688,6.7424448 C 12.525331,6.4531992 12.075576,5.6154986 11.26513,4.8118704 C 10.452743,4.0063135 9.5913335,3.542219 9.3047918,3.7499256 L 9.1785348,3.8767048 z"
           id="path3233"
           inkscape:transform-center-x="-11.687278"
           inkscape:transform-center-y="-10.684694" />
        <path
           style="fill:url(#linearGradient8643);fill-opacity:1;stroke:none;stroke-width:2;stroke-linecap:butt;stroke-linejoin:round;stroke-miterlimit:4;stroke-dasharray:2, 8;stroke-dashoffset:0;stroke-opacity:0.23529412"
           d="M 9.0628273,3.9928895 C 9.3493709,3.7851827 10.21078,4.2492773 11.023167,5.0548335 C 11.833611,5.8584629 12.283367,6.6961627 12.080723,6.9854077 C 12.079952,6.986508 12.100493,7.0031453 12.099705,7.0042301 L 12.225962,6.8774502 C 12.226752,6.8763664 12.206211,6.8597292 12.206981,6.8586296 C 12.409623,6.569384 11.95987,5.7316836 11.149423,4.9280545 C 10.337036,4.1224982 9.4756273,3.6584033 9.1890844,3.8661101 L 9.0628273,3.9928895 z"
           id="path3216"
           inkscape:transform-center-x="-11.561394"
           inkscape:transform-center-y="-10.569171" />
        <path
           style="fill:url(#linearGradient8645);fill-opacity:1;stroke:none;stroke-width:2;stroke-linecap:butt;stroke-linejoin:round;stroke-miterlimit:4;stroke-dasharray:2, 8;stroke-dashoffset:0;stroke-opacity:0.23529412"
           d="M 9.5806143,3.4729643 C 9.8671569,3.2652574 10.728566,3.7293515 11.540953,4.5349085 C 12.351399,5.3385375 12.801153,6.1762377 12.598511,6.4654832 C 12.597738,6.4665825 12.618281,6.4832198 12.617491,6.4843035 L 12.743749,6.3575251 C 12.74454,6.356442 12.723998,6.3398041 12.724769,6.3387048 C 12.927411,6.0494594 12.477656,5.2117588 11.66721,4.4081298 C 10.854824,3.6025731 9.9934151,3.1384786 9.7068717,3.3461854 L 9.5806143,3.4729643 z"
           id="path3248"
           inkscape:transform-center-x="-12.124723"
           inkscape:transform-center-y="-11.086128" />
        <path
           style="fill:url(#linearGradient8647);fill-opacity:1;stroke:none;stroke-width:2;stroke-linecap:butt;stroke-linejoin:round;stroke-miterlimit:4;stroke-dasharray:2, 8;stroke-dashoffset:0;stroke-opacity:0.23529412"
           d="M 9.4649071,3.5891488 C 9.7514506,3.3814418 10.61286,3.8455365 11.425245,4.6510928 C 12.235692,5.4547226 12.685446,6.2924222 12.482803,6.5816676 C 12.482034,6.5827675 12.502575,6.5994047 12.501784,6.6004885 L 12.628041,6.4737085 C 12.628831,6.4726252 12.608291,6.4559884 12.609061,6.4548886 C 12.811705,6.1656438 12.361949,5.3279425 11.551504,4.5243147 C 10.739118,3.718758 9.877708,3.254663 9.5911645,3.46237 L 9.4649071,3.5891488 z"
           id="path3250"
           inkscape:transform-center-x="-11.998839"
           inkscape:transform-center-y="-10.970607" />
        <path
           style="fill:url(#linearGradient8649);fill-opacity:1;stroke:none;stroke-width:2;stroke-linecap:butt;stroke-linejoin:round;stroke-miterlimit:4;stroke-dasharray:2, 8;stroke-dashoffset:0;stroke-opacity:0.23529412"
           d="M 9.9846388,3.0672723 C 10.27118,2.8595657 11.13259,3.3236601 11.944976,4.1292168 C 12.755422,4.9328456 13.205177,5.7705458 13.002534,6.0597909 C 13.001764,6.0608915 13.022304,6.0775286 13.021513,6.0786124 L 13.14777,5.9518328 C 13.148562,5.9507498 13.128021,5.9341122 13.128791,5.9330122 C 13.331434,5.6437674 12.881679,4.8060668 12.071233,4.0024374 C 11.258848,3.1968815 10.397438,2.7327869 10.110895,2.9404937 L 9.9846388,3.0672723 z"
           id="path3256"
           inkscape:transform-center-x="-12.564281"
           inkscape:transform-center-y="-11.489504" />
        <path
           style="fill:url(#linearGradient8651);fill-opacity:1;stroke:none;stroke-width:2;stroke-linecap:butt;stroke-linejoin:round;stroke-miterlimit:4;stroke-dasharray:2, 8;stroke-dashoffset:0;stroke-opacity:0.23529412"
           d="M 9.8689318,3.1834569 C 10.155473,2.9757497 11.016883,3.4398448 11.829271,4.2454016 C 12.639715,5.0490299 13.089469,5.8867307 12.886827,6.1759755 C 12.886056,6.1770761 12.906598,6.1937129 12.905808,6.1947965 L 13.032066,6.0680183 C 13.032855,6.0669346 13.012313,6.0502964 13.013084,6.049197 C 13.215727,5.7599515 12.765972,4.9222512 11.955527,4.1186224 C 11.143141,3.313066 10.281731,2.848971 9.9951884,3.0566783 L 9.8689318,3.1834569 z"
           id="path3258"
           inkscape:transform-center-x="-12.438397"
           inkscape:transform-center-y="-11.373981" />
        <path
           sodipodi:nodetypes="cccscc"
           id="path3270"
           d="M 0.25980529,15.79419 L 5.0316615,14.068702 L 5.0709697,14.029447 C 5.2736124,13.740202 4.8185731,12.902156 4.0081274,12.098526 C 3.1957395,11.29297 2.335449,10.831246 2.0489062,11.038953 L 0.25980529,15.79419 z"
           style="fill:url(#linearGradient8653);fill-opacity:1;fill-rule:evenodd;stroke:url(#linearGradient8655);stroke-width:0.48484433;stroke-linecap:butt;stroke-linejoin:miter;stroke-miterlimit:4;stroke-dasharray:none;stroke-opacity:1"
           inkscape:transform-center-x="-2.8267936"
           inkscape:transform-center-y="-2.7057213" />
        <path
           style="fill:#0c0c0c;fill-opacity:1;fill-rule:evenodd;stroke:#0c0c0c;stroke-width:0.48484433;stroke-linecap:butt;stroke-linejoin:miter;stroke-miterlimit:4;stroke-dasharray:none;stroke-opacity:1"
           d="M 0.7444326,14.506276 L 0.25922075,15.788967 L 1.560593,15.315574 C 1.446907,15.182439 1.3413094,15.047739 1.2062351,14.913801 C 1.0507282,14.759602 0.89915498,14.633134 0.7444326,14.506276 z"
           id="path3281"
           inkscape:transform-center-x="-0.93674026"
           inkscape:transform-center-y="-0.91293426" />
      </g>
    </g>
  </g>
</svg>
