<svg xmlns="http://www.w3.org/2000/svg" xmlns:xlink="http://www.w3.org/1999/xlink" viewBox="0 0 24 24"><defs><linearGradient id="a"><stop offset="0" stop-color="#555"/><stop offset="1" stop-color="#666"/></linearGradient><linearGradient xlink:href="#a" id="h" x1="12" y1="22" x2="12" gradientUnits="userSpaceOnUse" gradientTransform="translate(1 26)"/><linearGradient xlink:href="#a" id="i" x1="12" y1="22" x2="12" gradientUnits="userSpaceOnUse"/><radialGradient xlink:href="#b" id="j" gradientUnits="userSpaceOnUse" gradientTransform="matrix(1 0 0 .75 -22 9.875)" cx="40" cy="43.5" fx="40" fy="43.5" r="2"/><linearGradient id="b"><stop offset="0"/><stop offset="1" stop-opacity="0"/></linearGradient><radialGradient xlink:href="#c" id="k" gradientUnits="userSpaceOnUse" gradientTransform="matrix(1 0 0 .75 -4 9.875)" cx="9" cy="43.5" fx="9" fy="43.5" r="2"/><linearGradient id="c"><stop offset="0"/><stop offset="1" stop-opacity="0"/></linearGradient><linearGradient id="d"><stop offset="0" stop-opacity="0"/><stop offset=".5"/><stop offset="1" stop-opacity="0"/></linearGradient><linearGradient y2="42" x2="25" y1="45" x1="25" gradientTransform="translate(-9 -1)" gradientUnits="userSpaceOnUse" id="l" xlink:href="#d"/><radialGradient xlink:href="#e" id="m" gradientUnits="userSpaceOnUse" gradientTransform="matrix(1 0 0 .75 -22 9.875)" cx="40" cy="43.5" fx="40" fy="43.5" r="2"/><linearGradient id="e"><stop offset="0"/><stop offset="1" stop-opacity="0"/></linearGradient><radialGradient xlink:href="#f" id="n" gradientUnits="userSpaceOnUse" gradientTransform="matrix(1 0 0 .75 -4 9.875)" cx="9" cy="43.5" fx="9" fy="43.5" r="2"/><linearGradient id="f"><stop offset="0"/><stop offset="1" stop-opacity="0"/></linearGradient><linearGradient id="g"><stop offset="0" stop-opacity="0"/><stop offset=".5"/><stop offset="1" stop-opacity="0"/></linearGradient><linearGradient y2="42" x2="25" y1="45" x1="25" gradientTransform="translate(-9 -1)" gradientUnits="userSpaceOnUse" id="o" xlink:href="#g"/></defs><path style="line-height:normal;-inkscape-font-specification:Sans;text-indent:0;text-align:start;text-decoration-line:none;text-transform:none;block-progression:tb" d="M5.5 28.5v4h9c.082 0 .39.133.625.375s.375.583.375.625v1h-7c-1.518 0-2.877.632-3.75 1.625l-.03.03A5.022 5.022 0 0 0 3.5 39.5a5.15 5.15 0 0 0 1.28 3.375c.867.977 2.214 1.625 3.72 1.625h11v-1.75h-.03c.008-.126.008-.19 0-.25h.03v-9c0-2.72-2.21-5-5-5h-9zm3 10h7v2h-7c-.505 0-.543-.05-.72-.25a1.27 1.27 0 0 1-.28-.75c-.002-.29.133-.617.25-.75.158-.18.208-.25.75-.25z" color="#000" font-weight="400" font-family="Sans" overflow="visible" fill="url(#h)" transform="translate(0 -24)"/><path d="M5.5 4.5v4h9c.082 0 .39.133.625.375s.375.583.375.625v1h-7c-1.518 0-2.877.632-3.75 1.625l-.03.03A5.022 5.022 0 0 0 3.5 15.5a5.15 5.15 0 0 0 1.28 3.375c.867.977 2.214 1.625 3.72 1.625h11v-1.75h-.03c.008-.126.008-.19 0-.25h.03v-9c0-2.72-2.21-5-5-5h-9zm3 10h7v2h-7c-.505 0-.543-.05-.72-.25a1.27 1.27 0 0 1-.28-.75c-.002-.29.133-.617.25-.75.158-.18.208-.25.75-.25z" style="line-height:normal;-inkscape-font-specification:Sans;text-indent:0;text-align:start;text-decoration-line:none;text-transform:none;block-progression:tb" color="#000" font-weight="400" font-family="Sans" overflow="visible" opacity=".61" fill="none" stroke="#000" stroke-linejoin="round"/><path style="line-height:normal;-inkscape-font-specification:Sans;text-indent:0;text-align:start;text-decoration-line:none;text-transform:none;block-progression:tb" d="M6 5v1h8.5a4.5 4.5 0 0 1 4.5 4.5v-1A4.5 4.5 0 0 0 14.5 5H6zm2.5 6c-1.38 0-2.602.59-3.375 1.47h-.03l-.032.03A4.566 4.566 0 0 0 4 15.5c0 .167.012.334.03.5a4.528 4.528 0 0 1 1.032-2.5l.032-.03h.03C5.9 12.59 7.122 12 8.5 12H16v-1H8.5zm-1.438 5a1.82 1.82 0 0 0-.062.5c.004.428.15.805.406 1.094.086.096.227.228.438.312.21.084.387.094.656.094H16v-1H8.5c-.27 0-.445-.01-.656-.094a1.154 1.154 0 0 1-.438-.312A1.634 1.634 0 0 1 7.063 16zm11.813 3l.094.563c0 .008.005.045 0 .156l-.034.28H19v-.75h-.063V19h-.062z" color="#000" font-weight="400" font-family="Sans" overflow="visible" opacity=".2" fill="#fff"/><g stroke-linejoin="round"><path transform="translate(1 2)" d="M1.5 8.5v3h19v-3h-19z" fill="url(#i)"/><path d="M2.5 10.5v3h19v-3h-19z" opacity=".61" fill="none" stroke="#000"/><path d="M3 11v1h18v-1H3z" opacity=".2" fill="#fff"/></g><g stroke-linejoin="round"><path d="M18 41v3h.5c.83 0 1.5-.67 1.5-1.5s-.67-1.5-1.5-1.5H18z" opacity=".2" fill="url(#j)" transform="translate(1 -21.5)"/><path d="M4.406 41C3.626 41 3 41.627 3 42.406v.188C3 43.374 3.627 44 4.406 44H5v-3h-.594z" opacity=".2" fill="url(#k)" transform="translate(1 -21.5)"/><path d="M5 41h13v3H5z" opacity=".2" fill="url(#l)" transform="translate(1 -21.5)"/></g><g stroke-linejoin="round"><path d="M18 41v3h.5c.83 0 1.5-.67 1.5-1.5s-.67-1.5-1.5-1.5H18z" opacity=".2" fill="url(#m)" transform="translate(0 -28.5)"/><path d="M4.406 41C3.626 41 3 41.627 3 42.406v.188C3 43.374 3.627 44 4.406 44H5v-3h-.594z" opacity=".2" fill="url(#n)" transform="translate(0 -28.5)"/><path d="M5 41h13v3H5z" opacity=".2" fill="url(#o)" transform="translate(0 -28.5)"/></g></svg>