<?xml version="1.0" encoding="UTF-8" standalone="no"?>
<svg
   xmlns:dc="http://purl.org/dc/elements/1.1/"
   xmlns:cc="http://creativecommons.org/ns#"
   xmlns:rdf="http://www.w3.org/1999/02/22-rdf-syntax-ns#"
   xmlns:svg="http://www.w3.org/2000/svg"
   xmlns="http://www.w3.org/2000/svg"
   id="svg6"
   version="1.1"
   width="24"
   height="24">
  <metadata
     id="metadata12">
    <rdf:RDF>
      <cc:Work
         rdf:about="">
        <dc:format>image/svg+xml</dc:format>
        <dc:type
           rdf:resource="http://purl.org/dc/dcmitype/StillImage" />
        <dc:title></dc:title>
      </cc:Work>
    </rdf:RDF>
  </metadata>
  <defs
     id="defs10" />
  <path
     d="m 19,13 c 0,-0.554 -0.466399,-1 -1,-1 H 14 V 4 C 14,3.446 13.554,3 13,3 H 10 C 9.446,3 9,3.446 9,4 v 8 H 5 c -0.554,0 -1,0.446 -1,1 0,0.298584 0.129746,0.565122 0.335938,0.748047 l 6.478515,6.978515 C 10.993548,20.895646 11.23426,21 11.5,21 c 0.26574,0 0.506452,-0.104355 0.685547,-0.273438 l 6.478515,-6.978515 C 18.870253,13.565122 19,13.298584 19,13 Z m -7.5,8 H 5 c -0.554,0 -1,0.446 -1,1 v 1 c 0,0.554 0.446,1 1,1 h 13 c 0.554,0 1,-0.446 1,-1 v -1 c 0,-0.554 -0.446,-1 -1,-1 z"
     style="opacity:1;fill:#555761;stroke:none;stroke-width:4;stroke-linecap:round;stroke-linejoin:round;stop-color:#000000"
     id="path873-5-3" />
</svg>
