<?xml version="1.0" encoding="UTF-8" standalone="no"?>
<svg
   height="24"
   width="24"
   version="1.1"
   id="svg1"
   xml:space="preserve"
   xmlns="http://www.w3.org/2000/svg"
   xmlns:svg="http://www.w3.org/2000/svg"><defs
     id="defs1" /><path
     id="rect3"
     style="opacity:1;fill:#555761;stroke:none;stroke-width:1.36083;stroke-linecap:round;stroke-linejoin:round"
     d="M 12 1 C 11.662494 1 11.357898 1.1362436 11.136719 1.3574219 L 1.3574219 10.914062 C 1.1362436 11.135241 1 11.439836 1 11.777344 C 1 12.452356 1.5476437 13 2.2226562 13 L 4 13 L 4 22 C 4 22.553997 4.4460018 23 5 23 L 10 23 L 10 17 A 2 2 0 0 1 12 15 A 2 2 0 0 1 14 17 L 14 23 L 19 23 C 19.553997 23 20 22.553997 20 22 L 20 13 L 21.777344 13 C 22.452356 13 23 12.452356 23 11.777344 C 23 11.439836 22.863756 11.135241 22.642578 10.914062 L 12.863281 1.3574219 C 12.642102 1.1362436 12.337506 1 12 1 z M 18 2 C 17.446001 2 17 2.4460006 17 3 L 17 4 L 20 7 L 20 3 C 20 2.4460006 19.553999 2 19 2 L 18 2 z " /></svg>
