<?xml version="1.0" encoding="UTF-8" standalone="no"?>
<svg
   xmlns:dc="http://purl.org/dc/elements/1.1/"
   xmlns:cc="http://creativecommons.org/ns#"
   xmlns:rdf="http://www.w3.org/1999/02/22-rdf-syntax-ns#"
   xmlns:svg="http://www.w3.org/2000/svg"
   xmlns="http://www.w3.org/2000/svg"
   xmlns:xlink="http://www.w3.org/1999/xlink"
   id="svg4524"
   height="24"
   width="24"
   version="1.1">
  <defs
     id="defs4526">
    <linearGradient
       id="linearGradient856">
      <stop
         id="stop848"
         style="stop-color:#9bdb4d;stop-opacity:1"
         offset="0" />
      <stop
         id="stop854"
         style="stop-color:#68b723;stop-opacity:1"
         offset="1" />
    </linearGradient>
    <linearGradient
       gradientTransform="matrix(-1,0,0,1,24.002756,0)"
       gradientUnits="userSpaceOnUse"
       y2="19.931219"
       x2="9.7818346"
       y1="3.96875"
       x1="9.8125"
       id="linearGradient862"
       xlink:href="#linearGradient856" />
  </defs>
  <metadata
     id="metadata4529">
    <rdf:RDF>
      <cc:Work
         rdf:about="">
        <dc:format>image/svg+xml</dc:format>
        <dc:type
           rdf:resource="http://purl.org/dc/dcmitype/StillImage" />
        <dc:title />
      </cc:Work>
    </rdf:RDF>
  </metadata>
  <path
     d="M 14.190256,3.96875 C 13.944468,3.95892 13.714808,4.0691982 13.534006,4.25 l -7.125,6.96875 c -0.146902,0.146901 -0.238672,0.31694 -0.28125,0.5 -0.02187,0.09403 -0.03729,0.187359 -0.03125,0.28125 -0.0017,0.03029 -0.0012,0.06324 0,0.09375 0.0095,0.05498 0.01176,0.104001 0.03125,0.15625 0.04065,0.188768 0.130039,0.380039 0.28125,0.53125 l 7.125,6.96875 c 0.361604,0.361604 0.952013,0.329237 1.34375,-0.0625 l 1.40625,-1.40625 c 0.391737,-0.391737 0.424104,-1.013396 0.0625,-1.375 L 13.440256,14 h 6.5625 c 0.554,0 1,-0.446 1,-1 v -2 c 0,-0.554 -0.446,-1 -1,-1 h -6.59375 l 2.9375,-2.9375 c 0.361604,-0.3616035 0.329237,-0.9520128 -0.0625,-1.34375 l -1.40625,-1.4375 c -0.195869,-0.1958686 -0.441712,-0.3026685 -0.6875,-0.3125 z"
     id="rect3811-1"
     style="color:#000000;display:inline;overflow:visible;visibility:visible;fill:url(#linearGradient862);fill-opacity:1;fill-rule:nonzero;stroke:none;stroke-width:1;marker:none;enable-background:accumulate" />
  <path
     d="m 14.159006,4.46875 c -0.08513,-0.00341 -0.177794,0.021544 -0.28125,0.125 l -7.125,6.96875 c -0.08449,0.08449 -0.133984,0.185522 -0.15625,0.28125 -0.01711,0.07356 -0.0012,0.106253 0,0.125 a 0.49703749,0.49703749 0 0 1 0,0.03125 c 0.0078,0.04523 -0.0013,0.02193 0,0.03125 -2.88e-4,0.0052 -8.53e-4,0.0099 0,0.03125 a 0.49703749,0.49703749 0 0 1 0.03125,0.09375 c 0.02363,0.109721 0.05271,0.208964 0.125,0.28125 l 7.125,6.96875 c 0.159857,0.159857 0.431384,0.162366 0.65625,-0.0625 l 1.40625,-1.40625 c 0.215521,-0.215521 0.212233,-0.537767 0.0625,-0.6875 l -2.90625,-2.90625 A 0.49703749,0.49703749 0 0 1 13.440256,13.5 h 6.5625 c 0.287265,0 0.5,-0.212735 0.5,-0.5 v -2 c 0,-0.287265 -0.212735,-0.5 -0.5,-0.5 h -6.59375 a 0.49703749,0.49703749 0 0 1 -0.34375,-0.84375 l 2.9375,-2.9375 C 16.162612,6.5588942 16.165122,6.2873658 15.940256,6.0625 L 14.534006,4.625 c -0.112713,-0.1127129 -0.259611,-0.1516344 -0.375,-0.15625 z"
     id="path3996"
     style="color:#000000;display:inline;overflow:visible;visibility:visible;opacity:0.1;fill:none;stroke:#000000;stroke-width:1;stroke-linecap:round;stroke-linejoin:round;stroke-miterlimit:4;stroke-dasharray:none;stroke-dashoffset:0;stroke-opacity:1;marker:none;enable-background:accumulate" />
  <path
     d="m 14.190256,5.65625 -6.5,6.34375 6.46875,6.34375 0.78125,-0.78125 -2.53125,-2.53125 a 1.4619211,1.4619211 0 0 1 1.03125,-2.5 h 6.09375 v -1.0625 h -6.125 a 1.4619211,1.4619211 0 0 1 -1.03125,-2.5 l 2.5625,-2.5625 z"
     id="path3996-3"
     style="color:#000000;display:inline;overflow:visible;visibility:visible;opacity:0.2;fill:none;stroke:#f5f5f5;stroke-width:1;stroke-linecap:butt;stroke-linejoin:miter;stroke-miterlimit:4;stroke-dasharray:none;stroke-dashoffset:0;stroke-opacity:1;marker:none;enable-background:accumulate" />
</svg>
