<?xml version="1.0" encoding="UTF-8" standalone="no"?>
<svg
   xmlns:dc="http://purl.org/dc/elements/1.1/"
   xmlns:cc="http://creativecommons.org/ns#"
   xmlns:rdf="http://www.w3.org/1999/02/22-rdf-syntax-ns#"
   xmlns:svg="http://www.w3.org/2000/svg"
   xmlns="http://www.w3.org/2000/svg"
   id="svg6"
   version="1.1"
   width="24"
   height="24">
  <metadata
     id="metadata12">
    <rdf:RDF>
      <cc:Work
         rdf:about="">
        <dc:format>image/svg+xml</dc:format>
        <dc:type
           rdf:resource="http://purl.org/dc/dcmitype/StillImage" />
        <dc:title></dc:title>
      </cc:Work>
    </rdf:RDF>
  </metadata>
  <defs
     id="defs10" />
  <path
     d="m 4,12 c 0,0.554 0.446,1 1,1 h 5 v 8 c 0,0.554 0.446,1 1,1 h 2 c 0.554,0 1,-0.446 1,-1 v -8 h 5 c 0.554,0 1,-0.446 1,-1 0,-0.298584 -0.129746,-0.565122 -0.335938,-0.748047 L 12.685547,4.273438 C 12.506452,4.104354 12.26574,4 12,4 11.73426,4 11.493548,4.104355 11.314453,4.273438 L 4.335938,11.251953 C 4.129747,11.434878 4,11.701416 4,12 Z m 8,-8 h 7 c 0.554,0 1,-0.446 1,-1 V 2 C 20,1.446 19.554,1 19,1 H 5 C 4.446,1 4,1.446 4,2 v 1 c 0,0.554 0.446,1 1,1 z"
     style="opacity:1;fill:#555761;stroke:none;stroke-width:4;stroke-linecap:round;stroke-linejoin:round;stop-color:#000000"
     id="path873-5" />
</svg>
