<?xml version="1.0" encoding="UTF-8" standalone="no"?>
<svg
   xmlns:dc="http://purl.org/dc/elements/1.1/"
   xmlns:cc="http://creativecommons.org/ns#"
   xmlns:rdf="http://www.w3.org/1999/02/22-rdf-syntax-ns#"
   xmlns:svg="http://www.w3.org/2000/svg"
   xmlns="http://www.w3.org/2000/svg"
   id="svg6"
   version="1.1"
   width="24"
   height="24">
  <metadata
     id="metadata12">
    <rdf:RDF>
      <cc:Work
         rdf:about="">
        <dc:format>image/svg+xml</dc:format>
        <dc:type
           rdf:resource="http://purl.org/dc/dcmitype/StillImage" />
        <dc:title></dc:title>
      </cc:Work>
    </rdf:RDF>
  </metadata>
  <defs
     id="defs10" />
  <path
     d="m 19,11 c 0,0.554 -0.466399,1 -1,1 h -4 v 8 c 0,0.554 -0.446,1 -1,1 H 10 C 9.446,21 9,20.554 9,20 V 12 H 5 C 4.446,12 4,11.554 4,11 4,10.701416 4.129746,10.434878 4.335938,10.251953 L 10.814453,3.273438 C 10.993548,3.104354 11.23426,3 11.5,3 c 0.26574,0 0.506452,0.104355 0.685547,0.273438 l 6.478515,6.978515 C 18.870253,10.434878 19,10.701416 19,11 Z M 11.5,3 H 5 C 4.446,3 4,2.554 4,2 V 1 C 4,0.446 4.446,0 5,0 h 13 c 0.554,0 1,0.446 1,1 v 1 c 0,0.554 -0.446,1 -1,1 z"
     style="opacity:1;fill:#555761;stroke:none;stroke-width:4;stroke-linecap:round;stroke-linejoin:round;stop-color:#000000"
     id="path873-5-3" />
</svg>
