<svg xmlns="http://www.w3.org/2000/svg" xmlns:xlink="http://www.w3.org/1999/xlink" viewBox="0 0 24 24"><defs><linearGradient x1="25.525" y1="35.429" x2="25.525" y2="15.738" id="u" xlink:href="#a" gradientUnits="userSpaceOnUse" gradientTransform="matrix(.42308 0 0 .39245 3.846 12.353)" spreadMethod="reflect"/><linearGradient id="a"><stop offset="0" stop-color="#969696"/><stop offset=".5" stop-color="#858585" stop-opacity=".635"/><stop offset="1" stop-color="#939393" stop-opacity="0"/></linearGradient><linearGradient x1="24" y1="6.676" x2="24" y2="41.185" id="t" xlink:href="#b" gradientUnits="userSpaceOnUse" gradientTransform="matrix(.45946 0 0 .2973 2.973 16.865)"/><linearGradient id="b"><stop offset="0" stop-color="#fff"/><stop offset=".019" stop-color="#fff" stop-opacity=".235"/><stop offset=".981" stop-color="#fff" stop-opacity=".157"/><stop offset="1" stop-color="#fff" stop-opacity=".392"/></linearGradient><linearGradient x1="16.626" y1="15.298" x2="20.055" y2="24.628" id="s" xlink:href="#c" gradientUnits="userSpaceOnUse" gradientTransform="matrix(.39078 0 0 .43374 4.603 15.522)"/><linearGradient id="c"><stop offset="0" stop-color="#fff"/><stop offset="1" stop-color="#fff" stop-opacity="0"/></linearGradient><linearGradient x1="25.525" y1="30.189" x2="25.525" y2="15.738" id="r" xlink:href="#d" gradientUnits="userSpaceOnUse" gradientTransform="matrix(.42308 0 0 .39245 3.846 11.014)" spreadMethod="reflect"/><linearGradient id="d"><stop offset="0" stop-color="#fff"/><stop offset="1" stop-color="#fff" stop-opacity="0"/></linearGradient><linearGradient x1="23.904" y1="35.75" x2="23.904" y2="20.443" id="q" xlink:href="#e" gradientUnits="userSpaceOnUse" gradientTransform="matrix(.42224 0 0 .41882 3.907 12.453)"/><linearGradient id="e"><stop offset="0"/><stop offset=".5" stop-opacity=".498"/><stop offset="1" stop-opacity="0"/></linearGradient><linearGradient x1="25.525" y1="30.189" x2="25.525" y2="15.738" id="p" xlink:href="#f" gradientUnits="userSpaceOnUse" gradientTransform="matrix(.42308 0 0 .39245 3.846 13.747)" spreadMethod="reflect"/><linearGradient id="f"><stop offset="0" stop-color="#fff"/><stop offset="1" stop-color="#fff" stop-opacity="0"/></linearGradient><linearGradient x1="25.525" y1="30.189" x2="25.525" y2="15.738" id="o" xlink:href="#g" gradientUnits="userSpaceOnUse" gradientTransform="matrix(.42308 0 0 .39245 3.846 12.353)" spreadMethod="reflect"/><linearGradient id="g"><stop offset="0" stop-color="#a0a0a0"/><stop offset=".5" stop-color="#8f8f8f" stop-opacity=".635"/><stop offset="1" stop-color="#9d9d9d" stop-opacity="0"/></linearGradient><linearGradient x1="20.053" y1="10.637" x2="20.053" y2="45.244" id="n" xlink:href="#h" gradientUnits="userSpaceOnUse" gradientTransform="matrix(.4 0 0 .36364 4.4 13.818)"/><linearGradient id="h"><stop offset="0" stop-color="#f4f4f4"/><stop offset="1" stop-color="#dbdbdb"/></linearGradient><linearGradient x1="302.857" y1="366.648" x2="302.857" y2="609.505" id="k" xlink:href="#i" gradientUnits="userSpaceOnUse" gradientTransform="matrix(2.7744 0 0 1.9697 -1892.18 -872.885)"/><linearGradient id="i"><stop offset="0" stop-opacity="0"/><stop offset=".5"/><stop offset="1" stop-opacity="0"/></linearGradient><radialGradient cx="605.714" cy="486.648" r="117.143" fx="605.714" fy="486.648" id="l" xlink:href="#j" gradientUnits="userSpaceOnUse" gradientTransform="matrix(2.7744 0 0 1.9697 -1891.633 -872.885)"/><linearGradient id="j"><stop offset="0"/><stop offset="1" stop-opacity="0"/></linearGradient><radialGradient cx="605.714" cy="486.648" r="117.143" fx="605.714" fy="486.648" id="m" xlink:href="#j" gradientUnits="userSpaceOnUse" gradientTransform="matrix(-2.7744 0 0 1.9697 112.762 -872.885)"/></defs><g transform="translate(0 -8)"><rect width="19" height="13" rx=".81" ry=".798" x=".5" y="10.471" opacity=".4" fill="none" stroke="#000" stroke-opacity=".992" stroke-dasharray="3,1"/><g opacity=".7"><path opacity=".392" fill="url(#k)" overflow="visible" d="M-1559.252-150.697H-219.62V327.66h-1339.63z" transform="matrix(.01045 0 0 .00544 22.295 30.218)"/><path d="M-219.62-150.68v478.33c142.875.9 345.4-107.17 345.4-239.196S-33.654-150.68-219.62-150.68z" opacity=".402" fill="url(#l)" overflow="visible" transform="matrix(.01045 0 0 .00544 22.295 30.218)"/><path d="M-1559.252-150.68v478.33c-142.875.9-345.4-107.17-345.4-239.196s159.436-239.134 345.4-239.134z" opacity=".402" fill="url(#m)" overflow="visible" transform="matrix(.01045 0 0 .00544 22.295 30.218)"/></g><rect width="18" height="12" rx=".5" ry=".5" x="5" y="18" fill="url(#n)" fill-rule="evenodd" overflow="visible"/><path d="M11.74 24.323l-5.702 5.35zm4.534.024l5.74 5.227z" fill="none" stroke="url(#o)" overflow="visible"/><path d="M11.74 25.717l-3.855 3.666zm4.534.024l3.924 3.56z" opacity=".7" fill="none" stroke="url(#p)" overflow="visible"/><path d="M7.426 21.42l6.615 5.495 6.535-5.495" opacity=".06" fill="none" stroke="url(#q)"/><path d="M6.42 18.557L14 24.75l7.464-6.2" opacity=".7" fill="none" stroke="url(#r)" overflow="visible"/><path d="M5.615 18c-.322 0-.615.194-.615.49L5.006 26c.518-.008 17.6-2.95 17.994-3.09v-4.324c0-.226-.27-.586-.55-.586z" opacity=".2" fill="url(#s)" fill-rule="evenodd"/><path fill="none" stroke="url(#t)" stroke-linecap="round" stroke-linejoin="round" d="M5.5 18.5h17v11h-17z"/><rect width="19" height="13" rx="1" ry="1" x="4.5" y="17.5" opacity=".3" fill="none" stroke="#000" overflow="visible"/><path d="M5.216 18.775L14 26.09l8.917-7.365" fill="none" stroke="url(#u)" overflow="visible"/></g></svg>