<?xml version="1.0" encoding="UTF-8" standalone="no"?>
<svg
   xmlns:dc="http://purl.org/dc/elements/1.1/"
   xmlns:cc="http://creativecommons.org/ns#"
   xmlns:rdf="http://www.w3.org/1999/02/22-rdf-syntax-ns#"
   xmlns:svg="http://www.w3.org/2000/svg"
   xmlns="http://www.w3.org/2000/svg"
   xmlns:xlink="http://www.w3.org/1999/xlink"
   version="1.1"
   id="SVGRoot"
   viewBox="0 0 24 24"
   height="24"
   width="24">
  <defs
     id="defs8497">
    <linearGradient
       id="linearGradient13007">
      <stop
         id="stop13009"
         offset="0"
         style="stop-color:#ffffff;stop-opacity:1;" />
      <stop
         style="stop-color:#ffffff;stop-opacity:0.24074075"
         offset="0.11062785"
         id="stop13015" />
      <stop
         id="stop13017"
         offset="1"
         style="stop-color:#ffffff;stop-opacity:0.125" />
    </linearGradient>
    <linearGradient
       id="linearGradient12997">
      <stop
         id="stop12999"
         offset="0"
         style="stop-color:#da8a0a;stop-opacity:1;" />
      <stop
         id="stop13001"
         offset="1"
         style="stop-color:#f1c17d;stop-opacity:1" />
    </linearGradient>
    <linearGradient
       gradientTransform="translate(2,-2)"
       gradientUnits="userSpaceOnUse"
       y2="2"
       x2="10"
       y1="13"
       x1="10"
       id="linearGradient13003"
       xlink:href="#linearGradient12997" />
    <linearGradient
       gradientTransform="matrix(1,0,0,-0.77777778,2,15)"
       gradientUnits="userSpaceOnUse"
       y2="12.2"
       x2="8"
       y1="5"
       x1="8"
       id="linearGradient13013"
       xlink:href="#linearGradient13007" />
    <linearGradient
       gradientTransform="translate(2,-2)"
       gradientUnits="userSpaceOnUse"
       y2="-2"
       x2="8"
       y1="2"
       x1="8"
       id="linearGradient13078"
       xlink:href="#linearGradient12997" />
  </defs>
  <metadata
     id="metadata8500">
    <rdf:RDF>
      <cc:Work
         rdf:about="">
        <dc:format>image/svg+xml</dc:format>
        <dc:type
           rdf:resource="http://purl.org/dc/dcmitype/StillImage" />
        <dc:title></dc:title>
      </cc:Work>
    </rdf:RDF>
  </metadata>
  <g
     transform="translate(0,8)"
     id="layer1">
    <path
       style="opacity:0.05;fill:#000000;fill-opacity:1;stroke:none;stroke-width:1;stroke-linecap:round;stroke-linejoin:round;stroke-miterlimit:4;stroke-dasharray:none;stroke-dashoffset:0;stroke-opacity:0.77647059;marker:none"
       d="m 3.5,12 17,0 c 0.831,0 1.5,0.669 1.5,1.5 0,0.831 -0.669,1.5 -1.5,1.5 l -17,0 C 2.669,15 2,14.331 2,13.5 2,12.669 2.669,12 3.5,12 Z"
       id="path13101" />
    <path
       id="rect12988"
       d="m 3.5,-2.5 17,0 0,15 -17,0 z"
       style="opacity:1;fill:url(#linearGradient13003);fill-opacity:1;stroke:#744d0d;stroke-width:1;stroke-linecap:round;stroke-linejoin:round;stroke-miterlimit:4;stroke-dasharray:none;stroke-dashoffset:0;stroke-opacity:0.77777782;marker:none" />
    <path
       id="rect12990"
       d="m 9,2 6,0 c 0.554,0 1,0.446 1,1 0,0.554 -0.446,1 -1,1 L 9,4 C 8.446,4 8,3.554 8,3 8,2.446 8.446,2 9,2 Z"
       style="opacity:0.5;fill:#000000;fill-opacity:1;stroke:none;stroke-width:1;stroke-linecap:round;stroke-linejoin:round;stroke-miterlimit:4;stroke-dasharray:none;stroke-dashoffset:0;stroke-opacity:0.77777782;marker:none" />
    <path
       id="rect13005"
       d="m 4.5,11.5 15,0 0,-10 -15,0 z"
       style="opacity:0.4;fill:none;fill-opacity:1;stroke:url(#linearGradient13013);stroke-width:0.99999994;stroke-linecap:round;stroke-linejoin:miter;stroke-miterlimit:4;stroke-dasharray:none;stroke-dashoffset:0;stroke-opacity:0.77777782;marker:none" />
    <path
       id="path13046"
       d="m 2.5,-3 0,3.5 19,0 0,-3.5 -1.5,-1.5 -16,0 z"
       style="fill:url(#linearGradient13078);fill-opacity:1;fill-rule:evenodd;stroke:#744d0d;stroke-width:1px;stroke-linecap:butt;stroke-linejoin:round;stroke-opacity:0.77647059" />
    <path
       id="rect13086"
       d="m 8.5,4 7,0 C 15.777,4 16,4.223 16,4.5 16,4.777 15.777,5 15.5,5 l -7,0 C 8.223,5 8,4.777 8,4.5 8,4.223 8.223,4 8.5,4 Z"
       style="opacity:0.2;fill:#ffffff;fill-opacity:1;stroke:none;stroke-width:1;stroke-linecap:round;stroke-linejoin:round;stroke-miterlimit:4;stroke-dasharray:none;stroke-dashoffset:0;stroke-opacity:0.77647059;marker:none" />
    <path
       id="rect13088"
       d="m 3.5,-3 17,0 c 0.277,0 0.5,0.223 0.5,0.5 0,0.277 -0.223,0.5 -0.5,0.5 l -17,0 C 3.223,-2 3,-2.223 3,-2.5 3,-2.777 3.223,-3 3.5,-3 Z"
       style="opacity:0.4;fill:#ffffff;fill-opacity:1;stroke:none;stroke-width:1;stroke-linecap:round;stroke-linejoin:round;stroke-miterlimit:4;stroke-dasharray:none;stroke-dashoffset:0;stroke-opacity:0.77647059;marker:none" />
    <path
       id="rect13090"
       d="M 4,1 20,1 20,2 4,2 Z"
       style="opacity:0.1;fill:#000000;fill-opacity:1;stroke:none;stroke-width:1;stroke-linecap:round;stroke-linejoin:round;stroke-miterlimit:4;stroke-dasharray:none;stroke-dashoffset:0;stroke-opacity:0.77647059;marker:none" />
    <path
       id="rect13092"
       d="m 3.5,13 17,0 c 0.277,0 0.5,0.223 0.5,0.5 0,0.277 -0.223,0.5 -0.5,0.5 l -17,0 C 3.223,14 3,13.777 3,13.5 3,13.223 3.223,13 3.5,13 Z"
       style="opacity:0.2;fill:#000000;fill-opacity:1;stroke:none;stroke-width:1;stroke-linecap:round;stroke-linejoin:round;stroke-miterlimit:4;stroke-dasharray:none;stroke-dashoffset:0;stroke-opacity:0.77647059;marker:none" />
  </g>
</svg>
