<?xml version="1.0" encoding="UTF-8" standalone="no"?>
<svg
   xmlns:dc="http://purl.org/dc/elements/1.1/"
   xmlns:cc="http://creativecommons.org/ns#"
   xmlns:rdf="http://www.w3.org/1999/02/22-rdf-syntax-ns#"
   xmlns:svg="http://www.w3.org/2000/svg"
   xmlns="http://www.w3.org/2000/svg"
   height="24"
   width="24"
   version="1.1"
   id="svg6">
  <metadata
     id="metadata12">
    <rdf:RDF>
      <cc:Work
         rdf:about="">
        <dc:format>image/svg+xml</dc:format>
        <dc:type
           rdf:resource="http://purl.org/dc/dcmitype/StillImage" />
        <dc:title></dc:title>
      </cc:Work>
    </rdf:RDF>
  </metadata>
  <defs
     id="defs10" />
  <path
     id="path980-3"
     style="font-variation-settings:normal;opacity:1;vector-effect:none;fill:#555761;fill-opacity:1;stroke:none;stroke-width:4;stroke-linecap:round;stroke-linejoin:round;stroke-miterlimit:4;stroke-dasharray:none;stroke-dashoffset:0;stroke-opacity:1;stop-color:#000000;stop-opacity:1"
     d="m 22,6 c 0.552285,0 1,0.4477153 1,1 v 10 c 0,0.552285 -0.447715,1 -1,1 -0.16845,0 -0.319727,-0.05144 -0.458984,-0.125 L 13,13.128906 V 17 c 0,0.552285 -0.447715,1 -1,1 -0.16845,0 -0.319727,-0.05144 -0.458984,-0.125 L 2.544922,12.876953 C 2.225497,12.71 2,12.385392 2,12 2,11.614608 2.225497,11.29 2.544922,11.123047 L 11.541016,6.125 C 11.680273,6.0514361 11.83155,6 12,6 c 0.552285,0 1,0.4477153 1,1 v 3.871094 L 21.541016,6.125 C 21.680273,6.0514361 21.83155,6 22,6 Z" />
</svg>
