<?xml version="1.0" encoding="UTF-8" standalone="no"?>
<svg
   xmlns:dc="http://purl.org/dc/elements/1.1/"
   xmlns:cc="http://creativecommons.org/ns#"
   xmlns:rdf="http://www.w3.org/1999/02/22-rdf-syntax-ns#"
   xmlns:svg="http://www.w3.org/2000/svg"
   xmlns="http://www.w3.org/2000/svg"
   id="svg6"
   version="1.1"
   width="24"
   height="24">
  <metadata
     id="metadata12">
    <rdf:RDF>
      <cc:Work
         rdf:about="">
        <dc:format>image/svg+xml</dc:format>
        <dc:type
           rdf:resource="http://purl.org/dc/dcmitype/StillImage" />
        <dc:title></dc:title>
      </cc:Work>
    </rdf:RDF>
  </metadata>
  <defs
     id="defs10" />
  <path
     d="M 2 6 C 1.4477153 6 1 6.4477153 1 7 L 1 17 C 1 17.552285 1.4477153 18 2 18 C 2.1684498 18 2.3197269 17.94856 2.4589844 17.875 L 11 13.128906 L 11 17 C 11 17.552285 11.447715 18 12 18 C 12.16845 18 12.319727 17.94856 12.458984 17.875 L 21.455078 12.876953 C 21.774503 12.71 22 12.385392 22 12 C 22 11.614608 21.774503 11.29 21.455078 11.123047 L 12.458984 6.125 C 12.319727 6.0514361 12.16845 6 12 6 C 11.447715 6 11 6.4477153 11 7 L 11 10.871094 L 2.4589844 6.125 C 2.3197269 6.0514361 2.1684498 6 2 6 z "
     style="font-variation-settings:normal;opacity:1;vector-effect:none;fill:#555761;fill-opacity:1;stroke:none;stroke-width:4;stroke-linecap:round;stroke-linejoin:round;stroke-miterlimit:4;stroke-dasharray:none;stroke-dashoffset:0;stroke-opacity:1;stop-color:#000000;stop-opacity:1"
     id="path980-3" />
</svg>
