<?xml version="1.0" encoding="UTF-8" standalone="no"?>
<!-- Created with Inkscape (http://www.inkscape.org/) -->

<svg
   xmlns:dc="http://purl.org/dc/elements/1.1/"
   xmlns:cc="http://creativecommons.org/ns#"
   xmlns:rdf="http://www.w3.org/1999/02/22-rdf-syntax-ns#"
   xmlns:svg="http://www.w3.org/2000/svg"
   xmlns="http://www.w3.org/2000/svg"
   xmlns:xlink="http://www.w3.org/1999/xlink"
   xmlns:sodipodi="http://sodipodi.sourceforge.net/DTD/sodipodi-0.dtd"
   xmlns:inkscape="http://www.inkscape.org/namespaces/inkscape"
   width="24"
   height="24"
   id="svg3791"
   version="1.1"
   inkscape:version="0.48.3.1 r9886"
   sodipodi:docname="media-playback-pause.svg">
  <defs
     id="defs3793">
    <radialGradient
       inkscape:collect="always"
       xlink:href="#linearGradient5060"
       id="radialGradient5061"
       gradientUnits="userSpaceOnUse"
       gradientTransform="matrix(0.02409718,0,0,0.02058823,6.4775835,19.451366)"
       cx="605.71429"
       cy="486.64789"
       fx="605.71429"
       fy="486.64789"
       r="117.14286" />
    <linearGradient
       id="linearGradient5060"
       inkscape:collect="always">
      <stop
         id="stop5062"
         offset="0"
         style="stop-color:black;stop-opacity:1;" />
      <stop
         id="stop5064"
         offset="1"
         style="stop-color:black;stop-opacity:0;" />
    </linearGradient>
    <linearGradient
       inkscape:collect="always"
       xlink:href="#linearGradient5048"
       id="linearGradient5064"
       gradientUnits="userSpaceOnUse"
       gradientTransform="matrix(0.03727811,0,0,0.02058823,-25.473376,19.451366)"
       x1="302.85715"
       y1="366.64789"
       x2="302.85715"
       y2="609.50507" />
    <linearGradient
       id="linearGradient5048">
      <stop
         id="stop5050"
         offset="0"
         style="stop-color:black;stop-opacity:0;" />
      <stop
         style="stop-color:#404040;stop-opacity:1;"
         offset="0.5"
         id="stop5056" />
      <stop
         id="stop5052"
         offset="1"
         style="stop-color:black;stop-opacity:0;" />
    </linearGradient>
    <radialGradient
       r="117.14286"
       fy="486.64789"
       fx="605.71429"
       cy="486.64789"
       cx="605.71429"
       gradientTransform="matrix(-0.02409719,0,0,0.02058823,17.52242,19.451366)"
       gradientUnits="userSpaceOnUse"
       id="radialGradient3789"
       xlink:href="#linearGradient5060"
       inkscape:collect="always" />
    <radialGradient
       inkscape:collect="always"
       xlink:href="#linearGradient2867-449-88-871-390-598-476-591-434-148-57-177-641-289-620-227-114-444-680-744-4"
       id="radialGradient4169"
       gradientUnits="userSpaceOnUse"
       gradientTransform="matrix(1.0722372,0,0,1.089169,-10.923221,29.700035)"
       cx="21.385109"
       cy="-5.9812155"
       fx="21.385109"
       fy="-5.9812155"
       r="19.99999" />
    <linearGradient
       id="linearGradient2867-449-88-871-390-598-476-591-434-148-57-177-641-289-620-227-114-444-680-744-4">
      <stop
         id="stop5430-5"
         style="stop-color:#5f5f5f;stop-opacity:1;"
         offset="0" />
      <stop
         id="stop5432-2"
         style="stop-color:#4f4f4f;stop-opacity:1;"
         offset="0.26238" />
      <stop
         id="stop5434-9"
         style="stop-color:#3b3b3b;stop-opacity:1;"
         offset="0.704952" />
      <stop
         id="stop5436-2"
         style="stop-color:#2b2b2b;stop-opacity:1;"
         offset="1" />
    </linearGradient>
    <radialGradient
       inkscape:collect="always"
       xlink:href="#linearGradient2867-449-88-871-390-598-476-591-434-148-57-177-641-289-620-227-114-444-680-744-4"
       id="radialGradient3008"
       gradientUnits="userSpaceOnUse"
       gradientTransform="matrix(1.0722372,0,0,1.089169,-10.923221,21.700035)"
       cx="21.385109"
       cy="-5.9812155"
       fx="21.385109"
       fy="-5.9812155"
       r="19.99999" />
  </defs>
  <sodipodi:namedview
     id="base"
     pagecolor="#ffffff"
     bordercolor="#666666"
     borderopacity="1.0"
     inkscape:pageopacity="0.0"
     inkscape:pageshadow="2"
     inkscape:zoom="23.25"
     inkscape:cx="5.3548387"
     inkscape:cy="12"
     inkscape:current-layer="layer1"
     showgrid="true"
     inkscape:grid-bbox="true"
     inkscape:document-units="px"
     inkscape:window-width="1280"
     inkscape:window-height="752"
     inkscape:window-x="0"
     inkscape:window-y="26"
     inkscape:window-maximized="1"
     showguides="true"
     inkscape:guide-bbox="true">
    <inkscape:grid
       type="xygrid"
       id="grid3799" />
  </sodipodi:namedview>
  <metadata
     id="metadata3796">
    <rdf:RDF>
      <cc:Work
         rdf:about="">
        <dc:format>image/svg+xml</dc:format>
        <dc:type
           rdf:resource="http://purl.org/dc/dcmitype/StillImage" />
        <dc:title />
      </cc:Work>
    </rdf:RDF>
  </metadata>
  <g
     id="layer1"
     inkscape:label="Layer 1"
     inkscape:groupmode="layer"
     transform="translate(0,-8)">
    <path
       style="opacity:0.4;color:#000000;fill:#ffffff;fill-opacity:1;fill-rule:nonzero;stroke:none;stroke-width:1;marker:none;visibility:visible;display:inline;overflow:visible;enable-background:accumulate"
       d="M 2.375,2 C 2.1548654,2.0518394 1.9881281,2.2741557 2,2.5 l 0,20 c -0.00691,0.263625 0.2363747,0.506913 0.5,0.5 l 7,0 c 0.2636253,0.0069 0.506913,-0.236375 0.5,-0.5 l 0,-20 C 10.006913,2.2363747 9.7636253,1.9930873 9.5,2 l -7,0 c -0.020805,-0.00134 -0.041695,-0.00134 -0.0625,0 -0.020805,-0.00134 -0.041695,-0.00134 -0.0625,0 z m 12,0 C 14.154865,2.0518394 13.988128,2.2741557 14,2.5 l 0,20 c -0.0069,0.263625 0.236375,0.506913 0.5,0.5 l 7,0 c 0.263625,0.0069 0.506913,-0.236375 0.5,-0.5 l 0,-20 C 22.006913,2.2363747 21.763625,1.9930873 21.5,2 l -7,0 c -0.0208,-0.00134 -0.0417,-0.00134 -0.0625,0 -0.0208,-0.00134 -0.0417,-0.00134 -0.0625,0 z"
       transform="translate(0,8)"
       id="path3797-4"
       inkscape:connector-curvature="0"
       sodipodi:nodetypes="cccccccccccccccccccccc" />
    <path
       style="color:#000000;fill:url(#radialGradient3008);fill-opacity:1;fill-rule:nonzero;stroke:none;stroke-width:1;marker:none;visibility:visible;display:inline;overflow:visible;enable-background:accumulate"
       d="M 2.375,1 C 2.1548654,1.0518394 1.9881281,1.2741557 2,1.5 l 0,20 c -0.00691,0.263625 0.2363747,0.506913 0.5,0.5 l 7,0 c 0.2636253,0.0069 0.506913,-0.236375 0.5,-0.5 l 0,-20 C 10.006913,1.2363747 9.7636253,0.99308728 9.5,1 l -7,0 c -0.020805,-0.001337 -0.041695,-0.001337 -0.0625,0 -0.020805,-0.001337 -0.041695,-0.001337 -0.0625,0 z m 12,0 C 14.154865,1.0518394 13.988128,1.2741557 14,1.5 l 0,20 c -0.0069,0.263625 0.236375,0.506913 0.5,0.5 l 7,0 c 0.263625,0.0069 0.506913,-0.236375 0.5,-0.5 l 0,-20 C 22.006913,1.2363747 21.763625,0.99308728 21.5,1 l -7,0 c -0.0208,-0.001337 -0.0417,-0.001337 -0.0625,0 -0.0208,-0.001337 -0.0417,-0.001337 -0.0625,0 z"
       transform="translate(0,8)"
       id="path3797"
       inkscape:connector-curvature="0"
       sodipodi:nodetypes="cccccccccccccccccccccc" />
    <path
       id="path2645"
       style="opacity:0.1;color:#000000;fill:none;stroke:#000000;stroke-width:1.00365424;stroke-linecap:round;stroke-linejoin:round;stroke-miterlimit:4;stroke-opacity:1;stroke-dasharray:none;stroke-dashoffset:0;marker:none;visibility:visible;display:inline;overflow:visible;enable-background:accumulate"
       d="m 2.5012942,9.5016361 0,19.9974119 6.9987058,0 0,-19.9974119 z m 11.9987058,0 0,19.9974119 6.998705,0 0,-19.9974119 z"
       inkscape:connector-curvature="0"
       sodipodi:nodetypes="cccccccccc" />
    <path
       id="path2647"
       style="opacity:0.02999998;fill:none;stroke:#000000;stroke-width:0.99427688;stroke-linecap:round;stroke-linejoin:miter;stroke-miterlimit:4;stroke-opacity:1;stroke-dasharray:none;stroke-dashoffset:0;marker:none;visibility:visible;display:inline;overflow:visible"
       d="m 15.5,10.497139 0,18.005723 5.002861,-0.02133 0,-17.984392 z m -12.0028615,-1e-6 0,18.005724 L 8.5,28.481532 8.5,10.497141 z"
       inkscape:connector-curvature="0"
       sodipodi:nodetypes="cccccccccc" />
  </g>
</svg>
