<svg xmlns="http://www.w3.org/2000/svg" xmlns:xlink="http://www.w3.org/1999/xlink" viewBox="0 0 24 24"><defs><linearGradient id="a"><stop offset="0" stop-color="#555"/><stop offset="1" stop-color="#666"/></linearGradient><linearGradient xlink:href="#a" id="b" gradientUnits="userSpaceOnUse" x1="8" y1="19.5" x2="8" y2="-2.5" gradientTransform="translate(4 -4)"/></defs><g color="#bebebe"><path d="M12-4.906l-.406.625-4 6-.532.78H10.5V5s-.01.883-.53 1.75c-.268.445-.628.898-1.22 1.22-.598.323-1.45.53-2.75.53H3.5v3H6c3.025 0 4.877-1.305 5.97-2.72h.06c1.093 1.415 2.945 2.72 5.97 2.72h2.5v-3H18c-1.3 0-2.152-.207-2.75-.53h-.03c-.58-.322-.925-.78-1.19-1.22C13.51 5.883 13.5 5 13.5 5V2.5h3.438l-.532-.78-4-6L12-4.907z" fill="url(#b)" overflow="visible" transform="translate(0 8)"/><path d="M12 3.094l-.406.625-4 6-.532.78H10.5V13s-.01.883-.53 1.75c-.268.445-.628.898-1.22 1.22-.598.323-1.45.53-2.75.53H3.5v3H6c3.025 0 4.877-1.305 5.97-2.72h.06c1.093 1.415 2.945 2.72 5.97 2.72h2.5v-3H18c-1.3 0-2.152-.207-2.75-.53h-.03c-.58-.322-.925-.78-1.19-1.22-.52-.867-.53-1.75-.53-1.75v-2.5h3.438l-.532-.78-4-6L12 3.093z" opacity=".61" fill="none" stroke="#000" overflow="visible"/><path d="M12 4l-4 6h.656L12 5l3.344 5H16l-4-6zm-1 9s.002 1.007-.594 2c-.292.486-.715 1.032-1.406 1.406-.694.377-1.646.594-3 .594H4v1h2c1.354 0 2.306-.217 3-.594.69-.374 1.114-.92 1.406-1.406.596-.993.594-2 .594-2v-1zm2 0v1s-.002 1.007.594 2c.283.473.693 1.03 1.375 1.406H15l.094.063h.155c.673.316 1.51.53 2.75.53h2v-1h-2c-1.24 0-2.077-.214-2.75-.53h-.158L15 16.403h-.03c-.683-.377-1.093-.933-1.376-1.406-.596-.994-.594-2-.594-2z" opacity=".3" fill="#fff" overflow="visible"/></g></svg>