<?xml version="1.0" encoding="UTF-8" standalone="no"?>
<svg
   version="1.0"
   width="24"
   height="24"
   id="svg3349"
   sodipodi:docname="object-rotate-left.svg"
   inkscape:version="1.2.2 (b0a8486541, 2022-12-01)"
   xmlns:inkscape="http://www.inkscape.org/namespaces/inkscape"
   xmlns:sodipodi="http://sodipodi.sourceforge.net/DTD/sodipodi-0.dtd"
   xmlns:xlink="http://www.w3.org/1999/xlink"
   xmlns="http://www.w3.org/2000/svg"
   xmlns:svg="http://www.w3.org/2000/svg"
   xmlns:rdf="http://www.w3.org/1999/02/22-rdf-syntax-ns#"
   xmlns:cc="http://creativecommons.org/ns#"
   xmlns:dc="http://purl.org/dc/elements/1.1/">
  <sodipodi:namedview
     id="namedview22287"
     pagecolor="#ffffff"
     bordercolor="#000000"
     borderopacity="0.25"
     inkscape:showpageshadow="2"
     inkscape:pageopacity="0.0"
     inkscape:pagecheckerboard="0"
     inkscape:deskcolor="#d1d1d1"
     showgrid="false"
     inkscape:zoom="16"
     inkscape:cx="21"
     inkscape:cy="7.1875"
     inkscape:window-width="1278"
     inkscape:window-height="1005"
     inkscape:window-x="585"
     inkscape:window-y="23"
     inkscape:window-maximized="0"
     inkscape:current-layer="svg3349" />
  <metadata
     id="metadata49">
    <rdf:RDF>
      <cc:Work
         rdf:about="">
        <dc:format>image/svg+xml</dc:format>
        <dc:type
           rdf:resource="http://purl.org/dc/dcmitype/StillImage" />
      </cc:Work>
    </rdf:RDF>
  </metadata>
  <defs
     id="defs3351">
    <linearGradient
       id="linearGradient4431">
      <stop
         offset="0"
         style="stop-color:#a777d8;stop-opacity:1;"
         id="stop4433" />
      <stop
         offset="1"
         style="stop-color:#b483d5;stop-opacity:0"
         id="stop4435" />
    </linearGradient>
    <linearGradient
       id="linearGradient4425">
      <stop
         offset="0"
         style="stop-color:#452981;stop-opacity:1;"
         id="stop4427" />
      <stop
         offset="1"
         style="stop-color:#452981;stop-opacity:0;"
         id="stop4429" />
    </linearGradient>
    <radialGradient
       cx="62.625"
       cy="4.625"
       r="10.625"
       fx="62.625"
       fy="4.625"
       id="radialGradient3400-552"
       xlink:href="#linearGradient8838-634"
       gradientUnits="userSpaceOnUse"
       gradientTransform="matrix(-1.0352941,0,0,0.23529379,76.835293,20.412004)" />
    <linearGradient
       id="linearGradient8838-634">
      <stop
         id="stop2746"
         style="stop-color:#000000;stop-opacity:1"
         offset="0" />
      <stop
         id="stop2748"
         style="stop-color:#000000;stop-opacity:0"
         offset="1" />
    </linearGradient>
    <linearGradient
       x1="31.226292"
       y1="34.600941"
       x2="34.96563"
       y2="26.842505"
       id="linearGradient3404-708"
       xlink:href="#linearGradient4431"
       gradientUnits="userSpaceOnUse"
       gradientTransform="matrix(-0.5097808,0.03067969,0.03009813,0.5001183,22.774787,0.50857811)" />
    <linearGradient
       x1="32.325527"
       y1="5.0201149"
       x2="22.245434"
       y2="43.366352"
       id="linearGradient3408-109"
       xlink:href="#linearGradient4873-523"
       gradientUnits="userSpaceOnUse"
       gradientTransform="matrix(-0.3446423,-0.3446422,-0.3381098,0.3381098,27.882591,14.323795)" />
    <linearGradient
       id="linearGradient4873-523">
      <stop
         id="stop2770"
         style="stop-color:#ffffff;stop-opacity:1"
         offset="0" />
      <stop
         id="stop2772"
         style="stop-color:#ffffff;stop-opacity:0"
         offset="1" />
    </linearGradient>
    <linearGradient
       x1="28.116938"
       y1="41.67448"
       x2="39.686337"
       y2="28.50532"
       id="linearGradient3410-460"
       xlink:href="#linearGradient3319-458"
       gradientUnits="userSpaceOnUse"
       gradientTransform="matrix(-0.4865175,0.02927958,0.02872474,0.4772959,22.716115,1.9650122)" />
    <linearGradient
       id="linearGradient3319-458">
      <stop
         id="stop2776"
         style="stop-color:#ffffff;stop-opacity:0"
         offset="0" />
      <stop
         id="stop2778"
         style="stop-color:#ffffff;stop-opacity:0.27472529"
         offset="0.63129705" />
      <stop
         id="stop2780"
         style="stop-color:#ffffff;stop-opacity:0"
         offset="1" />
    </linearGradient>
    <linearGradient
       id="linearGradient4330">
      <stop
         offset="0"
         style="stop-color:#f0c1ff;stop-opacity:1"
         id="stop4332" />
      <stop
         offset="0.26238"
         style="stop-color:#c5a3f2;stop-opacity:1"
         id="stop4334" />
      <stop
         offset="0.704952"
         style="stop-color:#7a36b1;stop-opacity:1"
         id="stop4336" />
      <stop
         offset="1"
         style="stop-color:#4c2d81;stop-opacity:1"
         id="stop4338" />
    </linearGradient>
    <linearGradient
       x1="33.686768"
       y1="35.773647"
       x2="37.039948"
       y2="29.856804"
       id="linearGradient3406-498-3"
       xlink:href="#linearGradient4425"
       gradientUnits="userSpaceOnUse"
       gradientTransform="matrix(-0.5097808,0.03067969,0.03009813,0.5001183,22.774787,0.50857801)" />
    <linearGradient
       xlink:href="#linearGradient4330"
       id="linearGradient4437"
       gradientUnits="userSpaceOnUse"
       gradientTransform="matrix(-0.3446423,-0.3446422,-0.3381098,0.3381098,27.882591,14.323795)"
       x1="39.401215"
       y1="-5.3019166"
       x2="-33.29887"
       y2="68.80278" />
  </defs>
  <path
     d="m 1.0000001,21.500238 a 11,2.5 0 0 0 21.9999999,0 11,2.5 0 1 0 -21.9999999,0 z"
     id="path8836"
     style="display:inline;overflow:visible;visibility:visible;opacity:0.4;fill:url(#radialGradient3400-552);fill-opacity:1;fill-rule:evenodd;stroke:none;stroke-width:1;marker:none" />
  <path
     id="path27519"
     style="fill:url(#linearGradient4437);fill-opacity:1;stroke:none;stroke-width:1;stroke-linecap:butt;stroke-linejoin:round;stroke-miterlimit:4;stroke-dasharray:none;stroke-opacity:1"
     d="M 11.009766 0.5 C 10.893359 0.49783544 10.77717 0.53677839 10.683594 0.61328125 L 5.1835938 5.1132812 C 4.9395475 5.3133396 4.9395475 5.6866604 5.1835938 5.8867188 L 10.683594 10.386719 C 11.009962 10.653333 11.499546 10.421426 11.5 10 L 11.5 7.5019531 C 12.693334 7.5348242 14.756186 8.6244966 15.623047 9.4648438 C 17.763987 11.540298 17.351345 15.679905 15.603516 17.427734 C 14.556454 18.474795 12.749998 18.869141 11 18.869141 L 11 23.496094 C 14.755095 23.496094 16.81338 22.59927 18.798828 20.568359 C 22.681254 16.597032 22.687024 10.176366 18.623047 6.1992188 C 16.625336 4.2441904 14.130095 3.3723567 11.5 3.3242188 L 11.5 1 C 11.499866 0.8072149 11.38892 0.63167653 11.214844 0.54882812 C 11.149351 0.51768403 11.07961 0.50129873 11.009766 0.5 z " />
  <path
     d="m 11.500394,23.502375 c -4.6924844,0 -9.8374597,-3.200586 -10.1911897,-9.21601 l 4.368847,0.575921 c 0.082343,2.032958 4.018779,4.096375 5.8223427,4.028561"
     id="path3453"
     style="color:#000000;clip-rule:nonzero;display:inline;overflow:visible;visibility:visible;opacity:1;isolation:auto;mix-blend-mode:normal;color-interpolation:sRGB;color-interpolation-filters:linearRGB;solid-color:#000000;solid-opacity:1;fill:url(#linearGradient3404-708);fill-opacity:1;fill-rule:nonzero;stroke:none;stroke-width:1;stroke-linecap:butt;stroke-linejoin:miter;stroke-miterlimit:4;stroke-dasharray:none;stroke-dashoffset:0;stroke-opacity:1;color-rendering:auto;image-rendering:auto;shape-rendering:auto;text-rendering:auto;enable-background:accumulate"
     sodipodi:nodetypes="cccc" />
  <path
     d="m 10.250394,13.874999 a 1.25,1.25 0 0 0 2.5,0 1.25,1.25 0 1 0 -2.5,0 z"
     id="path3347"
     style="fill:#c09cee;fill-opacity:1;stroke:none;stroke-width:1;stroke-linecap:round;stroke-linejoin:round;stroke-miterlimit:4;stroke-dasharray:none;stroke-dashoffset:0;stroke-opacity:1" />
  <path
     d="m 11,23.486451 c -3.6808943,0 -9.3367877,-3.179938 -9.6907957,-9.200086 l 4.368847,0.575921 c 0.110438,1.140089 2.328052,4.006329 6.0736987,4.006329"
     id="path3453-0"
     style="color:#000000;clip-rule:nonzero;display:inline;overflow:visible;visibility:visible;opacity:0.5;isolation:auto;mix-blend-mode:normal;color-interpolation:sRGB;color-interpolation-filters:linearRGB;solid-color:#000000;solid-opacity:1;fill:none;fill-opacity:1;fill-rule:nonzero;stroke:url(#linearGradient3406-498-3);stroke-width:1;stroke-linecap:butt;stroke-linejoin:miter;stroke-miterlimit:4;stroke-dasharray:none;stroke-dashoffset:0;stroke-opacity:1;color-rendering:auto;image-rendering:auto;shape-rendering:auto;text-rendering:auto;enable-background:accumulate"
     sodipodi:nodetypes="cccc" />
  <path
     d="m 11.682925,19.903852 c 1.446471,0.0129 3.493643,-0.644784 4.597069,-1.736196 2.57887,-2.554359 2.317606,-7.300343 -0.06181,-9.4926087 C 15.214104,7.749937 13.025971,6.2959554 10.500394,6.5 V 8.96 L 6.28,5.502375 10.500394,2.04 v 2.372758 c 2.678814,-0.120611 5.477585,0.5510024 7.478441,2.5518583 3.676568,3.6765687 3.47004,9.5432587 0.07722,12.9360817 -2.147844,2.147843 -4.46007,2.572342 -6.445786,2.572342"
     id="path3370"
     style="opacity:0.4;fill:none;stroke:url(#linearGradient3408-109);stroke-width:1;stroke-linecap:butt;stroke-linejoin:miter;stroke-miterlimit:4;stroke-dasharray:none;stroke-opacity:1"
     sodipodi:nodetypes="ccccccccssc" />
  <path
     d="M 11.34845,22.570656 C 8.6769763,22.736854 2.7755013,20.281716 2.4116423,14.23573 l 1.953302,-0.06205 c 0.172372,2.864146 3.475428,5.566724 7.3179807,5.730172"
     id="path2557"
     style="fill:none;stroke:url(#linearGradient3410-460);stroke-width:1;stroke-linecap:butt;stroke-linejoin:round;stroke-miterlimit:4;stroke-dasharray:none;stroke-opacity:1"
     sodipodi:nodetypes="cccc" />
  <path
     d="m 10.250394,13.874999 a 1.25,1.25 0 0 0 2.5,0 1.25,1.25 0 1 0 -2.5,0 z"
     id="path3347-1"
     style="color:#000000;clip-rule:nonzero;display:inline;overflow:visible;visibility:visible;opacity:0.5;isolation:auto;mix-blend-mode:normal;color-interpolation:sRGB;color-interpolation-filters:linearRGB;solid-color:#000000;solid-opacity:1;fill:none;fill-opacity:1;fill-rule:nonzero;stroke:#6326b9;stroke-width:1;stroke-linecap:butt;stroke-linejoin:round;stroke-miterlimit:4;stroke-dasharray:none;stroke-dashoffset:0;stroke-opacity:1;marker:none;color-rendering:auto;image-rendering:auto;shape-rendering:auto;text-rendering:auto;enable-background:accumulate" />
  <path
     id="path30911"
     style="fill:none;fill-opacity:1;stroke:#452981;stroke-width:1;stroke-linecap:butt;stroke-linejoin:round;stroke-miterlimit:4;stroke-dasharray:none;stroke-opacity:0.5"
     d="m 11,23.496094 c 3.755095,0 5.81338,-0.896824 7.798828,-2.927735 C 22.681254,16.597032 22.687024,10.176366 18.623047,6.1992188 16.625336,4.2441904 14.130095,3.3723567 11.5,3.3242188 V 1 C 11.499866,0.8072149 11.38892,0.63167653 11.214844,0.54882812 11.149351,0.51768403 11.07961,0.50129873 11.009766,0.5 10.893359,0.49783544 10.77717,0.53677839 10.683594,0.61328125 L 5.1835938,5.1132812 c -0.2440463,0.2000584 -0.2440463,0.5733792 0,0.7734376 L 10.683594,10.386719 C 11.009962,10.653333 11.499546,10.421426 11.5,10 V 7.5019531 c 1.193334,0.032871 3.256186,1.1225435 4.123047,1.9628907 2.14094,2.0754542 1.728298,6.2150612 -0.01953,7.9628902 -1.047063,1.047061 -2.727151,1.440881 -3.851767,1.440881"
     sodipodi:nodetypes="csscccsccccccssc" />
</svg>
