<?xml version="1.0" encoding="UTF-8" standalone="no"?>
<svg
   height="24"
   width="24"
   version="1.1"
   id="svg6"
   sodipodi:docname="pane-show-symbolic-rtl.svg"
   inkscape:version="1.2.2 (b0a8486541, 2022-12-01)"
   xmlns:inkscape="http://www.inkscape.org/namespaces/inkscape"
   xmlns:sodipodi="http://sodipodi.sourceforge.net/DTD/sodipodi-0.dtd"
   xmlns="http://www.w3.org/2000/svg"
   xmlns:svg="http://www.w3.org/2000/svg">
  <defs
     id="defs10" />
  <sodipodi:namedview
     id="namedview8"
     pagecolor="#ffffff"
     bordercolor="#000000"
     borderopacity="0.25"
     inkscape:showpageshadow="2"
     inkscape:pageopacity="0.0"
     inkscape:pagecheckerboard="0"
     inkscape:deskcolor="#d1d1d1"
     showgrid="false"
     inkscape:zoom="33.5"
     inkscape:cx="6.2985075"
     inkscape:cy="12.119403"
     inkscape:window-width="1278"
     inkscape:window-height="1005"
     inkscape:window-x="437"
     inkscape:window-y="23"
     inkscape:window-maximized="0"
     inkscape:current-layer="svg6" />
  <path
     id="path2"
     style="fill:#555761;fill-opacity:1;marker:none"
     d="M 7.5,2 C 7.2230003,2 7,2.2230003 7,2.5 v 1 C 7,3.7769997 7.2230003,4 7.5,4 H 16 c 0.553999,0 1,0.4460006 1,1 v 13 c 0,0.553999 -0.446001,1 -1,1 H 7.5 C 7.2230003,19 7,19.223 7,19.5 v 1 C 7,20.777 7.2230003,21 7.5,21 H 17 c 1.107999,0 2,-0.892001 2,-2 V 4 C 19,2.8920011 18.107999,2 17,2 Z"
     sodipodi:nodetypes="cssccssccssccsscc" />
  <path
     id="rect3396-3"
     style="fill:#555761;fill-opacity:1;stroke:none;stroke-width:0.999995;stroke-linejoin:round;stroke-opacity:0.5;stop-color:#000000"
     d="M 8.003906,6.7500001 C 7.862242,6.7492599 7.719996,6.7789781 7.585938,6.8398441 7.229132,7.0021791 7.000061,7.3580012 7,7.7500001 V 10 H 2 c -0.553998,0 -1,0.446002 -1,1 v 1 c 0,0.553998 0.446002,1 1,1 h 5 v 2.249024 c 9.5e-4,0.858428 1.011819,1.316832 1.6582035,0.751952 L 13.159,12.251953 c 0.454309,-0.398371 0.454309,-1.105535 0,-1.503906 l -4.5007965,-3.75 C 8.4735875,6.8364011 8.2400135,6.7512338 8.003906,6.7500001 Z"
     sodipodi:nodetypes="scccssssccccccs" />
</svg>
