<?xml version="1.0" encoding="UTF-8" standalone="no"?>
<svg
   xmlns:dc="http://purl.org/dc/elements/1.1/"
   xmlns:cc="http://creativecommons.org/ns#"
   xmlns:rdf="http://www.w3.org/1999/02/22-rdf-syntax-ns#"
   xmlns:svg="http://www.w3.org/2000/svg"
   xmlns="http://www.w3.org/2000/svg"
   height="24"
   width="24"
   version="1.1"
   id="svg6">
  <metadata
     id="metadata12">
    <rdf:RDF>
      <cc:Work
         rdf:about="">
        <dc:format>image/svg+xml</dc:format>
        <dc:type
           rdf:resource="http://purl.org/dc/dcmitype/StillImage" />
        <dc:title />
      </cc:Work>
    </rdf:RDF>
  </metadata>
  <defs
     id="defs10" />
  <g
     transform="translate(-629,-141)"
     id="g4">
    <path
       d="m 641,146 c -3.86,0 -7,3.14 -7,7 0,3.86 3.14,7 7,7 3.86,0 7,-3.14 7,-7 0,-3.86 -3.14,-7 -7,-7 z m 0,1 c 3.32,0 6,2.68 6,6 0,3.32 -2.68,6 -6,6 -3.32,0 -6,-2.68 -6,-6 0,-3.32 2.68,-6 6,-6 z m -2.506,2.994 a 0.5,0.5 0 0 0 -0.347,0.86 l 2.146,2.146 -2.146,2.146 a 0.50027817,0.50027817 0 1 0 0.707,0.708 l 2.146,-2.147 2.147,2.147 a 0.50027817,0.50027817 0 1 0 0.707,-0.708 l -2.147,-2.146 2.147,-2.146 a 0.5,0.5 0 0 0 -0.364,-0.858 0.5,0.5 0 0 0 -0.343,0.15 l -2.147,2.147 -2.146,-2.147 a 0.5,0.5 0 0 0 -0.36,-0.152 z"
       font-weight="400"
       overflow="visible"
       style="color:#000000;font-weight:400;line-height:normal;font-family:sans-serif;font-variant-ligatures:normal;font-variant-position:normal;font-variant-caps:normal;font-variant-numeric:normal;font-variant-alternates:normal;font-feature-settings:normal;text-indent:0;text-align:start;text-decoration:none;text-decoration-line:none;text-decoration-style:solid;text-decoration-color:#000000;text-transform:none;text-orientation:mixed;white-space:normal;shape-padding:0;overflow:visible;isolation:auto;mix-blend-mode:normal;fill:#666666"
       id="path2" />
  </g>
</svg>
