<?xml version="1.0" encoding="UTF-8" standalone="no"?>
<svg
   xmlns:osb="http://www.openswatchbook.org/uri/2009/osb"
   xmlns:dc="http://purl.org/dc/elements/1.1/"
   xmlns:cc="http://creativecommons.org/ns#"
   xmlns:rdf="http://www.w3.org/1999/02/22-rdf-syntax-ns#"
   xmlns:svg="http://www.w3.org/2000/svg"
   xmlns="http://www.w3.org/2000/svg"
   xmlns:xlink="http://www.w3.org/1999/xlink"
   height="24"
   width="24"
   version="1.1"
   id="svg18">
  <metadata
     id="metadata24">
    <rdf:RDF>
      <cc:Work
         rdf:about="">
        <dc:format>image/svg+xml</dc:format>
        <dc:type
           rdf:resource="http://purl.org/dc/dcmitype/StillImage" />
        <dc:title></dc:title>
      </cc:Work>
    </rdf:RDF>
  </metadata>
  <defs
     id="defs22">
    <linearGradient
       id="linearGradient1072">
      <stop
         offset="0"
         style="stop-color:#ffffff;stop-opacity:1"
         id="stop1064" />
      <stop
         offset="0"
         style="stop-color:#ffffff;stop-opacity:0.23529412"
         id="stop1066" />
      <stop
         offset="1"
         style="stop-color:#ffffff;stop-opacity:0.15686275"
         id="stop1068" />
      <stop
         offset="1"
         style="stop-color:#ffffff;stop-opacity:0.39215687"
         id="stop1070" />
    </linearGradient>
    <linearGradient
       id="linearGradient970">
      <stop
         style="stop-color:#ffa154;stop-opacity:1"
         offset="0"
         id="stop966" />
      <stop
         style="stop-color:#f37329;stop-opacity:1"
         offset="1"
         id="stop968" />
    </linearGradient>
    <radialGradient
       gradientTransform="matrix(-0.3515559,0,0,0.29583148,26.231637,2.353687)"
       gradientUnits="userSpaceOnUse"
       xlink:href="#linearGradient3688-5"
       id="radialGradient3232-1-6"
       fy="36.421127"
       fx="24.837126"
       r="15.644737"
       cy="36.421127"
       cx="24.837126" />
    <linearGradient
       id="linearGradient3688-5">
      <stop
         offset="0"
         style="stop-color:#000000;stop-opacity:1"
         id="stop3690-8" />
      <stop
         offset="1"
         style="stop-color:#000000;stop-opacity:0"
         id="stop3692-6" />
    </linearGradient>
    <linearGradient
       xlink:href="#linearGradient1134"
       id="linearGradient1136-7-9"
       x1="6.6891036"
       y1="5.4796381"
       x2="6.6891036"
       y2="3.7339673"
       gradientUnits="userSpaceOnUse"
       gradientTransform="matrix(1.4,0,0,-1.4999995,0.8000001,24.749998)" />
    <linearGradient
       id="linearGradient1134">
      <stop
         style="stop-color:#cd9ef7;stop-opacity:1"
         offset="0"
         id="stop1130" />
      <stop
         style="stop-color:#a56de2;stop-opacity:1"
         offset="1"
         id="stop1132" />
    </linearGradient>
    <linearGradient
       id="linearGradient4526"
       osb:paint="solid">
      <stop
         style="stop-color:#ffffff;stop-opacity:1;"
         offset="0"
         id="stop4528" />
    </linearGradient>
    <linearGradient
       xlink:href="#linearGradient1072"
       id="linearGradient940-2-0"
       gradientUnits="userSpaceOnUse"
       gradientTransform="matrix(0,-0.78220311,0.66666472,0,-18.524594,32.55917)"
       x1="35.232754"
       y1="53.037033"
       x2="18.960861"
       y2="53.037033" />
    <linearGradient
       y2="57.037033"
       x2="19.061937"
       y1="57.037033"
       x1="26.201517"
       gradientTransform="matrix(0,-0.70032142,0.70522459,0,-20.612128,30.349483)"
       gradientUnits="userSpaceOnUse"
       id="linearGradient940-92"
       xlink:href="#linearGradient1356-2" />
    <linearGradient
       id="linearGradient1356-2">
      <stop
         offset="0"
         style="stop-color:#ffffff;stop-opacity:1"
         id="stop1348-8" />
      <stop
         offset="0.00000013"
         style="stop-color:#ffffff;stop-opacity:0.23529412"
         id="stop1350-9" />
      <stop
         offset="1"
         style="stop-color:#ffffff;stop-opacity:0.15686275"
         id="stop1352-7" />
      <stop
         offset="1"
         style="stop-color:#ffffff;stop-opacity:0.39215687"
         id="stop1354-3" />
    </linearGradient>
    <linearGradient
       y2="17"
       x2="3.308579"
       y1="4"
       x1="3.308579"
       gradientTransform="matrix(1.0202078,0,0,1,15.624562,0)"
       gradientUnits="userSpaceOnUse"
       id="linearGradient1062"
       xlink:href="#linearGradient970" />
  </defs>
  <path
     id="path18105-7-1"
     d="M 1.5000001,19.5 H 22.5 v -3 H 1.5000001 Z"
     style="opacity:1;fill:url(#linearGradient1136-7-9);fill-opacity:1;stroke:#7239b3;stroke-width:1.00000024;stroke-linecap:round;stroke-linejoin:round;stroke-miterlimit:4;stroke-opacity:0.75" />
  <path
     style="opacity:0.5;fill:none;fill-opacity:1;stroke:#000000;stroke-width:1.00000024;stroke-linecap:round;stroke-linejoin:round;stroke-miterlimit:4;stroke-opacity:0.75"
     d="M 1.5 4.5 L 1.5 6.5 L 10.5 6.5 L 10.5 4.5 L 1.5 4.5 z M 1.5 8.5 L 1.5 10.5 L 10.5 10.5 L 10.5 8.5 L 1.5 8.5 z M 1.5 12.5 L 1.5 14.5 L 10.5 14.5 L 10.5 12.5 L 1.5 12.5 z "
     id="path18105-3-5-6-9-7-93-3" />
  <path
     style="opacity:1;fill:#fafafa;fill-opacity:1;stroke:none;stroke-width:1.00000024;stroke-linecap:round;stroke-linejoin:round;stroke-miterlimit:4;stroke-opacity:0.75"
     d="M 2 5 L 2 6 L 10 6 L 10 5 L 2 5 z M 2 9 L 2 10 L 10 10 L 10 9 L 2 9 z M 2 13 L 2 14 L 10 14 L 10 13 L 2 13 z "
     id="path18105-3-9-17-1-68-1" />
  <path
     style="opacity:0.3;fill:none;stroke:#ffffff;stroke-width:1px;stroke-linecap:butt;stroke-linejoin:miter;stroke-opacity:1"
     d="M 2.0000001,17.5 H 22"
     id="path2273-0" />
  <path
     style="display:inline;overflow:visible;visibility:visible;opacity:0.141176;fill:url(#radialGradient3232-1-6);fill-opacity:1;fill-rule:evenodd;stroke:none;stroke-width:0.999997;marker:none"
     id="path3501-4-9-48-3"
     d="m 11.999999,13.128208 a 5.5,4.6282085 0 1 0 11,0 5.5,4.6282085 0 0 0 -11,0 z" />
  <path
     id="path873-5-5"
     style="font-variation-settings:normal;vector-effect:none;fill:url(#linearGradient1062);fill-opacity:1;stroke:#a62100;stroke-width:1;stroke-linecap:butt;stroke-linejoin:round;stroke-miterlimit:4;stroke-dasharray:none;stroke-dashoffset:0;stroke-opacity:0.5;stop-color:#000000;opacity:1;marker:none;stop-opacity:1"
     d="m 23.5,10.904138 h -0.0031 c 0,0.126432 -0.0516,0.231506 -0.134568,0.307179 -0.0059,0.0052 -0.01162,0.01122 -0.01721,0.01673 l -5.56736,6.163417 c -0.07289,0.07077 -0.17153,0.112532 -0.280088,0.112532 -0.107783,0 -0.200982,-0.04176 -0.278525,-0.112532 L 11.6518,11.228043 c -0.0056,-0.0055 -0.01131,-0.01155 -0.01721,-0.01673 C 11.551598,11.135642 11.5,11.030567 11.5,10.904134 c 0,-0.234914 0.17264,-0.404136 0.405267,-0.404136 h 3.195197 c 0.217118,1.47e-4 0.399012,-0.191557 0.399012,-0.418554 V 3.8892959 c 0,-0.2225595 0.171567,-0.3892956 0.400574,-0.3892956 h 3.200942 c 0.229007,0 0.400574,0.1667361 0.400574,0.3892956 v 6.2301691 c 0.02004,0.208379 0.193131,0.380675 0.397442,0.380537 h 3.200416 c 0.232626,0 0.400576,0.169222 0.400576,0.404136 z" />
  <path
     id="path873-5-5-2"
     style="font-variation-settings:normal;opacity:0.5;vector-effect:none;fill:none;fill-opacity:1;stroke:url(#linearGradient940-92);stroke-width:0.999995;stroke-linecap:butt;stroke-linejoin:miter;stroke-miterlimit:4;stroke-dasharray:none;stroke-dashoffset:0;stroke-opacity:1;marker:none;marker-start:none;marker-mid:none;marker-end:none;stop-color:#000000"
     d="M 15.25,11.499998 H 13.249005 L 17.5,16.238015 21.744387,11.499998 H 19.75" />
  <path
     id="path873-5-5-2-6"
     style="font-variation-settings:normal;opacity:0.5;vector-effect:none;fill:none;fill-opacity:1;stroke:url(#linearGradient940-2-0);stroke-width:0.999998;stroke-linecap:butt;stroke-linejoin:miter;stroke-miterlimit:4;stroke-dasharray:none;stroke-dashoffset:0;stroke-opacity:1;marker:none;marker-start:none;marker-mid:none;marker-end:none;stop-color:#000000"
     d="m 19.75,11.5 c -0.75,0 -1.249178,-0.746401 -1.24935,-1.5 0,0 -0.03323,-3.5637884 -0.0013,-5.5000005 h -1.9987 L 16.49935,10 C 16.499251,10.61715 16,11.5 15.25,11.5" />
</svg>
