<svg xmlns="http://www.w3.org/2000/svg" xmlns:xlink="http://www.w3.org/1999/xlink" viewBox="0 0 24 24"><defs><linearGradient id="a"><stop offset="0" stop-color="#fff"/><stop offset=".508" stop-color="#fff" stop-opacity=".235"/><stop offset=".835" stop-color="#fff" stop-opacity=".157"/><stop offset="1" stop-color="#fff" stop-opacity=".392"/></linearGradient><linearGradient x1="71.204" y1="6.238" x2="71.204" y2="44.341" id="b" xlink:href="#a" gradientUnits="userSpaceOnUse" gradientTransform="translate(115.165 -1.02) scale(.5135)"/></defs><path d="M12 1.5C6.206 1.5 1.5 6.206 1.5 12S6.206 22.5 12 22.5 22.5 17.794 22.5 12 17.794 1.5 12 1.5z" opacity=".99" color="#000" fill="#ccc" overflow="visible"/><path d="M12 1.5C6.206 1.5 1.5 6.206 1.5 12S6.206 22.5 12 22.5 22.5 17.794 22.5 12 17.794 1.5 12 1.5z" opacity=".3" color="#000" fill="none" stroke="#434343" stroke-linecap="round" stroke-linejoin="round" overflow="visible"/><path d="M21.5 12a9.5 9.5 0 1 1-19 0 9.5 9.5 0 0 1 19 0z" opacity=".5" color="#000" fill="none" stroke="url(#b)" stroke-linecap="round" stroke-linejoin="round" overflow="visible"/><path d="M15.987 7.625L18 9.437l-6.765 8.94L6 13.867l1.732-2.297 3.06 2.66 5.195-6.605z" opacity=".2" color="#bebebe" overflow="visible"/><path d="M15.987 6.624L18 8.436l-6.765 8.94L6 12.866l1.732-2.296 3.06 2.658 5.195-6.604z" color="#bebebe" fill="#fff" overflow="visible"/></svg>