<?xml version="1.0" encoding="UTF-8" standalone="no"?>
<svg
   id="svg7107"
   height="24"
   width="24"
   version="1.1"
   xmlns:xlink="http://www.w3.org/1999/xlink"
   xmlns="http://www.w3.org/2000/svg"
   xmlns:svg="http://www.w3.org/2000/svg"
   xmlns:rdf="http://www.w3.org/1999/02/22-rdf-syntax-ns#"
   xmlns:cc="http://creativecommons.org/ns#"
   xmlns:dc="http://purl.org/dc/elements/1.1/">
  <defs
     id="defs7109">
    <linearGradient
       id="linearGradient9">
      <stop
         offset="0"
         style="stop-color:#ffffff;stop-opacity:1"
         id="stop6" />
      <stop
         offset="0.5"
         style="stop-color:#ffffff;stop-opacity:0.69230771;"
         id="stop7" />
      <stop
         offset="0.75"
         style="stop-color:#ffffff;stop-opacity:0.15686275"
         id="stop8" />
      <stop
         offset="1"
         style="stop-color:#ffffff;stop-opacity:0.39215687"
         id="stop9" />
    </linearGradient>
    <linearGradient
       id="linearGradient870">
      <stop
         id="stop866"
         offset="0"
         style="stop-color:#667885;stop-opacity:1;" />
      <stop
         id="stop10"
         offset="0.86666662"
         style="stop-color:#667885;stop-opacity:0.05882353;" />
      <stop
         id="stop868"
         offset="1"
         style="stop-color:#667885;stop-opacity:0;" />
    </linearGradient>
    <linearGradient
       gradientUnits="userSpaceOnUse"
       y2="16.543509"
       x2="13.583332"
       y1="-12.369541"
       x1="13.583332"
       id="linearGradient872"
       xlink:href="#linearGradient870"
       gradientTransform="matrix(1.2631578,0,0,0.60526309,1.842107,2.9868509)" />
    <clipPath
       clipPathUnits="userSpaceOnUse"
       id="clipPath3">
      <rect
         style="opacity:0.5;fill:#cfa25e;fill-opacity:1;stroke:none;stroke-linecap:round;stroke-linejoin:round;stroke-opacity:0.589226;paint-order:fill markers stroke"
         id="rect3"
         width="24"
         height="24"
         x="4.999999"
         y="-9.9999743" />
    </clipPath>
    <linearGradient
       xlink:href="#linearGradient9"
       id="linearGradient6"
       x1="10.999999"
       y1="-3.9999743"
       x2="10.999999"
       y2="8.0000257"
       gradientUnits="userSpaceOnUse" />
  </defs>
  <metadata
     id="metadata7112">
    <rdf:RDF>
      <cc:Work
         rdf:about="">
        <dc:format>image/svg+xml</dc:format>
        <dc:type
           rdf:resource="http://purl.org/dc/dcmitype/StillImage" />
      </cc:Work>
    </rdf:RDF>
  </metadata>
  <g
     id="g1"
     transform="translate(-4.999999,9.9999743)"
     clip-path="url(#clipPath3)">
    <path
       id="rect5505-21-8"
       style="display:inline;overflow:visible;opacity:1;fill:url(#linearGradient872);stroke:#273445;stroke-width:0.999997;stroke-opacity:0.589226;marker:none;enable-background:accumulate"
       d="m 2.999999,18.000025 h 28 V 4.0000242 c -8,4 -16.5,1.5 -15,-2 1.5,-3.5 5.5,-1 7,-1 1.534193,0 0,-5.5 -5,-5.5 -8,0 -5,12.5 -15,8.5 z" />
    <path
       id="path4"
       style="baseline-shift:baseline;display:inline;overflow:visible;vector-effect:none;fill:none;stroke:url(#linearGradient6);stroke-linejoin:round;stroke-opacity:0.589226;marker:none;enable-background:accumulate;stop-color:#000000;opacity:1"
       d="m 17.999999,-3.4999743 c -1.739583,0 -2.70534,0.6009708 -3.570313,1.5605469 -0.864973,0.95957913 -1.535103,2.32852161 -2.310546,3.6855469 -0.775443,1.3570252 -1.687593,2.7529017 -3.244141,3.5117187 -1.2545718,0.6116069 -2.9256981,0.5373309 -4.875,-0.00195 V 17.000026 h 26 V 5.4765882 c -3.726625,1.5239051 -7.427863,1.8587686 -10.25,1.3183594 C 18.156013,6.4897163 16.827127,5.9440421 15.904296,5.082057 14.981467,4.2200718 14.553396,2.8344182 15.080077,1.6054945 c 0.455369,-1.06252672 1.202283,-1.80282889 2.046875,-2.1601563 0.844592,-0.35732741 1.717143,-0.35586545 2.507813,-0.24804687 0.790669,0.10781859 1.523824,0.32823906 2.132812,0.5078125 0.348322,0.10271036 0.475595,0.11679484 0.705078,0.16796875 -0.04869,-0.29770521 -0.116068,-0.66423077 -0.382812,-1.11328128 -0.667278,-1.1233307 -1.956511,-2.2597656 -4.089844,-2.2597656 z" />
  </g>
</svg>
