<?xml version="1.0" encoding="UTF-8" standalone="no"?>
<svg
   xmlns:dc="http://purl.org/dc/elements/1.1/"
   xmlns:cc="http://creativecommons.org/ns#"
   xmlns:rdf="http://www.w3.org/1999/02/22-rdf-syntax-ns#"
   xmlns:svg="http://www.w3.org/2000/svg"
   xmlns="http://www.w3.org/2000/svg"
   id="svg6"
   version="1.1"
   width="24"
   height="24">
  <metadata
     id="metadata12">
    <rdf:RDF>
      <cc:Work
         rdf:about="">
        <dc:format>image/svg+xml</dc:format>
        <dc:type
           rdf:resource="http://purl.org/dc/dcmitype/StillImage" />
        <dc:title></dc:title>
      </cc:Work>
    </rdf:RDF>
  </metadata>
  <defs
     id="defs10" />
  <path
     id="rect5962"
     d="m 7.580079,6.079453 c -0.38343,0 -0.766744,0.147603 -1.060547,0.441406 -0.587605,0.587606 -0.587605,1.533488 0,2.121094 l 3.359374,3.357422 -3.359375,3.359375 c -0.587605,0.587605 -0.587605,1.533488 0,2.121094 0.587607,0.587605 1.533489,0.587605 2.121095,0 L 12,14.120468 l 3.359375,3.359376 c 0.587606,0.587605 1.533487,0.587605 2.121094,0 0.587605,-0.587606 0.587605,-1.533489 0,-2.121094 l -3.359376,-3.359375 3.359376,-3.357422 c 0.587605,-0.587606 0.587605,-1.533488 0,-2.121094 -0.587607,-0.5876064 -1.533488,-0.5876064 -2.121094,0 L 12,9.880234 8.640626,6.520859 C 8.346823,6.227056 7.963508,6.079453 7.580079,6.079453 Z"
     style="color:#000000;display:inline;overflow:visible;visibility:visible;opacity:1;fill:#555761;fill-opacity:1;fill-rule:nonzero;stroke:none;stroke-width:1;marker:none;enable-background:accumulate;font-variant-east_asian:normal;vector-effect:none;stroke-linecap:butt;stroke-linejoin:miter;stroke-miterlimit:4;stroke-dasharray:none;stroke-dashoffset:0;stroke-opacity:1;paint-order:normal" />
</svg>
