<svg xmlns="http://www.w3.org/2000/svg" xmlns:xlink="http://www.w3.org/1999/xlink" viewBox="0 0 128 128"><defs><linearGradient id="b"><stop offset="0" stop-color="#3d3d3d"/><stop offset=".5" stop-color="#686868" stop-opacity=".498"/><stop offset="1" stop-color="#686868" stop-opacity="0"/></linearGradient><linearGradient id="c"><stop offset="0" stop-color="#90dbec"/><stop offset=".262" stop-color="#42baea"/><stop offset=".705" stop-color="#3689e6"/><stop offset="1" stop-color="#2b63a0"/></linearGradient><linearGradient id="a"><stop offset="0" stop-color="#fff"/><stop offset=".424" stop-color="#fff" stop-opacity=".235"/><stop offset=".821" stop-color="#fff" stop-opacity=".157"/><stop offset="1" stop-color="#fff" stop-opacity=".392"/></linearGradient><linearGradient xlink:href="#a" id="f" gradientUnits="userSpaceOnUse" gradientTransform="translate(-236.033 -50.036) scale(4.16388)" x1="71.204" y1="15.369" x2="71.204" y2="40.496"/><radialGradient xlink:href="#b" id="d" gradientUnits="userSpaceOnUse" gradientTransform="matrix(.68694 0 0 .21462 -4.022 68.573)" cx="99.157" cy="186.171" fx="99.157" fy="186.171" r="62.769"/><radialGradient cx="1.198" cy="8.45" r="20" fx="1.198" fy="8.45" id="e" xlink:href="#c" gradientUnits="userSpaceOnUse" gradientTransform="matrix(0 12.68293 -13.41703 0 177.87 -40.512)"/></defs><path d="M107.212 108.53a43.12 13.47 0 1 1-86.237 0 43.12 13.47 0 1 1 86.237 0z" fill="url(#d)"/><path d="M64.5 13.998c-28.692 0-52 23.308-52 52s23.308 52 52 52 52-23.308 52-52-23.308-52-52-52z" color="#000" overflow="visible" fill="url(#e)"/><path style="isolation:auto;mix-blend-mode:normal;filter-blend-mode:normal;filter-gaussianBlur-deviation:0" d="M64.5 13.998c-28.692 0-52 23.308-52 52s23.308 52 52 52 52-23.308 52-52-23.308-52-52-52z" opacity=".5" color="#000" stroke="#00537d" stroke-linecap="round" stroke-linejoin="round" overflow="visible" fill="none"/><path d="M115.5 65.998c0 28.167-22.834 51-51 51-28.167 0-51-22.833-51-51 0-28.166 22.833-51 51-51 28.166 0 51 22.834 51 51z" opacity=".5" color="#000" fill="none" stroke="url(#f)" stroke-linecap="round" stroke-linejoin="round" overflow="visible"/><path style="isolation:auto;mix-blend-mode:normal;filter-blend-mode:normal;filter-gaussianBlur-deviation:0" d="M64.5 27.994C42.97 27.994 25.494 45.47 25.494 67S42.97 106.006 64.5 106.006 103.506 88.53 103.506 67 86.03 27.994 64.5 27.994zm0 5.178c15.37 0 28.304 10.254 32.43 24.275-3.483 7.06-8.373 13.428-14.323 18.58-2.907 2.518-6.06 4.74-9.507 6.295-3.445 1.553-7.215 2.424-10.926 2.21-2.16-.123-4.253-.725-6.238-1.57 6.21-3.62 11.858-8.212 16.53-13.685 3.36-3.933 6.354-8.457 7.52-13.658.584-2.61.687-5.35.133-8-.56-2.66-1.78-5.198-3.67-7.2-1.84-1.958-4.237-3.33-6.8-4.036-2.56-.706-5.26-.755-7.836-.284-5.154.94-9.68 3.908-13.283 7.54-6.354 6.405-10.295 15.432-9.57 24.504.365 4.533 1.883 8.99 4.5 12.74.287.41.623.78.935 1.17a55.87 55.87 0 0 1-9.004 2.116c-2.982-5.04-4.727-10.893-4.727-17.18 0-18.692 15.133-33.826 33.827-33.826zm.22 7.04c2.245.002 4.504.688 6.262 2.017 1.585 1.19 2.784 2.92 3.463 4.83.68 1.91.862 4.01.625 6.07-.474 4.12-2.578 7.99-5.187 11.42-4.627 6.08-10.794 10.965-17.66 14.385-.477.24-.966.46-1.453.682-1.242-1.168-2.38-2.45-3.213-3.927-1.956-3.462-2.62-7.63-2.235-11.66.388-4.033 1.782-7.97 3.678-11.64 2.195-4.25 5.157-8.194 9.19-10.42 2.012-1.11 4.276-1.77 6.53-1.764zm33.503 25.225c.024.524.105 1.033.105 1.563 0 18.694-15.134 33.828-33.828 33.828-9.91 0-18.716-4.352-24.902-11.135 3.237-.833 6.415-1.886 9.48-3.214 1.556 1.12 3.21 2.11 5.008 2.8 5.734 2.2 12.172 1.87 17.893-.11 5.7-1.98 10.72-5.51 15.07-9.57 4.41-4.13 8.08-8.98 11.17-14.17z" color="#000" overflow="visible" opacity=".05"/><path style="isolation:auto;mix-blend-mode:normal" d="M64.5 29c-20.987 0-38 17.013-38 38s17.013 38 38 38 38-17.013 38-38-17.013-38-38-38zm0 3.167c15.956 0 29.406 10.728 33.53 25.365A60.438 60.438 0 0 1 83.267 76.79c-2.957 2.56-6.186 4.843-9.753 6.45-3.567 1.61-7.49 2.52-11.396 2.297a19.717 19.717 0 0 1-8.403-2.41c6.81-3.69 12.956-8.612 17.986-14.504 3.31-3.868 6.19-8.263 7.31-13.225.56-2.48.65-5.08.13-7.568-.52-2.49-1.67-4.86-3.41-6.714-1.7-1.81-3.934-3.09-6.33-3.752-2.393-.66-4.94-.712-7.385-.265-4.887.89-9.25 3.73-12.75 7.25-6.17 6.215-9.98 14.985-9.282 23.714.35 4.364 1.813 8.653 4.32 12.243.56.8 1.174 1.564 1.83 2.29a56.984 56.984 0 0 1-11.263 2.7 34.665 34.665 0 0 1-5.2-18.3c0-19.238 15.595-34.833 34.833-34.833zm.222 7.038c2.448.003 4.914.744 6.867 2.22 1.76 1.33 3.06 3.222 3.8 5.3.74 2.08.93 4.336.67 6.528-.504 4.383-2.716 8.403-5.387 11.914-4.73 6.218-11.02 11.194-18.01 14.678-.717.356-1.444.695-2.175 1.02a17.984 17.984 0 0 1-3.82-4.67c-2.078-3.678-2.763-8.046-2.36-12.25.403-4.205 1.846-8.258 3.785-12.01 2.248-4.352 5.31-8.473 9.6-10.838 2.144-1.183 4.57-1.896 7.018-1.892zm34.3 23.132a35.33 35.33 0 0 1 .31 4.663c0 19.238-15.594 34.833-34.832 34.833-10.804 0-20.46-4.918-26.85-12.64a62.708 62.708 0 0 0 11.496-3.818 21.434 21.434 0 0 0 5.3 2.968c5.466 2.096 11.67 1.793 17.203-.122 5.53-1.91 10.43-5.35 14.71-9.35a63.333 63.333 0 0 0 12.66-16.53z" color="#000" overflow="visible" opacity=".15"/><path d="M64.5 28c-20.987 0-38 17.013-38 38s17.013 38 38 38 38-17.013 38-38-17.013-38-38-38zm0 3.167c15.956 0 29.406 10.728 33.53 25.365A60.438 60.438 0 0 1 83.267 75.79c-2.957 2.56-6.186 4.843-9.753 6.45-3.567 1.61-7.49 2.52-11.396 2.297a19.717 19.717 0 0 1-8.403-2.41c6.81-3.69 12.956-8.612 17.986-14.504 3.31-3.868 6.19-8.263 7.31-13.225.558-2.48.65-5.08.13-7.568-.52-2.49-1.67-4.86-3.41-6.714-1.7-1.81-3.934-3.09-6.33-3.752-2.393-.66-4.94-.712-7.385-.265-4.887.89-9.25 3.73-12.75 7.25-6.17 6.215-9.98 14.985-9.282 23.714.35 4.364 1.813 8.653 4.32 12.243.56.8 1.174 1.564 1.83 2.29a56.984 56.984 0 0 1-11.263 2.7 34.665 34.665 0 0 1-5.2-18.3c0-19.238 15.595-34.833 34.833-34.833zm.222 7.038c2.448.003 4.914.744 6.867 2.22 1.76 1.33 3.06 3.222 3.8 5.3.74 2.08.93 4.336.67 6.528-.504 4.383-2.716 8.403-5.387 11.914-4.73 6.218-11.02 11.194-18.01 14.678-.717.356-1.444.695-2.175 1.02a17.984 17.984 0 0 1-3.82-4.67c-2.078-3.678-2.763-8.046-2.36-12.25.403-4.205 1.846-8.258 3.785-12.01 2.248-4.352 5.31-8.473 9.6-10.838 2.144-1.183 4.57-1.896 7.018-1.892zm34.3 23.132a35.33 35.33 0 0 1 .31 4.663c0 19.238-15.594 34.833-34.832 34.833-10.804 0-20.46-4.918-26.85-12.64a62.708 62.708 0 0 0 11.496-3.818 21.434 21.434 0 0 0 5.3 2.968c5.466 2.096 11.67 1.793 17.203-.122 5.53-1.91 10.43-5.35 14.71-9.35a63.333 63.333 0 0 0 12.66-16.53z" color="#000" overflow="visible" fill="#fff"/></svg>