<?xml version="1.0" encoding="UTF-8" standalone="no"?>
<!-- Created with Inkscape (http://www.inkscape.org/) -->

<svg
   xmlns:svg="http://www.w3.org/2000/svg"
   xmlns="http://www.w3.org/2000/svg"
   xmlns:xlink="http://www.w3.org/1999/xlink"
   version="1.0"
   width="22"
   height="22"
   id="svg2">
  <defs
     id="defs4">
    <radialGradient
       cx="605.71429"
       cy="486.64789"
       r="117.14286"
       fx="605.71429"
       fy="486.64789"
       id="radialGradient4536"
       xlink:href="#linearGradient5060"
       gradientUnits="userSpaceOnUse"
       gradientTransform="matrix(-2.774389,0,0,1.969706,112.7623,-872.8854)" />
    <linearGradient
       id="linearGradient5060">
      <stop
         id="stop5062"
         style="stop-color:#000000;stop-opacity:1"
         offset="0" />
      <stop
         id="stop5064"
         style="stop-color:#000000;stop-opacity:0"
         offset="1" />
    </linearGradient>
    <radialGradient
       cx="605.71429"
       cy="486.64789"
       r="117.14286"
       fx="605.71429"
       fy="486.64789"
       id="radialGradient4534"
       xlink:href="#linearGradient5060"
       gradientUnits="userSpaceOnUse"
       gradientTransform="matrix(2.774389,0,0,1.969706,-1891.633,-872.8854)" />
    <linearGradient
       id="linearGradient5048">
      <stop
         id="stop5050"
         style="stop-color:#000000;stop-opacity:0"
         offset="0" />
      <stop
         id="stop5056"
         style="stop-color:#000000;stop-opacity:1"
         offset="0.5" />
      <stop
         id="stop5052"
         style="stop-color:#000000;stop-opacity:0"
         offset="1" />
    </linearGradient>
    <linearGradient
       x1="302.85715"
       y1="366.64789"
       x2="302.85715"
       y2="609.50507"
       id="linearGradient4532"
       xlink:href="#linearGradient5048"
       gradientUnits="userSpaceOnUse"
       gradientTransform="matrix(2.774389,0,0,1.969706,-1892.179,-872.8854)" />
    <linearGradient
       x1="-51.786404"
       y1="50.786446"
       x2="-51.786404"
       y2="2.9062471"
       id="linearGradient4547"
       xlink:href="#linearGradient2490"
       gradientUnits="userSpaceOnUse"
       gradientTransform="matrix(0.4383743,0,0,0.4575444,30.223522,0.22134992)" />
    <linearGradient
       id="linearGradient4559">
      <stop
         id="stop4561"
         style="stop-color:#cacaca;stop-opacity:1"
         offset="0" />
      <stop
         id="stop4563"
         style="stop-color:#949492;stop-opacity:1"
         offset="1" />
    </linearGradient>
    <linearGradient
       x1="17.288921"
       y1="2.184907"
       x2="15.179585"
       y2="5.8214641"
       id="linearGradient4565"
       xlink:href="#linearGradient4559"
       gradientUnits="userSpaceOnUse"
       gradientTransform="translate(-1,2)" />
    <linearGradient
       id="linearGradient8589">
      <stop
         id="stop8591"
         style="stop-color:#fefefe;stop-opacity:1"
         offset="0" />
      <stop
         id="stop8593"
         style="stop-color:#cbcbcb;stop-opacity:1"
         offset="1" />
    </linearGradient>
    <linearGradient
       x1="32.892288"
       y1="8.0590115"
       x2="36.358372"
       y2="5.4565363"
       id="linearGradient4543"
       xlink:href="#linearGradient8589"
       gradientUnits="userSpaceOnUse"
       gradientTransform="matrix(0.541631,0,0,0.5202974,-1.9402078,1.6981438)" />
    <linearGradient
       id="linearGradient3993">
      <stop
         id="stop3995"
         style="stop-color:#a3c0d0;stop-opacity:1"
         offset="0" />
      <stop
         id="stop4001"
         style="stop-color:#427da1;stop-opacity:1"
         offset="1" />
    </linearGradient>
    <linearGradient
       id="linearGradient2490">
      <stop
         id="stop2492"
         style="stop-color:#2e4a5a;stop-opacity:1"
         offset="0" />
      <stop
         id="stop2494"
         style="stop-color:#6e8796;stop-opacity:1"
         offset="1" />
    </linearGradient>
    <radialGradient
       cx="4.9624062"
       cy="4.0465837"
       r="10"
       fx="4.9624062"
       fy="4.0465837"
       id="radialGradient3697"
       xlink:href="#linearGradient3993"
       gradientUnits="userSpaceOnUse"
       gradientTransform="matrix(0.06425205,1.815029,-2.2581077,0.07993705,12.781183,-5.4018128)" />
  </defs>
  <g
     transform="translate(0,-2)"
     id="layer1">
    <path
       d="m 1.4995695,2.5 c 4.3540581,0 8.7081225,0 13.0621825,0 0.7638,0.2373053 4.867172,2.9400631 5.938678,4.812 0,5.729358 0,10.459071 0,16.188431 -6.333619,0 -12.6672431,0 -19.0008605,0 0,-7.333622 0,-13.6668093 0,-21.000431 z"
       id="rect2594"
       style="fill:url(#radialGradient3697);fill-opacity:1;stroke:url(#linearGradient4547);stroke-width:0.99913895;stroke-linecap:butt;stroke-linejoin:round;stroke-miterlimit:4;stroke-opacity:1;stroke-dasharray:none;stroke-dashoffset:0;display:inline" />
    <path
       d="M 7.4264698,5.6357609 C 5.4082122,5.6360369 2.9737026,7.4260585 2,10.384105 c 0,2.31126 0,4.622518 0,6.933775 0.448568,2.117503 1.166866,3.74936 1.7702204,5.503312 L 6.5496318,21.430463 C 5.911426,19.860496 5.0909914,18.293654 4.7959555,17.516557 3.969978,15.340675 3.6681763,14.367044 3.7371322,12.70861 3.8038116,11.105219 4.2488721,10.117447 5.0606614,9.1721844 5.8724666,8.2270107 6.9954072,7.7572656 8.3363967,7.9801318 c 2.8400173,0.472498 3.7539143,3.0537672 3.8216903,4.3112592 0.05579,1.034263 -0.564411,3.58141 -2.746323,3.456954 C 7.8991705,15.661915 7.0489468,14.655018 6.9466909,12.94702 6.8713599,11.688212 7.8856552,10.417597 9.527573,11.059603 9.791854,11.162876 9.809723,10.593722 9.511023,10.304635 8.7420197,9.5604254 5.6955788,9.8449224 5.7058759,12.768212 c 0.00955,2.709018 1.8140292,4.517658 3.5569851,4.529801 3.650293,0.0258 4.367117,-3.434594 4.235293,-5.821192 C 13.3521,8.8322494 10.574781,5.6353222 7.4264698,5.6357609 z"
       id="path3605"
       style="fill:#4a6574;fill-opacity:1;fill-rule:evenodd;stroke:none" />
    <path
       d="M 7.4264698,4.9999994 C 5.4059829,5.0002759 2.9729899,6.8045934 2,9.7682114 2,12.072848 2,14.377483 2,16.682119 2.4518906,18.798895 3.1668627,20.431478 3.7702204,22.18543 L 6.5496318,20.794702 C 5.911426,19.224733 5.0744473,17.657893 4.7794115,16.880794 3.9534339,14.704914 3.6516268,13.731289 3.720588,12.072848 3.7872674,10.469456 4.2488721,9.4816794 5.0606614,8.5364232 c 0.8118052,-0.945174 1.918201,-1.4149128 3.2591905,-1.192053 2.8400191,0.472498 3.7539041,3.0537728 3.8216911,4.3112588 0.05579,1.034264 -0.547857,3.581417 -2.729779,3.456954 C 7.8991712,15.026153 7.0489523,13.99939 6.9466909,12.291391 6.8713609,11.032583 7.8856449,9.7818414 9.527573,10.42384 9.791855,10.527113 9.809738,9.9579544 9.511023,9.6688734 8.7420227,8.9246637 5.6955756,9.2091674 5.7058779,12.132451 c 0.00955,2.709018 1.8140397,4.517658 3.5569851,4.529801 3.650294,0.0258 4.350567,-3.434588 4.218749,-5.821194 C 13.335557,8.1964878 10.574797,4.9995607 7.4264698,4.9999994 z"
       id="path3607"
       style="fill:#eeeeec;fill-opacity:1;fill-rule:evenodd;stroke:none" />
    <path
       d="m 18.229778,5.8145689 -2.779412,1.3907285 c 0.63819,1.5701467 1.47519,3.1365486 1.77022,3.9139086 0.825978,2.175887 1.127786,3.149416 1.058824,4.807946 -0.06668,1.603124 -0.528268,2.57121 -1.340074,3.516557 -0.811794,0.945173 -1.918207,1.434876 -3.25919,1.21192 -2.840035,-0.472142 -3.753905,-3.053779 -3.821691,-4.311258 -0.05578,-1.034085 0.547862,-3.581417 2.729779,-3.456954 1.512593,0.08643 2.362817,1.093332 2.465073,2.801325 0.07533,1.258725 -0.938959,2.529498 -2.580882,1.887417 -0.264298,-0.103184 -0.28216,0.465886 0.01655,0.754966 0.769002,0.744293 3.815443,0.459618 3.805147,-2.463576 C 16.284622,13.15862 14.480083,11.33003 12.737137,11.317881 9.086833,11.291911 8.386575,14.772076 8.5183876,17.15894 8.6644397,19.803245 11.4252,23.00071 14.573532,23 c 2.018249,-1.34e-4 4.451328,-1.810436 5.42647,-4.768212 0,-2.317544 0,-4.606974 0,-6.913907 -0.45189,-2.1167896 -1.166855,-3.7492415 -1.77022,-5.5033121 z"
       id="path3609"
       style="opacity:0.77380952;fill:#466170;fill-opacity:1;fill-rule:evenodd;stroke:none" />
    <path
       d="m 18.147057,4.9999994 -2.779411,1.3907284 c 0.63819,1.5701467 1.47519,3.1365486 1.77022,3.9139072 0.825978,2.175889 1.127784,3.149417 1.058824,4.807948 -0.06668,1.603123 -0.528269,2.57121 -1.340074,3.516556 -0.811795,0.945174 -1.918207,1.434876 -3.259191,1.21192 -2.840034,-0.472141 -3.753905,-3.053778 -3.82169,-4.311258 -0.05578,-1.034085 0.547861,-3.581417 2.729778,-3.456953 1.512593,0.08643 2.362818,1.093332 2.465074,2.801324 0.07533,1.258725 -0.93896,2.529498 -2.580882,1.887418 -0.264298,-0.103185 -0.282161,0.465886 0.01655,0.754967 0.769002,0.744292 3.831987,0.459617 3.821691,-2.463577 -0.0095,-2.708929 -1.830584,-4.537521 -3.573529,-4.54967 -3.650304,-0.02597 -4.3505631,3.454195 -4.2187498,5.841061 0.146054,2.644304 2.9068148,5.841771 6.0551458,5.841059 2.07685,-1.37e-4 4.594525,-1.913975 5.509187,-5.02649 0,-2.111706 0,-4.198355 0,-6.298014 C 19.556745,8.5685667 18.783516,6.8502785 18.147057,4.9999994 z"
       id="path3611"
       style="fill:#a9c5d3;fill-opacity:1;fill-rule:evenodd;stroke:none" />
    <path
       d="m 14.5,2.5 c 0,2.262965 0,5 0,5 0,0 4.653658,0 6,0 0,-0.836587 -4.820468,-4.9857176 -6,-5 z"
       id="path12038"
       style="fill:url(#linearGradient4543);fill-opacity:1;fill-rule:evenodd;stroke:url(#linearGradient4565);stroke-width:1;stroke-linecap:butt;stroke-linejoin:round;stroke-miterlimit:4;stroke-opacity:1;stroke-dasharray:none;display:inline" />
  </g>
</svg>
