<?xml version="1.0" encoding="UTF-8" standalone="no"?>
<!-- Created with Inkscape (http://www.inkscape.org/) -->

<svg
   xmlns:svg="http://www.w3.org/2000/svg"
   xmlns="http://www.w3.org/2000/svg"
   xmlns:xlink="http://www.w3.org/1999/xlink"
   version="1.0"
   width="22"
   height="22"
   id="svg2755">
  <defs
     id="defs2757">
    <linearGradient
       x1="-55.613251"
       y1="44.818859"
       x2="-51.786404"
       y2="2.9062471"
       id="linearGradient2664"
       xlink:href="#linearGradient2490"
       gradientUnits="userSpaceOnUse"
       gradientTransform="matrix(0.3922135,0,0,0.4473607,29.199293,-1.2386997)" />
    <linearGradient
       id="linearGradient3211">
      <stop
         id="stop3213"
         style="stop-color:#ffffff;stop-opacity:1"
         offset="0" />
      <stop
         id="stop3215"
         style="stop-color:#ffffff;stop-opacity:0"
         offset="1" />
    </linearGradient>
    <linearGradient
       x1="24"
       y1="1.9999999"
       x2="24"
       y2="46.01725"
       id="linearGradient2656"
       xlink:href="#linearGradient3211"
       gradientUnits="userSpaceOnUse"
       gradientTransform="matrix(0.4545444,0,0,0.4651153,1.0909345,0.3372293)" />
    <linearGradient
       id="linearGradient8589">
      <stop
         id="stop8591"
         style="stop-color:#fefefe;stop-opacity:1"
         offset="0" />
      <stop
         id="stop8593"
         style="stop-color:#cbcbcb;stop-opacity:1"
         offset="1" />
    </linearGradient>
    <linearGradient
       x1="32.892288"
       y1="8.0590115"
       x2="36.358372"
       y2="5.4565363"
       id="linearGradient2652"
       xlink:href="#linearGradient8589"
       gradientUnits="userSpaceOnUse"
       gradientTransform="matrix(0.4778466,0,0,0.5524833,0.3722548,-0.0761283)" />
    <radialGradient
       cx="6.6146555"
       cy="6.8818245"
       r="8.999999"
       fx="6.6146555"
       fy="6.8818245"
       id="radialGradient3679"
       xlink:href="#linearGradient3993"
       gradientUnits="userSpaceOnUse"
       gradientTransform="matrix(0.00875064,1.8048702,-2.3300816,0.01129706,23.285599,-9.4486721)" />
    <linearGradient
       id="linearGradient3993">
      <stop
         id="stop3995"
         style="stop-color:#a3c0d0;stop-opacity:1"
         offset="0" />
      <stop
         id="stop4001"
         style="stop-color:#427da1;stop-opacity:1"
         offset="1" />
    </linearGradient>
    <linearGradient
       id="linearGradient2490">
      <stop
         id="stop2492"
         style="stop-color:#2e4a5a;stop-opacity:1"
         offset="0" />
      <stop
         id="stop2494"
         style="stop-color:#6e8796;stop-opacity:1"
         offset="1" />
    </linearGradient>
  </defs>
  <g
     transform="translate(-1.0000009,0)"
     id="layer1">
    <path
       d="m 3.4999617,0.49996097 c 3.8955799,0 7.6044553,0 11.5000383,0 C 15.683368,0.73725787 19.541325,3.628131 20.5,5.5 c 0,5.729157 3.9e-5,10.270842 3.9e-5,16 l -17.0000773,0 c 0,-7.33336 0,-13.6666811 0,-21.00003903 z"
       id="path4160"
       style="fill:url(#radialGradient3679);fill-opacity:1;stroke:url(#linearGradient2664);stroke-width:0.99992162;stroke-linecap:butt;stroke-linejoin:round;stroke-miterlimit:4;stroke-opacity:1;stroke-dasharray:none;stroke-dashoffset:0;display:inline" />
    <path
       d="m 8.8235289,3.6357613 c -1.794006,2.76e-4 -3.958015,1.7902976 -4.823528,4.7483446 0,2.3112591 0,4.6225171 0,6.9337741 0.398727,2.117503 1.037214,3.74936 1.573529,5.503312 l 2.470588,-1.390729 c -0.567294,-1.569967 -1.296569,-3.136809 -1.558824,-3.913906 -0.734202,-2.175882 -0.702587,-3.149513 -0.641293,-4.807947 0.05927,-1.6033911 0.154997,-2.5911621 0.876588,-3.5364251 0.721604,-0.945174 1.719774,-1.414919 2.911764,-1.192053 2.5244591,0.472498 3.3368121,3.053767 3.3970581,4.3112591 0.04959,1.034263 -0.501699,3.58141 -2.441176,3.456954 -1.3445281,-0.08643 -2.1002821,-1.093327 -2.1911761,-2.801325 -0.06696,-1.2588081 0.834635,-2.5294221 2.2941181,-1.8874171 0.234915,0.103273 0.2508,-0.46588 -0.01471,-0.754967 -0.6835581,-0.74421 -3.3915061,-0.459713 -3.3823531,2.4635761 0.0085,2.709018 1.612471,4.517658 3.1617651,4.529801 3.244705,0.0258 3.881881,-3.434594 3.764704,-5.8211921 C 14.090756,6.8322499 11.622027,3.6353226 8.8235289,3.6357613 z"
       id="path3605"
       style="fill:#4a6574;fill-opacity:1;fill-rule:evenodd;stroke:none" />
    <path
       d="m 8.8235299,2.9999998 c -1.795988,2.765e-4 -3.958649,1.804594 -4.823529,4.7682121 0,2.3046361 0,4.6092711 0,6.9139071 0.40168,2.116776 1.037211,3.749359 1.573529,5.503311 l 2.470588,-1.390728 c -0.567294,-1.569969 -1.311275,-3.136809 -1.573529,-3.913908 -0.734202,-2.17588 -0.602887,-3.149505 -0.541588,-4.807946 0.05927,-1.6033911 0.07,-2.5911681 0.791588,-3.5364241 0.721604,-0.945174 1.705067,-1.414913 2.897058,-1.192053 2.5244601,0.472498 3.3368031,3.053773 3.3970581,4.311258 0.04959,1.0342641 -0.486984,3.5814171 -2.42647,3.4569541 -1.3445271,-0.08643 -2.1002771,-1.113193 -2.1911761,-2.821192 -0.06696,-1.2588081 0.834626,-2.5095491 2.2941181,-1.8675501 0.234916,0.103273 0.250813,-0.465886 -0.01471,-0.754967 -0.6835561,-0.74421 -3.3915081,-0.459706 -3.3823511,2.4635771 0.0085,2.709018 1.61248,4.517658 3.1617641,4.529801 3.244706,0.0258 3.86717,-3.434588 3.749999,-5.8211931 C 14.076052,6.1964879 11.622042,2.9995611 8.8235299,2.9999998 z"
       id="path3607"
       style="fill:#eeeeec;fill-opacity:1;fill-rule:evenodd;stroke:none" />
    <path
       d="m 18.426469,3.8145693 -2.470588,1.3907286 c 0.56728,1.570147 1.31128,3.136549 1.573528,3.913908 0.734203,2.1758871 1.002476,3.1494161 0.941177,4.8079461 -0.05927,1.603124 -0.469571,2.57121 -1.191177,3.516557 -0.721594,0.945173 -1.705072,1.434876 -2.897057,1.21192 -2.524475,-0.472142 -3.336805,-3.053779 -3.397059,-4.311258 -0.04958,-1.034085 0.486989,-3.581417 2.426471,-3.456954 1.344527,0.08643 2.100281,1.093332 2.191175,2.801325 0.06696,1.258725 -0.83463,2.529498 -2.294116,1.887417 -0.234932,-0.103184 -0.25081,0.465886 0.01471,0.754966 0.683558,0.744293 3.391505,0.459618 3.382353,-2.463576 C 16.697486,11.15862 15.093407,9.3300299 13.544121,9.3178809 10.299407,9.2919109 9.6769559,12.772076 9.7941229,15.15894 9.9239469,17.803245 12.377956,21.00071 15.176473,21 c 1.793999,-1.34e-4 3.956736,-1.810436 4.823528,-4.768212 0,-2.317544 0,-4.606974 0,-6.9139071 -0.40168,-2.116789 -1.037205,-3.749241 -1.573528,-5.5033116 z"
       id="path3609"
       style="opacity:0.77380952;fill:#466170;fill-opacity:1;fill-rule:evenodd;stroke:none" />
    <path
       d="m 18.352937,2.9999998 -2.470585,1.3907284 c 0.56728,1.5701467 1.311279,3.1365487 1.573529,3.9139077 0.734202,2.1758881 0.702418,3.1494161 0.64112,4.8079471 -0.05927,1.603123 -0.169516,2.57121 -0.89112,3.516556 -0.721596,0.945174 -1.705073,1.434876 -2.897059,1.21192 -2.524475,-0.472141 -3.336804,-3.053778 -3.397057,-4.311258 -0.04958,-1.034085 0.486987,-3.5814171 2.426468,-3.456953 1.344528,0.08643 2.100283,1.093332 2.191177,2.801324 0.06696,1.258725 -0.834631,2.529498 -2.294117,1.887418 -0.234932,-0.103185 -0.250809,0.465886 0.01471,0.754967 0.683557,0.744292 3.40621,0.459617 3.397058,-2.463577 -0.0085,-2.708929 -1.627186,-4.5375201 -3.17647,-4.5496691 -3.244714,-0.02597 -3.8671671,3.4541941 -3.7499991,5.8410601 0.129825,2.644304 2.5838341,5.841771 5.3823511,5.841059 1.846089,-1.37e-4 4.084022,-1.913975 4.897054,-5.02649 0,-2.111706 0,-4.198355 0,-6.2980131 -0.394005,-2.29236 -1.081318,-4.010648 -1.64706,-5.8609271 z"
       id="path3611"
       style="fill:#a9c5d3;fill-opacity:1;fill-rule:evenodd;stroke:none" />
    <path
       d="m 19.500001,5.6770357 c 0,5.2083053 0,10.6146573 0,15.8229643 -5,0 -9.9999998,0 -15.000001,0 0,-6.66667 0,-13.3333343 0,-20.0000001 3.4372614,0 6.956499,0 10.393761,0"
       id="path2435"
       style="opacity:0.41999996;fill:none;stroke:url(#linearGradient2656);stroke-width:0.99999988;stroke-linecap:butt;stroke-linejoin:miter;stroke-miterlimit:4;stroke-opacity:1;stroke-dasharray:none;stroke-dashoffset:0;display:inline" />
    <path
       d="m 14.075474,1 c 1.156303,0.3287671 0.339059,4.6143789 0.339059,4.6143789 0,0 4.515388,-0.4277362 5.60771,1.1949961 C 21.511396,9.0216317 19.954018,6.1742029 19.848796,5.9876778 19.092868,4.6476323 15.982456,1.4405918 14.803387,1.0464703 14.715155,1.0169778 14.519511,1 14.075474,1 z"
       id="path3370"
       style="opacity:0.3;fill:#000000;fill-opacity:1;fill-rule:evenodd;stroke:none;display:inline" />
    <path
       d="m 14,0 c 1.526166,0 1,5 1,5 0,0 6.074781,-0.45326 6.074781,2 0,-0.5977419 0.04504,-1.8225012 -0.07478,-2 -0.839107,-1.2430058 -4.670755,-4.68212189 -6,-5 -0.09048,-0.02163788 -0.555963,0 -1,0 z"
       id="path4474"
       style="fill:url(#linearGradient2652);fill-opacity:1;fill-rule:evenodd;stroke:none;display:inline" />
  </g>
</svg>
