<?xml version="1.0" encoding="UTF-8" standalone="no"?>
<!-- Created with Inkscape (http://www.inkscape.org/) -->

<svg
   xmlns:svg="http://www.w3.org/2000/svg"
   xmlns="http://www.w3.org/2000/svg"
   xmlns:xlink="http://www.w3.org/1999/xlink"
   version="1.0"
   width="22"
   height="22"
   id="svg2">
  <defs
     id="defs4">
    <linearGradient
       x1="-51.786404"
       y1="50.786446"
       x2="-51.786404"
       y2="2.9062471"
       id="linearGradient4547"
       xlink:href="#linearGradient2490"
       gradientUnits="userSpaceOnUse"
       gradientTransform="matrix(0.4383743,0,0,0.4575444,30.223522,0.22134992)" />
    <linearGradient
       id="linearGradient4559">
      <stop
         id="stop4561"
         style="stop-color:#cacaca;stop-opacity:1"
         offset="0" />
      <stop
         id="stop4563"
         style="stop-color:#949492;stop-opacity:1"
         offset="1" />
    </linearGradient>
    <linearGradient
       x1="17.288921"
       y1="2.184907"
       x2="15.179585"
       y2="5.8214641"
       id="linearGradient4565"
       xlink:href="#linearGradient4559"
       gradientUnits="userSpaceOnUse"
       gradientTransform="translate(-1,2)" />
    <linearGradient
       id="linearGradient8589">
      <stop
         id="stop8591"
         style="stop-color:#fefefe;stop-opacity:1"
         offset="0" />
      <stop
         id="stop8593"
         style="stop-color:#cbcbcb;stop-opacity:1"
         offset="1" />
    </linearGradient>
    <linearGradient
       x1="32.892288"
       y1="8.0590115"
       x2="36.358372"
       y2="5.4565363"
       id="linearGradient4543"
       xlink:href="#linearGradient8589"
       gradientUnits="userSpaceOnUse"
       gradientTransform="matrix(0.541631,0,0,0.5202974,-1.9402078,1.6981438)" />
    <linearGradient
       id="linearGradient3993">
      <stop
         id="stop3995"
         style="stop-color:#a3c0d0;stop-opacity:1"
         offset="0" />
      <stop
         id="stop4001"
         style="stop-color:#427da1;stop-opacity:1"
         offset="1" />
    </linearGradient>
    <linearGradient
       id="linearGradient2490">
      <stop
         id="stop2492"
         style="stop-color:#2e4a5a;stop-opacity:1"
         offset="0" />
      <stop
         id="stop2494"
         style="stop-color:#6e8796;stop-opacity:1"
         offset="1" />
    </linearGradient>
    <radialGradient
       cx="4.9624062"
       cy="4.0465837"
       r="10"
       fx="4.9624062"
       fy="4.0465837"
       id="radialGradient3697"
       xlink:href="#linearGradient3993"
       gradientUnits="userSpaceOnUse"
       gradientTransform="matrix(0.06425205,1.815029,-2.2581077,0.07993705,12.781183,-5.4018128)" />
  </defs>
  <g
     transform="translate(0,-2)"
     id="layer1">
    <path
       d="m 1.4995695,2.5 c 4.3540581,0 8.7081225,0 13.0621825,0 0.7638,0.2373053 4.867172,2.9400631 5.938678,4.812 0,5.729358 0,10.459071 0,16.188431 -6.333619,0 -12.6672431,0 -19.0008605,0 0,-7.333622 0,-13.6668093 0,-21.000431 z"
       id="rect2594"
       style="fill:url(#radialGradient3697);fill-opacity:1;stroke:url(#linearGradient4547);stroke-width:0.99913895;stroke-linecap:butt;stroke-linejoin:round;stroke-miterlimit:4;stroke-opacity:1;stroke-dasharray:none;stroke-dashoffset:0;display:inline" />
    <g
       transform="translate(-1,-4.7565079e-7)"
       id="g2970">
      <g
         transform="translate(1,7)"
         id="g2897"
         style="opacity:0.81000001">
        <path
           d="M 19.5185,13.5185 2.4815,13.4815"
           id="path3296"
           style="opacity:0.15;fill:none;stroke:#ffffff;stroke-width:0.963;stroke-linecap:square;stroke-linejoin:round;stroke-miterlimit:4;stroke-opacity:1;stroke-dasharray:none" />
        <path
           d="M 19.5185,9.5185 2.4815,9.4815"
           id="path2855"
           style="opacity:0.15;fill:none;stroke:#ffffff;stroke-width:0.963;stroke-linecap:square;stroke-linejoin:round;stroke-miterlimit:4;stroke-opacity:1;stroke-dasharray:none" />
        <path
           d="M 19.5185,5.5185 2.4815,5.4815"
           id="path2861"
           style="opacity:0.15;fill:none;stroke:#ffffff;stroke-width:0.963;stroke-linecap:square;stroke-linejoin:round;stroke-miterlimit:4;stroke-opacity:1;stroke-dasharray:none" />
      </g>
      <g
         transform="translate(1,-3)"
         id="g2956"
         style="opacity:0.81000001">
        <path
           d="M 19.5185,11.5185 2.4815,11.4815"
           id="path2960"
           style="opacity:0.15;fill:none;stroke:#ffffff;stroke-width:0.963;stroke-linecap:square;stroke-linejoin:round;stroke-miterlimit:4;stroke-opacity:1;stroke-dasharray:none" />
        <path
           d="M 13.5185,7.5185 2.4815,7.4815"
           id="path2966"
           style="opacity:0.15;fill:none;stroke:#ffffff;stroke-width:0.963;stroke-linecap:square;stroke-linejoin:round;stroke-miterlimit:4;stroke-opacity:1;stroke-dasharray:none" />
      </g>
    </g>
    <g
       transform="translate(11,0.99999932)"
       id="g2984"
       style="opacity:0.81000001">
      <g
         id="g3000">
        <g
           transform="translate(-10,7.0000003)"
           id="g2890"
           style="opacity:0.81000001">
          <path
             d="M 3.5184999,-4.4999996 3.4814999,14.5185"
             id="path3332"
             style="opacity:0.15;fill:none;stroke:#ffffff;stroke-width:0.96299982;stroke-linecap:square;stroke-linejoin:round;stroke-miterlimit:4;stroke-opacity:1;stroke-dasharray:none" />
          <path
             d="M 11.5185,-4.4999996 11.4815,14.5185"
             id="path2849"
             style="opacity:0.15;fill:none;stroke:#ffffff;stroke-width:0.96299982;stroke-linecap:square;stroke-linejoin:round;stroke-miterlimit:4;stroke-opacity:1;stroke-dasharray:none" />
          <path
             d="M 7.5184999,-4.4999996 7.4814999,14.5185"
             id="path2865"
             style="opacity:0.15;fill:none;stroke:#ffffff;stroke-width:0.96299982;stroke-linecap:square;stroke-linejoin:round;stroke-miterlimit:4;stroke-opacity:1;stroke-dasharray:none" />
        </g>
        <path
           d="M 5.5184999,7.5000007 5.4814999,21.5185"
           id="path2990"
           style="opacity:0.15;fill:none;stroke:#ffffff;stroke-width:0.96299982;stroke-linecap:square;stroke-linejoin:round;stroke-miterlimit:4;stroke-opacity:1;stroke-dasharray:none" />
      </g>
    </g>
    <path
       d="m 14.5,2.5 c 0,2.262965 0,5 0,5 0,0 4.653658,0 6,0 0,-0.836587 -4.820468,-4.9857176 -6,-5 z"
       id="path12038"
       style="fill:url(#linearGradient4543);fill-opacity:1;fill-rule:evenodd;stroke:url(#linearGradient4565);stroke-width:1;stroke-linecap:butt;stroke-linejoin:round;stroke-miterlimit:4;stroke-opacity:1;stroke-dasharray:none;display:inline" />
    <path
       d="m 7.0137142,8.7479185 c -0.4465359,0.328159 -0.3937548,1.190094 0.09328,1.4452215 1.1100431,0.445159 1.8300035,-0.186688 2.0924438,-1.3590845 0.0072,-0.172775 0.06613,-0.426715 -0.166474,-0.347455 -0.6967513,-0.03713 -1.3606803,0.0158 -2.0192499,0.261318 z M 9.999999,8.1632215 C 10,9.0695345 10,9.9758465 10,10.88216 c -0.264746,0 -0.529494,0 -0.79424,0 C 9.19014,10.681413 9.23735,10.254353 9.18154,10.198333 8.8705858,10.698473 8.328221,10.969638 7.7881768,10.995704 6.3401274,11.072753 5.7059686,10.10662 6.1289505,8.6407875 6.9409538,7.7117005 8.1035543,7.8736065 9.184914,7.8732005 9.138416,6.3225215 7.3612954,6.6749095 6.4147798,6.9821335 6.1638321,7.1676135 6.3079382,6.7148885 6.270523,6.5556445 c -0.086851,-0.349638 0.3373758,-0.294034 0.5375292,-0.39647 0.7290096,-0.194071 1.5261388,-0.25054 2.2354688,0.06046 0.742864,0.401315 0.898372,1.121343 0.956477,1.943589 z"
       id="text34519"
       style="font-size:4px;font-style:normal;font-weight:normal;opacity:0.9;fill:#ffffff;fill-opacity:1;stroke:none;font-family:Bitstream Vera Sans" />
    <g
       transform="translate(-2.4349212e-8,6.9999993)"
       id="g2916">
      <path
         d="m 4.5184999,-3.5185001 -0.037,5.0369991"
         id="path3556"
         style="opacity:0.72000002;fill:none;stroke:#ffffff;stroke-width:0.96299988;stroke-linecap:square;stroke-linejoin:round;stroke-miterlimit:4;stroke-opacity:1;stroke-dasharray:none" />
      <path
         d="m 3.5184999,-2.4999999 3.963,0.0185"
         id="path3698"
         style="opacity:0.72000002;fill:none;stroke:#ffffff;stroke-width:0.96299988;stroke-linecap:square;stroke-linejoin:round;stroke-miterlimit:4;stroke-opacity:1;stroke-dasharray:none" />
      <path
         d="m 17.4815,14.5185 0.037,-5.0369987"
         id="path3700"
         style="opacity:0.72000002;fill:none;stroke:#ffffff;stroke-width:0.96299988;stroke-linecap:square;stroke-linejoin:round;stroke-miterlimit:4;stroke-opacity:1;stroke-dasharray:none" />
      <path
         d="m 18.4445,13.518501 -3.963,-0.0185"
         id="path3702"
         style="opacity:0.72000002;fill:none;stroke:#ffffff;stroke-width:0.96299988;stroke-linecap:square;stroke-linejoin:round;stroke-miterlimit:4;stroke-opacity:1;stroke-dasharray:none" />
    </g>
    <path
       d="m 4.842102,14 3.691817,0 0,1 -3.691817,0 0,-1 z"
       id="path3176"
       style="opacity:0.6;fill:#ffffff;fill-opacity:1;stroke:none;display:inline" />
    <path
       d="m 8.807863,14 1.776154,0 0,1 -1.776154,0 0,-1 z"
       id="path3174"
       style="opacity:0.6;fill:#ffffff;fill-opacity:1;stroke:none;display:inline" />
    <path
       d="m 10.958783,14 0.835125,0 0,1 -0.835125,0 0,-1 z"
       id="path3172"
       style="opacity:0.6;fill:#ffffff;fill-opacity:1;stroke:none;display:inline" />
    <path
       d="m 12.000635,14 1.608114,0 0,1 -1.608114,0 0,-1 z"
       id="path3170"
       style="opacity:0.6;fill:#ffffff;fill-opacity:1;stroke:none;display:inline" />
    <path
       d="m 13.882683,14 1.608115,0 0,1 -1.608115,0 0,-1 z"
       id="path3168"
       style="opacity:0.6;fill:#ffffff;fill-opacity:1;stroke:none;display:inline" />
    <path
       d="m 16,14 2.582748,0 0,1 L 16,15 16,14 z"
       id="path3166"
       style="opacity:0.6;fill:#ffffff;fill-opacity:1;stroke:none;display:inline" />
    <path
       d="m 4.842102,12 3.061572,0 0,1 -3.061572,0 0,-1 z"
       id="path3158"
       style="opacity:0.6;fill:#ffffff;fill-opacity:1;stroke:none;display:inline" />
    <path
       d="m 8.228912,12 5.083544,0 0,1 -5.083544,0 0,-1 z"
       id="path3156"
       style="opacity:0.6;fill:#ffffff;fill-opacity:1;stroke:none;display:inline" />
    <path
       d="m 13.637694,12 2.454976,0 0,1 -2.454976,0 0,-1 z"
       id="path3154"
       style="opacity:0.6;fill:#ffffff;fill-opacity:1;stroke:none;display:inline" />
    <path
       d="m 16.417908,12 2.286488,0 0,1 -2.286488,0 0,-1 z"
       id="path3146"
       style="opacity:0.6;fill:#ffffff;fill-opacity:1;stroke:none;display:inline" />
    <path
       d="m 4.842102,15.99828 3.868703,0 0,1 -3.868703,0 0,-1 z"
       id="path35069"
       style="opacity:0.6;fill:#ffffff;fill-opacity:1;stroke:none;display:inline" />
    <path
       d="m 9.030257,15.99828 1.218185,0 0,1 -1.218185,0 0,-1 0,0 z"
       id="path35067"
       style="opacity:0.6;fill:#ffffff;fill-opacity:1;stroke:none;display:inline" />
    <path
       d="m 10.567894,15.99828 2.781317,0 0,1 -2.781317,0 0,-1 z"
       id="path35065"
       style="opacity:0.6;fill:#ffffff;fill-opacity:1;stroke:none;display:inline" />
    <path
       d="m 13.668663,15.99828 1.89781,0 0,1 -1.89781,0 0,-1 z"
       id="path35063"
       style="opacity:0.6;fill:#ffffff;fill-opacity:1;stroke:none;display:inline" />
    <path
       d="m 4.842102,17.99828 3.796419,0 0,1 -3.796419,0 0,-1 z"
       id="path35051"
       style="opacity:0.6;fill:#ffffff;fill-opacity:1;stroke:none;display:inline" />
    <path
       d="m 11.098808,17.99828 2.438723,0 0,1 -2.438723,0 0,-1 z"
       id="path35049"
       style="opacity:0.6;fill:#ffffff;fill-opacity:1;stroke:none;display:inline" />
    <path
       d="m 13.887744,17.99828 2.235065,0 0,1 -2.235065,0 0,-1 z"
       id="path35047"
       style="opacity:0.6;fill:#ffffff;fill-opacity:1;stroke:none;display:inline" />
    <path
       d="m 8.988724,17.99828 1.759881,0 0,1 -1.759881,0 0,-1 0,0 z"
       id="path35006"
       style="opacity:0.6;fill:#ffffff;fill-opacity:1;stroke:none;display:inline" />
  </g>
</svg>
