<?xml version="1.0" encoding="UTF-8" standalone="no"?>
<!-- Created with Inkscape (http://www.inkscape.org/) -->
<svg
   xmlns:svg="http://www.w3.org/2000/svg"
   xmlns="http://www.w3.org/2000/svg"
   xmlns:xlink="http://www.w3.org/1999/xlink"
   version="1.0"
   width="16"
   height="16"
   id="svg3777">
  <defs
     id="defs3779">
    <linearGradient
       id="linearGradient3587-6-5">
      <stop
         id="stop3589-9-2"
         style="stop-color:#000000;stop-opacity:1"
         offset="0" />
      <stop
         id="stop3591-7-4"
         style="stop-color:#363636;stop-opacity:1"
         offset="1" />
    </linearGradient>
    <linearGradient
       x1="15.812491"
       y1="4.3296566"
       x2="15.812491"
       y2="36.47921"
       id="linearGradient3771"
       xlink:href="#linearGradient3587-6-5"
       gradientUnits="userSpaceOnUse"
       gradientTransform="matrix(0.4562818,0,0,0.4673978,-3.4200948,-1.485266)" />
  </defs>
  <g
     id="layer1">
    <path
       d="M 5.0283795,1.9919079 C 4.3510748,2.0109919 3.5903538,2.2142491 3.1896669,2.8200455 C 2.9005892,3.2649285 2.9903167,3.8140398 2.9751114,4.3181451 C 2.9797045,6.1324116 2.9637899,7.9468265 2.9880524,9.7609642 C 2.9345489,12.026088 2.7905625,13.531813 4.4057654,15.090845 C 5.2945038,15.531795 6.6417157,15.969416 7.6115669,15.997113 C 9.0784599,15.99955 10.545596,16.002815 12.012378,15.995571 C 12.448868,15.995465 12.796547,15.637368 12.915782,15.227693 C 13.08718,14.658825 13.076915,14.006173 12.805637,13.471231 C 12.641747,13.13253 12.274566,12.954861 11.915383,12.975756 C 10.882647,12.97085 9.849489,12.985063 8.8170041,12.968757 C 8.2570788,12.945718 7.544699,12.691216 7.2797722,12.166338 C 6.9320772,11.488447 7.0689538,10.66909 7.0432378,9.9221968 C 7.0412817,9.414062 7.0266246,8.9042161 7.0474734,8.3969535 C 7.1019571,8.0485397 7.4813007,7.9665993 7.7701056,8.0096546 C 9.2431704,8.0062566 10.716548,8.0163248 12.189417,8.0044492 C 12.548406,8.010981 12.848447,7.7290617 12.933366,7.3826339 C 13.085941,6.8165535 13.086031,6.1966512 12.908837,5.6364137 C 12.799,5.2801216 12.496177,4.9595209 12.109431,4.9730222 C 10.560602,4.9711503 9.0116028,4.9918321 7.4627994,4.9841107 C 7.18464,4.966536 7.0014551,4.6772952 7.0388712,4.40742 C 7.0339387,3.9706618 7.0492812,3.5329858 7.0301452,3.0968635 C 6.9608438,2.5907453 6.4762944,2.3064409 6.0484417,2.1512282 C 5.7211517,2.0371855 5.3737488,1.9855087 5.0283795,1.9919079 z"
       id="path3773"
       style="opacity:0.6;fill:#ffffff;fill-opacity:1;fill-rule:evenodd;stroke:none;stroke-width:2.1654098;stroke-linecap:butt;stroke-linejoin:miter;marker:none;marker-start:none;marker-mid:none;marker-end:none;stroke-miterlimit:4;stroke-dasharray:none;stroke-dashoffset:0;stroke-opacity:1;visibility:visible;display:inline;overflow:visible;enable-background:accumulate" />
    <path
       d="M 5.0283795,1.0140921 C 4.3510748,1.0331761 3.5903538,1.2364333 3.1896669,1.8422297 C 2.9005892,2.2871127 2.9903167,2.836224 2.9751114,3.3403293 C 2.9797045,5.1545958 2.9637899,6.9690107 2.9880524,8.7831484 C 2.9345489,11.048272 2.7905625,12.553997 4.4057654,14.113029 C 5.2945038,14.553979 6.6417157,14.9916 7.6115669,15.019297 C 9.0784599,15.021734 10.545596,15.024999 12.012378,15.017755 C 12.448868,15.017649 12.796547,14.659552 12.915782,14.249877 C 13.08718,13.681009 13.076915,13.028357 12.805637,12.493415 C 12.641747,12.154714 12.274566,11.977045 11.915383,11.99794 C 10.882647,11.993034 9.849489,12.007247 8.8170041,11.990941 C 8.2570788,11.967902 7.544699,11.7134 7.2797722,11.188522 C 6.9320772,10.510631 7.0689538,9.6912738 7.0432378,8.944381 C 7.0412817,8.4362462 7.0266246,7.9264003 7.0474734,7.4191377 C 7.1019571,7.0707239 7.4813007,6.9887835 7.7701056,7.0318388 C 9.2431704,7.0284408 10.716548,7.038509 12.189417,7.0266334 C 12.548406,7.0331652 12.848447,6.7512459 12.933366,6.4048181 C 13.085941,5.8387377 13.086031,5.2188354 12.908837,4.6585979 C 12.799,4.3023058 12.496177,3.9817051 12.109431,3.9952064 C 10.560602,3.9933345 9.0116028,4.0140163 7.4627994,4.0062949 C 7.18464,3.9887202 7.0014551,3.6994794 7.0388712,3.4296042 C 7.0339387,2.992846 7.0492812,2.55517 7.0301452,2.1190477 C 6.9608438,1.6129295 6.4762944,1.3286251 6.0484417,1.1734124 C 5.7211517,1.0593697 5.3737488,1.0076929 5.0283795,1.0140921 z"
       id="path3762"
       style="opacity:0.7;fill:url(#linearGradient3771);fill-opacity:1;fill-rule:evenodd;stroke:none;stroke-width:2.1654098;stroke-linecap:butt;stroke-linejoin:miter;marker:none;marker-start:none;marker-mid:none;marker-end:none;stroke-miterlimit:4;stroke-dasharray:none;stroke-dashoffset:0;stroke-opacity:1;visibility:visible;display:inline;overflow:visible;enable-background:accumulate" />
  </g>
</svg>
