<?xml version="1.0" encoding="UTF-8" standalone="no"?>
<!-- Created with Inkscape (http://www.inkscape.org/) -->

<svg
   xmlns:dc="http://purl.org/dc/elements/1.1/"
   xmlns:cc="http://creativecommons.org/ns#"
   xmlns:rdf="http://www.w3.org/1999/02/22-rdf-syntax-ns#"
   xmlns:svg="http://www.w3.org/2000/svg"
   xmlns="http://www.w3.org/2000/svg"
   xmlns:xlink="http://www.w3.org/1999/xlink"
   xmlns:sodipodi="http://sodipodi.sourceforge.net/DTD/sodipodi-0.dtd"
   xmlns:inkscape="http://www.inkscape.org/namespaces/inkscape"
   width="24"
   height="24"
   id="svg3925"
   version="1.1"
   inkscape:version="0.47 r22583"
   sodipodi:docname="applications-multimedia.svg">
  <defs
     id="defs3927">
    <linearGradient
       inkscape:collect="always"
       xlink:href="#linearGradient2372-378"
       id="linearGradient3005"
       gradientUnits="userSpaceOnUse"
       gradientTransform="matrix(0.3389271,0,0,0.1664163,14.123508,-24.768028)"
       x1="28.739122"
       y1="144.11652"
       x2="26.256771"
       y2="125.39074" />
    <linearGradient
       id="linearGradient2372-378">
      <stop
         id="stop3245"
         style="stop-color:white;stop-opacity:1"
         offset="0" />
      <stop
         id="stop3247"
         style="stop-color:white;stop-opacity:0.37931034"
         offset="1" />
    </linearGradient>
    <linearGradient
       inkscape:collect="always"
       xlink:href="#linearGradient2372-270"
       id="linearGradient3008"
       gradientUnits="userSpaceOnUse"
       gradientTransform="matrix(0.1684427,0,0,0.1664163,9.1569719,-23.590696)"
       x1="28.739122"
       y1="144.11652"
       x2="25.400293"
       y2="119.86452" />
    <linearGradient
       id="linearGradient2372-270">
      <stop
         id="stop3239"
         style="stop-color:white;stop-opacity:1"
         offset="0" />
      <stop
         id="stop3241"
         style="stop-color:white;stop-opacity:0.37931034"
         offset="1" />
    </linearGradient>
    <radialGradient
       inkscape:collect="always"
       xlink:href="#linearGradient7067-561-456-275"
       id="radialGradient3011"
       gradientUnits="userSpaceOnUse"
       gradientTransform="matrix(0.5044945,0,-0.08259045,0.4742311,14.688836,-8.9890424)"
       cx="17.058823"
       cy="41.058823"
       fx="14.109128"
       fy="38.980988"
       r="5.7384715" />
    <linearGradient
       id="linearGradient7067-561-456-275">
      <stop
         id="stop3871"
         style="stop-color:#aaa;stop-opacity:1"
         offset="0" />
      <stop
         id="stop3873"
         style="stop-color:#4d4d4d;stop-opacity:1"
         offset="1" />
    </linearGradient>
    <radialGradient
       inkscape:collect="always"
       xlink:href="#linearGradient7067-814-120-245"
       id="radialGradient3014"
       gradientUnits="userSpaceOnUse"
       gradientTransform="matrix(0.5057552,0,-0.08279685,0.4754162,5.7349922,-7.7244793)"
       cx="17.058823"
       cy="41.058823"
       fx="14.638257"
       fy="38.175381"
       r="5.7384715" />
    <linearGradient
       id="linearGradient7067-814-120-245">
      <stop
         id="stop3877"
         style="stop-color:#aaa;stop-opacity:1"
         offset="0" />
      <stop
         id="stop3879"
         style="stop-color:#4d4d4d;stop-opacity:1"
         offset="1" />
    </linearGradient>
    <radialGradient
       inkscape:collect="always"
       xlink:href="#linearGradient5670-612"
       id="radialGradient3018"
       gradientUnits="userSpaceOnUse"
       gradientTransform="matrix(0.5770667,0,0,0.2430428,-2.6541892,2.931456)"
       cx="22.90196"
       cy="45.866665"
       fx="22.90196"
       fy="45.866665"
       r="7.9058824" />
    <linearGradient
       id="linearGradient5670-612">
      <stop
         id="stop3203"
         style="stop-color:black;stop-opacity:1"
         offset="0" />
      <stop
         id="stop3205"
         style="stop-color:black;stop-opacity:0"
         offset="1" />
    </linearGradient>
    <radialGradient
       inkscape:collect="always"
       xlink:href="#linearGradient5670-725"
       id="radialGradient3021"
       gradientUnits="userSpaceOnUse"
       gradientTransform="matrix(0.5306029,0,0,0.2234737,7.4709011,2.491967)"
       cx="22.90196"
       cy="45.866665"
       fx="22.90196"
       fy="45.866665"
       r="7.9058824" />
    <linearGradient
       id="linearGradient5670-725">
      <stop
         id="stop3197"
         style="stop-color:black;stop-opacity:1"
         offset="0" />
      <stop
         id="stop3199"
         style="stop-color:black;stop-opacity:0"
         offset="1" />
    </linearGradient>
    <linearGradient
       inkscape:collect="always"
       xlink:href="#linearGradient7012-661-145-733-759-865-745-661-970-94"
       id="linearGradient3038"
       gradientUnits="userSpaceOnUse"
       gradientTransform="matrix(0.8074178,0,0,0.7546417,-0.4469554,-7.2197914)"
       x1="12.872127"
       y1="5.0561161"
       x2="12.872127"
       y2="21.467987" />
    <linearGradient
       id="linearGradient7012-661-145-733-759-865-745-661-970-94">
      <stop
         offset="0"
         style="stop-color:#f0c178;stop-opacity:1"
         id="stop3618" />
      <stop
         offset="0.5"
         style="stop-color:#e18941;stop-opacity:1"
         id="stop3270" />
      <stop
         offset="1"
         style="stop-color:#ec4f18;stop-opacity:1"
         id="stop3620" />
    </linearGradient>
    <linearGradient
       inkscape:collect="always"
       xlink:href="#linearGradient3582"
       id="linearGradient3040"
       gradientUnits="userSpaceOnUse"
       gradientTransform="matrix(1.027427,0,0,0.9688625,-0.337368,-7.7448452)"
       x1="5.6597543"
       y1="18.299864"
       x2="5.6597543"
       y2="1" />
    <linearGradient
       id="linearGradient3582">
      <stop
         id="stop3584"
         style="stop-color:#333;stop-opacity:1"
         offset="0" />
      <stop
         id="stop3586"
         style="stop-color:#5a5a5a;stop-opacity:1"
         offset="1" />
    </linearGradient>
    <linearGradient
       inkscape:collect="always"
       xlink:href="#linearGradient3932"
       id="linearGradient3043"
       gradientUnits="userSpaceOnUse"
       gradientTransform="matrix(0.9846423,0,0,0.9700961,0.09316947,-7.7566158)"
       x1="5.0678191"
       y1="4.5037227"
       x2="5.0678191"
       y2="18.154421" />
    <linearGradient
       id="linearGradient3932">
      <stop
         id="stop3934"
         style="stop-color:#828282;stop-opacity:1"
         offset="0" />
      <stop
         id="stop3936"
         style="stop-color:#434343;stop-opacity:1"
         offset="1" />
    </linearGradient>
    <linearGradient
       inkscape:collect="always"
       xlink:href="#linearGradient3582"
       id="linearGradient3045"
       gradientUnits="userSpaceOnUse"
       gradientTransform="matrix(0.9846423,0,0,0.9700961,0.09316947,-7.7566158)"
       x1="2.6708329"
       y1="18.300243"
       x2="2.6708329"
       y2="0.7810511" />
    <radialGradient
       cx="605.71429"
       cy="486.64789"
       r="117.14286"
       fx="605.71429"
       fy="486.64789"
       id="radialGradient4327"
       xlink:href="#linearGradient5060"
       gradientUnits="userSpaceOnUse"
       gradientTransform="matrix(0.02428835,0,0,0.01181249,0.3129068,11.79412)" />
    <linearGradient
       id="linearGradient5060">
      <stop
         id="stop5062"
         style="stop-color:black;stop-opacity:1"
         offset="0" />
      <stop
         id="stop5064"
         style="stop-color:black;stop-opacity:0"
         offset="1" />
    </linearGradient>
    <linearGradient
       x1="302.85715"
       y1="366.64789"
       x2="302.85715"
       y2="609.50507"
       id="linearGradient4329"
       xlink:href="#linearGradient5048"
       gradientUnits="userSpaceOnUse"
       gradientTransform="matrix(0.02274695,0,0,0.01180411,1.286836,11.799198)" />
    <linearGradient
       id="linearGradient5048">
      <stop
         id="stop5050"
         style="stop-color:black;stop-opacity:0"
         offset="0" />
      <stop
         id="stop5056"
         style="stop-color:black;stop-opacity:1"
         offset="0.5" />
      <stop
         id="stop5052"
         style="stop-color:black;stop-opacity:0"
         offset="1" />
    </linearGradient>
    <radialGradient
       r="117.14286"
       fy="486.64789"
       fx="605.71429"
       cy="486.64789"
       cx="605.71429"
       gradientTransform="matrix(-0.02422947,0,0,0.01180411,18.618613,11.799198)"
       gradientUnits="userSpaceOnUse"
       id="radialGradient3923"
       xlink:href="#linearGradient5060"
       inkscape:collect="always" />
  </defs>
  <sodipodi:namedview
     id="base"
     pagecolor="#ffffff"
     bordercolor="#666666"
     borderopacity="1.0"
     inkscape:pageopacity="0.0"
     inkscape:pageshadow="2"
     inkscape:zoom="7.8481082"
     inkscape:cx="8"
     inkscape:cy="8"
     inkscape:current-layer="layer1"
     showgrid="true"
     inkscape:grid-bbox="true"
     inkscape:document-units="px"
     inkscape:window-width="603"
     inkscape:window-height="484"
     inkscape:window-x="417"
     inkscape:window-y="198"
     inkscape:window-maximized="0" />
  <metadata
     id="metadata3930">
    <rdf:RDF>
      <cc:Work
         rdf:about="">
        <dc:format>image/svg+xml</dc:format>
        <dc:type
           rdf:resource="http://purl.org/dc/dcmitype/StillImage" />
        <dc:title></dc:title>
      </cc:Work>
    </rdf:RDF>
  </metadata>
  <g
     id="layer1"
     inkscape:label="Layer 1"
     inkscape:groupmode="layer"
     transform="translate(0,8)">
    <g
       style="display:inline"
       id="g4322"
       transform="translate(0.01283355,-8.0000001)">
      <path
         style="opacity:0.40206185;fill:url(#radialGradient4327);fill-opacity:1;fill-rule:nonzero;stroke:none;stroke-width:0.75;marker:none;visibility:visible;display:inline;overflow:visible"
         id="path5058"
         d="m 14.950532,16.125243 c 0,0 0,2.868588 0,2.868588 1.25079,0.0054 3.023802,-0.642705 3.023801,-1.434478 0,-0.791774 -1.395788,-1.43411 -3.023801,-1.43411 l 0,0 z" />
      <rect
         style="opacity:0.40206185;fill:url(#linearGradient4329);fill-opacity:1;fill-rule:nonzero;stroke:none;stroke-width:0.75;marker:none;visibility:visible;display:inline;overflow:visible"
         id="rect4173"
         y="16.127151"
         x="4.0164704"
         height="2.8667126"
         width="10.98353" />
      <path
         style="opacity:0.40206185;fill:url(#radialGradient3923);fill-opacity:1;fill-rule:nonzero;stroke:none;stroke-width:0.75;marker:none;visibility:visible;display:inline;overflow:visible"
         id="path5018"
         d="m 4.0164708,16.127249 c 0,0 0,2.866554 0,2.866554 -1.2477579,0.0054 -3.01647085,-0.642249 -3.01647085,-1.433461 0,-0.791212 1.39240355,-1.433093 3.01647085,-1.433093 z" />
    </g>
    <path
       style="fill:url(#linearGradient3043);fill-opacity:1;fill-rule:nonzero;stroke:url(#linearGradient3045);stroke-width:0.97734219;stroke-linecap:butt;stroke-linejoin:round;stroke-miterlimit:4;stroke-opacity:1;stroke-dasharray:none;stroke-dashoffset:0;marker:none;visibility:visible;display:block;overflow:visible"
       id="path3385"
       d="m 5.0374533,9.511112 c -0.8143479,0 -1.6286962,0 -2.4430441,0 -0.1979362,-0.189711 -0.047423,-0.566366 -0.094453,-0.83494 0,-5.031738 0,-10.0634785 0,-15.0952182 l 0.027604,-0.065158 0.066849,-0.026906 0,0 c 0.8475705,0 1.5622515,0 2.4098219,0 m 8.9834949,-2.197e-4 c 0.81372,0 1.623958,0 2.428115,0 0.114155,0 0.09446,0.5029833 0.09446,0.8344023 0,5.0285085 1e-6,10.0570166 1e-6,15.0855256 -0.194648,0.192804 -0.581098,0.04619 -0.856661,0.09201 -0.548493,0 -1.096985,0 -1.645476,0" />
    <rect
       style="fill:url(#linearGradient3038);fill-opacity:1;stroke:url(#linearGradient3040);stroke-width:0.99771523;stroke-linecap:butt;stroke-linejoin:miter;stroke-miterlimit:4;stroke-opacity:1;stroke-dasharray:none;stroke-dashoffset:0;display:inline"
       id="rect3457"
       y="-6.500668"
       x="4.4988575"
       ry="0"
       rx="0"
       height="16.001337"
       width="10.002285" />
    <path
       style="opacity:0.36637932;fill:none;stroke:#ffffff;stroke-width:0.97318149;stroke-linecap:square;stroke-linejoin:round;stroke-miterlimit:4;stroke-opacity:1;stroke-dasharray:none;stroke-dashoffset:0;marker:none;visibility:visible;display:block;overflow:visible"
       id="rect15660"
       d="m 5.4813648,-5.4918735 c 2.6790905,0 5.3581812,0 8.0372742,0" />
    <g
       style="display:inline"
       id="g2693"
       transform="matrix(1.2528457,0,0,0.9903337,0.1602798,-7.9849504)">
      <rect
         style="fill:#ffffff;fill-opacity:1;stroke:none"
         id="rect3464"
         y="2.189693"
         x="2.2666161"
         height="0.69870818"
         width="0.78592473" />
      <rect
         style="fill:#ffffff;fill-opacity:1;stroke:none"
         id="rect3466"
         y="3.7446673"
         x="2.2666161"
         height="0.69870818"
         width="0.78592473" />
      <rect
         style="fill:#ffffff;fill-opacity:1;stroke:none"
         id="rect3468"
         y="5.2996411"
         x="2.2666161"
         height="0.69870818"
         width="0.78592473" />
      <rect
         style="fill:#ffffff;fill-opacity:1;stroke:none"
         id="rect3470"
         y="6.8546152"
         x="2.2666161"
         height="0.69870818"
         width="0.78592473" />
      <rect
         style="fill:#ffffff;fill-opacity:1;stroke:none"
         id="rect3472"
         y="8.4095888"
         x="2.2666161"
         height="0.69870818"
         width="0.78592473" />
      <rect
         style="fill:#ffffff;fill-opacity:1;stroke:none"
         id="rect3474"
         y="9.9645624"
         x="2.2666161"
         height="0.69870818"
         width="0.78592473" />
      <rect
         style="fill:#ffffff;fill-opacity:1;stroke:none"
         id="rect3476"
         y="11.519536"
         x="2.2666161"
         height="0.69870818"
         width="0.78592473" />
      <rect
         style="fill:#ffffff;fill-opacity:1;stroke:none"
         id="rect3478"
         y="13.074511"
         x="2.2666161"
         height="0.69870818"
         width="0.78592473" />
      <rect
         style="fill:#ffffff;fill-opacity:1;stroke:none"
         id="rect3480"
         y="14.629483"
         x="2.2666161"
         height="0.69870818"
         width="0.78592473" />
      <rect
         style="fill:#ffffff;fill-opacity:1;stroke:none"
         id="rect3482"
         y="16.184458"
         x="2.2666161"
         height="0.69870818"
         width="0.78592473" />
    </g>
    <path
       style="opacity:0.36637932;fill:none;stroke:#ffffff;stroke-width:0.97318149;stroke-linecap:square;stroke-linejoin:round;stroke-miterlimit:4;stroke-opacity:1;stroke-dasharray:none;stroke-dashoffset:0;marker:none;visibility:visible;display:block;overflow:visible"
       id="path4318"
       d="m 5.4865907,2.513409 c 2.6790905,0 5.3581813,0 8.0372723,0" />
    <path
       style="fill:none;stroke:#464646;stroke-width:0.97318149;stroke-linecap:square;stroke-linejoin:round;stroke-miterlimit:4;stroke-opacity:1;stroke-dasharray:none;stroke-dashoffset:0;marker:none;visibility:visible;display:block;overflow:visible"
       id="path4320"
       d="m 5.4865907,1.5134092 c 2.6790905,0 5.3581813,0 8.0372723,0" />
    <path
       style="opacity:0.3;fill:url(#radialGradient3021);fill-opacity:1;stroke:none"
       id="path2704"
       d="m 23.81763,12.741968 c -0.0025,0.975015 -1.879865,1.764869 -4.194882,1.764869 -2.315017,0 -4.192405,-0.789854 -4.194881,-1.764869 -0.0016,-0.631652 0.797585,-1.215612 2.096144,-1.531633 1.298559,-0.316021 2.898915,-0.316021 4.197474,0 1.298559,0.316021 2.097749,0.899981 2.096145,1.531633 l 0,0 z" />
    <path
       style="opacity:0.3;fill:url(#radialGradient3018);fill-opacity:1;stroke:none"
       id="path4121"
       d="m 15.123993,14.079026 c 0,1.061199 -2.042576,1.92147 -4.562223,1.92147 -2.5196456,0 -4.562222,-0.860271 -4.562222,-1.92147 0,-1.061199 2.0425764,-1.92147 4.562222,-1.92147 2.519647,0 4.562223,0.860271 4.562223,1.92147 l 0,0 z" />
    <path
       style="fill:#4d4d4d;fill-opacity:1;stroke:#333333;stroke-width:1;stroke-linecap:round;stroke-linejoin:round;stroke-miterlimit:4;stroke-opacity:1;stroke-dasharray:none"
       id="path4031"
       d="m 22.650673,-4.508691 c -3.138748,0.4909342 -6.260348,0.9963132 -9.390366,1.5146659 -0.828847,0.3925189 -0.64251,1.4032624 -0.67918,2.1366501 0,3.272519 0,6.545039 0,9.817558 -2.130198,-0.478261 -4.9558046,1.082171 -5.0481891,3.300286 -0.1508079,1.380949 1.1108399,2.582986 2.4827661,2.61531 2.45638,0.05787 4.457654,-1.523949 4.484299,-3.524446 -0.02683,-3.359718 0.0075,-6.720758 0,-10.0809914 0.380277,-0.027337 6.482038,-1.0941006 6.999995,-1.1651275 0,2.5166759 0,5.0333509 0,7.5500269 -1.964811,-0.567663 -4.218153,0.618744 -4.702023,2.607288 -0.358021,1.151945 0.181763,2.513682 1.346986,2.985639 2.27471,1.014525 5.474278,-1.040504 5.347325,-3.452335 -0.03523,-4.480006 0.02888,-8.9618453 0,-13.4423296 -0.05974,-0.4210412 -0.353685,-0.8925865 -0.841613,-0.8621944 z" />
    <path
       style="fill:url(#radialGradient3014);fill-opacity:1;stroke:none"
       id="path2937"
       d="m 13.926082,11.299245 c -9.2e-5,1.482648 -1.326664,2.90672 -2.963042,3.180819 C 9.3266629,14.754162 8.0000915,13.7745 8,12.291883 c 9.19e-5,-1.482648 1.3266636,-2.90672 2.963041,-3.180819 1.636378,-0.274098 2.96295,0.705564 2.963041,2.188181 l 0,0 z" />
    <path
       style="fill:url(#radialGradient3011);fill-opacity:1;stroke:none"
       id="path2941"
       d="m 22.866886,9.986024 c 0.0012,0.959639 -0.563335,1.941569 -1.480579,2.575432 -0.917244,0.633864 -2.047671,0.823214 -2.964917,0.496634 -0.917245,-0.32658 -1.481742,-1.119399 -1.480578,-2.079428 0.0018,-1.48184 1.327865,-2.904124 2.963037,-3.178021 1.635171,-0.273896 2.961243,0.704145 2.963038,2.185383 z" />
    <path
       style="opacity:0.3;fill:url(#linearGradient3008);fill-opacity:1;fill-rule:evenodd;stroke:none"
       id="path2945"
       d="m 13.071495,9.410934 -0.07149,-11.2219931 c 0,0 0.07826,-0.8579116 0.658768,-0.8605267 0.205886,-0.03496 9.230351,-1.4948304 9.230351,-1.4948304 0,0 1.165234,0.5429398 -8.377708,2.0643986 -0.978908,0.1845618 -0.760562,0.5451979 -0.760562,1.1785273 0,1.7082183 2e-6,4.4913233 2e-6,10.7111933 0,0.0445 -0.433358,-0.315288 -0.679363,-0.376769 l 4e-6,0 z" />
    <path
       style="opacity:0.3;fill:url(#linearGradient3005);fill-opacity:1;fill-rule:evenodd;stroke:none"
       id="path2947"
       d="m 21.999998,8.11932 0.04518,-8.4774936 c 0.476042,-0.041747 0.07309,-0.00671 0.715009,-0.069248 0.0088,1.5835093 3.65e-4,2.8978946 3.65e-4,8.8783896 0,0.0445 -0.265557,-0.270168 -0.760551,-0.331648 l -3e-6,0 z" />
  </g>
</svg>
