<?xml version="1.0" encoding="UTF-8" standalone="no"?>
<svg
   xmlns:dc="http://purl.org/dc/elements/1.1/"
   xmlns:cc="http://creativecommons.org/ns#"
   xmlns:rdf="http://www.w3.org/1999/02/22-rdf-syntax-ns#"
   xmlns:svg="http://www.w3.org/2000/svg"
   xmlns="http://www.w3.org/2000/svg"
   height="16"
   id="svg7384"
   version="1.1"
   width="16">
  <metadata
     id="metadata90">
    <rdf:RDF>
      <cc:Work
         rdf:about="">
        <dc:format>image/svg+xml</dc:format>
        <dc:type
           rdf:resource="http://purl.org/dc/dcmitype/StillImage" />
        <dc:title>elementary Symbolic Icon Theme</dc:title>
      </cc:Work>
    </rdf:RDF>
  </metadata>
  <title
     id="title9167">elementary Symbolic Icon Theme</title>
  <defs
     id="defs7386" />
  <g
     id="layer9"
     style="display:inline"
     transform="translate(-333.0004,582)">
    <path
       d="m 333.0004,-576 0,4 1.65207,0 3.34793,3.36924 0,-10.73848 -3.34793,3.36924 z"
       id="path12048"
       style="color:#bebebe;display:inline;overflow:visible;visibility:visible;opacity:0.35;fill:#bebebe;fill-opacity:1;fill-rule:nonzero;stroke:none;stroke-width:1.82310748;marker:none;enable-background:accumulate" />
    <path
       style="color:#bebebe;display:inline;overflow:visible;visibility:visible;opacity:0.4;fill:#bebebe;fill-opacity:1;fill-rule:nonzero;stroke:none;stroke-width:1.82310748;marker:none;enable-background:accumulate"
       d="m 341.0002,-576 0,1 1,1 -1,1 0,1 1,0 1,-1 1,1 1,0 0,-1 -1,-1 1,-1 0,-1 -1,0 -1,1 -1,-1 z"
       id="path3934-0-6-7" />
  </g>
  <g
     id="layer10"
     style="display:inline"
     transform="translate(-333.0004,582)" />
  <g
     id="layer11"
     transform="translate(-333.0004,582)" />
  <g
     id="layer13"
     style="display:inline"
     transform="translate(-333.0004,582)" />
  <g
     id="layer14"
     transform="translate(-333.0004,582)" />
  <g
     id="layer15"
     style="display:inline"
     transform="translate(-333.0004,582)" />
  <g
     id="g71291"
     style="display:inline"
     transform="translate(-333.0004,582)" />
  <g
     id="g4953"
     style="display:inline"
     transform="translate(-333.0004,582)" />
  <g
     id="layer12"
     style="display:inline"
     transform="translate(-333.0004,582)" />
</svg>
