<?xml version="1.0" encoding="UTF-8" standalone="no"?>
<svg
   height="16"
   width="16"
   version="1.1"
   id="svg10"
   xmlns="http://www.w3.org/2000/svg"
   xmlns:svg="http://www.w3.org/2000/svg">
  <defs
     id="defs14" />
  <path
     id="path453"
     style="font-variation-settings:normal;vector-effect:none;fill:#555761;fill-opacity:1;stroke:none;stroke-width:4;stroke-linecap:round;stroke-linejoin:round;stroke-miterlimit:4;stroke-dasharray:none;stroke-dashoffset:0;stroke-opacity:1;-inkscape-stroke:none;stop-color:#000000"
     d="M 8,3 C 7.7385489,3 7.5020349,3.1005314 7.3242188,3.2636719 L 4,6 H 3 C 2.4460006,6 2,6.4460006 2,7 v 2 c 0,0.5539994 0.4460006,1 1,1 h 1 l 3.3457031,2.753906 c 0.00629,0.0055 0.011153,0.01228 0.017578,0.01758 l 0.023438,0.01758 C 7.5559519,12.920481 7.76818,13 8,13 8.5539994,13 9,12.553999 9,12 V 4 C 9,3.4460006 8.5539994,3 8,3 Z m 3.332031,1 c -0.414213,0 -0.75,0.3357864 -0.75,0.75 7.95e-4,0.1183201 0.02957,0.2347734 0.08398,0.3398438 l -0.0039,0.00195 C 11.206708,5.964083 11.495653,6.9716659 11.496094,8 c -4.41e-4,1.0283341 -0.289386,2.035917 -0.833985,2.908203 l 0.0039,0.002 c -0.05441,0.105071 -0.08319,0.221524 -0.08398,0.339844 0,0.414214 0.335787,0.75 0.75,0.75 0.236412,7.69e-4 0.459347,-0.109975 0.601563,-0.298828 l 0.0059,0.0039 C 12.632676,10.593611 13.000119,9.30993 13,8 13.000119,6.6900699 12.632676,5.4063888 11.939453,4.2949219 l -0.0059,0.00391 C 11.791378,4.1099747 11.568443,3.9992308 11.332031,4 Z" />
</svg>
