<?xml version="1.0" encoding="UTF-8" standalone="no"?>
<!-- Created with Inkscape (http://www.inkscape.org/) -->
<svg id="svg7384" xmlns:rdf="http://www.w3.org/1999/02/22-rdf-syntax-ns#" xmlns="http://www.w3.org/2000/svg" height="16" width="16" version="1.1" xmlns:cc="http://creativecommons.org/ns#" xmlns:dc="http://purl.org/dc/elements/1.1/">
 <metadata id="metadata90">
  <rdf:RDF>
   <cc:Work rdf:about="">
    <dc:format>image/svg+xml</dc:format>
    <dc:type rdf:resource="http://purl.org/dc/dcmitype/StillImage"/>
    <dc:title>Gnome Symbolic Icon Theme</dc:title>
   </cc:Work>
  </rdf:RDF>
 </metadata>
 <title id="title9167">Gnome Symbolic Icon Theme</title>
 <g id="layer9" transform="translate(-101 -217)">
  <path id="rect6060-0" style="fill:#c00" d="m104 228v2h2.0002v-2l-2.0002 0.00001z" class="error"/>
  <path id="path6062-4" style="block-progression:tb;text-indent:0;color:#bebebe;text-transform:none;fill:#bebebe" d="m104.47 217.03c-0.49033 0-0.79607 0.22846-1.0312 0.46875-0.23518 0.24029-0.4375 0.5585-0.4375 1.0312v0.46875h-1-1v1 12 1h1 4v-2h-3v-10h1 1v-1-0.96875h3v0.96875 1h1 1v3h2v-4-1h-1-1v-0.34375-0.0312c-0.0239-0.4306-0.17023-0.7523-0.40625-1.0312-0.22374-0.26444-0.6267-0.52931-1.1562-0.53125v-0.0312h-0.0625-3.9062z"/>
  <path id="rect6718-3" style="color:#bebebe;fill:#f57900" d="m107.88 225c-0.49245 0-0.875 0.38256-0.875 0.875v6.25c0 0.49244 0.38255 0.875 0.875 0.875h6.25c0.49245 0 0.875-0.38256 0.875-0.875v-6.25c0-0.49244-0.38255-0.875-0.875-0.875h-6.25zm2.125 1h2v4h-2v-4zm0 5h2v1h-2v-1z" class="warning"/>
 </g>
</svg>
