<?xml version="1.0" encoding="UTF-8" standalone="no"?>
<svg
   xmlns:dc="http://purl.org/dc/elements/1.1/"
   xmlns:cc="http://creativecommons.org/ns#"
   xmlns:rdf="http://www.w3.org/1999/02/22-rdf-syntax-ns#"
   xmlns:svg="http://www.w3.org/2000/svg"
   xmlns="http://www.w3.org/2000/svg"
   height="16"
   id="svg7384"
   version="1.1"
   width="16.000004">
  <metadata
     id="metadata90">
    <rdf:RDF>
      <cc:Work
         rdf:about="">
        <dc:format>image/svg+xml</dc:format>
        <dc:type
           rdf:resource="http://purl.org/dc/dcmitype/StillImage" />
        <dc:title>elementary Symbolic Icon Theme</dc:title>
      </cc:Work>
    </rdf:RDF>
  </metadata>
  <title
     id="title9167">elementary Symbolic Icon Theme</title>
  <defs
     id="defs7386">
    <filter
       color-interpolation-filters="sRGB"
       id="filter7554">
      <feBlend
         id="feBlend7556"
         in2="BackgroundImage"
         mode="darken" />
    </filter>
    <filter
       color-interpolation-filters="sRGB"
       id="filter7554-7">
      <feBlend
         id="feBlend7556-6"
         in2="BackgroundImage"
         mode="darken" />
    </filter>
  </defs>
  <g
     id="layer9"
     label="status"
     style="display:inline"
     transform="translate(-413.0004,542)">
    <path
       d="m 414.0004,-539 c -0.554,0 -1,0.446 -1,1 l 0,8 c 0,0.554 0.446,1 1,1 l 12,0 c 0.554,0 1,-0.446 1,-1 l 0,-2 1,0 c 0.554,0 1,-0.446 1,-1 l 0,-2 c 0,-0.554 -0.446,-1 -1,-1 l -1,0 0,-2 c 0,-0.554 -0.446,-1 -1,-1 l -12,0 z m 0.5,1 11,0 c 0.277,0 0.5,0.223 0.5,0.5 l 0,7 c 0,0.277 -0.223,0.5 -0.5,0.5 l -11,0 c -0.277,0 -0.5,-0.223 -0.5,-0.5 l 0,-7 c 0,-0.277 0.223,-0.5 0.5,-0.5 z m 0.75,1 c -0.1385,0 -0.25,0.1115 -0.25,0.25 l 0,0.75 4,2 0.0625,-3 -3.8125,0 z m 3.8125,0 5.9375,5 0,-4.75 c 0,-0.1385 -0.1115,-0.25 -0.25,-0.25 l -5.6875,0 z m 5.9375,5 -4,-2 0,3 3.75,0 c 0.1385,0 0.25,-0.1115 0.25,-0.25 l 0,-0.75 z m -4,1 -6,-5 0,4.75 c 0,0.1385 0.1115,0.25 0.25,0.25 l 5.75,0 z m 6,-4 0.5,0 c 0.277,0 0.5,0.223 0.5,0.5 l 0,1 c 0,0.277 -0.223,0.5 -0.5,0.5 l -0.5,0 0,-2 z"
       id="rect3206-90"
       style="color:#bebebe;fill:#bebebe;fill-opacity:1;fill-rule:nonzero;stroke:none;stroke-width:1;marker:none;visibility:visible;display:inline;overflow:visible;enable-background:accumulate" />
  </g>
  <g
     id="layer10"
     style="display:inline"
     transform="translate(-413.0004,542)" />
  <g
     id="layer13"
     style="display:inline"
     transform="translate(-413.0004,542)" />
  <g
     id="layer14"
     transform="translate(-413.0004,542)" />
  <g
     id="layer15"
     style="display:inline"
     transform="translate(-413.0004,542)" />
  <g
     id="g71291"
     style="display:inline"
     transform="translate(-413.0004,542)" />
  <g
     id="g4953"
     style="display:inline"
     transform="translate(-413.0004,542)" />
  <g
     id="layer12"
     style="display:inline"
     transform="translate(-413.0004,542)" />
</svg>
