<?xml version="1.0" encoding="UTF-8" standalone="no"?>
<svg
   xmlns:dc="http://purl.org/dc/elements/1.1/"
   xmlns:cc="http://creativecommons.org/ns#"
   xmlns:rdf="http://www.w3.org/1999/02/22-rdf-syntax-ns#"
   xmlns:svg="http://www.w3.org/2000/svg"
   xmlns="http://www.w3.org/2000/svg"
   xmlns:sodipodi="http://sodipodi.sourceforge.net/DTD/sodipodi-0.dtd"
   xmlns:inkscape="http://www.inkscape.org/namespaces/inkscape"
   width="16px"
   height="16px"
   id="svg3005"
   version="1.1"
   inkscape:version="0.91 r13725"
   sodipodi:docname="battery-empty-symbolic.svg">
  <sodipodi:namedview
     pagecolor="#ffffff"
     bordercolor="#666666"
     borderopacity="1"
     objecttolerance="10"
     gridtolerance="10"
     guidetolerance="10"
     inkscape:pageopacity="0"
     inkscape:pageshadow="2"
     inkscape:window-width="3200"
     inkscape:window-height="1674"
     id="namedview7"
     showgrid="false"
     inkscape:zoom="87.25"
     inkscape:cx="2.3151863"
     inkscape:cy="8"
     inkscape:window-x="0"
     inkscape:window-y="60"
     inkscape:window-maximized="1"
     inkscape:current-layer="svg3005" />
  <defs
     id="defs3007" />
  <metadata
     id="metadata3010">
    <rdf:RDF>
      <cc:Work
         rdf:about="">
        <dc:format>image/svg+xml</dc:format>
        <dc:type
           rdf:resource="http://purl.org/dc/dcmitype/StillImage" />
        <dc:title />
      </cc:Work>
    </rdf:RDF>
  </metadata>
  <g
     id="layer1">
    <path
       class="error"
       d="M 1,3 C 0.446,3 0,3.446 0,4 l 0,8 c 0,0.554 0.446,1 1,1 l 12,0 c 0.554,0 1,-0.446 1,-1 l 0,-2 1,0 c 0.554,0 1,-0.446 1,-1 L 16,7 C 16,6.446 15.554,6 15,6 L 14,6 14,4 C 14,3.446 13.554,3 13,3 z m 0.5,1 11,0 C 12.777,4 13,4.223 13,4.5 l 0,7 c 0,0.277 -0.223,0.5 -0.5,0.5 l -11,0 C 1.223,12 1,11.777 1,11.5 l 0,-7 C 1,4.223 1.223,4 1.5,4 z M 14,7 14.5,7 C 14.777,7 15,7.223 15,7.5 l 0,1 C 15,8.777 14.777,9 14.5,9 L 14,9 z"
       id="path13474"
       style="color:#bebebe;fill:#d33636;fill-opacity:1;fill-rule:nonzero;stroke:none;stroke-width:1;marker:none;visibility:visible;display:inline;overflow:visible;enable-background:accumulate" />
  </g>
  <path
     inkscape:connector-curvature="0"
     style="color:#bebebe;display:inline;overflow:visible;visibility:visible;opacity:0.25;fill:#d33636;fill-opacity:1;fill-rule:nonzero;stroke:none;stroke-width:1;marker:none;enable-background:accumulate;clip-rule:nonzero;isolation:auto;mix-blend-mode:normal;color-interpolation:sRGB;color-interpolation-filters:linearRGB;solid-color:#000000;solid-opacity:1;stroke-linecap:butt;stroke-linejoin:miter;stroke-miterlimit:4;stroke-dasharray:none;stroke-dashoffset:0;stroke-opacity:1;filter-blend-mode:normal;filter-gaussianBlur-deviation:0;color-rendering:auto;image-rendering:auto;shape-rendering:auto;text-rendering:auto"
     class="error"
     id="path13466-3"
     d="M 2.25,5 C 2.1115,5 2,5.1115 2,5.25 l 0,5.5 C 2,10.8885 2.1115,11 2.25,11 l 9.5,0 C 11.8885,11 12,10.8885 12,10.75 l 0,-5.5 C 12,5.1115 11.8885,5 11.75,5 Z"
     sodipodi:nodetypes="sssssssss" />
</svg>
