<?xml version="1.0" encoding="UTF-8" standalone="no"?>
<!-- Created with Inkscape (http://www.inkscape.org/) -->
<svg id="svg7384" xmlns:rdf="http://www.w3.org/1999/02/22-rdf-syntax-ns#" xmlns="http://www.w3.org/2000/svg" height="16" width="16" version="1.1" xmlns:cc="http://creativecommons.org/ns#" xmlns:dc="http://purl.org/dc/elements/1.1/">
 <metadata id="metadata90">
  <rdf:RDF>
   <cc:Work rdf:about="">
    <dc:format>image/svg+xml</dc:format>
    <dc:type rdf:resource="http://purl.org/dc/dcmitype/StillImage"/>
    <dc:title>Gnome Symbolic Icon Theme</dc:title>
   </cc:Work>
  </rdf:RDF>
 </metadata>
 <title id="title9167">Gnome Symbolic Icon Theme</title>
 <g id="layer9" transform="translate(-41 -317)">
  <path id="path3807" style="block-progression:tb;text-indent:0;color:#000000;text-transform:none;fill:#bebebe" d="m47.875 317a1.0001 1.0001 0 0 0 -0.875 1v3.5625l-1.2812-1.2812a1.0165 1.0165 0 1 0 -1.4375 1.4375l2.718 2.72v1.125l-2.7188 2.7188a1.0165 1.0165 0 1 0 1.4375 1.4375l1.282-1.28v3.56a1.0001 1.0001 0 0 0 1.7188 0.71875l4-4a1.0001 1.0001 0 0 0 0 -1.4375l-2.281-2.28 2.2812-2.2812a1.0001 1.0001 0 0 0 0 -1.4375l-4-4a1.0001 1.0001 0 0 0 -0.844 -0.28zm1.125 3.44 1.562 1.56-1.562 1.56v-3.125zm0 6l1.562 1.56-1.562 1.56v-3.125z"/>
  <rect id="rect3940" style="opacity:0.98;fill:#bebebe" height="1" width="1" y="320" x="44"/>
  <rect id="rect3942" style="opacity:0.98;fill:#bebebe" height="1" width="1" y="329" x="44"/>
  <rect id="rect3944" style="opacity:0.98;fill:#bebebe" height="1" width="1" y="332" x="47"/>
  <rect id="rect3946" style="opacity:0.98;fill:#bebebe" height="1" width="1" y="317" x="47"/>
 </g>
</svg>
