<?xml version="1.0" encoding="UTF-8" standalone="no"?>
<!-- Created with Inkscape (http://www.inkscape.org/) -->

<svg
   xmlns:dc="http://purl.org/dc/elements/1.1/"
   xmlns:cc="http://creativecommons.org/ns#"
   xmlns:rdf="http://www.w3.org/1999/02/22-rdf-syntax-ns#"
   xmlns:svg="http://www.w3.org/2000/svg"
   xmlns="http://www.w3.org/2000/svg"
   xmlns:sodipodi="http://sodipodi.sourceforge.net/DTD/sodipodi-0.dtd"
   xmlns:inkscape="http://www.inkscape.org/namespaces/inkscape"
   version="1.1"
   width="16"
   height="16"
   id="svg7384"
   inkscape:version="0.48.3.1 r9886"
   sodipodi:docname="channel-secure-symbolic.svg">
  <sodipodi:namedview
     pagecolor="#ffffff"
     bordercolor="#666666"
     borderopacity="1"
     objecttolerance="10"
     gridtolerance="10"
     guidetolerance="10"
     inkscape:pageopacity="0"
     inkscape:pageshadow="2"
     inkscape:window-width="1280"
     inkscape:window-height="750"
     id="namedview7"
     showgrid="true"
     inkscape:zoom="17.375"
     inkscape:cx="8"
     inkscape:cy="8"
     inkscape:window-x="0"
     inkscape:window-y="28"
     inkscape:window-maximized="1"
     inkscape:current-layer="svg7384"
     showguides="false"
     inkscape:guide-bbox="true"
     borderlayer="true"
     showborder="true">
    <inkscape:grid
       type="xygrid"
       id="grid3025"
       empspacing="5"
       visible="true"
       enabled="true"
       snapvisiblegridlinesonly="true" />
    <sodipodi:guide
       orientation="0,1"
       position="5.4089834,14"
       id="guide3033" />
    <sodipodi:guide
       orientation="1,0"
       position="5,15"
       id="guide3035" />
    <sodipodi:guide
       orientation="1,0"
       position="11,13.314421"
       id="guide3037" />
    <sodipodi:guide
       orientation="0,1"
       position="13.231206,13.064775"
       id="guide3039" />
    <sodipodi:guide
       orientation="-1.1558321e-09,-1"
       position="22.218485,4.4674178"
       id="guide3114" />
    <sodipodi:guide
       orientation="0,1"
       position="23.720803,6.483686"
       id="guide3116" />
    <sodipodi:guide
       orientation="0,1"
       position="22.653366,2.4906843"
       id="guide3118" />
  </sodipodi:namedview>
  <title
     id="title9167">Gnome Symbolic Icon Theme</title>
  <defs
     id="defs11" />
  <metadata
     id="metadata90">
    <rdf:RDF>
      <cc:Work
         rdf:about="">
        <dc:format>image/svg+xml</dc:format>
        <dc:type
           rdf:resource="http://purl.org/dc/dcmitype/StillImage" />
        <dc:title>Gnome Symbolic Icon Theme</dc:title>
      </cc:Work>
    </rdf:RDF>
  </metadata>
  <path
     inkscape:connector-curvature="0"
     style="color:#bebebe;fill:#bebebe;fill-opacity:1;fill-rule:nonzero;stroke:none;stroke-width:1;marker:none;visibility:visible;display:inline;overflow:visible;enable-background:accumulate"
     d="M 7,0 C 4.9843357,0 3,2.0259433 3,4 L 3,6 13,6 13,4 C 13,2.0051395 11.036468,0 9,0 z m 0,2 2,0 c 1.15731,0 2,1.1700861 2,2 L 11,6 5,6 5,4 C 5,3.3328733 5.8010827,2 7,2 z"
     id="rect5137"
     sodipodi:nodetypes="ssccssssssccss" />
  <path
     style="color:#bebebe;fill:#bebebe;fill-opacity:1;fill-rule:nonzero;stroke:none;stroke-width:1;marker:none;visibility:visible;display:inline;overflow:visible;enable-background:accumulate"
     d="m 2,7 0,2.25 2.25,0 0,0.5 -2.25,0 0,1.25 0,0.25 2.25,0 0,0.5 -2.25,0 0,1.5 2.25,0 0,0.5 -2.25,0 0,0.25 0,0.5 C 2,15.331 2.669,16 3.5,16 l 9,0 c 0.831,0 1.5,-0.669 1.5,-1.5 l 0,-0.5 0,-0.25 -2.25,0 0,-0.5 2.25,0 0,-1.5 -2.25,0 0,-0.5 2.25,0 0,-0.25 0,-1.25 -2.25,0 0,-0.5 2.25,0 L 14,7 z m 6,2 c 1.1045695,0 2,0.6715729 2,1.5 0,0.554048 -0.4042701,1.021494 -1,1.28125 L 9,13 C 9,13.554 8.554,13.75 8,13.75 7.446,13.75 7,13.554 7,13 L 7,11.78125 C 6.4042701,11.521494 6,11.054048 6,10.5 6,9.6715729 6.8954305,9 8,9 z"
     id="rect2995"
     inkscape:connector-curvature="0"
     sodipodi:nodetypes="cccccccccccccccssssccccccccccccccccsscssscss" />
</svg>
