<svg xmlns="http://www.w3.org/2000/svg" height="16" width="16"><title>elementary Symbolic Icon Theme</title><path d="M3.437 1c-1.373 0-2.5 1.1-2.5 2.47v9.06c0 1.37 1.127 2.47 2.5 2.47h9.125c1.373 0 2.5-1.1 2.5-2.47V3.47c0-1.37-1.127-2.47-2.5-2.47H3.437zm0 1h9.125c.844 0 1.5.64 1.5 1.47v9.06c0 .83-.656 1.47-1.5 1.47H3.437c-.844 0-1.5-.64-1.5-1.47V3.47c0-.83.656-1.47 1.5-1.47z" style="text-indent:0;text-align:start;line-height:normal;text-transform:none;block-progression:tb;-inkscape-font-specification:Sans" font-weight="400" color="#000" fill="#bebebe" overflow="visible" font-family="Sans"/></svg>