<?xml version="1.0" encoding="UTF-8" standalone="no"?>
<svg
   xmlns:dc="http://purl.org/dc/elements/1.1/"
   xmlns:cc="http://creativecommons.org/ns#"
   xmlns:rdf="http://www.w3.org/1999/02/22-rdf-syntax-ns#"
   xmlns:svg="http://www.w3.org/2000/svg"
   xmlns="http://www.w3.org/2000/svg"
   height="16"
   id="svg7384"
   version="1.1"
   width="16">
  <metadata
     id="metadata90">
    <rdf:RDF>
      <cc:Work
         rdf:about="">
        <dc:format>image/svg+xml</dc:format>
        <dc:type
           rdf:resource="http://purl.org/dc/dcmitype/StillImage" />
        <dc:title>elementary Symbolic Icon Theme</dc:title>
      </cc:Work>
    </rdf:RDF>
  </metadata>
  <title
     id="title9167">elementary Symbolic Icon Theme</title>
  <defs
     id="defs7386">
    <filter
       color-interpolation-filters="sRGB"
       id="filter7554">
      <feBlend
         id="feBlend7556"
         in2="BackgroundImage"
         mode="darken" />
    </filter>
    <filter
       color-interpolation-filters="sRGB"
       id="filter7554-7">
      <feBlend
         id="feBlend7556-6"
         in2="BackgroundImage"
         mode="darken" />
    </filter>
  </defs>
  <g
     id="layer9"
     label="status"
     style="display:inline"
     transform="translate(-633.00035,402)">
    <path
       d="m 636.46875,-401 c -1.36417,0 -2.46875,1.10458 -2.46875,2.46875 l 0,9.0625 c 0,1.36417 1.10458,2.46875 2.46875,2.46875 l 9.0625,0 c 1.36417,0 2.46875,-1.10458 2.46875,-2.46875 l 0,-9.0625 C 648,-399.89542 646.89542,-401 645.53125,-401 l -9.0625,0 z m 0,1 9.0625,0 c 0.83222,0 1.46875,0.63653 1.46875,1.46875 l 0,9.0625 c 0,0.83222 -0.63653,1.46875 -1.46875,1.46875 l -9.0625,0 C 635.63653,-388 635,-388.63653 635,-389.46875 l 0,-9.0625 c 0,-0.83222 0.63653,-1.46875 1.46875,-1.46875 z"
       id="rect9696"
       style="font-size:medium;font-style:normal;font-variant:normal;font-weight:normal;font-stretch:normal;text-indent:0;text-align:start;text-decoration:none;line-height:normal;letter-spacing:normal;word-spacing:normal;text-transform:none;direction:ltr;block-progression:tb;writing-mode:lr-tb;text-anchor:start;baseline-shift:baseline;color:#000000;fill:#bebebe;fill-opacity:1;stroke:none;stroke-width:0.9911505;marker:none;visibility:visible;display:inline;overflow:visible;enable-background:accumulate;font-family:Sans;-inkscape-font-specification:Sans" />
    <path
       d="m 636.90625,-394.9375 0,2 1,0 6.125,0 1,0 0,-2 -1,0 -6.125,0 -1,0 z"
       id="path9616"
       style="font-size:medium;font-style:normal;font-variant:normal;font-weight:normal;font-stretch:normal;text-indent:0;text-align:start;text-decoration:none;line-height:normal;letter-spacing:normal;word-spacing:normal;text-transform:none;direction:ltr;block-progression:tb;writing-mode:lr-tb;text-anchor:start;baseline-shift:baseline;color:#000000;fill:#bebebe;fill-opacity:1;stroke:none;stroke-width:2;marker:none;visibility:visible;display:inline;overflow:visible;enable-background:accumulate;font-family:Sans;-inkscape-font-specification:Sans" />
  </g>
  <g
     id="layer10"
     style="display:inline"
     transform="translate(-633.00035,402)" />
  <g
     id="layer13"
     style="display:inline"
     transform="translate(-633.00035,402)" />
  <g
     id="layer14"
     transform="translate(-633.00035,402)" />
  <g
     id="layer15"
     style="display:inline"
     transform="translate(-633.00035,402)" />
  <g
     id="g71291"
     style="display:inline"
     transform="translate(-633.00035,402)" />
  <g
     id="layer12"
     style="display:inline"
     transform="translate(-633.00035,402)" />
</svg>
