<?xml version="1.0" encoding="UTF-8" standalone="no"?>
<!-- Created with Inkscape (http://www.inkscape.org/) -->

<svg
   xmlns:dc="http://purl.org/dc/elements/1.1/"
   xmlns:cc="http://creativecommons.org/ns#"
   xmlns:rdf="http://www.w3.org/1999/02/22-rdf-syntax-ns#"
   xmlns:svg="http://www.w3.org/2000/svg"
   xmlns="http://www.w3.org/2000/svg"
   xmlns:sodipodi="http://sodipodi.sourceforge.net/DTD/sodipodi-0.dtd"
   xmlns:inkscape="http://www.inkscape.org/namespaces/inkscape"
   id="svg7384"
   height="16"
   width="16"
   version="1.1"
   inkscape:version="0.48.4 r9939"
   sodipodi:docname="dialog-information-symbolic.svg">
  <defs
     id="defs9" />
  <sodipodi:namedview
     pagecolor="#ffffff"
     bordercolor="#666666"
     borderopacity="1"
     objecttolerance="10"
     gridtolerance="10"
     guidetolerance="10"
     inkscape:pageopacity="0"
     inkscape:pageshadow="2"
     inkscape:window-width="1237"
     inkscape:window-height="841"
     id="namedview7"
     showgrid="true"
     inkscape:zoom="29.5"
     inkscape:cx="9.8565296"
     inkscape:cy="9.005379"
     inkscape:window-x="732"
     inkscape:window-y="90"
     inkscape:window-maximized="0"
     inkscape:current-layer="svg7384"
     showguides="true"
     inkscape:guide-bbox="true">
    <inkscape:grid
       type="xygrid"
       id="grid3766" />
  </sodipodi:namedview>
  <metadata
     id="metadata90">
    <rdf:RDF>
      <cc:Work
         rdf:about="">
        <dc:format>image/svg+xml</dc:format>
        <dc:type
           rdf:resource="http://purl.org/dc/dcmitype/StillImage" />
        <dc:title>Gnome Symbolic Icon Theme</dc:title>
      </cc:Work>
    </rdf:RDF>
  </metadata>
  <title
     id="title9167">Gnome Symbolic Icon Theme</title>
  <g
     id="layer9"
     transform="translate(-341,-257)">
    <path
       style="text-indent:0;text-transform:none;block-progression:tb;color:#bebebe;fill:#bebebe;enable-background:new"
       d="M 8 1.03125 C 4.1467 1.03125 1.03125 4.1467 1.03125 8 C 1.03125 11.8533 4.1467 14.96875 8 14.96875 C 11.8533 14.96875 14.96875 11.8533 14.96875 8 C 14.96875 4.1467 11.8533 1.03125 8 1.03125 z M 8 3 C 8.55228 3 9 3.44772 9 4 C 9 4.55228 8.55228 5 8 5 C 7.44772 5 7 4.55228 7 4 C 7 3.44772 7.44772 3 8 3 z M 8 6 C 8.52837 6 9.007 6.47169 9 7 L 9 12 C 9 12 9 13 8 13 C 7 13 7 12 7 12 C 7 13 7 7 7 7 C 6.993 6.47169 7.47163 6 8 6 z "
       transform="translate(341,257)"
       id="path10839-3" />
  </g>
</svg>
