<?xml version="1.0" encoding="UTF-8" standalone="no"?>
<svg
   xmlns:dc="http://purl.org/dc/elements/1.1/"
   xmlns:cc="http://creativecommons.org/ns#"
   xmlns:rdf="http://www.w3.org/1999/02/22-rdf-syntax-ns#"
   xmlns:svg="http://www.w3.org/2000/svg"
   xmlns="http://www.w3.org/2000/svg"
   height="16"
   id="svg7384"
   version="1.1"
   width="16">
  <metadata
     id="metadata90">
    <rdf:RDF>
      <cc:Work
         rdf:about="">
        <dc:format>image/svg+xml</dc:format>
        <dc:type
           rdf:resource="http://purl.org/dc/dcmitype/StillImage" />
        <dc:title>elementary Symbolic Icon Theme</dc:title>
      </cc:Work>
    </rdf:RDF>
  </metadata>
  <title
     id="title9167">elementary Symbolic Icon Theme</title>
  <defs
     id="defs7386" />
  <g
     id="layer10"
     style="display:inline"
     transform="translate(-313.00021,422)" />
  <g
     id="layer13"
     style="display:inline"
     transform="translate(-313.00021,422)" />
  <g
     id="layer14"
     transform="translate(-313.00021,422)" />
  <g
     id="layer15"
     style="display:inline"
     transform="translate(-313.00021,422)" />
  <g
     id="g71291"
     style="display:inline"
     transform="translate(-313.00021,422)" />
  <g
     id="layer12"
     style="display:inline"
     transform="translate(-313.00021,422)" />
  <path
     style="color:#000000;clip-rule:nonzero;display:inline;overflow:visible;visibility:visible;opacity:1;isolation:auto;mix-blend-mode:normal;color-interpolation:sRGB;color-interpolation-filters:linearRGB;solid-color:#000000;solid-opacity:1;fill:#bebebe;fill-opacity:1;fill-rule:nonzero;stroke:none;stroke-width:1.16666675;stroke-linecap:butt;stroke-linejoin:miter;stroke-miterlimit:4;stroke-dasharray:none;stroke-dashoffset:0;stroke-opacity:1;marker:none;color-rendering:auto;image-rendering:auto;shape-rendering:auto;text-rendering:auto;enable-background:new"
     d="M 7.25,1 C 7.1115,1 7,1.1115 7,1.25 l 0,1.5 C 7,2.8885 7.1115,3 7.25,3 l 0.5,0 C 7.8885,3 8,2.8885 8,2.75 L 8,1.25 C 8,1.1115 7.8885,1 7.75,1 L 7.25,1 Z M 2.5507812,2.9472656 c -0.063905,0 -0.1287672,0.023299 -0.1777343,0.072266 L 2.0195312,3.3730469 c -0.097934,0.097934 -0.097934,0.2555813 0,0.3535156 l 1.0605469,1.0605469 c 0.097934,0.097934 0.2555814,0.097934 0.3535157,0 L 3.7871094,4.4335938 c 0.097934,-0.097934 0.097934,-0.2555814 0,-0.3535157 L 2.7265625,3.0195312 C 2.6775954,2.9705641 2.614686,2.9472656 2.5507812,2.9472656 Z m 9.8984378,0 c -0.0639,0 -0.126814,0.023299 -0.175781,0.072266 l -1.060547,1.0605469 c -0.09794,0.097934 -0.09794,0.2555814 0,0.3535157 l 0.353515,0.3535156 c 0.09793,0.097934 0.255582,0.097934 0.353516,0 l 1.060547,-1.0605469 c 0.09793,-0.097934 0.09793,-0.2555813 0,-0.3535156 L 12.626953,3.0195312 c -0.04897,-0.048967 -0.113829,-0.072266 -0.177734,-0.072266 z M 7.5,5 A 3.5,3.5 0 0 0 4,8.5 3.5,3.5 0 0 0 7.5,12 3.5,3.5 0 0 0 11,8.5 3.5,3.5 0 0 0 7.5,5 Z m 0,1 A 2.5,2.5 0 0 1 10,8.5 2.5,2.5 0 0 1 7.5,11 2.5,2.5 0 0 1 5,8.5 2.5,2.5 0 0 1 7.5,6 Z M 0.25,8 C 0.1115,8 0,8.1115 0,8.25 l 0,0.5 C 0,8.8885 0.1115,9 0.25,9 l 1.5,0 C 1.8885,9 2,8.8885 2,8.75 L 2,8.25 C 2,8.1115 1.8885,8 1.75,8 l -1.5,0 z m 13,0 C 13.1115,8 13,8.1115 13,8.25 l 0,0.5 C 13,8.8885 13.1115,9 13.25,9 l 1.5,0 C 14.8885,9 15,8.8885 15,8.75 l 0,-0.5 C 15,8.1115 14.8885,8 14.75,8 l -1.5,0 z m -9.9921875,4.138672 c -0.063905,0 -0.1287672,0.02525 -0.1777344,0.07422 l -1.0605469,1.060547 c -0.097934,0.09793 -0.097934,0.255581 0,0.353515 l 0.3535157,0.353516 c 0.097934,0.09793 0.2555813,0.09793 0.3535156,0 l 1.0605469,-1.060547 c 0.097934,-0.09793 0.097934,-0.255581 0,-0.353516 L 3.4335938,12.212891 c -0.048967,-0.04897 -0.1118765,-0.07422 -0.1757813,-0.07422 z m 8.4843755,0 c -0.06391,0 -0.126815,0.02525 -0.175782,0.07422 l -0.353515,0.353515 c -0.09794,0.09793 -0.09794,0.255582 0,0.353516 l 1.060547,1.060547 c 0.09793,0.09793 0.255581,0.09793 0.353515,0 l 0.353516,-0.353516 c 0.09793,-0.09793 0.09793,-0.255581 0,-0.353515 l -1.060547,-1.060547 c -0.04897,-0.04897 -0.11383,-0.07422 -0.177734,-0.07422 z M 7.25,14 C 7.1115,14 7,14.1115 7,14.25 l 0,1.5 C 7,15.8885 7.1115,16 7.25,16 l 0.5,0 C 7.8885,16 8,15.8885 8,15.75 l 0,-1.5 C 8,14.1115 7.8885,14 7.75,14 l -0.5,0 z"
     id="rect3346" />
</svg>
