<svg xmlns="http://www.w3.org/2000/svg" height="16" width="16.013"><title>elementary Symbolic Icon Theme</title><path d="M1.763.998a.76.76 0 0 0-.75.75v.22h-.25a.76.76 0 0 0-.75.75v11.5c0 .406.343.75.75.75h14.5a.76.76 0 0 0 .75-.75v-11.5a.76.76 0 0 0-.75-.75h-6.25v-.22a.76.76 0 0 0-.75-.75zm.25 1h6v.97h7v11h-14v-11h1v-.5z" style="text-indent:0;text-align:start;line-height:normal;text-transform:none;block-progression:tb;-inkscape-font-specification:Sans" font-weight="400" color="#000" fill="#bebebe" overflow="visible" font-family="Sans"/></svg>