<?xml version="1.0" encoding="UTF-8" standalone="no"?>
<svg
   id="svg6"
   version="1.1"
   width="16"
   height="16"
   sodipodi:docname="location-inactive-symbolic.svg"
   inkscape:version="1.2.2 (b0a8486541, 2022-12-01)"
   xmlns:inkscape="http://www.inkscape.org/namespaces/inkscape"
   xmlns:sodipodi="http://sodipodi.sourceforge.net/DTD/sodipodi-0.dtd"
   xmlns="http://www.w3.org/2000/svg"
   xmlns:svg="http://www.w3.org/2000/svg"
   xmlns:rdf="http://www.w3.org/1999/02/22-rdf-syntax-ns#"
   xmlns:cc="http://creativecommons.org/ns#"
   xmlns:dc="http://purl.org/dc/elements/1.1/">
  <sodipodi:namedview
     id="namedview6"
     pagecolor="#ffffff"
     bordercolor="#000000"
     borderopacity="0.25"
     inkscape:showpageshadow="2"
     inkscape:pageopacity="0.0"
     inkscape:pagecheckerboard="0"
     inkscape:deskcolor="#d1d1d1"
     showgrid="false"
     inkscape:zoom="54.75"
     inkscape:cx="8.8127854"
     inkscape:cy="8.2465753"
     inkscape:window-width="1592"
     inkscape:window-height="950"
     inkscape:window-x="200"
     inkscape:window-y="859"
     inkscape:window-maximized="0"
     inkscape:current-layer="svg6" />
  <metadata
     id="metadata12">
    <rdf:RDF>
      <cc:Work
         rdf:about="">
        <dc:format>image/svg+xml</dc:format>
        <dc:type
           rdf:resource="http://purl.org/dc/dcmitype/StillImage" />
      </cc:Work>
    </rdf:RDF>
  </metadata>
  <defs
     id="defs10" />
  <path
     id="path2"
     style="color:#000000;overflow:visible;fill:#555761;marker:none"
     d="m 13,2 c -0.149646,0.00371 -0.296752,0.041636 -0.429688,0.109375 l -11.0214839,5 C 1.2172238,7.2772663 1.0004502,7.6191741 1,8 1,8.5522834 1.4477165,9 2,9 h 5 v 5 c 0,0.552283 0.4477165,1 1,1 0.3895591,0 0.7255429,-0.223745 0.890625,-0.548828 L 13.916016,3.3984375 C 13.969523,3.2763476 13.999724,3.1412406 14,3 14,2.4477165 13.552283,2 13,2 Z M 13,3.0058594 8,14.003906 c -0.014335,0 -0.00391,0.01043 -0.00391,-0.0039 V 9 A 0.99548709,0.99548709 0 0 0 7,8.0039062 H 2 c -0.010751,0 -0.00597,0.00136 -0.00391,-0.00195 V 8 L 12.982422,3.015625 A 0.99548709,0.99548709 0 0 0 13,3.0058594 Z" />
</svg>
