<?xml version="1.0" encoding="UTF-8" standalone="no"?>
<svg
   xmlns:dc="http://purl.org/dc/elements/1.1/"
   xmlns:cc="http://creativecommons.org/ns#"
   xmlns:rdf="http://www.w3.org/1999/02/22-rdf-syntax-ns#"
   xmlns:svg="http://www.w3.org/2000/svg"
   xmlns="http://www.w3.org/2000/svg"
   width="16"
   version="1.1"
   id="svg7384"
   height="16">
  <metadata
     id="metadata90">
    <rdf:RDF>
      <cc:Work
         rdf:about="">
        <dc:format>image/svg+xml</dc:format>
        <dc:type
           rdf:resource="http://purl.org/dc/dcmitype/StillImage" />
        <dc:title>elementary Symbolic Icon Theme</dc:title>
      </cc:Work>
    </rdf:RDF>
  </metadata>
  <title
     id="title9167">elementary Symbolic Icon Theme</title>
  <defs
     id="defs7386" />
  <g
     transform="translate(-413.00015,422)"
     style="display:inline"
     id="layer10" />
  <g
     transform="translate(-413.00015,422)"
     style="display:inline"
     id="layer13" />
  <g
     transform="translate(-413.00015,422)"
     id="layer14" />
  <g
     transform="translate(-413.00015,422)"
     style="display:inline"
     id="layer15" />
  <g
     transform="translate(-413.00015,422)"
     style="display:inline"
     id="g71291" />
  <g
     transform="translate(-413.00015,422)"
     style="display:inline"
     id="g4953" />
  <g
     transform="translate(-413.00015,422)"
     style="display:inline"
     id="layer12" />
  <path
     id="rect4246"
     d="m 1.9895921,9.06066 c -1.37108009,1.37108 -1.37108009,3.578668 0,4.949748 1.37108,1.37108 3.5786674,1.37108 4.9497474,0 L 7.2928929,13.656854 6.5857861,12.949748 6.2322327,13.303301 c -0.9793428,0.979343 -2.556191,0.979343 -3.5355339,0 -0.9793429,-0.979343 -0.9793429,-2.556191 0,-3.5355342 L 9.7677667,2.6966989 c 0.9793433,-0.9793429 2.5561913,-0.9793429 3.5355343,0 0.979343,0.9793429 0.979343,2.5561911 0,3.5355339 l -0.712631,0.7126307 -2.46935,2.4693499 -0.2071603,0.2071602 -0.8535,0.8535004 c -0.5876056,0.587606 -1.5337144,0.587606 -2.1213202,0 -0.5876057,-0.5876062 -0.5876057,-1.5337151 0,-2.1213208 L 7.9999997,7.292893 8.7071067,6.5857862 7.9999997,5.8786795 6.2322327,7.6464464 c -0.9793428,0.9793429 -0.9793428,2.5561916 0,3.5355346 0.9793429,0.979342 2.556191,0.979342 3.535534,0 l 0.8535003,-0.8535 1.26782,-1.267821 2.121321,-2.1213204 c 1.37108,-1.37108 1.37108,-3.5786674 0,-4.9497474 -1.37108,-1.37108006 -3.578668,-1.37108006 -4.9497483,0 L 1.9895921,9.06066 Z"
     style="color:#000000;clip-rule:nonzero;display:inline;overflow:visible;visibility:visible;opacity:1;isolation:auto;mix-blend-mode:normal;color-interpolation:sRGB;color-interpolation-filters:linearRGB;solid-color:#000000;solid-opacity:1;fill:#bebebe;fill-opacity:1;fill-rule:nonzero;stroke:none;stroke-width:1;stroke-linecap:butt;stroke-linejoin:miter;stroke-miterlimit:4;stroke-dasharray:none;stroke-dashoffset:0;stroke-opacity:1;marker:none;color-rendering:auto;image-rendering:auto;shape-rendering:auto;text-rendering:auto;enable-background:accumulate;filter-blend-mode:normal;filter-gaussianBlur-deviation:0" />
</svg>
