<?xml version="1.0" encoding="UTF-8" standalone="no"?>
<svg
   xmlns:dc="http://purl.org/dc/elements/1.1/"
   xmlns:cc="http://creativecommons.org/ns#"
   xmlns:rdf="http://www.w3.org/1999/02/22-rdf-syntax-ns#"
   xmlns:svg="http://www.w3.org/2000/svg"
   xmlns="http://www.w3.org/2000/svg"
   xmlns:sodipodi="http://sodipodi.sourceforge.net/DTD/sodipodi-0.dtd"
   xmlns:inkscape="http://www.inkscape.org/namespaces/inkscape"
   height="16"
   id="svg7384"
   version="1.1"
   width="16"
   inkscape:version="0.91 r13725"
   sodipodi:docname="mail-attachment-symbolic.svg">
  <sodipodi:namedview
     pagecolor="#ffffff"
     bordercolor="#666666"
     borderopacity="1"
     objecttolerance="10"
     gridtolerance="10"
     guidetolerance="10"
     inkscape:pageopacity="0"
     inkscape:pageshadow="2"
     inkscape:window-width="640"
     inkscape:window-height="480"
     id="namedview204593" />
  <metadata
     id="metadata90">
    <rdf:RDF>
      <cc:Work
         rdf:about="">
        <dc:format>image/svg+xml</dc:format>
        <dc:type
           rdf:resource="http://purl.org/dc/dcmitype/StillImage" />
        <dc:title>elementary Symbolic Icon Theme</dc:title>
      </cc:Work>
    </rdf:RDF>
  </metadata>
  <title
     id="title9167">elementary Symbolic Icon Theme</title>
  <defs
     id="defs7386" />
  <g
     id="layer9"
     label="status"
     style="display:inline"
     transform="translate(-413.00015,422)">
    <path
       d="m 415.57396,-415.06359 c -2.07343,2.07342 -2.07343,5.4351 0,7.50852 2.07342,2.07343 5.4351,2.07343 7.50852,0 l 4.43686,-4.43685 c 0.37815,-0.37816 0.37815,-0.98703 0,-1.36519 -0.37816,-0.37816 -0.98703,-0.37816 -1.36519,0 l -4.43686,4.43686 c -1.31945,1.31945 -3.4587,1.31945 -4.77815,0 -1.31945,-1.31945 -1.31945,-3.45871 0,-4.77816 l 5.80204,-5.80204 c 0.0142,3.2e-4 0.0284,3.2e-4 0.0427,0 0.76136,-0.76136 1.95041,-0.77996 2.70904,-0.0213 0.75858,0.75857 0.76137,1.96901 0,2.73037 -1.71359,1.7136 -5.14078,5.14078 -5.14078,5.14078 -0.19658,0.19658 -0.48601,0.19658 -0.68259,0 -0.19658,-0.19658 -0.19658,-0.48601 0,-0.68259 l 3.07167,-3.07167 c 0.37816,-0.37816 0.37816,-0.98703 0,-1.36519 -0.37815,-0.37815 -0.98703,-0.37815 -1.36518,0 l -3.07167,3.07167 c -0.9344,0.93441 -0.9344,2.47857 0,3.41297 0.9344,0.9344 2.47856,0.9344 3.41296,0 0,0 3.42719,-3.42719 5.14078,-5.14078 1.50048,-1.50048 1.49509,-3.96566 0,-5.46075 -1.4665,-1.4665 -3.84701,-1.47974 -5.35409,-0.064 -0.0433,0.0309 -0.089,0.0464 -0.12798,0.0853 z"
       id="path35480"
       style="text-indent:0;text-transform:none;block-progression:tb;color:#000000;fill:#bebebe;stroke:none" />
  </g>
  <g
     id="layer10"
     style="display:inline"
     transform="translate(-413.00015,422)" />
  <g
     id="layer13"
     style="display:inline"
     transform="translate(-413.00015,422)" />
  <g
     id="layer14"
     transform="translate(-413.00015,422)" />
  <g
     id="layer15"
     style="display:inline"
     transform="translate(-413.00015,422)" />
  <g
     id="g71291"
     style="display:inline"
     transform="translate(-413.00015,422)" />
  <g
     id="g4953"
     style="display:inline"
     transform="translate(-413.00015,422)" />
  <g
     id="layer12"
     style="display:inline"
     transform="translate(-413.00015,422)" />
</svg>
