<?xml version="1.0" encoding="UTF-8" standalone="no"?>
<svg
   height="16"
   width="16"
   version="1.1"
   id="svg6"
   xmlns="http://www.w3.org/2000/svg"
   xmlns:svg="http://www.w3.org/2000/svg">
  <defs
     id="defs10" />
  <path
     id="rect955-6-0"
     style="font-variation-settings:normal;opacity:0.5;vector-effect:none;fill:#666666;fill-opacity:1;stroke:none;stroke-width:1;stroke-linecap:butt;stroke-linejoin:miter;stroke-miterlimit:4;stroke-dasharray:none;stroke-dashoffset:0;stroke-opacity:1;-inkscape-stroke:none;marker:none;stop-color:#000000;stop-opacity:1"
     d="M 10.515625,1 C 10.228145,1 9.995658,1.2017639 9.996094,1.4511719 V 3 H 5 C 4.235506,3 3.511936,3.1704155 2.865234,3.4746094 l 1.578125,1.578125 C 4.624043,5.0190169 4.809247,5 5,5 H 9.996094 V 6.5488281 C 9.996094,6.7982371 10.228145,7 10.515625,7 10.670564,7 10.809371,6.94243 10.904297,6.8496094 l 2.953125,-2.546875 C 13.945163,4.2221074 14,4.1137756 14,3.9941406 14,3.8745046 13.945162,3.7661769 13.857422,3.6855469 L 10.904297,1.1503906 C 10.809374,1.0575736 10.670564,1 10.515625,1 Z M 1.726562,4.2167969 C 0.668507,5.1322472 0,6.4846611 0,8 V 9.4472656 C 0,9.7347436 0.313878,10 0.558594,10 H 1.441406 C 1.686122,10 2.000241,9.7738081 2,9.4863281 V 8 C 2,7.0384515 2.449092,6.18696 3.148438,5.6386719 Z M 14.558594,6 C 14.313878,6 13.999759,6.2261919 14,6.5136719 V 8 c 0,1.662 -1.338,3 -3,3 h -0.609375 l 1.847656,1.847656 C 14.405272,12.299254 16,10.342137 16,8 V 6.5527344 C 16,6.2652564 15.686122,6 15.441406,6 Z M 5.484375,9 C 5.329436,9 5.190629,9.05757 5.095703,9.1503906 L 2.142578,11.697266 C 2.054838,11.777896 2,11.886224 2,12.005859 c 0,0.119636 0.05484,0.227964 0.142578,0.308594 l 2.953125,2.535156 C 5.190626,14.942426 5.329436,15 5.484375,15 5.771855,15 6.004342,14.798236 6.003906,14.548828 V 13 h 4.50586 l -2,-2 H 6.003906 V 9.4511719 C 6.003906,9.2017629 5.771855,9 5.484375,9 Z" />
  <rect
     style="font-variation-settings:normal;vector-effect:none;fill:#555761;fill-opacity:1;stroke:none;stroke-width:0.992001;stroke-linecap:square;stroke-linejoin:miter;stroke-miterlimit:4;stroke-dasharray:none;stroke-dashoffset:0;stroke-opacity:1;-inkscape-stroke:none;marker:none;stop-color:#000000"
     id="rect2480-1-6"
     width="1.248"
     height="19.799999"
     x="-0.6257652"
     y="1.416185"
     rx="0.5"
     ry="0.5"
     transform="rotate(-45)" />
</svg>
