<?xml version="1.0" encoding="UTF-8" standalone="no"?>
<svg
   height="16"
   width="16"
   version="1.1"
   id="svg6"
   xmlns="http://www.w3.org/2000/svg"
   xmlns:svg="http://www.w3.org/2000/svg">
  <defs
     id="defs10" />
  <path
     id="path933"
     style="color:#bebebe;font-variation-settings:normal;opacity:1;vector-effect:none;fill:#555761;fill-opacity:1;stroke:none;stroke-width:4;stroke-linecap:round;stroke-linejoin:round;stroke-miterlimit:4;stroke-dasharray:none;stroke-dashoffset:0;stroke-opacity:1;-inkscape-stroke:none;marker:none;stop-color:#000000;stop-opacity:1"
     d="M 4.400752,1.0351562 C 4.667752,1.0221563 4.957205,1.223 4.965205,1.5 V 3 h 9.5 c 0.261,0 0.5,0.238 0.5,0.5 v 1 c 0.003,0.031261 0.003,0.062489 0,0.09375 -0.05171,0.2353002 -0.259095,0.40394 -0.5,0.40625 h -9.5 v 1.5 c -0.012,0.369 -0.5245,0.605 -0.8125,0.375 l -3,-2.5 c -0.211835,-0.205126 -0.211835,-0.544874 0,-0.75 l 3,-2.5 C 4.223936,1.069128 4.310262,1.0377363 4.400752,1.0351562 Z m 0,8 C 4.667752,9.0221562 4.957205,9.223 4.965205,9.5 V 11 h 9.5 c 0.261,0 0.5,0.238 0.5,0.5 v 1 c 0.003,0.03126 0.003,0.06249 0,0.09375 -0.05171,0.2353 -0.259095,0.40395 -0.5,0.40625 h -9.5 v 1.5 c -0.012,0.369 -0.5245,0.605 -0.8125,0.375 l -3,-2.5 c -0.211835,-0.205126 -0.211835,-0.544874 0,-0.75 l 3,-2.5 C 4.223936,9.069128 4.310262,9.0377363 4.400752,9.0351562 Z" />
</svg>
