<?xml version="1.0" encoding="UTF-8" standalone="no"?>
<!-- Created with Inkscape (http://www.inkscape.org/) -->
<svg id="svg7384" xmlns:rdf="http://www.w3.org/1999/02/22-rdf-syntax-ns#" xmlns="http://www.w3.org/2000/svg" height="16" width="16" version="1.1" xmlns:cc="http://creativecommons.org/ns#" xmlns:dc="http://purl.org/dc/elements/1.1/">
 <metadata id="metadata90">
  <rdf:RDF>
   <cc:Work rdf:about="">
    <dc:format>image/svg+xml</dc:format>
    <dc:type rdf:resource="http://purl.org/dc/dcmitype/StillImage"/>
    <dc:title>Gnome Symbolic Icon Theme</dc:title>
   </cc:Work>
  </rdf:RDF>
 </metadata>
 <title id="title9167">Gnome Symbolic Icon Theme</title>
 <defs id="defs7386">
  <clipPath id="clipPath6810-7-87" clipPathUnits="userSpaceOnUse">
   <rect id="rect6812-2-4" style="stroke-linejoin:round;color:#bebebe;stroke:#fff;stroke-linecap:round;stroke-width:2;fill:none" height="11" width="14" y="281" x="21"/>
  </clipPath>
 </defs>
 <g id="layer9" transform="translate(-60,-398)">
  <rect id="rect12259" style="color:#bebebe;fill:#bebebe" rx="2.5" ry="2.5" height="10.013" width="5" y="398.99" x="63"/>
  <path id="rect12261" d="m27.969 273.62c-2.5025 0-4.5312 2.0288-4.5312 4.5312v5.8125c0 2.5025 2.0288 4.5312 4.5312 4.5312 2.5025 0 4.5312-2.0288 4.5312-4.5312v-5.8125c0-2.5025-2.0288-4.5312-4.5312-4.5312zm0 1c1.9641 0 3.5312 1.5671 3.5312 3.5312v5.8125c0 1.9642-1.5671 3.5312-3.5312 3.5312s-3.5312-1.5671-3.5312-3.5312v-5.8125c0-1.9642 1.5671-3.5312 3.5312-3.5312z" style="block-progression:tb;text-indent:0;color:#bebebe;text-transform:none;fill:#bebebe" transform="matrix(.99397 0 0 1 37.707 122.51)" clip-path="url(#clipPath6810-7-87)"/>
  <path id="path12263" style="color:#bebebe;fill:#bebebe" d="m24 361a1 1 0 1 1 -2 0 1 1 0 1 1 2 0z" transform="matrix(.5 0 0 .5 50 223)"/>
  <path id="path12265" style="color:#bebebe;fill:#bebebe" d="m24 361a1 1 0 1 1 -2 0 1 1 0 1 1 2 0z" transform="matrix(.5 0 0 .5 58 223)"/>
  <path id="path12267" style="block-progression:tb;text-indent:0;color:#bebebe;text-transform:none;fill:#bebebe" d="m61.875 412a1.002 1.002 0 1 0 0.125 2h7.0312a1.0001 1.0001 0 1 0 0 -2h-7.031a1.0001 1.0001 0 0 0 -0.125 0z"/>
  <rect id="rect12269" style="color:#bebebe;fill:#bebebe" height="1" width="9" y="413" x="61"/>
  <rect id="rect12271" style="color:#bebebe;fill:#bebebe" height="4" width="3" y="410" x="64"/>
  <path id="path12273" style="opacity:.5;block-progression:tb;text-indent:0;color:#000000;text-transform:none;fill:#bebebe" d="m73 399.01c-1.0959 0-1.9839 0.9065-1.9839 2.0252s0.88799 2.0252 1.9839 2.0252 1.9839-0.9065 1.9839-2.0252-0.88799-2.0252-1.9839-2.0252zm0 0.98791c0.56098 0 1.0161 0.46463 1.0161 1.0373 0 0.57266-0.45515 1.0373-1.0161 1.0373-0.56098 0-1.0161-0.46463-1.0161-1.0373s0.45515-1.0373 1.0161-1.0373z"/>
  <path id="path12275" style="color:#000000;fill:#bebebe" d="m-186.06 184.06a1.9375 1.9375 0 1 1 -3.875 0 1.9375 1.9375 0 1 1 3.875 0z" transform="matrix(1.0538 0 0 1.0323 271.14 221)"/>
  <path id="path12277" style="opacity:.5;block-progression:tb;text-indent:0;color:#000000;text-transform:none;fill:#bebebe" d="m73.031 404.02c-1.1187 0-2.0252 0.888-2.0252 1.9839s0.90649 1.9839 2.0252 1.9839 2.0252-0.888 2.0252-1.9839-0.90649-1.9839-2.0252-1.9839zm0 0.96775c0.57267 0 1.0373 0.45514 1.0373 1.0161 0 0.56098-0.46463 1.0161-1.0373 1.0161s-1.0373-0.45515-1.0373-1.0161c0-0.56098 0.46463-1.0161 1.0373-1.0161z"/>
 </g>
</svg>
