<svg xmlns="http://www.w3.org/2000/svg" height="16" width="16"><title>elementary Symbolic Icon Theme</title><g fill="#bebebe"><path d="M13 1a2 2 0 1 0 0 4 2 2 0 0 0 0-4zm0 1a1 1 0 1 1 0 2 1 1 0 0 1 0-2z" opacity=".5" color="#000" overflow="visible"/><path d="M15 13a2 2 0 1 1-4 0 2 2 0 1 1 4 0zm-2-7a2 2 0 1 0 0 4 2 2 0 0 0 0-4z" color="#000" overflow="visible"/><path d="M5.5 1A2.495 2.495 0 0 0 3 3.5v5C3 9.885 4.115 11 5.5 11S8 9.885 8 8.5v-5C8 2.115 6.885 1 5.5 1zm-4 6a.5.5 0 0 0-.5.5v.97a4.516 4.516 0 0 0 3 4.25V14h-.5a.5.5 0 0 0 0 1h4a.5.5 0 0 0 0-1H7v-1.28a4.516 4.516 0 0 0 3-4.25V7.5a.5.5 0 0 0-1 0c0 .07.006.128.03.188v.78A3.52 3.52 0 0 1 5.5 12C3.548 12 2 10.433 2 8.47V7.5a.5.5 0 0 0-.5-.5z" style="text-indent:0;text-align:start;line-height:normal;text-transform:none;block-progression:tb;-inkscape-font-specification:Sans" font-weight="400" color="#bebebe" overflow="visible" font-family="Sans"/></g></svg>