<?xml version="1.0" encoding="UTF-8" standalone="no"?>
<svg xmlns:dc="http://purl.org/dc/elements/1.1/" xmlns:cc="http://creativecommons.org/ns#" xmlns:rdf="http://www.w3.org/1999/02/22-rdf-syntax-ns#" xmlns:svg="http://www.w3.org/2000/svg" xmlns="http://www.w3.org/2000/svg" id="svg8" version="1.1" width="16" height="16">
  <metadata id="metadata14">
    <rdf:RDF>
      <cc:Work rdf:about="">
        <dc:format>image/svg+xml</dc:format>
        <dc:type rdf:resource="http://purl.org/dc/dcmitype/StillImage" />
      </cc:Work>
    </rdf:RDF>
  </metadata>
  <defs id="defs12" />
  <path d="m 11,11 h 1.375 L 13.5,12.094 14.594,11 H 16 v 1.469 L 14.907,13.531 16,14.594 V 16 H 14.563 L 13.5,14.937 12.438,16 H 11 V 14.594 L 12.063,13.531 11,12.47 Z" overflow="visible" style="color:#bebebe;overflow:visible;fill:#666666;marker:none" id="path2" />
  <path id="rect824" d="m 1,3 v 9 h 1 v 1 h 1 v 1 h 7 V 13 H 4 V 12 H 3 V 11 H 2 V 4 H 3 V 7 9 H 5 V 7 4 H 6.5 V 7 9 H 8.5097656 V 7 H 8.5 V 4 H 10 v 3 2 h 2 V 7 4 h 1 v 6 h 1 V 3 Z" style="opacity:1;vector-effect:none;fill:#666666;fill-opacity:1;stroke:none;stroke-width:1;stroke-linecap:butt;stroke-linejoin:bevel;stroke-miterlimit:4;stroke-dasharray:none;stroke-dashoffset:0;stroke-opacity:1;paint-order:normal" />
</svg>
