<svg xmlns="http://www.w3.org/2000/svg" height="16" width="16"><title>elementary Symbolic Icon Theme</title><g fill="#bebebe"><path d="M5 3v3c.63 0 1.132.346 1.5.813C6.868 6.346 7.368 6 8 6H6V4h3v2H8c.63 0 1.132.346 1.5.813.142-.18.318-.338.5-.47V3H5zM1 8v1h2.28A1.993 1.993 0 0 1 3 8H1zm12 0c0 .36-.11.705-.28 1H14V8h-1zm-3 1.656V10H8v4h5v-4h-2a1.67 1.67 0 0 1-1-.344zM4 9.72V10H2v4h5v-4H5c-.36 0-.706-.11-1-.28zM3 11h3v2H3v-2zm6 0h3v2H9v-2z" opacity=".35" color="#000" overflow="visible"/><path d="M5 7a1 1 0 1 0 0 2 1 1 0 0 0 0-2zm3 0a1 1 0 1 0 0 2 1 1 0 0 0 0-2zm3 0a1 1 0 1 0 0 2 1 1 0 0 0 0-2z"/></g></svg>