<?xml version="1.0" encoding="UTF-8" standalone="no"?>
<svg xmlns:dc="http://purl.org/dc/elements/1.1/" xmlns:cc="http://creativecommons.org/ns#" xmlns:rdf="http://www.w3.org/1999/02/22-rdf-syntax-ns#" xmlns:svg="http://www.w3.org/2000/svg" xmlns="http://www.w3.org/2000/svg" xmlns:sodipodi="http://sodipodi.sourceforge.net/DTD/sodipodi-0.dtd" xmlns:inkscape="http://www.inkscape.org/namespaces/inkscape" height="16" width="16" version="1.1" id="svg8" sodipodi:docname="network-wired-acquiring-symbolic.svg" inkscape:version="0.92.3 (2405546, 2018-03-11)">
  <metadata id="metadata14">
    <rdf:RDF>
      <cc:Work rdf:about="">
        <dc:format>image/svg+xml</dc:format>
        <dc:type rdf:resource="http://purl.org/dc/dcmitype/StillImage" />
      </cc:Work>
    </rdf:RDF>
  </metadata>
  <defs id="defs12" />
  <sodipodi:namedview pagecolor="#ffffff" bordercolor="#666666" borderopacity="1" objecttolerance="10" gridtolerance="10" guidetolerance="10" inkscape:pageopacity="0" inkscape:pageshadow="2" inkscape:window-width="1920" inkscape:window-height="962" id="namedview10" showgrid="true" inkscape:snap-global="true" inkscape:zoom="29.5" inkscape:cx="7.9496074" inkscape:cy="7.0144398" inkscape:window-x="0" inkscape:window-y="30" inkscape:window-maximized="1" inkscape:current-layer="svg8">
    <inkscape:grid type="xygrid" id="grid882" />
  </sodipodi:namedview>
  <path style="opacity:1;vector-effect:none;fill:#666666;fill-opacity:0.34901962;stroke:none;stroke-width:1;stroke-linecap:butt;stroke-linejoin:bevel;stroke-miterlimit:4;stroke-dasharray:none;stroke-dashoffset:0;stroke-opacity:1;paint-order:normal" d="M 1 3 L 1 12 L 2 12 L 2 13 L 3 13 L 3 14 L 12 14 L 12 13 L 13 13 L 13 12 L 14 12 L 14 3 L 1 3 z M 2 4 L 3 4 L 3 6.9628906 A 1.8455498 1.8455498 0 0 1 4.4726562 6.2265625 A 1.8455498 1.8455498 0 0 1 5 6.3046875 L 5 4 L 6.5 4 L 6.5 6.5214844 A 1.8455498 1.8455498 0 0 1 7.5 6.2265625 A 1.8455498 1.8455498 0 0 1 8.5 6.5234375 L 8.5 4 L 10 4 L 10 6.296875 A 1.8455498 1.8455498 0 0 1 10.501953 6.2265625 A 1.8455498 1.8455498 0 0 1 12 6.9960938 L 12 4 L 13 4 L 13 11 L 12 11 L 12 12 L 11 12 L 11 13 L 4 13 L 4 12 L 3 12 L 3 11 L 2 11 L 2 4 z " id="rect824" />
  <path style="fill:#666666;stroke:none;stroke-width:2;stroke-miterlimit:4;stroke-dasharray:none;stroke-opacity:1" inkscape:connector-curvature="0" id="path4" d="m 4.4916247,7.0718141 a 1,1 0 1 0 0,1.9999999 1,1 0 0 0 0,-1.9999999 z m 3,0 a 1,1 0 1 0 0,1.9999999 1,1 0 0 0 0,-1.9999999 z m 2.9999993,0 a 1,1 0 1 0 0,1.9999999 1,1 0 0 0 0,-1.9999999 z" />
</svg>
