<?xml version="1.0" encoding="UTF-8" standalone="no"?>
<svg
   xmlns:dc="http://purl.org/dc/elements/1.1/"
   xmlns:cc="http://creativecommons.org/ns#"
   xmlns:rdf="http://www.w3.org/1999/02/22-rdf-syntax-ns#"
   xmlns:svg="http://www.w3.org/2000/svg"
   xmlns="http://www.w3.org/2000/svg"
   height="16"
   id="svg7384"
   version="1.1"
   width="16.000004">
  <metadata
     id="metadata90">
    <rdf:RDF>
      <cc:Work
         rdf:about="">
        <dc:format>image/svg+xml</dc:format>
        <dc:type
           rdf:resource="http://purl.org/dc/dcmitype/StillImage" />
        <dc:title>elementary Symbolic Icon Theme</dc:title>
      </cc:Work>
    </rdf:RDF>
  </metadata>
  <title
     id="title9167">elementary Symbolic Icon Theme</title>
  <defs
     id="defs7386">
    <filter
       color-interpolation-filters="sRGB"
       id="filter7554">
      <feBlend
         id="feBlend7556"
         in2="BackgroundImage"
         mode="darken" />
    </filter>
    <filter
       color-interpolation-filters="sRGB"
       id="filter7554-7">
      <feBlend
         id="feBlend7556-6"
         in2="BackgroundImage"
         mode="darken" />
    </filter>
  </defs>
  <g
     id="layer9"
     label="status"
     style="display:inline"
     transform="translate(-473.0004,412)">
    <path
       d="m 478.0002,-409 0,4 2,0 0,1 -6,0 0,1 3,0 0,1 -2,0 0,4 5,0 0,-4 -2,0 0,-1 5,0 0,1 -2,0 0,4 2,0 0,-1 -1,0 0,-2 1.875,0 c 0.0305,-0.35511 0.12087,-0.69917 0.28125,-1 l -0.15625,0 0,-1 1.09375,0 c 0.41184,-0.25882 0.88851,-0.40625 1.40625,-0.40625 0.17069,0 0.33762,0.0314 0.5,0.0625 l 0,-0.65625 -6,0 0,-1 2,0 0,-4 -5,0 z m 1,1 3,0 0,2 -3,0 0,-2 z m -3,7 3,0 0,2 -3,0 0,-2 z m 9,2 0,1 1,0 0,-1 -0.15625,0 -0.1875,0 -0.65625,0 z"
       id="path7436"
       style="color:#000000;fill:#bebebe;fill-opacity:1;fill-rule:nonzero;stroke:none;stroke-width:1;marker:none;visibility:visible;display:inline;overflow:visible;enable-background:accumulate" />
    <path
       d="m 486.5004,-402.40315 c -0.92333,0 -1.66667,0.72897 -1.66667,1.6258 l 0,0.77538 c -0.46166,0 -0.83333,0.35698 -0.83333,0.80039 l 0,2.40119 c 0,0.44341 0.37167,0.80039 0.83333,0.80039 l 3.33334,0 c 0.46166,0 0.83333,-0.35698 0.83333,-0.80039 l 0,-2.40119 c 0,-0.44341 -0.37167,-0.80039 -0.83333,-0.80039 l 0,-0.77538 c 0,-0.89683 -0.74334,-1.6258 -1.66667,-1.6258 z m 0,0.80039 c 0.46167,0 0.83333,0.35407 0.83333,0.8004 l 0,0.80039 -1.66666,0 0,-0.80039 c 0,-0.44633 0.37166,-0.8004 0.83333,-0.8004 z"
       id="rect2822-06"
       style="color:#000000;fill:#bebebe;fill-opacity:1;fill-rule:nonzero;stroke:none;stroke-width:1;marker:none;visibility:visible;display:inline;overflow:visible;enable-background:accumulate" />
  </g>
  <g
     id="layer10"
     style="display:inline"
     transform="translate(-473.0004,412)" />
  <g
     id="layer13"
     style="display:inline"
     transform="translate(-473.0004,412)" />
  <g
     id="layer14"
     transform="translate(-473.0004,412)" />
  <g
     id="layer15"
     style="display:inline"
     transform="translate(-473.0004,412)" />
  <g
     id="layer3"
     style="display:inline"
     transform="translate(-232.0002,-155)" />
  <g
     id="g41299"
     transform="translate(-232.0002,-155)" />
  <g
     id="layer12"
     style="display:inline"
     transform="translate(-473.0004,412)" />
</svg>
