<svg xmlns="http://www.w3.org/2000/svg" height="16" width="16"><title>elementary Symbolic Icon Theme</title><g color="#bebebe" fill="#bebebe"><path d="M3 1c-1.108 0-2 .892-2 2v10c0 1.108.892 2 2 2h3.438a1.866 1.866 0 0 1-.313-1.03c0-.657.395-1.123.906-1.47a2.19 2.19 0 0 1-.56-.5H5v1H4c-.554 0-1-.446-1-1V6c0-.554.446-1 1-1h1V4c0-.554.446-1 1-1h4c.554 0 .967.447 1 1v1h1c.554 0 1 .446 1 1v6c0 .554-.446 1-1 1h-1v-1H9.5a1.39 1.39 0 0 1-.47.5c.513.347.908.813.908 1.47 0 .382-.117.73-.313 1.03H13c1.108 0 2-.892 2-2V3c0-1.108-.892-2-2-2H3z" opacity=".35" overflow="visible"/><path d="M7.848 4.97c1.642-.093 3.096 1.17 3.188 2.81 0 1.403-.378 1.923-1.594 2.845-.19.144-.326.25-.375.313-.05.062-.03.033-.03.03.006.53-.473 1-1 1-.53 0-1.008-.47-1-1 0-.502.223-.943.467-1.25a3.82 3.82 0 0 1 .72-.687c.203-.16.46-.38.687-.65.1-.11.13-.31.13-.44v-.03a.988.988 0 0 0-1.06-.94c-.563.03-.97.44-.937 1h-2c-.092-1.64 1.17-2.91 2.81-3zm.188 8a1 1 0 1 1 0 2 1 1 0 0 1 0-2z" overflow="visible"/></g></svg>