<?xml version="1.0" encoding="UTF-8" standalone="no"?>
<svg
   xmlns:dc="http://purl.org/dc/elements/1.1/"
   xmlns:cc="http://creativecommons.org/ns#"
   xmlns:rdf="http://www.w3.org/1999/02/22-rdf-syntax-ns#"
   xmlns:svg="http://www.w3.org/2000/svg"
   xmlns="http://www.w3.org/2000/svg"
   height="16"
   id="svg7384"
   version="1.1"
   width="16.000299">
  <metadata
     id="metadata90">
    <rdf:RDF>
      <cc:Work
         rdf:about="">
        <dc:format>image/svg+xml</dc:format>
        <dc:type
           rdf:resource="http://purl.org/dc/dcmitype/StillImage" />
        <dc:title>elementary Symbolic Icon Theme</dc:title>
      </cc:Work>
    </rdf:RDF>
  </metadata>
  <title
     id="title9167">elementary Symbolic Icon Theme</title>
  <defs
     id="defs7386" />
  <g
     id="layer9"
     style="display:inline"
     transform="translate(-293.0001,542)">
    <path
       d="m 295.0626,-542 c -1.15073,0 -2.0625,0.91177 -2.0625,2.0625 l 0,11.875 c 0,1.15073 0.91177,2.0625 2.0625,2.0625 l 11.875,0 c 1.15073,0 2.0625,-0.91177 2.0625,-2.0625 l 0,-11.875 c 0,-1.15073 -0.91177,-2.0625 -2.0625,-2.0625 l -11.875,0 z m 3.9375,3 0.0937,0 5.90625,0 0,2 -6,0 0,2 6,0 0,2 -6,0 0,2 c -3.6e-4,-4.5e-4 0.0315,10e-5 0.0312,0 l 5.96875,0 0,2 -6,0 c -0.6248,0 -0.99413,-0.24118 -1.34375,-0.5625 -0.33108,-0.30424 -0.64399,-0.78976 -0.625,-1.4375 l -0.0312,0 0,-0.0937 0,-5.84375 0,-0.0625 0.0312,0 c -0.013,-0.4751 0.11013,-0.99964 0.46875,-1.40625 0.35357,-0.40089 0.93419,-0.583 1.5,-0.5625 l 0,-0.0313 z"
       id="rect7047"
       style="color:#bebebe;fill:#bebebe;fill-opacity:1;stroke:none;stroke-width:2;marker:none;visibility:visible;display:inline;overflow:visible" />
  </g>
  <g
     id="layer10"
     style="display:inline"
     transform="translate(-293.0001,542)" />
  <g
     id="layer11"
     transform="translate(-293.0001,542)" />
  <g
     id="layer13"
     style="display:inline"
     transform="translate(-293.0001,542)" />
  <g
     id="layer14"
     transform="translate(-293.0001,542)" />
  <g
     id="layer15"
     style="display:inline"
     transform="translate(-293.0001,542)" />
  <g
     id="g71291"
     style="display:inline"
     transform="translate(-293.0001,542)" />
  <g
     id="g4953"
     style="display:inline"
     transform="translate(-293.0001,542)" />
  <g
     id="layer12"
     style="display:inline"
     transform="translate(-293.0001,542)" />
</svg>
