<?xml version="1.0" encoding="UTF-8" standalone="no"?>
<svg
   xmlns:dc="http://purl.org/dc/elements/1.1/"
   xmlns:cc="http://creativecommons.org/ns#"
   xmlns:rdf="http://www.w3.org/1999/02/22-rdf-syntax-ns#"
   xmlns:svg="http://www.w3.org/2000/svg"
   xmlns="http://www.w3.org/2000/svg"
   height="16"
   id="svg7384"
   version="1.1"
   width="16">
  <metadata
     id="metadata90">
    <rdf:RDF>
      <cc:Work
         rdf:about="">
        <dc:format>image/svg+xml</dc:format>
        <dc:type
           rdf:resource="http://purl.org/dc/dcmitype/StillImage" />
        <dc:title>elementary Symbolic Icon Theme</dc:title>
      </cc:Work>
    </rdf:RDF>
  </metadata>
  <title
     id="title9167">elementary Symbolic Icon Theme</title>
  <defs
     id="defs7386">
    <filter
       color-interpolation-filters="sRGB"
       id="filter7554">
      <feBlend
         id="feBlend7556"
         in2="BackgroundImage"
         mode="darken" />
    </filter>
    <filter
       color-interpolation-filters="sRGB"
       id="filter7554-7">
      <feBlend
         id="feBlend7556-6"
         in2="BackgroundImage"
         mode="darken" />
    </filter>
  </defs>
  <g
     id="layer9"
     label="status"
     style="display:inline"
     transform="translate(-393.0004,502)">
    <path
       d="m 406.5002,-499 c -0.277,0 -0.5,0.223 -0.5,0.5 l 0,11 c 0,0.277 0.223,0.5 0.5,0.5 l 1,0 c 0.277,0 0.5,-0.223 0.5,-0.5 l 0,-11 c 0,-0.277 -0.223,-0.5 -0.5,-0.5 l -1,0 z m -4.125,3.625 c 0.29131,0.29965 0.54615,0.66948 0.59375,1.125 -0.005,-0.0732 0.0427,-0.114 0.0312,-0.1875 -0.0634,-0.36625 -0.33991,-0.66005 -0.625,-0.9375 z m -3.875,2.375 c -0.277,0 -0.5,0.223 -0.5,0.5 l 0,5 c 0,0.277 0.223,0.5 0.5,0.5 l 0.84375,0 c -0.51609,-0.8066 -0.40909,-1.91036 0.40625,-2.5625 0.004,-0.003 0.0273,0.003 0.0312,0 0.008,-0.007 -0.009,-0.0242 0,-0.0312 0.008,-0.006 0.0232,0.006 0.0312,0 -0.58587,-0.50684 -0.87744,-1.24943 -0.6875,-2 l -0.0312,0 c 0.005,-0.0257 0.0252,-0.0372 0.0312,-0.0625 0.003,-0.0103 -0.003,-0.021 0,-0.0312 0.11915,-0.49919 0.35319,-0.91098 0.625,-1.25 -0.0743,-0.0439 -0.157,-0.0626 -0.2499,-0.0626 l -1,0 z m 4.15625,0.0312 c -0.20678,0.26793 -0.4003,0.43705 -0.5,0.53125 0.1384,-0.11041 0.3543,-0.2813 0.4375,-0.375 l 0.0312,-0.0312 0,-0.0312 c 0.0198,-0.0199 0.0128,-0.0716 0.0312,-0.0937 z m 1.34375,1.56255 c -0.42986,0.45142 -0.85254,0.71212 -1.125,0.9375 -0.12255,0.41731 -0.32573,0.77995 -0.65625,1.03125 0.59303,0.48713 0.97497,1.15659 0.71875,1.96875 -0.007,0.004 0.002,0.0233 0,0.0312 -0.002,0.008 0.003,0.0233 0,0.0312 l -0.0312,0 c -0.0471,0.1454 -0.11378,0.28255 -0.1875,0.40625 l 0.78125,0 c 0.277,0 0.5,-0.223 0.5,-0.5 l 0,-3.90625 z m -9.5,1.40625 c -0.277,0 -0.5,0.223 -0.5,0.5 l 0,2 c 0,0.277 0.223,0.5 0.5,0.5 l 1,0 c 0.277,0 0.5,-0.223 0.5,-0.5 l 0,-2 c 0,-0.277 -0.223,-0.5 -0.5,-0.5 l -1,0 z"
       id="rect13768"
       style="opacity:0.35;fill:#bebebe;fill-opacity:1;stroke:none" />
    <path
       d="m 400.84841,-497.03125 c 1.64243,-0.092 3.0955,1.17008 3.1875,2.8125 -10e-5,1.40136 -0.37771,1.92177 -1.59375,2.84375 -0.19093,0.14364 -0.3256,0.2506 -0.375,0.3125 -0.0494,0.0621 -0.0312,0.0332 -0.0312,0.0312 0.007,0.52831 -0.47163,1 -1,1 -0.52837,0 -1.007,-0.47169 -1,-1 0,-0.50239 0.22424,-0.94342 0.46875,-1.25 0.24451,-0.30663 0.4913,-0.51638 0.71875,-0.6875 0.20405,-0.16056 0.46083,-0.38454 0.6875,-0.65625 0.0935,-0.1121 0.129,-0.30766 0.125,-0.4375 l 0,-0.0312 c -0.0316,-0.56324 -0.49926,-0.9691 -1.0625,-0.9375 -0.56324,0.0316 -0.9691,0.43676 -0.9375,1 l -2,0 c -0.092,-1.64243 1.17007,-2.9079 2.8125,-3 z m 0.1875,8 c 0.55228,0 1,0.44772 1,1 0,0.55228 -0.44772,1 -1,1 -0.55228,0 -1,-0.44772 -1,-1 0,-0.55228 0.44772,-1 1,-1 z"
       id="path19592-2-4-0"
       style="color:#bebebe;fill:#bebebe;fill-opacity:1;stroke:none;stroke-width:2;marker:none;visibility:visible;display:inline;overflow:visible" />
  </g>
  <g
     id="layer10"
     style="display:inline"
     transform="translate(-393.0004,502)" />
  <g
     id="layer13"
     style="display:inline"
     transform="translate(-393.0004,502)" />
  <g
     id="layer14"
     transform="translate(-393.0004,502)" />
  <g
     id="layer15"
     style="display:inline"
     transform="translate(-393.0004,502)" />
  <g
     id="g71291"
     style="display:inline"
     transform="translate(-393.0004,502)" />
  <g
     id="layer12"
     style="display:inline"
     transform="translate(-393.0004,502)" />
</svg>
