<?xml version="1.0" encoding="UTF-8" standalone="no"?>
<svg
   xmlns:dc="http://purl.org/dc/elements/1.1/"
   xmlns:cc="http://creativecommons.org/ns#"
   xmlns:rdf="http://www.w3.org/1999/02/22-rdf-syntax-ns#"
   xmlns:svg="http://www.w3.org/2000/svg"
   xmlns="http://www.w3.org/2000/svg"
   width="16"
   version="1.1"
   id="svg7384"
   height="16">
  <metadata
     id="metadata90">
    <rdf:RDF>
      <cc:Work
         rdf:about="">
        <dc:format>image/svg+xml</dc:format>
        <dc:type
           rdf:resource="http://purl.org/dc/dcmitype/StillImage" />
        <dc:title>elementary Symbolic Icon Theme</dc:title>
      </cc:Work>
    </rdf:RDF>
  </metadata>
  <title
     id="title9167">elementary Symbolic Icon Theme</title>
  <defs
     id="defs7386" />
  <path
     d="M 8,3 C 5.14658,3 2.53168,4.11106 0.5,5.9375 L 1.78125,7.375 C 3.59297,5.78655 5.51358,5 8,5 c 2.48642,0 4.32027,0.73946 6.21875,2.40625 L 15.5,5.9375 C 13.46832,4.11106 10.85342,3 8,3 Z"
     id="path8248"
     style="color:#000000;display:inline;overflow:visible;visibility:visible;opacity:0.35;fill:#bebebe;fill-opacity:1;fill-rule:nonzero;stroke:none;stroke-width:1;marker:none;enable-background:accumulate" />
  <path
     id="path8250"
     d="M 8 7 C 6.15211 7 4.48581 7.75032 3.125 8.875 L 4.46875 10.28125 C 5.37512 9.63208 6.76739 9 7.9375 9 C 8.7012726 9 9.5665309 9.2703747 10.339844 9.6328125 C 10.68703 8.965392 11.269989 8.4445782 11.982422 8.1835938 C 10.80703 7.4485963 9.4510468 7 8 7 z M 13 9 C 12.754837 9 12.523331 9.0488867 12.306641 9.1289062 C 12.29533 9.131178 12.232679 9.1444248 12.232422 9.1445312 C 12.23225 9.1446026 12.194709 9.1684041 12.189453 9.171875 C 11.98007 9.2645466 11.790844 9.393765 11.626953 9.5488281 C 11.620624 9.5530951 11.580224 9.5799323 11.580078 9.5800781 C 11.579932 9.580224 11.552538 9.621469 11.548828 9.6269531 C 11.210129 9.9849344 11 10.466005 11 11 L 11 11.998047 L 10.832031 11.998047 C 10.370371 11.998047 10 12.355418 10 12.798828 L 10 15.199219 C 10 15.642629 10.370371 16 10.832031 16 L 15.166016 16 C 15.627676 16 16 15.642629 16 15.199219 L 16 12.798828 C 16 12.355418 15.627676 11.998047 15.166016 11.998047 L 15 11.998047 L 15 11 C 15 9.892 14.108 9 13 9 z M 13 10 A 1 1 0 0 1 14 11 L 14 11.998047 L 12 11.998047 L 12 11 A 1 1 0 0 1 13 10 z M 8 11 C 7.11622 11 6.2352 11.47731 5.875 11.875 L 8 14.15625 L 8.9921875 13.091797 L 8.9921875 12.798828 C 8.9921875 12.246764 9.2948398 11.833591 9.7050781 11.529297 C 9.2649708 11.240495 8.6364752 11 8 11 z "
     style="color:#000000;display:inline;overflow:visible;visibility:visible;fill:#bebebe;fill-opacity:1;fill-rule:nonzero;stroke:none;stroke-width:1;marker:none;enable-background:accumulate" />
</svg>
