<?xml version="1.0" encoding="UTF-8" standalone="no"?>
<!-- Created with Inkscape (http://www.inkscape.org/) -->
<svg id="svg7384" xmlns:rdf="http://www.w3.org/1999/02/22-rdf-syntax-ns#" xmlns="http://www.w3.org/2000/svg" height="16" width="16" version="1.1" xmlns:cc="http://creativecommons.org/ns#" xmlns:dc="http://purl.org/dc/elements/1.1/">
 <metadata id="metadata90">
  <rdf:RDF>
   <cc:Work rdf:about="">
    <dc:format>image/svg+xml</dc:format>
    <dc:type rdf:resource="http://purl.org/dc/dcmitype/StillImage"/>
    <dc:title>Gnome Symbolic Icon Theme</dc:title>
   </cc:Work>
  </rdf:RDF>
 </metadata>
 <title id="title9167">Gnome Symbolic Icon Theme</title>
 <defs id="defs7386">
  <clipPath id="clipPath6279-6-1-4-5" clipPathUnits="userSpaceOnUse">
   <rect id="rect6281-3-0-3-5" style="color:#bebebe;fill:#bebebe" height="6.375" width="3.825" y="220.75" x="26.85"/>
  </clipPath>
  <clipPath id="clipPath6265-33-6-5-1-3" clipPathUnits="userSpaceOnUse">
   <rect id="rect6267-6-9-1-4-8" style="color:#bebebe;fill:#bebebe" height="5.2159" width="2.8977" y="221.33" x="26.966"/>
  </clipPath>
  <clipPath id="clipPath6259-6-8-2-1-6-6" clipPathUnits="userSpaceOnUse">
   <rect id="rect6261-4-9-2-0-9-0" style="color:#bebebe;fill:#bebebe" height="4.8735" width="1.8763" y="221.5" x="26.999"/>
  </clipPath>
 </defs>
 <g id="layer9" transform="translate(-101 -177)">
  <path id="path3771" style="fill:#bebebe" d="m29 209a1 1 0 1 1 -2 0 1 1 0 1 1 2 0z" transform="matrix(1.5 0 0 1.5 66.5 -124)"/>
  <path id="path3753-6-8" style="opacity:.35;block-progression:tb;text-indent:0;color:#000000;text-transform:none;fill:#bebebe" d="m26.938 220.41a1.2751 1.2751 0 0 0 -0.65625 2.1875c0.75756 0.75756 0.75756 1.9299 0 2.6875a1.2816 1.2816 0 1 0 1.8125 1.8125c1.732-1.732 1.732-4.5805 0-6.3125a1.2751 1.2751 0 0 0 -1.1562 -0.375z" clip-path="url(#clipPath6279-6-1-4-5)" transform="matrix(0 -.78431 .78431 0 -67.137 208.06)"/>
  <path id="path3745-5-4-5" style="opacity:.35;block-progression:tb;text-indent:0;color:#000000;text-transform:none;fill:#bebebe" d="m27.125 221.09a0.5796 0.5796 0 0 0 -0.34375 1c1.0233 1.0233 1.0233 2.6642 0 3.6875a0.5796 0.5796 0 1 0 0.8125 0.8125c1.4663-1.4663 1.4663-3.8462 0-5.3125a0.5796 0.5796 0 0 0 -0.46875 -0.1875z" clip-path="url(#clipPath6265-33-6-5-1-3)" transform="matrix(0 -1.7255 1.7255 0 -277.9 231.53)"/>
  <path id="path2937-7-7-0" style="opacity:.35;block-progression:tb;text-indent:0;color:#000000;text-transform:none;fill:#bebebe" d="m27.062 221.31a0.37504 0.37504 0 0 0 -0.125 0.625c1.1015 1.1015 1.1015 2.8985 0 4a0.37565 0.37565 0 1 0 0.53125 0.53125c1.3881-1.3881 1.3881-3.6744 0-5.0625a0.37504 0.37504 0 0 0 -0.40625 -0.0937z" clip-path="url(#clipPath6259-6-8-2-1-6-6)" transform="matrix(0 -2.6667 2.6667 0 -488.67 255)"/>
 </g>
</svg>
