<svg xmlns="http://www.w3.org/2000/svg" height="16" width="16"><title>elementary Symbolic Icon Theme</title><g color="#000" fill="#bebebe"><path d="M13.5 9.56c-.923 0-1.667.73-1.667 1.627v.776c-.46 0-.833.356-.833.8v2.4c0 .445.372.8.833.8h3.334c.46 0 .833-.355.833-.8v-2.4c0-.444-.372-.8-.833-.8v-.776c0-.897-.744-1.626-1.667-1.626zm0 .802c.462 0 .833.354.833.8v.8h-1.666v-.8c0-.446.37-.8.833-.8z" overflow="visible"/><path d="M8 3C5.147 3 2.532 4.11.5 5.938l1.28 1.437C3.594 5.787 5.515 5 8 5c2.486 0 4.32.74 6.22 2.406l1.28-1.468C13.468 4.11 10.853 3 8 3zm0 4c-1.848 0-3.514.75-4.875 1.875L4.47 10.28C5.374 9.633 6.766 9 7.937 9c1.198 0 2.674.634 3.593 1.313l1.376-1.47C11.546 7.72 9.848 7 8 7zm0 4c-.884 0-1.765.477-2.125.875L8 14.155l2.125-2.28C9.765 11.457 8.885 11 8 11z" opacity=".35" overflow="visible"/></g></svg>