<?xml version="1.0" encoding="UTF-8" standalone="no"?>
<svg
   xmlns:dc="http://purl.org/dc/elements/1.1/"
   xmlns:cc="http://creativecommons.org/ns#"
   xmlns:rdf="http://www.w3.org/1999/02/22-rdf-syntax-ns#"
   xmlns:svg="http://www.w3.org/2000/svg"
   xmlns="http://www.w3.org/2000/svg"
   width="16"
   version="1.1"
   id="svg7384"
   height="16">
  <metadata
     id="metadata90">
    <rdf:RDF>
      <cc:Work
         rdf:about="">
        <dc:format>image/svg+xml</dc:format>
        <dc:type
           rdf:resource="http://purl.org/dc/dcmitype/StillImage" />
        <dc:title>elementary Symbolic Icon Theme</dc:title>
      </cc:Work>
    </rdf:RDF>
  </metadata>
  <title
     id="title9167">elementary Symbolic Icon Theme</title>
  <defs
     id="defs7386" />
  <path
     d="M 9.59377,1.125 C 9.33953,1.24367 9.14049,1.45903 9.06252,1.75 c -0.003,0.0105 0.002,0.0208 0,0.0312 -1.78508,-0.0144 -3.41627,1.17138 -3.90625,3 -0.006,0.0206 -0.0261,0.0419 -0.0312,0.0625 -0.51898,1.93691 -1.52877,5.80495 -3.25,5.34375 -0.11466,-0.0307 -0.2454,0.0537 -0.28125,0.1875 l -0.125,0.46875 c -0.0358,0.13378 0.0103,0.28177 0.125,0.3125 l 11.1875,2.96875 c 0.11467,0.0307 0.24541,-0.0225 0.28125,-0.15625 l 0.125,-0.5 c 0.0358,-0.13378 -0.0416,-0.25052 -0.15625,-0.28125 -1.72795,-0.463 -0.67515,-4.34469 -0.15625,-6.28125 0.006,-0.0204 -0.005,-0.0419 0,-0.0625 0.12115,-0.45213 0.15537,-0.90892 0.125,-1.34375 -1.93948,0 -3.5,-1.56051 -3.5,-3.5 0,-0.29885 0.0235,-0.59799 0.0937,-0.875 z m -2.59375,12.5 c 0.0827,0.77146 0.95012,1.375 2,1.375 0.57062,0 1.07313,-0.18127 1.4375,-0.46875 L 7.00002,13.625 Z"
     id="rect3022"
     style="color:#bebebe;display:inline;overflow:visible;visibility:visible;fill:#bebebe;fill-opacity:1;fill-rule:nonzero;stroke:none;stroke-width:1;marker:none;enable-background:accumulate" />
  <path
     d="m 15.00002,2 a 2,2 0 0 1 -4,0 2,2 0 1 1 4,0 z"
     id="path3009"
     class="error"
     style="color:#bebebe;display:inline;overflow:visible;visibility:visible;fill:#d33636;fill-opacity:1;fill-rule:nonzero;stroke:none;stroke-width:1.78124988;marker:none;enable-background:new;clip-rule:nonzero;opacity:1;isolation:auto;mix-blend-mode:normal;color-interpolation:sRGB;color-interpolation-filters:linearRGB;solid-color:#000000;solid-opacity:1;stroke-linecap:butt;stroke-linejoin:miter;stroke-miterlimit:4;stroke-dasharray:none;stroke-dashoffset:0;stroke-opacity:1;filter-blend-mode:normal;filter-gaussianBlur-deviation:0;color-rendering:auto;image-rendering:auto;shape-rendering:auto;text-rendering:auto" />
</svg>
