<?xml version="1.0" encoding="UTF-8" standalone="no"?>
<svg
   height="16"
   width="16"
   version="1.1"
   id="svg1"
   xmlns="http://www.w3.org/2000/svg"
   xmlns:svg="http://www.w3.org/2000/svg">
  <defs
     id="defs1" />
  <path
     id="path1"
     style="marker:none;fill:#4e9a06;fill-opacity:1"
     class="success"
     d="M 8 1 C 4.1340041 1 1 4.1340068 1 8 C 1 11.865993 4.1340041 15 8 15 C 11.865996 15 15 11.865993 15 8 C 15 4.1340068 11.865996 1 8 1 z M 11.638672 3.8632812 C 11.822213 3.8499994 12.017194 3.8993569 12.210938 4.0117188 C 12.65378 4.2685465 12.781583 4.8267562 12.521484 5.2792969 C 12.521484 5.2792969 9.4290521 9.5895846 7.8828125 11.744141 C 7.8172495 11.835782 7.7331956 11.915146 7.6347656 11.978516 C 7.2413186 12.230149 6.7058722 12.178722 6.3789062 11.855469 C 6.3744262 11.850959 6.3710875 11.846897 6.3671875 11.841797 L 3.5195312 8.1152344 C 3.2224473 7.7433125 3.3153579 7.2230389 3.7011719 6.9394531 C 3.7116119 6.9237441 3.7261675 6.9107556 3.7421875 6.9003906 C 4.1408295 6.6454935 4.6830075 6.7020725 5.0078125 7.0351562 L 6.9394531 9.03125 L 11.015625 4.2246094 C 11.185482 4.0022507 11.402691 3.8803579 11.638672 3.8632812 z " />
</svg>
