<?xml version="1.0" encoding="UTF-8" standalone="no"?>
<svg
   xmlns:dc="http://purl.org/dc/elements/1.1/"
   xmlns:cc="http://creativecommons.org/ns#"
   xmlns:rdf="http://www.w3.org/1999/02/22-rdf-syntax-ns#"
   xmlns:svg="http://www.w3.org/2000/svg"
   xmlns="http://www.w3.org/2000/svg"
   height="16"
   id="svg7384"
   version="1.1"
   width="16">
  <metadata
     id="metadata90">
    <rdf:RDF>
      <cc:Work
         rdf:about="">
        <dc:format>image/svg+xml</dc:format>
        <dc:type
           rdf:resource="http://purl.org/dc/dcmitype/StillImage" />
        <dc:title>elementary Symbolic Icon Theme</dc:title>
      </cc:Work>
    </rdf:RDF>
  </metadata>
  <title
     id="title9167">elementary Symbolic Icon Theme</title>
  <defs
     id="defs7386">
    <filter
       color-interpolation-filters="sRGB"
       id="filter7554">
      <feBlend
         id="feBlend7556"
         in2="BackgroundImage"
         mode="darken" />
    </filter>
    <filter
       color-interpolation-filters="sRGB"
       id="filter7554-7">
      <feBlend
         id="feBlend7556-6"
         in2="BackgroundImage"
         mode="darken" />
    </filter>
  </defs>
  <g
     id="layer9"
     label="status"
     style="display:inline"
     transform="translate(-613.00035,402)">
    <path
       d="m 620.96875,-400.9375 c -3.85777,0 -7,3.14223 -7,7 0,3.85777 3.14223,7 7,7 3.85776,0 7,-3.14223 7,-7 0,-3.85777 -3.14224,-7 -7,-7 z m 0,1 c 3.32116,0 6.03125,2.67883 6.03125,6 0,3.32117 -2.71009,6 -6.03125,6 -3.32117,0 -6,-2.67883 -6,-6 0,-3.32117 2.67883,-6 6,-6 z"
       id="path9587"
       style="font-size:medium;font-style:normal;font-variant:normal;font-weight:normal;font-stretch:normal;text-indent:0pt;text-align:start;text-decoration:none;line-height:normal;letter-spacing:normal;word-spacing:normal;text-transform:none;direction:ltr;block-progression:tb;writing-mode:lr-tb;text-anchor:start;baseline-shift:baseline;color:#bebebe;fill:#bebebe;fill-opacity:1;stroke:none;stroke-width:0.99115044;marker:none;visibility:visible;display:inline;overflow:visible;enable-background:accumulate;font-family:Andale Mono;-inkscape-font-specification:Sans" />
    <path
       d="m 616.90625,-394.9375 0,2 1,0 6.125,0 1,0 0,-2 -1,0 -6.125,0 -1,0 z"
       id="path16544-6"
       style="font-size:medium;font-style:normal;font-variant:normal;font-weight:normal;font-stretch:normal;text-indent:0;text-align:start;text-decoration:none;line-height:normal;letter-spacing:normal;word-spacing:normal;text-transform:none;direction:ltr;block-progression:tb;writing-mode:lr-tb;text-anchor:start;baseline-shift:baseline;color:#000000;fill:#bebebe;fill-opacity:1;stroke:none;stroke-width:2;marker:none;visibility:visible;display:inline;overflow:visible;enable-background:accumulate;font-family:Sans;-inkscape-font-specification:Sans" />
  </g>
  <g
     id="layer10"
     style="display:inline"
     transform="translate(-613.00035,402)" />
  <g
     id="layer13"
     style="display:inline"
     transform="translate(-613.00035,402)" />
  <g
     id="layer14"
     transform="translate(-613.00035,402)" />
  <g
     id="layer15"
     style="display:inline"
     transform="translate(-613.00035,402)" />
  <g
     id="g71291"
     style="display:inline"
     transform="translate(-613.00035,402)" />
  <g
     id="layer12"
     style="display:inline"
     transform="translate(-613.00035,402)" />
</svg>
