<svg xmlns="http://www.w3.org/2000/svg" height="16" width="16"><title>elementary Symbolic Icon Theme</title><path d="M5 2C2.23 2 0 4.23 0 7s2.23 5 5 5h3.344L11 15v-3c2.77 0 5-2.23 5-5s-2.23-5-5-5H5zm0 2h1c.276 0 .538.1.72.28L8 5.563l1.28-1.28C9.463 4.1 9.725 4 10 4h1v1c0 .276-.1.538-.28.72L9.437 7l1.28 1.28c.182.182.282.444.282.72v1h-1c-.278 0-.54-.1-.72-.28L8 8.436 6.72 9.72c-.182.18-.444.28-.72.28H5V9c0-.276.1-.538.28-.72L6.564 7 5.28 5.72A1.027 1.027 0 0 1 5 5V4z" color="#bebebe" fill="#bebebe" overflow="visible"/></svg>