<?xml version="1.0" encoding="UTF-8" standalone="no"?>
<svg
   xmlns:osb="http://www.openswatchbook.org/uri/2009/osb"
   xmlns:dc="http://purl.org/dc/elements/1.1/"
   xmlns:cc="http://creativecommons.org/ns#"
   xmlns:rdf="http://www.w3.org/1999/02/22-rdf-syntax-ns#"
   xmlns:svg="http://www.w3.org/2000/svg"
   xmlns="http://www.w3.org/2000/svg"
   width="16.014343"
   viewBox="0 0 16.014343 16"
   version="1.1"
   id="svg10132"
   height="16">
  <defs
     id="defs10134">
    <linearGradient
       osb:paint="solid"
       id="linearGradient15250">
      <stop
         style="stop-color:#ffffff;stop-opacity:1;"
         offset="0"
         id="stop15252" />
    </linearGradient>
  </defs>
  <metadata
     id="metadata10137">
    <rdf:RDF>
      <cc:Work
         rdf:about="">
        <dc:format>image/svg+xml</dc:format>
        <dc:type
           rdf:resource="http://purl.org/dc/dcmitype/StillImage" />
        <dc:title />
      </cc:Work>
    </rdf:RDF>
  </metadata>
  <g
     transform="translate(-64,-1020.3219)"
     id="layer1">
    <path
       style="color:#000000;clip-rule:nonzero;display:inline;overflow:visible;visibility:visible;opacity:1;isolation:auto;mix-blend-mode:normal;color-interpolation:sRGB;color-interpolation-filters:linearRGB;solid-color:#000000;solid-opacity:1;fill:#fbc02d;fill-opacity:1;fill-rule:evenodd;stroke:none;stroke-width:2;stroke-linecap:round;stroke-linejoin:round;stroke-miterlimit:4;stroke-dasharray:none;stroke-dashoffset:0;stroke-opacity:1;color-rendering:auto;image-rendering:auto;shape-rendering:auto;text-rendering:auto;enable-background:accumulate"
       id="path14891"
       d="m 73.5,1021.3622 c -0.277,0 -0.5,0.223 -0.5,0.5 l 0,1 c 0,0.277 0.223,0.5 0.5,0.5 0.277,0 0.5,-0.223 0.5,-0.5 l 0,-1 c 0,-0.277 -0.223,-0.5 -0.5,-0.5 z m -4.242188,1.7578 c -0.127803,0 -0.25557,0.049 -0.353515,0.1465 -0.195772,0.1959 -0.195877,0.5112 0,0.707 l 0.707031,0.7071 c 0.195877,0.1959 0.511189,0.1959 0.707031,0 0.195867,-0.1958 0.195876,-0.5112 0,-0.7071 l -0.707031,-0.707 c -0.09794,-0.098 -0.225711,-0.1465 -0.353516,-0.1465 z m 8.484376,0 c -0.127805,0 -0.255597,0.049 -0.353516,0.1465 l -0.707031,0.707 c -0.195888,0.1959 -0.195898,0.5113 0,0.7071 0.195835,0.1959 0.511143,0.1959 0.707031,0 l 0.707031,-0.7071 c 0.195767,-0.1959 0.195872,-0.5111 0,-0.707 -0.09797,-0.098 -0.225715,-0.1465 -0.353515,-0.1465 z M 73.5,1024.3622 c -1.36048,0 -2.59673,0.7916 -3.169922,2.0254 0.357024,0.025 0.704972,0.078 1.03711,0.1777 0.452415,-0.7456 1.260686,-1.2015 2.132812,-1.2031 1.380712,0 2.5,1.1193 2.5,2.5 -5.44e-4,0.5979 -0.215354,1.1758 -0.605469,1.6289 0.338049,0.091 0.656814,0.2265 0.947266,0.4082 0.426782,-0.5936 0.656954,-1.306 0.658203,-2.0371 0,-1.933 -1.567003,-3.5 -3.5,-3.5 z m 5,3 c -0.277022,0 -0.500023,0.223 -0.5,0.5 -4.9e-5,0.277 0.222978,0.5 0.5,0.5 l 1,0 c 0.277022,0 0.50002,-0.223 0.5,-0.5 -2.2e-5,-0.277 -0.222978,-0.5 -0.5,-0.5 l -1,0 z"
       class="warning" />
    <path
       style="color:#000000;clip-rule:nonzero;display:inline;overflow:visible;visibility:visible;opacity:1;isolation:auto;mix-blend-mode:normal;color-interpolation:sRGB;color-interpolation-filters:linearRGB;solid-color:#000000;solid-opacity:1;fill:#bebebe;fill-opacity:1;fill-rule:evenodd;stroke:none;stroke-width:2;stroke-linecap:round;stroke-linejoin:miter;stroke-miterlimit:4;stroke-dasharray:none;stroke-dashoffset:0;stroke-opacity:1;color-rendering:auto;image-rendering:auto;shape-rendering:auto;text-rendering:auto;enable-background:accumulate"
       id="path15698"
       d="m 70,1027.3622 a 4,4 0 0 0 -3.876953,3.0313 2.5,2.5 0 0 0 -2.123047,2.4687 2.5,2.5 0 0 0 2.5,2.5 l 7.943359,0 0.05664,0 a 2.5,2.5 0 0 0 0.0039,0 2.5,2.5 0 0 0 2.500001,-2.5 2.5,2.5 0 0 0 -2.500001,-2.5 2.5,2.5 0 0 0 -0.615234,0.08 A 4,4 0 0 0 70,1027.3622 Z m 0,1 a 3,3 0 0 1 3,3 l 1,0 a 4,4 0 0 0 -0.01563,-0.3262 3,3 0 0 1 0.01953,0.3262 l 0.496094,0 a 1.5,1.5 0 0 1 0.0039,0 1.5,1.5 0 0 1 1.499996,1.5 1.5,1.5 0 0 1 -1.499996,1.5 l -0.0039,0 -6.007812,0 -1.992188,0 a 1.5,1.5 0 0 1 -1.5,-1.5 1.5,1.5 0 0 1 1.003906,-1.4141 1.5,1.5 0 0 1 0.0059,0 1.5,1.5 0 0 1 0.130859,-0.039 1.5,1.5 0 0 1 0.01953,0 1.5,1.5 0 0 1 0.134766,-0.025 1.5,1.5 0 0 1 0.146484,-0.014 1.5,1.5 0 0 1 0.002,0 1.5,1.5 0 0 1 0.05664,0 1.5,1.5 0 0 1 0.501953,0.088 1.5,1.5 0 0 1 0.002,0 3,3 0 0 1 -0.0039,-0.088 3,3 0 0 1 0.01563,-0.2988 3,3 0 0 1 0.04492,-0.2969 3,3 0 0 1 0.08398,-0.3164 A 3,3 0 0 1 70,1028.3622 Z" />
  </g>
</svg>
