<?xml version="1.0" encoding="UTF-8" standalone="no"?>
<svg
   id="svg8"
   version="1.1"
   width="16"
   height="16"
   sodipodi:docname="weather-storm-tornado-night-symbolic.svg"
   inkscape:version="1.2.2 (b0a8486541, 2022-12-01)"
   xmlns:inkscape="http://www.inkscape.org/namespaces/inkscape"
   xmlns:sodipodi="http://sodipodi.sourceforge.net/DTD/sodipodi-0.dtd"
   xmlns="http://www.w3.org/2000/svg"
   xmlns:svg="http://www.w3.org/2000/svg"
   xmlns:rdf="http://www.w3.org/1999/02/22-rdf-syntax-ns#"
   xmlns:cc="http://creativecommons.org/ns#"
   xmlns:dc="http://purl.org/dc/elements/1.1/">
  <sodipodi:namedview
     pagecolor="#ffffff"
     bordercolor="#666666"
     borderopacity="1"
     objecttolerance="10"
     gridtolerance="10"
     guidetolerance="10"
     inkscape:pageopacity="0"
     inkscape:pageshadow="2"
     inkscape:window-width="1920"
     inkscape:window-height="1029"
     id="namedview7"
     showgrid="false"
     inkscape:zoom="41.716695"
     inkscape:cx="6.3523728"
     inkscape:cy="5.6691931"
     inkscape:window-x="0"
     inkscape:window-y="0"
     inkscape:window-maximized="1"
     inkscape:current-layer="svg8"
     inkscape:showpageshadow="2"
     inkscape:pagecheckerboard="0"
     inkscape:deskcolor="#d1d1d1" />
  <metadata
     id="metadata14">
    <rdf:RDF>
      <cc:Work
         rdf:about="">
        <dc:format>image/svg+xml</dc:format>
        <dc:type
           rdf:resource="http://purl.org/dc/dcmitype/StillImage" />
      </cc:Work>
    </rdf:RDF>
  </metadata>
  <defs
     id="defs12" />
  <path
     style="opacity:0.6;vector-effect:none;fill:#555761;fill-opacity:1;stroke:none;stroke-width:1;stroke-linecap:butt;stroke-linejoin:miter;stroke-miterlimit:4;stroke-dasharray:none;stroke-dashoffset:0;stroke-opacity:1;marker:none;paint-order:normal"
     d="M 3.5,4 C 3.223,4 3,4.223 3,4.5 3,4.777 3.223,5 3.5,5 h 9 C 12.777,5 13,4.777 13,4.5 13,4.223 12.777,4 12.5,4 Z M 5,6 C 4.723,6 4.5,6.223 4.5,6.5 4.5,6.777 4.723,7 5,7 h 6 C 11.277,7 11.5,6.777 11.5,6.5 11.5,6.223 11.277,6 11,6 Z M 6.5,8 C 6.223,8 6,8.223 6,8.5 6,8.777 6.223,9 6.5,9 h 5 C 11.777,9 12,8.777 12,8.5 12,8.223 11.777,8 11.5,8 Z M 7,9.9999999 C 6.723,9.9999999 6.5,10.223 6.5,10.5 6.5,10.777 6.723,11 7,11 H 9.5 C 9.777,11 10,10.777 10,10.5 10,10.223 9.777,9.9999999 9.5,9.9999999 Z M 7,12 C 6.723,12 6.5,12.223 6.5,12.5 6.5,12.777 6.723,13 7,13 H 7.5 C 7.777,13 8,12.777 8,12.5 8,12.223 7.777,12 7.5,12 Z"
     id="rect2160" />
</svg>
