<?xml version="1.0" encoding="UTF-8" standalone="no"?>
<svg
   xmlns:osb="http://www.openswatchbook.org/uri/2009/osb"
   xmlns:dc="http://purl.org/dc/elements/1.1/"
   xmlns:cc="http://creativecommons.org/ns#"
   xmlns:rdf="http://www.w3.org/1999/02/22-rdf-syntax-ns#"
   xmlns:svg="http://www.w3.org/2000/svg"
   xmlns="http://www.w3.org/2000/svg"
   width="16.014221"
   viewBox="0 0 16.014221 16.015093"
   version="1.1"
   id="svg10132"
   height="16.015093">
  <defs
     id="defs10134">
    <linearGradient
       osb:paint="solid"
       id="linearGradient15250">
      <stop
         style="stop-color:#ffffff;stop-opacity:1;"
         offset="0"
         id="stop15252" />
    </linearGradient>
  </defs>
  <metadata
     id="metadata10137">
    <rdf:RDF>
      <cc:Work
         rdf:about="">
        <dc:format>image/svg+xml</dc:format>
        <dc:type
           rdf:resource="http://purl.org/dc/dcmitype/StillImage" />
        <dc:title />
      </cc:Work>
    </rdf:RDF>
  </metadata>
  <g
     transform="translate(-40,-996.34711)"
     id="layer1">
    <rect
       y="1006.3622"
       x="46"
       width="1"
       style="color:#000000;clip-rule:nonzero;display:inline;overflow:visible;visibility:visible;opacity:1;isolation:auto;mix-blend-mode:normal;color-interpolation:sRGB;color-interpolation-filters:linearRGB;solid-color:#000000;solid-opacity:1;fill:#bebebe;fill-opacity:1;fill-rule:evenodd;stroke:none;stroke-width:2;stroke-linecap:round;stroke-linejoin:round;stroke-miterlimit:4;stroke-dasharray:none;stroke-dashoffset:0;stroke-opacity:1;color-rendering:auto;image-rendering:auto;shape-rendering:auto;text-rendering:auto;enable-background:accumulate"
       ry="0.5"
       id="rect14854"
       height="6.0000172" />
    <rect
       y="1007.3622"
       x="48"
       width="1"
       style="color:#000000;clip-rule:nonzero;display:inline;overflow:visible;visibility:visible;opacity:1;isolation:auto;mix-blend-mode:normal;color-interpolation:sRGB;color-interpolation-filters:linearRGB;solid-color:#000000;solid-opacity:1;fill:#bebebe;fill-opacity:1;fill-rule:evenodd;stroke:none;stroke-width:2;stroke-linecap:round;stroke-linejoin:round;stroke-miterlimit:4;stroke-dasharray:none;stroke-dashoffset:0;stroke-opacity:1;color-rendering:auto;image-rendering:auto;shape-rendering:auto;text-rendering:auto;enable-background:accumulate"
       ry="0.5"
       id="rect14856"
       height="5.0000172" />
    <rect
       y="1006.3622"
       x="50"
       width="1"
       style="color:#000000;clip-rule:nonzero;display:inline;overflow:visible;visibility:visible;opacity:1;isolation:auto;mix-blend-mode:normal;color-interpolation:sRGB;color-interpolation-filters:linearRGB;solid-color:#000000;solid-opacity:1;fill:#bebebe;fill-opacity:1;fill-rule:evenodd;stroke:none;stroke-width:2;stroke-linecap:round;stroke-linejoin:round;stroke-miterlimit:4;stroke-dasharray:none;stroke-dashoffset:0;stroke-opacity:1;color-rendering:auto;image-rendering:auto;shape-rendering:auto;text-rendering:auto;enable-background:accumulate"
       ry="0.5"
       id="rect14858"
       height="6.0000172" />
    <rect
       y="1005.3622"
       x="44"
       width="1"
       style="color:#000000;clip-rule:nonzero;display:inline;overflow:visible;visibility:visible;opacity:1;isolation:auto;mix-blend-mode:normal;color-interpolation:sRGB;color-interpolation-filters:linearRGB;solid-color:#000000;solid-opacity:1;fill:#bebebe;fill-opacity:1;fill-rule:evenodd;stroke:none;stroke-width:2;stroke-linecap:round;stroke-linejoin:round;stroke-miterlimit:4;stroke-dasharray:none;stroke-dashoffset:0;stroke-opacity:1;color-rendering:auto;image-rendering:auto;shape-rendering:auto;text-rendering:auto;enable-background:accumulate"
       ry="0.5"
       id="rect14869"
       height="6.0000172" />
    <rect
       y="1005.3622"
       x="52"
       width="1"
       style="color:#000000;clip-rule:nonzero;display:inline;overflow:visible;visibility:visible;opacity:1;isolation:auto;mix-blend-mode:normal;color-interpolation:sRGB;color-interpolation-filters:linearRGB;solid-color:#000000;solid-opacity:1;fill:#bebebe;fill-opacity:1;fill-rule:evenodd;stroke:none;stroke-width:2;stroke-linecap:round;stroke-linejoin:round;stroke-miterlimit:4;stroke-dasharray:none;stroke-dashoffset:0;stroke-opacity:1;color-rendering:auto;image-rendering:auto;shape-rendering:auto;text-rendering:auto;enable-background:accumulate"
       ry="0.5"
       id="rect14871"
       height="5.9999828" />
    <path
       style="color:#000000;clip-rule:nonzero;display:inline;overflow:visible;visibility:visible;opacity:1;isolation:auto;mix-blend-mode:normal;color-interpolation:sRGB;color-interpolation-filters:linearRGB;solid-color:#000000;solid-opacity:1;fill:#bebebe;fill-opacity:1;fill-rule:evenodd;stroke:none;stroke-width:2;stroke-linecap:round;stroke-linejoin:miter;stroke-miterlimit:4;stroke-dasharray:none;stroke-dashoffset:0;stroke-opacity:1;color-rendering:auto;image-rendering:auto;shape-rendering:auto;text-rendering:auto;enable-background:accumulate"
       id="path15404-0"
       d="m 48,997.35829 0,0.004 c -2.01749,9e-4 -3.784656,1.21505 -4.566406,3.002 A 3.5,3.5 0 0 0 40,1003.8622 a 3.5,3.5 0 0 0 3,3.459 l 0,-1.0176 a 2.5,2.5 0 0 1 -2,-2.4453 2.5,2.5 0 0 1 2.095703,-2.4629 c 0.13354,-0.023 0.268747,-0.037 0.404297,-0.037 0.20695,10e-4 0.412961,0.028 0.613281,0.08 0.05196,-0.2199 0.121632,-0.432 0.207031,-0.6348 a 4,4 0 0 1 0.02344,-0.047 c 0.62616,-1.43336 2.0477,-2.3984 3.65625,-2.3984 l 0,0.002 c 1.93565,0 3.549832,1.37467 3.919922,3.2012 a 3,3 0 0 1 -0.002,0 4,4 0 0 1 0.0098,0.062 c 0.0446,0.2391 0.07227,0.4843 0.07227,0.7363 0,0.092 -0.0038,0.1834 -0.0098,0.2754 0.14878,-0.087 0.307997,-0.1532 0.472657,-0.1992 a 2,2 0 0 1 0.03516,-0.01 c 0.16333,-0.042 0.331663,-0.068 0.501953,-0.068 a 2,2 0 0 1 2,2 2,2 0 0 1 -1,1.7305 l 0,1.0996 A 3,3 0 0 0 56,1004.3622 a 3,3 0 0 0 -3,-3 3,3 0 0 0 -0.09961,0 C 52.438621,999.078 50.42033,997.35829 48,997.35829 Z" />
  </g>
</svg>
