<?xml version="1.0" encoding="UTF-8" standalone="no"?>
<svg
   xmlns:osb="http://www.openswatchbook.org/uri/2009/osb"
   xmlns:dc="http://purl.org/dc/elements/1.1/"
   xmlns:cc="http://creativecommons.org/ns#"
   xmlns:rdf="http://www.w3.org/1999/02/22-rdf-syntax-ns#"
   xmlns:svg="http://www.w3.org/2000/svg"
   xmlns="http://www.w3.org/2000/svg"
   width="16"
   viewBox="0 0 16 16"
   version="1.1"
   id="svg10132"
   height="16">
  <defs
     id="defs10134">
    <linearGradient
       osb:paint="solid"
       id="linearGradient15250">
      <stop
         style="stop-color:#ffffff;stop-opacity:1;"
         offset="0"
         id="stop15252" />
    </linearGradient>
  </defs>
  <metadata
     id="metadata10137">
    <rdf:RDF>
      <cc:Work
         rdf:about="">
        <dc:format>image/svg+xml</dc:format>
        <dc:type
           rdf:resource="http://purl.org/dc/dcmitype/StillImage" />
        <dc:title />
      </cc:Work>
    </rdf:RDF>
  </metadata>
  <g
     transform="translate(-112.01422,-996.3471)"
     id="layer1">
    <path
       style="color:#000000;font-style:normal;font-variant:normal;font-weight:normal;font-stretch:normal;font-size:medium;line-height:normal;font-family:sans-serif;text-indent:0;text-align:start;text-decoration:none;text-decoration-line:none;text-decoration-style:solid;text-decoration-color:#000000;letter-spacing:normal;word-spacing:normal;text-transform:none;direction:ltr;block-progression:tb;writing-mode:lr-tb;baseline-shift:baseline;text-anchor:start;white-space:normal;clip-rule:nonzero;display:inline;overflow:visible;visibility:visible;opacity:0.35;isolation:auto;mix-blend-mode:normal;color-interpolation:sRGB;color-interpolation-filters:linearRGB;solid-color:#000000;solid-opacity:1;fill:#bebebe;fill-opacity:1;fill-rule:nonzero;stroke:none;stroke-width:1.5;stroke-linecap:round;stroke-linejoin:miter;stroke-miterlimit:4;stroke-dasharray:none;stroke-dashoffset:0;stroke-opacity:1;marker:none;color-rendering:auto;image-rendering:auto;shape-rendering:auto;text-rendering:auto;enable-background:accumulate"
       id="path3645-5"
       d="m 117.07654,998.46233 c -1.1375,0 -2.22395,0.47786 -3.0918,1.34571 a 0.750075,0.750075 0 1 0 1.06055,1.06056 c 0.63215,-0.6322 1.29375,-0.90627 2.03125,-0.90627 0.7375,0 1.58428,0.29657 2.48828,0.97457 1.12634,0.8448 2.28341,1.3026 3.41797,1.295 1.13456,-0.01 2.20155,-0.5024 3.0625,-1.3633 a 0.750075,0.750075 0 1 0 -1.06055,-1.06056 c -0.63904,0.63906 -1.28995,0.91896 -2.01367,0.92386 -0.72372,0 -1.56725,-0.2888 -2.50781,-0.99418 -1.096,-0.822 -2.24922,-1.27539 -3.38672,-1.27539 z m 0,3.99997 c -1.1375,0 -2.22395,0.4779 -3.0918,1.3457 a 0.750075,0.750075 0 1 0 1.06055,1.0606 c 0.63215,-0.6322 1.29375,-0.9063 2.03125,-0.9063 0.7375,0 1.58428,0.2966 2.48828,0.9746 1.12634,0.8448 2.28341,1.3026 3.41797,1.295 1.13456,-0.01 2.20155,-0.5024 3.0625,-1.3633 a 0.750075,0.750075 0 1 0 -1.06055,-1.0606 c -0.63904,0.6391 -1.28995,0.919 -2.01367,0.9239 -0.72372,0 -1.56725,-0.2888 -2.50781,-0.9942 -1.096,-0.822 -2.24922,-1.2754 -3.38672,-1.2754 z m 0,4 c -1.1375,0 -2.22395,0.4779 -3.0918,1.3457 a 0.750075,0.750075 0 1 0 1.06055,1.0606 c 0.63215,-0.6322 1.29375,-0.9063 2.03125,-0.9063 0.7375,0 1.58428,0.2966 2.48828,0.9746 1.12634,0.8448 2.28341,1.3026 3.41797,1.295 1.13456,-0.01 2.20155,-0.5024 3.0625,-1.3633 a 0.750075,0.750075 0 1 0 -1.06055,-1.0606 c -0.63904,0.6391 -1.28995,0.919 -2.01367,0.9239 -0.72372,0 -1.56725,-0.2888 -2.50781,-0.9942 -1.096,-0.822 -2.24922,-1.2754 -3.38672,-1.2754 z" />
  </g>
</svg>
