<?xml version="1.0" encoding="UTF-8" standalone="no"?>
<!-- Created with Inkscape (http://www.inkscape.org/) -->
<svg
   xmlns:dc="http://purl.org/dc/elements/1.1/"
   xmlns:cc="http://creativecommons.org/ns#"
   xmlns:rdf="http://www.w3.org/1999/02/22-rdf-syntax-ns#"
   xmlns:svg="http://www.w3.org/2000/svg"
   xmlns="http://www.w3.org/2000/svg"
   xmlns:xlink="http://www.w3.org/1999/xlink"
   xmlns:sodipodi="http://sodipodi.sourceforge.net/DTD/sodipodi-0.dtd"
   xmlns:inkscape="http://www.inkscape.org/namespaces/inkscape"
   version="1.0"
   width="24"
   height="24"
   id="svg4431"
   sodipodi:version="0.32"
   inkscape:version="0.46"
   sodipodi:docname="audio-volume-blocking-panel.svg"
   inkscape:output_extension="org.inkscape.output.svg.inkscape">
  <metadata
     id="metadata16">
    <rdf:RDF>
      <cc:Work
         rdf:about="">
        <dc:format>image/svg+xml</dc:format>
        <dc:type
           rdf:resource="http://purl.org/dc/dcmitype/StillImage" />
      </cc:Work>
    </rdf:RDF>
  </metadata>
  <sodipodi:namedview
     inkscape:window-height="781"
     inkscape:window-width="1440"
     inkscape:pageshadow="2"
     inkscape:pageopacity="0.0"
     guidetolerance="10.0"
     gridtolerance="10.0"
     objecttolerance="10.0"
     borderopacity="1.0"
     bordercolor="#666666"
     pagecolor="#ffffff"
     id="base"
     showgrid="false"
     inkscape:zoom="20.75"
     inkscape:cx="4.5301205"
     inkscape:cy="12"
     inkscape:window-x="0"
     inkscape:window-y="24"
     inkscape:current-layer="svg4431" />
  <defs
     id="defs4433">
    <linearGradient
       id="linearGradient3587-6-5">
      <stop
         id="stop3589-9-2"
         style="stop-color:#000000;stop-opacity:1"
         offset="0" />
      <stop
         id="stop3591-7-4"
         style="stop-color:#363636;stop-opacity:1"
         offset="1" />
    </linearGradient>
    <linearGradient
       x1="9"
       y1="3"
       x2="9"
       y2="21"
       id="linearGradient2393"
       xlink:href="#linearGradient3587-6-5"
       gradientUnits="userSpaceOnUse"
       gradientTransform="translate(-1,0)" />
    <linearGradient
       gradientTransform="matrix(0.4101105,0,0,0.4101105,2.737234,1.930148)"
       gradientUnits="userSpaceOnUse"
       xlink:href="#linearGradient3187"
       id="linearGradient2394"
       y2="34.307468"
       x2="25.024395"
       y1="5.0470595"
       x1="25.024395" />
    <linearGradient
       id="linearGradient3187">
      <stop
         offset="0"
         style="stop-color:#a60000;stop-opacity:1"
         id="stop3189" />
      <stop
         offset="1"
         style="stop-color:#ff1313;stop-opacity:1"
         id="stop3191" />
    </linearGradient>
    <linearGradient
       gradientTransform="matrix(0.4101105,0,0,-0.4101105,10.737234,23.069852)"
       gradientUnits="userSpaceOnUse"
       xlink:href="#linearGradient3187"
       id="linearGradient2397"
       y2="7.4854269"
       x2="25.024395"
       y1="29.430733"
       x1="25.024395" />
    <linearGradient
       inkscape:collect="always"
       xlink:href="#linearGradient3187"
       id="linearGradient3190"
       gradientUnits="userSpaceOnUse"
       gradientTransform="translate(-1,0)"
       x1="9"
       y1="3"
       x2="9"
       y2="21" />
  </defs>
  <path
     style="opacity:0.6;fill:#ffffff;fill-opacity:1;fill-rule:evenodd;stroke:none"
     id="path2387-4"
     d="M 3,11 L 3,16 L 5,16 L 9,20 L 9,7 L 5,11 L 3,11 z M 11,13 C 11.666667,13 12.333333,13 13,13 C 13,13.333333 13,13.666667 13,14 C 12.333333,14 11.666667,14 11,14 C 11,13.666667 11,13.333333 11,13 z M 19,13 C 19.666667,13 20.333333,13 21,13 C 21,13.333333 21,13.666667 21,14 C 20.333333,14 19.666667,14 19,14 C 19,13.666667 19,13.333333 19,13 z M 15,13 C 15.666667,13 16.333333,13 17,13 C 17,13.333333 17,13.666667 17,14 C 16.333333,14 15.666667,14 15,14 C 15,13.666667 15,13.333333 15,13 z" />
  <path
     style="opacity:0.80000000000000004;fill:url(#linearGradient3190);fill-opacity:1.0;fill-rule:evenodd;stroke:none"
     id="path2387"
     d="M 3,10 L 3,15 L 5,15 L 9,19 L 9,6 L 5,10 L 3,10 z M 11,12 C 11.666667,12 12.333333,12 13,12 C 13,12.333333 13,12.666667 13,13 C 12.333333,13 11.666667,13 11,13 C 11,12.666667 11,12.333333 11,12 z M 19,12 C 19.666667,12 20.333333,12 21,12 C 21,12.333333 21,12.666667 21,13 C 20.333333,13 19.666667,13 19,13 C 19,12.666667 19,12.333333 19,12 z M 15,12 C 15.666667,12 16.333333,12 17,12 C 17,12.333333 17,12.666667 17,13 C 16.333333,13 15.666667,13 15,13 C 15,12.666667 15,12.333333 15,12 z" />
</svg>
