<?xml version="1.0" encoding="UTF-8" standalone="no"?>
<!-- Created with Inkscape (http://www.inkscape.org/) -->

<svg
   xmlns:svg="http://www.w3.org/2000/svg"
   xmlns="http://www.w3.org/2000/svg"
   xmlns:xlink="http://www.w3.org/1999/xlink"
   version="1.0"
   width="24"
   height="24"
   id="svg2">
  <defs
     id="defs4">
    <linearGradient
       id="linearGradient3745">
      <stop
         id="stop3747"
         style="stop-color:#4f524d;stop-opacity:1"
         offset="0" />
      <stop
         id="stop3749"
         style="stop-color:#787977;stop-opacity:1"
         offset="0.47804546" />
      <stop
         id="stop3751"
         style="stop-color:#979894;stop-opacity:1"
         offset="1" />
    </linearGradient>
    <linearGradient
       x1="11.566265"
       y1="22.292103"
       x2="15.214532"
       y2="33.95525"
       id="linearGradient3199-2"
       xlink:href="#linearGradient8265-821-176-38-919-66-249-2"
       gradientUnits="userSpaceOnUse"
       gradientTransform="matrix(0.43442905,0,0,0.49165503,1.5333934,-0.86492482)" />
    <linearGradient
       id="linearGradient8265-821-176-38-919-66-249-2">
      <stop
         id="stop2687-1"
         style="stop-color:#ffffff;stop-opacity:0.27450982"
         offset="0" />
      <stop
         id="stop2689-5"
         style="stop-color:#ffffff;stop-opacity:0.07843138"
         offset="1" />
    </linearGradient>
    <linearGradient
       x1="25"
       y1="13.25"
       x2="25"
       y2="46.625"
       id="linearGradient3215-0"
       xlink:href="#linearGradient6265-9"
       gradientUnits="userSpaceOnUse"
       gradientTransform="matrix(0.4871795,0,0,0.51612906,0.30769217,-0.98387232)" />
    <linearGradient
       id="linearGradient6265-9">
      <stop
         id="stop6267-0"
         style="stop-color:#ffffff;stop-opacity:1"
         offset="0" />
      <stop
         id="stop6269-4"
         style="stop-color:#ffffff;stop-opacity:0"
         offset="1" />
    </linearGradient>
    <radialGradient
       cx="19.972029"
       cy="13.30493"
       r="21"
       fx="19.972029"
       fy="13.30493"
       id="radialGradient3218-0"
       xlink:href="#linearGradient7012-661-145-733-759-865-745-661-970-94-1"
       gradientUnits="userSpaceOnUse"
       gradientTransform="matrix(0,0.86751005,-1.0754431,0,20.979001,-12.098662)" />
    <linearGradient
       id="linearGradient7012-661-145-733-759-865-745-661-970-94-1">
      <stop
         id="stop3618-3"
         style="stop-color:#edd563;stop-opacity:1"
         offset="0" />
      <stop
         id="stop3620-7"
         style="stop-color:#e08223;stop-opacity:1"
         offset="1" />
    </linearGradient>
    <linearGradient
       x1="16.258741"
       y1="45"
       x2="16.258741"
       y2="10.995625"
       id="linearGradient3220-4"
       xlink:href="#linearGradient3390-178-986-453-1"
       gradientUnits="userSpaceOnUse"
       gradientTransform="matrix(0.51219511,0,0,0.54545458,-0.29268256,-0.77272662)" />
    <linearGradient
       id="linearGradient3390-178-986-453-1">
      <stop
         id="stop3624-1"
         style="stop-color:#bb5e12;stop-opacity:1"
         offset="0" />
      <stop
         id="stop3626-30"
         style="stop-color:#cd8033;stop-opacity:1"
         offset="1" />
    </linearGradient>
    <linearGradient
       x1="302.85715"
       y1="366.64789"
       x2="302.85715"
       y2="609.50507"
       id="linearGradient3022-3"
       xlink:href="#linearGradient5048-2"
       gradientUnits="userSpaceOnUse"
       gradientTransform="matrix(0.0655873,0,0,0.04323529,0.2948772,21.647871)" />
    <linearGradient
       id="linearGradient5048-2">
      <stop
         id="stop5050-1"
         style="stop-color:#000000;stop-opacity:0"
         offset="0" />
      <stop
         id="stop5056-7"
         style="stop-color:#000000;stop-opacity:1"
         offset="0.5" />
      <stop
         id="stop5052-56"
         style="stop-color:#000000;stop-opacity:0"
         offset="1" />
    </linearGradient>
    <radialGradient
       cx="605.71429"
       cy="486.64789"
       r="117.14286"
       fx="605.71429"
       fy="486.64789"
       id="radialGradient3024-5"
       xlink:href="#linearGradient5060-4"
       gradientUnits="userSpaceOnUse"
       gradientTransform="matrix(0.0655873,0,0,0.04323529,0.3077848,21.647871)" />
    <linearGradient
       id="linearGradient5060-4">
      <stop
         id="stop5062-2"
         style="stop-color:#000000;stop-opacity:1"
         offset="0" />
      <stop
         id="stop5064-21"
         style="stop-color:#000000;stop-opacity:0"
         offset="1" />
    </linearGradient>
    <radialGradient
       cx="605.71429"
       cy="486.64789"
       r="117.14286"
       fx="605.71429"
       fy="486.64789"
       id="radialGradient3288"
       xlink:href="#linearGradient5060-4"
       gradientUnits="userSpaceOnUse"
       gradientTransform="matrix(-0.0655873,0,0,0.04323529,47.692225,21.647871)" />
    <radialGradient
       cx="23.688078"
       cy="14.210698"
       r="22.597088"
       fx="23.688078"
       fy="14.210698"
       id="radialGradient2895"
       xlink:href="#linearGradient5188"
       gradientUnits="userSpaceOnUse"
       gradientTransform="matrix(-2.135667,0,0,2.110607,-137.81127,12.570337)" />
    <linearGradient
       id="linearGradient5188">
      <stop
         id="stop5190"
         style="stop-color:#ffffff;stop-opacity:1"
         offset="0" />
      <stop
         id="stop5192"
         style="stop-color:#aeaea3;stop-opacity:1"
         offset="1" />
    </linearGradient>
    <radialGradient
       cx="20.089987"
       cy="10.853651"
       r="22.597088"
       fx="20.089987"
       fy="10.853651"
       id="radialGradient2897"
       xlink:href="#linearGradient5196"
       gradientUnits="userSpaceOnUse"
       gradientTransform="matrix(-1.790269,0,0,1.769263,-148.89909,16.289507)" />
    <linearGradient
       id="linearGradient5196">
      <stop
         id="stop5198"
         style="stop-color:#dfe2dc;stop-opacity:1"
         offset="0" />
      <stop
         id="stop5200"
         style="stop-color:#86917a;stop-opacity:1"
         offset="1" />
    </linearGradient>
    <linearGradient
       x1="22.008699"
       y1="36.509514"
       x2="23.585091"
       y2="14.412428"
       id="linearGradient2899"
       xlink:href="#linearGradient5162"
       gradientUnits="userSpaceOnUse"
       gradientTransform="matrix(-1,0,0,1,-164.71303,28.239477)" />
    <linearGradient
       id="linearGradient5162">
      <stop
         id="stop5164"
         style="stop-color:#babdb6;stop-opacity:1"
         offset="0" />
      <stop
         id="stop5166"
         style="stop-color:#ffffff;stop-opacity:1"
         offset="1" />
    </linearGradient>
    <linearGradient
       x1="24.365993"
       y1="20.246058"
       x2="32.600704"
       y2="28.554564"
       id="linearGradient2901"
       xlink:href="#linearGradient5162"
       gradientUnits="userSpaceOnUse"
       gradientTransform="matrix(-1,0,0,1,-164.71303,28.239477)" />
    <linearGradient
       x1="25.632622"
       y1="10.611729"
       x2="38.714096"
       y2="18.389904"
       id="linearGradient2903"
       xlink:href="#linearGradient5176"
       gradientUnits="userSpaceOnUse"
       gradientTransform="matrix(-1,0,0,1,-164.71303,28.239477)" />
    <linearGradient
       id="linearGradient5176">
      <stop
         id="stop5178"
         style="stop-color:#000000;stop-opacity:1"
         offset="0" />
      <stop
         id="stop5180"
         style="stop-color:#000000;stop-opacity:0"
         offset="1" />
    </linearGradient>
    <radialGradient
       cx="23.688078"
       cy="14.210698"
       r="22.597088"
       fx="23.688078"
       fy="14.210698"
       id="radialGradient2905"
       xlink:href="#linearGradient5188"
       gradientUnits="userSpaceOnUse"
       gradientTransform="matrix(-2.135667,0,0,2.110607,-137.81127,12.570337)" />
    <radialGradient
       cx="20.089987"
       cy="10.853651"
       r="22.597088"
       fx="20.089987"
       fy="10.853651"
       id="radialGradient2907"
       xlink:href="#linearGradient5196"
       gradientUnits="userSpaceOnUse"
       gradientTransform="matrix(-1.790269,0,0,1.769263,-148.89909,16.289507)" />
    <linearGradient
       x1="22.008699"
       y1="36.509514"
       x2="23.585091"
       y2="14.412428"
       id="linearGradient2909"
       xlink:href="#linearGradient5162"
       gradientUnits="userSpaceOnUse"
       gradientTransform="matrix(-1,0,0,1,-164.71303,28.239477)" />
    <linearGradient
       x1="24.365993"
       y1="20.246058"
       x2="32.600704"
       y2="28.554564"
       id="linearGradient2911"
       xlink:href="#linearGradient5162"
       gradientUnits="userSpaceOnUse"
       gradientTransform="matrix(-1,0,0,1,-164.71303,28.239477)" />
    <linearGradient
       x1="25.632622"
       y1="10.611729"
       x2="38.714096"
       y2="18.389904"
       id="linearGradient2913"
       xlink:href="#linearGradient5176"
       gradientUnits="userSpaceOnUse"
       gradientTransform="matrix(-1,0,0,1,-164.71303,28.239477)" />
    <radialGradient
       cx="23.688078"
       cy="14.210698"
       r="22.597088"
       fx="23.688078"
       fy="14.210698"
       id="radialGradient2915"
       xlink:href="#linearGradient5188"
       gradientUnits="userSpaceOnUse"
       gradientTransform="matrix(-2.135667,0,0,2.110607,-137.81127,12.570337)" />
    <radialGradient
       cx="20.089987"
       cy="10.853651"
       r="22.597088"
       fx="20.089987"
       fy="10.853651"
       id="radialGradient2917"
       xlink:href="#linearGradient5196"
       gradientUnits="userSpaceOnUse"
       gradientTransform="matrix(-1.790269,0,0,1.769263,-148.89909,16.289507)" />
    <linearGradient
       x1="22.008699"
       y1="36.509514"
       x2="23.585091"
       y2="14.412428"
       id="linearGradient2919"
       xlink:href="#linearGradient5162"
       gradientUnits="userSpaceOnUse"
       gradientTransform="matrix(-1,0,0,1,-164.71303,28.239477)" />
    <linearGradient
       x1="24.365993"
       y1="20.246058"
       x2="32.600704"
       y2="28.554564"
       id="linearGradient2921"
       xlink:href="#linearGradient5162"
       gradientUnits="userSpaceOnUse"
       gradientTransform="matrix(-1,0,0,1,-164.71303,28.239477)" />
    <linearGradient
       x1="25.632622"
       y1="10.611729"
       x2="38.714096"
       y2="18.389904"
       id="linearGradient2923"
       xlink:href="#linearGradient5176"
       gradientUnits="userSpaceOnUse"
       gradientTransform="matrix(-1,0,0,1,-164.71303,28.239477)" />
    <radialGradient
       cx="23.688078"
       cy="14.210698"
       r="22.597088"
       fx="23.688078"
       fy="14.210698"
       id="radialGradient2925"
       xlink:href="#linearGradient5188"
       gradientUnits="userSpaceOnUse"
       gradientTransform="matrix(-2.135667,0,0,2.110607,-137.81127,12.570337)" />
    <radialGradient
       cx="20.089987"
       cy="10.853651"
       r="22.597088"
       fx="20.089987"
       fy="10.853651"
       id="radialGradient2927"
       xlink:href="#linearGradient5196"
       gradientUnits="userSpaceOnUse"
       gradientTransform="matrix(-1.790269,0,0,1.769263,-148.89909,16.289507)" />
    <linearGradient
       x1="22.008699"
       y1="36.509514"
       x2="23.585091"
       y2="14.412428"
       id="linearGradient2929"
       xlink:href="#linearGradient5162"
       gradientUnits="userSpaceOnUse"
       gradientTransform="matrix(-1,0,0,1,-164.71303,28.239477)" />
    <linearGradient
       x1="24.365993"
       y1="20.246058"
       x2="32.600704"
       y2="28.554564"
       id="linearGradient2931"
       xlink:href="#linearGradient5162"
       gradientUnits="userSpaceOnUse"
       gradientTransform="matrix(-1,0,0,1,-164.71303,28.239477)" />
    <linearGradient
       x1="25.632622"
       y1="10.611729"
       x2="38.714096"
       y2="18.389904"
       id="linearGradient2933"
       xlink:href="#linearGradient5176"
       gradientUnits="userSpaceOnUse"
       gradientTransform="matrix(-1,0,0,1,-164.71303,28.239477)" />
    <linearGradient
       x1="44.698868"
       y1="11"
       x2="40.702"
       y2="11"
       id="linearGradient3202"
       xlink:href="#linearGradient3745"
       gradientUnits="userSpaceOnUse"
       gradientTransform="matrix(0.50039153,0,0,0.59999974,-0.36693572,-1.599997)" />
    <linearGradient
       x1="5.3863635"
       y1="38.746311"
       x2="19.737663"
       y2="21.169638"
       id="linearGradient3212"
       xlink:href="#linearGradient161-689-862"
       gradientUnits="userSpaceOnUse"
       gradientTransform="matrix(1.2382236,0,0,0.17795673,-1.7799672,-0.27197652)" />
    <linearGradient
       id="linearGradient161-689-862">
      <stop
         id="stop3698"
         style="stop-color:#81857e;stop-opacity:1"
         offset="0" />
      <stop
         id="stop3700"
         style="stop-color:#b3b4b1;stop-opacity:1"
         offset="1" />
    </linearGradient>
    <linearGradient
       id="linearGradient9472">
      <stop
         id="stop9474"
         style="stop-color:#4f524d;stop-opacity:1"
         offset="0" />
      <stop
         id="stop9486"
         style="stop-color:#787977;stop-opacity:1"
         offset="0.78686917" />
      <stop
         id="stop9476"
         style="stop-color:#979894;stop-opacity:1"
         offset="1" />
    </linearGradient>
    <linearGradient
       x1="3"
       y1="8.5"
       x2="45"
       y2="8.5"
       id="linearGradient3632"
       xlink:href="#linearGradient9472"
       gradientUnits="userSpaceOnUse"
       gradientTransform="matrix(0.51219511,0,0,0.66666693,-0.29268256,-2.1666684)" />
    <linearGradient
       x1="3"
       y1="8.5"
       x2="45"
       y2="8.5"
       id="linearGradient3634"
       xlink:href="#linearGradient9472"
       gradientUnits="userSpaceOnUse"
       gradientTransform="matrix(0.51219511,0,0,0.66666693,-0.29268256,-2.1666684)" />
  </defs>
  <g
     id="layer1">
    <path
       d="m 3.0365857,1.5000001 -1.5365855,5.0000001 20.9999998,0 -1.536585,-5.0000001 -17.9268293,0 z"
       id="path8410"
       style="fill:url(#linearGradient3632);fill-opacity:1;fill-rule:evenodd;stroke:url(#linearGradient3634);stroke-width:0.99999994px;stroke-linecap:square;stroke-linejoin:round;stroke-opacity:1;display:inline;enable-background:new" />
    <path
       d="M 3.7026258,2.0094182 C 3.1891161,2.0049812 3.3111919,2.012896 3.1955988,2.2576818 3.1689153,2.3141768 2.0421409,5.9136724 2,6.0000002 l 20,0 C 21.96345,5.9152642 20.84414,2.2333498 20.80395,2.1910499 20.74035,2.0480725 20.671771,2.0007767 20.579486,2.0000176 20.518536,1.9995187 3.7629071,2.0099676 3.7026258,2.0094876 l 0,-6.94e-5 z"
       id="path1864"
       style="fill:url(#linearGradient3212);fill-opacity:1;fill-rule:evenodd;stroke:none;stroke-width:0;marker:none;visibility:visible;display:block;enable-background:new" />
    <path
       d="M 3.3570392,2.3076915 C 3.1704203,2.3167605 3.1809737,2.3515775 3.1028626,2.5065422 3.077109,2.5576292 2.0406715,5.9219457 2,6.0000002 l 1.5,0 -0.1429608,-3.6923087 z"
       id="path1880"
       style="fill:#727272;fill-opacity:1;fill-rule:evenodd;stroke:none;stroke-width:0;marker:none;visibility:visible;display:block;enable-background:new" />
    <path
       d="m 20.142961,2.0000003 c 0.186619,0.010107 0.676067,0.048901 0.754177,0.2215764 C 20.922888,2.2785017 21.959329,5.913025 22,6 l -2,0 0.142961,-3.9999997 z"
       id="path9454"
       style="fill:url(#linearGradient3202);fill-opacity:1;fill-rule:evenodd;stroke:none;stroke-width:0;marker:none;visibility:visible;display:block;enable-background:new" />
    <g
       transform="matrix(0.45750628,0,0,0.50834032,0.96737579,-0.2803773)"
       id="g2858">
      <g
         transform="matrix(0,0.3732356,0.3732356,0,8.0362451,79.57883)"
         id="g2586">
        <path
           d="m -173.72864,65.809652 1.76777,2.828427 -3.71232,1.59099 -2.65165,-2.12132 -11.84403,0.883883 -3.71231,4.949748 -3.35876,-5.480078 -4.24264,2.298097 -5.65685,-0.707106 1.41421,-3.005204 -3.88909,-3.889088 5.48008,-6.187184 -5.3033,0.707107 0.70711,-1.59099 3.18198,-5.480078 4.59619,-1.06066 -3.71231,-1.237437 -0.17678,-3.18198 7.24785,-6.363961 2.65165,-8.485282 12.02081,3.535534 3.0052,7.071068 1.06066,-2.298097 3.00521,0.176777 0,2.828427 3.53553,-4.065864 4.77297,5.126524 0,7.247844 -8.3085,7.247845 5.3033,3.005204 -0.17678,3.005203 -3.0052,2.651651 z"
           id="path2588"
           style="fill:url(#radialGradient2895);fill-opacity:1;fill-rule:evenodd;stroke:url(#radialGradient2897);stroke-width:2.63531423;stroke-linecap:butt;stroke-linejoin:miter;stroke-miterlimit:4;stroke-opacity:1;stroke-dasharray:none;stroke-dashoffset:0;marker:none;visibility:visible;display:inline;overflow:visible" />
        <path
           d="m -184.15847,50.96041 0.88389,6.540737 -2.12132,3.358757 4.59619,1.414214 2.65165,5.303301 -12.02081,0.883883 -2.82843,4.065864 -2.2981,-6.187184 4.41942,-2.828427 6.71751,1.944544 -2.65165,-3.535534 1.41422,-6.187185 1.23743,-4.77297 z"
           id="path2590"
           style="opacity:0.76966289;fill:url(#linearGradient2899);fill-opacity:1;fill-rule:evenodd;stroke:none;stroke-width:1;marker:none;visibility:visible;display:inline;overflow:visible" />
        <path
           d="m -185.21913,52.02107 -4.41941,6.894291 -7.24785,-4.949748 -4.41941,2.474874 -3.53554,-3.005204 -3.18198,2.828427 3.00521,-4.949747 6.89429,-1.59099 8.66205,-4.242641 c 0,0 12.37437,3.712311 11.66726,3.712311 -0.7071,0 -10.25304,0.176776 -10.25304,0.176776 l -1.59099,-2.298097 -4.24264,1.944544 8.66205,3.005204 z"
           id="path2592"
           style="opacity:0.61797755;fill:url(#linearGradient2901);fill-opacity:1;fill-rule:evenodd;stroke:none;stroke-width:1;marker:none;visibility:visible;display:inline;overflow:visible" />
        <path
           d="m -194.23474,31.69175 10.42983,3.535534 1.41421,3.889087 -6.01041,4.242641 -5.65685,-5.480078 -0.17678,-6.187184 z"
           id="path2594"
           style="fill:#ffffff;fill-opacity:1;fill-rule:evenodd;stroke:none;stroke-width:1;marker:none;visibility:visible;display:inline;overflow:visible" />
        <path
           d="m -194.41151,32.045303 -2.2981,7.424621 -4.24264,3.712311 8.66206,-1.944544 c 0,0 2.47487,2.828427 1.41421,2.828427 -1.06066,0 -12.55114,1.414214 -12.55114,1.414214 l 0.17677,2.298097 16.26346,-3.005204 -7.07107,-6.540738 -0.35355,-6.187184 z"
           id="path2596"
           style="opacity:0.13483145;fill:url(#linearGradient2903);fill-opacity:1;fill-rule:evenodd;stroke:none;stroke-width:1;marker:none;visibility:visible;display:inline;overflow:visible" />
        <path
           d="m -172.13765,42.475128 0.88388,8.838835 -1.94454,-6.010408 -5.12653,1.590991 -1.23743,-2.651651 -6.18719,0.883884 -1.41421,-1.237437 9.01561,-0.353554 0.88388,2.474874 3.88909,-1.944544 1.23744,-1.59099 z"
           id="path2598"
           style="fill:#ffffff;fill-opacity:1;fill-rule:evenodd;stroke:none;stroke-width:1;marker:none;visibility:visible;display:inline;overflow:visible" />
        <path
           d="m -187.16367,55.556604 -3.0052,3.535534 -6.89429,-4.596195 -4.24264,2.298097 -6.89429,6.540738 7.60139,-5.833631 3.71231,-1.06066 7.24785,4.949748 2.47487,-5.833631 z"
           id="path2600"
           style="fill:#ffffff;fill-opacity:1;fill-rule:evenodd;stroke:none;stroke-width:1;marker:none;visibility:visible;display:inline;overflow:visible" />
      </g>
      <g
         transform="matrix(0.3732356,0,0,0.3732356,105.36417,-8.7491)"
         id="g2552">
        <path
           d="m -173.72864,65.809652 1.76777,2.828427 -3.71232,1.59099 -2.65165,-2.12132 -11.84403,0.883883 -3.71231,4.949748 -3.35876,-5.480078 -4.24264,2.298097 -5.65685,-0.707106 1.41421,-3.005204 -3.88909,-3.889088 5.48008,-6.187184 -5.3033,0.707107 -2.2981,-2.12132 3.00521,0.53033 3.18198,-5.480078 4.59619,-1.06066 -3.71231,-1.237437 -0.17678,-3.18198 7.24785,-6.363961 2.65165,-8.485282 12.02081,3.535534 3.0052,7.071068 1.06066,-2.298097 3.00521,0.176777 0,2.828427 3.53553,-4.065864 4.77297,5.126524 0,7.247844 -8.3085,7.247845 5.3033,3.005204 -0.17678,3.005203 -3.0052,2.651651 z"
           id="path2554"
           style="fill:url(#radialGradient2905);fill-opacity:1;fill-rule:evenodd;stroke:url(#radialGradient2907);stroke-width:2.63531423;stroke-linecap:butt;stroke-linejoin:miter;stroke-miterlimit:4;stroke-opacity:1;stroke-dasharray:none;stroke-dashoffset:0;marker:none;visibility:visible;display:inline;overflow:visible" />
        <path
           d="m -184.15847,50.96041 0.88389,6.540737 -2.12132,3.358757 4.59619,1.414214 2.65165,5.303301 -12.02081,0.883883 -2.82843,4.065864 -2.2981,-6.187184 4.41942,-2.828427 6.71751,1.944544 -2.65165,-3.535534 1.41422,-6.187185 1.23743,-4.77297 z"
           id="path2556"
           style="opacity:0.76966289;fill:url(#linearGradient2909);fill-opacity:1;fill-rule:evenodd;stroke:none;stroke-width:1;marker:none;visibility:visible;display:inline;overflow:visible" />
        <path
           d="m -185.21913,52.02107 -4.41941,6.894291 -7.24785,-4.949748 -4.41941,2.474874 -3.53554,-3.005204 -3.18198,2.828427 3.00521,-4.949747 6.89429,-1.59099 8.66205,-4.242641 c 0,0 12.37437,3.712311 11.66726,3.712311 -0.7071,0 -10.25304,0.176776 -10.25304,0.176776 l -1.59099,-2.298097 -4.24264,1.944544 8.66205,3.005204 z"
           id="path2558"
           style="opacity:0.61797755;fill:url(#linearGradient2911);fill-opacity:1;fill-rule:evenodd;stroke:none;stroke-width:1;marker:none;visibility:visible;display:inline;overflow:visible" />
        <path
           d="m -194.23474,31.69175 10.42983,3.535534 1.41421,3.889087 -6.01041,4.242641 -5.65685,-5.480078 -0.17678,-6.187184 z"
           id="path2560"
           style="fill:#ffffff;fill-opacity:1;fill-rule:evenodd;stroke:none;stroke-width:1;marker:none;visibility:visible;display:inline;overflow:visible" />
        <path
           d="m -194.41151,32.045303 -2.2981,7.424621 -4.24264,3.712311 8.66206,-1.944544 c 0,0 2.47487,2.828427 1.41421,2.828427 -1.06066,0 -12.55114,1.414214 -12.55114,1.414214 l 0.17677,2.298097 16.26346,-3.005204 -7.07107,-6.540738 -0.35355,-6.187184 z"
           id="path2562"
           style="opacity:0.13483145;fill:url(#linearGradient2913);fill-opacity:1;fill-rule:evenodd;stroke:none;stroke-width:1;marker:none;visibility:visible;display:inline;overflow:visible" />
        <path
           d="m -172.13765,42.475128 0.88388,8.838835 -1.94454,-6.010408 -5.12653,1.590991 -1.23743,-2.651651 -6.18719,0.883884 -1.41421,-1.237437 9.01561,-0.353554 0.88388,2.474874 3.88909,-1.944544 1.23744,-1.59099 z"
           id="path2564"
           style="fill:#ffffff;fill-opacity:1;fill-rule:evenodd;stroke:none;stroke-width:1;marker:none;visibility:visible;display:inline;overflow:visible" />
        <path
           d="m -187.16367,55.556604 -3.0052,3.535534 -6.89429,-4.596195 -4.24264,2.298097 -6.89429,6.540738 7.60139,-5.833631 3.71231,-1.06066 7.24785,4.949748 2.47487,-5.833631 z"
           id="path2566"
           style="fill:#ffffff;fill-opacity:1;fill-rule:evenodd;stroke:none;stroke-width:1;marker:none;visibility:visible;display:inline;overflow:visible" />
      </g>
      <g
         transform="matrix(0,-0.3732356,0.3732356,0,-7.3856559,-58.980882)"
         id="g8385">
        <path
           d="m -173.72864,65.809652 1.76777,2.828427 -3.71232,1.59099 -2.65165,-2.12132 -11.84403,0.883883 -3.71231,4.949748 -3.35876,-5.480078 -4.24264,2.298097 -5.65685,-0.707106 1.41421,-3.005204 -3.88909,-3.889088 5.48008,-6.187184 -5.3033,0.707107 -2.2981,-2.12132 3.00521,0.53033 3.18198,-5.480078 4.59619,-1.06066 -3.71231,-1.237437 -0.17678,-3.18198 7.24785,-6.363961 2.65165,-5.169851 11.66559,0.693736 3.27669,3.583253 2.15086,-0.911879 3.08719,3.209804 5.32552,3.194473 1.89453,6.537395 -8.3085,7.247845 5.3033,3.005204 -0.17678,3.005203 -3.0052,2.651651 z"
           id="path2528"
           style="fill:url(#radialGradient2915);fill-opacity:1;fill-rule:evenodd;stroke:url(#radialGradient2917);stroke-width:2.63531423;stroke-linecap:butt;stroke-linejoin:miter;stroke-miterlimit:4;stroke-opacity:1;stroke-dasharray:none;stroke-dashoffset:0;marker:none;visibility:visible;display:inline;overflow:visible" />
        <path
           d="m -184.15847,50.96041 0.88389,6.540737 -2.12132,3.358757 4.59619,1.414214 2.65165,5.303301 -12.02081,0.883883 -2.82843,4.065864 -2.2981,-6.187184 4.41942,-2.828427 6.71751,1.944544 -2.65165,-3.535534 1.41422,-6.187185 1.23743,-4.77297 z"
           id="path2530"
           style="opacity:0.76966289;fill:url(#linearGradient2919);fill-opacity:1;fill-rule:evenodd;stroke:none;stroke-width:1;marker:none;visibility:visible;display:inline;overflow:visible" />
        <path
           d="m -185.21913,52.02107 -4.41941,6.894291 -7.24785,-4.949748 -4.41941,2.474874 -3.53554,-3.005204 -3.18198,2.828427 3.00521,-4.949747 6.89429,-1.59099 8.66205,-4.242641 c 0,0 12.37437,3.712311 11.66726,3.712311 -0.7071,0 -10.25304,0.176776 -10.25304,0.176776 l -1.59099,-2.298097 -4.24264,1.944544 8.66205,3.005204 z"
           id="path2532"
           style="opacity:0.61797755;fill:url(#linearGradient2921);fill-opacity:1;fill-rule:evenodd;stroke:none;stroke-width:1;marker:none;visibility:visible;display:inline;overflow:visible" />
        <path
           d="m -194.23474,31.69175 10.42983,3.535534 1.41421,3.889087 -6.01041,4.242641 -5.65685,-5.480078 -0.17678,-6.187184 z"
           id="path2534"
           style="fill:#ffffff;fill-opacity:1;fill-rule:evenodd;stroke:none;stroke-width:1;marker:none;visibility:visible;display:inline;overflow:visible" />
        <path
           d="m -194.41151,32.045303 -2.2981,7.424621 -4.24264,3.712311 8.66206,-1.944544 c 0,0 2.47487,2.828427 1.41421,2.828427 -1.06066,0 -12.55114,1.414214 -12.55114,1.414214 l 0.17677,2.298097 16.26346,-3.005204 -7.07107,-6.540738 -0.35355,-6.187184 z"
           id="path2536"
           style="opacity:0.13483145;fill:url(#linearGradient2923);fill-opacity:1;fill-rule:evenodd;stroke:none;stroke-width:1;marker:none;visibility:visible;display:inline;overflow:visible" />
        <path
           d="m -172.13765,42.475128 0.88388,8.838835 -1.94454,-6.010408 -5.12653,1.590991 -1.23743,-2.651651 -6.18719,0.883884 -1.41421,-1.237437 9.01561,-0.353554 0.88388,2.474874 3.88909,-1.944544 1.23744,-1.59099 z"
           id="path2538"
           style="fill:#ffffff;fill-opacity:1;fill-rule:evenodd;stroke:none;stroke-width:1;marker:none;visibility:visible;display:inline;overflow:visible" />
        <path
           d="m -187.16367,55.556604 -3.0052,3.535534 -6.89429,-4.596195 -4.24264,2.298097 -6.89429,6.540738 7.60139,-5.833631 3.71231,-1.06066 7.24785,4.949748 2.47487,-5.833631 z"
           id="path2540"
           style="fill:#ffffff;fill-opacity:1;fill-rule:evenodd;stroke:none;stroke-width:1;marker:none;visibility:visible;display:inline;overflow:visible" />
      </g>
      <g
         transform="matrix(-0.3732356,0,0,0.3732356,-51.195535,-10.7491)"
         id="g2507">
        <path
           d="m -173.72864,65.809652 1.76777,2.828427 -3.71232,1.59099 -2.65165,-2.12132 -11.84403,0.883883 -3.71231,4.949748 -3.35876,-5.480078 -4.24264,2.298097 -5.65685,-0.707106 1.41421,-3.005204 -3.88909,-3.889088 5.48008,-6.187184 -5.3033,0.707107 -2.2981,-2.12132 3.00521,0.53033 3.18198,-5.480078 4.59619,-1.06066 -3.71231,-1.237437 -0.17678,-3.18198 7.24785,-6.363961 2.65165,-5.849968 12.02081,0.90022 3.0052,7.071068 1.06066,-2.298097 3.00521,0.176777 0,2.828427 3.53553,-4.065864 4.77297,5.126524 0,7.247844 -8.3085,7.247845 5.3033,3.005204 -0.17678,3.005203 -3.0052,2.651651 z"
           id="path2425"
           style="fill:url(#radialGradient2925);fill-opacity:1;fill-rule:evenodd;stroke:url(#radialGradient2927);stroke-width:2.63531423;stroke-linecap:butt;stroke-linejoin:miter;stroke-miterlimit:4;stroke-opacity:1;stroke-dasharray:none;stroke-dashoffset:0;marker:none;visibility:visible;display:inline;overflow:visible" />
        <path
           d="m -184.15847,50.96041 0.88389,6.540737 -2.12132,3.358757 4.59619,1.414214 2.65165,5.303301 -12.02081,0.883883 -2.82843,4.065864 -2.2981,-6.187184 4.41942,-2.828427 6.71751,1.944544 -2.65165,-3.535534 1.41422,-6.187185 1.23743,-4.77297 z"
           id="path2427"
           style="opacity:0.76966289;fill:url(#linearGradient2929);fill-opacity:1;fill-rule:evenodd;stroke:none;stroke-width:1;marker:none;visibility:visible;display:inline;overflow:visible" />
        <path
           d="m -185.21913,52.02107 -4.41941,6.894291 -7.24785,-4.949748 -4.41941,2.474874 -3.53554,-3.005204 -3.18198,2.828427 3.00521,-4.949747 6.89429,-1.59099 8.66205,-4.242641 c 0,0 12.37437,3.712311 11.66726,3.712311 -0.7071,0 -10.25304,0.176776 -10.25304,0.176776 l -1.59099,-2.298097 -4.24264,1.944544 8.66205,3.005204 z"
           id="path2429"
           style="opacity:0.61797755;fill:url(#linearGradient2931);fill-opacity:1;fill-rule:evenodd;stroke:none;stroke-width:1;marker:none;visibility:visible;display:inline;overflow:visible" />
        <path
           d="m -194.23474,31.69175 10.42983,3.535534 1.41421,3.889087 -6.01041,4.242641 -5.65685,-5.480078 -0.17678,-6.187184 z"
           id="path2431"
           style="fill:#ffffff;fill-opacity:1;fill-rule:evenodd;stroke:none;stroke-width:1;marker:none;visibility:visible;display:inline;overflow:visible" />
        <path
           d="m -194.41151,32.045303 -2.2981,7.424621 -4.24264,3.712311 8.66206,-1.944544 c 0,0 2.47487,2.828427 1.41421,2.828427 -1.06066,0 -12.55114,1.414214 -12.55114,1.414214 l 0.17677,2.298097 16.26346,-3.005204 -7.07107,-6.540738 -0.35355,-6.187184 z"
           id="path2433"
           style="opacity:0.13483145;fill:url(#linearGradient2933);fill-opacity:1;fill-rule:evenodd;stroke:none;stroke-width:1;marker:none;visibility:visible;display:inline;overflow:visible" />
        <path
           d="m -172.13765,42.475128 0.88388,8.838835 -1.94454,-6.010408 -5.12653,1.590991 -1.23743,-2.651651 -6.18719,0.883884 -1.41421,-1.237437 9.01561,-0.353554 0.88388,2.474874 3.88909,-1.944544 1.23744,-1.59099 z"
           id="path2435"
           style="fill:#ffffff;fill-opacity:1;fill-rule:evenodd;stroke:none;stroke-width:1;marker:none;visibility:visible;display:inline;overflow:visible" />
        <path
           d="m -187.16367,55.556604 -3.0052,3.535534 -6.89429,-4.596195 -4.24264,2.298097 -6.89429,6.540738 7.60139,-5.833631 3.71231,-1.06066 7.24785,4.949748 2.47487,-5.833631 z"
           id="path2437"
           style="fill:#ffffff;fill-opacity:1;fill-rule:evenodd;stroke:none;stroke-width:1;marker:none;visibility:visible;display:inline;overflow:visible" />
      </g>
    </g>
    <g
       transform="matrix(0.50000091,0,0,0.49875699,-2.168e-5,1.0596645)"
       id="g9115"
       style="display:inline;enable-background:new">
      <rect
         width="31.669294"
         height="10.5"
         x="8.1653528"
         y="37.5"
         id="rect13073"
         style="opacity:0.30199998;fill:url(#linearGradient3022-3);fill-opacity:1;fill-rule:nonzero;stroke:none;stroke-width:1;marker:none;visibility:visible;display:inline;overflow:visible" />
      <path
         d="m 39.834648,37.500362 c 0,0 0,10.49942 0,10.49942 3.377583,0.01976 8.165353,-2.352387 8.165351,-5.250385 0,-2.897999 -3.769128,-5.249035 -8.165351,-5.249035 z"
         id="path13075"
         style="opacity:0.30199998;fill:url(#radialGradient3024-5);fill-opacity:1;fill-rule:nonzero;stroke:none;stroke-width:1;marker:none;visibility:visible;display:inline;overflow:visible" />
      <path
         d="m 8.1653533,37.500362 c 0,0 0,10.49942 0,10.49942 C 4.7877691,48.019547 3.577825e-7,45.647395 3.577825e-7,42.749397 3.577825e-7,39.851398 3.7691289,37.500362 8.1653533,37.500362 z"
         id="path13077"
         style="opacity:0.30199998;fill:url(#radialGradient3288);fill-opacity:1;fill-rule:nonzero;stroke:none;stroke-width:1;marker:none;visibility:visible;display:inline;overflow:visible" />
    </g>
    <path
       d="M 1.5000002,6.5000002 22.5,6.5000002 21.475609,21.409 c -0.03108,0.513194 -0.541487,1.091 -1.02439,1.091 l -16.9024384,0 c -0.482902,0 -0.9932998,-0.577806 -1.0243901,-1.091 L 1.5000002,6.5000002 z"
       id="rect3228"
       style="fill:url(#radialGradient3218-0);fill-opacity:1;stroke:url(#linearGradient3220-4);stroke-width:0.99999994;stroke-linejoin:round;stroke-miterlimit:4;stroke-opacity:1;display:inline;enable-background:new" />
    <path
       d="m 2.5,7.5000002 19,0 -0.974359,14.2258068 C 20.494567,22.211303 20.25419,22.5 19.794872,22.5 l -15.5897438,0 C 3.7458108,22.5 3.5054278,22.211303 3.474359,21.725807 L 2.5,7.5000002 z"
       id="path8398"
       style="opacity:0.4;fill:none;stroke:url(#linearGradient3215-0);stroke-width:0.99999994;stroke-linejoin:miter;stroke-miterlimit:4;stroke-opacity:1;display:inline;enable-background:new" />
    <path
       d="m 21.408523,7.0015568 c -6.320766,0.036059 -12.6037758,-0.0104 -18.9254419,0 C 1.6981721,7.2036841 2.1205906,8.214277 2.060631,8.8558456 2.1570868,10.902776 2.3613878,12.958677 2.490585,15 9.0072431,13.838318 15.250933,12.776078 21.653514,11.575257 21.992799,10.303554 22.035676,8.7460249 21.979191,7.3897306 21.879648,7.14166 21.637292,6.9959903 21.408523,7.0015568 z"
       id="path3455"
       style="fill:url(#linearGradient3199-2);fill-opacity:1;stroke:none;display:inline;enable-background:new" />
    <path
       d="M 11.352941,13.440176 15.617647,13.999 16.98219,9.6478382 15.245284,10.964829 c 0,0 -0.744754,-1.8740109 -1.280049,-2.0246616 -0.535292,-0.1506537 -2.819114,-0.1004307 -2.819114,-0.1004307 0.726415,0.1938184 1.290971,1.5404143 1.29965,1.5556913 0.226623,0.398936 0.860997,1.741313 0.860997,1.741313 l -1.953827,1.303435 z"
       id="path41"
       style="opacity:0.9;fill:#ffffff;fill-opacity:1;fill-rule:evenodd;stroke:none;display:inline;enable-background:new" />
    <path
       d="m 12.187669,10.523875 -1.256614,2.586188 -2.5833699,-1.757604 c 0,0 1.1714586,-2.385321 2.0946249,-2.385321 0.930975,0 1.347004,0.8657417 1.745359,1.556737 z"
       id="path130"
       style="opacity:0.7;fill:#ffffff;fill-opacity:1;fill-rule:evenodd;stroke:none;stroke-width:1px;marker:none;visibility:visible;display:inline;overflow:visible;enable-background:new" />
    <path
       d="m 10.99,19.82 2.935495,2.755 0.04321,-1.55052 c 0,0 1.720408,0.17516 2.115266,-0.242849 0.394856,-0.418012 2.03753,-2.525623 2.03753,-2.525623 -0.527391,0.572717 -1.954776,0.781248 -1.971383,0.781432 C 15.71644,19.04234 14,18.999 14,18.999 l 0,-1.599 -3.01,2.42 z"
       id="path139"
       style="opacity:0.9;fill:#ffffff;fill-opacity:1;fill-rule:evenodd;stroke:none;display:inline;enable-background:new" />
    <path
       d="m 16.334335,18.710999 -1.410773,-2.903694 2.725086,-1.487807 c 0,0 1.294803,2.309909 0.820432,3.164318 -0.478385,0.861637 -1.380586,1.213568 -2.134745,1.227183 z"
       id="path140"
       style="opacity:0.7;fill:#ffffff;fill-opacity:1;fill-rule:evenodd;stroke:none;stroke-width:1px;marker:none;visibility:visible;display:inline;overflow:visible;enable-background:new" />
    <path
       d="M 9.7574674,16.481001 8.9903951,12.606863 5.026,13.051954 6.4723205,14.453321 c 0,0 -0.9988325,1.521331 -0.8599591,2.099045 0.138874,0.577714 0.9223543,2.971173 0.9223543,2.971173 C 6.3376578,18.744735 7.1525782,17.556734 7.1607142,17.541113 7.3732097,17.133231 8.264058,15.549801 8.264058,15.549801 l 1.4934094,0.9312 z"
       id="path142"
       style="opacity:0.9;fill:#ffffff;fill-opacity:1;fill-rule:evenodd;stroke:none;display:inline;enable-background:new" />
    <path
       d="M 7.2943451,17.992874 10,17.999 9.8822439,21.081578 c 0,0 -2.5015689,0.05858 -2.9513764,-0.811151 -0.4536124,-0.877095 -0.00175,-1.565571 0.3634776,-2.277553 z"
       id="path143"
       style="opacity:0.7;fill:#ffffff;fill-opacity:1;fill-rule:evenodd;stroke:none;stroke-width:1px;marker:none;visibility:visible;display:inline;overflow:visible;enable-background:new" />
  </g>
</svg>
