<?xml version="1.0" encoding="UTF-8" standalone="no"?>
<!-- Created with Inkscape (http://www.inkscape.org/) -->

<svg
   xmlns:svg="http://www.w3.org/2000/svg"
   xmlns="http://www.w3.org/2000/svg"
   xmlns:xlink="http://www.w3.org/1999/xlink"
   version="1.0"
   width="24"
   height="24"
   id="svg2">
  <defs
     id="defs4">
    <linearGradient
       id="linearGradient8838">
      <stop
         id="stop8840"
         style="stop-color:black;stop-opacity:1"
         offset="0" />
      <stop
         id="stop8842"
         style="stop-color:black;stop-opacity:0"
         offset="1" />
    </linearGradient>
    <radialGradient
       cx="62.625"
       cy="4.625"
       r="10.625"
       fx="62.625"
       fy="4.625"
       id="radialGradient3868"
       xlink:href="#linearGradient8838"
       gradientUnits="userSpaceOnUse"
       gradientTransform="matrix(1,0,0,0.341176,0,3.047059)" />
    <linearGradient
       id="linearGradient8647">
      <stop
         id="stop8649"
         style="stop-color:#8fb1dc;stop-opacity:1"
         offset="0" />
      <stop
         id="stop8651"
         style="stop-color:#3465a4;stop-opacity:1"
         offset="1" />
    </linearGradient>
    <radialGradient
       cx="12.465816"
       cy="5.3052077"
       r="10.499999"
       fx="12.465816"
       fy="5.3052077"
       id="radialGradient6407"
       xlink:href="#linearGradient8647"
       gradientUnits="userSpaceOnUse"
       gradientTransform="matrix(1.2145383,0,0,1,-2.6743948,-1.5333244e-6)" />
    <radialGradient
       cx="62.225391"
       cy="-3.4420195"
       r="10.081216"
       fx="62.225391"
       fy="-3.4420195"
       id="radialGradient4048"
       xlink:href="#linearGradient8740"
       gradientUnits="userSpaceOnUse"
       gradientTransform="matrix(1,0,0,0.930233,0,-0.240141)" />
    <radialGradient
       cx="62.225391"
       cy="-3.4420195"
       r="10.081216"
       fx="62.225391"
       fy="-3.4420195"
       id="radialGradient4050"
       xlink:href="#linearGradient8740"
       gradientUnits="userSpaceOnUse"
       gradientTransform="matrix(1,0,0,0.930233,0,-0.240141)" />
    <radialGradient
       cx="62.225391"
       cy="-3.4420195"
       r="10.081216"
       fx="62.225391"
       fy="-3.4420195"
       id="radialGradient4044"
       xlink:href="#linearGradient8740"
       gradientUnits="userSpaceOnUse"
       gradientTransform="matrix(1,0,0,0.930233,0,-0.240141)" />
    <radialGradient
       cx="62.225391"
       cy="-3.4420195"
       r="10.081216"
       fx="62.225391"
       fy="-3.4420195"
       id="radialGradient4046"
       xlink:href="#linearGradient8740"
       gradientUnits="userSpaceOnUse"
       gradientTransform="matrix(1,0,0,0.930233,0,-0.240141)" />
    <radialGradient
       cx="62.225391"
       cy="-3.4420195"
       r="10.081216"
       fx="62.225391"
       fy="-3.4420195"
       id="radialGradient4040"
       xlink:href="#linearGradient8740"
       gradientUnits="userSpaceOnUse"
       gradientTransform="matrix(1,0,0,0.930233,0,-0.240141)" />
    <radialGradient
       cx="62.225391"
       cy="-3.4420195"
       r="10.081216"
       fx="62.225391"
       fy="-3.4420195"
       id="radialGradient4042"
       xlink:href="#linearGradient8740"
       gradientUnits="userSpaceOnUse"
       gradientTransform="matrix(1,0,0,0.930233,0,-0.240141)" />
    <radialGradient
       cx="62.225391"
       cy="-3.4420195"
       r="10.081216"
       fx="62.225391"
       fy="-3.4420195"
       id="radialGradient4036"
       xlink:href="#linearGradient8740"
       gradientUnits="userSpaceOnUse"
       gradientTransform="matrix(1,0,0,0.930233,0,-0.240141)" />
    <radialGradient
       cx="62.225391"
       cy="-3.4420195"
       r="10.081216"
       fx="62.225391"
       fy="-3.4420195"
       id="radialGradient4038"
       xlink:href="#linearGradient8740"
       gradientUnits="userSpaceOnUse"
       gradientTransform="matrix(1,0,0,0.930233,0,-0.240141)" />
    <radialGradient
       cx="62.225391"
       cy="-3.4420195"
       r="10.081216"
       fx="62.225391"
       fy="-3.4420195"
       id="radialGradient4032"
       xlink:href="#linearGradient8740"
       gradientUnits="userSpaceOnUse"
       gradientTransform="matrix(1,0,0,0.930233,0,0.79739)" />
    <radialGradient
       cx="62.225391"
       cy="-3.4420195"
       r="10.081216"
       fx="62.225391"
       fy="-3.4420195"
       id="radialGradient4034"
       xlink:href="#linearGradient8740"
       gradientUnits="userSpaceOnUse"
       gradientTransform="matrix(1,0,0,0.930233,0,-0.240141)" />
    <radialGradient
       cx="62.225391"
       cy="-3.4420195"
       r="10.081216"
       fx="62.225391"
       fy="-3.4420195"
       id="radialGradient4028"
       xlink:href="#linearGradient8740"
       gradientUnits="userSpaceOnUse"
       gradientTransform="matrix(1,0,0,0.930233,0,-0.240141)" />
    <radialGradient
       cx="62.225391"
       cy="-3.4420195"
       r="10.081216"
       fx="62.225391"
       fy="-3.4420195"
       id="radialGradient4030"
       xlink:href="#linearGradient8740"
       gradientUnits="userSpaceOnUse"
       gradientTransform="matrix(1,0,0,0.930233,0,-0.240141)" />
    <radialGradient
       cx="62.225391"
       cy="-3.4420195"
       r="10.081216"
       fx="62.225391"
       fy="-3.4420195"
       id="radialGradient4022"
       xlink:href="#linearGradient8740"
       gradientUnits="userSpaceOnUse"
       gradientTransform="matrix(0.891018,0,0,0.828854,1.579517,2.39052)" />
    <radialGradient
       cx="24.652573"
       cy="18.94449"
       r="8.6174498"
       fx="24.652485"
       fy="18.944481"
       id="radialGradient4020"
       xlink:href="#linearGradient8924"
       gradientUnits="userSpaceOnUse"
       gradientTransform="matrix(0.06822876,2.459669,-1.754905,0.04868429,55.12882,-46.82188)" />
    <radialGradient
       cx="62.225391"
       cy="-3.4420195"
       r="10.081216"
       fx="62.225391"
       fy="-3.4420195"
       id="radialGradient4026"
       xlink:href="#linearGradient8740"
       gradientUnits="userSpaceOnUse"
       gradientTransform="matrix(1,0,0,0.930233,0,-0.240141)" />
    <linearGradient
       id="linearGradient8924">
      <stop
         id="stop8926"
         style="stop-color:#cee14b;stop-opacity:1"
         offset="0" />
      <stop
         id="stop8928"
         style="stop-color:#9db029;stop-opacity:1"
         offset="1" />
    </linearGradient>
    <radialGradient
       cx="24.652573"
       cy="18.94449"
       r="8.6174498"
       fx="24.652485"
       fy="18.944481"
       id="radialGradient4024"
       xlink:href="#linearGradient8924"
       gradientUnits="userSpaceOnUse"
       gradientTransform="matrix(0.07657394,2.760516,-1.969551,0.05463895,60.09901,-55.47179)" />
    <radialGradient
       cx="62.225391"
       cy="-3.4420195"
       r="10.081216"
       fx="62.225391"
       fy="-3.4420195"
       id="radialGradient4014"
       xlink:href="#linearGradient8740"
       gradientUnits="userSpaceOnUse"
       gradientTransform="matrix(1,0,0,0.930233,0,0.589884)" />
    <radialGradient
       cx="25.135374"
       cy="14.542349"
       r="4.1347499"
       fx="25.135332"
       fy="14.542329"
       id="radialGradient4012"
       xlink:href="#linearGradient8930"
       gradientUnits="userSpaceOnUse"
       gradientTransform="matrix(0.159592,5.753335,-0.8072,0.0223703,32.87305,-130.867)" />
    <radialGradient
       cx="62.225391"
       cy="-3.4420195"
       r="10.081216"
       fx="62.225391"
       fy="-3.4420195"
       id="radialGradient4018"
       xlink:href="#linearGradient8740"
       gradientUnits="userSpaceOnUse"
       gradientTransform="matrix(1,0,0,0.930233,0,-0.240141)" />
    <linearGradient
       id="linearGradient8930">
      <stop
         id="stop8932"
         style="stop-color:#cee14b;stop-opacity:1"
         offset="0" />
      <stop
         id="stop8934"
         style="stop-color:#9db029;stop-opacity:1"
         offset="1" />
    </linearGradient>
    <radialGradient
       cx="25.135374"
       cy="14.542349"
       r="4.1347499"
       fx="25.135332"
       fy="14.542329"
       id="radialGradient4016"
       xlink:href="#linearGradient8930"
       gradientUnits="userSpaceOnUse"
       gradientTransform="matrix(0.159592,5.753335,-0.8072,0.0223703,32.87305,-131.6974)" />
    <radialGradient
       cx="62.225391"
       cy="-3.4420195"
       r="10.081216"
       fx="62.225391"
       fy="-3.4420195"
       id="radialGradient4006"
       xlink:href="#linearGradient8740"
       gradientUnits="userSpaceOnUse"
       gradientTransform="matrix(1,0,0,0.930233,0.311259,0.486131)" />
    <radialGradient
       cx="24.478569"
       cy="17.573915"
       r="2.9719501"
       fx="24.478539"
       fy="17.573889"
       id="radialGradient4004"
       xlink:href="#linearGradient8912"
       gradientUnits="userSpaceOnUse"
       gradientTransform="matrix(0.222034,8.004376,-0.597156,0.01656095,29.85665,-181.6002)" />
    <radialGradient
       cx="62.225391"
       cy="-3.4420195"
       r="10.081216"
       fx="62.225391"
       fy="-3.4420195"
       id="radialGradient4010"
       xlink:href="#linearGradient8740"
       gradientUnits="userSpaceOnUse"
       gradientTransform="matrix(1,0,0,0.930233,0,-0.240141)" />
    <linearGradient
       id="linearGradient8912">
      <stop
         id="stop8914"
         style="stop-color:#cee14b;stop-opacity:1"
         offset="0" />
      <stop
         id="stop8916"
         style="stop-color:#9db029;stop-opacity:1"
         offset="1" />
    </linearGradient>
    <radialGradient
       cx="24.478569"
       cy="17.573915"
       r="2.9719501"
       fx="24.478539"
       fy="17.573889"
       id="radialGradient4008"
       xlink:href="#linearGradient8912"
       gradientUnits="userSpaceOnUse"
       gradientTransform="matrix(0.222034,8.004376,-0.597156,0.01656095,29.5454,-182.3268)" />
    <radialGradient
       cx="62.225391"
       cy="-3.4420195"
       r="10.081216"
       fx="62.225391"
       fy="-3.4420195"
       id="radialGradient3998"
       xlink:href="#linearGradient8740"
       gradientUnits="userSpaceOnUse"
       gradientTransform="matrix(0.918134,0,0,0.854079,2.429764,1.490099)" />
    <radialGradient
       cx="25.969097"
       cy="17.257854"
       r="9.8222504"
       fx="25.968998"
       fy="17.257843"
       id="radialGradient3996"
       xlink:href="#linearGradient8918"
       gradientUnits="userSpaceOnUse"
       gradientTransform="matrix(0.06168149,2.223638,-1.495968,0.04148028,50.51125,-44.50839)" />
    <linearGradient
       id="linearGradient8740">
      <stop
         id="stop8742"
         style="stop-color:white;stop-opacity:1"
         offset="0" />
      <stop
         id="stop8744"
         style="stop-color:white;stop-opacity:0"
         offset="1" />
    </linearGradient>
    <radialGradient
       cx="62.225391"
       cy="-3.4420195"
       r="10.081216"
       fx="62.225391"
       fy="-3.4420195"
       id="radialGradient4002"
       xlink:href="#linearGradient8740"
       gradientUnits="userSpaceOnUse"
       gradientTransform="matrix(1,0,0,0.930233,0,-0.240141)" />
    <linearGradient
       id="linearGradient8918">
      <stop
         id="stop8920"
         style="stop-color:#cee14b;stop-opacity:1"
         offset="0" />
      <stop
         id="stop8922"
         style="stop-color:#9db029;stop-opacity:1"
         offset="1" />
    </linearGradient>
    <radialGradient
       cx="25.969097"
       cy="17.257854"
       r="9.8222504"
       fx="25.968998"
       fy="17.257843"
       id="radialGradient4000"
       xlink:href="#linearGradient8918"
       gradientUnits="userSpaceOnUse"
       gradientTransform="matrix(0.06718136,2.42191,-1.629357,0.0451789,52.36869,-50.34012)" />
    <linearGradient
       id="linearGradient4873">
      <stop
         id="stop4875"
         style="stop-color:white;stop-opacity:1"
         offset="0" />
      <stop
         id="stop4877"
         style="stop-color:white;stop-opacity:0"
         offset="1" />
    </linearGradient>
    <linearGradient
       x1="63.397362"
       y1="-12.742159"
       x2="63.397362"
       y2="5.7210636"
       id="linearGradient5158"
       xlink:href="#linearGradient4873"
       gradientUnits="userSpaceOnUse"
       gradientTransform="matrix(1.0299253,0,0,1.0299249,-51.595947,15.115898)" />
  </defs>
  <g
     id="layer1">
    <path
       d="m 73.25,4.625 a 10.625,3.625 0 1 1 -21.25,0 10.625,3.625 0 1 1 21.25,0 z"
       transform="matrix(1.0823528,0,0,1.2906765,-55.816527,13.351919)"
       id="path2774"
       style="opacity:0.4;fill:url(#radialGradient3868);fill-opacity:1;fill-rule:evenodd;stroke:none;stroke-width:0.99999988;marker:none;visibility:visible;display:inline;overflow:visible" />
    <path
       d="m 12.457962,1.499974 c -5.5190682,0 -9.9921712,4.473101 -9.9921712,9.992171 0,5.519069 4.473103,10.007882 9.9921712,10.007881 5.519068,0 10.007888,-4.488812 10.007878,-10.007881 0,-5.51907 -4.48881,-9.992171 -10.007878,-9.992171 z"
       id="path2555"
       style="fill:url(#radialGradient6407);fill-opacity:1;stroke:#204a87;stroke-width:0.99994898;stroke-linecap:round;stroke-linejoin:round;stroke-miterlimit:4;stroke-opacity:1;stroke-dasharray:none;stroke-dashoffset:0" />
    <g
       transform="matrix(0.5406868,0,0,0.5406817,-1.0558371,-1.273393)"
       id="g6532"
       style="fill:#9db029;fill-rule:nonzero;stroke:url(#radialGradient4050);stroke-width:1.8644197;stroke-miterlimit:4">
      <path
         d="m 26.0703,9.2363 -0.0732,0.4932 0.5098,0.3291 0.8711,-0.5757 -0.4355,-0.4937 -0.582,0.3296 -0.29,-0.0825"
         id="path6534"
         style="fill:#9db029;stroke:url(#radialGradient4048);stroke-width:1.8644197" />
    </g>
    <g
       transform="matrix(0.5406868,0,0,0.5406817,-1.7692899,-1.273393)"
       id="g6548"
       style="fill:#9db029;fill-rule:nonzero;stroke:url(#radialGradient4046);stroke-width:1.8644197;stroke-miterlimit:4">
      <path
         d="m 28.833,12.7749 -0.291,-0.7412 -0.5098,0.165 0.1465,0.9043 0.6543,-0.3281"
         id="path6550"
         style="fill:#9db029;stroke:url(#radialGradient4044);stroke-width:1.8644197" />
    </g>
    <g
       transform="matrix(0.5406868,0,0,0.5406817,-1.565443,-1.273393)"
       id="g6556"
       style="fill:#9db029;fill-rule:nonzero;stroke:url(#radialGradient4042);stroke-width:1.8644197;stroke-miterlimit:4">
      <path
         d="m 29.123,12.6089 -0.1455,0.9883 0.7998,-0.165 0.5811,-0.5752 -0.5088,-0.4941 C 29.6787,11.9078 29.4824,11.483 29.2685,11.0465 l -0.4355,0 0,0.4932 0.29,0.3291 0,0.7402"
         id="path6558"
         style="fill:#9db029;stroke:url(#radialGradient4040);stroke-width:1.8644197" />
    </g>
    <g
       transform="matrix(0.5406868,0,0,0.5406817,-1.0558371,-1.273393)"
       id="g6572"
       style="fill:#9db029;fill-rule:nonzero;stroke:url(#radialGradient4038);stroke-width:1.8644197;stroke-miterlimit:4">
      <path
         d="m 16.7656,9.5649 0.7266,0.4937 0.582,0 0,-0.5757 -0.7266,-0.3291 -0.582,0.4111"
         id="path6574"
         style="fill:#9db029;stroke:url(#radialGradient4036);stroke-width:1.8644197" />
    </g>
    <g
       transform="matrix(0.5406868,0,0,0.5406817,-0.393352,-1.2224381)"
       id="g6608"
       style="fill:#9db029;fill-rule:nonzero;stroke:url(#radialGradient4034);stroke-width:1.8644197;stroke-miterlimit:4">
      <path
         d="m 17.4922,7.887132 0.3638,-0.3286 0.7271,-0.1646 c 0.498,-0.2422 0.998,-0.4053 1.5264,-0.5762 l -0.29,-0.4937 -0.9385,0.1348 -0.4434,0.4419 -0.731,0.106 -0.6499,0.3052 -0.3159,0.1528 -0.1929,0.2583 0.9443,0.1641"
         id="path6610"
         style="fill:#9db029;stroke:url(#radialGradient4032);stroke-width:1.8644197" />
    </g>
    <g
       transform="matrix(0.5406868,0,0,0.5406817,-0.8520135,-0.9676599)"
       id="g6616"
       style="fill:#9db029;fill-rule:nonzero;stroke:url(#radialGradient4030);stroke-width:1.8644197;stroke-miterlimit:4">
      <path
         d="m 18.7285,14.6665 0.4365,-0.6582 -0.6548,-0.4932 0.2183,1.1514"
         id="path6618"
         style="fill:#9db029;stroke:url(#radialGradient4028);stroke-width:1.8644197" />
    </g>
    <g
       transform="matrix(0.5406868,0,0,0.5406817,-0.6481549,-1.3243481)"
       id="g6564"
       style="fill:url(#radialGradient4024);fill-opacity:1;fill-rule:nonzero;stroke:url(#radialGradient4026);stroke-width:1.8644197;stroke-miterlimit:4">
      <path
         d="m 17.943241,27.768799 -0.518573,-1.02672 -0.971477,-0.219726 -0.518127,-1.392215 -1.295183,0.146216 -1.100764,-0.805748 -1.166432,1.025918 0,0.161809 C 12.019842,25.55649 11.586095,25.54259 11.271922,25.349417 l -0.259287,-0.732684 0,-0.806638 -0.777056,0.07306 c 0.06487,-0.513404 0.129197,-1.025918 0.194509,-1.539233 l -0.4537956,0 -0.4529044,0.586468 -0.4537955,0.219279 -0.6478592,-0.365495 -0.064866,-0.806639 0.1296431,-0.879702 0.9719225,-0.732684 0.7770571,0 0.129197,-0.440252 0.971477,0.219279 0.712636,0.880593 0.129643,-1.467061 1.230764,-1.025918 0.45335,-1.099872 0.906699,-0.366298 0.518127,-0.732684 1.165541,-0.220973 0.583439,-0.878811 c -0.582993,0 -1.165987,0 -1.74898,0 l 1.10112,-0.513404 0.776612,0 1.101565,-0.367189 0.129643,-0.438559 -0.388929,-0.367188 -0.45335,-0.147018 0.129643,-0.43945 -0.323707,-0.659532 -0.777502,0.292343 0.129643,-0.586022 -0.9067,-0.513405 -0.71219,1.245554 0.06442,0.440252 -0.71219,0.294125 -0.453796,0.952766 -0.194064,-0.879702 -1.230763,-0.513405 -0.194509,-0.659531 1.619336,-0.953657 0.712636,-0.659532 0.06487,-0.8061926 -0.388483,-0.2201702 -0.518127,-0.073509 -0.323707,0.8066378 c 0,0 -0.54165,0.106121 -0.680916,0.140514 -1.778561,1.638938 -5.372215,5.176904 -6.2070989,11.856064 0.033057,0.154859 0.6051795,1.052827 0.6051795,1.052827 l 1.3600498,0.805747 1.3600499,0.367189 0.5834387,0.733486 0.906254,0.659531 0.518127,-0.07306 0.388484,0.174907 0,0.118327 -0.517771,1.392661 -0.388929,0.586468 0.129643,0.294125 -0.323707,1.098091 1.165987,2.126592 1.16554,1.02672 0.518573,0.732684 -0.06522,1.540125 0.38893,0.878811 -0.38893,1.686341 c 0,0 -0.03047,-0.01043 0.01916,0.158334 0.05007,0.168847 2.07527,1.293045 2.204022,1.19735 0.128307,-0.09748 0.237991,-0.182748 0.237991,-0.182748 l -0.129198,-0.365496 0.517771,-0.513404 0.194509,-0.513405 0.84228,-0.294125 0.647413,-1.613188 -0.194063,-0.438559 0.452458,-0.659532 0.971923,-0.220972 0.518572,-1.172936 -0.129643,-1.465279 0.777057,-1.099873 0.129643,-1.099873 c -1.063341,-0.527304 -2.11795,-1.07029 -3.17336,-1.613188"
         id="path6566"
         style="fill:url(#radialGradient4020);fill-opacity:1;stroke:url(#radialGradient4022);stroke-width:1.8644197" />
    </g>
    <g
       transform="matrix(0.5406868,0,0,0.5406817,-0.9029578,-1.1205149)"
       id="g6540"
       style="fill:url(#radialGradient4016);fill-opacity:1;fill-rule:nonzero;stroke:url(#radialGradient4018);stroke-width:1.8644197;stroke-miterlimit:4">
      <path
         d="m 26.8701,6.6933256 -1.8906,-0.7407 -2.1797,0.2466 -2.6904,0.7402 -0.5088,0.4941 1.6719,1.1514 0,0.6582 -0.6543,0.6582 0.873,1.7289984 0.5801,-0.3301 0.7285,-1.151399 c 1.123,-0.3471994 2.1299,-0.7406994 3.1973,-1.2343994 l 0.873,-2.2212"
         id="path6542"
         style="fill:url(#radialGradient4012);fill-opacity:1;stroke:url(#radialGradient4014);stroke-width:1.8644197" />
    </g>
    <g
       transform="matrix(0.5406868,0,0,0.5406817,-0.5462315,-1.4772381)"
       id="g6580"
       style="fill:url(#radialGradient4008);fill-opacity:1;fill-rule:nonzero;stroke:url(#radialGradient4010);stroke-width:1.8644197;stroke-miterlimit:4">
      <path
         d="m 15.187259,9.6334723 -0.3638,0.9047987 0.7271,0 0.3638,-0.8227987 c 0.3135,-0.2217 0.6255,-0.4448 0.9448,-0.6582 l 0.7271,0.2471 c 0.4844,0.3291 0.9688,0.6582 1.4536,0.9867997 l 0.7275,-0.6576997 -0.8003,-0.3291 -0.3638,-0.7407 -1.3809,-0.1646 -0.0728,-0.4116 -0.6543,0.165 -0.2904,0.5758 -0.3638,-0.7407 -0.145,0.3291 0.0728,0.8228 -0.5816,0.494"
         id="path6582"
         style="fill:url(#radialGradient4004);fill-opacity:1;stroke:url(#radialGradient4006);stroke-width:1.8644197" />
    </g>
    <g
       transform="matrix(0.5406868,0,0,0.5406817,-1.361596,-1.17147)"
       id="g6626"
       style="fill:url(#radialGradient4000);fill-opacity:1;fill-rule:nonzero;stroke:url(#radialGradient4002);stroke-width:1.8644197;stroke-miterlimit:4">
      <path
         d="m 42.893123,20.729176 c 0,0.241194 0,0 0,0 l -0.500291,0.566672 c -0.306657,-0.361377 -0.650957,-0.66528 -1.000583,-0.982679 l -0.767468,0.112931 -0.701179,-0.792625 0,0.980934 0.600735,0.454568 0.399848,0.452824 0.534354,-0.604316 c 0.134506,0.251936 0.267177,0.503872 0.400765,0.755808 l 0,0.754982 -0.601653,0.679602 -1.101026,0.755808 -0.83385,0.832105 -0.534354,-0.606152 0.267177,-0.679603 -0.533527,-0.604315 -0.901057,-1.92597 -0.767468,-0.867912 -0.200888,0.225953 0.30124,1.095701 0.566672,0.641959 c 0.323642,0.934293 0.643796,1.82727 1.0688,2.720339 0.659036,0 1.280338,-0.06996 1.934875,-0.15241 l 0,0.529029 -0.800704,1.964072 -0.734324,0.830269 -0.600735,1.285754 c 0,0.70476 0,1.40952 0,2.114188 l 0.200888,0.832105 -0.333558,0.376618 -0.735242,0.45365 -0.767468,0.641959 0.634798,0.717338 -0.867912,0.756727 0.166733,0.489549 -1.301914,1.474064 -0.866994,0 -0.734324,0.45365 -0.468064,0 0,-0.604316 -0.199052,-1.210468 c -0.258271,-0.758562 -0.527192,-1.511708 -0.800705,-2.264853 0,-0.55593 0.03314,-1.106443 0.06638,-1.662282 l 0.334477,-0.754981 -0.468065,-0.907392 0.03406,-1.246275 -0.634798,-0.717338 0.317399,-1.038318 -0.516451,-0.585953 -0.901974,0 -0.300322,-0.339801 -0.901057,0.567131 -0.366702,-0.416466 -0.834768,0.717706 C 27.577179,26.356327 27.009588,25.714368 26.44209,25.072409 l -0.667116,-1.586995 0.600735,-0.905555 -0.333558,-0.377445 0.733405,-1.738579 c 0.602571,-0.749564 1.231952,-1.468647 1.868586,-2.190392 l 1.135089,-0.302158 1.267852,-0.150666 0.867912,0.226871 1.234615,1.245357 0.434001,-0.490467 0.599817,-0.07529 1.135089,0.377445 0.867913,0 0.600735,-0.529029 0.267177,-0.377445 -0.601654,-0.377445 -1.0015,-0.07529 c -0.277919,-0.385524 -0.53619,-0.790789 -0.866168,-1.133344 l -0.334476,0.150665 -0.133589,0.982679 -0.600735,-0.679603 -0.13267,-0.756726 -0.667116,-0.527192 -0.268095,0 0.667942,0.754981 -0.267177,0.679603 -0.533527,0.150666 0.333558,-0.679603 -0.601654,-0.30124 -0.532609,-0.604315 -1.002419,0.225952 -0.13267,0.30124 -0.600735,0.378363 -0.333558,0.831187 -0.83385,0.415088 -0.36762,-0.415088 -0.399848,0 0,-1.360124 0.867912,-0.45365 0.667116,0 -0.134506,-0.52811 -0.53261,-0.529029 0.900231,-0.189228 0.500291,-0.565754 0.399847,-0.680521 0.735242,0 -0.200888,-0.52811 0.468065,-0.302158 0,0.604315 1.000582,0.225953 1.000583,-0.830268 0.06721,-0.378363 0.866994,-0.603857 c -0.313818,0.03902 -0.627636,0.06767 -0.934293,0.151125 l 0,-0.680429 0.333558,-0.755441 -0.333558,0 -0.733038,0.679603 -0.200888,0.377904 0.200888,0.529488 -0.334476,0.905555 -0.533528,-0.302158 -0.466229,-0.52811 -0.735241,0.52811 -0.267177,-1.208172 1.267851,-0.830728 0,-0.4536504 0.801531,-0.5285696 1.267851,-0.302617 0.867912,0.302617 1.601318,0.3021579 -0.399848,0.4528241 -0.867912,0 0.867912,0.906474 0.667117,-0.754982 0.202632,-0.3321814 c 0,0 2.558931,2.2934994 4.021335,4.8023004 1.462404,2.509628 2.149168,5.46758 2.149168,6.068315 z"
         id="path6628"
         style="fill:url(#radialGradient3996);fill-opacity:1;stroke:url(#radialGradient3998);stroke-width:1.8644197" />
    </g>
    <path
       d="m 21.473026,11.49968 c 0,4.974819 -4.032961,9.007735 -9.007098,9.007735 -4.9745889,0 -9.0073229,-4.032961 -9.0073229,-9.007735 0,-4.9745881 4.032734,-9.0070954 9.0073229,-9.0070954 4.974137,0 9.007098,4.0325073 9.007098,9.0070954 l 0,0 z"
       id="path8655"
       style="opacity:0.52747258;fill:none;stroke:url(#linearGradient5158);stroke-width:1;stroke-miterlimit:4;stroke-opacity:1;stroke-dasharray:none" />
  </g>
</svg>
