<?xml version="1.0" encoding="UTF-8" standalone="no"?>
<svg
   height="24"
   width="24"
   version="1.1"
   id="svg6"
   xmlns="http://www.w3.org/2000/svg"
   xmlns:svg="http://www.w3.org/2000/svg"
   xmlns:rdf="http://www.w3.org/1999/02/22-rdf-syntax-ns#"
   xmlns:cc="http://creativecommons.org/ns#"
   xmlns:dc="http://purl.org/dc/elements/1.1/">
  <metadata
     id="metadata12">
    <rdf:RDF>
      <cc:Work
         rdf:about="">
        <dc:format>image/svg+xml</dc:format>
        <dc:type
           rdf:resource="http://purl.org/dc/dcmitype/StillImage" />
      </cc:Work>
    </rdf:RDF>
  </metadata>
  <defs
     id="defs10" />
  <path
     id="path2-3"
     style="fill:#555761;fill-opacity:1;marker:none"
     d="M 7 5 C 5.8920022 5 5 5.8920022 5 7 L 5 17 C 5 18.107998 5.8920022 19 7 19 L 17 19 C 18.107998 19 19 18.107998 19 17 L 19 7 C 19 5.8920022 18.107998 5 17 5 L 7 5 z M 7 6 L 17 6 C 17.553998 6 18 6.4460012 18 7 L 18 16 C 18 16.553998 17.553998 17 17 17 L 7 17 C 6.4460012 17 6 16.553998 6 16 L 6 7 C 6 6.4460012 6.4460012 6 7 6 z M 10.347656 7.2421875 C 8.3826952 7.2421875 7.2386955 8.4514688 7.2363281 10.335938 C 7.2386955 12.265387 8.3633415 13.375 10.349609 13.375 C 10.958037 13.375 11.604463 13.222242 11.900391 13.068359 L 11.699219 12.466797 C 11.474314 12.552024 10.930397 12.707031 10.390625 12.707031 C 8.823391 12.707031 7.9746094 11.860262 7.9746094 10.326172 C 7.9746094 8.8962484 8.7841509 7.9003906 10.330078 7.9003906 C 11.591915 7.9003906 12.533617 8.6142881 12.53125 9.9589844 C 12.533617 10.93673 12.380741 11.376953 12.001953 11.376953 C 11.800722 11.376953 11.682055 11.216797 11.679688 10.982422 L 11.679688 8.7285156 L 11.019531 8.7285156 L 11.019531 8.9941406 L 10.986328 8.9941406 C 10.910571 8.7858074 10.45709 8.5930398 9.9433594 8.6640625 C 9.2828484 8.7516572 8.6484375 9.2933836 8.6484375 10.306641 C 8.6484375 11.350674 9.2165014 11.964489 9.9882812 12 C 10.525686 12.026042 10.941465 11.787583 11.052734 11.505859 L 11.082031 11.505859 C 11.138849 11.860973 11.451468 12.055339 11.929688 12.029297 C 12.947679 11.991418 13.238696 11.081912 13.236328 10 C 13.238696 8.4446031 12.191879 7.2421875 10.347656 7.2421875 z M 10.189453 9.34375 C 10.778941 9.34375 10.995679 9.6334047 10.998047 10.277344 C 11.005149 10.968631 10.782552 11.320312 10.183594 11.320312 C 9.5656963 11.320312 9.3578362 10.819069 9.3554688 10.279297 C 9.3578362 9.7395244 9.6591504 9.34375 10.189453 9.34375 z " />
</svg>
