<svg xmlns="http://www.w3.org/2000/svg" height="24" width="24">
    <title>
        elementary Symbolic Icon Theme
    </title>
    <path style="marker:none" d="M11.998 4c-4.423 0-8 3.576-8 8 0 4.424 3.577 8 8 8 4.424 0 8-3.576 8-8 0-4.424-3.576-8-8-8zm0 1c3.87 0 7 3.13 7 7s-3.13 7-7 7-7-3.13-7-7 3.13-7 7-7zm.065 1.5c-.714 0-1.282.555-1.282 1.25s.568 1.281 1.281 1.281c.714 0 1.282-.586 1.282-1.281s-.568-1.25-1.281-1.25zM7.405 9.094a.31.31 0 0 0-.187.031.361.361 0 0 0-.219.312c-.002.135.094.25.219.313l3.437 1.062-.031 2.47-1.219 3.655c-.117.167-.081.358.094.47.175.11.446.072.563-.095L12 13.376l1.938 3.938a.367.367 0 0 0 .5.125c.181-.1.26-.297.156-.47l-1.188-3.687L13.344 11l3.5-1.25a.368.368 0 0 0 .125-.438c-.061-.152-.236-.237-.321-.228L12 9.844z" color="#bebebe" overflow="visible" fill="#666"/>
</svg>
