<?xml version="1.0" encoding="UTF-8" standalone="no"?>
<!-- Created with Inkscape (http://www.inkscape.org/) -->

<svg
   xmlns:dc="http://purl.org/dc/elements/1.1/"
   xmlns:cc="http://creativecommons.org/ns#"
   xmlns:rdf="http://www.w3.org/1999/02/22-rdf-syntax-ns#"
   xmlns:svg="http://www.w3.org/2000/svg"
   xmlns="http://www.w3.org/2000/svg"
   xmlns:xlink="http://www.w3.org/1999/xlink"
   xmlns:sodipodi="http://sodipodi.sourceforge.net/DTD/sodipodi-0.dtd"
   xmlns:inkscape="http://www.inkscape.org/namespaces/inkscape"
   version="1.0"
   width="32"
   height="32"
   id="svg3520"
   inkscape:version="0.48.3.1 r9886"
   sodipodi:docname="application-vnd.ms-excel.svg">
  <metadata
     id="metadata130855">
    <rdf:RDF>
      <cc:Work
         rdf:about="">
        <dc:format>image/svg+xml</dc:format>
        <dc:type
           rdf:resource="http://purl.org/dc/dcmitype/StillImage" />
      </cc:Work>
    </rdf:RDF>
  </metadata>
  <sodipodi:namedview
     pagecolor="#ffffff"
     bordercolor="#666666"
     borderopacity="1"
     objecttolerance="10"
     gridtolerance="10"
     guidetolerance="10"
     inkscape:pageopacity="0"
     inkscape:pageshadow="2"
     inkscape:window-width="828"
     inkscape:window-height="666"
     id="namedview130853"
     showgrid="false"
     inkscape:zoom="5.2149125"
     inkscape:cx="16"
     inkscape:cy="27.23428"
     inkscape:window-x="0"
     inkscape:window-y="0"
     inkscape:window-maximized="0"
     inkscape:current-layer="svg3520" />
  <defs
     id="defs3522">
    <linearGradient
       id="linearGradient5048">
      <stop
         id="stop5050"
         style="stop-color:#000000;stop-opacity:0"
         offset="0" />
      <stop
         id="stop5056"
         style="stop-color:#000000;stop-opacity:1"
         offset="0.5" />
      <stop
         id="stop5052"
         style="stop-color:#000000;stop-opacity:0"
         offset="1" />
    </linearGradient>
    <linearGradient
       x1="302.85715"
       y1="366.64789"
       x2="302.85715"
       y2="609.50507"
       id="linearGradient3443"
       xlink:href="#linearGradient5048"
       gradientUnits="userSpaceOnUse"
       gradientTransform="matrix(0.04576928,0,0,0.00823529,-0.5423243,26.980549)" />
    <radialGradient
       cx="605.71429"
       cy="486.64789"
       r="117.14286"
       fx="605.71429"
       fy="486.64789"
       id="radialGradient3440"
       xlink:href="#linearGradient5060"
       gradientUnits="userSpaceOnUse"
       gradientTransform="matrix(-0.01566318,0,0,0.00823529,14.389566,26.980566)" />
    <linearGradient
       id="linearGradient5060">
      <stop
         id="stop5062"
         style="stop-color:#000000;stop-opacity:1"
         offset="0" />
      <stop
         id="stop5064"
         style="stop-color:#000000;stop-opacity:0"
         offset="1" />
    </linearGradient>
    <radialGradient
       cx="605.71429"
       cy="486.64789"
       r="117.14286"
       fx="605.71429"
       fy="486.64789"
       id="radialGradient3437"
       xlink:href="#linearGradient5060"
       gradientUnits="userSpaceOnUse"
       gradientTransform="matrix(0.01566318,0,0,0.00823529,17.610433,26.980566)" />
    <linearGradient
       id="linearGradient4711-257-850-696-320-311-361-101-393">
      <stop
         id="stop5651"
         style="stop-color:#425a2d;stop-opacity:1"
         offset="0" />
      <stop
         id="stop5653"
         style="stop-color:#7f956d;stop-opacity:1"
         offset="1" />
    </linearGradient>
    <linearGradient
       x1="-51.786404"
       y1="53.623615"
       x2="-51.786404"
       y2="2.9062471"
       id="linearGradient3434"
       xlink:href="#linearGradient4711-257-850-696-320-311-361-101-393"
       gradientUnits="userSpaceOnUse"
       gradientTransform="matrix(0.5306414,0,0,0.5897023,39.269604,-0.7919077)" />
    <linearGradient
       id="linearGradient4145-42-322-778-541-32-432-871-622">
      <stop
         id="stop5641"
         style="stop-color:#b5cc85;stop-opacity:1"
         offset="0" />
      <stop
         id="stop5643"
         style="stop-color:#9abe74;stop-opacity:1"
         offset="0.26238" />
      <stop
         id="stop5645"
         style="stop-color:#669f4d;stop-opacity:1"
         offset="0.704952" />
      <stop
         id="stop5647"
         style="stop-color:#47892b;stop-opacity:1"
         offset="1" />
    </linearGradient>
    <radialGradient
       cx="14.239056"
       cy="11.49049"
       r="18.000002"
       fx="14.239056"
       fy="11.49049"
       id="radialGradient3432"
       xlink:href="#linearGradient4145-42-322-778-541-32-432-871-622"
       gradientUnits="userSpaceOnUse"
       gradientTransform="matrix(0,2.0947184,-3.4818923,0,48.982686,-24.860803)" />
    <linearGradient
       id="linearGradient3211">
      <stop
         id="stop3213"
         style="stop-color:#ffffff;stop-opacity:1"
         offset="0" />
      <stop
         id="stop3215"
         style="stop-color:#ffffff;stop-opacity:0"
         offset="1" />
    </linearGradient>
    <linearGradient
       x1="24"
       y1="1.9999999"
       x2="24"
       y2="46.01725"
       id="linearGradient3429"
       xlink:href="#linearGradient3211"
       gradientUnits="userSpaceOnUse"
       gradientTransform="matrix(0.6363646,0,0,0.6279076,0.7272514,0.9302159)" />
    <filter
       height="1.3286875"
       y="-0.16434373"
       width="1.2969251"
       x="-0.14846256"
       id="filter3212">
      <feGaussianBlur
         id="feGaussianBlur3214"
         stdDeviation="0.77391625"
         inkscape:collect="always" />
    </filter>
    <linearGradient
       id="linearGradient8589">
      <stop
         id="stop8591"
         style="stop-color:#fefefe;stop-opacity:1"
         offset="0" />
      <stop
         id="stop8593"
         style="stop-color:#cbcbcb;stop-opacity:1"
         offset="1" />
    </linearGradient>
    <linearGradient
       x1="32.892288"
       y1="8.0590115"
       x2="36.358372"
       y2="5.4565363"
       id="linearGradient3425"
       xlink:href="#linearGradient8589"
       gradientUnits="userSpaceOnUse"
       gradientTransform="matrix(0.6371285,0,0,0.6445638,0.8296804,0.7445175)" />
    <linearGradient
       id="linearGradient8265-821-176-38-919-66-249">
      <stop
         id="stop2687"
         style="stop-color:#ffffff;stop-opacity:1"
         offset="0" />
      <stop
         id="stop2689"
         style="stop-color:#ffffff;stop-opacity:0"
         offset="1" />
    </linearGradient>
    <linearGradient
       x1="16.626165"
       y1="15.298182"
       x2="20.054544"
       y2="24.627615"
       id="linearGradient3422"
       xlink:href="#linearGradient8265-821-176-38-919-66-249"
       gradientUnits="userSpaceOnUse"
       gradientTransform="matrix(0.4789115,0,0,0.9110951,4.5061223,-3.4380998)" />
    <linearGradient
       id="linearGradient4267">
      <stop
         id="stop4269"
         style="stop-color:#c4c4c4;stop-opacity:1"
         offset="0" />
      <stop
         id="stop4271"
         style="stop-color:#c4c4c4;stop-opacity:0"
         offset="1" />
    </linearGradient>
    <linearGradient
       x1="35.516502"
       y1="4.8577352"
       x2="34.102982"
       y2="6.5436172"
       id="linearGradient3419"
       xlink:href="#linearGradient4267"
       gradientUnits="userSpaceOnUse"
       gradientTransform="matrix(0.637677,0,0,0.6601523,1.0364157,1.1698855)" />
    <linearGradient
       id="linearGradient4000">
      <stop
         id="stop4002"
         style="stop-color:#000000;stop-opacity:1"
         offset="0" />
      <stop
         id="stop4004"
         style="stop-color:#000000;stop-opacity:0"
         offset="1" />
    </linearGradient>
    <linearGradient
       x1="75.854454"
       y1="28"
       x2="91"
       y2="12"
       id="linearGradient3514"
       xlink:href="#linearGradient4000"
       gradientUnits="userSpaceOnUse"
       gradientTransform="matrix(0.7681661,0,0,0.5930025,-40.680373,5.2120319)"
       spreadMethod="reflect" />
    <linearGradient
       id="linearGradient5293">
      <stop
         id="stop5295"
         style="stop-color:#ffffff;stop-opacity:1"
         offset="0" />
      <stop
         id="stop5297"
         style="stop-color:#ffffff;stop-opacity:0"
         offset="1" />
    </linearGradient>
    <linearGradient
       x1="75.854454"
       y1="28"
       x2="91"
       y2="12"
       id="linearGradient3511"
       xlink:href="#linearGradient5293"
       gradientUnits="userSpaceOnUse"
       gradientTransform="matrix(0.7681661,0,0,0.5930025,-40.596896,4.1403447)"
       spreadMethod="reflect" />
    <linearGradient
       id="linearGradient3759">
      <stop
         id="stop3761"
         style="stop-color:#000000;stop-opacity:1"
         offset="0" />
      <stop
         id="stop3763"
         style="stop-color:#000000;stop-opacity:0"
         offset="1" />
    </linearGradient>
    <linearGradient
       x1="-43.304745"
       y1="34.497406"
       x2="-25.365585"
       y2="20.126789"
       id="linearGradient3508"
       xlink:href="#linearGradient3759"
       gradientUnits="userSpaceOnUse"
       gradientTransform="matrix(0.6470588,0,0,0.6561933,45.476234,-1.1613837)"
       spreadMethod="reflect" />
    <linearGradient
       id="linearGradient2611">
      <stop
         id="stop2613"
         style="stop-color:#355129;stop-opacity:1"
         offset="0" />
      <stop
         id="stop2615"
         style="stop-color:#7c8763;stop-opacity:1"
         offset="1" />
    </linearGradient>
    <linearGradient
       x1="24.239185"
       y1="44.110138"
       x2="24.239185"
       y2="0.19081046"
       id="linearGradient3504"
       xlink:href="#linearGradient2611"
       gradientUnits="userSpaceOnUse"
       gradientTransform="matrix(0.62726,0,0,0.6427056,3.6648879,1.7272733)" />
    <linearGradient
       inkscape:collect="always"
       xlink:href="#linearGradient2611"
       id="linearGradient3051"
       gradientUnits="userSpaceOnUse"
       gradientTransform="matrix(0.62726,0,0,0.6427056,3.6648879,1.7272733)"
       x1="24.239185"
       y1="44.110138"
       x2="24.239185"
       y2="0.19081046" />
    <linearGradient
       inkscape:collect="always"
       xlink:href="#linearGradient3759"
       id="linearGradient3055"
       gradientUnits="userSpaceOnUse"
       gradientTransform="matrix(0.6470588,0,0,0.6561933,45.476234,-1.1613837)"
       spreadMethod="reflect"
       x1="-43.304745"
       y1="34.497406"
       x2="-25.365585"
       y2="20.126789" />
    <linearGradient
       inkscape:collect="always"
       xlink:href="#linearGradient5293"
       id="linearGradient3058"
       gradientUnits="userSpaceOnUse"
       gradientTransform="matrix(0.7681661,0,0,0.5930025,-40.596896,4.1403447)"
       spreadMethod="reflect"
       x1="75.854454"
       y1="28"
       x2="91"
       y2="12" />
    <linearGradient
       inkscape:collect="always"
       xlink:href="#linearGradient4000"
       id="linearGradient3061"
       gradientUnits="userSpaceOnUse"
       gradientTransform="matrix(0.7681661,0,0,0.5930025,-40.680373,5.2120319)"
       spreadMethod="reflect"
       x1="75.854454"
       y1="28"
       x2="91"
       y2="12" />
    <linearGradient
       inkscape:collect="always"
       xlink:href="#linearGradient4267"
       id="linearGradient3064"
       gradientUnits="userSpaceOnUse"
       gradientTransform="matrix(0.637677,0,0,0.6601523,1.0364157,1.1698855)"
       x1="35.516502"
       y1="4.8577352"
       x2="34.102982"
       y2="6.5436172" />
    <linearGradient
       inkscape:collect="always"
       xlink:href="#linearGradient8265-821-176-38-919-66-249"
       id="linearGradient3067"
       gradientUnits="userSpaceOnUse"
       gradientTransform="matrix(0.4789115,0,0,0.9110951,4.5061223,-3.4380998)"
       x1="16.626165"
       y1="15.298182"
       x2="20.054544"
       y2="24.627615" />
    <linearGradient
       inkscape:collect="always"
       xlink:href="#linearGradient8589"
       id="linearGradient3070"
       gradientUnits="userSpaceOnUse"
       gradientTransform="matrix(0.6371285,0,0,0.6445638,0.8296804,0.7445175)"
       x1="32.892288"
       y1="8.0590115"
       x2="36.358372"
       y2="5.4565363" />
    <linearGradient
       inkscape:collect="always"
       xlink:href="#linearGradient3211"
       id="linearGradient3074"
       gradientUnits="userSpaceOnUse"
       gradientTransform="matrix(0.6363646,0,0,0.6279076,0.7272514,0.9302159)"
       x1="24"
       y1="1.9999999"
       x2="24"
       y2="46.01725" />
    <radialGradient
       inkscape:collect="always"
       xlink:href="#linearGradient4145-42-322-778-541-32-432-871-622"
       id="radialGradient3077"
       gradientUnits="userSpaceOnUse"
       gradientTransform="matrix(0,2.0947184,-3.4818923,0,48.982686,-24.860803)"
       cx="14.239056"
       cy="11.49049"
       fx="14.239056"
       fy="11.49049"
       r="18.000002" />
    <linearGradient
       inkscape:collect="always"
       xlink:href="#linearGradient4711-257-850-696-320-311-361-101-393"
       id="linearGradient3079"
       gradientUnits="userSpaceOnUse"
       gradientTransform="matrix(0.5306414,0,0,0.5897023,39.269604,-0.7919077)"
       x1="-51.786404"
       y1="53.623615"
       x2="-51.786404"
       y2="2.9062471" />
    <radialGradient
       inkscape:collect="always"
       xlink:href="#linearGradient5060"
       id="radialGradient3082"
       gradientUnits="userSpaceOnUse"
       gradientTransform="matrix(0.01566318,0,0,0.00823529,17.610433,26.980566)"
       cx="605.71429"
       cy="486.64789"
       fx="605.71429"
       fy="486.64789"
       r="117.14286" />
    <radialGradient
       inkscape:collect="always"
       xlink:href="#linearGradient5060"
       id="radialGradient3085"
       gradientUnits="userSpaceOnUse"
       gradientTransform="matrix(-0.01566318,0,0,0.00823529,14.389566,26.980566)"
       cx="605.71429"
       cy="486.64789"
       fx="605.71429"
       fy="486.64789"
       r="117.14286" />
    <linearGradient
       inkscape:collect="always"
       xlink:href="#linearGradient5048"
       id="linearGradient3088"
       gradientUnits="userSpaceOnUse"
       gradientTransform="matrix(0.04576928,0,0,0.00823529,-0.5423243,26.980549)"
       x1="302.85715"
       y1="366.64789"
       x2="302.85715"
       y2="609.50507" />
  </defs>
  <rect
     style="opacity:0.15;fill:url(#linearGradient3088);fill-opacity:1;fill-rule:nonzero;stroke:none;stroke-width:1;marker:none;visibility:visible;display:inline;overflow:visible"
     id="rect2879"
     y="30"
     x="4.9499893"
     height="2"
     width="22.100021" />
  <path
     inkscape:connector-curvature="0"
     style="opacity:0.15;fill:url(#radialGradient3085);fill-opacity:1;fill-rule:nonzero;stroke:none;stroke-width:1;marker:none;visibility:visible;display:inline;overflow:visible"
     id="path2881"
     d="m 4.9499887,30.000087 c 0,0 0,1.99989 0,1.99989 -0.806615,0.0038 -1.950002,-0.448074 -1.950002,-1.000074 0,-0.552 0.900121,-0.999816 1.950002,-0.999816 z" />
  <path
     inkscape:connector-curvature="0"
     style="opacity:0.15;fill:url(#radialGradient3082);fill-opacity:1;fill-rule:nonzero;stroke:none;stroke-width:1;marker:none;visibility:visible;display:inline;overflow:visible"
     id="path2883"
     d="m 27.050011,30.000087 c 0,0 0,1.99989 0,1.99989 0.806614,0.0038 1.950002,-0.448074 1.950002,-1.000074 0,-0.552 -0.900122,-0.999816 -1.950002,-0.999816 z" />
  <path
     inkscape:connector-curvature="0"
     style="fill:url(#radialGradient3077);fill-opacity:1;fill-rule:nonzero;stroke:url(#linearGradient3079);stroke-width:0.99992192;stroke-linecap:butt;stroke-linejoin:round;stroke-miterlimit:4;stroke-opacity:1;stroke-dasharray:none;stroke-dashoffset:0;marker:none;visibility:visible;display:inline;overflow:visible;enable-background:accumulate"
     id="path4160"
     d="M 4.499961,1.4999609 27.50004,1.5 c 0,0 0,21.447975 0,29.00004 -7.666694,0 -15.333386,0 -23.000079,0 0,-9.666694 0,-29.0000791 0,-29.0000791 z"
     sodipodi:nodetypes="ccccc" />
  <path
     inkscape:connector-curvature="0"
     style="opacity:0.4;fill:none;stroke:url(#linearGradient3074);stroke-width:1;stroke-linecap:butt;stroke-linejoin:miter;stroke-miterlimit:4;stroke-opacity:1;stroke-dasharray:none;stroke-dashoffset:0;display:inline"
     id="path2435"
     d="m 26.50004,3 c 0,7.031232 0,19.468805 0,26.50004 -7.000025,0 -14.000051,0 -21.0000789,0 0,-9.000029 0,-18.000054 0,-27.0000792 4.8121839,0 16.6878549,0 21.5000389,0"
     sodipodi:nodetypes="ccccc" />
  <path
     inkscape:connector-curvature="0"
     style="opacity:0.2;fill:url(#linearGradient3067);fill-opacity:1;fill-rule:evenodd;stroke:none"
     id="path3879"
     d="M 6.0476194,1.9999997 C 5.468961,1.9999997 5,2.8921644 5,3.9930194 L 5,18.570542 c 0.00133,0.122635 0.029596,0.238606 0.077942,0.319762 0.048348,0.08116 0.112353,0.120079 0.1764795,0.107313 L 26.805441,12.506062 C 26.9163,12.472804 26.998449,12.292474 27,12.078987 L 27,2 l -7.010047,-3e-7 z"
     sodipodi:nodetypes="sscscccccs" />
  <path
     inkscape:connector-curvature="0"
     style="opacity:0.1;fill:url(#linearGradient3061);fill-opacity:1;fill-rule:nonzero;stroke:none;stroke-width:0.91176528;marker:none;visibility:visible;display:inline;overflow:visible;enable-background:accumulate"
     id="path3743"
     d="m 12.708332,11.000002 c -2.569831,3.301846 -5.1385013,6.607884 -7.7083329,9.909729 0,3.361986 0,6.728285 0,10.090271 6.1041809,0 12.2083189,0 18.3124989,0 1.688844,-2.169916 1.949158,-2.50069 3.6875,-4.734203 0,-3.04885 0,-6.085987 0,-9.147442 -5.04409,-2.160298 -11.016133,-4.7155 -14.291666,-6.118355 z" />
  <path
     inkscape:connector-curvature="0"
     style="opacity:0.4;fill:url(#linearGradient3058);fill-opacity:1;fill-rule:nonzero;stroke:none;stroke-width:0.91176528;marker:none;visibility:visible;display:inline;overflow:visible;enable-background:accumulate"
     id="path3697"
     d="m 12.708332,10 c -2.569831,3.301846 -5.1385013,6.607883 -7.7083329,9.90973 0,3.361986 0,6.728285 0,10.09027 6.1041809,0 12.2083189,0 18.3124989,0 1.688844,-2.169915 1.949158,-2.500689 3.6875,-4.734202 0,-3.04885 0,-6.085988 0,-9.147443 C 21.955908,13.958056 15.983865,11.402855 12.708332,10 z" />
  <path
     inkscape:connector-curvature="0"
     style="opacity:0.1;fill:url(#linearGradient3055);fill-opacity:1;fill-rule:evenodd;stroke:none;stroke-width:0.99999994px;marker:none;visibility:visible;display:inline;overflow:visible;enable-background:accumulate"
     id="path6223"
     d="m 13.285058,13.336387 -0.808823,1.025302 4.286764,1.927568 0.808824,-1.025302 -4.286765,-1.927568 z m -1.617647,2.030098 -0.808823,1.025302 4.286764,1.927568 0.808824,-1.025302 -4.286765,-1.927568 z m 7.137868,0.451133 -0.808824,1.025302 4.286765,1.927568 0.808823,-1.025302 -4.286764,-1.927568 z m -8.755515,1.599471 -0.8290437,1.025302 4.2867647,1.927568 0.829044,-1.025302 -4.286765,-1.927568 z m 7.137868,0.430627 -0.808824,1.025302 4.286765,1.927568 0.808823,-1.025302 -4.286764,-1.927568 z m 7.137867,0.451133 -0.829044,1.004796 3.174632,1.435423 c 0,-0.467709 0,-0.926513 0,-1.394411 l -2.345588,-1.045808 z m -15.9136022,1.168844 -0.8088235,1.004796 4.2867647,1.927568 0.808823,-1.004796 -4.2867642,-1.927568 z m 7.1580882,0.430627 -0.829044,1.025302 4.286764,1.927568 0.829044,-1.025302 -4.286764,-1.927568 z m 7.117647,0.430627 -0.808824,1.025302 4.286765,1.927568 0.505514,-0.635688 c 0,-0.178554 0,-0.354505 0,-0.533157 l -3.983455,-1.784025 z m -15.8933822,1.168844 -0.8088235,1.025302 4.2867647,1.927568 0.808823,-1.025302 -4.2867642,-1.927568 z m 7.1378672,0.451133 -0.808823,1.004796 4.286764,1.927568 0.808824,-1.004796 -4.286765,-1.927568 z m 7.137868,0.430627 -0.808824,1.004796 4.286765,1.927568 0.808823,-1.004796 -4.286764,-1.927568 z M 5.3181469,23.630419 c 0,0.458113 0,0.915792 0,1.373905 l 3.3161764,1.496941 0.8088235,-1.025302 -4.1249999,-1.845544 z m 6.9963231,0.348603 -0.808823,1.025302 4.286764,1.927568 0.808824,-1.025302 -4.286765,-1.927568 z m 7.117647,0.430627 -0.808824,1.025302 4.286765,1.927568 0.808824,-1.025302 -4.286765,-1.927568 z m -8.755514,1.619977 -0.8088239,1.025302 4.2867649,1.927568 0.808823,-1.025302 -4.286764,-1.927568 z m -5.3584561,0.348603 c 0,0.46495 0,0.92946 0,1.39441 l 1.6985294,0.758724 0.8088235,-1.025302 -2.5073529,-1.127832 z m 12.4963231,0.08202 -0.808824,1.025302 4.286765,1.927568 0.808824,-1.025302 -4.286765,-1.927568 z M 9.0589556,28.05972 8.2501321,29.085022 10.353073,30.0283 c 0.984071,0 1.968135,0 2.952206,0 l 0.04044,-0.04101 -4.2867644,-1.927568 z m 7.1378674,0.430627 -0.829044,1.025302 1.132353,0.512651 c 1.037992,0 2.075978,0 3.11397,0 L 16.196823,28.490351 z M 5.3181469,29.146544 c 0,0.294013 0,0.587747 0,0.88176 0.1685051,0 0.3370096,0 0.5055147,0 L 6.2078528,29.556665 5.3181469,29.146544 z" />
  <path
     inkscape:connector-curvature="0"
     style="font-size:31.35451508px;font-style:normal;font-variant:normal;font-weight:bold;font-stretch:normal;opacity:0.4;fill:#ffffff;fill-opacity:1;stroke:none;font-family:Droid Sans;-inkscape-font-specification:Droid Sans Bold"
     id="path3516"
     d="m 22,25 c -1.102804,0 -2.205608,0 -3.308412,0 C 17.760124,23.234838 16.82866,21.469676 15.897196,19.704514 14.965732,21.469676 14.034268,23.234838 13.102804,25 12.068536,25 11.034268,25 10,25 11.383177,22.593251 12.766356,20.186502 14.149533,17.779754 12.862928,15.519836 11.576325,13.259918 10.28972,11 c 1.065421,0 2.130841,0 3.196262,0 0.853582,1.678979 1.707164,3.357957 2.560747,5.036936 C 16.88162,14.357957 17.71651,12.678979 18.551401,11 c 1.040499,0 2.080998,0 3.121496,0 -1.302181,2.314181 -2.604362,4.628363 -3.906542,6.942544 C 19.177569,20.295029 20.588785,22.647515 22,25 z" />
  <path
     inkscape:connector-curvature="0"
     style="font-size:31.35451508px;font-style:normal;font-variant:normal;font-weight:bold;font-stretch:normal;fill:url(#linearGradient3051);fill-opacity:1;stroke:none;font-family:Droid Sans;-inkscape-font-specification:Droid Sans Bold"
     id="path2636"
     d="m 22,24 c -1.102804,0 -2.205608,0 -3.308412,0 C 17.760124,22.234838 16.82866,20.469676 15.897196,18.704514 14.965732,20.469676 14.034268,22.234838 13.102804,24 12.068536,24 11.034268,24 10,24 11.383177,21.593251 12.766356,19.186502 14.149533,16.779754 12.862928,14.519836 11.576325,12.259918 10.28972,10 c 1.065421,0 2.130841,0 3.196262,0 0.853582,1.678979 1.707164,3.357957 2.560747,5.036936 C 16.88162,13.357957 17.71651,11.678979 18.551401,10 c 1.040499,0 2.080998,0 3.121496,0 -1.302181,2.314181 -2.604362,4.628363 -3.906542,6.942544 C 19.177569,19.295029 20.588785,21.647515 22,24 z" />
</svg>
