<svg xmlns="http://www.w3.org/2000/svg" xmlns:xlink="http://www.w3.org/1999/xlink" viewBox="0 0 32 32"><defs><linearGradient x1="24" y1="5.564" x2="24" y2="43" id="k" xlink:href="#a" gradientUnits="userSpaceOnUse" gradientTransform="matrix(.56757 0 0 .72973 2.378 -2.514)"/><linearGradient id="a"><stop offset="0" stop-color="#fff"/><stop offset=".036" stop-color="#fff" stop-opacity=".235"/><stop offset=".951" stop-color="#fff" stop-opacity=".157"/><stop offset="1" stop-color="#fff" stop-opacity=".392"/></linearGradient><radialGradient cx="7.806" cy="9.957" r="12.672" fx="7.276" fy="9.957" id="i" xlink:href="#b" gradientUnits="userSpaceOnUse" gradientTransform="matrix(0 4.35068 -5.31773 0 68.942 -39.416)"/><linearGradient id="b"><stop offset="0" stop-color="#ffcd7d"/><stop offset=".262" stop-color="#fc8f36"/><stop offset=".705" stop-color="#e23a0e"/><stop offset="1" stop-color="#ac441f"/></linearGradient><linearGradient x1="25" y1="47.935" x2="25" y2=".918" id="j" xlink:href="#c" gradientUnits="userSpaceOnUse" gradientTransform="matrix(.65714 0 0 .659 .23 .172)"/><linearGradient id="c"><stop offset="0" stop-color="#ba3d12"/><stop offset="1" stop-color="#db6737"/></linearGradient><radialGradient cx="605.714" cy="486.648" r="117.143" fx="605.714" fy="486.648" id="h" xlink:href="#d" gradientUnits="userSpaceOnUse" gradientTransform="matrix(.01566 0 0 .00824 17.61 25.98)"/><linearGradient id="d"><stop offset="0"/><stop offset="1" stop-opacity="0"/></linearGradient><radialGradient cx="605.714" cy="486.648" r="117.143" fx="605.714" fy="486.648" id="g" xlink:href="#d" gradientUnits="userSpaceOnUse" gradientTransform="matrix(-.01566 0 0 .00824 14.39 25.98)"/><linearGradient id="e"><stop offset="0" stop-opacity="0"/><stop offset=".5"/><stop offset="1" stop-opacity="0"/></linearGradient><linearGradient x1="302.857" y1="366.648" x2="302.857" y2="609.505" id="f" xlink:href="#e" gradientUnits="userSpaceOnUse" gradientTransform="matrix(.04577 0 0 .00824 -.542 25.98)"/></defs><path opacity=".15" fill="url(#f)" overflow="visible" d="M4.95 29h22.1v2H4.95z"/><path d="M4.95 29v2c-.807.004-1.95-.448-1.95-1s.9-1 1.95-1z" opacity=".15" fill="url(#g)" overflow="visible"/><path d="M27.05 29v2c.807.004 1.95-.448 1.95-1s-.9-1-1.95-1z" opacity=".15" fill="url(#h)" overflow="visible"/><path d="M4.5.5l23 .002V29.5h-23V.5z" color="#000" fill="url(#i)" stroke="url(#j)" stroke-linejoin="round" overflow="visible"/><path d="M26.5 28.5h-21v-27h21z" opacity=".5" fill="none" stroke="url(#k)" stroke-linecap="round" stroke-linejoin="round"/><path d="M7.063 25.902c0-.307.106-.565.318-.774a1.07 1.07 0 0 1 .78-.318c.3 0 .555.106.76.318.215.21.32.467.32.774 0 .3-.105.555-.32.767a1.035 1.035 0 0 1-.76.31 1.07 1.07 0 0 1-.78-.314 1.035 1.035 0 0 1-.314-.768M7 20.97v1.815A4.21 4.21 0 0 1 11.205 27h1.822A6.03 6.03 0 0 0 7 20.97zm.003-3.976v2.008c4.405 0 7.982 3.582 7.982 7.993H17c0-5.522-4.482-10-9.997-10z" style="text-align:start;line-height:125%" font-size="13.59" font-weight="700" fill="#fff" font-family="Bitstream Vera Serif"/></svg>