<svg width="32" height="32" viewBox="0 0 32 32" fill="none" xmlns="http://www.w3.org/2000/svg">
<path opacity="0.15" d="M27.05 29H4.94998V31H27.05V29Z" fill="url(#paint0_linear)"/>
<path opacity="0.15" d="M4.94999 29.0001V31C4.14337 31.0038 2.99998 30.5519 2.99998 29.9999C2.99998 29.4479 3.90011 29.0001 4.94999 29.0001Z" fill="url(#paint1_radial)"/>
<path opacity="0.15" d="M27.05 29.0001V31C27.8566 31.0038 29 30.5519 29 29.9999C29 29.4479 28.0999 29.0001 27.05 29.0001Z" fill="url(#paint2_radial)"/>
<path d="M5 1C10.0413 1 27 1.00179 27 1.00179L27 29C27 29 12.3333 29 5 29C5 19.6667 5 10.3333 5 1V1Z" fill="url(#paint3_linear)"/>
<path d="M26.5 28.5H5.5V1.5H26.5V28.5Z" stroke="url(#paint4_linear)" stroke-linecap="round"/>
<path d="M4.49995 0.499939C9.77043 0.499939 27.5 0.501939 27.5 0.501939L27.5 29.5C27.5 29.5 12.1666 29.5 4.49995 29.5C4.49995 19.8333 4.49995 10.1667 4.49995 0.500095V0.499939Z" stroke="url(#paint5_linear)" stroke-width="0.999922" stroke-linejoin="round"/>
<path d="M13.2443 20.7609H10.9968V11.913H8V10H16.2411V11.913H13.2443V20.7609Z" fill="url(#paint6_linear)"/>
<path d="M20.4263 10C18.4657 10 17.2089 11.2619 17.2089 12.9196C17.2089 14.7175 18.2634 15.5678 19.8484 16.2463L20.397 16.4838C21.3975 16.9248 21.8922 17.1939 21.8922 17.9515C21.8922 18.5824 21.4155 19.0393 20.505 19.0393C19.4213 19.0393 18.9086 18.2998 18.4387 17.5263L16.712 18.6842C17.3573 19.9665 18.5152 21 20.5544 21C22.6409 21 24.1944 19.91 24.1944 17.9221C24.1944 16.0767 23.1422 15.2558 21.2739 14.4507L20.7253 14.2155C19.7832 13.8039 19.374 13.537 19.374 12.8744C19.374 12.3384 19.7832 11.9268 20.4263 11.9268C21.058 11.9268 21.4627 12.1959 21.8382 12.8744L23.5492 11.7708C22.8275 10.4885 21.8225 10 20.4263 10Z" fill="url(#paint7_linear)"/>
<defs>
<linearGradient id="paint0_linear" x1="13.3192" y1="29" x2="13.3192" y2="31" gradientUnits="userSpaceOnUse">
<stop stop-opacity="0"/>
<stop offset="0.5"/>
<stop offset="1" stop-opacity="0"/>
</linearGradient>
<radialGradient id="paint1_radial" cx="0" cy="0" r="1" gradientUnits="userSpaceOnUse" gradientTransform="translate(4.90215 29.9883) rotate(180) scale(1.83483 0.964705)">
<stop/>
<stop offset="1" stop-opacity="0"/>
</radialGradient>
<radialGradient id="paint2_radial" cx="0" cy="0" r="1" gradientUnits="userSpaceOnUse" gradientTransform="translate(27.0979 29.9883) scale(1.83483 0.964705)">
<stop/>
<stop offset="1" stop-opacity="0"/>
</radialGradient>
<linearGradient id="paint3_linear" x1="16.7117" y1="0.0646031" x2="16.7117" y2="28.0678" gradientUnits="userSpaceOnUse">
<stop stop-color="#F4F4F4"/>
<stop offset="1" stop-color="#DBDBDB"/>
</linearGradient>
<linearGradient id="paint4_linear" x1="16" y1="2.00036" x2="16" y2="28" gradientUnits="userSpaceOnUse">
<stop stop-color="white" stop-opacity="0.235294"/>
<stop offset="1" stop-color="white" stop-opacity="0.392157"/>
</linearGradient>
<linearGradient id="paint5_linear" x1="11.7896" y1="28.1569" x2="11.7896" y2="-0.078109" gradientUnits="userSpaceOnUse">
<stop stop-opacity="0.317829"/>
<stop offset="1" stop-opacity="0.24031"/>
</linearGradient>
<linearGradient id="paint6_linear" x1="12.5012" y1="1.47011" x2="12.5012" y2="29.1085" gradientUnits="userSpaceOnUse">
<stop stop-color="#64BAFF"/>
<stop offset="1" stop-color="#3689E6"/>
</linearGradient>
<linearGradient id="paint7_linear" x1="17.1421" y1="1.28055" x2="17.1421" y2="29.5332" gradientUnits="userSpaceOnUse">
<stop stop-color="#64BAFF"/>
<stop offset="1" stop-color="#3689E6"/>
</linearGradient>
</defs>
</svg>
