<svg xmlns="http://www.w3.org/2000/svg" xmlns:xlink="http://www.w3.org/1999/xlink" viewBox="0 0 32 32"><defs><linearGradient x1="24" y1="5.564" x2="24" y2="43" id="i" xlink:href="#a" gradientUnits="userSpaceOnUse" gradientTransform="matrix(.56757 0 0 .72973 2.378 -2.514)"/><linearGradient id="a"><stop offset="0" stop-color="#fff"/><stop offset=".036" stop-color="#fff" stop-opacity=".235"/><stop offset=".951" stop-color="#fff" stop-opacity=".157"/><stop offset="1" stop-color="#fff" stop-opacity=".392"/></linearGradient><radialGradient cx="7.806" cy="9.957" r="12.672" fx="7.276" fy="9.957" id="h" xlink:href="#b" gradientUnits="userSpaceOnUse" gradientTransform="matrix(0 4.35068 -5.31773 0 68.942 -39.416)"/><linearGradient id="b"><stop offset="0" stop-color="#90dbec"/><stop offset=".262" stop-color="#55c1ec"/><stop offset=".705" stop-color="#3689e6"/><stop offset="1" stop-color="#2b63a0"/></linearGradient><radialGradient cx="605.714" cy="486.648" r="117.143" fx="605.714" fy="486.648" id="g" xlink:href="#c" gradientUnits="userSpaceOnUse" gradientTransform="matrix(.01566 0 0 .00824 17.61 25.98)"/><linearGradient id="c"><stop offset="0"/><stop offset="1" stop-opacity="0"/></linearGradient><radialGradient cx="605.714" cy="486.648" r="117.143" fx="605.714" fy="486.648" id="f" xlink:href="#c" gradientUnits="userSpaceOnUse" gradientTransform="matrix(-.01566 0 0 .00824 14.39 25.98)"/><linearGradient id="d"><stop offset="0" stop-opacity="0"/><stop offset=".5"/><stop offset="1" stop-opacity="0"/></linearGradient><linearGradient x1="302.857" y1="366.648" x2="302.857" y2="609.505" id="e" xlink:href="#d" gradientUnits="userSpaceOnUse" gradientTransform="matrix(.04577 0 0 .00824 -.542 25.98)"/></defs><path opacity=".15" fill="url(#e)" overflow="visible" d="M4.95 29h22.1v2H4.95z"/><path d="M4.95 29v2c-.807.004-1.95-.448-1.95-1s.9-1 1.95-1z" opacity=".15" fill="url(#f)" overflow="visible"/><path d="M27.05 29v2c.807.004 1.95-.448 1.95-1s-.9-1-1.95-1z" opacity=".15" fill="url(#g)" overflow="visible"/><path d="M4.5.5l23 .002V29.5h-23V.5z" color="#000" fill="url(#h)" overflow="visible"/><path d="M26.5 28.5h-21v-27h21z" opacity=".5" fill="none" stroke="url(#i)" stroke-linecap="round" stroke-linejoin="round"/><path d="M4.5.5l23 .002V29.5h-23V.5z" opacity=".3" fill="none" stroke="#000" stroke-linejoin="round"/><g color="#000" fill="#fff" stroke-width="1.7" overflow="visible"><path d="M16 7a8 8 0 1 0 0 16 8 8 0 0 0 0-16zm0 2a6 6 0 1 1 0 12 6 6 0 0 1 0-12z" overflow="visible"/><path d="M15 11v4h-3l4 4 4-4h-3v-4z" overflow="visible"/></g></svg>