<?xml version="1.0" encoding="UTF-8" standalone="no"?>
<svg
   version="1.1"
   width="32"
   height="32"
   id="svg3182"
   sodipodi:docname="application-x-bittorrent.svg"
   inkscape:version="1.4 (e7c3feb100, 2024-10-09)"
   xmlns:inkscape="http://www.inkscape.org/namespaces/inkscape"
   xmlns:sodipodi="http://sodipodi.sourceforge.net/DTD/sodipodi-0.dtd"
   xmlns:xlink="http://www.w3.org/1999/xlink"
   xmlns="http://www.w3.org/2000/svg"
   xmlns:svg="http://www.w3.org/2000/svg"
   xmlns:rdf="http://www.w3.org/1999/02/22-rdf-syntax-ns#"
   xmlns:cc="http://creativecommons.org/ns#"
   xmlns:dc="http://purl.org/dc/elements/1.1/">
  <sodipodi:namedview
     id="namedview1"
     pagecolor="#ffffff"
     bordercolor="#000000"
     borderopacity="0.25"
     inkscape:showpageshadow="2"
     inkscape:pageopacity="0.0"
     inkscape:pagecheckerboard="0"
     inkscape:deskcolor="#d1d1d1"
     inkscape:zoom="35.375"
     inkscape:cx="16"
     inkscape:cy="16"
     inkscape:current-layer="svg3182" />
  <defs
     id="defs3184">
    <linearGradient
       id="linearGradient3977">
      <stop
         id="stop3979"
         style="stop-color:#ffffff;stop-opacity:1"
         offset="0" />
      <stop
         id="stop3981"
         style="stop-color:#ffffff;stop-opacity:0.23529412"
         offset="0" />
      <stop
         id="stop3983"
         style="stop-color:#ffffff;stop-opacity:0.15686275"
         offset="0.99999994" />
      <stop
         id="stop3985"
         style="stop-color:#ffffff;stop-opacity:0.39215687"
         offset="1" />
    </linearGradient>
    <linearGradient
       id="linearGradient3600-4">
      <stop
         id="stop3602-7"
         style="stop-color:#f4f4f4;stop-opacity:1"
         offset="0" />
      <stop
         id="stop3604-6"
         style="stop-color:#dbdbdb;stop-opacity:1"
         offset="1" />
    </linearGradient>
    <linearGradient
       id="linearGradient5060">
      <stop
         id="stop5062"
         style="stop-color:#000000;stop-opacity:1"
         offset="0" />
      <stop
         id="stop5064"
         style="stop-color:#000000;stop-opacity:0"
         offset="1" />
    </linearGradient>
    <linearGradient
       id="linearGradient5048">
      <stop
         id="stop5050"
         style="stop-color:#000000;stop-opacity:0"
         offset="0" />
      <stop
         id="stop5056"
         style="stop-color:#000000;stop-opacity:1"
         offset="0.5" />
      <stop
         id="stop5052"
         style="stop-color:#000000;stop-opacity:0"
         offset="1" />
    </linearGradient>
    <linearGradient
       x1="23.99999"
       y1="6.1851754"
       x2="23.99999"
       y2="41.814808"
       id="linearGradient3013"
       xlink:href="#linearGradient3977"
       gradientUnits="userSpaceOnUse"
       gradientTransform="matrix(0.56756757,0,0,0.72972971,2.378382,-2.5135063)" />
    <linearGradient
       x1="25.132275"
       y1="0.98520643"
       x2="25.132275"
       y2="47.013336"
       id="linearGradient3016"
       xlink:href="#linearGradient3600-4"
       gradientUnits="userSpaceOnUse"
       gradientTransform="matrix(0.62856997,0,0,0.60839392,0.91431981,-0.5347905)" />
    <radialGradient
       cx="605.71429"
       cy="486.64789"
       r="117.14286"
       fx="605.71429"
       fy="486.64789"
       id="radialGradient3021"
       xlink:href="#linearGradient5060"
       gradientUnits="userSpaceOnUse"
       gradientTransform="matrix(0.01566318,0,0,0.00823529,17.610433,25.980565)" />
    <radialGradient
       cx="605.71429"
       cy="486.64789"
       r="117.14286"
       fx="605.71429"
       fy="486.64789"
       id="radialGradient3024"
       xlink:href="#linearGradient5060"
       gradientUnits="userSpaceOnUse"
       gradientTransform="matrix(-0.01566318,0,0,0.00823529,14.389566,25.980565)" />
    <linearGradient
       x1="302.85715"
       y1="366.64789"
       x2="302.85715"
       y2="609.50507"
       id="linearGradient3027"
       xlink:href="#linearGradient5048"
       gradientUnits="userSpaceOnUse"
       gradientTransform="matrix(0.04576928,0,0,0.00823529,-0.5423243,25.980548)" />
    <linearGradient
       id="linearGradient3104-6">
      <stop
         offset="0"
         style="stop-color:#000000;stop-opacity:0.31782946"
         id="stop3106-3" />
      <stop
         offset="1"
         style="stop-color:#000000;stop-opacity:0.24031007"
         id="stop3108-9" />
    </linearGradient>
    <linearGradient
       xlink:href="#linearGradient3104-6"
       id="linearGradient3148"
       gradientUnits="userSpaceOnUse"
       gradientTransform="matrix(0.53064141,0,0,0.58970049,39.269607,-1.791918)"
       x1="-51.786404"
       y1="50.786446"
       x2="-51.786404"
       y2="2.9062471" />
  </defs>
  <metadata
     id="metadata3187">
    <rdf:RDF>
      <cc:Work
         rdf:about="">
        <dc:format>image/svg+xml</dc:format>
        <dc:type
           rdf:resource="http://purl.org/dc/dcmitype/StillImage" />
      </cc:Work>
    </rdf:RDF>
  </metadata>
  <path
     style="color:#bebebe;display:inline;overflow:visible;visibility:visible;opacity:0.2;fill:#3689e6;fill-opacity:1;fill-rule:nonzero;stroke:none;stroke-width:1;marker:none;enable-background:accumulate"
     id="path10554"
     d="m 16,6.9999999 c 0,0 -0.666667,0 -0.666667,0.6370435 0,0.637043 -0.666667,0.637043 -0.666667,0.637043 0,0 -0.666666,6.5e-4 -0.666666,-0.637043 v 8.9186136 h 4 V 7.6370434 c 0,0.637043 -0.666667,0.637043 -0.666667,0.637043 0,0 -0.666667,0 -0.666667,-0.637043 C 16.666666,6.9999999 16,6.9999999 16,6.9999999 Z" />
  <path
     style="color:#bebebe;display:inline;overflow:visible;visibility:visible;opacity:0.5;fill:#3689e6;fill-opacity:1;fill-rule:nonzero;stroke:none;stroke-width:1;marker:none;enable-background:accumulate"
     id="path10536"
     d="m 14.666667,10.5 c 0,0 -0.666667,-7e-4 -0.666667,0.637043 v 4.36296 h 4 v -4.36296 C 18,10.5 17.333333,10.5 17.333333,10.5 c 0,0 -0.666666,0 -0.666666,0.637043 0,0.637044 -0.666667,0.637044 -0.666667,0.637044 0,0 -0.666667,0 -0.666667,-0.637044 C 15.333333,10.5 14.666667,10.5 14.666667,10.5 Z" />
  <path
     id="path873-5-3-3-7-4"
     style="font-variation-settings:normal;vector-effect:none;fill:#3689e6;fill-opacity:1;stroke:none;stroke-width:1;stroke-linecap:butt;stroke-linejoin:miter;stroke-miterlimit:4;stroke-dasharray:none;stroke-dashoffset:0;stroke-opacity:1;-inkscape-stroke:none;stop-color:#000000;opacity:1;marker:none;stop-opacity:1"
     d="M 16 13 C 16 13 15.320312 13.00002 15.320312 13.648438 C 15.320312 14.296857 14.642578 14.296875 14.642578 14.296875 C 14.642578 14.296875 14.138902 14.295099 14 13.878906 L 14 16 L 10.132812 16 C 9.6403432 16 9.3339844 16.396203 9.3339844 16.888672 C 9.3339844 17.154093 9.4495202 17.392079 9.6328125 17.554688 L 15.390625 23.757812 C 15.549831 23.908116 15.763773 24 16 24 C 16.236221 24 16.450174 23.90812 16.609375 23.757812 L 22.369141 17.554688 C 22.55243 17.39208 22.667969 17.154093 22.667969 16.888672 C 22.667969 16.396203 22.477766 16.119437 22 16 L 18 16 L 18 13.880859 C 17.861013 14.296542 17.357422 14.296875 17.357422 14.296875 C 17.357422 14.296875 16.679688 14.296856 16.679688 13.648438 C 16.679688 13.00003 16 13 16 13 z " />
</svg>
