<svg xmlns="http://www.w3.org/2000/svg" xmlns:xlink="http://www.w3.org/1999/xlink" viewBox="0 0 32 32"><defs><linearGradient x1="24" y1="5.564" x2="24" y2="43" id="k" xlink:href="#a" gradientUnits="userSpaceOnUse" gradientTransform="matrix(.56757 0 0 .72973 2.378 -2.514)"/><linearGradient id="a"><stop offset="0" stop-color="#fff"/><stop offset=".036" stop-color="#fff" stop-opacity=".235"/><stop offset=".951" stop-color="#fff" stop-opacity=".157"/><stop offset="1" stop-color="#fff" stop-opacity=".392"/></linearGradient><linearGradient x1="25.132" y1=".985" x2="25.132" y2="47.013" id="i" xlink:href="#b" gradientUnits="userSpaceOnUse" gradientTransform="matrix(.65714 0 0 .63012 .23 -1.09)"/><linearGradient id="b"><stop offset="0" stop-color="#f4f4f4"/><stop offset="1" stop-color="#dbdbdb"/></linearGradient><linearGradient x1="-51.786" y1="50.786" x2="-51.786" y2="2.906" id="j" xlink:href="#c" gradientUnits="userSpaceOnUse" gradientTransform="matrix(.53064 0 0 .5897 39.27 -1.792)"/><linearGradient id="c"><stop offset="0" stop-color="#a0a0a0"/><stop offset="1" stop-color="#bebebe"/></linearGradient><radialGradient cx="605.714" cy="486.648" r="117.143" fx="605.714" fy="486.648" id="h" xlink:href="#d" gradientUnits="userSpaceOnUse" gradientTransform="matrix(.01566 0 0 .00824 17.61 25.98)"/><linearGradient id="d"><stop offset="0"/><stop offset="1" stop-opacity="0"/></linearGradient><radialGradient cx="605.714" cy="486.648" r="117.143" fx="605.714" fy="486.648" id="g" xlink:href="#d" gradientUnits="userSpaceOnUse" gradientTransform="matrix(-.01566 0 0 .00824 14.39 25.98)"/><linearGradient id="e"><stop offset="0" stop-opacity="0"/><stop offset=".5"/><stop offset="1" stop-opacity="0"/></linearGradient><linearGradient x1="302.857" y1="366.648" x2="302.857" y2="609.505" id="f" xlink:href="#e" gradientUnits="userSpaceOnUse" gradientTransform="matrix(.04577 0 0 .00824 -.542 25.98)"/></defs><path opacity=".15" fill="url(#f)" overflow="visible" d="M4.95 29h22.1v2H4.95z"/><path d="M4.95 29v2c-.807.004-1.95-.448-1.95-1s.9-1 1.95-1z" opacity=".15" fill="url(#g)" overflow="visible"/><path d="M27.05 29v2c.807.004 1.95-.448 1.95-1s-.9-1-1.95-1z" opacity=".15" fill="url(#h)" overflow="visible"/><path d="M4.5.5l23 .002V29.5h-23V.5z" fill="url(#i)" stroke="url(#j)" stroke-linejoin="round"/><path d="M26.5 28.5h-21v-27h21z" fill="none" stroke="url(#k)" stroke-linecap="round" stroke-linejoin="round"/><path d="M13.372 20h-2.66v3h2.66v-3zm2.645-15h-2.66v3h2.66V5zm5.322 0h-2.663v3h2.66V5zm-2.663 3h-2.66v3h2.66V8zM10.66 5H8v3h2.66V5zM24 8h-2.66v3H24V8zm-2.66 3h-2.662v3h2.66v-3zm-2.662 3h-2.66v3h2.66v-3zm-2.66-3h-2.662v3h2.66v-3zm-2.662-3h-2.66v3h2.66V8zm-2.66 3H8v3h2.695v-3zm2.66 3h-2.66v3h2.66v-3zm-2.66 3H8v3h2.695v-3zM24 14h-2.66v3H24v-3zm-2.66 3h-2.662v3h2.66v-3zM24 20h-2.66v3H24v-3zm-2.66 3h-2.662v3h2.66v-3zm-2.662-3h-2.66v3h2.66v-3zm-2.66-3h-2.662v3h2.66v-3zm-.036 6h-2.66v3h2.66v-3zm-5.287 0H8v3h2.695v-3z" opacity=".12" fill-rule="evenodd" overflow="visible"/></svg>