<?xml version="1.0" encoding="UTF-8" standalone="no"?>
<!-- Created with Inkscape (http://www.inkscape.org/) -->

<svg
   xmlns:dc="http://purl.org/dc/elements/1.1/"
   xmlns:cc="http://creativecommons.org/ns#"
   xmlns:rdf="http://www.w3.org/1999/02/22-rdf-syntax-ns#"
   xmlns:svg="http://www.w3.org/2000/svg"
   xmlns="http://www.w3.org/2000/svg"
   xmlns:xlink="http://www.w3.org/1999/xlink"
   xmlns:sodipodi="http://sodipodi.sourceforge.net/DTD/sodipodi-0.dtd"
   xmlns:inkscape="http://www.inkscape.org/namespaces/inkscape"
   version="1.1"
   width="32"
   height="32"
   id="svg4247"
   inkscape:version="0.48+devel r"
   sodipodi:docname="text-x-generic-template.svg">
  <sodipodi:namedview
     pagecolor="#ffffff"
     bordercolor="#666666"
     borderopacity="1"
     objecttolerance="10"
     gridtolerance="10"
     guidetolerance="10"
     inkscape:pageopacity="0"
     inkscape:pageshadow="2"
     inkscape:window-width="1470"
     inkscape:window-height="805"
     id="namedview50563"
     showgrid="true"
     inkscape:zoom="9.8333333"
     inkscape:cx="14.536353"
     inkscape:cy="20.894758"
     inkscape:window-x="65"
     inkscape:window-y="24"
     inkscape:window-maximized="0"
     inkscape:current-layer="svg4247"
     showguides="false">
    <inkscape:grid
       type="xygrid"
       id="grid4160" />
  </sodipodi:namedview>
  <defs
     id="defs4249">
    <radialGradient
       cx="21.171581"
       cy="25.536045"
       r="16"
       fx="21.171581"
       fy="25.536045"
       id="radialGradient3338"
       xlink:href="#linearGradient3827"
       gradientUnits="userSpaceOnUse"
       gradientTransform="matrix(1.1520394,1.7684961e-8,-2.3573005e-8,1.5357262,-2.9397491,-14.01124)" />
    <linearGradient
       id="linearGradient3827">
      <stop
         id="stop3829"
         style="stop-color:#ffffff;stop-opacity:1"
         offset="0" />
      <stop
         id="stop3835"
         style="stop-color:#ffffff;stop-opacity:1"
         offset="0.82282937" />
      <stop
         id="stop3831"
         style="stop-color:#ffffff;stop-opacity:0"
         offset="1" />
    </linearGradient>
    <linearGradient
       x1="23.99999"
       y1="5.5641499"
       x2="23.99999"
       y2="43"
       id="linearGradient3988"
       xlink:href="#linearGradient3977"
       gradientUnits="userSpaceOnUse"
       gradientTransform="matrix(0.85613078,0,0,1.1071883,3.1801155,-4.0724012)" />
    <linearGradient
       id="linearGradient3977">
      <stop
         id="stop3979"
         style="stop-color:#ffffff;stop-opacity:1"
         offset="0" />
      <stop
         id="stop3981"
         style="stop-color:#ffffff;stop-opacity:0.23529412"
         offset="0.03626217" />
      <stop
         id="stop3983"
         style="stop-color:#ffffff;stop-opacity:0.15686275"
         offset="0.95056331" />
      <stop
         id="stop3985"
         style="stop-color:#ffffff;stop-opacity:0.39215687"
         offset="1" />
    </linearGradient>
    <radialGradient
       cx="15.951264"
       cy="8.6004324"
       r="18.000002"
       fx="15.951264"
       fy="8.6004324"
       id="radialGradient3350-4"
       xlink:href="#linearGradient2867-449-88-871-390-598-476-591-434-148-57-177-7"
       gradientUnits="userSpaceOnUse"
       gradientTransform="matrix(-1.8136992e-8,2.5204536,-2.2251044,-1.6295259e-8,42.866006,-27.461211)" />
    <linearGradient
       id="linearGradient2867-449-88-871-390-598-476-591-434-148-57-177-7">
      <stop
         id="stop3750-6"
         style="stop-color:#90dbec;stop-opacity:1"
         offset="0" />
      <stop
         id="stop3752-3"
         style="stop-color:#55c1ec;stop-opacity:1"
         offset="0.26238" />
      <stop
         id="stop3754-1"
         style="stop-color:#3689e6;stop-opacity:1"
         offset="0.704952" />
      <stop
         id="stop3756-7"
         style="stop-color:#2b63a0;stop-opacity:1"
         offset="1" />
    </linearGradient>
    <linearGradient
       x1="-51.786404"
       y1="53.623615"
       x2="-51.786404"
       y2="2.9062471"
       id="linearGradient3352-5"
       xlink:href="#linearGradient3707-319-631-407-324-9"
       gradientUnits="userSpaceOnUse"
       gradientTransform="matrix(0.80043978,0,0,0.8948322,58.828015,-2.9833171)" />
    <linearGradient
       id="linearGradient3707-319-631-407-324-9">
      <stop
         id="stop3760-6"
         style="stop-color:#185f9a;stop-opacity:1"
         offset="0" />
      <stop
         id="stop3762-2"
         style="stop-color:#599ec9;stop-opacity:1"
         offset="1" />
    </linearGradient>
    <radialGradient
       cx="605.71429"
       cy="486.64789"
       r="117.14286"
       fx="605.71429"
       fy="486.64789"
       id="radialGradient3327"
       xlink:href="#linearGradient5060"
       gradientUnits="userSpaceOnUse"
       gradientTransform="matrix(0.02303995,0,0,0.01470022,26.360882,37.040176)" />
    <linearGradient
       id="linearGradient5060">
      <stop
         id="stop5062"
         style="stop-color:#000000;stop-opacity:1"
         offset="0" />
      <stop
         id="stop5064"
         style="stop-color:#000000;stop-opacity:0"
         offset="1" />
    </linearGradient>
    <radialGradient
       cx="605.71429"
       cy="486.64789"
       r="117.14286"
       fx="605.71429"
       fy="486.64789"
       id="radialGradient3330"
       xlink:href="#linearGradient5060"
       gradientUnits="userSpaceOnUse"
       gradientTransform="matrix(-0.02303994,0,0,0.01470022,21.62311,37.040176)" />
    <linearGradient
       id="linearGradient5048">
      <stop
         id="stop5050"
         style="stop-color:#000000;stop-opacity:0"
         offset="0" />
      <stop
         id="stop5056"
         style="stop-color:#000000;stop-opacity:1"
         offset="0.5" />
      <stop
         id="stop5052"
         style="stop-color:#000000;stop-opacity:0"
         offset="1" />
    </linearGradient>
    <linearGradient
       x1="302.85715"
       y1="366.64789"
       x2="302.85715"
       y2="609.50507"
       id="linearGradient4245"
       xlink:href="#linearGradient5048"
       gradientUnits="userSpaceOnUse"
       gradientTransform="matrix(0.06732488,0,0,0.01470022,-0.3411391,37.040146)" />
    <radialGradient
       inkscape:collect="always"
       xlink:href="#linearGradient5060-3"
       id="radialGradient3045"
       gradientUnits="userSpaceOnUse"
       gradientTransform="matrix(0.01566318,0,0,0.00823529,17.610446,25.980565)"
       cx="605.71429"
       cy="486.64789"
       fx="605.71429"
       fy="486.64789"
       r="117.14286" />
    <linearGradient
       id="linearGradient5060-3">
      <stop
         id="stop5062-4"
         style="stop-color:#000000;stop-opacity:1"
         offset="0" />
      <stop
         id="stop5064-1"
         style="stop-color:#000000;stop-opacity:0"
         offset="1" />
    </linearGradient>
    <radialGradient
       inkscape:collect="always"
       xlink:href="#linearGradient5060-3"
       id="radialGradient3048"
       gradientUnits="userSpaceOnUse"
       gradientTransform="matrix(-0.01566318,0,0,0.00823529,14.389579,25.980565)"
       cx="605.71429"
       cy="486.64789"
       fx="605.71429"
       fy="486.64789"
       r="117.14286" />
    <linearGradient
       id="linearGradient4167">
      <stop
         id="stop4169"
         style="stop-color:#000000;stop-opacity:1"
         offset="0" />
      <stop
         id="stop4171"
         style="stop-color:#000000;stop-opacity:0"
         offset="1" />
    </linearGradient>
    <linearGradient
       y2="609.50507"
       x2="302.85715"
       y1="366.64789"
       x1="302.85715"
       gradientTransform="matrix(0.04576928,0,0,0.00823529,-0.542311,25.980548)"
       gradientUnits="userSpaceOnUse"
       id="linearGradient3180"
       xlink:href="#linearGradient5048-2"
       inkscape:collect="always" />
    <linearGradient
       id="linearGradient5048-2">
      <stop
         id="stop5050-2"
         style="stop-color:#000000;stop-opacity:0"
         offset="0" />
      <stop
         id="stop5056-9"
         style="stop-color:#000000;stop-opacity:1"
         offset="0.5" />
      <stop
         id="stop5052-8"
         style="stop-color:#000000;stop-opacity:0"
         offset="1" />
    </linearGradient>
  </defs>
  <metadata
     id="metadata4252">
    <rdf:RDF>
      <cc:Work
         rdf:about="">
        <dc:format>image/svg+xml</dc:format>
        <dc:type
           rdf:resource="http://purl.org/dc/dcmitype/StillImage" />
        <dc:title></dc:title>
      </cc:Work>
    </rdf:RDF>
  </metadata>
  <g
     id="g4217">
    <rect
       width="22.100021"
       height="2"
       x="4.9500027"
       y="29"
       id="rect2879"
       style="opacity:0.15;fill:url(#linearGradient3180);fill-opacity:1;fill-rule:nonzero;stroke:none;stroke-width:1;marker:none;visibility:visible;display:inline;overflow:visible" />
    <path
       d="m 4.950002,29.000086 c 0,0 0,1.99989 0,1.99989 C 4.143387,31.003776 3,30.551902 3,29.999902 c 0,-0.552 0.900121,-0.999816 1.950002,-0.999816 z"
       id="path2881"
       style="opacity:0.15;fill:url(#radialGradient3048);fill-opacity:1;fill-rule:nonzero;stroke:none;stroke-width:1;marker:none;visibility:visible;display:inline;overflow:visible"
       inkscape:connector-curvature="0" />
    <path
       d="m 27.050024,29.000086 c 0,0 0,1.99989 0,1.99989 0.806614,0.0038 1.950002,-0.448074 1.950002,-1.000074 0,-0.552 -0.900122,-0.999816 -1.950002,-0.999816 z"
       id="path2883"
       style="opacity:0.15;fill:url(#radialGradient3045);fill-opacity:1;fill-rule:nonzero;stroke:none;stroke-width:1;marker:none;visibility:visible;display:inline;overflow:visible"
       inkscape:connector-curvature="0" />
  </g>
  <g
     id="layer1"
     transform="matrix(0.66285636,0,0,0.65915195,0.27224217,0.16901046)">
    <path
       d="m 6.3801479,0.49996093 c 7.9502031,0 34.6941601,0.002801 34.6941601,0.002801 l 4.2e-5,43.99727707 c 0,0 -23.129468,0 -34.6942021,0 0,-14.666693 0,-29.333386 0,-44.00007779 z"
       id="path4160"
       style="color:#000000;fill:url(#radialGradient3350-4);fill-opacity:1;fill-rule:nonzero;stroke:url(#linearGradient3352-5);stroke-width:1.51273739;stroke-linecap:butt;stroke-linejoin:round;stroke-miterlimit:4;stroke-opacity:1;stroke-dasharray:none;stroke-dashoffset:0;marker:none;visibility:visible;display:inline;overflow:visible;enable-background:accumulate"
       inkscape:connector-curvature="0" />
    <path
       d="m 39.565669,42.983092 -31.6768393,0 0,-40.9659688 31.6768393,0 z"
       id="rect6741-1"
       style="opacity:0.5;fill:none;stroke:url(#linearGradient3988);stroke-width:1.51285577;stroke-linecap:round;stroke-linejoin:round;stroke-miterlimit:4;stroke-opacity:1;stroke-dasharray:none;stroke-dashoffset:0"
       inkscape:connector-curvature="0" />
    <path
       d="m 33.425063,8.0879794 -24.0297281,0 M 10.904285,2.0195759 10.867425,42.980696 m 22.642916,2.73e-4 0.03686,-37.4520894 M 15.433924,2.0195759 15.397063,42.981243 m 4.559384,-40.9616671 0,40.9613931 M 24.490185,2.0195759 24.453325,42.981243 M 29.019071,2.0195759 28.982211,42.981243 m 10.420465,-30.341961 -30.0073361,0 m 30.0073361,4.551303 -30.0073361,0 m 30.0073361,4.551303 -30.0073366,0 m 30.0073366,4.551302 -30.0073366,0 m 30.0073366,4.551303 -30.0073366,0 m 30.0073366,4.551303 -30.0073366,0 m 30.0073366,4.551302 -30.0073366,0"
       id="path3318"
       style="opacity:0.2;fill:none;stroke:url(#radialGradient3338);stroke-width:1.45687997;stroke-linecap:square;stroke-linejoin:round;stroke-miterlimit:4;stroke-opacity:1;stroke-dasharray:none"
       inkscape:connector-curvature="0"
       sodipodi:nodetypes="cccccccccccccccccccccccccccc" />
    <path
       d="m 21.084883,39.946869 16.434193,4.82e-4"
       id="path3962"
       style="opacity:0.5;fill:none;stroke:#ffffff;stroke-width:1.51285577;stroke-linecap:square;stroke-linejoin:round;stroke-miterlimit:4;stroke-opacity:1;stroke-dasharray:none"
       inkscape:connector-curvature="0"
       sodipodi:nodetypes="cc" />
    <path
       d="m 36.55054,42.981233 0,-15.171273"
       id="path3960"
       style="opacity:0.5;fill:none;stroke:#ffffff;stroke-width:1.51285577;stroke-linecap:square;stroke-linejoin:round;stroke-miterlimit:4;stroke-opacity:1;stroke-dasharray:none"
       inkscape:connector-curvature="0"
       sodipodi:nodetypes="cc" />
    <path
       d="m 22.915426,5.0916695 -13.3390559,-0.037 m 1.3275879,-1.545631 0,20.0992065"
       id="path3554"
       style="opacity:0.5;fill:none;stroke:#ffffff;stroke-width:1.51285577;stroke-linecap:square;stroke-linejoin:round;stroke-miterlimit:4;stroke-opacity:1;stroke-dasharray:none"
       inkscape:connector-curvature="0"
       sodipodi:nodetypes="cccc" />
    <path
       d="m 15.377324,14.718475 c -1.032828,0.688228 -0.910746,2.495914 0.215755,3.030978 2.567502,0.933604 4.232753,-0.39153 4.83977,-2.850327 0.01672,-0.362351 0.152968,-0.894924 -0.385049,-0.728698 -1.611568,-0.07787 -3.147221,0.03314 -4.670476,0.548047 z m 6.907205,-1.22625 c 1e-6,1.900756 1e-6,3.80151 1e-6,5.702266 -0.612351,0 -1.224705,0 -1.837057,0 -0.03613,-0.421016 0.07306,-1.316662 -0.05602,-1.434147 -0.719226,1.048913 -1.973703,1.617612 -3.222811,1.672278 -3.349311,0.161591 -4.816105,-1.864622 -3.837759,-4.938824 1.878145,-1.94852 4.567212,-1.608963 7.068373,-1.609816 -0.107546,-3.2521453 -4.217983,-2.513105 -6.407251,-1.868783 -0.580436,0.388998 -0.247122,-0.560476 -0.333662,-0.894447 -0.200885,-0.7332749 0.780343,-0.6166614 1.243292,-0.8314933 1.686182,-0.4070141 3.529923,-0.525443 5.170586,0.1267954 1.718226,0.8416529 2.077913,2.3517249 2.212308,4.0761709 z"
       id="text34519"
       style="font-size:18.4205246px;font-style:normal;font-weight:normal;opacity:0.7;fill:#ffffff;fill-opacity:1;stroke:none;font-family:Bitstream Vera Sans"
       inkscape:connector-curvature="0" />
    <path
       d="m 13,25.534309 3.389701,0 0,1.490667 -3.389701,0 z m 4.569052,0 1.775649,0 0,1.490667 -1.775649,0 z m 3.113797,0 3.116814,0 0,1.490667 -3.116814,0 z m 4.530393,0 1.527404,0 0,1.490667 -1.527404,0 z m 2.890521,0 3.239012,0 0,1.490667 -3.239012,0 z M 13,22.500107 l 3.324438,0 0,1.561971 -3.324438,0 z m 4.235646,0 3.605608,0 0,1.561971 -3.605608,0 z m 4.969403,0 1.529743,0 0,1.561971 -1.529743,0 z m 2.290089,0 2.602373,0 0,1.561971 -2.602373,0 z m 3.815306,0 2.409,0 0,1.561971 -2.409,0 z m 3.929961,0 1.905391,0 0,1.561971 -1.905391,0 z M 13,30.085611 l 4.872285,0 0,1.517101 -4.872285,0 z m 6.101812,0 3.122849,0 0,1.517101 -3.122849,0 z m 9.142253,0 0.892942,0 0,1.517101 -0.892942,0 z m 1.519182,0 3.130392,0 0,1.517101 -3.130392,0 z m -6.093326,0 3.192373,0 0,1.517101 -3.192373,0 z M 13,33.119813 l 3.868703,0 0,1.517101 -3.868703,0 z m 4.79121,0 0.76599,0 0,1.517101 -0.76599,0 z m 1.689558,0 2.781317,0 0,1.517101 -2.781317,0 z m 3.80898,0 2.651875,0 0,1.517101 -2.651875,0 z m 2.971338,0 2.747329,0 0,1.517101 -2.747329,0 z m 3.958779,0 4.014939,0 0,1.517101 -4.014939,0 z M 13,36.154015 l 3.344051,0 0,1.517101 -3.344051,0 z m 9.195997,0 2.08471,0 0,1.517101 -2.08471,0 z m 6.141602,0 3.020262,0 0,1.517101 -3.020262,0 z m -2.935779,0 2.284438,0 0,1.517101 -2.284438,0 z m -7.802596,0 3.420048,0 0,1.517101 -3.420048,0 z"
       id="path3406"
       style="opacity:0.7;fill:#ffffff;fill-opacity:1;stroke:none;display:inline"
       inkscape:connector-curvature="0"
       sodipodi:nodetypes="ccccccccccccccccccccccccccccccccccccccccccccccccccccccccccccccccccccccccccccccccccccccccccccccccccccccccccccccccccccccccccccccccccccccc" />
    <path
       d="m 31.87381,17.190023 1.659485,0 m -7.543113,0 3.017246,0 m 1.508622,-3.034202 3.017245,0 m -7.543113,0 1.508623,0 m 1.961209,-3.034201 2.564658,0 m -6.03449,0 0.754312,0"
       id="path3342"
       style="opacity:0.7;fill:none;stroke:#ffffff;stroke-width:1.45687997;stroke-linecap:square;stroke-linejoin:round;stroke-miterlimit:4;stroke-opacity:1;stroke-dasharray:none"
       inkscape:connector-curvature="0"
       sodipodi:nodetypes="cccccccccccc" />
  </g>
</svg>
