<svg xmlns="http://www.w3.org/2000/svg" xmlns:xlink="http://www.w3.org/1999/xlink" viewBox="0 0 32 32"><defs><linearGradient id="b"><stop offset="0" stop-color="#fff"/><stop offset=".036" stop-color="#fff" stop-opacity=".235"/><stop offset=".951" stop-color="#fff" stop-opacity=".157"/><stop offset="1" stop-color="#fff" stop-opacity=".392"/></linearGradient><linearGradient id="c"><stop offset="0" stop-color="#f4f4f4"/><stop offset="1" stop-color="#dbdbdb"/></linearGradient><linearGradient id="d"><stop offset="0"/><stop offset="1" stop-opacity="0"/></linearGradient><linearGradient id="e"><stop offset="0" stop-opacity="0"/><stop offset=".5"/><stop offset="1" stop-opacity="0"/></linearGradient><linearGradient id="a"><stop offset="0" stop-opacity=".318"/><stop offset="1" stop-opacity=".24"/></linearGradient><linearGradient xlink:href="#a" id="k" gradientUnits="userSpaceOnUse" gradientTransform="matrix(.53064 0 0 .5897 39.27 -1.792)" x1="-51.786" y1="50.786" x2="-51.786" y2="2.906"/><linearGradient xlink:href="#b" id="j" gradientUnits="userSpaceOnUse" gradientTransform="matrix(.56757 0 0 .72973 2.378 -2.514)" x1="24" y1="5.564" x2="24" y2="43"/><linearGradient xlink:href="#c" id="i" gradientUnits="userSpaceOnUse" gradientTransform="matrix(.62857 0 0 .6084 .914 -.535)" x1="25.132" y1=".985" x2="25.132" y2="47.013"/><radialGradient xlink:href="#d" id="h" gradientUnits="userSpaceOnUse" gradientTransform="matrix(.01566 0 0 .00824 17.61 25.98)" cx="605.714" cy="486.648" fx="605.714" fy="486.648" r="117.143"/><radialGradient xlink:href="#d" id="g" gradientUnits="userSpaceOnUse" gradientTransform="matrix(-.01566 0 0 .00824 14.39 25.98)" cx="605.714" cy="486.648" fx="605.714" fy="486.648" r="117.143"/><linearGradient xlink:href="#e" id="f" gradientUnits="userSpaceOnUse" gradientTransform="matrix(.04577 0 0 .00824 -.542 25.98)" x1="302.857" y1="366.648" x2="302.857" y2="609.505"/></defs><path opacity=".15" fill="url(#f)" overflow="visible" d="M4.95 29h22.1v2H4.95z"/><path d="M4.95 29v2c-.807.004-1.95-.448-1.95-1s.9-1 1.95-1z" opacity=".15" fill="url(#g)" overflow="visible"/><path d="M27.05 29v2c.807.004 1.95-.448 1.95-1s-.9-1-1.95-1z" opacity=".15" fill="url(#h)" overflow="visible"/><path d="M5 1l22 .002V29H5V1z" fill="url(#i)"/><path d="M26.5 28.5h-21v-27h21z" fill="none" stroke="url(#j)" stroke-linecap="round" stroke-linejoin="round"/><path opacity=".6" color="#000" fill="#fff" fill-rule="evenodd" overflow="visible" d="M17.76 13H19l-3.76 8H14z"/><path d="M23.142 16.907l-2.94-3.68.98-1.227L25 16.907 21.08 22 20 20.88l3.142-3.973zm-14.284 0l2.94-3.68-.98-1.227L7 16.907 10.92 22 12 20.88l-3.142-3.973z" opacity=".6" fill="#fff"/><path d="M8.858 15.907l2.94-3.68-.98-1.227L7 15.907 10.92 21 12 19.88l-3.142-3.973z" opacity=".4" fill="#666"/><path opacity=".4" color="#000" fill-rule="evenodd" overflow="visible" d="M17.76 12H19l-3.76 8H14z"/><path d="M23.142 15.907l-2.94-3.68.98-1.227L25 15.907 21.08 21 20 19.88l3.142-3.973z" opacity=".4" fill="#666"/><path d="M4.5.5l23 .002V29.5h-23V.5z" fill="none" stroke="url(#k)" stroke-linejoin="round"/></svg>