<?xml version="1.0" encoding="UTF-8" standalone="no"?>
<svg
   xmlns:dc="http://purl.org/dc/elements/1.1/"
   xmlns:cc="http://creativecommons.org/ns#"
   xmlns:rdf="http://www.w3.org/1999/02/22-rdf-syntax-ns#"
   xmlns:svg="http://www.w3.org/2000/svg"
   xmlns="http://www.w3.org/2000/svg"
   xmlns:xlink="http://www.w3.org/1999/xlink"
   xmlns:sodipodi="http://sodipodi.sourceforge.net/DTD/sodipodi-0.dtd"
   xmlns:inkscape="http://www.inkscape.org/namespaces/inkscape"
   id="svg3182"
   height="32"
   width="32"
   version="1.1"
   inkscape:version="0.91 r13725"
   sodipodi:docname="text-x-markdown.svg">
  <sodipodi:namedview
     pagecolor="#ffffff"
     bordercolor="#666666"
     borderopacity="1"
     objecttolerance="10"
     gridtolerance="10"
     guidetolerance="10"
     inkscape:pageopacity="0"
     inkscape:pageshadow="2"
     inkscape:window-width="1920"
     inkscape:window-height="962"
     id="namedview40"
     showgrid="true"
     showguides="true"
     inkscape:guide-bbox="true"
     inkscape:zoom="11.313709"
     inkscape:cx="15.701811"
     inkscape:cy="15.458557"
     inkscape:window-x="0"
     inkscape:window-y="30"
     inkscape:window-maximized="1"
     inkscape:current-layer="svg3182">
    <sodipodi:guide
       position="58.372881,26.983051"
       orientation="0,1"
       id="guide3407" />
    <sodipodi:guide
       position="59.050847,6.0338983"
       orientation="0,1"
       id="guide3409" />
    <sodipodi:guide
       position="8,-7.5254237"
       orientation="1,0"
       id="guide3413" />
    <sodipodi:guide
       position="24.61017,-7.5932203"
       orientation="1,0"
       id="guide3415" />
    <inkscape:grid
       type="xygrid"
       id="grid4398" />
  </sodipodi:namedview>
  <defs
     id="defs3184">
    <linearGradient
       id="linearGradient3977">
      <stop
         offset="0"
         style="stop-color:#ffffff;stop-opacity:1"
         id="stop3979" />
      <stop
         offset="0"
         style="stop-color:#ffffff;stop-opacity:0.23529412"
         id="stop3981" />
      <stop
         offset="0.99999994"
         style="stop-color:#ffffff;stop-opacity:0.15686275"
         id="stop3983" />
      <stop
         offset="1"
         style="stop-color:#ffffff;stop-opacity:0.39215687"
         id="stop3985" />
    </linearGradient>
    <linearGradient
       id="linearGradient3600-4">
      <stop
         offset="0"
         style="stop-color:#f4f4f4;stop-opacity:1"
         id="stop3602-7" />
      <stop
         offset="1"
         style="stop-color:#dbdbdb;stop-opacity:1"
         id="stop3604-6" />
    </linearGradient>
    <linearGradient
       id="linearGradient5060">
      <stop
         offset="0"
         style="stop-color:#000000;stop-opacity:1"
         id="stop5062" />
      <stop
         offset="1"
         style="stop-color:#000000;stop-opacity:0"
         id="stop5064" />
    </linearGradient>
    <linearGradient
       id="linearGradient5048">
      <stop
         offset="0"
         style="stop-color:#000000;stop-opacity:0"
         id="stop5050" />
      <stop
         offset="0.5"
         style="stop-color:#000000;stop-opacity:1"
         id="stop5056" />
      <stop
         offset="1"
         style="stop-color:#000000;stop-opacity:0"
         id="stop5052" />
    </linearGradient>
    <linearGradient
       gradientTransform="matrix(0.56756757,0,0,0.72972971,2.378382,-2.5135063)"
       gradientUnits="userSpaceOnUse"
       xlink:href="#linearGradient3977"
       id="linearGradient3013"
       y2="41.814808"
       x2="23.99999"
       y1="6.1851754"
       x1="23.99999" />
    <linearGradient
       gradientTransform="matrix(0.62856997,0,0,0.60839392,0.91431981,-0.5347905)"
       gradientUnits="userSpaceOnUse"
       xlink:href="#linearGradient3600-4"
       id="linearGradient3016"
       y2="47.013336"
       x2="25.132275"
       y1="0.98520643"
       x1="25.132275" />
    <radialGradient
       gradientTransform="matrix(0.01566318,0,0,0.00823529,17.610433,25.980565)"
       gradientUnits="userSpaceOnUse"
       xlink:href="#linearGradient5060"
       id="radialGradient3021"
       fy="486.64789"
       fx="605.71429"
       r="117.14286"
       cy="486.64789"
       cx="605.71429" />
    <radialGradient
       gradientTransform="matrix(-0.01566318,0,0,0.00823529,14.389566,25.980565)"
       gradientUnits="userSpaceOnUse"
       xlink:href="#linearGradient5060"
       id="radialGradient3024"
       fy="486.64789"
       fx="605.71429"
       r="117.14286"
       cy="486.64789"
       cx="605.71429" />
    <linearGradient
       gradientTransform="matrix(0.04576928,0,0,0.00823529,-0.5423243,25.980548)"
       gradientUnits="userSpaceOnUse"
       xlink:href="#linearGradient5048"
       id="linearGradient3027"
       y2="609.50507"
       x2="302.85715"
       y1="366.64789"
       x1="302.85715" />
    <linearGradient
       id="linearGradient3104-6">
      <stop
         id="stop3106-3"
         style="stop-color:#000000;stop-opacity:0.31782946"
         offset="0" />
      <stop
         id="stop3108-9"
         style="stop-color:#000000;stop-opacity:0.24031007"
         offset="1" />
    </linearGradient>
    <linearGradient
       y2="2.9062471"
       x2="-51.786404"
       y1="50.786446"
       x1="-51.786404"
       gradientTransform="matrix(0.53064141,0,0,0.58970049,39.269607,-1.791918)"
       gradientUnits="userSpaceOnUse"
       id="linearGradient3148"
       xlink:href="#linearGradient3104-6" />
    <linearGradient
       x1="22.004084"
       y1="47.813133"
       x2="22.004084"
       y2="3.3638515"
       id="linearGradient3084"
       xlink:href="#linearGradient3104-5"
       gradientUnits="userSpaceOnUse"
       gradientTransform="matrix(0.66858377,0,0,0.67036989,-0.67961917,-2.3082683)" />
    <linearGradient
       id="linearGradient3104-5">
      <stop
         id="stop3106-2"
         style="stop-color:#aaaaaa;stop-opacity:1"
         offset="0" />
      <stop
         id="stop3108-5"
         style="stop-color:#c8c8c8;stop-opacity:1"
         offset="1" />
    </linearGradient>
    <linearGradient
       id="linearGradient2867-449-88-871-390-598-476-591-434-148-57-177-8-3-3">
      <stop
         offset="0"
         style="stop-color:#ffcd7d;stop-opacity:1"
         id="stop3750-1-0-7" />
      <stop
         offset="0.26238"
         style="stop-color:#fc8f36;stop-opacity:1"
         id="stop3752-3-7-4" />
      <stop
         offset="0.704952"
         style="stop-color:#e23a0e;stop-opacity:1"
         id="stop3754-1-8-5" />
      <stop
         offset="1"
         style="stop-color:#ac441f;stop-opacity:1"
         id="stop3756-1-6-2" />
    </linearGradient>
  </defs>
  <metadata
     id="metadata3187">
    <rdf:RDF>
      <cc:Work
         rdf:about="">
        <dc:format>image/svg+xml</dc:format>
        <dc:type
           rdf:resource="http://purl.org/dc/dcmitype/StillImage" />
        <dc:title />
      </cc:Work>
    </rdf:RDF>
  </metadata>
  <rect
     style="opacity:0.15;fill:url(#linearGradient3027);fill-opacity:1;fill-rule:nonzero;stroke:none;stroke-width:1;marker:none;visibility:visible;display:inline;overflow:visible"
     id="rect2879"
     y="29"
     x="4.9499893"
     height="2"
     width="22.100021" />
  <path
     style="opacity:0.15;fill:url(#radialGradient3024);fill-opacity:1;fill-rule:nonzero;stroke:none;stroke-width:1;marker:none;visibility:visible;display:inline;overflow:visible"
     id="path2881"
     d="m 4.9499887,29.000086 c 0,0 0,1.99989 0,1.99989 -0.806615,0.0038 -1.950002,-0.448074 -1.950002,-1.000074 0,-0.552 0.900121,-0.999816 1.950002,-0.999816 z" />
  <path
     style="opacity:0.15;fill:url(#radialGradient3021);fill-opacity:1;fill-rule:nonzero;stroke:none;stroke-width:1;marker:none;visibility:visible;display:inline;overflow:visible"
     id="path2883"
     d="m 27.050011,29.000086 c 0,0 0,1.99989 0,1.99989 0.806614,0.0038 1.950002,-0.448074 1.950002,-1.000074 0,-0.552 -0.900122,-0.999816 -1.950002,-0.999816 z" />
  <path
     style="fill:url(#linearGradient3016);fill-opacity:1;stroke:none;display:inline"
     id="path4160-3"
     d="m 5,1 c 5.041316,0 21.999973,0.00179 21.999973,0.00179 L 27,29 C 27,29 12.333334,29 5,29 5,19.666667 5,10.333336 5,1.0000041 z" />
  <path
     style="fill:none;stroke:url(#linearGradient3013);stroke-width:1;stroke-linecap:round;stroke-linejoin:miter;stroke-miterlimit:4;stroke-opacity:1;stroke-dasharray:none;stroke-dashoffset:0"
     id="rect6741-1"
     d="m 26.5,28.5 -21,0 0,-27 21,0 z" />
  <path
     d="m 4.499961,0.499944 c 5.27048,0 23.000054,0.002 23.000054,0.002 l 2.4e-5,28.998112 c 0,0 -15.333385,0 -23.000078,0 0,-9.666722 0,-19.333346 0,-28.999956 z"
     id="path4160-6-1"
     style="fill:none;stroke:url(#linearGradient3148);stroke-width:0.9999218;stroke-linecap:butt;stroke-linejoin:round;stroke-miterlimit:4;stroke-opacity:1;stroke-dasharray:none;stroke-dashoffset:0;display:inline" />
  <path
     style="fill:none;stroke:url(#linearGradient3084);stroke-width:0.99999994px;stroke-linecap:butt;stroke-linejoin:miter;stroke-opacity:1"
     d="m 7.9999008,5.5677966 1.566406,0 -1.566406,0 z m 1.796875,0 1.4628912,0 -1.4628912,0 z m 1.6933592,0 1.294922,0 -1.294922,0 z m 1.503906,0 0.564454,0 -0.564454,0 z m 0.792969,0 1.253907,0 -1.253907,0 z m 1.503907,0 3.302734,0 -3.302734,0 z m 3.511718,0 2.527344,0 -2.527344,0 z m 2.736328,0 0.773438,0 -0.773438,0 z m -13.5390622,1.921875 2.0683592,0 -2.0683592,0 z m 2.2773442,0 3.384765,0 -3.384765,0 z m 3.59375,0 1.65039,0 -1.65039,0 z m 1.859375,0 1.546875,0 -1.546875,0 z m 1.755859,0 1.316406,0 -1.316406,0 z m 1.525391,0 2.068359,0.021484 -2.068359,-0.021484 z m 2.255859,0.021484 3.363281,0 -3.363281,0 z m -13.2675782,1.9882812 2.8632812,0 -2.8632812,0 z m 3.0917972,0 3.091797,0 -3.091797,0 z m 3.300781,0 1.234375,0 -1.234375,0 z m 1.443359,0 2.902344,0 -2.902344,0 z m 3.091797,0 1.984375,0 -1.984375,0 z m 2.214844,0 0.792969,0 -0.792969,0 z m 1.001953,0 0.439453,0 -0.439453,0 z m 0.667969,0 1.234375,0 -1.234375,0 z M 7.9999008,23.499438 l 2.5917972,0 -2.5917972,0 z m 2.8203122,0 0.814454,0 -0.814454,0 z m 1.023438,0 1.859375,0 -1.859375,0 z m 2.068359,0 2.738281,0 -2.738281,0 z m 2.966797,0 1.859375,0 -1.859375,0 z m 2.048828,0 0.396485,0 -0.396485,0 z m 0.605469,0 2.361328,0 -2.361328,0 z m 2.611328,0 1.232422,0 -1.232422,0 z m -14.1445312,2 2.5917972,0 -2.5917972,0 z m 2.8203122,0 1.169922,0 -1.169922,0 z m 1.378907,0 1.839843,0 -1.839843,0 z m 2.048828,0 1.984375,0 -1.984375,0 z m 2.21289,0 0.794922,0 -0.794922,0 z m 1.003907,0 0.439453,0 -0.439453,0 z m 0.667968,0 1.232422,0 -1.232422,0 z"
     id="path3475"
     inkscape:connector-curvature="0" />
  <rect
     style="fill:none;stroke:#1a1a1a;stroke-width:0.66241109"
     width="12.303691"
     height="8.3323383"
     x="9.3481512"
     y="12.335142"
     ry="0.7061305"
     id="rect4381" />
  <path
     inkscape:connector-curvature="0"
     style="fill:#1a1a1a"
     d="m 11.002758,18.991425 0,-3.9931 1.249005,0 1.249004,1.468052 1.249005,-1.468052 1.249005,0 0,3.9931 -1.249005,0 0,-2.29016 -1.249005,1.468051 -1.249004,-1.468051 0,2.29016 z"
     id="path4383" />
  <path
     inkscape:connector-curvature="0"
     style="fill:#1a1a1a"
     d="m 18.506789,19.003144 -1.511202,-1.939724 1.007469,0 0,-2.057282 1.007468,0 0,2.057282 1.007467,0 z"
     id="path4385" />
</svg>
