<?xml version="1.0" encoding="UTF-8" standalone="no"?>
<!-- Created with Inkscape (http://www.inkscape.org/) -->

<svg
   xmlns:dc="http://purl.org/dc/elements/1.1/"
   xmlns:cc="http://creativecommons.org/ns#"
   xmlns:rdf="http://www.w3.org/1999/02/22-rdf-syntax-ns#"
   xmlns:svg="http://www.w3.org/2000/svg"
   xmlns="http://www.w3.org/2000/svg"
   xmlns:xlink="http://www.w3.org/1999/xlink"
   xmlns:sodipodi="http://sodipodi.sourceforge.net/DTD/sodipodi-0.dtd"
   xmlns:inkscape="http://www.inkscape.org/namespaces/inkscape"
   width="32"
   height="32"
   id="svg3231"
   version="1.1"
   inkscape:version="0.48.3.1 r9886"
   sodipodi:docname="video-x-generic.svg"
   inkscape:export-filename="/home/daniel/Projects/4.0/WIP/mimes/video-x-generic/48/video-x-generic.png"
   inkscape:export-xdpi="90"
   inkscape:export-ydpi="90">
  <defs
     id="defs3233">
    <linearGradient
       inkscape:collect="always"
       xlink:href="#linearGradient8265-821-176-38-919-66-249-7-7-7"
       id="linearGradient3182"
       gradientUnits="userSpaceOnUse"
       gradientTransform="matrix(0.56747019,0,0,0.88406789,1.5243615,13.618895)"
       x1="16.626165"
       y1="15.298182"
       x2="20.054544"
       y2="24.627615" />
    <linearGradient
       id="linearGradient8265-821-176-38-919-66-249-7-7-7">
      <stop
         id="stop2687-1-9-8"
         style="stop-color:#ffffff;stop-opacity:1"
         offset="0" />
      <stop
         id="stop2689-5-4-6"
         style="stop-color:#ffffff;stop-opacity:0"
         offset="1" />
    </linearGradient>
    <linearGradient
       inkscape:collect="always"
       xlink:href="#linearGradient3707-319-631-407-324-616-674-812-821-107-178-392-400-7-3-5"
       id="linearGradient5104-88"
       gradientUnits="userSpaceOnUse"
       gradientTransform="matrix(0.26285426,0,0,0.28815907,-20.51067,67.049239)"
       x1="149.98465"
       y1="-104.23534"
       x2="149.98465"
       y2="-174.9679" />
    <linearGradient
       id="linearGradient3707-319-631-407-324-616-674-812-821-107-178-392-400-7-3-5">
      <stop
         id="stop5440-9-8-4"
         style="stop-color:#272727;stop-opacity:1;"
         offset="0" />
      <stop
         id="stop5442-0-9-2"
         style="stop-color:#454545;stop-opacity:1;"
         offset="1" />
    </linearGradient>
    <linearGradient
       inkscape:collect="always"
       xlink:href="#linearGradient4640"
       id="linearGradient3185"
       gradientUnits="userSpaceOnUse"
       gradientTransform="matrix(0.69131782,0,0,0.67940752,-1.4214258,15.271847)"
       x1="23.99999"
       y1="4.999989"
       x2="23.99999"
       y2="43" />
    <linearGradient
       id="linearGradient4640">
      <stop
         id="stop4642"
         style="stop-color:#ffffff;stop-opacity:1;"
         offset="0" />
      <stop
         offset="0.0310698"
         style="stop-color:#ffffff;stop-opacity:0.23529412;"
         id="stop4644" />
      <stop
         id="stop4646"
         style="stop-color:#ffffff;stop-opacity:0.15686275;"
         offset="0.97119564" />
      <stop
         id="stop4648"
         style="stop-color:#ffffff;stop-opacity:0.39215687;"
         offset="1" />
    </linearGradient>
    <linearGradient
       id="linearGradient2867-449-88-871-390-598-476-591-434-148-57-177-641-289-620-227-114-444-680-744-921-551">
      <stop
         id="stop4445"
         style="stop-color:#4d4d4d;stop-opacity:1;"
         offset="0" />
      <stop
         id="stop4447"
         style="stop-color:#404040;stop-opacity:1;"
         offset="0.26238" />
      <stop
         id="stop4449"
         style="stop-color:#303030;stop-opacity:1;"
         offset="0.704952" />
      <stop
         id="stop4451"
         style="stop-color:#232323;stop-opacity:1;"
         offset="1" />
    </linearGradient>
    <linearGradient
       id="linearGradient3707-319-631-407-324-616-674-812-821-107-178-392-400-671-944">
      <stop
         id="stop4455"
         style="stop-color:#202020;stop-opacity:1;"
         offset="0" />
      <stop
         id="stop4457"
         style="stop-color:#383838;stop-opacity:1;"
         offset="1" />
    </linearGradient>
    <linearGradient
       id="linearGradient3688-166-749-2-324">
      <stop
         offset="0"
         style="stop-color:#181818;stop-opacity:1"
         id="stop3216" />
      <stop
         offset="1"
         style="stop-color:#181818;stop-opacity:0"
         id="stop3218" />
    </linearGradient>
    <linearGradient
       id="linearGradient3688-464-309-8-331">
      <stop
         offset="0"
         style="stop-color:#181818;stop-opacity:1"
         id="stop3222" />
      <stop
         offset="1"
         style="stop-color:#181818;stop-opacity:0"
         id="stop3224" />
    </linearGradient>
    <linearGradient
       id="linearGradient3702-501-757-6-946">
      <stop
         offset="0"
         style="stop-color:#181818;stop-opacity:0"
         id="stop3228" />
      <stop
         offset="0.5"
         style="stop-color:#181818;stop-opacity:1"
         id="stop3230" />
      <stop
         offset="1"
         style="stop-color:#181818;stop-opacity:0"
         id="stop3232" />
    </linearGradient>
    <filter
       inkscape:collect="always"
       id="filter3822"
       x="-0.056498387"
       width="1.1129968"
       y="-0.67798069"
       height="2.3559614">
      <feGaussianBlur
         inkscape:collect="always"
         stdDeviation="1.1299679"
         id="feGaussianBlur3824" />
    </filter>
    <radialGradient
       inkscape:collect="always"
       xlink:href="#linearGradient2867-449-88-871-390-598-476-591-434-148-57-177-641-289-620-227-114-444-680-744-921-551-4"
       id="radialGradient4135-6"
       gradientUnits="userSpaceOnUse"
       gradientTransform="matrix(1.3364048e-8,1.5877685,-1.7005643,-2.9252755e-8,29.539645,-9.176456)"
       cx="7.4956832"
       cy="8.4497671"
       fx="7.4956832"
       fy="8.4497671"
       r="19.99999" />
    <linearGradient
       id="linearGradient2867-449-88-871-390-598-476-591-434-148-57-177-641-289-620-227-114-444-680-744-921-551-4">
      <stop
         id="stop4445-7"
         style="stop-color:#4d4d4d;stop-opacity:1;"
         offset="0" />
      <stop
         id="stop4447-0"
         style="stop-color:#404040;stop-opacity:1;"
         offset="0.26238" />
      <stop
         id="stop4449-5"
         style="stop-color:#303030;stop-opacity:1;"
         offset="0.704952" />
      <stop
         id="stop4451-8"
         style="stop-color:#232323;stop-opacity:1;"
         offset="1" />
    </linearGradient>
    <linearGradient
       inkscape:collect="always"
       xlink:href="#linearGradient3707-319-631-407-324-616-674-812-821-107-178-392-400-671-944-1"
       id="linearGradient4137-9"
       gradientUnits="userSpaceOnUse"
       gradientTransform="matrix(0.68785908,0,0,0.6794075,-1.3384192,-0.728158)"
       x1="24"
       y1="44"
       x2="24"
       y2="3.8990016" />
    <linearGradient
       id="linearGradient3707-319-631-407-324-616-674-812-821-107-178-392-400-671-944-1">
      <stop
         id="stop4455-8"
         style="stop-color:#202020;stop-opacity:1;"
         offset="0" />
      <stop
         id="stop4457-4"
         style="stop-color:#383838;stop-opacity:1;"
         offset="1" />
    </linearGradient>
    <radialGradient
       inkscape:collect="always"
       xlink:href="#linearGradient2867-449-88-871-390-598-476-591-434-148-57-177-641-289-620-227-114-444-680-744-921-551"
       id="radialGradient4198"
       gradientUnits="userSpaceOnUse"
       gradientTransform="matrix(1.3364048e-8,1.5877685,-1.7005643,-2.9252755e-8,30.027145,-9.176456)"
       cx="7.4956832"
       cy="8.4497671"
       fx="7.4956832"
       fy="8.4497671"
       r="19.99999" />
    <linearGradient
       inkscape:collect="always"
       xlink:href="#linearGradient3707-319-631-407-324-616-674-812-821-107-178-392-400-671-944"
       id="linearGradient4200"
       gradientUnits="userSpaceOnUse"
       gradientTransform="matrix(0.68785908,0,0,0.6794075,-0.85091897,-0.728158)"
       x1="24"
       y1="44"
       x2="24"
       y2="3.8990016" />
  </defs>
  <sodipodi:namedview
     id="base"
     pagecolor="#ffffff"
     bordercolor="#666666"
     borderopacity="1.0"
     inkscape:pageopacity="0.0"
     inkscape:pageshadow="2"
     inkscape:zoom="16.469695"
     inkscape:cx="11.707402"
     inkscape:cy="4.5339214"
     inkscape:current-layer="layer1"
     showgrid="true"
     inkscape:grid-bbox="true"
     inkscape:document-units="px"
     inkscape:window-width="1920"
     inkscape:window-height="1152"
     inkscape:window-x="0"
     inkscape:window-y="24"
     inkscape:window-maximized="1">
    <inkscape:grid
       type="xygrid"
       id="grid4233"
       empspacing="5"
       visible="true"
       enabled="true"
       snapvisiblegridlinesonly="true" />
  </sodipodi:namedview>
  <metadata
     id="metadata3236">
    <rdf:RDF>
      <cc:Work
         rdf:about="">
        <dc:format>image/svg+xml</dc:format>
        <dc:type
           rdf:resource="http://purl.org/dc/dcmitype/StillImage" />
        <dc:title />
      </cc:Work>
    </rdf:RDF>
  </metadata>
  <g
     id="layer1"
     inkscape:label="Layer 1"
     inkscape:groupmode="layer"
     transform="translate(0,-16)">
    <g
       id="g3211"
       transform="matrix(0.60338528,0,0,0.51082252,1.0363396,23.360692)"
       style="opacity:0.2;fill:#000000;fill-opacity:1;filter:url(#filter3822)">
      <rect
         style="opacity:0.40000000000000002;fill:#000000;fill-opacity:1;stroke:none"
         id="rect2801-4"
         y="42"
         x="43"
         height="4"
         width="5" />
      <rect
         style="opacity:0.40000000000000002;fill:#000000;fill-opacity:1;stroke:none"
         id="rect3696-8"
         transform="scale(-1,-1)"
         y="-46"
         x="-4.9999914"
         height="4"
         width="5" />
      <rect
         style="opacity:0.40000000000000002;fill:#000000;fill-opacity:1;stroke:none"
         id="rect3700-7"
         y="42"
         x="5"
         height="4.0000005"
         width="38" />
    </g>
    <g
       id="g4060"
       transform="translate(-0.48750003,0)">
      <path
         style="color:#000000;fill:url(#radialGradient4198);fill-opacity:1;fill-rule:nonzero;stroke:url(#linearGradient4200);stroke-width:0.99999994;stroke-linecap:round;stroke-linejoin:round;stroke-miterlimit:4;stroke-opacity:1;stroke-dasharray:none;stroke-dashoffset:0;marker:none;visibility:visible;display:inline;overflow:visible;enable-background:accumulate"
         d="m 3.6125,2.5 c -0.347861,0 -0.625,0.303961 -0.625,0.6875 l 0,25.625 c 0,0.383539 0.277139,0.6875 0.625,0.6875 l 24.775,0 c 0.34786,0 0.625,-0.303961 0.625,-0.6875 l 0,-25.625 C 29.0125,2.803961 28.73536,2.5 28.3875,2.5 z m 1.875,2 1,0 c 0.277,0 0.5,0.223 0.5,0.5 l 0,2 c 0,0.277 -0.223,0.5 -0.5,0.5 l -1,0 c -0.277,0 -0.5,-0.223 -0.5,-0.5 l 0,-2 c 0,-0.277 0.223,-0.5 0.5,-0.5 z m 4,0 1,0 c 0.277,0 0.5,0.223 0.5,0.5 l 0,2 c 0,0.277 -0.223,0.5 -0.5,0.5 l -1,0 c -0.277,0 -0.5,-0.223 -0.5,-0.5 l 0,-2 c 0,-0.277 0.223,-0.5 0.5,-0.5 z m 4,0 1,0 c 0.277,0 0.5,0.223 0.5,0.5 l 0,2 c 0,0.277 -0.223,0.5 -0.5,0.5 l -1,0 c -0.277,0 -0.5,-0.223 -0.5,-0.5 l 0,-2 c 0,-0.277 0.223,-0.5 0.5,-0.5 z m 4,0 1,0 c 0.277,0 0.5,0.223 0.5,0.5 l 0,2 c 0,0.277 -0.223,0.5 -0.5,0.5 l -1,0 c -0.277,0 -0.5,-0.223 -0.5,-0.5 l 0,-2 c 0,-0.277 0.223,-0.5 0.5,-0.5 z m 4,0 1,0 c 0.277,0 0.5,0.223 0.5,0.5 l 0,2 c 0,0.277 -0.223,0.5 -0.5,0.5 l -1,0 c -0.277,0 -0.5,-0.223 -0.5,-0.5 l 0,-2 c 0,-0.277 0.223,-0.5 0.5,-0.5 z m 4,0 1,0 c 0.277,0 0.5,0.223 0.5,0.5 l 0,2 c 0,0.277 -0.223,0.5 -0.5,0.5 l -1,0 c -0.277,0 -0.5,-0.223 -0.5,-0.5 l 0,-2 c 0,-0.277 0.223,-0.5 0.5,-0.5 z m -20,20 1,0 c 0.277,0 0.5,0.223 0.5,0.5 l 0,2 c 0,0.277 -0.223,0.5 -0.5,0.5 l -1,0 c -0.277,0 -0.5,-0.223 -0.5,-0.5 l 0,-2 c 0,-0.277 0.223,-0.5 0.5,-0.5 z m 4,0 1,0 c 0.277,0 0.5,0.223 0.5,0.5 l 0,2 c 0,0.277 -0.223,0.5 -0.5,0.5 l -1,0 c -0.277,0 -0.5,-0.223 -0.5,-0.5 l 0,-2 c 0,-0.277 0.223,-0.5 0.5,-0.5 z m 4,0 1,0 c 0.277,0 0.5,0.223 0.5,0.5 l 0,2 c 0,0.277 -0.223,0.5 -0.5,0.5 l -1,0 c -0.277,0 -0.5,-0.223 -0.5,-0.5 l 0,-2 c 0,-0.277 0.223,-0.5 0.5,-0.5 z m 4,0 1,0 c 0.277,0 0.5,0.223 0.5,0.5 l 0,2 c 0,0.277 -0.223,0.5 -0.5,0.5 l -1,0 c -0.277,0 -0.5,-0.223 -0.5,-0.5 l 0,-2 c 0,-0.277 0.223,-0.5 0.5,-0.5 z m 4,0 1,0 c 0.277,0 0.5,0.223 0.5,0.5 l 0,2 c 0,0.277 -0.223,0.5 -0.5,0.5 l -1,0 c -0.277,0 -0.5,-0.223 -0.5,-0.5 l 0,-2 c 0,-0.277 0.223,-0.5 0.5,-0.5 z m 4,0 1,0 c 0.277,0 0.5,0.223 0.5,0.5 l 0,2 c 0,0.277 -0.223,0.5 -0.5,0.5 l -1,0 c -0.277,0 -0.5,-0.223 -0.5,-0.5 l 0,-2 c 0,-0.277 0.223,-0.5 0.5,-0.5 z"
         id="rect5505-21"
         inkscape:connector-curvature="0"
         transform="translate(0,16)"
         sodipodi:nodetypes="sssssssssssssssssssssssssssssssssssssssssssssssssssssssssssssssssssssssssssssssssssssssssssssssssssssssssssssssssssss" />
      <g
         transform="translate(30.5,1)"
         id="g4031">
        <g
           id="g4009"
           transform="translate(-1,2)" />
        <g
           transform="translate(-1,22)"
           id="g4017" />
      </g>
    </g>
    <rect
       style="opacity:0.5;fill:none;stroke:url(#linearGradient3185);stroke-width:1;stroke-linecap:round;stroke-linejoin:round;stroke-miterlimit:4;stroke-opacity:1;stroke-dasharray:none;stroke-dashoffset:0"
       id="rect6741-1-4"
       y="19.5"
       x="3.5"
       height="25"
       width="24" />
    <path
       inkscape:connector-curvature="0"
       id="path5201-7"
       style="color:#000000;fill:url(#linearGradient5104-88);fill-opacity:1;fill-rule:nonzero;stroke:none;stroke-width:1;marker:none;visibility:visible;display:inline;overflow:visible;enable-background:accumulate"
       d="m 14,28.454544 0,5.09091 L 18.681817,31 z M 15.5,24 c -3.865994,0 -7,3.134006 -7,7 0,3.865992 3.134007,7 7,7 3.865991,0 7,-3.134008 7,-7 0,-3.865994 -3.134008,-7 -7,-7 z m 0,1.272727 c 3.163085,0 5.727271,2.564186 5.727271,5.727273 0,3.163084 -2.564186,5.727272 -5.727271,5.727272 -3.163086,0 -5.7272725,-2.564188 -5.7272725,-5.727272 0,-3.163087 2.5641865,-5.727273 5.7272725,-5.727273 z"
       sodipodi:nodetypes="ccccssssssssss" />
    <path
       inkscape:connector-curvature="0"
       id="path5201"
       style="color:#000000;fill:#d2d2d2;fill-opacity:1;fill-rule:nonzero;stroke:none;stroke-width:0.91666669;marker:none;visibility:visible;display:inline;overflow:visible;enable-background:accumulate"
       d="m 14,29.454546 0,5.09091 L 18.681818,32 z M 15.5,25 c -3.865994,0 -7,3.134008 -7,7 0,3.865993 3.134007,7 7,7 3.865992,0 7,-3.134007 7,-7 0,-3.865992 -3.134007,-7 -7,-7 z m 0,1.272728 c 3.163086,0 5.727272,2.564188 5.727272,5.727272 0,3.163087 -2.564186,5.727273 -5.727272,5.727273 -3.163086,0 -5.7272722,-2.564186 -5.7272722,-5.727273 0,-3.163084 2.5641862,-5.727272 5.7272722,-5.727272 z"
       sodipodi:nodetypes="ccccssssssssss" />
    <path
       sodipodi:nodetypes="ccccc"
       d="m 3,19 0.0084,16 c 0.719186,-0.01611 24.445755,-5.897938 24.991634,-6.180861 l 0,-9.819139 c 0,0 -16.688604,0.01579 -24.999952,0 z"
       id="path3333-3"
       style="opacity:0.2;fill:url(#linearGradient3182);fill-opacity:1;fill-rule:evenodd;stroke:none"
       inkscape:connector-curvature="0" />
  </g>
</svg>
