<?xml version="1.0" encoding="UTF-8" standalone="no"?>
<svg
   xmlns:dc="http://purl.org/dc/elements/1.1/"
   xmlns:cc="http://creativecommons.org/ns#"
   xmlns:rdf="http://www.w3.org/1999/02/22-rdf-syntax-ns#"
   xmlns:svg="http://www.w3.org/2000/svg"
   xmlns="http://www.w3.org/2000/svg"
   xmlns:xlink="http://www.w3.org/1999/xlink"
   id="svg3182"
   height="32"
   width="32"
   version="1.1">
  <defs
     id="defs3184">
    <linearGradient
       gradientTransform="matrix(0.56756757,0,0,0.72972971,2.378382,-2.5135063)"
       gradientUnits="userSpaceOnUse"
       xlink:href="#linearGradient3977"
       id="linearGradient3119"
       y2="43"
       x2="23.99999"
       y1="5.5641499"
       x1="23.99999" />
    <linearGradient
       id="linearGradient3977">
      <stop
         offset="0"
         style="stop-color:#ffffff;stop-opacity:1"
         id="stop3979" />
      <stop
         offset="0.03626217"
         style="stop-color:#ffffff;stop-opacity:0.23529412"
         id="stop3981" />
      <stop
         offset="0.95056331"
         style="stop-color:#ffffff;stop-opacity:0.15686275"
         id="stop3983" />
      <stop
         offset="1"
         style="stop-color:#ffffff;stop-opacity:0.39215687"
         id="stop3985" />
    </linearGradient>
    <linearGradient
       gradientTransform="matrix(0.65714319,0,0,0.63012397,0.228556,-1.0896478)"
       gradientUnits="userSpaceOnUse"
       xlink:href="#linearGradient3600-4"
       id="linearGradient3122"
       y2="47.013336"
       x2="25.132275"
       y1="0.98520643"
       x1="25.132275" />
    <linearGradient
       id="linearGradient3600-4">
      <stop
         offset="0"
         style="stop-color:#f4f4f4;stop-opacity:1"
         id="stop3602-7" />
      <stop
         offset="1"
         style="stop-color:#dbdbdb;stop-opacity:1"
         id="stop3604-6" />
    </linearGradient>
    <linearGradient
       gradientTransform="matrix(0.53064102,0,0,0.58970216,39.269585,-1.7919079)"
       gradientUnits="userSpaceOnUse"
       xlink:href="#linearGradient3104-5"
       id="linearGradient3124"
       y2="2.9062471"
       x2="-51.786404"
       y1="50.786446"
       x1="-51.786404" />
    <linearGradient
       id="linearGradient3104-5">
      <stop
         offset="0"
         style="stop-color:#a0a0a0;stop-opacity:1"
         id="stop3106-6" />
      <stop
         offset="1"
         style="stop-color:#bebebe;stop-opacity:1"
         id="stop3108-9" />
    </linearGradient>
    <radialGradient
       gradientTransform="matrix(0.01566318,0,0,0.00823529,17.610433,25.980565)"
       gradientUnits="userSpaceOnUse"
       xlink:href="#linearGradient5060"
       id="radialGradient3045"
       fy="486.64789"
       fx="605.71429"
       r="117.14286"
       cy="486.64789"
       cx="605.71429" />
    <linearGradient
       id="linearGradient5060">
      <stop
         offset="0"
         style="stop-color:#000000;stop-opacity:1"
         id="stop5062" />
      <stop
         offset="1"
         style="stop-color:#000000;stop-opacity:0"
         id="stop5064" />
    </linearGradient>
    <radialGradient
       gradientTransform="matrix(-0.01566318,0,0,0.00823529,14.389566,25.980565)"
       gradientUnits="userSpaceOnUse"
       xlink:href="#linearGradient5060"
       id="radialGradient3048"
       fy="486.64789"
       fx="605.71429"
       r="117.14286"
       cy="486.64789"
       cx="605.71429" />
    <linearGradient
       id="linearGradient5048">
      <stop
         offset="0"
         style="stop-color:#000000;stop-opacity:0"
         id="stop5050" />
      <stop
         offset="0.5"
         style="stop-color:#000000;stop-opacity:1"
         id="stop5056" />
      <stop
         offset="1"
         style="stop-color:#000000;stop-opacity:0"
         id="stop5052" />
    </linearGradient>
    <linearGradient
       gradientTransform="matrix(0.04576928,0,0,0.00823529,-0.5423243,25.980548)"
       gradientUnits="userSpaceOnUse"
       xlink:href="#linearGradient5048"
       id="linearGradient3180"
       y2="609.50507"
       x2="302.85715"
       y1="366.64789"
       x1="302.85715" />
    <linearGradient
       id="linearGradient3104">
      <stop
         offset="0"
         style="stop-color:#aaaaaa;stop-opacity:1"
         id="stop3106" />
      <stop
         offset="1"
         style="stop-color:#c8c8c8;stop-opacity:1"
         id="stop3108" />
    </linearGradient>
    <linearGradient
       id="linearGradient3707-319-631-407-324-3">
      <stop
         offset="0"
         style="stop-color:#185f9a;stop-opacity:1"
         id="stop3760-4" />
      <stop
         offset="1"
         style="stop-color:#599ec9;stop-opacity:1"
         id="stop3762-0" />
    </linearGradient>
    <linearGradient
       id="linearGradient2867-449-88-871-390-598-476-591-434-148-57-177-8">
      <stop
         offset="0"
         style="stop-color:#90dbec;stop-opacity:1"
         id="stop3750-1" />
      <stop
         offset="0.26238"
         style="stop-color:#55c1ec;stop-opacity:1"
         id="stop3752-3" />
      <stop
         offset="0.704952"
         style="stop-color:#3689e6;stop-opacity:1"
         id="stop3754-1" />
      <stop
         offset="1"
         style="stop-color:#2b63a0;stop-opacity:1"
         id="stop3756-1" />
    </linearGradient>
    <linearGradient
       id="linearGradient3977-6">
      <stop
         offset="0"
         style="stop-color:#ffffff;stop-opacity:1"
         id="stop3979-9" />
      <stop
         offset="0.03626217"
         style="stop-color:#ffffff;stop-opacity:0.23529412"
         id="stop3981-3" />
      <stop
         offset="0.95056331"
         style="stop-color:#ffffff;stop-opacity:0.15686275"
         id="stop3983-7" />
      <stop
         offset="1"
         style="stop-color:#ffffff;stop-opacity:0.39215687"
         id="stop3985-4" />
    </linearGradient>
    <linearGradient
       gradientTransform="matrix(0.66891894,0,0,0.72972973,1.8209495,-2.513506)"
       gradientUnits="userSpaceOnUse"
       xlink:href="#linearGradient3977-6"
       id="linearGradient3128"
       y2="43"
       x2="23.99999"
       y1="5.5641499"
       x1="23.99999" />
    <radialGradient
       gradientTransform="matrix(-1.1778817e-7,4.3521887,-5.895642,-1.3064099e-7,75.941947,-39.43508)"
       gradientUnits="userSpaceOnUse"
       xlink:href="#linearGradient2867-449-88-871-390-598-476-591-434-148-57-177-8"
       id="radialGradient3134"
       fy="9.9571075"
       fx="7.2758255"
       r="12.671875"
       cy="9.9571075"
       cx="7.8060555" />
    <linearGradient
       gradientTransform="matrix(0.72855758,0,0,0.65923624,-0.23915744,0.16688039)"
       gradientUnits="userSpaceOnUse"
       xlink:href="#linearGradient3707-319-631-407-324-3"
       id="linearGradient3136"
       y2="0.91790956"
       x2="25"
       y1="47.935162"
       x1="25" />
    <linearGradient
       id="linearGradient3412">
      <stop
         offset="0"
         style="stop-color:#fcfcfc;stop-opacity:1"
         id="stop3414" />
      <stop
         offset="1"
         style="stop-color:#cbcdd9;stop-opacity:1"
         id="stop3416" />
    </linearGradient>
    <linearGradient
       id="linearGradient3428">
      <stop
         offset="0"
         style="stop-color:#ffffff;stop-opacity:1"
         id="stop3430" />
      <stop
         offset="1"
         style="stop-color:#ffffff;stop-opacity:0"
         id="stop3432" />
    </linearGradient>
    <linearGradient
       gradientTransform="matrix(0.99749995,0,0,-0.99749995,-16.923748,48.896056)"
       gradientUnits="userSpaceOnUse"
       xlink:href="#linearGradient3428"
       id="linearGradient3270"
       y2="18.353575"
       x2="33.811069"
       y1="31.65719"
       x1="40.105618" />
    <linearGradient
       gradientTransform="matrix(1,0,0,-1,-16.999999,48.999999)"
       gradientUnits="userSpaceOnUse"
       xlink:href="#linearGradient3412"
       id="linearGradient3273"
       y2="18.12406"
       x2="38.972309"
       y1="32.537422"
       x1="42.783993" />
    <linearGradient
       gradientTransform="matrix(-1,0,0,1,37.982221,-6.042067)"
       gradientUnits="userSpaceOnUse"
       xlink:href="#linearGradient3104"
       id="linearGradient3175"
       y2="6.0420675"
       x2="21.982096"
       y1="36.042068"
       x1="21.982096" />
  </defs>
  <metadata
     id="metadata3187">
    <rdf:RDF>
      <cc:Work
         rdf:about="">
        <dc:format>image/svg+xml</dc:format>
        <dc:type
           rdf:resource="http://purl.org/dc/dcmitype/StillImage" />
        <dc:title />
      </cc:Work>
    </rdf:RDF>
  </metadata>
  <rect
     width="22.100021"
     height="2"
     x="4.9499893"
     y="29"
     id="rect2879"
     style="display:inline;overflow:visible;visibility:visible;opacity:0.15;fill:url(#linearGradient3180);fill-opacity:1;fill-rule:nonzero;stroke:none;stroke-width:1;marker:none" />
  <path
     d="m 4.9499887,29.000086 c 0,0 0,1.99989 0,1.99989 -0.806615,0.0038 -1.950002,-0.448074 -1.950002,-1.000074 0,-0.552 0.900121,-0.999816 1.950002,-0.999816 z"
     id="path2881"
     style="display:inline;overflow:visible;visibility:visible;opacity:0.15;fill:url(#radialGradient3048);fill-opacity:1;fill-rule:nonzero;stroke:none;stroke-width:1;marker:none" />
  <path
     d="m 27.050011,29.000086 c 0,0 0,1.99989 0,1.99989 0.806614,0.0038 1.950002,-0.448074 1.950002,-1.000074 0,-0.552 -0.900122,-0.999816 -1.950002,-0.999816 z"
     id="path2883"
     style="display:inline;overflow:visible;visibility:visible;opacity:0.15;fill:url(#radialGradient3045);fill-opacity:1;fill-rule:nonzero;stroke:none;stroke-width:1;marker:none" />
  <path
     d="m 4.499961,0.49996093 c 5.270482,0 23.000037,0.00185 23.000037,0.00185 l 2.8e-5,28.99822807 c 0,0 -15.333376,0 -23.000065,0 0,-9.666692 0,-19.333383 0,-29.00007387 z"
     id="path4160-3"
     style="display:inline;fill:url(#linearGradient3122);fill-opacity:1;stroke:url(#linearGradient3124);stroke-width:0.99992186;stroke-linecap:butt;stroke-linejoin:round;stroke-miterlimit:4;stroke-dasharray:none;stroke-dashoffset:0;stroke-opacity:1" />
  <path
     d="m 26.5,28.5 -21,0 0,-27 21,0 z"
     id="rect6741-1"
     style="fill:none;stroke:url(#linearGradient3119);stroke-width:0.99999994;stroke-linecap:round;stroke-linejoin:round;stroke-miterlimit:4;stroke-dasharray:none;stroke-dashoffset:0;stroke-opacity:1" />
  <path
     d="m 8.5,29.5 c -1.278153,0 -2.5563067,0 -3.8344663,0 -0.3106671,-0.343376 -0.074432,-1.025114 -0.1482461,-1.511227 0,-9.107381 0,-18.2147618 0,-27.32213941 l 0.043327,-0.1179354 0.10492,-0.048698 0,0 c 1.3302995,0 2.4520282,0 3.7823213,0"
     id="path4530"
     style="color:#000000;display:inline;overflow:visible;visibility:visible;fill:url(#radialGradient3134);fill-opacity:1;fill-rule:nonzero;stroke:url(#linearGradient3136);stroke-width:1;stroke-linecap:butt;stroke-linejoin:round;stroke-miterlimit:4;stroke-dasharray:none;stroke-dashoffset:0;stroke-opacity:1;marker:none;enable-background:accumulate" />
  <path
     d="m 8.4999998,28.5 -3,0 0,-27.0000001 3,0"
     id="rect6741-1-5"
     style="opacity:0.5;fill:none;stroke:url(#linearGradient3128);stroke-width:0.99999994;stroke-linecap:butt;stroke-linejoin:round;stroke-miterlimit:4;stroke-dasharray:none;stroke-dashoffset:0;stroke-opacity:1" />
  <path
     style="fill:none;stroke:url(#linearGradient3175);stroke-width:1px;stroke-linecap:butt;stroke-linejoin:miter;stroke-opacity:1"
     id="path2609-4"
     d="m 23.999875,5.505006 -1.343625,0 z m -1.687375,0 -2.1875,0 z m -2.53125,0 -1.9375,0 z m -2.25,0 -0.84375,0 z m -1.1875,0 -1.875,0 z m -2.25,0 -3.09375,0 z m 9.906125,2 -2.656125,0 z m -3.062375,0 -1.75,0 z m -2.0625,0 -0.875,0 z m -1.21875,0 -1.59375,0 z m -1.9375,0 -1.625,0 z m -1.9375,0 -2.59375,0 z m 10.218625,1.9949953 -3.281125,0 z m -3.624875,0 -4.625,0 z m -4.9375,0 -1.84375,0 z M 23.999875,11.5 l -1.59375,0 z M 22.90625,11.5 17,11.5 Z m 1.093625,3.037243 -2.093625,0 z m -2.406125,0 -5.0625,0 z m -5.375,0 -2.46875,0 z m -2.78125,0 -2.3125,0 z M 23.999875,16.5 l -1.343625,0 z m -1.687375,0 -2.15625,0 z m -2.53125,0 -1.9375,0 z m -2.25,0 -0.84375,0 z m -1.1875,0 -1.875,0 z m -2.25,0 L 11,16.5 Z m 9.906125,2.075342 -3.281125,0 z m -3.624875,0 -4.625,0 z m -4.9375,0 -1.84375,0 z M 23.999875,21.5 l -2.093625,0 z m -2.406125,0 -5.0625,0 z m -5.375,0 -2.46875,0 z m 7.781125,2 -2.874875,0 z m -3.218625,0 -1.21875,0 z m -1.53125,0 -2.78125,0 z m -3.09375,0 -4.09375,0 z m 7.843625,2 -2.874875,0 z m -3.218625,0 -1.75,0 z m -2.0625,0 -2.75,0 z m -3.0625,0 -2.96875,0 z" />
  <g
     id="g3297">
    <path
       d="m 13.5,30.5 15,-15 0,15 -15,0 z m 6.999999,-3.000001 5,0 0,-4.999999 -5,4.999999 z"
       id="path3410"
       style="opacity:0.8;fill:url(#linearGradient3273);fill-opacity:1;fill-rule:evenodd;stroke:#83899a;stroke-width:1;stroke-linecap:butt;stroke-linejoin:miter;stroke-miterlimit:4;stroke-dasharray:none;stroke-opacity:1" />
    <path
       d="m 15.713203,29.538323 11.845312,-11.845312 0,11.845312 -11.845312,0 z"
       id="path3424"
       style="opacity:0.4;fill:none;stroke:url(#linearGradient3270);stroke-width:1;stroke-linecap:butt;stroke-linejoin:miter;stroke-miterlimit:4;stroke-dasharray:none;stroke-opacity:1" />
  </g>
</svg>
