<?xml version="1.0" encoding="UTF-8" standalone="no"?>
<!-- Created with Inkscape (http://www.inkscape.org/) -->

<svg
   xmlns:svg="http://www.w3.org/2000/svg"
   xmlns="http://www.w3.org/2000/svg"
   xmlns:xlink="http://www.w3.org/1999/xlink"
   version="1.0"
   width="22"
   height="22"
   id="svg11300">
  <defs
     id="defs3">
    <linearGradient
       id="linearGradient9573">
      <stop
         id="stop9575"
         style="stop-color:#8f8f8f;stop-opacity:1"
         offset="0" />
      <stop
         id="stop9577"
         style="stop-color:#5f5f5f;stop-opacity:1"
         offset="0.12709491" />
      <stop
         id="stop9579"
         style="stop-color:#616161;stop-opacity:1"
         offset="0.87577629" />
      <stop
         id="stop9581"
         style="stop-color:#9e9e9e;stop-opacity:1"
         offset="1" />
    </linearGradient>
    <linearGradient
       id="linearGradient3506">
      <stop
         id="stop3508"
         style="stop-color:#3c3c3c;stop-opacity:1"
         offset="0" />
      <stop
         id="stop3510"
         style="stop-color:#3c3c3c;stop-opacity:0.22745098"
         offset="1" />
    </linearGradient>
    <linearGradient
       x1="20.405081"
       y1="6.9878068"
       x2="20.405081"
       y2="9.1187258"
       id="linearGradient7469"
       xlink:href="#linearGradient3506"
       gradientUnits="userSpaceOnUse"
       gradientTransform="matrix(0.64539938,0,0,0.42549582,-0.90189706,-23.05923)" />
    <linearGradient
       x1="20.405081"
       y1="6.9878068"
       x2="20.405081"
       y2="9.1187258"
       id="linearGradient7475"
       xlink:href="#linearGradient3506"
       gradientUnits="userSpaceOnUse"
       gradientTransform="matrix(0.64539932,0,0,0.42549572,-3.4019034,-23.05923)" />
    <linearGradient
       x1="15"
       y1="36"
       x2="15"
       y2="1.25"
       id="linearGradient8579"
       xlink:href="#linearGradient3821"
       gradientUnits="userSpaceOnUse"
       gradientTransform="matrix(0.52380927,0,0,0.52940751,-1.5714263,-1.2939679)" />
    <linearGradient
       id="linearGradient3821">
      <stop
         id="stop3823"
         style="stop-color:#808080;stop-opacity:1"
         offset="0" />
      <stop
         id="stop3825"
         style="stop-color:#999999;stop-opacity:1"
         offset="1" />
    </linearGradient>
    <linearGradient
       id="linearGradient3143">
      <stop
         id="stop3145"
         style="stop-color:#e6e6e6;stop-opacity:1"
         offset="0" />
      <stop
         id="stop3147"
         style="stop-color:#afafaf;stop-opacity:1"
         offset="1" />
    </linearGradient>
    <linearGradient
       x1="25"
       y1="1.125"
       x2="25"
       y2="35.875"
       id="linearGradient8838"
       xlink:href="#linearGradient3143"
       gradientUnits="userSpaceOnUse"
       gradientTransform="matrix(0.52380927,0,0,0.52940751,-1.5714263,-1.2939679)" />
    <linearGradient
       id="linearGradient9127">
      <stop
         id="stop9129"
         style="stop-color:#f0f0f0;stop-opacity:1"
         offset="0" />
      <stop
         id="stop9131"
         style="stop-color:#a9a9a9;stop-opacity:1"
         offset="1" />
    </linearGradient>
    <radialGradient
       cx="21.333334"
       cy="-36.857143"
       r="8"
       fx="21.333334"
       fy="-36.857143"
       id="radialGradient9547"
       xlink:href="#linearGradient9127"
       gradientUnits="userSpaceOnUse"
       gradientTransform="matrix(0.866667,-1.9220439e-7,1.6639867e-7,0.75004644,-8.4222219,9.6445746)" />
    <linearGradient
       x1="15.428573"
       y1="-39.142857"
       x2="32.57143"
       y2="-39.142857"
       id="linearGradient9571"
       xlink:href="#linearGradient9573"
       gradientUnits="userSpaceOnUse"
       gradientTransform="matrix(0.46666686,0,0,0.4666667,-0.20000333,-0.733332)" />
    <filter
       color-interpolation-filters="sRGB"
       id="filter7990">
      <feGaussianBlur
         id="feGaussianBlur7992"
         stdDeviation="0.24" />
    </filter>
  </defs>
  <rect
     width="6.3732491"
     height="4.8970642"
     rx="0.625"
     ry="0.625"
     x="7.8712435"
     y="15.65336"
     id="rect4383"
     style="fill:#ffffff;fill-opacity:1;stroke:none" />
  <rect
     width="7.0000029"
     height="7.0000005"
     rx="0.56470537"
     ry="0.56470579"
     x="7.500001"
     y="-21.5"
     transform="scale(1,-1)"
     id="rect3448"
     style="fill:url(#radialGradient9547);fill-opacity:1;stroke:url(#linearGradient9571);stroke-width:0.9999997;stroke-linejoin:miter;stroke-miterlimit:4;stroke-opacity:1;stroke-dasharray:none" />
  <rect
     width="1.5000007"
     height="1"
     x="9.0000019"
     y="-20"
     transform="scale(1,-1)"
     id="rect3450"
     style="opacity:0.88172045;fill:url(#linearGradient7475);fill-opacity:1;stroke:none" />
  <rect
     width="1.5000007"
     height="1.0000002"
     x="11.500003"
     y="-20"
     transform="scale(1,-1)"
     id="rect2874"
     style="opacity:0.88172045;fill:url(#linearGradient7469);fill-opacity:1;stroke:none" />
  <rect
     width="11"
     height="16.985771"
     rx="1.0000005"
     ry="1"
     x="5.5"
     y="0.51422906"
     id="rect5391"
     style="fill:url(#linearGradient8838);fill-opacity:1;stroke:url(#linearGradient8579);stroke-width:0.99999994;stroke-linecap:round;stroke-linejoin:round;stroke-miterlimit:4;stroke-opacity:1;stroke-dasharray:none;display:inline" />
  <rect
     width="8.0000048"
     height="15.000001"
     rx="1.0000005"
     ry="1"
     x="7"
     y="1"
     id="rect8840"
     style="opacity:0.3;fill:#ffffff;fill-opacity:1;stroke:none;filter:url(#filter7990)" />
  <path
     d="m 10.95762,3.000828 c -0.305561,0.3665148 -0.4946,0.8350501 -0.765104,1.2354254 -0.3374341,0.2892051 -0.158305,0.6595673 0.270679,0.516236 0.295114,-0.010941 0.124667,0.356081 0.166325,0.5389181 0,1.7077422 0,3.4154845 0,5.1232265 C 10.211319,10.033608 9.6504458,9.688091 9.4459177,9.15427 9.2144166,8.736493 9.2471426,8.283395 9.7383128,8.125649 10.081213,7.8358768 10.229654,7.2814468 9.9260229,6.9104075 9.5357457,6.2607849 8.4337501,6.2516345 8.0897922,6.9525745 c -0.3510957,0.6083846 0.3005244,1.0383659 0.45635,1.5468205 0.021459,0.494466 0.1219571,0.998724 0.4478912,1.389617 0.4229833,0.549697 1.0283916,0.923238 1.5428156,1.367538 0.336823,0.402151 -0.0972,0.664296 -0.366555,0.89786 -0.4099772,0.474057 -0.4116062,1.334703 0.190456,1.658012 0.606873,0.393134 1.579727,0.131278 1.766327,-0.608383 0.138857,-0.539654 -0.180082,-1.150298 -0.692219,-1.361381 0,-0.800124 0,-1.600248 0,-2.400372 0.59519,-0.623441 1.331661,-1.143135 1.752654,-1.9110086 0.140392,-0.3525023 0.08993,-0.9846378 0.653539,-0.8257018 0.3359,-0.2641238 0.07606,-0.8462846 0.161375,-1.243692 0.08802,-0.3688644 -0.105716,-0.6676988 -0.506126,-0.5459821 -0.416332,0.095469 -1.104614,-0.2104786 -1.344989,0.1827716 0.0046,0.4943119 -0.01182,0.989392 0.008,1.4836586 0.114566,0.2407179 0.580208,-0.00681 0.414516,0.4070019 -0.108185,0.54049 -0.584804,0.8787232 -0.929985,1.2685634 C 11.382793,8.5023 11.432911,8.1191 11.434879,7.9573384 c 0,-1.0647368 0,-2.1294735 0,-3.1942102 0.314751,0.073483 0.846371,-0.037056 0.470611,-0.4129639 -0.276747,-0.439284 -0.563614,-0.8723122 -0.828543,-1.3189497 -0.04488,0.00825 -0.07358,-0.045475 -0.119328,-0.030387 z"
     id="path7988"
     style="fill:#787878;fill-opacity:1;stroke:none" />
</svg>
