<?xml version="1.0" encoding="UTF-8" standalone="no"?>
<!-- Created with Inkscape (http://www.inkscape.org/) -->

<svg
   xmlns:dc="http://purl.org/dc/elements/1.1/"
   xmlns:cc="http://creativecommons.org/ns#"
   xmlns:rdf="http://www.w3.org/1999/02/22-rdf-syntax-ns#"
   xmlns:svg="http://www.w3.org/2000/svg"
   xmlns="http://www.w3.org/2000/svg"
   xmlns:xlink="http://www.w3.org/1999/xlink"
   xmlns:sodipodi="http://sodipodi.sourceforge.net/DTD/sodipodi-0.dtd"
   xmlns:inkscape="http://www.inkscape.org/namespaces/inkscape"
   width="22"
   height="22"
   id="svg3860"
   version="1.1"
   inkscape:version="0.47 r22583"
   sodipodi:docname="im-message-new.svg">
  <defs
     id="defs3862">
    <inkscape:perspective
       sodipodi:type="inkscape:persp3d"
       inkscape:vp_x="0 : 11 : 1"
       inkscape:vp_y="0 : 1000 : 0"
       inkscape:vp_z="22 : 11 : 1"
       inkscape:persp3d-origin="11 : 7.3333333 : 1"
       id="perspective20" />
    <linearGradient
       inkscape:collect="always"
       xlink:href="#linearGradient2867-449-88-871-390-598-476-591-434-148-69-4"
       id="linearGradient3833"
       gradientUnits="userSpaceOnUse"
       gradientTransform="matrix(0.4342346,0,0,0.5947449,-35.224962,-2.9681174)"
       x1="102.28843"
       y1="35.257721"
       x2="102.28843"
       y2="10.032534" />
    <linearGradient
       id="linearGradient2867-449-88-871-390-598-476-591-434-148-69-4">
      <stop
         id="stop4629-22-2"
         style="stop-color:#49a3d2;stop-opacity:1"
         offset="0" />
      <stop
         id="stop4631-4-9"
         style="stop-color:#3470b4;stop-opacity:1"
         offset="0.704952" />
      <stop
         id="stop4633-7-6"
         style="stop-color:#1b5699;stop-opacity:1"
         offset="1" />
    </linearGradient>
    <linearGradient
       inkscape:collect="always"
       xlink:href="#linearGradient2867-449-88-871-390-598-476-591-434-148-69"
       id="linearGradient2973-4"
       gradientUnits="userSpaceOnUse"
       gradientTransform="matrix(0.4342346,0,0,0.5947449,-35.224962,-8.9681174)"
       x1="102.28843"
       y1="33.574257"
       x2="102.28843"
       y2="11.716145" />
    <linearGradient
       id="linearGradient2867-449-88-871-390-598-476-591-434-148-69">
      <stop
         id="stop4629-22"
         style="stop-color:#49a3d2;stop-opacity:1"
         offset="0" />
      <stop
         id="stop4631-4"
         style="stop-color:#3470b4;stop-opacity:1"
         offset="0.704952" />
      <stop
         id="stop4633-7"
         style="stop-color:#1b5699;stop-opacity:1"
         offset="1" />
    </linearGradient>
  </defs>
  <sodipodi:namedview
     id="base"
     pagecolor="#ffffff"
     bordercolor="#666666"
     borderopacity="1.0"
     inkscape:pageopacity="0.0"
     inkscape:pageshadow="2"
     inkscape:zoom="22.197802"
     inkscape:cx="8"
     inkscape:cy="7.909901"
     inkscape:current-layer="layer1"
     showgrid="true"
     inkscape:grid-bbox="true"
     inkscape:document-units="px"
     inkscape:window-width="827"
     inkscape:window-height="483"
     inkscape:window-x="417"
     inkscape:window-y="169"
     inkscape:window-maximized="0" />
  <metadata
     id="metadata3865">
    <rdf:RDF>
      <cc:Work
         rdf:about="">
        <dc:format>image/svg+xml</dc:format>
        <dc:type
           rdf:resource="http://purl.org/dc/dcmitype/StillImage" />
        <dc:title />
      </cc:Work>
    </rdf:RDF>
  </metadata>
  <g
     id="layer1"
     inkscape:label="Layer 1"
     inkscape:groupmode="layer"
     transform="translate(0,6)">
    <path
       d="m 10.5,-1 c 4.692,0 8.5,2.9120003 8.5,6.5 0,0.550338 -0.112625,1.083288 -0.28125,1.59375 L 22,9.90625 16.625,10 C 15.077862,11.23217 12.908496,12 10.5,12 5.808,12 1.999999,9.088 2,5.5 2,1.9120001 5.808,-1.0000001 10.5,-1 z"
       id="path2410"
       style="opacity:0.6;fill:#ffffff;fill-opacity:1;fill-rule:nonzero;stroke:none;stroke-width:1;marker:none;visibility:visible;display:inline;overflow:visible;enable-background:accumulate" />
    <path
       d="m 10.5,-2 c 4.692,0 8.5,2.9120003 8.5,6.5 0,0.550338 -0.112625,1.083288 -0.28125,1.59375 L 22,8.90625 16.625,9 C 15.077862,10.23217 12.908496,11 10.5,11 5.808,11 1.999999,8.088 2,4.5 2,0.9120001 5.808,-2.0000001 10.5,-2 z"
       id="path2396"
       style="color:#000000;fill:url(#linearGradient2973-4);fill-opacity:1;fill-rule:nonzero;stroke:none;stroke-width:1;marker:none;visibility:visible;display:inline;overflow:visible;enable-background:accumulate" />
    <path
       transform="translate(0,-6)"
       sodipodi:type="inkscape:offset"
       inkscape:radius="1.0068562"
       inkscape:original="M 10.5 4 C 5.808 3.9999999 2 6.9120001 2 10.5 C 1.999999 14.088 5.808 17 10.5 17 C 12.908496 17 15.077862 16.23217 16.625 15 L 22 14.90625 L 18.71875 12.09375 C 18.887375 11.583288 19 11.050338 19 10.5 C 19 6.9120003 15.192 4 10.5 4 z "
       style="opacity:0.15;color:#000000;fill:url(#linearGradient3833);fill-opacity:1;fill-rule:nonzero;stroke:none;stroke-width:1;marker:none;visibility:visible;display:inline;overflow:visible;enable-background:accumulate"
       id="path3831"
       d="M 10.5,3 C 7.9457046,2.9999999 5.6096642,3.7672421 3.875,5.09375 2.1403358,6.4202579 1,8.3498027 1,10.5 c -6e-7,2.150198 1.1403357,4.079742 2.875,5.40625 C 5.6096643,17.232758 7.9457047,18 10.5,18 c 2.446579,0 4.636393,-0.773902 6.34375,-2 l 5.1875,-0.09375 a 1.0069569,1.0069569 0 0 0 0.625,-1.75 L 19.8125,11.71875 C 19.903709,11.321366 20,10.938972 20,10.5 20,8.3498028 18.859664,6.4202579 17.125,5.09375 15.390336,3.7672421 13.054295,3 10.5,3 z" />
  </g>
</svg>
