<svg xmlns="http://www.w3.org/2000/svg" xmlns:xlink="http://www.w3.org/1999/xlink" viewBox="0 0 32 32"><defs><linearGradient x1="11.566" y1="22.292" x2="15.215" y2="33.955" id="j" xlink:href="#a" gradientUnits="userSpaceOnUse" gradientTransform="translate(2.164 14.81) scale(.64445)"/><linearGradient id="a"><stop offset="0" stop-color="#fff" stop-opacity=".275"/><stop offset="1" stop-color="#fff" stop-opacity="0"/></linearGradient><linearGradient x1="29.647" y1="2" x2="29.647" y2="43.444" id="i" xlink:href="#b" gradientUnits="userSpaceOnUse" gradientTransform="translate(.243 16.823) scale(.64445)"/><linearGradient id="b"><stop offset="0" stop-color="#fff"/><stop offset="1" stop-color="#fff" stop-opacity="0"/></linearGradient><radialGradient cx="13.139" cy="25.625" r="13.931" fx="13.139" fy="25.625" id="g" xlink:href="#c" gradientUnits="userSpaceOnUse" gradientTransform="matrix(0 1.7104 -2.03826 0 63.162 -16.658)"/><linearGradient id="c"><stop offset="0" stop-color="#e8e8e8"/><stop offset=".262" stop-color="#d8d8d8"/><stop offset=".661" stop-color="#c2c2c2"/><stop offset="1" stop-color="#a5a5a5"/></linearGradient><linearGradient x1="21.483" y1="36.255" x2="21.483" y2="9.58" id="h" xlink:href="#d" gradientUnits="userSpaceOnUse" gradientTransform="matrix(1.0639 0 0 1.06774 -6.856 -9.163)"/><linearGradient id="d"><stop offset="0" stop-color="#707070"/><stop offset="1" stop-color="#9e9e9e"/></linearGradient><linearGradient id="e"><stop offset="0"/><stop offset="1" stop-opacity="0"/></linearGradient><radialGradient cx="62.625" cy="4.625" r="10.625" fx="62.625" fy="4.625" id="f" xlink:href="#e" gradientUnits="userSpaceOnUse" gradientTransform="matrix(1.41176 0 0 .5647 -72.412 23.388)"/></defs><path d="M31 26c0 3.314-6.716 6-15 6-8.284 0-15-2.686-15-6s6.716-6 15-6c8.284 0 15 2.686 15 6z" opacity=".3" fill="url(#f)" fill-rule="evenodd" overflow="visible"/><path d="M16 1.497c.98 0 4.134 7.91 4.926 8.49.792.576 9.264 1.143 9.566 2.078.303.934-6.22 6.39-6.52 7.325-.304.934 1.777 9.195.985 9.773-.792.577-7.978-3.96-8.957-3.96-.98 0-8.165 4.537-8.957 3.96-.792-.578 1.29-8.84.986-9.773-.306-.935-6.828-6.39-6.525-7.325.302-.935 8.774-1.502 9.566-2.08.793-.577 3.948-8.488 4.927-8.488z" fill="url(#g)" stroke="url(#h)" stroke-width=".992" stroke-linejoin="round" overflow="visible"/><path d="M24.03 28.15s-2.784-2.41-6.495-3.153m-9.8 3.153s2.783-2.41 6.494-3.153" opacity=".3" fill="none" stroke="#fff"/><path d="M15.72 19.22c-1.35 2.6-2.713 5.35-4.064 7.936a.335.335 0 0 1-.25.188c-2.906.474-5.92.99-8.844 1.468 2.056 2.09 4.04 4.254 6.094 6.313a.335.335 0 0 1 .094.313c-.44 2.86-.68 5.603-1.094 8.468l7.875-3.937a.335.335 0 0 1 .317 0l7.906 3.933c-.423-2.85-.746-5.54-1.187-8.406a.335.335 0 0 1 .063-.25.335.335 0 0 1 .03-.064c2.07-2.073 4.142-4.272 6.22-6.374-2.756-.63-5.94-.99-8.876-1.47a.335.335 0 0 1-.155-.094.335.335 0 0 1-.095-.095c-1.35-2.585-2.69-5.335-4.03-7.936z" transform="translate(.29 -16.29)" opacity=".4" fill="none" stroke="url(#i)" stroke-linejoin="round" overflow="visible"/><path d="M15.72 18.53c-.256.375-2.348 3.474-4.376 8.25a.206.206 0 0 1-.03.032.206.206 0 0 1-.095.063.206.206 0 0 1-.036.03c-3.005.49-7.002 1.04-9.312 1.69 1.578 2 3.56 3.736 5.344 5.56l20.25-3.593c.582-.584 1.712-1.713 2-2-2.873-.776-6.24-1.134-9.25-1.625a.206.206 0 0 1-.032-.03.206.206 0 0 1-.094-.063.206.206 0 0 1-.03-.032c-1.526-3.54-4.057-7.8-4.344-8.28z" transform="translate(.29 -16.29)" opacity=".8" fill="url(#j)" overflow="visible"/></svg>