<?xml version="1.0" encoding="UTF-8" standalone="no"?>
<svg
   xmlns:dc="http://purl.org/dc/elements/1.1/"
   xmlns:cc="http://creativecommons.org/ns#"
   xmlns:rdf="http://www.w3.org/1999/02/22-rdf-syntax-ns#"
   xmlns:svg="http://www.w3.org/2000/svg"
   xmlns="http://www.w3.org/2000/svg"
   xmlns:xlink="http://www.w3.org/1999/xlink"
   id="svg17618"
   height="32"
   width="32"
   version="1.1">
  <defs
     id="defs17620">
    <linearGradient
       gradientTransform="matrix(0.89186139,0,0,1.0539115,3.1208294,5.412539)"
       gradientUnits="userSpaceOnUse"
       xlink:href="#linearGradient3454-2-5-0-3-4"
       id="linearGradient15173"
       y2="21.386522"
       x2="27.557428"
       y1="7.162672"
       x1="27.557428" />
    <linearGradient
       id="linearGradient3454-2-5-0-3-4">
      <stop
         offset="0"
         style="stop-color:#ffffff;stop-opacity:1"
         id="stop3456-4-9-38-1-8" />
      <stop
         offset="0.0097359"
         style="stop-color:#ffffff;stop-opacity:0.23529412"
         id="stop3458-39-80-3-5-5" />
      <stop
         offset="0.99001008"
         style="stop-color:#ffffff;stop-opacity:0.15686275"
         id="stop3460-7-0-2-4-2" />
      <stop
         offset="1"
         style="stop-color:#ffffff;stop-opacity:0.39215687"
         id="stop3462-0-9-8-7-2" />
    </linearGradient>
    <linearGradient
       gradientTransform="matrix(0.7467531,0,0,0.6554922,-1.9218906,1.1676197)"
       gradientUnits="userSpaceOnUse"
       xlink:href="#linearGradient6129-963-697-142-998-580-273-5"
       id="linearGradient15181"
       y2="36.657963"
       x2="22.809399"
       y1="49.629246"
       x1="22.934725" />
    <linearGradient
       id="linearGradient6129-963-697-142-998-580-273-5">
      <stop
         offset="0"
         style="stop-color:#260063;stop-opacity:0.5"
         id="stop2661-1" />
      <stop
         offset="1"
         style="stop-color:#260063;stop-opacity:0"
         id="stop2663-85" />
    </linearGradient>
    <linearGradient
       gradientTransform="matrix(0.64444432,0,0,0.64285702,0.53351936,0.89285905)"
       gradientUnits="userSpaceOnUse"
       xlink:href="#linearGradient4632-92-3-0-8-1"
       id="linearGradient8239"
       y2="43.761127"
       x2="35.792694"
       y1="17.118193"
       x1="35.792694" />
    <linearGradient
       id="linearGradient4632-92-3-0-8-1">
      <stop
         offset="0"
         style="stop-color:#e29ffc;stop-opacity:1"
         id="stop4634-68-8-0-2-9" />
      <stop
         offset="1"
         style="stop-color:#ad65d6;stop-opacity:1"
         id="stop4636-8-21-7-1-4" />
    </linearGradient>
    <linearGradient
       gradientTransform="matrix(0.05114282,0,0,0.01591575,-2.4899573,22.29927)"
       gradientUnits="userSpaceOnUse"
       xlink:href="#linearGradient5048-585-0"
       id="linearGradient15209"
       y2="609.50507"
       x2="302.85715"
       y1="366.64789"
       x1="302.85715" />
    <linearGradient
       id="linearGradient5048-585-0">
      <stop
         offset="0"
         style="stop-color:#000000;stop-opacity:0"
         id="stop2667-18" />
      <stop
         offset="0.5"
         style="stop-color:#000000;stop-opacity:1"
         id="stop2669-9" />
      <stop
         offset="1"
         style="stop-color:#000000;stop-opacity:0"
         id="stop2671-33" />
    </linearGradient>
    <radialGradient
       gradientTransform="matrix(0.01983573,0,0,0.01591575,16.38765,22.29927)"
       gradientUnits="userSpaceOnUse"
       xlink:href="#linearGradient5060-179-67"
       id="radialGradient15211"
       fy="486.64789"
       fx="605.71429"
       r="117.14286"
       cy="486.64789"
       cx="605.71429" />
    <linearGradient
       id="linearGradient5060-179-67">
      <stop
         offset="0"
         style="stop-color:#000000;stop-opacity:1"
         id="stop2675-81" />
      <stop
         offset="1"
         style="stop-color:#000000;stop-opacity:0"
         id="stop2677-2" />
    </linearGradient>
    <radialGradient
       gradientTransform="matrix(-0.01983573,0,0,0.01591575,15.60139,22.29927)"
       gradientUnits="userSpaceOnUse"
       xlink:href="#linearGradient5060-820-4"
       id="radialGradient15213"
       fy="486.64789"
       fx="605.71429"
       r="117.14286"
       cy="486.64789"
       cx="605.71429" />
    <linearGradient
       id="linearGradient5060-820-4">
      <stop
         offset="0"
         style="stop-color:#000000;stop-opacity:1"
         id="stop2681-5" />
      <stop
         offset="1"
         style="stop-color:#000000;stop-opacity:0"
         id="stop2683-00" />
    </linearGradient>
    <linearGradient
       gradientTransform="matrix(0.54383556,0,0,0.61466406,3.2688794,5.091139)"
       gradientUnits="userSpaceOnUse"
       xlink:href="#linearGradient4325"
       id="linearGradient15221"
       y2="34.143417"
       x2="21.37039"
       y1="4.73244"
       x1="21.37039" />
    <linearGradient
       id="linearGradient4325">
      <stop
         offset="0"
         style="stop-color:#ffffff;stop-opacity:1"
         id="stop4327" />
      <stop
         offset="0.1106325"
         style="stop-color:#ffffff;stop-opacity:0.23529412"
         id="stop4329" />
      <stop
         offset="0.99001008"
         style="stop-color:#ffffff;stop-opacity:0.15686275"
         id="stop4331" />
      <stop
         offset="1"
         style="stop-color:#ffffff;stop-opacity:0.39215687"
         id="stop4333" />
    </linearGradient>
    <linearGradient
       gradientTransform="matrix(0.61904762,0,0,0.61904762,-30.391812,1.428569)"
       gradientUnits="userSpaceOnUse"
       xlink:href="#linearGradient4646-7-4-3-5"
       id="linearGradient15229"
       y2="16"
       x2="62.988873"
       y1="13"
       x1="62.988873" />
    <linearGradient
       id="linearGradient4646-7-4-3-5">
      <stop
         offset="0"
         style="stop-color:#f9f9f9;stop-opacity:1"
         id="stop4648-8-0-3-6" />
      <stop
         offset="1"
         style="stop-color:#d8d8d8;stop-opacity:1"
         id="stop4650-1-7-3-4" />
    </linearGradient>
    <linearGradient
       id="linearGradient3104-8-8-97-4-6-11-5-5-0">
      <stop
         offset="0"
         style="stop-color:#000000;stop-opacity:0.32173914"
         id="stop3106-5-4-3-5-0-2-1-0-6" />
      <stop
         offset="1"
         style="stop-color:#000000;stop-opacity:0.27826086"
         id="stop3108-4-3-7-8-2-0-7-9-1" />
    </linearGradient>
    <linearGradient
       gradientTransform="matrix(0.50703384,0,0,0.50300255,68.029218,1.329769)"
       gradientUnits="userSpaceOnUse"
       xlink:href="#linearGradient3104-8-8-97-4-6-11-5-5-0"
       id="linearGradient17616"
       y2="3.6336823"
       x2="-51.786404"
       y1="53.514328"
       x1="-51.786404" />
  </defs>
  <metadata
     id="metadata17623">
    <rdf:RDF>
      <cc:Work
         rdf:about="">
        <dc:format>image/svg+xml</dc:format>
        <dc:type
           rdf:resource="http://purl.org/dc/dcmitype/StillImage" />
        <dc:title />
      </cc:Work>
    </rdf:RDF>
  </metadata>
  <g
     id="layer1">
    <path
       style="opacity:0.8;color:#000000;fill:none;stroke:url(#linearGradient17616);stroke-width:1;stroke-linecap:butt;stroke-linejoin:miter;stroke-miterlimit:4;stroke-opacity:1;stroke-dasharray:none;stroke-dashoffset:0;marker:none;visibility:visible;display:inline;overflow:visible;enable-background:accumulate"
       id="use7687-1"
       d="m 4.0001794,6.500079 c -0.43342,0.005 -0.5,0.21723 -0.5,0.6349 l 0,1.36502 c -1.24568,0 -1,-0.002 -1,0.54389 0.0216,6.53313 0,6.90143 0,7.45611 0.90135,0 26.9999986,-2.34895 26.9999986,-3.36005 l 0,-4.09606 c 0,-0.41767 -0.34799,-0.54876 -0.78141,-0.54389 l -14.21859,0 0,-1.36502 c 0,-0.41767 -0.26424,-0.63977 -0.69767,-0.6349 l -9.8023286,0 z" />
    <path
       style="color:#000000;fill:url(#linearGradient15229);fill-opacity:1;fill-rule:nonzero;stroke:none;stroke-width:1;marker:none;visibility:visible;display:inline;overflow:visible;enable-background:accumulate"
       id="use7689-7"
       d="m 4.0001794,6.999999 0,2 -1,0 0,4 25.9999986,0 0,-4 -15,0 0,-2 -9.9999986,0 z" />
    <path
       style="color:#000000;fill:none;stroke:url(#linearGradient15221);stroke-width:1;stroke-linecap:round;stroke-linejoin:miter;stroke-miterlimit:4;stroke-opacity:1;stroke-dasharray:none;stroke-dashoffset:0;marker:none;visibility:visible;display:inline;overflow:visible;enable-background:accumulate"
       id="use7691-5"
       d="m 4.5001794,7.499999 0,2 -1,0 0,4 24.9999986,0 0,-4 -15,0 0,-2 -8.9999986,0 z" />
    <g
       id="use7693-6"
       transform="translate(1.7935663e-4,-1.000001)">
      <rect
         style="opacity:0.3;fill:url(#linearGradient15209);fill-opacity:1;fill-rule:nonzero;stroke:none;stroke-width:1;marker:none;visibility:visible;display:inline;overflow:visible"
         id="rect15203"
         y="28.134747"
         x="3.6471815"
         height="3.8652544"
         width="24.694677" />
      <path
         style="opacity:0.3;fill:url(#radialGradient15211);fill-opacity:1;fill-rule:nonzero;stroke:none;stroke-width:1;marker:none;visibility:visible;display:inline;overflow:visible"
         id="path15205"
         d="m 28.341859,28.13488 c 0,0 0,3.865041 0,3.865041 1.021491,0.0073 2.469468,-0.86596 2.469468,-1.932769 0,-1.06681 -1.139908,-1.932272 -2.469468,-1.932272 z" />
      <path
         style="opacity:0.3;fill:url(#radialGradient15213);fill-opacity:1;fill-rule:nonzero;stroke:none;stroke-width:1;marker:none;visibility:visible;display:inline;overflow:visible"
         id="path15207"
         d="m 3.6471816,28.13488 c 0,0 0,3.865041 0,3.865041 -1.0214912,0.0073 -2.4694678,-0.86596 -2.4694678,-1.932769 0,-1.06681 1.1399068,-1.932272 2.4694678,-1.932272 z" />
    </g>
    <path
       style="color:#000000;fill:url(#linearGradient8239);fill-opacity:1;fill-rule:nonzero;stroke:none;stroke-width:0.99999994;marker:none;visibility:visible;display:inline;overflow:visible;enable-background:accumulate"
       id="use7695-9"
       d="m 1.9270194,11.499999 c -0.69105,0.0796 -0.32196,0.90258 -0.37705,1.36535 0.0802,0.29906 0.59771,15.71799 0.59771,16.24744 0,0.46018 0.22667,0.38222 0.80101,0.38222 8.4993986,0 17.8980786,0 26.3974786,0 0.61872,0.0143 0.48796,0.007 0.48796,-0.38947 0.0452,-0.20269 0.63993,-16.97848 0.66282,-17.24344 0,-0.279 0.0581,-0.3621 -0.30493,-0.3621 -9.0765,0 -19.18849,0 -28.2649986,0 z" />
    <path
       style="opacity:0.4;fill:url(#linearGradient15181);fill-opacity:1;stroke:none"
       id="use7697-1"
       d="m 1.6819994,11 28.6363686,2.7e-4 c 0.4137,0 0.68181,0.29209 0.68181,0.65523 l -0.6735,17.71211 c 0.01,0.45948 -0.1364,0.64166 -0.61707,0.63203 L 2.4534794,29.98814 c -0.4137,0 -0.83086,-0.27118 -0.83086,-0.63432 l -0.62244,-17.69829 c 0,-0.36314 0.26812,-0.65549 0.68182,-0.65549 z" />
    <path
       style="opacity:0.3;color:#000000;fill:none;stroke:url(#linearGradient15173);stroke-width:1.00000012;stroke-linecap:round;stroke-linejoin:miter;stroke-miterlimit:4;stroke-opacity:1;stroke-dasharray:none;stroke-dashoffset:0;marker:none;visibility:visible;display:inline;overflow:visible;enable-background:accumulate"
       id="use7699-2"
       d="m 2.5001794,12.499999 0.62498,16 25.7491686,0 0.62498,-16 z" />
    <path
       style="opacity:0.3;color:#000000;fill:#ffffff;fill-opacity:1;fill-rule:nonzero;stroke:none;stroke-width:1.70000005;marker:none;visibility:visible;display:inline;overflow:visible;enable-background:accumulate"
       id="path3575-5-8-4-7-0-8"
       d="m 15.500178,17.999999 c -0.1385,0 -0.25,0.1115 -0.25,0.25 l 0,0.84375 c -0.27435,0.0704 -0.5275,0.188 -0.76565,0.32812 l -0.60935,-0.60937 c -0.098,-0.0979 -0.2458,-0.0979 -0.34375,0 l -0.71875,0.71875 c -0.098,0.0979 -0.098,0.24581 0,0.34375 l 0.60935,0.60937 c -0.1401,0.23812 -0.25775,0.49131 -0.3281,0.76563 l -0.84375,0 c -0.1385,0 -0.25,0.1115 -0.25,0.25 l 0,1 c 0,0.1385 0.1115,0.25 0.25,0.25 l 0.84375,0 c 0.0703,0.27432 0.188,0.52751 0.3281,0.76562 l -0.60935,0.60938 c -0.098,0.0979 -0.098,0.24581 0,0.34375 l 0.71875,0.71875 c 0.0979,0.0979 0.2458,0.0979 0.34375,0 l 0.60935,-0.60938 c 0.23815,0.14012 0.4913,0.25776 0.76565,0.32813 l 0,0.84375 c 0,0.1385 0.1115,0.25 0.25,0.25 l 1,0 c 0.1385,0 0.25,-0.1115 0.25,-0.25 l 0,-0.84375 c 0.2743,-0.0704 0.5275,-0.18801 0.7656,-0.32813 l 0.6094,0.60938 c 0.0979,0.0979 0.2458,0.0979 0.34375,0 l 0.71875,-0.71875 c 0.0979,-0.0979 0.0979,-0.24582 0,-0.34375 l -0.6094,-0.60938 c 0.14015,-0.23811 0.25775,-0.4913 0.32815,-0.76562 l 0.84375,0 c 0.1385,0 0.25,-0.1115 0.25,-0.25 l 0,-1 c 0,-0.1385 -0.1115,-0.25 -0.25,-0.25 l -0.84375,0 c -0.0704,-0.27432 -0.188,-0.52751 -0.32815,-0.76563 l 0.6094,-0.60937 c 0.0979,-0.0979 0.0979,-0.24582 0,-0.34375 l -0.71875,-0.71875 c -0.098,-0.0979 -0.2458,-0.0979 -0.34375,0 l -0.6094,0.60937 c -0.2381,-0.14012 -0.4913,-0.25775 -0.7656,-0.32812 l 0,-0.84375 c 0,-0.1385 -0.1115,-0.25 -0.25,-0.25 l -1,0 z m 0.5,2.5 c 0.8284,0 1.5,0.67157 1.5,1.5 0,0.82842 -0.6716,1.5 -1.5,1.5 -0.82845,0 -1.5,-0.67158 -1.5,-1.5 0,-0.82843 0.67155,-1.5 1.5,-1.5 z" />
    <path
       style="color:#000000;fill:#4c158a;fill-opacity:1;fill-rule:nonzero;stroke:none;stroke-width:1.70000005;marker:none;visibility:visible;display:inline;overflow:visible;enable-background:accumulate;opacity:0.7"
       id="path3575-5-8-4-7-0"
       d="m 15.500178,16.999999 c -0.1385,0 -0.25,0.1115 -0.25,0.25 l 0,0.84375 c -0.27435,0.0704 -0.5275,0.188 -0.76565,0.32812 l -0.60935,-0.60937 c -0.098,-0.0979 -0.2458,-0.0979 -0.34375,0 l -0.71875,0.71875 c -0.098,0.0979 -0.098,0.24581 0,0.34375 l 0.60935,0.60937 c -0.1401,0.23812 -0.25775,0.49131 -0.3281,0.76563 l -0.84375,0 c -0.1385,0 -0.25,0.1115 -0.25,0.25 l 0,1 c 0,0.1385 0.1115,0.25 0.25,0.25 l 0.84375,0 c 0.0703,0.27432 0.188,0.52751 0.3281,0.76562 l -0.60935,0.60938 c -0.098,0.0979 -0.098,0.24581 0,0.34375 l 0.71875,0.71875 c 0.0979,0.0979 0.2458,0.0979 0.34375,0 l 0.60935,-0.60938 c 0.23815,0.14012 0.4913,0.25776 0.76565,0.32813 l 0,0.84375 c 0,0.1385 0.1115,0.25 0.25,0.25 l 1,0 c 0.1385,0 0.25,-0.1115 0.25,-0.25 l 0,-0.84375 c 0.2743,-0.0704 0.5275,-0.18801 0.7656,-0.32813 l 0.6094,0.60938 c 0.0979,0.0979 0.2458,0.0979 0.34375,0 l 0.71875,-0.71875 c 0.0979,-0.0979 0.0979,-0.24582 0,-0.34375 l -0.6094,-0.60938 c 0.14015,-0.23811 0.25775,-0.4913 0.32815,-0.76562 l 0.84375,0 c 0.1385,0 0.25,-0.1115 0.25,-0.25 l 0,-1 c 0,-0.1385 -0.1115,-0.25 -0.25,-0.25 l -0.84375,0 c -0.0704,-0.27432 -0.188,-0.52751 -0.32815,-0.76563 l 0.6094,-0.60937 c 0.0979,-0.0979 0.0979,-0.24582 0,-0.34375 l -0.71875,-0.71875 c -0.098,-0.0979 -0.2458,-0.0979 -0.34375,0 l -0.6094,0.60937 c -0.2381,-0.14012 -0.4913,-0.25775 -0.7656,-0.32812 l 0,-0.84375 c 0,-0.1385 -0.1115,-0.25 -0.25,-0.25 l -1,0 z m 0.5,2.5 c 0.8284,0 1.5,0.67157 1.5,1.5 0,0.82842 -0.6716,1.5 -1.5,1.5 -0.82845,0 -1.5,-0.67158 -1.5,-1.5 0,-0.82843 0.67155,-1.5 1.5,-1.5 z" />
    <path
       style="opacity:0.3;color:#000000;fill:none;stroke:#260063;stroke-width:0.99999994;stroke-linecap:round;stroke-linejoin:round;stroke-miterlimit:4;stroke-opacity:1;stroke-dasharray:none;stroke-dashoffset:0;marker:none;visibility:visible;display:inline;overflow:visible;enable-background:accumulate"
       id="use7695-9-5"
       d="m 1.9270194,11.499999 c -0.69105,0.0796 -0.32196,0.90258 -0.37705,1.36535 0.0802,0.29906 0.59771,15.71799 0.59771,16.24744 0,0.46018 0.22667,0.38222 0.80101,0.38222 8.4993986,0 17.8980786,0 26.3974786,0 0.61872,0.0143 0.48796,0.007 0.48796,-0.38947 0.0452,-0.20269 0.63993,-16.97848 0.66282,-17.24344 0,-0.279 0.0581,-0.3621 -0.30493,-0.3621 -9.0765,0 -19.18849,0 -28.2649986,0 z" />
  </g>
</svg>
