<?xml version="1.0" encoding="UTF-8" standalone="no"?>
<svg
   xmlns:dc="http://purl.org/dc/elements/1.1/"
   xmlns:cc="http://creativecommons.org/ns#"
   xmlns:rdf="http://www.w3.org/1999/02/22-rdf-syntax-ns#"
   xmlns:svg="http://www.w3.org/2000/svg"
   xmlns="http://www.w3.org/2000/svg"
   xmlns:xlink="http://www.w3.org/1999/xlink"
   height="32"
   id="svg11300"
   style="display:inline;enable-background:new"
   version="1.0"
   viewBox="0 0 32.000961 32"
   width="32.000961">
  <metadata
     id="metadata154">
    <rdf:RDF>
      <cc:Work
         rdf:about="">
        <dc:format>image/svg+xml</dc:format>
        <dc:type
           rdf:resource="http://purl.org/dc/dcmitype/StillImage" />
        <dc:title>elementary Icon Template</dc:title>
      </cc:Work>
    </rdf:RDF>
  </metadata>
  <title
     id="title4162">elementary Icon Template</title>
  <defs
     id="defs3">
    <linearGradient
       id="linearGradient4712">
      <stop
         id="stop4708"
         offset="0"
         style="stop-color:#000000;stop-opacity:1;" />
      <stop
         id="stop4710"
         offset="1"
         style="stop-color:#000000;stop-opacity:0;" />
    </linearGradient>
    <linearGradient
       id="34542">
      <stop
         id="stop3456-4-9-38-1-8"
         offset="0"
         style="stop-color:#ffffff;stop-opacity:1" />
      <stop
         id="stop3458-39-80-3-5-5"
         offset="0.002736"
         style="stop-color:#ffffff;stop-opacity:0.23529412" />
      <stop
         id="stop3460-7-0-2-4-2"
         offset="0.99001008"
         style="stop-color:#ffffff;stop-opacity:0.15686275" />
      <stop
         id="stop3462-0-9-8-7-2"
         offset="1"
         style="stop-color:#ffffff;stop-opacity:0.39215687" />
    </linearGradient>
    <linearGradient
       id="4632">
      <stop
         id="stop4634-4-4-7-7-4"
         offset="0"
         style="stop-color:#b4cee1;stop-opacity:1" />
      <stop
         id="stop4636-3-1-5-1-3"
         offset="1"
         style="stop-color:#5d9fcd;stop-opacity:1" />
    </linearGradient>
    <linearGradient
       id="50485">
      <stop
         id="stop2667-18"
         offset="0"
         style="stop-color:#000000;stop-opacity:0" />
      <stop
         id="stop2669-9"
         offset="0.5"
         style="stop-color:#000000;stop-opacity:1" />
      <stop
         id="stop2671-33"
         offset="1"
         style="stop-color:#000000;stop-opacity:0" />
    </linearGradient>
    <linearGradient
       id="46464">
      <stop
         id="stop4648-8-0-3-6"
         offset="0"
         style="stop-color:#f9f9f9;stop-opacity:1" />
      <stop
         id="stop4650-1-7-3-4"
         offset="1"
         style="stop-color:#d8d8d8;stop-opacity:1" />
    </linearGradient>
    <linearGradient
       id="61299">
      <stop
         id="stop4661"
         offset="0"
         style="stop-color:#000000;stop-opacity:0.498" />
      <stop
         id="stop4663"
         offset="1"
         style="stop-color:#000000;stop-opacity:0" />
    </linearGradient>
    <linearGradient
       gradientTransform="matrix(0.61904762,0,0,0.61904762,57.6081,175.42857)"
       gradientUnits="userSpaceOnUse"
       xlink:href="#46464"
       id="linearGradient2012"
       x1="62.988873"
       x2="62.988873"
       y1="17.469706"
       y2="20.469706" />
    <linearGradient
       gradientTransform="matrix(0.05114282,0,0,0.01591575,85.510133,195.29927)"
       gradientUnits="userSpaceOnUse"
       xlink:href="#50485"
       id="linearGradient2014"
       x1="302.85715"
       x2="302.85715"
       y1="366.64789"
       y2="609.50507" />
    <radialGradient
       cx="605.71429"
       cy="486.64789"
       fx="605.71429"
       fy="486.64789"
       gradientTransform="matrix(0.01983573,0,0,0.01591575,104.38774,195.29927)"
       gradientUnits="userSpaceOnUse"
       xlink:href="#linearGradient4712"
       id="radialGradient2016"
       r="117.14286" />
    <radialGradient
       cx="605.71429"
       cy="486.64789"
       fx="605.71429"
       fy="486.64789"
       gradientTransform="matrix(-0.01983573,0,0,0.01591575,103.60148,195.29927)"
       gradientUnits="userSpaceOnUse"
       xlink:href="#linearGradient4712"
       id="radialGradient2018"
       r="117.14286" />
    <linearGradient
       gradientTransform="matrix(0.64444432,0,0,0.54135319,88.53343,179.48872)"
       gradientUnits="userSpaceOnUse"
       xlink:href="#4632"
       id="linearGradient2020"
       x1="35.792694"
       x2="35.792694"
       y1="17.118193"
       y2="43.761127" />
    <linearGradient
       gradientTransform="matrix(0.89186139,0,0,0.86792712,91.12074,183.57503)"
       gradientUnits="userSpaceOnUse"
       xlink:href="#34542"
       id="linearGradient2022"
       x1="27.335257"
       x2="27.335257"
       y1="7.4026608"
       y2="21.228706" />
    <linearGradient
       gradientTransform="translate(8,-4)"
       gradientUnits="userSpaceOnUse"
       xlink:href="#61299"
       id="linearGradient2024"
       x1="96"
       x2="96"
       y1="210"
       y2="203" />
  </defs>
  <g
     id="g153"
     transform="translate(-1631.9995,-174)">
    <g
       id="g13481">
      <g
         id="use5546"
         transform="translate(1544)">
        <path
           d="m 92.00009,180.50008 c -0.43342,0.005 -0.5,0.21723 -0.5,0.6349 V 182.5 c -1.24568,0 -1,-0.002 -1,0.54389 V 190.5 H 117.5 l 9e-5,-7.45611 c 1e-5,-0.41767 -0.34799,-0.54876 -0.78141,-0.54389 h -14.21859 v -1.36502 c 0,-0.41767 -0.26424,-0.63977 -0.69767,-0.6349 z"
           id="path1990"
           style="color:#000000;display:inline;overflow:visible;visibility:visible;opacity:0.3;fill:none;stroke:#000000;stroke-width:1;stroke-linecap:butt;stroke-linejoin:miter;stroke-miterlimit:4;stroke-dasharray:none;stroke-dashoffset:0;stroke-opacity:1;marker:none;enable-background:accumulate" />
        <path
           d="m 92.00009,181 v 2 h -1 L 91,190 h 26 l 9e-5,-7 h -15 v -2 z"
           id="path1992"
           style="color:#000000;display:inline;overflow:visible;visibility:visible;fill:url(#linearGradient2012);fill-opacity:1;fill-rule:nonzero;stroke:none;stroke-width:1;marker:none;enable-background:accumulate" />
        <path
           d="m 92.50009,181.5 v 2 h -1 v 6 h 25 v -6 h -15 v -2 z"
           id="path1994"
           style="color:#000000;display:inline;overflow:visible;visibility:visible;opacity:0.3;fill:none;stroke:#ffffff;stroke-width:1;stroke-linecap:round;stroke-linejoin:miter;stroke-miterlimit:4;stroke-dasharray:none;stroke-dashoffset:0;stroke-opacity:1;marker:none;enable-background:accumulate" />
        <rect
           height="3.8652544"
           id="rect1996"
           style="display:inline;overflow:visible;visibility:visible;opacity:0.3;fill:url(#linearGradient2014);fill-opacity:1;fill-rule:nonzero;stroke:none;stroke-width:1;marker:none"
           width="24.694677"
           x="91.64727"
           y="201.13475" />
        <path
           d="m 116.34195,201.13488 c 0,0 0,3.86504 0,3.86504 1.02149,0.007 2.46947,-0.86596 2.46947,-1.93277 0,-1.06681 -1.13991,-1.93227 -2.46947,-1.93227 z"
           id="path1998"
           style="display:inline;overflow:visible;visibility:visible;opacity:0.3;fill:url(#radialGradient2016);fill-opacity:1;fill-rule:nonzero;stroke:none;stroke-width:1;marker:none" />
        <path
           d="m 91.647272,201.13488 c 0,0 0,3.86504 0,3.86504 -1.021492,0.007 -2.469468,-0.86596 -2.469468,-1.93277 0,-1.06681 1.139907,-1.93227 2.469468,-1.93227 z"
           id="path2000"
           style="display:inline;overflow:visible;visibility:visible;opacity:0.3;fill:url(#radialGradient2018);fill-opacity:1;fill-rule:nonzero;stroke:none;stroke-width:1;marker:none" />
        <path
           d="m 88.5,188.5 1.5,15 h 28 l 1.5,-15 z"
           id="path2002"
           style="color:#000000;display:inline;overflow:visible;visibility:visible;fill:url(#linearGradient2020);fill-opacity:1;fill-rule:nonzero;stroke:none;stroke-width:0.9176628;marker:none;enable-background:accumulate" />
        <path
           d="m 89.601563,189.5 1.265854,13 h 26.265163 l 1.26586,-13 z"
           id="path2004"
           style="color:#000000;display:inline;overflow:visible;visibility:visible;opacity:0.5;fill:none;stroke:url(#linearGradient2022);stroke-width:1;stroke-linecap:round;stroke-linejoin:miter;stroke-miterlimit:4;stroke-dasharray:none;stroke-dashoffset:0;stroke-opacity:1;marker:none;enable-background:accumulate" />
        <path
           d="m 88.5,188.5 1.5,15 h 28 l 1.5,-15 z"
           id="path2006"
           style="color:#000000;display:inline;overflow:visible;visibility:visible;opacity:0.3;fill:none;fill-opacity:1;fill-rule:nonzero;stroke:#000000;stroke-width:1;stroke-linejoin:round;stroke-miterlimit:4;stroke-dasharray:none;stroke-opacity:1;marker:none;enable-background:accumulate" />
        <path
           d="m 88.5,188 c -0.295601,-2.3e-4 -0.526883,0.25464 -0.498047,0.54883 l 1.5,15 C 89.527113,203.80499 89.742611,204.0002 90,204 h 28 c 0.25739,2e-4 0.47289,-0.19501 0.49805,-0.45117 l 1.5,-15 C 120.02689,188.25464 119.7956,187.99977 119.5,188 Z"
           id="path2008"
           style="color:#000000;font-style:normal;font-variant:normal;font-weight:normal;font-stretch:normal;font-size:medium;line-height:normal;font-family:sans-serif;font-variant-ligatures:normal;font-variant-position:normal;font-variant-caps:normal;font-variant-numeric:normal;font-variant-alternates:normal;font-feature-settings:normal;text-indent:0;text-align:start;text-decoration:none;text-decoration-line:none;text-decoration-style:solid;text-decoration-color:#000000;letter-spacing:normal;word-spacing:normal;text-transform:none;writing-mode:lr-tb;direction:ltr;text-orientation:mixed;dominant-baseline:auto;baseline-shift:baseline;text-anchor:start;white-space:normal;shape-padding:0;clip-rule:nonzero;display:inline;overflow:visible;visibility:visible;opacity:0.3;isolation:auto;mix-blend-mode:normal;color-interpolation:sRGB;color-interpolation-filters:linearRGB;solid-color:#000000;solid-opacity:1;vector-effect:none;fill:url(#linearGradient2024);fill-opacity:1;fill-rule:nonzero;stroke:none;stroke-width:1;stroke-linecap:butt;stroke-linejoin:round;stroke-miterlimit:4;stroke-dasharray:none;stroke-dashoffset:0;stroke-opacity:1;marker:none;color-rendering:auto;image-rendering:auto;shape-rendering:auto;text-rendering:auto;enable-background:accumulate" />
      </g>
      <path
         d="m 1649.1234,194.5623 c -0.032,0.003 -0.064,0.0113 -0.094,0.0254 l -2.686,1.19346 h 2.1391 l 0.4062,-0.19045 0.1407,0.19045 h 1.229 l -0.8853,-1.11727 c -0.052,-0.0731 -0.1533,-0.11142 -0.25,-0.10157 z m -3.6234,1.61243 -1.375,0.64751 c -0.12,0.0563 -0.1631,0.18185 -0.094,0.27932 l 1.6014,2.0568 -0.1326,-1.61243 -0.2344,-0.33011 0.2344,-0.11426 z m 0.75,0.0127 c -0.1386,0 -0.2533,0.0906 -0.25,0.20315 l 0.1326,4.46908 c 0,0.1125 0.1114,0.20314 0.25,0.20314 h 5.4558 c 0.1385,0 0.2428,-0.0908 0.25,-0.20314 l 0.2872,-4.46908 c 0.01,-0.11232 -0.1115,-0.20315 -0.25,-0.20315 z M 1647,197 h 4.3756 l -0.2872,2.84396 h -3.9558 z"
         id="path16033"
         style="color:#000000;display:inline;overflow:visible;visibility:visible;opacity:0.2;fill:#ffffff;fill-opacity:1;fill-rule:nonzero;stroke:none;stroke-width:1.70000005;marker:none;enable-background:accumulate" />
      <path
         d="m 1649.1234,193.5623 c -0.032,0.003 -0.064,0.0113 -0.094,0.0254 l -2.686,1.19346 h 2.1391 l 0.4062,-0.19045 0.1407,0.19045 h 1.229 l -0.8853,-1.11727 c -0.052,-0.0731 -0.1533,-0.11142 -0.25,-0.10157 z m -3.6234,1.61243 -1.375,0.64751 c -0.12,0.0563 -0.1631,0.18185 -0.094,0.27932 l 1.6014,2.0568 -0.1326,-1.61243 -0.2344,-0.33011 0.2344,-0.11426 z m 0.75,0.0127 c -0.1386,0 -0.2533,0.0906 -0.25,0.20315 l 0.1326,4.46908 c 0,0.1125 0.1114,0.20314 0.25,0.20314 h 5.4558 c 0.1385,0 0.2428,-0.0908 0.25,-0.20314 l 0.2872,-4.46908 c 0.01,-0.11232 -0.1115,-0.20315 -0.25,-0.20315 z M 1647,196 h 4.3756 l -0.2872,2.84396 h -3.9558 z"
         id="path13461"
         style="color:#000000;display:inline;overflow:visible;visibility:visible;opacity:0.55;fill:#175785;fill-opacity:1;fill-rule:nonzero;stroke:none;stroke-width:1.70000005;marker:none;enable-background:accumulate" />
    </g>
  </g>
</svg>
