<svg xmlns="http://www.w3.org/2000/svg" xmlns:xlink="http://www.w3.org/1999/xlink" viewBox="0 0 128 128"><defs><linearGradient x1="9" y1="29.057" x2="9" y2="26.03" id="F" xlink:href="#a" gradientUnits="userSpaceOnUse" gradientTransform="matrix(1.7013 -1.70964 2.29226 2.28086 -10.096 -20.132)"/><linearGradient id="a"><stop offset="0" stop-color="#ece5a5"/><stop offset="1" stop-color="#fcfbf2"/></linearGradient><linearGradient x1="5.518" y1="37.372" x2="9.522" y2="41.392" id="G" xlink:href="#b" gradientUnits="userSpaceOnUse" gradientTransform="matrix(1.49426 .0645 .06442 1.4924 51.79 -29.803)"/><linearGradient id="b"><stop offset="0" stop-color="#dbce48"/><stop offset="1" stop-color="#c5b625"/></linearGradient><linearGradient x1="30.038" y1="24.99" x2="30.038" y2="30" id="E" xlink:href="#c" gradientUnits="userSpaceOnUse" gradientTransform="matrix(1.7013 -1.70964 2.29226 2.28086 -6.543 -23.703)"/><linearGradient id="c"><stop offset="0" stop-color="#b1b1b1"/><stop offset=".5" stop-color="#fff"/><stop offset="1" stop-color="#8f8f8f"/></linearGradient><linearGradient x1="30.038" y1="24.99" x2="30.038" y2="30" id="D" xlink:href="#d" gradientUnits="userSpaceOnUse" gradientTransform="matrix(1.7013 -1.70964 2.29226 2.28086 -6.056 -24.193)"/><linearGradient id="d"><stop offset="0" stop-color="#565656"/><stop offset=".5" stop-color="#9a9a9a"/><stop offset="1" stop-color="#545454"/></linearGradient><linearGradient x1="30.038" y1="24.99" x2="30.038" y2="30" id="C" xlink:href="#e" gradientUnits="userSpaceOnUse" gradientTransform="matrix(1.7013 -1.70964 2.29226 2.28086 -8.244 -21.994)"/><linearGradient id="e"><stop offset="0" stop-color="#b1b1b1"/><stop offset=".5" stop-color="#fff"/><stop offset="1" stop-color="#8f8f8f"/></linearGradient><linearGradient x1="30.038" y1="24.99" x2="30.038" y2="30" id="B" xlink:href="#f" gradientUnits="userSpaceOnUse" gradientTransform="matrix(1.7013 -1.70964 2.29226 2.28086 -7.757 -22.483)"/><linearGradient id="f"><stop offset="0" stop-color="#565656"/><stop offset=".5" stop-color="#9a9a9a"/><stop offset="1" stop-color="#545454"/></linearGradient><linearGradient x1="30.038" y1="24.99" x2="30.038" y2="30" id="A" xlink:href="#g" gradientUnits="userSpaceOnUse" gradientTransform="matrix(1.7013 -1.70964 2.29226 2.28086 -9.937 -20.292)"/><linearGradient id="g"><stop offset="0" stop-color="#b1b1b1"/><stop offset=".5" stop-color="#fff"/><stop offset="1" stop-color="#8f8f8f"/></linearGradient><linearGradient x1="30.038" y1="24.99" x2="30.038" y2="30" id="z" xlink:href="#h" gradientUnits="userSpaceOnUse" gradientTransform="matrix(1.7013 -1.70964 2.29226 2.28086 -9.45 -20.782)"/><linearGradient id="h"><stop offset="0" stop-color="#565656"/><stop offset=".5" stop-color="#9a9a9a"/><stop offset="1" stop-color="#545454"/></linearGradient><linearGradient x1="23.576" y1="25.357" x2="23.576" y2="31.211" id="y" xlink:href="#i" gradientUnits="userSpaceOnUse" gradientTransform="matrix(1.7508 -1.75938 1.95867 1.94892 -3.034 -11.78)"/><linearGradient id="i"><stop offset="0" stop-color="#181818"/><stop offset=".135" stop-color="#dbdbdb"/><stop offset=".202" stop-color="#a4a4a4"/><stop offset=".27" stop-color="#fff"/><stop offset=".447" stop-color="#8d8d8d"/><stop offset=".571" stop-color="#959595"/><stop offset=".72" stop-color="#cecece"/><stop offset="1" stop-color="#181818"/></linearGradient><linearGradient x1="22.004" y1="44.854" x2="22.004" y2="3.072" id="x" xlink:href="#j" gradientUnits="userSpaceOnUse" gradientTransform="translate(-.333 -64.746) scale(2.66658)"/><linearGradient id="j"><stop offset="0" stop-color="#a0a0a0"/><stop offset="1" stop-color="#c8c8c8"/></linearGradient><linearGradient x1="68.437" y1="4.411" x2="68.437" y2="40.928" id="w" xlink:href="#k" gradientUnits="userSpaceOnUse" gradientTransform="matrix(1.21622 0 0 2.9028 -27.548 -65.835)"/><linearGradient id="k"><stop offset="0" stop-color="#fff"/><stop offset=".01" stop-color="#fff" stop-opacity=".235"/><stop offset=".99" stop-color="#fff" stop-opacity=".157"/><stop offset="1" stop-color="#fff" stop-opacity=".392"/></linearGradient><linearGradient x1="-60.97" y1="13.668" x2="-60.908" y2="114.535" id="u" xlink:href="#l" gradientUnits="userSpaceOnUse" gradientTransform="matrix(1.19672 .00072 -.00073 1.18645 124.606 -82.386)"/><linearGradient id="l"><stop offset="0" stop-color="#f4f4f4"/><stop offset="1" stop-color="#dbdbdb"/></linearGradient><linearGradient x1="11.536" y1="44.952" x2="11.536" y2="-1.004" id="v" xlink:href="#j" gradientUnits="userSpaceOnUse" gradientTransform="matrix(2.6572 0 0 2.65844 .228 -63.674)"/><radialGradient cx="4.993" cy="43.5" r="2.5" fx="4.993" fy="43.5" id="r" xlink:href="#m" gradientUnits="userSpaceOnUse" gradientTransform="matrix(2.00378 0 0 1.4 27.988 -17.4)"/><linearGradient id="m"><stop offset="0" stop-color="#181818"/><stop offset="1" stop-color="#181818" stop-opacity="0"/></linearGradient><radialGradient cx="4.993" cy="43.5" r="2.5" fx="4.993" fy="43.5" id="s" xlink:href="#n" gradientUnits="userSpaceOnUse" gradientTransform="matrix(2.00378 0 0 1.4 -20.012 -104.4)"/><linearGradient id="n"><stop offset="0" stop-color="#181818"/><stop offset="1" stop-color="#181818" stop-opacity="0"/></linearGradient><linearGradient x1="25.058" y1="47.028" x2="25.058" y2="39.999" id="t" xlink:href="#o" gradientUnits="userSpaceOnUse"/><linearGradient id="o"><stop offset="0" stop-color="#181818" stop-opacity="0"/><stop offset=".5" stop-color="#181818"/><stop offset="1" stop-color="#181818" stop-opacity="0"/></linearGradient><linearGradient id="p"><stop offset="0"/><stop offset="1" stop-opacity="0"/></linearGradient><radialGradient cx="-4.029" cy="93.468" r="35.338" fx="-4.029" fy="93.468" id="q" xlink:href="#p" gradientUnits="userSpaceOnUse" gradientTransform="matrix(1 0 0 .43648 0 52.67)"/></defs><path d="M31.31 93.468a35.338 15.424 0 1 1-70.677 0 35.338 15.424 0 1 1 70.676 0z" transform="matrix(1.5564 0 0 .389 70.27 81.642)" opacity=".2" color="#000" fill="url(#q)" overflow="visible"/><g opacity=".4"><path fill="url(#r)" d="M38 40h5v7h-5z" transform="matrix(2.6842 0 0 .7143 -.42 87.43)"/><path transform="matrix(-2.6842 0 0 -.7143 -.42 87.43)" fill="url(#s)" d="M-10-47h5v7h-5z"/><path fill="url(#t)" d="M10 40h28v7H10z" transform="matrix(2.6842 0 0 .7143 -.42 87.43)"/></g><path d="M20.157-54.496h87.688L110.5 54.5l-93-.056 2.657-108.94z" fill="url(#u)" stroke="url(#v)" stroke-linecap="round" stroke-linejoin="round" transform="translate(0 64)"/><path d="M21.1-53.5h85.802l2.598 107-91-.055L21.1-53.5z" color="#000" fill="none" stroke="url(#w)" stroke-linecap="round" overflow="visible" transform="translate(0 64)"/><path d="M33.5 10.587l-1.167 105.33" opacity=".591" fill="#80b3ff" fill-rule="evenodd" stroke="#f6abab" stroke-width=".5" stroke-linecap="round" stroke-linejoin="round"/><path d="M106.483 25.587l-85.81-.492m86.007 5.825l-86.03-.492m86.25 5.825l-86.47-.492m86.69 5.83l-86.91-.49m86.91 5.83l-86.91-.49m87.132 5.83l-87.354-.49" opacity=".437" fill="#80b3ff" fill-rule="evenodd" stroke="#80b3ff" stroke-width=".25" stroke-linecap="round" stroke-linejoin="round"/><path d="M107.342 57.586l-87.354-.493m87.574 5.827l-87.794-.493m87.794 5.825l-87.794-.492m88.235 5.825l-88.676-.492m88.676 5.797l-88.676-.493m89.337 5.853l-89.998-.49m89.998 5.706l-89.998-.492m89.998 5.78l-89.998-.492m89.998 5.78l-89.998-.492m89.998 5.78l-89.998-.492m89.998 6.08l-89.998-.493" opacity=".437" fill="#80b3ff" fill-rule="evenodd" stroke="#80b3ff" stroke-width=".25" stroke-linecap="round" stroke-linejoin="round" overflow="visible"/><path d="M93.664 10.366l2.8 105.33" opacity=".591" fill="none" stroke="#b9d5ff" stroke-width=".5" stroke-linecap="round" stroke-linejoin="round"/><path d="M34.33-33.5h6.26m.895 0H47.3m.935 0h5.188m.853 0h2.236m.894 0h5.01m.983 0h13.14m.89 0h10.02m.89 0h3.04m-57.068 5h9.707m1.13 0h4.64m.857 0h2.29m.93 0h4.273m.9 0h4.387m.83 0h6.884m.897 0h9.076m-46.78 4.973h8.22m.865 0H56.95m.83 0h6.562m.84 0h6.14m.88 0h5.23m.84 0l8.225.054M34.33-18.5h11.424m.898 0H59m.852 0h4.853m.894 0h11.54m.77 0h7.913m.894 0h3.134m.893 0h1.735m-58.168 5h4.26m1.31 0h15.79m-21.365 27h9.704m1.13 0h4.64m.86 0h2.29m.93 0h4.273m.893 0h4.384m.825 0h6.883m-36.8 10.918h8.22m.86 0h13.54m.83 0h6.563m23.194.164h13.404M34.33 8.5h11.424m.898 0H59m.85 0h4.854m.894 0h11.548M34.33-2.5h6.26m.895 0H47.3m.935 0h5.188m.853 0h2.236m.894 0h5.01m.983 0h13.14m.89 0h10.02m-53.13 6h10.55m.83 0h11.2m.85 0h4.38m.82 0h10.53m.84 0h11.51m-51.516 26h9.854m1.06 0h4.347m1.02 0h2.167m.69 0h4.274m.564 0h22.65m1.063 0h6.044m.81 0h1.53m-44.846 6h3.215m-14.44 0H44.6m4.98 0h7.477m.79 0h10.98m.852 0h7.442m.75 0h1.533m.84 0h9.458m.967 0h4.95m-50.08 5h4.54m-15.765 0h10.29m6.464 0h6.38" fill="none" stroke="url(#x)" transform="translate(0 64)"/><path d="M101.625 62.906a.827.827 0 0 0-.438.156L69.75 83.094l-5.813 3.687-.156.07-6.87 15.47 17 .5.13-.09 5.85-3.69 30.19-19.38-.188-6.5a40.585 40.585 0 0 0-1.91-3.34c-2.1-3.3-4.332-5.9-5.72-6.72a1.22 1.22 0 0 0-.623-.18z" opacity=".15" fill="#0c0c0c" fill-rule="evenodd"/><path d="M66.156 17.994c1.19-.892 4.525.78 7.59 3.832 3.06 3.044 4.672 6.3 3.8 7.5-.004.006.075.068.07.072l42.693-42.9c1.08-1.09-.6-4.532-3.77-7.68-3.17-3.148-6.62-4.815-7.7-3.725l-42.69 42.9z" fill="url(#y)" stroke="#0c0c0c" stroke-width=".5" stroke-linejoin="round" transform="translate(0 64)"/><path d="M103.638 44.328c1.19-.892 4.525.782 7.59 3.833 3.06 3.05 4.67 6.3 3.8 7.5-.004.01.074.07.07.08l5.21-5.23.108-.1c.003-.004-.075-.067-.072-.07.872-1.2-.74-4.46-3.798-7.5-3.066-3.05-6.403-4.726-7.592-3.834l-.106.105-5.21 5.236z" opacity=".8" fill="#ffb6ed" stroke="#e28ccd" stroke-width=".5" stroke-linejoin="round"/><path d="M66.156 81.994c1.19-.892 4.525.78 7.59 3.832 3.06 3.044 4.672 6.3 3.8 7.5-.004.006.075.068.07.072l29.402-29.544.106-.107c.003-.005-.075-.067-.07-.072.87-1.2-.74-4.457-3.8-7.5-3.066-3.05-6.402-4.725-7.59-3.833l-.107.107-29.4 29.54z" opacity=".6" fill="#0c0c0c"/><path d="M97.798-13.803c1.19-.892 4.525.782 7.59 3.832 3.06 3.04 4.67 6.3 3.8 7.5-.004 0 .074.06.07.07l.533-.54c.01-.01-.07-.07-.07-.07.87-1.2-.74-4.46-3.8-7.5-3.06-3.05-6.4-4.73-7.59-3.83l-.53.53z" fill="url(#z)" transform="translate(0 64)"/><path d="M97.31-13.313c1.19-.893 4.526.78 7.592 3.832 3.06 3.04 4.67 6.3 3.798 7.5-.003 0 .075.06.072.07l.53-.54c.004-.01-.074-.07-.07-.07.872-1.2-.74-4.46-3.798-7.5-3.066-3.05-6.403-4.73-7.592-3.84l-.532.53z" fill="url(#A)" transform="translate(0 64)"/><path d="M99.49-15.504c1.19-.893 4.526.78 7.592 3.832 3.06 3.043 4.67 6.3 3.798 7.5-.003.005.075.067.072.072l.532-.534c.003-.005-.075-.067-.072-.072.872-1.2-.74-4.457-3.798-7.5-3.066-3.05-6.402-4.725-7.592-3.833l-.53.54z" fill="url(#B)" transform="translate(0 64)"/><path d="M99.004-15.015c1.19-.892 4.525.782 7.59 3.833 3.06 3.043 4.67 6.3 3.8 7.5-.004.005.074.067.07.072l.532-.535c.003-.004-.075-.066-.07-.07.87-1.202-.74-4.458-3.8-7.502-3.065-3.05-6.402-4.724-7.59-3.832l-.532.54z" fill="url(#C)" transform="translate(0 64)"/><path d="M101.192-17.214c1.19-.892 4.526.782 7.592 3.832 3.058 3.044 4.67 6.3 3.798 7.5-.003.006.075.068.07.072l.533-.534c.003-.004-.075-.067-.072-.07.872-1.202-.74-4.46-3.798-7.502-3.066-3.05-6.402-4.725-7.59-3.832l-.533.534z" fill="url(#D)" transform="translate(0 64)"/><path d="M100.705-16.724c1.19-.893 4.525.78 7.59 3.832 3.06 3.043 4.672 6.3 3.8 7.5-.003.005.075.067.07.072l.533-.534c.003-.005-.075-.067-.072-.072.872-1.2-.74-4.457-3.798-7.5-3.066-3.05-6.402-4.725-7.59-3.833l-.533.54z" fill="url(#E)" transform="translate(0 64)"/><path d="M57.975 37.412l19.422-7.922.166-.166c.872-1.2-.76-4.457-3.82-7.5-3.066-3.05-6.398-4.716-7.587-3.824l-8.18 19.412z" fill="url(#F)" fill-rule="evenodd" stroke="url(#G)" stroke-width=".5" transform="translate(0 64)"/><path d="M60.19 96.154l-2.217 5.237 5.298-2.17c-.42-.51-.81-1.02-1.32-1.53a21.47 21.47 0 0 0-1.75-1.53z" fill="#0c0c0c" fill-rule="evenodd" stroke="#0c0c0c" stroke-width=".5"/></svg>