<?xml version="1.0" encoding="UTF-8" standalone="no"?>
<!-- Created with Inkscape (http://www.inkscape.org/) -->
<svg
   xmlns:svg="http://www.w3.org/2000/svg"
   xmlns="http://www.w3.org/2000/svg"
   xmlns:xlink="http://www.w3.org/1999/xlink"
   version="1.0"
   width="128"
   height="128"
   id="svg3265">
  <defs
     id="defs3267">
    <radialGradient
       cx="605.71429"
       cy="486.64789"
       r="117.14286"
       fx="605.71429"
       fy="486.64789"
       id="radialGradient3409"
       xlink:href="#linearGradient5060"
       gradientUnits="userSpaceOnUse"
       gradientTransform="matrix(-2.774389,0,0,1.969706,112.7623,-872.8854)" />
    <linearGradient
       id="linearGradient5060">
      <stop
         id="stop5062"
         style="stop-color:#000000;stop-opacity:1"
         offset="0" />
      <stop
         id="stop5064"
         style="stop-color:#000000;stop-opacity:0"
         offset="1" />
    </linearGradient>
    <radialGradient
       cx="605.71429"
       cy="486.64789"
       r="117.14286"
       fx="605.71429"
       fy="486.64789"
       id="radialGradient3407"
       xlink:href="#linearGradient5060"
       gradientUnits="userSpaceOnUse"
       gradientTransform="matrix(2.774389,0,0,1.969706,-1891.633,-872.8854)" />
    <linearGradient
       id="linearGradient5048">
      <stop
         id="stop5050"
         style="stop-color:#000000;stop-opacity:0"
         offset="0" />
      <stop
         id="stop5056"
         style="stop-color:#000000;stop-opacity:1"
         offset="0.5" />
      <stop
         id="stop5052"
         style="stop-color:#000000;stop-opacity:0"
         offset="1" />
    </linearGradient>
    <linearGradient
       x1="302.85715"
       y1="366.64789"
       x2="302.85715"
       y2="609.50507"
       id="linearGradient3405"
       xlink:href="#linearGradient5048"
       gradientUnits="userSpaceOnUse"
       gradientTransform="matrix(2.774389,0,0,1.969706,-1892.179,-872.8854)" />
    <linearGradient
       id="linearGradient3332-412-419">
      <stop
         id="stop2554"
         style="stop-color:#611358;stop-opacity:1"
         offset="0" />
      <stop
         id="stop2556"
         style="stop-color:#a1619b;stop-opacity:1"
         offset="1" />
    </linearGradient>
    <linearGradient
       x1="10.014208"
       y1="44.960102"
       x2="10.014208"
       y2="2.8764627"
       id="linearGradient2487"
       xlink:href="#linearGradient3332-412-419"
       gradientUnits="userSpaceOnUse"
       gradientTransform="matrix(2.5746033,0,0,2.417534,2.2095747,8.9495584)" />
    <linearGradient
       id="linearGradient3242-593-605">
      <stop
         id="stop2544"
         style="stop-color:#d196bf;stop-opacity:1"
         offset="0" />
      <stop
         id="stop2546"
         style="stop-color:#bb70b6;stop-opacity:1"
         offset="0.26238" />
      <stop
         id="stop2548"
         style="stop-color:#954a9a;stop-opacity:1"
         offset="0.66093999" />
      <stop
         id="stop2550"
         style="stop-color:#6c3b77;stop-opacity:1"
         offset="1" />
    </linearGradient>
    <radialGradient
       cx="1.080768"
       cy="10.165854"
       r="23"
       fx="1.080768"
       fy="10.165854"
       id="radialGradient2485"
       xlink:href="#linearGradient3242-593-605"
       gradientUnits="userSpaceOnUse"
       gradientTransform="matrix(2.4209912e-7,3.6841156,-6.0135366,1.6643026e-7,125.13273,26.888104)" />
    <linearGradient
       id="linearGradient2238">
      <stop
         id="stop2240"
         style="stop-color:#ffffff;stop-opacity:1"
         offset="0" />
      <stop
         id="stop2242"
         style="stop-color:#ffffff;stop-opacity:0"
         offset="1" />
    </linearGradient>
    <linearGradient
       x1="12.578789"
       y1="-7.8073711"
       x2="12.578789"
       y2="41.827358"
       id="linearGradient2456"
       xlink:href="#linearGradient2238"
       gradientUnits="userSpaceOnUse"
       gradientTransform="matrix(2.6421428,0,0,2.4849252,0.5853629,9.8615818)" />
    <linearGradient
       id="linearGradient3202">
      <stop
         id="stop3204"
         style="stop-color:#ffffff;stop-opacity:1"
         offset="0" />
      <stop
         id="stop3206"
         style="stop-color:#ced3d6;stop-opacity:1"
         offset="1" />
    </linearGradient>
    <linearGradient
       x1="24.289156"
       y1="13.998323"
       x2="24.289156"
       y2="40.001602"
       id="linearGradient2452"
       xlink:href="#linearGradient3202"
       gradientUnits="userSpaceOnUse"
       gradientTransform="matrix(2.6923077,0,0,2.6923079,-0.6153822,-5.6922991)" />
    <linearGradient
       id="linearGradient8265-821-176-38-919-66-249">
      <stop
         id="stop2687"
         style="stop-color:#ffffff;stop-opacity:1"
         offset="0" />
      <stop
         id="stop2689"
         style="stop-color:#ffffff;stop-opacity:0"
         offset="1" />
    </linearGradient>
    <linearGradient
       x1="16.626165"
       y1="15.298182"
       x2="20.054544"
       y2="24.627615"
       id="linearGradient2449"
       xlink:href="#linearGradient8265-821-176-38-919-66-249"
       gradientUnits="userSpaceOnUse"
       gradientTransform="matrix(2.6122449,0,0,2.786879,1.3061223,1.3658155)" />
    <linearGradient
       x1="16.626165"
       y1="15.298182"
       x2="20.054544"
       y2="24.627615"
       id="linearGradient3219"
       xlink:href="#linearGradient8265-821-176-38-919-66-249"
       gradientUnits="userSpaceOnUse"
       gradientTransform="matrix(2.6122449,0,0,2.786879,1.3061223,3.3658155)" />
    <linearGradient
       x1="24.289156"
       y1="13.998323"
       x2="24.289156"
       y2="40.001602"
       id="linearGradient3222"
       xlink:href="#linearGradient3202"
       gradientUnits="userSpaceOnUse"
       gradientTransform="matrix(2.6923077,0,0,2.6923079,-0.6153822,-3.6922991)" />
    <linearGradient
       x1="12.578789"
       y1="-7.8073711"
       x2="12.578789"
       y2="41.827358"
       id="linearGradient3226"
       xlink:href="#linearGradient2238"
       gradientUnits="userSpaceOnUse"
       gradientTransform="matrix(2.6421428,0,0,2.4849252,0.5853629,11.861582)" />
    <radialGradient
       cx="1.080768"
       cy="10.165854"
       r="23"
       fx="1.080768"
       fy="10.165854"
       id="radialGradient3255"
       xlink:href="#linearGradient3242-593-605"
       gradientUnits="userSpaceOnUse"
       gradientTransform="matrix(2.4209912e-7,3.6841156,-6.0135366,1.6643026e-7,125.13273,28.888104)" />
    <linearGradient
       x1="10.014208"
       y1="44.960102"
       x2="10.014208"
       y2="2.8764627"
       id="linearGradient3257"
       xlink:href="#linearGradient3332-412-419"
       gradientUnits="userSpaceOnUse"
       gradientTransform="matrix(2.5746033,0,0,2.417534,2.2095747,10.949558)" />
    <linearGradient
       x1="302.85715"
       y1="366.64789"
       x2="302.85715"
       y2="609.50507"
       id="linearGradient3263"
       xlink:href="#linearGradient5048"
       gradientUnits="userSpaceOnUse"
       gradientTransform="matrix(2.774389,0,0,1.969706,-1892.179,-872.8854)" />
    <radialGradient
       cx="605.71429"
       cy="486.64789"
       r="117.14286"
       fx="605.71429"
       fy="486.64789"
       id="radialGradient3265"
       xlink:href="#linearGradient5060"
       gradientUnits="userSpaceOnUse"
       gradientTransform="matrix(2.774389,0,0,1.969706,-1891.633,-872.8854)" />
    <radialGradient
       cx="605.71429"
       cy="486.64789"
       r="117.14286"
       fx="605.71429"
       fy="486.64789"
       id="radialGradient3267"
       xlink:href="#linearGradient5060"
       gradientUnits="userSpaceOnUse"
       gradientTransform="matrix(-2.774389,0,0,1.969706,112.7623,-872.8854)" />
  </defs>
  <g
     transform="matrix(6.3040714e-2,0,0,4.1809763e-2,120.09,109.3006)"
     id="g2546">
    <rect
       width="1339.6335"
       height="478.35718"
       x="-1559.2523"
       y="-150.69685"
       id="rect2512"
       style="opacity:0.40206185;fill:url(#linearGradient3263);fill-opacity:1;fill-rule:nonzero;stroke:none;stroke-width:1;stroke-linecap:round;stroke-linejoin:miter;marker:none;marker-start:none;marker-mid:none;marker-end:none;stroke-miterlimit:4;stroke-dasharray:none;stroke-dashoffset:0;stroke-opacity:1;visibility:visible;display:inline;overflow:visible" />
    <path
       d="M -219.61876,-150.68038 C -219.61876,-150.68038 -219.61876,327.65041 -219.61876,327.65041 C -76.744594,328.55086 125.78146,220.48075 125.78138,88.454235 C 125.78138,-43.572302 -33.655436,-150.68036 -219.61876,-150.68038 z"
       id="path2514"
       style="opacity:0.40206185;fill:url(#radialGradient3265);fill-opacity:1;fill-rule:nonzero;stroke:none;stroke-width:1;stroke-linecap:round;stroke-linejoin:miter;marker:none;marker-start:none;marker-mid:none;marker-end:none;stroke-miterlimit:4;stroke-dasharray:none;stroke-dashoffset:0;stroke-opacity:1;visibility:visible;display:inline;overflow:visible" />
    <path
       d="M -1559.2523,-150.68038 C -1559.2523,-150.68038 -1559.2523,327.65041 -1559.2523,327.65041 C -1702.1265,328.55086 -1904.6525,220.48075 -1904.6525,88.454235 C -1904.6525,-43.572302 -1745.2157,-150.68036 -1559.2523,-150.68038 z"
       id="path2516"
       style="opacity:0.40206185;fill:url(#radialGradient3267);fill-opacity:1;fill-rule:nonzero;stroke:none;stroke-width:1;stroke-linecap:round;stroke-linejoin:miter;marker:none;marker-start:none;marker-mid:none;marker-end:none;stroke-miterlimit:4;stroke-dasharray:none;stroke-dashoffset:0;stroke-opacity:1;visibility:visible;display:inline;overflow:visible" />
  </g>
  <rect
     width="121"
     height="99"
     rx="6.3224592"
     ry="6.3224592"
     x="3.5"
     y="19.5"
     id="rect2551"
     style="fill:url(#radialGradient3255);fill-opacity:1;fill-rule:evenodd;stroke:url(#linearGradient3257);stroke-width:1;stroke-linecap:round;stroke-linejoin:round;stroke-miterlimit:4;stroke-dasharray:none;stroke-dashoffset:0;stroke-opacity:1" />
  <g
     transform="matrix(2.7272533,0,0,2.7222172,-1.4616171,0.9533308)"
     id="g3503"
     style="stroke-width:0.37469774;stroke-miterlimit:4;stroke-dasharray:none">
    <path
       d="M 5.71875,7 L 23.59375,24.96875 L 10.5625,7 L 5.71875,7 z"
       id="path13905"
       style="opacity:0.07086612;fill:#eeeeec;fill-rule:evenodd;stroke:none;stroke-width:0.37469774;stroke-linecap:butt;stroke-linejoin:miter;stroke-miterlimit:4;stroke-dasharray:none;stroke-opacity:1;display:inline" />
    <path
       d="M 45.15625,7.46875 L 25.0625,24.8125 L 46,11.78125 L 46,9.15625 C 46,8.4558663 45.668987,7.8640444 45.15625,7.46875 z"
       id="path13907"
       style="opacity:0.07086612;fill:#eeeeec;fill-rule:evenodd;stroke:none;stroke-width:0.37469774;stroke-linecap:butt;stroke-linejoin:miter;stroke-miterlimit:4;stroke-dasharray:none;stroke-opacity:1;display:inline" />
    <path
       d="M 24.90625,25.375 L 46,35.6875 L 46,26.96875 L 24.90625,25.375 z"
       id="path13909"
       style="opacity:0.07086612;fill:#eeeeec;fill-rule:evenodd;stroke:none;stroke-width:0.37469774;stroke-linecap:butt;stroke-linejoin:miter;stroke-miterlimit:4;stroke-dasharray:none;stroke-opacity:1;display:inline" />
    <path
       d="M 24.5625,25.6875 L 30.03125,43 L 39.78125,43 L 24.5625,25.6875 z"
       id="path13911"
       style="opacity:0.07086612;fill:#eeeeec;fill-rule:evenodd;stroke:none;stroke-width:0.37469774;stroke-linecap:butt;stroke-linejoin:miter;stroke-miterlimit:4;stroke-dasharray:none;stroke-opacity:1;display:inline" />
    <path
       d="M 23.875,25.8125 C 23.463627,25.665381 9.9514594,37.061203 3.21875,42.78125 C 3.5037244,42.918789 3.8174992,43 4.15625,43 L 10.0625,43 L 23.875,25.8125 z"
       id="path13913"
       style="opacity:0.07086612;fill:#eeeeec;fill-rule:evenodd;stroke:none;stroke-width:0.37469774;stroke-linecap:butt;stroke-linejoin:miter;stroke-miterlimit:4;stroke-dasharray:none;stroke-opacity:1;display:inline" />
    <path
       d="M 2,22.65625 L 2,31.625 L 23,25.71875 L 2,22.65625 z"
       id="path13915"
       style="opacity:0.02078738;fill:#000000;fill-opacity:1;fill-rule:evenodd;stroke:none;stroke-width:0.37469774;stroke-linecap:butt;stroke-linejoin:miter;marker:none;marker-start:none;marker-mid:none;marker-end:none;stroke-miterlimit:4;stroke-dasharray:none;stroke-dashoffset:0;stroke-opacity:1;visibility:visible;display:inline;overflow:visible;enable-background:accumulate" />
    <path
       d="M 2.03125,8.78125 C 2.009942,8.9036079 2,9.0276113 2,9.15625 L 2,17.0625 L 24.03125,25.21875 L 2.03125,8.78125 z"
       id="path13917"
       style="opacity:0.07086612;fill:#eeeeec;fill-rule:evenodd;stroke:none;stroke-width:0.37469774;stroke-linecap:butt;stroke-linejoin:miter;stroke-miterlimit:4;stroke-dasharray:none;stroke-opacity:1;display:inline" />
    <path
       d="M 21.9375,7 L 24.65625,24.5625 L 35.8125,7 L 21.9375,7 z"
       id="path13919"
       style="opacity:0.07086612;fill:#eeeeec;fill-rule:evenodd;stroke:none;stroke-width:0.37469774;stroke-linecap:butt;stroke-linejoin:miter;stroke-miterlimit:4;stroke-dasharray:none;stroke-opacity:1;display:inline" />
    <path
       d="M 24.28125,25.90625 L 20.78125,43 L 26.6875,43 L 24.28125,25.90625 z"
       id="path13921"
       style="opacity:0.07086612;fill:#eeeeec;fill-rule:evenodd;stroke:none;stroke-width:0.37469774;stroke-linecap:butt;stroke-linejoin:miter;stroke-miterlimit:4;stroke-dasharray:none;stroke-opacity:1;display:inline" />
    <path
       d="M 10.65625,7 L 23.96875,24.78125 L 18.625,7 L 10.65625,7 z"
       id="path13923"
       style="opacity:0.02078738;fill:#000000;fill-opacity:1;fill-rule:evenodd;stroke:none;stroke-width:0.37469774;stroke-linecap:butt;stroke-linejoin:miter;stroke-miterlimit:4;stroke-dasharray:none;stroke-opacity:1;display:inline" />
    <path
       d="M 41.1875,7 L 30.1875,19.75 L 44.34375,7.0625 C 44.181596,7.0239823 44.018018,7 43.84375,7 L 41.1875,7 z"
       id="path13925"
       style="opacity:0.02078738;fill:#ffffff;fill-opacity:1;fill-rule:evenodd;stroke:none;stroke-width:0.37469774;stroke-linecap:butt;stroke-linejoin:miter;stroke-miterlimit:4;stroke-dasharray:none;stroke-opacity:1;display:inline" />
    <path
       d="M 46,15.71875 L 24.96875,25.1875 L 46,22.6875 L 46,15.71875 z"
       id="path13927"
       style="opacity:0.02078738;fill:#000000;fill-opacity:1;fill-rule:evenodd;stroke:none;stroke-width:0.37469774;stroke-linecap:butt;stroke-linejoin:miter;marker:none;marker-start:none;marker-mid:none;marker-end:none;stroke-miterlimit:4;stroke-dasharray:none;stroke-dashoffset:0;stroke-opacity:1;visibility:visible;display:inline;overflow:visible;enable-background:accumulate" />
    <path
       d="M 24.96875,25.8125 L 46,40.90625 C 46.000606,40.885089 46,40.865063 46,40.84375 L 46,37.59375 L 24.96875,25.8125 z"
       id="path13929"
       style="opacity:0.02078738;fill:#ffffff;fill-opacity:1;fill-rule:evenodd;stroke:none;stroke-width:0.37469774;stroke-linecap:butt;stroke-linejoin:miter;stroke-miterlimit:4;stroke-dasharray:none;stroke-opacity:1;display:inline" />
    <path
       d="M 24.0625,25.90625 C 23.927882,25.761819 16.769429,37.21187 13.53125,43 L 20.0625,43 L 24.0625,25.90625 z"
       id="path13931"
       style="opacity:0.02078738;fill:#000000;fill-opacity:1;fill-rule:evenodd;stroke:none;stroke-width:0.37469774;stroke-linecap:butt;stroke-linejoin:miter;marker:none;marker-start:none;marker-mid:none;marker-end:none;stroke-miterlimit:4;stroke-dasharray:none;stroke-dashoffset:0;stroke-opacity:1;visibility:visible;display:inline;overflow:visible;enable-background:accumulate" />
    <path
       d="M 23.25,25.875 L 2,33.0625 L 2,40.65625 L 23.25,25.875 z"
       id="path13933"
       style="opacity:0.02078738;fill:#ffffff;fill-opacity:1;fill-rule:evenodd;stroke:none;stroke-width:0.37469774;stroke-linecap:butt;stroke-linejoin:miter;stroke-miterlimit:4;stroke-dasharray:none;stroke-opacity:1;display:inline" />
    <path
       d="M 2,17.53125 L 2,20.71875 L 23.65625,25.53125 L 2,17.53125 z"
       id="path13935"
       style="opacity:0.02078738;fill:#ffffff;fill-opacity:1;fill-rule:evenodd;stroke:none;stroke-width:0.37469774;stroke-linecap:butt;stroke-linejoin:miter;stroke-miterlimit:4;stroke-dasharray:none;stroke-opacity:1;display:inline" />
    <path
       d="M 15.34375,7 L 23.71875,24.40625 L 16.78125,7 L 15.34375,7 z"
       id="path13937"
       style="opacity:0.07086612;fill:#ffffff;fill-opacity:1;fill-rule:evenodd;stroke:none;stroke-width:0.37469774;stroke-linecap:butt;stroke-linejoin:miter;stroke-miterlimit:4;stroke-dasharray:none;stroke-opacity:1;display:inline" />
    <path
       d="M 46,18.1875 L 25.59375,25.15625 L 46,20.21875 L 46,18.1875 z"
       id="path13939"
       style="opacity:0.11083972;fill:#ffffff;fill-opacity:1;fill-rule:evenodd;stroke:none;stroke-width:0.37469774;stroke-linecap:butt;stroke-linejoin:miter;stroke-miterlimit:4;stroke-dasharray:none;stroke-opacity:1;display:inline" />
    <path
       d="M 23.71875,25.46875 L 2,27 L 2,29.6875 L 23.71875,25.46875 z"
       id="path13941"
       style="opacity:0.12824432;fill:#ffffff;fill-opacity:1;fill-rule:evenodd;stroke:none;stroke-width:0.37469774;stroke-linecap:butt;stroke-linejoin:miter;stroke-miterlimit:4;stroke-dasharray:none;stroke-opacity:1;display:inline" />
    <path
       d="M 19.21875,30.5625 L 5.625,43 L 8.09375,43 L 19.21875,30.5625 z"
       id="path13943"
       style="opacity:0.06961831;fill:#ffffff;fill-opacity:1;fill-rule:evenodd;stroke:none;stroke-width:0.37469774;stroke-linecap:butt;stroke-linejoin:miter;stroke-miterlimit:4;stroke-dasharray:none;stroke-opacity:1;display:inline" />
    <path
       d="M 29.84375,29.8125 L 44,43 C 45.125099,42.9194 46,41.990081 46,40.84375 L 46,40.71875 L 29.84375,29.8125 z"
       id="path13945"
       style="opacity:0.09251906;fill:#ffffff;fill-opacity:1;fill-rule:evenodd;stroke:none;stroke-width:0.37469774;stroke-linecap:butt;stroke-linejoin:miter;stroke-miterlimit:4;stroke-dasharray:none;stroke-opacity:1;display:inline" />
    <path
       d="M 27.21875,26.4375 L 46,35 L 46,31.53125 L 27.21875,26.4375 z"
       id="path13947"
       style="opacity:0.07086612;fill:#ffffff;fill-opacity:1;fill-rule:evenodd;stroke:none;stroke-width:0.37469774;stroke-linecap:butt;stroke-linejoin:miter;stroke-miterlimit:4;stroke-dasharray:none;stroke-opacity:1;display:inline" />
    <path
       d="M 2.03125,8.71875 C 2.0024997,8.859964 2,9.0062984 2,9.15625 L 2,10.78125 L 18.6875,21.6875 L 2.03125,8.71875 z"
       id="path13949"
       style="opacity:0.06687024;fill:#ffffff;fill-opacity:1;fill-rule:evenodd;stroke:none;stroke-width:0.37469774;stroke-linecap:butt;stroke-linejoin:miter;stroke-miterlimit:4;stroke-dasharray:none;stroke-opacity:1;display:inline" />
    <path
       d="M 33.4375,7 L 25.15625,23.625 L 35.90625,7 L 33.4375,7 z"
       id="path13951"
       style="opacity:0.07328246;fill:#ffffff;fill-opacity:1;fill-rule:evenodd;stroke:none;stroke-width:0.37469774;stroke-linecap:butt;stroke-linejoin:miter;stroke-miterlimit:4;stroke-dasharray:none;stroke-opacity:1;display:inline" />
    <path
       d="M 24.28125,25.90625 L 25,43 L 26.6875,43 L 24.28125,25.90625 z"
       id="path9905"
       style="opacity:0.10076336;fill:#eeeeec;fill-rule:evenodd;stroke:none;stroke-width:0.37469774;stroke-linecap:butt;stroke-linejoin:miter;stroke-miterlimit:4;stroke-dasharray:none;stroke-opacity:1;display:inline" />
  </g>
  <rect
     width="119"
     height="97"
     rx="5.3745089"
     ry="5.3745089"
     x="4.5"
     y="20.5"
     id="rect2556"
     style="opacity:0.4;fill:none;fill-opacity:1;fill-rule:evenodd;stroke:url(#linearGradient3226);stroke-width:1.00000012;stroke-linecap:round;stroke-linejoin:round;stroke-miterlimit:4;stroke-dasharray:none;stroke-dashoffset:0;stroke-opacity:1" />
  <path
     d="M 59.793268,33 C 59.120911,33 58.615385,34.124582 58.615385,35.536913 L 58.615385,44.500671 C 55.908523,45.120189 53.406114,46.182797 51.127403,47.62953 L 44.817308,41.287249 C 43.823706,40.288579 42.684564,39.879196 42.209135,40.357047 L 36.319711,46.276511 C 35.844282,46.754364 36.251594,47.899317 37.245191,48.897986 L 43.555289,55.240269 C 42.115898,57.530602 41.058683,60.045774 40.442307,62.766442 L 31.524039,62.766442 C 30.118874,62.766442 29,63.274548 29,63.950335 L 29,72.406712 C 29,73.082499 30.118876,73.590604 31.524039,73.590604 L 40.442307,73.590604 C 41.058683,76.311273 42.115898,78.826444 43.555289,81.116777 L 37.245191,87.459061 C 36.251592,88.457729 35.844279,89.602683 36.319711,90.080536 L 42.209135,96 C 51.715388,86.639442 75.363703,84.665441 85.790866,96 L 91.680288,90.080536 C 92.155717,89.602685 91.748409,88.457729 90.754808,87.459061 L 84.444711,81.116777 C 85.884103,78.826444 86.941318,76.311273 87.557693,73.590604 L 96.475962,73.590604 C 97.881126,73.590604 99,73.082499 99,72.406712 L 99,63.950335 C 99,63.274548 97.881126,62.766442 96.475962,62.766442 L 87.557693,62.766442 C 86.941318,60.045774 85.884103,57.530602 84.444711,55.240269 L 90.754808,48.897986 C 91.748409,47.899319 92.155717,46.754362 91.680288,46.276511 L 85.790866,40.357047 C 85.315437,39.879193 84.176294,40.288579 83.182693,41.287249 L 76.872597,47.62953 C 74.593886,46.182797 72.091478,45.120189 69.384615,44.500671 L 69.384615,35.536913 C 69.384615,34.124582 68.87909,33 68.206732,33 L 59.793268,33 z M 64.000001,57.354362 C 69.944616,57.354362 74.769231,62.203587 74.769231,68.178522 C 74.769231,74.15346 69.944616,79.002684 64.000001,79.002684 C 58.055385,79.002684 53.230769,74.15346 53.230769,68.178522 C 53.230769,62.203587 58.055385,57.354362 64.000001,57.354362 z"
     id="rect3594"
     style="opacity:0.15;fill:#004c8f;fill-opacity:1;fill-rule:nonzero;stroke:none;stroke-width:1;stroke-linecap:square;stroke-linejoin:round;marker:none;marker-start:none;marker-mid:none;marker-end:none;stroke-miterlimit:4;stroke-dasharray:none;stroke-dashoffset:0;stroke-opacity:1;visibility:visible;display:inline;overflow:visible;enable-background:accumulate" />
  <path
     d="M 59.793268,34 C 59.120912,34 58.615385,35.118874 58.615385,36.524038 L 58.615385,45.442308 C 55.908522,46.058683 53.406114,47.115898 51.127403,48.555289 L 44.817308,42.245192 C 43.823706,41.251591 42.684564,40.844285 42.209135,41.319712 L 36.31971,47.209136 C 35.844282,47.684565 36.251594,48.823707 37.245191,49.81731 L 43.555289,56.127405 C 42.115898,58.406115 41.058683,60.908524 40.442308,63.615386 L 31.524039,63.615386 C 30.118874,63.615386 29,64.120912 29,64.793271 L 29,73.206733 C 29,73.879091 30.118876,74.384618 31.524039,74.384618 L 40.442308,74.384618 C 41.058683,77.091481 42.115898,79.593888 43.555289,81.872597 L 37.245191,88.182695 C 36.251592,89.176296 35.844279,90.315439 36.31971,90.790869 L 42.209135,96.680293 C 42.684564,97.155721 43.823706,96.748411 44.817308,95.754811 L 51.127403,89.444713 C 53.406114,90.884106 55.908522,91.941321 58.615385,92.557696 L 58.615385,101.47597 C 58.615385,102.88113 59.120912,104 59.793268,104 L 68.206732,104 C 68.879089,104 69.384615,102.88112 69.384615,101.47597 L 69.384615,92.557696 C 72.091479,91.941321 74.593886,90.884106 76.872597,89.444713 L 83.182693,95.754811 C 84.176294,96.748413 85.315437,97.155721 85.790866,96.680293 L 91.680289,90.790869 C 92.155717,90.315442 91.748409,89.176296 90.754808,88.182695 L 84.444711,81.872597 C 85.884103,79.593888 86.941318,77.091481 87.557692,74.384618 L 96.475962,74.384618 C 97.881126,74.384618 99,73.879091 99,73.206733 L 99,64.793271 C 99,64.120912 97.881126,63.615386 96.475962,63.615386 L 87.557692,63.615386 C 86.941318,60.908524 85.884103,58.406115 84.444711,56.127405 L 90.754808,49.81731 C 91.748409,48.82371 92.155717,47.684562 91.680289,47.209136 L 85.790866,41.319712 C 85.315437,40.844282 84.176294,41.251591 83.182693,42.245192 L 76.872597,48.555289 C 74.593886,47.115898 72.091479,46.058683 69.384615,45.442308 L 69.384615,36.524038 C 69.384615,35.118874 68.879089,34 68.206732,34 L 59.793268,34 z M 64.000001,58.23077 C 69.944616,58.23077 74.769231,63.055385 74.769231,69.000001 C 74.769231,74.944618 69.944616,79.769233 64.000001,79.769233 C 58.055385,79.769233 53.230769,74.944618 53.230769,69.000001 C 53.230769,63.055385 58.055385,58.23077 64.000001,58.23077 z"
     id="path3625"
     style="fill:url(#linearGradient3222);fill-opacity:1;fill-rule:nonzero;stroke:none;stroke-width:1;stroke-linecap:square;stroke-linejoin:round;marker:none;marker-start:none;marker-mid:none;marker-end:none;stroke-miterlimit:4;stroke-dasharray:none;stroke-dashoffset:0;stroke-opacity:1;visibility:visible;display:inline;overflow:visible;enable-background:accumulate" />
  <path
     d="M 9.7142866,20 C 6.5579702,20 4,22.728976 4,26.096297 L 4,70.686363 C 4.0072405,71.061485 4.1614308,71.416224 4.4251422,71.664467 C 4.6888533,71.91271 5.0379729,72.031759 5.3877549,71.992712 L 122.93878,52.136199 C 123.54346,52.03446 123.99156,51.482863 124,50.82985 L 124,26.096297 C 124,22.728976 121.44202,20 118.28572,20 L 9.7142866,20 z"
     id="path3333"
     style="opacity:0.2;fill:url(#linearGradient3219);fill-opacity:1;fill-rule:evenodd;stroke:none;stroke-width:1;stroke-linecap:round;stroke-linejoin:round;stroke-miterlimit:4;stroke-dasharray:none;stroke-dashoffset:0;stroke-opacity:1" />
</svg>
