<?xml version="1.0" encoding="UTF-8" standalone="no"?>
<!-- Created with Inkscape (http://www.inkscape.org/) -->

<svg
   xmlns:dc="http://purl.org/dc/elements/1.1/"
   xmlns:cc="http://creativecommons.org/ns#"
   xmlns:rdf="http://www.w3.org/1999/02/22-rdf-syntax-ns#"
   xmlns:svg="http://www.w3.org/2000/svg"
   xmlns="http://www.w3.org/2000/svg"
   xmlns:xlink="http://www.w3.org/1999/xlink"
   xmlns:sodipodi="http://sodipodi.sourceforge.net/DTD/sodipodi-0.dtd"
   xmlns:inkscape="http://www.inkscape.org/namespaces/inkscape"
   version="1.1"
   width="128"
   height="128"
   id="svg3933"
   inkscape:version="0.48.3.1 r9886"
   sodipodi:docname="midori.svg">
  <sodipodi:namedview
     pagecolor="#ffffff"
     bordercolor="#666666"
     borderopacity="1"
     objecttolerance="10"
     gridtolerance="10"
     guidetolerance="10"
     inkscape:pageopacity="0"
     inkscape:pageshadow="2"
     inkscape:window-width="1280"
     inkscape:window-height="752"
     id="namedview54"
     showgrid="false"
     inkscape:zoom="1"
     inkscape:cx="66.752688"
     inkscape:cy="110.91039"
     inkscape:window-x="0"
     inkscape:window-y="26"
     inkscape:window-maximized="1"
     inkscape:current-layer="svg3933" />
  <defs
     id="defs3935">
    <linearGradient
       x1="71.204407"
       y1="6.2375584"
       x2="71.204407"
       y2="44.340794"
       id="linearGradient3090"
       xlink:href="#linearGradient4011"
       gradientUnits="userSpaceOnUse"
       gradientTransform="matrix(2.7567564,0,0,2.7567564,-133.25186,-67.403741)" />
    <linearGradient
       id="linearGradient4011">
      <stop
         id="stop4013"
         style="stop-color:#ffffff;stop-opacity:1"
         offset="0" />
      <stop
         id="stop4015"
         style="stop-color:#ffffff;stop-opacity:0.23529412"
         offset="0.507761" />
      <stop
         id="stop4017"
         style="stop-color:#ffffff;stop-opacity:0.15686275"
         offset="0.83456558" />
      <stop
         id="stop4019"
         style="stop-color:#ffffff;stop-opacity:0.39215687"
         offset="1" />
    </linearGradient>
    <linearGradient
       id="linearGradient8838">
      <stop
         id="stop8840"
         style="stop-color:#000000;stop-opacity:1"
         offset="0" />
      <stop
         id="stop8842"
         style="stop-color:#000000;stop-opacity:0"
         offset="1" />
    </linearGradient>
    <radialGradient
       cx="62.625"
       cy="4.625"
       r="10.625"
       fx="62.625"
       fy="4.625"
       id="radialGradient3931"
       xlink:href="#linearGradient8838"
       gradientUnits="userSpaceOnUse"
       gradientTransform="matrix(5.1415214,0,0,1.7882326,-257.98777,33.583193)" />
    <linearGradient
       id="linearGradient2490-3-4-6">
      <stop
         id="stop2492-3-9-3"
         style="stop-color:#3f7010;stop-opacity:1"
         offset="0" />
      <stop
         id="stop2494-8-8-5"
         style="stop-color:#84a718;stop-opacity:1"
         offset="1" />
    </linearGradient>
    <linearGradient
       id="linearGradient3242-7-3-8">
      <stop
         id="stop3244-5-8-5"
         style="stop-color:#eef87e;stop-opacity:1"
         offset="0" />
      <stop
         id="stop3246-9-5-1"
         style="stop-color:#cde34f;stop-opacity:1"
         offset="0.26238" />
      <stop
         id="stop3248-7-2-0"
         style="stop-color:#93b723;stop-opacity:1"
         offset="0.66093999" />
      <stop
         id="stop3250-8-2-8"
         style="stop-color:#5a7e0d;stop-opacity:1"
         offset="1" />
    </linearGradient>
    <radialGradient
       cx="37.90189"
       cy="-1.9014981"
       r="20.397499"
       fx="37.90189"
       fy="-1.9014981"
       id="radialGradient3148"
       xlink:href="#linearGradient3242-7-3-8"
       gradientUnits="userSpaceOnUse"
       gradientTransform="matrix(0,3.846875,-3.9351411,0,51.346589,-158.6172)" />
    <linearGradient
       x1="59.645817"
       y1="88.031578"
       x2="59.645817"
       y2="10.56947"
       id="linearGradient3150"
       xlink:href="#linearGradient2490-3-4-6"
       gradientUnits="userSpaceOnUse"
       gradientTransform="matrix(1.3761499,0,0,1.37593,-0.53184,-65.184439)" />
    <radialGradient
       cx="6.2973423"
       cy="8.4497671"
       r="19.99999"
       fx="6.2973423"
       fy="8.4497671"
       id="radialGradient3155-9"
       xlink:href="#linearGradient2867-449-88-871-390-598-476-591-434-148-57-177-3-8-4-6"
       gradientUnits="userSpaceOnUse"
       gradientTransform="matrix(0,3.5734014,-3.7808362,-9.7262491e-8,96.444161,-71.850418)" />
    <linearGradient
       id="linearGradient2867-449-88-871-390-598-476-591-434-148-57-177-3-8-4-6">
      <stop
         id="stop3750-8-9-7-2"
         style="stop-color:#90dbec;stop-opacity:1"
         offset="0" />
      <stop
         id="stop3752-3-2-4-1"
         style="stop-color:#42baea;stop-opacity:1"
         offset="0.26238" />
      <stop
         id="stop3754-7-2-4-7"
         style="stop-color:#3689e6;stop-opacity:1"
         offset="0.704952" />
      <stop
         id="stop3756-9-3-3-8"
         style="stop-color:#2b63a0;stop-opacity:1"
         offset="1" />
    </linearGradient>
    <linearGradient
       x1="24"
       y1="44"
       x2="24"
       y2="3.8990016"
       id="linearGradient3157-5"
       xlink:href="#linearGradient3707-319-631-407-324-3-8-0-7"
       gradientUnits="userSpaceOnUse"
       gradientTransform="matrix(2.6667437,0,0,2.6663178,0.49483,-61.491613)" />
    <linearGradient
       id="linearGradient3707-319-631-407-324-3-8-0-7">
      <stop
         id="stop3760-7-3-7-4"
         style="stop-color:#082136;stop-opacity:1"
         offset="0" />
      <stop
         id="stop3762-8-4-8-1"
         style="stop-color:#599ec9;stop-opacity:1"
         offset="1" />
    </linearGradient>
    <linearGradient
       id="linearGradient4263-6">
      <stop
         id="stop4265-2"
         style="stop-color:#ffffff;stop-opacity:1"
         offset="0" />
      <stop
         id="stop4267-9"
         style="stop-color:#ffffff;stop-opacity:0.23529412"
         offset="0.54088849" />
      <stop
         id="stop4269-9"
         style="stop-color:#ffffff;stop-opacity:0.15686275"
         offset="0.87818205" />
      <stop
         id="stop4271-0"
         style="stop-color:#ffffff;stop-opacity:0.39215687"
         offset="1" />
    </linearGradient>
    <linearGradient
       x1="105.31645"
       y1="17.911827"
       x2="105.31645"
       y2="86.950722"
       id="linearGradient3027"
       xlink:href="#linearGradient4263-6"
       gradientUnits="userSpaceOnUse"
       gradientTransform="matrix(0.5135135,0,0,0.5135135,-24.836132,-1.0212841)" />
    <linearGradient
       inkscape:collect="always"
       xlink:href="#linearGradient4011"
       id="linearGradient3032"
       gradientUnits="userSpaceOnUse"
       gradientTransform="matrix(2.7567564,0,0,2.7567564,-133.25186,-3.403741)"
       x1="71.204407"
       y1="6.2375584"
       x2="71.204407"
       y2="44.340794" />
    <linearGradient
       inkscape:collect="always"
       xlink:href="#linearGradient4263-6"
       id="linearGradient3035"
       gradientUnits="userSpaceOnUse"
       gradientTransform="matrix(0.5135135,0,0,0.5135135,-24.836132,62.978716)"
       x1="105.31645"
       y1="17.911827"
       x2="105.31645"
       y2="86.950722" />
    <radialGradient
       inkscape:collect="always"
       xlink:href="#linearGradient3242-7-3-8"
       id="radialGradient3038"
       gradientUnits="userSpaceOnUse"
       gradientTransform="matrix(0,3.846875,-3.9351411,0,51.346589,-94.6172)"
       cx="37.90189"
       cy="-1.9014981"
       fx="37.90189"
       fy="-1.9014981"
       r="20.397499" />
    <radialGradient
       inkscape:collect="always"
       xlink:href="#linearGradient2867-449-88-871-390-598-476-591-434-148-57-177-3-8-4-6"
       id="radialGradient3046"
       gradientUnits="userSpaceOnUse"
       gradientTransform="matrix(0,3.5734014,-3.7808362,-9.7262491e-8,96.444161,-7.850418)"
       cx="6.2973423"
       cy="8.4497671"
       fx="6.2973423"
       fy="8.4497671"
       r="19.99999" />
    <radialGradient
       inkscape:collect="always"
       xlink:href="#linearGradient8838"
       id="radialGradient3051"
       gradientUnits="userSpaceOnUse"
       gradientTransform="matrix(5.1415214,0,0,1.7882326,-257.98777,97.583193)"
       cx="62.625"
       cy="4.625"
       fx="62.625"
       fy="4.625"
       r="10.625" />
  </defs>
  <metadata
     id="metadata3938">
    <rdf:RDF>
      <cc:Work
         rdf:about="">
        <dc:format>image/svg+xml</dc:format>
        <dc:type
           rdf:resource="http://purl.org/dc/dcmitype/StillImage" />
        <dc:title />
      </cc:Work>
    </rdf:RDF>
  </metadata>
  <path
     style="opacity:0.3;fill:url(#radialGradient3051);fill-opacity:1;fill-rule:evenodd;stroke:none;stroke-width:1;marker:none;visibility:visible;display:inline;overflow:visible"
     id="path8836"
     inkscape:connector-curvature="0"
     d="m 118.62866,105.85378 c 0,10.4934 -24.45808,19 -54.62866,19 -30.170575,0 -54.6286634,-8.5066 -54.6286634,-19 0,-10.493417 24.4580884,-19 54.6286634,-19 30.17058,0 54.62866,8.506583 54.62866,19 l 0,0 z" />
  <path
     style="color:#000000;fill:url(#radialGradient3046);fill-opacity:1;fill-rule:nonzero;stroke:none;stroke-width:1;stroke-linecap:round;stroke-linejoin:round;stroke-miterlimit:4;stroke-opacity:1;stroke-dasharray:none;stroke-dashoffset:0;marker:none;visibility:visible;display:inline;overflow:visible;enable-background:accumulate"
     id="path2555-7"
     inkscape:connector-curvature="0"
     d="M 64.500003,14.5 C 35.8082,14.5 12.5,37.808191 12.5,66.499999 12.5,95.191807 35.8082,118.5 64.500003,118.5 93.191813,118.5 116.50003,95.191807 116.50001,66.499999 116.50001,37.808191 93.191813,14.5 64.500003,14.5 z" />
  <path
     style="opacity:0.4;fill:#000000;fill-opacity:1;fill-rule:nonzero;stroke:none"
     id="path6534"
     inkscape:connector-curvature="0"
     d="m 64.5,14.5 c -0.323267,0 -0.646875,0.02536 -0.96875,0.03125 l -4.5,0.5 -6.96875,1.9375 c 0.594279,-0.212252 1.196724,-0.421795 1.8125,-0.625 L 53.5,15.6875 c -3.956709,0.854491 -7.74582,2.143731 -11.3125,3.84375 L 41.65625,20.6875 41.3125,19.96875 C 40.967809,20.141083 40.621539,20.320284 40.28125,20.5 l 0.09375,1.375 -1.71875,1.46875 -1,2.6875 2.09375,0 0.8125,-1.75 0.28125,-0.65625 c 0.916271,-0.661134 1.785525,-1.39487 2.71875,-2.03125 l 2.15625,0.75 c 1.415759,0.981406 2.833067,1.988833 4.25,2.96875 l 2.09375,-1.96875 -2.34375,-1 -1.09375,-2.21875 -4,-0.46875 -0.09375,-0.46875 1.75,0.375 0.96875,-1 2.1875,-0.46875 c 0.514593,-0.255346 1.011782,-0.448409 1.53125,-0.65625 L 49.625,18.75 l 4.875,3.40625 0,2.03125 -1.90625,1.9375 2.5625,5.1875 L 56.875,30.28125 59.03125,26.875 C 62.088438,25.9106 64.864505,24.77137 67.75,23.4375 L 67.5625,24.75 69,25.75 71.53125,24 l -1.25,-1.46875 -1.71875,1 L 68,23.34375 c 0.124867,-0.05821 0.249597,-0.09708 0.375,-0.15625 l 2.53125,-6.65625 -4.96875,-2 C 65.461022,14.51831 64.97957,14.5 64.5,14.5 z m -23.9375,9.78125 2.09375,1.46875 1.71875,0 0,-1.75 -2.09375,-0.90625 -1.71875,1.1875 z M 88.65625,23.09375 84.96875,24 l -2.375,1.5625 0,1.40625 -3.71875,2.40625 0.71875,3.59375 2.1875,-1.5625 1.375,1.5625 1.53125,0.9375 1,-2.6875 -0.5625,-1.5625 0.5625,-1.125 2.15625,-2.03125 1,0 -1,2.21875 0,2.03125 c 0.896266,-0.248922 1.80155,-0.352386 2.71875,-0.46875 l -2.53125,1.84375 -0.1875,1.125 -2.875,2.5 -3,-0.75 0,-1.75 -1.375,0.9375 0.65625,1.5625 -2.1875,0 -1.1875,2.03125 -1.4375,1.65625 -2.625,0.5625 1.53125,1.5625 0.375,1.5625 -1.90625,0 -2.53125,1.40625 0,4.0625 1.15625,0 1.09375,1.1875 2.4375,-1.1875 0.90625,-2.5 L 78.6875,45 l 0.375,-0.9375 2.90625,-0.75 1.625,1.875 1.71875,0.90625 -1,2.03125 1.5625,-0.46875 0.8125,-2.03125 -2,-2.3125 0.8125,0 2,1.6875 0.34375,2.21875 1.71875,2.03125 0.46875,-2.96875 0.90625,-0.46875 c 0.96443,1.021537 1.718967,2.287827 2.53125,3.4375 l 3,0.1875 1.71875,1.09375 -0.8125,1.21875 -1.71875,1.5625 -2.5625,0 -3.34375,-1.125 -1.71875,0.1875 -1.25,1.5 -3.625,-3.71875 -2.5625,-0.71875 -3.71875,0.4375 -3.25,0.9375 c -1.860699,2.15232 -3.770111,4.327221 -5.53125,6.5625 l -2.0625,5.1875 0.96875,1.09375 -1.8125,2.6875 2,4.71875 c 1.658635,1.914389 3.34378,3.802996 5,5.71875 l 2.4375,-2.125 1,1.3125 2.625,-1.78125 0.90625,1.03125 2.625,0 1.53125,1.75 -0.90625,3.15625 1.8125,2.125 -0.09375,3.6875 1.375,2.6875 -1,2.3125 c -0.09716,1.657568 -0.1875,3.248417 -0.1875,4.90625 0.799402,2.245956 1.62015,4.48789 2.375,6.75 l 0.53125,3.59375 0,1.84375 1.4375,0 2.09375,-1.375 2.53125,0 3.8125,-4.34375 -0.4375,-1.5 2.53125,-2.3125 -1.90625,-2.125 2.25,-1.84375 2.1875,-1.375 1,-1.125 -0.625,-2.46875 0,-6.3125 1.71875,-3.875 2.15625,-2.40625 2.375,-5.90625 0,-1.5625 c -1.17226,0.150671 -2.32171,0.260485 -3.46875,0.34375 l 2.375,-2.375 3.25,-2.21875 1.71875,-2.0625 0,-2.21875 c -0.39045,-0.751291 -0.76313,-1.561208 -1.15625,-2.3125 l -1.5625,1.875 -1.15625,-1.40625 -1.75,-1.375 0,-2.875 2,2.3125 2.28125,-0.28125 c 1.02185,0.946514 2.00998,1.797336 2.90625,2.875 l 1.4375,-1.65625 c 0,-1.791451 -1.97582,-10.641039 -6.25,-18.125 -2.32308,-4.066277 -5.58575,-7.899649 -8.09375,-10.59375 -1.226372,-1.202813 -2.503718,-2.359873 -3.84375,-3.4375 l -0.375,0.71875 -2,2.21875 -2.53125,-2.6875 2.53125,0 1.125,-1.25 C 95.75128,24.94612 95.71752,24.92881 95.6875,24.90625 L 91.125,24 88.65625,23.09375 z m -54.4375,1.1875 -0.90625,2.40625 c 0,0 -1.592968,0.27243 -2,0.375 -5.19822,4.88748 -15.684867,15.488324 -18.125,35.40625 0.09664,0.461799 1.71875,3.125 1.71875,3.125 l 4,2.40625 3.96875,1.125 1.75,2.125 2.625,2.03125 L 28.78125,73 l 1.09375,0.5625 0,0.375 -1.46875,4.15625 -1.15625,1.75 0.34375,0.84375 L 26.6875,84 l 3.375,6.28125 3.4375,3.0625 1.53125,2.21875 -0.1875,4.625 1.09375,2.59375 -1.09375,4.96875 c 0,0 -0.145084,-0.0345 0,0.46875 0.146373,0.50351 6.061203,3.87912 6.4375,3.59375 C 41.656259,111.52181 42,111.28125 42,111.28125 l -0.34375,-1.125 1.53125,-1.46875 0.53125,-1.5625 2.46875,-0.84375 1.90625,-4.8125 -0.5625,-1.28125 1.28125,-2.03125 2.875,-0.65625 1.46875,-3.5 -0.375,-4.375 2.28125,-3.21875 0.34375,-3.34375 C 52.298413,81.490024 49.272158,79.900227 46.1875,78.28125 L 44.625,75.21875 41.8125,74.5625 40.28125,70.40625 36.5625,70.875 l -3.25,-2.40625 -3.4375,3.0625 0,0.4375 C 28.843759,71.665043 27.605736,71.638556 26.6875,71.0625 l -0.71875,-2.21875 0,-2.40625 -2.34375,0.28125 c 0.189571,-1.531021 0.43412,-3.094243 0.625,-4.625 l -1.375,0 -1.34375,1.75 L 20.25,64.5 l -1.875,-1.125 -0.1875,-2.40625 0.34375,-2.5625 2.8125,-2.21875 2.28125,0 0.4375,-1.3125 2.8125,0.65625 2.09375,2.6875 0.34375,-4.4375 3.625,-3.0625 L 34.21875,47.5 36.9375,46.375 38.375,44.15625 41.8125,43.5 l 1.75,-2.59375 -5.1875,0 3.28125,-1.5625 2.25,0 2.90625,-1 0.53125,2.84375 1.28125,-2.03125 -1.4375,-1 0.34375,-1.21875 -1.1875,-1.09375 -1.25,-0.375 0.34375,-1.375 -0.96875,-1.96875 -2.28125,0.9375 0.375,-1.75 -2.625,-1.5625 -2.09375,3.6875 0.1875,1.28125 -2.09375,0.9375 -1.28125,2.875 -0.625,-2.6875 -3.53125,-1.5 -0.625,-2.03125 4.78125,-2.75 L 36.75,27.53125 36.9375,25.125 35.75,24.46875 34.21875,24.28125 z m 38.875,4.4375 0,1.46875 0.8125,0.9375 0,2.21875 -0.46875,2.96875 2.375,-0.46875 1.71875,-1.75 -1.5625,-1.5 c -0.499494,-1.357152 -0.999832,-2.573317 -1.625,-3.875 l -1.25,0 z m -2,2.96875 -1.4375,0.4375 0.34375,2.6875 1.90625,-1 -0.8125,-2.125 z M 97.625,56 l 2.1875,2.59375 2.625,5.71875 1.625,1.84375 -0.8125,1.9375 1.46875,1.75 c -0.66527,0.04492 -1.31623,0.09375 -2,0.09375 -1.24217,-2.663219 -2.24158,-5.338846 -3.1875,-8.125 L 97.90625,59.96875 97,56.625 97.625,56 z" />
  <path
     style="opacity:0.05;color:#000000;fill:#1a3b60;fill-opacity:1;fill-rule:nonzero;stroke:none;stroke-width:1.00365424;marker:none;visibility:visible;display:inline;overflow:visible;enable-background:accumulate"
     id="path4331"
     inkscape:connector-curvature="0"
     d="m 64.496679,15.83998 c -1.775789,0 -3.521167,0.07122 -5.250151,0.249967 0.07305,2.055 2.029347,3.851312 4.083451,3.74951 0.660366,-0.0346 1.061213,-0.08332 1.1667,-0.08332 11.87022,0 21.417285,9.545537 21.417285,21.413863 1.1e-5,11.868332 -9.547062,21.413863 -21.417285,21.413863 l -3.333429,0.499941 c -0.02819,0.02735 -0.05598,0.05513 -0.08333,0.08332 -14.793107,1.76574 -26.500764,14.082174 -26.500764,29.329493 0,7.429825 2.775655,14.161306 7.333544,19.330806 6.80056,3.39521 14.474319,5.33263 22.583985,5.33263 27.956917,0 50.668155,-22.707569 50.668125,-50.660032 0,-27.95246 -22.711208,-50.660034 -50.668131,-50.660038 z" />
  <path
     style="opacity:0.3;color:#000000;fill:#1a3b60;fill-opacity:1;fill-rule:nonzero;stroke:none;stroke-width:1.00365424;marker:none;visibility:visible;display:inline;overflow:visible;enable-background:accumulate"
     id="path3335"
     inkscape:connector-curvature="0"
     d="m 64.5,17.4375 c -1.907664,-0.296106 -4.084128,0.465503 -1.25,0.8125 11.642751,-1.060955 22.862591,8.388221 24.065613,19.972532 1.674615,11.139812 -6.09312,22.649909 -17.058669,25.24017 -5.335617,1.144393 -12.105022,1.621632 -15.903145,2.997664 -11.682573,4.226915 -19.663873,16.838157 -17.984502,29.230238 0.608005,5.450456 2.946374,10.671856 6.536953,14.809396 16.624803,8.46341 37.960607,6.09682 52.343421,-5.77165 C 109.41817,93.577495 116.37246,74.237376 112.56553,56.614856 108.89084,37.581388 92.865824,21.750305 73.786314,18.315716 70.728051,17.729121 67.613857,17.437146 64.5,17.4375 z" />
  <path
     style="color:#000000;fill:url(#radialGradient3038);fill-opacity:1;fill-rule:nonzero;stroke:none;stroke-width:1.00365436000000008;stroke-linecap:round;stroke-linejoin:round;stroke-miterlimit:4;stroke-opacity:1;stroke-dasharray:none;stroke-dashoffset:0;marker:none;visibility:visible;display:inline;overflow:visible;enable-background:accumulate"
     id="path2555-1"
     inkscape:connector-curvature="0"
     d="m 63.163306,14.506817 0,1.416482 c 0.445109,-0.0232 0.882511,-0.08333 1.333372,-0.08333 13.978457,0 25.334065,11.353792 25.334065,25.330018 1.4e-5,13.976234 -11.355608,25.330019 -25.334065,25.330019 l -1.333372,0.08332 c -13.72653,0.69705 -24.667379,12.017504 -24.667379,25.913275 0,13.89578 10.940849,25.21623 24.667379,25.91328 l 0,0.0833 c 0.445151,0.0112 0.88553,0 1.333372,0 28.689962,0 52.001532,-23.307807 52.001502,-51.9932 0,-28.685392 -23.31154,-51.993196 -52.001502,-51.993196 -0.447842,0 -0.888221,-0.0112 -1.333372,0 z" />
  <path
     style="opacity:0.5;color:#000000;fill:none;stroke:url(#linearGradient3035);stroke-width:0.99999988;stroke-linecap:round;stroke-linejoin:round;stroke-miterlimit:4;stroke-opacity:1;stroke-dasharray:none;stroke-dashoffset:0;marker:none;visibility:visible;display:inline;overflow:visible;enable-background:accumulate"
     id="path3272"
     inkscape:connector-curvature="0"
     d="M 70.25,15.6875 C 82.345803,18.178895 91.544916,30.149616 90.65333,42.500689 90.260751,55.503415 78.847469,66.917085 65.844636,67.309573 56.503205,66.981227 46.94529,71.945239 42.475594,80.34114 c -6.086894,10.499735 -3.000687,25.09678 6.854557,32.19719 7.357158,5.79311 17.357404,5.95383 26.098653,3.94623 C 95.223509,112.39974 111.52407,95.489495 114.85683,75.550863 118.35033,57.20718 110.70862,37.375902 95.835625,26.095276 88.474357,20.364125 79.524753,16.712875 70.25,15.6875 z" />
  <path
     style="opacity:0.5;color:#000000;fill:none;stroke:url(#linearGradient3032);stroke-width:1;stroke-linecap:round;stroke-linejoin:round;stroke-miterlimit:4;stroke-opacity:1;stroke-dasharray:none;stroke-dashoffset:0;marker:none;visibility:visible;display:inline;overflow:visible;enable-background:accumulate"
     id="path8655-6"
     inkscape:connector-curvature="0"
     d="M 115.5,66.498188 C 115.5,94.665617 92.664845,117.5 64.50065,117.5 36.33387,117.5 13.5,94.665359 13.5,66.498188 13.5,38.332061 36.33387,15.5 64.50065,15.5 92.664845,15.5 115.5,38.332061 115.5,66.498188 l 0,0 z" />
  <path
     id="path2555-1-2"
     style="color:#000000;fill:none;fill-opacity:1;fill-rule:nonzero;stroke:#000000;stroke-width:1.00365436000000008;stroke-linecap:round;stroke-linejoin:round;stroke-miterlimit:4;stroke-opacity:1;stroke-dasharray:none;stroke-dashoffset:0;marker:none;visibility:visible;display:inline;overflow:visible;enable-background:accumulate;opacity:0.3"
     d="m 63.163306,14.506817 0,1.416482 c 0.445109,-0.0232 0.882511,-0.08333 1.333372,-0.08333 13.978457,0 25.334065,11.353792 25.334065,25.330018 1.4e-5,13.976234 -11.355608,25.330019 -25.334065,25.330019 l -1.333372,0.08332 c -13.72653,0.69705 -24.667379,12.017504 -24.667379,25.913275 0,13.895779 10.940849,25.216229 24.667379,25.913279 l 0,0.0833 c 0.445151,0.0112 0.88553,0 1.333372,0 28.689962,0 52.001532,-23.307806 52.001502,-51.993199 0,-28.685392 -23.31154,-51.993196 -52.001502,-51.993196 -0.447842,0 -0.888221,-0.0112 -1.333372,0 z M 64.500003,14.5 C 35.8082,14.5 12.5,37.808191 12.5,66.499999 12.5,95.191807 35.8082,118.5 64.500003,118.5 93.191813,118.5 116.50003,95.191807 116.50001,66.499999 116.50001,37.808191 93.191813,14.5 64.500003,14.5 z" />
</svg>
