<?xml version="1.0" encoding="UTF-8" standalone="no"?>
<!-- Created with Inkscape (http://www.inkscape.org/) -->
<svg
   xmlns:svg="http://www.w3.org/2000/svg"
   xmlns="http://www.w3.org/2000/svg"
   xmlns:xlink="http://www.w3.org/1999/xlink"
   version="1.0"
   width="128"
   height="128"
   id="svg3215">
  <defs
     id="defs3217">
    <linearGradient
       id="linearGradient8838">
      <stop
         id="stop8840"
         style="stop-color:#000000;stop-opacity:1"
         offset="0" />
      <stop
         id="stop8842"
         style="stop-color:#000000;stop-opacity:0"
         offset="1" />
    </linearGradient>
    <radialGradient
       cx="62.625"
       cy="4.625"
       r="10.625"
       fx="62.625"
       fy="4.625"
       id="radialGradient2439"
       xlink:href="#linearGradient8838"
       gradientUnits="userSpaceOnUse"
       gradientTransform="matrix(5.8938671,0,0,2.3062925,-305.10342,88.828994)" />
    <linearGradient
       id="linearGradient2490">
      <stop
         id="stop2492"
         style="stop-color:#791235;stop-opacity:1"
         offset="0" />
      <stop
         id="stop2494"
         style="stop-color:#dd3b27;stop-opacity:1"
         offset="1" />
    </linearGradient>
    <linearGradient
       x1="-23.916132"
       y1="43.707703"
       x2="-23.916132"
       y2="4.6497173"
       id="linearGradient2436"
       xlink:href="#linearGradient2490"
       gradientUnits="userSpaceOnUse"
       gradientTransform="matrix(2.7333332,0,0,2.7105262,138.9404,-2.4584434)" />
    <linearGradient
       id="linearGradient3242">
      <stop
         id="stop3244"
         style="stop-color:#f8b17e;stop-opacity:1"
         offset="0" />
      <stop
         id="stop3246"
         style="stop-color:#e35d4f;stop-opacity:1"
         offset="0.26238" />
      <stop
         id="stop3248"
         style="stop-color:#c6262e;stop-opacity:1"
         offset="0.66093999" />
      <stop
         id="stop3250"
         style="stop-color:#690b54;stop-opacity:1"
         offset="1" />
    </linearGradient>
    <radialGradient
       cx="32.806725"
       cy="3.5327499"
       r="23"
       fx="32.806725"
       fy="3.5327499"
       id="radialGradient2434"
       xlink:href="#linearGradient3242"
       gradientUnits="userSpaceOnUse"
       gradientTransform="matrix(0,4.5965661,-4.8537761,0,81.147174,-135.07197)" />
    <linearGradient
       id="linearGradient3202">
      <stop
         id="stop3204"
         style="stop-color:#ffffff;stop-opacity:1"
         offset="0" />
      <stop
         id="stop3206"
         style="stop-color:#d3eefc;stop-opacity:1"
         offset="1" />
    </linearGradient>
    <linearGradient
       x1="22.885227"
       y1="17.628952"
       x2="22.885227"
       y2="30.889549"
       id="linearGradient2430"
       xlink:href="#linearGradient3202"
       gradientUnits="userSpaceOnUse"
       gradientTransform="matrix(2.8470025,0,0,2.5797372,4.8118788,-1.5515939)" />
    <linearGradient
       id="linearGradient3230">
      <stop
         id="stop3232"
         style="stop-color:#ffffff;stop-opacity:1"
         offset="0" />
      <stop
         id="stop3234"
         style="stop-color:#ffffff;stop-opacity:0"
         offset="1" />
    </linearGradient>
    <linearGradient
       x1="26.153599"
       y1="4.9999995"
       x2="26.153599"
       y2="44.233311"
       id="linearGradient3213"
       xlink:href="#linearGradient3230"
       gradientUnits="userSpaceOnUse"
       gradientTransform="matrix(2.7333332,0,0,2.7105262,-1.6000017,-3.4078916)" />
  </defs>
  <g
     id="layer1">
    <path
       d="M 126.62234,99.495612 C 126.62234,113.02901 98.585359,124 64,124 C 29.414642,124 1.3776628,113.02901 1.3776628,99.495612 C 1.3776628,85.962208 29.414642,74.991219 64,74.991219 C 98.585359,74.991219 126.62234,85.962208 126.62234,99.495612 L 126.62234,99.495612 z"
       id="path8836"
       style="opacity:0.4;fill:url(#radialGradient2439);fill-opacity:1;fill-rule:evenodd;stroke:none;stroke-width:0.99999988;stroke-linecap:butt;stroke-linejoin:round;marker:none;marker-start:none;marker-mid:none;marker-end:none;stroke-miterlimit:4;stroke-dasharray:none;stroke-dashoffset:0;stroke-opacity:1;visibility:visible;display:inline;overflow:visible" />
    <path
       d="M 2.4999998,79.971217 C 2.4999998,79.971217 26.049326,36.295162 59.78764,18.898224 C 79.452291,8.758278 111.13604,6.1563501 125.30902,29.986979 C 125.30902,29.986979 130.08345,92.598813 91.887987,110.22484 C 91.887987,110.22484 52.366298,131.27083 2.4999998,79.971217 z"
       id="path2421"
       style="fill:url(#radialGradient2434);fill-opacity:1;fill-rule:evenodd;stroke:url(#linearGradient2436);stroke-width:0.99999994px;stroke-linecap:butt;stroke-linejoin:miter;stroke-opacity:1" />
    <path
       d="M 42,52.60744 C 88.719559,47.911639 92.36609,49.330036 104.99045,61.954396 C 104.9515,53.942166 105.07174,61.972734 104.92391,53.962415 C 104.71341,49.11922 102.83459,43.768028 97.836171,41.314856 C 94.976626,40.384369 94.159002,40.032025 90.592323,40.032025 C 83.247068,40.032025 54.742267,40 42,40 C 42,52.666664 42,39.940778 42,52.60744 z"
       id="path2438"
       style="font-size:26.70637703px;font-style:normal;font-variant:normal;font-weight:bold;font-stretch:normal;text-align:start;line-height:125%;writing-mode:lr-tb;text-anchor:start;fill:#b9daf3;fill-opacity:1;stroke:none;stroke-width:1px;stroke-linecap:butt;stroke-linejoin:miter;stroke-opacity:1;font-family:URW Gothic L;-inkscape-font-specification:URW Gothic L Book" />
    <path
       d="M 42,80.999998 C 45.355962,80.999998 52.337614,80.999998 55.693575,80.999998 C 55.748427,73.697374 55.464923,66.39014 55.693575,59.090935 C 55.693575,55.197439 56.267194,51.716112 60.888367,51.716112 C 66.190097,51.716112 66.611418,54.348472 66.611418,59.362447 C 66.611418,63.944803 66.611418,76.417642 66.611418,80.999998 C 69.967375,80.999998 76.986053,81 80.342011,81 C 80.381378,73.818797 80.180938,66.634928 80.342011,59.45567 C 80.366487,56.002609 80.031643,51.716112 85.798688,51.716112 C 90.987014,51.716112 91.294309,55.099506 91.294309,59.513619 C 91.294309,64.04558 91.294306,76.468033 91.294309,81 C 94.650264,81 101.6345,81 104.99045,81 C 104.9515,72.987771 105.07174,64.972735 104.92391,56.962416 C 104.71341,52.11922 102.83459,46.768028 97.836171,44.314856 C 94.976626,43.384369 94.159002,43.032025 90.592323,43.032025 C 83.247068,43.032025 54.742267,43 42,43 C 42,55.666665 42,68.333335 42,80.999998 z"
       id="text3190"
       style="font-size:26.70637703px;font-style:normal;font-variant:normal;font-weight:bold;font-stretch:normal;text-align:start;line-height:125%;writing-mode:lr-tb;text-anchor:start;fill:url(#linearGradient2430);fill-opacity:1;stroke:none;stroke-width:1px;stroke-linecap:butt;stroke-linejoin:miter;stroke-opacity:1;font-family:URW Gothic L;-inkscape-font-specification:URW Gothic L Book" />
    <path
       d="M 91.0625,12.4375 C 89.210483,12.400332 87.35902,12.455088 85.5,12.59375 C 76.442723,13.26932 67.503062,15.978757 60.25,19.71875 C 28.980716,35.842549 7.14252,73.831636 4.4375,78.625 C 4.063587,79.261775 4.1663,80.07064 4.6875,80.59375 C 28.868457,104.87247 50.38644,112.27777 65.9375,113.40625 C 81.789529,114.55657 91.4375,109.40625 91.4375,109.40625 C 91.480647,109.37702 91.522362,109.34574 91.5625,109.3125 C 91.605647,109.28327 91.647362,109.25199 91.6875,109.21875 C 110.18217,100.52954 118.41794,80.957547 121.96875,63.3125 C 125.41292,46.197438 124.47987,31.755227 124.40625,30.6875 C 124.38101,30.431499 124.29533,30.185155 124.15625,29.96875 C 116.54476,17.607068 104.01327,12.697402 91.0625,12.4375 z"
       id="path3211"
       style="opacity:0.4;fill:none;fill-opacity:1;fill-rule:evenodd;stroke:url(#linearGradient3213);stroke-width:0.99999994px;stroke-linecap:butt;stroke-linejoin:miter;stroke-opacity:1" />
  </g>
</svg>
