<?xml version="1.0" encoding="UTF-8" standalone="no"?>
<svg
   id="svg4379"
   height="128"
   width="128"
   version="1.1"
   xml:space="preserve"
   xmlns:xlink="http://www.w3.org/1999/xlink"
   xmlns="http://www.w3.org/2000/svg"
   xmlns:svg="http://www.w3.org/2000/svg"
   xmlns:rdf="http://www.w3.org/1999/02/22-rdf-syntax-ns#"
   xmlns:cc="http://creativecommons.org/ns#"
   xmlns:dc="http://purl.org/dc/elements/1.1/"><defs
     id="defs4381"><linearGradient
       gradientTransform="matrix(2.7297298,0,0,2.7297298,-1.5135124,1.486514)"
       gradientUnits="userSpaceOnUse"
       xlink:href="#linearGradient3924-776"
       id="linearGradient3159"
       y2="43"
       x2="23.99999"
       y1="4.999989"
       x1="23.99999" /><linearGradient
       id="linearGradient3924-776"><stop
         offset="0"
         style="stop-color:#ffffff;stop-opacity:1"
         id="stop3124" /><stop
         offset="0.06316455"
         style="stop-color:#ffffff;stop-opacity:0.23529412"
         id="stop3126" /><stop
         offset="0.95056331"
         style="stop-color:#ffffff;stop-opacity:0.15686275"
         id="stop3128" /><stop
         offset="1"
         style="stop-color:#ffffff;stop-opacity:0.39215687"
         id="stop3130" /></linearGradient><radialGradient
       gradientTransform="matrix(2.003784,0,0,1.4,27.98813,-17.4)"
       gradientUnits="userSpaceOnUse"
       xlink:href="#linearGradient3688-166-749-5"
       id="radialGradient2455-1"
       fy="43.5"
       fx="4.9929786"
       r="2.5"
       cy="43.5"
       cx="4.9929786" /><linearGradient
       id="linearGradient3688-166-749-5"><stop
         offset="0"
         style="stop-color:#181818;stop-opacity:1"
         id="stop2883-0" /><stop
         offset="1"
         style="stop-color:#181818;stop-opacity:0"
         id="stop2885-5" /></linearGradient><radialGradient
       gradientTransform="matrix(2.003784,0,0,1.4,-20.01187,-104.4)"
       gradientUnits="userSpaceOnUse"
       xlink:href="#linearGradient3688-464-309-8"
       id="radialGradient2457-5"
       fy="43.5"
       fx="4.9929786"
       r="2.5"
       cy="43.5"
       cx="4.9929786" /><linearGradient
       id="linearGradient3688-464-309-8"><stop
         offset="0"
         style="stop-color:#181818;stop-opacity:1"
         id="stop2889-9" /><stop
         offset="1"
         style="stop-color:#181818;stop-opacity:0"
         id="stop2891-4" /></linearGradient><linearGradient
       gradientUnits="userSpaceOnUse"
       xlink:href="#linearGradient3702-501-757-0"
       id="linearGradient2459-7"
       y2="39.999443"
       x2="25.058096"
       y1="47.027729"
       x1="25.058096" /><linearGradient
       id="linearGradient3702-501-757-0"><stop
         offset="0"
         style="stop-color:#181818;stop-opacity:0"
         id="stop2895-0" /><stop
         offset="0.5"
         style="stop-color:#181818;stop-opacity:1"
         id="stop2897-2" /><stop
         offset="1"
         style="stop-color:#181818;stop-opacity:0"
         id="stop2899-6" /></linearGradient><linearGradient
       id="linearGradient3811"><stop
         offset="0"
         style="stop-color:#000000;stop-opacity:1"
         id="stop3813" /><stop
         offset="1"
         style="stop-color:#000000;stop-opacity:0"
         id="stop3815" /></linearGradient><radialGradient
       gradientTransform="matrix(1.5563924,0,0,0.16978827,70.270358,102.13029)"
       gradientUnits="userSpaceOnUse"
       xlink:href="#linearGradient3811"
       id="radialGradient4377"
       fy="93.467628"
       fx="-4.0287771"
       r="35.338131"
       cy="93.467628"
       cx="-4.0287771" /><linearGradient
       id="linearGradient3104-6"><stop
         offset="0"
         style="stop-color:#000000;stop-opacity:0.31782946"
         id="stop3106-3" /><stop
         offset="1"
         style="stop-color:#000000;stop-opacity:0.24031007"
         id="stop3108-9" /></linearGradient><linearGradient
       xlink:href="#linearGradient3600-9-51"
       id="linearGradient1512"
       gradientUnits="userSpaceOnUse"
       gradientTransform="matrix(2.6075127,0,0,2.5079099,-128.96559,3.8893066)"
       x1="74.838791"
       y1="4.535933"
       x2="74.838791"
       y2="49.779099" /><linearGradient
       id="linearGradient3600-9-51"><stop
         offset="0"
         style="stop-color:#f4f4f4;stop-opacity:1"
         id="stop3602-0-0" /><stop
         offset="1"
         style="stop-color:#dbdbdb;stop-opacity:1"
         id="stop3604-9-04" /></linearGradient><linearGradient
       xlink:href="#linearGradient3104-6"
       id="linearGradient567"
       gradientUnits="userSpaceOnUse"
       gradientTransform="matrix(0.80749686,0,0,0.89471714,-120.87499,26.352158)"
       x1="225.28664"
       y1="103.37166"
       x2="225.28664"
       y2="-12.009387" /><linearGradient
       x1="32.139999"
       y1="29.5"
       x2="65.260002"
       y2="29.5"
       id="linearGradient4978"
       xlink:href="#linearGradient3688-166-749-5"
       gradientUnits="userSpaceOnUse"
       gradientTransform="matrix(0,-2.0807453,2.0807446,0,30.618032,193.33232)" /><linearGradient
       x1="32.139999"
       y1="29.5"
       x2="65.260002"
       y2="29.5"
       id="linearGradient3131"
       xlink:href="#linearGradient3688-166-749-5"
       gradientUnits="userSpaceOnUse"
       gradientTransform="matrix(0,-2.0186335,2.0185386,0,32.474389,190.30752)" /><linearGradient
       x1="91.566116"
       y1="16.542858"
       x2="91.566116"
       y2="48.631081"
       id="linearGradient3128"
       xlink:href="#linearGradient4220-7"
       gradientUnits="userSpaceOnUse"
       gradientTransform="matrix(1.9652405,0,0,1.9652405,-88.97057,27.98926)" /><linearGradient
       id="linearGradient4220-7"><stop
         id="stop4222-7"
         style="stop-color:#7a8498;stop-opacity:1"
         offset="0" /><stop
         id="stop4224-0"
         style="stop-color:#34405c;stop-opacity:1"
         offset="1" /></linearGradient><linearGradient
       x1="32.080647"
       y1="29.5"
       x2="65.319359"
       y2="29.5"
       id="linearGradient3124"
       xlink:href="#linearGradient4035-0"
       gradientUnits="userSpaceOnUse"
       gradientTransform="matrix(0,1.89441,-1.8944087,0,147.88505,-0.25766)" /><linearGradient
       id="linearGradient4035-0"><stop
         id="stop4037-3"
         style="stop-color:#ffffff;stop-opacity:1"
         offset="0" /><stop
         id="stop4039-6"
         style="stop-color:#ffffff;stop-opacity:0.23529412"
         offset="0.05555556" /><stop
         id="stop4041-4"
         style="stop-color:#ffffff;stop-opacity:0.15686275"
         offset="0.94444442" /><stop
         id="stop4043-9"
         style="stop-color:#ffffff;stop-opacity:0.39215687"
         offset="1" /></linearGradient><radialGradient
       cx="31.999998"
       cy="4.3419166"
       r="27.5"
       fx="31.999998"
       fy="4.3419166"
       id="radialGradient3121"
       xlink:href="#linearGradient4632-92-3-0-8-1-7-1"
       gradientUnits="userSpaceOnUse"
       gradientTransform="matrix(0,2.3531202,-2.35312,0,102.21705,913.40413)" /><linearGradient
       id="linearGradient4632-92-3-0-8-1-7-1"><stop
         id="stop4634-68-8-0-2-9-4-3"
         style="stop-color:#fafafa;stop-opacity:1"
         offset="0" /><stop
         id="stop4636-8-21-7-1-4-0-5"
         style="stop-color:#e1e1e1;stop-opacity:1"
         offset="1" /></linearGradient><clipPath
       id="clipPath3947"><rect
         width="102"
         height="102"
         rx="5.5"
         ry="5.5"
         x="13"
         y="940.36218"
         id="rect3949"
         style="color:#000000;display:inline;overflow:visible;visibility:visible;opacity:0.5;fill:url(#radialGradient3951);fill-opacity:1;fill-rule:nonzero;stroke:none;stroke-width:1;marker:none;enable-background:accumulate" /></clipPath><clipPath
       id="clipPath3841"><rect
         width="55"
         height="55"
         rx="100"
         ry="100"
         x="64.5"
         y="988.86218"
         id="rect3843"
         style="color:#000000;display:inline;overflow:visible;visibility:visible;fill:url(#radialGradient3845);fill-opacity:1;fill-rule:nonzero;stroke:none;stroke-width:1;marker:none;enable-background:accumulate" /></clipPath><linearGradient
       x1="32.139999"
       y1="29.5"
       x2="65.260002"
       y2="29.5"
       id="linearGradient3117"
       xlink:href="#linearGradient3688-166-749-5"
       gradientUnits="userSpaceOnUse"
       gradientTransform="matrix(0,1.6459627,1.6459627,0,43.444097,11.84158)" /><linearGradient
       x1="32.139999"
       y1="29.5"
       x2="65.260002"
       y2="29.5"
       id="linearGradient3114"
       xlink:href="#linearGradient3688-166-749-5"
       gradientUnits="userSpaceOnUse"
       gradientTransform="matrix(0,1.5838509,1.5838509,0,45.27639,14.86638)" /><radialGradient
       cx="43.753838"
       cy="4.3419137"
       r="27.5"
       fx="43.753838"
       fy="4.3419137"
       id="radialGradient3109"
       xlink:href="#linearGradient12727"
       gradientUnits="userSpaceOnUse"
       gradientTransform="matrix(-4.2790825e-6,1.0400002,-1.04,-4.2790818e-6,96.51578,46.49589)"
       spreadMethod="pad" /><linearGradient
       id="linearGradient12727"><stop
         id="stop12729"
         style="stop-color:#181818;stop-opacity:0"
         offset="0" /><stop
         id="stop12745"
         style="stop-color:#181818;stop-opacity:0"
         offset="0.53846145" /><stop
         id="stop12731"
         style="stop-color:#181818;stop-opacity:1"
         offset="1" /></linearGradient><linearGradient
       x1="37"
       y1="1026.3622"
       x2="49"
       y2="1026.3622"
       id="linearGradient3106"
       xlink:href="#linearGradient12739"
       gradientUnits="userSpaceOnUse"
       gradientTransform="matrix(2.1666667,0,0,2.8333334,900.19548,-3004.0263)" /><linearGradient
       id="linearGradient12739"><stop
         id="stop12741"
         style="stop-color:#ffffff;stop-opacity:1"
         offset="0" /><stop
         id="stop12743"
         style="stop-color:#ffffff;stop-opacity:0"
         offset="1" /></linearGradient><filter
       color-interpolation-filters="sRGB"
       id="filter5104"
       x="-0.083076921"
       y="-0.06352941"
       width="1.1661538"
       height="1.1270588"><feGaussianBlur
         id="feGaussianBlur5106"
         stdDeviation="0.9" /></filter></defs><metadata
     id="metadata4384"><rdf:RDF><cc:Work
         rdf:about=""><dc:format>image/svg+xml</dc:format><dc:type
           rdf:resource="http://purl.org/dc/dcmitype/StillImage" /></cc:Work></rdf:RDF></metadata><path
     d="M 119,118 A 55,6 0 0 1 9.0000016,118 55,6 0 1 1 119,118 Z"
     id="path3041"
     style="color:#000000;display:inline;overflow:visible;visibility:visible;opacity:0.2;fill:url(#radialGradient4377);fill-opacity:1;fill-rule:nonzero;stroke:none;stroke-width:1;marker:none;enable-background:accumulate" /><g
     transform="matrix(2.6999989,0,0,0.55555607,-0.8000019,94.888882)"
     id="g2036"
     style="display:inline;opacity:0.4"><g
       transform="matrix(1.052632,0,0,1.285713,-1.263158,-13.42854)"
       id="g3712"
       style="opacity:0.4"><rect
         width="5"
         height="7"
         x="38"
         y="40"
         id="rect2801"
         style="fill:url(#radialGradient2455-1);fill-opacity:1;stroke:none" /><rect
         width="5"
         height="7"
         x="-10"
         y="-47"
         transform="scale(-1,-1)"
         id="rect3696"
         style="fill:url(#radialGradient2457-5);fill-opacity:1;stroke:none" /><rect
         width="28"
         height="7.0000005"
         x="10"
         y="40"
         id="rect3700"
         style="fill:url(#linearGradient2459-7);fill-opacity:1;stroke:none" /></g></g><rect
     style="color:#000000;font-variation-settings:normal;display:inline;overflow:visible;visibility:visible;fill:url(#linearGradient1512);fill-opacity:1;fill-rule:nonzero;stroke:none;stroke-width:1;stroke-linecap:butt;stroke-linejoin:miter;stroke-miterlimit:4;stroke-dasharray:none;stroke-dashoffset:0;stroke-opacity:1;marker:none;enable-background:accumulate;stop-color:#000000"
     id="rect5505-21-1-7-2-9"
     y="16"
     x="12.999996"
     ry="9.5"
     rx="9.5"
     height="102.00001"
     width="102.00001" /><rect
     width="101"
     height="101"
     rx="9"
     ry="9"
     x="13.5"
     y="16.5"
     id="rect6741-7"
     style="opacity:1;fill:none;stroke:url(#linearGradient3159);stroke-width:1;stroke-linecap:round;stroke-linejoin:round;stroke-miterlimit:4;stroke-dasharray:none;stroke-dashoffset:0;stroke-opacity:1" /><rect
     width="103"
     height="103"
     rx="10"
     ry="10"
     x="12.5"
     y="15.5"
     id="rect5505-21-6"
     style="color:#000000;display:inline;overflow:visible;visibility:visible;opacity:1;fill:none;stroke:url(#linearGradient567);stroke-width:0.999922;stroke-linecap:butt;stroke-linejoin:round;stroke-miterlimit:4;stroke-dasharray:none;stroke-dashoffset:0;stroke-opacity:1;marker:none;enable-background:accumulate;font-variation-settings:normal;vector-effect:none;fill-opacity:1;-inkscape-stroke:none;stop-color:#000000;stop-opacity:1" /><g
     id="layer4-0"
     transform="matrix(0.9047486,0,0,0.9047486,-702.22529,-649.07614)" /><g
     id="layer4-0-7"
     transform="matrix(0.9047486,0,0,0.9047486,-702.22529,-641.83815)" /><g
     id="layer1-3"
     transform="matrix(0.9047486,0,0,0.9047486,-205.51831,26.980992)" /><g
     id="text7620"
     style="font-style:normal;font-variant:normal;font-weight:bold;font-stretch:normal;font-size:64px;line-height:125%;font-family:'Open Sans';-inkscape-font-specification:'Open Sans Bold';text-align:center;letter-spacing:0px;word-spacing:0px;text-anchor:middle;opacity:0.6;fill:#000000;fill-opacity:1;stroke:none"
     transform="translate(0,-924.36218)"><path
       d="m 58.734375,1013.9872 -3.3125,-10.875 h -16.65625 l -3.3125,10.875 h -10.4375 l 16.125,-45.87502 h 11.84375 l 16.1875,45.87502 h -10.4375 m -5.625,-19.00002 c -3.062525,-9.85414 -4.79169,-15.42705 -5.1875,-16.71875 -0.375023,-1.29163 -0.645856,-2.31246 -0.8125,-3.0625 -0.687521,2.66671 -2.656269,9.26045 -5.90625,19.78125 h 11.90625"
       id="path7874" /><path
       d="m 96.328125,1013.9872 -1.84375,-4.75 h -0.25 c -1.60419,2.0208 -3.260438,3.4271 -4.96875,4.2187 -1.687518,0.7709 -3.89585,1.1563 -6.625,1.1563 -3.354177,0 -6.000007,-0.9584 -7.9375,-2.875 -1.91667,-1.9167 -2.875003,-4.6458 -2.875,-8.1875 -3e-6,-3.70834 1.291663,-6.4375 3.875,-8.18752 2.604157,-1.77081 6.52082,-2.74998 11.75,-2.9375 l 6.0625,-0.1875 v -1.53125 c -2.4e-5,-3.54164 -1.812523,-5.31247 -5.4375,-5.3125 -2.791683,3e-5 -6.07293,0.84378 -9.84375,2.53125 l -3.15625,-6.4375 c 4.020823,-2.10413 8.479152,-3.15621 13.375,-3.15625 4.687476,4e-5 8.281222,1.02087 10.78125,3.0625 2.499965,2.0417 3.749965,5.14586 3.750005,9.3125 v 23.28127 h -6.656255 m -2.8125,-16.18752 -3.6875,0.125 c -2.770851,0.0833 -4.833349,0.58335 -6.1875,1.5 -1.35418,0.91672 -2.031262,2.31252 -2.03125,4.18752 -1.2e-5,2.6875 1.541653,4.0312 4.625,4.0312 2.208314,0 3.968729,-0.6354 5.28125,-1.9062 1.33331,-1.2708 1.999976,-2.9583 2,-5.0625 v -2.87502"
       id="path7876" /></g><path
     d="M 92,58.5 A 33.499999,33.50001 0 0 1 92,125.50002 33.499999,33.50001 0 1 1 92,58.5 Z"
     id="path8109"
     style="opacity:0.08;fill:none;stroke:url(#linearGradient4978);stroke-width:1;stroke-miterlimit:4;stroke-dasharray:none;stroke-opacity:1" /><path
     d="m 92.021276,59.50003 a 32.498472,32.500001 0 0 1 0,64.99999 32.498474,32.500003 0 1 1 0,-64.99999 z"
     id="path8105"
     style="opacity:0.15;fill:none;stroke:url(#linearGradient3131);stroke-width:1;stroke-miterlimit:4;stroke-dasharray:none;stroke-opacity:1" /><path
     d="M 92.90625,60.5 A 31.500001,31.500001 0 0 0 60.5,92 31.500001,31.500001 0 0 0 123.5,92 31.500001,31.500001 0 0 0 92.90625,60.5 Z M 92,64.5 c 15.235,0 27.5,12.265 27.5,27.5 0,15.235 -12.265,27.5 -27.5,27.5 C 76.765,119.5 64.5,107.235 64.5,92 64.5,76.765 76.765,64.5 92,64.5 Z"
     id="path4218"
     style="color:#000000;display:inline;overflow:visible;visibility:visible;fill:url(#linearGradient3128);fill-opacity:1;fill-rule:nonzero;stroke:none;stroke-width:0.790698;marker:none;enable-background:accumulate" /><path
     d="m 123.5,92.00012 a 31.5,31.500001 0 0 1 -63,0 31.5,31.500001 0 1 1 63,0 z"
     id="path7624"
     style="opacity:0.3;fill:none;stroke:#000000;stroke-width:1;stroke-miterlimit:4;stroke-dasharray:none;stroke-opacity:1" /><path
     d="m 91.999986,122.50012 a 30.500016,30.500035 0 1 1 0,-61.00007 30.500016,30.500035 0 0 1 0,61.00007 z"
     id="path7681"
     style="opacity:0.3;fill:none;stroke:url(#linearGradient3124);stroke-width:1;stroke-miterlimit:4;stroke-dasharray:none;stroke-opacity:1" /><rect
     width="55"
     height="55"
     rx="100"
     ry="100"
     x="64.5"
     y="988.86218"
     clip-path="url(#clipPath3947)"
     id="rect8115"
     style="color:#000000;display:inline;overflow:visible;visibility:visible;fill:url(#radialGradient3121);fill-opacity:1;fill-rule:nonzero;stroke:none;stroke-width:1;marker:none;enable-background:accumulate"
     transform="translate(0,-924.36218)" /><g
     clip-path="url(#clipPath3841)"
     id="text12703"
     style="font-style:normal;font-variant:normal;font-weight:bold;font-stretch:normal;font-size:72px;line-height:125%;font-family:'Open Sans';-inkscape-font-specification:'Open Sans Bold';text-align:center;letter-spacing:0px;word-spacing:0px;text-anchor:middle;opacity:0.6;fill:#000000;fill-opacity:1;stroke:none"
     transform="translate(0,-924.36218)"><path
       d="m 58.076172,1016.8153 -3.726563,-12.2344 H 35.611328 l -3.726562,12.2344 H 20.142578 l 18.140625,-51.60937 h 13.324219 l 18.210937,51.60937 H 58.076172 m -6.328125,-21.37499 c -3.445341,-11.08591 -5.390651,-17.35543 -5.835938,-18.8086 -0.4219,-1.45308 -0.726587,-2.60152 -0.914062,-3.44531 -0.773462,3.00004 -2.988303,10.418 -6.644531,22.25391 h 13.394531"
       id="path7869" /><path
       d="m 100.36914,1016.8153 -2.074218,-5.3437 h -0.28125 c -1.804714,2.2734 -3.667993,3.8554 -5.589844,4.7461 -1.898458,0.8671 -4.382831,1.3007 -7.453125,1.3007 -3.773449,0 -6.750008,-1.0781 -8.929687,-3.2343 -2.156254,-2.1563 -3.234378,-5.2266 -3.234375,-9.211 -3e-6,-4.1718 1.45312,-7.24215 4.359375,-9.21092 2.929677,-1.99216 7.335922,-3.09372 13.21875,-3.30468 l 6.820312,-0.21094 v -1.72266 c -2.7e-5,-3.98434 -2.039088,-5.97653 -6.117187,-5.97656 -3.140644,3e-5 -6.832046,0.94925 -11.074219,2.84766 l -3.550781,-7.24219 c 4.523426,-2.36715 9.539046,-3.55074 15.046875,-3.55078 5.27341,4e-5 9.316374,1.14847 12.128904,3.44531 2.81247,2.29691 4.21871,5.78909 4.21875,10.47656 v 26.1914 h -7.48828 m -3.164062,-18.21093 -4.148437,0.14063 c -3.117208,0.0938 -5.437518,0.65626 -6.960938,1.6875 -1.523452,1.0313 -2.28517,2.6016 -2.285156,4.7109 -1.4e-5,3.0235 1.734359,4.5352 5.203125,4.5352 2.484353,0 4.46482,-0.7148 5.941406,-2.1445 1.499973,-1.4297 2.249973,-3.3282 2.25,-5.6954 v -3.23433"
       id="path7871" /></g><path
     d="m 119.5,92.00002 a 27.500001,27.499996 0 0 1 -55.000002,0 27.500001,27.499998 0 1 1 55.000002,0 z"
     id="path8113"
     style="opacity:0.3;fill:none;stroke:#000000;stroke-width:1;stroke-miterlimit:4;stroke-dasharray:none;stroke-opacity:1" /><path
     d="m 91.999998,118.50002 a 26.50002,26.50002 0 0 0 0,-53.00004 26.50002,26.50002 0 1 0 0,53.00004 z"
     id="path8123"
     style="opacity:0.15;fill:none;stroke:url(#linearGradient3117);stroke-width:1;stroke-miterlimit:4;stroke-dasharray:none;stroke-opacity:1" /><path
     d="m 91.999993,117.50002 a 25.500035,25.500035 0 0 0 0,-51.00007 25.500035,25.500035 0 1 0 0,51.00007 z"
     id="path8127"
     style="opacity:0.08;fill:none;stroke:url(#linearGradient3114);stroke-width:1;stroke-miterlimit:4;stroke-dasharray:none;stroke-opacity:1" /><rect
     width="55"
     height="55"
     rx="100"
     ry="100"
     x="64.5"
     y="64.5"
     id="rect12723"
     style="color:#000000;display:inline;overflow:visible;visibility:visible;opacity:0.4;fill:url(#radialGradient3109);fill-opacity:1;fill-rule:nonzero;stroke:none;stroke-width:1;marker:none;enable-background:accumulate" /><rect
     width="26"
     height="34"
     rx="25.000002"
     ry="25"
     x="980.36218"
     y="-113"
     transform="rotate(90,454.6811,-458.6811)"
     id="rect12733"
     style="color:#000000;display:inline;overflow:visible;visibility:visible;opacity:0.5;fill:url(#linearGradient3106);fill-opacity:1;fill-rule:nonzero;stroke:none;stroke-width:1;marker:none;filter:url(#filter5104);enable-background:accumulate" /></svg>
