<?xml version="1.0" encoding="UTF-8" standalone="no"?>
<!-- Created with Inkscape (http://www.inkscape.org/) -->

<svg
   xmlns:dc="http://purl.org/dc/elements/1.1/"
   xmlns:cc="http://creativecommons.org/ns#"
   xmlns:rdf="http://www.w3.org/1999/02/22-rdf-syntax-ns#"
   xmlns:svg="http://www.w3.org/2000/svg"
   xmlns="http://www.w3.org/2000/svg"
   xmlns:xlink="http://www.w3.org/1999/xlink"
   xmlns:sodipodi="http://sodipodi.sourceforge.net/DTD/sodipodi-0.dtd"
   xmlns:inkscape="http://www.inkscape.org/namespaces/inkscape"
   version="1.0"
   width="24"
   height="24"
   id="svg3187"
   sodipodi:version="0.32"
   inkscape:version="0.47 r22583"
   sodipodi:docname="user-away.svg"
   inkscape:output_extension="org.inkscape.output.svg.inkscape">
  <metadata
     id="metadata12">
    <rdf:RDF>
      <cc:Work
         rdf:about="">
        <dc:format>image/svg+xml</dc:format>
        <dc:type
           rdf:resource="http://purl.org/dc/dcmitype/StillImage" />
      </cc:Work>
    </rdf:RDF>
  </metadata>
  <sodipodi:namedview
     inkscape:window-height="781"
     inkscape:window-width="1440"
     inkscape:pageshadow="2"
     inkscape:pageopacity="0.0"
     guidetolerance="10.0"
     gridtolerance="10.0"
     objecttolerance="10.0"
     borderopacity="1.0"
     bordercolor="#666666"
     pagecolor="#ffffff"
     id="base"
     showgrid="false"
     inkscape:zoom="10.375"
     inkscape:cx="-2.9638554"
     inkscape:cy="11.903614"
     inkscape:window-x="0"
     inkscape:window-y="24"
     inkscape:current-layer="svg3187"
     inkscape:window-maximized="1" />
  <defs
     id="defs3189">
    <linearGradient
       id="linearGradient3587-6-5-3">
      <stop
         id="stop3589-9-2-2"
         style="stop-color:#000000;stop-opacity:1"
         offset="0" />
      <stop
         id="stop3591-7-4-73"
         style="stop-color:#363636;stop-opacity:1"
         offset="1" />
    </linearGradient>
    <linearGradient
       inkscape:collect="always"
       xlink:href="#linearGradient3587-6-5-3"
       id="linearGradient2388"
       gradientUnits="userSpaceOnUse"
       gradientTransform="matrix(-0.4100229,0,0,0.5447147,103.52397,-3.2314456)"
       x1="222.33264"
       y1="15.111481"
       x2="222.33264"
       y2="38.983089" />
    <linearGradient
       id="linearGradient3587-6-5-3-1">
      <stop
         id="stop3589-9-2-2-1"
         style="stop-color:#000000;stop-opacity:1"
         offset="0" />
      <stop
         id="stop3591-7-4-73-5"
         style="stop-color:#363636;stop-opacity:1"
         offset="1" />
    </linearGradient>
    <linearGradient
       y2="38.983089"
       x2="222.33264"
       y1="15.111481"
       x1="222.33264"
       gradientTransform="matrix(0.4100229,0,0,0.5447147,-105.06614,-3.2314456)"
       gradientUnits="userSpaceOnUse"
       id="linearGradient2835"
       xlink:href="#linearGradient3587-6-5-3-1"
       inkscape:collect="always" />
    <linearGradient
       id="linearGradient3587-6-5-3-1-6">
      <stop
         id="stop3589-9-2-2-1-1"
         style="stop-color:#000000;stop-opacity:1"
         offset="0" />
      <stop
         id="stop3591-7-4-73-5-1"
         style="stop-color:#363636;stop-opacity:1"
         offset="1" />
    </linearGradient>
    <linearGradient
       y2="38.983089"
       x2="222.33264"
       y1="15.111481"
       x1="222.33264"
       gradientTransform="matrix(0.4100229,0,0,0.5447147,-105.06614,-3.2314456)"
       gradientUnits="userSpaceOnUse"
       id="linearGradient2875"
       xlink:href="#linearGradient3587-6-5-3-1-6"
       inkscape:collect="always" />
  </defs>
  <path
     style="opacity:0.6;fill:#ffffff;fill-opacity:1;fill-rule:nonzero;stroke:none;stroke-width:1;marker:none;visibility:visible;display:inline;overflow:visible;enable-background:accumulate"
     d="M 11.5 6 C 6.808 5.9999999 3 8.9120001 3 12.5 C 2.999999 16.088 6.808 19 11.5 19 C 13.908496 19 16.077862 18.23217 17.625 17 L 23 16.90625 L 19.71875 14.09375 C 19.887375 13.583288 20 13.050338 20 12.5 C 20 8.9120003 16.192 6 11.5 6 z M 13 9 L 17 13 L 13 17 L 13 14 L 7 14 L 7 12 L 13 12 L 13 9 z "
     id="path2413" />
  <path
     style="opacity:0.69999999999999996;fill:url(#linearGradient2388);fill-opacity:1;fill-rule:nonzero;stroke:none;stroke-width:1;marker:none;visibility:visible;display:inline;overflow:visible;enable-background:accumulate"
     d="M 11.5 5 C 6.808 4.9999999 3 7.9120001 3 11.5 C 2.999999 15.088 6.808 18 11.5 18 C 13.908496 18 16.077862 17.23217 17.625 16 L 23 15.90625 L 19.71875 13.09375 C 19.887375 12.583288 20 12.050338 20 11.5 C 20 7.9120003 16.192 5 11.5 5 z M 13 8 L 17 12 L 13 16 L 13 13 L 7 13 L 7 11 L 13 11 L 13 8 z "
     id="path2396" />
</svg>
