<svg xmlns="http://www.w3.org/2000/svg" xmlns:xlink="http://www.w3.org/1999/xlink" viewBox="0 0 16 16"><defs><linearGradient id="a"><stop offset="0" stop-color="#e5e5e5"/><stop offset="1" stop-color="#ababab"/></linearGradient><linearGradient x1="86.133" y1="105.105" x2="84.639" y2="20.895" id="f" xlink:href="#a" gradientUnits="userSpaceOnUse" gradientTransform="translate(1.847 1.943) scale(.09614)"/><linearGradient id="b"><stop offset="0" stop-color="#aaa"/><stop offset="1" stop-color="#8c8c8c"/></linearGradient><linearGradient x1="21" x2="21" y2="16.005" id="e" xlink:href="#b" gradientUnits="userSpaceOnUse" gradientTransform="translate(-17.058)"/><linearGradient x1="63.999" y1="3.1" x2="63.999" y2="122.899" id="c" gradientUnits="userSpaceOnUse"><stop offset="0" stop-color="#f6f6f6"/><stop offset="1" stop-color="#ccc"/></linearGradient><linearGradient x1="25" x2="25" y2="16" id="d" xlink:href="#c" gradientUnits="userSpaceOnUse" gradientTransform="translate(-17.058)"/></defs><path d="M6.938.5A.43.43 0 0 0 6.5.938v1.25a5.82 5.82 0 0 0-1.53.656l-.907-.906a.437.437 0 0 0-.625 0l-1.5 1.5a.437.437 0 0 0 0 .624l.906.907a5.82 5.82 0 0 0-.656 1.53H.938a.43.43 0 0 0-.438.434V9.06c0 .25.19.438.438.438h1.25a5.82 5.82 0 0 0 .656 1.53l-.906.907a.437.437 0 0 0 0 .624l1.5 1.5c.175.174.45.174.624 0l.907-.908c.48.285.972.514 1.53.656v1.25c0 .25.19.44.434.44H9.06a.43.43 0 0 0 .438-.44v-1.25a5.82 5.82 0 0 0 1.53-.656l.907.906a.43.43 0 0 0 .624 0l1.5-1.5a.437.437 0 0 0 0-.622l-.908-.907a5.82 5.82 0 0 0 .656-1.53h1.25a.43.43 0 0 0 .44-.437V6.938a.43.43 0 0 0-.44-.438h-1.25a5.82 5.82 0 0 0-.656-1.53l.906-.907a.437.437 0 0 0 0-.625l-1.5-1.5a.437.437 0 0 0-.622 0l-.907.906a5.82 5.82 0 0 0-1.53-.656V.938A.43.43 0 0 0 9.063.5H6.938zM8 6a2 2 0 1 1 0 4 2 2 0 0 1 0-4z" fill="url(#d)" stroke="url(#e)" stroke-linejoin="round" display="block" overflow="visible"/><path d="M8 3.465A4.54 4.54 0 0 0 3.465 8 4.54 4.54 0 0 0 8 12.535 4.54 4.54 0 0 0 12.535 8 4.54 4.54 0 0 0 8 3.465zm0 2.093a2.443 2.443 0 0 1 0 4.884 2.443 2.443 0 0 1 0-4.884z" opacity=".05"/><path d="M8 4C5.794 4 4 5.794 4 8s1.794 4 4 4 4-1.794 4-4-1.794-4-4-4z" fill="none" stroke="url(#f)"/></svg>