<?xml version="1.0" encoding="UTF-8" standalone="no"?>
<svg
   version="1.1"
   width="16"
   height="16"
   id="svg7435"
   xmlns:xlink="http://www.w3.org/1999/xlink"
   xmlns="http://www.w3.org/2000/svg"
   xmlns:svg="http://www.w3.org/2000/svg"
   xmlns:rdf="http://www.w3.org/1999/02/22-rdf-syntax-ns#"
   xmlns:cc="http://creativecommons.org/ns#"
   xmlns:dc="http://purl.org/dc/elements/1.1/">
  <defs
     id="defs7437">
    <linearGradient
       id="linearGradient11">
      <stop
         id="stop8"
         style="stop-color:#ffffff;stop-opacity:1"
         offset="0" />
      <stop
         id="stop9"
         style="stop-color:#ffffff;stop-opacity:0.23529412"
         offset="0.0001" />
      <stop
         id="stop10"
         style="stop-color:#ffffff;stop-opacity:0.15686275"
         offset="0.0001" />
      <stop
         id="stop11"
         style="stop-color:#ffffff;stop-opacity:0.39215687"
         offset="1" />
    </linearGradient>
    <linearGradient
       id="linearGradient2">
      <stop
         style="stop-color:#64baff;stop-opacity:1;"
         offset="0"
         id="stop1" />
      <stop
         style="stop-color:#3689e6;stop-opacity:1;"
         offset="1"
         id="stop2" />
    </linearGradient>
    <linearGradient
       id="linearGradient837">
      <stop
         style="stop-color:#fafafa;stop-opacity:1;"
         offset="0"
         id="stop833" />
      <stop
         style="stop-color:#d4d4d4;stop-opacity:1;"
         offset="1"
         id="stop835" />
    </linearGradient>
    <linearGradient
       id="linearGradient1847">
      <stop
         id="stop1839"
         style="stop-color:#ffffff;stop-opacity:1"
         offset="0" />
      <stop
         id="stop1841"
         style="stop-color:#ffffff;stop-opacity:0.23529412"
         offset="0.49771357" />
      <stop
         id="stop1843"
         style="stop-color:#ffffff;stop-opacity:0.15686275"
         offset="0.74999994" />
      <stop
         id="stop1845"
         style="stop-color:#ffffff;stop-opacity:0.39215687"
         offset="1" />
    </linearGradient>
    <linearGradient
       id="linearGradient963">
      <stop
         offset="0"
         style="stop-color:#ffffff;stop-opacity:1"
         id="stop955" />
      <stop
         offset="0"
         style="stop-color:#ffffff;stop-opacity:0.23529412"
         id="stop957" />
      <stop
         offset="1"
         style="stop-color:#ffffff;stop-opacity:0.15686275"
         id="stop959" />
      <stop
         offset="1"
         style="stop-color:#ffffff;stop-opacity:0.39215687"
         id="stop961" />
    </linearGradient>
    <linearGradient
       xlink:href="#linearGradient1847"
       id="linearGradient1697-2"
       gradientUnits="userSpaceOnUse"
       gradientTransform="matrix(-0.21621622,0,0,0.21621622,16.689191,23.310812)"
       x1="51.798126"
       y1="-98.562508"
       x2="51.798126"
       y2="-61.562508" />
    <linearGradient
       xlink:href="#linearGradient2"
       id="linearGradient1695-1"
       gradientUnits="userSpaceOnUse"
       gradientTransform="matrix(-0.52631574,0,0,0.52631574,17.315788,22.684197)"
       x1="26.950296"
       y1="-42.231876"
       x2="26.950296"
       y2="-21.229681" />
    <linearGradient
       xlink:href="#linearGradient963"
       id="linearGradient1693-4"
       gradientUnits="userSpaceOnUse"
       gradientTransform="matrix(0.21621622,0,0,0.21621622,-15.687938,5.309558)"
       x1="23.99999"
       y1="7.818294"
       x2="23.99999"
       y2="40.193295" />
    <linearGradient
       xlink:href="#linearGradient837"
       id="linearGradient1"
       gradientUnits="userSpaceOnUse"
       gradientTransform="matrix(-0.52631574,0,0,0.52631574,17.315788,22.684197)"
       x1="3.4499974"
       y1="-32.649979"
       x2="3.4499974"
       y2="-13.649976" />
    <linearGradient
       xlink:href="#linearGradient11"
       id="linearGradient5"
       x1="8.514596"
       y1="7"
       x2="8.514596"
       y2="10"
       gradientUnits="userSpaceOnUse" />
  </defs>
  <metadata
     id="metadata7440">
    <rdf:RDF>
      <cc:Work
         rdf:about="">
        <dc:format>image/svg+xml</dc:format>
        <dc:type
           rdf:resource="http://purl.org/dc/dcmitype/StillImage" />
      </cc:Work>
    </rdf:RDF>
  </metadata>
  <path
     style="opacity:1;vector-effect:none;fill:url(#linearGradient1);fill-opacity:1;stroke:none;stroke-width:1;stroke-linecap:butt;stroke-linejoin:miter;stroke-miterlimit:4;stroke-dasharray:none;stroke-dashoffset:0;stroke-opacity:1;marker:none"
     d="m 14.5,5.5 h -8 c -0.554,0 -1,0.446 -1,1 v 8 c 0,0.554 0.446,1 1,1 h 8 c 0.554,0 1,-0.446 1,-1 v -8 c 0,-0.554 -0.446,-1 -1,-1 z"
     id="path1" />
  <path
     id="rect6741-9-5-1"
     style="opacity:0.5;fill:none;stroke:url(#linearGradient1693-4);stroke-width:1;stroke-linecap:round;stroke-linejoin:round;stroke-miterlimit:4;stroke-dasharray:none;stroke-dashoffset:0;stroke-opacity:1"
     d="M -12.480469 6.4980469 A 6.5 6.5 0 0 0 -6.4980469 12.480469 L -6.4980469 14.498047 L -14.498047 14.498047 L -14.498047 6.4980469 L -12.480469 6.4980469 z "
     transform="scale(-1,1)" />
  <path
     id="path8339-9"
     style="opacity:0.5;vector-effect:none;fill:none;fill-opacity:1;stroke:url(#linearGradient5);stroke-width:1;stroke-linecap:round;stroke-linejoin:round;stroke-miterlimit:4;stroke-dasharray:none;stroke-dashoffset:0;stroke-opacity:1"
     d="M 6.4980469 6.4980469 L 6.4980469 10.474609 A 4.4999993 4.4999996 0 0 0 10.472656 6.4980469 L 6.4980469 6.4980469 z " />
  <path
     id="path8335-7"
     style="opacity:0.5;vector-effect:none;fill:none;fill-opacity:1;stroke:#555761;stroke-width:1;stroke-linecap:round;stroke-linejoin:round;stroke-miterlimit:4;stroke-dasharray:none;stroke-dashoffset:0;stroke-opacity:1;marker:none"
     d="M 11.476562 5.5 A 5.5 5.5 0 0 1 11.5 6 A 5.5 5.5 0 0 1 6 11.5 A 5.5 5.5 0 0 1 5.5 11.476562 L 5.5 14.5 C 5.5 15.054 5.946 15.5 6.5 15.5 L 14.5 15.5 C 15.054 15.5 15.5 15.054 15.5 14.5 L 15.5 6.5 C 15.5 5.946 15.054 5.5 14.5 5.5 L 11.476562 5.5 z " />
  <path
     id="path8335-9-5"
     style="display:inline;opacity:1;vector-effect:none;fill:url(#linearGradient1695-1);fill-opacity:1;stroke:none;stroke-width:1;stroke-linecap:butt;stroke-linejoin:miter;stroke-miterlimit:4;stroke-dasharray:none;stroke-dashoffset:0;stroke-opacity:1;marker:none"
     d="M 5.75,0.50585938 A 5.5000005,5.5000019 0 0 0 0.5,6 a 5.5000005,5.5000019 0 0 0 5,5.476562 V 6.5 c 0,-0.554 0.446,-1 1,-1 h 4.976562 A 5.5000005,5.5000019 0 0 0 5.75,0.50585938 Z" />
  <path
     id="path3"
     style="display:inline;opacity:0.5;vector-effect:none;fill:none;fill-opacity:1;stroke:url(#linearGradient1697-2);stroke-width:1;stroke-linecap:round;stroke-linejoin:round;stroke-miterlimit:4;stroke-dasharray:none;stroke-dashoffset:0;stroke-opacity:1"
     d="M 5.8652344,1.5 A 4.4999993,4.4999996 0 0 0 1.5,6 a 4.4999993,4.4999996 0 0 0 3,4.244141 V 6.5 c 0,-1.108 0.892,-2 2,-2 h 3.744141 a 4.4999993,4.4999996 0 0 0 -4.3789066,-3 z" />
  <path
     id="path2"
     style="display:inline;opacity:0.5;vector-effect:none;fill:none;fill-opacity:1;stroke:#002e99;stroke-width:1;stroke-linecap:round;stroke-linejoin:round;stroke-miterlimit:4;stroke-dasharray:none;stroke-dashoffset:0;stroke-opacity:1;marker:none"
     d="M 5.75,0.50585938 A 5.5000005,5.5000019 0 0 0 0.5,6 a 5.5000005,5.5000019 0 0 0 5,5.476562 V 6.5 c 0,-0.554 0.446,-1 1,-1 h 4.976562 A 5.5000005,5.5000019 0 0 0 5.75,0.50585938 Z" />
</svg>
