<svg xmlns="http://www.w3.org/2000/svg" xmlns:xlink="http://www.w3.org/1999/xlink" viewBox="0 0 16 16"><defs><linearGradient gradientTransform="matrix(.24324 0 0 .35135 2.162 -.432)" gradientUnits="userSpaceOnUse" xlink:href="#a" id="e" y2="41.077" x2="24" y1="6.923" x1="24"/><linearGradient id="a"><stop offset="0" stop-color="#fff"/><stop offset="0" stop-color="#fff" stop-opacity=".235"/><stop offset="1" stop-color="#fff" stop-opacity=".157"/><stop offset="1" stop-color="#fff" stop-opacity=".392"/></linearGradient><linearGradient id="b"><stop offset="0" stop-color="#f4f4f4"/><stop offset="1" stop-color="#dbdbdb"/></linearGradient><linearGradient gradientTransform="matrix(.2857 0 0 .3042 1.143 .233)" gradientUnits="userSpaceOnUse" xlink:href="#b" id="d" y2="47.013" x2="25.132" y1=".985" x1="25.132"/><linearGradient id="c"><stop offset="0" stop-opacity=".34"/><stop offset="1" stop-opacity=".247"/></linearGradient><linearGradient gradientTransform="matrix(.2538 0 0 .30502 19.13 -.685)" gradientUnits="userSpaceOnUse" xlink:href="#c" id="f" y2="2.906" x2="-51.786" y1="50.786" x1="-51.786"/></defs><path d="M3 1h10v14H3V1z" fill="url(#d)"/><path d="M12.5 14.5h-9v-13h9z" fill="none" stroke="url(#e)" stroke-linecap="round"/><path d="M2.5.5h11v15h-11V.5z" fill="none" stroke="url(#f)" stroke-linejoin="round"/><path d="M4 3v1h8V3zm0 2v1h8V5zm0 2v1h8V7zm0 2v1h5V9zm0 2v1h5v-1z" style="isolation:auto;mix-blend-mode:normal" color="#000" overflow="visible" opacity=".8" fill="#babdb6"/><path d="M4 3v10l8-.008V3z" opacity=".3" fill="#729fcf"/><path d="M8.5 9.5v1.647h.8v.64h-.8V13.5h4v-1.714h-.775v-.64h.775V9.5h-4z" fill="#fff"/><path d="M9 10v.5h1v2H9v.5h3v-.5h-1v-2h1V10z" fill="#333"/></svg>