<svg xmlns="http://www.w3.org/2000/svg" xmlns:xlink="http://www.w3.org/1999/xlink" viewBox="0 0 16 16"><defs><linearGradient id="d"><stop offset="0" stop-color="#e4e4e4"/><stop offset="1" stop-color="#fff"/></linearGradient><linearGradient id="c"><stop offset="0" stop-color="#fff"/><stop offset=".131" stop-color="#fff" stop-opacity=".235"/><stop offset=".902" stop-color="#fff" stop-opacity=".157"/><stop offset="1" stop-color="#fff" stop-opacity=".392"/></linearGradient><linearGradient id="a"><stop offset="0" stop-color="#ffcd7d"/><stop offset=".262" stop-color="#fc8f36"/><stop offset="1" stop-color="#e23a0e"/></linearGradient><linearGradient id="b"><stop offset="0" stop-color="#ba3d12"/><stop offset="1" stop-color="#db6737"/></linearGradient><linearGradient x1=".365" y1="19.599" x2="28.06" y2="19.599" id="f" xlink:href="#a" gradientUnits="userSpaceOnUse" gradientTransform="matrix(.30652 .07077 .00207 .35163 1.444 -2.71)" spreadMethod="reflect"/><linearGradient x1="30" y1="30" x2="-11" y2="30" id="g" xlink:href="#b" gradientUnits="userSpaceOnUse" gradientTransform="matrix(.2311 .05336 .00155 .2633 3.115 -1.754)" spreadMethod="reflect"/><linearGradient x1="24.002" y1="9.295" x2="22.876" y2="37.168" id="h" xlink:href="#c" gradientUnits="userSpaceOnUse" gradientTransform="matrix(.22538 .05203 .0015 .25556 3.253 -1.53)"/><linearGradient xlink:href="#d" id="e" x1="3.139" y1="8.199" x2="2" y2="8" gradientUnits="userSpaceOnUse"/></defs><path d="M1.5.996C2.185.468 2.55.342 3.443 1l.024 14c-.558.447-1.166.645-1.943-.004z" color="#000" overflow="visible" opacity=".366" fill="url(#e)" stroke="#000" stroke-linejoin="round"/><path d="M3.477.9C3.464.483 5.022.334 6.622.77c1.6.433 2.03 1.166 3.843 1.67 1.68.47 4.04-.05 4.033.368l.048 8.17c.018.562-2.2.58-4.012.157-1.813-.425-2.154-1.25-3.86-1.68-1.707-.43-3.188.3-3.15-.47z" fill="url(#f)" fill-rule="evenodd" stroke="url(#g)" stroke-linejoin="round"/><path d="M6.646 1.825c-.667-.187-1.34-.212-1.846-.202a2.64 2.64 0 0 0-.325.02l.03 6.68c.063-.005.054.003.128-.003.544-.047 1.373-.122 2.284.11.88.225 1.455.588 1.942.897.48.31.87.552 1.62.73.793.185 2.19.252 2.713.257a2.57 2.57 0 0 0 .355-.014l-.05-6.587c-.084.004-.12.01-.228.012-.6.008-2.092-.013-3.032-.267-.916-.248-1.535-.627-2.03-.92-.505-.294-.906-.527-1.57-.713z" opacity=".5" fill="none" stroke="url(#h)"/></svg>