<svg xmlns="http://www.w3.org/2000/svg" xmlns:xlink="http://www.w3.org/1999/xlink" viewBox="0 0 16 16"><defs><linearGradient gradientTransform="matrix(0 -.39448 -.42345 0 16.496 18.346)" gradientUnits="userSpaceOnUse" xlink:href="#a" id="d" y2="15.991" x2="20.576" y1="15.991" x1="38.941"/><linearGradient id="a"><stop offset="0" stop-color="#fff"/><stop offset=".512" stop-color="#fff" stop-opacity=".235"/><stop offset=".585" stop-color="#fff" stop-opacity=".157"/><stop offset="1" stop-color="#fff" stop-opacity=".392"/></linearGradient><linearGradient id="b"><stop offset="0" stop-color="#fff3cb"/><stop offset=".262" stop-color="#fdde76"/><stop offset=".661" stop-color="#f9c440"/><stop offset="1" stop-color="#e48b20"/></linearGradient><linearGradient gradientTransform="matrix(-.36133 0 0 .3366 17.14 .135)" gradientUnits="userSpaceOnUse" xlink:href="#b" id="c" y2="33.876" x2="23.732" y1="4.418" x1="23.732"/></defs><path d="M11.61 13.16c3.75-3.27 2.557-8.604-3.11-8.747V1.65L2.36 6.254l6.14 4.603v-2.74c3.298-.128 5.006 2.88 2.648 5.042z" display="block" overflow="visible" fill="url(#c)"/><path d="M12.49 11.555c1.62-1.895.41-6.574-4.962-6.207l-.056-1.703-3.57 2.61 3.57 2.636V7.207c5.14-.496 5.502 3.584 5.018 4.35z" display="block" overflow="visible" opacity=".8" fill="none" stroke="url(#d)" stroke-width=".964" stroke-miterlimit="7"/><path d="M11.61 13.16c3.75-3.27 2.557-8.604-3.11-8.747V1.65L2.36 6.254l6.14 4.603v-2.74c3.298-.128 5.006 2.88 2.648 5.042z" style="isolation:auto;mix-blend-mode:normal;filter-blend-mode:normal;filter-gaussianBlur-deviation:0" overflow="visible" fill="none" stroke="#956500" color="#000" opacity=".5"/></svg>