<?xml version="1.0" encoding="UTF-8" standalone="no"?>
<svg
   xmlns:dc="http://purl.org/dc/elements/1.1/"
   xmlns:cc="http://creativecommons.org/ns#"
   xmlns:rdf="http://www.w3.org/1999/02/22-rdf-syntax-ns#"
   xmlns:svg="http://www.w3.org/2000/svg"
   xmlns="http://www.w3.org/2000/svg"
   xmlns:xlink="http://www.w3.org/1999/xlink"
   version="1.1"
   id="svg5400"
   height="16px"
   width="16px">
  <defs
     id="defs5402">
    <linearGradient
       id="linearGradient845">
      <stop
         style="stop-color:#333333;stop-opacity:1"
         offset="0"
         id="stop841" />
      <stop
         style="stop-color:#666666;stop-opacity:1"
         offset="1"
         id="stop843" />
    </linearGradient>
    <linearGradient
       id="linearGradient839">
      <stop
         id="stop835"
         offset="0"
         style="stop-color:#68b723;stop-opacity:1" />
      <stop
         id="stop837"
         offset="1"
         style="stop-color:#d1ff82;stop-opacity:1" />
    </linearGradient>
    <linearGradient
       id="linearGradient3821">
      <stop
         id="stop3823"
         offset="0"
         style="stop-color:#555555;stop-opacity:1;" />
      <stop
         id="stop3825"
         offset="1"
         style="stop-color:#666666;stop-opacity:1;" />
    </linearGradient>
    <linearGradient
       gradientTransform="matrix(-1,0,0,1,17.020032,1)"
       y2="0"
       x2="8"
       y1="16"
       x1="8"
       gradientUnits="userSpaceOnUse"
       id="linearGradient4621"
       xlink:href="#linearGradient3821" />
    <linearGradient
       gradientTransform="matrix(-1.3333333,0,0,1,17.520032,1)"
       y2="0"
       x2="8"
       y1="16"
       x1="8"
       gradientUnits="userSpaceOnUse"
       id="linearGradient4629"
       xlink:href="#linearGradient3821" />
    <linearGradient
       gradientTransform="matrix(-0.72727269,0,0,1,16.610941,1)"
       y2="-1"
       x2="7.6875005"
       y1="15"
       x1="7.6875005"
       gradientUnits="userSpaceOnUse"
       id="linearGradient4637"
       xlink:href="#linearGradient845" />
    <linearGradient
       gradientTransform="matrix(-1.1592256,0,0,1.4781714,19.967722,-7.9402064)"
       gradientUnits="userSpaceOnUse"
       y2="10.686796"
       x2="12.087483"
       y1="16.286749"
       x1="12.087483"
       id="linearGradient841"
       xlink:href="#linearGradient839" />
  </defs>
  <metadata
     id="metadata5405">
    <rdf:RDF>
      <cc:Work
         rdf:about="">
        <dc:format>image/svg+xml</dc:format>
        <dc:type
           rdf:resource="http://purl.org/dc/dcmitype/StillImage" />
        <dc:title />
      </cc:Work>
    </rdf:RDF>
  </metadata>
  <path
     style="color:#bebebe;font-style:normal;font-variant:normal;font-weight:normal;font-stretch:normal;font-size:medium;line-height:normal;font-family:Sans;-inkscape-font-specification:Sans;text-indent:0;text-align:start;text-decoration:none;text-decoration-line:none;letter-spacing:normal;word-spacing:normal;text-transform:none;writing-mode:lr-tb;direction:ltr;baseline-shift:baseline;text-anchor:start;display:inline;overflow:visible;visibility:visible;fill:url(#linearGradient4621);fill-opacity:1;stroke:none;stroke-width:1;marker:none;enable-background:accumulate"
     d="m 15.020032,5.5 h 0.5 V 6 7 7.5 h -0.5 c 0,0 -5.9969162,0 -11.0000002,0 h -0.5 V 7 6 5.5 h 0.5 c 0,0 5.9969162,0 11.0000002,0 z"
     id="path4545" />
  <path
     style="color:#bebebe;display:inline;overflow:visible;visibility:visible;opacity:0.2;fill:#bebebe;fill-opacity:1;stroke:none;stroke-width:1;marker:none"
     d="M 11.020032,6 V 6.5 H 9.0200318 V 6 Z m 4,0 v 0.5 h -4 V 6 Z M 9.0200318,6 v 0.5 h -5 V 6 Z"
     id="rect31992" />
  <path
     id="path4559"
     d="m 15.020032,5.5 h 0.5 V 6 7 7.5 h -0.5 c 0,0 -5.9969162,0 -11.0000002,0 h -0.5 V 7 6 5.5 h 0.5 c 0,0 5.9969162,0 11.0000002,0 z"
     style="color:#bebebe;font-style:normal;font-variant:normal;font-weight:normal;font-stretch:normal;font-size:medium;line-height:normal;font-family:Sans;-inkscape-font-specification:Sans;text-indent:0;text-align:start;text-decoration:none;text-decoration-line:none;letter-spacing:normal;word-spacing:normal;text-transform:none;writing-mode:lr-tb;direction:ltr;baseline-shift:baseline;text-anchor:start;display:inline;overflow:visible;visibility:visible;opacity:0.61000001;fill:none;stroke:#000000;stroke-width:1;stroke-opacity:1;marker:none;enable-background:accumulate" />
  <path
     id="path4623"
     d="m 14.853365,1.5 h 0.666667 V 2 3 3.5 h -0.666667 c 0,0 -3.995888,0 -10.6666672,0 H 3.5200318 V 3 2 1.5 h 0.666666 c 0,0 3.9958888,0 10.6666672,0 z"
     style="color:#bebebe;font-style:normal;font-variant:normal;font-weight:normal;font-stretch:normal;font-size:medium;line-height:normal;font-family:Sans;-inkscape-font-specification:Sans;text-indent:0;text-align:start;text-decoration:none;text-decoration-line:none;letter-spacing:normal;word-spacing:normal;text-transform:none;writing-mode:lr-tb;direction:ltr;baseline-shift:baseline;text-anchor:start;display:inline;overflow:visible;visibility:visible;fill:url(#linearGradient4629);fill-opacity:1;stroke:none;stroke-width:1;marker:none;enable-background:accumulate" />
  <path
     id="path4625"
     d="M 9.5200318,2 V 2.5 H 6.8533648 V 2 Z M 14.853365,2 V 2.5 H 9.5200318 V 2 Z M 6.8533648,2 V 2.5 H 4.1866978 V 2 Z"
     style="color:#bebebe;display:inline;overflow:visible;visibility:visible;opacity:0.2;fill:#bebebe;fill-opacity:1;stroke:none;stroke-width:1;marker:none" />
  <path
     style="color:#bebebe;font-style:normal;font-variant:normal;font-weight:normal;font-stretch:normal;font-size:medium;line-height:normal;font-family:Sans;-inkscape-font-specification:Sans;text-indent:0;text-align:start;text-decoration:none;text-decoration-line:none;letter-spacing:normal;word-spacing:normal;text-transform:none;writing-mode:lr-tb;direction:ltr;baseline-shift:baseline;text-anchor:start;display:inline;overflow:visible;visibility:visible;opacity:0.61000001;fill:none;stroke:#000000;stroke-width:1;stroke-opacity:1;marker:none;enable-background:accumulate"
     d="m 14.853365,1.5 h 0.666667 V 2 3 3.5 h -0.666667 c 0,0 -3.995888,0 -10.6666672,0 H 3.5200318 V 3 2 1.5 h 0.666666 c 0,0 3.9958888,0 10.6666672,0 z"
     id="path4627" />
  <path
     style="color:#bebebe;font-style:normal;font-variant:normal;font-weight:normal;font-stretch:normal;font-size:medium;line-height:normal;font-family:Sans;-inkscape-font-specification:Sans;text-indent:0;text-align:start;text-decoration:none;text-decoration-line:none;letter-spacing:normal;word-spacing:normal;text-transform:none;writing-mode:lr-tb;direction:ltr;baseline-shift:baseline;text-anchor:start;display:inline;overflow:visible;visibility:visible;fill:url(#linearGradient4637);fill-opacity:1;stroke:none;stroke-width:0.99999994;marker:none;enable-background:accumulate"
     d="m 15.156396,9.5 h 0.363636 v 0.5 1 0.5 h -0.363636 c 0,0 -3.634121,0 -7.2727273,0 H 7.5200323 V 11 10 9.5 h 0.3636364 c 0,0 3.6341203,0 7.2727273,0 z"
     id="path4631" />
  <path
     style="color:#bebebe;display:inline;overflow:visible;visibility:visible;opacity:0.2;fill:#bebebe;fill-opacity:1;stroke:none;stroke-width:0.99999994;marker:none"
     d="m 12.220032,10 v 0.5 h -1.4 V 10 Z m 2.8,0 v 0.5 h -2.8 V 10 Z m -4.2,0 v 0.5 H 8.0200317 V 10 Z"
     id="path4633" />
  <path
     id="path4635"
     d="m 15.156396,9.5 h 0.363636 v 0.5 1 0.5 h -0.363636 c 0,0 -3.634121,0 -7.2727273,0 H 7.5200323 V 11 10 9.5 h 0.3636364 c 0,0 3.6341203,0 7.2727273,0 z"
     style="color:#bebebe;font-style:normal;font-variant:normal;font-weight:normal;font-stretch:normal;font-size:medium;line-height:normal;font-family:Sans;-inkscape-font-specification:Sans;text-indent:0;text-align:start;text-decoration:none;text-decoration-line:none;letter-spacing:normal;word-spacing:normal;text-transform:none;writing-mode:lr-tb;direction:ltr;baseline-shift:baseline;text-anchor:start;display:inline;overflow:visible;visibility:visible;opacity:0.61000001;fill:none;stroke:#000000;stroke-width:0.99999994;stroke-opacity:1;marker:none;enable-background:accumulate" />
  <path
     id="path833"
     d="m 10.520032,10.5 v 3 H 5.5200318 V 15 L 1.7968988,11.995555 5.5200318,9 v 1.5 z"
     style="fill:url(#linearGradient841);fill-opacity:1;stroke:#206b00;stroke-width:1px;stroke-linecap:butt;stroke-linejoin:miter;stroke-opacity:0.61176471" />
</svg>
