<svg xmlns="http://www.w3.org/2000/svg" xmlns:xlink="http://www.w3.org/1999/xlink" viewBox="0 0 16 16"><defs><radialGradient cx="7.616" cy="-24.34" r="20" fx="7.616" fy="-24.34" id="c" xlink:href="#a" gradientUnits="userSpaceOnUse" gradientTransform="matrix(0 1.0423 1.3153 0 42.36 -10.734)"/><linearGradient id="a"><stop offset="0" stop-color="#737373"/><stop offset=".262" stop-color="#636363"/><stop offset=".705" stop-color="#4b4b4b"/><stop offset="1" stop-color="#3f3f3f"/></linearGradient><linearGradient id="b"><stop offset="0" stop-color="#737373"/><stop offset=".262" stop-color="#636363"/><stop offset=".705" stop-color="#4b4b4b"/><stop offset="1" stop-color="#3f3f3f"/></linearGradient><radialGradient cx="23.385" cy="-.631" r="20" fx="23.385" fy="-.631" id="d" xlink:href="#b" gradientUnits="userSpaceOnUse" gradientTransform="matrix(-1.5 0 0 -1.52413 5.976 2.904)"/></defs><path d="M15 6.932a.77.77 0 0 1-.246.573l-6.085 6.22a.9.9 0 0 1-.44.247.845.845 0 0 1-.25.027.86.86 0 0 1-.08 0c-.05-.01-.09-.01-.14-.03a.93.93 0 0 1-.464-.25L1.22 7.5c-.315-.313-.287-.83.055-1.17L2.503 5.1c.342-.34.885-.37 1.2-.053l2.3 2.534V1.85c0-.483.627-.872 1.11-.872H8.86a.87.87 0 0 1 .873.873v5.76l2.565-2.56c.316-.316.83-.29 1.173.054l1.26 1.23a.9.9 0 0 1 .28.6z" opacity=".35" color="#000" fill="#fff" overflow="visible"/><path d="M15.092 5.85a.762.762 0 0 1-.243.566l-6.12 6.31a.89.89 0 0 1-.43.242.837.837 0 0 1-.25.027.875.875 0 0 1-.08 0c-.05-.008-.09-.01-.138-.027a.92.92 0 0 1-.46-.242L1.3 6.416c-.31-.312-.29-.83.055-1.16l1.27-1.213c.346-.33.875-.366 1.188-.054l2.267 2.2V.83c0-.48.633-.862 1.11-.862h1.73c.477 0 1.16.385 1.16.863v5.366l2.24-2.207c.314-.31.822-.29 1.16.05l1.34 1.21c.17.17.262.38.27.592z" color="#000" fill="url(#c)" overflow="visible"/><path d="M14.557 5.934c.003.074-.018.154-.108.243l-6.02 6.15a.507.507 0 0 1-.25.133c-.065.015-.09 0-.11 0a.43.43 0 0 0-.027 0c-.04-.006-.02 0-.028 0H8a.43.43 0 0 0-.082-.027.466.466 0 0 1-.243-.107l-6.02-6.15c-.137-.137-.14-.37.055-.566l1.215-1.213c.186-.186.464-.183.593-.054l2.51 2.508c.238.24.542.04.55-.29v-5.5c0-.25.252-.5.5-.5h2c.248 0 .5.25.5.5v5.52c.008.337.26.53.5.3l2.536-2.533c.138-.138.373-.14.567.054l1.25 1.21a.49.49 0 0 1 .137.326z" opacity=".1" color="#000" fill="none" stroke="#000" stroke-linecap="round" stroke-linejoin="round" overflow="visible"/><path d="M13.56 5.887l-5.478 5.61-5.48-5.583.676-.674 2.186 2.185c.7.705 2.145.103 2.144-.89V1.533h1v5.03c-.002.992 1.392 1.594 2.092.89l2.214-2.213z" opacity=".03" color="#000" fill="none" stroke="#000" overflow="visible"/><path d="M-38.12 13.725c-.01.246.1.476.28.657l6.97 7.125c.147.147.317.238.5.28a.968.968 0 0 0 .28.032h.095a.83.83 0 0 0 .156-.04c.19-.04.38-.13.54-.28l6.97-7.127c.363-.36.33-.95-.06-1.344l-1.407-1.406c-.392-.39-1.014-.422-1.375-.06l-2.906 2.904V7.91c0-.553-.445-1-1-1h-2a1 1 0 0 0-1 1v6.595l-2.936-2.938c-.36-.363-.95-.33-1.343.06l-1.44 1.407a1.035 1.035 0 0 0-.312.687zM14 14.747a.763.763 0 0 0-.75-.75H2.75a.763.763 0 0 0-.75.75v1.5c0 .404.346.75.75.75.002.006 10.5 0 10.5 0 .404 0 .75-.346.75-.75z" opacity=".35" color="#000" fill="#fff" overflow="visible"/><path d="M13.517 15.01v-.53H3.484v.534l10.033-.005z" opacity=".03" fill="none" stroke="#000" stroke-width=".968" stroke-linecap="square" stroke-dashoffset=".7"/><path d="M-24.1 21.614a.763.763 0 0 0-.75-.75h-10.5a.763.763 0 0 0-.75.75v1.5c0 .404.345.75.75.75h10.5c.403 0 .75-.346.75-.75z" color="#000" fill="url(#d)" overflow="visible" transform="translate(38.102 -7.866)"/><path d="M13.5 13.748a.25.25 0 0 0-.25-.25H2.75a.25.25 0 0 0-.25.25v1.5c0 .138.112.25.25.25h10.5a.25.25 0 0 0 .25-.25z" opacity=".1" color="#000" fill="none" stroke="#000" stroke-linecap="round" stroke-linejoin="round" overflow="visible"/><path d="M12.47 14.53H3.532v.937h8.938z" opacity=".03" color="#000" fill="none" stroke="#000" overflow="visible"/></svg>