<?xml version="1.0" encoding="UTF-8" standalone="no"?>
<svg
   xmlns:dc="http://purl.org/dc/elements/1.1/"
   xmlns:cc="http://creativecommons.org/ns#"
   xmlns:rdf="http://www.w3.org/1999/02/22-rdf-syntax-ns#"
   xmlns:svg="http://www.w3.org/2000/svg"
   xmlns="http://www.w3.org/2000/svg"
   xmlns:xlink="http://www.w3.org/1999/xlink"
   version="1.1"
   width="16"
   height="16"
   id="svg4524">
  <defs
     id="defs4526">
    <linearGradient
       id="linearGradient835">
      <stop
         offset="0"
         style="stop-color:#9bdb4d;stop-opacity:1"
         id="stop827" />
      <stop
         offset="1"
         style="stop-color:#68b723;stop-opacity:1"
         id="stop833" />
    </linearGradient>
    <linearGradient
       gradientTransform="matrix(-1,0,0,1,16.108819,0)"
       gradientUnits="userSpaceOnUse"
       y2="15"
       x2="8"
       y1="1.5206764"
       x1="7.98877"
       id="linearGradient825"
       xlink:href="#linearGradient835" />
  </defs>
  <metadata
     id="metadata4529">
    <rdf:RDF>
      <cc:Work
         rdf:about="">
        <dc:format>image/svg+xml</dc:format>
        <dc:type
           rdf:resource="http://purl.org/dc/dcmitype/StillImage" />
        <dc:title />
      </cc:Work>
    </rdf:RDF>
  </metadata>
  <path
     d="M 8.1470169,0.99005125 C 7.9349074,0.98156125 7.736716,1.0768055 7.5806879,1.232959 L 1.27082,7.3504628 C 1.144048,7.4773371 1.064852,7.6241951 1.028108,7.7822989 c -0.01887,0.081211 -0.03218,0.1618167 -0.02697,0.2429078 -0.0015,0.026161 -0.001,0.054619 0,0.080969 0.0082,0.047485 0.01015,0.089823 0.02697,0.1349488 0.03508,0.1630336 0.112221,0.3282291 0.242712,0.4588258 L 7.5806878,14.77699 c 0.3120561,0.312308 0.8295894,0.292184 1.1596261,-0.05398 l 1.2135622,-1.272864 c 0.3300359,-0.346163 0.3659919,-0.875242 0.053936,-1.187549 L 7.80098,10 h 5.362094 c 0.478089,0 0.862977,-0.6326481 0.862977,-1.1111225 V 7.1615334 C 14.026051,6.6830592 13.641198,6 13.163109,6 H 7.80098 L 10.007812,3.7608247 C 10.317714,3.4463812 10.291936,2.938599 9.9538762,2.6002665 L 8.740314,1.2599487 C 8.5712834,1.0907826 8.3591264,0.99854245 8.1470169,0.99005125 Z"
     id="rect3811-1"
     style="color:#000000;display:inline;overflow:visible;visibility:visible;fill:url(#linearGradient825);fill-opacity:1;fill-rule:nonzero;stroke:none;stroke-width:1;marker:none;enable-background:accumulate" />
  <path
     d="m 8.1200488,1.5206764 c -0.073465,-0.00295 -0.1534322,0.018607 -0.2427124,0.107959 L 1.728621,7.6473501 c -0.07291,0.072972 -0.115625,0.1602302 -0.13484,0.2429078 -0.01477,0.063532 -10e-4,0.091768 0,0.107959 2.83e-4,0.00899 2.83e-4,0.017996 0,0.02699 0.0067,0.039064 -0.0011,0.01894 0,0.02699 -2.48e-4,0.00449 -7.36e-4,0.00855 0,0.02699 0.01164,0.026005 0.02069,0.053173 0.02697,0.080969 0.02039,0.094763 0.04549,0.1804764 0.107872,0.2429078 l 6.1487134,6.0187143 c 0.137953,0.138064 0.3722747,0.140231 0.566329,-0.05398 L 9.6572276,13.15326 c 0.1859898,-0.18614 0.1831523,-0.464455 0.053936,-0.593775 L 7.2031352,10.049438 C 6.9717925,9.8118139 7.1683818,9.5081732 7.4997837,9.5 H 13.00098 c 0.247903,0 0.5,-0.2518972 0.5,-0.5 V 7 c 0,-0.2481026 -0.252097,-0.5 -0.5,-0.5 -0.784163,0 -3.618032,0 -5.5281643,0 C 7.1414136,6.491827 6.9448241,6.2385994 7.1761671,6.0009753 L 9.7111637,3.4639386 C 9.8491158,3.3258756 9.8512819,3.0913641 9.6572276,2.8971538 L 8.4436654,1.6556251 C 8.3463966,1.5582782 8.219627,1.5246627 8.1200488,1.5206764 Z"
     id="path3996"
     style="color:#000000;display:inline;overflow:visible;visibility:visible;opacity:0.1;fill:none;stroke:#000000;stroke-width:1;stroke-linecap:round;stroke-linejoin:round;stroke-miterlimit:4;stroke-dasharray:none;stroke-dashoffset:0;stroke-opacity:1;marker:none;enable-background:accumulate" />
  <path
     d="M 8.1470169,2.546287 2.537663,8.0252066 8.1200488,13.504126 8.7942501,12.829383 6.6098381,10.643213 C 5.904605,9.9433345 6.5066096,8.4987217 7.4997837,8.5 H 12.50098 v -1 H 7.4728157 C 6.479642,7.5012779 5.877638,6.1070795 6.5828701,5.4072008 l 2.21138,-2.2131598 z"
     id="path3996-3"
     style="color:#000000;display:inline;overflow:visible;visibility:visible;opacity:0.20200004;fill:none;stroke:#fafafa;stroke-width:1;stroke-linecap:butt;stroke-linejoin:miter;stroke-miterlimit:4;stroke-dasharray:none;stroke-dashoffset:0;stroke-opacity:1;marker:none;enable-background:accumulate" />
</svg>
