<svg xmlns="http://www.w3.org/2000/svg" xmlns:xlink="http://www.w3.org/1999/xlink" viewBox="0 0 16 16"><defs><radialGradient cx="6.988" cy="-4.804" r="20" fx="6.988" fy="-4.804" id="d" xlink:href="#a" gradientUnits="userSpaceOnUse" gradientTransform="matrix(-1.0423 0 0 -1.01172 18.284 -5.847)"/><linearGradient id="a"><stop offset="0" stop-color="#737373"/><stop offset=".262" stop-color="#636363"/><stop offset=".705" stop-color="#4b4b4b"/><stop offset="1" stop-color="#3f3f3f"/></linearGradient><radialGradient cx="23.385" cy="-.631" r="20" fx="23.385" fy="-.631" id="c" xlink:href="#b" gradientUnits="userSpaceOnUse" gradientTransform="matrix(-1.5 0 0 -1.52413 5.976 2.904)"/><linearGradient id="b"><stop offset="0" stop-color="#737373"/><stop offset=".262" stop-color="#636363"/><stop offset=".705" stop-color="#4b4b4b"/><stop offset="1" stop-color="#3f3f3f"/></linearGradient></defs><path d="M14 1.747a.763.763 0 0 0-.75-.75H2.75a.763.763 0 0 0-.75.75v1.5c0 .404.346.75.75.75.002.006 10.5 0 10.5 0 .404 0 .75-.346.75-.75z" opacity=".35" color="#000" fill="#fff" overflow="visible"/><path d="M13.517 2.01v-.53H3.484v.534l10.033-.005z" opacity=".03" fill="none" stroke="#000" stroke-width=".968" stroke-linecap="square" stroke-dashoffset=".7"/><path d="M-24.1 21.614a.763.763 0 0 0-.75-.75h-10.5a.763.763 0 0 0-.75.75v1.5c0 .404.345.75.75.75h10.5c.403 0 .75-.346.75-.75z" color="#000" fill="url(#c)" overflow="visible" transform="translate(38.102 -20.866)"/><path d="M13.5.748a.25.25 0 0 0-.25-.25H2.75a.25.25 0 0 0-.25.25v1.5c0 .138.112.25.25.25h10.5a.25.25 0 0 0 .25-.25z" opacity=".1" color="#000" fill="none" stroke="#000" stroke-linecap="round" stroke-linejoin="round" overflow="visible"/><path d="M12.47 1.53H3.532v.937h8.938z" opacity=".03" color="#000" fill="none" stroke="#000" overflow="visible"/><path d="M15 11.052a.77.77 0 0 0-.246-.573L8.67 4.25a.9.9 0 0 0-.437-.246.845.845 0 0 0-.246-.027.86.86 0 0 0-.082 0c-.048.01-.09.01-.136.027a.93.93 0 0 0-.47.248l-6.09 6.22c-.315.317-.287.832.055 1.174l1.23 1.23c.34.34.883.37 1.2.052L6 10.398v5.73c0 .484.627.873 1.11.873h1.75a.87.87 0 0 0 .873-.87v-5.76l2.565 2.57c.316.315.83.287 1.173-.055l1.26-1.227a.904.904 0 0 0 .27-.6z" opacity=".35" color="#000" fill="#fff" overflow="visible"/><path d="M15.092 10.134a.762.762 0 0 0-.243-.566l-6.12-6.31a.89.89 0 0 0-.44-.243.837.837 0 0 0-.243-.027.875.875 0 0 0-.08 0c-.048.008-.09.01-.136.027a.92.92 0 0 0-.46.243L1.3 9.568c-.31.312-.29.83.055 1.16L2.63 11.94c.346.33.875.367 1.188.055L6.08 9.788v5.362c0 .478.633.863 1.11.863h1.73c.477 0 1.16-.385 1.16-.863V9.788l2.24 2.207c.314.31.822.284 1.16-.054l1.34-1.21c.17-.17.262-.38.27-.59z" color="#000" fill="url(#d)" overflow="visible"/><path d="M14.557 10.05c.003-.074-.018-.154-.108-.243l-6.02-6.15a.507.507 0 0 0-.25-.134c-.065-.015-.09 0-.11 0a.43.43 0 0 1-.027 0c-.04.007-.02 0-.028 0H8a.43.43 0 0 1-.082.027.466.466 0 0 0-.243.108l-6.02 6.15c-.137.137-.14.37.055.565l1.215 1.214c.186.186.464.183.593.053l2.51-2.508c.238-.23.542-.034.55.297v5.5c0 .24.252.5.5.5h2c.248 0 .5-.26.5-.5V9.4c.008-.33.26-.528.5-.297l2.536 2.535c.138.138.373.14.567-.053l1.25-1.214a.485.485 0 0 0 .136-.32z" opacity=".1" color="#000" fill="none" stroke="#000" stroke-linecap="round" stroke-linejoin="round" overflow="visible"/><path d="M13.56 10.096l-5.478-5.61-5.48 5.583.676.67 2.186-2.18c.7-.71 2.145-.11 2.144.89v5h1V9.42C8.606 8.43 10 7.827 10.7 8.532l2.214 2.21z" opacity=".03" color="#000" fill="none" stroke="#000" overflow="visible"/></svg>