<svg xmlns="http://www.w3.org/2000/svg" xmlns:xlink="http://www.w3.org/1999/xlink" viewBox="0 0 16 16"><defs><linearGradient x1="24.046" y1="11.673" x2="24.046" y2="34.714" id="h" xlink:href="#a" gradientUnits="userSpaceOnUse" gradientTransform="matrix(.55048 0 0 .57816 -3.826 -5.276)"/><linearGradient id="a"><stop offset="0" stop-color="#fff"/><stop offset=".334" stop-color="#fff" stop-opacity=".235"/><stop offset=".679" stop-color="#fff" stop-opacity=".157"/><stop offset="1" stop-color="#fff" stop-opacity=".392"/></linearGradient><linearGradient x1="11.566" y1="22.292" x2="15.215" y2="33.955" id="g" xlink:href="#b" gradientUnits="userSpaceOnUse" gradientTransform="translate(1.713 22.728) scale(.48936)"/><linearGradient id="b"><stop offset="0" stop-color="#fff" stop-opacity=".275"/><stop offset="1" stop-color="#fff" stop-opacity="0"/></linearGradient><linearGradient id="c"><stop offset="0" stop-color="#fff3cb"/><stop offset=".262" stop-color="#fdde76"/><stop offset=".661" stop-color="#f9c440"/><stop offset="1" stop-color="#e48b20"/></linearGradient><linearGradient id="d"><stop offset="0" stop-color="#b67926"/><stop offset="1" stop-color="#eab41a"/></linearGradient><radialGradient cx="13.139" cy="25.625" r="13.931" fx="13.139" fy="25.625" id="e" xlink:href="#c" gradientUnits="userSpaceOnUse" gradientTransform="matrix(0 .92615 -1.05463 0 32.403 -9.335)"/><linearGradient x1="21.483" y1="36.255" x2="21.483" y2="9.58" id="f" xlink:href="#d" gradientUnits="userSpaceOnUse" gradientTransform="matrix(.55048 0 0 .57816 -3.826 -5.276)"/></defs><path d="M8 .496c.506 0 2.14 4.284 2.55 4.596.41.313 4.792.62 4.95 1.126.155.506-3.22 3.46-3.376 3.966-.156.506 1.286 4.98.876 5.292-.41.313-4.494-2.145-5-2.145-.506 0-4.59 2.46-5 2.15-.41-.31 1.032-4.78.876-5.29C3.72 9.68.346 6.73.5 6.22c.158-.506 4.54-.813 4.95-1.126C5.86 4.78 7.495.497 8 .497z" fill="url(#e)" stroke="url(#f)" stroke-width=".992" stroke-linejoin="round" overflow="visible"/><path d="M11.97 26.375c-.508.78-1.634 2.594-2.908 5.594a.142.142 0 0 1-.03.03.142.142 0 0 1-.032.03.142.142 0 0 1-.03 0 .142.142 0 0 1-.033.03.142.142 0 0 1-.03-.03.142.142 0 0 1-.032 0 .142.142 0 0 1-.03-.03.142.142 0 0 1-.033-.03.142.142 0 0 1 0-.04.142.142 0 0 1-.03 0c.004-.008-.037.005-.032 0 .005-.007-.005.036 0 .03.006-.006-.037.005-.03 0 .005-.005-.007.036 0 .03.005-.005-.04.005-.033 0 .007-.004-.038.004-.03 0 .006-.004-.008.035 0 .03.007-.002-.04.004-.032 0a.142.142 0 0 1 0 .03.142.142 0 0 1 .03 0 .142.142 0 0 1 .033.034.142.142 0 0 1 .03.03.142.142 0 0 1 0 .032.142.142 0 0 1 0 .03.142.142 0 0 1 0 .03.142.142 0 0 1 0 .033.142.142 0 0 1-.03.03.142.142 0 0 1-.032.03.142.142 0 0 1-.03 0c-2.06.337-4.606.68-6.345 1.095 1.06 1.24 2.27 2.41 3.44 3.6l15.03-2.72c.01-.005.03.005.03 0 .29-.285.56-.584.85-.875-1.986-.47-4.22-.755-6.28-1.09a.142.142 0 0 1-.033 0 .142.142 0 0 1-.03-.033.142.142 0 0 1-.032-.03.142.142 0 0 1 0-.03.142.142 0 0 1 0-.03.142.142 0 0 1 0-.03.142.142 0 0 1 0-.03.142.142 0 0 1 .03-.032.142.142 0 0 1 .034-.032.142.142 0 0 1 .03 0 .142.142 0 0 1 0-.03c.007.002-.04-.003-.03 0 .006.003-.04-.004-.033 0 .01.003-.002-.036 0-.032.01.007-.033 0-.03 0 .01.008-.002-.033 0-.03.01.007-.033-.003-.03 0 .008.008-.003-.035 0-.03.008.007-.034-.005-.03 0 .006.007-.003-.04 0-.03.006.006-.034-.008-.03 0 .004.006-.003-.04 0-.03l-.125.06-.124.063c-.985-2.285-2.39-4.696-2.937-5.623z" transform="matrix(.7144 0 0 .70012 -.572 -16.955)" opacity=".8" fill="url(#g)" overflow="visible"/><path d="M8 2.313C7.42 3.41 6.96 4.57 6.343 5.645c-.436.578-1.202.564-1.845.7-.8.15-1.604.263-2.404.405.832 1.006 1.904 1.803 2.655 2.873.29.56.08 1.194.04 1.788-.13.88-.78 2.02-.87 2.89 1.1-.55 2.622-1.53 3.79-1.94.624-.12 1.17.26 1.71.5.726.39 1.74.94 2.465 1.33-.124-1.3-.773-2.732-.8-4.04.092-.73.735-1.19 1.186-1.71.558-.545 1.118-1.09 1.627-1.68-1.21-.216-2.436-.374-3.636-.646-.75-.294-.936-1.143-1.29-1.78-.33-.67-.634-1.35-.98-2.01z" opacity=".8" fill="none" stroke="url(#h)" stroke-width=".992" stroke-linejoin="round" overflow="visible"/></svg>