<svg xmlns="http://www.w3.org/2000/svg" xmlns:xlink="http://www.w3.org/1999/xlink" viewBox="0 0 16 16"><defs><linearGradient id="d"><stop offset="0" stop-color="#fff"/><stop offset="1" stop-color="#fff" stop-opacity="0"/></linearGradient><linearGradient id="c"><stop offset="0" stop-color="#d3d7cf"/><stop offset="1" stop-color="#fafbfa"/></linearGradient><linearGradient id="b"><stop offset="0" stop-color="#babdb6" stop-opacity="0"/><stop offset=".2" stop-color="#babdb6"/><stop offset=".844" stop-color="#babdb6"/><stop offset="1" stop-color="#babdb6" stop-opacity="0"/></linearGradient><linearGradient id="a"><stop offset="0" stop-color="#555753" stop-opacity="0"/><stop offset=".2" stop-color="#555753"/><stop offset=".8" stop-color="#555753"/><stop offset="1" stop-color="#555753" stop-opacity="0"/></linearGradient><linearGradient x1="-16" y1="423.455" x2="1" y2="423.455" id="e" xlink:href="#a" gradientUnits="userSpaceOnUse" gradientTransform="matrix(1.29412 0 0 1 1.706 -13)"/><linearGradient x1="-16" y1="423.586" x2=".587" y2="423.586" id="f" xlink:href="#b" gradientUnits="userSpaceOnUse" gradientTransform="matrix(1.29412 0 0 1.00524 1.706 -15.21)"/><linearGradient x1="12.198" y1="401.096" x2="15.699" y2="404.598" id="g" xlink:href="#c" gradientUnits="userSpaceOnUse" gradientTransform="translate(-21.625 34.18) scale(.97222)"/><linearGradient x1="12.816" y1="400.389" x2="12.816" y2="406.511" id="h" xlink:href="#d" gradientUnits="userSpaceOnUse" gradientTransform="matrix(.875 0 0 .875 -20.312 73.31)"/></defs><path d="M-19 409H3v3h-22v-3z" fill="url(#e)" transform="translate(17 -397)"/><path d="M-19 410.005H3v1.005h-22v-1.005z" fill="url(#f)" transform="translate(17 -397)"/><g stroke-width="1.167" stroke-linecap="round"><path d="M-11.417 422.583h5.834v5.834h-5.834v-5.834z" fill="url(#g)" stroke="#888a85" stroke-linejoin="round" transform="translate(18.286 -351.716) scale(.85715)"/><path d="M-10.25 423.75h3.5v3.5h-3.5v-3.5z" fill="none" stroke="url(#h)" transform="translate(18.286 -351.716) scale(.85715)"/></g><path d="M.5 3.5v3h9v-3h-9z" fill="#ef2929" stroke="#a40000" stroke-linecap="round" stroke-linejoin="round" stroke-miterlimit="3"/><path d="M8.5 4.5h-7v1" fill="none" stroke-linecap="square" opacity=".5" stroke="#fff"/></svg>