<svg xmlns="http://www.w3.org/2000/svg" xmlns:xlink="http://www.w3.org/1999/xlink" viewBox="0 0 16 16"><defs><linearGradient id="b"><stop offset="0" stop-color="#ce5c00"/><stop offset="1" stop-color="#ce5c00" stop-opacity="0"/></linearGradient><linearGradient id="a"><stop offset="0" stop-color="#fcaf3e"/><stop offset="1" stop-color="#fcaf3e" stop-opacity="0"/></linearGradient><linearGradient x1="188.192" y1="489.547" x2="187.873" y2="489.547" id="c" xlink:href="#a" gradientUnits="userSpaceOnUse" gradientTransform="translate(-188.014 -473.006)"/><linearGradient x1="188.164" y1="489.359" x2="187.826" y2="489.359" id="d" xlink:href="#b" gradientUnits="userSpaceOnUse" gradientTransform="translate(-188.014 -473.006)"/><linearGradient x1="187.816" y1="489.547" x2="187.172" y2="489.547" id="e" xlink:href="#a" gradientUnits="userSpaceOnUse" gradientTransform="translate(-202.986 -507.994)"/><linearGradient x1="187.609" y1="489.359" x2="186.937" y2="489.359" id="f" xlink:href="#b" gradientUnits="userSpaceOnUse" gradientTransform="translate(-202.986 -507.994)"/><linearGradient x1="187.816" y1="489.547" x2="187.172" y2="489.547" id="g" xlink:href="#a" gradientUnits="userSpaceOnUse" gradientTransform="translate(-202.986 -516.994)"/><linearGradient x1="187.609" y1="489.359" x2="186.937" y2="489.359" id="h" xlink:href="#b" gradientUnits="userSpaceOnUse" gradientTransform="translate(-202.986 -516.994)"/><linearGradient x1="188.192" y1="489.547" x2="187.873" y2="489.547" id="i" xlink:href="#a" gradientUnits="userSpaceOnUse" gradientTransform="translate(-188.014 -464.006)"/><linearGradient x1="188.164" y1="489.359" x2="187.826" y2="489.359" id="j" xlink:href="#b" gradientUnits="userSpaceOnUse" gradientTransform="translate(-188.014 -464.006)"/></defs><path fill="#fcaf3e" stroke="#ce5c00" stroke-linejoin="round" stroke-miterlimit="0" d="M3.5 11.5h3v2h-3zm5 0h3v2h-3z"/><path transform="translate(.014 -13.994)" fill="url(#c)" stroke="url(#d)" stroke-linejoin="round" stroke-miterlimit="0" d="M-1.514 16.494h3v2h-3z"/><path d="M5.513 14.5v-2c0-5.944 5-3.06 5-9v-2" fill="none" stroke="#555753" stroke-width="3" stroke-linecap="square"/><path fill="#fcaf3e" stroke="#ce5c00" stroke-linejoin="round" stroke-miterlimit="0" d="M3.5 2.5h3v2h-3zm5 0h3v2h-3z"/><path transform="rotate(180 .007 -6.997)" fill="url(#e)" stroke="url(#f)" stroke-linejoin="round" stroke-miterlimit="0" d="M-16.486-18.494h3v2h-3z"/><path transform="rotate(180 .007 -6.997)" fill="url(#g)" stroke="url(#h)" stroke-linejoin="round" stroke-miterlimit="0" d="M-16.486-27.494h3v2h-3z"/><path d="M5.513 15.5v-3c0-5.944 5-3.06 5-9v-3" fill="none" stroke="#d3d7cf" stroke-linecap="square"/><g transform="rotate(-90 7.51 8.496)" stroke-linecap="round"><rect width="3.994" height="4.001" rx=".432" ry=".433" x="1.506" y="4.499" fill="#babdb6" stroke="#888a85" stroke-linejoin="round"/><path d="M2.506 5.5H4.5v2H2.506v-2z" fill="none" stroke="#fff"/></g><g transform="rotate(-90 5.51 1.496)" stroke-linecap="round"><rect width="3.994" height="4.001" rx=".432" ry=".433" x="1.506" y="4.499" fill="#babdb6" stroke="#888a85" stroke-linejoin="round"/><path d="M2.506 5.5H4.5v2H2.506v-2z" fill="none" stroke="#fff"/></g><path transform="translate(.014 -13.994)" fill="url(#i)" stroke="url(#j)" stroke-linejoin="round" stroke-miterlimit="0" d="M-1.514 25.494h3v2h-3z"/></svg>