<svg xmlns="http://www.w3.org/2000/svg" xmlns:xlink="http://www.w3.org/1999/xlink" viewBox="0 0 16 16"><defs><linearGradient id="a"><stop offset="0" stop-color="#555"/><stop offset="1" stop-color="#666"/></linearGradient><linearGradient xlink:href="#a" id="b" x1="8" y1="16" x2="8" gradientUnits="userSpaceOnUse"/></defs><g color="#bebebe"><path d="M8 1.094l-.406.625-4 6-.53.78H6.5V9s-.01.88-.53 1.75C5.43 11.646 4.6 12.5 2 12.5H.5v3H2c3.04 0 4.905-1.29 6-2.72 1.095 1.43 2.96 2.72 6 2.72h1.5v-3H14c-2.6 0-3.43-.854-3.97-1.75C9.51 9.88 9.5 9 9.5 9v-.5h3.438l-.532-.78-4-6L8 1.093z" fill="url(#b)" overflow="visible"/><path d="M8 1.094l-.406.625-4 6-.53.78H6.5V9s-.01.88-.53 1.75C5.43 11.646 4.6 12.5 2 12.5H.5v3H2c3.04 0 4.905-1.29 6-2.72 1.095 1.43 2.96 2.72 6 2.72h1.5v-3H14c-2.6 0-3.43-.854-3.97-1.75C9.51 9.88 9.5 9 9.5 9v-.5h3.438l-.532-.78-4-6L8 1.093z" opacity=".61" fill="none" stroke="#000" overflow="visible"/><path d="M8 2L4 8h.656L8 3l3.344 5H12L8 2zM7 9s.003 1.005-.594 2c-.29.485-.71 1.03-1.406 1.406-.695.377-1.645.594-3 .594H1v1h1c1.355 0 2.305-.217 3-.594.695-.377 1.115-.92 1.406-1.406.597-.995.594-2 .594-2V9zm2 0v1s-.003 1.005.594 2c.29.485.71 1.03 1.406 1.406.695.377 1.645.594 3 .594h1v-1h-1c-1.355 0-2.305-.217-3-.594-.695-.377-1.115-.92-1.406-1.406C8.997 10.005 9 9 9 9z" fill="#fff" overflow="visible" opacity=".2"/></g></svg>