<svg xmlns="http://www.w3.org/2000/svg" xmlns:xlink="http://www.w3.org/1999/xlink" viewBox="0 0 16 16"><defs><linearGradient id="a"><stop offset="0" stop-color="#fff"/><stop offset=".508" stop-color="#fff" stop-opacity=".235"/><stop offset=".835" stop-color="#fff" stop-opacity=".157"/><stop offset="1" stop-color="#fff" stop-opacity=".392"/></linearGradient><linearGradient x1="71.204" y1="6.238" x2="71.204" y2="44.341" id="b" xlink:href="#a" gradientUnits="userSpaceOnUse" gradientTransform="translate(78.586 -.91) scale(.35135)"/></defs><path d="M8 .5A7.505 7.505 0 0 0 .5 8c0 4.138 3.362 7.5 7.5 7.5s7.5-3.362 7.5-7.5S12.138.5 8 .5z" opacity=".99" color="#000" fill="#ccc" overflow="visible"/><path d="M8 .5A7.505 7.505 0 0 0 .5 8c0 4.138 3.362 7.5 7.5 7.5s7.5-3.362 7.5-7.5S12.138.5 8 .5z" opacity=".3" color="#000" fill="none" stroke="#434343" stroke-linecap="round" stroke-linejoin="round" overflow="visible"/><path d="M14.5 8a6.5 6.5 0 1 1-13 0 6.5 6.5 0 0 1 13 0z" opacity=".5" color="#000" fill="none" stroke="url(#b)" stroke-linecap="round" stroke-linejoin="round" overflow="visible"/><path d="M10.848 4.82l1.438 1.295L7.453 12.5l-3.74-3.22L4.95 7.64l2.19 1.897 3.71-4.717z" opacity=".2" color="#bebebe" overflow="visible"/><path d="M10.848 3.82l1.438 1.295L7.453 11.5l-3.74-3.22L4.95 6.64l2.19 1.897 3.71-4.717z" color="#bebebe" fill="#fff" overflow="visible"/></svg>