<?xml version="1.0" encoding="UTF-8" standalone="no"?>
<svg
   height="16"
   width="16"
   version="1.1"
   id="svg34234"
   xmlns:xlink="http://www.w3.org/1999/xlink"
   xmlns="http://www.w3.org/2000/svg"
   xmlns:svg="http://www.w3.org/2000/svg">
  <defs
     id="defs34238">
    <linearGradient
       id="linearGradient21">
      <stop
         style="stop-color:#ed5353;stop-opacity:1"
         offset="0"
         id="stop21" />
      <stop
         style="stop-color:#c6262e;stop-opacity:1"
         offset="1"
         id="stop22" />
    </linearGradient>
    <radialGradient
       xlink:href="#linearGradient2867-449-88-871-390-598-476-591-434-148-57-177-641-289-620-227-114-444-680-744-4-1-5"
       id="radialGradient4752"
       cx="382.08414"
       cy="70.611099"
       fx="382.08414"
       fy="70.611099"
       r="6.5000706"
       gradientTransform="matrix(3.0768896,2.1454909e-6,-1.6091176e-6,2.3076664,-1167.6306,-161.94768)"
       gradientUnits="userSpaceOnUse" />
    <linearGradient
       id="linearGradient2867-449-88-871-390-598-476-591-434-148-57-177-641-289-620-227-114-444-680-744-4-1-5">
      <stop
         id="stop5430-5-0-9"
         style="stop-color:#737373;stop-opacity:1"
         offset="0" />
      <stop
         id="stop5432-2-0-0"
         style="stop-color:#636363;stop-opacity:1"
         offset="0.26238" />
      <stop
         id="stop5434-9-6-8"
         style="stop-color:#4b4b4b;stop-opacity:1"
         offset="0.704952" />
      <stop
         id="stop5436-2-7-0"
         style="stop-color:#3f3f3f;stop-opacity:1"
         offset="1" />
    </linearGradient>
    <linearGradient
       xlink:href="#linearGradient21"
       id="linearGradient22"
       x1="0"
       y1="11"
       x2="0"
       y2="14"
       gradientUnits="userSpaceOnUse"
       gradientTransform="translate(-0.25133905,0.75000225)" />
  </defs>
  <path
     id="path11643-3-1"
     style="fill:url(#radialGradient4752);fill-opacity:1;stroke:none"
     d="m 3.9511719,1.5 -3.21289065,9 H 3.0800781 l 0.7050781,-2 h 2.2734376 l 0.7070312,2 H 9.1875 L 8.8671875,9.6503906 c 0.046586,0.067386 0.097383,0.1328081 0.1523437,0.1953125 v 0.00195 h 0.00195 C 9.3750469,10.24524 9.9086888,10.5 10.505859,10.5 H 14.5 v -4 c 0,-1.098648 -0.901352,-2 -2,-2 h -3 v 2 h 1.005859 C 9.9067301,6.5 9.3624853,6.7468844 9.0039062,7.1542969 8.6781525,7.5252499 8.4932585,8.0044127 8.5,8.5058594 c 6.211e-4,0.06702 0.00436,0.1346413 0.011719,0.2011718 L 5.7929688,1.5 Z M 4.9179688,5.328125 5.3496094,6.5 H 4.4921875 Z" />
  <path
     id="path7"
     style="baseline-shift:baseline;display:inline;overflow:visible;vector-effect:none;fill-opacity:0.6;stroke-linejoin:round;enable-background:accumulate;stop-color:#000000"
     d="M 3.9511719,1 C 3.7398798,1.0001159 3.5514637,1.1330238 3.4804688,1.3320312 L 0.26757812,10.332031 C 0.15154087,10.657515 0.39273134,10.999786 0.73828125,11 H 3.0800781 c 0.2117982,-4.09e-4 0.4003656,-0.134206 0.4707031,-0.333984 L 4.1386719,9 h 1.5664062 l 0.5898438,1.666016 C 6.3652595,10.865794 6.5538269,10.999591 6.765625,11 H 9.1875 C 9.3449683,11.000187 9.4800059,10.93001 9.5703125,10.822266 9.8575274,10.937304 10.171689,11 10.5,11 h 4 c 0.276142,0 0.5,-0.223858 0.5,-0.5 v -4 C 15,5.1192881 13.880712,4 12.5,4 h -3 C 9.2238576,4 9,4.2238576 9,4.5 v 2 C 8.7782742,6.6662944 8.5881339,6.8665879 8.4355469,7.0898438 L 6.2617188,1.3242188 C 6.1883777,1.1289619 6.001545,0.99973596 5.7929688,1 Z m 0.3515625,1 h 1.1445312 l 3.0175782,8 H 7.1191406 L 6.5292969,8.3339844 C 6.4589594,8.1342063 6.2703921,8.0004095 6.0585938,8 H 3.7851562 C 3.573358,8.0004095 3.3847906,8.1342063 3.3144531,8.3339844 L 2.7265625,10 H 1.4472656 Z m 0.6132812,2.828125 c -0.210072,6.415e-4 -0.3973451,0.132513 -0.46875,0.3300781 L 4.0214844,6.3300781 C 3.9036985,6.656183 4.145463,7.0002711 4.4921875,7 H 5.3496094 C 5.6966875,6.9994087 5.9376216,6.65407 5.8183594,6.328125 L 5.3867188,5.15625 C 5.3144191,4.9587823 5.1263022,4.8276468 4.9160156,4.828125 Z M 10,5 h 2.5 C 13.32843,5 14,5.67157 14,6.5 V 10 H 10.505859 C 10.051859,10 9.6515312,9.804625 9.3945312,9.515625 9.1395313,9.225625 9.003,8.86 9,8.5 8.99498,8.1266 9.1344494,7.764975 9.3808594,7.484375 9.6378594,7.192375 10.045859,7 10.505859,7 H 13 V 6.5 C 13,6.307 12.714,6 12.5,6 H 10 Z m 0.5,3 C 10.289,8 10.203859,8.058625 10.130859,8.140625 10.048359,8.242325 9.998,8.36908 10,8.5 10.0035,8.6326 10.05753,8.759235 10.144531,8.859375 10.221531,8.944375 10.301,9 10.5,9 H 13 V 8 Z" />
  <path
     id="path34228"
     style="display:inline;fill:#ffffff;fill-opacity:1;opacity:0.2"
     d="M 4.3046875 2 L 1.4472656 10 L 1.8046875 10 L 4.3046875 3 L 5.4472656 3 L 8.0878906 10 L 8.4648438 10 L 5.4472656 2 L 4.3046875 2 z M 10 5 L 10 6 L 12.5 6 C 12.509185 6 12.518198 6.0017887 12.527344 6.0019531 C 13.343086 6.0166176 14 6.6807553 14 7.5 L 14 6.5 C 14 5.67157 13.32843 5 12.5 5 L 10 5 z M 4.1425781 7 L 3.7792969 8 L 6.0644531 8 L 5.6972656 7 L 4.1425781 7 z M 10.505859 7 C 10.045859 7 9.6378594 7.192375 9.3808594 7.484375 C 9.1344494 7.764975 8.99498 8.1266 9 8.5 C 9.0013605 8.6632597 9.030952 8.8282484 9.0859375 8.9863281 C 9.1506665 8.8032452 9.2508525 8.6324206 9.3808594 8.484375 C 9.617306 8.2157274 9.9815071 8.0335721 10.396484 8.0058594 C 10.421514 8.0028397 10.446567 8.0006272 10.476562 8 C 10.485805 7.9998443 10.496574 8 10.505859 8 L 13 8 L 13 7.5 C 13 7.3130313 12.730864 7.0181896 12.519531 7 L 12.5 7 L 10.505859 7 z M 10.5 9 C 10.289 9 10.203859 9.058625 10.130859 9.140625 C 10.048359 9.242325 9.998 9.36908 10 9.5 C 10.00351 9.6326 10.057531 9.759235 10.144531 9.859375 C 10.207775 9.9291895 10.272972 9.978655 10.404297 9.9941406 C 10.432862 9.9975089 10.464448 10 10.5 10 C 10.501884 10.000007 10.503973 10 10.505859 10 L 13 10 L 13 9 L 10.5 9 z " />
  <path
     style="baseline-shift:baseline;display:inline;overflow:visible;opacity:1;vector-effect:none;fill:url(#linearGradient22);fill-opacity:1;stroke:#a10705;stroke-linecap:round;stroke-linejoin:miter;stroke-opacity:0.6;paint-order:fill markers stroke;enable-background:accumulate;stop-color:#000000;stop-opacity:1"
     d="m 14.248661,11.500002 a 0.75,0.75 0 0 0 -0.53125,0.21875 l -1.46875,1.46875 -1.46875,-1.46875 a 0.750075,0.750075 0 0 0 -1.0625,0 l -1.46875,1.46875 -1.46875,-1.46875 a 0.750075,0.750075 0 0 0 -1.0625,0 l -1.46875,1.46875 -1.46875,-1.46875 a 0.750075,0.750075 0 0 0 -1.0625,0 l -1.00000005,1 a 0.75,0.75 0 0 0 0,1.0625 0.75,0.75 0 0 0 1.06250005,0 l 0.46875,-0.46875 1.46875,1.46875 a 0.750075,0.750075 0 0 0 1.0625,0 l 1.46875,-1.46875 1.46875,1.46875 a 0.750075,0.750075 0 0 0 1.0625,0 l 1.46875,-1.46875 1.46875,1.46875 a 0.750075,0.750075 0 0 0 1.0625,0 l 2,-2 a 0.75,0.75 0 0 0 0,-1.0625 0.75,0.75 0 0 0 -0.53125,-0.21875 z"
     id="path19" />
  <path
     id="path23"
     style="baseline-shift:baseline;display:inline;overflow:visible;vector-effect:none;stroke-linecap:round;paint-order:fill markers stroke;enable-background:accumulate;stop-color:#000000;fill:#ffffff;fill-opacity:0.2"
     d="M 2.2246094 11.996094 C 2.1697423 12.001687 2.1168687 12.027516 2.0722656 12.072266 L 2.0703125 12.072266 L 1.0703125 13.072266 C 0.96803123 13.174192 0.96803123 13.325808 1.0703125 13.427734 L 1.0722656 13.427734 C 1.1741924 13.530016 1.3238546 13.530016 1.4257812 13.427734 L 2.2480469 12.605469 L 4.0703125 14.427734 L 4.0722656 14.427734 C 4.1742155 14.530018 4.3238315 14.530018 4.4257812 14.427734 L 6.2480469 12.605469 L 8.0703125 14.427734 L 8.0722656 14.427734 C 8.1742155 14.530018 8.3238314 14.530018 8.4257812 14.427734 L 10.248047 12.605469 L 12.070312 14.427734 L 12.072266 14.427734 C 12.174215 14.530018 12.323831 14.530018 12.425781 14.427734 L 14.425781 12.427734 L 14.427734 12.427734 C 14.530016 12.325808 14.530016 12.174192 14.427734 12.072266 C 14.380588 12.025276 14.31656 11.999837 14.25 12 L 14.248047 12 C 14.181488 11.99984 14.117463 12.025286 14.070312 12.072266 L 12.248047 13.894531 L 10.425781 12.072266 C 10.323831 11.969982 10.174215 11.969982 10.072266 12.072266 L 10.070312 12.072266 L 8.2480469 13.894531 L 6.4257812 12.072266 C 6.3238314 11.969982 6.1742155 11.969982 6.0722656 12.072266 L 6.0703125 12.072266 L 4.2480469 13.894531 L 2.4257812 12.072266 C 2.3684344 12.014731 2.2951528 11.988902 2.2246094 11.996094 z " />
</svg>
