<?xml version="1.0" encoding="UTF-8" standalone="no"?>
<svg
   xmlns:dc="http://purl.org/dc/elements/1.1/"
   xmlns:cc="http://creativecommons.org/ns#"
   xmlns:rdf="http://www.w3.org/1999/02/22-rdf-syntax-ns#"
   xmlns:svg="http://www.w3.org/2000/svg"
   xmlns="http://www.w3.org/2000/svg"
   xmlns:xlink="http://www.w3.org/1999/xlink"
   id="svg3286"
   height="16"
   width="16"
   version="1.0">
  <metadata
     id="metadata37">
    <rdf:RDF>
      <cc:Work
         rdf:about="">
        <dc:format>image/svg+xml</dc:format>
        <dc:type
           rdf:resource="http://purl.org/dc/dcmitype/StillImage" />
        <dc:title />
      </cc:Work>
    </rdf:RDF>
  </metadata>
  <defs
     id="defs3288">
    <linearGradient
       id="linearGradient2867-449-88-871-390-598-476-591-434-148-57-177-641-289-620-227-114-444-680-744-4-1-5-6-9">
      <stop
         offset="0"
         style="stop-color:#737373;stop-opacity:1"
         id="stop5430-5-0-9-4-2" />
      <stop
         offset="0.26238"
         style="stop-color:#636363;stop-opacity:1"
         id="stop5432-2-0-0-4-4" />
      <stop
         offset="0.704952"
         style="stop-color:#4b4b4b;stop-opacity:1"
         id="stop5434-9-6-8-5-0" />
      <stop
         offset="1"
         style="stop-color:#3f3f3f;stop-opacity:1"
         id="stop5436-2-7-0-0-5" />
    </linearGradient>
    <radialGradient
       gradientTransform="matrix(-4.6666667,7.7777782e-8,-7.7777782e-8,-4.6666666,45.333333,-10.333334)"
       gradientUnits="userSpaceOnUse"
       r="6"
       fy="-2"
       fx="8"
       cy="-2"
       cx="8"
       id="radialGradient4194"
       xlink:href="#linearGradient2867-449-88-871-390-598-476-591-434-148-57-177-641-289-620-227-114-444-680-744-4-1-5-6-9" />
    <clipPath
       id="clipPath4203"
       clipPathUnits="userSpaceOnUse">
      <path
         id="path4205"
         d="M 8.4355469,0.97851563 C 8.1887511,0.97851563 8,1.1860759 8,1.4394531 L 8,2.5957031 8,3 A 6,6 0 0 0 2,9 6,6 0 0 0 8,15 6,6 0 0 0 14,9 L 12,9 A 4,4 0 0 1 8,13 4,4 0 0 1 4,9 4,4 0 0 1 8,5 l 0,0.3261719 0,1.1914062 c 0,0.2533773 0.1887511,0.4609375 0.4355469,0.4609375 0.061705,0 0.1242724,-0.0022 0.1777343,-0.025391 L 12.632812,4.5 c 0.160388,-0.069655 0.281251,-0.2474671 0.28125,-0.4375 0,-0.190032 -0.120863,-0.3659009 -0.28125,-0.4355469 L 8.6132812,1.0039062 C 8.5598222,0.98069425 8.4972495,0.97851563 8.4355469,0.97851563 Z"
         style="opacity:0.1;fill:#000000;fill-opacity:1;fill-rule:evenodd;stroke:none;stroke-width:2;stroke-linecap:butt;stroke-linejoin:miter;stroke-miterlimit:4;stroke-dasharray:none;stroke-opacity:1" />
    </clipPath>
  </defs>
  <path
     id="path3369"
     d="M 8.4355469,0.97851563 C 8.1887511,0.97851563 8,1.1860759 8,1.4394531 L 8,2.5957031 8,3 A 6,6 0 0 0 2,9 6,6 0 0 0 8,15 6,6 0 0 0 14,9 L 12,9 A 4,4 0 0 1 8,13 4,4 0 0 1 4,9 4,4 0 0 1 8,5 l 0,0.3261719 0,1.1914062 c 0,0.2533773 0.1887511,0.4609375 0.4355469,0.4609375 0.061705,0 0.1242724,-0.0022 0.1777343,-0.025391 L 12.632812,4.5 c 0.160388,-0.069655 0.281251,-0.2474671 0.28125,-0.4375 0,-0.190032 -0.120863,-0.3659009 -0.28125,-0.4355469 L 8.6132812,1.0039062 C 8.5598222,0.98069425 8.4972495,0.97851563 8.4355469,0.97851563 Z"
     style="fill:url(#radialGradient4194);fill-opacity:1;fill-rule:evenodd;stroke:none;stroke-width:1px;stroke-linecap:butt;stroke-linejoin:miter;stroke-opacity:1" />
  <path
     clip-path="url(#clipPath4203)"
     style="fill:none;fill-opacity:1;fill-rule:evenodd;stroke:#000000;stroke-width:2;stroke-linecap:butt;stroke-linejoin:miter;stroke-opacity:1;stroke-miterlimit:4;stroke-dasharray:none;opacity:0.1"
     d="M 8.4355469,0.97851563 C 8.1887511,0.97851563 8,1.1860759 8,1.4394531 L 8,2.5957031 8,3 A 6,6 0 0 0 2,9 6,6 0 0 0 8,15 6,6 0 0 0 14,9 L 12,9 A 4,4 0 0 1 8,13 4,4 0 0 1 4,9 4,4 0 0 1 8,5 l 0,0.3261719 0,1.1914062 c 0,0.2533773 0.1887511,0.4609375 0.4355469,0.4609375 0.061705,0 0.1242724,-0.0022 0.1777343,-0.025391 L 12.632812,4.5 c 0.160388,-0.069655 0.281251,-0.2474671 0.28125,-0.4375 0,-0.190032 -0.120863,-0.3659009 -0.28125,-0.4355469 L 8.6132812,1.0039062 C 8.5598222,0.98069425 8.4972495,0.97851563 8.4355469,0.97851563 Z"
     id="path4199" />
</svg>
