<?xml version="1.0" encoding="UTF-8" standalone="no"?>
<svg
   xmlns:dc="http://purl.org/dc/elements/1.1/"
   xmlns:cc="http://creativecommons.org/ns#"
   xmlns:rdf="http://www.w3.org/1999/02/22-rdf-syntax-ns#"
   xmlns:svg="http://www.w3.org/2000/svg"
   xmlns="http://www.w3.org/2000/svg"
   id="svg6"
   version="1.1"
   width="16"
   height="16">
  <metadata
     id="metadata12">
    <rdf:RDF>
      <cc:Work
         rdf:about="">
        <dc:format>image/svg+xml</dc:format>
        <dc:type
           rdf:resource="http://purl.org/dc/dcmitype/StillImage" />
        <dc:title />
      </cc:Work>
    </rdf:RDF>
  </metadata>
  <defs
     id="defs10" />
  <path
     id="rect1010"
     d="M 3.484375 2 C 3.3171886 1.9982255 3.1519292 2.0616266 3.0292969 2.1914062 L 2.1738281 3.0976562 C 1.9285635 3.3572157 1.9457279 3.7799277 2.2128906 4.0449219 L 6.1992188 8 L 2.2128906 11.955078 C 1.9457276 12.220072 1.9285261 12.642784 2.1738281 12.902344 L 3.0292969 13.808594 C 3.2745639 14.068154 3.6879161 14.063811 3.9550781 13.798828 L 8 9.7851562 L 12.044922 13.798828 C 12.312084 14.063811 12.725436 14.068154 12.970703 13.808594 L 13.826172 12.902344 C 14.071474 12.642784 14.054272 12.220072 13.787109 11.955078 L 9.8007812 8 L 13.787109 4.0449219 C 14.054271 3.7799277 14.071434 3.3572158 13.826172 3.0976562 L 12.970703 2.1914062 C 12.725438 1.9318469 12.312085 1.9361683 12.044922 2.2011719 L 8 6.2148438 L 3.9550781 2.2011719 C 3.8214967 2.0686701 3.6515614 2.0017745 3.484375 2 z "
     style="opacity:1;fill:#666666;fill-opacity:1;fill-rule:nonzero;stroke:none;stroke-width:1;stroke-linecap:round;stroke-linejoin:miter;stroke-miterlimit:4;stroke-dasharray:none;stroke-opacity:1" />
</svg>
