<?xml version="1.0" encoding="UTF-8" standalone="no"?>
<!-- Created with Inkscape (http://www.inkscape.org/) -->
<svg
   xmlns:svg="http://www.w3.org/2000/svg"
   xmlns="http://www.w3.org/2000/svg"
   xmlns:xlink="http://www.w3.org/1999/xlink"
   version="1.0"
   width="16"
   height="16"
   id="svg3972">
  <defs
     id="defs3974">
    <linearGradient
       id="linearGradient3587-6-5">
      <stop
         id="stop3589-9-2"
         style="stop-color:#000000;stop-opacity:1"
         offset="0" />
      <stop
         id="stop3591-7-4"
         style="stop-color:#363636;stop-opacity:1"
         offset="1" />
    </linearGradient>
    <linearGradient
       x1="9"
       y1="3.8454638"
       x2="9"
       y2="17.854612"
       id="linearGradient3454"
       xlink:href="#linearGradient3587-6-5"
       gradientUnits="userSpaceOnUse"
       gradientTransform="translate(-5.6409134,-2.8473895)" />
  </defs>
  <g
     id="layer1">
    <path
       d="M 2.875,2 C 1.8408712,2 1,2.8408712 1,3.875 L 1,14.125 C 1,15.159129 1.8408712,16 2.875,16 L 13.125,16 C 14.159129,16 15,15.159129 15,14.125 L 15,3.875 C 15,2.8408712 14.159129,2 13.125,2 L 2.875,2 z M 5,5 L 8.625,5 C 9.7071754,5.000009 10.54783,5.239627 11.125,5.75 C 11.705952,6.2563708 11.999992,6.9971185 12,7.9375 C 11.999992,8.8819122 11.705952,9.6146226 11.125,10.125 C 10.54783,10.631366 9.707175,10.875003 8.625,10.875 L 7.1875,10.875 L 7.1875,14 L 5,14 L 5,5 z M 7.1875,6.6875 L 7.1875,9.1875 L 8.40625,9.1875 C 8.8315227,9.187505 9.1746201,9.0920176 9.40625,8.875 C 9.6378691,8.6539741 9.7499942,8.3393811 9.75,7.9375 C 9.7499944,7.5356309 9.637869,7.2170195 9.40625,7 C 9.1746203,6.7829945 8.8315232,6.6875073 8.40625,6.6875 L 7.1875,6.6875 z"
       id="path3459"
       style="opacity:0.6;fill:#ffffff;fill-opacity:1;fill-rule:evenodd;stroke:none;stroke-width:1;stroke-linecap:butt;stroke-linejoin:miter;marker:none;marker-start:none;marker-mid:none;marker-end:none;stroke-miterlimit:4;stroke-dasharray:none;stroke-dashoffset:0;stroke-opacity:1;visibility:visible;display:inline;overflow:visible;enable-background:accumulate" />
    <path
       d="M 2.875,1 C 1.8408712,1 1,1.8408712 1,2.875 L 1,13.125 C 1,14.159129 1.8408712,15 2.875,15 L 13.125,15 C 14.159129,15 15,14.159129 15,13.125 L 15,2.875 C 15,1.8408712 14.159129,1 13.125,1 L 2.875,1 z M 5,4 L 8.625,4 C 9.7071754,4.000009 10.54783,4.239627 11.125,4.75 C 11.705952,5.2563708 11.999992,5.9971185 12,6.9375 C 11.999992,7.8819122 11.705952,8.6146226 11.125,9.125 C 10.54783,9.6313665 9.707175,9.8750031 8.625,9.875 L 7.1875,9.875 L 7.1875,13 L 5,13 L 5,4 z M 7.1875,5.6875 L 7.1875,8.1875 L 8.40625,8.1875 C 8.8315227,8.187505 9.1746201,8.0920176 9.40625,7.875 C 9.6378691,7.6539741 9.7499942,7.3393811 9.75,6.9375 C 9.7499944,6.5356309 9.637869,6.2170195 9.40625,6 C 9.1746203,5.7829945 8.8315232,5.6875073 8.40625,5.6875 L 7.1875,5.6875 z"
       id="path3443"
       style="opacity:0.7;fill:url(#linearGradient3454);fill-opacity:1;fill-rule:evenodd;stroke:none;stroke-width:1;stroke-linecap:butt;stroke-linejoin:miter;marker:none;marker-start:none;marker-mid:none;marker-end:none;stroke-miterlimit:4;stroke-dasharray:none;stroke-dashoffset:0;stroke-opacity:1;visibility:visible;display:inline;overflow:visible;enable-background:accumulate" />
  </g>
</svg>
