<?xml version="1.0" encoding="UTF-8" standalone="no"?>
<!-- Created with Inkscape (http://www.inkscape.org/) -->
<svg
   xmlns:svg="http://www.w3.org/2000/svg"
   xmlns="http://www.w3.org/2000/svg"
   xmlns:xlink="http://www.w3.org/1999/xlink"
   xmlns:inkscape="http://www.inkscape.org/namespaces/inkscape"
   version="1.0"
   width="48"
   height="48"
   id="svg8652">
  <defs
     id="defs8654">
    <linearGradient
       id="linearGradient5048">
      <stop
         id="stop5050"
         style="stop-color:#000000;stop-opacity:0"
         offset="0" />
      <stop
         id="stop5056"
         style="stop-color:#000000;stop-opacity:1"
         offset="0.5" />
      <stop
         id="stop5052"
         style="stop-color:#000000;stop-opacity:0"
         offset="1" />
    </linearGradient>
    <linearGradient
       x1="302.85715"
       y1="366.64789"
       x2="302.85715"
       y2="609.50507"
       id="linearGradient3503"
       xlink:href="#linearGradient5048"
       gradientUnits="userSpaceOnUse"
       gradientTransform="matrix(6.7324884e-2,0,0,1.4700216e-2,-0.3411391,37.040146)" />
    <radialGradient
       cx="605.71429"
       cy="486.64789"
       r="117.14286"
       fx="605.71429"
       fy="486.64789"
       id="radialGradient3500"
       xlink:href="#linearGradient5060"
       gradientUnits="userSpaceOnUse"
       gradientTransform="matrix(-2.3039943e-2,0,0,1.4700216e-2,21.62311,37.040176)" />
    <linearGradient
       id="linearGradient5060">
      <stop
         id="stop5062"
         style="stop-color:#000000;stop-opacity:1"
         offset="0" />
      <stop
         id="stop5064"
         style="stop-color:#000000;stop-opacity:0"
         offset="1" />
    </linearGradient>
    <radialGradient
       cx="605.71429"
       cy="486.64789"
       r="117.14286"
       fx="605.71429"
       fy="486.64789"
       id="radialGradient3497"
       xlink:href="#linearGradient5060"
       gradientUnits="userSpaceOnUse"
       gradientTransform="matrix(2.3039948e-2,0,0,1.4700216e-2,26.360882,37.040176)" />
    <linearGradient
       id="linearGradient3104">
      <stop
         id="stop3106"
         style="stop-color:#aaaaaa;stop-opacity:1"
         offset="0" />
      <stop
         id="stop3108"
         style="stop-color:#c8c8c8;stop-opacity:1"
         offset="1" />
    </linearGradient>
    <linearGradient
       x1="-51.786404"
       y1="50.786446"
       x2="-51.786404"
       y2="2.9062471"
       id="linearGradient3494"
       xlink:href="#linearGradient3104"
       gradientUnits="userSpaceOnUse"
       gradientTransform="matrix(0.8074968,0,0,0.8948322,59.410232,-2.9805533)" />
    <linearGradient
       id="linearGradient3600">
      <stop
         id="stop3602"
         style="stop-color:#f4f4f4;stop-opacity:1"
         offset="0" />
      <stop
         id="stop3604"
         style="stop-color:#dbdbdb;stop-opacity:1"
         offset="1" />
    </linearGradient>
    <linearGradient
       x1="25.132275"
       y1="0.98520643"
       x2="25.132275"
       y2="47.013336"
       id="linearGradient3492"
       xlink:href="#linearGradient3600"
       gradientUnits="userSpaceOnUse"
       gradientTransform="matrix(1,0,0,0.9561695,-1.0064697e-7,-1.914922)" />
    <radialGradient
       cx="102"
       cy="112.3047"
       r="139.55859"
       id="XMLID_8_"
       gradientUnits="userSpaceOnUse">
      <stop
         id="stop41"
         style="stop-color:#b7b8b9;stop-opacity:1"
         offset="0" />
      <stop
         id="stop47"
         style="stop-color:#ececec;stop-opacity:1"
         offset="0.18851049" />
      <stop
         id="stop49"
         style="stop-color:#fafafa;stop-opacity:0"
         offset="0.25718147" />
      <stop
         id="stop51"
         style="stop-color:#ffffff;stop-opacity:0"
         offset="0.30111277" />
      <stop
         id="stop53"
         style="stop-color:#fafafa;stop-opacity:0"
         offset="0.53130001" />
      <stop
         id="stop55"
         style="stop-color:#ebecec;stop-opacity:0"
         offset="0.84490001" />
      <stop
         id="stop57"
         style="stop-color:#e1e2e3;stop-opacity:0"
         offset="1" />
    </radialGradient>
    <radialGradient
       cx="102"
       cy="112.3047"
       r="139.55859"
       id="radialGradient3489"
       xlink:href="#XMLID_8_"
       gradientUnits="userSpaceOnUse"
       gradientTransform="matrix(0.3617022,0,0,-0.3907784,0.8510637,47.517004)" />
    <linearGradient
       id="linearGradient6691-328-147-3-935-220-699-559-94-725">
      <stop
         id="stop7375"
         style="stop-color:#b76617;stop-opacity:1"
         offset="0" />
      <stop
         id="stop7377"
         style="stop-color:#df9658;stop-opacity:1"
         offset="1" />
    </linearGradient>
    <linearGradient
       x1="9.4919996"
       y1="46.314064"
       x2="9.4919996"
       y2="1.7164899"
       id="linearGradient3486-578-755-260-597-140-301-433-874-417"
       xlink:href="#linearGradient6691-328-147-3-935-220-699-559-94-725"
       gradientUnits="userSpaceOnUse"
       gradientTransform="matrix(0.9110051,0,0,0.9769973,0.6027366,-0.9479353)" />
    <linearGradient
       id="linearGradient3522-294-24-440-877-850-30-448-866-669">
      <stop
         id="stop7369"
         style="stop-color:#ebaf7f;stop-opacity:1"
         offset="0" />
      <stop
         id="stop7371"
         style="stop-color:#e0771b;stop-opacity:1"
         offset="1" />
    </linearGradient>
    <linearGradient
       x1="-22.539846"
       y1="11.109024"
       x2="-22.539846"
       y2="46.263954"
       id="linearGradient3484-899-15-802-631-914-67-961-706-65"
       xlink:href="#linearGradient3522-294-24-440-877-850-30-448-866-669"
       gradientUnits="userSpaceOnUse"
       gradientTransform="matrix(0.7993221,0,0,1.0036506,40.855793,-1.5607194)" />
    <linearGradient
       id="linearGradient3211">
      <stop
         id="stop3213"
         style="stop-color:#ffffff;stop-opacity:1"
         offset="0" />
      <stop
         id="stop3215"
         style="stop-color:#ffffff;stop-opacity:0"
         offset="1" />
    </linearGradient>
    <linearGradient
       x1="24"
       y1="1.9999999"
       x2="24"
       y2="46.01725"
       id="linearGradient3481"
       xlink:href="#linearGradient3211"
       gradientUnits="userSpaceOnUse"
       gradientTransform="matrix(1,0,0,0.9777778,0,-0.9666693)" />
    <filter
       height="1.3286875"
       y="-0.16434373"
       width="1.2969251"
       x="-0.14846256"
       id="filter3248">
      <feGaussianBlur
         id="feGaussianBlur3250"
         stdDeviation="0.77391625"
         inkscape:collect="always" />
    </filter>
    <linearGradient
       id="linearGradient8589">
      <stop
         id="stop8591"
         style="stop-color:#fefefe;stop-opacity:1"
         offset="0" />
      <stop
         id="stop8593"
         style="stop-color:#cbcbcb;stop-opacity:1"
         offset="1" />
    </linearGradient>
    <linearGradient
       x1="32.892288"
       y1="8.0590115"
       x2="36.358372"
       y2="5.4565363"
       id="linearGradient3477"
       xlink:href="#linearGradient8589"
       gradientUnits="userSpaceOnUse"
       gradientTransform="matrix(0.9976985,0,0,1.0406866,0.1638029,-1.1057939)" />
    <linearGradient
       id="linearGradient8646">
      <stop
         id="stop8648"
         style="stop-color:#e0781d;stop-opacity:1"
         offset="0" />
      <stop
         id="stop8650"
         style="stop-color:#f0c39e;stop-opacity:1"
         offset="1" />
    </linearGradient>
    <linearGradient
       x1="-11.889842"
       y1="33.371605"
       x2="-31.17728"
       y2="11.098012"
       id="linearGradient8644"
       xlink:href="#linearGradient8646"
       gradientUnits="userSpaceOnUse"
       gradientTransform="matrix(0.9969535,0,0,0.9948508,0.588441,3.1123216)" />
  </defs>
  <g
     id="layer1">
    <rect
       width="32.508301"
       height="3.5700529"
       x="7.7378473"
       y="42.429947"
       id="rect2879"
       style="opacity:0.3;fill:url(#linearGradient3503);fill-opacity:1;fill-rule:nonzero;stroke:none;stroke-width:1;stroke-linecap:round;stroke-linejoin:miter;marker:none;marker-start:none;marker-mid:none;marker-end:none;stroke-miterlimit:4;stroke-dasharray:none;stroke-dashoffset:0;stroke-opacity:1;visibility:visible;display:inline;overflow:visible" />
    <path
       d="M 7.7378475,42.430102 C 7.7378475,42.430102 7.7378475,45.999958 7.7378475,45.999958 C 6.5513473,46.006679 4.869468,45.200135 4.869468,44.2148 C 4.869468,43.229467 6.1935126,42.430103 7.7378475,42.430102 z"
       id="path2881"
       style="opacity:0.3;fill:url(#radialGradient3500);fill-opacity:1;fill-rule:nonzero;stroke:none;stroke-width:1;stroke-linecap:round;stroke-linejoin:miter;marker:none;marker-start:none;marker-mid:none;marker-end:none;stroke-miterlimit:4;stroke-dasharray:none;stroke-dashoffset:0;stroke-opacity:1;visibility:visible;display:inline;overflow:visible" />
    <path
       d="M 40.246148,42.430102 C 40.246148,42.430102 40.246148,45.999958 40.246148,45.999958 C 41.432648,46.006679 43.114528,45.200135 43.114528,44.2148 C 43.114528,43.229467 41.790483,42.430103 40.246148,42.430102 z"
       id="path2883"
       style="opacity:0.3;fill:url(#radialGradient3497);fill-opacity:1;fill-rule:nonzero;stroke:none;stroke-width:1;stroke-linecap:round;stroke-linejoin:miter;marker:none;marker-start:none;marker-mid:none;marker-end:none;stroke-miterlimit:4;stroke-dasharray:none;stroke-dashoffset:0;stroke-opacity:1;visibility:visible;display:inline;overflow:visible" />
    <path
       d="M 6.4999609,0.49719878 C 14.520256,0.49719878 22.540551,0.49719878 30.560847,0.49719878 C 31.96778,0.97185188 39.526301,6.3794034 41.500042,10.123605 C 41.500042,21.583338 41.500042,33.04307 41.500042,44.502803 C 29.833348,44.502803 18.166655,44.502803 6.4999609,44.502803 C 6.4999609,29.834268 6.4999609,15.165733 6.4999609,0.49719878 z"
       id="path4160"
       style="fill:url(#linearGradient3492);fill-opacity:1;stroke:url(#linearGradient3494);stroke-width:0.99992186;stroke-linecap:butt;stroke-linejoin:round;stroke-miterlimit:4;stroke-dasharray:none;stroke-dashoffset:0;stroke-opacity:1;display:inline" />
    <path
       d="M 7.3617017,44 C 7.1624047,44 6.9999997,43.824541 6.9999997,43.60922 L 6.9999997,1.4051701 C 6.9999997,1.1894613 7.1624047,1.0143926 7.3617017,1.0143926 C 14.844793,1.1224073 23.137385,0.85281757 30.611384,1.0412872 L 40.894021,9.9073127 L 41,43.60922 C 41,43.824541 40.837957,44 40.638297,44 L 7.3617017,44 z"
       id="path4191"
       style="fill:url(#radialGradient3489);fill-opacity:1" />
    <path
       d="M 11.99515,44.495152 C 10.240789,44.495152 8.4864268,44.495152 6.7320566,44.495152 C 6.3056432,43.974283 6.6298943,42.94015 6.528578,42.202761 C 6.528578,28.387711 6.528578,14.572663 6.528578,0.75761797 L 6.5880465,0.57872092 L 6.7320566,0.50484925 L 6.7320566,0.50484925 C 8.557992,0.50484925 10.09765,0.50484925 11.923577,0.50484925"
       id="path4530"
       style="fill:url(#linearGradient3484-899-15-802-631-914-67-961-706-65);fill-opacity:1;fill-rule:nonzero;stroke:url(#linearGradient3486-578-755-260-597-140-301-433-874-417);stroke-width:1.00969923;stroke-linecap:butt;stroke-linejoin:round;marker:none;marker-start:none;marker-mid:none;marker-end:none;stroke-miterlimit:4;stroke-dasharray:none;stroke-dashoffset:0;stroke-opacity:1;visibility:visible;display:block;overflow:visible" />
    <path
       d="M 40.500039,10.258811 C 40.500039,21.207848 40.500039,32.573221 40.500039,43.522258 C 29.500013,43.522258 18.499987,43.522258 7.4999609,43.522258 C 7.4999609,29.507417 7.4999609,15.492577 7.4999609,1.4777367 C 15.061954,1.4777367 22.804295,1.4777367 30.366289,1.4777367"
       id="path2435"
       style="opacity:0.4;fill:none;fill-opacity:1;stroke:url(#linearGradient3481);stroke-width:0.9999218;stroke-linecap:butt;stroke-linejoin:round;stroke-miterlimit:4;stroke-dasharray:none;stroke-dashoffset:0;stroke-opacity:1;display:inline" />
    <path
       d="M 28.617256,0.92125832 C 32.899778,0.92125832 30.770506,9.4044296 30.770506,9.4044296 C 30.770506,9.4044296 41.128148,7.6020829 41.128148,12.223174 C 41.128148,9.6134507 29.825844,1.4945784 28.617256,0.92125832 z"
       id="path12038"
       style="opacity:0.4;fill:#000000;fill-opacity:1;fill-rule:evenodd;stroke:none;stroke-width:1px;stroke-linecap:butt;stroke-linejoin:miter;stroke-opacity:1;display:inline;filter:url(#filter3248)" />
    <path
       d="M 28.617256,0.92125832 C 31.803749,0.92125832 30.953016,8.5831368 30.953016,8.5831368 C 30.953016,8.5831368 41.128148,7.6020829 41.128148,12.223174 C 41.128148,11.097235 41.214061,10.290929 40.994371,9.9395812 C 39.416058,7.4154025 32.598855,1.7511811 30.137071,1.008793 C 29.952849,0.95323837 29.544367,0.92125832 28.617256,0.92125832 z"
       id="path4474"
       style="fill:url(#linearGradient3477);fill-opacity:1;fill-rule:evenodd;stroke:none;stroke-width:1px;stroke-linecap:butt;stroke-linejoin:miter;stroke-opacity:1;display:inline" />
    <g
       transform="translate(46.097524,-1.8725552)"
       id="g8636">
      <path
         d="M -21.693477,22.663198 C -22.541636,20.175707 -25.791923,18.632867 -28.18838,19.883586 C -29.301318,20.48673 -29.700469,21.898497 -29.268011,23.047845 C -28.320386,26.797523 -27.396778,30.553742 -26.43412,34.299322 C -25.774287,36.636595 -22.822538,37.927087 -20.676546,36.743197 C -18.944727,35.882419 -18.17499,33.65691 -18.915077,31.890871 C -19.841208,28.81498 -20.767338,25.739089 -21.693477,22.663198 z M -9.213613,24.217154 C -9.333218,22.818864 -9.972885,21.52502 -10.557348,20.270237 C -11.691063,18.30218 -13.715348,16.76903 -16.027961,16.602858 C -20.545526,15.934402 -25.05977,15.239644 -29.579409,14.587684 C -30.739414,14.325699 -31.622416,15.707292 -30.729863,16.578691 C -29.78166,17.848266 -28.115851,17.786038 -26.698334,17.922936 C -23.351441,18.225926 -20.001248,18.499669 -16.656429,18.821054 C -15.127104,19.124716 -14.078498,20.465378 -13.678361,21.901079 C -13.268573,22.816751 -12.995238,24.106089 -13.97307,24.764322 C -14.843927,25.195234 -15.858258,25.035377 -16.801676,25.156152 C -17.481707,25.155248 -18.388916,25.2472 -18.514222,26.090521 C -18.729524,27.334536 -17.377786,28.508492 -16.170097,28.120031 C -14.472404,27.847724 -12.760904,27.645812 -11.072433,27.326437 C -9.726797,26.977802 -9.078828,25.507125 -9.213613,24.217154 L -9.213613,24.217154 z"
         id="text2318"
         style="font-size:22px;font-style:normal;font-weight:normal;fill:#b76617;fill-opacity:1;stroke:#b76617;stroke-width:1px;stroke-linecap:butt;stroke-linejoin:miter;stroke-opacity:1;display:inline;font-family:Officer X" />
      <path
         d="M -21.092303,22.261208 C -21.940461,19.773717 -25.190749,18.230878 -27.587206,19.481597 C -28.700145,20.084741 -29.099294,21.496508 -28.666836,22.645857 C -27.719211,26.395534 -26.795605,30.151753 -25.832946,33.897334 C -25.173113,36.234606 -22.221364,37.525099 -20.07537,36.341208 C -18.343552,35.480431 -17.573816,33.254921 -18.313903,31.488883 C -19.240033,28.412992 -20.166164,25.3371 -21.092303,22.261208 z M -8.61244,23.815166 C -8.732044,22.416875 -9.371711,21.12303 -9.956174,19.868247 C -11.089889,17.900191 -13.114173,16.36704 -15.426786,16.200868 C -19.944351,15.532412 -24.458597,14.837654 -28.978234,14.185694 C -30.13824,13.923709 -31.021241,15.305303 -30.128689,16.176701 C -29.180487,17.446276 -27.514677,17.384048 -26.097158,17.520946 C -22.750267,17.823937 -19.400074,18.09768 -16.055256,18.419064 C -14.52593,18.722726 -13.477324,20.063388 -13.077185,21.499089 C -12.667398,22.414762 -12.394064,23.7041 -13.371896,24.362333 C -14.242754,24.793245 -15.257084,24.633387 -16.200502,24.754163 C -16.880533,24.753259 -17.787741,24.845211 -17.913048,25.688532 C -18.12835,26.932547 -16.776611,28.106503 -15.568922,27.718042 C -13.87123,27.445736 -12.159729,27.243823 -10.471261,26.924448 C -9.125624,26.575813 -8.477653,25.105136 -8.61244,23.815166 L -8.61244,23.815166 z"
         id="path2692"
         style="font-size:22px;font-style:normal;font-weight:normal;fill:url(#linearGradient8644);fill-opacity:1;stroke:none;stroke-width:1px;stroke-linecap:butt;stroke-linejoin:miter;stroke-opacity:1;display:inline;font-family:Officer X" />
    </g>
  </g>
</svg>
