<?xml version="1.0" encoding="UTF-8" standalone="no"?>
<!-- Created with Inkscape (http://www.inkscape.org/) -->
<svg
   xmlns:dc="http://purl.org/dc/elements/1.1/"
   xmlns:cc="http://creativecommons.org/ns#"
   xmlns:rdf="http://www.w3.org/1999/02/22-rdf-syntax-ns#"
   xmlns:svg="http://www.w3.org/2000/svg"
   xmlns="http://www.w3.org/2000/svg"
   xmlns:xlink="http://www.w3.org/1999/xlink"
   xmlns:sodipodi="http://sodipodi.sourceforge.net/DTD/sodipodi-0.dtd"
   xmlns:inkscape="http://www.inkscape.org/namespaces/inkscape"
   width="16"
   height="16"
   id="svg2"
   sodipodi:version="0.32"
   inkscape:version="0.46"
   version="1.0"
   sodipodi:docbase="/root/Desktop/Elementary_SRC/scalable/places"
   sodipodi:docname="audio-x-generic.svg"
   inkscape:output_extension="org.inkscape.output.svg.inkscape"
   inkscape:export-filename="/home/daniel/Desktop/folder.png"
   inkscape:export-xdpi="90"
   inkscape:export-ydpi="90">
  <defs
     id="defs4">
    <linearGradient
       id="linearGradient3686"
       inkscape:collect="always">
      <stop
         style="stop-color:white;stop-opacity:1;"
         id="stop3688"
         offset="0" />
      <stop
         style="stop-color:white;stop-opacity:0;"
         id="stop3690"
         offset="1" />
    </linearGradient>
    <linearGradient
       id="linearGradient3668">
      <stop
         style="stop-color:#bbd8ea;stop-opacity:1;"
         id="stop3670"
         offset="0" />
      <stop
         style="stop-color:#6496b5;stop-opacity:1;"
         id="stop3672"
         offset="1" />
    </linearGradient>
    <linearGradient
       id="linearGradient7067">
      <stop
         offset="0"
         id="stop7069"
         style="stop-color:#bbd8ea;stop-opacity:1;" />
      <stop
         offset="1"
         id="stop7071"
         style="stop-color:#6496b5;stop-opacity:1;" />
    </linearGradient>
    <linearGradient
       id="linearGradient2372">
      <stop
         offset="0"
         id="stop2374"
         style="stop-color:#bbd8ea;stop-opacity:1;" />
      <stop
         offset="1"
         id="stop2376"
         style="stop-color:#9fbed1;stop-opacity:1;" />
    </linearGradient>
    <linearGradient
       y2="36.091892"
       x2="-32.440605"
       y1="9.2811022"
       x1="-32.440605"
       gradientUnits="userSpaceOnUse"
       id="linearGradient2914"
       xlink:href="#linearGradient3217"
       inkscape:collect="always" />
    <linearGradient
       inkscape:collect="always"
       id="linearGradient3217">
      <stop
         style="stop-color:#ffffff;stop-opacity:1;"
         offset="0"
         id="stop3219" />
      <stop
         style="stop-color:#ffffff;stop-opacity:0"
         offset="1"
         id="stop3221" />
    </linearGradient>
    <radialGradient
       inkscape:collect="always"
       xlink:href="#linearGradient7067"
       id="radialGradient2980"
       gradientUnits="userSpaceOnUse"
       gradientTransform="matrix(1,0,0,0.569469,0,17.67708)"
       cx="17.058823"
       cy="41.058823"
       fx="17.843975"
       fy="44.178165"
       r="5.7384715" />
    <radialGradient
       inkscape:collect="always"
       xlink:href="#linearGradient3668"
       id="radialGradient2984"
       gradientUnits="userSpaceOnUse"
       gradientTransform="matrix(1,0,0,0.569469,0,17.67708)"
       cx="17.058823"
       cy="41.058823"
       fx="17.843975"
       fy="44.178165"
       r="5.7384715" />
    <linearGradient
       inkscape:collect="always"
       xlink:href="#linearGradient2372"
       id="linearGradient2618"
       gradientUnits="userSpaceOnUse"
       gradientTransform="matrix(0.1295937,0,0,0.1244331,9.3508619,-14.284355)"
       x1="28.739122"
       y1="144.11652"
       x2="26.256771"
       y2="125.39074" />
    <linearGradient
       inkscape:collect="always"
       xlink:href="#linearGradient2372"
       id="linearGradient2621"
       gradientUnits="userSpaceOnUse"
       gradientTransform="matrix(0.1295937,0,0,0.1285923,2.4863761,-13.952084)"
       x1="28.739122"
       y1="144.11652"
       x2="26.256771"
       y2="125.39074" />
    <linearGradient
       inkscape:collect="always"
       xlink:href="#linearGradient3686"
       id="linearGradient3400"
       gradientUnits="userSpaceOnUse"
       gradientTransform="scale(1.3693064,0.7302968)"
       x1="11.128633"
       y1="51.807358"
       x2="12.458002"
       y2="61.909195" />
    <linearGradient
       inkscape:collect="always"
       xlink:href="#linearGradient3686"
       id="linearGradient3402"
       gradientUnits="userSpaceOnUse"
       x1="16.574366"
       y1="37.638168"
       x2="18.514551"
       y2="46.079796" />
    <radialGradient
       inkscape:collect="always"
       xlink:href="#linearGradient7067"
       id="radialGradient3415"
       gradientUnits="userSpaceOnUse"
       gradientTransform="matrix(1,0,0,0.569469,0,17.67708)"
       cx="17.058823"
       cy="41.058823"
       fx="17.843975"
       fy="44.178165"
       r="5.7384715" />
    <linearGradient
       inkscape:collect="always"
       xlink:href="#linearGradient3686"
       id="linearGradient3417"
       gradientUnits="userSpaceOnUse"
       x1="16.574366"
       y1="37.638168"
       x2="18.514551"
       y2="46.079796" />
    <radialGradient
       inkscape:collect="always"
       xlink:href="#linearGradient3668"
       id="radialGradient3419"
       gradientUnits="userSpaceOnUse"
       gradientTransform="matrix(1,0,0,0.569469,0,17.67708)"
       cx="17.058823"
       cy="41.058823"
       fx="17.843975"
       fy="44.178165"
       r="5.7384715" />
    <linearGradient
       inkscape:collect="always"
       xlink:href="#linearGradient3686"
       id="linearGradient3421"
       gradientUnits="userSpaceOnUse"
       gradientTransform="scale(1.3693064,0.7302968)"
       x1="11.128633"
       y1="51.807358"
       x2="12.458002"
       y2="61.909195" />
    <linearGradient
       inkscape:collect="always"
       xlink:href="#linearGradient2372"
       id="linearGradient3423"
       gradientUnits="userSpaceOnUse"
       gradientTransform="matrix(0.1295937,0,0,0.1285923,2.4863761,-13.952084)"
       x1="28.739122"
       y1="144.11652"
       x2="26.256771"
       y2="125.39074" />
    <linearGradient
       inkscape:collect="always"
       xlink:href="#linearGradient2372"
       id="linearGradient3425"
       gradientUnits="userSpaceOnUse"
       gradientTransform="matrix(0.1295937,0,0,0.1244331,9.3508619,-14.284355)"
       x1="28.739122"
       y1="144.11652"
       x2="26.256771"
       y2="125.39074" />
  </defs>
  <sodipodi:namedview
     id="base"
     pagecolor="#ffffff"
     bordercolor="#666666"
     borderopacity="1.0"
     inkscape:pageopacity="0.0"
     inkscape:pageshadow="2"
     inkscape:zoom="17.334017"
     inkscape:cx="9.1363331"
     inkscape:cy="8.3529243"
     inkscape:document-units="px"
     inkscape:current-layer="layer3"
     showguides="true"
     inkscape:guide-bbox="true"
     inkscape:window-width="1280"
     inkscape:window-height="792"
     inkscape:window-x="0"
     inkscape:window-y="139"
     width="64px"
     height="64px"
     borderlayer="true"
     showgrid="true">
    <inkscape:grid
       type="xygrid"
       id="grid3225"
       visible="true"
       enabled="true" />
  </sodipodi:namedview>
  <metadata
     id="metadata7">
    <rdf:RDF>
      <cc:Work
         rdf:about="">
        <dc:format>image/svg+xml</dc:format>
        <dc:type
           rdf:resource="http://purl.org/dc/dcmitype/StillImage" />
      </cc:Work>
    </rdf:RDF>
  </metadata>
  <g
     inkscape:groupmode="layer"
     id="layer5"
     inkscape:label="backdrop"
     transform="translate(-164.70881,-66.700244)" />
  <g
     inkscape:label="Layer 1"
     inkscape:groupmode="layer"
     id="layer1"
     style="display:inline"
     transform="translate(5.3093944e-2,-0.2907905)" />
  <g
     inkscape:groupmode="layer"
     id="layer4"
     inkscape:label="bottom"
     transform="translate(5.3093944e-2,-0.2907905)" />
  <g
     inkscape:groupmode="layer"
     id="layer2"
     inkscape:label="back"
     style="display:inline"
     transform="translate(5.3093944e-2,-0.2907905)" />
  <g
     inkscape:groupmode="layer"
     id="layer3"
     inkscape:label="front"
     style="display:inline"
     transform="translate(5.3093944e-2,-0.2907905)">
    <g
       transform="translate(-207.98625,21.461638)"
       inkscape:label="Shadow"
       id="g2878" />
    <g
       transform="translate(-207.98625,21.461638)"
       id="g2880"
       inkscape:label="Base"
       style="display:inline" />
    <g
       transform="translate(-261.04431,-3.7531808)"
       inkscape:label="shadiw"
       id="g2882" />
    <g
       transform="translate(-212.40469,20.041482)"
       inkscape:label="Shadow"
       id="g2516" />
    <g
       transform="translate(-212.40469,20.041482)"
       id="g2518"
       inkscape:label="Base"
       style="display:inline" />
    <g
       transform="translate(-265.46275,-5.1733368)"
       inkscape:label="shadiw"
       id="g2520" />
    <g
       transform="translate(-228.39104,20.322006)"
       inkscape:label="Shadow"
       id="g2887" />
    <g
       transform="translate(-228.39104,20.322006)"
       id="g2889"
       inkscape:label="Base"
       style="display:inline" />
    <g
       transform="translate(-281.4491,-4.8928128)"
       inkscape:label="shadiw"
       id="g2892" />
    <g
       transform="translate(-211.04253,23.840964)"
       inkscape:label="Shadow"
       id="g2894" />
    <g
       transform="translate(-211.04253,23.840964)"
       id="g2896"
       inkscape:label="Base"
       style="display:inline" />
    <g
       transform="translate(-264.10059,-1.3738548)"
       inkscape:label="shadiw"
       id="g2898" />
    <g
       transform="translate(-335.98569,30.465804)"
       inkscape:label="Shadow"
       id="g2900" />
    <g
       transform="translate(-335.98569,30.465804)"
       id="g2902"
       inkscape:label="Base"
       style="display:inline" />
    <g
       transform="translate(-389.04375,5.2509861)"
       inkscape:label="shadiw"
       id="g2904" />
    <g
       transform="translate(-345.76289,-5.4149868)"
       inkscape:label="Shadow"
       id="g2906" />
    <g
       transform="translate(-345.76289,-5.4149868)"
       id="g2908"
       inkscape:label="Base"
       style="display:inline" />
    <g
       transform="translate(-474.29308,23.112012)"
       id="g2910"
       inkscape:label="Layer 1" />
    <g
       transform="translate(-474.29308,23.112012)"
       inkscape:label="shadiw"
       id="g2824" />
    <g
       transform="translate(-474.29308,23.112012)"
       inkscape:label="white"
       id="g2913" />
    <g
       inkscape:label="Layer 1"
       id="g2915"
       style="display:inline"
       transform="translate(-553.29069,14.757167)" />
    <g
       id="g2917"
       inkscape:label="bottom"
       transform="translate(-553.29069,14.757167)" />
    <g
       id="g2919"
       inkscape:label="back"
       style="display:inline"
       transform="translate(-553.29069,14.757167)" />
    <g
       transform="translate(-396.76639,23.664773)"
       inkscape:label="shadiw"
       id="g2921" />
    <g
       transform="translate(-228.43768,28.925042)"
       inkscape:label="shadiw"
       id="g2923" />
    <g
       id="g2925"
       inkscape:label="Shadow"
       transform="translate(-582.62728,-11.287956)" />
    <g
       style="display:inline"
       inkscape:label="Base"
       id="g2927"
       transform="translate(-582.62728,-11.287956)" />
    <g
       id="g2929"
       inkscape:label="new"
       transform="translate(-582.62728,-11.287956)" />
    <g
       inkscape:label="Layer 1"
       id="g2931"
       style="display:inline"
       transform="translate(-551.19017,2.9531412)" />
    <g
       id="g2933"
       inkscape:label="bottom"
       transform="translate(-551.19017,2.9531412)" />
    <g
       id="g2935"
       inkscape:label="back"
       style="display:inline"
       transform="translate(-551.19017,2.9531412)" />
    <g
       transform="translate(-394.66587,11.860747)"
       inkscape:label="shadiw"
       id="g2937" />
    <g
       transform="translate(-226.33716,17.121016)"
       inkscape:label="shadiw"
       id="g2939" />
    <g
       id="g2941"
       inkscape:label="Shadow"
       transform="translate(-580.52676,-23.091982)" />
    <g
       style="display:inline"
       inkscape:label="Base"
       id="g2943"
       transform="translate(-580.52676,-23.091982)" />
    <g
       id="g2945"
       inkscape:label="new"
       transform="translate(-580.52676,-23.091982)" />
    <g
       transform="translate(-623.91508,30.147419)"
       inkscape:label="Shadow"
       id="g2947" />
    <g
       transform="translate(-623.91508,30.147419)"
       id="g2949"
       inkscape:label="Base"
       style="display:inline" />
    <g
       transform="translate(-676.97314,4.9326001)"
       inkscape:label="shadiw"
       id="g2951" />
    <g
       transform="translate(-337.84888,21.635978)"
       inkscape:label="Shadow"
       id="g2953" />
    <g
       transform="translate(-337.84888,21.635978)"
       id="g2955"
       inkscape:label="Base"
       style="display:inline" />
    <g
       transform="translate(-466.37907,50.162981)"
       id="g2957"
       inkscape:label="Layer 1" />
    <g
       transform="translate(-466.37907,50.162981)"
       inkscape:label="shadiw"
       id="g2959" />
    <g
       transform="translate(-466.37907,50.162981)"
       inkscape:label="white"
       id="g2961" />
    <g
       inkscape:label="Layer 1"
       id="g2800"
       style="display:inline"
       transform="translate(-545.37668,41.808132)" />
    <g
       id="g2964"
       inkscape:label="bottom"
       transform="translate(-545.37668,41.808132)" />
    <g
       id="g2966"
       inkscape:label="back"
       style="display:inline"
       transform="translate(-545.37668,41.808132)" />
    <g
       transform="translate(-388.85238,50.715741)"
       inkscape:label="shadiw"
       id="g2968" />
    <g
       transform="translate(-220.52367,55.976011)"
       inkscape:label="shadiw"
       id="g2970" />
    <g
       id="g2972"
       inkscape:label="Shadow"
       transform="translate(-574.71327,15.763009)" />
    <g
       style="display:inline"
       inkscape:label="Base"
       id="g2974"
       transform="translate(-574.71327,15.763009)" />
    <g
       id="g2976"
       inkscape:label="new"
       transform="translate(-574.71327,15.763009)" />
    <g
       inkscape:label="Layer 1"
       id="g2978"
       style="display:inline"
       transform="translate(-543.27616,30.004106)" />
    <g
       id="g2980"
       inkscape:label="bottom"
       transform="translate(-543.27616,30.004106)" />
    <g
       id="g2982"
       inkscape:label="back"
       style="display:inline"
       transform="translate(-543.27616,30.004106)" />
    <g
       transform="translate(-386.75186,38.911712)"
       inkscape:label="shadiw"
       id="g2984" />
    <g
       transform="translate(-218.42315,44.171981)"
       inkscape:label="shadiw"
       id="g2986" />
    <g
       id="g2988"
       inkscape:label="Shadow"
       transform="translate(-572.61275,3.9589832)" />
    <g
       style="display:inline"
       inkscape:label="Base"
       id="g2990"
       transform="translate(-572.61275,3.9589832)" />
    <g
       id="g2992"
       inkscape:label="new"
       transform="translate(-572.61275,3.9589832)" />
    <path
       transform="matrix(1.5449799,0,0,1.5449799,-58.307445,-2.7303008)"
       d="M -19.415211,22.686497 A 13.025394,13.025394 0 1 1 -45.466,22.686497 A 13.025394,13.025394 0 1 1 -19.415211,22.686497 z"
       sodipodi:ry="13.025394"
       sodipodi:rx="13.025394"
       sodipodi:cy="22.686497"
       sodipodi:cx="-32.440605"
       id="path2629"
       style="opacity:0.5;fill:none;fill-opacity:1;stroke:url(#linearGradient2914);stroke-width:0.97088641;stroke-linecap:round;stroke-linejoin:round;stroke-miterlimit:0;stroke-dasharray:none;stroke-opacity:1"
       sodipodi:type="arc" />
    <g
       transform="matrix(0.9248169,0,0,0.9248169,-199.19303,14.917624)"
       inkscape:label="Shadow"
       id="layer6" />
    <g
       transform="matrix(0.9248169,0,0,0.9248169,-199.19303,14.917624)"
       id="g2161"
       inkscape:label="Base"
       style="display:inline" />
    <g
       transform="matrix(0.9248169,0,0,0.9248169,-248.26202,-8.4014669)"
       inkscape:label="shadiw"
       id="g2743" />
    <g
       transform="matrix(0.9248169,0,0,0.9248169,-213.97747,15.177057)"
       inkscape:label="Shadow"
       id="g2482" />
    <g
       transform="matrix(0.9248169,0,0,0.9248169,-213.97747,15.177057)"
       id="g2484"
       inkscape:label="Base"
       style="display:inline" />
    <g
       transform="matrix(0.9248169,0,0,0.9248169,-263.04646,-8.1420339)"
       inkscape:label="shadiw"
       id="g2486" />
    <g
       transform="matrix(0.9248169,0,0,0.9248169,-197.93328,18.431449)"
       inkscape:label="Shadow"
       id="g2309" />
    <g
       transform="matrix(0.9248169,0,0,0.9248169,-197.93328,18.431449)"
       id="g2311"
       inkscape:label="Base"
       style="display:inline" />
    <g
       transform="matrix(0.9248169,0,0,0.9248169,-247.00227,-4.8876416)"
       inkscape:label="shadiw"
       id="g2313" />
    <g
       transform="matrix(0.9248169,0,0,0.9248169,-313.48282,24.558213)"
       inkscape:label="Shadow"
       id="g2511" />
    <g
       transform="matrix(0.9248169,0,0,0.9248169,-313.48282,24.558213)"
       id="g2513"
       inkscape:label="Base"
       style="display:inline" />
    <g
       transform="matrix(0.9248169,0,0,0.9248169,-362.55181,1.2391225)"
       inkscape:label="shadiw"
       id="g2515" />
    <g
       transform="matrix(0.9248169,0,0,0.9248169,-256.09415,-27.980463)"
       inkscape:label="Shadow"
       id="g2802" />
    <g
       transform="matrix(0.9248169,0,0,0.9248169,-256.09415,-27.980463)"
       id="g2170"
       inkscape:label="Base"
       style="display:inline" />
    <g
       transform="matrix(0.9248169,0,0,0.9248169,-374.96104,-1.5982122)"
       id="g5398"
       inkscape:label="Layer 1" />
    <g
       transform="matrix(0.9248169,0,0,0.9248169,-374.96104,-1.5982122)"
       inkscape:label="shadiw"
       id="g2806" />
    <g
       transform="matrix(0.9248169,0,0,0.9248169,-374.96104,-1.5982122)"
       inkscape:label="white"
       id="g2758" />
    <g
       inkscape:label="Layer 1"
       id="g3678"
       style="display:inline"
       transform="matrix(0.9248169,0,0,0.9248169,-448.01937,-9.3249139)" />
    <g
       id="g3680"
       inkscape:label="bottom"
       transform="matrix(0.9248169,0,0,0.9248169,-448.01937,-9.3249139)" />
    <g
       id="g4299"
       inkscape:label="back"
       style="display:inline"
       transform="matrix(0.9248169,0,0,0.9248169,-448.01937,-9.3249139)" />
    <g
       transform="matrix(0.9248169,0,0,0.9248169,-303.26305,-1.0870095)"
       inkscape:label="shadiw"
       id="g3698" />
    <g
       transform="matrix(0.9248169,0,0,0.9248169,-147.58982,3.7777762)"
       inkscape:label="shadiw"
       id="g3760" />
    <g
       id="g5431"
       inkscape:label="Shadow"
       transform="matrix(0.9248169,0,0,0.9248169,-475.15034,-33.411884)" />
    <g
       style="display:inline"
       inkscape:label="Base"
       id="g4258"
       transform="matrix(0.9248169,0,0,0.9248169,-475.15034,-33.411884)" />
    <g
       id="g5440"
       inkscape:label="new"
       transform="matrix(0.9248169,0,0,0.9248169,-475.15034,-33.411884)" />
    <g
       inkscape:label="Layer 1"
       id="g3928"
       style="display:inline"
       transform="matrix(0.9248169,0,0,0.9248169,-446.07677,-20.241477)" />
    <g
       id="g3930"
       inkscape:label="bottom"
       transform="matrix(0.9248169,0,0,0.9248169,-446.07677,-20.241477)" />
    <g
       id="g3932"
       inkscape:label="back"
       style="display:inline"
       transform="matrix(0.9248169,0,0,0.9248169,-446.07677,-20.241477)" />
    <g
       transform="matrix(0.9248169,0,0,0.9248169,-301.32045,-12.003572)"
       inkscape:label="shadiw"
       id="g3934" />
    <g
       transform="matrix(0.9248169,0,0,0.9248169,-145.64722,-7.1387866)"
       inkscape:label="shadiw"
       id="g3936" />
    <g
       id="g3961"
       inkscape:label="Shadow"
       transform="matrix(0.9248169,0,0,0.9248169,-473.20775,-44.328447)" />
    <g
       style="display:inline"
       inkscape:label="Base"
       id="g3963"
       transform="matrix(0.9248169,0,0,0.9248169,-473.20775,-44.328447)" />
    <g
       id="layer7"
       inkscape:label="new"
       transform="matrix(0.9248169,0,0,0.9248169,-473.20775,-44.328447)" />
    <g
       transform="matrix(0.9248169,0,0,0.9248169,-513.334,4.9082511)"
       inkscape:label="Shadow"
       id="g2561" />
    <g
       transform="matrix(0.9248169,0,0,0.9248169,-513.334,4.9082511)"
       id="g2860"
       inkscape:label="Base"
       style="display:inline" />
    <g
       transform="matrix(0.9248169,0,0,0.9248169,-562.40299,-18.41084)"
       inkscape:label="shadiw"
       id="g2564" />
    <g
       transform="matrix(0.9248169,0,0,0.9248169,-248.77514,-2.9632734)"
       inkscape:label="Shadow"
       id="g2790" />
    <g
       transform="matrix(0.9248169,0,0,0.9248169,-248.77514,-2.9632734)"
       id="g2792"
       inkscape:label="Base"
       style="display:inline" />
    <g
       transform="matrix(0.9248169,0,0,0.9248169,-367.64203,23.418981)"
       id="g2794"
       inkscape:label="Layer 1" />
    <g
       transform="matrix(0.9248169,0,0,0.9248169,-367.64203,23.418981)"
       inkscape:label="shadiw"
       id="g2796" />
    <g
       transform="matrix(0.9248169,0,0,0.9248169,-367.64203,23.418981)"
       inkscape:label="white"
       id="g2798" />
    <g
       inkscape:label="Layer 1"
       id="g2886"
       style="display:inline"
       transform="matrix(0.9248169,0,0,0.9248169,-440.70036,15.692275)" />
    <g
       id="g2888"
       inkscape:label="bottom"
       transform="matrix(0.9248169,0,0,0.9248169,-440.70036,15.692275)" />
    <g
       id="g2804"
       inkscape:label="back"
       style="display:inline"
       transform="matrix(0.9248169,0,0,0.9248169,-440.70036,15.692275)" />
    <g
       transform="matrix(0.9248169,0,0,0.9248169,-295.94404,23.930183)"
       inkscape:label="shadiw"
       id="g2891" />
    <g
       transform="matrix(0.9248169,0,0,0.9248169,-140.27081,28.794969)"
       inkscape:label="shadiw"
       id="g2808" />
    <g
       id="g2810"
       inkscape:label="Shadow"
       transform="matrix(0.9248169,0,0,0.9248169,-467.83133,-8.3946939)" />
    <g
       style="display:inline"
       inkscape:label="Base"
       id="g2812"
       transform="matrix(0.9248169,0,0,0.9248169,-467.83133,-8.3946939)" />
    <g
       id="g2814"
       inkscape:label="new"
       transform="matrix(0.9248169,0,0,0.9248169,-467.83133,-8.3946939)" />
    <g
       inkscape:label="Layer 1"
       id="g2816"
       style="display:inline"
       transform="matrix(0.9248169,0,0,0.9248169,-438.75776,4.7757128)" />
    <g
       id="g2818"
       inkscape:label="bottom"
       transform="matrix(0.9248169,0,0,0.9248169,-438.75776,4.7757128)" />
    <g
       id="g2820"
       inkscape:label="back"
       style="display:inline"
       transform="matrix(0.9248169,0,0,0.9248169,-438.75776,4.7757128)" />
    <g
       transform="matrix(0.9248169,0,0,0.9248169,-294.00144,13.013617)"
       inkscape:label="shadiw"
       id="g2823" />
    <g
       transform="matrix(0.9248169,0,0,0.9248169,-138.32821,17.878403)"
       inkscape:label="shadiw"
       id="g2825" />
    <g
       id="g2827"
       inkscape:label="Shadow"
       transform="matrix(0.9248169,0,0,0.9248169,-465.88874,-19.311257)" />
    <g
       style="display:inline"
       inkscape:label="Base"
       id="g2829"
       transform="matrix(0.9248169,0,0,0.9248169,-465.88874,-19.311257)" />
    <g
       id="g2831"
       inkscape:label="new"
       transform="matrix(0.9248169,0,0,0.9248169,-465.88874,-19.311257)" />
    <g
       id="g3404"
       transform="translate(0.2690433,0)">
      <path
         style="fill:none;fill-rule:evenodd;stroke:none;stroke-width:0.75;stroke-linecap:square;stroke-linejoin:round;stroke-miterlimit:4;stroke-dasharray:none;stroke-opacity:0.58128076;display:inline"
         d="M 13.343787,11.520764 L 12.968127,8.5694752"
         id="path2702" />
      <path
         sodipodi:nodetypes="ccccccccccccccc"
         id="path2706"
         d="M 13.038873,0.98633545 C 10.534944,1.3719068 8.3371692,1.7541453 5.8335563,2.1417997 C 5.3882963,2.3262001 5.5018908,2.8998965 5.4895787,3.2949357 C 5.4895787,6.0043499 5.4895787,8.713763 5.4895787,11.423176 C 3.5969311,10.869331 1.6510486,12.40658 1.8936105,14.155137 C 2.0564318,15.252739 3.2914251,15.795239 4.2633435,15.528122 C 5.4825884,15.281057 6.631123,14.103773 6.5051046,12.782993 C 6.5051046,10.21201 6.5051046,7.6410295 6.5051046,5.0700476 C 8.4401346,4.8021832 10.122643,4.3943653 12.057673,4.1265008 C 12.057673,6.1565463 12.057673,8.3965205 12.057673,10.426564 C 10.563517,10.148202 8.7820129,11.278638 8.9261211,12.993585 C 9.0137252,14.043873 10.125884,14.670991 11.075844,14.501296 C 12.397001,14.356546 13.610524,13.114886 13.471835,11.702458 C 13.466545,8.2964613 13.481501,4.8877392 13.466139,1.4830999 C 13.427096,1.2463983 13.30105,0.99865344 13.038873,0.98633545 z"
         style="fill:#6a9ab8;fill-opacity:1;stroke:#233d55;stroke-width:1.39100003;stroke-linecap:round;stroke-linejoin:round;stroke-miterlimit:4;stroke-dasharray:none;stroke-opacity:1;display:inline" />
      <path
         sodipodi:nodetypes="ccccssssssssssssssssssssssscccccssssccccccc"
         d="M 13.035698,0.93818759 L 6.0050978,2.0878729 C 5.7633924,2.0878729 5.5748239,2.3286127 5.5748239,2.6283106 L 5.5748239,11.980196 C 5.4335122,11.933622 4.9081159,12.006343 4.7470944,11.991171 C 4.7359492,11.990124 4.7243518,11.992062 4.7131249,11.991171 C 4.6476809,11.985569 4.5773431,11.979329 4.5093107,11.979424 C 4.3960264,11.97958 4.2778249,11.985532 4.1582961,12.002918 C 3.0388838,12.165765 2.131475,13.013611 2.131475,13.894445 C 2.131475,14.334861 2.3532186,14.704642 2.7202733,14.940069 C 2.9036621,15.058209 3.1231975,15.140979 3.3656855,15.186791 C 3.6082747,15.232284 3.878444,15.23925 4.1582961,15.198539 C 4.2945185,15.178724 4.4258828,15.143462 4.5546034,15.104552 C 4.604719,15.08932 4.6530922,15.063688 4.7018027,15.045807 C 4.7798553,15.017235 4.8656353,14.998475 4.9395845,14.963568 C 4.9443433,14.96132 4.9461713,14.954093 4.9509077,14.951817 C 5.1843411,14.839897 5.3946439,14.703887 5.5736746,14.540618 C 5.5817899,14.533217 5.5883398,14.524606 5.5963209,14.517121 C 5.6799316,14.439166 5.7547229,14.356708 5.8227815,14.270399 C 5.8297359,14.261574 5.8386476,14.255804 5.8454288,14.246902 C 5.8706694,14.213841 5.8792817,14.175215 5.9020437,14.141166 C 5.9451107,14.076704 5.9929918,14.020638 6.0265957,13.953187 C 6.0303578,13.945646 6.0342813,13.937265 6.0379189,13.929691 C 6.0781544,13.845923 6.1041933,13.758224 6.1285034,13.671221 C 6.1319494,13.658968 6.1367101,13.648277 6.1398275,13.635975 C 6.1407483,13.632293 6.1389329,13.627911 6.1398275,13.624227 C 6.1525518,13.572221 6.1672015,13.524177 6.1737951,13.471495 C 6.1787541,13.432396 6.183683,13.393349 6.1851183,13.354009 L 6.2983481,13.354009 C 6.3736411,13.354009 6.4342252,13.291149 6.4342252,13.213026 L 6.4342252,5.0068953 L 12.035769,4.0028952 L 12.035769,11.02856 C 12.035769,11.350455 11.584198,10.99557 11.201217,11.051284 C 10.081808,11.214129 9.1743976,12.050227 9.1743976,12.93106 C 9.1743976,13.811896 10.081808,14.398 11.201217,14.235153 C 12.295771,14.075925 13.188922,13.261867 13.22804,12.402373 L 13.352595,12.402373 C 13.427886,12.402373 13.488469,12.339512 13.488469,12.261389 L 13.488469,3.9551294 L 13.488469,3.4499402 L 13.488469,1.5779725 C 13.488469,1.2782754 13.277402,0.93818759 13.035698,0.93818759 z"
         id="path2708"
         style="fill:#6a9ab8;fill-opacity:1;stroke:none;stroke-width:0.75;stroke-linecap:round;stroke-linejoin:round;stroke-miterlimit:4;stroke-dasharray:none;stroke-opacity:1;display:inline" />
      <path
         id="path2712"
         sodipodi:cx="17.058823"
         sodipodi:cy="41.058823"
         transform="matrix(0.4306012,-7.2441287e-2,0,0.7347074,-3.1868471,-15.498826)"
         d="M 22.35294,41.058823 A 5.2941175,2.8235295 0 1 1 11.764705,41.058823 A 5.2941175,2.8235295 0 1 1 22.35294,41.058823 z"
         sodipodi:type="arc"
         style="fill:url(#radialGradient3415);fill-opacity:1;stroke:none;stroke-width:1.04773283;stroke-linecap:round;stroke-linejoin:round;stroke-miterlimit:4;stroke-dasharray:none;stroke-opacity:1;display:inline"
         sodipodi:ry="2.8235295"
         sodipodi:rx="5.2941175" />
      <path
         id="path2714"
         sodipodi:cx="17.058823"
         sodipodi:cy="41.058823"
         transform="matrix(0.3131642,-5.5080071e-2,0,0.3546932,-1.3907581,-0.7312243)"
         d="M 22.35294,41.058823 A 5.2941175,2.8235295 0 1 1 11.764705,41.058823 A 5.2941175,2.8235295 0 1 1 22.35294,41.058823 z"
         sodipodi:type="arc"
         style="fill:url(#linearGradient3417);fill-opacity:1;stroke:none;stroke-width:1.768206;stroke-linecap:round;stroke-linejoin:round;stroke-miterlimit:4;stroke-dasharray:none;stroke-opacity:0.29556651;display:inline"
         sodipodi:ry="2.8235295"
         sodipodi:rx="5.2941175" />
      <path
         id="path2716"
         sodipodi:cx="17.058823"
         sodipodi:cy="41.058823"
         transform="matrix(0.4306012,-7.2441287e-2,0,0.7347074,3.8593604,-16.5538)"
         d="M 22.35294,41.058823 A 5.2941175,2.8235295 0 1 1 11.764705,41.058823 A 5.2941175,2.8235295 0 1 1 22.35294,41.058823 z"
         sodipodi:type="arc"
         style="fill:url(#radialGradient3419);fill-opacity:1;stroke:none;stroke-width:1.04773283;stroke-linecap:round;stroke-linejoin:round;stroke-miterlimit:4;stroke-dasharray:none;stroke-opacity:1;display:inline"
         sodipodi:ry="2.8235295"
         sodipodi:rx="5.2941175" />
      <path
         id="path2718"
         sodipodi:cx="17.058823"
         sodipodi:cy="41.058823"
         transform="matrix(0.3131642,-5.5080071e-2,0,0.3546932,5.6554504,-1.7861957)"
         d="M 22.35294,41.058823 A 5.2941175,2.8235295 0 1 1 11.764705,41.058823 A 5.2941175,2.8235295 0 1 1 22.35294,41.058823 z"
         sodipodi:type="arc"
         style="fill:url(#linearGradient3421);fill-opacity:1;stroke:none;stroke-width:1.768206;stroke-linecap:round;stroke-linejoin:round;stroke-miterlimit:4;stroke-dasharray:none;stroke-opacity:0.29556651;display:inline"
         sodipodi:ry="2.8235295"
         sodipodi:rx="5.2941175" />
      <path
         sodipodi:nodetypes="ccccsssc"
         style="fill:url(#linearGradient3423);fill-opacity:1;fill-rule:evenodd;stroke:none;stroke-width:0.75;stroke-linecap:butt;stroke-linejoin:round;stroke-miterlimit:4;stroke-dasharray:none;stroke-opacity:1;display:inline"
         d="M 5.4980655,11.54876 L 5.4430657,2.7614241 C 5.4430657,2.7614241 5.5669108,2.1997534 5.9596893,2.1157676 C 6.1180903,2.0887562 13.051394,0.94140509 13.051394,0.94140509 C 13.051394,0.94140509 12.405161,2.6129031 9.3214278,3.048766 C 7.1164997,3.3616172 5.7640167,3.4824397 5.7714689,4.7889088 C 5.7788637,6.1088526 5.7337227,6.8073373 5.7337227,11.613521 C 5.7337227,11.647908 5.6873322,11.596263 5.4980655,11.54876 z"
         id="path2720" />
      <path
         sodipodi:nodetypes="cccsc"
         style="fill:url(#linearGradient3425);fill-opacity:1;fill-rule:evenodd;stroke:none;stroke-width:0.75;stroke-linecap:butt;stroke-linejoin:round;stroke-miterlimit:4;stroke-dasharray:none;stroke-opacity:1;display:inline"
         d="M 12.034443,10.306234 L 12.051714,3.9674293 C 12.233734,3.9362145 12.40777,3.9623969 12.653216,3.9156488 C 12.65658,5.0996737 12.598209,5.8971571 12.598209,10.368903 C 12.598209,10.402177 12.22371,10.352203 12.034443,10.306234 z"
         id="path3996" />
    </g>
  </g>
</svg>
