<?xml version="1.0" encoding="UTF-8" standalone="no"?>
<svg
   version="1.1"
   width="16"
   height="16"
   id="svg3810"
   xmlns:xlink="http://www.w3.org/1999/xlink"
   xmlns="http://www.w3.org/2000/svg"
   xmlns:svg="http://www.w3.org/2000/svg"
   xmlns:rdf="http://www.w3.org/1999/02/22-rdf-syntax-ns#"
   xmlns:cc="http://creativecommons.org/ns#"
   xmlns:dc="http://purl.org/dc/elements/1.1/">
  <defs
     id="defs3812">
    <linearGradient
       x1="23.99999"
       y1="6.9230647"
       x2="23.99999"
       y2="41.076912"
       id="linearGradient3988"
       xlink:href="#linearGradient3977"
       gradientUnits="userSpaceOnUse"
       gradientTransform="matrix(0.24324324,0,0,0.35135133,2.1621636,-0.43242804)" />
    <linearGradient
       id="linearGradient3977">
      <stop
         id="stop3979"
         style="stop-color:#ffffff;stop-opacity:1"
         offset="0" />
      <stop
         id="stop3981"
         style="stop-color:#ffffff;stop-opacity:0.23529412"
         offset="0" />
      <stop
         id="stop3983"
         style="stop-color:#ffffff;stop-opacity:0.15686275"
         offset="1" />
      <stop
         id="stop3985"
         style="stop-color:#ffffff;stop-opacity:0.39215687"
         offset="1" />
    </linearGradient>
    <linearGradient
       id="linearGradient3600">
      <stop
         id="stop3602"
         style="stop-color:#f4f4f4;stop-opacity:1"
         offset="0" />
      <stop
         id="stop3604"
         style="stop-color:#dbdbdb;stop-opacity:1"
         offset="1" />
    </linearGradient>
    <linearGradient
       x1="25.132275"
       y1="0.98520643"
       x2="25.132275"
       y2="47.013336"
       id="linearGradient3806"
       xlink:href="#linearGradient3600"
       gradientUnits="userSpaceOnUse"
       gradientTransform="matrix(0.28571361,0,0,0.30419701,1.1428727,0.2326048)" />
    <linearGradient
       id="linearGradient3104-9">
      <stop
         id="stop3106-5"
         style="stop-color:#000000;stop-opacity:0.33950618"
         offset="0" />
      <stop
         id="stop3108-5"
         style="stop-color:#000000;stop-opacity:0.24691358"
         offset="1" />
    </linearGradient>
    <linearGradient
       x1="-51.786404"
       y1="50.786446"
       x2="-51.786404"
       y2="2.9062471"
       id="linearGradient3019"
       xlink:href="#linearGradient3104-9"
       gradientUnits="userSpaceOnUse"
       gradientTransform="matrix(0.25378586,0,0,0.30501865,19.128979,-0.68547704)" />
    <linearGradient
       id="linearGradient4613">
      <stop
         id="stop4609"
         offset="0"
         style="stop-color:#4a525a;stop-opacity:1;" />
      <stop
         id="stop4611"
         offset="1"
         style="stop-color:#505f6f;stop-opacity:1" />
    </linearGradient>
    <linearGradient
       gradientUnits="userSpaceOnUse"
       y2="8"
       x2="64"
       y1="112"
       x1="64"
       id="linearGradient4615-2"
       xlink:href="#linearGradient4613"
       gradientTransform="matrix(0.1911975,0,0,0.19117647,-4.2434532,-4.6029135)" />
    <linearGradient
       xlink:href="#linearGradient4613"
       id="linearGradient1050"
       gradientUnits="userSpaceOnUse"
       gradientTransform="matrix(0.1911975,0,0,0.19117647,-4.2434532,-4.6029135)"
       x1="64"
       y1="112"
       x2="64"
       y2="8" />
  </defs>
  <metadata
     id="metadata3815">
    <rdf:RDF>
      <cc:Work
         rdf:about="">
        <dc:format>image/svg+xml</dc:format>
        <dc:type
           rdf:resource="http://purl.org/dc/dcmitype/StillImage" />
      </cc:Work>
    </rdf:RDF>
  </metadata>
  <path
     style="display:inline;fill:url(#linearGradient3806);fill-opacity:1;stroke:none"
     id="path4160"
     d="m 3,1 c 2.2915074,0 9.999988,8.904e-4 9.999988,8.904e-4 L 13,15 C 13,15 6.3333332,15 3,15 3,10.333334 3,5.6666664 3,1 Z" />
  <path
     style="fill:none;stroke:url(#linearGradient3988);stroke-width:1;stroke-linecap:round;stroke-linejoin:miter;stroke-miterlimit:4;stroke-dasharray:none;stroke-dashoffset:0;stroke-opacity:1"
     id="rect6741-1"
     d="m 12.5,14.5 -9.0000001,0 0,-13 L 12.5,1.5 Z" />
  <path
     style="display:inline;fill:none;stroke:url(#linearGradient3019);stroke-width:0.99992192;stroke-linecap:butt;stroke-linejoin:round;stroke-miterlimit:4;stroke-dasharray:none;stroke-dashoffset:0;stroke-opacity:1"
     id="path4160-8"
     d="m 2.4999621,0.49997396 c 2.5206756,0 11.0000629,9.54e-4 11.0000629,9.54e-4 l 1.3e-5,14.99909804 c 0,0 -7.3333841,0 -11.000076,0 0,-5.000017 0,-10.000035 0,-15.00005204 z" />
  <path
     style="font-variation-settings:normal;vector-effect:none;fill:url(#linearGradient1050);fill-opacity:1;stroke:none;stroke-width:4;stroke-linecap:butt;stroke-linejoin:miter;stroke-miterlimit:4;stroke-dasharray:none;stroke-dashoffset:0;stroke-opacity:1;-inkscape-stroke:none;stop-color:#000000"
     d="m 10.269531,6.0000236 h 0.44336 c 0.155878,0 0.28125,0.138062 0.28125,0.310547 v 1.6875 h 0.714843 c 0.155881,0 0.28125,0.138063 0.28125,0.310547 0,0.09296 -0.03573,0.175469 -0.09375,0.232422 l -1.216796,1.373046 c -0.05039,0.052648 -0.118589,0.085938 -0.19336,0.085938 -0.07477,0 -0.141014,-0.03134 -0.191406,-0.08398 l -1.208984,-1.375 c -0.05801,-0.05695 -0.0957,-0.139461 -0.0957,-0.232422 0,-0.172484 0.125372,-0.310547 0.28125,-0.310547 h 0.716797 v -1.6875 c -1.54e-4,-0.172489 0.125365,-0.310551 0.281246,-0.310551 z"
     id="path1040" />
  <path
     style="font-variation-settings:normal;vector-effect:none;fill:url(#linearGradient4615-2);fill-opacity:1;stroke:none;stroke-width:4;stroke-linecap:butt;stroke-linejoin:miter;stroke-miterlimit:4;stroke-dasharray:none;stroke-dashoffset:0;stroke-opacity:1;-inkscape-stroke:none;stop-color:#000000"
     d="m 4.3730469,6.0000236 h 0.3535156 c 0.096916,-0.0016 0.1933166,0.03748 0.2675781,0.117188 l 1.0078124,1.191406 0.992188,-1.191406 c 0.074261,-0.079712 0.17066,-0.118724 0.267578,-0.117188 H 7.626953 C 7.833395,6.0000236 8,6.1788206 8,6.4004146 v 3.199218 C 8,9.8212286 7.833395,10.000024 7.626953,10.000024 H 7.375 c -0.206441,0 -0.373048,-0.1787954 -0.373047,-0.4003914 v -1.796875 l -0.804687,1.052735 c -0.04546,0.04778 -0.103762,0.07863 -0.169922,0.08398 -0.0067,7.5e-4 -0.01467,0.0018 -0.02149,0.002 -0.00924,0 -0.0183,-8.53e-4 -0.027343,-0.002 -0.066161,-0.0053 -0.1264169,-0.03619 -0.171875,-0.08398 L 4.9863281,7.8027576 v 1.796875 c 2e-6,0.221596 -0.1666068,0.4003914 -0.3730469,0.4003914 H 4.3730469 C 4.1666058,10.000024 4,9.8212286 4,9.5996326 v -3.199218 c 0,-0.221594 0.1666058,-0.400391 0.3730469,-0.400391 z"
     id="path1038" />
</svg>
