<?xml version="1.0" encoding="UTF-8" standalone="no"?>
<svg
   xmlns:dc="http://purl.org/dc/elements/1.1/"
   xmlns:cc="http://creativecommons.org/ns#"
   xmlns:rdf="http://www.w3.org/1999/02/22-rdf-syntax-ns#"
   xmlns:svg="http://www.w3.org/2000/svg"
   xmlns="http://www.w3.org/2000/svg"
   xmlns:xlink="http://www.w3.org/1999/xlink"
   viewBox="0 0 16 16"
   id="svg3147"
   height="16"
   width="16"
   version="1.1">
  <defs
     id="defs3149">
    <linearGradient
       id="linearGradient3104-5">
      <stop
         offset="0"
         style="stop-color:#aaaaaa;stop-opacity:1"
         id="stop3106-2" />
      <stop
         offset="1"
         style="stop-color:#c8c8c8;stop-opacity:1"
         id="stop3108-5" />
    </linearGradient>
    <linearGradient
       id="linearGradient3977">
      <stop
         offset="0"
         style="stop-color:#ffffff;stop-opacity:1"
         id="stop3979" />
      <stop
         offset="0.03626217"
         style="stop-color:#ffffff;stop-opacity:0.23529412"
         id="stop3981" />
      <stop
         offset="0.95056331"
         style="stop-color:#ffffff;stop-opacity:0.15686275"
         id="stop3983" />
      <stop
         offset="1"
         style="stop-color:#ffffff;stop-opacity:0.39215687"
         id="stop3985" />
    </linearGradient>
    <linearGradient
       id="linearGradient3600">
      <stop
         offset="0"
         style="stop-color:#f4f4f4;stop-opacity:1"
         id="stop3602" />
      <stop
         offset="1"
         style="stop-color:#dbdbdb;stop-opacity:1"
         id="stop3604" />
    </linearGradient>
    <linearGradient
       id="linearGradient3104">
      <stop
         offset="0"
         style="stop-color:#a0a0a0;stop-opacity:1"
         id="stop3106" />
      <stop
         offset="1"
         style="stop-color:#bebebe;stop-opacity:1"
         id="stop3108" />
    </linearGradient>
    <linearGradient
       gradientTransform="matrix(0.22297294,0,0,0.35135133,2.2736505,-0.43242895)"
       gradientUnits="userSpaceOnUse"
       xlink:href="#linearGradient3977-6"
       id="linearGradient3066"
       y2="43"
       x2="23.99999"
       y1="5.5641499"
       x1="23.99999" />
    <linearGradient
       id="linearGradient3977-6">
      <stop
         offset="0"
         style="stop-color:#ffffff;stop-opacity:1"
         id="stop3979-9" />
      <stop
         offset="0.03626217"
         style="stop-color:#ffffff;stop-opacity:0.23529412"
         id="stop3981-3" />
      <stop
         offset="0.95056331"
         style="stop-color:#ffffff;stop-opacity:0.15686275"
         id="stop3983-7" />
      <stop
         offset="1"
         style="stop-color:#ffffff;stop-opacity:0.39215687"
         id="stop3985-4" />
    </linearGradient>
    <linearGradient
       id="linearGradient2867-449-88-871-390-598-476-591-434-148-57-177-8">
      <stop
         offset="0"
         style="stop-color:#90dbec;stop-opacity:1"
         id="stop3750-1" />
      <stop
         offset="0.26238"
         style="stop-color:#55c1ec;stop-opacity:1"
         id="stop3752-3" />
      <stop
         offset="0.704952"
         style="stop-color:#3689e6;stop-opacity:1"
         id="stop3754-1" />
      <stop
         offset="1"
         style="stop-color:#2b63a0;stop-opacity:1"
         id="stop3756-1" />
    </linearGradient>
    <linearGradient
       id="linearGradient3707-319-631-407-324-3">
      <stop
         offset="0"
         style="stop-color:#185f9a;stop-opacity:1"
         id="stop3760-4" />
      <stop
         offset="1"
         style="stop-color:#599ec9;stop-opacity:1"
         id="stop3762-0" />
    </linearGradient>
    <radialGradient
       gradientTransform="matrix(-7.3617649e-8,2.251132,-3.6847783,-6.7572924e-8,47.15124,-20.156075)"
       gradientUnits="userSpaceOnUse"
       xlink:href="#linearGradient2867-449-88-871-390-598-476-591-434-148-57-177-8"
       id="radialGradient3062"
       fy="9.9571075"
       fx="7.2758255"
       r="12.671875"
       cy="9.9571075"
       cx="7.8060555" />
    <linearGradient
       gradientTransform="matrix(0.45534875,0,0,0.34098425,-0.46197711,0.32769652)"
       gradientUnits="userSpaceOnUse"
       xlink:href="#linearGradient3707-319-631-407-324-3"
       id="linearGradient3064"
       y2="0.91790956"
       x2="25"
       y1="47.935162"
       x1="25" />
    <linearGradient
       gradientTransform="matrix(-0.32160807,0,0,0.3333374,15.813338,-0.34907707)"
       gradientUnits="userSpaceOnUse"
       xlink:href="#linearGradient3104-5"
       id="linearGradient3052"
       y2="3.3638515"
       x2="22.004084"
       y1="47.813133"
       x1="22.004084" />
    <linearGradient
       gradientTransform="matrix(0.24324324,0,0,0.35135133,2.1621636,-0.43242804)"
       gradientUnits="userSpaceOnUse"
       xlink:href="#linearGradient3977"
       id="linearGradient3055"
       y2="43"
       x2="23.99999"
       y1="5.5641499"
       x1="23.99999" />
    <linearGradient
       gradientTransform="matrix(0.31428714,0,0,0.3259265,0.457108,-0.32223804)"
       gradientUnits="userSpaceOnUse"
       xlink:href="#linearGradient3600"
       id="linearGradient3058"
       y2="47.013336"
       x2="25.132275"
       y1="0.98520643"
       x1="25.132275" />
    <linearGradient
       gradientTransform="matrix(0.25378586,0,0,0.30501865,19.128979,-0.68547704)"
       gradientUnits="userSpaceOnUse"
       xlink:href="#linearGradient3104"
       id="linearGradient3060"
       y2="2.9062471"
       x2="-51.786404"
       y1="50.786446"
       x1="-51.786404" />
    <linearGradient
       id="linearGradient3412">
      <stop
         offset="0"
         style="stop-color:#fcfcfc;stop-opacity:1"
         id="stop3414" />
      <stop
         offset="1"
         style="stop-color:#cbcdd9;stop-opacity:1"
         id="stop3416" />
    </linearGradient>
    <linearGradient
       gradientTransform="matrix(0,0.6,0.6,0,5.8976269,-12.49769)"
       gradientUnits="userSpaceOnUse"
       xlink:href="#linearGradient3412"
       id="linearGradient3085"
       y2="30.190546"
       x2="44.118835"
       y1="19.948324"
       x1="33.876614" />
  </defs>
  <metadata
     id="metadata3152">
    <rdf:RDF>
      <cc:Work
         rdf:about="">
        <dc:format>image/svg+xml</dc:format>
        <dc:type
           rdf:resource="http://purl.org/dc/dcmitype/StillImage" />
        <dc:title />
      </cc:Work>
    </rdf:RDF>
  </metadata>
  <path
     style="display:inline;fill:url(#linearGradient3058);fill-opacity:1;stroke:url(#linearGradient3060);stroke-width:0.99992192;stroke-linecap:butt;stroke-linejoin:round;stroke-miterlimit:4;stroke-dasharray:none;stroke-dashoffset:0;stroke-opacity:1"
     id="path4160"
     d="m 2.4999621,0.49997396 c 2.5206756,0 11.0000629,9.54e-4 11.0000629,9.54e-4 l 1.3e-5,14.99909804 c 0,0 -7.3333841,0 -11.0000759,0 0,-5.000017 0,-10.000035 0,-15.00005204 z" />
  <path
     style="fill:none;stroke:url(#linearGradient3055);stroke-width:1;stroke-linecap:round;stroke-linejoin:miter;stroke-miterlimit:4;stroke-dasharray:none;stroke-dashoffset:0;stroke-opacity:1"
     id="rect6741-1"
     d="M 12.5,14.5 H 3.4999999 V 1.5 H 12.5 Z" />
  <path
     style="fill:none;stroke:url(#linearGradient3052);stroke-width:1px;stroke-linecap:butt;stroke-linejoin:miter;stroke-opacity:1"
     id="path3475"
     d="m 11.638191,3.499995 h -0.753769 z m -0.864322,0 h -0.703517 z m -0.8140697,0 H 9.3366837 Z m -0.7236186,0 H 8.9648241 Z m -0.3819095,0 h -0.603015 z m -0.7236186,0 H 6.542713 Z m 3.5075384,0.994817 h -0.994975 z m -1.095477,0 H 8.9145731 Z m -1.728644,0 H 8.0200998 Z m -0.8944722,0 H 7.175879 Z m -0.8442218,0 H 6.442211 Z M 11.638191,5.5 h -0.512563 z m -0.673367,0 H 9.065326 Z m 0.673367,1.9947954 h -0.994975 z m -1.095477,0 H 8.9145731 Z m -1.728644,0 H 8.0200998 Z m -0.8944722,0 H 7.175879 Z m -0.8442218,0 H 6.442211 Z M 11.638191,8.5 h -0.753769 z m -0.864322,0 h -0.693467 z m -0.8140697,0 H 9.3366837 Z m -0.7236186,0 H 8.9648241 Z m -0.3819095,0 h -0.603015 z m -0.7236186,0 H 6.552764 Z m 3.5075384,1 h -1.17588 z m -1.306533,0 H 9.7688441 Z m -0.6633159,0 H 9.3869347 Z m -0.3919602,0 H 8.763819 Z m -0.6231157,0 H 8.1306526 Z m -0.6231156,0 H 7.195979 Z M 7.085426,9.5 H 6 Z m 4.552765,1.994804 h -0.994975 z m -1.095477,0 H 8.9145731 Z m -1.728644,0 H 8.0200998 Z m -0.8944722,0 H 7.175879 Z m -0.8442218,0 H 6.442211 Z M 11.638191,12.5 H 10.39196 Z m -1.356784,0 H 9.8894467 Z m -0.4924623,0 H 8.8944725 Z m -0.9949753,0 H 7.477386 Z m -1.4271354,0 H 6.472361 Z m -0.984925,0 H 6.190954 Z m 5.256282,1 H 10.39196 Z m -1.356784,0 H 9.7185931 Z m -0.6633169,0 H 8.7336686 Z m -0.9849245,0 h -0.954774 z m -1.0653266,0 h -0.38191 z m -0.482413,0 H 6.874371 Z m -0.321607,0 H 6.170853 Z" />
  <path
     style="color:#000000;display:inline;overflow:visible;visibility:visible;fill:url(#radialGradient3062);fill-opacity:1;fill-rule:nonzero;stroke:url(#linearGradient3064);stroke-width:1;stroke-linecap:butt;stroke-linejoin:round;stroke-miterlimit:4;stroke-dasharray:none;stroke-dashoffset:0;stroke-opacity:1;marker:none;enable-background:accumulate"
     id="path4530"
     d="m 4.9999997,15.5 c -0.7988458,0 -1.5976936,0 -2.3965433,0 -0.194166,-0.177608 -0.046516,-0.530231 -0.092649,-0.781669 0,-4.710715 0,-9.4214287 0,-14.13214153 l 0.02708,-0.0610008 0.065569,-0.0251887 v 0 c 0.8314375,0 1.53252,0 2.3639536,0" />
  <path
     style="opacity:0.5;fill:none;stroke:url(#linearGradient3066);stroke-width:1;stroke-linecap:round;stroke-linejoin:round;stroke-miterlimit:4;stroke-dasharray:none;stroke-dashoffset:0;stroke-opacity:1"
     id="rect6741-1-5"
     d="m 4.5000001,14.5 h -1 v -13 h 1" />
  <g
     id="g3082"
     transform="matrix(-1,0,0,1,31.497627,0.69769)">
    <path
       style="opacity:0.8;fill:url(#linearGradient3085);fill-opacity:1;fill-rule:evenodd;stroke:#83899a;stroke-width:1px;stroke-linecap:butt;stroke-linejoin:miter;stroke-opacity:1"
       id="path3410"
       d="m 16.997627,5.8023097 9,9.0000003 h -9 z m 2,5.0000003 v 2 h 2 z" />
  </g>
</svg>
