<svg xmlns="http://www.w3.org/2000/svg" xmlns:xlink="http://www.w3.org/1999/xlink" viewBox="0 0 16 16"><defs><linearGradient id="a"><stop offset="0" stop-color="#fff"/><stop offset=".036" stop-color="#fff" stop-opacity=".235"/><stop offset=".951" stop-color="#fff" stop-opacity=".157"/><stop offset="1" stop-color="#fff" stop-opacity=".392"/></linearGradient><linearGradient id="b"><stop offset="0" stop-color="#f4f4f4"/><stop offset="1" stop-color="#dbdbdb"/></linearGradient><linearGradient id="c"><stop offset="0" stop-color="#a0a0a0"/><stop offset="1" stop-color="#bebebe"/></linearGradient><linearGradient xlink:href="#a" id="g" gradientUnits="userSpaceOnUse" gradientTransform="matrix(.24324 0 0 .35135 2.162 -.432)" x1="24" y1="5.564" x2="24" y2="43"/><linearGradient xlink:href="#b" id="e" gradientUnits="userSpaceOnUse" gradientTransform="matrix(.3143 0 0 .32593 .457 -.322)" x1="25.132" y1=".985" x2="25.132" y2="47.013"/><linearGradient xlink:href="#c" id="f" gradientUnits="userSpaceOnUse" gradientTransform="matrix(.2538 0 0 .30502 19.13 -.685)" x1="-51.786" y1="50.786" x2="-51.786" y2="2.906"/><radialGradient r="12.5" fy="15.035" fx="11.789" cy="15.035" cx="11.789" gradientTransform="matrix(0 2.0396 -2.75538 0 44.276 -25.594)" gradientUnits="userSpaceOnUse" id="h" xlink:href="#d"/><linearGradient id="d"><stop offset="0" stop-color="#cdf87e"/><stop offset=".262" stop-color="#a2e34f"/><stop offset=".661" stop-color="#68b723"/><stop offset="1" stop-color="#1d7e0d"/></linearGradient></defs><path d="M2.5.5h11v15h-11V.5z" fill="url(#e)" stroke="url(#f)" stroke-linejoin="round"/><path d="M12.5 14.5h-9v-13h9z" fill="none" stroke="url(#g)" stroke-linecap="round"/><path d="M6.906 2v3H12V2zM4 4.72V14h3V4.72z" color="#000" fill="url(#h)" overflow="visible"/><path fill="#c4ec94" color="#000" overflow="visible" d="M4 2h3v3H4z"/><path d="M4.5 3.457l6.91.043" opacity=".2" fill="#fff" fill-rule="evenodd" stroke="#fff" stroke-linecap="square" stroke-linejoin="round"/><path d="M11 7.5H5m6 4H5m6-2H5" color="#000" fill="none" stroke="#305d2c" stroke-opacity=".324" overflow="visible"/><path d="M4.502 2.462H11.5V13.46h-7zM6.5 2.54V13.5m4.725-9h-6.74" fill="none" stroke="#0a3900" stroke-linecap="round" opacity=".4" color="#000" overflow="visible"/></svg>