<?xml version="1.0" encoding="UTF-8" standalone="no"?>
<!-- Created with Inkscape (http://www.inkscape.org/) -->

<svg
   xmlns:dc="http://purl.org/dc/elements/1.1/"
   xmlns:cc="http://creativecommons.org/ns#"
   xmlns:rdf="http://www.w3.org/1999/02/22-rdf-syntax-ns#"
   xmlns:svg="http://www.w3.org/2000/svg"
   xmlns="http://www.w3.org/2000/svg"
   xmlns:xlink="http://www.w3.org/1999/xlink"
   xmlns:sodipodi="http://sodipodi.sourceforge.net/DTD/sodipodi-0.dtd"
   xmlns:inkscape="http://www.inkscape.org/namespaces/inkscape"
   width="24"
   height="24"
   id="svg4105"
   version="1.1"
   inkscape:version="0.47 r22583"
   sodipodi:docname="list-add.svg">
  <defs
     id="defs4107">
    <linearGradient
       inkscape:collect="always"
       xlink:href="#linearGradient3911"
       id="linearGradient2831"
       gradientUnits="userSpaceOnUse"
       gradientTransform="matrix(0.5399382,0,0,0.5366811,-0.84892271,7.4938017)"
       x1="24.138529"
       y1="6.5316639"
       x2="24.138529"
       y2="40.074345" />
    <linearGradient
       id="linearGradient3911">
      <stop
         id="stop3913"
         style="stop-color:#ffffff;stop-opacity:1;"
         offset="0" />
      <stop
         offset="0.35480329"
         style="stop-color:#ffffff;stop-opacity:0.23529412;"
         id="stop3915" />
      <stop
         id="stop3917"
         style="stop-color:#ffffff;stop-opacity:0.15686275;"
         offset="0.64912158" />
      <stop
         id="stop3919"
         style="stop-color:#ffffff;stop-opacity:0.39215687;"
         offset="1" />
    </linearGradient>
    <radialGradient
       inkscape:collect="always"
       xlink:href="#linearGradient3242-7-2"
       id="radialGradient2936-5"
       gradientUnits="userSpaceOnUse"
       gradientTransform="matrix(0,0.67920413,-0.7389246,0,47.902804,-34.477329)"
       cx="69.186829"
       cy="48.587914"
       fx="69.186829"
       fy="48.587914"
       r="31.000002" />
    <linearGradient
       id="linearGradient3242-7-2">
      <stop
         id="stop3244-5-8"
         style="stop-color:#eef87e;stop-opacity:1"
         offset="0" />
      <stop
         id="stop3246-9-3"
         style="stop-color:#cde34f;stop-opacity:1"
         offset="0.26238" />
      <stop
         id="stop3248-7-6"
         style="stop-color:#93b723;stop-opacity:1"
         offset="0.66093999" />
      <stop
         id="stop3250-8-7"
         style="stop-color:#5a7e0d;stop-opacity:1"
         offset="1" />
    </linearGradient>
    <linearGradient
       inkscape:collect="always"
       xlink:href="#linearGradient2490-3-7"
       id="linearGradient2938-8"
       gradientUnits="userSpaceOnUse"
       gradientTransform="matrix(0.28214379,0,0,0.28443821,-12.828654,-5.030569)"
       x1="72.421684"
       y1="123.13212"
       x2="72.421684"
       y2="52.868618" />
    <linearGradient
       id="linearGradient2490-3-7">
      <stop
         id="stop2492-3-2"
         style="stop-color:#365f0e;stop-opacity:1"
         offset="0" />
      <stop
         id="stop2494-8-6"
         style="stop-color:#84a718;stop-opacity:1"
         offset="1" />
    </linearGradient>
  </defs>
  <sodipodi:namedview
     id="base"
     pagecolor="#ffffff"
     bordercolor="#666666"
     borderopacity="1.0"
     inkscape:pageopacity="0.0"
     inkscape:pageshadow="2"
     inkscape:zoom="11.197802"
     inkscape:cx="16"
     inkscape:cy="16"
     inkscape:current-layer="layer1"
     showgrid="true"
     inkscape:grid-bbox="true"
     inkscape:document-units="px"
     inkscape:window-width="603"
     inkscape:window-height="445"
     inkscape:window-x="0"
     inkscape:window-y="46"
     inkscape:window-maximized="0" />
  <metadata
     id="metadata4110">
    <rdf:RDF>
      <cc:Work
         rdf:about="">
        <dc:format>image/svg+xml</dc:format>
        <dc:type
           rdf:resource="http://purl.org/dc/dcmitype/StillImage" />
        <dc:title></dc:title>
      </cc:Work>
    </rdf:RDF>
  </metadata>
  <g
     id="layer1"
     inkscape:label="Layer 1"
     inkscape:groupmode="layer"
     transform="translate(0,-8)">
    <path
       sodipodi:type="inkscape:offset"
       inkscape:radius="1.0300788"
       inkscape:original="M 8.46875 2 A 0.48534263 0.48534263 0 0 0 8.0625 2.5 L 8.0625 8 L 2.5 8 A 0.48534263 0.48534263 0 0 0 2 8.5 L 2 15.5 A 0.48534263 0.48534263 0 0 0 2.5 16 L 8.03125 16 L 8.0625 21.5 A 0.48534263 0.48534263 0 0 0 8.5625 22 L 15.5 22 A 0.48534263 0.48534263 0 0 0 16 21.5 L 16 16 L 21.5 16 A 0.48534263 0.48534263 0 0 0 22 15.5 L 22 8.5 A 0.48534263 0.48534263 0 0 0 21.5 8 L 16 8 L 16 2.5 A 0.48534263 0.48534263 0 0 0 15.5 2 L 8.5625 2 A 0.48534263 0.48534263 0 0 0 8.46875 2 z "
       style="opacity:0.05;color:#000000;fill:#000000;fill-opacity:1;fill-rule:nonzero;stroke:none;stroke-width:0.98542738;marker:none;visibility:visible;display:inline;overflow:visible;enable-background:accumulate"
       id="path4009"
       d="M 8.3125,0.96875 C 8.3287548,0.96608114 8.1403038,1.0041305 8.15625,1 c 0.015946,-0.00413 -0.1405064,0.068058 -0.125,0.0625 0.015506,-0.00556 -0.1399391,0.03819 -0.125,0.03125 0.014939,-0.00694 -0.139249,0.070765 -0.125,0.0625 0.014249,-0.00826 -0.1384416,0.1032717 -0.125,0.09375 0.013442,-0.00952 -0.1062737,0.0732 -0.09375,0.0625 0.012524,-0.0107 -0.1052529,0.1055409 -0.09375,0.09375 C 7.4802529,1.3944591 7.3646126,1.5440345 7.375,1.53125 7.3853874,1.5184655 7.2720635,1.6386729 7.28125,1.625 7.2904365,1.6113271 7.21084,1.764449 7.21875,1.75 7.22666,1.735551 7.1496815,1.8901061 7.15625,1.875 7.1628185,1.8598939 7.088577,2.0156391 7.09375,2 7.098923,1.9843609 7.0587651,2.1410434 7.0625,2.125 c 0.00373,-0.016043 -0.033516,0.1725658 -0.03125,0.15625 0.00227,-0.016316 -7.787e-4,0.141454 0,0.125 5.84e-4,-0.012341 3.578e-4,0.053556 0,0.09375 -1.193e-4,0.013398 1.788e-4,0.035364 0,0.03125 l 0,4.4375 -4.5,0 c 0.00463,1.42e-4 -0.00961,1.119e-4 -0.03125,0 -0.021636,-1.119e-4 -0.03588,9.41e-5 -0.03125,0 0.00926,-1.883e-4 -0.1029878,6.601e-4 -0.09375,0 0.00924,-6.601e-4 -0.071692,0.00113 -0.0625,0 0.00919,-0.00113 -0.1028726,0.032847 -0.09375,0.03125 0.00912,-0.0016 -0.071529,0.00206 -0.0625,0 0.00903,-0.00206 -0.1026625,0.033768 -0.09375,0.03125 0.00891,-0.00252 -0.071273,0.034219 -0.0625,0.03125 0.00877,-0.00297 -0.07111,0.00341 -0.0625,0 0.00861,-0.00341 -0.1021745,0.035097 -0.09375,0.03125 0.00842,-0.00385 -0.070717,0.035521 -0.0625,0.03125 0.00822,-0.00427 -0.070489,0.067185 -0.0625,0.0625 0.00799,-0.00468 -0.07024,0.036336 -0.0625,0.03125 0.00774,-0.00509 -0.06997,0.036724 -0.0625,0.03125 0.00747,-0.00547 -0.069682,0.068348 -0.0625,0.0625 0.00718,-0.00585 -0.069374,0.068706 -0.0625,0.0625 0.00687,-0.00621 -0.069049,0.037799 -0.0625,0.03125 0.00655,-0.00655 -0.037456,0.069374 -0.03125,0.0625 0.00621,-0.00687 -0.068348,0.069682 -0.0625,0.0625 0.00585,-0.00718 -0.067974,0.06997 -0.0625,0.0625 0.00547,-0.00747 -0.036336,0.07024 -0.03125,0.0625 0.00509,-0.00774 -0.035935,0.070489 -0.03125,0.0625 0.00468,-0.00799 -0.066771,0.070717 -0.0625,0.0625 0.00427,-0.00822 -0.035097,0.070925 -0.03125,0.0625 0.00385,-0.00842 -0.034663,0.1023597 -0.03125,0.09375 0.00341,-0.00861 -0.00297,0.071272 0,0.0625 0.00297,-0.00877 -0.033768,0.071412 -0.03125,0.0625 C 1.033768,8.0535875 0.99793962,8.1652793 1,8.15625 c 0.00206,-0.00903 -0.001597,0.071623 0,0.0625 0.0016,-0.00912 -0.0323802,0.1029421 -0.03125,0.09375 0.00113,-0.00919 -6.6009e-4,0.071738 0,0.0625 6.6009e-4,-0.00924 -1.8826e-4,0.1030094 0,0.09375 9.413e-5,-0.00463 -1.1192e-4,0.00961 0,0.03125 1.1192e-4,0.021636 1.4203e-4,0.035879 0,0.03125 l 0,6.9375 0,0.03125 c -1.1192e-4,0.02164 9.413e-5,0.03588 0,0.03125 -1.8826e-4,-0.0093 6.6009e-4,0.102988 0,0.09375 -6.6009e-4,-0.0092 0.00113,0.07169 0,0.0625 -0.00113,-0.0092 0.0328474,0.102873 0.03125,0.09375 -0.001597,-0.0091 0.00206,0.07153 0,0.0625 -0.00206,-0.009 0.033768,0.102662 0.03125,0.09375 -0.00252,-0.0089 0.034219,0.07127 0.03125,0.0625 -0.00297,-0.0088 0.00341,0.07111 0,0.0625 -0.00341,-0.0086 0.035097,0.102175 0.03125,0.09375 -0.00385,-0.0084 0.035521,0.07072 0.03125,0.0625 -0.00427,-0.0082 0.067185,0.07049 0.0625,0.0625 -0.00468,-0.008 0.036336,0.07024 0.03125,0.0625 -0.00509,-0.0077 0.036724,0.06997 0.03125,0.0625 -0.00547,-0.0075 0.068348,0.06968 0.0625,0.0625 -0.00585,-0.0072 0.068706,0.06937 0.0625,0.0625 -0.00621,-0.0069 0.037799,0.06905 0.03125,0.0625 -0.00655,-0.0065 0.069374,0.03746 0.0625,0.03125 -0.00687,-0.0062 0.069682,0.06835 0.0625,0.0625 -0.00718,-0.0058 0.06997,0.06797 0.0625,0.0625 -0.00747,-0.0055 0.07024,0.03634 0.0625,0.03125 -0.00774,-0.0051 0.070489,0.03593 0.0625,0.03125 -0.00799,-0.0047 0.070717,0.06677 0.0625,0.0625 -0.00822,-0.0043 0.070925,0.0351 0.0625,0.03125 -0.00842,-0.0038 0.1023597,0.03466 0.09375,0.03125 -0.00861,-0.0034 0.071273,0.003 0.0625,0 -0.00877,-0.003 0.071413,0.03377 0.0625,0.03125 -0.00891,-0.0025 0.1027793,0.03331 0.09375,0.03125 -0.00903,-0.0021 0.071623,0.0016 0.0625,0 -0.00912,-0.0016 0.1029421,0.03238 0.09375,0.03125 -0.00919,-0.0011 0.071738,6.6e-4 0.0625,0 -0.00924,-6.6e-4 0.1030094,1.88e-4 0.09375,0 -0.00463,-9.4e-5 0.00961,1.12e-4 0.03125,0 0.021636,-1.12e-4 0.035878,-1.42e-4 0.03125,0 l 4.46875,0 0.03125,4.4375 0,0.03125 c -1.119e-4,0.02164 9.41e-5,0.03588 0,0.03125 -1.883e-4,-0.0093 6.601e-4,0.102988 0,0.09375 -6.601e-4,-0.0092 0.00113,0.07169 0,0.0625 -0.00113,-0.0092 0.032847,0.102873 0.03125,0.09375 -0.0016,-0.0091 0.00206,0.07153 0,0.0625 -0.00206,-0.009 0.033768,0.102662 0.03125,0.09375 -0.00252,-0.0089 0.034219,0.07127 0.03125,0.0625 -0.00297,-0.0088 0.00341,0.07111 0,0.0625 -0.00341,-0.0086 0.035097,0.102175 0.03125,0.09375 -0.00385,-0.0084 0.035521,0.07072 0.03125,0.0625 -0.00427,-0.0082 0.067185,0.07049 0.0625,0.0625 -0.00468,-0.008 0.036336,0.07024 0.03125,0.0625 -0.00509,-0.0077 0.036724,0.06997 0.03125,0.0625 -0.00547,-0.0075 0.068348,0.06968 0.0625,0.0625 -0.00585,-0.0072 0.068706,0.06937 0.0625,0.0625 -0.00621,-0.0069 0.037799,0.06905 0.03125,0.0625 -0.00655,-0.0065 0.069374,0.03746 0.0625,0.03125 -0.00687,-0.0062 0.069682,0.06835 0.0625,0.0625 -0.00718,-0.0058 0.06997,0.06797 0.0625,0.0625 -0.00747,-0.0055 0.07024,0.03634 0.0625,0.03125 -0.00774,-0.0051 0.070489,0.03593 0.0625,0.03125 -0.00799,-0.0047 0.070717,0.06677 0.0625,0.0625 -0.00822,-0.0043 0.070925,0.0351 0.0625,0.03125 -0.00842,-0.0038 0.1023597,0.03466 0.09375,0.03125 -0.00861,-0.0034 0.071272,0.003 0.0625,0 -0.00877,-0.003 0.071412,0.03377 0.0625,0.03125 -0.00891,-0.0025 0.1027793,0.03331 0.09375,0.03125 -0.00903,-0.0021 0.071623,0.0016 0.0625,0 -0.00912,-0.0016 0.1029421,0.03238 0.09375,0.03125 -0.00919,-0.0011 0.071738,6.6e-4 0.0625,0 -0.00924,-6.6e-4 0.1030094,1.88e-4 0.09375,0 -0.00463,-9.4e-5 0.00961,1.12e-4 0.03125,0 0.021636,-1.12e-4 0.035879,-1.42e-4 0.03125,0 l 6.875,0 0.03125,0 c 0.02164,1.12e-4 0.03588,-9.4e-5 0.03125,0 -0.0093,1.88e-4 0.102988,-6.6e-4 0.09375,0 -0.0092,6.6e-4 0.07169,-0.0011 0.0625,0 -0.0092,0.0011 0.102873,-0.03285 0.09375,-0.03125 -0.0091,0.0016 0.07153,-0.0021 0.0625,0 -0.009,0.0021 0.102662,-0.03377 0.09375,-0.03125 -0.0089,0.0025 0.07127,-0.03422 0.0625,-0.03125 -0.0088,0.003 0.07111,-0.0034 0.0625,0 -0.0086,0.0034 0.102175,-0.0351 0.09375,-0.03125 -0.0084,0.0038 0.07072,-0.03552 0.0625,-0.03125 -0.0082,0.0043 0.07049,-0.06718 0.0625,-0.0625 -0.008,0.0047 0.07024,-0.03634 0.0625,-0.03125 -0.0077,0.0051 0.06997,-0.03672 0.0625,-0.03125 -0.0075,0.0055 0.06968,-0.06835 0.0625,-0.0625 -0.0072,0.0058 0.06937,-0.06871 0.0625,-0.0625 -0.0069,0.0062 0.06905,-0.0378 0.0625,-0.03125 -0.0065,0.0065 0.03746,-0.06937 0.03125,-0.0625 -0.0062,0.0069 0.06835,-0.06968 0.0625,-0.0625 -0.0058,0.0072 0.06797,-0.06997 0.0625,-0.0625 -0.0055,0.0075 0.03634,-0.07024 0.03125,-0.0625 -0.0051,0.0077 0.03593,-0.07049 0.03125,-0.0625 -0.0047,0.008 0.06677,-0.07072 0.0625,-0.0625 -0.0043,0.0082 0.0351,-0.07092 0.03125,-0.0625 -0.0038,0.0084 0.03466,-0.10236 0.03125,-0.09375 -0.0034,0.0086 0.003,-0.07127 0,-0.0625 -0.003,0.0088 0.03377,-0.07141 0.03125,-0.0625 -0.0025,0.0089 0.03331,-0.102779 0.03125,-0.09375 -0.0021,0.009 0.0016,-0.07162 0,-0.0625 -0.0016,0.0091 0.03238,-0.102942 0.03125,-0.09375 -0.0011,0.0092 6.6e-4,-0.07174 0,-0.0625 -6.6e-4,0.0092 1.88e-4,-0.103009 0,-0.09375 -9.4e-5,0.0046 1.12e-4,-0.0096 0,-0.03125 -1.12e-4,-0.02164 -1.42e-4,-0.03588 0,-0.03125 l 0,-4.4375 4.4375,0 0.03125,0 c 0.02164,1.12e-4 0.03588,-9.4e-5 0.03125,0 -0.0093,1.88e-4 0.102988,-6.6e-4 0.09375,0 -0.0092,6.6e-4 0.07169,-0.0011 0.0625,0 -0.0092,0.0011 0.102873,-0.03285 0.09375,-0.03125 -0.0091,0.0016 0.07153,-0.0021 0.0625,0 -0.009,0.0021 0.102662,-0.03377 0.09375,-0.03125 -0.0089,0.0025 0.07127,-0.03422 0.0625,-0.03125 -0.0088,0.003 0.07111,-0.0034 0.0625,0 -0.0086,0.0034 0.102175,-0.0351 0.09375,-0.03125 -0.0084,0.0038 0.07072,-0.03552 0.0625,-0.03125 -0.0082,0.0043 0.07049,-0.06718 0.0625,-0.0625 -0.008,0.0047 0.07024,-0.03634 0.0625,-0.03125 -0.0077,0.0051 0.06997,-0.03672 0.0625,-0.03125 -0.0075,0.0055 0.06968,-0.06835 0.0625,-0.0625 -0.0072,0.0058 0.06937,-0.06871 0.0625,-0.0625 -0.0069,0.0062 0.06905,-0.0378 0.0625,-0.03125 -0.0065,0.0065 0.03746,-0.06937 0.03125,-0.0625 -0.0062,0.0069 0.06835,-0.06968 0.0625,-0.0625 -0.0058,0.0072 0.06797,-0.06997 0.0625,-0.0625 -0.0055,0.0075 0.03634,-0.07024 0.03125,-0.0625 -0.0051,0.0077 0.03593,-0.07049 0.03125,-0.0625 -0.0047,0.008 0.06677,-0.07072 0.0625,-0.0625 -0.0043,0.0082 0.0351,-0.07092 0.03125,-0.0625 -0.0038,0.0084 0.03466,-0.10236 0.03125,-0.09375 -0.0034,0.0086 0.003,-0.07127 0,-0.0625 -0.003,0.0088 0.03377,-0.07141 0.03125,-0.0625 -0.0025,0.0089 0.03331,-0.102779 0.03125,-0.09375 -0.0021,0.009 0.0016,-0.07162 0,-0.0625 -0.0016,0.0091 0.03238,-0.102942 0.03125,-0.09375 -0.0011,0.0092 6.6e-4,-0.07174 0,-0.0625 -6.6e-4,0.0092 1.88e-4,-0.103009 0,-0.09375 -9.4e-5,0.0046 1.12e-4,-0.0096 0,-0.03125 -1.12e-4,-0.02164 -1.42e-4,-0.03588 0,-0.03125 l 0,-6.9375 0,-0.03125 c 1.12e-4,-0.021636 -9.4e-5,-0.03588 0,-0.03125 1.88e-4,0.00926 -6.6e-4,-0.1029878 0,-0.09375 6.6e-4,0.00924 -0.0011,-0.071692 0,-0.0625 0.0011,0.00919 -0.03285,-0.1028726 -0.03125,-0.09375 0.0016,0.00912 -0.0021,-0.071529 0,-0.0625 0.0021,0.00903 -0.03377,-0.1026625 -0.03125,-0.09375 0.0025,0.00891 -0.03422,-0.071273 -0.03125,-0.0625 0.003,0.00877 -0.0034,-0.07111 0,-0.0625 0.0034,0.00861 -0.0351,-0.1021745 -0.03125,-0.09375 0.0038,0.00842 -0.03552,-0.070717 -0.03125,-0.0625 0.0043,0.00822 -0.06718,-0.070489 -0.0625,-0.0625 0.0047,0.00799 -0.03634,-0.07024 -0.03125,-0.0625 0.0051,0.00774 -0.03672,-0.06997 -0.03125,-0.0625 0.0055,0.00747 -0.06835,-0.069682 -0.0625,-0.0625 0.0058,0.00718 -0.06871,-0.069374 -0.0625,-0.0625 0.0062,0.00687 -0.0378,-0.069049 -0.03125,-0.0625 0.0065,0.00655 -0.06937,-0.037456 -0.0625,-0.03125 0.0069,0.00621 -0.06968,-0.068348 -0.0625,-0.0625 0.0072,0.00585 -0.06997,-0.067974 -0.0625,-0.0625 0.0075,0.00547 -0.07024,-0.036336 -0.0625,-0.03125 0.0077,0.00509 -0.07049,-0.035935 -0.0625,-0.03125 0.008,0.00468 -0.07072,-0.066771 -0.0625,-0.0625 0.0082,0.00427 -0.07092,-0.035097 -0.0625,-0.03125 0.0084,0.00385 -0.10236,-0.034662 -0.09375,-0.03125 0.0086,0.00341 -0.07127,-0.00297 -0.0625,0 0.0088,0.00297 -0.07141,-0.033768 -0.0625,-0.03125 0.0089,0.00252 -0.102779,-0.03331 -0.09375,-0.03125 0.009,0.00206 -0.07162,-0.0016 -0.0625,0 0.0091,0.0016 -0.102942,-0.03238 -0.09375,-0.03125 0.0092,0.00113 -0.07174,-6.601e-4 -0.0625,0 0.0092,6.601e-4 -0.103009,-1.883e-4 -0.09375,0 0.0046,9.41e-5 -0.0096,-1.119e-4 -0.03125,0 l -0.03125,0 -4.4375,0 0,-4.4375 0,-0.03125 c 1.12e-4,-0.021636 -9.4e-5,-0.03588 0,-0.03125 1.88e-4,0.00926 -6.6e-4,-0.1029878 0,-0.09375 6.6e-4,0.00924 -0.0011,-0.071692 0,-0.0625 0.0011,0.00919 -0.03285,-0.1028726 -0.03125,-0.09375 0.0016,0.00912 -0.0021,-0.071529 0,-0.0625 0.0021,0.00903 -0.03377,-0.1026625 -0.03125,-0.09375 0.0025,0.00891 -0.03422,-0.071273 -0.03125,-0.0625 0.003,0.00877 -0.0034,-0.07111 0,-0.0625 0.0034,0.00861 -0.0351,-0.1021745 -0.03125,-0.09375 0.0038,0.00842 -0.03552,-0.070717 -0.03125,-0.0625 0.0043,0.00822 -0.06718,-0.070489 -0.0625,-0.0625 0.0047,0.00799 -0.03634,-0.07024 -0.03125,-0.0625 0.0051,0.00774 -0.03672,-0.06997 -0.03125,-0.0625 0.0055,0.00747 -0.06835,-0.069682 -0.0625,-0.0625 0.0058,0.00718 -0.06871,-0.069374 -0.0625,-0.0625 0.0062,0.00687 -0.0378,-0.069049 -0.03125,-0.0625 0.0065,0.00655 -0.06937,-0.037456 -0.0625,-0.03125 0.0069,0.00621 -0.06968,-0.068348 -0.0625,-0.0625 0.0072,0.00585 -0.06997,-0.067974 -0.0625,-0.0625 0.0075,0.00547 -0.07024,-0.036336 -0.0625,-0.03125 0.0077,0.00509 -0.07049,-0.035935 -0.0625,-0.03125 0.008,0.00468 -0.07072,-0.066771 -0.0625,-0.0625 0.0082,0.00427 -0.07092,-0.035097 -0.0625,-0.03125 0.0084,0.00385 -0.10236,-0.034663 -0.09375,-0.03125 0.0086,0.00341 -0.07127,-0.00297 -0.0625,0 0.0088,0.00297 -0.07141,-0.033768 -0.0625,-0.03125 0.0089,0.00252 -0.102779,-0.0333104 -0.09375,-0.03125 0.009,0.00206 -0.07162,-0.001597 -0.0625,0 0.0091,0.0016 -0.102942,-0.0323802 -0.09375,-0.03125 0.0092,0.00113 -0.07174,-6.6009e-4 -0.0625,0 0.0092,6.6009e-4 -0.103009,-1.8826e-4 -0.09375,0 0.0046,9.413e-5 -0.0096,-1.1192e-4 -0.03125,0 l -0.03125,0 -6.8125,0 c 0.010489,0.001018 -0.046977,0.002366 -0.09375,0 -0.031182,-0.001577 -0.069526,0 -0.0625,0 0.017565,0 -0.1424824,0.001696 -0.125,0 a 1.0301818,1.0301818 0 0 0 -0.0625,0 z"
       transform="matrix(1,0,0,0.3,2.8946977e-8,24.78158)" />
    <path
       sodipodi:type="inkscape:offset"
       inkscape:radius="0.4852941"
       inkscape:original="M 8.5625 2.5 L 8.5625 8.5 L 2.5 8.5 L 2.5 15.5 L 8.53125 15.5 L 8.5625 21.5 L 15.5 21.5 L 15.5 15.5 L 21.5 15.5 L 21.5 8.5 L 15.5 8.5 L 15.5 2.5 L 8.5625 2.5 z "
       style="opacity:0.1;color:#000000;fill:#000000;fill-opacity:1;fill-rule:nonzero;stroke:none;stroke-width:0.98542738;marker:none;visibility:visible;display:inline;overflow:visible;enable-background:accumulate"
       id="path3981"
       d="m 8.5625,2 a 0.48534263,0.48534263 0 0 0 -0.5,0.5 l 0,5.5 L 2.5,8 A 0.48534263,0.48534263 0 0 0 2,8.5 l 0,7 A 0.48534263,0.48534263 0 0 0 2.5,16 l 5.53125,0 0.03125,5.5 a 0.48534263,0.48534263 0 0 0 0.5,0.5 L 15.5,22 A 0.48534263,0.48534263 0 0 0 16,21.5 l 0,-5.5 5.5,0 A 0.48534263,0.48534263 0 0 0 22,15.5 l 0,-7 A 0.48534263,0.48534263 0 0 0 21.5,8 L 16,8 16,2.5 A 0.48534263,0.48534263 0 0 0 15.5,2 L 8.5625,2 z"
       transform="matrix(1,0,0,0.3,0,24.78158)" />
    <path
       style="color:#000000;fill:url(#radialGradient2936-5);fill-opacity:1;fill-rule:nonzero;stroke:url(#linearGradient2938-8);stroke-width:0.98542738;stroke-linecap:round;stroke-linejoin:round;stroke-miterlimit:4;stroke-opacity:1;stroke-dasharray:none;stroke-dashoffset:0;marker:none;visibility:visible;display:inline;overflow:visible;enable-background:accumulate"
       id="path2262"
       d="m 8.5663796,16.494818 0,-5.994818 6.9336204,0 0,5.994818 6,0 0,7.005182 -6,0 0,6 -6.9397278,0 -0.027869,-6 -6.0324033,0 0,-7.005182 6.0663796,0 z" />
    <path
       style="opacity:0.4;fill:none;stroke:url(#linearGradient2831);stroke-width:1;stroke-linecap:butt;stroke-linejoin:miter;stroke-miterlimit:4;stroke-opacity:1;stroke-dasharray:none;display:inline"
       id="path2272"
       d="M 9.5,17.494818 9.5,11.5 l 5,0 0,5.994818 6,0 0,5.005182 -6,0 0,6 -5,0 0,-6 -6,0 0,-5.005182 6,0 z" />
  </g>
</svg>
