<?xml version="1.0" encoding="UTF-8" standalone="no"?>
<!-- Created with Inkscape (http://www.inkscape.org/) -->

<svg
   xmlns:svg="http://www.w3.org/2000/svg"
   xmlns="http://www.w3.org/2000/svg"
   xmlns:xlink="http://www.w3.org/1999/xlink"
   version="1.0"
   width="64"
   height="64"
   id="svg2">
  <defs
     id="defs4">
    <linearGradient
       id="linearGradient3215">
      <stop
         id="stop3217"
         style="stop-color:#505050;stop-opacity:1"
         offset="0" />
      <stop
         id="stop3219"
         style="stop-color:#a0a0a0;stop-opacity:1"
         offset="0.35046947" />
      <stop
         id="stop3221"
         style="stop-color:#aaa;stop-opacity:1"
         offset="0.55130547" />
      <stop
         id="stop3223"
         style="stop-color:#bebebe;stop-opacity:1"
         offset="0.69074172" />
      <stop
         id="stop3225"
         style="stop-color:#6e6e6e;stop-opacity:1"
         offset="1" />
    </linearGradient>
    <linearGradient
       id="linearGradient3203">
      <stop
         id="stop3205"
         style="stop-color:#787878;stop-opacity:1"
         offset="0" />
      <stop
         id="stop3207"
         style="stop-color:#bebebe;stop-opacity:1"
         offset="0.35046947" />
      <stop
         id="stop3209"
         style="stop-color:#c8c8c8;stop-opacity:1"
         offset="0.55130541" />
      <stop
         id="stop3211"
         style="stop-color:#e6e6e6;stop-opacity:1"
         offset="0.68275177" />
      <stop
         id="stop3213"
         style="stop-color:#8c8c8c;stop-opacity:1"
         offset="1" />
    </linearGradient>
    <linearGradient
       id="linearGradient10691">
      <stop
         id="stop10693"
         style="stop-color:black;stop-opacity:1"
         offset="0" />
      <stop
         id="stop10695"
         style="stop-color:black;stop-opacity:0"
         offset="1" />
    </linearGradient>
    <linearGradient
       id="linearGradient6544">
      <stop
         id="stop6546"
         style="stop-color:#f0f0f0;stop-opacity:1"
         offset="0" />
      <stop
         id="stop6548"
         style="stop-color:#d2d2d2;stop-opacity:1"
         offset="1" />
    </linearGradient>
    <linearGradient
       id="linearGradient6568">
      <stop
         id="stop6570"
         style="stop-color:#430d0d;stop-opacity:1"
         offset="0" />
      <stop
         id="stop6572"
         style="stop-color:#643314;stop-opacity:1"
         offset="1" />
    </linearGradient>
    <linearGradient
       id="linearGradient6560">
      <stop
         id="stop6562"
         style="stop-color:#a14c13;stop-opacity:1"
         offset="0" />
      <stop
         id="stop6564"
         style="stop-color:#6b0c0c;stop-opacity:1"
         offset="1" />
    </linearGradient>
    <linearGradient
       id="linearGradient4574">
      <stop
         id="stop4576"
         style="stop-color:#282828;stop-opacity:1"
         offset="0" />
      <stop
         id="stop4578"
         style="stop-color:#5a5c58;stop-opacity:1"
         offset="1" />
    </linearGradient>
    <linearGradient
       id="linearGradient6592">
      <stop
         id="stop6594"
         style="stop-color:white;stop-opacity:0.27450982"
         offset="0" />
      <stop
         id="stop6596"
         style="stop-color:white;stop-opacity:0"
         offset="1" />
    </linearGradient>
    <linearGradient
       id="linearGradient6602">
      <stop
         id="stop6604"
         style="stop-color:white;stop-opacity:1"
         offset="0" />
      <stop
         id="stop6606"
         style="stop-color:white;stop-opacity:0"
         offset="1" />
    </linearGradient>
    <radialGradient
       cx="5.9687753"
       cy="-0.64647216"
       r="19.999998"
       fx="5.9687753"
       fy="-0.64647216"
       id="radialGradient2992"
       xlink:href="#linearGradient6602"
       gradientUnits="userSpaceOnUse"
       gradientTransform="matrix(1.9085306,-0.01048139,0.00330842,0.69841009,-1.1188459,10.059823)" />
    <linearGradient
       x1="12.9375"
       y1="8.4375"
       x2="15.25"
       y2="19.8125"
       id="linearGradient2995"
       xlink:href="#linearGradient6592"
       gradientUnits="userSpaceOnUse"
       gradientTransform="matrix(1.1907193,0,0,1.3503848,3.4277403,1.9329937)" />
    <linearGradient
       x1="316.86465"
       y1="85.620255"
       x2="319.38727"
       y2="93.916313"
       id="linearGradient3056"
       xlink:href="#linearGradient4574"
       gradientUnits="userSpaceOnUse"
       gradientTransform="matrix(1.1428573,0,0,0.93704324,-333.71433,-28.522762)" />
    <radialGradient
       cx="6.702713"
       cy="73.615715"
       r="7.228416"
       fx="6.702713"
       fy="73.615715"
       id="radialGradient3063"
       xlink:href="#linearGradient10691"
       gradientUnits="userSpaceOnUse"
       gradientTransform="matrix(4.1791082,-3.57729e-6,4.7438218e-7,0.20751435,3.9886053,45.223708)" />
    <radialGradient
       cx="12.244348"
       cy="4.8630676"
       r="20.999998"
       fx="12.244348"
       fy="4.8630676"
       id="radialGradient3066"
       xlink:href="#linearGradient6560"
       gradientUnits="userSpaceOnUse"
       gradientTransform="matrix(1.6532275,0.0228347,-0.0153928,1.2764574,-2.2151357,7.2015446)" />
    <linearGradient
       x1="24.875"
       y1="29"
       x2="24.999996"
       y2="3.0000005"
       id="linearGradient3068"
       xlink:href="#linearGradient6568"
       gradientUnits="userSpaceOnUse"
       gradientTransform="matrix(1.195366,0,0,1.2793124,3.3162172,2.0395958)" />
    <radialGradient
       cx="0.99999994"
       cy="5.5642838"
       r="22.999998"
       fx="0.99999994"
       fy="5.5642838"
       id="radialGradient3071"
       xlink:href="#linearGradient6602"
       gradientUnits="userSpaceOnUse"
       gradientTransform="matrix(1.1777781,0,0,0.80959573,3.7333197,9.546483)" />
    <linearGradient
       x1="20.147005"
       y1="-0.00049710274"
       x2="20.103531"
       y2="31.98299"
       id="linearGradient3074"
       xlink:href="#linearGradient6544"
       gradientUnits="userSpaceOnUse"
       gradientTransform="matrix(1.1721192,0,0,1.2270921,3.8688117,2.8668381)" />
    <radialGradient
       cx="24.000004"
       cy="38.641167"
       r="7.9999971"
       fx="24.000004"
       fy="38.641167"
       id="radialGradient3077"
       xlink:href="#linearGradient6602"
       gradientUnits="userSpaceOnUse"
       gradientTransform="matrix(2.2859785,-3.1440359e-8,0,0.43815044,-22.903193,33.06937)" />
    <linearGradient
       x1="320.03125"
       y1="85.028099"
       x2="320.03125"
       y2="94.126122"
       id="linearGradient3080"
       xlink:href="#linearGradient3203"
       gradientUnits="userSpaceOnUse"
       gradientTransform="matrix(1.2308346,0,0,1.0001443,-361.90554,-44.012763)" />
    <linearGradient
       x1="22.380917"
       y1="29.027483"
       x2="22.380917"
       y2="38.126816"
       id="linearGradient3082"
       xlink:href="#linearGradient3215"
       gradientUnits="userSpaceOnUse"
       gradientTransform="matrix(1.2352706,0,0,1.0000006,2.3535127,12.000104)" />
    <radialGradient
       cx="6.702713"
       cy="73.615715"
       r="7.228416"
       fx="6.702713"
       fy="73.615715"
       id="radialGradient3085"
       xlink:href="#linearGradient10691"
       gradientUnits="userSpaceOnUse"
       gradientTransform="matrix(1.9368007,0,0,0.5533716,19.018182,8.2631533)" />
    <linearGradient
       id="linearGradient6602-3">
      <stop
         id="stop6604-5"
         style="stop-color:white;stop-opacity:1"
         offset="0" />
      <stop
         id="stop6606-8"
         style="stop-color:white;stop-opacity:0"
         offset="1" />
    </linearGradient>
    <linearGradient
       x1="327.1875"
       y1="77.875"
       x2="327.1875"
       y2="86.1875"
       id="linearGradient4427"
       xlink:href="#linearGradient6602-3"
       gradientUnits="userSpaceOnUse"
       gradientTransform="translate(-292,-27)" />
    <linearGradient
       x1="145.43718"
       y1="372.66776"
       x2="145.43718"
       y2="416.82895"
       id="linearGradient4430"
       xlink:href="#linearGradient6544"
       gradientUnits="userSpaceOnUse"
       gradientTransform="matrix(0.23107685,0,0,0.18490844,-1.6071628,-15.992308)" />
  </defs>
  <path
     d="m 46,49 c 0,2.20914 -6.268014,4 -14.000001,4 C 24.268013,53 18,51.20914 18,49 18,46.790861 24.268013,45 31.999999,45 39.731986,45 46,46.790861 46,49 l 0,0 z"
     id="path2589"
     style="opacity:0.5;fill:url(#radialGradient3085);fill-opacity:1;fill-rule:nonzero;stroke:none;stroke-width:0.80000001;marker:none;visibility:visible;display:inline;overflow:visible" />
  <path
     d="m 25.5,38.499139 c 0,0 0,7.001004 0,7.001004 -0.0272,1.802231 -2.616175,3.000431 -2.616175,3.000431 -0.924798,0.08844 -1.384689,0.446073 -1.384689,1.000151 0,0.554081 0.622588,1.00014 1.384689,1.00014 l 18.232346,0 c 0.762101,0 1.38469,-0.446059 1.38469,-1.00014 0,-0.554078 -0.459891,-0.911711 -1.38469,-1.000151 0,0 -2.588969,-1.1982 -2.616171,-3.000431 0,0 0,-7.001004 0,-7.001004 l -13,0 z"
     id="path4675"
     style="fill:url(#linearGradient3080);fill-opacity:1;stroke:url(#linearGradient3082);stroke-width:0.99827486;stroke-linecap:round;stroke-linejoin:round;stroke-miterlimit:4;stroke-opacity:1;stroke-dasharray:none;stroke-dashoffset:0.50000001;display:inline;enable-background:new" />
  <rect
     width="20.001549"
     height="1"
     rx="0.44444439"
     ry="0.50000012"
     x="21.959534"
     y="49"
     id="rect4703"
     style="opacity:0.8;fill:url(#radialGradient3077);fill-opacity:1;stroke:none;display:inline;enable-background:new" />
  <rect
     width="54.999966"
     height="37.999966"
     rx="1.0016291"
     ry="1.0010487"
     x="4.5000172"
     y="3.5000172"
     id="rect2722"
     style="fill:url(#linearGradient3074);fill-opacity:1;stroke:#aaa;stroke-width:1.00003397;stroke-linecap:round;stroke-linejoin:round;stroke-miterlimit:4;stroke-opacity:1;stroke-dasharray:none;stroke-dashoffset:0.50000001" />
  <rect
     width="52.999935"
     height="35.999931"
     rx="0"
     ry="0"
     x="5.5000329"
     y="4.5000324"
     id="rect4642"
     style="fill:none;stroke:url(#radialGradient3071);stroke-width:1.00006545;stroke-linecap:round;stroke-linejoin:round;stroke-miterlimit:4;stroke-opacity:1;stroke-dasharray:none;stroke-dashoffset:0.50000001;display:inline;enable-background:new" />
  <rect
     width="49.009983"
     height="31.98279"
     x="7.5000086"
     y="6.5172043"
     id="rect2716"
     style="fill:url(#radialGradient3066);fill-opacity:1;fill-rule:evenodd;stroke:url(#linearGradient3068);stroke-width:1.00001669;stroke-linecap:butt;stroke-linejoin:miter;stroke-miterlimit:4;stroke-opacity:1;stroke-dasharray:none;display:inline;enable-background:new" />
  <path
     d="M 61,60.5 C 61,61.328428 48.016256,62 31.999997,62 15.983741,62 3,61.328428 3,60.5 3,59.671572 15.983741,59 31.999997,59 48.016256,59 61,59.671572 61,60.5 l 0,0 z"
     id="path6096"
     style="opacity:0.5;fill:url(#radialGradient3063);fill-opacity:1;fill-rule:nonzero;stroke:none;stroke-width:0.80000001;marker:none;visibility:visible;display:inline;overflow:visible" />
  <path
     d="m 9.6794976,53.498597 c -1.0338545,0.259789 -1.3445012,1.469494 -1.9891605,2.218723 -0.7131504,1.089334 -1.4959768,2.1389 -2.1641655,3.253896 -0.3246299,0.978706 0.5183091,1.772002 1.5002481,1.530782 16.8286623,0 33.6573253,0 50.4859873,0 1.255736,0.01982 1.215097,-1.628638 0.489676,-2.263542 -1.083831,-1.49342 -2.086918,-3.061985 -3.220505,-4.508876 -1.062487,-0.451003 -2.295967,-0.137808 -3.435996,-0.230973 -13.888636,-7e-6 -27.777742,1.3e-5 -41.6660844,-1e-5 z"
     id="path3698"
     style="fill:url(#linearGradient4430);fill-opacity:1;stroke:#a0a0a0;stroke-width:0.99600011;stroke-linecap:square;stroke-linejoin:miter;stroke-miterlimit:4;stroke-opacity:1;stroke-dasharray:none;stroke-dashoffset:0.3612;display:inline;enable-background:new" />
  <path
     d="M 10.893297,53.500154 8,59 l 31,-0.007 -0.884266,-5.492987 -27.222437,0 0,1.41e-4 z M 39,54 l 1,2 6,0 -1,-2 -6,0 z m 7.5,0 1.5,4.993148 8,0 L 53.511759,54 46.5,54 z m -4.286616,3.015665 0.159127,0.878875 -2.372511,0 0.5,1.098608 6.5,0 -0.5,-1.098608 -1.993683,0 -0.253142,-0.878875 -2.039791,0 z"
     id="path3702"
     style="opacity:0.8310502;fill:#1e1e1e;fill-opacity:1;fill-rule:evenodd;stroke:none;display:inline;enable-background:new" />
  <path
     d="m 11,53 -3,5 31,0 -1,-5 -27,0 z m 28,2e-6 L 39.978295,55 46.025311,55 45,53.000002 l -6,0 z M 46.5,53 48.215232,58 56,58 53,53 46.5,53 z m -4.5,3 0.5,1 -2.5,0 0.5,1 6.5,0 -0.5,-1 -2,0 -0.5,-1 -2,0 z"
     id="path3704"
     style="fill:url(#linearGradient3056);fill-opacity:1;fill-rule:evenodd;stroke:none;display:inline;enable-background:new" />
  <path
     d="m 6.9998979,5.9841482 50.0102041,0 0,10.8030808 -50.0102041,9.452696 0,-20.2557768 z"
     id="rect6588"
     style="fill:url(#linearGradient2995);fill-opacity:1;stroke:none" />
  <rect
     width="47.009594"
     height="29.85062"
     x="8.5002041"
     y="7.5832891"
     id="rect6600"
     style="opacity:0.3;fill:none;stroke:url(#radialGradient2992);stroke-width:0.99999982;stroke-linecap:square;stroke-linejoin:miter;stroke-miterlimit:4;stroke-opacity:1;stroke-dasharray:none" />
  <path
     d="M 12.28125,53 C 11.221292,53.567844 13.057911,54.702753 13,53.447088 13.097902,52.955806 12.604895,52.983649 12.28125,53 z m 2,0 C 13.221292,53.567844 15.057911,54.702753 15,53.447088 15.097902,52.955806 14.604895,52.983649 14.28125,53 z m 2,0 C 15.221292,53.567844 17.057911,54.702753 17,53.447088 17.097902,52.955806 16.604895,52.983649 16.28125,53 z m 2,0 C 17.221292,53.567844 19.057911,54.702753 19,53.447088 19.097902,52.955806 18.604895,52.983649 18.28125,53 z m 2,0 C 19.221292,53.567844 21.057911,54.702753 21,53.447088 21.097902,52.955806 20.604895,52.983649 20.28125,53 z m 2,0 C 21.221292,53.567844 23.057911,54.702753 23,53.447088 23.097902,52.955806 22.604895,52.983649 22.28125,53 z m 2,0 C 23.221292,53.567844 25.057911,54.702753 25,53.447088 25.097902,52.955806 24.604895,52.983649 24.28125,53 z m 2,0 C 25.221292,53.567844 27.057911,54.702753 27,53.447088 27.097902,52.955806 26.604895,52.983649 26.28125,53 z m 2,0 C 27.221292,53.567844 29.057911,54.702753 29,53.447088 29.097902,52.955806 28.604895,52.983649 28.28125,53 z m 2,0 C 29.221292,53.567844 31.057911,54.702753 31,53.447088 31.097902,52.955806 30.604895,52.983649 30.28125,53 z m 2,0 C 31.221292,53.567844 33.057911,54.702753 33,53.447088 33.097902,52.955806 32.604895,52.983649 32.28125,53 z m 2,0 C 33.221292,53.567844 35.057911,54.702753 35,53.447088 35.097902,52.955806 34.604895,52.983649 34.28125,53 z m 2,0 C 35.221292,53.567844 37.057911,54.702753 37,53.447088 37.097902,52.955806 36.604895,52.983649 36.28125,53 z m 4,0 C 39.221292,53.567844 41.057911,54.702753 41,53.447088 41.097902,52.955806 40.604895,52.983649 40.28125,53 z m 2,0 C 41.221292,53.567844 43.057911,54.702753 43,53.447088 43.097902,52.955806 42.604895,52.983649 42.28125,53 z m 2,0 C 43.221292,53.567844 45.057911,54.702753 45,53.447088 45.097902,52.955806 44.604895,52.983649 44.28125,53 z m -33,1 C 10.221292,54.567844 12.057911,55.702753 12,54.447088 12.097902,53.955806 11.604895,53.983649 11.28125,54 z m 2,0 C 12.221292,54.567844 14.057911,55.702753 14,54.447088 14.097902,53.955806 13.604895,53.983649 13.28125,54 z m 2,0 C 14.221292,54.567844 16.057911,55.702753 16,54.447088 16.097902,53.955806 15.604895,53.983649 15.28125,54 z m 2,0 C 16.221292,54.567844 18.057911,55.702753 18,54.447088 18.097902,53.955806 17.604895,53.983649 17.28125,54 z m 2,0 C 18.221292,54.567844 20.057911,55.702753 20,54.447088 20.097902,53.955806 19.604895,53.983649 19.28125,54 z m 2,0 C 20.221292,54.567844 22.057911,55.702753 22,54.447088 22.097902,53.955806 21.604895,53.983649 21.28125,54 z m 2,0 C 22.221292,54.567844 24.057911,55.702753 24,54.447088 24.097902,53.955806 23.604895,53.983649 23.28125,54 z m 2,0 C 24.221292,54.567844 26.057911,55.702753 26,54.447088 26.097902,53.955806 25.604895,53.983649 25.28125,54 z m 2,0 C 26.221292,54.567844 28.057911,55.702753 28,54.447088 28.097902,53.955806 27.604895,53.983649 27.28125,54 z m 2,0 C 28.221292,54.567844 30.057911,55.702753 30,54.447088 30.097902,53.955806 29.604895,53.983649 29.28125,54 z m 2,0 C 30.221292,54.567844 32.057911,55.702753 32,54.447088 32.097902,53.955806 31.604895,53.983649 31.28125,54 z m 2,0 C 32.221292,54.567844 34.057911,55.702753 34,54.447088 34.097902,53.955806 33.604895,53.983649 33.28125,54 z m 2,0 C 34.221292,54.567844 36.057911,55.702753 36,54.447088 36.097902,53.955806 35.604895,53.983649 35.28125,54 z m 2,0 C 36.221292,54.567844 38.057911,55.702753 38,54.447088 38.097902,53.955806 37.604895,53.983649 37.28125,54 z m 4,0 C 40.221292,54.567844 42.057911,55.702753 42,54.447088 42.097902,53.955806 41.604895,53.983649 41.28125,54 z m 2,0 C 42.221292,54.567844 44.057911,55.702753 44,54.447088 44.097902,53.955806 43.604895,53.983649 43.28125,54 z m 5,0 C 47.221292,54.567844 49.057911,55.702753 49,54.447088 49.097902,53.955806 48.604895,53.983649 48.28125,54 z m 2,0 C 49.221292,54.567844 51.057911,55.702753 51,54.447088 51.097902,53.955806 50.604895,53.983649 50.28125,54 z m 2,0 C 51.221292,54.567844 53.057911,55.702753 53,54.447088 53.097902,53.955806 52.604895,53.983649 52.28125,54 z m -42,1 C 9.2212917,55.567844 11.057911,56.702753 11,55.447088 11.097902,54.955806 10.604895,54.983649 10.28125,55 z m 2,0 C 11.221292,55.567844 13.057911,56.702753 13,55.447088 13.097902,54.955806 12.604895,54.983649 12.28125,55 z m 2,0 C 13.221292,55.567844 15.057911,56.702753 15,55.447088 15.097902,54.955806 14.604895,54.983649 14.28125,55 z m 2,0 C 15.221292,55.567844 17.057911,56.702753 17,55.447088 17.097902,54.955806 16.604895,54.983649 16.28125,55 z m 2,0 C 17.221292,55.567844 19.057911,56.702753 19,55.447088 19.097902,54.955806 18.604895,54.983649 18.28125,55 z m 2,0 C 19.221292,55.567844 21.057911,56.702753 21,55.447088 21.097902,54.955806 20.604895,54.983649 20.28125,55 z m 2,0 C 21.221292,55.567844 23.057911,56.702753 23,55.447088 23.097902,54.955806 22.604895,54.983649 22.28125,55 z m 2,0 C 23.221292,55.567844 25.057911,56.702753 25,55.447088 25.097902,54.955806 24.604895,54.983649 24.28125,55 z m 2,0 C 25.221292,55.567844 27.057911,56.702753 27,55.447088 27.097902,54.955806 26.604895,54.983649 26.28125,55 z m 2,0 C 27.221292,55.567844 29.057911,56.702753 29,55.447088 29.097902,54.955806 28.604895,54.983649 28.28125,55 z m 2,0 C 29.221292,55.567844 31.057911,56.702753 31,55.447088 31.097902,54.955806 30.604895,54.983649 30.28125,55 z m 2,0 C 31.221292,55.567844 33.057911,56.702753 33,55.447088 33.097902,54.955806 32.604895,54.983649 32.28125,55 z m 2,0 C 33.221292,55.567844 35.057911,56.702753 35,55.447088 35.097902,54.955806 34.604895,54.983649 34.28125,55 z m 2,0 C 35.221292,55.567844 37.057911,56.702753 37,55.447088 37.097902,54.955806 36.604895,54.983649 36.28125,55 z m 13,0 C 48.221292,55.567844 50.057911,56.702753 50,55.447088 50.097902,54.955806 49.604895,54.983649 49.28125,55 z m 2,0 C 50.221292,55.567844 52.057911,56.702753 52,55.447088 52.097902,54.955806 51.604895,54.983649 51.28125,55 z m 2,0 C 52.221292,55.567844 54.057911,56.702753 54,55.447088 54.097902,54.955806 53.604895,54.983649 53.28125,55 z m -44,1 C 8.2212917,56.567844 10.057911,57.702753 10,56.447088 10.097902,55.955806 9.6048952,55.983649 9.28125,56 z m 2,0 C 10.221292,56.567844 12.057911,57.702753 12,56.447088 12.097902,55.955806 11.604895,55.983649 11.28125,56 z m 2,0 C 12.221292,56.567844 14.057911,57.702753 14,56.447088 14.097902,55.955806 13.604895,55.983649 13.28125,56 z m 2,0 C 14.221292,56.567844 16.057911,57.702753 16,56.447088 16.097902,55.955806 15.604895,55.983649 15.28125,56 z m 2,0 C 16.221292,56.567844 18.057911,57.702753 18,56.447088 18.097902,55.955806 17.604895,55.983649 17.28125,56 z m 2,0 C 18.221292,56.567844 20.057911,57.702753 20,56.447088 20.097902,55.955806 19.604895,55.983649 19.28125,56 z m 2,0 C 20.221292,56.567844 22.057911,57.702753 22,56.447088 22.097902,55.955806 21.604895,55.983649 21.28125,56 z m 2,0 C 22.221292,56.567844 24.057911,57.702753 24,56.447088 24.097902,55.955806 23.604895,55.983649 23.28125,56 z m 2,0 C 24.221292,56.567844 26.057911,57.702753 26,56.447088 26.097902,55.955806 25.604895,55.983649 25.28125,56 z m 2,0 C 26.221292,56.567844 28.057911,57.702753 28,56.447088 28.097902,55.955806 27.604895,55.983649 27.28125,56 z m 2,0 C 28.221292,56.567844 30.057911,57.702753 30,56.447088 30.097902,55.955806 29.604895,55.983649 29.28125,56 z m 2,0 C 30.221292,56.567844 32.057911,57.702753 32,56.447088 32.097902,55.955806 31.604895,55.983649 31.28125,56 z m 2,0 C 32.221292,56.567844 34.057911,57.702753 34,56.447088 34.097902,55.955806 33.604895,55.983649 33.28125,56 z m 2,0 C 34.221292,56.567844 36.057911,57.702753 36,56.447088 36.097902,55.955806 35.604895,55.983649 35.28125,56 z m 2,0 C 36.221292,56.567844 38.057911,57.702753 38,56.447088 38.097902,55.955806 37.604895,55.983649 37.28125,56 z m 11,0 C 47.221292,56.567844 49.057911,57.702753 49,56.447088 49.097902,55.955806 48.604895,55.983649 48.28125,56 z m 2,0 C 49.221292,56.567844 51.057911,57.702753 51,56.447088 51.097902,55.955806 50.604895,55.983649 50.28125,56 z m 2,0 C 51.221292,56.567844 53.057911,57.702753 53,56.447088 53.097902,55.955806 52.604895,55.983649 52.28125,56 z m -11,1 C 40.221292,57.567844 42.057911,58.702753 42,57.447088 42.097902,56.955806 41.604895,56.983649 41.28125,57 z m 2,0 C 42.221292,57.567844 44.057911,58.702753 44,57.447088 44.097902,56.955806 43.604895,56.983649 43.28125,57 z m 2,0 C 44.221292,57.567844 46.057911,58.702753 46,57.447088 46.097902,56.955806 45.604895,56.983649 45.28125,57 z"
     id="rect4584"
     style="opacity:0.5;fill:url(#linearGradient4427);fill-opacity:1;stroke:none;display:inline;enable-background:new" />
</svg>
