<?xml version="1.0" encoding="UTF-8" standalone="no"?>
<!-- Created with Inkscape (http://www.inkscape.org/) -->

<svg
   xmlns:dc="http://purl.org/dc/elements/1.1/"
   xmlns:cc="http://creativecommons.org/ns#"
   xmlns:rdf="http://www.w3.org/1999/02/22-rdf-syntax-ns#"
   xmlns:svg="http://www.w3.org/2000/svg"
   xmlns="http://www.w3.org/2000/svg"
   xmlns:xlink="http://www.w3.org/1999/xlink"
   xmlns:sodipodi="http://sodipodi.sourceforge.net/DTD/sodipodi-0.dtd"
   xmlns:inkscape="http://www.inkscape.org/namespaces/inkscape"
   width="32px"
   height="32px"
   id="svg2999"
   version="1.1"
   inkscape:version="0.47 r22583"
   sodipodi:docname="google-chrome.svg">
  <defs
     id="defs3001">
    <linearGradient
       inkscape:collect="always"
       xlink:href="#linearGradient6036-2"
       id="linearGradient2900"
       gradientUnits="userSpaceOnUse"
       gradientTransform="matrix(0.65564475,0,0,0.6521786,0.49898876,0.87806051)"
       x1="2.0010982"
       y1="31.956459"
       x2="16.137255"
       y2="23.877176" />
    <linearGradient
       id="linearGradient6036-2">
      <stop
         id="stop6038-8"
         style="stop-color:#ffffff;stop-opacity:1"
         offset="0" />
      <stop
         id="stop6040-8"
         style="stop-color:#ffffff;stop-opacity:0"
         offset="1" />
    </linearGradient>
    <linearGradient
       inkscape:collect="always"
       xlink:href="#linearGradient6036-9"
       id="linearGradient2904"
       gradientUnits="userSpaceOnUse"
       gradientTransform="matrix(0.65564475,0,0,0.6521786,0.49898876,0.87806051)"
       x1="45.247379"
       y1="43.234642"
       x2="27.521191"
       y2="25.797125" />
    <linearGradient
       id="linearGradient6036-9">
      <stop
         id="stop6038-0"
         style="stop-color:#ffffff;stop-opacity:1"
         offset="0" />
      <stop
         id="stop6040-0"
         style="stop-color:#ffffff;stop-opacity:0"
         offset="1" />
    </linearGradient>
    <linearGradient
       inkscape:collect="always"
       xlink:href="#linearGradient6036"
       id="linearGradient2896"
       gradientUnits="userSpaceOnUse"
       gradientTransform="matrix(0.65564475,0,0,0.6521786,0.49898876,0.87806051)"
       x1="24.845913"
       y1="1.4100605"
       x2="24.845913"
       y2="14.964204" />
    <linearGradient
       id="linearGradient6036">
      <stop
         id="stop6038"
         style="stop-color:#ffffff;stop-opacity:1"
         offset="0" />
      <stop
         id="stop6040"
         style="stop-color:#ffffff;stop-opacity:0"
         offset="1" />
    </linearGradient>
    <radialGradient
       inkscape:collect="always"
       xlink:href="#linearGradient6472-615-677-498"
       id="radialGradient2904"
       gradientUnits="userSpaceOnUse"
       cx="-36.64151"
       cy="18.893641"
       fx="-36.830879"
       fy="17.430994"
       r="8.5244083"
       gradientTransform="matrix(0.56450771,0,0,0.50152138,36.684416,4.0246955)" />
    <linearGradient
       id="linearGradient6472-615-677-498">
      <stop
         id="stop10677"
         style="stop-color:#f2f2f2;stop-opacity:1"
         offset="0" />
      <stop
         id="stop10679"
         style="stop-color:#c3effb;stop-opacity:1"
         offset="0.6365723" />
      <stop
         id="stop10681"
         style="stop-color:#79c3e9;stop-opacity:1"
         offset="0.74714273" />
      <stop
         id="stop10683"
         style="stop-color:#2b609c;stop-opacity:1"
         offset="1" />
    </linearGradient>
    <linearGradient
       inkscape:collect="always"
       xlink:href="#linearGradient6269-922-214-380"
       id="linearGradient2906"
       gradientUnits="userSpaceOnUse"
       x1="-36.64151"
       y1="27.437202"
       x2="-36.64151"
       y2="10.350079"
       gradientTransform="matrix(0.56450771,0,0,0.50152138,36.684416,4.0246955)" />
    <linearGradient
       id="linearGradient6269-922-214-380">
      <stop
         id="stop10687"
         style="stop-color:#3c679c;stop-opacity:1"
         offset="0" />
      <stop
         id="stop10689"
         style="stop-color:#41cbf4;stop-opacity:1"
         offset="1" />
    </linearGradient>
    <radialGradient
       inkscape:collect="always"
       xlink:href="#linearGradient6253"
       id="radialGradient2909"
       gradientUnits="userSpaceOnUse"
       gradientTransform="matrix(1.0575438,0,0,0.95138567,54.749999,-5.3107723)"
       cx="-36.64151"
       cy="20.297247"
       fx="-36.64151"
       fy="18.265121"
       r="9.4558735" />
    <linearGradient
       id="linearGradient6253">
      <stop
         id="stop6255"
         style="stop-color:#c9fbff;stop-opacity:1"
         offset="0" />
      <stop
         id="stop6261"
         style="stop-color:#c4effc;stop-opacity:1"
         offset="0.47623631" />
      <stop
         id="stop6257"
         style="stop-color:#bfe4f9;stop-opacity:0"
         offset="1" />
    </linearGradient>
    <radialGradient
       inkscape:collect="always"
       xlink:href="#linearGradient11168"
       id="radialGradient2912"
       gradientUnits="userSpaceOnUse"
       gradientTransform="matrix(-0.99988538,0.66135637,-0.59195641,-0.83393847,52.175077,-13.204211)"
       cx="37.016613"
       cy="-2.0442002"
       fx="37.016613"
       fy="-2.0442002"
       r="13.931416" />
    <linearGradient
       id="linearGradient11168">
      <stop
         id="stop11170"
         style="stop-color:#ffeb9f;stop-opacity:1"
         offset="0" />
      <stop
         id="stop11172"
         style="stop-color:#ffd57e;stop-opacity:1"
         offset="0.49615714" />
      <stop
         id="stop11174"
         style="stop-color:#ffbc43;stop-opacity:1"
         offset="0.78784454" />
      <stop
         id="stop11176"
         style="stop-color:#ff921a;stop-opacity:1"
         offset="1" />
    </linearGradient>
    <linearGradient
       inkscape:collect="always"
       xlink:href="#linearGradient3603-5"
       id="linearGradient2914"
       gradientUnits="userSpaceOnUse"
       gradientTransform="matrix(1.0851582,0,0,1.0507823,-59.29437,-41.950205)"
       x1="77.328773"
       y1="63.333622"
       x2="71.869888"
       y2="54.239006" />
    <linearGradient
       id="linearGradient3603-5">
      <stop
         id="stop3605-0"
         style="stop-color:#a7651c;stop-opacity:1"
         offset="0" />
      <stop
         id="stop3607-8"
         style="stop-color:#c8a700;stop-opacity:1"
         offset="1" />
    </linearGradient>
    <radialGradient
       inkscape:collect="always"
       xlink:href="#linearGradient11158"
       id="radialGradient2917"
       gradientUnits="userSpaceOnUse"
       gradientTransform="matrix(-0.28822192,0.39768028,-0.46404617,-0.31581477,50.106603,-3.1994878)"
       cx="68.186501"
       cy="33.752087"
       fx="68.186501"
       fy="33.752087"
       r="31.000002" />
    <linearGradient
       id="linearGradient11158">
      <stop
         id="stop11160"
         style="stop-color:#eef87e;stop-opacity:1"
         offset="0" />
      <stop
         id="stop11162"
         style="stop-color:#cde34f;stop-opacity:1"
         offset="0.34425223" />
      <stop
         id="stop11164"
         style="stop-color:#93b723;stop-opacity:1"
         offset="0.62884378" />
      <stop
         id="stop11166"
         style="stop-color:#5a7e0d;stop-opacity:1"
         offset="1" />
    </linearGradient>
    <linearGradient
       inkscape:collect="always"
       xlink:href="#linearGradient2490-3-3"
       id="linearGradient2919"
       gradientUnits="userSpaceOnUse"
       gradientTransform="matrix(0.18435217,0,0,0.17986128,-8.0264876,3.6899424)"
       x1="75.306084"
       y1="121.73647"
       x2="111.62707"
       y2="67.683258" />
    <linearGradient
       id="linearGradient2490-3-3">
      <stop
         id="stop2492-3-6"
         style="stop-color:#365f0e;stop-opacity:1"
         offset="0" />
      <stop
         id="stop2494-8-4"
         style="stop-color:#84a718;stop-opacity:1"
         offset="1" />
    </linearGradient>
    <radialGradient
       inkscape:collect="always"
       xlink:href="#linearGradient5745"
       id="radialGradient2922"
       gradientUnits="userSpaceOnUse"
       gradientTransform="matrix(-1.0526401e-8,-1.1108372,1.7525476,-1.6432181e-8,-5.3281434,25.148999)"
       cx="10.615433"
       cy="12.446355"
       fx="10.615433"
       fy="12.446355"
       r="11" />
    <linearGradient
       id="linearGradient5745">
      <stop
         id="stop5747"
         style="stop-color:#ffed8c;stop-opacity:1"
         offset="0" />
      <stop
         id="stop5749"
         style="stop-color:#ffb055;stop-opacity:1"
         offset="0.46796855" />
      <stop
         id="stop5751"
         style="stop-color:#e05e31;stop-opacity:1"
         offset="0.71233714" />
      <stop
         id="stop5753"
         style="stop-color:#bd1515;stop-opacity:1"
         offset="1" />
    </linearGradient>
    <linearGradient
       inkscape:collect="always"
       xlink:href="#linearGradient5755"
       id="linearGradient2924"
       gradientUnits="userSpaceOnUse"
       gradientTransform="matrix(0.65564475,0,0,0.6521786,0.49898876,0.87806004)"
       x1="7.7570491"
       y1="16.041151"
       x2="7.7570491"
       y2="0.33220091" />
    <linearGradient
       id="linearGradient5755">
      <stop
         id="stop5757"
         style="stop-color:#ce5c00;stop-opacity:1"
         offset="0" />
      <stop
         id="stop5759"
         style="stop-color:#971f31;stop-opacity:1"
         offset="1" />
    </linearGradient>
    <radialGradient
       inkscape:collect="always"
       xlink:href="#linearGradient5138-0"
       id="radialGradient2927"
       gradientUnits="userSpaceOnUse"
       cx="-37.7495"
       cy="19.401896"
       fx="-37.7495"
       fy="15.53852"
       r="18.733471"
       gradientTransform="matrix(0.76076996,0,0,0.72711221,44.809912,1.3423707)" />
    <linearGradient
       id="linearGradient5138-0">
      <stop
         id="stop5140-0"
         style="stop-color:#32455d;stop-opacity:1"
         offset="0" />
      <stop
         id="stop5142-9"
         style="stop-color:#19242b;stop-opacity:1"
         offset="1" />
    </linearGradient>
    <linearGradient
       inkscape:collect="always"
       xlink:href="#linearGradient5216"
       id="linearGradient2929"
       gradientUnits="userSpaceOnUse"
       x1="-50.51836"
       y1="0.6633271"
       x2="-50.51836"
       y2="38.160339"
       gradientTransform="matrix(0.76076996,0,0,0.72711221,44.809912,1.3423707)" />
    <linearGradient
       id="linearGradient5216">
      <stop
         id="stop5218"
         style="stop-color:#11191d;stop-opacity:1"
         offset="0" />
      <stop
         id="stop5220"
         style="stop-color:#000000;stop-opacity:1"
         offset="1" />
    </linearGradient>
    <linearGradient
       id="linearGradient8838">
      <stop
         id="stop8840"
         style="stop-color:#000000;stop-opacity:1"
         offset="0" />
      <stop
         id="stop8842"
         style="stop-color:#000000;stop-opacity:0"
         offset="1" />
    </linearGradient>
    <radialGradient
       r="10.625"
       fy="4.625"
       fx="62.625"
       cy="4.625"
       cx="62.625"
       gradientTransform="matrix(1.4117647,0,0,0.51764634,-72.411765,24.105883)"
       gradientUnits="userSpaceOnUse"
       id="radialGradient2997"
       xlink:href="#linearGradient8838"
       inkscape:collect="always" />
  </defs>
  <sodipodi:namedview
     id="base"
     pagecolor="#ffffff"
     bordercolor="#666666"
     borderopacity="1.0"
     inkscape:pageopacity="0.0"
     inkscape:pageshadow="2"
     inkscape:zoom="11.197802"
     inkscape:cx="16"
     inkscape:cy="16"
     inkscape:current-layer="layer1"
     showgrid="true"
     inkscape:grid-bbox="true"
     inkscape:document-units="px"
     inkscape:window-width="603"
     inkscape:window-height="478"
     inkscape:window-x="417"
     inkscape:window-y="165"
     inkscape:window-maximized="0" />
  <metadata
     id="metadata3004">
    <rdf:RDF>
      <cc:Work
         rdf:about="">
        <dc:format>image/svg+xml</dc:format>
        <dc:type
           rdf:resource="http://purl.org/dc/dcmitype/StillImage" />
        <dc:title></dc:title>
      </cc:Work>
    </rdf:RDF>
  </metadata>
  <g
     id="layer1"
     inkscape:label="Layer 1"
     inkscape:groupmode="layer">
    <path
       style="opacity:0.3;fill:url(#radialGradient2997);fill-opacity:1;fill-rule:evenodd;stroke:none;stroke-width:0.99999988;marker:none;visibility:visible;display:inline;overflow:visible"
       id="path8836"
       d="M 31,26.499999 C 31,29.537567 24.284271,32 16,32 7.7157311,32 1,29.537567 1,26.499999 1,23.462434 7.7157317,21 16,21 c 8.284269,0 15,2.462434 15,5.499999 l 0,0 z" />
    <path
       style="color:#000000;fill:url(#radialGradient2927);fill-opacity:1;fill-rule:evenodd;stroke:url(#linearGradient2929);stroke-width:0.99999988;stroke-linecap:round;stroke-linejoin:miter;stroke-miterlimit:4;stroke-opacity:0.84313725;stroke-dasharray:none;stroke-dashoffset:0;marker:none;visibility:visible;display:inline;overflow:visible;enable-background:accumulate"
       id="path3682-8"
       d="m 30.015439,15.449727 a 13.924212,13.30818 0 0 1 -27.8484233,0 13.924212,13.30818 0 1 1 27.8484233,0 z" />
    <path
       style="color:#000000;fill:url(#radialGradient2922);fill-opacity:1;fill-rule:nonzero;stroke:url(#linearGradient2924);stroke-width:0.99999988;stroke-linecap:round;stroke-linejoin:round;stroke-miterlimit:4;stroke-opacity:1;stroke-dasharray:none;stroke-dashoffset:0;marker:none;visibility:visible;display:inline;overflow:visible;enable-background:accumulate"
       id="path5146"
       d="M 14.998337,1.5078215 C 12.735619,1.6016399 7.6810859,2.4886327 3.4622907,7.9440711 l 3.845349,-2.0595996 c 0,0 0.2786352,2.8028353 3.2786663,4.5746875 l 0.708353,0.0396 c 1.128148,-1.2283352 2.856202,-2.0199919 4.796567,-2.0199919 2.199806,0 4.112976,1.0152236 5.20134,2.5348929 l 0.08095,0 c 0,0 2.428112,-1.2047842 5.990651,-0.831762 0,0 0.0565,-2.7440474 -2.381031,-6.1012402 0,0 -2.937852,-2.5332347 -8.733047,-2.5332347 0,0 -0.497518,-0.07088 -1.251756,-0.039603 z"
       sodipodi:nodetypes="cccccscccccc" />
    <path
       style="color:#000000;fill:url(#radialGradient2917);fill-opacity:1;fill-rule:nonzero;stroke:url(#linearGradient2919);stroke-width:0.98542744;stroke-linecap:round;stroke-linejoin:round;stroke-miterlimit:4;stroke-opacity:1;stroke-dasharray:none;stroke-dashoffset:0;marker:none;visibility:visible;display:inline;overflow:visible;enable-background:accumulate"
       id="path5767"
       d="m 6.3301003,8.4194418 c 0,0 -3.4457884,0.84432 -4.6892907,4.4755892 0,0 -2.4583419,13.130024 12.6673104,16.612108 0,0 -4.571838,-4.072329 -4.571838,-6.056661 0,0 4.088318,-0.838452 4.73585,-3.76273 l -0.505967,-0.77235 C 11.620513,18.154784 9.9386684,16.183676 9.9386684,13.86542 c 0,-0.309622 -0.149333,-1.077672 0.080953,-1.661788 C 9.9736994,12.180672 7.52694,10.951043 6.3301,8.4194418 z"
       sodipodi:nodetypes="ccccccscc" />
    <path
       style="color:#000000;fill:url(#radialGradient2912);fill-opacity:1;fill-rule:nonzero;stroke:url(#linearGradient2914);stroke-width:0.9922713;stroke-linecap:butt;stroke-linejoin:round;stroke-miterlimit:4;stroke-opacity:1;stroke-dasharray:none;stroke-dashoffset:0;marker:none;visibility:visible;display:inline;overflow:visible;enable-background:accumulate"
       id="path5934"
       d="m 28.917475,8.4763253 0,4.2214747 c 0,0 -0.855015,-1.426972 -7.073217,-0.41824 0.202356,0.53082 0.232973,0.720797 0.232973,1.310101 0,2.91862 -2.685087,5.296235 -6.039133,5.390802 l -0.431366,0.554934 c 0,0 -0.39346,2.806886 -4.375292,4.399847 0,0 1.848114,3.763596 6.1213,5.450261 0,0 6.20401,-0.106611 10.977089,-6.292204 0,0 4.47236,-5.996393 0.587646,-14.6169757 z" />
    <path
       style="opacity:0.8;color:#000000;fill:url(#radialGradient2909);fill-opacity:1;fill-rule:nonzero;stroke:none;stroke-width:1.02310777;marker:none;visibility:visible;display:inline;overflow:visible;enable-background:accumulate"
       id="path6114"
       d="m 25.999999,13.999739 a 10,8.9961832 0 1 1 -19.9999982,0 10,8.9961832 0 1 1 19.9999982,0 z" />
    <path
       style="color:#000000;fill:url(#radialGradient2904);fill-opacity:1;fill-rule:nonzero;stroke:url(#linearGradient2906);stroke-width:0.99227118;stroke-opacity:1;marker:none;visibility:visible;display:inline;overflow:visible;enable-background:accumulate"
       id="path6267"
       d="m 20.503863,13.500259 a 4.5038644,4.0013348 0 1 1 -9.007727,0 4.5038644,4.0013348 0 1 1 9.007727,0 z" />
    <path
       sodipodi:type="inkscape:offset"
       inkscape:radius="-0.32829267"
       inkscape:original="M 15.03125 2.125 C 13.376502 2.193602 10.108553 2.7491605 6.8125 5.4375 L 7 5.34375 C 7.3623099 5.1483082 7.8940578 5.4099061 7.9375 5.8125 C 7.9375 5.8125 8.173618 8.2431508 10.84375 9.875 L 11.125 9.875 C 12.372209 8.6656334 14.118329 7.875 16.09375 7.875 C 18.31722 7.875 20.258434 8.8252183 21.5 10.3125 C 21.975007 10.102418 23.823568 9.4153478 26.75 9.5625 C 26.493319 7.9194546 25.581577 6.0804237 24.53125 4.59375 C 24.419845 4.5159538 21.703541 2.15625 16.1875 2.15625 C 16.15384 2.15887 16.127403 2.15887 16.09375 2.15625 C 16.09375 2.15625 15.734902 2.095835 15.03125 2.125 z "
       style="opacity:0.4;color:#000000;fill:none;stroke:url(#linearGradient2896);stroke-width:0.99999988;stroke-linecap:round;stroke-linejoin:round;stroke-miterlimit:4;stroke-opacity:1;stroke-dasharray:none;stroke-dashoffset:0;marker:none;visibility:visible;display:inline;overflow:visible;enable-background:accumulate"
       id="path2893"
       d="m 15.03125,2.4375 c -1.463634,0.060679 -4.246658,0.6222159 -7.1875,2.71875 0.2132528,0.1413532 0.3753962,0.3390671 0.40625,0.625 0,0 0.2148245,2.1918231 2.6875,3.75 l 0.09375,0 c 1.297214,-1.2048524 3.058856,-2 5.0625,-2 2.233071,0 4.19148,0.9396576 5.5,2.40625 0.608805,-0.2501251 2.213474,-0.7429254 4.75,-0.6875 -0.311574,-1.4623442 -1.123114,-3.0999905 -2.0625,-4.4375 -0.0074,-0.0058 -0.02245,-0.024384 -0.03125,-0.03125 -0.02262,-0.017656 -0.0611,-0.037951 -0.09375,-0.0625 -0.09069,-0.068191 -0.203593,-0.1383779 -0.375,-0.25 C 23.438437,4.2455058 22.92275,3.9480494 22.25,3.65625 20.904501,3.0726513 18.898707,2.5 16.1875,2.5 l 0,-0.03125 c -0.03855,0.00175 -0.08747,0.00292 -0.125,0 a 0.3283255,0.3283255 0 0 1 -0.03125,0 c 0,0 -0.319705,-0.059447 -1,-0.03125 z" />
    <path
       sodipodi:type="inkscape:offset"
       inkscape:radius="-0.37811142"
       inkscape:original="M 25.59375 12.5625 C 24.842154 12.569 23.752395 12.682907 22.59375 12.84375 C 22.63489 13.071795 22.71875 13.296492 22.71875 13.59375 C 22.71875 16.779177 19.888249 19.262812 16.40625 19.53125 L 16.1875 19.8125 C 16.13835 20.048035 16.010471 20.649567 15.46875 21.46875 C 14.895386 22.335784 13.782487 23.320995 12.15625 24.125 C 12.525766 24.796393 14.037262 27.334387 17.5 28.75 C 17.949288 28.73525 23.389312 28.450906 27.8125 22.71875 C 27.8125 22.71875 30.639743 18.856905 29.5625 12.84375 A 0.64984586 0.63588355 0 0 1 28.34375 13 C 28.240809 12.93197 27.996473 12.850482 27.5625 12.75 C 27.128528 12.649517 26.507728 12.554627 25.59375 12.5625 z "
       style="opacity:0.4;color:#000000;fill:none;stroke:url(#linearGradient2904);stroke-width:0.99999988;stroke-linecap:round;stroke-linejoin:round;stroke-miterlimit:4;stroke-opacity:1;stroke-dasharray:none;stroke-dashoffset:0;marker:none;visibility:visible;display:inline;overflow:visible;enable-background:accumulate"
       id="path2902"
       d="m 29.15625,12.84375 c 0.0114,-0.01672 -0.01204,0.04751 0,0.03125 0.01266,-0.01578 -0.04451,0.01527 -0.03125,0 0.01384,-0.01474 -0.01441,0.04545 0,0.03125 0.01494,-0.01363 -0.04671,0.01304 -0.03125,0 0.01595,-0.01243 -0.01641,0.04306 0,0.03125 0.01685,-0.01117 -0.04852,0.01051 -0.03125,0 0.01802,-0.0092 -0.0496,0.0085 -0.03125,0 0.01835,-0.0085 -0.01866,0.039 0,0.03125 0.01894,-0.007 -0.05045,0.0063 -0.03125,0 0.01962,-0.0048 -0.05104,0.0041 -0.03125,0 0.02004,-0.0026 -0.05137,0.0018 -0.03125,0 0.0202,-2.78e-4 -0.05145,-4.88e-4 -0.03125,0 0.0201,0.002 -0.05126,-0.0028 -0.03125,0 0.01974,0.0043 -0.05082,-0.005 -0.03125,0 0.01913,0.0065 -0.05012,-0.0072 -0.03125,0 0.01887,0.0072 -0.01858,-0.0392 0,-0.03125 0.01826,0.0087 -0.04917,-0.0093 -0.03125,0 0.01673,0.01134 -0.04754,-0.04323 -0.03125,-0.03125 0.0148,0.01379 -0.0455,-0.01435 -0.03125,0 A 0.37814923,0.37814923 0 0 1 28.125,13.3125 c 0.01079,0.0071 -0.235658,-0.09012 -0.65625,-0.1875 -0.407734,-0.09441 -0.988664,-0.195135 -1.875,-0.1875 -0.62519,0.0054 -1.577607,0.122123 -2.5625,0.25 0.02864,0.135436 0.0625,0.222064 0.0625,0.40625 0,3.349912 -2.910045,5.92529 -6.46875,6.28125 L 16.53125,20 16.5,20.03125 c -0.06858,0.298873 -0.212442,0.890618 -0.71875,1.65625 -0.57093,0.863353 -1.644662,1.778373 -3.09375,2.5625 0.518773,0.869866 1.936855,2.888015 4.90625,4.125 0.582558,-0.02474 5.662672,-0.375606 9.90625,-5.875 0,0 2.739538,-3.721289 1.6875,-9.59375 a 0.37814923,0.37814923 0 0 1 0,-0.0625 c -0.0034,0.0067 -0.03593,0.009 -0.03125,0 z" />
    <path
       sodipodi:type="inkscape:offset"
       inkscape:radius="-0.37576771"
       inkscape:original="M 6.0625 9.40625 C 5.570731 9.558844 2.9733482 10.46645 2.25 13.09375 C 2.226289 13.241575 1.7725051 16.16114 2.90625 19.59375 C 3.9275365 22.685872 6.2443097 26.354675 12.21875 28.34375 C 10.994302 27.338382 10.539165 26.762883 9.78125 25.5 C 9.4056653 24.808243 9.125 24.118639 9.125 23.4375 C 9.12092 23.162667 9.3500895 22.900198 9.625 22.84375 C 9.625 22.84375 10.54339 22.687644 11.5625 22.15625 C 12.530188 21.651668 13.455619 20.838916 13.78125 19.71875 L 13.5625 19.40625 C 11.112506 18.524542 9.34375 16.401756 9.34375 13.875 C 9.34375 13.672811 9.353687 13.453308 9.375 13.25 C 8.8616994 12.974436 7.2676607 11.497099 6.0625 9.40625 z "
       style="opacity:0.4;color:#000000;fill:none;stroke:url(#linearGradient2900);stroke-width:0.99999988;stroke-linecap:round;stroke-linejoin:round;stroke-miterlimit:4;stroke-opacity:1;stroke-dasharray:none;stroke-dashoffset:0;marker:none;visibility:visible;display:inline;overflow:visible;enable-background:accumulate"
       id="path2898"
       d="m 5.9375,9.875 c -0.7198216,0.258828 -2.6993155,1.11317 -3.3125,3.28125 -1.602e-4,9.99e-4 2.139e-4,0.0299 0,0.03125 -0.026373,0.16659 -0.4705939,2.964149 0.625,6.28125 0.8866654,2.684533 2.7756009,5.785062 7.3125,7.8125 C 10.172204,26.82469 9.8603344,26.339981 9.46875,25.6875 a 0.37580528,0.37580528 0 0 1 -0.03125,0 C 9.0494039,24.972699 8.75,24.221863 8.75,23.4375 c -0.00723,-0.487204 0.3530852,-0.874417 0.8125,-0.96875 0,0 0.848703,-0.153698 1.8125,-0.65625 0.856662,-0.44669 1.641494,-1.128165 1.96875,-2.03125 l -0.0625,-0.125 C 10.794341,18.691486 8.96875,16.515675 8.96875,13.875 8.96875,13.721646 8.9885963,13.565973 9,13.40625 8.6543215,13.181856 8.2348951,12.843644 7.6875,12.25 7.1177848,11.63215 6.51247,10.81738 5.9375,9.875 z" />
  </g>
</svg>
