<?xml version="1.0" encoding="UTF-8" standalone="no"?>
<!-- Created with Inkscape (http://www.inkscape.org/) -->

<svg
   xmlns:dc="http://purl.org/dc/elements/1.1/"
   xmlns:cc="http://creativecommons.org/ns#"
   xmlns:rdf="http://www.w3.org/1999/02/22-rdf-syntax-ns#"
   xmlns:svg="http://www.w3.org/2000/svg"
   xmlns="http://www.w3.org/2000/svg"
   xmlns:xlink="http://www.w3.org/1999/xlink"
   xmlns:sodipodi="http://sodipodi.sourceforge.net/DTD/sodipodi-0.dtd"
   xmlns:inkscape="http://www.inkscape.org/namespaces/inkscape"
   width="128"
   height="128"
   id="svg4072"
   version="1.1"
   inkscape:version="0.48.0 r9654"
   sodipodi:docname="dialog-warning.svg">
  <defs
     id="defs4074">
    <linearGradient
       gradientTransform="translate(0,-3.999222e-6)"
       inkscape:collect="always"
       xlink:href="#linearGradient4010"
       id="linearGradient4016"
       x1="65.295471"
       y1="23.605911"
       x2="65.295471"
       y2="37.024502"
       gradientUnits="userSpaceOnUse" />
    <linearGradient
       inkscape:collect="always"
       id="linearGradient4010">
      <stop
         style="stop-color:#000000;stop-opacity:1;"
         offset="0"
         id="stop4012" />
      <stop
         style="stop-color:#000000;stop-opacity:0;"
         offset="1"
         id="stop4014" />
    </linearGradient>
    <linearGradient
       gradientTransform="translate(0,-3.999222e-6)"
       inkscape:collect="always"
       xlink:href="#linearGradient4002"
       id="linearGradient4008"
       x1="66.13871"
       y1="-35.547394"
       x2="66.13871"
       y2="14.909261"
       gradientUnits="userSpaceOnUse" />
    <linearGradient
       inkscape:collect="always"
       id="linearGradient4002">
      <stop
         style="stop-color:#000000;stop-opacity:1;"
         offset="0"
         id="stop4004" />
      <stop
         style="stop-color:#000000;stop-opacity:0;"
         offset="1"
         id="stop4006" />
    </linearGradient>
    <linearGradient
       gradientTransform="translate(0,-3.999222e-6)"
       inkscape:collect="always"
       xlink:href="#linearGradient2490"
       id="linearGradient3975"
       x1="63.807621"
       y1="35.507259"
       x2="63.807621"
       y2="-50.318203"
       gradientUnits="userSpaceOnUse" />
    <linearGradient
       id="linearGradient2490">
      <stop
         id="stop2492"
         style="stop-color:#791235;stop-opacity:1"
         offset="0" />
      <stop
         id="stop2494"
         style="stop-color:#dd3b27;stop-opacity:1"
         offset="1" />
    </linearGradient>
    <linearGradient
       y2="44.340794"
       x2="71.204407"
       y1="6.2375584"
       x1="71.204407"
       gradientTransform="matrix(2.7567564,0,0,2.7567564,-133.25186,-67.415491)"
       gradientUnits="userSpaceOnUse"
       id="linearGradient3318"
       xlink:href="#linearGradient4011"
       inkscape:collect="always" />
    <linearGradient
       id="linearGradient4011">
      <stop
         offset="0"
         style="stop-color:#ffffff;stop-opacity:1;"
         id="stop4013" />
      <stop
         id="stop4015"
         style="stop-color:#ffffff;stop-opacity:0.23529412;"
         offset="0.507761" />
      <stop
         offset="0.83456558"
         style="stop-color:#ffffff;stop-opacity:0.15686275;"
         id="stop4017" />
      <stop
         offset="1"
         style="stop-color:#ffffff;stop-opacity:0.39215687;"
         id="stop4019" />
    </linearGradient>
    <radialGradient
       cx="23.895569"
       cy="3.9900031"
       r="20.397499"
       fx="23.895569"
       fy="3.9900031"
       id="radialGradient2410"
       xlink:href="#linearGradient3242"
       gradientUnits="userSpaceOnUse"
       gradientTransform="matrix(0,6.102135,-8.0552513,0,96.659483,-199.26846)" />
    <linearGradient
       id="linearGradient3242">
      <stop
         id="stop3244"
         style="stop-color:#f8b17e;stop-opacity:1"
         offset="0" />
      <stop
         id="stop3246"
         style="stop-color:#e35d4f;stop-opacity:1"
         offset="0.26238" />
      <stop
         id="stop3248"
         style="stop-color:#c6262e;stop-opacity:1"
         offset="0.66093999" />
      <stop
         id="stop3250"
         style="stop-color:#690b54;stop-opacity:1"
         offset="1" />
    </linearGradient>
    <linearGradient
       x1="18.379412"
       y1="44.980297"
       x2="18.379412"
       y2="3.0816143"
       id="linearGradient2412"
       xlink:href="#linearGradient2490"
       gradientUnits="userSpaceOnUse"
       gradientTransform="matrix(2.5569423,0,0,2.5567709,3.1523875,-58.876362)" />
    <linearGradient
       id="linearGradient8838">
      <stop
         id="stop8840"
         style="stop-color:#000000;stop-opacity:1"
         offset="0" />
      <stop
         id="stop8842"
         style="stop-color:#000000;stop-opacity:0"
         offset="1" />
    </linearGradient>
    <radialGradient
       r="10.625"
       fy="4.625"
       fx="62.625"
       cy="4.625"
       cx="62.625"
       gradientTransform="matrix(5.7750605,0,0,2.0085789,-297.14415,30.222902)"
       gradientUnits="userSpaceOnUse"
       id="radialGradient4070"
       xlink:href="#linearGradient8838"
       inkscape:collect="always" />
  </defs>
  <sodipodi:namedview
     id="base"
     pagecolor="#ffffff"
     bordercolor="#666666"
     borderopacity="1.0"
     inkscape:pageopacity="0.0"
     inkscape:pageshadow="2"
     inkscape:zoom="5.5"
     inkscape:cx="32"
     inkscape:cy="32"
     inkscape:current-layer="layer1"
     showgrid="true"
     inkscape:document-units="px"
     inkscape:grid-bbox="true"
     inkscape:window-width="1280"
     inkscape:window-height="753"
     inkscape:window-x="0"
     inkscape:window-y="24"
     inkscape:window-maximized="1" />
  <metadata
     id="metadata4077">
    <rdf:RDF>
      <cc:Work
         rdf:about="">
        <dc:format>image/svg+xml</dc:format>
        <dc:type
           rdf:resource="http://purl.org/dc/dcmitype/StillImage" />
        <dc:title></dc:title>
      </cc:Work>
    </rdf:RDF>
  </metadata>
  <g
     id="layer1"
     inkscape:label="Layer 1"
     inkscape:groupmode="layer"
     transform="translate(0,64)">
    <path
       inkscape:connector-curvature="0"
       d="m 125.87901,39.512596 c 0,11.786404 -27.471807,21.341184 -61.36001,21.341184 -33.888198,0 -61.3600168,-9.55478 -61.3600168,-21.341184 0,-11.786422 27.4718188,-21.341187 61.3600168,-21.341187 33.888203,0 61.36001,9.554765 61.36001,21.341187 l 0,0 z"
       id="path8836"
       style="opacity:0.5;fill:url(#radialGradient4070);fill-opacity:1;fill-rule:evenodd;stroke:none;stroke-width:1;marker:none;visibility:visible;display:inline;overflow:visible" />
    <path
       inkscape:connector-curvature="0"
       d="m 64.519014,-49.528174 c -28.701626,0 -52.017803,23.314603 -52.017803,52.014306 0,28.699691 23.316177,52.014288 52.017803,52.014288 28.701614,0 52.017826,-23.314597 52.017796,-52.014288 0,-28.699703 -23.316182,-52.014306 -52.017796,-52.014306 z"
       id="path2555"
       style="fill:url(#radialGradient2410);fill-opacity:1;stroke:url(#linearGradient2412);stroke-width:0.99915248;stroke-linecap:round;stroke-linejoin:round;stroke-miterlimit:4;stroke-opacity:1;stroke-dasharray:none;stroke-dashoffset:0" />
    <path
       inkscape:connector-curvature="0"
       style="opacity:0.5;color:#000000;fill:none;stroke:url(#linearGradient3318);stroke-width:1;stroke-linecap:round;stroke-linejoin:round;stroke-miterlimit:4;stroke-opacity:1;stroke-dasharray:none;stroke-dashoffset:0;marker:none;visibility:visible;display:inline;overflow:visible;enable-background:accumulate"
       id="path8655-6"
       d="M 115.5,2.486438 C 115.5,30.653867 92.664845,53.48825 64.50065,53.48825 36.33387,53.48825 13.5,30.653609 13.5,2.486438 c 0,-28.166127 22.83387,-50.998188 51.00065,-50.998188 28.164195,0 50.99935,22.832061 50.99935,50.998188 l 0,0 z" />
    <path
       inkscape:connector-curvature="0"
       style="font-size:62.4582634px;font-style:normal;font-variant:normal;font-weight:normal;font-stretch:normal;text-align:start;line-height:125%;writing-mode:lr-tb;text-anchor:start;fill:url(#linearGradient3975);fill-opacity:1;stroke:none;font-family:Georgia"
       id="text2315-2"
       d="m 58.463066,-30.290849 c 1.549074,14.654468 3.32346,29.20808 4.64212,43.919947 1.326318,0 2.881935,0 4.208253,0 1.093791,-14.12806 2.858013,-28.170749 4.130665,-42.281294 0.648736,-3.341179 -1.122583,-7.3082 -4.765659,-8.119958 -3.599913,-1.019317 -7.621906,1.504836 -8.100588,5.110387 -0.07938,0.452618 -0.114794,0.911987 -0.114794,1.370918 l -3e-6,0 z M 58.003955,29.29009 c -0.163799,4.362075 4.792165,7.78151 9.023605,6.398564 4.09845,-1.013007 6.257168,-6.001846 4.156703,-9.548047 -1.880277,-3.665777 -7.394084,-4.873584 -10.565921,-2.068012 -1.603304,1.275687 -2.666,3.180113 -2.614384,5.217497 l -3e-6,-2e-6 z" />
    <path
       inkscape:connector-curvature="0"
       style="font-size:62.4582634px;font-style:normal;font-variant:normal;font-weight:normal;font-stretch:normal;text-align:start;line-height:125%;writing-mode:lr-tb;text-anchor:start;fill:#ffffff;fill-opacity:1;stroke:none;font-family:Georgia"
       id="text2315"
       d="m 58.463066,-29.290849 c 1.549074,14.654468 3.32346,29.20808 4.64212,43.919947 1.326318,0 2.881935,0 4.208253,0 1.093791,-14.12806 2.858013,-28.170749 4.130665,-42.281294 0.648736,-3.341179 -1.122583,-7.3082 -4.765659,-8.119958 -3.599913,-1.019317 -7.621906,1.504836 -8.100588,5.110387 -0.07938,0.452618 -0.114794,0.911987 -0.114794,1.370918 l -3e-6,0 z M 58.003955,30.29009 c -0.163799,4.362075 4.792165,7.78151 9.023605,6.398564 4.09845,-1.013007 6.257168,-6.001846 4.156703,-9.548047 -1.880277,-3.665777 -7.394084,-4.873584 -10.565921,-2.068012 -1.603304,1.275687 -2.666,3.180113 -2.614384,5.217497 l -3e-6,-2e-6 z" />
    <path
       style="font-size:62.4582634px;font-style:normal;font-variant:normal;font-weight:normal;font-stretch:normal;text-align:start;line-height:125%;writing-mode:lr-tb;text-anchor:start;opacity:0.1;fill:none;stroke:url(#linearGradient4008);stroke-opacity:1;font-family:Georgia"
       d="m 65.3125,-35.500004 c -3.212472,-0.156569 -6.428375,2.517303 -6.33799,5.840609 0.704455,7.697534 1.665601,15.379957 2.467331,23.071787 0.747156,6.898937 1.46547,13.801308 2.089409,20.712604 1.104167,0 2.208333,0 3.3125,0 1.122139,-14.481117 2.992698,-28.899886 4.212787,-43.366473 -0.0082,-2.809885 -1.928777,-5.674933 -4.80336,-6.146953 -0.309511,-0.06486 -0.624898,-0.09906 -0.940677,-0.111574 z"
       id="path3999"
       inkscape:connector-curvature="0" />
    <path
       style="font-size:62.4582634px;font-style:normal;font-variant:normal;font-weight:normal;font-stretch:normal;text-align:start;line-height:125%;writing-mode:lr-tb;text-anchor:start;opacity:0.1;fill:none;stroke:url(#linearGradient4016);stroke-width:0.93306506;stroke-opacity:1;font-family:Georgia"
       d="m 58.470224,30.274613 c -0.152882,4.068846 4.472779,7.258419 8.422204,5.968438 3.825298,-0.94491 5.840143,-5.598388 3.879668,-8.906206 -1.754961,-3.419356 -6.901286,-4.54597 -9.861727,-1.928995 -1.496448,1.189933 -2.488317,2.966338 -2.440142,4.866765 l -3e-6,-2e-6 z"
       id="text2315-26"
       inkscape:connector-curvature="0" />
  </g>
</svg>
