<?xml version="1.0" encoding="UTF-8" standalone="no"?>
<!-- Created with Inkscape (http://www.inkscape.org/) -->

<svg
   xmlns:svg="http://www.w3.org/2000/svg"
   xmlns="http://www.w3.org/2000/svg"
   xmlns:xlink="http://www.w3.org/1999/xlink"
   version="1.0"
   width="48"
   height="48"
   id="svg40231">
  <defs
     id="defs40233">
    <linearGradient
       id="linearGradient5048">
      <stop
         id="stop5050"
         style="stop-color:black;stop-opacity:0"
         offset="0" />
      <stop
         id="stop5056"
         style="stop-color:black;stop-opacity:1"
         offset="0.5" />
      <stop
         id="stop5052"
         style="stop-color:black;stop-opacity:0"
         offset="1" />
    </linearGradient>
    <linearGradient
       x1="302.85715"
       y1="366.64789"
       x2="302.85715"
       y2="609.50507"
       id="linearGradient3333"
       xlink:href="#linearGradient5048"
       gradientUnits="userSpaceOnUse"
       gradientTransform="matrix(0.06732488,0,0,0.01470022,-0.3411391,37.040146)" />
    <radialGradient
       cx="605.71429"
       cy="486.64789"
       r="117.14286"
       fx="605.71429"
       fy="486.64789"
       id="radialGradient3330"
       xlink:href="#linearGradient5060"
       gradientUnits="userSpaceOnUse"
       gradientTransform="matrix(-0.02303994,0,0,0.01470022,21.62311,37.040176)" />
    <linearGradient
       id="linearGradient5060">
      <stop
         id="stop5062"
         style="stop-color:black;stop-opacity:1"
         offset="0" />
      <stop
         id="stop5064"
         style="stop-color:black;stop-opacity:0"
         offset="1" />
    </linearGradient>
    <radialGradient
       cx="605.71429"
       cy="486.64789"
       r="117.14286"
       fx="605.71429"
       fy="486.64789"
       id="radialGradient3327"
       xlink:href="#linearGradient5060"
       gradientUnits="userSpaceOnUse"
       gradientTransform="matrix(0.02303995,0,0,0.01470022,26.360882,37.040176)" />
    <linearGradient
       id="linearGradient3104">
      <stop
         id="stop3106"
         style="stop-color:#aaa;stop-opacity:1"
         offset="0" />
      <stop
         id="stop3108"
         style="stop-color:#c8c8c8;stop-opacity:1"
         offset="1" />
    </linearGradient>
    <linearGradient
       x1="-51.786404"
       y1="50.786446"
       x2="-51.786404"
       y2="2.9062471"
       id="linearGradient3324"
       xlink:href="#linearGradient3104"
       gradientUnits="userSpaceOnUse"
       gradientTransform="matrix(0.8074968,0,0,0.8948322,59.410232,-2.9805533)" />
    <linearGradient
       id="linearGradient3600">
      <stop
         id="stop3602"
         style="stop-color:#f4f4f4;stop-opacity:1"
         offset="0" />
      <stop
         id="stop3604"
         style="stop-color:#dbdbdb;stop-opacity:1"
         offset="1" />
    </linearGradient>
    <linearGradient
       x1="25.132275"
       y1="0.98520643"
       x2="25.132275"
       y2="47.013336"
       id="linearGradient3322"
       xlink:href="#linearGradient3600"
       gradientUnits="userSpaceOnUse"
       gradientTransform="matrix(1,0,0,0.9561695,-1.0064697e-7,-1.914922)" />
    <radialGradient
       cx="102"
       cy="112.3047"
       r="139.55859"
       id="XMLID_8_"
       gradientUnits="userSpaceOnUse">
      <stop
         id="stop41"
         style="stop-color:#b7b8b9;stop-opacity:1"
         offset="0" />
      <stop
         id="stop47"
         style="stop-color:#ececec;stop-opacity:1"
         offset="0.18851049" />
      <stop
         id="stop49"
         style="stop-color:#fafafa;stop-opacity:0"
         offset="0.25718147" />
      <stop
         id="stop51"
         style="stop-color:white;stop-opacity:0"
         offset="0.30111277" />
      <stop
         id="stop53"
         style="stop-color:#fafafa;stop-opacity:0"
         offset="0.53130001" />
      <stop
         id="stop55"
         style="stop-color:#ebecec;stop-opacity:0"
         offset="0.84490001" />
      <stop
         id="stop57"
         style="stop-color:#e1e2e3;stop-opacity:0"
         offset="1" />
    </radialGradient>
    <radialGradient
       cx="102"
       cy="112.3047"
       r="139.55859"
       id="radialGradient3319"
       xlink:href="#XMLID_8_"
       gradientUnits="userSpaceOnUse"
       gradientTransform="matrix(0.3617022,0,0,-0.3907784,0.8510637,47.517004)" />
    <linearGradient
       id="linearGradient3211">
      <stop
         id="stop3213"
         style="stop-color:white;stop-opacity:1"
         offset="0" />
      <stop
         id="stop3215"
         style="stop-color:white;stop-opacity:0"
         offset="1" />
    </linearGradient>
    <linearGradient
       x1="24"
       y1="1.9999999"
       x2="24"
       y2="46.01725"
       id="linearGradient3316"
       xlink:href="#linearGradient3211"
       gradientUnits="userSpaceOnUse"
       gradientTransform="matrix(1,0,0,0.9777778,0,-0.9666693)" />
    <filter
       x="-0.14846256"
       y="-0.16434373"
       width="1.2969251"
       height="1.3286875"
       color-interpolation-filters="sRGB"
       id="filter3212">
      <feGaussianBlur
         id="feGaussianBlur3214"
         stdDeviation="0.77391625" />
    </filter>
    <linearGradient
       id="linearGradient8589">
      <stop
         id="stop8591"
         style="stop-color:#fefefe;stop-opacity:1"
         offset="0" />
      <stop
         id="stop8593"
         style="stop-color:#cbcbcb;stop-opacity:1"
         offset="1" />
    </linearGradient>
    <linearGradient
       x1="32.892288"
       y1="8.0590115"
       x2="36.358372"
       y2="5.4565363"
       id="linearGradient3312"
       xlink:href="#linearGradient8589"
       gradientUnits="userSpaceOnUse"
       gradientTransform="matrix(0.9976985,0,0,1.0406866,0.1638029,-1.1057939)" />
    <linearGradient
       x1="22.104254"
       y1="40.124432"
       x2="22.104254"
       y2="10.035408"
       id="linearGradient6119"
       xlink:href="#linearGradient5031"
       gradientUnits="userSpaceOnUse"
       gradientTransform="matrix(0.6655579,0,0,1.4407893,4.5202523,-11.848874)" />
    <linearGradient
       x1="22.104254"
       y1="40.124432"
       x2="22.104254"
       y2="10.035408"
       id="linearGradient6103"
       xlink:href="#linearGradient5031"
       gradientUnits="userSpaceOnUse"
       gradientTransform="matrix(1.0095594,0,0,1.4407893,-0.5469235,-6.082512)" />
    <linearGradient
       x1="22.104254"
       y1="40.124432"
       x2="22.104254"
       y2="10.035408"
       id="linearGradient6100"
       xlink:href="#linearGradient5031"
       gradientUnits="userSpaceOnUse"
       gradientTransform="matrix(1.0095594,0,0,1.4407893,-0.5469235,-6.082512)" />
    <linearGradient
       x1="22.104254"
       y1="40.124432"
       x2="22.104254"
       y2="10.035408"
       id="linearGradient6090"
       xlink:href="#linearGradient5031"
       gradientUnits="userSpaceOnUse"
       gradientTransform="matrix(1.0228284,0,0,1.4407893,-0.6986897,-6.5277383)" />
    <linearGradient
       x1="22.104254"
       y1="40.124432"
       x2="22.104254"
       y2="10.035408"
       id="linearGradient5988"
       xlink:href="#linearGradient5031"
       gradientUnits="userSpaceOnUse"
       gradientTransform="matrix(0.3342091,0,0,1.4207463,9.6790122,-1.2379516)" />
    <linearGradient
       x1="22.104254"
       y1="40.124432"
       x2="22.104254"
       y2="10.035408"
       id="linearGradient5984"
       xlink:href="#linearGradient5031"
       gradientUnits="userSpaceOnUse"
       gradientTransform="matrix(0.4876325,0,0,1.4406684,7.777273,0.4082395)" />
    <linearGradient
       x1="22.104254"
       y1="40.124432"
       x2="22.104254"
       y2="10.035408"
       id="linearGradient5980"
       xlink:href="#linearGradient5031"
       gradientUnits="userSpaceOnUse"
       gradientTransform="matrix(0.369496,0,0,1.4205132,9.0116197,2.7802623)" />
    <linearGradient
       x1="22.104254"
       y1="40.124432"
       x2="22.104254"
       y2="10.035408"
       id="linearGradient6073"
       xlink:href="#linearGradient5031"
       gradientUnits="userSpaceOnUse"
       gradientTransform="matrix(0.3814643,0,0,1.4009103,8.4789307,5.2584119)" />
    <linearGradient
       x1="22.104254"
       y1="40.124432"
       x2="22.104254"
       y2="10.035408"
       id="linearGradient6143"
       xlink:href="#linearGradient5031"
       gradientUnits="userSpaceOnUse"
       gradientTransform="matrix(0.4063605,0,0,1.4407893,8.3143938,-5.5939915)" />
    <linearGradient
       id="linearGradient5031">
      <stop
         id="stop5033"
         style="stop-color:#a3a3a3;stop-opacity:1"
         offset="0" />
      <stop
         id="stop5035"
         style="stop-color:#bababa;stop-opacity:1"
         offset="1" />
    </linearGradient>
    <linearGradient
       x1="22.104254"
       y1="40.124432"
       x2="22.104254"
       y2="10.035408"
       id="linearGradient6065"
       xlink:href="#linearGradient5031"
       gradientUnits="userSpaceOnUse"
       gradientTransform="matrix(1.7828362,0,0,1.4407913,-37.938893,-28.441342)" />
  </defs>
  <g
     id="layer1">
    <rect
       width="32.508301"
       height="3.5700529"
       x="7.7378473"
       y="42.429947"
       id="rect2879"
       style="opacity:0.3;fill:url(#linearGradient3333);fill-opacity:1;fill-rule:nonzero;stroke:none;stroke-width:1;marker:none;visibility:visible;display:inline;overflow:visible" />
    <path
       d="m 7.7378475,42.430102 c 0,0 0,3.569856 0,3.569856 -1.1865002,0.0067 -2.8683795,-0.799823 -2.8683795,-1.785158 0,-0.985333 1.3240446,-1.784697 2.8683795,-1.784698 z"
       id="path2881"
       style="opacity:0.3;fill:url(#radialGradient3330);fill-opacity:1;fill-rule:nonzero;stroke:none;stroke-width:1;marker:none;visibility:visible;display:inline;overflow:visible" />
    <path
       d="m 40.246148,42.430102 c 0,0 0,3.569856 0,3.569856 1.1865,0.0067 2.86838,-0.799823 2.86838,-1.785158 0,-0.985333 -1.324045,-1.784697 -2.86838,-1.784698 z"
       id="path2883"
       style="opacity:0.3;fill:url(#radialGradient3327);fill-opacity:1;fill-rule:nonzero;stroke:none;stroke-width:1;marker:none;visibility:visible;display:inline;overflow:visible" />
    <path
       d="m 6.4999609,0.49719878 c 8.0202951,0 16.0405901,0 24.0608861,0 1.406933,0.4746531 8.965454,5.88220462 10.939195,9.62640622 0,11.459733 0,22.919465 0,34.379198 -11.666694,0 -23.333387,0 -35.0000811,0 0,-14.668535 0,-29.33707 0,-44.00560422 z"
       id="path4160"
       style="fill:url(#linearGradient3322);fill-opacity:1;stroke:url(#linearGradient3324);stroke-width:0.99992186;stroke-linecap:butt;stroke-linejoin:round;stroke-miterlimit:4;stroke-opacity:1;stroke-dasharray:none;stroke-dashoffset:0;display:inline" />
    <path
       d="m 7.3617017,44 c -0.199297,0 -0.361702,-0.175459 -0.361702,-0.39078 l 0,-42.2040499 c 0,-0.2157088 0.162405,-0.3907775 0.361702,-0.3907775 C 14.844793,1.1224073 23.137385,0.85281757 30.611384,1.0412872 L 40.894021,9.9073127 41,43.60922 C 41,43.824541 40.837957,44 40.638297,44 L 7.3617017,44 z"
       id="path4191"
       style="fill:url(#radialGradient3319);fill-opacity:1" />
    <path
       d="m 40.500039,10.258811 c 0,10.949037 0,22.31441 0,33.263447 -11.000026,0 -22.000052,0 -33.0000781,0 0,-14.014841 0,-28.029681 0,-42.0445213 7.5619931,0 15.3043341,0 22.8663281,0"
       id="path2435"
       style="opacity:0.6;fill:none;stroke:url(#linearGradient3316);stroke-width:0.9999218;stroke-linecap:butt;stroke-linejoin:round;stroke-miterlimit:4;stroke-opacity:1;stroke-dasharray:none;stroke-dashoffset:0;display:inline" />
    <path
       d="m 28.617256,0.92125832 c 4.282522,0 2.15325,8.48317128 2.15325,8.48317128 0,0 10.357642,-1.8023467 10.357642,2.8187444 0,-2.6097233 -11.302304,-10.7285956 -12.510892,-11.30191568 z"
       id="path12038"
       style="opacity:0.4;fill:black;fill-opacity:1;fill-rule:evenodd;stroke:none;display:inline;filter:url(#filter3212)" />
    <path
       d="m 28.617256,0.92125832 c 3.186493,0 2.33576,7.66187848 2.33576,7.66187848 0,0 10.175132,-0.9810539 10.175132,3.6400372 0,-1.125939 0.08591,-1.932245 -0.133777,-2.2835928 C 39.416058,7.4154025 32.598855,1.7511811 30.137071,1.008793 29.952849,0.95323837 29.544367,0.92125832 28.617256,0.92125832 z"
       id="path4474"
       style="fill:url(#linearGradient3312);fill-opacity:1;fill-rule:evenodd;stroke:none;display:inline" />
    <path
       d="m 11,6 2.369787,0 0,1 L 11,7 11,6 z"
       id="path4149"
       style="fill:#89adc2;fill-opacity:1;stroke:none;display:inline" />
    <path
       d="m 13.692593,6 2.235993,0 0,1 -2.235993,0 0,-1 z"
       id="path4147"
       style="fill:#89adc2;fill-opacity:1;stroke:none;display:inline" />
    <path
       d="m 16.251394,6 1.968407,0 0,1 -1.968407,0 0,-1 z"
       id="path4145"
       style="fill:#89adc2;fill-opacity:1;stroke:none;display:inline" />
    <path
       d="m 18.54261,6 0.864609,0 0,1 -0.864609,0 0,-1 z"
       id="path4143"
       style="fill:#89adc2;fill-opacity:1;stroke:none;display:inline" />
    <path
       d="m 19.730027,6 1.934957,0 0,1 -1.934957,0 0,-1 z"
       id="path4141"
       style="fill:#89adc2;fill-opacity:1;stroke:none;display:inline" />
    <path
       d="M 21.987791,6 27,6 l 0,1 -5.012209,0 0,-1 z"
       id="path4139"
       style="fill:#89adc2;fill-opacity:1;stroke:none;display:inline" />
    <path
       d="m 11,12 2.29764,0 0,1 L 11,13 11,12 z"
       id="path4131"
       style="fill:#89adc2;fill-opacity:1;stroke:none;display:inline" />
    <path
       d="m 13.610621,12 2.167919,0 0,1 -2.167919,0 0,-1 z"
       id="path4129"
       style="fill:#89adc2;fill-opacity:1;stroke:none;display:inline" />
    <path
       d="M 16.09152,12 18,12 l 0,1 -1.90848,0 0,-1 z"
       id="path4127"
       style="fill:#89adc2;fill-opacity:1;stroke:none;display:inline" />
    <path
       d="m 11,8 3.794449,0 0,1 L 11,9 11,8 z"
       id="path4113"
       style="fill:#89adc2;fill-opacity:1;stroke:none;display:inline" />
    <path
       d="m 15.140767,8 1.825534,0 0,1 -1.825534,0 0,-1 z"
       id="path4111"
       style="fill:#89adc2;fill-opacity:1;stroke:none;display:inline" />
    <path
       d="m 17.312621,8 0.858347,0 0,1 -0.858347,0 0,-1 z"
       id="path4109"
       style="fill:#89adc2;fill-opacity:1;stroke:none;display:inline" />
    <path
       d="m 18.517286,8 1.652821,0 0,1 -1.652821,0 0,-1 z"
       id="path4107"
       style="fill:#89adc2;fill-opacity:1;stroke:none;display:inline" />
    <path
       d="m 20.516425,8 1.652821,0 0,1 -1.652821,0 0,-1 z"
       id="path4105"
       style="fill:#89adc2;fill-opacity:1;stroke:none;display:inline" />
    <path
       d="m 22.515565,8 2.654549,0 0,1 -2.654549,0 0,-1 z"
       id="path4103"
       style="fill:#89adc2;fill-opacity:1;stroke:none;display:inline" />
    <path
       d="M 25.516433,8 29,8 l 0,1 -3.483567,0 0,-1 z"
       id="path4101"
       style="fill:#89adc2;fill-opacity:1;stroke:none;display:inline" />
    <path
       d="m 11,10 4.186235,0 0,1 L 11,11 11,10 z"
       id="path4095"
       style="fill:#89adc2;fill-opacity:1;stroke:none;display:inline" />
    <path
       d="M 15.514391,10 20,10 l 0,1 -4.485609,0 0,-1 z"
       id="path4093"
       style="fill:#89adc2;fill-opacity:1;stroke:none;display:inline" />
    <path
       d="m 11,15 3.066842,0 0,1 L 11,16 11,15 z"
       id="path4063"
       style="fill:#b78ed4;fill-opacity:1;stroke:none;display:inline" />
    <path
       d="M 14.392634,15 20,15 l 0,1 -5.607366,0 0,-1 z"
       id="path4061"
       style="fill:#d48eb3;fill-opacity:1;stroke:none;display:inline" />
    <path
       d="m 11,17 3.085091,0 0,1 L 11,18 11,17 z"
       id="path4049"
       style="fill:#b78ed4;fill-opacity:1;stroke:none;display:inline" />
    <path
       d="m 14.4348,17 5.100985,0 0,1 -5.100985,0 0,-1 z"
       id="path4045"
       style="fill:#d48eb3;fill-opacity:1;stroke:none;display:inline" />
    <path
       d="m 19.898933,17 1.904204,0 0,1 -1.904204,0 0,-1 z"
       id="path4043"
       style="fill:#89adc2;fill-opacity:1;stroke:none;display:inline" />
    <path
       d="m 22.123666,17 1.904205,0 0,1 -1.904205,0 0,-1 z"
       id="path4041"
       style="fill:#89adc2;fill-opacity:1;stroke:none;display:inline" />
    <path
       d="m 24.348401,17 2.756592,0 0,1 -2.756592,0 0,-1 z"
       id="path4039"
       style="fill:#89adc2;fill-opacity:1;stroke:none;display:inline" />
    <path
       d="M 27.425522,17 28,17 l 0,1 -0.574478,0 0,-1 z"
       id="path4037"
       style="fill:#89adc2;fill-opacity:1;stroke:none;display:inline" />
    <path
       d="m 11,37 3.036746,0 0,1 L 11,38 11,37 z"
       id="path4009"
       style="fill:#de6161;fill-opacity:1;stroke:none;display:inline" />
    <path
       d="m 14.359341,37 3.342263,0 0,1 -3.342263,0 0,-1 z"
       id="path4007"
       style="fill:url(#linearGradient6119);fill-opacity:1;stroke:none;display:inline" />
    <path
       d="m 19.927009,37 2.435074,0 0,1 -2.435074,0 0,-1 z"
       id="path4005"
       style="fill:#89adc2;fill-opacity:1;stroke:none;display:inline" />
    <path
       d="m 25.275213,37 1.933679,0 0,1 -1.933679,0 0,-1 z"
       id="path4003"
       style="fill:#89adc2;fill-opacity:1;stroke:none;display:inline" />
    <path
       d="m 27.531486,37 3.103598,0 0,1 -3.103598,0 0,-1 z"
       id="path4001"
       style="fill:#89adc2;fill-opacity:1;stroke:none;display:inline" />
    <path
       d="M 30.957678,37 36,37 l 0,1 -5.042322,0 0,-1 z"
       id="path3999"
       style="fill:#89adc2;fill-opacity:1;stroke:none;display:inline" />
    <path
       d="m 22.684678,37 2.26794,0 0,1 -2.26794,0 0,-1 z"
       id="path3997"
       style="fill:#89adc2;fill-opacity:1;stroke:none;display:inline" />
    <path
       d="m 11,35 3.691821,0 0,1 L 11,36 11,35 z"
       id="path4231"
       style="fill:url(#linearGradient6103);fill-opacity:1;stroke:none;display:inline" />
    <path
       d="m 14.965756,35 1.776158,0 0,1 -1.776158,0 0,-1 z"
       id="path4229"
       style="fill:url(#linearGradient6100);fill-opacity:1;stroke:none;display:inline" />
    <path
       d="m 17.116677,35 0.835129,0 0,1 -0.835129,0 0,-1 z"
       id="path4227"
       style="fill:#d48eb3;fill-opacity:1;stroke:none;display:inline" />
    <path
       d="m 18.158528,35 1.608117,0 0,1 -1.608117,0 0,-1 z"
       id="path4225"
       style="fill:#d48eb3;fill-opacity:1;stroke:none;display:inline" />
    <path
       d="m 20.040582,35 1.608117,0 0,1 -1.608117,0 0,-1 z"
       id="path4223"
       style="fill:#d48eb3;fill-opacity:1;stroke:none;display:inline" />
    <path
       d="m 22.157894,35 2.582753,0 0,1 -2.582753,0 0,-1 z"
       id="path4221"
       style="fill:#d48eb3;fill-opacity:1;stroke:none;display:inline" />
    <path
       d="m 25.048192,35 3.389347,0 0,1 -3.389347,0 0,-1 z"
       id="path4219"
       style="fill:#d48eb3;fill-opacity:1;stroke:none;display:inline" />
    <path
       d="m 28.913125,35 2.28028,0 0,1 -2.28028,0 0,-1 z"
       id="path4217"
       style="fill:#d48eb3;fill-opacity:1;stroke:none;display:inline" />
    <path
       d="M 31.467342,35 32,35 l 0,1 -0.532658,0 0,-1 z"
       id="path4215"
       style="fill:#d48eb3;fill-opacity:1;stroke:none;display:inline" />
    <path
       d="m 11,33 4.285141,0 0,1 L 11,34 11,33 z"
       id="path4197"
       style="fill:url(#linearGradient6090);fill-opacity:1;stroke:none;display:inline" />
    <path
       d="m 15.62105,33 4.591589,0 0,1 -4.591589,0 0,-1 z"
       id="path4195"
       style="fill:#d48eb3;fill-opacity:1;stroke:none;display:inline" />
    <path
       d="m 20.548549,33 1.833551,0 0,1 -1.833551,0 0,-1 z"
       id="path4193"
       style="fill:#d48eb3;fill-opacity:1;stroke:none;display:inline" />
    <path
       d="m 22.718011,33 4.319191,0 0,1 -4.319191,0 0,-1 z"
       id="path40200"
       style="fill:#d48eb3;fill-opacity:1;stroke:none;display:inline" />
    <path
       d="m 30.666218,33 1.152556,0 0,1 -1.152556,0 0,-1 z"
       id="path4189"
       style="fill:#d48eb3;fill-opacity:1;stroke:none;display:inline" />
    <path
       d="m 27.373111,33 2.957196,0 0,1 -2.957196,0 0,-1 z"
       id="path4187"
       style="fill:#d48eb3;fill-opacity:1;stroke:none;display:inline" />
    <path
       d="m 32.154681,33 0.675858,0 0,1 -0.675858,0 0,-1 z"
       id="path4185"
       style="fill:#d48eb3;fill-opacity:1;stroke:none;display:inline" />
    <path
       d="M 33.166448,33 35,33 l 0,1 -1.833552,0 0,-1 z"
       id="path4183"
       style="fill:#d48eb3;fill-opacity:1;stroke:none;display:inline" />
    <path
       d="m 19.999794,26 1.866925,0 0,0.999916 -1.866925,0 0,-0.999916 z"
       id="path4241"
       style="fill:#89adc2;fill-opacity:1;stroke:none;display:inline" />
    <path
       d="m 22.178177,26 4.835982,0 0,0.999916 -4.835982,0 0,-0.999916 z"
       id="path4239"
       style="fill:#89adc2;fill-opacity:1;stroke:none;display:inline" />
    <path
       d="m 27.325618,26 3.674176,0 0,0.999916 -3.674176,0 0,-0.999916 z"
       id="path4237"
       style="fill:#89adc2;fill-opacity:1;stroke:none;display:inline" />
    <path
       d="m 20,28 2.444613,0 0,0.985927 -2.444613,0 L 20,28 z"
       id="path4209"
       style="fill:#89adc2;fill-opacity:1;stroke:none;display:inline" />
    <path
       d="m 22.777067,28 4.274761,0 0,0.985927 -4.274761,0 0,-0.985927 z"
       id="path4207"
       style="fill:#89adc2;fill-opacity:1;stroke:none;display:inline" />
    <path
       d="m 27.384282,28 2.926777,0 0,0.985927 -2.926777,0 0,-0.985927 z"
       id="path4203"
       style="fill:#89adc2;fill-opacity:1;stroke:none;display:inline" />
    <path
       d="m 20,24 2.340812,0 0,1 L 20,25 20,24 z"
       id="path4177"
       style="fill:#89adc2;fill-opacity:1;stroke:none;display:inline" />
    <path
       d="M 25.141173,24 27,24 l 0,1 -1.858827,0 0,-1 z"
       id="path4175"
       style="fill:#89adc2;fill-opacity:1;stroke:none;display:inline" />
    <path
       d="m 22.650919,24 2.180148,0 0,1 -2.180148,0 0,-1 z"
       id="path4169"
       style="fill:#89adc2;fill-opacity:1;stroke:none;display:inline" />
    <path
       d="m 20,30.116321 1.88209,0 0,0.972321 -1.88209,0 0,-0.972321 z"
       id="path4161"
       style="fill:#89adc2;fill-opacity:1;stroke:none;display:inline" />
    <path
       d="m 22.198897,30.116321 1.882091,0 0,0.972321 -1.882091,0 0,-0.972321 z"
       id="path4159"
       style="fill:#89adc2;fill-opacity:1;stroke:none;display:inline" />
    <path
       d="m 24.397795,30.116321 2.72458,0 0,0.972321 -2.72458,0 0,-0.972321 z"
       id="path4157"
       style="fill:#89adc2;fill-opacity:1;stroke:none;display:inline" />
    <path
       d="m 27.439181,30.116321 0.567807,0 0,0.972321 -0.567807,0 0,-0.972321 z"
       id="path4155"
       style="fill:#89adc2;fill-opacity:1;stroke:none;display:inline" />
    <path
       d="m 28.323796,30.116321 3.533369,0 0,0.972321 -3.533369,0 0,-0.972321 z"
       id="path4153"
       style="fill:#89adc2;fill-opacity:1;stroke:none;display:inline" />
    <path
       d="m 11,24 2.759665,0 0,0.986089 -2.759665,0 L 11,24 z"
       id="path5302"
       style="fill:#94d48e;fill-opacity:1;stroke:none;display:inline" />
    <path
       d="M 14.143674,24 16,24 l 0,0.986089 -1.856326,0 0,-0.986089 z"
       id="path5304"
       style="fill:url(#linearGradient5988);fill-opacity:1;stroke:none;display:inline" />
    <path
       d="m 11,26.000084 2.941725,0 0,0.999916 L 11,27 11,26.000084 z"
       id="path5310"
       style="fill:#94d48e;fill-opacity:1;stroke:none;display:inline" />
    <path
       d="m 14.2915,26.000084 2.7085,0 L 17,27 l -2.7085,0 0,-0.999916 z"
       id="path5312"
       style="fill:url(#linearGradient5984);fill-opacity:1;stroke:none;display:inline" />
    <path
       d="m 11,28.014073 2.535,0 L 13.535,29 11,29 11,28.014073 z"
       id="path5318"
       style="fill:#94d48e;fill-opacity:1;stroke:none;display:inline" />
    <path
       d="M 13.947676,28.014073 16,28.014073 16,29 l -2.052324,0 0,-0.985927 z"
       id="path5320"
       style="fill:url(#linearGradient5980);fill-opacity:1;stroke:none;display:inline" />
    <path
       d="m 11,30.144001 2.214387,0 0,0.97232 -2.214387,0 0,-0.97232 z"
       id="path5326"
       style="fill:#94d48e;fill-opacity:1;stroke:none;display:inline" />
    <path
       d="m 13.57487,30.144001 2.118799,0 0,0.97232 -2.118799,0 0,-0.97232 z"
       id="path5328"
       style="fill:url(#linearGradient6073);fill-opacity:1;stroke:none;display:inline" />
    <path
       d="m 11,20 2.358908,0 0,1 L 11,21 11,20 z"
       id="path4031"
       style="fill:#94d48e;fill-opacity:1;stroke:none;display:inline" />
    <path
       d="M 13.742918,20 16,20 l 0,1 -2.257082,0 0,-1 z"
       id="path4029"
       style="fill:url(#linearGradient6143);fill-opacity:1;stroke:none;display:inline" />
    <path
       d="m 11,22 1,0 0,1 -1,0 0,-1 z"
       id="path5685"
       style="fill:url(#linearGradient6065);fill-opacity:1;stroke:none;display:inline" />
  </g>
</svg>
