<?xml version="1.0" encoding="UTF-8" standalone="no"?>
<!-- Created with Inkscape (http://www.inkscape.org/) -->

<svg
   xmlns:dc="http://purl.org/dc/elements/1.1/"
   xmlns:cc="http://creativecommons.org/ns#"
   xmlns:rdf="http://www.w3.org/1999/02/22-rdf-syntax-ns#"
   xmlns:svg="http://www.w3.org/2000/svg"
   xmlns="http://www.w3.org/2000/svg"
   xmlns:xlink="http://www.w3.org/1999/xlink"
   xmlns:sodipodi="http://sodipodi.sourceforge.net/DTD/sodipodi-0.dtd"
   xmlns:inkscape="http://www.inkscape.org/namespaces/inkscape"
   width="64px"
   height="64px"
   id="svg4105"
   version="1.1"
   inkscape:version="0.47 r22583"
   sodipodi:docname="teamviewer.svg">
  <defs
     id="defs4107">
    <linearGradient
       inkscape:collect="always"
       xlink:href="#linearGradient2238"
       id="linearGradient3005"
       gradientUnits="userSpaceOnUse"
       x1="32.817135"
       y1="19.818853"
       x2="32.817135"
       y2="30.184839"
       gradientTransform="matrix(1.4102565,0,0,1.4102565,-1.8461542,-3.2104959)" />
    <linearGradient
       id="linearGradient2238">
      <stop
         id="stop2240"
         style="stop-color:#ffffff;stop-opacity:1"
         offset="0" />
      <stop
         id="stop2242"
         style="stop-color:#ffffff;stop-opacity:0"
         offset="1" />
    </linearGradient>
    <linearGradient
       inkscape:collect="always"
       xlink:href="#linearGradient8265-821-176-38-919-66-249"
       id="linearGradient3008"
       gradientUnits="userSpaceOnUse"
       gradientTransform="matrix(1.3641888,0,0,1.4470334,3.5931803,-3.6369811)"
       x1="16.626165"
       y1="15.298182"
       x2="20.054544"
       y2="24.627615" />
    <linearGradient
       id="linearGradient8265-821-176-38-919-66-249">
      <stop
         id="stop2687"
         style="stop-color:#ffffff;stop-opacity:1"
         offset="0" />
      <stop
         id="stop2689"
         style="stop-color:#ffffff;stop-opacity:0"
         offset="1" />
    </linearGradient>
    <linearGradient
       inkscape:collect="always"
       xlink:href="#linearGradient2867-449-88-871-390-598-476-591-434-148"
       id="linearGradient3011"
       gradientUnits="userSpaceOnUse"
       x1="23"
       y1="20"
       x2="23"
       y2="41"
       gradientTransform="matrix(1.4102565,0,0,1.4102565,-1.8461542,-3.2104959)" />
    <linearGradient
       id="linearGradient2867-449-88-871-390-598-476-591-434-148">
      <stop
         id="stop4627"
         style="stop-color:#51cfee;stop-opacity:1"
         offset="0" />
      <stop
         id="stop4629"
         style="stop-color:#49a3d2;stop-opacity:1"
         offset="0.26238" />
      <stop
         id="stop4631"
         style="stop-color:#3470b4;stop-opacity:1"
         offset="0.704952" />
      <stop
         id="stop4633"
         style="stop-color:#1b5699;stop-opacity:1"
         offset="1" />
    </linearGradient>
    <linearGradient
       inkscape:collect="always"
       xlink:href="#linearGradient3332-412-419-652-471-761-410-156-661-505"
       id="linearGradient3013"
       gradientUnits="userSpaceOnUse"
       x1="35"
       y1="32.035667"
       x2="35"
       y2="18"
       gradientTransform="matrix(1.4102565,0,0,1.4102565,-1.8461542,-3.2104959)" />
    <linearGradient
       id="linearGradient3332-412-419-652-471-761-410-156-661-505">
      <stop
         id="stop8032"
         style="stop-color:#205286;stop-opacity:1;"
         offset="0" />
      <stop
         id="stop8034"
         style="stop-color:#5492be;stop-opacity:1;"
         offset="1" />
    </linearGradient>
    <linearGradient
       inkscape:collect="always"
       xlink:href="#linearGradient3996-4"
       id="linearGradient3017"
       gradientUnits="userSpaceOnUse"
       gradientTransform="matrix(1.4848485,0,0,1.4848485,-3.6363633,-3.6363534)"
       x1="34.541679"
       y1="40.999996"
       x2="34.541679"
       y2="6.8446164" />
    <linearGradient
       id="linearGradient3996-4">
      <stop
         id="stop3998-0"
         style="stop-color:#ffffff;stop-opacity:1"
         offset="0" />
      <stop
         id="stop4000-8"
         style="stop-color:#ffffff;stop-opacity:0"
         offset="1" />
    </linearGradient>
    <radialGradient
       inkscape:collect="always"
       xlink:href="#linearGradient3301"
       id="radialGradient3021"
       gradientUnits="userSpaceOnUse"
       gradientTransform="matrix(1.3636364,0,0,1.3636364,-0.7272726,-0.7272744)"
       cx="24"
       cy="24"
       fx="24"
       fy="24"
       r="17" />
    <linearGradient
       id="linearGradient3301">
      <stop
         id="stop3303"
         style="stop-color:#ffffff;stop-opacity:0"
         offset="0" />
      <stop
         id="stop3309"
         style="stop-color:#ffffff;stop-opacity:0"
         offset="0.69999999" />
      <stop
         id="stop3305"
         style="stop-color:#000000;stop-opacity:1"
         offset="1" />
    </linearGradient>
    <linearGradient
       inkscape:collect="always"
       xlink:href="#linearGradient3708"
       id="linearGradient3023"
       gradientUnits="userSpaceOnUse"
       gradientTransform="matrix(1.3636364,0,0,-1.3636364,-0.7272713,64.727273)"
       x1="29.050154"
       y1="7.0280032"
       x2="29.050154"
       y2="26.493914" />
    <linearGradient
       id="linearGradient3708">
      <stop
         id="stop3710"
         style="stop-color:#000000;stop-opacity:1"
         offset="0" />
      <stop
         id="stop3712"
         style="stop-color:#000000;stop-opacity:1"
         offset="1" />
    </linearGradient>
    <radialGradient
       inkscape:collect="always"
       xlink:href="#linearGradient3268-1"
       id="radialGradient3026"
       gradientUnits="userSpaceOnUse"
       gradientTransform="matrix(2.3685182e-8,2.38103,-3.5708067,3.552043e-8,79.645077,-24.39901)"
       cx="27.411848"
       cy="12.080106"
       fx="27.411848"
       fy="12.080106"
       r="18.000002" />
    <linearGradient
       id="linearGradient3268-1">
      <stop
         id="stop3270-7"
         style="stop-color:#ffffff;stop-opacity:1"
         offset="0" />
      <stop
         id="stop3272-0"
         style="stop-color:#d8d8d8;stop-opacity:1"
         offset="1" />
    </linearGradient>
    <linearGradient
       inkscape:collect="always"
       xlink:href="#linearGradient3332-412-419-652-471-761-410-156-661-505"
       id="linearGradient3028"
       gradientUnits="userSpaceOnUse"
       gradientTransform="matrix(1.4242424,0,0,1.4242424,-2.1818178,-2.1818097)"
       x1="29.050154"
       y1="5.1083965"
       x2="29.050154"
       y2="43.198719" />
    <linearGradient
       inkscape:collect="always"
       xlink:href="#linearGradient3373"
       id="linearGradient3103"
       gradientUnits="userSpaceOnUse"
       x1="32"
       y1="15"
       x2="32"
       y2="49" />
    <linearGradient
       id="linearGradient3373">
      <stop
         id="stop3375"
         style="stop-color:#696969;stop-opacity:1"
         offset="0" />
      <stop
         id="stop3377"
         style="stop-color:#737373;stop-opacity:1"
         offset="1" />
    </linearGradient>
    <linearGradient
       inkscape:collect="always"
       xlink:href="#linearGradient3308-4-6-931-761"
       id="linearGradient3107"
       gradientUnits="userSpaceOnUse"
       gradientTransform="matrix(1.4324331,0,0,1.432432,-2.3783784,-2.3783623)"
       x1="23.99999"
       y1="4.999989"
       x2="23.99999"
       y2="43" />
    <linearGradient
       id="linearGradient3308-4-6-931-761">
      <stop
         id="stop2919"
         style="stop-color:#ffffff;stop-opacity:1"
         offset="0" />
      <stop
         id="stop2921"
         style="stop-color:#ffffff;stop-opacity:0"
         offset="1" />
    </linearGradient>
    <radialGradient
       inkscape:collect="always"
       xlink:href="#linearGradient2867-449-88-871-390-598-476-591-434-148-9"
       id="radialGradient3034-3"
       gradientUnits="userSpaceOnUse"
       gradientTransform="matrix(0,3.24326,-4.3410587,-1.3685269e-7,68.681092,-18.988928)"
       cx="7.4956832"
       cy="8.4497671"
       fx="7.4956832"
       fy="8.4497671"
       r="19.99999" />
    <linearGradient
       id="linearGradient2867-449-88-871-390-598-476-591-434-148-9">
      <stop
         id="stop4627-2"
         style="stop-color:#51cfee;stop-opacity:1"
         offset="0" />
      <stop
         id="stop4629-8"
         style="stop-color:#49a3d2;stop-opacity:1"
         offset="0.26238" />
      <stop
         id="stop4631-3"
         style="stop-color:#3470b4;stop-opacity:1"
         offset="0.704952" />
      <stop
         id="stop4633-0"
         style="stop-color:#1b5699;stop-opacity:1"
         offset="1" />
    </linearGradient>
    <linearGradient
       inkscape:collect="always"
       xlink:href="#linearGradient3332-412-419-652-471-761-410-156-661-505-7"
       id="linearGradient3036-1"
       gradientUnits="userSpaceOnUse"
       gradientTransform="matrix(1.4102565,0,0,1.4102565,-1.8461542,-1.8461602)"
       x1="24"
       y1="44"
       x2="24"
       y2="3.8990016" />
    <linearGradient
       id="linearGradient3332-412-419-652-471-761-410-156-661-505-7">
      <stop
         id="stop8032-8"
         style="stop-color:#205286;stop-opacity:1;"
         offset="0" />
      <stop
         id="stop8034-9"
         style="stop-color:#5492be;stop-opacity:1;"
         offset="1" />
    </linearGradient>
    <radialGradient
       cx="4.9929786"
       cy="43.5"
       r="2.5"
       fx="4.9929786"
       fy="43.5"
       id="radialGradient2873-966-168"
       xlink:href="#linearGradient3688-166-749"
       gradientUnits="userSpaceOnUse"
       gradientTransform="matrix(2.003784,0,0,1.4,27.98813,-17.4)" />
    <linearGradient
       id="linearGradient3688-166-749">
      <stop
         id="stop2883"
         style="stop-color:#181818;stop-opacity:1"
         offset="0" />
      <stop
         id="stop2885"
         style="stop-color:#181818;stop-opacity:0"
         offset="1" />
    </linearGradient>
    <radialGradient
       cx="4.9929786"
       cy="43.5"
       r="2.5"
       fx="4.9929786"
       fy="43.5"
       id="radialGradient2875-742-326"
       xlink:href="#linearGradient3688-464-309"
       gradientUnits="userSpaceOnUse"
       gradientTransform="matrix(2.003784,0,0,1.4,-20.01187,-104.4)" />
    <linearGradient
       id="linearGradient3688-464-309">
      <stop
         id="stop2889"
         style="stop-color:#181818;stop-opacity:1"
         offset="0" />
      <stop
         id="stop2891"
         style="stop-color:#181818;stop-opacity:0"
         offset="1" />
    </linearGradient>
    <linearGradient
       x1="25.058096"
       y1="47.027729"
       x2="25.058096"
       y2="39.999443"
       id="linearGradient2877-634-617"
       xlink:href="#linearGradient3702-501-757"
       gradientUnits="userSpaceOnUse" />
    <linearGradient
       id="linearGradient3702-501-757">
      <stop
         id="stop2895"
         style="stop-color:#181818;stop-opacity:0"
         offset="0" />
      <stop
         id="stop2897"
         style="stop-color:#181818;stop-opacity:1"
         offset="0.5" />
      <stop
         id="stop2899"
         style="stop-color:#181818;stop-opacity:0"
         offset="1" />
    </linearGradient>
  </defs>
  <sodipodi:namedview
     id="base"
     pagecolor="#ffffff"
     bordercolor="#666666"
     borderopacity="1.0"
     inkscape:pageopacity="0.0"
     inkscape:pageshadow="2"
     inkscape:zoom="5.5"
     inkscape:cx="32"
     inkscape:cy="32"
     inkscape:current-layer="layer1"
     showgrid="true"
     inkscape:document-units="px"
     inkscape:grid-bbox="true"
     inkscape:window-width="603"
     inkscape:window-height="478"
     inkscape:window-x="417"
     inkscape:window-y="165"
     inkscape:window-maximized="0" />
  <metadata
     id="metadata4110">
    <rdf:RDF>
      <cc:Work
         rdf:about="">
        <dc:format>image/svg+xml</dc:format>
        <dc:type
           rdf:resource="http://purl.org/dc/dcmitype/StillImage" />
        <dc:title></dc:title>
      </cc:Work>
    </rdf:RDF>
  </metadata>
  <g
     id="layer1"
     inkscape:label="Layer 1"
     inkscape:groupmode="layer">
    <g
       style="display:inline"
       id="g2036"
       transform="matrix(1.5000021,0,0,0.5555561,-4.0000114,35.888881)">
      <g
         style="opacity:0.4"
         id="g3712"
         transform="matrix(1.052632,0,0,1.285713,-1.263158,-13.42854)">
        <rect
           style="fill:url(#radialGradient2873-966-168);fill-opacity:1;stroke:none"
           id="rect2801"
           y="40"
           x="38"
           height="7"
           width="5" />
        <rect
           style="fill:url(#radialGradient2875-742-326);fill-opacity:1;stroke:none"
           id="rect3696"
           transform="scale(-1,-1)"
           y="-47"
           x="-10"
           height="7"
           width="5" />
        <rect
           style="fill:url(#linearGradient2877-634-617);fill-opacity:1;stroke:none"
           id="rect3700"
           y="40"
           x="10"
           height="7.0000005"
           width="28" />
      </g>
    </g>
    <rect
       style="color:#000000;fill:url(#radialGradient3034-3);fill-opacity:1;fill-rule:nonzero;stroke:url(#linearGradient3036-1);stroke-width:1;stroke-linecap:round;stroke-linejoin:round;stroke-miterlimit:4;stroke-opacity:1;stroke-dasharray:none;stroke-dashoffset:0;marker:none;visibility:visible;display:inline;overflow:visible;enable-background:accumulate"
       id="rect5505"
       y="4.5"
       x="4.5"
       ry="3"
       rx="3"
       height="55"
       width="55" />
    <rect
       style="opacity:0.4;fill:none;stroke:url(#linearGradient3107);stroke-width:0.99999964;stroke-linecap:round;stroke-linejoin:round;stroke-miterlimit:4;stroke-opacity:1;stroke-dasharray:none;stroke-dashoffset:0"
       id="rect6741"
       y="5.4999995"
       x="5.5"
       ry="2"
       rx="2"
       height="53.000004"
       width="53" />
    <path
       style="opacity:0.4;fill:#ffffff;fill-opacity:1;fill-rule:nonzero;stroke:none;stroke-width:1.70000005;marker:none;visibility:visible;display:inline;overflow:visible;enable-background:accumulate"
       id="path3381"
       d="m 30,16 c -0.554,0 -1,0.446 -1,1 l 0,3.34375 c -1.369766,0.323396 -2.647969,0.874891 -3.8125,1.59375 l -2.375,-2.375 c -0.391737,-0.391737 -1.014513,-0.391738 -1.40625,0 l -2.84375,2.84375 c -0.391737,0.391737 -0.391738,1.014513 0,1.40625 l 2.375,2.375 C 20.218641,27.352031 19.667146,28.630234 19.34375,30 L 16,30 c -0.554,0 -1,0.446 -1,1 l 0,4 c 0,0.554 0.446,1 1,1 l 3.34375,0 c 0.323071,1.368391 0.876137,2.64906 1.59375,3.8125 l -2.375,2.375 c -0.391737,0.391737 -0.391738,1.014513 0,1.40625 l 2.84375,2.84375 c 0.391737,0.391737 1.014513,0.391739 1.40625,0 l 2.375,-2.375 c 1.16344,0.717613 2.444109,1.270679 3.8125,1.59375 L 29,49 c 0,0.554 0.446,1 1,1 l 4,0 c 0.554,0 1,-0.446 1,-1 l 0,-3.34375 c 1.369766,-0.323396 2.647969,-0.874891 3.8125,-1.59375 l 2.375,2.375 c 0.391737,0.391737 1.014513,0.391739 1.40625,0 l 2.84375,-2.84375 c 0.391737,-0.391737 0.391739,-1.014515 0,-1.40625 l -2.375,-2.375 C 43.781359,38.647969 44.332854,37.369766 44.65625,36 L 48,36 c 0.554,0 1,-0.446 1,-1 l 0,-4 c 0,-0.554 -0.446,-1 -1,-1 l -3.34375,0 C 44.333179,28.631609 43.780113,27.35094 43.0625,26.1875 l 2.375,-2.375 c 0.391737,-0.391737 0.391739,-1.014513 0,-1.40625 L 42.59375,19.5625 c -0.391737,-0.391737 -1.014515,-0.391738 -1.40625,0 l -2.375,2.375 C 37.64906,21.219887 36.368391,20.666821 35,20.34375 L 35,17 c 0,-0.554 -0.446,-1 -1,-1 l -4,0 z m 2,11 c 3.312001,0 6,2.688 6,6 10e-7,3.312001 -2.688,6 -6,6 -3.311999,10e-7 -6,-2.688 -6,-6 0,-3.311999 2.688,-6 6,-6 z" />
    <path
       style="fill:url(#linearGradient3103);fill-opacity:1;fill-rule:nonzero;stroke:none;stroke-width:1.70000005;marker:none;visibility:visible;display:inline;overflow:visible;enable-background:accumulate"
       id="rect2588"
       d="m 30,15 c -0.554,0 -1,0.446 -1,1 l 0,3.34375 c -1.369766,0.323396 -2.647969,0.874891 -3.8125,1.59375 l -2.375,-2.375 c -0.391737,-0.391737 -1.014513,-0.391738 -1.40625,0 l -2.84375,2.84375 c -0.391737,0.391737 -0.391738,1.014513 0,1.40625 l 2.375,2.375 C 20.218641,26.352031 19.667146,27.630234 19.34375,29 L 16,29 c -0.554,0 -1,0.446 -1,1 l 0,4 c 0,0.554 0.446,1 1,1 l 3.34375,0 c 0.323071,1.368391 0.876137,2.64906 1.59375,3.8125 l -2.375,2.375 c -0.391737,0.391737 -0.391738,1.014513 0,1.40625 l 2.84375,2.84375 c 0.391737,0.391737 1.014513,0.391739 1.40625,0 l 2.375,-2.375 c 1.16344,0.717613 2.444109,1.270679 3.8125,1.59375 L 29,48 c 0,0.554 0.446,1 1,1 l 4,0 c 0.554,0 1,-0.446 1,-1 l 0,-3.34375 c 1.369766,-0.323396 2.647969,-0.874891 3.8125,-1.59375 l 2.375,2.375 c 0.391737,0.391737 1.014513,0.391739 1.40625,0 l 2.84375,-2.84375 c 0.391737,-0.391737 0.391739,-1.014515 0,-1.40625 l -2.375,-2.375 C 43.781359,37.647969 44.332854,36.369766 44.65625,35 L 48,35 c 0.554,0 1,-0.446 1,-1 l 0,-4 c 0,-0.554 -0.446,-1 -1,-1 l -3.34375,0 C 44.333179,27.631609 43.780113,26.35094 43.0625,25.1875 l 2.375,-2.375 c 0.391737,-0.391737 0.391739,-1.014513 0,-1.40625 L 42.59375,18.5625 c -0.391737,-0.391737 -1.014515,-0.391738 -1.40625,0 l -2.375,2.375 C 37.64906,20.219887 36.368391,19.666821 35,19.34375 L 35,16 c 0,-0.554 -0.446,-1 -1,-1 l -4,0 z m 2,11 c 3.312001,0 6,2.688 6,6 10e-7,3.312001 -2.688,6 -6,6 -3.311999,10e-7 -6,-2.688 -6,-6 0,-3.311999 2.688,-6 6,-6 z" />
    <path
       d="M 55.499999,31.99917 C 55.499999,44.978275 44.977909,55.5 32.000296,55.5 19.021486,55.5 8.5,44.978157 8.5,31.99917 8.5,19.020657 19.021486,8.5000039 32.000296,8.5000039 c 12.977613,0 23.499703,10.5206531 23.499703,23.4991661 l 0,0 0,0 0,0 z"
       id="path3215-6"
       style="fill:url(#radialGradient3026);fill-opacity:1;fill-rule:nonzero;stroke:url(#linearGradient3028);stroke-width:1;stroke-miterlimit:4;stroke-dasharray:none" />
    <path
       d="m 54.500002,32.000797 c 0,-12.426806 -10.07434,-22.5007971 -22.499718,-22.5007971 -12.426518,0 -22.5002837,10.0741031 -22.5002837,22.5007971 0,12.426238 10.0737657,22.499205 22.5002837,22.499205 12.425378,0 22.499718,-10.072967 22.499718,-22.499205 l 0,0 z"
       id="path3215-4"
       style="opacity:0.2;fill:url(#radialGradient3021);fill-opacity:1;stroke:url(#linearGradient3023);stroke-width:0.99999988;stroke-miterlimit:4;stroke-dasharray:none" />
    <path
       style="opacity:0.05;fill:#000000;fill-opacity:1;stroke:none"
       d="m 26.358976,30.897435 11.282051,0 0,-7.051283 L 52.448721,34.377161 37.641027,45 l 0,-7.051283 -11.282051,0 0,7.051283 -14.807693,-10.622839 14.807693,-10.531009 0,7.051283 z"
       id="path4293-7-7-6"
       sodipodi:nodetypes="ccccccccccc" />
    <path
       d="M 56.500001,31.999135 C 56.500001,45.530544 45.530162,56.5 32.00031,56.5 18.469209,56.5 7.5,45.530419 7.5,31.999135 7.5,18.468345 18.469209,7.5000048 32.00031,7.5000048 c 13.529852,0 24.499691,10.9683402 24.499691,24.4991302 l 0,0 0,0 0,0 z"
       id="path3215-6-0"
       style="opacity:0.4;fill:none;stroke:url(#linearGradient3017);stroke-width:1;stroke-miterlimit:4;stroke-dasharray:none" />
    <path
       style="opacity:0.1;fill:#000000;fill-opacity:1;stroke:none"
       d="m 26.358976,29.897436 11.282051,0 0,-7.051283 L 52.448721,33.377162 37.641027,44 l 0,-7.051282 -11.282051,0 0,7.051282 -14.807693,-10.622838 14.807693,-10.531009 0,7.051283 z"
       id="path4293-7"
       sodipodi:nodetypes="ccccccccccc" />
    <path
       style="opacity:0.1;fill:#000000;fill-opacity:1;stroke:none"
       d="m 26.358976,28.897436 11.282051,0 0,-7.051283 L 52.448721,32.377162 37.641027,43 l 0,-7.051282 -11.282051,0 0,7.051282 -14.807693,-10.622838 14.807693,-10.531009 0,7.051283 z"
       id="path4293-7-70"
       sodipodi:nodetypes="ccccccccccc" />
    <path
       style="fill:url(#linearGradient3011);fill-opacity:1;stroke:url(#linearGradient3013);stroke-width:1px;stroke-linecap:butt;stroke-linejoin:miter;stroke-opacity:1"
       d="m 25.5,28.5 13,0 0,-5.666668 L 51,32 38.5,41.166666 38.5,35.5 l -13,0 0,5.666666 L 13,32 25.5,22.833332 25.5,28.5 z"
       id="path4293"
       sodipodi:nodetypes="ccccccccccc" />
    <path
       style="opacity:0.2;fill:url(#linearGradient3008);fill-opacity:1;fill-rule:evenodd;stroke:none"
       id="path3333"
       d="M 7.9841631,4.9999997 C 6.3358444,4.9999997 5,6.4169682 5,8.1653845 L 5,31.317919 c 0.00385,0.194776 0.084302,0.378966 0.2220207,0.507861 0.1377117,0.12889 0.3200383,0.19071 0.5027038,0.170436 L 58.445798,21.686104 C 58.761579,21.633283 58.995585,21.346872 59,21.007807 L 59,8.1653845 C 59,6.4169682 57.664154,4.9999997 56.015837,4.9999997 l -48.0316739,0 z"
       sodipodi:nodetypes="cccscccccc" />
    <path
       style="opacity:0.4;fill:none;stroke:url(#linearGradient3005);stroke-width:1px;stroke-linecap:butt;stroke-linejoin:miter;stroke-opacity:1"
       d="m 24.5,29.5 15,0 0,-4.5 9.739582,7 -9.739582,7 0,-4.5 -15,0 0,4.5 -9.762622,-7 9.762622,-7 0,4.5 z"
       id="path4293-3"
       sodipodi:nodetypes="ccccccccccc" />
  </g>
</svg>
