<?xml version="1.0" encoding="UTF-8" standalone="no"?>
<!-- Created with Inkscape (http://www.inkscape.org/) -->

<svg
   xmlns:dc="http://purl.org/dc/elements/1.1/"
   xmlns:cc="http://creativecommons.org/ns#"
   xmlns:rdf="http://www.w3.org/1999/02/22-rdf-syntax-ns#"
   xmlns:svg="http://www.w3.org/2000/svg"
   xmlns="http://www.w3.org/2000/svg"
   xmlns:xlink="http://www.w3.org/1999/xlink"
   xmlns:sodipodi="http://sodipodi.sourceforge.net/DTD/sodipodi-0.dtd"
   xmlns:inkscape="http://www.inkscape.org/namespaces/inkscape"
   version="1.1"
   width="22"
   height="22"
   id="svg4524"
   inkscape:version="0.48.3.1 r9886"
   sodipodi:docname="go-next.svg">
  <sodipodi:namedview
     pagecolor="#ffffff"
     bordercolor="#666666"
     borderopacity="1"
     objecttolerance="10"
     gridtolerance="10"
     guidetolerance="10"
     inkscape:pageopacity="0"
     inkscape:pageshadow="2"
     inkscape:window-width="839"
     inkscape:window-height="480"
     id="namedview20"
     showgrid="true"
     inkscape:zoom="11.313708"
     inkscape:cx="12"
     inkscape:cy="12"
     inkscape:window-x="246"
     inkscape:window-y="377"
     inkscape:window-maximized="0"
     inkscape:current-layer="svg4524">
    <inkscape:grid
       type="xygrid"
       id="grid2997"
       empspacing="5"
       visible="true"
       enabled="true"
       snapvisiblegridlinesonly="true" />
  </sodipodi:namedview>
  <defs
     id="defs4526">
    <linearGradient
       id="linearGradient2867-449-88-871-390-598-476-591-434-148-57-177-641-289-620-227-114-444-680-744-4-1">
      <stop
         id="stop5430-5-0"
         style="stop-color:#737373;stop-opacity:1"
         offset="0" />
      <stop
         id="stop5432-2-0"
         style="stop-color:#636363;stop-opacity:1"
         offset="0.26238" />
      <stop
         id="stop5434-9-6"
         style="stop-color:#4b4b4b;stop-opacity:1"
         offset="0.704952" />
      <stop
         id="stop5436-2-7"
         style="stop-color:#3f3f3f;stop-opacity:1"
         offset="1" />
    </linearGradient>
    <radialGradient
       cx="16.202444"
       cy="-19.005346"
       r="19.99999"
       fx="16.202444"
       fy="-19.005346"
       id="radialGradient3896-0"
       xlink:href="#linearGradient2867-449-88-871-390-598-476-591-434-148-57-177-641-289-620-227-114-444-680-744-4-1-5"
       gradientUnits="userSpaceOnUse"
       gradientTransform="matrix(0,1.5000006,1.5241254,0,40.131885,-24.077676)" />
    <linearGradient
       id="linearGradient2867-449-88-871-390-598-476-591-434-148-57-177-641-289-620-227-114-444-680-744-4-1-5">
      <stop
         id="stop5430-5-0-9"
         style="stop-color:#737373;stop-opacity:1"
         offset="0" />
      <stop
         id="stop5432-2-0-0"
         style="stop-color:#636363;stop-opacity:1"
         offset="0.26238" />
      <stop
         id="stop5434-9-6-8"
         style="stop-color:#4b4b4b;stop-opacity:1"
         offset="0.704952" />
      <stop
         id="stop5436-2-7-0"
         style="stop-color:#3f3f3f;stop-opacity:1"
         offset="1" />
    </linearGradient>
  </defs>
  <metadata
     id="metadata4529">
    <rdf:RDF>
      <cc:Work
         rdf:about="">
        <dc:format>image/svg+xml</dc:format>
        <dc:type
           rdf:resource="http://purl.org/dc/dcmitype/StillImage" />
        <dc:title></dc:title>
      </cc:Work>
    </rdf:RDF>
  </metadata>
  <path
     d="m 10.8125,3.9683784 c 0.245788,-0.00983 0.475448,0.1004482 0.65625,0.28125 l 7.125,6.9687496 c 0.146902,0.146901 0.238672,0.31694 0.28125,0.5 0.02187,0.09403 0.03729,0.187359 0.03125,0.28125 0.0017,0.03029 0.0012,0.06324 0,0.09375 -0.0095,0.05498 -0.01176,0.104001 -0.03125,0.15625 -0.04065,0.188768 -0.130039,0.380039 -0.28125,0.53125 l -7.125,6.96875 c -0.361604,0.361604 -0.952013,0.329237 -1.34375,-0.0625 l -1.4062497,-1.40625 c -0.391737,-0.391737 -0.424104,-1.013396 -0.0625,-1.375 l 2.9062497,-2.90625 -6.5624997,0 c -0.554,0 -1,-0.446 -1,-1 l 0,-2 c 0,-0.554 0.446,-0.9999998 1,-0.9999998 l 6.5937497,0 -2.9374997,-2.9374998 c -0.361604,-0.3616035 -0.329237,-0.9520128 0.0625,-1.34375 L 10.125,4.2808784 c 0.195869,-0.1958686 0.441712,-0.3026685 0.6875,-0.3125 z"
     inkscape:connector-curvature="0"
     id="rect3811-1-7"
     style="opacity:0.35;color:#000000;fill:#ffffff;fill-opacity:1;fill-rule:nonzero;stroke:none;stroke-width:1;marker:none;visibility:visible;display:inline;overflow:visible;enable-background:accumulate" />
  <path
     d="m 10.8125,2.9687502 c 0.245788,-0.00983 0.475448,0.1004482 0.65625,0.28125 l 7.125,6.9687498 c 0.146902,0.146901 0.238672,0.31694 0.28125,0.5 0.02187,0.09403 0.03729,0.187359 0.03125,0.28125 0.0017,0.03029 0.0012,0.06324 0,0.09375 -0.0095,0.05498 -0.01176,0.104001 -0.03125,0.15625 -0.04065,0.188768 -0.130039,0.380039 -0.28125,0.53125 L 11.46875,18.75 C 11.107146,19.111604 10.516737,19.079237 10.125,18.6875 L 8.7187503,17.28125 c -0.391737,-0.391737 -0.424104,-1.013396 -0.0625,-1.375 L 11.5625,13 5.0000003,13 c -0.554,0 -1,-0.446 -1,-1 l 0,-2 c 0,-0.5539998 0.446,-0.9999998 1,-0.9999998 l 6.5937497,0 -2.9374997,-2.9375 c -0.361604,-0.3616035 -0.329237,-0.9520128 0.0625,-1.34375 L 10.125,3.2812502 c 0.195869,-0.1958686 0.441712,-0.3026685 0.6875,-0.3125 z"
     inkscape:connector-curvature="0"
     id="rect3811-1"
     style="color:#000000;fill:url(#radialGradient3896-0);fill-opacity:1;fill-rule:nonzero;stroke:none;stroke-width:1;marker:none;visibility:visible;display:inline;overflow:visible;enable-background:accumulate" />
  <path
     d="m 10.84375,3.4687502 c 0.08513,-0.00341 0.177794,0.021544 0.28125,0.125 L 18.25,10.5625 c 0.08449,0.08449 0.133984,0.185522 0.15625,0.28125 0.01711,0.07356 0.0012,0.106253 0,0.125 a 0.49703749,0.49703749 0 0 0 0,0.03125 c -0.0078,0.04523 0.0013,0.02193 0,0.03125 2.88e-4,0.0052 8.53e-4,0.0099 0,0.03125 A 0.49703749,0.49703749 0 0 0 18.375,11.15625 c -0.02363,0.109721 -0.05271,0.208964 -0.125,0.28125 l -7.125,6.96875 c -0.159857,0.159857 -0.431384,0.162366 -0.65625,-0.0625 L 9.0625,16.9375 C 8.846979,16.721979 8.850267,16.399733 9,16.25 l 2.90625,-2.90625 A 0.49703749,0.49703749 0 0 0 11.5625,12.5 L 5,12.5 C 4.712735,12.5 4.5,12.287265 4.5,12 l 0,-2 C 4.5,9.7127352 4.712735,9.5000002 5,9.5000002 l 6.59375,0 a 0.49703749,0.49703749 0 0 0 0.34375,-0.84375 L 9,5.7187502 C 8.840144,5.5588944 8.837634,5.287366 9.0625,5.0625002 l 1.40625,-1.4375 c 0.112713,-0.1127129 0.259611,-0.1516344 0.375,-0.15625 z"
     inkscape:connector-curvature="0"
     id="path3996"
     style="opacity:0.1;color:#000000;fill:none;stroke:#000000;stroke-width:1;stroke-linecap:round;stroke-linejoin:round;stroke-miterlimit:4;stroke-opacity:1;stroke-dasharray:none;stroke-dashoffset:0;marker:none;visibility:visible;display:inline;overflow:visible;enable-background:accumulate" />
  <path
     d="M 10.8125,4.6562502 17.3125,11 10.84375,17.34375 10.0625,16.5625 12.59375,14.03125 a 1.4619211,1.4619211 0 0 0 -1.03125,-2.5 l -6.09375,0 0,-1.0625 6.125,0 A 1.4619211,1.4619211 0 0 0 12.625,7.9687502 l -2.5625,-2.5625 0.75,-0.75 z"
     inkscape:connector-curvature="0"
     id="path3996-3"
     style="opacity:0.02999998;color:#000000;fill:none;stroke:#000000;stroke-width:1;stroke-linecap:butt;stroke-linejoin:miter;stroke-miterlimit:4;stroke-opacity:1;stroke-dasharray:none;stroke-dashoffset:0;marker:none;visibility:visible;display:inline;overflow:visible;enable-background:accumulate" />
</svg>
