<svg xmlns="http://www.w3.org/2000/svg" xmlns:xlink="http://www.w3.org/1999/xlink" viewBox="0 0 16 16"><defs><linearGradient id="d"><stop offset="0" stop-color="#fff"/><stop offset="1" stop-color="#fff" stop-opacity="0"/></linearGradient><linearGradient gradientTransform="matrix(1 0 0 .3954 -.813 14.196)" gradientUnits="userSpaceOnUse" id="e" x1="43.692" x2="43.683" xlink:href="#a" y1="8.85" y2="18.042"/><linearGradient id="a"><stop offset="0" stop-color="#fff"/><stop offset=".137" stop-color="#d4d6d2"/><stop offset=".793" stop-color="#d4d6d2"/><stop offset="1" stop-color="#7e8478"/></linearGradient><linearGradient gradientTransform="matrix(1 0 0 .3954 -.813 21.146)" gradientUnits="userSpaceOnUse" id="f" x1="43.692" x2="43.683" xlink:href="#a" y1="8.85" y2="18.042"/><linearGradient gradientTransform="translate(2 -3)" gradientUnits="userSpaceOnUse" id="g" x1="20.047" x2="39.003" xlink:href="#b" y1="22.747" y2="49.794"/><linearGradient id="b"><stop offset="0" stop-color="#788600"/><stop offset="1" stop-color="#505900"/></linearGradient><linearGradient gradientTransform="matrix(1.98438 0 0 1 8.094 -3.014)" gradientUnits="userSpaceOnUse" id="h" x1="6.221" x2="6.238" xlink:href="#c" y1="42.891" y2="39.267"/><linearGradient id="c"><stop offset="0" stop-color="#ebff39"/><stop offset="1" stop-color="#ebff39" stop-opacity="0"/></linearGradient><linearGradient gradientTransform="matrix(.93474 0 0 1.14936 2.52 -6.86)" gradientUnits="userSpaceOnUse" id="i" x1="16.965" x2="18.968" xlink:href="#d" y1="20.166" y2="31.347"/><linearGradient gradientTransform="matrix(1.02132 0 0 .63788 -2.212 -15.654)" gradientUnits="userSpaceOnUse" id="j" x1="6.221" x2="6.238" xlink:href="#c" y1="42.891" y2="39.267"/><linearGradient gradientTransform="matrix(1.02132 0 0 .63788 -.087 -15.654)" gradientUnits="userSpaceOnUse" id="k" x1="6.221" x2="6.238" xlink:href="#c" y1="42.891" y2="39.267"/><linearGradient gradientTransform="matrix(1.02132 0 0 .63788 1.85 -15.654)" gradientUnits="userSpaceOnUse" id="l" x1="6.221" x2="6.238" xlink:href="#c" y1="42.891" y2="39.267"/></defs><g color="#000"><path display="block" overflow="visible" fill="url(#e)" stroke="#555753" stroke-linecap="round" stroke-linejoin="round" d="M13.293 4.584H15.5v2.003h-2.207z"/><path display="block" overflow="visible" fill="url(#f)" stroke="#555753" stroke-linecap="round" stroke-linejoin="round" d="M13.293 8.56H15.5v1.94h-2.207z"/><path d="M.5 2.568l.028 10.84c0 .023.008.042.042.042l9.906-.003c.03 0 .04-.022.04-.043l-.03-1.91h2.037c.03 0 .038-.043.037-.07V2.567c0-.028-.015-.042-.043-.043H.54c-.025 0-.043.018-.04.043z" display="block" overflow="visible" fill="url(#g)" stroke="#3a3e00"/><path d="M2.49 9.603c.41 0 .51.4.51.578V13H1.98v-2.82c0-.176.106-.577.51-.577z" display="block" overflow="visible" fill="url(#h)"/><rect height="3.973" rx=".161" ry=".161" width="6.019" x="2.572" y="4.566" display="block" overflow="visible" fill="#555753" stroke="#2e3436"/><rect height="2.094" rx="0" ry="0" width="4.051" x="3.5" y="5.478" display="block" overflow="visible" opacity=".17" fill="none" stroke="url(#i)"/><path d="M1.545 12.452l8.045-.018-.08-1.897 2.03-.06-.042-6.97-9.99.066.037 8.88z" display="block" overflow="visible" opacity=".239" fill="none" stroke="#fff"/><path d="M12.52 13.69V1.5h1.948" display="block" overflow="visible" fill="none" stroke="#555753" stroke-width="3" stroke-linecap="round" stroke-linejoin="round"/><path d="M12.51 13.57V1.47h1.942" display="block" overflow="visible" fill="none" stroke="#d4d6d2" stroke-linecap="round" stroke-linejoin="round"/><circle r=".928" cy="12.998" cx="36.018" transform="matrix(.52846 0 0 .52364 -9.025 -1.755)" display="block" overflow="visible" fill="#3465a4" stroke="#204a87" stroke-width="1.901" stroke-linecap="round" stroke-linejoin="round"/><circle r=".928" cy="12.998" cx="36.018" transform="matrix(.52846 0 0 .52364 -8.958 1.208)" display="block" overflow="visible" fill="#3465a4" stroke="#204a87" stroke-width="1.901" stroke-linecap="round" stroke-linejoin="round"/><path d="M4.427 9.603c.41 0 .51.4.51.578V13h-1.02v-2.82c0-.176.106-.577.51-.577z" display="block" overflow="visible" fill="url(#j)"/><path d="M6.552 9.603c.41 0 .51.4.51.578V13h-1.02v-2.82c0-.176.106-.577.51-.577z" display="block" overflow="visible" fill="url(#k)"/><path d="M8.49 9.603c.41 0 .51.4.51.578V13H7.98v-2.82c0-.176.106-.577.51-.577z" display="block" overflow="visible" fill="url(#l)"/></g></svg>