<svg xmlns="http://www.w3.org/2000/svg" xmlns:xlink="http://www.w3.org/1999/xlink" viewBox="0 0 16 16"><defs><linearGradient id="g"><stop offset="0" stop-color="#3c3c3c"/><stop offset="1" stop-color="#1e1e1e"/></linearGradient><linearGradient id="a"><stop offset="0" stop-color="#fff"/><stop offset="1" stop-color="#fff" stop-opacity="0"/></linearGradient><linearGradient x1="17.676" y1="28.648" x2="15.543" y2="26.971" id="n" xlink:href="#a" gradientUnits="userSpaceOnUse" gradientTransform="matrix(.64357 0 0 .6284 -5.53 -1.648)"/><linearGradient id="b"><stop offset="0" stop-color="#f0f0f0"/><stop offset="1" stop-color="#9b9b9b"/></linearGradient><radialGradient cx="37.972" cy="11.218" r="10.024" fx="37.972" fy="11.218" id="h" xlink:href="#b" gradientUnits="userSpaceOnUse" gradientTransform="matrix(.6066 .01127 -.01093 .6063 -4.178 -3.336)"/><linearGradient id="c"><stop offset="0" stop-color="#fff" stop-opacity="0"/><stop offset=".771" stop-opacity=".498"/><stop offset="1"/></linearGradient><radialGradient cx="31.002" cy="20.938" r=".914" fx="31.002" fy="20.938" id="i" xlink:href="#c" gradientUnits="userSpaceOnUse" gradientTransform="matrix(10.02433 .18763 -.18344 10.25355 -286.447 -216.557)"/><linearGradient x1="32.303" y1="18.646" x2="34.59" y2="16.081" id="j" xlink:href="#d" gradientUnits="userSpaceOnUse" gradientTransform="matrix(.50352 .0103 -.00907 .55457 -.565 -2.47)"/><linearGradient x1="34.204" y1="17.334" x2="39" y2="23.119" id="k" xlink:href="#e" gradientUnits="userSpaceOnUse" gradientTransform="matrix(.50352 .0103 -.00907 .55457 -.565 -2.47)" spreadMethod="reflect"/><linearGradient id="f"><stop offset="0" stop-color="#fff"/><stop offset="1" stop-color="#9b9b9b" stop-opacity="0"/></linearGradient><radialGradient cx="37.972" cy="11.218" r="10.024" fx="37.972" fy="11.218" id="l" xlink:href="#f" gradientUnits="userSpaceOnUse" gradientTransform="matrix(.6066 .01127 -.01093 .6063 -4.178 -3.336)"/><linearGradient id="d"><stop offset="0" stop-color="#1e1e1e"/><stop offset=".266" stop-color="#8d8d8d"/><stop offset="1" stop-color="#eee"/></linearGradient><linearGradient x1="26.546" y1="25.605" x2="28.415" y2="23.377" id="o" xlink:href="#d" gradientUnits="userSpaceOnUse" gradientTransform="matrix(.64357 0 0 .6284 -4.538 -4.795)"/><linearGradient id="e"><stop offset="0" stop-color="#fff"/><stop offset="1" stop-color="#fff" stop-opacity="0"/></linearGradient><linearGradient x1="27.501" y1="24.468" x2="31.416" y2="28.492" id="p" xlink:href="#e" gradientUnits="userSpaceOnUse" gradientTransform="matrix(.6406 0 0 .63057 -4.23 -4.78)" spreadMethod="reflect"/><radialGradient cx="11.306" cy="8.303" r="8.703" fx="11.306" fy="8.303" id="m" xlink:href="#g" gradientUnits="userSpaceOnUse" gradientTransform="matrix(-.75215 1.7164 -.68816 -.3129 24.728 -7.67)"/></defs><path d="M22 7.602a5.5 5.497 25 1 1-11-.204 5.5 5.497 25 1 1 11 .204z" fill="url(#h)" transform="matrix(.72727 0 0 .72715 -.998 -.452)"/><path d="M21.748 7.598A5.375 5.497 0 1 1 11 7.398a5.375 5.497 0 1 1 10.748.2z" opacity=".191" fill="url(#i)" transform="matrix(.72727 0 0 .72715 -.998 -.452)"/><path d="M13.128 3.372s1.998 2.983 7.45 7.478c.224.183-.42.95-.642.735 0 0-3.377-1.822-7.503-7.32-.204-.27.154-.477.695-.893z" fill="url(#j)" fill-rule="evenodd" transform="matrix(.72727 0 0 .72715 -.998 -.452)"/><path d="M13.128 3.372s1.998 2.983 7.45 7.478c.224.183-.42.95-.642.735 0 0-3.377-1.822-7.503-7.32-.204-.27.154-.477.695-.893z" opacity=".674" fill="url(#k)" fill-rule="evenodd" transform="matrix(.72727 0 0 .72715 -.998 -.452)"/><path d="M22 7.602a5.5 5.496 24.262 1 1-11-.204 5.5 5.496 24.262 1 1 11 .204z" opacity=".479" fill="url(#l)" transform="matrix(.72727 0 0 .72715 -.998 -.452)"/><path d="M11 7.497L1.375 19.273c.578 3.208 3.85 3.352 3.85 3.352L16.5 12.998l-5.5-5.5z" fill="url(#m)" fill-rule="evenodd" transform="matrix(.72727 0 0 .72715 -.998 -.452)"/><path d="M12.375 10.248C1.047 22.845 2.55 21.168 2.55 21.168s-1.128-1.02-1.177-1.74l9.18-11.117s.844 1.06 1.822 1.94z" opacity=".42" fill="url(#n)" fill-rule="evenodd" transform="matrix(.72727 0 0 .72715 -.998 -.452)"/><path d="M15.8 13.48c.47-.056 1.58-.713 1.58-.713-1.61-.8-6.496-5.6-6.496-5.6s-.85 1.085-.76 1.4c0 0 2.81 3.257 5.676 4.914z" fill="url(#o)" fill-rule="evenodd" transform="matrix(.72727 0 0 .72715 -.998 -.452)"/><path d="M16.015 13.56c.466-.057 1.573-.717 1.573-.717-1.602-.802-6.467-5.62-6.467-5.62s-.84 1.09-.752 1.406c0 0 2.797 3.263 5.65 4.93z" opacity=".526" fill="url(#p)" fill-rule="evenodd" transform="matrix(.72727 0 0 .72715 -.998 -.452)"/></svg>