<svg xmlns="http://www.w3.org/2000/svg" xmlns:xlink="http://www.w3.org/1999/xlink" viewBox="0 0 16 16"><defs><linearGradient x1="12.938" y1="8.438" x2="15.25" y2="19.813" id="h" xlink:href="#a" gradientUnits="userSpaceOnUse" gradientTransform="matrix(.11905 0 0 .2 4.643 2.4)"/><linearGradient id="a"><stop offset="0" stop-color="#fff" stop-opacity=".275"/><stop offset="1" stop-color="#fff" stop-opacity="0"/></linearGradient><radialGradient cx="19.063" cy="8.418" r="11" fx="19.063" fy="8.418" id="g" xlink:href="#b" gradientUnits="userSpaceOnUse" gradientTransform="matrix(.3294 0 0 .36488 -.198 .81)"/><linearGradient id="b"><stop offset="0" stop-color="#575757"/><stop offset="1" stop-color="#333"/></linearGradient><linearGradient id="c"><stop offset="0" stop-color="#f2f2f2"/><stop offset="1" stop-color="#b3b3b3"/></linearGradient><linearGradient id="d"><stop offset="0" stop-color="gray"/><stop offset="1" stop-color="#999"/></linearGradient><linearGradient x1="-74.836" y1="5.486" x2="-74.342" y2="107.02" id="e" xlink:href="#c" gradientUnits="userSpaceOnUse" gradientTransform="matrix(.15332 0 0 .1423 19.02 -.06)"/><linearGradient x1="-497" y1="361.815" x2="-497" y2="340.791" id="f" xlink:href="#d" gradientUnits="userSpaceOnUse" gradientTransform="matrix(.6657 0 0 .6812 335.024 -231.296)"/></defs><rect width="9.956" height="14.956" rx="1" ry="1" x="2.522" y=".522" fill="url(#e)" fill-rule="evenodd" stroke="url(#f)" stroke-width="1.044" stroke-linecap="round" stroke-linejoin="round" stroke-miterlimit="3.429" overflow="visible"/><path d="M7.5 9A2.5 2.5 0 0 0 5 11.498C5 12.878 6.12 14 7.5 14s2.5-1.122 2.5-2.502A2.5 2.5 0 0 0 7.5 9zm0 1.354c.632 0 1.145.513 1.145 1.144a1.145 1.145 0 1 1-2.29 0c0-.63.513-1.144 1.145-1.144z" fill="#fff" fill-rule="evenodd" overflow="visible"/><rect width="6.051" height="5.051" rx="0" ry="0" x="4.474" y="2.474" fill="url(#g)" fill-rule="evenodd" stroke="#333" stroke-width=".949" stroke-linecap="round" stroke-linejoin="round" stroke-miterlimit="3.429" overflow="visible"/><path d="M5 3h5v1.6L5 6V3z" fill="url(#h)"/></svg>