<svg xmlns="http://www.w3.org/2000/svg" xmlns:xlink="http://www.w3.org/1999/xlink" viewBox="0 0 16 16"><defs><linearGradient id="b"><stop offset="0" stop-color="#787878"/><stop offset=".35" stop-color="#bebebe"/><stop offset=".494" stop-color="#c8c8c8"/><stop offset=".589" stop-color="#e6e6e6"/><stop offset="1" stop-color="#8c8c8c"/></linearGradient><linearGradient id="a"><stop offset="0" stop-color="#fff" stop-opacity="0"/><stop offset="1" stop-color="#fff"/></linearGradient><linearGradient x1="15.574" y1="46.971" x2="23.578" y2="46.971" id="g" xlink:href="#a" gradientUnits="userSpaceOnUse" gradientTransform="matrix(.37255 0 0 .33333 -.784 -1.157)" spreadMethod="reflect"/><linearGradient x1="361.106" y1="87.05" x2="361.106" y2="94.396" id="f" xlink:href="#b" gradientUnits="userSpaceOnUse" gradientTransform="matrix(.3672 0 0 .48512 -123.515 -30.342)"/><linearGradient id="d"><stop offset="0" stop-color="#fff"/><stop offset=".02" stop-color="#fff" stop-opacity=".235"/><stop offset=".975" stop-color="#fff" stop-opacity=".157"/><stop offset="1" stop-color="#fff" stop-opacity=".392"/></linearGradient><linearGradient id="e"><stop offset="0" stop-color="#261e2b"/><stop offset="1" stop-color="#352f39"/></linearGradient><linearGradient id="c"><stop offset="0" stop-color="#fff"/><stop offset="1" stop-color="#fff" stop-opacity="0"/></linearGradient><linearGradient xlink:href="#c" id="j" gradientUnits="userSpaceOnUse" gradientTransform="matrix(.35 0 0 .55556 .65 6.444)" x1="10" y1="-3" x2="20" y2="12"/><linearGradient xlink:href="#d" id="h" gradientUnits="userSpaceOnUse" gradientTransform="matrix(.35135 0 0 .24324 -.432 1.162)" x1="24" y1="7.557" x2="24" y2="40.546"/><linearGradient xlink:href="#e" id="i" gradientUnits="userSpaceOnUse" gradientTransform="matrix(.3 0 0 .34783 1.7 5.783)" x1="15" y1="24.619" x2="15" y2="2"/></defs><path d="M5.737 11.5s.052 1.827-.208 2.31c-.266.48-.78.486-.78.486-.337.05-.34 1.205 0 1.205h6.5c.332 0 .33-1.15 0-1.2 0 0-.52-.006-.78-.487-.26-.482-.21-2.31-.21-2.31H5.736z" fill="url(#f)" overflow="visible"/><path d="M5.204 14.5h5.592" fill="none" stroke="url(#g)" stroke-linecap="square"/><path d="M5.737 11.5s.052 1.827-.208 2.31c-.266.48-.78.486-.78.486-.337.05-.34 1.205 0 1.205h6.5c.332 0 .33-1.15 0-1.2 0 0-.52-.006-.78-.487-.26-.482-.21-2.31-.21-2.31H5.736z" fill="none" stroke="#000" stroke-width=".998" stroke-linecap="round" stroke-linejoin="round" stroke-dashoffset=".5" overflow="visible" opacity=".4" color="#000"/><rect width="15" height="11" rx=".333" ry=".333" x=".5" y="1.5" fill="#1a1a1a" stroke="#000" stroke-linecap="round" stroke-linejoin="round" stroke-dashoffset=".5"/><rect width="13" height="9" rx="0" ry="0" x="1.5" y="2.5" opacity=".2" fill="none" stroke="url(#h)" stroke-linecap="round" stroke-linejoin="round"/><path d="M2 3h12v8H2z" fill="url(#i)"/><path d="M2 3v8h12V3zm1 1h10v6H3z" opacity=".2"/><path d="M1 2v10l14-7.292V2z" opacity=".2" fill="url(#j)"/></svg>