<?xml version="1.0" encoding="UTF-8" standalone="no"?>
<!-- Created with Inkscape (http://www.inkscape.org/) -->
<svg
   xmlns:svg="http://www.w3.org/2000/svg"
   xmlns="http://www.w3.org/2000/svg"
   xmlns:xlink="http://www.w3.org/1999/xlink"
   version="1.0"
   width="22"
   height="22"
   id="svg3211">
  <defs
     id="defs3213">
    <linearGradient
       id="linearGradient3187">
      <stop
         id="stop3189"
         style="stop-color:#a60000;stop-opacity:1"
         offset="0" />
      <stop
         id="stop3191"
         style="stop-color:#ff1313;stop-opacity:1"
         offset="1" />
    </linearGradient>
    <linearGradient
       x1="12.939759"
       y1="5"
       x2="12.939759"
       y2="19.004065"
       id="linearGradient3190"
       xlink:href="#linearGradient3187"
       gradientUnits="userSpaceOnUse"
       gradientTransform="translate(-1,-1)" />
  </defs>
  <g
     id="layer1">
    <path
       d="M 11.9375,4 C 11.407062,4.0272707 10.993028,4.4689075 11,5 L 11,6.21875 C 7.6446544,6.7256953 5,9.5078556 5,13 C 5,16.846695 8.153305,20 12,20 C 15.846695,20 19,16.846695 19,13 C 19.003162,12.733827 18.898821,12.477632 18.710595,12.289405 C 18.522368,12.101179 18.266173,11.996838 18,12 L 16,12 C 15.733827,11.996838 15.477632,12.101179 15.289405,12.289405 C 15.101179,12.477632 14.996838,12.733827 15,13 C 15,14.673305 13.673305,16 12,16 C 10.326695,16 9,14.673305 9,13 C 9,11.719649 9.8823342,10.844913 11,10.40625 L 11,11 C 11.000656,11.356406 11.193153,11.684852 11.503788,11.859585 C 11.814423,12.034317 12.195075,12.028266 12.5,11.84375 L 17.5,8.84375 C 17.794183,8.6643058 17.973663,8.344592 17.973663,8 C 17.973663,7.655408 17.794183,7.3356942 17.5,7.15625 L 12.5,4.15625 C 12.332511,4.0487142 12.136456,3.9942544 11.9375,4 z"
       transform="translate(-1,-1)"
       id="path3199"
       style="opacity:0.1;fill:#f50000;fill-opacity:1;fill-rule:nonzero;stroke:none;stroke-width:4;stroke-linecap:round;stroke-linejoin:miter;marker:none;marker-start:none;marker-mid:none;marker-end:none;stroke-miterlimit:4;stroke-dasharray:none;stroke-dashoffset:0;stroke-opacity:1;visibility:visible;display:inline;overflow:visible;enable-background:accumulate" />
    <path
       d="M 11,5 L 11,7 C 7.688,7 5,9.688 5,13 C 5,16.312 7.688,19 11,19 C 14.312,19 17,16.312 17,13 L 15,13 C 15,15.208 13.208,17 11,17 C 8.7920001,17 7,15.208 7,13 C 7,10.792 8.7919999,9 11,9 L 11,11 L 16,8 L 11,5 z"
       id="path3224"
       style="opacity:0.7;fill:#ffffff;fill-opacity:1;fill-rule:evenodd;stroke:none;stroke-width:1px;stroke-linecap:butt;stroke-linejoin:miter;stroke-opacity:1" />
    <path
       d="M 11,4 L 11,6 C 7.688,6 5,8.6879996 5,12 C 5,15.312 7.688,18 11,18 C 14.312,18 17,15.312 17,12 L 15,12 C 15,14.208 13.208,16 11,16 C 8.7920001,16 7,14.208 7,12 C 7,9.792 8.7919999,8 11,8 L 11,10 L 16,7 L 11,4 z"
       id="path4199"
       style="opacity:0.8;fill:url(#linearGradient3190);fill-opacity:1;fill-rule:evenodd;stroke:none;stroke-width:1px;stroke-linecap:butt;stroke-linejoin:miter;stroke-opacity:1" />
  </g>
</svg>
