<svg xmlns="http://www.w3.org/2000/svg" xmlns:xlink="http://www.w3.org/1999/xlink" viewBox="0 0 16 16"><defs><linearGradient id="a"><stop offset="0" stop-color="#181818"/><stop offset=".135" stop-color="#dbdbdb"/><stop offset=".202" stop-color="#a4a4a4"/><stop offset=".27" stop-color="#fff"/><stop offset=".447" stop-color="#8d8d8d"/><stop offset=".571" stop-color="#959595"/><stop offset=".72" stop-color="#cecece"/><stop offset="1" stop-color="#181818"/></linearGradient><linearGradient id="b"><stop offset="0" stop-color="#565656"/><stop offset=".5" stop-color="#9a9a9a"/><stop offset="1" stop-color="#545454"/></linearGradient><linearGradient id="c"><stop offset="0" stop-color="#b1b1b1"/><stop offset=".5" stop-color="#fff"/><stop offset="1" stop-color="#8f8f8f"/></linearGradient><linearGradient id="d"><stop offset="0" stop-color="#565656"/><stop offset=".5" stop-color="#9a9a9a"/><stop offset="1" stop-color="#545454"/></linearGradient><linearGradient id="e"><stop offset="0" stop-color="#b1b1b1"/><stop offset=".5" stop-color="#fff"/><stop offset="1" stop-color="#8f8f8f"/></linearGradient><linearGradient id="f"><stop offset="0" stop-color="#565656"/><stop offset=".5" stop-color="#9a9a9a"/><stop offset="1" stop-color="#545454"/></linearGradient><linearGradient id="g"><stop offset="0" stop-color="#b1b1b1"/><stop offset=".5" stop-color="#fff"/><stop offset="1" stop-color="#8f8f8f"/></linearGradient><linearGradient id="h"><stop offset="0" stop-color="#ece5a5"/><stop offset="1" stop-color="#fcfbf2"/></linearGradient><linearGradient id="i"><stop offset="0" stop-color="#dbce48"/><stop offset="1" stop-color="#c5b625"/></linearGradient><linearGradient x1="23.576" y1="25.357" x2="23.576" y2="31.211" id="n" xlink:href="#a" gradientUnits="userSpaceOnUse" gradientTransform="matrix(.41578 -.4175 .51898 .51462 -15.747 2.65)"/><linearGradient x1="30.038" y1="24.99" x2="30.038" y2="30" id="o" xlink:href="#b" gradientUnits="userSpaceOnUse" gradientTransform="matrix(.40402 -.4057 .60738 .60227 -17.868 .693)"/><linearGradient x1="30.038" y1="24.99" x2="30.038" y2="30" id="p" xlink:href="#c" gradientUnits="userSpaceOnUse" gradientTransform="matrix(.40402 -.4057 .60738 .60227 -17.983 .81)"/><linearGradient x1="30.038" y1="24.99" x2="30.038" y2="30" id="q" xlink:href="#d" gradientUnits="userSpaceOnUse" gradientTransform="matrix(.40402 -.4057 .60738 .60227 -17.466 .29)"/><linearGradient x1="30.038" y1="24.99" x2="30.038" y2="30" id="r" xlink:href="#e" gradientUnits="userSpaceOnUse" gradientTransform="matrix(.40402 -.4057 .60738 .60227 -17.58 .405)"/><linearGradient x1="30.038" y1="24.99" x2="30.038" y2="30" id="s" xlink:href="#f" gradientUnits="userSpaceOnUse" gradientTransform="matrix(.40402 -.4057 .60738 .60227 -17.062 -.116)"/><linearGradient x1="30.038" y1="24.99" x2="30.038" y2="30" id="t" xlink:href="#g" gradientUnits="userSpaceOnUse" gradientTransform="matrix(.40402 -.4057 .60738 .60227 -17.177 0)"/><linearGradient x1="9" y1="29.057" x2="9" y2="26.03" id="u" xlink:href="#h" gradientUnits="userSpaceOnUse" gradientTransform="matrix(.40402 -.4057 .60738 .60227 -17.637 .462)"/><linearGradient x1="5.518" y1="37.372" x2="9.522" y2="41.392" id="v" xlink:href="#i" gradientUnits="userSpaceOnUse" gradientTransform="matrix(.37638 .03615 .0367 .37487 -2.218 -1.133)"/><linearGradient id="k"><stop offset="0" stop-color="#fff"/><stop offset="1" stop-color="#e6e6e6"/></linearGradient><linearGradient id="j"><stop offset="0" stop-color="#969696"/><stop offset="1" stop-color="#bebebe"/></linearGradient><linearGradient x1="2" y1="18.001" x2="2" y2="2.001" id="m" xlink:href="#j" gradientUnits="userSpaceOnUse"/><linearGradient x1="6" y1="4.001" x2="6" y2="17.001" id="l" xlink:href="#k" gradientUnits="userSpaceOnUse"/></defs><path d="M.543 2.5l12.957.01.042 14.99h-13v-15z" fill="url(#l)" stroke="url(#m)" stroke-linecap="round" stroke-linejoin="round" transform="translate(0 -2)"/><path d="M3.043 3H4.19v1H3.042V3zm1.302 0h1.08v1h-1.08V3zm1.237 0h.952v1h-.952V3zM6.69 3h.42v1h-.42V3zm.575 0H8.2v1h-.935V3zm1.092 0h2.423v1H8.357V3zM3.043 9H4.19v1H3.042V9zm1.302 0h1.08v1h-1.08V9zm1.237 0h.952v1h-.952V9zM6.69 9h.42v1h-.42V9zm.575 0H8.2v1h-.935V9zM3.043 5H4.82v1H3.043V5zm1.94 0h.854v1h-.855V5zM6 5h.4v1H6V5zm.563 0h.774v1h-.774V5zM7.5 5h.773v1H7.5V5zm.935 0h1.243v1H8.435V5zM3.043 7h2.035v1H3.043V7zm2.195 0h2.18v1H5.24V7zM7.58 7h.87v1h-.87V7zm1.03 0h2.05v1H8.61V7zm-5.567 4H4.19v1H3.042v-1zm1.302 0h1.08v1h-1.08v-1zm1.237 0h.952v1h-.952v-1z" opacity=".7" fill="#686868"/><path d="M13.297 5.706c-.085-.05-.15-.037-.193-.01l-5.73 3.68-1.054.68-.032.013-1.25 2.83 3.096.1.026-.02 1.06-.68 5.728-3.71c.172-.11-.1-.85-.61-1.66-.383-.607-.79-1.086-1.04-1.236z" opacity=".15" fill="#0c0c0c" fill-rule="evenodd"/><path d="M2.05 11.037c.285-.207 1.147.257 1.96 1.062.81.8 1.26 1.64 1.057 1.93 0 0 .02.01.02.02L15.223 3.86c.258-.258-.213-1.143-1.05-1.974-.84-.83-1.73-1.295-1.987-1.037L2.05 11.03z" fill="url(#n)" stroke="#0c0c0c" stroke-width=".608" stroke-linejoin="round" transform="matrix(.70258 0 0 .70426 5.032 1.663)"/><path d="M10.565 2.484c.287-.208 1.148.256 1.96 1.062.81.804 1.26 1.64 1.058 1.93 0 .002.02.018.02.02l1.55-1.558c.41-.408-.028-1.093-.98-2.044-.813-.806-1.674-1.27-1.96-1.062l-.026.025-1.622 1.627z" opacity=".8" fill="#ffb6ed" stroke="#e28ccd" stroke-width=".608" stroke-linejoin="round" transform="matrix(.70258 0 0 .70426 5.032 1.663)"/><path d="M6.47 9.436c.203-.146.808.18 1.38.748.568.566.884 1.156.742 1.36 0 0 .014.012.013.013L13.51 6.62l.018-.018s-.014-.013-.013-.014c.142-.203-.174-.793-.743-1.36-.57-.567-1.176-.893-1.377-.747l-.018.02L6.47 9.44z" opacity=".6" fill="#0c0c0c"/><path d="M9.18 3.877c.285-.208 1.146.256 1.96 1.062.81.8 1.26 1.64 1.056 1.93l.02.01.126-.13-.02-.02c.203-.29-.246-1.13-1.057-1.93-.812-.81-1.674-1.27-1.96-1.06l-.126.12z" fill="url(#o)" transform="matrix(.70258 0 0 .70426 5.032 1.663)"/><path d="M9.063 3.993c.286-.208 1.148.256 1.96 1.062.81.803 1.26 1.64 1.058 1.93 0 .002.02.018.02.02l.13-.128-.02-.018c.21-.29-.24-1.13-1.05-1.94S9.49 3.65 9.2 3.86l-.125.122z" fill="url(#p)" transform="matrix(.70258 0 0 .70426 5.032 1.663)"/><path d="M9.58 3.473c.287-.208 1.15.256 1.96 1.062.81.804 1.26 1.64 1.06 1.93-.002.002.018.018.017.02l.127-.127c0-.002-.02-.018-.02-.02.203-.29-.246-1.126-1.057-1.93-.812-.805-1.674-1.27-1.96-1.062l-.126.127z" fill="url(#q)" transform="matrix(.70258 0 0 .70426 5.032 1.663)"/><path d="M9.465 3.59c.286-.21 1.148.256 1.96 1.06.81.805 1.26 1.642 1.058 1.932l.02.018.125-.126s-.02-.018-.02-.02c.204-.288-.246-1.126-1.056-1.93-.813-.805-1.674-1.27-1.96-1.062l-.127.127z" fill="url(#r)" transform="matrix(.70258 0 0 .70426 5.032 1.663)"/><path d="M9.985 3.067c.286-.207 1.148.257 1.96 1.062.81.8 1.26 1.64 1.058 1.93 0 0 .02.01.02.02l.125-.13-.02-.02c.202-.29-.246-1.13-1.058-1.93-.81-.81-1.67-1.27-1.96-1.06l-.12.12z" fill="url(#s)" transform="matrix(.70258 0 0 .70426 5.032 1.663)"/><path d="M9.87 3.183c.285-.207 1.147.257 1.96 1.062.81.804 1.26 1.642 1.057 1.93 0 .002.02.02.02.02l.125-.127s-.02-.018-.02-.02c.204-.288-.246-1.126-1.056-1.93-.813-.805-1.674-1.27-1.96-1.06l-.127.125z" fill="url(#t)" transform="matrix(.70258 0 0 .70426 5.032 1.663)"/><path d="M.26 15.794l4.772-1.725.04-.04c.202-.29-.253-1.13-1.064-1.93-.812-.81-1.673-1.27-1.96-1.06L.26 15.79z" fill="url(#u)" fill-rule="evenodd" stroke="url(#v)" stroke-width=".608" transform="matrix(.70258 0 0 .70426 5.032 1.663)"/><path d="M.744 14.506L.26 15.79l1.3-.474c-.113-.134-.22-.268-.354-.402a6.33 6.33 0 0 0-.462-.408z" fill="#0c0c0c" fill-rule="evenodd" stroke="#0c0c0c" stroke-width=".608" transform="matrix(.70258 0 0 .70426 5.032 1.663)"/></svg>