<?xml version="1.0" encoding="UTF-8" standalone="no"?>
<svg
   xmlns:dc="http://purl.org/dc/elements/1.1/"
   xmlns:cc="http://creativecommons.org/ns#"
   xmlns:rdf="http://www.w3.org/1999/02/22-rdf-syntax-ns#"
   xmlns:svg="http://www.w3.org/2000/svg"
   xmlns="http://www.w3.org/2000/svg"
   xmlns:xlink="http://www.w3.org/1999/xlink"
   version="1.1"
   width="16"
   height="16"
   id="svg4372">
  <defs
     id="defs4374">
    <linearGradient
       id="linearGradient877">
      <stop
         id="stop869"
         style="stop-color:#cd9ef7;stop-opacity:1"
         offset="0" />
      <stop
         id="stop875"
         style="stop-color:#a56de2;stop-opacity:1"
         offset="1" />
    </linearGradient>
    <linearGradient
       x1="23.99999"
       y1="4.999989"
       x2="23.99999"
       y2="43"
       id="linearGradient3304"
       xlink:href="#linearGradient3924-4-8"
       gradientUnits="userSpaceOnUse"
       gradientTransform="matrix(0.2972973,0,0,0.2972973,0.86486906,0.8648672)" />
    <linearGradient
       id="linearGradient3924-4-8">
      <stop
         id="stop3926-0-4"
         style="stop-color:#ffffff;stop-opacity:1"
         offset="0" />
      <stop
         id="stop3928-6-8"
         style="stop-color:#ffffff;stop-opacity:0.23529412"
         offset="0.06316455" />
      <stop
         id="stop3930-2-1"
         style="stop-color:#ffffff;stop-opacity:0.15686275"
         offset="0.95056331" />
      <stop
         id="stop3932-9-0"
         style="stop-color:#ffffff;stop-opacity:0.39215687"
         offset="1" />
    </linearGradient>
    <linearGradient
       xlink:href="#linearGradient877"
       id="linearGradient867"
       x1="7.9050331"
       y1="1.5559154"
       x2="7.9050331"
       y2="14.459918"
       gradientUnits="userSpaceOnUse" />
  </defs>
  <metadata
     id="metadata4377">
    <rdf:RDF>
      <cc:Work
         rdf:about="">
        <dc:format>image/svg+xml</dc:format>
        <dc:type
           rdf:resource="http://purl.org/dc/dcmitype/StillImage" />
        <dc:title />
      </cc:Work>
    </rdf:RDF>
  </metadata>
  <g
     id="layer1">
    <rect
       width="13.000003"
       height="13.000003"
       rx="2"
       ry="2"
       x="1.5"
       y="1.499997"
       id="rect5505-21-2"
       style="color:#000000;display:inline;overflow:visible;visibility:visible;fill:url(#linearGradient867);fill-opacity:1;fill-rule:nonzero;stroke:none;stroke-width:1;marker:none;enable-background:accumulate" />
    <rect
       width="11"
       height="11"
       x="2.5"
       y="2.4999969"
       id="rect6741-0-3-5"
       style="opacity:0.3;fill:none;stroke:url(#linearGradient3304);stroke-width:1;stroke-linecap:round;stroke-linejoin:round;stroke-miterlimit:4;stroke-dasharray:none;stroke-dashoffset:0;stroke-opacity:1"
       rx="1"
       ry="1" />
    <rect
       width="13.000003"
       height="13.000003"
       rx="2"
       ry="2"
       x="1.5"
       y="1.499997"
       id="rect5505-21-2-8"
       style="color:#000000;display:inline;overflow:visible;visibility:visible;opacity:0.5;fill:none;stroke:#7239b3;stroke-width:1;stroke-linecap:round;stroke-linejoin:round;stroke-miterlimit:4;stroke-dasharray:none;stroke-dashoffset:0;stroke-opacity:1;marker:none;enable-background:accumulate" />
  </g>
  <path
     id="path854"
     class="warning"
     d="M 7.9794925,5.4994015 C 7.7883287,5.507455 7.6184998,5.6238334 7.5419941,5.7992051 L 6.7978558,7.4993943 H 4.8750113 c -0.4596049,5e-4 -0.6753641,0.5684739 -0.3320298,0.8740202 L 6.040046,9.6995818 5.2793067,11.83141 c -0.1573724,0.443625 0.3292554,0.839295 0.7314429,0.594725 L 8,11.210319 9.9892507,12.426135 c 0.4021873,0.244569 0.8888153,-0.1511 0.7314423,-0.594725 L 9.9599538,9.6995818 11.457019,8.3734145 C 11.800353,8.0678682 11.584594,7.4999138 11.124989,7.4993943 H 9.2021442 L 8.4580063,5.7992051 C 8.3755321,5.6102028 8.1855408,5.4911675 7.9794925,5.4994015 Z"
     style="font-variation-settings:normal;opacity:0.3;vector-effect:none;fill:#7239b3;fill-opacity:1;stroke:none;stroke-width:0.499998;stroke-linecap:butt;stroke-linejoin:miter;stroke-miterlimit:4;stroke-dasharray:none;stroke-dashoffset:0;stroke-opacity:1;marker:none;stop-color:#000000;stop-opacity:1" />
  <path
     style="color:#000000;font-style:normal;font-variant:normal;font-weight:normal;font-stretch:normal;font-size:medium;line-height:normal;font-family:sans-serif;font-variant-ligatures:normal;font-variant-position:normal;font-variant-caps:normal;font-variant-numeric:normal;font-variant-alternates:normal;font-variant-east-asian:normal;font-feature-settings:normal;font-variation-settings:normal;text-indent:0;text-align:start;text-decoration:none;text-decoration-line:none;text-decoration-style:solid;text-decoration-color:#000000;letter-spacing:normal;word-spacing:normal;text-transform:none;writing-mode:lr-tb;direction:ltr;text-orientation:mixed;dominant-baseline:auto;baseline-shift:baseline;text-anchor:start;white-space:normal;shape-padding:0;shape-margin:0;inline-size:0;clip-rule:nonzero;display:inline;overflow:visible;visibility:visible;opacity:0.15;isolation:auto;mix-blend-mode:normal;color-interpolation:sRGB;color-interpolation-filters:linearRGB;solid-color:#000000;solid-opacity:1;vector-effect:none;fill:#7239b3;fill-opacity:1;fill-rule:nonzero;stroke:none;stroke-width:2;stroke-linecap:butt;stroke-linejoin:miter;stroke-miterlimit:4;stroke-dasharray:none;stroke-dashoffset:0;stroke-opacity:1;marker:none;color-rendering:auto;image-rendering:auto;shape-rendering:auto;text-rendering:auto;enable-background:accumulate;stop-color:#000000;stop-opacity:1"
     d="M 7.9375,4.5 C 7.3664401,4.5240581 6.8535443,4.8745524 6.625,5.3984375 L 6.1445312,6.5 H 4.875 4.8730469 C 4.2314863,6.5006979 3.6729586,6.9395232 3.4726562,7.4667969 3.2723539,7.9940706 3.399655,8.6945897 3.8789062,9.1210938 L 4.8710938,10 l -0.5332032,1.496094 -0.00195,0.002 c -0.2185866,0.616185 0.024245,1.302642 0.46875,1.664062 0.4445048,0.361421 1.1679333,0.458843 1.7265625,0.119141 v -0.002 L 8,12.382812 9.46875,13.279297 v 0.002 c 0.558629,0.339701 1.282058,0.242279 1.726562,-0.119141 0.444505,-0.36142 0.687338,-1.047878 0.46875,-1.664062 l -0.002,-0.002 L 11.128906,10 12.121094,9.1210938 C 12.600337,8.6945966 12.727648,7.9940688 12.527344,7.4667969 12.327039,6.939525 11.768493,6.5007251 11.126953,6.5 H 11.125 9.8554688 L 9.375,5.3984375 C 9.1289285,4.8345269 8.5542241,4.4754328 7.9394531,4.5 Z"
     id="path860" />
  <path
     id="path1047-9"
     class="warning"
     d="M 7.9794925,4.4994016 C 7.7883287,4.5074551 7.6184998,4.6238335 7.5419941,4.7992052 L 6.7978558,6.4993944 H 4.8750113 c -0.4596049,5e-4 -0.6753641,0.5684739 -0.3320298,0.8740202 L 6.040046,8.6995819 5.2793067,10.83141 c -0.1573724,0.443625 0.3292554,0.839295 0.7314429,0.594725 L 8,10.210319 9.9892507,11.426135 c 0.4021873,0.244569 0.8888153,-0.1511 0.7314423,-0.594725 L 9.9599538,8.6995819 11.457019,7.3734146 C 11.800353,7.0678683 11.584594,6.4999139 11.124989,6.4993944 H 9.2021442 L 8.4580063,4.7992052 C 8.3755321,4.6102029 8.1855408,4.4911676 7.9794925,4.4994016 Z"
     style="font-variation-settings:normal;opacity:1;vector-effect:none;fill:#ffffff;fill-opacity:1;stroke:none;stroke-width:0.499998;stroke-linecap:butt;stroke-linejoin:miter;stroke-miterlimit:4;stroke-dasharray:none;stroke-dashoffset:0;stroke-opacity:1;marker:none;stop-color:#000000;stop-opacity:1" />
  <path
     id="path862"
     style="font-variation-settings:normal;opacity:0.15;vector-effect:none;fill:#7239b3;fill-opacity:1;stroke:none;stroke-width:0.499998;stroke-linecap:butt;stroke-linejoin:miter;stroke-miterlimit:4;stroke-dasharray:none;stroke-dashoffset:0;stroke-opacity:1;marker:none;stop-color:#000000;stop-opacity:1"
     d="M 4.7148438 6.5253906 C 4.3703407 6.6386167 4.2425512 7.1056939 4.5429688 7.3730469 L 5.7695312 8.4589844 L 6.0410156 7.6992188 L 4.7148438 6.5253906 z M 11.285156 6.5253906 L 9.9589844 7.6992188 L 10.230469 8.4589844 L 11.457031 7.3730469 C 11.757448 7.1056939 11.629659 6.6386261 11.285156 6.5253906 z M 8 9.2109375 L 6.0117188 10.425781 C 5.8115045 10.547531 5.5897003 10.511179 5.4375 10.388672 L 5.2792969 10.832031 C 5.1219245 11.275656 5.6095313 11.670351 6.0117188 11.425781 L 8 10.210938 L 9.9882812 11.425781 C 10.390469 11.67035 10.878076 11.275656 10.720703 10.832031 L 10.5625 10.388672 C 10.4103 10.511179 10.188495 10.547531 9.9882812 10.425781 L 8 9.2109375 z " />
</svg>
