<?xml version="1.0" encoding="UTF-8" standalone="no"?>
<!-- Created with Inkscape (http://www.inkscape.org/) -->

<svg
   xmlns:dc="http://purl.org/dc/elements/1.1/"
   xmlns:cc="http://creativecommons.org/ns#"
   xmlns:rdf="http://www.w3.org/1999/02/22-rdf-syntax-ns#"
   xmlns:svg="http://www.w3.org/2000/svg"
   xmlns="http://www.w3.org/2000/svg"
   xmlns:xlink="http://www.w3.org/1999/xlink"
   xmlns:sodipodi="http://sodipodi.sourceforge.net/DTD/sodipodi-0.dtd"
   xmlns:inkscape="http://www.inkscape.org/namespaces/inkscape"
   version="1.1"
   width="16"
   height="16"
   id="svg7357"
   inkscape:version="0.48.4 r9939"
   sodipodi:docname="office-calendar.svg">
  <sodipodi:namedview
     pagecolor="#ffffff"
     bordercolor="#666666"
     borderopacity="1"
     objecttolerance="10"
     gridtolerance="10"
     guidetolerance="10"
     inkscape:pageopacity="0"
     inkscape:pageshadow="2"
     inkscape:window-width="1440"
     inkscape:window-height="845"
     id="namedview61"
     showgrid="true"
     inkscape:zoom="39.6875"
     inkscape:cx="7.7858268"
     inkscape:cy="8"
     inkscape:window-x="0"
     inkscape:window-y="30"
     inkscape:window-maximized="1"
     inkscape:current-layer="svg7357">
    <inkscape:grid
       type="xygrid"
       id="grid4111" />
  </sodipodi:namedview>
  <defs
     id="defs7359">
    <linearGradient
       id="linearGradient4039">
      <stop
         offset="0"
         style="stop-color:#ffffff;stop-opacity:1"
         id="stop4041" />
      <stop
         offset="0.02049075"
         style="stop-color:#ffffff;stop-opacity:0.23529412"
         id="stop4043" />
      <stop
         offset="0.97996831"
         style="stop-color:#ffffff;stop-opacity:0.15686275"
         id="stop4045" />
      <stop
         offset="1"
         style="stop-color:#ffffff;stop-opacity:0.39215687"
         id="stop4047" />
    </linearGradient>
    <linearGradient
       x1="23.99999"
       y1="7.1834574"
       x2="23.99999"
       y2="40.598186"
       id="linearGradient3007"
       xlink:href="#linearGradient4039"
       gradientUnits="userSpaceOnUse"
       gradientTransform="matrix(0.2972973,0,0,0.2972973,0.86486973,0.86486734)" />
    <linearGradient
       inkscape:collect="always"
       xlink:href="#linearGradient3600-8-1-9-5"
       id="linearGradient4076-7"
       gradientUnits="userSpaceOnUse"
       gradientTransform="matrix(0.30683771,0,0,0.27632276,19.491958,1.388251)"
       x1="19.360001"
       y1="16.137854"
       x2="19.360001"
       y2="44.98436" />
    <linearGradient
       id="linearGradient3600-8-1-9-5">
      <stop
         id="stop3602-9-2-7-6"
         style="stop-color:#f4f4f4;stop-opacity:1"
         offset="0" />
      <stop
         id="stop3604-0-3-1-2"
         style="stop-color:#dbdbdb;stop-opacity:1"
         offset="1" />
    </linearGradient>
  </defs>
  <metadata
     id="metadata7362">
    <rdf:RDF>
      <cc:Work
         rdf:about="">
        <dc:format>image/svg+xml</dc:format>
        <dc:type
           rdf:resource="http://purl.org/dc/dcmitype/StillImage" />
        <dc:title></dc:title>
      </cc:Work>
    </rdf:RDF>
  </metadata>
  <rect
     width="12"
     height="12"
     x="2"
     y="2"
     id="rect5505-21-2"
     style="color:#000000;fill:url(#linearGradient4076-7);fill-opacity:1;fill-rule:nonzero;stroke:none;stroke-width:1;marker:none;visibility:visible;display:inline;overflow:visible;enable-background:accumulate"
     rx="0.5"
     ry="0.5" />
  <rect
     width="13.000003"
     height="13.000003"
     rx="1"
     ry="1"
     x="1.5"
     y="1.4999971"
     id="rect5505-21-2-8"
     style="opacity:0.25000000000000000;color:#000000;fill:none;stroke:#000000;stroke-width:1;stroke-linecap:round;stroke-linejoin:round;stroke-miterlimit:4;stroke-opacity:1;stroke-dasharray:none;stroke-dashoffset:0;marker:none;visibility:visible;display:inline;overflow:visible;enable-background:accumulate" />
  <rect
     style="opacity:0.1;color:#000000;fill:#000000;fill-opacity:1;fill-rule:nonzero;stroke:none;stroke-width:1;marker:none;visibility:visible;display:inline;overflow:visible;enable-background:accumulate"
     id="rect5121-2-1"
     width="12"
     height="1"
     x="2"
     y="7"
     rx="0"
     ry="0" />
  <path
     inkscape:connector-curvature="0"
     style="font-size:40.26989365px;font-style:normal;font-variant:normal;font-weight:normal;font-stretch:normal;line-height:200%;letter-spacing:0px;word-spacing:0px;opacity:0.5;fill:#ffffff;fill-opacity:1;stroke:none;font-family:Open Sans;-inkscape-font-specification:Open Sans"
     d="M 5.597222,5.749998 C 5.029178,5.750005 4.580967,5.935604 4.243056,6.305554 3.916793,6.66095 3.75,7.127523 3.75,7.701387 l 0,0.243056 0.493056,0 0,-0.243056 C 4.243053,7.264436 4.353202,6.914955 4.583333,6.652776 4.828027,6.378956 5.166089,6.24306 5.597222,6.243054 c 0.337909,6e-6 0.635451,0.120452 0.888889,0.368056 0.256345,0.2447 0.38194,0.537091 0.381945,0.875 -5e-6,0.381612 -0.195227,0.797363 -0.597223,1.243055 -1.197262,1.229306 -2.108688,2.13782 -2.729166,2.729167 l 0.173611,0.416666 3.520833,0 0,-0.486111 -2.930555,0 L 6.25,9.451387 C 6.611213,9.093086 6.861289,8.803608 7.006945,8.576387 7.239985,8.223913 7.361107,7.858983 7.361111,7.48611 7.361107,7.014202 7.182893,6.604718 6.833333,6.263887 6.483765,5.920154 6.072045,5.750005 5.597222,5.749998 z m 5.416667,0.02778 -1.708333,2.444445 C 9.040467,8.603834 8.862256,8.879658 8.777778,9.048612 8.629211,9.354484 8.555556,9.666798 8.555556,9.993056 c 0,0.547653 0.189629,1.020494 0.5625,1.416667 C 9.493836,11.802983 9.95526,12 10.5,12 c 0.5593,0 1.02296,-0.19478 1.395833,-0.576388 0.375778,-0.381608 0.562496,-0.850417 0.5625,-1.409723 -4e-6,-0.503954 -0.173066,-0.953958 -0.513888,-1.347222 C 11.586136,8.253019 11.16188,8.048615 10.666667,8.048612 l -0.07639,0 -0.166667,0 -0.07639,0 c -0.121506,0 -0.241129,0.01698 -0.354166,0.04167 0.581622,-0.841834 1.082635,-1.563113 1.423611,-2.034722 L 11.013887,5.777782 z m -0.666667,2.763889 0.07639,0 0.243056,0 c 0.3583,3e-6 0.668378,0.154704 0.930555,0.472222 0.247605,0.300046 0.374996,0.632959 0.375,1 -4e-6,0.425306 -0.143962,0.783968 -0.423611,1.069445 -0.276742,0.285478 -0.623311,0.423611 -1.048611,0.423611 -0.410742,0 -0.759104,-0.148432 -1.041667,-0.451389 -0.273826,-0.294216 -0.409724,-0.648847 -0.409722,-1.0625 0,-0.309162 0.111434,-0.648638 0.333334,-1.013889 l 0.03472,0.03472 C 9.678844,8.696369 9.989208,8.556025 10.347221,8.541665 z"
     id="text3026-8-0" />
  <path
     id="rect6741-0-3"
     style="fill:none;stroke:url(#linearGradient3007);stroke-width:1;stroke-linecap:round;stroke-linejoin:round;stroke-miterlimit:4;stroke-dashoffset:0;stroke-opacity:1"
     d="m 2.5,2.4999971 11,0 0,10.9999999 -11,0 z M 2.7346471,8.5 13.265356,8.5" />
  <path
     inkscape:connector-curvature="0"
     style="font-size:40.26989365px;font-style:normal;font-variant:normal;font-weight:normal;font-stretch:normal;line-height:200%;letter-spacing:0px;word-spacing:0px;fill:#61ad27;fill-opacity:1;stroke:none;font-family:Open Sans;-inkscape-font-specification:Open Sans"
     d="M 5.597222,4.749998 C 5.029178,4.750005 4.580967,4.935603 4.243056,5.305554 3.916793,5.66095 3.75,6.127523 3.75,6.701387 l 0,0.243056 0.493056,0 0,-0.243056 c -3e-6,-0.436952 0.110146,-0.786432 0.340277,-1.048611 0.244694,-0.27382 0.582756,-0.409717 1.013889,-0.409722 0.337909,5e-6 0.635451,0.120452 0.888889,0.368055 0.256345,0.244701 0.38194,0.537092 0.381945,0.875 -5e-6,0.381613 -0.195227,0.797364 -0.597223,1.243056 -1.197262,1.229306 -2.108688,2.13782 -2.729166,2.729167 l 0.173611,0.416666 3.520833,0 0,-0.486111 -2.930555,0 L 6.25,8.451387 C 6.611213,8.093086 6.861289,7.803608 7.006945,7.576387 7.239985,7.223913 7.361107,6.858983 7.361111,6.486109 7.361107,6.014201 7.182893,5.604718 6.833333,5.263887 6.483765,4.920154 6.072045,4.750005 5.597222,4.749998 z m 5.416667,0.02778 -1.708333,2.444445 C 9.040467,7.603834 8.862256,7.879658 8.777778,8.048611 8.629211,8.354483 8.555556,8.666797 8.555556,8.993056 c 0,0.547653 0.189629,1.020494 0.5625,1.416667 C 9.493836,10.802983 9.95526,11 10.5,11 c 0.5593,0 1.02296,-0.19478 1.395833,-0.576389 0.375778,-0.381607 0.562496,-0.850416 0.5625,-1.409722 -4e-6,-0.503954 -0.173066,-0.953958 -0.513888,-1.347222 C 11.586136,7.253019 11.16188,7.048615 10.666667,7.048611 l -0.07639,0 -0.166667,0 -0.07639,0 c -0.121506,1e-6 -0.241129,0.01698 -0.354166,0.04167 0.581622,-0.841834 1.082635,-1.563113 1.423611,-2.034722 L 11.013887,4.777781 z m -0.666667,2.763889 0.07639,0 0.243056,0 c 0.3583,3e-6 0.668378,0.154704 0.930555,0.472222 0.247605,0.300046 0.374996,0.632959 0.375,1 -4e-6,0.425306 -0.143962,0.783968 -0.423611,1.069445 -0.276742,0.285478 -0.623311,0.423611 -1.048611,0.423611 -0.410742,0 -0.759104,-0.148432 -1.041667,-0.451389 C 9.184508,9.76134 9.04861,9.406709 9.048612,8.993056 c 0,-0.309162 0.111434,-0.648638 0.333334,-1.013889 l 0.03472,0.03472 C 9.678844,7.696369 9.989208,7.556025 10.347221,7.541665 z"
     id="text3026-8-0-3" />
</svg>
