<?xml version="1.0" encoding="UTF-8" standalone="no"?>
<!-- Created with Inkscape (http://www.inkscape.org/) -->

<svg
   xmlns:dc="http://purl.org/dc/elements/1.1/"
   xmlns:cc="http://creativecommons.org/ns#"
   xmlns:rdf="http://www.w3.org/1999/02/22-rdf-syntax-ns#"
   xmlns:svg="http://www.w3.org/2000/svg"
   xmlns="http://www.w3.org/2000/svg"
   xmlns:xlink="http://www.w3.org/1999/xlink"
   xmlns:sodipodi="http://sodipodi.sourceforge.net/DTD/sodipodi-0.dtd"
   xmlns:inkscape="http://www.inkscape.org/namespaces/inkscape"
   width="64px"
   height="64px"
   id="svg4092"
   version="1.1"
   inkscape:version="0.48.0 r9654"
   sodipodi:docname="audio-x-playlist.svg">
  <defs
     id="defs4094">
    <linearGradient
       inkscape:collect="always"
       xlink:href="#linearGradient4267"
       id="linearGradient3201"
       gradientUnits="userSpaceOnUse"
       gradientTransform="matrix(1.3525279,0,0,1.3543253,-0.6299238,-0.17720138)"
       x1="35.516502"
       y1="4.8577352"
       x2="34.102982"
       y2="6.5436172" />
    <linearGradient
       id="linearGradient4267">
      <stop
         id="stop4269"
         style="stop-color:#c4c4c4;stop-opacity:1"
         offset="0" />
      <stop
         id="stop4271"
         style="stop-color:#c4c4c4;stop-opacity:0"
         offset="1" />
    </linearGradient>
    <linearGradient
       inkscape:collect="always"
       xlink:href="#linearGradient8589"
       id="linearGradient3204"
       gradientUnits="userSpaceOnUse"
       gradientTransform="matrix(1.3538978,0,0,1.3812083,-0.611935,-1.690321)"
       x1="32.892288"
       y1="8.0590115"
       x2="36.358372"
       y2="5.4565363" />
    <linearGradient
       id="linearGradient8589">
      <stop
         id="stop8591"
         style="stop-color:#fefefe;stop-opacity:1"
         offset="0" />
      <stop
         id="stop8593"
         style="stop-color:#cbcbcb;stop-opacity:1"
         offset="1" />
    </linearGradient>
    <linearGradient
       inkscape:collect="always"
       xlink:href="#linearGradient3211"
       id="linearGradient3212"
       gradientUnits="userSpaceOnUse"
       gradientTransform="matrix(1.3636354,0,0,1.3255808,-0.7272518,-1.813939)"
       x1="24"
       y1="1.9999999"
       x2="24"
       y2="46.01725" />
    <linearGradient
       id="linearGradient3211">
      <stop
         id="stop3213"
         style="stop-color:#ffffff;stop-opacity:1"
         offset="0" />
      <stop
         id="stop3215"
         style="stop-color:#ffffff;stop-opacity:0"
         offset="1" />
    </linearGradient>
    <radialGradient
       inkscape:collect="always"
       xlink:href="#radialGradient2534"
       id="radialGradient4009"
       gradientUnits="userSpaceOnUse"
       gradientTransform="matrix(0.48936184,0,0,-0.52675767,0.6808514,63.740817)"
       cx="102"
       cy="112.3047"
       r="139.55859" />
    <radialGradient
       cx="102"
       cy="112.3047"
       r="139.55859"
       id="radialGradient2534"
       gradientUnits="userSpaceOnUse">
      <stop
         id="stop2536"
         style="stop-color:#000000;stop-opacity:1"
         offset="0" />
      <stop
         id="stop2538"
         style="stop-color:#000000;stop-opacity:1"
         offset="0.18851049" />
      <stop
         id="stop2540"
         style="stop-color:#000000;stop-opacity:0"
         offset="0.25718147" />
      <stop
         id="stop2542"
         style="stop-color:#000000;stop-opacity:0"
         offset="1" />
    </radialGradient>
    <radialGradient
       inkscape:collect="always"
       xlink:href="#linearGradient3993"
       id="radialGradient3221"
       gradientUnits="userSpaceOnUse"
       gradientTransform="matrix(0,4.2616625,-7.1151583,0,99.39928,-53.130482)"
       cx="14.239056"
       cy="11.49049"
       fx="14.239056"
       fy="11.49049"
       r="18.000002" />
    <linearGradient
       id="linearGradient3993">
      <stop
         offset="0"
         style="stop-color:#a3c0d0;stop-opacity:1"
         id="stop3995" />
      <stop
         offset="1"
         style="stop-color:#427da1;stop-opacity:1"
         id="stop4001" />
    </linearGradient>
    <linearGradient
       inkscape:collect="always"
       xlink:href="#linearGradient2508"
       id="linearGradient3223"
       gradientUnits="userSpaceOnUse"
       gradientTransform="matrix(1.0843521,0,0,1.1997373,79.550844,-4.1628004)"
       x1="-51.786404"
       y1="53.623615"
       x2="-51.786404"
       y2="2.9062471" />
    <linearGradient
       id="linearGradient2508">
      <stop
         offset="0"
         style="stop-color:#2e4a5a;stop-opacity:1"
         id="stop2510" />
      <stop
         offset="1"
         style="stop-color:#6e8796;stop-opacity:1"
         id="stop2512" />
    </linearGradient>
    <radialGradient
       inkscape:collect="always"
       xlink:href="#linearGradient5060"
       id="radialGradient3226"
       gradientUnits="userSpaceOnUse"
       gradientTransform="matrix(0.03132633,0,0,0.02058823,35.220859,49.451413)"
       cx="605.71429"
       cy="486.64789"
       fx="605.71429"
       fy="486.64789"
       r="117.14286" />
    <linearGradient
       id="linearGradient5060">
      <stop
         id="stop5062"
         style="stop-color:#000000;stop-opacity:1"
         offset="0" />
      <stop
         id="stop5064"
         style="stop-color:#000000;stop-opacity:0"
         offset="1" />
    </linearGradient>
    <radialGradient
       inkscape:collect="always"
       xlink:href="#linearGradient5060"
       id="radialGradient3229"
       gradientUnits="userSpaceOnUse"
       gradientTransform="matrix(-0.03132632,0,0,0.02058823,28.779136,49.451413)"
       cx="605.71429"
       cy="486.64789"
       fx="605.71429"
       fy="486.64789"
       r="117.14286" />
    <linearGradient
       id="linearGradient5048">
      <stop
         id="stop5050"
         style="stop-color:#000000;stop-opacity:0"
         offset="0" />
      <stop
         id="stop5056"
         style="stop-color:#000000;stop-opacity:1"
         offset="0.5" />
      <stop
         id="stop5052"
         style="stop-color:#000000;stop-opacity:0"
         offset="1" />
    </linearGradient>
    <linearGradient
       y2="609.50507"
       x2="302.85715"
       y1="366.64789"
       x1="302.85715"
       gradientTransform="matrix(0.09153846,0,0,0.02058823,-1.084616,49.45137)"
       gradientUnits="userSpaceOnUse"
       id="linearGradient4090"
       xlink:href="#linearGradient5048"
       inkscape:collect="always" />
  </defs>
  <sodipodi:namedview
     id="base"
     pagecolor="#ffffff"
     bordercolor="#666666"
     borderopacity="1.0"
     inkscape:pageopacity="0.0"
     inkscape:pageshadow="2"
     inkscape:zoom="5.5"
     inkscape:cx="32"
     inkscape:cy="32"
     inkscape:current-layer="layer1"
     showgrid="true"
     inkscape:document-units="px"
     inkscape:grid-bbox="true"
     inkscape:window-width="447"
     inkscape:window-height="446"
     inkscape:window-x="0"
     inkscape:window-y="46"
     inkscape:window-maximized="0" />
  <metadata
     id="metadata4097">
    <rdf:RDF>
      <cc:Work
         rdf:about="">
        <dc:format>image/svg+xml</dc:format>
        <dc:type
           rdf:resource="http://purl.org/dc/dcmitype/StillImage" />
        <dc:title></dc:title>
      </cc:Work>
    </rdf:RDF>
  </metadata>
  <g
     id="layer1"
     inkscape:label="Layer 1"
     inkscape:groupmode="layer">
    <rect
       style="opacity:0.3;fill:url(#linearGradient4090);fill-opacity:1;fill-rule:nonzero;stroke:none;stroke-width:1;marker:none;visibility:visible;display:inline;overflow:visible"
       id="rect2879"
       y="57"
       x="9.8999996"
       height="5"
       width="44.199997" />
    <path
       inkscape:connector-curvature="0"
       style="opacity:0.3;fill:url(#radialGradient3229);fill-opacity:1;fill-rule:nonzero;stroke:none;stroke-width:1;marker:none;visibility:visible;display:inline;overflow:visible"
       id="path2881"
       d="m 9.9,57.000217 c 0,0 0,4.999724 0,4.999724 C 8.2867719,62.009354 6,60.879757 6,59.499757 6,58.119759 7.8002408,57.000218 9.9,57.000217 z" />
    <path
       inkscape:connector-curvature="0"
       style="opacity:0.3;fill:url(#radialGradient3226);fill-opacity:1;fill-rule:nonzero;stroke:none;stroke-width:1;marker:none;visibility:visible;display:inline;overflow:visible"
       id="path2883"
       d="m 54.099999,57.000217 c 0,0 0,4.999724 0,4.999724 C 55.713227,62.009354 58,60.879757 58,59.499757 c 0,-1.379998 -1.800241,-2.499539 -3.900001,-2.49954 z" />
    <path
       inkscape:connector-curvature="0"
       style="fill:url(#radialGradient3221);fill-opacity:1;stroke:url(#linearGradient3223);stroke-width:0.99992186;stroke-linecap:butt;stroke-linejoin:round;stroke-miterlimit:4;stroke-opacity:1;stroke-dasharray:none;stroke-dashoffset:0;display:inline"
       id="path2636"
       d="m 8.4999608,0.49996096 c 10.7701032,0 21.5402072,0 32.3103122,0 0.705313,2.62811804 8.235863,9.18621784 14.689765,12.90650804 0,15.364523 0,30.729045 0,46.093568 -15.666693,0 -31.333383,0 -47.0000772,0 0,-19.666693 0,-39.333385 0,-59.00007604 l 0,0 z" />
    <path
       inkscape:connector-curvature="0"
       style="opacity:0.05;fill:url(#radialGradient4009);fill-opacity:1"
       id="path4191"
       d="M 9.4893615,59 C 9.2197244,59 9,58.763486 9,58.47324 L 9,1.5834388 C 9,1.2926698 9.2197244,1.0566823 9.4893615,1.0566823 19.613544,1.2022829 30.832933,0.83888402 40.944815,1.0929355 L 54.856617,13.044074 55,58.47324 C 55,58.763486 54.780766,59 54.510638,59 L 9.4893615,59 z" />
    <path
       inkscape:connector-curvature="0"
       style="opacity:0.4;fill:none;stroke:url(#linearGradient3212);stroke-width:0.9999218;stroke-linecap:butt;stroke-linejoin:round;stroke-miterlimit:4;stroke-opacity:1;stroke-dasharray:none;stroke-dashoffset:0;display:inline"
       id="path2435"
       d="m 54.500038,13.404529 c 0,14.843693 0,30.251815 0,45.095508 -15.000024,0 -30.00005,0 -45.0000771,0 0,-19.000026 0,-38.000051 0,-57.0000762 10.3118021,0 20.8695341,0 31.1813361,0" />
    <g
       id="g3423"
       transform="translate(-31.058336,1.1870602e-7)">
      <path
         inkscape:connector-curvature="0"
         style="opacity:0.05;fill:#000000;fill-opacity:1;fill-rule:evenodd;stroke:none;display:inline"
         id="path3232"
         d="m 66.793324,0.98784908 c 6.564831,0 3.300793,13.00415592 3.300793,13.00415592 0,0 15.877601,-3.622726 15.877601,2.802845 0,0 0.03625,-3.052742 0.03625,-3.052742 C 82.616299,10.350441 75.428771,3.7146517 70.80341,1.1886238 c 0,0 -4.010086,-0.20077472 -4.010086,-0.20077472 l 0,0 z" />
      <path
         inkscape:connector-curvature="0"
         style="opacity:0.1;fill:#000000;fill-opacity:1;fill-rule:evenodd;stroke:none;display:inline"
         id="path3230"
         d="m 68.039349,0.98784908 c 6.138312,0 3.08634,12.15927292 3.08634,12.15927292 0,0 14.846029,-2.8422 14.846029,3.094153 C 86.757926,11.17637 72.877187,-0.58832169 68.039349,0.98784908 l 0,0 z" />
      <path
         inkscape:connector-curvature="0"
         style="opacity:0.15;fill:#000000;fill-opacity:1;fill-rule:evenodd;stroke:none;display:inline"
         id="path3382"
         d="m 72.054106,12.386727 c 0,0 13.917613,-2.4218218 13.917613,3.787561 0,-3.506698 -7.835918,-13.315375 -16.810946,-15.18643892 4.363138,1.67014312 3.770311,7.26544222 2.893333,11.39887792 z" />
    </g>
    <path
       inkscape:connector-curvature="0"
       style="fill:url(#linearGradient3204);fill-opacity:1;fill-rule:evenodd;stroke:none;display:inline"
       id="path4474"
       d="m 38,1.0000001 c 4.324139,0 3.169676,10.1689109 3.169676,10.1689109 0,0 13.807868,-1.3020627 13.807868,4.831089 0,-1.494356 0.116586,-2.564493 -0.181538,-3.030804 C 52.654202,9.6190841 43.403114,2.1014808 40.062421,1.1161769 39.812428,1.0424443 39.258109,1.0000001 38,1.0000001 z" />
    <path
       inkscape:connector-curvature="0"
       style="fill:none;stroke:url(#linearGradient3201);stroke-width:0.9999218;stroke-linecap:butt;stroke-linejoin:round;stroke-miterlimit:4;stroke-opacity:1;stroke-dasharray:none;stroke-dashoffset:0;display:inline"
       id="path2669"
       d="m 40.704473,0.4999609 c 1.902916,0.6428347 12.126026,7.9626245 14.795567,13.0334921 0,15.520206 0,1.118047 0,16.638252 C 0.7959327,51.473793 7.8428477,0.4999609 40.704473,0.4999609 z" />
    <path
       inkscape:connector-curvature="0"
       d="m 42.511755,15.00252 c -5.499908,0.886281 -11.823897,1.798639 -17.308516,2.734419 -1.452355,0.708613 -1.125845,2.533304 -1.1901,3.857286 0,5.907865 0,11.815732 0,17.723597 -3.73266,-0.863403 -7.829735,1.953637 -7.991617,5.95799 -0.264255,2.493023 1.946483,4.663056 4.350458,4.72141 4.304215,0.104478 7.57554,-2.751179 7.622228,-6.362667 -0.047,-6.065285 0.01319,-12.132957 0,-18.199172 0.666345,-0.04935 11.086611,-1.975175 11.994208,-2.1034 0,4.543344 0,9.086687 0,13.630031 -3.442863,-1.024798 -6.884252,1.117017 -7.732121,4.706928 -0.627348,2.0796 0.318492,4.537937 2.360275,5.38996 3.985887,1.831518 9.592368,-1.878418 9.369915,-6.232485 -0.06173,-8.087737 0.0506,-16.178782 0,-24.267382 -0.104683,-0.760104 -0.61975,-1.611383 -1.47473,-1.556515 z"
       id="path3980"
       style="opacity:0.4;fill:#ffffff;fill-opacity:1;stroke:none" />
    <path
       inkscape:connector-curvature="0"
       d="m 42.511755,14.00252 c -5.499908,0.886281 -11.823897,1.79864 -17.308516,2.73442 -1.452355,0.708612 -1.125845,2.533304 -1.1901,3.857285 0,5.907865 0,11.815731 0,17.723597 -3.73266,-0.863403 -7.829735,1.953637 -7.991617,5.95799 -0.264255,2.493023 1.946483,4.663056 4.350458,4.72141 4.304215,0.104478 7.57554,-2.751178 7.622228,-6.362667 -0.047,-6.065285 0.01319,-12.132957 0,-18.199172 0.666345,-0.04935 11.086611,-1.975176 11.994208,-2.103399 0,4.543343 0,9.086687 0,13.63003 -3.442863,-1.024799 -6.884252,1.117017 -7.732121,4.706927 -0.627348,2.079601 0.318492,4.537939 2.360275,5.389962 3.985887,1.831517 9.592368,-1.878418 9.369915,-6.232485 -0.06173,-8.087737 0.0506,-16.178783 0,-24.267383 -0.104683,-0.760104 -0.61975,-1.611383 -1.47473,-1.556515 z"
       id="path2821"
       style="fill:#2e4a5a;fill-opacity:1;stroke:none" />
  </g>
</svg>
