<?xml version="1.0" encoding="UTF-8" standalone="no"?>
<!-- Created with Inkscape (http://www.inkscape.org/) -->

<svg
   xmlns:dc="http://purl.org/dc/elements/1.1/"
   xmlns:cc="http://creativecommons.org/ns#"
   xmlns:rdf="http://www.w3.org/1999/02/22-rdf-syntax-ns#"
   xmlns:svg="http://www.w3.org/2000/svg"
   xmlns="http://www.w3.org/2000/svg"
   xmlns:xlink="http://www.w3.org/1999/xlink"
   xmlns:sodipodi="http://sodipodi.sourceforge.net/DTD/sodipodi-0.dtd"
   xmlns:inkscape="http://www.inkscape.org/namespaces/inkscape"
   width="64px"
   height="64px"
   id="svg3934"
   version="1.1"
   inkscape:version="0.47 r22583"
   sodipodi:docname="text-x-install.svg">
  <defs
     id="defs3936">
    <linearGradient
       inkscape:collect="always"
       xlink:href="#linearGradient2490-3"
       id="linearGradient3838"
       gradientUnits="userSpaceOnUse"
       x1="25.075518"
       y1="45.914536"
       x2="25.075518"
       y2="6.4426208" />
    <linearGradient
       id="linearGradient2490-3">
      <stop
         id="stop2492-3"
         style="stop-color:#365f0e;stop-opacity:1"
         offset="0" />
      <stop
         id="stop2494-8"
         style="stop-color:#84a718;stop-opacity:1"
         offset="1" />
    </linearGradient>
    <linearGradient
       inkscape:collect="always"
       xlink:href="#linearGradient2490-3-7"
       id="linearGradient3840"
       gradientUnits="userSpaceOnUse"
       x1="25.075518"
       y1="45.914536"
       x2="25.075518"
       y2="6.4426208" />
    <linearGradient
       id="linearGradient2490-3-7">
      <stop
         id="stop2492-3-7"
         style="stop-color:#365f0e;stop-opacity:1"
         offset="0" />
      <stop
         id="stop2494-8-5"
         style="stop-color:#84a718;stop-opacity:1"
         offset="1" />
    </linearGradient>
    <linearGradient
       inkscape:collect="always"
       xlink:href="#linearGradient2490-3-1"
       id="linearGradient3842"
       gradientUnits="userSpaceOnUse"
       x1="25.075518"
       y1="45.914536"
       x2="25.075518"
       y2="6.4426208" />
    <linearGradient
       id="linearGradient2490-3-1">
      <stop
         id="stop2492-3-3"
         style="stop-color:#365f0e;stop-opacity:1"
         offset="0" />
      <stop
         id="stop2494-8-0"
         style="stop-color:#84a718;stop-opacity:1"
         offset="1" />
    </linearGradient>
    <linearGradient
       inkscape:collect="always"
       xlink:href="#linearGradient4267"
       id="linearGradient3008"
       gradientUnits="userSpaceOnUse"
       gradientTransform="matrix(1.3525279,0,0,1.3543253,-0.6299238,-0.17720138)"
       x1="35.516502"
       y1="4.8577352"
       x2="34.102982"
       y2="6.5436172" />
    <linearGradient
       id="linearGradient4267">
      <stop
         id="stop4269"
         style="stop-color:#c4c4c4;stop-opacity:1"
         offset="0" />
      <stop
         id="stop4271"
         style="stop-color:#c4c4c4;stop-opacity:0"
         offset="1" />
    </linearGradient>
    <linearGradient
       inkscape:collect="always"
       xlink:href="#linearGradient8589"
       id="linearGradient3011"
       gradientUnits="userSpaceOnUse"
       gradientTransform="matrix(1.3538978,0,0,1.3812083,-0.611935,-1.690321)"
       x1="32.892288"
       y1="8.0590115"
       x2="36.358372"
       y2="5.4565363" />
    <linearGradient
       id="linearGradient8589">
      <stop
         id="stop8591"
         style="stop-color:#fefefe;stop-opacity:1"
         offset="0" />
      <stop
         id="stop8593"
         style="stop-color:#cbcbcb;stop-opacity:1"
         offset="1" />
    </linearGradient>
    <linearGradient
       inkscape:collect="always"
       xlink:href="#linearGradient3211"
       id="linearGradient3018"
       gradientUnits="userSpaceOnUse"
       gradientTransform="matrix(1.3636354,0,0,1.3255808,-0.7272518,-1.813939)"
       x1="24"
       y1="1.9999999"
       x2="24"
       y2="46.01725" />
    <linearGradient
       id="linearGradient3211">
      <stop
         id="stop3213"
         style="stop-color:#ffffff;stop-opacity:1"
         offset="0" />
      <stop
         id="stop3215"
         style="stop-color:#ffffff;stop-opacity:0"
         offset="1" />
    </linearGradient>
    <radialGradient
       inkscape:collect="always"
       xlink:href="#radialGradient2534"
       id="radialGradient3021"
       gradientUnits="userSpaceOnUse"
       gradientTransform="matrix(0.4857141,0,0,-0.5239323,0.914304,63.5413)"
       cx="102"
       cy="112.3047"
       r="139.55859" />
    <radialGradient
       cx="102"
       cy="112.3047"
       r="139.55859"
       id="radialGradient2534"
       gradientUnits="userSpaceOnUse">
      <stop
         id="stop2536"
         style="stop-color:#000000;stop-opacity:1"
         offset="0" />
      <stop
         id="stop2538"
         style="stop-color:#000000;stop-opacity:1"
         offset="0.18851049" />
      <stop
         id="stop2540"
         style="stop-color:#000000;stop-opacity:0"
         offset="0.25718147" />
      <stop
         id="stop2542"
         style="stop-color:#000000;stop-opacity:0"
         offset="1" />
    </radialGradient>
    <radialGradient
       inkscape:collect="always"
       xlink:href="#linearGradient3242-7-2"
       id="radialGradient3027"
       gradientUnits="userSpaceOnUse"
       gradientTransform="matrix(-2.0120302e-8,4.005542,-4.5583883,-2.2897313e-8,75.179938,-49.937407)"
       cx="12.467079"
       cy="9.4726324"
       fx="12.467079"
       fy="9.4726324"
       r="18.000002" />
    <linearGradient
       id="linearGradient3242-7-2">
      <stop
         id="stop3244-5-9"
         style="stop-color:#eef87e;stop-opacity:1"
         offset="0" />
      <stop
         id="stop3246-9-9"
         style="stop-color:#cde34f;stop-opacity:1"
         offset="0.26238" />
      <stop
         id="stop3248-7-6"
         style="stop-color:#93b723;stop-opacity:1"
         offset="0.66093999" />
      <stop
         id="stop3250-8-0"
         style="stop-color:#5a7e0d;stop-opacity:1"
         offset="1" />
    </linearGradient>
    <linearGradient
       inkscape:collect="always"
       xlink:href="#linearGradient2490-3-76"
       id="linearGradient3029"
       gradientUnits="userSpaceOnUse"
       gradientTransform="matrix(1.0843521,0,0,1.1997373,79.550844,-4.1628004)"
       x1="-51.786404"
       y1="53.623615"
       x2="-51.786404"
       y2="2.9062471" />
    <linearGradient
       id="linearGradient2490-3-76">
      <stop
         id="stop2492-3-1"
         style="stop-color:#365f0e;stop-opacity:1"
         offset="0" />
      <stop
         id="stop2494-8-3"
         style="stop-color:#84a718;stop-opacity:1"
         offset="1" />
    </linearGradient>
    <radialGradient
       inkscape:collect="always"
       xlink:href="#linearGradient5060"
       id="radialGradient3032"
       gradientUnits="userSpaceOnUse"
       gradientTransform="matrix(0.03132633,0,0,0.02058823,35.220859,49.451413)"
       cx="605.71429"
       cy="486.64789"
       fx="605.71429"
       fy="486.64789"
       r="117.14286" />
    <linearGradient
       id="linearGradient5060">
      <stop
         id="stop5062"
         style="stop-color:#000000;stop-opacity:1"
         offset="0" />
      <stop
         id="stop5064"
         style="stop-color:#000000;stop-opacity:0"
         offset="1" />
    </linearGradient>
    <radialGradient
       inkscape:collect="always"
       xlink:href="#linearGradient5060"
       id="radialGradient3035"
       gradientUnits="userSpaceOnUse"
       gradientTransform="matrix(-0.03132632,0,0,0.02058823,28.779136,49.451413)"
       cx="605.71429"
       cy="486.64789"
       fx="605.71429"
       fy="486.64789"
       r="117.14286" />
    <linearGradient
       id="linearGradient5048">
      <stop
         id="stop5050"
         style="stop-color:#000000;stop-opacity:0"
         offset="0" />
      <stop
         id="stop5056"
         style="stop-color:#000000;stop-opacity:1"
         offset="0.5" />
      <stop
         id="stop5052"
         style="stop-color:#000000;stop-opacity:0"
         offset="1" />
    </linearGradient>
    <linearGradient
       y2="609.50507"
       x2="302.85715"
       y1="366.64789"
       x1="302.85715"
       gradientTransform="matrix(0.09153846,0,0,0.02058823,-1.084616,49.45137)"
       gradientUnits="userSpaceOnUse"
       id="linearGradient3932"
       xlink:href="#linearGradient5048"
       inkscape:collect="always" />
  </defs>
  <sodipodi:namedview
     id="base"
     pagecolor="#ffffff"
     bordercolor="#666666"
     borderopacity="1.0"
     inkscape:pageopacity="0.0"
     inkscape:pageshadow="2"
     inkscape:zoom="5.5"
     inkscape:cx="32"
     inkscape:cy="32"
     inkscape:current-layer="layer1"
     showgrid="true"
     inkscape:document-units="px"
     inkscape:grid-bbox="true"
     inkscape:window-width="603"
     inkscape:window-height="479"
     inkscape:window-x="0"
     inkscape:window-y="46"
     inkscape:window-maximized="0" />
  <metadata
     id="metadata3939">
    <rdf:RDF>
      <cc:Work
         rdf:about="">
        <dc:format>image/svg+xml</dc:format>
        <dc:type
           rdf:resource="http://purl.org/dc/dcmitype/StillImage" />
        <dc:title></dc:title>
      </cc:Work>
    </rdf:RDF>
  </metadata>
  <g
     id="layer1"
     inkscape:label="Layer 1"
     inkscape:groupmode="layer">
    <rect
       style="opacity:0.3;fill:url(#linearGradient3932);fill-opacity:1;fill-rule:nonzero;stroke:none;stroke-width:1;marker:none;visibility:visible;display:inline;overflow:visible"
       id="rect2879"
       y="57"
       x="9.8999996"
       height="5"
       width="44.199997" />
    <path
       style="opacity:0.3;fill:url(#radialGradient3035);fill-opacity:1;fill-rule:nonzero;stroke:none;stroke-width:1;marker:none;visibility:visible;display:inline;overflow:visible"
       id="path2881"
       d="m 9.9,57.000217 c 0,0 0,4.999724 0,4.999724 C 8.2867719,62.009354 6,60.879757 6,59.499757 6,58.119759 7.8002408,57.000218 9.9,57.000217 z" />
    <path
       style="opacity:0.3;fill:url(#radialGradient3032);fill-opacity:1;fill-rule:nonzero;stroke:none;stroke-width:1;marker:none;visibility:visible;display:inline;overflow:visible"
       id="path2883"
       d="m 54.099999,57.000217 c 0,0 0,4.999724 0,4.999724 C 55.713227,62.009354 58,60.879757 58,59.499757 c 0,-1.379998 -1.800241,-2.499539 -3.900001,-2.49954 z" />
    <path
       style="fill:url(#radialGradient3027);fill-opacity:1;stroke:url(#linearGradient3029);stroke-width:0.99992186;stroke-linecap:butt;stroke-linejoin:round;stroke-miterlimit:4;stroke-opacity:1;stroke-dasharray:none;stroke-dashoffset:0;display:inline"
       id="path2636"
       d="m 8.4999608,0.49996096 c 10.7701032,0 21.5402072,0 32.3103122,0 0.705313,2.62811804 8.235863,9.18621784 14.689765,12.90650804 0,15.364523 0,30.729045 0,46.093568 -15.666693,0 -31.333383,0 -47.0000772,0 0,-19.666693 0,-39.333385 0,-59.00007604 l 0,0 z" />
    <path
       style="opacity:0.05;fill:url(#radialGradient3021);fill-opacity:1"
       id="path4191"
       d="m 9.6571549,58.825911 c -0.2676272,0 -0.4857138,-0.235245 -0.4857138,-0.523935 l 0,-56.5846615 c 0,-0.2892094 0.2180866,-0.5239311 0.4857138,-0.5239311 C 19.705871,1.338203 30.84163,0.97675336 40.878137,1.2294421 L 54.68624,13.116478 54.828554,58.301976 c 0,0.28869 -0.2176,0.523935 -0.485714,0.523935 l -44.6856851,0 z" />
    <path
       style="opacity:0.4;fill:none;stroke:url(#linearGradient3018);stroke-width:0.9999218;stroke-linecap:butt;stroke-linejoin:round;stroke-miterlimit:4;stroke-opacity:1;stroke-dasharray:none;stroke-dashoffset:0;display:inline"
       id="path2435"
       d="m 54.500038,13.404529 c 0,14.843693 0,30.251815 0,45.095508 -15.000024,0 -30.00005,0 -45.0000771,0 0,-19.000026 0,-38.000051 0,-57.0000762 10.3118021,0 20.8695341,0 31.1813361,0" />
    <g
       id="g3423"
       transform="translate(-31.058336,1.1870602e-7)">
      <path
         style="opacity:0.05;fill:#000000;fill-opacity:1;fill-rule:evenodd;stroke:none;display:inline"
         id="path3232"
         d="m 66.793324,0.98784908 c 6.564831,0 3.300793,13.00415592 3.300793,13.00415592 0,0 15.877601,-3.622726 15.877601,2.802845 0,0 0.03625,-3.052742 0.03625,-3.052742 C 82.616299,10.350441 75.428771,3.7146517 70.80341,1.1886238 c 0,0 -4.010086,-0.20077472 -4.010086,-0.20077472 l 0,0 z" />
      <path
         style="opacity:0.1;fill:#000000;fill-opacity:1;fill-rule:evenodd;stroke:none;display:inline"
         id="path3230"
         d="m 68.039349,0.98784908 c 6.138312,0 3.08634,12.15927292 3.08634,12.15927292 0,0 14.846029,-2.8422 14.846029,3.094153 C 86.757926,11.17637 72.877187,-0.58832169 68.039349,0.98784908 l 0,0 z" />
      <path
         style="opacity:0.15;fill:#000000;fill-opacity:1;fill-rule:evenodd;stroke:none;display:inline"
         id="path3382"
         d="m 72.054106,12.386727 c 0,0 13.917613,-2.4218218 13.917613,3.787561 0,-3.506698 -7.835918,-13.315375 -16.810946,-15.18643892 4.363138,1.67014312 3.770311,7.26544222 2.893333,11.39887792 z" />
    </g>
    <path
       style="fill:url(#linearGradient3011);fill-opacity:1;fill-rule:evenodd;stroke:none;display:inline"
       id="path4474"
       d="m 38,1.0000001 c 4.324139,0 3.169676,10.1689109 3.169676,10.1689109 0,0 13.807868,-1.3020627 13.807868,4.831089 0,-1.494356 0.116586,-2.564493 -0.181538,-3.030804 C 52.654202,9.6190841 43.403114,2.1014808 40.062421,1.1161769 39.812428,1.0424443 39.258109,1.0000001 38,1.0000001 z" />
    <path
       style="fill:none;stroke:url(#linearGradient3008);stroke-width:0.9999218;stroke-linecap:butt;stroke-linejoin:round;stroke-miterlimit:4;stroke-opacity:1;stroke-dasharray:none;stroke-dashoffset:0;display:inline"
       id="path2669"
       d="m 40.704473,0.4999609 c 1.902916,0.6428347 12.126026,7.9626245 14.795567,13.0334921 0,15.520206 0,1.118047 0,16.638252 C 0.7959327,51.473793 7.8428477,0.4999609 40.704473,0.4999609 z" />
    <path
       sodipodi:type="inkscape:offset"
       inkscape:radius="2.9088786"
       inkscape:original="M 19 17 L 19 26 L 14.5 26 L 24 37 L 33.5 26 L 29 26 L 29 17 L 19 17 z "
       style="opacity:0.05;color:#000000;fill:url(#linearGradient3842);fill-opacity:1;fill-rule:nonzero;stroke:none;stroke-width:0.98542732;marker:none;visibility:visible;display:inline;overflow:visible;enable-background:accumulate"
       id="path3932-8-3"
       d="M 18.71875,14.09375 A 2.9091695,2.9091695 0 0 0 16.09375,17 l 0,6.09375 -1.59375,0 a 2.9091695,2.9091695 0 0 0 -2.1875,4.8125 l 9.5,11 a 2.9091695,2.9091695 0 0 0 4.375,0 l 9.5,-11 A 2.9091695,2.9091695 0 0 0 33.5,23.09375 l -1.59375,0 0,-6.09375 A 2.9091695,2.9091695 0 0 0 29,14.09375 l -10,0 a 2.9091695,2.9091695 0 0 0 -0.28125,0 z"
       transform="matrix(1.4102564,0,0,1.4102564,-1.8461541,-5.8088165)" />
    <path
       sodipodi:type="inkscape:offset"
       inkscape:radius="2.0260036"
       inkscape:original="M 19 17 L 19 26 L 14.5 26 L 24 37 L 33.5 26 L 29 26 L 29 17 L 19 17 z "
       style="opacity:0.1;color:#000000;fill:url(#linearGradient3840);fill-opacity:1;fill-rule:nonzero;stroke:none;stroke-width:0.98542732;marker:none;visibility:visible;display:inline;overflow:visible;enable-background:accumulate"
       id="path3932-8"
       d="M 18.8125,14.96875 A 2.0262062,2.0262062 0 0 0 16.96875,17 l 0,6.96875 -2.46875,0 a 2.0262062,2.0262062 0 0 0 -1.53125,3.34375 l 9.5,11 a 2.0262062,2.0262062 0 0 0 3.0625,0 l 9.5,-11 A 2.0262062,2.0262062 0 0 0 33.5,23.96875 l -2.46875,0 0,-6.96875 A 2.0262062,2.0262062 0 0 0 29,14.96875 l -10,0 a 2.0262062,2.0262062 0 0 0 -0.1875,0 z"
       transform="matrix(1.4102564,0,0,1.4102564,-1.8461541,-5.8020556)" />
    <path
       sodipodi:type="inkscape:offset"
       inkscape:radius="1.0547382"
       inkscape:original="M 19 17 L 19 26 L 14.5 26 L 24 37 L 33.5 26 L 29 26 L 29 17 L 19 17 z "
       style="opacity:0.25;fill:url(#linearGradient3838);fill-opacity:1;fill-rule:nonzero;stroke:none;stroke-width:0.98542732;marker:none;visibility:visible;display:inline;overflow:visible"
       id="path3932"
       d="M 18.90625,15.9375 A 1.0548436,1.0548436 0 0 0 17.9375,17 l 0,7.9375 -3.4375,0 a 1.0548436,1.0548436 0 0 0 -0.8125,1.75 l 9.5,11 a 1.0548436,1.0548436 0 0 0 1.625,0 l 9.5,-11 A 1.0548436,1.0548436 0 0 0 33.5,24.9375 l -3.4375,0 0,-7.9375 A 1.0548436,1.0548436 0 0 0 29,15.9375 l -10,0 a 1.0548436,1.0548436 0 0 0 -0.09375,0 z"
       transform="matrix(1.4102564,0,0,1.4102564,-1.8461541,-5.8216237)" />
    <g
       id="g3834"
       transform="translate(85.694969,3.5002139)">
      <path
         sodipodi:nodetypes="cccccccc"
         style="fill:#f2f2f2;fill-opacity:1;fill-rule:nonzero;stroke:none;stroke-width:0.98542732;marker:none;visibility:visible;display:inline;overflow:visible"
         d="m -40.287259,27.474576 -13.407711,15.569609 -13.40771,-15.569609 6.407711,0 0,-13 14,0 0,13 6.40771,0 z"
         id="path3288" />
      <path
         sodipodi:nodetypes="cccccccc"
         style="fill:none;stroke:#ffffff;stroke-width:0.98542732;stroke-opacity:1;marker:none;visibility:visible;display:inline;overflow:visible"
         d="m -41.707791,27.974576 -11.987179,14 -11.987179,-14 5.48718,0 0,-13 13,0 0,13 5.487178,0 z"
         id="path3288-2" />
    </g>
  </g>
</svg>
