<?xml version="1.0" encoding="UTF-8" standalone="no"?>
<!-- Created with Inkscape (http://www.inkscape.org/) -->
<svg
   xmlns:dc="http://purl.org/dc/elements/1.1/"
   xmlns:cc="http://creativecommons.org/ns#"
   xmlns:rdf="http://www.w3.org/1999/02/22-rdf-syntax-ns#"
   xmlns:svg="http://www.w3.org/2000/svg"
   xmlns="http://www.w3.org/2000/svg"
   xmlns:xlink="http://www.w3.org/1999/xlink"
   xmlns:sodipodi="http://sodipodi.sourceforge.net/DTD/sodipodi-0.dtd"
   xmlns:inkscape="http://www.inkscape.org/namespaces/inkscape"
   width="128"
   height="128"
   id="svg3968"
   sodipodi:version="0.32"
   inkscape:version="0.46"
   sodipodi:docname="phone-motorola-droid128b.svg"
   inkscape:output_extension="org.inkscape.output.svg.inkscape"
   version="1.0">
  <defs
     id="defs3970">
    <inkscape:perspective
       sodipodi:type="inkscape:persp3d"
       inkscape:vp_x="0 : 64 : 1"
       inkscape:vp_y="0 : 1000 : 0"
       inkscape:vp_z="128 : 64 : 1"
       inkscape:persp3d-origin="64 : 42.666667 : 1"
       id="perspective99" />
    <linearGradient
       inkscape:collect="always"
       id="linearGradient3967">
      <stop
         style="stop-color:#ffffff;stop-opacity:1;"
         offset="0"
         id="stop3969" />
      <stop
         style="stop-color:#ffffff;stop-opacity:0;"
         offset="1"
         id="stop3971" />
    </linearGradient>
    <linearGradient
       inkscape:collect="always"
       id="linearGradient3910">
      <stop
         style="stop-color:#2f2f2f;stop-opacity:1"
         offset="0"
         id="stop3912" />
      <stop
         style="stop-color:#000000;stop-opacity:1"
         offset="1"
         id="stop3914" />
    </linearGradient>
    <linearGradient
       inkscape:collect="always"
       id="linearGradient3918">
      <stop
         style="stop-color:#000000;stop-opacity:1;"
         offset="0"
         id="stop3920" />
      <stop
         style="stop-color:#1e1e1e;stop-opacity:1"
         offset="1"
         id="stop3922" />
    </linearGradient>
    <linearGradient
       inkscape:collect="always"
       id="linearGradient3847">
      <stop
         style="stop-color:#ababab;stop-opacity:1"
         offset="0"
         id="stop3849" />
      <stop
         style="stop-color:#dcdcdc;stop-opacity:0"
         offset="1"
         id="stop3851" />
    </linearGradient>
    <linearGradient
       inkscape:collect="always"
       id="linearGradient3731-3">
      <stop
         style="stop-color:#cdcdcd;stop-opacity:1;"
         offset="0"
         id="stop3733-3" />
      <stop
         style="stop-color:#303030;stop-opacity:1"
         offset="1"
         id="stop3735-2" />
    </linearGradient>
    <linearGradient
       inkscape:collect="always"
       id="linearGradient3898">
      <stop
         style="stop-color:#030303;stop-opacity:1;"
         offset="0"
         id="stop3900" />
      <stop
         style="stop-color:#383838;stop-opacity:0"
         offset="1"
         id="stop3902" />
    </linearGradient>
    <linearGradient
       inkscape:collect="always"
       id="linearGradient3771">
      <stop
         style="stop-color:#ffffff;stop-opacity:1;"
         offset="0"
         id="stop3773" />
      <stop
         style="stop-color:#0d0d0d;stop-opacity:1"
         offset="1"
         id="stop3775" />
    </linearGradient>
    <linearGradient
       inkscape:collect="always"
       id="linearGradient3779">
      <stop
         style="stop-color:#5b5b5b;stop-opacity:1"
         offset="0"
         id="stop3781" />
      <stop
         style="stop-color:#000000;stop-opacity:1"
         offset="1"
         id="stop3783" />
    </linearGradient>
    <linearGradient
       id="linearGradient3709">
      <stop
         style="stop-color:#adadad;stop-opacity:1;"
         offset="0"
         id="stop3711" />
      <stop
         style="stop-color:#434343;stop-opacity:1"
         offset="1"
         id="stop3713" />
    </linearGradient>
    <linearGradient
       id="linearGradient3793">
      <stop
         style="stop-color:#3f3f3f;stop-opacity:1"
         offset="0"
         id="stop3795" />
      <stop
         id="stop5268"
         offset="0.36093229"
         style="stop-color:#3c3c3c;stop-opacity:1;" />
      <stop
         id="stop5266"
         offset="0.66032284"
         style="stop-color:#2e2e2e;stop-opacity:1" />
      <stop
         style="stop-color:#202020;stop-opacity:1"
         offset="1"
         id="stop3797" />
    </linearGradient>
    <linearGradient
       inkscape:collect="always"
       id="linearGradient5258">
      <stop
         style="stop-color:#5f5f5f;stop-opacity:1"
         offset="0"
         id="stop5260" />
      <stop
         style="stop-color:#252525;stop-opacity:1"
         offset="1"
         id="stop5262" />
    </linearGradient>
    <linearGradient
       id="linearGradient5060">
      <stop
         id="stop5062"
         style="stop-color:#000000;stop-opacity:1"
         offset="0" />
      <stop
         id="stop5064"
         style="stop-color:#000000;stop-opacity:0"
         offset="1" />
    </linearGradient>
    <linearGradient
       id="linearGradient5048">
      <stop
         id="stop5050"
         style="stop-color:#000000;stop-opacity:0"
         offset="0" />
      <stop
         id="stop5056"
         style="stop-color:#000000;stop-opacity:1"
         offset="0.5" />
      <stop
         id="stop5052"
         style="stop-color:#000000;stop-opacity:0"
         offset="1" />
    </linearGradient>
    <linearGradient
       inkscape:collect="always"
       xlink:href="#linearGradient5048"
       id="linearGradient3360"
       gradientUnits="userSpaceOnUse"
       gradientTransform="matrix(3.2949134,0,0,2.5953268,-2121.8877,-1254.2044)"
       x1="302.85715"
       y1="366.64789"
       x2="302.85715"
       y2="609.50507" />
    <radialGradient
       inkscape:collect="always"
       xlink:href="#linearGradient5060"
       id="radialGradient3362"
       gradientUnits="userSpaceOnUse"
       gradientTransform="matrix(3.2949134,0,0,2.5953268,-2121.2392,-1254.2044)"
       cx="605.71429"
       cy="486.64789"
       fx="605.71429"
       fy="486.64789"
       r="117.14286" />
    <radialGradient
       inkscape:collect="always"
       xlink:href="#linearGradient5060"
       id="radialGradient3364"
       gradientUnits="userSpaceOnUse"
       gradientTransform="matrix(-3.2949134,0,0,2.5953268,259.21603,-1254.2044)"
       cx="605.71429"
       cy="486.64789"
       fx="605.71429"
       fy="486.64789"
       r="117.14286" />
    <linearGradient
       inkscape:collect="always"
       xlink:href="#linearGradient3793"
       id="linearGradient3440"
       gradientUnits="userSpaceOnUse"
       x1="-393.4332"
       y1="67.439331"
       x2="-221.40564"
       y2="68.025116"
       gradientTransform="matrix(0.9854756,0,0,1,-5.7870689,0)" />
    <linearGradient
       inkscape:collect="always"
       xlink:href="#linearGradient3709"
       id="linearGradient3442"
       gradientUnits="userSpaceOnUse"
       x1="-397.0625"
       y1="72.4375"
       x2="-212.125"
       y2="72.4375" />
    <linearGradient
       inkscape:collect="always"
       xlink:href="#linearGradient3967"
       id="linearGradient2490"
       gradientUnits="userSpaceOnUse"
       gradientTransform="matrix(0.3064019,0,0,0.3319503,158.62684,36.63732)"
       x1="-282.75"
       y1="4.7030401"
       x2="-362.78125"
       y2="11.71875" />
    <linearGradient
       inkscape:collect="always"
       xlink:href="#linearGradient3918"
       id="linearGradient2493"
       gradientUnits="userSpaceOnUse"
       gradientTransform="matrix(0.2938167,0,0,0.3796678,153.47979,38.888062)"
       x1="-314.02853"
       y1="-83.613548"
       x2="-314.02853"
       y2="-75.273575" />
    <linearGradient
       inkscape:collect="always"
       xlink:href="#linearGradient3910"
       id="linearGradient2495"
       gradientUnits="userSpaceOnUse"
       gradientTransform="matrix(0.2938167,0,0,0.3796678,153.47979,38.888062)"
       x1="-305.52853"
       y1="-78.313988"
       x2="-305.52853"
       y2="-85.985588" />
    <linearGradient
       inkscape:collect="always"
       xlink:href="#linearGradient3847"
       id="linearGradient2499"
       gradientUnits="userSpaceOnUse"
       gradientTransform="matrix(0.3170458,0,0,0.4380087,158.37716,12.012099)"
       x1="-400.99518"
       y1="189.64571"
       x2="-222.53372"
       y2="218.64571" />
    <linearGradient
       inkscape:collect="always"
       xlink:href="#linearGradient3731-3"
       id="linearGradient2504"
       gradientUnits="userSpaceOnUse"
       gradientTransform="matrix(0.3502658,0,0,0.3189496,170.72976,35.39519)"
       x1="-389.48654"
       y1="65.211327"
       x2="-175.06407"
       y2="61.538403" />
    <linearGradient
       inkscape:collect="always"
       xlink:href="#linearGradient3898"
       id="linearGradient2507"
       gradientUnits="userSpaceOnUse"
       gradientTransform="matrix(0.3447881,0,0,0.3289022,169.01939,36.327462)"
       x1="-307.51242"
       y1="224.49969"
       x2="-307.32642"
       y2="-102.18364" />
    <radialGradient
       inkscape:collect="always"
       xlink:href="#linearGradient3779"
       id="radialGradient2510"
       gradientUnits="userSpaceOnUse"
       gradientTransform="matrix(0.352176,0,0,0.4012634,206.28464,9.0057337)"
       cx="-398"
       cy="257.92444"
       fx="-398"
       fy="257.92444"
       r="2.3125" />
    <linearGradient
       inkscape:collect="always"
       xlink:href="#linearGradient3771"
       id="linearGradient2512"
       gradientUnits="userSpaceOnUse"
       gradientTransform="matrix(0.5011737,0,0,0.2837863,265.58567,39.264448)"
       x1="-396.625"
       y1="260.44583"
       x2="-399.5625"
       y2="258.25833" />
    <linearGradient
       inkscape:collect="always"
       xlink:href="#linearGradient5258"
       id="linearGradient2518"
       gradientUnits="userSpaceOnUse"
       gradientTransform="matrix(0.3200148,0,0,0.3287428,162.80906,36.299718)"
       x1="-301.94336"
       y1="152.96133"
       x2="-245.23868"
       y2="134.96133" />
  </defs>
  <sodipodi:namedview
     id="base"
     pagecolor="#ffffff"
     bordercolor="#666666"
     borderopacity="1.0"
     inkscape:pageopacity="0.0"
     inkscape:pageshadow="2"
     inkscape:zoom="4"
     inkscape:cx="75.385395"
     inkscape:cy="93.236016"
     inkscape:current-layer="layer1"
     showgrid="true"
     inkscape:grid-bbox="true"
     inkscape:document-units="px">
    <inkscape:grid
       type="xygrid"
       id="grid4079"
       visible="true"
       enabled="true" />
  </sodipodi:namedview>
  <metadata
     id="metadata3973">
    <rdf:RDF>
      <cc:Work
         rdf:about="">
        <dc:format>image/svg+xml</dc:format>
        <dc:type
           rdf:resource="http://purl.org/dc/dcmitype/StillImage" />
      </cc:Work>
    </rdf:RDF>
  </metadata>
  <g
     id="layer1"
     inkscape:label="Layer 1"
     inkscape:groupmode="layer">
    <g
       id="g3314">
      <g
         id="g4245"
         transform="matrix(3.2136584e-2,0,0,2.54196e-2,93.91954,119.54301)">
        <rect
           style="opacity:0.40206185;fill:url(#linearGradient3360);fill-opacity:1;fill-rule:nonzero;stroke:none;stroke-width:1;marker:none;visibility:visible;display:inline;overflow:visible"
           id="rect4247"
           y="-302.63333"
           x="-1726.4982"
           height="630.29364"
           width="1590.9725" />
        <path
           style="opacity:0.40206185;fill:url(#radialGradient3362);fill-opacity:1;fill-rule:nonzero;stroke:none;stroke-width:1;marker:none;visibility:visible;display:inline;overflow:visible"
           id="path4249"
           d="M -135.52559,-302.61162 C -135.52559,-302.61162 -135.52559,327.64726 -135.52559,327.64726 C 34.154293,328.83371 274.67781,186.43822 274.67771,12.477262 C 274.67771,-161.48373 85.327731,-302.6116 -135.52559,-302.61162 L -135.52559,-302.61162 z" />
        <path
           style="opacity:0.40206185;fill:url(#radialGradient3364);fill-opacity:1;fill-rule:nonzero;stroke:none;stroke-width:1;marker:none;visibility:visible;display:inline;overflow:visible"
           id="path4251"
           d="M -1726.4981,-302.61162 C -1726.4981,-302.61162 -1726.4981,327.64726 -1726.4981,327.64726 C -1896.1779,328.83371 -2136.7014,186.43822 -2136.7014,12.477262 C -2136.7014,-161.48373 -1947.3515,-302.6116 -1726.4981,-302.61162 L -1726.4981,-302.61162 z" />
      </g>
      <rect
         style="fill:url(#linearGradient2518);fill-opacity:1;stroke:none;stroke-width:0.09999999;marker:none;visibility:visible;display:inline;overflow:visible;enable-background:accumulate"
         id="rect4253"
         width="60.068256"
         height="118.16473"
         x="35.301327"
         y="1.6959795"
         ry="4.1346607" />
      <g
         style="stroke-width:0.10075657;stroke-miterlimit:4;stroke-dasharray:none"
         transform="matrix(0.3566485,0,0,0.3268832,173.40979,36.347762)"
         id="g4255">
        <rect
           style="fill:url(#linearGradient3440);fill-opacity:1;stroke:#000000;stroke-width:1.49329782;marker:none;stroke-miterlimit:4;stroke-dasharray:none;stroke-opacity:1;visibility:visible;display:inline;overflow:visible;enable-background:accumulate"
           id="rect4257"
           width="184.9673"
           height="364.92563"
           x="-398.43771"
           y="-110.02348"
           ry="12.768984" />
        <path
           sodipodi:type="inkscape:offset"
           inkscape:radius="-1.7107865"
           inkscape:original="M -385.65625 -110.03125 C -392.73027 -110.03125 -398.4375 -104.32402 -398.4375 -97.25 L -398.4375 242.125 C -398.4375 249.19902 -392.73027 254.90625 -385.65625 254.90625 L -223.5 254.90625 C -216.42598 254.90625 -210.75 249.19902 -210.75 242.125 L -210.75 -97.25 C -210.75 -104.32402 -216.42598 -110.03125 -223.5 -110.03125 L -385.65625 -110.03125 z "
           style="fill:none;stroke:url(#linearGradient3442);stroke-width:0.03652661;marker:none;stroke-miterlimit:4;stroke-dasharray:none;stroke-opacity:1;visibility:visible;display:inline;overflow:visible;enable-background:accumulate"
           id="path4259"
           d="M -385.65625,-108.3125 C -391.81011,-108.3125 -396.71875,-103.40386 -396.71875,-97.25 L -396.71875,242.125 C -396.71875,248.27886 -391.81011,253.1875 -385.65625,253.1875 L -223.5,253.1875 C -217.34614,253.1875 -212.46875,248.2839 -212.46875,242.125 L -212.46875,-97.25 C -212.46875,-103.4089 -217.34614,-108.3125 -223.5,-108.3125 L -385.65625,-108.3125 z" />
      </g>
      <rect
         style="fill:url(#radialGradient2510);fill-opacity:1;fill-rule:nonzero;stroke:url(#linearGradient2512);stroke-width:1.00000012;stroke-linecap:round;stroke-linejoin:round;marker:none;marker-start:none;marker-mid:none;marker-end:none;stroke-miterlimit:4;stroke-dasharray:none;stroke-dashoffset:0.06;stroke-opacity:1;visibility:visible;display:inline;overflow:visible;enable-background:accumulate"
         id="rect4265"
         width="1.9572154"
         height="1.6515921"
         x="64.356819"
         y="111.53368"
         ry="0.57696867" />
      <path
         sodipodi:nodetypes="cccccccc"
         style="fill:url(#linearGradient2507);fill-opacity:1;stroke:none;stroke-width:1.53574109;stroke-linecap:square;stroke-linejoin:miter;marker:none;stroke-miterlimit:4;stroke-dashoffset:0;stroke-opacity:1;visibility:visible;display:inline;overflow:visible;enable-background:accumulate"
         d="M 33.937684,72.568816 L 33.245962,108.91616 L 33.245962,109.66771 C 33.245962,110.86149 34.030703,111.83887 34.999585,111.83887 L 92.952688,111.83887 C 93.92157,111.83887 94.706313,110.8615 94.706313,109.66771 L 93.896512,72.568816 L 33.937684,72.568816 z"
         id="path4267" />
      <path
         sodipodi:nodetypes="cccccccccc"
         id="path4269"
         d="M 36.241911,4.5437144 L 91.841932,4.5437144 C 92.77128,4.5437144 93.519502,5.4549077 93.519502,6.5867496 L 93.519502,105.8019 C 93.519502,106.93375 92.77128,107.84494 91.841932,107.84494 L 36.241911,107.84494 C 35.312513,107.84494 34.564343,106.93375 34.564343,105.8019 L 34.564343,105.08572 L 34.564343,6.5867496 C 34.564343,5.4549077 35.312513,4.5437144 36.241911,4.5437144 L 36.241911,4.5437144 z"
         style="fill:#030303;fill-opacity:1;stroke:url(#linearGradient2504);stroke-width:1.00000012;stroke-linecap:square;stroke-linejoin:miter;marker:none;stroke-miterlimit:4;stroke-dasharray:none;stroke-dashoffset:0;stroke-opacity:1;visibility:visible;display:inline;overflow:visible;enable-background:accumulate" />
      <path
         style="fill:#939499;fill-opacity:1;display:inline;enable-background:new"
         d="M 69.997113,13.053933 C 69.122452,13.046293 68.242661,13.517105 68.045159,14.221871 C 67.856931,14.893695 68.270745,15.429368 69.091777,15.578237 C 69.66333,15.681866 70.405478,15.527558 70.839041,15.213349 C 71.679791,14.604057 71.682571,13.603145 70.844813,13.230394 C 70.579998,13.112572 70.288676,13.056479 69.997113,13.053933 z M 56.451627,13.058418 C 55.884213,13.0595 55.300741,13.249997 54.930751,13.596777 C 54.12407,14.352746 54.45486,15.379104 55.56935,15.578237 C 55.90014,15.637338 56.442915,15.5948 56.793319,15.482529 C 58.002137,15.095216 58.372423,13.75676 57.406025,13.266284 C 57.127264,13.124818 56.792143,13.05777 56.451627,13.058418 z M 62.912981,13.058418 C 62.796553,13.059111 62.676651,13.066824 62.554051,13.083841 C 61.642862,13.210305 60.966799,13.813286 60.966799,14.500025 C 60.966799,15.06698 61.38446,15.472407 62.084067,15.584218 C 62.840643,15.705141 63.649622,15.442752 64.099458,14.932206 C 64.354786,14.642387 64.450103,14.363598 64.416622,14.002043 C 64.363979,13.434015 63.728211,13.053578 62.912981,13.058418 z M 76.681942,13.139173 L 76.129788,13.152632 L 75.577633,13.16609 L 74.825117,14.314589 C 74.411009,14.946263 74.070786,15.479238 74.06969,15.498978 C 74.068621,15.518718 74.243063,15.534869 74.457505,15.534869 L 74.848205,15.534869 L 74.990901,15.319525 L 75.133623,15.104182 L 75.655501,15.104182 L 76.177379,15.104182 L 76.219173,15.307562 L 76.259549,15.510942 L 76.738165,15.524402 L 77.216755,15.53786 L 77.189364,15.428693 C 77.174133,15.368516 77.053056,14.828898 76.921236,14.229349 L 76.681942,13.139173 z M 51.55158,13.142164 C 51.030209,13.142164 50.959717,13.151798 50.938874,13.225908 C 50.925941,13.271968 50.820949,13.645218 50.705352,14.055878 C 50.536897,14.654224 50.494863,14.875224 50.494863,15.168486 L 50.494863,15.534869 L 50.770204,15.534869 L 51.044158,15.534869 L 51.188295,15.044365 C 51.267018,14.774587 51.346783,14.502035 51.365622,14.438711 C 51.392424,14.348444 51.431679,14.454402 51.55158,14.929216 L 51.705818,15.534869 L 51.942254,15.534869 L 52.178662,15.534869 L 52.635687,15.008472 C 52.887327,14.719063 53.101689,14.489933 53.111417,14.500025 C 53.126434,14.515587 52.925005,15.293915 52.859136,15.475051 C 52.834712,15.542249 53.330028,15.555313 53.652028,15.495988 L 53.832239,15.463088 L 54.032601,14.72135 C 54.142641,14.313514 54.282611,13.791184 54.344018,13.560886 L 54.456463,13.142164 L 53.823581,13.142164 L 53.192145,13.142164 L 52.802886,13.62519 L 52.413681,14.106724 L 52.276705,13.62519 L 52.141224,13.142164 L 51.55158,13.142164 z M 58.29402,13.142164 L 58.245013,13.345543 C 58.217435,13.457402 58.174013,13.611692 58.149883,13.687998 C 58.065655,13.954354 58.068675,13.955683 58.570832,13.955683 C 58.991889,13.955683 59.033094,13.96351 59.010515,14.039428 C 58.996859,14.085488 58.922333,14.403119 58.844732,14.745275 C 58.767159,15.087434 58.692925,15.405618 58.67895,15.45262 C 58.655542,15.53142 58.689478,15.537016 59.127316,15.524402 L 59.60302,15.510942 L 59.751513,14.912766 C 59.833656,14.583769 59.924324,14.233836 59.951901,14.135136 L 60.002377,13.955683 L 60.475222,13.955683 L 60.949509,13.955683 L 61.028793,13.608741 C 61.071842,13.417922 61.105538,13.234881 61.105218,13.20198 C 61.104737,13.155449 60.792732,13.142164 59.69962,13.142164 L 58.29402,13.142164 z M 65.043704,13.142164 L 64.7352,14.28468 C 64.565675,14.91287 64.426721,15.451228 64.426721,15.481034 C 64.426721,15.517522 64.567306,15.534869 64.857772,15.534869 L 65.28877,15.534869 L 65.379598,15.187927 L 65.470426,14.840984 L 65.843836,14.827526 C 66.30209,14.810534 66.389632,14.86988 66.344043,15.165496 C 66.298723,15.459671 66.34749,15.48753 66.912044,15.487015 L 67.402178,15.48552 L 67.413748,15.164 C 67.428124,14.755317 67.40199,14.639613 67.286873,14.601713 C 67.185008,14.568168 67.161227,14.482078 67.253737,14.482078 C 67.35683,14.482078 67.665202,14.183094 67.730884,14.019987 C 67.814978,13.811259 67.811156,13.549104 67.722226,13.408352 C 67.57539,13.17583 67.381361,13.142164 66.163831,13.142164 L 65.043704,13.142164 z M 72.685763,13.14964 C 72.631999,13.149865 72.573157,13.150747 72.511323,13.152632 L 72.061541,13.16609 L 71.776071,14.290662 C 71.6194,14.909176 71.489665,15.442152 71.487767,15.475051 C 71.485096,15.521403 71.744431,15.534869 72.636729,15.534869 L 73.788577,15.534869 L 73.839027,15.331488 C 73.867005,15.219629 73.90674,15.058122 73.928413,14.972583 L 73.968788,14.817056 L 73.279712,14.817056 C 72.83188,14.817056 72.592051,14.800247 72.592051,14.767708 C 72.592051,14.740204 72.675101,14.374431 72.776591,13.955683 C 72.878081,13.536936 72.961106,13.181387 72.961106,13.16609 C 72.961106,13.154618 72.847031,13.148967 72.685763,13.14964 z M 65.814976,13.716412 L 66.217222,13.716412 C 66.438026,13.716772 66.66468,13.730451 66.721784,13.746321 C 66.858868,13.784429 66.85975,13.973118 66.723201,14.072328 C 66.647418,14.127419 66.503199,14.1471 66.16963,14.1471 C 65.921543,14.1471 65.718244,14.130949 65.718404,14.111208 C 65.718538,14.091469 65.740985,13.994565 65.767412,13.895865 L 65.814976,13.716412 z M 56.408418,13.719403 C 56.57436,13.72519 56.732233,13.778412 56.84377,13.87792 C 57.10813,14.113802 56.933209,14.657106 56.529495,14.854443 C 56.274113,14.979285 56.094621,15.010203 55.893753,14.960619 C 55.444772,14.849805 55.402392,14.2981 55.81447,13.922784 C 55.969243,13.781796 56.195043,13.711964 56.408418,13.719403 z M 69.818371,13.720899 C 69.881514,13.71815 69.947865,13.721502 70.018784,13.731368 C 70.316439,13.772782 70.444385,13.899047 70.461354,14.169531 C 70.479872,14.465445 70.326274,14.718409 70.046121,14.854443 C 69.668568,15.037813 69.366957,15.023051 69.149468,14.811075 C 68.946009,14.612832 69.032265,14.194789 69.33254,13.921289 C 69.472296,13.794017 69.628886,13.729147 69.818371,13.720899 z M 62.882704,13.723889 C 62.999586,13.724937 63.111845,13.745713 63.204194,13.791184 C 63.605398,13.988669 63.488891,14.606866 63.002392,14.860426 C 62.550604,15.095892 62.068621,14.972224 62.001896,14.603208 C 61.972022,14.438077 62.067312,14.144739 62.202312,13.987087 C 62.345647,13.819587 62.625613,13.721585 62.882704,13.723889 z M 75.890494,13.940728 L 75.94383,14.127659 C 75.973704,14.230441 76.000961,14.363041 76.002885,14.422261 C 76.006146,14.520055 75.984635,14.529934 75.775135,14.529934 C 75.648286,14.529934 75.544499,14.519571 75.544499,14.506006 C 75.544499,14.49244 75.622472,14.359842 75.717495,14.211404 L 75.890494,13.940728 z"
         id="path4271" />
      <path
         sodipodi:type="inkscape:offset"
         inkscape:radius="-1.7107865"
         inkscape:original="M -385.65625 -110.03125 C -392.73027 -110.03125 -398.4375 -104.32402 -398.4375 -97.25 L -398.4375 242.125 C -398.4375 249.19902 -392.73027 254.90625 -385.65625 254.90625 L -223.5 254.90625 C -216.42598 254.90625 -210.75 249.19902 -210.75 242.125 L -210.75 -97.25 C -210.75 -104.32402 -216.42598 -110.03125 -223.5 -110.03125 L -385.65625 -110.03125 z "
         style="fill:none;stroke:#000000;stroke-width:2.92388082;marker:none;stroke-miterlimit:4;stroke-dasharray:none;stroke-opacity:1;visibility:visible;display:inline;overflow:visible;enable-background:accumulate"
         id="path4273"
         d="M -385.65625,-108.3125 C -391.81011,-108.3125 -396.71875,-103.40386 -396.71875,-97.25 L -396.71875,242.125 C -396.71875,248.27886 -391.81011,253.1875 -385.65625,253.1875 L -223.5,253.1875 C -217.34614,253.1875 -212.46875,248.2839 -212.46875,242.125 L -212.46875,-97.25 C -212.46875,-103.4089 -217.34614,-108.3125 -223.5,-108.3125 L -385.65625,-108.3125 z"
         transform="matrix(0.3578391,0,0,0.3268832,173.48892,36.347762)" />
      <path
         sodipodi:nodetypes="cscccccccc"
         id="path4275"
         d="M 33.775949,110.39159 C 33.775949,110.39159 34.005134,109.3892 34.118946,108.67974 C 34.300875,107.54599 34.764602,106.50985 34.764602,106.50985 C 35.505979,107.94951 36.390599,108.15127 38.283727,107.99975 L 87.823768,107.68935 L 85.910204,108.58437 L 39.346815,108.58437 C 36.171555,109.01033 35.224341,110.20584 35.422789,111.79702 C 34.438566,112.05017 34.017632,111.36947 33.775949,110.39159 L 33.775949,110.39159 z"
         style="fill:url(#linearGradient2499);fill-opacity:1;stroke:none" />
      <rect
         ry="0"
         y="17.88806"
         x="39.86961"
         height="78.158463"
         width="48.083641"
         id="rect4277"
         style="fill:#2d2d2d;fill-opacity:1;stroke:none;stroke-width:2.01121116;marker:none;visibility:visible;display:inline;overflow:visible;enable-background:accumulate" />
      <rect
         ry="1.2080956"
         y="6.7425132"
         x="53.390011"
         height="2.4161911"
         width="21.191502"
         id="rect4279"
         style="fill:url(#linearGradient2493);fill-opacity:1;fill-rule:nonzero;stroke:url(#linearGradient2495);stroke-width:0.99999994;marker:none;stroke-miterlimit:4;stroke-dasharray:none;stroke-opacity:1;visibility:visible;display:inline;overflow:visible;enable-background:accumulate" />
      <path
         id="path4281"
         d="M 40.978048,4.5315142 C 40.164981,4.5315142 39.513073,5.4567449 39.513073,6.6165767 L 39.513073,107.55017 L 39.513073,108.28669 C 39.513073,109.44652 40.164981,110.38212 40.978048,110.38212 L 53.894823,110.38212 C 58.779505,75.098789 62.219038,39.814853 64.322078,4.5315142 L 40.978048,4.5315142 z"
         style="opacity:0.1;fill:url(#linearGradient2490);fill-opacity:1;stroke:none;stroke-width:1.4642123;stroke-linecap:square;stroke-linejoin:miter;marker:none;stroke-miterlimit:4;stroke-dashoffset:0;stroke-opacity:1;visibility:visible;display:inline;overflow:visible;enable-background:accumulate" />
      <g
         style="stroke:#b2b2b6;stroke-width:1.71536828;stroke-miterlimit:4;stroke-dasharray:none;stroke-opacity:1"
         transform="matrix(0.4100422,0,0,0.4061185,271.01515,13.440831)"
         id="g4283">
        <path
           sodipodi:type="arc"
           style="fill:none;stroke:#b2b2b6;stroke-width:2.19792658;marker:none;stroke-miterlimit:4;stroke-dasharray:none;stroke-opacity:1;visibility:visible;display:inline;overflow:visible;enable-background:accumulate"
           id="path4285"
           sodipodi:cx="-456.17227"
           sodipodi:cy="213.40047"
           sodipodi:rx="4.3310289"
           sodipodi:ry="4.3310289"
           d="M -451.84124,213.40047 A 4.3310289,4.3310289 0 1 1 -460.5033,213.40047 A 4.3310289,4.3310289 0 1 1 -451.84124,213.40047 z"
           transform="matrix(0.7804484,0,0,0.7804484,-97.704371,48.406795)" />
        <path
           style="fill:none;stroke:#b2b2b6;stroke-width:1.71536828;stroke-linecap:square;stroke-linejoin:miter;stroke-miterlimit:4;stroke-dasharray:none;stroke-opacity:1"
           d="M -451.22252,217.46633 L -448.04054,220.82509"
           id="path4287" />
      </g>
      <g
         style="stroke:#b2b2b6;stroke-width:1.72075419;stroke-miterlimit:4;stroke-dasharray:none;stroke-opacity:1"
         transform="matrix(0.3977779,0,0,0.4160234,268.99771,11.120498)"
         id="g4289">
        <path
           style="fill:none;stroke:#b2b2b6;stroke-width:1.72075419;stroke-linecap:butt;stroke-linejoin:miter;stroke-miterlimit:4;stroke-dasharray:none;stroke-opacity:1"
           d="M -498.69737,217.61513 L -498.69737,220.82237 L -492.55263,220.82237 L -492.55263,217.61513"
           id="path4291" />
        <path
           style="fill:none;stroke:#b2b2b6;stroke-width:1.72075419;stroke-linecap:butt;stroke-linejoin:miter;stroke-miterlimit:4;stroke-dasharray:none;stroke-opacity:1"
           d="M -501.125,217.375 L -495.8125,211.9375 L -490.125,217.625"
           id="path4293"
           sodipodi:nodetypes="ccc" />
        <path
           style="fill:none;stroke:#b2b2b6;stroke-width:1.72075419;stroke-linecap:square;stroke-linejoin:miter;stroke-miterlimit:4;stroke-dasharray:none;stroke-opacity:1"
           d="M -492.5,214.83108 L -492.5,212.04392"
           id="path4295" />
      </g>
      <g
         style="stroke:#b2b2b6;stroke-width:1.89622251;stroke-miterlimit:4;stroke-dasharray:none;stroke-opacity:1"
         transform="matrix(0.3609694,0,0,0.3775262,250.84586,19.457299)"
         id="g4297">
        <path
           style="fill:none;stroke:#b2b2b6;stroke-width:1.89622251;stroke-linecap:square;stroke-linejoin:miter;stroke-miterlimit:4;stroke-dasharray:none;stroke-opacity:1"
           d="M -545.33081,211.72109 L -533.84033,211.72109"
           id="path4299" />
        <path
           style="fill:none;stroke:#b2b2b6;stroke-width:1.89622251;stroke-linecap:square;stroke-linejoin:miter;stroke-miterlimit:4;stroke-dasharray:none;stroke-opacity:1;display:inline;enable-background:new"
           d="M -542.23495,214.721 L -533.84033,214.721"
           id="path4301" />
        <path
           style="fill:none;stroke:#b2b2b6;stroke-width:1.89622251;stroke-linecap:square;stroke-linejoin:miter;stroke-miterlimit:4;stroke-dasharray:none;stroke-opacity:1;display:inline;enable-background:new"
           d="M -542.23495,217.92114 L -533.84033,217.92114"
           id="path4303" />
        <path
           style="fill:none;stroke:#b2b2b6;stroke-width:1.89622251;stroke-linecap:square;stroke-linejoin:miter;stroke-miterlimit:4;stroke-dasharray:none;stroke-opacity:1;display:inline;enable-background:new"
           d="M -542.23495,221.021 L -533.84033,221.021"
           id="path4305" />
      </g>
      <g
         style="stroke:#b2b2b6;stroke-width:1.68951173;stroke-miterlimit:4;stroke-dasharray:none;stroke-opacity:1"
         transform="matrix(0.4171381,0,0,0.4115227,279.83014,11.998533)"
         id="g4307">
        <path
           style="fill:none;stroke:#b2b2b6;stroke-width:1.68951173;stroke-linecap:square;stroke-linejoin:miter;stroke-miterlimit:4;stroke-dasharray:none;stroke-opacity:1"
           d="M -571.0625,216.75 L -573.1875,214.625 L -570.9375,212.375"
           id="path4309" />
        <path
           style="fill:none;stroke:#b2b2b6;stroke-width:1.68951173;stroke-linecap:square;stroke-linejoin:miter;stroke-miterlimit:4;stroke-dasharray:none;stroke-opacity:1"
           d="M -571.34988,221.3499 L -567.87473,221.3499"
           id="path4311" />
        <path
           style="fill:none;stroke:#b2b2b6;stroke-width:1.68951173;stroke-linecap:square;stroke-linejoin:miter;stroke-miterlimit:4;stroke-dasharray:none;stroke-opacity:1;display:inline;enable-background:new"
           d="M -571.81153,214.57452 L -568.0943,214.57452"
           id="path4313" />
        <path
           sodipodi:type="arc"
           style="fill:none;stroke:#b2b2b6;stroke-width:1.68951173;stroke-linecap:square;stroke-linejoin:miter;marker:none;stroke-miterlimit:4;stroke-dasharray:none;stroke-dashoffset:0;stroke-opacity:1;visibility:visible;display:inline;overflow:visible;enable-background:accumulate"
           id="path4315"
           sodipodi:cx="-581.15625"
           sodipodi:cy="217.4375"
           sodipodi:rx="2.53125"
           sodipodi:ry="3.375"
           d="M -581.16605,214.06253 A 2.53125,3.375 0 1 1 -581.21261,220.81166"
           sodipodi:start="4.708519"
           sodipodi:end="7.8762493"
           sodipodi:open="true"
           transform="translate(14.18633,0.5432743)" />
      </g>
    </g>
  </g>
</svg>
