<?xml version="1.0" encoding="UTF-8" standalone="no"?>
<!-- Created with Inkscape (http://www.inkscape.org/) -->

<svg
   xmlns:dc="http://purl.org/dc/elements/1.1/"
   xmlns:cc="http://creativecommons.org/ns#"
   xmlns:rdf="http://www.w3.org/1999/02/22-rdf-syntax-ns#"
   xmlns:svg="http://www.w3.org/2000/svg"
   xmlns="http://www.w3.org/2000/svg"
   xmlns:xlink="http://www.w3.org/1999/xlink"
   version="1.0"
   width="22"
   height="22"
   id="svg3239">
  <metadata
     id="metadata17">
    <rdf:RDF>
      <cc:Work
         rdf:about="">
        <dc:format>image/svg+xml</dc:format>
        <dc:type
           rdf:resource="http://purl.org/dc/dcmitype/StillImage" />
        <dc:title></dc:title>
      </cc:Work>
    </rdf:RDF>
  </metadata>
  <defs
     id="defs3241">
    <linearGradient
       x1="12"
       y1="1.9895233"
       x2="12"
       y2="21"
       id="linearGradient2392"
       xlink:href="#linearGradient3678"
       gradientUnits="userSpaceOnUse"
       gradientTransform="translate(-1,-1)" />
    <linearGradient
       x1="51.780437"
       y1="7.2575765"
       x2="51.780437"
       y2="31.112288"
       id="linearGradient2395"
       xlink:href="#linearGradient3678"
       gradientUnits="userSpaceOnUse"
       gradientTransform="matrix(0.4101105,0,0,0.16775608,-9.7987346,12.782498)" />
    <linearGradient
       id="linearGradient3678">
      <stop
         id="stop3680"
         style="stop-color:#ffffff;stop-opacity:1"
         offset="0" />
      <stop
         id="stop3682"
         style="stop-color:#e6e6e6;stop-opacity:1"
         offset="1" />
    </linearGradient>
    <linearGradient
       x1="159.68553"
       y1="14.403693"
       x2="159.68553"
       y2="38.279892"
       id="linearGradient2388"
       xlink:href="#linearGradient3678"
       gradientUnits="userSpaceOnUse"
       gradientTransform="matrix(-0.4100229,0,0,0.5447147,78.029995,-3.8459034)" />
  </defs>
  <rect
     width="6"
     height="4"
     rx="0.5"
     ry="0.49999994"
     x="8.0500002"
     y="15"
     id="rect3206"
     style="opacity:0.5;fill:#000000;fill-opacity:1;fill-rule:nonzero;stroke:none;stroke-width:1;marker:none;visibility:visible;display:inline;overflow:visible;enable-background:accumulate" />
  <rect
     width="14.5"
     height="7.5"
     rx="0.25"
     ry="0.25"
     x="-18.75"
     y="7.25"
     transform="matrix(0,-1,1,0,0,0)"
     id="rect3236"
     style="opacity:0.3;fill:none;stroke:#ffffff;stroke-width:0.5;stroke-linecap:round;stroke-linejoin:miter;stroke-miterlimit:4;stroke-opacity:1;stroke-dasharray:none;stroke-dashoffset:0;marker:none;visibility:visible;display:inline;overflow:visible;enable-background:accumulate" />
  <path
     d="m 6.5,19.5 0,-14 c 0,-0.554 0.446,-1 1,-1 l 7,0 c 0.554,0 1,0.446 1,1 l 0,14 c 0,0.554 -0.446,1 -1,1 l -7,0 c -0.554,0 -1,-0.446 -1,-1 z M 9.50264,4.381549 c 7e-4,-0.32804 0.00153,-0.656076 0.0025,-0.984108 C 9.545901,2.799616 10.15474,2.420708 10.717338,2.499967 11.25026,2.5234 11.894234,2.375846 12.272203,2.863162 12.622964,3.30164 12.463608,3.884362 12.5,4.400369"
     id="path3208"
     style="opacity:0.5;fill:none;stroke:#000000;stroke-width:1;stroke-linecap:round;stroke-linejoin:miter;stroke-miterlimit:4;stroke-opacity:1;stroke-dashoffset:0;marker:none;visibility:visible;display:inline;overflow:visible;enable-background:accumulate" />
  <path
     d="M 8.0500002,14 C 10.05,14 12.05,14 14.05,14 c 0,1.333333 0,2.666667 0,4 -2,0 -4,0 -5.9999998,0 0,-1.333333 0,-2.666667 0,-4 z"
     id="rect3728"
     style="fill:url(#linearGradient2395);fill-opacity:1;fill-rule:nonzero;stroke:none;stroke-width:1;marker:none;visibility:visible;display:inline;overflow:visible;enable-background:accumulate" />
  <path
     d="m 6.5,18.5 0,-14 c 0,-0.554 0.446,-1 1,-1 l 7,0 c 0.554,0 1,0.446 1,1 l 0,14 c 0,0.554 -0.446,1 -1,1 l -7,0 c -0.554,0 -1,-0.446 -1,-1 z M 9.50264,3.381549 c 7e-4,-0.32804 0.00153,-0.656076 0.0025,-0.984108 C 9.545901,1.799616 10.15474,1.420708 10.717338,1.499967 11.25026,1.5234 11.894234,1.375846 12.272203,1.863162 12.622964,2.30164 12.463608,2.884362 12.5,3.400369"
     id="rect2442"
     style="fill:none;stroke:url(#linearGradient2392);stroke-width:1;stroke-linecap:round;stroke-linejoin:miter;stroke-miterlimit:4;stroke-opacity:1;stroke-dashoffset:0;marker:none;visibility:visible;display:inline;overflow:visible;enable-background:accumulate" />
</svg>
