<?xml version="1.0" encoding="UTF-8" standalone="no"?>
<!-- Created with Inkscape (http://www.inkscape.org/) -->
<svg
   xmlns:svg="http://www.w3.org/2000/svg"
   xmlns="http://www.w3.org/2000/svg"
   xmlns:xlink="http://www.w3.org/1999/xlink"
   version="1.0"
   width="48"
   height="48"
   id="svg3478">
  <defs
     id="defs3480">
    <linearGradient
       id="linearGradient3428">
      <stop
         id="stop3430"
         style="stop-color:#000000;stop-opacity:0"
         offset="0" />
      <stop
         id="stop3436"
         style="stop-color:#000000;stop-opacity:1"
         offset="0.5" />
      <stop
         id="stop3432"
         style="stop-color:#000000;stop-opacity:0"
         offset="1" />
    </linearGradient>
    <linearGradient
       x1="11.507806"
       y1="39"
       x2="11.507806"
       y2="47.015659"
       id="linearGradient6620"
       xlink:href="#linearGradient3428"
       gradientUnits="userSpaceOnUse" />
    <radialGradient
       cx="3"
       cy="43"
       r="2"
       fx="3"
       fy="43"
       id="radialGradient6618"
       xlink:href="#linearGradient3414"
       gradientUnits="userSpaceOnUse"
       gradientTransform="matrix(2,0,0,2,35,-43)" />
    <linearGradient
       id="linearGradient3414">
      <stop
         id="stop3416"
         style="stop-color:#000000;stop-opacity:1"
         offset="0" />
      <stop
         id="stop3418"
         style="stop-color:#000000;stop-opacity:0"
         offset="1" />
    </linearGradient>
    <radialGradient
       cx="3"
       cy="43"
       r="2"
       fx="3"
       fy="43"
       id="radialGradient6616"
       xlink:href="#linearGradient3414"
       gradientUnits="userSpaceOnUse"
       gradientTransform="matrix(2,0,0,2,-13,-129)" />
    <linearGradient
       id="linearGradient2490-654-721">
      <stop
         id="stop2913"
         style="stop-color:#6e6e6e;stop-opacity:1"
         offset="0" />
      <stop
         id="stop2915"
         style="stop-color:#aaaaaa;stop-opacity:1"
         offset="1" />
    </linearGradient>
    <linearGradient
       x1="31.278551"
       y1="56.744396"
       x2="31.278551"
       y2="4.0075235"
       id="linearGradient2550"
       xlink:href="#linearGradient2490-654-721"
       gradientUnits="userSpaceOnUse"
       gradientTransform="matrix(1.0004631,0,0,1,-1.112208e-2,-1.0075254)" />
    <linearGradient
       id="linearGradient2556">
      <stop
         id="stop2558"
         style="stop-color:#dcdcdc;stop-opacity:1"
         offset="0" />
      <stop
         id="stop2564"
         style="stop-color:#b4b4b4;stop-opacity:1"
         offset="1" />
    </linearGradient>
    <linearGradient
       x1="22.505953"
       y1="7.5892501"
       x2="22.505953"
       y2="44.996727"
       id="linearGradient2548"
       xlink:href="#linearGradient2556"
       gradientUnits="userSpaceOnUse"
       gradientTransform="matrix(1.0308205,0,0,1.1241267,-3.3173958,-5.5312805)" />
    <linearGradient
       id="linearGradient5638">
      <stop
         id="stop5640"
         style="stop-color:#ffffff;stop-opacity:1"
         offset="0" />
      <stop
         id="stop5642"
         style="stop-color:#ffffff;stop-opacity:0"
         offset="1" />
    </linearGradient>
    <linearGradient
       x1="24.052597"
       y1="5.0074263"
       x2="24.052597"
       y2="45.054726"
       id="linearGradient2545"
       xlink:href="#linearGradient5638"
       gradientUnits="userSpaceOnUse"
       gradientTransform="matrix(1.0058794,0,0,1,-0.1940099,-1.0075254)" />
    <linearGradient
       id="linearGradient3341">
      <stop
         id="stop3343"
         style="stop-color:#ffffff;stop-opacity:1"
         offset="0" />
      <stop
         id="stop3345"
         style="stop-color:#ffffff;stop-opacity:0"
         offset="1" />
    </linearGradient>
    <linearGradient
       x1="22.162495"
       y1="13.755174"
       x2="21.643173"
       y2="3.6441264"
       id="linearGradient3347"
       xlink:href="#linearGradient3341"
       gradientUnits="userSpaceOnUse" />
    <linearGradient
       id="linearGradient3221-497-378-235-23-910">
      <stop
         id="stop5184"
         style="stop-color:#ffffff;stop-opacity:1"
         offset="0" />
      <stop
         id="stop5186"
         style="stop-color:#ffffff;stop-opacity:0"
         offset="1" />
    </linearGradient>
    <linearGradient
       x1="17.116375"
       y1="20.002066"
       x2="17.116375"
       y2="21.501268"
       id="linearGradient3357"
       xlink:href="#linearGradient3221-497-378-235-23-910"
       gradientUnits="userSpaceOnUse"
       gradientTransform="matrix(0.9918431,0,0,1.0001816,18.161067,-1.305774e-2)" />
    <linearGradient
       id="linearGradient3221-84-434-51-992-114">
      <stop
         id="stop5190"
         style="stop-color:#ffffff;stop-opacity:1"
         offset="0" />
      <stop
         id="stop5192"
         style="stop-color:#ffffff;stop-opacity:0"
         offset="1" />
    </linearGradient>
    <linearGradient
       x1="17.830502"
       y1="20.002068"
       x2="17.830502"
       y2="21.500099"
       id="linearGradient3361"
       xlink:href="#linearGradient3221-84-434-51-992-114"
       gradientUnits="userSpaceOnUse"
       gradientTransform="matrix(0.9918431,0,0,1.0001816,18.161067,5.988032)" />
    <linearGradient
       id="linearGradient3221-125">
      <stop
         id="stop3819"
         style="stop-color:#ffffff;stop-opacity:1"
         offset="0" />
      <stop
         id="stop3821"
         style="stop-color:#ffffff;stop-opacity:0"
         offset="1" />
    </linearGradient>
    <linearGradient
       x1="16.95768"
       y1="20.002064"
       x2="16.95768"
       y2="21.446861"
       id="linearGradient3359"
       xlink:href="#linearGradient3221-125"
       gradientUnits="userSpaceOnUse"
       gradientTransform="matrix(0.9918431,0,0,1.0001816,18.161067,11.989122)" />
    <linearGradient
       x1="29.999994"
       y1="37.999969"
       x2="29.999994"
       y2="39.499985"
       id="linearGradient3375"
       xlink:href="#linearGradient3251"
       gradientUnits="userSpaceOnUse"
       gradientTransform="translate(-3.0000074,-7.50884e-3)" />
    <linearGradient
       x1="22.344988"
       y1="37.998562"
       x2="22.344988"
       y2="39.508205"
       id="linearGradient3377"
       xlink:href="#linearGradient3251"
       gradientUnits="userSpaceOnUse"
       gradientTransform="matrix(0.9918431,0,0,1.0001816,-9.5900511,-1.304884e-2)" />
    <linearGradient
       x1="29.999994"
       y1="38.000156"
       x2="29.999994"
       y2="39.499985"
       id="linearGradient3369"
       xlink:href="#linearGradient3251"
       gradientUnits="userSpaceOnUse"
       gradientTransform="matrix(0.9993019,0,0,1.0000259,-16.979051,-6.008428)" />
    <linearGradient
       x1="29.999994"
       y1="38.000156"
       x2="29.999994"
       y2="39.499985"
       id="linearGradient3367"
       xlink:href="#linearGradient3251"
       gradientUnits="userSpaceOnUse"
       gradientTransform="matrix(0.9993019,0,0,1.0000259,-16.979051,-12.008586)" />
    <linearGradient
       x1="31.10257"
       y1="38.000156"
       x2="31.10257"
       y2="39.508217"
       id="linearGradient3351"
       xlink:href="#linearGradient3251"
       gradientUnits="userSpaceOnUse"
       gradientTransform="matrix(0.9993019,0,0,1.0000259,-16.979051,-18.008742)" />
    <linearGradient
       x1="29.999994"
       y1="38.000156"
       x2="29.999994"
       y2="39.499985"
       id="linearGradient3371"
       xlink:href="#linearGradient3251"
       gradientUnits="userSpaceOnUse"
       gradientTransform="matrix(0.9993019,0,0,1.0000259,-9.9790506,-6.0065191)" />
    <linearGradient
       x1="29.999994"
       y1="38.000156"
       x2="29.999994"
       y2="39.499985"
       id="linearGradient3365"
       xlink:href="#linearGradient3251"
       gradientUnits="userSpaceOnUse"
       gradientTransform="matrix(0.9993019,0,0,1.0000259,-9.9790506,-12.006677)" />
    <linearGradient
       x1="31.260078"
       y1="38.000156"
       x2="31.260078"
       y2="39.502048"
       id="linearGradient3353"
       xlink:href="#linearGradient3251"
       gradientUnits="userSpaceOnUse"
       gradientTransform="matrix(0.9993019,0,0,1.0000259,-9.9790506,-18.006833)" />
    <linearGradient
       x1="29.999994"
       y1="37.999977"
       x2="29.999994"
       y2="39.499985"
       id="linearGradient3373"
       xlink:href="#linearGradient3251"
       gradientUnits="userSpaceOnUse"
       gradientTransform="translate(-3,-6.0075174)" />
    <linearGradient
       x1="30.405294"
       y1="37.999973"
       x2="30.405294"
       y2="39.507034"
       id="linearGradient3363"
       xlink:href="#linearGradient3251"
       gradientUnits="userSpaceOnUse"
       gradientTransform="translate(-3,-12.00752)" />
    <linearGradient
       id="linearGradient3251">
      <stop
         id="stop3253"
         style="stop-color:#888986;stop-opacity:1"
         offset="0" />
      <stop
         id="stop3255"
         style="stop-color:#888986;stop-opacity:0"
         offset="1" />
    </linearGradient>
    <linearGradient
       x1="29.999994"
       y1="37.999977"
       x2="29.999994"
       y2="39.499985"
       id="linearGradient3355"
       xlink:href="#linearGradient3251"
       gradientUnits="userSpaceOnUse"
       gradientTransform="translate(-3,-18.007521)" />
    <linearGradient
       x1="24"
       y1="17"
       x2="24"
       y2="4.9924679"
       id="linearGradient3433"
       xlink:href="#linearGradient3426"
       gradientUnits="userSpaceOnUse" />
    <linearGradient
       x1="24"
       y1="17"
       x2="24"
       y2="4.9924679"
       id="linearGradient3450"
       xlink:href="#linearGradient3426"
       gradientUnits="userSpaceOnUse"
       gradientTransform="matrix(0.4827586,0,0,0.5454546,4.9137929,33.499999)" />
    <linearGradient
       x1="24"
       y1="17"
       x2="24"
       y2="4.9924679"
       id="linearGradient3454"
       xlink:href="#linearGradient3426"
       gradientUnits="userSpaceOnUse"
       gradientTransform="matrix(0.2413793,0,0,0.5454546,21.206896,27.5)" />
    <linearGradient
       x1="24"
       y1="17"
       x2="24"
       y2="4.9924679"
       id="linearGradient3467"
       xlink:href="#linearGradient3426"
       gradientUnits="userSpaceOnUse"
       gradientTransform="matrix(0.2413793,0,0,0.5454546,21.206896,21.5)" />
    <linearGradient
       id="linearGradient3426">
      <stop
         id="stop3428"
         style="stop-color:#ffffff;stop-opacity:1"
         offset="0" />
      <stop
         id="stop3431"
         style="stop-color:#ffffff;stop-opacity:0"
         offset="1" />
    </linearGradient>
    <linearGradient
       x1="24"
       y1="17"
       x2="24"
       y2="4.9924679"
       id="linearGradient3471"
       xlink:href="#linearGradient3426"
       gradientUnits="userSpaceOnUse"
       gradientTransform="matrix(0.2413793,0,0,0.5454546,21.206896,15.5)" />
  </defs>
  <g
     id="layer1">
    <g
       transform="matrix(0.8857824,0,0,0.990365,2.7412224,-0.547155)"
       id="g3438"
       style="opacity:0.3">
      <rect
         width="4"
         height="8"
         x="-7"
         y="-47"
         transform="scale(-1,-1)"
         id="rect3404"
         style="fill:url(#radialGradient6616);fill-opacity:1;fill-rule:nonzero;stroke:none;stroke-width:1;marker:none;visibility:visible;display:inline;overflow:visible" />
      <rect
         width="4"
         height="8"
         x="41"
         y="39"
         id="rect3422"
         style="fill:url(#radialGradient6618);fill-opacity:1;fill-rule:nonzero;stroke:none;stroke-width:1;marker:none;visibility:visible;display:inline;overflow:visible" />
      <rect
         width="34"
         height="8"
         x="7"
         y="39"
         id="rect3426"
         style="fill:url(#linearGradient6620);fill-opacity:1;fill-rule:nonzero;stroke:none;stroke-width:1;marker:none;visibility:visible;display:inline;overflow:visible" />
    </g>
    <rect
       width="32.98494"
       height="40.984943"
       rx="2.0110447"
       ry="2.0110447"
       x="7.5075293"
       y="3.5075274"
       id="rect2157"
       style="fill:url(#linearGradient2548);fill-opacity:1;fill-rule:nonzero;stroke:url(#linearGradient2550);stroke-width:1.01505852;stroke-linecap:round;stroke-linejoin:miter;marker:none;stroke-miterlimit:6;stroke-dasharray:none;stroke-dashoffset:1.4;stroke-opacity:1;visibility:visible;display:inline;overflow:visible" />
    <rect
       width="30.984943"
       height="38.984943"
       rx="1.0597297"
       ry="1.0597297"
       x="8.5075293"
       y="4.5074301"
       id="rect3052"
       style="opacity:0.4;fill:none;stroke:url(#linearGradient2545);stroke-width:1.01505828;stroke-linecap:round;stroke-linejoin:miter;marker:none;stroke-miterlimit:6;stroke-dasharray:none;stroke-dashoffset:1.4;stroke-opacity:1;visibility:visible;display:inline;overflow:visible" />
    <rect
       width="27"
       height="9"
       rx="1.1762931"
       ry="1.1762378"
       x="10.5"
       y="6.5"
       id="rect3045"
       style="fill:#4d4d4d;fill-opacity:1;fill-rule:nonzero;stroke:#000000;stroke-width:0.99999994;marker:none;stroke-opacity:1;visibility:visible;display:inline;overflow:visible" />
    <path
       d="M 11.3125,7 C 10.641091,7 10.09375,7.504614 10.09375,8.15625 L 10.09375,13.159796 L 37.90625,9.1354482 L 37.90625,8.15625 C 37.90625,7.5046142 37.358908,7 36.6875,7 L 11.3125,7 z"
       id="rect3336"
       style="opacity:0.3;fill:url(#linearGradient3347);fill-opacity:1;fill-rule:nonzero;stroke:none;stroke-width:0.99999994;marker:none;visibility:visible;display:inline;overflow:visible" />
    <path
       d="M 32.589275,19.490475 L 36.463654,19.490475 C 37.038892,19.490475 37.50199,19.957466 37.50199,20.53754 L 37.50199,22.444132 C 37.50199,23.024206 37.038892,23.491197 36.463654,23.491197 L 32.589275,23.491197 C 32.014037,23.491197 31.55094,23.024206 31.55094,22.444132 L 31.55094,20.53754 C 31.55094,19.957466 32.014037,19.490475 32.589275,19.490475 z M 32.589275,25.49157 L 36.463654,25.49157 C 37.038892,25.49157 37.50199,25.95856 37.50199,26.538634 L 37.50199,28.445227 C 37.50199,29.025301 37.038892,29.492292 36.463654,29.492292 L 32.589275,29.492292 C 32.014037,29.492292 31.55094,29.025301 31.55094,28.445227 L 31.55094,26.538634 C 31.55094,25.95856 32.014037,25.49157 32.589275,25.49157 z M 32.589275,31.492657 L 36.463662,31.492657 C 37.0389,31.492657 37.501998,31.959648 37.501998,32.539722 L 37.501998,40.447408 C 37.501998,41.027482 37.0389,41.494473 36.463662,41.494473 L 32.589275,41.494473 C 32.014037,41.494473 31.55094,41.027482 31.55094,40.447408 L 31.55094,32.539722 C 31.55094,31.959648 32.014037,31.492657 32.589275,31.492657 z M 25.546876,37.492474 L 28.453123,37.492474 C 29.033092,37.492474 29.499999,37.95938 29.499999,38.539348 L 29.499999,40.445595 C 29.499999,41.025563 29.033092,41.492469 28.453123,41.492469 L 25.546876,41.492469 C 24.966907,41.492469 24.5,41.025563 24.5,40.445595 L 24.5,38.539348 C 24.5,37.95938 24.966907,37.492474 25.546876,37.492474 z M 11.536337,37.493744 L 21.5,37.493744 C 22.075238,37.493744 22.5,37.960735 22.5,38.540809 L 22.5,40.447401 C 22.5,41.027475 22.075238,41.494466 21.5,41.494466 L 11.536337,41.494466 C 10.961099,41.494466 10.498001,41.027475 10.498001,40.447401 L 10.498001,38.540809 C 10.498001,37.960735 10.961099,37.493744 11.536337,37.493744 z M 11.547891,31.492542 L 14.452109,31.492542 C 15.031673,31.492542 15.498253,31.959461 15.498253,32.539444 L 15.498253,34.445739 C 15.498253,35.025723 15.031673,35.492641 14.452109,35.492641 L 11.547891,35.492641 C 10.968327,35.492641 10.501747,35.025723 10.501747,34.445739 L 10.501747,32.539444 C 10.501747,31.959461 10.968327,31.492542 11.547891,31.492542 z M 11.547891,25.492382 L 14.452109,25.492382 C 15.031673,25.492382 15.498253,25.9593 15.498253,26.539284 L 15.498253,28.445579 C 15.498253,29.025563 15.031673,29.492481 14.452109,29.492481 L 11.547891,29.492481 C 10.968327,29.492481 10.501747,29.025563 10.501747,28.445579 L 10.501747,26.539284 C 10.501747,25.9593 10.968327,25.492382 11.547891,25.492382 z M 11.547891,19.492229 L 14.452109,19.492229 C 15.031673,19.492229 15.498253,19.959148 15.498253,20.539132 L 15.498253,22.445427 C 15.498253,23.02541 15.031673,23.492329 14.452109,23.492329 L 11.547891,23.492329 C 10.968327,23.492329 10.501747,23.02541 10.501747,22.445427 L 10.501747,20.539132 C 10.501747,19.959148 10.968327,19.492229 11.547891,19.492229 z M 18.547891,31.49445 L 21.452109,31.49445 C 22.031673,31.49445 22.498253,31.961368 22.498253,32.541352 L 22.498253,34.447647 C 22.498253,35.02763 22.031673,35.494549 21.452109,35.494549 L 18.547891,35.494549 C 17.968327,35.494549 17.501747,35.02763 17.501747,34.447647 L 17.501747,32.541352 C 17.501747,31.961368 17.968327,31.49445 18.547891,31.49445 z M 18.547891,25.494293 L 21.452109,25.494293 C 22.031673,25.494293 22.498253,25.961212 22.498253,26.541195 L 22.498253,28.44749 C 22.498253,29.027474 22.031673,29.494392 21.452109,29.494392 L 18.547891,29.494392 C 17.968327,29.494392 17.501747,29.027474 17.501747,28.44749 L 17.501747,26.541195 C 17.501747,25.961212 17.968327,25.494293 18.547891,25.494293 z M 18.547891,19.494137 L 21.452109,19.494137 C 22.031673,19.494137 22.498253,19.961055 22.498253,20.541039 L 22.498253,22.447334 C 22.498253,23.027318 22.031673,23.494236 21.452109,23.494236 L 18.547891,23.494236 C 17.968327,23.494236 17.501747,23.027318 17.501747,22.447334 L 17.501747,20.541039 C 17.501747,19.961055 17.968327,19.494137 18.547891,19.494137 z M 25.546871,31.492481 L 28.453118,31.492481 C 29.033087,31.492481 29.499993,31.959387 29.499993,32.539356 L 29.499993,34.445602 C 29.499993,35.025571 29.033087,35.492477 28.453118,35.492477 L 25.546871,35.492477 C 24.966902,35.492477 24.499996,35.025571 24.499996,34.445602 L 24.499996,32.539356 C 24.499996,31.959387 24.966902,31.492481 25.546871,31.492481 z M 25.546871,19.492479 L 28.453118,19.492479 C 29.033087,19.492479 29.499993,19.959386 29.499993,20.539354 L 29.499993,22.4456 C 29.499993,23.025569 29.033087,23.492475 28.453118,23.492475 L 25.546871,23.492475 C 24.966902,23.492475 24.499996,23.025569 24.499996,22.4456 L 24.499996,20.539354 C 24.499996,19.959386 24.966902,19.492479 25.546871,19.492479 z M 25.546871,25.492477 L 28.453118,25.492477 C 29.033087,25.492477 29.499993,25.959384 29.499993,26.539352 L 29.499993,28.445598 C 29.499993,29.025567 29.033087,29.492473 28.453118,29.492473 L 25.546871,29.492473 C 24.966902,29.492473 24.499996,29.025567 24.499996,28.445598 L 24.499996,26.539352 C 24.499996,25.959384 24.966902,25.492477 25.546871,25.492477 z"
       id="rect3351"
       style="fill:#4d4d4d;fill-opacity:1;fill-rule:nonzero;stroke:#1a1a1a;stroke-width:1.00000024;stroke-linecap:square;stroke-linejoin:miter;marker:none;marker-start:none;marker-mid:none;marker-end:none;stroke-miterlimit:6;stroke-dashoffset:1.4;stroke-opacity:1;visibility:visible;display:inline;overflow:visible;enable-background:accumulate" />
    <rect
       width="3.9673727"
       height="2.0003805"
       rx="0"
       ry="0"
       x="32.542786"
       y="20.490643"
       id="rect3353"
       style="opacity:0.3;fill:none;stroke:url(#linearGradient3357);stroke-width:0.99600363;stroke-linecap:square;stroke-linejoin:round;marker:none;stroke-miterlimit:6;stroke-dasharray:none;stroke-dashoffset:1.4;stroke-opacity:1;visibility:visible;display:inline;overflow:visible" />
    <rect
       width="3.9673727"
       height="2.0003805"
       rx="0"
       ry="0"
       x="32.542786"
       y="26.491734"
       id="rect3425"
       style="opacity:0.3;fill:none;stroke:url(#linearGradient3361);stroke-width:0.99600363;stroke-linecap:square;stroke-linejoin:round;marker:none;stroke-miterlimit:6;stroke-dasharray:none;stroke-dashoffset:1.4;stroke-opacity:1;visibility:visible;display:inline;overflow:visible" />
    <rect
       width="3.9673727"
       height="8.0014706"
       rx="0"
       ry="0"
       x="32.542786"
       y="32.492821"
       id="rect3369"
       style="opacity:0.3;fill:none;stroke:url(#linearGradient3359);stroke-width:0.99600363;stroke-linecap:square;stroke-linejoin:round;marker:none;stroke-miterlimit:6;stroke-dasharray:none;stroke-dashoffset:1.4;stroke-opacity:1;visibility:visible;display:inline;overflow:visible" />
    <rect
       width="3.0000143"
       height="2.0000165"
       rx="0"
       ry="0"
       x="25.49999"
       y="38.492462"
       id="rect3383"
       style="opacity:0.6;fill:none;stroke:url(#linearGradient3375);stroke-width:1.00000012;stroke-linecap:square;stroke-linejoin:round;marker:none;stroke-miterlimit:6;stroke-dasharray:none;stroke-dashoffset:1.4;stroke-opacity:1;visibility:visible;display:inline;overflow:visible" />
    <rect
       width="10.264407"
       height="2.0003798"
       rx="0"
       ry="0"
       x="11.388604"
       y="38.493916"
       id="rect3261"
       style="opacity:0.6;fill:none;stroke:url(#linearGradient3377);stroke-width:0.99600363;stroke-linecap:square;stroke-linejoin:round;marker:none;stroke-miterlimit:6;stroke-dasharray:none;stroke-dashoffset:1.4;stroke-opacity:1;visibility:visible;display:inline;overflow:visible" />
    <rect
       width="2.9979188"
       height="2.0000684"
       rx="0"
       ry="0"
       x="11.501042"
       y="32.492546"
       id="rect3329"
       style="opacity:0.6;fill:none;stroke:url(#linearGradient3369);stroke-width:0.99966383;stroke-linecap:square;stroke-linejoin:round;marker:none;stroke-miterlimit:6;stroke-dasharray:none;stroke-dashoffset:1.4;stroke-opacity:1;visibility:visible;display:inline;overflow:visible" />
    <rect
       width="2.9979188"
       height="2.0000684"
       rx="0"
       ry="0"
       x="11.501042"
       y="26.492386"
       id="rect3335"
       style="opacity:0.6;fill:none;stroke:url(#linearGradient3367);stroke-width:0.99966383;stroke-linecap:square;stroke-linejoin:round;marker:none;stroke-miterlimit:6;stroke-dasharray:none;stroke-dashoffset:1.4;stroke-opacity:1;visibility:visible;display:inline;overflow:visible" />
    <rect
       width="2.9979188"
       height="2.0000684"
       rx="0"
       ry="0"
       x="11.501042"
       y="20.492229"
       id="rect3341"
       style="opacity:0.6;fill:none;stroke:url(#linearGradient3351);stroke-width:0.99966383;stroke-linecap:square;stroke-linejoin:round;marker:none;stroke-miterlimit:6;stroke-dasharray:none;stroke-dashoffset:1.4;stroke-opacity:1;visibility:visible;display:inline;overflow:visible" />
    <rect
       width="2.9979188"
       height="2.0000684"
       rx="0"
       ry="0"
       x="18.501043"
       y="32.494453"
       id="rect3372"
       style="opacity:0.6;fill:none;stroke:url(#linearGradient3371);stroke-width:0.99966383;stroke-linecap:square;stroke-linejoin:round;marker:none;stroke-miterlimit:6;stroke-dasharray:none;stroke-dashoffset:1.4;stroke-opacity:1;visibility:visible;display:inline;overflow:visible" />
    <rect
       width="2.9979188"
       height="2.0000684"
       rx="0"
       ry="0"
       x="18.501043"
       y="26.494297"
       id="rect3378"
       style="opacity:0.6;fill:none;stroke:url(#linearGradient3365);stroke-width:0.99966383;stroke-linecap:square;stroke-linejoin:round;marker:none;stroke-miterlimit:6;stroke-dasharray:none;stroke-dashoffset:1.4;stroke-opacity:1;visibility:visible;display:inline;overflow:visible" />
    <rect
       width="2.9979188"
       height="2.0000684"
       rx="0"
       ry="0"
       x="18.501043"
       y="20.494141"
       id="rect3384"
       style="opacity:0.6;fill:none;stroke:url(#linearGradient3353);stroke-width:0.99966383;stroke-linecap:square;stroke-linejoin:round;marker:none;stroke-miterlimit:6;stroke-dasharray:none;stroke-dashoffset:1.4;stroke-opacity:1;visibility:visible;display:inline;overflow:visible" />
    <rect
       width="3.0000131"
       height="2.0000167"
       rx="0"
       ry="0"
       x="25.499989"
       y="32.492458"
       id="rect3397"
       style="opacity:0.6;fill:none;stroke:url(#linearGradient3373);stroke-width:1;stroke-linecap:square;stroke-linejoin:round;marker:none;stroke-miterlimit:6;stroke-dasharray:none;stroke-dashoffset:1.4;stroke-opacity:1;visibility:visible;display:inline;overflow:visible" />
    <rect
       width="3.0000131"
       height="2.0000167"
       rx="0"
       ry="0"
       x="25.499989"
       y="26.492455"
       id="rect3403"
       style="opacity:0.6;fill:none;stroke:url(#linearGradient3363);stroke-width:1;stroke-linecap:square;stroke-linejoin:round;marker:none;stroke-miterlimit:6;stroke-dasharray:none;stroke-dashoffset:1.4;stroke-opacity:1;visibility:visible;display:inline;overflow:visible" />
    <rect
       width="3.0000131"
       height="2.0000167"
       rx="0"
       ry="0"
       x="25.499989"
       y="20.492456"
       id="rect3409"
       style="opacity:0.6;fill:none;stroke:url(#linearGradient3355);stroke-width:1;stroke-linecap:square;stroke-linejoin:round;marker:none;stroke-miterlimit:6;stroke-dasharray:none;stroke-dashoffset:1.4;stroke-opacity:1;visibility:visible;display:inline;overflow:visible" />
    <rect
       width="29"
       height="11"
       rx="2.1459258"
       ry="2.1459258"
       x="9.5"
       y="5.5"
       id="rect3424"
       style="opacity:0.4;fill:none;fill-opacity:1;fill-rule:nonzero;stroke:url(#linearGradient3433);stroke-width:0.99999994;marker:none;stroke-opacity:1;visibility:visible;display:inline;overflow:visible" />
    <path
       d="M 32.375,30.5 C 31.328602,30.5 30.5,31.328603 30.5,32.375 L 30.5,38.3125 C 30.5,37.309702 29.690298,36.5 28.6875,36.5 L 25.3125,36.5 C 24.361571,36.5 23.577643,37.22605 23.5,38.15625 C 23.5,37.236688 22.763312,36.5 21.84375,36.5 L 11.15625,36.5 C 10.236688,36.5 9.5,37.236688 9.5,38.15625 L 9.5,40.84375 C 9.5,41.763312 10.236688,42.5 11.15625,42.5 L 21.84375,42.5 C 22.763312,42.5 23.5,41.763312 23.5,40.84375 C 23.577643,41.77395 24.361571,42.5 25.3125,42.5 L 28.6875,42.5 C 29.690298,42.5 30.5,41.690298 30.5,40.6875 C 30.533869,41.703714 31.350253,42.499998 32.375,42.5 L 36.625,42.5 C 37.671398,42.5 38.500002,41.671397 38.5,40.625 L 38.5,32.375 C 38.5,31.328602 37.671397,30.5 36.625,30.5 L 32.375,30.5 z"
       id="rect3435"
       style="opacity:0.4;fill:none;fill-opacity:1;fill-rule:nonzero;stroke:url(#linearGradient3450);stroke-width:0.99999988;marker:none;stroke-opacity:1;visibility:visible;display:inline;overflow:visible" />
    <path
       d="M 11.3125,30.5 C 10.309702,30.5 9.5,31.309702 9.5,32.3125 L 9.5,34.6875 C 9.5,35.690298 10.309702,36.5 11.3125,36.5 L 14.6875,36.5 C 15.690298,36.5 16.5,35.690298 16.5,34.6875 C 16.5,35.690298 17.309702,36.5 18.3125,36.5 L 21.6875,36.5 C 22.690298,36.5 23.5,35.690298 23.5,34.6875 C 23.5,35.690298 24.309702,36.5 25.3125,36.5 L 28.6875,36.5 C 29.690298,36.5 30.5,35.690298 30.5,34.6875 L 30.5,32.3125 C 30.5,31.309702 29.690298,30.5 28.6875,30.5 L 25.3125,30.5 C 24.309702,30.5 23.5,31.309702 23.5,32.3125 C 23.5,31.309702 22.690298,30.5 21.6875,30.5 L 18.3125,30.5 C 17.309702,30.5 16.5,31.309702 16.5,32.3125 C 16.5,31.309702 15.690298,30.5 14.6875,30.5 L 11.3125,30.5 z"
       id="rect3439"
       style="opacity:0.4;fill:none;fill-opacity:1;fill-rule:nonzero;stroke:url(#linearGradient3454);stroke-width:0.99999988;marker:none;stroke-opacity:1;visibility:visible;display:inline;overflow:visible" />
    <path
       d="M 11.3125,24.5 C 10.309702,24.5 9.5,25.309702 9.5,26.3125 L 9.5,28.6875 C 9.5,29.690298 10.309702,30.5 11.3125,30.5 L 14.6875,30.5 C 15.690298,30.5 16.5,29.690298 16.5,28.6875 C 16.5,29.690298 17.309702,30.5 18.3125,30.5 L 21.6875,30.5 C 22.690298,30.5 23.5,29.690298 23.5,28.6875 C 23.5,29.690298 24.309702,30.5 25.3125,30.5 L 28.6875,30.5 C 29.690298,30.5 30.5,29.690298 30.5,28.6875 C 30.567457,29.702 31.408888,30.5 32.4375,30.5 L 36.5625,30.5 C 37.635511,30.5 38.5,29.639289 38.5,28.5625 L 38.5,26.4375 C 38.5,25.360711 37.635512,24.5 36.5625,24.5 L 32.4375,24.5 C 31.40889,24.5 30.567457,25.297999 30.5,26.3125 C 30.5,25.309702 29.690298,24.5 28.6875,24.5 L 25.3125,24.5 C 24.309702,24.5 23.5,25.309702 23.5,26.3125 C 23.5,25.309702 22.690298,24.5 21.6875,24.5 L 18.3125,24.5 C 17.309702,24.5 16.5,25.309702 16.5,26.3125 C 16.5,25.309702 15.690298,24.5 14.6875,24.5 L 11.3125,24.5 z"
       id="path3465"
       style="opacity:0.4;fill:none;fill-opacity:1;fill-rule:nonzero;stroke:url(#linearGradient3467);stroke-width:0.99999988;marker:none;stroke-opacity:1;visibility:visible;display:inline;overflow:visible" />
    <path
       d="M 11.3125,18.5 C 10.309702,18.5 9.5,19.309702 9.5,20.3125 L 9.5,22.6875 C 9.5,23.690298 10.309702,24.5 11.3125,24.5 L 14.6875,24.5 C 15.690298,24.5 16.5,23.690298 16.5,22.6875 C 16.5,23.690298 17.309702,24.5 18.3125,24.5 L 21.6875,24.5 C 22.690298,24.5 23.5,23.690298 23.5,22.6875 C 23.5,23.690298 24.309702,24.5 25.3125,24.5 L 28.6875,24.5 C 29.690298,24.5 30.5,23.690298 30.5,22.6875 C 30.567457,23.702 31.408888,24.5 32.4375,24.5 L 36.5625,24.5 C 37.635511,24.5 38.5,23.639289 38.5,22.5625 L 38.5,20.4375 C 38.5,19.360711 37.635512,18.5 36.5625,18.5 L 32.4375,18.5 C 31.40889,18.5 30.567457,19.297999 30.5,20.3125 C 30.5,19.309702 29.690298,18.5 28.6875,18.5 L 25.3125,18.5 C 24.309702,18.5 23.5,19.309702 23.5,20.3125 C 23.5,19.309702 22.690298,18.5 21.6875,18.5 L 18.3125,18.5 C 17.309702,18.5 16.5,19.309702 16.5,20.3125 C 16.5,19.309702 15.690298,18.5 14.6875,18.5 L 11.3125,18.5 z"
       id="path3469"
       style="opacity:0.4;fill:none;fill-opacity:1;fill-rule:nonzero;stroke:url(#linearGradient3471);stroke-width:0.99999988;marker:none;stroke-opacity:1;visibility:visible;display:inline;overflow:visible" />
  </g>
</svg>
