<?xml version="1.0" encoding="UTF-8" standalone="no"?>
<!-- Created with Inkscape (http://www.inkscape.org/) -->

<svg
   xmlns:dc="http://purl.org/dc/elements/1.1/"
   xmlns:cc="http://creativecommons.org/ns#"
   xmlns:rdf="http://www.w3.org/1999/02/22-rdf-syntax-ns#"
   xmlns:svg="http://www.w3.org/2000/svg"
   xmlns="http://www.w3.org/2000/svg"
   xmlns:xlink="http://www.w3.org/1999/xlink"
   xmlns:sodipodi="http://sodipodi.sourceforge.net/DTD/sodipodi-0.dtd"
   xmlns:inkscape="http://www.inkscape.org/namespaces/inkscape"
   version="1.1"
   width="48"
   height="48"
   id="svg4405"
   inkscape:version="0.47pre4 r22446"
   sodipodi:docname="invest-applet.svg">
  <metadata
     id="metadata64">
    <rdf:RDF>
      <cc:Work
         rdf:about="">
        <dc:format>image/svg+xml</dc:format>
        <dc:type
           rdf:resource="http://purl.org/dc/dcmitype/StillImage" />
      </cc:Work>
    </rdf:RDF>
  </metadata>
  <sodipodi:namedview
     pagecolor="#ffffff"
     bordercolor="#666666"
     borderopacity="1"
     objecttolerance="10"
     gridtolerance="10"
     guidetolerance="10"
     inkscape:pageopacity="0"
     inkscape:pageshadow="2"
     inkscape:window-width="640"
     inkscape:window-height="489"
     id="namedview62"
     showgrid="false"
     inkscape:zoom="4.9166667"
     inkscape:cx="24"
     inkscape:cy="23.59322"
     inkscape:window-x="0"
     inkscape:window-y="24"
     inkscape:window-maximized="0"
     inkscape:current-layer="svg4405" />
  <defs
     id="defs4407">
    <linearGradient
       id="linearGradient3924">
      <stop
         id="stop3926"
         style="stop-color:#ffffff;stop-opacity:1"
         offset="0" />
      <stop
         id="stop3928"
         style="stop-color:#ffffff;stop-opacity:0"
         offset="1" />
    </linearGradient>
    <linearGradient
       id="linearGradient3824">
      <stop
         id="stop3826"
         style="stop-color:#ffffff;stop-opacity:1"
         offset="0" />
      <stop
         id="stop3828"
         style="stop-color:#ffffff;stop-opacity:0"
         offset="1" />
    </linearGradient>
    <linearGradient
       id="linearGradient3308-4-6">
      <stop
         id="stop3310-1-4"
         style="stop-color:#ffffff;stop-opacity:1"
         offset="0" />
      <stop
         id="stop3312-5-3"
         style="stop-color:#ffffff;stop-opacity:0"
         offset="1" />
    </linearGradient>
    <linearGradient
       id="linearGradient3688">
      <stop
         id="stop3690"
         style="stop-color:#000000;stop-opacity:1"
         offset="0" />
      <stop
         id="stop3692"
         style="stop-color:#000000;stop-opacity:0"
         offset="1" />
    </linearGradient>
    <linearGradient
       id="linearGradient3702">
      <stop
         id="stop3704"
         style="stop-color:#000000;stop-opacity:0"
         offset="0" />
      <stop
         id="stop3710"
         style="stop-color:#000000;stop-opacity:1"
         offset="0.5" />
      <stop
         id="stop3706"
         style="stop-color:#000000;stop-opacity:0"
         offset="1" />
    </linearGradient>
    <linearGradient
       x1="23.99999"
       y1="4.999989"
       x2="23.99999"
       y2="43"
       id="linearGradient2855"
       xlink:href="#linearGradient3308-4-6"
       gradientUnits="userSpaceOnUse"
       gradientTransform="translate(0,0.9674388)" />
    <radialGradient
       cx="12.011247"
       cy="13.194963"
       r="19.99999"
       fx="12.011247"
       fy="13.194963"
       id="radialGradient2863"
       xlink:href="#linearGradient3671"
       gradientUnits="userSpaceOnUse"
       gradientTransform="matrix(5.6341942e-8,1.6800831,-2.423533,1.0380855e-8,44.478401,-5.926735)" />
    <linearGradient
       x1="24"
       y1="44"
       x2="24"
       y2="3.8990016"
       id="linearGradient2865"
       xlink:href="#linearGradient3707"
       gradientUnits="userSpaceOnUse"
       gradientTransform="translate(0,0.9674388)" />
    <radialGradient
       cx="4.9929786"
       cy="43.5"
       r="2.5"
       fx="4.9929786"
       fy="43.5"
       id="radialGradient2873"
       xlink:href="#linearGradient3688"
       gradientUnits="userSpaceOnUse"
       gradientTransform="matrix(2.003784,0,0,1.4,27.98813,-17.4)" />
    <radialGradient
       cx="4.9929786"
       cy="43.5"
       r="2.5"
       fx="4.9929786"
       fy="43.5"
       id="radialGradient2875"
       xlink:href="#linearGradient3688"
       gradientUnits="userSpaceOnUse"
       gradientTransform="matrix(2.003784,0,0,1.4,-20.01187,-104.4)" />
    <linearGradient
       x1="25.058096"
       y1="47.027729"
       x2="25.058096"
       y2="39.999443"
       id="linearGradient2877"
       xlink:href="#linearGradient3702"
       gradientUnits="userSpaceOnUse" />
    <linearGradient
       id="linearGradient3707">
      <stop
         id="stop3709"
         style="stop-color:#4c2a4e;stop-opacity:1"
         offset="0" />
      <stop
         id="stop3711"
         style="stop-color:#a85394;stop-opacity:1"
         offset="1" />
    </linearGradient>
    <linearGradient
       id="linearGradient3671">
      <stop
         id="stop3673"
         style="stop-color:#e384c6;stop-opacity:1"
         offset="0" />
      <stop
         id="stop3675"
         style="stop-color:#c467be;stop-opacity:1"
         offset="0.26238" />
      <stop
         id="stop3677"
         style="stop-color:#93399a;stop-opacity:1"
         offset="0.704952" />
      <stop
         id="stop3679"
         style="stop-color:#48274f;stop-opacity:1"
         offset="1" />
    </linearGradient>
    <radialGradient
       cx="24"
       cy="9.488533"
       r="18.5"
       fx="24"
       fy="9.488533"
       id="radialGradient3832"
       xlink:href="#linearGradient3824"
       gradientUnits="userSpaceOnUse"
       gradientTransform="matrix(0,1.3555578,-4.0521018,0,74.398021,-14.127138)" />
    <linearGradient
       x1="17"
       y1="25"
       x2="17"
       y2="6"
       id="linearGradient3930"
       xlink:href="#linearGradient3924"
       gradientUnits="userSpaceOnUse"
       spreadMethod="reflect" />
  </defs>
  <g
     transform="matrix(1.1,0,0,0.44444486,-2.4000022,25.11107)"
     id="g2036"
     style="display:inline">
    <g
       transform="matrix(1.052632,0,0,1.285713,-1.263158,-13.42854)"
       id="g3712"
       style="opacity:0.4">
      <rect
         width="5"
         height="7"
         x="38"
         y="40"
         id="rect2801"
         style="fill:url(#radialGradient2873);fill-opacity:1;stroke:none" />
      <rect
         width="5"
         height="7"
         x="-10"
         y="-47"
         transform="scale(-1,-1)"
         id="rect3696"
         style="fill:url(#radialGradient2875);fill-opacity:1;stroke:none" />
      <rect
         width="28"
         height="7.0000005"
         x="10"
         y="40"
         id="rect3700"
         style="fill:url(#linearGradient2877);fill-opacity:1;stroke:none" />
    </g>
  </g>
  <rect
     width="39"
     height="39"
     rx="2.2322156"
     ry="2.2322156"
     x="4.5"
     y="5.4674392"
     id="rect5505"
     style="fill:url(#radialGradient2863);fill-opacity:1;stroke:url(#linearGradient2865);stroke-width:1;stroke-linecap:round;stroke-linejoin:round;stroke-miterlimit:4;stroke-opacity:1;stroke-dasharray:none;stroke-dashoffset:0" />
  <rect
     width="36.999985"
     height="37.000011"
     rx="1.365193"
     ry="1.365193"
     x="5.4999981"
     y="6.4674282"
     id="rect6741"
     style="opacity:0.4;fill:none;stroke:url(#linearGradient2855);stroke-width:0.99999976;stroke-linecap:round;stroke-linejoin:round;stroke-miterlimit:4;stroke-opacity:1;stroke-dasharray:none;stroke-dashoffset:0" />
  <path
     d="m 5.5045094,27.054371 c 3.9837203,-10.129982 7.8441496,4.5211 10.5100826,1.99319 2.297129,-2.178201 2.601648,-8.446526 5.04484,-10.763226 2.189419,-2.076069 3.713525,6.71037 4.204033,7.175483 3.00843,2.852677 3.303498,-4.640972 4.624435,-3.388423 2.180312,2.067432 -0.255992,7.530702 2.102018,9.766632 C 33.881835,33.631995 35.820931,15.998006 42.5,26.855052"
     id="path3701"
     style="opacity:0.8;fill:none;stroke:#ffffff;stroke-width:1px;stroke-linecap:butt;stroke-linejoin:miter;stroke-opacity:1" />
  <path
     d="m 21.78125,18.40625 c -1.302726,0.729395 -1.739235,2.366579 -2.28125,3.6875 -0.953122,2.46314 -1.302604,5.327465 -3.1875,7.3125 C 15.105735,30.496769 13.718197,29.129451 13,28.15625 11.73706,26.736046 10.814809,24.812929 9.03125,23.96875 7.3503536,23.66246 6.6501123,25.712071 6.0625,26.9375 5.9878157,27.315551 5.7615167,27.359823 5.5,27.3125 l 0,14.78125 c 0,0.756317 0.6186831,1.375 1.375,1.375 l 34.25,0 c 0.756317,0 1.375,-0.618683 1.375,-1.375 L 42.5,27.75 c -0.963269,-1.456554 -2.468132,-3.675228 -3.8125,-4 -1.860392,-0.0089 -2.632424,2.086105 -3.375,3.46875 -0.830981,1.607062 -1.248145,3.468195 -2.375,4.90625 -1.657383,1.025747 -2.474559,-1.797488 -2.5,-3.0625 -0.229516,-2.080663 0.428716,-4.34383 -0.5625,-6.28125 -0.800589,-0.676437 -0.93293,1.73399 -1.5,2.3125 -0.519171,1.813036 -3.230852,1.913182 -3.75,0.09375 -0.741173,-2.185444 -1.067939,-4.605045 -2.46875,-6.5 L 21.9375,18.5 21.78125,18.40625 z"
     id="path3782"
     style="opacity:0.4;fill:url(#radialGradient3832);fill-opacity:1;stroke:none" />
  <path
     d="m 17.5,6.5 0,37 0,-37 z m 13,0 0,37 0,-37 z"
     id="path3834-9-0"
     style="opacity:0.3;color:#000000;fill:none;stroke:url(#linearGradient3930);stroke-width:1px;stroke-linecap:square;stroke-linejoin:miter;stroke-miterlimit:4;stroke-opacity:1;stroke-dasharray:none;stroke-dashoffset:0;marker:none;visibility:visible;display:inline;overflow:visible;enable-background:accumulate" />
  <path
     d="m 7.3564688,40.948002 c 0.4751037,0.111096 0.7569745,-0.07106 0.841368,-0.552894 0.1282868,-0.428819 0.7453881,-0.115821 1.0934545,-0.211106 0.2727052,0.195502 0.1751028,0.9449 0.6994517,0.764 C 10.555316,41.05617 9.9127301,40.361657 9.898409,40.084898 9.6057623,39.387266 9.3131155,38.689634 9.0204688,37.992002 8.4887314,37.811506 8.4542154,38.37692 8.2798369,38.732518 7.9720475,39.471013 7.6642582,40.209507 7.3564688,40.948002 z m 1.132,-1.288 c 0.1349812,-0.191579 0.2699624,-1.232846 0.4049436,-0.643806 0.2160495,0.440103 0.3238757,0.803617 -0.3077823,0.643806 l -0.066855,0 -0.030307,0 z m 2.0729372,-1.668 c 0.05632,0.854098 -0.139396,1.756612 0.16,2.568 0.831131,1.107381 2.180919,-0.06114 1.836,-1.163984 0,-0.468005 0,-0.936011 0,-1.404016 -0.568434,-0.162919 -0.61926,0.191771 -0.548,0.668548 -0.02722,0.536311 0.06576,1.091342 -0.072,1.611452 -0.898724,0.668987 -0.868395,-0.693852 -0.828,-1.277113 -0.106273,-0.294877 0.230516,-1.032817 -0.200564,-1.002887 -0.115812,0 -0.231624,0 -0.347436,0 z m 3.6305,1.96 c 0.408,0 0.816,0 1.224,0 -0.85626,1.564525 -2.912799,-0.680432 -1.3,-1.4085 0.5401,-0.446564 1.692651,0.828437 1.765243,0.124227 -0.660033,-1.167397 -2.660123,-0.845568 -2.877821,0.48732 -0.323908,1.269877 1.244099,2.300915 2.330953,1.66507 0.463922,-0.120039 1.302667,-1.550726 0.388496,-1.380117 -0.51029,0 -1.02058,0 -1.530871,0 0,0.170667 0,0.341333 0,0.512 z m 6.544125,0.152 c 0.04622,1.543236 2.630631,0.789666 1.765813,-0.538563 -0.448074,-0.168415 -1.753924,-1.106288 -0.582813,-1.016437 0.405643,0.722684 1.076411,-0.225379 0.1745,-0.526 -1.363181,-0.58059 -1.687657,1.670495 -0.2635,1.705 0.8218,0.572401 -0.46602,1.032357 -0.655709,0.376 -0.146097,0 -0.292194,0 -0.438291,0 z m 2.294125,0.844 c 0.529334,0 1.058667,0 1.588,0 0.179324,-0.599125 -0.277571,-0.562031 -0.735403,-0.524 -0.437628,0.236865 -0.445498,-0.793444 -0.104032,-0.688 0.415687,-0.0055 0.9878,0.145521 0.795435,-0.467984 -0.18973,-0.227797 -1.032788,0.197735 -0.996,-0.256581 -0.187645,-0.597925 0.302444,-0.518115 0.735403,-0.495435 0.50442,0.180289 0.407753,-0.79976 -0.09653,-0.524 -0.37259,0.04532 -0.926065,-0.09025 -1.186871,0.06686 0,0.963048 0,1.926096 0,2.889145 z m 2.078125,0 c 0.568435,0.162918 0.619261,-0.191772 0.548,-0.668548 -0.248647,-0.945737 1.614834,-0.103361 1.34,-1.375452 0.009,-1.056317 -1.153956,-0.917489 -1.888,-0.912 0,0.985333 0,1.970667 0,2.956 z m 0.548,-1.648 c -0.125534,-0.563404 0.07752,-1.144009 0.72,-0.6245 0.294178,0.540652 -0.325208,0.671673 -0.72,0.6245 z m 6.162938,1.648 c 0.568434,0.162918 0.61926,-0.191772 0.548,-0.668548 0,-0.493151 0,-0.986302 0,-1.479452 0.412,0.716 0.824,1.432 1.236,2.148 0.52234,0.117776 0.736814,-0.07232 0.612,-0.601694 0,-0.784768 0,-1.569537 0,-2.354306 -0.568435,-0.162919 -0.619261,0.191771 -0.548,0.668548 0,0.494484 0,0.988968 0,1.483452 -0.408,-0.717333 -0.816,-1.434667 -1.224,-2.152 -0.521629,-0.113064 -0.752381,0.06475 -0.624,0.601693 0,0.784769 0,1.569538 0,2.354307 z m 4.368937,-3.008 c -1.261585,-0.08917 -2.062533,1.579087 -1.207477,2.507317 0.744049,0.9775 2.520057,0.575441 2.697266,-0.665427 0.211227,-0.915641 -0.544179,-1.867059 -1.489789,-1.84189 z m -0.008,0.528 c 1.678837,0.0075 0.860966,2.801646 -0.562499,1.83525 -0.809221,-0.504178 -0.408673,-1.888085 0.562499,-1.83525 z m 2.871375,2.48 c 0.540882,0.18114 0.575829,-0.376023 0.737554,-0.748182 0.284815,-0.73594 0.569631,-1.471879 0.854446,-2.207818 -0.516076,-0.143229 -0.71665,0.159956 -0.799151,0.630206 -0.19095,0.539265 -0.381899,1.078529 -0.572849,1.617794 -0.265333,-0.749333 -0.530666,-1.498667 -0.796,-2.248 -0.621965,-0.141572 -0.598394,0.158106 -0.333239,0.622916 0.303079,0.777695 0.606159,1.555389 0.909239,2.333084 z"
     id="text3934"
     style="font-size:4px;font-style:normal;font-variant:normal;font-weight:bold;font-stretch:normal;opacity:0.4;fill:#ffffff;fill-opacity:1;stroke:none;font-family:URW Gothic L;-inkscape-font-specification:Andale Mono Bold" />
</svg>
