<?xml version="1.0" encoding="UTF-8" standalone="no"?>
<!-- Created with Inkscape (http://www.inkscape.org/) -->
<svg
   xmlns:dc="http://purl.org/dc/elements/1.1/"
   xmlns:cc="http://creativecommons.org/ns#"
   xmlns:rdf="http://www.w3.org/1999/02/22-rdf-syntax-ns#"
   xmlns:svg="http://www.w3.org/2000/svg"
   xmlns="http://www.w3.org/2000/svg"
   xmlns:xlink="http://www.w3.org/1999/xlink"
   xmlns:sodipodi="http://sodipodi.sourceforge.net/DTD/sodipodi-0.dtd"
   xmlns:inkscape="http://www.inkscape.org/namespaces/inkscape"
   width="48px"
   height="48px"
   id="svg15137"
   sodipodi:version="0.32"
   inkscape:version="0.46"
   sodipodi:docname="web-browser.svg"
   inkscape:output_extension="org.inkscape.output.svg.inkscape">
  <defs
     id="defs15139">
    <linearGradient
       inkscape:collect="always"
       id="linearGradient8838">
      <stop
         style="stop-color:#000000;stop-opacity:1;"
         offset="0"
         id="stop8840" />
      <stop
         style="stop-color:#000000;stop-opacity:0;"
         offset="1"
         id="stop8842" />
    </linearGradient>
    <radialGradient
       r="10.625"
       fy="4.625"
       fx="62.625"
       cy="4.625"
       cx="62.625"
       gradientTransform="matrix(1,0,0,0.341176,0,3.047059)"
       gradientUnits="userSpaceOnUse"
       id="radialGradient2612"
       xlink:href="#linearGradient8838"
       inkscape:collect="always" />
    <linearGradient
       id="linearGradient4873"
       inkscape:collect="always">
      <stop
         id="stop4875"
         offset="0"
         style="stop-color:#ffffff;stop-opacity:1;" />
      <stop
         id="stop4877"
         offset="1"
         style="stop-color:#ffffff;stop-opacity:0;" />
    </linearGradient>
    <linearGradient
       inkscape:collect="always"
       xlink:href="#linearGradient4873"
       id="linearGradient15133"
       gradientUnits="userSpaceOnUse"
       gradientTransform="matrix(2.149872,0,0,2.149872,-110.11554,31.935342)"
       x1="62.200409"
       y1="-12.489107"
       x2="62.200409"
       y2="0.24325986" />
    <linearGradient
       inkscape:collect="always"
       id="linearGradient8740-304-201-142-419-164">
      <stop
         style="stop-color:#9e9e9e;stop-opacity:1;"
         offset="0"
         id="stop14118" />
      <stop
         style="stop-color:#9e9e9e;stop-opacity:0;"
         offset="1"
         id="stop14120" />
    </linearGradient>
    <radialGradient
       inkscape:collect="always"
       xlink:href="#linearGradient8740-304-201-142-419-164"
       id="radialGradient15131"
       gradientUnits="userSpaceOnUse"
       gradientTransform="matrix(1.103501,0,0,1.0265131,-4.1555224,-1.8158014)"
       cx="62.225393"
       cy="-3.4420195"
       fx="62.225393"
       fy="-3.4420195"
       r="10.081216" />
    <linearGradient
       id="linearGradient12067-267-678-820-366-564">
      <stop
         id="stop14112"
         offset="0"
         style="stop-color:#557695;stop-opacity:1;" />
      <stop
         id="stop14114"
         offset="1"
         style="stop-color:#15395c;stop-opacity:1;" />
    </linearGradient>
    <radialGradient
       inkscape:collect="always"
       xlink:href="#linearGradient12067-267-678-820-366-564"
       id="radialGradient15129"
       gradientUnits="userSpaceOnUse"
       gradientTransform="matrix(-1.5425322,0,0,-0.8455253,60.718461,23.829235)"
       cx="23.859564"
       cy="13.066691"
       fx="23.859564"
       fy="13.066691"
       r="18.097781" />
    <linearGradient
       id="linearGradient8647">
      <stop
         style="stop-color:#8fb1dc;stop-opacity:1;"
         offset="0"
         id="stop8649" />
      <stop
         style="stop-color:#3465a4;stop-opacity:1;"
         offset="1"
         id="stop8651" />
    </linearGradient>
    <radialGradient
       inkscape:collect="always"
       xlink:href="#linearGradient8647"
       id="radialGradient15127"
       gradientUnits="userSpaceOnUse"
       gradientTransform="matrix(2.4129174,0,0,2.4129712,-126.47708,34.230797)"
       cx="62.200352"
       cy="-8.7256308"
       fx="62.200352"
       fy="-8.7256308"
       r="9.7552835" />
    <linearGradient
       id="linearGradient4845">
      <stop
         id="stop4847"
         offset="0"
         style="stop-color:#ffffff;stop-opacity:1;" />
      <stop
         id="stop4849"
         offset="1"
         style="stop-color:#b6b6b6;stop-opacity:1;" />
    </linearGradient>
    <radialGradient
       inkscape:collect="always"
       xlink:href="#linearGradient4845"
       id="radialGradient2414"
       gradientUnits="userSpaceOnUse"
       gradientTransform="matrix(-2.643979,0,2.93653e-8,2.534421,78.72514,-37.986139)"
       cx="17.81411"
       cy="24.149399"
       fx="17.81411"
       fy="24.149399"
       r="9.125" />
    <radialGradient
       inkscape:collect="always"
       xlink:href="#linearGradient4845"
       id="radialGradient2418"
       gradientUnits="userSpaceOnUse"
       gradientTransform="matrix(-2.643979,0,2.93653e-8,2.534421,78.72514,-37.986139)"
       cx="17.81411"
       cy="24.149399"
       fx="17.81411"
       fy="24.149399"
       r="9.125" />
  </defs>
  <sodipodi:namedview
     id="base"
     pagecolor="#ffffff"
     bordercolor="#666666"
     borderopacity="1.0"
     inkscape:pageopacity="0.0"
     inkscape:pageshadow="2"
     inkscape:zoom="12.104167"
     inkscape:cx="24"
     inkscape:cy="24"
     inkscape:current-layer="layer1"
     showgrid="true"
     inkscape:grid-bbox="true"
     inkscape:document-units="px"
     inkscape:window-width="1440"
     inkscape:window-height="794"
     inkscape:window-x="0"
     inkscape:window-y="24">
    <inkscape:grid
       type="xygrid"
       id="grid2412" />
  </sodipodi:namedview>
  <metadata
     id="metadata15142">
    <rdf:RDF>
      <cc:Work
         rdf:about="">
        <dc:format>image/svg+xml</dc:format>
        <dc:type
           rdf:resource="http://purl.org/dc/dcmitype/StillImage" />
      </cc:Work>
    </rdf:RDF>
  </metadata>
  <g
     id="layer1"
     inkscape:label="Layer 1"
     inkscape:groupmode="layer">
    <path
       transform="matrix(2.1647059,0,0,2.5636643,-111.56471,26.849769)"
       d="M 73.25,4.625 A 10.625,3.625 0 1 1 52,4.625 A 10.625,3.625 0 1 1 73.25,4.625 z"
       sodipodi:ry="3.625"
       sodipodi:rx="10.625"
       sodipodi:cy="4.625"
       sodipodi:cx="62.625"
       id="path8836"
       style="opacity:0.40000000000000002;fill:url(#radialGradient2612);fill-opacity:1;fill-rule:evenodd;stroke:none;stroke-width:0.99999987999999995;stroke-linecap:butt;stroke-linejoin:round;marker:none;marker-start:none;marker-mid:none;marker-end:none;stroke-miterlimit:4;stroke-dasharray:none;stroke-dashoffset:0;stroke-opacity:1;visibility:visible;display:inline;overflow:visible"
       sodipodi:type="arc" />
    <g
       id="g15122"
       transform="translate(0.7904165,-0.78563)">
      <path
         style="fill:url(#radialGradient15127);fill-opacity:1;fill-rule:nonzero;stroke:#204a87;stroke-width:1;stroke-miterlimit:4;stroke-dasharray:none"
         d="M 43.504933,24.386797 C 43.504933,35.376583 34.595784,44.28563 23.607509,44.28563 C 12.618227,44.28563 3.7095835,35.376482 3.7095835,24.386797 C 3.7095835,13.397515 12.618227,4.4893736 23.607509,4.4893736 C 34.595784,4.4893736 43.504933,13.397515 43.504933,24.386797 L 43.504933,24.386797 z"
         id="path6495" />
      <path
         style="fill:url(#radialGradient15129);fill-opacity:1;fill-rule:nonzero;stroke:url(#radialGradient15131);stroke-width:1.10350108;stroke-miterlimit:4"
         d="M 23.725962,5.3140582 L 21.331359,5.5877271 L 18.697296,6.3061081 C 18.921671,6.2275712 19.148975,6.1418427 19.381468,6.0666477 L 19.07359,5.5193099 L 18.047332,5.690353 L 17.534203,6.1692736 L 16.747405,6.2718994 L 16.029024,6.6139856 L 15.686938,6.7850287 L 15.584311,6.9218631 L 15.071182,7.0244889 L 14.763305,7.6744526 L 14.352801,6.8534459 L 14.215968,7.195532 L 14.284384,8.1191646 L 13.634421,8.6665024 L 13.258126,9.6585523 L 14.044925,9.6585523 L 14.352801,9.0085886 L 14.455427,8.7691282 C 14.801375,8.5244819 15.129337,8.252026 15.481686,8.0165388 L 16.302693,8.2902077 C 16.837228,8.6533697 17.37552,9.0222731 17.910498,9.3848833 L 18.697296,8.6665024 L 17.807871,8.2902077 L 17.397369,7.4692009 L 15.892189,7.2981578 L 15.857981,7.1271148 L 16.507944,7.2639492 L 16.88424,6.8876544 L 17.705246,6.7166115 C 17.899537,6.6221189 18.090661,6.5540602 18.286792,6.4771511 L 17.773663,6.9560717 L 19.620928,8.2217905 L 19.620928,8.9743799 L 18.902547,9.6927609 L 19.860388,11.608444 L 20.510352,11.232148 L 21.331359,9.9664298 C 22.485632,9.6095623 23.525936,9.1942982 24.615386,8.700711 L 24.546969,9.1796316 L 25.094306,9.5559264 L 26.052148,8.9059627 L 25.573228,8.358625 L 24.923263,8.7349196 L 24.718012,8.6665024 C 24.765153,8.644958 24.807503,8.6199831 24.854846,8.5980852 L 25.812687,6.135065 L 23.725962,5.3140582 z M 14.352801,9.0085886 L 15.139599,9.5559264 L 15.789564,9.5559264 L 15.789564,8.9059627 L 15.002766,8.5638766 L 14.352801,9.0085886 z M 32.517575,8.5638766 L 31.115023,8.9059627 L 30.225599,9.4875092 L 30.225599,10.000638 L 28.823045,10.890062 L 29.096715,12.224199 L 29.917721,11.642652 L 30.43085,12.224199 L 31.012397,12.566285 L 31.388691,11.574234 L 31.18344,10.992689 L 31.388691,10.582185 L 32.209699,9.8295954 L 32.585993,9.8295954 L 32.209699,10.650603 L 32.209699,11.403191 C 32.548094,11.311095 32.889659,11.275207 33.235957,11.232148 L 32.278116,11.916321 L 32.209699,12.326824 L 31.115023,13.250457 L 29.986138,12.976788 L 29.986138,12.326824 L 29.473009,12.66891 L 29.71247,13.250457 L 28.891463,13.250457 L 28.446751,14.003047 L 27.899413,14.618802 L 26.907363,14.824053 L 27.48891,15.4056 L 27.625744,15.987146 L 26.907363,15.987146 L 25.949522,16.500276 L 25.949522,18.005454 L 26.394234,18.005454 L 26.804737,18.450166 L 27.72837,18.005454 L 28.070456,17.081821 L 28.754629,16.671319 L 28.891463,16.329232 L 29.986138,16.055563 L 30.601893,16.739735 L 31.251857,17.081821 L 30.875562,17.834411 L 31.457109,17.663368 L 31.764987,16.910778 L 31.012397,16.055563 L 31.320275,16.055563 L 32.072864,16.671319 L 32.209699,17.492325 L 32.859662,18.244915 L 33.030705,17.150239 L 33.372791,16.979196 C 33.736922,17.357206 34.023946,17.819489 34.330633,18.244915 L 35.459517,18.313332 L 36.10948,18.723835 L 35.801603,19.168547 L 35.151639,19.750093 L 34.193798,19.750093 L 32.928079,19.339591 L 32.278116,19.408007 L 31.799195,19.955345 L 30.43085,18.587001 L 29.473009,18.313332 L 28.070456,18.484375 L 26.838946,18.826461 C 26.136419,19.622908 25.417157,20.428127 24.75222,21.255273 L 23.965422,23.170955 L 24.341717,23.581458 L 23.657544,24.573509 L 24.410134,26.318148 C 25.036369,27.026551 25.666284,27.730172 26.291608,28.439081 L 27.215241,27.652283 L 27.591535,28.131204 L 28.583586,27.48124 L 28.925672,27.857535 L 29.917721,27.857535 L 30.499268,28.507499 L 30.157182,29.670592 L 30.841354,30.45739 L 30.807146,31.825735 L 31.320275,32.817784 L 30.94398,33.672999 C 30.907304,34.286369 30.875562,34.872589 30.875562,35.486056 C 31.177385,36.317153 31.479983,37.14621 31.764987,37.983286 L 31.970238,39.317421 L 31.970238,40.001593 L 32.517575,40.001593 L 33.304374,39.488464 L 34.262216,39.488464 L 35.698977,37.880659 L 35.527934,37.333321 L 36.485776,36.478106 L 35.767394,35.691308 L 36.622609,35.007136 L 37.443617,34.494006 L 37.819911,34.083503 L 37.580451,33.15987 C 37.580451,32.382269 37.580453,31.611389 37.580451,30.833684 L 38.230415,29.396923 L 39.051421,28.507499 L 39.940845,26.318148 L 39.940845,25.736601 C 39.49824,25.792353 39.074,25.842626 38.640918,25.873436 L 39.530342,24.984011 L 40.761852,24.163005 L 41.411816,23.410415 L 41.411816,22.589408 C 41.264401,22.311398 41.11553,22.012203 40.967104,21.734193 L 40.385557,22.418365 L 39.940845,21.905236 L 39.290881,21.392107 L 39.290881,20.33164 L 40.043471,21.186855 L 40.898687,21.08423 C 41.2845,21.43448 41.654964,21.745916 41.993362,22.144696 L 42.5407,21.528941 C 42.5407,20.86603 41.794068,17.593431 40.180306,14.824053 C 38.566542,12.055589 35.733185,9.5217178 35.733186,9.5217178 L 35.527934,9.8980126 L 34.775345,10.719019 L 33.817504,9.7269695 L 34.775345,9.7269695 L 35.220057,9.2480489 L 33.441208,8.9059627 L 32.517575,8.5638766 z M 11.958198,9.0085886 L 11.616112,9.8980126 C 11.616112,9.8980126 11.017203,9.9968947 10.863523,10.034847 C 8.9008789,11.843418 4.9430953,15.766286 4.0218,23.136747 C 4.0582784,23.307632 4.6717637,24.299839 4.6717637,24.299839 L 6.1769427,25.189264 L 7.6821218,25.599766 L 8.3320855,26.386565 L 9.3241353,27.139154 L 9.9056817,27.036528 L 10.316185,27.241781 L 10.316185,27.378614 L 9.7688473,28.918002 L 9.3241353,29.567966 L 9.4609697,29.875843 L 9.1188836,31.107354 L 10.384602,33.43354 L 11.68453,34.562424 L 12.266076,35.38343 L 12.197659,37.093861 L 12.608162,38.051702 L 12.197659,39.898968 C 12.197659,39.898968 12.142892,39.883785 12.197659,40.070011 C 12.252917,40.256333 14.484393,41.509745 14.62647,41.404146 C 14.768057,41.296578 14.900139,41.198895 14.900139,41.198895 L 14.763305,40.788391 L 15.344852,40.241054 L 15.550103,39.659507 L 16.473736,39.351629 L 17.192116,37.572782 L 16.986865,37.093861 L 17.465785,36.341271 L 18.560461,36.101812 L 19.107799,34.801884 L 18.970965,33.194079 L 19.82618,31.996778 L 19.963014,30.765268 C 18.789616,30.183388 17.638382,29.585508 16.473736,28.98642 L 15.892189,27.857535 L 14.831723,27.618075 L 14.250176,26.078687 L 12.847623,26.24973 L 11.616112,25.360307 L 10.316185,26.489191 L 10.316185,26.660234 C 9.9268221,26.547851 9.4655739,26.531314 9.1188836,26.318148 L 8.8452147,25.497141 L 8.8452147,24.607717 L 7.9557907,24.710343 C 8.02737,24.143801 8.1231792,23.566355 8.195251,22.999912 L 7.6821218,22.999912 L 7.1689926,23.649876 L 6.690072,23.889336 L 5.971691,23.478833 L 5.9032738,22.589408 L 6.0401083,21.631567 L 7.1005754,20.810561 L 7.9557907,20.810561 L 8.1268338,20.33164 L 9.1873008,20.5711 L 9.974099,21.56315 L 10.110933,19.921136 L 11.479278,18.792252 L 11.958198,17.594951 L 12.984457,17.184448 L 13.531795,16.363441 L 14.831723,16.12398 L 15.481686,15.166139 C 14.838352,15.166139 14.175128,15.166139 13.531795,15.166139 L 14.763305,14.584592 L 15.61852,14.584592 L 16.713196,14.208298 L 16.918448,15.268765 L 17.397369,14.516175 L 16.85003,14.139881 L 16.986865,13.695169 L 16.542153,13.284665 L 16.063232,13.147831 L 16.200067,12.634702 L 15.823772,11.916321 L 14.968556,12.258407 L 15.105391,11.608444 L 14.113341,11.026897 L 13.326543,12.395242 L 13.39496,12.874162 L 12.608162,13.216248 L 12.129241,14.276716 L 11.889781,13.284665 L 10.555645,12.737328 L 10.316185,11.984738 L 12.129241,10.95848 L 12.916039,10.20589 L 12.984457,9.3164661 L 12.539745,9.0770058 L 11.958198,9.0085886 z M 26.633694,10.650603 L 26.633694,11.19794 L 26.941572,11.540026 L 26.941572,12.361032 L 26.770529,13.455708 L 27.659953,13.284665 L 28.309917,12.634702 L 27.72837,12.087364 C 27.53978,11.58516 27.348655,11.132282 27.112615,10.650603 L 26.633694,10.650603 z M 25.881104,11.745277 L 25.333767,11.916321 L 25.470601,12.908371 L 26.188982,12.532075 L 25.881104,11.745277 z M 35.904229,20.742143 L 36.725235,21.699984 L 37.717285,23.820919 L 38.33304,24.505091 L 38.025163,25.223472 L 38.572501,25.873436 C 38.321326,25.890056 38.078077,25.907644 37.819911,25.907644 C 37.35092,24.922142 36.97975,23.928279 36.622609,22.897286 L 36.006855,22.213114 L 35.664768,20.981604 L 35.904229,20.742143 z"
         id="path6534" />
      <path
         id="path8655"
         d="M 42.409081,24.386829 C 42.409081,34.771297 33.990651,43.189631 23.607612,43.189631 C 13.223623,43.189631 4.8056678,34.771201 4.8056678,24.386829 C 4.8056678,14.002841 13.223623,5.5853612 23.607612,5.5853612 C 33.990651,5.5853612 42.409081,14.002841 42.409081,24.386829 L 42.409081,24.386829 z"
         style="opacity:0.4;fill:none;fill-opacity:1;fill-rule:nonzero;stroke:url(#linearGradient15133);stroke-width:1.0000006;stroke-miterlimit:4;stroke-dasharray:none;stroke-opacity:1" />
    </g>
    <g
       id="g2414"
       transform="matrix(0.9999061,-1.3701394e-2,1.3701394e-2,0.9999061,-0.2886998,0.5358538)">
      <path
         style="fill:url(#radialGradient2418);fill-opacity:1;fill-rule:evenodd;stroke:#666666;stroke-width:1;stroke-linecap:butt;stroke-linejoin:round;marker:none;marker-start:none;marker-mid:none;marker-end:none;stroke-miterlimit:4;stroke-dasharray:none;stroke-dashoffset:0;stroke-opacity:1;visibility:visible;display:inline;overflow:visible"
         d="M 30.5,20.93716 L 47.5,37.437161 L 39.75,37.687161 C 39.75,37.687161 43,44.437161 43,44.437161 C 44,47.437161 39.5,48.562161 38.75,46.312161 C 38.75,46.312161 35.75,39.562161 35.75,39.562161 L 30.25,45.437161 L 30.5,20.93716 z"
         id="path3970"
         sodipodi:nodetypes="cccssccc" />
      <path
         sodipodi:nodetypes="cccssccc"
         id="path4853"
         d="M 31.657235,23.378571 L 45.132781,36.564364 L 38.21092,36.841823 C 38.21092,36.841823 42.083056,44.59839 42.083056,44.59839 C 42.485787,46.248524 40.054781,47.010955 39.575956,45.751257 C 39.575956,45.751257 35.892891,37.906302 35.892891,37.906302 L 31.468164,42.614636 L 31.657235,23.378571 z"
         style="opacity:0.4;fill:none;fill-opacity:1;fill-rule:evenodd;stroke:#ffffff;stroke-width:1;stroke-linecap:butt;stroke-linejoin:miter;marker:none;marker-start:none;marker-mid:none;marker-end:none;stroke-miterlimit:4;stroke-dasharray:none;stroke-dashoffset:0;stroke-opacity:1;visibility:visible;display:inline;overflow:visible" />
    </g>
  </g>
</svg>
