<?xml version="1.0" encoding="UTF-8" standalone="no"?>
<!-- Created with Inkscape (http://www.inkscape.org/) -->

<svg
   xmlns:dc="http://purl.org/dc/elements/1.1/"
   xmlns:cc="http://creativecommons.org/ns#"
   xmlns:rdf="http://www.w3.org/1999/02/22-rdf-syntax-ns#"
   xmlns:svg="http://www.w3.org/2000/svg"
   xmlns="http://www.w3.org/2000/svg"
   xmlns:sodipodi="http://sodipodi.sourceforge.net/DTD/sodipodi-0.dtd"
   xmlns:inkscape="http://www.inkscape.org/namespaces/inkscape"
   version="1.1"
   width="18"
   height="18"
   id="svg3807"
   inkscape:version="0.48.3.1 r9886"
   sodipodi:docname="battery-060.svg">
  <sodipodi:namedview
     pagecolor="#ffffff"
     bordercolor="#666666"
     borderopacity="1"
     objecttolerance="10"
     gridtolerance="10"
     guidetolerance="10"
     inkscape:pageopacity="0"
     inkscape:pageshadow="2"
     inkscape:window-width="640"
     inkscape:window-height="480"
     id="namedview8"
     showgrid="false"
     inkscape:zoom="1"
     inkscape:cx="8"
     inkscape:cy="0.22850804"
     inkscape:window-x="0"
     inkscape:window-y="26"
     inkscape:window-maximized="0"
     inkscape:current-layer="svg3807" />
  <defs
     id="defs3809" />
  <metadata
     id="metadata3812">
    <rdf:RDF>
      <cc:Work
         rdf:about="">
        <dc:format>image/svg+xml</dc:format>
        <dc:type
           rdf:resource="http://purl.org/dc/dcmitype/StillImage" />
        <dc:title />
      </cc:Work>
    </rdf:RDF>
  </metadata>
  <g
     id="layer1"
     transform="translate(1,1)">
    <rect
       width="6"
       height="6"
       rx="0.25"
       ry="0.25"
       x="5"
       y="8.000001"
       id="rect3206"
       style="fill:#333333;fill-opacity:1;fill-rule:nonzero;stroke:none;stroke-width:1;marker:none;visibility:visible;display:inline;overflow:visible;enable-background:accumulate" />
    <path
       d="M 7,0 C 6.446,0 6,0.446 6,1 L 6,2 4,2 C 3.446,2 3,2.446 3,3 l 0,12 c 0,0.554 0.446,1 1,1 l 8,0 c 0.554,0 1,-0.446 1,-1 L 13,3 C 13,2.446 12.554,2 12,2 L 10,2 10,1 C 10,0.446 9.554,0 9,0 z m 0.5,1 1,0 C 8.777,1 9,1.223 9,1.5 L 9,2 7,2 7,1.5 C 7,1.223 7.223,1 7.5,1 z m -3,2 7,0 C 11.777,3 12,3.223 12,3.5 l 0,11 c 0,0.277 -0.223,0.5 -0.5,0.5 l -7,0 C 4.223,15 4,14.777 4,14.5 L 4,3.5 C 4,3.223 4.223,3 4.5,3 z"
       id="rect2998"
       style="color:#000000;fill:#333333;fill-opacity:1;fill-rule:nonzero;stroke:none;stroke-width:4;marker:none;visibility:visible;display:inline;overflow:visible;enable-background:accumulate"
       inkscape:connector-curvature="0" />
  </g>
</svg>
