<?xml version="1.0" encoding="UTF-8" standalone="no"?>
<!-- Created with Inkscape (http://www.inkscape.org/) -->
<svg
   xmlns:svg="http://www.w3.org/2000/svg"
   xmlns="http://www.w3.org/2000/svg"
   xmlns:xlink="http://www.w3.org/1999/xlink"
   xmlns:inkscape="http://www.inkscape.org/namespaces/inkscape"
   version="1.0"
   width="48"
   height="48"
   id="svg2521">
  <defs
     id="defs2523">
    <linearGradient
       id="linearGradient5048">
      <stop
         id="stop5050"
         style="stop-color:#000000;stop-opacity:0"
         offset="0" />
      <stop
         id="stop5056"
         style="stop-color:#000000;stop-opacity:1"
         offset="0.5" />
      <stop
         id="stop5052"
         style="stop-color:#000000;stop-opacity:0"
         offset="1" />
    </linearGradient>
    <linearGradient
       x1="302.85715"
       y1="366.64789"
       x2="302.85715"
       y2="609.50507"
       id="linearGradient2647"
       xlink:href="#linearGradient5048"
       gradientUnits="userSpaceOnUse"
       gradientTransform="matrix(6.7324884e-2,0,0,1.4700216e-2,-0.3411391,37.040146)" />
    <radialGradient
       cx="605.71429"
       cy="486.64789"
       r="117.14286"
       fx="605.71429"
       fy="486.64789"
       id="radialGradient2644"
       xlink:href="#linearGradient5060"
       gradientUnits="userSpaceOnUse"
       gradientTransform="matrix(-2.3039943e-2,0,0,1.4700216e-2,21.62311,37.040176)" />
    <linearGradient
       id="linearGradient5060">
      <stop
         id="stop5062"
         style="stop-color:#000000;stop-opacity:1"
         offset="0" />
      <stop
         id="stop5064"
         style="stop-color:#000000;stop-opacity:0"
         offset="1" />
    </linearGradient>
    <radialGradient
       cx="605.71429"
       cy="486.64789"
       r="117.14286"
       fx="605.71429"
       fy="486.64789"
       id="radialGradient2641"
       xlink:href="#linearGradient5060"
       gradientUnits="userSpaceOnUse"
       gradientTransform="matrix(2.3039948e-2,0,0,1.4700216e-2,26.360882,37.040176)" />
    <linearGradient
       x1="-51.786404"
       y1="50.786446"
       x2="-51.786404"
       y2="2.9062471"
       id="linearGradient2638"
       xlink:href="#linearGradient3104"
       gradientUnits="userSpaceOnUse"
       gradientTransform="matrix(0.8074968,0,0,0.8948322,59.410232,-2.9805533)" />
    <linearGradient
       id="linearGradient3600">
      <stop
         id="stop3602"
         style="stop-color:#f4f4f4;stop-opacity:1"
         offset="0" />
      <stop
         id="stop3604"
         style="stop-color:#dbdbdb;stop-opacity:1"
         offset="1" />
    </linearGradient>
    <linearGradient
       x1="25.132275"
       y1="0.98520643"
       x2="25.132275"
       y2="47.013336"
       id="linearGradient2636"
       xlink:href="#linearGradient3600"
       gradientUnits="userSpaceOnUse"
       gradientTransform="matrix(1,0,0,0.9561695,-1.0064697e-7,-1.914922)" />
    <radialGradient
       cx="102"
       cy="112.3047"
       r="139.55859"
       id="XMLID_8_"
       gradientUnits="userSpaceOnUse">
      <stop
         id="stop41"
         style="stop-color:#b7b8b9;stop-opacity:1"
         offset="0" />
      <stop
         id="stop47"
         style="stop-color:#ececec;stop-opacity:1"
         offset="0.18851049" />
      <stop
         id="stop49"
         style="stop-color:#fafafa;stop-opacity:0"
         offset="0.25718147" />
      <stop
         id="stop51"
         style="stop-color:#ffffff;stop-opacity:0"
         offset="0.30111277" />
      <stop
         id="stop53"
         style="stop-color:#fafafa;stop-opacity:0"
         offset="0.53130001" />
      <stop
         id="stop55"
         style="stop-color:#ebecec;stop-opacity:0"
         offset="0.84490001" />
      <stop
         id="stop57"
         style="stop-color:#e1e2e3;stop-opacity:0"
         offset="1" />
    </radialGradient>
    <radialGradient
       cx="102"
       cy="112.3047"
       r="139.55859"
       id="radialGradient2633"
       xlink:href="#XMLID_8_"
       gradientUnits="userSpaceOnUse"
       gradientTransform="matrix(0.3617022,0,0,-0.3907784,0.8510637,47.517004)" />
    <linearGradient
       id="linearGradient3211">
      <stop
         id="stop3213"
         style="stop-color:#ffffff;stop-opacity:1"
         offset="0" />
      <stop
         id="stop3215"
         style="stop-color:#ffffff;stop-opacity:0"
         offset="1" />
    </linearGradient>
    <linearGradient
       x1="24"
       y1="1.9999999"
       x2="24"
       y2="46.01725"
       id="linearGradient2630"
       xlink:href="#linearGradient3211"
       gradientUnits="userSpaceOnUse"
       gradientTransform="matrix(1,0,0,0.9777778,0,-0.9666693)" />
    <linearGradient
       id="linearGradient3104">
      <stop
         id="stop3106"
         style="stop-color:#aaaaaa;stop-opacity:1"
         offset="0" />
      <stop
         id="stop3108"
         style="stop-color:#c8c8c8;stop-opacity:1"
         offset="1" />
    </linearGradient>
    <linearGradient
       x1="17.424658"
       y1="44.872871"
       x2="17.424658"
       y2="-0.02739726"
       id="linearGradient2627"
       xlink:href="#linearGradient3104"
       gradientUnits="userSpaceOnUse" />
    <linearGradient
       id="linearGradient4114">
      <stop
         id="stop4116"
         style="stop-color:#000000;stop-opacity:1"
         offset="0" />
      <stop
         id="stop4118"
         style="stop-color:#000000;stop-opacity:0"
         offset="1" />
    </linearGradient>
    <radialGradient
       cx="15.115514"
       cy="63.965389"
       r="12.289036"
       fx="15.115514"
       fy="63.965389"
       id="radialGradient2624"
       xlink:href="#linearGradient4114"
       gradientUnits="userSpaceOnUse"
       gradientTransform="matrix(1.1582748,0,0,0.5328072,7.046889,-3.6289227)" />
    <linearGradient
       id="linearGradient5134-621">
      <stop
         id="stop5857"
         style="stop-color:#d63233;stop-opacity:1"
         offset="0" />
      <stop
         id="stop5859"
         style="stop-color:#fd9283;stop-opacity:1"
         offset="1" />
    </linearGradient>
    <linearGradient
       x1="27.041409"
       y1="26.330421"
       x2="35"
       y2="33"
       id="linearGradient2621"
       xlink:href="#linearGradient5134-621"
       gradientUnits="userSpaceOnUse"
       gradientTransform="matrix(0.9996346,2.703048e-2,-2.703048e-2,0.9996346,0.441779,0.525898)" />
    <linearGradient
       id="linearGradient3626-304-761-759-275">
      <stop
         id="stop5377"
         style="stop-color:#9c3f2f;stop-opacity:1"
         offset="0" />
      <stop
         id="stop5379"
         style="stop-color:#9a3422;stop-opacity:0"
         offset="1" />
    </linearGradient>
    <linearGradient
       x1="96.71505"
       y1="34.202248"
       x2="99.66996"
       y2="34.205513"
       id="linearGradient2617"
       xlink:href="#linearGradient3626-304-761-759-275"
       gradientUnits="userSpaceOnUse"
       gradientTransform="matrix(0.8953879,0.8289356,-0.8599741,0.932679,-33.466662,-84.903843)" />
    <linearGradient
       id="linearGradient5150-349">
      <stop
         id="stop5371"
         style="stop-color:#d44228;stop-opacity:1"
         offset="0" />
      <stop
         id="stop5373"
         style="stop-color:#bc3c31;stop-opacity:1"
         offset="1" />
    </linearGradient>
    <radialGradient
       cx="93.541039"
       cy="31.684702"
       r="6.8495793"
       fx="93.541039"
       fy="31.684702"
       id="radialGradient2615"
       xlink:href="#linearGradient5150-349"
       gradientUnits="userSpaceOnUse"
       gradientTransform="matrix(0.7994377,0.7289882,-1.3798659,1.5182306,-8.0187645,-94.107686)" />
    <linearGradient
       id="linearGradient13503-332-487-296">
      <stop
         id="stop4805"
         style="stop-color:#f33838;stop-opacity:1"
         offset="0" />
      <stop
         id="stop4807"
         style="stop-color:#ffffff;stop-opacity:1"
         offset="1" />
    </linearGradient>
    <linearGradient
       x1="83.625"
       y1="38.322552"
       x2="83.625"
       y2="35.208294"
       id="linearGradient2612"
       xlink:href="#linearGradient13503-332-487-296"
       gradientUnits="userSpaceOnUse"
       gradientTransform="matrix(1.0869608,-1.2478732e-2,1.2478732e-2,1.0869608,-76.924934,-10.137304)" />
    <linearGradient
       id="linearGradient13503-372-775-212">
      <stop
         id="stop4811"
         style="stop-color:#f33838;stop-opacity:1"
         offset="0" />
      <stop
         id="stop4813"
         style="stop-color:#ffffff;stop-opacity:1"
         offset="1" />
    </linearGradient>
    <linearGradient
       x1="92.25"
       y1="33.754673"
       x2="92.03125"
       y2="30.257521"
       id="linearGradient2609"
       xlink:href="#linearGradient13503-372-775-212"
       gradientUnits="userSpaceOnUse"
       gradientTransform="matrix(1.0869608,-1.2478732e-2,1.2478732e-2,1.0869608,-76.924934,-10.137304)" />
    <linearGradient
       id="linearGradient13503-167-938-817">
      <stop
         id="stop4817"
         style="stop-color:#f33838;stop-opacity:1"
         offset="0" />
      <stop
         id="stop4819"
         style="stop-color:#ffffff;stop-opacity:1"
         offset="1" />
    </linearGradient>
    <linearGradient
       x1="97.28125"
       y1="27.1875"
       x2="94.15625"
       y2="24.4375"
       id="linearGradient2606"
       xlink:href="#linearGradient13503-167-938-817"
       gradientUnits="userSpaceOnUse"
       gradientTransform="matrix(1.0869608,-1.2478732e-2,1.2478732e-2,1.0869608,-76.924934,-10.137304)" />
    <linearGradient
       id="linearGradient13503-262-391-358">
      <stop
         id="stop4781"
         style="stop-color:#f33838;stop-opacity:1"
         offset="0" />
      <stop
         id="stop4783"
         style="stop-color:#ffffff;stop-opacity:1"
         offset="1" />
    </linearGradient>
    <linearGradient
       x1="95.631493"
       y1="-19.533808"
       x2="90.217705"
       y2="-18.141273"
       id="linearGradient2603"
       xlink:href="#linearGradient13503-262-391-358"
       gradientUnits="userSpaceOnUse"
       gradientTransform="matrix(1.0869608,-1.2478732e-2,1.2478732e-2,1.0869608,-72.077951,33.291207)" />
    <linearGradient
       id="linearGradient13503-393-636-660">
      <stop
         id="stop4829"
         style="stop-color:#f33838;stop-opacity:1"
         offset="0" />
      <stop
         id="stop4831"
         style="stop-color:#ffffff;stop-opacity:1"
         offset="1" />
    </linearGradient>
    <linearGradient
       x1="91.25193"
       y1="-15.59241"
       x2="92.604187"
       y2="-20.792925"
       id="linearGradient2600"
       xlink:href="#linearGradient13503-393-636-660"
       gradientUnits="userSpaceOnUse"
       gradientTransform="matrix(1.0869608,-1.2478732e-2,1.2478732e-2,1.0869608,-87.390099,48.890293)" />
    <linearGradient
       id="linearGradient13645-430-425-17">
      <stop
         id="stop4823"
         style="stop-color:#ab3227;stop-opacity:1"
         offset="0" />
      <stop
         id="stop4825"
         style="stop-color:#d54329;stop-opacity:1"
         offset="1" />
    </linearGradient>
    <linearGradient
       x1="93.695778"
       y1="41.634907"
       x2="88.839615"
       y2="26.961405"
       id="linearGradient2597"
       xlink:href="#linearGradient13645-430-425-17"
       gradientUnits="userSpaceOnUse"
       gradientTransform="matrix(0.5515104,0.4966222,-0.5368046,0.5664533,-14.550305,-44.694164)" />
    <linearGradient
       id="linearGradient5142">
      <stop
         id="stop5144"
         style="stop-color:#fbb6b6;stop-opacity:1"
         offset="0" />
      <stop
         id="stop5146"
         style="stop-color:#fbb6b6;stop-opacity:0"
         offset="1" />
    </linearGradient>
    <linearGradient
       x1="91.248039"
       y1="20.596615"
       x2="105.09795"
       y2="35.66256"
       id="linearGradient2594"
       xlink:href="#linearGradient5142"
       gradientUnits="userSpaceOnUse"
       gradientTransform="matrix(0.8289991,0.7523632,-0.8039045,0.8548338,-28.918001,-75.232647)" />
    <filter
       id="filter3212"
       x="-0.14846256"
       width="1.2969251"
       y="-0.16434373"
       height="1.3286875">
      <feGaussianBlur
         inkscape:collect="always"
         stdDeviation="0.77391625"
         id="feGaussianBlur3214" />
    </filter>
    <linearGradient
       id="linearGradient8589">
      <stop
         id="stop8591"
         style="stop-color:#fefefe;stop-opacity:1"
         offset="0" />
      <stop
         id="stop8593"
         style="stop-color:#cbcbcb;stop-opacity:1"
         offset="1" />
    </linearGradient>
    <linearGradient
       x1="32.892288"
       y1="8.0590115"
       x2="36.358372"
       y2="5.4565363"
       id="linearGradient2590"
       xlink:href="#linearGradient8589"
       gradientUnits="userSpaceOnUse"
       gradientTransform="matrix(0.9976985,0,0,1.0406866,0.1638029,-1.1057939)" />
  </defs>
  <g
     id="layer1">
    <rect
       width="32.508301"
       height="3.5700529"
       x="7.7378473"
       y="42.429947"
       id="rect2879"
       style="opacity:0.3;fill:url(#linearGradient2647);fill-opacity:1;fill-rule:nonzero;stroke:none;stroke-width:1;stroke-linecap:round;stroke-linejoin:miter;marker:none;marker-start:none;marker-mid:none;marker-end:none;stroke-miterlimit:4;stroke-dasharray:none;stroke-dashoffset:0;stroke-opacity:1;visibility:visible;display:inline;overflow:visible" />
    <path
       d="M 7.7378475,42.430102 C 7.7378475,42.430102 7.7378475,45.999958 7.7378475,45.999958 C 6.5513473,46.006679 4.869468,45.200135 4.869468,44.2148 C 4.869468,43.229467 6.1935126,42.430103 7.7378475,42.430102 z"
       id="path2881"
       style="opacity:0.3;fill:url(#radialGradient2644);fill-opacity:1;fill-rule:nonzero;stroke:none;stroke-width:1;stroke-linecap:round;stroke-linejoin:miter;marker:none;marker-start:none;marker-mid:none;marker-end:none;stroke-miterlimit:4;stroke-dasharray:none;stroke-dashoffset:0;stroke-opacity:1;visibility:visible;display:inline;overflow:visible" />
    <path
       d="M 40.246148,42.430102 C 40.246148,42.430102 40.246148,45.999958 40.246148,45.999958 C 41.432648,46.006679 43.114528,45.200135 43.114528,44.2148 C 43.114528,43.229467 41.790483,42.430103 40.246148,42.430102 z"
       id="path2883"
       style="opacity:0.3;fill:url(#radialGradient2641);fill-opacity:1;fill-rule:nonzero;stroke:none;stroke-width:1;stroke-linecap:round;stroke-linejoin:miter;marker:none;marker-start:none;marker-mid:none;marker-end:none;stroke-miterlimit:4;stroke-dasharray:none;stroke-dashoffset:0;stroke-opacity:1;visibility:visible;display:inline;overflow:visible" />
    <path
       d="M 6.4999609,0.49719878 C 14.520256,0.49719878 22.540551,0.49719878 30.560847,0.49719878 C 31.96778,0.97185188 39.526301,6.3794034 41.500042,10.123605 C 41.500042,21.583338 41.500042,33.04307 41.500042,44.502803 C 29.833348,44.502803 18.166655,44.502803 6.4999609,44.502803 C 6.4999609,29.834268 6.4999609,15.165733 6.4999609,0.49719878 z"
       id="path4160"
       style="fill:url(#linearGradient2636);fill-opacity:1;stroke:url(#linearGradient2638);stroke-width:0.99992186;stroke-linecap:butt;stroke-linejoin:round;stroke-miterlimit:4;stroke-dasharray:none;stroke-dashoffset:0;stroke-opacity:1;display:inline" />
    <path
       d="M 7.3617017,44 C 7.1624047,44 6.9999997,43.824541 6.9999997,43.60922 L 6.9999997,1.4051701 C 6.9999997,1.1894613 7.1624047,1.0143926 7.3617017,1.0143926 C 14.844793,1.1224073 23.137385,0.85281757 30.611384,1.0412872 L 40.894021,9.9073127 L 41,43.60922 C 41,43.824541 40.837957,44 40.638297,44 L 7.3617017,44 z"
       id="path4191"
       style="fill:url(#radialGradient2633);fill-opacity:1" />
    <path
       d="M 40.500039,10.258811 C 40.500039,21.207848 40.500039,32.573221 40.500039,43.522258 C 29.500013,43.522258 18.499987,43.522258 7.4999609,43.522258 C 7.4999609,29.507417 7.4999609,15.492577 7.4999609,1.4777367 C 15.061954,1.4777367 22.804295,1.4777367 30.366289,1.4777367"
       id="path2435"
       style="opacity:0.6;fill:none;fill-opacity:1;stroke:url(#linearGradient2630);stroke-width:0.9999218;stroke-linecap:butt;stroke-linejoin:round;stroke-miterlimit:4;stroke-dasharray:none;stroke-dashoffset:0;stroke-opacity:1;display:inline" />
    <path
       d="M 11,6 L 11,7 L 13.375,7 L 13.375,6 L 11,6 z M 13.6875,6 L 13.6875,7 L 15.9375,7 L 15.9375,6 L 13.6875,6 z M 16.25,6 L 16.25,7 L 18.21875,7 L 18.21875,6 L 16.25,6 z M 18.53125,6 L 18.53125,7 L 19.40625,7 L 19.40625,6 L 18.53125,6 z M 19.71875,6 L 19.71875,7 L 21.65625,7 L 21.65625,6 L 19.71875,6 z M 22,6 L 22,7 L 27,7 L 27,6 L 22,6 z M 11,8 L 11,9 L 14.78125,9 L 14.78125,8 L 11,8 z M 15.15625,8 L 15.15625,9 L 16.96875,9 L 16.96875,8 L 15.15625,8 z M 17.3125,8 L 17.3125,9 L 18.15625,9 L 18.15625,8 L 17.3125,8 z M 18.53125,8 L 18.53125,9 L 20.15625,9 L 20.15625,8 L 18.53125,8 z M 20.53125,8 L 20.53125,9 L 22.15625,9 L 22.15625,8 L 20.53125,8 z M 22.5,8 L 22.5,9 L 25.15625,9 L 25.15625,8 L 22.5,8 z M 25.53125,8 L 25.53125,9 L 29,9 L 29,8 L 25.53125,8 z M 11,10 L 11,11 L 15.1875,11 L 15.1875,10 L 11,10 z M 15.5,10 L 15.5,11 L 20,11 L 20,10 L 15.5,10 z M 11,12 L 11,13 L 13.3125,13 L 13.3125,12 L 11,12 z M 13.625,12 L 13.625,13 L 15.78125,13 L 15.78125,12 L 13.625,12 z M 16.09375,12 L 16.09375,13 L 18,13 L 18,12 L 16.09375,12 z M 19.9375,37 L 19.9375,38 L 22.375,38 L 22.375,37 L 19.9375,37 z M 22.6875,37 L 22.6875,38 L 24.9375,38 L 24.9375,37 L 22.6875,37 z M 25.28125,37 L 25.28125,38 L 27.21875,38 L 27.21875,37 L 25.28125,37 z M 27.53125,37 L 27.53125,38 L 30.625,38 L 30.625,37 L 27.53125,37 z M 30.96875,37 L 30.96875,38 L 36,38 L 36,37 L 30.96875,37 z M 11,15 L 11,16 L 14.0625,16 L 14.0625,15 L 11,15 z M 11,17 L 11,18 L 14.09375,18 L 14.09375,17 L 11,17 z M 15.625,33 L 15.625,34 L 20.21875,34 L 20.21875,33 L 15.625,33 z M 20.5625,33 L 20.5625,34 L 22.375,34 L 22.375,33 L 20.5625,33 z M 22.71875,33 L 22.71875,34 L 27.03125,34 L 27.03125,33 L 22.71875,33 z M 27.375,33 L 27.375,34 L 30.34375,34 L 30.34375,33 L 27.375,33 z M 30.65625,33 L 30.65625,34 L 31.8125,34 L 31.8125,33 L 30.65625,33 z M 32.15625,33 L 32.15625,34 L 32.84375,34 L 32.84375,33 L 32.15625,33 z M 33.15625,33 L 33.15625,34 L 35,34 L 35,33 L 33.15625,33 z M 17.125,35 L 17.125,36 L 17.9375,36 L 17.9375,35 L 17.125,35 z M 18.15625,35 L 18.15625,36 L 19.78125,36 L 19.78125,35 L 18.15625,35 z M 20.03125,35 L 20.03125,36 L 21.65625,36 L 21.65625,35 L 20.03125,35 z M 22.15625,35 L 22.15625,36 L 24.75,36 L 24.75,35 L 22.15625,35 z M 25.0625,35 L 25.0625,36 L 28.4375,36 L 28.4375,35 L 25.0625,35 z M 28.90625,35 L 28.90625,36 L 31.1875,36 L 31.1875,35 L 28.90625,35 z M 31.46875,35 L 31.46875,36 L 32,36 L 32,35 L 31.46875,35 z M 11,37 L 14.036746,37 L 14.036746,38 L 11,38 L 11,37 z M 11,22 L 11,23 L 12,23 L 12,22 L 11,22 z M 11,33 L 11,34 L 15.28125,34 L 15.28125,33 L 11,33 z M 11,35 L 11,36 L 14.6875,36 L 14.6875,35 L 11,35 z M 14.96875,35 L 14.96875,36 L 16.75,36 L 16.75,35 L 14.96875,35 z M 14.34375,37 L 14.34375,38 L 17.6875,38 L 17.6875,37 L 14.34375,37 z M 11,20 L 11,21 L 13.34375,21 L 13.34375,20 L 11,20 z M 11,24 L 11,25 L 13.75,25 L 13.75,24 L 11,24 z M 11,26 L 11,27 L 13.9375,27 L 13.9375,26 L 11,26 z M 11,28 L 11,29 L 13.53125,29 L 13.53125,28 L 11,28 z M 11,30.15625 L 11,31.125 L 13.21875,31.125 L 13.21875,30.15625 L 11,30.15625 z"
       id="path4149"
       style="fill:url(#linearGradient2627);fill-opacity:1;stroke:none;stroke-width:0.45541501;stroke-linecap:square;stroke-linejoin:miter;stroke-miterlimit:4;stroke-dashoffset:0;stroke-opacity:1;display:inline" />
    <path
       d="M 38.788886,30.452311 C 38.790451,34.069008 32.417178,37.001303 24.554807,37.001303 C 16.692435,37.001303 10.319163,34.069008 10.320727,30.452311 C 10.319163,26.835613 16.692435,23.903319 24.554807,23.903319 C 32.417178,23.903319 38.790451,26.835613 38.788886,30.452311 z"
       id="path4112"
       style="opacity:0.42918456;fill:url(#radialGradient2624);fill-opacity:1;stroke:none;stroke-opacity:1;display:inline" />
    <path
       d="M 34.652635,16.071306 L 34.536984,34.459907 L 16.193694,34.5 L 34.652635,16.071306 z"
       id="path16493"
       style="fill:url(#linearGradient2621);fill-opacity:1;fill-rule:evenodd;stroke:#9c3f2f;stroke-width:0.99999946px;stroke-linecap:butt;stroke-linejoin:round;stroke-opacity:1" />
    <path
       d="M 34.536984,34.459907 L 32.005676,23.127754 L 27.333337,29.386288 L 34.536984,34.459907 z M 34.536984,34.459907 L 23.010475,31.907696 L 19.542465,34.054449 L 34.536984,34.459907 z"
       id="path16495"
       style="fill:#af3a28;fill-opacity:1;fill-rule:evenodd;stroke:none;stroke-width:1px;stroke-linecap:butt;stroke-linejoin:miter;stroke-opacity:1" />
    <path
       d="M 28.827866,27.544855 C 23.304038,33.534784 16.237349,35.995181 13.03943,33.041893 C 9.84151,30.088606 11.721915,22.838662 17.240643,16.844023 C 22.75937,10.849383 29.829057,8.3774179 33.035781,11.32114 C 36.242506,14.264864 34.37338,21.510865 28.859769,27.5102"
       id="path16499"
       style="fill:url(#radialGradient2615);fill-opacity:1;fill-rule:nonzero;stroke:url(#linearGradient2617);stroke-width:0.96153194;stroke-linecap:round;stroke-linejoin:round;stroke-miterlimit:4;stroke-dasharray:none;stroke-dashoffset:0;stroke-opacity:1" />
    <path
       d="M 16.051748,33.842156 L 19.139407,24.634271 L 13.164243,24.974642 L 16.051748,33.842156 z"
       id="path16503"
       style="opacity:0.80257509;fill:url(#linearGradient2612);fill-opacity:1;fill-rule:evenodd;stroke:none;stroke-width:1px;stroke-linecap:butt;stroke-linejoin:bevel;stroke-opacity:1" />
    <path
       d="M 27.938123,27.590737 L 25.038919,17.704198 L 19.139407,24.634271 L 27.938123,27.590737 z"
       id="path16505"
       style="opacity:0.80257509;fill:url(#linearGradient2609);fill-opacity:1;fill-rule:evenodd;stroke:none;stroke-width:1px;stroke-linecap:butt;stroke-linejoin:bevel;stroke-opacity:1" />
    <path
       d="M 25.186571,12.810535 L 33.326993,17.609048 L 24.970983,17.704979 L 25.186571,12.810535 z"
       id="path16507"
       style="opacity:0.80257509;fill:url(#linearGradient2606);fill-opacity:1;fill-rule:evenodd;stroke:none;stroke-width:1px;stroke-linecap:butt;stroke-linejoin:bevel;stroke-opacity:1" />
    <path
       d="M 30.257472,10.930033 L 26.640834,13.95026 L 23.64334,12.279489 L 30.257472,10.930033 z"
       id="path16509"
       style="opacity:0.80257509;fill:url(#linearGradient2603);fill-opacity:1;fill-rule:evenodd;stroke:none;stroke-width:1px;stroke-linecap:butt;stroke-linejoin:miter;stroke-opacity:1" />
    <path
       d="M 13.848096,26.754008 L 11.327558,29.653296 L 12.756557,23.707778 L 13.848096,26.754008 z"
       id="path16511"
       style="opacity:0.80257509;fill:url(#linearGradient2600);fill-opacity:1;fill-rule:evenodd;stroke:none;stroke-width:1px;stroke-linecap:butt;stroke-linejoin:miter;stroke-opacity:1" />
    <path
       d="M 22.886519,22.280474 C 19.438829,25.918703 15.365554,27.718645 13.785982,26.301914 C 12.206409,24.885183 13.717985,20.787633 17.163155,17.147143 C 20.608324,13.506653 24.684012,11.700174 26.269081,13.111097 C 27.85415,14.52202 26.349076,18.616687 22.906435,22.259429"
       id="path16513"
       style="fill:url(#linearGradient2597);fill-opacity:1;fill-rule:nonzero;stroke:#e3b9be;stroke-width:1.00000012;stroke-linecap:round;stroke-linejoin:round;stroke-miterlimit:4;stroke-dasharray:none;stroke-dashoffset:0;stroke-opacity:1" />
    <path
       d="M 28.513916,27.091987 C 23.350242,32.581976 16.767452,34.858371 13.806611,32.177926 C 10.845769,29.497482 12.626761,22.874028 17.785714,17.379765 C 22.944666,11.885501 29.530296,9.5985373 32.499368,12.270215 C 35.46844,14.941894 33.697955,21.5617 28.54374,27.060225"
       id="path3614"
       style="opacity:0.4;fill:none;fill-opacity:1;fill-rule:nonzero;stroke:url(#linearGradient2594);stroke-width:0.96153194;stroke-linecap:round;stroke-linejoin:round;stroke-miterlimit:4;stroke-dasharray:none;stroke-dashoffset:0;stroke-opacity:1" />
    <path
       d="M 28.617256,0.92125832 C 32.899778,0.92125832 30.770506,9.4044296 30.770506,9.4044296 C 30.770506,9.4044296 41.128148,7.6020829 41.128148,12.223174 C 41.128148,9.6134507 29.825844,1.4945784 28.617256,0.92125832 z"
       id="path12038"
       style="opacity:0.4;fill:#000000;fill-opacity:1;fill-rule:evenodd;stroke:none;stroke-width:1px;stroke-linecap:butt;stroke-linejoin:miter;stroke-opacity:1;display:inline;filter:url(#filter3212)" />
    <path
       d="M 28.617256,0.92125832 C 31.803749,0.92125832 30.953016,8.5831368 30.953016,8.5831368 C 30.953016,8.5831368 41.128148,7.6020829 41.128148,12.223174 C 41.128148,11.097235 41.214061,10.290929 40.994371,9.9395812 C 39.416058,7.4154025 32.598855,1.7511811 30.137071,1.008793 C 29.952849,0.95323837 29.544367,0.92125832 28.617256,0.92125832 z"
       id="path4474"
       style="fill:url(#linearGradient2590);fill-opacity:1;fill-rule:evenodd;stroke:none;stroke-width:1px;stroke-linecap:butt;stroke-linejoin:miter;stroke-opacity:1;display:inline" />
  </g>
</svg>
