<?xml version="1.0" encoding="UTF-8" standalone="no"?>
<!-- Created with Inkscape (http://www.inkscape.org/) -->

<svg
   xmlns:dc="http://purl.org/dc/elements/1.1/"
   xmlns:cc="http://creativecommons.org/ns#"
   xmlns:rdf="http://www.w3.org/1999/02/22-rdf-syntax-ns#"
   xmlns:svg="http://www.w3.org/2000/svg"
   xmlns="http://www.w3.org/2000/svg"
   xmlns:xlink="http://www.w3.org/1999/xlink"
   xmlns:sodipodi="http://sodipodi.sourceforge.net/DTD/sodipodi-0.dtd"
   xmlns:inkscape="http://www.inkscape.org/namespaces/inkscape"
   width="22"
   height="22"
   id="svg3700"
   version="1.1"
   inkscape:version="0.48.0 r9654"
   sodipodi:docname="media-optical-audio.svg">
  <defs
     id="defs3702">
    <linearGradient
       inkscape:collect="always"
       xlink:href="#linearGradient3428"
       id="linearGradient3531"
       gradientUnits="userSpaceOnUse"
       gradientTransform="matrix(0.4374999,0,0,0.4374999,0.50045456,10.5)"
       x1="21.448364"
       y1="15.5"
       x2="21.448364"
       y2="32.509201" />
    <linearGradient
       id="linearGradient3428">
      <stop
         id="stop3430"
         style="stop-color:#aaaaaa;stop-opacity:1"
         offset="0" />
      <stop
         id="stop3432"
         style="stop-color:#d4d4d4;stop-opacity:1"
         offset="1" />
    </linearGradient>
    <linearGradient
       inkscape:collect="always"
       xlink:href="#linearGradient6036"
       id="linearGradient3534"
       gradientUnits="userSpaceOnUse"
       gradientTransform="matrix(0.2272999,0,0,-0.2272999,5.4663816,26.682498)"
       x1="18.775953"
       y1="4.0378027"
       x2="18.203465"
       y2="45.962208" />
    <linearGradient
       id="linearGradient6036">
      <stop
         id="stop6038"
         style="stop-color:#ffffff;stop-opacity:1"
         offset="0" />
      <stop
         id="stop6040"
         style="stop-color:#ffffff;stop-opacity:0"
         offset="1" />
    </linearGradient>
    <linearGradient
       inkscape:collect="always"
       xlink:href="#linearGradient4011"
       id="linearGradient3537"
       gradientUnits="userSpaceOnUse"
       gradientTransform="matrix(0.45945944,0,0,0.45945944,-21.958294,9.3493773)"
       x1="71.204407"
       y1="6.2375584"
       x2="71.204407"
       y2="44.340794" />
    <linearGradient
       id="linearGradient4011">
      <stop
         id="stop4013"
         style="stop-color:#ffffff;stop-opacity:1"
         offset="0" />
      <stop
         id="stop4015"
         style="stop-color:#ffffff;stop-opacity:0.23529412"
         offset="0.507761" />
      <stop
         id="stop4017"
         style="stop-color:#ffffff;stop-opacity:0.15686275"
         offset="0.83456558" />
      <stop
         id="stop4019"
         style="stop-color:#ffffff;stop-opacity:0.39215687"
         offset="1" />
    </linearGradient>
    <linearGradient
       x1="20.580074"
       y1="10.774516"
       x2="24.27351"
       y2="9.8622112"
       id="linearGradient2492"
       xlink:href="#linearGradient3487"
       gradientUnits="userSpaceOnUse"
       spreadMethod="reflect" />
    <linearGradient
       id="linearGradient3487">
      <stop
         id="stop3489"
         style="stop-color:#e6cde2;stop-opacity:1"
         offset="0" />
      <stop
         id="stop3491"
         style="stop-color:#e6cde2;stop-opacity:0"
         offset="1" />
    </linearGradient>
    <linearGradient
       x1="17.494959"
       y1="11.200086"
       x2="21.047453"
       y2="9.7956104"
       id="linearGradient2494"
       xlink:href="#linearGradient3495"
       gradientUnits="userSpaceOnUse"
       spreadMethod="reflect" />
    <linearGradient
       id="linearGradient3495">
      <stop
         id="stop3497"
         style="stop-color:#c1cbe4;stop-opacity:1"
         offset="0" />
      <stop
         id="stop3499"
         style="stop-color:#c1cbe4;stop-opacity:0"
         offset="1" />
    </linearGradient>
    <linearGradient
       x1="14.084608"
       y1="13.045606"
       x2="16.994024"
       y2="10.732353"
       id="linearGradient2496"
       xlink:href="#linearGradient3503"
       gradientUnits="userSpaceOnUse"
       spreadMethod="reflect" />
    <linearGradient
       id="linearGradient3503">
      <stop
         id="stop3505"
         style="stop-color:#c4ebdd;stop-opacity:1"
         offset="0" />
      <stop
         id="stop3507"
         style="stop-color:#c4ebdd;stop-opacity:0"
         offset="1" />
    </linearGradient>
    <linearGradient
       x1="12.371647"
       y1="16.188046"
       x2="14.609327"
       y2="13.461712"
       id="linearGradient2498"
       xlink:href="#linearGradient3511"
       gradientUnits="userSpaceOnUse"
       spreadMethod="reflect" />
    <linearGradient
       id="linearGradient3511">
      <stop
         id="stop3513"
         style="stop-color:#ebeec7;stop-opacity:1"
         offset="0" />
      <stop
         id="stop3515"
         style="stop-color:#ebeec7;stop-opacity:0"
         offset="1" />
    </linearGradient>
    <linearGradient
       x1="10.609375"
       y1="17.886322"
       x2="9.7297754"
       y2="20.612656"
       id="linearGradient2500"
       xlink:href="#linearGradient3519"
       gradientUnits="userSpaceOnUse"
       spreadMethod="reflect" />
    <linearGradient
       id="linearGradient3519">
      <stop
         id="stop3521"
         style="stop-color:#fcd9cd;stop-opacity:1"
         offset="0" />
      <stop
         id="stop3523"
         style="stop-color:#fcd9cd;stop-opacity:0"
         offset="1" />
    </linearGradient>
    <linearGradient
       x1="20.580074"
       y1="10.774516"
       x2="24.27351"
       y2="9.8622112"
       id="linearGradient2480"
       xlink:href="#linearGradient3487"
       gradientUnits="userSpaceOnUse"
       spreadMethod="reflect" />
    <linearGradient
       x1="17.494959"
       y1="11.200086"
       x2="21.047453"
       y2="9.7956104"
       id="linearGradient2482"
       xlink:href="#linearGradient3495"
       gradientUnits="userSpaceOnUse"
       spreadMethod="reflect" />
    <linearGradient
       x1="14.084608"
       y1="13.045606"
       x2="16.994024"
       y2="10.732353"
       id="linearGradient2484"
       xlink:href="#linearGradient3503"
       gradientUnits="userSpaceOnUse"
       spreadMethod="reflect" />
    <linearGradient
       x1="12.371647"
       y1="16.188046"
       x2="14.609327"
       y2="13.461712"
       id="linearGradient2486"
       xlink:href="#linearGradient3511"
       gradientUnits="userSpaceOnUse"
       spreadMethod="reflect" />
    <linearGradient
       x1="10.609375"
       y1="17.886322"
       x2="9.7297754"
       y2="20.612656"
       id="linearGradient2488"
       xlink:href="#linearGradient3519"
       gradientUnits="userSpaceOnUse"
       spreadMethod="reflect" />
    <linearGradient
       inkscape:collect="always"
       xlink:href="#linearGradient3263"
       id="linearGradient3553"
       gradientUnits="userSpaceOnUse"
       gradientTransform="matrix(0,0.54545936,-0.54545936,0,23.600568,7.9089724)"
       x1="12.2744"
       y1="32.4165"
       x2="35.391201"
       y2="14.2033" />
    <linearGradient
       x1="12.2744"
       y1="32.4165"
       x2="35.391201"
       y2="14.2033"
       id="linearGradient3263"
       gradientUnits="userSpaceOnUse">
      <stop
         id="stop3265"
         style="stop-color:#dedbde;stop-opacity:1"
         offset="0" />
      <stop
         id="stop3267"
         style="stop-color:#e6e6e6;stop-opacity:1"
         offset="0.5" />
      <stop
         id="stop3269"
         style="stop-color:#d2d2d2;stop-opacity:1"
         offset="1" />
    </linearGradient>
    <linearGradient
       inkscape:collect="always"
       xlink:href="#linearGradient3772"
       id="linearGradient3555"
       gradientUnits="userSpaceOnUse"
       gradientTransform="matrix(0.4656319,0,0,0.4656319,23.230305,9.8248336)"
       x1="-21.915663"
       y1="3"
       x2="-21.915663"
       y2="45.032898" />
    <linearGradient
       id="linearGradient3772">
      <stop
         id="stop3774"
         style="stop-color:#b4b4b4;stop-opacity:1"
         offset="0" />
      <stop
         id="stop3776"
         style="stop-color:#969696;stop-opacity:1"
         offset="1" />
    </linearGradient>
    <radialGradient
       inkscape:collect="always"
       xlink:href="#linearGradient7067-814-120-245"
       id="radialGradient3524"
       gradientUnits="userSpaceOnUse"
       gradientTransform="matrix(0.37667571,-0.06311262,0,0.36451394,5.5542081,15.309346)"
       cx="17.058823"
       cy="41.058823"
       fx="15.544384"
       fy="39.027378"
       r="5.7384715" />
    <linearGradient
       id="linearGradient7067-814-120-245">
      <stop
         id="stop3877"
         style="stop-color:#aaaaaa;stop-opacity:1"
         offset="0" />
      <stop
         id="stop3879"
         style="stop-color:#4d4d4d;stop-opacity:1"
         offset="1" />
    </linearGradient>
    <radialGradient
       inkscape:collect="always"
       xlink:href="#linearGradient7067-814-120-245"
       id="radialGradient3521"
       gradientUnits="userSpaceOnUse"
       gradientTransform="matrix(0.3698584,-0.06212313,0,0.35879901,11.670965,14.485169)"
       cx="17.058823"
       cy="41.058823"
       fx="15.970393"
       fy="39.105911"
       r="5.7384715" />
    <linearGradient
       inkscape:collect="always"
       xlink:href="#linearGradient2372"
       id="linearGradient3518"
       gradientUnits="userSpaceOnUse"
       gradientTransform="matrix(0.12649532,0,0,0.12875595,10.114455,1.9430727)"
       x1="28.739122"
       y1="144.11652"
       x2="25.400293"
       y2="119.86452" />
    <linearGradient
       id="linearGradient2372">
      <stop
         id="stop2374"
         style="stop-color:#ffffff;stop-opacity:1"
         offset="0" />
      <stop
         id="stop2376"
         style="stop-color:#ffffff;stop-opacity:0.37931034"
         offset="1" />
    </linearGradient>
    <linearGradient
       inkscape:collect="always"
       xlink:href="#linearGradient2372"
       id="linearGradient3515"
       gradientUnits="userSpaceOnUse"
       gradientTransform="matrix(0.2545239,0,0,0.12875595,13.085448,0.82646828)"
       x1="28.739122"
       y1="144.11652"
       x2="26.256771"
       y2="125.39074" />
  </defs>
  <sodipodi:namedview
     id="base"
     pagecolor="#ffffff"
     bordercolor="#666666"
     borderopacity="1.0"
     inkscape:pageopacity="0.0"
     inkscape:pageshadow="2"
     inkscape:zoom="11.197802"
     inkscape:cx="16"
     inkscape:cy="16"
     inkscape:current-layer="layer1"
     showgrid="true"
     inkscape:grid-bbox="true"
     inkscape:document-units="px"
     inkscape:window-width="1280"
     inkscape:window-height="753"
     inkscape:window-x="0"
     inkscape:window-y="24"
     inkscape:window-maximized="1" />
  <metadata
     id="metadata3705">
    <rdf:RDF>
      <cc:Work
         rdf:about="">
        <dc:format>image/svg+xml</dc:format>
        <dc:type
           rdf:resource="http://purl.org/dc/dcmitype/StillImage" />
        <dc:title></dc:title>
      </cc:Work>
    </rdf:RDF>
  </metadata>
  <g
     id="layer1"
     inkscape:label="Layer 1"
     inkscape:groupmode="layer"
     transform="translate(0,-10)">
    <path
       inkscape:connector-curvature="0"
       style="fill:url(#linearGradient3553);fill-rule:nonzero;stroke:url(#linearGradient3555);stroke-width:1.00000012;stroke-miterlimit:4;stroke-opacity:1"
       id="path2781"
       d="m 20.545909,21 c 0,-5.290958 -4.254498,-9.545455 -9.545454,-9.545455 -5.2909585,0 -9.5454549,4.254498 -9.5454549,9.545455 -1.1e-6,5.290957 4.2544969,9.545454 9.5454549,9.545454 5.290956,-1e-6 9.545454,-4.254497 9.545454,-9.545454 z m -6.045454,0 c 0,1.791874 -1.745436,3.5 -3.5,3.5 -1.7921164,0 -3.5000004,-1.822747 -3.5000004,-3.5 0,-1.714806 1.648901,-3.5 3.5000004,-3.5 1.888644,0 3.5,1.670604 3.5,3.5 z" />
    <path
       inkscape:connector-curvature="0"
       style="opacity:0.5;fill:#ffffff;fill-opacity:1;fill-rule:nonzero;stroke:none;stroke-width:1;marker:none;visibility:visible;display:inline;overflow:visible;enable-background:accumulate"
       id="path2474"
       d="m 11.000455,17.441 c -1.9645684,0 -3.5590006,1.594432 -3.5590006,3.559 0,1.964568 1.5944322,3.559 3.5590006,3.559 1.964568,0 3.559,-1.594432 3.559,-3.559 0,-1.964568 -1.594432,-3.559 -3.559,-3.559 z m 0,1.7795 c 0.982284,0 1.7795,0.797216 1.7795,1.7795 0,0.982284 -0.797216,1.7795 -1.7795,1.7795 -0.982284,0 -1.7795004,-0.797216 -1.7795004,-1.7795 0,-0.982284 0.7972164,-1.7795 1.7795004,-1.7795 z" />
    <g
       id="g3527"
       transform="matrix(0.444875,0,0,0.444875,0.32345456,10.323)">
      <path
         inkscape:connector-curvature="0"
         style="opacity:0.8;fill:url(#linearGradient2480);fill-opacity:1;fill-rule:nonzero;stroke:none"
         id="path3296"
         transform="matrix(0.9996011,0.02824295,-0.02824295,0.9996011,0.6924114,-0.6708346)"
         d="M 15.856928,5.7307748 20.625,16.34375 C 21.660403,15.885186 22.795334,15.625 24,15.625 c 0.03206,0 0.06178,-3.6e-4 0.09375,0 L 24.10801,4.0047512 c -2.94215,-0.070687 -5.543041,0.6572865 -8.251083,1.7260236 z" />
      <path
         inkscape:connector-curvature="0"
         style="opacity:0.8;fill:url(#linearGradient2482);fill-opacity:1;fill-rule:nonzero;stroke:none"
         id="path3308"
         d="m 12.121471,7.9060109 6.931026,9.3601041 c 0.913109,-0.669755 1.965938,-1.167064 3.142629,-1.425169 0.03132,-0.0069 0.06026,-0.01359 0.09157,-0.02009 L 19.857174,4.426276 c -2.888973,0.5613244 -5.31953,1.8556038 -7.735703,3.4797349 z" />
      <path
         inkscape:connector-curvature="0"
         style="opacity:0.8;fill:url(#linearGradient2484);fill-opacity:1;fill-rule:nonzero;stroke:none"
         id="path3310"
         d="m 8.2523933,11.646535 9.2137237,7.155818 c 0.70865,-0.883264 1.596891,-1.636119 2.666685,-2.18998 0.02847,-0.01474 0.05469,-0.02872 0.08325,-0.0431 L 14.86585,6.2506132 C 12.220599,7.5405321 10.165881,9.452393 8.2523933,11.646535 z" />
      <path
         inkscape:connector-curvature="0"
         style="opacity:0.8;fill:url(#linearGradient2486);fill-opacity:1;fill-rule:nonzero;stroke:none"
         id="path3312"
         d="m 5.6328855,16.073974 c 7.1748065,2.242248 7.8502625,7.031463 12.7767855,1.754127 L 10.499985,9.1321388 C 8.2787249,11.062747 6.9132871,13.459349 5.6328855,16.073974 z" />
      <path
         inkscape:connector-curvature="0"
         style="opacity:0.8;fill:url(#linearGradient2488);fill-opacity:1;fill-rule:nonzero;stroke:none"
         id="path3314"
         d="M 7.155289,13.193173 C 5.9722117,14.945185 5.2475768,16.829547 4.6301929,18.837116 L 15.96875,21.8125 C 16.184264,21.049497 16.486796,20.297733 16.9375,19.59375 16.95479,19.56675 16.98246,19.52673 17,19.5 L 7.155289,13.193173 z" />
    </g>
    <g
       id="g3297"
       transform="matrix(-0.444875,0,0,-0.444875,21.677455,31.672922)">
      <path
         inkscape:connector-curvature="0"
         style="opacity:0.8;fill:url(#linearGradient2492);fill-opacity:1;fill-rule:nonzero;stroke:none"
         id="path3299"
         transform="matrix(0.9996011,0.02824295,-0.02824295,0.9996011,0.6924114,-0.6708346)"
         d="M 15.856928,5.7307748 20.625,16.34375 C 21.660403,15.885186 22.795334,15.625 24,15.625 c 0.03206,0 0.06178,-3.6e-4 0.09375,0 L 24.10801,4.0047512 c -2.94215,-0.070687 -5.543041,0.6572865 -8.251083,1.7260236 z" />
      <path
         inkscape:connector-curvature="0"
         style="opacity:0.8;fill:url(#linearGradient2494);fill-opacity:1;fill-rule:nonzero;stroke:none"
         id="path3301"
         d="m 12.121471,7.9060109 6.931026,9.3601041 c 0.913109,-0.669755 1.965938,-1.167064 3.142629,-1.425169 0.03132,-0.0069 0.06026,-0.01359 0.09157,-0.02009 L 19.857174,4.426276 c -2.888973,0.5613244 -5.31953,1.8556038 -7.735703,3.4797349 z" />
      <path
         inkscape:connector-curvature="0"
         style="opacity:0.8;fill:url(#linearGradient2496);fill-opacity:1;fill-rule:nonzero;stroke:none"
         id="path3303"
         d="m 8.2523933,11.646535 9.2137237,7.155818 c 0.70865,-0.883264 1.596891,-1.636119 2.666685,-2.18998 0.02847,-0.01474 0.05469,-0.02872 0.08325,-0.0431 L 14.86585,6.2506132 C 12.220599,7.5405321 10.165881,9.452393 8.2523933,11.646535 z" />
      <path
         inkscape:connector-curvature="0"
         style="opacity:0.8;fill:url(#linearGradient2498);fill-opacity:1;fill-rule:nonzero;stroke:none"
         id="path3305"
         d="m 5.6328855,16.073974 c 7.1748065,2.242248 7.8502625,7.031463 12.7767855,1.754127 L 10.499985,9.1321388 C 8.2787249,11.062747 6.9132871,13.459349 5.6328855,16.073974 z" />
      <path
         inkscape:connector-curvature="0"
         style="opacity:0.8;fill:url(#linearGradient2500);fill-opacity:1;fill-rule:nonzero;stroke:none"
         id="path3307"
         d="M 7.155289,13.193173 C 5.9722117,14.945185 5.2475768,16.829547 4.6301929,18.837116 L 15.96875,21.8125 C 16.184264,21.049497 16.486796,20.297733 16.9375,19.59375 16.95479,19.56675 16.98246,19.52673 17,19.5 L 7.155289,13.193173 z" />
    </g>
    <path
       inkscape:connector-curvature="0"
       style="opacity:0.55;color:#000000;fill:none;stroke:url(#linearGradient3537);stroke-width:1;stroke-linecap:round;stroke-linejoin:round;stroke-miterlimit:4;stroke-opacity:1;stroke-dasharray:none;stroke-dashoffset:0;marker:none;visibility:visible;display:inline;overflow:visible;enable-background:accumulate"
       id="path8655"
       d="m 19.500348,20.999699 c 0,4.694572 -3.80586,8.500301 -8.499893,8.500301 -4.6944626,0 -8.5001086,-3.805772 -8.5001086,-8.500301 0,-4.694354 3.805646,-8.499698 8.5001086,-8.499698 4.694033,0 8.499893,3.805344 8.499893,8.499698 l 0,0 z" />
    <path
       inkscape:connector-curvature="0"
       style="opacity:0.4;fill:none;stroke:url(#linearGradient3534);stroke-width:0.99999976;stroke-miterlimit:4;stroke-opacity:1"
       id="path3281"
       d="m 11.000455,25.5 c -2.4942866,0 -4.500001,-2.005714 -4.500001,-4.500001 0,-2.494285 2.0057143,-4.5 4.500001,-4.5 2.494287,0 4.5,2.005715 4.5,4.5 0,2.494287 -2.005713,4.500001 -4.5,4.500001 l 0,0 0,0 z" />
    <path
       inkscape:connector-curvature="0"
       style="fill:none;stroke:url(#linearGradient3531);stroke-width:1.00000024;stroke-linecap:butt;stroke-linejoin:round;stroke-miterlimit:4;stroke-opacity:1;stroke-dasharray:none;stroke-dashoffset:0;marker:none;visibility:visible;display:inline;overflow:visible;enable-background:accumulate"
       id="path3418"
       d="m 11.000454,17.499999 c -1.9320004,0 -3.4999997,1.568 -3.4999997,3.500001 0,1.932 1.5679993,3.499999 3.4999997,3.499999 1.932001,0 3.5,-1.567999 3.5,-3.499999 0,-1.932001 -1.567999,-3.500001 -3.5,-3.500001 z m 0,1.750002 c 0.966001,0 1.75,0.783999 1.75,1.749999 0,0.966 -0.783999,1.75 -1.75,1.75 -0.965999,0 -1.7499984,-0.784 -1.7499984,-1.75 0,-0.965999 0.7839994,-1.749999 1.7499984,-1.749999 z" />
    <path
       d="m 20.887598,27.242639 -0.36668,-2.955046"
       id="path2931"
       style="fill:none;stroke:none"
       inkscape:connector-curvature="0" />
    <path
       d="m 19.89026,17.43023 c -2.357103,0.379835 -4.539254,0.770846 -6.889805,1.171895 -0.622438,0.303691 -0.482505,1.085701 -0.510043,1.653122 0,2.531942 0,4.134734 0,6.666677 -1.311726,-0.246608 -2.9113564,0.837273 -2.9807334,2.553424 -0.113253,1.068438 0.8342064,1.998453 1.8644814,2.023461 1.844664,0.04478 3.106286,-1.179076 3.126295,-2.726857 -0.02014,-2.599408 0.0057,-4.270688 0,-6.870495 0.285576,-0.02115 3.638654,-0.846503 4.027624,-0.901457 0,1.947147 0,2.965145 0,4.912292 -1.146387,-0.274637 -2.611897,0.478721 -2.97527,2.017254 -0.15337,0.862385 0.136497,1.944831 1.011547,2.309984 1.708237,0.784936 4.053268,-0.805037 3.957931,-2.671065 -0.02646,-3.466173 0.02169,-6.004614 0,-9.471156 C 20.477427,17.77155 20.25668,17.406716 19.89026,17.43023 z"
       id="path4031"
       style="fill:#4d4d4d;fill-opacity:1;stroke:#333333;stroke-width:1;stroke-linecap:round;stroke-linejoin:round;stroke-miterlimit:4;stroke-opacity:1;stroke-dasharray:none"
       inkscape:connector-curvature="0"
       sodipodi:nodetypes="cccccsccccccccc" />
    <path
       d="m 13.974019,28.865117 a 1.7166647,2.0994822 57.095252 0 1 -3.9883314,0.66825 1.7166647,2.0994822 57.095252 0 1 3.9883314,-0.66825 z"
       id="path2937"
       style="fill:url(#radialGradient3524);fill-opacity:1;stroke:none"
       inkscape:connector-curvature="0" />
    <path
       d="M 19.938388,27.82841 A 1.6885125,2.0629959 56.769744 0 1 16.02224,28.486184 1.6885125,2.0629959 56.769744 1 1 19.938388,27.82841 z"
       id="path2941"
       style="fill:url(#radialGradient3521);fill-opacity:1;stroke:none"
       inkscape:connector-curvature="0" />
    <path
       d="m 13.054142,27.476373 -0.05369,-7.842657 c 0,0 0.05877,-0.663765 0.494716,-0.665788 0.154613,-0.02705 6.931715,-1.156547 6.931715,-1.156547 0,0 0.132983,0.709474 -6.06949,1.629654 -0.516931,0.07707 -0.76544,0.06848 -0.762716,0.558367 0.0073,1.321624 -0.03036,2.956174 -0.03036,7.768476 0,0.03443 -0.325438,-0.243938 -0.510175,-0.291505 z"
       id="path2945"
       style="opacity:0.4;fill:url(#linearGradient3518);fill-opacity:1;fill-rule:evenodd;stroke:none"
       inkscape:connector-curvature="0"
       sodipodi:nodetypes="ccccccsc" />
    <path
       d="m 19.000455,26.271349 0.03393,-6.559021 c 0.357493,-0.0323 0.05489,-0.0052 0.53695,-0.05358 0.0066,1.225158 2.74e-4,2.242096 2.74e-4,6.869194 0,0.03443 -0.199425,-0.209029 -0.571151,-0.256596 z"
       id="path2947"
       style="opacity:0.4;fill:url(#linearGradient3515);fill-opacity:1;fill-rule:evenodd;stroke:none"
       inkscape:connector-curvature="0" />
  </g>
</svg>
