<?xml version="1.0" encoding="UTF-8" standalone="no"?>
<!-- Created with Inkscape (http://www.inkscape.org/) -->

<svg
   xmlns:svg="http://www.w3.org/2000/svg"
   xmlns="http://www.w3.org/2000/svg"
   xmlns:xlink="http://www.w3.org/1999/xlink"
   version="1.0"
   width="48"
   height="48"
   id="svg11300">
  <defs
     id="defs3">
    <linearGradient
       id="linearGradient6393">
      <stop
         id="stop6395"
         style="stop-color:#f7fc66;stop-opacity:1"
         offset="0" />
      <stop
         id="stop6397"
         style="stop-color:#6efb27;stop-opacity:1"
         offset="1" />
    </linearGradient>
    <linearGradient
       id="linearGradient6866">
      <stop
         id="stop6868"
         style="stop-color:#828282;stop-opacity:1"
         offset="0" />
      <stop
         id="stop6870"
         style="stop-color:#aaaaaa;stop-opacity:1"
         offset="1" />
    </linearGradient>
    <linearGradient
       id="linearGradient6842">
      <stop
         id="stop6844"
         style="stop-color:#ffffff;stop-opacity:1"
         offset="0" />
      <stop
         id="stop6846"
         style="stop-color:#ffffff;stop-opacity:0"
         offset="1" />
    </linearGradient>
    <linearGradient
       id="linearGradient6828">
      <stop
         id="stop6830"
         style="stop-color:#6e6e6e;stop-opacity:1"
         offset="0" />
      <stop
         id="stop6832"
         style="stop-color:#1e1e1e;stop-opacity:1"
         offset="1" />
    </linearGradient>
    <linearGradient
       id="linearGradient2463">
      <stop
         id="stop2465"
         style="stop-color:#ffffff;stop-opacity:1"
         offset="0" />
      <stop
         id="stop2467"
         style="stop-color:#ffffff;stop-opacity:0"
         offset="1" />
    </linearGradient>
    <linearGradient
       id="linearGradient2366">
      <stop
         id="stop2368"
         style="stop-color:#2e3436;stop-opacity:1"
         offset="0" />
      <stop
         id="stop2370"
         style="stop-color:#555753;stop-opacity:1"
         offset="1" />
    </linearGradient>
    <linearGradient
       id="linearGradient7612">
      <stop
         id="stop7614"
         style="stop-color:#000000;stop-opacity:1"
         offset="0" />
      <stop
         id="stop7616"
         style="stop-color:#000000;stop-opacity:0"
         offset="1" />
    </linearGradient>
    <linearGradient
       id="linearGradient8589">
      <stop
         id="stop8591"
         style="stop-color:#fefefe;stop-opacity:1"
         offset="0" />
      <stop
         id="stop8593"
         style="stop-color:#bebebe;stop-opacity:1"
         offset="1" />
    </linearGradient>
    <linearGradient
       id="linearGradient3600">
      <stop
         id="stop3602"
         style="stop-color:#f4f4f4;stop-opacity:1"
         offset="0" />
      <stop
         id="stop3604"
         style="stop-color:#dbdbdb;stop-opacity:1"
         offset="1" />
    </linearGradient>
    <linearGradient
       id="linearGradient3104">
      <stop
         id="stop3106"
         style="stop-color:#969696;stop-opacity:1"
         offset="0" />
      <stop
         id="stop3108"
         style="stop-color:#bebebe;stop-opacity:1"
         offset="1" />
    </linearGradient>
    <linearGradient
       x1="24.875"
       y1="41"
       x2="24.875"
       y2="38"
       id="linearGradient2444"
       xlink:href="#linearGradient6828"
       gradientUnits="userSpaceOnUse"
       gradientTransform="translate(0,2)" />
    <linearGradient
       x1="21.0625"
       y1="38"
       x2="21.0625"
       y2="43.380203"
       id="linearGradient2447"
       xlink:href="#linearGradient8589"
       gradientUnits="userSpaceOnUse"
       gradientTransform="translate(0,2)" />
    <radialGradient
       cx="40.092358"
       cy="31.496664"
       r="0.38912815"
       fx="40.092358"
       fy="31.496664"
       id="radialGradient2450"
       xlink:href="#linearGradient6393"
       gradientUnits="userSpaceOnUse"
       gradientTransform="matrix(0.9585208,-0.09966997,0.1135695,1.0921915,-0.8814201,3.7206174)" />
    <linearGradient
       x1="39.947655"
       y1="28.41691"
       x2="39.931473"
       y2="31.987118"
       id="linearGradient2453"
       xlink:href="#linearGradient3104"
       gradientUnits="userSpaceOnUse"
       gradientTransform="matrix(0.5626184,0,0,0.6430234,18.432822,14.72726)" />
    <radialGradient
       cx="11.537243"
       cy="15.279687"
       r="13"
       fx="11.537243"
       fy="15.279687"
       id="radialGradient2456"
       xlink:href="#linearGradient2463"
       gradientUnits="userSpaceOnUse"
       gradientTransform="matrix(1,0,0,0.3846154,0,18.615373)" />
    <linearGradient
       x1="7.5170455"
       y1="31.15625"
       x2="7.4545455"
       y2="40.875"
       id="linearGradient2459"
       xlink:href="#linearGradient6828"
       gradientUnits="userSpaceOnUse"
       gradientTransform="matrix(0.9705882,0,0,0.8,0.7058824,10.1)" />
    <linearGradient
       x1="9.5625"
       y1="41.375"
       x2="9.5"
       y2="33.5"
       id="linearGradient2461"
       xlink:href="#linearGradient2366"
       gradientUnits="userSpaceOnUse"
       gradientTransform="translate(0.5,1.5)" />
    <linearGradient
       x1="21.919418"
       y1="21"
       x2="22.007805"
       y2="33"
       id="linearGradient2464"
       xlink:href="#linearGradient6828"
       gradientUnits="userSpaceOnUse"
       gradientTransform="translate(-2.5e-7,1.999981)" />
    <linearGradient
       x1="15.600636"
       y1="33"
       x2="15.335471"
       y2="21"
       id="linearGradient2466"
       xlink:href="#linearGradient2366"
       gradientUnits="userSpaceOnUse"
       gradientTransform="translate(-2.5e-7,1.999981)" />
    <radialGradient
       cx="3.7590685"
       cy="11.918329"
       r="21"
       fx="3.7590685"
       fy="11.918329"
       id="radialGradient2478"
       xlink:href="#linearGradient6842"
       gradientUnits="userSpaceOnUse"
       gradientTransform="matrix(0.9998239,0.01876396,-0.01262691,0.6728156,0.1511534,16.48859)" />
    <linearGradient
       x1="11.519291"
       y1="20"
       x2="11.50602"
       y2="37"
       id="linearGradient2481"
       xlink:href="#linearGradient8589"
       gradientUnits="userSpaceOnUse"
       gradientTransform="translate(-2.5e-7,1.999981)" />
    <linearGradient
       x1="20.561552"
       y1="36.999981"
       x2="20.278992"
       y2="19.999981"
       id="linearGradient2483"
       xlink:href="#linearGradient6866"
       gradientUnits="userSpaceOnUse"
       gradientTransform="translate(0,2)" />
    <linearGradient
       x1="21.586424"
       y1="9.5515556"
       x2="21.686989"
       y2="18.919773"
       id="linearGradient2486"
       xlink:href="#linearGradient6828"
       gradientUnits="userSpaceOnUse"
       gradientTransform="matrix(0.8789125,0,0,1.1284132,2.9061009,0.9064125)" />
    <linearGradient
       x1="7.4375"
       y1="14.105195"
       x2="7.4375"
       y2="8.9371939"
       id="linearGradient2488"
       xlink:href="#linearGradient2366"
       gradientUnits="userSpaceOnUse"
       gradientTransform="matrix(0.8789125,0,0,1.1284132,2.9061009,0.9064125)" />
    <radialGradient
       cx="24"
       cy="41.875"
       r="19.125"
       fx="24"
       fy="41.875"
       id="radialGradient2491"
       xlink:href="#linearGradient7612"
       gradientUnits="userSpaceOnUse"
       gradientTransform="matrix(1.254902,0,0,0.339869,-6.1176472,27.267974)" />
    <filter
       x="-0.14846256"
       y="-0.16434373"
       width="1.2969251"
       height="1.3286875"
       color-interpolation-filters="sRGB"
       id="filter3212">
      <feGaussianBlur
         stdDeviation="0.77391625"
         id="feGaussianBlur3214" />
    </filter>
    <linearGradient
       id="linearGradient3211">
      <stop
         id="stop3213"
         style="stop-color:#ffffff;stop-opacity:1"
         offset="0" />
      <stop
         id="stop3215"
         style="stop-color:#ffffff;stop-opacity:0"
         offset="1" />
    </linearGradient>
    <radialGradient
       cx="102"
       cy="112.3047"
       r="139.55859"
       id="XMLID_8_"
       gradientUnits="userSpaceOnUse">
      <stop
         id="stop41"
         style="stop-color:#b7b8b9;stop-opacity:1"
         offset="0" />
      <stop
         id="stop47"
         style="stop-color:#ececec;stop-opacity:1"
         offset="0.18851049" />
      <stop
         id="stop49"
         style="stop-color:#fafafa;stop-opacity:0"
         offset="0.25718147" />
      <stop
         id="stop51"
         style="stop-color:#ffffff;stop-opacity:0"
         offset="0.30111277" />
      <stop
         id="stop53"
         style="stop-color:#fafafa;stop-opacity:0"
         offset="0.53130001" />
      <stop
         id="stop55"
         style="stop-color:#ebecec;stop-opacity:0"
         offset="0.84490001" />
      <stop
         id="stop57"
         style="stop-color:#e1e2e3;stop-opacity:0"
         offset="1" />
    </radialGradient>
    <linearGradient
       id="linearGradient5060">
      <stop
         id="stop5062"
         style="stop-color:#000000;stop-opacity:1"
         offset="0" />
      <stop
         id="stop5064"
         style="stop-color:#000000;stop-opacity:0"
         offset="1" />
    </linearGradient>
    <linearGradient
       id="linearGradient5048">
      <stop
         id="stop5050"
         style="stop-color:#000000;stop-opacity:0"
         offset="0" />
      <stop
         id="stop5056"
         style="stop-color:#000000;stop-opacity:1"
         offset="0.5" />
      <stop
         id="stop5052"
         style="stop-color:#000000;stop-opacity:0"
         offset="1" />
    </linearGradient>
    <linearGradient
       x1="302.85715"
       y1="366.64789"
       x2="302.85715"
       y2="609.50507"
       id="linearGradient2612"
       xlink:href="#linearGradient5048"
       gradientUnits="userSpaceOnUse"
       gradientTransform="matrix(0.04576928,0,0,0.00823529,-0.5423243,26.980549)" />
    <radialGradient
       cx="605.71429"
       cy="486.64789"
       r="117.14286"
       fx="605.71429"
       fy="486.64789"
       id="radialGradient2614"
       xlink:href="#linearGradient5060"
       gradientUnits="userSpaceOnUse"
       gradientTransform="matrix(-0.01566318,0,0,0.00823529,14.389566,26.980566)" />
    <radialGradient
       cx="605.71429"
       cy="486.64789"
       r="117.14286"
       fx="605.71429"
       fy="486.64789"
       id="radialGradient2616"
       xlink:href="#linearGradient5060"
       gradientUnits="userSpaceOnUse"
       gradientTransform="matrix(0.01566318,0,0,0.00823529,17.610433,26.980566)" />
    <linearGradient
       x1="25.132275"
       y1="0.98520643"
       x2="25.132275"
       y2="47.013336"
       id="linearGradient2618"
       xlink:href="#linearGradient3600"
       gradientUnits="userSpaceOnUse"
       gradientTransform="matrix(0.6571436,0,0,0.6301241,0.2285531,-0.08964783)" />
    <linearGradient
       x1="-51.786404"
       y1="50.786446"
       x2="-51.786404"
       y2="2.9062471"
       id="linearGradient2620"
       xlink:href="#linearGradient3104"
       gradientUnits="userSpaceOnUse"
       gradientTransform="matrix(0.5306412,0,0,0.5897023,39.269605,-0.7919081)" />
    <radialGradient
       cx="102"
       cy="112.3047"
       r="139.55859"
       id="radialGradient2622"
       xlink:href="#XMLID_8_"
       gradientUnits="userSpaceOnUse"
       gradientTransform="matrix(0.2340426,0,0,-0.2542968,1.0212767,32.288672)" />
    <linearGradient
       x1="24"
       y1="1.9999999"
       x2="24"
       y2="46.01725"
       id="linearGradient2624"
       xlink:href="#linearGradient3211"
       gradientUnits="userSpaceOnUse"
       gradientTransform="matrix(0.6363646,0,0,0.6279076,0.7272514,0.9302159)" />
    <linearGradient
       x1="32.892288"
       y1="8.0590115"
       x2="36.358372"
       y2="5.4565363"
       id="linearGradient2626"
       xlink:href="#linearGradient8589"
       gradientUnits="userSpaceOnUse"
       gradientTransform="matrix(0.6371285,0,0,0.6445638,0.8296804,0.7445175)" />
  </defs>
  <path
     d="M 48.000002,41.499999 C 48.000002,45.08985 37.254835,48 24.000001,48 10.745166,48 5e-8,45.08985 5e-8,41.499999 5e-8,37.910148 10.745166,34.999998 24.000001,34.999998 c 13.254834,0 24.000001,2.91015 24.000001,6.500001 l 0,0 z"
     id="path3087"
     style="opacity:0.5;fill:url(#radialGradient2491);fill-opacity:1;fill-rule:nonzero;stroke:none;stroke-width:4;marker:none;visibility:visible;display:inline;overflow:visible" />
  <rect
     width="29.00411"
     height="22.004059"
     rx="0.56379259"
     ry="0.72383887"
     x="9.4979439"
     y="10.497924"
     id="rect2315"
     style="fill:url(#linearGradient2486);fill-opacity:1;stroke:url(#linearGradient2488);stroke-width:0.99603385;stroke-linecap:round;stroke-linejoin:round;stroke-miterlimit:4;stroke-opacity:1;stroke-dasharray:none;display:inline" />
  <g
     transform="translate(8.0000133,1.9999996)"
     id="layer1">
    <rect
       width="22.100021"
       height="2"
       x="4.9499893"
       y="30"
       id="rect2879"
       style="opacity:0.15;fill:url(#linearGradient2612);fill-opacity:1;fill-rule:nonzero;stroke:none;stroke-width:1;marker:none;visibility:visible;display:inline;overflow:visible" />
    <path
       d="m 4.9499887,30.000087 c 0,0 0,1.99989 0,1.99989 -0.806615,0.0038 -1.950002,-0.448074 -1.950002,-1.000074 0,-0.552 0.900121,-0.999816 1.950002,-0.999816 z"
       id="path2881"
       style="opacity:0.15;fill:url(#radialGradient2614);fill-opacity:1;fill-rule:nonzero;stroke:none;stroke-width:1;marker:none;visibility:visible;display:inline;overflow:visible" />
    <path
       d="m 27.050011,30.000087 c 0,0 0,1.99989 0,1.99989 0.806614,0.0038 1.950002,-0.448074 1.950002,-1.000074 0,-0.552 -0.900122,-0.999816 -1.950002,-0.999816 z"
       id="path2883"
       style="opacity:0.15;fill:url(#radialGradient2616);fill-opacity:1;fill-rule:nonzero;stroke:none;stroke-width:1;marker:none;visibility:visible;display:inline;overflow:visible" />
    <path
       d="m 4.499961,1.4999609 c 5.2704843,0 10.540969,0 15.811458,0 0.924556,0.3128002 5.891591,3.8764242 7.188621,6.3438858 0,7.5520643 0,15.1041283 0,22.6561933 -7.666694,0 -15.333386,0 -23.000079,0 0,-9.666694 0,-19.333388 0,-29.0000791 z"
       id="path4160"
       style="fill:url(#linearGradient2618);fill-opacity:1;stroke:url(#linearGradient2620);stroke-width:0.99992174;stroke-linecap:butt;stroke-linejoin:round;stroke-miterlimit:4;stroke-opacity:1;stroke-dasharray:none;stroke-dashoffset:0;display:inline" />
    <path
       d="M 5.2340427,30 C 5.1050853,30 5,29.885821 5,29.745703 L 5,2.2816602 C 5,2.141289 5.1050853,2.0273644 5.2340427,2.0273644 10.076044,2.0976535 15.441839,1.9222203 20.277954,2.0448649 L 26.931426,7.8143805 27,29.745703 C 27,29.885821 26.895148,30 26.765957,30 L 5.2340427,30 z"
       id="path4191"
       style="fill:url(#radialGradient2622);fill-opacity:1" />
    <path
       d="m 26.50004,8.1389757 c 0,7.0312323 0,14.3298293 0,21.3610643 -7.000025,0 -14.000051,0 -21.0000789,0 0,-9.000029 0,-18.000054 0,-27.0000792 4.8121839,0 9.7391359,0 14.5513199,0"
       id="path2435"
       style="opacity:0.6;fill:none;stroke:url(#linearGradient2624);stroke-width:1;stroke-linecap:butt;stroke-linejoin:miter;stroke-miterlimit:4;stroke-opacity:1;stroke-dasharray:none;stroke-dashoffset:0;display:inline" />
    <path
       d="m 28.617256,0.92125832 c 4.282522,0 2.15325,8.48317128 2.15325,8.48317128 0,0 10.357642,-1.8023467 10.357642,2.8187444 0,-2.6097233 -11.302304,-10.7285956 -12.510892,-11.30191568 z"
       transform="matrix(0.6385981,0,0,0.6193639,0.7250758,1.4294058)"
       id="path2600"
       style="opacity:0.4;fill:#000000;fill-opacity:1;fill-rule:evenodd;stroke:none;display:inline;filter:url(#filter3212)" />
    <path
       d="m 19.000002,2.0000004 c 2.034888,0 1.491612,4.7454907 1.491612,4.7454907 0,0 6.497818,-0.6076276 6.497818,2.2545089 0,-0.6973655 0.05487,-1.196763 -0.08543,-1.4143758 -1.007905,-1.5633861 -5.36136,-5.0715999 -6.93345,-5.5314084 -0.117643,-0.034408 -0.3785,-0.054215 -0.970551,-0.054215 z"
       id="path4474"
       style="fill:url(#linearGradient2626);fill-opacity:1;fill-rule:evenodd;stroke:none;display:inline" />
  </g>
  <path
     d="m 4.5789659,22.499981 4.9210339,0 1.0000002,1 27,0 1,-1 4.921034,0 c 1.151747,0 2.078966,0.927219 2.078966,2.078966 l 0,13.921034 -43.0000002,0 0,-13.921034 c 0,-1.151747 0.9272188,-2.078966 2.0789661,-2.078966 l 0,0 z"
     id="rect2313"
     style="fill:url(#linearGradient2481);fill-opacity:1;stroke:url(#linearGradient2483);stroke-width:1;stroke-linecap:round;stroke-linejoin:round;stroke-miterlimit:4;stroke-opacity:1" />
  <path
     d="m 4.4999997,23.499981 39.0000003,0 c 0.518817,0 1,0.481183 1,1 l 0,13 -41.0000002,0 0,-13 c 0,-0.518817 0.4811833,-1 0.9999999,-1 l 0,0 z"
     id="rect2374"
     style="opacity:0.9;fill:none;stroke:url(#radialGradient2478);stroke-width:1;stroke-linecap:round;stroke-linejoin:miter;stroke-miterlimit:4;stroke-opacity:1;display:inline" />
  <rect
     width="27"
     height="11"
     x="10.5"
     y="23.499981"
     id="rect2319"
     style="fill:url(#linearGradient2464);fill-opacity:1;stroke:url(#linearGradient2466);stroke-width:1;stroke-linecap:round;stroke-linejoin:miter;stroke-miterlimit:4;stroke-opacity:1;stroke-dasharray:none" />
  <path
     d="M 3.5,38.5 C 3.580089,39.536507 3.2926219,40.651877 3.7536297,41.61219 4.6184456,42.831026 6.2237037,42.430252 7.5,42.5 c 0.023032,0.719497 -0.2134627,1.830225 0.7727435,1.983266 10.4180765,0.03903 20.8392415,0.0056 31.2585065,0.01673 1.075221,0.03177 1.003507,-1.16201 0.96875,-1.919563 0.351156,-0.186608 1.047908,-0.02762 1.532856,-0.08044 1.19992,0.163086 2.667095,-0.659828 2.467144,-2.028135 0,-0.657288 0,-1.314577 0,-1.971865 -13.666667,0 -27.333333,0 -41,0 l 0,7e-6 z"
     id="rect6333"
     style="fill:url(#linearGradient2459);fill-opacity:1;stroke:url(#linearGradient2461);stroke-width:1;stroke-linecap:square;stroke-linejoin:miter;stroke-miterlimit:4;stroke-opacity:1;stroke-dasharray:none" />
  <rect
     width="25"
     height="9"
     x="11.5"
     y="24.499981"
     id="rect2459"
     style="opacity:0.3;fill:none;stroke:url(#radialGradient2456);stroke-width:0.99999982;stroke-linecap:round;stroke-linejoin:miter;stroke-miterlimit:4;stroke-opacity:1;stroke-dasharray:none;display:inline" />
  <path
     d="m 42.625413,34.50023 c 0,0.62148 -0.503786,1.125291 -1.125237,1.125291 -0.62145,0 -1.125236,-0.503811 -1.125236,-1.125291 0,-0.621481 0.503786,-1.125291 1.125236,-1.125291 0.621451,0 1.125237,0.50381 1.125237,1.125291 z"
     id="path2726"
     style="fill:none;stroke:url(#linearGradient2453);stroke-width:0.74988067;stroke-linecap:round;stroke-linejoin:round;stroke-miterlimit:4;stroke-opacity:1;stroke-dasharray:none" />
  <path
     d="m 42.299999,34.500001 c 3.88e-4,0.442102 -0.357898,0.800702 -0.8,0.800702 -0.442102,0 -0.800388,-0.3586 -0.8,-0.800702 -3.88e-4,-0.442102 0.357898,-0.800702 0.8,-0.800702 0.442102,0 0.800388,0.3586 0.8,0.800702 l 0,0 z"
     id="path2764"
     style="fill:url(#radialGradient2450);fill-opacity:1;stroke:none" />
  <path
     d="m 40,40 0,3.5 c 0,0.277 -0.223,0.5 -0.5,0.5 l -31,0 C 8.223,44 8,43.777 8,43.5 L 8,40 40,40 z"
     id="rect6331"
     style="fill:url(#linearGradient2447);fill-opacity:1;stroke:none" />
  <rect
     width="28"
     height="2"
     x="10"
     y="40"
     id="rect6329"
     style="fill:url(#linearGradient2444);fill-opacity:1;stroke:none" />
</svg>
