<?xml version="1.0" encoding="UTF-8" standalone="no"?>
<!-- Created with Inkscape (http://www.inkscape.org/) -->
<svg
   xmlns:dc="http://purl.org/dc/elements/1.1/"
   xmlns:cc="http://creativecommons.org/ns#"
   xmlns:rdf="http://www.w3.org/1999/02/22-rdf-syntax-ns#"
   xmlns:svg="http://www.w3.org/2000/svg"
   xmlns="http://www.w3.org/2000/svg"
   xmlns:xlink="http://www.w3.org/1999/xlink"
   xmlns:sodipodi="http://sodipodi.sourceforge.net/DTD/sodipodi-0.dtd"
   xmlns:inkscape="http://www.inkscape.org/namespaces/inkscape"
   version="1.0"
   width="48"
   height="48"
   id="svg4273"
   sodipodi:version="0.32"
   inkscape:version="0.46"
   sodipodi:docname="gpm-primary-020.svg"
   inkscape:output_extension="org.inkscape.output.svg.inkscape">
  <metadata
     id="metadata74">
    <rdf:RDF>
      <cc:Work
         rdf:about="">
        <dc:format>image/svg+xml</dc:format>
        <dc:type
           rdf:resource="http://purl.org/dc/dcmitype/StillImage" />
      </cc:Work>
    </rdf:RDF>
  </metadata>
  <sodipodi:namedview
     inkscape:window-height="707"
     inkscape:window-width="683"
     inkscape:pageshadow="2"
     inkscape:pageopacity="0.0"
     guidetolerance="10.0"
     gridtolerance="10.0"
     objecttolerance="10.0"
     borderopacity="1.0"
     bordercolor="#666666"
     pagecolor="#ffffff"
     id="base"
     showgrid="false"
     inkscape:zoom="10.375"
     inkscape:cx="24"
     inkscape:cy="24"
     inkscape:window-x="0"
     inkscape:window-y="24"
     inkscape:current-layer="svg4273" />
  <defs
     id="defs4275">
    <linearGradient
       id="linearGradient3280-373">
      <stop
         id="stop4633"
         style="stop-color:#000000;stop-opacity:1"
         offset="0" />
      <stop
         id="stop4635"
         style="stop-color:#000000;stop-opacity:0"
         offset="1" />
    </linearGradient>
    <linearGradient
       id="linearGradient4231">
      <stop
         id="stop4233"
         style="stop-color:#f87e71;stop-opacity:1;"
         offset="0" />
      <stop
         id="stop4237"
         style="stop-color:#b5222a;stop-opacity:1;"
         offset="1" />
    </linearGradient>
    <linearGradient
       id="linearGradient3254-8-457">
      <stop
         id="stop4669"
         style="stop-color:#ffffff;stop-opacity:1"
         offset="0" />
      <stop
         id="stop4671"
         style="stop-color:#ffffff;stop-opacity:0"
         offset="1" />
    </linearGradient>
    <linearGradient
       id="linearGradient4247">
      <stop
         id="stop4249"
         style="stop-color:#ed978e;stop-opacity:1"
         offset="0" />
      <stop
         id="stop4251"
         style="stop-color:#db2727;stop-opacity:1"
         offset="1" />
    </linearGradient>
    <linearGradient
       id="linearGradient4259">
      <stop
         id="stop4261"
         style="stop-color:#d26c6c;stop-opacity:1"
         offset="0" />
      <stop
         id="stop4263"
         style="stop-color:#db4949;stop-opacity:1"
         offset="1" />
    </linearGradient>
    <linearGradient
       id="linearGradient3254-3-182">
      <stop
         id="stop4663"
         style="stop-color:#ffffff;stop-opacity:1"
         offset="0" />
      <stop
         id="stop4665"
         style="stop-color:#ffffff;stop-opacity:0"
         offset="1" />
    </linearGradient>
    <linearGradient
       id="linearGradient3355-273">
      <stop
         id="stop4657"
         style="stop-color:#e1e1e1;stop-opacity:1"
         offset="0" />
      <stop
         id="stop4659"
         style="stop-color:#a6a6a6;stop-opacity:1"
         offset="1" />
    </linearGradient>
    <linearGradient
       id="linearGradient3844-342">
      <stop
         id="stop4651"
         style="stop-color:#a6a6a6;stop-opacity:0.49019608"
         offset="0" />
      <stop
         id="stop4653"
         style="stop-color:#e8e8e8;stop-opacity:0.49019608"
         offset="1" />
    </linearGradient>
    <linearGradient
       id="linearGradient2509-6-3-746">
      <stop
         id="stop4699"
         style="stop-color:#b3b3b3;stop-opacity:1"
         offset="0" />
      <stop
         id="stop4701"
         style="stop-color:#dadada;stop-opacity:1"
         offset="1" />
    </linearGradient>
    <linearGradient
       x1="109.95628"
       y1="-24.91135"
       x2="109.95628"
       y2="-2.3757858"
       id="linearGradient2479"
       xlink:href="#linearGradient2509-6-3-746"
       gradientUnits="userSpaceOnUse"
       gradientTransform="matrix(0.1792665,0,0,0.1462979,5.307569,3.9776969)" />
    <linearGradient
       id="linearGradient3844-9-5-84">
      <stop
         id="stop4693"
         style="stop-color:#a6a6a6;stop-opacity:1"
         offset="0" />
      <stop
         id="stop4695"
         style="stop-color:#e8e8e8;stop-opacity:1"
         offset="1" />
    </linearGradient>
    <linearGradient
       x1="102.30806"
       y1="-2.3925467"
       x2="102.30806"
       y2="-24.582239"
       id="linearGradient2477"
       xlink:href="#linearGradient3844-9-5-84"
       gradientUnits="userSpaceOnUse"
       gradientTransform="matrix(0.1792665,0,0,0.1462979,5.307569,3.9776969)"
       spreadMethod="reflect" />
    <linearGradient
       id="linearGradient3858-1-3-594">
      <stop
         id="stop4687"
         style="stop-color:#a0a0a0;stop-opacity:1"
         offset="0" />
      <stop
         id="stop4689"
         style="stop-color:#646464;stop-opacity:1"
         offset="1" />
    </linearGradient>
    <linearGradient
       x1="89.01844"
       y1="22.536863"
       x2="89.01844"
       y2="27.54611"
       id="linearGradient2475"
       xlink:href="#linearGradient3858-1-3-594"
       gradientUnits="userSpaceOnUse"
       gradientTransform="matrix(0.3895815,0,0,0.3605526,-12.76462,-2.2515447)" />
    <linearGradient
       id="linearGradient2793-2-0-669">
      <stop
         id="stop4681"
         style="stop-color:#878787;stop-opacity:1"
         offset="0" />
      <stop
         id="stop4683"
         style="stop-color:#d9d9d9;stop-opacity:1"
         offset="1" />
    </linearGradient>
    <linearGradient
       x1="103.95014"
       y1="-7.6656942"
       x2="89.423676"
       y2="-7.6656942"
       id="linearGradient2473"
       xlink:href="#linearGradient2793-2-0-669"
       gradientUnits="userSpaceOnUse"
       gradientTransform="matrix(0.1783638,0,0,0.1558618,5.376436,8.0089281)"
       spreadMethod="reflect" />
    <linearGradient
       id="linearGradient4126-65-434-2-3-659">
      <stop
         id="stop4675"
         style="stop-color:#000000;stop-opacity:1"
         offset="0" />
      <stop
         id="stop4677"
         style="stop-color:#000000;stop-opacity:0"
         offset="1" />
    </linearGradient>
    <radialGradient
       cx="23.857143"
       cy="40"
       r="17.142857"
       fx="23.857143"
       fy="40"
       id="radialGradient2471"
       xlink:href="#linearGradient4126-65-434-2-3-659"
       gradientUnits="userSpaceOnUse"
       gradientTransform="matrix(0.361547,0,0,0.185261,15.374522,-2.9009258)" />
    <linearGradient
       inkscape:collect="always"
       xlink:href="#linearGradient3844-342"
       id="linearGradient2457"
       gradientUnits="userSpaceOnUse"
       gradientTransform="matrix(0.9200488,0,0,1,1.91933,-7.078e-4)"
       x1="17.242607"
       y1="11.001462"
       x2="17.242607"
       y2="2" />
    <linearGradient
       inkscape:collect="always"
       xlink:href="#linearGradient3355-273"
       id="linearGradient2459"
       gradientUnits="userSpaceOnUse"
       gradientTransform="matrix(0.9200488,0,0,1,1.91933,-7.078e-4)"
       x1="23.999979"
       y1="9.3726854"
       x2="23.999979"
       y2="5.6033387" />
    <linearGradient
       inkscape:collect="always"
       xlink:href="#linearGradient3254-3-182"
       id="linearGradient2462"
       gradientUnits="userSpaceOnUse"
       gradientTransform="matrix(0.9583175,0,0,1.365896,3.39613,-10.809396)"
       x1="12.25"
       y1="20.230709"
       x2="17.125"
       y2="34.173542" />
    <linearGradient
       inkscape:collect="always"
       xlink:href="#linearGradient4259"
       id="linearGradient2465"
       gradientUnits="userSpaceOnUse"
       gradientTransform="matrix(0.8953,0,0,0.6383636,2.5127993,25.041409)"
       x1="15.036061"
       y1="11.205624"
       x2="19.776941"
       y2="18.184662" />
    <linearGradient
       inkscape:collect="always"
       xlink:href="#linearGradient4247"
       id="linearGradient2467"
       gradientUnits="userSpaceOnUse"
       gradientTransform="matrix(0.8953,0,0,0.6383636,2.5127993,25.041409)"
       x1="24"
       y1="16.525082"
       x2="24"
       y2="13.284962" />
    <linearGradient
       inkscape:collect="always"
       xlink:href="#linearGradient3254-8-457"
       id="linearGradient2470"
       gradientUnits="userSpaceOnUse"
       gradientTransform="matrix(0.9583174,0,0,1.4262344,1.479494,-12.86101)"
       x1="23.5"
       y1="10.996204"
       x2="23.5"
       y2="39.850574" />
    <linearGradient
       inkscape:collect="always"
       xlink:href="#linearGradient4231"
       id="linearGradient2474"
       gradientUnits="userSpaceOnUse"
       gradientTransform="matrix(0.9583404,0,0,1.1331788,3.395655,-1.3944541)"
       spreadMethod="reflect"
       x1="21.660458"
       y1="35.911423"
       x2="13.260344"
       y2="35.911423" />
    <radialGradient
       inkscape:collect="always"
       xlink:href="#linearGradient3280-373"
       id="radialGradient2477"
       gradientUnits="userSpaceOnUse"
       gradientTransform="matrix(1.2532661,0,0,0.5125818,-2.749384,33.624816)"
       cx="21.34375"
       cy="14.125"
       fx="21.34375"
       fy="14.125"
       r="11.96875" />
    <linearGradient
       inkscape:collect="always"
       xlink:href="#linearGradient2793-2-0-669"
       id="linearGradient2480"
       gradientUnits="userSpaceOnUse"
       gradientTransform="matrix(0.9583404,0,0,1.1331788,3.395655,-1.3944541)"
       spreadMethod="reflect"
       x1="21.51227"
       y1="28.375"
       x2="13.014573"
       y2="28.375" />
  </defs>
  <path
     style="fill:url(#linearGradient2480);fill-opacity:1;fill-rule:nonzero;stroke:#9f9f9f;stroke-width:1;marker:none;stroke-opacity:1;visibility:visible;display:inline;overflow:visible"
     id="path4967"
     d="M 22.96875,2.53125 C 17.102845,2.7418889 12.5,4.7324404 12.5,7.15625 L 12.5,14.46875 L 12.5,15.78125 L 12.5,40.53125 C 12.5,42.720554 17.651952,44.500002 24,44.5 C 30.348047,44.500002 35.5,42.720554 35.5,40.53125 L 35.5,15.78125 L 35.5,14.46875 L 35.5,7.15625 C 35.499999,4.5922189 30.347896,2.53125 24,2.53125 C 23.65285,2.53125 23.308099,2.519041 22.96875,2.53125 z" />
  <path
     style="opacity:0.7;fill:url(#radialGradient2477);fill-opacity:1;fill-rule:nonzero;stroke:none;stroke-width:1;marker:none;visibility:visible;display:inline;overflow:visible"
     id="path3278"
     d="M 39.000021,40.865035 C 39.000021,44.253283 32.284283,47 24,47 C 15.715717,47 8.999979,44.253283 8.999979,40.865035 C 8.999979,37.476787 15.715717,34.73007 24,34.73007 C 32.284283,34.73007 39.000021,37.476787 39.000021,40.865035 z" />
  <path
     style="fill:url(#linearGradient2474);fill-opacity:1;fill-rule:nonzero;stroke:#a6242e;stroke-width:1;marker:none;stroke-opacity:1;visibility:visible;display:inline;overflow:visible"
     id="path2230"
     d="M 12.499891,34.024096 L 12.499891,40.533165 C 12.499891,42.722469 17.651928,44.499294 23.999976,44.499292 C 30.348022,44.499292 35.500059,42.722469 35.500059,40.533165 L 35.500059,34.024096 C 29.510254,32.419133 18.505914,30.556517 12.499891,34.024096 z" />
  <path
     style="opacity:0.15;fill:none;stroke:url(#linearGradient2470);stroke-width:0.99999982;stroke-linecap:round;stroke-linejoin:round;marker:none;stroke-miterlimit:4;stroke-dasharray:none;stroke-dashoffset:0;stroke-opacity:1;visibility:visible;display:inline;overflow:visible"
     id="path2206"
     d="M 13.419897,6.6997513 C 13.419897,8.32967 13.419897,38.276938 13.419897,39.909665 C 13.419897,41.877869 18.181045,43.475251 23.999955,43.475251 C 29.818864,43.475251 34.580051,41.877869 34.580051,39.909665 C 34.580051,38.398977 34.580051,8.210442 34.580051,6.6997513 C 34.580051,5.0553429 29.815753,3.5136276 23.999955,3.5406875 C 18.184156,3.5677475 13.419897,5.0629 13.419897,6.6997513 z" />
  <path
     style="fill:url(#linearGradient2465);fill-opacity:1;fill-rule:nonzero;stroke:url(#linearGradient2467);stroke-width:0.97799993;stroke-linecap:butt;stroke-linejoin:round;marker:none;marker-start:none;marker-mid:none;marker-end:none;stroke-miterlimit:10;stroke-dasharray:none;stroke-dashoffset:0;stroke-opacity:1;visibility:visible;display:block;overflow:visible"
     id="path2675"
     d="M 35.510999,34.024096 C 35.510999,35.963168 30.357349,37.535096 23.999999,37.535096 C 17.642649,37.535096 12.489,35.963168 12.489,34.024096 C 12.489,32.085025 17.642649,30.513096 23.999999,30.513096 C 30.357349,30.513096 35.510999,32.085025 35.510999,34.024096 L 35.510999,34.024096 z" />
  <path
     style="opacity:0.2;fill:url(#linearGradient2462);fill-opacity:1;fill-rule:nonzero;stroke:none;stroke-width:1;marker:none;visibility:visible;display:inline;overflow:visible"
     id="rect3244"
     d="M 15.854257,10.176485 L 20.645845,11.044943 L 20.645845,44.253296 L 15.854257,43.143505 L 15.854257,10.176485 L 15.854257,10.176485 z" />
  <path
     style="fill:url(#linearGradient2457);fill-opacity:1;fill-rule:nonzero;stroke:url(#linearGradient2459);stroke-width:0.98388964;stroke-linecap:round;stroke-linejoin:round;marker:none;stroke-miterlimit:4;stroke-dasharray:none;stroke-dashoffset:0;stroke-opacity:1;visibility:visible;display:inline;overflow:visible"
     id="path3164"
     d="M 35.508537,6.4992922 C 35.508537,8.71288 30.356205,10.507347 24.000483,10.507347 C 17.644759,10.507347 12.492427,8.71288 12.492427,6.4992922 C 12.492427,4.2857044 17.644759,2.491237 24.000483,2.491237 C 30.356205,2.491237 35.508537,4.2857044 35.508537,6.4992922 L 35.508537,6.4992922 z" />
  <g
     id="g3361"
     transform="translate(0,-7.078e-4)">
    <path
       style="opacity:0.2;fill:url(#radialGradient2471);fill-opacity:1;fill-rule:nonzero;stroke:none;stroke-width:2.47287893;marker:none;visibility:visible;display:block;overflow:visible"
       id="path2560"
       d="M 30.197948,4.5095162 C 30.197948,6.2635193 27.423032,7.6854198 24,7.6854198 C 20.576967,7.6854198 17.802051,6.2635193 17.802051,4.5095162 C 17.802051,2.7555131 20.576967,1.3336126 24,1.3336126 C 27.423032,1.3336126 30.197948,2.7555131 30.197948,4.5095162 L 30.197948,4.5095162 z" />
    <path
       style="fill:url(#linearGradient2473);fill-opacity:1;stroke:url(#linearGradient2475);stroke-width:0.99999988;stroke-miterlimit:4;stroke-dasharray:none;stroke-opacity:1"
       id="path3878"
       d="M 28.393743,5.9019405 C 28.393743,6.7840697 26.387893,7.4999997 23.916405,7.4999997 C 21.444913,7.4999997 19.439064,6.7840697 19.439064,5.9019405 C 19.439064,1.6023697 18.891811,0.71826195 23.916405,0.68499455 C 29.056071,0.65065855 28.393743,1.4725892 28.393743,5.9019405 z" />
    <path
       style="fill:url(#linearGradient2477);fill-opacity:1;stroke:url(#linearGradient2479);stroke-width:0.9999997;stroke-miterlimit:4;stroke-dasharray:none;stroke-opacity:1"
       id="path3880"
       d="M 28.441368,1.9999981 C 28.441368,2.8284255 26.426648,3.4999993 23.941368,3.4999993 C 21.456086,3.4999993 19.441367,2.8284255 19.441367,1.9999981 C 19.441367,1.1715728 21.456086,0.49999885 23.941368,0.49999885 C 26.426648,0.49999885 28.441368,1.1715728 28.441368,1.9999981 L 28.441368,1.9999981 z" />
  </g>
  <g
     style="opacity:0.4"
     id="g4267"
     transform="translate(-9.5329885,4.4575958)">
    <path
       style="font-size:62.4582634px;font-style:normal;font-variant:normal;font-weight:normal;font-stretch:normal;text-align:start;line-height:125%;writing-mode:lr-tb;text-anchor:start;opacity:1;fill:#ffffff;fill-opacity:1;stroke:none;stroke-width:0.5;stroke-linecap:round;stroke-linejoin:round;stroke-miterlimit:4;stroke-dasharray:none;stroke-opacity:1;font-family:Georgia"
       id="text2315"
       d="M 31.157249,11.925972 C 31.720234,17.425297 32.365105,22.886774 32.84435,28.407639 C 33.326378,28.407639 33.891741,28.407639 34.373769,28.407639 C 34.771289,23.105857 35.412466,17.836112 35.87499,12.540903 C 36.110762,11.287072 35.467006,9.798383 34.142991,9.493758 C 32.834663,9.111243 31.372937,10.058472 31.198968,11.411513 C 31.170116,11.581365 31.157244,11.753751 31.15725,11.925972 L 31.157249,11.925972 z M 30.990393,34.038103 C 30.93086,35.675042 32.732025,36.95824 34.269871,36.439267 C 35.759384,36.05912 36.543934,34.186978 35.780555,32.856209 C 35.0972,31.480567 33.093299,31.027318 31.940548,32.080154 C 31.357854,32.558876 30.971635,33.273543 30.990394,34.038104 L 30.990393,34.038103 z" />
    <path
       style="font-size:62.4582634px;font-style:normal;font-variant:normal;font-weight:normal;font-stretch:normal;text-align:start;line-height:125%;writing-mode:lr-tb;text-anchor:start;opacity:1;fill:#000000;fill-opacity:1;stroke:none;stroke-width:0.5;stroke-linecap:round;stroke-linejoin:round;stroke-miterlimit:4;stroke-dasharray:none;stroke-opacity:1;font-family:Georgia"
       id="path3295"
       d="M 31.157249,11.007855 C 31.720234,16.50718 32.365105,21.968657 32.84435,27.489522 C 33.326378,27.489522 33.891741,27.489522 34.373769,27.489522 C 34.771289,22.18774 35.412466,16.917995 35.87499,11.622786 C 36.110762,10.368955 35.467006,8.8802658 34.142991,8.5756408 C 32.834663,8.1931258 31.372937,9.1403548 31.198968,10.493396 C 31.170116,10.663248 31.157244,10.835634 31.15725,11.007855 L 31.157249,11.007855 z M 30.990393,33.119985 C 30.93086,34.756924 32.732025,36.040122 34.269871,35.521149 C 35.759384,35.141002 36.543934,33.26886 35.780555,31.938091 C 35.0972,30.562449 33.093299,30.1092 31.940548,31.162036 C 31.357854,31.640758 30.971635,32.355425 30.990394,33.119986 L 30.990393,33.119985 z" />
  </g>
</svg>
