<?xml version="1.0" encoding="UTF-8" standalone="no"?>
<!-- Created with Inkscape (http://www.inkscape.org/) -->

<svg
   xmlns:svg="http://www.w3.org/2000/svg"
   xmlns="http://www.w3.org/2000/svg"
   xmlns:xlink="http://www.w3.org/1999/xlink"
   version="1.0"
   width="24"
   height="24"
   id="svg2">
  <defs
     id="defs4">
    <linearGradient
       id="linearGradient6451">
      <stop
         id="stop6453"
         style="stop-color:#eeeeec;stop-opacity:1"
         offset="0" />
      <stop
         id="stop6455"
         style="stop-color:white;stop-opacity:1"
         offset="1" />
    </linearGradient>
    <linearGradient
       id="linearGradient4222">
      <stop
         id="stop4224"
         style="stop-color:white;stop-opacity:1"
         offset="0" />
      <stop
         id="stop4226"
         style="stop-color:white;stop-opacity:0"
         offset="1" />
    </linearGradient>
    <linearGradient
       x1="13.471772"
       y1="25.410501"
       x2="57.726395"
       y2="25.410501"
       id="linearGradient2509"
       xlink:href="#linearGradient4222"
       gradientUnits="userSpaceOnUse"
       gradientTransform="matrix(0,0.3704967,-0.3617496,0,17.508315,-1.3320539)" />
    <linearGradient
       id="linearGradient4168">
      <stop
         id="stop4170"
         style="stop-color:#f8cd70;stop-opacity:1"
         offset="0" />
      <stop
         id="stop4172"
         style="stop-color:#cc9110;stop-opacity:1"
         offset="1" />
    </linearGradient>
    <linearGradient
       x1="28.314739"
       y1="20.709501"
       x2="0.81572169"
       y2="20.709501"
       id="linearGradient2512"
       xlink:href="#linearGradient4168"
       gradientUnits="userSpaceOnUse"
       gradientTransform="matrix(0,-0.319447,-0.313352,0,15.486281,15.08587)" />
    <linearGradient
       id="linearGradient5105-262-943-861">
      <stop
         id="stop2487"
         style="stop-color:#0d0d0d;stop-opacity:1"
         offset="0" />
      <stop
         id="stop2489"
         style="stop-color:#0d0d0d;stop-opacity:0"
         offset="1" />
    </linearGradient>
    <radialGradient
       cx="11.25"
       cy="19.03125"
       r="8.0625"
       fx="11.25"
       fy="19.03125"
       id="radialGradient2502"
       xlink:href="#linearGradient5105-262-943-861"
       gradientUnits="userSpaceOnUse"
       gradientTransform="matrix(1,0,0,0.282946,0,13.64644)" />
    <linearGradient
       x1="21.478369"
       y1="1.6845057"
       x2="21.478369"
       y2="6.5747066"
       id="linearGradient2885"
       xlink:href="#linearGradient6451"
       gradientUnits="userSpaceOnUse"
       gradientTransform="matrix(0.4764428,0,0,0.4057711,0.327151,0.2682588)" />
    <linearGradient
       id="linearGradient4071">
      <stop
         id="stop4073"
         style="stop-color:#f5f5f5;stop-opacity:1"
         offset="0" />
      <stop
         id="stop4075"
         style="stop-color:#e7e7e7;stop-opacity:1"
         offset="0.27077749" />
      <stop
         id="stop4077"
         style="stop-color:#8c8c8c;stop-opacity:1"
         offset="0.69348532" />
      <stop
         id="stop4079"
         style="stop-color:#ddd;stop-opacity:1"
         offset="0.83542866" />
      <stop
         id="stop4081"
         style="stop-color:#a8a8a8;stop-opacity:1"
         offset="1" />
    </linearGradient>
    <linearGradient
       id="linearGradient7609-6">
      <stop
         id="stop7611-3"
         style="stop-color:white;stop-opacity:1"
         offset="0" />
      <stop
         id="stop7677-2"
         style="stop-color:#e7e7e7;stop-opacity:1"
         offset="0.47025558" />
      <stop
         id="stop7613-4"
         style="stop-color:#8c8c8c;stop-opacity:1"
         offset="0.67183787" />
      <stop
         id="stop7617-3"
         style="stop-color:#ddd;stop-opacity:1"
         offset="0.83542866" />
      <stop
         id="stop7615-6"
         style="stop-color:#a8a8a8;stop-opacity:1"
         offset="1" />
    </linearGradient>
    <linearGradient
       id="linearGradient4236-0">
      <stop
         id="stop4238-4"
         style="stop-color:#eee;stop-opacity:1"
         offset="0" />
      <stop
         id="stop4240-3"
         style="stop-color:#eee;stop-opacity:0"
         offset="1" />
    </linearGradient>
    <linearGradient
       id="linearGradient6309">
      <stop
         id="stop6311"
         style="stop-color:black;stop-opacity:1"
         offset="0" />
      <stop
         id="stop6313"
         style="stop-color:#bbb;stop-opacity:0"
         offset="1" />
    </linearGradient>
    <radialGradient
       cx="113.0654"
       cy="97.587898"
       r="2.5631001"
       fx="113.667"
       fy="98"
       id="radialGradient4241"
       gradientUnits="userSpaceOnUse">
      <stop
         id="stop4243"
         style="stop-color:#eee;stop-opacity:1"
         offset="0" />
      <stop
         id="stop4245"
         style="stop-color:#cecece;stop-opacity:1"
         offset="0.16" />
      <stop
         id="stop4247"
         style="stop-color:#888;stop-opacity:1"
         offset="0.4675" />
      <stop
         id="stop4249"
         style="stop-color:#555;stop-opacity:1"
         offset="1" />
    </radialGradient>
    <linearGradient
       id="linearGradient4035">
      <stop
         id="stop4037"
         style="stop-color:#f5f5f5;stop-opacity:1"
         offset="0" />
      <stop
         id="stop4039"
         style="stop-color:#e7e7e7;stop-opacity:1"
         offset="0.47025558" />
      <stop
         id="stop4041"
         style="stop-color:#8c8c8c;stop-opacity:1"
         offset="0.69348532" />
      <stop
         id="stop4043"
         style="stop-color:#ddd;stop-opacity:1"
         offset="0.83542866" />
      <stop
         id="stop4045"
         style="stop-color:#a8a8a8;stop-opacity:1"
         offset="1" />
    </linearGradient>
    <linearGradient
       id="linearGradient2215-9">
      <stop
         id="stop2223-6"
         style="stop-color:#7a7a7a;stop-opacity:1"
         offset="0" />
      <stop
         id="stop2219-1"
         style="stop-color:#474747;stop-opacity:1"
         offset="1" />
    </linearGradient>
    <linearGradient
       id="linearGradient7056-0">
      <stop
         id="stop7064-4"
         style="stop-color:#e6e6e6;stop-opacity:1"
         offset="0" />
      <stop
         id="stop7060-2"
         style="stop-color:#c8c8c8;stop-opacity:1"
         offset="1" />
    </linearGradient>
    <linearGradient
       id="linearGradient3484-2">
      <stop
         id="stop3486-2"
         style="stop-color:#969696;stop-opacity:1"
         offset="0" />
      <stop
         id="stop3488-0"
         style="stop-color:#b4b4b4;stop-opacity:1"
         offset="1" />
    </linearGradient>
    <linearGradient
       id="linearGradient6310-8">
      <stop
         id="stop6312-6"
         style="stop-color:white;stop-opacity:1"
         offset="0" />
      <stop
         id="stop6314-6"
         style="stop-color:white;stop-opacity:0"
         offset="1" />
    </linearGradient>
    <linearGradient
       id="linearGradient5105-262-943-861-0">
      <stop
         id="stop2487-3"
         style="stop-color:#0d0d0d;stop-opacity:1"
         offset="0" />
      <stop
         id="stop2489-4"
         style="stop-color:#0d0d0d;stop-opacity:0"
         offset="1" />
    </linearGradient>
    <linearGradient
       id="linearGradient5048">
      <stop
         id="stop5050"
         style="stop-color:black;stop-opacity:0"
         offset="0" />
      <stop
         id="stop5056"
         style="stop-color:black;stop-opacity:1"
         offset="0.5" />
      <stop
         id="stop5052"
         style="stop-color:black;stop-opacity:0"
         offset="1" />
    </linearGradient>
    <linearGradient
       id="linearGradient5060">
      <stop
         id="stop5062"
         style="stop-color:black;stop-opacity:1"
         offset="0" />
      <stop
         id="stop5064"
         style="stop-color:black;stop-opacity:0"
         offset="1" />
    </linearGradient>
    <radialGradient
       cx="11.25"
       cy="19.03125"
       r="8.0625"
       fx="11.25"
       fy="19.03125"
       id="radialGradient3749"
       xlink:href="#linearGradient5105-262-943-861-0"
       gradientUnits="userSpaceOnUse"
       gradientTransform="matrix(0.9922481,0,0,0.27286877,0.858177,7.6069708)" />
    <radialGradient
       cx="127.31733"
       cy="143.82751"
       r="78.728165"
       fx="127.31733"
       fy="143.82751"
       id="radialGradient3758"
       xlink:href="#linearGradient4071"
       gradientUnits="userSpaceOnUse"
       gradientTransform="matrix(0.08223951,-0.01555006,0.00675353,0.03972424,-2.392305,2.9309716)" />
    <radialGradient
       cx="142.62215"
       cy="191.85428"
       r="78.728165"
       fx="142.62215"
       fy="191.85428"
       id="radialGradient3761"
       xlink:href="#linearGradient7609-6"
       gradientUnits="userSpaceOnUse"
       gradientTransform="matrix(0.09247617,0,0,-0.08716212,-1.534498,25.365575)" />
    <radialGradient
       cx="141.74666"
       cy="206.42612"
       r="78.728165"
       fx="141.74666"
       fy="206.42612"
       id="radialGradient3764"
       xlink:href="#linearGradient4035"
       gradientUnits="userSpaceOnUse"
       gradientTransform="matrix(0.1619016,-0.00251223,0.00119824,0.1445464,-11.46886,-13.258772)" />
    <radialGradient
       cx="24"
       cy="42"
       r="21"
       fx="24"
       fy="42"
       id="radialGradient3773"
       xlink:href="#linearGradient6310-8"
       gradientUnits="userSpaceOnUse"
       gradientTransform="matrix(0.47619045,0,1.3244105e-8,0.21428567,0.592515,11.500002)" />
    <radialGradient
       cx="6.4480009"
       cy="2.8888872"
       r="11"
       fx="6.4480009"
       fy="2.8888872"
       id="radialGradient3777"
       xlink:href="#linearGradient7056-0"
       gradientUnits="userSpaceOnUse"
       gradientTransform="matrix(1.4589405,0.00462848,-0.00359552,0.88234981,-1.927775,4.0094013)" />
    <linearGradient
       x1="12.000001"
       y1="13.49895"
       x2="10.477679"
       y2="7.0147676"
       id="linearGradient3779"
       xlink:href="#linearGradient3484-2"
       gradientUnits="userSpaceOnUse"
       gradientTransform="matrix(0.9032258,0,0,1.224695,1.182376,-5.5320955)" />
    <linearGradient
       x1="12.277412"
       y1="37.205811"
       x2="12.221823"
       y2="33.758667"
       id="linearGradient3782"
       xlink:href="#linearGradient4236-0"
       gradientUnits="userSpaceOnUse"
       gradientTransform="matrix(0.73758861,0,0,0.53932582,-1.774881,2.186959)" />
    <linearGradient
       x1="7.0625"
       y1="35.28125"
       x2="24.6875"
       y2="35.28125"
       id="linearGradient3785"
       xlink:href="#linearGradient6309"
       gradientUnits="userSpaceOnUse"
       gradientTransform="matrix(0.73758861,0,0,0.53932582,-1.188135,1.4719095)" />
    <linearGradient
       x1="53.99139"
       y1="87.89592"
       x2="53.99139"
       y2="104.28131"
       id="linearGradient3788"
       xlink:href="#linearGradient2215-9"
       gradientUnits="userSpaceOnUse"
       gradientTransform="matrix(0.173898,0,0,0.2485308,1.147468,-3.4876633)" />
    <radialGradient
       cx="605.71429"
       cy="486.64789"
       r="117.14286"
       fx="605.71429"
       fy="486.64789"
       id="radialGradient3791"
       xlink:href="#linearGradient5060"
       gradientUnits="userSpaceOnUse"
       gradientTransform="matrix(-0.02218262,0,0,0.01085997,16.280237,17.380799)" />
    <radialGradient
       cx="605.71429"
       cy="486.64789"
       r="117.14286"
       fx="605.71429"
       fy="486.64789"
       id="radialGradient3794"
       xlink:href="#linearGradient5060"
       gradientUnits="userSpaceOnUse"
       gradientTransform="matrix(0.02218262,0,0,0.01085997,7.761704,17.380799)" />
    <linearGradient
       x1="302.85715"
       y1="366.64789"
       x2="302.85715"
       y2="609.50507"
       id="linearGradient3797"
       xlink:href="#linearGradient5048"
       gradientUnits="userSpaceOnUse"
       gradientTransform="matrix(0.03776775,0,0,0.01085997,-1.629373,17.380799)" />
    <radialGradient
       cx="113.0654"
       cy="97.587898"
       r="2.5631001"
       fx="113.667"
       fy="98"
       id="radialGradient3799"
       xlink:href="#radialGradient4241"
       gradientUnits="userSpaceOnUse"
       gradientTransform="matrix(2.4956521,0,0,2.4956521,-223.97574,-53.226089)" />
    <radialGradient
       cx="113.0654"
       cy="97.587898"
       r="2.5631001"
       fx="113.667"
       fy="98"
       id="radialGradient3801"
       xlink:href="#radialGradient4241"
       gradientUnits="userSpaceOnUse"
       gradientTransform="matrix(2.4956521,0,0,2.4956521,-223.97574,-53.226089)" />
  </defs>
  <rect
     width="18.236429"
     height="2.6374204"
     x="2.9027448"
     y="21.362579"
     id="rect2723"
     style="opacity:0.40206185;fill:url(#linearGradient3797);fill-opacity:1;fill-rule:nonzero;stroke:none;stroke-width:1;marker:none;visibility:visible;display:inline;overflow:visible" />
  <path
     d="m 21.130289,21.362672 c 0,0 0,2.637274 0,2.637274 1.142348,0.005 2.761647,-0.59088 2.761647,-1.318806 0,-0.727927 -1.274774,-1.318468 -2.761647,-1.318468 z"
     id="path2725"
     style="opacity:0.40206185;fill:url(#radialGradient3794);fill-opacity:1;fill-rule:nonzero;stroke:none;stroke-width:1;marker:none;visibility:visible;display:inline;overflow:visible" />
  <path
     d="m 2.911647,21.362672 c 0,0 0,2.637274 0,2.637274 C 1.769294,24.004946 0.15,23.409066 0.15,22.68114 c 0,-0.727927 1.274779,-1.318468 2.761647,-1.318468 z"
     id="path2727"
     style="opacity:0.40206185;fill:url(#radialGradient3791);fill-opacity:1;fill-rule:nonzero;stroke:none;stroke-width:1;marker:none;visibility:visible;display:inline;overflow:visible" />
  <path
     d="m 22.517214,18.499998 c -0.425832,3.380051 -0.316947,3.978566 -1.088034,3.978566 -0.302022,0.04823 -12.177645,0 -18.858232,0 -0.837388,0 -0.625806,0.06576 -1.049857,-3.978566 l 20.996123,0 z"
     id="rect2992"
     style="fill:url(#linearGradient3788);fill-opacity:1;fill-rule:nonzero;stroke:#353537;stroke-width:1;stroke-linecap:butt;stroke-linejoin:round;stroke-miterlimit:4;stroke-opacity:1;stroke-dasharray:none;stroke-dashoffset:0;marker:none;visibility:visible;display:inline;overflow:visible;enable-background:accumulate" />
  <path
     d="m 3.721086,19 13.3,0 0,3 -12.999999,0 -0.300001,-3 z"
     id="rect9146"
     style="fill:url(#linearGradient3785);fill-opacity:1;fill-rule:evenodd;stroke:none;stroke-width:2.40899992;marker:none;visibility:visible;display:inline;overflow:visible" />
  <path
     d="m 4.021086,21.999998 c 0,0 -0.2,-2.163497 -0.2,-2.163497 1.353864,1.714639 6.319397,2.163497 9.742551,2.163497 0,0 -9.542551,0 -9.542551,0 z"
     id="path9148"
     style="opacity:0.81142853;fill:url(#linearGradient3782);fill-opacity:1;fill-rule:evenodd;stroke:none" />
  <path
     d="M 3.521086,4.8235552 1.541735,18.486087 c -0.01365,0 -0.02065,0.0041 -0.02065,0.01394 l 21.000001,0 c 0,-0.01023 -0.007,-0.01394 -0.02065,-0.01394 L 20.521086,4.8235552 c -0.08966,-0.6188796 -0.792893,-1.3235248 -1.5,-1.3235248 l -14,0 c -0.707107,0 -1.41034,0.7046452 -1.5,1.3235248 z"
     id="rect2990"
     style="fill:url(#radialGradient3777);fill-opacity:1;fill-rule:nonzero;stroke:url(#linearGradient3779);stroke-width:0.99999982;stroke-linecap:round;stroke-linejoin:round;stroke-miterlimit:4;stroke-opacity:1;stroke-dasharray:none;stroke-dashoffset:0;marker:none;visibility:visible;display:inline;overflow:visible;enable-background:accumulate" />
  <path
     d="m 2.433265,18.499997 19.175644,0"
     id="path2215"
     style="opacity:0.6;fill:none;stroke:white;stroke-width:0.99999994;stroke-linecap:round;stroke-linejoin:round;stroke-miterlimit:4;stroke-opacity:1;stroke-dasharray:none;display:inline" />
  <rect
     width="20"
     height="3"
     x="2.0210865"
     y="18.999998"
     id="rect6300-3"
     style="opacity:0.2;fill:url(#radialGradient3773);fill-opacity:1;stroke:none" />
  <path
     d="m 14.227359,4.6999986 c -0.241346,0 -0.456343,0.064534 -0.625137,0.1749998 -0.168795,0.1104646 -0.291755,0.2801308 -0.29898,0.4749997 -0.0223,0.5997567 -0.354998,1.0314249 -0.978477,1.4250007 -0.618415,0.3903794 -1.526147,0.7198861 -2.609271,1.0249997 -0.0089,0.0025 -0.01828,-0.0025 -0.02718,0 C 9.278662,7.8791215 8.605508,8.1008645 7.948799,8.3249994 7.282813,8.5522997 6.674809,8.77148 6.399544,8.9499993 5.009787,9.7543229 4.152988,10.823339 4.034891,11.999996 c -0.107534,1.071307 0.416952,2.143558 1.440536,3 1.497423,1.252958 3.944624,2.000002 6.550359,2.000002 2.605743,0 5.052763,-0.74706 6.55036,-2.000002 0.934954,-0.782128 1.440535,-1.72404 1.440535,-2.699999 0,-0.07957 0.0099,-0.19382 0,-0.300001 C 19.913041,10.96708 19.220093,10.013312 18.114087,9.2499987 18.083117,8.8465047 17.815108,5.3499981 17.815108,5.3499981 17.800078,5.1550525 17.662002,4.9842403 17.488949,4.8749984 17.315897,4.7657572 17.10441,4.6999986 16.863811,4.6999986 l -2.636452,0 z m 0,0.4249997 2.636452,0 c 0.05848,0 0.109564,0.014727 0.1359,0.025 l 0.326159,4.0999998 a 0.1630958,0.15001504 0 0 0 0,0.05 0.1630958,0.15001504 0 0 0 0.02718,0.025002 0.1630958,0.15001504 0 0 0 0.05437,0.049998 c 1.071545,0.6742639 1.703857,1.7017979 1.793874,2.6000009 0.112088,1.116095 -0.608183,2.038868 -1.902594,2.725 -1.294421,0.686129 -3.153525,1.099996 -5.272914,1.099996 C 9.906402,15.799996 8.047273,15.386129 6.752883,14.7 5.458493,14.013865 4.738285,13.091103 4.850289,11.975001 4.946719,11.01455 5.68145,9.9458397 6.888782,9.2499981 a 0.1630958,0.15001504 0 0 0 0.02718,-0.025 c 0.004,-0.00324 0.05973,-0.038095 0.1359,-0.074998 0.07616,-0.036906 0.181043,-0.076062 0.298979,-0.1250014 0.235872,-0.097878 0.522704,-0.2115048 0.842577,-0.325 C 8.833166,8.4730083 9.557525,8.2601194 9.905753,8.1999985 a 0.1630958,0.15001504 0 0 0 0.02718,0 c 1.051811,-0.2945647 2.050948,-0.6452781 2.826711,-1.1249996 0.760038,-0.4699977 1.30753,-1.095183 1.358995,-1.9250001 0.01764,-0.00783 0.05313,-0.025 0.10872,-0.025 z"
     id="path8469"
     style="fill:url(#radialGradient3764);fill-opacity:1" />
  <path
     d="m 12.020968,13.999939 c -1.682479,0 -2.972269,-0.844744 -2.999461,-1.965213 -2.11e-4,-0.01254 -4.21e-4,-0.02407 -4.21e-4,-0.03587 0,-0.405454 0.169052,-0.791054 0.490285,-1.117547 0.543397,-0.551891 1.481606,-0.881307 2.509808,-0.881307 1.028,0 1.9662,0.329416 2.509596,0.881305 0.330722,0.335673 0.500195,0.734655 0.489866,1.153266 C 14.993011,13.155054 13.703238,14 12.020968,14 l 0,-6.3e-5 z m 0.05027,-2.746046 c -1.580886,0 -2.43651,0.210145 -2.417535,0.974474 0.01833,0.752415 1.078158,1.35359 2.367316,1.35359 1.289158,0 2.348981,-0.601389 2.367314,-1.35359 0.01876,-0.76453 -0.736211,-0.974474 -2.317096,-0.974474 l 0,0 z"
     id="path9156"
     style="fill:url(#radialGradient3761);fill-opacity:1;fill-rule:nonzero;stroke-width:1;stroke-linecap:butt;stroke-linejoin:miter;stroke-miterlimit:4;stroke-opacity:1;stroke-dasharray:none;stroke-dashoffset:0;marker:none;visibility:visible;display:inline;overflow:visible;enable-background:accumulate" />
  <path
     d="m 6.026436,4.7013094 a 0.20549881,0.16631758 0 0 0 -0.128424,0.083149 0.20549881,0.16631758 0 0 0 -0.02568,0.041574 L 5.820962,4.9715485 5.127473,7.1334609 5.024734,7.4868504 a 0.20549881,0.16631758 0 0 0 0,0.062361 0.20549881,0.16631758 0 0 0 0.02569,0.062361 0.20549881,0.16631758 0 0 0 0.128424,0.083148 0.20549881,0.16631758 0 0 0 0.102739,0 l 0.333902,-0.083149 5.650652,-1.351195 0.02568,0 a 0.20549881,0.16631758 0 0 0 0.02568,0 0.20549881,0.16631758 0 0 0 0.02569,0 0.20549881,0.16631758 0 0 0 0.05137,-0.020787 c 0.378115,-0.168805 0.571405,-0.4939812 0.616435,-0.7899299 0.02306,-0.1518255 0.0069,-0.303666 -0.05137,-0.4365399 -0.03308,-0.0755 -0.103716,-0.147175 -0.17979,-0.2078762 -0.07608,-0.060704 -0.173686,-0.1071459 -0.308218,-0.1039381 l -0.02568,0 -5.239696,0 -0.128424,0 a 0.20549881,0.16631758 0 0 0 -0.05137,0 z m 0.410957,0.4573276 4.854422,0 c -0.01258,0.051738 -0.02898,0.086845 -0.05136,0.1455132 -0.04109,0.1076581 -0.119713,0.1951472 -0.102744,0.1870889 L 6.000752,6.6969209 6.437393,5.158637 z"
     id="path8473"
     style="fill:url(#radialGradient3758);fill-opacity:1;fill-rule:nonzero;stroke:none;stroke-width:1;marker:none;visibility:visible;display:inline;overflow:visible;enable-background:accumulate" />
  <g
     transform="matrix(-0.09781119,0,0,0.1076727,9.283297,-3.8182524)"
     id="g9158">
    <path
       d="m 48.2999,190.27968 c 0.31446,4.2476 5.02375,7.71156 10.51419,7.71156 5.48794,0 9.6432,-3.46396 9.27634,-7.71156 -0.36437,-4.22514 -5.07117,-7.6367 -10.5067,-7.6367 -5.43803,0.002 -9.59329,3.41156 -9.28383,7.6367 z"
       id="path9160"
       style="fill:#e6e6e6;fill-opacity:1" />
    <path
       d="m 51.85122,187.29238 c -0.50163,0.53906 -1.07563,1.40256 -1.07563,2.55056 0,0.0824 0.005,0.16471 0.01,0.25206 0.21713,2.9274 3.89322,5.40059 8.02602,5.40059 2.3534,0 4.50465,-0.81109 5.75248,-2.17371 0.53656,-0.58149 1.148,-1.54481 1.03819,-2.82758 -0.25206,-2.90244 -3.92316,-5.35567 -8.02103,-5.35567 -2.33593,0.002 -4.47969,0.8061 -5.73001,2.15375 l -2e-5,0 z"
       id="path9162"
       style="fill:url(#radialGradient3801);fill-opacity:1" />
  </g>
  <g
     transform="matrix(0.09781119,0,0,0.1076727,14.798402,-3.8182524)"
     id="g9190">
    <path
       d="m 48.2999,190.27968 c 0.31446,4.2476 5.02375,7.71156 10.51419,7.71156 5.48794,0 9.6432,-3.46396 9.27634,-7.71156 -0.36437,-4.22514 -5.07117,-7.6367 -10.5067,-7.6367 -5.43803,0.002 -9.59329,3.41156 -9.28383,7.6367 z"
       id="path9192"
       style="fill:#e6e6e6;fill-opacity:1" />
    <path
       d="m 51.85122,187.29238 c -0.50163,0.53906 -1.07563,1.40256 -1.07563,2.55056 0,0.0824 0.005,0.16471 0.01,0.25206 0.21713,2.9274 3.89322,5.40059 8.02602,5.40059 2.3534,0 4.50465,-0.81109 5.75248,-2.17371 0.53656,-0.58149 1.148,-1.54481 1.03819,-2.82758 -0.25206,-2.90244 -3.92316,-5.35567 -8.02103,-5.35567 -2.33593,0.002 -4.47969,0.8061 -5.73001,2.15375 l -2e-5,0 z"
       id="path9194"
       style="fill:url(#radialGradient3799);fill-opacity:1" />
  </g>
  <path
     d="m 20.020968,12.799999 c 0,1.215027 -3.581722,2.200001 -8,2.200001 -4.418278,0 -8,-0.984974 -8,-2.200001 0,-1.215028 3.581722,-2.200002 8,-2.200002 4.418278,0 8,0.984974 8,2.200002 l 0,0 z"
     id="path4346-9"
     style="opacity:0.16292138;fill:url(#radialGradient3749);fill-opacity:1;fill-rule:nonzero;stroke:none;stroke-width:1;marker:none;visibility:visible;display:inline;overflow:visible" />
  <g
     transform="translate(4.0000004,-0.9999998)"
     id="g2509">
    <path
       d="m 19.3125,19.03125 c 0,1.2599 -3.609704,2.28125 -8.0625,2.28125 -4.4527959,0 -8.0625001,-1.02135 -8.0625,-2.28125 -10e-8,-1.2599 3.6097041,-2.28125 8.0625,-2.28125 4.452796,0 8.0625,1.02135 8.0625,2.28125 l 0,0 z"
       transform="matrix(0.9922481,0,0,0.9643846,-3.1627915,-4.5534466)"
       id="path4346"
       style="opacity:0.16292138;fill:url(#radialGradient2502);fill-opacity:1;fill-rule:nonzero;stroke:none;stroke-width:1;marker:none;visibility:visible;display:inline;overflow:visible" />
    <path
       d="M 14.176046,7.5 7.9844847,14.500853 1.8239536,7.5 4.5,7.5 l 0,-6.000853 7,0 0,6.000853 2.676046,0 z"
       id="path3288"
       style="fill:url(#linearGradient2512);fill-opacity:1;fill-rule:nonzero;stroke:#bf8407;stroke-width:0.99829447;stroke-linecap:round;stroke-linejoin:round;stroke-miterlimit:4;stroke-opacity:1;stroke-dasharray:none;stroke-dashoffset:0;marker:none;visibility:visible;display:inline;overflow:visible" />
    <path
       d="M 11.926403,8.5 8,13.045115 3.9630618,8.5 5.5,8.5 l 0,-6 5,0 0,6 1.426403,0 z"
       id="path3290"
       style="opacity:0.35400008;fill:none;stroke:url(#linearGradient2509);stroke-width:0.99829447;stroke-linecap:butt;stroke-linejoin:miter;stroke-miterlimit:4;stroke-opacity:1;stroke-dasharray:none;stroke-dashoffset:0;marker:none;visibility:visible;display:inline;overflow:visible" />
  </g>
  <rect
     width="19.057711"
     height="4.0577111"
     rx="1.0141573"
     ry="0.86372536"
     x="2.4711442"
     y="0.47114444"
     id="rect5480"
     style="fill:url(#linearGradient2885);fill-opacity:1;stroke:#bf8407;stroke-width:0.94228888;stroke-linecap:butt;stroke-linejoin:miter;stroke-miterlimit:4;stroke-opacity:1;stroke-dasharray:none;stroke-dashoffset:0;display:inline" />
  <rect
     width="6.6839838"
     height="2.2258389"
     x="3.6450219"
     y="1.3402674"
     id="rect6467"
     style="fill:#d3d7cf;fill-opacity:1;stroke:none;display:inline" />
  <rect
     width="1"
     height="3"
     x="11.000001"
     y="1"
     id="rect6469"
     style="fill:#999;fill-opacity:1;stroke:none;display:inline" />
</svg>
