<?xml version="1.0" encoding="UTF-8" standalone="no"?>
<!-- Created with Inkscape (http://www.inkscape.org/) -->

<svg
   xmlns:svg="http://www.w3.org/2000/svg"
   xmlns="http://www.w3.org/2000/svg"
   xmlns:xlink="http://www.w3.org/1999/xlink"
   version="1.0"
   width="24"
   height="24"
   id="svg2">
  <defs
     id="defs4">
    <radialGradient
       cx="605.71429"
       cy="486.64789"
       r="117.14286"
       fx="605.71429"
       fy="486.64789"
       id="radialGradient10239"
       xlink:href="#linearGradient5060"
       gradientUnits="userSpaceOnUse"
       gradientTransform="matrix(-2.774389,0,0,1.969706,112.7623,-872.8854)" />
    <linearGradient
       id="linearGradient5060">
      <stop
         id="stop5062"
         style="stop-color:black;stop-opacity:1"
         offset="0" />
      <stop
         id="stop5064"
         style="stop-color:black;stop-opacity:0"
         offset="1" />
    </linearGradient>
    <radialGradient
       cx="605.71429"
       cy="486.64789"
       r="117.14286"
       fx="605.71429"
       fy="486.64789"
       id="radialGradient10237"
       xlink:href="#linearGradient5060"
       gradientUnits="userSpaceOnUse"
       gradientTransform="matrix(2.774389,0,0,1.969706,-1891.633,-872.8854)" />
    <linearGradient
       id="linearGradient5048">
      <stop
         id="stop5050"
         style="stop-color:black;stop-opacity:0"
         offset="0" />
      <stop
         id="stop5056"
         style="stop-color:black;stop-opacity:1"
         offset="0.5" />
      <stop
         id="stop5052"
         style="stop-color:black;stop-opacity:0"
         offset="1" />
    </linearGradient>
    <linearGradient
       x1="302.85715"
       y1="366.64789"
       x2="302.85715"
       y2="609.50507"
       id="linearGradient10235"
       xlink:href="#linearGradient5048"
       gradientUnits="userSpaceOnUse"
       gradientTransform="matrix(2.774389,0,0,1.969706,-1892.179,-872.8854)" />
    <radialGradient
       cx="12.5"
       cy="15.927882"
       r="18.5"
       fx="12.5"
       fy="15.927882"
       id="radialGradient3797"
       xlink:href="#linearGradient6945"
       gradientUnits="userSpaceOnUse"
       gradientTransform="matrix(1.0627115,0,0,0.9079494,-8.6172278,-5.7767118)" />
    <linearGradient
       id="linearGradient6945">
      <stop
         id="stop6947"
         style="stop-color:white;stop-opacity:1"
         offset="0" />
      <stop
         id="stop6949"
         style="stop-color:#d3d7cf;stop-opacity:1"
         offset="1" />
    </linearGradient>
    <radialGradient
       cx="13.107393"
       cy="61.48016"
       r="18.5"
       fx="13.107393"
       fy="61.48016"
       id="radialGradient3803"
       xlink:href="#linearGradient6945"
       gradientUnits="userSpaceOnUse"
       gradientTransform="matrix(2.6083242,0,0,2.218814,-74.941381,-118.61799)" />
    <linearGradient
       id="linearGradient6934">
      <stop
         id="stop6936"
         style="stop-color:#babdb6;stop-opacity:1"
         offset="0" />
      <stop
         id="stop6938"
         style="stop-color:#babdb6;stop-opacity:0"
         offset="1" />
    </linearGradient>
    <linearGradient
       x1="14.125"
       y1="79.81311"
       x2="14.125"
       y2="75.499176"
       id="linearGradient3785"
       xlink:href="#linearGradient6934"
       gradientUnits="userSpaceOnUse"
       gradientTransform="matrix(0.5277777,0,0,0.52,-1.4027775,-22.84)" />
    <linearGradient
       id="linearGradient2091">
      <stop
         id="stop2093"
         style="stop-color:black;stop-opacity:1"
         offset="0" />
      <stop
         id="stop2095"
         style="stop-color:black;stop-opacity:0"
         offset="1" />
    </linearGradient>
    <radialGradient
       cx="23.070683"
       cy="35.127438"
       r="10.31934"
       fx="23.070683"
       fy="35.127438"
       id="radialGradient3138"
       xlink:href="#linearGradient2091"
       gradientUnits="userSpaceOnUse"
       gradientTransform="matrix(0.914812,0.01265023,-0.00821502,0.213562,2.253914,27.18889)" />
    <linearGradient
       id="linearGradient3400">
      <stop
         id="stop3402"
         style="stop-color:#b95858;stop-opacity:1"
         offset="0" />
      <stop
         id="stop3404"
         style="stop-color:#763434;stop-opacity:1"
         offset="1" />
    </linearGradient>
    <linearGradient
       x1="18.379412"
       y1="25.691217"
       x2="18.379412"
       y2="90.678307"
       id="linearGradient3811"
       xlink:href="#linearGradient3400"
       gradientUnits="userSpaceOnUse"
       gradientTransform="matrix(0.1729901,0,0,0.17299,7.1760491,6.8943884)" />
    <linearGradient
       id="linearGradient3680">
      <stop
         id="stop3682"
         style="stop-color:#e86666;stop-opacity:1"
         offset="0" />
      <stop
         id="stop3684"
         style="stop-color:#ab2a2a;stop-opacity:1"
         offset="1" />
    </linearGradient>
    <linearGradient
       x1="29.747065"
       y1="24.13962"
       x2="29.747065"
       y2="90.697327"
       id="linearGradient3809"
       xlink:href="#linearGradient3680"
       gradientUnits="userSpaceOnUse"
       gradientTransform="matrix(0.1729901,0,0,0.17299,7.1760491,6.8943884)" />
    <linearGradient
       id="linearGradient4873">
      <stop
         id="stop4875"
         style="stop-color:white;stop-opacity:1"
         offset="0" />
      <stop
         id="stop4877"
         style="stop-color:white;stop-opacity:0"
         offset="1" />
    </linearGradient>
    <linearGradient
       x1="63.397362"
       y1="-9.3832779"
       x2="63.397362"
       y2="5.9662433"
       id="linearGradient3806"
       xlink:href="#linearGradient4873"
       gradientUnits="userSpaceOnUse"
       gradientTransform="matrix(0.6860672,0,0,0.6860514,-27.173651,17.650086)" />
  </defs>
  <g
     id="layer1">
    <g
       transform="matrix(0.01132773,0,0,0.00543807,21.575396,17.347131)"
       id="g11038"
       style="opacity:0.7;display:inline">
      <rect
         width="1339.6335"
         height="478.35718"
         x="-1559.2523"
         y="-150.69685"
         id="rect11040"
         style="opacity:0.39195981;fill:url(#linearGradient10235);fill-opacity:1;fill-rule:nonzero;stroke:none;stroke-width:1;marker:none;visibility:visible;display:inline;overflow:visible" />
      <path
         d="m -219.61876,-150.68038 c 0,0 0,478.33079 0,478.33079 142.874166,0.90045 345.40022,-107.16966 345.40014,-239.196175 0,-132.026537 -159.436816,-239.134595 -345.40014,-239.134615 z"
         id="path11042"
         style="opacity:0.40206185;fill:url(#radialGradient10237);fill-opacity:1;fill-rule:nonzero;stroke:none;stroke-width:1;marker:none;visibility:visible;display:inline;overflow:visible" />
      <path
         d="m -1559.2523,-150.68038 c 0,0 0,478.33079 0,478.33079 -142.8742,0.90045 -345.4002,-107.16966 -345.4002,-239.196175 0,-132.026537 159.4368,-239.134595 345.4002,-239.134615 z"
         id="path11044"
         style="opacity:0.40206185;fill:url(#radialGradient10239);fill-opacity:1;fill-rule:nonzero;stroke:none;stroke-width:1;marker:none;visibility:visible;display:inline;overflow:visible" />
    </g>
    <rect
       width="19"
       height="13"
       rx="0.80965537"
       ry="0.79772371"
       x="1.5"
       y="5.5"
       id="rect11046"
       style="fill:url(#radialGradient3797);fill-opacity:1;fill-rule:evenodd;stroke:#888a85;stroke-width:1;stroke-linecap:butt;stroke-linejoin:miter;stroke-miterlimit:4;stroke-opacity:0.99236642;stroke-dasharray:none;stroke-dashoffset:0.69999992" />
    <path
       d="m 1.7638889,18.240001 5.3602426,-5.89875 c 0.2477247,-0.244074 0.4931292,-0.564191 1.0390625,-0.78 0.5459332,-0.215808 1.3635875,-0.34125 2.836806,-0.34125 1.467291,-10e-7 2.289739,0.125648 2.836806,0.34125 0.547065,0.215602 0.790634,0.535234 1.039062,0.78 l 5.360243,5.89875 -5.360243,-5.37875 C 13.797085,11.837062 12.491237,11.67973 11,11.740001 c -1.4096156,0.02576 -2.8839382,-1.72e-4 -3.8758685,1.12125 l -5.3602426,5.37875 z"
       id="path11050"
       style="fill:#888a85;fill-opacity:1;fill-rule:evenodd;stroke:none" />
    <path
       d="M 1.7638889,18.25118 7.1241315,13.39243 C 8.1160618,12.271009 9.5903844,12.296941 11,12.27118 c 1.491237,-0.06027 2.797085,0.09706 3.875868,1.12125 l 5.360243,4.85875 -5.360243,-5.37875 C 13.797085,11.848241 12.491237,11.690909 11,11.75118 9.5903844,11.776941 8.1160618,11.751008 7.1241315,12.87243 l -5.3602426,5.37875 z"
       id="path11052"
       style="fill:white;fill-opacity:1;fill-rule:evenodd;stroke:none" />
    <path
       d="m -42.09375,12.9375 c -0.549278,0 -0.96875,0.41947 -0.96875,0.96875 l 0,1.40625 10.875,10.875 c 0.527224,0.527225 0.810244,0.94182 1.65625,1.28125 0.846006,0.33943 2.296573,0.59375 5.03125,0.59375 2.723216,1e-6 4.181791,-0.253966 5.03125,-0.59375 0.849459,-0.339784 1.130208,-0.755208 1.65625,-1.28125 l 10.875,-10.875 0,-1.40625 c 0,-0.549278 -0.4194702,-0.96875 -0.96875,-0.96875 l -33.1875,0 z"
       transform="matrix(0.5124555,0,0,0.5289256,24.067615,-0.8429752)"
       id="path11054"
       style="fill:url(#radialGradient3803);fill-opacity:1;fill-rule:evenodd;stroke:none" />
    <path
       d="m 1.7638889,7.0600007 5.3602426,5.8987503 c 0.2477247,0.244074 0.4931292,0.564191 1.0390625,0.78 0.5459332,0.215808 1.3635875,0.34125 2.836806,0.34125 1.467291,1e-6 2.289739,-0.125648 2.836806,-0.34125 0.547065,-0.215602 0.790634,-0.535234 1.039062,-0.78 L 20.236111,7.0600007 14.875868,12.438751 C 13.797085,13.46294 12.491237,13.560271 11,13.5 9.5903844,13.474239 8.1160618,13.560173 7.1241315,12.438751 L 1.7638889,7.0600007 z"
       id="path11056"
       style="fill:#888a85;fill-opacity:0.99607843;fill-rule:evenodd;stroke:none" />
    <path
       d="M 6.90625,55.5 C 6.6497165,55.5 6.5,55.649715 6.5,55.90625 l 0,22.1875 c 0,0.256531 0.1497152,0.406249 0.40625,0.40625 l 33.1875,0 C 40.350281,78.5 40.5,78.350281 40.5,78.09375 l 0,-22.1875 C 40.5,55.649717 40.350284,55.5 40.09375,55.5 l -33.1875,0 z"
       transform="matrix(0.5,0,0,0.4782609,-0.7500001,-20.043479)"
       id="path11060"
       style="opacity:0.7;fill:none;stroke:white;stroke-width:2.04494905;stroke-linecap:butt;stroke-linejoin:round;stroke-miterlimit:4;stroke-opacity:0.99236642;stroke-dasharray:none;stroke-dashoffset:0.69999992" />
    <path
       d="m 1.7638889,16.111252 0,1.657499 c 0,0.270923 0.2033216,0.47125 0.4782986,0.47125 l 17.5156235,0 c 0.274978,0 0.4783,-0.200327 0.4783,-0.47125 l 0,-1.657499 -18.4722221,0 z"
       id="path11062"
       style="opacity:0.55597014;fill:url(#linearGradient3785);fill-opacity:1;fill-rule:evenodd;stroke:none" />
    <path
       d="m 33.278212,34.94062 a 10.31934,2.320194 0 1 1 -20.63868,0 10.31934,2.320194 0 1 1 20.63868,0 z"
       transform="matrix(0.8236961,0,0,0.7684355,-3.4111322,-4.6325308)"
       id="path2447"
       style="opacity:0.3;fill:url(#radialGradient3138);fill-opacity:1;stroke:none" />
    <path
       d="m 15.500001,8.2291351 c -3.862373,0 -7.0000251,3.1376529 -7.0000251,7.0000239 0,3.862373 3.1376521,7.000026 7.0000251,7.000024 3.862371,0 7.000027,-3.137651 7.000025,-7.000024 0,-3.862371 -3.137654,-7.0000239 -7.000025,-7.0000239 z m 0,2.2473199 c 2.625892,0 4.752704,2.126812 4.752704,4.752704 0,1.102065 -0.381847,2.10807 -1.010757,2.913989 l -6.021524,-7.086046 c 0.676536,-0.370172 1.453637,-0.580647 2.279577,-0.580647 z m -3.806466,1.913985 6.000023,7.053787 c -0.656238,0.34189 -1.402055,0.537636 -2.193557,0.537636 -2.625893,0 -4.752706,-2.126813 -4.752706,-4.752704 0,-1.066767 0.353361,-2.04582 0.94624,-2.838719 z"
       id="path2937"
       style="fill:url(#linearGradient3809);fill-opacity:1;stroke:url(#linearGradient3811);stroke-width:0.99994904;stroke-linecap:round;stroke-linejoin:round;stroke-miterlimit:4;stroke-opacity:1;stroke-dasharray:none;stroke-dashoffset:0" />
    <path
       d="m 21.5,15.241258 c 0,3.313817 -2.686488,6.000213 -5.999926,6.000213 -3.313738,0 -6.0000742,-2.686427 -6.0000742,-6.000213 0,-3.313662 2.6863362,-5.999787 6.0000742,-5.999787 3.313438,0 5.999926,2.686125 5.999926,5.999787 l 0,0 z"
       id="path8655"
       style="opacity:0.52747258;fill:none;stroke:url(#linearGradient3806);stroke-width:0.99999994;stroke-miterlimit:4;stroke-opacity:1;stroke-dasharray:none" />
  </g>
</svg>
