<?xml version="1.0" encoding="UTF-8" standalone="no"?>
<!-- Created with Inkscape (http://www.inkscape.org/) -->
<svg id="svg3273" xmlns="http://www.w3.org/2000/svg" height="24" width="24" version="1.0" xmlns:xlink="http://www.w3.org/1999/xlink">
 <defs id="defs3275">
  <radialGradient id="radialGradient2480" gradientUnits="userSpaceOnUse" cy="4.625" cx="62.625" gradientTransform="matrix(-1.0353 0 0 .42353 77.029 17.541)" r="10.625">
   <stop id="stop8840" offset="0"/>
   <stop id="stop8842" style="stop-opacity:0" offset="1"/>
  </radialGradient>
  <linearGradient id="linearGradient3258" y2="-.0023745" gradientUnits="userSpaceOnUse" x2="13.542" y1="24" x1="13.542">
   <stop id="stop3624" style="stop-color:#bb2b12" offset="0"/>
   <stop id="stop3626" style="stop-color:#cd7233" offset="1"/>
  </linearGradient>
  <linearGradient id="linearGradient2477" y2="17.943" gradientUnits="userSpaceOnUse" x2="16.597" gradientTransform="matrix(-.34464 -.34464 -.33811 .33811 27.882 14.321)" y1="4.4757" x1="20.137">
   <stop id="stop3618" style="stop-color:#f0c178" offset="0"/>
   <stop id="stop2449" style="stop-color:#e18941" offset=".5"/>
   <stop id="stop3620" style="stop-color:#ec4f18" offset="1"/>
  </linearGradient>
  <linearGradient id="linearGradient2474" y2="29.857" gradientUnits="userSpaceOnUse" x2="37.04" gradientTransform="matrix(-.50978 .030680 .030098 .50012 22.774 .50620)" y1="35.774" x1="33.687">
   <stop id="stop3269" style="stop-color:#be3918" offset="0"/>
   <stop id="stop3271" style="stop-color:#bf8407;stop-opacity:0" offset="1"/>
  </linearGradient>
  <linearGradient id="linearGradient2472" y2="26.843" gradientUnits="userSpaceOnUse" x2="34.966" gradientTransform="matrix(-.50978 .030680 .030098 .50012 22.774 .50620)" y1="34.601" x1="31.226">
   <stop id="stop3262" style="stop-color:#ec4f18" offset="0"/>
   <stop id="stop3264" style="stop-color:#cc9110;stop-opacity:0" offset="1"/>
  </linearGradient>
  <linearGradient id="linearGradient2469" y2="43.366" gradientUnits="userSpaceOnUse" x2="22.245" gradientTransform="matrix(-.34464 -.34464 -.33811 .33811 27.882 14.321)" y1="5.0201" x1="32.326">
   <stop id="stop4875" style="stop-color:#fff" offset="0"/>
   <stop id="stop4877" style="stop-color:#fff;stop-opacity:0" offset="1"/>
  </linearGradient>
  <linearGradient id="linearGradient2466" y2="28.505" gradientUnits="userSpaceOnUse" x2="39.686" gradientTransform="matrix(-.48652 .029280 .028725 .47730 22.716 1.9626)" y1="41.674" x1="28.117">
   <stop id="stop3321" style="stop-color:#fff;stop-opacity:0" offset="0"/>
   <stop id="stop3323" style="stop-color:#fff;stop-opacity:.27473" offset=".63130"/>
   <stop id="stop3325" style="stop-color:#fff;stop-opacity:0" offset="1"/>
  </linearGradient>
 </defs>
 <g id="layer1">
  <path id="path8836" style="opacity:.3;fill-rule:evenodd;fill:url(#radialGradient2480)" d="m1.1936 19.5c0 2.485 4.9248 4.5 11 4.5 6.075 0 11-2.015 11-4.5s-4.925-4.5-11-4.5c-6.0756 0-11 2.015-11 4.5h-0.0004z"/>
  <path id="path3372" style="stroke-linejoin:round;stroke:url(#linearGradient3258);stroke-width:1.0047;fill:url(#linearGradient2477)" d="m11.698 18.817c1.129 0.065 2.859-0.344 3.906-1.391 1.748-1.747 2.159-5.887 0.018-7.9622-0.867-0.8404-2.925-1.9309-4.119-1.9638l-0.013 3-6.0968-4.8093 6.0968-5.1907 0.014 2.8226c2.631 0.0481 5.122 0.9196 7.119 2.8746 4.064 3.9768 4.058 10.397 0.175 14.368-1.985 2.031-4.586 3-7.197 2.929"/>
  <path id="path3453" style="stroke:url(#linearGradient2474);stroke-width:1.0047;fill:url(#linearGradient2472)" d="m12.055 23.463c-4.7431 0.337-10.38-2.96-10.746-9.179l4.3687 0.576c0.2452 2.531 3.8792 4.316 6.0733 4.006"/>
  <path id="path3370" style="opacity:.4;stroke:url(#linearGradient2469);stroke-width:1.0047;fill:none" d="m11.692 19.966c1.446 0.013 3.484-0.709 4.588-1.801 2.578-2.554 2.409-7.367 0.029-9.5591-1.004-0.9251-2.559-2.0488-5.809-2.0488v1.9261l-3.6926-2.7925 3.6926-3.1244v1.8441c2.679-0.1206 5.478 0.551 7.478 2.5518 3.677 3.6768 3.47 9.5438 0.078 12.936-2.148 2.148-4.401 2.726-6.446 2.573"/>
  <path id="path2557" style="stroke-linejoin:round;stroke:url(#linearGradient2466);stroke-width:1.0047;fill:none" d="m11.154 22.344c-2.672 0.166-8.3789-2.065-8.7428-8.111l1.5343-0.286c0.1724 2.864 4.2799 5.986 7.3865 6.052"/>
  <path id="path3347" style="stroke-linejoin:round;stroke:#c24920;stroke-linecap:round;fill:#e37b37" d="m10.336 13.821c0 0.651 0.528 1.179 1.179 1.179s1.179-0.528 1.179-1.179-0.528-1.178-1.179-1.178-1.179 0.527-1.179 1.178z"/>
 </g>
</svg>
