<?xml version="1.0" encoding="UTF-8" standalone="no"?>
<!-- Created with Inkscape (http://www.inkscape.org/) -->
<svg
   xmlns:svg="http://www.w3.org/2000/svg"
   xmlns="http://www.w3.org/2000/svg"
   xmlns:xlink="http://www.w3.org/1999/xlink"
   xmlns:inkscape="http://www.inkscape.org/namespaces/inkscape"
   version="1.0"
   width="48"
   height="48"
   id="svg3892">
  <defs
     id="defs3894">
    <linearGradient
       id="linearGradient5048">
      <stop
         id="stop5050"
         style="stop-color:#000000;stop-opacity:0"
         offset="0" />
      <stop
         id="stop5056"
         style="stop-color:#000000;stop-opacity:1"
         offset="0.5" />
      <stop
         id="stop5052"
         style="stop-color:#000000;stop-opacity:0"
         offset="1" />
    </linearGradient>
    <linearGradient
       x1="302.85715"
       y1="366.64789"
       x2="302.85715"
       y2="609.50507"
       id="linearGradient3333"
       xlink:href="#linearGradient5048"
       gradientUnits="userSpaceOnUse"
       gradientTransform="matrix(6.7324884e-2,0,0,1.4700216e-2,-0.3411391,37.040146)" />
    <radialGradient
       cx="605.71429"
       cy="486.64789"
       r="117.14286"
       fx="605.71429"
       fy="486.64789"
       id="radialGradient3330"
       xlink:href="#linearGradient5060"
       gradientUnits="userSpaceOnUse"
       gradientTransform="matrix(-2.3039943e-2,0,0,1.4700216e-2,21.62311,37.040176)" />
    <radialGradient
       cx="605.71429"
       cy="486.64789"
       r="117.14286"
       fx="605.71429"
       fy="486.64789"
       id="radialGradient3327"
       xlink:href="#linearGradient5060"
       gradientUnits="userSpaceOnUse"
       gradientTransform="matrix(2.3039948e-2,0,0,1.4700216e-2,26.360882,37.040176)" />
    <linearGradient
       id="linearGradient3104">
      <stop
         id="stop3106"
         style="stop-color:#aaaaaa;stop-opacity:1"
         offset="0" />
      <stop
         id="stop3108"
         style="stop-color:#c8c8c8;stop-opacity:1"
         offset="1" />
    </linearGradient>
    <linearGradient
       x1="-51.786404"
       y1="50.786446"
       x2="-51.786404"
       y2="2.9062471"
       id="linearGradient3324"
       xlink:href="#linearGradient3104"
       gradientUnits="userSpaceOnUse"
       gradientTransform="matrix(0.8074968,0,0,0.8948322,59.410232,-2.9805533)" />
    <linearGradient
       id="linearGradient3600">
      <stop
         id="stop3602"
         style="stop-color:#f4f4f4;stop-opacity:1"
         offset="0" />
      <stop
         id="stop3604"
         style="stop-color:#dbdbdb;stop-opacity:1"
         offset="1" />
    </linearGradient>
    <linearGradient
       x1="25.132275"
       y1="0.98520643"
       x2="25.132275"
       y2="47.013336"
       id="linearGradient3322"
       xlink:href="#linearGradient3600"
       gradientUnits="userSpaceOnUse"
       gradientTransform="matrix(1,0,0,0.9561695,-1.0064697e-7,-1.914922)" />
    <radialGradient
       cx="102"
       cy="112.3047"
       r="139.55859"
       id="XMLID_8_"
       gradientUnits="userSpaceOnUse">
      <stop
         id="stop41"
         style="stop-color:#b7b8b9;stop-opacity:1"
         offset="0" />
      <stop
         id="stop47"
         style="stop-color:#ececec;stop-opacity:1"
         offset="0.18851049" />
      <stop
         id="stop49"
         style="stop-color:#fafafa;stop-opacity:0"
         offset="0.25718147" />
      <stop
         id="stop51"
         style="stop-color:#ffffff;stop-opacity:0"
         offset="0.30111277" />
      <stop
         id="stop53"
         style="stop-color:#fafafa;stop-opacity:0"
         offset="0.53130001" />
      <stop
         id="stop55"
         style="stop-color:#ebecec;stop-opacity:0"
         offset="0.84490001" />
      <stop
         id="stop57"
         style="stop-color:#e1e2e3;stop-opacity:0"
         offset="1" />
    </radialGradient>
    <radialGradient
       cx="102"
       cy="112.3047"
       r="139.55859"
       id="radialGradient3319"
       xlink:href="#XMLID_8_"
       gradientUnits="userSpaceOnUse"
       gradientTransform="matrix(0.3617022,0,0,-0.3907784,0.8510637,47.517004)" />
    <linearGradient
       id="linearGradient3211">
      <stop
         id="stop3213"
         style="stop-color:#ffffff;stop-opacity:1"
         offset="0" />
      <stop
         id="stop3215"
         style="stop-color:#ffffff;stop-opacity:0"
         offset="1" />
    </linearGradient>
    <linearGradient
       x1="24"
       y1="1.9999999"
       x2="24"
       y2="46.01725"
       id="linearGradient3316"
       xlink:href="#linearGradient3211"
       gradientUnits="userSpaceOnUse"
       gradientTransform="matrix(1,0,0,0.9777778,0,-0.9666693)" />
    <filter
       height="1.3286875"
       y="-0.16434373"
       width="1.2969251"
       x="-0.14846256"
       id="filter3212">
      <feGaussianBlur
         id="feGaussianBlur3214"
         stdDeviation="0.77391625"
         inkscape:collect="always" />
    </filter>
    <linearGradient
       id="linearGradient8589">
      <stop
         id="stop8591"
         style="stop-color:#fefefe;stop-opacity:1"
         offset="0" />
      <stop
         id="stop8593"
         style="stop-color:#cbcbcb;stop-opacity:1"
         offset="1" />
    </linearGradient>
    <linearGradient
       x1="32.892288"
       y1="8.0590115"
       x2="36.358372"
       y2="5.4565363"
       id="linearGradient3312"
       xlink:href="#linearGradient8589"
       gradientUnits="userSpaceOnUse"
       gradientTransform="matrix(0.9976985,0,0,1.0406866,0.1638029,-1.1057939)" />
    <linearGradient
       id="linearGradient5060-9">
      <stop
         id="stop5062-9"
         style="stop-color:#000000;stop-opacity:1"
         offset="0" />
      <stop
         id="stop5064-1"
         style="stop-color:#000000;stop-opacity:0"
         offset="1" />
    </linearGradient>
    <radialGradient
       cx="32"
       cy="41.5"
       r="21"
       fx="32"
       fy="41.5"
       id="radialGradient3059"
       xlink:href="#linearGradient5060-9"
       gradientUnits="userSpaceOnUse"
       gradientTransform="matrix(0.3571429,0,0,0.1428572,8.0714286,25.072062)" />
    <linearGradient
       x1="30"
       y1="25.084745"
       x2="32.762848"
       y2="22.328836"
       id="linearGradient3056"
       xlink:href="#linearGradient3886"
       gradientUnits="userSpaceOnUse"
       gradientTransform="matrix(0.4193574,0,0,0.419795,7.4192778,13.819164)" />
    <radialGradient
       cx="24.999998"
       cy="28.659998"
       r="16"
       fx="24.999998"
       fy="28.659998"
       id="radialGradient3054"
       xlink:href="#linearGradient6954"
       gradientUnits="userSpaceOnUse"
       gradientTransform="matrix(0.5504065,0,0,0.1566956,4.1430493,22.341911)" />
    <linearGradient
       x1="29.968306"
       y1="21.68708"
       x2="30.000004"
       y2="43.308842"
       id="linearGradient3051"
       xlink:href="#linearGradient3341"
       gradientUnits="userSpaceOnUse"
       gradientTransform="matrix(0.4193574,0,0,0.419795,7.4192778,13.819164)" />
    <linearGradient
       x1="34.220531"
       y1="27.265514"
       x2="34.220531"
       y2="4.1196241"
       id="linearGradient3048"
       xlink:href="#linearGradient3886"
       gradientUnits="userSpaceOnUse"
       gradientTransform="matrix(0.3333458,0,0,0.3621533,9.9996242,14.481381)" />
    <radialGradient
       cx="26.375898"
       cy="12.31301"
       r="8"
       fx="26.375898"
       fy="12.31301"
       id="radialGradient3046"
       xlink:href="#linearGradient6954"
       gradientUnits="userSpaceOnUse"
       gradientTransform="matrix(0.5467422,-4.801515e-2,4.270621e-2,0.5739711,3.8672768,12.588251)" />
    <linearGradient
       x1="22"
       y1="39"
       x2="17"
       y2="37.4375"
       id="linearGradient3043"
       xlink:href="#linearGradient5060"
       gradientUnits="userSpaceOnUse"
       gradientTransform="matrix(0.6195652,0,0,0.3591683,3.8334363,16.283932)" />
    <linearGradient
       x1="29.998489"
       y1="6.7808113"
       x2="30"
       y2="26.2834"
       id="linearGradient3040"
       xlink:href="#linearGradient3341"
       gradientUnits="userSpaceOnUse"
       gradientTransform="matrix(0.3333458,0,0,0.3621533,9.9996242,14.481381)" />
    <radialGradient
       cx="32"
       cy="41.5"
       r="21"
       fx="32"
       fy="41.5"
       id="radialGradient3108"
       xlink:href="#linearGradient5060"
       gradientUnits="userSpaceOnUse"
       gradientTransform="matrix(0.452381,0,0,0.1428571,12.023809,27.071429)" />
    <linearGradient
       x1="35.612034"
       y1="45.473217"
       x2="35.612034"
       y2="24.817749"
       id="linearGradient3105"
       xlink:href="#linearGradient3886"
       gradientUnits="userSpaceOnUse"
       gradientTransform="matrix(0.5161324,0,0,0.5166711,11.016028,11.508191)" />
    <linearGradient
       id="linearGradient6954">
      <stop
         id="stop6960"
         style="stop-color:#f5f5f5;stop-opacity:1"
         offset="0" />
      <stop
         id="stop6962"
         style="stop-color:#d2d2d2;stop-opacity:1"
         offset="1" />
    </linearGradient>
    <radialGradient
       cx="24.999998"
       cy="28.659998"
       r="16"
       fx="24.999998"
       fy="28.659998"
       id="radialGradient3102"
       xlink:href="#linearGradient6954"
       gradientUnits="userSpaceOnUse"
       gradientTransform="matrix(0.6774237,0,0,0.1928563,6.9837445,21.997732)" />
    <linearGradient
       x1="29.996229"
       y1="21.440447"
       x2="29.996229"
       y2="43.531425"
       id="linearGradient3099"
       xlink:href="#linearGradient3341"
       gradientUnits="userSpaceOnUse"
       gradientTransform="matrix(0.5161324,0,0,0.5166711,11.016028,11.508191)" />
    <linearGradient
       id="linearGradient3886">
      <stop
         id="stop3888"
         style="stop-color:#a0a0a0;stop-opacity:1"
         offset="0" />
      <stop
         id="stop3890"
         style="stop-color:#bebebe;stop-opacity:1"
         offset="1" />
    </linearGradient>
    <linearGradient
       x1="32.822903"
       y1="26.940323"
       x2="32.822903"
       y2="4.487875"
       id="linearGradient3096"
       xlink:href="#linearGradient3886"
       gradientUnits="userSpaceOnUse"
       gradientTransform="matrix(0.5277033,0,0,0.5357324,10.668902,10.595699)" />
    <linearGradient
       id="linearGradient3880">
      <stop
         id="stop3882"
         style="stop-color:#f5f5f5;stop-opacity:1"
         offset="0" />
      <stop
         id="stop3884"
         style="stop-color:#d2d2d2;stop-opacity:1"
         offset="1" />
    </linearGradient>
    <radialGradient
       cx="26.375898"
       cy="12.31301"
       r="8"
       fx="26.375898"
       fy="12.31301"
       id="radialGradient3094"
       xlink:href="#linearGradient3880"
       gradientUnits="userSpaceOnUse"
       gradientTransform="matrix(0.8655204,-7.102871e-2,6.760608e-2,0.849074,0.961088,7.795197)" />
    <linearGradient
       x1="22"
       y1="39"
       x2="17"
       y2="37.4375"
       id="linearGradient3091"
       xlink:href="#linearGradient5060"
       gradientUnits="userSpaceOnUse"
       gradientTransform="matrix(0.75,0,0,0.4347826,6.8723705,14.917391)" />
    <radialGradient
       cx="30"
       cy="33.1875"
       r="4.6875"
       fx="30"
       fy="33.1875"
       id="radialGradient3088"
       xlink:href="#linearGradient5060"
       gradientUnits="userSpaceOnUse"
       gradientTransform="matrix(0.8149192,-3.8844793e-7,1.136461e-7,0.2534027,2.0524196,18.590209)" />
    <linearGradient
       id="linearGradient5060">
      <stop
         id="stop5062"
         style="stop-color:#000000;stop-opacity:1"
         offset="0" />
      <stop
         id="stop5064"
         style="stop-color:#000000;stop-opacity:0"
         offset="1" />
    </linearGradient>
    <linearGradient
       x1="22"
       y1="39"
       x2="17"
       y2="37.4375"
       id="linearGradient3085"
       xlink:href="#linearGradient5060"
       gradientUnits="userSpaceOnUse"
       gradientTransform="matrix(-0.75,0,0,0.4347826,46.15,14.917391)" />
    <linearGradient
       id="linearGradient3341">
      <stop
         id="stop3343"
         style="stop-color:#ffffff;stop-opacity:1"
         offset="0" />
      <stop
         id="stop3345"
         style="stop-color:#ffffff;stop-opacity:0"
         offset="1" />
    </linearGradient>
    <linearGradient
       x1="30.00001"
       y1="6.333993"
       x2="30.00001"
       y2="24.913183"
       id="linearGradient3082"
       xlink:href="#linearGradient3341"
       gradientUnits="userSpaceOnUse"
       gradientTransform="matrix(0.5277033,0,0,0.5357324,10.668902,10.595699)" />
  </defs>
  <g
     id="layer1">
    <rect
       width="32.508301"
       height="3.5700529"
       x="7.7378473"
       y="42.429947"
       id="rect2879"
       style="opacity:0.3;fill:url(#linearGradient3333);fill-opacity:1;fill-rule:nonzero;stroke:none;stroke-width:1;stroke-linecap:round;stroke-linejoin:miter;marker:none;marker-start:none;marker-mid:none;marker-end:none;stroke-miterlimit:4;stroke-dasharray:none;stroke-dashoffset:0;stroke-opacity:1;visibility:visible;display:inline;overflow:visible" />
    <path
       d="M 7.7378475,42.430102 C 7.7378475,42.430102 7.7378475,45.999958 7.7378475,45.999958 C 6.5513473,46.006679 4.869468,45.200135 4.869468,44.2148 C 4.869468,43.229467 6.1935126,42.430103 7.7378475,42.430102 z"
       id="path2881"
       style="opacity:0.3;fill:url(#radialGradient3330);fill-opacity:1;fill-rule:nonzero;stroke:none;stroke-width:1;stroke-linecap:round;stroke-linejoin:miter;marker:none;marker-start:none;marker-mid:none;marker-end:none;stroke-miterlimit:4;stroke-dasharray:none;stroke-dashoffset:0;stroke-opacity:1;visibility:visible;display:inline;overflow:visible" />
    <path
       d="M 40.246148,42.430102 C 40.246148,42.430102 40.246148,45.999958 40.246148,45.999958 C 41.432648,46.006679 43.114528,45.200135 43.114528,44.2148 C 43.114528,43.229467 41.790483,42.430103 40.246148,42.430102 z"
       id="path2883"
       style="opacity:0.3;fill:url(#radialGradient3327);fill-opacity:1;fill-rule:nonzero;stroke:none;stroke-width:1;stroke-linecap:round;stroke-linejoin:miter;marker:none;marker-start:none;marker-mid:none;marker-end:none;stroke-miterlimit:4;stroke-dasharray:none;stroke-dashoffset:0;stroke-opacity:1;visibility:visible;display:inline;overflow:visible" />
    <path
       d="M 6.4999609,0.49719878 C 14.520256,0.49719878 22.540551,0.49719878 30.560847,0.49719878 C 31.96778,0.97185188 39.526301,6.3794034 41.500042,10.123605 C 41.500042,21.583338 41.500042,33.04307 41.500042,44.502803 C 29.833348,44.502803 18.166655,44.502803 6.4999609,44.502803 C 6.4999609,29.834268 6.4999609,15.165733 6.4999609,0.49719878 z"
       id="path4160"
       style="fill:url(#linearGradient3322);fill-opacity:1;stroke:url(#linearGradient3324);stroke-width:0.99992186;stroke-linecap:butt;stroke-linejoin:round;stroke-miterlimit:4;stroke-dasharray:none;stroke-dashoffset:0;stroke-opacity:1;display:inline" />
    <path
       d="M 7.3617017,44 C 7.1624047,44 6.9999997,43.824541 6.9999997,43.60922 L 6.9999997,1.4051701 C 6.9999997,1.1894613 7.1624047,1.0143926 7.3617017,1.0143926 C 14.844793,1.1224073 23.137385,0.85281757 30.611384,1.0412872 L 40.894021,9.9073127 L 41,43.60922 C 41,43.824541 40.837957,44 40.638297,44 L 7.3617017,44 z"
       id="path4191"
       style="fill:url(#radialGradient3319);fill-opacity:1" />
    <path
       d="M 40.500039,10.258811 C 40.500039,21.207848 40.500039,32.573221 40.500039,43.522258 C 29.500013,43.522258 18.499987,43.522258 7.4999609,43.522258 C 7.4999609,29.507417 7.4999609,15.492577 7.4999609,1.4777367 C 15.061954,1.4777367 22.804295,1.4777367 30.366289,1.4777367"
       id="path2435"
       style="opacity:0.6;fill:none;fill-opacity:1;stroke:url(#linearGradient3316);stroke-width:0.9999218;stroke-linecap:butt;stroke-linejoin:round;stroke-miterlimit:4;stroke-dasharray:none;stroke-dashoffset:0;stroke-opacity:1;display:inline" />
    <path
       d="M 28.617256,0.92125832 C 32.899778,0.92125832 30.770506,9.4044296 30.770506,9.4044296 C 30.770506,9.4044296 41.128148,7.6020829 41.128148,12.223174 C 41.128148,9.6134507 29.825844,1.4945784 28.617256,0.92125832 z"
       id="path12038"
       style="opacity:0.4;fill:#000000;fill-opacity:1;fill-rule:evenodd;stroke:none;stroke-width:1px;stroke-linecap:butt;stroke-linejoin:miter;stroke-opacity:1;display:inline;filter:url(#filter3212)" />
    <path
       d="M 28.617256,0.92125832 C 31.803749,0.92125832 30.953016,8.5831368 30.953016,8.5831368 C 30.953016,8.5831368 41.128148,7.6020829 41.128148,12.223174 C 41.128148,11.097235 41.214061,10.290929 40.994371,9.9395812 C 39.416058,7.4154025 32.598855,1.7511811 30.137071,1.008793 C 29.952849,0.95323837 29.544367,0.92125832 28.617256,0.92125832 z"
       id="path4474"
       style="fill:url(#linearGradient3312);fill-opacity:1;fill-rule:evenodd;stroke:none;stroke-width:1px;stroke-linecap:butt;stroke-linejoin:miter;stroke-opacity:1;display:inline" />
    <path
       d="M 27,31.000632 C 26.999697,32.657401 23.641922,34.000413 19.5,34.000413 C 15.358078,34.000413 12.000303,32.657401 12,31.000632 C 11.999697,29.343692 15.35765,28.000413 19.5,28.000413 C 23.64235,28.000413 27.000303,29.343692 27,31.000632 z"
       id="path3823-1"
       style="opacity:0.3;fill:url(#radialGradient3059);fill-opacity:1;stroke:none" />
    <path
       d="M 18.513,22.424959 L 18.457,24.94373 C 17.236379,25.957484 13.914638,26.413014 13.919317,27.4625 L 13.49996,30.610965 C 13.49996,31.654273 16.410126,32.50004 20,32.50004 C 23.589871,32.50004 26.50004,31.654273 26.50004,30.610965 L 26.080681,27.4625 C 26.075781,26.564282 22.735651,25.99322 21.53,24.94373 L 21.487,22.424959 L 18.513,22.424959 L 18.513,22.424959 z"
       id="path3766-9"
       style="fill:url(#radialGradient3054);fill-opacity:1;stroke:url(#linearGradient3056);stroke-width:0.99991947;stroke-miterlimit:4;stroke-dasharray:none;stroke-opacity:1" />
    <path
       d="M 19.5,23.4375 C 19.41906,24.129154 19.631866,24.888208 19.276485,25.525045 C 18.747664,26.192082 17.887482,26.42982 17.13752,26.754831 C 16.363868,27.032459 15.563052,27.265129 14.857755,27.698976 C 14.927605,27.836272 14.792229,28.3207 14.779596,28.606972 C 14.696814,29.269232 14.614031,29.931491 14.531249,30.59375 C 15.17128,30.785168 15.771743,31.104571 16.446166,31.172565 C 18.812676,31.642317 21.268081,31.587936 23.637391,31.168965 C 24.23923,31.054091 24.816986,30.837152 25.369384,30.581238 C 25.55344,30.267298 25.329344,29.876713 25.337744,29.521938 C 25.26683,28.94168 25.195915,28.361465 25.125,27.78125 C 23.736562,26.916552 21.965067,26.747924 20.764455,25.570405 C 20.340928,24.960694 20.602019,24.193261 20.491518,23.512817 C 20.229367,23.340917 19.855393,23.476623 19.540592,23.4375 L 19.510618,23.4375 L 19.500001,23.4375 L 19.5,23.4375 z"
       id="path4094"
       style="opacity:0.6;fill:none;stroke:url(#linearGradient3051);stroke-width:0.99991947;stroke-miterlimit:4;stroke-dasharray:none;stroke-opacity:1" />
    <path
       d="M 20,16.473223 C 18.619237,16.473223 17.499906,17.608214 17.499906,19.008296 C 17.510727,19.526439 17.551419,20.141973 17.833251,21.543368 C 17.999924,22.086598 19.486567,23.535211 19.49998,23.716287 C 19.823218,23.897362 20.333345,23.897362 20.666693,23.716287 C 20.666693,23.535211 22.000076,22.086598 22.166748,21.543368 C 22.483886,20.0869 22.483081,19.551526 22.500093,19.008296 C 22.500093,17.608214 21.380763,16.473223 20,16.473223 L 20,16.473223 z"
       id="path3764-3"
       style="fill:url(#radialGradient3046);fill-opacity:1;stroke:url(#linearGradient3048);stroke-width:0.99981266;stroke-miterlimit:4;stroke-dasharray:none;stroke-opacity:1" />
    <path
       d="M 16.844306,31.8 C 15.380676,31.088058 16.078603,29.50748 16.22474,28.495652 C 15.605175,29.213989 15.917131,31.221739 14.678,31.221739 C 15.504087,31.515513 16.069576,31.71588 16.844306,31.8 z"
       id="path3848-9"
       style="opacity:0.5;fill:url(#linearGradient3043);fill-opacity:1;stroke:none" />
    <path
       d="M 20,17.4375 C 19.201149,17.414972 18.471486,18.127622 18.474587,18.927347 C 18.462282,19.577258 18.59808,20.218564 18.70526,20.856744 C 18.732994,21.107107 18.804475,21.338607 18.986961,21.520828 C 19.321405,21.970504 19.693468,22.391109 20.0625,22.8125 C 20.441151,22.315283 20.828557,21.824363 21.1875,21.3125 C 21.340057,20.466079 21.579359,19.616312 21.514185,18.748773 C 21.415211,18.022184 20.740733,17.416849 20,17.4375 z"
       id="path4066"
       style="opacity:0.6;fill:none;stroke:url(#linearGradient3040);stroke-width:0.99981266;stroke-miterlimit:4;stroke-dasharray:none;stroke-opacity:1" />
    <path
       d="M 36,33 C 36,34.656854 31.746705,36 26.5,36 C 21.253295,36 17,34.656854 17,33 C 17,31.343146 21.253295,30 26.5,30 C 31.746705,30 36,31.343146 36,33 z"
       id="path3823"
       style="opacity:0.3;fill:url(#radialGradient3108);fill-opacity:1;stroke:none" />
    <path
       d="M 24.177403,22.099947 C 24.414933,23.2246 24.547519,24.07532 24.354824,25.199973 C 22.852521,26.44767 19.010321,27.008323 19.016079,28.299998 L 18.499947,32.175034 C 18.499947,33.459107 22.081692,34.500053 26.5,34.500053 C 30.918307,34.500053 34.500053,33.459107 34.500053,32.175034 L 33.983919,28.299998 C 33.977819,27.1945 30.112926,26.491652 28.629046,25.199973 C 28.502295,24.156125 28.603186,23.143799 28.822595,22.099947 L 24.177403,22.099947 L 24.177403,22.099947 z"
       id="path3766"
       style="fill:url(#radialGradient3102);fill-opacity:1;stroke:url(#linearGradient3105);stroke-width:0.99989432;stroke-miterlimit:4;stroke-dasharray:none;stroke-opacity:1" />
    <path
       d="M 25.21875,23.09375 C 25.30597,23.950461 25.55415,24.894757 25.17057,25.709607 C 24.528016,26.438072 23.575968,26.803433 22.70319,27.182322 C 21.322685,27.510467 19.713727,28 19.925218,28.998373 C 19.783478,30.061416 19.641739,31.124458 19.5,32.1875 C 19.806399,32.348113 20.580944,32.772404 21.125,32.875 C 23.645767,33.541947 26.29285,33.600367 28.879874,33.394516 C 30.391585,33.228304 31.968523,33.041851 33.3125,32.28125 C 33.647936,32.20763 33.419622,31.964839 33.427436,31.626335 C 33.295374,30.605057 33.163312,29.583778 33.03125,28.5625 C 32.443602,28.0598 31.639954,27.808981 30.924859,27.497923 C 29.842077,27.050624 28.673391,26.64492 27.837947,25.789929 C 27.44633,25.100371 27.676474,24.251186 27.730623,23.503439 C 27.990304,22.975089 27.507224,23.101536 27.177691,23.09375 C 26.52471,23.09375 25.87173,23.09375 25.21875,23.09375 z"
       id="path3742"
       style="opacity:0.6;fill:none;stroke:url(#linearGradient3099);stroke-width:0.99989432;stroke-miterlimit:4;stroke-opacity:1" />
    <path
       d="M 26.5,13.542226 C 24.314182,13.542226 22.542226,15.221216 22.542226,17.292353 C 22.559356,18.058841 22.623776,18.9694 23.069927,21.04248 C 23.333779,21.846079 25.68721,23.98901 25.708444,24.256875 C 26.220145,24.52474 27.027702,24.52474 27.555408,24.256875 C 27.555408,23.98901 29.666221,21.846079 29.930072,21.04248 C 30.432118,18.887931 30.430845,18.095952 30.457774,17.292353 C 30.457774,15.221216 28.685818,13.542226 26.5,13.542226 L 26.5,13.542226 z"
       id="path3764"
       style="fill:url(#radialGradient3094);fill-opacity:1;stroke:url(#linearGradient3096);stroke-width:1.08445191;stroke-miterlimit:4;stroke-dasharray:none;stroke-opacity:1" />
    <path
       d="M 22.62237,33.7 C 20.850608,32.838176 21.695467,30.924844 21.87237,29.7 C 21.12237,30.569566 21.5,33 20,33 C 21,33.355621 21.684539,33.59817 22.62237,33.7 L 22.62237,33.7 z"
       id="path3848"
       style="opacity:0.5;fill:url(#linearGradient3091);fill-opacity:1;stroke:none" />
    <path
       d="M 24,25.35048 C 24.366027,26.309818 25.343418,27 26.5,27 C 27.656582,27 28.633972,26.309818 29,25.35048 L 24,25.35048 L 24,25.35048 z"
       id="path3833"
       style="opacity:0.3;fill:url(#radialGradient3088);fill-opacity:1;stroke:none" />
    <path
       d="M 30.4,33.7 C 32.171762,32.838176 31.326903,30.924844 31.150001,29.7 C 31.9,30.569566 31.52237,33 33.02237,33 C 32.02237,33.355621 31.337831,33.59817 30.4,33.7 z"
       id="path3720"
       style="opacity:0.5;fill:url(#linearGradient3085);fill-opacity:1;stroke:none" />
    <path
       d="M 26.5,14.53125 C 24.833384,14.53125 23.5487,15.761567 23.53125,17.25 C 23.531389,17.25624 23.531105,17.274997 23.53125,17.28125 C 23.54772,17.989353 23.61734,18.808529 24.03125,20.75 C 24.02615,20.71333 24.12796,20.954139 24.34375,21.21875 C 24.576183,21.503774 24.910353,21.827081 25.21875,22.15625 C 25.527147,22.485419 25.817597,22.825225 26.0625,23.09375 C 26.15685,23.197198 26.234456,23.280655 26.3125,23.375 C 26.479311,23.41024 26.727749,23.40712 26.9375,23.375 C 26.99932,23.29103 27.052251,23.215569 27.125,23.125 C 27.343248,22.853293 27.598896,22.549007 27.875,22.21875 C 28.151104,21.888493 28.444207,21.537356 28.65625,21.25 C 28.853812,20.982268 28.963562,20.746856 28.96875,20.75 C 29.429451,18.750217 29.442485,18.080428 29.46875,17.28125 C 29.46875,17.271068 29.468869,17.260159 29.46875,17.25 C 29.4513,15.761567 28.166616,14.53125 26.5,14.53125 z"
       id="path3730"
       style="opacity:0.6;fill:none;stroke:url(#linearGradient3082);stroke-width:1.08445191;stroke-miterlimit:4;stroke-dasharray:none;stroke-opacity:1" />
  </g>
</svg>
