<?xml version="1.0" encoding="UTF-8" standalone="no"?>
<svg
   xmlns:dc="http://purl.org/dc/elements/1.1/"
   xmlns:cc="http://creativecommons.org/ns#"
   xmlns:rdf="http://www.w3.org/1999/02/22-rdf-syntax-ns#"
   xmlns:svg="http://www.w3.org/2000/svg"
   xmlns="http://www.w3.org/2000/svg"
   xmlns:xlink="http://www.w3.org/1999/xlink"
   version="1.1"
   width="16"
   height="16"
   id="svg3749">
  <metadata
     id="metadata148432">
    <rdf:RDF>
      <cc:Work
         rdf:about="">
        <dc:format>image/svg+xml</dc:format>
        <dc:type
           rdf:resource="http://purl.org/dc/dcmitype/StillImage" />
        <dc:title />
      </cc:Work>
    </rdf:RDF>
  </metadata>
  <defs
     id="defs3751">
    <linearGradient
       id="linearGradient3820-7-2-2">
      <stop
         id="stop3822-2-6-36"
         style="stop-color:#3d3d3d;stop-opacity:1"
         offset="0" />
      <stop
         id="stop3864-8-7-6"
         style="stop-color:#686868;stop-opacity:0.49803922"
         offset="0.5" />
      <stop
         id="stop3824-1-2-4"
         style="stop-color:#686868;stop-opacity:0"
         offset="1" />
    </linearGradient>
    <linearGradient
       id="linearGradient4806-9">
      <stop
         id="stop4808-49"
         style="stop-color:#ffffff;stop-opacity:1"
         offset="0" />
      <stop
         id="stop4810-05"
         style="stop-color:#ffffff;stop-opacity:0.23529412"
         offset="0.42447853" />
      <stop
         id="stop4812-6"
         style="stop-color:#ffffff;stop-opacity:0.15686275"
         offset="0.82089913" />
      <stop
         id="stop4814-7"
         style="stop-color:#ffffff;stop-opacity:0.39215687"
         offset="1" />
    </linearGradient>
    <linearGradient
       x1="71.204407"
       y1="15.369057"
       x2="71.204407"
       y2="40.495617"
       id="linearGradient3097"
       xlink:href="#linearGradient4806-9"
       gradientUnits="userSpaceOnUse"
       gradientTransform="matrix(0.51708304,0,0,0.51708328,-29.321044,-6.4095072)" />
    <radialGradient
       cx="99.157013"
       cy="186.17059"
       r="62.769119"
       fx="99.157013"
       fy="186.17059"
       id="radialGradient3108"
       xlink:href="#linearGradient3820-7-2-2"
       gradientUnits="userSpaceOnUse"
       gradientTransform="matrix(0.07434654,0,0,0.02365573,0.62801934,10.111153)" />
    <linearGradient
       id="linearGradient27416-1-2-0-1">
      <stop
         offset="0"
         style="stop-color:#55c1ec;stop-opacity:1"
         id="stop27420-2-0-8-7" />
      <stop
         offset="1"
         style="stop-color:#3689e6;stop-opacity:1"
         id="stop27422-3-5-3-3" />
    </linearGradient>
    <linearGradient
       xlink:href="#linearGradient27416-1-2-0-1"
       id="linearGradient4043"
       gradientUnits="userSpaceOnUse"
       gradientTransform="matrix(0.23139226,0,0,0.42120062,20.366131,-16.439351)"
       x1="30.271185"
       y1="10.028973"
       x2="30.271185"
       y2="55.052982" />
  </defs>
  <path
     d="m 12.666667,14.515151 a 4.6666668,1.4848485 0 0 1 -9.3333336,0 4.6666668,1.4848485 0 1 1 9.3333336,0 z"
     id="path3818-0-2"
     style="fill:url(#radialGradient3108);fill-opacity:1;stroke:none;stroke-width:1" />
  <path
     d="M 15,8 A 7,6.9999994 0 0 1 1.0000003,8 7,6.9999994 0 1 1 15,8 Z"
     id="path3029"
     style="color:#000000;display:inline;overflow:visible;visibility:visible;fill:url(#linearGradient4043);fill-opacity:1;fill-rule:nonzero;stroke:none;stroke-width:1.54645538;marker:none;enable-background:accumulate" />
  <path
     style="color:#000000;display:inline;overflow:visible;visibility:visible;opacity:0.07000002;fill:#000000;fill-opacity:1;fill-rule:nonzero;stroke:none;stroke-width:2;marker:none;enable-background:accumulate"
     id="path4100"
     d="m 8,4.104167 c -1.8735714,0 -3.4375,1.489878 -3.4375,3.333333 0,1.131623 0.6342743,2.066317 1.5208334,2.666667 -1.0870667,0.292098 -2.0378721,0.91935 -2.5416667,1.916666 a 0.68084954,0.68084954 0 0 0 0.1041667,0.770834 C 4.7346877,13.953077 6.287095,14.6875 8,14.6875 c 1.7129047,0 3.265313,-0.734423 4.354167,-1.895833 a 0.68084954,0.68084954 0 0 0 0.104166,-0.770834 C 11.954539,11.023517 11.003733,10.396265 9.9166667,10.104167 10.803226,9.503817 11.4375,8.569123 11.4375,7.4375 11.4375,5.594045 9.8735714,4.104167 8,4.104167 Z" />
  <path
     d="m 8,4.791273 c -1.519906,0 -2.7520333,1.184738 -2.7520333,2.646186 0,1.461448 1.2321273,2.646186 2.7520333,2.646186 1.519906,0 2.752033,-1.184738 2.752033,-2.646186 C 10.752033,5.976011 9.519906,4.791273 8,4.791273 Z m -1.0088586,5.735608 c -1.2388802,0 -2.3104758,0.728856 -2.851265,1.799406 C 5.1054703,13.356224 6.476818,14 8,14 c 1.523182,0 2.89453,-0.643776 3.860123,-1.673713 -0.540788,-1.07055 -1.612384,-1.799406 -2.8512643,-1.799406 z"
     id="rect3049-2"
     style="color:#000000;display:inline;overflow:visible;visibility:visible;opacity:0.15;fill:#000000;fill-opacity:1;fill-rule:nonzero;stroke:none;stroke-width:2;marker:none;enable-background:accumulate" />
  <path
     d="m 8,4.083646 c -1.519906,0 -2.7520333,1.184737 -2.7520333,2.646185 0,1.461448 1.2321273,2.646186 2.7520333,2.646186 1.519906,0 2.752033,-1.184738 2.752033,-2.646186 C 10.752033,5.268383 9.519906,4.083646 8,4.083646 Z M 6.9911414,9.819253 c -1.2388802,0 -2.3104758,0.728856 -2.851265,1.799406 C 5.1054703,12.648596 6.476818,13.292372 8,13.292372 c 1.523182,0 2.89453,-0.643776 3.860124,-1.673713 -0.540789,-1.07055 -1.612385,-1.799406 -2.8512653,-1.799406 z"
     id="rect3049"
     style="color:#000000;display:inline;overflow:visible;visibility:visible;fill:#ffffff;fill-opacity:1;fill-rule:nonzero;stroke:none;stroke-width:2;marker:none;enable-background:accumulate" />
  <path
     d="m 8,1.0000001 c -3.8623586,0 -7,3.1376409 -7,6.9999989 C 1,11.862359 4.1376414,15.000001 8,15 11.862359,15 15.000005,11.862359 15,7.999999 15,4.137641 11.862359,1.0000001 8,1.0000001 Z"
     id="path2555-7-1-7"
     style="color:#000000;display:inline;overflow:visible;visibility:visible;opacity:0.5;fill:#000000;fill-opacity:0;fill-rule:nonzero;stroke:#003651;stroke-width:0.99999994;stroke-linecap:round;stroke-linejoin:round;stroke-miterlimit:4;stroke-dasharray:none;stroke-dashoffset:0;stroke-opacity:1;marker:none;enable-background:accumulate" />
  <path
     d="m 14.333334,8 c 0,3.497804 -2.835537,6.333333 -6.333334,6.333333 C 4.5022034,14.333333 1.6666667,11.497804 1.6666667,8 1.6666667,4.502197 4.5022034,1.6666665 8,1.6666665 c 3.497797,0 6.333334,2.8355305 6.333334,6.3333335 z"
     id="path3421"
     style="color:#000000;display:inline;overflow:visible;visibility:visible;opacity:0.5;fill:none;stroke:url(#linearGradient3097);stroke-width:1;stroke-linecap:round;stroke-linejoin:round;stroke-miterlimit:4;stroke-dasharray:none;stroke-dashoffset:0;stroke-opacity:1;marker:none;enable-background:accumulate" />
</svg>
