<?xml version="1.0" encoding="UTF-8" standalone="no"?>
<svg
   xmlns:dc="http://purl.org/dc/elements/1.1/"
   xmlns:cc="http://creativecommons.org/ns#"
   xmlns:rdf="http://www.w3.org/1999/02/22-rdf-syntax-ns#"
   xmlns:svg="http://www.w3.org/2000/svg"
   xmlns="http://www.w3.org/2000/svg"
   xmlns:xlink="http://www.w3.org/1999/xlink"
   id="svg3033"
   height="16"
   width="16"
   version="1.1">
  <defs
     id="defs3035">
    <linearGradient
       gradientTransform="matrix(0.35135136,0,0,0.35135136,-17.203671,-0.90930025)"
       gradientUnits="userSpaceOnUse"
       xlink:href="#linearGradient4011"
       id="linearGradient3280"
       y2="44.340794"
       x2="71.204407"
       y1="6.2375584"
       x1="71.204407" />
    <linearGradient
       id="linearGradient4011">
      <stop
         offset="0"
         style="stop-color:#ffffff;stop-opacity:1"
         id="stop4013" />
      <stop
         offset="0.507761"
         style="stop-color:#ffffff;stop-opacity:0.23529412"
         id="stop4015" />
      <stop
         offset="0.83456558"
         style="stop-color:#ffffff;stop-opacity:0.15686275"
         id="stop4017" />
      <stop
         offset="1"
         style="stop-color:#ffffff;stop-opacity:0.39215687"
         id="stop4019" />
    </linearGradient>
    <linearGradient
       id="linearGradient3242">
      <stop
         offset="0"
         style="stop-color:#f8b17e;stop-opacity:1"
         id="stop3244" />
      <stop
         offset="0.26238"
         style="stop-color:#e35d4f;stop-opacity:1"
         id="stop3246" />
      <stop
         offset="0.66093999"
         style="stop-color:#c6262e;stop-opacity:1"
         id="stop3248" />
      <stop
         offset="1"
         style="stop-color:#690b54;stop-opacity:1"
         id="stop3250" />
    </linearGradient>
    <linearGradient
       id="linearGradient2490">
      <stop
         offset="0"
         style="stop-color:#791235;stop-opacity:1"
         id="stop2492" />
      <stop
         offset="1"
         style="stop-color:#dd3b27;stop-opacity:1"
         id="stop2494" />
    </linearGradient>
    <radialGradient
       gradientTransform="matrix(0,0.8796593,-1.1611346,0,12.632931,-21.08413)"
       gradientUnits="userSpaceOnUse"
       xlink:href="#linearGradient3242"
       id="radialGradient3029"
       fy="3.9900031"
       fx="23.895569"
       r="20.397499"
       cy="3.9900031"
       cx="23.895569" />
    <linearGradient
       gradientTransform="matrix(0.3685738,0,0,0.3685738,-0.84577,-0.84576985)"
       gradientUnits="userSpaceOnUse"
       xlink:href="#linearGradient2490"
       id="linearGradient3031"
       y2="3.0816143"
       x2="18.379412"
       y1="44.980297"
       x1="18.379412" />
  </defs>
  <metadata
     id="metadata3038">
    <rdf:RDF>
      <cc:Work
         rdf:about="">
        <dc:format>image/svg+xml</dc:format>
        <dc:type
           rdf:resource="http://purl.org/dc/dcmitype/StillImage" />
        <dc:title />
      </cc:Work>
    </rdf:RDF>
  </metadata>
  <path
     d="m 8.0000011,0.50182812 c -4.1372321,0 -7.4981741,3.36093918 -7.4981741,7.49817178 0,4.1372331 3.360942,7.4981751 7.4981741,7.4981721 4.1372309,0 7.4981759,-3.360939 7.4981719,-7.4981721 0,-4.1372326 -3.360941,-7.49817178 -7.4981719,-7.49817178 z"
     id="path2555"
     style="fill:url(#radialGradient3029);fill-opacity:1;stroke:url(#linearGradient3031);stroke-width:1.00365424;stroke-linecap:round;stroke-linejoin:round;stroke-miterlimit:4;stroke-dasharray:none;stroke-dashoffset:0;stroke-opacity:1" />
  <path
     d="M 14.5,7.999769 C 14.5,11.589737 11.589636,14.5 8.0000824,14.5 4.4101993,14.5 1.5,11.589703 1.5,7.999769 1.5,4.4099697 4.4101993,1.5000003 8.0000824,1.5000003 11.589636,1.5000003 14.5,4.4099697 14.5,7.999769 l 0,0 z"
     id="path8655-6"
     style="color:#000000;display:inline;overflow:visible;visibility:visible;opacity:0.5;fill:none;stroke:url(#linearGradient3280);stroke-width:0.99999994;stroke-linecap:round;stroke-linejoin:round;stroke-miterlimit:4;stroke-dasharray:none;stroke-dashoffset:0;stroke-opacity:1;marker:none;enable-background:accumulate" />
  <path
     d="m 7.0661542,4.6056008 c 0.2212979,2.1616554 0.4747817,4.308436 0.6631614,6.4785592 0.1894729,0 0.4117047,0 0.6011799,0 C 8.4867494,9.0001525 8.7387805,6.92874 8.9205883,4.8473159 9.013264,4.3544624 8.7602189,3.7692929 8.2397809,3.6495539 7.7255067,3.4991961 7.1509385,3.8715299 7.082555,4.4033769 7.0712343,4.4701449 7.0661636,4.5379035 7.0661636,4.6056008 l 0,0 z m -0.065589,8.7886882 c -0.023408,0.643441 0.6845928,1.147837 1.2890839,0.943842 0.585494,-0.149426 0.893884,-0.885323 0.593817,-1.408417 -0.268611,-0.540733 -1.0562991,-0.718895 -1.5094184,-0.30505 -0.2290419,0.188174 -0.380856,0.469092 -0.3734823,0.769625 l 0,0 z"
     id="path4184"
     style="color:#000000;font-style:normal;font-variant:normal;font-weight:normal;font-stretch:normal;font-size:62.4582634px;line-height:125%;font-family:Georgia;text-align:start;writing-mode:lr-tb;text-anchor:start;display:inline;overflow:visible;visibility:visible;fill:#000000;fill-opacity:1;fill-rule:nonzero;stroke:none;stroke-width:1;marker:none;enable-background:accumulate;opacity:0.15" />
  <path
     style="color:#000000;font-style:normal;font-variant:normal;font-weight:normal;font-stretch:normal;font-size:62.4582634px;line-height:125%;font-family:Georgia;text-align:start;writing-mode:lr-tb;text-anchor:start;display:inline;overflow:visible;visibility:visible;fill:#000000;fill-opacity:1;fill-rule:nonzero;stroke:#000000;stroke-width:2;marker:none;enable-background:accumulate;opacity:0.05;stroke-opacity:1;stroke-miterlimit:4;stroke-dasharray:none"
     id="path4186"
     d="m 7.0661542,4.6056008 c 0.2212979,2.1616554 0.4747817,4.308436 0.6631614,6.4785592 0.1894729,0 0.4117047,0 0.6011799,0 C 8.4867494,9.0001525 8.7387805,6.92874 8.9205883,4.8473159 9.013264,4.3544624 8.7602189,3.7692929 8.2397809,3.6495539 7.7255067,3.4991961 7.1509385,3.8715299 7.082555,4.4033769 7.0712343,4.4701449 7.0661636,4.5379035 7.0661636,4.6056008 l 0,0 z m -0.065589,8.7886882 c -0.023408,0.643441 0.6845928,1.147837 1.2890839,0.943842 0.585494,-0.149426 0.893884,-0.885323 0.593817,-1.408417 -0.268611,-0.540733 -1.0562991,-0.718895 -1.5094184,-0.30505 -0.2290419,0.188174 -0.380856,0.469092 -0.3734823,0.769625 l 0,0 z" />
  <path
     style="color:#000000;font-style:normal;font-variant:normal;font-weight:normal;font-stretch:normal;font-size:62.4582634px;line-height:125%;font-family:Georgia;text-align:start;writing-mode:lr-tb;text-anchor:start;display:inline;overflow:visible;visibility:visible;fill:#ffffff;fill-opacity:1;fill-rule:nonzero;stroke:none;stroke-width:1;marker:none;enable-background:accumulate"
     id="text2315"
     d="m 7.0661542,3.6056008 c 0.2212979,2.1616554 0.4747817,4.308436 0.6631614,6.4785592 0.1894729,0 0.4117047,0 0.6011799,0 C 8.4867494,8.0001525 8.7387805,5.92874 8.9205883,3.8473159 9.013264,3.3544624 8.7602189,2.7692929 8.2397809,2.6495539 7.7255067,2.4991961 7.1509385,2.8715299 7.082555,3.4033769 7.0712343,3.4701449 7.0661636,3.5379035 7.0661636,3.6056008 l 0,0 z m -0.065589,8.7886882 c -0.023408,0.643441 0.6845928,1.147837 1.2890839,0.943842 0.585494,-0.149426 0.893884,-0.885323 0.593817,-1.408417 -0.268611,-0.540733 -1.0562991,-0.718895 -1.5094184,-0.30505 -0.2290419,0.188174 -0.380856,0.469092 -0.3734823,0.769625 l 0,0 z" />
</svg>
