<svg xmlns="http://www.w3.org/2000/svg" xmlns:xlink="http://www.w3.org/1999/xlink" viewBox="0 0 16 16"><defs><linearGradient id="a"><stop offset="0" stop-color="#fff"/><stop offset="1" stop-color="#e0e0e0"/></linearGradient><linearGradient x1="108.265" y1="110.281" x2="25.818" y2="14.029" id="h" xlink:href="#a" gradientUnits="userSpaceOnUse" gradientTransform="matrix(.16888 0 0 .12684 -19.447 -16.156)"/><linearGradient id="b"><stop offset="0" stop-color="#333"/><stop offset="1" stop-color="#292929"/></linearGradient><linearGradient x1="-24.032" y1="-13.091" x2="-24.098" y2="-40.164" id="j" xlink:href="#b" gradientUnits="userSpaceOnUse" gradientTransform="matrix(.3143 0 0 .33333 -.455 .998)"/><linearGradient id="c"><stop offset="0" stop-color="#262626"/><stop offset="1" stop-color="#828282"/></linearGradient><linearGradient x1="28.938" y1="17.333" x2="105.365" y2="92.824" id="i" xlink:href="#c" gradientUnits="userSpaceOnUse" gradientTransform="matrix(.13844 0 0 .1141 -17.41 -14.556)"/><linearGradient x1="7.832" y1="10.936" x2="18.678" y2="10.936" id="n" xlink:href="#d" gradientUnits="userSpaceOnUse" gradientTransform="matrix(.66608 0 0 .76587 -.57 -.57)"/><linearGradient x1="7.832" y1="10.936" x2="18.678" y2="10.936" id="d" gradientUnits="userSpaceOnUse" gradientTransform="scale(.93258 1.0723)"><stop offset="0" stop-color="#fff"/><stop offset="1" stop-color="#fff" stop-opacity="0"/></linearGradient><linearGradient x1="63.397" y1="-12.489" x2="63.397" y2="5.468" id="m" xlink:href="#e" gradientUnits="userSpaceOnUse" gradientTransform="matrix(.74324 0 0 .74322 -38.23 10.61)"/><linearGradient id="e"><stop offset="0" stop-color="#fff"/><stop offset="1" stop-color="#fff" stop-opacity="0"/></linearGradient><radialGradient cx="23.896" cy="3.99" r="20.397" fx="23.896" fy="3.99" id="k" xlink:href="#f" gradientUnits="userSpaceOnUse" gradientTransform="matrix(0 .87966 -1.16113 0 12.633 -21.084)"/><linearGradient id="f"><stop offset="0" stop-color="#f8b17e"/><stop offset=".262" stop-color="#e35d4f"/><stop offset=".661" stop-color="#c6262e"/><stop offset="1" stop-color="#690b54"/></linearGradient><linearGradient x1="18.379" y1="44.98" x2="18.379" y2="3.082" id="l" xlink:href="#g" gradientUnits="userSpaceOnUse" gradientTransform="translate(-.846 -.846) scale(.36857)"/><linearGradient id="g"><stop offset="0" stop-color="#791235"/><stop offset="1" stop-color="#dd3b27"/></linearGradient></defs><g stroke-linecap="round"><path transform="rotate(179.89) skewX(-.057)" fill="url(#h)" stroke="#b3b3b3" stroke-opacity=".969" d="M-15.487-14.5h14.99v12.97h-14.99z"/><rect width="10.98" height="8.956" rx="0" ry="0" x="-13.508" y="-12.51" transform="rotate(180) skewX(-.36)" fill="url(#i)" stroke="url(#j)"/></g><path d="M8 .502A7.503 7.503 0 0 0 .502 8 7.503 7.503 0 0 0 8 15.498 7.503 7.503 0 0 0 15.498 8 7.503 7.503 0 0 0 8 .502zM8 2.91A5.09 5.09 0 0 1 13.09 8a5.05 5.05 0 0 1-1.082 3.12l-6.45-7.59A5.073 5.073 0 0 1 8 2.91zM3.923 4.96l6.427 7.555A5.09 5.09 0 0 1 2.91 8c0-1.142.378-2.19 1.013-3.04z" fill="url(#k)" stroke="url(#l)" stroke-width="1.673" stroke-linecap="round" stroke-linejoin="round" transform="matrix(.6 0 0 .6 3.2 3.2)"/><path d="M14.5 8a6.5 6.5 0 1 1-13 0 6.5 6.5 0 0 1 13 0z" opacity=".4" fill="none" stroke="url(#m)" stroke-width="1.667" transform="matrix(.6 0 0 .6 3.2 3.2)"/><path d="M4.852 4.21l6.384 7.492" opacity=".4" fill="none" stroke="url(#n)" stroke-width="1.667" stroke-linecap="round" transform="matrix(.6 0 0 .6 3.2 3.2)"/></svg>