<?xml version="1.0" encoding="UTF-8" standalone="no"?>
<svg
   xmlns:dc="http://purl.org/dc/elements/1.1/"
   xmlns:cc="http://creativecommons.org/ns#"
   xmlns:rdf="http://www.w3.org/1999/02/22-rdf-syntax-ns#"
   xmlns:svg="http://www.w3.org/2000/svg"
   xmlns="http://www.w3.org/2000/svg"
   xmlns:xlink="http://www.w3.org/1999/xlink"
   version="1.0"
   width="16"
   height="16"
   id="svg2403">
  <metadata
     id="metadata43">
    <rdf:RDF>
      <cc:Work
         rdf:about="">
        <dc:format>image/svg+xml</dc:format>
        <dc:type
           rdf:resource="http://purl.org/dc/dcmitype/StillImage" />
      </cc:Work>
    </rdf:RDF>
  </metadata>
  <defs
     id="defs2405">
    <linearGradient
       id="linearGradient259-942">
      <stop
         id="stop3802"
         style="stop-color:#ffffff;stop-opacity:1"
         offset="0" />
      <stop
         id="stop3804"
         style="stop-color:#e0e0e0;stop-opacity:1"
         offset="1" />
    </linearGradient>
    <linearGradient
       x1="108.26451"
       y1="110.28094"
       x2="25.817675"
       y2="14.029031"
       id="linearGradient2401"
       xlink:href="#linearGradient259-942"
       gradientUnits="userSpaceOnUse"
       gradientTransform="matrix(0.15762017,0,0,0.11708281,-18.683711,-15.529654)" />
    <linearGradient
       id="linearGradient3610-302">
      <stop
         id="stop3796"
         style="stop-color:#333333;stop-opacity:1"
         offset="0" />
      <stop
         id="stop3798"
         style="stop-color:#292929;stop-opacity:1"
         offset="1" />
    </linearGradient>
    <linearGradient
       x1="-24.032034"
       y1="-13.090545"
       x2="-24.097931"
       y2="-40.163883"
       id="linearGradient2398"
       xlink:href="#linearGradient3610-302"
       gradientUnits="userSpaceOnUse"
       gradientTransform="matrix(0.31428599,0,0,0.33333321,-0.45486079,0.99818463)" />
    <linearGradient
       id="linearGradient4157-401-351">
      <stop
         id="stop3790"
         style="stop-color:#262626;stop-opacity:1"
         offset="0" />
      <stop
         id="stop3792"
         style="stop-color:#828282;stop-opacity:1"
         offset="1" />
    </linearGradient>
    <linearGradient
       x1="28.938274"
       y1="17.33289"
       x2="105.36545"
       y2="92.823723"
       id="linearGradient2396"
       xlink:href="#linearGradient4157-401-351"
       gradientUnits="userSpaceOnUse"
       gradientTransform="matrix(0.138442,0,0,0.1141004,-17.408582,-14.556432)" />
    <linearGradient
       id="linearGradient3242">
      <stop
         id="stop3244"
         style="stop-color:#f8b17e;stop-opacity:1"
         offset="0" />
      <stop
         id="stop3246"
         style="stop-color:#e35d4f;stop-opacity:1"
         offset="0.26238" />
      <stop
         id="stop3248"
         style="stop-color:#c6262e;stop-opacity:1"
         offset="0.66093999" />
      <stop
         id="stop3250"
         style="stop-color:#690b54;stop-opacity:1"
         offset="1" />
    </linearGradient>
    <linearGradient
       x1="229.00999"
       y1="600.00897"
       x2="229.00999"
       y2="635.00897"
       id="linearGradient4425"
       xlink:href="#linearGradient3242"
       gradientUnits="userSpaceOnUse"
       gradientTransform="matrix(-1,0,0,-1,456.02,1228.029)" />
    <linearGradient
       x1="229.00999"
       y1="600.00897"
       x2="229.00999"
       y2="635.00897"
       id="linearGradient4421"
       xlink:href="#linearGradient3242"
       gradientUnits="userSpaceOnUse"
       gradientTransform="matrix(-1,0,0,-1,456.02,1228.029)" />
    <linearGradient
       x1="229.00999"
       y1="600.00897"
       x2="229.00999"
       y2="635.00897"
       id="linearGradient4423"
       xlink:href="#linearGradient3242"
       gradientUnits="userSpaceOnUse"
       gradientTransform="matrix(-1,0,0,-1,456.02,1228.029)" />
  </defs>
  <rect
     style="fill:url(#linearGradient2401);fill-opacity:1;stroke:none;stroke-width:0.99999994;stroke-linecap:round;stroke-linejoin:miter;stroke-miterlimit:4;stroke-dasharray:none;stroke-opacity:0.3121019"
     id="rect3580"
     transform="matrix(-0.99999828,0.00185697,-8.9649108e-4,-0.9999996,0,0)"
     y="-14.00186"
     x="-14.987474"
     height="11.974027"
     width="13.98929" />
  <rect
     style="fill:url(#linearGradient2396);fill-opacity:1;stroke:url(#linearGradient2398);stroke-width:1.00000954;stroke-linecap:round;stroke-linejoin:miter;stroke-miterlimit:4;stroke-dasharray:none;stroke-opacity:1"
     id="rect3582"
     transform="matrix(-0.99999202,0.0039942,0.0022949,-0.99999737,0,0)"
     y="-12.510134"
     x="-13.508264"
     ry="0"
     rx="0"
     height="8.9561701"
     width="10.979534" />
  <g
     transform="matrix(-0.57083315,0,0,0.57083315,138.1465,-341.49253)"
     id="layer12-9"
     style="color:#000000;display:inline;overflow:visible;visibility:visible;opacity:0.3;fill:#000000;fill-opacity:1;fill-rule:nonzero;stroke:none;stroke-width:0.97922993;marker:none;enable-background:accumulate">
    <path
       d="m 228.01,607.02 c -3.86,0 -7.0073,3.166 -7.0073,7.0103 0,3.8443 3.1472,6.9787 7.0073,6.9787 3.86,0 7.0073,-3.1344 7.0073,-6.9787 0,-3.8443 -3.1472,-7.0103 -7.0073,-7.0103 z m 0,2.021 c 2.7769,0 5.0097,2.2237 5.0097,4.9893 0,2.7656 -2.2328,4.9577 -5.0097,4.9577 -2.777,0 -5.0097,-2.1921 -5.0097,-4.9577 0,-2.7656 2.2328,-4.9893 5.0097,-4.9893 z"
       id="path4222-68"
       style="color:#000000;text-indent:0;text-transform:none;block-progression:tb;display:inline;overflow:visible;visibility:visible;fill:#000000;fill-opacity:1;fill-rule:nonzero;stroke:none;stroke-width:0.97922993;marker:none;enable-background:accumulate" />
    <path
       d="m 231.3069,609.3114 -8,8 1.4062,1.4062 8,-8 -1.4062,-1.4062 z"
       id="path4992-7"
       style="color:#000000;text-indent:0;text-transform:none;block-progression:tb;display:inline;overflow:visible;visibility:visible;fill:#000000;fill-opacity:1;fill-rule:nonzero;stroke:none;stroke-width:0.97922993;marker:none;enable-background:accumulate" />
  </g>
  <g
     transform="matrix(0.57083315,0,0,-0.57083315,-122.16483,358.50714)"
     id="layer12"
     style="color:#000000;display:inline;overflow:visible;visibility:visible;fill:url(#linearGradient4425);fill-opacity:1;fill-rule:nonzero;stroke:none;marker:none;enable-background:accumulate">
    <path
       d="m 228.01,607.02 c -3.86,0 -7.0073,3.166 -7.0073,7.0103 0,3.8443 3.1472,6.9787 7.0073,6.9787 3.86,0 7.0073,-3.1344 7.0073,-6.9787 0,-3.8443 -3.1472,-7.0103 -7.0073,-7.0103 z m 0,2.021 c 2.7769,0 5.0097,2.2237 5.0097,4.9893 0,2.7656 -2.2328,4.9577 -5.0097,4.9577 -2.777,0 -5.0097,-2.1921 -5.0097,-4.9577 0,-2.7656 2.2328,-4.9893 5.0097,-4.9893 z"
       id="path4222"
       style="color:#000000;text-indent:0;text-transform:none;block-progression:tb;display:inline;overflow:visible;visibility:visible;fill:url(#linearGradient4421);fill-opacity:1;fill-rule:nonzero;stroke:none;marker:none;enable-background:accumulate" />
    <path
       d="m 231.3069,609.3114 -8,8 1.4062,1.4062 8,-8 -1.4062,-1.4062 z"
       id="path4992"
       style="color:#000000;text-indent:0;text-transform:none;block-progression:tb;display:inline;overflow:visible;visibility:visible;fill:url(#linearGradient4423);fill-opacity:1;fill-rule:nonzero;stroke:none;marker:none;enable-background:accumulate" />
  </g>
  <rect
     width="14.988589"
     height="12.971473"
     x="-15.487201"
     y="-14.500747"
     transform="matrix(-0.99999824,0.00187754,-8.8667e-4,-0.99999961,0,0)"
     id="rect4164"
     style="fill:none;fill-opacity:1;stroke:#000000;stroke-width:1.00000024;stroke-linecap:round;stroke-linejoin:round;stroke-miterlimit:4;stroke-dasharray:none;stroke-opacity:0.49803922" />
</svg>
