<svg xmlns="http://www.w3.org/2000/svg" xmlns:xlink="http://www.w3.org/1999/xlink" viewBox="0 0 16 16"><defs><linearGradient id="c"><stop offset="0" stop-color="#fff"/><stop offset=".268" stop-color="#fff" stop-opacity=".235"/><stop offset=".694" stop-color="#fff" stop-opacity=".157"/><stop offset="1" stop-color="#fff" stop-opacity=".392"/></linearGradient><linearGradient id="a"><stop offset="0"/><stop offset="1" stop-opacity="0"/></linearGradient><linearGradient gradientTransform="translate(0 1.5)" gradientUnits="userSpaceOnUse" y2="1" x2="8" y1="15" x1="8" id="d" xlink:href="#a"/><linearGradient id="b"><stop offset="0" stop-color="#fff3cb"/><stop offset=".262" stop-color="#fdde76"/><stop offset=".661" stop-color="#f9c440"/><stop offset="1" stop-color="#e48b20"/></linearGradient><linearGradient x1="27.084" y1="2.711" x2="49.414" y2="25.042" id="e" xlink:href="#b" gradientUnits="userSpaceOnUse" gradientTransform="scale(.66667 .66498) rotate(45 24.826 -17.924)"/><linearGradient gradientUnits="userSpaceOnUse" y2="12.225" x2="7.624" y1="6.727" x1="7.624" id="f" xlink:href="#c"/></defs><path d="M8.217 2.314a.5.5 0 0 0-.463.315l-.47 1.185v.004L6.1 6.874h.025c-.01 0-.018 0-.027.002l-.002.006a.492.492 0 0 0-.012.037l.012-.043-3.34.187-1.28.063a.5.5 0 0 0-.29.887l1 .812 2.408 1.945v-.207a.5.5 0 0 0 .183.387l.035-.095a.5.5 0 0 0-.03.147l-.827 3.117-.344 1.246a.5.5 0 0 0 .76.55l1.09-.718 2.76-1.796 2.757 1.795 1.092.718a.5.5 0 0 0 .757-.55l-.344-1.25-.826-3.12v.033a.5.5 0 0 0-.02-.145l.024.064a.5.5 0 0 0 .185-.382v.203l2.408-1.944 1-.812a.5.5 0 0 0-.29-.887l-1.28-.063-3.342-.187a.5.5 0 0 0-.026-.002h.025L9.153 3.82l-.002-.004-.468-1.187a.5.5 0 0 0-.467-.317z" style="line-height:normal;-inkscape-font-specification:sans-serif;text-indent:0;text-align:start;text-decoration-line:none;text-decoration-style:solid;text-decoration-color:#000;text-transform:none;block-progression:tb;isolation:auto;mix-blend-mode:normal" color="#000" font-weight="400" font-family="sans-serif" white-space="normal" overflow="visible" opacity=".1" fill="url(#d)"/><path d="M8.22 1.812L6.47 6.375l-4.97.25L5.375 9.78l-1.28 4.72 4.124-2.688 4.123 2.687-1.282-4.72 3.876-3.157-4.968-.25z" style="line-height:normal;-inkscape-font-specification:sans-serif;text-indent:0;text-align:start;text-decoration-line:none;text-transform:none;block-progression:tb;isolation:auto;mix-blend-mode:normal;filter-blend-mode:normal;filter-gaussianBlur-deviation:0" color="#000" font-weight="400" font-family="sans-serif" overflow="visible" fill="url(#e)" fill-rule="evenodd"/><path d="M8.22 1.812L6.47 6.375l-4.97.25L5.375 9.78l-1.28 4.72 4.124-2.688 4.123 2.687-1.282-4.72 3.876-3.157-4.968-.25z" style="line-height:normal;-inkscape-font-specification:sans-serif;text-indent:0;text-align:start;text-decoration-line:none;text-transform:none;block-progression:tb;isolation:auto;mix-blend-mode:normal;filter-blend-mode:normal;filter-gaussianBlur-deviation:0" color="#000" font-weight="400" font-family="sans-serif" overflow="visible" opacity=".5" fill="none" stroke="#906200" stroke-linejoin="round"/><path d="M8.22 4.6L7.4 6.732a.998.998 0 0 1-.88.64l-2.377.118 1.863 1.518a.998.998 0 0 1 .332 1.035l-.596 2.19 1.932-1.256a.998.998 0 0 1 1.09 0l1.93 1.257-.594-2.19a.998.998 0 0 1 .332-1.036l1.863-1.518-2.377-.12a.998.998 0 0 1-.88-.638L8.218 4.6z" style="line-height:normal;-inkscape-font-specification:sans-serif;text-indent:0;text-align:start;text-decoration-line:none;text-transform:none;block-progression:tb;isolation:auto;mix-blend-mode:normal" color="#000" font-weight="400" font-family="sans-serif" overflow="visible" opacity=".5" fill="none" stroke="url(#f)"/></svg>