<?xml version="1.0" encoding="UTF-8" standalone="no"?>
<svg
   height="16"
   width="16"
   version="1.1"
   id="svg6"
   sodipodi:docname="user-available.svg"
   inkscape:version="1.2.2 (b0a8486541, 2022-12-01)"
   xmlns:inkscape="http://www.inkscape.org/namespaces/inkscape"
   xmlns:sodipodi="http://sodipodi.sourceforge.net/DTD/sodipodi-0.dtd"
   xmlns:xlink="http://www.w3.org/1999/xlink"
   xmlns="http://www.w3.org/2000/svg"
   xmlns:svg="http://www.w3.org/2000/svg"
   xmlns:rdf="http://www.w3.org/1999/02/22-rdf-syntax-ns#"
   xmlns:cc="http://creativecommons.org/ns#"
   xmlns:dc="http://purl.org/dc/elements/1.1/">
  <sodipodi:namedview
     id="namedview7"
     pagecolor="#ffffff"
     bordercolor="#000000"
     borderopacity="0.25"
     inkscape:showpageshadow="2"
     inkscape:pageopacity="0.0"
     inkscape:pagecheckerboard="0"
     inkscape:deskcolor="#d1d1d1"
     showgrid="false"
     inkscape:zoom="32"
     inkscape:cx="-2.578125"
     inkscape:cy="8.3125"
     inkscape:window-width="1413"
     inkscape:window-height="929"
     inkscape:window-x="503"
     inkscape:window-y="86"
     inkscape:window-maximized="0"
     inkscape:current-layer="svg6" />
  <metadata
     id="metadata12">
    <rdf:RDF>
      <cc:Work
         rdf:about="">
        <dc:format>image/svg+xml</dc:format>
        <dc:type
           rdf:resource="http://purl.org/dc/dcmitype/StillImage" />
      </cc:Work>
    </rdf:RDF>
  </metadata>
  <defs
     id="defs10">
    <linearGradient
       inkscape:collect="always"
       id="linearGradient1269">
      <stop
         style="stop-color:#d1ff82;stop-opacity:1"
         offset="0"
         id="stop1265" />
      <stop
         style="stop-color:#68b723;stop-opacity:1"
         offset="1"
         id="stop1267" />
    </linearGradient>
    <linearGradient
       inkscape:collect="always"
       xlink:href="#linearGradient1269"
       id="linearGradient1271"
       x1="7.4973736"
       y1="-0.034601465"
       x2="7.4973736"
       y2="15.94638"
       gradientUnits="userSpaceOnUse" />
    <linearGradient
       x1="23.99999"
       y1="7.57515"
       x2="23.99999"
       y2="40.453663"
       id="linearGradient3304"
       xlink:href="#linearGradient3924-4-8"
       gradientUnits="userSpaceOnUse"
       gradientTransform="matrix(0.35135136,0,0,0.24324326,-0.43242761,1.1621669)" />
    <linearGradient
       id="linearGradient3924-4-8">
      <stop
         id="stop3926-0-4"
         style="stop-color:#ffffff;stop-opacity:1"
         offset="0" />
      <stop
         id="stop3928-6-8"
         style="stop-color:#ffffff;stop-opacity:0.23529412"
         offset="0.18725416" />
      <stop
         id="stop3930-2-1"
         style="stop-color:#ffffff;stop-opacity:0.15686275"
         offset="0.81214726" />
      <stop
         id="stop3932-9-0"
         style="stop-color:#ffffff;stop-opacity:0.39215687"
         offset="1" />
    </linearGradient>
  </defs>
  <path
     id="rect342"
     style="opacity:1;fill:url(#linearGradient1271);fill-opacity:1;stroke-width:1;stroke-linejoin:round;-inkscape-stroke:none;paint-order:fill markers stroke;stop-color:#000000"
     d="M 5.5 1.5 C 2.7300028 1.5 0.5 3.7300028 0.5 6.5 L 0.5 7.5 C 0.5 10.269997 2.7300028 12.5 5.5 12.5 L 10.285156 12.5 C 11.152334 13.460529 12.644559 13.5 13.25 13.5 C 13.869635 13.5 14.842823 13.477278 15.5 13.044922 C 14.820436 12.539722 14.077882 11.982426 13.503906 11.503906 C 14.718004 10.593337 15.5 9.1411522 15.5 7.5 L 15.5 6.5 C 15.5 3.7300028 13.269997 1.5 10.5 1.5 L 5.5 1.5 z " />
  <path
     style="color:#000000;opacity:0.5;fill:url(#linearGradient3304);stroke-linecap:round;stroke-linejoin:round;-inkscape-stroke:none"
     d="M 5.5,2 C 3.0156511,2 1,4.0156511 1,6.5 v 1 C 1,9.9843489 3.0156511,12 5.5,12 h 5 c 0.168199,0 0.247315,0.04044 0.443394,0.236521 C 11.599553,12.89268 12.54987,13 13,13 c 0.432363,0 1.024528,0.0032 1.511014,-0.06924 l -1.379101,-1.071294 c -0.229407,-0.30045 -0.130447,-0.579699 0.0097,-0.716529 C 14.267572,10.324832 15,8.9975716 15,7.5 v -1 C 15,4.0156511 12.984349,2 10.5,2 Z m 0,1 h 5 C 12.447647,3 14,4.5523533 14,6.5 v 1 C 14,9.4476467 12.447647,11 10.5,11 h -5 C 3.5523533,11 2,9.4476467 2,7.5 v -1 C 2,4.5523533 3.5523533,3 5.5,3 Z"
     id="rect6741-0-3-5"
     sodipodi:nodetypes="ssssssscccsssssssssssss" />
  <path
     id="rect6296"
     style="opacity:1;fill:none;fill-opacity:1;stroke:#206b00;stroke-width:1;stroke-linejoin:round;stroke-opacity:0.5;-inkscape-stroke:none;paint-order:fill markers stroke;stop-color:#000000"
     d="m 5.5,1.5 c -2.7699972,0 -5,2.2300028 -5,5 v 1 c 0,2.769997 2.2300028,5 5,5 h 5 c 0.824354,0.961423 2.239692,1 2.75,1 0.510308,0 1.504666,0.05058 2.25,-0.455078 -0.678426,-0.523619 -1.431956,-1.098573 -2,-1.544922 1.130474,-0.725121 2,-2.4687502 2,-4 v -1 c 0,-2.7699972 -2.230003,-5 -5,-5 z"
     sodipodi:nodetypes="ssssczccssss" />
</svg>
