<svg xmlns="http://www.w3.org/2000/svg" xmlns:xlink="http://www.w3.org/1999/xlink" viewBox="0 0 16 16"><defs><linearGradient id="a"><stop offset="0" stop-color="#fff"/><stop offset=".508" stop-color="#fff" stop-opacity=".235"/><stop offset=".835" stop-color="#fff" stop-opacity=".157"/><stop offset="1" stop-color="#fff" stop-opacity=".392"/></linearGradient><linearGradient x1="71.204" y1="5.008" x2="71.204" y2="44.341" id="d" xlink:href="#a" gradientUnits="userSpaceOnUse" gradientTransform="translate(-9.45 1.832) scale(.24324)"/><linearGradient id="b"><stop offset="0" stop-color="#fff3cb"/><stop offset=".262" stop-color="#fdde76"/><stop offset=".661" stop-color="#f9c440"/><stop offset="1" stop-color="#e48b20"/></linearGradient><linearGradient gradientTransform="matrix(.4714 .4702 -.4714 .4702 -3.82 -15.32)" gradientUnits="userSpaceOnUse" xlink:href="#b" id="c" y2="25.042" x2="49.414" y1="2.711" x1="27.084"/></defs><path d="M8 2.5A5.504 5.504 0 0 0 2.5 8c0 3.035 2.465 5.5 5.5 5.5s5.5-2.465 5.5-5.5S11.035 2.5 8 2.5z" style="isolation:auto;mix-blend-mode:normal;filter-blend-mode:normal;filter-gaussianBlur-deviation:0" color="#000" fill="url(#c)" fill-rule="evenodd" overflow="visible"/><path d="M12.5 8a4.5 4.5 0 1 1-9 0 4.5 4.5 0 0 1 9 0z" opacity=".8" color="#000" fill="none" stroke="url(#d)" stroke-linecap="round" stroke-linejoin="round" overflow="visible"/><path d="M8 2.5A5.504 5.504 0 0 0 2.5 8c0 3.035 2.465 5.5 5.5 5.5s5.5-2.465 5.5-5.5S11.035 2.5 8 2.5z" style="isolation:auto;mix-blend-mode:normal;filter-blend-mode:normal;filter-gaussianBlur-deviation:0" opacity=".5" color="#000" fill="none" stroke="#956500" stroke-linejoin="round" overflow="visible"/></svg>