<?xml version="1.0" encoding="UTF-8" standalone="no"?>
<!-- Created with Inkscape (http://www.inkscape.org/) -->
<svg
   xmlns:svg="http://www.w3.org/2000/svg"
   xmlns="http://www.w3.org/2000/svg"
   xmlns:xlink="http://www.w3.org/1999/xlink"
   version="1.0"
   width="32"
   height="32"
   id="svg3786">
  <defs
     id="defs3788">
    <linearGradient
       id="linearGradient6332-24-473-272">
      <stop
         id="stop6164"
         style="stop-color:#f9650d;stop-opacity:1"
         offset="0" />
      <stop
         id="stop6166"
         style="stop-color:#c15619;stop-opacity:1"
         offset="1" />
    </linearGradient>
    <radialGradient
       cx="96.124382"
       cy="-26.100422"
       r="38.212933"
       fx="96.124382"
       fy="-26.100426"
       id="radialGradient3590"
       xlink:href="#linearGradient6332-24-473-272"
       gradientUnits="userSpaceOnUse"
       gradientTransform="matrix(-1.7629516e-4,0.315461,-0.4963434,-3.2574251e-4,-9.1475961,-29.277944)" />
    <linearGradient
       id="linearGradient6316-673-936-474">
      <stop
         id="stop6158"
         style="stop-color:#ffc391;stop-opacity:1"
         offset="0" />
      <stop
         id="stop6160"
         style="stop-color:#fa650b;stop-opacity:1"
         offset="1" />
    </linearGradient>
    <radialGradient
       cx="103.93583"
       cy="-34.003952"
       r="38.212933"
       fx="103.93583"
       fy="-34.003952"
       id="radialGradient3588"
       xlink:href="#linearGradient6316-673-936-474"
       gradientUnits="userSpaceOnUse"
       gradientTransform="matrix(-1.7632463e-4,0.315461,-0.5009554,0,-13.225907,-31.733645)" />
    <radialGradient
       cx="100.62272"
       cy="-22.827475"
       r="116.21894"
       fx="100.62272"
       fy="-22.827475"
       id="radialGradient3585"
       xlink:href="#linearGradient6280"
       gradientUnits="userSpaceOnUse"
       gradientTransform="matrix(1.2345495e-2,8.1234139e-3,-4.8042953e-2,7.1615409e-2,3.2992614,6.1980608)" />
    <radialGradient
       cx="26.685698"
       cy="30.945623"
       r="26.269466"
       fx="26.685698"
       fy="30.945623"
       id="radialGradient3582"
       xlink:href="#linearGradient6280"
       gradientUnits="userSpaceOnUse"
       gradientTransform="matrix(5.3089892e-2,-1.8910888e-3,2.6831758e-3,7.3885052e-2,-5.1454685e-2,7.0155668)" />
    <radialGradient
       cx="26.685698"
       cy="30.945623"
       r="26.269466"
       fx="26.685698"
       fy="30.945623"
       id="radialGradient3579"
       xlink:href="#linearGradient6280"
       gradientUnits="userSpaceOnUse"
       gradientTransform="matrix(4.8794743e-2,-1.7380933e-3,2.4660979e-3,6.7907473e-2,13.855651,-0.6198562)" />
    <linearGradient
       id="linearGradient6280">
      <stop
         id="stop6282"
         style="stop-color:#ffffff;stop-opacity:1"
         offset="0" />
      <stop
         id="stop6284"
         style="stop-color:#ffffff;stop-opacity:0"
         offset="1" />
    </linearGradient>
    <radialGradient
       cx="100.62272"
       cy="-22.827475"
       r="116.21894"
       fx="100.62272"
       fy="-22.827475"
       id="radialGradient3576"
       xlink:href="#linearGradient6280"
       gradientUnits="userSpaceOnUse"
       gradientTransform="matrix(7.6660614e-4,1.4328114e-2,8.4335052e-2,-4.7124157e-3,12.115709,1.1908938)" />
    <linearGradient
       id="linearGradient2264">
      <stop
         id="stop2266"
         style="stop-color:#d7e866;stop-opacity:1"
         offset="0" />
      <stop
         id="stop2268"
         style="stop-color:#8cab2a;stop-opacity:1"
         offset="1" />
    </linearGradient>
    <linearGradient
       x1="25"
       y1="11.923377"
       x2="25"
       y2="40.32198"
       id="linearGradient2759"
       xlink:href="#linearGradient2264"
       gradientUnits="userSpaceOnUse"
       gradientTransform="matrix(0.4057041,0,0,0.4031413,10.258868,2.1015758)" />
    <linearGradient
       id="linearGradient5113">
      <stop
         id="stop5115"
         style="stop-color:#ffffff;stop-opacity:1"
         offset="0" />
      <stop
         id="stop5117"
         style="stop-color:#ffffff;stop-opacity:0"
         offset="1" />
    </linearGradient>
    <linearGradient
       x1="58.748795"
       y1="2.047786"
       x2="105.32369"
       y2="58.047787"
       id="linearGradient2756"
       xlink:href="#linearGradient5113"
       gradientUnits="userSpaceOnUse"
       gradientTransform="matrix(0.4075861,0,0,0.4031413,-12.06351,0.8728848)" />
    <linearGradient
       id="linearGradient5026">
      <stop
         id="stop5028"
         style="stop-color:#f5f5f5;stop-opacity:1"
         offset="0" />
      <stop
         id="stop5030"
         style="stop-color:#e7e7e7;stop-opacity:1"
         offset="0.27751356" />
      <stop
         id="stop5032"
         style="stop-color:#8c8c8c;stop-opacity:1"
         offset="0.52359134" />
      <stop
         id="stop5034"
         style="stop-color:#dddddd;stop-opacity:1"
         offset="1" />
      <stop
         id="stop5036"
         style="stop-color:#a8a8a8;stop-opacity:1"
         offset="1" />
    </linearGradient>
    <linearGradient
       id="linearGradient5060">
      <stop
         id="stop5062"
         style="stop-color:#000000;stop-opacity:1"
         offset="0" />
      <stop
         id="stop5064"
         style="stop-color:#000000;stop-opacity:0"
         offset="1" />
    </linearGradient>
    <linearGradient
       id="linearGradient5048">
      <stop
         id="stop5050"
         style="stop-color:#000000;stop-opacity:0"
         offset="0" />
      <stop
         id="stop5056"
         style="stop-color:#000000;stop-opacity:1"
         offset="0.5" />
      <stop
         id="stop5052"
         style="stop-color:#000000;stop-opacity:0"
         offset="1" />
    </linearGradient>
    <linearGradient
       x1="19.635744"
       y1="23.297283"
       x2="13.81718"
       y2="9.7483387"
       id="linearGradient2461"
       xlink:href="#linearGradient3484-2"
       gradientUnits="userSpaceOnUse"
       gradientTransform="matrix(0.6874548,0,0,0.6642584,-0.4986866,0.5245843)" />
    <linearGradient
       x1="29.9375"
       y1="41"
       x2="30"
       y2="49.999996"
       id="linearGradient2465"
       xlink:href="#linearGradient2215-9"
       gradientUnits="userSpaceOnUse"
       gradientTransform="matrix(0.6886478,0,0,0.5067185,-3.9708843,4.4552574)" />
    <linearGradient
       x1="302.85715"
       y1="366.64789"
       x2="302.85715"
       y2="609.50507"
       id="linearGradient2471"
       xlink:href="#linearGradient5048"
       gradientUnits="userSpaceOnUse"
       gradientTransform="matrix(7.635654e-2,0,0,2.184879e-2,1.4025717,30.138555)" />
    <radialGradient
       cx="605.71429"
       cy="486.64789"
       r="117.14286"
       fx="605.71429"
       fy="486.64789"
       id="radialGradient2473"
       xlink:href="#linearGradient5060"
       gradientUnits="userSpaceOnUse"
       gradientTransform="matrix(4.484747e-2,0,0,2.184879e-2,20.38888,30.138555)" />
    <radialGradient
       cx="605.71429"
       cy="486.64789"
       r="117.14286"
       fx="605.71429"
       fy="486.64789"
       id="radialGradient2475"
       xlink:href="#linearGradient5060"
       gradientUnits="userSpaceOnUse"
       gradientTransform="matrix(-4.484747e-2,0,0,2.184879e-2,37.61113,30.138555)" />
    <radialGradient
       cx="113.0654"
       cy="97.587898"
       r="2.5631001"
       fx="113.667"
       fy="98"
       id="radialGradient3437"
       gradientUnits="userSpaceOnUse">
      <stop
         id="stop3439"
         style="stop-color:#eeeeee;stop-opacity:1"
         offset="0" />
      <stop
         id="stop3441"
         style="stop-color:#cecece;stop-opacity:1"
         offset="0.16" />
      <stop
         id="stop3443"
         style="stop-color:#888888;stop-opacity:1"
         offset="0.4675" />
      <stop
         id="stop3445"
         style="stop-color:#555555;stop-opacity:1"
         offset="1" />
    </radialGradient>
    <radialGradient
       cx="113.0654"
       cy="97.587898"
       r="2.5631001"
       fx="113.667"
       fy="98"
       id="radialGradient3789"
       xlink:href="#radialGradient3437"
       gradientUnits="userSpaceOnUse"
       gradientTransform="matrix(2.4956521,0,0,2.4956521,-223.97574,-53.226089)" />
    <radialGradient
       cx="113.0654"
       cy="97.587898"
       r="2.5631001"
       fx="113.667"
       fy="98"
       id="radialGradient3793"
       xlink:href="#radialGradient3437"
       gradientUnits="userSpaceOnUse"
       gradientTransform="matrix(2.4956521,0,0,2.4956521,-223.97574,-53.226089)" />
    <radialGradient
       cx="113.0654"
       cy="97.587898"
       r="2.5631001"
       fx="113.667"
       fy="98"
       id="radialGradient3797"
       xlink:href="#radialGradient3437"
       gradientUnits="userSpaceOnUse"
       gradientTransform="matrix(2.4956521,0,0,2.4956521,-223.97574,-53.226089)" />
    <radialGradient
       cx="113.0654"
       cy="97.587898"
       r="2.5631001"
       fx="113.667"
       fy="98"
       id="radialGradient3801"
       xlink:href="#radialGradient3437"
       gradientUnits="userSpaceOnUse"
       gradientTransform="matrix(2.4956521,0,0,2.4956521,-223.97574,-53.226089)" />
    <radialGradient
       cx="142.62215"
       cy="191.85428"
       r="78.728165"
       fx="142.62215"
       fy="191.85428"
       id="radialGradient3820"
       xlink:href="#linearGradient4035"
       gradientUnits="userSpaceOnUse"
       gradientTransform="matrix(0.1233016,0,0,-8.625852e-2,-2.074113,31.247748)" />
    <radialGradient
       cx="127.31733"
       cy="143.82751"
       r="78.728165"
       fx="127.31733"
       fy="143.82751"
       id="radialGradient3827"
       xlink:href="#linearGradient5026"
       gradientUnits="userSpaceOnUse"
       gradientTransform="matrix(0.126479,-1.718782e-2,5.71677e-3,5.12009e-2,-5.1165779,6.5256499)" />
    <radialGradient
       cx="141.74666"
       cy="206.42612"
       r="78.728165"
       fx="141.74666"
       fy="206.42612"
       id="radialGradient3831"
       xlink:href="#linearGradient4035"
       gradientUnits="userSpaceOnUse"
       gradientTransform="matrix(0.2481943,-3.14007e-3,1.83689e-3,0.1806732,-20.017169,-13.633933)" />
    <linearGradient
       id="linearGradient4236-0">
      <stop
         id="stop4238-4"
         style="stop-color:#eeeeee;stop-opacity:1"
         offset="0" />
      <stop
         id="stop4240-3"
         style="stop-color:#eeeeee;stop-opacity:0"
         offset="1" />
    </linearGradient>
    <linearGradient
       id="linearGradient6309">
      <stop
         id="stop6311"
         style="stop-color:#000000;stop-opacity:1"
         offset="0" />
      <stop
         id="stop6313"
         style="stop-color:#bbbbbb;stop-opacity:0"
         offset="1" />
    </linearGradient>
    <linearGradient
       id="linearGradient4035">
      <stop
         id="stop4037"
         style="stop-color:#f5f5f5;stop-opacity:1"
         offset="0" />
      <stop
         id="stop4039"
         style="stop-color:#e7e7e7;stop-opacity:1"
         offset="0.47025558" />
      <stop
         id="stop4041"
         style="stop-color:#8c8c8c;stop-opacity:1"
         offset="0.69348532" />
      <stop
         id="stop4043"
         style="stop-color:#dddddd;stop-opacity:1"
         offset="0.83542866" />
      <stop
         id="stop4045"
         style="stop-color:#a8a8a8;stop-opacity:1"
         offset="1" />
    </linearGradient>
    <linearGradient
       id="linearGradient2215-9">
      <stop
         id="stop2223-6"
         style="stop-color:#7a7a7a;stop-opacity:1"
         offset="0" />
      <stop
         id="stop2219-1"
         style="stop-color:#474747;stop-opacity:1"
         offset="1" />
    </linearGradient>
    <linearGradient
       id="linearGradient7056-0">
      <stop
         id="stop7064-4"
         style="stop-color:#e6e6e6;stop-opacity:1"
         offset="0" />
      <stop
         id="stop7060-2"
         style="stop-color:#c8c8c8;stop-opacity:1"
         offset="1" />
    </linearGradient>
    <linearGradient
       id="linearGradient3484-2">
      <stop
         id="stop3486-2"
         style="stop-color:#969696;stop-opacity:1"
         offset="0" />
      <stop
         id="stop3488-0"
         style="stop-color:#b4b4b4;stop-opacity:1"
         offset="1" />
    </linearGradient>
    <linearGradient
       id="linearGradient6310-8">
      <stop
         id="stop6312-6"
         style="stop-color:#ffffff;stop-opacity:1"
         offset="0" />
      <stop
         id="stop6314-6"
         style="stop-color:#ffffff;stop-opacity:0"
         offset="1" />
    </linearGradient>
    <radialGradient
       cx="24"
       cy="42"
       r="21"
       fx="24"
       fy="42"
       id="radialGradient4226"
       xlink:href="#linearGradient6310-8"
       gradientUnits="userSpaceOnUse"
       gradientTransform="matrix(0.7142857,0,1.9866158e-8,0.2142857,-1.1428556,18.500001)" />
    <linearGradient
       x1="12.277412"
       y1="37.205811"
       x2="12.221823"
       y2="33.758667"
       id="linearGradient4235"
       xlink:href="#linearGradient4236-0"
       gradientUnits="userSpaceOnUse"
       gradientTransform="matrix(0.7930465,0,0,0.5393258,-1.209199,9.1869586)" />
    <linearGradient
       x1="7.0625"
       y1="35.28125"
       x2="24.6875"
       y2="35.28125"
       id="linearGradient4238"
       xlink:href="#linearGradient6309"
       gradientUnits="userSpaceOnUse"
       gradientTransform="matrix(0.7930465,0,0,0.5393258,-0.5783367,8.4719091)" />
    <radialGradient
       cx="10"
       cy="7.2368369"
       r="16"
       fx="10"
       fy="7.2368369"
       id="radialGradient5024"
       xlink:href="#linearGradient7056-0"
       gradientUnits="userSpaceOnUse"
       gradientTransform="matrix(1.4045128,0,0,0.9375,-4.0451283,4.2154656)" />
  </defs>
  <g
     transform="matrix(0.6666596,0,0,0.6259973,-3.3331284,3.7969778)"
     id="g6029"
     style="display:inline;enable-background:new">
    <rect
       width="36.869301"
       height="5.3061337"
       x="10.565332"
       y="38.149361"
       id="rect2723"
       style="opacity:0.40206185;fill:url(#linearGradient2471);fill-opacity:1;fill-rule:nonzero;stroke:none;stroke-width:0.5;marker:none;visibility:visible;display:inline;overflow:visible" />
    <path
       d="M 47.41667,38.149545 C 47.41667,38.149545 47.41667,43.455385 47.41667,43.455385 C 49.7262,43.465385 53,42.266615 53,40.802125 C 53,39.337635 50.42274,38.149545 47.41667,38.149545 z"
       id="path2725"
       style="opacity:0.40206185;fill:url(#radialGradient2473);fill-opacity:1;fill-rule:nonzero;stroke:none;stroke-width:0.5;marker:none;visibility:visible;display:inline;overflow:visible" />
    <path
       d="M 10.58333,38.149545 C 10.58333,38.149545 10.58333,43.455385 10.58333,43.455385 C 8.2737899,43.465375 5,42.266615 5,40.802125 C 5,39.337635 7.5772699,38.149545 10.58333,38.149545 z"
       id="path2727"
       style="opacity:0.40206185;fill:url(#radialGradient2475);fill-opacity:1;fill-rule:nonzero;stroke:none;stroke-width:1;marker:none;visibility:visible;display:inline;overflow:visible" />
  </g>
  <path
     d="M 0.50764664,25.485779 L 31.492152,25.485779 L 30.872626,29.53611 L 1.1960397,29.53611 L 0.50764664,25.485779 L 0.50764664,25.485779 z"
     id="rect6431"
     style="fill:url(#linearGradient2465);fill-opacity:1;fill-rule:evenodd;stroke:#353537;stroke-width:0.92799884;stroke-linecap:round;stroke-linejoin:round;stroke-miterlimit:4;stroke-dasharray:none;stroke-dashoffset:0;stroke-opacity:1;display:inline;enable-background:new" />
  <rect
     width="31"
     height="1"
     x="0.5"
     y="25"
     id="rect6381"
     style="fill:#d2d2d3;fill-opacity:1;fill-rule:evenodd;stroke:none;display:inline;enable-background:new" />
  <path
     d="M 31.502339,25.502101 L 26.821023,8.3812814 C 26.688651,7.8937324 25.995252,7.4978971 25.412312,7.4978971 L 6.4267223,7.4978971 C 5.5311474,7.4978971 5.0179505,7.6298008 4.8291053,8.3812814 L 0.49812296,25.485432"
     id="path6345"
     style="fill:url(#radialGradient5024);fill-opacity:1;fill-rule:nonzero;stroke:url(#linearGradient2461);stroke-width:0.99578333;stroke-linecap:round;stroke-linejoin:round;marker:none;stroke-miterlimit:4;stroke-dasharray:none;stroke-dashoffset:0;stroke-opacity:1;visibility:visible;display:inline;overflow:visible;enable-background:accumulate" />
  <path
     d="M 30.500001,25.507862 L 1.5000001,25.492138"
     id="path7046"
     style="opacity:0.35;fill:none;stroke:#ffffff;stroke-width:1.00000012;stroke-linecap:round;stroke-linejoin:miter;marker:none;stroke-miterlimit:4;stroke-dasharray:none;stroke-dashoffset:0;stroke-opacity:1;visibility:visible;display:inline;overflow:visible;enable-background:accumulate" />
  <g
     transform="matrix(6.707933e-2,0,0,4.653275e-2,2.4611632,-0.2130769)"
     id="g9164"
     style="display:inline;enable-background:new">
    <path
       d="M 48.2999,190.27968 C 48.61436,194.52728 53.32365,197.99124 58.81409,197.99124 C 64.30203,197.99124 68.45729,194.52728 68.09043,190.27968 C 67.72606,186.05454 63.01926,182.64298 57.58373,182.64298 C 52.1457,182.64498 47.99044,186.05454 48.2999,190.27968 z"
       id="path9166"
       style="fill:#f0f0f0;fill-opacity:1" />
    <path
       d="M 51.85122,187.29238 C 51.34959,187.83144 50.77559,188.69494 50.77559,189.84294 C 50.77559,189.92534 50.78059,190.00765 50.78559,190.095 C 51.00272,193.0224 54.67881,195.49559 58.81161,195.49559 C 61.16501,195.49559 63.31626,194.6845 64.56409,193.32188 C 65.10065,192.74039 65.71209,191.77707 65.60228,190.4943 C 65.35022,187.59186 61.67912,185.13863 57.58125,185.13863 C 55.24532,185.14063 53.10156,185.94473 51.85124,187.29238 L 51.85122,187.29238 L 51.85122,187.29238 z"
       id="path9168"
       style="fill:url(#radialGradient3789);fill-opacity:1" />
  </g>
  <g
     transform="matrix(6.707933e-2,0,0,4.653275e-2,21.361163,-0.2130769)"
     id="g9170"
     style="display:inline;enable-background:new">
    <path
       d="M 48.2999,190.27968 C 48.61436,194.52728 53.32365,197.99124 58.81409,197.99124 C 64.30203,197.99124 68.45729,194.52728 68.09043,190.27968 C 67.72606,186.05454 63.01926,182.64298 57.58373,182.64298 C 52.1457,182.64498 47.99044,186.05454 48.2999,190.27968 z"
       id="path9172"
       style="fill:#e6e6e6;fill-opacity:1" />
    <path
       d="M 51.85122,187.29238 C 51.34959,187.83144 50.77559,188.69494 50.77559,189.84294 C 50.77559,189.92534 50.78059,190.00765 50.78559,190.095 C 51.00272,193.0224 54.67881,195.49559 58.81161,195.49559 C 61.16501,195.49559 63.31626,194.6845 64.56409,193.32188 C 65.10065,192.74039 65.71209,191.77707 65.60228,190.4943 C 65.35022,187.59186 61.67912,185.13863 57.58125,185.13863 C 55.24532,185.14063 53.10156,185.94473 51.85124,187.29238 L 51.85122,187.29238 L 51.85122,187.29238 z"
       id="path9174"
       style="fill:url(#radialGradient3793);fill-opacity:1" />
  </g>
  <path
     d="M 19.375,8.75 C 19.016064,8.75 18.69214,8.831146 18.4375,8.96875 C 18.18286,9.1063539 17.981999,9.3336375 17.96875,9.625 C 17.93688,10.32369 17.429308,10.8506 16.46875,11.34375 C 15.514353,11.833737 14.135046,12.242578 12.46875,12.625 C 12.45799,12.6275 12.44828,12.6225 12.4375,12.625 C 11.817125,12.72222 10.781967,12.969339 9.78125,13.25 C 8.7812901,13.530449 7.8620609,13.842616 7.4375,14.0625 C 7.43244,14.0651 7.41117,14.0599 7.40625,14.0625 C 5.2944982,15.064916 3.968363,16.417426 3.78125,17.9375 C 3.6100457,19.328175 4.4284433,20.709111 6,21.78125 C 8.2980815,23.349089 12.017995,24.25 16,24.25 C 19.982015,24.25 23.732003,23.349686 26.03125,21.78125 C 27.466736,20.802134 28.25,19.579316 28.25,18.3125 C 28.25,18.173909 28.23062,18.041035 28.21875,17.9375 C 28.055185,16.60835 27.021727,15.389639 25.34375,14.4375 C 25.291448,13.885956 24.875,9.59375 24.875,9.59375 C 24.847537,9.3032356 24.633529,9.1050939 24.375,8.96875 C 24.116471,8.8324061 23.795003,8.75 23.4375,8.75 L 19.375,8.75 z M 19.375,9.40625 L 23.4375,9.40625 C 23.52035,9.40625 23.580392,9.42599 23.625,9.4375 L 24.09375,14.53125 C 24.093104,14.541657 24.093104,14.552093 24.09375,14.5625 C 24.101215,14.584683 24.111733,14.605718 24.125,14.625 C 24.147326,14.664055 24.179695,14.696424 24.21875,14.71875 C 25.864445,15.563083 26.837179,16.835837 26.96875,17.90625 C 27.05076,18.572054 26.830044,19.183828 26.34375,19.75 C 25.857456,20.316172 25.084571,20.820089 24.09375,21.25 C 22.112108,22.109822 19.257438,22.625 16,22.625 C 12.742567,22.625 9.8878597,22.109822 7.90625,21.25 C 6.9154451,20.820089 6.1425596,20.316175 5.65625,19.75 C 5.1699404,19.183825 4.9493034,18.572058 5.03125,17.90625 C 5.172513,16.759032 6.2394076,15.433903 8.09375,14.5625 C 8.1041566,14.563146 8.1145934,14.563146 8.125,14.5625 C 8.12919,14.5597 8.225867,14.51522 8.34375,14.46875 C 8.461633,14.42228 8.6307512,14.342583 8.8125,14.28125 C 9.1759976,14.158583 9.6327098,14.017053 10.125,13.875 C 11.10958,13.590895 12.205895,13.326594 12.75,13.25 C 12.760407,13.250646 12.770843,13.250646 12.78125,13.25 C 14.391994,12.882197 15.938037,12.442272 17.125,11.84375 C 18.266118,11.268345 19.078845,10.494364 19.1875,9.4375 C 19.21698,9.426475 19.28263,9.40625 19.375,9.40625 z"
     transform="matrix(0.9901112,0,0,0.9836066,0.1531219,0.2704918)"
     id="path3829"
     style="fill:url(#radialGradient3831);fill-opacity:1;display:inline;enable-background:new" />
  <path
     d="M 15.999844,19.999941 C 13.756538,19.999941 12.036817,19.163953 12.000561,18.055098 C 12.00028,18.042688 12,18.031268 12,18.019598 C 12,17.618347 12.225403,17.236744 12.653714,16.913636 C 13.378243,16.367468 14.629187,16.041468 16.000124,16.041468 C 17.370791,16.041468 18.621724,16.367468 19.346254,16.913636 C 19.787215,17.245829 20.013179,17.640676 19.999406,18.054946 C 19.962576,19.163813 18.242868,20 15.999844,20 L 15.999844,19.999938 L 15.999844,19.999941 z M 16.066834,17.282359 C 13.958986,17.282359 12.818153,17.490326 12.843454,18.246731 C 12.867894,18.991346 14.280997,19.586291 15.999875,19.586291 C 17.718754,19.586291 19.13185,18.991135 19.156297,18.246731 C 19.181317,17.490127 18.174681,17.282359 16.066834,17.282359 L 16.066834,17.282359 z"
     id="path9156"
     style="fill:url(#radialGradient3820);fill-opacity:1;fill-rule:nonzero;stroke-width:1;stroke-linecap:butt;stroke-linejoin:miter;marker:none;stroke-miterlimit:4;stroke-dasharray:none;stroke-dashoffset:0;stroke-opacity:1;visibility:visible;display:inline;overflow:visible;enable-background:accumulate" />
  <path
     d="M 7.25,8.90625 C 7.2371427,8.9139008 7.2264008,8.9246427 7.21875,8.9375 C 7.2058927,8.9451508 7.1951508,8.9558927 7.1875,8.96875 L 7.09375,9.1875 L 6.09375,12.4375 L 5.90625,12.96875 C 5.9044236,12.979087 5.9044236,12.989663 5.90625,13 C 5.9044236,13.010337 5.9044236,13.020913 5.90625,13.03125 C 5.9139008,13.044107 5.9246427,13.054849 5.9375,13.0625 C 5.9451508,13.075357 5.9558927,13.086099 5.96875,13.09375 C 5.9790866,13.095576 5.9896634,13.095576 6,13.09375 C 6.0103366,13.095576 6.0209134,13.095576 6.03125,13.09375 L 6.53125,12.96875 L 15.1875,10.9375 L 15.21875,10.9375 C 15.229087,10.939326 15.239663,10.939326 15.25,10.9375 C 15.739245,10.721603 16.031208,10.250059 16.09375,9.84375 C 16.12463,9.6428325 16.1139,9.4676278 16.03125,9.28125 C 15.94308,9.0823292 15.712111,8.9005137 15.46875,8.90625 L 15.4375,8.90625 L 7.46875,8.90625 L 7.28125,8.90625 C 7.2709134,8.9044236 7.2603366,8.9044236 7.25,8.90625 L 7.25,8.90625 z M 7.625,9.28125 L 15.46875,9.28125 C 15.4568,9.359007 15.43646,9.5138617 15.375,9.6875 C 15.31354,9.8611383 15.216616,10.019493 15.125,10.0625 L 6.875,12 L 7.625,9.28125 L 7.625,9.28125 z"
     transform="matrix(0.9560672,0,0,0.8999673,0.474818,1.0991212)"
     id="path3825"
     style="fill:url(#radialGradient3827);fill-opacity:1;fill-rule:nonzero;stroke:none;stroke-width:1;marker:none;visibility:visible;display:inline;overflow:visible;enable-background:accumulate" />
  <g
     transform="matrix(-9.781119e-2,0,0,0.1076727,9.1622105,3.1817486)"
     id="g9158"
     style="display:inline;enable-background:new">
    <path
       d="M 48.2999,190.27968 C 48.61436,194.52728 53.32365,197.99124 58.81409,197.99124 C 64.30203,197.99124 68.45729,194.52728 68.09043,190.27968 C 67.72606,186.05454 63.01926,182.64298 57.58373,182.64298 C 52.1457,182.64498 47.99044,186.05454 48.2999,190.27968 z"
       id="path9160"
       style="fill:#e6e6e6;fill-opacity:1" />
    <path
       d="M 51.85122,187.29238 C 51.34959,187.83144 50.77559,188.69494 50.77559,189.84294 C 50.77559,189.92534 50.78059,190.00765 50.78559,190.095 C 51.00272,193.0224 54.67881,195.49559 58.81161,195.49559 C 61.16501,195.49559 63.31626,194.6845 64.56409,193.32188 C 65.10065,192.74039 65.71209,191.77707 65.60228,190.4943 C 65.35022,187.59186 61.67912,185.13863 57.58125,185.13863 C 55.24532,185.14063 53.10156,185.94473 51.85124,187.29238 L 51.85122,187.29238 L 51.85122,187.29238 z"
       id="path9162"
       style="fill:url(#radialGradient3797);fill-opacity:1" />
  </g>
  <g
     transform="matrix(9.781119e-2,0,0,0.1076727,22.777316,3.1817486)"
     id="g9190"
     style="display:inline;enable-background:new">
    <path
       d="M 48.2999,190.27968 C 48.61436,194.52728 53.32365,197.99124 58.81409,197.99124 C 64.30203,197.99124 68.45729,194.52728 68.09043,190.27968 C 67.72606,186.05454 63.01926,182.64298 57.58373,182.64298 C 52.1457,182.64498 47.99044,186.05454 48.2999,190.27968 z"
       id="path9192"
       style="fill:#e6e6e6;fill-opacity:1" />
    <path
       d="M 51.85122,187.29238 C 51.34959,187.83144 50.77559,188.69494 50.77559,189.84294 C 50.77559,189.92534 50.78059,190.00765 50.78559,190.095 C 51.00272,193.0224 54.67881,195.49559 58.81161,195.49559 C 61.16501,195.49559 63.31626,194.6845 64.56409,193.32188 C 65.10065,192.74039 65.71209,191.77707 65.60228,190.4943 C 65.35022,187.59186 61.67912,185.13863 57.58125,185.13863 C 55.24532,185.14063 53.10156,185.94473 51.85124,187.29238 L 51.85122,187.29238 L 51.85122,187.29238 z"
       id="path9194"
       style="fill:url(#radialGradient3801);fill-opacity:1" />
  </g>
  <path
     d="M 4.699999,26 L 19,26 L 19,29 L 5.0225565,29 L 4.699999,26 z"
     id="rect9146"
     style="fill:url(#linearGradient4238);fill-opacity:1;fill-rule:evenodd;stroke:none;stroke-width:2.40899992;marker:none;visibility:visible;display:inline;overflow:visible" />
  <path
     d="M 5.0225554,28.999998 C 5.0225554,28.999998 4.8075178,26.836501 4.8075178,26.836501 C 6.2631762,28.55114 11.602058,28.999998 15.282592,28.999998 C 15.282592,28.999998 5.0225554,28.999998 5.0225554,28.999998 L 5.0225554,28.999998 z"
     id="path9148"
     style="opacity:0.81142853;fill:url(#linearGradient4235);fill-opacity:1;fill-rule:evenodd;stroke:none" />
  <rect
     width="30"
     height="3"
     x="1"
     y="26"
     id="rect6300-3"
     style="opacity:0.2;fill:url(#radialGradient4226);fill-opacity:1;stroke:none" />
  <path
     d="M 15.995138,0.50089377 C 15.044241,0.50089377 14.279348,1.2639128 14.279511,2.2056678 C 14.279348,3.1474218 15.044241,3.9104428 15.995138,3.9104428 C 16.946034,3.9104428 17.724328,3.1474218 17.724167,2.2056678 C 17.724329,1.2639128 16.946035,0.50089377 15.995138,0.50089377 z M 10.88847,2.2056678 C 10.031493,2.2684178 9.2096426,2.4807338 8.4490652,2.7916848 L 9.9904482,5.4021198 C 10.383861,5.2785318 10.79279,5.2106718 11.223554,5.1890228 C 11.307874,5.1848038 11.392839,5.1890228 11.478216,5.1890228 C 13.840312,5.1890228 15.811516,6.8314658 16.303414,9.0247648 L 19.372775,9.0247648 C 19.154963,7.4303668 18.44786,5.9875158 17.41589,4.8427398 C 16.99206,5.0682288 16.509631,5.1890228 15.995138,5.1890228 C 14.379767,5.1890228 13.053675,3.9339218 12.979389,2.3521718 C 12.493228,2.2601778 11.991121,2.2056678 11.478216,2.2056678 C 11.375207,2.2056678 11.272006,2.2018188 11.169941,2.2056678 C 11.136718,2.2069208 11.109236,2.2040138 11.076117,2.2056678 C 11.044914,2.2072278 11.013417,2.2037498 10.982294,2.2056678 C 10.952145,2.2075258 10.91854,2.2034638 10.88847,2.2056678 z M 6.599407,3.8571678 C 5.363434,4.8102438 4.4207715,6.1224938 3.9187416,7.6263168 C 4.7117424,8.1639468 5.2322675,9.0672968 5.2322675,10.090249 C 5.2322675,11.113202 4.7117424,12.016552 3.9187416,12.554181 C 4.4206047,14.058372 5.3630034,15.3712 6.599407,16.323332 L 8.1273859,13.699577 C 7.1445724,12.803713 6.5323901,11.516089 6.5323901,10.090249 C 6.5323901,8.6649248 7.1457668,7.3790158 8.1273859,6.4809218 L 6.599407,3.8571678 z M 2.2299227,8.3854758 C 1.2790261,8.3854758 0.50073081,9.1484948 0.5008938,10.090249 C 0.50073081,11.032003 1.2790257,11.795024 2.2299227,11.795024 C 3.1808198,11.795024 3.9457117,11.032003 3.9455483,10.090249 C 3.9457113,9.1484948 3.1808194,8.3854758 2.2299227,8.3854758 z M 16.303414,11.155734 C 15.811517,13.349033 13.840312,14.991476 11.478216,14.991476 C 10.955278,14.991476 10.462473,14.913275 9.9904482,14.765061 L 8.4490652,17.375498 C 9.383068,17.757376 10.405223,17.974831 11.478216,17.974831 C 11.991121,17.974833 12.493229,17.920323 12.979389,17.828328 C 13.054279,16.312962 14.283641,15.087235 15.807491,14.991476 C 15.871435,14.987469 15.930176,14.991477 15.995138,14.991476 C 16.509631,14.991476 16.99206,15.112271 17.41589,15.337758 C 18.447861,14.192985 19.154962,12.750132 19.372775,11.155734 L 16.303414,11.155734 z M 15.995138,16.270057 C 15.044241,16.270057 14.279348,17.033076 14.279511,17.974831 C 14.279348,18.916586 15.044241,19.679608 15.995138,19.679606 C 16.946034,19.679606 17.724328,18.916586 17.724167,17.974831 C 17.724329,17.033076 16.946035,16.270058 15.995138,16.270057 z"
     id="path2317"
     style="fill:url(#radialGradient3588);fill-opacity:1;fill-rule:nonzero;stroke:url(#radialGradient3590);stroke-width:1.00178754;stroke-linecap:butt;stroke-linejoin:miter;marker:none;marker-start:none;marker-mid:none;marker-end:none;stroke-miterlimit:4;stroke-dasharray:none;stroke-dashoffset:0;stroke-opacity:1;visibility:visible;display:inline;overflow:visible;enable-background:accumulate" />
  <path
     d="M 6.5251986,4.3661408 C 5.4880792,5.2208698 4.6863147,6.3484128 4.22925,7.6348268 C 4.9771149,8.2015288 5.4685399,9.0864058 5.4685399,10.089572 C 5.4685399,11.092736 4.9771149,11.977615 4.22925,12.544316 C 4.6860959,13.831085 5.4879493,14.95898 6.5251986,15.813003 L 7.8036234,13.616652 C 6.8811154,12.71658 6.3034303,11.470999 6.3034303,10.089572 C 6.3034303,8.7080558 6.8819091,7.4641558 7.8036234,6.5624908 L 6.5251986,4.3661408 L 6.5251986,4.3661408 z M 6.4208371,4.9992058 L 7.2818179,6.4978928 C 6.4569264,7.4071688 5.9332502,8.5918538 5.885986,9.8957748 C 5.8340077,8.9476078 5.3904396,8.0953718 4.7249663,7.4927098 C 5.1063325,6.5436218 5.6903044,5.6935368 6.4208371,4.9992058 L 6.4208371,4.9992058 z M 5.885986,10.283366 C 5.9331386,11.587207 6.4556459,12.772541 7.2818179,13.68125 L 6.4208371,15.179938 C 5.6907375,14.48596 5.1059095,13.63574 4.7249663,12.686434 C 5.3909358,12.08374 5.8338732,11.231656 5.885986,10.283366 L 5.885986,10.283366 z"
     id="path2272"
     style="opacity:0.6;fill:url(#radialGradient3585);fill-opacity:1;stroke:none;display:inline" />
  <path
     d="M 2.0616779,8.7074198 C 1.3657056,8.7851748 0.82811604,9.3771048 0.82811604,10.089545 C 0.82811604,10.854642 1.4511357,11.47167 2.2236603,11.47167 C 2.9961855,11.47167 3.6192047,10.854642 3.619205,10.089545 C 3.6192047,9.3244478 2.9961847,8.7074198 2.2236603,8.7074198 C 2.172462,8.7074198 2.131344,8.7059208 2.1115188,8.7074198 C 2.094641,8.7086848 2.0783808,8.7055648 2.0616779,8.7074198 L 2.0616779,8.7074198 z M 2.0990584,9.1023128 C 2.1149046,9.1003778 2.1328369,9.1035368 2.1488992,9.1023128 C 2.1613936,9.1021098 2.1881309,9.1023128 2.2236606,9.1023128 C 2.7804508,9.1023128 3.220478,9.5381088 3.220478,10.089545 C 3.220478,10.640981 2.7804508,11.076778 2.2236606,11.076778 C 1.6668703,11.076778 1.2268432,10.640981 1.2268432,10.089545 C 1.2268432,9.5794948 1.6078212,9.1628118 2.0990584,9.1023128 L 2.0990584,9.1023128 z"
     id="path2284"
     style="opacity:0.6;fill:url(#radialGradient3582);fill-opacity:1;stroke:none;display:inline" />
  <path
     d="M 15.797824,0.93511977 C 15.158158,1.0065838 14.664061,1.5506258 14.664061,2.2054258 C 14.664061,2.9086238 15.236676,3.4757318 15.946701,3.4757318 C 16.656727,3.4757318 17.229342,2.9086238 17.229342,2.2054258 C 17.229342,1.5022278 16.656726,0.93511977 15.946701,0.93511977 C 15.899645,0.93511977 15.861854,0.93374077 15.843633,0.93511977 C 15.82812,0.93628177 15.813175,0.93341377 15.797824,0.93511977 L 15.797824,0.93511977 z M 15.832181,1.2980638 C 15.846744,1.2962858 15.863227,1.2991888 15.877988,1.2980638 C 15.889472,1.2978778 15.914046,1.2980638 15.946702,1.2980638 C 16.458446,1.2980638 16.862873,1.6986028 16.862873,2.2054258 C 16.862873,2.7122488 16.458446,3.1127888 15.946702,3.1127888 C 15.434957,3.1127888 15.03053,2.7122488 15.03053,2.2054258 C 15.03053,1.7366398 15.380685,1.3536688 15.832181,1.2980638 L 15.832181,1.2980638 z"
     id="path4951"
     style="opacity:0.6;fill:url(#radialGradient3579);fill-opacity:1;stroke:none;display:inline" />
  <path
     d="M 8.9709097,2.9793548 C 10.20676,2.5358018 11.556995,2.4237248 12.871161,2.6781078 C 12.980706,3.5829658 13.486196,4.4309798 14.334753,4.9270418 C 15.183307,5.4231048 16.174816,5.4502308 17.023992,5.1058368 C 17.886534,6.1237038 18.444082,7.3511618 18.653565,8.6397978 L 16.163541,8.6214628 C 15.858368,7.4058908 15.090422,6.3074648 13.921901,5.6243528 C 12.753307,4.9411968 11.415063,4.8092448 10.196577,5.1332008 L 8.9709097,2.9793548 L 8.9709097,2.9793548 z M 9.5580136,3.2052398 L 10.399967,4.6654368 C 11.57701,4.4261128 12.838067,4.5745558 13.964399,5.1798658 C 13.188068,4.6675868 12.686523,3.8756858 12.505818,3.0218598 C 11.514421,2.8710598 10.506578,2.9384348 9.5580136,3.2052398 L 9.5580136,3.2052398 z M 14.292253,5.3715298 C 15.371827,6.0556568 16.116096,7.0782058 16.476214,8.2175888 L 18.169675,8.2395838 C 17.943686,7.2866258 17.513699,6.3777388 16.899077,5.5901418 C 16.059952,5.8483368 15.120161,5.7969308 14.292253,5.3715298 L 14.292253,5.3715298 z"
     id="path4955"
     style="opacity:0.6;fill:url(#radialGradient3576);fill-opacity:1;stroke:none;display:inline" />
  <path
     d="M 27.50129,12.5 L 22.61854,18.5 L 17.760263,12.5 L 20.231726,12.5 C 21.062324,10.28838 19.356745,8.7726288 17.379194,8.7726288 C 15.973932,8.7726288 14.067338,9.5405958 13.423302,11.450052 C 13.088329,12.443198 12.498322,12.008127 12.521122,11.144978 C 12.609375,7.8143018 15.094454,5.1506658 18.804268,5.1506658 C 22.514084,5.1506658 25.269917,8.1204508 25.061755,12.5 L 27.50129,12.5 z"
     id="path4972"
     style="fill:url(#linearGradient2759);fill-opacity:1;fill-rule:nonzero;stroke:#699536;stroke-width:0.99999964;stroke-linecap:butt;stroke-linejoin:miter;marker:none;marker-start:none;marker-mid:none;marker-end:none;stroke-miterlimit:4;stroke-dasharray:none;stroke-dashoffset:0;stroke-opacity:1;visibility:visible;display:inline;overflow:visible" />
  <path
     d="M 25.48267,13.5 L 22.61854,16.96677 L 19.775782,13.5 L 20.931325,13.5 C 22.202423,10.68674 20.778243,7.8980607 17.818746,7.8209921 C 16.004806,7.6797521 14.341034,9.0366227 13.351242,10.231515 C 13.982006,7.4024557 15.649447,6.1393735 18.75173,6.1335395 C 21.886,6.1276455 24.633486,8.7232515 24.014077,13.5 L 25.48267,13.5 z"
     id="path4980"
     style="opacity:0.35400002;fill:none;fill-opacity:1;fill-rule:nonzero;stroke:url(#linearGradient2756);stroke-width:0.99999958;stroke-linecap:butt;stroke-linejoin:miter;marker:none;marker-start:none;marker-mid:none;marker-end:none;stroke-miterlimit:4;stroke-dasharray:none;stroke-dashoffset:0;stroke-opacity:1;visibility:visible;display:inline;overflow:visible;enable-background:accumulate" />
</svg>
