<svg xmlns="http://www.w3.org/2000/svg" xmlns:xlink="http://www.w3.org/1999/xlink" viewBox="0 0 16 16"><defs><radialGradient cx="184.385" cy="835.83" r="1.825" fx="184.385" fy="835.83" id="h" xlink:href="#a" gradientUnits="userSpaceOnUse" gradientTransform="matrix(.6791 .62844 -.8372 .9047 586.804 -870.668)"/><linearGradient id="a"><stop offset="0" stop-color="#e40f0d"/><stop offset="1" stop-color="#940a09"/></linearGradient><linearGradient x1="71.204" y1="6.238" x2="71.204" y2="44.341" id="g" xlink:href="#b" gradientUnits="userSpaceOnUse" gradientTransform="translate(-17.204 -.91) scale(.35135)"/><linearGradient id="b"><stop offset="0" stop-color="#fff"/><stop offset=".508" stop-color="#fff" stop-opacity=".235"/><stop offset=".835" stop-color="#fff" stop-opacity=".157"/><stop offset="1" stop-color="#fff" stop-opacity=".392"/></linearGradient><linearGradient x1="78" y1="909.362" x2="82.5" y2="909.362" id="f" xlink:href="#c" gradientUnits="userSpaceOnUse" gradientTransform="translate(-70 -898.362)" spreadMethod="reflect"/><linearGradient id="c"><stop offset="0" stop-color="#fffefe"/><stop offset=".664" stop-color="#fff"/><stop offset="1" stop-color="#929292"/></linearGradient><linearGradient id="d"><stop offset="0" stop-color="#fff3cb"/><stop offset=".433" stop-color="#fdde76"/><stop offset=".692" stop-color="#f9c440"/><stop offset="1" stop-color="#e48b20"/></linearGradient><radialGradient cx="282.788" cy="533.112" r="6.83" fx="277.665" fy="533.112" id="e" xlink:href="#d" gradientUnits="userSpaceOnUse" gradientTransform="matrix(0 .91916 -.99587 0 814.288 272.6)"/></defs><path d="M289.75 533.112a6.375 6.375 0 1 1-12.75 0 6.375 6.375 0 1 1 12.75 0z" transform="translate(-325.382 -619.19) scale(1.17647)" color="#000" fill="url(#e)" overflow="visible"/><path d="M3.528 8.5c-.01.12-.028.235-.028.357C3.5 11.42 5.515 13.5 8 13.5s4.5-2.08 4.5-4.643c0-.122-.02-.237-.028-.357H3.528z" color="#000" fill="url(#f)" overflow="visible"/><path d="M3.528 10c-.01.12-.028.235-.028.357C3.5 12.92 5.515 15 8 15s4.5-2.08 4.5-4.643c0-.122-.02-.237-.028-.357H3.528z" opacity=".3" color="#000" fill="#fff" overflow="visible"/><path d="M3.528 8.5c-.01.12-.028.235-.028.357C3.5 11.42 5.515 13.5 8 13.5s4.5-2.08 4.5-4.643c0-.122-.02-.237-.028-.357H3.528z" opacity=".3" color="#000" fill="none" stroke="#000" overflow="visible"/><path d="M4 10.438s4.016 2.39 8 0" opacity=".2" fill="none" stroke="#000"/><path d="M14.5 8a6.5 6.5 0 1 1-13 0 6.5 6.5 0 0 1 13 0z" color="#000" fill="none" stroke="url(#g)" stroke-linecap="round" stroke-linejoin="round" overflow="visible"/><path d="M15.5 8a7.5 7.5 0 1 1-15 0 7.5 7.5 0 1 1 15 0z" opacity=".5" color="#000" fill="none" stroke="#a53400" overflow="visible"/><path d="M3 4.5C1.276 3.466 2 0 2 0s1.53 2 3.5 2c0 .99-1.505 2.5-2.5 2.5z" fill="#aa0b0a"/><path d="M3.5 7.5s.275-1 1.45-1c1.175 0 1.55 1 1.55 1" opacity=".3" color="#000" fill="none" stroke="#fff" stroke-linecap="round" overflow="visible"/><path d="M3.5 6.5s.275-1 1.45-1c1.175 0 1.55 1 1.55 1" color="#000" fill="none" stroke="#5e4506" stroke-linecap="round" overflow="visible"/><path d="M12.484 7.5s-.275-1-1.45-1c-1.175 0-1.55 1-1.55 1" opacity=".3" color="#000" fill="none" stroke="#fff" stroke-linecap="round" overflow="visible"/><path d="M12.484 6.5s-.275-1-1.45-1c-1.175 0-1.55 1-1.55 1" color="#000" fill="none" stroke="#5e4506" stroke-linecap="round" overflow="visible"/><path d="M13 4.5C14.724 3.466 14 0 14 0s-1.53 2-3.5 2c0 .99 1.505 2.5 2.5 2.5z" fill="url(#h)"/></svg>