<svg xmlns="http://www.w3.org/2000/svg" xmlns:xlink="http://www.w3.org/1999/xlink" viewBox="0 0 16 16"><defs><linearGradient x1="71.204" y1="6.238" x2="71.204" y2="44.341" id="d" xlink:href="#a" gradientUnits="userSpaceOnUse" gradientTransform="translate(-17.204 -.91) scale(.35135)"/><linearGradient id="a"><stop offset="0" stop-color="#fff"/><stop offset=".508" stop-color="#fff" stop-opacity=".235"/><stop offset=".835" stop-color="#fff" stop-opacity=".157"/><stop offset="1" stop-color="#fff" stop-opacity=".392"/></linearGradient><linearGradient id="b"><stop offset="0" stop-color="#fff3cb"/><stop offset=".433" stop-color="#fdde76"/><stop offset=".692" stop-color="#f9c440"/><stop offset="1" stop-color="#e48b20"/></linearGradient><radialGradient cx="282.788" cy="533.112" r="6.83" fx="277.665" fy="533.112" id="c" xlink:href="#b" gradientUnits="userSpaceOnUse" gradientTransform="matrix(0 .91916 -.99587 0 814.288 272.6)"/></defs><g color="#000"><path d="M289.75 533.112a6.375 6.375 0 1 1-12.75 0 6.375 6.375 0 1 1 12.75 0z" transform="translate(-325.382 -619.19) scale(1.17647)" fill="url(#c)" overflow="visible"/><path d="M15.5 8a7.5 7.5 0 1 1-15 0 7.5 7.5 0 1 1 15 0z" opacity=".5" fill="none" stroke="#a53400" overflow="visible"/><path d="M14.5 8a6.5 6.5 0 1 1-13 0 6.5 6.5 0 0 1 13 0z" fill="none" stroke="url(#d)" stroke-linecap="round" stroke-linejoin="round" overflow="visible"/><path d="M6.75 6.263a.75 2 0 1 1-1.5 0 .75 2 0 1 1 1.5 0zm2.5 0a.75 2 0 1 1 1.5 0 .75 2 0 1 1-1.5 0z" fill="#43340d" overflow="visible"/><rect width="8" height="2" rx="3" ry="1" x="4" y="10" opacity=".3" fill="#fff" overflow="visible"/><rect width="8" height="1" rx="3" ry="1" x="4" y="10" fill="#5e4506" overflow="visible"/></g></svg>