<svg xmlns="http://www.w3.org/2000/svg" xmlns:xlink="http://www.w3.org/1999/xlink" viewBox="0 0 16 16"><defs><linearGradient id="a"><stop offset="0" stop-color="#ef4d00"/><stop offset="1" stop-color="#ff9764"/></linearGradient><linearGradient id="b"><stop offset="0" stop-color="#fff"/><stop offset=".508" stop-color="#fff" stop-opacity=".235"/><stop offset=".835" stop-color="#fff" stop-opacity=".157"/><stop offset="1" stop-color="#fff" stop-opacity=".392"/></linearGradient><linearGradient id="c"><stop offset="0" stop-color="#fff3cb"/><stop offset=".433" stop-color="#fdde76"/><stop offset=".692" stop-color="#f9c440"/><stop offset="1" stop-color="#e48b20"/></linearGradient><linearGradient x1="9" y1="11" x2="12" y2="11" id="f" xlink:href="#a" gradientUnits="userSpaceOnUse"/><linearGradient x1="71.204" y1="6.238" x2="71.204" y2="44.341" id="e" xlink:href="#b" gradientUnits="userSpaceOnUse" gradientTransform="translate(-17.204 -.91) scale(.35135)"/><radialGradient cx="282.788" cy="533.112" r="6.83" fx="277.665" fy="533.112" id="d" xlink:href="#c" gradientUnits="userSpaceOnUse" gradientTransform="matrix(0 1.08136 -1.17162 0 632.603 -298.485)"/></defs><path d="M15.5 8a7.5 7.5 0 0 1-15 0 7.5 7.5 0 1 1 15 0z" color="#000" fill="url(#d)" overflow="visible"/><path d="M14.5 8a6.5 6.5 0 1 1-13 0 6.5 6.5 0 0 1 13 0z" color="#000" fill="none" stroke="url(#e)" stroke-linecap="round" stroke-linejoin="round" overflow="visible"/><path d="M15.5 8a7.5 7.5 0 0 1-15 0 7.5 7.5 0 1 1 15 0z" opacity=".5" color="#000" fill="none" stroke="#a53400" overflow="visible"/><path d="M11.245 10.195L5.5 10.5" opacity=".3" color="#000" fill="none" stroke="#fff" overflow="visible"/><path d="M11.302 9.452L5.5 9.5" color="#000" fill="none" stroke="#5e4506" overflow="visible"/><path d="M7 9.5h4s.973.672.973 1.612c0 0 .03 1.388-1.973 1.388 0 0-1.5-.09-1.5-1.21 0 0 .037-1.79-1.5-1.79z" fill="url(#f)" stroke="#ae3800"/><path d="M4.5 5L7 6.5 4.5 8M12 5L9.5 6.5 12 8" opacity=".3" fill="none" stroke="#fff"/><path d="M4.5 4L7 5.5 4.5 7M12 4L9.5 5.5 12 7" fill="none" stroke="#5e4506"/></svg>